version 1
nodes
0 "root" -1
end
skeleton
time 0
0 0 0 0 0 0 0
end
triangles
pepsi2_arch_concrete_stair01
0 63 70 32 -1 0 0 -34.601562 -2.373047 1 0 1
0 63 70 43 -1 0 0 -34.601562 -2.287109 1 0 1
0 63 307 43 -1 0 0 -32.75 -2.287109 1 0 1
pepsi2_arch_concrete_stair01
0 63 70 32 -1 0 0 -34.601562 -2.373047 1 0 1
0 63 307 43 -1 0 0 -32.75 -2.287109 1 0 1
0 63 307 32 -1 0 0 -32.75 -2.373047 1 0 1
pepsi2_arch_concrete_stair01
0 69 70 43 1 0 0 34.242188 -2.287109 1 0 1
0 69 70 32 1 0 0 34.242188 -2.373047 1 0 1
0 69 307 32 1 0 0 32.390625 -2.373047 1 0 1
pepsi2_arch_concrete_stair01
0 69 70 43 1 0 0 34.242188 -2.287109 1 0 1
0 69 307 32 1 0 0 32.390625 -2.373047 1 0 1
0 69 307 43 1 0 0 32.390625 -2.287109 1 0 1
pepsi2_arch_concrete_stair01
0 63 70 43 0 0 1 -34.601562 -81.287109 1 0 1
0 69 70 43 0 0 1 -34.601562 -81.240234 1 0 1
0 69 307 43 0 0 1 -32.75 -81.240234 1 0 1
pepsi2_arch_concrete_stair01
0 63 70 43 0 0 1 -34.601562 -81.287109 1 0 1
0 69 307 43 0 0 1 -32.75 -81.240234 1 0 1
0 63 307 43 0 0 1 -32.75 -81.287109 1 0 1
pepsi2_arch_concrete_floor_smooth01
0 58 22 75 0 0 1 -81.640625 36.0625 1 0 1
0 86 22 75 0 0 1 -81.421875 36.0625 1 0 1
0 94 30 75 0 0 1 -81.359375 36 1 0 1
pepsi2_arch_concrete_floor_smooth01
0 58 22 75 0 0 1 -81.640625 36.0625 1 0 1
0 94 30 75 0 0 1 -81.359375 36 1 0 1
0 94 62 75 0 0 1 -81.359375 35.75 1 0 1
pepsi2_arch_concrete_floor_smooth01
0 58 22 75 0 0 1 -81.640625 36.0625 1 0 1
0 94 62 75 0 0 1 -81.359375 35.75 1 0 1
0 86 70 75 0 0 1 -81.421875 35.6875 1 0 1
pepsi2_arch_concrete_floor_smooth01
0 58 22 75 0 0 1 -81.640625 36.0625 1 0 1
0 86 70 75 0 0 1 -81.421875 35.6875 1 0 1
0 58 70 75 0 0 1 -81.640625 35.6875 1 0 1
pepsi2_arch_concrete_stair01
0 86 70 32 0.707107 0.707107 0 -33.422089 -2.373047 1 0 1
0 86 70 75 0.707107 0.707107 0 -33.422089 -2.037109 1 0 1
0 94 62 75 0.707107 0.707107 0 -33.333702 -2.037109 1 0 1
pepsi2_arch_concrete_stair01
0 86 70 32 0.707107 0.707107 0 -33.422089 -2.373047 1 0 1
0 94 62 75 0.707107 0.707107 0 -33.333702 -2.037109 1 0 1
0 94 62 32 0.707107 0.707107 0 -33.333702 -2.373047 1 0 1
pepsi2_arch_concrete_stair01
0 94 30 32 0.707107 -0.707107 0 81.915427 -2.373047 1 0 1
0 94 30 75 0.707107 -0.707107 0 81.915427 -2.037109 1 0 1
0 86 22 75 0.707107 -0.707107 0 82.003814 -2.037109 1 0 1
pepsi2_arch_concrete_stair01
0 94 30 32 0.707107 -0.707107 0 81.915427 -2.373047 1 0 1
0 86 22 75 0.707107 -0.707107 0 82.003814 -2.037109 1 0 1
0 86 22 32 0.707107 -0.707107 0 82.003814 -2.373047 1 0 1
pepsi2_arch_concrete_stair01
0 58 70 32 0 1 0 -81.640625 -2.373047 1 0 1
0 58 70 75 0 1 0 -81.640625 -2.037109 1 0 1
0 86 70 75 0 1 0 -81.421875 -2.037109 1 0 1
pepsi2_arch_concrete_stair01
0 58 70 32 0 1 0 -81.640625 -2.373047 1 0 1
0 86 70 75 0 1 0 -81.421875 -2.037109 1 0 1
0 86 70 32 0 1 0 -81.421875 -2.373047 1 0 1
pepsi2_arch_concrete_stair01
0 86 22 32 0 -1 0 82.005859 -2.373047 1 0 1
0 86 22 75 0 -1 0 82.005859 -2.037109 1 0 1
0 58 22 75 0 -1 0 82.224609 -2.037109 1 0 1
pepsi2_arch_concrete_stair01
0 86 22 32 0 -1 0 82.005859 -2.373047 1 0 1
0 58 22 75 0 -1 0 82.224609 -2.037109 1 0 1
0 58 22 32 0 -1 0 82.224609 -2.373047 1 0 1
pepsi2_arch_concrete_stair01
0 58 22 32 -1 0 0 -34.976562 -2.373047 1 0 1
0 58 22 75 -1 0 0 -34.976562 -2.037109 1 0 1
0 58 70 75 -1 0 0 -34.601562 -2.037109 1 0 1
pepsi2_arch_concrete_stair01
0 58 22 32 -1 0 0 -34.976562 -2.373047 1 0 1
0 58 70 75 -1 0 0 -34.601562 -2.037109 1 0 1
0 58 70 32 -1 0 0 -34.601562 -2.373047 1 0 1
pepsi2_arch_concrete_stair01
0 94 62 32 1 0 0 34.666016 -2.373047 1 0 1
0 94 62 75 1 0 0 34.666016 -2.037109 1 0 1
0 94 30 75 1 0 0 34.916016 -2.037109 1 0 1
pepsi2_arch_concrete_stair01
0 94 62 32 1 0 0 34.666016 -2.373047 1 0 1
0 94 30 75 1 0 0 34.916016 -2.037109 1 0 1
0 94 30 32 1 0 0 34.916016 -2.373047 1 0 1
pepsi2_arch_stairs01
0 -78 54 16 0 0 1 154.001013 127.456019 1 0 1
0 -62 38 16 0 0 1 153.769531 127.918981 1 0 1
0 58 38 16 0 0 1 152.03342 127.918981 1 0 1
pepsi2_arch_stairs01
0 -78 54 16 0 0 1 154.001013 127.456019 1 0 1
0 58 38 16 0 0 1 152.03342 127.918981 1 0 1
0 58 54 16 0 0 1 152.03342 127.456019 1 0 1
pepsi2_arch_concrete_floor_smooth01
0 -62 38 16 -0.707107 -0.707107 0 -82.789062 -2.664062 1 0 1
0 -78 54 16 -0.707107 -0.707107 0 -82.914062 -2.664062 1 0 1
0 -78 54 0 -0.707107 -0.707107 0 -82.914062 -2.789062 1 0 1
pepsi2_arch_concrete_floor_smooth01
0 -62 38 16 -0.707107 -0.707107 0 -82.789062 -2.664062 1 0 1
0 -78 54 0 -0.707107 -0.707107 0 -82.914062 -2.789062 1 0 1
0 -62 38 0 -0.707107 -0.707107 0 -82.789062 -2.789062 1 0 1
pepsi2_arch_stairs01
0 58 54 16 0 1 0 152.03342 -9.537905 1 0 1
0 58 54 0 0 1 0 152.03342 -10.000868 1 0 1
0 -78 54 0 0 1 0 154.001013 -10.000868 1 0 1
pepsi2_arch_stairs01
0 58 54 16 0 1 0 152.03342 -9.537905 1 0 1
0 -78 54 0 0 1 0 154.001013 -10.000868 1 0 1
0 -78 54 16 0 1 0 154.001013 -9.537905 1 0 1
metal_metalfireescape002a
0 65 70 43 -1 0 0 68.484375 -11 1 0 1
0 65 70 75 -1 0 0 68.484375 -10 1 0 1
0 65 307 75 -1 0 0 64.78125 -10 1 0 1
metal_metalfireescape002a
0 65 70 43 -1 0 0 68.484375 -11 1 0 1
0 65 307 75 -1 0 0 64.78125 -10 1 0 1
0 65 307 43 -1 0 0 64.78125 -11 1 0 1
metal_metalfireescape002a
0 67 70 75 1 0 0 -68.078125 -10 1 0 1
0 67 70 43 1 0 0 -68.078125 -11 1 0 1
0 67 307 43 1 0 0 -64.375 -11 1 0 1
metal_metalfireescape002a
0 67 70 75 1 0 0 -68.078125 -10 1 0 1
0 67 307 43 1 0 0 -64.375 -11 1 0 1
0 67 307 75 1 0 0 -64.375 -10 1 0 1
metal_metalfireescape002a
0 65 70 75 0 0 1 -31.496449 150.977273 1 0 1
0 67 70 75 0 0 1 -31.496449 150.948864 1 0 1
0 67 307 75 0 0 1 -29.81321 150.948864 1 0 1
metal_metalfireescape002a
0 65 70 75 0 0 1 -31.496449 150.977273 1 0 1
0 67 307 75 0 0 1 -29.81321 150.948864 1 0 1
0 65 307 75 0 0 1 -29.81321 150.977273 1 0 1
pepsi2_arch_concrete_floor_smooth01
0 -46 -266 32 0 0 1 -82.90625 37.625 1 0 1
0 58 -266 32 0 0 1 -82.09375 37.625 1 0 1
0 58 22 32 0 0 1 -82.09375 35.375 1 0 1
pepsi2_arch_concrete_floor_smooth01
0 -46 -266 32 0 0 1 -82.90625 37.625 1 0 1
0 58 22 32 0 0 1 -82.09375 35.375 1 0 1
0 -46 22 32 0 0 1 -82.90625 35.375 1 0 1
pepsi2_arch_stairs01
0 -46 22 0 0 1 0 153.713831 -10.914931 1 0 1
0 -46 22 32 0 1 0 153.713831 -9.989005 1 0 1
0 58 22 32 0 1 0 152.209201 -9.989005 1 0 1
pepsi2_arch_stairs01
0 -46 22 0 0 1 0 153.713831 -10.914931 1 0 1
0 58 22 32 0 1 0 152.209201 -9.989005 1 0 1
0 58 22 0 0 1 0 152.209201 -10.914931 1 0 1
pepsi2_arch_stairs01
0 58 -266 0 0 -1 0 -152.642795 -10.914931 1 0 1
0 58 -266 32 0 -1 0 -152.642795 -9.989005 1 0 1
0 -46 -266 32 0 -1 0 -154.147425 -9.989005 1 0 1
pepsi2_arch_stairs01
0 58 -266 0 0 -1 0 -152.642795 -10.914931 1 0 1
0 -46 -266 32 0 -1 0 -154.147425 -9.989005 1 0 1
0 -46 -266 0 0 -1 0 -154.147425 -10.914931 1 0 1
pepsi2_arch_stairs01
0 -46 -266 0 -1 0 0 67.865451 -10.914931 1 0 1
0 -46 -266 32 -1 0 0 67.865451 -9.989005 1 0 1
0 -46 22 32 -1 0 0 63.698785 -9.989005 1 0 1
pepsi2_arch_stairs01
0 -46 -266 0 -1 0 0 67.865451 -10.914931 1 0 1
0 -46 22 32 -1 0 0 63.698785 -9.989005 1 0 1
0 -46 22 0 -1 0 0 63.698785 -10.914931 1 0 1
pepsi2_arch_stairs01
0 -62 -282 24 -1 0 0 68.096933 -9.306424 1 0 1
0 -62 38 24 -1 0 0 63.467303 -9.306424 1 0 1
0 -62 38 0 -1 0 0 63.467303 -10.000868 1 0 1
pepsi2_arch_stairs01
0 -62 -282 24 -1 0 0 68.096933 -9.306424 1 0 1
0 -62 38 0 -1 0 0 63.467303 -10.000868 1 0 1
0 -62 -282 0 -1 0 0 68.096933 -10.000868 1 0 1
pepsi2_arch_stairs01
0 -46 -266 24 0 0 1 67.865451 -307.841725 1 0 1
0 -46 22 24 0 0 1 63.698785 -307.841725 1 0 1
0 -62 38 24 0 0 1 63.467303 -308.304688 1 0 1
pepsi2_arch_stairs01
0 -46 -266 24 0 0 1 67.865451 -307.841725 1 0 1
0 -62 38 24 0 0 1 63.467303 -308.304688 1 0 1
0 -62 -282 24 0 0 1 68.096933 -308.304688 1 0 1
pepsi2_arch_stairs01
0 -94 -314 8 -1 0 0 68.559896 -9.769387 1 0 1
0 -94 70 8 -1 0 0 63.00434 -9.769387 1 0 1
0 -94 70 0 -1 0 0 63.00434 -10.000868 1 0 1
pepsi2_arch_stairs01
0 -94 -314 8 -1 0 0 68.559896 -9.769387 1 0 1
0 -94 70 0 -1 0 0 63.00434 -10.000868 1 0 1
0 -94 -314 0 -1 0 0 68.559896 -10.000868 1 0 1
pepsi2_arch_stairs01
0 -78 -298 8 0 0 1 68.328414 -308.306713 1 0 1
0 -78 54 8 0 0 1 63.235822 -308.306713 1 0 1
0 -94 70 8 0 0 1 63.00434 -308.769676 1 0 1
pepsi2_arch_stairs01
0 -78 -298 8 0 0 1 68.328414 -308.306713 1 0 1
0 -94 70 8 0 0 1 63.00434 -308.769676 1 0 1
0 -94 -314 8 0 0 1 68.559896 -308.769676 1 0 1
pepsi2_arch_stairs01
0 -78 -298 16 -1 0 0 69.094039 -9.537905 1 0 1
0 -78 54 16 -1 0 0 64.001447 -9.537905 1 0 1
0 -78 54 0 -1 0 0 64.001447 -10.000868 1 0 1
pepsi2_arch_stairs01
0 -78 -298 16 -1 0 0 69.094039 -9.537905 1 0 1
0 -78 54 0 -1 0 0 64.001447 -10.000868 1 0 1
0 -78 -298 0 -1 0 0 69.094039 -10.000868 1 0 1
pepsi2_arch_stairs01
0 -62 -282 16 0 0 1 68.862558 -308.070312 1 0 1
0 -62 38 16 0 0 1 64.232928 -308.070312 1 0 1
0 -78 54 16 0 0 1 64.001447 -308.533275 1 0 1
pepsi2_arch_stairs01
0 -62 -282 16 0 0 1 68.862558 -308.070312 1 0 1
0 -78 54 16 0 0 1 64.001447 -308.533275 1 0 1
0 -78 -298 16 0 0 1 69.094039 -308.533275 1 0 1
pepsi2_arch_concrete_floor_smooth01
0 -78 -298 16 0.707107 -0.707107 0 -82.914062 -2.664062 1 0 1
0 -78 -298 0 0.707107 -0.707107 0 -82.914062 -2.789062 1 0 1
0 -62 -282 0 0.707107 -0.707107 0 -82.789062 -2.789062 1 0 1
pepsi2_arch_concrete_floor_smooth01
0 -78 -298 16 0.707107 -0.707107 0 -82.914062 -2.664062 1 0 1
0 -62 -282 0 0.707107 -0.707107 0 -82.789062 -2.789062 1 0 1
0 -62 -282 16 0.707107 -0.707107 0 -82.789062 -2.664062 1 0 1
pepsi2_arch_concrete_floor_smooth01
0 -62 38 16 0.707107 0.707107 0 -82.789062 -2.664062 1 0 1
0 -62 38 0 0.707107 0.707107 0 -82.789062 -2.789062 1 0 1
0 -78 54 0 0.707107 0.707107 0 -82.914062 -2.789062 1 0 1
pepsi2_arch_concrete_floor_smooth01
0 -62 38 16 0.707107 0.707107 0 -82.789062 -2.664062 1 0 1
0 -78 54 0 0.707107 0.707107 0 -82.914062 -2.789062 1 0 1
0 -78 54 16 0.707107 0.707107 0 -82.914062 -2.664062 1 0 1
pepsi2_arch_stairs01
0 58 70 8 0 1 0 152.806858 -9.769387 1 0 1
0 58 70 0 0 1 0 152.806858 -10.000868 1 0 1
0 -94 70 0 0 1 0 155.005932 -10.000868 1 0 1
pepsi2_arch_stairs01
0 58 70 8 0 1 0 152.806858 -9.769387 1 0 1
0 -94 70 0 0 1 0 155.005932 -10.000868 1 0 1
0 -94 70 8 0 1 0 155.005932 -9.769387 1 0 1
pepsi2_arch_stairs01
0 -78 54 8 0 0 1 154.77445 127.682581 1 0 1
0 58 54 8 0 0 1 152.806858 127.682581 1 0 1
0 58 70 8 0 0 1 152.806858 127.219618 1 0 1
pepsi2_arch_stairs01
0 -78 54 8 0 0 1 154.77445 127.682581 1 0 1
0 58 70 8 0 0 1 152.806858 127.219618 1 0 1
0 -94 70 8 0 0 1 155.005932 127.219618 1 0 1
pepsi2_arch_concrete_stair01
0 69 313 75 0 1 0 -81.65625 -2.037109 1 0 1
0 69 313 32 0 1 0 -81.65625 -2.373047 1 0 1
0 63 313 32 0 1 0 -81.703125 -2.373047 1 0 1
pepsi2_arch_concrete_stair01
0 69 313 75 0 1 0 -81.65625 -2.037109 1 0 1
0 63 313 32 0 1 0 -81.703125 -2.373047 1 0 1
0 63 313 75 0 1 0 -81.703125 -2.037109 1 0 1
pepsi2_arch_concrete_stair01
0 69 307 32 0 -1 0 -81.65625 -2.373047 1 0 1
0 69 307 75 0 -1 0 -81.65625 -2.037109 1 0 1
0 63 307 75 0 -1 0 -81.703125 -2.037109 1 0 1
pepsi2_arch_concrete_stair01
0 69 307 32 0 -1 0 -81.65625 -2.373047 1 0 1
0 63 307 75 0 -1 0 -81.703125 -2.037109 1 0 1
0 63 307 32 0 -1 0 -81.703125 -2.373047 1 0 1
pepsi2_arch_concrete_stair01
0 63 307 32 -1 0 0 -32.75 -2.373047 1 0 1
0 63 307 75 -1 0 0 -32.75 -2.037109 1 0 1
0 63 313 75 -1 0 0 -32.703125 -2.037109 1 0 1
pepsi2_arch_concrete_stair01
0 63 307 32 -1 0 0 -32.75 -2.373047 1 0 1
0 63 313 75 -1 0 0 -32.703125 -2.037109 1 0 1
0 63 313 32 -1 0 0 -32.703125 -2.373047 1 0 1
pepsi2_arch_concrete_stair01
0 69 307 75 1 0 0 32.390625 -2.037109 1 0 1
0 69 307 32 1 0 0 32.390625 -2.373047 1 0 1
0 69 313 32 1 0 0 32.34375 -2.373047 1 0 1
pepsi2_arch_concrete_stair01
0 69 307 75 1 0 0 32.390625 -2.037109 1 0 1
0 69 313 32 1 0 0 32.34375 -2.373047 1 0 1
0 69 313 75 1 0 0 32.34375 -2.037109 1 0 1
pepsi2_arch_concrete_stair01
0 63 307 75 0 0 1 -32.75 -81.037109 1 0 1
0 69 307 75 0 0 1 -32.75 -80.990234 1 0 1
0 69 313 75 0 0 1 -32.703125 -80.990234 1 0 1
pepsi2_arch_concrete_stair01
0 63 307 75 0 0 1 -32.75 -81.037109 1 0 1
0 69 313 75 0 0 1 -32.703125 -80.990234 1 0 1
0 63 313 75 0 0 1 -32.703125 -81.037109 1 0 1
pepsi2_arch_stairs01
0 58 38 24 0 1 0 152.732639 -9.306424 1 0 1
0 58 38 0 0 1 0 152.732639 -10.000868 1 0 1
0 -62 38 0 0 1 0 154.46875 -10.000868 1 0 1
pepsi2_arch_stairs01
0 58 38 24 0 1 0 152.732639 -9.306424 1 0 1
0 -62 38 0 0 1 0 154.46875 -10.000868 1 0 1
0 -62 38 24 0 1 0 154.46875 -9.306424 1 0 1
pepsi2_arch_stairs01
0 -46 22 24 0 0 1 154.237269 129.147569 1 0 1
0 58 22 24 0 0 1 152.732639 129.147569 1 0 1
0 58 38 24 0 0 1 152.732639 128.684606 1 0 1
pepsi2_arch_stairs01
0 -46 22 24 0 0 1 154.237269 129.147569 1 0 1
0 58 38 24 0 0 1 152.732639 128.684606 1 0 1
0 -62 38 24 0 0 1 154.46875 128.684606 1 0 1
end
