version 1
nodes
0 "root" -1
end
skeleton
time 0
0 0 0 0 0 0 0
end
triangles
phys
0 47.78 159.7 56.108 0 0 1 1 0 1 0 1
0 55.78 151.7 56.108 0 0 1 1 0 1 0 1
0 191.79 151.7 56.108 0 0 1 1 0 1 0 1
phys
0 47.78 159.7 56.108 0 0 1 1 0 1 0 1
0 191.79 151.7 56.108 0 0 1 1 0 1 0 1
0 191.79 159.7 56.108 0 0 1 1 0 1 0 1
phys
0 55.78 151.7 -63.892 0 0 1 1 0 1 0 1
0 55.78 151.7 56.108 0 0 1 1 0 1 0 1
0 47.78 159.7 56.108 0 0 1 1 0 1 0 1
phys
0 55.78 151.7 -63.892 0 0 1 1 0 1 0 1
0 47.78 159.7 56.108 0 0 1 1 0 1 0 1
0 47.78 159.7 -63.892 0 0 1 1 0 1 0 1
phys
0 47.78 159.7 -63.892 0 0 1 1 0 1 0 1
0 47.78 159.7 56.108 0 0 1 1 0 1 0 1
0 191.79 159.7 56.108 0 0 1 1 0 1 0 1
phys
0 47.78 159.7 -63.892 0 0 1 1 0 1 0 1
0 191.79 159.7 56.108 0 0 1 1 0 1 0 1
0 191.79 159.7 -63.892 0 0 1 1 0 1 0 1
phys
0 191.79 151.7 -63.892 0 0 1 1 0 1 0 1
0 191.79 151.7 56.108 0 0 1 1 0 1 0 1
0 55.78 151.7 56.108 0 0 1 1 0 1 0 1
phys
0 191.79 151.7 -63.892 0 0 1 1 0 1 0 1
0 55.78 151.7 56.108 0 0 1 1 0 1 0 1
0 55.78 151.7 -63.892 0 0 1 1 0 1 0 1
phys
0 191.79 159.7 -63.892 0 0 1 1 0 1 0 1
0 191.79 159.7 56.108 0 0 1 1 0 1 0 1
0 191.79 151.7 56.108 0 0 1 1 0 1 0 1
phys
0 191.79 159.7 -63.892 0 0 1 1 0 1 0 1
0 191.79 151.7 56.108 0 0 1 1 0 1 0 1
0 191.79 151.7 -63.892 0 0 1 1 0 1 0 1
phys
0 191.79 151.7 -63.892 0 0 1 1 0 1 0 1
0 55.78 151.7 -63.892 0 0 1 1 0 1 0 1
0 47.78 159.7 -63.892 0 0 1 1 0 1 0 1
phys
0 191.79 151.7 -63.892 0 0 1 1 0 1 0 1
0 47.78 159.7 -63.892 0 0 1 1 0 1 0 1
0 191.79 159.7 -63.892 0 0 1 1 0 1 0 1
phys
0 127.78 151.7 0.108 0 0 1 2 0 1 0 1
0 127.78 151.7 -63.892 0 0 1 2 0 1 0 1
0 119.78 151.7 -63.892 0 0 1 2 0 1 0 1
phys
0 127.78 151.7 0.108 0 0 1 2 0 1 0 1
0 119.78 151.7 -63.892 0 0 1 2 0 1 0 1
0 119.78 151.7 0.108 0 0 1 2 0 1 0 1
phys
0 127.78 95.7 -63.892 0 0 1 2 0 1 0 1
0 127.78 95.7 0.108 0 0 1 2 0 1 0 1
0 119.78 95.7 0.108 0 0 1 2 0 1 0 1
phys
0 127.78 95.7 -63.892 0 0 1 2 0 1 0 1
0 119.78 95.7 0.108 0 0 1 2 0 1 0 1
0 119.78 95.7 -63.892 0 0 1 2 0 1 0 1
phys
0 119.78 95.7 -63.892 0 0 1 2 0 1 0 1
0 119.78 95.7 0.108 0 0 1 2 0 1 0 1
0 119.78 151.7 0.108 0 0 1 2 0 1 0 1
phys
0 119.78 95.7 -63.892 0 0 1 2 0 1 0 1
0 119.78 151.7 0.108 0 0 1 2 0 1 0 1
0 119.78 151.7 -63.892 0 0 1 2 0 1 0 1
phys
0 127.78 95.7 0.108 0 0 1 2 0 1 0 1
0 127.78 95.7 -63.892 0 0 1 2 0 1 0 1
0 127.78 151.7 -63.892 0 0 1 2 0 1 0 1
phys
0 127.78 95.7 0.108 0 0 1 2 0 1 0 1
0 127.78 151.7 -63.892 0 0 1 2 0 1 0 1
0 127.78 151.7 0.108 0 0 1 2 0 1 0 1
phys
0 127.78 95.7 -63.892 0 0 1 2 0 1 0 1
0 119.78 95.7 -63.892 0 0 1 2 0 1 0 1
0 119.78 151.7 -63.892 0 0 1 2 0 1 0 1
phys
0 127.78 95.7 -63.892 0 0 1 2 0 1 0 1
0 119.78 151.7 -63.892 0 0 1 2 0 1 0 1
0 127.78 151.7 -63.892 0 0 1 2 0 1 0 1
phys
0 119.78 95.7 0.108 0 0 1 2 0 1 0 1
0 127.78 95.7 0.108 0 0 1 2 0 1 0 1
0 127.78 151.7 0.108 0 0 1 2 0 1 0 1
phys
0 119.78 95.7 0.108 0 0 1 2 0 1 0 1
0 127.78 151.7 0.108 0 0 1 2 0 1 0 1
0 119.78 151.7 0.108 0 0 1 2 0 1 0 1
phys
0 -48.22 159.7 -63.892 0 0 1 3 0 1 0 1
0 -288.21 159.7 -63.892 0 0 1 3 0 1 0 1
0 -288.21 159.7 56.108 0 0 1 3 0 1 0 1
phys
0 -48.22 159.7 -63.892 0 0 1 3 0 1 0 1
0 -288.21 159.7 56.108 0 0 1 3 0 1 0 1
0 -48.22 159.7 56.108 0 0 1 3 0 1 0 1
phys
0 -56.22 151.7 56.108 0 0 1 3 0 1 0 1
0 -288.21 151.7 56.108 0 0 1 3 0 1 0 1
0 -288.21 151.7 -63.892 0 0 1 3 0 1 0 1
phys
0 -56.22 151.7 56.108 0 0 1 3 0 1 0 1
0 -288.21 151.7 -63.892 0 0 1 3 0 1 0 1
0 -56.22 151.7 -63.892 0 0 1 3 0 1 0 1
phys
0 -288.21 151.7 -63.892 0 0 1 3 0 1 0 1
0 -288.21 151.7 56.108 0 0 1 3 0 1 0 1
0 -288.21 159.7 56.108 0 0 1 3 0 1 0 1
phys
0 -288.21 151.7 -63.892 0 0 1 3 0 1 0 1
0 -288.21 159.7 56.108 0 0 1 3 0 1 0 1
0 -288.21 159.7 -63.892 0 0 1 3 0 1 0 1
phys
0 -56.22 151.7 -63.892 0 0 1 3 0 1 0 1
0 -288.21 151.7 -63.892 0 0 1 3 0 1 0 1
0 -288.21 159.7 -63.892 0 0 1 3 0 1 0 1
phys
0 -56.22 151.7 -63.892 0 0 1 3 0 1 0 1
0 -288.21 159.7 -63.892 0 0 1 3 0 1 0 1
0 -48.22 159.7 -63.892 0 0 1 3 0 1 0 1
phys
0 -288.21 151.7 56.108 0 0 1 3 0 1 0 1
0 -56.22 151.7 56.108 0 0 1 3 0 1 0 1
0 -48.22 159.7 56.108 0 0 1 3 0 1 0 1
phys
0 -288.21 151.7 56.108 0 0 1 3 0 1 0 1
0 -48.22 159.7 56.108 0 0 1 3 0 1 0 1
0 -288.21 159.7 56.108 0 0 1 3 0 1 0 1
phys
0 -56.22 151.7 56.108 0 0 1 3 0 1 0 1
0 -56.22 151.7 -63.892 0 0 1 3 0 1 0 1
0 -48.22 159.7 -63.892 0 0 1 3 0 1 0 1
phys
0 -56.22 151.7 56.108 0 0 1 3 0 1 0 1
0 -48.22 159.7 -63.892 0 0 1 3 0 1 0 1
0 -48.22 159.7 56.108 0 0 1 3 0 1 0 1
phys
0 -128.22 199.7 -23.892 0 0 1 4 0 1 0 1
0 -128.22 199.7 -63.892 0 0 1 4 0 1 0 1
0 -260.22 199.7 -63.892 0 0 1 4 0 1 0 1
phys
0 -128.22 199.7 -23.892 0 0 1 4 0 1 0 1
0 -260.22 199.7 -63.892 0 0 1 4 0 1 0 1
0 -260.22 199.7 -23.892 0 0 1 4 0 1 0 1
phys
0 -128.22 159.7 -63.892 0 0 1 4 0 1 0 1
0 -128.22 159.7 -23.892 0 0 1 4 0 1 0 1
0 -260.22 159.7 -23.892 0 0 1 4 0 1 0 1
phys
0 -128.22 159.7 -63.892 0 0 1 4 0 1 0 1
0 -260.22 159.7 -23.892 0 0 1 4 0 1 0 1
0 -260.22 159.7 -63.892 0 0 1 4 0 1 0 1
phys
0 -260.22 159.7 -63.892 0 0 1 4 0 1 0 1
0 -260.22 159.7 -23.892 0 0 1 4 0 1 0 1
0 -260.22 199.7 -23.892 0 0 1 4 0 1 0 1
phys
0 -260.22 159.7 -63.892 0 0 1 4 0 1 0 1
0 -260.22 199.7 -23.892 0 0 1 4 0 1 0 1
0 -260.22 199.7 -63.892 0 0 1 4 0 1 0 1
phys
0 -128.22 159.7 -23.892 0 0 1 4 0 1 0 1
0 -128.22 159.7 -63.892 0 0 1 4 0 1 0 1
0 -128.22 199.7 -63.892 0 0 1 4 0 1 0 1
phys
0 -128.22 159.7 -23.892 0 0 1 4 0 1 0 1
0 -128.22 199.7 -63.892 0 0 1 4 0 1 0 1
0 -128.22 199.7 -23.892 0 0 1 4 0 1 0 1
phys
0 -128.22 159.7 -63.892 0 0 1 4 0 1 0 1
0 -260.22 159.7 -63.892 0 0 1 4 0 1 0 1
0 -260.22 199.7 -63.892 0 0 1 4 0 1 0 1
phys
0 -128.22 159.7 -63.892 0 0 1 4 0 1 0 1
0 -260.22 199.7 -63.892 0 0 1 4 0 1 0 1
0 -128.22 199.7 -63.892 0 0 1 4 0 1 0 1
phys
0 -260.22 159.7 -23.892 0 0 1 4 0 1 0 1
0 -128.22 159.7 -23.892 0 0 1 4 0 1 0 1
0 -128.22 199.7 -23.892 0 0 1 4 0 1 0 1
phys
0 -260.22 159.7 -23.892 0 0 1 4 0 1 0 1
0 -128.22 199.7 -23.892 0 0 1 4 0 1 0 1
0 -260.22 199.7 -23.892 0 0 1 4 0 1 0 1
phys
0 -48.22 -152.3 -63.892 0 0 1 5 0 1 0 1
0 -48.22 -152.3 56.108 0 0 1 5 0 1 0 1
0 -56.22 -152.3 56.108 0 0 1 5 0 1 0 1
phys
0 -48.22 -152.3 -63.892 0 0 1 5 0 1 0 1
0 -56.22 -152.3 56.108 0 0 1 5 0 1 0 1
0 -56.22 -152.3 -63.892 0 0 1 5 0 1 0 1
phys
0 -56.22 -152.3 -63.892 0 0 1 5 0 1 0 1
0 -56.22 -152.3 56.108 0 0 1 5 0 1 0 1
0 -56.22 83.7 56.108 0 0 1 5 0 1 0 1
phys
0 -56.22 -152.3 -63.892 0 0 1 5 0 1 0 1
0 -56.22 83.7 56.108 0 0 1 5 0 1 0 1
0 -56.22 83.7 -63.892 0 0 1 5 0 1 0 1
phys
0 -48.22 -152.3 56.108 0 0 1 5 0 1 0 1
0 -48.22 -152.3 -63.892 0 0 1 5 0 1 0 1
0 -48.22 83.7 -63.892 0 0 1 5 0 1 0 1
phys
0 -48.22 -152.3 56.108 0 0 1 5 0 1 0 1
0 -48.22 83.7 -63.892 0 0 1 5 0 1 0 1
0 -48.22 83.7 56.108 0 0 1 5 0 1 0 1
phys
0 -48.22 -152.3 -63.892 0 0 1 5 0 1 0 1
0 -56.22 -152.3 -63.892 0 0 1 5 0 1 0 1
0 -56.22 83.7 -63.892 0 0 1 5 0 1 0 1
phys
0 -48.22 -152.3 -63.892 0 0 1 5 0 1 0 1
0 -56.22 83.7 -63.892 0 0 1 5 0 1 0 1
0 -48.22 83.7 -63.892 0 0 1 5 0 1 0 1
phys
0 -56.22 -152.3 56.108 0 0 1 5 0 1 0 1
0 -48.22 -152.3 56.108 0 0 1 5 0 1 0 1
0 -48.22 83.7 56.108 0 0 1 5 0 1 0 1
phys
0 -56.22 -152.3 56.108 0 0 1 5 0 1 0 1
0 -48.22 83.7 56.108 0 0 1 5 0 1 0 1
0 -56.22 83.7 56.108 0 0 1 5 0 1 0 1
phys
0 -48.22 83.7 56.108 0 0 1 5 0 1 0 1
0 -48.22 83.7 -63.892 0 0 1 5 0 1 0 1
0 -56.22 83.7 -63.892 0 0 1 5 0 1 0 1
phys
0 -48.22 83.7 56.108 0 0 1 5 0 1 0 1
0 -56.22 83.7 -63.892 0 0 1 5 0 1 0 1
0 -56.22 83.7 56.108 0 0 1 5 0 1 0 1
phys
0 -48.22 159.7 56.108 0 0 1 6 0 1 0 1
0 -56.22 151.7 56.108 0 0 1 6 0 1 0 1
0 -56.22 139.7 56.108 0 0 1 6 0 1 0 1
phys
0 -48.22 159.7 56.108 0 0 1 6 0 1 0 1
0 -56.22 139.7 56.108 0 0 1 6 0 1 0 1
0 -48.22 139.7 56.108 0 0 1 6 0 1 0 1
phys
0 -56.22 151.7 -63.892 0 0 1 6 0 1 0 1
0 -56.22 151.7 56.108 0 0 1 6 0 1 0 1
0 -48.22 159.7 56.108 0 0 1 6 0 1 0 1
phys
0 -56.22 151.7 -63.892 0 0 1 6 0 1 0 1
0 -48.22 159.7 56.108 0 0 1 6 0 1 0 1
0 -48.22 159.7 -63.892 0 0 1 6 0 1 0 1
phys
0 -48.22 139.7 -63.892 0 0 1 6 0 1 0 1
0 -48.22 139.7 56.108 0 0 1 6 0 1 0 1
0 -56.22 139.7 56.108 0 0 1 6 0 1 0 1
phys
0 -48.22 139.7 -63.892 0 0 1 6 0 1 0 1
0 -56.22 139.7 56.108 0 0 1 6 0 1 0 1
0 -56.22 139.7 -63.892 0 0 1 6 0 1 0 1
phys
0 -56.22 139.7 -63.892 0 0 1 6 0 1 0 1
0 -56.22 139.7 56.108 0 0 1 6 0 1 0 1
0 -56.22 151.7 56.108 0 0 1 6 0 1 0 1
phys
0 -56.22 139.7 -63.892 0 0 1 6 0 1 0 1
0 -56.22 151.7 56.108 0 0 1 6 0 1 0 1
0 -56.22 151.7 -63.892 0 0 1 6 0 1 0 1
phys
0 -48.22 159.7 -63.892 0 0 1 6 0 1 0 1
0 -48.22 159.7 56.108 0 0 1 6 0 1 0 1
0 -48.22 139.7 56.108 0 0 1 6 0 1 0 1
phys
0 -48.22 159.7 -63.892 0 0 1 6 0 1 0 1
0 -48.22 139.7 56.108 0 0 1 6 0 1 0 1
0 -48.22 139.7 -63.892 0 0 1 6 0 1 0 1
phys
0 -48.22 139.7 -63.892 0 0 1 6 0 1 0 1
0 -56.22 139.7 -63.892 0 0 1 6 0 1 0 1
0 -56.22 151.7 -63.892 0 0 1 6 0 1 0 1
phys
0 -48.22 139.7 -63.892 0 0 1 6 0 1 0 1
0 -56.22 151.7 -63.892 0 0 1 6 0 1 0 1
0 -48.22 159.7 -63.892 0 0 1 6 0 1 0 1
phys
0 47.78 -64.3 -63.892 0 0 1 7 0 1 0 1
0 47.78 -64.3 64.108 0 0 1 7 0 1 0 1
0 -48.22 -64.3 64.108 0 0 1 7 0 1 0 1
phys
0 47.78 -64.3 -63.892 0 0 1 7 0 1 0 1
0 -48.22 -64.3 64.108 0 0 1 7 0 1 0 1
0 -48.22 -64.3 -63.892 0 0 1 7 0 1 0 1
phys
0 -48.22 -64.3 -63.892 0 0 1 7 0 1 0 1
0 -48.22 -64.3 64.108 0 0 1 7 0 1 0 1
0 -48.22 63.7 -63.892 0 0 1 7 0 1 0 1
phys
0 47.78 -64.3 64.108 0 0 1 7 0 1 0 1
0 47.78 -64.3 -63.892 0 0 1 7 0 1 0 1
0 47.78 63.7 -63.892 0 0 1 7 0 1 0 1
phys
0 47.78 -64.3 -63.892 0 0 1 7 0 1 0 1
0 -48.22 -64.3 -63.892 0 0 1 7 0 1 0 1
0 -48.22 63.7 -63.892 0 0 1 7 0 1 0 1
phys
0 47.78 -64.3 -63.892 0 0 1 7 0 1 0 1
0 -48.22 63.7 -63.892 0 0 1 7 0 1 0 1
0 47.78 63.7 -63.892 0 0 1 7 0 1 0 1
phys
0 -48.22 -64.3 64.108 0 0 1 7 0 1 0 1
0 47.78 -64.3 64.108 0 0 1 7 0 1 0 1
0 47.78 63.7 -63.892 0 0 1 7 0 1 0 1
phys
0 -48.22 -64.3 64.108 0 0 1 7 0 1 0 1
0 47.78 63.7 -63.892 0 0 1 7 0 1 0 1
0 -48.22 63.7 -63.892 0 0 1 7 0 1 0 1
phys
0 55.78 139.7 -63.892 0 0 1 8 0 1 0 1
0 55.78 139.7 56.108 0 0 1 8 0 1 0 1
0 47.78 139.7 56.108 0 0 1 8 0 1 0 1
phys
0 55.78 139.7 -63.892 0 0 1 8 0 1 0 1
0 47.78 139.7 56.108 0 0 1 8 0 1 0 1
0 47.78 139.7 -63.892 0 0 1 8 0 1 0 1
phys
0 47.78 139.7 -63.892 0 0 1 8 0 1 0 1
0 47.78 139.7 56.108 0 0 1 8 0 1 0 1
0 47.78 159.7 56.108 0 0 1 8 0 1 0 1
phys
0 47.78 139.7 -63.892 0 0 1 8 0 1 0 1
0 47.78 159.7 56.108 0 0 1 8 0 1 0 1
0 47.78 159.7 -63.892 0 0 1 8 0 1 0 1
phys
0 55.78 139.7 56.108 0 0 1 8 0 1 0 1
0 55.78 139.7 -63.892 0 0 1 8 0 1 0 1
0 55.78 151.7 -63.892 0 0 1 8 0 1 0 1
phys
0 55.78 139.7 56.108 0 0 1 8 0 1 0 1
0 55.78 151.7 -63.892 0 0 1 8 0 1 0 1
0 55.78 151.7 56.108 0 0 1 8 0 1 0 1
phys
0 55.78 139.7 -63.892 0 0 1 8 0 1 0 1
0 47.78 139.7 -63.892 0 0 1 8 0 1 0 1
0 47.78 159.7 -63.892 0 0 1 8 0 1 0 1
phys
0 55.78 139.7 -63.892 0 0 1 8 0 1 0 1
0 47.78 159.7 -63.892 0 0 1 8 0 1 0 1
0 55.78 151.7 -63.892 0 0 1 8 0 1 0 1
phys
0 47.78 139.7 56.108 0 0 1 8 0 1 0 1
0 55.78 139.7 56.108 0 0 1 8 0 1 0 1
0 55.78 151.7 56.108 0 0 1 8 0 1 0 1
phys
0 47.78 139.7 56.108 0 0 1 8 0 1 0 1
0 55.78 151.7 56.108 0 0 1 8 0 1 0 1
0 47.78 159.7 56.108 0 0 1 8 0 1 0 1
phys
0 55.78 151.7 56.108 0 0 1 8 0 1 0 1
0 55.78 151.7 -63.892 0 0 1 8 0 1 0 1
0 47.78 159.7 -63.892 0 0 1 8 0 1 0 1
phys
0 55.78 151.7 56.108 0 0 1 8 0 1 0 1
0 47.78 159.7 -63.892 0 0 1 8 0 1 0 1
0 47.78 159.7 56.108 0 0 1 8 0 1 0 1
phys
0 47.78 -152.3 56.108 0 0 1 9 0 1 0 1
0 55.78 -152.3 56.108 0 0 1 9 0 1 0 1
0 55.78 83.7 56.108 0 0 1 9 0 1 0 1
phys
0 47.78 -152.3 56.108 0 0 1 9 0 1 0 1
0 55.78 83.7 56.108 0 0 1 9 0 1 0 1
0 47.78 83.7 56.108 0 0 1 9 0 1 0 1
phys
0 47.78 83.7 -63.892 0 0 1 9 0 1 0 1
0 47.78 83.7 56.108 0 0 1 9 0 1 0 1
0 55.78 83.7 56.108 0 0 1 9 0 1 0 1
phys
0 47.78 83.7 -63.892 0 0 1 9 0 1 0 1
0 55.78 83.7 56.108 0 0 1 9 0 1 0 1
0 55.78 83.7 -63.892 0 0 1 9 0 1 0 1
phys
0 55.78 -152.3 -63.892 0 0 1 9 0 1 0 1
0 55.78 -152.3 56.108 0 0 1 9 0 1 0 1
0 47.78 -152.3 56.108 0 0 1 9 0 1 0 1
phys
0 55.78 -152.3 -63.892 0 0 1 9 0 1 0 1
0 47.78 -152.3 56.108 0 0 1 9 0 1 0 1
0 47.78 -152.3 -63.892 0 0 1 9 0 1 0 1
phys
0 47.78 -152.3 -63.892 0 0 1 9 0 1 0 1
0 47.78 -152.3 56.108 0 0 1 9 0 1 0 1
0 47.78 83.7 56.108 0 0 1 9 0 1 0 1
phys
0 47.78 -152.3 -63.892 0 0 1 9 0 1 0 1
0 47.78 83.7 56.108 0 0 1 9 0 1 0 1
0 47.78 83.7 -63.892 0 0 1 9 0 1 0 1
phys
0 55.78 83.7 -63.892 0 0 1 9 0 1 0 1
0 55.78 83.7 56.108 0 0 1 9 0 1 0 1
0 55.78 -152.3 56.108 0 0 1 9 0 1 0 1
phys
0 55.78 83.7 -63.892 0 0 1 9 0 1 0 1
0 55.78 -152.3 56.108 0 0 1 9 0 1 0 1
0 55.78 -152.3 -63.892 0 0 1 9 0 1 0 1
phys
0 55.78 -152.3 -63.892 0 0 1 9 0 1 0 1
0 47.78 -152.3 -63.892 0 0 1 9 0 1 0 1
0 47.78 83.7 -63.892 0 0 1 9 0 1 0 1
phys
0 55.78 -152.3 -63.892 0 0 1 9 0 1 0 1
0 47.78 83.7 -63.892 0 0 1 9 0 1 0 1
0 55.78 83.7 -63.892 0 0 1 9 0 1 0 1
end
