version 1
nodes
0 "root" -1
end
skeleton
time 0
0 0 0 0 0 0 0
end
triangles
phys
0 -32 -124 258.671 0 0 1 1 0 1 0 1
0 -32 -124 0 0 0 1 1 0 1 0 1
0 -48 -124 0 0 0 1 1 0 1 0 1
phys
0 -32 -124 258.671 0 0 1 1 0 1 0 1
0 -48 -124 0 0 0 1 1 0 1 0 1
0 -48 -124 236.001 0 0 1 1 0 1 0 1
phys
0 -32 -132 0 0 0 1 1 0 1 0 1
0 -32 -132 258.671 0 0 1 1 0 1 0 1
0 -48 -132 236.001 0 0 1 1 0 1 0 1
phys
0 -32 -132 0 0 0 1 1 0 1 0 1
0 -48 -132 236.001 0 0 1 1 0 1 0 1
0 -48 -132 0 0 0 1 1 0 1 0 1
phys
0 -48 -132 0 0 0 1 1 0 1 0 1
0 -48 -132 236.001 0 0 1 1 0 1 0 1
0 -48 -124 236.001 0 0 1 1 0 1 0 1
phys
0 -48 -132 0 0 0 1 1 0 1 0 1
0 -48 -124 236.001 0 0 1 1 0 1 0 1
0 -48 -124 0 0 0 1 1 0 1 0 1
phys
0 -32 -132 258.671 0 0 1 1 0 1 0 1
0 -32 -132 0 0 0 1 1 0 1 0 1
0 -32 -124 0 0 0 1 1 0 1 0 1
phys
0 -32 -132 258.671 0 0 1 1 0 1 0 1
0 -32 -124 0 0 0 1 1 0 1 0 1
0 -32 -124 258.671 0 0 1 1 0 1 0 1
phys
0 -32 -132 0 0 0 1 1 0 1 0 1
0 -48 -132 0 0 0 1 1 0 1 0 1
0 -48 -124 0 0 0 1 1 0 1 0 1
phys
0 -32 -132 0 0 0 1 1 0 1 0 1
0 -48 -124 0 0 0 1 1 0 1 0 1
0 -32 -124 0 0 0 1 1 0 1 0 1
phys
0 -48 -132 236.001 0 0 1 1 0 1 0 1
0 -32 -132 258.671 0 0 1 1 0 1 0 1
0 -32 -124 258.671 0 0 1 1 0 1 0 1
phys
0 -48 -132 236.001 0 0 1 1 0 1 0 1
0 -32 -124 258.671 0 0 1 1 0 1 0 1
0 -48 -124 236.001 0 0 1 1 0 1 0 1
phys
0 136.84 132 104 0 0 1 2 0 1 0 1
0 -0.001 132 304 0 0 1 2 0 1 0 1
0 -0.001 124 304 0 0 1 2 0 1 0 1
phys
0 136.84 132 104 0 0 1 2 0 1 0 1
0 -0.001 124 304 0 0 1 2 0 1 0 1
0 136.84 124 104 0 0 1 2 0 1 0 1
phys
0 -136.8408 124 104 0 0 1 2 0 1 0 1
0 -0.001 124 304 0 0 1 2 0 1 0 1
0 -0.001 132 304 0 0 1 2 0 1 0 1
phys
0 -136.8408 124 104 0 0 1 2 0 1 0 1
0 -0.001 132 304 0 0 1 2 0 1 0 1
0 -136.8408 132 104 0 0 1 2 0 1 0 1
phys
0 -0.001 132 304 0 0 1 2 0 1 0 1
0 136.84 132 104 0 0 1 2 0 1 0 1
0 -136.8408 132 104 0 0 1 2 0 1 0 1
phys
0 136.84 124 104 0 0 1 2 0 1 0 1
0 -0.001 124 304 0 0 1 2 0 1 0 1
0 -136.8408 124 104 0 0 1 2 0 1 0 1
phys
0 -136.8408 124 104 0 0 1 2 0 1 0 1
0 -136.8408 132 104 0 0 1 2 0 1 0 1
0 136.84 132 104 0 0 1 2 0 1 0 1
phys
0 -136.8408 124 104 0 0 1 2 0 1 0 1
0 136.84 132 104 0 0 1 2 0 1 0 1
0 136.84 124 104 0 0 1 2 0 1 0 1
phys
0 -56 -20 224.001 0 0 1 3 0 1 0 1
0 -56 -20 0 0 0 1 3 0 1 0 1
0 -208.001 -20 0 0 0 1 3 0 1 0 1
phys
0 -56 -28 0 0 0 1 3 0 1 0 1
0 -56 -28 224.001 0 0 1 3 0 1 0 1
0 -208.001 -28 0 0 0 1 3 0 1 0 1
phys
0 -56 -28 224.001 0 0 1 3 0 1 0 1
0 -56 -28 0 0 0 1 3 0 1 0 1
0 -56 -20 0 0 0 1 3 0 1 0 1
phys
0 -56 -28 224.001 0 0 1 3 0 1 0 1
0 -56 -20 0 0 0 1 3 0 1 0 1
0 -56 -20 224.001 0 0 1 3 0 1 0 1
phys
0 -56 -28 0 0 0 1 3 0 1 0 1
0 -208.001 -28 0 0 0 1 3 0 1 0 1
0 -208.001 -20 0 0 0 1 3 0 1 0 1
phys
0 -56 -28 0 0 0 1 3 0 1 0 1
0 -208.001 -20 0 0 0 1 3 0 1 0 1
0 -56 -20 0 0 0 1 3 0 1 0 1
phys
0 -208.001 -28 0 0 0 1 3 0 1 0 1
0 -56 -28 224.001 0 0 1 3 0 1 0 1
0 -56 -20 224.001 0 0 1 3 0 1 0 1
phys
0 -208.001 -28 0 0 0 1 3 0 1 0 1
0 -56 -20 224.001 0 0 1 3 0 1 0 1
0 -208.001 -20 0 0 0 1 3 0 1 0 1
phys
0 207.997 -124 0 0 0 1 4 0 1 0 1
0 20 -124 0 0 0 1 4 0 1 0 1
0 20 -124 274.768 0 0 1 4 0 1 0 1
phys
0 20 -132 274.768 0 0 1 4 0 1 0 1
0 20 -132 0 0 0 1 4 0 1 0 1
0 207.997 -132 0 0 0 1 4 0 1 0 1
phys
0 20 -132 0 0 0 1 4 0 1 0 1
0 20 -132 274.768 0 0 1 4 0 1 0 1
0 20 -124 274.768 0 0 1 4 0 1 0 1
phys
0 20 -132 0 0 0 1 4 0 1 0 1
0 20 -124 274.768 0 0 1 4 0 1 0 1
0 20 -124 0 0 0 1 4 0 1 0 1
phys
0 207.997 -132 0 0 0 1 4 0 1 0 1
0 20 -132 0 0 0 1 4 0 1 0 1
0 20 -124 0 0 0 1 4 0 1 0 1
phys
0 207.997 -132 0 0 0 1 4 0 1 0 1
0 20 -124 0 0 0 1 4 0 1 0 1
0 207.997 -124 0 0 0 1 4 0 1 0 1
phys
0 20 -132 274.768 0 0 1 4 0 1 0 1
0 207.997 -132 0 0 0 1 4 0 1 0 1
0 207.997 -124 0 0 0 1 4 0 1 0 1
phys
0 20 -132 274.768 0 0 1 4 0 1 0 1
0 207.997 -124 0 0 0 1 4 0 1 0 1
0 20 -124 274.768 0 0 1 4 0 1 0 1
phys
0 -48 40 236.001 0 0 1 5 0 1 0 1
0 -48 40 106 0 0 1 5 0 1 0 1
0 -56 40 106 0 0 1 5 0 1 0 1
phys
0 -48 40 236.001 0 0 1 5 0 1 0 1
0 -56 40 106 0 0 1 5 0 1 0 1
0 -56 40 224.001 0 0 1 5 0 1 0 1
phys
0 -48 -12 106 0 0 1 5 0 1 0 1
0 -48 -12 236.001 0 0 1 5 0 1 0 1
0 -56 -12 224.001 0 0 1 5 0 1 0 1
phys
0 -48 -12 106 0 0 1 5 0 1 0 1
0 -56 -12 224.001 0 0 1 5 0 1 0 1
0 -56 -12 106 0 0 1 5 0 1 0 1
phys
0 -56 -12 106 0 0 1 5 0 1 0 1
0 -56 -12 224.001 0 0 1 5 0 1 0 1
0 -56 40 224.001 0 0 1 5 0 1 0 1
phys
0 -56 -12 106 0 0 1 5 0 1 0 1
0 -56 40 224.001 0 0 1 5 0 1 0 1
0 -56 40 106 0 0 1 5 0 1 0 1
phys
0 -48 -12 236.001 0 0 1 5 0 1 0 1
0 -48 -12 106 0 0 1 5 0 1 0 1
0 -48 40 106 0 0 1 5 0 1 0 1
phys
0 -48 -12 236.001 0 0 1 5 0 1 0 1
0 -48 40 106 0 0 1 5 0 1 0 1
0 -48 40 236.001 0 0 1 5 0 1 0 1
phys
0 -48 -12 106 0 0 1 5 0 1 0 1
0 -56 -12 106 0 0 1 5 0 1 0 1
0 -56 40 106 0 0 1 5 0 1 0 1
phys
0 -48 -12 106 0 0 1 5 0 1 0 1
0 -56 40 106 0 0 1 5 0 1 0 1
0 -48 40 106 0 0 1 5 0 1 0 1
phys
0 -56 -12 224.001 0 0 1 5 0 1 0 1
0 -48 -12 236.001 0 0 1 5 0 1 0 1
0 -48 40 236.001 0 0 1 5 0 1 0 1
phys
0 -56 -12 224.001 0 0 1 5 0 1 0 1
0 -48 40 236.001 0 0 1 5 0 1 0 1
0 -56 40 224.001 0 0 1 5 0 1 0 1
phys
0 20 -132 106 0 0 1 6 0 1 0 1
0 20 -124 106 0 0 1 6 0 1 0 1
0 20 -124 274.756 0 0 1 6 0 1 0 1
phys
0 20 -132 106 0 0 1 6 0 1 0 1
0 20 -124 274.756 0 0 1 6 0 1 0 1
0 20 -132 274.756 0 0 1 6 0 1 0 1
phys
0 -32 -124 106 0 0 1 6 0 1 0 1
0 20 -124 106 0 0 1 6 0 1 0 1
0 20 -132 106 0 0 1 6 0 1 0 1
phys
0 -32 -124 106 0 0 1 6 0 1 0 1
0 20 -132 106 0 0 1 6 0 1 0 1
0 -32 -132 106 0 0 1 6 0 1 0 1
phys
0 20 -132 274.756 0 0 1 6 0 1 0 1
0 20 -124 274.756 0 0 1 6 0 1 0 1
0 -0.005 -124 303.994 0 0 1 6 0 1 0 1
phys
0 20 -132 274.756 0 0 1 6 0 1 0 1
0 -0.005 -124 303.994 0 0 1 6 0 1 0 1
0 -0.005 -132 303.994 0 0 1 6 0 1 0 1
phys
0 -0.005 -132 303.994 0 0 1 6 0 1 0 1
0 -0.005 -124 303.994 0 0 1 6 0 1 0 1
0 -32 -124 258.671 0 0 1 6 0 1 0 1
phys
0 -0.005 -132 303.994 0 0 1 6 0 1 0 1
0 -32 -124 258.671 0 0 1 6 0 1 0 1
0 -32 -132 258.671 0 0 1 6 0 1 0 1
phys
0 -0.005 -124 303.994 0 0 1 6 0 1 0 1
0 20 -124 274.756 0 0 1 6 0 1 0 1
0 20 -124 106 0 0 1 6 0 1 0 1
phys
0 -0.005 -124 303.994 0 0 1 6 0 1 0 1
0 20 -124 106 0 0 1 6 0 1 0 1
0 -32 -124 106 0 0 1 6 0 1 0 1
phys
0 -0.005 -124 303.994 0 0 1 6 0 1 0 1
0 -32 -124 106 0 0 1 6 0 1 0 1
0 -32 -124 258.671 0 0 1 6 0 1 0 1
phys
0 20 -132 106 0 0 1 6 0 1 0 1
0 20 -132 274.756 0 0 1 6 0 1 0 1
0 -0.005 -132 303.994 0 0 1 6 0 1 0 1
phys
0 20 -132 106 0 0 1 6 0 1 0 1
0 -0.005 -132 303.994 0 0 1 6 0 1 0 1
0 -32 -132 258.671 0 0 1 6 0 1 0 1
phys
0 20 -132 106 0 0 1 6 0 1 0 1
0 -32 -132 258.671 0 0 1 6 0 1 0 1
0 -32 -132 106 0 0 1 6 0 1 0 1
phys
0 -32 -132 258.671 0 0 1 6 0 1 0 1
0 -32 -124 258.671 0 0 1 6 0 1 0 1
0 -32 -124 106 0 0 1 6 0 1 0 1
phys
0 -32 -132 258.671 0 0 1 6 0 1 0 1
0 -32 -124 106 0 0 1 6 0 1 0 1
0 -32 -132 106 0 0 1 6 0 1 0 1
phys
0 -57 56 101 0 0 1 7 0 1 0 1
0 -57 56 100 0 0 1 7 0 1 0 1
0 -121 56 100 0 0 1 7 0 1 0 1
phys
0 -57 56 101 0 0 1 7 0 1 0 1
0 -121 56 100 0 0 1 7 0 1 0 1
0 -121 56 101 0 0 1 7 0 1 0 1
phys
0 -57 55 100 0 0 1 7 0 1 0 1
0 -57 55 101 0 0 1 7 0 1 0 1
0 -121 55 101 0 0 1 7 0 1 0 1
phys
0 -57 55 100 0 0 1 7 0 1 0 1
0 -121 55 101 0 0 1 7 0 1 0 1
0 -121 55 100 0 0 1 7 0 1 0 1
phys
0 -121 55 100 0 0 1 7 0 1 0 1
0 -121 55 101 0 0 1 7 0 1 0 1
0 -121 56 101 0 0 1 7 0 1 0 1
phys
0 -121 55 100 0 0 1 7 0 1 0 1
0 -121 56 101 0 0 1 7 0 1 0 1
0 -121 56 100 0 0 1 7 0 1 0 1
phys
0 -57 55 101 0 0 1 7 0 1 0 1
0 -57 55 100 0 0 1 7 0 1 0 1
0 -57 56 100 0 0 1 7 0 1 0 1
phys
0 -57 55 101 0 0 1 7 0 1 0 1
0 -57 56 100 0 0 1 7 0 1 0 1
0 -57 56 101 0 0 1 7 0 1 0 1
phys
0 -57 55 100 0 0 1 7 0 1 0 1
0 -121 55 100 0 0 1 7 0 1 0 1
0 -121 56 100 0 0 1 7 0 1 0 1
phys
0 -57 55 100 0 0 1 7 0 1 0 1
0 -121 56 100 0 0 1 7 0 1 0 1
0 -57 56 100 0 0 1 7 0 1 0 1
phys
0 -121 55 101 0 0 1 7 0 1 0 1
0 -57 55 101 0 0 1 7 0 1 0 1
0 -57 56 101 0 0 1 7 0 1 0 1
phys
0 -121 55 101 0 0 1 7 0 1 0 1
0 -57 56 101 0 0 1 7 0 1 0 1
0 -121 56 101 0 0 1 7 0 1 0 1
phys
0 -48 124 236.001 0 0 1 8 0 1 0 1
0 -48 124 0 0 0 1 8 0 1 0 1
0 -56 124 0 0 0 1 8 0 1 0 1
phys
0 -48 124 236.001 0 0 1 8 0 1 0 1
0 -56 124 0 0 0 1 8 0 1 0 1
0 -56 124 224.001 0 0 1 8 0 1 0 1
phys
0 -48 40 0 0 0 1 8 0 1 0 1
0 -48 40 236.001 0 0 1 8 0 1 0 1
0 -56 40 224.001 0 0 1 8 0 1 0 1
phys
0 -48 40 0 0 0 1 8 0 1 0 1
0 -56 40 224.001 0 0 1 8 0 1 0 1
0 -56 40 0 0 0 1 8 0 1 0 1
phys
0 -56 40 0 0 0 1 8 0 1 0 1
0 -56 40 224.001 0 0 1 8 0 1 0 1
0 -56 124 224.001 0 0 1 8 0 1 0 1
phys
0 -56 40 0 0 0 1 8 0 1 0 1
0 -56 124 224.001 0 0 1 8 0 1 0 1
0 -56 124 0 0 0 1 8 0 1 0 1
phys
0 -48 40 236.001 0 0 1 8 0 1 0 1
0 -48 40 0 0 0 1 8 0 1 0 1
0 -48 124 0 0 0 1 8 0 1 0 1
phys
0 -48 40 236.001 0 0 1 8 0 1 0 1
0 -48 124 0 0 0 1 8 0 1 0 1
0 -48 124 236.001 0 0 1 8 0 1 0 1
phys
0 -48 40 0 0 0 1 8 0 1 0 1
0 -56 40 0 0 0 1 8 0 1 0 1
0 -56 124 0 0 0 1 8 0 1 0 1
phys
0 -48 40 0 0 0 1 8 0 1 0 1
0 -56 124 0 0 0 1 8 0 1 0 1
0 -48 124 0 0 0 1 8 0 1 0 1
phys
0 -56 40 224.001 0 0 1 8 0 1 0 1
0 -48 40 236.001 0 0 1 8 0 1 0 1
0 -48 124 236.001 0 0 1 8 0 1 0 1
phys
0 -56 40 224.001 0 0 1 8 0 1 0 1
0 -48 124 236.001 0 0 1 8 0 1 0 1
0 -56 124 224.001 0 0 1 8 0 1 0 1
end
