version 1
nodes
0 "root" -1
end
skeleton
time 0
0 0 0 0 0 0 0
end
triangles
phys
0 8 61 48 0 0 1 1 0 1 0 1
0 8 61 0 0 0 1 1 0 1 0 1
0 -8 61 0 0 0 1 1 0 1 0 1
phys
0 8 61 48 0 0 1 1 0 1 0 1
0 -8 61 0 0 0 1 1 0 1 0 1
0 -8 61 48 0 0 1 1 0 1 0 1
phys
0 8 -61 0 0 0 1 1 0 1 0 1
0 8 -61 48 0 0 1 1 0 1 0 1
0 -8 -61 48 0 0 1 1 0 1 0 1
phys
0 8 -61 0 0 0 1 1 0 1 0 1
0 -8 -61 48 0 0 1 1 0 1 0 1
0 -8 -61 0 0 0 1 1 0 1 0 1
phys
0 -8 -61 0 0 0 1 1 0 1 0 1
0 -8 -61 48 0 0 1 1 0 1 0 1
0 -8 61 48 0 0 1 1 0 1 0 1
phys
0 -8 -61 0 0 0 1 1 0 1 0 1
0 -8 61 48 0 0 1 1 0 1 0 1
0 -8 61 0 0 0 1 1 0 1 0 1
phys
0 8 -61 48 0 0 1 1 0 1 0 1
0 8 -61 0 0 0 1 1 0 1 0 1
0 8 61 0 0 0 1 1 0 1 0 1
phys
0 8 -61 48 0 0 1 1 0 1 0 1
0 8 61 0 0 0 1 1 0 1 0 1
0 8 61 48 0 0 1 1 0 1 0 1
phys
0 8 -61 0 0 0 1 1 0 1 0 1
0 -8 -61 0 0 0 1 1 0 1 0 1
0 -8 61 0 0 0 1 1 0 1 0 1
phys
0 8 -61 0 0 0 1 1 0 1 0 1
0 -8 61 0 0 0 1 1 0 1 0 1
0 8 61 0 0 0 1 1 0 1 0 1
phys
0 -8 -61 48 0 0 1 1 0 1 0 1
0 8 -61 48 0 0 1 1 0 1 0 1
0 8 61 48 0 0 1 1 0 1 0 1
phys
0 -8 -61 48 0 0 1 1 0 1 0 1
0 8 61 48 0 0 1 1 0 1 0 1
0 -8 61 48 0 0 1 1 0 1 0 1
phys
0 24 -61 16 0 0 1 2 0 1 0 1
0 24 61 16 0 0 1 2 0 1 0 1
0 24 61 0 0 0 1 2 0 1 0 1
phys
0 24 -61 16 0 0 1 2 0 1 0 1
0 24 61 0 0 0 1 2 0 1 0 1
0 24 -61 0 0 0 1 2 0 1 0 1
phys
0 40 -61 0 0 0 1 2 0 1 0 1
0 40 61 0 0 0 1 2 0 1 0 1
0 40 61 16 0 0 1 2 0 1 0 1
phys
0 40 -61 0 0 0 1 2 0 1 0 1
0 40 61 16 0 0 1 2 0 1 0 1
0 40 -61 16 0 0 1 2 0 1 0 1
phys
0 24 -61 0 0 0 1 2 0 1 0 1
0 24 61 0 0 0 1 2 0 1 0 1
0 40 61 0 0 0 1 2 0 1 0 1
phys
0 24 -61 0 0 0 1 2 0 1 0 1
0 40 61 0 0 0 1 2 0 1 0 1
0 40 -61 0 0 0 1 2 0 1 0 1
phys
0 40 -61 16 0 0 1 2 0 1 0 1
0 40 61 16 0 0 1 2 0 1 0 1
0 24 61 16 0 0 1 2 0 1 0 1
phys
0 40 -61 16 0 0 1 2 0 1 0 1
0 24 61 16 0 0 1 2 0 1 0 1
0 24 -61 16 0 0 1 2 0 1 0 1
phys
0 40 61 16 0 0 1 2 0 1 0 1
0 40 61 0 0 0 1 2 0 1 0 1
0 24 61 0 0 0 1 2 0 1 0 1
phys
0 40 61 16 0 0 1 2 0 1 0 1
0 24 61 0 0 0 1 2 0 1 0 1
0 24 61 16 0 0 1 2 0 1 0 1
phys
0 40 -61 0 0 0 1 2 0 1 0 1
0 40 -61 16 0 0 1 2 0 1 0 1
0 24 -61 16 0 0 1 2 0 1 0 1
phys
0 40 -61 0 0 0 1 2 0 1 0 1
0 24 -61 16 0 0 1 2 0 1 0 1
0 24 -61 0 0 0 1 2 0 1 0 1
phys
0 -24 61 80 0 0 1 3 0 1 0 1
0 -24 61 0 0 0 1 3 0 1 0 1
0 -40 61 0 0 0 1 3 0 1 0 1
phys
0 -24 61 80 0 0 1 3 0 1 0 1
0 -40 61 0 0 0 1 3 0 1 0 1
0 -40 61 80 0 0 1 3 0 1 0 1
phys
0 -24 -61 0 0 0 1 3 0 1 0 1
0 -24 -61 80 0 0 1 3 0 1 0 1
0 -40 -61 80 0 0 1 3 0 1 0 1
phys
0 -24 -61 0 0 0 1 3 0 1 0 1
0 -40 -61 80 0 0 1 3 0 1 0 1
0 -40 -61 0 0 0 1 3 0 1 0 1
phys
0 -40 -61 0 0 0 1 3 0 1 0 1
0 -40 -61 80 0 0 1 3 0 1 0 1
0 -40 61 80 0 0 1 3 0 1 0 1
phys
0 -40 -61 0 0 0 1 3 0 1 0 1
0 -40 61 80 0 0 1 3 0 1 0 1
0 -40 61 0 0 0 1 3 0 1 0 1
phys
0 -24 -61 80 0 0 1 3 0 1 0 1
0 -24 -61 0 0 0 1 3 0 1 0 1
0 -24 61 0 0 0 1 3 0 1 0 1
phys
0 -24 -61 80 0 0 1 3 0 1 0 1
0 -24 61 0 0 0 1 3 0 1 0 1
0 -24 61 80 0 0 1 3 0 1 0 1
phys
0 -24 -61 0 0 0 1 3 0 1 0 1
0 -40 -61 0 0 0 1 3 0 1 0 1
0 -40 61 0 0 0 1 3 0 1 0 1
phys
0 -24 -61 0 0 0 1 3 0 1 0 1
0 -40 61 0 0 0 1 3 0 1 0 1
0 -24 61 0 0 0 1 3 0 1 0 1
phys
0 -40 -61 80 0 0 1 3 0 1 0 1
0 -24 -61 80 0 0 1 3 0 1 0 1
0 -24 61 80 0 0 1 3 0 1 0 1
phys
0 -40 -61 80 0 0 1 3 0 1 0 1
0 -24 61 80 0 0 1 3 0 1 0 1
0 -40 61 80 0 0 1 3 0 1 0 1
phys
0 40 71 80 0 0 1 4 0 1 0 1
0 40 71 80 0 0 1 4 0 1 0 1
0 -40 71 80 0 0 1 4 0 1 0 1
phys
0 40 71 80 0 0 1 4 0 1 0 1
0 -40 71 80 0 0 1 4 0 1 0 1
0 -40 71 117 0 0 1 4 0 1 0 1
phys
0 40 65 80 0 0 1 4 0 1 0 1
0 40 65 80 0 0 1 4 0 1 0 1
0 -40 65 117 0 0 1 4 0 1 0 1
phys
0 40 65 80 0 0 1 4 0 1 0 1
0 -40 65 117 0 0 1 4 0 1 0 1
0 -40 65 80 0 0 1 4 0 1 0 1
phys
0 -40 65 80 0 0 1 4 0 1 0 1
0 -40 65 117 0 0 1 4 0 1 0 1
0 -40 67 119 0 0 1 4 0 1 0 1
phys
0 -40 65 80 0 0 1 4 0 1 0 1
0 -40 67 119 0 0 1 4 0 1 0 1
0 -40 69 119 0 0 1 4 0 1 0 1
phys
0 -40 65 80 0 0 1 4 0 1 0 1
0 -40 69 119 0 0 1 4 0 1 0 1
0 -40 71 117 0 0 1 4 0 1 0 1
phys
0 -40 65 80 0 0 1 4 0 1 0 1
0 -40 71 117 0 0 1 4 0 1 0 1
0 -40 71 80 0 0 1 4 0 1 0 1
phys
0 40 65 80 0 0 1 4 0 1 0 1
0 40 65 80 0 0 1 4 0 1 0 1
0 40 71 80 0 0 1 4 0 1 0 1
phys
0 40 65 80 0 0 1 4 0 1 0 1
0 40 71 80 0 0 1 4 0 1 0 1
0 40 71 80 0 0 1 4 0 1 0 1
phys
0 40 65 80 0 0 1 4 0 1 0 1
0 40 71 80 0 0 1 4 0 1 0 1
0 40 69 82 0 0 1 4 0 1 0 1
phys
0 40 65 80 0 0 1 4 0 1 0 1
0 40 69 82 0 0 1 4 0 1 0 1
0 40 67 82 0 0 1 4 0 1 0 1
phys
0 40 65 80 0 0 1 4 0 1 0 1
0 -40 65 80 0 0 1 4 0 1 0 1
0 -40 71 80 0 0 1 4 0 1 0 1
phys
0 40 65 80 0 0 1 4 0 1 0 1
0 -40 71 80 0 0 1 4 0 1 0 1
0 40 71 80 0 0 1 4 0 1 0 1
phys
0 40 69 82 0 0 1 4 0 1 0 1
0 40 71 80 0 0 1 4 0 1 0 1
0 -40 71 117 0 0 1 4 0 1 0 1
phys
0 40 69 82 0 0 1 4 0 1 0 1
0 -40 71 117 0 0 1 4 0 1 0 1
0 -40 69 119 0 0 1 4 0 1 0 1
phys
0 -40 65 117 0 0 1 4 0 1 0 1
0 40 65 80 0 0 1 4 0 1 0 1
0 40 67 82 0 0 1 4 0 1 0 1
phys
0 -40 65 117 0 0 1 4 0 1 0 1
0 40 67 82 0 0 1 4 0 1 0 1
0 -40 67 119 0 0 1 4 0 1 0 1
phys
0 40 67 82 0 0 1 4 0 1 0 1
0 40 69 82 0 0 1 4 0 1 0 1
0 -40 69 119 0 0 1 4 0 1 0 1
phys
0 40 67 82 0 0 1 4 0 1 0 1
0 -40 69 119 0 0 1 4 0 1 0 1
0 -40 67 119 0 0 1 4 0 1 0 1
phys
0 40 -75 5 0 0 1 5 0 1 0 1
0 -40 -75 5 0 0 1 5 0 1 0 1
0 -40 -61 5 0 0 1 5 0 1 0 1
phys
0 40 -75 5 0 0 1 5 0 1 0 1
0 -40 -61 5 0 0 1 5 0 1 0 1
0 40 -61 5 0 0 1 5 0 1 0 1
phys
0 -40 -75 80 0 0 1 5 0 1 0 1
0 40 -75 80 0 0 1 5 0 1 0 1
0 40 -61 80 0 0 1 5 0 1 0 1
phys
0 -40 -75 80 0 0 1 5 0 1 0 1
0 40 -61 80 0 0 1 5 0 1 0 1
0 -40 -61 80 0 0 1 5 0 1 0 1
phys
0 40 -61 5 0 0 1 5 0 1 0 1
0 -40 -61 5 0 0 1 5 0 1 0 1
0 -40 -61 80 0 0 1 5 0 1 0 1
phys
0 40 -61 5 0 0 1 5 0 1 0 1
0 -40 -61 80 0 0 1 5 0 1 0 1
0 40 -61 80 0 0 1 5 0 1 0 1
phys
0 40 -75 80 0 0 1 5 0 1 0 1
0 -40 -75 80 0 0 1 5 0 1 0 1
0 -40 -75 5 0 0 1 5 0 1 0 1
phys
0 40 -75 80 0 0 1 5 0 1 0 1
0 -40 -75 5 0 0 1 5 0 1 0 1
0 40 -75 5 0 0 1 5 0 1 0 1
phys
0 -40 -75 80 0 0 1 5 0 1 0 1
0 -40 -61 80 0 0 1 5 0 1 0 1
0 -40 -61 5 0 0 1 5 0 1 0 1
phys
0 -40 -75 80 0 0 1 5 0 1 0 1
0 -40 -61 5 0 0 1 5 0 1 0 1
0 -40 -75 5 0 0 1 5 0 1 0 1
phys
0 40 -75 5 0 0 1 5 0 1 0 1
0 40 -61 5 0 0 1 5 0 1 0 1
0 40 -61 80 0 0 1 5 0 1 0 1
phys
0 40 -75 5 0 0 1 5 0 1 0 1
0 40 -61 80 0 0 1 5 0 1 0 1
0 40 -75 80 0 0 1 5 0 1 0 1
phys
0 24 61 32 0 0 1 6 0 1 0 1
0 24 61 0 0 0 1 6 0 1 0 1
0 8 61 0 0 0 1 6 0 1 0 1
phys
0 24 61 32 0 0 1 6 0 1 0 1
0 8 61 0 0 0 1 6 0 1 0 1
0 8 61 32 0 0 1 6 0 1 0 1
phys
0 24 -61 0 0 0 1 6 0 1 0 1
0 24 -61 32 0 0 1 6 0 1 0 1
0 8 -61 32 0 0 1 6 0 1 0 1
phys
0 24 -61 0 0 0 1 6 0 1 0 1
0 8 -61 32 0 0 1 6 0 1 0 1
0 8 -61 0 0 0 1 6 0 1 0 1
phys
0 8 -61 0 0 0 1 6 0 1 0 1
0 8 -61 32 0 0 1 6 0 1 0 1
0 8 61 32 0 0 1 6 0 1 0 1
phys
0 8 -61 0 0 0 1 6 0 1 0 1
0 8 61 32 0 0 1 6 0 1 0 1
0 8 61 0 0 0 1 6 0 1 0 1
phys
0 24 -61 32 0 0 1 6 0 1 0 1
0 24 -61 0 0 0 1 6 0 1 0 1
0 24 61 0 0 0 1 6 0 1 0 1
phys
0 24 -61 32 0 0 1 6 0 1 0 1
0 24 61 0 0 0 1 6 0 1 0 1
0 24 61 32 0 0 1 6 0 1 0 1
phys
0 24 -61 0 0 0 1 6 0 1 0 1
0 8 -61 0 0 0 1 6 0 1 0 1
0 8 61 0 0 0 1 6 0 1 0 1
phys
0 24 -61 0 0 0 1 6 0 1 0 1
0 8 61 0 0 0 1 6 0 1 0 1
0 24 61 0 0 0 1 6 0 1 0 1
phys
0 8 -61 32 0 0 1 6 0 1 0 1
0 24 -61 32 0 0 1 6 0 1 0 1
0 24 61 32 0 0 1 6 0 1 0 1
phys
0 8 -61 32 0 0 1 6 0 1 0 1
0 24 61 32 0 0 1 6 0 1 0 1
0 8 61 32 0 0 1 6 0 1 0 1
phys
0 -8 61 64 0 0 1 7 0 1 0 1
0 -8 61 0 0 0 1 7 0 1 0 1
0 -24 61 0 0 0 1 7 0 1 0 1
phys
0 -8 61 64 0 0 1 7 0 1 0 1
0 -24 61 0 0 0 1 7 0 1 0 1
0 -24 61 64 0 0 1 7 0 1 0 1
phys
0 -8 -61 0 0 0 1 7 0 1 0 1
0 -8 -61 64 0 0 1 7 0 1 0 1
0 -24 -61 64 0 0 1 7 0 1 0 1
phys
0 -8 -61 0 0 0 1 7 0 1 0 1
0 -24 -61 64 0 0 1 7 0 1 0 1
0 -24 -61 0 0 0 1 7 0 1 0 1
phys
0 -24 -61 0 0 0 1 7 0 1 0 1
0 -24 -61 64 0 0 1 7 0 1 0 1
0 -24 61 64 0 0 1 7 0 1 0 1
phys
0 -24 -61 0 0 0 1 7 0 1 0 1
0 -24 61 64 0 0 1 7 0 1 0 1
0 -24 61 0 0 0 1 7 0 1 0 1
phys
0 -8 -61 64 0 0 1 7 0 1 0 1
0 -8 -61 0 0 0 1 7 0 1 0 1
0 -8 61 0 0 0 1 7 0 1 0 1
phys
0 -8 -61 64 0 0 1 7 0 1 0 1
0 -8 61 0 0 0 1 7 0 1 0 1
0 -8 61 64 0 0 1 7 0 1 0 1
phys
0 -8 -61 0 0 0 1 7 0 1 0 1
0 -24 -61 0 0 0 1 7 0 1 0 1
0 -24 61 0 0 0 1 7 0 1 0 1
phys
0 -8 -61 0 0 0 1 7 0 1 0 1
0 -24 61 0 0 0 1 7 0 1 0 1
0 -8 61 0 0 0 1 7 0 1 0 1
phys
0 -24 -61 64 0 0 1 7 0 1 0 1
0 -8 -61 64 0 0 1 7 0 1 0 1
0 -8 61 64 0 0 1 7 0 1 0 1
phys
0 -24 -61 64 0 0 1 7 0 1 0 1
0 -8 61 64 0 0 1 7 0 1 0 1
0 -24 61 64 0 0 1 7 0 1 0 1
phys
0 40 75 80 0 0 1 8 0 1 0 1
0 40 75 5 0 0 1 8 0 1 0 1
0 -40 75 5 0 0 1 8 0 1 0 1
phys
0 40 75 80 0 0 1 8 0 1 0 1
0 -40 75 5 0 0 1 8 0 1 0 1
0 -40 75 80 0 0 1 8 0 1 0 1
phys
0 40 61 5 0 0 1 8 0 1 0 1
0 40 61 80 0 0 1 8 0 1 0 1
0 -40 61 80 0 0 1 8 0 1 0 1
phys
0 40 61 5 0 0 1 8 0 1 0 1
0 -40 61 80 0 0 1 8 0 1 0 1
0 -40 61 5 0 0 1 8 0 1 0 1
phys
0 -40 61 5 0 0 1 8 0 1 0 1
0 -40 61 80 0 0 1 8 0 1 0 1
0 -40 75 80 0 0 1 8 0 1 0 1
phys
0 -40 61 5 0 0 1 8 0 1 0 1
0 -40 75 80 0 0 1 8 0 1 0 1
0 -40 75 5 0 0 1 8 0 1 0 1
phys
0 40 61 80 0 0 1 8 0 1 0 1
0 40 61 5 0 0 1 8 0 1 0 1
0 40 75 5 0 0 1 8 0 1 0 1
phys
0 40 61 80 0 0 1 8 0 1 0 1
0 40 75 5 0 0 1 8 0 1 0 1
0 40 75 80 0 0 1 8 0 1 0 1
phys
0 40 61 5 0 0 1 8 0 1 0 1
0 -40 61 5 0 0 1 8 0 1 0 1
0 -40 75 5 0 0 1 8 0 1 0 1
phys
0 40 61 5 0 0 1 8 0 1 0 1
0 -40 75 5 0 0 1 8 0 1 0 1
0 40 75 5 0 0 1 8 0 1 0 1
phys
0 -40 61 80 0 0 1 8 0 1 0 1
0 40 61 80 0 0 1 8 0 1 0 1
0 40 75 80 0 0 1 8 0 1 0 1
phys
0 -40 61 80 0 0 1 8 0 1 0 1
0 40 75 80 0 0 1 8 0 1 0 1
0 -40 75 80 0 0 1 8 0 1 0 1
phys
0 40 -71 80 0 0 1 9 0 1 0 1
0 40 -65 80 0 0 1 9 0 1 0 1
0 40 -67 82 0 0 1 9 0 1 0 1
phys
0 40 -71 80 0 0 1 9 0 1 0 1
0 40 -67 82 0 0 1 9 0 1 0 1
0 40 -69 82 0 0 1 9 0 1 0 1
phys
0 -40 -71 80 0 0 1 9 0 1 0 1
0 40 -71 80 0 0 1 9 0 1 0 1
0 40 -71 80 0 0 1 9 0 1 0 1
phys
0 -40 -71 80 0 0 1 9 0 1 0 1
0 40 -71 80 0 0 1 9 0 1 0 1
0 40 -65 80 0 0 1 9 0 1 0 1
phys
0 -40 -71 80 0 0 1 9 0 1 0 1
0 40 -65 80 0 0 1 9 0 1 0 1
0 40 -65 80 0 0 1 9 0 1 0 1
phys
0 -40 -71 80 0 0 1 9 0 1 0 1
0 40 -65 80 0 0 1 9 0 1 0 1
0 -40 -65 80 0 0 1 9 0 1 0 1
phys
0 -40 -65 117 0 0 1 9 0 1 0 1
0 40 -65 80 0 0 1 9 0 1 0 1
0 40 -65 80 0 0 1 9 0 1 0 1
phys
0 -40 -65 117 0 0 1 9 0 1 0 1
0 40 -65 80 0 0 1 9 0 1 0 1
0 40 -67 82 0 0 1 9 0 1 0 1
phys
0 -40 -65 117 0 0 1 9 0 1 0 1
0 40 -67 82 0 0 1 9 0 1 0 1
0 -40 -67 119 0 0 1 9 0 1 0 1
phys
0 -40 -71 117 0 0 1 9 0 1 0 1
0 40 -71 80 0 0 1 9 0 1 0 1
0 40 -71 80 0 0 1 9 0 1 0 1
phys
0 -40 -71 117 0 0 1 9 0 1 0 1
0 40 -71 80 0 0 1 9 0 1 0 1
0 40 -69 82 0 0 1 9 0 1 0 1
phys
0 -40 -71 117 0 0 1 9 0 1 0 1
0 40 -69 82 0 0 1 9 0 1 0 1
0 -40 -69 119 0 0 1 9 0 1 0 1
phys
0 -40 -69 119 0 0 1 9 0 1 0 1
0 40 -69 82 0 0 1 9 0 1 0 1
0 40 -67 82 0 0 1 9 0 1 0 1
phys
0 -40 -69 119 0 0 1 9 0 1 0 1
0 40 -67 82 0 0 1 9 0 1 0 1
0 -40 -67 119 0 0 1 9 0 1 0 1
phys
0 40 -65 80 0 0 1 9 0 1 0 1
0 40 -65 80 0 0 1 9 0 1 0 1
0 -40 -65 80 0 0 1 9 0 1 0 1
phys
0 40 -65 80 0 0 1 9 0 1 0 1
0 -40 -65 80 0 0 1 9 0 1 0 1
0 -40 -65 117 0 0 1 9 0 1 0 1
phys
0 40 -71 80 0 0 1 9 0 1 0 1
0 40 -71 80 0 0 1 9 0 1 0 1
0 -40 -71 117 0 0 1 9 0 1 0 1
phys
0 40 -71 80 0 0 1 9 0 1 0 1
0 -40 -71 117 0 0 1 9 0 1 0 1
0 -40 -71 80 0 0 1 9 0 1 0 1
phys
0 -40 -67 119 0 0 1 9 0 1 0 1
0 -40 -65 117 0 0 1 9 0 1 0 1
0 -40 -65 80 0 0 1 9 0 1 0 1
phys
0 -40 -67 119 0 0 1 9 0 1 0 1
0 -40 -65 80 0 0 1 9 0 1 0 1
0 -40 -71 80 0 0 1 9 0 1 0 1
phys
0 -40 -67 119 0 0 1 9 0 1 0 1
0 -40 -71 80 0 0 1 9 0 1 0 1
0 -40 -71 117 0 0 1 9 0 1 0 1
phys
0 -40 -67 119 0 0 1 9 0 1 0 1
0 -40 -71 117 0 0 1 9 0 1 0 1
0 -40 -69 119 0 0 1 9 0 1 0 1
end
