version 1
nodes
0 "root" -1
end
skeleton
time 0
0 0 0 0 0 0 0
end
triangles
pepsi2_arch_stairs01
0 -251 92 17.996 -1 0 0 35.300781 -26.000125 1 0 1
0 -251 92 27 -1 0 0 35.300781 -25.71875 1 0 1
0 -251 236 27 -1 0 0 33.050781 -25.71875 1 0 1
pepsi2_arch_stairs01
0 -251 92 17.996 -1 0 0 35.300781 -26.000125 1 0 1
0 -251 236 27 -1 0 0 33.050781 -25.71875 1 0 1
0 -251 236 17.996 -1 0 0 33.050781 -26.000125 1 0 1
pepsi2_arch_stairs01
0 -251 92 27 0 0 1 35.300781 -349.71875 1 0 1
0 -236 92 27 0 0 1 35.300781 -349.25 1 0 1
0 -236 236 27 0 0 1 33.050781 -349.25 1 0 1
pepsi2_arch_stairs01
0 -251 92 27 0 0 1 35.300781 -349.71875 1 0 1
0 -236 236 27 0 0 1 33.050781 -349.25 1 0 1
0 -251 236 27 0 0 1 33.050781 -349.71875 1 0 1
pepsi2_arch_stairs01
0 -221 236 45 -1 0 0 33.050781 -24.71875 1 0 1
0 -221 236 35.996 -1 0 0 33.050781 -25.000125 1 0 1
0 -221 92 35.996 -1 0 0 35.300781 -25.000125 1 0 1
pepsi2_arch_stairs01
0 -221 236 45 -1 0 0 33.050781 -24.71875 1 0 1
0 -221 92 35.996 -1 0 0 35.300781 -25.000125 1 0 1
0 -221 92 45 -1 0 0 35.300781 -24.71875 1 0 1
pepsi2_arch_stairs01
0 -221 92 45 0 0 1 35.300781 -348.71875 1 0 1
0 -206 92 45 0 0 1 35.300781 -348.25 1 0 1
0 -206 236 45 0 0 1 33.050781 -348.25 1 0 1
pepsi2_arch_stairs01
0 -221 92 45 0 0 1 35.300781 -348.71875 1 0 1
0 -206 236 45 0 0 1 33.050781 -348.25 1 0 1
0 -221 236 45 0 0 1 33.050781 -348.71875 1 0 1
pepsi2_arch_stairs01
0 -57 -175 126 0 0 1 172.300781 79.75 1 0 1
0 87 -175 126 0 0 1 170.050781 79.75 1 0 1
0 87 -160 126 0 0 1 170.050781 79.28125 1 0 1
pepsi2_arch_stairs01
0 -57 -175 126 0 0 1 172.300781 79.75 1 0 1
0 87 -160 126 0 0 1 170.050781 79.28125 1 0 1
0 -57 -160 126 0 0 1 172.300781 79.28125 1 0 1
pepsi2_arch_stairs01
0 87 -160 117 0 1 0 170.050781 -23 1 0 1
0 -57 -160 117 0 1 0 172.300781 -23 1 0 1
0 -57 -160 126 0 1 0 172.300781 -22.71875 1 0 1
pepsi2_arch_stairs01
0 87 -160 117 0 1 0 170.050781 -23 1 0 1
0 -57 -160 126 0 1 0 172.300781 -22.71875 1 0 1
0 87 -160 126 0 1 0 170.050781 -22.71875 1 0 1
bridge_se1_metal_flat_steel_01
0 87 -133 264 0 1 0 -84.335938 -3.150391 1 0 1
0 87 -133 108 0 1 0 -84.335938 -4.369141 1 0 1
0 75 -133 108 0 1 0 -84.429688 -4.369141 1 0 1
bridge_se1_metal_flat_steel_01
0 87 -133 264 0 1 0 -84.335938 -3.150391 1 0 1
0 75 -133 108 0 1 0 -84.429688 -4.369141 1 0 1
0 75 -133 264 0 1 0 -84.429688 -3.150391 1 0 1
bridge_se1_metal_flat_steel_01
0 87 -145 108 0 -1 0 -84.335938 -4.369141 1 0 1
0 87 -145 264 0 -1 0 -84.335938 -3.150391 1 0 1
0 75 -145 264 0 -1 0 -84.429688 -3.150391 1 0 1
bridge_se1_metal_flat_steel_01
0 87 -145 108 0 -1 0 -84.335938 -4.369141 1 0 1
0 75 -145 264 0 -1 0 -84.429688 -3.150391 1 0 1
0 75 -145 108 0 -1 0 -84.429688 -4.369141 1 0 1
bridge_se1_metal_flat_steel_01
0 75 -145 108 -1 0 0 19.8125 -4.369141 1 0 1
0 75 -145 264 -1 0 0 19.8125 -3.150391 1 0 1
0 75 -133 264 -1 0 0 19.71875 -3.150391 1 0 1
bridge_se1_metal_flat_steel_01
0 75 -145 108 -1 0 0 19.8125 -4.369141 1 0 1
0 75 -133 264 -1 0 0 19.71875 -3.150391 1 0 1
0 75 -133 108 -1 0 0 19.71875 -4.369141 1 0 1
bridge_se1_metal_flat_steel_01
0 -45 -145 108 1 0 0 -19.609375 -4.369141 1 0 1
0 -45 -133 108 1 0 0 -19.515625 -4.369141 1 0 1
0 -45 -133 264 1 0 0 -19.515625 -3.150391 1 0 1
bridge_se1_metal_flat_steel_01
0 -45 -145 108 1 0 0 -19.609375 -4.369141 1 0 1
0 -45 -133 264 1 0 0 -19.515625 -3.150391 1 0 1
0 -45 -145 264 1 0 0 -19.609375 -3.150391 1 0 1
bridge_se1_metal_flat_steel_01
0 -45 -133 264 0 1 0 -85.367188 -3.150391 1 0 1
0 -45 -133 108 0 1 0 -85.367188 -4.369141 1 0 1
0 -57 -133 108 0 1 0 -85.460938 -4.369141 1 0 1
bridge_se1_metal_flat_steel_01
0 -45 -133 264 0 1 0 -85.367188 -3.150391 1 0 1
0 -57 -133 108 0 1 0 -85.460938 -4.369141 1 0 1
0 -57 -133 264 0 1 0 -85.460938 -3.150391 1 0 1
bridge_se1_metal_flat_steel_01
0 -45 -145 108 0 -1 0 -85.367188 -4.369141 1 0 1
0 -45 -145 264 0 -1 0 -85.367188 -3.150391 1 0 1
0 -57 -145 264 0 -1 0 -85.460938 -3.150391 1 0 1
bridge_se1_metal_flat_steel_01
0 -45 -145 108 0 -1 0 -85.367188 -4.369141 1 0 1
0 -57 -145 264 0 -1 0 -85.460938 -3.150391 1 0 1
0 -57 -145 108 0 -1 0 -85.460938 -4.369141 1 0 1
pepsi2_arch_stairs01
0 -281 236 9 -1 0 0 33.050781 -25.71875 1 0 1
0 -281 236 -0.004 -1 0 0 33.050781 -26.000125 1 0 1
0 -281 92 -0.004 -1 0 0 35.300781 -26.000125 1 0 1
pepsi2_arch_stairs01
0 -281 236 9 -1 0 0 33.050781 -25.71875 1 0 1
0 -281 92 -0.004 -1 0 0 35.300781 -26.000125 1 0 1
0 -281 92 9 -1 0 0 35.300781 -25.71875 1 0 1
pepsi2_arch_stairs01
0 -281 92 9 0 0 1 35.300781 -350.71875 1 0 1
0 -266 92 9 0 0 1 35.300781 -350.25 1 0 1
0 -266 236 9 0 0 1 33.050781 -350.25 1 0 1
pepsi2_arch_stairs01
0 -281 92 9 0 0 1 35.300781 -350.71875 1 0 1
0 -266 236 9 0 0 1 33.050781 -350.25 1 0 1
0 -281 236 9 0 0 1 33.050781 -350.71875 1 0 1
bridge_se1_metal_flat_steel_01
0 -69 104 252 -1 0 0 -18.367188 -3.244141 1 0 1
0 -69 104 264 -1 0 0 -18.367188 -3.150391 1 0 1
0 -69 224 264 -1 0 0 -17.429688 -3.150391 1 0 1
bridge_se1_metal_flat_steel_01
0 -69 104 252 -1 0 0 -18.367188 -3.244141 1 0 1
0 -69 224 264 -1 0 0 -17.429688 -3.150391 1 0 1
0 -69 224 252 -1 0 0 -17.429688 -3.244141 1 0 1
bridge_se1_metal_flat_steel_01
0 -57 104 264 1 0 0 -18.367188 -3.150391 1 0 1
0 -57 104 252 1 0 0 -18.367188 -3.244141 1 0 1
0 -57 224 252 1 0 0 -17.429688 -3.244141 1 0 1
bridge_se1_metal_flat_steel_01
0 -57 104 264 1 0 0 -18.367188 -3.150391 1 0 1
0 -57 224 252 1 0 0 -17.429688 -3.244141 1 0 1
0 -57 224 264 1 0 0 -17.429688 -3.150391 1 0 1
bridge_se1_metal_flat_steel_01
0 -57 104 252 0 0 -1 -18.367188 -85.001953 1 0 1
0 -69 104 252 0 0 -1 -18.367188 -85.095703 1 0 1
0 -69 224 252 0 0 -1 -17.429688 -85.095703 1 0 1
bridge_se1_metal_flat_steel_01
0 -57 104 252 0 0 -1 -18.367188 -85.001953 1 0 1
0 -69 224 252 0 0 -1 -17.429688 -85.095703 1 0 1
0 -57 224 252 0 0 -1 -17.429688 -85.001953 1 0 1
pepsi2_arch_stairs01
0 -191 236 63 -1 0 0 33.050781 -24.71875 1 0 1
0 -191 236 54.001 -1 0 0 33.050781 -24.999969 1 0 1
0 -191 92 54.001 -1 0 0 35.300781 -24.999969 1 0 1
pepsi2_arch_stairs01
0 -191 236 63 -1 0 0 33.050781 -24.71875 1 0 1
0 -191 92 54.001 -1 0 0 35.300781 -24.999969 1 0 1
0 -191 92 63 -1 0 0 35.300781 -24.71875 1 0 1
pepsi2_arch_stairs01
0 -191 92 63 0 0 1 35.300781 -347.71875 1 0 1
0 -176 92 63 0 0 1 35.300781 -347.25 1 0 1
0 -176 236 63 0 0 1 33.050781 -347.25 1 0 1
pepsi2_arch_stairs01
0 -191 92 63 0 0 1 35.300781 -347.71875 1 0 1
0 -176 236 63 0 0 1 33.050781 -347.25 1 0 1
0 -191 236 63 0 0 1 33.050781 -347.71875 1 0 1
props_sign_trainschedule01a
0 279 146 234 0 1 0 111 -4.998698 1 0 1
0 279 146 138 0 1 0 111 -5.998698 1 0 1
0 183 146 138 0 1 0 112 -5.998698 1 0 1
props_sign_trainschedule01a
0 279 146 234 0 1 0 111 -4.998698 1 0 1
0 183 146 138 0 1 0 112 -5.998698 1 0 1
0 183 146 234 0 1 0 112 -4.998698 1 0 1
pepsi2_arch_stairs01
0 -116 92 108 0 0 1 35.300781 -345.71875 1 0 1
0 -101 92 108 0 0 1 35.300781 -345.25 1 0 1
0 -101 236 108 0 0 1 33.050781 -345.25 1 0 1
pepsi2_arch_stairs01
0 -116 92 108 0 0 1 35.300781 -345.71875 1 0 1
0 -101 236 108 0 0 1 33.050781 -345.25 1 0 1
0 -116 236 108 0 0 1 33.050781 -345.71875 1 0 1
pepsi2_arch_stairs01
0 -116 92 108 -1 0 0 35.300781 -22.71875 1 0 1
0 -116 236 108 -1 0 0 33.050781 -22.71875 1 0 1
0 -116 236 98.996 -1 0 0 33.050781 -23.000125 1 0 1
pepsi2_arch_stairs01
0 -116 92 108 -1 0 0 35.300781 -22.71875 1 0 1
0 -116 236 98.996 -1 0 0 33.050781 -23.000125 1 0 1
0 -116 92 98.996 -1 0 0 35.300781 -23.000125 1 0 1
pepsi2_arch_stairs01
0 -161 92 81 0 0 1 35.300781 -346.71875 1 0 1
0 -146 92 81 0 0 1 35.300781 -346.25 1 0 1
0 -146 236 81 0 0 1 33.050781 -346.25 1 0 1
pepsi2_arch_stairs01
0 -161 92 81 0 0 1 35.300781 -346.71875 1 0 1
0 -146 236 81 0 0 1 33.050781 -346.25 1 0 1
0 -161 236 81 0 0 1 33.050781 -346.71875 1 0 1
pepsi2_arch_stairs01
0 -161 92 81 -1 0 0 35.300781 -23.71875 1 0 1
0 -161 236 81 -1 0 0 33.050781 -23.71875 1 0 1
0 -161 236 71.996 -1 0 0 33.050781 -24.000125 1 0 1
pepsi2_arch_stairs01
0 -161 92 81 -1 0 0 35.300781 -23.71875 1 0 1
0 -161 236 71.996 -1 0 0 33.050781 -24.000125 1 0 1
0 -161 92 71.996 -1 0 0 35.300781 -24.000125 1 0 1
pepsi2_arch_stairs01
0 -57 -205 144 0 0 1 172.300781 80.75 1 0 1
0 87 -205 144 0 0 1 170.050781 80.75 1 0 1
0 87 -190 144 0 0 1 170.050781 80.28125 1 0 1
pepsi2_arch_stairs01
0 -57 -205 144 0 0 1 172.300781 80.75 1 0 1
0 87 -190 144 0 0 1 170.050781 80.28125 1 0 1
0 -57 -190 144 0 0 1 172.300781 80.28125 1 0 1
pepsi2_arch_stairs01
0 87 -190 135 0 1 0 170.050781 -22 1 0 1
0 -57 -190 135 0 1 0 172.300781 -22 1 0 1
0 -57 -190 144 0 1 0 172.300781 -21.71875 1 0 1
pepsi2_arch_stairs01
0 87 -190 135 0 1 0 170.050781 -22 1 0 1
0 -57 -190 144 0 1 0 172.300781 -21.71875 1 0 1
0 87 -190 144 0 1 0 170.050781 -21.71875 1 0 1
pepsi2_arch_stairs01
0 -176 92 62.996 -1 0 0 35.300781 -24.000125 1 0 1
0 -176 92 72 -1 0 0 35.300781 -23.71875 1 0 1
0 -176 236 72 -1 0 0 33.050781 -23.71875 1 0 1
pepsi2_arch_stairs01
0 -176 92 62.996 -1 0 0 35.300781 -24.000125 1 0 1
0 -176 236 72 -1 0 0 33.050781 -23.71875 1 0 1
0 -176 236 62.996 -1 0 0 33.050781 -24.000125 1 0 1
pepsi2_arch_stairs01
0 -176 92 72 0 0 1 35.300781 -347.71875 1 0 1
0 -161 92 72 0 0 1 35.300781 -347.25 1 0 1
0 -161 236 72 0 0 1 33.050781 -347.25 1 0 1
pepsi2_arch_stairs01
0 -176 92 72 0 0 1 35.300781 -347.71875 1 0 1
0 -161 236 72 0 0 1 33.050781 -347.25 1 0 1
0 -176 236 72 0 0 1 33.050781 -347.71875 1 0 1
pepsi2_arch_stairs01
0 87 -220 162 0 1 0 170.050781 -21.71875 1 0 1
0 87 -220 153 0 1 0 170.050781 -22 1 0 1
0 -57 -220 153 0 1 0 172.300781 -22 1 0 1
pepsi2_arch_stairs01
0 87 -220 162 0 1 0 170.050781 -21.71875 1 0 1
0 -57 -220 153 0 1 0 172.300781 -22 1 0 1
0 -57 -220 162 0 1 0 172.300781 -21.71875 1 0 1
pepsi2_arch_stairs01
0 87 -235 162 0 0 1 170.050781 81.75 1 0 1
0 87 -220 162 0 0 1 170.050781 81.28125 1 0 1
0 -57 -220 162 0 0 1 172.300781 81.28125 1 0 1
pepsi2_arch_stairs01
0 87 -235 162 0 0 1 170.050781 81.75 1 0 1
0 -57 -220 162 0 0 1 172.300781 81.28125 1 0 1
0 -57 -235 162 0 0 1 172.300781 81.75 1 0 1
metal_metalfloor006a
0 281 148 136 0 1 0 -83.148438 -4.140625 1 0 1
0 181 148 136 0 1 0 -83.929688 -4.140625 1 0 1
0 183 148 138 0 1 0 -83.914063 -4.125 1 0 1
metal_metalfloor006a
0 281 148 136 0 1 0 -83.148438 -4.140625 1 0 1
0 183 148 138 0 1 0 -83.914063 -4.125 1 0 1
0 279 148 138 0 1 0 -83.164062 -4.125 1 0 1
metal_metalfloor006a
0 281 145 136 0 0 -1 18 -82.148438 1 0 1
0 181 145 136 0 0 -1 18 -82.929687 1 0 1
0 181 148 136 0 0 -1 17.976562 -82.929688 1 0 1
metal_metalfloor006a
0 281 145 136 0 0 -1 18 -82.148438 1 0 1
0 181 148 136 0 0 -1 17.976562 -82.929688 1 0 1
0 281 148 136 0 0 -1 17.976562 -82.148438 1 0 1
metal_metalfloor006a
0 183 145 138 0 0 1 18 -82.914062 1 0 1
0 279 145 138 0 0 1 18 -82.164063 1 0 1
0 279 148 138 0 0 1 17.976562 -82.164062 1 0 1
metal_metalfloor006a
0 183 145 138 0 0 1 18 -82.914062 1 0 1
0 279 148 138 0 0 1 17.976562 -82.164062 1 0 1
0 183 148 138 0 0 1 17.976562 -82.914062 1 0 1
pepsi2_arch_stairs01
0 -236 236 36 -1 0 0 33.050781 -25.71875 1 0 1
0 -236 236 26.996 -1 0 0 33.050781 -26.000125 1 0 1
0 -236 92 26.996 -1 0 0 35.300781 -26.000125 1 0 1
pepsi2_arch_stairs01
0 -236 236 36 -1 0 0 33.050781 -25.71875 1 0 1
0 -236 92 26.996 -1 0 0 35.300781 -26.000125 1 0 1
0 -236 92 36 -1 0 0 35.300781 -25.71875 1 0 1
pepsi2_arch_stairs01
0 -236 92 36 0 0 1 35.300781 -348.71875 1 0 1
0 -221 92 36 0 0 1 35.300781 -348.25 1 0 1
0 -221 236 36 0 0 1 33.050781 -348.25 1 0 1
pepsi2_arch_stairs01
0 -236 92 36 0 0 1 35.300781 -348.71875 1 0 1
0 -221 236 36 0 0 1 33.050781 -348.25 1 0 1
0 -236 236 36 0 0 1 33.050781 -348.71875 1 0 1
bridge_se1_metal_flat_steel_01
0 -57 104 264 0 1 0 85.390625 -3.150391 1 0 1
0 -57 104 108 0 1 0 85.390625 -4.369141 1 0 1
0 -69 104 108 0 1 0 85.484375 -4.369141 1 0 1
bridge_se1_metal_flat_steel_01
0 -57 104 264 0 1 0 85.390625 -3.150391 1 0 1
0 -69 104 108 0 1 0 85.484375 -4.369141 1 0 1
0 -69 104 264 0 1 0 85.484375 -3.150391 1 0 1
bridge_se1_metal_flat_steel_01
0 -69 92 108 -1 0 0 -18.460938 -4.369141 1 0 1
0 -69 92 264 -1 0 0 -18.460938 -3.150391 1 0 1
0 -69 104 264 -1 0 0 -18.367188 -3.150391 1 0 1
bridge_se1_metal_flat_steel_01
0 -69 92 108 -1 0 0 -18.460938 -4.369141 1 0 1
0 -69 104 264 -1 0 0 -18.367188 -3.150391 1 0 1
0 -69 104 108 -1 0 0 -18.367188 -4.369141 1 0 1
bridge_se1_metal_flat_steel_01
0 -57 92 264 1 0 0 -18.460938 -3.150391 1 0 1
0 -57 92 108 1 0 0 -18.460938 -4.369141 1 0 1
0 -57 104 108 1 0 0 -18.367188 -4.369141 1 0 1
bridge_se1_metal_flat_steel_01
0 -57 92 264 1 0 0 -18.460938 -3.150391 1 0 1
0 -57 104 108 1 0 0 -18.367188 -4.369141 1 0 1
0 -57 104 264 1 0 0 -18.367188 -3.150391 1 0 1
bridge_se1_metal_flat_steel_01
0 -57 224 108 0 -1 0 -86.1875 -4.369141 1 0 1
0 -57 224 264 0 -1 0 -86.1875 -3.150391 1 0 1
0 -69 224 264 0 -1 0 -86.28125 -3.150391 1 0 1
bridge_se1_metal_flat_steel_01
0 -57 224 108 0 -1 0 -86.1875 -4.369141 1 0 1
0 -69 224 264 0 -1 0 -86.28125 -3.150391 1 0 1
0 -69 224 108 0 -1 0 -86.28125 -4.369141 1 0 1
bridge_se1_metal_flat_steel_01
0 -69 224 108 -1 0 0 -17.429688 -4.369141 1 0 1
0 -69 224 264 -1 0 0 -17.429688 -3.150391 1 0 1
0 -69 236 264 -1 0 0 -17.335938 -3.150391 1 0 1
bridge_se1_metal_flat_steel_01
0 -69 224 108 -1 0 0 -17.429688 -4.369141 1 0 1
0 -69 236 264 -1 0 0 -17.335938 -3.150391 1 0 1
0 -69 236 108 -1 0 0 -17.335938 -4.369141 1 0 1
bridge_se1_metal_flat_steel_01
0 -57 224 264 1 0 0 -17.429688 -3.150391 1 0 1
0 -57 224 108 1 0 0 -17.429688 -4.369141 1 0 1
0 -57 236 108 1 0 0 -17.335938 -4.369141 1 0 1
bridge_se1_metal_flat_steel_01
0 -57 224 264 1 0 0 -17.429688 -3.150391 1 0 1
0 -57 236 108 1 0 0 -17.335938 -4.369141 1 0 1
0 -57 236 264 1 0 0 -17.335938 -3.150391 1 0 1
bridge_se1_metal_flat_steel_01
0 75 -133 264 0 1 0 -84.429688 -3.150391 1 0 1
0 75 -133 252 0 1 0 -84.429688 -3.244141 1 0 1
0 -45 -133 252 0 1 0 -85.367188 -3.244141 1 0 1
bridge_se1_metal_flat_steel_01
0 75 -133 264 0 1 0 -84.429688 -3.150391 1 0 1
0 -45 -133 252 0 1 0 -85.367188 -3.244141 1 0 1
0 -45 -133 264 0 1 0 -85.367188 -3.150391 1 0 1
bridge_se1_metal_flat_steel_01
0 75 -145 252 0 -1 0 -84.429688 -3.244141 1 0 1
0 75 -145 264 0 -1 0 -84.429688 -3.150391 1 0 1
0 -45 -145 264 0 -1 0 -85.367188 -3.150391 1 0 1
bridge_se1_metal_flat_steel_01
0 75 -145 252 0 -1 0 -84.429688 -3.244141 1 0 1
0 -45 -145 264 0 -1 0 -85.367188 -3.150391 1 0 1
0 -45 -145 252 0 -1 0 -85.367188 -3.244141 1 0 1
bridge_se1_metal_flat_steel_01
0 75 -145 252 0 0 -1 -84.429688 20.998047 1 0 1
0 -45 -145 252 0 0 -1 -85.367188 20.998047 1 0 1
0 -45 -133 252 0 0 -1 -85.367188 20.904297 1 0 1
bridge_se1_metal_flat_steel_01
0 75 -145 252 0 0 -1 -84.429688 20.998047 1 0 1
0 -45 -133 252 0 0 -1 -85.367188 20.904297 1 0 1
0 75 -133 252 0 0 -1 -84.429688 20.904297 1 0 1
pepsi2_arch_stairs01
0 -266 92 8.996 -1 0 0 35.300781 -26.000125 1 0 1
0 -266 92 18 -1 0 0 35.300781 -25.71875 1 0 1
0 -266 236 18 -1 0 0 33.050781 -25.71875 1 0 1
pepsi2_arch_stairs01
0 -266 92 8.996 -1 0 0 35.300781 -26.000125 1 0 1
0 -266 236 18 -1 0 0 33.050781 -25.71875 1 0 1
0 -266 236 8.996 -1 0 0 33.050781 -26.000125 1 0 1
pepsi2_arch_stairs01
0 -266 92 18 0 0 1 35.300781 -349.71875 1 0 1
0 -251 92 18 0 0 1 35.300781 -349.25 1 0 1
0 -251 236 18 0 0 1 33.050781 -349.25 1 0 1
pepsi2_arch_stairs01
0 -266 92 18 0 0 1 35.300781 -349.71875 1 0 1
0 -251 236 18 0 0 1 33.050781 -349.25 1 0 1
0 -266 236 18 0 0 1 33.050781 -349.71875 1 0 1
pepsi2_arch_stairs01
0 -146 92 81.001 -1 0 0 35.300781 -23.999969 1 0 1
0 -146 92 90 -1 0 0 35.300781 -23.71875 1 0 1
0 -146 236 90 -1 0 0 33.050781 -23.71875 1 0 1
pepsi2_arch_stairs01
0 -146 92 81.001 -1 0 0 35.300781 -23.999969 1 0 1
0 -146 236 90 -1 0 0 33.050781 -23.71875 1 0 1
0 -146 236 81.001 -1 0 0 33.050781 -23.999969 1 0 1
pepsi2_arch_stairs01
0 -146 92 90 0 0 1 35.300781 -346.71875 1 0 1
0 -131 92 90 0 0 1 35.300781 -346.25 1 0 1
0 -131 236 90 0 0 1 33.050781 -346.25 1 0 1
pepsi2_arch_stairs01
0 -146 92 90 0 0 1 35.300781 -346.71875 1 0 1
0 -131 236 90 0 0 1 33.050781 -346.25 1 0 1
0 -146 236 90 0 0 1 33.050781 -346.71875 1 0 1
metal_metalfloor006a
0 281 148 236 0 1 0 83.070312 5.359375 1 0 1
0 279 148 234 0 1 0 83.085938 5.375 1 0 1
0 183 148 234 0 1 0 83.835938 5.375 1 0 1
metal_metalfloor006a
0 281 148 236 0 1 0 83.070312 5.359375 1 0 1
0 183 148 234 0 1 0 83.835938 5.375 1 0 1
0 181 148 236 0 1 0 83.851562 5.359375 1 0 1
metal_metalfloor006a
0 183 148 234 0 0 -1 17.976562 84.835938 1 0 1
0 279 148 234 0 0 -1 17.976562 84.085938 1 0 1
0 279 145 234 0 0 -1 18 84.085938 1 0 1
metal_metalfloor006a
0 183 148 234 0 0 -1 17.976562 84.835938 1 0 1
0 279 145 234 0 0 -1 18 84.085938 1 0 1
0 183 145 234 0 0 -1 18 84.835937 1 0 1
metal_metalfloor006a
0 181 145 236 0 0 1 18 84.851562 1 0 1
0 281 145 236 0 0 1 18 84.070313 1 0 1
0 281 148 236 0 0 1 17.976562 84.070313 1 0 1
metal_metalfloor006a
0 181 145 236 0 0 1 18 84.851562 1 0 1
0 281 148 236 0 0 1 17.976562 84.070313 1 0 1
0 181 148 236 0 0 1 17.976562 84.851562 1 0 1
pepsi2_arch_stairs01
0 87 -145 117 0 1 0 170.050781 -22.71875 1 0 1
0 87 -145 108 0 1 0 170.050781 -23 1 0 1
0 -57 -145 108 0 1 0 172.300781 -23 1 0 1
pepsi2_arch_stairs01
0 87 -145 117 0 1 0 170.050781 -22.71875 1 0 1
0 -57 -145 108 0 1 0 172.300781 -23 1 0 1
0 -57 -145 117 0 1 0 172.300781 -22.71875 1 0 1
pepsi2_arch_stairs01
0 87 -160 117 0 0 1 170.050781 78.75 1 0 1
0 87 -145 117 0 0 1 170.050781 78.28125 1 0 1
0 -57 -145 117 0 0 1 172.300781 78.28125 1 0 1
pepsi2_arch_stairs01
0 87 -160 117 0 0 1 170.050781 78.75 1 0 1
0 -57 -145 117 0 0 1 172.300781 78.28125 1 0 1
0 -57 -160 117 0 0 1 172.300781 78.75 1 0 1
pepsi2_arch_stairs01
0 -206 92 44.996 -1 0 0 35.300781 -25.000125 1 0 1
0 -206 92 54 -1 0 0 35.300781 -24.71875 1 0 1
0 -206 236 54 -1 0 0 33.050781 -24.71875 1 0 1
pepsi2_arch_stairs01
0 -206 92 44.996 -1 0 0 35.300781 -25.000125 1 0 1
0 -206 236 54 -1 0 0 33.050781 -24.71875 1 0 1
0 -206 236 44.996 -1 0 0 33.050781 -25.000125 1 0 1
pepsi2_arch_stairs01
0 -206 92 54 0 0 1 35.300781 -348.71875 1 0 1
0 -191 92 54 0 0 1 35.300781 -348.25 1 0 1
0 -191 236 54 0 0 1 33.050781 -348.25 1 0 1
pepsi2_arch_stairs01
0 -206 92 54 0 0 1 35.300781 -348.71875 1 0 1
0 -191 236 54 0 0 1 33.050781 -348.25 1 0 1
0 -206 236 54 0 0 1 33.050781 -348.71875 1 0 1
pepsi2_arch_stairs01
0 87 -205 153 0 1 0 170.050781 -21.71875 1 0 1
0 87 -205 144 0 1 0 170.050781 -22 1 0 1
0 -57 -205 144 0 1 0 172.300781 -22 1 0 1
pepsi2_arch_stairs01
0 87 -205 153 0 1 0 170.050781 -21.71875 1 0 1
0 -57 -205 144 0 1 0 172.300781 -22 1 0 1
0 -57 -205 153 0 1 0 172.300781 -21.71875 1 0 1
pepsi2_arch_stairs01
0 87 -220 153 0 0 1 170.050781 80.75 1 0 1
0 87 -205 153 0 0 1 170.050781 80.28125 1 0 1
0 -57 -205 153 0 0 1 172.300781 80.28125 1 0 1
pepsi2_arch_stairs01
0 87 -220 153 0 0 1 170.050781 80.75 1 0 1
0 -57 -205 153 0 0 1 172.300781 80.28125 1 0 1
0 -57 -220 153 0 0 1 172.300781 80.75 1 0 1
pepsi2_arch_stairs01
0 -131 92 89.996 -1 0 0 35.300781 -24.000125 1 0 1
0 -131 92 99 -1 0 0 35.300781 -23.71875 1 0 1
0 -131 236 99 -1 0 0 33.050781 -23.71875 1 0 1
pepsi2_arch_stairs01
0 -131 92 89.996 -1 0 0 35.300781 -24.000125 1 0 1
0 -131 236 99 -1 0 0 33.050781 -23.71875 1 0 1
0 -131 236 89.996 -1 0 0 33.050781 -24.000125 1 0 1
pepsi2_arch_stairs01
0 -131 92 99 0 0 1 35.300781 -345.71875 1 0 1
0 -116 92 99 0 0 1 35.300781 -345.25 1 0 1
0 -116 236 99 0 0 1 33.050781 -345.25 1 0 1
pepsi2_arch_stairs01
0 -131 92 99 0 0 1 35.300781 -345.71875 1 0 1
0 -116 236 99 0 0 1 33.050781 -345.25 1 0 1
0 -131 236 99 0 0 1 33.050781 -345.71875 1 0 1
pepsi2_arch_stairs01
0 87 -175 135 0 1 0 170.050781 -21.71875 1 0 1
0 87 -175 126 0 1 0 170.050781 -22 1 0 1
0 -57 -175 126 0 1 0 172.300781 -22 1 0 1
pepsi2_arch_stairs01
0 87 -175 135 0 1 0 170.050781 -21.71875 1 0 1
0 -57 -175 126 0 1 0 172.300781 -22 1 0 1
0 -57 -175 135 0 1 0 172.300781 -21.71875 1 0 1
pepsi2_arch_stairs01
0 87 -190 135 0 0 1 170.050781 79.75 1 0 1
0 87 -175 135 0 0 1 170.050781 79.28125 1 0 1
0 -57 -175 135 0 0 1 172.300781 79.28125 1 0 1
pepsi2_arch_stairs01
0 87 -190 135 0 0 1 170.050781 79.75 1 0 1
0 -57 -175 135 0 0 1 172.300781 79.28125 1 0 1
0 -57 -190 135 0 0 1 172.300781 79.75 1 0 1
metal_metalfloor006a
0 183 148 138.003 0 1 0 83.835938 -4.124977 1 0 1
0 181 148 136.003 0 1 0 83.851562 -4.140602 1 0 1
0 181 148 235.997 0 1 0 83.851562 -3.359398 1 0 1
metal_metalfloor006a
0 183 148 138.003 0 1 0 83.835938 -4.124977 1 0 1
0 181 148 235.997 0 1 0 83.851562 -3.359398 1 0 1
0 183 148 233.997 0 1 0 83.835938 -3.375023 1 0 1
metal_metalfloor006a
0 181 145 235.997 -1 0 0 -18.015625 -3.359398 1 0 1
0 181 148 235.997 -1 0 0 -17.992188 -3.359398 1 0 1
0 181 148 136.003 -1 0 0 -17.992188 -4.140602 1 0 1
metal_metalfloor006a
0 181 145 235.997 -1 0 0 -18.015625 -3.359398 1 0 1
0 181 148 136.003 -1 0 0 -17.992188 -4.140602 1 0 1
0 181 145 136.003 -1 0 0 -18.015625 -4.140602 1 0 1
metal_metalfloor006a
0 183 145 138.003 1 0 0 -18.015625 -4.124977 1 0 1
0 183 148 138.003 1 0 0 -17.992188 -4.124977 1 0 1
0 183 148 233.997 1 0 0 -17.992188 -3.375023 1 0 1
metal_metalfloor006a
0 183 145 138.003 1 0 0 -18.015625 -4.124977 1 0 1
0 183 148 233.997 1 0 0 -17.992188 -3.375023 1 0 1
0 183 145 233.997 1 0 0 -18.015625 -3.375023 1 0 1
end
