version 1
nodes
0 "root" -1
end
skeleton
time 0
0 0 0 0 0 0 0
end
triangles
phys
0 62 1 42 0 0 1 1 0 1 0 1
0 62 2 42 0 0 1 1 0 1 0 1
0 62 2 106 0 0 1 1 0 1 0 1
phys
0 62 1 42 0 0 1 1 0 1 0 1
0 62 2 106 0 0 1 1 0 1 0 1
0 62 1 106 0 0 1 1 0 1 0 1
phys
0 -18 2 42 0 0 1 1 0 1 0 1
0 62 2 42 0 0 1 1 0 1 0 1
0 62 1 42 0 0 1 1 0 1 0 1
phys
0 -18 2 42 0 0 1 1 0 1 0 1
0 62 1 42 0 0 1 1 0 1 0 1
0 -18 1 42 0 0 1 1 0 1 0 1
phys
0 -18 1 106 0 0 1 1 0 1 0 1
0 62 1 106 0 0 1 1 0 1 0 1
0 62 2 106 0 0 1 1 0 1 0 1
phys
0 -18 1 106 0 0 1 1 0 1 0 1
0 62 2 106 0 0 1 1 0 1 0 1
0 -18 2 106 0 0 1 1 0 1 0 1
phys
0 62 2 106 0 0 1 1 0 1 0 1
0 62 2 42 0 0 1 1 0 1 0 1
0 -18 2 42 0 0 1 1 0 1 0 1
phys
0 62 2 106 0 0 1 1 0 1 0 1
0 -18 2 42 0 0 1 1 0 1 0 1
0 -18 2 106 0 0 1 1 0 1 0 1
phys
0 62 1 42 0 0 1 1 0 1 0 1
0 62 1 106 0 0 1 1 0 1 0 1
0 -18 1 106 0 0 1 1 0 1 0 1
phys
0 62 1 42 0 0 1 1 0 1 0 1
0 -18 1 106 0 0 1 1 0 1 0 1
0 -18 1 42 0 0 1 1 0 1 0 1
phys
0 -18 1 106 0 0 1 1 0 1 0 1
0 -18 2 106 0 0 1 1 0 1 0 1
0 -18 2 42 0 0 1 1 0 1 0 1
phys
0 -18 1 106 0 0 1 1 0 1 0 1
0 -18 2 42 0 0 1 1 0 1 0 1
0 -18 1 42 0 0 1 1 0 1 0 1
phys
0 113.3 4 42 0 0 1 2 0 1 0 1
0 62 4 42 0 0 1 2 0 1 0 1
0 62 4 106 0 0 1 2 0 1 0 1
phys
0 113.3 4 42 0 0 1 2 0 1 0 1
0 62 4 106 0 0 1 2 0 1 0 1
0 69.5 4 106 0 0 1 2 0 1 0 1
phys
0 69.5 -4 106 0 0 1 2 0 1 0 1
0 62 -4 106 0 0 1 2 0 1 0 1
0 62 -4 42 0 0 1 2 0 1 0 1
phys
0 69.5 -4 106 0 0 1 2 0 1 0 1
0 62 -4 42 0 0 1 2 0 1 0 1
0 113.3 -4 42 0 0 1 2 0 1 0 1
phys
0 62 -4 42 0 0 1 2 0 1 0 1
0 62 -4 106 0 0 1 2 0 1 0 1
0 62 4 106 0 0 1 2 0 1 0 1
phys
0 62 -4 42 0 0 1 2 0 1 0 1
0 62 4 106 0 0 1 2 0 1 0 1
0 62 4 42 0 0 1 2 0 1 0 1
phys
0 113.3 -4 42 0 0 1 2 0 1 0 1
0 62 -4 42 0 0 1 2 0 1 0 1
0 62 4 42 0 0 1 2 0 1 0 1
phys
0 113.3 -4 42 0 0 1 2 0 1 0 1
0 62 4 42 0 0 1 2 0 1 0 1
0 113.3 4 42 0 0 1 2 0 1 0 1
phys
0 62 -4 106 0 0 1 2 0 1 0 1
0 69.5 -4 106 0 0 1 2 0 1 0 1
0 69.5 4 106 0 0 1 2 0 1 0 1
phys
0 62 -4 106 0 0 1 2 0 1 0 1
0 69.5 4 106 0 0 1 2 0 1 0 1
0 62 4 106 0 0 1 2 0 1 0 1
phys
0 69.5 -4 106 0 0 1 2 0 1 0 1
0 113.3 -4 42 0 0 1 2 0 1 0 1
0 113.3 4 42 0 0 1 2 0 1 0 1
phys
0 69.5 -4 106 0 0 1 2 0 1 0 1
0 113.3 4 42 0 0 1 2 0 1 0 1
0 69.5 4 106 0 0 1 2 0 1 0 1
phys
0 -114 4 106 0 0 1 3 0 1 0 1
0 -114 4 42 0 0 1 3 0 1 0 1
0 -142 4 42 0 0 1 3 0 1 0 1
phys
0 -114 4 106 0 0 1 3 0 1 0 1
0 -142 4 42 0 0 1 3 0 1 0 1
0 -142 4 106 0 0 1 3 0 1 0 1
phys
0 -114 -4 42 0 0 1 3 0 1 0 1
0 -114 -4 106 0 0 1 3 0 1 0 1
0 -142 -4 106 0 0 1 3 0 1 0 1
phys
0 -114 -4 42 0 0 1 3 0 1 0 1
0 -142 -4 106 0 0 1 3 0 1 0 1
0 -142 -4 42 0 0 1 3 0 1 0 1
phys
0 -142 -4 42 0 0 1 3 0 1 0 1
0 -142 -4 106 0 0 1 3 0 1 0 1
0 -142 4 106 0 0 1 3 0 1 0 1
phys
0 -142 -4 42 0 0 1 3 0 1 0 1
0 -142 4 106 0 0 1 3 0 1 0 1
0 -142 4 42 0 0 1 3 0 1 0 1
phys
0 -114 -4 106 0 0 1 3 0 1 0 1
0 -114 -4 42 0 0 1 3 0 1 0 1
0 -114 4 42 0 0 1 3 0 1 0 1
phys
0 -114 -4 106 0 0 1 3 0 1 0 1
0 -114 4 42 0 0 1 3 0 1 0 1
0 -114 4 106 0 0 1 3 0 1 0 1
phys
0 -114 -4 42 0 0 1 3 0 1 0 1
0 -142 -4 42 0 0 1 3 0 1 0 1
0 -142 4 42 0 0 1 3 0 1 0 1
phys
0 -114 -4 42 0 0 1 3 0 1 0 1
0 -142 4 42 0 0 1 3 0 1 0 1
0 -114 4 42 0 0 1 3 0 1 0 1
phys
0 -142 -4 106 0 0 1 3 0 1 0 1
0 -114 -4 106 0 0 1 3 0 1 0 1
0 -114 4 106 0 0 1 3 0 1 0 1
phys
0 -142 -4 106 0 0 1 3 0 1 0 1
0 -114 4 106 0 0 1 3 0 1 0 1
0 -142 4 106 0 0 1 3 0 1 0 1
phys
0 -142 -4 42 0 0 1 4 0 1 0 1
0 113.3 -4 42 0 0 1 4 0 1 0 1
0 113.3 4 42 0 0 1 4 0 1 0 1
phys
0 -142 -4 42 0 0 1 4 0 1 0 1
0 113.3 4 42 0 0 1 4 0 1 0 1
0 -142 4 42 0 0 1 4 0 1 0 1
phys
0 142 4 0 0 0 1 4 0 1 0 1
0 113.3 4 42 0 0 1 4 0 1 0 1
0 113.3 -4 42 0 0 1 4 0 1 0 1
phys
0 142 4 0 0 0 1 4 0 1 0 1
0 113.3 -4 42 0 0 1 4 0 1 0 1
0 142 -4 0 0 0 1 4 0 1 0 1
phys
0 -142 4 0 0 0 1 4 0 1 0 1
0 -142 4 42 0 0 1 4 0 1 0 1
0 113.3 4 42 0 0 1 4 0 1 0 1
phys
0 -142 4 0 0 0 1 4 0 1 0 1
0 113.3 4 42 0 0 1 4 0 1 0 1
0 142 4 0 0 0 1 4 0 1 0 1
phys
0 142 -4 0 0 0 1 4 0 1 0 1
0 113.3 -4 42 0 0 1 4 0 1 0 1
0 -142 -4 42 0 0 1 4 0 1 0 1
phys
0 142 -4 0 0 0 1 4 0 1 0 1
0 -142 -4 42 0 0 1 4 0 1 0 1
0 -142 -4 0 0 0 1 4 0 1 0 1
phys
0 -142 -4 0 0 0 1 4 0 1 0 1
0 -142 -4 42 0 0 1 4 0 1 0 1
0 -142 4 42 0 0 1 4 0 1 0 1
phys
0 -142 -4 0 0 0 1 4 0 1 0 1
0 -142 4 42 0 0 1 4 0 1 0 1
0 -142 4 0 0 0 1 4 0 1 0 1
phys
0 -142 4 0 0 0 1 4 0 1 0 1
0 142 4 0 0 0 1 4 0 1 0 1
0 142 -4 0 0 0 1 4 0 1 0 1
phys
0 -142 4 0 0 0 1 4 0 1 0 1
0 142 -4 0 0 0 1 4 0 1 0 1
0 -142 -4 0 0 0 1 4 0 1 0 1
phys
0 -18 4 106 0 0 1 5 0 1 0 1
0 -18 4 42 0 0 1 5 0 1 0 1
0 -34 4 42 0 0 1 5 0 1 0 1
phys
0 -18 4 106 0 0 1 5 0 1 0 1
0 -34 4 42 0 0 1 5 0 1 0 1
0 -34 4 106 0 0 1 5 0 1 0 1
phys
0 -18 -4 42 0 0 1 5 0 1 0 1
0 -18 -4 106 0 0 1 5 0 1 0 1
0 -34 -4 106 0 0 1 5 0 1 0 1
phys
0 -18 -4 42 0 0 1 5 0 1 0 1
0 -34 -4 106 0 0 1 5 0 1 0 1
0 -34 -4 42 0 0 1 5 0 1 0 1
phys
0 -34 -4 42 0 0 1 5 0 1 0 1
0 -34 -4 106 0 0 1 5 0 1 0 1
0 -34 4 106 0 0 1 5 0 1 0 1
phys
0 -34 -4 42 0 0 1 5 0 1 0 1
0 -34 4 106 0 0 1 5 0 1 0 1
0 -34 4 42 0 0 1 5 0 1 0 1
phys
0 -18 -4 106 0 0 1 5 0 1 0 1
0 -18 -4 42 0 0 1 5 0 1 0 1
0 -18 4 42 0 0 1 5 0 1 0 1
phys
0 -18 -4 106 0 0 1 5 0 1 0 1
0 -18 4 42 0 0 1 5 0 1 0 1
0 -18 4 106 0 0 1 5 0 1 0 1
phys
0 -18 -4 42 0 0 1 5 0 1 0 1
0 -34 -4 42 0 0 1 5 0 1 0 1
0 -34 4 42 0 0 1 5 0 1 0 1
phys
0 -18 -4 42 0 0 1 5 0 1 0 1
0 -34 4 42 0 0 1 5 0 1 0 1
0 -18 4 42 0 0 1 5 0 1 0 1
phys
0 -34 -4 106 0 0 1 5 0 1 0 1
0 -18 -4 106 0 0 1 5 0 1 0 1
0 -18 4 106 0 0 1 5 0 1 0 1
phys
0 -34 -4 106 0 0 1 5 0 1 0 1
0 -18 4 106 0 0 1 5 0 1 0 1
0 -34 4 106 0 0 1 5 0 1 0 1
phys
0 -34 2 106 0 0 1 6 0 1 0 1
0 -34 2 42 0 0 1 6 0 1 0 1
0 -114 2 42 0 0 1 6 0 1 0 1
phys
0 -34 2 106 0 0 1 6 0 1 0 1
0 -114 2 42 0 0 1 6 0 1 0 1
0 -114 2 106 0 0 1 6 0 1 0 1
phys
0 -34 1 42 0 0 1 6 0 1 0 1
0 -34 1 106 0 0 1 6 0 1 0 1
0 -114 1 106 0 0 1 6 0 1 0 1
phys
0 -34 1 42 0 0 1 6 0 1 0 1
0 -114 1 106 0 0 1 6 0 1 0 1
0 -114 1 42 0 0 1 6 0 1 0 1
phys
0 -114 1 42 0 0 1 6 0 1 0 1
0 -114 1 106 0 0 1 6 0 1 0 1
0 -114 2 106 0 0 1 6 0 1 0 1
phys
0 -114 1 42 0 0 1 6 0 1 0 1
0 -114 2 106 0 0 1 6 0 1 0 1
0 -114 2 42 0 0 1 6 0 1 0 1
phys
0 -34 1 106 0 0 1 6 0 1 0 1
0 -34 1 42 0 0 1 6 0 1 0 1
0 -34 2 42 0 0 1 6 0 1 0 1
phys
0 -34 1 106 0 0 1 6 0 1 0 1
0 -34 2 42 0 0 1 6 0 1 0 1
0 -34 2 106 0 0 1 6 0 1 0 1
phys
0 -34 1 42 0 0 1 6 0 1 0 1
0 -114 1 42 0 0 1 6 0 1 0 1
0 -114 2 42 0 0 1 6 0 1 0 1
phys
0 -34 1 42 0 0 1 6 0 1 0 1
0 -114 2 42 0 0 1 6 0 1 0 1
0 -34 2 42 0 0 1 6 0 1 0 1
phys
0 -114 1 106 0 0 1 6 0 1 0 1
0 -34 1 106 0 0 1 6 0 1 0 1
0 -34 2 106 0 0 1 6 0 1 0 1
phys
0 -114 1 106 0 0 1 6 0 1 0 1
0 -34 2 106 0 0 1 6 0 1 0 1
0 -114 2 106 0 0 1 6 0 1 0 1
end
