version 1
nodes
0 "root" -1
end
skeleton
time 0
0 0 0 0 0 0 0
end
triangles
bridge_se1_metal_flat_steel_01
0 182 15 158 0 1 0 137.546224 0.734375 1 0 1
0 182 15 148 0 1 0 137.546224 0.604167 1 0 1
0 -181 15 148 0 1 0 142.272786 0.604167 1 0 1
bridge_se1_metal_flat_steel_01
0 182 15 158 0 1 0 137.546224 0.734375 1 0 1
0 -181 15 148 0 1 0 142.272786 0.604167 1 0 1
0 -181 15 158 0 1 0 142.272786 0.734375 1 0 1
bridge_se1_metal_flat_steel_01
0 -181 10 148 -1 0 0 -43.662109 0.604167 1 0 1
0 -181 10 158 -1 0 0 -43.662109 0.734375 1 0 1
0 -181 15 158 -1 0 0 -43.727214 0.734375 1 0 1
bridge_se1_metal_flat_steel_01
0 -181 10 148 -1 0 0 -43.662109 0.604167 1 0 1
0 -181 15 158 -1 0 0 -43.727214 0.734375 1 0 1
0 -181 15 148 -1 0 0 -43.727214 0.604167 1 0 1
bridge_se1_metal_flat_steel_01
0 182 10 158 1 0 0 -43.662109 0.734375 1 0 1
0 182 10 148 1 0 0 -43.662109 0.604167 1 0 1
0 182 15 148 1 0 0 -43.727214 0.604167 1 0 1
bridge_se1_metal_flat_steel_01
0 182 10 158 1 0 0 -43.662109 0.734375 1 0 1
0 182 15 148 1 0 0 -43.727214 0.604167 1 0 1
0 182 15 158 1 0 0 -43.727214 0.734375 1 0 1
bridge_se1_metal_flat_steel_01
0 182 10 148 0 0 -1 -43.662109 137.878255 1 0 1
0 -181 10 148 0 0 -1 -43.662109 142.604818 1 0 1
0 -181 15 148 0 0 -1 -43.727214 142.604818 1 0 1
bridge_se1_metal_flat_steel_01
0 182 10 148 0 0 -1 -43.662109 137.878255 1 0 1
0 -181 15 148 0 0 -1 -43.727214 142.604818 1 0 1
0 182 15 148 0 0 -1 -43.727214 137.878255 1 0 1
bridge_se1_metal_flat_steel_01
0 -181 10 158 0 0 1 -43.662109 -141.264974 1 0 1
0 182 10 158 0 0 1 -43.662109 -136.538411 1 0 1
0 182 15 158 0 0 1 -43.727214 -136.538411 1 0 1
bridge_se1_metal_flat_steel_01
0 -181 10 158 0 0 1 -43.662109 -141.264974 1 0 1
0 182 15 158 0 0 1 -43.727214 -136.538411 1 0 1
0 -181 15 158 0 0 1 -43.727214 -141.264974 1 0 1
pepsi2_arch_concrete_floor_smooth01
0 -156 10 -95 0 1 0 84.421875 -1.324219 1 0 1
0 -156 10 -140 0 1 0 84.421875 -1.675781 1 0 1
0 -176 10 -140 0 1 0 84.578125 -1.675781 1 0 1
pepsi2_arch_concrete_floor_smooth01
0 -156 10 -95 0 1 0 84.421875 -1.324219 1 0 1
0 -176 10 -140 0 1 0 84.578125 -1.675781 1 0 1
0 -176 10 -95 0 1 0 84.578125 -1.324219 1 0 1
pepsi2_arch_concrete_floor_smooth01
0 -156 -30 -140 0 -1 0 84.421875 -1.675781 1 0 1
0 -156 -30 -95 0 -1 0 84.421875 -1.324219 1 0 1
0 -176 -30 -95 0 -1 0 84.578125 -1.324219 1 0 1
pepsi2_arch_concrete_floor_smooth01
0 -156 -30 -140 0 -1 0 84.421875 -1.675781 1 0 1
0 -176 -30 -95 0 -1 0 84.578125 -1.324219 1 0 1
0 -176 -30 -140 0 -1 0 84.578125 -1.675781 1 0 1
pepsi2_arch_concrete_floor_smooth01
0 -176 -30 -140 -1 0 0 -26.109375 -1.675781 1 0 1
0 -176 -30 -95 -1 0 0 -26.109375 -1.324219 1 0 1
0 -176 10 -95 -1 0 0 -26.421875 -1.324219 1 0 1
pepsi2_arch_concrete_floor_smooth01
0 -176 -30 -140 -1 0 0 -26.109375 -1.675781 1 0 1
0 -176 10 -95 -1 0 0 -26.421875 -1.324219 1 0 1
0 -176 10 -140 -1 0 0 -26.421875 -1.675781 1 0 1
pepsi2_arch_concrete_floor_smooth01
0 -156 -30 -95 1 0 0 26.109375 -1.324219 1 0 1
0 -156 -30 -140 1 0 0 26.109375 -1.675781 1 0 1
0 -156 10 -140 1 0 0 26.421875 -1.675781 1 0 1
pepsi2_arch_concrete_floor_smooth01
0 -156 -30 -95 1 0 0 26.109375 -1.324219 1 0 1
0 -156 10 -140 1 0 0 26.421875 -1.675781 1 0 1
0 -156 10 -95 1 0 0 26.421875 -1.324219 1 0 1
pepsi2_arch_concrete_floor_smooth01
0 -176 -30 -95 0 0 1 84.578125 -25.011719 1 0 1
0 -156 -30 -95 0 0 1 84.421875 -25.011719 1 0 1
0 -156 10 -95 0 0 1 84.421875 -25.324219 1 0 1
pepsi2_arch_concrete_floor_smooth01
0 -176 -30 -95 0 0 1 84.578125 -25.011719 1 0 1
0 -156 10 -95 0 0 1 84.421875 -25.324219 1 0 1
0 -176 10 -95 0 0 1 84.578125 -25.324219 1 0 1
pepsi2_arch_concrete_wall01
0 -30 -302 -68 0 1 0 46.83724 0.057509 1 0 1
0 -30 -302 -73 0 1 0 46.83724 0.035807 1 0 1
0 -126 -302 -73 0 1 0 47.253906 0.035807 1 0 1
pepsi2_arch_concrete_wall01
0 -30 -302 -68 0 1 0 46.83724 0.057509 1 0 1
0 -126 -302 -73 0 1 0 47.253906 0.035807 1 0 1
0 -126 -302 -68 0 1 0 47.253906 0.057509 1 0 1
pepsi2_arch_concrete_wall01
0 -30 -312 -73 0 -1 0 3.353516 85.042969 1 0 1
0 -30 -312 -68 0 -1 0 3.314453 85.042969 1 0 1
0 -126 -312 -68 0 -1 0 3.314453 85.792969 1 0 1
pepsi2_arch_concrete_wall01
0 -30 -312 -73 0 -1 0 3.353516 85.042969 1 0 1
0 -126 -312 -68 0 -1 0 3.314453 85.792969 1 0 1
0 -126 -312 -73 0 -1 0 3.353516 85.792969 1 0 1
pepsi2_arch_concrete_floor_smooth01
0 167 10 173 0 1 0 0.445312 -80.914062 1 0 1
0 167 10 158 0 1 0 0.5625 -80.914062 1 0 1
0 -166 10 158 0 1 0 0.5625 -83.515625 1 0 1
pepsi2_arch_concrete_floor_smooth01
0 167 10 173 0 1 0 0.445312 -80.914062 1 0 1
0 -166 10 158 0 1 0 0.5625 -83.515625 1 0 1
0 -166 10 173 0 1 0 0.445312 -83.515625 1 0 1
pepsi2_arch_concrete_floor_smooth01
0 167 0 158 0 -1 0 0.5625 -80.914062 1 0 1
0 167 0 173 0 -1 0 0.445312 -80.914062 1 0 1
0 -166 0 173 0 -1 0 0.445312 -83.515625 1 0 1
pepsi2_arch_concrete_floor_smooth01
0 167 0 158 0 -1 0 0.5625 -80.914062 1 0 1
0 -166 0 173 0 -1 0 0.445312 -83.515625 1 0 1
0 -166 0 158 0 -1 0 0.5625 -83.515625 1 0 1
pepsi2_arch_concrete_floor_smooth01
0 -166 0 173 0 0 1 26.367188 -83.515625 1 0 1
0 167 0 173 0 0 1 26.367188 -80.914062 1 0 1
0 167 10 173 0 0 1 26.445312 -80.914062 1 0 1
pepsi2_arch_concrete_floor_smooth01
0 -166 0 173 0 0 1 26.367188 -83.515625 1 0 1
0 167 10 173 0 0 1 26.445312 -80.914062 1 0 1
0 -166 10 173 0 0 1 26.445312 -83.515625 1 0 1
pepsi2_arch_concrete_wall01
0 -156 10 10 0 1 0 47.384115 0.39605 1 0 1
0 -156 10 -91 0 1 0 47.384115 -0.042318 1 0 1
0 -176 10 -91 0 1 0 47.47092 -0.042318 1 0 1
pepsi2_arch_concrete_wall01
0 -156 10 10 0 1 0 47.384115 0.39605 1 0 1
0 -176 10 -91 0 1 0 47.47092 -0.042318 1 0 1
0 -176 10 10 0 1 0 47.47092 0.39605 1 0 1
pepsi2_arch_concrete_wall01
0 -156 -30 -91 0 -1 0 47.384115 -0.042318 1 0 1
0 -156 -30 10 0 -1 0 47.384115 0.39605 1 0 1
0 -176 -30 10 0 -1 0 47.47092 0.39605 1 0 1
pepsi2_arch_concrete_wall01
0 -156 -30 -91 0 -1 0 47.384115 -0.042318 1 0 1
0 -176 -30 10 0 -1 0 47.47092 0.39605 1 0 1
0 -176 -30 -91 0 -1 0 47.47092 -0.042318 1 0 1
pepsi2_arch_concrete_wall01
0 -176 -30 -91 -1 0 0 -14.354384 -0.042318 1 0 1
0 -176 -30 10 -1 0 0 -14.354384 0.39605 1 0 1
0 -176 10 10 -1 0 0 -14.527995 0.39605 1 0 1
pepsi2_arch_concrete_wall01
0 -176 -30 -91 -1 0 0 -14.354384 -0.042318 1 0 1
0 -176 10 10 -1 0 0 -14.527995 0.39605 1 0 1
0 -176 10 -91 -1 0 0 -14.527995 -0.042318 1 0 1
pepsi2_arch_concrete_wall01
0 -156 -30 10 1 0 0 14.211806 0.39605 1 0 1
0 -156 -30 -91 1 0 0 14.211806 -0.042318 1 0 1
0 -156 10 -91 1 0 0 14.385417 -0.042318 1 0 1
pepsi2_arch_concrete_wall01
0 -156 -30 10 1 0 0 14.211806 0.39605 1 0 1
0 -156 10 -91 1 0 0 14.385417 -0.042318 1 0 1
0 -156 10 10 1 0 0 14.385417 0.39605 1 0 1
pepsi2_arch_concrete_wall01
0 -156 -30 -91 0 0 -1 47.384115 14.784071 1 0 1
0 -176 -30 -91 0 0 -1 47.47092 14.784071 1 0 1
0 -176 10 -91 0 0 -1 47.47092 14.957682 1 0 1
pepsi2_arch_concrete_wall01
0 -156 -30 -91 0 0 -1 47.384115 14.784071 1 0 1
0 -176 10 -91 0 0 -1 47.47092 14.957682 1 0 1
0 -156 10 -91 0 0 -1 47.384115 14.957682 1 0 1
pepsi2_arch_concrete_wall01
0 -20 10 148 0 1 0 -46.38368 0.995009 1 0 1
0 -20 10 136 0 1 0 -46.38368 0.942925 1 0 1
0 -136 10 136 0 1 0 -46.887153 0.942925 1 0 1
pepsi2_arch_concrete_wall01
0 -20 10 148 0 1 0 -46.38368 0.995009 1 0 1
0 -136 10 136 0 1 0 -46.887153 0.942925 1 0 1
0 -136 10 148 0 1 0 -46.887153 0.995009 1 0 1
pepsi2_arch_concrete_wall01
0 -20 0 136 0 -1 0 0.314453 84.964844 1 0 1
0 -20 0 148 0 -1 0 0.220703 84.964844 1 0 1
0 -136 0 148 0 -1 0 0.220703 85.871094 1 0 1
pepsi2_arch_concrete_wall01
0 -20 0 136 0 -1 0 0.314453 84.964844 1 0 1
0 -136 0 148 0 -1 0 0.220703 85.871094 1 0 1
0 -136 0 136 0 -1 0 0.314453 85.871094 1 0 1
bridge_se1_metal_flat_steel_01
0 182 15 20 0 1 0 137.546224 -1.265625 1 0 1
0 182 15 10 0 1 0 137.546224 -1.395833 1 0 1
0 -181 15 10 0 1 0 142.272786 -1.395833 1 0 1
bridge_se1_metal_flat_steel_01
0 182 15 20 0 1 0 137.546224 -1.265625 1 0 1
0 -181 15 10 0 1 0 142.272786 -1.395833 1 0 1
0 -181 15 20 0 1 0 142.272786 -1.265625 1 0 1
bridge_se1_metal_flat_steel_01
0 -181 10 10 -1 0 0 -43.662109 -1.395833 1 0 1
0 -181 10 20 -1 0 0 -43.662109 -1.265625 1 0 1
0 -181 15 20 -1 0 0 -43.727214 -1.265625 1 0 1
bridge_se1_metal_flat_steel_01
0 -181 10 10 -1 0 0 -43.662109 -1.395833 1 0 1
0 -181 15 20 -1 0 0 -43.727214 -1.265625 1 0 1
0 -181 15 10 -1 0 0 -43.727214 -1.395833 1 0 1
bridge_se1_metal_flat_steel_01
0 182 10 20 1 0 0 -43.662109 -1.265625 1 0 1
0 182 10 10 1 0 0 -43.662109 -1.395833 1 0 1
0 182 15 10 1 0 0 -43.727214 -1.395833 1 0 1
bridge_se1_metal_flat_steel_01
0 182 10 20 1 0 0 -43.662109 -1.265625 1 0 1
0 182 15 10 1 0 0 -43.727214 -1.395833 1 0 1
0 182 15 20 1 0 0 -43.727214 -1.265625 1 0 1
bridge_se1_metal_flat_steel_01
0 182 10 10 0 0 -1 -43.662109 137.878255 1 0 1
0 -181 10 10 0 0 -1 -43.662109 142.604818 1 0 1
0 -181 15 10 0 0 -1 -43.727214 142.604818 1 0 1
bridge_se1_metal_flat_steel_01
0 182 10 10 0 0 -1 -43.662109 137.878255 1 0 1
0 -181 15 10 0 0 -1 -43.727214 142.604818 1 0 1
0 182 15 10 0 0 -1 -43.727214 137.878255 1 0 1
bridge_se1_metal_flat_steel_01
0 -181 10 20 0 0 1 -43.662109 -141.264974 1 0 1
0 182 10 20 0 0 1 -43.662109 -136.538411 1 0 1
0 182 15 20 0 0 1 -43.727214 -136.538411 1 0 1
bridge_se1_metal_flat_steel_01
0 -181 10 20 0 0 1 -43.662109 -141.264974 1 0 1
0 182 15 20 0 0 1 -43.727214 -136.538411 1 0 1
0 -181 15 20 0 0 1 -43.727214 -141.264974 1 0 1
pepsi2_arch_concrete_wall01
0 -30 -302 10 0 1 0 46.83724 0.39605 1 0 1
0 -30 -302 1 0 1 0 46.83724 0.356988 1 0 1
0 -126 -302 1 0 1 0 47.253906 0.356988 1 0 1
pepsi2_arch_concrete_wall01
0 -30 -302 10 0 1 0 46.83724 0.39605 1 0 1
0 -126 -302 1 0 1 0 47.253906 0.356988 1 0 1
0 -126 -302 10 0 1 0 47.253906 0.39605 1 0 1
pepsi2_arch_concrete_wall01
0 -30 -312 1 0 -1 0 2.775391 85.042969 1 0 1
0 -30 -312 10 0 -1 0 2.705078 85.042969 1 0 1
0 -126 -312 10 0 -1 0 2.705078 85.792969 1 0 1
pepsi2_arch_concrete_wall01
0 -30 -312 1 0 -1 0 2.775391 85.042969 1 0 1
0 -126 -312 10 0 -1 0 2.705078 85.792969 1 0 1
0 -126 -312 1 0 -1 0 2.775391 85.792969 1 0 1
pepsi2_arch_concrete_floor_smooth01
0 -156 -282 -140 0 1 0 85 -1.609375 1 0 1
0 -176 -282 -140 0 1 0 85.15625 -1.609375 1 0 1
0 -176 -282 10 0 1 0 85.15625 -0.4375 1 0 1
pepsi2_arch_concrete_floor_smooth01
0 -156 -282 -140 0 1 0 85 -1.609375 1 0 1
0 -176 -282 10 0 1 0 85.15625 -0.4375 1 0 1
0 -156 -282 10 0 1 0 85 -0.4375 1 0 1
pepsi2_arch_concrete_floor_smooth01
0 -176 -302 10 -1 0 0 -23.6875 -0.4375 1 0 1
0 -176 -282 10 -1 0 0 -23.84375 -0.4375 1 0 1
0 -176 -282 -140 -1 0 0 -23.84375 -1.609375 1 0 1
pepsi2_arch_concrete_floor_smooth01
0 -176 -302 10 -1 0 0 -23.6875 -0.4375 1 0 1
0 -176 -282 -140 -1 0 0 -23.84375 -1.609375 1 0 1
0 -176 -302 -140 -1 0 0 -23.6875 -1.609375 1 0 1
pepsi2_arch_concrete_floor_smooth01
0 -156 -302 -140 1 0 0 -23.6875 -1.609375 1 0 1
0 -156 -282 -140 1 0 0 -23.84375 -1.609375 1 0 1
0 -156 -282 10 1 0 0 -23.84375 -0.4375 1 0 1
pepsi2_arch_concrete_floor_smooth01
0 -156 -302 -140 1 0 0 -23.6875 -1.609375 1 0 1
0 -156 -282 10 1 0 0 -23.84375 -0.4375 1 0 1
0 -156 -302 10 1 0 0 -23.6875 -0.4375 1 0 1
pepsi2_arch_concrete_wall01
0 -20 10 30 0 1 0 -46.38368 0.482856 1 0 1
0 -20 10 20 0 1 0 -46.38368 0.439453 1 0 1
0 -136 10 20 0 1 0 -46.887153 0.439453 1 0 1
pepsi2_arch_concrete_wall01
0 -20 10 30 0 1 0 -46.38368 0.482856 1 0 1
0 -136 10 20 0 1 0 -46.887153 0.439453 1 0 1
0 -136 10 30 0 1 0 -46.887153 0.482856 1 0 1
pepsi2_arch_concrete_wall01
0 -20 0 20 0 -1 0 1.220703 84.964844 1 0 1
0 -20 0 30 0 -1 0 1.142578 84.964844 1 0 1
0 -136 0 30 0 -1 0 1.142578 85.871094 1 0 1
pepsi2_arch_concrete_wall01
0 -20 0 20 0 -1 0 1.220703 84.964844 1 0 1
0 -136 0 30 0 -1 0 1.142578 85.871094 1 0 1
0 -136 0 20 0 -1 0 1.220703 85.871094 1 0 1
pepsi2_arch_concrete_wall01
0 -20 10 104 0 1 0 -46.38368 0.804036 1 0 1
0 -20 10 99 0 1 0 -46.38368 0.782335 1 0 1
0 -136 10 99 0 1 0 -46.887153 0.782335 1 0 1
pepsi2_arch_concrete_wall01
0 -20 10 104 0 1 0 -46.38368 0.804036 1 0 1
0 -136 10 99 0 1 0 -46.887153 0.782335 1 0 1
0 -136 10 104 0 1 0 -46.887153 0.804036 1 0 1
pepsi2_arch_concrete_wall01
0 -20 0 99 0 -1 0 0.603516 84.964844 1 0 1
0 -20 0 104 0 -1 0 0.564453 84.964844 1 0 1
0 -136 0 104 0 -1 0 0.564453 85.871094 1 0 1
pepsi2_arch_concrete_wall01
0 -20 0 99 0 -1 0 0.603516 84.964844 1 0 1
0 -136 0 104 0 -1 0 0.564453 85.871094 1 0 1
0 -136 0 99 0 -1 0 0.603516 85.871094 1 0 1
pepsi2_arch_concrete_wall01
0 -20 0 62 0 -1 0 0.892578 84.964844 1 0 1
0 -20 0 67 0 -1 0 0.853516 84.964844 1 0 1
0 -136 0 67 0 -1 0 0.853516 85.871094 1 0 1
pepsi2_arch_concrete_wall01
0 -20 0 62 0 -1 0 0.892578 84.964844 1 0 1
0 -136 0 67 0 -1 0 0.853516 85.871094 1 0 1
0 -136 0 62 0 -1 0 0.892578 85.871094 1 0 1
pepsi2_arch_concrete_wall01
0 -20 10 67 0 1 0 -46.38368 0.643446 1 0 1
0 -20 10 62 0 1 0 -46.38368 0.621745 1 0 1
0 -136 10 62 0 1 0 -46.887153 0.621745 1 0 1
pepsi2_arch_concrete_wall01
0 -20 10 67 0 1 0 -46.38368 0.643446 1 0 1
0 -136 10 62 0 1 0 -46.887153 0.621745 1 0 1
0 -136 10 67 0 1 0 -46.887153 0.643446 1 0 1
pepsi2_arch_concrete_wall01
0 -30 -302 -31 0 1 0 46.83724 0.218099 1 0 1
0 -30 -302 -36 0 1 0 46.83724 0.196398 1 0 1
0 -126 -302 -36 0 1 0 47.253906 0.196398 1 0 1
pepsi2_arch_concrete_wall01
0 -30 -302 -31 0 1 0 46.83724 0.218099 1 0 1
0 -126 -302 -36 0 1 0 47.253906 0.196398 1 0 1
0 -126 -302 -31 0 1 0 47.253906 0.218099 1 0 1
pepsi2_arch_concrete_wall01
0 -30 -312 -36 0 -1 0 3.064453 85.042969 1 0 1
0 -30 -312 -31 0 -1 0 3.025391 85.042969 1 0 1
0 -126 -312 -31 0 -1 0 3.025391 85.792969 1 0 1
pepsi2_arch_concrete_wall01
0 -30 -312 -36 0 -1 0 3.064453 85.042969 1 0 1
0 -126 -312 -31 0 -1 0 3.025391 85.792969 1 0 1
0 -126 -312 -36 0 -1 0 3.064453 85.792969 1 0 1
goldeneye_caverns_cavernsconcretefloor02
0 -6 -265 -137 0 1 0 -140.146484 5.804036 1 0 1
0 -6 -265 -140 0 1 0 -140.146484 5.843099 1 0 1
0 -114 -265 -140 0 1 0 -141.552734 5.843099 1 0 1
goldeneye_caverns_cavernsconcretefloor02
0 -6 -265 -137 0 1 0 -140.146484 5.804036 1 0 1
0 -114 -265 -140 0 1 0 -141.552734 5.843099 1 0 1
0 -114 -265 -137 0 1 0 -141.552734 5.804036 1 0 1
goldeneye_caverns_cavernsconcretefloor02
0 -6 -273 -140 0 -1 0 -140.146484 -3.372396 1 0 1
0 -6 -273 -137 0 -1 0 -140.146484 -3.333333 1 0 1
0 -114 -273 -137 0 -1 0 -141.552734 -3.333333 1 0 1
goldeneye_caverns_cavernsconcretefloor02
0 -6 -273 -140 0 -1 0 -140.146484 -3.372396 1 0 1
0 -114 -273 -137 0 -1 0 -141.552734 -3.333333 1 0 1
0 -114 -273 -140 0 -1 0 -141.552734 -3.372396 1 0 1
goldeneye_caverns_cavernsconcretefloor02
0 -114 -273 -140 -1 0 0 -40.553385 -3.372396 1 0 1
0 -114 -273 -137 -1 0 0 -40.553385 -3.333333 1 0 1
0 -114 -270 -135 -1 0 0 -40.592448 -3.307292 1 0 1
goldeneye_caverns_cavernsconcretefloor02
0 -114 -273 -140 -1 0 0 -40.553385 -3.372396 1 0 1
0 -114 -270 -135 -1 0 0 -40.592448 -3.307292 1 0 1
0 -114 -268 -135 -1 0 0 -40.61849 -3.307292 1 0 1
goldeneye_caverns_cavernsconcretefloor02
0 -114 -273 -140 -1 0 0 -40.553385 -3.372396 1 0 1
0 -114 -268 -135 -1 0 0 -40.61849 -3.307292 1 0 1
0 -114 -265 -137 -1 0 0 -40.657552 -3.333333 1 0 1
goldeneye_caverns_cavernsconcretefloor02
0 -114 -273 -140 -1 0 0 -40.553385 -3.372396 1 0 1
0 -114 -265 -137 -1 0 0 -40.657552 -3.333333 1 0 1
0 -114 -265 -140 -1 0 0 -40.657552 -3.372396 1 0 1
goldeneye_caverns_cavernsconcretefloor02
0 -6 -273 -137 1 0 0 -40.04362 5.804036 1 0 1
0 -6 -273 -140 1 0 0 -40.04362 5.843099 1 0 1
0 -6 -265 -140 1 0 0 -40.147786 5.843099 1 0 1
goldeneye_caverns_cavernsconcretefloor02
0 -6 -273 -137 1 0 0 -40.04362 5.804036 1 0 1
0 -6 -265 -140 1 0 0 -40.147786 5.843099 1 0 1
0 -6 -265 -137 1 0 0 -40.147786 5.804036 1 0 1
goldeneye_caverns_cavernsconcretefloor02
0 -6 -273 -137 1 0 0 -40.04362 5.804036 1 0 1
0 -6 -265 -137 1 0 0 -40.147786 5.804036 1 0 1
0 -6 -268 -135 1 0 0 -40.108724 5.777995 1 0 1
goldeneye_caverns_cavernsconcretefloor02
0 -6 -273 -137 1 0 0 -40.04362 5.804036 1 0 1
0 -6 -268 -135 1 0 0 -40.108724 5.777995 1 0 1
0 -6 -270 -135 1 0 0 -40.082682 5.777995 1 0 1
goldeneye_caverns_cavernsconcretefloor02
0 -6 -270 -135 0 0 1 -140.146484 40.713542 1 0 1
0 -6 -268 -135 0 0 1 -140.146484 40.739583 1 0 1
0 -114 -268 -135 0 0 1 -141.552734 40.739583 1 0 1
goldeneye_caverns_cavernsconcretefloor02
0 -6 -270 -135 0 0 1 -140.146484 40.713542 1 0 1
0 -114 -268 -135 0 0 1 -141.552734 40.739583 1 0 1
0 -114 -270 -135 0 0 1 -141.552734 40.713542 1 0 1
goldeneye_caverns_cavernsconcretefloor02
0 -6 -268 -135 0 0.5547 0.83205 -140.146484 36.760128 1 0 1
0 -6 -265 -137 0 0.5547 0.83205 -140.146484 36.807077 1 0 1
0 -114 -265 -137 0 0.5547 0.83205 -141.552734 36.807077 1 0 1
goldeneye_caverns_cavernsconcretefloor02
0 -6 -268 -135 0 0.5547 0.83205 -140.146484 36.760128 1 0 1
0 -114 -265 -137 0 0.5547 0.83205 -141.552734 36.807077 1 0 1
0 -114 -268 -135 0 0.5547 0.83205 -141.552734 36.760128 1 0 1
goldeneye_caverns_cavernsconcretefloor02
0 -114 -273 -137 0 -0.5547 0.83205 -141.552734 31.668236 1 0 1
0 -6 -273 -137 0 -0.5547 0.83205 -140.146484 31.668236 1 0 1
0 -6 -270 -135 0 -0.5547 0.83205 -140.146484 31.715185 1 0 1
goldeneye_caverns_cavernsconcretefloor02
0 -114 -273 -137 0 -0.5547 0.83205 -141.552734 31.668236 1 0 1
0 -6 -270 -135 0 -0.5547 0.83205 -140.146484 31.715185 1 0 1
0 -114 -270 -135 0 -0.5547 0.83205 -141.552734 31.715185 1 0 1
bridge_se1_metal_flat_steel_01
0 -156 -6 -10 0 0 -1 84.507812 27.373047 1 0 1
0 -156 6 -10 0 0 -1 84.507812 27.466797 1 0 1
0 157 6 -10 0 0 -1 82.0625 27.466797 1 0 1
bridge_se1_metal_flat_steel_01
0 -156 -6 -10 0 0 -1 84.507812 27.373047 1 0 1
0 157 6 -10 0 0 -1 82.0625 27.466797 1 0 1
0 157 -6 -10 0 0 -1 82.0625 27.373047 1 0 1
bridge_se1_metal_flat_steel_01
0 -156 -10 -6 0 -0.707107 -0.707107 84.507812 20.329368 1 0 1
0 -156 -6 -10 0 -0.707107 -0.707107 84.507812 20.373562 1 0 1
0 157 -6 -10 0 -0.707107 -0.707107 82.0625 20.373562 1 0 1
bridge_se1_metal_flat_steel_01
0 -156 -10 -6 0 -0.707107 -0.707107 84.507812 20.329368 1 0 1
0 157 -6 -10 0 -0.707107 -0.707107 82.0625 20.373562 1 0 1
0 157 -10 -6 0 -0.707107 -0.707107 82.0625 20.329368 1 0 1
bridge_se1_metal_flat_steel_01
0 -156 6 -10 0 0.707107 -0.707107 84.507812 17.485609 1 0 1
0 -156 10 -6 0 0.707107 -0.707107 84.507812 17.529802 1 0 1
0 157 10 -6 0 0.707107 -0.707107 82.0625 17.529802 1 0 1
bridge_se1_metal_flat_steel_01
0 -156 6 -10 0 0.707107 -0.707107 84.507812 17.485609 1 0 1
0 157 10 -6 0 0.707107 -0.707107 82.0625 17.529802 1 0 1
0 157 6 -10 0 0.707107 -0.707107 82.0625 17.485609 1 0 1
bridge_se1_metal_flat_steel_01
0 157 10 10 0 1 0 82.0625 -0.345703 1 0 1
0 157 10 -6 0 1 0 82.0625 -0.470703 1 0 1
0 -156 10 -6 0 1 0 84.507812 -0.470703 1 0 1
bridge_se1_metal_flat_steel_01
0 157 10 10 0 1 0 82.0625 -0.345703 1 0 1
0 -156 10 -6 0 1 0 84.507812 -0.470703 1 0 1
0 -156 10 10 0 1 0 84.507812 -0.345703 1 0 1
bridge_se1_metal_flat_steel_01
0 157 -10 -6 0 -1 0 82.0625 2.328125 1 0 1
0 157 -10 10 0 -1 0 82.0625 2.203125 1 0 1
0 -156 -10 10 0 -1 0 84.507812 2.203125 1 0 1
bridge_se1_metal_flat_steel_01
0 157 -10 -6 0 -1 0 82.0625 2.328125 1 0 1
0 -156 -10 10 0 -1 0 84.507812 2.203125 1 0 1
0 -156 -10 -6 0 -1 0 84.507812 2.328125 1 0 1
bridge_se1_metal_flat_steel_01
0 -158 8 -91 0 1 0 141.879557 -2.705078 1 0 1
0 -158 8 -95 0 1 0 141.879557 -2.757161 1 0 1
0 -174 8 -95 0 1 0 142.087891 -2.757161 1 0 1
bridge_se1_metal_flat_steel_01
0 -158 8 -91 0 1 0 141.879557 -2.705078 1 0 1
0 -174 8 -95 0 1 0 142.087891 -2.757161 1 0 1
0 -174 8 -91 0 1 0 142.087891 -2.705078 1 0 1
bridge_se1_metal_flat_steel_01
0 -158 -28 -95 0 -1 0 -141.817057 -2.757161 1 0 1
0 -158 -28 -91 0 -1 0 -141.817057 -2.705078 1 0 1
0 -174 -28 -91 0 -1 0 -142.025391 -2.705078 1 0 1
bridge_se1_metal_flat_steel_01
0 -158 -28 -95 0 -1 0 -141.817057 -2.757161 1 0 1
0 -174 -28 -91 0 -1 0 -142.025391 -2.705078 1 0 1
0 -174 -28 -95 0 -1 0 -142.025391 -2.757161 1 0 1
bridge_se1_metal_flat_steel_01
0 -174 -28 -95 -1 0 0 42.770833 4.319661 1 0 1
0 -174 -28 -91 -1 0 0 42.770833 4.267578 1 0 1
0 -174 8 -91 -1 0 0 43.239583 4.267578 1 0 1
bridge_se1_metal_flat_steel_01
0 -174 -28 -95 -1 0 0 42.770833 4.319661 1 0 1
0 -174 8 -91 -1 0 0 43.239583 4.267578 1 0 1
0 -174 8 -95 -1 0 0 43.239583 4.319661 1 0 1
bridge_se1_metal_flat_steel_01
0 -158 -28 -91 1 0 0 -43.708333 4.267578 1 0 1
0 -158 -28 -95 1 0 0 -43.708333 4.319661 1 0 1
0 -158 8 -95 1 0 0 -44.177083 4.319661 1 0 1
bridge_se1_metal_flat_steel_01
0 -158 -28 -91 1 0 0 -43.708333 4.267578 1 0 1
0 -158 8 -95 1 0 0 -44.177083 4.319661 1 0 1
0 -158 8 -91 1 0 0 -44.177083 4.267578 1 0 1
bridge_se1_metal_flat_steel_01
0 167 -275 148 0 1 0 -137.33138 1.714193 1 0 1
0 167 -275 138 0 1 0 -137.33138 1.844401 1 0 1
0 -166 -275 138 0 1 0 -141.667318 1.844401 1 0 1
bridge_se1_metal_flat_steel_01
0 167 -275 148 0 1 0 -137.33138 1.714193 1 0 1
0 -166 -275 138 0 1 0 -141.667318 1.844401 1 0 1
0 -166 -275 148 0 1 0 -141.667318 1.714193 1 0 1
bridge_se1_metal_flat_steel_01
0 167 -285 138 0 -1 0 -137.33138 -0.026042 1 0 1
0 167 -285 148 0 -1 0 -137.33138 0.104167 1 0 1
0 -166 -285 148 0 -1 0 -141.667318 0.104167 1 0 1
bridge_se1_metal_flat_steel_01
0 167 -285 138 0 -1 0 -137.33138 -0.026042 1 0 1
0 -166 -285 148 0 -1 0 -141.667318 0.104167 1 0 1
0 -166 -285 138 0 -1 0 -141.667318 -0.026042 1 0 1
bridge_se1_metal_flat_steel_01
0 167 -285 138 0 0 -1 -137.33138 -39.026042 1 0 1
0 -166 -285 138 0 0 -1 -141.667318 -39.026042 1 0 1
0 -166 -275 138 0 0 -1 -141.667318 -39.15625 1 0 1
bridge_se1_metal_flat_steel_01
0 167 -285 138 0 0 -1 -137.33138 -39.026042 1 0 1
0 -166 -275 138 0 0 -1 -141.667318 -39.15625 1 0 1
0 167 -275 138 0 0 -1 -137.33138 -39.15625 1 0 1
bridge_se1_metal_flat_steel_01
0 -176 -282 -6.003 -1 0 0 -39.860026 -1.604206 1 0 1
0 -176 -282 10 -1 0 0 -39.860026 -1.395833 1 0 1
0 -176 -30 10 -1 0 0 -43.141276 -1.395833 1 0 1
bridge_se1_metal_flat_steel_01
0 -176 -282 -6.003 -1 0 0 -39.860026 -1.604206 1 0 1
0 -176 -30 10 -1 0 0 -43.141276 -1.395833 1 0 1
0 -176 -30 -6.003 -1 0 0 -43.141276 -1.604206 1 0 1
bridge_se1_metal_flat_steel_01
0 -156 -282 10 1 0 0 -39.860026 3.852865 1 0 1
0 -156 -282 -5.997 1 0 0 -39.860026 4.061159 1 0 1
0 -156 -30 -5.997 1 0 0 -43.141276 4.061159 1 0 1
bridge_se1_metal_flat_steel_01
0 -156 -282 10 1 0 0 -39.860026 3.852865 1 0 1
0 -156 -30 -5.997 1 0 0 -43.141276 4.061159 1 0 1
0 -156 -30 10 1 0 0 -43.141276 3.852865 1 0 1
bridge_se1_metal_flat_steel_01
0 -160 -282 -10 0 0 -1 -39.860026 143.136068 1 0 1
0 -172 -282 -10 0 0 -1 -39.860026 143.292318 1 0 1
0 -172 -30 -10 0 0 -1 -43.141276 143.292318 1 0 1
bridge_se1_metal_flat_steel_01
0 -160 -282 -10 0 0 -1 -39.860026 143.136068 1 0 1
0 -172 -30 -10 0 0 -1 -43.141276 143.292318 1 0 1
0 -160 -30 -10 0 0 -1 -43.141276 143.136068 1 0 1
bridge_se1_metal_flat_steel_01
0 -172 -282 -10 -0.706841 0 -0.707372 -39.860026 99.321602 1 0 1
0 -176 -282 -6.003 -0.706841 0 -0.707372 -39.860026 99.39523 1 0 1
0 -176 -30 -6.003 -0.706841 0 -0.707372 -43.141276 99.39523 1 0 1
bridge_se1_metal_flat_steel_01
0 -172 -282 -10 -0.706841 0 -0.707372 -39.860026 99.321602 1 0 1
0 -176 -30 -6.003 -0.706841 0 -0.707372 -43.141276 99.39523 1 0 1
0 -172 -30 -10 -0.706841 0 -0.707372 -43.141276 99.321602 1 0 1
bridge_se1_metal_flat_steel_01
0 -156 -282 -5.997 0.707372 0 -0.706842 -39.860026 103.059871 1 0 1
0 -160 -282 -10 0.707372 0 -0.706842 -39.860026 103.133555 1 0 1
0 -160 -30 -10 0.707372 0 -0.706842 -43.141276 103.133555 1 0 1
bridge_se1_metal_flat_steel_01
0 -156 -282 -5.997 0.707372 0 -0.706842 -39.860026 103.059871 1 0 1
0 -160 -30 -10 0.707372 0 -0.706842 -43.141276 103.133555 1 0 1
0 -156 -30 -5.997 0.707372 0 -0.706842 -43.141276 103.059871 1 0 1
bridge_se1_metal_flat_steel_01
0 167 -100 148 0 1 0 -137.33138 1.434896 1 0 1
0 167 -100 138 0 1 0 -137.33138 1.565104 1 0 1
0 -166 -100 138 0 1 0 -141.667318 1.565104 1 0 1
bridge_se1_metal_flat_steel_01
0 167 -100 148 0 1 0 -137.33138 1.434896 1 0 1
0 -166 -100 138 0 1 0 -141.667318 1.565104 1 0 1
0 -166 -100 148 0 1 0 -141.667318 1.434896 1 0 1
bridge_se1_metal_flat_steel_01
0 167 -110 138 0 -1 0 -137.33138 0.694661 1 0 1
0 167 -110 148 0 -1 0 -137.33138 0.82487 1 0 1
0 -166 -110 148 0 -1 0 -141.667318 0.82487 1 0 1
bridge_se1_metal_flat_steel_01
0 167 -110 138 0 -1 0 -137.33138 0.694661 1 0 1
0 -166 -110 148 0 -1 0 -141.667318 0.82487 1 0 1
0 -166 -110 138 0 -1 0 -141.667318 0.694661 1 0 1
bridge_se1_metal_flat_steel_01
0 167 -110 138 0 0 -1 -137.33138 -41.304688 1 0 1
0 -166 -110 138 0 0 -1 -141.667318 -41.304688 1 0 1
0 -166 -100 138 0 0 -1 -141.667318 -41.434896 1 0 1
bridge_se1_metal_flat_steel_01
0 167 -110 138 0 0 -1 -137.33138 -41.304688 1 0 1
0 -166 -100 138 0 0 -1 -141.667318 -41.434896 1 0 1
0 167 -100 138 0 0 -1 -137.33138 -41.434896 1 0 1
end
