version 1
nodes
0 "root" -1
end
skeleton
time 0
0 0 0 0 0 0 0
end
triangles
phys
0 -63 162 89 0 0 1 1 0 1 0 1
0 -59 162 89 0 0 1 1 0 1 0 1
0 -59 170 89 0 0 1 1 0 1 0 1
phys
0 -63 162 89 0 0 1 1 0 1 0 1
0 -59 170 89 0 0 1 1 0 1 0 1
0 -63 170 89 0 0 1 1 0 1 0 1
phys
0 -63 170 -23 0 0 1 1 0 1 0 1
0 -63 170 89 0 0 1 1 0 1 0 1
0 -59 170 89 0 0 1 1 0 1 0 1
phys
0 -63 170 -23 0 0 1 1 0 1 0 1
0 -59 170 89 0 0 1 1 0 1 0 1
0 -59 170 -23 0 0 1 1 0 1 0 1
phys
0 -59 162 -23 0 0 1 1 0 1 0 1
0 -59 162 89 0 0 1 1 0 1 0 1
0 -63 162 89 0 0 1 1 0 1 0 1
phys
0 -59 162 -23 0 0 1 1 0 1 0 1
0 -63 162 89 0 0 1 1 0 1 0 1
0 -63 162 -23 0 0 1 1 0 1 0 1
phys
0 -63 162 -23 0 0 1 1 0 1 0 1
0 -63 162 89 0 0 1 1 0 1 0 1
0 -63 170 89 0 0 1 1 0 1 0 1
phys
0 -63 162 -23 0 0 1 1 0 1 0 1
0 -63 170 89 0 0 1 1 0 1 0 1
0 -63 170 -23 0 0 1 1 0 1 0 1
phys
0 -59 170 -23 0 0 1 1 0 1 0 1
0 -59 170 89 0 0 1 1 0 1 0 1
0 -59 162 89 0 0 1 1 0 1 0 1
phys
0 -59 170 -23 0 0 1 1 0 1 0 1
0 -59 162 89 0 0 1 1 0 1 0 1
0 -59 162 -23 0 0 1 1 0 1 0 1
phys
0 -59 162 -23 0 0 1 1 0 1 0 1
0 -63 162 -23 0 0 1 1 0 1 0 1
0 -63 170 -23 0 0 1 1 0 1 0 1
phys
0 -59 162 -23 0 0 1 1 0 1 0 1
0 -63 170 -23 0 0 1 1 0 1 0 1
0 -59 170 -23 0 0 1 1 0 1 0 1
phys
0 -7 50 -5 0 0 1 2 0 1 0 1
0 -7 50 4 0 0 1 2 0 1 0 1
0 8 50 4 0 0 1 2 0 1 0 1
phys
0 8 -50 4 0 0 1 2 0 1 0 1
0 -7 -50 4 0 0 1 2 0 1 0 1
0 -7 -50 -5 0 0 1 2 0 1 0 1
phys
0 -7 -50 -5 0 0 1 2 0 1 0 1
0 -7 -50 4 0 0 1 2 0 1 0 1
0 -7 50 4 0 0 1 2 0 1 0 1
phys
0 -7 -50 -5 0 0 1 2 0 1 0 1
0 -7 50 4 0 0 1 2 0 1 0 1
0 -7 50 -5 0 0 1 2 0 1 0 1
phys
0 -7 -50 4 0 0 1 2 0 1 0 1
0 8 -50 4 0 0 1 2 0 1 0 1
0 8 50 4 0 0 1 2 0 1 0 1
phys
0 -7 -50 4 0 0 1 2 0 1 0 1
0 8 50 4 0 0 1 2 0 1 0 1
0 -7 50 4 0 0 1 2 0 1 0 1
phys
0 8 -50 4 0 0 1 2 0 1 0 1
0 -7 -50 -5 0 0 1 2 0 1 0 1
0 -7 50 -5 0 0 1 2 0 1 0 1
phys
0 8 -50 4 0 0 1 2 0 1 0 1
0 -7 50 -5 0 0 1 2 0 1 0 1
0 8 50 4 0 0 1 2 0 1 0 1
phys
0 83 162 -86 0 0 1 3 0 1 0 1
0 83 162 -95 0 0 1 3 0 1 0 1
0 68 162 -86 0 0 1 3 0 1 0 1
phys
0 83 62 -95 0 0 1 3 0 1 0 1
0 83 62 -86 0 0 1 3 0 1 0 1
0 68 62 -86 0 0 1 3 0 1 0 1
phys
0 83 62 -86 0 0 1 3 0 1 0 1
0 83 62 -95 0 0 1 3 0 1 0 1
0 83 162 -95 0 0 1 3 0 1 0 1
phys
0 83 62 -86 0 0 1 3 0 1 0 1
0 83 162 -95 0 0 1 3 0 1 0 1
0 83 162 -86 0 0 1 3 0 1 0 1
phys
0 68 62 -86 0 0 1 3 0 1 0 1
0 83 62 -86 0 0 1 3 0 1 0 1
0 83 162 -86 0 0 1 3 0 1 0 1
phys
0 68 62 -86 0 0 1 3 0 1 0 1
0 83 162 -86 0 0 1 3 0 1 0 1
0 68 162 -86 0 0 1 3 0 1 0 1
phys
0 83 62 -95 0 0 1 3 0 1 0 1
0 68 62 -86 0 0 1 3 0 1 0 1
0 68 162 -86 0 0 1 3 0 1 0 1
phys
0 83 62 -95 0 0 1 3 0 1 0 1
0 68 162 -86 0 0 1 3 0 1 0 1
0 83 162 -95 0 0 1 3 0 1 0 1
phys
0 -111 170 224 0 0 1 4 0 1 0 1
0 -111 170 112 0 0 1 4 0 1 0 1
0 -115 170 112 0 0 1 4 0 1 0 1
phys
0 -111 170 224 0 0 1 4 0 1 0 1
0 -115 170 112 0 0 1 4 0 1 0 1
0 -115 170 224 0 0 1 4 0 1 0 1
phys
0 -111 162 112 0 0 1 4 0 1 0 1
0 -111 162 224 0 0 1 4 0 1 0 1
0 -115 162 224 0 0 1 4 0 1 0 1
phys
0 -111 162 112 0 0 1 4 0 1 0 1
0 -115 162 224 0 0 1 4 0 1 0 1
0 -115 162 112 0 0 1 4 0 1 0 1
phys
0 -115 162 112 0 0 1 4 0 1 0 1
0 -115 162 224 0 0 1 4 0 1 0 1
0 -115 170 224 0 0 1 4 0 1 0 1
phys
0 -115 162 112 0 0 1 4 0 1 0 1
0 -115 170 224 0 0 1 4 0 1 0 1
0 -115 170 112 0 0 1 4 0 1 0 1
phys
0 -111 162 224 0 0 1 4 0 1 0 1
0 -111 162 112 0 0 1 4 0 1 0 1
0 -111 170 112 0 0 1 4 0 1 0 1
phys
0 -111 162 224 0 0 1 4 0 1 0 1
0 -111 170 112 0 0 1 4 0 1 0 1
0 -111 170 224 0 0 1 4 0 1 0 1
phys
0 -111 162 112 0 0 1 4 0 1 0 1
0 -115 162 112 0 0 1 4 0 1 0 1
0 -115 170 112 0 0 1 4 0 1 0 1
phys
0 -111 162 112 0 0 1 4 0 1 0 1
0 -115 170 112 0 0 1 4 0 1 0 1
0 -111 170 112 0 0 1 4 0 1 0 1
phys
0 -115 162 224 0 0 1 4 0 1 0 1
0 -111 162 224 0 0 1 4 0 1 0 1
0 -111 170 224 0 0 1 4 0 1 0 1
phys
0 -115 162 224 0 0 1 4 0 1 0 1
0 -111 170 224 0 0 1 4 0 1 0 1
0 -115 170 224 0 0 1 4 0 1 0 1
phys
0 -22 162 -23 0 0 1 5 0 1 0 1
0 -22 162 -32 0 0 1 5 0 1 0 1
0 -37 162 -23 0 0 1 5 0 1 0 1
phys
0 -22 62 -32 0 0 1 5 0 1 0 1
0 -22 62 -23 0 0 1 5 0 1 0 1
0 -37 62 -23 0 0 1 5 0 1 0 1
phys
0 -22 62 -23 0 0 1 5 0 1 0 1
0 -22 62 -32 0 0 1 5 0 1 0 1
0 -22 162 -32 0 0 1 5 0 1 0 1
phys
0 -22 62 -23 0 0 1 5 0 1 0 1
0 -22 162 -32 0 0 1 5 0 1 0 1
0 -22 162 -23 0 0 1 5 0 1 0 1
phys
0 -37 62 -23 0 0 1 5 0 1 0 1
0 -22 62 -23 0 0 1 5 0 1 0 1
0 -22 162 -23 0 0 1 5 0 1 0 1
phys
0 -37 62 -23 0 0 1 5 0 1 0 1
0 -22 162 -23 0 0 1 5 0 1 0 1
0 -37 162 -23 0 0 1 5 0 1 0 1
phys
0 -22 62 -32 0 0 1 5 0 1 0 1
0 -37 62 -23 0 0 1 5 0 1 0 1
0 -37 162 -23 0 0 1 5 0 1 0 1
phys
0 -22 62 -32 0 0 1 5 0 1 0 1
0 -37 162 -23 0 0 1 5 0 1 0 1
0 -22 162 -32 0 0 1 5 0 1 0 1
phys
0 158 62 -140 0 0 1 6 0 1 0 1
0 158 162 -140 0 0 1 6 0 1 0 1
0 158 162 -131 0 0 1 6 0 1 0 1
phys
0 158 62 -140 0 0 1 6 0 1 0 1
0 158 162 -131 0 0 1 6 0 1 0 1
0 158 62 -131 0 0 1 6 0 1 0 1
phys
0 158 62 -131 0 0 1 6 0 1 0 1
0 158 162 -131 0 0 1 6 0 1 0 1
0 143 162 -131 0 0 1 6 0 1 0 1
phys
0 158 62 -131 0 0 1 6 0 1 0 1
0 143 162 -131 0 0 1 6 0 1 0 1
0 143 62 -131 0 0 1 6 0 1 0 1
phys
0 143 62 -131 0 0 1 6 0 1 0 1
0 143 162 -131 0 0 1 6 0 1 0 1
0 158 162 -140 0 0 1 6 0 1 0 1
phys
0 143 62 -131 0 0 1 6 0 1 0 1
0 158 162 -140 0 0 1 6 0 1 0 1
0 158 62 -140 0 0 1 6 0 1 0 1
phys
0 158 162 -131 0 0 1 6 0 1 0 1
0 158 162 -140 0 0 1 6 0 1 0 1
0 143 162 -131 0 0 1 6 0 1 0 1
phys
0 158 62 -140 0 0 1 6 0 1 0 1
0 158 62 -131 0 0 1 6 0 1 0 1
0 143 62 -131 0 0 1 6 0 1 0 1
phys
0 143 -50 85 0 0 1 7 0 1 0 1
0 128 -50 76 0 0 1 7 0 1 0 1
0 128 50 76 0 0 1 7 0 1 0 1
phys
0 143 -50 85 0 0 1 7 0 1 0 1
0 128 50 76 0 0 1 7 0 1 0 1
0 143 50 85 0 0 1 7 0 1 0 1
phys
0 143 50 85 0 0 1 7 0 1 0 1
0 128 50 76 0 0 1 7 0 1 0 1
0 128 50 85 0 0 1 7 0 1 0 1
phys
0 128 -50 85 0 0 1 7 0 1 0 1
0 128 -50 76 0 0 1 7 0 1 0 1
0 143 -50 85 0 0 1 7 0 1 0 1
phys
0 128 50 85 0 0 1 7 0 1 0 1
0 128 50 76 0 0 1 7 0 1 0 1
0 128 -50 76 0 0 1 7 0 1 0 1
phys
0 128 50 85 0 0 1 7 0 1 0 1
0 128 -50 76 0 0 1 7 0 1 0 1
0 128 -50 85 0 0 1 7 0 1 0 1
phys
0 128 -50 85 0 0 1 7 0 1 0 1
0 143 -50 85 0 0 1 7 0 1 0 1
0 143 50 85 0 0 1 7 0 1 0 1
phys
0 128 -50 85 0 0 1 7 0 1 0 1
0 143 50 85 0 0 1 7 0 1 0 1
0 128 50 85 0 0 1 7 0 1 0 1
phys
0 -22 50 -14 0 0 1 8 0 1 0 1
0 -22 50 -5 0 0 1 8 0 1 0 1
0 -7 50 -5 0 0 1 8 0 1 0 1
phys
0 -7 -50 -5 0 0 1 8 0 1 0 1
0 -22 -50 -5 0 0 1 8 0 1 0 1
0 -22 -50 -14 0 0 1 8 0 1 0 1
phys
0 -22 -50 -14 0 0 1 8 0 1 0 1
0 -22 -50 -5 0 0 1 8 0 1 0 1
0 -22 50 -5 0 0 1 8 0 1 0 1
phys
0 -22 -50 -14 0 0 1 8 0 1 0 1
0 -22 50 -5 0 0 1 8 0 1 0 1
0 -22 50 -14 0 0 1 8 0 1 0 1
phys
0 -22 -50 -5 0 0 1 8 0 1 0 1
0 -7 -50 -5 0 0 1 8 0 1 0 1
0 -7 50 -5 0 0 1 8 0 1 0 1
phys
0 -22 -50 -5 0 0 1 8 0 1 0 1
0 -7 50 -5 0 0 1 8 0 1 0 1
0 -22 50 -5 0 0 1 8 0 1 0 1
phys
0 -7 -50 -5 0 0 1 8 0 1 0 1
0 -22 -50 -14 0 0 1 8 0 1 0 1
0 -22 50 -14 0 0 1 8 0 1 0 1
phys
0 -7 -50 -5 0 0 1 8 0 1 0 1
0 -22 50 -14 0 0 1 8 0 1 0 1
0 -7 50 -5 0 0 1 8 0 1 0 1
phys
0 83 -50 58 0 0 1 9 0 1 0 1
0 83 50 58 0 0 1 9 0 1 0 1
0 83 50 49 0 0 1 9 0 1 0 1
phys
0 83 -50 58 0 0 1 9 0 1 0 1
0 83 50 49 0 0 1 9 0 1 0 1
0 83 -50 49 0 0 1 9 0 1 0 1
phys
0 98 -50 58 0 0 1 9 0 1 0 1
0 98 50 58 0 0 1 9 0 1 0 1
0 83 50 58 0 0 1 9 0 1 0 1
phys
0 98 -50 58 0 0 1 9 0 1 0 1
0 83 50 58 0 0 1 9 0 1 0 1
0 83 -50 58 0 0 1 9 0 1 0 1
phys
0 83 -50 49 0 0 1 9 0 1 0 1
0 83 50 49 0 0 1 9 0 1 0 1
0 98 50 58 0 0 1 9 0 1 0 1
phys
0 83 -50 49 0 0 1 9 0 1 0 1
0 98 50 58 0 0 1 9 0 1 0 1
0 98 -50 58 0 0 1 9 0 1 0 1
phys
0 83 50 49 0 0 1 9 0 1 0 1
0 83 50 58 0 0 1 9 0 1 0 1
0 98 50 58 0 0 1 9 0 1 0 1
phys
0 98 -50 58 0 0 1 9 0 1 0 1
0 83 -50 58 0 0 1 9 0 1 0 1
0 83 -50 49 0 0 1 9 0 1 0 1
phys
0 23 50 13 0 0 1 10 0 1 0 1
0 23 50 22 0 0 1 10 0 1 0 1
0 38 50 22 0 0 1 10 0 1 0 1
phys
0 38 -50 22 0 0 1 10 0 1 0 1
0 23 -50 22 0 0 1 10 0 1 0 1
0 23 -50 13 0 0 1 10 0 1 0 1
phys
0 23 -50 13 0 0 1 10 0 1 0 1
0 23 -50 22 0 0 1 10 0 1 0 1
0 23 50 22 0 0 1 10 0 1 0 1
phys
0 23 -50 13 0 0 1 10 0 1 0 1
0 23 50 22 0 0 1 10 0 1 0 1
0 23 50 13 0 0 1 10 0 1 0 1
phys
0 23 -50 22 0 0 1 10 0 1 0 1
0 38 -50 22 0 0 1 10 0 1 0 1
0 38 50 22 0 0 1 10 0 1 0 1
phys
0 23 -50 22 0 0 1 10 0 1 0 1
0 38 50 22 0 0 1 10 0 1 0 1
0 23 50 22 0 0 1 10 0 1 0 1
phys
0 38 -50 22 0 0 1 10 0 1 0 1
0 23 -50 13 0 0 1 10 0 1 0 1
0 23 50 13 0 0 1 10 0 1 0 1
phys
0 38 -50 22 0 0 1 10 0 1 0 1
0 23 50 13 0 0 1 10 0 1 0 1
0 38 50 22 0 0 1 10 0 1 0 1
phys
0 23 162 -50 0 0 1 11 0 1 0 1
0 23 162 -59 0 0 1 11 0 1 0 1
0 8 162 -50 0 0 1 11 0 1 0 1
phys
0 23 62 -59 0 0 1 11 0 1 0 1
0 23 62 -50 0 0 1 11 0 1 0 1
0 8 62 -50 0 0 1 11 0 1 0 1
phys
0 23 62 -50 0 0 1 11 0 1 0 1
0 23 62 -59 0 0 1 11 0 1 0 1
0 23 162 -59 0 0 1 11 0 1 0 1
phys
0 23 62 -50 0 0 1 11 0 1 0 1
0 23 162 -59 0 0 1 11 0 1 0 1
0 23 162 -50 0 0 1 11 0 1 0 1
phys
0 8 62 -50 0 0 1 11 0 1 0 1
0 23 62 -50 0 0 1 11 0 1 0 1
0 23 162 -50 0 0 1 11 0 1 0 1
phys
0 8 62 -50 0 0 1 11 0 1 0 1
0 23 162 -50 0 0 1 11 0 1 0 1
0 8 162 -50 0 0 1 11 0 1 0 1
phys
0 23 62 -59 0 0 1 11 0 1 0 1
0 8 62 -50 0 0 1 11 0 1 0 1
0 8 162 -50 0 0 1 11 0 1 0 1
phys
0 23 62 -59 0 0 1 11 0 1 0 1
0 8 162 -50 0 0 1 11 0 1 0 1
0 23 162 -59 0 0 1 11 0 1 0 1
phys
0 68 162 -77 0 0 1 12 0 1 0 1
0 68 162 -86 0 0 1 12 0 1 0 1
0 53 162 -77 0 0 1 12 0 1 0 1
phys
0 68 62 -86 0 0 1 12 0 1 0 1
0 68 62 -77 0 0 1 12 0 1 0 1
0 53 62 -77 0 0 1 12 0 1 0 1
phys
0 68 62 -77 0 0 1 12 0 1 0 1
0 68 62 -86 0 0 1 12 0 1 0 1
0 68 162 -86 0 0 1 12 0 1 0 1
phys
0 68 62 -77 0 0 1 12 0 1 0 1
0 68 162 -86 0 0 1 12 0 1 0 1
0 68 162 -77 0 0 1 12 0 1 0 1
phys
0 53 62 -77 0 0 1 12 0 1 0 1
0 68 62 -77 0 0 1 12 0 1 0 1
0 68 162 -77 0 0 1 12 0 1 0 1
phys
0 53 62 -77 0 0 1 12 0 1 0 1
0 68 162 -77 0 0 1 12 0 1 0 1
0 53 162 -77 0 0 1 12 0 1 0 1
phys
0 68 62 -86 0 0 1 12 0 1 0 1
0 53 62 -77 0 0 1 12 0 1 0 1
0 53 162 -77 0 0 1 12 0 1 0 1
phys
0 68 62 -86 0 0 1 12 0 1 0 1
0 53 162 -77 0 0 1 12 0 1 0 1
0 68 162 -86 0 0 1 12 0 1 0 1
phys
0 113 162 -104 0 0 1 13 0 1 0 1
0 113 162 -113 0 0 1 13 0 1 0 1
0 98 162 -104 0 0 1 13 0 1 0 1
phys
0 113 62 -113 0 0 1 13 0 1 0 1
0 113 62 -104 0 0 1 13 0 1 0 1
0 98 62 -104 0 0 1 13 0 1 0 1
phys
0 113 62 -104 0 0 1 13 0 1 0 1
0 113 62 -113 0 0 1 13 0 1 0 1
0 113 162 -113 0 0 1 13 0 1 0 1
phys
0 113 62 -104 0 0 1 13 0 1 0 1
0 113 162 -113 0 0 1 13 0 1 0 1
0 113 162 -104 0 0 1 13 0 1 0 1
phys
0 98 62 -104 0 0 1 13 0 1 0 1
0 113 62 -104 0 0 1 13 0 1 0 1
0 113 162 -104 0 0 1 13 0 1 0 1
phys
0 98 62 -104 0 0 1 13 0 1 0 1
0 113 162 -104 0 0 1 13 0 1 0 1
0 98 162 -104 0 0 1 13 0 1 0 1
phys
0 113 62 -113 0 0 1 13 0 1 0 1
0 98 62 -104 0 0 1 13 0 1 0 1
0 98 162 -104 0 0 1 13 0 1 0 1
phys
0 113 62 -113 0 0 1 13 0 1 0 1
0 98 162 -104 0 0 1 13 0 1 0 1
0 113 162 -113 0 0 1 13 0 1 0 1
phys
0 8 162 -41 0 0 1 14 0 1 0 1
0 8 162 -50 0 0 1 14 0 1 0 1
0 -7 162 -41 0 0 1 14 0 1 0 1
phys
0 8 62 -50 0 0 1 14 0 1 0 1
0 8 62 -41 0 0 1 14 0 1 0 1
0 -7 62 -41 0 0 1 14 0 1 0 1
phys
0 8 62 -41 0 0 1 14 0 1 0 1
0 8 62 -50 0 0 1 14 0 1 0 1
0 8 162 -50 0 0 1 14 0 1 0 1
phys
0 8 62 -41 0 0 1 14 0 1 0 1
0 8 162 -50 0 0 1 14 0 1 0 1
0 8 162 -41 0 0 1 14 0 1 0 1
phys
0 -7 62 -41 0 0 1 14 0 1 0 1
0 8 62 -41 0 0 1 14 0 1 0 1
0 8 162 -41 0 0 1 14 0 1 0 1
phys
0 -7 62 -41 0 0 1 14 0 1 0 1
0 8 162 -41 0 0 1 14 0 1 0 1
0 -7 162 -41 0 0 1 14 0 1 0 1
phys
0 8 62 -50 0 0 1 14 0 1 0 1
0 -7 62 -41 0 0 1 14 0 1 0 1
0 -7 162 -41 0 0 1 14 0 1 0 1
phys
0 8 62 -50 0 0 1 14 0 1 0 1
0 -7 162 -41 0 0 1 14 0 1 0 1
0 8 162 -50 0 0 1 14 0 1 0 1
phys
0 173 162 -140 0 0 1 15 0 1 0 1
0 173 162 -149 0 0 1 15 0 1 0 1
0 158 162 -140 0 0 1 15 0 1 0 1
phys
0 173 62 -149 0 0 1 15 0 1 0 1
0 173 62 -140 0 0 1 15 0 1 0 1
0 158 62 -140 0 0 1 15 0 1 0 1
phys
0 173 62 -140 0 0 1 15 0 1 0 1
0 173 62 -149 0 0 1 15 0 1 0 1
0 173 162 -149 0 0 1 15 0 1 0 1
phys
0 173 62 -140 0 0 1 15 0 1 0 1
0 173 162 -149 0 0 1 15 0 1 0 1
0 173 162 -140 0 0 1 15 0 1 0 1
phys
0 158 62 -140 0 0 1 15 0 1 0 1
0 173 62 -140 0 0 1 15 0 1 0 1
0 173 162 -140 0 0 1 15 0 1 0 1
phys
0 158 62 -140 0 0 1 15 0 1 0 1
0 173 162 -140 0 0 1 15 0 1 0 1
0 158 162 -140 0 0 1 15 0 1 0 1
phys
0 173 62 -149 0 0 1 15 0 1 0 1
0 158 62 -140 0 0 1 15 0 1 0 1
0 158 162 -140 0 0 1 15 0 1 0 1
phys
0 173 62 -149 0 0 1 15 0 1 0 1
0 158 162 -140 0 0 1 15 0 1 0 1
0 173 162 -149 0 0 1 15 0 1 0 1
phys
0 38 -50 31 0 0 1 16 0 1 0 1
0 38 50 31 0 0 1 16 0 1 0 1
0 38 50 22 0 0 1 16 0 1 0 1
phys
0 38 -50 31 0 0 1 16 0 1 0 1
0 38 50 22 0 0 1 16 0 1 0 1
0 38 -50 22 0 0 1 16 0 1 0 1
phys
0 53 -50 31 0 0 1 16 0 1 0 1
0 53 50 31 0 0 1 16 0 1 0 1
0 38 50 31 0 0 1 16 0 1 0 1
phys
0 53 -50 31 0 0 1 16 0 1 0 1
0 38 50 31 0 0 1 16 0 1 0 1
0 38 -50 31 0 0 1 16 0 1 0 1
phys
0 38 -50 22 0 0 1 16 0 1 0 1
0 38 50 22 0 0 1 16 0 1 0 1
0 53 50 31 0 0 1 16 0 1 0 1
phys
0 38 -50 22 0 0 1 16 0 1 0 1
0 53 50 31 0 0 1 16 0 1 0 1
0 53 -50 31 0 0 1 16 0 1 0 1
phys
0 38 50 22 0 0 1 16 0 1 0 1
0 38 50 31 0 0 1 16 0 1 0 1
0 53 50 31 0 0 1 16 0 1 0 1
phys
0 53 -50 31 0 0 1 16 0 1 0 1
0 38 -50 31 0 0 1 16 0 1 0 1
0 38 -50 22 0 0 1 16 0 1 0 1
phys
0 158 50 94 0 0 1 17 0 1 0 1
0 158 50 103 0 0 1 17 0 1 0 1
0 173 50 103 0 0 1 17 0 1 0 1
phys
0 173 -50 103 0 0 1 17 0 1 0 1
0 158 -50 103 0 0 1 17 0 1 0 1
0 158 -50 94 0 0 1 17 0 1 0 1
phys
0 158 -50 94 0 0 1 17 0 1 0 1
0 158 -50 103 0 0 1 17 0 1 0 1
0 158 50 103 0 0 1 17 0 1 0 1
phys
0 158 -50 94 0 0 1 17 0 1 0 1
0 158 50 103 0 0 1 17 0 1 0 1
0 158 50 94 0 0 1 17 0 1 0 1
phys
0 158 -50 103 0 0 1 17 0 1 0 1
0 173 -50 103 0 0 1 17 0 1 0 1
0 173 50 103 0 0 1 17 0 1 0 1
phys
0 158 -50 103 0 0 1 17 0 1 0 1
0 173 50 103 0 0 1 17 0 1 0 1
0 158 50 103 0 0 1 17 0 1 0 1
phys
0 173 -50 103 0 0 1 17 0 1 0 1
0 158 -50 94 0 0 1 17 0 1 0 1
0 158 50 94 0 0 1 17 0 1 0 1
phys
0 173 -50 103 0 0 1 17 0 1 0 1
0 158 50 94 0 0 1 17 0 1 0 1
0 173 50 103 0 0 1 17 0 1 0 1
phys
0 113 50 67 0 0 1 18 0 1 0 1
0 113 50 76 0 0 1 18 0 1 0 1
0 128 50 76 0 0 1 18 0 1 0 1
phys
0 128 -50 76 0 0 1 18 0 1 0 1
0 113 -50 76 0 0 1 18 0 1 0 1
0 113 -50 67 0 0 1 18 0 1 0 1
phys
0 113 -50 67 0 0 1 18 0 1 0 1
0 113 -50 76 0 0 1 18 0 1 0 1
0 113 50 76 0 0 1 18 0 1 0 1
phys
0 113 -50 67 0 0 1 18 0 1 0 1
0 113 50 76 0 0 1 18 0 1 0 1
0 113 50 67 0 0 1 18 0 1 0 1
phys
0 113 -50 76 0 0 1 18 0 1 0 1
0 128 -50 76 0 0 1 18 0 1 0 1
0 128 50 76 0 0 1 18 0 1 0 1
phys
0 113 -50 76 0 0 1 18 0 1 0 1
0 128 50 76 0 0 1 18 0 1 0 1
0 113 50 76 0 0 1 18 0 1 0 1
phys
0 128 -50 76 0 0 1 18 0 1 0 1
0 113 -50 67 0 0 1 18 0 1 0 1
0 113 50 67 0 0 1 18 0 1 0 1
phys
0 128 -50 76 0 0 1 18 0 1 0 1
0 113 50 67 0 0 1 18 0 1 0 1
0 128 50 76 0 0 1 18 0 1 0 1
phys
0 8 -50 13 0 0 1 19 0 1 0 1
0 8 50 13 0 0 1 19 0 1 0 1
0 8 50 4 0 0 1 19 0 1 0 1
phys
0 8 -50 13 0 0 1 19 0 1 0 1
0 8 50 4 0 0 1 19 0 1 0 1
0 8 -50 4 0 0 1 19 0 1 0 1
phys
0 23 -50 13 0 0 1 19 0 1 0 1
0 23 50 13 0 0 1 19 0 1 0 1
0 8 50 13 0 0 1 19 0 1 0 1
phys
0 23 -50 13 0 0 1 19 0 1 0 1
0 8 50 13 0 0 1 19 0 1 0 1
0 8 -50 13 0 0 1 19 0 1 0 1
phys
0 8 -50 4 0 0 1 19 0 1 0 1
0 8 50 4 0 0 1 19 0 1 0 1
0 23 50 13 0 0 1 19 0 1 0 1
phys
0 8 -50 4 0 0 1 19 0 1 0 1
0 23 50 13 0 0 1 19 0 1 0 1
0 23 -50 13 0 0 1 19 0 1 0 1
phys
0 8 50 4 0 0 1 19 0 1 0 1
0 8 50 13 0 0 1 19 0 1 0 1
0 23 50 13 0 0 1 19 0 1 0 1
phys
0 23 -50 13 0 0 1 19 0 1 0 1
0 8 -50 13 0 0 1 19 0 1 0 1
0 8 -50 4 0 0 1 19 0 1 0 1
phys
0 -63 170 89 0 0 1 20 0 1 0 1
0 -63 170 85 0 0 1 20 0 1 0 1
0 -111 170 85 0 0 1 20 0 1 0 1
phys
0 -63 170 89 0 0 1 20 0 1 0 1
0 -111 170 85 0 0 1 20 0 1 0 1
0 -111 170 89 0 0 1 20 0 1 0 1
phys
0 -63 162 85 0 0 1 20 0 1 0 1
0 -63 162 89 0 0 1 20 0 1 0 1
0 -111 162 89 0 0 1 20 0 1 0 1
phys
0 -63 162 85 0 0 1 20 0 1 0 1
0 -111 162 89 0 0 1 20 0 1 0 1
0 -111 162 85 0 0 1 20 0 1 0 1
phys
0 -111 162 85 0 0 1 20 0 1 0 1
0 -111 162 89 0 0 1 20 0 1 0 1
0 -111 170 89 0 0 1 20 0 1 0 1
phys
0 -111 162 85 0 0 1 20 0 1 0 1
0 -111 170 89 0 0 1 20 0 1 0 1
0 -111 170 85 0 0 1 20 0 1 0 1
phys
0 -63 162 89 0 0 1 20 0 1 0 1
0 -63 162 85 0 0 1 20 0 1 0 1
0 -63 170 85 0 0 1 20 0 1 0 1
phys
0 -63 162 89 0 0 1 20 0 1 0 1
0 -63 170 85 0 0 1 20 0 1 0 1
0 -63 170 89 0 0 1 20 0 1 0 1
phys
0 -63 162 85 0 0 1 20 0 1 0 1
0 -111 162 85 0 0 1 20 0 1 0 1
0 -111 170 85 0 0 1 20 0 1 0 1
phys
0 -63 162 85 0 0 1 20 0 1 0 1
0 -111 170 85 0 0 1 20 0 1 0 1
0 -63 170 85 0 0 1 20 0 1 0 1
phys
0 -111 162 89 0 0 1 20 0 1 0 1
0 -63 162 89 0 0 1 20 0 1 0 1
0 -63 170 89 0 0 1 20 0 1 0 1
phys
0 -111 162 89 0 0 1 20 0 1 0 1
0 -63 170 89 0 0 1 20 0 1 0 1
0 -111 170 89 0 0 1 20 0 1 0 1
phys
0 173 -50 112 0 0 1 21 0 1 0 1
0 188 -50 112 0 0 1 21 0 1 0 1
0 188 50 112 0 0 1 21 0 1 0 1
phys
0 173 -50 112 0 0 1 21 0 1 0 1
0 188 50 112 0 0 1 21 0 1 0 1
0 173 50 112 0 0 1 21 0 1 0 1
phys
0 173 50 103 0 0 1 21 0 1 0 1
0 188 50 112 0 0 1 21 0 1 0 1
0 188 -50 112 0 0 1 21 0 1 0 1
phys
0 173 50 103 0 0 1 21 0 1 0 1
0 188 -50 112 0 0 1 21 0 1 0 1
0 173 -50 103 0 0 1 21 0 1 0 1
phys
0 173 50 112 0 0 1 21 0 1 0 1
0 188 50 112 0 0 1 21 0 1 0 1
0 173 50 103 0 0 1 21 0 1 0 1
phys
0 188 -50 112 0 0 1 21 0 1 0 1
0 173 -50 112 0 0 1 21 0 1 0 1
0 173 -50 103 0 0 1 21 0 1 0 1
phys
0 173 -50 112 0 0 1 21 0 1 0 1
0 173 50 112 0 0 1 21 0 1 0 1
0 173 50 103 0 0 1 21 0 1 0 1
phys
0 173 -50 112 0 0 1 21 0 1 0 1
0 173 50 103 0 0 1 21 0 1 0 1
0 173 -50 103 0 0 1 21 0 1 0 1
phys
0 -111 170 89 0 0 1 22 0 1 0 1
0 -111 170 -23 0 0 1 22 0 1 0 1
0 -115 170 -23 0 0 1 22 0 1 0 1
phys
0 -111 170 89 0 0 1 22 0 1 0 1
0 -115 170 -23 0 0 1 22 0 1 0 1
0 -115 170 89 0 0 1 22 0 1 0 1
phys
0 -111 162 -23 0 0 1 22 0 1 0 1
0 -111 162 89 0 0 1 22 0 1 0 1
0 -115 162 89 0 0 1 22 0 1 0 1
phys
0 -111 162 -23 0 0 1 22 0 1 0 1
0 -115 162 89 0 0 1 22 0 1 0 1
0 -115 162 -23 0 0 1 22 0 1 0 1
phys
0 -115 162 -23 0 0 1 22 0 1 0 1
0 -115 162 89 0 0 1 22 0 1 0 1
0 -115 170 89 0 0 1 22 0 1 0 1
phys
0 -115 162 -23 0 0 1 22 0 1 0 1
0 -115 170 89 0 0 1 22 0 1 0 1
0 -115 170 -23 0 0 1 22 0 1 0 1
phys
0 -111 162 89 0 0 1 22 0 1 0 1
0 -111 162 -23 0 0 1 22 0 1 0 1
0 -111 170 -23 0 0 1 22 0 1 0 1
phys
0 -111 162 89 0 0 1 22 0 1 0 1
0 -111 170 -23 0 0 1 22 0 1 0 1
0 -111 170 89 0 0 1 22 0 1 0 1
phys
0 -111 162 -23 0 0 1 22 0 1 0 1
0 -115 162 -23 0 0 1 22 0 1 0 1
0 -115 170 -23 0 0 1 22 0 1 0 1
phys
0 -111 162 -23 0 0 1 22 0 1 0 1
0 -115 170 -23 0 0 1 22 0 1 0 1
0 -111 170 -23 0 0 1 22 0 1 0 1
phys
0 -115 162 89 0 0 1 22 0 1 0 1
0 -111 162 89 0 0 1 22 0 1 0 1
0 -111 170 89 0 0 1 22 0 1 0 1
phys
0 -115 162 89 0 0 1 22 0 1 0 1
0 -111 170 89 0 0 1 22 0 1 0 1
0 -115 170 89 0 0 1 22 0 1 0 1
phys
0 53 162 -68 0 0 1 23 0 1 0 1
0 38 162 -68 0 0 1 23 0 1 0 1
0 38 62 -68 0 0 1 23 0 1 0 1
phys
0 53 162 -68 0 0 1 23 0 1 0 1
0 38 62 -68 0 0 1 23 0 1 0 1
0 53 62 -68 0 0 1 23 0 1 0 1
phys
0 53 62 -77 0 0 1 23 0 1 0 1
0 38 62 -68 0 0 1 23 0 1 0 1
0 38 162 -68 0 0 1 23 0 1 0 1
phys
0 53 62 -77 0 0 1 23 0 1 0 1
0 38 162 -68 0 0 1 23 0 1 0 1
0 53 162 -77 0 0 1 23 0 1 0 1
phys
0 53 162 -77 0 0 1 23 0 1 0 1
0 38 162 -68 0 0 1 23 0 1 0 1
0 53 162 -68 0 0 1 23 0 1 0 1
phys
0 53 62 -68 0 0 1 23 0 1 0 1
0 38 62 -68 0 0 1 23 0 1 0 1
0 53 62 -77 0 0 1 23 0 1 0 1
phys
0 53 62 -77 0 0 1 23 0 1 0 1
0 53 162 -77 0 0 1 23 0 1 0 1
0 53 162 -68 0 0 1 23 0 1 0 1
phys
0 53 62 -77 0 0 1 23 0 1 0 1
0 53 162 -68 0 0 1 23 0 1 0 1
0 53 62 -68 0 0 1 23 0 1 0 1
phys
0 143 162 -122 0 0 1 24 0 1 0 1
0 143 162 -131 0 0 1 24 0 1 0 1
0 128 162 -122 0 0 1 24 0 1 0 1
phys
0 143 62 -131 0 0 1 24 0 1 0 1
0 143 62 -122 0 0 1 24 0 1 0 1
0 128 62 -122 0 0 1 24 0 1 0 1
phys
0 143 62 -122 0 0 1 24 0 1 0 1
0 143 62 -131 0 0 1 24 0 1 0 1
0 143 162 -131 0 0 1 24 0 1 0 1
phys
0 143 62 -122 0 0 1 24 0 1 0 1
0 143 162 -131 0 0 1 24 0 1 0 1
0 143 162 -122 0 0 1 24 0 1 0 1
phys
0 128 62 -122 0 0 1 24 0 1 0 1
0 143 62 -122 0 0 1 24 0 1 0 1
0 143 162 -122 0 0 1 24 0 1 0 1
phys
0 128 62 -122 0 0 1 24 0 1 0 1
0 143 162 -122 0 0 1 24 0 1 0 1
0 128 162 -122 0 0 1 24 0 1 0 1
phys
0 143 62 -131 0 0 1 24 0 1 0 1
0 128 62 -122 0 0 1 24 0 1 0 1
0 128 162 -122 0 0 1 24 0 1 0 1
phys
0 143 62 -131 0 0 1 24 0 1 0 1
0 128 162 -122 0 0 1 24 0 1 0 1
0 143 162 -131 0 0 1 24 0 1 0 1
phys
0 98 50 58 0 0 1 25 0 1 0 1
0 98 50 67 0 0 1 25 0 1 0 1
0 113 50 67 0 0 1 25 0 1 0 1
phys
0 113 -50 67 0 0 1 25 0 1 0 1
0 98 -50 67 0 0 1 25 0 1 0 1
0 98 -50 58 0 0 1 25 0 1 0 1
phys
0 98 -50 58 0 0 1 25 0 1 0 1
0 98 -50 67 0 0 1 25 0 1 0 1
0 98 50 67 0 0 1 25 0 1 0 1
phys
0 98 -50 58 0 0 1 25 0 1 0 1
0 98 50 67 0 0 1 25 0 1 0 1
0 98 50 58 0 0 1 25 0 1 0 1
phys
0 98 -50 67 0 0 1 25 0 1 0 1
0 113 -50 67 0 0 1 25 0 1 0 1
0 113 50 67 0 0 1 25 0 1 0 1
phys
0 98 -50 67 0 0 1 25 0 1 0 1
0 113 50 67 0 0 1 25 0 1 0 1
0 98 50 67 0 0 1 25 0 1 0 1
phys
0 113 -50 67 0 0 1 25 0 1 0 1
0 98 -50 58 0 0 1 25 0 1 0 1
0 98 50 58 0 0 1 25 0 1 0 1
phys
0 113 -50 67 0 0 1 25 0 1 0 1
0 98 50 58 0 0 1 25 0 1 0 1
0 113 50 67 0 0 1 25 0 1 0 1
phys
0 38 162 -59 0 0 1 26 0 1 0 1
0 23 162 -59 0 0 1 26 0 1 0 1
0 23 62 -59 0 0 1 26 0 1 0 1
phys
0 38 162 -59 0 0 1 26 0 1 0 1
0 23 62 -59 0 0 1 26 0 1 0 1
0 38 62 -59 0 0 1 26 0 1 0 1
phys
0 38 62 -68 0 0 1 26 0 1 0 1
0 23 62 -59 0 0 1 26 0 1 0 1
0 23 162 -59 0 0 1 26 0 1 0 1
phys
0 38 62 -68 0 0 1 26 0 1 0 1
0 23 162 -59 0 0 1 26 0 1 0 1
0 38 162 -68 0 0 1 26 0 1 0 1
phys
0 38 162 -68 0 0 1 26 0 1 0 1
0 23 162 -59 0 0 1 26 0 1 0 1
0 38 162 -59 0 0 1 26 0 1 0 1
phys
0 38 62 -59 0 0 1 26 0 1 0 1
0 23 62 -59 0 0 1 26 0 1 0 1
0 38 62 -68 0 0 1 26 0 1 0 1
phys
0 38 62 -68 0 0 1 26 0 1 0 1
0 38 162 -68 0 0 1 26 0 1 0 1
0 38 162 -59 0 0 1 26 0 1 0 1
phys
0 38 62 -68 0 0 1 26 0 1 0 1
0 38 162 -59 0 0 1 26 0 1 0 1
0 38 62 -59 0 0 1 26 0 1 0 1
phys
0 143 50 85 0 0 1 27 0 1 0 1
0 143 50 94 0 0 1 27 0 1 0 1
0 158 50 94 0 0 1 27 0 1 0 1
phys
0 158 -50 94 0 0 1 27 0 1 0 1
0 143 -50 94 0 0 1 27 0 1 0 1
0 143 -50 85 0 0 1 27 0 1 0 1
phys
0 143 -50 85 0 0 1 27 0 1 0 1
0 143 -50 94 0 0 1 27 0 1 0 1
0 143 50 94 0 0 1 27 0 1 0 1
phys
0 143 -50 85 0 0 1 27 0 1 0 1
0 143 50 94 0 0 1 27 0 1 0 1
0 143 50 85 0 0 1 27 0 1 0 1
phys
0 143 -50 94 0 0 1 27 0 1 0 1
0 158 -50 94 0 0 1 27 0 1 0 1
0 158 50 94 0 0 1 27 0 1 0 1
phys
0 143 -50 94 0 0 1 27 0 1 0 1
0 158 50 94 0 0 1 27 0 1 0 1
0 143 50 94 0 0 1 27 0 1 0 1
phys
0 158 -50 94 0 0 1 27 0 1 0 1
0 143 -50 85 0 0 1 27 0 1 0 1
0 143 50 85 0 0 1 27 0 1 0 1
phys
0 158 -50 94 0 0 1 27 0 1 0 1
0 143 50 85 0 0 1 27 0 1 0 1
0 158 50 94 0 0 1 27 0 1 0 1
phys
0 53 50 31 0 0 1 28 0 1 0 1
0 53 50 40 0 0 1 28 0 1 0 1
0 68 50 40 0 0 1 28 0 1 0 1
phys
0 68 -50 40 0 0 1 28 0 1 0 1
0 53 -50 40 0 0 1 28 0 1 0 1
0 53 -50 31 0 0 1 28 0 1 0 1
phys
0 53 -50 31 0 0 1 28 0 1 0 1
0 53 -50 40 0 0 1 28 0 1 0 1
0 53 50 40 0 0 1 28 0 1 0 1
phys
0 53 -50 31 0 0 1 28 0 1 0 1
0 53 50 40 0 0 1 28 0 1 0 1
0 53 50 31 0 0 1 28 0 1 0 1
phys
0 53 -50 40 0 0 1 28 0 1 0 1
0 68 -50 40 0 0 1 28 0 1 0 1
0 68 50 40 0 0 1 28 0 1 0 1
phys
0 53 -50 40 0 0 1 28 0 1 0 1
0 68 50 40 0 0 1 28 0 1 0 1
0 53 50 40 0 0 1 28 0 1 0 1
phys
0 68 -50 40 0 0 1 28 0 1 0 1
0 53 -50 31 0 0 1 28 0 1 0 1
0 53 50 31 0 0 1 28 0 1 0 1
phys
0 68 -50 40 0 0 1 28 0 1 0 1
0 53 50 31 0 0 1 28 0 1 0 1
0 68 50 40 0 0 1 28 0 1 0 1
phys
0 98 162 -95 0 0 1 29 0 1 0 1
0 83 162 -95 0 0 1 29 0 1 0 1
0 83 62 -95 0 0 1 29 0 1 0 1
phys
0 98 162 -95 0 0 1 29 0 1 0 1
0 83 62 -95 0 0 1 29 0 1 0 1
0 98 62 -95 0 0 1 29 0 1 0 1
phys
0 98 62 -104 0 0 1 29 0 1 0 1
0 83 62 -95 0 0 1 29 0 1 0 1
0 83 162 -95 0 0 1 29 0 1 0 1
phys
0 98 62 -104 0 0 1 29 0 1 0 1
0 83 162 -95 0 0 1 29 0 1 0 1
0 98 162 -104 0 0 1 29 0 1 0 1
phys
0 98 162 -104 0 0 1 29 0 1 0 1
0 83 162 -95 0 0 1 29 0 1 0 1
0 98 162 -95 0 0 1 29 0 1 0 1
phys
0 98 62 -95 0 0 1 29 0 1 0 1
0 83 62 -95 0 0 1 29 0 1 0 1
0 98 62 -104 0 0 1 29 0 1 0 1
phys
0 98 62 -104 0 0 1 29 0 1 0 1
0 98 162 -104 0 0 1 29 0 1 0 1
0 98 162 -95 0 0 1 29 0 1 0 1
phys
0 98 62 -104 0 0 1 29 0 1 0 1
0 98 162 -95 0 0 1 29 0 1 0 1
0 98 62 -95 0 0 1 29 0 1 0 1
phys
0 68 50 40 0 0 1 30 0 1 0 1
0 68 50 49 0 0 1 30 0 1 0 1
0 83 50 49 0 0 1 30 0 1 0 1
phys
0 83 -50 49 0 0 1 30 0 1 0 1
0 68 -50 49 0 0 1 30 0 1 0 1
0 68 -50 40 0 0 1 30 0 1 0 1
phys
0 68 -50 40 0 0 1 30 0 1 0 1
0 68 -50 49 0 0 1 30 0 1 0 1
0 68 50 49 0 0 1 30 0 1 0 1
phys
0 68 -50 40 0 0 1 30 0 1 0 1
0 68 50 49 0 0 1 30 0 1 0 1
0 68 50 40 0 0 1 30 0 1 0 1
phys
0 68 -50 49 0 0 1 30 0 1 0 1
0 83 -50 49 0 0 1 30 0 1 0 1
0 83 50 49 0 0 1 30 0 1 0 1
phys
0 68 -50 49 0 0 1 30 0 1 0 1
0 83 50 49 0 0 1 30 0 1 0 1
0 68 50 49 0 0 1 30 0 1 0 1
phys
0 83 -50 49 0 0 1 30 0 1 0 1
0 68 -50 40 0 0 1 30 0 1 0 1
0 68 50 40 0 0 1 30 0 1 0 1
phys
0 83 -50 49 0 0 1 30 0 1 0 1
0 68 50 40 0 0 1 30 0 1 0 1
0 83 50 49 0 0 1 30 0 1 0 1
phys
0 188 62 -158 0 0 1 31 0 1 0 1
0 188 162 -158 0 0 1 31 0 1 0 1
0 188 162 -149 0 0 1 31 0 1 0 1
phys
0 188 62 -158 0 0 1 31 0 1 0 1
0 188 162 -149 0 0 1 31 0 1 0 1
0 188 62 -149 0 0 1 31 0 1 0 1
phys
0 188 62 -149 0 0 1 31 0 1 0 1
0 188 162 -149 0 0 1 31 0 1 0 1
0 173 162 -149 0 0 1 31 0 1 0 1
phys
0 188 62 -149 0 0 1 31 0 1 0 1
0 173 162 -149 0 0 1 31 0 1 0 1
0 173 62 -149 0 0 1 31 0 1 0 1
phys
0 173 62 -149 0 0 1 31 0 1 0 1
0 173 162 -149 0 0 1 31 0 1 0 1
0 188 162 -158 0 0 1 31 0 1 0 1
phys
0 173 62 -149 0 0 1 31 0 1 0 1
0 188 162 -158 0 0 1 31 0 1 0 1
0 188 62 -158 0 0 1 31 0 1 0 1
phys
0 188 162 -149 0 0 1 31 0 1 0 1
0 188 162 -158 0 0 1 31 0 1 0 1
0 173 162 -149 0 0 1 31 0 1 0 1
phys
0 188 62 -158 0 0 1 31 0 1 0 1
0 188 62 -149 0 0 1 31 0 1 0 1
0 173 62 -149 0 0 1 31 0 1 0 1
phys
0 -37 50 -23 0 0 1 32 0 1 0 1
0 -37 50 -14 0 0 1 32 0 1 0 1
0 -22 50 -14 0 0 1 32 0 1 0 1
phys
0 -22 -50 -14 0 0 1 32 0 1 0 1
0 -37 -50 -14 0 0 1 32 0 1 0 1
0 -37 -50 -23 0 0 1 32 0 1 0 1
phys
0 -37 -50 -23 0 0 1 32 0 1 0 1
0 -37 -50 -14 0 0 1 32 0 1 0 1
0 -37 50 -14 0 0 1 32 0 1 0 1
phys
0 -37 -50 -23 0 0 1 32 0 1 0 1
0 -37 50 -14 0 0 1 32 0 1 0 1
0 -37 50 -23 0 0 1 32 0 1 0 1
phys
0 -37 -50 -14 0 0 1 32 0 1 0 1
0 -22 -50 -14 0 0 1 32 0 1 0 1
0 -22 50 -14 0 0 1 32 0 1 0 1
phys
0 -37 -50 -14 0 0 1 32 0 1 0 1
0 -22 50 -14 0 0 1 32 0 1 0 1
0 -37 50 -14 0 0 1 32 0 1 0 1
phys
0 -22 -50 -14 0 0 1 32 0 1 0 1
0 -37 -50 -23 0 0 1 32 0 1 0 1
0 -37 50 -23 0 0 1 32 0 1 0 1
phys
0 -22 -50 -14 0 0 1 32 0 1 0 1
0 -37 50 -23 0 0 1 32 0 1 0 1
0 -22 50 -14 0 0 1 32 0 1 0 1
phys
0 -59 170 224 0 0 1 33 0 1 0 1
0 -59 170 112 0 0 1 33 0 1 0 1
0 -63 170 112 0 0 1 33 0 1 0 1
phys
0 -59 170 224 0 0 1 33 0 1 0 1
0 -63 170 112 0 0 1 33 0 1 0 1
0 -63 170 224 0 0 1 33 0 1 0 1
phys
0 -59 162 112 0 0 1 33 0 1 0 1
0 -59 162 224 0 0 1 33 0 1 0 1
0 -63 162 224 0 0 1 33 0 1 0 1
phys
0 -59 162 112 0 0 1 33 0 1 0 1
0 -63 162 224 0 0 1 33 0 1 0 1
0 -63 162 112 0 0 1 33 0 1 0 1
phys
0 -63 162 112 0 0 1 33 0 1 0 1
0 -63 162 224 0 0 1 33 0 1 0 1
0 -63 170 224 0 0 1 33 0 1 0 1
phys
0 -63 162 112 0 0 1 33 0 1 0 1
0 -63 170 224 0 0 1 33 0 1 0 1
0 -63 170 112 0 0 1 33 0 1 0 1
phys
0 -59 162 224 0 0 1 33 0 1 0 1
0 -59 162 112 0 0 1 33 0 1 0 1
0 -59 170 112 0 0 1 33 0 1 0 1
phys
0 -59 162 224 0 0 1 33 0 1 0 1
0 -59 170 112 0 0 1 33 0 1 0 1
0 -59 170 224 0 0 1 33 0 1 0 1
phys
0 -59 162 112 0 0 1 33 0 1 0 1
0 -63 162 112 0 0 1 33 0 1 0 1
0 -63 170 112 0 0 1 33 0 1 0 1
phys
0 -59 162 112 0 0 1 33 0 1 0 1
0 -63 170 112 0 0 1 33 0 1 0 1
0 -59 170 112 0 0 1 33 0 1 0 1
phys
0 -63 162 224 0 0 1 33 0 1 0 1
0 -59 162 224 0 0 1 33 0 1 0 1
0 -59 170 224 0 0 1 33 0 1 0 1
phys
0 -63 162 224 0 0 1 33 0 1 0 1
0 -59 170 224 0 0 1 33 0 1 0 1
0 -63 170 224 0 0 1 33 0 1 0 1
phys
0 128 162 -113 0 0 1 34 0 1 0 1
0 113 162 -113 0 0 1 34 0 1 0 1
0 113 62 -113 0 0 1 34 0 1 0 1
phys
0 128 162 -113 0 0 1 34 0 1 0 1
0 113 62 -113 0 0 1 34 0 1 0 1
0 128 62 -113 0 0 1 34 0 1 0 1
phys
0 128 62 -122 0 0 1 34 0 1 0 1
0 113 62 -113 0 0 1 34 0 1 0 1
0 113 162 -113 0 0 1 34 0 1 0 1
phys
0 128 62 -122 0 0 1 34 0 1 0 1
0 113 162 -113 0 0 1 34 0 1 0 1
0 128 162 -122 0 0 1 34 0 1 0 1
phys
0 128 162 -122 0 0 1 34 0 1 0 1
0 113 162 -113 0 0 1 34 0 1 0 1
0 128 162 -113 0 0 1 34 0 1 0 1
phys
0 128 62 -113 0 0 1 34 0 1 0 1
0 113 62 -113 0 0 1 34 0 1 0 1
0 128 62 -122 0 0 1 34 0 1 0 1
phys
0 128 62 -122 0 0 1 34 0 1 0 1
0 128 162 -122 0 0 1 34 0 1 0 1
0 128 162 -113 0 0 1 34 0 1 0 1
phys
0 128 62 -122 0 0 1 34 0 1 0 1
0 128 162 -113 0 0 1 34 0 1 0 1
0 128 62 -113 0 0 1 34 0 1 0 1
phys
0 -7 162 -32 0 0 1 35 0 1 0 1
0 -22 162 -32 0 0 1 35 0 1 0 1
0 -22 62 -32 0 0 1 35 0 1 0 1
phys
0 -7 162 -32 0 0 1 35 0 1 0 1
0 -22 62 -32 0 0 1 35 0 1 0 1
0 -7 62 -32 0 0 1 35 0 1 0 1
phys
0 -7 62 -41 0 0 1 35 0 1 0 1
0 -22 62 -32 0 0 1 35 0 1 0 1
0 -22 162 -32 0 0 1 35 0 1 0 1
phys
0 -7 62 -41 0 0 1 35 0 1 0 1
0 -22 162 -32 0 0 1 35 0 1 0 1
0 -7 162 -41 0 0 1 35 0 1 0 1
phys
0 -7 162 -41 0 0 1 35 0 1 0 1
0 -22 162 -32 0 0 1 35 0 1 0 1
0 -7 162 -32 0 0 1 35 0 1 0 1
phys
0 -7 62 -32 0 0 1 35 0 1 0 1
0 -22 62 -32 0 0 1 35 0 1 0 1
0 -7 62 -41 0 0 1 35 0 1 0 1
phys
0 -7 62 -41 0 0 1 35 0 1 0 1
0 -7 162 -41 0 0 1 35 0 1 0 1
0 -7 162 -32 0 0 1 35 0 1 0 1
phys
0 -7 62 -41 0 0 1 35 0 1 0 1
0 -7 162 -32 0 0 1 35 0 1 0 1
0 -7 62 -32 0 0 1 35 0 1 0 1
end
