version 1
nodes
0 "root" -1
end
skeleton
time 0
0 0 0 0 0 0 0
end
triangles
phys
0 -7 -50 4 0 0 1 1 0 1 0 1
0 8 -50 4 0 0 1 1 0 1 0 1
0 8 50 4 0 0 1 1 0 1 0 1
phys
0 -7 -50 4 0 0 1 1 0 1 0 1
0 8 50 4 0 0 1 1 0 1 0 1
0 -7 50 4 0 0 1 1 0 1 0 1
phys
0 -7 50 -5 0 0 1 1 0 1 0 1
0 8 50 4 0 0 1 1 0 1 0 1
0 8 -50 4 0 0 1 1 0 1 0 1
phys
0 -7 50 -5 0 0 1 1 0 1 0 1
0 8 -50 4 0 0 1 1 0 1 0 1
0 -7 -50 -5 0 0 1 1 0 1 0 1
phys
0 -7 50 4 0 0 1 1 0 1 0 1
0 8 50 4 0 0 1 1 0 1 0 1
0 -7 50 -5 0 0 1 1 0 1 0 1
phys
0 8 -50 4 0 0 1 1 0 1 0 1
0 -7 -50 4 0 0 1 1 0 1 0 1
0 -7 -50 -5 0 0 1 1 0 1 0 1
phys
0 -7 -50 4 0 0 1 1 0 1 0 1
0 -7 50 4 0 0 1 1 0 1 0 1
0 -7 50 -5 0 0 1 1 0 1 0 1
phys
0 -7 -50 4 0 0 1 1 0 1 0 1
0 -7 50 -5 0 0 1 1 0 1 0 1
0 -7 -50 -5 0 0 1 1 0 1 0 1
phys
0 68 50 40 0 0 1 2 0 1 0 1
0 68 50 49 0 0 1 2 0 1 0 1
0 83 50 49 0 0 1 2 0 1 0 1
phys
0 83 -50 49 0 0 1 2 0 1 0 1
0 68 -50 49 0 0 1 2 0 1 0 1
0 68 -50 40 0 0 1 2 0 1 0 1
phys
0 68 -50 40 0 0 1 2 0 1 0 1
0 68 -50 49 0 0 1 2 0 1 0 1
0 68 50 49 0 0 1 2 0 1 0 1
phys
0 68 -50 40 0 0 1 2 0 1 0 1
0 68 50 49 0 0 1 2 0 1 0 1
0 68 50 40 0 0 1 2 0 1 0 1
phys
0 68 -50 49 0 0 1 2 0 1 0 1
0 83 -50 49 0 0 1 2 0 1 0 1
0 83 50 49 0 0 1 2 0 1 0 1
phys
0 68 -50 49 0 0 1 2 0 1 0 1
0 83 50 49 0 0 1 2 0 1 0 1
0 68 50 49 0 0 1 2 0 1 0 1
phys
0 83 -50 49 0 0 1 2 0 1 0 1
0 68 -50 40 0 0 1 2 0 1 0 1
0 68 50 40 0 0 1 2 0 1 0 1
phys
0 83 -50 49 0 0 1 2 0 1 0 1
0 68 50 40 0 0 1 2 0 1 0 1
0 83 50 49 0 0 1 2 0 1 0 1
phys
0 8 50 4 0 0 1 3 0 1 0 1
0 8 50 13 0 0 1 3 0 1 0 1
0 23 50 13 0 0 1 3 0 1 0 1
phys
0 23 -50 13 0 0 1 3 0 1 0 1
0 8 -50 13 0 0 1 3 0 1 0 1
0 8 -50 4 0 0 1 3 0 1 0 1
phys
0 8 -50 4 0 0 1 3 0 1 0 1
0 8 -50 13 0 0 1 3 0 1 0 1
0 8 50 13 0 0 1 3 0 1 0 1
phys
0 8 -50 4 0 0 1 3 0 1 0 1
0 8 50 13 0 0 1 3 0 1 0 1
0 8 50 4 0 0 1 3 0 1 0 1
phys
0 8 -50 13 0 0 1 3 0 1 0 1
0 23 -50 13 0 0 1 3 0 1 0 1
0 23 50 13 0 0 1 3 0 1 0 1
phys
0 8 -50 13 0 0 1 3 0 1 0 1
0 23 50 13 0 0 1 3 0 1 0 1
0 8 50 13 0 0 1 3 0 1 0 1
phys
0 23 -50 13 0 0 1 3 0 1 0 1
0 8 -50 4 0 0 1 3 0 1 0 1
0 8 50 4 0 0 1 3 0 1 0 1
phys
0 23 -50 13 0 0 1 3 0 1 0 1
0 8 50 4 0 0 1 3 0 1 0 1
0 23 50 13 0 0 1 3 0 1 0 1
phys
0 48 156 274 0 0 1 4 0 1 0 1
0 50 156 274 0 0 1 4 0 1 0 1
0 50 158 274 0 0 1 4 0 1 0 1
phys
0 48 156 274 0 0 1 4 0 1 0 1
0 50 158 274 0 0 1 4 0 1 0 1
0 48 158 274 0 0 1 4 0 1 0 1
phys
0 48 158 204 0 0 1 4 0 1 0 1
0 48 158 274 0 0 1 4 0 1 0 1
0 50 158 274 0 0 1 4 0 1 0 1
phys
0 48 158 204 0 0 1 4 0 1 0 1
0 50 158 274 0 0 1 4 0 1 0 1
0 50 158 204 0 0 1 4 0 1 0 1
phys
0 50 156 204 0 0 1 4 0 1 0 1
0 50 156 274 0 0 1 4 0 1 0 1
0 48 156 274 0 0 1 4 0 1 0 1
phys
0 50 156 204 0 0 1 4 0 1 0 1
0 48 156 274 0 0 1 4 0 1 0 1
0 48 156 204 0 0 1 4 0 1 0 1
phys
0 48 156 204 0 0 1 4 0 1 0 1
0 48 156 274 0 0 1 4 0 1 0 1
0 48 158 274 0 0 1 4 0 1 0 1
phys
0 48 156 204 0 0 1 4 0 1 0 1
0 48 158 274 0 0 1 4 0 1 0 1
0 48 158 204 0 0 1 4 0 1 0 1
phys
0 50 158 204 0 0 1 4 0 1 0 1
0 50 158 274 0 0 1 4 0 1 0 1
0 50 156 274 0 0 1 4 0 1 0 1
phys
0 50 158 204 0 0 1 4 0 1 0 1
0 50 156 274 0 0 1 4 0 1 0 1
0 50 156 204 0 0 1 4 0 1 0 1
phys
0 50 156 204 0 0 1 4 0 1 0 1
0 48 156 204 0 0 1 4 0 1 0 1
0 48 158 204 0 0 1 4 0 1 0 1
phys
0 50 156 204 0 0 1 4 0 1 0 1
0 48 158 204 0 0 1 4 0 1 0 1
0 50 158 204 0 0 1 4 0 1 0 1
phys
0 -67 50 -41 0 0 1 5 0 1 0 1
0 -67 50 -32 0 0 1 5 0 1 0 1
0 -52 50 -32 0 0 1 5 0 1 0 1
phys
0 -52 -50 -32 0 0 1 5 0 1 0 1
0 -67 -50 -32 0 0 1 5 0 1 0 1
0 -67 -50 -41 0 0 1 5 0 1 0 1
phys
0 -67 -50 -41 0 0 1 5 0 1 0 1
0 -67 -50 -32 0 0 1 5 0 1 0 1
0 -67 50 -32 0 0 1 5 0 1 0 1
phys
0 -67 -50 -41 0 0 1 5 0 1 0 1
0 -67 50 -32 0 0 1 5 0 1 0 1
0 -67 50 -41 0 0 1 5 0 1 0 1
phys
0 -67 -50 -32 0 0 1 5 0 1 0 1
0 -52 -50 -32 0 0 1 5 0 1 0 1
0 -52 50 -32 0 0 1 5 0 1 0 1
phys
0 -67 -50 -32 0 0 1 5 0 1 0 1
0 -52 50 -32 0 0 1 5 0 1 0 1
0 -67 50 -32 0 0 1 5 0 1 0 1
phys
0 -52 -50 -32 0 0 1 5 0 1 0 1
0 -67 -50 -41 0 0 1 5 0 1 0 1
0 -67 50 -41 0 0 1 5 0 1 0 1
phys
0 -52 -50 -32 0 0 1 5 0 1 0 1
0 -67 50 -41 0 0 1 5 0 1 0 1
0 -52 50 -32 0 0 1 5 0 1 0 1
phys
0 182 250 200 0 0 1 6 0 1 0 1
0 182 250 204 0 0 1 6 0 1 0 1
0 50 250 204 0 0 1 6 0 1 0 1
phys
0 182 250 200 0 0 1 6 0 1 0 1
0 50 250 204 0 0 1 6 0 1 0 1
0 50 250 200 0 0 1 6 0 1 0 1
phys
0 50 250 200 0 0 1 6 0 1 0 1
0 50 250 204 0 0 1 6 0 1 0 1
0 50 252 204 0 0 1 6 0 1 0 1
phys
0 50 250 200 0 0 1 6 0 1 0 1
0 50 252 204 0 0 1 6 0 1 0 1
0 50 252 200 0 0 1 6 0 1 0 1
phys
0 182 250 204 0 0 1 6 0 1 0 1
0 182 250 200 0 0 1 6 0 1 0 1
0 182 252 200 0 0 1 6 0 1 0 1
phys
0 182 250 204 0 0 1 6 0 1 0 1
0 182 252 200 0 0 1 6 0 1 0 1
0 182 252 204 0 0 1 6 0 1 0 1
phys
0 182 250 200 0 0 1 6 0 1 0 1
0 50 250 200 0 0 1 6 0 1 0 1
0 50 252 200 0 0 1 6 0 1 0 1
phys
0 182 250 200 0 0 1 6 0 1 0 1
0 50 252 200 0 0 1 6 0 1 0 1
0 182 252 200 0 0 1 6 0 1 0 1
phys
0 50 250 204 0 0 1 6 0 1 0 1
0 182 250 204 0 0 1 6 0 1 0 1
0 182 252 204 0 0 1 6 0 1 0 1
phys
0 50 250 204 0 0 1 6 0 1 0 1
0 182 252 204 0 0 1 6 0 1 0 1
0 50 252 204 0 0 1 6 0 1 0 1
phys
0 182 252 204 0 0 1 6 0 1 0 1
0 182 252 200 0 0 1 6 0 1 0 1
0 50 252 200 0 0 1 6 0 1 0 1
phys
0 182 252 204 0 0 1 6 0 1 0 1
0 50 252 200 0 0 1 6 0 1 0 1
0 50 252 204 0 0 1 6 0 1 0 1
phys
0 50 158 204 0 0 1 7 0 1 0 1
0 50 158 200 0 0 1 7 0 1 0 1
0 48 158 200 0 0 1 7 0 1 0 1
phys
0 50 158 204 0 0 1 7 0 1 0 1
0 48 158 200 0 0 1 7 0 1 0 1
0 48 158 204 0 0 1 7 0 1 0 1
phys
0 50 -46 200 0 0 1 7 0 1 0 1
0 50 -46 204 0 0 1 7 0 1 0 1
0 48 -46 204 0 0 1 7 0 1 0 1
phys
0 50 -46 200 0 0 1 7 0 1 0 1
0 48 -46 204 0 0 1 7 0 1 0 1
0 48 -46 200 0 0 1 7 0 1 0 1
phys
0 48 -46 200 0 0 1 7 0 1 0 1
0 48 -46 204 0 0 1 7 0 1 0 1
0 48 158 204 0 0 1 7 0 1 0 1
phys
0 48 -46 200 0 0 1 7 0 1 0 1
0 48 158 204 0 0 1 7 0 1 0 1
0 48 158 200 0 0 1 7 0 1 0 1
phys
0 50 -46 204 0 0 1 7 0 1 0 1
0 50 -46 200 0 0 1 7 0 1 0 1
0 50 158 200 0 0 1 7 0 1 0 1
phys
0 50 -46 204 0 0 1 7 0 1 0 1
0 50 158 200 0 0 1 7 0 1 0 1
0 50 158 204 0 0 1 7 0 1 0 1
phys
0 50 -46 200 0 0 1 7 0 1 0 1
0 48 -46 200 0 0 1 7 0 1 0 1
0 48 158 200 0 0 1 7 0 1 0 1
phys
0 50 -46 200 0 0 1 7 0 1 0 1
0 48 158 200 0 0 1 7 0 1 0 1
0 50 158 200 0 0 1 7 0 1 0 1
phys
0 48 -46 204 0 0 1 7 0 1 0 1
0 50 -46 204 0 0 1 7 0 1 0 1
0 50 158 204 0 0 1 7 0 1 0 1
phys
0 48 -46 204 0 0 1 7 0 1 0 1
0 50 158 204 0 0 1 7 0 1 0 1
0 48 158 204 0 0 1 7 0 1 0 1
phys
0 -52 -50 -23 0 0 1 8 0 1 0 1
0 -37 -50 -23 0 0 1 8 0 1 0 1
0 -37 50 -23 0 0 1 8 0 1 0 1
phys
0 -52 -50 -23 0 0 1 8 0 1 0 1
0 -37 50 -23 0 0 1 8 0 1 0 1
0 -52 50 -23 0 0 1 8 0 1 0 1
phys
0 -52 50 -32 0 0 1 8 0 1 0 1
0 -37 50 -23 0 0 1 8 0 1 0 1
0 -37 -50 -23 0 0 1 8 0 1 0 1
phys
0 -52 50 -32 0 0 1 8 0 1 0 1
0 -37 -50 -23 0 0 1 8 0 1 0 1
0 -52 -50 -32 0 0 1 8 0 1 0 1
phys
0 -52 50 -23 0 0 1 8 0 1 0 1
0 -37 50 -23 0 0 1 8 0 1 0 1
0 -52 50 -32 0 0 1 8 0 1 0 1
phys
0 -37 -50 -23 0 0 1 8 0 1 0 1
0 -52 -50 -23 0 0 1 8 0 1 0 1
0 -52 -50 -32 0 0 1 8 0 1 0 1
phys
0 -52 -50 -23 0 0 1 8 0 1 0 1
0 -52 50 -23 0 0 1 8 0 1 0 1
0 -52 50 -32 0 0 1 8 0 1 0 1
phys
0 -52 -50 -23 0 0 1 8 0 1 0 1
0 -52 50 -32 0 0 1 8 0 1 0 1
0 -52 -50 -32 0 0 1 8 0 1 0 1
phys
0 53 50 31 0 0 1 9 0 1 0 1
0 53 50 40 0 0 1 9 0 1 0 1
0 68 50 40 0 0 1 9 0 1 0 1
phys
0 68 -50 40 0 0 1 9 0 1 0 1
0 53 -50 40 0 0 1 9 0 1 0 1
0 53 -50 31 0 0 1 9 0 1 0 1
phys
0 53 -50 31 0 0 1 9 0 1 0 1
0 53 -50 40 0 0 1 9 0 1 0 1
0 53 50 40 0 0 1 9 0 1 0 1
phys
0 53 -50 31 0 0 1 9 0 1 0 1
0 53 50 40 0 0 1 9 0 1 0 1
0 53 50 31 0 0 1 9 0 1 0 1
phys
0 53 -50 40 0 0 1 9 0 1 0 1
0 68 -50 40 0 0 1 9 0 1 0 1
0 68 50 40 0 0 1 9 0 1 0 1
phys
0 53 -50 40 0 0 1 9 0 1 0 1
0 68 50 40 0 0 1 9 0 1 0 1
0 53 50 40 0 0 1 9 0 1 0 1
phys
0 68 -50 40 0 0 1 9 0 1 0 1
0 53 -50 31 0 0 1 9 0 1 0 1
0 53 50 31 0 0 1 9 0 1 0 1
phys
0 68 -50 40 0 0 1 9 0 1 0 1
0 53 50 31 0 0 1 9 0 1 0 1
0 68 50 40 0 0 1 9 0 1 0 1
phys
0 50 454 204 0 0 1 10 0 1 0 1
0 50 454 200 0 0 1 10 0 1 0 1
0 48 454 200 0 0 1 10 0 1 0 1
phys
0 50 454 204 0 0 1 10 0 1 0 1
0 48 454 200 0 0 1 10 0 1 0 1
0 48 454 204 0 0 1 10 0 1 0 1
phys
0 50 250 200 0 0 1 10 0 1 0 1
0 50 250 204 0 0 1 10 0 1 0 1
0 48 250 204 0 0 1 10 0 1 0 1
phys
0 50 250 200 0 0 1 10 0 1 0 1
0 48 250 204 0 0 1 10 0 1 0 1
0 48 250 200 0 0 1 10 0 1 0 1
phys
0 48 250 200 0 0 1 10 0 1 0 1
0 48 250 204 0 0 1 10 0 1 0 1
0 48 454 204 0 0 1 10 0 1 0 1
phys
0 48 250 200 0 0 1 10 0 1 0 1
0 48 454 204 0 0 1 10 0 1 0 1
0 48 454 200 0 0 1 10 0 1 0 1
phys
0 50 250 204 0 0 1 10 0 1 0 1
0 50 250 200 0 0 1 10 0 1 0 1
0 50 454 200 0 0 1 10 0 1 0 1
phys
0 50 250 204 0 0 1 10 0 1 0 1
0 50 454 200 0 0 1 10 0 1 0 1
0 50 454 204 0 0 1 10 0 1 0 1
phys
0 50 250 200 0 0 1 10 0 1 0 1
0 48 250 200 0 0 1 10 0 1 0 1
0 48 454 200 0 0 1 10 0 1 0 1
phys
0 50 250 200 0 0 1 10 0 1 0 1
0 48 454 200 0 0 1 10 0 1 0 1
0 50 454 200 0 0 1 10 0 1 0 1
phys
0 48 250 204 0 0 1 10 0 1 0 1
0 50 250 204 0 0 1 10 0 1 0 1
0 50 454 204 0 0 1 10 0 1 0 1
phys
0 48 250 204 0 0 1 10 0 1 0 1
0 50 454 204 0 0 1 10 0 1 0 1
0 48 454 204 0 0 1 10 0 1 0 1
phys
0 50 -138 274 0 0 1 11 0 1 0 1
0 50 -138 204 0 0 1 11 0 1 0 1
0 48 -138 204 0 0 1 11 0 1 0 1
phys
0 50 -138 274 0 0 1 11 0 1 0 1
0 48 -138 204 0 0 1 11 0 1 0 1
0 48 -138 274 0 0 1 11 0 1 0 1
phys
0 50 -140 204 0 0 1 11 0 1 0 1
0 50 -140 274 0 0 1 11 0 1 0 1
0 48 -140 274 0 0 1 11 0 1 0 1
phys
0 50 -140 204 0 0 1 11 0 1 0 1
0 48 -140 274 0 0 1 11 0 1 0 1
0 48 -140 204 0 0 1 11 0 1 0 1
phys
0 48 -140 204 0 0 1 11 0 1 0 1
0 48 -140 274 0 0 1 11 0 1 0 1
0 48 -138 274 0 0 1 11 0 1 0 1
phys
0 48 -140 204 0 0 1 11 0 1 0 1
0 48 -138 274 0 0 1 11 0 1 0 1
0 48 -138 204 0 0 1 11 0 1 0 1
phys
0 50 -140 274 0 0 1 11 0 1 0 1
0 50 -140 204 0 0 1 11 0 1 0 1
0 50 -138 204 0 0 1 11 0 1 0 1
phys
0 50 -140 274 0 0 1 11 0 1 0 1
0 50 -138 204 0 0 1 11 0 1 0 1
0 50 -138 274 0 0 1 11 0 1 0 1
phys
0 50 -140 204 0 0 1 11 0 1 0 1
0 48 -140 204 0 0 1 11 0 1 0 1
0 48 -138 204 0 0 1 11 0 1 0 1
phys
0 50 -140 204 0 0 1 11 0 1 0 1
0 48 -138 204 0 0 1 11 0 1 0 1
0 50 -138 204 0 0 1 11 0 1 0 1
phys
0 48 -140 274 0 0 1 11 0 1 0 1
0 50 -140 274 0 0 1 11 0 1 0 1
0 50 -138 274 0 0 1 11 0 1 0 1
phys
0 48 -140 274 0 0 1 11 0 1 0 1
0 50 -138 274 0 0 1 11 0 1 0 1
0 48 -138 274 0 0 1 11 0 1 0 1
phys
0 -82 -50 -41 0 0 1 12 0 1 0 1
0 -67 -50 -41 0 0 1 12 0 1 0 1
0 -67 50 -41 0 0 1 12 0 1 0 1
phys
0 -82 -50 -41 0 0 1 12 0 1 0 1
0 -67 50 -41 0 0 1 12 0 1 0 1
0 -82 50 -41 0 0 1 12 0 1 0 1
phys
0 -82 50 -50 0 0 1 12 0 1 0 1
0 -67 50 -41 0 0 1 12 0 1 0 1
0 -67 -50 -41 0 0 1 12 0 1 0 1
phys
0 -82 50 -50 0 0 1 12 0 1 0 1
0 -67 -50 -41 0 0 1 12 0 1 0 1
0 -82 -50 -50 0 0 1 12 0 1 0 1
phys
0 -82 50 -41 0 0 1 12 0 1 0 1
0 -67 50 -41 0 0 1 12 0 1 0 1
0 -82 50 -50 0 0 1 12 0 1 0 1
phys
0 -67 -50 -41 0 0 1 12 0 1 0 1
0 -82 -50 -41 0 0 1 12 0 1 0 1
0 -82 -50 -50 0 0 1 12 0 1 0 1
phys
0 -82 -50 -41 0 0 1 12 0 1 0 1
0 -82 50 -41 0 0 1 12 0 1 0 1
0 -82 50 -50 0 0 1 12 0 1 0 1
phys
0 -82 -50 -41 0 0 1 12 0 1 0 1
0 -82 50 -50 0 0 1 12 0 1 0 1
0 -82 -50 -50 0 0 1 12 0 1 0 1
phys
0 182 -138 204 0 0 1 13 0 1 0 1
0 182 -138 200 0 0 1 13 0 1 0 1
0 50 -138 200 0 0 1 13 0 1 0 1
phys
0 182 -138 204 0 0 1 13 0 1 0 1
0 50 -138 200 0 0 1 13 0 1 0 1
0 50 -138 204 0 0 1 13 0 1 0 1
phys
0 182 -140 200 0 0 1 13 0 1 0 1
0 182 -140 204 0 0 1 13 0 1 0 1
0 50 -140 204 0 0 1 13 0 1 0 1
phys
0 182 -140 200 0 0 1 13 0 1 0 1
0 50 -140 204 0 0 1 13 0 1 0 1
0 50 -140 200 0 0 1 13 0 1 0 1
phys
0 50 -140 200 0 0 1 13 0 1 0 1
0 50 -140 204 0 0 1 13 0 1 0 1
0 50 -138 204 0 0 1 13 0 1 0 1
phys
0 50 -140 200 0 0 1 13 0 1 0 1
0 50 -138 204 0 0 1 13 0 1 0 1
0 50 -138 200 0 0 1 13 0 1 0 1
phys
0 182 -140 204 0 0 1 13 0 1 0 1
0 182 -140 200 0 0 1 13 0 1 0 1
0 182 -138 200 0 0 1 13 0 1 0 1
phys
0 182 -140 204 0 0 1 13 0 1 0 1
0 182 -138 200 0 0 1 13 0 1 0 1
0 182 -138 204 0 0 1 13 0 1 0 1
phys
0 182 -140 200 0 0 1 13 0 1 0 1
0 50 -140 200 0 0 1 13 0 1 0 1
0 50 -138 200 0 0 1 13 0 1 0 1
phys
0 182 -140 200 0 0 1 13 0 1 0 1
0 50 -138 200 0 0 1 13 0 1 0 1
0 182 -138 200 0 0 1 13 0 1 0 1
phys
0 50 -140 204 0 0 1 13 0 1 0 1
0 182 -140 204 0 0 1 13 0 1 0 1
0 182 -138 204 0 0 1 13 0 1 0 1
phys
0 50 -140 204 0 0 1 13 0 1 0 1
0 182 -138 204 0 0 1 13 0 1 0 1
0 50 -138 204 0 0 1 13 0 1 0 1
phys
0 -37 50 -23 0 0 1 14 0 1 0 1
0 -37 50 -14 0 0 1 14 0 1 0 1
0 -22 50 -14 0 0 1 14 0 1 0 1
phys
0 -22 -50 -14 0 0 1 14 0 1 0 1
0 -37 -50 -14 0 0 1 14 0 1 0 1
0 -37 -50 -23 0 0 1 14 0 1 0 1
phys
0 -37 -50 -23 0 0 1 14 0 1 0 1
0 -37 -50 -14 0 0 1 14 0 1 0 1
0 -37 50 -14 0 0 1 14 0 1 0 1
phys
0 -37 -50 -23 0 0 1 14 0 1 0 1
0 -37 50 -14 0 0 1 14 0 1 0 1
0 -37 50 -23 0 0 1 14 0 1 0 1
phys
0 -37 -50 -14 0 0 1 14 0 1 0 1
0 -22 -50 -14 0 0 1 14 0 1 0 1
0 -22 50 -14 0 0 1 14 0 1 0 1
phys
0 -37 -50 -14 0 0 1 14 0 1 0 1
0 -22 50 -14 0 0 1 14 0 1 0 1
0 -37 50 -14 0 0 1 14 0 1 0 1
phys
0 -22 -50 -14 0 0 1 14 0 1 0 1
0 -37 -50 -23 0 0 1 14 0 1 0 1
0 -37 50 -23 0 0 1 14 0 1 0 1
phys
0 -22 -50 -14 0 0 1 14 0 1 0 1
0 -37 50 -23 0 0 1 14 0 1 0 1
0 -22 50 -14 0 0 1 14 0 1 0 1
phys
0 83 -50 58 0 0 1 15 0 1 0 1
0 98 -50 58 0 0 1 15 0 1 0 1
0 98 50 58 0 0 1 15 0 1 0 1
phys
0 83 -50 58 0 0 1 15 0 1 0 1
0 98 50 58 0 0 1 15 0 1 0 1
0 83 50 58 0 0 1 15 0 1 0 1
phys
0 83 50 49 0 0 1 15 0 1 0 1
0 98 50 58 0 0 1 15 0 1 0 1
0 98 -50 58 0 0 1 15 0 1 0 1
phys
0 83 50 49 0 0 1 15 0 1 0 1
0 98 -50 58 0 0 1 15 0 1 0 1
0 83 -50 49 0 0 1 15 0 1 0 1
phys
0 83 50 58 0 0 1 15 0 1 0 1
0 98 50 58 0 0 1 15 0 1 0 1
0 83 50 49 0 0 1 15 0 1 0 1
phys
0 98 -50 58 0 0 1 15 0 1 0 1
0 83 -50 58 0 0 1 15 0 1 0 1
0 83 -50 49 0 0 1 15 0 1 0 1
phys
0 83 -50 58 0 0 1 15 0 1 0 1
0 83 50 58 0 0 1 15 0 1 0 1
0 83 50 49 0 0 1 15 0 1 0 1
phys
0 83 -50 58 0 0 1 15 0 1 0 1
0 83 50 49 0 0 1 15 0 1 0 1
0 83 -50 49 0 0 1 15 0 1 0 1
phys
0 38 -50 31 0 0 1 16 0 1 0 1
0 53 -50 31 0 0 1 16 0 1 0 1
0 53 50 31 0 0 1 16 0 1 0 1
phys
0 38 -50 31 0 0 1 16 0 1 0 1
0 53 50 31 0 0 1 16 0 1 0 1
0 38 50 31 0 0 1 16 0 1 0 1
phys
0 38 50 22 0 0 1 16 0 1 0 1
0 53 50 31 0 0 1 16 0 1 0 1
0 53 -50 31 0 0 1 16 0 1 0 1
phys
0 38 50 22 0 0 1 16 0 1 0 1
0 53 -50 31 0 0 1 16 0 1 0 1
0 38 -50 22 0 0 1 16 0 1 0 1
phys
0 38 50 31 0 0 1 16 0 1 0 1
0 53 50 31 0 0 1 16 0 1 0 1
0 38 50 22 0 0 1 16 0 1 0 1
phys
0 53 -50 31 0 0 1 16 0 1 0 1
0 38 -50 31 0 0 1 16 0 1 0 1
0 38 -50 22 0 0 1 16 0 1 0 1
phys
0 38 -50 31 0 0 1 16 0 1 0 1
0 38 50 31 0 0 1 16 0 1 0 1
0 38 50 22 0 0 1 16 0 1 0 1
phys
0 38 -50 31 0 0 1 16 0 1 0 1
0 38 50 22 0 0 1 16 0 1 0 1
0 38 -50 22 0 0 1 16 0 1 0 1
phys
0 50 -44 274 0 0 1 17 0 1 0 1
0 50 -44 204 0 0 1 17 0 1 0 1
0 48 -44 204 0 0 1 17 0 1 0 1
phys
0 50 -44 274 0 0 1 17 0 1 0 1
0 48 -44 204 0 0 1 17 0 1 0 1
0 48 -44 274 0 0 1 17 0 1 0 1
phys
0 50 -46 204 0 0 1 17 0 1 0 1
0 50 -46 274 0 0 1 17 0 1 0 1
0 48 -46 274 0 0 1 17 0 1 0 1
phys
0 50 -46 204 0 0 1 17 0 1 0 1
0 48 -46 274 0 0 1 17 0 1 0 1
0 48 -46 204 0 0 1 17 0 1 0 1
phys
0 48 -46 204 0 0 1 17 0 1 0 1
0 48 -46 274 0 0 1 17 0 1 0 1
0 48 -44 274 0 0 1 17 0 1 0 1
phys
0 48 -46 204 0 0 1 17 0 1 0 1
0 48 -44 274 0 0 1 17 0 1 0 1
0 48 -44 204 0 0 1 17 0 1 0 1
phys
0 50 -46 274 0 0 1 17 0 1 0 1
0 50 -46 204 0 0 1 17 0 1 0 1
0 50 -44 204 0 0 1 17 0 1 0 1
phys
0 50 -46 274 0 0 1 17 0 1 0 1
0 50 -44 204 0 0 1 17 0 1 0 1
0 50 -44 274 0 0 1 17 0 1 0 1
phys
0 50 -46 204 0 0 1 17 0 1 0 1
0 48 -46 204 0 0 1 17 0 1 0 1
0 48 -44 204 0 0 1 17 0 1 0 1
phys
0 50 -46 204 0 0 1 17 0 1 0 1
0 48 -44 204 0 0 1 17 0 1 0 1
0 50 -44 204 0 0 1 17 0 1 0 1
phys
0 48 -46 274 0 0 1 17 0 1 0 1
0 50 -46 274 0 0 1 17 0 1 0 1
0 50 -44 274 0 0 1 17 0 1 0 1
phys
0 48 -46 274 0 0 1 17 0 1 0 1
0 50 -44 274 0 0 1 17 0 1 0 1
0 48 -44 274 0 0 1 17 0 1 0 1
phys
0 -97 50 -59 0 0 1 18 0 1 0 1
0 -97 50 -50 0 0 1 18 0 1 0 1
0 -82 50 -50 0 0 1 18 0 1 0 1
phys
0 -82 -50 -50 0 0 1 18 0 1 0 1
0 -97 -50 -50 0 0 1 18 0 1 0 1
0 -97 -50 -59 0 0 1 18 0 1 0 1
phys
0 -97 -50 -59 0 0 1 18 0 1 0 1
0 -97 -50 -50 0 0 1 18 0 1 0 1
0 -97 50 -50 0 0 1 18 0 1 0 1
phys
0 -97 -50 -59 0 0 1 18 0 1 0 1
0 -97 50 -50 0 0 1 18 0 1 0 1
0 -97 50 -59 0 0 1 18 0 1 0 1
phys
0 -97 -50 -50 0 0 1 18 0 1 0 1
0 -82 -50 -50 0 0 1 18 0 1 0 1
0 -82 50 -50 0 0 1 18 0 1 0 1
phys
0 -97 -50 -50 0 0 1 18 0 1 0 1
0 -82 50 -50 0 0 1 18 0 1 0 1
0 -97 50 -50 0 0 1 18 0 1 0 1
phys
0 -82 -50 -50 0 0 1 18 0 1 0 1
0 -97 -50 -59 0 0 1 18 0 1 0 1
0 -97 50 -59 0 0 1 18 0 1 0 1
phys
0 -82 -50 -50 0 0 1 18 0 1 0 1
0 -97 50 -59 0 0 1 18 0 1 0 1
0 -82 50 -50 0 0 1 18 0 1 0 1
phys
0 182 158 204 0 0 1 19 0 1 0 1
0 182 158 200 0 0 1 19 0 1 0 1
0 50 158 200 0 0 1 19 0 1 0 1
phys
0 182 158 204 0 0 1 19 0 1 0 1
0 50 158 200 0 0 1 19 0 1 0 1
0 50 158 204 0 0 1 19 0 1 0 1
phys
0 182 156 200 0 0 1 19 0 1 0 1
0 182 156 204 0 0 1 19 0 1 0 1
0 50 156 204 0 0 1 19 0 1 0 1
phys
0 182 156 200 0 0 1 19 0 1 0 1
0 50 156 204 0 0 1 19 0 1 0 1
0 50 156 200 0 0 1 19 0 1 0 1
phys
0 50 156 200 0 0 1 19 0 1 0 1
0 50 156 204 0 0 1 19 0 1 0 1
0 50 158 204 0 0 1 19 0 1 0 1
phys
0 50 156 200 0 0 1 19 0 1 0 1
0 50 158 204 0 0 1 19 0 1 0 1
0 50 158 200 0 0 1 19 0 1 0 1
phys
0 182 156 204 0 0 1 19 0 1 0 1
0 182 156 200 0 0 1 19 0 1 0 1
0 182 158 200 0 0 1 19 0 1 0 1
phys
0 182 156 204 0 0 1 19 0 1 0 1
0 182 158 200 0 0 1 19 0 1 0 1
0 182 158 204 0 0 1 19 0 1 0 1
phys
0 182 156 200 0 0 1 19 0 1 0 1
0 50 156 200 0 0 1 19 0 1 0 1
0 50 158 200 0 0 1 19 0 1 0 1
phys
0 182 156 200 0 0 1 19 0 1 0 1
0 50 158 200 0 0 1 19 0 1 0 1
0 182 158 200 0 0 1 19 0 1 0 1
phys
0 50 156 204 0 0 1 19 0 1 0 1
0 182 156 204 0 0 1 19 0 1 0 1
0 182 158 204 0 0 1 19 0 1 0 1
phys
0 50 156 204 0 0 1 19 0 1 0 1
0 182 158 204 0 0 1 19 0 1 0 1
0 50 158 204 0 0 1 19 0 1 0 1
phys
0 182 -46 200 0 0 1 20 0 1 0 1
0 182 -46 204 0 0 1 20 0 1 0 1
0 50 -46 204 0 0 1 20 0 1 0 1
phys
0 182 -46 200 0 0 1 20 0 1 0 1
0 50 -46 204 0 0 1 20 0 1 0 1
0 50 -46 200 0 0 1 20 0 1 0 1
phys
0 50 -46 200 0 0 1 20 0 1 0 1
0 50 -46 204 0 0 1 20 0 1 0 1
0 50 -44 204 0 0 1 20 0 1 0 1
phys
0 50 -46 200 0 0 1 20 0 1 0 1
0 50 -44 204 0 0 1 20 0 1 0 1
0 50 -44 200 0 0 1 20 0 1 0 1
phys
0 182 -46 204 0 0 1 20 0 1 0 1
0 182 -46 200 0 0 1 20 0 1 0 1
0 182 -44 200 0 0 1 20 0 1 0 1
phys
0 182 -46 204 0 0 1 20 0 1 0 1
0 182 -44 200 0 0 1 20 0 1 0 1
0 182 -44 204 0 0 1 20 0 1 0 1
phys
0 182 -46 200 0 0 1 20 0 1 0 1
0 50 -46 200 0 0 1 20 0 1 0 1
0 50 -44 200 0 0 1 20 0 1 0 1
phys
0 182 -46 200 0 0 1 20 0 1 0 1
0 50 -44 200 0 0 1 20 0 1 0 1
0 182 -44 200 0 0 1 20 0 1 0 1
phys
0 50 -46 204 0 0 1 20 0 1 0 1
0 182 -46 204 0 0 1 20 0 1 0 1
0 182 -44 204 0 0 1 20 0 1 0 1
phys
0 50 -46 204 0 0 1 20 0 1 0 1
0 182 -44 204 0 0 1 20 0 1 0 1
0 50 -44 204 0 0 1 20 0 1 0 1
phys
0 182 -44 204 0 0 1 20 0 1 0 1
0 182 -44 200 0 0 1 20 0 1 0 1
0 50 -44 200 0 0 1 20 0 1 0 1
phys
0 182 -44 204 0 0 1 20 0 1 0 1
0 50 -44 200 0 0 1 20 0 1 0 1
0 50 -44 204 0 0 1 20 0 1 0 1
phys
0 -22 -50 -5 0 0 1 21 0 1 0 1
0 -7 -50 -5 0 0 1 21 0 1 0 1
0 -7 50 -5 0 0 1 21 0 1 0 1
phys
0 -22 -50 -5 0 0 1 21 0 1 0 1
0 -7 50 -5 0 0 1 21 0 1 0 1
0 -22 50 -5 0 0 1 21 0 1 0 1
phys
0 -22 50 -14 0 0 1 21 0 1 0 1
0 -7 50 -5 0 0 1 21 0 1 0 1
0 -7 -50 -5 0 0 1 21 0 1 0 1
phys
0 -22 50 -14 0 0 1 21 0 1 0 1
0 -7 -50 -5 0 0 1 21 0 1 0 1
0 -22 -50 -14 0 0 1 21 0 1 0 1
phys
0 -22 50 -5 0 0 1 21 0 1 0 1
0 -7 50 -5 0 0 1 21 0 1 0 1
0 -22 50 -14 0 0 1 21 0 1 0 1
phys
0 -7 -50 -5 0 0 1 21 0 1 0 1
0 -22 -50 -5 0 0 1 21 0 1 0 1
0 -22 -50 -14 0 0 1 21 0 1 0 1
phys
0 -22 -50 -5 0 0 1 21 0 1 0 1
0 -22 50 -5 0 0 1 21 0 1 0 1
0 -22 50 -14 0 0 1 21 0 1 0 1
phys
0 -22 -50 -5 0 0 1 21 0 1 0 1
0 -22 50 -14 0 0 1 21 0 1 0 1
0 -22 -50 -14 0 0 1 21 0 1 0 1
phys
0 50 250 204 0 0 1 22 0 1 0 1
0 50 252 204 0 0 1 22 0 1 0 1
0 50 252 274 0 0 1 22 0 1 0 1
phys
0 50 250 204 0 0 1 22 0 1 0 1
0 50 252 274 0 0 1 22 0 1 0 1
0 50 250 274 0 0 1 22 0 1 0 1
phys
0 48 252 204 0 0 1 22 0 1 0 1
0 50 252 204 0 0 1 22 0 1 0 1
0 50 250 204 0 0 1 22 0 1 0 1
phys
0 48 252 204 0 0 1 22 0 1 0 1
0 50 250 204 0 0 1 22 0 1 0 1
0 48 250 204 0 0 1 22 0 1 0 1
phys
0 48 250 274 0 0 1 22 0 1 0 1
0 50 250 274 0 0 1 22 0 1 0 1
0 50 252 274 0 0 1 22 0 1 0 1
phys
0 48 250 274 0 0 1 22 0 1 0 1
0 50 252 274 0 0 1 22 0 1 0 1
0 48 252 274 0 0 1 22 0 1 0 1
phys
0 50 252 274 0 0 1 22 0 1 0 1
0 50 252 204 0 0 1 22 0 1 0 1
0 48 252 204 0 0 1 22 0 1 0 1
phys
0 50 252 274 0 0 1 22 0 1 0 1
0 48 252 204 0 0 1 22 0 1 0 1
0 48 252 274 0 0 1 22 0 1 0 1
phys
0 50 250 204 0 0 1 22 0 1 0 1
0 50 250 274 0 0 1 22 0 1 0 1
0 48 250 274 0 0 1 22 0 1 0 1
phys
0 50 250 204 0 0 1 22 0 1 0 1
0 48 250 274 0 0 1 22 0 1 0 1
0 48 250 204 0 0 1 22 0 1 0 1
phys
0 48 250 274 0 0 1 22 0 1 0 1
0 48 252 274 0 0 1 22 0 1 0 1
0 48 252 204 0 0 1 22 0 1 0 1
phys
0 48 250 274 0 0 1 22 0 1 0 1
0 48 252 204 0 0 1 22 0 1 0 1
0 48 250 204 0 0 1 22 0 1 0 1
phys
0 -97 -50 -59 0 0 1 23 0 1 0 1
0 -112 -50 -68 0 0 1 23 0 1 0 1
0 -112 50 -68 0 0 1 23 0 1 0 1
phys
0 -97 -50 -59 0 0 1 23 0 1 0 1
0 -112 50 -68 0 0 1 23 0 1 0 1
0 -97 50 -59 0 0 1 23 0 1 0 1
phys
0 -97 50 -59 0 0 1 23 0 1 0 1
0 -112 50 -68 0 0 1 23 0 1 0 1
0 -112 50 -59 0 0 1 23 0 1 0 1
phys
0 -112 -50 -59 0 0 1 23 0 1 0 1
0 -112 -50 -68 0 0 1 23 0 1 0 1
0 -97 -50 -59 0 0 1 23 0 1 0 1
phys
0 -112 50 -59 0 0 1 23 0 1 0 1
0 -112 50 -68 0 0 1 23 0 1 0 1
0 -112 -50 -68 0 0 1 23 0 1 0 1
phys
0 -112 50 -59 0 0 1 23 0 1 0 1
0 -112 -50 -68 0 0 1 23 0 1 0 1
0 -112 -50 -59 0 0 1 23 0 1 0 1
phys
0 -112 -50 -59 0 0 1 23 0 1 0 1
0 -97 -50 -59 0 0 1 23 0 1 0 1
0 -97 50 -59 0 0 1 23 0 1 0 1
phys
0 -112 -50 -59 0 0 1 23 0 1 0 1
0 -97 50 -59 0 0 1 23 0 1 0 1
0 -112 50 -59 0 0 1 23 0 1 0 1
phys
0 23 50 13 0 0 1 24 0 1 0 1
0 23 50 22 0 0 1 24 0 1 0 1
0 38 50 22 0 0 1 24 0 1 0 1
phys
0 38 -50 22 0 0 1 24 0 1 0 1
0 23 -50 22 0 0 1 24 0 1 0 1
0 23 -50 13 0 0 1 24 0 1 0 1
phys
0 23 -50 13 0 0 1 24 0 1 0 1
0 23 -50 22 0 0 1 24 0 1 0 1
0 23 50 22 0 0 1 24 0 1 0 1
phys
0 23 -50 13 0 0 1 24 0 1 0 1
0 23 50 22 0 0 1 24 0 1 0 1
0 23 50 13 0 0 1 24 0 1 0 1
phys
0 23 -50 22 0 0 1 24 0 1 0 1
0 38 -50 22 0 0 1 24 0 1 0 1
0 38 50 22 0 0 1 24 0 1 0 1
phys
0 23 -50 22 0 0 1 24 0 1 0 1
0 38 50 22 0 0 1 24 0 1 0 1
0 23 50 22 0 0 1 24 0 1 0 1
phys
0 38 -50 22 0 0 1 24 0 1 0 1
0 23 -50 13 0 0 1 24 0 1 0 1
0 23 50 13 0 0 1 24 0 1 0 1
phys
0 38 -50 22 0 0 1 24 0 1 0 1
0 23 50 13 0 0 1 24 0 1 0 1
0 38 50 22 0 0 1 24 0 1 0 1
end
