version 1
nodes
0 "root" -1
end
skeleton
time 0
0 0 0 0 0 0 0
end
triangles
phys
0 64 8 -306 0 0 1 1 0 1 0 1
0 64 8 -314 0 0 1 1 0 1 0 1
0 -66 8 -314 0 0 1 1 0 1 0 1
phys
0 64 8 -306 0 0 1 1 0 1 0 1
0 -66 8 -314 0 0 1 1 0 1 0 1
0 -66 8 -306 0 0 1 1 0 1 0 1
phys
0 -66 -4 -306 0 0 1 1 0 1 0 1
0 -66 8 -306 0 0 1 1 0 1 0 1
0 -66 8 -314 0 0 1 1 0 1 0 1
phys
0 64 8 -314 0 0 1 1 0 1 0 1
0 64 8 -306 0 0 1 1 0 1 0 1
0 64 -4 -306 0 0 1 1 0 1 0 1
phys
0 64 -4 -306 0 0 1 1 0 1 0 1
0 64 8 -306 0 0 1 1 0 1 0 1
0 -66 8 -306 0 0 1 1 0 1 0 1
phys
0 64 -4 -306 0 0 1 1 0 1 0 1
0 -66 8 -306 0 0 1 1 0 1 0 1
0 -66 -4 -306 0 0 1 1 0 1 0 1
phys
0 -66 -4 -306 0 0 1 1 0 1 0 1
0 -66 8 -314 0 0 1 1 0 1 0 1
0 64 8 -314 0 0 1 1 0 1 0 1
phys
0 -66 -4 -306 0 0 1 1 0 1 0 1
0 64 8 -314 0 0 1 1 0 1 0 1
0 64 -4 -306 0 0 1 1 0 1 0 1
phys
0 64 -468 -122 0 0 1 2 0 1 0 1
0 64 -468 -130 0 0 1 2 0 1 0 1
0 -66 -468 -130 0 0 1 2 0 1 0 1
phys
0 64 -468 -122 0 0 1 2 0 1 0 1
0 -66 -468 -130 0 0 1 2 0 1 0 1
0 -66 -468 -122 0 0 1 2 0 1 0 1
phys
0 -66 -480 -122 0 0 1 2 0 1 0 1
0 -66 -468 -122 0 0 1 2 0 1 0 1
0 -66 -468 -130 0 0 1 2 0 1 0 1
phys
0 64 -468 -130 0 0 1 2 0 1 0 1
0 64 -468 -122 0 0 1 2 0 1 0 1
0 64 -480 -122 0 0 1 2 0 1 0 1
phys
0 64 -480 -122 0 0 1 2 0 1 0 1
0 64 -468 -122 0 0 1 2 0 1 0 1
0 -66 -468 -122 0 0 1 2 0 1 0 1
phys
0 64 -480 -122 0 0 1 2 0 1 0 1
0 -66 -468 -122 0 0 1 2 0 1 0 1
0 -66 -480 -122 0 0 1 2 0 1 0 1
phys
0 -66 -480 -122 0 0 1 2 0 1 0 1
0 -66 -468 -130 0 0 1 2 0 1 0 1
0 64 -468 -130 0 0 1 2 0 1 0 1
phys
0 -66 -480 -122 0 0 1 2 0 1 0 1
0 64 -468 -130 0 0 1 2 0 1 0 1
0 64 -480 -122 0 0 1 2 0 1 0 1
phys
0 64 -112 -226 0 0 1 3 0 1 0 1
0 64 -124 -226 0 0 1 3 0 1 0 1
0 64 -112 -234 0 0 1 3 0 1 0 1
phys
0 -66 -124 -226 0 0 1 3 0 1 0 1
0 64 -124 -226 0 0 1 3 0 1 0 1
0 64 -112 -226 0 0 1 3 0 1 0 1
phys
0 -66 -124 -226 0 0 1 3 0 1 0 1
0 64 -112 -226 0 0 1 3 0 1 0 1
0 -66 -112 -226 0 0 1 3 0 1 0 1
phys
0 -66 -112 -234 0 0 1 3 0 1 0 1
0 64 -112 -234 0 0 1 3 0 1 0 1
0 64 -124 -226 0 0 1 3 0 1 0 1
phys
0 -66 -112 -234 0 0 1 3 0 1 0 1
0 64 -124 -226 0 0 1 3 0 1 0 1
0 -66 -124 -226 0 0 1 3 0 1 0 1
phys
0 64 -112 -226 0 0 1 3 0 1 0 1
0 64 -112 -234 0 0 1 3 0 1 0 1
0 -66 -112 -234 0 0 1 3 0 1 0 1
phys
0 64 -112 -226 0 0 1 3 0 1 0 1
0 -66 -112 -234 0 0 1 3 0 1 0 1
0 -66 -112 -226 0 0 1 3 0 1 0 1
phys
0 -66 -124 -226 0 0 1 3 0 1 0 1
0 -66 -112 -226 0 0 1 3 0 1 0 1
0 -66 -112 -234 0 0 1 3 0 1 0 1
phys
0 64 -408 -162 0 0 1 4 0 1 0 1
0 64 -408 -170 0 0 1 4 0 1 0 1
0 -66 -408 -170 0 0 1 4 0 1 0 1
phys
0 64 -408 -162 0 0 1 4 0 1 0 1
0 -66 -408 -170 0 0 1 4 0 1 0 1
0 -66 -408 -162 0 0 1 4 0 1 0 1
phys
0 -66 -420 -162 0 0 1 4 0 1 0 1
0 -66 -408 -162 0 0 1 4 0 1 0 1
0 -66 -408 -170 0 0 1 4 0 1 0 1
phys
0 64 -408 -170 0 0 1 4 0 1 0 1
0 64 -408 -162 0 0 1 4 0 1 0 1
0 64 -420 -162 0 0 1 4 0 1 0 1
phys
0 64 -420 -162 0 0 1 4 0 1 0 1
0 64 -408 -162 0 0 1 4 0 1 0 1
0 -66 -408 -162 0 0 1 4 0 1 0 1
phys
0 64 -420 -162 0 0 1 4 0 1 0 1
0 -66 -408 -162 0 0 1 4 0 1 0 1
0 -66 -420 -162 0 0 1 4 0 1 0 1
phys
0 -66 -420 -162 0 0 1 4 0 1 0 1
0 -66 -408 -170 0 0 1 4 0 1 0 1
0 64 -408 -170 0 0 1 4 0 1 0 1
phys
0 -66 -420 -162 0 0 1 4 0 1 0 1
0 64 -408 -170 0 0 1 4 0 1 0 1
0 64 -420 -162 0 0 1 4 0 1 0 1
phys
0 64 -348 -202 0 0 1 5 0 1 0 1
0 64 -348 -210 0 0 1 5 0 1 0 1
0 -66 -348 -210 0 0 1 5 0 1 0 1
phys
0 64 -348 -202 0 0 1 5 0 1 0 1
0 -66 -348 -210 0 0 1 5 0 1 0 1
0 -66 -348 -202 0 0 1 5 0 1 0 1
phys
0 -66 -360 -202 0 0 1 5 0 1 0 1
0 -66 -348 -202 0 0 1 5 0 1 0 1
0 -66 -348 -210 0 0 1 5 0 1 0 1
phys
0 64 -348 -210 0 0 1 5 0 1 0 1
0 64 -348 -202 0 0 1 5 0 1 0 1
0 64 -360 -202 0 0 1 5 0 1 0 1
phys
0 64 -360 -202 0 0 1 5 0 1 0 1
0 64 -348 -202 0 0 1 5 0 1 0 1
0 -66 -348 -202 0 0 1 5 0 1 0 1
phys
0 64 -360 -202 0 0 1 5 0 1 0 1
0 -66 -348 -202 0 0 1 5 0 1 0 1
0 -66 -360 -202 0 0 1 5 0 1 0 1
phys
0 -66 -360 -202 0 0 1 5 0 1 0 1
0 -66 -348 -210 0 0 1 5 0 1 0 1
0 64 -348 -210 0 0 1 5 0 1 0 1
phys
0 -66 -360 -202 0 0 1 5 0 1 0 1
0 64 -348 -210 0 0 1 5 0 1 0 1
0 64 -360 -202 0 0 1 5 0 1 0 1
phys
0 64 -52 -266 0 0 1 6 0 1 0 1
0 64 -52 -274 0 0 1 6 0 1 0 1
0 -66 -52 -274 0 0 1 6 0 1 0 1
phys
0 64 -52 -266 0 0 1 6 0 1 0 1
0 -66 -52 -274 0 0 1 6 0 1 0 1
0 -66 -52 -266 0 0 1 6 0 1 0 1
phys
0 -66 -64 -266 0 0 1 6 0 1 0 1
0 -66 -52 -266 0 0 1 6 0 1 0 1
0 -66 -52 -274 0 0 1 6 0 1 0 1
phys
0 64 -52 -274 0 0 1 6 0 1 0 1
0 64 -52 -266 0 0 1 6 0 1 0 1
0 64 -64 -266 0 0 1 6 0 1 0 1
phys
0 64 -64 -266 0 0 1 6 0 1 0 1
0 64 -52 -266 0 0 1 6 0 1 0 1
0 -66 -52 -266 0 0 1 6 0 1 0 1
phys
0 64 -64 -266 0 0 1 6 0 1 0 1
0 -66 -52 -266 0 0 1 6 0 1 0 1
0 -66 -64 -266 0 0 1 6 0 1 0 1
phys
0 -66 -64 -266 0 0 1 6 0 1 0 1
0 -66 -52 -274 0 0 1 6 0 1 0 1
0 64 -52 -274 0 0 1 6 0 1 0 1
phys
0 -66 -64 -266 0 0 1 6 0 1 0 1
0 64 -52 -274 0 0 1 6 0 1 0 1
0 64 -64 -266 0 0 1 6 0 1 0 1
phys
0 64 -124 -218 0 0 1 7 0 1 0 1
0 64 -124 -226 0 0 1 7 0 1 0 1
0 -66 -124 -226 0 0 1 7 0 1 0 1
phys
0 64 -124 -218 0 0 1 7 0 1 0 1
0 -66 -124 -226 0 0 1 7 0 1 0 1
0 -66 -124 -218 0 0 1 7 0 1 0 1
phys
0 -66 -136 -218 0 0 1 7 0 1 0 1
0 -66 -124 -218 0 0 1 7 0 1 0 1
0 -66 -124 -226 0 0 1 7 0 1 0 1
phys
0 64 -124 -226 0 0 1 7 0 1 0 1
0 64 -124 -218 0 0 1 7 0 1 0 1
0 64 -136 -218 0 0 1 7 0 1 0 1
phys
0 64 -136 -218 0 0 1 7 0 1 0 1
0 64 -124 -218 0 0 1 7 0 1 0 1
0 -66 -124 -218 0 0 1 7 0 1 0 1
phys
0 64 -136 -218 0 0 1 7 0 1 0 1
0 -66 -124 -218 0 0 1 7 0 1 0 1
0 -66 -136 -218 0 0 1 7 0 1 0 1
phys
0 -66 -136 -218 0 0 1 7 0 1 0 1
0 -66 -124 -226 0 0 1 7 0 1 0 1
0 64 -124 -226 0 0 1 7 0 1 0 1
phys
0 -66 -136 -218 0 0 1 7 0 1 0 1
0 64 -124 -226 0 0 1 7 0 1 0 1
0 64 -136 -218 0 0 1 7 0 1 0 1
phys
0 -66 8 -314 0 0 1 8 0 1 0 1
0 64 8 -314 0 0 1 8 0 1 0 1
0 64 20 -314 0 0 1 8 0 1 0 1
phys
0 -66 8 -314 0 0 1 8 0 1 0 1
0 64 20 -314 0 0 1 8 0 1 0 1
0 -66 20 -314 0 0 1 8 0 1 0 1
phys
0 64 8 -314 0 0 1 8 0 1 0 1
0 -66 8 -314 0 0 1 8 0 1 0 1
0 -66 20 -322 0 0 1 8 0 1 0 1
phys
0 64 8 -314 0 0 1 8 0 1 0 1
0 -66 20 -322 0 0 1 8 0 1 0 1
0 64 20 -322 0 0 1 8 0 1 0 1
phys
0 64 20 -322 0 0 1 8 0 1 0 1
0 -66 20 -322 0 0 1 8 0 1 0 1
0 -66 20 -314 0 0 1 8 0 1 0 1
phys
0 64 20 -322 0 0 1 8 0 1 0 1
0 -66 20 -314 0 0 1 8 0 1 0 1
0 64 20 -314 0 0 1 8 0 1 0 1
phys
0 -66 8 -314 0 0 1 8 0 1 0 1
0 -66 20 -314 0 0 1 8 0 1 0 1
0 -66 20 -322 0 0 1 8 0 1 0 1
phys
0 64 20 -314 0 0 1 8 0 1 0 1
0 64 8 -314 0 0 1 8 0 1 0 1
0 64 20 -322 0 0 1 8 0 1 0 1
phys
0 64 -372 -186 0 0 1 9 0 1 0 1
0 64 -372 -194 0 0 1 9 0 1 0 1
0 -66 -372 -194 0 0 1 9 0 1 0 1
phys
0 64 -372 -186 0 0 1 9 0 1 0 1
0 -66 -372 -194 0 0 1 9 0 1 0 1
0 -66 -372 -186 0 0 1 9 0 1 0 1
phys
0 -66 -384 -186 0 0 1 9 0 1 0 1
0 -66 -372 -186 0 0 1 9 0 1 0 1
0 -66 -372 -194 0 0 1 9 0 1 0 1
phys
0 64 -372 -194 0 0 1 9 0 1 0 1
0 64 -372 -186 0 0 1 9 0 1 0 1
0 64 -384 -186 0 0 1 9 0 1 0 1
phys
0 64 -384 -186 0 0 1 9 0 1 0 1
0 64 -372 -186 0 0 1 9 0 1 0 1
0 -66 -372 -186 0 0 1 9 0 1 0 1
phys
0 64 -384 -186 0 0 1 9 0 1 0 1
0 -66 -372 -186 0 0 1 9 0 1 0 1
0 -66 -384 -186 0 0 1 9 0 1 0 1
phys
0 -66 -384 -186 0 0 1 9 0 1 0 1
0 -66 -372 -194 0 0 1 9 0 1 0 1
0 64 -372 -194 0 0 1 9 0 1 0 1
phys
0 -66 -384 -186 0 0 1 9 0 1 0 1
0 64 -372 -194 0 0 1 9 0 1 0 1
0 64 -384 -186 0 0 1 9 0 1 0 1
phys
0 64 -456 -130 0 0 1 10 0 1 0 1
0 64 -456 -138 0 0 1 10 0 1 0 1
0 -66 -456 -138 0 0 1 10 0 1 0 1
phys
0 64 -456 -130 0 0 1 10 0 1 0 1
0 -66 -456 -138 0 0 1 10 0 1 0 1
0 -66 -456 -130 0 0 1 10 0 1 0 1
phys
0 -66 -468 -130 0 0 1 10 0 1 0 1
0 -66 -456 -130 0 0 1 10 0 1 0 1
0 -66 -456 -138 0 0 1 10 0 1 0 1
phys
0 64 -456 -138 0 0 1 10 0 1 0 1
0 64 -456 -130 0 0 1 10 0 1 0 1
0 64 -468 -130 0 0 1 10 0 1 0 1
phys
0 64 -468 -130 0 0 1 10 0 1 0 1
0 64 -456 -130 0 0 1 10 0 1 0 1
0 -66 -456 -130 0 0 1 10 0 1 0 1
phys
0 64 -468 -130 0 0 1 10 0 1 0 1
0 -66 -456 -130 0 0 1 10 0 1 0 1
0 -66 -468 -130 0 0 1 10 0 1 0 1
phys
0 -66 -468 -130 0 0 1 10 0 1 0 1
0 -66 -456 -138 0 0 1 10 0 1 0 1
0 64 -456 -138 0 0 1 10 0 1 0 1
phys
0 -66 -468 -130 0 0 1 10 0 1 0 1
0 64 -456 -138 0 0 1 10 0 1 0 1
0 64 -468 -130 0 0 1 10 0 1 0 1
phys
0 64 -76 -250 0 0 1 11 0 1 0 1
0 64 -76 -258 0 0 1 11 0 1 0 1
0 -66 -76 -258 0 0 1 11 0 1 0 1
phys
0 64 -76 -250 0 0 1 11 0 1 0 1
0 -66 -76 -258 0 0 1 11 0 1 0 1
0 -66 -76 -250 0 0 1 11 0 1 0 1
phys
0 -66 -88 -250 0 0 1 11 0 1 0 1
0 -66 -76 -250 0 0 1 11 0 1 0 1
0 -66 -76 -258 0 0 1 11 0 1 0 1
phys
0 64 -76 -258 0 0 1 11 0 1 0 1
0 64 -76 -250 0 0 1 11 0 1 0 1
0 64 -88 -250 0 0 1 11 0 1 0 1
phys
0 64 -88 -250 0 0 1 11 0 1 0 1
0 64 -76 -250 0 0 1 11 0 1 0 1
0 -66 -76 -250 0 0 1 11 0 1 0 1
phys
0 64 -88 -250 0 0 1 11 0 1 0 1
0 -66 -76 -250 0 0 1 11 0 1 0 1
0 -66 -88 -250 0 0 1 11 0 1 0 1
phys
0 -66 -88 -250 0 0 1 11 0 1 0 1
0 -66 -76 -258 0 0 1 11 0 1 0 1
0 64 -76 -258 0 0 1 11 0 1 0 1
phys
0 -66 -88 -250 0 0 1 11 0 1 0 1
0 64 -76 -258 0 0 1 11 0 1 0 1
0 64 -88 -250 0 0 1 11 0 1 0 1
phys
0 64 32 -322 0 0 1 12 0 1 0 1
0 64 32 -330 0 0 1 12 0 1 0 1
0 -66 32 -330 0 0 1 12 0 1 0 1
phys
0 64 32 -322 0 0 1 12 0 1 0 1
0 -66 32 -330 0 0 1 12 0 1 0 1
0 -66 32 -322 0 0 1 12 0 1 0 1
phys
0 -66 20 -322 0 0 1 12 0 1 0 1
0 -66 32 -322 0 0 1 12 0 1 0 1
0 -66 32 -330 0 0 1 12 0 1 0 1
phys
0 64 32 -330 0 0 1 12 0 1 0 1
0 64 32 -322 0 0 1 12 0 1 0 1
0 64 20 -322 0 0 1 12 0 1 0 1
phys
0 64 20 -322 0 0 1 12 0 1 0 1
0 64 32 -322 0 0 1 12 0 1 0 1
0 -66 32 -322 0 0 1 12 0 1 0 1
phys
0 64 20 -322 0 0 1 12 0 1 0 1
0 -66 32 -322 0 0 1 12 0 1 0 1
0 -66 20 -322 0 0 1 12 0 1 0 1
phys
0 -66 20 -322 0 0 1 12 0 1 0 1
0 -66 32 -330 0 0 1 12 0 1 0 1
0 64 32 -330 0 0 1 12 0 1 0 1
phys
0 -66 20 -322 0 0 1 12 0 1 0 1
0 64 32 -330 0 0 1 12 0 1 0 1
0 64 20 -322 0 0 1 12 0 1 0 1
phys
0 64 -432 -146 0 0 1 13 0 1 0 1
0 64 -432 -154 0 0 1 13 0 1 0 1
0 -66 -432 -154 0 0 1 13 0 1 0 1
phys
0 64 -432 -146 0 0 1 13 0 1 0 1
0 -66 -432 -154 0 0 1 13 0 1 0 1
0 -66 -432 -146 0 0 1 13 0 1 0 1
phys
0 -66 -444 -146 0 0 1 13 0 1 0 1
0 -66 -432 -146 0 0 1 13 0 1 0 1
0 -66 -432 -154 0 0 1 13 0 1 0 1
phys
0 64 -432 -154 0 0 1 13 0 1 0 1
0 64 -432 -146 0 0 1 13 0 1 0 1
0 64 -444 -146 0 0 1 13 0 1 0 1
phys
0 64 -444 -146 0 0 1 13 0 1 0 1
0 64 -432 -146 0 0 1 13 0 1 0 1
0 -66 -432 -146 0 0 1 13 0 1 0 1
phys
0 64 -444 -146 0 0 1 13 0 1 0 1
0 -66 -432 -146 0 0 1 13 0 1 0 1
0 -66 -444 -146 0 0 1 13 0 1 0 1
phys
0 -66 -444 -146 0 0 1 13 0 1 0 1
0 -66 -432 -154 0 0 1 13 0 1 0 1
0 64 -432 -154 0 0 1 13 0 1 0 1
phys
0 -66 -444 -146 0 0 1 13 0 1 0 1
0 64 -432 -154 0 0 1 13 0 1 0 1
0 64 -444 -146 0 0 1 13 0 1 0 1
phys
0 65 -148 -210 0 0 1 14 0 1 0 1
0 65 -148 -215 0 0 1 14 0 1 0 1
0 -65 -148 -215 0 0 1 14 0 1 0 1
phys
0 65 -148 -210 0 0 1 14 0 1 0 1
0 -65 -148 -215 0 0 1 14 0 1 0 1
0 -65 -148 -210 0 0 1 14 0 1 0 1
phys
0 65 -348 -215 0 0 1 14 0 1 0 1
0 65 -348 -210 0 0 1 14 0 1 0 1
0 -65 -348 -210 0 0 1 14 0 1 0 1
phys
0 65 -348 -215 0 0 1 14 0 1 0 1
0 -65 -348 -210 0 0 1 14 0 1 0 1
0 -65 -348 -215 0 0 1 14 0 1 0 1
phys
0 -65 -348 -215 0 0 1 14 0 1 0 1
0 -65 -348 -210 0 0 1 14 0 1 0 1
0 -65 -148 -210 0 0 1 14 0 1 0 1
phys
0 -65 -348 -215 0 0 1 14 0 1 0 1
0 -65 -148 -210 0 0 1 14 0 1 0 1
0 -65 -148 -215 0 0 1 14 0 1 0 1
phys
0 65 -348 -210 0 0 1 14 0 1 0 1
0 65 -348 -215 0 0 1 14 0 1 0 1
0 65 -148 -215 0 0 1 14 0 1 0 1
phys
0 65 -348 -210 0 0 1 14 0 1 0 1
0 65 -148 -215 0 0 1 14 0 1 0 1
0 65 -148 -210 0 0 1 14 0 1 0 1
phys
0 65 -348 -215 0 0 1 14 0 1 0 1
0 -65 -348 -215 0 0 1 14 0 1 0 1
0 -65 -148 -215 0 0 1 14 0 1 0 1
phys
0 65 -348 -215 0 0 1 14 0 1 0 1
0 -65 -148 -215 0 0 1 14 0 1 0 1
0 65 -148 -215 0 0 1 14 0 1 0 1
phys
0 -65 -348 -210 0 0 1 14 0 1 0 1
0 65 -348 -210 0 0 1 14 0 1 0 1
0 65 -148 -210 0 0 1 14 0 1 0 1
phys
0 -65 -348 -210 0 0 1 14 0 1 0 1
0 65 -148 -210 0 0 1 14 0 1 0 1
0 -65 -148 -210 0 0 1 14 0 1 0 1
phys
0 -66 -456 -138 0 0 1 15 0 1 0 1
0 -66 -444 -138 0 0 1 15 0 1 0 1
0 -66 -444 -146 0 0 1 15 0 1 0 1
phys
0 64 -444 -138 0 0 1 15 0 1 0 1
0 64 -456 -138 0 0 1 15 0 1 0 1
0 64 -444 -146 0 0 1 15 0 1 0 1
phys
0 64 -456 -138 0 0 1 15 0 1 0 1
0 64 -444 -138 0 0 1 15 0 1 0 1
0 -66 -444 -138 0 0 1 15 0 1 0 1
phys
0 64 -456 -138 0 0 1 15 0 1 0 1
0 -66 -444 -138 0 0 1 15 0 1 0 1
0 -66 -456 -138 0 0 1 15 0 1 0 1
phys
0 -66 -456 -138 0 0 1 15 0 1 0 1
0 -66 -444 -146 0 0 1 15 0 1 0 1
0 64 -444 -146 0 0 1 15 0 1 0 1
phys
0 -66 -456 -138 0 0 1 15 0 1 0 1
0 64 -444 -146 0 0 1 15 0 1 0 1
0 64 -456 -138 0 0 1 15 0 1 0 1
phys
0 64 -444 -138 0 0 1 15 0 1 0 1
0 64 -444 -146 0 0 1 15 0 1 0 1
0 -66 -444 -146 0 0 1 15 0 1 0 1
phys
0 64 -444 -138 0 0 1 15 0 1 0 1
0 -66 -444 -146 0 0 1 15 0 1 0 1
0 -66 -444 -138 0 0 1 15 0 1 0 1
phys
0 -66 -408 -170 0 0 1 16 0 1 0 1
0 -66 -396 -178 0 0 1 16 0 1 0 1
0 64 -396 -178 0 0 1 16 0 1 0 1
phys
0 -66 -408 -170 0 0 1 16 0 1 0 1
0 64 -396 -178 0 0 1 16 0 1 0 1
0 64 -408 -170 0 0 1 16 0 1 0 1
phys
0 64 -396 -170 0 0 1 16 0 1 0 1
0 64 -396 -178 0 0 1 16 0 1 0 1
0 -66 -396 -178 0 0 1 16 0 1 0 1
phys
0 64 -396 -170 0 0 1 16 0 1 0 1
0 -66 -396 -178 0 0 1 16 0 1 0 1
0 -66 -396 -170 0 0 1 16 0 1 0 1
phys
0 -66 -396 -170 0 0 1 16 0 1 0 1
0 -66 -396 -178 0 0 1 16 0 1 0 1
0 -66 -408 -170 0 0 1 16 0 1 0 1
phys
0 64 -408 -170 0 0 1 16 0 1 0 1
0 64 -396 -178 0 0 1 16 0 1 0 1
0 64 -396 -170 0 0 1 16 0 1 0 1
phys
0 -66 -408 -170 0 0 1 16 0 1 0 1
0 64 -408 -170 0 0 1 16 0 1 0 1
0 64 -396 -170 0 0 1 16 0 1 0 1
phys
0 -66 -408 -170 0 0 1 16 0 1 0 1
0 64 -396 -170 0 0 1 16 0 1 0 1
0 -66 -396 -170 0 0 1 16 0 1 0 1
phys
0 -66 -100 -242 0 0 1 17 0 1 0 1
0 64 -100 -242 0 0 1 17 0 1 0 1
0 64 -88 -242 0 0 1 17 0 1 0 1
phys
0 -66 -100 -242 0 0 1 17 0 1 0 1
0 64 -88 -242 0 0 1 17 0 1 0 1
0 -66 -88 -242 0 0 1 17 0 1 0 1
phys
0 64 -100 -242 0 0 1 17 0 1 0 1
0 -66 -100 -242 0 0 1 17 0 1 0 1
0 -66 -88 -250 0 0 1 17 0 1 0 1
phys
0 64 -100 -242 0 0 1 17 0 1 0 1
0 -66 -88 -250 0 0 1 17 0 1 0 1
0 64 -88 -250 0 0 1 17 0 1 0 1
phys
0 64 -88 -250 0 0 1 17 0 1 0 1
0 -66 -88 -250 0 0 1 17 0 1 0 1
0 -66 -88 -242 0 0 1 17 0 1 0 1
phys
0 64 -88 -250 0 0 1 17 0 1 0 1
0 -66 -88 -242 0 0 1 17 0 1 0 1
0 64 -88 -242 0 0 1 17 0 1 0 1
phys
0 -66 -100 -242 0 0 1 17 0 1 0 1
0 -66 -88 -242 0 0 1 17 0 1 0 1
0 -66 -88 -250 0 0 1 17 0 1 0 1
phys
0 64 -88 -242 0 0 1 17 0 1 0 1
0 64 -100 -242 0 0 1 17 0 1 0 1
0 64 -88 -250 0 0 1 17 0 1 0 1
phys
0 64 -40 -274 0 0 1 18 0 1 0 1
0 64 -40 -282 0 0 1 18 0 1 0 1
0 -66 -40 -282 0 0 1 18 0 1 0 1
phys
0 64 -40 -274 0 0 1 18 0 1 0 1
0 -66 -40 -282 0 0 1 18 0 1 0 1
0 -66 -40 -274 0 0 1 18 0 1 0 1
phys
0 -66 -52 -274 0 0 1 18 0 1 0 1
0 -66 -40 -274 0 0 1 18 0 1 0 1
0 -66 -40 -282 0 0 1 18 0 1 0 1
phys
0 64 -40 -282 0 0 1 18 0 1 0 1
0 64 -40 -274 0 0 1 18 0 1 0 1
0 64 -52 -274 0 0 1 18 0 1 0 1
phys
0 64 -52 -274 0 0 1 18 0 1 0 1
0 64 -40 -274 0 0 1 18 0 1 0 1
0 -66 -40 -274 0 0 1 18 0 1 0 1
phys
0 64 -52 -274 0 0 1 18 0 1 0 1
0 -66 -40 -274 0 0 1 18 0 1 0 1
0 -66 -52 -274 0 0 1 18 0 1 0 1
phys
0 -66 -52 -274 0 0 1 18 0 1 0 1
0 -66 -40 -282 0 0 1 18 0 1 0 1
0 64 -40 -282 0 0 1 18 0 1 0 1
phys
0 -66 -52 -274 0 0 1 18 0 1 0 1
0 64 -40 -282 0 0 1 18 0 1 0 1
0 64 -52 -274 0 0 1 18 0 1 0 1
phys
0 -66 -372 -194 0 0 1 19 0 1 0 1
0 -66 -360 -194 0 0 1 19 0 1 0 1
0 -66 -360 -202 0 0 1 19 0 1 0 1
phys
0 64 -360 -194 0 0 1 19 0 1 0 1
0 64 -372 -194 0 0 1 19 0 1 0 1
0 64 -360 -202 0 0 1 19 0 1 0 1
phys
0 64 -372 -194 0 0 1 19 0 1 0 1
0 64 -360 -194 0 0 1 19 0 1 0 1
0 -66 -360 -194 0 0 1 19 0 1 0 1
phys
0 64 -372 -194 0 0 1 19 0 1 0 1
0 -66 -360 -194 0 0 1 19 0 1 0 1
0 -66 -372 -194 0 0 1 19 0 1 0 1
phys
0 -66 -372 -194 0 0 1 19 0 1 0 1
0 -66 -360 -202 0 0 1 19 0 1 0 1
0 64 -360 -202 0 0 1 19 0 1 0 1
phys
0 -66 -372 -194 0 0 1 19 0 1 0 1
0 64 -360 -202 0 0 1 19 0 1 0 1
0 64 -372 -194 0 0 1 19 0 1 0 1
phys
0 64 -360 -194 0 0 1 19 0 1 0 1
0 64 -360 -202 0 0 1 19 0 1 0 1
0 -66 -360 -202 0 0 1 19 0 1 0 1
phys
0 64 -360 -194 0 0 1 19 0 1 0 1
0 -66 -360 -202 0 0 1 19 0 1 0 1
0 -66 -360 -194 0 0 1 19 0 1 0 1
phys
0 64 -384 -178 0 0 1 20 0 1 0 1
0 64 -384 -186 0 0 1 20 0 1 0 1
0 -66 -384 -186 0 0 1 20 0 1 0 1
phys
0 64 -384 -178 0 0 1 20 0 1 0 1
0 -66 -384 -186 0 0 1 20 0 1 0 1
0 -66 -384 -178 0 0 1 20 0 1 0 1
phys
0 -66 -396 -178 0 0 1 20 0 1 0 1
0 -66 -384 -178 0 0 1 20 0 1 0 1
0 -66 -384 -186 0 0 1 20 0 1 0 1
phys
0 64 -384 -186 0 0 1 20 0 1 0 1
0 64 -384 -178 0 0 1 20 0 1 0 1
0 64 -396 -178 0 0 1 20 0 1 0 1
phys
0 64 -396 -178 0 0 1 20 0 1 0 1
0 64 -384 -178 0 0 1 20 0 1 0 1
0 -66 -384 -178 0 0 1 20 0 1 0 1
phys
0 64 -396 -178 0 0 1 20 0 1 0 1
0 -66 -384 -178 0 0 1 20 0 1 0 1
0 -66 -396 -178 0 0 1 20 0 1 0 1
phys
0 -66 -396 -178 0 0 1 20 0 1 0 1
0 -66 -384 -186 0 0 1 20 0 1 0 1
0 64 -384 -186 0 0 1 20 0 1 0 1
phys
0 -66 -396 -178 0 0 1 20 0 1 0 1
0 64 -384 -186 0 0 1 20 0 1 0 1
0 64 -396 -178 0 0 1 20 0 1 0 1
phys
0 64 -16 -290 0 0 1 21 0 1 0 1
0 64 -16 -298 0 0 1 21 0 1 0 1
0 -66 -16 -298 0 0 1 21 0 1 0 1
phys
0 64 -16 -290 0 0 1 21 0 1 0 1
0 -66 -16 -298 0 0 1 21 0 1 0 1
0 -66 -16 -290 0 0 1 21 0 1 0 1
phys
0 -66 -28 -290 0 0 1 21 0 1 0 1
0 -66 -16 -290 0 0 1 21 0 1 0 1
0 -66 -16 -298 0 0 1 21 0 1 0 1
phys
0 64 -16 -298 0 0 1 21 0 1 0 1
0 64 -16 -290 0 0 1 21 0 1 0 1
0 64 -28 -290 0 0 1 21 0 1 0 1
phys
0 64 -28 -290 0 0 1 21 0 1 0 1
0 64 -16 -290 0 0 1 21 0 1 0 1
0 -66 -16 -290 0 0 1 21 0 1 0 1
phys
0 64 -28 -290 0 0 1 21 0 1 0 1
0 -66 -16 -290 0 0 1 21 0 1 0 1
0 -66 -28 -290 0 0 1 21 0 1 0 1
phys
0 -66 -28 -290 0 0 1 21 0 1 0 1
0 -66 -16 -298 0 0 1 21 0 1 0 1
0 64 -16 -298 0 0 1 21 0 1 0 1
phys
0 -66 -28 -290 0 0 1 21 0 1 0 1
0 64 -16 -298 0 0 1 21 0 1 0 1
0 64 -28 -290 0 0 1 21 0 1 0 1
phys
0 -66 -432 -154 0 0 1 22 0 1 0 1
0 64 -432 -154 0 0 1 22 0 1 0 1
0 64 -420 -154 0 0 1 22 0 1 0 1
phys
0 -66 -432 -154 0 0 1 22 0 1 0 1
0 64 -420 -154 0 0 1 22 0 1 0 1
0 -66 -420 -154 0 0 1 22 0 1 0 1
phys
0 64 -432 -154 0 0 1 22 0 1 0 1
0 -66 -432 -154 0 0 1 22 0 1 0 1
0 -66 -420 -162 0 0 1 22 0 1 0 1
phys
0 64 -432 -154 0 0 1 22 0 1 0 1
0 -66 -420 -162 0 0 1 22 0 1 0 1
0 64 -420 -162 0 0 1 22 0 1 0 1
phys
0 64 -420 -162 0 0 1 22 0 1 0 1
0 -66 -420 -162 0 0 1 22 0 1 0 1
0 -66 -420 -154 0 0 1 22 0 1 0 1
phys
0 64 -420 -162 0 0 1 22 0 1 0 1
0 -66 -420 -154 0 0 1 22 0 1 0 1
0 64 -420 -154 0 0 1 22 0 1 0 1
phys
0 -66 -432 -154 0 0 1 22 0 1 0 1
0 -66 -420 -154 0 0 1 22 0 1 0 1
0 -66 -420 -162 0 0 1 22 0 1 0 1
phys
0 64 -420 -154 0 0 1 22 0 1 0 1
0 64 -432 -154 0 0 1 22 0 1 0 1
0 64 -420 -162 0 0 1 22 0 1 0 1
phys
0 -66 -148 -210 0 0 1 23 0 1 0 1
0 -66 -136 -210 0 0 1 23 0 1 0 1
0 -66 -136 -218 0 0 1 23 0 1 0 1
phys
0 64 -136 -210 0 0 1 23 0 1 0 1
0 64 -148 -210 0 0 1 23 0 1 0 1
0 64 -136 -218 0 0 1 23 0 1 0 1
phys
0 64 -148 -210 0 0 1 23 0 1 0 1
0 64 -136 -210 0 0 1 23 0 1 0 1
0 -66 -136 -210 0 0 1 23 0 1 0 1
phys
0 64 -148 -210 0 0 1 23 0 1 0 1
0 -66 -136 -210 0 0 1 23 0 1 0 1
0 -66 -148 -210 0 0 1 23 0 1 0 1
phys
0 -66 -148 -210 0 0 1 23 0 1 0 1
0 -66 -136 -218 0 0 1 23 0 1 0 1
0 64 -136 -218 0 0 1 23 0 1 0 1
phys
0 -66 -148 -210 0 0 1 23 0 1 0 1
0 64 -136 -218 0 0 1 23 0 1 0 1
0 64 -148 -210 0 0 1 23 0 1 0 1
phys
0 64 -136 -210 0 0 1 23 0 1 0 1
0 64 -136 -218 0 0 1 23 0 1 0 1
0 -66 -136 -218 0 0 1 23 0 1 0 1
phys
0 64 -136 -210 0 0 1 23 0 1 0 1
0 -66 -136 -218 0 0 1 23 0 1 0 1
0 -66 -136 -210 0 0 1 23 0 1 0 1
phys
0 -66 -16 -298 0 0 1 24 0 1 0 1
0 64 -16 -298 0 0 1 24 0 1 0 1
0 64 -4 -298 0 0 1 24 0 1 0 1
phys
0 -66 -16 -298 0 0 1 24 0 1 0 1
0 64 -4 -298 0 0 1 24 0 1 0 1
0 -66 -4 -298 0 0 1 24 0 1 0 1
phys
0 64 -16 -298 0 0 1 24 0 1 0 1
0 -66 -16 -298 0 0 1 24 0 1 0 1
0 -66 -4 -306 0 0 1 24 0 1 0 1
phys
0 64 -16 -298 0 0 1 24 0 1 0 1
0 -66 -4 -306 0 0 1 24 0 1 0 1
0 64 -4 -306 0 0 1 24 0 1 0 1
phys
0 64 -4 -306 0 0 1 24 0 1 0 1
0 -66 -4 -306 0 0 1 24 0 1 0 1
0 -66 -4 -298 0 0 1 24 0 1 0 1
phys
0 64 -4 -306 0 0 1 24 0 1 0 1
0 -66 -4 -298 0 0 1 24 0 1 0 1
0 64 -4 -298 0 0 1 24 0 1 0 1
phys
0 -66 -16 -298 0 0 1 24 0 1 0 1
0 -66 -4 -298 0 0 1 24 0 1 0 1
0 -66 -4 -306 0 0 1 24 0 1 0 1
phys
0 64 -4 -298 0 0 1 24 0 1 0 1
0 64 -16 -298 0 0 1 24 0 1 0 1
0 64 -4 -306 0 0 1 24 0 1 0 1
phys
0 64 -100 -234 0 0 1 25 0 1 0 1
0 64 -100 -242 0 0 1 25 0 1 0 1
0 -66 -100 -242 0 0 1 25 0 1 0 1
phys
0 64 -100 -234 0 0 1 25 0 1 0 1
0 -66 -100 -242 0 0 1 25 0 1 0 1
0 -66 -100 -234 0 0 1 25 0 1 0 1
phys
0 -66 -112 -234 0 0 1 25 0 1 0 1
0 -66 -100 -234 0 0 1 25 0 1 0 1
0 -66 -100 -242 0 0 1 25 0 1 0 1
phys
0 64 -100 -242 0 0 1 25 0 1 0 1
0 64 -100 -234 0 0 1 25 0 1 0 1
0 64 -112 -234 0 0 1 25 0 1 0 1
phys
0 64 -112 -234 0 0 1 25 0 1 0 1
0 64 -100 -234 0 0 1 25 0 1 0 1
0 -66 -100 -234 0 0 1 25 0 1 0 1
phys
0 64 -112 -234 0 0 1 25 0 1 0 1
0 -66 -100 -234 0 0 1 25 0 1 0 1
0 -66 -112 -234 0 0 1 25 0 1 0 1
phys
0 -66 -112 -234 0 0 1 25 0 1 0 1
0 -66 -100 -242 0 0 1 25 0 1 0 1
0 64 -100 -242 0 0 1 25 0 1 0 1
phys
0 -66 -112 -234 0 0 1 25 0 1 0 1
0 64 -100 -242 0 0 1 25 0 1 0 1
0 64 -112 -234 0 0 1 25 0 1 0 1
phys
0 -65 -148 76 0 0 1 26 0 1 0 1
0 65 -148 76 0 0 1 26 0 1 0 1
0 65 147 76 0 0 1 26 0 1 0 1
phys
0 -65 -148 76 0 0 1 26 0 1 0 1
0 65 147 76 0 0 1 26 0 1 0 1
0 -65 147 76 0 0 1 26 0 1 0 1
phys
0 65 -148 36.00001 0 0 1 26 0 1 0 1
0 -65 -148 35.998153 0 0 1 26 0 1 0 1
0 -65 91.15 -75 0 0 1 26 0 1 0 1
phys
0 65 -148 36.00001 0 0 1 26 0 1 0 1
0 -65 91.15 -75 0 0 1 26 0 1 0 1
0 65 91.154 -75 0 0 1 26 0 1 0 1
phys
0 -65 147 -75 0 0 1 26 0 1 0 1
0 -65 147 76 0 0 1 26 0 1 0 1
0 65 147 76 0 0 1 26 0 1 0 1
phys
0 -65 147 -75 0 0 1 26 0 1 0 1
0 65 147 76 0 0 1 26 0 1 0 1
0 65 147 -75 0 0 1 26 0 1 0 1
phys
0 65 -148 76 0 0 1 26 0 1 0 1
0 -65 -148 76 0 0 1 26 0 1 0 1
0 -65 -148 35.998153 0 0 1 26 0 1 0 1
phys
0 65 -148 76 0 0 1 26 0 1 0 1
0 -65 -148 35.998153 0 0 1 26 0 1 0 1
0 65 -148 36.00001 0 0 1 26 0 1 0 1
phys
0 -65 -148 76 0 0 1 26 0 1 0 1
0 -65 147 76 0 0 1 26 0 1 0 1
0 -65 147 -75 0 0 1 26 0 1 0 1
phys
0 -65 -148 76 0 0 1 26 0 1 0 1
0 -65 147 -75 0 0 1 26 0 1 0 1
0 -65 91.15 -75 0 0 1 26 0 1 0 1
phys
0 -65 -148 76 0 0 1 26 0 1 0 1
0 -65 91.15 -75 0 0 1 26 0 1 0 1
0 -65 -148 35.998153 0 0 1 26 0 1 0 1
phys
0 65 147 76 0 0 1 26 0 1 0 1
0 65 -148 76 0 0 1 26 0 1 0 1
0 65 -148 36.00001 0 0 1 26 0 1 0 1
phys
0 65 147 76 0 0 1 26 0 1 0 1
0 65 -148 36.00001 0 0 1 26 0 1 0 1
0 65 91.154 -75 0 0 1 26 0 1 0 1
phys
0 65 147 76 0 0 1 26 0 1 0 1
0 65 91.154 -75 0 0 1 26 0 1 0 1
0 65 147 -75 0 0 1 26 0 1 0 1
phys
0 65 91.154 -75 0 0 1 26 0 1 0 1
0 -65 91.15 -75 0 0 1 26 0 1 0 1
0 -65 147 -75 0 0 1 26 0 1 0 1
phys
0 65 91.154 -75 0 0 1 26 0 1 0 1
0 -65 147 -75 0 0 1 26 0 1 0 1
0 65 147 -75 0 0 1 26 0 1 0 1
phys
0 -66 -40 -282 0 0 1 27 0 1 0 1
0 -66 -28 -282 0 0 1 27 0 1 0 1
0 -66 -28 -290 0 0 1 27 0 1 0 1
phys
0 64 -28 -282 0 0 1 27 0 1 0 1
0 64 -40 -282 0 0 1 27 0 1 0 1
0 64 -28 -290 0 0 1 27 0 1 0 1
phys
0 64 -40 -282 0 0 1 27 0 1 0 1
0 64 -28 -282 0 0 1 27 0 1 0 1
0 -66 -28 -282 0 0 1 27 0 1 0 1
phys
0 64 -40 -282 0 0 1 27 0 1 0 1
0 -66 -28 -282 0 0 1 27 0 1 0 1
0 -66 -40 -282 0 0 1 27 0 1 0 1
phys
0 -66 -40 -282 0 0 1 27 0 1 0 1
0 -66 -28 -290 0 0 1 27 0 1 0 1
0 64 -28 -290 0 0 1 27 0 1 0 1
phys
0 -66 -40 -282 0 0 1 27 0 1 0 1
0 64 -28 -290 0 0 1 27 0 1 0 1
0 64 -40 -282 0 0 1 27 0 1 0 1
phys
0 64 -28 -282 0 0 1 27 0 1 0 1
0 64 -28 -290 0 0 1 27 0 1 0 1
0 -66 -28 -290 0 0 1 27 0 1 0 1
phys
0 64 -28 -282 0 0 1 27 0 1 0 1
0 -66 -28 -290 0 0 1 27 0 1 0 1
0 -66 -28 -282 0 0 1 27 0 1 0 1
phys
0 64 -64 -258 0 0 1 28 0 1 0 1
0 64 -64 -266 0 0 1 28 0 1 0 1
0 -66 -64 -266 0 0 1 28 0 1 0 1
phys
0 64 -64 -258 0 0 1 28 0 1 0 1
0 -66 -64 -266 0 0 1 28 0 1 0 1
0 -66 -64 -258 0 0 1 28 0 1 0 1
phys
0 -66 -76 -258 0 0 1 28 0 1 0 1
0 -66 -64 -258 0 0 1 28 0 1 0 1
0 -66 -64 -266 0 0 1 28 0 1 0 1
phys
0 64 -64 -266 0 0 1 28 0 1 0 1
0 64 -64 -258 0 0 1 28 0 1 0 1
0 64 -76 -258 0 0 1 28 0 1 0 1
phys
0 64 -76 -258 0 0 1 28 0 1 0 1
0 64 -64 -258 0 0 1 28 0 1 0 1
0 -66 -64 -258 0 0 1 28 0 1 0 1
phys
0 64 -76 -258 0 0 1 28 0 1 0 1
0 -66 -64 -258 0 0 1 28 0 1 0 1
0 -66 -76 -258 0 0 1 28 0 1 0 1
phys
0 -66 -76 -258 0 0 1 28 0 1 0 1
0 -66 -64 -266 0 0 1 28 0 1 0 1
0 64 -64 -266 0 0 1 28 0 1 0 1
phys
0 -66 -76 -258 0 0 1 28 0 1 0 1
0 64 -64 -266 0 0 1 28 0 1 0 1
0 64 -76 -258 0 0 1 28 0 1 0 1
end
