version 1
nodes
0 "root" -1
end
skeleton
time 0
0 0 0 0 0 0 0
end
triangles
phys
0 63 -61 -6 0 0 1 1 0 1 0 1
0 63 61 -6 0 0 1 1 0 1 0 1
0 63 61 6 0 0 1 1 0 1 0 1
phys
0 63 -61 -6 0 0 1 1 0 1 0 1
0 63 61 6 0 0 1 1 0 1 0 1
0 63 -61 6 0 0 1 1 0 1 0 1
phys
0 -62 61 -6 0 0 1 1 0 1 0 1
0 63 61 -6 0 0 1 1 0 1 0 1
0 63 -61 -6 0 0 1 1 0 1 0 1
phys
0 -62 61 -6 0 0 1 1 0 1 0 1
0 63 -61 -6 0 0 1 1 0 1 0 1
0 -62 -61 -6 0 0 1 1 0 1 0 1
phys
0 -62 -61 6 0 0 1 1 0 1 0 1
0 63 -61 6 0 0 1 1 0 1 0 1
0 63 61 6 0 0 1 1 0 1 0 1
phys
0 -62 -61 6 0 0 1 1 0 1 0 1
0 63 61 6 0 0 1 1 0 1 0 1
0 -62 61 6 0 0 1 1 0 1 0 1
phys
0 63 61 6 0 0 1 1 0 1 0 1
0 63 61 -6 0 0 1 1 0 1 0 1
0 -62 61 -6 0 0 1 1 0 1 0 1
phys
0 63 61 6 0 0 1 1 0 1 0 1
0 -62 61 -6 0 0 1 1 0 1 0 1
0 -62 61 6 0 0 1 1 0 1 0 1
phys
0 63 -61 -6 0 0 1 1 0 1 0 1
0 63 -61 6 0 0 1 1 0 1 0 1
0 -62 -61 6 0 0 1 1 0 1 0 1
phys
0 63 -61 -6 0 0 1 1 0 1 0 1
0 -62 -61 6 0 0 1 1 0 1 0 1
0 -62 -61 -6 0 0 1 1 0 1 0 1
phys
0 -62 -61 6 0 0 1 1 0 1 0 1
0 -62 61 6 0 0 1 1 0 1 0 1
0 -62 61 -6 0 0 1 1 0 1 0 1
phys
0 -62 -61 6 0 0 1 1 0 1 0 1
0 -62 61 -6 0 0 1 1 0 1 0 1
0 -62 -61 -6 0 0 1 1 0 1 0 1
phys
0 -168 67 -49 0 0 1 2 0 1 0 1
0 -168 67 -41 0 0 1 2 0 1 0 1
0 -152 67 -41 0 0 1 2 0 1 0 1
phys
0 -152 -57 -41 0 0 1 2 0 1 0 1
0 -168 -57 -41 0 0 1 2 0 1 0 1
0 -168 -57 -49 0 0 1 2 0 1 0 1
phys
0 -168 -57 -49 0 0 1 2 0 1 0 1
0 -168 -57 -41 0 0 1 2 0 1 0 1
0 -168 67 -41 0 0 1 2 0 1 0 1
phys
0 -168 -57 -49 0 0 1 2 0 1 0 1
0 -168 67 -41 0 0 1 2 0 1 0 1
0 -168 67 -49 0 0 1 2 0 1 0 1
phys
0 -168 -57 -41 0 0 1 2 0 1 0 1
0 -152 -57 -41 0 0 1 2 0 1 0 1
0 -152 67 -41 0 0 1 2 0 1 0 1
phys
0 -168 -57 -41 0 0 1 2 0 1 0 1
0 -152 67 -41 0 0 1 2 0 1 0 1
0 -168 67 -41 0 0 1 2 0 1 0 1
phys
0 -152 -57 -41 0 0 1 2 0 1 0 1
0 -168 -57 -49 0 0 1 2 0 1 0 1
0 -168 67 -49 0 0 1 2 0 1 0 1
phys
0 -152 -57 -41 0 0 1 2 0 1 0 1
0 -168 67 -49 0 0 1 2 0 1 0 1
0 -152 67 -41 0 0 1 2 0 1 0 1
phys
0 -280 67 -105 0 0 1 3 0 1 0 1
0 -280 67 -97 0 0 1 3 0 1 0 1
0 -264 67 -97 0 0 1 3 0 1 0 1
phys
0 -264 -57 -97 0 0 1 3 0 1 0 1
0 -280 -57 -97 0 0 1 3 0 1 0 1
0 -280 -57 -105 0 0 1 3 0 1 0 1
phys
0 -280 -57 -105 0 0 1 3 0 1 0 1
0 -280 -57 -97 0 0 1 3 0 1 0 1
0 -280 67 -97 0 0 1 3 0 1 0 1
phys
0 -280 -57 -105 0 0 1 3 0 1 0 1
0 -280 67 -97 0 0 1 3 0 1 0 1
0 -280 67 -105 0 0 1 3 0 1 0 1
phys
0 -280 -57 -97 0 0 1 3 0 1 0 1
0 -264 -57 -97 0 0 1 3 0 1 0 1
0 -264 67 -97 0 0 1 3 0 1 0 1
phys
0 -280 -57 -97 0 0 1 3 0 1 0 1
0 -264 67 -97 0 0 1 3 0 1 0 1
0 -280 67 -97 0 0 1 3 0 1 0 1
phys
0 -264 -57 -97 0 0 1 3 0 1 0 1
0 -280 -57 -105 0 0 1 3 0 1 0 1
0 -280 67 -105 0 0 1 3 0 1 0 1
phys
0 -264 -57 -97 0 0 1 3 0 1 0 1
0 -280 67 -105 0 0 1 3 0 1 0 1
0 -264 67 -97 0 0 1 3 0 1 0 1
phys
0 -216 -57 -65 0 0 1 4 0 1 0 1
0 -200 -57 -65 0 0 1 4 0 1 0 1
0 -200 67 -65 0 0 1 4 0 1 0 1
phys
0 -216 -57 -65 0 0 1 4 0 1 0 1
0 -200 67 -65 0 0 1 4 0 1 0 1
0 -216 67 -65 0 0 1 4 0 1 0 1
phys
0 -216 67 -73 0 0 1 4 0 1 0 1
0 -200 67 -65 0 0 1 4 0 1 0 1
0 -200 -57 -65 0 0 1 4 0 1 0 1
phys
0 -216 67 -73 0 0 1 4 0 1 0 1
0 -200 -57 -65 0 0 1 4 0 1 0 1
0 -216 -57 -73 0 0 1 4 0 1 0 1
phys
0 -216 67 -65 0 0 1 4 0 1 0 1
0 -200 67 -65 0 0 1 4 0 1 0 1
0 -216 67 -73 0 0 1 4 0 1 0 1
phys
0 -200 -57 -65 0 0 1 4 0 1 0 1
0 -216 -57 -65 0 0 1 4 0 1 0 1
0 -216 -57 -73 0 0 1 4 0 1 0 1
phys
0 -216 -57 -65 0 0 1 4 0 1 0 1
0 -216 67 -65 0 0 1 4 0 1 0 1
0 -216 67 -73 0 0 1 4 0 1 0 1
phys
0 -216 -57 -65 0 0 1 4 0 1 0 1
0 -216 67 -73 0 0 1 4 0 1 0 1
0 -216 -57 -73 0 0 1 4 0 1 0 1
phys
0 -264 67 -97 0 0 1 5 0 1 0 1
0 -264 67 -89 0 0 1 5 0 1 0 1
0 -248 67 -89 0 0 1 5 0 1 0 1
phys
0 -248 -57 -89 0 0 1 5 0 1 0 1
0 -264 -57 -89 0 0 1 5 0 1 0 1
0 -264 -57 -97 0 0 1 5 0 1 0 1
phys
0 -264 -57 -97 0 0 1 5 0 1 0 1
0 -264 -57 -89 0 0 1 5 0 1 0 1
0 -264 67 -89 0 0 1 5 0 1 0 1
phys
0 -264 -57 -97 0 0 1 5 0 1 0 1
0 -264 67 -89 0 0 1 5 0 1 0 1
0 -264 67 -97 0 0 1 5 0 1 0 1
phys
0 -264 -57 -89 0 0 1 5 0 1 0 1
0 -248 -57 -89 0 0 1 5 0 1 0 1
0 -248 67 -89 0 0 1 5 0 1 0 1
phys
0 -264 -57 -89 0 0 1 5 0 1 0 1
0 -248 67 -89 0 0 1 5 0 1 0 1
0 -264 67 -89 0 0 1 5 0 1 0 1
phys
0 -248 -57 -89 0 0 1 5 0 1 0 1
0 -264 -57 -97 0 0 1 5 0 1 0 1
0 -264 67 -97 0 0 1 5 0 1 0 1
phys
0 -248 -57 -89 0 0 1 5 0 1 0 1
0 -264 67 -97 0 0 1 5 0 1 0 1
0 -248 67 -89 0 0 1 5 0 1 0 1
phys
0 -88 -57 -1 0 0 1 6 0 1 0 1
0 -72 -57 -1 0 0 1 6 0 1 0 1
0 -72 67 -1 0 0 1 6 0 1 0 1
phys
0 -88 -57 -1 0 0 1 6 0 1 0 1
0 -72 67 -1 0 0 1 6 0 1 0 1
0 -88 67 -1 0 0 1 6 0 1 0 1
phys
0 -88 67 -9 0 0 1 6 0 1 0 1
0 -72 67 -1 0 0 1 6 0 1 0 1
0 -72 -57 -1 0 0 1 6 0 1 0 1
phys
0 -88 67 -9 0 0 1 6 0 1 0 1
0 -72 -57 -1 0 0 1 6 0 1 0 1
0 -88 -57 -9 0 0 1 6 0 1 0 1
phys
0 -88 67 -1 0 0 1 6 0 1 0 1
0 -72 67 -1 0 0 1 6 0 1 0 1
0 -88 67 -9 0 0 1 6 0 1 0 1
phys
0 -72 -57 -1 0 0 1 6 0 1 0 1
0 -88 -57 -1 0 0 1 6 0 1 0 1
0 -88 -57 -9 0 0 1 6 0 1 0 1
phys
0 -88 -57 -1 0 0 1 6 0 1 0 1
0 -88 67 -1 0 0 1 6 0 1 0 1
0 -88 67 -9 0 0 1 6 0 1 0 1
phys
0 -88 -57 -1 0 0 1 6 0 1 0 1
0 -88 67 -9 0 0 1 6 0 1 0 1
0 -88 -57 -9 0 0 1 6 0 1 0 1
phys
0 73 71 -6 0 0 1 7 0 1 0 1
0 73 71 -26 0 0 1 7 0 1 0 1
0 53 71 -26 0 0 1 7 0 1 0 1
phys
0 73 71 -6 0 0 1 7 0 1 0 1
0 53 71 -26 0 0 1 7 0 1 0 1
0 53 71 -6 0 0 1 7 0 1 0 1
phys
0 73 -61 -26 0 0 1 7 0 1 0 1
0 73 -61 -6 0 0 1 7 0 1 0 1
0 53 -61 -6 0 0 1 7 0 1 0 1
phys
0 73 -61 -26 0 0 1 7 0 1 0 1
0 53 -61 -6 0 0 1 7 0 1 0 1
0 53 -61 -26 0 0 1 7 0 1 0 1
phys
0 53 -61 -26 0 0 1 7 0 1 0 1
0 53 -61 -6 0 0 1 7 0 1 0 1
0 53 71 -6 0 0 1 7 0 1 0 1
phys
0 53 -61 -26 0 0 1 7 0 1 0 1
0 53 71 -6 0 0 1 7 0 1 0 1
0 53 71 -26 0 0 1 7 0 1 0 1
phys
0 73 -61 -6 0 0 1 7 0 1 0 1
0 73 -61 -26 0 0 1 7 0 1 0 1
0 73 71 -26 0 0 1 7 0 1 0 1
phys
0 73 -61 -6 0 0 1 7 0 1 0 1
0 73 71 -26 0 0 1 7 0 1 0 1
0 73 71 -6 0 0 1 7 0 1 0 1
phys
0 73 -61 -26 0 0 1 7 0 1 0 1
0 53 -61 -26 0 0 1 7 0 1 0 1
0 53 71 -26 0 0 1 7 0 1 0 1
phys
0 73 -61 -26 0 0 1 7 0 1 0 1
0 53 71 -26 0 0 1 7 0 1 0 1
0 73 71 -26 0 0 1 7 0 1 0 1
phys
0 53 -61 -6 0 0 1 7 0 1 0 1
0 73 -61 -6 0 0 1 7 0 1 0 1
0 73 71 -6 0 0 1 7 0 1 0 1
phys
0 53 -61 -6 0 0 1 7 0 1 0 1
0 73 71 -6 0 0 1 7 0 1 0 1
0 53 71 -6 0 0 1 7 0 1 0 1
phys
0 -52 61 -6 0 0 1 8 0 1 0 1
0 -52 61 -26 0 0 1 8 0 1 0 1
0 -72 61 -26 0 0 1 8 0 1 0 1
phys
0 -52 61 -6 0 0 1 8 0 1 0 1
0 -72 61 -26 0 0 1 8 0 1 0 1
0 -72 61 -6 0 0 1 8 0 1 0 1
phys
0 -52 -64 -26 0 0 1 8 0 1 0 1
0 -52 -64 -6 0 0 1 8 0 1 0 1
0 -72 -64 -6 0 0 1 8 0 1 0 1
phys
0 -52 -64 -26 0 0 1 8 0 1 0 1
0 -72 -64 -6 0 0 1 8 0 1 0 1
0 -72 -64 -26 0 0 1 8 0 1 0 1
phys
0 -72 -64 -26 0 0 1 8 0 1 0 1
0 -72 -64 -6 0 0 1 8 0 1 0 1
0 -72 61 -6 0 0 1 8 0 1 0 1
phys
0 -72 -64 -26 0 0 1 8 0 1 0 1
0 -72 61 -6 0 0 1 8 0 1 0 1
0 -72 61 -26 0 0 1 8 0 1 0 1
phys
0 -52 -64 -6 0 0 1 8 0 1 0 1
0 -52 -64 -26 0 0 1 8 0 1 0 1
0 -52 61 -26 0 0 1 8 0 1 0 1
phys
0 -52 -64 -6 0 0 1 8 0 1 0 1
0 -52 61 -26 0 0 1 8 0 1 0 1
0 -52 61 -6 0 0 1 8 0 1 0 1
phys
0 -52 -64 -26 0 0 1 8 0 1 0 1
0 -72 -64 -26 0 0 1 8 0 1 0 1
0 -72 61 -26 0 0 1 8 0 1 0 1
phys
0 -52 -64 -26 0 0 1 8 0 1 0 1
0 -72 61 -26 0 0 1 8 0 1 0 1
0 -52 61 -26 0 0 1 8 0 1 0 1
phys
0 -72 -64 -6 0 0 1 8 0 1 0 1
0 -52 -64 -6 0 0 1 8 0 1 0 1
0 -52 61 -6 0 0 1 8 0 1 0 1
phys
0 -72 -64 -6 0 0 1 8 0 1 0 1
0 -52 61 -6 0 0 1 8 0 1 0 1
0 -72 61 -6 0 0 1 8 0 1 0 1
phys
0 -72 -61 -1 0 0 1 9 0 1 0 1
0 -354 -61 -142 0 0 1 9 0 1 0 1
0 -354 -57 -142 0 0 1 9 0 1 0 1
phys
0 -72 -61 -1 0 0 1 9 0 1 0 1
0 -354 -57 -142 0 0 1 9 0 1 0 1
0 -72 -57 -1 0 0 1 9 0 1 0 1
phys
0 -360 -61 -136.992 0 0 1 9 0 1 0 1
0 -88 -61 -1 0 0 1 9 0 1 0 1
0 -88 -57 -1 0 0 1 9 0 1 0 1
phys
0 -360 -61 -136.992 0 0 1 9 0 1 0 1
0 -88 -57 -1 0 0 1 9 0 1 0 1
0 -360 -57 -136.992 0 0 1 9 0 1 0 1
phys
0 -72 -57 -1 0 0 1 9 0 1 0 1
0 -354 -57 -142 0 0 1 9 0 1 0 1
0 -360 -57 -142 0 0 1 9 0 1 0 1
phys
0 -72 -57 -1 0 0 1 9 0 1 0 1
0 -360 -57 -142 0 0 1 9 0 1 0 1
0 -360 -57 -136.992 0 0 1 9 0 1 0 1
phys
0 -72 -57 -1 0 0 1 9 0 1 0 1
0 -360 -57 -136.992 0 0 1 9 0 1 0 1
0 -88 -57 -1 0 0 1 9 0 1 0 1
phys
0 -88 -61 -1 0 0 1 9 0 1 0 1
0 -360 -61 -136.992 0 0 1 9 0 1 0 1
0 -360 -61 -142 0 0 1 9 0 1 0 1
phys
0 -88 -61 -1 0 0 1 9 0 1 0 1
0 -360 -61 -142 0 0 1 9 0 1 0 1
0 -354 -61 -142 0 0 1 9 0 1 0 1
phys
0 -88 -61 -1 0 0 1 9 0 1 0 1
0 -354 -61 -142 0 0 1 9 0 1 0 1
0 -72 -61 -1 0 0 1 9 0 1 0 1
phys
0 -360 -61 -136.992 0 0 1 9 0 1 0 1
0 -360 -57 -136.992 0 0 1 9 0 1 0 1
0 -360 -57 -142 0 0 1 9 0 1 0 1
phys
0 -360 -61 -136.992 0 0 1 9 0 1 0 1
0 -360 -57 -142 0 0 1 9 0 1 0 1
0 -360 -61 -142 0 0 1 9 0 1 0 1
phys
0 -360 -57 -142 0 0 1 9 0 1 0 1
0 -354 -57 -142 0 0 1 9 0 1 0 1
0 -354 -61 -142 0 0 1 9 0 1 0 1
phys
0 -360 -57 -142 0 0 1 9 0 1 0 1
0 -354 -61 -142 0 0 1 9 0 1 0 1
0 -360 -61 -142 0 0 1 9 0 1 0 1
phys
0 -72 -61 -1 0 0 1 9 0 1 0 1
0 -72 -57 -1 0 0 1 9 0 1 0 1
0 -88 -57 -1 0 0 1 9 0 1 0 1
phys
0 -72 -61 -1 0 0 1 9 0 1 0 1
0 -88 -57 -1 0 0 1 9 0 1 0 1
0 -88 -61 -1 0 0 1 9 0 1 0 1
phys
0 -62 61 6 0 0 1 10 0 1 0 1
0 -62 61 -6 0 0 1 10 0 1 0 1
0 -72 61 -6 0 0 1 10 0 1 0 1
phys
0 -62 61 6 0 0 1 10 0 1 0 1
0 -72 61 -6 0 0 1 10 0 1 0 1
0 -72 61 6 0 0 1 10 0 1 0 1
phys
0 -62 -61 -6 0 0 1 10 0 1 0 1
0 -62 -61 6 0 0 1 10 0 1 0 1
0 -72 -61 6 0 0 1 10 0 1 0 1
phys
0 -62 -61 -6 0 0 1 10 0 1 0 1
0 -72 -61 6 0 0 1 10 0 1 0 1
0 -72 -61 -6 0 0 1 10 0 1 0 1
phys
0 -72 -61 -6 0 0 1 10 0 1 0 1
0 -72 -61 6 0 0 1 10 0 1 0 1
0 -72 61 6 0 0 1 10 0 1 0 1
phys
0 -72 -61 -6 0 0 1 10 0 1 0 1
0 -72 61 6 0 0 1 10 0 1 0 1
0 -72 61 -6 0 0 1 10 0 1 0 1
phys
0 -62 -61 6 0 0 1 10 0 1 0 1
0 -62 -61 -6 0 0 1 10 0 1 0 1
0 -62 61 -6 0 0 1 10 0 1 0 1
phys
0 -62 -61 6 0 0 1 10 0 1 0 1
0 -62 61 -6 0 0 1 10 0 1 0 1
0 -62 61 6 0 0 1 10 0 1 0 1
phys
0 -62 -61 -6 0 0 1 10 0 1 0 1
0 -72 -61 -6 0 0 1 10 0 1 0 1
0 -72 61 -6 0 0 1 10 0 1 0 1
phys
0 -62 -61 -6 0 0 1 10 0 1 0 1
0 -72 61 -6 0 0 1 10 0 1 0 1
0 -62 61 -6 0 0 1 10 0 1 0 1
phys
0 -72 -61 6 0 0 1 10 0 1 0 1
0 -62 -61 6 0 0 1 10 0 1 0 1
0 -62 61 6 0 0 1 10 0 1 0 1
phys
0 -72 -61 6 0 0 1 10 0 1 0 1
0 -62 61 6 0 0 1 10 0 1 0 1
0 -72 61 6 0 0 1 10 0 1 0 1
phys
0 -232 -57 -73 0 0 1 11 0 1 0 1
0 -232 67 -73 0 0 1 11 0 1 0 1
0 -232 67 -81 0 0 1 11 0 1 0 1
phys
0 -232 -57 -73 0 0 1 11 0 1 0 1
0 -232 67 -81 0 0 1 11 0 1 0 1
0 -232 -57 -81 0 0 1 11 0 1 0 1
phys
0 -216 -57 -73 0 0 1 11 0 1 0 1
0 -216 67 -73 0 0 1 11 0 1 0 1
0 -232 67 -73 0 0 1 11 0 1 0 1
phys
0 -216 -57 -73 0 0 1 11 0 1 0 1
0 -232 67 -73 0 0 1 11 0 1 0 1
0 -232 -57 -73 0 0 1 11 0 1 0 1
phys
0 -232 -57 -81 0 0 1 11 0 1 0 1
0 -232 67 -81 0 0 1 11 0 1 0 1
0 -216 67 -73 0 0 1 11 0 1 0 1
phys
0 -232 -57 -81 0 0 1 11 0 1 0 1
0 -216 67 -73 0 0 1 11 0 1 0 1
0 -216 -57 -73 0 0 1 11 0 1 0 1
phys
0 -232 67 -81 0 0 1 11 0 1 0 1
0 -232 67 -73 0 0 1 11 0 1 0 1
0 -216 67 -73 0 0 1 11 0 1 0 1
phys
0 -216 -57 -73 0 0 1 11 0 1 0 1
0 -232 -57 -73 0 0 1 11 0 1 0 1
0 -232 -57 -81 0 0 1 11 0 1 0 1
phys
0 -152 67 -41 0 0 1 12 0 1 0 1
0 -152 67 -33 0 0 1 12 0 1 0 1
0 -136 67 -33 0 0 1 12 0 1 0 1
phys
0 -136 -57 -33 0 0 1 12 0 1 0 1
0 -152 -57 -33 0 0 1 12 0 1 0 1
0 -152 -57 -41 0 0 1 12 0 1 0 1
phys
0 -152 -57 -41 0 0 1 12 0 1 0 1
0 -152 -57 -33 0 0 1 12 0 1 0 1
0 -152 67 -33 0 0 1 12 0 1 0 1
phys
0 -152 -57 -41 0 0 1 12 0 1 0 1
0 -152 67 -33 0 0 1 12 0 1 0 1
0 -152 67 -41 0 0 1 12 0 1 0 1
phys
0 -152 -57 -33 0 0 1 12 0 1 0 1
0 -136 -57 -33 0 0 1 12 0 1 0 1
0 -136 67 -33 0 0 1 12 0 1 0 1
phys
0 -152 -57 -33 0 0 1 12 0 1 0 1
0 -136 67 -33 0 0 1 12 0 1 0 1
0 -152 67 -33 0 0 1 12 0 1 0 1
phys
0 -136 -57 -33 0 0 1 12 0 1 0 1
0 -152 -57 -41 0 0 1 12 0 1 0 1
0 -152 67 -41 0 0 1 12 0 1 0 1
phys
0 -136 -57 -33 0 0 1 12 0 1 0 1
0 -152 67 -41 0 0 1 12 0 1 0 1
0 -136 67 -33 0 0 1 12 0 1 0 1
phys
0 63 -78 -142 0 0 1 13 0 1 0 1
0 63 -64 -142 0 0 1 13 0 1 0 1
0 63 -64 -26 0 0 1 13 0 1 0 1
phys
0 63 -78 -142 0 0 1 13 0 1 0 1
0 63 -64 -26 0 0 1 13 0 1 0 1
0 63 -78 -26 0 0 1 13 0 1 0 1
phys
0 43 -64 -142 0 0 1 13 0 1 0 1
0 46 -61 -142 0 0 1 13 0 1 0 1
0 60 -61 -142 0 0 1 13 0 1 0 1
phys
0 43 -64 -142 0 0 1 13 0 1 0 1
0 60 -61 -142 0 0 1 13 0 1 0 1
0 63 -64 -142 0 0 1 13 0 1 0 1
phys
0 43 -64 -142 0 0 1 13 0 1 0 1
0 63 -64 -142 0 0 1 13 0 1 0 1
0 63 -78 -142 0 0 1 13 0 1 0 1
phys
0 43 -64 -142 0 0 1 13 0 1 0 1
0 63 -78 -142 0 0 1 13 0 1 0 1
0 60 -81 -142 0 0 1 13 0 1 0 1
phys
0 43 -64 -142 0 0 1 13 0 1 0 1
0 60 -81 -142 0 0 1 13 0 1 0 1
0 46 -81 -142 0 0 1 13 0 1 0 1
phys
0 43 -64 -142 0 0 1 13 0 1 0 1
0 46 -81 -142 0 0 1 13 0 1 0 1
0 43 -78 -142 0 0 1 13 0 1 0 1
phys
0 60 -81 -26 0 0 1 13 0 1 0 1
0 63 -78 -26 0 0 1 13 0 1 0 1
0 63 -64 -26 0 0 1 13 0 1 0 1
phys
0 60 -81 -26 0 0 1 13 0 1 0 1
0 63 -64 -26 0 0 1 13 0 1 0 1
0 60 -61 -26 0 0 1 13 0 1 0 1
phys
0 60 -81 -26 0 0 1 13 0 1 0 1
0 60 -61 -26 0 0 1 13 0 1 0 1
0 46 -61 -26 0 0 1 13 0 1 0 1
phys
0 60 -81 -26 0 0 1 13 0 1 0 1
0 46 -61 -26 0 0 1 13 0 1 0 1
0 43 -64 -26 0 0 1 13 0 1 0 1
phys
0 60 -81 -26 0 0 1 13 0 1 0 1
0 43 -64 -26 0 0 1 13 0 1 0 1
0 43 -78 -26 0 0 1 13 0 1 0 1
phys
0 60 -81 -26 0 0 1 13 0 1 0 1
0 43 -78 -26 0 0 1 13 0 1 0 1
0 46 -81 -26 0 0 1 13 0 1 0 1
phys
0 63 -64 -26 0 0 1 13 0 1 0 1
0 63 -64 -142 0 0 1 13 0 1 0 1
0 60 -61 -142 0 0 1 13 0 1 0 1
phys
0 63 -64 -26 0 0 1 13 0 1 0 1
0 60 -61 -142 0 0 1 13 0 1 0 1
0 60 -61 -26 0 0 1 13 0 1 0 1
phys
0 43 -64 -26 0 0 1 13 0 1 0 1
0 46 -61 -26 0 0 1 13 0 1 0 1
0 46 -61 -142 0 0 1 13 0 1 0 1
phys
0 43 -64 -26 0 0 1 13 0 1 0 1
0 46 -61 -142 0 0 1 13 0 1 0 1
0 43 -64 -142 0 0 1 13 0 1 0 1
phys
0 60 -81 -142 0 0 1 13 0 1 0 1
0 63 -78 -142 0 0 1 13 0 1 0 1
0 63 -78 -26 0 0 1 13 0 1 0 1
phys
0 60 -81 -142 0 0 1 13 0 1 0 1
0 63 -78 -26 0 0 1 13 0 1 0 1
0 60 -81 -26 0 0 1 13 0 1 0 1
phys
0 46 -81 -26 0 0 1 13 0 1 0 1
0 43 -78 -26 0 0 1 13 0 1 0 1
0 43 -78 -142 0 0 1 13 0 1 0 1
phys
0 46 -81 -26 0 0 1 13 0 1 0 1
0 43 -78 -142 0 0 1 13 0 1 0 1
0 46 -81 -142 0 0 1 13 0 1 0 1
phys
0 60 -61 -142 0 0 1 13 0 1 0 1
0 46 -61 -142 0 0 1 13 0 1 0 1
0 46 -61 -26 0 0 1 13 0 1 0 1
phys
0 60 -61 -142 0 0 1 13 0 1 0 1
0 46 -61 -26 0 0 1 13 0 1 0 1
0 60 -61 -26 0 0 1 13 0 1 0 1
phys
0 60 -81 -26 0 0 1 13 0 1 0 1
0 46 -81 -26 0 0 1 13 0 1 0 1
0 46 -81 -142 0 0 1 13 0 1 0 1
phys
0 60 -81 -26 0 0 1 13 0 1 0 1
0 46 -81 -142 0 0 1 13 0 1 0 1
0 60 -81 -142 0 0 1 13 0 1 0 1
phys
0 43 -78 -26 0 0 1 13 0 1 0 1
0 43 -64 -26 0 0 1 13 0 1 0 1
0 43 -64 -142 0 0 1 13 0 1 0 1
phys
0 43 -78 -26 0 0 1 13 0 1 0 1
0 43 -64 -142 0 0 1 13 0 1 0 1
0 43 -78 -142 0 0 1 13 0 1 0 1
phys
0 60 71 -142 0 0 1 14 0 1 0 1
0 46 71 -142 0 0 1 14 0 1 0 1
0 46 71 -26 0 0 1 14 0 1 0 1
phys
0 60 71 -142 0 0 1 14 0 1 0 1
0 46 71 -26 0 0 1 14 0 1 0 1
0 60 71 -26 0 0 1 14 0 1 0 1
phys
0 60 51 -26 0 0 1 14 0 1 0 1
0 46 51 -26 0 0 1 14 0 1 0 1
0 46 51 -142 0 0 1 14 0 1 0 1
phys
0 60 51 -26 0 0 1 14 0 1 0 1
0 46 51 -142 0 0 1 14 0 1 0 1
0 60 51 -142 0 0 1 14 0 1 0 1
phys
0 43 54 -26 0 0 1 14 0 1 0 1
0 43 68 -26 0 0 1 14 0 1 0 1
0 43 68 -142 0 0 1 14 0 1 0 1
phys
0 43 54 -26 0 0 1 14 0 1 0 1
0 43 68 -142 0 0 1 14 0 1 0 1
0 43 54 -142 0 0 1 14 0 1 0 1
phys
0 63 54 -142 0 0 1 14 0 1 0 1
0 63 68 -142 0 0 1 14 0 1 0 1
0 63 68 -26 0 0 1 14 0 1 0 1
phys
0 63 54 -142 0 0 1 14 0 1 0 1
0 63 68 -26 0 0 1 14 0 1 0 1
0 63 54 -26 0 0 1 14 0 1 0 1
phys
0 60 51 -142 0 0 1 14 0 1 0 1
0 46 51 -142 0 0 1 14 0 1 0 1
0 43 54 -142 0 0 1 14 0 1 0 1
phys
0 60 51 -142 0 0 1 14 0 1 0 1
0 43 54 -142 0 0 1 14 0 1 0 1
0 43 68 -142 0 0 1 14 0 1 0 1
phys
0 60 51 -142 0 0 1 14 0 1 0 1
0 43 68 -142 0 0 1 14 0 1 0 1
0 46 71 -142 0 0 1 14 0 1 0 1
phys
0 60 51 -142 0 0 1 14 0 1 0 1
0 46 71 -142 0 0 1 14 0 1 0 1
0 60 71 -142 0 0 1 14 0 1 0 1
phys
0 60 51 -142 0 0 1 14 0 1 0 1
0 60 71 -142 0 0 1 14 0 1 0 1
0 63 68 -142 0 0 1 14 0 1 0 1
phys
0 60 51 -142 0 0 1 14 0 1 0 1
0 63 68 -142 0 0 1 14 0 1 0 1
0 63 54 -142 0 0 1 14 0 1 0 1
phys
0 46 51 -26 0 0 1 14 0 1 0 1
0 60 51 -26 0 0 1 14 0 1 0 1
0 63 54 -26 0 0 1 14 0 1 0 1
phys
0 46 51 -26 0 0 1 14 0 1 0 1
0 63 54 -26 0 0 1 14 0 1 0 1
0 63 68 -26 0 0 1 14 0 1 0 1
phys
0 46 51 -26 0 0 1 14 0 1 0 1
0 63 68 -26 0 0 1 14 0 1 0 1
0 60 71 -26 0 0 1 14 0 1 0 1
phys
0 46 51 -26 0 0 1 14 0 1 0 1
0 60 71 -26 0 0 1 14 0 1 0 1
0 46 71 -26 0 0 1 14 0 1 0 1
phys
0 46 51 -26 0 0 1 14 0 1 0 1
0 46 71 -26 0 0 1 14 0 1 0 1
0 43 68 -26 0 0 1 14 0 1 0 1
phys
0 46 51 -26 0 0 1 14 0 1 0 1
0 43 68 -26 0 0 1 14 0 1 0 1
0 43 54 -26 0 0 1 14 0 1 0 1
phys
0 43 68 -142 0 0 1 14 0 1 0 1
0 43 68 -26 0 0 1 14 0 1 0 1
0 46 71 -26 0 0 1 14 0 1 0 1
phys
0 43 68 -142 0 0 1 14 0 1 0 1
0 46 71 -26 0 0 1 14 0 1 0 1
0 46 71 -142 0 0 1 14 0 1 0 1
phys
0 46 51 -142 0 0 1 14 0 1 0 1
0 46 51 -26 0 0 1 14 0 1 0 1
0 43 54 -26 0 0 1 14 0 1 0 1
phys
0 46 51 -142 0 0 1 14 0 1 0 1
0 43 54 -26 0 0 1 14 0 1 0 1
0 43 54 -142 0 0 1 14 0 1 0 1
phys
0 63 68 -26 0 0 1 14 0 1 0 1
0 63 68 -142 0 0 1 14 0 1 0 1
0 60 71 -142 0 0 1 14 0 1 0 1
phys
0 63 68 -26 0 0 1 14 0 1 0 1
0 60 71 -142 0 0 1 14 0 1 0 1
0 60 71 -26 0 0 1 14 0 1 0 1
phys
0 60 51 -26 0 0 1 14 0 1 0 1
0 60 51 -142 0 0 1 14 0 1 0 1
0 63 54 -142 0 0 1 14 0 1 0 1
phys
0 60 51 -26 0 0 1 14 0 1 0 1
0 63 54 -142 0 0 1 14 0 1 0 1
0 63 54 -26 0 0 1 14 0 1 0 1
phys
0 74 71 6 0 0 1 15 0 1 0 1
0 74 71 -6 0 0 1 15 0 1 0 1
0 63 71 -6 0 0 1 15 0 1 0 1
phys
0 74 71 6 0 0 1 15 0 1 0 1
0 63 71 -6 0 0 1 15 0 1 0 1
0 63 71 6 0 0 1 15 0 1 0 1
phys
0 74 -216 -6 0 0 1 15 0 1 0 1
0 74 -216 6 0 0 1 15 0 1 0 1
0 63 -216 6 0 0 1 15 0 1 0 1
phys
0 74 -216 -6 0 0 1 15 0 1 0 1
0 63 -216 6 0 0 1 15 0 1 0 1
0 63 -216 -6 0 0 1 15 0 1 0 1
phys
0 63 -216 -6 0 0 1 15 0 1 0 1
0 63 -216 6 0 0 1 15 0 1 0 1
0 63 71 6 0 0 1 15 0 1 0 1
phys
0 63 -216 -6 0 0 1 15 0 1 0 1
0 63 71 6 0 0 1 15 0 1 0 1
0 63 71 -6 0 0 1 15 0 1 0 1
phys
0 74 -216 6 0 0 1 15 0 1 0 1
0 74 -216 -6 0 0 1 15 0 1 0 1
0 74 71 -6 0 0 1 15 0 1 0 1
phys
0 74 -216 6 0 0 1 15 0 1 0 1
0 74 71 -6 0 0 1 15 0 1 0 1
0 74 71 6 0 0 1 15 0 1 0 1
phys
0 74 -216 -6 0 0 1 15 0 1 0 1
0 63 -216 -6 0 0 1 15 0 1 0 1
0 63 71 -6 0 0 1 15 0 1 0 1
phys
0 74 -216 -6 0 0 1 15 0 1 0 1
0 63 71 -6 0 0 1 15 0 1 0 1
0 74 71 -6 0 0 1 15 0 1 0 1
phys
0 63 -216 6 0 0 1 15 0 1 0 1
0 74 -216 6 0 0 1 15 0 1 0 1
0 74 71 6 0 0 1 15 0 1 0 1
phys
0 63 -216 6 0 0 1 15 0 1 0 1
0 74 71 6 0 0 1 15 0 1 0 1
0 63 71 6 0 0 1 15 0 1 0 1
phys
0 -132 -61 -142 0 0 1 16 0 1 0 1
0 -146 -61 -142 0 0 1 16 0 1 0 1
0 -146 -61 -26 0 0 1 16 0 1 0 1
phys
0 -132 -61 -142 0 0 1 16 0 1 0 1
0 -146 -61 -26 0 0 1 16 0 1 0 1
0 -132 -61 -26 0 0 1 16 0 1 0 1
phys
0 -132 -81 -26 0 0 1 16 0 1 0 1
0 -146 -81 -26 0 0 1 16 0 1 0 1
0 -146 -81 -142 0 0 1 16 0 1 0 1
phys
0 -132 -81 -26 0 0 1 16 0 1 0 1
0 -146 -81 -142 0 0 1 16 0 1 0 1
0 -132 -81 -142 0 0 1 16 0 1 0 1
phys
0 -149 -78 -26 0 0 1 16 0 1 0 1
0 -149 -64 -26 0 0 1 16 0 1 0 1
0 -149 -64 -142 0 0 1 16 0 1 0 1
phys
0 -149 -78 -26 0 0 1 16 0 1 0 1
0 -149 -64 -142 0 0 1 16 0 1 0 1
0 -149 -78 -142 0 0 1 16 0 1 0 1
phys
0 -129 -78 -142 0 0 1 16 0 1 0 1
0 -129 -64 -142 0 0 1 16 0 1 0 1
0 -129 -64 -26 0 0 1 16 0 1 0 1
phys
0 -129 -78 -142 0 0 1 16 0 1 0 1
0 -129 -64 -26 0 0 1 16 0 1 0 1
0 -129 -78 -26 0 0 1 16 0 1 0 1
phys
0 -132 -81 -142 0 0 1 16 0 1 0 1
0 -146 -81 -142 0 0 1 16 0 1 0 1
0 -149 -78 -142 0 0 1 16 0 1 0 1
phys
0 -132 -81 -142 0 0 1 16 0 1 0 1
0 -149 -78 -142 0 0 1 16 0 1 0 1
0 -149 -64 -142 0 0 1 16 0 1 0 1
phys
0 -132 -81 -142 0 0 1 16 0 1 0 1
0 -149 -64 -142 0 0 1 16 0 1 0 1
0 -146 -61 -142 0 0 1 16 0 1 0 1
phys
0 -132 -81 -142 0 0 1 16 0 1 0 1
0 -146 -61 -142 0 0 1 16 0 1 0 1
0 -132 -61 -142 0 0 1 16 0 1 0 1
phys
0 -132 -81 -142 0 0 1 16 0 1 0 1
0 -132 -61 -142 0 0 1 16 0 1 0 1
0 -129 -64 -142 0 0 1 16 0 1 0 1
phys
0 -132 -81 -142 0 0 1 16 0 1 0 1
0 -129 -64 -142 0 0 1 16 0 1 0 1
0 -129 -78 -142 0 0 1 16 0 1 0 1
phys
0 -146 -81 -26 0 0 1 16 0 1 0 1
0 -132 -81 -26 0 0 1 16 0 1 0 1
0 -129 -78 -26 0 0 1 16 0 1 0 1
phys
0 -146 -81 -26 0 0 1 16 0 1 0 1
0 -129 -78 -26 0 0 1 16 0 1 0 1
0 -129 -64 -26 0 0 1 16 0 1 0 1
phys
0 -146 -81 -26 0 0 1 16 0 1 0 1
0 -129 -64 -26 0 0 1 16 0 1 0 1
0 -132 -61 -26 0 0 1 16 0 1 0 1
phys
0 -146 -81 -26 0 0 1 16 0 1 0 1
0 -132 -61 -26 0 0 1 16 0 1 0 1
0 -146 -61 -26 0 0 1 16 0 1 0 1
phys
0 -146 -81 -26 0 0 1 16 0 1 0 1
0 -146 -61 -26 0 0 1 16 0 1 0 1
0 -149 -64 -26 0 0 1 16 0 1 0 1
phys
0 -146 -81 -26 0 0 1 16 0 1 0 1
0 -149 -64 -26 0 0 1 16 0 1 0 1
0 -149 -78 -26 0 0 1 16 0 1 0 1
phys
0 -129 -64 -26 0 0 1 16 0 1 0 1
0 -129 -64 -142 0 0 1 16 0 1 0 1
0 -132 -61 -142 0 0 1 16 0 1 0 1
phys
0 -129 -64 -26 0 0 1 16 0 1 0 1
0 -132 -61 -142 0 0 1 16 0 1 0 1
0 -132 -61 -26 0 0 1 16 0 1 0 1
phys
0 -149 -64 -142 0 0 1 16 0 1 0 1
0 -149 -64 -26 0 0 1 16 0 1 0 1
0 -146 -61 -26 0 0 1 16 0 1 0 1
phys
0 -149 -64 -142 0 0 1 16 0 1 0 1
0 -146 -61 -26 0 0 1 16 0 1 0 1
0 -146 -61 -142 0 0 1 16 0 1 0 1
phys
0 -132 -81 -26 0 0 1 16 0 1 0 1
0 -132 -81 -142 0 0 1 16 0 1 0 1
0 -129 -78 -142 0 0 1 16 0 1 0 1
phys
0 -132 -81 -26 0 0 1 16 0 1 0 1
0 -129 -78 -142 0 0 1 16 0 1 0 1
0 -129 -78 -26 0 0 1 16 0 1 0 1
phys
0 -146 -81 -142 0 0 1 16 0 1 0 1
0 -146 -81 -26 0 0 1 16 0 1 0 1
0 -149 -78 -26 0 0 1 16 0 1 0 1
phys
0 -146 -81 -142 0 0 1 16 0 1 0 1
0 -149 -78 -26 0 0 1 16 0 1 0 1
0 -149 -78 -142 0 0 1 16 0 1 0 1
phys
0 -184 -57 -49 0 0 1 17 0 1 0 1
0 -168 -57 -49 0 0 1 17 0 1 0 1
0 -168 67 -49 0 0 1 17 0 1 0 1
phys
0 -184 -57 -49 0 0 1 17 0 1 0 1
0 -168 67 -49 0 0 1 17 0 1 0 1
0 -184 67 -49 0 0 1 17 0 1 0 1
phys
0 -184 67 -57 0 0 1 17 0 1 0 1
0 -168 67 -49 0 0 1 17 0 1 0 1
0 -168 -57 -49 0 0 1 17 0 1 0 1
phys
0 -184 67 -57 0 0 1 17 0 1 0 1
0 -168 -57 -49 0 0 1 17 0 1 0 1
0 -184 -57 -57 0 0 1 17 0 1 0 1
phys
0 -184 67 -49 0 0 1 17 0 1 0 1
0 -168 67 -49 0 0 1 17 0 1 0 1
0 -184 67 -57 0 0 1 17 0 1 0 1
phys
0 -168 -57 -49 0 0 1 17 0 1 0 1
0 -184 -57 -49 0 0 1 17 0 1 0 1
0 -184 -57 -57 0 0 1 17 0 1 0 1
phys
0 -184 -57 -49 0 0 1 17 0 1 0 1
0 -184 67 -49 0 0 1 17 0 1 0 1
0 -184 67 -57 0 0 1 17 0 1 0 1
phys
0 -184 -57 -49 0 0 1 17 0 1 0 1
0 -184 67 -57 0 0 1 17 0 1 0 1
0 -184 -57 -57 0 0 1 17 0 1 0 1
phys
0 63 71 6 0 0 1 18 0 1 0 1
0 63 71 -6 0 0 1 18 0 1 0 1
0 -72 71 -6 0 0 1 18 0 1 0 1
phys
0 63 71 6 0 0 1 18 0 1 0 1
0 -72 71 -6 0 0 1 18 0 1 0 1
0 -72 71 6 0 0 1 18 0 1 0 1
phys
0 63 61 -6 0 0 1 18 0 1 0 1
0 63 61 6 0 0 1 18 0 1 0 1
0 -72 61 6 0 0 1 18 0 1 0 1
phys
0 63 61 -6 0 0 1 18 0 1 0 1
0 -72 61 6 0 0 1 18 0 1 0 1
0 -72 61 -6 0 0 1 18 0 1 0 1
phys
0 -72 61 -6 0 0 1 18 0 1 0 1
0 -72 61 6 0 0 1 18 0 1 0 1
0 -72 71 6 0 0 1 18 0 1 0 1
phys
0 -72 61 -6 0 0 1 18 0 1 0 1
0 -72 71 6 0 0 1 18 0 1 0 1
0 -72 71 -6 0 0 1 18 0 1 0 1
phys
0 63 61 6 0 0 1 18 0 1 0 1
0 63 61 -6 0 0 1 18 0 1 0 1
0 63 71 -6 0 0 1 18 0 1 0 1
phys
0 63 61 6 0 0 1 18 0 1 0 1
0 63 71 -6 0 0 1 18 0 1 0 1
0 63 71 6 0 0 1 18 0 1 0 1
phys
0 63 61 -6 0 0 1 18 0 1 0 1
0 -72 61 -6 0 0 1 18 0 1 0 1
0 -72 71 -6 0 0 1 18 0 1 0 1
phys
0 63 61 -6 0 0 1 18 0 1 0 1
0 -72 71 -6 0 0 1 18 0 1 0 1
0 63 71 -6 0 0 1 18 0 1 0 1
phys
0 -72 61 6 0 0 1 18 0 1 0 1
0 63 61 6 0 0 1 18 0 1 0 1
0 63 71 6 0 0 1 18 0 1 0 1
phys
0 -72 61 6 0 0 1 18 0 1 0 1
0 63 71 6 0 0 1 18 0 1 0 1
0 -72 71 6 0 0 1 18 0 1 0 1
phys
0 -45 51 -26 0 0 1 19 0 1 0 1
0 -45 51 -142 0 0 1 19 0 1 0 1
0 -42 54 -142 0 0 1 19 0 1 0 1
phys
0 -45 51 -26 0 0 1 19 0 1 0 1
0 -42 54 -142 0 0 1 19 0 1 0 1
0 -42 54 -26 0 0 1 19 0 1 0 1
phys
0 -45.01 71 -142 0 0 1 19 0 1 0 1
0 -59 71 -142 0 0 1 19 0 1 0 1
0 -59 71 -26 0 0 1 19 0 1 0 1
phys
0 -45.01 71 -142 0 0 1 19 0 1 0 1
0 -59 71 -26 0 0 1 19 0 1 0 1
0 -45.01 71 -26 0 0 1 19 0 1 0 1
phys
0 -45 51 -142 0 0 1 19 0 1 0 1
0 -45 51 -26 0 0 1 19 0 1 0 1
0 -59 51 -26 0 0 1 19 0 1 0 1
phys
0 -45 51 -142 0 0 1 19 0 1 0 1
0 -59 51 -26 0 0 1 19 0 1 0 1
0 -59 51 -142 0 0 1 19 0 1 0 1
phys
0 -62 54 -26 0 0 1 19 0 1 0 1
0 -62 68 -26 0 0 1 19 0 1 0 1
0 -62 68 -142 0 0 1 19 0 1 0 1
phys
0 -62 54 -26 0 0 1 19 0 1 0 1
0 -62 68 -142 0 0 1 19 0 1 0 1
0 -62 54 -142 0 0 1 19 0 1 0 1
phys
0 -42 54 -26 0 0 1 19 0 1 0 1
0 -42 54 -142 0 0 1 19 0 1 0 1
0 -42 67.99 -142 0 0 1 19 0 1 0 1
phys
0 -42 54 -26 0 0 1 19 0 1 0 1
0 -42 67.99 -142 0 0 1 19 0 1 0 1
0 -42 67.99 -26 0 0 1 19 0 1 0 1
phys
0 -42 54 -142 0 0 1 19 0 1 0 1
0 -45 51 -142 0 0 1 19 0 1 0 1
0 -59 51 -142 0 0 1 19 0 1 0 1
phys
0 -42 54 -142 0 0 1 19 0 1 0 1
0 -59 51 -142 0 0 1 19 0 1 0 1
0 -62 54 -142 0 0 1 19 0 1 0 1
phys
0 -42 54 -142 0 0 1 19 0 1 0 1
0 -62 54 -142 0 0 1 19 0 1 0 1
0 -62 68 -142 0 0 1 19 0 1 0 1
phys
0 -42 54 -142 0 0 1 19 0 1 0 1
0 -62 68 -142 0 0 1 19 0 1 0 1
0 -59 71 -142 0 0 1 19 0 1 0 1
phys
0 -42 54 -142 0 0 1 19 0 1 0 1
0 -59 71 -142 0 0 1 19 0 1 0 1
0 -45.01 71 -142 0 0 1 19 0 1 0 1
phys
0 -42 54 -142 0 0 1 19 0 1 0 1
0 -45.01 71 -142 0 0 1 19 0 1 0 1
0 -42 67.99 -142 0 0 1 19 0 1 0 1
phys
0 -59 51 -26 0 0 1 19 0 1 0 1
0 -45 51 -26 0 0 1 19 0 1 0 1
0 -42 54 -26 0 0 1 19 0 1 0 1
phys
0 -59 51 -26 0 0 1 19 0 1 0 1
0 -42 54 -26 0 0 1 19 0 1 0 1
0 -42 67.99 -26 0 0 1 19 0 1 0 1
phys
0 -59 51 -26 0 0 1 19 0 1 0 1
0 -42 67.99 -26 0 0 1 19 0 1 0 1
0 -45.01 71 -26 0 0 1 19 0 1 0 1
phys
0 -59 51 -26 0 0 1 19 0 1 0 1
0 -45.01 71 -26 0 0 1 19 0 1 0 1
0 -59 71 -26 0 0 1 19 0 1 0 1
phys
0 -59 51 -26 0 0 1 19 0 1 0 1
0 -59 71 -26 0 0 1 19 0 1 0 1
0 -62 68 -26 0 0 1 19 0 1 0 1
phys
0 -59 51 -26 0 0 1 19 0 1 0 1
0 -62 68 -26 0 0 1 19 0 1 0 1
0 -62 54 -26 0 0 1 19 0 1 0 1
phys
0 -62 68 -142 0 0 1 19 0 1 0 1
0 -62 68 -26 0 0 1 19 0 1 0 1
0 -59 71 -26 0 0 1 19 0 1 0 1
phys
0 -62 68 -142 0 0 1 19 0 1 0 1
0 -59 71 -26 0 0 1 19 0 1 0 1
0 -59 71 -142 0 0 1 19 0 1 0 1
phys
0 -59 51 -142 0 0 1 19 0 1 0 1
0 -59 51 -26 0 0 1 19 0 1 0 1
0 -62 54 -26 0 0 1 19 0 1 0 1
phys
0 -59 51 -142 0 0 1 19 0 1 0 1
0 -62 54 -26 0 0 1 19 0 1 0 1
0 -62 54 -142 0 0 1 19 0 1 0 1
phys
0 -42 67.99 -26 0 0 1 19 0 1 0 1
0 -42 67.99 -142 0 0 1 19 0 1 0 1
0 -45.01 71 -142 0 0 1 19 0 1 0 1
phys
0 -42 67.99 -26 0 0 1 19 0 1 0 1
0 -45.01 71 -142 0 0 1 19 0 1 0 1
0 -45.01 71 -26 0 0 1 19 0 1 0 1
phys
0 -200 67 -65 0 0 1 20 0 1 0 1
0 -200 67 -57 0 0 1 20 0 1 0 1
0 -184 67 -57 0 0 1 20 0 1 0 1
phys
0 -184 -57 -57 0 0 1 20 0 1 0 1
0 -200 -57 -57 0 0 1 20 0 1 0 1
0 -200 -57 -65 0 0 1 20 0 1 0 1
phys
0 -200 -57 -65 0 0 1 20 0 1 0 1
0 -200 -57 -57 0 0 1 20 0 1 0 1
0 -200 67 -57 0 0 1 20 0 1 0 1
phys
0 -200 -57 -65 0 0 1 20 0 1 0 1
0 -200 67 -57 0 0 1 20 0 1 0 1
0 -200 67 -65 0 0 1 20 0 1 0 1
phys
0 -200 -57 -57 0 0 1 20 0 1 0 1
0 -184 -57 -57 0 0 1 20 0 1 0 1
0 -184 67 -57 0 0 1 20 0 1 0 1
phys
0 -200 -57 -57 0 0 1 20 0 1 0 1
0 -184 67 -57 0 0 1 20 0 1 0 1
0 -200 67 -57 0 0 1 20 0 1 0 1
phys
0 -184 -57 -57 0 0 1 20 0 1 0 1
0 -200 -57 -65 0 0 1 20 0 1 0 1
0 -200 67 -65 0 0 1 20 0 1 0 1
phys
0 -184 -57 -57 0 0 1 20 0 1 0 1
0 -200 67 -65 0 0 1 20 0 1 0 1
0 -184 67 -57 0 0 1 20 0 1 0 1
phys
0 -280 -57 -105 0 0 1 21 0 1 0 1
0 -296 -57 -113 0 0 1 21 0 1 0 1
0 -296 67 -113 0 0 1 21 0 1 0 1
phys
0 -280 -57 -105 0 0 1 21 0 1 0 1
0 -296 67 -113 0 0 1 21 0 1 0 1
0 -280 67 -105 0 0 1 21 0 1 0 1
phys
0 -280 67 -105 0 0 1 21 0 1 0 1
0 -296 67 -113 0 0 1 21 0 1 0 1
0 -296 67 -105 0 0 1 21 0 1 0 1
phys
0 -296 -57 -105 0 0 1 21 0 1 0 1
0 -296 -57 -113 0 0 1 21 0 1 0 1
0 -280 -57 -105 0 0 1 21 0 1 0 1
phys
0 -296 67 -105 0 0 1 21 0 1 0 1
0 -296 67 -113 0 0 1 21 0 1 0 1
0 -296 -57 -113 0 0 1 21 0 1 0 1
phys
0 -296 67 -105 0 0 1 21 0 1 0 1
0 -296 -57 -113 0 0 1 21 0 1 0 1
0 -296 -57 -105 0 0 1 21 0 1 0 1
phys
0 -296 -57 -105 0 0 1 21 0 1 0 1
0 -280 -57 -105 0 0 1 21 0 1 0 1
0 -280 67 -105 0 0 1 21 0 1 0 1
phys
0 -296 -57 -105 0 0 1 21 0 1 0 1
0 -280 67 -105 0 0 1 21 0 1 0 1
0 -296 67 -105 0 0 1 21 0 1 0 1
phys
0 -136 67 -33 0 0 1 22 0 1 0 1
0 -136 67 -25 0 0 1 22 0 1 0 1
0 -120 67 -25 0 0 1 22 0 1 0 1
phys
0 -120 -57 -25 0 0 1 22 0 1 0 1
0 -136 -57 -25 0 0 1 22 0 1 0 1
0 -136 -57 -33 0 0 1 22 0 1 0 1
phys
0 -136 -57 -33 0 0 1 22 0 1 0 1
0 -136 -57 -25 0 0 1 22 0 1 0 1
0 -136 67 -25 0 0 1 22 0 1 0 1
phys
0 -136 -57 -33 0 0 1 22 0 1 0 1
0 -136 67 -25 0 0 1 22 0 1 0 1
0 -136 67 -33 0 0 1 22 0 1 0 1
phys
0 -136 -57 -25 0 0 1 22 0 1 0 1
0 -120 -57 -25 0 0 1 22 0 1 0 1
0 -120 67 -25 0 0 1 22 0 1 0 1
phys
0 -136 -57 -25 0 0 1 22 0 1 0 1
0 -120 67 -25 0 0 1 22 0 1 0 1
0 -136 67 -25 0 0 1 22 0 1 0 1
phys
0 -120 -57 -25 0 0 1 22 0 1 0 1
0 -136 -57 -33 0 0 1 22 0 1 0 1
0 -136 67 -33 0 0 1 22 0 1 0 1
phys
0 -120 -57 -25 0 0 1 22 0 1 0 1
0 -136 67 -33 0 0 1 22 0 1 0 1
0 -120 67 -25 0 0 1 22 0 1 0 1
phys
0 -72 51 -6 0 0 1 23 0 1 0 1
0 53 51 -6 0 0 1 23 0 1 0 1
0 53 71 -6 0 0 1 23 0 1 0 1
phys
0 -72 51 -6 0 0 1 23 0 1 0 1
0 53 71 -6 0 0 1 23 0 1 0 1
0 -72 71 -6 0 0 1 23 0 1 0 1
phys
0 -72 71 -26 0 0 1 23 0 1 0 1
0 -72 71 -6 0 0 1 23 0 1 0 1
0 53 71 -6 0 0 1 23 0 1 0 1
phys
0 -72 71 -26 0 0 1 23 0 1 0 1
0 53 71 -6 0 0 1 23 0 1 0 1
0 53 71 -26 0 0 1 23 0 1 0 1
phys
0 53 51 -26 0 0 1 23 0 1 0 1
0 53 51 -6 0 0 1 23 0 1 0 1
0 -72 51 -6 0 0 1 23 0 1 0 1
phys
0 53 51 -26 0 0 1 23 0 1 0 1
0 -72 51 -6 0 0 1 23 0 1 0 1
0 -72 51 -26 0 0 1 23 0 1 0 1
phys
0 -72 51 -26 0 0 1 23 0 1 0 1
0 -72 51 -6 0 0 1 23 0 1 0 1
0 -72 71 -6 0 0 1 23 0 1 0 1
phys
0 -72 51 -26 0 0 1 23 0 1 0 1
0 -72 71 -6 0 0 1 23 0 1 0 1
0 -72 71 -26 0 0 1 23 0 1 0 1
phys
0 53 71 -26 0 0 1 23 0 1 0 1
0 53 71 -6 0 0 1 23 0 1 0 1
0 53 51 -6 0 0 1 23 0 1 0 1
phys
0 53 71 -26 0 0 1 23 0 1 0 1
0 53 51 -6 0 0 1 23 0 1 0 1
0 53 51 -26 0 0 1 23 0 1 0 1
phys
0 53 51 -26 0 0 1 23 0 1 0 1
0 -72 51 -26 0 0 1 23 0 1 0 1
0 -72 71 -26 0 0 1 23 0 1 0 1
phys
0 53 51 -26 0 0 1 23 0 1 0 1
0 -72 71 -26 0 0 1 23 0 1 0 1
0 53 71 -26 0 0 1 23 0 1 0 1
phys
0 -354 71 -142 0 0 1 24 0 1 0 1
0 -360 71 -142 0 0 1 24 0 1 0 1
0 -360 71 -136.992 0 0 1 24 0 1 0 1
phys
0 -354 71 -142 0 0 1 24 0 1 0 1
0 -360 71 -136.992 0 0 1 24 0 1 0 1
0 -88 71 -1 0 0 1 24 0 1 0 1
phys
0 -354 71 -142 0 0 1 24 0 1 0 1
0 -88 71 -1 0 0 1 24 0 1 0 1
0 -72 71 -1 0 0 1 24 0 1 0 1
phys
0 -72 67 -1 0 0 1 24 0 1 0 1
0 -88 67 -1 0 0 1 24 0 1 0 1
0 -360 67 -136.992 0 0 1 24 0 1 0 1
phys
0 -72 67 -1 0 0 1 24 0 1 0 1
0 -360 67 -136.992 0 0 1 24 0 1 0 1
0 -360 67 -142 0 0 1 24 0 1 0 1
phys
0 -72 67 -1 0 0 1 24 0 1 0 1
0 -360 67 -142 0 0 1 24 0 1 0 1
0 -354 67 -142 0 0 1 24 0 1 0 1
phys
0 -360 67 -142 0 0 1 24 0 1 0 1
0 -360 67 -136.992 0 0 1 24 0 1 0 1
0 -360 71 -136.992 0 0 1 24 0 1 0 1
phys
0 -360 67 -142 0 0 1 24 0 1 0 1
0 -360 71 -136.992 0 0 1 24 0 1 0 1
0 -360 71 -142 0 0 1 24 0 1 0 1
phys
0 -354 67 -142 0 0 1 24 0 1 0 1
0 -360 67 -142 0 0 1 24 0 1 0 1
0 -360 71 -142 0 0 1 24 0 1 0 1
phys
0 -354 67 -142 0 0 1 24 0 1 0 1
0 -360 71 -142 0 0 1 24 0 1 0 1
0 -354 71 -142 0 0 1 24 0 1 0 1
phys
0 -88 67 -1 0 0 1 24 0 1 0 1
0 -72 67 -1 0 0 1 24 0 1 0 1
0 -72 71 -1 0 0 1 24 0 1 0 1
phys
0 -88 67 -1 0 0 1 24 0 1 0 1
0 -72 71 -1 0 0 1 24 0 1 0 1
0 -88 71 -1 0 0 1 24 0 1 0 1
phys
0 -72 67 -1 0 0 1 24 0 1 0 1
0 -354 67 -142 0 0 1 24 0 1 0 1
0 -354 71 -142 0 0 1 24 0 1 0 1
phys
0 -72 67 -1 0 0 1 24 0 1 0 1
0 -354 71 -142 0 0 1 24 0 1 0 1
0 -72 71 -1 0 0 1 24 0 1 0 1
phys
0 -360 67 -136.992 0 0 1 24 0 1 0 1
0 -88 67 -1 0 0 1 24 0 1 0 1
0 -88 71 -1 0 0 1 24 0 1 0 1
phys
0 -360 67 -136.992 0 0 1 24 0 1 0 1
0 -88 71 -1 0 0 1 24 0 1 0 1
0 -360 71 -136.992 0 0 1 24 0 1 0 1
phys
0 -120 -57 -17 0 0 1 25 0 1 0 1
0 -104 -57 -17 0 0 1 25 0 1 0 1
0 -104 67 -17 0 0 1 25 0 1 0 1
phys
0 -120 -57 -17 0 0 1 25 0 1 0 1
0 -104 67 -17 0 0 1 25 0 1 0 1
0 -120 67 -17 0 0 1 25 0 1 0 1
phys
0 -120 67 -25 0 0 1 25 0 1 0 1
0 -104 67 -17 0 0 1 25 0 1 0 1
0 -104 -57 -17 0 0 1 25 0 1 0 1
phys
0 -120 67 -25 0 0 1 25 0 1 0 1
0 -104 -57 -17 0 0 1 25 0 1 0 1
0 -120 -57 -25 0 0 1 25 0 1 0 1
phys
0 -120 67 -17 0 0 1 25 0 1 0 1
0 -104 67 -17 0 0 1 25 0 1 0 1
0 -120 67 -25 0 0 1 25 0 1 0 1
phys
0 -104 -57 -17 0 0 1 25 0 1 0 1
0 -120 -57 -17 0 0 1 25 0 1 0 1
0 -120 -57 -25 0 0 1 25 0 1 0 1
phys
0 -120 -57 -17 0 0 1 25 0 1 0 1
0 -120 67 -17 0 0 1 25 0 1 0 1
0 -120 67 -25 0 0 1 25 0 1 0 1
phys
0 -120 -57 -17 0 0 1 25 0 1 0 1
0 -120 67 -25 0 0 1 25 0 1 0 1
0 -120 -57 -25 0 0 1 25 0 1 0 1
phys
0 -104 67 -17 0 0 1 26 0 1 0 1
0 -104 67 -9 0 0 1 26 0 1 0 1
0 -88 67 -9 0 0 1 26 0 1 0 1
phys
0 -88 -57 -9 0 0 1 26 0 1 0 1
0 -104 -57 -9 0 0 1 26 0 1 0 1
0 -104 -57 -17 0 0 1 26 0 1 0 1
phys
0 -104 -57 -17 0 0 1 26 0 1 0 1
0 -104 -57 -9 0 0 1 26 0 1 0 1
0 -104 67 -9 0 0 1 26 0 1 0 1
phys
0 -104 -57 -17 0 0 1 26 0 1 0 1
0 -104 67 -9 0 0 1 26 0 1 0 1
0 -104 67 -17 0 0 1 26 0 1 0 1
phys
0 -104 -57 -9 0 0 1 26 0 1 0 1
0 -88 -57 -9 0 0 1 26 0 1 0 1
0 -88 67 -9 0 0 1 26 0 1 0 1
phys
0 -104 -57 -9 0 0 1 26 0 1 0 1
0 -88 67 -9 0 0 1 26 0 1 0 1
0 -104 67 -9 0 0 1 26 0 1 0 1
phys
0 -88 -57 -9 0 0 1 26 0 1 0 1
0 -104 -57 -17 0 0 1 26 0 1 0 1
0 -104 67 -17 0 0 1 26 0 1 0 1
phys
0 -88 -57 -9 0 0 1 26 0 1 0 1
0 -104 67 -17 0 0 1 26 0 1 0 1
0 -88 67 -9 0 0 1 26 0 1 0 1
phys
0 -248 -57 -81 0 0 1 27 0 1 0 1
0 -232 -57 -81 0 0 1 27 0 1 0 1
0 -232 67 -81 0 0 1 27 0 1 0 1
phys
0 -248 -57 -81 0 0 1 27 0 1 0 1
0 -232 67 -81 0 0 1 27 0 1 0 1
0 -248 67 -81 0 0 1 27 0 1 0 1
phys
0 -248 67 -89 0 0 1 27 0 1 0 1
0 -232 67 -81 0 0 1 27 0 1 0 1
0 -232 -57 -81 0 0 1 27 0 1 0 1
phys
0 -248 67 -89 0 0 1 27 0 1 0 1
0 -232 -57 -81 0 0 1 27 0 1 0 1
0 -248 -57 -89 0 0 1 27 0 1 0 1
phys
0 -248 67 -81 0 0 1 27 0 1 0 1
0 -232 67 -81 0 0 1 27 0 1 0 1
0 -248 67 -89 0 0 1 27 0 1 0 1
phys
0 -232 -57 -81 0 0 1 27 0 1 0 1
0 -248 -57 -81 0 0 1 27 0 1 0 1
0 -248 -57 -89 0 0 1 27 0 1 0 1
phys
0 -248 -57 -81 0 0 1 27 0 1 0 1
0 -248 67 -81 0 0 1 27 0 1 0 1
0 -248 67 -89 0 0 1 27 0 1 0 1
phys
0 -248 -57 -81 0 0 1 27 0 1 0 1
0 -248 67 -89 0 0 1 27 0 1 0 1
0 -248 -57 -89 0 0 1 27 0 1 0 1
end
