version 1
nodes
0 "root" -1
end
skeleton
time 0
0 0 0 0 0 0 0
end
triangles
floor_hardwood_floor_grunge
0 -62 61 -6 0 0 -1 17.005859 39.267578 1 0 1
0 63 61 -6 0 0 -1 17.005859 38.779297 1 0 1
0 63 -61 -6 0 0 -1 16.529297 38.779297 1 0 1
floor_hardwood_floor_grunge
0 -62 61 -6 0 0 -1 17.005859 39.267578 1 0 1
0 63 -61 -6 0 0 -1 16.529297 38.779297 1 0 1
0 -62 -61 -6 0 0 -1 16.529297 39.267578 1 0 1
floor_hardwood_floor_grunge
0 -62 -61 6 0 0 1 16.529297 39.267578 1 0 1
0 63 -61 6 0 0 1 16.529297 38.779297 1 0 1
0 63 61 6 0 0 1 17.005859 38.779297 1 0 1
floor_hardwood_floor_grunge
0 -62 -61 6 0 0 1 16.529297 39.267578 1 0 1
0 63 61 6 0 0 1 17.005859 38.779297 1 0 1
0 -62 61 6 0 0 1 17.005859 39.267578 1 0 1
de_dust_pwtrim1
0 63 61 6 0 1 0 17.725446 110.700893 1 0 1
0 63 61 -6 0 1 0 18.261161 110.700893 1 0 1
0 -62 61 -6 0 1 0 18.261161 112.095982 1 0 1
de_dust_pwtrim1
0 63 61 6 0 1 0 17.725446 110.700893 1 0 1
0 -62 61 -6 0 1 0 18.261161 112.095982 1 0 1
0 -62 61 6 0 1 0 17.725446 112.095982 1 0 1
de_dust_pwtrim1
0 -168 -57 -49 -1 0 0 20.180804 -45.981027 1 0 1
0 -168 -57 -41 -1 0 0 19.823661 -45.981027 1 0 1
0 -168 67 -41 -1 0 0 19.823661 -47.364955 1 0 1
de_dust_pwtrim1
0 -168 -57 -49 -1 0 0 20.180804 -45.981027 1 0 1
0 -168 67 -41 -1 0 0 19.823661 -47.364955 1 0 1
0 -168 67 -49 -1 0 0 20.180804 -47.364955 1 0 1
de_dust_pwtrim1
0 -168 -57 -41 0 0 1 451.397321 -45.981027 1 0 1
0 -152 -57 -41 0 0 1 450.683036 -45.981027 1 0 1
0 -152 67 -41 0 0 1 450.683036 -47.364955 1 0 1
de_dust_pwtrim1
0 -168 -57 -41 0 0 1 451.397321 -45.981027 1 0 1
0 -152 67 -41 0 0 1 450.683036 -47.364955 1 0 1
0 -168 67 -41 0 0 1 451.397321 -47.364955 1 0 1
de_dust_pwtrim1
0 -152 -57 -41 0.447214 0 -0.894427 -189.033482 -110.772321 1 0 1
0 -168 -57 -49 0.447214 0 -0.894427 -189.033482 -110.950893 1 0 1
0 -168 67 -49 0.447214 0 -0.894427 -194.569196 -110.950893 1 0 1
de_dust_pwtrim1
0 -152 -57 -41 0.447214 0 -0.894427 -189.033482 -110.772321 1 0 1
0 -168 67 -49 0.447214 0 -0.894427 -194.569196 -110.950893 1 0 1
0 -152 67 -41 0.447214 0 -0.894427 -194.569196 -110.772321 1 0 1
de_dust_pwtrim1
0 -280 -57 -105 -1 0 0 22.680804 -45.981027 1 0 1
0 -280 -57 -97 -1 0 0 22.323661 -45.981027 1 0 1
0 -280 67 -97 -1 0 0 22.323661 -47.364955 1 0 1
de_dust_pwtrim1
0 -280 -57 -105 -1 0 0 22.680804 -45.981027 1 0 1
0 -280 67 -97 -1 0 0 22.323661 -47.364955 1 0 1
0 -280 67 -105 -1 0 0 22.680804 -47.364955 1 0 1
de_dust_pwtrim1
0 -280 -57 -97 0 0 1 455.756696 -45.981027 1 0 1
0 -264 -57 -97 0 0 1 455.042411 -45.981027 1 0 1
0 -264 67 -97 0 0 1 455.042411 -47.364955 1 0 1
de_dust_pwtrim1
0 -280 -57 -97 0 0 1 455.756696 -45.981027 1 0 1
0 -264 67 -97 0 0 1 455.042411 -47.364955 1 0 1
0 -280 67 -97 0 0 1 455.756696 -47.364955 1 0 1
de_dust_pwtrim1
0 -264 -57 -97 0.447214 0 -0.894427 -189.033482 -112.022321 1 0 1
0 -280 -57 -105 0.447214 0 -0.894427 -189.033482 -112.200893 1 0 1
0 -280 67 -105 0.447214 0 -0.894427 -194.569196 -112.200893 1 0 1
de_dust_pwtrim1
0 -264 -57 -97 0.447214 0 -0.894427 -189.033482 -112.022321 1 0 1
0 -280 67 -105 0.447214 0 -0.894427 -194.569196 -112.200893 1 0 1
0 -264 67 -97 0.447214 0 -0.894427 -194.569196 -112.022321 1 0 1
de_dust_pwtrim1
0 -216 -57 -65 0 0 1 452.602679 -45.981027 1 0 1
0 -200 -57 -65 0 0 1 451.888393 -45.981027 1 0 1
0 -200 67 -65 0 0 1 451.888393 -47.364955 1 0 1
de_dust_pwtrim1
0 -216 -57 -65 0 0 1 452.602679 -45.981027 1 0 1
0 -200 67 -65 0 0 1 451.888393 -47.364955 1 0 1
0 -216 67 -65 0 0 1 452.602679 -47.364955 1 0 1
de_dust_pwtrim1
0 -216 67 -73 0.447214 0 -0.894427 -194.569196 -111.486607 1 0 1
0 -200 67 -65 0.447214 0 -0.894427 -194.569196 -111.308036 1 0 1
0 -200 -57 -65 0.447214 0 -0.894427 -189.033482 -111.308036 1 0 1
de_dust_pwtrim1
0 -216 67 -73 0.447214 0 -0.894427 -194.569196 -111.486607 1 0 1
0 -200 -57 -65 0.447214 0 -0.894427 -189.033482 -111.308036 1 0 1
0 -216 -57 -73 0.447214 0 -0.894427 -189.033482 -111.486607 1 0 1
de_dust_pwtrim1
0 -216 -57 -65 -1 0 0 20.895089 -45.981027 1 0 1
0 -216 67 -65 -1 0 0 20.895089 -47.364955 1 0 1
0 -216 67 -73 -1 0 0 21.252232 -47.364955 1 0 1
de_dust_pwtrim1
0 -216 -57 -65 -1 0 0 20.895089 -45.981027 1 0 1
0 -216 67 -73 -1 0 0 21.252232 -47.364955 1 0 1
0 -216 -57 -73 -1 0 0 21.252232 -45.981027 1 0 1
de_dust_pwtrim1
0 -264 -57 -97 -1 0 0 22.323661 -45.981027 1 0 1
0 -264 -57 -89 -1 0 0 21.966518 -45.981027 1 0 1
0 -264 67 -89 -1 0 0 21.966518 -47.364955 1 0 1
de_dust_pwtrim1
0 -264 -57 -97 -1 0 0 22.323661 -45.981027 1 0 1
0 -264 67 -89 -1 0 0 21.966518 -47.364955 1 0 1
0 -264 67 -97 -1 0 0 22.323661 -47.364955 1 0 1
de_dust_pwtrim1
0 -264 -57 -89 0 0 1 455.683036 -45.981027 1 0 1
0 -248 -57 -89 0 0 1 454.96875 -45.981027 1 0 1
0 -248 67 -89 0 0 1 454.96875 -47.364955 1 0 1
de_dust_pwtrim1
0 -264 -57 -89 0 0 1 455.683036 -45.981027 1 0 1
0 -248 67 -89 0 0 1 454.96875 -47.364955 1 0 1
0 -264 67 -89 0 0 1 455.683036 -47.364955 1 0 1
de_dust_pwtrim1
0 -248 -57 -89 0.447214 0 -0.894427 -189.033482 -111.84375 1 0 1
0 -264 -57 -97 0.447214 0 -0.894427 -189.033482 -112.022321 1 0 1
0 -264 67 -97 0.447214 0 -0.894427 -194.569196 -112.022321 1 0 1
de_dust_pwtrim1
0 -248 -57 -89 0.447214 0 -0.894427 -189.033482 -111.84375 1 0 1
0 -264 67 -97 0.447214 0 -0.894427 -194.569196 -112.022321 1 0 1
0 -248 67 -89 0.447214 0 -0.894427 -194.569196 -111.84375 1 0 1
de_dust_pwtrim1
0 -88 -57 -1 0 0 1 447.747768 -45.981027 1 0 1
0 -72 -57 -1 0 0 1 447.033482 -45.981027 1 0 1
0 -72 67 -1 0 0 1 447.033482 -47.364955 1 0 1
de_dust_pwtrim1
0 -88 -57 -1 0 0 1 447.747768 -45.981027 1 0 1
0 -72 67 -1 0 0 1 447.033482 -47.364955 1 0 1
0 -88 67 -1 0 0 1 447.747768 -47.364955 1 0 1
de_dust_pwtrim1
0 -88 67 -9 0.447214 0 -0.894427 -194.569196 -110.058036 1 0 1
0 -72 67 -1 0.447214 0 -0.894427 -194.569196 -109.879464 1 0 1
0 -72 -57 -1 0.447214 0 -0.894427 -189.033482 -109.879464 1 0 1
de_dust_pwtrim1
0 -88 67 -9 0.447214 0 -0.894427 -194.569196 -110.058036 1 0 1
0 -72 -57 -1 0.447214 0 -0.894427 -189.033482 -109.879464 1 0 1
0 -88 -57 -9 0.447214 0 -0.894427 -189.033482 -110.058036 1 0 1
de_dust_pwtrim1
0 -88 -57 -1 -1 0 0 18.037946 -45.981027 1 0 1
0 -88 67 -1 -1 0 0 18.037946 -47.364955 1 0 1
0 -88 67 -9 -1 0 0 18.395089 -47.364955 1 0 1
de_dust_pwtrim1
0 -88 -57 -1 -1 0 0 18.037946 -45.981027 1 0 1
0 -88 67 -9 -1 0 0 18.395089 -47.364955 1 0 1
0 -88 -57 -9 -1 0 0 18.395089 -45.981027 1 0 1
de_dust_pwtrim1
0 73 71 -6 0 1 0 -18.167411 -108.378348 1 0 1
0 73 71 -26 0 1 0 -19.060268 -108.378348 1 0 1
0 53 71 -26 0 1 0 -19.060268 -108.601562 1 0 1
de_dust_pwtrim1
0 73 71 -6 0 1 0 -18.167411 -108.378348 1 0 1
0 53 71 -26 0 1 0 -19.060268 -108.601562 1 0 1
0 53 71 -6 0 1 0 -18.167411 -108.601562 1 0 1
pepsi2_arch_woodf3
0 73 -61 -26 0 -1 0 -77.117188 -2.34375 1 0 1
0 73 -61 -6 0 -1 0 -77.117188 -2.1875 1 0 1
0 53 -61 -6 0 -1 0 -77.273438 -2.1875 1 0 1
pepsi2_arch_woodf3
0 73 -61 -26 0 -1 0 -77.117188 -2.34375 1 0 1
0 53 -61 -6 0 -1 0 -77.273438 -2.1875 1 0 1
0 53 -61 -26 0 -1 0 -77.273438 -2.34375 1 0 1
de_dust_pwtrim1
0 53 -61 -26 -1 0 0 -19.060268 -45.905134 1 0 1
0 53 -61 -6 -1 0 0 -18.167411 -45.905134 1 0 1
0 53 71 -6 -1 0 0 -18.167411 -47.378348 1 0 1
de_dust_pwtrim1
0 53 -61 -26 -1 0 0 -19.060268 -45.905134 1 0 1
0 53 71 -6 -1 0 0 -18.167411 -47.378348 1 0 1
0 53 71 -26 -1 0 0 -19.060268 -47.378348 1 0 1
de_dust_pwtrim1
0 73 -61 -6 1 0 0 -18.167411 -45.905134 1 0 1
0 73 -61 -26 1 0 0 -19.060268 -45.905134 1 0 1
0 73 71 -26 1 0 0 -19.060268 -47.378348 1 0 1
de_dust_pwtrim1
0 73 -61 -6 1 0 0 -18.167411 -45.905134 1 0 1
0 73 71 -26 1 0 0 -19.060268 -47.378348 1 0 1
0 73 71 -6 1 0 0 -18.167411 -47.378348 1 0 1
de_dust_pwtrim1
0 73 -61 -26 0 0 -1 440.154018 -46.116071 1 0 1
0 53 -61 -26 0 0 -1 441.046875 -46.116071 1 0 1
0 53 71 -26 0 0 -1 441.046875 -47.589286 1 0 1
de_dust_pwtrim1
0 73 -61 -26 0 0 -1 440.154018 -46.116071 1 0 1
0 53 71 -26 0 0 -1 441.046875 -47.589286 1 0 1
0 73 71 -26 0 0 -1 440.154018 -47.589286 1 0 1
pepsi2_arch_woodf3
0 -52 61 -6 0 1 0 78.09375 -2.1875 1 0 1
0 -52 61 -26 0 1 0 78.09375 -2.34375 1 0 1
0 -72 61 -26 0 1 0 78.25 -2.34375 1 0 1
pepsi2_arch_woodf3
0 -52 61 -6 0 1 0 78.09375 -2.1875 1 0 1
0 -72 61 -26 0 1 0 78.25 -2.34375 1 0 1
0 -72 61 -6 0 1 0 78.25 -2.1875 1 0 1
pepsi2_arch_woodf3
0 -52 -64 -26 0 -1 0 -78.09375 -2.34375 1 0 1
0 -52 -64 -6 0 -1 0 -78.09375 -2.1875 1 0 1
0 -72 -64 -6 0 -1 0 -78.25 -2.1875 1 0 1
pepsi2_arch_woodf3
0 -52 -64 -26 0 -1 0 -78.09375 -2.34375 1 0 1
0 -72 -64 -6 0 -1 0 -78.25 -2.1875 1 0 1
0 -72 -64 -26 0 -1 0 -78.25 -2.34375 1 0 1
de_dust_pwtrim1
0 -72 -64 -26 -1 0 0 -19.060268 -45.871652 1 0 1
0 -72 -64 -6 -1 0 0 -18.167411 -45.871652 1 0 1
0 -72 61 -6 -1 0 0 -18.167411 -47.266741 1 0 1
de_dust_pwtrim1
0 -72 -64 -26 -1 0 0 -19.060268 -45.871652 1 0 1
0 -72 61 -6 -1 0 0 -18.167411 -47.266741 1 0 1
0 -72 61 -26 -1 0 0 -19.060268 -47.266741 1 0 1
de_dust_pwtrim1
0 -52 -64 -6 1 0 0 -18.167411 -45.871652 1 0 1
0 -52 -64 -26 1 0 0 -19.060268 -45.871652 1 0 1
0 -52 61 -26 1 0 0 -19.060268 -47.266741 1 0 1
de_dust_pwtrim1
0 -52 -64 -6 1 0 0 -18.167411 -45.871652 1 0 1
0 -52 61 -26 1 0 0 -19.060268 -47.266741 1 0 1
0 -52 61 -6 1 0 0 -18.167411 -47.266741 1 0 1
de_dust_pwtrim1
0 -52 -64 -26 0 0 -1 -445.953125 47.488839 1 0 1
0 -72 -64 -26 0 0 -1 -446.845982 47.488839 1 0 1
0 -72 61 -26 0 0 -1 -446.845982 48.883929 1 0 1
de_dust_pwtrim1
0 -52 -64 -26 0 0 -1 -445.953125 47.488839 1 0 1
0 -72 61 -26 0 0 -1 -446.845982 48.883929 1 0 1
0 -52 61 -26 0 0 -1 -445.953125 48.883929 1 0 1
de_dust_pwtrim1
0 -72 -61 -1 0.447214 0 -0.894427 188.729911 102.223013 1 0 1
0 -354 -61 -142 0.447214 0 -0.894427 188.729911 105.741719 1 0 1
0 -354 -57 -142 0.447214 0 -0.894427 188.908482 105.741719 1 0 1
de_dust_pwtrim1
0 -72 -61 -1 0.447214 0 -0.894427 188.729911 102.223013 1 0 1
0 -354 -57 -142 0.447214 0 -0.894427 188.908482 105.741719 1 0 1
0 -72 -57 -1 0.447214 0 -0.894427 188.908482 102.223013 1 0 1
de_dust_pwtrim1
0 -360 -61 -136.992 -0.447193 0 0.894438 188.729911 105.776616 1 0 1
0 -88 -61 -1 -0.447193 0 0.894438 188.729911 102.382728 1 0 1
0 -88 -57 -1 -0.447193 0 0.894438 188.908482 102.382728 1 0 1
de_dust_pwtrim1
0 -360 -61 -136.992 -0.447193 0 0.894438 188.729911 105.776616 1 0 1
0 -88 -57 -1 -0.447193 0 0.894438 188.908482 102.382728 1 0 1
0 -360 -57 -136.992 -0.447193 0 0.894438 188.908482 105.776616 1 0 1
de_dust_pwtrim1
0 -72 -57 -1 0 1 0 446.314732 5.294643 1 0 1
0 -354 -57 -142 0 1 0 458.904018 6.868304 1 0 1
0 -360 -57 -142 0 1 0 459.171875 6.868304 1 0 1
de_dust_pwtrim1
0 -72 -57 -1 0 1 0 446.314732 5.294643 1 0 1
0 -360 -57 -142 0 1 0 459.171875 6.868304 1 0 1
0 -360 -57 -136.992 0 1 0 459.171875 6.812411 1 0 1
de_dust_pwtrim1
0 -72 -57 -1 0 1 0 446.314732 5.294643 1 0 1
0 -360 -57 -136.992 0 1 0 459.171875 6.812411 1 0 1
0 -88 -57 -1 0 1 0 447.029018 5.294643 1 0 1
de_dust_pwtrim1
0 -88 -61 -1 0 -1 0 447.029018 5.294643 1 0 1
0 -360 -61 -136.992 0 -1 0 459.171875 6.812411 1 0 1
0 -360 -61 -142 0 -1 0 459.171875 6.868304 1 0 1
de_dust_pwtrim1
0 -88 -61 -1 0 -1 0 447.029018 5.294643 1 0 1
0 -360 -61 -142 0 -1 0 459.171875 6.868304 1 0 1
0 -354 -61 -142 0 -1 0 458.904018 6.868304 1 0 1
de_dust_pwtrim1
0 -88 -61 -1 0 -1 0 447.029018 5.294643 1 0 1
0 -354 -61 -142 0 -1 0 458.904018 6.868304 1 0 1
0 -72 -61 -1 0 -1 0 446.314732 5.294643 1 0 1
de_dust_pwtrim1
0 -360 -61 -136.992 -1 0 0 188.729911 6.781161 1 0 1
0 -360 -57 -136.992 -1 0 0 188.908482 6.781161 1 0 1
0 -360 -57 -142 -1 0 0 188.908482 6.837054 1 0 1
de_dust_pwtrim1
0 -360 -61 -136.992 -1 0 0 188.729911 6.781161 1 0 1
0 -360 -57 -142 -1 0 0 188.908482 6.837054 1 0 1
0 -360 -61 -142 -1 0 0 188.729911 6.837054 1 0 1
de_dust_pwtrim1
0 -72 -61 -1 0 0 1 188.729911 112.207589 1 0 1
0 -72 -57 -1 0 0 1 188.908482 112.207589 1 0 1
0 -88 -57 -1 0 0 1 188.908482 112.386161 1 0 1
de_dust_pwtrim1
0 -72 -61 -1 0 0 1 188.729911 112.207589 1 0 1
0 -88 -57 -1 0 0 1 188.908482 112.386161 1 0 1
0 -88 -61 -1 0 0 1 188.729911 112.386161 1 0 1
de_dust_pwtrim1
0 -72 -61 -6 -1 0 0 18.261161 -45.936384 1 0 1
0 -72 -61 6 -1 0 0 17.725446 -45.936384 1 0 1
0 -72 61 6 -1 0 0 17.725446 -47.297991 1 0 1
de_dust_pwtrim1
0 -72 -61 -6 -1 0 0 18.261161 -45.936384 1 0 1
0 -72 61 6 -1 0 0 17.725446 -47.297991 1 0 1
0 -72 61 -6 -1 0 0 18.261161 -47.297991 1 0 1
pepsi2_arch_woodf3
0 -62 -61 -6 0 0 -1 -55.276507 23.786551 1 0 1
0 -72 -61 -6 0 0 -1 -55.33231 23.786551 1 0 1
0 -72 61 -6 0 0 -1 -55.33231 24.467355 1 0 1
pepsi2_arch_woodf3
0 -62 -61 -6 0 0 -1 -55.276507 23.786551 1 0 1
0 -72 61 -6 0 0 -1 -55.33231 24.467355 1 0 1
0 -62 61 -6 0 0 -1 -55.276507 24.467355 1 0 1
de_dust_pwtrim1
0 -72 -61 6 0 0 1 446.720982 -45.936384 1 0 1
0 -62 -61 6 0 0 1 446.274554 -45.936384 1 0 1
0 -62 61 6 0 0 1 446.274554 -47.297991 1 0 1
de_dust_pwtrim1
0 -72 -61 6 0 0 1 446.720982 -45.936384 1 0 1
0 -62 61 6 0 0 1 446.274554 -47.297991 1 0 1
0 -72 61 6 0 0 1 446.720982 -47.297991 1 0 1
de_dust_pwtrim1
0 -232 -57 -73 -1 0 0 21.252232 -45.981027 1 0 1
0 -232 67 -73 -1 0 0 21.252232 -47.364955 1 0 1
0 -232 67 -81 -1 0 0 21.609375 -47.364955 1 0 1
de_dust_pwtrim1
0 -232 -57 -73 -1 0 0 21.252232 -45.981027 1 0 1
0 -232 67 -81 -1 0 0 21.609375 -47.364955 1 0 1
0 -232 -57 -81 -1 0 0 21.609375 -45.981027 1 0 1
de_dust_pwtrim1
0 -216 -57 -73 0 0 1 452.962054 -45.981027 1 0 1
0 -216 67 -73 0 0 1 452.962054 -47.364955 1 0 1
0 -232 67 -73 0 0 1 453.676339 -47.364955 1 0 1
de_dust_pwtrim1
0 -216 -57 -73 0 0 1 452.962054 -45.981027 1 0 1
0 -232 67 -73 0 0 1 453.676339 -47.364955 1 0 1
0 -232 -57 -73 0 0 1 453.676339 -45.981027 1 0 1
de_dust_pwtrim1
0 -232 -57 -81 0.447214 0 -0.894427 -189.033482 -111.665179 1 0 1
0 -232 67 -81 0.447214 0 -0.894427 -194.569196 -111.665179 1 0 1
0 -216 67 -73 0.447214 0 -0.894427 -194.569196 -111.486607 1 0 1
de_dust_pwtrim1
0 -232 -57 -81 0.447214 0 -0.894427 -189.033482 -111.665179 1 0 1
0 -216 67 -73 0.447214 0 -0.894427 -194.569196 -111.486607 1 0 1
0 -216 -57 -73 0.447214 0 -0.894427 -189.033482 -111.486607 1 0 1
de_dust_pwtrim1
0 -152 -57 -41 -1 0 0 189.220982 -4.631696 1 0 1
0 -152 -57 -33 -1 0 0 189.220982 -4.542411 1 0 1
0 -152 67 -33 -1 0 0 194.756696 -4.542411 1 0 1
de_dust_pwtrim1
0 -152 -57 -41 -1 0 0 189.220982 -4.631696 1 0 1
0 -152 67 -33 -1 0 0 194.756696 -4.542411 1 0 1
0 -152 67 -41 -1 0 0 194.756696 -4.631696 1 0 1
de_dust_pwtrim1
0 -152 -57 -33 0 0 1 450.323661 -45.981027 1 0 1
0 -136 -57 -33 0 0 1 449.609375 -45.981027 1 0 1
0 -136 67 -33 0 0 1 449.609375 -47.364955 1 0 1
de_dust_pwtrim1
0 -152 -57 -33 0 0 1 450.323661 -45.981027 1 0 1
0 -136 67 -33 0 0 1 449.609375 -47.364955 1 0 1
0 -152 67 -33 0 0 1 450.323661 -47.364955 1 0 1
de_dust_pwtrim1
0 -136 -57 -33 0.447214 0 -0.894427 -189.033482 -110.59375 1 0 1
0 -152 -57 -41 0.447214 0 -0.894427 -189.033482 -110.772321 1 0 1
0 -152 67 -41 0.447214 0 -0.894427 -194.569196 -110.772321 1 0 1
de_dust_pwtrim1
0 -136 -57 -33 0.447214 0 -0.894427 -189.033482 -110.59375 1 0 1
0 -152 67 -41 0.447214 0 -0.894427 -194.569196 -110.772321 1 0 1
0 -136 67 -33 0.447214 0 -0.894427 -194.569196 -110.59375 1 0 1
de_dust_pwtrim1
0 63 -78 -142 1 0 0 188.002232 6.68471 1 0 1
0 63 -64 -142 1 0 0 188.627232 6.68471 1 0 1
0 63 -64 -26 1 0 0 188.627232 5.390067 1 0 1
de_dust_pwtrim1
0 63 -78 -142 1 0 0 188.002232 6.68471 1 0 1
0 63 -64 -26 1 0 0 188.627232 5.390067 1 0 1
0 63 -78 -26 1 0 0 188.002232 5.390067 1 0 1
de_dust_pwtrim1
0 63 -64 -26 0.707107 0.707107 0 445.616795 5.390067 1 0 1
0 63 -64 -142 0.707107 0.707107 0 445.616795 6.68471 1 0 1
0 60 -61 -142 0.707107 0.707107 0 445.806196 6.68471 1 0 1
de_dust_pwtrim1
0 63 -64 -26 0.707107 0.707107 0 445.616795 5.390067 1 0 1
0 60 -61 -142 0.707107 0.707107 0 445.806196 6.68471 1 0 1
0 60 -61 -26 0.707107 0.707107 0 445.806196 5.390067 1 0 1
de_dust_pwtrim1
0 43 -64 -26 -0.707107 0.707107 0 178.622143 5.390067 1 0 1
0 46 -61 -26 -0.707107 0.707107 0 178.432741 5.390067 1 0 1
0 46 -61 -142 -0.707107 0.707107 0 178.432741 6.68471 1 0 1
de_dust_pwtrim1
0 43 -64 -26 -0.707107 0.707107 0 178.622143 5.390067 1 0 1
0 46 -61 -142 -0.707107 0.707107 0 178.432741 6.68471 1 0 1
0 43 -64 -142 -0.707107 0.707107 0 178.622143 6.68471 1 0 1
de_dust_pwtrim1
0 60 -81 -142 0.707107 -0.707107 0 -178.184643 6.68471 1 0 1
0 63 -78 -142 0.707107 -0.707107 0 -177.995241 6.68471 1 0 1
0 63 -78 -26 0.707107 -0.707107 0 -177.995241 5.390067 1 0 1
de_dust_pwtrim1
0 60 -81 -142 0.707107 -0.707107 0 -178.184643 6.68471 1 0 1
0 63 -78 -26 0.707107 -0.707107 0 -177.995241 5.390067 1 0 1
0 60 -81 -26 0.707107 -0.707107 0 -178.184643 5.390067 1 0 1
de_dust_pwtrim1
0 46 -81 -26 -0.707107 -0.707107 0 -445.554295 5.390067 1 0 1
0 43 -78 -26 -0.707107 -0.707107 0 -445.743696 5.390067 1 0 1
0 43 -78 -142 -0.707107 -0.707107 0 -445.743696 6.68471 1 0 1
de_dust_pwtrim1
0 46 -81 -26 -0.707107 -0.707107 0 -445.554295 5.390067 1 0 1
0 43 -78 -142 -0.707107 -0.707107 0 -445.743696 6.68471 1 0 1
0 46 -81 -142 -0.707107 -0.707107 0 -445.554295 6.68471 1 0 1
de_dust_pwtrim1
0 60 -61 -142 0 1 0 440.8125 6.68471 1 0 1
0 46 -61 -142 0 1 0 441.4375 6.68471 1 0 1
0 46 -61 -26 0 1 0 441.4375 5.390067 1 0 1
de_dust_pwtrim1
0 60 -61 -142 0 1 0 440.8125 6.68471 1 0 1
0 46 -61 -26 0 1 0 441.4375 5.390067 1 0 1
0 60 -61 -26 0 1 0 440.8125 5.390067 1 0 1
de_dust_pwtrim1
0 60 -81 -26 0 -1 0 -441.1875 5.390067 1 0 1
0 46 -81 -26 0 -1 0 -441.8125 5.390067 1 0 1
0 46 -81 -142 0 -1 0 -441.8125 6.68471 1 0 1
de_dust_pwtrim1
0 60 -81 -26 0 -1 0 -441.1875 5.390067 1 0 1
0 46 -81 -142 0 -1 0 -441.8125 6.68471 1 0 1
0 60 -81 -142 0 -1 0 -441.1875 6.68471 1 0 1
de_dust_pwtrim1
0 43 -78 -26 -1 0 0 -187.736607 5.390067 1 0 1
0 43 -64 -26 -1 0 0 -188.361607 5.390067 1 0 1
0 43 -64 -142 -1 0 0 -188.361607 6.68471 1 0 1
de_dust_pwtrim1
0 43 -78 -26 -1 0 0 -187.736607 5.390067 1 0 1
0 43 -64 -142 -1 0 0 -188.361607 6.68471 1 0 1
0 43 -78 -142 -1 0 0 -187.736607 6.68471 1 0 1
de_dust_pwtrim1
0 60 71 -142 0 1 0 441 6.68471 1 0 1
0 46 71 -142 0 1 0 441.625 6.68471 1 0 1
0 46 71 -26 0 1 0 441.625 5.390067 1 0 1
de_dust_pwtrim1
0 60 71 -142 0 1 0 441 6.68471 1 0 1
0 46 71 -26 0 1 0 441.625 5.390067 1 0 1
0 60 71 -26 0 1 0 441 5.390067 1 0 1
de_dust_pwtrim1
0 60 51 -26 0 -1 0 -440.75 5.390067 1 0 1
0 46 51 -26 0 -1 0 -441.375 5.390067 1 0 1
0 46 51 -142 0 -1 0 -441.375 6.68471 1 0 1
de_dust_pwtrim1
0 60 51 -26 0 -1 0 -440.75 5.390067 1 0 1
0 46 51 -142 0 -1 0 -441.375 6.68471 1 0 1
0 60 51 -142 0 -1 0 -440.75 6.68471 1 0 1
de_dust_pwtrim1
0 43 54 -26 -1 0 0 -194.551339 5.390067 1 0 1
0 43 68 -26 -1 0 0 -195.176339 5.390067 1 0 1
0 43 68 -142 -1 0 0 -195.176339 6.68471 1 0 1
de_dust_pwtrim1
0 43 54 -26 -1 0 0 -194.551339 5.390067 1 0 1
0 43 68 -142 -1 0 0 -195.176339 6.68471 1 0 1
0 43 54 -142 -1 0 0 -194.551339 6.68471 1 0 1
de_dust_pwtrim1
0 63 54 -142 1 0 0 194.191964 6.68471 1 0 1
0 63 68 -142 1 0 0 194.816964 6.68471 1 0 1
0 63 68 -26 1 0 0 194.816964 5.390067 1 0 1
de_dust_pwtrim1
0 63 54 -142 1 0 0 194.191964 6.68471 1 0 1
0 63 68 -26 1 0 0 194.816964 5.390067 1 0 1
0 63 54 -26 1 0 0 194.191964 5.390067 1 0 1
de_dust_pwtrim1
0 43 68 -142 -0.707107 0.707107 0 173.814679 6.68471 1 0 1
0 43 68 -26 -0.707107 0.707107 0 173.814679 5.390067 1 0 1
0 46 71 -26 -0.707107 0.707107 0 173.625277 5.390067 1 0 1
de_dust_pwtrim1
0 43 68 -142 -0.707107 0.707107 0 173.814679 6.68471 1 0 1
0 46 71 -26 -0.707107 0.707107 0 173.625277 5.390067 1 0 1
0 46 71 -142 -0.707107 0.707107 0 173.625277 6.68471 1 0 1
de_dust_pwtrim1
0 46 51 -142 -0.707107 -0.707107 0 -449.361759 6.68471 1 0 1
0 46 51 -26 -0.707107 -0.707107 0 -449.361759 5.390067 1 0 1
0 43 54 -26 -0.707107 -0.707107 0 -449.551161 5.390067 1 0 1
de_dust_pwtrim1
0 46 51 -142 -0.707107 -0.707107 0 -449.361759 6.68471 1 0 1
0 43 54 -26 -0.707107 -0.707107 0 -449.551161 5.390067 1 0 1
0 43 54 -142 -0.707107 -0.707107 0 -449.551161 6.68471 1 0 1
de_dust_pwtrim1
0 63 68 -26 0.707107 0.707107 0 449.814884 5.390067 1 0 1
0 63 68 -142 0.707107 0.707107 0 449.814884 6.68471 1 0 1
0 60 71 -142 0.707107 0.707107 0 450.004286 6.68471 1 0 1
de_dust_pwtrim1
0 63 68 -26 0.707107 0.707107 0 449.814884 5.390067 1 0 1
0 60 71 -142 0.707107 0.707107 0 450.004286 6.68471 1 0 1
0 60 71 -26 0.707107 0.707107 0 450.004286 5.390067 1 0 1
de_dust_pwtrim1
0 60 51 -26 0.707107 -0.707107 0 -173.736554 5.390067 1 0 1
0 60 51 -142 0.707107 -0.707107 0 -173.736554 6.68471 1 0 1
0 63 54 -142 0.707107 -0.707107 0 -173.547152 6.68471 1 0 1
de_dust_pwtrim1
0 60 51 -26 0.707107 -0.707107 0 -173.736554 5.390067 1 0 1
0 63 54 -142 0.707107 -0.707107 0 -173.547152 6.68471 1 0 1
0 63 54 -26 0.707107 -0.707107 0 -173.547152 5.390067 1 0 1
de_dust_pwtrim1
0 74 71 6 0 1 0 17.725446 110.578125 1 0 1
0 74 71 -6 0 1 0 18.261161 110.578125 1 0 1
0 63 71 -6 0 1 0 18.261161 110.700893 1 0 1
de_dust_pwtrim1
0 74 71 6 0 1 0 17.725446 110.578125 1 0 1
0 63 71 -6 0 1 0 18.261161 110.700893 1 0 1
0 63 71 6 0 1 0 17.725446 110.700893 1 0 1
de_dust_pwtrim1
0 74 -216 6 1 0 0 17.725446 45.858817 1 0 1
0 74 -216 -6 1 0 0 18.261161 45.858817 1 0 1
0 74 71 -6 1 0 0 18.261161 49.061942 1 0 1
de_dust_pwtrim1
0 74 -216 6 1 0 0 17.725446 45.858817 1 0 1
0 74 71 -6 1 0 0 18.261161 49.061942 1 0 1
0 74 71 6 1 0 0 17.725446 49.061942 1 0 1
de_dust_pwtrim1
0 74 -216 -6 0 0 -1 440.21875 45.858817 1 0 1
0 63 -216 -6 0 0 -1 440.709821 45.858817 1 0 1
0 63 71 -6 0 0 -1 440.709821 49.061942 1 0 1
de_dust_pwtrim1
0 74 -216 -6 0 0 -1 440.21875 45.858817 1 0 1
0 63 71 -6 0 0 -1 440.709821 49.061942 1 0 1
0 74 71 -6 0 0 -1 440.21875 49.061942 1 0 1
de_dust_pwtrim1
0 63 -216 6 0 0 1 440.725446 -44.589286 1 0 1
0 74 -216 6 0 0 1 440.234375 -44.589286 1 0 1
0 74 71 6 0 0 1 440.234375 -47.792411 1 0 1
de_dust_pwtrim1
0 63 -216 6 0 0 1 440.725446 -44.589286 1 0 1
0 74 71 6 0 0 1 440.234375 -47.792411 1 0 1
0 63 71 6 0 0 1 440.725446 -47.792411 1 0 1
de_dust_pwtrim1
0 -132 -61 -142 0 1 0 -449.555804 6.68471 1 0 1
0 -146 -61 -142 0 1 0 -450.180804 6.68471 1 0 1
0 -146 -61 -26 0 1 0 -450.180804 5.390067 1 0 1
de_dust_pwtrim1
0 -132 -61 -142 0 1 0 -449.555804 6.68471 1 0 1
0 -146 -61 -26 0 1 0 -450.180804 5.390067 1 0 1
0 -132 -61 -26 0 1 0 -449.555804 5.390067 1 0 1
de_dust_pwtrim1
0 -132 -81 -26 0 -1 0 449.180804 5.390067 1 0 1
0 -146 -81 -26 0 -1 0 449.805804 5.390067 1 0 1
0 -146 -81 -142 0 -1 0 449.805804 6.68471 1 0 1
de_dust_pwtrim1
0 -132 -81 -26 0 -1 0 449.180804 5.390067 1 0 1
0 -146 -81 -142 0 -1 0 449.805804 6.68471 1 0 1
0 -132 -81 -142 0 -1 0 449.180804 6.68471 1 0 1
de_dust_pwtrim1
0 -149 -78 -26 -1 0 0 188.002232 5.390067 1 0 1
0 -149 -64 -26 -1 0 0 188.627232 5.390067 1 0 1
0 -149 -64 -142 -1 0 0 188.627232 6.68471 1 0 1
de_dust_pwtrim1
0 -149 -78 -26 -1 0 0 188.002232 5.390067 1 0 1
0 -149 -64 -142 -1 0 0 188.627232 6.68471 1 0 1
0 -149 -78 -142 -1 0 0 188.002232 6.68471 1 0 1
de_dust_pwtrim1
0 -129 -78 -142 1 0 0 -187.736607 6.68471 1 0 1
0 -129 -64 -142 1 0 0 -188.361607 6.68471 1 0 1
0 -129 -64 -26 1 0 0 -188.361607 5.390067 1 0 1
de_dust_pwtrim1
0 -129 -78 -142 1 0 0 -187.736607 6.68471 1 0 1
0 -129 -64 -26 1 0 0 -188.361607 5.390067 1 0 1
0 -129 -78 -26 1 0 0 -187.736607 5.390067 1 0 1
de_dust_pwtrim1
0 -129 -64 -26 0.707107 0.707107 0 -451.365152 5.390067 1 0 1
0 -129 -64 -142 0.707107 0.707107 0 -451.365152 6.68471 1 0 1
0 -132 -61 -142 0.707107 0.707107 0 -451.554554 6.68471 1 0 1
de_dust_pwtrim1
0 -129 -64 -26 0.707107 0.707107 0 -451.365152 5.390067 1 0 1
0 -132 -61 -142 0.707107 0.707107 0 -451.554554 6.68471 1 0 1
0 -132 -61 -26 0.707107 0.707107 0 -451.554554 5.390067 1 0 1
de_dust_pwtrim1
0 -149 -64 -142 -0.707107 0.707107 0 -184.3705 6.68471 1 0 1
0 -149 -64 -26 -0.707107 0.707107 0 -184.3705 5.390067 1 0 1
0 -146 -61 -26 -0.707107 0.707107 0 -184.181098 5.390067 1 0 1
de_dust_pwtrim1
0 -149 -64 -142 -0.707107 0.707107 0 -184.3705 6.68471 1 0 1
0 -146 -61 -26 -0.707107 0.707107 0 -184.181098 5.390067 1 0 1
0 -146 -61 -142 -0.707107 0.707107 0 -184.181098 6.68471 1 0 1
de_dust_pwtrim1
0 -132 -81 -26 0.707107 -0.707107 0 184.183 5.390067 1 0 1
0 -132 -81 -142 0.707107 -0.707107 0 184.183 6.68471 1 0 1
0 -129 -78 -142 0.707107 -0.707107 0 183.993598 6.68471 1 0 1
de_dust_pwtrim1
0 -132 -81 -26 0.707107 -0.707107 0 184.183 5.390067 1 0 1
0 -129 -78 -142 0.707107 -0.707107 0 183.993598 6.68471 1 0 1
0 -129 -78 -26 0.707107 -0.707107 0 183.993598 5.390067 1 0 1
de_dust_pwtrim1
0 -146 -81 -142 -0.707107 -0.707107 0 451.802652 6.68471 1 0 1
0 -146 -81 -26 -0.707107 -0.707107 0 451.802652 5.390067 1 0 1
0 -149 -78 -26 -0.707107 -0.707107 0 451.992054 5.390067 1 0 1
de_dust_pwtrim1
0 -146 -81 -142 -0.707107 -0.707107 0 451.802652 6.68471 1 0 1
0 -149 -78 -26 -0.707107 -0.707107 0 451.992054 5.390067 1 0 1
0 -149 -78 -142 -0.707107 -0.707107 0 451.992054 6.68471 1 0 1
de_dust_pwtrim1
0 -184 -57 -49 0 0 1 451.470982 -45.981027 1 0 1
0 -168 -57 -49 0 0 1 450.756696 -45.981027 1 0 1
0 -168 67 -49 0 0 1 450.756696 -47.364955 1 0 1
de_dust_pwtrim1
0 -184 -57 -49 0 0 1 451.470982 -45.981027 1 0 1
0 -168 67 -49 0 0 1 450.756696 -47.364955 1 0 1
0 -184 67 -49 0 0 1 451.470982 -47.364955 1 0 1
de_dust_pwtrim1
0 -184 67 -57 0.447214 0 -0.894427 -194.569196 -111.129464 1 0 1
0 -168 67 -49 0.447214 0 -0.894427 -194.569196 -110.950893 1 0 1
0 -168 -57 -49 0.447214 0 -0.894427 -189.033482 -110.950893 1 0 1
de_dust_pwtrim1
0 -184 67 -57 0.447214 0 -0.894427 -194.569196 -111.129464 1 0 1
0 -168 -57 -49 0.447214 0 -0.894427 -189.033482 -110.950893 1 0 1
0 -184 -57 -57 0.447214 0 -0.894427 -189.033482 -111.129464 1 0 1
de_dust_pwtrim1
0 -184 -57 -49 -1 0 0 20.180804 -45.981027 1 0 1
0 -184 67 -49 -1 0 0 20.180804 -47.364955 1 0 1
0 -184 67 -57 -1 0 0 20.537946 -47.364955 1 0 1
de_dust_pwtrim1
0 -184 -57 -49 -1 0 0 20.180804 -45.981027 1 0 1
0 -184 67 -57 -1 0 0 20.537946 -47.364955 1 0 1
0 -184 -57 -57 -1 0 0 20.537946 -45.981027 1 0 1
de_dust_pwtrim1
0 63 71 6 0 1 0 17.725446 110.700893 1 0 1
0 63 71 -6 0 1 0 18.261161 110.700893 1 0 1
0 -72 71 -6 0 1 0 18.261161 112.207589 1 0 1
de_dust_pwtrim1
0 63 71 6 0 1 0 17.725446 110.700893 1 0 1
0 -72 71 -6 0 1 0 18.261161 112.207589 1 0 1
0 -72 71 6 0 1 0 17.725446 112.207589 1 0 1
de_dust_pwtrim1
0 -72 61 -6 -1 0 0 18.261161 -47.297991 1 0 1
0 -72 61 6 -1 0 0 17.725446 -47.297991 1 0 1
0 -72 71 6 -1 0 0 17.725446 -47.409598 1 0 1
de_dust_pwtrim1
0 -72 61 -6 -1 0 0 18.261161 -47.297991 1 0 1
0 -72 71 6 -1 0 0 17.725446 -47.409598 1 0 1
0 -72 71 -6 -1 0 0 18.261161 -47.409598 1 0 1
pepsi2_arch_woodf3
0 63 61 -6 0 0 -1 -54.578962 24.467355 1 0 1
0 -72 61 -6 0 0 -1 -55.33231 24.467355 1 0 1
0 -72 71 -6 0 0 -1 -55.33231 24.523158 1 0 1
pepsi2_arch_woodf3
0 63 61 -6 0 0 -1 -54.578962 24.467355 1 0 1
0 -72 71 -6 0 0 -1 -55.33231 24.523158 1 0 1
0 63 71 -6 0 0 -1 -54.578962 24.523158 1 0 1
de_dust_pwtrim1
0 -72 61 6 0 0 1 194.270089 112.207589 1 0 1
0 63 61 6 0 0 1 194.270089 110.700893 1 0 1
0 63 71 6 0 0 1 194.716518 110.700893 1 0 1
de_dust_pwtrim1
0 -72 61 6 0 0 1 194.270089 112.207589 1 0 1
0 63 71 6 0 0 1 194.716518 110.700893 1 0 1
0 -72 71 6 0 0 1 194.716518 112.207589 1 0 1
de_dust_pwtrim1
0 -45 51 -26 0.707107 -0.707107 0 -177.738585 5.390067 1 0 1
0 -45 51 -142 0.707107 -0.707107 0 -177.738585 6.68471 1 0 1
0 -42 54 -142 0.707107 -0.707107 0 -177.549183 6.68471 1 0 1
de_dust_pwtrim1
0 -45 51 -26 0.707107 -0.707107 0 -177.738585 5.390067 1 0 1
0 -42 54 -142 0.707107 -0.707107 0 -177.549183 6.68471 1 0 1
0 -42 54 -26 0.707107 -0.707107 0 -177.549183 5.390067 1 0 1
de_dust_pwtrim1
0 -45.01 71 -142 0 1 0 445.000446 6.68471 1 0 1
0 -59 71 -142 0 1 0 445.625 6.68471 1 0 1
0 -59 71 -26 0 1 0 445.625 5.390067 1 0 1
de_dust_pwtrim1
0 -45.01 71 -142 0 1 0 445.000446 6.68471 1 0 1
0 -59 71 -26 0 1 0 445.625 5.390067 1 0 1
0 -45.01 71 -26 0 1 0 445.000446 5.390067 1 0 1
de_dust_pwtrim1
0 -45 51 -142 0 -1 0 -445.75 6.68471 1 0 1
0 -45 51 -26 0 -1 0 -445.75 5.390067 1 0 1
0 -59 51 -26 0 -1 0 -446.375 5.390067 1 0 1
de_dust_pwtrim1
0 -45 51 -142 0 -1 0 -445.75 6.68471 1 0 1
0 -59 51 -26 0 -1 0 -446.375 5.390067 1 0 1
0 -59 51 -142 0 -1 0 -446.375 6.68471 1 0 1
de_dust_pwtrim1
0 -62 54 -26 -1 0 0 -194.551339 5.390067 1 0 1
0 -62 68 -26 -1 0 0 -195.176339 5.390067 1 0 1
0 -62 68 -142 -1 0 0 -195.176339 6.68471 1 0 1
de_dust_pwtrim1
0 -62 54 -26 -1 0 0 -194.551339 5.390067 1 0 1
0 -62 68 -142 -1 0 0 -195.176339 6.68471 1 0 1
0 -62 54 -142 -1 0 0 -194.551339 6.68471 1 0 1
de_dust_pwtrim1
0 -42 54 -26 1 0 0 194.191964 5.390067 1 0 1
0 -42 54 -142 1 0 0 194.191964 6.68471 1 0 1
0 -42 67.99 -142 1 0 0 194.816518 6.68471 1 0 1
de_dust_pwtrim1
0 -42 54 -26 1 0 0 194.191964 5.390067 1 0 1
0 -42 67.99 -142 1 0 0 194.816518 6.68471 1 0 1
0 -42 67.99 -26 1 0 0 194.816518 5.390067 1 0 1
de_dust_pwtrim1
0 -62 68 -142 -0.707107 0.707107 0 177.81671 6.68471 1 0 1
0 -62 68 -26 -0.707107 0.707107 0 177.81671 5.390067 1 0 1
0 -59 71 -26 -0.707107 0.707107 0 177.627308 5.390067 1 0 1
de_dust_pwtrim1
0 -62 68 -142 -0.707107 0.707107 0 177.81671 6.68471 1 0 1
0 -59 71 -26 -0.707107 0.707107 0 177.627308 5.390067 1 0 1
0 -59 71 -142 -0.707107 0.707107 0 177.627308 6.68471 1 0 1
de_dust_pwtrim1
0 -59 51 -142 -0.707107 -0.707107 0 -452.36379 6.68471 1 0 1
0 -59 51 -26 -0.707107 -0.707107 0 -452.36379 5.390067 1 0 1
0 -62 54 -26 -0.707107 -0.707107 0 -452.553192 5.390067 1 0 1
de_dust_pwtrim1
0 -59 51 -142 -0.707107 -0.707107 0 -452.36379 6.68471 1 0 1
0 -62 54 -26 -0.707107 -0.707107 0 -452.553192 5.390067 1 0 1
0 -62 54 -142 -0.707107 -0.707107 0 -452.553192 6.68471 1 0 1
de_dust_pwtrim1
0 -42 67.99 -26 0.707107 0.707107 0 452.800975 5.390067 1 0 1
0 -42 67.99 -142 0.707107 0.707107 0 452.800975 6.68471 1 0 1
0 -45.01 71 -142 0.707107 0.707107 0 452.991008 6.68471 1 0 1
de_dust_pwtrim1
0 -42 67.99 -26 0.707107 0.707107 0 452.800975 5.390067 1 0 1
0 -45.01 71 -142 0.707107 0.707107 0 452.991008 6.68471 1 0 1
0 -45.01 71 -26 0.707107 0.707107 0 452.991008 5.390067 1 0 1
de_dust_pwtrim1
0 -200 -57 -65 -1 0 0 20.895089 -45.981027 1 0 1
0 -200 -57 -57 -1 0 0 20.537946 -45.981027 1 0 1
0 -200 67 -57 -1 0 0 20.537946 -47.364955 1 0 1
de_dust_pwtrim1
0 -200 -57 -65 -1 0 0 20.895089 -45.981027 1 0 1
0 -200 67 -57 -1 0 0 20.537946 -47.364955 1 0 1
0 -200 67 -65 -1 0 0 20.895089 -47.364955 1 0 1
de_dust_pwtrim1
0 -200 -57 -57 0 0 1 452.529018 -45.981027 1 0 1
0 -184 -57 -57 0 0 1 451.814732 -45.981027 1 0 1
0 -184 67 -57 0 0 1 451.814732 -47.364955 1 0 1
de_dust_pwtrim1
0 -200 -57 -57 0 0 1 452.529018 -45.981027 1 0 1
0 -184 67 -57 0 0 1 451.814732 -47.364955 1 0 1
0 -200 67 -57 0 0 1 452.529018 -47.364955 1 0 1
de_dust_pwtrim1
0 -184 -57 -57 0.447214 0 -0.894427 -189.033482 -111.129464 1 0 1
0 -200 -57 -65 0.447214 0 -0.894427 -189.033482 -111.308036 1 0 1
0 -200 67 -65 0.447214 0 -0.894427 -194.569196 -111.308036 1 0 1
de_dust_pwtrim1
0 -184 -57 -57 0.447214 0 -0.894427 -189.033482 -111.129464 1 0 1
0 -200 67 -65 0.447214 0 -0.894427 -194.569196 -111.308036 1 0 1
0 -184 67 -57 0.447214 0 -0.894427 -194.569196 -111.129464 1 0 1
de_dust_pwtrim1
0 -280 -57 -105 0.447214 0 -0.894427 -189.033482 -112.665737 1 0 1
0 -296 -57 -113 0.447214 0 -0.894427 -189.033482 -112.844308 1 0 1
0 -296 67 -113 0.447214 0 -0.894427 -194.569196 -112.844308 1 0 1
de_dust_pwtrim1
0 -280 -57 -105 0.447214 0 -0.894427 -189.033482 -112.665737 1 0 1
0 -296 67 -113 0.447214 0 -0.894427 -194.569196 -112.844308 1 0 1
0 -280 67 -105 0.447214 0 -0.894427 -194.569196 -112.665737 1 0 1
de_dust_pwtrim1
0 -296 67 -105 -1 0 0 22.602679 -47.364955 1 0 1
0 -296 67 -113 -1 0 0 22.959821 -47.364955 1 0 1
0 -296 -57 -113 -1 0 0 22.959821 -45.981027 1 0 1
de_dust_pwtrim1
0 -296 67 -105 -1 0 0 22.602679 -47.364955 1 0 1
0 -296 -57 -113 -1 0 0 22.959821 -45.981027 1 0 1
0 -296 -57 -105 -1 0 0 22.602679 -45.981027 1 0 1
de_dust_pwtrim1
0 -296 -57 -105 0 0 1 456.752232 -45.981027 1 0 1
0 -280 -57 -105 0 0 1 456.037946 -45.981027 1 0 1
0 -280 67 -105 0 0 1 456.037946 -47.364955 1 0 1
de_dust_pwtrim1
0 -296 -57 -105 0 0 1 456.752232 -45.981027 1 0 1
0 -280 67 -105 0 0 1 456.037946 -47.364955 1 0 1
0 -296 67 -105 0 0 1 456.752232 -47.364955 1 0 1
de_dust_pwtrim1
0 -136 -57 -33 -1 0 0 19.466518 -45.981027 1 0 1
0 -136 -57 -25 -1 0 0 19.109375 -45.981027 1 0 1
0 -136 67 -25 -1 0 0 19.109375 -47.364955 1 0 1
de_dust_pwtrim1
0 -136 -57 -33 -1 0 0 19.466518 -45.981027 1 0 1
0 -136 67 -25 -1 0 0 19.109375 -47.364955 1 0 1
0 -136 67 -33 -1 0 0 19.466518 -47.364955 1 0 1
de_dust_pwtrim1
0 -136 -57 -25 0 0 1 449.25 -45.981027 1 0 1
0 -120 -57 -25 0 0 1 448.535714 -45.981027 1 0 1
0 -120 67 -25 0 0 1 448.535714 -47.364955 1 0 1
de_dust_pwtrim1
0 -136 -57 -25 0 0 1 449.25 -45.981027 1 0 1
0 -120 67 -25 0 0 1 448.535714 -47.364955 1 0 1
0 -136 67 -25 0 0 1 449.25 -47.364955 1 0 1
de_dust_pwtrim1
0 -120 -57 -25 0.447214 0 -0.894427 -189.033482 -110.415179 1 0 1
0 -136 -57 -33 0.447214 0 -0.894427 -189.033482 -110.59375 1 0 1
0 -136 67 -33 0.447214 0 -0.894427 -194.569196 -110.59375 1 0 1
de_dust_pwtrim1
0 -120 -57 -25 0.447214 0 -0.894427 -189.033482 -110.415179 1 0 1
0 -136 67 -33 0.447214 0 -0.894427 -194.569196 -110.59375 1 0 1
0 -120 67 -25 0.447214 0 -0.894427 -194.569196 -110.415179 1 0 1
de_dust_pwtrim1
0 -72 71 -26 0 1 0 -19.060268 -109.996652 1 0 1
0 -72 71 -6 0 1 0 -18.167411 -109.996652 1 0 1
0 53 71 -6 0 1 0 -18.167411 -108.601562 1 0 1
de_dust_pwtrim1
0 -72 71 -26 0 1 0 -19.060268 -109.996652 1 0 1
0 53 71 -6 0 1 0 -18.167411 -108.601562 1 0 1
0 53 71 -26 0 1 0 -19.060268 -108.601562 1 0 1
de_dust_pwtrim1
0 53 51 -26 0 -1 0 -19.060268 111.070312 1 0 1
0 53 51 -6 0 -1 0 -18.167411 111.070312 1 0 1
0 -72 51 -6 0 -1 0 -18.167411 112.465402 1 0 1
de_dust_pwtrim1
0 53 51 -26 0 -1 0 -19.060268 111.070312 1 0 1
0 -72 51 -6 0 -1 0 -18.167411 112.465402 1 0 1
0 -72 51 -26 0 -1 0 -19.060268 112.465402 1 0 1
de_dust_pwtrim1
0 -72 51 -26 -1 0 0 -19.060268 -47.155134 1 0 1
0 -72 51 -6 -1 0 0 -18.167411 -47.155134 1 0 1
0 -72 71 -6 -1 0 0 -18.167411 -47.378348 1 0 1
de_dust_pwtrim1
0 -72 51 -26 -1 0 0 -19.060268 -47.155134 1 0 1
0 -72 71 -6 -1 0 0 -18.167411 -47.378348 1 0 1
0 -72 71 -26 -1 0 0 -19.060268 -47.378348 1 0 1
pepsi2_arch_woodf3
0 53 71 -26 1 0 0 34.1875 -2.34375 1 0 1
0 53 71 -6 1 0 0 34.1875 -2.1875 1 0 1
0 53 51 -6 1 0 0 34.03125 -2.1875 1 0 1
pepsi2_arch_woodf3
0 53 71 -26 1 0 0 34.1875 -2.34375 1 0 1
0 53 51 -6 1 0 0 34.03125 -2.1875 1 0 1
0 53 51 -26 1 0 0 34.03125 -2.34375 1 0 1
de_dust_pwtrim1
0 53 51 -26 0 0 -1 -193.948661 -109.117188 1 0 1
0 -72 51 -26 0 0 -1 -193.948661 -110.512277 1 0 1
0 -72 71 -26 0 0 -1 -194.841518 -110.512277 1 0 1
de_dust_pwtrim1
0 53 51 -26 0 0 -1 -193.948661 -109.117188 1 0 1
0 -72 71 -26 0 0 -1 -194.841518 -110.512277 1 0 1
0 53 71 -26 0 0 -1 -194.841518 -109.117188 1 0 1
de_dust_pwtrim1
0 -354 71 -142 0 1 0 458.904018 6.868304 1 0 1
0 -360 71 -142 0 1 0 459.171875 6.868304 1 0 1
0 -360 71 -136.992 0 1 0 459.171875 6.812411 1 0 1
de_dust_pwtrim1
0 -354 71 -142 0 1 0 458.904018 6.868304 1 0 1
0 -360 71 -136.992 0 1 0 459.171875 6.812411 1 0 1
0 -88 71 -1 0 1 0 447.029018 5.294643 1 0 1
de_dust_pwtrim1
0 -354 71 -142 0 1 0 458.904018 6.868304 1 0 1
0 -88 71 -1 0 1 0 447.029018 5.294643 1 0 1
0 -72 71 -1 0 1 0 446.314732 5.294643 1 0 1
de_dust_pwtrim1
0 -72 67 -1 0 -1 0 446.314732 5.294643 1 0 1
0 -88 67 -1 0 -1 0 447.029018 5.294643 1 0 1
0 -360 67 -136.992 0 -1 0 459.171875 6.812411 1 0 1
de_dust_pwtrim1
0 -72 67 -1 0 -1 0 446.314732 5.294643 1 0 1
0 -360 67 -136.992 0 -1 0 459.171875 6.812411 1 0 1
0 -360 67 -142 0 -1 0 459.171875 6.868304 1 0 1
de_dust_pwtrim1
0 -72 67 -1 0 -1 0 446.314732 5.294643 1 0 1
0 -360 67 -142 0 -1 0 459.171875 6.868304 1 0 1
0 -354 67 -142 0 -1 0 458.904018 6.868304 1 0 1
de_dust_pwtrim1
0 -360 67 -142 -1 0 0 194.725446 6.837054 1 0 1
0 -360 67 -136.992 -1 0 0 194.725446 6.781161 1 0 1
0 -360 71 -136.992 -1 0 0 194.904018 6.781161 1 0 1
de_dust_pwtrim1
0 -360 67 -142 -1 0 0 194.725446 6.837054 1 0 1
0 -360 71 -136.992 -1 0 0 194.904018 6.781161 1 0 1
0 -360 71 -142 -1 0 0 194.904018 6.837054 1 0 1
de_dust_pwtrim1
0 -88 67 -1 0 0 1 194.725446 112.386161 1 0 1
0 -72 67 -1 0 0 1 194.725446 112.207589 1 0 1
0 -72 71 -1 0 0 1 194.904018 112.207589 1 0 1
de_dust_pwtrim1
0 -88 67 -1 0 0 1 194.725446 112.386161 1 0 1
0 -72 71 -1 0 0 1 194.904018 112.207589 1 0 1
0 -88 71 -1 0 0 1 194.904018 112.386161 1 0 1
de_dust_pwtrim1
0 -72 67 -1 0.447214 0 -0.894427 194.725446 102.223013 1 0 1
0 -354 67 -142 0.447214 0 -0.894427 194.725446 105.741719 1 0 1
0 -354 71 -142 0.447214 0 -0.894427 194.904018 105.741719 1 0 1
de_dust_pwtrim1
0 -72 67 -1 0.447214 0 -0.894427 194.725446 102.223013 1 0 1
0 -354 71 -142 0.447214 0 -0.894427 194.904018 105.741719 1 0 1
0 -72 71 -1 0.447214 0 -0.894427 194.904018 102.223013 1 0 1
de_dust_pwtrim1
0 -360 67 -136.992 -0.447193 0 0.894438 194.725446 105.776616 1 0 1
0 -88 67 -1 -0.447193 0 0.894438 194.725446 102.382728 1 0 1
0 -88 71 -1 -0.447193 0 0.894438 194.904018 102.382728 1 0 1
de_dust_pwtrim1
0 -360 67 -136.992 -0.447193 0 0.894438 194.725446 105.776616 1 0 1
0 -88 71 -1 -0.447193 0 0.894438 194.904018 102.382728 1 0 1
0 -360 71 -136.992 -0.447193 0 0.894438 194.904018 105.776616 1 0 1
de_dust_pwtrim1
0 -120 -57 -17 0 0 1 449.176339 -45.981027 1 0 1
0 -104 -57 -17 0 0 1 448.462054 -45.981027 1 0 1
0 -104 67 -17 0 0 1 448.462054 -47.364955 1 0 1
de_dust_pwtrim1
0 -120 -57 -17 0 0 1 449.176339 -45.981027 1 0 1
0 -104 67 -17 0 0 1 448.462054 -47.364955 1 0 1
0 -120 67 -17 0 0 1 449.176339 -47.364955 1 0 1
de_dust_pwtrim1
0 -120 67 -25 0.447214 0 -0.894427 -194.569196 -110.415179 1 0 1
0 -104 67 -17 0.447214 0 -0.894427 -194.569196 -110.236607 1 0 1
0 -104 -57 -17 0.447214 0 -0.894427 -189.033482 -110.236607 1 0 1
de_dust_pwtrim1
0 -120 67 -25 0.447214 0 -0.894427 -194.569196 -110.415179 1 0 1
0 -104 -57 -17 0.447214 0 -0.894427 -189.033482 -110.236607 1 0 1
0 -120 -57 -25 0.447214 0 -0.894427 -189.033482 -110.415179 1 0 1
de_dust_pwtrim1
0 -120 -57 -17 -1 0 0 18.752232 -45.981027 1 0 1
0 -120 67 -17 -1 0 0 18.752232 -47.364955 1 0 1
0 -120 67 -25 -1 0 0 19.109375 -47.364955 1 0 1
de_dust_pwtrim1
0 -120 -57 -17 -1 0 0 18.752232 -45.981027 1 0 1
0 -120 67 -25 -1 0 0 19.109375 -47.364955 1 0 1
0 -120 -57 -25 -1 0 0 19.109375 -45.981027 1 0 1
de_dust_pwtrim1
0 -104 -57 -17 -1 0 0 18.752232 -45.981027 1 0 1
0 -104 -57 -9 -1 0 0 18.395089 -45.981027 1 0 1
0 -104 67 -9 -1 0 0 18.395089 -47.364955 1 0 1
de_dust_pwtrim1
0 -104 -57 -17 -1 0 0 18.752232 -45.981027 1 0 1
0 -104 67 -9 -1 0 0 18.395089 -47.364955 1 0 1
0 -104 67 -17 -1 0 0 18.752232 -47.364955 1 0 1
de_dust_pwtrim1
0 -104 -57 -9 0 0 1 448.102679 -45.981027 1 0 1
0 -88 -57 -9 0 0 1 447.388393 -45.981027 1 0 1
0 -88 67 -9 0 0 1 447.388393 -47.364955 1 0 1
de_dust_pwtrim1
0 -104 -57 -9 0 0 1 448.102679 -45.981027 1 0 1
0 -88 67 -9 0 0 1 447.388393 -47.364955 1 0 1
0 -104 67 -9 0 0 1 448.102679 -47.364955 1 0 1
de_dust_pwtrim1
0 -88 -57 -9 0.447214 0 -0.894427 -189.033482 -110.058036 1 0 1
0 -104 -57 -17 0.447214 0 -0.894427 -189.033482 -110.236607 1 0 1
0 -104 67 -17 0.447214 0 -0.894427 -194.569196 -110.236607 1 0 1
de_dust_pwtrim1
0 -88 -57 -9 0.447214 0 -0.894427 -189.033482 -110.058036 1 0 1
0 -104 67 -17 0.447214 0 -0.894427 -194.569196 -110.236607 1 0 1
0 -88 67 -9 0.447214 0 -0.894427 -194.569196 -110.058036 1 0 1
de_dust_pwtrim1
0 -248 -57 -81 0 0 1 454.75 -45.981027 1 0 1
0 -232 -57 -81 0 0 1 454.035714 -45.981027 1 0 1
0 -232 67 -81 0 0 1 454.035714 -47.364955 1 0 1
de_dust_pwtrim1
0 -248 -57 -81 0 0 1 454.75 -45.981027 1 0 1
0 -232 67 -81 0 0 1 454.035714 -47.364955 1 0 1
0 -248 67 -81 0 0 1 454.75 -47.364955 1 0 1
de_dust_pwtrim1
0 -248 67 -89 0.447214 0 -0.894427 -194.569196 -111.84375 1 0 1
0 -232 67 -81 0.447214 0 -0.894427 -194.569196 -111.665179 1 0 1
0 -232 -57 -81 0.447214 0 -0.894427 -189.033482 -111.665179 1 0 1
de_dust_pwtrim1
0 -248 67 -89 0.447214 0 -0.894427 -194.569196 -111.84375 1 0 1
0 -232 -57 -81 0.447214 0 -0.894427 -189.033482 -111.665179 1 0 1
0 -248 -57 -89 0.447214 0 -0.894427 -189.033482 -111.84375 1 0 1
de_dust_pwtrim1
0 -248 -57 -81 -1 0 0 21.609375 -45.981027 1 0 1
0 -248 67 -81 -1 0 0 21.609375 -47.364955 1 0 1
0 -248 67 -89 -1 0 0 21.966518 -47.364955 1 0 1
de_dust_pwtrim1
0 -248 -57 -81 -1 0 0 21.609375 -45.981027 1 0 1
0 -248 67 -89 -1 0 0 21.966518 -47.364955 1 0 1
0 -248 -57 -89 -1 0 0 21.966518 -45.981027 1 0 1
end
