version 1
nodes
0 "root" -1
end
skeleton
time 0
0 0 0 0 0 0 0
end
triangles
phys
0 47 4 16 0 0 1 1 0 1 0 1
0 47 126 16 0 0 1 1 0 1 0 1
0 47 126 0 0 0 1 1 0 1 0 1
phys
0 47 4 16 0 0 1 1 0 1 0 1
0 47 126 0 0 0 1 1 0 1 0 1
0 47 4 0 0 0 1 1 0 1 0 1
phys
0 63 4 0 0 0 1 1 0 1 0 1
0 63 126 0 0 0 1 1 0 1 0 1
0 63 126 16 0 0 1 1 0 1 0 1
phys
0 63 4 0 0 0 1 1 0 1 0 1
0 63 126 16 0 0 1 1 0 1 0 1
0 63 4 16 0 0 1 1 0 1 0 1
phys
0 47 4 0 0 0 1 1 0 1 0 1
0 47 126 0 0 0 1 1 0 1 0 1
0 63 126 0 0 0 1 1 0 1 0 1
phys
0 47 4 0 0 0 1 1 0 1 0 1
0 63 126 0 0 0 1 1 0 1 0 1
0 63 4 0 0 0 1 1 0 1 0 1
phys
0 63 4 16 0 0 1 1 0 1 0 1
0 63 126 16 0 0 1 1 0 1 0 1
0 47 126 16 0 0 1 1 0 1 0 1
phys
0 63 4 16 0 0 1 1 0 1 0 1
0 47 126 16 0 0 1 1 0 1 0 1
0 47 4 16 0 0 1 1 0 1 0 1
phys
0 63 126 16 0 0 1 1 0 1 0 1
0 63 126 0 0 0 1 1 0 1 0 1
0 47 126 0 0 0 1 1 0 1 0 1
phys
0 63 126 16 0 0 1 1 0 1 0 1
0 47 126 0 0 0 1 1 0 1 0 1
0 47 126 16 0 0 1 1 0 1 0 1
phys
0 63 4 0 0 0 1 1 0 1 0 1
0 63 4 16 0 0 1 1 0 1 0 1
0 47 4 16 0 0 1 1 0 1 0 1
phys
0 63 4 0 0 0 1 1 0 1 0 1
0 47 4 16 0 0 1 1 0 1 0 1
0 47 4 0 0 0 1 1 0 1 0 1
phys
0 111 4 0 0 0 1 2 0 1 0 1
0 95 4 0 0 0 1 2 0 1 0 1
0 95 126 0 0 0 1 2 0 1 0 1
phys
0 111 4 0 0 0 1 2 0 1 0 1
0 95 126 0 0 0 1 2 0 1 0 1
0 111 126 0 0 0 1 2 0 1 0 1
phys
0 95 4 64 0 0 1 2 0 1 0 1
0 111 4 64 0 0 1 2 0 1 0 1
0 111 126 64 0 0 1 2 0 1 0 1
phys
0 95 4 64 0 0 1 2 0 1 0 1
0 111 126 64 0 0 1 2 0 1 0 1
0 95 126 64 0 0 1 2 0 1 0 1
phys
0 111 126 0 0 0 1 2 0 1 0 1
0 95 126 0 0 0 1 2 0 1 0 1
0 95 126 64 0 0 1 2 0 1 0 1
phys
0 111 126 0 0 0 1 2 0 1 0 1
0 95 126 64 0 0 1 2 0 1 0 1
0 111 126 64 0 0 1 2 0 1 0 1
phys
0 111 4 64 0 0 1 2 0 1 0 1
0 95 4 64 0 0 1 2 0 1 0 1
0 95 4 0 0 0 1 2 0 1 0 1
phys
0 111 4 64 0 0 1 2 0 1 0 1
0 95 4 0 0 0 1 2 0 1 0 1
0 111 4 0 0 0 1 2 0 1 0 1
phys
0 95 4 64 0 0 1 2 0 1 0 1
0 95 126 64 0 0 1 2 0 1 0 1
0 95 126 0 0 0 1 2 0 1 0 1
phys
0 95 4 64 0 0 1 2 0 1 0 1
0 95 126 0 0 0 1 2 0 1 0 1
0 95 4 0 0 0 1 2 0 1 0 1
phys
0 111 4 0 0 0 1 2 0 1 0 1
0 111 126 0 0 0 1 2 0 1 0 1
0 111 126 64 0 0 1 2 0 1 0 1
phys
0 111 4 0 0 0 1 2 0 1 0 1
0 111 126 64 0 0 1 2 0 1 0 1
0 111 4 64 0 0 1 2 0 1 0 1
phys
0 -96.3 -131.18 0 0 0 1 3 0 1 0 1
0 -98 -130.03 0 0 0 1 3 0 1 0 1
0 -96.8 -128.39 0 0 0 1 3 0 1 0 1
phys
0 -96.3 -131.18 0 0 0 1 3 0 1 0 1
0 -96.8 -128.39 0 0 0 1 3 0 1 0 1
0 -95.2 -129.54 0 0 0 1 3 0 1 0 1
phys
0 -98 -130.03 64 0 0 1 3 0 1 0 1
0 -96.3 -131.18 64 0 0 1 3 0 1 0 1
0 -95.2 -129.54 64 0 0 1 3 0 1 0 1
phys
0 -98 -130.03 64 0 0 1 3 0 1 0 1
0 -95.2 -129.54 64 0 0 1 3 0 1 0 1
0 -96.8 -128.39 64 0 0 1 3 0 1 0 1
phys
0 -96.3 -131.18 64 0 0 1 3 0 1 0 1
0 -98 -130.03 64 0 0 1 3 0 1 0 1
0 -98 -130.03 0 0 0 1 3 0 1 0 1
phys
0 -96.3 -131.18 64 0 0 1 3 0 1 0 1
0 -98 -130.03 0 0 0 1 3 0 1 0 1
0 -96.3 -131.18 0 0 0 1 3 0 1 0 1
phys
0 -96.3 -131.18 0 0 0 1 3 0 1 0 1
0 -95.2 -129.54 0 0 0 1 3 0 1 0 1
0 -95.2 -129.54 64 0 0 1 3 0 1 0 1
phys
0 -96.3 -131.18 0 0 0 1 3 0 1 0 1
0 -95.2 -129.54 64 0 0 1 3 0 1 0 1
0 -96.3 -131.18 64 0 0 1 3 0 1 0 1
phys
0 -95.2 -129.54 0 0 0 1 3 0 1 0 1
0 -96.8 -128.39 0 0 0 1 3 0 1 0 1
0 -96.8 -128.39 64 0 0 1 3 0 1 0 1
phys
0 -95.2 -129.54 0 0 0 1 3 0 1 0 1
0 -96.8 -128.39 64 0 0 1 3 0 1 0 1
0 -95.2 -129.54 64 0 0 1 3 0 1 0 1
phys
0 -98 -130.03 64 0 0 1 3 0 1 0 1
0 -96.8 -128.39 64 0 0 1 3 0 1 0 1
0 -96.8 -128.39 0 0 0 1 3 0 1 0 1
phys
0 -98 -130.03 64 0 0 1 3 0 1 0 1
0 -96.8 -128.39 0 0 0 1 3 0 1 0 1
0 -98 -130.03 0 0 0 1 3 0 1 0 1
phys
0 -84.8 -139.21 77 0 0 1 4 0 1 0 1
0 -84.8 -139.21 30 0 0 1 4 0 1 0 1
0 -109.4 -122 30 0 0 1 4 0 1 0 1
phys
0 -84.8 -139.21 77 0 0 1 4 0 1 0 1
0 -109.4 -122 30 0 0 1 4 0 1 0 1
0 -109.4 -122 77 0 0 1 4 0 1 0 1
phys
0 -110 -122.82 30 0 0 1 4 0 1 0 1
0 -110 -122.82 77 0 0 1 4 0 1 0 1
0 -109.4 -122 77 0 0 1 4 0 1 0 1
phys
0 -110 -122.82 30 0 0 1 4 0 1 0 1
0 -109.4 -122 77 0 0 1 4 0 1 0 1
0 -109.4 -122 30 0 0 1 4 0 1 0 1
phys
0 -85.4 -140.03 30 0 0 1 4 0 1 0 1
0 -85.4 -140.03 77 0 0 1 4 0 1 0 1
0 -110 -122.82 77 0 0 1 4 0 1 0 1
phys
0 -85.4 -140.03 30 0 0 1 4 0 1 0 1
0 -110 -122.82 77 0 0 1 4 0 1 0 1
0 -110 -122.82 30 0 0 1 4 0 1 0 1
phys
0 -85.4 -140.03 77 0 0 1 4 0 1 0 1
0 -85.4 -140.03 30 0 0 1 4 0 1 0 1
0 -84.8 -139.21 30 0 0 1 4 0 1 0 1
phys
0 -85.4 -140.03 77 0 0 1 4 0 1 0 1
0 -84.8 -139.21 30 0 0 1 4 0 1 0 1
0 -84.8 -139.21 77 0 0 1 4 0 1 0 1
phys
0 -85.4 -140.03 30 0 0 1 4 0 1 0 1
0 -110 -122.82 30 0 0 1 4 0 1 0 1
0 -109.4 -122 30 0 0 1 4 0 1 0 1
phys
0 -85.4 -140.03 30 0 0 1 4 0 1 0 1
0 -109.4 -122 30 0 0 1 4 0 1 0 1
0 -84.8 -139.21 30 0 0 1 4 0 1 0 1
phys
0 -84.8 -139.21 77 0 0 1 4 0 1 0 1
0 -109.4 -122 77 0 0 1 4 0 1 0 1
0 -110 -122.82 77 0 0 1 4 0 1 0 1
phys
0 -84.8 -139.21 77 0 0 1 4 0 1 0 1
0 -110 -122.82 77 0 0 1 4 0 1 0 1
0 -85.4 -140.03 77 0 0 1 4 0 1 0 1
phys
0 95 126 48 0 0 1 5 0 1 0 1
0 95 126 0 0 0 1 5 0 1 0 1
0 79 126 0 0 0 1 5 0 1 0 1
phys
0 95 126 48 0 0 1 5 0 1 0 1
0 79 126 0 0 0 1 5 0 1 0 1
0 79 126 48 0 0 1 5 0 1 0 1
phys
0 95 4 0 0 0 1 5 0 1 0 1
0 95 4 48 0 0 1 5 0 1 0 1
0 79 4 48 0 0 1 5 0 1 0 1
phys
0 95 4 0 0 0 1 5 0 1 0 1
0 79 4 48 0 0 1 5 0 1 0 1
0 79 4 0 0 0 1 5 0 1 0 1
phys
0 79 4 0 0 0 1 5 0 1 0 1
0 79 4 48 0 0 1 5 0 1 0 1
0 79 126 48 0 0 1 5 0 1 0 1
phys
0 79 4 0 0 0 1 5 0 1 0 1
0 79 126 48 0 0 1 5 0 1 0 1
0 79 126 0 0 0 1 5 0 1 0 1
phys
0 95 4 48 0 0 1 5 0 1 0 1
0 95 4 0 0 0 1 5 0 1 0 1
0 95 126 0 0 0 1 5 0 1 0 1
phys
0 95 4 48 0 0 1 5 0 1 0 1
0 95 126 0 0 0 1 5 0 1 0 1
0 95 126 48 0 0 1 5 0 1 0 1
phys
0 95 4 0 0 0 1 5 0 1 0 1
0 79 4 0 0 0 1 5 0 1 0 1
0 79 126 0 0 0 1 5 0 1 0 1
phys
0 95 4 0 0 0 1 5 0 1 0 1
0 79 126 0 0 0 1 5 0 1 0 1
0 95 126 0 0 0 1 5 0 1 0 1
phys
0 79 4 48 0 0 1 5 0 1 0 1
0 95 4 48 0 0 1 5 0 1 0 1
0 95 126 48 0 0 1 5 0 1 0 1
phys
0 79 4 48 0 0 1 5 0 1 0 1
0 95 126 48 0 0 1 5 0 1 0 1
0 79 126 48 0 0 1 5 0 1 0 1
phys
0 111 140 64 0 0 1 6 0 1 0 1
0 111 140 0 0 0 1 6 0 1 0 1
0 47 140 0 0 0 1 6 0 1 0 1
phys
0 111 140 64 0 0 1 6 0 1 0 1
0 47 140 0 0 0 1 6 0 1 0 1
0 47 140 64 0 0 1 6 0 1 0 1
phys
0 111 126 0 0 0 1 6 0 1 0 1
0 111 126 64 0 0 1 6 0 1 0 1
0 47 126 64 0 0 1 6 0 1 0 1
phys
0 111 126 0 0 0 1 6 0 1 0 1
0 47 126 64 0 0 1 6 0 1 0 1
0 47 126 0 0 0 1 6 0 1 0 1
phys
0 47 126 0 0 0 1 6 0 1 0 1
0 47 126 64 0 0 1 6 0 1 0 1
0 47 140 64 0 0 1 6 0 1 0 1
phys
0 47 126 0 0 0 1 6 0 1 0 1
0 47 140 64 0 0 1 6 0 1 0 1
0 47 140 0 0 0 1 6 0 1 0 1
phys
0 111 126 64 0 0 1 6 0 1 0 1
0 111 126 0 0 0 1 6 0 1 0 1
0 111 140 0 0 0 1 6 0 1 0 1
phys
0 111 126 64 0 0 1 6 0 1 0 1
0 111 140 0 0 0 1 6 0 1 0 1
0 111 140 64 0 0 1 6 0 1 0 1
phys
0 111 126 0 0 0 1 6 0 1 0 1
0 47 126 0 0 0 1 6 0 1 0 1
0 47 140 0 0 0 1 6 0 1 0 1
phys
0 111 126 0 0 0 1 6 0 1 0 1
0 47 140 0 0 0 1 6 0 1 0 1
0 111 140 0 0 0 1 6 0 1 0 1
phys
0 47 126 64 0 0 1 6 0 1 0 1
0 111 126 64 0 0 1 6 0 1 0 1
0 111 140 64 0 0 1 6 0 1 0 1
phys
0 47 126 64 0 0 1 6 0 1 0 1
0 111 140 64 0 0 1 6 0 1 0 1
0 47 140 64 0 0 1 6 0 1 0 1
phys
0 79 126 32 0 0 1 7 0 1 0 1
0 79 126 0 0 0 1 7 0 1 0 1
0 63 126 0 0 0 1 7 0 1 0 1
phys
0 79 126 32 0 0 1 7 0 1 0 1
0 63 126 0 0 0 1 7 0 1 0 1
0 63 126 32 0 0 1 7 0 1 0 1
phys
0 79 4 0 0 0 1 7 0 1 0 1
0 79 4 32 0 0 1 7 0 1 0 1
0 63 4 32 0 0 1 7 0 1 0 1
phys
0 79 4 0 0 0 1 7 0 1 0 1
0 63 4 32 0 0 1 7 0 1 0 1
0 63 4 0 0 0 1 7 0 1 0 1
phys
0 63 4 0 0 0 1 7 0 1 0 1
0 63 4 32 0 0 1 7 0 1 0 1
0 63 126 32 0 0 1 7 0 1 0 1
phys
0 63 4 0 0 0 1 7 0 1 0 1
0 63 126 32 0 0 1 7 0 1 0 1
0 63 126 0 0 0 1 7 0 1 0 1
phys
0 79 4 32 0 0 1 7 0 1 0 1
0 79 4 0 0 0 1 7 0 1 0 1
0 79 126 0 0 0 1 7 0 1 0 1
phys
0 79 4 32 0 0 1 7 0 1 0 1
0 79 126 0 0 0 1 7 0 1 0 1
0 79 126 32 0 0 1 7 0 1 0 1
phys
0 79 4 0 0 0 1 7 0 1 0 1
0 63 4 0 0 0 1 7 0 1 0 1
0 63 126 0 0 0 1 7 0 1 0 1
phys
0 79 4 0 0 0 1 7 0 1 0 1
0 63 126 0 0 0 1 7 0 1 0 1
0 79 126 0 0 0 1 7 0 1 0 1
phys
0 63 4 32 0 0 1 7 0 1 0 1
0 79 4 32 0 0 1 7 0 1 0 1
0 79 126 32 0 0 1 7 0 1 0 1
phys
0 63 4 32 0 0 1 7 0 1 0 1
0 79 126 32 0 0 1 7 0 1 0 1
0 63 126 32 0 0 1 7 0 1 0 1
phys
0 111 130 64 0 0 1 8 0 1 0 1
0 47 130 64 0 0 1 8 0 1 0 1
0 47 130 64 0 0 1 8 0 1 0 1
phys
0 111 130 64 0 0 1 8 0 1 0 1
0 47 130 64 0 0 1 8 0 1 0 1
0 47 136 64 0 0 1 8 0 1 0 1
phys
0 111 130 64 0 0 1 8 0 1 0 1
0 47 136 64 0 0 1 8 0 1 0 1
0 111 136 64 0 0 1 8 0 1 0 1
phys
0 111 136 101.001 0 0 1 8 0 1 0 1
0 47 136 64.001 0 0 1 8 0 1 0 1
0 47 133.998999 66.001 0 0 1 8 0 1 0 1
phys
0 111 136 101.001 0 0 1 8 0 1 0 1
0 47 133.998999 66.001 0 0 1 8 0 1 0 1
0 111 133.998999 103.001 0 0 1 8 0 1 0 1
phys
0 47 130 64 0 0 1 8 0 1 0 1
0 47 130 64 0 0 1 8 0 1 0 1
0 111 130 101 0 0 1 8 0 1 0 1
phys
0 47 130 64 0 0 1 8 0 1 0 1
0 111 130 101 0 0 1 8 0 1 0 1
0 111 132.001 103.001 0 0 1 8 0 1 0 1
phys
0 47 130 64 0 0 1 8 0 1 0 1
0 111 132.001 103.001 0 0 1 8 0 1 0 1
0 47 132.001 66.001 0 0 1 8 0 1 0 1
phys
0 111 133.998999 103.001 0 0 1 8 0 1 0 1
0 47 133.998999 66.001 0 0 1 8 0 1 0 1
0 47 132.001 66.001 0 0 1 8 0 1 0 1
phys
0 111 133.998999 103.001 0 0 1 8 0 1 0 1
0 47 132.001 66.001 0 0 1 8 0 1 0 1
0 111 132.001 103.001 0 0 1 8 0 1 0 1
phys
0 111 136 64 0 0 1 8 0 1 0 1
0 47 136 64 0 0 1 8 0 1 0 1
0 47 136 64.001 0 0 1 8 0 1 0 1
phys
0 111 136 64 0 0 1 8 0 1 0 1
0 47 136 64.001 0 0 1 8 0 1 0 1
0 111 136 101.001 0 0 1 8 0 1 0 1
phys
0 111 130 101 0 0 1 8 0 1 0 1
0 47 130 64 0 0 1 8 0 1 0 1
0 111 130 64 0 0 1 8 0 1 0 1
phys
0 47 133.998999 66.001 0 0 1 8 0 1 0 1
0 47 136 64.001 0 0 1 8 0 1 0 1
0 47 136 64 0 0 1 8 0 1 0 1
phys
0 47 133.998999 66.001 0 0 1 8 0 1 0 1
0 47 136 64 0 0 1 8 0 1 0 1
0 47 130 64 0 0 1 8 0 1 0 1
phys
0 47 133.998999 66.001 0 0 1 8 0 1 0 1
0 47 130 64 0 0 1 8 0 1 0 1
0 47 132.001 66.001 0 0 1 8 0 1 0 1
phys
0 111 130 64 0 0 1 8 0 1 0 1
0 111 136 64 0 0 1 8 0 1 0 1
0 111 136 101.001 0 0 1 8 0 1 0 1
phys
0 111 130 64 0 0 1 8 0 1 0 1
0 111 136 101.001 0 0 1 8 0 1 0 1
0 111 133.998999 103.001 0 0 1 8 0 1 0 1
phys
0 111 130 64 0 0 1 8 0 1 0 1
0 111 133.998999 103.001 0 0 1 8 0 1 0 1
0 111 132.001 103.001 0 0 1 8 0 1 0 1
phys
0 111 130 64 0 0 1 8 0 1 0 1
0 111 132.001 103.001 0 0 1 8 0 1 0 1
0 111 130 101 0 0 1 8 0 1 0 1
end
