version 1
nodes
0 "root" -1
end
skeleton
time 0
0 0 0 0 0 0 0
end
triangles
pepsi2_arch_st_sidewalk02
0 -240 -121 -376 0 0 1 -56.971819 57.701451 1 0 1
0 -161 -69 -376 0 0 1 -56.681641 57.260603 1 0 1
0 -240 -69 -376 0 0 1 -56.681641 57.701451 1 0 1
pepsi2_arch_stairs01
0 -145 -69 -376 -1 0 0 156.25 -10.75 1 0 1
0 -145 -69 -344 -1 0 0 156.25 -9.75 1 0 1
0 -145 53 -344 -1 0 0 154.34375 -9.75 1 0 1
pepsi2_arch_stairs01
0 -145 -69 -376 -1 0 0 156.25 -10.75 1 0 1
0 -145 53 -344 -1 0 0 154.34375 -9.75 1 0 1
0 -145 53 -376 -1 0 0 154.34375 -10.75 1 0 1
pepsi2_arch_stairs01
0 -145 -69 -344 0 0 1 156.25 -313.3125 1 0 1
0 -129 -69 -344 0 0 1 156.25 -312.8125 1 0 1
0 -129 53 -344 0 0 1 154.34375 -312.8125 1 0 1
pepsi2_arch_stairs01
0 -145 -69 -344 0 0 1 156.25 -313.3125 1 0 1
0 -129 53 -344 0 0 1 154.34375 -312.8125 1 0 1
0 -145 53 -344 0 0 1 154.34375 -313.3125 1 0 1
goldeneye_caverns_cavernsconcretefloor02
0 -161 -83 -312 -1 0 0 78.09375 -1.4375 1 0 1
0 -161 -69 -312 -1 0 0 77.984375 -1.4375 1 0 1
0 -161 -69 -376 -1 0 0 77.984375 -1.9375 1 0 1
goldeneye_caverns_cavernsconcretefloor02
0 -161 -83 -312 -1 0 0 78.09375 -1.4375 1 0 1
0 -161 -69 -376 -1 0 0 77.984375 -1.9375 1 0 1
0 -161 -83 -376 -1 0 0 78.09375 -1.9375 1 0 1
goldeneye_caverns_cavernsconcretefloor02
0 -97 -83 -312 0 0 1 78.09375 -77.226562 1 0 1
0 -97 -69 -312 0 0 1 77.984375 -77.226562 1 0 1
0 -161 -69 -312 0 0 1 77.984375 -77.726562 1 0 1
goldeneye_caverns_cavernsconcretefloor02
0 -97 -83 -312 0 0 1 78.09375 -77.226562 1 0 1
0 -161 -69 -312 0 0 1 77.984375 -77.726562 1 0 1
0 -161 -83 -312 0 0 1 78.09375 -77.726562 1 0 1
goldeneye_caverns_cavernsconcretefloor02
0 -97 -69 -312 0 1 0 -78.226562 -1.4375 1 0 1
0 -97 -69 -376 0 1 0 -78.226562 -1.9375 1 0 1
0 -161 -69 -376 0 1 0 -78.726562 -1.9375 1 0 1
goldeneye_caverns_cavernsconcretefloor02
0 -97 -69 -312 0 1 0 -78.226562 -1.4375 1 0 1
0 -161 -69 -376 0 1 0 -78.726562 -1.9375 1 0 1
0 -161 -69 -312 0 1 0 -78.726562 -1.4375 1 0 1
goldeneye_caverns_cavernsconcretefloor02
0 -97 -83 -376 0 -1 0 -78.226562 -1.9375 1 0 1
0 -97 -83 -312 0 -1 0 -78.226562 -1.4375 1 0 1
0 -161 -83 -312 0 -1 0 -78.726562 -1.4375 1 0 1
goldeneye_caverns_cavernsconcretefloor02
0 -97 -83 -376 0 -1 0 -78.226562 -1.9375 1 0 1
0 -161 -83 -312 0 -1 0 -78.726562 -1.4375 1 0 1
0 -161 -83 -376 0 -1 0 -78.726562 -1.9375 1 0 1
concrete_concretewall034a
0 -342 1 -320 -1 0 0 77.4375 -1.5625 1 0 1
0 -342 1 -376 -1 0 0 77.4375 -2 1 0 1
0 -342 -71 -376 -1 0 0 78 -2 1 0 1
concrete_concretewall034a
0 -293 -71 -376 1 0 0 77.875 -2 1 0 1
0 -293 1 -376 1 0 0 77.3125 -2 1 0 1
0 -293 1 -320 1 0 0 77.3125 -1.5625 1 0 1
concrete_concretefloor031a
0 -293 -71 -376 0 -0.613941 0.789352 78.4375 -78.84375 1 0 1
0 -293 1 -320 0 -0.613941 0.789352 77.875 -78.84375 1 0 1
0 -342 1 -320 0 -0.613941 0.789352 77.875 -79.226562 1 0 1
concrete_concretefloor031a
0 -293 -71 -376 0 -0.613941 0.789352 78.4375 -78.84375 1 0 1
0 -342 1 -320 0 -0.613941 0.789352 77.875 -79.226562 1 0 1
0 -342 -71 -376 0 -0.613941 0.789352 78.4375 -79.226562 1 0 1
pepsi2_arch_stairs01
0 -161 -69 -376 -1 0 0 156.25 -10.75 1 0 1
0 -161 -69 -360 -1 0 0 156.25 -10.25 1 0 1
0 -161 53 -360 -1 0 0 154.34375 -10.25 1 0 1
pepsi2_arch_stairs01
0 -161 -69 -376 -1 0 0 156.25 -10.75 1 0 1
0 -161 53 -360 -1 0 0 154.34375 -10.25 1 0 1
0 -161 53 -376 -1 0 0 154.34375 -10.75 1 0 1
pepsi2_arch_stairs01
0 -161 -69 -360 0 0 1 156.25 -313.8125 1 0 1
0 -145 -69 -360 0 0 1 156.25 -313.3125 1 0 1
0 -145 53 -360 0 0 1 154.34375 -313.3125 1 0 1
pepsi2_arch_stairs01
0 -161 -69 -360 0 0 1 156.25 -313.8125 1 0 1
0 -145 53 -360 0 0 1 154.34375 -313.3125 1 0 1
0 -161 53 -360 0 0 1 154.34375 -313.8125 1 0 1
stone_stonewall006a
0 -240 11.170241 -32.500674 -1 0 0 77.358045 0.746088 1 0 1
0 -240 53 -28.0001 -1 0 0 77.03125 0.781249 1 0 1
0 -240 53 -79.9961 -1 0 0 77.03125 0.37503 1 0 1
pepsi2_arch_concrete_floor_smooth01
0 239 53 -79.9961 1 0 0 41.963108 0.66256 1 0 1
0 239 53 -28.0001 1 0 0 41.963108 0.888237 1 0 1
0 239 11.170241 -32.500674 1 0 0 42.14466 0.868704 1 0 1
pepsi2_arch_concrete_floor_smooth01
0 -240 11.170241 -32.500674 0 -0.750449 -0.660929 -44.021267 0.694876 1 0 1
0 -240 53 -79.9961 0 -0.750449 -0.660929 -44.021267 0.488732 1 0 1
0 239 53 -79.9961 0 -0.750449 -0.660929 -41.942274 0.488732 1 0 1
pepsi2_arch_concrete_floor_smooth01
0 -240 11.170241 -32.500674 0 -0.750449 -0.660929 -44.021267 0.694876 1 0 1
0 239 53 -79.9961 0 -0.750449 -0.660929 -41.942274 0.488732 1 0 1
0 239 11.170241 -32.500674 0 -0.750449 -0.660929 -41.942274 0.694876 1 0 1
stone_stonewall006a
0 -240 -52.8 -3.99998 -1 0 0 77.857812 0.96875 1 0 1
0 -240 53 32 -1 0 0 77.03125 1.25 1 0 1
0 -240 53 -28 -1 0 0 77.03125 0.78125 1 0 1
stone_stonewall006a
0 -240 -52.8 -3.99998 -1 0 0 77.857812 0.96875 1 0 1
0 -240 53 -28 -1 0 0 77.03125 0.78125 1 0 1
0 -240 11.17 -32.5013 -1 0 0 77.358047 0.746084 1 0 1
pepsi2_arch_concrete_floor_smooth01
0 239 53 -28 1 0 0 41.963108 0.888238 1 0 1
0 239 53 32 1 0 0 41.963108 1.148655 1 0 1
0 239 -52.8 -3.99998 1 0 0 42.422309 0.992405 1 0 1
pepsi2_arch_concrete_floor_smooth01
0 239 53 -28 1 0 0 41.963108 0.888238 1 0 1
0 239 -52.8 -3.99998 1 0 0 42.422309 0.992405 1 0 1
0 239 11.17 -32.5013 1 0 0 42.144661 0.868701 1 0 1
pepsi2_arch_concrete_floor_smooth01
0 -240 -52.8 -3.99998 0 -0.406975 -0.913439 42.592231 -42.286892 1 0 1
0 -240 11.17 -32.5013 0 -0.406975 -0.913439 42.314583 -42.286892 1 0 1
0 239 11.17 -32.5013 0 -0.406975 -0.913439 42.314583 -40.207899 1 0 1
pepsi2_arch_concrete_floor_smooth01
0 -240 -52.8 -3.99998 0 -0.406975 -0.913439 42.592231 -42.286892 1 0 1
0 239 11.17 -32.5013 0 -0.406975 -0.913439 42.314583 -40.207899 1 0 1
0 239 -52.8 -3.99998 0 -0.406975 -0.913439 42.592231 -40.207899 1 0 1
goldeneye_caverns_cavernsconcretefloor02
0 -161 -83 -376 0 0 1 78.09375 -77.726562 1 0 1
0 -161 -69 -376 0 0 1 77.984375 -77.726562 1 0 1
0 -240 -121 -376 0 0 1 78.390625 -78.34375 1 0 1
goldeneye_caverns_cavernsconcretefloor02
0 -161 -83 -376 0 0 1 78.09375 -77.726562 1 0 1
0 -240 -121 -376 0 0 1 78.390625 -78.34375 1 0 1
0 -240 -135 -376 0 0 1 78.5 -78.34375 1 0 1
goldeneye_caverns_cavernsconcretefloor02
0 -240 -135 -376 0.549811 -0.835289 0 -79.34375 -1.9375 1 0 1
0 -240 -135 -392 0.549811 -0.835289 0 -79.34375 -2.0625 1 0 1
0 -161 -83 -392 0.549811 -0.835289 0 -78.726562 -2.0625 1 0 1
goldeneye_caverns_cavernsconcretefloor02
0 -240 -135 -376 0.549811 -0.835289 0 -79.34375 -1.9375 1 0 1
0 -161 -83 -392 0.549811 -0.835289 0 -78.726562 -2.0625 1 0 1
0 -161 -83 -376 0.549811 -0.835289 0 -78.726562 -1.9375 1 0 1
pepsi2_arch_concrete_floor_smooth01
0 -97 -73 -275.001 0 1 0 -77.453125 -1.148445 1 0 1
0 -97 -73 -312 0 1 0 -77.453125 -1.4375 1 0 1
0 -160.99827 -73 -312 0 1 0 -77.953111 -1.4375 1 0 1
pepsi2_arch_concrete_floor_smooth01
0 -97 -79 -312 0 -1 0 -77.453125 -1.4375 1 0 1
0 -97 -79 -274.999 0 -1 0 -77.453125 -1.14843 1 0 1
0 -161 -79 -311.999 0 -1 0 -77.953125 -1.437492 1 0 1
pepsi2_arch_concrete_floor_smooth01
0 -97 -79 -312 0 -1 0 -77.453125 -1.4375 1 0 1
0 -161 -79 -311.999 0 -1 0 -77.953125 -1.437492 1 0 1
0 -161 -79 -312 0 -1 0 -77.953125 -1.4375 1 0 1
pepsi2_arch_concrete_floor_smooth01
0 -161 -79 -312 -1 0 0 78.140625 -1.4375 1 0 1
0 -161 -79 -311.999 -1 0 0 78.140625 -1.437492 1 0 1
0 -161 -76.998999 -309.999 -1 0 0 78.124992 -1.421867 1 0 1
pepsi2_arch_concrete_floor_smooth01
0 -161 -79 -312 -1 0 0 78.140625 -1.4375 1 0 1
0 -161 -76.998999 -309.999 -1 0 0 78.124992 -1.421867 1 0 1
0 -161 -75.001 -309.999 -1 0 0 78.109383 -1.421867 1 0 1
pepsi2_arch_concrete_floor_smooth01
0 -161 -79 -312 -1 0 0 78.140625 -1.4375 1 0 1
0 -161 -75.001 -309.999 -1 0 0 78.109383 -1.421867 1 0 1
0 -161 -73.001 -312 -1 0 0 78.093758 -1.4375 1 0 1
pepsi2_arch_concrete_floor_smooth01
0 -97 -75.001 -272.999 -0.378318 0.654715 0.654388 -77.453125 -1.132805 1 0 1
0 -97 -73 -275.001 -0.378318 0.654715 0.654388 -77.453125 -1.148445 1 0 1
0 -160.99827 -73 -312 -0.378318 0.654715 0.654388 -77.953111 -1.4375 1 0 1
pepsi2_arch_concrete_floor_smooth01
0 -97 -75.001 -272.999 -0.378318 0.654715 0.654388 -77.453125 -1.132805 1 0 1
0 -160.99827 -73 -312 -0.378318 0.654715 0.654388 -77.953111 -1.4375 1 0 1
0 -161 -73.001 -312 -0.378318 0.654715 0.654388 -77.953125 -1.4375 1 0 1
pepsi2_arch_concrete_floor_smooth01
0 -97 -75.001 -272.999 -0.378318 0.654715 0.654388 -77.453125 -1.132805 1 0 1
0 -161 -73.001 -312 -0.378318 0.654715 0.654388 -77.953125 -1.4375 1 0 1
0 -161 -75.001 -309.999 -0.378318 0.654715 0.654388 -77.953125 -1.421867 1 0 1
pepsi2_arch_concrete_floor_smooth01
0 -161 -79 -311.999 -0.37848 -0.654341 0.654668 -77.953125 -1.437492 1 0 1
0 -97 -79 -274.999 -0.37848 -0.654341 0.654668 -77.453125 -1.14843 1 0 1
0 -97 -76.998999 -272.999 -0.37848 -0.654341 0.654668 -77.453125 -1.132805 1 0 1
pepsi2_arch_concrete_floor_smooth01
0 -161 -79 -311.999 -0.37848 -0.654341 0.654668 -77.953125 -1.437492 1 0 1
0 -97 -76.998999 -272.999 -0.37848 -0.654341 0.654668 -77.453125 -1.132805 1 0 1
0 -161 -76.998999 -309.999 -0.37848 -0.654341 0.654668 -77.953125 -1.421867 1 0 1
pepsi2_arch_concrete_floor_smooth01
0 -97 -76.998999 -272.999 -0.500503 0 0.865735 78.124992 -76.453125 1 0 1
0 -97 -75.001 -272.999 -0.500503 0 0.865735 78.109383 -76.453125 1 0 1
0 -161 -75.001 -309.999 -0.500503 0 0.865735 78.109383 -76.953125 1 0 1
pepsi2_arch_concrete_floor_smooth01
0 -97 -76.998999 -272.999 -0.500503 0 0.865735 78.124992 -76.453125 1 0 1
0 -161 -75.001 -309.999 -0.500503 0 0.865735 78.109383 -76.953125 1 0 1
0 -161 -76.998999 -309.999 -0.500503 0 0.865735 78.124992 -76.953125 1 0 1
pepsi2_arch_stairs01
0 -113 -69 -376 -1 0 0 156.25 -10.75 1 0 1
0 -113 -69 -312 -1 0 0 156.25 -8.75 1 0 1
0 -113 53 -312 -1 0 0 154.34375 -8.75 1 0 1
pepsi2_arch_stairs01
0 -113 -69 -376 -1 0 0 156.25 -10.75 1 0 1
0 -113 53 -312 -1 0 0 154.34375 -8.75 1 0 1
0 -113 53 -376 -1 0 0 154.34375 -10.75 1 0 1
pepsi2_arch_stairs01
0 -113 -69 -312 0 0 1 156.25 -312.3125 1 0 1
0 -97 -69 -312 0 0 1 156.25 -311.8125 1 0 1
0 -97 53 -312 0 0 1 154.34375 -311.8125 1 0 1
pepsi2_arch_stairs01
0 -113 -69 -312 0 0 1 156.25 -312.3125 1 0 1
0 -97 53 -312 0 0 1 154.34375 -311.8125 1 0 1
0 -113 53 -312 0 0 1 154.34375 -312.3125 1 0 1
pepsi2_arch_stairs01
0 -129 -69 -328 0 0 1 156.25 -312.8125 1 0 1
0 -113 -69 -328 0 0 1 156.25 -312.3125 1 0 1
0 -113 53 -328 0 0 1 154.34375 -312.3125 1 0 1
pepsi2_arch_stairs01
0 -129 -69 -328 0 0 1 156.25 -312.8125 1 0 1
0 -113 53 -328 0 0 1 154.34375 -312.3125 1 0 1
0 -129 53 -328 0 0 1 154.34375 -312.8125 1 0 1
pepsi2_arch_stairs01
0 -129 -69 -328 -1 0 0 156.25 -9.25 1 0 1
0 -129 53 -328 -1 0 0 154.34375 -9.25 1 0 1
0 -129 53 -376 -1 0 0 154.34375 -10.75 1 0 1
pepsi2_arch_stairs01
0 -129 -69 -328 -1 0 0 156.25 -9.25 1 0 1
0 -129 53 -376 -1 0 0 154.34375 -10.75 1 0 1
0 -129 -69 -376 -1 0 0 156.25 -10.75 1 0 1
metal_metaldoor028a
0 -341 1 -212 0 0 -1 154.53125 -80 1 0 1
0 -341 17 -212 0 0 -1 154.28125 -80 1 0 1
0 -293 17 -212 0 0 -1 154.28125 -79.625 1 0 1
metal_metaldoor028a
0 -341 1 -212 0 0 -1 154.53125 -80 1 0 1
0 -293 17 -212 0 0 -1 154.28125 -79.625 1 0 1
0 -293 1 -212 0 0 -1 154.53125 -79.625 1 0 1
metal_metaldoor028a
0 -293 17 -212 0 1 0 160.0625 -0.15625 1 0 1
0 -341 17 -212 0 1 0 160.8125 -0.15625 1 0 1
0 -345 17 -208 0 1 0 160.875 -0.125 1 0 1
metal_metaldoor028a
0 -293 17 -212 0 1 0 160.0625 -0.15625 1 0 1
0 -345 17 -208 0 1 0 160.875 -0.125 1 0 1
0 -289 17 -208 0 1 0 160 -0.125 1 0 1
metal_metaldoor028a
0 -289 1 -208 0 -1 0 160 -0.125 1 0 1
0 -345 1 -208 0 -1 0 160.875 -0.125 1 0 1
0 -341 1 -212 0 -1 0 160.8125 -0.15625 1 0 1
metal_metaldoor028a
0 -289 1 -208 0 -1 0 160 -0.125 1 0 1
0 -341 1 -212 0 -1 0 160.8125 -0.15625 1 0 1
0 -293 1 -212 0 -1 0 160.0625 -0.15625 1 0 1
metal_metaldoor028a
0 -293 17 -320 0 1 0 160.0625 -1 1 0 1
0 -293 17 -212.001 0 1 0 160.0625 -0.156258 1 0 1
0 -289 17 -208.001 0 1 0 160 -0.125008 1 0 1
metal_metaldoor028a
0 -293 17 -320 0 1 0 160.0625 -1 1 0 1
0 -289 17 -208.001 0 1 0 160 -0.125008 1 0 1
0 -289 17 -320 0 1 0 160 -1 1 0 1
metal_metaldoor028a
0 -289 1 -320 0 -1 0 160 -1 1 0 1
0 -289 1 -208.001 0 -1 0 160 -0.125008 1 0 1
0 -293 1 -212.001 0 -1 0 160.0625 -0.156258 1 0 1
metal_metaldoor028a
0 -289 1 -320 0 -1 0 160 -1 1 0 1
0 -293 1 -212.001 0 -1 0 160.0625 -0.156258 1 0 1
0 -293 1 -320 0 -1 0 160.0625 -1 1 0 1
metal_metaldoor028a
0 -293 1 -320 -1 0 0 154.53125 -1 1 0 1
0 -293 1 -212.001 -1 0 0 154.53125 -0.156258 1 0 1
0 -293 17 -212.001 -1 0 0 154.28125 -0.156258 1 0 1
metal_metaldoor028a
0 -293 1 -320 -1 0 0 154.53125 -1 1 0 1
0 -293 17 -212.001 -1 0 0 154.28125 -0.156258 1 0 1
0 -293 17 -320 -1 0 0 154.28125 -1 1 0 1
end
