version 1
nodes
0 "root" -1
end
skeleton
time 0
0 0 0 0 0 0 0
end
triangles
phys
0 0 -90 23 0 0 1 1 0 1 0 1
0 0 -90 13 0 0 1 1 0 1 0 1
0 -2 -90 13 0 0 1 1 0 1 0 1
phys
0 0 -90 23 0 0 1 1 0 1 0 1
0 -2 -90 13 0 0 1 1 0 1 0 1
0 -2 -90 23 0 0 1 1 0 1 0 1
phys
0 0 -217 13 0 0 1 1 0 1 0 1
0 0 -217 23 0 0 1 1 0 1 0 1
0 -2 -217 23 0 0 1 1 0 1 0 1
phys
0 0 -217 13 0 0 1 1 0 1 0 1
0 -2 -217 23 0 0 1 1 0 1 0 1
0 -2 -217 13 0 0 1 1 0 1 0 1
phys
0 -2 -217 13 0 0 1 1 0 1 0 1
0 -2 -217 23 0 0 1 1 0 1 0 1
0 -2 -90 23 0 0 1 1 0 1 0 1
phys
0 -2 -217 13 0 0 1 1 0 1 0 1
0 -2 -90 23 0 0 1 1 0 1 0 1
0 -2 -90 13 0 0 1 1 0 1 0 1
phys
0 0 -217 23 0 0 1 1 0 1 0 1
0 0 -217 13 0 0 1 1 0 1 0 1
0 0 -90 13 0 0 1 1 0 1 0 1
phys
0 0 -217 23 0 0 1 1 0 1 0 1
0 0 -90 13 0 0 1 1 0 1 0 1
0 0 -90 23 0 0 1 1 0 1 0 1
phys
0 0 -217 13 0 0 1 1 0 1 0 1
0 -2 -217 13 0 0 1 1 0 1 0 1
0 -2 -90 13 0 0 1 1 0 1 0 1
phys
0 0 -217 13 0 0 1 1 0 1 0 1
0 -2 -90 13 0 0 1 1 0 1 0 1
0 0 -90 13 0 0 1 1 0 1 0 1
phys
0 -2 -217 23 0 0 1 1 0 1 0 1
0 0 -217 23 0 0 1 1 0 1 0 1
0 0 -90 23 0 0 1 1 0 1 0 1
phys
0 -2 -217 23 0 0 1 1 0 1 0 1
0 0 -90 23 0 0 1 1 0 1 0 1
0 -2 -90 23 0 0 1 1 0 1 0 1
phys
0 -40 -90 23 0 0 1 2 0 1 0 1
0 -40 -90 13 0 0 1 2 0 1 0 1
0 -42 -90 13 0 0 1 2 0 1 0 1
phys
0 -40 -90 23 0 0 1 2 0 1 0 1
0 -42 -90 13 0 0 1 2 0 1 0 1
0 -42 -90 23 0 0 1 2 0 1 0 1
phys
0 -40 -217 13 0 0 1 2 0 1 0 1
0 -40 -217 23 0 0 1 2 0 1 0 1
0 -42 -217 23 0 0 1 2 0 1 0 1
phys
0 -40 -217 13 0 0 1 2 0 1 0 1
0 -42 -217 23 0 0 1 2 0 1 0 1
0 -42 -217 13 0 0 1 2 0 1 0 1
phys
0 -42 -217 13 0 0 1 2 0 1 0 1
0 -42 -217 23 0 0 1 2 0 1 0 1
0 -42 -90 23 0 0 1 2 0 1 0 1
phys
0 -42 -217 13 0 0 1 2 0 1 0 1
0 -42 -90 23 0 0 1 2 0 1 0 1
0 -42 -90 13 0 0 1 2 0 1 0 1
phys
0 -40 -217 23 0 0 1 2 0 1 0 1
0 -40 -217 13 0 0 1 2 0 1 0 1
0 -40 -90 13 0 0 1 2 0 1 0 1
phys
0 -40 -217 23 0 0 1 2 0 1 0 1
0 -40 -90 13 0 0 1 2 0 1 0 1
0 -40 -90 23 0 0 1 2 0 1 0 1
phys
0 -40 -217 13 0 0 1 2 0 1 0 1
0 -42 -217 13 0 0 1 2 0 1 0 1
0 -42 -90 13 0 0 1 2 0 1 0 1
phys
0 -40 -217 13 0 0 1 2 0 1 0 1
0 -42 -90 13 0 0 1 2 0 1 0 1
0 -40 -90 13 0 0 1 2 0 1 0 1
phys
0 -42 -217 23 0 0 1 2 0 1 0 1
0 -40 -217 23 0 0 1 2 0 1 0 1
0 -40 -90 23 0 0 1 2 0 1 0 1
phys
0 -42 -217 23 0 0 1 2 0 1 0 1
0 -40 -90 23 0 0 1 2 0 1 0 1
0 -42 -90 23 0 0 1 2 0 1 0 1
phys
0 136 30 12 0 0 1 3 0 1 0 1
0 136 30 -12 0 0 1 3 0 1 0 1
0 -137 30 -12 0 0 1 3 0 1 0 1
phys
0 136 30 12 0 0 1 3 0 1 0 1
0 -137 30 -12 0 0 1 3 0 1 0 1
0 -137 30 12 0 0 1 3 0 1 0 1
phys
0 136 -29 -12 0 0 1 3 0 1 0 1
0 136 -29 12 0 0 1 3 0 1 0 1
0 -137 -29 12 0 0 1 3 0 1 0 1
phys
0 136 -29 -12 0 0 1 3 0 1 0 1
0 -137 -29 12 0 0 1 3 0 1 0 1
0 -137 -29 -12 0 0 1 3 0 1 0 1
phys
0 -137 -29 -12 0 0 1 3 0 1 0 1
0 -137 -29 12 0 0 1 3 0 1 0 1
0 -137 30 12 0 0 1 3 0 1 0 1
phys
0 -137 -29 -12 0 0 1 3 0 1 0 1
0 -137 30 12 0 0 1 3 0 1 0 1
0 -137 30 -12 0 0 1 3 0 1 0 1
phys
0 136 -29 12 0 0 1 3 0 1 0 1
0 136 -29 -12 0 0 1 3 0 1 0 1
0 136 30 -12 0 0 1 3 0 1 0 1
phys
0 136 -29 12 0 0 1 3 0 1 0 1
0 136 30 -12 0 0 1 3 0 1 0 1
0 136 30 12 0 0 1 3 0 1 0 1
phys
0 136 -29 -12 0 0 1 3 0 1 0 1
0 -137 -29 -12 0 0 1 3 0 1 0 1
0 -137 30 -12 0 0 1 3 0 1 0 1
phys
0 136 -29 -12 0 0 1 3 0 1 0 1
0 -137 30 -12 0 0 1 3 0 1 0 1
0 136 30 -12 0 0 1 3 0 1 0 1
phys
0 -137 -29 12 0 0 1 3 0 1 0 1
0 136 -29 12 0 0 1 3 0 1 0 1
0 136 30 12 0 0 1 3 0 1 0 1
phys
0 -137 -29 12 0 0 1 3 0 1 0 1
0 136 30 12 0 0 1 3 0 1 0 1
0 -137 30 12 0 0 1 3 0 1 0 1
phys
0 -20 -90 23 0 0 1 4 0 1 0 1
0 -20 -90 13 0 0 1 4 0 1 0 1
0 -22 -90 13 0 0 1 4 0 1 0 1
phys
0 -20 -90 23 0 0 1 4 0 1 0 1
0 -22 -90 13 0 0 1 4 0 1 0 1
0 -22 -90 23 0 0 1 4 0 1 0 1
phys
0 -20 -217 13 0 0 1 4 0 1 0 1
0 -20 -217 23 0 0 1 4 0 1 0 1
0 -22 -217 23 0 0 1 4 0 1 0 1
phys
0 -20 -217 13 0 0 1 4 0 1 0 1
0 -22 -217 23 0 0 1 4 0 1 0 1
0 -22 -217 13 0 0 1 4 0 1 0 1
phys
0 -22 -217 13 0 0 1 4 0 1 0 1
0 -22 -217 23 0 0 1 4 0 1 0 1
0 -22 -90 23 0 0 1 4 0 1 0 1
phys
0 -22 -217 13 0 0 1 4 0 1 0 1
0 -22 -90 23 0 0 1 4 0 1 0 1
0 -22 -90 13 0 0 1 4 0 1 0 1
phys
0 -20 -217 23 0 0 1 4 0 1 0 1
0 -20 -217 13 0 0 1 4 0 1 0 1
0 -20 -90 13 0 0 1 4 0 1 0 1
phys
0 -20 -217 23 0 0 1 4 0 1 0 1
0 -20 -90 13 0 0 1 4 0 1 0 1
0 -20 -90 23 0 0 1 4 0 1 0 1
phys
0 -20 -217 13 0 0 1 4 0 1 0 1
0 -22 -217 13 0 0 1 4 0 1 0 1
0 -22 -90 13 0 0 1 4 0 1 0 1
phys
0 -20 -217 13 0 0 1 4 0 1 0 1
0 -22 -90 13 0 0 1 4 0 1 0 1
0 -20 -90 13 0 0 1 4 0 1 0 1
phys
0 -22 -217 23 0 0 1 4 0 1 0 1
0 -20 -217 23 0 0 1 4 0 1 0 1
0 -20 -90 23 0 0 1 4 0 1 0 1
phys
0 -22 -217 23 0 0 1 4 0 1 0 1
0 -20 -90 23 0 0 1 4 0 1 0 1
0 -22 -90 23 0 0 1 4 0 1 0 1
phys
0 60 -90 23 0 0 1 5 0 1 0 1
0 60 -90 13 0 0 1 5 0 1 0 1
0 58 -90 13 0 0 1 5 0 1 0 1
phys
0 60 -90 23 0 0 1 5 0 1 0 1
0 58 -90 13 0 0 1 5 0 1 0 1
0 58 -90 23 0 0 1 5 0 1 0 1
phys
0 60 -217 13 0 0 1 5 0 1 0 1
0 60 -217 23 0 0 1 5 0 1 0 1
0 58 -217 23 0 0 1 5 0 1 0 1
phys
0 60 -217 13 0 0 1 5 0 1 0 1
0 58 -217 23 0 0 1 5 0 1 0 1
0 58 -217 13 0 0 1 5 0 1 0 1
phys
0 58 -217 13 0 0 1 5 0 1 0 1
0 58 -217 23 0 0 1 5 0 1 0 1
0 58 -90 23 0 0 1 5 0 1 0 1
phys
0 58 -217 13 0 0 1 5 0 1 0 1
0 58 -90 23 0 0 1 5 0 1 0 1
0 58 -90 13 0 0 1 5 0 1 0 1
phys
0 60 -217 23 0 0 1 5 0 1 0 1
0 60 -217 13 0 0 1 5 0 1 0 1
0 60 -90 13 0 0 1 5 0 1 0 1
phys
0 60 -217 23 0 0 1 5 0 1 0 1
0 60 -90 13 0 0 1 5 0 1 0 1
0 60 -90 23 0 0 1 5 0 1 0 1
phys
0 60 -217 13 0 0 1 5 0 1 0 1
0 58 -217 13 0 0 1 5 0 1 0 1
0 58 -90 13 0 0 1 5 0 1 0 1
phys
0 60 -217 13 0 0 1 5 0 1 0 1
0 58 -90 13 0 0 1 5 0 1 0 1
0 60 -90 13 0 0 1 5 0 1 0 1
phys
0 58 -217 23 0 0 1 5 0 1 0 1
0 60 -217 23 0 0 1 5 0 1 0 1
0 60 -90 23 0 0 1 5 0 1 0 1
phys
0 58 -217 23 0 0 1 5 0 1 0 1
0 60 -90 23 0 0 1 5 0 1 0 1
0 58 -90 23 0 0 1 5 0 1 0 1
phys
0 40 -217 13 0 0 1 6 0 1 0 1
0 38 -217 13 0 0 1 6 0 1 0 1
0 38 -90 13 0 0 1 6 0 1 0 1
phys
0 40 -217 13 0 0 1 6 0 1 0 1
0 38 -90 13 0 0 1 6 0 1 0 1
0 40 -90 13 0 0 1 6 0 1 0 1
phys
0 38 -217 23 0 0 1 6 0 1 0 1
0 40 -217 23 0 0 1 6 0 1 0 1
0 40 -90 23 0 0 1 6 0 1 0 1
phys
0 38 -217 23 0 0 1 6 0 1 0 1
0 40 -90 23 0 0 1 6 0 1 0 1
0 38 -90 23 0 0 1 6 0 1 0 1
phys
0 40 -90 13 0 0 1 6 0 1 0 1
0 38 -90 13 0 0 1 6 0 1 0 1
0 38 -90 23 0 0 1 6 0 1 0 1
phys
0 40 -90 13 0 0 1 6 0 1 0 1
0 38 -90 23 0 0 1 6 0 1 0 1
0 40 -90 23 0 0 1 6 0 1 0 1
phys
0 40 -217 23 0 0 1 6 0 1 0 1
0 38 -217 23 0 0 1 6 0 1 0 1
0 38 -217 13 0 0 1 6 0 1 0 1
phys
0 40 -217 23 0 0 1 6 0 1 0 1
0 38 -217 13 0 0 1 6 0 1 0 1
0 40 -217 13 0 0 1 6 0 1 0 1
phys
0 38 -217 23 0 0 1 6 0 1 0 1
0 38 -90 23 0 0 1 6 0 1 0 1
0 38 -90 13 0 0 1 6 0 1 0 1
phys
0 38 -217 23 0 0 1 6 0 1 0 1
0 38 -90 13 0 0 1 6 0 1 0 1
0 38 -217 13 0 0 1 6 0 1 0 1
phys
0 40 -217 13 0 0 1 6 0 1 0 1
0 40 -90 13 0 0 1 6 0 1 0 1
0 40 -90 23 0 0 1 6 0 1 0 1
phys
0 40 -217 13 0 0 1 6 0 1 0 1
0 40 -90 23 0 0 1 6 0 1 0 1
0 40 -217 23 0 0 1 6 0 1 0 1
phys
0 20 -90 23 0 0 1 7 0 1 0 1
0 20 -90 13 0 0 1 7 0 1 0 1
0 18 -90 13 0 0 1 7 0 1 0 1
phys
0 20 -90 23 0 0 1 7 0 1 0 1
0 18 -90 13 0 0 1 7 0 1 0 1
0 18 -90 23 0 0 1 7 0 1 0 1
phys
0 20 -217 13 0 0 1 7 0 1 0 1
0 20 -217 23 0 0 1 7 0 1 0 1
0 18 -217 23 0 0 1 7 0 1 0 1
phys
0 20 -217 13 0 0 1 7 0 1 0 1
0 18 -217 23 0 0 1 7 0 1 0 1
0 18 -217 13 0 0 1 7 0 1 0 1
phys
0 18 -217 13 0 0 1 7 0 1 0 1
0 18 -217 23 0 0 1 7 0 1 0 1
0 18 -90 23 0 0 1 7 0 1 0 1
phys
0 18 -217 13 0 0 1 7 0 1 0 1
0 18 -90 23 0 0 1 7 0 1 0 1
0 18 -90 13 0 0 1 7 0 1 0 1
phys
0 20 -217 23 0 0 1 7 0 1 0 1
0 20 -217 13 0 0 1 7 0 1 0 1
0 20 -90 13 0 0 1 7 0 1 0 1
phys
0 20 -217 23 0 0 1 7 0 1 0 1
0 20 -90 13 0 0 1 7 0 1 0 1
0 20 -90 23 0 0 1 7 0 1 0 1
phys
0 20 -217 13 0 0 1 7 0 1 0 1
0 18 -217 13 0 0 1 7 0 1 0 1
0 18 -90 13 0 0 1 7 0 1 0 1
phys
0 20 -217 13 0 0 1 7 0 1 0 1
0 18 -90 13 0 0 1 7 0 1 0 1
0 20 -90 13 0 0 1 7 0 1 0 1
phys
0 18 -217 23 0 0 1 7 0 1 0 1
0 20 -217 23 0 0 1 7 0 1 0 1
0 20 -90 23 0 0 1 7 0 1 0 1
phys
0 18 -217 23 0 0 1 7 0 1 0 1
0 20 -90 23 0 0 1 7 0 1 0 1
0 18 -90 23 0 0 1 7 0 1 0 1
end
