version 1
nodes
0 "root" -1
end
skeleton
time 0
0 0 0 0 0 0 0
end
triangles
phys
0 -150 53 113 0 0 1 1 0 1 0 1
0 -150 53 73 0 0 1 1 0 1 0 1
0 -158 53 73 0 0 1 1 0 1 0 1
phys
0 -150 53 113 0 0 1 1 0 1 0 1
0 -158 53 73 0 0 1 1 0 1 0 1
0 -158 53 113 0 0 1 1 0 1 0 1
phys
0 -150 45 73 0 0 1 1 0 1 0 1
0 -150 45 113 0 0 1 1 0 1 0 1
0 -158 45 113 0 0 1 1 0 1 0 1
phys
0 -150 45 73 0 0 1 1 0 1 0 1
0 -158 45 113 0 0 1 1 0 1 0 1
0 -158 45 73 0 0 1 1 0 1 0 1
phys
0 -158 45 73 0 0 1 1 0 1 0 1
0 -158 45 113 0 0 1 1 0 1 0 1
0 -158 53 113 0 0 1 1 0 1 0 1
phys
0 -158 45 73 0 0 1 1 0 1 0 1
0 -158 53 113 0 0 1 1 0 1 0 1
0 -158 53 73 0 0 1 1 0 1 0 1
phys
0 -150 45 113 0 0 1 1 0 1 0 1
0 -150 45 73 0 0 1 1 0 1 0 1
0 -150 53 73 0 0 1 1 0 1 0 1
phys
0 -150 45 113 0 0 1 1 0 1 0 1
0 -150 53 73 0 0 1 1 0 1 0 1
0 -150 53 113 0 0 1 1 0 1 0 1
phys
0 -150 45 73 0 0 1 1 0 1 0 1
0 -158 45 73 0 0 1 1 0 1 0 1
0 -158 53 73 0 0 1 1 0 1 0 1
phys
0 -150 45 73 0 0 1 1 0 1 0 1
0 -158 53 73 0 0 1 1 0 1 0 1
0 -150 53 73 0 0 1 1 0 1 0 1
phys
0 -158 45 113 0 0 1 1 0 1 0 1
0 -150 45 113 0 0 1 1 0 1 0 1
0 -150 53 113 0 0 1 1 0 1 0 1
phys
0 -158 45 113 0 0 1 1 0 1 0 1
0 -150 53 113 0 0 1 1 0 1 0 1
0 -158 53 113 0 0 1 1 0 1 0 1
phys
0 -70 53 113 0 0 1 2 0 1 0 1
0 -70 53 109 0 0 1 2 0 1 0 1
0 -150 53 109 0 0 1 2 0 1 0 1
phys
0 -70 53 113 0 0 1 2 0 1 0 1
0 -150 53 109 0 0 1 2 0 1 0 1
0 -150 53 113 0 0 1 2 0 1 0 1
phys
0 -70 45 109 0 0 1 2 0 1 0 1
0 -70 45 113 0 0 1 2 0 1 0 1
0 -150 45 113 0 0 1 2 0 1 0 1
phys
0 -70 45 109 0 0 1 2 0 1 0 1
0 -150 45 113 0 0 1 2 0 1 0 1
0 -150 45 109 0 0 1 2 0 1 0 1
phys
0 -150 45 109 0 0 1 2 0 1 0 1
0 -150 45 113 0 0 1 2 0 1 0 1
0 -150 53 113 0 0 1 2 0 1 0 1
phys
0 -150 45 109 0 0 1 2 0 1 0 1
0 -150 53 113 0 0 1 2 0 1 0 1
0 -150 53 109 0 0 1 2 0 1 0 1
phys
0 -70 45 113 0 0 1 2 0 1 0 1
0 -70 45 109 0 0 1 2 0 1 0 1
0 -70 53 109 0 0 1 2 0 1 0 1
phys
0 -70 45 113 0 0 1 2 0 1 0 1
0 -70 53 109 0 0 1 2 0 1 0 1
0 -70 53 113 0 0 1 2 0 1 0 1
phys
0 -70 45 109 0 0 1 2 0 1 0 1
0 -150 45 109 0 0 1 2 0 1 0 1
0 -150 53 109 0 0 1 2 0 1 0 1
phys
0 -70 45 109 0 0 1 2 0 1 0 1
0 -150 53 109 0 0 1 2 0 1 0 1
0 -70 53 109 0 0 1 2 0 1 0 1
phys
0 -150 45 113 0 0 1 2 0 1 0 1
0 -70 45 113 0 0 1 2 0 1 0 1
0 -70 53 113 0 0 1 2 0 1 0 1
phys
0 -150 45 113 0 0 1 2 0 1 0 1
0 -70 53 113 0 0 1 2 0 1 0 1
0 -150 53 113 0 0 1 2 0 1 0 1
phys
0 -62 53 113 0 0 1 3 0 1 0 1
0 -62 53 73 0 0 1 3 0 1 0 1
0 -70 53 73 0 0 1 3 0 1 0 1
phys
0 -62 53 113 0 0 1 3 0 1 0 1
0 -70 53 73 0 0 1 3 0 1 0 1
0 -70 53 113 0 0 1 3 0 1 0 1
phys
0 -62 45 73 0 0 1 3 0 1 0 1
0 -62 45 113 0 0 1 3 0 1 0 1
0 -70 45 113 0 0 1 3 0 1 0 1
phys
0 -62 45 73 0 0 1 3 0 1 0 1
0 -70 45 113 0 0 1 3 0 1 0 1
0 -70 45 73 0 0 1 3 0 1 0 1
phys
0 -70 45 73 0 0 1 3 0 1 0 1
0 -70 45 113 0 0 1 3 0 1 0 1
0 -70 53 113 0 0 1 3 0 1 0 1
phys
0 -70 45 73 0 0 1 3 0 1 0 1
0 -70 53 113 0 0 1 3 0 1 0 1
0 -70 53 73 0 0 1 3 0 1 0 1
phys
0 -62 45 113 0 0 1 3 0 1 0 1
0 -62 45 73 0 0 1 3 0 1 0 1
0 -62 53 73 0 0 1 3 0 1 0 1
phys
0 -62 45 113 0 0 1 3 0 1 0 1
0 -62 53 73 0 0 1 3 0 1 0 1
0 -62 53 113 0 0 1 3 0 1 0 1
phys
0 -62 45 73 0 0 1 3 0 1 0 1
0 -70 45 73 0 0 1 3 0 1 0 1
0 -70 53 73 0 0 1 3 0 1 0 1
phys
0 -62 45 73 0 0 1 3 0 1 0 1
0 -70 53 73 0 0 1 3 0 1 0 1
0 -62 53 73 0 0 1 3 0 1 0 1
phys
0 -70 45 113 0 0 1 3 0 1 0 1
0 -62 45 113 0 0 1 3 0 1 0 1
0 -62 53 113 0 0 1 3 0 1 0 1
phys
0 -70 45 113 0 0 1 3 0 1 0 1
0 -62 53 113 0 0 1 3 0 1 0 1
0 -70 53 113 0 0 1 3 0 1 0 1
phys
0 -150 45 113 0 0 1 4 0 1 0 1
0 -150 45 109 0 0 1 4 0 1 0 1
0 -158 45 109 0 0 1 4 0 1 0 1
phys
0 -150 45 113 0 0 1 4 0 1 0 1
0 -158 45 109 0 0 1 4 0 1 0 1
0 -158 45 113 0 0 1 4 0 1 0 1
phys
0 -150 -35 109 0 0 1 4 0 1 0 1
0 -150 -35 113 0 0 1 4 0 1 0 1
0 -158 -35 113 0 0 1 4 0 1 0 1
phys
0 -150 -35 109 0 0 1 4 0 1 0 1
0 -158 -35 113 0 0 1 4 0 1 0 1
0 -158 -35 109 0 0 1 4 0 1 0 1
phys
0 -158 -35 109 0 0 1 4 0 1 0 1
0 -158 -35 113 0 0 1 4 0 1 0 1
0 -158 45 113 0 0 1 4 0 1 0 1
phys
0 -158 -35 109 0 0 1 4 0 1 0 1
0 -158 45 113 0 0 1 4 0 1 0 1
0 -158 45 109 0 0 1 4 0 1 0 1
phys
0 -150 -35 113 0 0 1 4 0 1 0 1
0 -150 -35 109 0 0 1 4 0 1 0 1
0 -150 45 109 0 0 1 4 0 1 0 1
phys
0 -150 -35 113 0 0 1 4 0 1 0 1
0 -150 45 109 0 0 1 4 0 1 0 1
0 -150 45 113 0 0 1 4 0 1 0 1
phys
0 -150 -35 109 0 0 1 4 0 1 0 1
0 -158 -35 109 0 0 1 4 0 1 0 1
0 -158 45 109 0 0 1 4 0 1 0 1
phys
0 -150 -35 109 0 0 1 4 0 1 0 1
0 -158 45 109 0 0 1 4 0 1 0 1
0 -150 45 109 0 0 1 4 0 1 0 1
phys
0 -158 -35 113 0 0 1 4 0 1 0 1
0 -150 -35 113 0 0 1 4 0 1 0 1
0 -150 45 113 0 0 1 4 0 1 0 1
phys
0 -158 -35 113 0 0 1 4 0 1 0 1
0 -150 45 113 0 0 1 4 0 1 0 1
0 -158 45 113 0 0 1 4 0 1 0 1
phys
0 108 45 65 0 0 1 5 0 1 0 1
0 108 45 57 0 0 1 5 0 1 0 1
0 98 45 57 0 0 1 5 0 1 0 1
phys
0 108 45 65 0 0 1 5 0 1 0 1
0 98 45 57 0 0 1 5 0 1 0 1
0 98 45 65 0 0 1 5 0 1 0 1
phys
0 108 -43 0 0 0 1 5 0 1 0 1
0 108 -43 65 0 0 1 5 0 1 0 1
0 98 -43 65 0 0 1 5 0 1 0 1
phys
0 108 -43 0 0 0 1 5 0 1 0 1
0 98 -43 65 0 0 1 5 0 1 0 1
0 98 -43 0 0 0 1 5 0 1 0 1
phys
0 98 -43 0 0 0 1 5 0 1 0 1
0 98 -43 65 0 0 1 5 0 1 0 1
0 98 45 65 0 0 1 5 0 1 0 1
phys
0 98 -43 0 0 0 1 5 0 1 0 1
0 98 45 65 0 0 1 5 0 1 0 1
0 98 45 57 0 0 1 5 0 1 0 1
phys
0 98 -43 0 0 0 1 5 0 1 0 1
0 98 45 57 0 0 1 5 0 1 0 1
0 98 -33 0 0 0 1 5 0 1 0 1
phys
0 108 -43 65 0 0 1 5 0 1 0 1
0 108 -43 0 0 0 1 5 0 1 0 1
0 108 -33 0 0 0 1 5 0 1 0 1
phys
0 108 -43 65 0 0 1 5 0 1 0 1
0 108 -33 0 0 0 1 5 0 1 0 1
0 108 45 57 0 0 1 5 0 1 0 1
phys
0 108 -43 65 0 0 1 5 0 1 0 1
0 108 45 57 0 0 1 5 0 1 0 1
0 108 45 65 0 0 1 5 0 1 0 1
phys
0 108 -43 0 0 0 1 5 0 1 0 1
0 98 -43 0 0 0 1 5 0 1 0 1
0 98 -33 0 0 0 1 5 0 1 0 1
phys
0 108 -43 0 0 0 1 5 0 1 0 1
0 98 -33 0 0 0 1 5 0 1 0 1
0 108 -33 0 0 0 1 5 0 1 0 1
phys
0 98 -43 65 0 0 1 5 0 1 0 1
0 108 -43 65 0 0 1 5 0 1 0 1
0 108 45 65 0 0 1 5 0 1 0 1
phys
0 98 -43 65 0 0 1 5 0 1 0 1
0 108 45 65 0 0 1 5 0 1 0 1
0 98 45 65 0 0 1 5 0 1 0 1
phys
0 98 -33 0 0 0 1 5 0 1 0 1
0 98 45 57 0 0 1 5 0 1 0 1
0 108 45 57 0 0 1 5 0 1 0 1
phys
0 98 -33 0 0 0 1 5 0 1 0 1
0 108 45 57 0 0 1 5 0 1 0 1
0 108 -33 0 0 0 1 5 0 1 0 1
phys
0 -158 -43 73 0 0 1 6 0 1 0 1
0 -158 53 73 0 0 1 6 0 1 0 1
0 -158 53 65 0 0 1 6 0 1 0 1
phys
0 -158 -43 73 0 0 1 6 0 1 0 1
0 -158 53 65 0 0 1 6 0 1 0 1
0 -158 -43 65 0 0 1 6 0 1 0 1
phys
0 158 -43 65 0 0 1 6 0 1 0 1
0 158 53 65 0 0 1 6 0 1 0 1
0 158 53 73 0 0 1 6 0 1 0 1
phys
0 158 -43 65 0 0 1 6 0 1 0 1
0 158 53 73 0 0 1 6 0 1 0 1
0 158 -43 73 0 0 1 6 0 1 0 1
phys
0 -158 -43 65 0 0 1 6 0 1 0 1
0 -158 53 65 0 0 1 6 0 1 0 1
0 158 53 65 0 0 1 6 0 1 0 1
phys
0 -158 -43 65 0 0 1 6 0 1 0 1
0 158 53 65 0 0 1 6 0 1 0 1
0 158 -43 65 0 0 1 6 0 1 0 1
phys
0 158 -43 73 0 0 1 6 0 1 0 1
0 158 53 73 0 0 1 6 0 1 0 1
0 -158 53 73 0 0 1 6 0 1 0 1
phys
0 158 -43 73 0 0 1 6 0 1 0 1
0 -158 53 73 0 0 1 6 0 1 0 1
0 -158 -43 73 0 0 1 6 0 1 0 1
phys
0 158 53 73 0 0 1 6 0 1 0 1
0 158 53 65 0 0 1 6 0 1 0 1
0 -158 53 65 0 0 1 6 0 1 0 1
phys
0 158 53 73 0 0 1 6 0 1 0 1
0 -158 53 65 0 0 1 6 0 1 0 1
0 -158 53 73 0 0 1 6 0 1 0 1
phys
0 158 -43 65 0 0 1 6 0 1 0 1
0 158 -43 73 0 0 1 6 0 1 0 1
0 -158 -43 73 0 0 1 6 0 1 0 1
phys
0 158 -43 65 0 0 1 6 0 1 0 1
0 -158 -43 73 0 0 1 6 0 1 0 1
0 -158 -43 65 0 0 1 6 0 1 0 1
phys
0 20 -43 181.0209 0 0 1 7 0 1 0 1
0 20 -43 73 0 0 1 7 0 1 0 1
0 16 -43 73 0 0 1 7 0 1 0 1
phys
0 20 -43 181.0209 0 0 1 7 0 1 0 1
0 16 -43 73 0 0 1 7 0 1 0 1
0 16 -43 185.0219 0 0 1 7 0 1 0 1
phys
0 20 -52 73 0 0 1 7 0 1 0 1
0 20 -52 181.0297 0 0 1 7 0 1 0 1
0 16 -52 185.0307 0 0 1 7 0 1 0 1
phys
0 20 -52 73 0 0 1 7 0 1 0 1
0 16 -52 185.0307 0 0 1 7 0 1 0 1
0 16 -52 73 0 0 1 7 0 1 0 1
phys
0 16 -52 73 0 0 1 7 0 1 0 1
0 16 -52 185.0307 0 0 1 7 0 1 0 1
0 16 -43 185.0219 0 0 1 7 0 1 0 1
phys
0 16 -52 73 0 0 1 7 0 1 0 1
0 16 -43 185.0219 0 0 1 7 0 1 0 1
0 16 -43 73 0 0 1 7 0 1 0 1
phys
0 20 -52 181.0297 0 0 1 7 0 1 0 1
0 20 -52 73 0 0 1 7 0 1 0 1
0 20 -43 73 0 0 1 7 0 1 0 1
phys
0 20 -52 181.0297 0 0 1 7 0 1 0 1
0 20 -43 73 0 0 1 7 0 1 0 1
0 20 -43 181.0209 0 0 1 7 0 1 0 1
phys
0 20 -52 73 0 0 1 7 0 1 0 1
0 16 -52 73 0 0 1 7 0 1 0 1
0 16 -43 73 0 0 1 7 0 1 0 1
phys
0 20 -52 73 0 0 1 7 0 1 0 1
0 16 -43 73 0 0 1 7 0 1 0 1
0 20 -43 73 0 0 1 7 0 1 0 1
phys
0 16 -52 185.0307 0 0 1 7 0 1 0 1
0 20 -52 181.0297 0 0 1 7 0 1 0 1
0 20 -43 181.0209 0 0 1 7 0 1 0 1
phys
0 16 -52 185.0307 0 0 1 7 0 1 0 1
0 20 -43 181.0209 0 0 1 7 0 1 0 1
0 16 -43 185.0219 0 0 1 7 0 1 0 1
phys
0 62 53 113 0 0 1 8 0 1 0 1
0 62 53 109 0 0 1 8 0 1 0 1
0 -62 53 109 0 0 1 8 0 1 0 1
phys
0 62 53 113 0 0 1 8 0 1 0 1
0 -62 53 109 0 0 1 8 0 1 0 1
0 -62 53 113 0 0 1 8 0 1 0 1
phys
0 62 45 109 0 0 1 8 0 1 0 1
0 62 45 113 0 0 1 8 0 1 0 1
0 -62 45 113 0 0 1 8 0 1 0 1
phys
0 62 45 109 0 0 1 8 0 1 0 1
0 -62 45 113 0 0 1 8 0 1 0 1
0 -62 45 109 0 0 1 8 0 1 0 1
phys
0 -62 45 109 0 0 1 8 0 1 0 1
0 -62 45 113 0 0 1 8 0 1 0 1
0 -62 53 113 0 0 1 8 0 1 0 1
phys
0 -62 45 109 0 0 1 8 0 1 0 1
0 -62 53 113 0 0 1 8 0 1 0 1
0 -62 53 109 0 0 1 8 0 1 0 1
phys
0 62 45 113 0 0 1 8 0 1 0 1
0 62 45 109 0 0 1 8 0 1 0 1
0 62 53 109 0 0 1 8 0 1 0 1
phys
0 62 45 113 0 0 1 8 0 1 0 1
0 62 53 109 0 0 1 8 0 1 0 1
0 62 53 113 0 0 1 8 0 1 0 1
phys
0 62 45 109 0 0 1 8 0 1 0 1
0 -62 45 109 0 0 1 8 0 1 0 1
0 -62 53 109 0 0 1 8 0 1 0 1
phys
0 62 45 109 0 0 1 8 0 1 0 1
0 -62 53 109 0 0 1 8 0 1 0 1
0 62 53 109 0 0 1 8 0 1 0 1
phys
0 -62 45 113 0 0 1 8 0 1 0 1
0 62 45 113 0 0 1 8 0 1 0 1
0 62 53 113 0 0 1 8 0 1 0 1
phys
0 -62 45 113 0 0 1 8 0 1 0 1
0 62 53 113 0 0 1 8 0 1 0 1
0 -62 53 113 0 0 1 8 0 1 0 1
phys
0 70 53 113 0 0 1 9 0 1 0 1
0 70 53 73 0 0 1 9 0 1 0 1
0 62 53 73 0 0 1 9 0 1 0 1
phys
0 70 53 113 0 0 1 9 0 1 0 1
0 62 53 73 0 0 1 9 0 1 0 1
0 62 53 113 0 0 1 9 0 1 0 1
phys
0 70 45 73 0 0 1 9 0 1 0 1
0 70 45 113 0 0 1 9 0 1 0 1
0 62 45 113 0 0 1 9 0 1 0 1
phys
0 70 45 73 0 0 1 9 0 1 0 1
0 62 45 113 0 0 1 9 0 1 0 1
0 62 45 73 0 0 1 9 0 1 0 1
phys
0 62 45 73 0 0 1 9 0 1 0 1
0 62 45 113 0 0 1 9 0 1 0 1
0 62 53 113 0 0 1 9 0 1 0 1
phys
0 62 45 73 0 0 1 9 0 1 0 1
0 62 53 113 0 0 1 9 0 1 0 1
0 62 53 73 0 0 1 9 0 1 0 1
phys
0 70 45 113 0 0 1 9 0 1 0 1
0 70 45 73 0 0 1 9 0 1 0 1
0 70 53 73 0 0 1 9 0 1 0 1
phys
0 70 45 113 0 0 1 9 0 1 0 1
0 70 53 73 0 0 1 9 0 1 0 1
0 70 53 113 0 0 1 9 0 1 0 1
phys
0 70 45 73 0 0 1 9 0 1 0 1
0 62 45 73 0 0 1 9 0 1 0 1
0 62 53 73 0 0 1 9 0 1 0 1
phys
0 70 45 73 0 0 1 9 0 1 0 1
0 62 53 73 0 0 1 9 0 1 0 1
0 70 53 73 0 0 1 9 0 1 0 1
phys
0 62 45 113 0 0 1 9 0 1 0 1
0 70 45 113 0 0 1 9 0 1 0 1
0 70 53 113 0 0 1 9 0 1 0 1
phys
0 62 45 113 0 0 1 9 0 1 0 1
0 70 53 113 0 0 1 9 0 1 0 1
0 62 53 113 0 0 1 9 0 1 0 1
phys
0 72 -43 184.9938 0 0 1 10 0 1 0 1
0 72 -43 73 0 0 1 10 0 1 0 1
0 68 -43 73 0 0 1 10 0 1 0 1
phys
0 72 -43 184.9938 0 0 1 10 0 1 0 1
0 68 -43 73 0 0 1 10 0 1 0 1
0 68 -43 180.9938 0 0 1 10 0 1 0 1
phys
0 72 -52 73 0 0 1 10 0 1 0 1
0 72 -52 184.9938 0 0 1 10 0 1 0 1
0 68 -52 180.9938 0 0 1 10 0 1 0 1
phys
0 72 -52 73 0 0 1 10 0 1 0 1
0 68 -52 180.9938 0 0 1 10 0 1 0 1
0 68 -52 73 0 0 1 10 0 1 0 1
phys
0 68 -52 73 0 0 1 10 0 1 0 1
0 68 -52 180.9938 0 0 1 10 0 1 0 1
0 68 -43 180.9938 0 0 1 10 0 1 0 1
phys
0 68 -52 73 0 0 1 10 0 1 0 1
0 68 -43 180.9938 0 0 1 10 0 1 0 1
0 68 -43 73 0 0 1 10 0 1 0 1
phys
0 72 -52 184.9938 0 0 1 10 0 1 0 1
0 72 -52 73 0 0 1 10 0 1 0 1
0 72 -43 73 0 0 1 10 0 1 0 1
phys
0 72 -52 184.9938 0 0 1 10 0 1 0 1
0 72 -43 73 0 0 1 10 0 1 0 1
0 72 -43 184.9938 0 0 1 10 0 1 0 1
phys
0 72 -52 73 0 0 1 10 0 1 0 1
0 68 -52 73 0 0 1 10 0 1 0 1
0 68 -43 73 0 0 1 10 0 1 0 1
phys
0 72 -52 73 0 0 1 10 0 1 0 1
0 68 -43 73 0 0 1 10 0 1 0 1
0 72 -43 73 0 0 1 10 0 1 0 1
phys
0 68 -52 180.9938 0 0 1 10 0 1 0 1
0 72 -52 184.9938 0 0 1 10 0 1 0 1
0 72 -43 184.9938 0 0 1 10 0 1 0 1
phys
0 68 -52 180.9938 0 0 1 10 0 1 0 1
0 72 -43 184.9938 0 0 1 10 0 1 0 1
0 68 -43 180.9938 0 0 1 10 0 1 0 1
phys
0 150 45 109 0 0 1 11 0 1 0 1
0 70 45 109 0 0 1 11 0 1 0 1
0 70 53 109 0 0 1 11 0 1 0 1
phys
0 150 45 109 0 0 1 11 0 1 0 1
0 70 53 109 0 0 1 11 0 1 0 1
0 150 53 109 0 0 1 11 0 1 0 1
phys
0 70 45 113 0 0 1 11 0 1 0 1
0 150 45 113 0 0 1 11 0 1 0 1
0 150 53 113 0 0 1 11 0 1 0 1
phys
0 70 45 113 0 0 1 11 0 1 0 1
0 150 53 113 0 0 1 11 0 1 0 1
0 70 53 113 0 0 1 11 0 1 0 1
phys
0 150 53 109 0 0 1 11 0 1 0 1
0 70 53 109 0 0 1 11 0 1 0 1
0 70 53 113 0 0 1 11 0 1 0 1
phys
0 150 53 109 0 0 1 11 0 1 0 1
0 70 53 113 0 0 1 11 0 1 0 1
0 150 53 113 0 0 1 11 0 1 0 1
phys
0 150 45 113 0 0 1 11 0 1 0 1
0 70 45 113 0 0 1 11 0 1 0 1
0 70 45 109 0 0 1 11 0 1 0 1
phys
0 150 45 113 0 0 1 11 0 1 0 1
0 70 45 109 0 0 1 11 0 1 0 1
0 150 45 109 0 0 1 11 0 1 0 1
phys
0 70 45 113 0 0 1 11 0 1 0 1
0 70 53 113 0 0 1 11 0 1 0 1
0 70 53 109 0 0 1 11 0 1 0 1
phys
0 70 45 113 0 0 1 11 0 1 0 1
0 70 53 109 0 0 1 11 0 1 0 1
0 70 45 109 0 0 1 11 0 1 0 1
phys
0 150 45 109 0 0 1 11 0 1 0 1
0 150 53 109 0 0 1 11 0 1 0 1
0 150 53 113 0 0 1 11 0 1 0 1
phys
0 150 45 109 0 0 1 11 0 1 0 1
0 150 53 113 0 0 1 11 0 1 0 1
0 150 45 113 0 0 1 11 0 1 0 1
phys
0 -150 -35 113 0 0 1 12 0 1 0 1
0 -150 -35 73 0 0 1 12 0 1 0 1
0 -158 -35 73 0 0 1 12 0 1 0 1
phys
0 -150 -35 113 0 0 1 12 0 1 0 1
0 -158 -35 73 0 0 1 12 0 1 0 1
0 -158 -35 113 0 0 1 12 0 1 0 1
phys
0 -150 -43 73 0 0 1 12 0 1 0 1
0 -150 -43 113 0 0 1 12 0 1 0 1
0 -158 -43 113 0 0 1 12 0 1 0 1
phys
0 -150 -43 73 0 0 1 12 0 1 0 1
0 -158 -43 113 0 0 1 12 0 1 0 1
0 -158 -43 73 0 0 1 12 0 1 0 1
phys
0 -158 -43 73 0 0 1 12 0 1 0 1
0 -158 -43 113 0 0 1 12 0 1 0 1
0 -158 -35 113 0 0 1 12 0 1 0 1
phys
0 -158 -43 73 0 0 1 12 0 1 0 1
0 -158 -35 113 0 0 1 12 0 1 0 1
0 -158 -35 73 0 0 1 12 0 1 0 1
phys
0 -150 -43 113 0 0 1 12 0 1 0 1
0 -150 -43 73 0 0 1 12 0 1 0 1
0 -150 -35 73 0 0 1 12 0 1 0 1
phys
0 -150 -43 113 0 0 1 12 0 1 0 1
0 -150 -35 73 0 0 1 12 0 1 0 1
0 -150 -35 113 0 0 1 12 0 1 0 1
phys
0 -150 -43 73 0 0 1 12 0 1 0 1
0 -158 -43 73 0 0 1 12 0 1 0 1
0 -158 -35 73 0 0 1 12 0 1 0 1
phys
0 -150 -43 73 0 0 1 12 0 1 0 1
0 -158 -35 73 0 0 1 12 0 1 0 1
0 -150 -35 73 0 0 1 12 0 1 0 1
phys
0 -158 -43 113 0 0 1 12 0 1 0 1
0 -150 -43 113 0 0 1 12 0 1 0 1
0 -150 -35 113 0 0 1 12 0 1 0 1
phys
0 -158 -43 113 0 0 1 12 0 1 0 1
0 -150 -35 113 0 0 1 12 0 1 0 1
0 -158 -35 113 0 0 1 12 0 1 0 1
phys
0 72 -52 185 0 0 1 13 0 1 0 1
0 68 -52 181 0 0 1 13 0 1 0 1
0 68 -43 181 0 0 1 13 0 1 0 1
phys
0 72 -52 185 0 0 1 13 0 1 0 1
0 68 -43 181 0 0 1 13 0 1 0 1
0 72 -43 185 0 0 1 13 0 1 0 1
phys
0 72 -43 185 0 0 1 13 0 1 0 1
0 68 -43 181 0 0 1 13 0 1 0 1
0 20 -43 181 0 0 1 13 0 1 0 1
phys
0 72 -43 185 0 0 1 13 0 1 0 1
0 20 -43 181 0 0 1 13 0 1 0 1
0 16 -43 185 0 0 1 13 0 1 0 1
phys
0 68 -52 181 0 0 1 13 0 1 0 1
0 72 -52 185 0 0 1 13 0 1 0 1
0 16 -52 185 0 0 1 13 0 1 0 1
phys
0 68 -52 181 0 0 1 13 0 1 0 1
0 16 -52 185 0 0 1 13 0 1 0 1
0 20 -52 181 0 0 1 13 0 1 0 1
phys
0 20 -43 181 0 0 1 13 0 1 0 1
0 68 -43 181 0 0 1 13 0 1 0 1
0 68 -52 181 0 0 1 13 0 1 0 1
phys
0 20 -43 181 0 0 1 13 0 1 0 1
0 68 -52 181 0 0 1 13 0 1 0 1
0 20 -52 181 0 0 1 13 0 1 0 1
phys
0 16 -52 185 0 0 1 13 0 1 0 1
0 72 -52 185 0 0 1 13 0 1 0 1
0 72 -43 185 0 0 1 13 0 1 0 1
phys
0 16 -52 185 0 0 1 13 0 1 0 1
0 72 -43 185 0 0 1 13 0 1 0 1
0 16 -43 185 0 0 1 13 0 1 0 1
phys
0 16 -43 185 0 0 1 13 0 1 0 1
0 20 -43 181 0 0 1 13 0 1 0 1
0 20 -52 181 0 0 1 13 0 1 0 1
phys
0 16 -43 185 0 0 1 13 0 1 0 1
0 20 -52 181 0 0 1 13 0 1 0 1
0 16 -52 185 0 0 1 13 0 1 0 1
phys
0 -108 -43 65 0 0 1 14 0 1 0 1
0 -108 45 65 0 0 1 14 0 1 0 1
0 -108 45 57 0 0 1 14 0 1 0 1
phys
0 -108 -43 65 0 0 1 14 0 1 0 1
0 -108 45 57 0 0 1 14 0 1 0 1
0 -108 -33 0 0 0 1 14 0 1 0 1
phys
0 -108 -43 65 0 0 1 14 0 1 0 1
0 -108 -33 0 0 0 1 14 0 1 0 1
0 -108 -43 0 0 0 1 14 0 1 0 1
phys
0 -98 -43 0 0 0 1 14 0 1 0 1
0 -98 -33 0 0 0 1 14 0 1 0 1
0 -98 45 57 0 0 1 14 0 1 0 1
phys
0 -98 -43 0 0 0 1 14 0 1 0 1
0 -98 45 57 0 0 1 14 0 1 0 1
0 -98 45 65 0 0 1 14 0 1 0 1
phys
0 -98 -43 0 0 0 1 14 0 1 0 1
0 -98 45 65 0 0 1 14 0 1 0 1
0 -98 -43 65 0 0 1 14 0 1 0 1
phys
0 -108 -43 0 0 0 1 14 0 1 0 1
0 -108 -33 0 0 0 1 14 0 1 0 1
0 -98 -33 0 0 0 1 14 0 1 0 1
phys
0 -108 -43 0 0 0 1 14 0 1 0 1
0 -98 -33 0 0 0 1 14 0 1 0 1
0 -98 -43 0 0 0 1 14 0 1 0 1
phys
0 -98 -43 65 0 0 1 14 0 1 0 1
0 -98 45 65 0 0 1 14 0 1 0 1
0 -108 45 65 0 0 1 14 0 1 0 1
phys
0 -98 -43 65 0 0 1 14 0 1 0 1
0 -108 45 65 0 0 1 14 0 1 0 1
0 -108 -43 65 0 0 1 14 0 1 0 1
phys
0 -108 -33 0 0 0 1 14 0 1 0 1
0 -108 45 57 0 0 1 14 0 1 0 1
0 -98 45 57 0 0 1 14 0 1 0 1
phys
0 -108 -33 0 0 0 1 14 0 1 0 1
0 -98 45 57 0 0 1 14 0 1 0 1
0 -98 -33 0 0 0 1 14 0 1 0 1
phys
0 -98 45 65 0 0 1 14 0 1 0 1
0 -98 45 57 0 0 1 14 0 1 0 1
0 -108 45 57 0 0 1 14 0 1 0 1
phys
0 -98 45 65 0 0 1 14 0 1 0 1
0 -108 45 57 0 0 1 14 0 1 0 1
0 -108 45 65 0 0 1 14 0 1 0 1
phys
0 -98 -43 0 0 0 1 14 0 1 0 1
0 -98 -43 65 0 0 1 14 0 1 0 1
0 -108 -43 65 0 0 1 14 0 1 0 1
phys
0 -98 -43 0 0 0 1 14 0 1 0 1
0 -108 -43 65 0 0 1 14 0 1 0 1
0 -108 -43 0 0 0 1 14 0 1 0 1
end
