version 1
nodes
0 "root" -1
end
skeleton
time 0
0 0 0 0 0 0 0
end
triangles
phys
0 -93.62 187.71 12.108 0 0 1 1 0 1 0 1
0 -93.62 187.71 0.108 0 0 1 1 0 1 0 1
0 -101.63 187.71 0.108 0 0 1 1 0 1 0 1
phys
0 -93.62 187.71 12.108 0 0 1 1 0 1 0 1
0 -101.63 187.71 0.108 0 0 1 1 0 1 0 1
0 -101.63 187.71 12.108 0 0 1 1 0 1 0 1
phys
0 -93.62 131.71 0.108 0 0 1 1 0 1 0 1
0 -93.62 131.71 12.108 0 0 1 1 0 1 0 1
0 -101.63 131.71 12.108 0 0 1 1 0 1 0 1
phys
0 -93.62 131.71 0.108 0 0 1 1 0 1 0 1
0 -101.63 131.71 12.108 0 0 1 1 0 1 0 1
0 -101.63 131.71 0.108 0 0 1 1 0 1 0 1
phys
0 -101.63 131.71 0.108 0 0 1 1 0 1 0 1
0 -101.63 131.71 12.108 0 0 1 1 0 1 0 1
0 -101.63 187.71 12.108 0 0 1 1 0 1 0 1
phys
0 -101.63 131.71 0.108 0 0 1 1 0 1 0 1
0 -101.63 187.71 12.108 0 0 1 1 0 1 0 1
0 -101.63 187.71 0.108 0 0 1 1 0 1 0 1
phys
0 -93.62 131.71 12.108 0 0 1 1 0 1 0 1
0 -93.62 131.71 0.108 0 0 1 1 0 1 0 1
0 -93.62 187.71 0.108 0 0 1 1 0 1 0 1
phys
0 -93.62 131.71 12.108 0 0 1 1 0 1 0 1
0 -93.62 187.71 0.108 0 0 1 1 0 1 0 1
0 -93.62 187.71 12.108 0 0 1 1 0 1 0 1
phys
0 -93.62 131.71 0.108 0 0 1 1 0 1 0 1
0 -101.63 131.71 0.108 0 0 1 1 0 1 0 1
0 -101.63 187.71 0.108 0 0 1 1 0 1 0 1
phys
0 -93.62 131.71 0.108 0 0 1 1 0 1 0 1
0 -101.63 187.71 0.108 0 0 1 1 0 1 0 1
0 -93.62 187.71 0.108 0 0 1 1 0 1 0 1
phys
0 -101.63 131.71 12.108 0 0 1 1 0 1 0 1
0 -93.62 131.71 12.108 0 0 1 1 0 1 0 1
0 -93.62 187.71 12.108 0 0 1 1 0 1 0 1
phys
0 -101.63 131.71 12.108 0 0 1 1 0 1 0 1
0 -93.62 187.71 12.108 0 0 1 1 0 1 0 1
0 -101.63 187.71 12.108 0 0 1 1 0 1 0 1
phys
0 242.37 -208.29 0.108 0 0 1 2 0 1 0 1
0 242.37 -200.29 0.108 0 0 1 2 0 1 0 1
0 242.37 -200.29 20.106 0 0 1 2 0 1 0 1
phys
0 242.37 -208.29 0.108 0 0 1 2 0 1 0 1
0 242.37 -200.29 20.106 0 0 1 2 0 1 0 1
0 242.37 -208.29 20.106 0 0 1 2 0 1 0 1
phys
0 -237.63 -200.29 0.108 0 0 1 2 0 1 0 1
0 242.37 -200.29 0.108 0 0 1 2 0 1 0 1
0 242.37 -208.29 0.108 0 0 1 2 0 1 0 1
phys
0 -237.63 -200.29 0.108 0 0 1 2 0 1 0 1
0 242.37 -208.29 0.108 0 0 1 2 0 1 0 1
0 -237.63 -208.29 0.108 0 0 1 2 0 1 0 1
phys
0 -237.63 -208.29 20.106 0 0 1 2 0 1 0 1
0 242.37 -208.29 20.106 0 0 1 2 0 1 0 1
0 242.37 -200.29 20.106 0 0 1 2 0 1 0 1
phys
0 -237.63 -208.29 20.106 0 0 1 2 0 1 0 1
0 242.37 -200.29 20.106 0 0 1 2 0 1 0 1
0 -237.63 -200.29 20.106 0 0 1 2 0 1 0 1
phys
0 242.37 -200.29 20.106 0 0 1 2 0 1 0 1
0 242.37 -200.29 0.108 0 0 1 2 0 1 0 1
0 -237.63 -200.29 0.108 0 0 1 2 0 1 0 1
phys
0 242.37 -200.29 20.106 0 0 1 2 0 1 0 1
0 -237.63 -200.29 0.108 0 0 1 2 0 1 0 1
0 -237.63 -200.29 20.106 0 0 1 2 0 1 0 1
phys
0 242.37 -208.29 0.108 0 0 1 2 0 1 0 1
0 242.37 -208.29 20.106 0 0 1 2 0 1 0 1
0 -237.63 -208.29 20.106 0 0 1 2 0 1 0 1
phys
0 242.37 -208.29 0.108 0 0 1 2 0 1 0 1
0 -237.63 -208.29 20.106 0 0 1 2 0 1 0 1
0 -237.63 -208.29 0.108 0 0 1 2 0 1 0 1
phys
0 -237.63 -208.29 20.106 0 0 1 2 0 1 0 1
0 -237.63 -200.29 20.106 0 0 1 2 0 1 0 1
0 -237.63 -200.29 0.108 0 0 1 2 0 1 0 1
phys
0 -237.63 -208.29 20.106 0 0 1 2 0 1 0 1
0 -237.63 -200.29 0.108 0 0 1 2 0 1 0 1
0 -237.63 -208.29 0.108 0 0 1 2 0 1 0 1
phys
0 -201.63 -16.004324 132.11 0 0 1 3 0 1 0 1
0 -241.63 -16.29 132.11 0 0 1 3 0 1 0 1
0 -241.63 -79.85 132.11 0 0 1 3 0 1 0 1
phys
0 -201.63 -16.004324 132.11 0 0 1 3 0 1 0 1
0 -241.63 -79.85 132.11 0 0 1 3 0 1 0 1
0 -201.63 -80.29 132.11 0 0 1 3 0 1 0 1
phys
0 -241.63 -16.29 132.11 0 0 1 3 0 1 0 1
0 -201.63 -16.004324 132.11 0 0 1 3 0 1 0 1
0 -201.63 -8.29 60.109 0 0 1 3 0 1 0 1
phys
0 -241.63 -16.29 132.11 0 0 1 3 0 1 0 1
0 -201.63 -8.29 60.109 0 0 1 3 0 1 0 1
0 -241.63 -4.29 20.109 0 0 1 3 0 1 0 1
phys
0 -241.63 -92.29 20.109 0 0 1 3 0 1 0 1
0 -201.63 -88.287183 60.109 0 0 1 3 0 1 0 1
0 -201.63 -80.29 132.11 0 0 1 3 0 1 0 1
phys
0 -241.63 -92.29 20.109 0 0 1 3 0 1 0 1
0 -201.63 -80.29 132.11 0 0 1 3 0 1 0 1
0 -241.63 -79.85 132.11 0 0 1 3 0 1 0 1
phys
0 -241.63 -4.29 20.109 0 0 1 3 0 1 0 1
0 -201.63 -8.29 60.109 0 0 1 3 0 1 0 1
0 -201.63 -88.287183 60.109 0 0 1 3 0 1 0 1
phys
0 -241.63 -4.29 20.109 0 0 1 3 0 1 0 1
0 -201.63 -88.287183 60.109 0 0 1 3 0 1 0 1
0 -241.63 -92.29 20.109 0 0 1 3 0 1 0 1
phys
0 -241.63 -92.29 20.109 0 0 1 3 0 1 0 1
0 -241.63 -79.85 132.11 0 0 1 3 0 1 0 1
0 -241.63 -16.29 132.11 0 0 1 3 0 1 0 1
phys
0 -241.63 -92.29 20.109 0 0 1 3 0 1 0 1
0 -241.63 -16.29 132.11 0 0 1 3 0 1 0 1
0 -241.63 -4.29 20.109 0 0 1 3 0 1 0 1
phys
0 -201.63 -8.29 60.109 0 0 1 3 0 1 0 1
0 -201.63 -16.004324 132.11 0 0 1 3 0 1 0 1
0 -201.63 -80.29 132.11 0 0 1 3 0 1 0 1
phys
0 -201.63 -8.29 60.109 0 0 1 3 0 1 0 1
0 -201.63 -80.29 132.11 0 0 1 3 0 1 0 1
0 -201.63 -88.287183 60.109 0 0 1 3 0 1 0 1
phys
0 -109.63 -200.29 148.108 0 0 1 4 0 1 0 1
0 -109.63 -200.29 20.106 0 0 1 4 0 1 0 1
0 -237.63 -200.29 20.106 0 0 1 4 0 1 0 1
phys
0 -109.63 -208.29 20.106 0 0 1 4 0 1 0 1
0 -109.63 -208.29 148.108 0 0 1 4 0 1 0 1
0 -237.63 -208.29 20.106 0 0 1 4 0 1 0 1
phys
0 -109.63 -208.29 148.108 0 0 1 4 0 1 0 1
0 -109.63 -208.29 20.106 0 0 1 4 0 1 0 1
0 -109.63 -200.29 20.106 0 0 1 4 0 1 0 1
phys
0 -109.63 -208.29 148.108 0 0 1 4 0 1 0 1
0 -109.63 -200.29 20.106 0 0 1 4 0 1 0 1
0 -109.63 -200.29 148.108 0 0 1 4 0 1 0 1
phys
0 -109.63 -208.29 20.106 0 0 1 4 0 1 0 1
0 -237.63 -208.29 20.106 0 0 1 4 0 1 0 1
0 -237.63 -200.29 20.106 0 0 1 4 0 1 0 1
phys
0 -109.63 -208.29 20.106 0 0 1 4 0 1 0 1
0 -237.63 -200.29 20.106 0 0 1 4 0 1 0 1
0 -109.63 -200.29 20.106 0 0 1 4 0 1 0 1
phys
0 -237.63 -208.29 20.106 0 0 1 4 0 1 0 1
0 -109.63 -208.29 148.108 0 0 1 4 0 1 0 1
0 -109.63 -200.29 148.108 0 0 1 4 0 1 0 1
phys
0 -237.63 -208.29 20.106 0 0 1 4 0 1 0 1
0 -109.63 -200.29 148.108 0 0 1 4 0 1 0 1
0 -237.63 -200.29 20.106 0 0 1 4 0 1 0 1
phys
0 66.37 -200.29 148.11 0 0 1 5 0 1 0 1
0 66.37 -200.29 20.106 0 0 1 5 0 1 0 1
0 34.37 -200.29 20.106 0 0 1 5 0 1 0 1
phys
0 66.37 -200.29 148.11 0 0 1 5 0 1 0 1
0 34.37 -200.29 20.106 0 0 1 5 0 1 0 1
0 34.37 -200.29 148.11 0 0 1 5 0 1 0 1
phys
0 66.37 -208.29 20.106 0 0 1 5 0 1 0 1
0 66.37 -208.29 148.11 0 0 1 5 0 1 0 1
0 34.37 -208.29 148.11 0 0 1 5 0 1 0 1
phys
0 66.37 -208.29 20.106 0 0 1 5 0 1 0 1
0 34.37 -208.29 148.11 0 0 1 5 0 1 0 1
0 34.37 -208.29 20.106 0 0 1 5 0 1 0 1
phys
0 34.37 -208.29 20.106 0 0 1 5 0 1 0 1
0 34.37 -208.29 148.11 0 0 1 5 0 1 0 1
0 34.37 -200.29 148.11 0 0 1 5 0 1 0 1
phys
0 34.37 -208.29 20.106 0 0 1 5 0 1 0 1
0 34.37 -200.29 148.11 0 0 1 5 0 1 0 1
0 34.37 -200.29 20.106 0 0 1 5 0 1 0 1
phys
0 66.37 -208.29 148.11 0 0 1 5 0 1 0 1
0 66.37 -208.29 20.106 0 0 1 5 0 1 0 1
0 66.37 -200.29 20.106 0 0 1 5 0 1 0 1
phys
0 66.37 -208.29 148.11 0 0 1 5 0 1 0 1
0 66.37 -200.29 20.106 0 0 1 5 0 1 0 1
0 66.37 -200.29 148.11 0 0 1 5 0 1 0 1
phys
0 66.37 -208.29 20.106 0 0 1 5 0 1 0 1
0 34.37 -208.29 20.106 0 0 1 5 0 1 0 1
0 34.37 -200.29 20.106 0 0 1 5 0 1 0 1
phys
0 66.37 -208.29 20.106 0 0 1 5 0 1 0 1
0 34.37 -200.29 20.106 0 0 1 5 0 1 0 1
0 66.37 -200.29 20.106 0 0 1 5 0 1 0 1
phys
0 34.37 -208.29 148.11 0 0 1 5 0 1 0 1
0 66.37 -208.29 148.11 0 0 1 5 0 1 0 1
0 66.37 -200.29 148.11 0 0 1 5 0 1 0 1
phys
0 34.37 -208.29 148.11 0 0 1 5 0 1 0 1
0 66.37 -200.29 148.11 0 0 1 5 0 1 0 1
0 34.37 -200.29 148.11 0 0 1 5 0 1 0 1
phys
0 -29.63 -200.29 148.11 0 0 1 6 0 1 0 1
0 -29.63 -200.29 20.106 0 0 1 6 0 1 0 1
0 -61.63 -200.29 20.106 0 0 1 6 0 1 0 1
phys
0 -29.63 -200.29 148.11 0 0 1 6 0 1 0 1
0 -61.63 -200.29 20.106 0 0 1 6 0 1 0 1
0 -61.63 -200.29 148.11 0 0 1 6 0 1 0 1
phys
0 -29.63 -208.29 20.106 0 0 1 6 0 1 0 1
0 -29.63 -208.29 148.11 0 0 1 6 0 1 0 1
0 -61.63 -208.29 148.11 0 0 1 6 0 1 0 1
phys
0 -29.63 -208.29 20.106 0 0 1 6 0 1 0 1
0 -61.63 -208.29 148.11 0 0 1 6 0 1 0 1
0 -61.63 -208.29 20.106 0 0 1 6 0 1 0 1
phys
0 -61.63 -208.29 20.106 0 0 1 6 0 1 0 1
0 -61.63 -208.29 148.11 0 0 1 6 0 1 0 1
0 -61.63 -200.29 148.11 0 0 1 6 0 1 0 1
phys
0 -61.63 -208.29 20.106 0 0 1 6 0 1 0 1
0 -61.63 -200.29 148.11 0 0 1 6 0 1 0 1
0 -61.63 -200.29 20.106 0 0 1 6 0 1 0 1
phys
0 -29.63 -208.29 148.11 0 0 1 6 0 1 0 1
0 -29.63 -208.29 20.106 0 0 1 6 0 1 0 1
0 -29.63 -200.29 20.106 0 0 1 6 0 1 0 1
phys
0 -29.63 -208.29 148.11 0 0 1 6 0 1 0 1
0 -29.63 -200.29 20.106 0 0 1 6 0 1 0 1
0 -29.63 -200.29 148.11 0 0 1 6 0 1 0 1
phys
0 -29.63 -208.29 20.106 0 0 1 6 0 1 0 1
0 -61.63 -208.29 20.106 0 0 1 6 0 1 0 1
0 -61.63 -200.29 20.106 0 0 1 6 0 1 0 1
phys
0 -29.63 -208.29 20.106 0 0 1 6 0 1 0 1
0 -61.63 -200.29 20.106 0 0 1 6 0 1 0 1
0 -29.63 -200.29 20.106 0 0 1 6 0 1 0 1
phys
0 -61.63 -208.29 148.11 0 0 1 6 0 1 0 1
0 -29.63 -208.29 148.11 0 0 1 6 0 1 0 1
0 -29.63 -200.29 148.11 0 0 1 6 0 1 0 1
phys
0 -61.63 -208.29 148.11 0 0 1 6 0 1 0 1
0 -29.63 -200.29 148.11 0 0 1 6 0 1 0 1
0 -61.63 -200.29 148.11 0 0 1 6 0 1 0 1
phys
0 -241.63 -72.29 244.11 0 0 1 7 0 1 0 1
0 -241.63 -24.29 244.11 0 0 1 7 0 1 0 1
0 -241.63 -16.29 132.11 0 0 1 7 0 1 0 1
phys
0 -241.63 -72.29 244.11 0 0 1 7 0 1 0 1
0 -241.63 -16.29 132.11 0 0 1 7 0 1 0 1
0 -241.63 -80.29 132.11 0 0 1 7 0 1 0 1
phys
0 -201.63 -80.29 132.11 0 0 1 7 0 1 0 1
0 -201.63 -16.29 132.11 0 0 1 7 0 1 0 1
0 -201.63 -24.29 244.11 0 0 1 7 0 1 0 1
phys
0 -201.63 -80.29 132.11 0 0 1 7 0 1 0 1
0 -201.63 -24.29 244.11 0 0 1 7 0 1 0 1
0 -201.63 -72.29 244.11 0 0 1 7 0 1 0 1
phys
0 -241.63 -80.29 132.11 0 0 1 7 0 1 0 1
0 -241.63 -16.29 132.11 0 0 1 7 0 1 0 1
0 -201.63 -16.29 132.11 0 0 1 7 0 1 0 1
phys
0 -241.63 -80.29 132.11 0 0 1 7 0 1 0 1
0 -201.63 -16.29 132.11 0 0 1 7 0 1 0 1
0 -201.63 -80.29 132.11 0 0 1 7 0 1 0 1
phys
0 -201.63 -72.29 244.11 0 0 1 7 0 1 0 1
0 -201.63 -24.29 244.11 0 0 1 7 0 1 0 1
0 -241.63 -24.29 244.11 0 0 1 7 0 1 0 1
phys
0 -201.63 -72.29 244.11 0 0 1 7 0 1 0 1
0 -241.63 -24.29 244.11 0 0 1 7 0 1 0 1
0 -241.63 -72.29 244.11 0 0 1 7 0 1 0 1
phys
0 -201.63 -80.29 132.11 0 0 1 7 0 1 0 1
0 -201.63 -72.29 244.11 0 0 1 7 0 1 0 1
0 -241.63 -72.29 244.11 0 0 1 7 0 1 0 1
phys
0 -201.63 -80.29 132.11 0 0 1 7 0 1 0 1
0 -241.63 -72.29 244.11 0 0 1 7 0 1 0 1
0 -241.63 -80.29 132.11 0 0 1 7 0 1 0 1
phys
0 -201.63 -24.29 244.11 0 0 1 7 0 1 0 1
0 -201.63 -16.29 132.11 0 0 1 7 0 1 0 1
0 -241.63 -16.29 132.11 0 0 1 7 0 1 0 1
phys
0 -201.63 -24.29 244.11 0 0 1 7 0 1 0 1
0 -241.63 -16.29 132.11 0 0 1 7 0 1 0 1
0 -241.63 -24.29 244.11 0 0 1 7 0 1 0 1
phys
0 -237.63 47.71 20.106 0 0 1 8 0 1 0 1
0 -237.63 111.71 20.106 0 0 1 8 0 1 0 1
0 -237.63 111.71 12.108 0 0 1 8 0 1 0 1
phys
0 -237.63 47.71 20.106 0 0 1 8 0 1 0 1
0 -237.63 111.71 12.108 0 0 1 8 0 1 0 1
0 -237.63 47.71 12.108 0 0 1 8 0 1 0 1
phys
0 242.37 47.71 12.108 0 0 1 8 0 1 0 1
0 242.37 111.71 12.108 0 0 1 8 0 1 0 1
0 242.37 111.71 20.106 0 0 1 8 0 1 0 1
phys
0 242.37 47.71 12.108 0 0 1 8 0 1 0 1
0 242.37 111.71 20.106 0 0 1 8 0 1 0 1
0 242.37 47.71 20.106 0 0 1 8 0 1 0 1
phys
0 -237.63 47.71 12.108 0 0 1 8 0 1 0 1
0 -237.63 111.71 12.108 0 0 1 8 0 1 0 1
0 242.37 111.71 12.108 0 0 1 8 0 1 0 1
phys
0 -237.63 47.71 12.108 0 0 1 8 0 1 0 1
0 242.37 111.71 12.108 0 0 1 8 0 1 0 1
0 242.37 47.71 12.108 0 0 1 8 0 1 0 1
phys
0 242.37 47.71 20.106 0 0 1 8 0 1 0 1
0 242.37 111.71 20.106 0 0 1 8 0 1 0 1
0 -237.63 111.71 20.106 0 0 1 8 0 1 0 1
phys
0 242.37 47.71 20.106 0 0 1 8 0 1 0 1
0 -237.63 111.71 20.106 0 0 1 8 0 1 0 1
0 -237.63 47.71 20.106 0 0 1 8 0 1 0 1
phys
0 242.37 111.71 20.106 0 0 1 8 0 1 0 1
0 242.37 111.71 12.108 0 0 1 8 0 1 0 1
0 -237.63 111.71 12.108 0 0 1 8 0 1 0 1
phys
0 242.37 111.71 20.106 0 0 1 8 0 1 0 1
0 -237.63 111.71 12.108 0 0 1 8 0 1 0 1
0 -237.63 111.71 20.106 0 0 1 8 0 1 0 1
phys
0 242.37 47.71 12.108 0 0 1 8 0 1 0 1
0 242.37 47.71 20.106 0 0 1 8 0 1 0 1
0 -237.63 47.71 20.106 0 0 1 8 0 1 0 1
phys
0 242.37 47.71 12.108 0 0 1 8 0 1 0 1
0 -237.63 47.71 20.106 0 0 1 8 0 1 0 1
0 -237.63 47.71 12.108 0 0 1 8 0 1 0 1
phys
0 114.37 -200.29 148.11 0 0 1 9 0 1 0 1
0 2.37 -200.29 260.11 0 0 1 9 0 1 0 1
0 2.37 -208.29 260.11 0 0 1 9 0 1 0 1
phys
0 114.37 -200.29 148.11 0 0 1 9 0 1 0 1
0 2.37 -208.29 260.11 0 0 1 9 0 1 0 1
0 114.37 -208.29 148.11 0 0 1 9 0 1 0 1
phys
0 -109.63 -208.29 148.11 0 0 1 9 0 1 0 1
0 2.37 -208.29 260.11 0 0 1 9 0 1 0 1
0 2.37 -200.29 260.11 0 0 1 9 0 1 0 1
phys
0 -109.63 -208.29 148.11 0 0 1 9 0 1 0 1
0 2.37 -200.29 260.11 0 0 1 9 0 1 0 1
0 -109.63 -200.29 148.11 0 0 1 9 0 1 0 1
phys
0 2.37 -200.29 260.11 0 0 1 9 0 1 0 1
0 114.37 -200.29 148.11 0 0 1 9 0 1 0 1
0 -109.63 -200.29 148.11 0 0 1 9 0 1 0 1
phys
0 114.37 -208.29 148.11 0 0 1 9 0 1 0 1
0 2.37 -208.29 260.11 0 0 1 9 0 1 0 1
0 -109.63 -208.29 148.11 0 0 1 9 0 1 0 1
phys
0 -109.63 -208.29 148.11 0 0 1 9 0 1 0 1
0 -109.63 -200.29 148.11 0 0 1 9 0 1 0 1
0 114.37 -200.29 148.11 0 0 1 9 0 1 0 1
phys
0 -109.63 -208.29 148.11 0 0 1 9 0 1 0 1
0 114.37 -200.29 148.11 0 0 1 9 0 1 0 1
0 114.37 -208.29 148.11 0 0 1 9 0 1 0 1
phys
0 2.37 207.71 20.106 0 0 1 10 0 1 0 1
0 2.37 207.71 12.108 0 0 1 10 0 1 0 1
0 -93.62 207.71 12.108 0 0 1 10 0 1 0 1
phys
0 2.37 207.71 20.106 0 0 1 10 0 1 0 1
0 -93.62 207.71 12.108 0 0 1 10 0 1 0 1
0 -93.62 207.71 20.106 0 0 1 10 0 1 0 1
phys
0 2.37 111.71 12.108 0 0 1 10 0 1 0 1
0 2.37 111.71 20.106 0 0 1 10 0 1 0 1
0 -93.62 111.71 20.106 0 0 1 10 0 1 0 1
phys
0 2.37 111.71 12.108 0 0 1 10 0 1 0 1
0 -93.62 111.71 20.106 0 0 1 10 0 1 0 1
0 -93.62 111.71 12.108 0 0 1 10 0 1 0 1
phys
0 -93.62 111.71 12.108 0 0 1 10 0 1 0 1
0 -93.62 111.71 20.106 0 0 1 10 0 1 0 1
0 -93.62 207.71 20.106 0 0 1 10 0 1 0 1
phys
0 -93.62 111.71 12.108 0 0 1 10 0 1 0 1
0 -93.62 207.71 20.106 0 0 1 10 0 1 0 1
0 -93.62 207.71 12.108 0 0 1 10 0 1 0 1
phys
0 2.37 111.71 20.106 0 0 1 10 0 1 0 1
0 2.37 111.71 12.108 0 0 1 10 0 1 0 1
0 2.37 207.71 12.108 0 0 1 10 0 1 0 1
phys
0 2.37 111.71 20.106 0 0 1 10 0 1 0 1
0 2.37 207.71 12.108 0 0 1 10 0 1 0 1
0 2.37 207.71 20.106 0 0 1 10 0 1 0 1
phys
0 2.37 111.71 12.108 0 0 1 10 0 1 0 1
0 -93.62 111.71 12.108 0 0 1 10 0 1 0 1
0 -93.62 207.71 12.108 0 0 1 10 0 1 0 1
phys
0 2.37 111.71 12.108 0 0 1 10 0 1 0 1
0 -93.62 207.71 12.108 0 0 1 10 0 1 0 1
0 2.37 207.71 12.108 0 0 1 10 0 1 0 1
phys
0 -93.62 111.71 20.106 0 0 1 10 0 1 0 1
0 2.37 111.71 20.106 0 0 1 10 0 1 0 1
0 2.37 207.71 20.106 0 0 1 10 0 1 0 1
phys
0 -93.62 111.71 20.106 0 0 1 10 0 1 0 1
0 2.37 207.71 20.106 0 0 1 10 0 1 0 1
0 -93.62 207.71 20.106 0 0 1 10 0 1 0 1
phys
0 10.37 187.71 12.108 0 0 1 11 0 1 0 1
0 10.37 187.71 0.108 0 0 1 11 0 1 0 1
0 2.37 187.71 0.108 0 0 1 11 0 1 0 1
phys
0 10.37 187.71 12.108 0 0 1 11 0 1 0 1
0 2.37 187.71 0.108 0 0 1 11 0 1 0 1
0 2.37 187.71 12.108 0 0 1 11 0 1 0 1
phys
0 10.37 131.71 0.108 0 0 1 11 0 1 0 1
0 10.37 131.71 12.108 0 0 1 11 0 1 0 1
0 2.37 131.71 12.108 0 0 1 11 0 1 0 1
phys
0 10.37 131.71 0.108 0 0 1 11 0 1 0 1
0 2.37 131.71 12.108 0 0 1 11 0 1 0 1
0 2.37 131.71 0.108 0 0 1 11 0 1 0 1
phys
0 2.37 131.71 0.108 0 0 1 11 0 1 0 1
0 2.37 131.71 12.108 0 0 1 11 0 1 0 1
0 2.37 187.71 12.108 0 0 1 11 0 1 0 1
phys
0 2.37 131.71 0.108 0 0 1 11 0 1 0 1
0 2.37 187.71 12.108 0 0 1 11 0 1 0 1
0 2.37 187.71 0.108 0 0 1 11 0 1 0 1
phys
0 10.37 131.71 12.108 0 0 1 11 0 1 0 1
0 10.37 131.71 0.108 0 0 1 11 0 1 0 1
0 10.37 187.71 0.108 0 0 1 11 0 1 0 1
phys
0 10.37 131.71 12.108 0 0 1 11 0 1 0 1
0 10.37 187.71 0.108 0 0 1 11 0 1 0 1
0 10.37 187.71 12.108 0 0 1 11 0 1 0 1
phys
0 10.37 131.71 0.108 0 0 1 11 0 1 0 1
0 2.37 131.71 0.108 0 0 1 11 0 1 0 1
0 2.37 187.71 0.108 0 0 1 11 0 1 0 1
phys
0 10.37 131.71 0.108 0 0 1 11 0 1 0 1
0 2.37 187.71 0.108 0 0 1 11 0 1 0 1
0 10.37 187.71 0.108 0 0 1 11 0 1 0 1
phys
0 2.37 131.71 12.108 0 0 1 11 0 1 0 1
0 10.37 131.71 12.108 0 0 1 11 0 1 0 1
0 10.37 187.71 12.108 0 0 1 11 0 1 0 1
phys
0 2.37 131.71 12.108 0 0 1 11 0 1 0 1
0 10.37 187.71 12.108 0 0 1 11 0 1 0 1
0 2.37 187.71 12.108 0 0 1 11 0 1 0 1
end
