version 1
nodes
0 "root" -1
end
skeleton
time 0
0 0 0 0 0 0 0
end
triangles
rp_downtown_plaster_wall13
0 -101.63 131.71 0.108 -1 0 0 28.269844 -2.905406 1 0 1
0 -101.63 131.71 12.108 -1 0 0 28.269844 -2.811656 1 0 1
0 -101.63 187.71 12.108 -1 0 0 27.832344 -2.811656 1 0 1
rp_downtown_plaster_wall13
0 -101.63 131.71 0.108 -1 0 0 28.269844 -2.905406 1 0 1
0 -101.63 187.71 12.108 -1 0 0 27.832344 -2.811656 1 0 1
0 -101.63 187.71 0.108 -1 0 0 27.832344 -2.905406 1 0 1
brush_hick_wall_int_wall_motel_room
0 -93.62 131.71 12.108 1 0 0 28.269844 -2.811656 1 0 1
0 -93.62 131.71 0.108 1 0 0 28.269844 -2.905406 1 0 1
0 -93.62 187.71 0.108 1 0 0 27.832344 -2.905406 1 0 1
brush_hick_wall_int_wall_motel_room
0 -93.62 131.71 12.108 1 0 0 28.269844 -2.811656 1 0 1
0 -93.62 187.71 0.108 1 0 0 27.832344 -2.905406 1 0 1
0 -93.62 187.71 12.108 1 0 0 27.832344 -2.811656 1 0 1
wood_woodwall_016
0 242.37 -200.29 20.106 0 1 0 5.559063 -2.147747 1 0 1
0 242.37 -200.29 0.108 0 1 0 5.559063 -2.277943 1 0 1
0 -237.63 -200.29 0.108 0 1 0 3.684063 -2.277943 1 0 1
wood_woodwall_016
0 242.37 -200.29 20.106 0 1 0 5.559063 -2.147747 1 0 1
0 -237.63 -200.29 0.108 0 1 0 3.684063 -2.277943 1 0 1
0 -237.63 -200.29 20.106 0 1 0 3.684062 -2.147747 1 0 1
realworldtextures2_wood_wood_19
0 242.37 -208.29 0.108 0 -1 0 12.659141 -2.952281 1 0 1
0 242.37 -208.29 20.106 0 -1 0 12.659141 -2.796047 1 0 1
0 -237.63 -208.29 20.106 0 -1 0 8.909141 -2.796047 1 0 1
realworldtextures2_wood_wood_19
0 242.37 -208.29 0.108 0 -1 0 12.659141 -2.952281 1 0 1
0 -237.63 -208.29 20.106 0 -1 0 8.909141 -2.796047 1 0 1
0 -237.63 -208.29 0.108 0 -1 0 8.909141 -2.952281 1 0 1
stone_stone_wall_001
0 -241.63 -16.29 132.11 -0.007101 0.994284 0.106529 9.303672 -1.487422 1 0 1
0 -201.63 -16.004324 132.11 -0.007101 0.994284 0.106529 9.616172 -1.487422 1 0 1
0 -201.63 -8.29 60.109 -0.007101 0.994284 0.106529 9.616172 -2.04993 1 0 1
stone_stone_wall_001
0 -241.63 -16.29 132.11 -0.007101 0.994284 0.106529 9.303672 -1.487422 1 0 1
0 -201.63 -8.29 60.109 -0.007101 0.994284 0.106529 9.616172 -2.04993 1 0 1
0 -241.63 -4.29 20.109 -0.007101 0.994284 0.106529 9.303672 -2.36243 1 0 1
stone_stone_wall_001
0 -241.63 -92.29 20.109 -0.010932 -0.993829 0.110385 8.709922 -2.128055 1 0 1
0 -201.63 -88.287183 60.109 -0.010932 -0.993829 0.110385 9.022422 -1.815555 1 0 1
0 -201.63 -80.29 132.11 -0.010932 -0.993829 0.110385 9.022422 -1.253047 1 0 1
stone_stone_wall_001
0 -241.63 -92.29 20.109 -0.010932 -0.993829 0.110385 8.709922 -2.128055 1 0 1
0 -201.63 -80.29 132.11 -0.010932 -0.993829 0.110385 9.022422 -1.253047 1 0 1
0 -241.63 -79.85 132.11 -0.010932 -0.993829 0.110385 8.709922 -1.253047 1 0 1
stone_stone_wall_001
0 -241.63 -92.29 20.109 -1 0 0 30.359687 -2.124148 1 0 1
0 -241.63 -79.85 132.11 -1 0 0 30.2625 -1.249141 1 0 1
0 -241.63 -16.29 132.11 -1 0 0 29.765938 -1.249141 1 0 1
stone_stone_wall_001
0 -241.63 -92.29 20.109 -1 0 0 30.359687 -2.124148 1 0 1
0 -241.63 -16.29 132.11 -1 0 0 29.765938 -1.249141 1 0 1
0 -241.63 -4.29 20.109 -1 0 0 29.672188 -2.124148 1 0 1
stone_stone_wall_001
0 -201.63 -8.29 60.109 1 0 0 30.888984 -2.655398 1 0 1
0 -201.63 -16.004324 132.11 1 0 0 30.949253 -2.092891 1 0 1
0 -201.63 -80.29 132.11 1 0 0 31.451484 -2.092891 1 0 1
stone_stone_wall_001
0 -201.63 -8.29 60.109 1 0 0 30.888984 -2.655398 1 0 1
0 -201.63 -80.29 132.11 1 0 0 31.451484 -2.092891 1 0 1
0 -201.63 -88.287183 60.109 1 0 0 31.513962 -2.655398 1 0 1
wood_woodwall_016
0 -109.63 -200.29 148.108 0 1 0 4.184063 -1.314401 1 0 1
0 -109.63 -200.29 20.106 0 1 0 4.184063 -2.147747 1 0 1
0 -237.63 -200.29 20.106 0 1 0 3.684063 -2.147747 1 0 1
realworldtextures2_wood_wood_19
0 -109.63 -208.29 20.106 0 -1 0 9.909141 -2.796047 1 0 1
0 -109.63 -208.29 148.108 0 -1 0 9.909141 -1.796031 1 0 1
0 -237.63 -208.29 20.106 0 -1 0 8.909141 -2.796047 1 0 1
wood_woodwall_016
0 66.37 -200.29 148.11 0 1 0 4.871563 -1.314388 1 0 1
0 66.37 -200.29 20.106 0 1 0 4.871563 -2.147747 1 0 1
0 34.37 -200.29 20.106 0 1 0 4.746563 -2.147747 1 0 1
wood_woodwall_016
0 66.37 -200.29 148.11 0 1 0 4.871563 -1.314388 1 0 1
0 34.37 -200.29 20.106 0 1 0 4.746563 -2.147747 1 0 1
0 34.37 -200.29 148.11 0 1 0 4.746563 -1.314388 1 0 1
realworldtextures2_wood_wood_19
0 66.37 -208.29 20.106 0 -1 0 11.284141 -2.796047 1 0 1
0 66.37 -208.29 148.11 0 -1 0 11.284141 -1.796016 1 0 1
0 34.37 -208.29 148.11 0 -1 0 11.034141 -1.796016 1 0 1
realworldtextures2_wood_wood_19
0 66.37 -208.29 20.106 0 -1 0 11.284141 -2.796047 1 0 1
0 34.37 -208.29 148.11 0 -1 0 11.034141 -1.796016 1 0 1
0 34.37 -208.29 20.106 0 -1 0 11.034141 -2.796047 1 0 1
wood_woodwall_016
0 -29.63 -200.29 148.11 0 1 0 4.496563 -1.314388 1 0 1
0 -29.63 -200.29 20.106 0 1 0 4.496563 -2.147747 1 0 1
0 -61.63 -200.29 20.106 0 1 0 4.371563 -2.147747 1 0 1
wood_woodwall_016
0 -29.63 -200.29 148.11 0 1 0 4.496563 -1.314388 1 0 1
0 -61.63 -200.29 20.106 0 1 0 4.371563 -2.147747 1 0 1
0 -61.63 -200.29 148.11 0 1 0 4.371563 -1.314388 1 0 1
realworldtextures2_wood_wood_19
0 -29.63 -208.29 20.106 0 -1 0 10.534141 -2.796047 1 0 1
0 -29.63 -208.29 148.11 0 -1 0 10.534141 -1.796016 1 0 1
0 -61.63 -208.29 148.11 0 -1 0 10.284141 -1.796016 1 0 1
realworldtextures2_wood_wood_19
0 -29.63 -208.29 20.106 0 -1 0 10.534141 -2.796047 1 0 1
0 -61.63 -208.29 148.11 0 -1 0 10.284141 -1.796016 1 0 1
0 -61.63 -208.29 20.106 0 -1 0 10.284141 -2.796047 1 0 1
stone_stone_wall_001
0 -241.63 -72.29 244.11 -1 0 0 30.203438 -0.374141 1 0 1
0 -241.63 -24.29 244.11 -1 0 0 29.828438 -0.374141 1 0 1
0 -241.63 -16.29 132.11 -1 0 0 29.765937 -1.249141 1 0 1
stone_stone_wall_001
0 -241.63 -72.29 244.11 -1 0 0 30.203438 -0.374141 1 0 1
0 -241.63 -16.29 132.11 -1 0 0 29.765937 -1.249141 1 0 1
0 -241.63 -80.29 132.11 -1 0 0 30.265937 -1.249141 1 0 1
stone_stone_wall_001
0 -201.63 -80.29 132.11 1 0 0 31.451484 -2.092891 1 0 1
0 -201.63 -16.29 132.11 1 0 0 30.951484 -2.092891 1 0 1
0 -201.63 -24.29 244.11 1 0 0 31.013984 -1.217891 1 0 1
stone_stone_wall_001
0 -201.63 -80.29 132.11 1 0 0 31.451484 -2.092891 1 0 1
0 -201.63 -24.29 244.11 1 0 0 31.013984 -1.217891 1 0 1
0 -201.63 -72.29 244.11 1 0 0 31.388984 -1.217891 1 0 1
stone_stone_wall_001
0 -201.63 -72.29 244.11 0 0 1 31.369453 10.604453 1 0 1
0 -201.63 -24.29 244.11 0 0 1 30.994453 10.604453 1 0 1
0 -241.63 -24.29 244.11 0 0 1 30.994453 10.291953 1 0 1
stone_stone_wall_001
0 -201.63 -72.29 244.11 0 0 1 31.369453 10.604453 1 0 1
0 -241.63 -24.29 244.11 0 0 1 30.994453 10.291953 1 0 1
0 -241.63 -72.29 244.11 0 0 1 31.369453 10.291953 1 0 1
stone_stone_wall_001
0 -201.63 -80.29 132.11 0 -0.997459 0.071247 8.733359 -1.231562 1 0 1
0 -201.63 -72.29 244.11 0 -0.997459 0.071247 8.733359 -0.356562 1 0 1
0 -241.63 -72.29 244.11 0 -0.997459 0.071247 8.420859 -0.356562 1 0 1
stone_stone_wall_001
0 -201.63 -80.29 132.11 0 -0.997459 0.071247 8.733359 -1.231562 1 0 1
0 -241.63 -72.29 244.11 0 -0.997459 0.071247 8.420859 -0.356562 1 0 1
0 -241.63 -80.29 132.11 0 -0.997459 0.071247 8.420859 -1.231562 1 0 1
stone_stone_wall_001
0 -201.63 -24.29 244.11 0 0.997459 0.071247 9.991172 -1.088984 1 0 1
0 -201.63 -16.29 132.11 0 0.997459 0.071247 9.991172 -1.963984 1 0 1
0 -241.63 -16.29 132.11 0 0.997459 0.071247 9.678672 -1.963984 1 0 1
stone_stone_wall_001
0 -201.63 -24.29 244.11 0 0.997459 0.071247 9.991172 -1.088984 1 0 1
0 -241.63 -16.29 132.11 0 0.997459 0.071247 9.678672 -1.963984 1 0 1
0 -241.63 -24.29 244.11 0 0.997459 0.071247 9.678672 -1.088984 1 0 1
wood_woodfloor006a
0 -237.63 47.71 12.108 0 0 -1 30.426094 9.868125 1 0 1
0 -237.63 111.71 12.108 0 0 -1 29.926094 9.868125 1 0 1
0 242.37 111.71 12.108 0 0 -1 29.926094 13.618125 1 0 1
wood_woodfloor006a
0 -237.63 47.71 12.108 0 0 -1 30.426094 9.868125 1 0 1
0 242.37 111.71 12.108 0 0 -1 29.926094 13.618125 1 0 1
0 242.37 47.71 12.108 0 0 -1 30.426094 13.618125 1 0 1
office_wood_wood_floor_001b
0 242.37 47.71 20.106 0 0 1 5.809063 -14.213047 1 0 1
0 242.37 111.71 20.106 0 0 1 5.809063 -13.963047 1 0 1
0 -237.63 111.71 20.106 0 0 1 3.934063 -13.963047 1 0 1
office_wood_wood_floor_001b
0 242.37 47.71 20.106 0 0 1 5.809063 -14.213047 1 0 1
0 -237.63 111.71 20.106 0 0 1 3.934063 -13.963047 1 0 1
0 -237.63 47.71 20.106 0 0 1 3.934063 -14.213047 1 0 1
wood_infwoodfloor007a
0 242.37 111.71 20.106 0 1 0 -12.971641 -2.819484 1 0 1
0 242.37 111.71 12.108 0 1 0 -12.971641 -2.881969 1 0 1
0 -237.63 111.71 12.108 0 1 0 -9.221641 -2.881969 1 0 1
wood_infwoodfloor007a
0 242.37 111.71 20.106 0 1 0 -12.971641 -2.819484 1 0 1
0 -237.63 111.71 12.108 0 1 0 -9.221641 -2.881969 1 0 1
0 -237.63 111.71 20.106 0 1 0 -9.221641 -2.819484 1 0 1
wood_woodfloor006a
0 242.37 47.71 12.108 0 -1 0 12.629844 -2.149547 1 0 1
0 242.37 47.71 20.106 0 -1 0 12.629844 -2.087063 1 0 1
0 -237.63 47.71 20.106 0 -1 0 8.879844 -2.087063 1 0 1
wood_woodfloor006a
0 242.37 47.71 12.108 0 -1 0 12.629844 -2.149547 1 0 1
0 -237.63 47.71 20.106 0 -1 0 8.879844 -2.087063 1 0 1
0 -237.63 47.71 12.108 0 -1 0 8.879844 -2.149547 1 0 1
wood_woodwall_016
0 2.37 -200.29 260.11 0 1 0 4.621563 -0.585221 1 0 1
0 114.37 -200.29 148.11 0 1 0 5.059062 -1.314388 1 0 1
0 -109.63 -200.29 148.11 0 1 0 4.184063 -1.314388 1 0 1
realworldtextures2_wood_wood_19
0 114.37 -208.29 148.11 0 -1 0 11.659141 -1.796016 1 0 1
0 2.37 -208.29 260.11 0 -1 0 10.784141 -0.921016 1 0 1
0 -109.63 -208.29 148.11 0 -1 0 9.909141 -1.796016 1 0 1
wood_woodfloor006a
0 2.37 207.71 20.106 0 1 0 10.754844 -2.087063 1 0 1
0 2.37 207.71 12.108 0 1 0 10.754844 -2.149547 1 0 1
0 -93.62 207.71 12.108 0 1 0 10.004922 -2.149547 1 0 1
wood_woodfloor006a
0 2.37 207.71 20.106 0 1 0 10.754844 -2.087063 1 0 1
0 -93.62 207.71 12.108 0 1 0 10.004922 -2.149547 1 0 1
0 -93.62 207.71 20.106 0 1 0 10.004922 -2.087063 1 0 1
wood_woodfloor006a
0 2.37 111.71 12.108 0 0 -1 29.926094 11.743125 1 0 1
0 -93.62 111.71 12.108 0 0 -1 29.926094 10.993203 1 0 1
0 -93.62 207.71 12.108 0 0 -1 29.176094 10.993203 1 0 1
wood_woodfloor006a
0 2.37 111.71 12.108 0 0 -1 29.926094 11.743125 1 0 1
0 -93.62 207.71 12.108 0 0 -1 29.176094 10.993203 1 0 1
0 2.37 207.71 12.108 0 0 -1 29.176094 11.743125 1 0 1
office_wood_wood_floor_001b
0 -93.62 111.71 20.106 0 0 1 4.496602 -13.963047 1 0 1
0 2.37 111.71 20.106 0 0 1 4.871563 -13.963047 1 0 1
0 2.37 207.71 20.106 0 0 1 4.871562 -13.588047 1 0 1
office_wood_wood_floor_001b
0 -93.62 111.71 20.106 0 0 1 4.496602 -13.963047 1 0 1
0 2.37 207.71 20.106 0 0 1 4.871562 -13.588047 1 0 1
0 -93.62 207.71 20.106 0 0 1 4.496602 -13.588047 1 0 1
wood_woodwall_016
0 2.37 131.71 0.108 -1 0 0 15.384922 -2.277943 1 0 1
0 2.37 131.71 12.108 -1 0 0 15.384922 -2.199818 1 0 1
0 2.37 187.71 12.108 -1 0 0 15.166172 -2.199818 1 0 1
wood_woodwall_016
0 2.37 131.71 0.108 -1 0 0 15.384922 -2.277943 1 0 1
0 2.37 187.71 12.108 -1 0 0 15.166172 -2.199818 1 0 1
0 2.37 187.71 0.108 -1 0 0 15.166172 -2.277943 1 0 1
wood_woodwall_016
0 10.37 131.71 12.108 1 0 0 15.384922 -2.199818 1 0 1
0 10.37 131.71 0.108 1 0 0 15.384922 -2.277943 1 0 1
0 10.37 187.71 0.108 1 0 0 15.166172 -2.277943 1 0 1
wood_woodwall_016
0 10.37 131.71 12.108 1 0 0 15.384922 -2.199818 1 0 1
0 10.37 187.71 0.108 1 0 0 15.166172 -2.277943 1 0 1
0 10.37 187.71 12.108 1 0 0 15.166172 -2.199818 1 0 1
end
