version 1
nodes
0 "root" -1
end
skeleton
time 0
0 0 0 0 0 0 0
end
triangles
pepsi2_arch_concrete_stair01
0 249 -93 -252 0 1 0 67.914062 -1.9375 1 0 1
0 249 -93 -260 0 1 0 67.914062 -2 1 0 1
0 119 -93 -260 0 1 0 68.929688 -2 1 0 1
pepsi2_arch_concrete_stair01
0 249 -93 -252 0 1 0 67.914062 -1.9375 1 0 1
0 119 -93 -260 0 1 0 68.929688 -2 1 0 1
0 119 -93 -252 0 1 0 68.929688 -1.9375 1 0 1
pepsi2_arch_concrete_stair01
0 119 -105 -252 0 0 1 68.929688 8.15625 1 0 1
0 249 -105 -252 0 0 1 67.914062 8.15625 1 0 1
0 249 -93 -252 0 0 1 67.914062 8.0625 1 0 1
pepsi2_arch_concrete_stair01
0 119 -105 -252 0 0 1 68.929688 8.15625 1 0 1
0 249 -93 -252 0 0 1 67.914062 8.0625 1 0 1
0 119 -93 -252 0 0 1 68.929688 8.0625 1 0 1
pepsi2_arch_concrete_stair01
0 261 -163 59 0 0 1 -67.863281 8.1875 1 0 1
0 361 -163 59 0 0 1 -67.082031 8.1875 1 0 1
0 361 -148 59 0 0 1 -67.082031 8.070312 1 0 1
pepsi2_arch_concrete_stair01
0 261 -163 59 0 0 1 -67.863281 8.1875 1 0 1
0 361 -148 59 0 0 1 -67.082031 8.070312 1 0 1
0 261 -148 59 0 0 1 -67.863281 8.070312 1 0 1
rainy_epoxyfloor
0 261 -148 50 0 -0.514496 -0.857493 -5.778164 -66.765625 1 0 1
0 361 -148 50 0 -0.514496 -0.857493 -5.778164 -65.984375 1 0 1
0 361 -163 59 0 -0.514496 -0.857493 -5.914828 -65.984375 1 0 1
rainy_epoxyfloor
0 261 -148 50 0 -0.514496 -0.857493 -5.778164 -66.765625 1 0 1
0 361 -163 59 0 -0.514496 -0.857493 -5.914828 -65.984375 1 0 1
0 261 -163 59 0 -0.514496 -0.857493 -5.914828 -66.765625 1 0 1
pepsi2_arch_concrete_stair01
0 361 -148 59 0 1 0 -67.082031 0.070312 1 0 1
0 361 -148 50 0 1 0 -67.082031 0 1 0 1
0 261 -148 50 0 1 0 -67.863281 0 1 0 1
pepsi2_arch_concrete_stair01
0 361 -148 59 0 1 0 -67.082031 0.070312 1 0 1
0 261 -148 50 0 1 0 -67.863281 0 1 0 1
0 261 -148 59 0 1 0 -67.863281 0.070312 1 0 1
pepsi2_arch_concrete_stair01
0 119 3 -324 0 0 1 68.929688 7.15625 1 0 1
0 249 3 -324 0 0 1 67.914062 7.15625 1 0 1
0 249 15 -324 0 0 1 67.914062 7.0625 1 0 1
pepsi2_arch_concrete_stair01
0 119 3 -324 0 0 1 68.929688 7.15625 1 0 1
0 249 15 -324 0 0 1 67.914062 7.0625 1 0 1
0 119 15 -324 0 0 1 68.929688 7.0625 1 0 1
pepsi2_arch_concrete_stair01
0 249 15 -324 0 1 0 67.914062 -2.9375 1 0 1
0 249 15 -332 0 1 0 67.914062 -3 1 0 1
0 119 15 -332 0 1 0 68.929688 -3 1 0 1
pepsi2_arch_concrete_stair01
0 249 15 -324 0 1 0 67.914062 -2.9375 1 0 1
0 119 15 -332 0 1 0 68.929688 -3 1 0 1
0 119 15 -324 0 1 0 68.929688 -2.9375 1 0 1
pepsi2_arch_concrete_stair01
0 361 -163 68 0 1 0 -67.082031 0.070312 1 0 1
0 361 -163 59 0 1 0 -67.082031 0 1 0 1
0 261 -163 59 0 1 0 -67.863281 0 1 0 1
pepsi2_arch_concrete_stair01
0 361 -163 68 0 1 0 -67.082031 0.070312 1 0 1
0 261 -163 59 0 1 0 -67.863281 0 1 0 1
0 261 -163 68 0 1 0 -67.863281 0.070312 1 0 1
pepsi2_arch_concrete_stair01
0 361 -178 68 0 0 1 -67.082031 8.1875 1 0 1
0 361 -163 68 0 0 1 -67.082031 8.070312 1 0 1
0 261 -163 68 0 0 1 -67.863281 8.070312 1 0 1
pepsi2_arch_concrete_stair01
0 361 -178 68 0 0 1 -67.082031 8.1875 1 0 1
0 261 -163 68 0 0 1 -67.863281 8.070312 1 0 1
0 261 -178 68 0 0 1 -67.863281 8.1875 1 0 1
rainy_epoxyfloor
0 261 -178 68 0 -0.514496 -0.857493 -6.051492 -66.765625 1 0 1
0 261 -163 59 0 -0.514496 -0.857493 -5.914828 -66.765625 1 0 1
0 361 -163 59 0 -0.514496 -0.857493 -5.914828 -65.984375 1 0 1
rainy_epoxyfloor
0 261 -178 68 0 -0.514496 -0.857493 -6.051492 -66.765625 1 0 1
0 361 -163 59 0 -0.514496 -0.857493 -5.914828 -65.984375 1 0 1
0 361 -178 68 0 -0.514496 -0.857493 -6.051492 -65.984375 1 0 1
pepsi2_arch_concrete_stair01
0 249 -153 -212 0 1 0 67.914062 -1.9375 1 0 1
0 249 -153 -220 0 1 0 67.914062 -2 1 0 1
0 119 -153 -220 0 1 0 68.929688 -2 1 0 1
pepsi2_arch_concrete_stair01
0 249 -153 -212 0 1 0 67.914062 -1.9375 1 0 1
0 119 -153 -220 0 1 0 68.929688 -2 1 0 1
0 119 -153 -212 0 1 0 68.929688 -1.9375 1 0 1
pepsi2_arch_concrete_stair01
0 249 -165 -212 0 0 1 67.914062 8.15625 1 0 1
0 249 -153 -212 0 0 1 67.914062 8.0625 1 0 1
0 119 -153 -212 0 0 1 68.929688 8.0625 1 0 1
pepsi2_arch_concrete_stair01
0 249 -165 -212 0 0 1 67.914062 8.15625 1 0 1
0 119 -153 -212 0 0 1 68.929688 8.0625 1 0 1
0 119 -165 -212 0 0 1 68.929688 8.15625 1 0 1
rainy_epoxyfloor
0 261 -118 32 0 -0.514496 -0.857493 -5.504836 -66.765625 1 0 1
0 261 -103 23 0 -0.514496 -0.857493 -5.368172 -66.765625 1 0 1
0 361 -103 23 0 -0.514496 -0.857493 -5.368172 -65.984375 1 0 1
rainy_epoxyfloor
0 261 -118 32 0 -0.514496 -0.857493 -5.504836 -66.765625 1 0 1
0 361 -103 23 0 -0.514496 -0.857493 -5.368172 -65.984375 1 0 1
0 361 -118 32 0 -0.514496 -0.857493 -5.504836 -65.984375 1 0 1
pepsi2_arch_concrete_stair01
0 361 -103 32 0 1 0 -67.082031 0.070312 1 0 1
0 361 -103 23 0 1 0 -67.082031 0 1 0 1
0 261 -103 23 0 1 0 -67.863281 0 1 0 1
pepsi2_arch_concrete_stair01
0 361 -103 32 0 1 0 -67.082031 0.070312 1 0 1
0 261 -103 23 0 1 0 -67.863281 0 1 0 1
0 261 -103 32 0 1 0 -67.863281 0.070312 1 0 1
pepsi2_arch_concrete_stair01
0 261 -118 32 0 0 1 -67.863281 8.1875 1 0 1
0 361 -118 32 0 0 1 -67.082031 8.1875 1 0 1
0 361 -103 32 0 0 1 -67.082031 8.070312 1 0 1
pepsi2_arch_concrete_stair01
0 261 -118 32 0 0 1 -67.863281 8.1875 1 0 1
0 361 -103 32 0 0 1 -67.082031 8.070312 1 0 1
0 261 -103 32 0 0 1 -67.863281 8.070312 1 0 1
pepsi2_arch_concrete_stair01
0 261 -148 50 0 0 1 -67.863281 8.1875 1 0 1
0 361 -148 50 0 0 1 -67.082031 8.1875 1 0 1
0 361 -133 50 0 0 1 -67.082031 8.070312 1 0 1
pepsi2_arch_concrete_stair01
0 261 -148 50 0 0 1 -67.863281 8.1875 1 0 1
0 361 -133 50 0 0 1 -67.082031 8.070312 1 0 1
0 261 -133 50 0 0 1 -67.863281 8.070312 1 0 1
rainy_epoxyfloor
0 361 -148 50 0 -0.514496 -0.857493 -5.778164 -65.984375 1 0 1
0 261 -148 50 0 -0.514496 -0.857493 -5.778164 -66.765625 1 0 1
0 261 -133 41 0 -0.514496 -0.857493 -5.6415 -66.765625 1 0 1
rainy_epoxyfloor
0 361 -148 50 0 -0.514496 -0.857493 -5.778164 -65.984375 1 0 1
0 261 -133 41 0 -0.514496 -0.857493 -5.6415 -66.765625 1 0 1
0 361 -133 41 0 -0.514496 -0.857493 -5.6415 -65.984375 1 0 1
pepsi2_arch_concrete_stair01
0 361 -133 41 0 1 0 -67.082031 0 1 0 1
0 261 -133 41 0 1 0 -67.863281 0 1 0 1
0 261 -133 50 0 1 0 -67.863281 0.070312 1 0 1
pepsi2_arch_concrete_stair01
0 361 -133 41 0 1 0 -67.082031 0 1 0 1
0 261 -133 50 0 1 0 -67.863281 0.070312 1 0 1
0 361 -133 50 0 1 0 -67.082031 0.070312 1 0 1
pepsi2_arch_concrete_stair01
0 119 -45 -292 0 0 1 68.929688 7.15625 1 0 1
0 249 -45 -292 0 0 1 67.914062 7.15625 1 0 1
0 249 -33 -292 0 0 1 67.914062 7.0625 1 0 1
pepsi2_arch_concrete_stair01
0 119 -45 -292 0 0 1 68.929688 7.15625 1 0 1
0 249 -33 -292 0 0 1 67.914062 7.0625 1 0 1
0 119 -33 -292 0 0 1 68.929688 7.0625 1 0 1
pepsi2_arch_concrete_stair01
0 249 -33 -292 0 1 0 67.914062 -1.9375 1 0 1
0 249 -33 -300 0 1 0 67.914062 -2 1 0 1
0 119 -33 -300 0 1 0 68.929688 -2 1 0 1
pepsi2_arch_concrete_stair01
0 249 -33 -292 0 1 0 67.914062 -1.9375 1 0 1
0 119 -33 -300 0 1 0 68.929688 -2 1 0 1
0 119 -33 -292 0 1 0 68.929688 -1.9375 1 0 1
pepsi2_arch_concrete_stair01
0 249 -129 -228 0 1 0 67.914062 -1.9375 1 0 1
0 249 -129 -236 0 1 0 67.914062 -2 1 0 1
0 119 -129 -236 0 1 0 68.929688 -2 1 0 1
pepsi2_arch_concrete_stair01
0 249 -129 -228 0 1 0 67.914062 -1.9375 1 0 1
0 119 -129 -236 0 1 0 68.929688 -2 1 0 1
0 119 -129 -228 0 1 0 68.929688 -1.9375 1 0 1
pepsi2_arch_concrete_stair01
0 249 -141 -228 0 0 1 67.914062 8.15625 1 0 1
0 249 -129 -228 0 0 1 67.914062 8.0625 1 0 1
0 119 -129 -228 0 0 1 68.929688 8.0625 1 0 1
pepsi2_arch_concrete_stair01
0 249 -141 -228 0 0 1 67.914062 8.15625 1 0 1
0 119 -129 -228 0 0 1 68.929688 8.0625 1 0 1
0 119 -141 -228 0 0 1 68.929688 8.15625 1 0 1
pepsi2_arch_concrete_stair01
0 261 -88 14 0 0 1 -67.863281 8.1875 1 0 1
0 361 -88 14 0 0 1 -67.082031 8.1875 1 0 1
0 361 -73 14 0 0 1 -67.082031 8.070312 1 0 1
pepsi2_arch_concrete_stair01
0 261 -88 14 0 0 1 -67.863281 8.1875 1 0 1
0 361 -73 14 0 0 1 -67.082031 8.070312 1 0 1
0 261 -73 14 0 0 1 -67.863281 8.070312 1 0 1
rainy_epoxyfloor
0 361 -88 14 0 -0.514496 -0.857493 -5.231508 -65.984375 1 0 1
0 261 -88 14 0 -0.514496 -0.857493 -5.231508 -66.765625 1 0 1
0 261 -73 5 0 -0.514496 -0.857493 -5.094844 -66.765625 1 0 1
rainy_epoxyfloor
0 361 -88 14 0 -0.514496 -0.857493 -5.231508 -65.984375 1 0 1
0 261 -73 5 0 -0.514496 -0.857493 -5.094844 -66.765625 1 0 1
0 361 -73 5 0 -0.514496 -0.857493 -5.094844 -65.984375 1 0 1
pepsi2_arch_concrete_stair01
0 361 -73 5 0 1 0 -67.082031 -1 1 0 1
0 261 -73 5 0 1 0 -67.863281 -1 1 0 1
0 261 -73 14 0 1 0 -67.863281 -0.929688 1 0 1
pepsi2_arch_concrete_stair01
0 361 -73 5 0 1 0 -67.082031 -1 1 0 1
0 261 -73 14 0 1 0 -67.863281 -0.929688 1 0 1
0 361 -73 14 0 1 0 -67.082031 -0.929688 1 0 1
pepsi2_arch_concrete_stair01
0 249 -93 -260 0 0 1 67.914062 8.15625 1 0 1
0 249 -81 -260 0 0 1 67.914062 8.0625 1 0 1
0 119 -81 -260 0 0 1 68.929688 8.0625 1 0 1
pepsi2_arch_concrete_stair01
0 249 -93 -260 0 0 1 67.914062 8.15625 1 0 1
0 119 -81 -260 0 0 1 68.929688 8.0625 1 0 1
0 119 -93 -260 0 0 1 68.929688 8.15625 1 0 1
pepsi2_arch_concrete_stair01
0 249 -81 -260 0 1 0 67.914062 -1.9375 1 0 1
0 249 -81 -268 0 1 0 67.914062 -2 1 0 1
0 119 -81 -268 0 1 0 68.929688 -2 1 0 1
pepsi2_arch_concrete_stair01
0 249 -81 -260 0 1 0 67.914062 -1.9375 1 0 1
0 119 -81 -268 0 1 0 68.929688 -2 1 0 1
0 119 -81 -260 0 1 0 68.929688 -1.9375 1 0 1
pepsi2_arch_concrete_stair01
0 361 -118 41 0 1 0 -67.082031 0.070312 1 0 1
0 361 -118 32 0 1 0 -67.082031 0 1 0 1
0 261 -118 32 0 1 0 -67.863281 0 1 0 1
pepsi2_arch_concrete_stair01
0 361 -118 41 0 1 0 -67.082031 0.070312 1 0 1
0 261 -118 32 0 1 0 -67.863281 0 1 0 1
0 261 -118 41 0 1 0 -67.863281 0.070312 1 0 1
pepsi2_arch_concrete_stair01
0 361 -133 41 0 0 1 -67.082031 8.1875 1 0 1
0 361 -118 41 0 0 1 -67.082031 8.070312 1 0 1
0 261 -118 41 0 0 1 -67.863281 8.070312 1 0 1
pepsi2_arch_concrete_stair01
0 361 -133 41 0 0 1 -67.082031 8.1875 1 0 1
0 261 -118 41 0 0 1 -67.863281 8.070312 1 0 1
0 261 -133 41 0 0 1 -67.863281 8.1875 1 0 1
rainy_epoxyfloor
0 261 -133 41 0 -0.514496 -0.857493 -5.6415 -66.765625 1 0 1
0 261 -118 32 0 -0.514496 -0.857493 -5.504836 -66.765625 1 0 1
0 361 -118 32 0 -0.514496 -0.857493 -5.504836 -65.984375 1 0 1
rainy_epoxyfloor
0 261 -133 41 0 -0.514496 -0.857493 -5.6415 -66.765625 1 0 1
0 361 -118 32 0 -0.514496 -0.857493 -5.504836 -65.984375 1 0 1
0 361 -133 41 0 -0.514496 -0.857493 -5.6415 -65.984375 1 0 1
pepsi2_arch_concrete_stair01
0 249 -213 -172 0 1 0 67.914062 -0.9375 1 0 1
0 249 -213 -180 0 1 0 67.914062 -1 1 0 1
0 119 -213 -180 0 1 0 68.929688 -1 1 0 1
pepsi2_arch_concrete_stair01
0 249 -213 -172 0 1 0 67.914062 -0.9375 1 0 1
0 119 -213 -180 0 1 0 68.929688 -1 1 0 1
0 119 -213 -172 0 1 0 68.929688 -0.9375 1 0 1
pepsi2_arch_concrete_stair01
0 249 -225 -172 0 0 1 67.914062 9.15625 1 0 1
0 249 -213 -172 0 0 1 67.914062 9.0625 1 0 1
0 119 -213 -172 0 0 1 68.929688 9.0625 1 0 1
pepsi2_arch_concrete_stair01
0 249 -225 -172 0 0 1 67.914062 9.15625 1 0 1
0 119 -213 -172 0 0 1 68.929688 9.0625 1 0 1
0 119 -225 -172 0 0 1 68.929688 9.15625 1 0 1
pepsi2_arch_concrete_stair01
0 249 -189 -188 0 1 0 67.914062 -0.9375 1 0 1
0 249 -189 -196 0 1 0 67.914062 -1 1 0 1
0 119 -189 -196 0 1 0 68.929688 -1 1 0 1
pepsi2_arch_concrete_stair01
0 249 -189 -188 0 1 0 67.914062 -0.9375 1 0 1
0 119 -189 -196 0 1 0 68.929688 -1 1 0 1
0 119 -189 -188 0 1 0 68.929688 -0.9375 1 0 1
pepsi2_arch_concrete_stair01
0 249 -201 -188 0 0 1 67.914062 9.15625 1 0 1
0 249 -189 -188 0 0 1 67.914062 9.0625 1 0 1
0 119 -189 -188 0 0 1 68.929688 9.0625 1 0 1
pepsi2_arch_concrete_stair01
0 249 -201 -188 0 0 1 67.914062 9.15625 1 0 1
0 119 -189 -188 0 0 1 68.929688 9.0625 1 0 1
0 119 -201 -188 0 0 1 68.929688 9.15625 1 0 1
pepsi2_arch_concrete_stair01
0 361 -193 77 0 0 1 -67.082031 8.1875 1 0 1
0 361 -178 77 0 0 1 -67.082031 8.070312 1 0 1
0 261 -178 77 0 0 1 -67.863281 8.070312 1 0 1
pepsi2_arch_concrete_stair01
0 361 -193 77 0 0 1 -67.082031 8.1875 1 0 1
0 261 -178 77 0 0 1 -67.863281 8.070312 1 0 1
0 261 -193 77 0 0 1 -67.863281 8.1875 1 0 1
rainy_epoxyfloor
0 261 -193 77 0 -0.514496 -0.857493 -6.188156 -66.765625 1 0 1
0 261 -178 68 0 -0.514496 -0.857493 -6.051492 -66.765625 1 0 1
0 361 -178 68 0 -0.514496 -0.857493 -6.051492 -65.984375 1 0 1
rainy_epoxyfloor
0 261 -193 77 0 -0.514496 -0.857493 -6.188156 -66.765625 1 0 1
0 361 -178 68 0 -0.514496 -0.857493 -6.051492 -65.984375 1 0 1
0 361 -193 77 0 -0.514496 -0.857493 -6.188156 -65.984375 1 0 1
pepsi2_arch_concrete_stair01
0 361 -178 77 0 1 0 -67.082031 0.070312 1 0 1
0 361 -178 68 0 1 0 -67.082031 0 1 0 1
0 261 -178 68 0 1 0 -67.863281 0 1 0 1
pepsi2_arch_concrete_stair01
0 361 -178 77 0 1 0 -67.082031 0.070312 1 0 1
0 261 -178 68 0 1 0 -67.863281 0 1 0 1
0 261 -178 77 0 1 0 -67.863281 0.070312 1 0 1
pepsi2_arch_concrete_stair01
0 249 -69 -276 0 0 1 67.914062 8.15625 1 0 1
0 249 -57 -276 0 0 1 67.914062 8.0625 1 0 1
0 119 -57 -276 0 0 1 68.929688 8.0625 1 0 1
pepsi2_arch_concrete_stair01
0 249 -69 -276 0 0 1 67.914062 8.15625 1 0 1
0 119 -57 -276 0 0 1 68.929688 8.0625 1 0 1
0 119 -69 -276 0 0 1 68.929688 8.15625 1 0 1
pepsi2_arch_concrete_stair01
0 249 -57 -276 0 1 0 67.914062 -1.9375 1 0 1
0 249 -57 -284 0 1 0 67.914062 -2 1 0 1
0 119 -57 -284 0 1 0 68.929688 -2 1 0 1
pepsi2_arch_concrete_stair01
0 249 -57 -276 0 1 0 67.914062 -1.9375 1 0 1
0 119 -57 -284 0 1 0 68.929688 -2 1 0 1
0 119 -57 -276 0 1 0 68.929688 -1.9375 1 0 1
pepsi2_arch_concrete_stair01
0 119 -153 -220 0 0 1 68.929688 8.15625 1 0 1
0 249 -153 -220 0 0 1 67.914062 8.15625 1 0 1
0 249 -141 -220 0 0 1 67.914062 8.0625 1 0 1
pepsi2_arch_concrete_stair01
0 119 -153 -220 0 0 1 68.929688 8.15625 1 0 1
0 249 -141 -220 0 0 1 67.914062 8.0625 1 0 1
0 119 -141 -220 0 0 1 68.929688 8.0625 1 0 1
pepsi2_arch_concrete_stair01
0 249 -141 -228 0 1 0 67.914062 -2 1 0 1
0 119 -141 -228 0 1 0 68.929688 -2 1 0 1
0 119 -141 -220 0 1 0 68.929688 -1.9375 1 0 1
pepsi2_arch_concrete_stair01
0 249 -141 -228 0 1 0 67.914062 -2 1 0 1
0 119 -141 -220 0 1 0 68.929688 -1.9375 1 0 1
0 249 -141 -220 0 1 0 67.914062 -1.9375 1 0 1
pepsi2_arch_concrete_stair01
0 261 -58 -4 0 0 1 -67.863281 7.1875 1 0 1
0 361 -58 -4 0 0 1 -67.082031 7.1875 1 0 1
0 361 -43 -4 0 0 1 -67.082031 7.070312 1 0 1
pepsi2_arch_concrete_stair01
0 261 -58 -4 0 0 1 -67.863281 7.1875 1 0 1
0 361 -43 -4 0 0 1 -67.082031 7.070312 1 0 1
0 261 -43 -4 0 0 1 -67.863281 7.070312 1 0 1
rainy_epoxyfloor
0 261 -43 -13 0 -0.514496 -0.857493 -4.821516 -66.765625 1 0 1
0 361 -43 -13 0 -0.514496 -0.857493 -4.821516 -65.984375 1 0 1
0 361 -58 -4 0 -0.514496 -0.857493 -4.95818 -65.984375 1 0 1
rainy_epoxyfloor
0 261 -43 -13 0 -0.514496 -0.857493 -4.821516 -66.765625 1 0 1
0 361 -58 -4 0 -0.514496 -0.857493 -4.95818 -65.984375 1 0 1
0 261 -58 -4 0 -0.514496 -0.857493 -4.95818 -66.765625 1 0 1
pepsi2_arch_concrete_stair01
0 361 -43 -4 0 1 0 -67.082031 -0.929688 1 0 1
0 361 -43 -13 0 1 0 -67.082031 -1 1 0 1
0 261 -43 -13 0 1 0 -67.863281 -1 1 0 1
pepsi2_arch_concrete_stair01
0 361 -43 -4 0 1 0 -67.082031 -0.929688 1 0 1
0 261 -43 -13 0 1 0 -67.863281 -1 1 0 1
0 261 -43 -4 0 1 0 -67.863281 -0.929688 1 0 1
pepsi2_arch_concrete_stair01
0 361 -238 113 0 1 0 -67.082031 0.070312 1 0 1
0 361 -238 104 0 1 0 -67.082031 0 1 0 1
0 261 -238 104 0 1 0 -67.863281 0 1 0 1
pepsi2_arch_concrete_stair01
0 361 -238 113 0 1 0 -67.082031 0.070312 1 0 1
0 261 -238 104 0 1 0 -67.863281 0 1 0 1
0 261 -238 113 0 1 0 -67.863281 0.070312 1 0 1
pepsi2_arch_concrete_stair01
0 361 -253 113 0 0 1 -67.082031 9.1875 1 0 1
0 361 -238 113 0 0 1 -67.082031 9.070312 1 0 1
0 261 -238 113 0 0 1 -67.863281 9.070312 1 0 1
pepsi2_arch_concrete_stair01
0 361 -253 113 0 0 1 -67.082031 9.1875 1 0 1
0 261 -238 113 0 0 1 -67.863281 9.070312 1 0 1
0 261 -253 113 0 0 1 -67.863281 9.1875 1 0 1
rainy_epoxyfloor
0 261 -253 113 0 -0.514496 -0.857493 -6.734812 -66.765625 1 0 1
0 261 -238 104 0 -0.514496 -0.857493 -6.598148 -66.765625 1 0 1
0 361 -238 104 0 -0.514496 -0.857493 -6.598148 -65.984375 1 0 1
rainy_epoxyfloor
0 261 -253 113 0 -0.514496 -0.857493 -6.734812 -66.765625 1 0 1
0 361 -238 104 0 -0.514496 -0.857493 -6.598148 -65.984375 1 0 1
0 361 -253 113 0 -0.514496 -0.857493 -6.734812 -65.984375 1 0 1
pepsi2_arch_concrete_stair01
0 249 -249 -148 0 1 0 67.914062 -0.9375 1 0 1
0 249 -249 -156 0 1 0 67.914062 -1 1 0 1
0 119 -249 -156 0 1 0 68.929688 -1 1 0 1
pepsi2_arch_concrete_stair01
0 249 -249 -148 0 1 0 67.914062 -0.9375 1 0 1
0 119 -249 -156 0 1 0 68.929688 -1 1 0 1
0 119 -249 -148 0 1 0 68.929688 -0.9375 1 0 1
pepsi2_arch_concrete_stair01
0 249 -261 -148 0 0 1 67.914062 9.15625 1 0 1
0 249 -249 -148 0 0 1 67.914062 9.0625 1 0 1
0 119 -249 -148 0 0 1 68.929688 9.0625 1 0 1
pepsi2_arch_concrete_stair01
0 249 -261 -148 0 0 1 67.914062 9.15625 1 0 1
0 119 -249 -148 0 0 1 68.929688 9.0625 1 0 1
0 119 -261 -148 0 0 1 68.929688 9.15625 1 0 1
pepsi2_arch_concrete_stair01
0 361 -193 86 0 1 0 -67.082031 0.070312 1 0 1
0 361 -193 77 0 1 0 -67.082031 0 1 0 1
0 261 -193 77 0 1 0 -67.863281 0 1 0 1
pepsi2_arch_concrete_stair01
0 361 -193 86 0 1 0 -67.082031 0.070312 1 0 1
0 261 -193 77 0 1 0 -67.863281 0 1 0 1
0 261 -193 86 0 1 0 -67.863281 0.070312 1 0 1
pepsi2_arch_concrete_stair01
0 361 -208 86 0 0 1 -67.082031 9.1875 1 0 1
0 361 -193 86 0 0 1 -67.082031 9.070312 1 0 1
0 261 -193 86 0 0 1 -67.863281 9.070312 1 0 1
pepsi2_arch_concrete_stair01
0 361 -208 86 0 0 1 -67.082031 9.1875 1 0 1
0 261 -193 86 0 0 1 -67.863281 9.070312 1 0 1
0 261 -208 86 0 0 1 -67.863281 9.1875 1 0 1
rainy_epoxyfloor
0 261 -208 86 0 -0.514496 -0.857493 -6.32482 -66.765625 1 0 1
0 261 -193 77 0 -0.514496 -0.857493 -6.188156 -66.765625 1 0 1
0 361 -193 77 0 -0.514496 -0.857493 -6.188156 -65.984375 1 0 1
rainy_epoxyfloor
0 261 -208 86 0 -0.514496 -0.857493 -6.32482 -66.765625 1 0 1
0 361 -193 77 0 -0.514496 -0.857493 -6.188156 -65.984375 1 0 1
0 361 -208 86 0 -0.514496 -0.857493 -6.32482 -65.984375 1 0 1
pepsi2_arch_concrete_stair01
0 249 -117 -236 0 1 0 67.914062 -1.9375 1 0 1
0 249 -117 -244 0 1 0 67.914062 -2 1 0 1
0 119 -117 -244 0 1 0 68.929688 -2 1 0 1
pepsi2_arch_concrete_stair01
0 249 -117 -236 0 1 0 67.914062 -1.9375 1 0 1
0 119 -117 -244 0 1 0 68.929688 -2 1 0 1
0 119 -117 -236 0 1 0 68.929688 -1.9375 1 0 1
pepsi2_arch_concrete_stair01
0 249 -129 -236 0 0 1 67.914062 8.15625 1 0 1
0 249 -117 -236 0 0 1 67.914062 8.0625 1 0 1
0 119 -117 -236 0 0 1 68.929688 8.0625 1 0 1
pepsi2_arch_concrete_stair01
0 249 -129 -236 0 0 1 67.914062 8.15625 1 0 1
0 119 -117 -236 0 0 1 68.929688 8.0625 1 0 1
0 119 -129 -236 0 0 1 68.929688 8.15625 1 0 1
pepsi2_arch_concrete_stair01
0 361 -88 23 0 1 0 -67.082031 -0.929688 1 0 1
0 361 -88 14 0 1 0 -67.082031 -1 1 0 1
0 261 -88 14 0 1 0 -67.863281 -1 1 0 1
pepsi2_arch_concrete_stair01
0 361 -88 23 0 1 0 -67.082031 -0.929688 1 0 1
0 261 -88 14 0 1 0 -67.863281 -1 1 0 1
0 261 -88 23 0 1 0 -67.863281 -0.929688 1 0 1
pepsi2_arch_concrete_stair01
0 361 -103.021 23 0 0 1 -67.082031 8.187664 1 0 1
0 361 -88 23 0 0 1 -67.082031 8.070312 1 0 1
0 261 -88 23 0 0 1 -67.863281 8.070312 1 0 1
pepsi2_arch_concrete_stair01
0 361 -103.021 23 0 0 1 -67.082031 8.187664 1 0 1
0 261 -88 23 0 0 1 -67.863281 8.070312 1 0 1
0 261 -103.021 23 0 0 1 -67.863281 8.187664 1 0 1
rainy_epoxyfloor
0 261 -103.021 23 0 -0.513967 -0.85781 -5.367081 -66.765625 1 0 1
0 261 -88 14 0 -0.513967 -0.85781 -5.230283 -66.765625 1 0 1
0 361 -88 14 0 -0.513967 -0.85781 -5.230283 -65.984375 1 0 1
rainy_epoxyfloor
0 261 -103.021 23 0 -0.513967 -0.85781 -5.367081 -66.765625 1 0 1
0 361 -88 14 0 -0.513967 -0.85781 -5.230283 -65.984375 1 0 1
0 361 -103.021 23 0 -0.513967 -0.85781 -5.367081 -65.984375 1 0 1
pepsi2_arch_concrete_stair01
0 361 -253 122 0 1 0 -67.082031 0.070312 1 0 1
0 361 -253 113 0 1 0 -67.082031 0 1 0 1
0 261 -253 113 0 1 0 -67.863281 0 1 0 1
pepsi2_arch_concrete_stair01
0 361 -253 122 0 1 0 -67.082031 0.070312 1 0 1
0 261 -253 113 0 1 0 -67.863281 0 1 0 1
0 261 -253 122 0 1 0 -67.863281 0.070312 1 0 1
pepsi2_arch_concrete_stair01
0 361 -268 122 0 0 1 -67.082031 9.1875 1 0 1
0 361 -253 122 0 0 1 -67.082031 9.070312 1 0 1
0 261 -253 122 0 0 1 -67.863281 9.070312 1 0 1
pepsi2_arch_concrete_stair01
0 361 -268 122 0 0 1 -67.082031 9.1875 1 0 1
0 261 -253 122 0 0 1 -67.863281 9.070312 1 0 1
0 261 -268 122 0 0 1 -67.863281 9.1875 1 0 1
rainy_epoxyfloor
0 261 -268 122 0 -0.514496 -0.857493 -6.871477 -66.765625 1 0 1
0 261 -253 113 0 -0.514496 -0.857493 -6.734812 -66.765625 1 0 1
0 361 -253 113 0 -0.514496 -0.857493 -6.734812 -65.984375 1 0 1
rainy_epoxyfloor
0 261 -268 122 0 -0.514496 -0.857493 -6.871477 -66.765625 1 0 1
0 361 -253 113 0 -0.514496 -0.857493 -6.734812 -65.984375 1 0 1
0 361 -268 122 0 -0.514496 -0.857493 -6.871477 -65.984375 1 0 1
pepsi2_arch_concrete_stair01
0 249 -177 -196 0 1 0 67.914062 -1.9375 1 0 1
0 249 -177 -204 0 1 0 67.914062 -2 1 0 1
0 119 -177 -204 0 1 0 68.929688 -2 1 0 1
pepsi2_arch_concrete_stair01
0 249 -177 -196 0 1 0 67.914062 -1.9375 1 0 1
0 119 -177 -204 0 1 0 68.929688 -2 1 0 1
0 119 -177 -196 0 1 0 68.929688 -1.9375 1 0 1
pepsi2_arch_concrete_stair01
0 249 -189 -196 0 0 1 67.914062 8.15625 1 0 1
0 249 -177 -196 0 0 1 67.914062 8.0625 1 0 1
0 119 -177 -196 0 0 1 68.929688 8.0625 1 0 1
pepsi2_arch_concrete_stair01
0 249 -189 -196 0 0 1 67.914062 8.15625 1 0 1
0 119 -177 -196 0 0 1 68.929688 8.0625 1 0 1
0 119 -189 -196 0 0 1 68.929688 8.15625 1 0 1
pepsi2_arch_concrete_panel01
0 249 -29 -12 0 -1 0 68.421875 2.410156 1 0 1
0 249 -29 12 0 -1 0 68.421875 2.222656 1 0 1
0 -249 -29 12 0 -1 0 72.3125 2.222656 1 0 1
pepsi2_arch_concrete_panel01
0 249 -29 -12 0 -1 0 68.421875 2.410156 1 0 1
0 -249 -29 12 0 -1 0 72.3125 2.222656 1 0 1
0 -249 -29 -12 0 -1 0 72.3125 2.410156 1 0 1
pepsi2_arch_concrete_panel01
0 249 -29 -12 0 0 -1 68.421875 -5.589844 1 0 1
0 -249 -29 -12 0 0 -1 72.3125 -5.589844 1 0 1
0 -249 30 -12 0 0 -1 72.3125 -5.128906 1 0 1
pepsi2_arch_concrete_panel01
0 249 -29 -12 0 0 -1 68.421875 -5.589844 1 0 1
0 -249 30 -12 0 0 -1 72.3125 -5.128906 1 0 1
0 249 30 -12 0 0 -1 68.421875 -5.128906 1 0 1
pepsi2_arch_concrete_stair01
0 249 -237 -156 0 1 0 67.914062 -0.9375 1 0 1
0 249 -237 -164 0 1 0 67.914062 -1 1 0 1
0 119 -237 -164 0 1 0 68.929688 -1 1 0 1
pepsi2_arch_concrete_stair01
0 249 -237 -156 0 1 0 67.914062 -0.9375 1 0 1
0 119 -237 -164 0 1 0 68.929688 -1 1 0 1
0 119 -237 -156 0 1 0 68.929688 -0.9375 1 0 1
pepsi2_arch_concrete_stair01
0 249 -249 -156 0 0 1 67.914062 9.15625 1 0 1
0 249 -237 -156 0 0 1 67.914062 9.0625 1 0 1
0 119 -237 -156 0 0 1 68.929688 9.0625 1 0 1
pepsi2_arch_concrete_stair01
0 249 -249 -156 0 0 1 67.914062 9.15625 1 0 1
0 119 -237 -156 0 0 1 68.929688 9.0625 1 0 1
0 119 -249 -156 0 0 1 68.929688 9.15625 1 0 1
pepsi2_arch_concrete_stair01
0 249 -45 -284 0 1 0 67.914062 -1.9375 1 0 1
0 249 -45 -292 0 1 0 67.914062 -2 1 0 1
0 119 -45 -292 0 1 0 68.929688 -2 1 0 1
pepsi2_arch_concrete_stair01
0 249 -45 -284 0 1 0 67.914062 -1.9375 1 0 1
0 119 -45 -292 0 1 0 68.929688 -2 1 0 1
0 119 -45 -284 0 1 0 68.929688 -1.9375 1 0 1
pepsi2_arch_concrete_stair01
0 249 -57 -284 0 0 1 67.914062 7.15625 1 0 1
0 249 -45 -284 0 0 1 67.914062 7.0625 1 0 1
0 119 -45 -284 0 0 1 68.929688 7.0625 1 0 1
pepsi2_arch_concrete_stair01
0 249 -57 -284 0 0 1 67.914062 7.15625 1 0 1
0 119 -45 -284 0 0 1 68.929688 7.0625 1 0 1
0 119 -57 -284 0 0 1 68.929688 7.15625 1 0 1
pepsi2_arch_concrete_stair01
0 249 -177 -204 0 0 1 67.914062 8.15625 1 0 1
0 249 -165 -204 0 0 1 67.914062 8.0625 1 0 1
0 119 -165 -204 0 0 1 68.929688 8.0625 1 0 1
pepsi2_arch_concrete_stair01
0 249 -177 -204 0 0 1 67.914062 8.15625 1 0 1
0 119 -165 -204 0 0 1 68.929688 8.0625 1 0 1
0 119 -177 -204 0 0 1 68.929688 8.15625 1 0 1
pepsi2_arch_concrete_stair01
0 249 -165 -204 0 1 0 67.914062 -1.9375 1 0 1
0 249 -165 -212 0 1 0 67.914062 -2 1 0 1
0 119 -165 -212 0 1 0 68.929688 -2 1 0 1
pepsi2_arch_concrete_stair01
0 249 -165 -204 0 1 0 67.914062 -1.9375 1 0 1
0 119 -165 -212 0 1 0 68.929688 -2 1 0 1
0 119 -165 -204 0 1 0 68.929688 -1.9375 1 0 1
pepsi2_arch_concrete_stair01
0 249 -21 -300 0 1 0 67.914062 -1.9375 1 0 1
0 249 -21 -308 0 1 0 67.914062 -2 1 0 1
0 119 -21 -308 0 1 0 68.929688 -2 1 0 1
pepsi2_arch_concrete_stair01
0 249 -21 -300 0 1 0 67.914062 -1.9375 1 0 1
0 119 -21 -308 0 1 0 68.929688 -2 1 0 1
0 119 -21 -300 0 1 0 68.929688 -1.9375 1 0 1
pepsi2_arch_concrete_stair01
0 249 -33 -300 0 0 1 67.914062 7.15625 1 0 1
0 249 -21 -300 0 0 1 67.914062 7.0625 1 0 1
0 119 -21 -300 0 0 1 68.929688 7.0625 1 0 1
pepsi2_arch_concrete_stair01
0 249 -33 -300 0 0 1 67.914062 7.15625 1 0 1
0 119 -21 -300 0 0 1 68.929688 7.0625 1 0 1
0 119 -33 -300 0 0 1 68.929688 7.15625 1 0 1
pepsi2_arch_concrete_stair01
0 361 -58 5 0 1 0 -67.082031 -0.929688 1 0 1
0 361 -58 -4 0 1 0 -67.082031 -1 1 0 1
0 261 -58 -4 0 1 0 -67.863281 -1 1 0 1
pepsi2_arch_concrete_stair01
0 361 -58 5 0 1 0 -67.082031 -0.929688 1 0 1
0 261 -58 -4 0 1 0 -67.863281 -1 1 0 1
0 261 -58 5 0 1 0 -67.863281 -0.929688 1 0 1
pepsi2_arch_concrete_stair01
0 361 -73 5 0 0 1 -67.082031 8.1875 1 0 1
0 361 -58 5 0 0 1 -67.082031 8.070312 1 0 1
0 261 -58 5 0 0 1 -67.863281 8.070312 1 0 1
pepsi2_arch_concrete_stair01
0 361 -73 5 0 0 1 -67.082031 8.1875 1 0 1
0 261 -58 5 0 0 1 -67.863281 8.070312 1 0 1
0 261 -73 5 0 0 1 -67.863281 8.1875 1 0 1
rainy_epoxyfloor
0 261 -73 5 0 -0.514496 -0.857493 -5.094844 -66.765625 1 0 1
0 261 -58 -4 0 -0.514496 -0.857493 -4.95818 -66.765625 1 0 1
0 361 -58 -4 0 -0.514496 -0.857493 -4.95818 -65.984375 1 0 1
rainy_epoxyfloor
0 261 -73 5 0 -0.514496 -0.857493 -5.094844 -66.765625 1 0 1
0 361 -58 -4 0 -0.514496 -0.857493 -4.95818 -65.984375 1 0 1
0 361 -73 5 0 -0.514496 -0.857493 -5.094844 -65.984375 1 0 1
pepsi2_arch_concrete_stair01
0 249 3 -316 0 1 0 67.914062 -2.9375 1 0 1
0 249 3 -324 0 1 0 67.914062 -3 1 0 1
0 119 3 -324 0 1 0 68.929688 -3 1 0 1
pepsi2_arch_concrete_stair01
0 249 3 -316 0 1 0 67.914062 -2.9375 1 0 1
0 119 3 -324 0 1 0 68.929688 -3 1 0 1
0 119 3 -316 0 1 0 68.929688 -2.9375 1 0 1
pepsi2_arch_concrete_stair01
0 249 -9 -316 0 0 1 67.914062 7.15625 1 0 1
0 249 3 -316 0 0 1 67.914062 7.0625 1 0 1
0 119 3 -316 0 0 1 68.929688 7.0625 1 0 1
pepsi2_arch_concrete_stair01
0 249 -9 -316 0 0 1 67.914062 7.15625 1 0 1
0 119 3 -316 0 0 1 68.929688 7.0625 1 0 1
0 119 -9 -316 0 0 1 68.929688 7.15625 1 0 1
pepsi2_arch_concrete_stair01
0 249 -225 -164 0 1 0 67.914062 -0.9375 1 0 1
0 249 -225 -172 0 1 0 67.914062 -1 1 0 1
0 119 -225 -172 0 1 0 68.929688 -1 1 0 1
pepsi2_arch_concrete_stair01
0 249 -225 -164 0 1 0 67.914062 -0.9375 1 0 1
0 119 -225 -172 0 1 0 68.929688 -1 1 0 1
0 119 -225 -164 0 1 0 68.929688 -0.9375 1 0 1
pepsi2_arch_concrete_stair01
0 249 -237 -164 0 0 1 67.914062 9.15625 1 0 1
0 249 -225 -164 0 0 1 67.914062 9.0625 1 0 1
0 119 -225 -164 0 0 1 68.929688 9.0625 1 0 1
pepsi2_arch_concrete_stair01
0 249 -237 -164 0 0 1 67.914062 9.15625 1 0 1
0 119 -225 -164 0 0 1 68.929688 9.0625 1 0 1
0 119 -237 -164 0 0 1 68.929688 9.15625 1 0 1
pepsi2_arch_concrete_floor_smooth01
0 126 -293 12 0 -1 0 -69.572266 2 1 0 1
0 102 -293 12 0 -1 0 -69.759766 2 1 0 1
0 102 -293 -148 0 -1 0 -69.759766 3.25 1 0 1
pepsi2_arch_concrete_floor_smooth01
0 126 -293 12 0 -1 0 -69.572266 2 1 0 1
0 102 -293 -148 0 -1 0 -69.759766 3.25 1 0 1
0 126 -293 -148 0 -1 0 -69.572266 3.25 1 0 1
pepsi2_arch_concrete_floor_smooth01
0 98 -289 12 -1 0 0 8.195312 2 1 0 1
0 98 -264.999 12 -1 0 0 8.007805 2 1 0 1
0 98 -264.999 -148 -1 0 0 8.007805 3.25 1 0 1
pepsi2_arch_concrete_floor_smooth01
0 98 -289 12 -1 0 0 8.195312 2 1 0 1
0 98 -264.999 -148 -1 0 0 8.007805 3.25 1 0 1
0 98 -289 -148 -1 0 0 8.195312 3.25 1 0 1
pepsi2_arch_concrete_floor_smooth01
0 130 -289 -148 1 0 0 -8.529297 3.25 1 0 1
0 130 -265.002 -148 1 0 0 -8.341812 3.25 1 0 1
0 130 -265.002 12 1 0 0 -8.341812 2 1 0 1
pepsi2_arch_concrete_floor_smooth01
0 130 -289 -148 1 0 0 -8.529297 3.25 1 0 1
0 130 -265.002 12 1 0 0 -8.341812 2 1 0 1
0 130 -289 12 1 0 0 -8.529297 2 1 0 1
pepsi2_arch_concrete_floor_smooth01
0 126 -293 12 0.707107 -0.707107 0 -54.571561 2 1 0 1
0 126 -293 -148 0.707107 -0.707107 0 -54.571561 3.25 1 0 1
0 130 -289 -148 0.707107 -0.707107 0 -54.527367 3.25 1 0 1
pepsi2_arch_concrete_floor_smooth01
0 126 -293 12 0.707107 -0.707107 0 -54.571561 2 1 0 1
0 130 -289 -148 0.707107 -0.707107 0 -54.527367 3.25 1 0 1
0 130 -289 12 0.707107 -0.707107 0 -54.527367 2 1 0 1
pepsi2_arch_concrete_floor_smooth01
0 102 -293 -148 -0.707107 -0.707107 0 -43.76085 3.25 1 0 1
0 102 -293 12 -0.707107 -0.707107 0 -43.76085 2 1 0 1
0 98 -289 12 -0.707107 -0.707107 0 -43.805044 2 1 0 1
pepsi2_arch_concrete_floor_smooth01
0 102 -293 -148 -0.707107 -0.707107 0 -43.76085 3.25 1 0 1
0 98 -289 12 -0.707107 -0.707107 0 -43.805044 2 1 0 1
0 98 -289 -148 -0.707107 -0.707107 0 -43.805044 3.25 1 0 1
pepsi2_arch_concrete_floor_smooth01
0 130 -265.002 12 0.707283 0.70693 0 43.731542 2 1 0 1
0 130 -265.002 -148 0.707283 0.70693 0 43.731542 3.25 1 0 1
0 126 -261 -148 0.707283 0.70693 0 43.775747 3.25 1 0 1
pepsi2_arch_concrete_floor_smooth01
0 130 -265.002 12 0.707283 0.70693 0 43.731542 2 1 0 1
0 126 -261 -148 0.707283 0.70693 0 43.775747 3.25 1 0 1
0 126 -261 12 0.707283 0.70693 0 43.775747 2 1 0 1
pepsi2_arch_concrete_floor_smooth01
0 98 -264.999 -148 -0.707018 0.707195 0 54.007102 3.25 1 0 1
0 98 -264.999 12 -0.707018 0.707195 0 54.007102 2 1 0 1
0 102 -261 12 -0.707018 0.707195 0 53.962914 2 1 0 1
pepsi2_arch_concrete_floor_smooth01
0 98 -264.999 -148 -0.707018 0.707195 0 54.007102 3.25 1 0 1
0 102 -261 12 -0.707018 0.707195 0 53.962914 2 1 0 1
0 102 -261 -148 -0.707018 0.707195 0 53.962914 3.25 1 0 1
pepsi2_arch_concrete_floor_smooth01
0 126 -261 -148 0 1 0 68.775391 3.25 1 0 1
0 102 -261 -148 0 1 0 68.962891 3.25 1 0 1
0 102 -261 12 0 1 0 68.962891 2 1 0 1
pepsi2_arch_concrete_floor_smooth01
0 126 -261 -148 0 1 0 68.775391 3.25 1 0 1
0 102 -261 12 0 1 0 68.962891 2 1 0 1
0 126 -261 12 0 1 0 68.775391 2 1 0 1
pepsi2_arch_concrete_stair01
0 361 -223 104 0 1 0 -67.082031 0.070312 1 0 1
0 361 -223 95 0 1 0 -67.082031 0 1 0 1
0 261 -223 95 0 1 0 -67.863281 0 1 0 1
pepsi2_arch_concrete_stair01
0 361 -223 104 0 1 0 -67.082031 0.070312 1 0 1
0 261 -223 95 0 1 0 -67.863281 0 1 0 1
0 261 -223 104 0 1 0 -67.863281 0.070312 1 0 1
pepsi2_arch_concrete_stair01
0 361 -238 104 0 0 1 -67.082031 9.1875 1 0 1
0 361 -223 104 0 0 1 -67.082031 9.070312 1 0 1
0 261 -223 104 0 0 1 -67.863281 9.070312 1 0 1
pepsi2_arch_concrete_stair01
0 361 -238 104 0 0 1 -67.082031 9.1875 1 0 1
0 261 -223 104 0 0 1 -67.863281 9.070312 1 0 1
0 261 -238 104 0 0 1 -67.863281 9.1875 1 0 1
rainy_epoxyfloor
0 261 -238 104 0 -0.514496 -0.857493 -6.598148 -66.765625 1 0 1
0 261 -223 95 0 -0.514496 -0.857493 -6.461484 -66.765625 1 0 1
0 361 -223 95 0 -0.514496 -0.857493 -6.461484 -65.984375 1 0 1
rainy_epoxyfloor
0 261 -238 104 0 -0.514496 -0.857493 -6.598148 -66.765625 1 0 1
0 361 -223 95 0 -0.514496 -0.857493 -6.461484 -65.984375 1 0 1
0 361 -238 104 0 -0.514496 -0.857493 -6.598148 -65.984375 1 0 1
pepsi2_arch_concrete_stair01
0 361 -208 95 0 1 0 -67.082031 0.070312 1 0 1
0 361 -208 86 0 1 0 -67.082031 0 1 0 1
0 261 -208 86 0 1 0 -67.863281 0 1 0 1
pepsi2_arch_concrete_stair01
0 361 -208 95 0 1 0 -67.082031 0.070312 1 0 1
0 261 -208 86 0 1 0 -67.863281 0 1 0 1
0 261 -208 95 0 1 0 -67.863281 0.070312 1 0 1
pepsi2_arch_concrete_stair01
0 361 -223 95 0 0 1 -67.082031 9.1875 1 0 1
0 361 -208 95 0 0 1 -67.082031 9.070312 1 0 1
0 261 -208 95 0 0 1 -67.863281 9.070312 1 0 1
pepsi2_arch_concrete_stair01
0 361 -223 95 0 0 1 -67.082031 9.1875 1 0 1
0 261 -208 95 0 0 1 -67.863281 9.070312 1 0 1
0 261 -223 95 0 0 1 -67.863281 9.1875 1 0 1
rainy_epoxyfloor
0 261 -223 95 0 -0.514496 -0.857493 -6.461484 -66.765625 1 0 1
0 261 -208 86 0 -0.514496 -0.857493 -6.32482 -66.765625 1 0 1
0 361 -208 86 0 -0.514496 -0.857493 -6.32482 -65.984375 1 0 1
rainy_epoxyfloor
0 261 -223 95 0 -0.514496 -0.857493 -6.461484 -66.765625 1 0 1
0 361 -208 86 0 -0.514496 -0.857493 -6.32482 -65.984375 1 0 1
0 361 -223 95 0 -0.514496 -0.857493 -6.461484 -65.984375 1 0 1
pepsi2_arch_concrete_stair01
0 249 -105 -244 0 1 0 67.914062 -1.9375 1 0 1
0 249 -105 -252 0 1 0 67.914062 -2 1 0 1
0 119 -105 -252 0 1 0 68.929688 -2 1 0 1
pepsi2_arch_concrete_stair01
0 249 -105 -244 0 1 0 67.914062 -1.9375 1 0 1
0 119 -105 -252 0 1 0 68.929688 -2 1 0 1
0 119 -105 -244 0 1 0 68.929688 -1.9375 1 0 1
pepsi2_arch_concrete_stair01
0 249 -117 -244 0 0 1 67.914062 8.15625 1 0 1
0 249 -105 -244 0 0 1 67.914062 8.0625 1 0 1
0 119 -105 -244 0 0 1 68.929688 8.0625 1 0 1
pepsi2_arch_concrete_stair01
0 249 -117 -244 0 0 1 67.914062 8.15625 1 0 1
0 119 -105 -244 0 0 1 68.929688 8.0625 1 0 1
0 119 -117 -244 0 0 1 68.929688 8.15625 1 0 1
pepsi2_arch_concrete_wall01
0 107 -261 -148 -1 0 0 -8.179688 3.125 1 0 1
0 107 -261 -98.001 -1 0 0 -8.179688 2.734383 1 0 1
0 107 30 -98.001 -1 0 0 -5.90625 2.734383 1 0 1
pepsi2_arch_concrete_wall01
0 107 -261 -148 -1 0 0 -8.179688 3.125 1 0 1
0 107 30 -98.001 -1 0 0 -5.90625 2.734383 1 0 1
0 107 30 -148 -1 0 0 -5.90625 3.125 1 0 1
pepsi2_arch_concrete_wall01
0 119 -261 -98 1 0 0 -8.179688 2.734375 1 0 1
0 119 -261 -148 1 0 0 -8.179688 3.125 1 0 1
0 119 30 -148 1 0 0 -5.90625 3.125 1 0 1
pepsi2_arch_concrete_wall01
0 119 -261 -98 1 0 0 -8.179688 2.734375 1 0 1
0 119 30 -148 1 0 0 -5.90625 3.125 1 0 1
0 119 30 -98 1 0 0 -5.90625 2.734375 1 0 1
pepsi2_arch_concrete_wall01
0 109 -261 -96 0 0 1 -8.179688 -68.349609 1 0 1
0 117 -261 -96 0 0 1 -8.179688 -68.287109 1 0 1
0 117 30 -96 0 0 1 -5.90625 -68.287109 1 0 1
pepsi2_arch_concrete_wall01
0 109 -261 -96 0 0 1 -8.179688 -68.349609 1 0 1
0 117 30 -96 0 0 1 -5.90625 -68.287109 1 0 1
0 109 30 -96 0 0 1 -5.90625 -68.349609 1 0 1
pepsi2_arch_concrete_wall01
0 107 -261 -98.001 -0.707283 0 0.70693 -8.179688 51.734754 1 0 1
0 109 -261 -96 -0.707283 0 0.70693 -8.179688 51.712652 1 0 1
0 109 30 -96 -0.707283 0 0.70693 -5.90625 51.712652 1 0 1
pepsi2_arch_concrete_wall01
0 107 -261 -98.001 -0.707283 0 0.70693 -8.179688 51.734754 1 0 1
0 109 30 -96 -0.707283 0 0.70693 -5.90625 51.712652 1 0 1
0 107 30 -98.001 -0.707283 0 0.70693 -5.90625 51.734754 1 0 1
pepsi2_arch_concrete_wall01
0 117 -261 -96 0.707107 0 0.707107 -8.179688 -46.287058 1 0 1
0 119 -261 -98 0.707107 0 0.707107 -8.179688 -46.264961 1 0 1
0 119 30 -98 0.707107 0 0.707107 -5.90625 -46.264961 1 0 1
pepsi2_arch_concrete_wall01
0 117 -261 -96 0.707107 0 0.707107 -8.179688 -46.287058 1 0 1
0 119 30 -98 0.707107 0 0.707107 -5.90625 -46.264961 1 0 1
0 117 30 -96 0.707107 0 0.707107 -5.90625 -46.287058 1 0 1
pepsi2_arch_concrete_stair01
0 119 -21 -308 0 0 1 68.929688 7.15625 1 0 1
0 249 -21 -308 0 0 1 67.914062 7.15625 1 0 1
0 249 -9 -308 0 0 1 67.914062 7.0625 1 0 1
pepsi2_arch_concrete_stair01
0 119 -21 -308 0 0 1 68.929688 7.15625 1 0 1
0 249 -9 -308 0 0 1 67.914062 7.0625 1 0 1
0 119 -9 -308 0 0 1 68.929688 7.0625 1 0 1
pepsi2_arch_concrete_stair01
0 249 -9 -308 0 1 0 67.914062 -1.9375 1 0 1
0 249 -9 -316 0 1 0 67.914062 -2 1 0 1
0 119 -9 -316 0 1 0 68.929688 -2 1 0 1
pepsi2_arch_concrete_stair01
0 249 -9 -308 0 1 0 67.914062 -1.9375 1 0 1
0 119 -9 -316 0 1 0 68.929688 -2 1 0 1
0 119 -9 -308 0 1 0 68.929688 -1.9375 1 0 1
pepsi2_arch_concrete_stair01
0 249 -69 -268 0 1 0 67.914062 -1.9375 1 0 1
0 249 -69 -276 0 1 0 67.914062 -2 1 0 1
0 119 -69 -276 0 1 0 68.929688 -2 1 0 1
pepsi2_arch_concrete_stair01
0 249 -69 -268 0 1 0 67.914062 -1.9375 1 0 1
0 119 -69 -276 0 1 0 68.929688 -2 1 0 1
0 119 -69 -268 0 1 0 68.929688 -1.9375 1 0 1
pepsi2_arch_concrete_stair01
0 249 -81 -268 0 0 1 67.914062 8.15625 1 0 1
0 249 -69 -268 0 0 1 67.914062 8.0625 1 0 1
0 119 -69 -268 0 0 1 68.929688 8.0625 1 0 1
pepsi2_arch_concrete_stair01
0 249 -81 -268 0 0 1 67.914062 8.15625 1 0 1
0 119 -69 -268 0 0 1 68.929688 8.0625 1 0 1
0 119 -81 -268 0 0 1 68.929688 8.15625 1 0 1
pepsi2_arch_concrete_stair01
0 249 -201 -180 0 1 0 67.914062 -0.9375 1 0 1
0 249 -201 -188 0 1 0 67.914062 -1 1 0 1
0 119 -201 -188 0 1 0 68.929688 -1 1 0 1
pepsi2_arch_concrete_stair01
0 249 -201 -180 0 1 0 67.914062 -0.9375 1 0 1
0 119 -201 -188 0 1 0 68.929688 -1 1 0 1
0 119 -201 -180 0 1 0 68.929688 -0.9375 1 0 1
pepsi2_arch_concrete_stair01
0 249 -213 -180 0 0 1 67.914062 9.15625 1 0 1
0 249 -201 -180 0 0 1 67.914062 9.0625 1 0 1
0 119 -201 -180 0 0 1 68.929688 9.0625 1 0 1
pepsi2_arch_concrete_stair01
0 249 -213 -180 0 0 1 67.914062 9.15625 1 0 1
0 119 -201 -180 0 0 1 68.929688 9.0625 1 0 1
0 119 -213 -180 0 0 1 68.929688 9.15625 1 0 1
end
