version 1
nodes
0 "root" -1
end
skeleton
time 0
0 0 0 0 0 0 0
end
triangles
pepsi2_arch_stairs01
0 -168 63.97 337.447 -1 0 0 -2.125828 85.985312 1 0 1
0 -168 80 337.447 -1 0 0 -2.125828 85.484375 1 0 1
0 -168 80 321.914 -1 0 0 -2.368531 85.484375 1 0 1
pepsi2_arch_stairs01
0 -68 63.97 337.447 0 0 1 -196.5625 85.985312 1 0 1
0 -68 80 337.447 0 0 1 -196.5625 85.484375 1 0 1
0 -168 80 337.447 0 0 1 -198.125 85.484375 1 0 1
pepsi2_arch_stairs01
0 -68 63.97 337.447 0 0 1 -196.5625 85.985312 1 0 1
0 -168 80 337.447 0 0 1 -198.125 85.484375 1 0 1
0 -168 63.97 337.447 0 0 1 -198.125 85.985312 1 0 1
pepsi2_arch_stairs01
0 -68 80 337.447 0 1 0 -196.5625 -3.517281 1 0 1
0 -68 80 321.914 0 1 0 -196.5625 -4.002687 1 0 1
0 -168 80 321.914 0 1 0 -198.125 -4.002688 1 0 1
pepsi2_arch_stairs01
0 -68 80 337.447 0 1 0 -196.5625 -3.517281 1 0 1
0 -168 80 321.914 0 1 0 -198.125 -4.002688 1 0 1
0 -168 80 337.447 0 1 0 -198.125 -3.517281 1 0 1
de_nuke_nuke_beam_01
0 180 -36 193 -1 0 0 1.666853 -14.919364 1 0 1
0 180 -36 213 -1 0 0 1.555246 -14.919364 1 0 1
0 180 204 213 -1 0 0 1.555246 -13.580078 1 0 1
de_nuke_nuke_beam_01
0 180 -36 193 -1 0 0 1.666853 -14.919364 1 0 1
0 180 204 213 -1 0 0 1.555246 -13.580078 1 0 1
0 180 204 193 -1 0 0 1.666853 -13.580078 1 0 1
de_nuke_nuke_beam_01
0 210 -36 213 1 0 0 1.555246 -14.919364 1 0 1
0 210 -36 193 1 0 0 1.666853 -14.919364 1 0 1
0 210 204 193 1 0 0 1.666853 -13.580078 1 0 1
de_nuke_nuke_beam_01
0 210 -36 213 1 0 0 1.555246 -14.919364 1 0 1
0 210 204 193 1 0 0 1.666853 -13.580078 1 0 1
0 210 204 213 1 0 0 1.555246 -13.580078 1 0 1
de_nuke_nuke_beam_01
0 210 -36 193 0 0 -1 68.667132 -14.919364 1 0 1
0 180 -36 193 0 0 -1 68.834542 -14.919364 1 0 1
0 180 204 193 0 0 -1 68.834542 -13.580078 1 0 1
de_nuke_nuke_beam_01
0 210 -36 193 0 0 -1 68.667132 -14.919364 1 0 1
0 180 204 193 0 0 -1 68.834542 -13.580078 1 0 1
0 210 204 193 0 0 -1 68.667132 -13.580078 1 0 1
de_nuke_nuke_beam_01
0 180 -36 213 0 0 1 68.834542 -14.919364 1 0 1
0 210 -36 213 0 0 1 68.667132 -14.919364 1 0 1
0 210 204 213 0 0 1 68.667132 -13.580078 1 0 1
de_nuke_nuke_beam_01
0 180 -36 213 0 0 1 68.834542 -14.919364 1 0 1
0 210 204 213 0 0 1 68.667132 -13.580078 1 0 1
0 180 204 213 0 0 1 68.834542 -13.580078 1 0 1
pepsi2_arch_stairs01
0 -29 -128 16 1 0 0 46.003906 16 1 0 1
0 -29 -128 -0.003 1 0 0 46.003906 16.500094 1 0 1
0 -29 -72 -0.003 1 0 0 45.128906 16.500094 1 0 1
pepsi2_arch_stairs01
0 -29 -128 16 1 0 0 46.003906 16 1 0 1
0 -29 -72 -0.003 1 0 0 45.128906 16.500094 1 0 1
0 -29 -72 16 1 0 0 45.128906 16 1 0 1
pepsi2_arch_stairs01
0 -45 -128 16 0 0 1 46.003906 -391.5 1 0 1
0 -29 -128 16 0 0 1 46.003906 -391 1 0 1
0 -29 -72 16 0 0 1 45.128906 -391 1 0 1
pepsi2_arch_stairs01
0 -45 -128 16 0 0 1 46.003906 -391.5 1 0 1
0 -29 -72 16 0 0 1 45.128906 -391 1 0 1
0 -45 -72 16 0 0 1 45.128906 -391.5 1 0 1
pepsi2_arch_stairs01
0 -68 128 290.906 0 1 0 -196.5625 -5.518562 1 0 1
0 -68 128 275.395 0 1 0 -196.5625 -6.003281 1 0 1
0 -168 128 275.395 0 1 0 -198.125 -6.003281 1 0 1
pepsi2_arch_stairs01
0 -68 128 290.906 0 1 0 -196.5625 -5.518562 1 0 1
0 -168 128 275.395 0 1 0 -198.125 -6.003281 1 0 1
0 -168 128 290.906 0 1 0 -198.125 -5.518562 1 0 1
pepsi2_arch_stairs01
0 -168 112 290.906 -1 0 0 -3.126469 84.984375 1 0 1
0 -168 128 290.906 -1 0 0 -3.126469 84.484375 1 0 1
0 -168 128 275.395 -1 0 0 -3.368828 84.484375 1 0 1
pepsi2_arch_stairs01
0 -68 112 290.906 0 0 1 -196.5625 84.984375 1 0 1
0 -68 128 290.906 0 0 1 -196.5625 84.484375 1 0 1
0 -168 128 290.906 0 0 1 -198.125 84.484375 1 0 1
pepsi2_arch_stairs01
0 -68 112 290.906 0 0 1 -196.5625 84.984375 1 0 1
0 -168 128 290.906 0 0 1 -198.125 84.484375 1 0 1
0 -168 112 290.906 0 0 1 -198.125 84.984375 1 0 1
pepsi2_arch_stairs01
0 -168 32 368.482 0 0 1 -198.125 86.984375 1 0 1
0 -68 32 368.482 0 0 1 -196.5625 86.984375 1 0 1
0 -68 48 368.482 0 0 1 -196.5625 86.484375 1 0 1
pepsi2_arch_stairs01
0 -168 32 368.482 0 0 1 -198.125 86.984375 1 0 1
0 -68 48 368.482 0 0 1 -196.5625 86.484375 1 0 1
0 -168 48 368.482 0 0 1 -198.125 86.484375 1 0 1
pepsi2_arch_stairs01
0 -68 48 352.971 0 1 0 -196.5625 -3.000906 1 0 1
0 -168 48 352.971 0 1 0 -198.125 -3.000906 1 0 1
0 -168 48 368.482 0 1 0 -198.125 -2.516187 1 0 1
pepsi2_arch_stairs01
0 -68 48 352.971 0 1 0 -196.5625 -3.000906 1 0 1
0 -168 48 368.482 0 1 0 -198.125 -2.516187 1 0 1
0 -68 48 368.482 0 1 0 -196.5625 -2.516187 1 0 1
pepsi2_arch_stairs01
0 -168 32 368.482 -1 0 0 -1.125281 86.984375 1 0 1
0 -168 48 368.482 -1 0 0 -1.125281 86.484375 1 0 1
0 -168 48 352.971 -1 0 0 -1.367641 86.484375 1 0 1
de_nuke_nuke_beam_01
0 -229 -204 233.999 0 1 0 -99.15625 -0.798836 1 0 1
0 -229 -204 122 0 1 0 -99.15625 -1.673828 1 0 1
0 -233 -204 122 0 1 0 -99.1875 -1.673828 1 0 1
de_nuke_nuke_beam_01
0 -229 -204 233.999 0 1 0 -99.15625 -0.798836 1 0 1
0 -233 -204 122 0 1 0 -99.1875 -1.673828 1 0 1
0 -233 -204 229.999 0 1 0 -99.1875 -0.830086 1 0 1
de_nuke_nuke_beam_01
0 -229 -220 122 0 -1 0 99.15625 -1.673828 1 0 1
0 -229 -220 233.999 0 -1 0 99.15625 -0.798836 1 0 1
0 -233 -220 229.999 0 -1 0 99.1875 -0.830086 1 0 1
de_nuke_nuke_beam_01
0 -229 -220 122 0 -1 0 99.15625 -1.673828 1 0 1
0 -233 -220 229.999 0 -1 0 99.1875 -0.830086 1 0 1
0 -233 -220 122 0 -1 0 99.1875 -1.673828 1 0 1
de_nuke_nuke_beam_01
0 -233 -220 122 -1 0 0 -23.8125 -1.673828 1 0 1
0 -233 -220 229.999 -1 0 0 -23.8125 -0.830086 1 0 1
0 -233 -204 229.999 -1 0 0 -23.6875 -0.830086 1 0 1
de_nuke_nuke_beam_01
0 -233 -220 122 -1 0 0 -23.8125 -1.673828 1 0 1
0 -233 -204 229.999 -1 0 0 -23.6875 -0.830086 1 0 1
0 -233 -204 122 -1 0 0 -23.6875 -1.673828 1 0 1
pepsi2_arch_stairs01
0 -61 -128 48 1 0 0 46.003906 15 1 0 1
0 -61 -128 31.997 1 0 0 46.003906 15.500094 1 0 1
0 -61 -72 31.997 1 0 0 45.128906 15.500094 1 0 1
pepsi2_arch_stairs01
0 -61 -128 48 1 0 0 46.003906 15 1 0 1
0 -61 -72 31.997 1 0 0 45.128906 15.500094 1 0 1
0 -61 -72 48 1 0 0 45.128906 15 1 0 1
pepsi2_arch_stairs01
0 -77 -128 48 0 0 1 46.003906 -392.5 1 0 1
0 -61 -128 48 0 0 1 46.003906 -392 1 0 1
0 -61 -72 48 0 0 1 45.128906 -392 1 0 1
pepsi2_arch_stairs01
0 -77 -128 48 0 0 1 46.003906 -392.5 1 0 1
0 -61 -72 48 0 0 1 45.128906 -392 1 0 1
0 -77 -72 48 0 0 1 45.128906 -392.5 1 0 1
pepsi2_arch_stairs01
0 -68 144 275.396 0 1 0 -196.5625 -5.518875 1 0 1
0 -68 144 259.885 0 1 0 -196.5625 -6.003594 1 0 1
0 -168 144 259.885 0 1 0 -198.125 -6.003594 1 0 1
pepsi2_arch_stairs01
0 -68 144 275.396 0 1 0 -196.5625 -5.518875 1 0 1
0 -168 144 259.885 0 1 0 -198.125 -6.003594 1 0 1
0 -168 144 275.396 0 1 0 -198.125 -5.518875 1 0 1
pepsi2_arch_stairs01
0 -168 128 275.396 -1 0 0 -3.126625 83.984375 1 0 1
0 -168 144 275.396 -1 0 0 -3.126625 83.484375 1 0 1
0 -168 144 259.885 -1 0 0 -3.368984 83.484375 1 0 1
pepsi2_arch_stairs01
0 -68 128 275.396 0 0 1 -196.5625 83.984375 1 0 1
0 -68 144 275.396 0 0 1 -196.5625 83.484375 1 0 1
0 -168 144 275.396 0 0 1 -198.125 83.484375 1 0 1
pepsi2_arch_stairs01
0 -68 128 275.396 0 0 1 -196.5625 83.984375 1 0 1
0 -168 144 275.396 0 0 1 -198.125 83.484375 1 0 1
0 -168 128 275.396 0 0 1 -198.125 83.984375 1 0 1
de_nuke_nuke_beam_01
0 -196 -36 193 -1 0 0 1.666853 -14.919364 1 0 1
0 -196 -36 213 -1 0 0 1.555246 -14.919364 1 0 1
0 -196 204 213 -1 0 0 1.555246 -13.580078 1 0 1
de_nuke_nuke_beam_01
0 -196 -36 193 -1 0 0 1.666853 -14.919364 1 0 1
0 -196 204 213 -1 0 0 1.555246 -13.580078 1 0 1
0 -196 204 193 -1 0 0 1.666853 -13.580078 1 0 1
de_nuke_nuke_beam_01
0 -166 -36 213 1 0 0 1.555246 -14.919364 1 0 1
0 -166 -36 193 1 0 0 1.666853 -14.919364 1 0 1
0 -166 204 193 1 0 0 1.666853 -13.580078 1 0 1
de_nuke_nuke_beam_01
0 -166 -36 213 1 0 0 1.555246 -14.919364 1 0 1
0 -166 204 193 1 0 0 1.666853 -13.580078 1 0 1
0 -166 204 213 1 0 0 1.555246 -13.580078 1 0 1
de_nuke_nuke_beam_01
0 -166 -36 193 0 0 -1 70.665737 -14.919364 1 0 1
0 -196 -36 193 0 0 -1 70.833147 -14.919364 1 0 1
0 -196 204 193 0 0 -1 70.833147 -13.580078 1 0 1
de_nuke_nuke_beam_01
0 -166 -36 193 0 0 -1 70.665737 -14.919364 1 0 1
0 -196 204 193 0 0 -1 70.833147 -13.580078 1 0 1
0 -166 204 193 0 0 -1 70.665737 -13.580078 1 0 1
de_nuke_nuke_beam_01
0 -196 -36 213 0 0 1 70.833147 -14.919364 1 0 1
0 -166 -36 213 0 0 1 70.665737 -14.919364 1 0 1
0 -166 204 213 0 0 1 70.665737 -13.580078 1 0 1
de_nuke_nuke_beam_01
0 -196 -36 213 0 0 1 70.833147 -14.919364 1 0 1
0 -166 204 213 0 0 1 70.665737 -13.580078 1 0 1
0 -196 204 213 0 0 1 70.833147 -13.580078 1 0 1
de_nuke_nuke_beam_01
0 -233 -204 230 0 1 0 -2.189453 -98.451172 1 0 1
0 -281 -204 230 0 1 0 -2.189453 -98.826172 1 0 1
0 -285 -204 234 0 1 0 -2.158203 -98.857422 1 0 1
de_nuke_nuke_beam_01
0 -233 -204 230 0 1 0 -2.189453 -98.451172 1 0 1
0 -285 -204 234 0 1 0 -2.158203 -98.857422 1 0 1
0 -229 -204 234 0 1 0 -2.158203 -98.419922 1 0 1
de_nuke_nuke_beam_01
0 -229 -220 234 0 -1 0 1.658203 -98.419922 1 0 1
0 -285 -220 234 0 -1 0 1.658203 -98.857422 1 0 1
0 -281 -220 230 0 -1 0 1.689453 -98.826172 1 0 1
de_nuke_nuke_beam_01
0 -229 -220 234 0 -1 0 1.658203 -98.419922 1 0 1
0 -281 -220 230 0 -1 0 1.689453 -98.826172 1 0 1
0 -233 -220 230 0 -1 0 1.689453 -98.451172 1 0 1
de_nuke_nuke_beam_01
0 -233 -220 230 0 0 -1 -23.8125 -98.451172 1 0 1
0 -281 -220 230 0 0 -1 -23.8125 -98.826172 1 0 1
0 -281 -204 230 0 0 -1 -23.6875 -98.826172 1 0 1
de_nuke_nuke_beam_01
0 -233 -220 230 0 0 -1 -23.8125 -98.451172 1 0 1
0 -281 -204 230 0 0 -1 -23.6875 -98.826172 1 0 1
0 -233 -204 230 0 0 -1 -23.6875 -98.451172 1 0 1
concrete_concrete_mall_clean00
0 -68 16 380.126 0 -1 0 -0.483391 -97.253906 1 0 1
0 -68 16 383.991 0 -1 0 -0.453195 -97.253906 1 0 1
0 -168 16 383.991 0 -1 0 -0.453195 -98.035156 1 0 1
concrete_concrete_mall_clean00
0 -68 16 380.126 0 -1 0 -0.483391 -97.253906 1 0 1
0 -168 16 383.991 0 -1 0 -0.453195 -98.035156 1 0 1
0 -168 16 380.126 0 -1 0 -0.483391 -98.035156 1 0 1
concrete_concrete_mall_clean00
0 -168 16 380.126 -1 0 0 15.525184 16.964001 1 0 1
0 -168 16 383.991 -1 0 0 15.546203 16.942324 1 0 1
0 -168 144 259.869 -1 0 0 14.153292 16.942374 1 0 1
concrete_concrete_mall_clean00
0 -168 16 380.126 -1 0 0 15.525184 16.964001 1 0 1
0 -168 144 259.869 -1 0 0 14.153292 16.942374 1 0 1
0 -168 144 256 -1 0 0 14.132252 16.964073 1 0 1
concrete_concrete_mall_clean00
0 -68 16 380.126 0 -0.69616 -0.717887 15.525184 -97.253906 1 0 1
0 -168 16 380.126 0 -0.69616 -0.717887 15.525184 -98.035156 1 0 1
0 -168 144 256 0 -0.69616 -0.717887 14.132252 -98.035156 1 0 1
concrete_concrete_mall_clean00
0 -68 16 380.126 0 -0.69616 -0.717887 15.525184 -97.253906 1 0 1
0 -168 144 256 0 -0.69616 -0.717887 14.132252 -98.035156 1 0 1
0 -68 144 256 0 -0.69616 -0.717887 14.132252 -97.253906 1 0 1
pepsi2_arch_stairs01
0 -168 96 306.421 0 0 1 -198.125 84.984375 1 0 1
0 -68 96 306.421 0 0 1 -196.5625 84.984375 1 0 1
0 -68 112 306.421 0 0 1 -196.5625 84.484375 1 0 1
pepsi2_arch_stairs01
0 -168 96 306.421 0 0 1 -198.125 84.984375 1 0 1
0 -68 112 306.421 0 0 1 -196.5625 84.484375 1 0 1
0 -168 112 306.421 0 0 1 -198.125 84.484375 1 0 1
pepsi2_arch_stairs01
0 -68 112 290.906 0 1 0 -196.5625 -5.002938 1 0 1
0 -168 112 290.906 0 1 0 -198.125 -5.002938 1 0 1
0 -168 112 306.421 0 1 0 -198.125 -4.518094 1 0 1
pepsi2_arch_stairs01
0 -68 112 290.906 0 1 0 -196.5625 -5.002938 1 0 1
0 -168 112 306.421 0 1 0 -198.125 -4.518094 1 0 1
0 -68 112 306.421 0 1 0 -196.5625 -4.518094 1 0 1
pepsi2_arch_stairs01
0 -168 96 306.421 -1 0 0 -2.126234 84.984375 1 0 1
0 -168 112 306.421 -1 0 0 -2.126234 84.484375 1 0 1
0 -168 112 290.906 -1 0 0 -2.368656 84.484375 1 0 1
de_nuke_nuke_beam_01
0 -21 -36 0 0 1 0 97.84375 -2.673828 1 0 1
0 -21 -36 112.004 0 1 0 97.84375 -1.798797 1 0 1
0 -17 -36 108.017 0 1 0 97.8125 -1.829945 1 0 1
de_nuke_nuke_beam_01
0 -21 -36 0 0 1 0 97.84375 -2.673828 1 0 1
0 -17 -36 108.017 0 1 0 97.8125 -1.829945 1 0 1
0 -17 -36 0 0 1 0 97.8125 -2.673828 1 0 1
de_nuke_nuke_beam_01
0 -17 -52 0 0 -1 0 -97.8125 -2.673828 1 0 1
0 -17 -52 108.017 0 -1 0 -97.8125 -1.829945 1 0 1
0 -21 -52 112.004 0 -1 0 -97.84375 -1.798797 1 0 1
de_nuke_nuke_beam_01
0 -17 -52 0 0 -1 0 -97.8125 -2.673828 1 0 1
0 -21 -52 112.004 0 -1 0 -97.84375 -1.798797 1 0 1
0 -21 -52 0 0 -1 0 -97.84375 -2.673828 1 0 1
de_nuke_nuke_beam_01
0 -17 -36 0 1 0 0 -22.1875 -2.673828 1 0 1
0 -17 -36 108.017 1 0 0 -22.1875 -1.829945 1 0 1
0 -17 -52 108.017 1 0 0 -22.3125 -1.829945 1 0 1
de_nuke_nuke_beam_01
0 -17 -36 0 1 0 0 -22.1875 -2.673828 1 0 1
0 -17 -52 108.017 1 0 0 -22.3125 -1.829945 1 0 1
0 -17 -52 0 1 0 0 -22.3125 -2.673828 1 0 1
pepsi2_arch_stairs01
0 -93 -128 63.997 1 0 0 46.003906 14.500094 1 0 1
0 -93 -72 63.997 1 0 0 45.128906 14.500094 1 0 1
0 -93 -72 80 1 0 0 45.128906 14 1 0 1
pepsi2_arch_stairs01
0 -93 -128 63.997 1 0 0 46.003906 14.500094 1 0 1
0 -93 -72 80 1 0 0 45.128906 14 1 0 1
0 -93 -128 80 1 0 0 46.003906 14 1 0 1
pepsi2_arch_stairs01
0 -93 -128 80 0 0 1 46.003906 -393 1 0 1
0 -93 -72 80 0 0 1 45.128906 -393 1 0 1
0 -109 -72 80 0 0 1 45.128906 -393.5 1 0 1
pepsi2_arch_stairs01
0 -93 -128 80 0 0 1 46.003906 -393 1 0 1
0 -109 -72 80 0 0 1 45.128906 -393.5 1 0 1
0 -109 -128 80 0 0 1 46.003906 -393.5 1 0 1
pepsi2_arch_stairs01
0 -125 -72 112 0 0 1 45.128906 -394 1 0 1
0 -141 -72 112 0 0 1 45.128906 -394.5 1 0 1
0 -141 -128 112 0 0 1 46.003906 -394.5 1 0 1
pepsi2_arch_stairs01
0 -125 -72 112 0 0 1 45.128906 -394 1 0 1
0 -141 -128 112 0 0 1 46.003906 -394.5 1 0 1
0 -125 -128 112 0 0 1 46.003906 -394 1 0 1
pepsi2_arch_stairs01
0 -125 -128 95.997 1 0 0 46.003906 13.500094 1 0 1
0 -125 -72 95.997 1 0 0 45.128906 13.500094 1 0 1
0 -125 -72 112 1 0 0 45.128906 13 1 0 1
pepsi2_arch_stairs01
0 -125 -128 95.997 1 0 0 46.003906 13.500094 1 0 1
0 -125 -72 112 1 0 0 45.128906 13 1 0 1
0 -125 -128 112 1 0 0 46.003906 13 1 0 1
de_nuke_nuke_beam_01
0 35 -36 111.999 0 1 0 -97.15625 -1.798836 1 0 1
0 35 -36 0 0 1 0 -97.15625 -2.673828 1 0 1
0 31 -36 0 0 1 0 -97.1875 -2.673828 1 0 1
de_nuke_nuke_beam_01
0 35 -36 111.999 0 1 0 -97.15625 -1.798836 1 0 1
0 31 -36 0 0 1 0 -97.1875 -2.673828 1 0 1
0 31 -36 107.999 0 1 0 -97.1875 -1.830086 1 0 1
de_nuke_nuke_beam_01
0 35 -52 0 0 -1 0 97.15625 -2.673828 1 0 1
0 35 -52 111.999 0 -1 0 97.15625 -1.798836 1 0 1
0 31 -52 107.999 0 -1 0 97.1875 -1.830086 1 0 1
de_nuke_nuke_beam_01
0 35 -52 0 0 -1 0 97.15625 -2.673828 1 0 1
0 31 -52 107.999 0 -1 0 97.1875 -1.830086 1 0 1
0 31 -52 0 0 -1 0 97.1875 -2.673828 1 0 1
de_nuke_nuke_beam_01
0 31 -52 0 -1 0 0 -22.3125 -2.673828 1 0 1
0 31 -52 107.999 -1 0 0 -22.3125 -1.830086 1 0 1
0 31 -36 107.999 -1 0 0 -22.1875 -1.830086 1 0 1
de_nuke_nuke_beam_01
0 31 -52 0 -1 0 0 -22.3125 -2.673828 1 0 1
0 31 -36 107.999 -1 0 0 -22.1875 -1.830086 1 0 1
0 31 -36 0 -1 0 0 -22.1875 -2.673828 1 0 1
pepsi2_arch_stairs01
0 -45 -128 32 1 0 0 46.003906 15.5 1 0 1
0 -45 -128 15.997 1 0 0 46.003906 16.000094 1 0 1
0 -45 -72 15.997 1 0 0 45.128906 16.000094 1 0 1
pepsi2_arch_stairs01
0 -45 -128 32 1 0 0 46.003906 15.5 1 0 1
0 -45 -72 15.997 1 0 0 45.128906 16.000094 1 0 1
0 -45 -72 32 1 0 0 45.128906 15.5 1 0 1
pepsi2_arch_stairs01
0 -61 -128 32 0 0 1 46.003906 -391.5 1 0 1
0 -45 -128 32 0 0 1 46.003906 -391 1 0 1
0 -45 -72 32 0 0 1 45.128906 -391 1 0 1
pepsi2_arch_stairs01
0 -61 -128 32 0 0 1 46.003906 -391.5 1 0 1
0 -45 -72 32 0 0 1 45.128906 -391 1 0 1
0 -61 -72 32 0 0 1 45.128906 -391.5 1 0 1
pepsi2_arch_stairs01
0 -68 32 384 0 1 0 -196.5625 -2.515625 1 0 1
0 -68 32 368.492698 0 1 0 -196.5625 -3.000228 1 0 1
0 -168 32 368.483 0 1 0 -198.125 -3.000531 1 0 1
pepsi2_arch_stairs01
0 -68 32 384 0 1 0 -196.5625 -2.515625 1 0 1
0 -168 32 368.483 0 1 0 -198.125 -3.000531 1 0 1
0 -168 32 384 0 1 0 -198.125 -2.515625 1 0 1
pepsi2_arch_stairs01
0 -168 16 384 -1 0 0 -1.125 87.984375 1 0 1
0 -168 32 384 -1 0 0 -1.125 87.484375 1 0 1
0 -168 32 368.483 -1 0 0 -1.367453 87.484375 1 0 1
pepsi2_arch_stairs01
0 -68 16.01 384 0 0 1 -196.5625 87.984062 1 0 1
0 -68 32 384 0 0 1 -196.5625 87.484375 1 0 1
0 -168 32 384 0 0 1 -198.125 87.484375 1 0 1
pepsi2_arch_stairs01
0 -68 16.01 384 0 0 1 -196.5625 87.984062 1 0 1
0 -168 32 384 0 0 1 -198.125 87.484375 1 0 1
0 -168 16 384 0 0 1 -198.125 87.984375 1 0 1
pepsi2_arch_stairs01
0 -68 96 321.934 0 1 0 -196.5625 -4.517688 1 0 1
0 -68 96 306.423 0 1 0 -196.5625 -5.002406 1 0 1
0 -168 96 306.423 0 1 0 -198.125 -5.002406 1 0 1
pepsi2_arch_stairs01
0 -68 96 321.934 0 1 0 -196.5625 -4.517688 1 0 1
0 -168 96 306.423 0 1 0 -198.125 -5.002406 1 0 1
0 -168 96 321.934 0 1 0 -198.125 -4.517687 1 0 1
pepsi2_arch_stairs01
0 -168 80 321.934 -1 0 0 -2.126031 85.984375 1 0 1
0 -168 96 321.934 -1 0 0 -2.126031 85.484375 1 0 1
0 -168 96 306.423 -1 0 0 -2.368391 85.484375 1 0 1
pepsi2_arch_stairs01
0 -68 80 321.934 0 0 1 -196.5625 85.984375 1 0 1
0 -68 96 321.934 0 0 1 -196.5625 85.484375 1 0 1
0 -168 96 321.934 0 0 1 -198.125 85.484375 1 0 1
pepsi2_arch_stairs01
0 -68 80 321.934 0 0 1 -196.5625 85.984375 1 0 1
0 -168 96 321.934 0 0 1 -198.125 85.484375 1 0 1
0 -168 80 321.934 0 0 1 -198.125 85.984375 1 0 1
pepsi2_arch_stairs01
0 -109 -128 96 1 0 0 46.003906 13.5 1 0 1
0 -109 -128 79.997 1 0 0 46.003906 14.000094 1 0 1
0 -109 -72 79.997 1 0 0 45.128906 14.000094 1 0 1
pepsi2_arch_stairs01
0 -109 -128 96 1 0 0 46.003906 13.5 1 0 1
0 -109 -72 79.997 1 0 0 45.128906 14.000094 1 0 1
0 -109 -72 96 1 0 0 45.128906 13.5 1 0 1
pepsi2_arch_stairs01
0 -125 -128 96 0 0 1 46.003906 -393.5 1 0 1
0 -109 -128 96 0 0 1 46.003906 -393 1 0 1
0 -109 -72 96 0 0 1 45.128906 -393 1 0 1
pepsi2_arch_stairs01
0 -125 -128 96 0 0 1 46.003906 -393.5 1 0 1
0 -109 -72 96 0 0 1 45.128906 -393 1 0 1
0 -125 -72 96 0 0 1 45.128906 -393.5 1 0 1
de_nuke_nuke_beam_01
0 182 204 104 0 0 -1 -20.3125 -95.34375 1 0 1
0 182 220 104 0 0 -1 -20.1875 -95.34375 1 0 1
0 278 220 104 0 0 -1 -20.1875 -94.59375 1 0 1
de_nuke_nuke_beam_01
0 182 204 104 0 0 -1 -20.3125 -95.34375 1 0 1
0 278 220 104 0 0 -1 -20.1875 -94.59375 1 0 1
0 278 204 104 0 0 -1 -20.3125 -94.59375 1 0 1
de_nuke_nuke_beam_01
0 278 220 104 0 1 0 -2.6875 -94.59375 1 0 1
0 182 220 104 0 1 0 -2.6875 -95.34375 1 0 1
0 174 220 112 0 1 0 -2.625 -95.40625 1 0 1
de_nuke_nuke_beam_01
0 278 220 104 0 1 0 -2.6875 -94.59375 1 0 1
0 174 220 112 0 1 0 -2.625 -95.40625 1 0 1
0 286 220 112 0 1 0 -2.625 -94.53125 1 0 1
de_nuke_nuke_beam_01
0 286 204 112 0 -1 0 2.625 -94.53125 1 0 1
0 174 204 112 0 -1 0 2.625 -95.40625 1 0 1
0 182 204 104 0 -1 0 2.6875 -95.34375 1 0 1
de_nuke_nuke_beam_01
0 286 204 112 0 -1 0 2.625 -94.53125 1 0 1
0 182 204 104 0 -1 0 2.6875 -95.34375 1 0 1
0 278 204 104 0 -1 0 2.6875 -94.59375 1 0 1
de_nuke_nuke_beam_01
0 -9 -36 213 -1 0 0 1.555246 -14.919364 1 0 1
0 -9 204 213 -1 0 0 1.555246 -13.580078 1 0 1
0 -9 204 193 -1 0 0 1.666853 -13.580078 1 0 1
de_nuke_nuke_beam_01
0 -9 -36 213 -1 0 0 1.555246 -14.919364 1 0 1
0 -9 204 193 -1 0 0 1.666853 -13.580078 1 0 1
0 -9 -36 193 -1 0 0 1.666853 -14.919364 1 0 1
de_nuke_nuke_beam_01
0 21 -36 193 1 0 0 1.666853 -14.919364 1 0 1
0 21 204 193 1 0 0 1.666853 -13.580078 1 0 1
0 21 204 213 1 0 0 1.555246 -13.580078 1 0 1
de_nuke_nuke_beam_01
0 21 -36 193 1 0 0 1.666853 -14.919364 1 0 1
0 21 204 213 1 0 0 1.555246 -13.580078 1 0 1
0 21 -36 213 1 0 0 1.555246 -14.919364 1 0 1
de_nuke_nuke_beam_01
0 -9 -36 193 0 0 -1 -69.834542 -14.919364 1 0 1
0 -9 204 193 0 0 -1 -69.834542 -13.580078 1 0 1
0 21 204 193 0 0 -1 -69.667132 -13.580078 1 0 1
de_nuke_nuke_beam_01
0 -9 -36 193 0 0 -1 -69.834542 -14.919364 1 0 1
0 21 204 193 0 0 -1 -69.667132 -13.580078 1 0 1
0 21 -36 193 0 0 -1 -69.667132 -14.919364 1 0 1
de_nuke_nuke_beam_01
0 21 -36 213 0 0 1 69.667132 -14.919364 1 0 1
0 21 204 213 0 0 1 69.667132 -13.580078 1 0 1
0 -9 204 213 0 0 1 69.834542 -13.580078 1 0 1
de_nuke_nuke_beam_01
0 21 -36 213 0 0 1 69.667132 -14.919364 1 0 1
0 -9 204 213 0 0 1 69.834542 -13.580078 1 0 1
0 -9 -36 213 0 0 1 69.834542 -14.919364 1 0 1
de_nuke_nuke_beam_01
0 -17 -36 108 0 1 0 -2.689453 -96.826172 1 0 1
0 -21 -36 112 0 1 0 -2.658203 -96.857422 1 0 1
0 35 -36 112 0 1 0 -2.658203 -96.419922 1 0 1
de_nuke_nuke_beam_01
0 -17 -36 108 0 1 0 -2.689453 -96.826172 1 0 1
0 35 -36 112 0 1 0 -2.658203 -96.419922 1 0 1
0 31 -36 108 0 1 0 -2.689453 -96.451172 1 0 1
de_nuke_nuke_beam_01
0 35 -52 112 0 -1 0 2.658203 -96.419922 1 0 1
0 -21 -52 112 0 -1 0 2.658203 -96.857422 1 0 1
0 -17 -52 108 0 -1 0 2.689453 -96.826172 1 0 1
de_nuke_nuke_beam_01
0 35 -52 112 0 -1 0 2.658203 -96.419922 1 0 1
0 -17 -52 108 0 -1 0 2.689453 -96.826172 1 0 1
0 31 -52 108 0 -1 0 2.689453 -96.451172 1 0 1
de_nuke_nuke_beam_01
0 -17 -52 108 0 0 -1 -22.3125 -96.826172 1 0 1
0 -17 -36 108 0 0 -1 -22.1875 -96.826172 1 0 1
0 31 -36 108 0 0 -1 -22.1875 -96.451172 1 0 1
de_nuke_nuke_beam_01
0 -17 -52 108 0 0 -1 -22.3125 -96.826172 1 0 1
0 31 -36 108 0 0 -1 -22.1875 -96.451172 1 0 1
0 31 -52 108 0 0 -1 -22.3125 -96.451172 1 0 1
pepsi2_arch_stairs01
0 -77 -128 64 1 0 0 46.003906 14.5 1 0 1
0 -77 -128 47.997 1 0 0 46.003906 15.000094 1 0 1
0 -77 -72 47.997 1 0 0 45.128906 15.000094 1 0 1
pepsi2_arch_stairs01
0 -77 -128 64 1 0 0 46.003906 14.5 1 0 1
0 -77 -72 47.997 1 0 0 45.128906 15.000094 1 0 1
0 -77 -72 64 1 0 0 45.128906 14.5 1 0 1
pepsi2_arch_stairs01
0 -93 -128 64 0 0 1 46.003906 -392.5 1 0 1
0 -77 -128 64 0 0 1 46.003906 -392 1 0 1
0 -77 -72 64 0 0 1 45.128906 -392 1 0 1
pepsi2_arch_stairs01
0 -93 -128 64 0 0 1 46.003906 -392.5 1 0 1
0 -77 -72 64 0 0 1 45.128906 -392 1 0 1
0 -93 -72 64 0 0 1 45.128906 -392.5 1 0 1
pepsi2_arch_stairs01
0 -168 48.004124 352.969 0 0 1 -198.125 86.984246 1 0 1
0 -68 48 352.969 0 0 1 -196.5625 86.984375 1 0 1
0 -68 64 352.969 0 0 1 -196.5625 86.484375 1 0 1
pepsi2_arch_stairs01
0 -168 48.004124 352.969 0 0 1 -198.125 86.984246 1 0 1
0 -68 64 352.969 0 0 1 -196.5625 86.484375 1 0 1
0 -168 64 352.969 0 0 1 -198.125 86.484375 1 0 1
pepsi2_arch_stairs01
0 -68 64 337.45 0 1 0 -196.5625 -4.001562 1 0 1
0 -168 64 337.454 0 1 0 -198.125 -4.001437 1 0 1
0 -168 64 352.969 0 1 0 -198.125 -3.516594 1 0 1
pepsi2_arch_stairs01
0 -68 64 337.45 0 1 0 -196.5625 -4.001562 1 0 1
0 -168 64 352.969 0 1 0 -198.125 -3.516594 1 0 1
0 -68 64 352.969 0 1 0 -196.5625 -3.516594 1 0 1
pepsi2_arch_stairs01
0 -168 48.004124 352.969 -1 0 0 -2.125484 86.984246 1 0 1
0 -168 64 352.969 -1 0 0 -2.125484 86.484375 1 0 1
0 -168 64 337.454 -1 0 0 -2.367906 86.484375 1 0 1
pepsi2_arch_stairs01
0 -168 144 262.788 0 0 1 -198.125 83.679688 1 0 1
0 -68 144 262.788 0 0 1 -196.5625 83.679688 1 0 1
0 -68 159 262.788 0 0 1 -196.5625 83.210938 1 0 1
pepsi2_arch_stairs01
0 -168 144 262.788 0 0 1 -198.125 83.679688 1 0 1
0 -68 159 262.788 0 0 1 -196.5625 83.210938 1 0 1
0 -168 159 262.788 0 0 1 -198.125 83.210938 1 0 1
pepsi2_arch_stairs01
0 -68 159 262.788 0 1 0 -196.5625 -5.787875 1 0 1
0 -68 159 256 0 1 0 -196.5625 -6 1 0 1
0 -168 159 256 0 1 0 -198.125 -6 1 0 1
pepsi2_arch_stairs01
0 -68 159 262.788 0 1 0 -196.5625 -5.787875 1 0 1
0 -168 159 256 0 1 0 -198.125 -6 1 0 1
0 -168 159 262.788 0 1 0 -198.125 -5.787875 1 0 1
pepsi2_arch_stairs01
0 -168 144 262.788 -1 0 0 -3.124406 83.679688 1 0 1
0 -168 159 262.788 -1 0 0 -3.124406 83.210938 1 0 1
0 -168 159 256 -1 0 0 -3.230469 83.210938 1 0 1
pepsi2_arch_stairs01
0 -168 144 262.788 -1 0 0 -3.124406 83.679688 1 0 1
0 -168 159 256 -1 0 0 -3.230469 83.210938 1 0 1
0 -168 144 256 -1 0 0 -3.230469 83.679688 1 0 1
de_nuke_nuke_beam_01
0 182 220 104.001 0 1 0 96.3125 -1.843742 1 0 1
0 182 220 0 0 1 0 96.3125 -2.65625 1 0 1
0 174 220 0 0 1 0 96.375 -2.65625 1 0 1
de_nuke_nuke_beam_01
0 182 220 104.001 0 1 0 96.3125 -1.843742 1 0 1
0 174 220 0 0 1 0 96.375 -2.65625 1 0 1
0 174 220 112.001 0 1 0 96.375 -1.781242 1 0 1
de_nuke_nuke_beam_01
0 182 204 0 0 -1 0 -96.3125 -2.65625 1 0 1
0 182 204 104.001 0 -1 0 -96.3125 -1.843742 1 0 1
0 174 204 112.001 0 -1 0 -96.375 -1.781242 1 0 1
de_nuke_nuke_beam_01
0 182 204 0 0 -1 0 -96.3125 -2.65625 1 0 1
0 174 204 112.001 0 -1 0 -96.375 -1.781242 1 0 1
0 174 204 0 0 -1 0 -96.375 -2.65625 1 0 1
de_nuke_nuke_beam_01
0 182 204 104.001 1 0 0 -20.3125 -1.843742 1 0 1
0 182 204 0 1 0 0 -20.3125 -2.65625 1 0 1
0 182 220 0 1 0 0 -20.1875 -2.65625 1 0 1
de_nuke_nuke_beam_01
0 182 204 104.001 1 0 0 -20.3125 -1.843742 1 0 1
0 182 220 0 1 0 0 -20.1875 -2.65625 1 0 1
0 182 220 104.001 1 0 0 -20.1875 -1.843742 1 0 1
end
