version 1
nodes
0 "root" -1
end
skeleton
time 0
0 0 0 0 0 0 0
end
triangles
phys
0 330 -185 111 0 0 1 1 0 1 0 1
0 330 -185 107 0 0 1 1 0 1 0 1
0 -102 -185 107 0 0 1 1 0 1 0 1
phys
0 330 -185 111 0 0 1 1 0 1 0 1
0 -102 -185 107 0 0 1 1 0 1 0 1
0 -102 -185 111 0 0 1 1 0 1 0 1
phys
0 330 -197 107 0 0 1 1 0 1 0 1
0 330 -197 111 0 0 1 1 0 1 0 1
0 -102 -197 111 0 0 1 1 0 1 0 1
phys
0 330 -197 107 0 0 1 1 0 1 0 1
0 -102 -197 111 0 0 1 1 0 1 0 1
0 -102 -197 107 0 0 1 1 0 1 0 1
phys
0 -102 -197 107 0 0 1 1 0 1 0 1
0 -102 -197 111 0 0 1 1 0 1 0 1
0 -102 -185 111 0 0 1 1 0 1 0 1
phys
0 -102 -197 107 0 0 1 1 0 1 0 1
0 -102 -185 111 0 0 1 1 0 1 0 1
0 -102 -185 107 0 0 1 1 0 1 0 1
phys
0 330 -197 111 0 0 1 1 0 1 0 1
0 330 -197 107 0 0 1 1 0 1 0 1
0 330 -185 107 0 0 1 1 0 1 0 1
phys
0 330 -197 111 0 0 1 1 0 1 0 1
0 330 -185 107 0 0 1 1 0 1 0 1
0 330 -185 111 0 0 1 1 0 1 0 1
phys
0 330 -197 107 0 0 1 1 0 1 0 1
0 -102 -197 107 0 0 1 1 0 1 0 1
0 -102 -185 107 0 0 1 1 0 1 0 1
phys
0 330 -197 107 0 0 1 1 0 1 0 1
0 -102 -185 107 0 0 1 1 0 1 0 1
0 330 -185 107 0 0 1 1 0 1 0 1
phys
0 -102 -197 111 0 0 1 1 0 1 0 1
0 330 -197 111 0 0 1 1 0 1 0 1
0 330 -185 111 0 0 1 1 0 1 0 1
phys
0 -102 -197 111 0 0 1 1 0 1 0 1
0 330 -185 111 0 0 1 1 0 1 0 1
0 -102 -185 111 0 0 1 1 0 1 0 1
phys
0 -104 242 22 0 0 1 2 0 1 0 1
0 -104 242 12.999 0 0 1 2 0 1 0 1
0 -119 242 22 0 0 1 2 0 1 0 1
phys
0 -104 142 12.999 0 0 1 2 0 1 0 1
0 -104 142 22 0 0 1 2 0 1 0 1
0 -119 142 22 0 0 1 2 0 1 0 1
phys
0 -104 142 22 0 0 1 2 0 1 0 1
0 -104 142 12.999 0 0 1 2 0 1 0 1
0 -104 242 12.999 0 0 1 2 0 1 0 1
phys
0 -104 142 22 0 0 1 2 0 1 0 1
0 -104 242 12.999 0 0 1 2 0 1 0 1
0 -104 242 22 0 0 1 2 0 1 0 1
phys
0 -119 142 22 0 0 1 2 0 1 0 1
0 -104 142 22 0 0 1 2 0 1 0 1
0 -104 242 22 0 0 1 2 0 1 0 1
phys
0 -119 142 22 0 0 1 2 0 1 0 1
0 -104 242 22 0 0 1 2 0 1 0 1
0 -119 242 22 0 0 1 2 0 1 0 1
phys
0 -104 142 12.999 0 0 1 2 0 1 0 1
0 -119 142 22 0 0 1 2 0 1 0 1
0 -119 242 22 0 0 1 2 0 1 0 1
phys
0 -104 142 12.999 0 0 1 2 0 1 0 1
0 -119 242 22 0 0 1 2 0 1 0 1
0 -104 242 12.999 0 0 1 2 0 1 0 1
phys
0 171 -205 247 0 0 1 3 0 1 0 1
0 171 -199 247 0 0 1 3 0 1 0 1
0 115 -199 247 0 0 1 3 0 1 0 1
phys
0 171 -205 247 0 0 1 3 0 1 0 1
0 115 -199 247 0 0 1 3 0 1 0 1
0 115 -205 247 0 0 1 3 0 1 0 1
phys
0 167 -199 243 0 0 1 3 0 1 0 1
0 171 -199 247 0 0 1 3 0 1 0 1
0 171 -205 247 0 0 1 3 0 1 0 1
phys
0 167 -199 243 0 0 1 3 0 1 0 1
0 171 -205 247 0 0 1 3 0 1 0 1
0 167 -205 243 0 0 1 3 0 1 0 1
phys
0 115 -205 247 0 0 1 3 0 1 0 1
0 115 -199 247 0 0 1 3 0 1 0 1
0 119 -199 243 0 0 1 3 0 1 0 1
phys
0 115 -205 247 0 0 1 3 0 1 0 1
0 119 -199 243 0 0 1 3 0 1 0 1
0 119 -205 243 0 0 1 3 0 1 0 1
phys
0 115 -199 247 0 0 1 3 0 1 0 1
0 171 -199 247 0 0 1 3 0 1 0 1
0 167 -199 243 0 0 1 3 0 1 0 1
phys
0 115 -199 247 0 0 1 3 0 1 0 1
0 167 -199 243 0 0 1 3 0 1 0 1
0 119 -199 243 0 0 1 3 0 1 0 1
phys
0 167 -205 243 0 0 1 3 0 1 0 1
0 171 -205 247 0 0 1 3 0 1 0 1
0 115 -205 247 0 0 1 3 0 1 0 1
phys
0 167 -205 243 0 0 1 3 0 1 0 1
0 115 -205 247 0 0 1 3 0 1 0 1
0 119 -205 243 0 0 1 3 0 1 0 1
phys
0 119 -205 243 0 0 1 3 0 1 0 1
0 119 -199 243 0 0 1 3 0 1 0 1
0 167 -199 243 0 0 1 3 0 1 0 1
phys
0 119 -205 243 0 0 1 3 0 1 0 1
0 167 -199 243 0 0 1 3 0 1 0 1
0 167 -205 243 0 0 1 3 0 1 0 1
phys
0 -134 242 40 0 0 1 4 0 1 0 1
0 -134 242 30.999 0 0 1 4 0 1 0 1
0 -149 242 40 0 0 1 4 0 1 0 1
phys
0 -134 142 30.999 0 0 1 4 0 1 0 1
0 -134 142 40 0 0 1 4 0 1 0 1
0 -149 142 40 0 0 1 4 0 1 0 1
phys
0 -134 142 40 0 0 1 4 0 1 0 1
0 -134 142 30.999 0 0 1 4 0 1 0 1
0 -134 242 30.999 0 0 1 4 0 1 0 1
phys
0 -134 142 40 0 0 1 4 0 1 0 1
0 -134 242 30.999 0 0 1 4 0 1 0 1
0 -134 242 40 0 0 1 4 0 1 0 1
phys
0 -149 142 40 0 0 1 4 0 1 0 1
0 -134 142 40 0 0 1 4 0 1 0 1
0 -134 242 40 0 0 1 4 0 1 0 1
phys
0 -149 142 40 0 0 1 4 0 1 0 1
0 -134 242 40 0 0 1 4 0 1 0 1
0 -149 242 40 0 0 1 4 0 1 0 1
phys
0 -134 142 30.999 0 0 1 4 0 1 0 1
0 -149 142 40 0 0 1 4 0 1 0 1
0 -149 242 40 0 0 1 4 0 1 0 1
phys
0 -134 142 30.999 0 0 1 4 0 1 0 1
0 -149 242 40 0 0 1 4 0 1 0 1
0 -134 242 30.999 0 0 1 4 0 1 0 1
phys
0 -299 142 129.999 0 0 1 5 0 1 0 1
0 -299 142 139 0 0 1 5 0 1 0 1
0 -314 142 139 0 0 1 5 0 1 0 1
phys
0 -299 142 139 0 0 1 5 0 1 0 1
0 -299 142 129.999 0 0 1 5 0 1 0 1
0 -299 242 129.999 0 0 1 5 0 1 0 1
phys
0 -299 142 139 0 0 1 5 0 1 0 1
0 -299 242 129.999 0 0 1 5 0 1 0 1
0 -299 242 139 0 0 1 5 0 1 0 1
phys
0 -314 142 139 0 0 1 5 0 1 0 1
0 -299 142 139 0 0 1 5 0 1 0 1
0 -299 242 139 0 0 1 5 0 1 0 1
phys
0 -314 142 139 0 0 1 5 0 1 0 1
0 -299 242 139 0 0 1 5 0 1 0 1
0 -314 242 139 0 0 1 5 0 1 0 1
phys
0 -299 142 129.999 0 0 1 5 0 1 0 1
0 -314 142 139 0 0 1 5 0 1 0 1
0 -314 242 139 0 0 1 5 0 1 0 1
phys
0 -299 142 129.999 0 0 1 5 0 1 0 1
0 -314 242 139 0 0 1 5 0 1 0 1
0 -299 242 129.999 0 0 1 5 0 1 0 1
phys
0 -299 242 139 0 0 1 5 0 1 0 1
0 -299 242 129.999 0 0 1 5 0 1 0 1
0 -314 242 139 0 0 1 5 0 1 0 1
phys
0 -179 242 67 0 0 1 6 0 1 0 1
0 -179 242 57.999 0 0 1 6 0 1 0 1
0 -194 242 67 0 0 1 6 0 1 0 1
phys
0 -179 142 57.999 0 0 1 6 0 1 0 1
0 -179 142 67 0 0 1 6 0 1 0 1
0 -194 142 67 0 0 1 6 0 1 0 1
phys
0 -179 142 67 0 0 1 6 0 1 0 1
0 -179 142 57.999 0 0 1 6 0 1 0 1
0 -179 242 57.999 0 0 1 6 0 1 0 1
phys
0 -179 142 67 0 0 1 6 0 1 0 1
0 -179 242 57.999 0 0 1 6 0 1 0 1
0 -179 242 67 0 0 1 6 0 1 0 1
phys
0 -194 142 67 0 0 1 6 0 1 0 1
0 -179 142 67 0 0 1 6 0 1 0 1
0 -179 242 67 0 0 1 6 0 1 0 1
phys
0 -194 142 67 0 0 1 6 0 1 0 1
0 -179 242 67 0 0 1 6 0 1 0 1
0 -194 242 67 0 0 1 6 0 1 0 1
phys
0 -179 142 57.999 0 0 1 6 0 1 0 1
0 -194 142 67 0 0 1 6 0 1 0 1
0 -194 242 67 0 0 1 6 0 1 0 1
phys
0 -179 142 57.999 0 0 1 6 0 1 0 1
0 -194 242 67 0 0 1 6 0 1 0 1
0 -179 242 57.999 0 0 1 6 0 1 0 1
phys
0 -254 242 112 0 0 1 7 0 1 0 1
0 -254 242 102.999 0 0 1 7 0 1 0 1
0 -269 242 112 0 0 1 7 0 1 0 1
phys
0 -254 142 102.999 0 0 1 7 0 1 0 1
0 -254 142 112 0 0 1 7 0 1 0 1
0 -269 142 112 0 0 1 7 0 1 0 1
phys
0 -254 142 112 0 0 1 7 0 1 0 1
0 -254 142 102.999 0 0 1 7 0 1 0 1
0 -254 242 102.999 0 0 1 7 0 1 0 1
phys
0 -254 142 112 0 0 1 7 0 1 0 1
0 -254 242 102.999 0 0 1 7 0 1 0 1
0 -254 242 112 0 0 1 7 0 1 0 1
phys
0 -269 142 112 0 0 1 7 0 1 0 1
0 -254 142 112 0 0 1 7 0 1 0 1
0 -254 242 112 0 0 1 7 0 1 0 1
phys
0 -269 142 112 0 0 1 7 0 1 0 1
0 -254 242 112 0 0 1 7 0 1 0 1
0 -269 242 112 0 0 1 7 0 1 0 1
phys
0 -254 142 102.999 0 0 1 7 0 1 0 1
0 -269 142 112 0 0 1 7 0 1 0 1
0 -269 242 112 0 0 1 7 0 1 0 1
phys
0 -254 142 102.999 0 0 1 7 0 1 0 1
0 -269 242 112 0 0 1 7 0 1 0 1
0 -254 242 102.999 0 0 1 7 0 1 0 1
phys
0 115 -205 246.997 0 0 1 8 0 1 0 1
0 119 -205 242.997 0 0 1 8 0 1 0 1
0 119 -199 242.997 0 0 1 8 0 1 0 1
phys
0 115 -205 246.997 0 0 1 8 0 1 0 1
0 119 -199 242.997 0 0 1 8 0 1 0 1
0 115 -199 246.997 0 0 1 8 0 1 0 1
phys
0 115 -199 135 0 0 1 8 0 1 0 1
0 115 -199 246.997 0 0 1 8 0 1 0 1
0 119 -199 242.997 0 0 1 8 0 1 0 1
phys
0 115 -199 135 0 0 1 8 0 1 0 1
0 119 -199 242.997 0 0 1 8 0 1 0 1
0 119 -199 135 0 0 1 8 0 1 0 1
phys
0 119 -205 135 0 0 1 8 0 1 0 1
0 119 -205 242.997 0 0 1 8 0 1 0 1
0 115 -205 246.997 0 0 1 8 0 1 0 1
phys
0 119 -205 135 0 0 1 8 0 1 0 1
0 115 -205 246.997 0 0 1 8 0 1 0 1
0 115 -205 135 0 0 1 8 0 1 0 1
phys
0 115 -205 135 0 0 1 8 0 1 0 1
0 115 -205 246.997 0 0 1 8 0 1 0 1
0 115 -199 246.997 0 0 1 8 0 1 0 1
phys
0 115 -205 135 0 0 1 8 0 1 0 1
0 115 -199 246.997 0 0 1 8 0 1 0 1
0 115 -199 135 0 0 1 8 0 1 0 1
phys
0 119 -199 135 0 0 1 8 0 1 0 1
0 119 -199 242.997 0 0 1 8 0 1 0 1
0 119 -205 242.997 0 0 1 8 0 1 0 1
phys
0 119 -199 135 0 0 1 8 0 1 0 1
0 119 -205 242.997 0 0 1 8 0 1 0 1
0 119 -205 135 0 0 1 8 0 1 0 1
phys
0 115 -199 135 0 0 1 8 0 1 0 1
0 119 -199 135 0 0 1 8 0 1 0 1
0 119 -205 135 0 0 1 8 0 1 0 1
phys
0 115 -199 135 0 0 1 8 0 1 0 1
0 119 -205 135 0 0 1 8 0 1 0 1
0 115 -205 135 0 0 1 8 0 1 0 1
phys
0 -164 242 58 0 0 1 9 0 1 0 1
0 -164 242 48.999 0 0 1 9 0 1 0 1
0 -179 242 58 0 0 1 9 0 1 0 1
phys
0 -164 142 48.999 0 0 1 9 0 1 0 1
0 -164 142 58 0 0 1 9 0 1 0 1
0 -179 142 58 0 0 1 9 0 1 0 1
phys
0 -164 142 58 0 0 1 9 0 1 0 1
0 -164 142 48.999 0 0 1 9 0 1 0 1
0 -164 242 48.999 0 0 1 9 0 1 0 1
phys
0 -164 142 58 0 0 1 9 0 1 0 1
0 -164 242 48.999 0 0 1 9 0 1 0 1
0 -164 242 58 0 0 1 9 0 1 0 1
phys
0 -179 142 58 0 0 1 9 0 1 0 1
0 -164 142 58 0 0 1 9 0 1 0 1
0 -164 242 58 0 0 1 9 0 1 0 1
phys
0 -179 142 58 0 0 1 9 0 1 0 1
0 -164 242 58 0 0 1 9 0 1 0 1
0 -179 242 58 0 0 1 9 0 1 0 1
phys
0 -164 142 48.999 0 0 1 9 0 1 0 1
0 -179 142 58 0 0 1 9 0 1 0 1
0 -179 242 58 0 0 1 9 0 1 0 1
phys
0 -164 142 48.999 0 0 1 9 0 1 0 1
0 -179 242 58 0 0 1 9 0 1 0 1
0 -164 242 48.999 0 0 1 9 0 1 0 1
phys
0 171 -199 247.021 0 0 1 10 0 1 0 1
0 171 -199 135 0 0 1 10 0 1 0 1
0 167 -199 135 0 0 1 10 0 1 0 1
phys
0 171 -199 247.021 0 0 1 10 0 1 0 1
0 167 -199 135 0 0 1 10 0 1 0 1
0 167 -199 243.016 0 0 1 10 0 1 0 1
phys
0 171 -205 135 0 0 1 10 0 1 0 1
0 171 -205 247.021 0 0 1 10 0 1 0 1
0 167 -205 243.016 0 0 1 10 0 1 0 1
phys
0 171 -205 135 0 0 1 10 0 1 0 1
0 167 -205 243.016 0 0 1 10 0 1 0 1
0 167 -205 135 0 0 1 10 0 1 0 1
phys
0 167 -205 135 0 0 1 10 0 1 0 1
0 167 -205 243.016 0 0 1 10 0 1 0 1
0 167 -199 243.016 0 0 1 10 0 1 0 1
phys
0 167 -205 135 0 0 1 10 0 1 0 1
0 167 -199 243.016 0 0 1 10 0 1 0 1
0 167 -199 135 0 0 1 10 0 1 0 1
phys
0 171 -205 247.021 0 0 1 10 0 1 0 1
0 171 -205 135 0 0 1 10 0 1 0 1
0 171 -199 135 0 0 1 10 0 1 0 1
phys
0 171 -205 247.021 0 0 1 10 0 1 0 1
0 171 -199 135 0 0 1 10 0 1 0 1
0 171 -199 247.021 0 0 1 10 0 1 0 1
phys
0 171 -205 135 0 0 1 10 0 1 0 1
0 167 -205 135 0 0 1 10 0 1 0 1
0 167 -199 135 0 0 1 10 0 1 0 1
phys
0 171 -205 135 0 0 1 10 0 1 0 1
0 167 -199 135 0 0 1 10 0 1 0 1
0 171 -199 135 0 0 1 10 0 1 0 1
phys
0 167 -205 243.016 0 0 1 10 0 1 0 1
0 171 -205 247.021 0 0 1 10 0 1 0 1
0 171 -199 247.021 0 0 1 10 0 1 0 1
phys
0 167 -205 243.016 0 0 1 10 0 1 0 1
0 171 -199 247.021 0 0 1 10 0 1 0 1
0 167 -199 243.016 0 0 1 10 0 1 0 1
phys
0 -269 142 111.999 0 0 1 11 0 1 0 1
0 -284 142 121 0 0 1 11 0 1 0 1
0 -284 242 121 0 0 1 11 0 1 0 1
phys
0 -269 142 111.999 0 0 1 11 0 1 0 1
0 -284 242 121 0 0 1 11 0 1 0 1
0 -269 242 111.999 0 0 1 11 0 1 0 1
phys
0 -269 242 121 0 0 1 11 0 1 0 1
0 -269 242 111.999 0 0 1 11 0 1 0 1
0 -284 242 121 0 0 1 11 0 1 0 1
phys
0 -284 142 121 0 0 1 11 0 1 0 1
0 -269 142 111.999 0 0 1 11 0 1 0 1
0 -269 142 121 0 0 1 11 0 1 0 1
phys
0 -269 142 121 0 0 1 11 0 1 0 1
0 -269 142 111.999 0 0 1 11 0 1 0 1
0 -269 242 111.999 0 0 1 11 0 1 0 1
phys
0 -269 142 121 0 0 1 11 0 1 0 1
0 -269 242 111.999 0 0 1 11 0 1 0 1
0 -269 242 121 0 0 1 11 0 1 0 1
phys
0 -269 242 121 0 0 1 11 0 1 0 1
0 -284 242 121 0 0 1 11 0 1 0 1
0 -284 142 121 0 0 1 11 0 1 0 1
phys
0 -269 242 121 0 0 1 11 0 1 0 1
0 -284 142 121 0 0 1 11 0 1 0 1
0 -269 142 121 0 0 1 11 0 1 0 1
phys
0 -314 242 148 0 0 1 12 0 1 0 1
0 -314 242 138.999 0 0 1 12 0 1 0 1
0 -329 242 148 0 0 1 12 0 1 0 1
phys
0 -314 142 138.999 0 0 1 12 0 1 0 1
0 -314 142 148 0 0 1 12 0 1 0 1
0 -329 142 148 0 0 1 12 0 1 0 1
phys
0 -314 142 148 0 0 1 12 0 1 0 1
0 -314 142 138.999 0 0 1 12 0 1 0 1
0 -314 242 138.999 0 0 1 12 0 1 0 1
phys
0 -314 142 148 0 0 1 12 0 1 0 1
0 -314 242 138.999 0 0 1 12 0 1 0 1
0 -314 242 148 0 0 1 12 0 1 0 1
phys
0 -329 142 148 0 0 1 12 0 1 0 1
0 -314 142 148 0 0 1 12 0 1 0 1
0 -314 242 148 0 0 1 12 0 1 0 1
phys
0 -329 142 148 0 0 1 12 0 1 0 1
0 -314 242 148 0 0 1 12 0 1 0 1
0 -329 242 148 0 0 1 12 0 1 0 1
phys
0 -314 142 138.999 0 0 1 12 0 1 0 1
0 -329 142 148 0 0 1 12 0 1 0 1
0 -329 242 148 0 0 1 12 0 1 0 1
phys
0 -314 142 138.999 0 0 1 12 0 1 0 1
0 -329 242 148 0 0 1 12 0 1 0 1
0 -314 242 138.999 0 0 1 12 0 1 0 1
phys
0 115 -199 263 0 0 1 13 0 1 0 1
0 115 -199 135 0 0 1 13 0 1 0 1
0 -102 -199 135 0 0 1 13 0 1 0 1
phys
0 115 -199 263 0 0 1 13 0 1 0 1
0 -102 -199 135 0 0 1 13 0 1 0 1
0 -102 -199 263 0 0 1 13 0 1 0 1
phys
0 115 -205 135 0 0 1 13 0 1 0 1
0 115 -205 263 0 0 1 13 0 1 0 1
0 -102 -205 263 0 0 1 13 0 1 0 1
phys
0 115 -205 135 0 0 1 13 0 1 0 1
0 -102 -205 263 0 0 1 13 0 1 0 1
0 -102 -205 135 0 0 1 13 0 1 0 1
phys
0 -102 -205 135 0 0 1 13 0 1 0 1
0 -102 -205 263 0 0 1 13 0 1 0 1
0 -102 -199 263 0 0 1 13 0 1 0 1
phys
0 -102 -205 135 0 0 1 13 0 1 0 1
0 -102 -199 263 0 0 1 13 0 1 0 1
0 -102 -199 135 0 0 1 13 0 1 0 1
phys
0 115 -205 263 0 0 1 13 0 1 0 1
0 115 -205 135 0 0 1 13 0 1 0 1
0 115 -199 135 0 0 1 13 0 1 0 1
phys
0 115 -205 263 0 0 1 13 0 1 0 1
0 115 -199 135 0 0 1 13 0 1 0 1
0 115 -199 263 0 0 1 13 0 1 0 1
phys
0 115 -205 135 0 0 1 13 0 1 0 1
0 -102 -205 135 0 0 1 13 0 1 0 1
0 -102 -199 135 0 0 1 13 0 1 0 1
phys
0 115 -205 135 0 0 1 13 0 1 0 1
0 -102 -199 135 0 0 1 13 0 1 0 1
0 115 -199 135 0 0 1 13 0 1 0 1
phys
0 -102 -205 263 0 0 1 13 0 1 0 1
0 115 -205 263 0 0 1 13 0 1 0 1
0 115 -199 263 0 0 1 13 0 1 0 1
phys
0 -102 -205 263 0 0 1 13 0 1 0 1
0 115 -199 263 0 0 1 13 0 1 0 1
0 -102 -199 263 0 0 1 13 0 1 0 1
phys
0 21 -237 135 0 0 1 14 0 1 0 1
0 17 -241 135 0 0 1 14 0 1 0 1
0 11 -243 135 0 0 1 14 0 1 0 1
phys
0 21 -237 135 0 0 1 14 0 1 0 1
0 11 -243 135 0 0 1 14 0 1 0 1
0 4 -241 135 0 0 1 14 0 1 0 1
phys
0 21 -237 135 0 0 1 14 0 1 0 1
0 4 -241 135 0 0 1 14 0 1 0 1
0 0 -237 135 0 0 1 14 0 1 0 1
phys
0 21 -237 135 0 0 1 14 0 1 0 1
0 0 -237 135 0 0 1 14 0 1 0 1
0 -2 -231 135 0 0 1 14 0 1 0 1
phys
0 21 -237 135 0 0 1 14 0 1 0 1
0 -2 -231 135 0 0 1 14 0 1 0 1
0 0 -224 135 0 0 1 14 0 1 0 1
phys
0 21 -237 135 0 0 1 14 0 1 0 1
0 0 -224 135 0 0 1 14 0 1 0 1
0 4 -220 135 0 0 1 14 0 1 0 1
phys
0 21 -237 135 0 0 1 14 0 1 0 1
0 4 -220 135 0 0 1 14 0 1 0 1
0 11 -218 135 0 0 1 14 0 1 0 1
phys
0 21 -237 135 0 0 1 14 0 1 0 1
0 11 -218 135 0 0 1 14 0 1 0 1
0 17 -220 135 0 0 1 14 0 1 0 1
phys
0 21 -237 135 0 0 1 14 0 1 0 1
0 17 -220 135 0 0 1 14 0 1 0 1
0 21 -224 135 0 0 1 14 0 1 0 1
phys
0 21 -237 135 0 0 1 14 0 1 0 1
0 21 -224 135 0 0 1 14 0 1 0 1
0 23 -231 135 0 0 1 14 0 1 0 1
phys
0 0 -237 163 0 0 1 14 0 1 0 1
0 4 -241 163 0 0 1 14 0 1 0 1
0 11 -243 163 0 0 1 14 0 1 0 1
phys
0 0 -237 163 0 0 1 14 0 1 0 1
0 11 -243 163 0 0 1 14 0 1 0 1
0 17 -241 163 0 0 1 14 0 1 0 1
phys
0 0 -237 163 0 0 1 14 0 1 0 1
0 17 -241 163 0 0 1 14 0 1 0 1
0 21 -237 163 0 0 1 14 0 1 0 1
phys
0 0 -237 163 0 0 1 14 0 1 0 1
0 21 -237 163 0 0 1 14 0 1 0 1
0 23 -231 163 0 0 1 14 0 1 0 1
phys
0 0 -237 163 0 0 1 14 0 1 0 1
0 23 -231 163 0 0 1 14 0 1 0 1
0 21 -224 163 0 0 1 14 0 1 0 1
phys
0 0 -237 163 0 0 1 14 0 1 0 1
0 21 -224 163 0 0 1 14 0 1 0 1
0 17 -220 163 0 0 1 14 0 1 0 1
phys
0 0 -237 163 0 0 1 14 0 1 0 1
0 17 -220 163 0 0 1 14 0 1 0 1
0 11 -218 163 0 0 1 14 0 1 0 1
phys
0 0 -237 163 0 0 1 14 0 1 0 1
0 11 -218 163 0 0 1 14 0 1 0 1
0 4 -220 163 0 0 1 14 0 1 0 1
phys
0 0 -237 163 0 0 1 14 0 1 0 1
0 4 -220 163 0 0 1 14 0 1 0 1
0 0 -224 163 0 0 1 14 0 1 0 1
phys
0 0 -237 163 0 0 1 14 0 1 0 1
0 0 -224 163 0 0 1 14 0 1 0 1
0 -2 -231 163 0 0 1 14 0 1 0 1
phys
0 4 -241 163 0 0 1 14 0 1 0 1
0 0 -237 163 0 0 1 14 0 1 0 1
0 0 -237 135 0 0 1 14 0 1 0 1
phys
0 4 -241 163 0 0 1 14 0 1 0 1
0 0 -237 135 0 0 1 14 0 1 0 1
0 4 -241 135 0 0 1 14 0 1 0 1
phys
0 11 -243 163 0 0 1 14 0 1 0 1
0 4 -241 163 0 0 1 14 0 1 0 1
0 4 -241 135 0 0 1 14 0 1 0 1
phys
0 11 -243 163 0 0 1 14 0 1 0 1
0 4 -241 135 0 0 1 14 0 1 0 1
0 11 -243 135 0 0 1 14 0 1 0 1
phys
0 17 -241 163 0 0 1 14 0 1 0 1
0 11 -243 163 0 0 1 14 0 1 0 1
0 11 -243 135 0 0 1 14 0 1 0 1
phys
0 17 -241 163 0 0 1 14 0 1 0 1
0 11 -243 135 0 0 1 14 0 1 0 1
0 17 -241 135 0 0 1 14 0 1 0 1
phys
0 17 -241 135 0 0 1 14 0 1 0 1
0 21 -237 135 0 0 1 14 0 1 0 1
0 21 -237 163 0 0 1 14 0 1 0 1
phys
0 17 -241 135 0 0 1 14 0 1 0 1
0 21 -237 163 0 0 1 14 0 1 0 1
0 17 -241 163 0 0 1 14 0 1 0 1
phys
0 21 -237 135 0 0 1 14 0 1 0 1
0 23 -231 135 0 0 1 14 0 1 0 1
0 23 -231 163 0 0 1 14 0 1 0 1
phys
0 21 -237 135 0 0 1 14 0 1 0 1
0 23 -231 163 0 0 1 14 0 1 0 1
0 21 -237 163 0 0 1 14 0 1 0 1
phys
0 23 -231 135 0 0 1 14 0 1 0 1
0 21 -224 135 0 0 1 14 0 1 0 1
0 21 -224 163 0 0 1 14 0 1 0 1
phys
0 23 -231 135 0 0 1 14 0 1 0 1
0 21 -224 163 0 0 1 14 0 1 0 1
0 23 -231 163 0 0 1 14 0 1 0 1
phys
0 21 -224 135 0 0 1 14 0 1 0 1
0 17 -220 135 0 0 1 14 0 1 0 1
0 17 -220 163 0 0 1 14 0 1 0 1
phys
0 21 -224 135 0 0 1 14 0 1 0 1
0 17 -220 163 0 0 1 14 0 1 0 1
0 21 -224 163 0 0 1 14 0 1 0 1
phys
0 17 -220 135 0 0 1 14 0 1 0 1
0 11 -218 135 0 0 1 14 0 1 0 1
0 11 -218 163 0 0 1 14 0 1 0 1
phys
0 17 -220 135 0 0 1 14 0 1 0 1
0 11 -218 163 0 0 1 14 0 1 0 1
0 17 -220 163 0 0 1 14 0 1 0 1
phys
0 -2 -231 163 0 0 1 14 0 1 0 1
0 0 -224 163 0 0 1 14 0 1 0 1
0 0 -224 135 0 0 1 14 0 1 0 1
phys
0 -2 -231 163 0 0 1 14 0 1 0 1
0 0 -224 135 0 0 1 14 0 1 0 1
0 -2 -231 135 0 0 1 14 0 1 0 1
phys
0 0 -237 163 0 0 1 14 0 1 0 1
0 -2 -231 163 0 0 1 14 0 1 0 1
0 -2 -231 135 0 0 1 14 0 1 0 1
phys
0 0 -237 163 0 0 1 14 0 1 0 1
0 -2 -231 135 0 0 1 14 0 1 0 1
0 0 -237 135 0 0 1 14 0 1 0 1
phys
0 11 -218 135 0 0 1 14 0 1 0 1
0 4 -220 135 0 0 1 14 0 1 0 1
0 4 -220 163 0 0 1 14 0 1 0 1
phys
0 11 -218 135 0 0 1 14 0 1 0 1
0 4 -220 163 0 0 1 14 0 1 0 1
0 11 -218 163 0 0 1 14 0 1 0 1
phys
0 0 -224 163 0 0 1 14 0 1 0 1
0 4 -220 163 0 0 1 14 0 1 0 1
0 4 -220 135 0 0 1 14 0 1 0 1
phys
0 0 -224 163 0 0 1 14 0 1 0 1
0 4 -220 135 0 0 1 14 0 1 0 1
0 0 -224 135 0 0 1 14 0 1 0 1
phys
0 -209 242 85 0 0 1 15 0 1 0 1
0 -224 242 85 0 0 1 15 0 1 0 1
0 -224 142 85 0 0 1 15 0 1 0 1
phys
0 -209 242 85 0 0 1 15 0 1 0 1
0 -224 142 85 0 0 1 15 0 1 0 1
0 -209 142 85 0 0 1 15 0 1 0 1
phys
0 -209 142 75.999 0 0 1 15 0 1 0 1
0 -224 142 85 0 0 1 15 0 1 0 1
0 -224 242 85 0 0 1 15 0 1 0 1
phys
0 -209 142 75.999 0 0 1 15 0 1 0 1
0 -224 242 85 0 0 1 15 0 1 0 1
0 -209 242 75.999 0 0 1 15 0 1 0 1
phys
0 -209 242 75.999 0 0 1 15 0 1 0 1
0 -224 242 85 0 0 1 15 0 1 0 1
0 -209 242 85 0 0 1 15 0 1 0 1
phys
0 -209 142 85 0 0 1 15 0 1 0 1
0 -224 142 85 0 0 1 15 0 1 0 1
0 -209 142 75.999 0 0 1 15 0 1 0 1
phys
0 -209 142 75.999 0 0 1 15 0 1 0 1
0 -209 242 75.999 0 0 1 15 0 1 0 1
0 -209 242 85 0 0 1 15 0 1 0 1
phys
0 -209 142 75.999 0 0 1 15 0 1 0 1
0 -209 242 85 0 0 1 15 0 1 0 1
0 -209 142 85 0 0 1 15 0 1 0 1
phys
0 -224 242 94 0 0 1 16 0 1 0 1
0 -224 242 84.999 0 0 1 16 0 1 0 1
0 -239 242 94 0 0 1 16 0 1 0 1
phys
0 -224 142 84.999 0 0 1 16 0 1 0 1
0 -224 142 94 0 0 1 16 0 1 0 1
0 -239 142 94 0 0 1 16 0 1 0 1
phys
0 -224 142 94 0 0 1 16 0 1 0 1
0 -224 142 84.999 0 0 1 16 0 1 0 1
0 -224 242 84.999 0 0 1 16 0 1 0 1
phys
0 -224 142 94 0 0 1 16 0 1 0 1
0 -224 242 84.999 0 0 1 16 0 1 0 1
0 -224 242 94 0 0 1 16 0 1 0 1
phys
0 -239 142 94 0 0 1 16 0 1 0 1
0 -224 142 94 0 0 1 16 0 1 0 1
0 -224 242 94 0 0 1 16 0 1 0 1
phys
0 -239 142 94 0 0 1 16 0 1 0 1
0 -224 242 94 0 0 1 16 0 1 0 1
0 -239 242 94 0 0 1 16 0 1 0 1
phys
0 -224 142 84.999 0 0 1 16 0 1 0 1
0 -239 142 94 0 0 1 16 0 1 0 1
0 -239 242 94 0 0 1 16 0 1 0 1
phys
0 -224 142 84.999 0 0 1 16 0 1 0 1
0 -239 242 94 0 0 1 16 0 1 0 1
0 -224 242 84.999 0 0 1 16 0 1 0 1
phys
0 171 -205 247 0 0 1 17 0 1 0 1
0 171 -205 263 0 0 1 17 0 1 0 1
0 115 -205 263 0 0 1 17 0 1 0 1
phys
0 171 -205 247 0 0 1 17 0 1 0 1
0 115 -205 263 0 0 1 17 0 1 0 1
0 115 -205 247 0 0 1 17 0 1 0 1
phys
0 115 -205 247 0 0 1 17 0 1 0 1
0 115 -205 263 0 0 1 17 0 1 0 1
0 115 -199 263 0 0 1 17 0 1 0 1
phys
0 115 -205 247 0 0 1 17 0 1 0 1
0 115 -199 263 0 0 1 17 0 1 0 1
0 115 -199 247 0 0 1 17 0 1 0 1
phys
0 171 -205 263 0 0 1 17 0 1 0 1
0 171 -205 247 0 0 1 17 0 1 0 1
0 171 -199 247 0 0 1 17 0 1 0 1
phys
0 171 -205 263 0 0 1 17 0 1 0 1
0 171 -199 247 0 0 1 17 0 1 0 1
0 171 -199 263 0 0 1 17 0 1 0 1
phys
0 171 -205 247 0 0 1 17 0 1 0 1
0 115 -205 247 0 0 1 17 0 1 0 1
0 115 -199 247 0 0 1 17 0 1 0 1
phys
0 171 -205 247 0 0 1 17 0 1 0 1
0 115 -199 247 0 0 1 17 0 1 0 1
0 171 -199 247 0 0 1 17 0 1 0 1
phys
0 115 -205 263 0 0 1 17 0 1 0 1
0 171 -205 263 0 0 1 17 0 1 0 1
0 171 -199 263 0 0 1 17 0 1 0 1
phys
0 115 -205 263 0 0 1 17 0 1 0 1
0 171 -199 263 0 0 1 17 0 1 0 1
0 115 -199 263 0 0 1 17 0 1 0 1
phys
0 171 -199 263 0 0 1 17 0 1 0 1
0 171 -199 247 0 0 1 17 0 1 0 1
0 115 -199 247 0 0 1 17 0 1 0 1
phys
0 171 -199 263 0 0 1 17 0 1 0 1
0 115 -199 247 0 0 1 17 0 1 0 1
0 115 -199 263 0 0 1 17 0 1 0 1
phys
0 -149 242 49 0 0 1 18 0 1 0 1
0 -164 242 49 0 0 1 18 0 1 0 1
0 -164 142 49 0 0 1 18 0 1 0 1
phys
0 -149 242 49 0 0 1 18 0 1 0 1
0 -164 142 49 0 0 1 18 0 1 0 1
0 -149 142 49 0 0 1 18 0 1 0 1
phys
0 -149 142 39.999 0 0 1 18 0 1 0 1
0 -164 142 49 0 0 1 18 0 1 0 1
0 -164 242 49 0 0 1 18 0 1 0 1
phys
0 -149 142 39.999 0 0 1 18 0 1 0 1
0 -164 242 49 0 0 1 18 0 1 0 1
0 -149 242 39.999 0 0 1 18 0 1 0 1
phys
0 -149 242 39.999 0 0 1 18 0 1 0 1
0 -164 242 49 0 0 1 18 0 1 0 1
0 -149 242 49 0 0 1 18 0 1 0 1
phys
0 -149 142 49 0 0 1 18 0 1 0 1
0 -164 142 49 0 0 1 18 0 1 0 1
0 -149 142 39.999 0 0 1 18 0 1 0 1
phys
0 -149 142 39.999 0 0 1 18 0 1 0 1
0 -149 242 39.999 0 0 1 18 0 1 0 1
0 -149 242 49 0 0 1 18 0 1 0 1
phys
0 -149 142 39.999 0 0 1 18 0 1 0 1
0 -149 242 49 0 0 1 18 0 1 0 1
0 -149 142 49 0 0 1 18 0 1 0 1
phys
0 -102 -197 275 0 0 1 19 0 1 0 1
0 -102 -197 291 0 0 1 19 0 1 0 1
0 -231 -197 291 0 0 1 19 0 1 0 1
phys
0 -102 -197 275 0 0 1 19 0 1 0 1
0 -231 -197 291 0 0 1 19 0 1 0 1
0 -231 -197 275 0 0 1 19 0 1 0 1
phys
0 -231 -197 275 0 0 1 19 0 1 0 1
0 -231 -197 291 0 0 1 19 0 1 0 1
0 -231 -181 291 0 0 1 19 0 1 0 1
phys
0 -102 -197 291 0 0 1 19 0 1 0 1
0 -102 -197 275 0 0 1 19 0 1 0 1
0 -102 -181 291 0 0 1 19 0 1 0 1
phys
0 -231 -197 291 0 0 1 19 0 1 0 1
0 -102 -197 291 0 0 1 19 0 1 0 1
0 -102 -181 291 0 0 1 19 0 1 0 1
phys
0 -231 -197 291 0 0 1 19 0 1 0 1
0 -102 -181 291 0 0 1 19 0 1 0 1
0 -231 -181 291 0 0 1 19 0 1 0 1
phys
0 -102 -197 275 0 0 1 19 0 1 0 1
0 -231 -197 275 0 0 1 19 0 1 0 1
0 -231 -181 291 0 0 1 19 0 1 0 1
phys
0 -102 -197 275 0 0 1 19 0 1 0 1
0 -231 -181 291 0 0 1 19 0 1 0 1
0 -102 -181 291 0 0 1 19 0 1 0 1
phys
0 -119 142 21.999 0 0 1 20 0 1 0 1
0 -119 242 21.999 0 0 1 20 0 1 0 1
0 -119 242 31 0 0 1 20 0 1 0 1
phys
0 -119 142 21.999 0 0 1 20 0 1 0 1
0 -119 242 31 0 0 1 20 0 1 0 1
0 -119 142 31 0 0 1 20 0 1 0 1
phys
0 -119 142 31 0 0 1 20 0 1 0 1
0 -119 242 31 0 0 1 20 0 1 0 1
0 -134 242 31 0 0 1 20 0 1 0 1
phys
0 -119 142 31 0 0 1 20 0 1 0 1
0 -134 242 31 0 0 1 20 0 1 0 1
0 -134 142 31 0 0 1 20 0 1 0 1
phys
0 -134 142 31 0 0 1 20 0 1 0 1
0 -134 242 31 0 0 1 20 0 1 0 1
0 -119 242 21.999 0 0 1 20 0 1 0 1
phys
0 -134 142 31 0 0 1 20 0 1 0 1
0 -119 242 21.999 0 0 1 20 0 1 0 1
0 -119 142 21.999 0 0 1 20 0 1 0 1
phys
0 -119 242 31 0 0 1 20 0 1 0 1
0 -119 242 21.999 0 0 1 20 0 1 0 1
0 -134 242 31 0 0 1 20 0 1 0 1
phys
0 -119 142 21.999 0 0 1 20 0 1 0 1
0 -119 142 31 0 0 1 20 0 1 0 1
0 -134 142 31 0 0 1 20 0 1 0 1
phys
0 -74 142 0 0 0 1 21 0 1 0 1
0 -74 242 0 0 0 1 21 0 1 0 1
0 -74 242 4 0 0 1 21 0 1 0 1
phys
0 -74 142 0 0 0 1 21 0 1 0 1
0 -74 242 4 0 0 1 21 0 1 0 1
0 -74 142 4 0 0 1 21 0 1 0 1
phys
0 -82.3 142 0 0 0 1 21 0 1 0 1
0 -82.3 242 0 0 0 1 21 0 1 0 1
0 -74 242 0 0 0 1 21 0 1 0 1
phys
0 -82.3 142 0 0 0 1 21 0 1 0 1
0 -74 242 0 0 0 1 21 0 1 0 1
0 -74 142 0 0 0 1 21 0 1 0 1
phys
0 -74 142 4 0 0 1 21 0 1 0 1
0 -74 242 4 0 0 1 21 0 1 0 1
0 -89 242 4 0 0 1 21 0 1 0 1
phys
0 -74 142 4 0 0 1 21 0 1 0 1
0 -89 242 4 0 0 1 21 0 1 0 1
0 -89 142 4 0 0 1 21 0 1 0 1
phys
0 -89 142 4 0 0 1 21 0 1 0 1
0 -89 242 4 0 0 1 21 0 1 0 1
0 -82.3 242 0 0 0 1 21 0 1 0 1
phys
0 -89 142 4 0 0 1 21 0 1 0 1
0 -82.3 242 0 0 0 1 21 0 1 0 1
0 -82.3 142 0 0 0 1 21 0 1 0 1
phys
0 -74 242 4 0 0 1 21 0 1 0 1
0 -74 242 0 0 0 1 21 0 1 0 1
0 -82.3 242 0 0 0 1 21 0 1 0 1
phys
0 -74 242 4 0 0 1 21 0 1 0 1
0 -82.3 242 0 0 0 1 21 0 1 0 1
0 -89 242 4 0 0 1 21 0 1 0 1
phys
0 -74 142 0 0 0 1 21 0 1 0 1
0 -74 142 4 0 0 1 21 0 1 0 1
0 -89 142 4 0 0 1 21 0 1 0 1
phys
0 -74 142 0 0 0 1 21 0 1 0 1
0 -89 142 4 0 0 1 21 0 1 0 1
0 -82.3 142 0 0 0 1 21 0 1 0 1
phys
0 -194 242 76 0 0 1 22 0 1 0 1
0 -209 242 76 0 0 1 22 0 1 0 1
0 -209 142 76 0 0 1 22 0 1 0 1
phys
0 -194 242 76 0 0 1 22 0 1 0 1
0 -209 142 76 0 0 1 22 0 1 0 1
0 -194 142 76 0 0 1 22 0 1 0 1
phys
0 -194 142 66.999 0 0 1 22 0 1 0 1
0 -209 142 76 0 0 1 22 0 1 0 1
0 -209 242 76 0 0 1 22 0 1 0 1
phys
0 -194 142 66.999 0 0 1 22 0 1 0 1
0 -209 242 76 0 0 1 22 0 1 0 1
0 -194 242 66.999 0 0 1 22 0 1 0 1
phys
0 -194 242 66.999 0 0 1 22 0 1 0 1
0 -209 242 76 0 0 1 22 0 1 0 1
0 -194 242 76 0 0 1 22 0 1 0 1
phys
0 -194 142 76 0 0 1 22 0 1 0 1
0 -209 142 76 0 0 1 22 0 1 0 1
0 -194 142 66.999 0 0 1 22 0 1 0 1
phys
0 -194 142 66.999 0 0 1 22 0 1 0 1
0 -194 242 66.999 0 0 1 22 0 1 0 1
0 -194 242 76 0 0 1 22 0 1 0 1
phys
0 -194 142 66.999 0 0 1 22 0 1 0 1
0 -194 242 76 0 0 1 22 0 1 0 1
0 -194 142 76 0 0 1 22 0 1 0 1
phys
0 -89 242 13 0 0 1 23 0 1 0 1
0 -89 242 3.999 0 0 1 23 0 1 0 1
0 -104 242 13 0 0 1 23 0 1 0 1
phys
0 -89 142 3.999 0 0 1 23 0 1 0 1
0 -89 142 13 0 0 1 23 0 1 0 1
0 -104 142 13 0 0 1 23 0 1 0 1
phys
0 -89 142 13 0 0 1 23 0 1 0 1
0 -89 142 3.999 0 0 1 23 0 1 0 1
0 -89 242 3.999 0 0 1 23 0 1 0 1
phys
0 -89 142 13 0 0 1 23 0 1 0 1
0 -89 242 3.999 0 0 1 23 0 1 0 1
0 -89 242 13 0 0 1 23 0 1 0 1
phys
0 -104 142 13 0 0 1 23 0 1 0 1
0 -89 142 13 0 0 1 23 0 1 0 1
0 -89 242 13 0 0 1 23 0 1 0 1
phys
0 -104 142 13 0 0 1 23 0 1 0 1
0 -89 242 13 0 0 1 23 0 1 0 1
0 -104 242 13 0 0 1 23 0 1 0 1
phys
0 -89 142 3.999 0 0 1 23 0 1 0 1
0 -104 142 13 0 0 1 23 0 1 0 1
0 -104 242 13 0 0 1 23 0 1 0 1
phys
0 -89 142 3.999 0 0 1 23 0 1 0 1
0 -104 242 13 0 0 1 23 0 1 0 1
0 -89 242 3.999 0 0 1 23 0 1 0 1
phys
0 21 -237 163 0 0 1 24 0 1 0 1
0 17 -241 163 0 0 1 24 0 1 0 1
0 11 -243 163 0 0 1 24 0 1 0 1
phys
0 21 -237 163 0 0 1 24 0 1 0 1
0 11 -243 163 0 0 1 24 0 1 0 1
0 4 -241 163 0 0 1 24 0 1 0 1
phys
0 21 -237 163 0 0 1 24 0 1 0 1
0 4 -241 163 0 0 1 24 0 1 0 1
0 0 -237 163 0 0 1 24 0 1 0 1
phys
0 21 -237 163 0 0 1 24 0 1 0 1
0 0 -237 163 0 0 1 24 0 1 0 1
0 -2 -231 163 0 0 1 24 0 1 0 1
phys
0 21 -237 163 0 0 1 24 0 1 0 1
0 -2 -231 163 0 0 1 24 0 1 0 1
0 0 -224 163 0 0 1 24 0 1 0 1
phys
0 21 -237 163 0 0 1 24 0 1 0 1
0 0 -224 163 0 0 1 24 0 1 0 1
0 4 -220 163 0 0 1 24 0 1 0 1
phys
0 21 -237 163 0 0 1 24 0 1 0 1
0 4 -220 163 0 0 1 24 0 1 0 1
0 11 -218 163 0 0 1 24 0 1 0 1
phys
0 21 -237 163 0 0 1 24 0 1 0 1
0 11 -218 163 0 0 1 24 0 1 0 1
0 17 -220 163 0 0 1 24 0 1 0 1
phys
0 21 -237 163 0 0 1 24 0 1 0 1
0 17 -220 163 0 0 1 24 0 1 0 1
0 21 -224 163 0 0 1 24 0 1 0 1
phys
0 21 -237 163 0 0 1 24 0 1 0 1
0 21 -224 163 0 0 1 24 0 1 0 1
0 23 -231 163 0 0 1 24 0 1 0 1
phys
0 0 -237 291 0 0 1 24 0 1 0 1
0 4 -241 291 0 0 1 24 0 1 0 1
0 11 -243 291 0 0 1 24 0 1 0 1
phys
0 0 -237 291 0 0 1 24 0 1 0 1
0 11 -243 291 0 0 1 24 0 1 0 1
0 17 -241 291 0 0 1 24 0 1 0 1
phys
0 0 -237 291 0 0 1 24 0 1 0 1
0 17 -241 291 0 0 1 24 0 1 0 1
0 21 -237 291 0 0 1 24 0 1 0 1
phys
0 0 -237 291 0 0 1 24 0 1 0 1
0 21 -237 291 0 0 1 24 0 1 0 1
0 23 -231 291 0 0 1 24 0 1 0 1
phys
0 0 -237 291 0 0 1 24 0 1 0 1
0 23 -231 291 0 0 1 24 0 1 0 1
0 21 -224 291 0 0 1 24 0 1 0 1
phys
0 0 -237 291 0 0 1 24 0 1 0 1
0 21 -224 291 0 0 1 24 0 1 0 1
0 17 -220 291 0 0 1 24 0 1 0 1
phys
0 0 -237 291 0 0 1 24 0 1 0 1
0 17 -220 291 0 0 1 24 0 1 0 1
0 11 -218 291 0 0 1 24 0 1 0 1
phys
0 0 -237 291 0 0 1 24 0 1 0 1
0 11 -218 291 0 0 1 24 0 1 0 1
0 4 -220 291 0 0 1 24 0 1 0 1
phys
0 0 -237 291 0 0 1 24 0 1 0 1
0 4 -220 291 0 0 1 24 0 1 0 1
0 0 -224 291 0 0 1 24 0 1 0 1
phys
0 0 -237 291 0 0 1 24 0 1 0 1
0 0 -224 291 0 0 1 24 0 1 0 1
0 -2 -231 291 0 0 1 24 0 1 0 1
phys
0 4 -241 291 0 0 1 24 0 1 0 1
0 0 -237 291 0 0 1 24 0 1 0 1
0 0 -237 163 0 0 1 24 0 1 0 1
phys
0 4 -241 291 0 0 1 24 0 1 0 1
0 0 -237 163 0 0 1 24 0 1 0 1
0 4 -241 163 0 0 1 24 0 1 0 1
phys
0 11 -243 291 0 0 1 24 0 1 0 1
0 4 -241 291 0 0 1 24 0 1 0 1
0 4 -241 163 0 0 1 24 0 1 0 1
phys
0 11 -243 291 0 0 1 24 0 1 0 1
0 4 -241 163 0 0 1 24 0 1 0 1
0 11 -243 163 0 0 1 24 0 1 0 1
phys
0 17 -241 291 0 0 1 24 0 1 0 1
0 11 -243 291 0 0 1 24 0 1 0 1
0 11 -243 163 0 0 1 24 0 1 0 1
phys
0 17 -241 291 0 0 1 24 0 1 0 1
0 11 -243 163 0 0 1 24 0 1 0 1
0 17 -241 163 0 0 1 24 0 1 0 1
phys
0 17 -241 163 0 0 1 24 0 1 0 1
0 21 -237 163 0 0 1 24 0 1 0 1
0 21 -237 291 0 0 1 24 0 1 0 1
phys
0 17 -241 163 0 0 1 24 0 1 0 1
0 21 -237 291 0 0 1 24 0 1 0 1
0 17 -241 291 0 0 1 24 0 1 0 1
phys
0 21 -237 163 0 0 1 24 0 1 0 1
0 23 -231 163 0 0 1 24 0 1 0 1
0 23 -231 291 0 0 1 24 0 1 0 1
phys
0 21 -237 163 0 0 1 24 0 1 0 1
0 23 -231 291 0 0 1 24 0 1 0 1
0 21 -237 291 0 0 1 24 0 1 0 1
phys
0 23 -231 163 0 0 1 24 0 1 0 1
0 21 -224 163 0 0 1 24 0 1 0 1
0 21 -224 291 0 0 1 24 0 1 0 1
phys
0 23 -231 163 0 0 1 24 0 1 0 1
0 21 -224 291 0 0 1 24 0 1 0 1
0 23 -231 291 0 0 1 24 0 1 0 1
phys
0 21 -224 163 0 0 1 24 0 1 0 1
0 17 -220 163 0 0 1 24 0 1 0 1
0 17 -220 291 0 0 1 24 0 1 0 1
phys
0 21 -224 163 0 0 1 24 0 1 0 1
0 17 -220 291 0 0 1 24 0 1 0 1
0 21 -224 291 0 0 1 24 0 1 0 1
phys
0 17 -220 163 0 0 1 24 0 1 0 1
0 11 -218 163 0 0 1 24 0 1 0 1
0 11 -218 291 0 0 1 24 0 1 0 1
phys
0 17 -220 163 0 0 1 24 0 1 0 1
0 11 -218 291 0 0 1 24 0 1 0 1
0 17 -220 291 0 0 1 24 0 1 0 1
phys
0 -2 -231 291 0 0 1 24 0 1 0 1
0 0 -224 291 0 0 1 24 0 1 0 1
0 0 -224 163 0 0 1 24 0 1 0 1
phys
0 -2 -231 291 0 0 1 24 0 1 0 1
0 0 -224 163 0 0 1 24 0 1 0 1
0 -2 -231 163 0 0 1 24 0 1 0 1
phys
0 0 -237 291 0 0 1 24 0 1 0 1
0 -2 -231 291 0 0 1 24 0 1 0 1
0 -2 -231 163 0 0 1 24 0 1 0 1
phys
0 0 -237 291 0 0 1 24 0 1 0 1
0 -2 -231 163 0 0 1 24 0 1 0 1
0 0 -237 163 0 0 1 24 0 1 0 1
phys
0 11 -218 163 0 0 1 24 0 1 0 1
0 4 -220 163 0 0 1 24 0 1 0 1
0 4 -220 291 0 0 1 24 0 1 0 1
phys
0 11 -218 163 0 0 1 24 0 1 0 1
0 4 -220 291 0 0 1 24 0 1 0 1
0 11 -218 291 0 0 1 24 0 1 0 1
phys
0 0 -224 291 0 0 1 24 0 1 0 1
0 4 -220 291 0 0 1 24 0 1 0 1
0 4 -220 163 0 0 1 24 0 1 0 1
phys
0 0 -224 291 0 0 1 24 0 1 0 1
0 4 -220 163 0 0 1 24 0 1 0 1
0 0 -224 163 0 0 1 24 0 1 0 1
phys
0 -284 242 130 0 0 1 25 0 1 0 1
0 -284 242 120.999 0 0 1 25 0 1 0 1
0 -299 242 130 0 0 1 25 0 1 0 1
phys
0 -284 142 120.999 0 0 1 25 0 1 0 1
0 -284 142 130 0 0 1 25 0 1 0 1
0 -299 142 130 0 0 1 25 0 1 0 1
phys
0 -284 142 130 0 0 1 25 0 1 0 1
0 -284 142 120.999 0 0 1 25 0 1 0 1
0 -284 242 120.999 0 0 1 25 0 1 0 1
phys
0 -284 142 130 0 0 1 25 0 1 0 1
0 -284 242 120.999 0 0 1 25 0 1 0 1
0 -284 242 130 0 0 1 25 0 1 0 1
phys
0 -299 142 130 0 0 1 25 0 1 0 1
0 -284 142 130 0 0 1 25 0 1 0 1
0 -284 242 130 0 0 1 25 0 1 0 1
phys
0 -299 142 130 0 0 1 25 0 1 0 1
0 -284 242 130 0 0 1 25 0 1 0 1
0 -299 242 130 0 0 1 25 0 1 0 1
phys
0 -284 142 120.999 0 0 1 25 0 1 0 1
0 -299 142 130 0 0 1 25 0 1 0 1
0 -299 242 130 0 0 1 25 0 1 0 1
phys
0 -284 142 120.999 0 0 1 25 0 1 0 1
0 -299 242 130 0 0 1 25 0 1 0 1
0 -284 242 120.999 0 0 1 25 0 1 0 1
phys
0 -239 142 93.999 0 0 1 26 0 1 0 1
0 -254 142 103 0 0 1 26 0 1 0 1
0 -254 242 103 0 0 1 26 0 1 0 1
phys
0 -239 142 93.999 0 0 1 26 0 1 0 1
0 -254 242 103 0 0 1 26 0 1 0 1
0 -239 242 93.999 0 0 1 26 0 1 0 1
phys
0 -239 242 103 0 0 1 26 0 1 0 1
0 -239 242 93.999 0 0 1 26 0 1 0 1
0 -254 242 103 0 0 1 26 0 1 0 1
phys
0 -254 142 103 0 0 1 26 0 1 0 1
0 -239 142 93.999 0 0 1 26 0 1 0 1
0 -239 142 103 0 0 1 26 0 1 0 1
phys
0 -239 142 103 0 0 1 26 0 1 0 1
0 -239 142 93.999 0 0 1 26 0 1 0 1
0 -239 242 93.999 0 0 1 26 0 1 0 1
phys
0 -239 142 103 0 0 1 26 0 1 0 1
0 -239 242 93.999 0 0 1 26 0 1 0 1
0 -239 242 103 0 0 1 26 0 1 0 1
phys
0 -239 242 103 0 0 1 26 0 1 0 1
0 -254 242 103 0 0 1 26 0 1 0 1
0 -254 142 103 0 0 1 26 0 1 0 1
phys
0 -239 242 103 0 0 1 26 0 1 0 1
0 -254 142 103 0 0 1 26 0 1 0 1
0 -239 142 103 0 0 1 26 0 1 0 1
end
