version 1
nodes
0 "root" -1
end
skeleton
time 0
0 0 0 0 0 0 0
end
triangles
bridge_se1_metal_flat_steel_01
0 -63 27 -148 0 -1 0 117.846354 5.807943 1 0 1
0 -63 27 -12 0 -1 0 117.846354 4.037109 1 0 1
0 -66 27 -12 0 -1 0 117.885417 4.037109 1 0 1
bridge_se1_metal_flat_steel_01
0 -63 27 -148 0 -1 0 117.846354 5.807943 1 0 1
0 -66 27 -12 0 -1 0 117.885417 4.037109 1 0 1
0 -66 27 -148 0 -1 0 117.885417 5.807943 1 0 1
bridge_se1_metal_flat_steel_01
0 -66 27 -148 -1 0 0 -3.152344 5.807943 1 0 1
0 -66 27 -12 -1 0 0 -3.152344 4.037109 1 0 1
0 -66 30 -12 -1 0 0 -3.191406 4.037109 1 0 1
bridge_se1_metal_flat_steel_01
0 -66 27 -148 -1 0 0 -3.152344 5.807943 1 0 1
0 -66 30 -12 -1 0 0 -3.191406 4.037109 1 0 1
0 -66 30 -148 -1 0 0 -3.191406 5.807943 1 0 1
bridge_se1_metal_flat_steel_01
0 -63 27 -12 1 0 0 -3.152344 4.037109 1 0 1
0 -63 27 -148 1 0 0 -3.152344 5.807943 1 0 1
0 -63 30 -148 1 0 0 -3.191406 5.807943 1 0 1
bridge_se1_metal_flat_steel_01
0 -63 27 -12 1 0 0 -3.152344 4.037109 1 0 1
0 -63 30 -148 1 0 0 -3.191406 5.807943 1 0 1
0 -63 30 -12 1 0 0 -3.191406 4.037109 1 0 1
bridge_se1_metal_flat_steel_01
0 -214 -54 -119 0 0 1 71.59375 0.515625 1 0 1
0 -204 -54 -119 0 0 1 71.515625 0.515625 1 0 1
0 -204 20 -119 0 0 1 71.515625 -0.0625 1 0 1
bridge_se1_metal_flat_steel_01
0 -214 -54 -119 0 0 1 71.59375 0.515625 1 0 1
0 -204 20 -119 0 0 1 71.515625 -0.0625 1 0 1
0 -214 20 -119 0 0 1 71.59375 -0.0625 1 0 1
pepsi2_arch_concrete_stair01
0 -214 -54 -119 -1 0 0 0.96875 3.017578 1 0 1
0 -214 20 -119 -1 0 0 1.546875 3.017578 1 0 1
0 -214 20 -148 -1 0 0 1.546875 3.244141 1 0 1
pepsi2_arch_concrete_stair01
0 -214 -54 -119 -1 0 0 0.96875 3.017578 1 0 1
0 -214 20 -148 -1 0 0 1.546875 3.244141 1 0 1
0 -214 -54 -148 -1 0 0 0.96875 3.244141 1 0 1
bridge_se1_metal_flat_steel_01
0 60 27 -148 0 -1 0 115.479167 5.807943 1 0 1
0 60 27 -12 0 -1 0 115.479167 4.037109 1 0 1
0 57 27 -12 0 -1 0 115.518229 4.037109 1 0 1
bridge_se1_metal_flat_steel_01
0 60 27 -148 0 -1 0 115.479167 5.807943 1 0 1
0 57 27 -12 0 -1 0 115.518229 4.037109 1 0 1
0 57 27 -148 0 -1 0 115.518229 5.807943 1 0 1
bridge_se1_metal_flat_steel_01
0 57 27 -148 -1 0 0 -3.152344 5.807943 1 0 1
0 57 27 -12 -1 0 0 -3.152344 4.037109 1 0 1
0 57 30 -12 -1 0 0 -3.191406 4.037109 1 0 1
bridge_se1_metal_flat_steel_01
0 57 27 -148 -1 0 0 -3.152344 5.807943 1 0 1
0 57 30 -12 -1 0 0 -3.191406 4.037109 1 0 1
0 57 30 -148 -1 0 0 -3.191406 5.807943 1 0 1
bridge_se1_metal_flat_steel_01
0 60 27 -12 1 0 0 -3.152344 4.037109 1 0 1
0 60 27 -148 1 0 0 -3.152344 5.807943 1 0 1
0 60 30 -148 1 0 0 -3.191406 5.807943 1 0 1
bridge_se1_metal_flat_steel_01
0 60 27 -12 1 0 0 -3.152344 4.037109 1 0 1
0 60 30 -148 1 0 0 -3.191406 5.807943 1 0 1
0 60 30 -12 1 0 0 -3.191406 4.037109 1 0 1
af_omega_clock_glass
0 -200 -165 -99 -1 0 0 -2.742188 -13.132812 1 0 1
0 -200 -165 -17 -1 0 0 -2.742188 -8.861979 1 0 1
0 -200 -115 -17 -1 0 0 -5.346354 -8.861979 1 0 1
af_omega_clock_glass
0 -200 -165 -99 -1 0 0 -2.742188 -13.132812 1 0 1
0 -200 -115 -17 -1 0 0 -5.346354 -8.861979 1 0 1
0 -200 -115 -99 -1 0 0 -5.346354 -13.132812 1 0 1
af_omega_clock_glass
0 -199 -115 -99 1 0 0 5.268229 -13.132812 1 0 1
0 -199 -115 -17 1 0 0 5.268229 -8.861979 1 0 1
0 -199 -165 -17 1 0 0 2.664062 -8.861979 1 0 1
af_omega_clock_glass
0 -199 -115 -99 1 0 0 5.268229 -13.132812 1 0 1
0 -199 -165 -17 1 0 0 2.664062 -8.861979 1 0 1
0 -199 -165 -99 1 0 0 2.664062 -13.132812 1 0 1
bridge_se1_metal_flat_steel_01
0 -194 -219 -17 0 1 0 1.046875 -70.515625 1 0 1
0 -194 -219 -57 0 1 0 1.359375 -70.515625 1 0 1
0 -204 -219 -57 0 1 0 1.359375 -70.59375 1 0 1
bridge_se1_metal_flat_steel_01
0 -194 -219 -17 0 1 0 1.046875 -70.515625 1 0 1
0 -204 -219 -57 0 1 0 1.359375 -70.59375 1 0 1
0 -204 -219 -17 0 1 0 1.046875 -70.59375 1 0 1
bridge_se1_metal_flat_steel_01
0 -194 -221 -57 0 -1 0 -1.65625 -70.515625 1 0 1
0 -194 -221 -17 0 -1 0 -1.34375 -70.515625 1 0 1
0 -204 -221 -17 0 -1 0 -1.34375 -70.59375 1 0 1
bridge_se1_metal_flat_steel_01
0 -194 -221 -57 0 -1 0 -1.65625 -70.515625 1 0 1
0 -204 -221 -17 0 -1 0 -1.34375 -70.59375 1 0 1
0 -204 -221 -57 0 -1 0 -1.65625 -70.59375 1 0 1
bridge_se1_metal_flat_steel_01
0 -204 -221 -57 -1 0 0 1.359375 0.765625 1 0 1
0 -204 -221 -17 -1 0 0 1.046875 0.765625 1 0 1
0 -204 -219 -17 -1 0 0 1.046875 0.78125 1 0 1
bridge_se1_metal_flat_steel_01
0 -204 -221 -57 -1 0 0 1.359375 0.765625 1 0 1
0 -204 -219 -17 -1 0 0 1.046875 0.78125 1 0 1
0 -204 -219 -57 -1 0 0 1.359375 0.78125 1 0 1
bridge_se1_metal_flat_steel_01
0 -194 -221 -17 1 0 0 1.046875 1.234375 1 0 1
0 -194 -221 -57 1 0 0 1.359375 1.234375 1 0 1
0 -194 -219 -57 1 0 0 1.359375 1.21875 1 0 1
bridge_se1_metal_flat_steel_01
0 -194 -221 -17 1 0 0 1.046875 1.234375 1 0 1
0 -194 -219 -57 1 0 0 1.359375 1.21875 1 0 1
0 -194 -219 -17 1 0 0 1.046875 1.21875 1 0 1
bridge_se1_metal_flat_steel_01
0 -194 -221 -57 0 0 -1 0.101562 -70.75 1 0 1
0 -204 -221 -57 0 0 -1 0.101562 -70.828125 1 0 1
0 -204 -219 -57 0 0 -1 0.117188 -70.828125 1 0 1
bridge_se1_metal_flat_steel_01
0 -194 -221 -57 0 0 -1 0.101562 -70.75 1 0 1
0 -204 -219 -57 0 0 -1 0.117188 -70.828125 1 0 1
0 -194 -219 -57 0 0 -1 0.117188 -70.75 1 0 1
bridge_se1_metal_flat_steel_01
0 -204 -221 -17 0 0 1 -0.101562 -70.828125 1 0 1
0 -194 -221 -17 0 0 1 -0.101562 -70.75 1 0 1
0 -194 -219 -17 0 0 1 -0.117188 -70.75 1 0 1
bridge_se1_metal_flat_steel_01
0 -204 -221 -17 0 0 1 -0.101562 -70.828125 1 0 1
0 -194 -219 -17 0 0 1 -0.117188 -70.75 1 0 1
0 -204 -219 -17 0 0 1 -0.117188 -70.828125 1 0 1
bridge_se1_metal_flat_steel_01
0 66 27 -148 0 -1 0 115.479167 5.807943 1 0 1
0 66 27 -12 0 -1 0 115.479167 4.037109 1 0 1
0 63 27 -12 0 -1 0 115.518229 4.037109 1 0 1
bridge_se1_metal_flat_steel_01
0 66 27 -148 0 -1 0 115.479167 5.807943 1 0 1
0 63 27 -12 0 -1 0 115.518229 4.037109 1 0 1
0 63 27 -148 0 -1 0 115.518229 5.807943 1 0 1
bridge_se1_metal_flat_steel_01
0 63 27 -148 -1 0 0 -3.152344 5.807943 1 0 1
0 63 27 -12 -1 0 0 -3.152344 4.037109 1 0 1
0 63 30 -12 -1 0 0 -3.191406 4.037109 1 0 1
bridge_se1_metal_flat_steel_01
0 63 27 -148 -1 0 0 -3.152344 5.807943 1 0 1
0 63 30 -12 -1 0 0 -3.191406 4.037109 1 0 1
0 63 30 -148 -1 0 0 -3.191406 5.807943 1 0 1
bridge_se1_metal_flat_steel_01
0 66 27 -12 1 0 0 -3.152344 4.037109 1 0 1
0 66 27 -148 1 0 0 -3.152344 5.807943 1 0 1
0 66 30 -148 1 0 0 -3.191406 5.807943 1 0 1
bridge_se1_metal_flat_steel_01
0 66 27 -12 1 0 0 -3.152344 4.037109 1 0 1
0 66 30 -148 1 0 0 -3.191406 5.807943 1 0 1
0 66 30 -12 1 0 0 -3.191406 4.037109 1 0 1
bridge_se1_metal_flat_steel_01
0 -194 -115 -99 0 -0.707107 -0.707107 -1.8125 -70.003906 1 0 1
0 -204 -115 -99 0 -0.707107 -0.707107 -1.8125 -70.082031 1 0 1
0 -204 -113 -101 0 -0.707107 -0.707107 -1.828125 -70.082031 1 0 1
bridge_se1_metal_flat_steel_01
0 -194 -115 -99 0 -0.707107 -0.707107 -1.8125 -70.003906 1 0 1
0 -204 -113 -101 0 -0.707107 -0.707107 -1.828125 -70.082031 1 0 1
0 -194 -113 -101 0 -0.707107 -0.707107 -1.828125 -70.003906 1 0 1
bridge_se1_metal_flat_steel_01
0 -204 -115 -17 0 -1 0 -1.015625 -70.59375 1 0 1
0 -204 -115 -99 0 -1 0 -1.65625 -70.59375 1 0 1
0 -194 -115 -99 0 -1 0 -1.65625 -70.515625 1 0 1
bridge_se1_metal_flat_steel_01
0 -204 -115 -17 0 -1 0 -1.015625 -70.59375 1 0 1
0 -194 -115 -99 0 -1 0 -1.65625 -70.515625 1 0 1
0 -194 -115 -17 0 -1 0 -1.015625 -70.515625 1 0 1
bridge_se1_metal_flat_steel_01
0 -204 -113 -101 -1 0 0 -1.671875 0.390625 1 0 1
0 -204 -115 -99 -1 0 0 -1.65625 0.40625 1 0 1
0 -204 -115 -17 -1 0 0 -1.015625 0.40625 1 0 1
bridge_se1_metal_flat_steel_01
0 -204 -113 -101 -1 0 0 -1.671875 0.390625 1 0 1
0 -204 -115 -17 -1 0 0 -1.015625 0.40625 1 0 1
0 -204 -113 -15 -1 0 0 -1 0.390625 1 0 1
bridge_se1_metal_flat_steel_01
0 -194 -115 -17 1 0 0 -1.015625 1.59375 1 0 1
0 -194 -115 -99 1 0 0 -1.65625 1.59375 1 0 1
0 -194 -113 -101 1 0 0 -1.671875 1.609375 1 0 1
bridge_se1_metal_flat_steel_01
0 -194 -115 -17 1 0 0 -1.015625 1.59375 1 0 1
0 -194 -113 -101 1 0 0 -1.671875 1.609375 1 0 1
0 -194 -113 -15 1 0 0 -1 1.609375 1 0 1
bridge_se1_metal_flat_steel_01
0 -204 -115 -17 0 -0.707107 0.707107 -1.171875 -70.082031 1 0 1
0 -194 -115 -17 0 -0.707107 0.707107 -1.171875 -70.003906 1 0 1
0 -194 -113 -15 0 -0.707107 0.707107 -1.15625 -70.003906 1 0 1
bridge_se1_metal_flat_steel_01
0 -204 -115 -17 0 -0.707107 0.707107 -1.171875 -70.082031 1 0 1
0 -194 -113 -15 0 -0.707107 0.707107 -1.15625 -70.003906 1 0 1
0 -204 -113 -15 0 -0.707107 0.707107 -1.15625 -70.082031 1 0 1
af_omega_clock_glass
0 -200 -219 -99 -1 0 0 0.453125 -13.132812 1 0 1
0 -200 -219 -17 -1 0 0 0.453125 -8.861979 1 0 1
0 -200 -167 -17 -1 0 0 3.161458 -8.861979 1 0 1
af_omega_clock_glass
0 -200 -219 -99 -1 0 0 0.453125 -13.132812 1 0 1
0 -200 -167 -17 -1 0 0 3.161458 -8.861979 1 0 1
0 -200 -167 -99 -1 0 0 3.161458 -13.132812 1 0 1
af_omega_clock_glass
0 -199 -219 -17 1 0 0 0.453125 -8.861979 1 0 1
0 -199 -219 -99 1 0 0 0.453125 -13.132812 1 0 1
0 -199 -167 -99 1 0 0 3.161458 -13.132812 1 0 1
af_omega_clock_glass
0 -199 -219 -17 1 0 0 0.453125 -8.861979 1 0 1
0 -199 -167 -99 1 0 0 3.161458 -13.132812 1 0 1
0 -199 -167 -17 1 0 0 3.161458 -8.861979 1 0 1
bridge_se1_metal_flat_steel_01
0 -51 27 -148 0 -1 0 116.846354 5.807943 1 0 1
0 -51 27 -12 0 -1 0 116.846354 4.037109 1 0 1
0 -54 27 -12 0 -1 0 116.885417 4.037109 1 0 1
bridge_se1_metal_flat_steel_01
0 -51 27 -148 0 -1 0 116.846354 5.807943 1 0 1
0 -54 27 -12 0 -1 0 116.885417 4.037109 1 0 1
0 -54 27 -148 0 -1 0 116.885417 5.807943 1 0 1
bridge_se1_metal_flat_steel_01
0 -54 27 -148 -1 0 0 -3.152344 5.807943 1 0 1
0 -54 27 -12 -1 0 0 -3.152344 4.037109 1 0 1
0 -54 30 -12 -1 0 0 -3.191406 4.037109 1 0 1
bridge_se1_metal_flat_steel_01
0 -54 27 -148 -1 0 0 -3.152344 5.807943 1 0 1
0 -54 30 -12 -1 0 0 -3.191406 4.037109 1 0 1
0 -54 30 -148 -1 0 0 -3.191406 5.807943 1 0 1
bridge_se1_metal_flat_steel_01
0 -51 30 -148 1 0 0 -3.191406 5.807943 1 0 1
0 -51 30 -12 1 0 0 -3.191406 4.037109 1 0 1
0 -51 27 -12 1 0 0 -3.152344 4.037109 1 0 1
bridge_se1_metal_flat_steel_01
0 -51 30 -148 1 0 0 -3.191406 5.807943 1 0 1
0 -51 27 -12 1 0 0 -3.152344 4.037109 1 0 1
0 -51 27 -148 1 0 0 -3.152344 5.807943 1 0 1
pepsi2_arch_concrete_panel01
0 194 -29 -12 0 -1 0 67.984375 3.269531 1 0 1
0 194 -29 12 0 -1 0 67.984375 3.082031 1 0 1
0 -194 -29 12 0 -1 0 71.015625 3.082031 1 0 1
pepsi2_arch_concrete_panel01
0 194 -29 -12 0 -1 0 67.984375 3.269531 1 0 1
0 -194 -29 12 0 -1 0 71.015625 3.082031 1 0 1
0 -194 -29 -12 0 -1 0 71.015625 3.269531 1 0 1
pepsi2_arch_concrete_panel01
0 194 -29 -12 0 0 -1 67.984375 2.269531 1 0 1
0 -194 -29 -12 0 0 -1 71.015625 2.269531 1 0 1
0 -194 30 -12 0 0 -1 71.015625 2.730469 1 0 1
pepsi2_arch_concrete_panel01
0 194 -29 -12 0 0 -1 67.984375 2.269531 1 0 1
0 -194 30 -12 0 0 -1 71.015625 2.730469 1 0 1
0 194 30 -12 0 0 -1 67.984375 2.730469 1 0 1
bridge_se1_metal_flat_steel_01
0 -194 -221 -99 0 -1 0 -1.65625 -70.515625 1 0 1
0 -194 -221 -59 0 -1 0 -1.34375 -70.515625 1 0 1
0 -204 -221 -59 0 -1 0 -1.34375 -70.59375 1 0 1
bridge_se1_metal_flat_steel_01
0 -194 -221 -99 0 -1 0 -1.65625 -70.515625 1 0 1
0 -204 -221 -59 0 -1 0 -1.34375 -70.59375 1 0 1
0 -204 -221 -99 0 -1 0 -1.65625 -70.59375 1 0 1
bridge_se1_metal_flat_steel_01
0 -204 -221 -99 -1 0 0 1.359375 0.765625 1 0 1
0 -204 -221 -59 -1 0 0 1.046875 0.765625 1 0 1
0 -204 -219 -59 -1 0 0 1.046875 0.78125 1 0 1
bridge_se1_metal_flat_steel_01
0 -204 -221 -99 -1 0 0 1.359375 0.765625 1 0 1
0 -204 -219 -59 -1 0 0 1.046875 0.78125 1 0 1
0 -204 -219 -99 -1 0 0 1.359375 0.78125 1 0 1
bridge_se1_metal_flat_steel_01
0 -194 -221 -59 1 0 0 1.046875 1.234375 1 0 1
0 -194 -221 -99 1 0 0 1.359375 1.234375 1 0 1
0 -194 -219 -99 1 0 0 1.359375 1.21875 1 0 1
bridge_se1_metal_flat_steel_01
0 -194 -221 -59 1 0 0 1.046875 1.234375 1 0 1
0 -194 -219 -99 1 0 0 1.359375 1.21875 1 0 1
0 -194 -219 -59 1 0 0 1.046875 1.21875 1 0 1
bridge_se1_metal_flat_steel_01
0 -194 -221 -99 0 0 -1 0.101562 -70.75 1 0 1
0 -204 -221 -99 0 0 -1 0.101562 -70.828125 1 0 1
0 -204 -219 -99 0 0 -1 0.117188 -70.828125 1 0 1
bridge_se1_metal_flat_steel_01
0 -194 -221 -99 0 0 -1 0.101562 -70.75 1 0 1
0 -204 -219 -99 0 0 -1 0.117188 -70.828125 1 0 1
0 -194 -219 -99 0 0 -1 0.117188 -70.75 1 0 1
bridge_se1_metal_flat_steel_01
0 -204 -221 -59 0 0 1 -0.101562 -70.828125 1 0 1
0 -194 -221 -59 0 0 1 -0.101562 -70.75 1 0 1
0 -194 -219 -59 0 0 1 -0.117188 -70.75 1 0 1
bridge_se1_metal_flat_steel_01
0 -204 -221 -59 0 0 1 -0.101562 -70.828125 1 0 1
0 -194 -219 -59 0 0 1 -0.117188 -70.75 1 0 1
0 -204 -219 -59 0 0 1 -0.117188 -70.828125 1 0 1
bridge_se1_metal_flat_steel_01
0 -194 -219 -59 0 1 0 1.046875 -70.515625 1 0 1
0 -194 -219 -99 0 1 0 1.359375 -70.515625 1 0 1
0 -204 -219 -99 0 1 0 1.359375 -70.59375 1 0 1
bridge_se1_metal_flat_steel_01
0 -194 -219 -59 0 1 0 1.046875 -70.515625 1 0 1
0 -204 -219 -99 0 1 0 1.359375 -70.59375 1 0 1
0 -204 -219 -59 0 1 0 1.046875 -70.59375 1 0 1
bridge_se1_metal_flat_steel_01
0 -194 -165 -59 0 1 0 1.046875 -70.515625 1 0 1
0 -194 -165 -99 0 1 0 1.359375 -70.515625 1 0 1
0 -204 -165 -99 0 1 0 1.359375 -70.59375 1 0 1
bridge_se1_metal_flat_steel_01
0 -194 -165 -59 0 1 0 1.046875 -70.515625 1 0 1
0 -204 -165 -99 0 1 0 1.359375 -70.59375 1 0 1
0 -204 -165 -59 0 1 0 1.046875 -70.59375 1 0 1
bridge_se1_metal_flat_steel_01
0 -194 -167 -99 0 -1 0 -1.65625 -70.515625 1 0 1
0 -194 -167 -59 0 -1 0 -1.34375 -70.515625 1 0 1
0 -204 -167 -59 0 -1 0 -1.34375 -70.59375 1 0 1
bridge_se1_metal_flat_steel_01
0 -194 -167 -99 0 -1 0 -1.65625 -70.515625 1 0 1
0 -204 -167 -59 0 -1 0 -1.34375 -70.59375 1 0 1
0 -204 -167 -99 0 -1 0 -1.65625 -70.59375 1 0 1
bridge_se1_metal_flat_steel_01
0 -204 -167 -99 -1 0 0 1.359375 1.140625 1 0 1
0 -204 -167 -59 -1 0 0 1.046875 1.140625 1 0 1
0 -204 -165 -59 -1 0 0 1.046875 1.15625 1 0 1
bridge_se1_metal_flat_steel_01
0 -204 -167 -99 -1 0 0 1.359375 1.140625 1 0 1
0 -204 -165 -59 -1 0 0 1.046875 1.15625 1 0 1
0 -204 -165 -99 -1 0 0 1.359375 1.15625 1 0 1
bridge_se1_metal_flat_steel_01
0 -194 -167 -59 1 0 0 1.046875 0.859375 1 0 1
0 -194 -167 -99 1 0 0 1.359375 0.859375 1 0 1
0 -194 -165 -99 1 0 0 1.359375 0.84375 1 0 1
bridge_se1_metal_flat_steel_01
0 -194 -167 -59 1 0 0 1.046875 0.859375 1 0 1
0 -194 -165 -99 1 0 0 1.359375 0.84375 1 0 1
0 -194 -165 -59 1 0 0 1.046875 0.84375 1 0 1
bridge_se1_metal_flat_steel_01
0 -194 -167 -99 0 0 -1 0.523438 -70.75 1 0 1
0 -204 -167 -99 0 0 -1 0.523438 -70.828125 1 0 1
0 -204 -165 -99 0 0 -1 0.539062 -70.828125 1 0 1
bridge_se1_metal_flat_steel_01
0 -194 -167 -99 0 0 -1 0.523438 -70.75 1 0 1
0 -204 -165 -99 0 0 -1 0.539062 -70.828125 1 0 1
0 -194 -165 -99 0 0 -1 0.539062 -70.75 1 0 1
bridge_se1_metal_flat_steel_01
0 -204 -167 -59 0 0 1 -0.523438 -70.828125 1 0 1
0 -194 -167 -59 0 0 1 -0.523438 -70.75 1 0 1
0 -194 -165 -59 0 0 1 -0.539062 -70.75 1 0 1
bridge_se1_metal_flat_steel_01
0 -204 -167 -59 0 0 1 -0.523438 -70.828125 1 0 1
0 -194 -165 -59 0 0 1 -0.539062 -70.75 1 0 1
0 -204 -165 -59 0 0 1 -0.539062 -70.828125 1 0 1
bridge_se1_metal_flat_steel_01
0 -194 -115 -57 0 1 0 -1.484375 -70.003906 1 0 1
0 -194 -115 -59 0 1 0 -1.5 -70.003906 1 0 1
0 -204 -115 -59 0 1 0 -1.5 -70.082031 1 0 1
bridge_se1_metal_flat_steel_01
0 -194 -115 -57 0 1 0 -1.484375 -70.003906 1 0 1
0 -204 -115 -59 0 1 0 -1.5 -70.082031 1 0 1
0 -204 -115 -57 0 1 0 -1.484375 -70.082031 1 0 1
bridge_se1_metal_flat_steel_01
0 -194 -271 -59 0 -1 0 -1.5 -70.003906 1 0 1
0 -194 -271 -57 0 -1 0 -1.484375 -70.003906 1 0 1
0 -204 -271 -57 0 -1 0 -1.484375 -70.082031 1 0 1
bridge_se1_metal_flat_steel_01
0 -194 -271 -59 0 -1 0 -1.5 -70.003906 1 0 1
0 -204 -271 -57 0 -1 0 -1.484375 -70.082031 1 0 1
0 -204 -271 -59 0 -1 0 -1.5 -70.082031 1 0 1
bridge_se1_metal_flat_steel_01
0 -204 -271 -59 -1 0 0 -0.515625 2.90625 1 0 1
0 -204 -271 -57 -1 0 0 -0.515625 2.890625 1 0 1
0 -204 -115 -57 -1 0 0 0.703125 2.890625 1 0 1
bridge_se1_metal_flat_steel_01
0 -204 -271 -59 -1 0 0 -0.515625 2.90625 1 0 1
0 -204 -115 -57 -1 0 0 0.703125 2.890625 1 0 1
0 -204 -115 -59 -1 0 0 0.703125 2.90625 1 0 1
bridge_se1_metal_flat_steel_01
0 -194 -271 -57 1 0 0 -0.515625 -0.890625 1 0 1
0 -194 -271 -59 1 0 0 -0.515625 -0.90625 1 0 1
0 -194 -115 -59 1 0 0 0.703125 -0.90625 1 0 1
bridge_se1_metal_flat_steel_01
0 -194 -271 -57 1 0 0 -0.515625 -0.890625 1 0 1
0 -194 -115 -59 1 0 0 0.703125 -0.90625 1 0 1
0 -194 -115 -57 1 0 0 0.703125 -0.890625 1 0 1
bridge_se1_metal_flat_steel_01
0 -194 -271 -59 0 0 -1 -0.515625 -70.515625 1 0 1
0 -204 -271 -59 0 0 -1 -0.515625 -70.59375 1 0 1
0 -204 -115 -59 0 0 -1 0.703125 -70.59375 1 0 1
bridge_se1_metal_flat_steel_01
0 -194 -271 -59 0 0 -1 -0.515625 -70.515625 1 0 1
0 -204 -115 -59 0 0 -1 0.703125 -70.59375 1 0 1
0 -194 -115 -59 0 0 -1 0.703125 -70.515625 1 0 1
bridge_se1_metal_flat_steel_01
0 -204 -271 -57 0 0 1 -0.46875 -70.59375 1 0 1
0 -194 -271 -57 0 0 1 -0.46875 -70.515625 1 0 1
0 -194 -115 -57 0 0 1 0.75 -70.515625 1 0 1
bridge_se1_metal_flat_steel_01
0 -204 -271 -57 0 0 1 -0.46875 -70.59375 1 0 1
0 -194 -115 -57 0 0 1 0.75 -70.515625 1 0 1
0 -204 -115 -57 0 0 1 0.75 -70.59375 1 0 1
bridge_se1_metal_flat_steel_01
0 -57 27 -148 0 -1 0 116.846354 5.807943 1 0 1
0 -57 27 -12 0 -1 0 116.846354 4.037109 1 0 1
0 -60 27 -12 0 -1 0 116.885417 4.037109 1 0 1
bridge_se1_metal_flat_steel_01
0 -57 27 -148 0 -1 0 116.846354 5.807943 1 0 1
0 -60 27 -12 0 -1 0 116.885417 4.037109 1 0 1
0 -60 27 -148 0 -1 0 116.885417 5.807943 1 0 1
bridge_se1_metal_flat_steel_01
0 -60 27 -148 -1 0 0 -3.152344 5.807943 1 0 1
0 -60 27 -12 -1 0 0 -3.152344 4.037109 1 0 1
0 -60 30 -12 -1 0 0 -3.191406 4.037109 1 0 1
bridge_se1_metal_flat_steel_01
0 -60 27 -148 -1 0 0 -3.152344 5.807943 1 0 1
0 -60 30 -12 -1 0 0 -3.191406 4.037109 1 0 1
0 -60 30 -148 -1 0 0 -3.191406 5.807943 1 0 1
bridge_se1_metal_flat_steel_01
0 -57 27 -12 1 0 0 -3.152344 4.037109 1 0 1
0 -57 27 -148 1 0 0 -3.152344 5.807943 1 0 1
0 -57 30 -148 1 0 0 -3.191406 5.807943 1 0 1
bridge_se1_metal_flat_steel_01
0 -57 27 -12 1 0 0 -3.152344 4.037109 1 0 1
0 -57 30 -148 1 0 0 -3.191406 5.807943 1 0 1
0 -57 30 -12 1 0 0 -3.191406 4.037109 1 0 1
bridge_se1_metal_flat_steel_01
0 54 27 -148 0 -1 0 115.479167 5.807943 1 0 1
0 54 27 -12 0 -1 0 115.479167 4.037109 1 0 1
0 51 27 -12 0 -1 0 115.518229 4.037109 1 0 1
bridge_se1_metal_flat_steel_01
0 54 27 -148 0 -1 0 115.479167 5.807943 1 0 1
0 51 27 -12 0 -1 0 115.518229 4.037109 1 0 1
0 51 27 -148 0 -1 0 115.518229 5.807943 1 0 1
bridge_se1_metal_flat_steel_01
0 51 27 -148 -1 0 0 -3.152344 5.807943 1 0 1
0 51 27 -12 -1 0 0 -3.152344 4.037109 1 0 1
0 51 30 -12 -1 0 0 -3.191406 4.037109 1 0 1
bridge_se1_metal_flat_steel_01
0 51 27 -148 -1 0 0 -3.152344 5.807943 1 0 1
0 51 30 -12 -1 0 0 -3.191406 4.037109 1 0 1
0 51 30 -148 -1 0 0 -3.191406 5.807943 1 0 1
bridge_se1_metal_flat_steel_01
0 54 27 -12 1 0 0 -3.152344 4.037109 1 0 1
0 54 27 -148 1 0 0 -3.152344 5.807943 1 0 1
0 54 30 -148 1 0 0 -3.191406 5.807943 1 0 1
bridge_se1_metal_flat_steel_01
0 54 27 -12 1 0 0 -3.152344 4.037109 1 0 1
0 54 30 -148 1 0 0 -3.191406 5.807943 1 0 1
0 54 30 -12 1 0 0 -3.191406 4.037109 1 0 1
bridge_se1_metal_flat_steel_01
0 -194 -167 -57 1 0 0 1.359375 0.859375 1 0 1
0 -194 -165 -57 1 0 0 1.359375 0.84375 1 0 1
0 -194 -165 -17 1 0 0 1.046875 0.84375 1 0 1
bridge_se1_metal_flat_steel_01
0 -194 -167 -57 1 0 0 1.359375 0.859375 1 0 1
0 -194 -165 -17 1 0 0 1.046875 0.84375 1 0 1
0 -194 -167 -17 1 0 0 1.046875 0.859375 1 0 1
bridge_se1_metal_flat_steel_01
0 -204 -165 -57 0 0 -1 0.539062 -70.828125 1 0 1
0 -194 -165 -57 0 0 -1 0.539062 -70.75 1 0 1
0 -194 -167 -57 0 0 -1 0.523438 -70.75 1 0 1
bridge_se1_metal_flat_steel_01
0 -204 -165 -57 0 0 -1 0.539062 -70.828125 1 0 1
0 -194 -167 -57 0 0 -1 0.523438 -70.75 1 0 1
0 -204 -167 -57 0 0 -1 0.523438 -70.828125 1 0 1
bridge_se1_metal_flat_steel_01
0 -204 -167 -17 0 0 1 -0.523438 -70.828125 1 0 1
0 -194 -167 -17 0 0 1 -0.523438 -70.75 1 0 1
0 -194 -165 -17 0 0 1 -0.539062 -70.75 1 0 1
bridge_se1_metal_flat_steel_01
0 -204 -167 -17 0 0 1 -0.523438 -70.828125 1 0 1
0 -194 -165 -17 0 0 1 -0.539062 -70.75 1 0 1
0 -204 -165 -17 0 0 1 -0.539062 -70.828125 1 0 1
bridge_se1_metal_flat_steel_01
0 -194 -165 -17 0 1 0 1.046875 -70.515625 1 0 1
0 -194 -165 -57 0 1 0 1.359375 -70.515625 1 0 1
0 -204 -165 -57 0 1 0 1.359375 -70.59375 1 0 1
bridge_se1_metal_flat_steel_01
0 -194 -165 -17 0 1 0 1.046875 -70.515625 1 0 1
0 -204 -165 -57 0 1 0 1.359375 -70.59375 1 0 1
0 -204 -165 -17 0 1 0 1.046875 -70.59375 1 0 1
bridge_se1_metal_flat_steel_01
0 -194 -167 -57 0 -1 0 -1.65625 -70.515625 1 0 1
0 -194 -167 -17 0 -1 0 -1.34375 -70.515625 1 0 1
0 -204 -167 -17 0 -1 0 -1.34375 -70.59375 1 0 1
bridge_se1_metal_flat_steel_01
0 -194 -167 -57 0 -1 0 -1.65625 -70.515625 1 0 1
0 -204 -167 -17 0 -1 0 -1.34375 -70.59375 1 0 1
0 -204 -167 -57 0 -1 0 -1.65625 -70.59375 1 0 1
bridge_se1_metal_flat_steel_01
0 -204 -167 -17 -1 0 0 1.046875 1.140625 1 0 1
0 -204 -165 -17 -1 0 0 1.046875 1.15625 1 0 1
0 -204 -165 -57 -1 0 0 1.359375 1.15625 1 0 1
bridge_se1_metal_flat_steel_01
0 -204 -167 -17 -1 0 0 1.046875 1.140625 1 0 1
0 -204 -165 -57 -1 0 0 1.359375 1.15625 1 0 1
0 -204 -167 -57 -1 0 0 1.359375 1.140625 1 0 1
bridge_se1_metal_flat_steel_01
0 -194 -271 -17 1 0 0 -0.875 -0.53125 1 0 1
0 -194 -115 -17 1 0 0 0.34375 -0.53125 1 0 1
0 -194 -113 -15 1 0 0 0.359375 -0.515625 1 0 1
bridge_se1_metal_flat_steel_01
0 -194 -271 -17 1 0 0 -0.875 -0.53125 1 0 1
0 -194 -113 -15 1 0 0 0.359375 -0.515625 1 0 1
0 -194 -273 -15 1 0 0 -0.890625 -0.515625 1 0 1
bridge_se1_metal_flat_steel_01
0 -204 -115 -17 0 0 -1 0.34375 -70.59375 1 0 1
0 -194 -115 -17 0 0 -1 0.34375 -70.515625 1 0 1
0 -194 -271 -17 0 0 -1 -0.875 -70.515625 1 0 1
bridge_se1_metal_flat_steel_01
0 -204 -115 -17 0 0 -1 0.34375 -70.59375 1 0 1
0 -194 -271 -17 0 0 -1 -0.875 -70.515625 1 0 1
0 -204 -271 -17 0 0 -1 -0.875 -70.59375 1 0 1
bridge_se1_metal_flat_steel_01
0 -204 -113 -15 0 0.707107 -0.707107 -1.15625 -70.082031 1 0 1
0 -194 -113 -15 0 0.707107 -0.707107 -1.15625 -70.003906 1 0 1
0 -194 -115 -17 0 0.707107 -0.707107 -1.171875 -70.003906 1 0 1
bridge_se1_metal_flat_steel_01
0 -204 -113 -15 0 0.707107 -0.707107 -1.15625 -70.082031 1 0 1
0 -194 -115 -17 0 0.707107 -0.707107 -1.171875 -70.003906 1 0 1
0 -204 -115 -17 0 0.707107 -0.707107 -1.171875 -70.082031 1 0 1
bridge_se1_metal_flat_steel_01
0 -204 -271 -17 0 -0.707107 -0.707107 -1.171875 -70.082031 1 0 1
0 -194 -271 -17 0 -0.707107 -0.707107 -1.171875 -70.003906 1 0 1
0 -194 -273 -15 0 -0.707107 -0.707107 -1.15625 -70.003906 1 0 1
bridge_se1_metal_flat_steel_01
0 -204 -271 -17 0 -0.707107 -0.707107 -1.171875 -70.082031 1 0 1
0 -194 -273 -15 0 -0.707107 -0.707107 -1.15625 -70.003906 1 0 1
0 -204 -273 -15 0 -0.707107 -0.707107 -1.15625 -70.082031 1 0 1
bridge_se1_metal_flat_steel_01
0 -204 -273 -15 -1 0 0 -0.890625 2.515625 1 0 1
0 -204 -113 -15 -1 0 0 0.359375 2.515625 1 0 1
0 -204 -115 -17 -1 0 0 0.34375 2.53125 1 0 1
bridge_se1_metal_flat_steel_01
0 -204 -273 -15 -1 0 0 -0.890625 2.515625 1 0 1
0 -204 -115 -17 -1 0 0 0.34375 2.53125 1 0 1
0 -204 -271 -17 -1 0 0 -0.875 2.53125 1 0 1
bridge_se1_metal_flat_steel_01
0 -204 -271 -99 -1 0 0 -0.875 3.09375 1 0 1
0 -204 -115 -99 -1 0 0 0.34375 3.09375 1 0 1
0 -204 -113 -101 -1 0 0 0.359375 3.109375 1 0 1
bridge_se1_metal_flat_steel_01
0 -204 -271 -99 -1 0 0 -0.875 3.09375 1 0 1
0 -204 -113 -101 -1 0 0 0.359375 3.109375 1 0 1
0 -204 -273 -101 -1 0 0 -0.890625 3.109375 1 0 1
bridge_se1_metal_flat_steel_01
0 -194 -273 -101 1 0 0 -0.890625 -1.109375 1 0 1
0 -194 -113 -101 1 0 0 0.359375 -1.109375 1 0 1
0 -194 -115 -99 1 0 0 0.34375 -1.09375 1 0 1
bridge_se1_metal_flat_steel_01
0 -194 -273 -101 1 0 0 -0.890625 -1.109375 1 0 1
0 -194 -115 -99 1 0 0 0.34375 -1.09375 1 0 1
0 -194 -271 -99 1 0 0 -0.875 -1.09375 1 0 1
bridge_se1_metal_flat_steel_01
0 -194 -271 -99 0 0 1 -0.875 72.53125 1 0 1
0 -194 -115 -99 0 0 1 0.34375 72.53125 1 0 1
0 -204 -115 -99 0 0 1 0.34375 72.609375 1 0 1
bridge_se1_metal_flat_steel_01
0 -194 -271 -99 0 0 1 -0.875 72.53125 1 0 1
0 -204 -115 -99 0 0 1 0.34375 72.609375 1 0 1
0 -204 -271 -99 0 0 1 -0.875 72.609375 1 0 1
bridge_se1_metal_flat_steel_01
0 -194 -115 -99 0 0.707107 0.707107 -1.8125 -70.003906 1 0 1
0 -194 -113 -101 0 0.707107 0.707107 -1.828125 -70.003906 1 0 1
0 -204 -113 -101 0 0.707107 0.707107 -1.828125 -70.082031 1 0 1
bridge_se1_metal_flat_steel_01
0 -194 -115 -99 0 0.707107 0.707107 -1.8125 -70.003906 1 0 1
0 -204 -113 -101 0 0.707107 0.707107 -1.828125 -70.082031 1 0 1
0 -204 -115 -99 0 0.707107 0.707107 -1.8125 -70.082031 1 0 1
bridge_se1_metal_flat_steel_01
0 -194 -273 -101 0 -0.707107 0.707107 -1.828125 -70.003906 1 0 1
0 -194 -271 -99 0 -0.707107 0.707107 -1.8125 -70.003906 1 0 1
0 -204 -271 -99 0 -0.707107 0.707107 -1.8125 -70.082031 1 0 1
bridge_se1_metal_flat_steel_01
0 -194 -273 -101 0 -0.707107 0.707107 -1.828125 -70.003906 1 0 1
0 -204 -271 -99 0 -0.707107 0.707107 -1.8125 -70.082031 1 0 1
0 -204 -273 -101 0 -0.707107 0.707107 -1.828125 -70.082031 1 0 1
end
