version 1
nodes
0 "root" -1
end
skeleton
time 0
0 0 0 0 0 0 0
end
triangles
phys
0 -60 -140 43 0 0 1 1 0 1 0 1
0 -60 98 43 0 0 1 1 0 1 0 1
0 -60 98 75 0 0 1 1 0 1 0 1
phys
0 -60 -140 43 0 0 1 1 0 1 0 1
0 -60 98 75 0 0 1 1 0 1 0 1
0 -60 -140 75 0 0 1 1 0 1 0 1
phys
0 -62 98 43 0 0 1 1 0 1 0 1
0 -60 98 43 0 0 1 1 0 1 0 1
0 -60 -140 43 0 0 1 1 0 1 0 1
phys
0 -62 98 43 0 0 1 1 0 1 0 1
0 -60 -140 43 0 0 1 1 0 1 0 1
0 -62 -140 43 0 0 1 1 0 1 0 1
phys
0 -62 -140 75 0 0 1 1 0 1 0 1
0 -60 -140 75 0 0 1 1 0 1 0 1
0 -60 98 75 0 0 1 1 0 1 0 1
phys
0 -62 -140 75 0 0 1 1 0 1 0 1
0 -60 98 75 0 0 1 1 0 1 0 1
0 -62 98 75 0 0 1 1 0 1 0 1
phys
0 -60 98 75 0 0 1 1 0 1 0 1
0 -60 98 43 0 0 1 1 0 1 0 1
0 -62 98 43 0 0 1 1 0 1 0 1
phys
0 -60 98 75 0 0 1 1 0 1 0 1
0 -62 98 43 0 0 1 1 0 1 0 1
0 -62 98 75 0 0 1 1 0 1 0 1
phys
0 -60 -140 43 0 0 1 1 0 1 0 1
0 -60 -140 75 0 0 1 1 0 1 0 1
0 -62 -140 75 0 0 1 1 0 1 0 1
phys
0 -60 -140 43 0 0 1 1 0 1 0 1
0 -62 -140 75 0 0 1 1 0 1 0 1
0 -62 -140 43 0 0 1 1 0 1 0 1
phys
0 -62 -140 75 0 0 1 1 0 1 0 1
0 -62 98 75 0 0 1 1 0 1 0 1
0 -62 98 43 0 0 1 1 0 1 0 1
phys
0 -62 -140 75 0 0 1 1 0 1 0 1
0 -62 98 43 0 0 1 1 0 1 0 1
0 -62 -140 43 0 0 1 1 0 1 0 1
phys
0 -58 -140 75 0 0 1 2 0 1 0 1
0 -58 -140 32 0 0 1 2 0 1 0 1
0 -64 -140 32 0 0 1 2 0 1 0 1
phys
0 -58 -140 75 0 0 1 2 0 1 0 1
0 -64 -140 32 0 0 1 2 0 1 0 1
0 -64 -140 75 0 0 1 2 0 1 0 1
phys
0 -58 -146 32 0 0 1 2 0 1 0 1
0 -58 -146 75 0 0 1 2 0 1 0 1
0 -64 -146 75 0 0 1 2 0 1 0 1
phys
0 -58 -146 32 0 0 1 2 0 1 0 1
0 -64 -146 75 0 0 1 2 0 1 0 1
0 -64 -146 32 0 0 1 2 0 1 0 1
phys
0 -64 -146 32 0 0 1 2 0 1 0 1
0 -64 -146 75 0 0 1 2 0 1 0 1
0 -64 -140 75 0 0 1 2 0 1 0 1
phys
0 -64 -146 32 0 0 1 2 0 1 0 1
0 -64 -140 75 0 0 1 2 0 1 0 1
0 -64 -140 32 0 0 1 2 0 1 0 1
phys
0 -58 -146 75 0 0 1 2 0 1 0 1
0 -58 -146 32 0 0 1 2 0 1 0 1
0 -58 -140 32 0 0 1 2 0 1 0 1
phys
0 -58 -146 75 0 0 1 2 0 1 0 1
0 -58 -140 32 0 0 1 2 0 1 0 1
0 -58 -140 75 0 0 1 2 0 1 0 1
phys
0 -58 -146 32 0 0 1 2 0 1 0 1
0 -64 -146 32 0 0 1 2 0 1 0 1
0 -64 -140 32 0 0 1 2 0 1 0 1
phys
0 -58 -146 32 0 0 1 2 0 1 0 1
0 -64 -140 32 0 0 1 2 0 1 0 1
0 -58 -140 32 0 0 1 2 0 1 0 1
phys
0 -64 -146 75 0 0 1 2 0 1 0 1
0 -58 -146 75 0 0 1 2 0 1 0 1
0 -58 -140 75 0 0 1 2 0 1 0 1
phys
0 -64 -146 75 0 0 1 2 0 1 0 1
0 -58 -140 75 0 0 1 2 0 1 0 1
0 -64 -140 75 0 0 1 2 0 1 0 1
phys
0 -58 146 75 0 0 1 3 0 1 0 1
0 -58 146 32 0 0 1 3 0 1 0 1
0 -86 146 32 0 0 1 3 0 1 0 1
phys
0 -58 146 75 0 0 1 3 0 1 0 1
0 -86 146 32 0 0 1 3 0 1 0 1
0 -86 146 75 0 0 1 3 0 1 0 1
phys
0 -58 98 32 0 0 1 3 0 1 0 1
0 -58 98 75 0 0 1 3 0 1 0 1
0 -86 98 75 0 0 1 3 0 1 0 1
phys
0 -58 98 32 0 0 1 3 0 1 0 1
0 -86 98 75 0 0 1 3 0 1 0 1
0 -86 98 32 0 0 1 3 0 1 0 1
phys
0 -94 106 75 0 0 1 3 0 1 0 1
0 -94 138 75 0 0 1 3 0 1 0 1
0 -94 138 32 0 0 1 3 0 1 0 1
phys
0 -94 106 75 0 0 1 3 0 1 0 1
0 -94 138 32 0 0 1 3 0 1 0 1
0 -94 106 32 0 0 1 3 0 1 0 1
phys
0 -58 98 75 0 0 1 3 0 1 0 1
0 -58 98 32 0 0 1 3 0 1 0 1
0 -58 146 32 0 0 1 3 0 1 0 1
phys
0 -58 98 75 0 0 1 3 0 1 0 1
0 -58 146 32 0 0 1 3 0 1 0 1
0 -58 146 75 0 0 1 3 0 1 0 1
phys
0 -58 98 32 0 0 1 3 0 1 0 1
0 -86 98 32 0 0 1 3 0 1 0 1
0 -94 106 32 0 0 1 3 0 1 0 1
phys
0 -58 98 32 0 0 1 3 0 1 0 1
0 -94 106 32 0 0 1 3 0 1 0 1
0 -94 138 32 0 0 1 3 0 1 0 1
phys
0 -58 98 32 0 0 1 3 0 1 0 1
0 -94 138 32 0 0 1 3 0 1 0 1
0 -86 146 32 0 0 1 3 0 1 0 1
phys
0 -58 98 32 0 0 1 3 0 1 0 1
0 -86 146 32 0 0 1 3 0 1 0 1
0 -58 146 32 0 0 1 3 0 1 0 1
phys
0 -86 98 75 0 0 1 3 0 1 0 1
0 -58 98 75 0 0 1 3 0 1 0 1
0 -58 146 75 0 0 1 3 0 1 0 1
phys
0 -86 98 75 0 0 1 3 0 1 0 1
0 -58 146 75 0 0 1 3 0 1 0 1
0 -86 146 75 0 0 1 3 0 1 0 1
phys
0 -86 98 75 0 0 1 3 0 1 0 1
0 -86 146 75 0 0 1 3 0 1 0 1
0 -94 138 75 0 0 1 3 0 1 0 1
phys
0 -86 98 75 0 0 1 3 0 1 0 1
0 -94 138 75 0 0 1 3 0 1 0 1
0 -94 106 75 0 0 1 3 0 1 0 1
phys
0 -86 98 32 0 0 1 3 0 1 0 1
0 -86 98 75 0 0 1 3 0 1 0 1
0 -94 106 75 0 0 1 3 0 1 0 1
phys
0 -86 98 32 0 0 1 3 0 1 0 1
0 -94 106 75 0 0 1 3 0 1 0 1
0 -94 106 32 0 0 1 3 0 1 0 1
phys
0 -94 138 32 0 0 1 3 0 1 0 1
0 -94 138 75 0 0 1 3 0 1 0 1
0 -86 146 75 0 0 1 3 0 1 0 1
phys
0 -94 138 32 0 0 1 3 0 1 0 1
0 -86 146 75 0 0 1 3 0 1 0 1
0 -86 146 32 0 0 1 3 0 1 0 1
phys
0 -58 -140 32 0 0 1 4 0 1 0 1
0 -58 -140 43 0 0 1 4 0 1 0 1
0 -64 -140 43 0 0 1 4 0 1 0 1
phys
0 -58 -140 32 0 0 1 4 0 1 0 1
0 -64 -140 43 0 0 1 4 0 1 0 1
0 -64 -140 32 0 0 1 4 0 1 0 1
phys
0 -64 -140 32 0 0 1 4 0 1 0 1
0 -64 -140 43 0 0 1 4 0 1 0 1
0 -64 98 43 0 0 1 4 0 1 0 1
phys
0 -64 -140 32 0 0 1 4 0 1 0 1
0 -64 98 43 0 0 1 4 0 1 0 1
0 -64 98 32 0 0 1 4 0 1 0 1
phys
0 -58 -140 43 0 0 1 4 0 1 0 1
0 -58 -140 32 0 0 1 4 0 1 0 1
0 -58 98 32 0 0 1 4 0 1 0 1
phys
0 -58 -140 43 0 0 1 4 0 1 0 1
0 -58 98 32 0 0 1 4 0 1 0 1
0 -58 98 43 0 0 1 4 0 1 0 1
phys
0 -58 -140 32 0 0 1 4 0 1 0 1
0 -64 -140 32 0 0 1 4 0 1 0 1
0 -64 98 32 0 0 1 4 0 1 0 1
phys
0 -58 -140 32 0 0 1 4 0 1 0 1
0 -64 98 32 0 0 1 4 0 1 0 1
0 -58 98 32 0 0 1 4 0 1 0 1
phys
0 -64 -140 43 0 0 1 4 0 1 0 1
0 -58 -140 43 0 0 1 4 0 1 0 1
0 -58 98 43 0 0 1 4 0 1 0 1
phys
0 -64 -140 43 0 0 1 4 0 1 0 1
0 -58 98 43 0 0 1 4 0 1 0 1
0 -64 98 43 0 0 1 4 0 1 0 1
phys
0 -58 98 43 0 0 1 4 0 1 0 1
0 -58 98 32 0 0 1 4 0 1 0 1
0 -64 98 32 0 0 1 4 0 1 0 1
phys
0 -58 98 43 0 0 1 4 0 1 0 1
0 -64 98 32 0 0 1 4 0 1 0 1
0 -64 98 43 0 0 1 4 0 1 0 1
phys
0 -58 114 0 0 0 1 5 0 1 0 1
0 78 114 0 0 0 1 5 0 1 0 1
0 94 98 0 0 0 1 5 0 1 0 1
phys
0 -58 114 0 0 0 1 5 0 1 0 1
0 94 98 0 0 0 1 5 0 1 0 1
0 -58 98 0 0 0 1 5 0 1 0 1
phys
0 -58 98 8 0 0 1 5 0 1 0 1
0 94 98 8 0 0 1 5 0 1 0 1
0 78 114 8 0 0 1 5 0 1 0 1
phys
0 -58 98 8 0 0 1 5 0 1 0 1
0 78 114 8 0 0 1 5 0 1 0 1
0 -58 114 8 0 0 1 5 0 1 0 1
phys
0 94 98 0 0 0 1 5 0 1 0 1
0 78 114 0 0 0 1 5 0 1 0 1
0 78 114 8 0 0 1 5 0 1 0 1
phys
0 94 98 0 0 0 1 5 0 1 0 1
0 78 114 8 0 0 1 5 0 1 0 1
0 94 98 8 0 0 1 5 0 1 0 1
phys
0 78 114 0 0 0 1 5 0 1 0 1
0 -58 114 0 0 0 1 5 0 1 0 1
0 -58 114 8 0 0 1 5 0 1 0 1
phys
0 78 114 0 0 0 1 5 0 1 0 1
0 -58 114 8 0 0 1 5 0 1 0 1
0 78 114 8 0 0 1 5 0 1 0 1
phys
0 94 98 8 0 0 1 5 0 1 0 1
0 -58 98 8 0 0 1 5 0 1 0 1
0 -58 98 0 0 0 1 5 0 1 0 1
phys
0 94 98 8 0 0 1 5 0 1 0 1
0 -58 98 0 0 0 1 5 0 1 0 1
0 94 98 0 0 0 1 5 0 1 0 1
phys
0 -58 98 8 0 0 1 5 0 1 0 1
0 -58 114 8 0 0 1 5 0 1 0 1
0 -58 114 0 0 0 1 5 0 1 0 1
phys
0 -58 98 8 0 0 1 5 0 1 0 1
0 -58 114 0 0 0 1 5 0 1 0 1
0 -58 98 0 0 0 1 5 0 1 0 1
phys
0 62 130 0 0 0 1 6 0 1 0 1
0 -58 130 0 0 0 1 6 0 1 0 1
0 -58 130 16 0 0 1 6 0 1 0 1
phys
0 62 130 0 0 0 1 6 0 1 0 1
0 -58 130 16 0 0 1 6 0 1 0 1
0 62 130 16 0 0 1 6 0 1 0 1
phys
0 78 114 16 0 0 1 6 0 1 0 1
0 -58 114 16 0 0 1 6 0 1 0 1
0 -58 114 0 0 0 1 6 0 1 0 1
phys
0 78 114 16 0 0 1 6 0 1 0 1
0 -58 114 0 0 0 1 6 0 1 0 1
0 78 114 0 0 0 1 6 0 1 0 1
phys
0 -58 114 0 0 0 1 6 0 1 0 1
0 -58 114 16 0 0 1 6 0 1 0 1
0 -58 130 16 0 0 1 6 0 1 0 1
phys
0 -58 114 0 0 0 1 6 0 1 0 1
0 -58 130 16 0 0 1 6 0 1 0 1
0 -58 130 0 0 0 1 6 0 1 0 1
phys
0 78 114 0 0 0 1 6 0 1 0 1
0 -58 114 0 0 0 1 6 0 1 0 1
0 -58 130 0 0 0 1 6 0 1 0 1
phys
0 78 114 0 0 0 1 6 0 1 0 1
0 -58 130 0 0 0 1 6 0 1 0 1
0 62 130 0 0 0 1 6 0 1 0 1
phys
0 -58 114 16 0 0 1 6 0 1 0 1
0 78 114 16 0 0 1 6 0 1 0 1
0 62 130 16 0 0 1 6 0 1 0 1
phys
0 -58 114 16 0 0 1 6 0 1 0 1
0 62 130 16 0 0 1 6 0 1 0 1
0 -58 130 16 0 0 1 6 0 1 0 1
phys
0 78 114 16 0 0 1 6 0 1 0 1
0 78 114 0 0 0 1 6 0 1 0 1
0 62 130 0 0 0 1 6 0 1 0 1
phys
0 78 114 16 0 0 1 6 0 1 0 1
0 62 130 0 0 0 1 6 0 1 0 1
0 62 130 16 0 0 1 6 0 1 0 1
phys
0 -58 130 24 0 0 1 7 0 1 0 1
0 -58 146 24 0 0 1 7 0 1 0 1
0 -58 146 0 0 0 1 7 0 1 0 1
phys
0 -58 130 24 0 0 1 7 0 1 0 1
0 -58 146 0 0 0 1 7 0 1 0 1
0 -58 130 0 0 0 1 7 0 1 0 1
phys
0 -58 130 0 0 0 1 7 0 1 0 1
0 -58 146 0 0 0 1 7 0 1 0 1
0 46 146 0 0 0 1 7 0 1 0 1
phys
0 -58 130 0 0 0 1 7 0 1 0 1
0 46 146 0 0 0 1 7 0 1 0 1
0 62 130 0 0 0 1 7 0 1 0 1
phys
0 62 130 24 0 0 1 7 0 1 0 1
0 46 146 24 0 0 1 7 0 1 0 1
0 -58 146 24 0 0 1 7 0 1 0 1
phys
0 62 130 24 0 0 1 7 0 1 0 1
0 -58 146 24 0 0 1 7 0 1 0 1
0 -58 130 24 0 0 1 7 0 1 0 1
phys
0 62 130 0 0 0 1 7 0 1 0 1
0 46 146 0 0 0 1 7 0 1 0 1
0 46 146 24 0 0 1 7 0 1 0 1
phys
0 62 130 0 0 0 1 7 0 1 0 1
0 46 146 24 0 0 1 7 0 1 0 1
0 62 130 24 0 0 1 7 0 1 0 1
phys
0 46 146 0 0 0 1 7 0 1 0 1
0 -58 146 0 0 0 1 7 0 1 0 1
0 -58 146 24 0 0 1 7 0 1 0 1
phys
0 46 146 0 0 0 1 7 0 1 0 1
0 -58 146 24 0 0 1 7 0 1 0 1
0 46 146 24 0 0 1 7 0 1 0 1
phys
0 62 130 24 0 0 1 7 0 1 0 1
0 -58 130 24 0 0 1 7 0 1 0 1
0 -58 130 0 0 0 1 7 0 1 0 1
phys
0 62 130 24 0 0 1 7 0 1 0 1
0 -58 130 0 0 0 1 7 0 1 0 1
0 62 130 0 0 0 1 7 0 1 0 1
end
