version 1
nodes
0 "root" -1
end
skeleton
time 0
0 0 0 0 0 0 0
end
triangles
phys
0 -63 93 0 0 0 1 1 0 1 0 1
0 -63 93 43 0 0 1 1 0 1 0 1
0 -69 93 43 0 0 1 1 0 1 0 1
phys
0 -63 93 0 0 0 1 1 0 1 0 1
0 -69 93 43 0 0 1 1 0 1 0 1
0 -69 93 0 0 0 1 1 0 1 0 1
phys
0 -69 93 0 0 0 1 1 0 1 0 1
0 -69 93 43 0 0 1 1 0 1 0 1
0 -69 99 43 0 0 1 1 0 1 0 1
phys
0 -69 93 0 0 0 1 1 0 1 0 1
0 -69 99 43 0 0 1 1 0 1 0 1
0 -69 99 0 0 0 1 1 0 1 0 1
phys
0 -63 93 43 0 0 1 1 0 1 0 1
0 -63 93 0 0 0 1 1 0 1 0 1
0 -63 99 0 0 0 1 1 0 1 0 1
phys
0 -63 93 43 0 0 1 1 0 1 0 1
0 -63 99 0 0 0 1 1 0 1 0 1
0 -63 99 43 0 0 1 1 0 1 0 1
phys
0 -63 93 0 0 0 1 1 0 1 0 1
0 -69 93 0 0 0 1 1 0 1 0 1
0 -69 99 0 0 0 1 1 0 1 0 1
phys
0 -63 93 0 0 0 1 1 0 1 0 1
0 -69 99 0 0 0 1 1 0 1 0 1
0 -63 99 0 0 0 1 1 0 1 0 1
phys
0 -69 93 43 0 0 1 1 0 1 0 1
0 -63 93 43 0 0 1 1 0 1 0 1
0 -63 99 43 0 0 1 1 0 1 0 1
phys
0 -69 93 43 0 0 1 1 0 1 0 1
0 -63 99 43 0 0 1 1 0 1 0 1
0 -69 99 43 0 0 1 1 0 1 0 1
phys
0 -63 99 43 0 0 1 1 0 1 0 1
0 -63 99 0 0 0 1 1 0 1 0 1
0 -69 99 0 0 0 1 1 0 1 0 1
phys
0 -63 99 43 0 0 1 1 0 1 0 1
0 -69 99 0 0 0 1 1 0 1 0 1
0 -69 99 43 0 0 1 1 0 1 0 1
phys
0 -67 99 43 0 0 1 2 0 1 0 1
0 -65 99 43 0 0 1 2 0 1 0 1
0 -65 279 43 0 0 1 2 0 1 0 1
phys
0 -67 99 43 0 0 1 2 0 1 0 1
0 -65 279 43 0 0 1 2 0 1 0 1
0 -67 279 43 0 0 1 2 0 1 0 1
phys
0 -67 279 11 0 0 1 2 0 1 0 1
0 -67 279 43 0 0 1 2 0 1 0 1
0 -65 279 43 0 0 1 2 0 1 0 1
phys
0 -67 279 11 0 0 1 2 0 1 0 1
0 -65 279 43 0 0 1 2 0 1 0 1
0 -65 279 11 0 0 1 2 0 1 0 1
phys
0 -65 99 11 0 0 1 2 0 1 0 1
0 -65 99 43 0 0 1 2 0 1 0 1
0 -67 99 43 0 0 1 2 0 1 0 1
phys
0 -65 99 11 0 0 1 2 0 1 0 1
0 -67 99 43 0 0 1 2 0 1 0 1
0 -67 99 11 0 0 1 2 0 1 0 1
phys
0 -67 99 11 0 0 1 2 0 1 0 1
0 -67 99 43 0 0 1 2 0 1 0 1
0 -67 279 43 0 0 1 2 0 1 0 1
phys
0 -67 99 11 0 0 1 2 0 1 0 1
0 -67 279 43 0 0 1 2 0 1 0 1
0 -67 279 11 0 0 1 2 0 1 0 1
phys
0 -65 279 11 0 0 1 2 0 1 0 1
0 -65 279 43 0 0 1 2 0 1 0 1
0 -65 99 43 0 0 1 2 0 1 0 1
phys
0 -65 279 11 0 0 1 2 0 1 0 1
0 -65 99 43 0 0 1 2 0 1 0 1
0 -65 99 11 0 0 1 2 0 1 0 1
phys
0 -65 99 11 0 0 1 2 0 1 0 1
0 -67 99 11 0 0 1 2 0 1 0 1
0 -67 279 11 0 0 1 2 0 1 0 1
phys
0 -65 99 11 0 0 1 2 0 1 0 1
0 -67 279 11 0 0 1 2 0 1 0 1
0 -65 279 11 0 0 1 2 0 1 0 1
phys
0 117 285 11 0 0 1 3 0 1 0 1
0 117 285 0 0 0 1 3 0 1 0 1
0 -63 285 0 0 0 1 3 0 1 0 1
phys
0 117 285 11 0 0 1 3 0 1 0 1
0 -63 285 0 0 0 1 3 0 1 0 1
0 -63 285 11 0 0 1 3 0 1 0 1
phys
0 117 279 0 0 0 1 3 0 1 0 1
0 117 279 11 0 0 1 3 0 1 0 1
0 -63 279 11 0 0 1 3 0 1 0 1
phys
0 117 279 0 0 0 1 3 0 1 0 1
0 -63 279 11 0 0 1 3 0 1 0 1
0 -63 279 0 0 0 1 3 0 1 0 1
phys
0 -63 279 0 0 0 1 3 0 1 0 1
0 -63 279 11 0 0 1 3 0 1 0 1
0 -63 285 11 0 0 1 3 0 1 0 1
phys
0 -63 279 0 0 0 1 3 0 1 0 1
0 -63 285 11 0 0 1 3 0 1 0 1
0 -63 285 0 0 0 1 3 0 1 0 1
phys
0 117 279 11 0 0 1 3 0 1 0 1
0 117 279 0 0 0 1 3 0 1 0 1
0 117 285 0 0 0 1 3 0 1 0 1
phys
0 117 279 11 0 0 1 3 0 1 0 1
0 117 285 0 0 0 1 3 0 1 0 1
0 117 285 11 0 0 1 3 0 1 0 1
phys
0 117 279 0 0 0 1 3 0 1 0 1
0 -63 279 0 0 0 1 3 0 1 0 1
0 -63 285 0 0 0 1 3 0 1 0 1
phys
0 117 279 0 0 0 1 3 0 1 0 1
0 -63 285 0 0 0 1 3 0 1 0 1
0 117 285 0 0 0 1 3 0 1 0 1
phys
0 -63 279 11 0 0 1 3 0 1 0 1
0 117 279 11 0 0 1 3 0 1 0 1
0 117 285 11 0 0 1 3 0 1 0 1
phys
0 -63 279 11 0 0 1 3 0 1 0 1
0 117 285 11 0 0 1 3 0 1 0 1
0 -63 285 11 0 0 1 3 0 1 0 1
phys
0 -63 279 11 0 0 1 4 0 1 0 1
0 -63 279 0 0 0 1 4 0 1 0 1
0 -69 279 0 0 0 1 4 0 1 0 1
phys
0 -63 279 11 0 0 1 4 0 1 0 1
0 -69 279 0 0 0 1 4 0 1 0 1
0 -69 279 11 0 0 1 4 0 1 0 1
phys
0 -63 99 0 0 0 1 4 0 1 0 1
0 -63 99 11 0 0 1 4 0 1 0 1
0 -69 99 11 0 0 1 4 0 1 0 1
phys
0 -63 99 0 0 0 1 4 0 1 0 1
0 -69 99 11 0 0 1 4 0 1 0 1
0 -69 99 0 0 0 1 4 0 1 0 1
phys
0 -69 99 0 0 0 1 4 0 1 0 1
0 -69 99 11 0 0 1 4 0 1 0 1
0 -69 279 11 0 0 1 4 0 1 0 1
phys
0 -69 99 0 0 0 1 4 0 1 0 1
0 -69 279 11 0 0 1 4 0 1 0 1
0 -69 279 0 0 0 1 4 0 1 0 1
phys
0 -63 99 11 0 0 1 4 0 1 0 1
0 -63 99 0 0 0 1 4 0 1 0 1
0 -63 279 0 0 0 1 4 0 1 0 1
phys
0 -63 99 11 0 0 1 4 0 1 0 1
0 -63 279 0 0 0 1 4 0 1 0 1
0 -63 279 11 0 0 1 4 0 1 0 1
phys
0 -63 99 0 0 0 1 4 0 1 0 1
0 -69 99 0 0 0 1 4 0 1 0 1
0 -69 279 0 0 0 1 4 0 1 0 1
phys
0 -63 99 0 0 0 1 4 0 1 0 1
0 -69 279 0 0 0 1 4 0 1 0 1
0 -63 279 0 0 0 1 4 0 1 0 1
phys
0 -69 99 11 0 0 1 4 0 1 0 1
0 -63 99 11 0 0 1 4 0 1 0 1
0 -63 279 11 0 0 1 4 0 1 0 1
phys
0 -69 99 11 0 0 1 4 0 1 0 1
0 -63 279 11 0 0 1 4 0 1 0 1
0 -69 279 11 0 0 1 4 0 1 0 1
phys
0 -24 -286 40 0 0 1 5 0 1 0 1
0 -24 -141 40 0 0 1 5 0 1 0 1
0 -24 -141 45 0 0 1 5 0 1 0 1
phys
0 -24 -286 40 0 0 1 5 0 1 0 1
0 -24 -141 45 0 0 1 5 0 1 0 1
0 -24 -286 45 0 0 1 5 0 1 0 1
phys
0 -56 -141 40 0 0 1 5 0 1 0 1
0 -24 -141 40 0 0 1 5 0 1 0 1
0 -24 -286 40 0 0 1 5 0 1 0 1
phys
0 -56 -141 40 0 0 1 5 0 1 0 1
0 -24 -286 40 0 0 1 5 0 1 0 1
0 -56 -286 40 0 0 1 5 0 1 0 1
phys
0 -56 -286 45 0 0 1 5 0 1 0 1
0 -24 -286 45 0 0 1 5 0 1 0 1
0 -24 -141 45 0 0 1 5 0 1 0 1
phys
0 -56 -286 45 0 0 1 5 0 1 0 1
0 -24 -141 45 0 0 1 5 0 1 0 1
0 -56 -141 45 0 0 1 5 0 1 0 1
phys
0 -24 -141 45 0 0 1 5 0 1 0 1
0 -24 -141 40 0 0 1 5 0 1 0 1
0 -56 -141 40 0 0 1 5 0 1 0 1
phys
0 -24 -141 45 0 0 1 5 0 1 0 1
0 -56 -141 40 0 0 1 5 0 1 0 1
0 -56 -141 45 0 0 1 5 0 1 0 1
phys
0 -24 -286 40 0 0 1 5 0 1 0 1
0 -24 -286 45 0 0 1 5 0 1 0 1
0 -56 -286 45 0 0 1 5 0 1 0 1
phys
0 -24 -286 40 0 0 1 5 0 1 0 1
0 -56 -286 45 0 0 1 5 0 1 0 1
0 -56 -286 40 0 0 1 5 0 1 0 1
phys
0 -56 -286 45 0 0 1 5 0 1 0 1
0 -56 -141 45 0 0 1 5 0 1 0 1
0 -56 -141 40 0 0 1 5 0 1 0 1
phys
0 -56 -286 45 0 0 1 5 0 1 0 1
0 -56 -141 40 0 0 1 5 0 1 0 1
0 -56 -286 40 0 0 1 5 0 1 0 1
phys
0 117 283 43 0 0 1 6 0 1 0 1
0 117 283 11 0 0 1 6 0 1 0 1
0 -63 283 11 0 0 1 6 0 1 0 1
phys
0 117 283 43 0 0 1 6 0 1 0 1
0 -63 283 11 0 0 1 6 0 1 0 1
0 -63 283 43 0 0 1 6 0 1 0 1
phys
0 117 281 11 0 0 1 6 0 1 0 1
0 117 281 43 0 0 1 6 0 1 0 1
0 -63 281 43 0 0 1 6 0 1 0 1
phys
0 117 281 11 0 0 1 6 0 1 0 1
0 -63 281 43 0 0 1 6 0 1 0 1
0 -63 281 11 0 0 1 6 0 1 0 1
phys
0 -63 281 11 0 0 1 6 0 1 0 1
0 -63 281 43 0 0 1 6 0 1 0 1
0 -63 283 43 0 0 1 6 0 1 0 1
phys
0 -63 281 11 0 0 1 6 0 1 0 1
0 -63 283 43 0 0 1 6 0 1 0 1
0 -63 283 11 0 0 1 6 0 1 0 1
phys
0 117 281 43 0 0 1 6 0 1 0 1
0 117 281 11 0 0 1 6 0 1 0 1
0 117 283 11 0 0 1 6 0 1 0 1
phys
0 117 281 43 0 0 1 6 0 1 0 1
0 117 283 11 0 0 1 6 0 1 0 1
0 117 283 43 0 0 1 6 0 1 0 1
phys
0 117 281 11 0 0 1 6 0 1 0 1
0 -63 281 11 0 0 1 6 0 1 0 1
0 -63 283 11 0 0 1 6 0 1 0 1
phys
0 117 281 11 0 0 1 6 0 1 0 1
0 -63 283 11 0 0 1 6 0 1 0 1
0 117 283 11 0 0 1 6 0 1 0 1
phys
0 -63 281 43 0 0 1 6 0 1 0 1
0 117 281 43 0 0 1 6 0 1 0 1
0 117 283 43 0 0 1 6 0 1 0 1
phys
0 -63 281 43 0 0 1 6 0 1 0 1
0 117 283 43 0 0 1 6 0 1 0 1
0 -63 283 43 0 0 1 6 0 1 0 1
phys
0 -63 285 43 0 0 1 7 0 1 0 1
0 -63 285 0 0 0 1 7 0 1 0 1
0 -69 285 0 0 0 1 7 0 1 0 1
phys
0 -63 285 43 0 0 1 7 0 1 0 1
0 -69 285 0 0 0 1 7 0 1 0 1
0 -69 285 43 0 0 1 7 0 1 0 1
phys
0 -63 279 0 0 0 1 7 0 1 0 1
0 -63 279 43 0 0 1 7 0 1 0 1
0 -69 279 43 0 0 1 7 0 1 0 1
phys
0 -63 279 0 0 0 1 7 0 1 0 1
0 -69 279 43 0 0 1 7 0 1 0 1
0 -69 279 0 0 0 1 7 0 1 0 1
phys
0 -69 279 0 0 0 1 7 0 1 0 1
0 -69 279 43 0 0 1 7 0 1 0 1
0 -69 285 43 0 0 1 7 0 1 0 1
phys
0 -69 279 0 0 0 1 7 0 1 0 1
0 -69 285 43 0 0 1 7 0 1 0 1
0 -69 285 0 0 0 1 7 0 1 0 1
phys
0 -63 279 43 0 0 1 7 0 1 0 1
0 -63 279 0 0 0 1 7 0 1 0 1
0 -63 285 0 0 0 1 7 0 1 0 1
phys
0 -63 279 43 0 0 1 7 0 1 0 1
0 -63 285 0 0 0 1 7 0 1 0 1
0 -63 285 43 0 0 1 7 0 1 0 1
phys
0 -63 279 0 0 0 1 7 0 1 0 1
0 -69 279 0 0 0 1 7 0 1 0 1
0 -69 285 0 0 0 1 7 0 1 0 1
phys
0 -63 279 0 0 0 1 7 0 1 0 1
0 -69 285 0 0 0 1 7 0 1 0 1
0 -63 285 0 0 0 1 7 0 1 0 1
phys
0 -69 279 43 0 0 1 7 0 1 0 1
0 -63 279 43 0 0 1 7 0 1 0 1
0 -63 285 43 0 0 1 7 0 1 0 1
phys
0 -69 279 43 0 0 1 7 0 1 0 1
0 -63 285 43 0 0 1 7 0 1 0 1
0 -69 285 43 0 0 1 7 0 1 0 1
phys
0 -48 95 31 0 0 1 8 0 1 0 1
0 -48 101 39.001 0 0 1 8 0 1 0 1
0 144 101 39.001 0 0 1 8 0 1 0 1
phys
0 -48 95 31 0 0 1 8 0 1 0 1
0 144 101 39.001 0 0 1 8 0 1 0 1
0 144 95 31 0 0 1 8 0 1 0 1
phys
0 144 101 41 0 0 1 8 0 1 0 1
0 144 101 39.001 0 0 1 8 0 1 0 1
0 -48 101 39.001 0 0 1 8 0 1 0 1
phys
0 144 101 41 0 0 1 8 0 1 0 1
0 -48 101 39.001 0 0 1 8 0 1 0 1
0 -48 101 41 0 0 1 8 0 1 0 1
phys
0 -48 93 41 0 0 1 8 0 1 0 1
0 -48 93 31 0 0 1 8 0 1 0 1
0 144 93 31 0 0 1 8 0 1 0 1
phys
0 -48 93 41 0 0 1 8 0 1 0 1
0 144 93 31 0 0 1 8 0 1 0 1
0 144 93 41 0 0 1 8 0 1 0 1
phys
0 -48 101 41 0 0 1 8 0 1 0 1
0 -48 101 39.001 0 0 1 8 0 1 0 1
0 -48 95 31 0 0 1 8 0 1 0 1
phys
0 -48 101 41 0 0 1 8 0 1 0 1
0 -48 95 31 0 0 1 8 0 1 0 1
0 -48 93 31 0 0 1 8 0 1 0 1
phys
0 -48 101 41 0 0 1 8 0 1 0 1
0 -48 93 31 0 0 1 8 0 1 0 1
0 -48 93 41 0 0 1 8 0 1 0 1
phys
0 144 93 41 0 0 1 8 0 1 0 1
0 144 93 31 0 0 1 8 0 1 0 1
0 144 95 31 0 0 1 8 0 1 0 1
phys
0 144 93 41 0 0 1 8 0 1 0 1
0 144 95 31 0 0 1 8 0 1 0 1
0 144 101 39.001 0 0 1 8 0 1 0 1
phys
0 144 93 41 0 0 1 8 0 1 0 1
0 144 101 39.001 0 0 1 8 0 1 0 1
0 144 101 41 0 0 1 8 0 1 0 1
phys
0 144 93 31 0 0 1 8 0 1 0 1
0 -48 93 31 0 0 1 8 0 1 0 1
0 -48 95 31 0 0 1 8 0 1 0 1
phys
0 144 93 31 0 0 1 8 0 1 0 1
0 -48 95 31 0 0 1 8 0 1 0 1
0 144 95 31 0 0 1 8 0 1 0 1
phys
0 -48 93 41 0 0 1 8 0 1 0 1
0 144 93 41 0 0 1 8 0 1 0 1
0 144 101 41 0 0 1 8 0 1 0 1
phys
0 -48 93 41 0 0 1 8 0 1 0 1
0 144 101 41 0 0 1 8 0 1 0 1
0 -48 101 41 0 0 1 8 0 1 0 1
phys
0 -226 285 316 0 0 1 9 0 1 0 1
0 -226 285 201 0 0 1 9 0 1 0 1
0 -236 285 201 0 0 1 9 0 1 0 1
phys
0 -226 285 316 0 0 1 9 0 1 0 1
0 -236 285 201 0 0 1 9 0 1 0 1
0 -236 285 316 0 0 1 9 0 1 0 1
phys
0 -226 275 201 0 0 1 9 0 1 0 1
0 -226 275 316 0 0 1 9 0 1 0 1
0 -236 275 316 0 0 1 9 0 1 0 1
phys
0 -226 275 201 0 0 1 9 0 1 0 1
0 -236 275 316 0 0 1 9 0 1 0 1
0 -236 275 201 0 0 1 9 0 1 0 1
phys
0 -236 275 201 0 0 1 9 0 1 0 1
0 -236 275 316 0 0 1 9 0 1 0 1
0 -236 285 316 0 0 1 9 0 1 0 1
phys
0 -236 275 201 0 0 1 9 0 1 0 1
0 -236 285 316 0 0 1 9 0 1 0 1
0 -236 285 201 0 0 1 9 0 1 0 1
phys
0 -226 275 316 0 0 1 9 0 1 0 1
0 -226 275 201 0 0 1 9 0 1 0 1
0 -226 285 201 0 0 1 9 0 1 0 1
phys
0 -226 275 316 0 0 1 9 0 1 0 1
0 -226 285 201 0 0 1 9 0 1 0 1
0 -226 285 316 0 0 1 9 0 1 0 1
phys
0 -226 275 201 0 0 1 9 0 1 0 1
0 -236 275 201 0 0 1 9 0 1 0 1
0 -236 285 201 0 0 1 9 0 1 0 1
phys
0 -226 275 201 0 0 1 9 0 1 0 1
0 -236 285 201 0 0 1 9 0 1 0 1
0 -226 285 201 0 0 1 9 0 1 0 1
phys
0 -236 275 316 0 0 1 9 0 1 0 1
0 -226 275 316 0 0 1 9 0 1 0 1
0 -226 285 316 0 0 1 9 0 1 0 1
phys
0 -236 275 316 0 0 1 9 0 1 0 1
0 -226 285 316 0 0 1 9 0 1 0 1
0 -236 285 316 0 0 1 9 0 1 0 1
phys
0 -24 -141 40 0 0 1 10 0 1 0 1
0 -24 -141 0 0 0 1 10 0 1 0 1
0 -56 -141 0 0 0 1 10 0 1 0 1
phys
0 -24 -141 40 0 0 1 10 0 1 0 1
0 -56 -141 0 0 0 1 10 0 1 0 1
0 -56 -141 40 0 0 1 10 0 1 0 1
phys
0 -24 -286 0 0 0 1 10 0 1 0 1
0 -24 -286 40 0 0 1 10 0 1 0 1
0 -56 -286 40 0 0 1 10 0 1 0 1
phys
0 -24 -286 0 0 0 1 10 0 1 0 1
0 -56 -286 40 0 0 1 10 0 1 0 1
0 -56 -286 0 0 0 1 10 0 1 0 1
phys
0 -56 -286 0 0 0 1 10 0 1 0 1
0 -56 -286 40 0 0 1 10 0 1 0 1
0 -56 -141 40 0 0 1 10 0 1 0 1
phys
0 -56 -286 0 0 0 1 10 0 1 0 1
0 -56 -141 40 0 0 1 10 0 1 0 1
0 -56 -141 0 0 0 1 10 0 1 0 1
phys
0 -24 -286 40 0 0 1 10 0 1 0 1
0 -24 -286 0 0 0 1 10 0 1 0 1
0 -24 -141 0 0 0 1 10 0 1 0 1
phys
0 -24 -286 40 0 0 1 10 0 1 0 1
0 -24 -141 0 0 0 1 10 0 1 0 1
0 -24 -141 40 0 0 1 10 0 1 0 1
phys
0 -24 -286 0 0 0 1 10 0 1 0 1
0 -56 -286 0 0 0 1 10 0 1 0 1
0 -56 -141 0 0 0 1 10 0 1 0 1
phys
0 -24 -286 0 0 0 1 10 0 1 0 1
0 -56 -141 0 0 0 1 10 0 1 0 1
0 -24 -141 0 0 0 1 10 0 1 0 1
phys
0 -56 -286 40 0 0 1 10 0 1 0 1
0 -24 -286 40 0 0 1 10 0 1 0 1
0 -24 -141 40 0 0 1 10 0 1 0 1
phys
0 -56 -286 40 0 0 1 10 0 1 0 1
0 -24 -141 40 0 0 1 10 0 1 0 1
0 -56 -141 40 0 0 1 10 0 1 0 1
phys
0 123 279 0 0 0 1 11 0 1 0 1
0 123 285 0 0 0 1 11 0 1 0 1
0 123 285 43 0 0 1 11 0 1 0 1
phys
0 123 279 0 0 0 1 11 0 1 0 1
0 123 285 43 0 0 1 11 0 1 0 1
0 123 279 43 0 0 1 11 0 1 0 1
phys
0 117 285 0 0 0 1 11 0 1 0 1
0 123 285 0 0 0 1 11 0 1 0 1
0 123 279 0 0 0 1 11 0 1 0 1
phys
0 117 285 0 0 0 1 11 0 1 0 1
0 123 279 0 0 0 1 11 0 1 0 1
0 117 279 0 0 0 1 11 0 1 0 1
phys
0 117 279 43 0 0 1 11 0 1 0 1
0 123 279 43 0 0 1 11 0 1 0 1
0 123 285 43 0 0 1 11 0 1 0 1
phys
0 117 279 43 0 0 1 11 0 1 0 1
0 123 285 43 0 0 1 11 0 1 0 1
0 117 285 43 0 0 1 11 0 1 0 1
phys
0 123 285 43 0 0 1 11 0 1 0 1
0 123 285 0 0 0 1 11 0 1 0 1
0 117 285 0 0 0 1 11 0 1 0 1
phys
0 123 285 43 0 0 1 11 0 1 0 1
0 117 285 0 0 0 1 11 0 1 0 1
0 117 285 43 0 0 1 11 0 1 0 1
phys
0 123 279 0 0 0 1 11 0 1 0 1
0 123 279 43 0 0 1 11 0 1 0 1
0 117 279 43 0 0 1 11 0 1 0 1
phys
0 123 279 0 0 0 1 11 0 1 0 1
0 117 279 43 0 0 1 11 0 1 0 1
0 117 279 0 0 0 1 11 0 1 0 1
phys
0 117 279 43 0 0 1 11 0 1 0 1
0 117 285 43 0 0 1 11 0 1 0 1
0 117 285 0 0 0 1 11 0 1 0 1
phys
0 117 279 43 0 0 1 11 0 1 0 1
0 117 285 0 0 0 1 11 0 1 0 1
0 117 279 0 0 0 1 11 0 1 0 1
phys
0 -59 83 201 0 0 1 12 0 1 0 1
0 -59 83 176 0 0 1 12 0 1 0 1
0 -69 83 176 0 0 1 12 0 1 0 1
phys
0 -59 83 201 0 0 1 12 0 1 0 1
0 -69 83 176 0 0 1 12 0 1 0 1
0 -69 83 201 0 0 1 12 0 1 0 1
phys
0 -59 -259 176 0 0 1 12 0 1 0 1
0 -59 -259 201 0 0 1 12 0 1 0 1
0 -69 -259 201 0 0 1 12 0 1 0 1
phys
0 -59 -259 176 0 0 1 12 0 1 0 1
0 -69 -259 201 0 0 1 12 0 1 0 1
0 -69 -259 176 0 0 1 12 0 1 0 1
phys
0 -69 -259 176 0 0 1 12 0 1 0 1
0 -69 -259 201 0 0 1 12 0 1 0 1
0 -69 83 201 0 0 1 12 0 1 0 1
phys
0 -69 -259 176 0 0 1 12 0 1 0 1
0 -69 83 201 0 0 1 12 0 1 0 1
0 -69 83 176 0 0 1 12 0 1 0 1
phys
0 -59 -259 201 0 0 1 12 0 1 0 1
0 -59 -259 176 0 0 1 12 0 1 0 1
0 -59 83 176 0 0 1 12 0 1 0 1
phys
0 -59 -259 201 0 0 1 12 0 1 0 1
0 -59 83 176 0 0 1 12 0 1 0 1
0 -59 83 201 0 0 1 12 0 1 0 1
phys
0 -59 -259 176 0 0 1 12 0 1 0 1
0 -69 -259 176 0 0 1 12 0 1 0 1
0 -69 83 176 0 0 1 12 0 1 0 1
phys
0 -59 -259 176 0 0 1 12 0 1 0 1
0 -69 83 176 0 0 1 12 0 1 0 1
0 -59 83 176 0 0 1 12 0 1 0 1
phys
0 -69 -259 201 0 0 1 12 0 1 0 1
0 -59 -259 201 0 0 1 12 0 1 0 1
0 -59 83 201 0 0 1 12 0 1 0 1
phys
0 -69 -259 201 0 0 1 12 0 1 0 1
0 -59 83 201 0 0 1 12 0 1 0 1
0 -69 83 201 0 0 1 12 0 1 0 1
phys
0 187 93 107.996 0 0 1 13 0 1 0 1
0 187 93 0 0 0 1 13 0 1 0 1
0 183 93 0 0 0 1 13 0 1 0 1
phys
0 187 93 107.996 0 0 1 13 0 1 0 1
0 183 93 0 0 0 1 13 0 1 0 1
0 183 93 111.996 0 0 1 13 0 1 0 1
phys
0 187 81 0 0 0 1 13 0 1 0 1
0 187 81 107.996 0 0 1 13 0 1 0 1
0 183 81 111.996 0 0 1 13 0 1 0 1
phys
0 187 81 0 0 0 1 13 0 1 0 1
0 183 81 111.996 0 0 1 13 0 1 0 1
0 183 81 0 0 0 1 13 0 1 0 1
phys
0 183 81 0 0 0 1 13 0 1 0 1
0 183 81 111.996 0 0 1 13 0 1 0 1
0 183 93 111.996 0 0 1 13 0 1 0 1
phys
0 183 81 0 0 0 1 13 0 1 0 1
0 183 93 111.996 0 0 1 13 0 1 0 1
0 183 93 0 0 0 1 13 0 1 0 1
phys
0 187 81 107.996 0 0 1 13 0 1 0 1
0 187 81 0 0 0 1 13 0 1 0 1
0 187 93 0 0 0 1 13 0 1 0 1
phys
0 187 81 107.996 0 0 1 13 0 1 0 1
0 187 93 0 0 0 1 13 0 1 0 1
0 187 93 107.996 0 0 1 13 0 1 0 1
phys
0 187 81 0 0 0 1 13 0 1 0 1
0 183 81 0 0 0 1 13 0 1 0 1
0 183 93 0 0 0 1 13 0 1 0 1
phys
0 187 81 0 0 0 1 13 0 1 0 1
0 183 93 0 0 0 1 13 0 1 0 1
0 187 93 0 0 0 1 13 0 1 0 1
phys
0 183 81 111.996 0 0 1 13 0 1 0 1
0 187 81 107.996 0 0 1 13 0 1 0 1
0 187 93 107.996 0 0 1 13 0 1 0 1
phys
0 183 81 111.996 0 0 1 13 0 1 0 1
0 187 93 107.996 0 0 1 13 0 1 0 1
0 183 93 111.996 0 0 1 13 0 1 0 1
phys
0 -56 -141 40 0 0 1 14 0 1 0 1
0 232 -141 40 0 0 1 14 0 1 0 1
0 232 -109 40 0 0 1 14 0 1 0 1
phys
0 -56 -141 40 0 0 1 14 0 1 0 1
0 232 -109 40 0 0 1 14 0 1 0 1
0 -56 -109 40 0 0 1 14 0 1 0 1
phys
0 -56 -109 0 0 0 1 14 0 1 0 1
0 -56 -109 40 0 0 1 14 0 1 0 1
0 232 -109 40 0 0 1 14 0 1 0 1
phys
0 -56 -109 0 0 0 1 14 0 1 0 1
0 232 -109 40 0 0 1 14 0 1 0 1
0 232 -109 0 0 0 1 14 0 1 0 1
phys
0 232 -141 0 0 0 1 14 0 1 0 1
0 232 -141 40 0 0 1 14 0 1 0 1
0 -56 -141 40 0 0 1 14 0 1 0 1
phys
0 232 -141 0 0 0 1 14 0 1 0 1
0 -56 -141 40 0 0 1 14 0 1 0 1
0 -56 -141 0 0 0 1 14 0 1 0 1
phys
0 -56 -141 0 0 0 1 14 0 1 0 1
0 -56 -141 40 0 0 1 14 0 1 0 1
0 -56 -109 40 0 0 1 14 0 1 0 1
phys
0 -56 -141 0 0 0 1 14 0 1 0 1
0 -56 -109 40 0 0 1 14 0 1 0 1
0 -56 -109 0 0 0 1 14 0 1 0 1
phys
0 232 -109 0 0 0 1 14 0 1 0 1
0 232 -109 40 0 0 1 14 0 1 0 1
0 232 -141 40 0 0 1 14 0 1 0 1
phys
0 232 -109 0 0 0 1 14 0 1 0 1
0 232 -141 40 0 0 1 14 0 1 0 1
0 232 -141 0 0 0 1 14 0 1 0 1
phys
0 232 -141 0 0 0 1 14 0 1 0 1
0 -56 -141 0 0 0 1 14 0 1 0 1
0 -56 -109 0 0 0 1 14 0 1 0 1
phys
0 232 -141 0 0 0 1 14 0 1 0 1
0 -56 -109 0 0 0 1 14 0 1 0 1
0 232 -109 0 0 0 1 14 0 1 0 1
phys
0 -59 -286 74 0 0 1 15 0 1 0 1
0 -56 -286 74 0 0 1 15 0 1 0 1
0 -56 84 74 0 0 1 15 0 1 0 1
phys
0 -59 -286 74 0 0 1 15 0 1 0 1
0 -56 84 74 0 0 1 15 0 1 0 1
0 -59 84 74 0 0 1 15 0 1 0 1
phys
0 -59 84 0 0 0 1 15 0 1 0 1
0 -59 84 74 0 0 1 15 0 1 0 1
0 -56 84 74 0 0 1 15 0 1 0 1
phys
0 -59 84 0 0 0 1 15 0 1 0 1
0 -56 84 74 0 0 1 15 0 1 0 1
0 -56 84 0 0 0 1 15 0 1 0 1
phys
0 -56 -286 0 0 0 1 15 0 1 0 1
0 -56 -286 74 0 0 1 15 0 1 0 1
0 -59 -286 74 0 0 1 15 0 1 0 1
phys
0 -56 -286 0 0 0 1 15 0 1 0 1
0 -59 -286 74 0 0 1 15 0 1 0 1
0 -59 -286 0 0 0 1 15 0 1 0 1
phys
0 -59 -286 0 0 0 1 15 0 1 0 1
0 -59 -286 74 0 0 1 15 0 1 0 1
0 -59 84 74 0 0 1 15 0 1 0 1
phys
0 -59 -286 0 0 0 1 15 0 1 0 1
0 -59 84 74 0 0 1 15 0 1 0 1
0 -59 84 0 0 0 1 15 0 1 0 1
phys
0 -56 84 0 0 0 1 15 0 1 0 1
0 -56 84 74 0 0 1 15 0 1 0 1
0 -56 -286 74 0 0 1 15 0 1 0 1
phys
0 -56 84 0 0 0 1 15 0 1 0 1
0 -56 -286 74 0 0 1 15 0 1 0 1
0 -56 -286 0 0 0 1 15 0 1 0 1
phys
0 -56 -286 0 0 0 1 15 0 1 0 1
0 -59 -286 0 0 0 1 15 0 1 0 1
0 -59 84 0 0 0 1 15 0 1 0 1
phys
0 -56 -286 0 0 0 1 15 0 1 0 1
0 -59 84 0 0 0 1 15 0 1 0 1
0 -56 84 0 0 0 1 15 0 1 0 1
phys
0 237 -104 45 0 0 1 16 0 1 0 1
0 237 -104 43.002 0 0 1 16 0 1 0 1
0 236.999334 -104 43.001 0 0 1 16 0 1 0 1
phys
0 237 -104 45 0 0 1 16 0 1 0 1
0 236.999334 -104 43.001 0 0 1 16 0 1 0 1
0 -56 -104 43.001 0 0 1 16 0 1 0 1
phys
0 237 -104 45 0 0 1 16 0 1 0 1
0 -56 -104 43.001 0 0 1 16 0 1 0 1
0 -56 -104 45 0 0 1 16 0 1 0 1
phys
0 237 -141 43.002 0 0 1 16 0 1 0 1
0 237 -141 45 0 0 1 16 0 1 0 1
0 -56 -141 45 0 0 1 16 0 1 0 1
phys
0 237 -141 43.002 0 0 1 16 0 1 0 1
0 -56 -141 45 0 0 1 16 0 1 0 1
0 -56 -141 40 0 0 1 16 0 1 0 1
phys
0 237 -141 43.002 0 0 1 16 0 1 0 1
0 -56 -141 40 0 0 1 16 0 1 0 1
0 235 -141 40 0 0 1 16 0 1 0 1
phys
0 -56 -141 40 0 0 1 16 0 1 0 1
0 -56 -141 45 0 0 1 16 0 1 0 1
0 -56 -104 45 0 0 1 16 0 1 0 1
phys
0 -56 -141 40 0 0 1 16 0 1 0 1
0 -56 -104 45 0 0 1 16 0 1 0 1
0 -56 -104 43.001 0 0 1 16 0 1 0 1
phys
0 -56 -141 40 0 0 1 16 0 1 0 1
0 -56 -104 43.001 0 0 1 16 0 1 0 1
0 -56 -107 40 0 0 1 16 0 1 0 1
phys
0 237 -141 45 0 0 1 16 0 1 0 1
0 237 -141 43.002 0 0 1 16 0 1 0 1
0 237 -104 43.002 0 0 1 16 0 1 0 1
phys
0 237 -141 45 0 0 1 16 0 1 0 1
0 237 -104 43.002 0 0 1 16 0 1 0 1
0 237 -104 45 0 0 1 16 0 1 0 1
phys
0 235 -141 40 0 0 1 16 0 1 0 1
0 -56 -141 40 0 0 1 16 0 1 0 1
0 -56 -107 40 0 0 1 16 0 1 0 1
phys
0 235 -141 40 0 0 1 16 0 1 0 1
0 -56 -107 40 0 0 1 16 0 1 0 1
0 235 -107 40 0 0 1 16 0 1 0 1
phys
0 -56 -141 45 0 0 1 16 0 1 0 1
0 237 -141 45 0 0 1 16 0 1 0 1
0 237 -104 45 0 0 1 16 0 1 0 1
phys
0 -56 -141 45 0 0 1 16 0 1 0 1
0 237 -104 45 0 0 1 16 0 1 0 1
0 -56 -104 45 0 0 1 16 0 1 0 1
phys
0 237 -141 43.002 0 0 1 16 0 1 0 1
0 235 -141 40 0 0 1 16 0 1 0 1
0 235 -107 40 0 0 1 16 0 1 0 1
phys
0 237 -141 43.002 0 0 1 16 0 1 0 1
0 235 -107 40 0 0 1 16 0 1 0 1
0 236.999334 -104 43.001 0 0 1 16 0 1 0 1
phys
0 237 -141 43.002 0 0 1 16 0 1 0 1
0 236.999334 -104 43.001 0 0 1 16 0 1 0 1
0 237 -104 43.002 0 0 1 16 0 1 0 1
phys
0 -56 -107 40 0 0 1 16 0 1 0 1
0 -56 -104 43.001 0 0 1 16 0 1 0 1
0 236.999334 -104 43.001 0 0 1 16 0 1 0 1
phys
0 -56 -107 40 0 0 1 16 0 1 0 1
0 236.999334 -104 43.001 0 0 1 16 0 1 0 1
0 235 -107 40 0 0 1 16 0 1 0 1
end
