version 1
nodes
0 "root" -1
end
skeleton
time 0
0 0 0 0 0 0 0
end
triangles
pepsi2_arch_concrete_stair01
0 -69 93 0 -1 0 0 -33.984375 -1.541016 1 0 1
0 -69 93 43 -1 0 0 -33.984375 -1.205078 1 0 1
0 -69 99 43 -1 0 0 -33.9375 -1.205078 1 0 1
pepsi2_arch_concrete_stair01
0 -69 93 0 -1 0 0 -33.984375 -1.541016 1 0 1
0 -69 99 43 -1 0 0 -33.9375 -1.205078 1 0 1
0 -69 99 0 -1 0 0 -33.9375 -1.541016 1 0 1
pepsi2_arch_concrete_stair01
0 -63 93 43 1 0 0 -33.984375 -1.205078 1 0 1
0 -63 93 0 1 0 0 -33.984375 -1.541016 1 0 1
0 -63 99 0 1 0 0 -33.9375 -1.541016 1 0 1
pepsi2_arch_concrete_stair01
0 -63 93 43 1 0 0 -33.984375 -1.205078 1 0 1
0 -63 99 0 1 0 0 -33.9375 -1.541016 1 0 1
0 -63 99 43 1 0 0 -33.9375 -1.205078 1 0 1
pepsi2_arch_concrete_stair01
0 -69 93 43 0 0 1 33.609375 -96.478516 1 0 1
0 -63 93 43 0 0 1 33.609375 -96.431641 1 0 1
0 -63 99 43 0 0 1 33.5625 -96.431641 1 0 1
pepsi2_arch_concrete_stair01
0 -69 93 43 0 0 1 33.609375 -96.478516 1 0 1
0 -63 99 43 0 0 1 33.5625 -96.431641 1 0 1
0 -69 99 43 0 0 1 33.5625 -96.478516 1 0 1
pepsi2_arch_concrete_stair01
0 -63 99 43 0 1 0 -97.890625 -1.205078 1 0 1
0 -63 99 0 0 1 0 -97.890625 -1.541016 1 0 1
0 -69 99 0 0 1 0 -97.9375 -1.541016 1 0 1
pepsi2_arch_concrete_stair01
0 -63 99 43 0 1 0 -97.890625 -1.205078 1 0 1
0 -69 99 0 0 1 0 -97.9375 -1.541016 1 0 1
0 -69 99 43 0 1 0 -97.9375 -1.205078 1 0 1
metal_metalfireescape002a
0 -67 99 43 0 0 1 48.098772 -279.05692 1 0 1
0 -65 99 43 0 0 1 48.098772 -279.012277 1 0 1
0 -65 279 43 0 0 1 46.089844 -279.012277 1 0 1
metal_metalfireescape002a
0 -67 99 43 0 0 1 48.098772 -279.05692 1 0 1
0 -65 279 43 0 0 1 46.089844 -279.012277 1 0 1
0 -67 279 43 0 0 1 46.089844 -279.05692 1 0 1
metal_metalfireescape002a
0 -67 99 11 -1 0 0 67.9375 -10 1 0 1
0 -67 99 43 -1 0 0 67.9375 -9 1 0 1
0 -67 279 43 -1 0 0 65.125 -9 1 0 1
metal_metalfireescape002a
0 -67 99 11 -1 0 0 67.9375 -10 1 0 1
0 -67 279 43 -1 0 0 65.125 -9 1 0 1
0 -67 279 11 -1 0 0 65.125 -10 1 0 1
metal_metalfireescape002a
0 -65 279 11 1 0 0 -65.125 -10 1 0 1
0 -65 279 43 1 0 0 -65.125 -9 1 0 1
0 -65 99 43 1 0 0 -67.9375 -9 1 0 1
metal_metalfireescape002a
0 -65 279 11 1 0 0 -65.125 -10 1 0 1
0 -65 99 43 1 0 0 -67.9375 -9 1 0 1
0 -65 99 11 1 0 0 -67.9375 -10 1 0 1
pepsi2_arch_concrete_stair01
0 117 285 11 0 1 0 -96.53125 -1.455078 1 0 1
0 117 285 0 0 1 0 -96.53125 -1.541016 1 0 1
0 -63 285 0 0 1 0 -97.9375 -1.541016 1 0 1
pepsi2_arch_concrete_stair01
0 117 285 11 0 1 0 -96.53125 -1.455078 1 0 1
0 -63 285 0 0 1 0 -97.9375 -1.541016 1 0 1
0 -63 285 11 0 1 0 -97.9375 -1.455078 1 0 1
pepsi2_arch_concrete_stair01
0 117 279 0 0 -1 0 -96.53125 -1.541016 1 0 1
0 117 279 11 0 -1 0 -96.53125 -1.455078 1 0 1
0 -63 279 11 0 -1 0 -97.9375 -1.455078 1 0 1
pepsi2_arch_concrete_stair01
0 117 279 0 0 -1 0 -96.53125 -1.541016 1 0 1
0 -63 279 11 0 -1 0 -97.9375 -1.455078 1 0 1
0 -63 279 0 0 -1 0 -97.9375 -1.541016 1 0 1
pepsi2_arch_concrete_stair01
0 -63 279 11 0 0 1 -97.9375 33.591797 1 0 1
0 117 279 11 0 0 1 -96.53125 33.591797 1 0 1
0 117 285 11 0 0 1 -96.53125 33.544922 1 0 1
pepsi2_arch_concrete_stair01
0 -63 279 11 0 0 1 -97.9375 33.591797 1 0 1
0 117 285 11 0 0 1 -96.53125 33.544922 1 0 1
0 -63 285 11 0 0 1 -97.9375 33.544922 1 0 1
pepsi2_arch_concrete_stair01
0 -69 99 0 -1 0 0 -33.9375 -1.541016 1 0 1
0 -69 99 11 -1 0 0 -33.9375 -1.455078 1 0 1
0 -69 279 11 -1 0 0 -32.53125 -1.455078 1 0 1
pepsi2_arch_concrete_stair01
0 -69 99 0 -1 0 0 -33.9375 -1.541016 1 0 1
0 -69 279 11 -1 0 0 -32.53125 -1.455078 1 0 1
0 -69 279 0 -1 0 0 -32.53125 -1.541016 1 0 1
pepsi2_arch_concrete_stair01
0 -63 99 11 1 0 0 -33.9375 -1.455078 1 0 1
0 -63 99 0 1 0 0 -33.9375 -1.541016 1 0 1
0 -63 279 0 1 0 0 -32.53125 -1.541016 1 0 1
pepsi2_arch_concrete_stair01
0 -63 99 11 1 0 0 -33.9375 -1.455078 1 0 1
0 -63 279 0 1 0 0 -32.53125 -1.541016 1 0 1
0 -63 279 11 1 0 0 -32.53125 -1.455078 1 0 1
pepsi2_arch_concrete_stair01
0 -69 99 11 0 0 1 -33.9375 -96.455078 1 0 1
0 -63 99 11 0 0 1 -33.9375 -96.408203 1 0 1
0 -63 279 11 0 0 1 -32.53125 -96.408203 1 0 1
pepsi2_arch_concrete_stair01
0 -69 99 11 0 0 1 -33.9375 -96.455078 1 0 1
0 -63 279 11 0 0 1 -32.53125 -96.408203 1 0 1
0 -69 279 11 0 0 1 -32.53125 -96.455078 1 0 1
bridge_se1_metal_flat_steel_01
0 -24 -286 40 1 0 0 1.943359 37.892578 1 0 1
0 -24 -141 40 1 0 0 1.943359 36.759766 1 0 1
0 -24 -141 45 1 0 0 1.904297 36.759766 1 0 1
bridge_se1_metal_flat_steel_01
0 -24 -286 40 1 0 0 1.943359 37.892578 1 0 1
0 -24 -141 45 1 0 0 1.904297 36.759766 1 0 1
0 -24 -286 45 1 0 0 1.904297 37.892578 1 0 1
bridge_se1_metal_flat_steel_01
0 -56 -286 45 0 0 1 -97.345703 37.892578 1 0 1
0 -24 -286 45 0 0 1 -97.095703 37.892578 1 0 1
0 -24 -141 45 0 0 1 -97.095703 36.759766 1 0 1
bridge_se1_metal_flat_steel_01
0 -56 -286 45 0 0 1 -97.345703 37.892578 1 0 1
0 -24 -141 45 0 0 1 -97.095703 36.759766 1 0 1
0 -56 -141 45 0 0 1 -97.345703 36.759766 1 0 1
metal_metalfireescape002a
0 117 283 43 0 1 0 193.125 -9 1 0 1
0 117 283 11 0 1 0 193.125 -10 1 0 1
0 -63 283 11 0 1 0 195.9375 -10 1 0 1
metal_metalfireescape002a
0 117 283 43 0 1 0 193.125 -9 1 0 1
0 -63 283 11 0 1 0 195.9375 -10 1 0 1
0 -63 283 43 0 1 0 195.9375 -9 1 0 1
metal_metalfireescape002a
0 117 281 11 0 -1 0 -193.125 -10 1 0 1
0 117 281 43 0 -1 0 -193.125 -9 1 0 1
0 -63 281 43 0 -1 0 -195.9375 -9 1 0 1
metal_metalfireescape002a
0 117 281 11 0 -1 0 -193.125 -10 1 0 1
0 -63 281 43 0 -1 0 -195.9375 -9 1 0 1
0 -63 281 11 0 -1 0 -195.9375 -10 1 0 1
metal_metalfireescape002a
0 -63 281 43 0 0 1 139.101004 92.986607 1 0 1
0 117 281 43 0 0 1 137.092076 92.986607 1 0 1
0 117 283 43 0 0 1 137.092076 92.941964 1 0 1
metal_metalfireescape002a
0 -63 281 43 0 0 1 139.101004 92.986607 1 0 1
0 117 283 43 0 0 1 137.092076 92.941964 1 0 1
0 -63 283 43 0 0 1 139.101004 92.941964 1 0 1
pepsi2_arch_concrete_stair01
0 -63 285 43 0 1 0 -97.4375 -1.205078 1 0 1
0 -63 285 0 0 1 0 -97.4375 -1.541016 1 0 1
0 -69 285 0 0 1 0 -97.484375 -1.541016 1 0 1
pepsi2_arch_concrete_stair01
0 -63 285 43 0 1 0 -97.4375 -1.205078 1 0 1
0 -69 285 0 0 1 0 -97.484375 -1.541016 1 0 1
0 -69 285 43 0 1 0 -97.484375 -1.205078 1 0 1
pepsi2_arch_concrete_stair01
0 -63 279 0 0 -1 0 97.421875 -1.541016 1 0 1
0 -63 279 43 0 -1 0 97.421875 -1.205078 1 0 1
0 -69 279 43 0 -1 0 97.46875 -1.205078 1 0 1
pepsi2_arch_concrete_stair01
0 -63 279 0 0 -1 0 97.421875 -1.541016 1 0 1
0 -69 279 43 0 -1 0 97.46875 -1.205078 1 0 1
0 -69 279 0 0 -1 0 97.46875 -1.541016 1 0 1
pepsi2_arch_concrete_stair01
0 -69 279 0 -1 0 0 -32.53125 -1.541016 1 0 1
0 -69 279 43 -1 0 0 -32.53125 -1.205078 1 0 1
0 -69 285 43 -1 0 0 -32.484375 -1.205078 1 0 1
pepsi2_arch_concrete_stair01
0 -69 279 0 -1 0 0 -32.53125 -1.541016 1 0 1
0 -69 285 43 -1 0 0 -32.484375 -1.205078 1 0 1
0 -69 285 0 -1 0 0 -32.484375 -1.541016 1 0 1
pepsi2_arch_concrete_stair01
0 -63 279 43 1 0 0 -32.53125 -1.205078 1 0 1
0 -63 279 0 1 0 0 -32.53125 -1.541016 1 0 1
0 -63 285 0 1 0 0 -32.484375 -1.541016 1 0 1
pepsi2_arch_concrete_stair01
0 -63 279 43 1 0 0 -32.53125 -1.205078 1 0 1
0 -63 285 0 1 0 0 -32.484375 -1.541016 1 0 1
0 -63 285 43 1 0 0 -32.484375 -1.205078 1 0 1
pepsi2_arch_concrete_stair01
0 -69 279 43 0 0 1 32.15625 -96.478516 1 0 1
0 -63 279 43 0 0 1 32.15625 -96.431641 1 0 1
0 -63 285 43 0 0 1 32.109375 -96.431641 1 0 1
pepsi2_arch_concrete_stair01
0 -69 279 43 0 0 1 32.15625 -96.478516 1 0 1
0 -63 285 43 0 0 1 32.109375 -96.431641 1 0 1
0 -69 285 43 0 0 1 32.109375 -96.478516 1 0 1
buildings_trim19
0 -48 95 31 0 0.800036 -0.599952 97.890625 -44.438281 1 0 1
0 -48 101 39.001 0 0.800036 -0.599952 97.890625 -44.282019 1 0 1
0 144 101 39.001 0 0.800036 -0.599952 96.390625 -44.282019 1 0 1
buildings_trim19
0 -48 95 31 0 0.800036 -0.599952 97.890625 -44.438281 1 0 1
0 144 101 39.001 0 0.800036 -0.599952 96.390625 -44.282019 1 0 1
0 144 95 31 0 0.800036 -0.599952 96.390625 -44.438281 1 0 1
buildings_trim19
0 144 101 41 0 1 0 96.390625 -3.25 1 0 1
0 144 101 39.001 0 1 0 96.390625 -3.281234 1 0 1
0 -48 101 39.001 0 1 0 97.890625 -3.281234 1 0 1
buildings_trim19
0 144 101 41 0 1 0 96.390625 -3.25 1 0 1
0 -48 101 39.001 0 1 0 97.890625 -3.281234 1 0 1
0 -48 101 41 0 1 0 97.890625 -3.25 1 0 1
buildings_trim19
0 -48 101 41 -1 0 0 1.890625 68.378906 1 0 1
0 -48 101 39.001 -1 0 0 1.906242 68.378906 1 0 1
0 -48 95 31 -1 0 0 1.96875 68.472656 1 0 1
buildings_trim19
0 -48 101 41 -1 0 0 1.890625 68.378906 1 0 1
0 -48 95 31 -1 0 0 1.96875 68.472656 1 0 1
0 -48 93 31 -1 0 0 1.96875 68.503906 1 0 1
buildings_trim19
0 -48 101 41 -1 0 0 1.890625 68.378906 1 0 1
0 -48 93 31 -1 0 0 1.96875 68.503906 1 0 1
0 -48 93 41 -1 0 0 1.890625 68.503906 1 0 1
buildings_trim19
0 144 93 41 1 0 0 -2.609375 68.503906 1 0 1
0 144 93 31 1 0 0 -2.6875 68.503906 1 0 1
0 144 95 31 1 0 0 -2.6875 68.472656 1 0 1
buildings_trim19
0 144 93 41 1 0 0 -2.609375 68.503906 1 0 1
0 144 95 31 1 0 0 -2.6875 68.472656 1 0 1
0 144 101 39.001 1 0 0 -2.624992 68.378906 1 0 1
buildings_trim19
0 144 93 41 1 0 0 -2.609375 68.503906 1 0 1
0 144 101 39.001 1 0 0 -2.624992 68.378906 1 0 1
0 144 101 41 1 0 0 -2.609375 68.378906 1 0 1
buildings_trim19
0 144 93 31 0 0 -1 96.390625 -66.46875 1 0 1
0 -48 93 31 0 0 -1 97.890625 -66.46875 1 0 1
0 -48 95 31 0 0 -1 97.890625 -66.4375 1 0 1
buildings_trim19
0 144 93 31 0 0 -1 96.390625 -66.46875 1 0 1
0 -48 95 31 0 0 -1 97.890625 -66.4375 1 0 1
0 144 95 31 0 0 -1 96.390625 -66.4375 1 0 1
buildings_trim19
0 -48 93 41 0 0 1 97.890625 68.503906 1 0 1
0 144 93 41 0 0 1 96.390625 68.503906 1 0 1
0 144 101 41 0 0 1 96.390625 68.378906 1 0 1
buildings_trim19
0 -48 93 41 0 0 1 97.890625 68.503906 1 0 1
0 144 101 41 0 0 1 96.390625 68.378906 1 0 1
0 -48 101 41 0 0 1 97.890625 68.378906 1 0 1
concrete_concretewall001
0 -226 285 316 0 1 0 -0.050781 -196.578125 1 0 1
0 -226 285 201 0 1 0 -0.949219 -196.578125 1 0 1
0 -236 285 201 0 1 0 -0.949219 -196.734375 1 0 1
concrete_concretewall001
0 -226 285 316 0 1 0 -0.050781 -196.578125 1 0 1
0 -236 285 201 0 1 0 -0.949219 -196.734375 1 0 1
0 -236 285 316 0 1 0 -0.050781 -196.734375 1 0 1
concrete_concretewall001
0 -226 275 201 0 -1 0 -0.949219 198.578125 1 0 1
0 -226 275 316 0 -1 0 -0.050781 198.578125 1 0 1
0 -236 275 316 0 -1 0 -0.050781 198.734375 1 0 1
concrete_concretewall001
0 -226 275 201 0 -1 0 -0.949219 198.578125 1 0 1
0 -236 275 316 0 -1 0 -0.050781 198.734375 1 0 1
0 -236 275 201 0 -1 0 -0.949219 198.734375 1 0 1
concrete_concretewall001
0 -236 275 201 -1 0 0 -0.949219 65.578125 1 0 1
0 -236 275 316 -1 0 0 -0.050781 65.578125 1 0 1
0 -236 285 316 -1 0 0 -0.050781 65.421875 1 0 1
concrete_concretewall001
0 -236 275 201 -1 0 0 -0.949219 65.578125 1 0 1
0 -236 285 316 -1 0 0 -0.050781 65.421875 1 0 1
0 -236 285 201 -1 0 0 -0.949219 65.421875 1 0 1
concrete_concretewall001
0 -226 275 316 1 0 0 -0.050781 65.578125 1 0 1
0 -226 275 201 1 0 0 -0.949219 65.578125 1 0 1
0 -226 285 201 1 0 0 -0.949219 65.421875 1 0 1
concrete_concretewall001
0 -226 275 316 1 0 0 -0.050781 65.578125 1 0 1
0 -226 285 201 1 0 0 -0.949219 65.421875 1 0 1
0 -226 285 316 1 0 0 -0.050781 65.421875 1 0 1
pepsi2_gta4_churchpanels
0 -24 -286 40 1 0 0 122.386719 -6.957031 1 0 1
0 -24 -286 0 1 0 0 122.386719 -7.998698 1 0 1
0 -24 -141 0 1 0 0 118.610677 -7.998698 1 0 1
pepsi2_gta4_churchpanels
0 -24 -286 40 1 0 0 122.386719 -6.957031 1 0 1
0 -24 -141 0 1 0 0 118.610677 -7.998698 1 0 1
0 -24 -141 40 1 0 0 118.610677 -6.957031 1 0 1
pepsi2_arch_concrete_stair01
0 123 279 0 1 0 0 32.5625 -1.541016 1 0 1
0 123 285 0 1 0 0 32.515625 -1.541016 1 0 1
0 123 285 43 1 0 0 32.515625 -1.205078 1 0 1
pepsi2_arch_concrete_stair01
0 123 279 0 1 0 0 32.5625 -1.541016 1 0 1
0 123 285 43 1 0 0 32.515625 -1.205078 1 0 1
0 123 279 43 1 0 0 32.5625 -1.205078 1 0 1
pepsi2_arch_concrete_stair01
0 117 279 43 0 0 1 96.15625 33.568359 1 0 1
0 123 279 43 0 0 1 96.109375 33.568359 1 0 1
0 123 285 43 0 0 1 96.109375 33.521484 1 0 1
pepsi2_arch_concrete_stair01
0 117 279 43 0 0 1 96.15625 33.568359 1 0 1
0 123 285 43 0 0 1 96.109375 33.521484 1 0 1
0 117 285 43 0 0 1 96.15625 33.521484 1 0 1
pepsi2_arch_concrete_stair01
0 123 285 43 0 1 0 -96.484375 -1.205078 1 0 1
0 123 285 0 0 1 0 -96.484375 -1.541016 1 0 1
0 117 285 0 0 1 0 -96.53125 -1.541016 1 0 1
pepsi2_arch_concrete_stair01
0 123 285 43 0 1 0 -96.484375 -1.205078 1 0 1
0 117 285 0 0 1 0 -96.53125 -1.541016 1 0 1
0 117 285 43 0 1 0 -96.53125 -1.205078 1 0 1
pepsi2_arch_concrete_stair01
0 123 279 0 0 -1 0 -96.484375 -1.541016 1 0 1
0 123 279 43 0 -1 0 -96.484375 -1.205078 1 0 1
0 117 279 43 0 -1 0 -96.53125 -1.205078 1 0 1
pepsi2_arch_concrete_stair01
0 123 279 0 0 -1 0 -96.484375 -1.541016 1 0 1
0 117 279 43 0 -1 0 -96.53125 -1.205078 1 0 1
0 117 279 0 0 -1 0 -96.53125 -1.541016 1 0 1
pepsi2_arch_concrete_stair01
0 117 279 43 -1 0 0 -32.578125 -1.205078 1 0 1
0 117 285 43 -1 0 0 -32.53125 -1.205078 1 0 1
0 117 285 0 -1 0 0 -32.53125 -1.541016 1 0 1
pepsi2_arch_concrete_stair01
0 117 279 43 -1 0 0 -32.578125 -1.205078 1 0 1
0 117 285 0 -1 0 0 -32.53125 -1.541016 1 0 1
0 117 279 0 -1 0 0 -32.578125 -1.541016 1 0 1
brick_brick_ext_06_cheap
0 -69 -259 176 -1 0 0 36.972656 0.25 1 0 1
0 -69 -259 201 -1 0 0 36.972656 0.445312 1 0 1
0 -69 83 201 -1 0 0 34.300781 0.445312 1 0 1
brick_brick_ext_06_cheap
0 -69 -259 176 -1 0 0 36.972656 0.25 1 0 1
0 -69 83 201 -1 0 0 34.300781 0.445312 1 0 1
0 -69 83 176 -1 0 0 34.300781 0.25 1 0 1
brick_brick_ext_06_cheap
0 -59 -259 201 1 0 0 -36.605469 0.445312 1 0 1
0 -59 -259 176 1 0 0 -36.605469 0.25 1 0 1
0 -59 83 176 1 0 0 -33.933594 0.25 1 0 1
brick_brick_ext_06_cheap
0 -59 -259 201 1 0 0 -36.605469 0.445312 1 0 1
0 -59 83 176 1 0 0 -33.933594 0.25 1 0 1
0 -59 83 201 1 0 0 -33.933594 0.445312 1 0 1
goldeneye_caverns_cavernsconcretefloor02
0 -69 -259 201 0 0 1 36.875 -97.007812 1 0 1
0 -59 -259 201 0 0 1 36.875 -96.929688 1 0 1
0 -59 83 201 0 0 1 34.203125 -96.929688 1 0 1
goldeneye_caverns_cavernsconcretefloor02
0 -69 -259 201 0 0 1 36.875 -97.007812 1 0 1
0 -59 83 201 0 0 1 34.203125 -96.929688 1 0 1
0 -69 83 201 0 0 1 34.203125 -97.007812 1 0 1
wood_wooddoor045b
0 187 93 107.996 0 1 0 -191.9375 -0.156281 1 0 1
0 187 93 0 0 1 0 -191.9375 -1 1 0 1
0 183 93 0 0 1 0 -192 -1 1 0 1
wood_wooddoor045b
0 187 93 107.996 0 1 0 -191.9375 -0.156281 1 0 1
0 183 93 0 0 1 0 -192 -1 1 0 1
0 183 93 111.996 0 1 0 -192 -0.125031 1 0 1
wood_wooddoor045b
0 187 81 0 0 -1 0 -191.9375 -1 1 0 1
0 187 81 107.996 0 -1 0 -191.9375 -0.156281 1 0 1
0 183 81 111.996 0 -1 0 -192 -0.125031 1 0 1
wood_wooddoor045b
0 187 81 0 0 -1 0 -191.9375 -1 1 0 1
0 183 81 111.996 0 -1 0 -192 -0.125031 1 0 1
0 183 81 0 0 -1 0 -192 -1 1 0 1
wood_wooddoor045b
0 187 81 107.996 1 0 0 -67.359375 -0.156281 1 0 1
0 187 81 0 1 0 0 -67.359375 -1 1 0 1
0 187 93 0 1 0 0 -67.171875 -1 1 0 1
wood_wooddoor045b
0 187 81 107.996 1 0 0 -67.359375 -0.156281 1 0 1
0 187 93 0 1 0 0 -67.171875 -1 1 0 1
0 187 93 107.996 1 0 0 -67.171875 -0.156281 1 0 1
wood_infwoodfloor007a
0 187 81 0 0 0 -1 -95.308594 -33.199219 1 0 1
0 183 81 0 0 0 -1 -95.339844 -33.199219 1 0 1
0 183 93 0 0 0 -1 -95.339844 -33.105469 1 0 1
wood_infwoodfloor007a
0 187 81 0 0 0 -1 -95.308594 -33.199219 1 0 1
0 183 93 0 0 0 -1 -95.339844 -33.105469 1 0 1
0 187 93 0 0 0 -1 -95.308594 -33.105469 1 0 1
wood_infwoodfloor007a
0 183 81 111.996 0.707107 0 0.707107 -95.339844 -33.199219 1 0 1
0 187 81 107.996 0.707107 0 0.707107 -95.308594 -33.199219 1 0 1
0 187 93 107.996 0.707107 0 0.707107 -95.308594 -33.105469 1 0 1
wood_infwoodfloor007a
0 183 81 111.996 0.707107 0 0.707107 -95.339844 -33.199219 1 0 1
0 187 93 107.996 0.707107 0 0.707107 -95.308594 -33.105469 1 0 1
0 183 93 111.996 0.707107 0 0.707107 -95.339844 -33.105469 1 0 1
pepsi2_gta4_churchpanels
0 -56 -109 0 0 1 0 -325.940104 -7.998698 1 0 1
0 -56 -109 40 0 1 0 -325.940104 -6.957031 1 0 1
0 232 -109 40 0 1 0 -318.440104 -6.957031 1 0 1
pepsi2_gta4_churchpanels
0 -56 -109 0 0 1 0 -325.940104 -7.998698 1 0 1
0 232 -109 40 0 1 0 -318.440104 -6.957031 1 0 1
0 232 -109 0 0 1 0 -318.440104 -7.998698 1 0 1
pepsi2_gta4_churchpanels
0 232 -141 0 0 -1 0 318.748698 -7.998698 1 0 1
0 232 -141 40 0 -1 0 318.748698 -6.957031 1 0 1
0 -56 -141 40 0 -1 0 326.248698 -6.957031 1 0 1
pepsi2_gta4_churchpanels
0 232 -141 0 0 -1 0 318.748698 -7.998698 1 0 1
0 -56 -141 40 0 -1 0 326.248698 -6.957031 1 0 1
0 -56 -141 0 0 -1 0 326.248698 -7.998698 1 0 1
pepsi2_gta4_churchpanels
0 232 -109 0 1 0 0 117.558594 -7.998698 1 0 1
0 232 -109 40 1 0 0 117.558594 -6.957031 1 0 1
0 232 -141 40 1 0 0 118.391927 -6.957031 1 0 1
pepsi2_gta4_churchpanels
0 232 -109 0 1 0 0 117.558594 -7.998698 1 0 1
0 232 -141 40 1 0 0 118.391927 -6.957031 1 0 1
0 232 -141 0 1 0 0 118.391927 -7.998698 1 0 1
pepsi2_gta4_churchpanels
0 -59 -286 74 0 0 1 73.308594 196.203125 1 0 1
0 -56 -286 74 0 0 1 73.308594 196.15625 1 0 1
0 -56 84 74 0 0 1 67.527344 196.15625 1 0 1
pepsi2_gta4_churchpanels
0 -59 -286 74 0 0 1 73.308594 196.203125 1 0 1
0 -56 84 74 0 0 1 67.527344 196.15625 1 0 1
0 -59 84 74 0 0 1 67.527344 196.203125 1 0 1
pepsi2_gta4_churchpanels
0 -56 84 0 1 0 0 67.527344 -4 1 0 1
0 -56 84 74 1 0 0 67.527344 -2.84375 1 0 1
0 -56 -286 74 1 0 0 73.308594 -2.84375 1 0 1
pepsi2_gta4_churchpanels
0 -56 84 0 1 0 0 67.527344 -4 1 0 1
0 -56 -286 74 1 0 0 73.308594 -2.84375 1 0 1
0 -56 -286 0 1 0 0 73.308594 -4 1 0 1
bridge_se1_metal_flat_steel_01
0 237 -104 45 0 1 0 -95.056641 -1.529297 1 0 1
0 237 -104 43.002 0 1 0 -95.056641 -1.544906 1 0 1
0 236.999334 -104 43.001 0 1 0 -95.056646 -1.544914 1 0 1
bridge_se1_metal_flat_steel_01
0 237 -104 45 0 1 0 -95.056641 -1.529297 1 0 1
0 236.999334 -104 43.001 0 1 0 -95.056646 -1.544914 1 0 1
0 -56 -104 43.001 0 1 0 -97.345703 -1.544914 1 0 1
bridge_se1_metal_flat_steel_01
0 237 -104 45 0 1 0 -95.056641 -1.529297 1 0 1
0 -56 -104 43.001 0 1 0 -97.345703 -1.544914 1 0 1
0 -56 -104 45 0 1 0 -97.345703 -1.529297 1 0 1
bridge_se1_metal_flat_steel_01
0 237 -141 43.002 0 -1 0 -95.056641 3.775375 1 0 1
0 237 -141 45 0 -1 0 -95.056641 3.759766 1 0 1
0 -56 -141 45 0 -1 0 -97.345703 3.759766 1 0 1
bridge_se1_metal_flat_steel_01
0 237 -141 43.002 0 -1 0 -95.056641 3.775375 1 0 1
0 -56 -141 45 0 -1 0 -97.345703 3.759766 1 0 1
0 -56 -141 40 0 -1 0 -97.345703 3.798828 1 0 1
bridge_se1_metal_flat_steel_01
0 237 -141 43.002 0 -1 0 -95.056641 3.775375 1 0 1
0 -56 -141 40 0 -1 0 -97.345703 3.798828 1 0 1
0 235 -141 40 0 -1 0 -95.072266 3.798828 1 0 1
bridge_se1_metal_flat_steel_01
0 237 -141 45 1 0 0 1.943359 36.759766 1 0 1
0 237 -141 43.002 1 0 0 1.958969 36.759766 1 0 1
0 237 -104 43.002 1 0 0 1.958969 36.470703 1 0 1
bridge_se1_metal_flat_steel_01
0 237 -141 45 1 0 0 1.943359 36.759766 1 0 1
0 237 -104 43.002 1 0 0 1.958969 36.470703 1 0 1
0 237 -104 45 1 0 0 1.943359 36.470703 1 0 1
bridge_se1_metal_flat_steel_01
0 235 -141 40 0 0 -1 94.998047 36.759766 1 0 1
0 -56 -141 40 0 0 -1 97.271484 36.759766 1 0 1
0 -56 -107 40 0 0 -1 97.271484 36.494141 1 0 1
bridge_se1_metal_flat_steel_01
0 235 -141 40 0 0 -1 94.998047 36.759766 1 0 1
0 -56 -107 40 0 0 -1 97.271484 36.494141 1 0 1
0 235 -107 40 0 0 -1 94.998047 36.494141 1 0 1
bridge_se1_metal_flat_steel_01
0 -56 -141 45 0 0 1 -97.345703 36.759766 1 0 1
0 237 -141 45 0 0 1 -95.056641 36.759766 1 0 1
0 237 -104 45 0 0 1 -95.056641 36.470703 1 0 1
bridge_se1_metal_flat_steel_01
0 -56 -141 45 0 0 1 -97.345703 36.759766 1 0 1
0 237 -104 45 0 0 1 -95.056641 36.470703 1 0 1
0 -56 -104 45 0 0 1 -97.345703 36.470703 1 0 1
bridge_se1_metal_flat_steel_01
0 237 -141 43.002 0.832221 0 -0.554444 54.960071 36.759766 1 0 1
0 235 -141 40 0.832221 0 -0.554444 54.988254 36.759766 1 0 1
0 235 -107 40 0.832221 0 -0.554444 54.988254 36.494141 1 0 1
bridge_se1_metal_flat_steel_01
0 237 -141 43.002 0.832221 0 -0.554444 54.960071 36.759766 1 0 1
0 235 -107 40 0.832221 0 -0.554444 54.988254 36.494141 1 0 1
0 236.999334 -104 43.001 0.832221 0 -0.554444 54.960081 36.470703 1 0 1
bridge_se1_metal_flat_steel_01
0 237 -141 43.002 0.832221 0 -0.554444 54.960071 36.759766 1 0 1
0 236.999334 -104 43.001 0.832221 0 -0.554444 54.960081 36.470703 1 0 1
0 237 -104 43.002 0.832221 0 -0.554444 54.960071 36.470703 1 0 1
bridge_se1_metal_flat_steel_01
0 -56 -107 40 0 0.707225 -0.706989 -97.345703 -26.578126 1 0 1
0 -56 -104 43.001 0 0.707225 -0.706989 -97.345703 -26.544975 1 0 1
0 236.999334 -104 43.001 0 0.707225 -0.706989 -95.056646 -26.544975 1 0 1
bridge_se1_metal_flat_steel_01
0 -56 -107 40 0 0.707225 -0.706989 -97.345703 -26.578126 1 0 1
0 236.999334 -104 43.001 0 0.707225 -0.706989 -95.056646 -26.544975 1 0 1
0 235 -107 40 0 0.707225 -0.706989 -95.072266 -26.578126 1 0 1
end
