version 1
nodes
0 "root" -1
end
skeleton
time 0
0 0 0 0 0 0 0
end
triangles
plaster_plasterwall029a
0 -31 112 228 0 1 0 -88.734375 -0.21875 1 0 1
0 -31 112 226 0 1 0 -88.734375 -0.234375 1 0 1
0 -79 112 226 0 1 0 -89.109375 -0.234375 1 0 1
plaster_plasterwall029a
0 -31 112 228 0 1 0 -88.734375 -0.21875 1 0 1
0 -79 112 226 0 1 0 -89.109375 -0.234375 1 0 1
0 -79 112 228 0 1 0 -89.109375 -0.21875 1 0 1
plaster_plasterwall029a
0 -31 108 226 0 -1 0 -88.5 0.234375 1 0 1
0 -31 108 228 0 -1 0 -88.5 0.25 1 0 1
0 -79 108 228 0 -1 0 -88.875 0.25 1 0 1
plaster_plasterwall029a
0 -31 108 226 0 -1 0 -88.5 0.234375 1 0 1
0 -79 108 228 0 -1 0 -88.875 0.25 1 0 1
0 -79 108 226 0 -1 0 -88.875 0.234375 1 0 1
plaster_plasterwall029a
0 -79 108 226 -1 0 0 91.28125 0.234375 1 0 1
0 -79 108 228 -1 0 0 91.28125 0.25 1 0 1
0 -79 112 228 -1 0 0 91.25 0.25 1 0 1
plaster_plasterwall029a
0 -79 108 226 -1 0 0 91.28125 0.234375 1 0 1
0 -79 112 228 -1 0 0 91.25 0.25 1 0 1
0 -79 112 226 -1 0 0 91.25 0.234375 1 0 1
plaster_plasterwall029a
0 -31 108 228 1 0 0 91.28125 0.25 1 0 1
0 -31 108 226 1 0 0 91.28125 0.234375 1 0 1
0 -31 112 226 1 0 0 91.25 0.234375 1 0 1
plaster_plasterwall029a
0 -31 108 228 1 0 0 91.28125 0.25 1 0 1
0 -31 112 226 1 0 0 91.25 0.234375 1 0 1
0 -31 112 228 1 0 0 91.25 0.25 1 0 1
plaster_plasterwall029a
0 -31 108 226 0 0 -1 91.28125 -87.5 1 0 1
0 -79 108 226 0 0 -1 91.28125 -87.875 1 0 1
0 -79 112 226 0 0 -1 91.25 -87.875 1 0 1
plaster_plasterwall029a
0 -31 108 226 0 0 -1 91.28125 -87.5 1 0 1
0 -79 112 226 0 0 -1 91.25 -87.875 1 0 1
0 -31 112 226 0 0 -1 91.25 -87.5 1 0 1
plaster_plasterwall029a
0 -79 108 228 0 0 1 91.28125 -87.875 1 0 1
0 -31 108 228 0 0 1 91.28125 -87.5 1 0 1
0 -31 112 228 0 0 1 91.25 -87.5 1 0 1
plaster_plasterwall029a
0 -79 108 228 0 0 1 91.28125 -87.875 1 0 1
0 -31 112 228 0 0 1 91.25 -87.5 1 0 1
0 -79 112 228 0 0 1 91.25 -87.875 1 0 1
brick_brickwall053a
0 -223 112 216 -1 0 0 90.726562 0.4375 1 0 1
0 -223 112 224 -1 0 0 90.726562 0.5 1 0 1
0 -223 128 224 -1 0 0 90.601562 0.5 1 0 1
brick_brickwall053e
0 -199 112 224 1 0 0 91.25 0.5 1 0 1
0 -199 112 216 1 0 0 91.25 0.4375 1 0 1
0 -199 128 224 1 0 0 91.125 0.5 1 0 1
concrete_concreteceiling004a
0 -199 112 216 0 0.447214 -0.894427 91.25 -88.8125 1 0 1
0 -223 112 216 0 0.447214 -0.894427 91.25 -89 1 0 1
0 -223 128 224 0 0.447214 -0.894427 91.125 -89 1 0 1
concrete_concreteceiling004a
0 -199 112 216 0 0.447214 -0.894427 91.25 -88.8125 1 0 1
0 -223 128 224 0 0.447214 -0.894427 91.125 -89 1 0 1
0 -199 128 224 0 0.447214 -0.894427 91.125 -88.8125 1 0 1
plaster_plasterwall029a
0 -130 112 154 0 1 0 -89.28125 -0.328125 1 0 1
0 -130 112 152 0 1 0 -89.28125 -0.34375 1 0 1
0 -178 112 152 0 1 0 -89.65625 -0.34375 1 0 1
plaster_plasterwall029a
0 -130 112 154 0 1 0 -89.28125 -0.328125 1 0 1
0 -178 112 152 0 1 0 -89.65625 -0.34375 1 0 1
0 -178 112 154 0 1 0 -89.65625 -0.328125 1 0 1
plaster_plasterwall029a
0 -130 108 152 0 -1 0 -89.28125 -0.34375 1 0 1
0 -130 108 154 0 -1 0 -89.28125 -0.328125 1 0 1
0 -178 108 154 0 -1 0 -89.65625 -0.328125 1 0 1
plaster_plasterwall029a
0 -130 108 152 0 -1 0 -89.28125 -0.34375 1 0 1
0 -178 108 154 0 -1 0 -89.65625 -0.328125 1 0 1
0 -178 108 152 0 -1 0 -89.65625 -0.34375 1 0 1
plaster_plasterwall029a
0 -178 108 152 -1 0 0 91.28125 -0.34375 1 0 1
0 -178 108 154 -1 0 0 91.28125 -0.328125 1 0 1
0 -178 112 154 -1 0 0 91.25 -0.328125 1 0 1
plaster_plasterwall029a
0 -178 108 152 -1 0 0 91.28125 -0.34375 1 0 1
0 -178 112 154 -1 0 0 91.25 -0.328125 1 0 1
0 -178 112 152 -1 0 0 91.25 -0.34375 1 0 1
plaster_plasterwall029a
0 -130 108 154 1 0 0 91.28125 -0.328125 1 0 1
0 -130 108 152 1 0 0 91.28125 -0.34375 1 0 1
0 -130 112 152 1 0 0 91.25 -0.34375 1 0 1
plaster_plasterwall029a
0 -130 108 154 1 0 0 91.28125 -0.328125 1 0 1
0 -130 112 152 1 0 0 91.25 -0.34375 1 0 1
0 -130 112 154 1 0 0 91.25 -0.328125 1 0 1
plaster_plasterwall029a
0 -130 108 152 0 0 -1 91.28125 -88.28125 1 0 1
0 -178 108 152 0 0 -1 91.28125 -88.65625 1 0 1
0 -178 112 152 0 0 -1 91.25 -88.65625 1 0 1
plaster_plasterwall029a
0 -130 108 152 0 0 -1 91.28125 -88.28125 1 0 1
0 -178 112 152 0 0 -1 91.25 -88.65625 1 0 1
0 -130 112 152 0 0 -1 91.25 -88.28125 1 0 1
plaster_plasterwall029a
0 -178 108 154 0 0 1 91.28125 -88.65625 1 0 1
0 -130 108 154 0 0 1 91.28125 -88.28125 1 0 1
0 -130 112 154 0 0 1 91.25 -88.28125 1 0 1
plaster_plasterwall029a
0 -178 108 154 0 0 1 91.28125 -88.65625 1 0 1
0 -130 112 154 0 0 1 91.25 -88.28125 1 0 1
0 -178 112 154 0 0 1 91.25 -88.65625 1 0 1
plaster_plasterwall029a
0 -130 112 226 0 1 0 -89.515625 -0.234375 1 0 1
0 -130 112 154 0 1 0 -89.515625 -0.796875 1 0 1
0 -132 112 154 0 1 0 -89.53125 -0.796875 1 0 1
plaster_plasterwall029a
0 -130 112 226 0 1 0 -89.515625 -0.234375 1 0 1
0 -132 112 154 0 1 0 -89.53125 -0.796875 1 0 1
0 -132 112 226 0 1 0 -89.53125 -0.234375 1 0 1
plaster_plasterwall029a
0 -130 108 154 0 -1 0 -89.28125 -0.328125 1 0 1
0 -130 108 226 0 -1 0 -89.28125 0.234375 1 0 1
0 -132 108 226 0 -1 0 -89.296875 0.234375 1 0 1
plaster_plasterwall029a
0 -130 108 154 0 -1 0 -89.28125 -0.328125 1 0 1
0 -132 108 226 0 -1 0 -89.296875 0.234375 1 0 1
0 -132 108 154 0 -1 0 -89.296875 -0.328125 1 0 1
plaster_plasterwall029a
0 -132 108 154 -1 0 0 91.28125 -0.328125 1 0 1
0 -132 108 226 -1 0 0 91.28125 0.234375 1 0 1
0 -132 112 226 -1 0 0 91.25 0.234375 1 0 1
plaster_plasterwall029a
0 -132 108 154 -1 0 0 91.28125 -0.328125 1 0 1
0 -132 112 226 -1 0 0 91.25 0.234375 1 0 1
0 -132 112 154 -1 0 0 91.25 -0.328125 1 0 1
plaster_plasterwall029a
0 -130 108 226 1 0 0 91.28125 0.234375 1 0 1
0 -130 108 154 1 0 0 91.28125 -0.328125 1 0 1
0 -130 112 154 1 0 0 91.25 -0.328125 1 0 1
plaster_plasterwall029a
0 -130 108 226 1 0 0 91.28125 0.234375 1 0 1
0 -130 112 154 1 0 0 91.25 -0.328125 1 0 1
0 -130 112 226 1 0 0 91.25 0.234375 1 0 1
plaster_plasterwall029a
0 -130 108 154 0 0 -1 91.28125 -88.28125 1 0 1
0 -132 108 154 0 0 -1 91.28125 -88.296875 1 0 1
0 -132 112 154 0 0 -1 91.25 -88.296875 1 0 1
plaster_plasterwall029a
0 -130 108 154 0 0 -1 91.28125 -88.28125 1 0 1
0 -132 112 154 0 0 -1 91.25 -88.296875 1 0 1
0 -130 112 154 0 0 -1 91.25 -88.28125 1 0 1
plaster_plasterwall029a
0 -132 108 226 0 0 1 91.28125 -88.296875 1 0 1
0 -130 108 226 0 0 1 91.28125 -88.28125 1 0 1
0 -130 112 226 0 0 1 91.25 -88.28125 1 0 1
plaster_plasterwall029a
0 -132 108 226 0 0 1 91.28125 -88.296875 1 0 1
0 -130 112 226 0 0 1 91.25 -88.28125 1 0 1
0 -132 112 226 0 0 1 91.25 -88.296875 1 0 1
brick_brickwall053e
0 -223 -128 256 -1 0 0 92.601562 0.75 1 0 1
0 -223 -128 288 -1 0 0 92.601562 1 1 0 1
0 -223 112 288 -1 0 0 90.726562 1 1 0 1
brick_brickwall053e
0 -223 -128 256 -1 0 0 92.601562 0.75 1 0 1
0 -223 112 288 -1 0 0 90.726562 1 1 0 1
0 -223 112 256 -1 0 0 90.726562 0.75 1 0 1
brick_brickwall053e
0 -207 -128 288 1 0 0 93.125 1 1 0 1
0 -207 -128 256 1 0 0 93.125 0.75 1 0 1
0 -207 112 256 1 0 0 91.25 0.75 1 0 1
brick_brickwall053e
0 -207 -128 288 1 0 0 93.125 1 1 0 1
0 -207 112 256 1 0 0 91.25 0.75 1 0 1
0 -207 112 288 1 0 0 91.25 1 1 0 1
concrete_concreteceiling004a
0 -223 -128 288 0 0 1 93.125 -89 1 0 1
0 -207 -128 288 0 0 1 93.125 -88.875 1 0 1
0 -207 112 288 0 0 1 91.25 -88.875 1 0 1
concrete_concreteceiling004a
0 -223 -128 288 0 0 1 93.125 -89 1 0 1
0 -207 112 288 0 0 1 91.25 -88.875 1 0 1
0 -223 112 288 0 0 1 91.25 -89 1 0 1
plaster_plasterwall029a
0 -130 112 98 0 1 0 -89.515625 -1.234375 1 0 1
0 -130 112 26 0 1 0 -89.515625 -1.796875 1 0 1
0 -132 112 26 0 1 0 -89.53125 -1.796875 1 0 1
plaster_plasterwall029a
0 -130 112 98 0 1 0 -89.515625 -1.234375 1 0 1
0 -132 112 26 0 1 0 -89.53125 -1.796875 1 0 1
0 -132 112 98 0 1 0 -89.53125 -1.234375 1 0 1
plaster_plasterwall029a
0 -130 108 26 0 -1 0 -89.28125 -1.328125 1 0 1
0 -130 108 98 0 -1 0 -89.28125 -0.765625 1 0 1
0 -132 108 98 0 -1 0 -89.296875 -0.765625 1 0 1
plaster_plasterwall029a
0 -130 108 26 0 -1 0 -89.28125 -1.328125 1 0 1
0 -132 108 98 0 -1 0 -89.296875 -0.765625 1 0 1
0 -132 108 26 0 -1 0 -89.296875 -1.328125 1 0 1
plaster_plasterwall029a
0 -132 108 26 -1 0 0 91.28125 -1.328125 1 0 1
0 -132 108 98 -1 0 0 91.28125 -0.765625 1 0 1
0 -132 112 98 -1 0 0 91.25 -0.765625 1 0 1
plaster_plasterwall029a
0 -132 108 26 -1 0 0 91.28125 -1.328125 1 0 1
0 -132 112 98 -1 0 0 91.25 -0.765625 1 0 1
0 -132 112 26 -1 0 0 91.25 -1.328125 1 0 1
plaster_plasterwall029a
0 -130 108 98 1 0 0 91.28125 -0.765625 1 0 1
0 -130 108 26 1 0 0 91.28125 -1.328125 1 0 1
0 -130 112 26 1 0 0 91.25 -1.328125 1 0 1
plaster_plasterwall029a
0 -130 108 98 1 0 0 91.28125 -0.765625 1 0 1
0 -130 112 26 1 0 0 91.25 -1.328125 1 0 1
0 -130 112 98 1 0 0 91.25 -0.765625 1 0 1
plaster_plasterwall029a
0 -130 108 26 0 0 -1 91.28125 -88.28125 1 0 1
0 -132 108 26 0 0 -1 91.28125 -88.296875 1 0 1
0 -132 112 26 0 0 -1 91.25 -88.296875 1 0 1
plaster_plasterwall029a
0 -130 108 26 0 0 -1 91.28125 -88.28125 1 0 1
0 -132 112 26 0 0 -1 91.25 -88.296875 1 0 1
0 -130 112 26 0 0 -1 91.25 -88.28125 1 0 1
plaster_plasterwall029a
0 -132 108 98 0 0 1 91.28125 -88.296875 1 0 1
0 -130 108 98 0 0 1 91.28125 -88.28125 1 0 1
0 -130 112 98 0 0 1 91.25 -88.28125 1 0 1
plaster_plasterwall029a
0 -132 108 98 0 0 1 91.28125 -88.296875 1 0 1
0 -130 112 98 0 0 1 91.25 -88.28125 1 0 1
0 -132 112 98 0 0 1 91.25 -88.296875 1 0 1
plaster_plasterwall029a
0 -178 108 98 -1 0 0 91.28125 -0.765625 1 0 1
0 -178 112 98 -1 0 0 91.25 -0.765625 1 0 1
0 -178 112 26 -1 0 0 91.25 -1.328125 1 0 1
plaster_plasterwall029a
0 -178 108 98 -1 0 0 91.28125 -0.765625 1 0 1
0 -178 112 26 -1 0 0 91.25 -1.328125 1 0 1
0 -178 108 26 -1 0 0 91.28125 -1.328125 1 0 1
plaster_plasterwall029a
0 -176 108 26 1 0 0 91.28125 -1.328125 1 0 1
0 -176 112 26 1 0 0 91.25 -1.328125 1 0 1
0 -176 112 98 1 0 0 91.25 -0.765625 1 0 1
plaster_plasterwall029a
0 -176 108 26 1 0 0 91.28125 -1.328125 1 0 1
0 -176 112 98 1 0 0 91.25 -0.765625 1 0 1
0 -176 108 98 1 0 0 91.28125 -0.765625 1 0 1
plaster_plasterwall029a
0 -178 108 26 0 0 -1 91.28125 -88.65625 1 0 1
0 -178 112 26 0 0 -1 91.25 -88.65625 1 0 1
0 -176 112 26 0 0 -1 91.25 -88.640625 1 0 1
plaster_plasterwall029a
0 -178 108 26 0 0 -1 91.28125 -88.65625 1 0 1
0 -176 112 26 0 0 -1 91.25 -88.640625 1 0 1
0 -176 108 26 0 0 -1 91.28125 -88.640625 1 0 1
plaster_plasterwall029a
0 -176 108 98 0 0 1 91.28125 -88.640625 1 0 1
0 -176 112 98 0 0 1 91.25 -88.640625 1 0 1
0 -178 112 98 0 0 1 91.25 -88.65625 1 0 1
plaster_plasterwall029a
0 -176 108 98 0 0 1 91.28125 -88.640625 1 0 1
0 -178 112 98 0 0 1 91.25 -88.65625 1 0 1
0 -178 108 98 0 0 1 91.28125 -88.65625 1 0 1
plaster_plasterwall029a
0 -176 112 98 0 1 0 -89.640625 -0.765625 1 0 1
0 -176 112 26 0 1 0 -89.640625 -1.328125 1 0 1
0 -178 112 26 0 1 0 -89.65625 -1.328125 1 0 1
plaster_plasterwall029a
0 -176 112 98 0 1 0 -89.640625 -0.765625 1 0 1
0 -178 112 26 0 1 0 -89.65625 -1.328125 1 0 1
0 -178 112 98 0 1 0 -89.65625 -0.765625 1 0 1
plaster_plasterwall029a
0 -176 108 26 0 -1 0 -89.640625 -1.328125 1 0 1
0 -176 108 98 0 -1 0 -89.640625 -0.765625 1 0 1
0 -178 108 98 0 -1 0 -89.65625 -0.765625 1 0 1
plaster_plasterwall029a
0 -176 108 26 0 -1 0 -89.640625 -1.328125 1 0 1
0 -178 108 98 0 -1 0 -89.65625 -0.765625 1 0 1
0 -178 108 26 0 -1 0 -89.65625 -1.328125 1 0 1
brick_brickwall053e
0 12 128 224 0 1 0 -88.15625 0.5 1 0 1
0 -12 128 224 0 1 0 -88.34375 0.5 1 0 1
0 -12 128 256 0 1 0 -88.34375 0.75 1 0 1
brick_brickwall053e
0 12 128 224 0 1 0 -88.15625 0.5 1 0 1
0 -12 128 256 0 1 0 -88.34375 0.75 1 0 1
0 12 128 256 0 1 0 -88.15625 0.75 1 0 1
brick_brickwall053e
0 -12 112 256 -1 0 0 91.25 0.75 1 0 1
0 -12 128 256 -1 0 0 91.125 0.75 1 0 1
0 -12 128 224 -1 0 0 91.125 0.5 1 0 1
brick_brickwall053e
0 -12 112 256 -1 0 0 91.25 0.75 1 0 1
0 -12 128 224 -1 0 0 91.125 0.5 1 0 1
0 -12 112 224 -1 0 0 91.25 0.5 1 0 1
brick_brickwall053e
0 12 112 224 1 0 0 91.25 0.5 1 0 1
0 12 128 224 1 0 0 91.125 0.5 1 0 1
0 12 128 256 1 0 0 91.125 0.75 1 0 1
brick_brickwall053e
0 12 112 224 1 0 0 91.25 0.5 1 0 1
0 12 128 256 1 0 0 91.125 0.75 1 0 1
0 12 112 256 1 0 0 91.25 0.75 1 0 1
brick_brickwall053e
0 -199 128 256 0 1 0 -89.8125 0.75 1 0 1
0 -199 128 224 0 1 0 -89.8125 0.5 1 0 1
0 -223 128 224 0 1 0 -90 0.5 1 0 1
brick_brickwall053e
0 -199 128 256 0 1 0 -89.8125 0.75 1 0 1
0 -223 128 224 0 1 0 -90 0.5 1 0 1
0 -223 128 256 0 1 0 -90 0.75 1 0 1
brick_brickwall053a
0 -223 112 224 -1 0 0 90.726562 0.5 1 0 1
0 -223 112 256 -1 0 0 90.726562 0.75 1 0 1
0 -223 128 256 -1 0 0 90.601562 0.75 1 0 1
brick_brickwall053a
0 -223 112 224 -1 0 0 90.726562 0.5 1 0 1
0 -223 128 256 -1 0 0 90.601562 0.75 1 0 1
0 -223 128 224 -1 0 0 90.601562 0.5 1 0 1
brick_brickwall053e
0 -199 112 256 1 0 0 91.25 0.75 1 0 1
0 -199 112 224 1 0 0 91.25 0.5 1 0 1
0 -199 128 224 1 0 0 91.125 0.5 1 0 1
brick_brickwall053e
0 -199 112 256 1 0 0 91.25 0.75 1 0 1
0 -199 128 224 1 0 0 91.125 0.5 1 0 1
0 -199 128 256 1 0 0 91.125 0.75 1 0 1
plaster_plasterwall029a
0 -176 108 154 0 0 -1 91.28125 -88.640625 1 0 1
0 -178 108 154 0 0 -1 91.28125 -88.65625 1 0 1
0 -178 112 154 0 0 -1 91.25 -88.65625 1 0 1
plaster_plasterwall029a
0 -176 108 154 0 0 -1 91.28125 -88.640625 1 0 1
0 -178 112 154 0 0 -1 91.25 -88.65625 1 0 1
0 -176 112 154 0 0 -1 91.25 -88.640625 1 0 1
plaster_plasterwall029a
0 -178 108 226 0 0 1 91.28125 -88.65625 1 0 1
0 -176 108 226 0 0 1 91.28125 -88.640625 1 0 1
0 -176 112 226 0 0 1 91.25 -88.640625 1 0 1
plaster_plasterwall029a
0 -178 108 226 0 0 1 91.28125 -88.65625 1 0 1
0 -176 112 226 0 0 1 91.25 -88.640625 1 0 1
0 -178 112 226 0 0 1 91.25 -88.65625 1 0 1
plaster_plasterwall029a
0 -176 112 154 0 1 0 -89.640625 -0.328125 1 0 1
0 -178 112 154 0 1 0 -89.65625 -0.328125 1 0 1
0 -178 112 226 0 1 0 -89.65625 0.234375 1 0 1
plaster_plasterwall029a
0 -176 112 154 0 1 0 -89.640625 -0.328125 1 0 1
0 -178 112 226 0 1 0 -89.65625 0.234375 1 0 1
0 -176 112 226 0 1 0 -89.640625 0.234375 1 0 1
plaster_plasterwall029a
0 -176 108 226 0 -1 0 -89.640625 0.234375 1 0 1
0 -178 108 226 0 -1 0 -89.65625 0.234375 1 0 1
0 -178 108 154 0 -1 0 -89.65625 -0.328125 1 0 1
plaster_plasterwall029a
0 -176 108 226 0 -1 0 -89.640625 0.234375 1 0 1
0 -178 108 154 0 -1 0 -89.65625 -0.328125 1 0 1
0 -176 108 154 0 -1 0 -89.640625 -0.328125 1 0 1
plaster_plasterwall029a
0 -178 108 226 -1 0 0 91.28125 0.234375 1 0 1
0 -178 112 226 -1 0 0 91.25 0.234375 1 0 1
0 -178 112 154 -1 0 0 91.25 -0.328125 1 0 1
plaster_plasterwall029a
0 -178 108 226 -1 0 0 91.28125 0.234375 1 0 1
0 -178 112 154 -1 0 0 91.25 -0.328125 1 0 1
0 -178 108 154 -1 0 0 91.28125 -0.328125 1 0 1
plaster_plasterwall029a
0 -176 108 154 1 0 0 91.28125 -0.328125 1 0 1
0 -176 112 154 1 0 0 91.25 -0.328125 1 0 1
0 -176 112 226 1 0 0 91.25 0.234375 1 0 1
plaster_plasterwall029a
0 -176 108 154 1 0 0 91.28125 -0.328125 1 0 1
0 -176 112 226 1 0 0 91.25 0.234375 1 0 1
0 -176 108 226 1 0 0 91.28125 0.234375 1 0 1
brick_brickwall053e
0 -12 112 216 -1 0 0 91.25 0.4375 1 0 1
0 -12 112 224 -1 0 0 91.25 0.5 1 0 1
0 -12 128 224 -1 0 0 91.125 0.5 1 0 1
brick_brickwall053e
0 12 112 224 1 0 0 91.25 0.5 1 0 1
0 12 112 216 1 0 0 91.25 0.4375 1 0 1
0 12 128 224 1 0 0 91.125 0.5 1 0 1
concrete_concreteceiling004a
0 12 112 216 0 0.447214 -0.894427 91.25 -87.15625 1 0 1
0 -12 112 216 0 0.447214 -0.894427 91.25 -87.34375 1 0 1
0 -12 128 224 0 0.447214 -0.894427 91.125 -87.34375 1 0 1
concrete_concreteceiling004a
0 12 112 216 0 0.447214 -0.894427 91.25 -87.15625 1 0 1
0 -12 128 224 0 0.447214 -0.894427 91.125 -87.34375 1 0 1
0 12 128 224 0 0.447214 -0.894427 91.125 -87.15625 1 0 1
plaster_plasterwall029a
0 -130 112 26 0 1 0 -89.28125 -1.328125 1 0 1
0 -130 112 24 0 1 0 -89.28125 -1.34375 1 0 1
0 -178 112 24 0 1 0 -89.65625 -1.34375 1 0 1
plaster_plasterwall029a
0 -130 112 26 0 1 0 -89.28125 -1.328125 1 0 1
0 -178 112 24 0 1 0 -89.65625 -1.34375 1 0 1
0 -178 112 26 0 1 0 -89.65625 -1.328125 1 0 1
plaster_plasterwall029a
0 -130 108 24 0 -1 0 -89.28125 -1.34375 1 0 1
0 -130 108 26 0 -1 0 -89.28125 -1.328125 1 0 1
0 -178 108 26 0 -1 0 -89.65625 -1.328125 1 0 1
plaster_plasterwall029a
0 -130 108 24 0 -1 0 -89.28125 -1.34375 1 0 1
0 -178 108 26 0 -1 0 -89.65625 -1.328125 1 0 1
0 -178 108 24 0 -1 0 -89.65625 -1.34375 1 0 1
plaster_plasterwall029a
0 -178 108 24 -1 0 0 91.28125 -1.34375 1 0 1
0 -178 108 26 -1 0 0 91.28125 -1.328125 1 0 1
0 -178 112 26 -1 0 0 91.25 -1.328125 1 0 1
plaster_plasterwall029a
0 -178 108 24 -1 0 0 91.28125 -1.34375 1 0 1
0 -178 112 26 -1 0 0 91.25 -1.328125 1 0 1
0 -178 112 24 -1 0 0 91.25 -1.34375 1 0 1
plaster_plasterwall029a
0 -130 108 26 1 0 0 91.28125 -1.328125 1 0 1
0 -130 108 24 1 0 0 91.28125 -1.34375 1 0 1
0 -130 112 24 1 0 0 91.25 -1.34375 1 0 1
plaster_plasterwall029a
0 -130 108 26 1 0 0 91.28125 -1.328125 1 0 1
0 -130 112 24 1 0 0 91.25 -1.34375 1 0 1
0 -130 112 26 1 0 0 91.25 -1.328125 1 0 1
plaster_plasterwall029a
0 -130 108 24 0 0 -1 91.28125 -88.28125 1 0 1
0 -178 108 24 0 0 -1 91.28125 -88.65625 1 0 1
0 -178 112 24 0 0 -1 91.25 -88.65625 1 0 1
plaster_plasterwall029a
0 -130 108 24 0 0 -1 91.28125 -88.28125 1 0 1
0 -178 112 24 0 0 -1 91.25 -88.65625 1 0 1
0 -130 112 24 0 0 -1 91.25 -88.28125 1 0 1
plaster_plasterwall029a
0 -178 108 26 0 0 1 91.28125 -88.65625 1 0 1
0 -130 108 26 0 0 1 91.28125 -88.28125 1 0 1
0 -130 112 26 0 0 1 91.25 -88.28125 1 0 1
plaster_plasterwall029a
0 -178 108 26 0 0 1 91.28125 -88.65625 1 0 1
0 -130 112 26 0 0 1 91.25 -88.28125 1 0 1
0 -178 112 26 0 0 1 91.25 -88.65625 1 0 1
plaster_plasterwall029a
0 -130 112 228 0 1 0 -89.515625 -0.21875 1 0 1
0 -130 112 226 0 1 0 -89.515625 -0.234375 1 0 1
0 -178 112 226 0 1 0 -89.890625 -0.234375 1 0 1
plaster_plasterwall029a
0 -130 112 228 0 1 0 -89.515625 -0.21875 1 0 1
0 -178 112 226 0 1 0 -89.890625 -0.234375 1 0 1
0 -178 112 228 0 1 0 -89.890625 -0.21875 1 0 1
plaster_plasterwall029a
0 -130 108 226 0 -1 0 -89.28125 0.234375 1 0 1
0 -130 108 228 0 -1 0 -89.28125 0.25 1 0 1
0 -178 108 228 0 -1 0 -89.65625 0.25 1 0 1
plaster_plasterwall029a
0 -130 108 226 0 -1 0 -89.28125 0.234375 1 0 1
0 -178 108 228 0 -1 0 -89.65625 0.25 1 0 1
0 -178 108 226 0 -1 0 -89.65625 0.234375 1 0 1
plaster_plasterwall029a
0 -178 108 226 -1 0 0 91.28125 0.234375 1 0 1
0 -178 108 228 -1 0 0 91.28125 0.25 1 0 1
0 -178 112 228 -1 0 0 91.25 0.25 1 0 1
plaster_plasterwall029a
0 -178 108 226 -1 0 0 91.28125 0.234375 1 0 1
0 -178 112 228 -1 0 0 91.25 0.25 1 0 1
0 -178 112 226 -1 0 0 91.25 0.234375 1 0 1
plaster_plasterwall029a
0 -130 108 228 1 0 0 91.28125 0.25 1 0 1
0 -130 108 226 1 0 0 91.28125 0.234375 1 0 1
0 -130 112 226 1 0 0 91.25 0.234375 1 0 1
plaster_plasterwall029a
0 -130 108 228 1 0 0 91.28125 0.25 1 0 1
0 -130 112 226 1 0 0 91.25 0.234375 1 0 1
0 -130 112 228 1 0 0 91.25 0.25 1 0 1
plaster_plasterwall029a
0 -130 108 226 0 0 -1 91.28125 -88.28125 1 0 1
0 -178 108 226 0 0 -1 91.28125 -88.65625 1 0 1
0 -178 112 226 0 0 -1 91.25 -88.65625 1 0 1
plaster_plasterwall029a
0 -130 108 226 0 0 -1 91.28125 -88.28125 1 0 1
0 -178 112 226 0 0 -1 91.25 -88.65625 1 0 1
0 -130 112 226 0 0 -1 91.25 -88.28125 1 0 1
plaster_plasterwall029a
0 -178 108 228 0 0 1 91.28125 -88.65625 1 0 1
0 -130 108 228 0 0 1 91.28125 -88.28125 1 0 1
0 -130 112 228 0 0 1 91.25 -88.28125 1 0 1
plaster_plasterwall029a
0 -178 108 228 0 0 1 91.28125 -88.65625 1 0 1
0 -130 112 228 0 0 1 91.25 -88.28125 1 0 1
0 -178 112 228 0 0 1 91.25 -88.65625 1 0 1
wood_wooddoor032a
0 -31 112 108 0 1 0 -177.203125 -1.15625 1 0 1
0 -79 112 108 0 1 0 -177.953125 -1.15625 1 0 1
0 -82 112 111 0 1 0 -178 -1.132812 1 0 1
wood_wooddoor032a
0 -31 112 108 0 1 0 -177.203125 -1.15625 1 0 1
0 -82 112 111 0 1 0 -178 -1.132812 1 0 1
0 -28 112 111 0 1 0 -177.15625 -1.132812 1 0 1
wood_wooddoor032a
0 -28 104 111 0 -1 0 -177.15625 -1.132812 1 0 1
0 -82 104 111 0 -1 0 -178 -1.132812 1 0 1
0 -79 104 108 0 -1 0 -177.953125 -1.15625 1 0 1
wood_wooddoor032a
0 -28 104 111 0 -1 0 -177.15625 -1.132812 1 0 1
0 -79 104 108 0 -1 0 -177.953125 -1.15625 1 0 1
0 -31 104 108 0 -1 0 -177.203125 -1.15625 1 0 1
wood_wooddoor032a
0 -31 104 108 0 0 -1 181.589844 -88.341797 1 0 1
0 -79 104 108 0 0 -1 181.589844 -88.716797 1 0 1
0 -79 112 108 0 0 -1 181.464844 -88.716797 1 0 1
wood_wooddoor032a
0 -31 104 108 0 0 -1 181.589844 -88.341797 1 0 1
0 -79 112 108 0 0 -1 181.464844 -88.716797 1 0 1
0 -31 112 108 0 0 -1 181.464844 -88.341797 1 0 1
plaster_plasterwall029a
0 -31 112 154 0 1 0 -88.5 -0.328125 1 0 1
0 -31 112 152 0 1 0 -88.5 -0.34375 1 0 1
0 -79 112 152 0 1 0 -88.875 -0.34375 1 0 1
plaster_plasterwall029a
0 -31 112 154 0 1 0 -88.5 -0.328125 1 0 1
0 -79 112 152 0 1 0 -88.875 -0.34375 1 0 1
0 -79 112 154 0 1 0 -88.875 -0.328125 1 0 1
plaster_plasterwall029a
0 -31 108 152 0 -1 0 -88.5 -0.34375 1 0 1
0 -31 108 154 0 -1 0 -88.5 -0.328125 1 0 1
0 -79 108 154 0 -1 0 -88.875 -0.328125 1 0 1
plaster_plasterwall029a
0 -31 108 152 0 -1 0 -88.5 -0.34375 1 0 1
0 -79 108 154 0 -1 0 -88.875 -0.328125 1 0 1
0 -79 108 152 0 -1 0 -88.875 -0.34375 1 0 1
plaster_plasterwall029a
0 -79 108 152 -1 0 0 91.28125 -0.34375 1 0 1
0 -79 108 154 -1 0 0 91.28125 -0.328125 1 0 1
0 -79 112 154 -1 0 0 91.25 -0.328125 1 0 1
plaster_plasterwall029a
0 -79 108 152 -1 0 0 91.28125 -0.34375 1 0 1
0 -79 112 154 -1 0 0 91.25 -0.328125 1 0 1
0 -79 112 152 -1 0 0 91.25 -0.34375 1 0 1
plaster_plasterwall029a
0 -31 108 154 1 0 0 91.28125 -0.328125 1 0 1
0 -31 108 152 1 0 0 91.28125 -0.34375 1 0 1
0 -31 112 152 1 0 0 91.25 -0.34375 1 0 1
plaster_plasterwall029a
0 -31 108 154 1 0 0 91.28125 -0.328125 1 0 1
0 -31 112 152 1 0 0 91.25 -0.34375 1 0 1
0 -31 112 154 1 0 0 91.25 -0.328125 1 0 1
plaster_plasterwall029a
0 -31 108 152 0 0 -1 91.28125 -87.5 1 0 1
0 -79 108 152 0 0 -1 91.28125 -87.875 1 0 1
0 -79 112 152 0 0 -1 91.25 -87.875 1 0 1
plaster_plasterwall029a
0 -31 108 152 0 0 -1 91.28125 -87.5 1 0 1
0 -79 112 152 0 0 -1 91.25 -87.875 1 0 1
0 -31 112 152 0 0 -1 91.25 -87.5 1 0 1
plaster_plasterwall029a
0 -79 108 154 0 0 1 91.28125 -87.875 1 0 1
0 -31 108 154 0 0 1 91.28125 -87.5 1 0 1
0 -31 112 154 0 0 1 91.25 -87.5 1 0 1
plaster_plasterwall029a
0 -79 108 154 0 0 1 91.28125 -87.875 1 0 1
0 -31 112 154 0 0 1 91.25 -87.5 1 0 1
0 -79 112 154 0 0 1 91.25 -87.875 1 0 1
plaster_plasterwall029a
0 -130 112 100 0 1 0 -89.515625 -1.21875 1 0 1
0 -130 112 98 0 1 0 -89.515625 -1.234375 1 0 1
0 -178 112 98 0 1 0 -89.890625 -1.234375 1 0 1
plaster_plasterwall029a
0 -130 112 100 0 1 0 -89.515625 -1.21875 1 0 1
0 -178 112 98 0 1 0 -89.890625 -1.234375 1 0 1
0 -178 112 100 0 1 0 -89.890625 -1.21875 1 0 1
plaster_plasterwall029a
0 -130 108 98 0 -1 0 -89.28125 -0.765625 1 0 1
0 -130 108 100 0 -1 0 -89.28125 -0.75 1 0 1
0 -178 108 100 0 -1 0 -89.65625 -0.75 1 0 1
plaster_plasterwall029a
0 -130 108 98 0 -1 0 -89.28125 -0.765625 1 0 1
0 -178 108 100 0 -1 0 -89.65625 -0.75 1 0 1
0 -178 108 98 0 -1 0 -89.65625 -0.765625 1 0 1
plaster_plasterwall029a
0 -178 108 98 -1 0 0 91.28125 -0.765625 1 0 1
0 -178 108 100 -1 0 0 91.28125 -0.75 1 0 1
0 -178 112 100 -1 0 0 91.25 -0.75 1 0 1
plaster_plasterwall029a
0 -178 108 98 -1 0 0 91.28125 -0.765625 1 0 1
0 -178 112 100 -1 0 0 91.25 -0.75 1 0 1
0 -178 112 98 -1 0 0 91.25 -0.765625 1 0 1
plaster_plasterwall029a
0 -130 108 100 1 0 0 91.28125 -0.75 1 0 1
0 -130 108 98 1 0 0 91.28125 -0.765625 1 0 1
0 -130 112 98 1 0 0 91.25 -0.765625 1 0 1
plaster_plasterwall029a
0 -130 108 100 1 0 0 91.28125 -0.75 1 0 1
0 -130 112 98 1 0 0 91.25 -0.765625 1 0 1
0 -130 112 100 1 0 0 91.25 -0.75 1 0 1
plaster_plasterwall029a
0 -130 108 98 0 0 -1 91.28125 -88.28125 1 0 1
0 -178 108 98 0 0 -1 91.28125 -88.65625 1 0 1
0 -178 112 98 0 0 -1 91.25 -88.65625 1 0 1
plaster_plasterwall029a
0 -130 108 98 0 0 -1 91.28125 -88.28125 1 0 1
0 -178 112 98 0 0 -1 91.25 -88.65625 1 0 1
0 -130 112 98 0 0 -1 91.25 -88.28125 1 0 1
plaster_plasterwall029a
0 -178 108 100 0 0 1 91.28125 -88.65625 1 0 1
0 -130 108 100 0 0 1 91.28125 -88.28125 1 0 1
0 -130 112 100 0 0 1 91.25 -88.28125 1 0 1
plaster_plasterwall029a
0 -178 108 100 0 0 1 91.28125 -88.65625 1 0 1
0 -130 112 100 0 0 1 91.25 -88.28125 1 0 1
0 -178 112 100 0 0 1 91.25 -88.65625 1 0 1
brick_brickwall053e
0 224 128 288 0 1 0 -86.507812 1 1 0 1
0 224 128 256 0 1 0 -86.507812 0.75 1 0 1
0 -223 128 256 0 1 0 -90 0.75 1 0 1
brick_brickwall053e
0 224 128 288 0 1 0 -86.507812 1 1 0 1
0 -223 128 256 0 1 0 -90 0.75 1 0 1
0 -223 128 288 0 1 0 -90 1 1 0 1
brick_brickwall053e
0 224 112 256 0 -1 0 -85.984375 0.75 1 0 1
0 224 112 288 0 -1 0 -85.984375 1 1 0 1
0 -223 112 288 0 -1 0 -89.476562 1 1 0 1
brick_brickwall053e
0 224 112 256 0 -1 0 -85.984375 0.75 1 0 1
0 -223 112 288 0 -1 0 -89.476562 1 1 0 1
0 -223 112 256 0 -1 0 -89.476562 0.75 1 0 1
brick_brickwall053e
0 -223 112 256 -1 0 0 90.726562 0.75 1 0 1
0 -223 112 288 -1 0 0 90.726562 1 1 0 1
0 -223 128 288 -1 0 0 90.601562 1 1 0 1
brick_brickwall053e
0 -223 112 256 -1 0 0 90.726562 0.75 1 0 1
0 -223 128 288 -1 0 0 90.601562 1 1 0 1
0 -223 128 256 -1 0 0 90.601562 0.75 1 0 1
concrete_concreteceiling004a
0 224 112 256 0 0 -1 91.25 -85.507812 1 0 1
0 -223 112 256 0 0 -1 91.25 -89 1 0 1
0 -223 128 256 0 0 -1 91.125 -89 1 0 1
concrete_concreteceiling004a
0 224 112 256 0 0 -1 91.25 -85.507812 1 0 1
0 -223 128 256 0 0 -1 91.125 -89 1 0 1
0 224 128 256 0 0 -1 91.125 -85.507812 1 0 1
concrete_concreteceiling004a
0 -223 112 288 0 0 1 91.25 -89 1 0 1
0 224 112 288 0 0 1 91.25 -85.507812 1 0 1
0 224 128 288 0 0 1 91.125 -85.507812 1 0 1
concrete_concreteceiling004a
0 -223 112 288 0 0 1 91.25 -89 1 0 1
0 224 128 288 0 0 1 91.125 -85.507812 1 0 1
0 -223 128 288 0 0 1 91.125 -89 1 0 1
wood_wooddoor032a
0 -31 104 108.003 -1 0 0 181.203125 -1.156227 1 0 1
0 -31 112 108.003 -1 0 0 181.078125 -1.156227 1 0 1
0 -31 112 0 -1 0 0 181.078125 -2 1 0 1
wood_wooddoor032a
0 -31 104 108.003 -1 0 0 181.203125 -1.156227 1 0 1
0 -31 112 0 -1 0 0 181.078125 -2 1 0 1
0 -31 104 0 -1 0 0 181.203125 -2 1 0 1
wood_wooddoor032a
0 -28 112 111.003 0 1 0 -177.15625 -1.132789 1 0 1
0 -28 112 0 0 1 0 -177.15625 -2 1 0 1
0 -31 112 0 0 1 0 -177.203125 -2 1 0 1
wood_wooddoor032a
0 -28 112 111.003 0 1 0 -177.15625 -1.132789 1 0 1
0 -31 112 0 0 1 0 -177.203125 -2 1 0 1
0 -31 112 108.003 0 1 0 -177.203125 -1.156227 1 0 1
wood_wooddoor032a
0 -28 104 0 0 -1 0 -177.15625 -2 1 0 1
0 -28 104 111.003 0 -1 0 -177.15625 -1.132789 1 0 1
0 -31 104 108.003 0 -1 0 -177.203125 -1.156227 1 0 1
wood_wooddoor032a
0 -28 104 0 0 -1 0 -177.15625 -2 1 0 1
0 -31 104 108.003 0 -1 0 -177.203125 -1.156227 1 0 1
0 -31 104 0 0 -1 0 -177.203125 -2 1 0 1
plaster_plasterwall029a
0 -77 112 226 0 1 0 -88.859375 0.234375 1 0 1
0 -77 112 154 0 1 0 -88.859375 -0.328125 1 0 1
0 -79 112 154 0 1 0 -88.875 -0.328125 1 0 1
plaster_plasterwall029a
0 -77 112 226 0 1 0 -88.859375 0.234375 1 0 1
0 -79 112 154 0 1 0 -88.875 -0.328125 1 0 1
0 -79 112 226 0 1 0 -88.875 0.234375 1 0 1
plaster_plasterwall029a
0 -77 108 154 0 -1 0 -88.859375 -0.328125 1 0 1
0 -77 108 226 0 -1 0 -88.859375 0.234375 1 0 1
0 -79 108 226 0 -1 0 -88.875 0.234375 1 0 1
plaster_plasterwall029a
0 -77 108 154 0 -1 0 -88.859375 -0.328125 1 0 1
0 -79 108 226 0 -1 0 -88.875 0.234375 1 0 1
0 -79 108 154 0 -1 0 -88.875 -0.328125 1 0 1
plaster_plasterwall029a
0 -79 108 154 -1 0 0 91.28125 -0.328125 1 0 1
0 -79 108 226 -1 0 0 91.28125 0.234375 1 0 1
0 -79 112 226 -1 0 0 91.25 0.234375 1 0 1
plaster_plasterwall029a
0 -79 108 154 -1 0 0 91.28125 -0.328125 1 0 1
0 -79 112 226 -1 0 0 91.25 0.234375 1 0 1
0 -79 112 154 -1 0 0 91.25 -0.328125 1 0 1
plaster_plasterwall029a
0 -77 108 226 1 0 0 91.28125 0.234375 1 0 1
0 -77 108 154 1 0 0 91.28125 -0.328125 1 0 1
0 -77 112 154 1 0 0 91.25 -0.328125 1 0 1
plaster_plasterwall029a
0 -77 108 226 1 0 0 91.28125 0.234375 1 0 1
0 -77 112 154 1 0 0 91.25 -0.328125 1 0 1
0 -77 112 226 1 0 0 91.25 0.234375 1 0 1
plaster_plasterwall029a
0 -77 108 154 0 0 -1 91.28125 -87.859375 1 0 1
0 -79 108 154 0 0 -1 91.28125 -87.875 1 0 1
0 -79 112 154 0 0 -1 91.25 -87.875 1 0 1
plaster_plasterwall029a
0 -77 108 154 0 0 -1 91.28125 -87.859375 1 0 1
0 -79 112 154 0 0 -1 91.25 -87.875 1 0 1
0 -77 112 154 0 0 -1 91.25 -87.859375 1 0 1
plaster_plasterwall029a
0 -79 108 226 0 0 1 91.28125 -87.875 1 0 1
0 -77 108 226 0 0 1 91.28125 -87.859375 1 0 1
0 -77 112 226 0 0 1 91.25 -87.859375 1 0 1
plaster_plasterwall029a
0 -79 108 226 0 0 1 91.28125 -87.875 1 0 1
0 -77 112 226 0 0 1 91.25 -87.859375 1 0 1
0 -79 112 226 0 0 1 91.25 -87.875 1 0 1
wood_woodshelf001a
0 -176 111 154 0 1 0 -261.00899 -2.000754 1 0 1
0 -176 111 226 0 1 0 -261.00899 -1.000932 1 0 1
0 -132 111 226 0 1 0 -260.009135 -1.000932 1 0 1
wood_woodshelf001a
0 -176 111 154 0 1 0 -261.00899 -2.000754 1 0 1
0 -132 111 226 0 1 0 -260.009135 -1.000932 1 0 1
0 -132 111 154 0 1 0 -260.009135 -2.000754 1 0 1
wood_woodshelf001a
0 -132 110 154 0 -1 0 -260.009135 -2.000754 1 0 1
0 -132 110 226 0 -1 0 -260.009135 -1.000932 1 0 1
0 -176 110 226 0 -1 0 -261.00899 -1.000932 1 0 1
wood_woodshelf001a
0 -132 110 154 0 -1 0 -260.009135 -2.000754 1 0 1
0 -176 110 226 0 -1 0 -261.00899 -1.000932 1 0 1
0 -176 110 154 0 -1 0 -261.00899 -2.000754 1 0 1
plaster_plasterwall029a
0 -31 112 226 0 1 0 -88.734375 -0.234375 1 0 1
0 -31 112 154 0 1 0 -88.734375 -0.796875 1 0 1
0 -33 112 154 0 1 0 -88.75 -0.796875 1 0 1
plaster_plasterwall029a
0 -31 112 226 0 1 0 -88.734375 -0.234375 1 0 1
0 -33 112 154 0 1 0 -88.75 -0.796875 1 0 1
0 -33 112 226 0 1 0 -88.75 -0.234375 1 0 1
plaster_plasterwall029a
0 -31 108 154 0 -1 0 -88.5 -0.328125 1 0 1
0 -31 108 226 0 -1 0 -88.5 0.234375 1 0 1
0 -33 108 226 0 -1 0 -88.515625 0.234375 1 0 1
plaster_plasterwall029a
0 -31 108 154 0 -1 0 -88.5 -0.328125 1 0 1
0 -33 108 226 0 -1 0 -88.515625 0.234375 1 0 1
0 -33 108 154 0 -1 0 -88.515625 -0.328125 1 0 1
plaster_plasterwall029a
0 -33 108 154 -1 0 0 91.28125 -0.328125 1 0 1
0 -33 108 226 -1 0 0 91.28125 0.234375 1 0 1
0 -33 112 226 -1 0 0 91.25 0.234375 1 0 1
plaster_plasterwall029a
0 -33 108 154 -1 0 0 91.28125 -0.328125 1 0 1
0 -33 112 226 -1 0 0 91.25 0.234375 1 0 1
0 -33 112 154 -1 0 0 91.25 -0.328125 1 0 1
plaster_plasterwall029a
0 -31 108 226 1 0 0 91.28125 0.234375 1 0 1
0 -31 108 154 1 0 0 91.28125 -0.328125 1 0 1
0 -31 112 154 1 0 0 91.25 -0.328125 1 0 1
plaster_plasterwall029a
0 -31 108 226 1 0 0 91.28125 0.234375 1 0 1
0 -31 112 154 1 0 0 91.25 -0.328125 1 0 1
0 -31 112 226 1 0 0 91.25 0.234375 1 0 1
plaster_plasterwall029a
0 -31 108 154 0 0 -1 91.28125 -87.5 1 0 1
0 -33 108 154 0 0 -1 91.28125 -87.515625 1 0 1
0 -33 112 154 0 0 -1 91.25 -87.515625 1 0 1
plaster_plasterwall029a
0 -31 108 154 0 0 -1 91.28125 -87.5 1 0 1
0 -33 112 154 0 0 -1 91.25 -87.515625 1 0 1
0 -31 112 154 0 0 -1 91.25 -87.5 1 0 1
plaster_plasterwall029a
0 -33 108 226 0 0 1 91.28125 -87.515625 1 0 1
0 -31 108 226 0 0 1 91.28125 -87.5 1 0 1
0 -31 112 226 0 0 1 91.25 -87.5 1 0 1
plaster_plasterwall029a
0 -33 108 226 0 0 1 91.28125 -87.515625 1 0 1
0 -31 112 226 0 0 1 91.25 -87.5 1 0 1
0 -33 112 226 0 0 1 91.25 -87.515625 1 0 1
wood_wooddoor032a
0 -79 104 0 1 0 0 181.203125 -2 1 0 1
0 -79 112 0 1 0 0 181.078125 -2 1 0 1
0 -79 112 107.997 1 0 0 181.078125 -1.156273 1 0 1
wood_wooddoor032a
0 -79 104 0 1 0 0 181.203125 -2 1 0 1
0 -79 112 107.997 1 0 0 181.078125 -1.156273 1 0 1
0 -79 104 107.997 1 0 0 181.203125 -1.156273 1 0 1
wood_wooddoor032a
0 -79 112 107.997 0 1 0 -177.953125 -1.156273 1 0 1
0 -79 112 0 0 1 0 -177.953125 -2 1 0 1
0 -82 112 0 0 1 0 -178 -2 1 0 1
wood_wooddoor032a
0 -79 112 107.997 0 1 0 -177.953125 -1.156273 1 0 1
0 -82 112 0 0 1 0 -178 -2 1 0 1
0 -82 112 110.997 0 1 0 -178 -1.132836 1 0 1
wood_wooddoor032a
0 -79 104 0 0 -1 0 -177.953125 -2 1 0 1
0 -79 104 107.997 0 -1 0 -177.953125 -1.156273 1 0 1
0 -82 104 110.997 0 -1 0 -178 -1.132836 1 0 1
wood_wooddoor032a
0 -79 104 0 0 -1 0 -177.953125 -2 1 0 1
0 -82 104 110.997 0 -1 0 -178 -1.132836 1 0 1
0 -82 104 0 0 -1 0 -178 -2 1 0 1
concrete_concreteceiling004a
0 -102 112 240 0 0.447214 -0.894427 91.25 -88.046875 1 0 1
0 -110 112 240 0 0.447214 -0.894427 91.25 -88.109375 1 0 1
0 -110 128 248 0 0.447214 -0.894427 91.125 -88.109375 1 0 1
concrete_concreteceiling004a
0 -102 112 240 0 0.447214 -0.894427 91.25 -88.046875 1 0 1
0 -110 128 248 0 0.447214 -0.894427 91.125 -88.109375 1 0 1
0 -102 128 248 0 0.447214 -0.894427 91.125 -88.046875 1 0 1
brick_brickwall053e
0 -102 128 248 0 1 0 -89.046875 0.6875 1 0 1
0 -110 128 248 0 1 0 -89.109375 0.6875 1 0 1
0 -110 128 256 0 1 0 -89.109375 0.75 1 0 1
brick_brickwall053e
0 -102 128 248 0 1 0 -89.046875 0.6875 1 0 1
0 -110 128 256 0 1 0 -89.109375 0.75 1 0 1
0 -102 128 256 0 1 0 -89.046875 0.75 1 0 1
brick_brickwall053e
0 -110 112 256 -1 0 0 91.25 0.75 1 0 1
0 -110 128 256 -1 0 0 91.125 0.75 1 0 1
0 -110 128 248 -1 0 0 91.125 0.6875 1 0 1
brick_brickwall053e
0 -110 112 256 -1 0 0 91.25 0.75 1 0 1
0 -110 128 248 -1 0 0 91.125 0.6875 1 0 1
0 -110 112 240 -1 0 0 91.25 0.625 1 0 1
brick_brickwall053e
0 -102 112 240 1 0 0 91.25 0.625 1 0 1
0 -102 128 248 1 0 0 91.125 0.6875 1 0 1
0 -102 128 256 1 0 0 91.125 0.75 1 0 1
brick_brickwall053e
0 -102 112 240 1 0 0 91.25 0.625 1 0 1
0 -102 128 256 1 0 0 91.125 0.75 1 0 1
0 -102 112 256 1 0 0 91.25 0.75 1 0 1
end
