version 1
nodes
0 "root" -1
end
skeleton
time 0
0 0 0 0 0 0 0
end
triangles
brick_brick_ext_08
0 -30 96 25 0 1 0 -100.816406 2.9375 1 0 1
0 -30 96 -87 0 1 0 -100.816406 2.0625 1 0 1
0 -38 96 -87 0 1 0 -100.878906 2.0625 1 0 1
brick_brick_ext_08
0 -30 96 25 0 1 0 -100.816406 2.9375 1 0 1
0 -38 96 -87 0 1 0 -100.878906 2.0625 1 0 1
0 -38 96 25 0 1 0 -100.878906 2.9375 1 0 1
brick_brick_ext_08
0 -38 46 -87 -1 0 0 25.402344 2.0625 1 0 1
0 -38 46 25 -1 0 0 25.402344 2.9375 1 0 1
0 -38 96 25 -1 0 0 25.011719 2.9375 1 0 1
brick_brick_ext_08
0 -38 46 -87 -1 0 0 25.402344 2.0625 1 0 1
0 -38 96 25 -1 0 0 25.011719 2.9375 1 0 1
0 -38 96 -87 -1 0 0 25.011719 2.0625 1 0 1
brick_brick_ext_08
0 -30 46 25 1 0 0 25.527344 2.9375 1 0 1
0 -30 46 -87 1 0 0 25.527344 2.0625 1 0 1
0 -30 96 -87 1 0 0 25.136719 2.0625 1 0 1
brick_brick_ext_08
0 -30 46 25 1 0 0 25.527344 2.9375 1 0 1
0 -30 96 -87 1 0 0 25.136719 2.0625 1 0 1
0 -30 96 25 1 0 0 25.136719 2.9375 1 0 1
brick_brick_ext_08
0 38 -46 -71 0 -1 0 -100.285156 2.1875 1 0 1
0 38 -46 -33 0 -1 0 -100.285156 2.484375 1 0 1
0 26 -46 -33 0 -1 0 -100.378906 2.484375 1 0 1
brick_brick_ext_08
0 38 -46 -71 0 -1 0 -100.285156 2.1875 1 0 1
0 26 -46 -33 0 -1 0 -100.378906 2.484375 1 0 1
0 26 -46 -71 0 -1 0 -100.378906 2.1875 1 0 1
brick_brick_ext_08
0 26 -46 -71 -1 0 0 -26.488281 2.1875 1 0 1
0 26 -46 -33 -1 0 0 -26.488281 2.484375 1 0 1
0 26 46 25 -1 0 0 -25.769531 2.9375 1 0 1
brick_brick_ext_08
0 26 -46 -71 -1 0 0 -26.488281 2.1875 1 0 1
0 26 46 25 -1 0 0 -25.769531 2.9375 1 0 1
0 26 46 -71 -1 0 0 -25.769531 2.1875 1 0 1
brick_brick_ext_08
0 38 -46 -33 1 0 0 -26.285156 2.484375 1 0 1
0 38 -46 -71 1 0 0 -26.285156 2.1875 1 0 1
0 38 46 -71 1 0 0 -25.566406 2.1875 1 0 1
brick_brick_ext_08
0 38 -46 -33 1 0 0 -26.285156 2.484375 1 0 1
0 38 46 -71 1 0 0 -25.566406 2.1875 1 0 1
0 38 46 25 1 0 0 -25.566406 2.9375 1 0 1
concrete_concretewall001a
0 38 -105 -71 1 0 0 27.109375 0.96875 1 0 1
0 38 -117 -71 1 0 0 27.203125 0.96875 1 0 1
0 38 -117 -92.987203 1 0 0 27.203125 1.140525 1 0 1
concrete_concretewall001a
0 38 -105 -71 1 0 0 27.109375 0.96875 1 0 1
0 38 -117 -92.987203 1 0 0 27.203125 1.140525 1 0 1
0 38 -105 -103.986982 1 0 0 27.109375 1.226461 1 0 1
concrete_concretewall001a
0 -116 -117 -71 0 0 1 101.40625 27.96875 1 0 1
0 38 -117 -71 0 0 1 100.203125 27.96875 1 0 1
0 38 -105 -71 0 0 1 100.203125 27.875 1 0 1
concrete_concretewall001a
0 -116 -117 -71 0 0 1 101.40625 27.96875 1 0 1
0 38 -105 -71 0 0 1 100.203125 27.875 1 0 1
0 -116 -105 -71 0 0 1 101.40625 27.875 1 0 1
concrete_concretewall001a
0 -116 -105 -103.986979 0 -0.675717 -0.737161 101.40625 -18.732155 1 0 1
0 38 -105 -103.986982 0 -0.675717 -0.737161 100.203125 -18.732155 1 0 1
0 38 -117 -92.987203 0 -0.675717 -0.737161 100.203125 -18.859335 1 0 1
concrete_concretewall001a
0 -116 -105 -103.986979 0 -0.675717 -0.737161 101.40625 -18.732155 1 0 1
0 38 -117 -92.987203 0 -0.675717 -0.737161 100.203125 -18.859335 1 0 1
0 -116 -117 -92.9872 0 -0.675717 -0.737161 101.40625 -18.859335 1 0 1
brick_brick_ext_08
0 38 -105 -71 0 1 0 -100.285156 2.1875 1 0 1
0 38 -105 -103.986982 0 1 0 -100.285156 1.929789 1 0 1
0 -116 -105 -103.986979 0 1 0 -101.488281 1.929789 1 0 1
brick_brick_ext_08
0 38 -105 -71 0 1 0 -100.285156 2.1875 1 0 1
0 -116 -105 -103.986979 0 1 0 -101.488281 1.929789 1 0 1
0 -116 -105 -71 0 1 0 -101.488281 2.1875 1 0 1
concrete_concretewall001a
0 38 -117 -92.987203 0 -1 0 100.203125 1.140525 1 0 1
0 38 -117 -71 0 -1 0 100.203125 0.96875 1 0 1
0 -116 -117 -71 0 -1 0 101.40625 0.96875 1 0 1
concrete_concretewall001a
0 38 -117 -92.987203 0 -1 0 100.203125 1.140525 1 0 1
0 -116 -117 -71 0 -1 0 101.40625 0.96875 1 0 1
0 -116 -117 -92.9872 0 -1 0 101.40625 1.140525 1 0 1
brick_brick_ext_08
0 38 46 25 1 0 0 -25.566406 2.9375 1 0 1
0 38 96 25 1 0 0 -25.175781 2.9375 1 0 1
0 38 96 33 1 0 0 -25.175781 3 1 0 1
brick_brick_ext_08
0 38 46 25 1 0 0 -25.566406 2.9375 1 0 1
0 38 96 33 1 0 0 -25.175781 3 1 0 1
0 38 46 33 1 0 0 -25.566406 3 1 0 1
concrete_concretewall001a
0 -38 96 25 0 0 -1 -41.30599 168.741536 1 0 1
0 38 96 25 0 0 -1 -41.30599 167.751953 1 0 1
0 38 46 25 0 0 -1 -41.957031 167.751953 1 0 1
concrete_concretewall001a
0 -38 96 25 0 0 -1 -41.30599 168.741536 1 0 1
0 38 46 25 0 0 -1 -41.957031 167.751953 1 0 1
0 -38 46 25 0 0 -1 -41.957031 168.741536 1 0 1
concrete_concretewall001a
0 -38 46 33 0 0 1 100.796875 26.695312 1 0 1
0 38 46 33 0 0 1 100.203125 26.695312 1 0 1
0 38 96 33 0 0 1 100.203125 26.304688 1 0 1
concrete_concretewall001a
0 -38 46 33 0 0 1 100.796875 26.695312 1 0 1
0 38 96 33 0 0 1 100.203125 26.304688 1 0 1
0 -38 96 33 0 0 1 100.796875 26.304688 1 0 1
brick_brick_ext_08
0 38 96 33 0 1 0 -100.285156 3 1 0 1
0 38 96 25 0 1 0 -100.285156 2.9375 1 0 1
0 -38 96 25 0 1 0 -100.878906 2.9375 1 0 1
brick_brick_ext_08
0 38 96 33 0 1 0 -100.285156 3 1 0 1
0 -38 96 25 0 1 0 -100.878906 2.9375 1 0 1
0 -38 96 33 0 1 0 -100.878906 3 1 0 1
brick_brick_ext_08
0 -38 46 33 -1 0 0 25.402344 3 1 0 1
0 -38 96 33 -1 0 0 25.011719 3 1 0 1
0 -38 96 25 -1 0 0 25.011719 2.9375 1 0 1
brick_brick_ext_08
0 -38 46 33 -1 0 0 25.402344 3 1 0 1
0 -38 96 25 -1 0 0 25.011719 2.9375 1 0 1
0 -38 46 25 -1 0 0 25.402344 2.9375 1 0 1
concrete_concretewall001a
0 -26 96 21.006 0 1 0 -167.731771 2.833411 1 0 1
0 -26 96 -87 0 1 0 -167.731771 1.427083 1 0 1
0 -30 96 -87 0 1 0 -167.783854 1.427083 1 0 1
concrete_concretewall001a
0 -26 96 21.006 0 1 0 -167.731771 2.833411 1 0 1
0 -30 96 -87 0 1 0 -167.783854 1.427083 1 0 1
0 -30 96 25.006 0 1 0 -167.783854 2.885495 1 0 1
concrete_concretewall001a
0 -26 87 -87 0 -1 0 167.749349 1.427083 1 0 1
0 -26 87 21.006 0 -1 0 167.749349 2.833411 1 0 1
0 -30 87 25.006 0 -1 0 167.801432 2.885495 1 0 1
concrete_concretewall001a
0 -26 87 -87 0 -1 0 167.749349 1.427083 1 0 1
0 -30 87 25.006 0 -1 0 167.801432 2.885495 1 0 1
0 -30 87 -87 0 -1 0 167.801432 1.427083 1 0 1
concrete_concretewall001a
0 -26 87 21.006 1 0 0 42.067708 2.833411 1 0 1
0 -26 87 -87 1 0 0 42.067708 1.427083 1 0 1
0 -26 96 -87 1 0 0 41.950521 1.427083 1 0 1
concrete_concretewall001a
0 -26 87 21.006 1 0 0 42.067708 2.833411 1 0 1
0 -26 96 -87 1 0 0 41.950521 1.427083 1 0 1
0 -26 96 21.006 1 0 0 41.950521 2.833411 1 0 1
concrete_concretewall001a
0 -220 -13 -71 0 0 1 102.21875 27.15625 1 0 1
0 -116 -117 -71 0 0 1 101.40625 27.96875 1 0 1
0 -116 -105 -71 0 0 1 101.40625 27.875 1 0 1
concrete_concretewall001a
0 -220 -13 -71 0 0 1 102.21875 27.15625 1 0 1
0 -116 -105 -71 0 0 1 101.40625 27.875 1 0 1
0 -208 -13 -71 0 0 1 102.125 27.15625 1 0 1
concrete_concretewall001a
0 -116 -117 -93.0008 -0.559953 -0.559857 -0.610747 52.408491 -53.859454 1 0 1
0 -220 -13 -92.9844 -0.559953 -0.559857 -0.610747 53.55761 -53.859636 1 0 1
0 -208 -13 -103.986403 -0.559953 -0.559857 -0.610747 53.49132 -53.751088 1 0 1
concrete_concretewall001a
0 -116 -117 -93.0008 -0.559953 -0.559857 -0.610747 52.408491 -53.859454 1 0 1
0 -208 -13 -103.986403 -0.559953 -0.559857 -0.610747 53.49132 -53.751088 1 0 1
0 -116 -105 -104.000911 -0.559953 -0.559857 -0.610747 52.474791 -53.750926 1 0 1
concrete_concretewall001a
0 -116 -117 -71 -0.707107 -0.707107 0 52.405258 0.96875 1 0 1
0 -220 -13 -71 -0.707107 -0.707107 0 53.554295 0.96875 1 0 1
0 -220 -13 -92.9844 -0.707107 -0.707107 0 53.554295 1.140503 1 0 1
concrete_concretewall001a
0 -116 -117 -71 -0.707107 -0.707107 0 52.405258 0.96875 1 0 1
0 -220 -13 -92.9844 -0.707107 -0.707107 0 53.554295 1.140503 1 0 1
0 -116 -117 -93.0008 -0.707107 -0.707107 0 52.405258 1.140631 1 0 1
brick_brick_ext_08
0 -116 -105 -104.000911 0.707107 0.707107 0 -52.487173 1.92968 1 0 1
0 -208 -13 -103.986403 0.707107 0.707107 0 -53.50363 1.929794 1 0 1
0 -208 -13 -71 0.707107 0.707107 0 -53.50363 2.1875 1 0 1
brick_brick_ext_08
0 -116 -105 -104.000911 0.707107 0.707107 0 -52.487173 1.92968 1 0 1
0 -208 -13 -71 0.707107 0.707107 0 -53.50363 2.1875 1 0 1
0 -116 -105 -71 0.707107 0.707107 0 -52.487173 2.1875 1 0 1
brick_brick_ext_08
0 38 -46 -33 0 -1 0 -100.285156 2.484375 1 0 1
0 38 -46 -25 0 -1 0 -100.285156 2.546875 1 0 1
0 -38 -46 -25 0 -1 0 -100.878906 2.546875 1 0 1
brick_brick_ext_08
0 38 -46 -33 0 -1 0 -100.285156 2.484375 1 0 1
0 -38 -46 -25 0 -1 0 -100.878906 2.546875 1 0 1
0 -38 -46 -33 0 -1 0 -100.878906 2.484375 1 0 1
brick_brick_ext_08
0 -38 -46 -33 -1 0 0 26.121094 2.484375 1 0 1
0 -38 -46 -25 -1 0 0 26.121094 2.546875 1 0 1
0 -38 46 33 -1 0 0 25.402344 3 1 0 1
brick_brick_ext_08
0 -38 -46 -33 -1 0 0 26.121094 2.484375 1 0 1
0 -38 46 33 -1 0 0 25.402344 3 1 0 1
0 -38 46 25 -1 0 0 25.402344 2.9375 1 0 1
brick_brick_ext_08
0 38 -46 -25 1 0 0 -26.285156 2.546875 1 0 1
0 38 -46 -33 1 0 0 -26.285156 2.484375 1 0 1
0 38 46 25 1 0 0 -25.566406 2.9375 1 0 1
brick_brick_ext_08
0 38 -46 -25 1 0 0 -26.285156 2.546875 1 0 1
0 38 46 25 1 0 0 -25.566406 2.9375 1 0 1
0 38 46 33 1 0 0 -25.566406 3 1 0 1
concrete_concretewall001a
0 38 -46 -33 0 0.533301 -0.845926 -36.372135 167.751953 1 0 1
0 -38 -46 -33 0 0.533301 -0.845926 -36.372135 168.741536 1 0 1
0 -38 46 25 0 0.533301 -0.845926 -34.956065 168.741536 1 0 1
concrete_concretewall001a
0 38 -46 -33 0 0.533301 -0.845926 -36.372135 167.751953 1 0 1
0 -38 46 25 0 0.533301 -0.845926 -34.956065 168.741536 1 0 1
0 38 46 25 0 0.533301 -0.845926 -34.956065 167.751953 1 0 1
concrete_concretewall001a
0 -38 -46 -25 0 -0.533301 0.845926 100.796875 22.544247 1 0 1
0 38 -46 -25 0 -0.533301 0.845926 100.203125 22.544247 1 0 1
0 38 46 33 0 -0.533301 0.845926 100.203125 21.694605 1 0 1
concrete_concretewall001a
0 -38 -46 -25 0 -0.533301 0.845926 100.796875 22.544247 1 0 1
0 38 46 33 0 -0.533301 0.845926 100.203125 21.694605 1 0 1
0 -38 46 33 0 -0.533301 0.845926 100.796875 21.694605 1 0 1
brick_brick_ext_08
0 26 -105 -87 -1 0 0 27.082031 2.0625 1 0 1
0 26 -105 -71 -1 0 0 27.082031 2.1875 1 0 1
0 26 -46 -71 -1 0 0 26.621094 2.1875 1 0 1
brick_brick_ext_08
0 26 -105 -87 -1 0 0 27.082031 2.0625 1 0 1
0 26 -46 -71 -1 0 0 26.621094 2.1875 1 0 1
0 26 -46 -87 -1 0 0 26.621094 2.0625 1 0 1
brick_brick_ext_08
0 38 -105 -71 1 0 0 -26.746094 2.1875 1 0 1
0 38 -105 -87 1 0 0 -26.746094 2.0625 1 0 1
0 38 -46 -87 1 0 0 -26.285156 2.0625 1 0 1
brick_brick_ext_08
0 38 -105 -71 1 0 0 -26.746094 2.1875 1 0 1
0 38 -46 -87 1 0 0 -26.285156 2.0625 1 0 1
0 38 -46 -71 1 0 0 -26.285156 2.1875 1 0 1
concrete_concretewall001a
0 26 -105 -71 0 0 1 100.296875 27.875 1 0 1
0 38 -105 -71 0 0 1 100.203125 27.875 1 0 1
0 38 -46 -71 0 0 1 100.203125 27.414062 1 0 1
concrete_concretewall001a
0 26 -105 -71 0 0 1 100.296875 27.875 1 0 1
0 38 -46 -71 0 0 1 100.203125 27.414062 1 0 1
0 26 -46 -71 0 0 1 100.296875 27.414062 1 0 1
brick_brick_ext_08
0 26 96 -87 0 1 0 99.917969 2.0625 1 0 1
0 26 96 -71 0 1 0 99.917969 2.1875 1 0 1
0 38 96 -71 0 1 0 99.824219 2.1875 1 0 1
brick_brick_ext_08
0 26 96 -87 0 1 0 99.917969 2.0625 1 0 1
0 38 96 -71 0 1 0 99.824219 2.1875 1 0 1
0 38 96 -87 0 1 0 99.824219 2.0625 1 0 1
brick_brick_ext_08
0 26 -46 -87 -1 0 0 -26.488281 2.0625 1 0 1
0 26 -46 -71 -1 0 0 -26.488281 2.1875 1 0 1
0 26 96 -71 -1 0 0 -25.378906 2.1875 1 0 1
brick_brick_ext_08
0 26 -46 -87 -1 0 0 -26.488281 2.0625 1 0 1
0 26 96 -71 -1 0 0 -25.378906 2.1875 1 0 1
0 26 96 -87 -1 0 0 -25.378906 2.0625 1 0 1
brick_brick_ext_08
0 38 96 -87 1 0 0 -25.175781 2.0625 1 0 1
0 38 96 -71 1 0 0 -25.175781 2.1875 1 0 1
0 38 -46 -71 1 0 0 -26.285156 2.1875 1 0 1
brick_brick_ext_08
0 38 96 -87 1 0 0 -25.175781 2.0625 1 0 1
0 38 -46 -71 1 0 0 -26.285156 2.1875 1 0 1
0 38 -46 -87 1 0 0 -26.285156 2.0625 1 0 1
brick_brick_ext_08
0 38 96 25 0 1 0 -100.285156 2.9375 1 0 1
0 38 96 -71 0 1 0 -100.285156 2.1875 1 0 1
0 26 96 -71 0 1 0 -100.378906 2.1875 1 0 1
brick_brick_ext_08
0 38 96 25 0 1 0 -100.285156 2.9375 1 0 1
0 26 96 -71 0 1 0 -100.378906 2.1875 1 0 1
0 26 96 25 0 1 0 -100.378906 2.9375 1 0 1
brick_brick_ext_08
0 26 46 -71 -1 0 0 -25.769531 2.1875 1 0 1
0 26 46 25 -1 0 0 -25.769531 2.9375 1 0 1
0 26 96 25 -1 0 0 -25.378906 2.9375 1 0 1
brick_brick_ext_08
0 26 46 -71 -1 0 0 -25.769531 2.1875 1 0 1
0 26 96 25 -1 0 0 -25.378906 2.9375 1 0 1
0 26 96 -71 -1 0 0 -25.378906 2.1875 1 0 1
brick_brick_ext_08
0 38 46 25 1 0 0 -25.566406 2.9375 1 0 1
0 38 46 -71 1 0 0 -25.566406 2.1875 1 0 1
0 38 96 -71 1 0 0 -25.175781 2.1875 1 0 1
brick_brick_ext_08
0 38 46 25 1 0 0 -25.566406 2.9375 1 0 1
0 38 96 -71 1 0 0 -25.175781 2.1875 1 0 1
0 38 96 25 1 0 0 -25.175781 2.9375 1 0 1
brick_brick_ext_08
0 -30 -46 -87 0 -1 0 -100.816406 2.0625 1 0 1
0 -30 -46 -33 0 -1 0 -100.816406 2.484375 1 0 1
0 -38 -46 -33 0 -1 0 -100.878906 2.484375 1 0 1
brick_brick_ext_08
0 -30 -46 -87 0 -1 0 -100.816406 2.0625 1 0 1
0 -38 -46 -33 0 -1 0 -100.878906 2.484375 1 0 1
0 -38 -46 -87 0 -1 0 -100.878906 2.0625 1 0 1
brick_brick_ext_08
0 -38 -46 -87 -1 0 0 26.121094 2.0625 1 0 1
0 -38 -46 -33 -1 0 0 26.121094 2.484375 1 0 1
0 -38 46 25 -1 0 0 25.402344 2.9375 1 0 1
brick_brick_ext_08
0 -38 -46 -87 -1 0 0 26.121094 2.0625 1 0 1
0 -38 46 25 -1 0 0 25.402344 2.9375 1 0 1
0 -38 46 -87 -1 0 0 25.402344 2.0625 1 0 1
brick_brick_ext_08
0 -30 46 -87 1 0 0 25.527344 2.0625 1 0 1
0 -30 46 25 1 0 0 25.527344 2.9375 1 0 1
0 -30 -46 -33 1 0 0 26.246094 2.484375 1 0 1
brick_brick_ext_08
0 -30 46 -87 1 0 0 25.527344 2.0625 1 0 1
0 -30 -46 -33 1 0 0 26.246094 2.484375 1 0 1
0 -30 -46 -87 1 0 0 26.246094 2.0625 1 0 1
brick_brick_ext_08
0 26 -38 -27.9595 0 1 0 -100.378906 2.523754 1 0 1
0 26 -38 -87 0 1 0 -100.378906 2.0625 1 0 1
0 -30 -38 -87 0 1 0 -100.816406 2.0625 1 0 1
brick_brick_ext_08
0 26 -38 -27.9595 0 1 0 -100.378906 2.523754 1 0 1
0 -30 -38 -87 0 1 0 -100.816406 2.0625 1 0 1
0 -30 -38 -27.9595 0 1 0 -100.816406 2.523754 1 0 1
brick_brick_ext_08
0 26 -46 -87 0 -1 0 -100.378906 2.0625 1 0 1
0 26 -46 -32.9999 0 -1 0 -100.378906 2.484376 1 0 1
0 -30 -46 -32.9999 0 -1 0 -100.816406 2.484376 1 0 1
brick_brick_ext_08
0 26 -46 -87 0 -1 0 -100.378906 2.0625 1 0 1
0 -30 -46 -32.9999 0 -1 0 -100.816406 2.484376 1 0 1
0 -30 -46 -87 0 -1 0 -100.816406 2.0625 1 0 1
concrete_concretewall001a
0 26 96 24.995 0 1 0 -167.054688 2.885352 1 0 1
0 26 96 -87 0 1 0 -167.054688 1.427083 1 0 1
0 22 96 -87 0 1 0 -167.106771 1.427083 1 0 1
concrete_concretewall001a
0 26 96 24.995 0 1 0 -167.054688 2.885352 1 0 1
0 22 96 -87 0 1 0 -167.106771 1.427083 1 0 1
0 22 96 20.995 0 1 0 -167.106771 2.833268 1 0 1
concrete_concretewall001a
0 26 87 -87 0 -1 0 167.072266 1.427083 1 0 1
0 26 87 24.995 0 -1 0 167.072266 2.885352 1 0 1
0 22 87 20.995 0 -1 0 167.124349 2.833268 1 0 1
concrete_concretewall001a
0 26 87 -87 0 -1 0 167.072266 1.427083 1 0 1
0 22 87 20.995 0 -1 0 167.124349 2.833268 1 0 1
0 22 87 -87 0 -1 0 167.124349 1.427083 1 0 1
concrete_concretewall001a
0 22 87 -87 -1 0 0 42.067708 1.427083 1 0 1
0 22 87 20.995 -1 0 0 42.067708 2.833268 1 0 1
0 22 96 20.995 -1 0 0 41.950521 2.833268 1 0 1
concrete_concretewall001a
0 22 87 -87 -1 0 0 42.067708 1.427083 1 0 1
0 22 96 20.995 -1 0 0 41.950521 2.833268 1 0 1
0 22 96 -87 -1 0 0 41.950521 1.427083 1 0 1
concrete_concretewall001a
0 -208 -13 -103.999466 -0.675723 0 -0.737155 -25.445312 -73.737205 1 0 1
0 -220 -13 -92.9995 -0.675723 0 -0.737155 -25.445312 -73.864385 1 0 1
0 -220 342 -92.9995 -0.675723 0 -0.737155 -22.671875 -73.864385 1 0 1
concrete_concretewall001a
0 -208 -13 -103.999466 -0.675723 0 -0.737155 -25.445312 -73.737205 1 0 1
0 -220 342 -92.9995 -0.675723 0 -0.737155 -22.671875 -73.864385 1 0 1
0 -208 342 -103.999466 -0.675723 0 -0.737155 -22.671875 -73.737205 1 0 1
concrete_concretewall001a
0 -208 342 -71 0 1 0 -101.578125 0.96875 1 0 1
0 -208 342 -103.999466 0 1 0 -101.578125 1.226558 1 0 1
0 -220 342 -92.9995 0 1 0 -101.671875 1.140621 1 0 1
concrete_concretewall001a
0 -208 342 -71 0 1 0 -101.578125 0.96875 1 0 1
0 -220 342 -92.9995 0 1 0 -101.671875 1.140621 1 0 1
0 -220 342 -71 0 1 0 -101.671875 0.96875 1 0 1
concrete_concretewall001a
0 -220 342 -71 -1 0 0 -22.671875 0.96875 1 0 1
0 -220 342 -92.9995 -1 0 0 -22.671875 1.140621 1 0 1
0 -220 -13 -92.9995 -1 0 0 -25.445312 1.140621 1 0 1
concrete_concretewall001a
0 -220 342 -71 -1 0 0 -22.671875 0.96875 1 0 1
0 -220 -13 -92.9995 -1 0 0 -25.445312 1.140621 1 0 1
0 -220 -13 -71 -1 0 0 -25.445312 0.96875 1 0 1
brick_brick_ext_08
0 -208 -13 -71 1 0 0 25.496094 2.1875 1 0 1
0 -208 -13 -103.999466 1 0 0 25.496094 1.929692 1 0 1
0 -208 342 -103.999466 1 0 0 22.722656 1.929692 1 0 1
brick_brick_ext_08
0 -208 -13 -71 1 0 0 25.496094 2.1875 1 0 1
0 -208 342 -103.999466 1 0 0 22.722656 1.929692 1 0 1
0 -208 342 -71 1 0 0 22.722656 2.1875 1 0 1
concrete_concretewall001a
0 -208 342 -71 0 0 1 102.125 24.382812 1 0 1
0 -220 342 -71 0 0 1 102.21875 24.382812 1 0 1
0 -220 -13 -71 0 0 1 102.21875 27.15625 1 0 1
concrete_concretewall001a
0 -208 342 -71 0 0 1 102.125 24.382812 1 0 1
0 -220 -13 -71 0 0 1 102.21875 27.15625 1 0 1
0 -208 -13 -71 0 0 1 102.125 27.15625 1 0 1
concrete_concretewall001a
0 22 96 21 0 1 0 -167.106771 2.833333 1 0 1
0 -26 96 21 0 1 0 -167.731771 2.833333 1 0 1
0 -30 96 25 0 1 0 -167.783854 2.885417 1 0 1
concrete_concretewall001a
0 22 96 21 0 1 0 -167.106771 2.833333 1 0 1
0 -30 96 25 0 1 0 -167.783854 2.885417 1 0 1
0 26 96 25 0 1 0 -167.054688 2.885417 1 0 1
concrete_concretewall001a
0 26 87 25 0 -1 0 167.072266 2.885417 1 0 1
0 -30 87 25 0 -1 0 167.801432 2.885417 1 0 1
0 -26 87 21 0 -1 0 167.749349 2.833333 1 0 1
concrete_concretewall001a
0 26 87 25 0 -1 0 167.072266 2.885417 1 0 1
0 -26 87 21 0 -1 0 167.749349 2.833333 1 0 1
0 22 87 21 0 -1 0 167.124349 2.833333 1 0 1
concrete_concretewall001a
0 22 87 21 0 0 -1 42.067708 -166.223958 1 0 1
0 -26 87 21 0 0 -1 42.067708 -166.848958 1 0 1
0 -26 96 21 0 0 -1 41.950521 -166.848958 1 0 1
concrete_concretewall001a
0 22 87 21 0 0 -1 42.067708 -166.223958 1 0 1
0 -26 96 21 0 0 -1 41.950521 -166.848958 1 0 1
0 22 96 21 0 0 -1 41.950521 -166.223958 1 0 1
end
