version 1
nodes
0 "root" -1
end
skeleton
time 0
0 0 0 0 0 0 0
end
triangles
phys
0 65 444 -146 0 0 1 1 0 1 0 1
0 65 444 -138 0 0 1 1 0 1 0 1
0 -65 444 -138 0 0 1 1 0 1 0 1
phys
0 65 444 -146 0 0 1 1 0 1 0 1
0 -65 444 -138 0 0 1 1 0 1 0 1
0 -65 444 -146 0 0 1 1 0 1 0 1
phys
0 -65 444 -146 0 0 1 1 0 1 0 1
0 -65 444 -138 0 0 1 1 0 1 0 1
0 -65 456 -138 0 0 1 1 0 1 0 1
phys
0 65 444 -138 0 0 1 1 0 1 0 1
0 65 444 -146 0 0 1 1 0 1 0 1
0 65 456 -138 0 0 1 1 0 1 0 1
phys
0 -65 444 -138 0 0 1 1 0 1 0 1
0 65 444 -138 0 0 1 1 0 1 0 1
0 65 456 -138 0 0 1 1 0 1 0 1
phys
0 -65 444 -138 0 0 1 1 0 1 0 1
0 65 456 -138 0 0 1 1 0 1 0 1
0 -65 456 -138 0 0 1 1 0 1 0 1
phys
0 65 444 -146 0 0 1 1 0 1 0 1
0 -65 444 -146 0 0 1 1 0 1 0 1
0 -65 456 -138 0 0 1 1 0 1 0 1
phys
0 65 444 -146 0 0 1 1 0 1 0 1
0 -65 456 -138 0 0 1 1 0 1 0 1
0 65 456 -138 0 0 1 1 0 1 0 1
phys
0 -65 408 -162 0 0 1 2 0 1 0 1
0 65 408 -162 0 0 1 2 0 1 0 1
0 65 420 -162 0 0 1 2 0 1 0 1
phys
0 -65 408 -162 0 0 1 2 0 1 0 1
0 65 420 -162 0 0 1 2 0 1 0 1
0 -65 420 -162 0 0 1 2 0 1 0 1
phys
0 65 408 -170 0 0 1 2 0 1 0 1
0 -65 408 -170 0 0 1 2 0 1 0 1
0 -65 420 -162 0 0 1 2 0 1 0 1
phys
0 65 408 -170 0 0 1 2 0 1 0 1
0 -65 420 -162 0 0 1 2 0 1 0 1
0 65 420 -162 0 0 1 2 0 1 0 1
phys
0 65 408 -162 0 0 1 2 0 1 0 1
0 -65 408 -162 0 0 1 2 0 1 0 1
0 -65 408 -170 0 0 1 2 0 1 0 1
phys
0 65 408 -162 0 0 1 2 0 1 0 1
0 -65 408 -170 0 0 1 2 0 1 0 1
0 65 408 -170 0 0 1 2 0 1 0 1
phys
0 -65 408 -162 0 0 1 2 0 1 0 1
0 -65 420 -162 0 0 1 2 0 1 0 1
0 -65 408 -170 0 0 1 2 0 1 0 1
phys
0 65 408 -170 0 0 1 2 0 1 0 1
0 65 420 -162 0 0 1 2 0 1 0 1
0 65 408 -162 0 0 1 2 0 1 0 1
phys
0 65 384 -186 0 0 1 3 0 1 0 1
0 65 396 -178 0 0 1 3 0 1 0 1
0 65 384 -178 0 0 1 3 0 1 0 1
phys
0 -65 384 -178 0 0 1 3 0 1 0 1
0 65 384 -178 0 0 1 3 0 1 0 1
0 65 396 -178 0 0 1 3 0 1 0 1
phys
0 -65 384 -178 0 0 1 3 0 1 0 1
0 65 396 -178 0 0 1 3 0 1 0 1
0 -65 396 -178 0 0 1 3 0 1 0 1
phys
0 -65 396 -178 0 0 1 3 0 1 0 1
0 65 396 -178 0 0 1 3 0 1 0 1
0 65 384 -186 0 0 1 3 0 1 0 1
phys
0 -65 396 -178 0 0 1 3 0 1 0 1
0 65 384 -186 0 0 1 3 0 1 0 1
0 -65 384 -186 0 0 1 3 0 1 0 1
phys
0 65 384 -186 0 0 1 3 0 1 0 1
0 65 384 -178 0 0 1 3 0 1 0 1
0 -65 384 -178 0 0 1 3 0 1 0 1
phys
0 65 384 -186 0 0 1 3 0 1 0 1
0 -65 384 -178 0 0 1 3 0 1 0 1
0 -65 384 -186 0 0 1 3 0 1 0 1
phys
0 -65 384 -178 0 0 1 3 0 1 0 1
0 -65 396 -178 0 0 1 3 0 1 0 1
0 -65 384 -186 0 0 1 3 0 1 0 1
phys
0 65 76 -258 0 0 1 4 0 1 0 1
0 65 88 -250 0 0 1 4 0 1 0 1
0 65 76 -250 0 0 1 4 0 1 0 1
phys
0 -65 76 -250 0 0 1 4 0 1 0 1
0 65 76 -250 0 0 1 4 0 1 0 1
0 65 88 -250 0 0 1 4 0 1 0 1
phys
0 -65 76 -250 0 0 1 4 0 1 0 1
0 65 88 -250 0 0 1 4 0 1 0 1
0 -65 88 -250 0 0 1 4 0 1 0 1
phys
0 -65 88 -250 0 0 1 4 0 1 0 1
0 65 88 -250 0 0 1 4 0 1 0 1
0 65 76 -258 0 0 1 4 0 1 0 1
phys
0 -65 88 -250 0 0 1 4 0 1 0 1
0 65 76 -258 0 0 1 4 0 1 0 1
0 -65 76 -258 0 0 1 4 0 1 0 1
phys
0 65 76 -258 0 0 1 4 0 1 0 1
0 65 76 -250 0 0 1 4 0 1 0 1
0 -65 76 -250 0 0 1 4 0 1 0 1
phys
0 65 76 -258 0 0 1 4 0 1 0 1
0 -65 76 -250 0 0 1 4 0 1 0 1
0 -65 76 -258 0 0 1 4 0 1 0 1
phys
0 -65 76 -250 0 0 1 4 0 1 0 1
0 -65 88 -250 0 0 1 4 0 1 0 1
0 -65 76 -258 0 0 1 4 0 1 0 1
phys
0 65 16 -298 0 0 1 5 0 1 0 1
0 65 16 -290 0 0 1 5 0 1 0 1
0 -65 16 -290 0 0 1 5 0 1 0 1
phys
0 65 16 -298 0 0 1 5 0 1 0 1
0 -65 16 -290 0 0 1 5 0 1 0 1
0 -65 16 -298 0 0 1 5 0 1 0 1
phys
0 -65 16 -298 0 0 1 5 0 1 0 1
0 -65 16 -290 0 0 1 5 0 1 0 1
0 -65 28 -290 0 0 1 5 0 1 0 1
phys
0 65 16 -290 0 0 1 5 0 1 0 1
0 65 16 -298 0 0 1 5 0 1 0 1
0 65 28 -290 0 0 1 5 0 1 0 1
phys
0 -65 16 -290 0 0 1 5 0 1 0 1
0 65 16 -290 0 0 1 5 0 1 0 1
0 65 28 -290 0 0 1 5 0 1 0 1
phys
0 -65 16 -290 0 0 1 5 0 1 0 1
0 65 28 -290 0 0 1 5 0 1 0 1
0 -65 28 -290 0 0 1 5 0 1 0 1
phys
0 65 16 -298 0 0 1 5 0 1 0 1
0 -65 16 -298 0 0 1 5 0 1 0 1
0 -65 28 -290 0 0 1 5 0 1 0 1
phys
0 65 16 -298 0 0 1 5 0 1 0 1
0 -65 28 -290 0 0 1 5 0 1 0 1
0 65 28 -290 0 0 1 5 0 1 0 1
phys
0 65 112 -234 0 0 1 6 0 1 0 1
0 65 112 -226 0 0 1 6 0 1 0 1
0 -65 112 -226 0 0 1 6 0 1 0 1
phys
0 65 112 -234 0 0 1 6 0 1 0 1
0 -65 112 -226 0 0 1 6 0 1 0 1
0 -65 112 -234 0 0 1 6 0 1 0 1
phys
0 -65 112 -234 0 0 1 6 0 1 0 1
0 -65 112 -226 0 0 1 6 0 1 0 1
0 -65 124 -226 0 0 1 6 0 1 0 1
phys
0 65 112 -226 0 0 1 6 0 1 0 1
0 65 112 -234 0 0 1 6 0 1 0 1
0 65 124 -226 0 0 1 6 0 1 0 1
phys
0 -65 112 -226 0 0 1 6 0 1 0 1
0 65 112 -226 0 0 1 6 0 1 0 1
0 65 124 -226 0 0 1 6 0 1 0 1
phys
0 -65 112 -226 0 0 1 6 0 1 0 1
0 65 124 -226 0 0 1 6 0 1 0 1
0 -65 124 -226 0 0 1 6 0 1 0 1
phys
0 65 112 -234 0 0 1 6 0 1 0 1
0 -65 112 -234 0 0 1 6 0 1 0 1
0 -65 124 -226 0 0 1 6 0 1 0 1
phys
0 65 112 -234 0 0 1 6 0 1 0 1
0 -65 124 -226 0 0 1 6 0 1 0 1
0 65 124 -226 0 0 1 6 0 1 0 1
phys
0 -65 -32 -322 0 0 1 7 0 1 0 1
0 65 -32 -322 0 0 1 7 0 1 0 1
0 65 -20 -322 0 0 1 7 0 1 0 1
phys
0 -65 -32 -322 0 0 1 7 0 1 0 1
0 65 -20 -322 0 0 1 7 0 1 0 1
0 -65 -20 -322 0 0 1 7 0 1 0 1
phys
0 65 -32 -330 0 0 1 7 0 1 0 1
0 -65 -32 -330 0 0 1 7 0 1 0 1
0 -65 -20 -322 0 0 1 7 0 1 0 1
phys
0 65 -32 -330 0 0 1 7 0 1 0 1
0 -65 -20 -322 0 0 1 7 0 1 0 1
0 65 -20 -322 0 0 1 7 0 1 0 1
phys
0 65 -32 -322 0 0 1 7 0 1 0 1
0 -65 -32 -322 0 0 1 7 0 1 0 1
0 -65 -32 -330 0 0 1 7 0 1 0 1
phys
0 65 -32 -322 0 0 1 7 0 1 0 1
0 -65 -32 -330 0 0 1 7 0 1 0 1
0 65 -32 -330 0 0 1 7 0 1 0 1
phys
0 -65 -32 -322 0 0 1 7 0 1 0 1
0 -65 -20 -322 0 0 1 7 0 1 0 1
0 -65 -32 -330 0 0 1 7 0 1 0 1
phys
0 65 -32 -330 0 0 1 7 0 1 0 1
0 65 -20 -322 0 0 1 7 0 1 0 1
0 65 -32 -322 0 0 1 7 0 1 0 1
phys
0 65 136 -218 0 0 1 8 0 1 0 1
0 65 136 -210 0 0 1 8 0 1 0 1
0 -65 136 -210 0 0 1 8 0 1 0 1
phys
0 65 136 -218 0 0 1 8 0 1 0 1
0 -65 136 -210 0 0 1 8 0 1 0 1
0 -65 136 -218 0 0 1 8 0 1 0 1
phys
0 -65 136 -218 0 0 1 8 0 1 0 1
0 -65 136 -210 0 0 1 8 0 1 0 1
0 -65 148 -210 0 0 1 8 0 1 0 1
phys
0 65 136 -210 0 0 1 8 0 1 0 1
0 65 136 -218 0 0 1 8 0 1 0 1
0 65 148 -210 0 0 1 8 0 1 0 1
phys
0 -65 136 -210 0 0 1 8 0 1 0 1
0 65 136 -210 0 0 1 8 0 1 0 1
0 65 148 -210 0 0 1 8 0 1 0 1
phys
0 -65 136 -210 0 0 1 8 0 1 0 1
0 65 148 -210 0 0 1 8 0 1 0 1
0 -65 148 -210 0 0 1 8 0 1 0 1
phys
0 65 136 -218 0 0 1 8 0 1 0 1
0 -65 136 -218 0 0 1 8 0 1 0 1
0 -65 148 -210 0 0 1 8 0 1 0 1
phys
0 65 136 -218 0 0 1 8 0 1 0 1
0 -65 148 -210 0 0 1 8 0 1 0 1
0 65 148 -210 0 0 1 8 0 1 0 1
phys
0 -65 -8 -306 0 0 1 9 0 1 0 1
0 -65 4 -306 0 0 1 9 0 1 0 1
0 -65 -8 -314 0 0 1 9 0 1 0 1
phys
0 65 -8 -314 0 0 1 9 0 1 0 1
0 65 4 -306 0 0 1 9 0 1 0 1
0 65 -8 -306 0 0 1 9 0 1 0 1
phys
0 65 -8 -306 0 0 1 9 0 1 0 1
0 65 4 -306 0 0 1 9 0 1 0 1
0 -65 4 -306 0 0 1 9 0 1 0 1
phys
0 65 -8 -306 0 0 1 9 0 1 0 1
0 -65 4 -306 0 0 1 9 0 1 0 1
0 -65 -8 -306 0 0 1 9 0 1 0 1
phys
0 -65 -8 -314 0 0 1 9 0 1 0 1
0 -65 4 -306 0 0 1 9 0 1 0 1
0 65 4 -306 0 0 1 9 0 1 0 1
phys
0 -65 -8 -314 0 0 1 9 0 1 0 1
0 65 4 -306 0 0 1 9 0 1 0 1
0 65 -8 -314 0 0 1 9 0 1 0 1
phys
0 65 -8 -314 0 0 1 9 0 1 0 1
0 65 -8 -306 0 0 1 9 0 1 0 1
0 -65 -8 -306 0 0 1 9 0 1 0 1
phys
0 65 -8 -314 0 0 1 9 0 1 0 1
0 -65 -8 -306 0 0 1 9 0 1 0 1
0 -65 -8 -314 0 0 1 9 0 1 0 1
phys
0 65 348 -210 0 0 1 10 0 1 0 1
0 65 348 -202 0 0 1 10 0 1 0 1
0 -65 348 -202 0 0 1 10 0 1 0 1
phys
0 65 348 -210 0 0 1 10 0 1 0 1
0 -65 348 -202 0 0 1 10 0 1 0 1
0 -65 348 -210 0 0 1 10 0 1 0 1
phys
0 -65 348 -210 0 0 1 10 0 1 0 1
0 -65 348 -202 0 0 1 10 0 1 0 1
0 -65 360 -202 0 0 1 10 0 1 0 1
phys
0 65 348 -202 0 0 1 10 0 1 0 1
0 65 348 -210 0 0 1 10 0 1 0 1
0 65 360 -202 0 0 1 10 0 1 0 1
phys
0 -65 348 -202 0 0 1 10 0 1 0 1
0 65 348 -202 0 0 1 10 0 1 0 1
0 65 360 -202 0 0 1 10 0 1 0 1
phys
0 -65 348 -202 0 0 1 10 0 1 0 1
0 65 360 -202 0 0 1 10 0 1 0 1
0 -65 360 -202 0 0 1 10 0 1 0 1
phys
0 65 348 -210 0 0 1 10 0 1 0 1
0 -65 348 -210 0 0 1 10 0 1 0 1
0 -65 360 -202 0 0 1 10 0 1 0 1
phys
0 65 348 -210 0 0 1 10 0 1 0 1
0 -65 360 -202 0 0 1 10 0 1 0 1
0 65 360 -202 0 0 1 10 0 1 0 1
phys
0 65 360 -202 0 0 1 11 0 1 0 1
0 -65 360 -202 0 0 1 11 0 1 0 1
0 -65 372 -194 0 0 1 11 0 1 0 1
phys
0 65 360 -202 0 0 1 11 0 1 0 1
0 -65 372 -194 0 0 1 11 0 1 0 1
0 65 372 -194 0 0 1 11 0 1 0 1
phys
0 -65 360 -194 0 0 1 11 0 1 0 1
0 -65 360 -202 0 0 1 11 0 1 0 1
0 65 360 -202 0 0 1 11 0 1 0 1
phys
0 -65 360 -194 0 0 1 11 0 1 0 1
0 65 360 -202 0 0 1 11 0 1 0 1
0 65 360 -194 0 0 1 11 0 1 0 1
phys
0 -65 372 -194 0 0 1 11 0 1 0 1
0 -65 360 -202 0 0 1 11 0 1 0 1
0 -65 360 -194 0 0 1 11 0 1 0 1
phys
0 65 360 -194 0 0 1 11 0 1 0 1
0 65 360 -202 0 0 1 11 0 1 0 1
0 65 372 -194 0 0 1 11 0 1 0 1
phys
0 -65 360 -194 0 0 1 11 0 1 0 1
0 65 360 -194 0 0 1 11 0 1 0 1
0 65 372 -194 0 0 1 11 0 1 0 1
phys
0 -65 360 -194 0 0 1 11 0 1 0 1
0 65 372 -194 0 0 1 11 0 1 0 1
0 -65 372 -194 0 0 1 11 0 1 0 1
phys
0 -65 52 -266 0 0 1 12 0 1 0 1
0 65 52 -266 0 0 1 12 0 1 0 1
0 65 64 -266 0 0 1 12 0 1 0 1
phys
0 -65 52 -266 0 0 1 12 0 1 0 1
0 65 64 -266 0 0 1 12 0 1 0 1
0 -65 64 -266 0 0 1 12 0 1 0 1
phys
0 65 52 -274 0 0 1 12 0 1 0 1
0 -65 52 -274 0 0 1 12 0 1 0 1
0 -65 64 -266 0 0 1 12 0 1 0 1
phys
0 65 52 -274 0 0 1 12 0 1 0 1
0 -65 64 -266 0 0 1 12 0 1 0 1
0 65 64 -266 0 0 1 12 0 1 0 1
phys
0 65 52 -266 0 0 1 12 0 1 0 1
0 -65 52 -266 0 0 1 12 0 1 0 1
0 -65 52 -274 0 0 1 12 0 1 0 1
phys
0 65 52 -266 0 0 1 12 0 1 0 1
0 -65 52 -274 0 0 1 12 0 1 0 1
0 65 52 -274 0 0 1 12 0 1 0 1
phys
0 -65 52 -266 0 0 1 12 0 1 0 1
0 -65 64 -266 0 0 1 12 0 1 0 1
0 -65 52 -274 0 0 1 12 0 1 0 1
phys
0 65 52 -274 0 0 1 12 0 1 0 1
0 65 64 -266 0 0 1 12 0 1 0 1
0 65 52 -266 0 0 1 12 0 1 0 1
phys
0 65 372 -194 0 0 1 13 0 1 0 1
0 65 372 -186 0 0 1 13 0 1 0 1
0 -65 372 -186 0 0 1 13 0 1 0 1
phys
0 65 372 -194 0 0 1 13 0 1 0 1
0 -65 372 -186 0 0 1 13 0 1 0 1
0 -65 372 -194 0 0 1 13 0 1 0 1
phys
0 -65 372 -194 0 0 1 13 0 1 0 1
0 -65 372 -186 0 0 1 13 0 1 0 1
0 -65 384 -186 0 0 1 13 0 1 0 1
phys
0 65 372 -186 0 0 1 13 0 1 0 1
0 65 372 -194 0 0 1 13 0 1 0 1
0 65 384 -186 0 0 1 13 0 1 0 1
phys
0 -65 372 -186 0 0 1 13 0 1 0 1
0 65 372 -186 0 0 1 13 0 1 0 1
0 65 384 -186 0 0 1 13 0 1 0 1
phys
0 -65 372 -186 0 0 1 13 0 1 0 1
0 65 384 -186 0 0 1 13 0 1 0 1
0 -65 384 -186 0 0 1 13 0 1 0 1
phys
0 65 372 -194 0 0 1 13 0 1 0 1
0 -65 372 -194 0 0 1 13 0 1 0 1
0 -65 384 -186 0 0 1 13 0 1 0 1
phys
0 65 372 -194 0 0 1 13 0 1 0 1
0 -65 384 -186 0 0 1 13 0 1 0 1
0 65 384 -186 0 0 1 13 0 1 0 1
phys
0 65 4 -306 0 0 1 14 0 1 0 1
0 65 4 -298 0 0 1 14 0 1 0 1
0 -65 4 -298 0 0 1 14 0 1 0 1
phys
0 65 4 -306 0 0 1 14 0 1 0 1
0 -65 4 -298 0 0 1 14 0 1 0 1
0 -65 4 -306 0 0 1 14 0 1 0 1
phys
0 -65 4 -306 0 0 1 14 0 1 0 1
0 -65 4 -298 0 0 1 14 0 1 0 1
0 -65 16 -298 0 0 1 14 0 1 0 1
phys
0 65 4 -298 0 0 1 14 0 1 0 1
0 65 4 -306 0 0 1 14 0 1 0 1
0 65 16 -298 0 0 1 14 0 1 0 1
phys
0 -65 4 -298 0 0 1 14 0 1 0 1
0 65 4 -298 0 0 1 14 0 1 0 1
0 65 16 -298 0 0 1 14 0 1 0 1
phys
0 -65 4 -298 0 0 1 14 0 1 0 1
0 65 16 -298 0 0 1 14 0 1 0 1
0 -65 16 -298 0 0 1 14 0 1 0 1
phys
0 65 4 -306 0 0 1 14 0 1 0 1
0 -65 4 -306 0 0 1 14 0 1 0 1
0 -65 16 -298 0 0 1 14 0 1 0 1
phys
0 65 4 -306 0 0 1 14 0 1 0 1
0 -65 16 -298 0 0 1 14 0 1 0 1
0 65 16 -298 0 0 1 14 0 1 0 1
phys
0 65 64 -266 0 0 1 15 0 1 0 1
0 65 64 -258 0 0 1 15 0 1 0 1
0 -65 64 -258 0 0 1 15 0 1 0 1
phys
0 65 64 -266 0 0 1 15 0 1 0 1
0 -65 64 -258 0 0 1 15 0 1 0 1
0 -65 64 -266 0 0 1 15 0 1 0 1
phys
0 -65 64 -266 0 0 1 15 0 1 0 1
0 -65 64 -258 0 0 1 15 0 1 0 1
0 -65 76 -258 0 0 1 15 0 1 0 1
phys
0 65 64 -258 0 0 1 15 0 1 0 1
0 65 64 -266 0 0 1 15 0 1 0 1
0 65 76 -258 0 0 1 15 0 1 0 1
phys
0 -65 64 -258 0 0 1 15 0 1 0 1
0 65 64 -258 0 0 1 15 0 1 0 1
0 65 76 -258 0 0 1 15 0 1 0 1
phys
0 -65 64 -258 0 0 1 15 0 1 0 1
0 65 76 -258 0 0 1 15 0 1 0 1
0 -65 76 -258 0 0 1 15 0 1 0 1
phys
0 65 64 -266 0 0 1 15 0 1 0 1
0 -65 64 -266 0 0 1 15 0 1 0 1
0 -65 76 -258 0 0 1 15 0 1 0 1
phys
0 65 64 -266 0 0 1 15 0 1 0 1
0 -65 76 -258 0 0 1 15 0 1 0 1
0 65 76 -258 0 0 1 15 0 1 0 1
phys
0 65 396 -178 0 0 1 16 0 1 0 1
0 65 396 -170 0 0 1 16 0 1 0 1
0 -65 396 -170 0 0 1 16 0 1 0 1
phys
0 65 396 -178 0 0 1 16 0 1 0 1
0 -65 396 -170 0 0 1 16 0 1 0 1
0 -65 396 -178 0 0 1 16 0 1 0 1
phys
0 -65 396 -178 0 0 1 16 0 1 0 1
0 -65 396 -170 0 0 1 16 0 1 0 1
0 -65 408 -170 0 0 1 16 0 1 0 1
phys
0 65 396 -170 0 0 1 16 0 1 0 1
0 65 396 -178 0 0 1 16 0 1 0 1
0 65 408 -170 0 0 1 16 0 1 0 1
phys
0 -65 396 -170 0 0 1 16 0 1 0 1
0 65 396 -170 0 0 1 16 0 1 0 1
0 65 408 -170 0 0 1 16 0 1 0 1
phys
0 -65 396 -170 0 0 1 16 0 1 0 1
0 65 408 -170 0 0 1 16 0 1 0 1
0 -65 408 -170 0 0 1 16 0 1 0 1
phys
0 65 396 -178 0 0 1 16 0 1 0 1
0 -65 396 -178 0 0 1 16 0 1 0 1
0 -65 408 -170 0 0 1 16 0 1 0 1
phys
0 65 396 -178 0 0 1 16 0 1 0 1
0 -65 408 -170 0 0 1 16 0 1 0 1
0 65 408 -170 0 0 1 16 0 1 0 1
phys
0 65 88 -250 0 0 1 17 0 1 0 1
0 65 88 -242 0 0 1 17 0 1 0 1
0 -65 88 -242 0 0 1 17 0 1 0 1
phys
0 65 88 -250 0 0 1 17 0 1 0 1
0 -65 88 -242 0 0 1 17 0 1 0 1
0 -65 88 -250 0 0 1 17 0 1 0 1
phys
0 -65 88 -250 0 0 1 17 0 1 0 1
0 -65 88 -242 0 0 1 17 0 1 0 1
0 -65 100 -242 0 0 1 17 0 1 0 1
phys
0 65 88 -242 0 0 1 17 0 1 0 1
0 65 88 -250 0 0 1 17 0 1 0 1
0 65 100 -242 0 0 1 17 0 1 0 1
phys
0 -65 88 -242 0 0 1 17 0 1 0 1
0 65 88 -242 0 0 1 17 0 1 0 1
0 65 100 -242 0 0 1 17 0 1 0 1
phys
0 -65 88 -242 0 0 1 17 0 1 0 1
0 65 100 -242 0 0 1 17 0 1 0 1
0 -65 100 -242 0 0 1 17 0 1 0 1
phys
0 65 88 -250 0 0 1 17 0 1 0 1
0 -65 88 -250 0 0 1 17 0 1 0 1
0 -65 100 -242 0 0 1 17 0 1 0 1
phys
0 65 88 -250 0 0 1 17 0 1 0 1
0 -65 100 -242 0 0 1 17 0 1 0 1
0 65 100 -242 0 0 1 17 0 1 0 1
phys
0 65 468 -130 0 0 1 18 0 1 0 1
0 65 468 -122 0 0 1 18 0 1 0 1
0 -65 468 -122 0 0 1 18 0 1 0 1
phys
0 65 468 -130 0 0 1 18 0 1 0 1
0 -65 468 -122 0 0 1 18 0 1 0 1
0 -65 468 -130 0 0 1 18 0 1 0 1
phys
0 -65 468 -130 0 0 1 18 0 1 0 1
0 -65 468 -122 0 0 1 18 0 1 0 1
0 -65 480 -122 0 0 1 18 0 1 0 1
phys
0 65 468 -122 0 0 1 18 0 1 0 1
0 65 468 -130 0 0 1 18 0 1 0 1
0 65 480 -122 0 0 1 18 0 1 0 1
phys
0 -65 468 -122 0 0 1 18 0 1 0 1
0 65 468 -122 0 0 1 18 0 1 0 1
0 65 480 -122 0 0 1 18 0 1 0 1
phys
0 -65 468 -122 0 0 1 18 0 1 0 1
0 65 480 -122 0 0 1 18 0 1 0 1
0 -65 480 -122 0 0 1 18 0 1 0 1
phys
0 65 468 -130 0 0 1 18 0 1 0 1
0 -65 468 -130 0 0 1 18 0 1 0 1
0 -65 480 -122 0 0 1 18 0 1 0 1
phys
0 65 468 -130 0 0 1 18 0 1 0 1
0 -65 480 -122 0 0 1 18 0 1 0 1
0 65 480 -122 0 0 1 18 0 1 0 1
phys
0 65 432 -154 0 0 1 19 0 1 0 1
0 65 444 -146 0 0 1 19 0 1 0 1
0 65 432 -146 0 0 1 19 0 1 0 1
phys
0 -65 432 -146 0 0 1 19 0 1 0 1
0 65 432 -146 0 0 1 19 0 1 0 1
0 65 444 -146 0 0 1 19 0 1 0 1
phys
0 -65 432 -146 0 0 1 19 0 1 0 1
0 65 444 -146 0 0 1 19 0 1 0 1
0 -65 444 -146 0 0 1 19 0 1 0 1
phys
0 -65 444 -146 0 0 1 19 0 1 0 1
0 65 444 -146 0 0 1 19 0 1 0 1
0 65 432 -154 0 0 1 19 0 1 0 1
phys
0 -65 444 -146 0 0 1 19 0 1 0 1
0 65 432 -154 0 0 1 19 0 1 0 1
0 -65 432 -154 0 0 1 19 0 1 0 1
phys
0 65 432 -154 0 0 1 19 0 1 0 1
0 65 432 -146 0 0 1 19 0 1 0 1
0 -65 432 -146 0 0 1 19 0 1 0 1
phys
0 65 432 -154 0 0 1 19 0 1 0 1
0 -65 432 -146 0 0 1 19 0 1 0 1
0 -65 432 -154 0 0 1 19 0 1 0 1
phys
0 -65 432 -146 0 0 1 19 0 1 0 1
0 -65 444 -146 0 0 1 19 0 1 0 1
0 -65 432 -154 0 0 1 19 0 1 0 1
phys
0 65 100 -242 0 0 1 20 0 1 0 1
0 65 100 -234 0 0 1 20 0 1 0 1
0 -65 100 -234 0 0 1 20 0 1 0 1
phys
0 65 100 -242 0 0 1 20 0 1 0 1
0 -65 100 -234 0 0 1 20 0 1 0 1
0 -65 100 -242 0 0 1 20 0 1 0 1
phys
0 -65 100 -242 0 0 1 20 0 1 0 1
0 -65 100 -234 0 0 1 20 0 1 0 1
0 -65 112 -234 0 0 1 20 0 1 0 1
phys
0 65 100 -234 0 0 1 20 0 1 0 1
0 65 100 -242 0 0 1 20 0 1 0 1
0 65 112 -234 0 0 1 20 0 1 0 1
phys
0 -65 100 -234 0 0 1 20 0 1 0 1
0 65 100 -234 0 0 1 20 0 1 0 1
0 65 112 -234 0 0 1 20 0 1 0 1
phys
0 -65 100 -234 0 0 1 20 0 1 0 1
0 65 112 -234 0 0 1 20 0 1 0 1
0 -65 112 -234 0 0 1 20 0 1 0 1
phys
0 65 100 -242 0 0 1 20 0 1 0 1
0 -65 100 -242 0 0 1 20 0 1 0 1
0 -65 112 -234 0 0 1 20 0 1 0 1
phys
0 65 100 -242 0 0 1 20 0 1 0 1
0 -65 112 -234 0 0 1 20 0 1 0 1
0 65 112 -234 0 0 1 20 0 1 0 1
phys
0 65 456 -138 0 0 1 21 0 1 0 1
0 65 468 -130 0 0 1 21 0 1 0 1
0 65 456 -130 0 0 1 21 0 1 0 1
phys
0 -65 456 -130 0 0 1 21 0 1 0 1
0 65 456 -130 0 0 1 21 0 1 0 1
0 65 468 -130 0 0 1 21 0 1 0 1
phys
0 -65 456 -130 0 0 1 21 0 1 0 1
0 65 468 -130 0 0 1 21 0 1 0 1
0 -65 468 -130 0 0 1 21 0 1 0 1
phys
0 -65 468 -130 0 0 1 21 0 1 0 1
0 65 468 -130 0 0 1 21 0 1 0 1
0 65 456 -138 0 0 1 21 0 1 0 1
phys
0 -65 468 -130 0 0 1 21 0 1 0 1
0 65 456 -138 0 0 1 21 0 1 0 1
0 -65 456 -138 0 0 1 21 0 1 0 1
phys
0 65 456 -138 0 0 1 21 0 1 0 1
0 65 456 -130 0 0 1 21 0 1 0 1
0 -65 456 -130 0 0 1 21 0 1 0 1
phys
0 65 456 -138 0 0 1 21 0 1 0 1
0 -65 456 -130 0 0 1 21 0 1 0 1
0 -65 456 -138 0 0 1 21 0 1 0 1
phys
0 -65 456 -130 0 0 1 21 0 1 0 1
0 -65 468 -130 0 0 1 21 0 1 0 1
0 -65 456 -138 0 0 1 21 0 1 0 1
phys
0 65 420 -162 0 0 1 22 0 1 0 1
0 65 420 -154 0 0 1 22 0 1 0 1
0 -65 420 -154 0 0 1 22 0 1 0 1
phys
0 65 420 -162 0 0 1 22 0 1 0 1
0 -65 420 -154 0 0 1 22 0 1 0 1
0 -65 420 -162 0 0 1 22 0 1 0 1
phys
0 -65 420 -162 0 0 1 22 0 1 0 1
0 -65 420 -154 0 0 1 22 0 1 0 1
0 -65 432 -154 0 0 1 22 0 1 0 1
phys
0 65 420 -154 0 0 1 22 0 1 0 1
0 65 420 -162 0 0 1 22 0 1 0 1
0 65 432 -154 0 0 1 22 0 1 0 1
phys
0 -65 420 -154 0 0 1 22 0 1 0 1
0 65 420 -154 0 0 1 22 0 1 0 1
0 65 432 -154 0 0 1 22 0 1 0 1
phys
0 -65 420 -154 0 0 1 22 0 1 0 1
0 65 432 -154 0 0 1 22 0 1 0 1
0 -65 432 -154 0 0 1 22 0 1 0 1
phys
0 65 420 -162 0 0 1 22 0 1 0 1
0 -65 420 -162 0 0 1 22 0 1 0 1
0 -65 432 -154 0 0 1 22 0 1 0 1
phys
0 65 420 -162 0 0 1 22 0 1 0 1
0 -65 432 -154 0 0 1 22 0 1 0 1
0 65 432 -154 0 0 1 22 0 1 0 1
phys
0 65 124 -226 0 0 1 23 0 1 0 1
0 65 124 -218 0 0 1 23 0 1 0 1
0 -65 124 -218 0 0 1 23 0 1 0 1
phys
0 65 124 -226 0 0 1 23 0 1 0 1
0 -65 124 -218 0 0 1 23 0 1 0 1
0 -65 124 -226 0 0 1 23 0 1 0 1
phys
0 -65 124 -226 0 0 1 23 0 1 0 1
0 -65 124 -218 0 0 1 23 0 1 0 1
0 -65 136 -218 0 0 1 23 0 1 0 1
phys
0 65 124 -218 0 0 1 23 0 1 0 1
0 65 124 -226 0 0 1 23 0 1 0 1
0 65 136 -218 0 0 1 23 0 1 0 1
phys
0 -65 124 -218 0 0 1 23 0 1 0 1
0 65 124 -218 0 0 1 23 0 1 0 1
0 65 136 -218 0 0 1 23 0 1 0 1
phys
0 -65 124 -218 0 0 1 23 0 1 0 1
0 65 136 -218 0 0 1 23 0 1 0 1
0 -65 136 -218 0 0 1 23 0 1 0 1
phys
0 65 124 -226 0 0 1 23 0 1 0 1
0 -65 124 -226 0 0 1 23 0 1 0 1
0 -65 136 -218 0 0 1 23 0 1 0 1
phys
0 65 124 -226 0 0 1 23 0 1 0 1
0 -65 136 -218 0 0 1 23 0 1 0 1
0 65 136 -218 0 0 1 23 0 1 0 1
phys
0 65 348 -210 0 0 1 24 0 1 0 1
0 65 348 -215 0 0 1 24 0 1 0 1
0 -65 348 -215 0 0 1 24 0 1 0 1
phys
0 65 348 -210 0 0 1 24 0 1 0 1
0 -65 348 -215 0 0 1 24 0 1 0 1
0 -65 348 -210 0 0 1 24 0 1 0 1
phys
0 65 148 -215 0 0 1 24 0 1 0 1
0 65 148 -210 0 0 1 24 0 1 0 1
0 -65 148 -210 0 0 1 24 0 1 0 1
phys
0 65 148 -215 0 0 1 24 0 1 0 1
0 -65 148 -210 0 0 1 24 0 1 0 1
0 -65 148 -215 0 0 1 24 0 1 0 1
phys
0 -65 148 -215 0 0 1 24 0 1 0 1
0 -65 148 -210 0 0 1 24 0 1 0 1
0 -65 348 -210 0 0 1 24 0 1 0 1
phys
0 -65 148 -215 0 0 1 24 0 1 0 1
0 -65 348 -210 0 0 1 24 0 1 0 1
0 -65 348 -215 0 0 1 24 0 1 0 1
phys
0 65 148 -210 0 0 1 24 0 1 0 1
0 65 148 -215 0 0 1 24 0 1 0 1
0 65 348 -215 0 0 1 24 0 1 0 1
phys
0 65 148 -210 0 0 1 24 0 1 0 1
0 65 348 -215 0 0 1 24 0 1 0 1
0 65 348 -210 0 0 1 24 0 1 0 1
phys
0 65 148 -215 0 0 1 24 0 1 0 1
0 -65 148 -215 0 0 1 24 0 1 0 1
0 -65 348 -215 0 0 1 24 0 1 0 1
phys
0 65 148 -215 0 0 1 24 0 1 0 1
0 -65 348 -215 0 0 1 24 0 1 0 1
0 65 348 -215 0 0 1 24 0 1 0 1
phys
0 -65 148 -210 0 0 1 24 0 1 0 1
0 65 148 -210 0 0 1 24 0 1 0 1
0 65 348 -210 0 0 1 24 0 1 0 1
phys
0 -65 148 -210 0 0 1 24 0 1 0 1
0 65 348 -210 0 0 1 24 0 1 0 1
0 -65 348 -210 0 0 1 24 0 1 0 1
phys
0 65 28 -290 0 0 1 25 0 1 0 1
0 65 28 -282 0 0 1 25 0 1 0 1
0 -65 28 -282 0 0 1 25 0 1 0 1
phys
0 65 28 -290 0 0 1 25 0 1 0 1
0 -65 28 -282 0 0 1 25 0 1 0 1
0 -65 28 -290 0 0 1 25 0 1 0 1
phys
0 -65 28 -290 0 0 1 25 0 1 0 1
0 -65 28 -282 0 0 1 25 0 1 0 1
0 -65 40 -282 0 0 1 25 0 1 0 1
phys
0 65 28 -282 0 0 1 25 0 1 0 1
0 65 28 -290 0 0 1 25 0 1 0 1
0 65 40 -282 0 0 1 25 0 1 0 1
phys
0 -65 28 -282 0 0 1 25 0 1 0 1
0 65 28 -282 0 0 1 25 0 1 0 1
0 65 40 -282 0 0 1 25 0 1 0 1
phys
0 -65 28 -282 0 0 1 25 0 1 0 1
0 65 40 -282 0 0 1 25 0 1 0 1
0 -65 40 -282 0 0 1 25 0 1 0 1
phys
0 65 28 -290 0 0 1 25 0 1 0 1
0 -65 28 -290 0 0 1 25 0 1 0 1
0 -65 40 -282 0 0 1 25 0 1 0 1
phys
0 65 28 -290 0 0 1 25 0 1 0 1
0 -65 40 -282 0 0 1 25 0 1 0 1
0 65 40 -282 0 0 1 25 0 1 0 1
phys
0 -65 -147 76 0 0 1 26 0 1 0 1
0 -65 148 76 0 0 1 26 0 1 0 1
0 -65 148 35.99998 0 0 1 26 0 1 0 1
phys
0 -65 -147 76 0 0 1 26 0 1 0 1
0 -65 148 35.99998 0 0 1 26 0 1 0 1
0 -65 -91.15 -75 0 0 1 26 0 1 0 1
phys
0 -65 -147 76 0 0 1 26 0 1 0 1
0 -65 -91.15 -75 0 0 1 26 0 1 0 1
0 -65 -147 -75 0 0 1 26 0 1 0 1
phys
0 65 -147 -75 0 0 1 26 0 1 0 1
0 65 -91.15 -75 0 0 1 26 0 1 0 1
0 65 148 35.99998 0 0 1 26 0 1 0 1
phys
0 65 -147 -75 0 0 1 26 0 1 0 1
0 65 148 35.99998 0 0 1 26 0 1 0 1
0 65 148 76 0 0 1 26 0 1 0 1
phys
0 65 -147 -75 0 0 1 26 0 1 0 1
0 65 148 76 0 0 1 26 0 1 0 1
0 65 -147 76 0 0 1 26 0 1 0 1
phys
0 -65 -147 -75 0 0 1 26 0 1 0 1
0 -65 -91.15 -75 0 0 1 26 0 1 0 1
0 65 -91.15 -75 0 0 1 26 0 1 0 1
phys
0 -65 -147 -75 0 0 1 26 0 1 0 1
0 65 -91.15 -75 0 0 1 26 0 1 0 1
0 65 -147 -75 0 0 1 26 0 1 0 1
phys
0 65 -147 76 0 0 1 26 0 1 0 1
0 65 148 76 0 0 1 26 0 1 0 1
0 -65 148 76 0 0 1 26 0 1 0 1
phys
0 65 -147 76 0 0 1 26 0 1 0 1
0 -65 148 76 0 0 1 26 0 1 0 1
0 -65 -147 76 0 0 1 26 0 1 0 1
phys
0 -65 -91.15 -75 0 0 1 26 0 1 0 1
0 -65 148 35.99998 0 0 1 26 0 1 0 1
0 65 148 35.99998 0 0 1 26 0 1 0 1
phys
0 -65 -91.15 -75 0 0 1 26 0 1 0 1
0 65 148 35.99998 0 0 1 26 0 1 0 1
0 65 -91.15 -75 0 0 1 26 0 1 0 1
phys
0 65 148 76 0 0 1 26 0 1 0 1
0 65 148 35.99998 0 0 1 26 0 1 0 1
0 -65 148 35.99998 0 0 1 26 0 1 0 1
phys
0 65 148 76 0 0 1 26 0 1 0 1
0 -65 148 35.99998 0 0 1 26 0 1 0 1
0 -65 148 76 0 0 1 26 0 1 0 1
phys
0 65 -147 -75 0 0 1 26 0 1 0 1
0 65 -147 76 0 0 1 26 0 1 0 1
0 -65 -147 76 0 0 1 26 0 1 0 1
phys
0 65 -147 -75 0 0 1 26 0 1 0 1
0 -65 -147 76 0 0 1 26 0 1 0 1
0 -65 -147 -75 0 0 1 26 0 1 0 1
phys
0 65 -20 -322 0 0 1 27 0 1 0 1
0 65 -20 -314 0 0 1 27 0 1 0 1
0 -65 -20 -314 0 0 1 27 0 1 0 1
phys
0 65 -20 -322 0 0 1 27 0 1 0 1
0 -65 -20 -314 0 0 1 27 0 1 0 1
0 -65 -20 -322 0 0 1 27 0 1 0 1
phys
0 -65 -20 -322 0 0 1 27 0 1 0 1
0 -65 -20 -314 0 0 1 27 0 1 0 1
0 -65 -8 -314 0 0 1 27 0 1 0 1
phys
0 65 -20 -314 0 0 1 27 0 1 0 1
0 65 -20 -322 0 0 1 27 0 1 0 1
0 65 -8 -314 0 0 1 27 0 1 0 1
phys
0 -65 -20 -314 0 0 1 27 0 1 0 1
0 65 -20 -314 0 0 1 27 0 1 0 1
0 65 -8 -314 0 0 1 27 0 1 0 1
phys
0 -65 -20 -314 0 0 1 27 0 1 0 1
0 65 -8 -314 0 0 1 27 0 1 0 1
0 -65 -8 -314 0 0 1 27 0 1 0 1
phys
0 65 -20 -322 0 0 1 27 0 1 0 1
0 -65 -20 -322 0 0 1 27 0 1 0 1
0 -65 -8 -314 0 0 1 27 0 1 0 1
phys
0 65 -20 -322 0 0 1 27 0 1 0 1
0 -65 -8 -314 0 0 1 27 0 1 0 1
0 65 -8 -314 0 0 1 27 0 1 0 1
phys
0 65 40 -282 0 0 1 28 0 1 0 1
0 65 40 -274 0 0 1 28 0 1 0 1
0 -65 40 -274 0 0 1 28 0 1 0 1
phys
0 65 40 -282 0 0 1 28 0 1 0 1
0 -65 40 -274 0 0 1 28 0 1 0 1
0 -65 40 -282 0 0 1 28 0 1 0 1
phys
0 -65 40 -282 0 0 1 28 0 1 0 1
0 -65 40 -274 0 0 1 28 0 1 0 1
0 -65 52 -274 0 0 1 28 0 1 0 1
phys
0 65 40 -274 0 0 1 28 0 1 0 1
0 65 40 -282 0 0 1 28 0 1 0 1
0 65 52 -274 0 0 1 28 0 1 0 1
phys
0 -65 40 -274 0 0 1 28 0 1 0 1
0 65 40 -274 0 0 1 28 0 1 0 1
0 65 52 -274 0 0 1 28 0 1 0 1
phys
0 -65 40 -274 0 0 1 28 0 1 0 1
0 65 52 -274 0 0 1 28 0 1 0 1
0 -65 52 -274 0 0 1 28 0 1 0 1
phys
0 65 40 -282 0 0 1 28 0 1 0 1
0 -65 40 -282 0 0 1 28 0 1 0 1
0 -65 52 -274 0 0 1 28 0 1 0 1
phys
0 65 40 -282 0 0 1 28 0 1 0 1
0 -65 52 -274 0 0 1 28 0 1 0 1
0 65 52 -274 0 0 1 28 0 1 0 1
end
