version 1
nodes
0 "root" -1
end
skeleton
time 0
0 0 0 0 0 0 0
end
triangles
pepsi2_arch_concrete_stair01
0 65 444 -146 0 -1 0 -93.070312 0 1 0 1
0 65 444 -138 0 -1 0 -93.070312 0.0625 1 0 1
0 -65 444 -138 0 -1 0 -94.085938 0.0625 1 0 1
pepsi2_arch_concrete_stair01
0 65 444 -146 0 -1 0 -93.070312 0 1 0 1
0 -65 444 -138 0 -1 0 -94.085938 0.0625 1 0 1
0 -65 444 -146 0 -1 0 -94.085938 0 1 0 1
pepsi2_arch_concrete_stair01
0 -65 444 -138 0 0 1 -94.085938 8.0625 1 0 1
0 65 444 -138 0 0 1 -93.070312 8.0625 1 0 1
0 65 456 -138 0 0 1 -93.070312 8.15625 1 0 1
pepsi2_arch_concrete_stair01
0 -65 444 -138 0 0 1 -94.085938 8.0625 1 0 1
0 65 456 -138 0 0 1 -93.070312 8.15625 1 0 1
0 -65 456 -138 0 0 1 -94.085938 8.15625 1 0 1
pepsi2_arch_concrete_stair01
0 -65 408 -162 0 0 1 -94.085938 8.0625 1 0 1
0 65 408 -162 0 0 1 -93.070312 8.0625 1 0 1
0 65 420 -162 0 0 1 -93.070312 8.15625 1 0 1
pepsi2_arch_concrete_stair01
0 -65 408 -162 0 0 1 -94.085938 8.0625 1 0 1
0 65 420 -162 0 0 1 -93.070312 8.15625 1 0 1
0 -65 420 -162 0 0 1 -94.085938 8.15625 1 0 1
pepsi2_arch_concrete_stair01
0 65 408 -162 0 -1 0 -93.070312 0.0625 1 0 1
0 -65 408 -162 0 -1 0 -94.085938 0.0625 1 0 1
0 -65 408 -170 0 -1 0 -94.085938 0 1 0 1
pepsi2_arch_concrete_stair01
0 65 408 -162 0 -1 0 -93.070312 0.0625 1 0 1
0 -65 408 -170 0 -1 0 -94.085938 0 1 0 1
0 65 408 -170 0 -1 0 -93.070312 0 1 0 1
pepsi2_arch_concrete_stair01
0 -65 384 -178 0 0 1 -94.085938 8.0625 1 0 1
0 65 384 -178 0 0 1 -93.070312 8.0625 1 0 1
0 65 396 -178 0 0 1 -93.070312 8.15625 1 0 1
pepsi2_arch_concrete_stair01
0 -65 384 -178 0 0 1 -94.085938 8.0625 1 0 1
0 65 396 -178 0 0 1 -93.070312 8.15625 1 0 1
0 -65 396 -178 0 0 1 -94.085938 8.15625 1 0 1
pepsi2_arch_concrete_stair01
0 65 384 -186 0 -1 0 -93.070312 0 1 0 1
0 65 384 -178 0 -1 0 -93.070312 0.0625 1 0 1
0 -65 384 -178 0 -1 0 -94.085938 0.0625 1 0 1
pepsi2_arch_concrete_stair01
0 65 384 -186 0 -1 0 -93.070312 0 1 0 1
0 -65 384 -178 0 -1 0 -94.085938 0.0625 1 0 1
0 -65 384 -186 0 -1 0 -94.085938 0 1 0 1
pepsi2_arch_concrete_stair01
0 -65 76 -250 0 0 1 -94.085938 5.0625 1 0 1
0 65 76 -250 0 0 1 -93.070312 5.0625 1 0 1
0 65 88 -250 0 0 1 -93.070312 5.15625 1 0 1
pepsi2_arch_concrete_stair01
0 -65 76 -250 0 0 1 -94.085938 5.0625 1 0 1
0 65 88 -250 0 0 1 -93.070312 5.15625 1 0 1
0 -65 88 -250 0 0 1 -94.085938 5.15625 1 0 1
pepsi2_arch_concrete_stair01
0 65 76 -258 0 -1 0 -93.070312 -1 1 0 1
0 65 76 -250 0 -1 0 -93.070312 -0.9375 1 0 1
0 -65 76 -250 0 -1 0 -94.085938 -0.9375 1 0 1
pepsi2_arch_concrete_stair01
0 65 76 -258 0 -1 0 -93.070312 -1 1 0 1
0 -65 76 -250 0 -1 0 -94.085938 -0.9375 1 0 1
0 -65 76 -258 0 -1 0 -94.085938 -1 1 0 1
pepsi2_arch_concrete_stair01
0 65 16 -298 0 -1 0 -93.070312 -1 1 0 1
0 65 16 -290 0 -1 0 -93.070312 -0.9375 1 0 1
0 -65 16 -290 0 -1 0 -94.085938 -0.9375 1 0 1
pepsi2_arch_concrete_stair01
0 65 16 -298 0 -1 0 -93.070312 -1 1 0 1
0 -65 16 -290 0 -1 0 -94.085938 -0.9375 1 0 1
0 -65 16 -298 0 -1 0 -94.085938 -1 1 0 1
pepsi2_arch_concrete_stair01
0 -65 16 -290 0 0 1 -94.085938 5.0625 1 0 1
0 65 16 -290 0 0 1 -93.070312 5.0625 1 0 1
0 65 28 -290 0 0 1 -93.070312 5.15625 1 0 1
pepsi2_arch_concrete_stair01
0 -65 16 -290 0 0 1 -94.085938 5.0625 1 0 1
0 65 28 -290 0 0 1 -93.070312 5.15625 1 0 1
0 -65 28 -290 0 0 1 -94.085938 5.15625 1 0 1
pepsi2_arch_concrete_stair01
0 65 112 -234 0 -1 0 -93.070312 -1 1 0 1
0 65 112 -226 0 -1 0 -93.070312 -0.9375 1 0 1
0 -65 112 -226 0 -1 0 -94.085938 -0.9375 1 0 1
pepsi2_arch_concrete_stair01
0 65 112 -234 0 -1 0 -93.070312 -1 1 0 1
0 -65 112 -226 0 -1 0 -94.085938 -0.9375 1 0 1
0 -65 112 -234 0 -1 0 -94.085938 -1 1 0 1
pepsi2_arch_concrete_stair01
0 -65 112 -226 0 0 1 -94.085938 6.0625 1 0 1
0 65 112 -226 0 0 1 -93.070312 6.0625 1 0 1
0 65 124 -226 0 0 1 -93.070312 6.15625 1 0 1
pepsi2_arch_concrete_stair01
0 -65 112 -226 0 0 1 -94.085938 6.0625 1 0 1
0 65 124 -226 0 0 1 -93.070312 6.15625 1 0 1
0 -65 124 -226 0 0 1 -94.085938 6.15625 1 0 1
pepsi2_arch_concrete_stair01
0 -65 -32 -322 0 0 1 -94.085938 4.0625 1 0 1
0 65 -32 -322 0 0 1 -93.070312 4.0625 1 0 1
0 65 -20 -322 0 0 1 -93.070312 4.15625 1 0 1
pepsi2_arch_concrete_stair01
0 -65 -32 -322 0 0 1 -94.085938 4.0625 1 0 1
0 65 -20 -322 0 0 1 -93.070312 4.15625 1 0 1
0 -65 -20 -322 0 0 1 -94.085938 4.15625 1 0 1
pepsi2_arch_concrete_stair01
0 65 -32 -322 0 -1 0 -93.070312 -0.9375 1 0 1
0 -65 -32 -322 0 -1 0 -94.085938 -0.9375 1 0 1
0 -65 -32 -330 0 -1 0 -94.085938 -1 1 0 1
pepsi2_arch_concrete_stair01
0 65 -32 -322 0 -1 0 -93.070312 -0.9375 1 0 1
0 -65 -32 -330 0 -1 0 -94.085938 -1 1 0 1
0 65 -32 -330 0 -1 0 -93.070312 -1 1 0 1
pepsi2_arch_concrete_stair01
0 65 136 -218 0 -1 0 -93.070312 0 1 0 1
0 65 136 -210 0 -1 0 -93.070312 0.0625 1 0 1
0 -65 136 -210 0 -1 0 -94.085938 0.0625 1 0 1
pepsi2_arch_concrete_stair01
0 65 136 -218 0 -1 0 -93.070312 0 1 0 1
0 -65 136 -210 0 -1 0 -94.085938 0.0625 1 0 1
0 -65 136 -218 0 -1 0 -94.085938 0 1 0 1
pepsi2_arch_concrete_stair01
0 -65 136 -210 0 0 1 -94.085938 6.0625 1 0 1
0 65 136 -210 0 0 1 -93.070312 6.0625 1 0 1
0 65 148 -210 0 0 1 -93.070312 6.15625 1 0 1
pepsi2_arch_concrete_stair01
0 -65 136 -210 0 0 1 -94.085938 6.0625 1 0 1
0 65 148 -210 0 0 1 -93.070312 6.15625 1 0 1
0 -65 148 -210 0 0 1 -94.085938 6.15625 1 0 1
pepsi2_arch_concrete_stair01
0 65 -8 -306 0 0 1 -93.070312 5.0625 1 0 1
0 65 4 -306 0 0 1 -93.070312 5.15625 1 0 1
0 -65 4 -306 0 0 1 -94.085938 5.15625 1 0 1
pepsi2_arch_concrete_stair01
0 65 -8 -306 0 0 1 -93.070312 5.0625 1 0 1
0 -65 4 -306 0 0 1 -94.085938 5.15625 1 0 1
0 -65 -8 -306 0 0 1 -94.085938 5.0625 1 0 1
pepsi2_arch_concrete_stair01
0 65 -8 -314 0 -1 0 -93.070312 -1 1 0 1
0 65 -8 -306 0 -1 0 -93.070312 -0.9375 1 0 1
0 -65 -8 -306 0 -1 0 -94.085938 -0.9375 1 0 1
pepsi2_arch_concrete_stair01
0 65 -8 -314 0 -1 0 -93.070312 -1 1 0 1
0 -65 -8 -306 0 -1 0 -94.085938 -0.9375 1 0 1
0 -65 -8 -314 0 -1 0 -94.085938 -1 1 0 1
pepsi2_arch_concrete_stair01
0 65 348 -210 0 -1 0 -93.070312 0 1 0 1
0 65 348 -202 0 -1 0 -93.070312 0.0625 1 0 1
0 -65 348 -202 0 -1 0 -94.085938 0.0625 1 0 1
pepsi2_arch_concrete_stair01
0 65 348 -210 0 -1 0 -93.070312 0 1 0 1
0 -65 348 -202 0 -1 0 -94.085938 0.0625 1 0 1
0 -65 348 -210 0 -1 0 -94.085938 0 1 0 1
pepsi2_arch_concrete_stair01
0 -65 348 -202 0 0 1 -94.085938 7.0625 1 0 1
0 65 348 -202 0 0 1 -93.070312 7.0625 1 0 1
0 65 360 -202 0 0 1 -93.070312 7.15625 1 0 1
pepsi2_arch_concrete_stair01
0 -65 348 -202 0 0 1 -94.085938 7.0625 1 0 1
0 65 360 -202 0 0 1 -93.070312 7.15625 1 0 1
0 -65 360 -202 0 0 1 -94.085938 7.15625 1 0 1
pepsi2_arch_concrete_stair01
0 -65 360 -194 0 -1 0 -94.085938 0.0625 1 0 1
0 -65 360 -202 0 -1 0 -94.085938 0 1 0 1
0 65 360 -202 0 -1 0 -93.070312 0 1 0 1
pepsi2_arch_concrete_stair01
0 -65 360 -194 0 -1 0 -94.085938 0.0625 1 0 1
0 65 360 -202 0 -1 0 -93.070312 0 1 0 1
0 65 360 -194 0 -1 0 -93.070312 0.0625 1 0 1
pepsi2_arch_concrete_stair01
0 -65 360 -194 0 0 1 -94.085938 7.0625 1 0 1
0 65 360 -194 0 0 1 -93.070312 7.0625 1 0 1
0 65 372 -194 0 0 1 -93.070312 7.15625 1 0 1
pepsi2_arch_concrete_stair01
0 -65 360 -194 0 0 1 -94.085938 7.0625 1 0 1
0 65 372 -194 0 0 1 -93.070312 7.15625 1 0 1
0 -65 372 -194 0 0 1 -94.085938 7.15625 1 0 1
pepsi2_arch_concrete_stair01
0 -65 52 -266 0 0 1 -94.085938 5.0625 1 0 1
0 65 52 -266 0 0 1 -93.070312 5.0625 1 0 1
0 65 64 -266 0 0 1 -93.070312 5.15625 1 0 1
pepsi2_arch_concrete_stair01
0 -65 52 -266 0 0 1 -94.085938 5.0625 1 0 1
0 65 64 -266 0 0 1 -93.070312 5.15625 1 0 1
0 -65 64 -266 0 0 1 -94.085938 5.15625 1 0 1
pepsi2_arch_concrete_stair01
0 65 52 -266 0 -1 0 -93.070312 -0.9375 1 0 1
0 -65 52 -266 0 -1 0 -94.085938 -0.9375 1 0 1
0 -65 52 -274 0 -1 0 -94.085938 -1 1 0 1
pepsi2_arch_concrete_stair01
0 65 52 -266 0 -1 0 -93.070312 -0.9375 1 0 1
0 -65 52 -274 0 -1 0 -94.085938 -1 1 0 1
0 65 52 -274 0 -1 0 -93.070312 -1 1 0 1
pepsi2_arch_concrete_stair01
0 65 372 -194 0 -1 0 -93.070312 0 1 0 1
0 65 372 -186 0 -1 0 -93.070312 0.0625 1 0 1
0 -65 372 -186 0 -1 0 -94.085938 0.0625 1 0 1
pepsi2_arch_concrete_stair01
0 65 372 -194 0 -1 0 -93.070312 0 1 0 1
0 -65 372 -186 0 -1 0 -94.085938 0.0625 1 0 1
0 -65 372 -194 0 -1 0 -94.085938 0 1 0 1
pepsi2_arch_concrete_stair01
0 -65 372 -186 0 0 1 -94.085938 8.0625 1 0 1
0 65 372 -186 0 0 1 -93.070312 8.0625 1 0 1
0 65 384 -186 0 0 1 -93.070312 8.15625 1 0 1
pepsi2_arch_concrete_stair01
0 -65 372 -186 0 0 1 -94.085938 8.0625 1 0 1
0 65 384 -186 0 0 1 -93.070312 8.15625 1 0 1
0 -65 384 -186 0 0 1 -94.085938 8.15625 1 0 1
pepsi2_arch_concrete_stair01
0 65 4 -306 0 -1 0 -93.070312 -1 1 0 1
0 65 4 -298 0 -1 0 -93.070312 -0.9375 1 0 1
0 -65 4 -298 0 -1 0 -94.085938 -0.9375 1 0 1
pepsi2_arch_concrete_stair01
0 65 4 -306 0 -1 0 -93.070312 -1 1 0 1
0 -65 4 -298 0 -1 0 -94.085938 -0.9375 1 0 1
0 -65 4 -306 0 -1 0 -94.085938 -1 1 0 1
pepsi2_arch_concrete_stair01
0 -65 4 -298 0 0 1 -94.085938 5.0625 1 0 1
0 65 4 -298 0 0 1 -93.070312 5.0625 1 0 1
0 65 16 -298 0 0 1 -93.070312 5.15625 1 0 1
pepsi2_arch_concrete_stair01
0 -65 4 -298 0 0 1 -94.085938 5.0625 1 0 1
0 65 16 -298 0 0 1 -93.070312 5.15625 1 0 1
0 -65 16 -298 0 0 1 -94.085938 5.15625 1 0 1
pepsi2_arch_concrete_stair01
0 65 64 -266 0 -1 0 -93.070312 -1 1 0 1
0 65 64 -258 0 -1 0 -93.070312 -0.9375 1 0 1
0 -65 64 -258 0 -1 0 -94.085938 -0.9375 1 0 1
pepsi2_arch_concrete_stair01
0 65 64 -266 0 -1 0 -93.070312 -1 1 0 1
0 -65 64 -258 0 -1 0 -94.085938 -0.9375 1 0 1
0 -65 64 -266 0 -1 0 -94.085938 -1 1 0 1
pepsi2_arch_concrete_stair01
0 -65 64 -258 0 0 1 -94.085938 5.0625 1 0 1
0 65 64 -258 0 0 1 -93.070312 5.0625 1 0 1
0 65 76 -258 0 0 1 -93.070312 5.15625 1 0 1
pepsi2_arch_concrete_stair01
0 -65 64 -258 0 0 1 -94.085938 5.0625 1 0 1
0 65 76 -258 0 0 1 -93.070312 5.15625 1 0 1
0 -65 76 -258 0 0 1 -94.085938 5.15625 1 0 1
pepsi2_arch_concrete_stair01
0 65 396 -178 0 -1 0 -93.070312 0 1 0 1
0 65 396 -170 0 -1 0 -93.070312 0.0625 1 0 1
0 -65 396 -170 0 -1 0 -94.085938 0.0625 1 0 1
pepsi2_arch_concrete_stair01
0 65 396 -178 0 -1 0 -93.070312 0 1 0 1
0 -65 396 -170 0 -1 0 -94.085938 0.0625 1 0 1
0 -65 396 -178 0 -1 0 -94.085938 0 1 0 1
pepsi2_arch_concrete_stair01
0 -65 396 -170 0 0 1 -94.085938 8.0625 1 0 1
0 65 396 -170 0 0 1 -93.070312 8.0625 1 0 1
0 65 408 -170 0 0 1 -93.070312 8.15625 1 0 1
pepsi2_arch_concrete_stair01
0 -65 396 -170 0 0 1 -94.085938 8.0625 1 0 1
0 65 408 -170 0 0 1 -93.070312 8.15625 1 0 1
0 -65 408 -170 0 0 1 -94.085938 8.15625 1 0 1
pepsi2_arch_concrete_stair01
0 65 88 -250 0 -1 0 -93.070312 -1 1 0 1
0 65 88 -242 0 -1 0 -93.070312 -0.9375 1 0 1
0 -65 88 -242 0 -1 0 -94.085938 -0.9375 1 0 1
pepsi2_arch_concrete_stair01
0 65 88 -250 0 -1 0 -93.070312 -1 1 0 1
0 -65 88 -242 0 -1 0 -94.085938 -0.9375 1 0 1
0 -65 88 -250 0 -1 0 -94.085938 -1 1 0 1
pepsi2_arch_concrete_stair01
0 -65 88 -242 0 0 1 -94.085938 5.0625 1 0 1
0 65 88 -242 0 0 1 -93.070312 5.0625 1 0 1
0 65 100 -242 0 0 1 -93.070312 5.15625 1 0 1
pepsi2_arch_concrete_stair01
0 -65 88 -242 0 0 1 -94.085938 5.0625 1 0 1
0 65 100 -242 0 0 1 -93.070312 5.15625 1 0 1
0 -65 100 -242 0 0 1 -94.085938 5.15625 1 0 1
pepsi2_arch_concrete_stair01
0 65 468 -130 0 -1 0 -93.070312 0 1 0 1
0 65 468 -122 0 -1 0 -93.070312 0.0625 1 0 1
0 -65 468 -122 0 -1 0 -94.085938 0.0625 1 0 1
pepsi2_arch_concrete_stair01
0 65 468 -130 0 -1 0 -93.070312 0 1 0 1
0 -65 468 -122 0 -1 0 -94.085938 0.0625 1 0 1
0 -65 468 -130 0 -1 0 -94.085938 0 1 0 1
pepsi2_arch_concrete_stair01
0 -65 468 -122 0 0 1 -94.085938 8.0625 1 0 1
0 65 468 -122 0 0 1 -93.070312 8.0625 1 0 1
0 65 480 -122 0 0 1 -93.070312 8.15625 1 0 1
pepsi2_arch_concrete_stair01
0 -65 468 -122 0 0 1 -94.085938 8.0625 1 0 1
0 65 480 -122 0 0 1 -93.070312 8.15625 1 0 1
0 -65 480 -122 0 0 1 -94.085938 8.15625 1 0 1
pepsi2_arch_concrete_stair01
0 -65 432 -146 0 0 1 -94.085938 8.0625 1 0 1
0 65 432 -146 0 0 1 -93.070312 8.0625 1 0 1
0 65 444 -146 0 0 1 -93.070312 8.15625 1 0 1
pepsi2_arch_concrete_stair01
0 -65 432 -146 0 0 1 -94.085938 8.0625 1 0 1
0 65 444 -146 0 0 1 -93.070312 8.15625 1 0 1
0 -65 444 -146 0 0 1 -94.085938 8.15625 1 0 1
pepsi2_arch_concrete_stair01
0 65 432 -154 0 -1 0 -93.070312 0 1 0 1
0 65 432 -146 0 -1 0 -93.070312 0.0625 1 0 1
0 -65 432 -146 0 -1 0 -94.085938 0.0625 1 0 1
pepsi2_arch_concrete_stair01
0 65 432 -154 0 -1 0 -93.070312 0 1 0 1
0 -65 432 -146 0 -1 0 -94.085938 0.0625 1 0 1
0 -65 432 -154 0 -1 0 -94.085938 0 1 0 1
pepsi2_arch_concrete_stair01
0 65 100 -242 0 -1 0 -93.070312 -1 1 0 1
0 65 100 -234 0 -1 0 -93.070312 -0.9375 1 0 1
0 -65 100 -234 0 -1 0 -94.085938 -0.9375 1 0 1
pepsi2_arch_concrete_stair01
0 65 100 -242 0 -1 0 -93.070312 -1 1 0 1
0 -65 100 -234 0 -1 0 -94.085938 -0.9375 1 0 1
0 -65 100 -242 0 -1 0 -94.085938 -1 1 0 1
pepsi2_arch_concrete_stair01
0 -65 100 -234 0 0 1 -94.085938 5.0625 1 0 1
0 65 100 -234 0 0 1 -93.070312 5.0625 1 0 1
0 65 112 -234 0 0 1 -93.070312 5.15625 1 0 1
pepsi2_arch_concrete_stair01
0 -65 100 -234 0 0 1 -94.085938 5.0625 1 0 1
0 65 112 -234 0 0 1 -93.070312 5.15625 1 0 1
0 -65 112 -234 0 0 1 -94.085938 5.15625 1 0 1
pepsi2_arch_concrete_stair01
0 -65 456 -130 0 0 1 -94.085938 8.0625 1 0 1
0 65 456 -130 0 0 1 -93.070312 8.0625 1 0 1
0 65 468 -130 0 0 1 -93.070312 8.15625 1 0 1
pepsi2_arch_concrete_stair01
0 -65 456 -130 0 0 1 -94.085938 8.0625 1 0 1
0 65 468 -130 0 0 1 -93.070312 8.15625 1 0 1
0 -65 468 -130 0 0 1 -94.085938 8.15625 1 0 1
pepsi2_arch_concrete_stair01
0 65 456 -138 0 -1 0 -93.070312 0 1 0 1
0 65 456 -130 0 -1 0 -93.070312 0.0625 1 0 1
0 -65 456 -130 0 -1 0 -94.085938 0.0625 1 0 1
pepsi2_arch_concrete_stair01
0 65 456 -138 0 -1 0 -93.070312 0 1 0 1
0 -65 456 -130 0 -1 0 -94.085938 0.0625 1 0 1
0 -65 456 -138 0 -1 0 -94.085938 0 1 0 1
pepsi2_arch_concrete_stair01
0 65 420 -162 0 -1 0 -93.070312 0 1 0 1
0 65 420 -154 0 -1 0 -93.070312 0.0625 1 0 1
0 -65 420 -154 0 -1 0 -94.085938 0.0625 1 0 1
pepsi2_arch_concrete_stair01
0 65 420 -162 0 -1 0 -93.070312 0 1 0 1
0 -65 420 -154 0 -1 0 -94.085938 0.0625 1 0 1
0 -65 420 -162 0 -1 0 -94.085938 0 1 0 1
pepsi2_arch_concrete_stair01
0 -65 420 -154 0 0 1 -94.085938 8.0625 1 0 1
0 65 420 -154 0 0 1 -93.070312 8.0625 1 0 1
0 65 432 -154 0 0 1 -93.070312 8.15625 1 0 1
pepsi2_arch_concrete_stair01
0 -65 420 -154 0 0 1 -94.085938 8.0625 1 0 1
0 65 432 -154 0 0 1 -93.070312 8.15625 1 0 1
0 -65 432 -154 0 0 1 -94.085938 8.15625 1 0 1
pepsi2_arch_concrete_stair01
0 65 124 -226 0 -1 0 -93.070312 0 1 0 1
0 65 124 -218 0 -1 0 -93.070312 0.0625 1 0 1
0 -65 124 -218 0 -1 0 -94.085938 0.0625 1 0 1
pepsi2_arch_concrete_stair01
0 65 124 -226 0 -1 0 -93.070312 0 1 0 1
0 -65 124 -218 0 -1 0 -94.085938 0.0625 1 0 1
0 -65 124 -226 0 -1 0 -94.085938 0 1 0 1
pepsi2_arch_concrete_stair01
0 -65 124 -218 0 0 1 -94.085938 6.0625 1 0 1
0 65 124 -218 0 0 1 -93.070312 6.0625 1 0 1
0 65 136 -218 0 0 1 -93.070312 6.15625 1 0 1
pepsi2_arch_concrete_stair01
0 -65 124 -218 0 0 1 -94.085938 6.0625 1 0 1
0 65 136 -218 0 0 1 -93.070312 6.15625 1 0 1
0 -65 136 -218 0 0 1 -94.085938 6.15625 1 0 1
ares_hr_concrete_polished_001_color
0 65 148 -215 0 -1 0 -2.21875 156.625651 1 0 1
0 65 148 -210 0 -1 0 -2.153646 156.625651 1 0 1
0 -65 148 -210 0 -1 0 -2.153646 158.318359 1 0 1
ares_hr_concrete_polished_001_color
0 65 148 -215 0 -1 0 -2.21875 156.625651 1 0 1
0 -65 148 -210 0 -1 0 -2.153646 158.318359 1 0 1
0 -65 148 -215 0 -1 0 -2.21875 158.318359 1 0 1
pepsi2_arch_concrete_floor_smooth01
0 -65 148 -210 0 0 1 -94.007812 -3.71875 1 0 1
0 65 148 -210 0 0 1 -92.992188 -3.71875 1 0 1
0 65 348 -210 0 0 1 -92.992188 -5.28125 1 0 1
pepsi2_arch_concrete_floor_smooth01
0 -65 148 -210 0 0 1 -94.007812 -3.71875 1 0 1
0 65 348 -210 0 0 1 -92.992188 -5.28125 1 0 1
0 -65 348 -210 0 0 1 -94.007812 -5.28125 1 0 1
pepsi2_arch_concrete_stair01
0 65 28 -290 0 -1 0 -93.070312 -1 1 0 1
0 65 28 -282 0 -1 0 -93.070312 -0.9375 1 0 1
0 -65 28 -282 0 -1 0 -94.085938 -0.9375 1 0 1
pepsi2_arch_concrete_stair01
0 65 28 -290 0 -1 0 -93.070312 -1 1 0 1
0 -65 28 -282 0 -1 0 -94.085938 -0.9375 1 0 1
0 -65 28 -290 0 -1 0 -94.085938 -1 1 0 1
pepsi2_arch_concrete_stair01
0 -65 28 -282 0 0 1 -94.085938 5.0625 1 0 1
0 65 28 -282 0 0 1 -93.070312 5.0625 1 0 1
0 65 40 -282 0 0 1 -93.070312 5.15625 1 0 1
pepsi2_arch_concrete_stair01
0 -65 28 -282 0 0 1 -94.085938 5.0625 1 0 1
0 65 40 -282 0 0 1 -93.070312 5.15625 1 0 1
0 -65 40 -282 0 0 1 -94.085938 5.15625 1 0 1
pepsi2_arch_concrete_floor_smooth01
0 -65 -147 -75 0 0 -1 -94.007812 -1.28125 1 0 1
0 -65 -91.15 -75 0 0 -1 -94.007812 -1.717578 1 0 1
0 65 -91.15 -75 0 0 -1 -92.992188 -1.717578 1 0 1
pepsi2_arch_concrete_floor_smooth01
0 -65 -147 -75 0 0 -1 -94.007812 -1.28125 1 0 1
0 65 -91.15 -75 0 0 -1 -92.992188 -1.717578 1 0 1
0 65 -147 -75 0 0 -1 -92.992188 -1.28125 1 0 1
pepsi2_arch_concrete_floor_smooth01
0 -65 -91.15 -75 0 0.421005 -0.907058 -94.007812 -1.719053 1 0 1
0 -65 148 35.99998 0 0.421005 -0.907058 -94.007812 -3.778928 1 0 1
0 65 148 35.99998 0 0.421005 -0.907058 -92.992188 -3.778928 1 0 1
pepsi2_arch_concrete_floor_smooth01
0 -65 -91.15 -75 0 0.421005 -0.907058 -94.007812 -1.719053 1 0 1
0 65 148 35.99998 0 0.421005 -0.907058 -92.992188 -3.778928 1 0 1
0 65 -91.15 -75 0 0.421005 -0.907058 -92.992188 -1.719053 1 0 1
pepsi2_arch_concrete_floor_smooth01
0 65 148 76 0 1 0 -92.992188 0.234375 1 0 1
0 65 148 35.99998 0 1 0 -92.992188 0.546875 1 0 1
0 -65 148 35.99998 0 1 0 -94.007812 0.546875 1 0 1
pepsi2_arch_concrete_floor_smooth01
0 65 148 76 0 1 0 -92.992188 0.234375 1 0 1
0 -65 148 35.99998 0 1 0 -94.007812 0.546875 1 0 1
0 -65 148 76 0 1 0 -94.007812 0.234375 1 0 1
pepsi2_arch_concrete_stair01
0 65 -20 -322 0 -1 0 -93.070312 -1 1 0 1
0 65 -20 -314 0 -1 0 -93.070312 -0.9375 1 0 1
0 -65 -20 -314 0 -1 0 -94.085938 -0.9375 1 0 1
pepsi2_arch_concrete_stair01
0 65 -20 -322 0 -1 0 -93.070312 -1 1 0 1
0 -65 -20 -314 0 -1 0 -94.085938 -0.9375 1 0 1
0 -65 -20 -322 0 -1 0 -94.085938 -1 1 0 1
pepsi2_arch_concrete_stair01
0 -65 -20 -314 0 0 1 -94.085938 5.0625 1 0 1
0 65 -20 -314 0 0 1 -93.070312 5.0625 1 0 1
0 65 -8 -314 0 0 1 -93.070312 5.15625 1 0 1
pepsi2_arch_concrete_stair01
0 -65 -20 -314 0 0 1 -94.085938 5.0625 1 0 1
0 65 -8 -314 0 0 1 -93.070312 5.15625 1 0 1
0 -65 -8 -314 0 0 1 -94.085938 5.15625 1 0 1
pepsi2_arch_concrete_stair01
0 65 40 -282 0 -1 0 -93.070312 -1 1 0 1
0 65 40 -274 0 -1 0 -93.070312 -0.9375 1 0 1
0 -65 40 -274 0 -1 0 -94.085938 -0.9375 1 0 1
pepsi2_arch_concrete_stair01
0 65 40 -282 0 -1 0 -93.070312 -1 1 0 1
0 -65 40 -274 0 -1 0 -94.085938 -0.9375 1 0 1
0 -65 40 -282 0 -1 0 -94.085938 -1 1 0 1
pepsi2_arch_concrete_stair01
0 -65 40 -274 0 0 1 -94.085938 5.0625 1 0 1
0 65 40 -274 0 0 1 -93.070312 5.0625 1 0 1
0 65 52 -274 0 0 1 -93.070312 5.15625 1 0 1
pepsi2_arch_concrete_stair01
0 -65 40 -274 0 0 1 -94.085938 5.0625 1 0 1
0 65 52 -274 0 0 1 -93.070312 5.15625 1 0 1
0 -65 52 -274 0 0 1 -94.085938 5.15625 1 0 1
end
