version 1
nodes
0 "root" -1
end
skeleton
time 0
0 0 0 0 0 0 0
end
triangles
bridge_se1_metal_flat_steel_01
0 22.18 159 68 -1 0 0 10.5625 -7.769531 1 0 1
0 22.18 159 78 -1 0 0 10.953125 -7.769531 1 0 1
0 22.18 601 78 -1 0 0 10.953125 9.496094 1 0 1
bridge_se1_metal_flat_steel_01
0 22.18 159 68 -1 0 0 10.5625 -7.769531 1 0 1
0 22.18 601 78 -1 0 0 10.953125 9.496094 1 0 1
0 22.18 601 68 -1 0 0 10.5625 9.496094 1 0 1
bridge_se1_metal_flat_steel_01
0 24.09 159 78 1 0 0 10.953125 -7.769531 1 0 1
0 24.09 159 68 1 0 0 10.5625 -7.769531 1 0 1
0 24.09 601 68 1 0 0 10.5625 9.496094 1 0 1
bridge_se1_metal_flat_steel_01
0 24.09 159 78 1 0 0 10.953125 -7.769531 1 0 1
0 24.09 601 68 1 0 0 10.5625 9.496094 1 0 1
0 24.09 601 78 1 0 0 10.953125 9.496094 1 0 1
bridge_se1_metal_flat_steel_01
0 24.09 159 68 0 0 -1 377.598047 -7.769531 1 0 1
0 22.18 159 68 0 0 -1 377.672656 -7.769531 1 0 1
0 22.18 601 68 0 0 -1 377.672656 9.496094 1 0 1
bridge_se1_metal_flat_steel_01
0 24.09 159 68 0 0 -1 377.598047 -7.769531 1 0 1
0 22.18 601 68 0 0 -1 377.672656 9.496094 1 0 1
0 24.09 601 68 0 0 -1 377.598047 9.496094 1 0 1
bridge_se1_metal_flat_steel_01
0 22.18 159 78 0 0 1 8.882812 -376.746875 1 0 1
0 24.09 159 78 0 0 1 8.882812 -376.672266 1 0 1
0 24.09 601 78 0 0 1 -8.382812 -376.672266 1 0 1
bridge_se1_metal_flat_steel_01
0 22.18 159 78 0 0 1 8.882812 -376.746875 1 0 1
0 24.09 601 78 0 0 1 -8.382812 -376.672266 1 0 1
0 22.18 601 78 0 0 1 -8.382812 -376.746875 1 0 1
bridge_se1_metal_flat_steel_01
0 -16.09 159 68 -1 0 0 10.5625 -7.769531 1 0 1
0 -16.09 159 78 -1 0 0 10.953125 -7.769531 1 0 1
0 -16.09 601 78 -1 0 0 10.953125 9.496094 1 0 1
bridge_se1_metal_flat_steel_01
0 -16.09 159 68 -1 0 0 10.5625 -7.769531 1 0 1
0 -16.09 601 78 -1 0 0 10.953125 9.496094 1 0 1
0 -16.09 601 68 -1 0 0 10.5625 9.496094 1 0 1
bridge_se1_metal_flat_steel_01
0 -14.18 159 78 1 0 0 10.953125 -7.769531 1 0 1
0 -14.18 159 68 1 0 0 10.5625 -7.769531 1 0 1
0 -14.18 601 68 1 0 0 10.5625 9.496094 1 0 1
bridge_se1_metal_flat_steel_01
0 -14.18 159 78 1 0 0 10.953125 -7.769531 1 0 1
0 -14.18 601 68 1 0 0 10.5625 9.496094 1 0 1
0 -14.18 601 78 1 0 0 10.953125 9.496094 1 0 1
bridge_se1_metal_flat_steel_01
0 -14.18 159 68 0 0 -1 379.092969 -7.769531 1 0 1
0 -16.09 159 68 0 0 -1 379.167578 -7.769531 1 0 1
0 -16.09 601 68 0 0 -1 379.167578 9.496094 1 0 1
bridge_se1_metal_flat_steel_01
0 -14.18 159 68 0 0 -1 379.092969 -7.769531 1 0 1
0 -16.09 601 68 0 0 -1 379.167578 9.496094 1 0 1
0 -14.18 601 68 0 0 -1 379.092969 9.496094 1 0 1
bridge_se1_metal_flat_steel_01
0 -16.09 159 78 0 0 1 8.882812 -378.241797 1 0 1
0 -14.18 159 78 0 0 1 8.882812 -378.167188 1 0 1
0 -14.18 601 78 0 0 1 -8.382812 -378.167188 1 0 1
bridge_se1_metal_flat_steel_01
0 -16.09 159 78 0 0 1 8.882812 -378.241797 1 0 1
0 -14.18 601 78 0 0 1 -8.382812 -378.167188 1 0 1
0 -16.09 601 78 0 0 1 -8.382812 -378.241797 1 0 1
pepsi2_arch_concrete_wall01
0 64 -27 -143 0 -1 0 0.308315 -52.366627 1 0 1
0 64 -27 -84 0 -1 0 -0.020926 -52.366627 1 0 1
0 42 -27 -84 0 -1 0 -0.020926 -52.489395 1 0 1
pepsi2_arch_concrete_wall01
0 64 -27 -143 0 -1 0 0.308315 -52.366627 1 0 1
0 42 -27 -84 0 -1 0 -0.020926 -52.489395 1 0 1
0 42 -27 -143 0 -1 0 0.308315 -52.489395 1 0 1
pepsi2_arch_concrete_wall01
0 64 -27 -67 0 -1 0 -0.115792 -52.366627 1 0 1
0 64 -27 68 0 -1 0 -0.869141 -52.366627 1 0 1
0 -64.64 -27 68 0 -1 0 -0.869141 -53.084484 1 0 1
pepsi2_arch_concrete_wall01
0 64 -27 -67 0 -1 0 -0.115792 -52.366627 1 0 1
0 -64.64 -27 68 0 -1 0 -0.869141 -53.084484 1 0 1
0 -64.64 -27 -67 0 -1 0 -0.115792 -53.084484 1 0 1
pepsi2_arch_concrete_wall01
0 64 -27 -72 0 -1 0 -0.087891 -52.366627 1 0 1
0 64 -27 -67 0 -1 0 -0.115792 -52.366627 1 0 1
0 -64.64 -27 -67 0 -1 0 -0.115792 -53.084484 1 0 1
pepsi2_arch_concrete_wall01
0 64 -27 -72 0 -1 0 -0.087891 -52.366627 1 0 1
0 -64.64 -27 -67 0 -1 0 -0.115792 -53.084484 1 0 1
0 -64.64 -27 -72 0 -1 0 -0.087891 -53.084484 1 0 1
pepsi2_arch_concrete_floor_smooth01
0 64 -27 -72 0 0 -1 -74.3125 3.718744 1 0 1
0 -64.64 -27 -72 0 0 -1 -75.3175 3.718744 1 0 1
0 -64.64 -1 -72 0 0 -1 -75.3175 3.515619 1 0 1
pepsi2_arch_concrete_floor_smooth01
0 64 -27 -72 0 0 -1 -74.3125 3.718744 1 0 1
0 -64.64 -1 -72 0 0 -1 -75.3175 3.515619 1 0 1
0 64 -1 -72 0 0 -1 -74.3125 3.515619 1 0 1
af_omega_clock_glass
0 39.44 -27 -138 0 -1 0 -300.5175 2.734375 1 0 1
0 39.44 -27 -89 0 -1 0 -300.5175 4.265625 1 0 1
0 -35.44 -27 -89 0 -1 0 -302.8575 4.265625 1 0 1
af_omega_clock_glass
0 39.44 -27 -138 0 -1 0 -300.5175 2.734375 1 0 1
0 -35.44 -27 -89 0 -1 0 -302.8575 4.265625 1 0 1
0 -35.44 -27 -138 0 -1 0 -302.8575 2.734375 1 0 1
pepsi2_arch_concrete_wall01
0 64 -27 -163 0 -1 0 0.419922 -52.366627 1 0 1
0 64 -27 -143 0 -1 0 0.308315 -52.366627 1 0 1
0 -64.64 -27 -143 0 -1 0 0.308315 -53.084484 1 0 1
pepsi2_arch_concrete_wall01
0 64 -27 -163 0 -1 0 0.419922 -52.366627 1 0 1
0 -64.64 -27 -143 0 -1 0 0.308315 -53.084484 1 0 1
0 -64.64 -27 -163 0 -1 0 0.419922 -53.084484 1 0 1
pepsi2_arch_concrete_floor_smooth01
0 -64.64 -27 -143 0 0 1 -75.3175 -1.679682 1 0 1
0 64 -27 -143 0 0 1 -74.3125 -1.679682 1 0 1
0 64 27 -143 0 0 1 -74.3125 -1.257807 1 0 1
pepsi2_arch_concrete_floor_smooth01
0 -64.64 -27 -143 0 0 1 -75.3175 -1.679682 1 0 1
0 64 27 -143 0 0 1 -74.3125 -1.257807 1 0 1
0 -64.64 27 -143 0 0 1 -75.3175 -1.257807 1 0 1
bridge_se1_metal_flat_steel_01
0 39.44 -27 -138 0 -1 0 -74.793437 1.296875 1 0 1
0 -35.44 -27 -138 0 -1 0 -75.378438 1.296875 1 0 1
0 -38 -27 -143 0 -1 0 -75.398438 1.257812 1 0 1
bridge_se1_metal_flat_steel_01
0 39.44 -27 -138 0 -1 0 -74.793437 1.296875 1 0 1
0 -38 -27 -143 0 -1 0 -75.398438 1.257812 1 0 1
0 42 -27 -143 0 -1 0 -74.773437 1.257812 1 0 1
bridge_se1_metal_flat_steel_01
0 -35.44 -27 -138 0 0 1 -75.378438 -1.703119 1 0 1
0 39.44 -27 -138 0 0 1 -74.793437 -1.703119 1 0 1
0 39.44 -17 -138 0 0 1 -74.793437 -1.624994 1 0 1
bridge_se1_metal_flat_steel_01
0 -35.44 -27 -138 0 0 1 -75.378438 -1.703119 1 0 1
0 39.44 -17 -138 0 0 1 -74.793437 -1.624994 1 0 1
0 -35.44 -17 -138 0 0 1 -75.378438 -1.624994 1 0 1
bridge_se1_metal_flat_steel_01
0 -38 -27 -84 0 -1 0 -75.398437 1.71875 1 0 1
0 -35.44 -27 -89 0 -1 0 -75.378437 1.679688 1 0 1
0 39.44 -27 -89 0 -1 0 -74.793437 1.679688 1 0 1
bridge_se1_metal_flat_steel_01
0 -38 -27 -84 0 -1 0 -75.398437 1.71875 1 0 1
0 39.44 -27 -89 0 -1 0 -74.793437 1.679688 1 0 1
0 42 -27 -84 0 -1 0 -74.773437 1.71875 1 0 1
bridge_se1_metal_flat_steel_01
0 -35.44 -27 -89 0 0 -1 -75.378438 3.679682 1 0 1
0 -35.44 -17 -89 0 0 -1 -75.378438 3.601557 1 0 1
0 39.44 -17 -89 0 0 -1 -74.793437 3.601557 1 0 1
bridge_se1_metal_flat_steel_01
0 -35.44 -27 -89 0 0 -1 -75.378438 3.679682 1 0 1
0 39.44 -17 -89 0 0 -1 -74.793437 3.601557 1 0 1
0 39.44 -27 -89 0 0 -1 -74.793437 3.679682 1 0 1
pepsi2_arch_concrete_wall01
0 64 -27 -72 0 -1 0 -0.087891 -52.366627 1 0 1
0 -64.64 -27 -72 0 -1 0 -0.087891 -53.084484 1 0 1
0 -64.64 -27 -84 0 -1 0 -0.020926 -53.084484 1 0 1
pepsi2_arch_concrete_wall01
0 64 -27 -72 0 -1 0 -0.087891 -52.366627 1 0 1
0 -64.64 -27 -84 0 -1 0 -0.020926 -53.084484 1 0 1
0 64 -27 -84 0 -1 0 -0.020926 -52.366627 1 0 1
bridge_se1_metal_flat_steel_01
0 -38 -27 -143 0 -1 0 -75.398438 1.257812 1 0 1
0 -33 -27 -138 0 -1 0 -75.359375 1.296875 1 0 1
0 -33 -27 -89 0 -1 0 -75.359375 1.679688 1 0 1
bridge_se1_metal_flat_steel_01
0 -38 -27 -143 0 -1 0 -75.398438 1.257812 1 0 1
0 -33 -27 -89 0 -1 0 -75.359375 1.679688 1 0 1
0 -38 -27 -84 0 -1 0 -75.398438 1.71875 1 0 1
bridge_se1_metal_flat_steel_01
0 -33 -27 -138 1 0 0 -2.359369 1.296875 1 0 1
0 -33 -17 -138 1 0 0 -2.281244 1.296875 1 0 1
0 -33 -17 -89 1 0 0 -2.281244 1.679687 1 0 1
bridge_se1_metal_flat_steel_01
0 -33 -27 -138 1 0 0 -2.359369 1.296875 1 0 1
0 -33 -17 -89 1 0 0 -2.281244 1.679687 1 0 1
0 -33 -27 -89 1 0 0 -2.359369 1.679687 1 0 1
bridge_se1_metal_flat_steel_01
0 42 -27 -143 0 -1 0 -74.773438 1.257812 1 0 1
0 42 -27 -84 0 -1 0 -74.773438 1.71875 1 0 1
0 39.44 -27 -89 0 -1 0 -74.793437 1.679688 1 0 1
bridge_se1_metal_flat_steel_01
0 42 -27 -143 0 -1 0 -74.773438 1.257812 1 0 1
0 39.44 -27 -89 0 -1 0 -74.793437 1.679688 1 0 1
0 39.44 -27 -138 0 -1 0 -74.793437 1.296875 1 0 1
bridge_se1_metal_flat_steel_01
0 39.44 -27 -138 -1 0 0 2.781244 1.296875 1 0 1
0 39.44 -27 -89 -1 0 0 2.781244 1.679688 1 0 1
0 39.44 -17 -89 -1 0 0 2.703119 1.679688 1 0 1
bridge_se1_metal_flat_steel_01
0 39.44 -27 -138 -1 0 0 2.781244 1.296875 1 0 1
0 39.44 -17 -89 -1 0 0 2.703119 1.679688 1 0 1
0 39.44 -17 -138 -1 0 0 2.703119 1.296875 1 0 1
pepsi2_arch_concrete_wall01
0 74 -27 -163 0 -1 0 0.419922 -52.310823 1 0 1
0 74 -27 68 0 -1 0 -0.869141 -52.310823 1 0 1
0 64 -27 68 0 -1 0 -0.869141 -52.366627 1 0 1
pepsi2_arch_concrete_wall01
0 74 -27 -163 0 -1 0 0.419922 -52.310823 1 0 1
0 64 -27 68 0 -1 0 -0.869141 -52.366627 1 0 1
0 64 -27 -163 0 -1 0 0.419922 -52.366627 1 0 1
pepsi2_arch_concrete_wall01
0 74 -27 68 1 0 0 -0.869141 -0.885878 1 0 1
0 74 -27 -163 1 0 0 0.419922 -0.885878 1 0 1
0 74 27 -163 1 0 0 0.419922 -0.584539 1 0 1
pepsi2_arch_concrete_wall01
0 74 -27 68 1 0 0 -0.869141 -0.885878 1 0 1
0 74 27 -163 1 0 0 0.419922 -0.584539 1 0 1
0 74 27 68 1 0 0 -0.869141 -0.584539 1 0 1
pepsi2_arch_concrete_floor_smooth01
0 64 -27 -163 -1 0 0 -0.007812 3.718744 1 0 1
0 64 -27 68 -1 0 0 -1.8125 3.718744 1 0 1
0 64 27 68 -1 0 0 -1.8125 3.296869 1 0 1
pepsi2_arch_concrete_floor_smooth01
0 64 -27 -163 -1 0 0 -0.007812 3.718744 1 0 1
0 64 27 68 -1 0 0 -1.8125 3.296869 1 0 1
0 64 27 -163 -1 0 0 -0.007812 3.296869 1 0 1
bridge_se1_metal_flat_steel_01
0 -102 -83 -163 0 0 1 -75.898438 -2.335932 1 0 1
0 105 -83 -163 0 0 1 -74.28125 -2.335932 1 0 1
0 105 37 -163 0 0 1 -74.28125 -1.398432 1 0 1
bridge_se1_metal_flat_steel_01
0 -102 -83 -163 0 0 1 -75.898438 -2.335932 1 0 1
0 105 37 -163 0 0 1 -74.28125 -1.398432 1 0 1
0 -102 37 -163 0 0 1 -75.898438 -1.398432 1 0 1
bridge_se1_metal_flat_steel_01
0 105 -83 -163 0 -1 0 -74.28125 0.664062 1 0 1
0 -102 -83 -163 0 -1 0 -75.898438 0.664062 1 0 1
0 -102 -83 -166 0 -1 0 -75.898438 0.640625 1 0 1
bridge_se1_metal_flat_steel_01
0 105 -83 -163 0 -1 0 -74.28125 0.664062 1 0 1
0 -102 -83 -166 0 -1 0 -75.898438 0.640625 1 0 1
0 105 -83 -166 0 -1 0 -74.28125 0.640625 1 0 1
bridge_se1_metal_flat_steel_01
0 105 -83 -166 1 0 0 0.210938 -2.335932 1 0 1
0 105 37 -166 1 0 0 0.210938 -1.398432 1 0 1
0 105 37 -163 1 0 0 0.1875 -1.398432 1 0 1
bridge_se1_metal_flat_steel_01
0 105 -83 -166 1 0 0 0.210938 -2.335932 1 0 1
0 105 37 -163 1 0 0 0.1875 -1.398432 1 0 1
0 105 -83 -163 1 0 0 0.1875 -2.335932 1 0 1
bridge_se1_metal_flat_steel_01
0 -102 -83 -163 -1 0 0 1.234375 -2.335932 1 0 1
0 -102 37 -163 -1 0 0 1.234375 -1.398432 1 0 1
0 -102 37 -166 -1 0 0 1.210938 -1.398432 1 0 1
bridge_se1_metal_flat_steel_01
0 -102 -83 -163 -1 0 0 1.234375 -2.335932 1 0 1
0 -102 37 -166 -1 0 0 1.210938 -1.398432 1 0 1
0 -102 -83 -166 -1 0 0 1.210938 -2.335932 1 0 1
base_wood_wood01
0 56 -1 -143 0 -1 0 0.727865 125.714859 1 0 1
0 56 -1 -140 0 -1 0 0.766927 125.714859 1 0 1
0 -46 -1 -140 0 -1 0 0.766927 127.042984 1 0 1
base_wood_wood01
0 56 -1 -143 0 -1 0 0.727865 125.714859 1 0 1
0 -46 -1 -140 0 -1 0 0.766927 127.042984 1 0 1
0 -46 -1 -143 0 -1 0 0.727865 127.042984 1 0 1
base_wood_wood01
0 56 20 -140 0 1 0 0.092448 125.714859 1 0 1
0 56 20 -143 0 1 0 0.13151 125.714859 1 0 1
0 -46 20 -143 0 1 0 0.13151 127.042984 1 0 1
base_wood_wood01
0 56 20 -140 0 1 0 0.092448 125.714859 1 0 1
0 -46 20 -143 0 1 0 0.13151 127.042984 1 0 1
0 -46 20 -140 0 1 0 0.092448 127.042984 1 0 1
base_wood_wood01
0 56 1 -138 0 0 1 -4.180979 125.714859 1 0 1
0 56 18 -138 0 0 1 -3.959624 125.714859 1 0 1
0 -46 18 -138 0 0 1 -3.959624 127.042984 1 0 1
base_wood_wood01
0 56 1 -138 0 0 1 -4.180979 125.714859 1 0 1
0 -46 18 -138 0 0 1 -3.959624 127.042984 1 0 1
0 -46 1 -138 0 0 1 -4.180979 127.042984 1 0 1
base_wood_wood01
0 56 18 -138 0 0.707107 0.707107 -2.960422 125.714859 1 0 1
0 56 20 -140 0 0.707107 0.707107 -2.923594 125.714859 1 0 1
0 -46 20 -140 0 0.707107 0.707107 -2.923594 127.042984 1 0 1
base_wood_wood01
0 56 18 -138 0 0.707107 0.707107 -2.960422 125.714859 1 0 1
0 -46 20 -140 0 0.707107 0.707107 -2.923594 127.042984 1 0 1
0 -46 18 -138 0 0.707107 0.707107 -2.960422 127.042984 1 0 1
base_wood_wood01
0 -46 -1 -140 0 -0.707107 0.707107 -2.218848 127.042984 1 0 1
0 56 -1 -140 0 -0.707107 0.707107 -2.218848 125.714859 1 0 1
0 56 1 -138 0 -0.707107 0.707107 -2.18202 125.714859 1 0 1
base_wood_wood01
0 -46 -1 -140 0 -0.707107 0.707107 -2.218848 127.042984 1 0 1
0 56 1 -138 0 -0.707107 0.707107 -2.18202 125.714859 1 0 1
0 -46 1 -138 0 -0.707107 0.707107 -2.18202 127.042984 1 0 1
pepsi2_arch_metal_grate01
0 43 -1 -72 0 0 -1 -62.480802 20.046831 1 0 1
0 -56 -1 -72 0 0 -1 -63.125333 20.046831 1 0 1
0 -56 20 -72 0 0 -1 -63.125333 18.953081 1 0 1
pepsi2_arch_metal_grate01
0 43 -1 -72 0 0 -1 -62.480802 20.046831 1 0 1
0 -56 20 -72 0 0 -1 -63.125333 18.953081 1 0 1
0 43 20 -72 0 0 -1 -62.480802 18.953081 1 0 1
pepsi2_arch_concrete_floor_smooth01
0 43 20 -72 0 0 -1 -74.476562 3.351557 1 0 1
0 -60 20 -72 0 0 -1 -75.28125 3.351557 1 0 1
0 -60 27 -72 0 0 -1 -75.28125 3.296869 1 0 1
pepsi2_arch_concrete_floor_smooth01
0 43 20 -72 0 0 -1 -74.476562 3.351557 1 0 1
0 -60 27 -72 0 0 -1 -75.28125 3.296869 1 0 1
0 43 27 -72 0 0 -1 -74.476562 3.296869 1 0 1
pepsi2_arch_concrete_floor_smooth01
0 73 27 -163 0 -1 0 -74.242188 0.585938 1 0 1
0 73 27 68 0 -1 0 -74.242188 2.390625 1 0 1
0 -70 27 68 0 -1 0 -75.359375 2.390625 1 0 1
pepsi2_arch_concrete_floor_smooth01
0 73 27 -163 0 -1 0 -74.242188 0.585938 1 0 1
0 -70 27 68 0 -1 0 -75.359375 2.390625 1 0 1
0 -70 27 -163 0 -1 0 -75.359375 0.585938 1 0 1
pepsi2_arch_concrete_wall01
0 73 27 68 1 0 0 -0.869141 -0.584539 1 0 1
0 73 27 -163 1 0 0 0.419922 -0.584539 1 0 1
0 73 37 -163 1 0 0 0.419922 -0.528735 1 0 1
pepsi2_arch_concrete_wall01
0 73 27 68 1 0 0 -0.869141 -0.584539 1 0 1
0 73 37 -163 1 0 0 0.419922 -0.528735 1 0 1
0 73 37 68 1 0 0 -0.869141 -0.528735 1 0 1
pepsi2_arch_concrete_wall01
0 -70 27 -163 -1 0 0 0.419922 2.584539 1 0 1
0 -70 27 68 -1 0 0 -0.869141 2.584539 1 0 1
0 -70 37 68 -1 0 0 -0.869141 2.528735 1 0 1
pepsi2_arch_concrete_wall01
0 -70 27 -163 -1 0 0 0.419922 2.584539 1 0 1
0 -70 37 68 -1 0 0 -0.869141 2.528735 1 0 1
0 -70 37 -163 -1 0 0 0.419922 2.528735 1 0 1
bridge_se1_metal_flat_steel_01
0 372 -5 -75 0 1 0 -120.623047 2.640625 1 0 1
0 372 -5 -87 0 1 0 -120.623047 2.484375 1 0 1
0 371 -5 -87 0 1 0 -120.636068 2.484375 1 0 1
bridge_se1_metal_flat_steel_01
0 372 -5 -75 0 1 0 -120.623047 2.640625 1 0 1
0 371 -5 -87 0 1 0 -120.636068 2.484375 1 0 1
0 371 -5 -75 0 1 0 -120.636068 2.640625 1 0 1
bridge_se1_metal_flat_steel_01
0 372 -32 -87 0 -1 0 -120.623047 2.484375 1 0 1
0 372 -32 -75 0 -1 0 -120.623047 2.640625 1 0 1
0 371 -32 -75 0 -1 0 -120.636068 2.640625 1 0 1
bridge_se1_metal_flat_steel_01
0 372 -32 -87 0 -1 0 -120.623047 2.484375 1 0 1
0 371 -32 -75 0 -1 0 -120.636068 2.640625 1 0 1
0 371 -32 -87 0 -1 0 -120.636068 2.484375 1 0 1
pepsi2_graphics_label_security
0 371 -32 -87 -1 0 0 13.941406 11.875 1 0 1
0 371 -32 -75 -1 0 0 13.941406 13.125 1 0 1
0 371 -5 -75 -1 0 0 13.0625 13.125 1 0 1
pepsi2_graphics_label_security
0 371 -32 -87 -1 0 0 13.941406 11.875 1 0 1
0 371 -5 -75 -1 0 0 13.0625 13.125 1 0 1
0 371 -5 -87 -1 0 0 13.0625 11.875 1 0 1
bridge_se1_metal_flat_steel_01
0 372 -32 -87 0 0 -1 -120.623047 6.484375 1 0 1
0 371 -32 -87 0 0 -1 -120.636068 6.484375 1 0 1
0 371 -5 -87 0 0 -1 -120.636068 6.132812 1 0 1
bridge_se1_metal_flat_steel_01
0 372 -32 -87 0 0 -1 -120.623047 6.484375 1 0 1
0 371 -5 -87 0 0 -1 -120.636068 6.132812 1 0 1
0 372 -5 -87 0 0 -1 -120.623047 6.132812 1 0 1
bridge_se1_metal_flat_steel_01
0 371 -32 -75 0 0 1 -120.636068 -4.484375 1 0 1
0 372 -32 -75 0 0 1 -120.623047 -4.484375 1 0 1
0 372 -5 -75 0 0 1 -120.623047 -4.132812 1 0 1
bridge_se1_metal_flat_steel_01
0 371 -32 -75 0 0 1 -120.636068 -4.484375 1 0 1
0 372 -5 -75 0 0 1 -120.623047 -4.132812 1 0 1
0 371 -5 -75 0 0 1 -120.636068 -4.132812 1 0 1
bridge_se1_metal_flat_steel_01
0 58.54 159 78 0 0 1 8.882812 -375.326562 1 0 1
0 60.45 159 78 0 0 1 8.882812 -375.251953 1 0 1
0 60.45 601 78 0 0 1 -8.382812 -375.251953 1 0 1
bridge_se1_metal_flat_steel_01
0 58.54 159 78 0 0 1 8.882812 -375.326562 1 0 1
0 60.45 601 78 0 0 1 -8.382812 -375.251953 1 0 1
0 58.54 601 78 0 0 1 -8.382812 -375.326562 1 0 1
bridge_se1_metal_flat_steel_01
0 58.54 159 68 -1 0 0 10.5625 -7.769531 1 0 1
0 58.54 159 78 -1 0 0 10.953125 -7.769531 1 0 1
0 58.54 601 78 -1 0 0 10.953125 9.496094 1 0 1
bridge_se1_metal_flat_steel_01
0 58.54 159 68 -1 0 0 10.5625 -7.769531 1 0 1
0 58.54 601 78 -1 0 0 10.953125 9.496094 1 0 1
0 58.54 601 68 -1 0 0 10.5625 9.496094 1 0 1
bridge_se1_metal_flat_steel_01
0 60.45 601 68 1 0 0 10.5625 9.496094 1 0 1
0 60.45 601 78 1 0 0 10.953125 9.496094 1 0 1
0 60.45 159 78 1 0 0 10.953125 -7.769531 1 0 1
bridge_se1_metal_flat_steel_01
0 60.45 601 68 1 0 0 10.5625 9.496094 1 0 1
0 60.45 159 78 1 0 0 10.953125 -7.769531 1 0 1
0 60.45 159 68 1 0 0 10.5625 -7.769531 1 0 1
bridge_se1_metal_flat_steel_01
0 60.45 159 68 0 0 -1 375.568359 -7.769531 1 0 1
0 58.54 159 68 0 0 -1 375.642969 -7.769531 1 0 1
0 58.54 601 68 0 0 -1 375.642969 9.496094 1 0 1
bridge_se1_metal_flat_steel_01
0 60.45 159 68 0 0 -1 375.568359 -7.769531 1 0 1
0 58.54 601 68 0 0 -1 375.642969 9.496094 1 0 1
0 60.45 601 68 0 0 -1 375.568359 9.496094 1 0 1
bridge_se1_metal_flat_steel_01
0 135.09 159 68 -1 0 0 10.5625 -7.769531 1 0 1
0 135.09 159 78 -1 0 0 10.953125 -7.769531 1 0 1
0 135.09 601 78 -1 0 0 10.953125 9.496094 1 0 1
bridge_se1_metal_flat_steel_01
0 135.09 159 68 -1 0 0 10.5625 -7.769531 1 0 1
0 135.09 601 78 -1 0 0 10.953125 9.496094 1 0 1
0 135.09 601 68 -1 0 0 10.5625 9.496094 1 0 1
bridge_se1_metal_flat_steel_01
0 137 159 78 1 0 0 10.953125 -7.769531 1 0 1
0 137 159 68 1 0 0 10.5625 -7.769531 1 0 1
0 137 601 68 1 0 0 10.5625 9.496094 1 0 1
bridge_se1_metal_flat_steel_01
0 137 159 78 1 0 0 10.953125 -7.769531 1 0 1
0 137 601 68 1 0 0 10.5625 9.496094 1 0 1
0 137 601 78 1 0 0 10.953125 9.496094 1 0 1
bridge_se1_metal_flat_steel_01
0 137 159 68 0 0 -1 372.578125 -7.769531 1 0 1
0 135.09 159 68 0 0 -1 372.652734 -7.769531 1 0 1
0 135.09 601 68 0 0 -1 372.652734 9.496094 1 0 1
bridge_se1_metal_flat_steel_01
0 137 159 68 0 0 -1 372.578125 -7.769531 1 0 1
0 135.09 601 68 0 0 -1 372.652734 9.496094 1 0 1
0 137 601 68 0 0 -1 372.578125 9.496094 1 0 1
bridge_se1_metal_flat_steel_01
0 135.09 159 78 0 0 1 8.882812 -372.336328 1 0 1
0 137 159 78 0 0 1 8.882812 -372.261719 1 0 1
0 137 601 78 0 0 1 -8.382812 -372.261719 1 0 1
bridge_se1_metal_flat_steel_01
0 135.09 159 78 0 0 1 8.882812 -372.336328 1 0 1
0 137 601 78 0 0 1 -8.382812 -372.261719 1 0 1
0 135.09 601 78 0 0 1 -8.382812 -372.336328 1 0 1
bridge_se1_metal_flat_steel_01
0 96.81 159 68 -1 0 0 10.5625 -7.769531 1 0 1
0 96.81 159 78 -1 0 0 10.953125 -7.769531 1 0 1
0 96.81 601 78 -1 0 0 10.953125 9.496094 1 0 1
bridge_se1_metal_flat_steel_01
0 96.81 159 68 -1 0 0 10.5625 -7.769531 1 0 1
0 96.81 601 78 -1 0 0 10.953125 9.496094 1 0 1
0 96.81 601 68 -1 0 0 10.5625 9.496094 1 0 1
bridge_se1_metal_flat_steel_01
0 98.73 159 78 1 0 0 10.953125 -7.769531 1 0 1
0 98.73 159 68 1 0 0 10.5625 -7.769531 1 0 1
0 98.73 601 68 1 0 0 10.5625 9.496094 1 0 1
bridge_se1_metal_flat_steel_01
0 98.73 159 78 1 0 0 10.953125 -7.769531 1 0 1
0 98.73 601 68 1 0 0 10.5625 9.496094 1 0 1
0 98.73 601 78 1 0 0 10.953125 9.496094 1 0 1
bridge_se1_metal_flat_steel_01
0 98.73 159 68 0 0 -1 374.073047 -7.769531 1 0 1
0 96.81 159 68 0 0 -1 374.148047 -7.769531 1 0 1
0 96.81 601 68 0 0 -1 374.148047 9.496094 1 0 1
bridge_se1_metal_flat_steel_01
0 98.73 159 68 0 0 -1 374.073047 -7.769531 1 0 1
0 96.81 601 68 0 0 -1 374.148047 9.496094 1 0 1
0 98.73 601 68 0 0 -1 374.073047 9.496094 1 0 1
bridge_se1_metal_flat_steel_01
0 96.81 159 78 0 0 1 8.882812 -373.831641 1 0 1
0 98.73 159 78 0 0 1 8.882812 -373.756641 1 0 1
0 98.73 601 78 0 0 1 -8.382812 -373.756641 1 0 1
bridge_se1_metal_flat_steel_01
0 96.81 159 78 0 0 1 8.882812 -373.831641 1 0 1
0 98.73 601 78 0 0 1 -8.382812 -373.756641 1 0 1
0 96.81 601 78 0 0 1 -8.382812 -373.831641 1 0 1
bridge_se1_metal_flat_steel_01
0 175.81 159 68 -1 0 0 10.5625 -7.769531 1 0 1
0 175.81 159 78 -1 0 0 10.953125 -7.769531 1 0 1
0 175.81 601 78 -1 0 0 10.953125 9.496094 1 0 1
bridge_se1_metal_flat_steel_01
0 175.81 159 68 -1 0 0 10.5625 -7.769531 1 0 1
0 175.81 601 78 -1 0 0 10.953125 9.496094 1 0 1
0 175.81 601 68 -1 0 0 10.5625 9.496094 1 0 1
bridge_se1_metal_flat_steel_01
0 177.73 159 78 1 0 0 10.953125 -7.769531 1 0 1
0 177.73 159 68 1 0 0 10.5625 -7.769531 1 0 1
0 177.73 601 68 1 0 0 10.5625 9.496094 1 0 1
bridge_se1_metal_flat_steel_01
0 177.73 159 78 1 0 0 10.953125 -7.769531 1 0 1
0 177.73 601 68 1 0 0 10.5625 9.496094 1 0 1
0 177.73 601 78 1 0 0 10.953125 9.496094 1 0 1
bridge_se1_metal_flat_steel_01
0 177.73 159 68 0 0 -1 372.073047 -7.769531 1 0 1
0 175.81 159 68 0 0 -1 372.148047 -7.769531 1 0 1
0 175.81 601 68 0 0 -1 372.148047 9.496094 1 0 1
bridge_se1_metal_flat_steel_01
0 177.73 159 68 0 0 -1 372.073047 -7.769531 1 0 1
0 175.81 601 68 0 0 -1 372.148047 9.496094 1 0 1
0 177.73 601 68 0 0 -1 372.073047 9.496094 1 0 1
bridge_se1_metal_flat_steel_01
0 175.81 159 78 0 0 1 8.882812 -370.831641 1 0 1
0 177.73 159 78 0 0 1 8.882812 -370.756641 1 0 1
0 177.73 601 78 0 0 1 -8.382812 -370.756641 1 0 1
bridge_se1_metal_flat_steel_01
0 175.81 159 78 0 0 1 8.882812 -370.831641 1 0 1
0 177.73 601 78 0 0 1 -8.382812 -370.756641 1 0 1
0 175.81 601 78 0 0 1 -8.382812 -370.831641 1 0 1
end
