version 1
nodes
0 "root" -1
end
skeleton
time 0
0 0 0 0 0 0 0
end
triangles
pepsi2_arch_woodf3
0 192 -78 106 0 1 0 117.375 -1.109375 1 0 1
0 192 -78 101.999 0 1 0 117.375 -1.140633 1 0 1
0 186 -78 101.999 0 1 0 117.421875 -1.140633 1 0 1
pepsi2_arch_woodf3
0 192 -78 106 0 1 0 117.375 -1.109375 1 0 1
0 186 -78 101.999 0 1 0 117.421875 -1.140633 1 0 1
0 186 -78 106 0 1 0 117.421875 -1.109375 1 0 1
cs_italy_woodbeam01
0 186 -96 120 -1 0 0 84.679043 168.502356 1 0 1
0 186 -92 120 -1 0 0 84.661365 168.325581 1 0 1
0 186 -78 106 -1 0 0 84.537618 168.325581 1 0 1
cs_italy_woodbeam01
0 186 -96 120 -1 0 0 84.679043 168.502356 1 0 1
0 186 -78 106 -1 0 0 84.537618 168.325581 1 0 1
0 186 -78 101.999 -1 0 0 84.519935 168.5024 1 0 1
pepsi2_arch_woodf3
0 192 -78 101.999 1 0 0 -27.445312 -1.140633 1 0 1
0 192 -78 106 1 0 0 -27.445312 -1.109375 1 0 1
0 192 -92 120 1 0 0 -27.554688 -1 1 0 1
pepsi2_arch_woodf3
0 192 -78 101.999 1 0 0 -27.445312 -1.140633 1 0 1
0 192 -92 120 1 0 0 -27.554688 -1 1 0 1
0 192 -96 120 1 0 0 -27.585938 -1 1 0 1
pepsi2_arch_woodf3
0 192 -96 120 0 0 1 -83.278739 -19.600725 1 0 1
0 192 -92 120 0 0 1 -83.278739 -19.578404 1 0 1
0 186 -92 120 0 0 1 -83.312221 -19.578404 1 0 1
pepsi2_arch_woodf3
0 192 -96 120 0 0 1 -83.278739 -19.600725 1 0 1
0 186 -92 120 0 0 1 -83.312221 -19.578404 1 0 1
0 186 -96 120 0 0 1 -83.312221 -19.600725 1 0 1
cs_italy_woodbeam01
0 186 -96 120 0 -0.707126 -0.707087 27.921875 -938.375 1 0 1
0 186 -78 101.999 0 -0.707126 -0.707087 27.78125 -938.375 1 0 1
0 192 -78 101.999 0 -0.707126 -0.707087 27.78125 -938 1 0 1
cs_italy_woodbeam01
0 186 -96 120 0 -0.707126 -0.707087 27.921875 -938.375 1 0 1
0 192 -78 101.999 0 -0.707126 -0.707087 27.78125 -938 1 0 1
0 192 -96 120 0 -0.707126 -0.707087 27.921875 -938 1 0 1
cs_italy_woodbeam01
0 192 -92 120 0 0.707107 0.707107 27.890625 -938 1 0 1
0 192 -78 106 0 0.707107 0.707107 27.78125 -938 1 0 1
0 186 -78 106 0 0.707107 0.707107 27.78125 -938.375 1 0 1
cs_italy_woodbeam01
0 192 -92 120 0 0.707107 0.707107 27.890625 -938 1 0 1
0 186 -78 106 0 0.707107 0.707107 27.78125 -938.375 1 0 1
0 186 -92 120 0 0.707107 0.707107 27.890625 -938.375 1 0 1
pepsi2_arch_woodf3
0 192 84 106 0 1 0 117.375 -1.109375 1 0 1
0 192 84 101.999 0 1 0 117.375 -1.140633 1 0 1
0 186 84 101.999 0 1 0 117.421875 -1.140633 1 0 1
pepsi2_arch_woodf3
0 192 84 106 0 1 0 117.375 -1.109375 1 0 1
0 186 84 101.999 0 1 0 117.421875 -1.140633 1 0 1
0 186 84 106 0 1 0 117.421875 -1.109375 1 0 1
cs_italy_woodbeam01
0 186 66 120 -1 0 0 83.677923 161.499219 1 0 1
0 186 70 120 -1 0 0 83.660245 161.322444 1 0 1
0 186 84 106 -1 0 0 83.536498 161.322444 1 0 1
cs_italy_woodbeam01
0 186 66 120 -1 0 0 83.677923 161.499219 1 0 1
0 186 84 106 -1 0 0 83.536498 161.322444 1 0 1
0 186 84 101.999 -1 0 0 83.518815 161.499263 1 0 1
pepsi2_arch_woodf3
0 192 84 101.999 1 0 0 -26.179688 -1.140633 1 0 1
0 192 84 106 1 0 0 -26.179688 -1.109375 1 0 1
0 192 70 120 1 0 0 -26.289062 -1 1 0 1
pepsi2_arch_woodf3
0 192 84 101.999 1 0 0 -26.179688 -1.140633 1 0 1
0 192 70 120 1 0 0 -26.289062 -1 1 0 1
0 192 66 120 1 0 0 -26.320313 -1 1 0 1
pepsi2_arch_woodf3
0 192 66 120 0 0 1 -83.278739 -18.696708 1 0 1
0 192 70 120 0 0 1 -83.278739 -18.674386 1 0 1
0 186 70 120 0 0 1 -83.312221 -18.674386 1 0 1
pepsi2_arch_woodf3
0 192 66 120 0 0 1 -83.278739 -18.696708 1 0 1
0 186 70 120 0 0 1 -83.312221 -18.674386 1 0 1
0 186 66 120 0 0 1 -83.312221 -18.696708 1 0 1
cs_italy_woodbeam01
0 186 66 120 0 -0.707126 -0.707087 26.921875 -938.375 1 0 1
0 186 84 101.999 0 -0.707126 -0.707087 26.78125 -938.375 1 0 1
0 192 84 101.999 0 -0.707126 -0.707087 26.78125 -938 1 0 1
cs_italy_woodbeam01
0 186 66 120 0 -0.707126 -0.707087 26.921875 -938.375 1 0 1
0 192 84 101.999 0 -0.707126 -0.707087 26.78125 -938 1 0 1
0 192 66 120 0 -0.707126 -0.707087 26.921875 -938 1 0 1
cs_italy_woodbeam01
0 192 70 120 0 0.707107 0.707107 26.890625 -938 1 0 1
0 192 84 106 0 0.707107 0.707107 26.78125 -938 1 0 1
0 186 84 106 0 0.707107 0.707107 26.78125 -938.375 1 0 1
cs_italy_woodbeam01
0 192 70 120 0 0.707107 0.707107 26.890625 -938 1 0 1
0 186 84 106 0 0.707107 0.707107 26.78125 -938.375 1 0 1
0 186 70 120 0 0.707107 0.707107 26.890625 -938.375 1 0 1
cs_italy_cellarwall01c
0 -55 -132 40 0 1 0 -198.366536 -2.544922 1 0 1
0 -55 -132 0 0 1 0 -198.366536 -3.065755 1 0 1
0 -114 -132 0 0 1 0 -199.134766 -3.065755 1 0 1
cs_italy_cellarwall01c
0 -55 -132 40 0 1 0 -198.366536 -2.544922 1 0 1
0 -114 -132 0 0 1 0 -199.134766 -3.065755 1 0 1
0 -114 -132 40 0 1 0 -199.134766 -2.544922 1 0 1
cs_italy_cellarwall01c
0 -55 -164 0 0 -1 0 198.679036 -3.065755 1 0 1
0 -55 -164 40 0 -1 0 198.679036 -2.544922 1 0 1
0 -114 -164 40 0 -1 0 199.447266 -2.544922 1 0 1
cs_italy_cellarwall01c
0 -55 -164 0 0 -1 0 198.679036 -3.065755 1 0 1
0 -114 -164 40 0 -1 0 199.447266 -2.544922 1 0 1
0 -114 -164 0 0 -1 0 199.447266 -3.065755 1 0 1
cs_italy_cellarwall01c
0 -114 -164 0 -1 0 0 -47.551432 -3.065755 1 0 1
0 -114 -164 40 -1 0 0 -47.551432 -2.544922 1 0 1
0 -114 -132 40 -1 0 0 -47.134766 -2.544922 1 0 1
cs_italy_cellarwall01c
0 -114 -164 0 -1 0 0 -47.551432 -3.065755 1 0 1
0 -114 -132 40 -1 0 0 -47.134766 -2.544922 1 0 1
0 -114 -132 0 -1 0 0 -47.134766 -3.065755 1 0 1
cs_italy_woodbeam01
0 186 -70 128 0 1 0 -117.046875 16.5 1 0 1
0 186 -70 120 0 1 0 -117.046875 17 1 0 1
0 -194 -70 120 0 1 0 -120.015625 17 1 0 1
cs_italy_woodbeam01
0 186 -70 128 0 1 0 -117.046875 16.5 1 0 1
0 -194 -70 120 0 1 0 -120.015625 17 1 0 1
0 -194 -70 128 0 1 0 -120.015625 16.5 1 0 1
cs_italy_woodbeam01
0 186 -78 120 0 -1 0 117.203125 17 1 0 1
0 186 -78 128 0 -1 0 117.203125 16.5 1 0 1
0 -194 -78 128 0 -1 0 120.171875 16.5 1 0 1
cs_italy_woodbeam01
0 186 -78 120 0 -1 0 117.203125 17 1 0 1
0 -194 -78 128 0 -1 0 120.171875 16.5 1 0 1
0 -194 -78 120 0 -1 0 120.171875 17 1 0 1
pepsi2_arch_woodf3
0 -194 -78 120 -1 0 0 27.445312 -1 1 0 1
0 -194 -78 128 -1 0 0 27.445312 -0.9375 1 0 1
0 -194 -70 128 -1 0 0 27.382812 -0.9375 1 0 1
pepsi2_arch_woodf3
0 -194 -78 120 -1 0 0 27.445312 -1 1 0 1
0 -194 -70 128 -1 0 0 27.382812 -0.9375 1 0 1
0 -194 -70 120 -1 0 0 27.382812 -1 1 0 1
pepsi2_arch_woodf3
0 186 -78 128 1 0 0 -27.445312 -0.9375 1 0 1
0 186 -78 120 1 0 0 -27.445312 -1 1 0 1
0 186 -70 120 1 0 0 -27.382812 -1 1 0 1
pepsi2_arch_woodf3
0 186 -78 128 1 0 0 -27.445312 -0.9375 1 0 1
0 186 -70 120 1 0 0 -27.382812 -1 1 0 1
0 186 -70 128 1 0 0 -27.382812 -0.9375 1 0 1
cs_italy_woodbeam01
0 186 -78 120 0 0 -1 117.203125 -219 1 0 1
0 -194 -78 120 0 0 -1 120.171875 -219 1 0 1
0 -194 -70 120 0 0 -1 120.171875 -218.5 1 0 1
cs_italy_woodbeam01
0 186 -78 120 0 0 -1 117.203125 -219 1 0 1
0 -194 -70 120 0 0 -1 120.171875 -218.5 1 0 1
0 186 -70 120 0 0 -1 117.203125 -218.5 1 0 1
cs_italy_woodbeam01
0 192 92 120 0 1 0 -1.0625 -937.625 1 0 1
0 192 92 0 0 1 0 -2 -937.625 1 0 1
0 186 92 0 0 1 0 -2 -938 1 0 1
cs_italy_woodbeam01
0 192 92 120 0 1 0 -1.0625 -937.625 1 0 1
0 186 92 0 0 1 0 -2 -938 1 0 1
0 186 92 120 0 1 0 -1.0625 -938 1 0 1
cs_italy_woodbeam01
0 192 84 0 0 -1 0 -2 -937.625 1 0 1
0 192 84 120 0 -1 0 -1.0625 -937.625 1 0 1
0 186 84 120 0 -1 0 -1.0625 -938 1 0 1
cs_italy_woodbeam01
0 192 84 0 0 -1 0 -2 -937.625 1 0 1
0 186 84 120 0 -1 0 -1.0625 -938 1 0 1
0 186 84 0 0 -1 0 -2 -938 1 0 1
cs_italy_woodbeam01
0 186 84 0 -1 0 0 -2 -209 1 0 1
0 186 84 120 -1 0 0 -1.0625 -209 1 0 1
0 186 92 120 -1 0 0 -1.0625 -208.5 1 0 1
cs_italy_woodbeam01
0 186 84 0 -1 0 0 -2 -209 1 0 1
0 186 92 120 -1 0 0 -1.0625 -208.5 1 0 1
0 186 92 0 -1 0 0 -2 -208.5 1 0 1
cs_italy_woodbeam01
0 192 84 120 1 0 0 2 -209 1 0 1
0 192 84 0 1 0 0 2.9375 -209 1 0 1
0 192 92 0 1 0 0 2.9375 -208.5 1 0 1
cs_italy_woodbeam01
0 192 84 120 1 0 0 2 -209 1 0 1
0 192 92 0 1 0 0 2.9375 -208.5 1 0 1
0 192 92 120 1 0 0 2 -208.5 1 0 1
pepsi2_arch_woodf3
0 192 84 0 0 0 -1 -83.278739 -18.596261 1 0 1
0 186 84 0 0 0 -1 -83.312221 -18.596261 1 0 1
0 186 92 0 0 0 -1 -83.312221 -18.551618 1 0 1
pepsi2_arch_woodf3
0 192 84 0 0 0 -1 -83.278739 -18.596261 1 0 1
0 186 92 0 0 0 -1 -83.312221 -18.551618 1 0 1
0 192 92 0 0 0 -1 -83.278739 -18.551618 1 0 1
pepsi2_arch_woodf3
0 186 84 120 0 0 1 -83.312221 -18.596261 1 0 1
0 192 84 120 0 0 1 -83.278739 -18.596261 1 0 1
0 192 92 120 0 0 1 -83.278739 -18.551618 1 0 1
pepsi2_arch_woodf3
0 186 84 120 0 0 1 -83.312221 -18.596261 1 0 1
0 192 92 120 0 0 1 -83.278739 -18.551618 1 0 1
0 186 92 120 0 0 1 -83.312221 -18.551618 1 0 1
pepsi2_arch_woodf3
0 192 92 102.001 0 -1 0 -117.375 -1.140617 1 0 1
0 192 92 106 0 -1 0 -117.375 -1.109375 1 0 1
0 186 92 106 0 -1 0 -117.421875 -1.109375 1 0 1
pepsi2_arch_woodf3
0 192 92 102.001 0 -1 0 -117.375 -1.140617 1 0 1
0 186 92 106 0 -1 0 -117.421875 -1.109375 1 0 1
0 186 92 102.001 0 -1 0 -117.421875 -1.140617 1 0 1
cs_italy_woodbeam01
0 186 92 102.001 -1 0 0 54.121982 136.990038 1 0 1
0 186 92 106 -1 0 0 54.139655 137.166769 1 0 1
0 186 106 120 -1 0 0 54.263402 137.166769 1 0 1
cs_italy_woodbeam01
0 186 92 102.001 -1 0 0 54.121982 136.990038 1 0 1
0 186 106 120 -1 0 0 54.263402 137.166769 1 0 1
0 186 110 120 -1 0 0 54.28108 136.989994 1 0 1
pepsi2_arch_woodf3
0 192 92 106 1 0 0 -26.117188 -1.109375 1 0 1
0 192 92 102.001 1 0 0 -26.117188 -1.140617 1 0 1
0 192 110 120 1 0 0 -25.976562 -1 1 0 1
pepsi2_arch_woodf3
0 192 92 106 1 0 0 -26.117188 -1.109375 1 0 1
0 192 110 120 1 0 0 -25.976562 -1 1 0 1
0 192 106 120 1 0 0 -26.007812 -1 1 0 1
pepsi2_arch_woodf3
0 192 106 120 0 0 1 -83.278739 -18.473493 1 0 1
0 192 110 120 0 0 1 -83.278739 -18.451172 1 0 1
0 186 110 120 0 0 1 -83.312221 -18.451172 1 0 1
pepsi2_arch_woodf3
0 192 106 120 0 0 1 -83.278739 -18.473493 1 0 1
0 186 110 120 0 0 1 -83.312221 -18.451172 1 0 1
0 186 106 120 0 0 1 -83.312221 -18.473493 1 0 1
cs_italy_woodbeam01
0 192 92 102.001 0 0.707087 -0.707126 -26.21875 939.625 1 0 1
0 186 92 102.001 0 0.707087 -0.707126 -26.21875 940 1 0 1
0 186 110 120 0 0.707087 -0.707126 -26.078125 940 1 0 1
cs_italy_woodbeam01
0 192 92 102.001 0 0.707087 -0.707126 -26.21875 939.625 1 0 1
0 186 110 120 0 0.707087 -0.707126 -26.078125 940 1 0 1
0 192 110 120 0 0.707087 -0.707126 -26.078125 939.625 1 0 1
cs_italy_woodbeam01
0 186 92 106 0 -0.707107 0.707107 -26.21875 940 1 0 1
0 192 92 106 0 -0.707107 0.707107 -26.21875 939.625 1 0 1
0 192 106 120 0 -0.707107 0.707107 -26.109375 939.625 1 0 1
cs_italy_woodbeam01
0 186 92 106 0 -0.707107 0.707107 -26.21875 940 1 0 1
0 192 106 120 0 -0.707107 0.707107 -26.109375 939.625 1 0 1
0 186 106 120 0 -0.707107 0.707107 -26.109375 940 1 0 1
cs_italy_woodbeam01
0 192 -70 120 0 1 0 -1.0625 -937.625 1 0 1
0 192 -70 0 0 1 0 -2 -937.625 1 0 1
0 186 -70 0 0 1 0 -2 -938 1 0 1
cs_italy_woodbeam01
0 192 -70 120 0 1 0 -1.0625 -937.625 1 0 1
0 186 -70 0 0 1 0 -2 -938 1 0 1
0 186 -70 120 0 1 0 -1.0625 -938 1 0 1
cs_italy_woodbeam01
0 192 -78 0 0 -1 0 -2 -937.625 1 0 1
0 192 -78 120 0 -1 0 -1.0625 -937.625 1 0 1
0 186 -78 120 0 -1 0 -1.0625 -938 1 0 1
cs_italy_woodbeam01
0 192 -78 0 0 -1 0 -2 -937.625 1 0 1
0 186 -78 120 0 -1 0 -1.0625 -938 1 0 1
0 186 -78 0 0 -1 0 -2 -938 1 0 1
cs_italy_woodbeam01
0 186 -78 0 -1 0 0 -2 -219 1 0 1
0 186 -78 120 -1 0 0 -1.0625 -219 1 0 1
0 186 -70 120 -1 0 0 -1.0625 -218.5 1 0 1
cs_italy_woodbeam01
0 186 -78 0 -1 0 0 -2 -219 1 0 1
0 186 -70 120 -1 0 0 -1.0625 -218.5 1 0 1
0 186 -70 0 -1 0 0 -2 -218.5 1 0 1
cs_italy_woodbeam01
0 192 -78 120 1 0 0 2 -219 1 0 1
0 192 -78 0 1 0 0 2.9375 -219 1 0 1
0 192 -70 0 1 0 0 2.9375 -218.5 1 0 1
cs_italy_woodbeam01
0 192 -78 120 1 0 0 2 -219 1 0 1
0 192 -70 0 1 0 0 2.9375 -218.5 1 0 1
0 192 -70 120 1 0 0 2 -218.5 1 0 1
pepsi2_arch_woodf3
0 192 -78 0 0 0 -1 -83.278739 -19.500279 1 0 1
0 186 -78 0 0 0 -1 -83.312221 -19.500279 1 0 1
0 186 -70 0 0 0 -1 -83.312221 -19.455636 1 0 1
pepsi2_arch_woodf3
0 192 -78 0 0 0 -1 -83.278739 -19.500279 1 0 1
0 186 -70 0 0 0 -1 -83.312221 -19.455636 1 0 1
0 192 -70 0 0 0 -1 -83.278739 -19.455636 1 0 1
pepsi2_arch_woodf3
0 186 -78 120 0 0 1 -83.312221 -19.500279 1 0 1
0 192 -78 120 0 0 1 -83.278739 -19.500279 1 0 1
0 192 -70 120 0 0 1 -83.278739 -19.455636 1 0 1
pepsi2_arch_woodf3
0 186 -78 120 0 0 1 -83.312221 -19.500279 1 0 1
0 192 -70 120 0 0 1 -83.278739 -19.455636 1 0 1
0 186 -70 120 0 0 1 -83.312221 -19.455636 1 0 1
cs_italy_cellarwall01c
0 -23 124 40 0 1 0 -197.486979 -2.544922 1 0 1
0 -23 124 0 0 1 0 -197.486979 -3.065755 1 0 1
0 -55 124 0 0 1 0 -197.903646 -3.065755 1 0 1
cs_italy_cellarwall01c
0 -23 124 40 0 1 0 -197.486979 -2.544922 1 0 1
0 -55 124 0 0 1 0 -197.903646 -3.065755 1 0 1
0 -55 124 40 0 1 0 -197.903646 -2.544922 1 0 1
cs_italy_cellarwall01c
0 -23 -164 0 0 -1 0 198.26237 -3.065755 1 0 1
0 -23 -164 40 0 -1 0 198.26237 -2.544922 1 0 1
0 -55 -164 40 0 -1 0 198.679036 -2.544922 1 0 1
cs_italy_cellarwall01c
0 -23 -164 0 0 -1 0 198.26237 -3.065755 1 0 1
0 -55 -164 40 0 -1 0 198.679036 -2.544922 1 0 1
0 -55 -164 0 0 -1 0 198.679036 -3.065755 1 0 1
cs_italy_cellarwall01c
0 -55 -164 0 -1 0 0 -47.551432 -3.065755 1 0 1
0 -55 -164 40 -1 0 0 -47.551432 -2.544922 1 0 1
0 -55 124 40 -1 0 0 -43.801432 -2.544922 1 0 1
cs_italy_cellarwall01c
0 -55 -164 0 -1 0 0 -47.551432 -3.065755 1 0 1
0 -55 124 40 -1 0 0 -43.801432 -2.544922 1 0 1
0 -55 124 0 -1 0 0 -43.801432 -3.065755 1 0 1
cs_italy_cellarwall01c
0 -23 -164 40 1 0 0 47.26237 -2.544922 1 0 1
0 -23 -164 0 1 0 0 47.26237 -3.065755 1 0 1
0 -23 124 0 1 0 0 43.51237 -3.065755 1 0 1
cs_italy_cellarwall01c
0 -23 -164 40 1 0 0 47.26237 -2.544922 1 0 1
0 -23 124 0 1 0 0 43.51237 -3.065755 1 0 1
0 -23 124 40 1 0 0 43.51237 -2.544922 1 0 1
cs_italy_woodbeam01
0 201 117 108.001 0 1 0 -2.078117 -937.21875 1 0 1
0 201 117 0 0 1 0 -2.921875 -937.21875 1 0 1
0 192 117 0 0 1 0 -2.921875 -937.78125 1 0 1
cs_italy_woodbeam01
0 201 117 108.001 0 1 0 -2.078117 -937.21875 1 0 1
0 192 117 0 0 1 0 -2.921875 -937.78125 1 0 1
0 192 117 108.001 0 1 0 -2.078117 -937.78125 1 0 1
cs_italy_woodbeam01
0 192 113 0 -1 0 0 -2.9375 -206.625 1 0 1
0 192 113 112.001 -1 0 0 -2.062492 -206.625 1 0 1
0 192 117 108.001 -1 0 0 -2.093742 -206.375 1 0 1
cs_italy_woodbeam01
0 192 113 0 -1 0 0 -2.9375 -206.625 1 0 1
0 192 117 108.001 -1 0 0 -2.093742 -206.375 1 0 1
0 192 117 0 -1 0 0 -2.9375 -206.375 1 0 1
cs_italy_cellarwall01
0 201 113 112.001 1 0 0 2.929674 44.475911 1 0 1
0 201 113 0 1 0 0 4.388021 44.475911 1 0 1
0 201 117 0 1 0 0 4.388021 44.423828 1 0 1
cs_italy_cellarwall01
0 201 113 112.001 1 0 0 2.929674 44.475911 1 0 1
0 201 117 0 1 0 0 4.388021 44.423828 1 0 1
0 201 117 108.001 1 0 0 2.981758 44.423828 1 0 1
cs_havana_woodm
0 -18 -169 43.004 0.707578 0 -0.706636 47.444661 -141.7516 1 0 1
0 -18.003995 -169 43 0.707578 0 -0.706636 47.444661 -141.751673 1 0 1
0 -21 -167 40 0.707578 0 -0.706636 47.41862 -141.806879 1 0 1
cs_havana_woodm
0 -18 -169 43.004 0.707578 0 -0.706636 47.444661 -141.7516 1 0 1
0 -21 -167 40 0.707578 0 -0.706636 47.41862 -141.806879 1 0 1
0 -21 127 40 0.707578 0 -0.706636 43.590495 -141.806879 1 0 1
cs_havana_woodm
0 -18 -169 43.004 0.707578 0 -0.706636 47.444661 -141.7516 1 0 1
0 -21 127 40 0.707578 0 -0.706636 43.590495 -141.806879 1 0 1
0 -18.003995 129 43 0.707578 0 -0.706636 43.564453 -141.751673 1 0 1
cs_havana_woodm
0 -18 -169 43.004 0.707578 0 -0.706636 47.444661 -141.7516 1 0 1
0 -18.003995 129 43 0.707578 0 -0.706636 43.564453 -141.751673 1 0 1
0 -18 129 43.004 0.707578 0 -0.706636 43.564453 -141.7516 1 0 1
cs_havana_woodm
0 -21 -167 40 0 -0.83205 -0.5547 -22.481039 199.310547 1 0 1
0 -18.003995 -169 43 0 -0.83205 -0.5547 -22.527988 199.271536 1 0 1
0 -55 -169 43 0 -0.83205 -0.5547 -22.527988 199.753255 1 0 1
cs_havana_woodm
0 -21 -167 40 0 -0.83205 -0.5547 -22.481039 199.310547 1 0 1
0 -55 -169 43 0 -0.83205 -0.5547 -22.527988 199.753255 1 0 1
0 -55 -167 40 0 -0.83205 -0.5547 -22.481039 199.753255 1 0 1
cs_havana_woodm
0 -55 129 43 0 0.83205 -0.5547 -28.460645 199.753255 1 0 1
0 -18.003995 129 43 0 0.83205 -0.5547 -28.460645 199.271536 1 0 1
0 -21 127 40 0 0.83205 -0.5547 -28.507594 199.310547 1 0 1
cs_havana_woodm
0 -55 129 43 0 0.83205 -0.5547 -28.460645 199.753255 1 0 1
0 -21 127 40 0 0.83205 -0.5547 -28.507594 199.310547 1 0 1
0 -55 127 40 0 0.83205 -0.5547 -28.507594 199.753255 1 0 1
cs_havana_woodm
0 -18 129 45 0 1 0 -3.434896 199.271484 1 0 1
0 -18 129 43.004 0 1 0 -3.460885 199.271484 1 0 1
0 -18.003995 129 43 0 1 0 -3.460938 199.271536 1 0 1
cs_havana_woodm
0 -18 129 45 0 1 0 -3.434896 199.271484 1 0 1
0 -18.003995 129 43 0 1 0 -3.460938 199.271536 1 0 1
0 -55 129 43 0 1 0 -3.460938 199.753255 1 0 1
cs_havana_woodm
0 -18 129 45 0 1 0 -3.434896 199.271484 1 0 1
0 -55 129 43 0 1 0 -3.460938 199.753255 1 0 1
0 -55 129 45 0 1 0 -3.434896 199.753255 1 0 1
cs_havana_woodm
0 -18.003995 -169 43 0 -1 0 3.470703 199.271536 1 0 1
0 -18 -169 43.004 0 -1 0 3.470651 199.271484 1 0 1
0 -18 -169 45 0 -1 0 3.444661 199.271484 1 0 1
cs_havana_woodm
0 -18.003995 -169 43 0 -1 0 3.470703 199.271536 1 0 1
0 -18 -169 45 0 -1 0 3.444661 199.271484 1 0 1
0 -55 -169 45 0 -1 0 3.444661 199.753255 1 0 1
cs_havana_woodm
0 -18.003995 -169 43 0 -1 0 3.470703 199.271536 1 0 1
0 -55 -169 45 0 -1 0 3.444661 199.753255 1 0 1
0 -55 -169 43 0 -1 0 3.470703 199.753255 1 0 1
cs_havana_woodm
0 -55 129 45 -1 0 0 43.564453 4.753255 1 0 1
0 -55 129 43 -1 0 0 43.564453 4.779297 1 0 1
0 -55 127 40 -1 0 0 43.590495 4.818359 1 0 1
cs_havana_woodm
0 -55 129 45 -1 0 0 43.564453 4.753255 1 0 1
0 -55 127 40 -1 0 0 43.590495 4.818359 1 0 1
0 -55 -167 40 -1 0 0 47.41862 4.818359 1 0 1
cs_havana_woodm
0 -55 129 45 -1 0 0 43.564453 4.753255 1 0 1
0 -55 -167 40 -1 0 0 47.41862 4.818359 1 0 1
0 -55 -169 43 -1 0 0 47.444661 4.779297 1 0 1
cs_havana_woodm
0 -55 129 45 -1 0 0 43.564453 4.753255 1 0 1
0 -55 -169 43 -1 0 0 47.444661 4.779297 1 0 1
0 -55 -169 45 -1 0 0 47.444661 4.753255 1 0 1
cs_havana_woodm
0 -18 -169 45 1 0 0 47.444661 -2.727865 1 0 1
0 -18 -169 43.004 1 0 0 47.444661 -2.753854 1 0 1
0 -18 129 43.004 1 0 0 43.564453 -2.753854 1 0 1
cs_havana_woodm
0 -18 -169 45 1 0 0 47.444661 -2.727865 1 0 1
0 -18 129 43.004 1 0 0 43.564453 -2.753854 1 0 1
0 -18 129 45 1 0 0 43.564453 -2.727865 1 0 1
cs_italy_cellarwall01
0 -55 127 40 0 0 -1 119.304688 27.054688 1 0 1
0 -21 127 40 0 0 -1 119.039062 27.054688 1 0 1
0 -21 -167 40 0 0 -1 119.039062 29.351562 1 0 1
cs_italy_cellarwall01
0 -55 127 40 0 0 -1 119.304688 27.054688 1 0 1
0 -21 -167 40 0 0 -1 119.039062 29.351562 1 0 1
0 -55 -167 40 0 0 -1 119.304688 29.351562 1 0 1
cs_havana_woodm
0 -55 -169 45 0 0 1 47.444661 199.753255 1 0 1
0 -18 -169 45 0 0 1 47.444661 199.271484 1 0 1
0 -18 129 45 0 0 1 43.564453 199.271484 1 0 1
cs_havana_woodm
0 -55 -169 45 0 0 1 47.444661 199.753255 1 0 1
0 -18 129 45 0 0 1 43.564453 199.271484 1 0 1
0 -55 129 45 0 0 1 43.564453 199.753255 1 0 1
cs_italy_woodbeam01
0 186 92 128 0 1 0 -116.984375 16.5 1 0 1
0 186 92 120 0 1 0 -116.984375 17 1 0 1
0 -194 92 120 0 1 0 -119.953125 17 1 0 1
cs_italy_woodbeam01
0 186 92 128 0 1 0 -116.984375 16.5 1 0 1
0 -194 92 120 0 1 0 -119.953125 17 1 0 1
0 -194 92 128 0 1 0 -119.953125 16.5 1 0 1
cs_italy_woodbeam01
0 186 84 120 0 -1 0 117.140625 17 1 0 1
0 186 84 128 0 -1 0 117.140625 16.5 1 0 1
0 -194 84 128 0 -1 0 120.109375 16.5 1 0 1
cs_italy_woodbeam01
0 186 84 120 0 -1 0 117.140625 17 1 0 1
0 -194 84 128 0 -1 0 120.109375 16.5 1 0 1
0 -194 84 120 0 -1 0 120.109375 17 1 0 1
cs_italy_woodbeam01
0 -194 84 120 -1 0 0 27.109375 -14.5 1 0 1
0 -194 84 128 -1 0 0 27.109375 -14 1 0 1
0 -194 92 128 -1 0 0 27.046875 -14 1 0 1
cs_italy_woodbeam01
0 -194 84 120 -1 0 0 27.109375 -14.5 1 0 1
0 -194 92 128 -1 0 0 27.046875 -14 1 0 1
0 -194 92 120 -1 0 0 27.046875 -14.5 1 0 1
cs_italy_woodbeam01
0 186 84 128 1 0 0 27.109375 16.5 1 0 1
0 186 84 120 1 0 0 27.109375 17 1 0 1
0 186 92 120 1 0 0 27.046875 17 1 0 1
cs_italy_woodbeam01
0 186 84 128 1 0 0 27.109375 16.5 1 0 1
0 186 92 120 1 0 0 27.046875 17 1 0 1
0 186 92 128 1 0 0 27.046875 16.5 1 0 1
cs_italy_woodbeam01
0 186 84 120 0 0 -1 117.140625 -209 1 0 1
0 -194 84 120 0 0 -1 120.109375 -209 1 0 1
0 -194 92 120 0 0 -1 120.109375 -208.5 1 0 1
cs_italy_woodbeam01
0 186 84 120 0 0 -1 117.140625 -209 1 0 1
0 -194 92 120 0 0 -1 120.109375 -208.5 1 0 1
0 186 92 120 0 0 -1 117.140625 -208.5 1 0 1
cs_italy_cellarwall01c
0 -55 124 40 0 1 0 -197.903646 -2.544922 1 0 1
0 -55 124 0 0 1 0 -197.903646 -3.065755 1 0 1
0 -200 124 0 0 1 0 -199.791667 -3.065755 1 0 1
cs_italy_cellarwall01c
0 -55 124 40 0 1 0 -197.903646 -2.544922 1 0 1
0 -200 124 0 0 1 0 -199.791667 -3.065755 1 0 1
0 -200 124 40 0 1 0 -199.791667 -2.544922 1 0 1
cs_italy_cellarwall01c
0 -55 92 0 0 -1 0 198.013021 -3.065755 1 0 1
0 -55 92 40 0 -1 0 198.013021 -2.544922 1 0 1
0 -200 92 40 0 -1 0 199.901042 -2.544922 1 0 1
cs_italy_cellarwall01c
0 -55 92 0 0 -1 0 198.013021 -3.065755 1 0 1
0 -200 92 40 0 -1 0 199.901042 -2.544922 1 0 1
0 -200 92 0 0 -1 0 199.901042 -3.065755 1 0 1
cs_italy_woodbeam01
0 201 165 0 0 -1 0 2.140625 -937.21875 1 0 1
0 201 165 108.014 0 -1 0 1.296766 -937.21875 1 0 1
0 192 165 108.016 0 -1 0 1.29675 -937.78125 1 0 1
cs_italy_woodbeam01
0 201 165 0 0 -1 0 2.140625 -937.21875 1 0 1
0 192 165 108.016 0 -1 0 1.29675 -937.78125 1 0 1
0 192 165 0 0 -1 0 2.140625 -937.78125 1 0 1
cs_italy_woodbeam01
0 192 165 0 -1 0 0 -2.9375 -203.625 1 0 1
0 192 165 108.016 -1 0 0 -2.093625 -203.625 1 0 1
0 192 169 112.018 -1 0 0 -2.062359 -203.375 1 0 1
cs_italy_woodbeam01
0 192 165 0 -1 0 0 -2.9375 -203.625 1 0 1
0 192 169 112.018 -1 0 0 -2.062359 -203.375 1 0 1
0 192 169 0 -1 0 0 -2.9375 -203.375 1 0 1
cs_italy_cellarwall01
0 201 169 112.016 1 0 0 2.929479 43.746745 1 0 1
0 201 165 108.014 1 0 0 2.981589 43.798828 1 0 1
0 201 165 0 1 0 0 4.388021 43.798828 1 0 1
cs_italy_cellarwall01
0 201 169 112.016 1 0 0 2.929479 43.746745 1 0 1
0 201 165 0 1 0 0 4.388021 43.798828 1 0 1
0 201 169 0 1 0 0 4.388021 43.746745 1 0 1
cs_italy_woodbeam01
0 192 113 112 -1 0 0 26.71875 -15.375 1 0 1
0 192 169 112 -1 0 0 26.28125 -15.375 1 0 1
0 192 165 108 -1 0 0 26.3125 -15.625 1 0 1
cs_italy_woodbeam01
0 192 113 112 -1 0 0 26.71875 -15.375 1 0 1
0 192 165 108 -1 0 0 26.3125 -15.625 1 0 1
0 192 117 108 -1 0 0 26.6875 -15.625 1 0 1
cs_italy_cellarwall01
0 201 117 108 1 0 0 2.981771 44.423828 1 0 1
0 201 165 108 1 0 0 2.981771 43.798828 1 0 1
0 201 169 112 1 0 0 2.929688 43.746745 1 0 1
cs_italy_cellarwall01
0 201 117 108 1 0 0 2.981771 44.423828 1 0 1
0 201 169 112 1 0 0 2.929688 43.746745 1 0 1
0 201 113 112 1 0 0 2.929688 44.475911 1 0 1
cs_italy_woodbeam01
0 192 117 108 0 0 -1 -26.078125 -937.78125 1 0 1
0 192 165 108 0 0 -1 -25.703125 -937.78125 1 0 1
0 201 165 108 0 0 -1 -25.703125 -937.21875 1 0 1
cs_italy_woodbeam01
0 192 117 108 0 0 -1 -26.078125 -937.78125 1 0 1
0 201 165 108 0 0 -1 -25.703125 -937.21875 1 0 1
0 201 117 108 0 0 -1 -26.078125 -937.21875 1 0 1
pepsi2_arch_woodf3
0 192 -70 102.001 0 -1 0 -117.375 -1.140617 1 0 1
0 192 -70 106 0 -1 0 -117.375 -1.109375 1 0 1
0 186 -70 106 0 -1 0 -117.421875 -1.109375 1 0 1
pepsi2_arch_woodf3
0 192 -70 102.001 0 -1 0 -117.375 -1.140617 1 0 1
0 186 -70 106 0 -1 0 -117.421875 -1.109375 1 0 1
0 186 -70 102.001 0 -1 0 -117.421875 -1.140617 1 0 1
cs_italy_woodbeam01
0 186 -70 102.001 -1 0 0 53.120861 143.993175 1 0 1
0 186 -70 106 -1 0 0 53.138535 144.169906 1 0 1
0 186 -56 120 -1 0 0 53.262282 144.169906 1 0 1
cs_italy_woodbeam01
0 186 -70 102.001 -1 0 0 53.120861 143.993175 1 0 1
0 186 -56 120 -1 0 0 53.262282 144.169906 1 0 1
0 186 -52 120 -1 0 0 53.27996 143.993131 1 0 1
pepsi2_arch_woodf3
0 192 -70 106 1 0 0 -27.382812 -1.109375 1 0 1
0 192 -70 102.001 1 0 0 -27.382812 -1.140617 1 0 1
0 192 -52 120 1 0 0 -27.242188 -1 1 0 1
pepsi2_arch_woodf3
0 192 -70 106 1 0 0 -27.382812 -1.109375 1 0 1
0 192 -52 120 1 0 0 -27.242188 -1 1 0 1
0 192 -56 120 1 0 0 -27.273438 -1 1 0 1
pepsi2_arch_woodf3
0 192 -56 120 0 0 1 -83.278739 -19.377511 1 0 1
0 192 -52 120 0 0 1 -83.278739 -19.35519 1 0 1
0 186 -52 120 0 0 1 -83.312221 -19.35519 1 0 1
pepsi2_arch_woodf3
0 192 -56 120 0 0 1 -83.278739 -19.377511 1 0 1
0 186 -52 120 0 0 1 -83.312221 -19.35519 1 0 1
0 186 -56 120 0 0 1 -83.312221 -19.377511 1 0 1
cs_italy_woodbeam01
0 186 -70 106 0 -0.707107 0.707107 -28.21875 940 1 0 1
0 192 -70 106 0 -0.707107 0.707107 -28.21875 939.625 1 0 1
0 192 -56 120 0 -0.707107 0.707107 -28.109375 939.625 1 0 1
cs_italy_woodbeam01
0 186 -70 106 0 -0.707107 0.707107 -28.21875 940 1 0 1
0 192 -56 120 0 -0.707107 0.707107 -28.109375 939.625 1 0 1
0 186 -56 120 0 -0.707107 0.707107 -28.109375 940 1 0 1
cs_italy_woodbeam01
0 192 -70 102.001 0 0.707087 -0.707126 -28.21875 939.625 1 0 1
0 186 -70 102.001 0 0.707087 -0.707126 -28.21875 940 1 0 1
0 186 -52 120 0 0.707087 -0.707126 -28.078125 940 1 0 1
cs_italy_woodbeam01
0 192 -70 102.001 0 0.707087 -0.707126 -28.21875 939.625 1 0 1
0 186 -52 120 0 0.707087 -0.707126 -28.078125 940 1 0 1
0 192 -52 120 0 0.707087 -0.707126 -28.078125 939.625 1 0 1
cs_havana_woodm
0 -55 129 45 0 1 0 -3.434896 199.753255 1 0 1
0 -55 129 43 0 1 0 -3.460938 199.753255 1 0 1
0 -200 129 43 0 1 0 -3.460938 201.641276 1 0 1
cs_havana_woodm
0 -55 129 45 0 1 0 -3.434896 199.753255 1 0 1
0 -200 129 43 0 1 0 -3.460938 201.641276 1 0 1
0 -200 129 45 0 1 0 -3.434896 201.641276 1 0 1
cs_havana_woodm
0 -55 92 40 0 -1 0 4.111328 199.753255 1 0 1
0 -55 92 45 0 -1 0 4.046224 199.753255 1 0 1
0 -200 92 45 0 -1 0 4.046224 201.641276 1 0 1
cs_havana_woodm
0 -55 92 40 0 -1 0 4.111328 199.753255 1 0 1
0 -200 92 45 0 -1 0 4.046224 201.641276 1 0 1
0 -200 92 40 0 -1 0 4.111328 201.641276 1 0 1
cs_italy_cellarwall01
0 -55 92 40 0 0 -1 119.304688 27.328125 1 0 1
0 -200 92 40 0 0 -1 120.4375 27.328125 1 0 1
0 -200 127 40 0 0 -1 120.4375 27.054688 1 0 1
cs_italy_cellarwall01
0 -55 92 40 0 0 -1 119.304688 27.328125 1 0 1
0 -200 127 40 0 0 -1 120.4375 27.054688 1 0 1
0 -55 127 40 0 0 -1 119.304688 27.054688 1 0 1
cs_havana_woodm
0 -200 92 45 0 0 1 44.046224 201.641276 1 0 1
0 -55 92 45 0 0 1 44.046224 199.753255 1 0 1
0 -55 129 45 0 0 1 43.564453 199.753255 1 0 1
cs_havana_woodm
0 -200 92 45 0 0 1 44.046224 201.641276 1 0 1
0 -55 129 45 0 0 1 43.564453 199.753255 1 0 1
0 -200 129 45 0 0 1 43.564453 201.641276 1 0 1
cs_havana_woodm
0 -200 127 40 0 0.83205 -0.5547 -28.507594 201.641276 1 0 1
0 -200 129 43 0 0.83205 -0.5547 -28.460645 201.641276 1 0 1
0 -55 129 43 0 0.83205 -0.5547 -28.460645 199.753255 1 0 1
cs_havana_woodm
0 -200 127 40 0 0.83205 -0.5547 -28.507594 201.641276 1 0 1
0 -55 129 43 0 0.83205 -0.5547 -28.460645 199.753255 1 0 1
0 -55 127 40 0 0.83205 -0.5547 -28.507594 199.753255 1 0 1
end
