version 1
nodes
0 "root" -1
end
skeleton
time 0
0 0 0 0 0 0 0
end
triangles
phys
0 -11 -124 223.001 0 0 1 1 0 1 0 1
0 -11 -124 216 0 0 1 1 0 1 0 1
0 -141 -124 216 0 0 1 1 0 1 0 1
phys
0 -11 -124 223.001 0 0 1 1 0 1 0 1
0 -141 -124 216 0 0 1 1 0 1 0 1
0 -141 -124 223.001 0 0 1 1 0 1 0 1
phys
0 -141 -136 224 0 0 1 1 0 1 0 1
0 -141 -124.7 224 0 0 1 1 0 1 0 1
0 -141 -124 223.001 0 0 1 1 0 1 0 1
phys
0 -141 -136 224 0 0 1 1 0 1 0 1
0 -141 -124 223.001 0 0 1 1 0 1 0 1
0 -141 -124 216 0 0 1 1 0 1 0 1
phys
0 -11 -124 216 0 0 1 1 0 1 0 1
0 -11 -124 223.001 0 0 1 1 0 1 0 1
0 -11 -124.7 224 0 0 1 1 0 1 0 1
phys
0 -11 -124 216 0 0 1 1 0 1 0 1
0 -11 -124.7 224 0 0 1 1 0 1 0 1
0 -11 -136 224 0 0 1 1 0 1 0 1
phys
0 -11 -136 224 0 0 1 1 0 1 0 1
0 -11 -124.7 224 0 0 1 1 0 1 0 1
0 -141 -124.7 224 0 0 1 1 0 1 0 1
phys
0 -11 -136 224 0 0 1 1 0 1 0 1
0 -141 -124.7 224 0 0 1 1 0 1 0 1
0 -141 -136 224 0 0 1 1 0 1 0 1
phys
0 -141 -136 224 0 0 1 1 0 1 0 1
0 -141 -124 216 0 0 1 1 0 1 0 1
0 -11 -124 216 0 0 1 1 0 1 0 1
phys
0 -141 -136 224 0 0 1 1 0 1 0 1
0 -11 -124 216 0 0 1 1 0 1 0 1
0 -11 -136 224 0 0 1 1 0 1 0 1
phys
0 -11 -124.7 224 0 0 1 1 0 1 0 1
0 -11 -124 223.001 0 0 1 1 0 1 0 1
0 -141 -124 223.001 0 0 1 1 0 1 0 1
phys
0 -11 -124.7 224 0 0 1 1 0 1 0 1
0 -141 -124 223.001 0 0 1 1 0 1 0 1
0 -141 -124.7 224 0 0 1 1 0 1 0 1
phys
0 -141 -100 200 0 0 1 2 0 1 0 1
0 -141 -88.7 200 0 0 1 2 0 1 0 1
0 -141 -88 199.001 0 0 1 2 0 1 0 1
phys
0 -141 -100 200 0 0 1 2 0 1 0 1
0 -141 -88 199.001 0 0 1 2 0 1 0 1
0 -141 -88 192 0 0 1 2 0 1 0 1
phys
0 -11 -88.7 200 0 0 1 2 0 1 0 1
0 -11 -100 200 0 0 1 2 0 1 0 1
0 -11 -88 192 0 0 1 2 0 1 0 1
phys
0 -11 -88.7 200 0 0 1 2 0 1 0 1
0 -11 -88 192 0 0 1 2 0 1 0 1
0 -11 -88 199.001 0 0 1 2 0 1 0 1
phys
0 -11 -100 200 0 0 1 2 0 1 0 1
0 -11 -88.7 200 0 0 1 2 0 1 0 1
0 -141 -88.7 200 0 0 1 2 0 1 0 1
phys
0 -11 -100 200 0 0 1 2 0 1 0 1
0 -141 -88.7 200 0 0 1 2 0 1 0 1
0 -141 -100 200 0 0 1 2 0 1 0 1
phys
0 -141 -100 200 0 0 1 2 0 1 0 1
0 -141 -88 192 0 0 1 2 0 1 0 1
0 -11 -88 192 0 0 1 2 0 1 0 1
phys
0 -141 -100 200 0 0 1 2 0 1 0 1
0 -11 -88 192 0 0 1 2 0 1 0 1
0 -11 -100 200 0 0 1 2 0 1 0 1
phys
0 -11 -88.7 200 0 0 1 2 0 1 0 1
0 -11 -88 199.001 0 0 1 2 0 1 0 1
0 -141 -88 199.001 0 0 1 2 0 1 0 1
phys
0 -11 -88.7 200 0 0 1 2 0 1 0 1
0 -141 -88 199.001 0 0 1 2 0 1 0 1
0 -141 -88.7 200 0 0 1 2 0 1 0 1
phys
0 -11 -88 199.001 0 0 1 2 0 1 0 1
0 -11 -88 192 0 0 1 2 0 1 0 1
0 -141 -88 192 0 0 1 2 0 1 0 1
phys
0 -11 -88 199.001 0 0 1 2 0 1 0 1
0 -141 -88 192 0 0 1 2 0 1 0 1
0 -141 -88 199.001 0 0 1 2 0 1 0 1
phys
0 -11 104 71.001 0 0 1 3 0 1 0 1
0 -11 104 64 0 0 1 3 0 1 0 1
0 -141 104 64 0 0 1 3 0 1 0 1
phys
0 -11 104 71.001 0 0 1 3 0 1 0 1
0 -141 104 64 0 0 1 3 0 1 0 1
0 -141 104 71.001 0 0 1 3 0 1 0 1
phys
0 -141 92 72 0 0 1 3 0 1 0 1
0 -141 103.3 72 0 0 1 3 0 1 0 1
0 -141 104 71.001 0 0 1 3 0 1 0 1
phys
0 -141 92 72 0 0 1 3 0 1 0 1
0 -141 104 71.001 0 0 1 3 0 1 0 1
0 -141 104 64 0 0 1 3 0 1 0 1
phys
0 -11 104 64 0 0 1 3 0 1 0 1
0 -11 104 71.001 0 0 1 3 0 1 0 1
0 -11 103.3 72 0 0 1 3 0 1 0 1
phys
0 -11 104 64 0 0 1 3 0 1 0 1
0 -11 103.3 72 0 0 1 3 0 1 0 1
0 -11 92 72 0 0 1 3 0 1 0 1
phys
0 -11 92 72 0 0 1 3 0 1 0 1
0 -11 103.3 72 0 0 1 3 0 1 0 1
0 -141 103.3 72 0 0 1 3 0 1 0 1
phys
0 -11 92 72 0 0 1 3 0 1 0 1
0 -141 103.3 72 0 0 1 3 0 1 0 1
0 -141 92 72 0 0 1 3 0 1 0 1
phys
0 -141 92 72 0 0 1 3 0 1 0 1
0 -141 104 64 0 0 1 3 0 1 0 1
0 -11 104 64 0 0 1 3 0 1 0 1
phys
0 -141 92 72 0 0 1 3 0 1 0 1
0 -11 104 64 0 0 1 3 0 1 0 1
0 -11 92 72 0 0 1 3 0 1 0 1
phys
0 -11 103.3 72 0 0 1 3 0 1 0 1
0 -11 104 71.001 0 0 1 3 0 1 0 1
0 -141 104 71.001 0 0 1 3 0 1 0 1
phys
0 -11 103.3 72 0 0 1 3 0 1 0 1
0 -141 104 71.001 0 0 1 3 0 1 0 1
0 -141 103.3 72 0 0 1 3 0 1 0 1
phys
0 -11 187.3 16 0 0 1 4 0 1 0 1
0 -11 176 16 0 0 1 4 0 1 0 1
0 -11 188 8 0 0 1 4 0 1 0 1
phys
0 -11 187.3 16 0 0 1 4 0 1 0 1
0 -11 188 8 0 0 1 4 0 1 0 1
0 -11 188 15.001 0 0 1 4 0 1 0 1
phys
0 -141 176 16 0 0 1 4 0 1 0 1
0 -11 176 16 0 0 1 4 0 1 0 1
0 -11 187.3 16 0 0 1 4 0 1 0 1
phys
0 -141 176 16 0 0 1 4 0 1 0 1
0 -11 187.3 16 0 0 1 4 0 1 0 1
0 -141 187.3 16 0 0 1 4 0 1 0 1
phys
0 -141 188 8 0 0 1 4 0 1 0 1
0 -11 188 8 0 0 1 4 0 1 0 1
0 -11 176 16 0 0 1 4 0 1 0 1
phys
0 -141 188 8 0 0 1 4 0 1 0 1
0 -11 176 16 0 0 1 4 0 1 0 1
0 -141 176 16 0 0 1 4 0 1 0 1
phys
0 -141 187.3 16 0 0 1 4 0 1 0 1
0 -11 187.3 16 0 0 1 4 0 1 0 1
0 -11 188 15.001 0 0 1 4 0 1 0 1
phys
0 -141 187.3 16 0 0 1 4 0 1 0 1
0 -11 188 15.001 0 0 1 4 0 1 0 1
0 -141 188 15.001 0 0 1 4 0 1 0 1
phys
0 -11 188 15.001 0 0 1 4 0 1 0 1
0 -11 188 8 0 0 1 4 0 1 0 1
0 -141 188 8 0 0 1 4 0 1 0 1
phys
0 -11 188 15.001 0 0 1 4 0 1 0 1
0 -141 188 8 0 0 1 4 0 1 0 1
0 -141 188 15.001 0 0 1 4 0 1 0 1
phys
0 -141 176 16 0 0 1 4 0 1 0 1
0 -141 187.3 16 0 0 1 4 0 1 0 1
0 -141 188 15.001 0 0 1 4 0 1 0 1
phys
0 -141 176 16 0 0 1 4 0 1 0 1
0 -141 188 15.001 0 0 1 4 0 1 0 1
0 -141 188 8 0 0 1 4 0 1 0 1
phys
0 -141 140 40 0 0 1 5 0 1 0 1
0 -141 152 32 0 0 1 5 0 1 0 1
0 -11 152 32 0 0 1 5 0 1 0 1
phys
0 -141 140 40 0 0 1 5 0 1 0 1
0 -11 152 32 0 0 1 5 0 1 0 1
0 -11 140 40 0 0 1 5 0 1 0 1
phys
0 -11 151.3 40 0 0 1 5 0 1 0 1
0 -11 152 39.001 0 0 1 5 0 1 0 1
0 -141 152 39.001 0 0 1 5 0 1 0 1
phys
0 -11 151.3 40 0 0 1 5 0 1 0 1
0 -141 152 39.001 0 0 1 5 0 1 0 1
0 -141 151.3 40 0 0 1 5 0 1 0 1
phys
0 -11 152 32 0 0 1 5 0 1 0 1
0 -141 152 32 0 0 1 5 0 1 0 1
0 -141 152 39.001 0 0 1 5 0 1 0 1
phys
0 -11 152 32 0 0 1 5 0 1 0 1
0 -141 152 39.001 0 0 1 5 0 1 0 1
0 -11 152 39.001 0 0 1 5 0 1 0 1
phys
0 -141 151.3 40 0 0 1 5 0 1 0 1
0 -141 152 39.001 0 0 1 5 0 1 0 1
0 -141 152 32 0 0 1 5 0 1 0 1
phys
0 -141 151.3 40 0 0 1 5 0 1 0 1
0 -141 152 32 0 0 1 5 0 1 0 1
0 -141 140 40 0 0 1 5 0 1 0 1
phys
0 -11 140 40 0 0 1 5 0 1 0 1
0 -11 152 32 0 0 1 5 0 1 0 1
0 -11 152 39.001 0 0 1 5 0 1 0 1
phys
0 -11 140 40 0 0 1 5 0 1 0 1
0 -11 152 39.001 0 0 1 5 0 1 0 1
0 -11 151.3 40 0 0 1 5 0 1 0 1
phys
0 -141 140 40 0 0 1 5 0 1 0 1
0 -11 140 40 0 0 1 5 0 1 0 1
0 -11 151.3 40 0 0 1 5 0 1 0 1
phys
0 -141 140 40 0 0 1 5 0 1 0 1
0 -11 151.3 40 0 0 1 5 0 1 0 1
0 -141 151.3 40 0 0 1 5 0 1 0 1
phys
0 -141 80 80 0 0 1 6 0 1 0 1
0 -11 80 80 0 0 1 6 0 1 0 1
0 -11 91.3 80 0 0 1 6 0 1 0 1
phys
0 -141 80 80 0 0 1 6 0 1 0 1
0 -11 91.3 80 0 0 1 6 0 1 0 1
0 -141 91.3 80 0 0 1 6 0 1 0 1
phys
0 -11 80 80 0 0 1 6 0 1 0 1
0 -141 80 80 0 0 1 6 0 1 0 1
0 -141 92 72 0 0 1 6 0 1 0 1
phys
0 -11 80 80 0 0 1 6 0 1 0 1
0 -141 92 72 0 0 1 6 0 1 0 1
0 -11 92 72 0 0 1 6 0 1 0 1
phys
0 -141 91.3 80 0 0 1 6 0 1 0 1
0 -11 91.3 80 0 0 1 6 0 1 0 1
0 -11 92 79 0 0 1 6 0 1 0 1
phys
0 -141 91.3 80 0 0 1 6 0 1 0 1
0 -11 92 79 0 0 1 6 0 1 0 1
0 -141 92 79 0 0 1 6 0 1 0 1
phys
0 -11 92 72 0 0 1 6 0 1 0 1
0 -141 92 72 0 0 1 6 0 1 0 1
0 -141 92 79 0 0 1 6 0 1 0 1
phys
0 -11 92 72 0 0 1 6 0 1 0 1
0 -141 92 79 0 0 1 6 0 1 0 1
0 -11 92 79 0 0 1 6 0 1 0 1
phys
0 -141 80 80 0 0 1 6 0 1 0 1
0 -141 91.3 80 0 0 1 6 0 1 0 1
0 -141 92 79 0 0 1 6 0 1 0 1
phys
0 -141 80 80 0 0 1 6 0 1 0 1
0 -141 92 79 0 0 1 6 0 1 0 1
0 -141 92 72 0 0 1 6 0 1 0 1
phys
0 -11 91.3 80 0 0 1 6 0 1 0 1
0 -11 80 80 0 0 1 6 0 1 0 1
0 -11 92 72 0 0 1 6 0 1 0 1
phys
0 -11 91.3 80 0 0 1 6 0 1 0 1
0 -11 92 72 0 0 1 6 0 1 0 1
0 -11 92 79 0 0 1 6 0 1 0 1
phys
0 -141 32 112 0 0 1 7 0 1 0 1
0 -141 43.3 112 0 0 1 7 0 1 0 1
0 -141 44 111.001 0 0 1 7 0 1 0 1
phys
0 -141 32 112 0 0 1 7 0 1 0 1
0 -141 44 111.001 0 0 1 7 0 1 0 1
0 -141 44 104 0 0 1 7 0 1 0 1
phys
0 -11 43.3 112 0 0 1 7 0 1 0 1
0 -11 32 112 0 0 1 7 0 1 0 1
0 -11 44 104 0 0 1 7 0 1 0 1
phys
0 -11 43.3 112 0 0 1 7 0 1 0 1
0 -11 44 104 0 0 1 7 0 1 0 1
0 -11 44 111.001 0 0 1 7 0 1 0 1
phys
0 -11 32 112 0 0 1 7 0 1 0 1
0 -11 43.3 112 0 0 1 7 0 1 0 1
0 -141 43.3 112 0 0 1 7 0 1 0 1
phys
0 -11 32 112 0 0 1 7 0 1 0 1
0 -141 43.3 112 0 0 1 7 0 1 0 1
0 -141 32 112 0 0 1 7 0 1 0 1
phys
0 -141 32 112 0 0 1 7 0 1 0 1
0 -141 44 104 0 0 1 7 0 1 0 1
0 -11 44 104 0 0 1 7 0 1 0 1
phys
0 -141 32 112 0 0 1 7 0 1 0 1
0 -11 44 104 0 0 1 7 0 1 0 1
0 -11 32 112 0 0 1 7 0 1 0 1
phys
0 -11 43.3 112 0 0 1 7 0 1 0 1
0 -11 44 111.001 0 0 1 7 0 1 0 1
0 -141 44 111.001 0 0 1 7 0 1 0 1
phys
0 -11 43.3 112 0 0 1 7 0 1 0 1
0 -141 44 111.001 0 0 1 7 0 1 0 1
0 -141 43.3 112 0 0 1 7 0 1 0 1
phys
0 -11 44 111.001 0 0 1 7 0 1 0 1
0 -11 44 104 0 0 1 7 0 1 0 1
0 -141 44 104 0 0 1 7 0 1 0 1
phys
0 -11 44 111.001 0 0 1 7 0 1 0 1
0 -141 44 104 0 0 1 7 0 1 0 1
0 -141 44 111.001 0 0 1 7 0 1 0 1
phys
0 -11 139.3 48 0 0 1 8 0 1 0 1
0 -11 128 48 0 0 1 8 0 1 0 1
0 -11 140 40 0 0 1 8 0 1 0 1
phys
0 -11 139.3 48 0 0 1 8 0 1 0 1
0 -11 140 40 0 0 1 8 0 1 0 1
0 -11 140 47.001 0 0 1 8 0 1 0 1
phys
0 -141 128 48 0 0 1 8 0 1 0 1
0 -11 128 48 0 0 1 8 0 1 0 1
0 -11 139.3 48 0 0 1 8 0 1 0 1
phys
0 -141 128 48 0 0 1 8 0 1 0 1
0 -11 139.3 48 0 0 1 8 0 1 0 1
0 -141 139.3 48 0 0 1 8 0 1 0 1
phys
0 -141 140 40 0 0 1 8 0 1 0 1
0 -11 140 40 0 0 1 8 0 1 0 1
0 -11 128 48 0 0 1 8 0 1 0 1
phys
0 -141 140 40 0 0 1 8 0 1 0 1
0 -11 128 48 0 0 1 8 0 1 0 1
0 -141 128 48 0 0 1 8 0 1 0 1
phys
0 -141 139.3 48 0 0 1 8 0 1 0 1
0 -11 139.3 48 0 0 1 8 0 1 0 1
0 -11 140 47.001 0 0 1 8 0 1 0 1
phys
0 -141 139.3 48 0 0 1 8 0 1 0 1
0 -11 140 47.001 0 0 1 8 0 1 0 1
0 -141 140 47.001 0 0 1 8 0 1 0 1
phys
0 -11 140 47.001 0 0 1 8 0 1 0 1
0 -11 140 40 0 0 1 8 0 1 0 1
0 -141 140 40 0 0 1 8 0 1 0 1
phys
0 -11 140 47.001 0 0 1 8 0 1 0 1
0 -141 140 40 0 0 1 8 0 1 0 1
0 -141 140 47.001 0 0 1 8 0 1 0 1
phys
0 -141 128 48 0 0 1 8 0 1 0 1
0 -141 139.3 48 0 0 1 8 0 1 0 1
0 -141 140 47.001 0 0 1 8 0 1 0 1
phys
0 -141 128 48 0 0 1 8 0 1 0 1
0 -141 140 47.001 0 0 1 8 0 1 0 1
0 -141 140 40 0 0 1 8 0 1 0 1
phys
0 25 184 0 0 0 1 9 0 1 0 1
0 25 200 0 0 0 1 9 0 1 0 1
0 25 200 62 0 0 1 9 0 1 0 1
phys
0 25 184 0 0 0 1 9 0 1 0 1
0 25 200 62 0 0 1 9 0 1 0 1
0 25 184 62 0 0 1 9 0 1 0 1
phys
0 -11 200 0 0 0 1 9 0 1 0 1
0 25 200 0 0 0 1 9 0 1 0 1
0 25 184 0 0 0 1 9 0 1 0 1
phys
0 -11 200 0 0 0 1 9 0 1 0 1
0 25 184 0 0 0 1 9 0 1 0 1
0 -11 184 0 0 0 1 9 0 1 0 1
phys
0 -11 184 62 0 0 1 9 0 1 0 1
0 25 184 62 0 0 1 9 0 1 0 1
0 25 200 62 0 0 1 9 0 1 0 1
phys
0 -11 184 62 0 0 1 9 0 1 0 1
0 25 200 62 0 0 1 9 0 1 0 1
0 -11 200 62 0 0 1 9 0 1 0 1
phys
0 25 200 62 0 0 1 9 0 1 0 1
0 25 200 0 0 0 1 9 0 1 0 1
0 -11 200 0 0 0 1 9 0 1 0 1
phys
0 25 200 62 0 0 1 9 0 1 0 1
0 -11 200 0 0 0 1 9 0 1 0 1
0 -11 200 62 0 0 1 9 0 1 0 1
phys
0 25 184 0 0 0 1 9 0 1 0 1
0 25 184 62 0 0 1 9 0 1 0 1
0 -11 184 62 0 0 1 9 0 1 0 1
phys
0 25 184 0 0 0 1 9 0 1 0 1
0 -11 184 62 0 0 1 9 0 1 0 1
0 -11 184 0 0 0 1 9 0 1 0 1
phys
0 -11 184 62 0 0 1 9 0 1 0 1
0 -11 200 62 0 0 1 9 0 1 0 1
0 -11 200 0 0 0 1 9 0 1 0 1
phys
0 -11 184 62 0 0 1 9 0 1 0 1
0 -11 200 0 0 0 1 9 0 1 0 1
0 -11 184 0 0 0 1 9 0 1 0 1
phys
0 -11 -100 207.001 0 0 1 10 0 1 0 1
0 -11 -100 200 0 0 1 10 0 1 0 1
0 -141 -100 200 0 0 1 10 0 1 0 1
phys
0 -11 -100 207.001 0 0 1 10 0 1 0 1
0 -141 -100 200 0 0 1 10 0 1 0 1
0 -141 -100 207.001 0 0 1 10 0 1 0 1
phys
0 -141 -112 208 0 0 1 10 0 1 0 1
0 -141 -100.7 208 0 0 1 10 0 1 0 1
0 -141 -100 207.001 0 0 1 10 0 1 0 1
phys
0 -141 -112 208 0 0 1 10 0 1 0 1
0 -141 -100 207.001 0 0 1 10 0 1 0 1
0 -141 -100 200 0 0 1 10 0 1 0 1
phys
0 -11 -100 200 0 0 1 10 0 1 0 1
0 -11 -100 207.001 0 0 1 10 0 1 0 1
0 -11 -100.7 208 0 0 1 10 0 1 0 1
phys
0 -11 -100 200 0 0 1 10 0 1 0 1
0 -11 -100.7 208 0 0 1 10 0 1 0 1
0 -11 -112 208 0 0 1 10 0 1 0 1
phys
0 -11 -112 208 0 0 1 10 0 1 0 1
0 -11 -100.7 208 0 0 1 10 0 1 0 1
0 -141 -100.7 208 0 0 1 10 0 1 0 1
phys
0 -11 -112 208 0 0 1 10 0 1 0 1
0 -141 -100.7 208 0 0 1 10 0 1 0 1
0 -141 -112 208 0 0 1 10 0 1 0 1
phys
0 -141 -112 208 0 0 1 10 0 1 0 1
0 -141 -100 200 0 0 1 10 0 1 0 1
0 -11 -100 200 0 0 1 10 0 1 0 1
phys
0 -141 -112 208 0 0 1 10 0 1 0 1
0 -11 -100 200 0 0 1 10 0 1 0 1
0 -11 -112 208 0 0 1 10 0 1 0 1
phys
0 -11 -100.7 208 0 0 1 10 0 1 0 1
0 -11 -100 207.001 0 0 1 10 0 1 0 1
0 -141 -100 207.001 0 0 1 10 0 1 0 1
phys
0 -11 -100.7 208 0 0 1 10 0 1 0 1
0 -141 -100 207.001 0 0 1 10 0 1 0 1
0 -141 -100.7 208 0 0 1 10 0 1 0 1
phys
0 -11 -148 108.018 0 0 1 11 0 1 0 1
0 -1 -148 108.023 0 0 1 11 0 1 0 1
0 -1 -144 112.027 0 0 1 11 0 1 0 1
phys
0 -11 -148 108.018 0 0 1 11 0 1 0 1
0 -1 -144 112.027 0 0 1 11 0 1 0 1
0 -11 -144 112.022 0 0 1 11 0 1 0 1
phys
0 -11 -144 0 0 0 1 11 0 1 0 1
0 -11 -144 112.022 0 0 1 11 0 1 0 1
0 -1 -144 112.027 0 0 1 11 0 1 0 1
phys
0 -11 -144 0 0 0 1 11 0 1 0 1
0 -1 -144 112.027 0 0 1 11 0 1 0 1
0 -1 -144 0 0 0 1 11 0 1 0 1
phys
0 -1 -148 0 0 0 1 11 0 1 0 1
0 -1 -148 108.023 0 0 1 11 0 1 0 1
0 -11 -148 108.018 0 0 1 11 0 1 0 1
phys
0 -1 -148 0 0 0 1 11 0 1 0 1
0 -11 -148 108.018 0 0 1 11 0 1 0 1
0 -11 -148 0 0 0 1 11 0 1 0 1
phys
0 -11 -148 0 0 0 1 11 0 1 0 1
0 -11 -148 108.018 0 0 1 11 0 1 0 1
0 -11 -144 112.022 0 0 1 11 0 1 0 1
phys
0 -11 -148 0 0 0 1 11 0 1 0 1
0 -11 -144 112.022 0 0 1 11 0 1 0 1
0 -11 -144 0 0 0 1 11 0 1 0 1
phys
0 -1 -144 112.027 0 0 1 11 0 1 0 1
0 -1 -148 108.023 0 0 1 11 0 1 0 1
0 -1 -148 0 0 0 1 11 0 1 0 1
phys
0 -1 -144 112.027 0 0 1 11 0 1 0 1
0 -1 -148 0 0 0 1 11 0 1 0 1
0 -1 -144 0 0 0 1 11 0 1 0 1
phys
0 -1 -148 0 0 0 1 11 0 1 0 1
0 -11 -148 0 0 0 1 11 0 1 0 1
0 -11 -144 0 0 0 1 11 0 1 0 1
phys
0 -1 -148 0 0 0 1 11 0 1 0 1
0 -11 -144 0 0 0 1 11 0 1 0 1
0 -1 -144 0 0 0 1 11 0 1 0 1
phys
0 -11 -148.7 240 0 0 1 12 0 1 0 1
0 -11 -148 239.001 0 0 1 12 0 1 0 1
0 -141 -148 239.001 0 0 1 12 0 1 0 1
phys
0 -11 -148.7 240 0 0 1 12 0 1 0 1
0 -141 -148 239.001 0 0 1 12 0 1 0 1
0 -141 -148.7 240 0 0 1 12 0 1 0 1
phys
0 -141 -148 232 0 0 1 12 0 1 0 1
0 -141 -148 239.001 0 0 1 12 0 1 0 1
0 -11 -148 239.001 0 0 1 12 0 1 0 1
phys
0 -141 -148 232 0 0 1 12 0 1 0 1
0 -11 -148 239.001 0 0 1 12 0 1 0 1
0 -11 -148 232 0 0 1 12 0 1 0 1
phys
0 -141 -160 240 0 0 1 12 0 1 0 1
0 -141 -148.7 240 0 0 1 12 0 1 0 1
0 -141 -148 239.001 0 0 1 12 0 1 0 1
phys
0 -141 -160 240 0 0 1 12 0 1 0 1
0 -141 -148 239.001 0 0 1 12 0 1 0 1
0 -141 -148 232 0 0 1 12 0 1 0 1
phys
0 -11 -148 232 0 0 1 12 0 1 0 1
0 -11 -148 239.001 0 0 1 12 0 1 0 1
0 -11 -148.7 240 0 0 1 12 0 1 0 1
phys
0 -11 -148 232 0 0 1 12 0 1 0 1
0 -11 -148.7 240 0 0 1 12 0 1 0 1
0 -11 -160 240 0 0 1 12 0 1 0 1
phys
0 -11 -160 240 0 0 1 12 0 1 0 1
0 -11 -148.7 240 0 0 1 12 0 1 0 1
0 -141 -148.7 240 0 0 1 12 0 1 0 1
phys
0 -11 -160 240 0 0 1 12 0 1 0 1
0 -141 -148.7 240 0 0 1 12 0 1 0 1
0 -141 -160 240 0 0 1 12 0 1 0 1
phys
0 -141 -160 240 0 0 1 12 0 1 0 1
0 -141 -148 232 0 0 1 12 0 1 0 1
0 -11 -148 232 0 0 1 12 0 1 0 1
phys
0 -141 -160 240 0 0 1 12 0 1 0 1
0 -11 -148 232 0 0 1 12 0 1 0 1
0 -11 -160 240 0 0 1 12 0 1 0 1
phys
0 -141 -28 152 0 0 1 13 0 1 0 1
0 -141 -16.7 152 0 0 1 13 0 1 0 1
0 -141 -16 151.001 0 0 1 13 0 1 0 1
phys
0 -141 -28 152 0 0 1 13 0 1 0 1
0 -141 -16 151.001 0 0 1 13 0 1 0 1
0 -141 -16 144 0 0 1 13 0 1 0 1
phys
0 -11 -16.7 152 0 0 1 13 0 1 0 1
0 -11 -28 152 0 0 1 13 0 1 0 1
0 -11 -16 144 0 0 1 13 0 1 0 1
phys
0 -11 -16.7 152 0 0 1 13 0 1 0 1
0 -11 -16 144 0 0 1 13 0 1 0 1
0 -11 -16 151.001 0 0 1 13 0 1 0 1
phys
0 -11 -28 152 0 0 1 13 0 1 0 1
0 -11 -16.7 152 0 0 1 13 0 1 0 1
0 -141 -16.7 152 0 0 1 13 0 1 0 1
phys
0 -11 -28 152 0 0 1 13 0 1 0 1
0 -141 -16.7 152 0 0 1 13 0 1 0 1
0 -141 -28 152 0 0 1 13 0 1 0 1
phys
0 -141 -28 152 0 0 1 13 0 1 0 1
0 -141 -16 144 0 0 1 13 0 1 0 1
0 -11 -16 144 0 0 1 13 0 1 0 1
phys
0 -141 -28 152 0 0 1 13 0 1 0 1
0 -11 -16 144 0 0 1 13 0 1 0 1
0 -11 -28 152 0 0 1 13 0 1 0 1
phys
0 -11 -16.7 152 0 0 1 13 0 1 0 1
0 -11 -16 151.001 0 0 1 13 0 1 0 1
0 -141 -16 151.001 0 0 1 13 0 1 0 1
phys
0 -11 -16.7 152 0 0 1 13 0 1 0 1
0 -141 -16 151.001 0 0 1 13 0 1 0 1
0 -141 -16.7 152 0 0 1 13 0 1 0 1
phys
0 -11 -16 151.001 0 0 1 13 0 1 0 1
0 -11 -16 144 0 0 1 13 0 1 0 1
0 -141 -16 144 0 0 1 13 0 1 0 1
phys
0 -11 -16 151.001 0 0 1 13 0 1 0 1
0 -141 -16 144 0 0 1 13 0 1 0 1
0 -141 -16 151.001 0 0 1 13 0 1 0 1
phys
0 -11 164 31.001 0 0 1 14 0 1 0 1
0 -11 164 24 0 0 1 14 0 1 0 1
0 -141 164 24 0 0 1 14 0 1 0 1
phys
0 -11 164 31.001 0 0 1 14 0 1 0 1
0 -141 164 24 0 0 1 14 0 1 0 1
0 -141 164 31.001 0 0 1 14 0 1 0 1
phys
0 -141 152 32 0 0 1 14 0 1 0 1
0 -141 163.3 32 0 0 1 14 0 1 0 1
0 -141 164 31.001 0 0 1 14 0 1 0 1
phys
0 -141 152 32 0 0 1 14 0 1 0 1
0 -141 164 31.001 0 0 1 14 0 1 0 1
0 -141 164 24 0 0 1 14 0 1 0 1
phys
0 -11 164 24 0 0 1 14 0 1 0 1
0 -11 164 31.001 0 0 1 14 0 1 0 1
0 -11 163.3 32 0 0 1 14 0 1 0 1
phys
0 -11 164 24 0 0 1 14 0 1 0 1
0 -11 163.3 32 0 0 1 14 0 1 0 1
0 -11 152 32 0 0 1 14 0 1 0 1
phys
0 -11 152 32 0 0 1 14 0 1 0 1
0 -11 163.3 32 0 0 1 14 0 1 0 1
0 -141 163.3 32 0 0 1 14 0 1 0 1
phys
0 -11 152 32 0 0 1 14 0 1 0 1
0 -141 163.3 32 0 0 1 14 0 1 0 1
0 -141 152 32 0 0 1 14 0 1 0 1
phys
0 -141 152 32 0 0 1 14 0 1 0 1
0 -141 164 24 0 0 1 14 0 1 0 1
0 -11 164 24 0 0 1 14 0 1 0 1
phys
0 -141 152 32 0 0 1 14 0 1 0 1
0 -11 164 24 0 0 1 14 0 1 0 1
0 -11 152 32 0 0 1 14 0 1 0 1
phys
0 -11 163.3 32 0 0 1 14 0 1 0 1
0 -11 164 31.001 0 0 1 14 0 1 0 1
0 -141 164 31.001 0 0 1 14 0 1 0 1
phys
0 -11 163.3 32 0 0 1 14 0 1 0 1
0 -141 164 31.001 0 0 1 14 0 1 0 1
0 -141 163.3 32 0 0 1 14 0 1 0 1
phys
0 -11 -136 231.001 0 0 1 15 0 1 0 1
0 -11 -136 224 0 0 1 15 0 1 0 1
0 -141 -136 224 0 0 1 15 0 1 0 1
phys
0 -11 -136 231.001 0 0 1 15 0 1 0 1
0 -141 -136 224 0 0 1 15 0 1 0 1
0 -141 -136 231.001 0 0 1 15 0 1 0 1
phys
0 -141 -148 232 0 0 1 15 0 1 0 1
0 -141 -136.7 232 0 0 1 15 0 1 0 1
0 -141 -136 231.001 0 0 1 15 0 1 0 1
phys
0 -141 -148 232 0 0 1 15 0 1 0 1
0 -141 -136 231.001 0 0 1 15 0 1 0 1
0 -141 -136 224 0 0 1 15 0 1 0 1
phys
0 -11 -136 224 0 0 1 15 0 1 0 1
0 -11 -136 231.001 0 0 1 15 0 1 0 1
0 -11 -136.7 232 0 0 1 15 0 1 0 1
phys
0 -11 -136 224 0 0 1 15 0 1 0 1
0 -11 -136.7 232 0 0 1 15 0 1 0 1
0 -11 -148 232 0 0 1 15 0 1 0 1
phys
0 -11 -148 232 0 0 1 15 0 1 0 1
0 -11 -136.7 232 0 0 1 15 0 1 0 1
0 -141 -136.7 232 0 0 1 15 0 1 0 1
phys
0 -11 -148 232 0 0 1 15 0 1 0 1
0 -141 -136.7 232 0 0 1 15 0 1 0 1
0 -141 -148 232 0 0 1 15 0 1 0 1
phys
0 -141 -148 232 0 0 1 15 0 1 0 1
0 -141 -136 224 0 0 1 15 0 1 0 1
0 -11 -136 224 0 0 1 15 0 1 0 1
phys
0 -141 -148 232 0 0 1 15 0 1 0 1
0 -11 -136 224 0 0 1 15 0 1 0 1
0 -11 -148 232 0 0 1 15 0 1 0 1
phys
0 -11 -136.7 232 0 0 1 15 0 1 0 1
0 -11 -136 231.001 0 0 1 15 0 1 0 1
0 -141 -136 231.001 0 0 1 15 0 1 0 1
phys
0 -11 -136.7 232 0 0 1 15 0 1 0 1
0 -141 -136 231.001 0 0 1 15 0 1 0 1
0 -141 -136.7 232 0 0 1 15 0 1 0 1
phys
0 151 200 360.0021 0 0 1 16 0 1 0 1
0 151 200 62 0 0 1 16 0 1 0 1
0 115 200 62 0 0 1 16 0 1 0 1
phys
0 151 200 360.0021 0 0 1 16 0 1 0 1
0 115 200 62 0 0 1 16 0 1 0 1
0 115 200 360.0021 0 0 1 16 0 1 0 1
phys
0 151 184 62 0 0 1 16 0 1 0 1
0 151 184 400 0 0 1 16 0 1 0 1
0 115 184 400 0 0 1 16 0 1 0 1
phys
0 151 184 62 0 0 1 16 0 1 0 1
0 115 184 400 0 0 1 16 0 1 0 1
0 115 184 62 0 0 1 16 0 1 0 1
phys
0 115 184 62 0 0 1 16 0 1 0 1
0 115 184 400 0 0 1 16 0 1 0 1
0 115 187 400 0 0 1 16 0 1 0 1
phys
0 115 184 62 0 0 1 16 0 1 0 1
0 115 187 400 0 0 1 16 0 1 0 1
0 115 200 360.0021 0 0 1 16 0 1 0 1
phys
0 115 184 62 0 0 1 16 0 1 0 1
0 115 200 360.0021 0 0 1 16 0 1 0 1
0 115 200 62 0 0 1 16 0 1 0 1
phys
0 151 184 400 0 0 1 16 0 1 0 1
0 151 184 62 0 0 1 16 0 1 0 1
0 151 200 62 0 0 1 16 0 1 0 1
phys
0 151 184 400 0 0 1 16 0 1 0 1
0 151 200 62 0 0 1 16 0 1 0 1
0 151 200 360.0021 0 0 1 16 0 1 0 1
phys
0 151 184 400 0 0 1 16 0 1 0 1
0 151 200 360.0021 0 0 1 16 0 1 0 1
0 151 187 400 0 0 1 16 0 1 0 1
phys
0 151 184 62 0 0 1 16 0 1 0 1
0 115 184 62 0 0 1 16 0 1 0 1
0 115 200 62 0 0 1 16 0 1 0 1
phys
0 151 184 62 0 0 1 16 0 1 0 1
0 115 200 62 0 0 1 16 0 1 0 1
0 151 200 62 0 0 1 16 0 1 0 1
phys
0 115 184 400 0 0 1 16 0 1 0 1
0 151 184 400 0 0 1 16 0 1 0 1
0 151 187 400 0 0 1 16 0 1 0 1
phys
0 115 184 400 0 0 1 16 0 1 0 1
0 151 187 400 0 0 1 16 0 1 0 1
0 115 187 400 0 0 1 16 0 1 0 1
phys
0 151 200 360.0021 0 0 1 16 0 1 0 1
0 115 200 360.0021 0 0 1 16 0 1 0 1
0 115 187 400 0 0 1 16 0 1 0 1
phys
0 151 200 360.0021 0 0 1 16 0 1 0 1
0 115 187 400 0 0 1 16 0 1 0 1
0 151 187 400 0 0 1 16 0 1 0 1
phys
0 -11 176 23.001 0 0 1 17 0 1 0 1
0 -11 176 16 0 0 1 17 0 1 0 1
0 -141 176 16 0 0 1 17 0 1 0 1
phys
0 -11 176 23.001 0 0 1 17 0 1 0 1
0 -141 176 16 0 0 1 17 0 1 0 1
0 -141 176 23.001 0 0 1 17 0 1 0 1
phys
0 -141 164 24 0 0 1 17 0 1 0 1
0 -141 175.3 24 0 0 1 17 0 1 0 1
0 -141 176 23.001 0 0 1 17 0 1 0 1
phys
0 -141 164 24 0 0 1 17 0 1 0 1
0 -141 176 23.001 0 0 1 17 0 1 0 1
0 -141 176 16 0 0 1 17 0 1 0 1
phys
0 -11 176 16 0 0 1 17 0 1 0 1
0 -11 176 23.001 0 0 1 17 0 1 0 1
0 -11 175.3 24 0 0 1 17 0 1 0 1
phys
0 -11 176 16 0 0 1 17 0 1 0 1
0 -11 175.3 24 0 0 1 17 0 1 0 1
0 -11 164 24 0 0 1 17 0 1 0 1
phys
0 -11 164 24 0 0 1 17 0 1 0 1
0 -11 175.3 24 0 0 1 17 0 1 0 1
0 -141 175.3 24 0 0 1 17 0 1 0 1
phys
0 -11 164 24 0 0 1 17 0 1 0 1
0 -141 175.3 24 0 0 1 17 0 1 0 1
0 -141 164 24 0 0 1 17 0 1 0 1
phys
0 -141 164 24 0 0 1 17 0 1 0 1
0 -141 176 16 0 0 1 17 0 1 0 1
0 -11 176 16 0 0 1 17 0 1 0 1
phys
0 -141 164 24 0 0 1 17 0 1 0 1
0 -11 176 16 0 0 1 17 0 1 0 1
0 -11 164 24 0 0 1 17 0 1 0 1
phys
0 -11 175.3 24 0 0 1 17 0 1 0 1
0 -11 176 23.001 0 0 1 17 0 1 0 1
0 -141 176 23.001 0 0 1 17 0 1 0 1
phys
0 -11 175.3 24 0 0 1 17 0 1 0 1
0 -141 176 23.001 0 0 1 17 0 1 0 1
0 -141 175.3 24 0 0 1 17 0 1 0 1
phys
0 -11 -200 112 0 0 1 18 0 1 0 1
0 -11 -144 112 0 0 1 18 0 1 0 1
0 -11 -148 108 0 0 1 18 0 1 0 1
phys
0 -11 -200 112 0 0 1 18 0 1 0 1
0 -11 -148 108 0 0 1 18 0 1 0 1
0 -11 -196 108 0 0 1 18 0 1 0 1
phys
0 -1 -196 108 0 0 1 18 0 1 0 1
0 -1 -148 108 0 0 1 18 0 1 0 1
0 -1 -144 112 0 0 1 18 0 1 0 1
phys
0 -1 -196 108 0 0 1 18 0 1 0 1
0 -1 -144 112 0 0 1 18 0 1 0 1
0 -1 -200 112 0 0 1 18 0 1 0 1
phys
0 -11 -196 108 0 0 1 18 0 1 0 1
0 -11 -148 108 0 0 1 18 0 1 0 1
0 -1 -148 108 0 0 1 18 0 1 0 1
phys
0 -11 -196 108 0 0 1 18 0 1 0 1
0 -1 -148 108 0 0 1 18 0 1 0 1
0 -1 -196 108 0 0 1 18 0 1 0 1
phys
0 -1 -200 112 0 0 1 18 0 1 0 1
0 -1 -144 112 0 0 1 18 0 1 0 1
0 -11 -144 112 0 0 1 18 0 1 0 1
phys
0 -1 -200 112 0 0 1 18 0 1 0 1
0 -11 -144 112 0 0 1 18 0 1 0 1
0 -11 -200 112 0 0 1 18 0 1 0 1
phys
0 -11 -200 112 0 0 1 18 0 1 0 1
0 -11 -196 108 0 0 1 18 0 1 0 1
0 -1 -196 108 0 0 1 18 0 1 0 1
phys
0 -11 -200 112 0 0 1 18 0 1 0 1
0 -1 -196 108 0 0 1 18 0 1 0 1
0 -1 -200 112 0 0 1 18 0 1 0 1
phys
0 -11 -148 108 0 0 1 18 0 1 0 1
0 -11 -144 112 0 0 1 18 0 1 0 1
0 -1 -144 112 0 0 1 18 0 1 0 1
phys
0 -11 -148 108 0 0 1 18 0 1 0 1
0 -1 -144 112 0 0 1 18 0 1 0 1
0 -1 -148 108 0 0 1 18 0 1 0 1
phys
0 -11 200 7.001 0 0 1 19 0 1 0 1
0 -11 200 0 0 0 1 19 0 1 0 1
0 -141 200 0 0 0 1 19 0 1 0 1
phys
0 -11 200 7.001 0 0 1 19 0 1 0 1
0 -141 200 0 0 0 1 19 0 1 0 1
0 -141 200 7.001 0 0 1 19 0 1 0 1
phys
0 -141 188 8 0 0 1 19 0 1 0 1
0 -141 199.3 8 0 0 1 19 0 1 0 1
0 -141 200 7.001 0 0 1 19 0 1 0 1
phys
0 -141 188 8 0 0 1 19 0 1 0 1
0 -141 200 7.001 0 0 1 19 0 1 0 1
0 -141 200 0 0 0 1 19 0 1 0 1
phys
0 -11 200 0 0 0 1 19 0 1 0 1
0 -11 200 7.001 0 0 1 19 0 1 0 1
0 -11 199.3 8 0 0 1 19 0 1 0 1
phys
0 -11 200 0 0 0 1 19 0 1 0 1
0 -11 199.3 8 0 0 1 19 0 1 0 1
0 -11 188 8 0 0 1 19 0 1 0 1
phys
0 -11 188 8 0 0 1 19 0 1 0 1
0 -11 199.3 8 0 0 1 19 0 1 0 1
0 -141 199.3 8 0 0 1 19 0 1 0 1
phys
0 -11 188 8 0 0 1 19 0 1 0 1
0 -141 199.3 8 0 0 1 19 0 1 0 1
0 -141 188 8 0 0 1 19 0 1 0 1
phys
0 -141 188 8 0 0 1 19 0 1 0 1
0 -141 200 0 0 0 1 19 0 1 0 1
0 -11 200 0 0 0 1 19 0 1 0 1
phys
0 -141 188 8 0 0 1 19 0 1 0 1
0 -11 200 0 0 0 1 19 0 1 0 1
0 -11 188 8 0 0 1 19 0 1 0 1
phys
0 -11 199.3 8 0 0 1 19 0 1 0 1
0 -11 200 7.001 0 0 1 19 0 1 0 1
0 -141 200 7.001 0 0 1 19 0 1 0 1
phys
0 -11 199.3 8 0 0 1 19 0 1 0 1
0 -141 200 7.001 0 0 1 19 0 1 0 1
0 -141 199.3 8 0 0 1 19 0 1 0 1
phys
0 -11 -4 143.001 0 0 1 20 0 1 0 1
0 -11 -4 136 0 0 1 20 0 1 0 1
0 -141 -4 136 0 0 1 20 0 1 0 1
phys
0 -11 -4 143.001 0 0 1 20 0 1 0 1
0 -141 -4 136 0 0 1 20 0 1 0 1
0 -141 -4 143.001 0 0 1 20 0 1 0 1
phys
0 -141 -16 144 0 0 1 20 0 1 0 1
0 -141 -4.7 144 0 0 1 20 0 1 0 1
0 -141 -4 143.001 0 0 1 20 0 1 0 1
phys
0 -141 -16 144 0 0 1 20 0 1 0 1
0 -141 -4 143.001 0 0 1 20 0 1 0 1
0 -141 -4 136 0 0 1 20 0 1 0 1
phys
0 -11 -4 136 0 0 1 20 0 1 0 1
0 -11 -4 143.001 0 0 1 20 0 1 0 1
0 -11 -4.7 144 0 0 1 20 0 1 0 1
phys
0 -11 -4 136 0 0 1 20 0 1 0 1
0 -11 -4.7 144 0 0 1 20 0 1 0 1
0 -11 -16 144 0 0 1 20 0 1 0 1
phys
0 -11 -16 144 0 0 1 20 0 1 0 1
0 -11 -4.7 144 0 0 1 20 0 1 0 1
0 -141 -4.7 144 0 0 1 20 0 1 0 1
phys
0 -11 -16 144 0 0 1 20 0 1 0 1
0 -141 -4.7 144 0 0 1 20 0 1 0 1
0 -141 -16 144 0 0 1 20 0 1 0 1
phys
0 -141 -16 144 0 0 1 20 0 1 0 1
0 -141 -4 136 0 0 1 20 0 1 0 1
0 -11 -4 136 0 0 1 20 0 1 0 1
phys
0 -141 -16 144 0 0 1 20 0 1 0 1
0 -11 -4 136 0 0 1 20 0 1 0 1
0 -11 -16 144 0 0 1 20 0 1 0 1
phys
0 -11 -4.7 144 0 0 1 20 0 1 0 1
0 -11 -4 143.001 0 0 1 20 0 1 0 1
0 -141 -4 143.001 0 0 1 20 0 1 0 1
phys
0 -11 -4.7 144 0 0 1 20 0 1 0 1
0 -141 -4 143.001 0 0 1 20 0 1 0 1
0 -141 -4.7 144 0 0 1 20 0 1 0 1
phys
0 25 200 360.0021 0 0 1 21 0 1 0 1
0 25 200 62 0 0 1 21 0 1 0 1
0 -11 200 62 0 0 1 21 0 1 0 1
phys
0 25 200 360.0021 0 0 1 21 0 1 0 1
0 -11 200 62 0 0 1 21 0 1 0 1
0 -11 200 360.0021 0 0 1 21 0 1 0 1
phys
0 25 184 62 0 0 1 21 0 1 0 1
0 25 184 400 0 0 1 21 0 1 0 1
0 -11 184 400 0 0 1 21 0 1 0 1
phys
0 25 184 62 0 0 1 21 0 1 0 1
0 -11 184 400 0 0 1 21 0 1 0 1
0 -11 184 62 0 0 1 21 0 1 0 1
phys
0 -11 184 62 0 0 1 21 0 1 0 1
0 -11 184 400 0 0 1 21 0 1 0 1
0 -11 187 400 0 0 1 21 0 1 0 1
phys
0 -11 184 62 0 0 1 21 0 1 0 1
0 -11 187 400 0 0 1 21 0 1 0 1
0 -11 200 360.0021 0 0 1 21 0 1 0 1
phys
0 -11 184 62 0 0 1 21 0 1 0 1
0 -11 200 360.0021 0 0 1 21 0 1 0 1
0 -11 200 62 0 0 1 21 0 1 0 1
phys
0 25 184 400 0 0 1 21 0 1 0 1
0 25 184 62 0 0 1 21 0 1 0 1
0 25 200 62 0 0 1 21 0 1 0 1
phys
0 25 184 400 0 0 1 21 0 1 0 1
0 25 200 62 0 0 1 21 0 1 0 1
0 25 200 360.0021 0 0 1 21 0 1 0 1
phys
0 25 184 400 0 0 1 21 0 1 0 1
0 25 200 360.0021 0 0 1 21 0 1 0 1
0 25 187 400 0 0 1 21 0 1 0 1
phys
0 25 184 62 0 0 1 21 0 1 0 1
0 -11 184 62 0 0 1 21 0 1 0 1
0 -11 200 62 0 0 1 21 0 1 0 1
phys
0 25 184 62 0 0 1 21 0 1 0 1
0 -11 200 62 0 0 1 21 0 1 0 1
0 25 200 62 0 0 1 21 0 1 0 1
phys
0 -11 184 400 0 0 1 21 0 1 0 1
0 25 184 400 0 0 1 21 0 1 0 1
0 25 187 400 0 0 1 21 0 1 0 1
phys
0 -11 184 400 0 0 1 21 0 1 0 1
0 25 187 400 0 0 1 21 0 1 0 1
0 -11 187 400 0 0 1 21 0 1 0 1
phys
0 25 200 360.0021 0 0 1 21 0 1 0 1
0 -11 200 360.0021 0 0 1 21 0 1 0 1
0 -11 187 400 0 0 1 21 0 1 0 1
phys
0 25 200 360.0021 0 0 1 21 0 1 0 1
0 -11 187 400 0 0 1 21 0 1 0 1
0 25 187 400 0 0 1 21 0 1 0 1
phys
0 -11 -28 159.001 0 0 1 22 0 1 0 1
0 -11 -28 152 0 0 1 22 0 1 0 1
0 -141 -28 152 0 0 1 22 0 1 0 1
phys
0 -11 -28 159.001 0 0 1 22 0 1 0 1
0 -141 -28 152 0 0 1 22 0 1 0 1
0 -141 -28 159.001 0 0 1 22 0 1 0 1
phys
0 -141 -40 160 0 0 1 22 0 1 0 1
0 -141 -28.7 160 0 0 1 22 0 1 0 1
0 -141 -28 159.001 0 0 1 22 0 1 0 1
phys
0 -141 -40 160 0 0 1 22 0 1 0 1
0 -141 -28 159.001 0 0 1 22 0 1 0 1
0 -141 -28 152 0 0 1 22 0 1 0 1
phys
0 -11 -28 152 0 0 1 22 0 1 0 1
0 -11 -28 159.001 0 0 1 22 0 1 0 1
0 -11 -28.7 160 0 0 1 22 0 1 0 1
phys
0 -11 -28 152 0 0 1 22 0 1 0 1
0 -11 -28.7 160 0 0 1 22 0 1 0 1
0 -11 -40 160 0 0 1 22 0 1 0 1
phys
0 -11 -40 160 0 0 1 22 0 1 0 1
0 -11 -28.7 160 0 0 1 22 0 1 0 1
0 -141 -28.7 160 0 0 1 22 0 1 0 1
phys
0 -11 -40 160 0 0 1 22 0 1 0 1
0 -141 -28.7 160 0 0 1 22 0 1 0 1
0 -141 -40 160 0 0 1 22 0 1 0 1
phys
0 -141 -40 160 0 0 1 22 0 1 0 1
0 -141 -28 152 0 0 1 22 0 1 0 1
0 -11 -28 152 0 0 1 22 0 1 0 1
phys
0 -141 -40 160 0 0 1 22 0 1 0 1
0 -11 -28 152 0 0 1 22 0 1 0 1
0 -11 -40 160 0 0 1 22 0 1 0 1
phys
0 -11 -28.7 160 0 0 1 22 0 1 0 1
0 -11 -28 159.001 0 0 1 22 0 1 0 1
0 -141 -28 159.001 0 0 1 22 0 1 0 1
phys
0 -11 -28.7 160 0 0 1 22 0 1 0 1
0 -141 -28 159.001 0 0 1 22 0 1 0 1
0 -141 -28.7 160 0 0 1 22 0 1 0 1
phys
0 115 184 62 0 0 1 23 0 1 0 1
0 151 184 62 0 0 1 23 0 1 0 1
0 151 200 62 0 0 1 23 0 1 0 1
phys
0 115 184 62 0 0 1 23 0 1 0 1
0 151 200 62 0 0 1 23 0 1 0 1
0 115 200 62 0 0 1 23 0 1 0 1
phys
0 115 200 0 0 0 1 23 0 1 0 1
0 115 200 62 0 0 1 23 0 1 0 1
0 151 200 62 0 0 1 23 0 1 0 1
phys
0 115 200 0 0 0 1 23 0 1 0 1
0 151 200 62 0 0 1 23 0 1 0 1
0 151 200 0 0 0 1 23 0 1 0 1
phys
0 151 184 0 0 0 1 23 0 1 0 1
0 151 184 62 0 0 1 23 0 1 0 1
0 115 184 62 0 0 1 23 0 1 0 1
phys
0 151 184 0 0 0 1 23 0 1 0 1
0 115 184 62 0 0 1 23 0 1 0 1
0 115 184 0 0 0 1 23 0 1 0 1
phys
0 115 184 0 0 0 1 23 0 1 0 1
0 115 184 62 0 0 1 23 0 1 0 1
0 115 200 62 0 0 1 23 0 1 0 1
phys
0 115 184 0 0 0 1 23 0 1 0 1
0 115 200 62 0 0 1 23 0 1 0 1
0 115 200 0 0 0 1 23 0 1 0 1
phys
0 151 200 0 0 0 1 23 0 1 0 1
0 151 200 62 0 0 1 23 0 1 0 1
0 151 184 62 0 0 1 23 0 1 0 1
phys
0 151 200 0 0 0 1 23 0 1 0 1
0 151 184 62 0 0 1 23 0 1 0 1
0 151 184 0 0 0 1 23 0 1 0 1
phys
0 151 184 0 0 0 1 23 0 1 0 1
0 115 184 0 0 0 1 23 0 1 0 1
0 115 200 0 0 0 1 23 0 1 0 1
phys
0 151 184 0 0 0 1 23 0 1 0 1
0 115 200 0 0 0 1 23 0 1 0 1
0 151 200 0 0 0 1 23 0 1 0 1
phys
0 -11 32 119 0 0 1 24 0 1 0 1
0 -11 32 112 0 0 1 24 0 1 0 1
0 -141 32 112 0 0 1 24 0 1 0 1
phys
0 -11 32 119 0 0 1 24 0 1 0 1
0 -141 32 112 0 0 1 24 0 1 0 1
0 -141 32 119 0 0 1 24 0 1 0 1
phys
0 -141 20 120 0 0 1 24 0 1 0 1
0 -141 31.3 120 0 0 1 24 0 1 0 1
0 -141 32 119 0 0 1 24 0 1 0 1
phys
0 -141 20 120 0 0 1 24 0 1 0 1
0 -141 32 119 0 0 1 24 0 1 0 1
0 -141 32 112 0 0 1 24 0 1 0 1
phys
0 -11 32 112 0 0 1 24 0 1 0 1
0 -11 32 119 0 0 1 24 0 1 0 1
0 -11 31.3 120 0 0 1 24 0 1 0 1
phys
0 -11 32 112 0 0 1 24 0 1 0 1
0 -11 31.3 120 0 0 1 24 0 1 0 1
0 -11 20 120 0 0 1 24 0 1 0 1
phys
0 -11 20 120 0 0 1 24 0 1 0 1
0 -11 31.3 120 0 0 1 24 0 1 0 1
0 -141 31.3 120 0 0 1 24 0 1 0 1
phys
0 -11 20 120 0 0 1 24 0 1 0 1
0 -141 31.3 120 0 0 1 24 0 1 0 1
0 -141 20 120 0 0 1 24 0 1 0 1
phys
0 -141 20 120 0 0 1 24 0 1 0 1
0 -141 32 112 0 0 1 24 0 1 0 1
0 -11 32 112 0 0 1 24 0 1 0 1
phys
0 -141 20 120 0 0 1 24 0 1 0 1
0 -11 32 112 0 0 1 24 0 1 0 1
0 -11 20 120 0 0 1 24 0 1 0 1
phys
0 -11 31.3 120 0 0 1 24 0 1 0 1
0 -11 32 119 0 0 1 24 0 1 0 1
0 -141 32 119 0 0 1 24 0 1 0 1
phys
0 -11 31.3 120 0 0 1 24 0 1 0 1
0 -141 32 119 0 0 1 24 0 1 0 1
0 -141 31.3 120 0 0 1 24 0 1 0 1
phys
0 -141 -76 184 0 0 1 25 0 1 0 1
0 -141 -64 176 0 0 1 25 0 1 0 1
0 -11 -64 176 0 0 1 25 0 1 0 1
phys
0 -141 -76 184 0 0 1 25 0 1 0 1
0 -11 -64 176 0 0 1 25 0 1 0 1
0 -11 -76 184 0 0 1 25 0 1 0 1
phys
0 -11 -64.7 184 0 0 1 25 0 1 0 1
0 -11 -64 183.001 0 0 1 25 0 1 0 1
0 -141 -64 183.001 0 0 1 25 0 1 0 1
phys
0 -11 -64.7 184 0 0 1 25 0 1 0 1
0 -141 -64 183.001 0 0 1 25 0 1 0 1
0 -141 -64.7 184 0 0 1 25 0 1 0 1
phys
0 -11 -64 176 0 0 1 25 0 1 0 1
0 -141 -64 176 0 0 1 25 0 1 0 1
0 -141 -64 183.001 0 0 1 25 0 1 0 1
phys
0 -11 -64 176 0 0 1 25 0 1 0 1
0 -141 -64 183.001 0 0 1 25 0 1 0 1
0 -11 -64 183.001 0 0 1 25 0 1 0 1
phys
0 -141 -64.7 184 0 0 1 25 0 1 0 1
0 -141 -64 183.001 0 0 1 25 0 1 0 1
0 -141 -64 176 0 0 1 25 0 1 0 1
phys
0 -141 -64.7 184 0 0 1 25 0 1 0 1
0 -141 -64 176 0 0 1 25 0 1 0 1
0 -141 -76 184 0 0 1 25 0 1 0 1
phys
0 -11 -76 184 0 0 1 25 0 1 0 1
0 -11 -64 176 0 0 1 25 0 1 0 1
0 -11 -64 183.001 0 0 1 25 0 1 0 1
phys
0 -11 -76 184 0 0 1 25 0 1 0 1
0 -11 -64 183.001 0 0 1 25 0 1 0 1
0 -11 -64.7 184 0 0 1 25 0 1 0 1
phys
0 -141 -76 184 0 0 1 25 0 1 0 1
0 -11 -76 184 0 0 1 25 0 1 0 1
0 -11 -64.7 184 0 0 1 25 0 1 0 1
phys
0 -141 -76 184 0 0 1 25 0 1 0 1
0 -11 -64.7 184 0 0 1 25 0 1 0 1
0 -141 -64.7 184 0 0 1 25 0 1 0 1
phys
0 -11 20 127.001 0 0 1 26 0 1 0 1
0 -11 20 120 0 0 1 26 0 1 0 1
0 -141 20 120 0 0 1 26 0 1 0 1
phys
0 -11 20 127.001 0 0 1 26 0 1 0 1
0 -141 20 120 0 0 1 26 0 1 0 1
0 -141 20 127.001 0 0 1 26 0 1 0 1
phys
0 -141 8 128 0 0 1 26 0 1 0 1
0 -141 19.3 128 0 0 1 26 0 1 0 1
0 -141 20 127.001 0 0 1 26 0 1 0 1
phys
0 -141 8 128 0 0 1 26 0 1 0 1
0 -141 20 127.001 0 0 1 26 0 1 0 1
0 -141 20 120 0 0 1 26 0 1 0 1
phys
0 -11 20 120 0 0 1 26 0 1 0 1
0 -11 20 127.001 0 0 1 26 0 1 0 1
0 -11 19.3 128 0 0 1 26 0 1 0 1
phys
0 -11 20 120 0 0 1 26 0 1 0 1
0 -11 19.3 128 0 0 1 26 0 1 0 1
0 -11 8 128 0 0 1 26 0 1 0 1
phys
0 -11 8 128 0 0 1 26 0 1 0 1
0 -11 19.3 128 0 0 1 26 0 1 0 1
0 -141 19.3 128 0 0 1 26 0 1 0 1
phys
0 -11 8 128 0 0 1 26 0 1 0 1
0 -141 19.3 128 0 0 1 26 0 1 0 1
0 -141 8 128 0 0 1 26 0 1 0 1
phys
0 -141 8 128 0 0 1 26 0 1 0 1
0 -141 20 120 0 0 1 26 0 1 0 1
0 -11 20 120 0 0 1 26 0 1 0 1
phys
0 -141 8 128 0 0 1 26 0 1 0 1
0 -11 20 120 0 0 1 26 0 1 0 1
0 -11 8 128 0 0 1 26 0 1 0 1
phys
0 -11 19.3 128 0 0 1 26 0 1 0 1
0 -11 20 127.001 0 0 1 26 0 1 0 1
0 -141 20 127.001 0 0 1 26 0 1 0 1
phys
0 -11 19.3 128 0 0 1 26 0 1 0 1
0 -141 20 127.001 0 0 1 26 0 1 0 1
0 -141 19.3 128 0 0 1 26 0 1 0 1
phys
0 -11 -52 175.001 0 0 1 27 0 1 0 1
0 -11 -52 168 0 0 1 27 0 1 0 1
0 -141 -52 168 0 0 1 27 0 1 0 1
phys
0 -11 -52 175.001 0 0 1 27 0 1 0 1
0 -141 -52 168 0 0 1 27 0 1 0 1
0 -141 -52 175.001 0 0 1 27 0 1 0 1
phys
0 -141 -64 176 0 0 1 27 0 1 0 1
0 -141 -52.7 176 0 0 1 27 0 1 0 1
0 -141 -52 175.001 0 0 1 27 0 1 0 1
phys
0 -141 -64 176 0 0 1 27 0 1 0 1
0 -141 -52 175.001 0 0 1 27 0 1 0 1
0 -141 -52 168 0 0 1 27 0 1 0 1
phys
0 -11 -52 168 0 0 1 27 0 1 0 1
0 -11 -52 175.001 0 0 1 27 0 1 0 1
0 -11 -52.7 176 0 0 1 27 0 1 0 1
phys
0 -11 -52 168 0 0 1 27 0 1 0 1
0 -11 -52.7 176 0 0 1 27 0 1 0 1
0 -11 -64 176 0 0 1 27 0 1 0 1
phys
0 -11 -64 176 0 0 1 27 0 1 0 1
0 -11 -52.7 176 0 0 1 27 0 1 0 1
0 -141 -52.7 176 0 0 1 27 0 1 0 1
phys
0 -11 -64 176 0 0 1 27 0 1 0 1
0 -141 -52.7 176 0 0 1 27 0 1 0 1
0 -141 -64 176 0 0 1 27 0 1 0 1
phys
0 -141 -64 176 0 0 1 27 0 1 0 1
0 -141 -52 168 0 0 1 27 0 1 0 1
0 -11 -52 168 0 0 1 27 0 1 0 1
phys
0 -141 -64 176 0 0 1 27 0 1 0 1
0 -11 -52 168 0 0 1 27 0 1 0 1
0 -11 -64 176 0 0 1 27 0 1 0 1
phys
0 -11 -52.7 176 0 0 1 27 0 1 0 1
0 -11 -52 175.001 0 0 1 27 0 1 0 1
0 -141 -52 175.001 0 0 1 27 0 1 0 1
phys
0 -11 -52.7 176 0 0 1 27 0 1 0 1
0 -141 -52 175.001 0 0 1 27 0 1 0 1
0 -141 -52.7 176 0 0 1 27 0 1 0 1
phys
0 -11 80 87.001 0 0 1 28 0 1 0 1
0 -11 80 80 0 0 1 28 0 1 0 1
0 -141 80 80 0 0 1 28 0 1 0 1
phys
0 -11 80 87.001 0 0 1 28 0 1 0 1
0 -141 80 80 0 0 1 28 0 1 0 1
0 -141 80 87.001 0 0 1 28 0 1 0 1
phys
0 -141 68 88 0 0 1 28 0 1 0 1
0 -141 79.3 88 0 0 1 28 0 1 0 1
0 -141 80 87.001 0 0 1 28 0 1 0 1
phys
0 -141 68 88 0 0 1 28 0 1 0 1
0 -141 80 87.001 0 0 1 28 0 1 0 1
0 -141 80 80 0 0 1 28 0 1 0 1
phys
0 -11 80 80 0 0 1 28 0 1 0 1
0 -11 80 87.001 0 0 1 28 0 1 0 1
0 -11 79.3 88 0 0 1 28 0 1 0 1
phys
0 -11 80 80 0 0 1 28 0 1 0 1
0 -11 79.3 88 0 0 1 28 0 1 0 1
0 -11 68 88 0 0 1 28 0 1 0 1
phys
0 -11 68 88 0 0 1 28 0 1 0 1
0 -11 79.3 88 0 0 1 28 0 1 0 1
0 -141 79.3 88 0 0 1 28 0 1 0 1
phys
0 -11 68 88 0 0 1 28 0 1 0 1
0 -141 79.3 88 0 0 1 28 0 1 0 1
0 -141 68 88 0 0 1 28 0 1 0 1
phys
0 -141 68 88 0 0 1 28 0 1 0 1
0 -141 80 80 0 0 1 28 0 1 0 1
0 -11 80 80 0 0 1 28 0 1 0 1
phys
0 -141 68 88 0 0 1 28 0 1 0 1
0 -11 80 80 0 0 1 28 0 1 0 1
0 -11 68 88 0 0 1 28 0 1 0 1
phys
0 -11 79.3 88 0 0 1 28 0 1 0 1
0 -11 80 87.001 0 0 1 28 0 1 0 1
0 -141 80 87.001 0 0 1 28 0 1 0 1
phys
0 -11 79.3 88 0 0 1 28 0 1 0 1
0 -141 80 87.001 0 0 1 28 0 1 0 1
0 -141 79.3 88 0 0 1 28 0 1 0 1
phys
0 -11 116 63.001 0 0 1 29 0 1 0 1
0 -11 116 56 0 0 1 29 0 1 0 1
0 -141 116 56 0 0 1 29 0 1 0 1
phys
0 -11 116 63.001 0 0 1 29 0 1 0 1
0 -141 116 56 0 0 1 29 0 1 0 1
0 -141 116 63.001 0 0 1 29 0 1 0 1
phys
0 -141 104 64 0 0 1 29 0 1 0 1
0 -141 115.3 64 0 0 1 29 0 1 0 1
0 -141 116 63.001 0 0 1 29 0 1 0 1
phys
0 -141 104 64 0 0 1 29 0 1 0 1
0 -141 116 63.001 0 0 1 29 0 1 0 1
0 -141 116 56 0 0 1 29 0 1 0 1
phys
0 -11 116 56 0 0 1 29 0 1 0 1
0 -11 116 63.001 0 0 1 29 0 1 0 1
0 -11 115.3 64 0 0 1 29 0 1 0 1
phys
0 -11 116 56 0 0 1 29 0 1 0 1
0 -11 115.3 64 0 0 1 29 0 1 0 1
0 -11 104 64 0 0 1 29 0 1 0 1
phys
0 -11 104 64 0 0 1 29 0 1 0 1
0 -11 115.3 64 0 0 1 29 0 1 0 1
0 -141 115.3 64 0 0 1 29 0 1 0 1
phys
0 -11 104 64 0 0 1 29 0 1 0 1
0 -141 115.3 64 0 0 1 29 0 1 0 1
0 -141 104 64 0 0 1 29 0 1 0 1
phys
0 -141 104 64 0 0 1 29 0 1 0 1
0 -141 116 56 0 0 1 29 0 1 0 1
0 -11 116 56 0 0 1 29 0 1 0 1
phys
0 -141 104 64 0 0 1 29 0 1 0 1
0 -11 116 56 0 0 1 29 0 1 0 1
0 -11 104 64 0 0 1 29 0 1 0 1
phys
0 -11 115.3 64 0 0 1 29 0 1 0 1
0 -11 116 63.001 0 0 1 29 0 1 0 1
0 -141 116 63.001 0 0 1 29 0 1 0 1
phys
0 -11 115.3 64 0 0 1 29 0 1 0 1
0 -141 116 63.001 0 0 1 29 0 1 0 1
0 -141 115.3 64 0 0 1 29 0 1 0 1
phys
0 -11 56 103.001 0 0 1 30 0 1 0 1
0 -11 56 96 0 0 1 30 0 1 0 1
0 -141 56 96 0 0 1 30 0 1 0 1
phys
0 -11 56 103.001 0 0 1 30 0 1 0 1
0 -141 56 96 0 0 1 30 0 1 0 1
0 -141 56 103.001 0 0 1 30 0 1 0 1
phys
0 -141 44 104 0 0 1 30 0 1 0 1
0 -141 55.3 104 0 0 1 30 0 1 0 1
0 -141 56 103.001 0 0 1 30 0 1 0 1
phys
0 -141 44 104 0 0 1 30 0 1 0 1
0 -141 56 103.001 0 0 1 30 0 1 0 1
0 -141 56 96 0 0 1 30 0 1 0 1
phys
0 -11 56 96 0 0 1 30 0 1 0 1
0 -11 56 103.001 0 0 1 30 0 1 0 1
0 -11 55.3 104 0 0 1 30 0 1 0 1
phys
0 -11 56 96 0 0 1 30 0 1 0 1
0 -11 55.3 104 0 0 1 30 0 1 0 1
0 -11 44 104 0 0 1 30 0 1 0 1
phys
0 -11 44 104 0 0 1 30 0 1 0 1
0 -11 55.3 104 0 0 1 30 0 1 0 1
0 -141 55.3 104 0 0 1 30 0 1 0 1
phys
0 -11 44 104 0 0 1 30 0 1 0 1
0 -141 55.3 104 0 0 1 30 0 1 0 1
0 -141 44 104 0 0 1 30 0 1 0 1
phys
0 -141 44 104 0 0 1 30 0 1 0 1
0 -141 56 96 0 0 1 30 0 1 0 1
0 -11 56 96 0 0 1 30 0 1 0 1
phys
0 -141 44 104 0 0 1 30 0 1 0 1
0 -11 56 96 0 0 1 30 0 1 0 1
0 -11 44 104 0 0 1 30 0 1 0 1
phys
0 -11 55.3 104 0 0 1 30 0 1 0 1
0 -11 56 103.001 0 0 1 30 0 1 0 1
0 -141 56 103.001 0 0 1 30 0 1 0 1
phys
0 -11 55.3 104 0 0 1 30 0 1 0 1
0 -141 56 103.001 0 0 1 30 0 1 0 1
0 -141 55.3 104 0 0 1 30 0 1 0 1
phys
0 -11 -76 191.001 0 0 1 31 0 1 0 1
0 -11 -76 184 0 0 1 31 0 1 0 1
0 -141 -76 184 0 0 1 31 0 1 0 1
phys
0 -11 -76 191.001 0 0 1 31 0 1 0 1
0 -141 -76 184 0 0 1 31 0 1 0 1
0 -141 -76 191.001 0 0 1 31 0 1 0 1
phys
0 -141 -88 192 0 0 1 31 0 1 0 1
0 -141 -76.7 192 0 0 1 31 0 1 0 1
0 -141 -76 191.001 0 0 1 31 0 1 0 1
phys
0 -141 -88 192 0 0 1 31 0 1 0 1
0 -141 -76 191.001 0 0 1 31 0 1 0 1
0 -141 -76 184 0 0 1 31 0 1 0 1
phys
0 -11 -76 184 0 0 1 31 0 1 0 1
0 -11 -76 191.001 0 0 1 31 0 1 0 1
0 -11 -76.7 192 0 0 1 31 0 1 0 1
phys
0 -11 -76 184 0 0 1 31 0 1 0 1
0 -11 -76.7 192 0 0 1 31 0 1 0 1
0 -11 -88 192 0 0 1 31 0 1 0 1
phys
0 -11 -88 192 0 0 1 31 0 1 0 1
0 -11 -76.7 192 0 0 1 31 0 1 0 1
0 -141 -76.7 192 0 0 1 31 0 1 0 1
phys
0 -11 -88 192 0 0 1 31 0 1 0 1
0 -141 -76.7 192 0 0 1 31 0 1 0 1
0 -141 -88 192 0 0 1 31 0 1 0 1
phys
0 -141 -88 192 0 0 1 31 0 1 0 1
0 -141 -76 184 0 0 1 31 0 1 0 1
0 -11 -76 184 0 0 1 31 0 1 0 1
phys
0 -141 -88 192 0 0 1 31 0 1 0 1
0 -11 -76 184 0 0 1 31 0 1 0 1
0 -11 -88 192 0 0 1 31 0 1 0 1
phys
0 -11 -76.7 192 0 0 1 31 0 1 0 1
0 -11 -76 191.001 0 0 1 31 0 1 0 1
0 -141 -76 191.001 0 0 1 31 0 1 0 1
phys
0 -11 -76.7 192 0 0 1 31 0 1 0 1
0 -141 -76 191.001 0 0 1 31 0 1 0 1
0 -141 -76.7 192 0 0 1 31 0 1 0 1
phys
0 -11 -172 255.001 0 0 1 32 0 1 0 1
0 -11 -172 248 0 0 1 32 0 1 0 1
0 -141 -172 248 0 0 1 32 0 1 0 1
phys
0 -11 -172 255.001 0 0 1 32 0 1 0 1
0 -141 -172 248 0 0 1 32 0 1 0 1
0 -141 -172 255.001 0 0 1 32 0 1 0 1
phys
0 -141 -184 256 0 0 1 32 0 1 0 1
0 -141 -172.7 256 0 0 1 32 0 1 0 1
0 -141 -172 255.001 0 0 1 32 0 1 0 1
phys
0 -141 -184 256 0 0 1 32 0 1 0 1
0 -141 -172 255.001 0 0 1 32 0 1 0 1
0 -141 -172 248 0 0 1 32 0 1 0 1
phys
0 -11 -172 248 0 0 1 32 0 1 0 1
0 -11 -172 255.001 0 0 1 32 0 1 0 1
0 -11 -172.7 256 0 0 1 32 0 1 0 1
phys
0 -11 -172 248 0 0 1 32 0 1 0 1
0 -11 -172.7 256 0 0 1 32 0 1 0 1
0 -11 -184 256 0 0 1 32 0 1 0 1
phys
0 -11 -184 256 0 0 1 32 0 1 0 1
0 -11 -172.7 256 0 0 1 32 0 1 0 1
0 -141 -172.7 256 0 0 1 32 0 1 0 1
phys
0 -11 -184 256 0 0 1 32 0 1 0 1
0 -141 -172.7 256 0 0 1 32 0 1 0 1
0 -141 -184 256 0 0 1 32 0 1 0 1
phys
0 -141 -184 256 0 0 1 32 0 1 0 1
0 -141 -172 248 0 0 1 32 0 1 0 1
0 -11 -172 248 0 0 1 32 0 1 0 1
phys
0 -141 -184 256 0 0 1 32 0 1 0 1
0 -11 -172 248 0 0 1 32 0 1 0 1
0 -11 -184 256 0 0 1 32 0 1 0 1
phys
0 -11 -172.7 256 0 0 1 32 0 1 0 1
0 -11 -172 255.001 0 0 1 32 0 1 0 1
0 -141 -172 255.001 0 0 1 32 0 1 0 1
phys
0 -11 -172.7 256 0 0 1 32 0 1 0 1
0 -141 -172 255.001 0 0 1 32 0 1 0 1
0 -141 -172.7 256 0 0 1 32 0 1 0 1
phys
0 -141 -4 136 0 0 1 33 0 1 0 1
0 -11 -4 136 0 0 1 33 0 1 0 1
0 -11 7.3 136 0 0 1 33 0 1 0 1
phys
0 -141 -4 136 0 0 1 33 0 1 0 1
0 -11 7.3 136 0 0 1 33 0 1 0 1
0 -141 7.3 136 0 0 1 33 0 1 0 1
phys
0 -11 -4 136 0 0 1 33 0 1 0 1
0 -141 -4 136 0 0 1 33 0 1 0 1
0 -141 8 128 0 0 1 33 0 1 0 1
phys
0 -11 -4 136 0 0 1 33 0 1 0 1
0 -141 8 128 0 0 1 33 0 1 0 1
0 -11 8 128 0 0 1 33 0 1 0 1
phys
0 -141 7.3 136 0 0 1 33 0 1 0 1
0 -11 7.3 136 0 0 1 33 0 1 0 1
0 -11 8 135.001 0 0 1 33 0 1 0 1
phys
0 -141 7.3 136 0 0 1 33 0 1 0 1
0 -11 8 135.001 0 0 1 33 0 1 0 1
0 -141 8 135.001 0 0 1 33 0 1 0 1
phys
0 -11 8 128 0 0 1 33 0 1 0 1
0 -141 8 128 0 0 1 33 0 1 0 1
0 -141 8 135.001 0 0 1 33 0 1 0 1
phys
0 -11 8 128 0 0 1 33 0 1 0 1
0 -141 8 135.001 0 0 1 33 0 1 0 1
0 -11 8 135.001 0 0 1 33 0 1 0 1
phys
0 -141 -4 136 0 0 1 33 0 1 0 1
0 -141 7.3 136 0 0 1 33 0 1 0 1
0 -141 8 135.001 0 0 1 33 0 1 0 1
phys
0 -141 -4 136 0 0 1 33 0 1 0 1
0 -141 8 135.001 0 0 1 33 0 1 0 1
0 -141 8 128 0 0 1 33 0 1 0 1
phys
0 -11 7.3 136 0 0 1 33 0 1 0 1
0 -11 -4 136 0 0 1 33 0 1 0 1
0 -11 8 128 0 0 1 33 0 1 0 1
phys
0 -11 7.3 136 0 0 1 33 0 1 0 1
0 -11 8 128 0 0 1 33 0 1 0 1
0 -11 8 135.001 0 0 1 33 0 1 0 1
phys
0 -11 128 55.001 0 0 1 34 0 1 0 1
0 -11 128 48 0 0 1 34 0 1 0 1
0 -141 128 48 0 0 1 34 0 1 0 1
phys
0 -11 128 55.001 0 0 1 34 0 1 0 1
0 -141 128 48 0 0 1 34 0 1 0 1
0 -141 128 55.001 0 0 1 34 0 1 0 1
phys
0 -141 116 56 0 0 1 34 0 1 0 1
0 -141 127.3 56 0 0 1 34 0 1 0 1
0 -141 128 55.001 0 0 1 34 0 1 0 1
phys
0 -141 116 56 0 0 1 34 0 1 0 1
0 -141 128 55.001 0 0 1 34 0 1 0 1
0 -141 128 48 0 0 1 34 0 1 0 1
phys
0 -11 128 48 0 0 1 34 0 1 0 1
0 -11 128 55.001 0 0 1 34 0 1 0 1
0 -11 127.3 56 0 0 1 34 0 1 0 1
phys
0 -11 128 48 0 0 1 34 0 1 0 1
0 -11 127.3 56 0 0 1 34 0 1 0 1
0 -11 116 56 0 0 1 34 0 1 0 1
phys
0 -11 116 56 0 0 1 34 0 1 0 1
0 -11 127.3 56 0 0 1 34 0 1 0 1
0 -141 127.3 56 0 0 1 34 0 1 0 1
phys
0 -11 116 56 0 0 1 34 0 1 0 1
0 -141 127.3 56 0 0 1 34 0 1 0 1
0 -141 116 56 0 0 1 34 0 1 0 1
phys
0 -141 116 56 0 0 1 34 0 1 0 1
0 -141 128 48 0 0 1 34 0 1 0 1
0 -11 128 48 0 0 1 34 0 1 0 1
phys
0 -141 116 56 0 0 1 34 0 1 0 1
0 -11 128 48 0 0 1 34 0 1 0 1
0 -11 116 56 0 0 1 34 0 1 0 1
phys
0 -11 127.3 56 0 0 1 34 0 1 0 1
0 -11 128 55.001 0 0 1 34 0 1 0 1
0 -141 128 55.001 0 0 1 34 0 1 0 1
phys
0 -11 127.3 56 0 0 1 34 0 1 0 1
0 -141 128 55.001 0 0 1 34 0 1 0 1
0 -141 127.3 56 0 0 1 34 0 1 0 1
phys
0 -141 56 96 0 0 1 35 0 1 0 1
0 -11 56 96 0 0 1 35 0 1 0 1
0 -11 67.3 96 0 0 1 35 0 1 0 1
phys
0 -141 56 96 0 0 1 35 0 1 0 1
0 -11 67.3 96 0 0 1 35 0 1 0 1
0 -141 67.3 96 0 0 1 35 0 1 0 1
phys
0 -11 56 96 0 0 1 35 0 1 0 1
0 -141 56 96 0 0 1 35 0 1 0 1
0 -141 68 88 0 0 1 35 0 1 0 1
phys
0 -11 56 96 0 0 1 35 0 1 0 1
0 -141 68 88 0 0 1 35 0 1 0 1
0 -11 68 88 0 0 1 35 0 1 0 1
phys
0 -141 67.3 96 0 0 1 35 0 1 0 1
0 -11 67.3 96 0 0 1 35 0 1 0 1
0 -11 68 95.001 0 0 1 35 0 1 0 1
phys
0 -141 67.3 96 0 0 1 35 0 1 0 1
0 -11 68 95.001 0 0 1 35 0 1 0 1
0 -141 68 95.001 0 0 1 35 0 1 0 1
phys
0 -11 68 88 0 0 1 35 0 1 0 1
0 -141 68 88 0 0 1 35 0 1 0 1
0 -141 68 95.001 0 0 1 35 0 1 0 1
phys
0 -11 68 88 0 0 1 35 0 1 0 1
0 -141 68 95.001 0 0 1 35 0 1 0 1
0 -11 68 95.001 0 0 1 35 0 1 0 1
phys
0 -141 56 96 0 0 1 35 0 1 0 1
0 -141 67.3 96 0 0 1 35 0 1 0 1
0 -141 68 95.001 0 0 1 35 0 1 0 1
phys
0 -141 56 96 0 0 1 35 0 1 0 1
0 -141 68 95.001 0 0 1 35 0 1 0 1
0 -141 68 88 0 0 1 35 0 1 0 1
phys
0 -11 67.3 96 0 0 1 35 0 1 0 1
0 -11 56 96 0 0 1 35 0 1 0 1
0 -11 68 88 0 0 1 35 0 1 0 1
phys
0 -11 67.3 96 0 0 1 35 0 1 0 1
0 -11 68 88 0 0 1 35 0 1 0 1
0 -11 68 95.001 0 0 1 35 0 1 0 1
phys
0 -11 -40 167.001 0 0 1 36 0 1 0 1
0 -11 -40 160 0 0 1 36 0 1 0 1
0 -141 -40 160 0 0 1 36 0 1 0 1
phys
0 -11 -40 167.001 0 0 1 36 0 1 0 1
0 -141 -40 160 0 0 1 36 0 1 0 1
0 -141 -40 167.001 0 0 1 36 0 1 0 1
phys
0 -141 -52 168 0 0 1 36 0 1 0 1
0 -141 -40.7 168 0 0 1 36 0 1 0 1
0 -141 -40 167.001 0 0 1 36 0 1 0 1
phys
0 -141 -52 168 0 0 1 36 0 1 0 1
0 -141 -40 167.001 0 0 1 36 0 1 0 1
0 -141 -40 160 0 0 1 36 0 1 0 1
phys
0 -11 -40 160 0 0 1 36 0 1 0 1
0 -11 -40 167.001 0 0 1 36 0 1 0 1
0 -11 -40.7 168 0 0 1 36 0 1 0 1
phys
0 -11 -40 160 0 0 1 36 0 1 0 1
0 -11 -40.7 168 0 0 1 36 0 1 0 1
0 -11 -52 168 0 0 1 36 0 1 0 1
phys
0 -11 -52 168 0 0 1 36 0 1 0 1
0 -11 -40.7 168 0 0 1 36 0 1 0 1
0 -141 -40.7 168 0 0 1 36 0 1 0 1
phys
0 -11 -52 168 0 0 1 36 0 1 0 1
0 -141 -40.7 168 0 0 1 36 0 1 0 1
0 -141 -52 168 0 0 1 36 0 1 0 1
phys
0 -141 -52 168 0 0 1 36 0 1 0 1
0 -141 -40 160 0 0 1 36 0 1 0 1
0 -11 -40 160 0 0 1 36 0 1 0 1
phys
0 -141 -52 168 0 0 1 36 0 1 0 1
0 -11 -40 160 0 0 1 36 0 1 0 1
0 -11 -52 168 0 0 1 36 0 1 0 1
phys
0 -11 -40.7 168 0 0 1 36 0 1 0 1
0 -11 -40 167.001 0 0 1 36 0 1 0 1
0 -141 -40 167.001 0 0 1 36 0 1 0 1
phys
0 -11 -40.7 168 0 0 1 36 0 1 0 1
0 -141 -40 167.001 0 0 1 36 0 1 0 1
0 -141 -40.7 168 0 0 1 36 0 1 0 1
phys
0 -141 -172 248 0 0 1 37 0 1 0 1
0 -141 -160.7 248 0 0 1 37 0 1 0 1
0 -141 -160 247.001 0 0 1 37 0 1 0 1
phys
0 -141 -172 248 0 0 1 37 0 1 0 1
0 -141 -160 247.001 0 0 1 37 0 1 0 1
0 -141 -160 240 0 0 1 37 0 1 0 1
phys
0 -11 -160.7 248 0 0 1 37 0 1 0 1
0 -11 -172 248 0 0 1 37 0 1 0 1
0 -11 -160 240 0 0 1 37 0 1 0 1
phys
0 -11 -160.7 248 0 0 1 37 0 1 0 1
0 -11 -160 240 0 0 1 37 0 1 0 1
0 -11 -160 247.001 0 0 1 37 0 1 0 1
phys
0 -11 -172 248 0 0 1 37 0 1 0 1
0 -11 -160.7 248 0 0 1 37 0 1 0 1
0 -141 -160.7 248 0 0 1 37 0 1 0 1
phys
0 -11 -172 248 0 0 1 37 0 1 0 1
0 -141 -160.7 248 0 0 1 37 0 1 0 1
0 -141 -172 248 0 0 1 37 0 1 0 1
phys
0 -141 -172 248 0 0 1 37 0 1 0 1
0 -141 -160 240 0 0 1 37 0 1 0 1
0 -11 -160 240 0 0 1 37 0 1 0 1
phys
0 -141 -172 248 0 0 1 37 0 1 0 1
0 -11 -160 240 0 0 1 37 0 1 0 1
0 -11 -172 248 0 0 1 37 0 1 0 1
phys
0 -11 -160.7 248 0 0 1 37 0 1 0 1
0 -11 -160 247.001 0 0 1 37 0 1 0 1
0 -141 -160 247.001 0 0 1 37 0 1 0 1
phys
0 -11 -160.7 248 0 0 1 37 0 1 0 1
0 -141 -160 247.001 0 0 1 37 0 1 0 1
0 -141 -160.7 248 0 0 1 37 0 1 0 1
phys
0 -11 -160 247.001 0 0 1 37 0 1 0 1
0 -11 -160 240 0 0 1 37 0 1 0 1
0 -141 -160 240 0 0 1 37 0 1 0 1
phys
0 -11 -160 247.001 0 0 1 37 0 1 0 1
0 -141 -160 240 0 0 1 37 0 1 0 1
0 -141 -160 247.001 0 0 1 37 0 1 0 1
phys
0 -141 -124 216 0 0 1 38 0 1 0 1
0 -11 -124 216 0 0 1 38 0 1 0 1
0 -11 -112.7 216 0 0 1 38 0 1 0 1
phys
0 -141 -124 216 0 0 1 38 0 1 0 1
0 -11 -112.7 216 0 0 1 38 0 1 0 1
0 -141 -112.7 216 0 0 1 38 0 1 0 1
phys
0 -11 -124 216 0 0 1 38 0 1 0 1
0 -141 -124 216 0 0 1 38 0 1 0 1
0 -141 -112 208 0 0 1 38 0 1 0 1
phys
0 -11 -124 216 0 0 1 38 0 1 0 1
0 -141 -112 208 0 0 1 38 0 1 0 1
0 -11 -112 208 0 0 1 38 0 1 0 1
phys
0 -141 -112.7 216 0 0 1 38 0 1 0 1
0 -11 -112.7 216 0 0 1 38 0 1 0 1
0 -11 -112 215.001 0 0 1 38 0 1 0 1
phys
0 -141 -112.7 216 0 0 1 38 0 1 0 1
0 -11 -112 215.001 0 0 1 38 0 1 0 1
0 -141 -112 215.001 0 0 1 38 0 1 0 1
phys
0 -11 -112 208 0 0 1 38 0 1 0 1
0 -141 -112 208 0 0 1 38 0 1 0 1
0 -141 -112 215.001 0 0 1 38 0 1 0 1
phys
0 -11 -112 208 0 0 1 38 0 1 0 1
0 -141 -112 215.001 0 0 1 38 0 1 0 1
0 -11 -112 215.001 0 0 1 38 0 1 0 1
phys
0 -141 -124 216 0 0 1 38 0 1 0 1
0 -141 -112.7 216 0 0 1 38 0 1 0 1
0 -141 -112 215.001 0 0 1 38 0 1 0 1
phys
0 -141 -124 216 0 0 1 38 0 1 0 1
0 -141 -112 215.001 0 0 1 38 0 1 0 1
0 -141 -112 208 0 0 1 38 0 1 0 1
phys
0 -11 -112.7 216 0 0 1 38 0 1 0 1
0 -11 -124 216 0 0 1 38 0 1 0 1
0 -11 -112 208 0 0 1 38 0 1 0 1
phys
0 -11 -112.7 216 0 0 1 38 0 1 0 1
0 -11 -112 208 0 0 1 38 0 1 0 1
0 -11 -112 215.001 0 0 1 38 0 1 0 1
phys
0 -141 200 43 0 0 1 39 0 1 0 1
0 -141 200 0 0 0 1 39 0 1 0 1
0 -151 200 0 0 0 1 39 0 1 0 1
phys
0 -141 200 43 0 0 1 39 0 1 0 1
0 -151 200 0 0 0 1 39 0 1 0 1
0 -151 200 43 0 0 1 39 0 1 0 1
phys
0 -141 -184 246 0 0 1 39 0 1 0 1
0 -141 -184 289 0 0 1 39 0 1 0 1
0 -151 -184 289 0 0 1 39 0 1 0 1
phys
0 -141 -184 246 0 0 1 39 0 1 0 1
0 -151 -184 289 0 0 1 39 0 1 0 1
0 -151 -184 246 0 0 1 39 0 1 0 1
phys
0 -151 -184 246 0 0 1 39 0 1 0 1
0 -151 -184 289 0 0 1 39 0 1 0 1
0 -151 200 43 0 0 1 39 0 1 0 1
phys
0 -151 -184 246 0 0 1 39 0 1 0 1
0 -151 200 43 0 0 1 39 0 1 0 1
0 -151 200 0 0 0 1 39 0 1 0 1
phys
0 -151 -184 246 0 0 1 39 0 1 0 1
0 -151 200 0 0 0 1 39 0 1 0 1
0 -151 190 0 0 0 1 39 0 1 0 1
phys
0 -141 -184 289 0 0 1 39 0 1 0 1
0 -141 -184 246 0 0 1 39 0 1 0 1
0 -141 190 0 0 0 1 39 0 1 0 1
phys
0 -141 -184 289 0 0 1 39 0 1 0 1
0 -141 190 0 0 0 1 39 0 1 0 1
0 -141 200 0 0 0 1 39 0 1 0 1
phys
0 -141 -184 289 0 0 1 39 0 1 0 1
0 -141 200 0 0 0 1 39 0 1 0 1
0 -141 200 43 0 0 1 39 0 1 0 1
phys
0 -151 190 0 0 0 1 39 0 1 0 1
0 -151 200 0 0 0 1 39 0 1 0 1
0 -141 200 0 0 0 1 39 0 1 0 1
phys
0 -151 190 0 0 0 1 39 0 1 0 1
0 -141 200 0 0 0 1 39 0 1 0 1
0 -141 190 0 0 0 1 39 0 1 0 1
phys
0 -151 -184 289 0 0 1 39 0 1 0 1
0 -141 -184 289 0 0 1 39 0 1 0 1
0 -141 200 43 0 0 1 39 0 1 0 1
phys
0 -151 -184 289 0 0 1 39 0 1 0 1
0 -141 200 43 0 0 1 39 0 1 0 1
0 -151 200 43 0 0 1 39 0 1 0 1
phys
0 -141 -184 246 0 0 1 39 0 1 0 1
0 -151 -184 246 0 0 1 39 0 1 0 1
0 -151 190 0 0 0 1 39 0 1 0 1
phys
0 -141 -184 246 0 0 1 39 0 1 0 1
0 -151 190 0 0 0 1 39 0 1 0 1
0 -141 190 0 0 0 1 39 0 1 0 1
end
