version 1
nodes
0 "root" -1
end
skeleton
time 0
0 0 0 0 0 0 0
end
triangles
goldeneye_caverns_cavernsconcretefloor02
0 -11 -124 223.001 0 1 0 -1.347643 -149.179688 1 0 1
0 -11 -124 216 0 1 0 -1.438802 -149.179688 1 0 1
0 -141 -124 216 0 1 0 -1.438802 -150.872396 1 0 1
goldeneye_caverns_cavernsconcretefloor02
0 -11 -124 223.001 0 1 0 -1.347643 -149.179688 1 0 1
0 -141 -124 216 0 1 0 -1.438802 -150.872396 1 0 1
0 -141 -124 223.001 0 1 0 -1.347643 -150.872396 1 0 1
pepsi2_arch_concrete_floor_smooth01
0 -141 -136 224 -1 0 0 47.625 -0.1875 1 0 1
0 -141 -124.7 224 -1 0 0 47.536719 -0.1875 1 0 1
0 -141 -124 223.001 -1 0 0 47.53125 -0.195305 1 0 1
pepsi2_arch_concrete_floor_smooth01
0 -141 -136 224 -1 0 0 47.625 -0.1875 1 0 1
0 -141 -124 223.001 -1 0 0 47.53125 -0.195305 1 0 1
0 -141 -124 216 -1 0 0 47.53125 -0.25 1 0 1
goldeneye_caverns_cavernsconcretefloor02
0 -11 -136 224 0 0 1 79.816406 -149.179688 1 0 1
0 -11 -124.7 224 0 0 1 79.669271 -149.179688 1 0 1
0 -141 -124.7 224 0 0 1 79.669271 -150.872396 1 0 1
goldeneye_caverns_cavernsconcretefloor02
0 -11 -136 224 0 0 1 79.816406 -149.179688 1 0 1
0 -141 -124.7 224 0 0 1 79.669271 -150.872396 1 0 1
0 -141 -136 224 0 0 1 79.816406 -150.872396 1 0 1
goldeneye_caverns_cavernsconcretefloor02
0 -11 -124.7 224 0 0.818962 0.573847 44.665148 -149.179688 1 0 1
0 -11 -124 223.001 0 0.818962 0.573847 44.649265 -149.179688 1 0 1
0 -141 -124 223.001 0 0.818962 0.573847 44.649265 -150.872396 1 0 1
goldeneye_caverns_cavernsconcretefloor02
0 -11 -124.7 224 0 0.818962 0.573847 44.665148 -149.179688 1 0 1
0 -141 -124 223.001 0 0.818962 0.573847 44.649265 -150.872396 1 0 1
0 -141 -124.7 224 0 0.818962 0.573847 44.665148 -150.872396 1 0 1
pepsi2_arch_concrete_floor_smooth01
0 -141 -100 200 -1 0 0 47.34375 -0.375 1 0 1
0 -141 -88.7 200 -1 0 0 47.255469 -0.375 1 0 1
0 -141 -88 199.001 -1 0 0 47.25 -0.382805 1 0 1
pepsi2_arch_concrete_floor_smooth01
0 -141 -100 200 -1 0 0 47.34375 -0.375 1 0 1
0 -141 -88 199.001 -1 0 0 47.25 -0.382805 1 0 1
0 -141 -88 192 -1 0 0 47.25 -0.4375 1 0 1
goldeneye_caverns_cavernsconcretefloor02
0 -11 -100 200 0 0 1 79.052734 -149.179688 1 0 1
0 -11 -88.7 200 0 0 1 78.905599 -149.179688 1 0 1
0 -141 -88.7 200 0 0 1 78.905599 -150.872396 1 0 1
goldeneye_caverns_cavernsconcretefloor02
0 -11 -100 200 0 0 1 79.052734 -149.179688 1 0 1
0 -141 -88.7 200 0 0 1 78.905599 -150.872396 1 0 1
0 -141 -100 200 0 0 1 79.052734 -150.872396 1 0 1
goldeneye_caverns_cavernsconcretefloor02
0 -11 -88.7 200 0 0.818962 0.573847 43.904008 -149.179688 1 0 1
0 -11 -88 199.001 0 0.818962 0.573847 43.888124 -149.179688 1 0 1
0 -141 -88 199.001 0 0.818962 0.573847 43.888124 -150.872396 1 0 1
goldeneye_caverns_cavernsconcretefloor02
0 -11 -88.7 200 0 0.818962 0.573847 43.904008 -149.179688 1 0 1
0 -141 -88 199.001 0 0.818962 0.573847 43.888124 -150.872396 1 0 1
0 -141 -88.7 200 0 0.818962 0.573847 43.904008 -150.872396 1 0 1
goldeneye_caverns_cavernsconcretefloor02
0 -11 -88 199.001 0 1 0 -2.109362 -149.179688 1 0 1
0 -11 -88 192 0 1 0 -2.200521 -149.179688 1 0 1
0 -141 -88 192 0 1 0 -2.200521 -150.872396 1 0 1
goldeneye_caverns_cavernsconcretefloor02
0 -11 -88 199.001 0 1 0 -2.109362 -149.179688 1 0 1
0 -141 -88 192 0 1 0 -2.200521 -150.872396 1 0 1
0 -141 -88 199.001 0 1 0 -2.109362 -150.872396 1 0 1
goldeneye_caverns_cavernsconcretefloor02
0 -11 104 71.001 0 1 0 -3.824857 -149.179688 1 0 1
0 -11 104 64 0 1 0 -3.916016 -149.179688 1 0 1
0 -141 104 64 0 1 0 -3.916016 -150.872396 1 0 1
goldeneye_caverns_cavernsconcretefloor02
0 -11 104 71.001 0 1 0 -3.824857 -149.179688 1 0 1
0 -141 104 64 0 1 0 -3.916016 -150.872396 1 0 1
0 -141 104 71.001 0 1 0 -3.824857 -150.872396 1 0 1
pepsi2_arch_concrete_floor_smooth01
0 -141 92 72 -1 0 0 45.84375 -1.375 1 0 1
0 -141 103.3 72 -1 0 0 45.755469 -1.375 1 0 1
0 -141 104 71.001 -1 0 0 45.75 -1.382805 1 0 1
pepsi2_arch_concrete_floor_smooth01
0 -141 92 72 -1 0 0 45.84375 -1.375 1 0 1
0 -141 104 71.001 -1 0 0 45.75 -1.382805 1 0 1
0 -141 104 64 -1 0 0 45.75 -1.4375 1 0 1
goldeneye_caverns_cavernsconcretefloor02
0 -11 92 72 0 0 1 77.337891 -149.179688 1 0 1
0 -11 103.3 72 0 0 1 77.190755 -149.179688 1 0 1
0 -141 103.3 72 0 0 1 77.190755 -150.872396 1 0 1
goldeneye_caverns_cavernsconcretefloor02
0 -11 92 72 0 0 1 77.337891 -149.179688 1 0 1
0 -141 103.3 72 0 0 1 77.190755 -150.872396 1 0 1
0 -141 92 72 0 0 1 77.337891 -150.872396 1 0 1
goldeneye_caverns_cavernsconcretefloor02
0 -11 103.3 72 0 0.818962 0.573847 41.188992 -149.179688 1 0 1
0 -11 104 71.001 0 0.818962 0.573847 41.173108 -149.179688 1 0 1
0 -141 104 71.001 0 0.818962 0.573847 41.173108 -150.872396 1 0 1
goldeneye_caverns_cavernsconcretefloor02
0 -11 103.3 72 0 0.818962 0.573847 41.188992 -149.179688 1 0 1
0 -141 104 71.001 0 0.818962 0.573847 41.173108 -150.872396 1 0 1
0 -141 103.3 72 0 0.818962 0.573847 41.188992 -150.872396 1 0 1
goldeneye_caverns_cavernsconcretefloor02
0 -141 176 16 0 0 1 75.654297 -150.872396 1 0 1
0 -11 176 16 0 0 1 75.654297 -149.179688 1 0 1
0 -11 187.3 16 0 0 1 75.507161 -149.179688 1 0 1
goldeneye_caverns_cavernsconcretefloor02
0 -141 176 16 0 0 1 75.654297 -150.872396 1 0 1
0 -11 187.3 16 0 0 1 75.507161 -149.179688 1 0 1
0 -141 187.3 16 0 0 1 75.507161 -150.872396 1 0 1
goldeneye_caverns_cavernsconcretefloor02
0 -141 187.3 16 0 0.818962 0.573847 39.503492 -150.872396 1 0 1
0 -11 187.3 16 0 0.818962 0.573847 39.503492 -149.179688 1 0 1
0 -11 188 15.001 0 0.818962 0.573847 39.487608 -149.179688 1 0 1
goldeneye_caverns_cavernsconcretefloor02
0 -141 187.3 16 0 0.818962 0.573847 39.503492 -150.872396 1 0 1
0 -11 188 15.001 0 0.818962 0.573847 39.487608 -149.179688 1 0 1
0 -141 188 15.001 0 0.818962 0.573847 39.487608 -150.872396 1 0 1
goldeneye_caverns_cavernsconcretefloor02
0 -11 188 15.001 0 1 0 -4.509102 -149.179688 1 0 1
0 -11 188 8 0 1 0 -4.60026 -149.179688 1 0 1
0 -141 188 8 0 1 0 -4.60026 -150.872396 1 0 1
goldeneye_caverns_cavernsconcretefloor02
0 -11 188 15.001 0 1 0 -4.509102 -149.179688 1 0 1
0 -141 188 8 0 1 0 -4.60026 -150.872396 1 0 1
0 -141 188 15.001 0 1 0 -4.509102 -150.872396 1 0 1
pepsi2_arch_concrete_floor_smooth01
0 -141 176 16 -1 0 0 45.1875 -1.8125 1 0 1
0 -141 187.3 16 -1 0 0 45.099219 -1.8125 1 0 1
0 -141 188 15.001 -1 0 0 45.09375 -1.820305 1 0 1
pepsi2_arch_concrete_floor_smooth01
0 -141 176 16 -1 0 0 45.1875 -1.8125 1 0 1
0 -141 188 15.001 -1 0 0 45.09375 -1.820305 1 0 1
0 -141 188 8 -1 0 0 45.09375 -1.875 1 0 1
goldeneye_caverns_cavernsconcretefloor02
0 -11 151.3 40 0 0.818962 0.573847 40.165023 -149.179688 1 0 1
0 -11 152 39.001 0 0.818962 0.573847 40.14914 -149.179688 1 0 1
0 -141 152 39.001 0 0.818962 0.573847 40.14914 -150.872396 1 0 1
goldeneye_caverns_cavernsconcretefloor02
0 -11 151.3 40 0 0.818962 0.573847 40.165023 -149.179688 1 0 1
0 -141 152 39.001 0 0.818962 0.573847 40.14914 -150.872396 1 0 1
0 -141 151.3 40 0 0.818962 0.573847 40.165023 -150.872396 1 0 1
goldeneye_caverns_cavernsconcretefloor02
0 -11 152 32 0 1 0 -3.938151 -149.179688 1 0 1
0 -141 152 32 0 1 0 -3.938151 -150.872396 1 0 1
0 -141 152 39.001 0 1 0 -3.846992 -150.872396 1 0 1
goldeneye_caverns_cavernsconcretefloor02
0 -11 152 32 0 1 0 -3.938151 -149.179688 1 0 1
0 -141 152 39.001 0 1 0 -3.846992 -150.872396 1 0 1
0 -11 152 39.001 0 1 0 -3.846992 -149.179688 1 0 1
pepsi2_arch_concrete_floor_smooth01
0 -141 151.3 40 -1 0 0 45.380469 -1.625 1 0 1
0 -141 152 39.001 -1 0 0 45.375 -1.632805 1 0 1
0 -141 152 32 -1 0 0 45.375 -1.6875 1 0 1
pepsi2_arch_concrete_floor_smooth01
0 -141 151.3 40 -1 0 0 45.380469 -1.625 1 0 1
0 -141 152 32 -1 0 0 45.375 -1.6875 1 0 1
0 -141 140 40 -1 0 0 45.46875 -1.625 1 0 1
goldeneye_caverns_cavernsconcretefloor02
0 -141 140 40 0 0 1 76.314453 -150.872396 1 0 1
0 -11 140 40 0 0 1 76.314453 -149.179688 1 0 1
0 -11 151.3 40 0 0 1 76.167318 -149.179688 1 0 1
goldeneye_caverns_cavernsconcretefloor02
0 -141 140 40 0 0 1 76.314453 -150.872396 1 0 1
0 -11 151.3 40 0 0 1 76.167318 -149.179688 1 0 1
0 -141 151.3 40 0 0 1 76.167318 -150.872396 1 0 1
goldeneye_caverns_cavernsconcretefloor02
0 -141 80 80 0 0 1 76.591797 -150.872396 1 0 1
0 -11 80 80 0 0 1 76.591797 -149.179688 1 0 1
0 -11 91.3 80 0 0 1 76.444661 -149.179688 1 0 1
goldeneye_caverns_cavernsconcretefloor02
0 -141 80 80 0 0 1 76.591797 -150.872396 1 0 1
0 -11 91.3 80 0 0 1 76.444661 -149.179688 1 0 1
0 -141 91.3 80 0 0 1 76.444661 -150.872396 1 0 1
goldeneye_caverns_cavernsconcretefloor02
0 -141 91.3 80 0 0.819232 0.573462 41.442054 -150.872396 1 0 1
0 -11 91.3 80 0 0.819232 0.573462 41.442054 -149.179688 1 0 1
0 -11 92 79 0 0.819232 0.573462 41.42616 -149.179688 1 0 1
goldeneye_caverns_cavernsconcretefloor02
0 -141 91.3 80 0 0.819232 0.573462 41.442054 -150.872396 1 0 1
0 -11 92 79 0 0.819232 0.573462 41.42616 -149.179688 1 0 1
0 -141 92 79 0 0.819232 0.573462 41.42616 -150.872396 1 0 1
goldeneye_caverns_cavernsconcretefloor02
0 -11 92 72 0 1 0 -3.661458 -149.179688 1 0 1
0 -141 92 72 0 1 0 -3.661458 -150.872396 1 0 1
0 -141 92 79 0 1 0 -3.570312 -150.872396 1 0 1
goldeneye_caverns_cavernsconcretefloor02
0 -11 92 72 0 1 0 -3.661458 -149.179688 1 0 1
0 -141 92 79 0 1 0 -3.570312 -150.872396 1 0 1
0 -11 92 79 0 1 0 -3.570312 -149.179688 1 0 1
pepsi2_arch_concrete_floor_smooth01
0 -141 80 80 -1 0 0 45.9375 -1.3125 1 0 1
0 -141 91.3 80 -1 0 0 45.849219 -1.3125 1 0 1
0 -141 92 79 -1 0 0 45.84375 -1.320312 1 0 1
pepsi2_arch_concrete_floor_smooth01
0 -141 80 80 -1 0 0 45.9375 -1.3125 1 0 1
0 -141 92 79 -1 0 0 45.84375 -1.320312 1 0 1
0 -141 92 72 -1 0 0 45.84375 -1.375 1 0 1
pepsi2_arch_concrete_floor_smooth01
0 -141 32 112 -1 0 0 46.3125 -1.0625 1 0 1
0 -141 43.3 112 -1 0 0 46.224219 -1.0625 1 0 1
0 -141 44 111.001 -1 0 0 46.21875 -1.070305 1 0 1
pepsi2_arch_concrete_floor_smooth01
0 -141 32 112 -1 0 0 46.3125 -1.0625 1 0 1
0 -141 44 111.001 -1 0 0 46.21875 -1.070305 1 0 1
0 -141 44 104 -1 0 0 46.21875 -1.125 1 0 1
goldeneye_caverns_cavernsconcretefloor02
0 -11 32 112 0 0 1 77.507812 -149.179688 1 0 1
0 -11 43.3 112 0 0 1 77.360677 -149.179688 1 0 1
0 -141 43.3 112 0 0 1 77.360677 -150.872396 1 0 1
goldeneye_caverns_cavernsconcretefloor02
0 -11 32 112 0 0 1 77.507812 -149.179688 1 0 1
0 -141 43.3 112 0 0 1 77.360677 -150.872396 1 0 1
0 -141 32 112 0 0 1 77.507812 -150.872396 1 0 1
goldeneye_caverns_cavernsconcretefloor02
0 -11 43.3 112 0 0.818962 0.573847 41.358601 -149.179688 1 0 1
0 -11 44 111.001 0 0.818962 0.573847 41.342718 -149.179688 1 0 1
0 -141 44 111.001 0 0.818962 0.573847 41.342718 -150.872396 1 0 1
goldeneye_caverns_cavernsconcretefloor02
0 -11 43.3 112 0 0.818962 0.573847 41.358601 -149.179688 1 0 1
0 -141 44 111.001 0 0.818962 0.573847 41.342718 -150.872396 1 0 1
0 -141 43.3 112 0 0.818962 0.573847 41.358601 -150.872396 1 0 1
goldeneye_caverns_cavernsconcretefloor02
0 -11 44 111.001 0 1 0 -2.655586 -149.179688 1 0 1
0 -11 44 104 0 1 0 -2.746745 -149.179688 1 0 1
0 -141 44 104 0 1 0 -2.746745 -150.872396 1 0 1
goldeneye_caverns_cavernsconcretefloor02
0 -11 44 111.001 0 1 0 -2.655586 -149.179688 1 0 1
0 -141 44 104 0 1 0 -2.746745 -150.872396 1 0 1
0 -141 44 111.001 0 1 0 -2.655586 -150.872396 1 0 1
goldeneye_caverns_cavernsconcretefloor02
0 -141 128 48 0 0 1 76.576172 -150.872396 1 0 1
0 -11 128 48 0 0 1 76.576172 -149.179688 1 0 1
0 -11 139.3 48 0 0 1 76.429036 -149.179688 1 0 1
goldeneye_caverns_cavernsconcretefloor02
0 -141 128 48 0 0 1 76.576172 -150.872396 1 0 1
0 -11 139.3 48 0 0 1 76.429036 -149.179688 1 0 1
0 -141 139.3 48 0 0 1 76.429036 -150.872396 1 0 1
goldeneye_caverns_cavernsconcretefloor02
0 -141 139.3 48 0 0.818962 0.573847 40.420039 -150.872396 1 0 1
0 -11 139.3 48 0 0.818962 0.573847 40.420039 -149.179688 1 0 1
0 -11 140 47.001 0 0.818962 0.573847 40.404155 -149.179688 1 0 1
goldeneye_caverns_cavernsconcretefloor02
0 -141 139.3 48 0 0.818962 0.573847 40.420039 -150.872396 1 0 1
0 -11 140 47.001 0 0.818962 0.573847 40.404155 -149.179688 1 0 1
0 -141 140 47.001 0 0.818962 0.573847 40.404155 -150.872396 1 0 1
goldeneye_caverns_cavernsconcretefloor02
0 -11 140 47.001 0 1 0 -3.594388 -149.179688 1 0 1
0 -11 140 40 0 1 0 -3.685547 -149.179688 1 0 1
0 -141 140 40 0 1 0 -3.685547 -150.872396 1 0 1
goldeneye_caverns_cavernsconcretefloor02
0 -11 140 47.001 0 1 0 -3.594388 -149.179688 1 0 1
0 -141 140 40 0 1 0 -3.685547 -150.872396 1 0 1
0 -141 140 47.001 0 1 0 -3.594388 -150.872396 1 0 1
pepsi2_arch_concrete_floor_smooth01
0 -141 128 48 -1 0 0 45.5625 -1.5625 1 0 1
0 -141 139.3 48 -1 0 0 45.474219 -1.5625 1 0 1
0 -141 140 47.001 -1 0 0 45.46875 -1.570305 1 0 1
pepsi2_arch_concrete_floor_smooth01
0 -141 128 48 -1 0 0 45.5625 -1.5625 1 0 1
0 -141 140 47.001 -1 0 0 45.46875 -1.570305 1 0 1
0 -141 140 40 -1 0 0 45.46875 -1.625 1 0 1
concrete_concretewall001
0 25 184 0 1 0 0 -45.298828 -4 1 0 1
0 25 200 0 1 0 0 -45.173828 -4 1 0 1
0 25 200 62 1 0 0 -45.173828 -3.03125 1 0 1
concrete_concretewall001
0 25 184 0 1 0 0 -45.298828 -4 1 0 1
0 25 200 62 1 0 0 -45.173828 -3.03125 1 0 1
0 25 184 62 1 0 0 -45.298828 -3.03125 1 0 1
concrete_concretewall001
0 25 200 62 0 1 0 89.701172 -3.03125 1 0 1
0 25 200 0 0 1 0 89.701172 -4 1 0 1
0 -11 200 0 0 1 0 89.982422 -4 1 0 1
concrete_concretewall001
0 25 200 62 0 1 0 89.701172 -3.03125 1 0 1
0 -11 200 0 0 1 0 89.982422 -4 1 0 1
0 -11 200 62 0 1 0 89.982422 -3.03125 1 0 1
concrete_concretewall001
0 -11 184 62 -1 0 0 45.982422 -3.03125 1 0 1
0 -11 200 62 -1 0 0 45.857422 -3.03125 1 0 1
0 -11 200 0 -1 0 0 45.857422 -4 1 0 1
concrete_concretewall001
0 -11 184 62 -1 0 0 45.982422 -3.03125 1 0 1
0 -11 200 0 -1 0 0 45.857422 -4 1 0 1
0 -11 184 0 -1 0 0 45.982422 -4 1 0 1
goldeneye_caverns_cavernsconcretefloor02
0 -11 -100 207.001 0 1 0 -1.854805 -149.179688 1 0 1
0 -11 -100 200 0 1 0 -1.945964 -149.179688 1 0 1
0 -141 -100 200 0 1 0 -1.945964 -150.872396 1 0 1
goldeneye_caverns_cavernsconcretefloor02
0 -11 -100 207.001 0 1 0 -1.854805 -149.179688 1 0 1
0 -141 -100 200 0 1 0 -1.945964 -150.872396 1 0 1
0 -141 -100 207.001 0 1 0 -1.854805 -150.872396 1 0 1
pepsi2_arch_concrete_floor_smooth01
0 -141 -112 208 -1 0 0 47.4375 -0.3125 1 0 1
0 -141 -100.7 208 -1 0 0 47.349219 -0.3125 1 0 1
0 -141 -100 207.001 -1 0 0 47.34375 -0.320305 1 0 1
pepsi2_arch_concrete_floor_smooth01
0 -141 -112 208 -1 0 0 47.4375 -0.3125 1 0 1
0 -141 -100 207.001 -1 0 0 47.34375 -0.320305 1 0 1
0 -141 -100 200 -1 0 0 47.34375 -0.375 1 0 1
goldeneye_caverns_cavernsconcretefloor02
0 -11 -112 208 0 0 1 79.306641 -149.179688 1 0 1
0 -11 -100.7 208 0 0 1 79.159505 -149.179688 1 0 1
0 -141 -100.7 208 0 0 1 79.159505 -150.872396 1 0 1
goldeneye_caverns_cavernsconcretefloor02
0 -11 -112 208 0 0 1 79.306641 -149.179688 1 0 1
0 -141 -100.7 208 0 0 1 79.159505 -150.872396 1 0 1
0 -141 -112 208 0 0 1 79.306641 -150.872396 1 0 1
goldeneye_caverns_cavernsconcretefloor02
0 -11 -100.7 208 0 0.818962 0.573847 44.15707 -149.179688 1 0 1
0 -11 -100 207.001 0 0.818962 0.573847 44.141186 -149.179688 1 0 1
0 -141 -100 207.001 0 0.818962 0.573847 44.141186 -150.872396 1 0 1
goldeneye_caverns_cavernsconcretefloor02
0 -11 -100.7 208 0 0.818962 0.573847 44.15707 -149.179688 1 0 1
0 -141 -100 207.001 0 0.818962 0.573847 44.141186 -150.872396 1 0 1
0 -141 -100.7 208 0 0.818962 0.573847 44.15707 -150.872396 1 0 1
bridge_se1_metal_flat_steel_01
0 -1 -148 0 0 -1 0 -149.340495 -3.577474 1 0 1
0 -1 -148 108.023 0 -1 0 -149.340495 -2.170924 1 0 1
0 -11 -148 108.018 0 -1 0 -149.470703 -2.17099 1 0 1
bridge_se1_metal_flat_steel_01
0 -1 -148 0 0 -1 0 -149.340495 -3.577474 1 0 1
0 -11 -148 108.018 0 -1 0 -149.470703 -2.17099 1 0 1
0 -11 -148 0 0 -1 0 -149.470703 -3.577474 1 0 1
bridge_se1_metal_flat_steel_01
0 -11 -148 0 -1 0 0 -4.389974 -78.546875 1 0 1
0 -11 -148 108.018 -1 0 0 -2.98349 -78.546875 1 0 1
0 -11 -144 112.022 -1 0 0 -2.931354 -78.494792 1 0 1
bridge_se1_metal_flat_steel_01
0 -11 -148 0 -1 0 0 -4.389974 -78.546875 1 0 1
0 -11 -144 112.022 -1 0 0 -2.931354 -78.494792 1 0 1
0 -11 -144 0 -1 0 0 -4.389974 -78.494792 1 0 1
bridge_se1_metal_flat_steel_01
0 -1 -144 112.027 1 0 0 2.568008 -78.494792 1 0 1
0 -1 -148 108.023 1 0 0 2.620143 -78.546875 1 0 1
0 -1 -148 0 1 0 0 4.026693 -78.546875 1 0 1
bridge_se1_metal_flat_steel_01
0 -1 -144 112.027 1 0 0 2.568008 -78.494792 1 0 1
0 -1 -148 0 1 0 0 4.026693 -78.546875 1 0 1
0 -1 -144 0 1 0 0 4.026693 -78.494792 1 0 1
goldeneye_caverns_cavernsconcretefloor02
0 -11 -148.7 240 0 0.818962 0.573847 44.173226 -149.179688 1 0 1
0 -11 -148 239.001 0 0.818962 0.573847 44.157343 -149.179688 1 0 1
0 -141 -148 239.001 0 0.818962 0.573847 44.157343 -150.872396 1 0 1
goldeneye_caverns_cavernsconcretefloor02
0 -11 -148.7 240 0 0.818962 0.573847 44.173226 -149.179688 1 0 1
0 -141 -148 239.001 0 0.818962 0.573847 44.157343 -150.872396 1 0 1
0 -141 -148.7 240 0 0.818962 0.573847 44.173226 -150.872396 1 0 1
goldeneye_caverns_cavernsconcretefloor02
0 -141 -148 232 0 1 0 -0.929688 -150.872396 1 0 1
0 -141 -148 239.001 0 1 0 -0.838529 -150.872396 1 0 1
0 -11 -148 239.001 0 1 0 -0.838529 -149.179688 1 0 1
goldeneye_caverns_cavernsconcretefloor02
0 -141 -148 232 0 1 0 -0.929688 -150.872396 1 0 1
0 -11 -148 239.001 0 1 0 -0.838529 -149.179688 1 0 1
0 -11 -148 232 0 1 0 -0.929688 -149.179688 1 0 1
pepsi2_arch_concrete_floor_smooth01
0 -141 -160 240 -1 0 0 47.8125 -0.0625 1 0 1
0 -141 -148.7 240 -1 0 0 47.724219 -0.0625 1 0 1
0 -141 -148 239.001 -1 0 0 47.71875 -0.070305 1 0 1
pepsi2_arch_concrete_floor_smooth01
0 -141 -160 240 -1 0 0 47.8125 -0.0625 1 0 1
0 -141 -148 239.001 -1 0 0 47.71875 -0.070305 1 0 1
0 -141 -148 232 -1 0 0 47.71875 -0.125 1 0 1
goldeneye_caverns_cavernsconcretefloor02
0 -11 -160 240 0 0 1 80.324219 -149.179688 1 0 1
0 -11 -148.7 240 0 0 1 80.177083 -149.179688 1 0 1
0 -141 -148.7 240 0 0 1 80.177083 -150.872396 1 0 1
goldeneye_caverns_cavernsconcretefloor02
0 -11 -160 240 0 0 1 80.324219 -149.179688 1 0 1
0 -141 -148.7 240 0 0 1 80.177083 -150.872396 1 0 1
0 -141 -160 240 0 0 1 80.324219 -150.872396 1 0 1
pepsi2_arch_concrete_floor_smooth01
0 -141 -28 152 -1 0 0 46.78125 -0.75 1 0 1
0 -141 -16.7 152 -1 0 0 46.692969 -0.75 1 0 1
0 -141 -16 151.001 -1 0 0 46.6875 -0.757805 1 0 1
pepsi2_arch_concrete_floor_smooth01
0 -141 -28 152 -1 0 0 46.78125 -0.75 1 0 1
0 -141 -16 151.001 -1 0 0 46.6875 -0.757805 1 0 1
0 -141 -16 144 -1 0 0 46.6875 -0.8125 1 0 1
goldeneye_caverns_cavernsconcretefloor02
0 -11 -28 152 0 0 1 78.529297 -149.179688 1 0 1
0 -11 -16.7 152 0 0 1 78.382161 -149.179688 1 0 1
0 -141 -16.7 152 0 0 1 78.382161 -150.872396 1 0 1
goldeneye_caverns_cavernsconcretefloor02
0 -11 -28 152 0 0 1 78.529297 -149.179688 1 0 1
0 -141 -16.7 152 0 0 1 78.382161 -150.872396 1 0 1
0 -141 -28 152 0 0 1 78.529297 -150.872396 1 0 1
goldeneye_caverns_cavernsconcretefloor02
0 -11 -16.7 152 0 0.818962 0.573847 42.37782 -149.179688 1 0 1
0 -11 -16 151.001 0 0.818962 0.573847 42.361936 -149.179688 1 0 1
0 -141 -16 151.001 0 0.818962 0.573847 42.361936 -150.872396 1 0 1
goldeneye_caverns_cavernsconcretefloor02
0 -11 -16.7 152 0 0.818962 0.573847 42.37782 -149.179688 1 0 1
0 -141 -16 151.001 0 0.818962 0.573847 42.361936 -150.872396 1 0 1
0 -141 -16.7 152 0 0.818962 0.573847 42.37782 -150.872396 1 0 1
goldeneye_caverns_cavernsconcretefloor02
0 -11 -16 151.001 0 1 0 -2.634753 -149.179688 1 0 1
0 -11 -16 144 0 1 0 -2.725911 -149.179688 1 0 1
0 -141 -16 144 0 1 0 -2.725911 -150.872396 1 0 1
goldeneye_caverns_cavernsconcretefloor02
0 -11 -16 151.001 0 1 0 -2.634753 -149.179688 1 0 1
0 -141 -16 144 0 1 0 -2.725911 -150.872396 1 0 1
0 -141 -16 151.001 0 1 0 -2.634753 -150.872396 1 0 1
goldeneye_caverns_cavernsconcretefloor02
0 -11 164 31.001 0 1 0 -4.00194 -149.179688 1 0 1
0 -11 164 24 0 1 0 -4.093099 -149.179688 1 0 1
0 -141 164 24 0 1 0 -4.093099 -150.872396 1 0 1
goldeneye_caverns_cavernsconcretefloor02
0 -11 164 31.001 0 1 0 -4.00194 -149.179688 1 0 1
0 -141 164 24 0 1 0 -4.093099 -150.872396 1 0 1
0 -141 164 31.001 0 1 0 -4.00194 -150.872396 1 0 1
pepsi2_arch_concrete_floor_smooth01
0 -141 152 32 -1 0 0 45.375 -1.6875 1 0 1
0 -141 163.3 32 -1 0 0 45.286719 -1.6875 1 0 1
0 -141 164 31.001 -1 0 0 45.28125 -1.695305 1 0 1
pepsi2_arch_concrete_floor_smooth01
0 -141 152 32 -1 0 0 45.375 -1.6875 1 0 1
0 -141 164 31.001 -1 0 0 45.28125 -1.695305 1 0 1
0 -141 164 24 -1 0 0 45.28125 -1.75 1 0 1
goldeneye_caverns_cavernsconcretefloor02
0 -11 152 32 0 0 1 76.162109 -149.179688 1 0 1
0 -11 163.3 32 0 0 1 76.014974 -149.179688 1 0 1
0 -141 163.3 32 0 0 1 76.014974 -150.872396 1 0 1
goldeneye_caverns_cavernsconcretefloor02
0 -11 152 32 0 0 1 76.162109 -149.179688 1 0 1
0 -141 163.3 32 0 0 1 76.014974 -150.872396 1 0 1
0 -141 152 32 0 0 1 76.162109 -150.872396 1 0 1
goldeneye_caverns_cavernsconcretefloor02
0 -11 163.3 32 0 0.818962 0.573847 40.01157 -149.179688 1 0 1
0 -11 164 31.001 0 0.818962 0.573847 39.995686 -149.179688 1 0 1
0 -141 164 31.001 0 0.818962 0.573847 39.995686 -150.872396 1 0 1
goldeneye_caverns_cavernsconcretefloor02
0 -11 163.3 32 0 0.818962 0.573847 40.01157 -149.179688 1 0 1
0 -141 164 31.001 0 0.818962 0.573847 39.995686 -150.872396 1 0 1
0 -141 163.3 32 0 0.818962 0.573847 40.01157 -150.872396 1 0 1
goldeneye_caverns_cavernsconcretefloor02
0 -11 -136 231.001 0 1 0 -1.093086 -149.179688 1 0 1
0 -11 -136 224 0 1 0 -1.184245 -149.179688 1 0 1
0 -141 -136 224 0 1 0 -1.184245 -150.872396 1 0 1
goldeneye_caverns_cavernsconcretefloor02
0 -11 -136 231.001 0 1 0 -1.093086 -149.179688 1 0 1
0 -141 -136 224 0 1 0 -1.184245 -150.872396 1 0 1
0 -141 -136 231.001 0 1 0 -1.093086 -150.872396 1 0 1
pepsi2_arch_concrete_floor_smooth01
0 -141 -148 232 -1 0 0 47.71875 -0.125 1 0 1
0 -141 -136.7 232 -1 0 0 47.630469 -0.125 1 0 1
0 -141 -136 231.001 -1 0 0 47.625 -0.132805 1 0 1
pepsi2_arch_concrete_floor_smooth01
0 -141 -148 232 -1 0 0 47.71875 -0.125 1 0 1
0 -141 -136 231.001 -1 0 0 47.625 -0.132805 1 0 1
0 -141 -136 224 -1 0 0 47.625 -0.1875 1 0 1
goldeneye_caverns_cavernsconcretefloor02
0 -11 -148 232 0 0 1 80.070312 -149.179688 1 0 1
0 -11 -136.7 232 0 0 1 79.923177 -149.179688 1 0 1
0 -141 -136.7 232 0 0 1 79.923177 -150.872396 1 0 1
goldeneye_caverns_cavernsconcretefloor02
0 -11 -148 232 0 0 1 80.070312 -149.179688 1 0 1
0 -141 -136.7 232 0 0 1 79.923177 -150.872396 1 0 1
0 -141 -148 232 0 0 1 80.070312 -150.872396 1 0 1
goldeneye_caverns_cavernsconcretefloor02
0 -11 -136.7 232 0 0.818962 0.573847 44.920164 -149.179688 1 0 1
0 -11 -136 231.001 0 0.818962 0.573847 44.90428 -149.179688 1 0 1
0 -141 -136 231.001 0 0.818962 0.573847 44.90428 -150.872396 1 0 1
goldeneye_caverns_cavernsconcretefloor02
0 -11 -136.7 232 0 0.818962 0.573847 44.920164 -149.179688 1 0 1
0 -141 -136 231.001 0 0.818962 0.573847 44.90428 -150.872396 1 0 1
0 -141 -136.7 232 0 0.818962 0.573847 44.920164 -150.872396 1 0 1
gmod_tower_cafe_cafe_brick
0 151 200 360.0021 0 1 0 89.607422 1.750016 1 0 1
0 151 200 62 0 1 0 89.607422 -0.578125 1 0 1
0 115 200 62 0 1 0 89.888672 -0.578125 1 0 1
gmod_tower_cafe_cafe_brick
0 151 200 360.0021 0 1 0 89.607422 1.750016 1 0 1
0 115 200 62 0 1 0 89.888672 -0.578125 1 0 1
0 115 200 360.0021 0 1 0 89.888672 1.750016 1 0 1
gmod_tower_cafe_cafe_brick
0 115 184 62 -1 0 0 45.873047 -0.578125 1 0 1
0 115 184 400 -1 0 0 45.873047 2.0625 1 0 1
0 115 187 400 -1 0 0 45.849609 2.0625 1 0 1
gmod_tower_cafe_cafe_brick
0 115 184 62 -1 0 0 45.873047 -0.578125 1 0 1
0 115 187 400 -1 0 0 45.849609 2.0625 1 0 1
0 115 200 360.0021 -1 0 0 45.748047 1.750016 1 0 1
gmod_tower_cafe_cafe_brick
0 115 184 62 -1 0 0 45.873047 -0.578125 1 0 1
0 115 200 360.0021 -1 0 0 45.748047 1.750016 1 0 1
0 115 200 62 -1 0 0 45.748047 -0.578125 1 0 1
gmod_tower_cafe_cafe_brick
0 151 184 400 1 0 0 -44.392578 2.0625 1 0 1
0 151 184 62 1 0 0 -44.392578 -0.578125 1 0 1
0 151 200 62 1 0 0 -44.267578 -0.578125 1 0 1
gmod_tower_cafe_cafe_brick
0 151 184 400 1 0 0 -44.392578 2.0625 1 0 1
0 151 200 62 1 0 0 -44.267578 -0.578125 1 0 1
0 151 200 360.0021 1 0 0 -44.267578 1.750016 1 0 1
gmod_tower_cafe_cafe_brick
0 151 184 400 1 0 0 -44.392578 2.0625 1 0 1
0 151 200 360.0021 1 0 0 -44.267578 1.750016 1 0 1
0 151 187 400 1 0 0 -44.369141 2.0625 1 0 1
props_tarpaperroof002a
0 115 184 400 0 0 1 -49.28125 26.233507 1 0 1
0 151 184 400 0 0 1 -49.125 26.233507 1 0 1
0 151 187 400 0 0 1 -49.125 26.220486 1 0 1
props_tarpaperroof002a
0 115 184 400 0 0 1 -49.28125 26.233507 1 0 1
0 151 187 400 0 0 1 -49.125 26.220486 1 0 1
0 115 187 400 0 0 1 -49.28125 26.220486 1 0 1
concrete_concretewall001
0 151 200 360.0021 0 0.951029 0.309101 88.716797 29.003156 1 0 1
0 115 200 360.0021 0 0.951029 0.309101 88.998047 29.003156 1 0 1
0 115 187 400 0 0.951029 0.309101 88.998047 29.660286 1 0 1
concrete_concretewall001
0 151 200 360.0021 0 0.951029 0.309101 88.716797 29.003156 1 0 1
0 115 187 400 0 0.951029 0.309101 88.998047 29.660286 1 0 1
0 151 187 400 0 0.951029 0.309101 88.716797 29.660286 1 0 1
goldeneye_caverns_cavernsconcretefloor02
0 -11 176 23.001 0 1 0 -4.254544 -149.179688 1 0 1
0 -11 176 16 0 1 0 -4.345703 -149.179688 1 0 1
0 -141 176 16 0 1 0 -4.345703 -150.872396 1 0 1
goldeneye_caverns_cavernsconcretefloor02
0 -11 176 23.001 0 1 0 -4.254544 -149.179688 1 0 1
0 -141 176 16 0 1 0 -4.345703 -150.872396 1 0 1
0 -141 176 23.001 0 1 0 -4.254544 -150.872396 1 0 1
pepsi2_arch_concrete_floor_smooth01
0 -141 164 24 -1 0 0 45.28125 -1.75 1 0 1
0 -141 175.3 24 -1 0 0 45.192969 -1.75 1 0 1
0 -141 176 23.001 -1 0 0 45.1875 -1.757805 1 0 1
pepsi2_arch_concrete_floor_smooth01
0 -141 164 24 -1 0 0 45.28125 -1.75 1 0 1
0 -141 176 23.001 -1 0 0 45.1875 -1.757805 1 0 1
0 -141 176 16 -1 0 0 45.1875 -1.8125 1 0 1
goldeneye_caverns_cavernsconcretefloor02
0 -11 164 24 0 0 1 75.908203 -149.179688 1 0 1
0 -11 175.3 24 0 0 1 75.761068 -149.179688 1 0 1
0 -141 175.3 24 0 0 1 75.761068 -150.872396 1 0 1
goldeneye_caverns_cavernsconcretefloor02
0 -11 164 24 0 0 1 75.908203 -149.179688 1 0 1
0 -141 175.3 24 0 0 1 75.761068 -150.872396 1 0 1
0 -141 164 24 0 0 1 75.908203 -150.872396 1 0 1
goldeneye_caverns_cavernsconcretefloor02
0 -11 175.3 24 0 0.818962 0.573847 39.758508 -149.179688 1 0 1
0 -11 176 23.001 0 0.818962 0.573847 39.742624 -149.179688 1 0 1
0 -141 176 23.001 0 0.818962 0.573847 39.742624 -150.872396 1 0 1
goldeneye_caverns_cavernsconcretefloor02
0 -11 175.3 24 0 0.818962 0.573847 39.758508 -149.179688 1 0 1
0 -141 176 23.001 0 0.818962 0.573847 39.742624 -150.872396 1 0 1
0 -141 175.3 24 0 0.818962 0.573847 39.758508 -150.872396 1 0 1
bridge_se1_metal_flat_steel_01
0 -11 -200 112 -1 0 0 -2.931641 -79.223958 1 0 1
0 -11 -144 112 -1 0 0 -2.931641 -78.494792 1 0 1
0 -11 -148 108 -1 0 0 -2.983724 -78.546875 1 0 1
bridge_se1_metal_flat_steel_01
0 -11 -200 112 -1 0 0 -2.931641 -79.223958 1 0 1
0 -11 -148 108 -1 0 0 -2.983724 -78.546875 1 0 1
0 -11 -196 108 -1 0 0 -2.983724 -79.171875 1 0 1
bridge_se1_metal_flat_steel_01
0 -1 -196 108 1 0 0 2.620443 -79.171875 1 0 1
0 -1 -148 108 1 0 0 2.620443 -78.546875 1 0 1
0 -1 -144 112 1 0 0 2.568359 -78.494792 1 0 1
bridge_se1_metal_flat_steel_01
0 -1 -196 108 1 0 0 2.620443 -79.171875 1 0 1
0 -1 -144 112 1 0 0 2.568359 -78.494792 1 0 1
0 -1 -200 112 1 0 0 2.568359 -79.223958 1 0 1
bridge_se1_metal_flat_steel_01
0 -11 -196 108 0 0 -1 -149.470703 -79.171875 1 0 1
0 -11 -148 108 0 0 -1 -149.470703 -78.546875 1 0 1
0 -1 -148 108 0 0 -1 -149.340495 -78.546875 1 0 1
bridge_se1_metal_flat_steel_01
0 -11 -196 108 0 0 -1 -149.470703 -79.171875 1 0 1
0 -1 -148 108 0 0 -1 -149.340495 -78.546875 1 0 1
0 -1 -196 108 0 0 -1 -149.340495 -79.171875 1 0 1
goldeneye_caverns_cavernsconcretefloor02
0 -11 200 7.001 0 1 0 -4.763659 -149.179688 1 0 1
0 -11 200 0 0 1 0 -4.854818 -149.179688 1 0 1
0 -141 200 0 0 1 0 -4.854818 -150.872396 1 0 1
goldeneye_caverns_cavernsconcretefloor02
0 -11 200 7.001 0 1 0 -4.763659 -149.179688 1 0 1
0 -141 200 0 0 1 0 -4.854818 -150.872396 1 0 1
0 -141 200 7.001 0 1 0 -4.763659 -150.872396 1 0 1
pepsi2_arch_concrete_floor_smooth01
0 -141 188 8 -1 0 0 45.09375 -1.875 1 0 1
0 -141 199.3 8 -1 0 0 45.005469 -1.875 1 0 1
0 -141 200 7.001 -1 0 0 45 -1.882805 1 0 1
pepsi2_arch_concrete_floor_smooth01
0 -141 188 8 -1 0 0 45.09375 -1.875 1 0 1
0 -141 200 7.001 -1 0 0 45 -1.882805 1 0 1
0 -141 200 0 -1 0 0 45 -1.9375 1 0 1
goldeneye_caverns_cavernsconcretefloor02
0 -11 188 8 0 0 1 75.398438 -149.179688 1 0 1
0 -11 199.3 8 0 0 1 75.251302 -149.179688 1 0 1
0 -141 199.3 8 0 0 1 75.251302 -150.872396 1 0 1
goldeneye_caverns_cavernsconcretefloor02
0 -11 188 8 0 0 1 75.398438 -149.179688 1 0 1
0 -141 199.3 8 0 0 1 75.251302 -150.872396 1 0 1
0 -141 188 8 0 0 1 75.398438 -150.872396 1 0 1
goldeneye_caverns_cavernsconcretefloor02
0 -11 199.3 8 0 0.818962 0.573847 39.248476 -149.179688 1 0 1
0 -11 200 7.001 0 0.818962 0.573847 39.232593 -149.179688 1 0 1
0 -141 200 7.001 0 0.818962 0.573847 39.232593 -150.872396 1 0 1
goldeneye_caverns_cavernsconcretefloor02
0 -11 199.3 8 0 0.818962 0.573847 39.248476 -149.179688 1 0 1
0 -141 200 7.001 0 0.818962 0.573847 39.232593 -150.872396 1 0 1
0 -141 199.3 8 0 0.818962 0.573847 39.248476 -150.872396 1 0 1
goldeneye_caverns_cavernsconcretefloor02
0 -11 -4 143.001 0 1 0 -2.88931 -149.179688 1 0 1
0 -11 -4 136 0 1 0 -2.980469 -149.179688 1 0 1
0 -141 -4 136 0 1 0 -2.980469 -150.872396 1 0 1
goldeneye_caverns_cavernsconcretefloor02
0 -11 -4 143.001 0 1 0 -2.88931 -149.179688 1 0 1
0 -141 -4 136 0 1 0 -2.980469 -150.872396 1 0 1
0 -141 -4 143.001 0 1 0 -2.88931 -150.872396 1 0 1
pepsi2_arch_concrete_floor_smooth01
0 -141 -16 144 -1 0 0 46.6875 -0.8125 1 0 1
0 -141 -4.7 144 -1 0 0 46.599219 -0.8125 1 0 1
0 -141 -4 143.001 -1 0 0 46.59375 -0.820305 1 0 1
pepsi2_arch_concrete_floor_smooth01
0 -141 -16 144 -1 0 0 46.6875 -0.8125 1 0 1
0 -141 -4 143.001 -1 0 0 46.59375 -0.820305 1 0 1
0 -141 -4 136 -1 0 0 46.59375 -0.875 1 0 1
goldeneye_caverns_cavernsconcretefloor02
0 -11 -16 144 0 0 1 78.273438 -149.179688 1 0 1
0 -11 -4.7 144 0 0 1 78.126302 -149.179688 1 0 1
0 -141 -4.7 144 0 0 1 78.126302 -150.872396 1 0 1
goldeneye_caverns_cavernsconcretefloor02
0 -11 -16 144 0 0 1 78.273438 -149.179688 1 0 1
0 -141 -4.7 144 0 0 1 78.126302 -150.872396 1 0 1
0 -141 -16 144 0 0 1 78.273438 -150.872396 1 0 1
goldeneye_caverns_cavernsconcretefloor02
0 -11 -4.7 144 0 0.818962 0.573847 42.124758 -149.179688 1 0 1
0 -11 -4 143.001 0 0.818962 0.573847 42.108874 -149.179688 1 0 1
0 -141 -4 143.001 0 0.818962 0.573847 42.108874 -150.872396 1 0 1
goldeneye_caverns_cavernsconcretefloor02
0 -11 -4.7 144 0 0.818962 0.573847 42.124758 -149.179688 1 0 1
0 -141 -4 143.001 0 0.818962 0.573847 42.108874 -150.872396 1 0 1
0 -141 -4.7 144 0 0.818962 0.573847 42.124758 -150.872396 1 0 1
gmod_tower_cafe_cafe_brick
0 25 200 360.0021 0 1 0 90.591797 1.750016 1 0 1
0 25 200 62 0 1 0 90.591797 -0.578125 1 0 1
0 -11 200 62 0 1 0 90.873047 -0.578125 1 0 1
gmod_tower_cafe_cafe_brick
0 25 200 360.0021 0 1 0 90.591797 1.750016 1 0 1
0 -11 200 62 0 1 0 90.873047 -0.578125 1 0 1
0 -11 200 360.0021 0 1 0 90.873047 1.750016 1 0 1
gmod_tower_cafe_cafe_brick
0 -11 184 62 -1 0 0 45.857422 -0.578125 1 0 1
0 -11 184 400 -1 0 0 45.857422 2.0625 1 0 1
0 -11 187 400 -1 0 0 45.833984 2.0625 1 0 1
gmod_tower_cafe_cafe_brick
0 -11 184 62 -1 0 0 45.857422 -0.578125 1 0 1
0 -11 187 400 -1 0 0 45.833984 2.0625 1 0 1
0 -11 200 360.0021 -1 0 0 45.732422 1.750016 1 0 1
gmod_tower_cafe_cafe_brick
0 -11 184 62 -1 0 0 45.857422 -0.578125 1 0 1
0 -11 200 360.0021 -1 0 0 45.732422 1.750016 1 0 1
0 -11 200 62 -1 0 0 45.732422 -0.578125 1 0 1
gmod_tower_cafe_cafe_brick
0 25 184 400 1 0 0 -44.392578 2.0625 1 0 1
0 25 184 62 1 0 0 -44.392578 -0.578125 1 0 1
0 25 200 62 1 0 0 -44.267578 -0.578125 1 0 1
gmod_tower_cafe_cafe_brick
0 25 184 400 1 0 0 -44.392578 2.0625 1 0 1
0 25 200 62 1 0 0 -44.267578 -0.578125 1 0 1
0 25 200 360.0021 1 0 0 -44.267578 1.750016 1 0 1
gmod_tower_cafe_cafe_brick
0 25 184 400 1 0 0 -44.392578 2.0625 1 0 1
0 25 200 360.0021 1 0 0 -44.267578 1.750016 1 0 1
0 25 187 400 1 0 0 -44.369141 2.0625 1 0 1
props_tarpaperroof002a
0 -11 184 400 0 0 1 -49.828125 26.233507 1 0 1
0 25 184 400 0 0 1 -49.671875 26.233507 1 0 1
0 25 187 400 0 0 1 -49.671875 26.220486 1 0 1
props_tarpaperroof002a
0 -11 184 400 0 0 1 -49.828125 26.233507 1 0 1
0 25 187 400 0 0 1 -49.671875 26.220486 1 0 1
0 -11 187 400 0 0 1 -49.828125 26.220486 1 0 1
concrete_concretewall001
0 25 200 360.0021 0 0.951029 0.309101 89.701172 29.003156 1 0 1
0 -11 200 360.0021 0 0.951029 0.309101 89.982422 29.003156 1 0 1
0 -11 187 400 0 0.951029 0.309101 89.982422 29.660286 1 0 1
concrete_concretewall001
0 25 200 360.0021 0 0.951029 0.309101 89.701172 29.003156 1 0 1
0 -11 187 400 0 0.951029 0.309101 89.982422 29.660286 1 0 1
0 25 187 400 0 0.951029 0.309101 89.701172 29.660286 1 0 1
goldeneye_caverns_cavernsconcretefloor02
0 -11 -28 159.001 0 1 0 -2.380195 -149.179688 1 0 1
0 -11 -28 152 0 1 0 -2.471354 -149.179688 1 0 1
0 -141 -28 152 0 1 0 -2.471354 -150.872396 1 0 1
goldeneye_caverns_cavernsconcretefloor02
0 -11 -28 159.001 0 1 0 -2.380195 -149.179688 1 0 1
0 -141 -28 152 0 1 0 -2.471354 -150.872396 1 0 1
0 -141 -28 159.001 0 1 0 -2.380195 -150.872396 1 0 1
pepsi2_arch_concrete_floor_smooth01
0 -141 -40 160 -1 0 0 46.875 -0.6875 1 0 1
0 -141 -28.7 160 -1 0 0 46.786719 -0.6875 1 0 1
0 -141 -28 159.001 -1 0 0 46.78125 -0.695305 1 0 1
pepsi2_arch_concrete_floor_smooth01
0 -141 -40 160 -1 0 0 46.875 -0.6875 1 0 1
0 -141 -28 159.001 -1 0 0 46.78125 -0.695305 1 0 1
0 -141 -28 152 -1 0 0 46.78125 -0.75 1 0 1
goldeneye_caverns_cavernsconcretefloor02
0 -11 -40 160 0 0 1 78.783203 -149.179688 1 0 1
0 -11 -28.7 160 0 0 1 78.636068 -149.179688 1 0 1
0 -141 -28.7 160 0 0 1 78.636068 -150.872396 1 0 1
goldeneye_caverns_cavernsconcretefloor02
0 -11 -40 160 0 0 1 78.783203 -149.179688 1 0 1
0 -141 -28.7 160 0 0 1 78.636068 -150.872396 1 0 1
0 -141 -40 160 0 0 1 78.783203 -150.872396 1 0 1
goldeneye_caverns_cavernsconcretefloor02
0 -11 -28.7 160 0 0.818962 0.573847 42.632836 -149.179688 1 0 1
0 -11 -28 159.001 0 0.818962 0.573847 42.616952 -149.179688 1 0 1
0 -141 -28 159.001 0 0.818962 0.573847 42.616952 -150.872396 1 0 1
goldeneye_caverns_cavernsconcretefloor02
0 -11 -28.7 160 0 0.818962 0.573847 42.632836 -149.179688 1 0 1
0 -141 -28 159.001 0 0.818962 0.573847 42.616952 -150.872396 1 0 1
0 -141 -28.7 160 0 0.818962 0.573847 42.632836 -150.872396 1 0 1
concrete_concretewall001
0 115 200 0 0 1 0 88.998047 -4 1 0 1
0 115 200 62 0 1 0 88.998047 -3.03125 1 0 1
0 151 200 62 0 1 0 88.716797 -3.03125 1 0 1
concrete_concretewall001
0 115 200 0 0 1 0 88.998047 -4 1 0 1
0 151 200 62 0 1 0 88.716797 -3.03125 1 0 1
0 151 200 0 0 1 0 88.716797 -4 1 0 1
concrete_concretewall001
0 115 184 0 -1 0 0 45.998047 -4 1 0 1
0 115 184 62 -1 0 0 45.998047 -3.03125 1 0 1
0 115 200 62 -1 0 0 45.873047 -3.03125 1 0 1
concrete_concretewall001
0 115 184 0 -1 0 0 45.998047 -4 1 0 1
0 115 200 62 -1 0 0 45.873047 -3.03125 1 0 1
0 115 200 0 -1 0 0 45.873047 -4 1 0 1
concrete_concretewall001
0 151 200 0 1 0 0 -45.158203 -4 1 0 1
0 151 200 62 1 0 0 -45.158203 -3.03125 1 0 1
0 151 184 62 1 0 0 -45.283203 -3.03125 1 0 1
concrete_concretewall001
0 151 200 0 1 0 0 -45.158203 -4 1 0 1
0 151 184 62 1 0 0 -45.283203 -3.03125 1 0 1
0 151 184 0 1 0 0 -45.283203 -4 1 0 1
goldeneye_caverns_cavernsconcretefloor02
0 -11 32 119 0 1 0 -2.401042 -149.179688 1 0 1
0 -11 32 112 0 1 0 -2.492188 -149.179688 1 0 1
0 -141 32 112 0 1 0 -2.492188 -150.872396 1 0 1
goldeneye_caverns_cavernsconcretefloor02
0 -11 32 119 0 1 0 -2.401042 -149.179688 1 0 1
0 -141 32 112 0 1 0 -2.492188 -150.872396 1 0 1
0 -141 32 119 0 1 0 -2.401042 -150.872396 1 0 1
pepsi2_arch_concrete_floor_smooth01
0 -141 20 120 -1 0 0 46.40625 -1 1 0 1
0 -141 31.3 120 -1 0 0 46.317969 -1 1 0 1
0 -141 32 119 -1 0 0 46.3125 -1.007812 1 0 1
pepsi2_arch_concrete_floor_smooth01
0 -141 20 120 -1 0 0 46.40625 -1 1 0 1
0 -141 32 119 -1 0 0 46.3125 -1.007812 1 0 1
0 -141 32 112 -1 0 0 46.3125 -1.0625 1 0 1
goldeneye_caverns_cavernsconcretefloor02
0 -11 20 120 0 0 1 77.761719 -149.179688 1 0 1
0 -11 31.3 120 0 0 1 77.614583 -149.179688 1 0 1
0 -141 31.3 120 0 0 1 77.614583 -150.872396 1 0 1
goldeneye_caverns_cavernsconcretefloor02
0 -11 20 120 0 0 1 77.761719 -149.179688 1 0 1
0 -141 31.3 120 0 0 1 77.614583 -150.872396 1 0 1
0 -141 20 120 0 0 1 77.761719 -150.872396 1 0 1
goldeneye_caverns_cavernsconcretefloor02
0 -11 31.3 120 0 0.819232 0.573462 41.611664 -149.179688 1 0 1
0 -11 32 119 0 0.819232 0.573462 41.59577 -149.179688 1 0 1
0 -141 32 119 0 0.819232 0.573462 41.59577 -150.872396 1 0 1
goldeneye_caverns_cavernsconcretefloor02
0 -11 31.3 120 0 0.819232 0.573462 41.611664 -149.179688 1 0 1
0 -141 32 119 0 0.819232 0.573462 41.59577 -150.872396 1 0 1
0 -141 31.3 120 0 0.819232 0.573462 41.611664 -150.872396 1 0 1
goldeneye_caverns_cavernsconcretefloor02
0 -11 -64.7 184 0 0.818962 0.573847 43.395929 -149.179688 1 0 1
0 -11 -64 183.001 0 0.818962 0.573847 43.380046 -149.179688 1 0 1
0 -141 -64 183.001 0 0.818962 0.573847 43.380046 -150.872396 1 0 1
goldeneye_caverns_cavernsconcretefloor02
0 -11 -64.7 184 0 0.818962 0.573847 43.395929 -149.179688 1 0 1
0 -141 -64 183.001 0 0.818962 0.573847 43.380046 -150.872396 1 0 1
0 -141 -64.7 184 0 0.818962 0.573847 43.395929 -150.872396 1 0 1
goldeneye_caverns_cavernsconcretefloor02
0 -11 -64 176 0 1 0 -1.709635 -149.179688 1 0 1
0 -141 -64 176 0 1 0 -1.709635 -150.872396 1 0 1
0 -141 -64 183.001 0 1 0 -1.618477 -150.872396 1 0 1
goldeneye_caverns_cavernsconcretefloor02
0 -11 -64 176 0 1 0 -1.709635 -149.179688 1 0 1
0 -141 -64 183.001 0 1 0 -1.618477 -150.872396 1 0 1
0 -11 -64 183.001 0 1 0 -1.618477 -149.179688 1 0 1
pepsi2_arch_concrete_floor_smooth01
0 -141 -64.7 184 -1 0 0 47.067969 -0.5 1 0 1
0 -141 -64 183.001 -1 0 0 47.0625 -0.507805 1 0 1
0 -141 -64 176 -1 0 0 47.0625 -0.5625 1 0 1
pepsi2_arch_concrete_floor_smooth01
0 -141 -64.7 184 -1 0 0 47.067969 -0.5 1 0 1
0 -141 -64 176 -1 0 0 47.0625 -0.5625 1 0 1
0 -141 -76 184 -1 0 0 47.15625 -0.5 1 0 1
goldeneye_caverns_cavernsconcretefloor02
0 -141 -76 184 0 0 1 79.544922 -150.872396 1 0 1
0 -11 -76 184 0 0 1 79.544922 -149.179688 1 0 1
0 -11 -64.7 184 0 0 1 79.397786 -149.179688 1 0 1
goldeneye_caverns_cavernsconcretefloor02
0 -141 -76 184 0 0 1 79.544922 -150.872396 1 0 1
0 -11 -64.7 184 0 0 1 79.397786 -149.179688 1 0 1
0 -141 -64.7 184 0 0 1 79.397786 -150.872396 1 0 1
goldeneye_caverns_cavernsconcretefloor02
0 -11 20 127.001 0 1 0 -3.146471 -149.179688 1 0 1
0 -11 20 120 0 1 0 -3.23763 -149.179688 1 0 1
0 -141 20 120 0 1 0 -3.23763 -150.872396 1 0 1
goldeneye_caverns_cavernsconcretefloor02
0 -11 20 127.001 0 1 0 -3.146471 -149.179688 1 0 1
0 -141 20 120 0 1 0 -3.23763 -150.872396 1 0 1
0 -141 20 127.001 0 1 0 -3.146471 -150.872396 1 0 1
pepsi2_arch_concrete_floor_smooth01
0 -141 8 128 -1 0 0 46.5 -0.9375 1 0 1
0 -141 19.3 128 -1 0 0 46.411719 -0.9375 1 0 1
0 -141 20 127.001 -1 0 0 46.40625 -0.945305 1 0 1
pepsi2_arch_concrete_floor_smooth01
0 -141 8 128 -1 0 0 46.5 -0.9375 1 0 1
0 -141 20 127.001 -1 0 0 46.40625 -0.945305 1 0 1
0 -141 20 120 -1 0 0 46.40625 -1 1 0 1
goldeneye_caverns_cavernsconcretefloor02
0 -11 8 128 0 0 1 78.017578 -149.179688 1 0 1
0 -11 19.3 128 0 0 1 77.870443 -149.179688 1 0 1
0 -141 19.3 128 0 0 1 77.870443 -150.872396 1 0 1
goldeneye_caverns_cavernsconcretefloor02
0 -11 8 128 0 0 1 78.017578 -149.179688 1 0 1
0 -141 19.3 128 0 0 1 77.870443 -150.872396 1 0 1
0 -141 8 128 0 0 1 78.017578 -150.872396 1 0 1
goldeneye_caverns_cavernsconcretefloor02
0 -11 19.3 128 0 0.818962 0.573847 41.866679 -149.179688 1 0 1
0 -11 20 127.001 0 0.818962 0.573847 41.850796 -149.179688 1 0 1
0 -141 20 127.001 0 0.818962 0.573847 41.850796 -150.872396 1 0 1
goldeneye_caverns_cavernsconcretefloor02
0 -11 19.3 128 0 0.818962 0.573847 41.866679 -149.179688 1 0 1
0 -141 20 127.001 0 0.818962 0.573847 41.850796 -150.872396 1 0 1
0 -141 19.3 128 0 0.818962 0.573847 41.866679 -150.872396 1 0 1
goldeneye_caverns_cavernsconcretefloor02
0 -11 -52 175.001 0 1 0 -1.873034 -149.179688 1 0 1
0 -11 -52 168 0 1 0 -1.964193 -149.179688 1 0 1
0 -141 -52 168 0 1 0 -1.964193 -150.872396 1 0 1
goldeneye_caverns_cavernsconcretefloor02
0 -11 -52 175.001 0 1 0 -1.873034 -149.179688 1 0 1
0 -141 -52 168 0 1 0 -1.964193 -150.872396 1 0 1
0 -141 -52 175.001 0 1 0 -1.873034 -150.872396 1 0 1
pepsi2_arch_concrete_floor_smooth01
0 -141 -64 176 -1 0 0 47.0625 -0.5625 1 0 1
0 -141 -52.7 176 -1 0 0 46.974219 -0.5625 1 0 1
0 -141 -52 175.001 -1 0 0 46.96875 -0.570305 1 0 1
pepsi2_arch_concrete_floor_smooth01
0 -141 -64 176 -1 0 0 47.0625 -0.5625 1 0 1
0 -141 -52 175.001 -1 0 0 46.96875 -0.570305 1 0 1
0 -141 -52 168 -1 0 0 46.96875 -0.625 1 0 1
goldeneye_caverns_cavernsconcretefloor02
0 -11 -64 176 0 0 1 79.291016 -149.179688 1 0 1
0 -11 -52.7 176 0 0 1 79.14388 -149.179688 1 0 1
0 -141 -52.7 176 0 0 1 79.14388 -150.872396 1 0 1
goldeneye_caverns_cavernsconcretefloor02
0 -11 -64 176 0 0 1 79.291016 -149.179688 1 0 1
0 -141 -52.7 176 0 0 1 79.14388 -150.872396 1 0 1
0 -141 -64 176 0 0 1 79.291016 -150.872396 1 0 1
goldeneye_caverns_cavernsconcretefloor02
0 -11 -52.7 176 0 0.818962 0.573847 43.140914 -149.179688 1 0 1
0 -11 -52 175.001 0 0.818962 0.573847 43.12503 -149.179688 1 0 1
0 -141 -52 175.001 0 0.818962 0.573847 43.12503 -150.872396 1 0 1
goldeneye_caverns_cavernsconcretefloor02
0 -11 -52.7 176 0 0.818962 0.573847 43.140914 -149.179688 1 0 1
0 -141 -52 175.001 0 0.818962 0.573847 43.12503 -150.872396 1 0 1
0 -141 -52.7 176 0 0.818962 0.573847 43.140914 -150.872396 1 0 1
goldeneye_caverns_cavernsconcretefloor02
0 -11 80 87.001 0 1 0 -3.315742 -149.179688 1 0 1
0 -11 80 80 0 1 0 -3.406901 -149.179688 1 0 1
0 -141 80 80 0 1 0 -3.406901 -150.872396 1 0 1
goldeneye_caverns_cavernsconcretefloor02
0 -11 80 87.001 0 1 0 -3.315742 -149.179688 1 0 1
0 -141 80 80 0 1 0 -3.406901 -150.872396 1 0 1
0 -141 80 87.001 0 1 0 -3.315742 -150.872396 1 0 1
pepsi2_arch_concrete_floor_smooth01
0 -141 68 88 -1 0 0 46.03125 -1.25 1 0 1
0 -141 79.3 88 -1 0 0 45.942969 -1.25 1 0 1
0 -141 80 87.001 -1 0 0 45.9375 -1.257805 1 0 1
pepsi2_arch_concrete_floor_smooth01
0 -141 68 88 -1 0 0 46.03125 -1.25 1 0 1
0 -141 80 87.001 -1 0 0 45.9375 -1.257805 1 0 1
0 -141 80 80 -1 0 0 45.9375 -1.3125 1 0 1
goldeneye_caverns_cavernsconcretefloor02
0 -11 68 88 0 0 1 76.845703 -149.179688 1 0 1
0 -11 79.3 88 0 0 1 76.698568 -149.179688 1 0 1
0 -141 79.3 88 0 0 1 76.698568 -150.872396 1 0 1
goldeneye_caverns_cavernsconcretefloor02
0 -11 68 88 0 0 1 76.845703 -149.179688 1 0 1
0 -141 79.3 88 0 0 1 76.698568 -150.872396 1 0 1
0 -141 68 88 0 0 1 76.845703 -150.872396 1 0 1
goldeneye_caverns_cavernsconcretefloor02
0 -11 79.3 88 0 0.818962 0.573847 41.69707 -149.179688 1 0 1
0 -11 80 87.001 0 0.818962 0.573847 41.681186 -149.179688 1 0 1
0 -141 80 87.001 0 0.818962 0.573847 41.681186 -150.872396 1 0 1
goldeneye_caverns_cavernsconcretefloor02
0 -11 79.3 88 0 0.818962 0.573847 41.69707 -149.179688 1 0 1
0 -141 80 87.001 0 0.818962 0.573847 41.681186 -150.872396 1 0 1
0 -141 79.3 88 0 0.818962 0.573847 41.69707 -150.872396 1 0 1
goldeneye_caverns_cavernsconcretefloor02
0 -11 116 63.001 0 1 0 -3.079414 -149.179688 1 0 1
0 -11 116 56 0 1 0 -3.170573 -149.179688 1 0 1
0 -141 116 56 0 1 0 -3.170573 -150.872396 1 0 1
goldeneye_caverns_cavernsconcretefloor02
0 -11 116 63.001 0 1 0 -3.079414 -149.179688 1 0 1
0 -141 116 56 0 1 0 -3.170573 -150.872396 1 0 1
0 -141 116 63.001 0 1 0 -3.079414 -150.872396 1 0 1
pepsi2_arch_concrete_floor_smooth01
0 -141 104 64 -1 0 0 45.75 -1.4375 1 0 1
0 -141 115.3 64 -1 0 0 45.661719 -1.4375 1 0 1
0 -141 116 63.001 -1 0 0 45.65625 -1.445305 1 0 1
pepsi2_arch_concrete_floor_smooth01
0 -141 104 64 -1 0 0 45.75 -1.4375 1 0 1
0 -141 116 63.001 -1 0 0 45.65625 -1.445305 1 0 1
0 -141 116 56 -1 0 0 45.65625 -1.5 1 0 1
goldeneye_caverns_cavernsconcretefloor02
0 -11 104 64 0 0 1 77.083984 -149.179688 1 0 1
0 -11 115.3 64 0 0 1 76.936849 -149.179688 1 0 1
0 -141 115.3 64 0 0 1 76.936849 -150.872396 1 0 1
goldeneye_caverns_cavernsconcretefloor02
0 -11 104 64 0 0 1 77.083984 -149.179688 1 0 1
0 -141 115.3 64 0 0 1 76.936849 -150.872396 1 0 1
0 -141 104 64 0 0 1 77.083984 -150.872396 1 0 1
goldeneye_caverns_cavernsconcretefloor02
0 -11 115.3 64 0 0.818962 0.573847 40.933976 -149.179688 1 0 1
0 -11 116 63.001 0 0.818962 0.573847 40.918093 -149.179688 1 0 1
0 -141 116 63.001 0 0.818962 0.573847 40.918093 -150.872396 1 0 1
goldeneye_caverns_cavernsconcretefloor02
0 -11 115.3 64 0 0.818962 0.573847 40.933976 -149.179688 1 0 1
0 -141 116 63.001 0 0.818962 0.573847 40.918093 -150.872396 1 0 1
0 -141 115.3 64 0 0.818962 0.573847 40.933976 -150.872396 1 0 1
goldeneye_caverns_cavernsconcretefloor02
0 -11 56 103.001 0 1 0 -2.808581 -149.179688 1 0 1
0 -11 56 96 0 1 0 -2.89974 -149.179688 1 0 1
0 -141 56 96 0 1 0 -2.89974 -150.872396 1 0 1
goldeneye_caverns_cavernsconcretefloor02
0 -11 56 103.001 0 1 0 -2.808581 -149.179688 1 0 1
0 -141 56 96 0 1 0 -2.89974 -150.872396 1 0 1
0 -141 56 103.001 0 1 0 -2.808581 -150.872396 1 0 1
pepsi2_arch_concrete_floor_smooth01
0 -141 44 104 -1 0 0 46.21875 -1.125 1 0 1
0 -141 55.3 104 -1 0 0 46.130469 -1.125 1 0 1
0 -141 56 103.001 -1 0 0 46.125 -1.132805 1 0 1
pepsi2_arch_concrete_floor_smooth01
0 -141 44 104 -1 0 0 46.21875 -1.125 1 0 1
0 -141 56 103.001 -1 0 0 46.125 -1.132805 1 0 1
0 -141 56 96 -1 0 0 46.125 -1.1875 1 0 1
goldeneye_caverns_cavernsconcretefloor02
0 -11 44 104 0 0 1 77.355469 -149.179688 1 0 1
0 -11 55.3 104 0 0 1 77.208333 -149.179688 1 0 1
0 -141 55.3 104 0 0 1 77.208333 -150.872396 1 0 1
goldeneye_caverns_cavernsconcretefloor02
0 -11 44 104 0 0 1 77.355469 -149.179688 1 0 1
0 -141 55.3 104 0 0 1 77.208333 -150.872396 1 0 1
0 -141 44 104 0 0 1 77.355469 -150.872396 1 0 1
goldeneye_caverns_cavernsconcretefloor02
0 -11 55.3 104 0 0.818962 0.573847 41.205148 -149.179688 1 0 1
0 -11 56 103.001 0 0.818962 0.573847 41.189265 -149.179688 1 0 1
0 -141 56 103.001 0 0.818962 0.573847 41.189265 -150.872396 1 0 1
goldeneye_caverns_cavernsconcretefloor02
0 -11 55.3 104 0 0.818962 0.573847 41.205148 -149.179688 1 0 1
0 -141 56 103.001 0 0.818962 0.573847 41.189265 -150.872396 1 0 1
0 -141 55.3 104 0 0.818962 0.573847 41.205148 -150.872396 1 0 1
goldeneye_caverns_cavernsconcretefloor02
0 -11 -76 191.001 0 1 0 -2.363919 -149.179688 1 0 1
0 -11 -76 184 0 1 0 -2.455078 -149.179688 1 0 1
0 -141 -76 184 0 1 0 -2.455078 -150.872396 1 0 1
goldeneye_caverns_cavernsconcretefloor02
0 -11 -76 191.001 0 1 0 -2.363919 -149.179688 1 0 1
0 -141 -76 184 0 1 0 -2.455078 -150.872396 1 0 1
0 -141 -76 191.001 0 1 0 -2.363919 -150.872396 1 0 1
pepsi2_arch_concrete_floor_smooth01
0 -141 -88 192 -1 0 0 47.25 -0.4375 1 0 1
0 -141 -76.7 192 -1 0 0 47.161719 -0.4375 1 0 1
0 -141 -76 191.001 -1 0 0 47.15625 -0.445305 1 0 1
pepsi2_arch_concrete_floor_smooth01
0 -141 -88 192 -1 0 0 47.25 -0.4375 1 0 1
0 -141 -76 191.001 -1 0 0 47.15625 -0.445305 1 0 1
0 -141 -76 184 -1 0 0 47.15625 -0.5 1 0 1
goldeneye_caverns_cavernsconcretefloor02
0 -11 -88 192 0 0 1 78.798828 -149.179688 1 0 1
0 -11 -76.7 192 0 0 1 78.651693 -149.179688 1 0 1
0 -141 -76.7 192 0 0 1 78.651693 -150.872396 1 0 1
goldeneye_caverns_cavernsconcretefloor02
0 -11 -88 192 0 0 1 78.798828 -149.179688 1 0 1
0 -141 -76.7 192 0 0 1 78.651693 -150.872396 1 0 1
0 -141 -88 192 0 0 1 78.798828 -150.872396 1 0 1
goldeneye_caverns_cavernsconcretefloor02
0 -11 -76.7 192 0 0.818962 0.573847 43.648992 -149.179688 1 0 1
0 -11 -76 191.001 0 0.818962 0.573847 43.633108 -149.179688 1 0 1
0 -141 -76 191.001 0 0.818962 0.573847 43.633108 -150.872396 1 0 1
goldeneye_caverns_cavernsconcretefloor02
0 -11 -76.7 192 0 0.818962 0.573847 43.648992 -149.179688 1 0 1
0 -141 -76 191.001 0 0.818962 0.573847 43.633108 -150.872396 1 0 1
0 -141 -76.7 192 0 0.818962 0.573847 43.648992 -150.872396 1 0 1
goldeneye_caverns_cavernsconcretefloor02
0 -11 -172 255.001 0 1 0 -1.331367 -149.179688 1 0 1
0 -11 -172 248 0 1 0 -1.422526 -149.179688 1 0 1
0 -141 -172 248 0 1 0 -1.422526 -150.872396 1 0 1
goldeneye_caverns_cavernsconcretefloor02
0 -11 -172 255.001 0 1 0 -1.331367 -149.179688 1 0 1
0 -141 -172 248 0 1 0 -1.422526 -150.872396 1 0 1
0 -141 -172 255.001 0 1 0 -1.331367 -150.872396 1 0 1
pepsi2_arch_concrete_floor_smooth01
0 -141 -184 256 -1 0 0 48 0.0625 1 0 1
0 -141 -172.7 256 -1 0 0 47.911719 0.0625 1 0 1
0 -141 -172 255.001 -1 0 0 47.90625 0.054695 1 0 1
pepsi2_arch_concrete_floor_smooth01
0 -141 -184 256 -1 0 0 48 0.0625 1 0 1
0 -141 -172 255.001 -1 0 0 47.90625 0.054695 1 0 1
0 -141 -172 248 -1 0 0 47.90625 0 1 0 1
goldeneye_caverns_cavernsconcretefloor02
0 -11 -184 256 0 0 1 80.832031 -149.179688 1 0 1
0 -11 -172.7 256 0 0 1 80.684896 -149.179688 1 0 1
0 -141 -172.7 256 0 0 1 80.684896 -150.872396 1 0 1
goldeneye_caverns_cavernsconcretefloor02
0 -11 -184 256 0 0 1 80.832031 -149.179688 1 0 1
0 -141 -172.7 256 0 0 1 80.684896 -150.872396 1 0 1
0 -141 -184 256 0 0 1 80.832031 -150.872396 1 0 1
goldeneye_caverns_cavernsconcretefloor02
0 -11 -172.7 256 0 0.818962 0.573847 44.683258 -149.179688 1 0 1
0 -11 -172 255.001 0 0.818962 0.573847 44.667374 -149.179688 1 0 1
0 -141 -172 255.001 0 0.818962 0.573847 44.667374 -150.872396 1 0 1
goldeneye_caverns_cavernsconcretefloor02
0 -11 -172.7 256 0 0.818962 0.573847 44.683258 -149.179688 1 0 1
0 -141 -172 255.001 0 0.818962 0.573847 44.667374 -150.872396 1 0 1
0 -141 -172.7 256 0 0.818962 0.573847 44.683258 -150.872396 1 0 1
goldeneye_caverns_cavernsconcretefloor02
0 -141 -4 136 0 0 1 78.175781 -150.872396 1 0 1
0 -11 -4 136 0 0 1 78.175781 -149.179688 1 0 1
0 -11 7.3 136 0 0 1 78.028646 -149.179688 1 0 1
goldeneye_caverns_cavernsconcretefloor02
0 -141 -4 136 0 0 1 78.175781 -150.872396 1 0 1
0 -11 7.3 136 0 0 1 78.028646 -149.179688 1 0 1
0 -141 7.3 136 0 0 1 78.028646 -150.872396 1 0 1
goldeneye_caverns_cavernsconcretefloor02
0 -141 7.3 136 0 0.818962 0.573847 42.020133 -150.872396 1 0 1
0 -11 7.3 136 0 0.818962 0.573847 42.020133 -149.179688 1 0 1
0 -11 8 135.001 0 0.818962 0.573847 42.004249 -149.179688 1 0 1
goldeneye_caverns_cavernsconcretefloor02
0 -141 7.3 136 0 0.818962 0.573847 42.020133 -150.872396 1 0 1
0 -11 8 135.001 0 0.818962 0.573847 42.004249 -149.179688 1 0 1
0 -141 8 135.001 0 0.818962 0.573847 42.004249 -150.872396 1 0 1
goldeneye_caverns_cavernsconcretefloor02
0 -11 8 128 0 1 0 -3.084635 -149.179688 1 0 1
0 -141 8 128 0 1 0 -3.084635 -150.872396 1 0 1
0 -141 8 135.001 0 1 0 -2.993477 -150.872396 1 0 1
goldeneye_caverns_cavernsconcretefloor02
0 -11 8 128 0 1 0 -3.084635 -149.179688 1 0 1
0 -141 8 135.001 0 1 0 -2.993477 -150.872396 1 0 1
0 -11 8 135.001 0 1 0 -2.993477 -149.179688 1 0 1
pepsi2_arch_concrete_floor_smooth01
0 -141 -4 136 -1 0 0 46.59375 -0.875 1 0 1
0 -141 7.3 136 -1 0 0 46.505469 -0.875 1 0 1
0 -141 8 135.001 -1 0 0 46.5 -0.882805 1 0 1
pepsi2_arch_concrete_floor_smooth01
0 -141 -4 136 -1 0 0 46.59375 -0.875 1 0 1
0 -141 8 135.001 -1 0 0 46.5 -0.882805 1 0 1
0 -141 8 128 -1 0 0 46.5 -0.9375 1 0 1
goldeneye_caverns_cavernsconcretefloor02
0 -11 128 55.001 0 1 0 -3.333971 -149.179688 1 0 1
0 -11 128 48 0 1 0 -3.42513 -149.179688 1 0 1
0 -141 128 48 0 1 0 -3.42513 -150.872396 1 0 1
goldeneye_caverns_cavernsconcretefloor02
0 -11 128 55.001 0 1 0 -3.333971 -149.179688 1 0 1
0 -141 128 48 0 1 0 -3.42513 -150.872396 1 0 1
0 -141 128 55.001 0 1 0 -3.333971 -150.872396 1 0 1
pepsi2_arch_concrete_floor_smooth01
0 -141 116 56 -1 0 0 45.65625 -1.5 1 0 1
0 -141 127.3 56 -1 0 0 45.567969 -1.5 1 0 1
0 -141 128 55.001 -1 0 0 45.5625 -1.507805 1 0 1
pepsi2_arch_concrete_floor_smooth01
0 -141 116 56 -1 0 0 45.65625 -1.5 1 0 1
0 -141 128 55.001 -1 0 0 45.5625 -1.507805 1 0 1
0 -141 128 48 -1 0 0 45.5625 -1.5625 1 0 1
goldeneye_caverns_cavernsconcretefloor02
0 -11 116 56 0 0 1 76.830078 -149.179688 1 0 1
0 -11 127.3 56 0 0 1 76.682943 -149.179688 1 0 1
0 -141 127.3 56 0 0 1 76.682943 -150.872396 1 0 1
goldeneye_caverns_cavernsconcretefloor02
0 -11 116 56 0 0 1 76.830078 -149.179688 1 0 1
0 -141 127.3 56 0 0 1 76.682943 -150.872396 1 0 1
0 -141 116 56 0 0 1 76.830078 -150.872396 1 0 1
goldeneye_caverns_cavernsconcretefloor02
0 -11 127.3 56 0 0.818962 0.573847 40.678961 -149.179688 1 0 1
0 -11 128 55.001 0 0.818962 0.573847 40.663077 -149.179688 1 0 1
0 -141 128 55.001 0 0.818962 0.573847 40.663077 -150.872396 1 0 1
goldeneye_caverns_cavernsconcretefloor02
0 -11 127.3 56 0 0.818962 0.573847 40.678961 -149.179688 1 0 1
0 -141 128 55.001 0 0.818962 0.573847 40.663077 -150.872396 1 0 1
0 -141 127.3 56 0 0.818962 0.573847 40.678961 -150.872396 1 0 1
goldeneye_caverns_cavernsconcretefloor02
0 -141 56 96 0 0 1 77.101562 -150.872396 1 0 1
0 -11 56 96 0 0 1 77.101562 -149.179688 1 0 1
0 -11 67.3 96 0 0 1 76.954427 -149.179688 1 0 1
goldeneye_caverns_cavernsconcretefloor02
0 -141 56 96 0 0 1 77.101562 -150.872396 1 0 1
0 -11 67.3 96 0 0 1 76.954427 -149.179688 1 0 1
0 -141 67.3 96 0 0 1 76.954427 -150.872396 1 0 1
goldeneye_caverns_cavernsconcretefloor02
0 -141 67.3 96 0 0.818962 0.573847 41.950133 -150.872396 1 0 1
0 -11 67.3 96 0 0.818962 0.573847 41.950133 -149.179688 1 0 1
0 -11 68 95.001 0 0.818962 0.573847 41.934249 -149.179688 1 0 1
goldeneye_caverns_cavernsconcretefloor02
0 -141 67.3 96 0 0.818962 0.573847 41.950133 -150.872396 1 0 1
0 -11 68 95.001 0 0.818962 0.573847 41.934249 -149.179688 1 0 1
0 -141 68 95.001 0 0.818962 0.573847 41.934249 -150.872396 1 0 1
goldeneye_caverns_cavernsconcretefloor02
0 -11 68 88 0 1 0 -3.154297 -149.179688 1 0 1
0 -141 68 88 0 1 0 -3.154297 -150.872396 1 0 1
0 -141 68 95.001 0 1 0 -3.063138 -150.872396 1 0 1
goldeneye_caverns_cavernsconcretefloor02
0 -11 68 88 0 1 0 -3.154297 -149.179688 1 0 1
0 -141 68 95.001 0 1 0 -3.063138 -150.872396 1 0 1
0 -11 68 95.001 0 1 0 -3.063138 -149.179688 1 0 1
pepsi2_arch_concrete_floor_smooth01
0 -141 56 96 -1 0 0 46.125 -1.1875 1 0 1
0 -141 67.3 96 -1 0 0 46.036719 -1.1875 1 0 1
0 -141 68 95.001 -1 0 0 46.03125 -1.195305 1 0 1
pepsi2_arch_concrete_floor_smooth01
0 -141 56 96 -1 0 0 46.125 -1.1875 1 0 1
0 -141 68 95.001 -1 0 0 46.03125 -1.195305 1 0 1
0 -141 68 88 -1 0 0 46.03125 -1.25 1 0 1
goldeneye_caverns_cavernsconcretefloor02
0 -11 -40 167.001 0 1 0 -2.125638 -149.179688 1 0 1
0 -11 -40 160 0 1 0 -2.216797 -149.179688 1 0 1
0 -141 -40 160 0 1 0 -2.216797 -150.872396 1 0 1
goldeneye_caverns_cavernsconcretefloor02
0 -11 -40 167.001 0 1 0 -2.125638 -149.179688 1 0 1
0 -141 -40 160 0 1 0 -2.216797 -150.872396 1 0 1
0 -141 -40 167.001 0 1 0 -2.125638 -150.872396 1 0 1
pepsi2_arch_concrete_floor_smooth01
0 -141 -52 168 -1 0 0 46.96875 -0.625 1 0 1
0 -141 -40.7 168 -1 0 0 46.880469 -0.625 1 0 1
0 -141 -40 167.001 -1 0 0 46.875 -0.632805 1 0 1
pepsi2_arch_concrete_floor_smooth01
0 -141 -52 168 -1 0 0 46.96875 -0.625 1 0 1
0 -141 -40 167.001 -1 0 0 46.875 -0.632805 1 0 1
0 -141 -40 160 -1 0 0 46.875 -0.6875 1 0 1
goldeneye_caverns_cavernsconcretefloor02
0 -11 -52 168 0 0 1 79.037109 -149.179688 1 0 1
0 -11 -40.7 168 0 0 1 78.889974 -149.179688 1 0 1
0 -141 -40.7 168 0 0 1 78.889974 -150.872396 1 0 1
goldeneye_caverns_cavernsconcretefloor02
0 -11 -52 168 0 0 1 79.037109 -149.179688 1 0 1
0 -141 -40.7 168 0 0 1 78.889974 -150.872396 1 0 1
0 -141 -52 168 0 0 1 79.037109 -150.872396 1 0 1
goldeneye_caverns_cavernsconcretefloor02
0 -11 -40.7 168 0 0.818962 0.573847 42.885898 -149.179688 1 0 1
0 -11 -40 167.001 0 0.818962 0.573847 42.870015 -149.179688 1 0 1
0 -141 -40 167.001 0 0.818962 0.573847 42.870015 -150.872396 1 0 1
goldeneye_caverns_cavernsconcretefloor02
0 -11 -40.7 168 0 0.818962 0.573847 42.885898 -149.179688 1 0 1
0 -141 -40 167.001 0 0.818962 0.573847 42.870015 -150.872396 1 0 1
0 -141 -40.7 168 0 0.818962 0.573847 42.885898 -150.872396 1 0 1
pepsi2_arch_concrete_floor_smooth01
0 -141 -172 248 -1 0 0 47.90625 0 1 0 1
0 -141 -160.7 248 -1 0 0 47.817969 0 1 0 1
0 -141 -160 247.001 -1 0 0 47.8125 -0.007805 1 0 1
pepsi2_arch_concrete_floor_smooth01
0 -141 -172 248 -1 0 0 47.90625 0 1 0 1
0 -141 -160 247.001 -1 0 0 47.8125 -0.007805 1 0 1
0 -141 -160 240 -1 0 0 47.8125 -0.0625 1 0 1
goldeneye_caverns_cavernsconcretefloor02
0 -11 -172 248 0 0 1 80.578125 -149.179688 1 0 1
0 -11 -160.7 248 0 0 1 80.43099 -149.179688 1 0 1
0 -141 -160.7 248 0 0 1 80.43099 -150.872396 1 0 1
goldeneye_caverns_cavernsconcretefloor02
0 -11 -172 248 0 0 1 80.578125 -149.179688 1 0 1
0 -141 -160.7 248 0 0 1 80.43099 -150.872396 1 0 1
0 -141 -172 248 0 0 1 80.578125 -150.872396 1 0 1
goldeneye_caverns_cavernsconcretefloor02
0 -11 -160.7 248 0 0.818962 0.573847 44.428242 -149.179688 1 0 1
0 -11 -160 247.001 0 0.818962 0.573847 44.412358 -149.179688 1 0 1
0 -141 -160 247.001 0 0.818962 0.573847 44.412358 -150.872396 1 0 1
goldeneye_caverns_cavernsconcretefloor02
0 -11 -160.7 248 0 0.818962 0.573847 44.428242 -149.179688 1 0 1
0 -141 -160 247.001 0 0.818962 0.573847 44.412358 -150.872396 1 0 1
0 -141 -160.7 248 0 0.818962 0.573847 44.428242 -150.872396 1 0 1
goldeneye_caverns_cavernsconcretefloor02
0 -11 -160 247.001 0 1 0 -1.583971 -149.179688 1 0 1
0 -11 -160 240 0 1 0 -1.67513 -149.179688 1 0 1
0 -141 -160 240 0 1 0 -1.67513 -150.872396 1 0 1
goldeneye_caverns_cavernsconcretefloor02
0 -11 -160 247.001 0 1 0 -1.583971 -149.179688 1 0 1
0 -141 -160 240 0 1 0 -1.67513 -150.872396 1 0 1
0 -141 -160 247.001 0 1 0 -1.583971 -150.872396 1 0 1
goldeneye_caverns_cavernsconcretefloor02
0 -141 -124 216 0 0 1 79.5625 -150.872396 1 0 1
0 -11 -124 216 0 0 1 79.5625 -149.179688 1 0 1
0 -11 -112.7 216 0 0 1 79.415365 -149.179688 1 0 1
goldeneye_caverns_cavernsconcretefloor02
0 -141 -124 216 0 0 1 79.5625 -150.872396 1 0 1
0 -11 -112.7 216 0 0 1 79.415365 -149.179688 1 0 1
0 -141 -112.7 216 0 0 1 79.415365 -150.872396 1 0 1
goldeneye_caverns_cavernsconcretefloor02
0 -141 -112.7 216 0 0.818962 0.573847 44.412086 -150.872396 1 0 1
0 -11 -112.7 216 0 0.818962 0.573847 44.412086 -149.179688 1 0 1
0 -11 -112 215.001 0 0.818962 0.573847 44.396202 -149.179688 1 0 1
goldeneye_caverns_cavernsconcretefloor02
0 -141 -112.7 216 0 0.818962 0.573847 44.412086 -150.872396 1 0 1
0 -11 -112 215.001 0 0.818962 0.573847 44.396202 -149.179688 1 0 1
0 -141 -112 215.001 0 0.818962 0.573847 44.396202 -150.872396 1 0 1
goldeneye_caverns_cavernsconcretefloor02
0 -11 -112 208 0 1 0 -1.693359 -149.179688 1 0 1
0 -141 -112 208 0 1 0 -1.693359 -150.872396 1 0 1
0 -141 -112 215.001 0 1 0 -1.602201 -150.872396 1 0 1
goldeneye_caverns_cavernsconcretefloor02
0 -11 -112 208 0 1 0 -1.693359 -149.179688 1 0 1
0 -141 -112 215.001 0 1 0 -1.602201 -150.872396 1 0 1
0 -11 -112 215.001 0 1 0 -1.602201 -149.179688 1 0 1
pepsi2_arch_concrete_floor_smooth01
0 -141 -124 216 -1 0 0 47.53125 -0.25 1 0 1
0 -141 -112.7 216 -1 0 0 47.442969 -0.25 1 0 1
0 -141 -112 215.001 -1 0 0 47.4375 -0.257805 1 0 1
pepsi2_arch_concrete_floor_smooth01
0 -141 -124 216 -1 0 0 47.53125 -0.25 1 0 1
0 -141 -112 215.001 -1 0 0 47.4375 -0.257805 1 0 1
0 -141 -112 208 -1 0 0 47.4375 -0.3125 1 0 1
goldeneye_caverns_cavernsconcretefloor02
0 -141 200 43 0 1 0 151.702474 -2.515625 1 0 1
0 -141 200 0 0 1 0 151.702474 -3.075521 1 0 1
0 -151 200 0 0 1 0 151.832682 -3.075521 1 0 1
goldeneye_caverns_cavernsconcretefloor02
0 -141 200 43 0 1 0 151.702474 -2.515625 1 0 1
0 -151 200 0 0 1 0 151.832682 -3.075521 1 0 1
0 -151 200 43 0 1 0 151.832682 -2.515625 1 0 1
goldeneye_caverns_cavernsconcretefloor02
0 -151 -184 246 -1 0 0 80.832031 0.127604 1 0 1
0 -151 -184 289 -1 0 0 80.832031 0.6875 1 0 1
0 -151 200 43 -1 0 0 75.832031 -2.515625 1 0 1
goldeneye_caverns_cavernsconcretefloor02
0 -151 -184 246 -1 0 0 80.832031 0.127604 1 0 1
0 -151 200 43 -1 0 0 75.832031 -2.515625 1 0 1
0 -151 200 0 -1 0 0 75.832031 -3.075521 1 0 1
goldeneye_caverns_cavernsconcretefloor02
0 -151 -184 246 -1 0 0 80.832031 0.127604 1 0 1
0 -151 200 0 -1 0 0 75.832031 -3.075521 1 0 1
0 -151 190 0 -1 0 0 75.96224 -3.075521 1 0 1
goldeneye_caverns_cavernsconcretefloor02
0 -141 -184 289 1 0 0 -80.296875 0.6875 1 0 1
0 -141 -184 246 1 0 0 -80.296875 0.127604 1 0 1
0 -141 190 0 1 0 0 -75.427083 -3.075521 1 0 1
goldeneye_caverns_cavernsconcretefloor02
0 -141 -184 289 1 0 0 -80.296875 0.6875 1 0 1
0 -141 190 0 1 0 0 -75.427083 -3.075521 1 0 1
0 -141 200 0 1 0 0 -75.296875 -3.075521 1 0 1
goldeneye_caverns_cavernsconcretefloor02
0 -141 -184 289 1 0 0 -80.296875 0.6875 1 0 1
0 -141 200 0 1 0 0 -75.296875 -3.075521 1 0 1
0 -141 200 43 1 0 0 -75.296875 -2.515625 1 0 1
goldeneye_caverns_cavernsconcretefloor02
0 -151 -184 289 0 0.539427 0.842032 66.830992 -150.908854 1 0 1
0 -141 -184 289 0 0.539427 0.842032 66.830992 -150.778646 1 0 1
0 -141 200 43 0 0.539427 0.842032 60.893227 -150.778646 1 0 1
goldeneye_caverns_cavernsconcretefloor02
0 -151 -184 289 0 0.539427 0.842032 66.830992 -150.908854 1 0 1
0 -141 200 43 0 0.539427 0.842032 60.893227 -150.778646 1 0 1
0 -151 200 43 0 0.539427 0.842032 60.893227 -150.908854 1 0 1
goldeneye_caverns_cavernsconcretefloor02
0 -141 -184 246 0 -0.549534 -0.835471 66.835638 151.997396 1 0 1
0 -151 -184 246 0 -0.549534 -0.835471 66.835638 152.127604 1 0 1
0 -151 190 0 0 -0.549534 -0.835471 61.00681 152.127604 1 0 1
goldeneye_caverns_cavernsconcretefloor02
0 -141 -184 246 0 -0.549534 -0.835471 66.835638 151.997396 1 0 1
0 -151 190 0 0 -0.549534 -0.835471 61.00681 152.127604 1 0 1
0 -141 190 0 0 -0.549534 -0.835471 61.00681 151.997396 1 0 1
end
