version 1
nodes
0 "root" -1
end
skeleton
time 0
0 0 0 0 0 0 0
end
triangles
phys
0 156.003241 -103.990926 28 0 0 1 1 0 1 0 1
0 146 -132 28 0 0 1 1 0 1 0 1
0 134 -126 28 0 0 1 1 0 1 0 1
phys
0 156.003241 -103.990926 28 0 0 1 1 0 1 0 1
0 134 -126 28 0 0 1 1 0 1 0 1
0 142.002828 -99.990808 28 0 0 1 1 0 1 0 1
phys
0 146 -132 32 0 0 1 1 0 1 0 1
0 156.003241 -103.990926 32 0 0 1 1 0 1 0 1
0 142.002828 -99.990808 32 0 0 1 1 0 1 0 1
phys
0 146 -132 32 0 0 1 1 0 1 0 1
0 142.002828 -99.990808 32 0 0 1 1 0 1 0 1
0 134 -126 32 0 0 1 1 0 1 0 1
phys
0 146 -132 28 0 0 1 1 0 1 0 1
0 156.003241 -103.990926 28 0 0 1 1 0 1 0 1
0 156.003241 -103.990926 32 0 0 1 1 0 1 0 1
phys
0 146 -132 28 0 0 1 1 0 1 0 1
0 156.003241 -103.990926 32 0 0 1 1 0 1 0 1
0 146 -132 32 0 0 1 1 0 1 0 1
phys
0 134 -126 32 0 0 1 1 0 1 0 1
0 142.002828 -99.990808 32 0 0 1 1 0 1 0 1
0 142.002828 -99.990808 28 0 0 1 1 0 1 0 1
phys
0 134 -126 32 0 0 1 1 0 1 0 1
0 142.002828 -99.990808 28 0 0 1 1 0 1 0 1
0 134 -126 28 0 0 1 1 0 1 0 1
phys
0 146 -132 32 0 0 1 1 0 1 0 1
0 134 -126 32 0 0 1 1 0 1 0 1
0 134 -126 28 0 0 1 1 0 1 0 1
phys
0 146 -132 32 0 0 1 1 0 1 0 1
0 134 -126 28 0 0 1 1 0 1 0 1
0 146 -132 28 0 0 1 1 0 1 0 1
phys
0 156.003241 -103.990926 28 0 0 1 1 0 1 0 1
0 142.002828 -99.990808 28 0 0 1 1 0 1 0 1
0 142.002828 -99.990808 32 0 0 1 1 0 1 0 1
phys
0 156.003241 -103.990926 28 0 0 1 1 0 1 0 1
0 142.002828 -99.990808 32 0 0 1 1 0 1 0 1
0 156.003241 -103.990926 32 0 0 1 1 0 1 0 1
phys
0 92 -198 32 0 0 1 2 0 1 0 1
0 84 -188 32 0 0 1 2 0 1 0 1
0 84 -188 28 0 0 1 2 0 1 0 1
phys
0 92 -198 32 0 0 1 2 0 1 0 1
0 84 -188 28 0 0 1 2 0 1 0 1
0 92 -198 28 0 0 1 2 0 1 0 1
phys
0 114 -180 28 0 0 1 2 0 1 0 1
0 104 -170 28 0 0 1 2 0 1 0 1
0 104 -170 32 0 0 1 2 0 1 0 1
phys
0 114 -180 28 0 0 1 2 0 1 0 1
0 104 -170 32 0 0 1 2 0 1 0 1
0 114 -180 32 0 0 1 2 0 1 0 1
phys
0 92 -198 28 0 0 1 2 0 1 0 1
0 84 -188 28 0 0 1 2 0 1 0 1
0 104 -170 28 0 0 1 2 0 1 0 1
phys
0 92 -198 28 0 0 1 2 0 1 0 1
0 104 -170 28 0 0 1 2 0 1 0 1
0 114 -180 28 0 0 1 2 0 1 0 1
phys
0 114 -180 32 0 0 1 2 0 1 0 1
0 104 -170 32 0 0 1 2 0 1 0 1
0 84 -188 32 0 0 1 2 0 1 0 1
phys
0 114 -180 32 0 0 1 2 0 1 0 1
0 84 -188 32 0 0 1 2 0 1 0 1
0 92 -198 32 0 0 1 2 0 1 0 1
phys
0 92 -198 32 0 0 1 2 0 1 0 1
0 92 -198 28 0 0 1 2 0 1 0 1
0 114 -180 28 0 0 1 2 0 1 0 1
phys
0 92 -198 32 0 0 1 2 0 1 0 1
0 114 -180 28 0 0 1 2 0 1 0 1
0 114 -180 32 0 0 1 2 0 1 0 1
phys
0 84 -188 28 0 0 1 2 0 1 0 1
0 84 -188 32 0 0 1 2 0 1 0 1
0 104 -170 32 0 0 1 2 0 1 0 1
phys
0 84 -188 28 0 0 1 2 0 1 0 1
0 104 -170 32 0 0 1 2 0 1 0 1
0 104 -170 28 0 0 1 2 0 1 0 1
phys
0 34 -208 32 0 0 1 3 0 1 0 1
0 8 -210 32 0 0 1 3 0 1 0 1
0 8 -210 28 0 0 1 3 0 1 0 1
phys
0 34 -208 32 0 0 1 3 0 1 0 1
0 8 -210 28 0 0 1 3 0 1 0 1
0 34 -208 28 0 0 1 3 0 1 0 1
phys
0 142 -100 32 0 0 1 3 0 1 0 1
0 142 -100 28 0 0 1 3 0 1 0 1
0 144 -74 28 0 0 1 3 0 1 0 1
phys
0 142 -100 32 0 0 1 3 0 1 0 1
0 144 -74 28 0 0 1 3 0 1 0 1
0 144 -74 32 0 0 1 3 0 1 0 1
phys
0 134 -126 28 0 0 1 3 0 1 0 1
0 142 -100 28 0 0 1 3 0 1 0 1
0 142 -100 32 0 0 1 3 0 1 0 1
phys
0 134 -126 28 0 0 1 3 0 1 0 1
0 142 -100 32 0 0 1 3 0 1 0 1
0 134 -126 32 0 0 1 3 0 1 0 1
phys
0 144 -74 32 0 0 1 3 0 1 0 1
0 144 -74 28 0 0 1 3 0 1 0 1
0 8 -74 28 0 0 1 3 0 1 0 1
phys
0 144 -74 32 0 0 1 3 0 1 0 1
0 8 -74 28 0 0 1 3 0 1 0 1
0 8 -74 32 0 0 1 3 0 1 0 1
phys
0 8 -210 28 0 0 1 3 0 1 0 1
0 8 -210 32 0 0 1 3 0 1 0 1
0 8 -74 32 0 0 1 3 0 1 0 1
phys
0 8 -210 28 0 0 1 3 0 1 0 1
0 8 -74 32 0 0 1 3 0 1 0 1
0 8 -74 28 0 0 1 3 0 1 0 1
phys
0 34 -208 28 0 0 1 3 0 1 0 1
0 8 -210 28 0 0 1 3 0 1 0 1
0 8 -74 28 0 0 1 3 0 1 0 1
phys
0 34 -208 28 0 0 1 3 0 1 0 1
0 8 -74 28 0 0 1 3 0 1 0 1
0 144 -74 28 0 0 1 3 0 1 0 1
phys
0 34 -208 28 0 0 1 3 0 1 0 1
0 144 -74 28 0 0 1 3 0 1 0 1
0 142 -100 28 0 0 1 3 0 1 0 1
phys
0 34 -208 28 0 0 1 3 0 1 0 1
0 142 -100 28 0 0 1 3 0 1 0 1
0 134 -126 28 0 0 1 3 0 1 0 1
phys
0 34 -208 28 0 0 1 3 0 1 0 1
0 134 -126 28 0 0 1 3 0 1 0 1
0 122 -150 28 0 0 1 3 0 1 0 1
phys
0 34 -208 28 0 0 1 3 0 1 0 1
0 122 -150 28 0 0 1 3 0 1 0 1
0 104 -170 28 0 0 1 3 0 1 0 1
phys
0 34 -208 28 0 0 1 3 0 1 0 1
0 104 -170 28 0 0 1 3 0 1 0 1
0 84 -188 28 0 0 1 3 0 1 0 1
phys
0 34 -208 28 0 0 1 3 0 1 0 1
0 84 -188 28 0 0 1 3 0 1 0 1
0 60 -200 28 0 0 1 3 0 1 0 1
phys
0 8 -210 32 0 0 1 3 0 1 0 1
0 34 -208 32 0 0 1 3 0 1 0 1
0 60 -200 32 0 0 1 3 0 1 0 1
phys
0 8 -210 32 0 0 1 3 0 1 0 1
0 60 -200 32 0 0 1 3 0 1 0 1
0 84 -188 32 0 0 1 3 0 1 0 1
phys
0 8 -210 32 0 0 1 3 0 1 0 1
0 84 -188 32 0 0 1 3 0 1 0 1
0 104 -170 32 0 0 1 3 0 1 0 1
phys
0 8 -210 32 0 0 1 3 0 1 0 1
0 104 -170 32 0 0 1 3 0 1 0 1
0 122 -150 32 0 0 1 3 0 1 0 1
phys
0 8 -210 32 0 0 1 3 0 1 0 1
0 122 -150 32 0 0 1 3 0 1 0 1
0 134 -126 32 0 0 1 3 0 1 0 1
phys
0 8 -210 32 0 0 1 3 0 1 0 1
0 134 -126 32 0 0 1 3 0 1 0 1
0 142 -100 32 0 0 1 3 0 1 0 1
phys
0 8 -210 32 0 0 1 3 0 1 0 1
0 142 -100 32 0 0 1 3 0 1 0 1
0 144 -74 32 0 0 1 3 0 1 0 1
phys
0 8 -210 32 0 0 1 3 0 1 0 1
0 144 -74 32 0 0 1 3 0 1 0 1
0 8 -74 32 0 0 1 3 0 1 0 1
phys
0 122 -150 28 0 0 1 3 0 1 0 1
0 134 -126 28 0 0 1 3 0 1 0 1
0 134 -126 32 0 0 1 3 0 1 0 1
phys
0 122 -150 28 0 0 1 3 0 1 0 1
0 134 -126 32 0 0 1 3 0 1 0 1
0 122 -150 32 0 0 1 3 0 1 0 1
phys
0 104 -170 28 0 0 1 3 0 1 0 1
0 122 -150 28 0 0 1 3 0 1 0 1
0 122 -150 32 0 0 1 3 0 1 0 1
phys
0 104 -170 28 0 0 1 3 0 1 0 1
0 122 -150 32 0 0 1 3 0 1 0 1
0 104 -170 32 0 0 1 3 0 1 0 1
phys
0 84 -188 28 0 0 1 3 0 1 0 1
0 104 -170 28 0 0 1 3 0 1 0 1
0 104 -170 32 0 0 1 3 0 1 0 1
phys
0 84 -188 28 0 0 1 3 0 1 0 1
0 104 -170 32 0 0 1 3 0 1 0 1
0 84 -188 32 0 0 1 3 0 1 0 1
phys
0 60 -200 28 0 0 1 3 0 1 0 1
0 84 -188 28 0 0 1 3 0 1 0 1
0 84 -188 32 0 0 1 3 0 1 0 1
phys
0 60 -200 28 0 0 1 3 0 1 0 1
0 84 -188 32 0 0 1 3 0 1 0 1
0 60 -200 32 0 0 1 3 0 1 0 1
phys
0 60 -200 32 0 0 1 3 0 1 0 1
0 34 -208 32 0 0 1 3 0 1 0 1
0 34 -208 28 0 0 1 3 0 1 0 1
phys
0 60 -200 32 0 0 1 3 0 1 0 1
0 34 -208 28 0 0 1 3 0 1 0 1
0 60 -200 28 0 0 1 3 0 1 0 1
phys
0 146 -132 28 0 0 1 4 0 1 0 1
0 132 -158 28 0 0 1 4 0 1 0 1
0 122 -150 28 0 0 1 4 0 1 0 1
phys
0 146 -132 28 0 0 1 4 0 1 0 1
0 122 -150 28 0 0 1 4 0 1 0 1
0 134 -126 28 0 0 1 4 0 1 0 1
phys
0 132 -158 32 0 0 1 4 0 1 0 1
0 146 -132 32 0 0 1 4 0 1 0 1
0 134 -126 32 0 0 1 4 0 1 0 1
phys
0 132 -158 32 0 0 1 4 0 1 0 1
0 134 -126 32 0 0 1 4 0 1 0 1
0 122 -150 32 0 0 1 4 0 1 0 1
phys
0 132 -158 28 0 0 1 4 0 1 0 1
0 146 -132 28 0 0 1 4 0 1 0 1
0 146 -132 32 0 0 1 4 0 1 0 1
phys
0 132 -158 28 0 0 1 4 0 1 0 1
0 146 -132 32 0 0 1 4 0 1 0 1
0 132 -158 32 0 0 1 4 0 1 0 1
phys
0 122 -150 32 0 0 1 4 0 1 0 1
0 134 -126 32 0 0 1 4 0 1 0 1
0 134 -126 28 0 0 1 4 0 1 0 1
phys
0 122 -150 32 0 0 1 4 0 1 0 1
0 134 -126 28 0 0 1 4 0 1 0 1
0 122 -150 28 0 0 1 4 0 1 0 1
phys
0 132 -158 32 0 0 1 4 0 1 0 1
0 122 -150 32 0 0 1 4 0 1 0 1
0 122 -150 28 0 0 1 4 0 1 0 1
phys
0 132 -158 32 0 0 1 4 0 1 0 1
0 122 -150 28 0 0 1 4 0 1 0 1
0 132 -158 28 0 0 1 4 0 1 0 1
phys
0 146 -132 28 0 0 1 4 0 1 0 1
0 134 -126 28 0 0 1 4 0 1 0 1
0 134 -126 32 0 0 1 4 0 1 0 1
phys
0 146 -132 28 0 0 1 4 0 1 0 1
0 134 -126 32 0 0 1 4 0 1 0 1
0 146 -132 32 0 0 1 4 0 1 0 1
phys
0 -6 206 16 0 0 1 5 0 1 0 1
0 -6 206 0 0 0 1 5 0 1 0 1
0 -126 206 0 0 0 1 5 0 1 0 1
phys
0 -6 206 16 0 0 1 5 0 1 0 1
0 -126 206 0 0 0 1 5 0 1 0 1
0 -126 206 16 0 0 1 5 0 1 0 1
phys
0 -6 190 0 0 0 1 5 0 1 0 1
0 -6 190 16 0 0 1 5 0 1 0 1
0 -142 190 16 0 0 1 5 0 1 0 1
phys
0 -6 190 0 0 0 1 5 0 1 0 1
0 -142 190 16 0 0 1 5 0 1 0 1
0 -142 190 0 0 0 1 5 0 1 0 1
phys
0 -6 190 16 0 0 1 5 0 1 0 1
0 -6 190 0 0 0 1 5 0 1 0 1
0 -6 206 0 0 0 1 5 0 1 0 1
phys
0 -6 190 16 0 0 1 5 0 1 0 1
0 -6 206 0 0 0 1 5 0 1 0 1
0 -6 206 16 0 0 1 5 0 1 0 1
phys
0 -6 190 0 0 0 1 5 0 1 0 1
0 -142 190 0 0 0 1 5 0 1 0 1
0 -126 206 0 0 0 1 5 0 1 0 1
phys
0 -6 190 0 0 0 1 5 0 1 0 1
0 -126 206 0 0 0 1 5 0 1 0 1
0 -6 206 0 0 0 1 5 0 1 0 1
phys
0 -142 190 16 0 0 1 5 0 1 0 1
0 -6 190 16 0 0 1 5 0 1 0 1
0 -6 206 16 0 0 1 5 0 1 0 1
phys
0 -142 190 16 0 0 1 5 0 1 0 1
0 -6 206 16 0 0 1 5 0 1 0 1
0 -126 206 16 0 0 1 5 0 1 0 1
phys
0 -142 190 0 0 0 1 5 0 1 0 1
0 -142 190 16 0 0 1 5 0 1 0 1
0 -126 206 16 0 0 1 5 0 1 0 1
phys
0 -142 190 0 0 0 1 5 0 1 0 1
0 -126 206 16 0 0 1 5 0 1 0 1
0 -126 206 0 0 0 1 5 0 1 0 1
phys
0 -6 222 24 0 0 1 6 0 1 0 1
0 -6 222 0 0 0 1 6 0 1 0 1
0 -110 222 0 0 0 1 6 0 1 0 1
phys
0 -6 222 24 0 0 1 6 0 1 0 1
0 -110 222 0 0 0 1 6 0 1 0 1
0 -110 222 24 0 0 1 6 0 1 0 1
phys
0 -6 206 0 0 0 1 6 0 1 0 1
0 -6 206 24 0 0 1 6 0 1 0 1
0 -126 206 24 0 0 1 6 0 1 0 1
phys
0 -6 206 0 0 0 1 6 0 1 0 1
0 -126 206 24 0 0 1 6 0 1 0 1
0 -126 206 0 0 0 1 6 0 1 0 1
phys
0 -6 206 24 0 0 1 6 0 1 0 1
0 -6 206 0 0 0 1 6 0 1 0 1
0 -6 222 0 0 0 1 6 0 1 0 1
phys
0 -6 206 24 0 0 1 6 0 1 0 1
0 -6 222 0 0 0 1 6 0 1 0 1
0 -6 222 24 0 0 1 6 0 1 0 1
phys
0 -6 206 0 0 0 1 6 0 1 0 1
0 -126 206 0 0 0 1 6 0 1 0 1
0 -110 222 0 0 0 1 6 0 1 0 1
phys
0 -6 206 0 0 0 1 6 0 1 0 1
0 -110 222 0 0 0 1 6 0 1 0 1
0 -6 222 0 0 0 1 6 0 1 0 1
phys
0 -126 206 24 0 0 1 6 0 1 0 1
0 -6 206 24 0 0 1 6 0 1 0 1
0 -6 222 24 0 0 1 6 0 1 0 1
phys
0 -126 206 24 0 0 1 6 0 1 0 1
0 -6 222 24 0 0 1 6 0 1 0 1
0 -110 222 24 0 0 1 6 0 1 0 1
phys
0 -126 206 0 0 0 1 6 0 1 0 1
0 -126 206 24 0 0 1 6 0 1 0 1
0 -110 222 24 0 0 1 6 0 1 0 1
phys
0 -126 206 0 0 0 1 6 0 1 0 1
0 -110 222 24 0 0 1 6 0 1 0 1
0 -110 222 0 0 0 1 6 0 1 0 1
phys
0 60 -200 28 0 0 1 7 0 1 0 1
0 60 -200 32 0 0 1 7 0 1 0 1
0 84 -188 32 0 0 1 7 0 1 0 1
phys
0 60 -200 28 0 0 1 7 0 1 0 1
0 84 -188 32 0 0 1 7 0 1 0 1
0 84 -188 28 0 0 1 7 0 1 0 1
phys
0 66 -212 32 0 0 1 7 0 1 0 1
0 60 -200 32 0 0 1 7 0 1 0 1
0 60 -200 28 0 0 1 7 0 1 0 1
phys
0 66 -212 32 0 0 1 7 0 1 0 1
0 60 -200 28 0 0 1 7 0 1 0 1
0 66 -212 28 0 0 1 7 0 1 0 1
phys
0 92 -198 28 0 0 1 7 0 1 0 1
0 84 -188 28 0 0 1 7 0 1 0 1
0 84 -188 32 0 0 1 7 0 1 0 1
phys
0 92 -198 28 0 0 1 7 0 1 0 1
0 84 -188 32 0 0 1 7 0 1 0 1
0 92 -198 32 0 0 1 7 0 1 0 1
phys
0 66 -212 28 0 0 1 7 0 1 0 1
0 60 -200 28 0 0 1 7 0 1 0 1
0 84 -188 28 0 0 1 7 0 1 0 1
phys
0 66 -212 28 0 0 1 7 0 1 0 1
0 84 -188 28 0 0 1 7 0 1 0 1
0 92 -198 28 0 0 1 7 0 1 0 1
phys
0 92 -198 32 0 0 1 7 0 1 0 1
0 84 -188 32 0 0 1 7 0 1 0 1
0 60 -200 32 0 0 1 7 0 1 0 1
phys
0 92 -198 32 0 0 1 7 0 1 0 1
0 60 -200 32 0 0 1 7 0 1 0 1
0 66 -212 32 0 0 1 7 0 1 0 1
phys
0 66 -212 32 0 0 1 7 0 1 0 1
0 66 -212 28 0 0 1 7 0 1 0 1
0 92 -198 28 0 0 1 7 0 1 0 1
phys
0 66 -212 32 0 0 1 7 0 1 0 1
0 92 -198 28 0 0 1 7 0 1 0 1
0 92 -198 32 0 0 1 7 0 1 0 1
phys
0 3 174 75 0 0 1 8 0 1 0 1
0 3 174 43 0 0 1 8 0 1 0 1
0 1 174 43 0 0 1 8 0 1 0 1
phys
0 3 174 75 0 0 1 8 0 1 0 1
0 1 174 43 0 0 1 8 0 1 0 1
0 1 174 75 0 0 1 8 0 1 0 1
phys
0 3 -64 43 0 0 1 8 0 1 0 1
0 3 -64 75 0 0 1 8 0 1 0 1
0 1 -64 75 0 0 1 8 0 1 0 1
phys
0 3 -64 43 0 0 1 8 0 1 0 1
0 1 -64 75 0 0 1 8 0 1 0 1
0 1 -64 43 0 0 1 8 0 1 0 1
phys
0 1 -64 43 0 0 1 8 0 1 0 1
0 1 -64 75 0 0 1 8 0 1 0 1
0 1 174 75 0 0 1 8 0 1 0 1
phys
0 1 -64 43 0 0 1 8 0 1 0 1
0 1 174 75 0 0 1 8 0 1 0 1
0 1 174 43 0 0 1 8 0 1 0 1
phys
0 3 -64 75 0 0 1 8 0 1 0 1
0 3 -64 43 0 0 1 8 0 1 0 1
0 3 174 43 0 0 1 8 0 1 0 1
phys
0 3 -64 75 0 0 1 8 0 1 0 1
0 3 174 43 0 0 1 8 0 1 0 1
0 3 174 75 0 0 1 8 0 1 0 1
phys
0 3 -64 43 0 0 1 8 0 1 0 1
0 1 -64 43 0 0 1 8 0 1 0 1
0 1 174 43 0 0 1 8 0 1 0 1
phys
0 3 -64 43 0 0 1 8 0 1 0 1
0 1 174 43 0 0 1 8 0 1 0 1
0 3 174 43 0 0 1 8 0 1 0 1
phys
0 1 -64 75 0 0 1 8 0 1 0 1
0 3 -64 75 0 0 1 8 0 1 0 1
0 3 174 75 0 0 1 8 0 1 0 1
phys
0 1 -64 75 0 0 1 8 0 1 0 1
0 3 174 75 0 0 1 8 0 1 0 1
0 1 174 75 0 0 1 8 0 1 0 1
phys
0 -1 -64 43 0 0 1 9 0 1 0 1
0 5 -64 43 0 0 1 9 0 1 0 1
0 5 174 43 0 0 1 9 0 1 0 1
phys
0 -1 -64 43 0 0 1 9 0 1 0 1
0 5 174 43 0 0 1 9 0 1 0 1
0 -1 174 43 0 0 1 9 0 1 0 1
phys
0 -1 174 32 0 0 1 9 0 1 0 1
0 -1 174 43 0 0 1 9 0 1 0 1
0 5 174 43 0 0 1 9 0 1 0 1
phys
0 -1 174 32 0 0 1 9 0 1 0 1
0 5 174 43 0 0 1 9 0 1 0 1
0 5 174 32 0 0 1 9 0 1 0 1
phys
0 5 -64 32 0 0 1 9 0 1 0 1
0 5 -64 43 0 0 1 9 0 1 0 1
0 -1 -64 43 0 0 1 9 0 1 0 1
phys
0 5 -64 32 0 0 1 9 0 1 0 1
0 -1 -64 43 0 0 1 9 0 1 0 1
0 -1 -64 32 0 0 1 9 0 1 0 1
phys
0 -1 -64 32 0 0 1 9 0 1 0 1
0 -1 -64 43 0 0 1 9 0 1 0 1
0 -1 174 43 0 0 1 9 0 1 0 1
phys
0 -1 -64 32 0 0 1 9 0 1 0 1
0 -1 174 43 0 0 1 9 0 1 0 1
0 -1 174 32 0 0 1 9 0 1 0 1
phys
0 5 174 32 0 0 1 9 0 1 0 1
0 5 174 43 0 0 1 9 0 1 0 1
0 5 -64 43 0 0 1 9 0 1 0 1
phys
0 5 174 32 0 0 1 9 0 1 0 1
0 5 -64 43 0 0 1 9 0 1 0 1
0 5 -64 32 0 0 1 9 0 1 0 1
phys
0 5 -64 32 0 0 1 9 0 1 0 1
0 -1 -64 32 0 0 1 9 0 1 0 1
0 -1 174 32 0 0 1 9 0 1 0 1
phys
0 5 -64 32 0 0 1 9 0 1 0 1
0 -1 174 32 0 0 1 9 0 1 0 1
0 5 174 32 0 0 1 9 0 1 0 1
phys
0 5 -70 32 0 0 1 10 0 1 0 1
0 5 -64 32 0 0 1 10 0 1 0 1
0 5 -64 75 0 0 1 10 0 1 0 1
phys
0 5 -70 32 0 0 1 10 0 1 0 1
0 5 -64 75 0 0 1 10 0 1 0 1
0 5 -70 75 0 0 1 10 0 1 0 1
phys
0 -1 -64 32 0 0 1 10 0 1 0 1
0 5 -64 32 0 0 1 10 0 1 0 1
0 5 -70 32 0 0 1 10 0 1 0 1
phys
0 -1 -64 32 0 0 1 10 0 1 0 1
0 5 -70 32 0 0 1 10 0 1 0 1
0 -1 -70 32 0 0 1 10 0 1 0 1
phys
0 -1 -70 75 0 0 1 10 0 1 0 1
0 5 -70 75 0 0 1 10 0 1 0 1
0 5 -64 75 0 0 1 10 0 1 0 1
phys
0 -1 -70 75 0 0 1 10 0 1 0 1
0 5 -64 75 0 0 1 10 0 1 0 1
0 -1 -64 75 0 0 1 10 0 1 0 1
phys
0 5 -64 75 0 0 1 10 0 1 0 1
0 5 -64 32 0 0 1 10 0 1 0 1
0 -1 -64 32 0 0 1 10 0 1 0 1
phys
0 5 -64 75 0 0 1 10 0 1 0 1
0 -1 -64 32 0 0 1 10 0 1 0 1
0 -1 -64 75 0 0 1 10 0 1 0 1
phys
0 5 -70 32 0 0 1 10 0 1 0 1
0 5 -70 75 0 0 1 10 0 1 0 1
0 -1 -70 75 0 0 1 10 0 1 0 1
phys
0 5 -70 32 0 0 1 10 0 1 0 1
0 -1 -70 75 0 0 1 10 0 1 0 1
0 -1 -70 32 0 0 1 10 0 1 0 1
phys
0 -1 -70 75 0 0 1 10 0 1 0 1
0 -1 -64 75 0 0 1 10 0 1 0 1
0 -1 -64 32 0 0 1 10 0 1 0 1
phys
0 -1 -70 75 0 0 1 10 0 1 0 1
0 -1 -64 32 0 0 1 10 0 1 0 1
0 -1 -70 32 0 0 1 10 0 1 0 1
phys
0 -6 190 8 0 0 1 11 0 1 0 1
0 -6 190 0 0 0 1 11 0 1 0 1
0 -142 190 0 0 0 1 11 0 1 0 1
phys
0 -6 190 8 0 0 1 11 0 1 0 1
0 -142 190 0 0 0 1 11 0 1 0 1
0 -142 190 8 0 0 1 11 0 1 0 1
phys
0 -6 174 0 0 0 1 11 0 1 0 1
0 -6 174 8 0 0 1 11 0 1 0 1
0 -158 174 8 0 0 1 11 0 1 0 1
phys
0 -6 174 0 0 0 1 11 0 1 0 1
0 -158 174 8 0 0 1 11 0 1 0 1
0 -158 174 0 0 0 1 11 0 1 0 1
phys
0 -6 174 8 0 0 1 11 0 1 0 1
0 -6 174 0 0 0 1 11 0 1 0 1
0 -6 190 0 0 0 1 11 0 1 0 1
phys
0 -6 174 8 0 0 1 11 0 1 0 1
0 -6 190 0 0 0 1 11 0 1 0 1
0 -6 190 8 0 0 1 11 0 1 0 1
phys
0 -6 174 0 0 0 1 11 0 1 0 1
0 -158 174 0 0 0 1 11 0 1 0 1
0 -142 190 0 0 0 1 11 0 1 0 1
phys
0 -6 174 0 0 0 1 11 0 1 0 1
0 -142 190 0 0 0 1 11 0 1 0 1
0 -6 190 0 0 0 1 11 0 1 0 1
phys
0 -158 174 8 0 0 1 11 0 1 0 1
0 -6 174 8 0 0 1 11 0 1 0 1
0 -6 190 8 0 0 1 11 0 1 0 1
phys
0 -158 174 8 0 0 1 11 0 1 0 1
0 -6 190 8 0 0 1 11 0 1 0 1
0 -142 190 8 0 0 1 11 0 1 0 1
phys
0 -158 174 0 0 0 1 11 0 1 0 1
0 -158 174 8 0 0 1 11 0 1 0 1
0 -142 190 8 0 0 1 11 0 1 0 1
phys
0 -158 174 0 0 0 1 11 0 1 0 1
0 -142 190 8 0 0 1 11 0 1 0 1
0 -142 190 0 0 0 1 11 0 1 0 1
phys
0 104 -170 28 0 0 1 12 0 1 0 1
0 104 -170 32 0 0 1 12 0 1 0 1
0 122 -150 32 0 0 1 12 0 1 0 1
phys
0 104 -170 28 0 0 1 12 0 1 0 1
0 122 -150 32 0 0 1 12 0 1 0 1
0 122 -150 28 0 0 1 12 0 1 0 1
phys
0 114 -180 32 0 0 1 12 0 1 0 1
0 104 -170 32 0 0 1 12 0 1 0 1
0 104 -170 28 0 0 1 12 0 1 0 1
phys
0 114 -180 32 0 0 1 12 0 1 0 1
0 104 -170 28 0 0 1 12 0 1 0 1
0 114 -180 28 0 0 1 12 0 1 0 1
phys
0 132 -158 28 0 0 1 12 0 1 0 1
0 122 -150 28 0 0 1 12 0 1 0 1
0 122 -150 32 0 0 1 12 0 1 0 1
phys
0 132 -158 28 0 0 1 12 0 1 0 1
0 122 -150 32 0 0 1 12 0 1 0 1
0 132 -158 32 0 0 1 12 0 1 0 1
phys
0 114 -180 28 0 0 1 12 0 1 0 1
0 104 -170 28 0 0 1 12 0 1 0 1
0 122 -150 28 0 0 1 12 0 1 0 1
phys
0 114 -180 28 0 0 1 12 0 1 0 1
0 122 -150 28 0 0 1 12 0 1 0 1
0 132 -158 28 0 0 1 12 0 1 0 1
phys
0 132 -158 32 0 0 1 12 0 1 0 1
0 122 -150 32 0 0 1 12 0 1 0 1
0 104 -170 32 0 0 1 12 0 1 0 1
phys
0 132 -158 32 0 0 1 12 0 1 0 1
0 104 -170 32 0 0 1 12 0 1 0 1
0 114 -180 32 0 0 1 12 0 1 0 1
phys
0 114 -180 32 0 0 1 12 0 1 0 1
0 114 -180 28 0 0 1 12 0 1 0 1
0 132 -158 28 0 0 1 12 0 1 0 1
phys
0 114 -180 32 0 0 1 12 0 1 0 1
0 132 -158 28 0 0 1 12 0 1 0 1
0 132 -158 32 0 0 1 12 0 1 0 1
phys
0 38 -222 32 0 0 1 13 0 1 0 1
0 66 -212 32 0 0 1 13 0 1 0 1
0 60 -200 32 0 0 1 13 0 1 0 1
phys
0 38 -222 32 0 0 1 13 0 1 0 1
0 60 -200 32 0 0 1 13 0 1 0 1
0 34 -208 32 0 0 1 13 0 1 0 1
phys
0 66 -212 28 0 0 1 13 0 1 0 1
0 66 -212 32 0 0 1 13 0 1 0 1
0 38 -222 32 0 0 1 13 0 1 0 1
phys
0 66 -212 28 0 0 1 13 0 1 0 1
0 38 -222 32 0 0 1 13 0 1 0 1
0 38 -222 28 0 0 1 13 0 1 0 1
phys
0 34 -208 28 0 0 1 13 0 1 0 1
0 34 -208 32 0 0 1 13 0 1 0 1
0 60 -200 32 0 0 1 13 0 1 0 1
phys
0 34 -208 28 0 0 1 13 0 1 0 1
0 60 -200 32 0 0 1 13 0 1 0 1
0 60 -200 28 0 0 1 13 0 1 0 1
phys
0 38 -222 28 0 0 1 13 0 1 0 1
0 38 -222 32 0 0 1 13 0 1 0 1
0 34 -208 32 0 0 1 13 0 1 0 1
phys
0 38 -222 28 0 0 1 13 0 1 0 1
0 34 -208 32 0 0 1 13 0 1 0 1
0 34 -208 28 0 0 1 13 0 1 0 1
phys
0 60 -200 28 0 0 1 13 0 1 0 1
0 60 -200 32 0 0 1 13 0 1 0 1
0 66 -212 32 0 0 1 13 0 1 0 1
phys
0 60 -200 28 0 0 1 13 0 1 0 1
0 66 -212 32 0 0 1 13 0 1 0 1
0 66 -212 28 0 0 1 13 0 1 0 1
phys
0 66 -212 28 0 0 1 13 0 1 0 1
0 38 -222 28 0 0 1 13 0 1 0 1
0 34 -208 28 0 0 1 13 0 1 0 1
phys
0 66 -212 28 0 0 1 13 0 1 0 1
0 34 -208 28 0 0 1 13 0 1 0 1
0 60 -200 28 0 0 1 13 0 1 0 1
phys
0 22 222 32 0 0 1 14 0 1 0 1
0 -6 222 32 0 0 1 14 0 1 0 1
0 -6 222 75 0 0 1 14 0 1 0 1
phys
0 22 222 32 0 0 1 14 0 1 0 1
0 -6 222 75 0 0 1 14 0 1 0 1
0 22 222 75 0 0 1 14 0 1 0 1
phys
0 22 174 75 0 0 1 14 0 1 0 1
0 -6 174 75 0 0 1 14 0 1 0 1
0 -6 174 32 0 0 1 14 0 1 0 1
phys
0 22 174 75 0 0 1 14 0 1 0 1
0 -6 174 32 0 0 1 14 0 1 0 1
0 22 174 32 0 0 1 14 0 1 0 1
phys
0 -6 174 32 0 0 1 14 0 1 0 1
0 -6 174 75 0 0 1 14 0 1 0 1
0 -6 222 75 0 0 1 14 0 1 0 1
phys
0 -6 174 32 0 0 1 14 0 1 0 1
0 -6 222 75 0 0 1 14 0 1 0 1
0 -6 222 32 0 0 1 14 0 1 0 1
phys
0 30 182 32 0 0 1 14 0 1 0 1
0 30 214 32 0 0 1 14 0 1 0 1
0 30 214 75 0 0 1 14 0 1 0 1
phys
0 30 182 32 0 0 1 14 0 1 0 1
0 30 214 75 0 0 1 14 0 1 0 1
0 30 182 75 0 0 1 14 0 1 0 1
phys
0 22 174 32 0 0 1 14 0 1 0 1
0 -6 174 32 0 0 1 14 0 1 0 1
0 -6 222 32 0 0 1 14 0 1 0 1
phys
0 22 174 32 0 0 1 14 0 1 0 1
0 -6 222 32 0 0 1 14 0 1 0 1
0 22 222 32 0 0 1 14 0 1 0 1
phys
0 22 174 32 0 0 1 14 0 1 0 1
0 22 222 32 0 0 1 14 0 1 0 1
0 30 214 32 0 0 1 14 0 1 0 1
phys
0 22 174 32 0 0 1 14 0 1 0 1
0 30 214 32 0 0 1 14 0 1 0 1
0 30 182 32 0 0 1 14 0 1 0 1
phys
0 -6 174 75 0 0 1 14 0 1 0 1
0 22 174 75 0 0 1 14 0 1 0 1
0 30 182 75 0 0 1 14 0 1 0 1
phys
0 -6 174 75 0 0 1 14 0 1 0 1
0 30 182 75 0 0 1 14 0 1 0 1
0 30 214 75 0 0 1 14 0 1 0 1
phys
0 -6 174 75 0 0 1 14 0 1 0 1
0 30 214 75 0 0 1 14 0 1 0 1
0 22 222 75 0 0 1 14 0 1 0 1
phys
0 -6 174 75 0 0 1 14 0 1 0 1
0 22 222 75 0 0 1 14 0 1 0 1
0 -6 222 75 0 0 1 14 0 1 0 1
phys
0 30 214 75 0 0 1 14 0 1 0 1
0 30 214 32 0 0 1 14 0 1 0 1
0 22 222 32 0 0 1 14 0 1 0 1
phys
0 30 214 75 0 0 1 14 0 1 0 1
0 22 222 32 0 0 1 14 0 1 0 1
0 22 222 75 0 0 1 14 0 1 0 1
phys
0 22 174 75 0 0 1 14 0 1 0 1
0 22 174 32 0 0 1 14 0 1 0 1
0 30 182 32 0 0 1 14 0 1 0 1
phys
0 22 174 75 0 0 1 14 0 1 0 1
0 30 182 32 0 0 1 14 0 1 0 1
0 30 182 75 0 0 1 14 0 1 0 1
phys
0 158 -74 28 0 0 1 15 0 1 0 1
0 144 -74 28 0 0 1 15 0 1 0 1
0 144 -74 32 0 0 1 15 0 1 0 1
phys
0 158 -74 28 0 0 1 15 0 1 0 1
0 144 -74 32 0 0 1 15 0 1 0 1
0 158 -74 32 0 0 1 15 0 1 0 1
phys
0 156.000654 -103.990187 28 0 0 1 15 0 1 0 1
0 142.000753 -99.990215 28 0 0 1 15 0 1 0 1
0 144 -74 28 0 0 1 15 0 1 0 1
phys
0 156.000654 -103.990187 28 0 0 1 15 0 1 0 1
0 144 -74 28 0 0 1 15 0 1 0 1
0 158 -74 28 0 0 1 15 0 1 0 1
phys
0 158 -74 32 0 0 1 15 0 1 0 1
0 144 -74 32 0 0 1 15 0 1 0 1
0 142.000753 -99.990215 32 0 0 1 15 0 1 0 1
phys
0 158 -74 32 0 0 1 15 0 1 0 1
0 142.000753 -99.990215 32 0 0 1 15 0 1 0 1
0 156.000654 -103.990187 32 0 0 1 15 0 1 0 1
phys
0 142.000753 -99.990215 32 0 0 1 15 0 1 0 1
0 144 -74 32 0 0 1 15 0 1 0 1
0 144 -74 28 0 0 1 15 0 1 0 1
phys
0 142.000753 -99.990215 32 0 0 1 15 0 1 0 1
0 144 -74 28 0 0 1 15 0 1 0 1
0 142.000753 -99.990215 28 0 0 1 15 0 1 0 1
phys
0 156.000654 -103.990187 32 0 0 1 15 0 1 0 1
0 142.000753 -99.990215 32 0 0 1 15 0 1 0 1
0 142.000753 -99.990215 28 0 0 1 15 0 1 0 1
phys
0 156.000654 -103.990187 32 0 0 1 15 0 1 0 1
0 142.000753 -99.990215 28 0 0 1 15 0 1 0 1
0 156.000654 -103.990187 28 0 0 1 15 0 1 0 1
phys
0 156.000654 -103.990187 28 0 0 1 15 0 1 0 1
0 158 -74 28 0 0 1 15 0 1 0 1
0 158 -74 32 0 0 1 15 0 1 0 1
phys
0 156.000654 -103.990187 28 0 0 1 15 0 1 0 1
0 158 -74 32 0 0 1 15 0 1 0 1
0 156.000654 -103.990187 32 0 0 1 15 0 1 0 1
end
