version 1
nodes
0 "root" -1
end
skeleton
time 0
0 0 0 0 0 0 0
end
triangles
phys
0 57 -120 63 0 0 1 1 0 1 0 1
0 57 -120 72 0 0 1 1 0 1 0 1
0 -58 -120 72 0 0 1 1 0 1 0 1
phys
0 57 -120 63 0 0 1 1 0 1 0 1
0 -58 -120 72 0 0 1 1 0 1 0 1
0 -58 -120 63 0 0 1 1 0 1 0 1
phys
0 -58 -120 63 0 0 1 1 0 1 0 1
0 -58 -120 72 0 0 1 1 0 1 0 1
0 -58 -105 72 0 0 1 1 0 1 0 1
phys
0 57 -120 72 0 0 1 1 0 1 0 1
0 57 -120 63 0 0 1 1 0 1 0 1
0 57 -105 72 0 0 1 1 0 1 0 1
phys
0 -58 -120 72 0 0 1 1 0 1 0 1
0 57 -120 72 0 0 1 1 0 1 0 1
0 57 -105 72 0 0 1 1 0 1 0 1
phys
0 -58 -120 72 0 0 1 1 0 1 0 1
0 57 -105 72 0 0 1 1 0 1 0 1
0 -58 -105 72 0 0 1 1 0 1 0 1
phys
0 57 -120 63 0 0 1 1 0 1 0 1
0 -58 -120 63 0 0 1 1 0 1 0 1
0 -58 -105 72 0 0 1 1 0 1 0 1
phys
0 57 -120 63 0 0 1 1 0 1 0 1
0 -58 -105 72 0 0 1 1 0 1 0 1
0 57 -105 72 0 0 1 1 0 1 0 1
phys
0 57 -135 54 0 0 1 2 0 1 0 1
0 57 -135 63 0 0 1 2 0 1 0 1
0 -58 -135 63 0 0 1 2 0 1 0 1
phys
0 57 -135 54 0 0 1 2 0 1 0 1
0 -58 -135 63 0 0 1 2 0 1 0 1
0 -58 -135 54 0 0 1 2 0 1 0 1
phys
0 -58 -135 54 0 0 1 2 0 1 0 1
0 -58 -135 63 0 0 1 2 0 1 0 1
0 -58 -120 63 0 0 1 2 0 1 0 1
phys
0 57 -135 63 0 0 1 2 0 1 0 1
0 57 -135 54 0 0 1 2 0 1 0 1
0 57 -120 63 0 0 1 2 0 1 0 1
phys
0 -58 -135 63 0 0 1 2 0 1 0 1
0 57 -135 63 0 0 1 2 0 1 0 1
0 57 -120 63 0 0 1 2 0 1 0 1
phys
0 -58 -135 63 0 0 1 2 0 1 0 1
0 57 -120 63 0 0 1 2 0 1 0 1
0 -58 -120 63 0 0 1 2 0 1 0 1
phys
0 57 -135 54 0 0 1 2 0 1 0 1
0 -58 -135 54 0 0 1 2 0 1 0 1
0 -58 -120 63 0 0 1 2 0 1 0 1
phys
0 57 -135 54 0 0 1 2 0 1 0 1
0 -58 -120 63 0 0 1 2 0 1 0 1
0 57 -120 63 0 0 1 2 0 1 0 1
phys
0 57 -195 18 0 0 1 3 0 1 0 1
0 57 -180 27 0 0 1 3 0 1 0 1
0 57 -195 27 0 0 1 3 0 1 0 1
phys
0 -58 -195 27 0 0 1 3 0 1 0 1
0 57 -195 27 0 0 1 3 0 1 0 1
0 57 -180 27 0 0 1 3 0 1 0 1
phys
0 -58 -195 27 0 0 1 3 0 1 0 1
0 57 -180 27 0 0 1 3 0 1 0 1
0 -58 -180 27 0 0 1 3 0 1 0 1
phys
0 -58 -180 27 0 0 1 3 0 1 0 1
0 57 -180 27 0 0 1 3 0 1 0 1
0 57 -195 18 0 0 1 3 0 1 0 1
phys
0 -58 -180 27 0 0 1 3 0 1 0 1
0 57 -195 18 0 0 1 3 0 1 0 1
0 -58 -195 18 0 0 1 3 0 1 0 1
phys
0 57 -195 18 0 0 1 3 0 1 0 1
0 57 -195 27 0 0 1 3 0 1 0 1
0 -58 -195 27 0 0 1 3 0 1 0 1
phys
0 57 -195 18 0 0 1 3 0 1 0 1
0 -58 -195 27 0 0 1 3 0 1 0 1
0 -58 -195 18 0 0 1 3 0 1 0 1
phys
0 -58 -195 27 0 0 1 3 0 1 0 1
0 -58 -180 27 0 0 1 3 0 1 0 1
0 -58 -195 18 0 0 1 3 0 1 0 1
phys
0 57 30 153 0 0 1 4 0 1 0 1
0 57 45 162 0 0 1 4 0 1 0 1
0 57 30 162 0 0 1 4 0 1 0 1
phys
0 -58 30 162 0 0 1 4 0 1 0 1
0 57 30 162 0 0 1 4 0 1 0 1
0 57 45 162 0 0 1 4 0 1 0 1
phys
0 -58 30 162 0 0 1 4 0 1 0 1
0 57 45 162 0 0 1 4 0 1 0 1
0 -58 45 162 0 0 1 4 0 1 0 1
phys
0 -58 45 162 0 0 1 4 0 1 0 1
0 57 45 162 0 0 1 4 0 1 0 1
0 57 30 153 0 0 1 4 0 1 0 1
phys
0 -58 45 162 0 0 1 4 0 1 0 1
0 57 30 153 0 0 1 4 0 1 0 1
0 -58 30 153 0 0 1 4 0 1 0 1
phys
0 57 30 153 0 0 1 4 0 1 0 1
0 57 30 162 0 0 1 4 0 1 0 1
0 -58 30 162 0 0 1 4 0 1 0 1
phys
0 57 30 153 0 0 1 4 0 1 0 1
0 -58 30 162 0 0 1 4 0 1 0 1
0 -58 30 153 0 0 1 4 0 1 0 1
phys
0 -58 30 162 0 0 1 4 0 1 0 1
0 -58 45 162 0 0 1 4 0 1 0 1
0 -58 30 153 0 0 1 4 0 1 0 1
phys
0 57 195 252 0 0 1 5 0 1 0 1
0 57 195 261 0 0 1 5 0 1 0 1
0 -58 195 261 0 0 1 5 0 1 0 1
phys
0 57 195 252 0 0 1 5 0 1 0 1
0 -58 195 261 0 0 1 5 0 1 0 1
0 -58 195 252 0 0 1 5 0 1 0 1
phys
0 -58 195 252 0 0 1 5 0 1 0 1
0 -58 195 261 0 0 1 5 0 1 0 1
0 -58 210 261 0 0 1 5 0 1 0 1
phys
0 57 195 261 0 0 1 5 0 1 0 1
0 57 195 252 0 0 1 5 0 1 0 1
0 57 210 261 0 0 1 5 0 1 0 1
phys
0 -58 195 261 0 0 1 5 0 1 0 1
0 57 195 261 0 0 1 5 0 1 0 1
0 57 210 261 0 0 1 5 0 1 0 1
phys
0 -58 195 261 0 0 1 5 0 1 0 1
0 57 210 261 0 0 1 5 0 1 0 1
0 -58 210 261 0 0 1 5 0 1 0 1
phys
0 57 195 252 0 0 1 5 0 1 0 1
0 -58 195 252 0 0 1 5 0 1 0 1
0 -58 210 261 0 0 1 5 0 1 0 1
phys
0 57 195 252 0 0 1 5 0 1 0 1
0 -58 210 261 0 0 1 5 0 1 0 1
0 57 210 261 0 0 1 5 0 1 0 1
phys
0 57 60 171 0 0 1 6 0 1 0 1
0 57 75 180 0 0 1 6 0 1 0 1
0 57 60 180 0 0 1 6 0 1 0 1
phys
0 -58 60 180 0 0 1 6 0 1 0 1
0 57 60 180 0 0 1 6 0 1 0 1
0 57 75 180 0 0 1 6 0 1 0 1
phys
0 -58 60 180 0 0 1 6 0 1 0 1
0 57 75 180 0 0 1 6 0 1 0 1
0 -58 75 180 0 0 1 6 0 1 0 1
phys
0 -58 75 180 0 0 1 6 0 1 0 1
0 57 75 180 0 0 1 6 0 1 0 1
0 57 60 171 0 0 1 6 0 1 0 1
phys
0 -58 75 180 0 0 1 6 0 1 0 1
0 57 60 171 0 0 1 6 0 1 0 1
0 -58 60 171 0 0 1 6 0 1 0 1
phys
0 57 60 171 0 0 1 6 0 1 0 1
0 57 60 180 0 0 1 6 0 1 0 1
0 -58 60 180 0 0 1 6 0 1 0 1
phys
0 57 60 171 0 0 1 6 0 1 0 1
0 -58 60 180 0 0 1 6 0 1 0 1
0 -58 60 171 0 0 1 6 0 1 0 1
phys
0 -58 60 180 0 0 1 6 0 1 0 1
0 -58 75 180 0 0 1 6 0 1 0 1
0 -58 60 171 0 0 1 6 0 1 0 1
phys
0 57 -60 99 0 0 1 7 0 1 0 1
0 57 -60 108 0 0 1 7 0 1 0 1
0 -58 -60 108 0 0 1 7 0 1 0 1
phys
0 57 -60 99 0 0 1 7 0 1 0 1
0 -58 -60 108 0 0 1 7 0 1 0 1
0 -58 -60 99 0 0 1 7 0 1 0 1
phys
0 -58 -60 99 0 0 1 7 0 1 0 1
0 -58 -60 108 0 0 1 7 0 1 0 1
0 -58 -45 108 0 0 1 7 0 1 0 1
phys
0 57 -60 108 0 0 1 7 0 1 0 1
0 57 -60 99 0 0 1 7 0 1 0 1
0 57 -45 108 0 0 1 7 0 1 0 1
phys
0 -58 -60 108 0 0 1 7 0 1 0 1
0 57 -60 108 0 0 1 7 0 1 0 1
0 57 -45 108 0 0 1 7 0 1 0 1
phys
0 -58 -60 108 0 0 1 7 0 1 0 1
0 57 -45 108 0 0 1 7 0 1 0 1
0 -58 -45 108 0 0 1 7 0 1 0 1
phys
0 57 -60 99 0 0 1 7 0 1 0 1
0 -58 -60 99 0 0 1 7 0 1 0 1
0 -58 -45 108 0 0 1 7 0 1 0 1
phys
0 57 -60 99 0 0 1 7 0 1 0 1
0 -58 -45 108 0 0 1 7 0 1 0 1
0 57 -45 108 0 0 1 7 0 1 0 1
phys
0 57 -150 45 0 0 1 8 0 1 0 1
0 57 -150 54 0 0 1 8 0 1 0 1
0 -58 -150 54 0 0 1 8 0 1 0 1
phys
0 57 -150 45 0 0 1 8 0 1 0 1
0 -58 -150 54 0 0 1 8 0 1 0 1
0 -58 -150 45 0 0 1 8 0 1 0 1
phys
0 -58 -150 45 0 0 1 8 0 1 0 1
0 -58 -150 54 0 0 1 8 0 1 0 1
0 -58 -135 54 0 0 1 8 0 1 0 1
phys
0 57 -150 54 0 0 1 8 0 1 0 1
0 57 -150 45 0 0 1 8 0 1 0 1
0 57 -135 54 0 0 1 8 0 1 0 1
phys
0 -58 -150 54 0 0 1 8 0 1 0 1
0 57 -150 54 0 0 1 8 0 1 0 1
0 57 -135 54 0 0 1 8 0 1 0 1
phys
0 -58 -150 54 0 0 1 8 0 1 0 1
0 57 -135 54 0 0 1 8 0 1 0 1
0 -58 -135 54 0 0 1 8 0 1 0 1
phys
0 57 -150 45 0 0 1 8 0 1 0 1
0 -58 -150 45 0 0 1 8 0 1 0 1
0 -58 -135 54 0 0 1 8 0 1 0 1
phys
0 57 -150 45 0 0 1 8 0 1 0 1
0 -58 -135 54 0 0 1 8 0 1 0 1
0 57 -135 54 0 0 1 8 0 1 0 1
phys
0 -58 75 189 0 0 1 9 0 1 0 1
0 57 75 189 0 0 1 9 0 1 0 1
0 57 90 189 0 0 1 9 0 1 0 1
phys
0 -58 75 189 0 0 1 9 0 1 0 1
0 57 90 189 0 0 1 9 0 1 0 1
0 -58 90 189 0 0 1 9 0 1 0 1
phys
0 57 75 180 0 0 1 9 0 1 0 1
0 -58 75 180 0 0 1 9 0 1 0 1
0 -58 90 189 0 0 1 9 0 1 0 1
phys
0 57 75 180 0 0 1 9 0 1 0 1
0 -58 90 189 0 0 1 9 0 1 0 1
0 57 90 189 0 0 1 9 0 1 0 1
phys
0 57 75 189 0 0 1 9 0 1 0 1
0 -58 75 189 0 0 1 9 0 1 0 1
0 -58 75 180 0 0 1 9 0 1 0 1
phys
0 57 75 189 0 0 1 9 0 1 0 1
0 -58 75 180 0 0 1 9 0 1 0 1
0 57 75 180 0 0 1 9 0 1 0 1
phys
0 -58 75 189 0 0 1 9 0 1 0 1
0 -58 90 189 0 0 1 9 0 1 0 1
0 -58 75 180 0 0 1 9 0 1 0 1
phys
0 57 75 180 0 0 1 9 0 1 0 1
0 57 90 189 0 0 1 9 0 1 0 1
0 57 75 189 0 0 1 9 0 1 0 1
phys
0 57 -180 27 0 0 1 10 0 1 0 1
0 57 -180 36 0 0 1 10 0 1 0 1
0 -58 -180 36 0 0 1 10 0 1 0 1
phys
0 57 -180 27 0 0 1 10 0 1 0 1
0 -58 -180 36 0 0 1 10 0 1 0 1
0 -58 -180 27 0 0 1 10 0 1 0 1
phys
0 -58 -180 27 0 0 1 10 0 1 0 1
0 -58 -180 36 0 0 1 10 0 1 0 1
0 -58 -165 36 0 0 1 10 0 1 0 1
phys
0 57 -180 36 0 0 1 10 0 1 0 1
0 57 -180 27 0 0 1 10 0 1 0 1
0 57 -165 36 0 0 1 10 0 1 0 1
phys
0 -58 -180 36 0 0 1 10 0 1 0 1
0 57 -180 36 0 0 1 10 0 1 0 1
0 57 -165 36 0 0 1 10 0 1 0 1
phys
0 -58 -180 36 0 0 1 10 0 1 0 1
0 57 -165 36 0 0 1 10 0 1 0 1
0 -58 -165 36 0 0 1 10 0 1 0 1
phys
0 57 -180 27 0 0 1 10 0 1 0 1
0 -58 -180 27 0 0 1 10 0 1 0 1
0 -58 -165 36 0 0 1 10 0 1 0 1
phys
0 57 -180 27 0 0 1 10 0 1 0 1
0 -58 -165 36 0 0 1 10 0 1 0 1
0 57 -165 36 0 0 1 10 0 1 0 1
phys
0 57 210 261 0 0 1 11 0 1 0 1
0 57 210 270 0 0 1 11 0 1 0 1
0 -58 210 270 0 0 1 11 0 1 0 1
phys
0 57 210 261 0 0 1 11 0 1 0 1
0 -58 210 270 0 0 1 11 0 1 0 1
0 -58 210 261 0 0 1 11 0 1 0 1
phys
0 -58 210 261 0 0 1 11 0 1 0 1
0 -58 210 270 0 0 1 11 0 1 0 1
0 -58 225 270 0 0 1 11 0 1 0 1
phys
0 57 210 270 0 0 1 11 0 1 0 1
0 57 210 261 0 0 1 11 0 1 0 1
0 57 225 270 0 0 1 11 0 1 0 1
phys
0 -58 210 270 0 0 1 11 0 1 0 1
0 57 210 270 0 0 1 11 0 1 0 1
0 57 225 270 0 0 1 11 0 1 0 1
phys
0 -58 210 270 0 0 1 11 0 1 0 1
0 57 225 270 0 0 1 11 0 1 0 1
0 -58 225 270 0 0 1 11 0 1 0 1
phys
0 57 210 261 0 0 1 11 0 1 0 1
0 -58 210 261 0 0 1 11 0 1 0 1
0 -58 225 270 0 0 1 11 0 1 0 1
phys
0 57 210 261 0 0 1 11 0 1 0 1
0 -58 225 270 0 0 1 11 0 1 0 1
0 57 225 270 0 0 1 11 0 1 0 1
phys
0 57 -45 108 0 0 1 12 0 1 0 1
0 57 -45 117 0 0 1 12 0 1 0 1
0 -58 -45 117 0 0 1 12 0 1 0 1
phys
0 57 -45 108 0 0 1 12 0 1 0 1
0 -58 -45 117 0 0 1 12 0 1 0 1
0 -58 -45 108 0 0 1 12 0 1 0 1
phys
0 -58 -45 108 0 0 1 12 0 1 0 1
0 -58 -45 117 0 0 1 12 0 1 0 1
0 -58 -30 117 0 0 1 12 0 1 0 1
phys
0 57 -45 117 0 0 1 12 0 1 0 1
0 57 -45 108 0 0 1 12 0 1 0 1
0 57 -30 117 0 0 1 12 0 1 0 1
phys
0 -58 -45 117 0 0 1 12 0 1 0 1
0 57 -45 117 0 0 1 12 0 1 0 1
0 57 -30 117 0 0 1 12 0 1 0 1
phys
0 -58 -45 117 0 0 1 12 0 1 0 1
0 57 -30 117 0 0 1 12 0 1 0 1
0 -58 -30 117 0 0 1 12 0 1 0 1
phys
0 57 -45 108 0 0 1 12 0 1 0 1
0 -58 -45 108 0 0 1 12 0 1 0 1
0 -58 -30 117 0 0 1 12 0 1 0 1
phys
0 57 -45 108 0 0 1 12 0 1 0 1
0 -58 -30 117 0 0 1 12 0 1 0 1
0 57 -30 117 0 0 1 12 0 1 0 1
phys
0 57 90 189 0 0 1 13 0 1 0 1
0 57 90 198 0 0 1 13 0 1 0 1
0 -58 90 198 0 0 1 13 0 1 0 1
phys
0 57 90 189 0 0 1 13 0 1 0 1
0 -58 90 198 0 0 1 13 0 1 0 1
0 -58 90 189 0 0 1 13 0 1 0 1
phys
0 -58 90 189 0 0 1 13 0 1 0 1
0 -58 90 198 0 0 1 13 0 1 0 1
0 -58 105 198 0 0 1 13 0 1 0 1
phys
0 57 90 198 0 0 1 13 0 1 0 1
0 57 90 189 0 0 1 13 0 1 0 1
0 57 105 198 0 0 1 13 0 1 0 1
phys
0 -58 90 198 0 0 1 13 0 1 0 1
0 57 90 198 0 0 1 13 0 1 0 1
0 57 105 198 0 0 1 13 0 1 0 1
phys
0 -58 90 198 0 0 1 13 0 1 0 1
0 57 105 198 0 0 1 13 0 1 0 1
0 -58 105 198 0 0 1 13 0 1 0 1
phys
0 57 90 189 0 0 1 13 0 1 0 1
0 -58 90 189 0 0 1 13 0 1 0 1
0 -58 105 198 0 0 1 13 0 1 0 1
phys
0 57 90 189 0 0 1 13 0 1 0 1
0 -58 105 198 0 0 1 13 0 1 0 1
0 57 105 198 0 0 1 13 0 1 0 1
phys
0 57 105 198 0 0 1 14 0 1 0 1
0 57 105 207 0 0 1 14 0 1 0 1
0 -58 105 207 0 0 1 14 0 1 0 1
phys
0 57 105 198 0 0 1 14 0 1 0 1
0 -58 105 207 0 0 1 14 0 1 0 1
0 -58 105 198 0 0 1 14 0 1 0 1
phys
0 -58 105 198 0 0 1 14 0 1 0 1
0 -58 105 207 0 0 1 14 0 1 0 1
0 -58 120 207 0 0 1 14 0 1 0 1
phys
0 57 105 207 0 0 1 14 0 1 0 1
0 57 105 198 0 0 1 14 0 1 0 1
0 57 120 207 0 0 1 14 0 1 0 1
phys
0 -58 105 207 0 0 1 14 0 1 0 1
0 57 105 207 0 0 1 14 0 1 0 1
0 57 120 207 0 0 1 14 0 1 0 1
phys
0 -58 105 207 0 0 1 14 0 1 0 1
0 57 120 207 0 0 1 14 0 1 0 1
0 -58 120 207 0 0 1 14 0 1 0 1
phys
0 57 105 198 0 0 1 14 0 1 0 1
0 -58 105 198 0 0 1 14 0 1 0 1
0 -58 120 207 0 0 1 14 0 1 0 1
phys
0 57 105 198 0 0 1 14 0 1 0 1
0 -58 120 207 0 0 1 14 0 1 0 1
0 57 120 207 0 0 1 14 0 1 0 1
phys
0 57 -105 72 0 0 1 15 0 1 0 1
0 -58 -105 72 0 0 1 15 0 1 0 1
0 -58 -90 81 0 0 1 15 0 1 0 1
phys
0 57 -105 72 0 0 1 15 0 1 0 1
0 -58 -90 81 0 0 1 15 0 1 0 1
0 57 -90 81 0 0 1 15 0 1 0 1
phys
0 -58 -105 81 0 0 1 15 0 1 0 1
0 -58 -105 72 0 0 1 15 0 1 0 1
0 57 -105 72 0 0 1 15 0 1 0 1
phys
0 -58 -105 81 0 0 1 15 0 1 0 1
0 57 -105 72 0 0 1 15 0 1 0 1
0 57 -105 81 0 0 1 15 0 1 0 1
phys
0 -58 -90 81 0 0 1 15 0 1 0 1
0 -58 -105 72 0 0 1 15 0 1 0 1
0 -58 -105 81 0 0 1 15 0 1 0 1
phys
0 57 -105 81 0 0 1 15 0 1 0 1
0 57 -105 72 0 0 1 15 0 1 0 1
0 57 -90 81 0 0 1 15 0 1 0 1
phys
0 -58 -105 81 0 0 1 15 0 1 0 1
0 57 -105 81 0 0 1 15 0 1 0 1
0 57 -90 81 0 0 1 15 0 1 0 1
phys
0 -58 -105 81 0 0 1 15 0 1 0 1
0 57 -90 81 0 0 1 15 0 1 0 1
0 -58 -90 81 0 0 1 15 0 1 0 1
phys
0 57 -30 117 0 0 1 16 0 1 0 1
0 57 -30 126 0 0 1 16 0 1 0 1
0 -58 -30 126 0 0 1 16 0 1 0 1
phys
0 57 -30 117 0 0 1 16 0 1 0 1
0 -58 -30 126 0 0 1 16 0 1 0 1
0 -58 -30 117 0 0 1 16 0 1 0 1
phys
0 -58 -30 117 0 0 1 16 0 1 0 1
0 -58 -30 126 0 0 1 16 0 1 0 1
0 -58 -15 126 0 0 1 16 0 1 0 1
phys
0 57 -30 126 0 0 1 16 0 1 0 1
0 57 -30 117 0 0 1 16 0 1 0 1
0 57 -15 126 0 0 1 16 0 1 0 1
phys
0 -58 -30 126 0 0 1 16 0 1 0 1
0 57 -30 126 0 0 1 16 0 1 0 1
0 57 -15 126 0 0 1 16 0 1 0 1
phys
0 -58 -30 126 0 0 1 16 0 1 0 1
0 57 -15 126 0 0 1 16 0 1 0 1
0 -58 -15 126 0 0 1 16 0 1 0 1
phys
0 57 -30 117 0 0 1 16 0 1 0 1
0 -58 -30 117 0 0 1 16 0 1 0 1
0 -58 -15 126 0 0 1 16 0 1 0 1
phys
0 57 -30 117 0 0 1 16 0 1 0 1
0 -58 -15 126 0 0 1 16 0 1 0 1
0 57 -15 126 0 0 1 16 0 1 0 1
phys
0 57 45 162 0 0 1 17 0 1 0 1
0 57 45 171 0 0 1 17 0 1 0 1
0 -58 45 171 0 0 1 17 0 1 0 1
phys
0 57 45 162 0 0 1 17 0 1 0 1
0 -58 45 171 0 0 1 17 0 1 0 1
0 -58 45 162 0 0 1 17 0 1 0 1
phys
0 -58 45 162 0 0 1 17 0 1 0 1
0 -58 45 171 0 0 1 17 0 1 0 1
0 -58 60 171 0 0 1 17 0 1 0 1
phys
0 57 45 171 0 0 1 17 0 1 0 1
0 57 45 162 0 0 1 17 0 1 0 1
0 57 60 171 0 0 1 17 0 1 0 1
phys
0 -58 45 171 0 0 1 17 0 1 0 1
0 57 45 171 0 0 1 17 0 1 0 1
0 57 60 171 0 0 1 17 0 1 0 1
phys
0 -58 45 171 0 0 1 17 0 1 0 1
0 57 60 171 0 0 1 17 0 1 0 1
0 -58 60 171 0 0 1 17 0 1 0 1
phys
0 57 45 162 0 0 1 17 0 1 0 1
0 -58 45 162 0 0 1 17 0 1 0 1
0 -58 60 171 0 0 1 17 0 1 0 1
phys
0 57 45 162 0 0 1 17 0 1 0 1
0 -58 60 171 0 0 1 17 0 1 0 1
0 57 60 171 0 0 1 17 0 1 0 1
phys
0 -58 0 144 0 0 1 18 0 1 0 1
0 -58 15 144 0 0 1 18 0 1 0 1
0 -58 0 135 0 0 1 18 0 1 0 1
phys
0 57 0 135 0 0 1 18 0 1 0 1
0 57 15 144 0 0 1 18 0 1 0 1
0 57 0 144 0 0 1 18 0 1 0 1
phys
0 57 0 144 0 0 1 18 0 1 0 1
0 57 15 144 0 0 1 18 0 1 0 1
0 -58 15 144 0 0 1 18 0 1 0 1
phys
0 57 0 144 0 0 1 18 0 1 0 1
0 -58 15 144 0 0 1 18 0 1 0 1
0 -58 0 144 0 0 1 18 0 1 0 1
phys
0 -58 0 135 0 0 1 18 0 1 0 1
0 -58 15 144 0 0 1 18 0 1 0 1
0 57 15 144 0 0 1 18 0 1 0 1
phys
0 -58 0 135 0 0 1 18 0 1 0 1
0 57 15 144 0 0 1 18 0 1 0 1
0 57 0 135 0 0 1 18 0 1 0 1
phys
0 57 0 135 0 0 1 18 0 1 0 1
0 57 0 144 0 0 1 18 0 1 0 1
0 -58 0 144 0 0 1 18 0 1 0 1
phys
0 57 0 135 0 0 1 18 0 1 0 1
0 -58 0 144 0 0 1 18 0 1 0 1
0 -58 0 135 0 0 1 18 0 1 0 1
phys
0 57 -75 90 0 0 1 19 0 1 0 1
0 57 -75 99 0 0 1 19 0 1 0 1
0 -58 -75 99 0 0 1 19 0 1 0 1
phys
0 57 -75 90 0 0 1 19 0 1 0 1
0 -58 -75 99 0 0 1 19 0 1 0 1
0 -58 -75 90 0 0 1 19 0 1 0 1
phys
0 -58 -75 90 0 0 1 19 0 1 0 1
0 -58 -75 99 0 0 1 19 0 1 0 1
0 -58 -60 99 0 0 1 19 0 1 0 1
phys
0 57 -75 99 0 0 1 19 0 1 0 1
0 57 -75 90 0 0 1 19 0 1 0 1
0 57 -60 99 0 0 1 19 0 1 0 1
phys
0 -58 -75 99 0 0 1 19 0 1 0 1
0 57 -75 99 0 0 1 19 0 1 0 1
0 57 -60 99 0 0 1 19 0 1 0 1
phys
0 -58 -75 99 0 0 1 19 0 1 0 1
0 57 -60 99 0 0 1 19 0 1 0 1
0 -58 -60 99 0 0 1 19 0 1 0 1
phys
0 57 -75 90 0 0 1 19 0 1 0 1
0 -58 -75 90 0 0 1 19 0 1 0 1
0 -58 -60 99 0 0 1 19 0 1 0 1
phys
0 57 -75 90 0 0 1 19 0 1 0 1
0 -58 -60 99 0 0 1 19 0 1 0 1
0 57 -60 99 0 0 1 19 0 1 0 1
phys
0 57 135 216 0 0 1 20 0 1 0 1
0 57 135 225 0 0 1 20 0 1 0 1
0 -58 135 225 0 0 1 20 0 1 0 1
phys
0 57 135 216 0 0 1 20 0 1 0 1
0 -58 135 225 0 0 1 20 0 1 0 1
0 -58 135 216 0 0 1 20 0 1 0 1
phys
0 -58 135 216 0 0 1 20 0 1 0 1
0 -58 135 225 0 0 1 20 0 1 0 1
0 -58 150 225 0 0 1 20 0 1 0 1
phys
0 57 135 225 0 0 1 20 0 1 0 1
0 57 135 216 0 0 1 20 0 1 0 1
0 57 150 225 0 0 1 20 0 1 0 1
phys
0 -58 135 225 0 0 1 20 0 1 0 1
0 57 135 225 0 0 1 20 0 1 0 1
0 57 150 225 0 0 1 20 0 1 0 1
phys
0 -58 135 225 0 0 1 20 0 1 0 1
0 57 150 225 0 0 1 20 0 1 0 1
0 -58 150 225 0 0 1 20 0 1 0 1
phys
0 57 135 216 0 0 1 20 0 1 0 1
0 -58 135 216 0 0 1 20 0 1 0 1
0 -58 150 225 0 0 1 20 0 1 0 1
phys
0 57 135 216 0 0 1 20 0 1 0 1
0 -58 150 225 0 0 1 20 0 1 0 1
0 57 150 225 0 0 1 20 0 1 0 1
phys
0 57 -90 81 0 0 1 21 0 1 0 1
0 57 -90 90 0 0 1 21 0 1 0 1
0 -58 -90 90 0 0 1 21 0 1 0 1
phys
0 57 -90 81 0 0 1 21 0 1 0 1
0 -58 -90 90 0 0 1 21 0 1 0 1
0 -58 -90 81 0 0 1 21 0 1 0 1
phys
0 -58 -90 81 0 0 1 21 0 1 0 1
0 -58 -90 90 0 0 1 21 0 1 0 1
0 -58 -75 90 0 0 1 21 0 1 0 1
phys
0 57 -90 90 0 0 1 21 0 1 0 1
0 57 -90 81 0 0 1 21 0 1 0 1
0 57 -75 90 0 0 1 21 0 1 0 1
phys
0 -58 -90 90 0 0 1 21 0 1 0 1
0 57 -90 90 0 0 1 21 0 1 0 1
0 57 -75 90 0 0 1 21 0 1 0 1
phys
0 -58 -90 90 0 0 1 21 0 1 0 1
0 57 -75 90 0 0 1 21 0 1 0 1
0 -58 -75 90 0 0 1 21 0 1 0 1
phys
0 57 -90 81 0 0 1 21 0 1 0 1
0 -58 -90 81 0 0 1 21 0 1 0 1
0 -58 -75 90 0 0 1 21 0 1 0 1
phys
0 57 -90 81 0 0 1 21 0 1 0 1
0 -58 -75 90 0 0 1 21 0 1 0 1
0 57 -75 90 0 0 1 21 0 1 0 1
phys
0 57 120 207 0 0 1 22 0 1 0 1
0 57 135 216 0 0 1 22 0 1 0 1
0 57 120 216 0 0 1 22 0 1 0 1
phys
0 -58 120 216 0 0 1 22 0 1 0 1
0 57 120 216 0 0 1 22 0 1 0 1
0 57 135 216 0 0 1 22 0 1 0 1
phys
0 -58 120 216 0 0 1 22 0 1 0 1
0 57 135 216 0 0 1 22 0 1 0 1
0 -58 135 216 0 0 1 22 0 1 0 1
phys
0 -58 135 216 0 0 1 22 0 1 0 1
0 57 135 216 0 0 1 22 0 1 0 1
0 57 120 207 0 0 1 22 0 1 0 1
phys
0 -58 135 216 0 0 1 22 0 1 0 1
0 57 120 207 0 0 1 22 0 1 0 1
0 -58 120 207 0 0 1 22 0 1 0 1
phys
0 57 120 207 0 0 1 22 0 1 0 1
0 57 120 216 0 0 1 22 0 1 0 1
0 -58 120 216 0 0 1 22 0 1 0 1
phys
0 57 120 207 0 0 1 22 0 1 0 1
0 -58 120 216 0 0 1 22 0 1 0 1
0 -58 120 207 0 0 1 22 0 1 0 1
phys
0 -58 120 216 0 0 1 22 0 1 0 1
0 -58 135 216 0 0 1 22 0 1 0 1
0 -58 120 207 0 0 1 22 0 1 0 1
phys
0 57 180 243 0 0 1 23 0 1 0 1
0 -58 180 243 0 0 1 23 0 1 0 1
0 -58 195 252 0 0 1 23 0 1 0 1
phys
0 57 180 243 0 0 1 23 0 1 0 1
0 -58 195 252 0 0 1 23 0 1 0 1
0 57 195 252 0 0 1 23 0 1 0 1
phys
0 -58 180 252 0 0 1 23 0 1 0 1
0 -58 180 243 0 0 1 23 0 1 0 1
0 57 180 243 0 0 1 23 0 1 0 1
phys
0 -58 180 252 0 0 1 23 0 1 0 1
0 57 180 243 0 0 1 23 0 1 0 1
0 57 180 252 0 0 1 23 0 1 0 1
phys
0 -58 195 252 0 0 1 23 0 1 0 1
0 -58 180 243 0 0 1 23 0 1 0 1
0 -58 180 252 0 0 1 23 0 1 0 1
phys
0 57 180 252 0 0 1 23 0 1 0 1
0 57 180 243 0 0 1 23 0 1 0 1
0 57 195 252 0 0 1 23 0 1 0 1
phys
0 -58 180 252 0 0 1 23 0 1 0 1
0 57 180 252 0 0 1 23 0 1 0 1
0 57 195 252 0 0 1 23 0 1 0 1
phys
0 -58 180 252 0 0 1 23 0 1 0 1
0 57 195 252 0 0 1 23 0 1 0 1
0 -58 195 252 0 0 1 23 0 1 0 1
phys
0 57 -15 126 0 0 1 24 0 1 0 1
0 57 -15 135 0 0 1 24 0 1 0 1
0 -58 -15 135 0 0 1 24 0 1 0 1
phys
0 57 -15 126 0 0 1 24 0 1 0 1
0 -58 -15 135 0 0 1 24 0 1 0 1
0 -58 -15 126 0 0 1 24 0 1 0 1
phys
0 -58 -15 126 0 0 1 24 0 1 0 1
0 -58 -15 135 0 0 1 24 0 1 0 1
0 -58 0 135 0 0 1 24 0 1 0 1
phys
0 57 -15 135 0 0 1 24 0 1 0 1
0 57 -15 126 0 0 1 24 0 1 0 1
0 57 0 135 0 0 1 24 0 1 0 1
phys
0 -58 -15 135 0 0 1 24 0 1 0 1
0 57 -15 135 0 0 1 24 0 1 0 1
0 57 0 135 0 0 1 24 0 1 0 1
phys
0 -58 -15 135 0 0 1 24 0 1 0 1
0 57 0 135 0 0 1 24 0 1 0 1
0 -58 0 135 0 0 1 24 0 1 0 1
phys
0 57 -15 126 0 0 1 24 0 1 0 1
0 -58 -15 126 0 0 1 24 0 1 0 1
0 -58 0 135 0 0 1 24 0 1 0 1
phys
0 57 -15 126 0 0 1 24 0 1 0 1
0 -58 0 135 0 0 1 24 0 1 0 1
0 57 0 135 0 0 1 24 0 1 0 1
phys
0 -58 -165 45 0 0 1 25 0 1 0 1
0 57 -165 45 0 0 1 25 0 1 0 1
0 57 -150 45 0 0 1 25 0 1 0 1
phys
0 -58 -165 45 0 0 1 25 0 1 0 1
0 57 -150 45 0 0 1 25 0 1 0 1
0 -58 -150 45 0 0 1 25 0 1 0 1
phys
0 57 -165 36 0 0 1 25 0 1 0 1
0 -58 -165 36 0 0 1 25 0 1 0 1
0 -58 -150 45 0 0 1 25 0 1 0 1
phys
0 57 -165 36 0 0 1 25 0 1 0 1
0 -58 -150 45 0 0 1 25 0 1 0 1
0 57 -150 45 0 0 1 25 0 1 0 1
phys
0 57 -165 45 0 0 1 25 0 1 0 1
0 -58 -165 45 0 0 1 25 0 1 0 1
0 -58 -165 36 0 0 1 25 0 1 0 1
phys
0 57 -165 45 0 0 1 25 0 1 0 1
0 -58 -165 36 0 0 1 25 0 1 0 1
0 57 -165 36 0 0 1 25 0 1 0 1
phys
0 -58 -165 45 0 0 1 25 0 1 0 1
0 -58 -150 45 0 0 1 25 0 1 0 1
0 -58 -165 36 0 0 1 25 0 1 0 1
phys
0 57 -165 36 0 0 1 25 0 1 0 1
0 57 -150 45 0 0 1 25 0 1 0 1
0 57 -165 45 0 0 1 25 0 1 0 1
phys
0 57 -210 9 0 0 1 26 0 1 0 1
0 57 -210 18 0 0 1 26 0 1 0 1
0 -58 -210 18 0 0 1 26 0 1 0 1
phys
0 57 -210 9 0 0 1 26 0 1 0 1
0 -58 -210 18 0 0 1 26 0 1 0 1
0 -58 -210 9 0 0 1 26 0 1 0 1
phys
0 -58 -210 9 0 0 1 26 0 1 0 1
0 -58 -210 18 0 0 1 26 0 1 0 1
0 -58 -195 18 0 0 1 26 0 1 0 1
phys
0 57 -210 18 0 0 1 26 0 1 0 1
0 57 -210 9 0 0 1 26 0 1 0 1
0 57 -195 18 0 0 1 26 0 1 0 1
phys
0 -58 -210 18 0 0 1 26 0 1 0 1
0 57 -210 18 0 0 1 26 0 1 0 1
0 57 -195 18 0 0 1 26 0 1 0 1
phys
0 -58 -210 18 0 0 1 26 0 1 0 1
0 57 -195 18 0 0 1 26 0 1 0 1
0 -58 -195 18 0 0 1 26 0 1 0 1
phys
0 57 -210 9 0 0 1 26 0 1 0 1
0 -58 -210 9 0 0 1 26 0 1 0 1
0 -58 -195 18 0 0 1 26 0 1 0 1
phys
0 57 -210 9 0 0 1 26 0 1 0 1
0 -58 -195 18 0 0 1 26 0 1 0 1
0 57 -195 18 0 0 1 26 0 1 0 1
phys
0 57 -225 0 0 0 1 27 0 1 0 1
0 57 -210 9 0 0 1 27 0 1 0 1
0 57 -225 9 0 0 1 27 0 1 0 1
phys
0 -58 -225 9 0 0 1 27 0 1 0 1
0 57 -225 9 0 0 1 27 0 1 0 1
0 57 -210 9 0 0 1 27 0 1 0 1
phys
0 -58 -225 9 0 0 1 27 0 1 0 1
0 57 -210 9 0 0 1 27 0 1 0 1
0 -58 -210 9 0 0 1 27 0 1 0 1
phys
0 -58 -210 9 0 0 1 27 0 1 0 1
0 57 -210 9 0 0 1 27 0 1 0 1
0 57 -225 0 0 0 1 27 0 1 0 1
phys
0 -58 -210 9 0 0 1 27 0 1 0 1
0 57 -225 0 0 0 1 27 0 1 0 1
0 -58 -225 0 0 0 1 27 0 1 0 1
phys
0 57 -225 0 0 0 1 27 0 1 0 1
0 57 -225 9 0 0 1 27 0 1 0 1
0 -58 -225 9 0 0 1 27 0 1 0 1
phys
0 57 -225 0 0 0 1 27 0 1 0 1
0 -58 -225 9 0 0 1 27 0 1 0 1
0 -58 -225 0 0 0 1 27 0 1 0 1
phys
0 -58 -225 9 0 0 1 27 0 1 0 1
0 -58 -210 9 0 0 1 27 0 1 0 1
0 -58 -225 0 0 0 1 27 0 1 0 1
phys
0 57 165 234 0 0 1 28 0 1 0 1
0 57 165 243 0 0 1 28 0 1 0 1
0 -58 165 243 0 0 1 28 0 1 0 1
phys
0 57 165 234 0 0 1 28 0 1 0 1
0 -58 165 243 0 0 1 28 0 1 0 1
0 -58 165 234 0 0 1 28 0 1 0 1
phys
0 -58 165 234 0 0 1 28 0 1 0 1
0 -58 165 243 0 0 1 28 0 1 0 1
0 -58 180 243 0 0 1 28 0 1 0 1
phys
0 57 165 243 0 0 1 28 0 1 0 1
0 57 165 234 0 0 1 28 0 1 0 1
0 57 180 243 0 0 1 28 0 1 0 1
phys
0 -58 165 243 0 0 1 28 0 1 0 1
0 57 165 243 0 0 1 28 0 1 0 1
0 57 180 243 0 0 1 28 0 1 0 1
phys
0 -58 165 243 0 0 1 28 0 1 0 1
0 57 180 243 0 0 1 28 0 1 0 1
0 -58 180 243 0 0 1 28 0 1 0 1
phys
0 57 165 234 0 0 1 28 0 1 0 1
0 -58 165 234 0 0 1 28 0 1 0 1
0 -58 180 243 0 0 1 28 0 1 0 1
phys
0 57 165 234 0 0 1 28 0 1 0 1
0 -58 180 243 0 0 1 28 0 1 0 1
0 57 180 243 0 0 1 28 0 1 0 1
phys
0 -58 150 234 0 0 1 29 0 1 0 1
0 57 150 234 0 0 1 29 0 1 0 1
0 57 165 234 0 0 1 29 0 1 0 1
phys
0 -58 150 234 0 0 1 29 0 1 0 1
0 57 165 234 0 0 1 29 0 1 0 1
0 -58 165 234 0 0 1 29 0 1 0 1
phys
0 57 150 225 0 0 1 29 0 1 0 1
0 -58 150 225 0 0 1 29 0 1 0 1
0 -58 165 234 0 0 1 29 0 1 0 1
phys
0 57 150 225 0 0 1 29 0 1 0 1
0 -58 165 234 0 0 1 29 0 1 0 1
0 57 165 234 0 0 1 29 0 1 0 1
phys
0 57 150 234 0 0 1 29 0 1 0 1
0 -58 150 234 0 0 1 29 0 1 0 1
0 -58 150 225 0 0 1 29 0 1 0 1
phys
0 57 150 234 0 0 1 29 0 1 0 1
0 -58 150 225 0 0 1 29 0 1 0 1
0 57 150 225 0 0 1 29 0 1 0 1
phys
0 -58 150 234 0 0 1 29 0 1 0 1
0 -58 165 234 0 0 1 29 0 1 0 1
0 -58 150 225 0 0 1 29 0 1 0 1
phys
0 57 150 225 0 0 1 29 0 1 0 1
0 57 165 234 0 0 1 29 0 1 0 1
0 57 150 234 0 0 1 29 0 1 0 1
phys
0 57 15 144 0 0 1 30 0 1 0 1
0 57 15 153 0 0 1 30 0 1 0 1
0 -58 15 153 0 0 1 30 0 1 0 1
phys
0 57 15 144 0 0 1 30 0 1 0 1
0 -58 15 153 0 0 1 30 0 1 0 1
0 -58 15 144 0 0 1 30 0 1 0 1
phys
0 -58 15 144 0 0 1 30 0 1 0 1
0 -58 15 153 0 0 1 30 0 1 0 1
0 -58 30 153 0 0 1 30 0 1 0 1
phys
0 57 15 153 0 0 1 30 0 1 0 1
0 57 15 144 0 0 1 30 0 1 0 1
0 57 30 153 0 0 1 30 0 1 0 1
phys
0 -58 15 153 0 0 1 30 0 1 0 1
0 57 15 153 0 0 1 30 0 1 0 1
0 57 30 153 0 0 1 30 0 1 0 1
phys
0 -58 15 153 0 0 1 30 0 1 0 1
0 57 30 153 0 0 1 30 0 1 0 1
0 -58 30 153 0 0 1 30 0 1 0 1
phys
0 57 15 144 0 0 1 30 0 1 0 1
0 -58 15 144 0 0 1 30 0 1 0 1
0 -58 30 153 0 0 1 30 0 1 0 1
phys
0 57 15 144 0 0 1 30 0 1 0 1
0 -58 30 153 0 0 1 30 0 1 0 1
0 57 30 153 0 0 1 30 0 1 0 1
end
