version 1
nodes
0 "root" -1
end
skeleton
time 0
0 0 0 0 0 0 0
end
triangles
pepsi2_arch_stairs01
0 57 -120 63 0 -1 0 -171.699219 -26 1 0 1
0 57 -120 72 0 -1 0 -171.699219 -25.71875 1 0 1
0 -58 -120 72 0 -1 0 -173.496094 -25.71875 1 0 1
pepsi2_arch_stairs01
0 57 -120 63 0 -1 0 -171.699219 -26 1 0 1
0 -58 -120 72 0 -1 0 -173.496094 -25.71875 1 0 1
0 -58 -120 63 0 -1 0 -173.496094 -26 1 0 1
pepsi2_arch_stairs01
0 -58 -120 72 0 0 1 -173.496094 101.28125 1 0 1
0 57 -120 72 0 0 1 -171.699219 101.28125 1 0 1
0 57 -105 72 0 0 1 -171.699219 101.75 1 0 1
pepsi2_arch_stairs01
0 -58 -120 72 0 0 1 -173.496094 101.28125 1 0 1
0 57 -105 72 0 0 1 -171.699219 101.75 1 0 1
0 -58 -105 72 0 0 1 -173.496094 101.75 1 0 1
pepsi2_arch_stairs01
0 57 -135 54 0 -1 0 -171.699219 -26 1 0 1
0 57 -135 63 0 -1 0 -171.699219 -25.71875 1 0 1
0 -58 -135 63 0 -1 0 -173.496094 -25.71875 1 0 1
pepsi2_arch_stairs01
0 57 -135 54 0 -1 0 -171.699219 -26 1 0 1
0 -58 -135 63 0 -1 0 -173.496094 -25.71875 1 0 1
0 -58 -135 54 0 -1 0 -173.496094 -26 1 0 1
pepsi2_arch_stairs01
0 -58 -135 63 0 0 1 -173.496094 101.28125 1 0 1
0 57 -135 63 0 0 1 -171.699219 101.28125 1 0 1
0 57 -120 63 0 0 1 -171.699219 101.75 1 0 1
pepsi2_arch_stairs01
0 -58 -135 63 0 0 1 -173.496094 101.28125 1 0 1
0 57 -120 63 0 0 1 -171.699219 101.75 1 0 1
0 -58 -120 63 0 0 1 -173.496094 101.75 1 0 1
pepsi2_arch_stairs01
0 -58 -195 27 0 0 1 -173.496094 99.28125 1 0 1
0 57 -195 27 0 0 1 -171.699219 99.28125 1 0 1
0 57 -180 27 0 0 1 -171.699219 99.75 1 0 1
pepsi2_arch_stairs01
0 -58 -195 27 0 0 1 -173.496094 99.28125 1 0 1
0 57 -180 27 0 0 1 -171.699219 99.75 1 0 1
0 -58 -180 27 0 0 1 -173.496094 99.75 1 0 1
pepsi2_arch_stairs01
0 57 -195 18 0 -1 0 -171.699219 -28 1 0 1
0 57 -195 27 0 -1 0 -171.699219 -27.71875 1 0 1
0 -58 -195 27 0 -1 0 -173.496094 -27.71875 1 0 1
pepsi2_arch_stairs01
0 57 -195 18 0 -1 0 -171.699219 -28 1 0 1
0 -58 -195 27 0 -1 0 -173.496094 -27.71875 1 0 1
0 -58 -195 18 0 -1 0 -173.496094 -28 1 0 1
pepsi2_arch_stairs01
0 -58 30 162 0 0 1 -173.496094 106.28125 1 0 1
0 57 30 162 0 0 1 -171.699219 106.28125 1 0 1
0 57 45 162 0 0 1 -171.699219 106.75 1 0 1
pepsi2_arch_stairs01
0 -58 30 162 0 0 1 -173.496094 106.28125 1 0 1
0 57 45 162 0 0 1 -171.699219 106.75 1 0 1
0 -58 45 162 0 0 1 -173.496094 106.75 1 0 1
pepsi2_arch_stairs01
0 57 30 153 0 -1 0 -171.699219 -23 1 0 1
0 57 30 162 0 -1 0 -171.699219 -22.71875 1 0 1
0 -58 30 162 0 -1 0 -173.496094 -22.71875 1 0 1
pepsi2_arch_stairs01
0 57 30 153 0 -1 0 -171.699219 -23 1 0 1
0 -58 30 162 0 -1 0 -173.496094 -22.71875 1 0 1
0 -58 30 153 0 -1 0 -173.496094 -23 1 0 1
pepsi2_arch_stairs01
0 57 195 252 0 -1 0 -171.699219 -20 1 0 1
0 57 195 261 0 -1 0 -171.699219 -19.71875 1 0 1
0 -58 195 261 0 -1 0 -173.496094 -19.71875 1 0 1
pepsi2_arch_stairs01
0 57 195 252 0 -1 0 -171.699219 -20 1 0 1
0 -58 195 261 0 -1 0 -173.496094 -19.71875 1 0 1
0 -58 195 252 0 -1 0 -173.496094 -20 1 0 1
pepsi2_arch_stairs01
0 -58 195 261 0 0 1 -173.496094 111.28125 1 0 1
0 57 195 261 0 0 1 -171.699219 111.28125 1 0 1
0 57 210 261 0 0 1 -171.699219 111.75 1 0 1
pepsi2_arch_stairs01
0 -58 195 261 0 0 1 -173.496094 111.28125 1 0 1
0 57 210 261 0 0 1 -171.699219 111.75 1 0 1
0 -58 210 261 0 0 1 -173.496094 111.75 1 0 1
pepsi2_arch_stairs01
0 -58 60 180 0 0 1 -173.496094 107.28125 1 0 1
0 57 60 180 0 0 1 -171.699219 107.28125 1 0 1
0 57 75 180 0 0 1 -171.699219 107.75 1 0 1
pepsi2_arch_stairs01
0 -58 60 180 0 0 1 -173.496094 107.28125 1 0 1
0 57 75 180 0 0 1 -171.699219 107.75 1 0 1
0 -58 75 180 0 0 1 -173.496094 107.75 1 0 1
pepsi2_arch_stairs01
0 57 60 171 0 -1 0 -171.699219 -23 1 0 1
0 57 60 180 0 -1 0 -171.699219 -22.71875 1 0 1
0 -58 60 180 0 -1 0 -173.496094 -22.71875 1 0 1
pepsi2_arch_stairs01
0 57 60 171 0 -1 0 -171.699219 -23 1 0 1
0 -58 60 180 0 -1 0 -173.496094 -22.71875 1 0 1
0 -58 60 171 0 -1 0 -173.496094 -23 1 0 1
pepsi2_arch_stairs01
0 57 -60 99 0 -1 0 -171.699219 -25 1 0 1
0 57 -60 108 0 -1 0 -171.699219 -24.71875 1 0 1
0 -58 -60 108 0 -1 0 -173.496094 -24.71875 1 0 1
pepsi2_arch_stairs01
0 57 -60 99 0 -1 0 -171.699219 -25 1 0 1
0 -58 -60 108 0 -1 0 -173.496094 -24.71875 1 0 1
0 -58 -60 99 0 -1 0 -173.496094 -25 1 0 1
pepsi2_arch_stairs01
0 -58 -60 108 0 0 1 -173.496094 103.28125 1 0 1
0 57 -60 108 0 0 1 -171.699219 103.28125 1 0 1
0 57 -45 108 0 0 1 -171.699219 103.75 1 0 1
pepsi2_arch_stairs01
0 -58 -60 108 0 0 1 -173.496094 103.28125 1 0 1
0 57 -45 108 0 0 1 -171.699219 103.75 1 0 1
0 -58 -45 108 0 0 1 -173.496094 103.75 1 0 1
pepsi2_arch_stairs01
0 57 -150 45 0 -1 0 -171.699219 -27 1 0 1
0 57 -150 54 0 -1 0 -171.699219 -26.71875 1 0 1
0 -58 -150 54 0 -1 0 -173.496094 -26.71875 1 0 1
pepsi2_arch_stairs01
0 57 -150 45 0 -1 0 -171.699219 -27 1 0 1
0 -58 -150 54 0 -1 0 -173.496094 -26.71875 1 0 1
0 -58 -150 45 0 -1 0 -173.496094 -27 1 0 1
pepsi2_arch_stairs01
0 -58 -150 54 0 0 1 -173.496094 100.28125 1 0 1
0 57 -150 54 0 0 1 -171.699219 100.28125 1 0 1
0 57 -135 54 0 0 1 -171.699219 100.75 1 0 1
pepsi2_arch_stairs01
0 -58 -150 54 0 0 1 -173.496094 100.28125 1 0 1
0 57 -135 54 0 0 1 -171.699219 100.75 1 0 1
0 -58 -135 54 0 0 1 -173.496094 100.75 1 0 1
pepsi2_arch_stairs01
0 -58 75 189 0 0 1 -173.496094 107.28125 1 0 1
0 57 75 189 0 0 1 -171.699219 107.28125 1 0 1
0 57 90 189 0 0 1 -171.699219 107.75 1 0 1
pepsi2_arch_stairs01
0 -58 75 189 0 0 1 -173.496094 107.28125 1 0 1
0 57 90 189 0 0 1 -171.699219 107.75 1 0 1
0 -58 90 189 0 0 1 -173.496094 107.75 1 0 1
pepsi2_arch_stairs01
0 57 75 189 0 -1 0 -171.699219 -21.71875 1 0 1
0 -58 75 189 0 -1 0 -173.496094 -21.71875 1 0 1
0 -58 75 180 0 -1 0 -173.496094 -22 1 0 1
pepsi2_arch_stairs01
0 57 75 189 0 -1 0 -171.699219 -21.71875 1 0 1
0 -58 75 180 0 -1 0 -173.496094 -22 1 0 1
0 57 75 180 0 -1 0 -171.699219 -22 1 0 1
pepsi2_arch_stairs01
0 57 -180 27 0 -1 0 -171.699219 -27 1 0 1
0 57 -180 36 0 -1 0 -171.699219 -26.71875 1 0 1
0 -58 -180 36 0 -1 0 -173.496094 -26.71875 1 0 1
pepsi2_arch_stairs01
0 57 -180 27 0 -1 0 -171.699219 -27 1 0 1
0 -58 -180 36 0 -1 0 -173.496094 -26.71875 1 0 1
0 -58 -180 27 0 -1 0 -173.496094 -27 1 0 1
pepsi2_arch_stairs01
0 -58 -180 36 0 0 1 -173.496094 99.28125 1 0 1
0 57 -180 36 0 0 1 -171.699219 99.28125 1 0 1
0 57 -165 36 0 0 1 -171.699219 99.75 1 0 1
pepsi2_arch_stairs01
0 -58 -180 36 0 0 1 -173.496094 99.28125 1 0 1
0 57 -165 36 0 0 1 -171.699219 99.75 1 0 1
0 -58 -165 36 0 0 1 -173.496094 99.75 1 0 1
pepsi2_arch_stairs01
0 57 210 261 0 -1 0 -171.699219 -20 1 0 1
0 57 210 270 0 -1 0 -171.699219 -19.71875 1 0 1
0 -58 210 270 0 -1 0 -173.496094 -19.71875 1 0 1
pepsi2_arch_stairs01
0 57 210 261 0 -1 0 -171.699219 -20 1 0 1
0 -58 210 270 0 -1 0 -173.496094 -19.71875 1 0 1
0 -58 210 261 0 -1 0 -173.496094 -20 1 0 1
pepsi2_arch_stairs01
0 -58 210 270 0 0 1 -173.496094 111.28125 1 0 1
0 57 210 270 0 0 1 -171.699219 111.28125 1 0 1
0 57 225 270 0 0 1 -171.699219 111.75 1 0 1
pepsi2_arch_stairs01
0 -58 210 270 0 0 1 -173.496094 111.28125 1 0 1
0 57 225 270 0 0 1 -171.699219 111.75 1 0 1
0 -58 225 270 0 0 1 -173.496094 111.75 1 0 1
pepsi2_arch_stairs01
0 57 -45 108 0 -1 0 -171.699219 -25 1 0 1
0 57 -45 117 0 -1 0 -171.699219 -24.71875 1 0 1
0 -58 -45 117 0 -1 0 -173.496094 -24.71875 1 0 1
pepsi2_arch_stairs01
0 57 -45 108 0 -1 0 -171.699219 -25 1 0 1
0 -58 -45 117 0 -1 0 -173.496094 -24.71875 1 0 1
0 -58 -45 108 0 -1 0 -173.496094 -25 1 0 1
pepsi2_arch_stairs01
0 -58 -45 117 0 0 1 -173.496094 103.28125 1 0 1
0 57 -45 117 0 0 1 -171.699219 103.28125 1 0 1
0 57 -30 117 0 0 1 -171.699219 103.75 1 0 1
pepsi2_arch_stairs01
0 -58 -45 117 0 0 1 -173.496094 103.28125 1 0 1
0 57 -30 117 0 0 1 -171.699219 103.75 1 0 1
0 -58 -30 117 0 0 1 -173.496094 103.75 1 0 1
pepsi2_arch_stairs01
0 57 90 189 0 -1 0 -171.699219 -22 1 0 1
0 57 90 198 0 -1 0 -171.699219 -21.71875 1 0 1
0 -58 90 198 0 -1 0 -173.496094 -21.71875 1 0 1
pepsi2_arch_stairs01
0 57 90 189 0 -1 0 -171.699219 -22 1 0 1
0 -58 90 198 0 -1 0 -173.496094 -21.71875 1 0 1
0 -58 90 189 0 -1 0 -173.496094 -22 1 0 1
pepsi2_arch_stairs01
0 -58 90 198 0 0 1 -173.496094 108.28125 1 0 1
0 57 90 198 0 0 1 -171.699219 108.28125 1 0 1
0 57 105 198 0 0 1 -171.699219 108.75 1 0 1
pepsi2_arch_stairs01
0 -58 90 198 0 0 1 -173.496094 108.28125 1 0 1
0 57 105 198 0 0 1 -171.699219 108.75 1 0 1
0 -58 105 198 0 0 1 -173.496094 108.75 1 0 1
pepsi2_arch_stairs01
0 57 105 198 0 -1 0 -171.699219 -22 1 0 1
0 57 105 207 0 -1 0 -171.699219 -21.71875 1 0 1
0 -58 105 207 0 -1 0 -173.496094 -21.71875 1 0 1
pepsi2_arch_stairs01
0 57 105 198 0 -1 0 -171.699219 -22 1 0 1
0 -58 105 207 0 -1 0 -173.496094 -21.71875 1 0 1
0 -58 105 198 0 -1 0 -173.496094 -22 1 0 1
pepsi2_arch_stairs01
0 -58 105 207 0 0 1 -173.496094 108.28125 1 0 1
0 57 105 207 0 0 1 -171.699219 108.28125 1 0 1
0 57 120 207 0 0 1 -171.699219 108.75 1 0 1
pepsi2_arch_stairs01
0 -58 105 207 0 0 1 -173.496094 108.28125 1 0 1
0 57 120 207 0 0 1 -171.699219 108.75 1 0 1
0 -58 120 207 0 0 1 -173.496094 108.75 1 0 1
pepsi2_arch_stairs01
0 -58 -105 81 0 -1 0 -173.496094 -25.71875 1 0 1
0 -58 -105 72 0 -1 0 -173.496094 -26 1 0 1
0 57 -105 72 0 -1 0 -171.699219 -26 1 0 1
pepsi2_arch_stairs01
0 -58 -105 81 0 -1 0 -173.496094 -25.71875 1 0 1
0 57 -105 72 0 -1 0 -171.699219 -26 1 0 1
0 57 -105 81 0 -1 0 -171.699219 -25.71875 1 0 1
pepsi2_arch_stairs01
0 -58 -105 81 0 0 1 -173.496094 102.28125 1 0 1
0 57 -105 81 0 0 1 -171.699219 102.28125 1 0 1
0 57 -90 81 0 0 1 -171.699219 102.75 1 0 1
pepsi2_arch_stairs01
0 -58 -105 81 0 0 1 -173.496094 102.28125 1 0 1
0 57 -90 81 0 0 1 -171.699219 102.75 1 0 1
0 -58 -90 81 0 0 1 -173.496094 102.75 1 0 1
pepsi2_arch_stairs01
0 57 -30 117 0 -1 0 -171.699219 -24 1 0 1
0 57 -30 126 0 -1 0 -171.699219 -23.71875 1 0 1
0 -58 -30 126 0 -1 0 -173.496094 -23.71875 1 0 1
pepsi2_arch_stairs01
0 57 -30 117 0 -1 0 -171.699219 -24 1 0 1
0 -58 -30 126 0 -1 0 -173.496094 -23.71875 1 0 1
0 -58 -30 117 0 -1 0 -173.496094 -24 1 0 1
pepsi2_arch_stairs01
0 -58 -30 126 0 0 1 -173.496094 104.28125 1 0 1
0 57 -30 126 0 0 1 -171.699219 104.28125 1 0 1
0 57 -15 126 0 0 1 -171.699219 104.75 1 0 1
pepsi2_arch_stairs01
0 -58 -30 126 0 0 1 -173.496094 104.28125 1 0 1
0 57 -15 126 0 0 1 -171.699219 104.75 1 0 1
0 -58 -15 126 0 0 1 -173.496094 104.75 1 0 1
pepsi2_arch_stairs01
0 57 45 162 0 -1 0 -171.699219 -23 1 0 1
0 57 45 171 0 -1 0 -171.699219 -22.71875 1 0 1
0 -58 45 171 0 -1 0 -173.496094 -22.71875 1 0 1
pepsi2_arch_stairs01
0 57 45 162 0 -1 0 -171.699219 -23 1 0 1
0 -58 45 171 0 -1 0 -173.496094 -22.71875 1 0 1
0 -58 45 162 0 -1 0 -173.496094 -23 1 0 1
pepsi2_arch_stairs01
0 -58 45 171 0 0 1 -173.496094 106.28125 1 0 1
0 57 45 171 0 0 1 -171.699219 106.28125 1 0 1
0 57 60 171 0 0 1 -171.699219 106.75 1 0 1
pepsi2_arch_stairs01
0 -58 45 171 0 0 1 -173.496094 106.28125 1 0 1
0 57 60 171 0 0 1 -171.699219 106.75 1 0 1
0 -58 60 171 0 0 1 -173.496094 106.75 1 0 1
pepsi2_arch_stairs01
0 57 0 144 0 0 1 -171.699219 105.28125 1 0 1
0 57 15 144 0 0 1 -171.699219 105.75 1 0 1
0 -58 15 144 0 0 1 -173.496094 105.75 1 0 1
pepsi2_arch_stairs01
0 57 0 144 0 0 1 -171.699219 105.28125 1 0 1
0 -58 15 144 0 0 1 -173.496094 105.75 1 0 1
0 -58 0 144 0 0 1 -173.496094 105.28125 1 0 1
pepsi2_arch_stairs01
0 57 0 135 0 -1 0 -171.699219 -24 1 0 1
0 57 0 144 0 -1 0 -171.699219 -23.71875 1 0 1
0 -58 0 144 0 -1 0 -173.496094 -23.71875 1 0 1
pepsi2_arch_stairs01
0 57 0 135 0 -1 0 -171.699219 -24 1 0 1
0 -58 0 144 0 -1 0 -173.496094 -23.71875 1 0 1
0 -58 0 135 0 -1 0 -173.496094 -24 1 0 1
pepsi2_arch_stairs01
0 57 -75 90 0 -1 0 -171.699219 -25 1 0 1
0 57 -75 99 0 -1 0 -171.699219 -24.71875 1 0 1
0 -58 -75 99 0 -1 0 -173.496094 -24.71875 1 0 1
pepsi2_arch_stairs01
0 57 -75 90 0 -1 0 -171.699219 -25 1 0 1
0 -58 -75 99 0 -1 0 -173.496094 -24.71875 1 0 1
0 -58 -75 90 0 -1 0 -173.496094 -25 1 0 1
pepsi2_arch_stairs01
0 -58 -75 99 0 0 1 -173.496094 103.28125 1 0 1
0 57 -75 99 0 0 1 -171.699219 103.28125 1 0 1
0 57 -60 99 0 0 1 -171.699219 103.75 1 0 1
pepsi2_arch_stairs01
0 -58 -75 99 0 0 1 -173.496094 103.28125 1 0 1
0 57 -60 99 0 0 1 -171.699219 103.75 1 0 1
0 -58 -60 99 0 0 1 -173.496094 103.75 1 0 1
pepsi2_arch_stairs01
0 57 135 216 0 -1 0 -171.699219 -21 1 0 1
0 57 135 225 0 -1 0 -171.699219 -20.71875 1 0 1
0 -58 135 225 0 -1 0 -173.496094 -20.71875 1 0 1
pepsi2_arch_stairs01
0 57 135 216 0 -1 0 -171.699219 -21 1 0 1
0 -58 135 225 0 -1 0 -173.496094 -20.71875 1 0 1
0 -58 135 216 0 -1 0 -173.496094 -21 1 0 1
pepsi2_arch_stairs01
0 -58 135 225 0 0 1 -173.496094 109.28125 1 0 1
0 57 135 225 0 0 1 -171.699219 109.28125 1 0 1
0 57 150 225 0 0 1 -171.699219 109.75 1 0 1
pepsi2_arch_stairs01
0 -58 135 225 0 0 1 -173.496094 109.28125 1 0 1
0 57 150 225 0 0 1 -171.699219 109.75 1 0 1
0 -58 150 225 0 0 1 -173.496094 109.75 1 0 1
pepsi2_arch_stairs01
0 57 -90 81 0 -1 0 -171.699219 -26 1 0 1
0 57 -90 90 0 -1 0 -171.699219 -25.71875 1 0 1
0 -58 -90 90 0 -1 0 -173.496094 -25.71875 1 0 1
pepsi2_arch_stairs01
0 57 -90 81 0 -1 0 -171.699219 -26 1 0 1
0 -58 -90 90 0 -1 0 -173.496094 -25.71875 1 0 1
0 -58 -90 81 0 -1 0 -173.496094 -26 1 0 1
pepsi2_arch_stairs01
0 -58 -90 90 0 0 1 -173.496094 102.28125 1 0 1
0 57 -90 90 0 0 1 -171.699219 102.28125 1 0 1
0 57 -75 90 0 0 1 -171.699219 102.75 1 0 1
pepsi2_arch_stairs01
0 -58 -90 90 0 0 1 -173.496094 102.28125 1 0 1
0 57 -75 90 0 0 1 -171.699219 102.75 1 0 1
0 -58 -75 90 0 0 1 -173.496094 102.75 1 0 1
pepsi2_arch_stairs01
0 -58 120 216 0 0 1 -173.496094 109.28125 1 0 1
0 57 120 216 0 0 1 -171.699219 109.28125 1 0 1
0 57 135 216 0 0 1 -171.699219 109.75 1 0 1
pepsi2_arch_stairs01
0 -58 120 216 0 0 1 -173.496094 109.28125 1 0 1
0 57 135 216 0 0 1 -171.699219 109.75 1 0 1
0 -58 135 216 0 0 1 -173.496094 109.75 1 0 1
pepsi2_arch_stairs01
0 57 120 207 0 -1 0 -171.699219 -22 1 0 1
0 57 120 216 0 -1 0 -171.699219 -21.71875 1 0 1
0 -58 120 216 0 -1 0 -173.496094 -21.71875 1 0 1
pepsi2_arch_stairs01
0 57 120 207 0 -1 0 -171.699219 -22 1 0 1
0 -58 120 216 0 -1 0 -173.496094 -21.71875 1 0 1
0 -58 120 207 0 -1 0 -173.496094 -22 1 0 1
pepsi2_arch_stairs01
0 -58 180 252 0 -1 0 -173.496094 -19.71875 1 0 1
0 -58 180 243 0 -1 0 -173.496094 -20 1 0 1
0 57 180 243 0 -1 0 -171.699219 -20 1 0 1
pepsi2_arch_stairs01
0 -58 180 252 0 -1 0 -173.496094 -19.71875 1 0 1
0 57 180 243 0 -1 0 -171.699219 -20 1 0 1
0 57 180 252 0 -1 0 -171.699219 -19.71875 1 0 1
pepsi2_arch_stairs01
0 -58 180 252 0 0 1 -173.496094 111.28125 1 0 1
0 57 180 252 0 0 1 -171.699219 111.28125 1 0 1
0 57 195 252 0 0 1 -171.699219 111.75 1 0 1
pepsi2_arch_stairs01
0 -58 180 252 0 0 1 -173.496094 111.28125 1 0 1
0 57 195 252 0 0 1 -171.699219 111.75 1 0 1
0 -58 195 252 0 0 1 -173.496094 111.75 1 0 1
pepsi2_arch_stairs01
0 57 -15 126 0 -1 0 -171.699219 -24 1 0 1
0 57 -15 135 0 -1 0 -171.699219 -23.71875 1 0 1
0 -58 -15 135 0 -1 0 -173.496094 -23.71875 1 0 1
pepsi2_arch_stairs01
0 57 -15 126 0 -1 0 -171.699219 -24 1 0 1
0 -58 -15 135 0 -1 0 -173.496094 -23.71875 1 0 1
0 -58 -15 126 0 -1 0 -173.496094 -24 1 0 1
pepsi2_arch_stairs01
0 -58 -15 135 0 0 1 -173.496094 104.28125 1 0 1
0 57 -15 135 0 0 1 -171.699219 104.28125 1 0 1
0 57 0 135 0 0 1 -171.699219 104.75 1 0 1
pepsi2_arch_stairs01
0 -58 -15 135 0 0 1 -173.496094 104.28125 1 0 1
0 57 0 135 0 0 1 -171.699219 104.75 1 0 1
0 -58 0 135 0 0 1 -173.496094 104.75 1 0 1
pepsi2_arch_stairs01
0 -58 -165 45 0 0 1 -173.496094 100.28125 1 0 1
0 57 -165 45 0 0 1 -171.699219 100.28125 1 0 1
0 57 -150 45 0 0 1 -171.699219 100.75 1 0 1
pepsi2_arch_stairs01
0 -58 -165 45 0 0 1 -173.496094 100.28125 1 0 1
0 57 -150 45 0 0 1 -171.699219 100.75 1 0 1
0 -58 -150 45 0 0 1 -173.496094 100.75 1 0 1
pepsi2_arch_stairs01
0 57 -165 45 0 -1 0 -171.699219 -26.71875 1 0 1
0 -58 -165 45 0 -1 0 -173.496094 -26.71875 1 0 1
0 -58 -165 36 0 -1 0 -173.496094 -27 1 0 1
pepsi2_arch_stairs01
0 57 -165 45 0 -1 0 -171.699219 -26.71875 1 0 1
0 -58 -165 36 0 -1 0 -173.496094 -27 1 0 1
0 57 -165 36 0 -1 0 -171.699219 -27 1 0 1
pepsi2_arch_stairs01
0 57 -210 9 0 -1 0 -171.699219 -28 1 0 1
0 57 -210 18 0 -1 0 -171.699219 -27.71875 1 0 1
0 -58 -210 18 0 -1 0 -173.496094 -27.71875 1 0 1
pepsi2_arch_stairs01
0 57 -210 9 0 -1 0 -171.699219 -28 1 0 1
0 -58 -210 18 0 -1 0 -173.496094 -27.71875 1 0 1
0 -58 -210 9 0 -1 0 -173.496094 -28 1 0 1
pepsi2_arch_stairs01
0 -58 -210 18 0 0 1 -173.496094 98.28125 1 0 1
0 57 -210 18 0 0 1 -171.699219 98.28125 1 0 1
0 57 -195 18 0 0 1 -171.699219 98.75 1 0 1
pepsi2_arch_stairs01
0 -58 -210 18 0 0 1 -173.496094 98.28125 1 0 1
0 57 -195 18 0 0 1 -171.699219 98.75 1 0 1
0 -58 -195 18 0 0 1 -173.496094 98.75 1 0 1
pepsi2_arch_stairs01
0 -58 -225 9 0 0 1 -173.496094 98.28125 1 0 1
0 57 -225 9 0 0 1 -171.699219 98.28125 1 0 1
0 57 -210 9 0 0 1 -171.699219 98.75 1 0 1
pepsi2_arch_stairs01
0 -58 -225 9 0 0 1 -173.496094 98.28125 1 0 1
0 57 -210 9 0 0 1 -171.699219 98.75 1 0 1
0 -58 -210 9 0 0 1 -173.496094 98.75 1 0 1
pepsi2_arch_stairs01
0 57 -225 0 0 -1 0 -171.699219 -28 1 0 1
0 57 -225 9 0 -1 0 -171.699219 -27.71875 1 0 1
0 -58 -225 9 0 -1 0 -173.496094 -27.71875 1 0 1
pepsi2_arch_stairs01
0 57 -225 0 0 -1 0 -171.699219 -28 1 0 1
0 -58 -225 9 0 -1 0 -173.496094 -27.71875 1 0 1
0 -58 -225 0 0 -1 0 -173.496094 -28 1 0 1
pepsi2_arch_stairs01
0 57 165 234 0 -1 0 -171.699219 -21 1 0 1
0 57 165 243 0 -1 0 -171.699219 -20.71875 1 0 1
0 -58 165 243 0 -1 0 -173.496094 -20.71875 1 0 1
pepsi2_arch_stairs01
0 57 165 234 0 -1 0 -171.699219 -21 1 0 1
0 -58 165 243 0 -1 0 -173.496094 -20.71875 1 0 1
0 -58 165 234 0 -1 0 -173.496094 -21 1 0 1
pepsi2_arch_stairs01
0 -58 165 243 0 0 1 -173.496094 110.28125 1 0 1
0 57 165 243 0 0 1 -171.699219 110.28125 1 0 1
0 57 180 243 0 0 1 -171.699219 110.75 1 0 1
pepsi2_arch_stairs01
0 -58 165 243 0 0 1 -173.496094 110.28125 1 0 1
0 57 180 243 0 0 1 -171.699219 110.75 1 0 1
0 -58 180 243 0 0 1 -173.496094 110.75 1 0 1
pepsi2_arch_stairs01
0 -58 150 234 0 0 1 -173.496094 110.28125 1 0 1
0 57 150 234 0 0 1 -171.699219 110.28125 1 0 1
0 57 165 234 0 0 1 -171.699219 110.75 1 0 1
pepsi2_arch_stairs01
0 -58 150 234 0 0 1 -173.496094 110.28125 1 0 1
0 57 165 234 0 0 1 -171.699219 110.75 1 0 1
0 -58 165 234 0 0 1 -173.496094 110.75 1 0 1
pepsi2_arch_stairs01
0 57 150 234 0 -1 0 -171.699219 -20.71875 1 0 1
0 -58 150 234 0 -1 0 -173.496094 -20.71875 1 0 1
0 -58 150 225 0 -1 0 -173.496094 -21 1 0 1
pepsi2_arch_stairs01
0 57 150 234 0 -1 0 -171.699219 -20.71875 1 0 1
0 -58 150 225 0 -1 0 -173.496094 -21 1 0 1
0 57 150 225 0 -1 0 -171.699219 -21 1 0 1
pepsi2_arch_stairs01
0 57 15 144 0 -1 0 -171.699219 -24 1 0 1
0 57 15 153 0 -1 0 -171.699219 -23.71875 1 0 1
0 -58 15 153 0 -1 0 -173.496094 -23.71875 1 0 1
pepsi2_arch_stairs01
0 57 15 144 0 -1 0 -171.699219 -24 1 0 1
0 -58 15 153 0 -1 0 -173.496094 -23.71875 1 0 1
0 -58 15 144 0 -1 0 -173.496094 -24 1 0 1
pepsi2_arch_stairs01
0 -58 15 153 0 0 1 -173.496094 105.28125 1 0 1
0 57 15 153 0 0 1 -171.699219 105.28125 1 0 1
0 57 30 153 0 0 1 -171.699219 105.75 1 0 1
pepsi2_arch_stairs01
0 -58 15 153 0 0 1 -173.496094 105.28125 1 0 1
0 57 30 153 0 0 1 -171.699219 105.75 1 0 1
0 -58 30 153 0 0 1 -173.496094 105.75 1 0 1
end
