version 1
nodes
0 "root" -1
end
skeleton
time 0
0 0 0 0 0 0 0
end
triangles
phys
0 -68 56 10 0 0 1 1 0 1 0 1
0 -68 56 -10 0 0 1 1 0 1 0 1
0 -82 56 -10 0 0 1 1 0 1 0 1
phys
0 -68 56 10 0 0 1 1 0 1 0 1
0 -82 56 -10 0 0 1 1 0 1 0 1
0 -82 56 10 0 0 1 1 0 1 0 1
phys
0 -68 -56 -10 0 0 1 1 0 1 0 1
0 -68 -56 10 0 0 1 1 0 1 0 1
0 -82 -56 10 0 0 1 1 0 1 0 1
phys
0 -68 -56 -10 0 0 1 1 0 1 0 1
0 -82 -56 10 0 0 1 1 0 1 0 1
0 -82 -56 -10 0 0 1 1 0 1 0 1
phys
0 -82 -56 -10 0 0 1 1 0 1 0 1
0 -82 -56 10 0 0 1 1 0 1 0 1
0 -82 56 10 0 0 1 1 0 1 0 1
phys
0 -82 -56 -10 0 0 1 1 0 1 0 1
0 -82 56 10 0 0 1 1 0 1 0 1
0 -82 56 -10 0 0 1 1 0 1 0 1
phys
0 -68 -56 10 0 0 1 1 0 1 0 1
0 -68 -56 -10 0 0 1 1 0 1 0 1
0 -68 56 -10 0 0 1 1 0 1 0 1
phys
0 -68 -56 10 0 0 1 1 0 1 0 1
0 -68 56 -10 0 0 1 1 0 1 0 1
0 -68 56 10 0 0 1 1 0 1 0 1
phys
0 -68 -56 -10 0 0 1 1 0 1 0 1
0 -82 -56 -10 0 0 1 1 0 1 0 1
0 -82 56 -10 0 0 1 1 0 1 0 1
phys
0 -68 -56 -10 0 0 1 1 0 1 0 1
0 -82 56 -10 0 0 1 1 0 1 0 1
0 -68 56 -10 0 0 1 1 0 1 0 1
phys
0 -82 -56 10 0 0 1 1 0 1 0 1
0 -68 -56 10 0 0 1 1 0 1 0 1
0 -68 56 10 0 0 1 1 0 1 0 1
phys
0 -82 -56 10 0 0 1 1 0 1 0 1
0 -68 56 10 0 0 1 1 0 1 0 1
0 -82 56 10 0 0 1 1 0 1 0 1
phys
0 238 86 148 0 0 1 2 0 1 0 1
0 238 86 144 0 0 1 2 0 1 0 1
0 106 86 144 0 0 1 2 0 1 0 1
phys
0 238 86 148 0 0 1 2 0 1 0 1
0 106 86 144 0 0 1 2 0 1 0 1
0 106 86 148 0 0 1 2 0 1 0 1
phys
0 238 84 144 0 0 1 2 0 1 0 1
0 238 84 148 0 0 1 2 0 1 0 1
0 106 84 148 0 0 1 2 0 1 0 1
phys
0 238 84 144 0 0 1 2 0 1 0 1
0 106 84 148 0 0 1 2 0 1 0 1
0 106 84 144 0 0 1 2 0 1 0 1
phys
0 106 84 144 0 0 1 2 0 1 0 1
0 106 84 148 0 0 1 2 0 1 0 1
0 106 86 148 0 0 1 2 0 1 0 1
phys
0 106 84 144 0 0 1 2 0 1 0 1
0 106 86 148 0 0 1 2 0 1 0 1
0 106 86 144 0 0 1 2 0 1 0 1
phys
0 238 84 148 0 0 1 2 0 1 0 1
0 238 84 144 0 0 1 2 0 1 0 1
0 238 86 144 0 0 1 2 0 1 0 1
phys
0 238 84 148 0 0 1 2 0 1 0 1
0 238 86 144 0 0 1 2 0 1 0 1
0 238 86 148 0 0 1 2 0 1 0 1
phys
0 238 84 144 0 0 1 2 0 1 0 1
0 106 84 144 0 0 1 2 0 1 0 1
0 106 86 144 0 0 1 2 0 1 0 1
phys
0 238 84 144 0 0 1 2 0 1 0 1
0 106 86 144 0 0 1 2 0 1 0 1
0 238 86 144 0 0 1 2 0 1 0 1
phys
0 106 84 148 0 0 1 2 0 1 0 1
0 238 84 148 0 0 1 2 0 1 0 1
0 238 86 148 0 0 1 2 0 1 0 1
phys
0 106 84 148 0 0 1 2 0 1 0 1
0 238 86 148 0 0 1 2 0 1 0 1
0 106 86 148 0 0 1 2 0 1 0 1
phys
0 -68 -56 10 0 0 1 3 0 1 0 1
0 -68 -56 6 0 0 1 3 0 1 0 1
0 -82 -56 6 0 0 1 3 0 1 0 1
phys
0 -68 -56 10 0 0 1 3 0 1 0 1
0 -82 -56 6 0 0 1 3 0 1 0 1
0 -82 -56 10 0 0 1 3 0 1 0 1
phys
0 -68 -80 6 0 0 1 3 0 1 0 1
0 -68 -80 7 0 0 1 3 0 1 0 1
0 -82 -80 7 0 0 1 3 0 1 0 1
phys
0 -68 -80 6 0 0 1 3 0 1 0 1
0 -82 -80 7 0 0 1 3 0 1 0 1
0 -82 -80 6 0 0 1 3 0 1 0 1
phys
0 -82 -80 6 0 0 1 3 0 1 0 1
0 -82 -80 7 0 0 1 3 0 1 0 1
0 -82 -56 10 0 0 1 3 0 1 0 1
phys
0 -82 -80 6 0 0 1 3 0 1 0 1
0 -82 -56 10 0 0 1 3 0 1 0 1
0 -82 -56 6 0 0 1 3 0 1 0 1
phys
0 -68 -80 7 0 0 1 3 0 1 0 1
0 -68 -80 6 0 0 1 3 0 1 0 1
0 -68 -56 6 0 0 1 3 0 1 0 1
phys
0 -68 -80 7 0 0 1 3 0 1 0 1
0 -68 -56 6 0 0 1 3 0 1 0 1
0 -68 -56 10 0 0 1 3 0 1 0 1
phys
0 -68 -80 6 0 0 1 3 0 1 0 1
0 -82 -80 6 0 0 1 3 0 1 0 1
0 -82 -56 6 0 0 1 3 0 1 0 1
phys
0 -68 -80 6 0 0 1 3 0 1 0 1
0 -82 -56 6 0 0 1 3 0 1 0 1
0 -68 -56 6 0 0 1 3 0 1 0 1
phys
0 -82 -80 7 0 0 1 3 0 1 0 1
0 -68 -80 7 0 0 1 3 0 1 0 1
0 -68 -56 10 0 0 1 3 0 1 0 1
phys
0 -82 -80 7 0 0 1 3 0 1 0 1
0 -68 -56 10 0 0 1 3 0 1 0 1
0 -82 -56 10 0 0 1 3 0 1 0 1
phys
0 -68 292 6 0 0 1 4 0 1 0 1
0 -68 316 6 0 0 1 4 0 1 0 1
0 -68 316 10 0 0 1 4 0 1 0 1
phys
0 -68 292 6 0 0 1 4 0 1 0 1
0 -68 316 10 0 0 1 4 0 1 0 1
0 -68 292 7 0 0 1 4 0 1 0 1
phys
0 -82 316 6 0 0 1 4 0 1 0 1
0 -68 316 6 0 0 1 4 0 1 0 1
0 -68 292 6 0 0 1 4 0 1 0 1
phys
0 -82 316 6 0 0 1 4 0 1 0 1
0 -68 292 6 0 0 1 4 0 1 0 1
0 -82 292 6 0 0 1 4 0 1 0 1
phys
0 -82 292 7 0 0 1 4 0 1 0 1
0 -68 292 7 0 0 1 4 0 1 0 1
0 -68 316 10 0 0 1 4 0 1 0 1
phys
0 -82 292 7 0 0 1 4 0 1 0 1
0 -68 316 10 0 0 1 4 0 1 0 1
0 -82 316 10 0 0 1 4 0 1 0 1
phys
0 -68 316 10 0 0 1 4 0 1 0 1
0 -68 316 6 0 0 1 4 0 1 0 1
0 -82 316 6 0 0 1 4 0 1 0 1
phys
0 -68 316 10 0 0 1 4 0 1 0 1
0 -82 316 6 0 0 1 4 0 1 0 1
0 -82 316 10 0 0 1 4 0 1 0 1
phys
0 -68 292 6 0 0 1 4 0 1 0 1
0 -68 292 7 0 0 1 4 0 1 0 1
0 -82 292 7 0 0 1 4 0 1 0 1
phys
0 -68 292 6 0 0 1 4 0 1 0 1
0 -82 292 7 0 0 1 4 0 1 0 1
0 -82 292 6 0 0 1 4 0 1 0 1
phys
0 -82 316 6 0 0 1 4 0 1 0 1
0 -82 292 6 0 0 1 4 0 1 0 1
0 -82 292 7 0 0 1 4 0 1 0 1
phys
0 -82 316 6 0 0 1 4 0 1 0 1
0 -82 292 7 0 0 1 4 0 1 0 1
0 -82 316 10 0 0 1 4 0 1 0 1
phys
0 238 286 144 0 0 1 5 0 1 0 1
0 106 286 144 0 0 1 5 0 1 0 1
0 106 288 144 0 0 1 5 0 1 0 1
phys
0 238 286 144 0 0 1 5 0 1 0 1
0 106 288 144 0 0 1 5 0 1 0 1
0 238 288 144 0 0 1 5 0 1 0 1
phys
0 106 286 148 0 0 1 5 0 1 0 1
0 238 286 148 0 0 1 5 0 1 0 1
0 238 288 148 0 0 1 5 0 1 0 1
phys
0 106 286 148 0 0 1 5 0 1 0 1
0 238 288 148 0 0 1 5 0 1 0 1
0 106 288 148 0 0 1 5 0 1 0 1
phys
0 238 288 144 0 0 1 5 0 1 0 1
0 106 288 144 0 0 1 5 0 1 0 1
0 106 288 148 0 0 1 5 0 1 0 1
phys
0 238 288 144 0 0 1 5 0 1 0 1
0 106 288 148 0 0 1 5 0 1 0 1
0 238 288 148 0 0 1 5 0 1 0 1
phys
0 238 286 148 0 0 1 5 0 1 0 1
0 106 286 148 0 0 1 5 0 1 0 1
0 106 286 144 0 0 1 5 0 1 0 1
phys
0 238 286 148 0 0 1 5 0 1 0 1
0 106 286 144 0 0 1 5 0 1 0 1
0 238 286 144 0 0 1 5 0 1 0 1
phys
0 106 286 148 0 0 1 5 0 1 0 1
0 106 288 148 0 0 1 5 0 1 0 1
0 106 288 144 0 0 1 5 0 1 0 1
phys
0 106 286 148 0 0 1 5 0 1 0 1
0 106 288 144 0 0 1 5 0 1 0 1
0 106 286 144 0 0 1 5 0 1 0 1
phys
0 238 286 144 0 0 1 5 0 1 0 1
0 238 288 144 0 0 1 5 0 1 0 1
0 238 288 148 0 0 1 5 0 1 0 1
phys
0 238 286 144 0 0 1 5 0 1 0 1
0 238 288 148 0 0 1 5 0 1 0 1
0 238 286 148 0 0 1 5 0 1 0 1
phys
0 -68 -80 7 0 0 1 6 0 1 0 1
0 98 -80 7 0 0 1 6 0 1 0 1
0 98 -56 10 0 0 1 6 0 1 0 1
phys
0 -68 -80 7 0 0 1 6 0 1 0 1
0 98 -56 10 0 0 1 6 0 1 0 1
0 -68 -56 10 0 0 1 6 0 1 0 1
phys
0 -68 -56 6 0 0 1 6 0 1 0 1
0 -68 -56 10 0 0 1 6 0 1 0 1
0 98 -56 10 0 0 1 6 0 1 0 1
phys
0 -68 -56 6 0 0 1 6 0 1 0 1
0 98 -56 10 0 0 1 6 0 1 0 1
0 98 -56 6 0 0 1 6 0 1 0 1
phys
0 98 -80 6 0 0 1 6 0 1 0 1
0 98 -80 7 0 0 1 6 0 1 0 1
0 -68 -80 7 0 0 1 6 0 1 0 1
phys
0 98 -80 6 0 0 1 6 0 1 0 1
0 -68 -80 7 0 0 1 6 0 1 0 1
0 -68 -80 6 0 0 1 6 0 1 0 1
phys
0 -68 -80 6 0 0 1 6 0 1 0 1
0 -68 -80 7 0 0 1 6 0 1 0 1
0 -68 -56 10 0 0 1 6 0 1 0 1
phys
0 -68 -80 6 0 0 1 6 0 1 0 1
0 -68 -56 10 0 0 1 6 0 1 0 1
0 -68 -56 6 0 0 1 6 0 1 0 1
phys
0 98 -56 6 0 0 1 6 0 1 0 1
0 98 -56 10 0 0 1 6 0 1 0 1
0 98 -80 7 0 0 1 6 0 1 0 1
phys
0 98 -56 6 0 0 1 6 0 1 0 1
0 98 -80 7 0 0 1 6 0 1 0 1
0 98 -80 6 0 0 1 6 0 1 0 1
phys
0 98 -80 6 0 0 1 6 0 1 0 1
0 -68 -80 6 0 0 1 6 0 1 0 1
0 -68 -56 6 0 0 1 6 0 1 0 1
phys
0 98 -80 6 0 0 1 6 0 1 0 1
0 -68 -56 6 0 0 1 6 0 1 0 1
0 98 -56 6 0 0 1 6 0 1 0 1
phys
0 91 -292 167 0 0 1 7 0 1 0 1
0 91 -80 167 0 0 1 7 0 1 0 1
0 91 -80 162 0 0 1 7 0 1 0 1
phys
0 91 -292 167 0 0 1 7 0 1 0 1
0 91 -80 162 0 0 1 7 0 1 0 1
0 91 -292 162 0 0 1 7 0 1 0 1
phys
0 98 -292 162 0 0 1 7 0 1 0 1
0 98 -80 162 0 0 1 7 0 1 0 1
0 98 -80 167 0 0 1 7 0 1 0 1
phys
0 98 -292 162 0 0 1 7 0 1 0 1
0 98 -80 167 0 0 1 7 0 1 0 1
0 98 -292 167 0 0 1 7 0 1 0 1
phys
0 91 -292 162 0 0 1 7 0 1 0 1
0 91 -80 162 0 0 1 7 0 1 0 1
0 98 -80 162 0 0 1 7 0 1 0 1
phys
0 91 -292 162 0 0 1 7 0 1 0 1
0 98 -80 162 0 0 1 7 0 1 0 1
0 98 -292 162 0 0 1 7 0 1 0 1
phys
0 98 -292 167 0 0 1 7 0 1 0 1
0 98 -80 167 0 0 1 7 0 1 0 1
0 91 -80 167 0 0 1 7 0 1 0 1
phys
0 98 -292 167 0 0 1 7 0 1 0 1
0 91 -80 167 0 0 1 7 0 1 0 1
0 91 -292 167 0 0 1 7 0 1 0 1
phys
0 98 -80 167 0 0 1 7 0 1 0 1
0 98 -80 162 0 0 1 7 0 1 0 1
0 91 -80 162 0 0 1 7 0 1 0 1
phys
0 98 -80 167 0 0 1 7 0 1 0 1
0 91 -80 162 0 0 1 7 0 1 0 1
0 91 -80 167 0 0 1 7 0 1 0 1
phys
0 98 -292 162 0 0 1 7 0 1 0 1
0 98 -292 167 0 0 1 7 0 1 0 1
0 91 -292 167 0 0 1 7 0 1 0 1
phys
0 98 -292 162 0 0 1 7 0 1 0 1
0 91 -292 167 0 0 1 7 0 1 0 1
0 91 -292 162 0 0 1 7 0 1 0 1
phys
0 262 -149 282 0 0 1 8 0 1 0 1
0 262 -149 242 0 0 1 8 0 1 0 1
0 258 -149 242 0 0 1 8 0 1 0 1
phys
0 262 -149 282 0 0 1 8 0 1 0 1
0 258 -149 242 0 0 1 8 0 1 0 1
0 258 -149 282 0 0 1 8 0 1 0 1
phys
0 262 -156 242 0 0 1 8 0 1 0 1
0 262 -156 282 0 0 1 8 0 1 0 1
0 258 -156 282 0 0 1 8 0 1 0 1
phys
0 262 -156 242 0 0 1 8 0 1 0 1
0 258 -156 282 0 0 1 8 0 1 0 1
0 258 -156 242 0 0 1 8 0 1 0 1
phys
0 258 -156 242 0 0 1 8 0 1 0 1
0 258 -156 282 0 0 1 8 0 1 0 1
0 258 -149 282 0 0 1 8 0 1 0 1
phys
0 258 -156 242 0 0 1 8 0 1 0 1
0 258 -149 282 0 0 1 8 0 1 0 1
0 258 -149 242 0 0 1 8 0 1 0 1
phys
0 262 -156 282 0 0 1 8 0 1 0 1
0 262 -156 242 0 0 1 8 0 1 0 1
0 262 -149 242 0 0 1 8 0 1 0 1
phys
0 262 -156 282 0 0 1 8 0 1 0 1
0 262 -149 242 0 0 1 8 0 1 0 1
0 262 -149 282 0 0 1 8 0 1 0 1
phys
0 262 -156 242 0 0 1 8 0 1 0 1
0 258 -156 242 0 0 1 8 0 1 0 1
0 258 -149 242 0 0 1 8 0 1 0 1
phys
0 262 -156 242 0 0 1 8 0 1 0 1
0 258 -149 242 0 0 1 8 0 1 0 1
0 262 -149 242 0 0 1 8 0 1 0 1
phys
0 258 -156 282 0 0 1 8 0 1 0 1
0 262 -156 282 0 0 1 8 0 1 0 1
0 262 -149 282 0 0 1 8 0 1 0 1
phys
0 258 -156 282 0 0 1 8 0 1 0 1
0 262 -149 282 0 0 1 8 0 1 0 1
0 258 -149 282 0 0 1 8 0 1 0 1
phys
0 240 86 218 0 0 1 9 0 1 0 1
0 240 86 148 0 0 1 9 0 1 0 1
0 238 86 148 0 0 1 9 0 1 0 1
phys
0 240 86 218 0 0 1 9 0 1 0 1
0 238 86 148 0 0 1 9 0 1 0 1
0 238 86 218 0 0 1 9 0 1 0 1
phys
0 240 84 148 0 0 1 9 0 1 0 1
0 240 84 218 0 0 1 9 0 1 0 1
0 238 84 218 0 0 1 9 0 1 0 1
phys
0 240 84 148 0 0 1 9 0 1 0 1
0 238 84 218 0 0 1 9 0 1 0 1
0 238 84 148 0 0 1 9 0 1 0 1
phys
0 238 84 148 0 0 1 9 0 1 0 1
0 238 84 218 0 0 1 9 0 1 0 1
0 238 86 218 0 0 1 9 0 1 0 1
phys
0 238 84 148 0 0 1 9 0 1 0 1
0 238 86 218 0 0 1 9 0 1 0 1
0 238 86 148 0 0 1 9 0 1 0 1
phys
0 240 84 218 0 0 1 9 0 1 0 1
0 240 84 148 0 0 1 9 0 1 0 1
0 240 86 148 0 0 1 9 0 1 0 1
phys
0 240 84 218 0 0 1 9 0 1 0 1
0 240 86 148 0 0 1 9 0 1 0 1
0 240 86 218 0 0 1 9 0 1 0 1
phys
0 240 84 148 0 0 1 9 0 1 0 1
0 238 84 148 0 0 1 9 0 1 0 1
0 238 86 148 0 0 1 9 0 1 0 1
phys
0 240 84 148 0 0 1 9 0 1 0 1
0 238 86 148 0 0 1 9 0 1 0 1
0 240 86 148 0 0 1 9 0 1 0 1
phys
0 238 84 218 0 0 1 9 0 1 0 1
0 240 84 218 0 0 1 9 0 1 0 1
0 240 86 218 0 0 1 9 0 1 0 1
phys
0 238 84 218 0 0 1 9 0 1 0 1
0 240 86 218 0 0 1 9 0 1 0 1
0 238 86 218 0 0 1 9 0 1 0 1
phys
0 68 56 10 0 0 1 10 0 1 0 1
0 68 56 -9.986 0 0 1 10 0 1 0 1
0 -68 56 -9.986 0 0 1 10 0 1 0 1
phys
0 68 56 10 0 0 1 10 0 1 0 1
0 -68 56 -9.986 0 0 1 10 0 1 0 1
0 -68 56 10 0 0 1 10 0 1 0 1
phys
0 68 -56 -9.986 0 0 1 10 0 1 0 1
0 68 -56 10 0 0 1 10 0 1 0 1
0 -68 -56 10 0 0 1 10 0 1 0 1
phys
0 68 -56 -9.986 0 0 1 10 0 1 0 1
0 -68 -56 10 0 0 1 10 0 1 0 1
0 -68 -56 -9.986 0 0 1 10 0 1 0 1
phys
0 -68 -56 -9.986 0 0 1 10 0 1 0 1
0 -68 -56 10 0 0 1 10 0 1 0 1
0 -68 56 10 0 0 1 10 0 1 0 1
phys
0 -68 -56 -9.986 0 0 1 10 0 1 0 1
0 -68 56 10 0 0 1 10 0 1 0 1
0 -68 56 -9.986 0 0 1 10 0 1 0 1
phys
0 68 -56 10 0 0 1 10 0 1 0 1
0 68 -56 -9.986 0 0 1 10 0 1 0 1
0 68 56 -9.986 0 0 1 10 0 1 0 1
phys
0 68 -56 10 0 0 1 10 0 1 0 1
0 68 56 -9.986 0 0 1 10 0 1 0 1
0 68 56 10 0 0 1 10 0 1 0 1
phys
0 68 -56 -9.986 0 0 1 10 0 1 0 1
0 -68 -56 -9.986 0 0 1 10 0 1 0 1
0 -68 56 -9.986 0 0 1 10 0 1 0 1
phys
0 68 -56 -9.986 0 0 1 10 0 1 0 1
0 -68 56 -9.986 0 0 1 10 0 1 0 1
0 68 56 -9.986 0 0 1 10 0 1 0 1
phys
0 -68 -56 10 0 0 1 10 0 1 0 1
0 68 -56 10 0 0 1 10 0 1 0 1
0 68 56 10 0 0 1 10 0 1 0 1
phys
0 -68 -56 10 0 0 1 10 0 1 0 1
0 68 56 10 0 0 1 10 0 1 0 1
0 -68 56 10 0 0 1 10 0 1 0 1
phys
0 98 56 10 0 0 1 11 0 1 0 1
0 98 56 -9.986 0 0 1 11 0 1 0 1
0 68 56 -9.986 0 0 1 11 0 1 0 1
phys
0 98 56 10 0 0 1 11 0 1 0 1
0 68 56 -9.986 0 0 1 11 0 1 0 1
0 68 56 10 0 0 1 11 0 1 0 1
phys
0 98 -56 -9.986 0 0 1 11 0 1 0 1
0 98 -56 10 0 0 1 11 0 1 0 1
0 68 -56 10 0 0 1 11 0 1 0 1
phys
0 98 -56 -9.986 0 0 1 11 0 1 0 1
0 68 -56 10 0 0 1 11 0 1 0 1
0 68 -56 -9.986 0 0 1 11 0 1 0 1
phys
0 68 -56 -9.986 0 0 1 11 0 1 0 1
0 68 -56 10 0 0 1 11 0 1 0 1
0 68 56 10 0 0 1 11 0 1 0 1
phys
0 68 -56 -9.986 0 0 1 11 0 1 0 1
0 68 56 10 0 0 1 11 0 1 0 1
0 68 56 -9.986 0 0 1 11 0 1 0 1
phys
0 98 -56 10 0 0 1 11 0 1 0 1
0 98 -56 -9.986 0 0 1 11 0 1 0 1
0 98 56 -9.986 0 0 1 11 0 1 0 1
phys
0 98 -56 10 0 0 1 11 0 1 0 1
0 98 56 -9.986 0 0 1 11 0 1 0 1
0 98 56 10 0 0 1 11 0 1 0 1
phys
0 98 -56 -9.986 0 0 1 11 0 1 0 1
0 68 -56 -9.986 0 0 1 11 0 1 0 1
0 68 56 -9.986 0 0 1 11 0 1 0 1
phys
0 98 -56 -9.986 0 0 1 11 0 1 0 1
0 68 56 -9.986 0 0 1 11 0 1 0 1
0 98 56 -9.986 0 0 1 11 0 1 0 1
phys
0 68 -56 10 0 0 1 11 0 1 0 1
0 98 -56 10 0 0 1 11 0 1 0 1
0 98 56 10 0 0 1 11 0 1 0 1
phys
0 68 -56 10 0 0 1 11 0 1 0 1
0 98 56 10 0 0 1 11 0 1 0 1
0 68 56 10 0 0 1 11 0 1 0 1
phys
0 240 -84 148 0 0 1 12 0 1 0 1
0 240 -84 144 0 0 1 12 0 1 0 1
0 238 -84 144 0 0 1 12 0 1 0 1
phys
0 240 -84 148 0 0 1 12 0 1 0 1
0 238 -84 144 0 0 1 12 0 1 0 1
0 238 -84 148 0 0 1 12 0 1 0 1
phys
0 240 -288 144 0 0 1 12 0 1 0 1
0 240 -288 148 0 0 1 12 0 1 0 1
0 238 -288 148 0 0 1 12 0 1 0 1
phys
0 240 -288 144 0 0 1 12 0 1 0 1
0 238 -288 148 0 0 1 12 0 1 0 1
0 238 -288 144 0 0 1 12 0 1 0 1
phys
0 238 -288 144 0 0 1 12 0 1 0 1
0 238 -288 148 0 0 1 12 0 1 0 1
0 238 -84 148 0 0 1 12 0 1 0 1
phys
0 238 -288 144 0 0 1 12 0 1 0 1
0 238 -84 148 0 0 1 12 0 1 0 1
0 238 -84 144 0 0 1 12 0 1 0 1
phys
0 240 -288 148 0 0 1 12 0 1 0 1
0 240 -288 144 0 0 1 12 0 1 0 1
0 240 -84 144 0 0 1 12 0 1 0 1
phys
0 240 -288 148 0 0 1 12 0 1 0 1
0 240 -84 144 0 0 1 12 0 1 0 1
0 240 -84 148 0 0 1 12 0 1 0 1
phys
0 240 -288 144 0 0 1 12 0 1 0 1
0 238 -288 144 0 0 1 12 0 1 0 1
0 238 -84 144 0 0 1 12 0 1 0 1
phys
0 240 -288 144 0 0 1 12 0 1 0 1
0 238 -84 144 0 0 1 12 0 1 0 1
0 240 -84 144 0 0 1 12 0 1 0 1
phys
0 238 -288 148 0 0 1 12 0 1 0 1
0 240 -288 148 0 0 1 12 0 1 0 1
0 240 -84 148 0 0 1 12 0 1 0 1
phys
0 238 -288 148 0 0 1 12 0 1 0 1
0 240 -84 148 0 0 1 12 0 1 0 1
0 238 -84 148 0 0 1 12 0 1 0 1
phys
0 240 288 218 0 0 1 13 0 1 0 1
0 240 288 148 0 0 1 13 0 1 0 1
0 238 288 148 0 0 1 13 0 1 0 1
phys
0 240 288 218 0 0 1 13 0 1 0 1
0 238 288 148 0 0 1 13 0 1 0 1
0 238 288 218 0 0 1 13 0 1 0 1
phys
0 240 286 148 0 0 1 13 0 1 0 1
0 240 286 218 0 0 1 13 0 1 0 1
0 238 286 218 0 0 1 13 0 1 0 1
phys
0 240 286 148 0 0 1 13 0 1 0 1
0 238 286 218 0 0 1 13 0 1 0 1
0 238 286 148 0 0 1 13 0 1 0 1
phys
0 238 286 148 0 0 1 13 0 1 0 1
0 238 286 218 0 0 1 13 0 1 0 1
0 238 288 218 0 0 1 13 0 1 0 1
phys
0 238 286 148 0 0 1 13 0 1 0 1
0 238 288 218 0 0 1 13 0 1 0 1
0 238 288 148 0 0 1 13 0 1 0 1
phys
0 240 286 218 0 0 1 13 0 1 0 1
0 240 286 148 0 0 1 13 0 1 0 1
0 240 288 148 0 0 1 13 0 1 0 1
phys
0 240 286 218 0 0 1 13 0 1 0 1
0 240 288 148 0 0 1 13 0 1 0 1
0 240 288 218 0 0 1 13 0 1 0 1
phys
0 240 286 148 0 0 1 13 0 1 0 1
0 238 286 148 0 0 1 13 0 1 0 1
0 238 288 148 0 0 1 13 0 1 0 1
phys
0 240 286 148 0 0 1 13 0 1 0 1
0 238 288 148 0 0 1 13 0 1 0 1
0 240 288 148 0 0 1 13 0 1 0 1
phys
0 238 286 218 0 0 1 13 0 1 0 1
0 240 286 218 0 0 1 13 0 1 0 1
0 240 288 218 0 0 1 13 0 1 0 1
phys
0 238 286 218 0 0 1 13 0 1 0 1
0 240 288 218 0 0 1 13 0 1 0 1
0 238 288 218 0 0 1 13 0 1 0 1
phys
0 240 288 148 0 0 1 14 0 1 0 1
0 240 288 144 0 0 1 14 0 1 0 1
0 238 288 144 0 0 1 14 0 1 0 1
phys
0 240 288 148 0 0 1 14 0 1 0 1
0 238 288 144 0 0 1 14 0 1 0 1
0 238 288 148 0 0 1 14 0 1 0 1
phys
0 240 84 144 0 0 1 14 0 1 0 1
0 240 84 148 0 0 1 14 0 1 0 1
0 238 84 148 0 0 1 14 0 1 0 1
phys
0 240 84 144 0 0 1 14 0 1 0 1
0 238 84 148 0 0 1 14 0 1 0 1
0 238 84 144 0 0 1 14 0 1 0 1
phys
0 238 84 144 0 0 1 14 0 1 0 1
0 238 84 148 0 0 1 14 0 1 0 1
0 238 288 148 0 0 1 14 0 1 0 1
phys
0 238 84 144 0 0 1 14 0 1 0 1
0 238 288 148 0 0 1 14 0 1 0 1
0 238 288 144 0 0 1 14 0 1 0 1
phys
0 240 84 148 0 0 1 14 0 1 0 1
0 240 84 144 0 0 1 14 0 1 0 1
0 240 288 144 0 0 1 14 0 1 0 1
phys
0 240 84 148 0 0 1 14 0 1 0 1
0 240 288 144 0 0 1 14 0 1 0 1
0 240 288 148 0 0 1 14 0 1 0 1
phys
0 240 84 144 0 0 1 14 0 1 0 1
0 238 84 144 0 0 1 14 0 1 0 1
0 238 288 144 0 0 1 14 0 1 0 1
phys
0 240 84 144 0 0 1 14 0 1 0 1
0 238 288 144 0 0 1 14 0 1 0 1
0 240 288 144 0 0 1 14 0 1 0 1
phys
0 238 84 148 0 0 1 14 0 1 0 1
0 240 84 148 0 0 1 14 0 1 0 1
0 240 288 148 0 0 1 14 0 1 0 1
phys
0 238 84 148 0 0 1 14 0 1 0 1
0 240 288 148 0 0 1 14 0 1 0 1
0 238 288 148 0 0 1 14 0 1 0 1
phys
0 98 56 6 0 0 1 15 0 1 0 1
0 98 56 10 0 0 1 15 0 1 0 1
0 -68 56 10 0 0 1 15 0 1 0 1
phys
0 98 56 6 0 0 1 15 0 1 0 1
0 -68 56 10 0 0 1 15 0 1 0 1
0 -68 56 6 0 0 1 15 0 1 0 1
phys
0 -68 56 6 0 0 1 15 0 1 0 1
0 -68 56 10 0 0 1 15 0 1 0 1
0 -68 80 7 0 0 1 15 0 1 0 1
phys
0 -68 56 6 0 0 1 15 0 1 0 1
0 -68 80 7 0 0 1 15 0 1 0 1
0 -68 80 6 0 0 1 15 0 1 0 1
phys
0 98 56 10 0 0 1 15 0 1 0 1
0 98 56 6 0 0 1 15 0 1 0 1
0 98 80 6 0 0 1 15 0 1 0 1
phys
0 98 56 10 0 0 1 15 0 1 0 1
0 98 80 6 0 0 1 15 0 1 0 1
0 98 80 7 0 0 1 15 0 1 0 1
phys
0 98 56 6 0 0 1 15 0 1 0 1
0 -68 56 6 0 0 1 15 0 1 0 1
0 -68 80 6 0 0 1 15 0 1 0 1
phys
0 98 56 6 0 0 1 15 0 1 0 1
0 -68 80 6 0 0 1 15 0 1 0 1
0 98 80 6 0 0 1 15 0 1 0 1
phys
0 -68 56 10 0 0 1 15 0 1 0 1
0 98 56 10 0 0 1 15 0 1 0 1
0 98 80 7 0 0 1 15 0 1 0 1
phys
0 -68 56 10 0 0 1 15 0 1 0 1
0 98 80 7 0 0 1 15 0 1 0 1
0 -68 80 7 0 0 1 15 0 1 0 1
phys
0 98 80 7 0 0 1 15 0 1 0 1
0 98 80 6 0 0 1 15 0 1 0 1
0 -68 80 6 0 0 1 15 0 1 0 1
phys
0 98 80 7 0 0 1 15 0 1 0 1
0 -68 80 6 0 0 1 15 0 1 0 1
0 -68 80 7 0 0 1 15 0 1 0 1
phys
0 98 292 167 0 0 1 16 0 1 0 1
0 98 292 162 0 0 1 16 0 1 0 1
0 91 292 162 0 0 1 16 0 1 0 1
phys
0 98 292 167 0 0 1 16 0 1 0 1
0 91 292 162 0 0 1 16 0 1 0 1
0 91 292 167 0 0 1 16 0 1 0 1
phys
0 98 80 162 0 0 1 16 0 1 0 1
0 98 80 167 0 0 1 16 0 1 0 1
0 91 80 167 0 0 1 16 0 1 0 1
phys
0 98 80 162 0 0 1 16 0 1 0 1
0 91 80 167 0 0 1 16 0 1 0 1
0 91 80 162 0 0 1 16 0 1 0 1
phys
0 91 80 162 0 0 1 16 0 1 0 1
0 91 80 167 0 0 1 16 0 1 0 1
0 91 292 167 0 0 1 16 0 1 0 1
phys
0 91 80 162 0 0 1 16 0 1 0 1
0 91 292 167 0 0 1 16 0 1 0 1
0 91 292 162 0 0 1 16 0 1 0 1
phys
0 98 80 167 0 0 1 16 0 1 0 1
0 98 80 162 0 0 1 16 0 1 0 1
0 98 292 162 0 0 1 16 0 1 0 1
phys
0 98 80 167 0 0 1 16 0 1 0 1
0 98 292 162 0 0 1 16 0 1 0 1
0 98 292 167 0 0 1 16 0 1 0 1
phys
0 98 80 162 0 0 1 16 0 1 0 1
0 91 80 162 0 0 1 16 0 1 0 1
0 91 292 162 0 0 1 16 0 1 0 1
phys
0 98 80 162 0 0 1 16 0 1 0 1
0 91 292 162 0 0 1 16 0 1 0 1
0 98 292 162 0 0 1 16 0 1 0 1
phys
0 91 80 167 0 0 1 16 0 1 0 1
0 98 80 167 0 0 1 16 0 1 0 1
0 98 292 167 0 0 1 16 0 1 0 1
phys
0 91 80 167 0 0 1 16 0 1 0 1
0 98 292 167 0 0 1 16 0 1 0 1
0 91 292 167 0 0 1 16 0 1 0 1
phys
0 106 -86 148 0 0 1 17 0 1 0 1
0 106 -84 148 0 0 1 17 0 1 0 1
0 106 -84 144 0 0 1 17 0 1 0 1
phys
0 106 -86 148 0 0 1 17 0 1 0 1
0 106 -84 144 0 0 1 17 0 1 0 1
0 106 -86 144 0 0 1 17 0 1 0 1
phys
0 238 -86 144 0 0 1 17 0 1 0 1
0 238 -84 144 0 0 1 17 0 1 0 1
0 238 -84 148 0 0 1 17 0 1 0 1
phys
0 238 -86 144 0 0 1 17 0 1 0 1
0 238 -84 148 0 0 1 17 0 1 0 1
0 238 -86 148 0 0 1 17 0 1 0 1
phys
0 106 -86 144 0 0 1 17 0 1 0 1
0 106 -84 144 0 0 1 17 0 1 0 1
0 238 -84 144 0 0 1 17 0 1 0 1
phys
0 106 -86 144 0 0 1 17 0 1 0 1
0 238 -84 144 0 0 1 17 0 1 0 1
0 238 -86 144 0 0 1 17 0 1 0 1
phys
0 238 -86 148 0 0 1 17 0 1 0 1
0 238 -84 148 0 0 1 17 0 1 0 1
0 106 -84 148 0 0 1 17 0 1 0 1
phys
0 238 -86 148 0 0 1 17 0 1 0 1
0 106 -84 148 0 0 1 17 0 1 0 1
0 106 -86 148 0 0 1 17 0 1 0 1
phys
0 238 -84 148 0 0 1 17 0 1 0 1
0 238 -84 144 0 0 1 17 0 1 0 1
0 106 -84 144 0 0 1 17 0 1 0 1
phys
0 238 -84 148 0 0 1 17 0 1 0 1
0 106 -84 144 0 0 1 17 0 1 0 1
0 106 -84 148 0 0 1 17 0 1 0 1
phys
0 238 -86 144 0 0 1 17 0 1 0 1
0 238 -86 148 0 0 1 17 0 1 0 1
0 106 -86 148 0 0 1 17 0 1 0 1
phys
0 238 -86 144 0 0 1 17 0 1 0 1
0 106 -86 148 0 0 1 17 0 1 0 1
0 106 -86 144 0 0 1 17 0 1 0 1
phys
0 240 -84 218 0 0 1 18 0 1 0 1
0 240 -84 148 0 0 1 18 0 1 0 1
0 238 -84 148 0 0 1 18 0 1 0 1
phys
0 240 -84 218 0 0 1 18 0 1 0 1
0 238 -84 148 0 0 1 18 0 1 0 1
0 238 -84 218 0 0 1 18 0 1 0 1
phys
0 240 -86 148 0 0 1 18 0 1 0 1
0 240 -86 218 0 0 1 18 0 1 0 1
0 238 -86 218 0 0 1 18 0 1 0 1
phys
0 240 -86 148 0 0 1 18 0 1 0 1
0 238 -86 218 0 0 1 18 0 1 0 1
0 238 -86 148 0 0 1 18 0 1 0 1
phys
0 238 -86 148 0 0 1 18 0 1 0 1
0 238 -86 218 0 0 1 18 0 1 0 1
0 238 -84 218 0 0 1 18 0 1 0 1
phys
0 238 -86 148 0 0 1 18 0 1 0 1
0 238 -84 218 0 0 1 18 0 1 0 1
0 238 -84 148 0 0 1 18 0 1 0 1
phys
0 240 -86 218 0 0 1 18 0 1 0 1
0 240 -86 148 0 0 1 18 0 1 0 1
0 240 -84 148 0 0 1 18 0 1 0 1
phys
0 240 -86 218 0 0 1 18 0 1 0 1
0 240 -84 148 0 0 1 18 0 1 0 1
0 240 -84 218 0 0 1 18 0 1 0 1
phys
0 240 -86 148 0 0 1 18 0 1 0 1
0 238 -86 148 0 0 1 18 0 1 0 1
0 238 -84 148 0 0 1 18 0 1 0 1
phys
0 240 -86 148 0 0 1 18 0 1 0 1
0 238 -84 148 0 0 1 18 0 1 0 1
0 240 -84 148 0 0 1 18 0 1 0 1
phys
0 238 -86 218 0 0 1 18 0 1 0 1
0 240 -86 218 0 0 1 18 0 1 0 1
0 240 -84 218 0 0 1 18 0 1 0 1
phys
0 238 -86 218 0 0 1 18 0 1 0 1
0 240 -84 218 0 0 1 18 0 1 0 1
0 238 -84 218 0 0 1 18 0 1 0 1
phys
0 98 316 10 0 0 1 19 0 1 0 1
0 98 316 6 0 0 1 19 0 1 0 1
0 -68 316 6 0 0 1 19 0 1 0 1
phys
0 98 316 10 0 0 1 19 0 1 0 1
0 -68 316 6 0 0 1 19 0 1 0 1
0 -68 316 10 0 0 1 19 0 1 0 1
phys
0 98 292 6 0 0 1 19 0 1 0 1
0 98 292 7 0 0 1 19 0 1 0 1
0 -68 292 7 0 0 1 19 0 1 0 1
phys
0 98 292 6 0 0 1 19 0 1 0 1
0 -68 292 7 0 0 1 19 0 1 0 1
0 -68 292 6 0 0 1 19 0 1 0 1
phys
0 -68 292 6 0 0 1 19 0 1 0 1
0 -68 292 7 0 0 1 19 0 1 0 1
0 -68 316 10 0 0 1 19 0 1 0 1
phys
0 -68 292 6 0 0 1 19 0 1 0 1
0 -68 316 10 0 0 1 19 0 1 0 1
0 -68 316 6 0 0 1 19 0 1 0 1
phys
0 98 292 7 0 0 1 19 0 1 0 1
0 98 292 6 0 0 1 19 0 1 0 1
0 98 316 6 0 0 1 19 0 1 0 1
phys
0 98 292 7 0 0 1 19 0 1 0 1
0 98 316 6 0 0 1 19 0 1 0 1
0 98 316 10 0 0 1 19 0 1 0 1
phys
0 98 292 6 0 0 1 19 0 1 0 1
0 -68 292 6 0 0 1 19 0 1 0 1
0 -68 316 6 0 0 1 19 0 1 0 1
phys
0 98 292 6 0 0 1 19 0 1 0 1
0 -68 316 6 0 0 1 19 0 1 0 1
0 98 316 6 0 0 1 19 0 1 0 1
phys
0 -68 292 7 0 0 1 19 0 1 0 1
0 98 292 7 0 0 1 19 0 1 0 1
0 98 316 10 0 0 1 19 0 1 0 1
phys
0 -68 292 7 0 0 1 19 0 1 0 1
0 98 316 10 0 0 1 19 0 1 0 1
0 -68 316 10 0 0 1 19 0 1 0 1
phys
0 -68 80 7 0 0 1 20 0 1 0 1
0 -68 80 6 0 0 1 20 0 1 0 1
0 -82 80 6 0 0 1 20 0 1 0 1
phys
0 -68 80 7 0 0 1 20 0 1 0 1
0 -82 80 6 0 0 1 20 0 1 0 1
0 -82 80 7 0 0 1 20 0 1 0 1
phys
0 -68 56 6 0 0 1 20 0 1 0 1
0 -68 56 10 0 0 1 20 0 1 0 1
0 -82 56 10 0 0 1 20 0 1 0 1
phys
0 -68 56 6 0 0 1 20 0 1 0 1
0 -82 56 10 0 0 1 20 0 1 0 1
0 -82 56 6 0 0 1 20 0 1 0 1
phys
0 -82 56 6 0 0 1 20 0 1 0 1
0 -82 56 10 0 0 1 20 0 1 0 1
0 -82 80 7 0 0 1 20 0 1 0 1
phys
0 -82 56 6 0 0 1 20 0 1 0 1
0 -82 80 7 0 0 1 20 0 1 0 1
0 -82 80 6 0 0 1 20 0 1 0 1
phys
0 -68 56 10 0 0 1 20 0 1 0 1
0 -68 56 6 0 0 1 20 0 1 0 1
0 -68 80 6 0 0 1 20 0 1 0 1
phys
0 -68 56 10 0 0 1 20 0 1 0 1
0 -68 80 6 0 0 1 20 0 1 0 1
0 -68 80 7 0 0 1 20 0 1 0 1
phys
0 -68 56 6 0 0 1 20 0 1 0 1
0 -82 56 6 0 0 1 20 0 1 0 1
0 -82 80 6 0 0 1 20 0 1 0 1
phys
0 -68 56 6 0 0 1 20 0 1 0 1
0 -82 80 6 0 0 1 20 0 1 0 1
0 -68 80 6 0 0 1 20 0 1 0 1
phys
0 -82 56 10 0 0 1 20 0 1 0 1
0 -68 56 10 0 0 1 20 0 1 0 1
0 -68 80 7 0 0 1 20 0 1 0 1
phys
0 -82 56 10 0 0 1 20 0 1 0 1
0 -68 80 7 0 0 1 20 0 1 0 1
0 -82 80 7 0 0 1 20 0 1 0 1
end
