version 1
nodes
0 "root" -1
end
skeleton
time 0
0 0 0 0 0 0 0
end
triangles
phys
0 52 120 -216.004 0 0 1 1 0 1 0 1
0 52 120 -272 0 0 1 1 0 1 0 1
0 8 120 -272 0 0 1 1 0 1 0 1
phys
0 52 120 -216.004 0 0 1 1 0 1 0 1
0 8 120 -272 0 0 1 1 0 1 0 1
0 8 120 -216.004 0 0 1 1 0 1 0 1
phys
0 52 112 -272 0 0 1 1 0 1 0 1
0 52 112 -208.004 0 0 1 1 0 1 0 1
0 8 112 -208.004 0 0 1 1 0 1 0 1
phys
0 52 112 -272 0 0 1 1 0 1 0 1
0 8 112 -208.004 0 0 1 1 0 1 0 1
0 8 112 -272 0 0 1 1 0 1 0 1
phys
0 8 112 -272 0 0 1 1 0 1 0 1
0 8 112 -208.004 0 0 1 1 0 1 0 1
0 8 120 -216.004 0 0 1 1 0 1 0 1
phys
0 8 112 -272 0 0 1 1 0 1 0 1
0 8 120 -216.004 0 0 1 1 0 1 0 1
0 8 120 -272 0 0 1 1 0 1 0 1
phys
0 52 112 -208.004 0 0 1 1 0 1 0 1
0 52 112 -272 0 0 1 1 0 1 0 1
0 52 120 -272 0 0 1 1 0 1 0 1
phys
0 52 112 -208.004 0 0 1 1 0 1 0 1
0 52 120 -272 0 0 1 1 0 1 0 1
0 52 120 -216.004 0 0 1 1 0 1 0 1
phys
0 52 112 -272 0 0 1 1 0 1 0 1
0 8 112 -272 0 0 1 1 0 1 0 1
0 8 120 -272 0 0 1 1 0 1 0 1
phys
0 52 112 -272 0 0 1 1 0 1 0 1
0 8 120 -272 0 0 1 1 0 1 0 1
0 52 120 -272 0 0 1 1 0 1 0 1
phys
0 8 112 -208.004 0 0 1 1 0 1 0 1
0 52 112 -208.004 0 0 1 1 0 1 0 1
0 52 120 -216.004 0 0 1 1 0 1 0 1
phys
0 8 112 -208.004 0 0 1 1 0 1 0 1
0 52 120 -216.004 0 0 1 1 0 1 0 1
0 8 120 -216.004 0 0 1 1 0 1 0 1
phys
0 104 112 -164 0 0 1 2 0 1 0 1
0 56 112 -164 0 0 1 2 0 1 0 1
0 52 112 -160 0 0 1 2 0 1 0 1
phys
0 104 112 -164 0 0 1 2 0 1 0 1
0 52 112 -160 0 0 1 2 0 1 0 1
0 108 112 -160 0 0 1 2 0 1 0 1
phys
0 108 104 -160 0 0 1 2 0 1 0 1
0 52 104 -160 0 0 1 2 0 1 0 1
0 56 104 -164 0 0 1 2 0 1 0 1
phys
0 108 104 -160 0 0 1 2 0 1 0 1
0 56 104 -164 0 0 1 2 0 1 0 1
0 104 104 -164 0 0 1 2 0 1 0 1
phys
0 104 104 -164 0 0 1 2 0 1 0 1
0 56 104 -164 0 0 1 2 0 1 0 1
0 56 112 -164 0 0 1 2 0 1 0 1
phys
0 104 104 -164 0 0 1 2 0 1 0 1
0 56 112 -164 0 0 1 2 0 1 0 1
0 104 112 -164 0 0 1 2 0 1 0 1
phys
0 52 104 -160 0 0 1 2 0 1 0 1
0 108 104 -160 0 0 1 2 0 1 0 1
0 108 112 -160 0 0 1 2 0 1 0 1
phys
0 52 104 -160 0 0 1 2 0 1 0 1
0 108 112 -160 0 0 1 2 0 1 0 1
0 52 112 -160 0 0 1 2 0 1 0 1
phys
0 56 104 -164 0 0 1 2 0 1 0 1
0 52 104 -160 0 0 1 2 0 1 0 1
0 52 112 -160 0 0 1 2 0 1 0 1
phys
0 56 104 -164 0 0 1 2 0 1 0 1
0 52 112 -160 0 0 1 2 0 1 0 1
0 56 112 -164 0 0 1 2 0 1 0 1
phys
0 108 104 -160 0 0 1 2 0 1 0 1
0 104 104 -164 0 0 1 2 0 1 0 1
0 104 112 -164 0 0 1 2 0 1 0 1
phys
0 108 104 -160 0 0 1 2 0 1 0 1
0 104 112 -164 0 0 1 2 0 1 0 1
0 108 112 -160 0 0 1 2 0 1 0 1
phys
0 -48 120 -242 0 0 1 3 0 1 0 1
0 -48 120 -244 0 0 1 3 0 1 0 1
0 -128 120 -244 0 0 1 3 0 1 0 1
phys
0 -48 120 -242 0 0 1 3 0 1 0 1
0 -128 120 -244 0 0 1 3 0 1 0 1
0 -128 120 -242 0 0 1 3 0 1 0 1
phys
0 -48 112 -244 0 0 1 3 0 1 0 1
0 -48 112 -242 0 0 1 3 0 1 0 1
0 -128 112 -242 0 0 1 3 0 1 0 1
phys
0 -48 112 -244 0 0 1 3 0 1 0 1
0 -128 112 -242 0 0 1 3 0 1 0 1
0 -128 112 -244 0 0 1 3 0 1 0 1
phys
0 -128 112 -244 0 0 1 3 0 1 0 1
0 -128 112 -242 0 0 1 3 0 1 0 1
0 -128 120 -242 0 0 1 3 0 1 0 1
phys
0 -128 112 -244 0 0 1 3 0 1 0 1
0 -128 120 -242 0 0 1 3 0 1 0 1
0 -128 120 -244 0 0 1 3 0 1 0 1
phys
0 -48 112 -242 0 0 1 3 0 1 0 1
0 -48 112 -244 0 0 1 3 0 1 0 1
0 -48 120 -244 0 0 1 3 0 1 0 1
phys
0 -48 112 -242 0 0 1 3 0 1 0 1
0 -48 120 -244 0 0 1 3 0 1 0 1
0 -48 120 -242 0 0 1 3 0 1 0 1
phys
0 -48 112 -244 0 0 1 3 0 1 0 1
0 -128 112 -244 0 0 1 3 0 1 0 1
0 -128 120 -244 0 0 1 3 0 1 0 1
phys
0 -48 112 -244 0 0 1 3 0 1 0 1
0 -128 120 -244 0 0 1 3 0 1 0 1
0 -48 120 -244 0 0 1 3 0 1 0 1
phys
0 -128 112 -242 0 0 1 3 0 1 0 1
0 -48 112 -242 0 0 1 3 0 1 0 1
0 -48 120 -242 0 0 1 3 0 1 0 1
phys
0 -128 112 -242 0 0 1 3 0 1 0 1
0 -48 120 -242 0 0 1 3 0 1 0 1
0 -128 120 -242 0 0 1 3 0 1 0 1
phys
0 56 112 -163.999 0 0 1 4 0 1 0 1
0 56 112 -272.5 0 0 1 4 0 1 0 1
0 52 112 -272.5 0 0 1 4 0 1 0 1
phys
0 56 112 -163.999 0 0 1 4 0 1 0 1
0 52 112 -272.5 0 0 1 4 0 1 0 1
0 52 112 -159.999 0 0 1 4 0 1 0 1
phys
0 56 104 -272.5 0 0 1 4 0 1 0 1
0 56 104 -163.999 0 0 1 4 0 1 0 1
0 52 104 -159.999 0 0 1 4 0 1 0 1
phys
0 56 104 -272.5 0 0 1 4 0 1 0 1
0 52 104 -159.999 0 0 1 4 0 1 0 1
0 52 104 -272.5 0 0 1 4 0 1 0 1
phys
0 52 104 -272.5 0 0 1 4 0 1 0 1
0 52 104 -159.999 0 0 1 4 0 1 0 1
0 52 112 -159.999 0 0 1 4 0 1 0 1
phys
0 52 104 -272.5 0 0 1 4 0 1 0 1
0 52 112 -159.999 0 0 1 4 0 1 0 1
0 52 112 -272.5 0 0 1 4 0 1 0 1
phys
0 56 104 -163.999 0 0 1 4 0 1 0 1
0 56 104 -272.5 0 0 1 4 0 1 0 1
0 56 112 -272.5 0 0 1 4 0 1 0 1
phys
0 56 104 -163.999 0 0 1 4 0 1 0 1
0 56 112 -272.5 0 0 1 4 0 1 0 1
0 56 112 -163.999 0 0 1 4 0 1 0 1
phys
0 56 104 -272.5 0 0 1 4 0 1 0 1
0 52 104 -272.5 0 0 1 4 0 1 0 1
0 52 112 -272.5 0 0 1 4 0 1 0 1
phys
0 56 104 -272.5 0 0 1 4 0 1 0 1
0 52 112 -272.5 0 0 1 4 0 1 0 1
0 56 112 -272.5 0 0 1 4 0 1 0 1
phys
0 52 104 -159.999 0 0 1 4 0 1 0 1
0 56 104 -163.999 0 0 1 4 0 1 0 1
0 56 112 -163.999 0 0 1 4 0 1 0 1
phys
0 52 104 -159.999 0 0 1 4 0 1 0 1
0 56 112 -163.999 0 0 1 4 0 1 0 1
0 52 112 -159.999 0 0 1 4 0 1 0 1
phys
0 -48 112 -114 0 0 1 5 0 1 0 1
0 -50 112 -114 0 0 1 5 0 1 0 1
0 -50 120 -114 0 0 1 5 0 1 0 1
phys
0 -48 112 -114 0 0 1 5 0 1 0 1
0 -50 120 -114 0 0 1 5 0 1 0 1
0 -48 120 -114 0 0 1 5 0 1 0 1
phys
0 -50 112 -46 0 0 1 5 0 1 0 1
0 -48 112 -46 0 0 1 5 0 1 0 1
0 -48 120 -46 0 0 1 5 0 1 0 1
phys
0 -50 112 -46 0 0 1 5 0 1 0 1
0 -48 120 -46 0 0 1 5 0 1 0 1
0 -50 120 -46 0 0 1 5 0 1 0 1
phys
0 -48 120 -114 0 0 1 5 0 1 0 1
0 -50 120 -114 0 0 1 5 0 1 0 1
0 -50 120 -46 0 0 1 5 0 1 0 1
phys
0 -48 120 -114 0 0 1 5 0 1 0 1
0 -50 120 -46 0 0 1 5 0 1 0 1
0 -48 120 -46 0 0 1 5 0 1 0 1
phys
0 -48 112 -46 0 0 1 5 0 1 0 1
0 -50 112 -46 0 0 1 5 0 1 0 1
0 -50 112 -114 0 0 1 5 0 1 0 1
phys
0 -48 112 -46 0 0 1 5 0 1 0 1
0 -50 112 -114 0 0 1 5 0 1 0 1
0 -48 112 -114 0 0 1 5 0 1 0 1
phys
0 -50 112 -46 0 0 1 5 0 1 0 1
0 -50 120 -46 0 0 1 5 0 1 0 1
0 -50 120 -114 0 0 1 5 0 1 0 1
phys
0 -50 112 -46 0 0 1 5 0 1 0 1
0 -50 120 -114 0 0 1 5 0 1 0 1
0 -50 112 -114 0 0 1 5 0 1 0 1
phys
0 -48 112 -114 0 0 1 5 0 1 0 1
0 -48 120 -114 0 0 1 5 0 1 0 1
0 -48 120 -46 0 0 1 5 0 1 0 1
phys
0 -48 112 -114 0 0 1 5 0 1 0 1
0 -48 120 -46 0 0 1 5 0 1 0 1
0 -48 112 -46 0 0 1 5 0 1 0 1
phys
0 -128 112 -44 0 0 1 6 0 1 0 1
0 -48 112 -44 0 0 1 6 0 1 0 1
0 -48 120 -44 0 0 1 6 0 1 0 1
phys
0 -128 112 -44 0 0 1 6 0 1 0 1
0 -48 120 -44 0 0 1 6 0 1 0 1
0 -128 120 -44 0 0 1 6 0 1 0 1
phys
0 -128 120 -46 0 0 1 6 0 1 0 1
0 -128 120 -44 0 0 1 6 0 1 0 1
0 -48 120 -44 0 0 1 6 0 1 0 1
phys
0 -128 120 -46 0 0 1 6 0 1 0 1
0 -48 120 -44 0 0 1 6 0 1 0 1
0 -48 120 -46 0 0 1 6 0 1 0 1
phys
0 -48 112 -46 0 0 1 6 0 1 0 1
0 -48 112 -44 0 0 1 6 0 1 0 1
0 -128 112 -44 0 0 1 6 0 1 0 1
phys
0 -48 112 -46 0 0 1 6 0 1 0 1
0 -128 112 -44 0 0 1 6 0 1 0 1
0 -128 112 -46 0 0 1 6 0 1 0 1
phys
0 -128 112 -46 0 0 1 6 0 1 0 1
0 -128 112 -44 0 0 1 6 0 1 0 1
0 -128 120 -44 0 0 1 6 0 1 0 1
phys
0 -128 112 -46 0 0 1 6 0 1 0 1
0 -128 120 -44 0 0 1 6 0 1 0 1
0 -128 120 -46 0 0 1 6 0 1 0 1
phys
0 -48 120 -46 0 0 1 6 0 1 0 1
0 -48 120 -44 0 0 1 6 0 1 0 1
0 -48 112 -44 0 0 1 6 0 1 0 1
phys
0 -48 120 -46 0 0 1 6 0 1 0 1
0 -48 112 -44 0 0 1 6 0 1 0 1
0 -48 112 -46 0 0 1 6 0 1 0 1
phys
0 -48 112 -46 0 0 1 6 0 1 0 1
0 -128 112 -46 0 0 1 6 0 1 0 1
0 -128 120 -46 0 0 1 6 0 1 0 1
phys
0 -48 112 -46 0 0 1 6 0 1 0 1
0 -128 120 -46 0 0 1 6 0 1 0 1
0 -48 120 -46 0 0 1 6 0 1 0 1
phys
0 -87 120 -46 0 0 1 7 0 1 0 1
0 -87 120 -114 0 0 1 7 0 1 0 1
0 -89 120 -114 0 0 1 7 0 1 0 1
phys
0 -87 120 -46 0 0 1 7 0 1 0 1
0 -89 120 -114 0 0 1 7 0 1 0 1
0 -89 120 -46 0 0 1 7 0 1 0 1
phys
0 -87 116 -114 0 0 1 7 0 1 0 1
0 -87 116 -46 0 0 1 7 0 1 0 1
0 -89 116 -46 0 0 1 7 0 1 0 1
phys
0 -87 116 -114 0 0 1 7 0 1 0 1
0 -89 116 -46 0 0 1 7 0 1 0 1
0 -89 116 -114 0 0 1 7 0 1 0 1
phys
0 -89 116 -114 0 0 1 7 0 1 0 1
0 -89 116 -46 0 0 1 7 0 1 0 1
0 -89 120 -46 0 0 1 7 0 1 0 1
phys
0 -89 116 -114 0 0 1 7 0 1 0 1
0 -89 120 -46 0 0 1 7 0 1 0 1
0 -89 120 -114 0 0 1 7 0 1 0 1
phys
0 -87 116 -46 0 0 1 7 0 1 0 1
0 -87 116 -114 0 0 1 7 0 1 0 1
0 -87 120 -114 0 0 1 7 0 1 0 1
phys
0 -87 116 -46 0 0 1 7 0 1 0 1
0 -87 120 -114 0 0 1 7 0 1 0 1
0 -87 120 -46 0 0 1 7 0 1 0 1
phys
0 -87 116 -114 0 0 1 7 0 1 0 1
0 -89 116 -114 0 0 1 7 0 1 0 1
0 -89 120 -114 0 0 1 7 0 1 0 1
phys
0 -87 116 -114 0 0 1 7 0 1 0 1
0 -89 120 -114 0 0 1 7 0 1 0 1
0 -87 120 -114 0 0 1 7 0 1 0 1
phys
0 -89 116 -46 0 0 1 7 0 1 0 1
0 -87 116 -46 0 0 1 7 0 1 0 1
0 -87 120 -46 0 0 1 7 0 1 0 1
phys
0 -89 116 -46 0 0 1 7 0 1 0 1
0 -87 120 -46 0 0 1 7 0 1 0 1
0 -89 120 -46 0 0 1 7 0 1 0 1
phys
0 -48 112 -242 0 0 1 8 0 1 0 1
0 -48 112 -174 0 0 1 8 0 1 0 1
0 -50 112 -174 0 0 1 8 0 1 0 1
phys
0 -48 112 -242 0 0 1 8 0 1 0 1
0 -50 112 -174 0 0 1 8 0 1 0 1
0 -50 112 -242 0 0 1 8 0 1 0 1
phys
0 -50 112 -242 0 0 1 8 0 1 0 1
0 -50 112 -174 0 0 1 8 0 1 0 1
0 -50 120 -174 0 0 1 8 0 1 0 1
phys
0 -50 112 -242 0 0 1 8 0 1 0 1
0 -50 120 -174 0 0 1 8 0 1 0 1
0 -50 120 -242 0 0 1 8 0 1 0 1
phys
0 -48 112 -174 0 0 1 8 0 1 0 1
0 -48 112 -242 0 0 1 8 0 1 0 1
0 -48 120 -242 0 0 1 8 0 1 0 1
phys
0 -48 112 -174 0 0 1 8 0 1 0 1
0 -48 120 -242 0 0 1 8 0 1 0 1
0 -48 120 -174 0 0 1 8 0 1 0 1
phys
0 -48 112 -242 0 0 1 8 0 1 0 1
0 -50 112 -242 0 0 1 8 0 1 0 1
0 -50 120 -242 0 0 1 8 0 1 0 1
phys
0 -48 112 -242 0 0 1 8 0 1 0 1
0 -50 120 -242 0 0 1 8 0 1 0 1
0 -48 120 -242 0 0 1 8 0 1 0 1
phys
0 -50 112 -174 0 0 1 8 0 1 0 1
0 -48 112 -174 0 0 1 8 0 1 0 1
0 -48 120 -174 0 0 1 8 0 1 0 1
phys
0 -50 112 -174 0 0 1 8 0 1 0 1
0 -48 120 -174 0 0 1 8 0 1 0 1
0 -50 120 -174 0 0 1 8 0 1 0 1
phys
0 -48 120 -174 0 0 1 8 0 1 0 1
0 -48 120 -242 0 0 1 8 0 1 0 1
0 -50 120 -242 0 0 1 8 0 1 0 1
phys
0 -48 120 -174 0 0 1 8 0 1 0 1
0 -50 120 -242 0 0 1 8 0 1 0 1
0 -50 120 -174 0 0 1 8 0 1 0 1
phys
0 -126 120 -46 0 0 1 9 0 1 0 1
0 -126 120 -114 0 0 1 9 0 1 0 1
0 -128 120 -114 0 0 1 9 0 1 0 1
phys
0 -126 120 -46 0 0 1 9 0 1 0 1
0 -128 120 -114 0 0 1 9 0 1 0 1
0 -128 120 -46 0 0 1 9 0 1 0 1
phys
0 -126 112 -114 0 0 1 9 0 1 0 1
0 -126 112 -46 0 0 1 9 0 1 0 1
0 -128 112 -46 0 0 1 9 0 1 0 1
phys
0 -126 112 -114 0 0 1 9 0 1 0 1
0 -128 112 -46 0 0 1 9 0 1 0 1
0 -128 112 -114 0 0 1 9 0 1 0 1
phys
0 -128 112 -114 0 0 1 9 0 1 0 1
0 -128 112 -46 0 0 1 9 0 1 0 1
0 -128 120 -46 0 0 1 9 0 1 0 1
phys
0 -128 112 -114 0 0 1 9 0 1 0 1
0 -128 120 -46 0 0 1 9 0 1 0 1
0 -128 120 -114 0 0 1 9 0 1 0 1
phys
0 -126 112 -46 0 0 1 9 0 1 0 1
0 -126 112 -114 0 0 1 9 0 1 0 1
0 -126 120 -114 0 0 1 9 0 1 0 1
phys
0 -126 112 -46 0 0 1 9 0 1 0 1
0 -126 120 -114 0 0 1 9 0 1 0 1
0 -126 120 -46 0 0 1 9 0 1 0 1
phys
0 -126 112 -114 0 0 1 9 0 1 0 1
0 -128 112 -114 0 0 1 9 0 1 0 1
0 -128 120 -114 0 0 1 9 0 1 0 1
phys
0 -126 112 -114 0 0 1 9 0 1 0 1
0 -128 120 -114 0 0 1 9 0 1 0 1
0 -126 120 -114 0 0 1 9 0 1 0 1
phys
0 -128 112 -46 0 0 1 9 0 1 0 1
0 -126 112 -46 0 0 1 9 0 1 0 1
0 -126 120 -46 0 0 1 9 0 1 0 1
phys
0 -128 112 -46 0 0 1 9 0 1 0 1
0 -126 120 -46 0 0 1 9 0 1 0 1
0 -128 120 -46 0 0 1 9 0 1 0 1
phys
0 -89 119 -46 0 0 1 10 0 1 0 1
0 -89 119 -114 0 0 1 10 0 1 0 1
0 -126 119 -114 0 0 1 10 0 1 0 1
phys
0 -89 119 -46 0 0 1 10 0 1 0 1
0 -126 119 -114 0 0 1 10 0 1 0 1
0 -126 119 -46 0 0 1 10 0 1 0 1
phys
0 -89 117 -114 0 0 1 10 0 1 0 1
0 -89 117 -46 0 0 1 10 0 1 0 1
0 -126 117 -46 0 0 1 10 0 1 0 1
phys
0 -89 117 -114 0 0 1 10 0 1 0 1
0 -126 117 -46 0 0 1 10 0 1 0 1
0 -126 117 -114 0 0 1 10 0 1 0 1
phys
0 -126 117 -114 0 0 1 10 0 1 0 1
0 -126 117 -46 0 0 1 10 0 1 0 1
0 -126 119 -46 0 0 1 10 0 1 0 1
phys
0 -126 117 -114 0 0 1 10 0 1 0 1
0 -126 119 -46 0 0 1 10 0 1 0 1
0 -126 119 -114 0 0 1 10 0 1 0 1
phys
0 -89 117 -46 0 0 1 10 0 1 0 1
0 -89 117 -114 0 0 1 10 0 1 0 1
0 -89 119 -114 0 0 1 10 0 1 0 1
phys
0 -89 117 -46 0 0 1 10 0 1 0 1
0 -89 119 -114 0 0 1 10 0 1 0 1
0 -89 119 -46 0 0 1 10 0 1 0 1
phys
0 -89 117 -114 0 0 1 10 0 1 0 1
0 -126 117 -114 0 0 1 10 0 1 0 1
0 -126 119 -114 0 0 1 10 0 1 0 1
phys
0 -89 117 -114 0 0 1 10 0 1 0 1
0 -126 119 -114 0 0 1 10 0 1 0 1
0 -89 119 -114 0 0 1 10 0 1 0 1
phys
0 -126 117 -46 0 0 1 10 0 1 0 1
0 -89 117 -46 0 0 1 10 0 1 0 1
0 -89 119 -46 0 0 1 10 0 1 0 1
phys
0 -126 117 -46 0 0 1 10 0 1 0 1
0 -89 119 -46 0 0 1 10 0 1 0 1
0 -126 119 -46 0 0 1 10 0 1 0 1
phys
0 -48 120 -114 0 0 1 11 0 1 0 1
0 -48 120 -116 0 0 1 11 0 1 0 1
0 -128 120 -116 0 0 1 11 0 1 0 1
phys
0 -48 120 -114 0 0 1 11 0 1 0 1
0 -128 120 -116 0 0 1 11 0 1 0 1
0 -128 120 -114 0 0 1 11 0 1 0 1
phys
0 -48 112 -116 0 0 1 11 0 1 0 1
0 -48 112 -114 0 0 1 11 0 1 0 1
0 -128 112 -114 0 0 1 11 0 1 0 1
phys
0 -48 112 -116 0 0 1 11 0 1 0 1
0 -128 112 -114 0 0 1 11 0 1 0 1
0 -128 112 -116 0 0 1 11 0 1 0 1
phys
0 -128 112 -116 0 0 1 11 0 1 0 1
0 -128 112 -114 0 0 1 11 0 1 0 1
0 -128 120 -114 0 0 1 11 0 1 0 1
phys
0 -128 112 -116 0 0 1 11 0 1 0 1
0 -128 120 -114 0 0 1 11 0 1 0 1
0 -128 120 -116 0 0 1 11 0 1 0 1
phys
0 -48 112 -114 0 0 1 11 0 1 0 1
0 -48 112 -116 0 0 1 11 0 1 0 1
0 -48 120 -116 0 0 1 11 0 1 0 1
phys
0 -48 112 -114 0 0 1 11 0 1 0 1
0 -48 120 -116 0 0 1 11 0 1 0 1
0 -48 120 -114 0 0 1 11 0 1 0 1
phys
0 -48 112 -116 0 0 1 11 0 1 0 1
0 -128 112 -116 0 0 1 11 0 1 0 1
0 -128 120 -116 0 0 1 11 0 1 0 1
phys
0 -48 112 -116 0 0 1 11 0 1 0 1
0 -128 120 -116 0 0 1 11 0 1 0 1
0 -48 120 -116 0 0 1 11 0 1 0 1
phys
0 -128 112 -114 0 0 1 11 0 1 0 1
0 -48 112 -114 0 0 1 11 0 1 0 1
0 -48 120 -114 0 0 1 11 0 1 0 1
phys
0 -128 112 -114 0 0 1 11 0 1 0 1
0 -48 120 -114 0 0 1 11 0 1 0 1
0 -128 120 -114 0 0 1 11 0 1 0 1
phys
0 8 120 16 0 0 1 12 0 1 0 1
0 8 120 -16 0 0 1 12 0 1 0 1
0 -8 120 -16 0 0 1 12 0 1 0 1
phys
0 8 120 16 0 0 1 12 0 1 0 1
0 -8 120 -16 0 0 1 12 0 1 0 1
0 -8 120 16 0 0 1 12 0 1 0 1
phys
0 8 -120 -16 0 0 1 12 0 1 0 1
0 8 -120 16 0 0 1 12 0 1 0 1
0 -8 -120 16 0 0 1 12 0 1 0 1
phys
0 8 -120 -16 0 0 1 12 0 1 0 1
0 -8 -120 16 0 0 1 12 0 1 0 1
0 -8 -120 -16 0 0 1 12 0 1 0 1
phys
0 -8 -120 -16 0 0 1 12 0 1 0 1
0 -8 -120 16 0 0 1 12 0 1 0 1
0 -8 120 16 0 0 1 12 0 1 0 1
phys
0 -8 -120 -16 0 0 1 12 0 1 0 1
0 -8 120 16 0 0 1 12 0 1 0 1
0 -8 120 -16 0 0 1 12 0 1 0 1
phys
0 8 -120 16 0 0 1 12 0 1 0 1
0 8 -120 -16 0 0 1 12 0 1 0 1
0 8 120 -16 0 0 1 12 0 1 0 1
phys
0 8 -120 16 0 0 1 12 0 1 0 1
0 8 120 -16 0 0 1 12 0 1 0 1
0 8 120 16 0 0 1 12 0 1 0 1
phys
0 8 -120 -16 0 0 1 12 0 1 0 1
0 -8 -120 -16 0 0 1 12 0 1 0 1
0 -8 120 -16 0 0 1 12 0 1 0 1
phys
0 8 -120 -16 0 0 1 12 0 1 0 1
0 -8 120 -16 0 0 1 12 0 1 0 1
0 8 120 -16 0 0 1 12 0 1 0 1
phys
0 -8 -120 16 0 0 1 12 0 1 0 1
0 8 -120 16 0 0 1 12 0 1 0 1
0 8 120 16 0 0 1 12 0 1 0 1
phys
0 -8 -120 16 0 0 1 12 0 1 0 1
0 8 120 16 0 0 1 12 0 1 0 1
0 -8 120 16 0 0 1 12 0 1 0 1
phys
0 -126 120 -174 0 0 1 13 0 1 0 1
0 -126 120 -242 0 0 1 13 0 1 0 1
0 -128 120 -242 0 0 1 13 0 1 0 1
phys
0 -126 120 -174 0 0 1 13 0 1 0 1
0 -128 120 -242 0 0 1 13 0 1 0 1
0 -128 120 -174 0 0 1 13 0 1 0 1
phys
0 -126 112 -242 0 0 1 13 0 1 0 1
0 -126 112 -174 0 0 1 13 0 1 0 1
0 -128 112 -174 0 0 1 13 0 1 0 1
phys
0 -126 112 -242 0 0 1 13 0 1 0 1
0 -128 112 -174 0 0 1 13 0 1 0 1
0 -128 112 -242 0 0 1 13 0 1 0 1
phys
0 -128 112 -242 0 0 1 13 0 1 0 1
0 -128 112 -174 0 0 1 13 0 1 0 1
0 -128 120 -174 0 0 1 13 0 1 0 1
phys
0 -128 112 -242 0 0 1 13 0 1 0 1
0 -128 120 -174 0 0 1 13 0 1 0 1
0 -128 120 -242 0 0 1 13 0 1 0 1
phys
0 -126 112 -174 0 0 1 13 0 1 0 1
0 -126 112 -242 0 0 1 13 0 1 0 1
0 -126 120 -242 0 0 1 13 0 1 0 1
phys
0 -126 112 -174 0 0 1 13 0 1 0 1
0 -126 120 -242 0 0 1 13 0 1 0 1
0 -126 120 -174 0 0 1 13 0 1 0 1
phys
0 -126 112 -242 0 0 1 13 0 1 0 1
0 -128 112 -242 0 0 1 13 0 1 0 1
0 -128 120 -242 0 0 1 13 0 1 0 1
phys
0 -126 112 -242 0 0 1 13 0 1 0 1
0 -128 120 -242 0 0 1 13 0 1 0 1
0 -126 120 -242 0 0 1 13 0 1 0 1
phys
0 -128 112 -174 0 0 1 13 0 1 0 1
0 -126 112 -174 0 0 1 13 0 1 0 1
0 -126 120 -174 0 0 1 13 0 1 0 1
phys
0 -128 112 -174 0 0 1 13 0 1 0 1
0 -126 120 -174 0 0 1 13 0 1 0 1
0 -128 120 -174 0 0 1 13 0 1 0 1
phys
0 344 120 -216.004 0 0 1 14 0 1 0 1
0 344 120 -272 0 0 1 14 0 1 0 1
0 108 120 -272 0 0 1 14 0 1 0 1
phys
0 344 120 -216.004 0 0 1 14 0 1 0 1
0 108 120 -272 0 0 1 14 0 1 0 1
0 108 120 -216.004 0 0 1 14 0 1 0 1
phys
0 344 112 -272 0 0 1 14 0 1 0 1
0 344 112 -208.004 0 0 1 14 0 1 0 1
0 108 112 -208.004 0 0 1 14 0 1 0 1
phys
0 344 112 -272 0 0 1 14 0 1 0 1
0 108 112 -208.004 0 0 1 14 0 1 0 1
0 108 112 -272 0 0 1 14 0 1 0 1
phys
0 108 112 -272 0 0 1 14 0 1 0 1
0 108 112 -208.004 0 0 1 14 0 1 0 1
0 108 120 -216.004 0 0 1 14 0 1 0 1
phys
0 108 112 -272 0 0 1 14 0 1 0 1
0 108 120 -216.004 0 0 1 14 0 1 0 1
0 108 120 -272 0 0 1 14 0 1 0 1
phys
0 344 112 -208.004 0 0 1 14 0 1 0 1
0 344 112 -272 0 0 1 14 0 1 0 1
0 344 120 -272 0 0 1 14 0 1 0 1
phys
0 344 112 -208.004 0 0 1 14 0 1 0 1
0 344 120 -272 0 0 1 14 0 1 0 1
0 344 120 -216.004 0 0 1 14 0 1 0 1
phys
0 344 112 -272 0 0 1 14 0 1 0 1
0 108 112 -272 0 0 1 14 0 1 0 1
0 108 120 -272 0 0 1 14 0 1 0 1
phys
0 344 112 -272 0 0 1 14 0 1 0 1
0 108 120 -272 0 0 1 14 0 1 0 1
0 344 120 -272 0 0 1 14 0 1 0 1
phys
0 108 112 -208.004 0 0 1 14 0 1 0 1
0 344 112 -208.004 0 0 1 14 0 1 0 1
0 344 120 -216.004 0 0 1 14 0 1 0 1
phys
0 108 112 -208.004 0 0 1 14 0 1 0 1
0 344 120 -216.004 0 0 1 14 0 1 0 1
0 108 120 -216.004 0 0 1 14 0 1 0 1
phys
0 104 104 -164 0 0 1 15 0 1 0 1
0 104 112 -164 0 0 1 15 0 1 0 1
0 104 112 -272.5 0 0 1 15 0 1 0 1
phys
0 104 104 -164 0 0 1 15 0 1 0 1
0 104 112 -272.5 0 0 1 15 0 1 0 1
0 104 104 -272.5 0 0 1 15 0 1 0 1
phys
0 108 104 -272.5 0 0 1 15 0 1 0 1
0 108 112 -272.5 0 0 1 15 0 1 0 1
0 108 112 -160 0 0 1 15 0 1 0 1
phys
0 108 104 -272.5 0 0 1 15 0 1 0 1
0 108 112 -160 0 0 1 15 0 1 0 1
0 108 104 -160 0 0 1 15 0 1 0 1
phys
0 104 104 -272.5 0 0 1 15 0 1 0 1
0 104 112 -272.5 0 0 1 15 0 1 0 1
0 108 112 -272.5 0 0 1 15 0 1 0 1
phys
0 104 104 -272.5 0 0 1 15 0 1 0 1
0 108 112 -272.5 0 0 1 15 0 1 0 1
0 108 104 -272.5 0 0 1 15 0 1 0 1
phys
0 108 104 -160 0 0 1 15 0 1 0 1
0 108 112 -160 0 0 1 15 0 1 0 1
0 104 112 -164 0 0 1 15 0 1 0 1
phys
0 108 104 -160 0 0 1 15 0 1 0 1
0 104 112 -164 0 0 1 15 0 1 0 1
0 104 104 -164 0 0 1 15 0 1 0 1
phys
0 108 112 -160 0 0 1 15 0 1 0 1
0 108 112 -272.5 0 0 1 15 0 1 0 1
0 104 112 -272.5 0 0 1 15 0 1 0 1
phys
0 108 112 -160 0 0 1 15 0 1 0 1
0 104 112 -272.5 0 0 1 15 0 1 0 1
0 104 112 -164 0 0 1 15 0 1 0 1
phys
0 108 104 -272.5 0 0 1 15 0 1 0 1
0 108 104 -160 0 0 1 15 0 1 0 1
0 104 104 -164 0 0 1 15 0 1 0 1
phys
0 108 104 -272.5 0 0 1 15 0 1 0 1
0 104 104 -164 0 0 1 15 0 1 0 1
0 104 104 -272.5 0 0 1 15 0 1 0 1
phys
0 -48 120 -172 0 0 1 16 0 1 0 1
0 -48 120 -174 0 0 1 16 0 1 0 1
0 -128 120 -174 0 0 1 16 0 1 0 1
phys
0 -48 120 -172 0 0 1 16 0 1 0 1
0 -128 120 -174 0 0 1 16 0 1 0 1
0 -128 120 -172 0 0 1 16 0 1 0 1
phys
0 -48 112 -174 0 0 1 16 0 1 0 1
0 -48 112 -172 0 0 1 16 0 1 0 1
0 -128 112 -172 0 0 1 16 0 1 0 1
phys
0 -48 112 -174 0 0 1 16 0 1 0 1
0 -128 112 -172 0 0 1 16 0 1 0 1
0 -128 112 -174 0 0 1 16 0 1 0 1
phys
0 -128 112 -174 0 0 1 16 0 1 0 1
0 -128 112 -172 0 0 1 16 0 1 0 1
0 -128 120 -172 0 0 1 16 0 1 0 1
phys
0 -128 112 -174 0 0 1 16 0 1 0 1
0 -128 120 -172 0 0 1 16 0 1 0 1
0 -128 120 -174 0 0 1 16 0 1 0 1
phys
0 -48 112 -172 0 0 1 16 0 1 0 1
0 -48 112 -174 0 0 1 16 0 1 0 1
0 -48 120 -174 0 0 1 16 0 1 0 1
phys
0 -48 112 -172 0 0 1 16 0 1 0 1
0 -48 120 -174 0 0 1 16 0 1 0 1
0 -48 120 -172 0 0 1 16 0 1 0 1
phys
0 -48 112 -174 0 0 1 16 0 1 0 1
0 -128 112 -174 0 0 1 16 0 1 0 1
0 -128 120 -174 0 0 1 16 0 1 0 1
phys
0 -48 112 -174 0 0 1 16 0 1 0 1
0 -128 120 -174 0 0 1 16 0 1 0 1
0 -48 120 -174 0 0 1 16 0 1 0 1
phys
0 -128 112 -172 0 0 1 16 0 1 0 1
0 -48 112 -172 0 0 1 16 0 1 0 1
0 -48 120 -172 0 0 1 16 0 1 0 1
phys
0 -128 112 -172 0 0 1 16 0 1 0 1
0 -48 120 -172 0 0 1 16 0 1 0 1
0 -128 120 -172 0 0 1 16 0 1 0 1
phys
0 -87 120 -174 0 0 1 17 0 1 0 1
0 -87 120 -242 0 0 1 17 0 1 0 1
0 -89 120 -242 0 0 1 17 0 1 0 1
phys
0 -87 120 -174 0 0 1 17 0 1 0 1
0 -89 120 -242 0 0 1 17 0 1 0 1
0 -89 120 -174 0 0 1 17 0 1 0 1
phys
0 -87 116 -242 0 0 1 17 0 1 0 1
0 -87 116 -174 0 0 1 17 0 1 0 1
0 -89 116 -174 0 0 1 17 0 1 0 1
phys
0 -87 116 -242 0 0 1 17 0 1 0 1
0 -89 116 -174 0 0 1 17 0 1 0 1
0 -89 116 -242 0 0 1 17 0 1 0 1
phys
0 -89 116 -242 0 0 1 17 0 1 0 1
0 -89 116 -174 0 0 1 17 0 1 0 1
0 -89 120 -174 0 0 1 17 0 1 0 1
phys
0 -89 116 -242 0 0 1 17 0 1 0 1
0 -89 120 -174 0 0 1 17 0 1 0 1
0 -89 120 -242 0 0 1 17 0 1 0 1
phys
0 -87 116 -174 0 0 1 17 0 1 0 1
0 -87 116 -242 0 0 1 17 0 1 0 1
0 -87 120 -242 0 0 1 17 0 1 0 1
phys
0 -87 116 -174 0 0 1 17 0 1 0 1
0 -87 120 -242 0 0 1 17 0 1 0 1
0 -87 120 -174 0 0 1 17 0 1 0 1
phys
0 -87 116 -242 0 0 1 17 0 1 0 1
0 -89 116 -242 0 0 1 17 0 1 0 1
0 -89 120 -242 0 0 1 17 0 1 0 1
phys
0 -87 116 -242 0 0 1 17 0 1 0 1
0 -89 120 -242 0 0 1 17 0 1 0 1
0 -87 120 -242 0 0 1 17 0 1 0 1
phys
0 -89 116 -174 0 0 1 17 0 1 0 1
0 -87 116 -174 0 0 1 17 0 1 0 1
0 -87 120 -174 0 0 1 17 0 1 0 1
phys
0 -89 116 -174 0 0 1 17 0 1 0 1
0 -87 120 -174 0 0 1 17 0 1 0 1
0 -89 120 -174 0 0 1 17 0 1 0 1
end
