version 1
nodes
0 "root" -1
end
skeleton
time 0
0 0 0 0 0 0 0
end
triangles
phys
0 -249 -66 90 0 0 1 1 0 1 0 1
0 -168 -66 90 0 0 1 1 0 1 0 1
0 -168 -50 90 0 0 1 1 0 1 0 1
phys
0 -249 -66 90 0 0 1 1 0 1 0 1
0 -168 -50 90 0 0 1 1 0 1 0 1
0 -249 -50 90 0 0 1 1 0 1 0 1
phys
0 -168 -66 82 0 0 1 1 0 1 0 1
0 -249 -66 82 0 0 1 1 0 1 0 1
0 -249 -50 90 0 0 1 1 0 1 0 1
phys
0 -168 -66 82 0 0 1 1 0 1 0 1
0 -249 -50 90 0 0 1 1 0 1 0 1
0 -168 -50 90 0 0 1 1 0 1 0 1
phys
0 -168 -66 90 0 0 1 1 0 1 0 1
0 -249 -66 90 0 0 1 1 0 1 0 1
0 -249 -66 82 0 0 1 1 0 1 0 1
phys
0 -168 -66 90 0 0 1 1 0 1 0 1
0 -249 -66 82 0 0 1 1 0 1 0 1
0 -168 -66 82 0 0 1 1 0 1 0 1
phys
0 -249 -66 90 0 0 1 1 0 1 0 1
0 -249 -50 90 0 0 1 1 0 1 0 1
0 -249 -66 82 0 0 1 1 0 1 0 1
phys
0 -168 -66 82 0 0 1 1 0 1 0 1
0 -168 -50 90 0 0 1 1 0 1 0 1
0 -168 -66 90 0 0 1 1 0 1 0 1
phys
0 253 205 133 0 0 1 2 0 1 0 1
0 253 205 0 0 0 1 2 0 1 0 1
0 90 205 0 0 0 1 2 0 1 0 1
phys
0 253 205 133 0 0 1 2 0 1 0 1
0 90 205 0 0 0 1 2 0 1 0 1
0 90 205 133 0 0 1 2 0 1 0 1
phys
0 253 195 0 0 0 1 2 0 1 0 1
0 253 195 133 0 0 1 2 0 1 0 1
0 90 195 133 0 0 1 2 0 1 0 1
phys
0 253 195 0 0 0 1 2 0 1 0 1
0 90 195 133 0 0 1 2 0 1 0 1
0 90 195 0 0 0 1 2 0 1 0 1
phys
0 90 195 0 0 0 1 2 0 1 0 1
0 90 195 133 0 0 1 2 0 1 0 1
0 90 205 133 0 0 1 2 0 1 0 1
phys
0 90 195 0 0 0 1 2 0 1 0 1
0 90 205 133 0 0 1 2 0 1 0 1
0 90 205 0 0 0 1 2 0 1 0 1
phys
0 253 195 133 0 0 1 2 0 1 0 1
0 253 195 0 0 0 1 2 0 1 0 1
0 253 205 0 0 0 1 2 0 1 0 1
phys
0 253 195 133 0 0 1 2 0 1 0 1
0 253 205 0 0 0 1 2 0 1 0 1
0 253 205 133 0 0 1 2 0 1 0 1
phys
0 253 195 0 0 0 1 2 0 1 0 1
0 90 195 0 0 0 1 2 0 1 0 1
0 90 205 0 0 0 1 2 0 1 0 1
phys
0 253 195 0 0 0 1 2 0 1 0 1
0 90 205 0 0 0 1 2 0 1 0 1
0 253 205 0 0 0 1 2 0 1 0 1
phys
0 90 195 133 0 0 1 2 0 1 0 1
0 253 195 133 0 0 1 2 0 1 0 1
0 253 205 133 0 0 1 2 0 1 0 1
phys
0 90 195 133 0 0 1 2 0 1 0 1
0 253 205 133 0 0 1 2 0 1 0 1
0 90 205 133 0 0 1 2 0 1 0 1
phys
0 90 127 118.001 0 0 1 3 0 1 0 1
0 90 127 10 0 0 1 3 0 1 0 1
0 80 127 10 0 0 1 3 0 1 0 1
phys
0 90 127 118.001 0 0 1 3 0 1 0 1
0 80 127 10 0 0 1 3 0 1 0 1
0 80 127 118.001 0 0 1 3 0 1 0 1
phys
0 90 123 10 0 0 1 3 0 1 0 1
0 90 123 122.001 0 0 1 3 0 1 0 1
0 80 123 122.001 0 0 1 3 0 1 0 1
phys
0 90 123 10 0 0 1 3 0 1 0 1
0 80 123 122.001 0 0 1 3 0 1 0 1
0 80 123 10 0 0 1 3 0 1 0 1
phys
0 80 123 10 0 0 1 3 0 1 0 1
0 80 123 122.001 0 0 1 3 0 1 0 1
0 80 127 118.001 0 0 1 3 0 1 0 1
phys
0 80 123 10 0 0 1 3 0 1 0 1
0 80 127 118.001 0 0 1 3 0 1 0 1
0 80 127 10 0 0 1 3 0 1 0 1
phys
0 90 123 122.001 0 0 1 3 0 1 0 1
0 90 123 10 0 0 1 3 0 1 0 1
0 90 127 10 0 0 1 3 0 1 0 1
phys
0 90 123 122.001 0 0 1 3 0 1 0 1
0 90 127 10 0 0 1 3 0 1 0 1
0 90 127 118.001 0 0 1 3 0 1 0 1
phys
0 90 123 10 0 0 1 3 0 1 0 1
0 80 123 10 0 0 1 3 0 1 0 1
0 80 127 10 0 0 1 3 0 1 0 1
phys
0 90 123 10 0 0 1 3 0 1 0 1
0 80 127 10 0 0 1 3 0 1 0 1
0 90 127 10 0 0 1 3 0 1 0 1
phys
0 80 123 122.001 0 0 1 3 0 1 0 1
0 90 123 122.001 0 0 1 3 0 1 0 1
0 90 127 118.001 0 0 1 3 0 1 0 1
phys
0 80 123 122.001 0 0 1 3 0 1 0 1
0 90 127 118.001 0 0 1 3 0 1 0 1
0 80 127 118.001 0 0 1 3 0 1 0 1
phys
0 -249 46 146 0 0 1 4 0 1 0 1
0 -249 62 146 0 0 1 4 0 1 0 1
0 -249 46 138 0 0 1 4 0 1 0 1
phys
0 -168 46 138 0 0 1 4 0 1 0 1
0 -168 62 146 0 0 1 4 0 1 0 1
0 -168 46 146 0 0 1 4 0 1 0 1
phys
0 -168 46 146 0 0 1 4 0 1 0 1
0 -168 62 146 0 0 1 4 0 1 0 1
0 -249 62 146 0 0 1 4 0 1 0 1
phys
0 -168 46 146 0 0 1 4 0 1 0 1
0 -249 62 146 0 0 1 4 0 1 0 1
0 -249 46 146 0 0 1 4 0 1 0 1
phys
0 -249 46 138 0 0 1 4 0 1 0 1
0 -249 62 146 0 0 1 4 0 1 0 1
0 -168 62 146 0 0 1 4 0 1 0 1
phys
0 -249 46 138 0 0 1 4 0 1 0 1
0 -168 62 146 0 0 1 4 0 1 0 1
0 -168 46 138 0 0 1 4 0 1 0 1
phys
0 -168 46 138 0 0 1 4 0 1 0 1
0 -168 46 146 0 0 1 4 0 1 0 1
0 -249 46 146 0 0 1 4 0 1 0 1
phys
0 -168 46 138 0 0 1 4 0 1 0 1
0 -249 46 146 0 0 1 4 0 1 0 1
0 -249 46 138 0 0 1 4 0 1 0 1
phys
0 90 -21 288 0 0 1 5 0 1 0 1
0 90 -21 276 0 0 1 5 0 1 0 1
0 80 -21 276 0 0 1 5 0 1 0 1
phys
0 90 -21 288 0 0 1 5 0 1 0 1
0 80 -21 276 0 0 1 5 0 1 0 1
0 80 -21 288 0 0 1 5 0 1 0 1
phys
0 90 -137 276 0 0 1 5 0 1 0 1
0 90 -137 288 0 0 1 5 0 1 0 1
0 80 -137 288 0 0 1 5 0 1 0 1
phys
0 90 -137 276 0 0 1 5 0 1 0 1
0 80 -137 288 0 0 1 5 0 1 0 1
0 80 -137 276 0 0 1 5 0 1 0 1
phys
0 80 -137 276 0 0 1 5 0 1 0 1
0 80 -137 288 0 0 1 5 0 1 0 1
0 80 -21 288 0 0 1 5 0 1 0 1
phys
0 80 -137 276 0 0 1 5 0 1 0 1
0 80 -21 288 0 0 1 5 0 1 0 1
0 80 -21 276 0 0 1 5 0 1 0 1
phys
0 90 -137 288 0 0 1 5 0 1 0 1
0 90 -137 276 0 0 1 5 0 1 0 1
0 90 -21 276 0 0 1 5 0 1 0 1
phys
0 90 -137 288 0 0 1 5 0 1 0 1
0 90 -21 276 0 0 1 5 0 1 0 1
0 90 -21 288 0 0 1 5 0 1 0 1
phys
0 90 -137 276 0 0 1 5 0 1 0 1
0 80 -137 276 0 0 1 5 0 1 0 1
0 80 -21 276 0 0 1 5 0 1 0 1
phys
0 90 -137 276 0 0 1 5 0 1 0 1
0 80 -21 276 0 0 1 5 0 1 0 1
0 90 -21 276 0 0 1 5 0 1 0 1
phys
0 80 -137 288 0 0 1 5 0 1 0 1
0 90 -137 288 0 0 1 5 0 1 0 1
0 90 -21 288 0 0 1 5 0 1 0 1
phys
0 80 -137 288 0 0 1 5 0 1 0 1
0 90 -21 288 0 0 1 5 0 1 0 1
0 80 -21 288 0 0 1 5 0 1 0 1
phys
0 -168 62 146 0 0 1 6 0 1 0 1
0 -168 62 154 0 0 1 6 0 1 0 1
0 -249 62 154 0 0 1 6 0 1 0 1
phys
0 -168 62 146 0 0 1 6 0 1 0 1
0 -249 62 154 0 0 1 6 0 1 0 1
0 -249 62 146 0 0 1 6 0 1 0 1
phys
0 -249 62 146 0 0 1 6 0 1 0 1
0 -249 62 154 0 0 1 6 0 1 0 1
0 -249 78 154 0 0 1 6 0 1 0 1
phys
0 -168 62 154 0 0 1 6 0 1 0 1
0 -168 62 146 0 0 1 6 0 1 0 1
0 -168 78 154 0 0 1 6 0 1 0 1
phys
0 -249 62 154 0 0 1 6 0 1 0 1
0 -168 62 154 0 0 1 6 0 1 0 1
0 -168 78 154 0 0 1 6 0 1 0 1
phys
0 -249 62 154 0 0 1 6 0 1 0 1
0 -168 78 154 0 0 1 6 0 1 0 1
0 -249 78 154 0 0 1 6 0 1 0 1
phys
0 -168 62 146 0 0 1 6 0 1 0 1
0 -249 62 146 0 0 1 6 0 1 0 1
0 -249 78 154 0 0 1 6 0 1 0 1
phys
0 -168 62 146 0 0 1 6 0 1 0 1
0 -249 78 154 0 0 1 6 0 1 0 1
0 -168 78 154 0 0 1 6 0 1 0 1
phys
0 -84 -134 18 0 0 1 7 0 1 0 1
0 -84 -134 10 0 0 1 7 0 1 0 1
0 -100 -134 18 0 0 1 7 0 1 0 1
phys
0 -84 -215 10 0 0 1 7 0 1 0 1
0 -84 -215 18 0 0 1 7 0 1 0 1
0 -100 -215 18 0 0 1 7 0 1 0 1
phys
0 -84 -215 18 0 0 1 7 0 1 0 1
0 -84 -215 10 0 0 1 7 0 1 0 1
0 -84 -134 10 0 0 1 7 0 1 0 1
phys
0 -84 -215 18 0 0 1 7 0 1 0 1
0 -84 -134 10 0 0 1 7 0 1 0 1
0 -84 -134 18 0 0 1 7 0 1 0 1
phys
0 -100 -215 18 0 0 1 7 0 1 0 1
0 -84 -215 18 0 0 1 7 0 1 0 1
0 -84 -134 18 0 0 1 7 0 1 0 1
phys
0 -100 -215 18 0 0 1 7 0 1 0 1
0 -84 -134 18 0 0 1 7 0 1 0 1
0 -100 -134 18 0 0 1 7 0 1 0 1
phys
0 -84 -215 10 0 0 1 7 0 1 0 1
0 -100 -215 18 0 0 1 7 0 1 0 1
0 -100 -134 18 0 0 1 7 0 1 0 1
phys
0 -84 -215 10 0 0 1 7 0 1 0 1
0 -100 -134 18 0 0 1 7 0 1 0 1
0 -84 -134 10 0 0 1 7 0 1 0 1
phys
0 90 179 122.025 0 0 1 8 0 1 0 1
0 90 179 10 0 0 1 8 0 1 0 1
0 80 179 10 0 0 1 8 0 1 0 1
phys
0 90 179 122.025 0 0 1 8 0 1 0 1
0 80 179 10 0 0 1 8 0 1 0 1
0 80 179 122 0 0 1 8 0 1 0 1
phys
0 90 175 10 0 0 1 8 0 1 0 1
0 90 175 118.038 0 0 1 8 0 1 0 1
0 80 175 118.013 0 0 1 8 0 1 0 1
phys
0 90 175 10 0 0 1 8 0 1 0 1
0 80 175 118.013 0 0 1 8 0 1 0 1
0 80 175 10 0 0 1 8 0 1 0 1
phys
0 80 175 10 0 0 1 8 0 1 0 1
0 80 175 118.013 0 0 1 8 0 1 0 1
0 80 179 122 0 0 1 8 0 1 0 1
phys
0 80 175 10 0 0 1 8 0 1 0 1
0 80 179 122 0 0 1 8 0 1 0 1
0 80 179 10 0 0 1 8 0 1 0 1
phys
0 90 175 118.038 0 0 1 8 0 1 0 1
0 90 175 10 0 0 1 8 0 1 0 1
0 90 179 10 0 0 1 8 0 1 0 1
phys
0 90 175 118.038 0 0 1 8 0 1 0 1
0 90 179 10 0 0 1 8 0 1 0 1
0 90 179 122.025 0 0 1 8 0 1 0 1
phys
0 90 175 10 0 0 1 8 0 1 0 1
0 80 175 10 0 0 1 8 0 1 0 1
0 80 179 10 0 0 1 8 0 1 0 1
phys
0 90 175 10 0 0 1 8 0 1 0 1
0 80 179 10 0 0 1 8 0 1 0 1
0 90 179 10 0 0 1 8 0 1 0 1
phys
0 80 175 118.013 0 0 1 8 0 1 0 1
0 90 175 118.038 0 0 1 8 0 1 0 1
0 90 179 122.025 0 0 1 8 0 1 0 1
phys
0 80 175 118.013 0 0 1 8 0 1 0 1
0 90 179 122.025 0 0 1 8 0 1 0 1
0 80 179 122 0 0 1 8 0 1 0 1
phys
0 -168 -34 98 0 0 1 9 0 1 0 1
0 -249 -34 98 0 0 1 9 0 1 0 1
0 -249 -18 106 0 0 1 9 0 1 0 1
phys
0 -168 -34 98 0 0 1 9 0 1 0 1
0 -249 -18 106 0 0 1 9 0 1 0 1
0 -168 -18 106 0 0 1 9 0 1 0 1
phys
0 -249 -34 106 0 0 1 9 0 1 0 1
0 -249 -34 98 0 0 1 9 0 1 0 1
0 -168 -34 98 0 0 1 9 0 1 0 1
phys
0 -249 -34 106 0 0 1 9 0 1 0 1
0 -168 -34 98 0 0 1 9 0 1 0 1
0 -168 -34 106 0 0 1 9 0 1 0 1
phys
0 -249 -18 106 0 0 1 9 0 1 0 1
0 -249 -34 98 0 0 1 9 0 1 0 1
0 -249 -34 106 0 0 1 9 0 1 0 1
phys
0 -168 -34 106 0 0 1 9 0 1 0 1
0 -168 -34 98 0 0 1 9 0 1 0 1
0 -168 -18 106 0 0 1 9 0 1 0 1
phys
0 -249 -34 106 0 0 1 9 0 1 0 1
0 -168 -34 106 0 0 1 9 0 1 0 1
0 -168 -18 106 0 0 1 9 0 1 0 1
phys
0 -249 -34 106 0 0 1 9 0 1 0 1
0 -168 -18 106 0 0 1 9 0 1 0 1
0 -249 -18 106 0 0 1 9 0 1 0 1
phys
0 -168 30 130 0 0 1 10 0 1 0 1
0 -168 30 138 0 0 1 10 0 1 0 1
0 -249 30 138 0 0 1 10 0 1 0 1
phys
0 -168 30 130 0 0 1 10 0 1 0 1
0 -249 30 138 0 0 1 10 0 1 0 1
0 -249 30 130 0 0 1 10 0 1 0 1
phys
0 -249 30 130 0 0 1 10 0 1 0 1
0 -249 30 138 0 0 1 10 0 1 0 1
0 -249 46 138 0 0 1 10 0 1 0 1
phys
0 -168 30 138 0 0 1 10 0 1 0 1
0 -168 30 130 0 0 1 10 0 1 0 1
0 -168 46 138 0 0 1 10 0 1 0 1
phys
0 -249 30 138 0 0 1 10 0 1 0 1
0 -168 30 138 0 0 1 10 0 1 0 1
0 -168 46 138 0 0 1 10 0 1 0 1
phys
0 -249 30 138 0 0 1 10 0 1 0 1
0 -168 46 138 0 0 1 10 0 1 0 1
0 -249 46 138 0 0 1 10 0 1 0 1
phys
0 -168 30 130 0 0 1 10 0 1 0 1
0 -249 30 130 0 0 1 10 0 1 0 1
0 -249 46 138 0 0 1 10 0 1 0 1
phys
0 -168 30 130 0 0 1 10 0 1 0 1
0 -249 46 138 0 0 1 10 0 1 0 1
0 -168 46 138 0 0 1 10 0 1 0 1
phys
0 -164 -130 10 0 0 1 11 0 1 0 1
0 -84 -130 10 0 0 1 11 0 1 0 1
0 -84 -219 10 0 0 1 11 0 1 0 1
phys
0 -164 -130 10 0 0 1 11 0 1 0 1
0 -84 -219 10 0 0 1 11 0 1 0 1
0 -164 -219 10 0 0 1 11 0 1 0 1
phys
0 -164 -219 50 0 0 1 11 0 1 0 1
0 -84 -219 10 0 0 1 11 0 1 0 1
0 -84 -130 10 0 0 1 11 0 1 0 1
phys
0 -164 -219 50 0 0 1 11 0 1 0 1
0 -84 -130 10 0 0 1 11 0 1 0 1
0 -164 -130 50 0 0 1 11 0 1 0 1
phys
0 -84 -130 10 0 0 1 11 0 1 0 1
0 -164 -130 10 0 0 1 11 0 1 0 1
0 -164 -130 50 0 0 1 11 0 1 0 1
phys
0 -164 -219 10 0 0 1 11 0 1 0 1
0 -84 -219 10 0 0 1 11 0 1 0 1
0 -164 -219 50 0 0 1 11 0 1 0 1
phys
0 -164 -219 50 0 0 1 11 0 1 0 1
0 -164 -130 50 0 0 1 11 0 1 0 1
0 -164 -130 10 0 0 1 11 0 1 0 1
phys
0 -164 -219 50 0 0 1 11 0 1 0 1
0 -164 -130 10 0 0 1 11 0 1 0 1
0 -164 -219 10 0 0 1 11 0 1 0 1
phys
0 80 80 150 0 0 1 12 0 1 0 1
0 80 80 140 0 0 1 12 0 1 0 1
0 -154 80 140 0 0 1 12 0 1 0 1
phys
0 80 80 150 0 0 1 12 0 1 0 1
0 -154 80 140 0 0 1 12 0 1 0 1
0 -154 80 150 0 0 1 12 0 1 0 1
phys
0 80 70 140 0 0 1 12 0 1 0 1
0 80 70 150 0 0 1 12 0 1 0 1
0 -154 70 150 0 0 1 12 0 1 0 1
phys
0 80 70 140 0 0 1 12 0 1 0 1
0 -154 70 150 0 0 1 12 0 1 0 1
0 -154 70 140 0 0 1 12 0 1 0 1
phys
0 -154 70 140 0 0 1 12 0 1 0 1
0 -154 70 150 0 0 1 12 0 1 0 1
0 -154 80 150 0 0 1 12 0 1 0 1
phys
0 -154 70 140 0 0 1 12 0 1 0 1
0 -154 80 150 0 0 1 12 0 1 0 1
0 -154 80 140 0 0 1 12 0 1 0 1
phys
0 80 70 150 0 0 1 12 0 1 0 1
0 80 70 140 0 0 1 12 0 1 0 1
0 80 80 140 0 0 1 12 0 1 0 1
phys
0 80 70 150 0 0 1 12 0 1 0 1
0 80 80 140 0 0 1 12 0 1 0 1
0 80 80 150 0 0 1 12 0 1 0 1
phys
0 80 70 140 0 0 1 12 0 1 0 1
0 -154 70 140 0 0 1 12 0 1 0 1
0 -154 80 140 0 0 1 12 0 1 0 1
phys
0 80 70 140 0 0 1 12 0 1 0 1
0 -154 80 140 0 0 1 12 0 1 0 1
0 80 80 140 0 0 1 12 0 1 0 1
phys
0 -154 70 150 0 0 1 12 0 1 0 1
0 80 70 150 0 0 1 12 0 1 0 1
0 80 80 150 0 0 1 12 0 1 0 1
phys
0 -154 70 150 0 0 1 12 0 1 0 1
0 80 80 150 0 0 1 12 0 1 0 1
0 -154 80 150 0 0 1 12 0 1 0 1
phys
0 -131 70 267.997 0 0 1 13 0 1 0 1
0 -131 70 160 0 0 1 13 0 1 0 1
0 -135 70 160 0 0 1 13 0 1 0 1
phys
0 -131 70 267.997 0 0 1 13 0 1 0 1
0 -135 70 160 0 0 1 13 0 1 0 1
0 -135 70 271.997 0 0 1 13 0 1 0 1
phys
0 -131 60 160 0 0 1 13 0 1 0 1
0 -131 60 267.997 0 0 1 13 0 1 0 1
0 -135 60 271.997 0 0 1 13 0 1 0 1
phys
0 -131 60 160 0 0 1 13 0 1 0 1
0 -135 60 271.997 0 0 1 13 0 1 0 1
0 -135 60 160 0 0 1 13 0 1 0 1
phys
0 -135 60 160 0 0 1 13 0 1 0 1
0 -135 60 271.997 0 0 1 13 0 1 0 1
0 -135 70 271.997 0 0 1 13 0 1 0 1
phys
0 -135 60 160 0 0 1 13 0 1 0 1
0 -135 70 271.997 0 0 1 13 0 1 0 1
0 -135 70 160 0 0 1 13 0 1 0 1
phys
0 -131 60 267.997 0 0 1 13 0 1 0 1
0 -131 60 160 0 0 1 13 0 1 0 1
0 -131 70 160 0 0 1 13 0 1 0 1
phys
0 -131 60 267.997 0 0 1 13 0 1 0 1
0 -131 70 160 0 0 1 13 0 1 0 1
0 -131 70 267.997 0 0 1 13 0 1 0 1
phys
0 -131 60 160 0 0 1 13 0 1 0 1
0 -135 60 160 0 0 1 13 0 1 0 1
0 -135 70 160 0 0 1 13 0 1 0 1
phys
0 -131 60 160 0 0 1 13 0 1 0 1
0 -135 70 160 0 0 1 13 0 1 0 1
0 -131 70 160 0 0 1 13 0 1 0 1
phys
0 -135 60 271.997 0 0 1 13 0 1 0 1
0 -131 60 267.997 0 0 1 13 0 1 0 1
0 -131 70 267.997 0 0 1 13 0 1 0 1
phys
0 -135 60 271.997 0 0 1 13 0 1 0 1
0 -131 70 267.997 0 0 1 13 0 1 0 1
0 -135 70 271.997 0 0 1 13 0 1 0 1
phys
0 80 -169 278 0 0 1 14 0 1 0 1
0 -154 -169 278 0 0 1 14 0 1 0 1
0 -154 -159 278 0 0 1 14 0 1 0 1
phys
0 80 -169 278 0 0 1 14 0 1 0 1
0 -154 -159 278 0 0 1 14 0 1 0 1
0 80 -159 278 0 0 1 14 0 1 0 1
phys
0 -154 -169 288 0 0 1 14 0 1 0 1
0 80 -169 288 0 0 1 14 0 1 0 1
0 80 -159 288 0 0 1 14 0 1 0 1
phys
0 -154 -169 288 0 0 1 14 0 1 0 1
0 80 -159 288 0 0 1 14 0 1 0 1
0 -154 -159 288 0 0 1 14 0 1 0 1
phys
0 80 -159 278 0 0 1 14 0 1 0 1
0 -154 -159 278 0 0 1 14 0 1 0 1
0 -154 -159 288 0 0 1 14 0 1 0 1
phys
0 80 -159 278 0 0 1 14 0 1 0 1
0 -154 -159 288 0 0 1 14 0 1 0 1
0 80 -159 288 0 0 1 14 0 1 0 1
phys
0 80 -169 288 0 0 1 14 0 1 0 1
0 -154 -169 288 0 0 1 14 0 1 0 1
0 -154 -169 278 0 0 1 14 0 1 0 1
phys
0 80 -169 288 0 0 1 14 0 1 0 1
0 -154 -169 278 0 0 1 14 0 1 0 1
0 80 -169 278 0 0 1 14 0 1 0 1
phys
0 -154 -169 288 0 0 1 14 0 1 0 1
0 -154 -159 288 0 0 1 14 0 1 0 1
0 -154 -159 278 0 0 1 14 0 1 0 1
phys
0 -154 -169 288 0 0 1 14 0 1 0 1
0 -154 -159 278 0 0 1 14 0 1 0 1
0 -154 -169 278 0 0 1 14 0 1 0 1
phys
0 80 -169 278 0 0 1 14 0 1 0 1
0 80 -159 278 0 0 1 14 0 1 0 1
0 80 -159 288 0 0 1 14 0 1 0 1
phys
0 80 -169 278 0 0 1 14 0 1 0 1
0 80 -159 288 0 0 1 14 0 1 0 1
0 80 -169 288 0 0 1 14 0 1 0 1
phys
0 80 -120 150 0 0 1 15 0 1 0 1
0 80 -120 140 0 0 1 15 0 1 0 1
0 -154 -120 140 0 0 1 15 0 1 0 1
phys
0 80 -120 150 0 0 1 15 0 1 0 1
0 -154 -120 140 0 0 1 15 0 1 0 1
0 -154 -120 150 0 0 1 15 0 1 0 1
phys
0 80 -130 140 0 0 1 15 0 1 0 1
0 80 -130 150 0 0 1 15 0 1 0 1
0 -154 -130 150 0 0 1 15 0 1 0 1
phys
0 80 -130 140 0 0 1 15 0 1 0 1
0 -154 -130 150 0 0 1 15 0 1 0 1
0 -154 -130 140 0 0 1 15 0 1 0 1
phys
0 -154 -130 140 0 0 1 15 0 1 0 1
0 -154 -130 150 0 0 1 15 0 1 0 1
0 -154 -120 150 0 0 1 15 0 1 0 1
phys
0 -154 -130 140 0 0 1 15 0 1 0 1
0 -154 -120 150 0 0 1 15 0 1 0 1
0 -154 -120 140 0 0 1 15 0 1 0 1
phys
0 80 -130 150 0 0 1 15 0 1 0 1
0 80 -130 140 0 0 1 15 0 1 0 1
0 80 -120 140 0 0 1 15 0 1 0 1
phys
0 80 -130 150 0 0 1 15 0 1 0 1
0 80 -120 140 0 0 1 15 0 1 0 1
0 80 -120 150 0 0 1 15 0 1 0 1
phys
0 80 -130 140 0 0 1 15 0 1 0 1
0 -154 -130 140 0 0 1 15 0 1 0 1
0 -154 -120 140 0 0 1 15 0 1 0 1
phys
0 80 -130 140 0 0 1 15 0 1 0 1
0 -154 -120 140 0 0 1 15 0 1 0 1
0 80 -120 140 0 0 1 15 0 1 0 1
phys
0 -154 -130 150 0 0 1 15 0 1 0 1
0 80 -130 150 0 0 1 15 0 1 0 1
0 80 -120 150 0 0 1 15 0 1 0 1
phys
0 -154 -130 150 0 0 1 15 0 1 0 1
0 80 -120 150 0 0 1 15 0 1 0 1
0 -154 -120 150 0 0 1 15 0 1 0 1
phys
0 90 -137 202 0 0 1 16 0 1 0 1
0 80 -137 202 0 0 1 16 0 1 0 1
0 80 -21 202 0 0 1 16 0 1 0 1
phys
0 90 -137 202 0 0 1 16 0 1 0 1
0 80 -21 202 0 0 1 16 0 1 0 1
0 90 -21 202 0 0 1 16 0 1 0 1
phys
0 80 -137 207 0 0 1 16 0 1 0 1
0 90 -137 207 0 0 1 16 0 1 0 1
0 90 -21 207 0 0 1 16 0 1 0 1
phys
0 80 -137 207 0 0 1 16 0 1 0 1
0 90 -21 207 0 0 1 16 0 1 0 1
0 80 -21 207 0 0 1 16 0 1 0 1
phys
0 90 -21 202 0 0 1 16 0 1 0 1
0 80 -21 202 0 0 1 16 0 1 0 1
0 80 -21 207 0 0 1 16 0 1 0 1
phys
0 90 -21 202 0 0 1 16 0 1 0 1
0 80 -21 207 0 0 1 16 0 1 0 1
0 90 -21 207 0 0 1 16 0 1 0 1
phys
0 90 -137 207 0 0 1 16 0 1 0 1
0 80 -137 207 0 0 1 16 0 1 0 1
0 80 -137 202 0 0 1 16 0 1 0 1
phys
0 90 -137 207 0 0 1 16 0 1 0 1
0 80 -137 202 0 0 1 16 0 1 0 1
0 90 -137 202 0 0 1 16 0 1 0 1
phys
0 80 -137 207 0 0 1 16 0 1 0 1
0 80 -21 207 0 0 1 16 0 1 0 1
0 80 -21 202 0 0 1 16 0 1 0 1
phys
0 80 -137 207 0 0 1 16 0 1 0 1
0 80 -21 202 0 0 1 16 0 1 0 1
0 80 -137 202 0 0 1 16 0 1 0 1
phys
0 90 -137 202 0 0 1 16 0 1 0 1
0 90 -21 202 0 0 1 16 0 1 0 1
0 90 -21 207 0 0 1 16 0 1 0 1
phys
0 90 -137 202 0 0 1 16 0 1 0 1
0 90 -21 207 0 0 1 16 0 1 0 1
0 90 -137 207 0 0 1 16 0 1 0 1
phys
0 -132 -134 42 0 0 1 17 0 1 0 1
0 -132 -134 34 0 0 1 17 0 1 0 1
0 -148 -134 42 0 0 1 17 0 1 0 1
phys
0 -132 -215 34 0 0 1 17 0 1 0 1
0 -132 -215 42 0 0 1 17 0 1 0 1
0 -148 -215 42 0 0 1 17 0 1 0 1
phys
0 -132 -215 42 0 0 1 17 0 1 0 1
0 -132 -215 34 0 0 1 17 0 1 0 1
0 -132 -134 34 0 0 1 17 0 1 0 1
phys
0 -132 -215 42 0 0 1 17 0 1 0 1
0 -132 -134 34 0 0 1 17 0 1 0 1
0 -132 -134 42 0 0 1 17 0 1 0 1
phys
0 -148 -215 42 0 0 1 17 0 1 0 1
0 -132 -215 42 0 0 1 17 0 1 0 1
0 -132 -134 42 0 0 1 17 0 1 0 1
phys
0 -148 -215 42 0 0 1 17 0 1 0 1
0 -132 -134 42 0 0 1 17 0 1 0 1
0 -148 -134 42 0 0 1 17 0 1 0 1
phys
0 -132 -215 34 0 0 1 17 0 1 0 1
0 -148 -215 42 0 0 1 17 0 1 0 1
0 -148 -134 42 0 0 1 17 0 1 0 1
phys
0 -132 -215 34 0 0 1 17 0 1 0 1
0 -148 -134 42 0 0 1 17 0 1 0 1
0 -132 -134 34 0 0 1 17 0 1 0 1
phys
0 90 -21 244 0 0 1 18 0 1 0 1
0 90 -21 239 0 0 1 18 0 1 0 1
0 80 -21 239 0 0 1 18 0 1 0 1
phys
0 90 -21 244 0 0 1 18 0 1 0 1
0 80 -21 239 0 0 1 18 0 1 0 1
0 80 -21 244 0 0 1 18 0 1 0 1
phys
0 90 -137 239 0 0 1 18 0 1 0 1
0 90 -137 244 0 0 1 18 0 1 0 1
0 80 -137 244 0 0 1 18 0 1 0 1
phys
0 90 -137 239 0 0 1 18 0 1 0 1
0 80 -137 244 0 0 1 18 0 1 0 1
0 80 -137 239 0 0 1 18 0 1 0 1
phys
0 80 -137 239 0 0 1 18 0 1 0 1
0 80 -137 244 0 0 1 18 0 1 0 1
0 80 -21 244 0 0 1 18 0 1 0 1
phys
0 80 -137 239 0 0 1 18 0 1 0 1
0 80 -21 244 0 0 1 18 0 1 0 1
0 80 -21 239 0 0 1 18 0 1 0 1
phys
0 90 -137 244 0 0 1 18 0 1 0 1
0 90 -137 239 0 0 1 18 0 1 0 1
0 90 -21 239 0 0 1 18 0 1 0 1
phys
0 90 -137 244 0 0 1 18 0 1 0 1
0 90 -21 239 0 0 1 18 0 1 0 1
0 90 -21 244 0 0 1 18 0 1 0 1
phys
0 90 -137 239 0 0 1 18 0 1 0 1
0 80 -137 239 0 0 1 18 0 1 0 1
0 80 -21 239 0 0 1 18 0 1 0 1
phys
0 90 -137 239 0 0 1 18 0 1 0 1
0 80 -21 239 0 0 1 18 0 1 0 1
0 90 -21 239 0 0 1 18 0 1 0 1
phys
0 80 -137 244 0 0 1 18 0 1 0 1
0 90 -137 244 0 0 1 18 0 1 0 1
0 90 -21 244 0 0 1 18 0 1 0 1
phys
0 80 -137 244 0 0 1 18 0 1 0 1
0 90 -21 244 0 0 1 18 0 1 0 1
0 80 -21 244 0 0 1 18 0 1 0 1
phys
0 -249 -114 66 0 0 1 19 0 1 0 1
0 -168 -114 66 0 0 1 19 0 1 0 1
0 -168 -98 66 0 0 1 19 0 1 0 1
phys
0 -249 -114 66 0 0 1 19 0 1 0 1
0 -168 -98 66 0 0 1 19 0 1 0 1
0 -249 -98 66 0 0 1 19 0 1 0 1
phys
0 -168 -114 58 0 0 1 19 0 1 0 1
0 -249 -114 58 0 0 1 19 0 1 0 1
0 -249 -98 66 0 0 1 19 0 1 0 1
phys
0 -168 -114 58 0 0 1 19 0 1 0 1
0 -249 -98 66 0 0 1 19 0 1 0 1
0 -168 -98 66 0 0 1 19 0 1 0 1
phys
0 -168 -114 66 0 0 1 19 0 1 0 1
0 -249 -114 66 0 0 1 19 0 1 0 1
0 -249 -114 58 0 0 1 19 0 1 0 1
phys
0 -168 -114 66 0 0 1 19 0 1 0 1
0 -249 -114 58 0 0 1 19 0 1 0 1
0 -168 -114 58 0 0 1 19 0 1 0 1
phys
0 -249 -114 66 0 0 1 19 0 1 0 1
0 -249 -98 66 0 0 1 19 0 1 0 1
0 -249 -114 58 0 0 1 19 0 1 0 1
phys
0 -168 -114 58 0 0 1 19 0 1 0 1
0 -168 -98 66 0 0 1 19 0 1 0 1
0 -168 -114 66 0 0 1 19 0 1 0 1
phys
0 -249 -98 74 0 0 1 20 0 1 0 1
0 -249 -82 74 0 0 1 20 0 1 0 1
0 -249 -98 66 0 0 1 20 0 1 0 1
phys
0 -168 -98 66 0 0 1 20 0 1 0 1
0 -168 -82 74 0 0 1 20 0 1 0 1
0 -168 -98 74 0 0 1 20 0 1 0 1
phys
0 -168 -98 74 0 0 1 20 0 1 0 1
0 -168 -82 74 0 0 1 20 0 1 0 1
0 -249 -82 74 0 0 1 20 0 1 0 1
phys
0 -168 -98 74 0 0 1 20 0 1 0 1
0 -249 -82 74 0 0 1 20 0 1 0 1
0 -249 -98 74 0 0 1 20 0 1 0 1
phys
0 -249 -98 66 0 0 1 20 0 1 0 1
0 -249 -82 74 0 0 1 20 0 1 0 1
0 -168 -82 74 0 0 1 20 0 1 0 1
phys
0 -249 -98 66 0 0 1 20 0 1 0 1
0 -168 -82 74 0 0 1 20 0 1 0 1
0 -168 -98 66 0 0 1 20 0 1 0 1
phys
0 -168 -98 66 0 0 1 20 0 1 0 1
0 -168 -98 74 0 0 1 20 0 1 0 1
0 -249 -98 74 0 0 1 20 0 1 0 1
phys
0 -168 -98 66 0 0 1 20 0 1 0 1
0 -249 -98 74 0 0 1 20 0 1 0 1
0 -249 -98 66 0 0 1 20 0 1 0 1
phys
0 -79 70 272.017 0 0 1 21 0 1 0 1
0 -79 70 160 0 0 1 21 0 1 0 1
0 -83 70 160 0 0 1 21 0 1 0 1
phys
0 -79 70 272.017 0 0 1 21 0 1 0 1
0 -83 70 160 0 0 1 21 0 1 0 1
0 -83 70 268.015 0 0 1 21 0 1 0 1
phys
0 -79 60 160 0 0 1 21 0 1 0 1
0 -79 60 272.027 0 0 1 21 0 1 0 1
0 -83 60 268.025 0 0 1 21 0 1 0 1
phys
0 -79 60 160 0 0 1 21 0 1 0 1
0 -83 60 268.025 0 0 1 21 0 1 0 1
0 -83 60 160 0 0 1 21 0 1 0 1
phys
0 -83 60 160 0 0 1 21 0 1 0 1
0 -83 60 268.025 0 0 1 21 0 1 0 1
0 -83 70 268.015 0 0 1 21 0 1 0 1
phys
0 -83 60 160 0 0 1 21 0 1 0 1
0 -83 70 268.015 0 0 1 21 0 1 0 1
0 -83 70 160 0 0 1 21 0 1 0 1
phys
0 -79 60 272.027 0 0 1 21 0 1 0 1
0 -79 60 160 0 0 1 21 0 1 0 1
0 -79 70 160 0 0 1 21 0 1 0 1
phys
0 -79 60 272.027 0 0 1 21 0 1 0 1
0 -79 70 160 0 0 1 21 0 1 0 1
0 -79 70 272.017 0 0 1 21 0 1 0 1
phys
0 -79 60 160 0 0 1 21 0 1 0 1
0 -83 60 160 0 0 1 21 0 1 0 1
0 -83 70 160 0 0 1 21 0 1 0 1
phys
0 -79 60 160 0 0 1 21 0 1 0 1
0 -83 70 160 0 0 1 21 0 1 0 1
0 -79 70 160 0 0 1 21 0 1 0 1
phys
0 -83 60 268.025 0 0 1 21 0 1 0 1
0 -79 60 272.027 0 0 1 21 0 1 0 1
0 -79 70 272.017 0 0 1 21 0 1 0 1
phys
0 -83 60 268.025 0 0 1 21 0 1 0 1
0 -79 70 272.017 0 0 1 21 0 1 0 1
0 -83 70 268.015 0 0 1 21 0 1 0 1
phys
0 -168 -50 90 0 0 1 22 0 1 0 1
0 -168 -50 98 0 0 1 22 0 1 0 1
0 -249 -50 98 0 0 1 22 0 1 0 1
phys
0 -168 -50 90 0 0 1 22 0 1 0 1
0 -249 -50 98 0 0 1 22 0 1 0 1
0 -249 -50 90 0 0 1 22 0 1 0 1
phys
0 -249 -50 90 0 0 1 22 0 1 0 1
0 -249 -50 98 0 0 1 22 0 1 0 1
0 -249 -34 98 0 0 1 22 0 1 0 1
phys
0 -168 -50 98 0 0 1 22 0 1 0 1
0 -168 -50 90 0 0 1 22 0 1 0 1
0 -168 -34 98 0 0 1 22 0 1 0 1
phys
0 -249 -50 98 0 0 1 22 0 1 0 1
0 -168 -50 98 0 0 1 22 0 1 0 1
0 -168 -34 98 0 0 1 22 0 1 0 1
phys
0 -249 -50 98 0 0 1 22 0 1 0 1
0 -168 -34 98 0 0 1 22 0 1 0 1
0 -249 -34 98 0 0 1 22 0 1 0 1
phys
0 -168 -50 90 0 0 1 22 0 1 0 1
0 -249 -50 90 0 0 1 22 0 1 0 1
0 -249 -34 98 0 0 1 22 0 1 0 1
phys
0 -168 -50 90 0 0 1 22 0 1 0 1
0 -249 -34 98 0 0 1 22 0 1 0 1
0 -168 -34 98 0 0 1 22 0 1 0 1
phys
0 -148 -134 50 0 0 1 23 0 1 0 1
0 -148 -134 42 0 0 1 23 0 1 0 1
0 -164 -134 50 0 0 1 23 0 1 0 1
phys
0 -148 -215 42 0 0 1 23 0 1 0 1
0 -148 -215 50 0 0 1 23 0 1 0 1
0 -164 -215 50 0 0 1 23 0 1 0 1
phys
0 -148 -215 50 0 0 1 23 0 1 0 1
0 -148 -215 42 0 0 1 23 0 1 0 1
0 -148 -134 42 0 0 1 23 0 1 0 1
phys
0 -148 -215 50 0 0 1 23 0 1 0 1
0 -148 -134 42 0 0 1 23 0 1 0 1
0 -148 -134 50 0 0 1 23 0 1 0 1
phys
0 -164 -215 50 0 0 1 23 0 1 0 1
0 -148 -215 50 0 0 1 23 0 1 0 1
0 -148 -134 50 0 0 1 23 0 1 0 1
phys
0 -164 -215 50 0 0 1 23 0 1 0 1
0 -148 -134 50 0 0 1 23 0 1 0 1
0 -164 -134 50 0 0 1 23 0 1 0 1
phys
0 -148 -215 42 0 0 1 23 0 1 0 1
0 -164 -215 50 0 0 1 23 0 1 0 1
0 -164 -134 50 0 0 1 23 0 1 0 1
phys
0 -148 -215 42 0 0 1 23 0 1 0 1
0 -164 -134 50 0 0 1 23 0 1 0 1
0 -148 -134 42 0 0 1 23 0 1 0 1
phys
0 90 123 4 0 0 1 24 0 1 0 1
0 97 123 4 0 0 1 24 0 1 0 1
0 97 179 4 0 0 1 24 0 1 0 1
phys
0 90 123 4 0 0 1 24 0 1 0 1
0 97 179 4 0 0 1 24 0 1 0 1
0 90 179 4 0 0 1 24 0 1 0 1
phys
0 98 179 3.001 0 0 1 24 0 1 0 1
0 97 179 4 0 0 1 24 0 1 0 1
0 97 123 4 0 0 1 24 0 1 0 1
phys
0 98 179 3.001 0 0 1 24 0 1 0 1
0 97 123 4 0 0 1 24 0 1 0 1
0 98 123 3.001 0 0 1 24 0 1 0 1
phys
0 90 179 0 0 0 1 24 0 1 0 1
0 90 179 4 0 0 1 24 0 1 0 1
0 97 179 4 0 0 1 24 0 1 0 1
phys
0 90 179 0 0 0 1 24 0 1 0 1
0 97 179 4 0 0 1 24 0 1 0 1
0 98 179 3.001 0 0 1 24 0 1 0 1
phys
0 90 179 0 0 0 1 24 0 1 0 1
0 98 179 3.001 0 0 1 24 0 1 0 1
0 98 179 0 0 0 1 24 0 1 0 1
phys
0 98 123 0 0 0 1 24 0 1 0 1
0 98 123 3.001 0 0 1 24 0 1 0 1
0 97 123 4 0 0 1 24 0 1 0 1
phys
0 98 123 0 0 0 1 24 0 1 0 1
0 97 123 4 0 0 1 24 0 1 0 1
0 90 123 4 0 0 1 24 0 1 0 1
phys
0 98 123 0 0 0 1 24 0 1 0 1
0 90 123 4 0 0 1 24 0 1 0 1
0 90 123 0 0 0 1 24 0 1 0 1
phys
0 90 123 0 0 0 1 24 0 1 0 1
0 90 123 4 0 0 1 24 0 1 0 1
0 90 179 4 0 0 1 24 0 1 0 1
phys
0 90 123 0 0 0 1 24 0 1 0 1
0 90 179 4 0 0 1 24 0 1 0 1
0 90 179 0 0 0 1 24 0 1 0 1
phys
0 98 179 0 0 0 1 24 0 1 0 1
0 98 179 3.001 0 0 1 24 0 1 0 1
0 98 123 3.001 0 0 1 24 0 1 0 1
phys
0 98 179 0 0 0 1 24 0 1 0 1
0 98 123 3.001 0 0 1 24 0 1 0 1
0 98 123 0 0 0 1 24 0 1 0 1
phys
0 90 179 0 0 0 1 24 0 1 0 1
0 98 179 0 0 0 1 24 0 1 0 1
0 98 123 0 0 0 1 24 0 1 0 1
phys
0 90 179 0 0 0 1 24 0 1 0 1
0 98 123 0 0 0 1 24 0 1 0 1
0 90 123 0 0 0 1 24 0 1 0 1
phys
0 -116 -215 26 0 0 1 25 0 1 0 1
0 -116 -215 34 0 0 1 25 0 1 0 1
0 -132 -215 34 0 0 1 25 0 1 0 1
phys
0 -116 -215 34 0 0 1 25 0 1 0 1
0 -116 -215 26 0 0 1 25 0 1 0 1
0 -116 -134 26 0 0 1 25 0 1 0 1
phys
0 -116 -215 34 0 0 1 25 0 1 0 1
0 -116 -134 26 0 0 1 25 0 1 0 1
0 -116 -134 34 0 0 1 25 0 1 0 1
phys
0 -132 -215 34 0 0 1 25 0 1 0 1
0 -116 -215 34 0 0 1 25 0 1 0 1
0 -116 -134 34 0 0 1 25 0 1 0 1
phys
0 -132 -215 34 0 0 1 25 0 1 0 1
0 -116 -134 34 0 0 1 25 0 1 0 1
0 -132 -134 34 0 0 1 25 0 1 0 1
phys
0 -116 -215 26 0 0 1 25 0 1 0 1
0 -132 -215 34 0 0 1 25 0 1 0 1
0 -132 -134 34 0 0 1 25 0 1 0 1
phys
0 -116 -215 26 0 0 1 25 0 1 0 1
0 -132 -134 34 0 0 1 25 0 1 0 1
0 -116 -134 26 0 0 1 25 0 1 0 1
phys
0 -116 -134 34 0 0 1 25 0 1 0 1
0 -116 -134 26 0 0 1 25 0 1 0 1
0 -132 -134 34 0 0 1 25 0 1 0 1
phys
0 80 180 288 0 0 1 26 0 1 0 1
0 80 180 278 0 0 1 26 0 1 0 1
0 -253 180 278 0 0 1 26 0 1 0 1
phys
0 80 180 288 0 0 1 26 0 1 0 1
0 -253 180 278 0 0 1 26 0 1 0 1
0 -253 180 288 0 0 1 26 0 1 0 1
phys
0 80 170 278 0 0 1 26 0 1 0 1
0 80 170 288 0 0 1 26 0 1 0 1
0 -253 170 288 0 0 1 26 0 1 0 1
phys
0 80 170 278 0 0 1 26 0 1 0 1
0 -253 170 288 0 0 1 26 0 1 0 1
0 -253 170 278 0 0 1 26 0 1 0 1
phys
0 -253 170 278 0 0 1 26 0 1 0 1
0 -253 170 288 0 0 1 26 0 1 0 1
0 -253 180 288 0 0 1 26 0 1 0 1
phys
0 -253 170 278 0 0 1 26 0 1 0 1
0 -253 180 288 0 0 1 26 0 1 0 1
0 -253 180 278 0 0 1 26 0 1 0 1
phys
0 80 170 288 0 0 1 26 0 1 0 1
0 80 170 278 0 0 1 26 0 1 0 1
0 80 180 278 0 0 1 26 0 1 0 1
phys
0 80 170 288 0 0 1 26 0 1 0 1
0 80 180 278 0 0 1 26 0 1 0 1
0 80 180 288 0 0 1 26 0 1 0 1
phys
0 80 170 278 0 0 1 26 0 1 0 1
0 -253 170 278 0 0 1 26 0 1 0 1
0 -253 180 278 0 0 1 26 0 1 0 1
phys
0 80 170 278 0 0 1 26 0 1 0 1
0 -253 180 278 0 0 1 26 0 1 0 1
0 80 180 278 0 0 1 26 0 1 0 1
phys
0 -253 170 288 0 0 1 26 0 1 0 1
0 80 170 288 0 0 1 26 0 1 0 1
0 80 180 288 0 0 1 26 0 1 0 1
phys
0 -253 170 288 0 0 1 26 0 1 0 1
0 80 180 288 0 0 1 26 0 1 0 1
0 -253 180 288 0 0 1 26 0 1 0 1
phys
0 90 -137 160 0 0 1 27 0 1 0 1
0 90 -137 170 0 0 1 27 0 1 0 1
0 80 -137 170 0 0 1 27 0 1 0 1
phys
0 90 -137 160 0 0 1 27 0 1 0 1
0 80 -137 170 0 0 1 27 0 1 0 1
0 80 -137 160 0 0 1 27 0 1 0 1
phys
0 80 -137 160 0 0 1 27 0 1 0 1
0 80 -137 170 0 0 1 27 0 1 0 1
0 80 -21 170 0 0 1 27 0 1 0 1
phys
0 80 -137 160 0 0 1 27 0 1 0 1
0 80 -21 170 0 0 1 27 0 1 0 1
0 80 -21 160 0 0 1 27 0 1 0 1
phys
0 90 -137 170 0 0 1 27 0 1 0 1
0 90 -137 160 0 0 1 27 0 1 0 1
0 90 -21 160 0 0 1 27 0 1 0 1
phys
0 90 -137 170 0 0 1 27 0 1 0 1
0 90 -21 160 0 0 1 27 0 1 0 1
0 90 -21 170 0 0 1 27 0 1 0 1
phys
0 90 -137 160 0 0 1 27 0 1 0 1
0 80 -137 160 0 0 1 27 0 1 0 1
0 80 -21 160 0 0 1 27 0 1 0 1
phys
0 90 -137 160 0 0 1 27 0 1 0 1
0 80 -21 160 0 0 1 27 0 1 0 1
0 90 -21 160 0 0 1 27 0 1 0 1
phys
0 80 -137 170 0 0 1 27 0 1 0 1
0 90 -137 170 0 0 1 27 0 1 0 1
0 90 -21 170 0 0 1 27 0 1 0 1
phys
0 80 -137 170 0 0 1 27 0 1 0 1
0 90 -21 170 0 0 1 27 0 1 0 1
0 80 -21 170 0 0 1 27 0 1 0 1
phys
0 90 -21 170 0 0 1 27 0 1 0 1
0 90 -21 160 0 0 1 27 0 1 0 1
0 80 -21 160 0 0 1 27 0 1 0 1
phys
0 90 -21 170 0 0 1 27 0 1 0 1
0 80 -21 160 0 0 1 27 0 1 0 1
0 80 -21 170 0 0 1 27 0 1 0 1
phys
0 -164 -130 50 0 0 1 28 0 1 0 1
0 -164 -130 58 0 0 1 28 0 1 0 1
0 -168 -130 58 0 0 1 28 0 1 0 1
phys
0 -164 -130 50 0 0 1 28 0 1 0 1
0 -168 -130 58 0 0 1 28 0 1 0 1
0 -168 -130 49.995 0 0 1 28 0 1 0 1
phys
0 -168 -130 49.995 0 0 1 28 0 1 0 1
0 -168 -130 58 0 0 1 28 0 1 0 1
0 -168 62 154 0 0 1 28 0 1 0 1
phys
0 -168 -130 49.995 0 0 1 28 0 1 0 1
0 -168 62 154 0 0 1 28 0 1 0 1
0 -168 78 154 0 0 1 28 0 1 0 1
phys
0 -164 -130 58 0 0 1 28 0 1 0 1
0 -164 -130 50 0 0 1 28 0 1 0 1
0 -164 77.99 154 0 0 1 28 0 1 0 1
phys
0 -164 -130 58 0 0 1 28 0 1 0 1
0 -164 77.99 154 0 0 1 28 0 1 0 1
0 -164 62 154 0 0 1 28 0 1 0 1
phys
0 -164 62 154 0 0 1 28 0 1 0 1
0 -164 77.99 154 0 0 1 28 0 1 0 1
0 -168 78 154 0 0 1 28 0 1 0 1
phys
0 -164 62 154 0 0 1 28 0 1 0 1
0 -168 78 154 0 0 1 28 0 1 0 1
0 -168 62 154 0 0 1 28 0 1 0 1
phys
0 -164 -130 50 0 0 1 28 0 1 0 1
0 -168 -130 49.995 0 0 1 28 0 1 0 1
0 -168 78 154 0 0 1 28 0 1 0 1
phys
0 -164 -130 50 0 0 1 28 0 1 0 1
0 -168 78 154 0 0 1 28 0 1 0 1
0 -164 77.99 154 0 0 1 28 0 1 0 1
phys
0 -168 -130 58 0 0 1 28 0 1 0 1
0 -164 -130 58 0 0 1 28 0 1 0 1
0 -164 62 154 0 0 1 28 0 1 0 1
phys
0 -168 -130 58 0 0 1 28 0 1 0 1
0 -164 62 154 0 0 1 28 0 1 0 1
0 -168 62 154 0 0 1 28 0 1 0 1
phys
0 -131 60 268 0 0 1 29 0 1 0 1
0 -131 70 268 0 0 1 29 0 1 0 1
0 -83 70 268 0 0 1 29 0 1 0 1
phys
0 -131 60 268 0 0 1 29 0 1 0 1
0 -83 70 268 0 0 1 29 0 1 0 1
0 -83 60 268 0 0 1 29 0 1 0 1
phys
0 -79 60 272 0 0 1 29 0 1 0 1
0 -79 70 272 0 0 1 29 0 1 0 1
0 -135 70 272 0 0 1 29 0 1 0 1
phys
0 -79 60 272 0 0 1 29 0 1 0 1
0 -135 70 272 0 0 1 29 0 1 0 1
0 -135 60 272 0 0 1 29 0 1 0 1
phys
0 -83 60 268 0 0 1 29 0 1 0 1
0 -83 70 268 0 0 1 29 0 1 0 1
0 -79 70 272 0 0 1 29 0 1 0 1
phys
0 -83 60 268 0 0 1 29 0 1 0 1
0 -79 70 272 0 0 1 29 0 1 0 1
0 -79 60 272 0 0 1 29 0 1 0 1
phys
0 -135 60 272 0 0 1 29 0 1 0 1
0 -135 70 272 0 0 1 29 0 1 0 1
0 -131 70 268 0 0 1 29 0 1 0 1
phys
0 -135 60 272 0 0 1 29 0 1 0 1
0 -131 70 268 0 0 1 29 0 1 0 1
0 -131 60 268 0 0 1 29 0 1 0 1
phys
0 -83 70 268 0 0 1 29 0 1 0 1
0 -131 70 268 0 0 1 29 0 1 0 1
0 -135 70 272 0 0 1 29 0 1 0 1
phys
0 -83 70 268 0 0 1 29 0 1 0 1
0 -135 70 272 0 0 1 29 0 1 0 1
0 -79 70 272 0 0 1 29 0 1 0 1
phys
0 -79 60 272 0 0 1 29 0 1 0 1
0 -135 60 272 0 0 1 29 0 1 0 1
0 -131 60 268 0 0 1 29 0 1 0 1
phys
0 -79 60 272 0 0 1 29 0 1 0 1
0 -131 60 268 0 0 1 29 0 1 0 1
0 -83 60 268 0 0 1 29 0 1 0 1
phys
0 -168 14 122 0 0 1 30 0 1 0 1
0 -168 14 130 0 0 1 30 0 1 0 1
0 -249 14 130 0 0 1 30 0 1 0 1
phys
0 -168 14 122 0 0 1 30 0 1 0 1
0 -249 14 130 0 0 1 30 0 1 0 1
0 -249 14 122 0 0 1 30 0 1 0 1
phys
0 -249 14 122 0 0 1 30 0 1 0 1
0 -249 14 130 0 0 1 30 0 1 0 1
0 -249 30 130 0 0 1 30 0 1 0 1
phys
0 -168 14 130 0 0 1 30 0 1 0 1
0 -168 14 122 0 0 1 30 0 1 0 1
0 -168 30 130 0 0 1 30 0 1 0 1
phys
0 -249 14 130 0 0 1 30 0 1 0 1
0 -168 14 130 0 0 1 30 0 1 0 1
0 -168 30 130 0 0 1 30 0 1 0 1
phys
0 -249 14 130 0 0 1 30 0 1 0 1
0 -168 30 130 0 0 1 30 0 1 0 1
0 -249 30 130 0 0 1 30 0 1 0 1
phys
0 -168 14 122 0 0 1 30 0 1 0 1
0 -249 14 122 0 0 1 30 0 1 0 1
0 -249 30 130 0 0 1 30 0 1 0 1
phys
0 -168 14 122 0 0 1 30 0 1 0 1
0 -249 30 130 0 0 1 30 0 1 0 1
0 -168 30 130 0 0 1 30 0 1 0 1
phys
0 -253 208 150 0 0 1 31 0 1 0 1
0 -253 218 150 0 0 1 31 0 1 0 1
0 -253 218 140 0 0 1 31 0 1 0 1
phys
0 -253 208 150 0 0 1 31 0 1 0 1
0 -253 218 140 0 0 1 31 0 1 0 1
0 -253 208 140 0 0 1 31 0 1 0 1
phys
0 80 208 140 0 0 1 31 0 1 0 1
0 80 218 140 0 0 1 31 0 1 0 1
0 80 218 150 0 0 1 31 0 1 0 1
phys
0 80 208 140 0 0 1 31 0 1 0 1
0 80 218 150 0 0 1 31 0 1 0 1
0 80 208 150 0 0 1 31 0 1 0 1
phys
0 -253 208 140 0 0 1 31 0 1 0 1
0 -253 218 140 0 0 1 31 0 1 0 1
0 80 218 140 0 0 1 31 0 1 0 1
phys
0 -253 208 140 0 0 1 31 0 1 0 1
0 80 218 140 0 0 1 31 0 1 0 1
0 80 208 140 0 0 1 31 0 1 0 1
phys
0 80 208 150 0 0 1 31 0 1 0 1
0 80 218 150 0 0 1 31 0 1 0 1
0 -253 218 150 0 0 1 31 0 1 0 1
phys
0 80 208 150 0 0 1 31 0 1 0 1
0 -253 218 150 0 0 1 31 0 1 0 1
0 -253 208 150 0 0 1 31 0 1 0 1
phys
0 80 218 150 0 0 1 31 0 1 0 1
0 80 218 140 0 0 1 31 0 1 0 1
0 -253 218 140 0 0 1 31 0 1 0 1
phys
0 80 218 150 0 0 1 31 0 1 0 1
0 -253 218 140 0 0 1 31 0 1 0 1
0 -253 218 150 0 0 1 31 0 1 0 1
phys
0 80 208 140 0 0 1 31 0 1 0 1
0 80 208 150 0 0 1 31 0 1 0 1
0 -253 208 150 0 0 1 31 0 1 0 1
phys
0 80 208 140 0 0 1 31 0 1 0 1
0 -253 208 150 0 0 1 31 0 1 0 1
0 -253 208 140 0 0 1 31 0 1 0 1
phys
0 -100 -215 18 0 0 1 32 0 1 0 1
0 -116 -215 26 0 0 1 32 0 1 0 1
0 -116 -134 26 0 0 1 32 0 1 0 1
phys
0 -100 -215 18 0 0 1 32 0 1 0 1
0 -116 -134 26 0 0 1 32 0 1 0 1
0 -100 -134 18 0 0 1 32 0 1 0 1
phys
0 -100 -134 26 0 0 1 32 0 1 0 1
0 -100 -134 18 0 0 1 32 0 1 0 1
0 -116 -134 26 0 0 1 32 0 1 0 1
phys
0 -116 -215 26 0 0 1 32 0 1 0 1
0 -100 -215 18 0 0 1 32 0 1 0 1
0 -100 -215 26 0 0 1 32 0 1 0 1
phys
0 -100 -215 26 0 0 1 32 0 1 0 1
0 -100 -215 18 0 0 1 32 0 1 0 1
0 -100 -134 18 0 0 1 32 0 1 0 1
phys
0 -100 -215 26 0 0 1 32 0 1 0 1
0 -100 -134 18 0 0 1 32 0 1 0 1
0 -100 -134 26 0 0 1 32 0 1 0 1
phys
0 -100 -134 26 0 0 1 32 0 1 0 1
0 -116 -134 26 0 0 1 32 0 1 0 1
0 -116 -215 26 0 0 1 32 0 1 0 1
phys
0 -100 -134 26 0 0 1 32 0 1 0 1
0 -116 -215 26 0 0 1 32 0 1 0 1
0 -100 -215 26 0 0 1 32 0 1 0 1
phys
0 -168 -2 114 0 0 1 33 0 1 0 1
0 -168 -2 122 0 0 1 33 0 1 0 1
0 -249 -2 122 0 0 1 33 0 1 0 1
phys
0 -168 -2 114 0 0 1 33 0 1 0 1
0 -249 -2 122 0 0 1 33 0 1 0 1
0 -249 -2 114 0 0 1 33 0 1 0 1
phys
0 -249 -2 114 0 0 1 33 0 1 0 1
0 -249 -2 122 0 0 1 33 0 1 0 1
0 -249 14 122 0 0 1 33 0 1 0 1
phys
0 -168 -2 122 0 0 1 33 0 1 0 1
0 -168 -2 114 0 0 1 33 0 1 0 1
0 -168 14 122 0 0 1 33 0 1 0 1
phys
0 -249 -2 122 0 0 1 33 0 1 0 1
0 -168 -2 122 0 0 1 33 0 1 0 1
0 -168 14 122 0 0 1 33 0 1 0 1
phys
0 -249 -2 122 0 0 1 33 0 1 0 1
0 -168 14 122 0 0 1 33 0 1 0 1
0 -249 14 122 0 0 1 33 0 1 0 1
phys
0 -168 -2 114 0 0 1 33 0 1 0 1
0 -249 -2 114 0 0 1 33 0 1 0 1
0 -249 14 122 0 0 1 33 0 1 0 1
phys
0 -168 -2 114 0 0 1 33 0 1 0 1
0 -249 14 122 0 0 1 33 0 1 0 1
0 -168 14 122 0 0 1 33 0 1 0 1
phys
0 -168 -18 106 0 0 1 34 0 1 0 1
0 -168 -18 114 0 0 1 34 0 1 0 1
0 -249 -18 114 0 0 1 34 0 1 0 1
phys
0 -168 -18 106 0 0 1 34 0 1 0 1
0 -249 -18 114 0 0 1 34 0 1 0 1
0 -249 -18 106 0 0 1 34 0 1 0 1
phys
0 -249 -18 106 0 0 1 34 0 1 0 1
0 -249 -18 114 0 0 1 34 0 1 0 1
0 -249 -2 114 0 0 1 34 0 1 0 1
phys
0 -168 -18 114 0 0 1 34 0 1 0 1
0 -168 -18 106 0 0 1 34 0 1 0 1
0 -168 -2 114 0 0 1 34 0 1 0 1
phys
0 -249 -18 114 0 0 1 34 0 1 0 1
0 -168 -18 114 0 0 1 34 0 1 0 1
0 -168 -2 114 0 0 1 34 0 1 0 1
phys
0 -249 -18 114 0 0 1 34 0 1 0 1
0 -168 -2 114 0 0 1 34 0 1 0 1
0 -249 -2 114 0 0 1 34 0 1 0 1
phys
0 -168 -18 106 0 0 1 34 0 1 0 1
0 -249 -18 106 0 0 1 34 0 1 0 1
0 -249 -2 114 0 0 1 34 0 1 0 1
phys
0 -168 -18 106 0 0 1 34 0 1 0 1
0 -249 -2 114 0 0 1 34 0 1 0 1
0 -168 -2 114 0 0 1 34 0 1 0 1
phys
0 -168 -130 50 0 0 1 35 0 1 0 1
0 -168 -130 58 0 0 1 35 0 1 0 1
0 -249 -130 58 0 0 1 35 0 1 0 1
phys
0 -168 -130 50 0 0 1 35 0 1 0 1
0 -249 -130 58 0 0 1 35 0 1 0 1
0 -249 -130 50 0 0 1 35 0 1 0 1
phys
0 -249 -130 50 0 0 1 35 0 1 0 1
0 -249 -130 58 0 0 1 35 0 1 0 1
0 -249 -114 58 0 0 1 35 0 1 0 1
phys
0 -168 -130 58 0 0 1 35 0 1 0 1
0 -168 -130 50 0 0 1 35 0 1 0 1
0 -168 -114 58 0 0 1 35 0 1 0 1
phys
0 -249 -130 58 0 0 1 35 0 1 0 1
0 -168 -130 58 0 0 1 35 0 1 0 1
0 -168 -114 58 0 0 1 35 0 1 0 1
phys
0 -249 -130 58 0 0 1 35 0 1 0 1
0 -168 -114 58 0 0 1 35 0 1 0 1
0 -249 -114 58 0 0 1 35 0 1 0 1
phys
0 -168 -130 50 0 0 1 35 0 1 0 1
0 -249 -130 50 0 0 1 35 0 1 0 1
0 -249 -114 58 0 0 1 35 0 1 0 1
phys
0 -168 -130 50 0 0 1 35 0 1 0 1
0 -249 -114 58 0 0 1 35 0 1 0 1
0 -168 -114 58 0 0 1 35 0 1 0 1
phys
0 80 123 122 0 0 1 36 0 1 0 1
0 80 179 122 0 0 1 36 0 1 0 1
0 80 175 118 0 0 1 36 0 1 0 1
phys
0 80 123 122 0 0 1 36 0 1 0 1
0 80 175 118 0 0 1 36 0 1 0 1
0 80 127 118 0 0 1 36 0 1 0 1
phys
0 90 127 118 0 0 1 36 0 1 0 1
0 90 175 118 0 0 1 36 0 1 0 1
0 90 179 122 0 0 1 36 0 1 0 1
phys
0 90 127 118 0 0 1 36 0 1 0 1
0 90 179 122 0 0 1 36 0 1 0 1
0 90 123 122 0 0 1 36 0 1 0 1
phys
0 80 127 118 0 0 1 36 0 1 0 1
0 80 175 118 0 0 1 36 0 1 0 1
0 90 175 118 0 0 1 36 0 1 0 1
phys
0 80 127 118 0 0 1 36 0 1 0 1
0 90 175 118 0 0 1 36 0 1 0 1
0 90 127 118 0 0 1 36 0 1 0 1
phys
0 90 123 122 0 0 1 36 0 1 0 1
0 90 179 122 0 0 1 36 0 1 0 1
0 80 179 122 0 0 1 36 0 1 0 1
phys
0 90 123 122 0 0 1 36 0 1 0 1
0 80 179 122 0 0 1 36 0 1 0 1
0 80 123 122 0 0 1 36 0 1 0 1
phys
0 80 123 122 0 0 1 36 0 1 0 1
0 80 127 118 0 0 1 36 0 1 0 1
0 90 127 118 0 0 1 36 0 1 0 1
phys
0 80 123 122 0 0 1 36 0 1 0 1
0 90 127 118 0 0 1 36 0 1 0 1
0 90 123 122 0 0 1 36 0 1 0 1
phys
0 80 175 118 0 0 1 36 0 1 0 1
0 80 179 122 0 0 1 36 0 1 0 1
0 90 179 122 0 0 1 36 0 1 0 1
phys
0 80 175 118 0 0 1 36 0 1 0 1
0 90 179 122 0 0 1 36 0 1 0 1
0 90 175 118 0 0 1 36 0 1 0 1
phys
0 80 10 288 0 0 1 37 0 1 0 1
0 80 10 278 0 0 1 37 0 1 0 1
0 -154 10 278 0 0 1 37 0 1 0 1
phys
0 80 10 288 0 0 1 37 0 1 0 1
0 -154 10 278 0 0 1 37 0 1 0 1
0 -154 10 288 0 0 1 37 0 1 0 1
phys
0 80 0 278 0 0 1 37 0 1 0 1
0 80 0 288 0 0 1 37 0 1 0 1
0 -154 0 288 0 0 1 37 0 1 0 1
phys
0 80 0 278 0 0 1 37 0 1 0 1
0 -154 0 288 0 0 1 37 0 1 0 1
0 -154 0 278 0 0 1 37 0 1 0 1
phys
0 -154 0 278 0 0 1 37 0 1 0 1
0 -154 0 288 0 0 1 37 0 1 0 1
0 -154 10 288 0 0 1 37 0 1 0 1
phys
0 -154 0 278 0 0 1 37 0 1 0 1
0 -154 10 288 0 0 1 37 0 1 0 1
0 -154 10 278 0 0 1 37 0 1 0 1
phys
0 80 0 288 0 0 1 37 0 1 0 1
0 80 0 278 0 0 1 37 0 1 0 1
0 80 10 278 0 0 1 37 0 1 0 1
phys
0 80 0 288 0 0 1 37 0 1 0 1
0 80 10 278 0 0 1 37 0 1 0 1
0 80 10 288 0 0 1 37 0 1 0 1
phys
0 80 0 278 0 0 1 37 0 1 0 1
0 -154 0 278 0 0 1 37 0 1 0 1
0 -154 10 278 0 0 1 37 0 1 0 1
phys
0 80 0 278 0 0 1 37 0 1 0 1
0 -154 10 278 0 0 1 37 0 1 0 1
0 80 10 278 0 0 1 37 0 1 0 1
phys
0 -154 0 288 0 0 1 37 0 1 0 1
0 80 0 288 0 0 1 37 0 1 0 1
0 80 10 288 0 0 1 37 0 1 0 1
phys
0 -154 0 288 0 0 1 37 0 1 0 1
0 80 10 288 0 0 1 37 0 1 0 1
0 -154 10 288 0 0 1 37 0 1 0 1
phys
0 -84 -134 10 0 0 1 38 0 1 0 1
0 -84 -130 10 0 0 1 38 0 1 0 1
0 -84 -130 18 0 0 1 38 0 1 0 1
phys
0 -84 -134 10 0 0 1 38 0 1 0 1
0 -84 -130 18 0 0 1 38 0 1 0 1
0 -84 -134 18 0 0 1 38 0 1 0 1
phys
0 -148 -134 50 0 0 1 38 0 1 0 1
0 -148 -130 50 0 0 1 38 0 1 0 1
0 -164 -130 50 0 0 1 38 0 1 0 1
phys
0 -148 -134 50 0 0 1 38 0 1 0 1
0 -164 -130 50 0 0 1 38 0 1 0 1
0 -164 -134 50 0 0 1 38 0 1 0 1
phys
0 -164 -134 50 0 0 1 38 0 1 0 1
0 -164 -130 50 0 0 1 38 0 1 0 1
0 -84 -130 10 0 0 1 38 0 1 0 1
phys
0 -164 -134 50 0 0 1 38 0 1 0 1
0 -84 -130 10 0 0 1 38 0 1 0 1
0 -84 -134 10 0 0 1 38 0 1 0 1
phys
0 -84 -134 18 0 0 1 38 0 1 0 1
0 -84 -130 18 0 0 1 38 0 1 0 1
0 -148 -130 50 0 0 1 38 0 1 0 1
phys
0 -84 -134 18 0 0 1 38 0 1 0 1
0 -148 -130 50 0 0 1 38 0 1 0 1
0 -148 -134 50 0 0 1 38 0 1 0 1
phys
0 -84 -130 18 0 0 1 38 0 1 0 1
0 -84 -130 10 0 0 1 38 0 1 0 1
0 -164 -130 50 0 0 1 38 0 1 0 1
phys
0 -84 -130 18 0 0 1 38 0 1 0 1
0 -164 -130 50 0 0 1 38 0 1 0 1
0 -148 -130 50 0 0 1 38 0 1 0 1
phys
0 -84 -134 10 0 0 1 38 0 1 0 1
0 -84 -134 18 0 0 1 38 0 1 0 1
0 -148 -134 50 0 0 1 38 0 1 0 1
phys
0 -84 -134 10 0 0 1 38 0 1 0 1
0 -148 -134 50 0 0 1 38 0 1 0 1
0 -164 -134 50 0 0 1 38 0 1 0 1
phys
0 -249 -82 82 0 0 1 39 0 1 0 1
0 -168 -82 82 0 0 1 39 0 1 0 1
0 -168 -66 82 0 0 1 39 0 1 0 1
phys
0 -249 -82 82 0 0 1 39 0 1 0 1
0 -168 -66 82 0 0 1 39 0 1 0 1
0 -249 -66 82 0 0 1 39 0 1 0 1
phys
0 -168 -82 74 0 0 1 39 0 1 0 1
0 -249 -82 74 0 0 1 39 0 1 0 1
0 -249 -66 82 0 0 1 39 0 1 0 1
phys
0 -168 -82 74 0 0 1 39 0 1 0 1
0 -249 -66 82 0 0 1 39 0 1 0 1
0 -168 -66 82 0 0 1 39 0 1 0 1
phys
0 -168 -82 82 0 0 1 39 0 1 0 1
0 -249 -82 82 0 0 1 39 0 1 0 1
0 -249 -82 74 0 0 1 39 0 1 0 1
phys
0 -168 -82 82 0 0 1 39 0 1 0 1
0 -249 -82 74 0 0 1 39 0 1 0 1
0 -168 -82 74 0 0 1 39 0 1 0 1
phys
0 -249 -82 82 0 0 1 39 0 1 0 1
0 -249 -66 82 0 0 1 39 0 1 0 1
0 -249 -82 74 0 0 1 39 0 1 0 1
phys
0 -168 -82 74 0 0 1 39 0 1 0 1
0 -168 -66 82 0 0 1 39 0 1 0 1
0 -168 -82 82 0 0 1 39 0 1 0 1
end
