version 1
nodes
0 "root" -1
end
skeleton
time 0
0 0 0 0 0 0 0
end
triangles
pepsi2_arch_woodf4
0 -249 -66 90 0 0 1 -92.113281 -19.75 1 0 1
0 -168 -66 90 0 0 1 -91.480469 -19.75 1 0 1
0 -168 -50 90 0 0 1 -91.480469 -19.875 1 0 1
pepsi2_arch_woodf4
0 -249 -66 90 0 0 1 -92.113281 -19.75 1 0 1
0 -168 -50 90 0 0 1 -91.480469 -19.875 1 0 1
0 -249 -50 90 0 0 1 -92.113281 -19.875 1 0 1
pepsi2_arch_woodf4
0 -168 -66 90 0 -1 0 -91.480469 2.75 1 0 1
0 -249 -66 90 0 -1 0 -92.113281 2.75 1 0 1
0 -249 -66 82 0 -1 0 -92.113281 2.8125 1 0 1
pepsi2_arch_woodf4
0 -168 -66 90 0 -1 0 -91.480469 2.75 1 0 1
0 -249 -66 82 0 -1 0 -92.113281 2.8125 1 0 1
0 -168 -66 82 0 -1 0 -91.480469 2.8125 1 0 1
pepsi2_arch_concrete_wall01
0 253 205 133 0 1 0 62.303292 -0.258371 1 0 1
0 253 205 0 0 1 0 62.303292 -1.000558 1 0 1
0 90 205 0 0 1 0 63.212891 -1.000558 1 0 1
pepsi2_arch_concrete_wall01
0 253 205 133 0 1 0 62.303292 -0.258371 1 0 1
0 90 205 0 0 1 0 63.212891 -1.000558 1 0 1
0 90 205 133 0 1 0 63.212891 -0.258371 1 0 1
pepsi2_arch_concrete_wall01
0 253 195 0 0 -1 0 62.303292 -1.000558 1 0 1
0 253 195 133 0 -1 0 62.303292 -0.258371 1 0 1
0 90 195 133 0 -1 0 63.212891 -0.258371 1 0 1
pepsi2_arch_concrete_wall01
0 253 195 0 0 -1 0 62.303292 -1.000558 1 0 1
0 90 195 133 0 -1 0 63.212891 -0.258371 1 0 1
0 90 195 0 0 -1 0 63.212891 -1.000558 1 0 1
pepsi2_arch_concrete_floor_smooth01
0 253 195 133 1 0 0 -0.945312 -21.492188 1 0 1
0 253 195 0 1 0 0 -1.984375 -21.492188 1 0 1
0 253 205 0 1 0 0 -1.984375 -21.570312 1 0 1
pepsi2_arch_concrete_floor_smooth01
0 253 195 133 1 0 0 -0.945312 -21.492188 1 0 1
0 253 205 0 1 0 0 -1.984375 -21.570312 1 0 1
0 253 205 133 1 0 0 -0.945312 -21.570312 1 0 1
pepsi2_arch_concrete_floor_smooth01
0 90 195 133 0 0 1 89.304688 -21.492188 1 0 1
0 253 195 133 0 0 1 88.03125 -21.492188 1 0 1
0 253 205 133 0 0 1 88.03125 -21.570312 1 0 1
pepsi2_arch_concrete_floor_smooth01
0 90 195 133 0 0 1 89.304688 -21.492188 1 0 1
0 253 205 133 0 0 1 88.03125 -21.570312 1 0 1
0 90 205 133 0 0 1 89.304688 -21.570312 1 0 1
bridge_se1_metal_flat_steel_01
0 90 127 118.001 0 1 0 2.621081 149.407552 1 0 1
0 90 127 10 0 1 0 4.027344 149.407552 1 0 1
0 80 127 10 0 1 0 4.027344 149.53776 1 0 1
bridge_se1_metal_flat_steel_01
0 90 127 118.001 0 1 0 2.621081 149.407552 1 0 1
0 80 127 10 0 1 0 4.027344 149.53776 1 0 1
0 80 127 118.001 0 1 0 2.621081 149.53776 1 0 1
bridge_se1_metal_flat_steel_01
0 80 123 10 -1 0 0 4.027344 -36.481771 1 0 1
0 80 123 122.001 -1 0 0 2.568997 -36.481771 1 0 1
0 80 127 118.001 -1 0 0 2.621081 -36.533854 1 0 1
bridge_se1_metal_flat_steel_01
0 80 123 10 -1 0 0 4.027344 -36.481771 1 0 1
0 80 127 118.001 -1 0 0 2.621081 -36.533854 1 0 1
0 80 127 10 -1 0 0 4.027344 -36.533854 1 0 1
bridge_se1_metal_flat_steel_01
0 90 123 122.001 1 0 0 2.568997 -36.481771 1 0 1
0 90 123 10 1 0 0 4.027344 -36.481771 1 0 1
0 90 127 10 1 0 0 4.027344 -36.533854 1 0 1
bridge_se1_metal_flat_steel_01
0 90 123 122.001 1 0 0 2.568997 -36.481771 1 0 1
0 90 127 10 1 0 0 4.027344 -36.533854 1 0 1
0 90 127 118.001 1 0 0 2.621081 -36.533854 1 0 1
pepsi2_arch_woodf4
0 -168 46 146 0 0 1 -91.480469 -20.0625 1 0 1
0 -168 62 146 0 0 1 -91.480469 -20.1875 1 0 1
0 -249 62 146 0 0 1 -92.113281 -20.1875 1 0 1
pepsi2_arch_woodf4
0 -168 46 146 0 0 1 -91.480469 -20.0625 1 0 1
0 -249 62 146 0 0 1 -92.113281 -20.1875 1 0 1
0 -249 46 146 0 0 1 -92.113281 -20.0625 1 0 1
pepsi2_arch_woodf4
0 -168 46 138 0 -1 0 -91.480469 2.375 1 0 1
0 -168 46 146 0 -1 0 -91.480469 2.3125 1 0 1
0 -249 46 146 0 -1 0 -92.113281 2.3125 1 0 1
pepsi2_arch_woodf4
0 -168 46 138 0 -1 0 -91.480469 2.375 1 0 1
0 -249 46 146 0 -1 0 -92.113281 2.3125 1 0 1
0 -249 46 138 0 -1 0 -92.113281 2.375 1 0 1
pepsi2_arch_plaster01
0 80 -137 276 -1 0 0 -19.785156 0.296875 1 0 1
0 80 -137 288 -1 0 0 -19.785156 0.390625 1 0 1
0 80 -21 288 -1 0 0 -20.691406 0.390625 1 0 1
pepsi2_arch_plaster01
0 80 -137 276 -1 0 0 -19.785156 0.296875 1 0 1
0 80 -21 288 -1 0 0 -20.691406 0.390625 1 0 1
0 80 -21 276 -1 0 0 -20.691406 0.296875 1 0 1
pepsi2_arch_concrete_wall01
0 90 -137 288 1 0 0 -11.203342 0.995009 1 0 1
0 90 -137 276 1 0 0 -11.203342 0.942925 1 0 1
0 90 -21 276 1 0 0 -11.706814 0.942925 1 0 1
pepsi2_arch_concrete_wall01
0 90 -137 288 1 0 0 -11.203342 0.995009 1 0 1
0 90 -21 276 1 0 0 -11.706814 0.942925 1 0 1
0 90 -21 288 1 0 0 -11.706814 0.995009 1 0 1
pepsi2_arch_woodf4
0 -168 62 146 0 -1 0 -91.480469 2.3125 1 0 1
0 -168 62 154 0 -1 0 -91.480469 2.25 1 0 1
0 -249 62 154 0 -1 0 -92.113281 2.25 1 0 1
pepsi2_arch_woodf4
0 -168 62 146 0 -1 0 -91.480469 2.3125 1 0 1
0 -249 62 154 0 -1 0 -92.113281 2.25 1 0 1
0 -249 62 146 0 -1 0 -92.113281 2.3125 1 0 1
pepsi2_arch_woodf4
0 -249 62 154 0 0 1 -92.113281 -20.25 1 0 1
0 -168 62 154 0 0 1 -91.480469 -20.25 1 0 1
0 -168 78 154 0 0 1 -91.480469 -20.375 1 0 1
pepsi2_arch_woodf4
0 -249 62 154 0 0 1 -92.113281 -20.25 1 0 1
0 -168 78 154 0 0 1 -91.480469 -20.375 1 0 1
0 -249 78 154 0 0 1 -92.113281 -20.375 1 0 1
pepsi2_arch_woodf4
0 -84 -215 18 1 0 0 19.011719 3.25 1 0 1
0 -84 -215 10 1 0 0 19.011719 3.3125 1 0 1
0 -84 -134 10 1 0 0 19.644531 3.3125 1 0 1
pepsi2_arch_woodf4
0 -84 -215 18 1 0 0 19.011719 3.25 1 0 1
0 -84 -134 10 1 0 0 19.644531 3.3125 1 0 1
0 -84 -134 18 1 0 0 19.644531 3.25 1 0 1
pepsi2_arch_woodf4
0 -100 -215 18 0 0 1 19.011719 -89.375 1 0 1
0 -84 -215 18 0 0 1 19.011719 -89.25 1 0 1
0 -84 -134 18 0 0 1 19.644531 -89.25 1 0 1
pepsi2_arch_woodf4
0 -100 -215 18 0 0 1 19.011719 -89.375 1 0 1
0 -84 -134 18 0 0 1 19.644531 -89.25 1 0 1
0 -100 -134 18 0 0 1 19.644531 -89.375 1 0 1
bridge_se1_metal_flat_steel_01
0 90 175 10 0 -1 0 4.027344 -148.098958 1 0 1
0 90 175 118.038 0 -1 0 2.620599 -148.098958 1 0 1
0 80 175 118.013 0 -1 0 2.620924 -148.229167 1 0 1
bridge_se1_metal_flat_steel_01
0 90 175 10 0 -1 0 4.027344 -148.098958 1 0 1
0 80 175 118.013 0 -1 0 2.620924 -148.229167 1 0 1
0 80 175 10 0 -1 0 4.027344 -148.229167 1 0 1
bridge_se1_metal_flat_steel_01
0 80 175 10 -1 0 0 4.027344 -37.158854 1 0 1
0 80 175 118.013 -1 0 0 2.620924 -37.158854 1 0 1
0 80 179 122 -1 0 0 2.56901 -37.210938 1 0 1
bridge_se1_metal_flat_steel_01
0 80 175 10 -1 0 0 4.027344 -37.158854 1 0 1
0 80 179 122 -1 0 0 2.56901 -37.210938 1 0 1
0 80 179 10 -1 0 0 4.027344 -37.210938 1 0 1
bridge_se1_metal_flat_steel_01
0 90 175 118.038 1 0 0 2.620599 -37.158854 1 0 1
0 90 175 10 1 0 0 4.027344 -37.158854 1 0 1
0 90 179 10 1 0 0 4.027344 -37.210938 1 0 1
bridge_se1_metal_flat_steel_01
0 90 175 118.038 1 0 0 2.620599 -37.158854 1 0 1
0 90 179 10 1 0 0 4.027344 -37.210938 1 0 1
0 90 179 122.025 1 0 0 2.568685 -37.210938 1 0 1
pepsi2_arch_woodf4
0 -249 -34 106 0 -1 0 -92.113281 2.625 1 0 1
0 -249 -34 98 0 -1 0 -92.113281 2.6875 1 0 1
0 -168 -34 98 0 -1 0 -91.480469 2.6875 1 0 1
pepsi2_arch_woodf4
0 -249 -34 106 0 -1 0 -92.113281 2.625 1 0 1
0 -168 -34 98 0 -1 0 -91.480469 2.6875 1 0 1
0 -168 -34 106 0 -1 0 -91.480469 2.625 1 0 1
pepsi2_arch_woodf4
0 -249 -34 106 0 0 1 -92.113281 -20.125 1 0 1
0 -168 -34 106 0 0 1 -91.480469 -20.125 1 0 1
0 -168 -18 106 0 0 1 -91.480469 -20.25 1 0 1
pepsi2_arch_woodf4
0 -249 -34 106 0 0 1 -92.113281 -20.125 1 0 1
0 -168 -18 106 0 0 1 -91.480469 -20.25 1 0 1
0 -249 -18 106 0 0 1 -92.113281 -20.25 1 0 1
pepsi2_arch_woodf4
0 -168 30 130 0 -1 0 -91.480469 2.4375 1 0 1
0 -168 30 138 0 -1 0 -91.480469 2.375 1 0 1
0 -249 30 138 0 -1 0 -92.113281 2.375 1 0 1
pepsi2_arch_woodf4
0 -168 30 130 0 -1 0 -91.480469 2.4375 1 0 1
0 -249 30 138 0 -1 0 -92.113281 2.375 1 0 1
0 -249 30 130 0 -1 0 -92.113281 2.4375 1 0 1
pepsi2_arch_woodf4
0 -249 30 138 0 0 1 -92.113281 -20.875 1 0 1
0 -168 30 138 0 0 1 -91.480469 -20.875 1 0 1
0 -168 46 138 0 0 1 -91.480469 -21 1 0 1
pepsi2_arch_woodf4
0 -249 30 138 0 0 1 -92.113281 -20.875 1 0 1
0 -168 46 138 0 0 1 -91.480469 -21 1 0 1
0 -249 46 138 0 0 1 -92.113281 -21 1 0 1
pepsi2_arch_concrete_wall01
0 -84 -130 10 0 1 0 -4.367188 152.044271 1 0 1
0 -164 -130 10 0 1 0 -4.367188 153.085938 1 0 1
0 -164 -130 50 0 1 0 -3.846354 153.085938 1 0 1
bridge_se1_metal_flat_steel_01
0 80 80 150 0 1 0 -149.332682 2.948568 1 0 1
0 80 80 140 0 1 0 -149.332682 3.078776 1 0 1
0 -154 80 140 0 1 0 -152.379557 3.078776 1 0 1
bridge_se1_metal_flat_steel_01
0 80 80 150 0 1 0 -149.332682 2.948568 1 0 1
0 -154 80 140 0 1 0 -152.379557 3.078776 1 0 1
0 -154 80 150 0 1 0 -152.379557 2.948568 1 0 1
bridge_se1_metal_flat_steel_01
0 80 70 140 0 -1 0 -149.332682 -1.385417 1 0 1
0 80 70 150 0 -1 0 -149.332682 -1.255208 1 0 1
0 -154 70 150 0 -1 0 -152.379557 -1.255208 1 0 1
bridge_se1_metal_flat_steel_01
0 80 70 140 0 -1 0 -149.332682 -1.385417 1 0 1
0 -154 70 150 0 -1 0 -152.379557 -1.255208 1 0 1
0 -154 70 140 0 -1 0 -152.379557 -1.385417 1 0 1
bridge_se1_metal_flat_steel_01
0 80 70 140 0 0 -1 -149.332682 -35.588542 1 0 1
0 -154 70 140 0 0 -1 -152.379557 -35.588542 1 0 1
0 -154 80 140 0 0 -1 -152.379557 -35.71875 1 0 1
bridge_se1_metal_flat_steel_01
0 80 70 140 0 0 -1 -149.332682 -35.588542 1 0 1
0 -154 80 140 0 0 -1 -152.379557 -35.71875 1 0 1
0 80 80 140 0 0 -1 -149.332682 -35.71875 1 0 1
bridge_se1_metal_flat_steel_01
0 -131 70 267.997 0 1 0 -0.984414 -151.171875 1 0 1
0 -131 70 160 0 1 0 -2.390625 -151.171875 1 0 1
0 -135 70 160 0 1 0 -2.390625 -151.223958 1 0 1
bridge_se1_metal_flat_steel_01
0 -131 70 267.997 0 1 0 -0.984414 -151.171875 1 0 1
0 -135 70 160 0 1 0 -2.390625 -151.223958 1 0 1
0 -135 70 271.997 0 1 0 -0.932331 -151.223958 1 0 1
bridge_se1_metal_flat_steel_01
0 -131 60 160 0 -1 0 2.027344 -151.171875 1 0 1
0 -131 60 267.997 0 -1 0 0.621133 -151.171875 1 0 1
0 -135 60 271.997 0 -1 0 0.569049 -151.223958 1 0 1
bridge_se1_metal_flat_steel_01
0 -131 60 160 0 -1 0 2.027344 -151.171875 1 0 1
0 -135 60 271.997 0 -1 0 0.569049 -151.223958 1 0 1
0 -135 60 160 0 -1 0 2.027344 -151.223958 1 0 1
bridge_se1_metal_flat_steel_01
0 -131 60 267.997 1 0 0 -36.341146 1.433633 1 0 1
0 -131 60 160 1 0 0 -36.341146 2.839844 1 0 1
0 -131 70 160 1 0 0 -36.471354 2.839844 1 0 1
bridge_se1_metal_flat_steel_01
0 -131 60 267.997 1 0 0 -36.341146 1.433633 1 0 1
0 -131 70 160 1 0 0 -36.471354 2.839844 1 0 1
0 -131 70 267.997 1 0 0 -36.471354 1.433633 1 0 1
bridge_se1_metal_flat_steel_01
0 80 -169 278 0 0 -1 -149.332682 -32.476562 1 0 1
0 -154 -169 278 0 0 -1 -152.379557 -32.476562 1 0 1
0 -154 -159 278 0 0 -1 -152.379557 -32.606771 1 0 1
bridge_se1_metal_flat_steel_01
0 80 -169 278 0 0 -1 -149.332682 -32.476562 1 0 1
0 -154 -159 278 0 0 -1 -152.379557 -32.606771 1 0 1
0 80 -159 278 0 0 -1 -149.332682 -32.606771 1 0 1
bridge_se1_metal_flat_steel_01
0 80 -159 278 0 1 0 -149.332682 1.393229 1 0 1
0 -154 -159 278 0 1 0 -152.379557 1.393229 1 0 1
0 -154 -159 288 0 1 0 -152.379557 1.263021 1 0 1
bridge_se1_metal_flat_steel_01
0 80 -159 278 0 1 0 -149.332682 1.393229 1 0 1
0 -154 -159 288 0 1 0 -152.379557 1.263021 1 0 1
0 80 -159 288 0 1 0 -149.332682 1.263021 1 0 1
bridge_se1_metal_flat_steel_01
0 80 -169 288 0 -1 0 -149.332682 0.652995 1 0 1
0 -154 -169 288 0 -1 0 -152.379557 0.652995 1 0 1
0 -154 -169 278 0 -1 0 -152.379557 0.522786 1 0 1
bridge_se1_metal_flat_steel_01
0 80 -169 288 0 -1 0 -149.332682 0.652995 1 0 1
0 -154 -169 278 0 -1 0 -152.379557 0.522786 1 0 1
0 80 -169 278 0 -1 0 -149.332682 0.522786 1 0 1
bridge_se1_metal_flat_steel_01
0 80 -120 150 0 1 0 -149.332682 3.552083 1 0 1
0 80 -120 140 0 1 0 -149.332682 3.682292 1 0 1
0 -154 -120 140 0 1 0 -152.379557 3.682292 1 0 1
bridge_se1_metal_flat_steel_01
0 80 -120 150 0 1 0 -149.332682 3.552083 1 0 1
0 -154 -120 140 0 1 0 -152.379557 3.682292 1 0 1
0 -154 -120 150 0 1 0 -152.379557 3.552083 1 0 1
bridge_se1_metal_flat_steel_01
0 80 -130 140 0 -1 0 -149.332682 -1.781901 1 0 1
0 80 -130 150 0 -1 0 -149.332682 -1.651693 1 0 1
0 -154 -130 150 0 -1 0 -152.379557 -1.651693 1 0 1
bridge_se1_metal_flat_steel_01
0 80 -130 140 0 -1 0 -149.332682 -1.781901 1 0 1
0 -154 -130 150 0 -1 0 -152.379557 -1.651693 1 0 1
0 -154 -130 140 0 -1 0 -152.379557 -1.781901 1 0 1
bridge_se1_metal_flat_steel_01
0 80 -130 140 0 0 -1 -149.332682 -32.984375 1 0 1
0 -154 -130 140 0 0 -1 -152.379557 -32.984375 1 0 1
0 -154 -120 140 0 0 -1 -152.379557 -33.114583 1 0 1
bridge_se1_metal_flat_steel_01
0 80 -130 140 0 0 -1 -149.332682 -32.984375 1 0 1
0 -154 -120 140 0 0 -1 -152.379557 -33.114583 1 0 1
0 80 -120 140 0 0 -1 -149.332682 -33.114583 1 0 1
pepsi2_arch_plaster01
0 80 -137 207 -1 0 0 -19.785156 -0.242188 1 0 1
0 80 -21 207 -1 0 0 -20.691406 -0.242188 1 0 1
0 80 -21 202 -1 0 0 -20.691406 -0.28125 1 0 1
pepsi2_arch_plaster01
0 80 -137 207 -1 0 0 -19.785156 -0.242188 1 0 1
0 80 -21 202 -1 0 0 -20.691406 -0.28125 1 0 1
0 80 -137 202 -1 0 0 -19.785156 -0.28125 1 0 1
pepsi2_arch_concrete_wall01
0 90 -137 202 1 0 0 -11.203342 0.621745 1 0 1
0 90 -21 202 1 0 0 -11.706814 0.621745 1 0 1
0 90 -21 207 1 0 0 -11.706814 0.643446 1 0 1
pepsi2_arch_concrete_wall01
0 90 -137 202 1 0 0 -11.203342 0.621745 1 0 1
0 90 -21 207 1 0 0 -11.706814 0.643446 1 0 1
0 90 -137 207 1 0 0 -11.203342 0.643446 1 0 1
pepsi2_arch_woodf4
0 -132 -215 42 1 0 0 19.011719 3.0625 1 0 1
0 -132 -215 34 1 0 0 19.011719 3.125 1 0 1
0 -132 -134 34 1 0 0 19.644531 3.125 1 0 1
pepsi2_arch_woodf4
0 -132 -215 42 1 0 0 19.011719 3.0625 1 0 1
0 -132 -134 34 1 0 0 19.644531 3.125 1 0 1
0 -132 -134 42 1 0 0 19.644531 3.0625 1 0 1
pepsi2_arch_woodf4
0 -148 -215 42 0 0 1 19.011719 -89.9375 1 0 1
0 -132 -215 42 0 0 1 19.011719 -89.8125 1 0 1
0 -132 -134 42 0 0 1 19.644531 -89.8125 1 0 1
pepsi2_arch_woodf4
0 -148 -215 42 0 0 1 19.011719 -89.9375 1 0 1
0 -132 -134 42 0 0 1 19.644531 -89.8125 1 0 1
0 -148 -134 42 0 0 1 19.644531 -89.9375 1 0 1
pepsi2_arch_plaster01
0 80 -137 239 -1 0 0 -19.785156 0.007812 1 0 1
0 80 -137 244 -1 0 0 -19.785156 0.046875 1 0 1
0 80 -21 244 -1 0 0 -20.691406 0.046875 1 0 1
pepsi2_arch_plaster01
0 80 -137 239 -1 0 0 -19.785156 0.007812 1 0 1
0 80 -21 244 -1 0 0 -20.691406 0.046875 1 0 1
0 80 -21 239 -1 0 0 -20.691406 0.007812 1 0 1
pepsi2_arch_concrete_wall01
0 90 -137 244 1 0 0 -11.203342 0.804036 1 0 1
0 90 -137 239 1 0 0 -11.203342 0.782335 1 0 1
0 90 -21 239 1 0 0 -11.706814 0.782335 1 0 1
pepsi2_arch_concrete_wall01
0 90 -137 244 1 0 0 -11.203342 0.804036 1 0 1
0 90 -21 239 1 0 0 -11.706814 0.782335 1 0 1
0 90 -21 244 1 0 0 -11.706814 0.804036 1 0 1
pepsi2_arch_woodf4
0 -249 -114 66 0 0 1 -92.113281 -19.1875 1 0 1
0 -168 -114 66 0 0 1 -91.480469 -19.1875 1 0 1
0 -168 -98 66 0 0 1 -91.480469 -19.3125 1 0 1
pepsi2_arch_woodf4
0 -249 -114 66 0 0 1 -92.113281 -19.1875 1 0 1
0 -168 -98 66 0 0 1 -91.480469 -19.3125 1 0 1
0 -249 -98 66 0 0 1 -92.113281 -19.3125 1 0 1
pepsi2_arch_woodf4
0 -168 -114 66 0 -1 0 -91.480469 2.9375 1 0 1
0 -249 -114 66 0 -1 0 -92.113281 2.9375 1 0 1
0 -249 -114 58 0 -1 0 -92.113281 3 1 0 1
pepsi2_arch_woodf4
0 -168 -114 66 0 -1 0 -91.480469 2.9375 1 0 1
0 -249 -114 58 0 -1 0 -92.113281 3 1 0 1
0 -168 -114 58 0 -1 0 -91.480469 3 1 0 1
pepsi2_arch_woodf4
0 -168 -98 74 0 0 1 -91.480469 -19.375 1 0 1
0 -168 -82 74 0 0 1 -91.480469 -19.5 1 0 1
0 -249 -82 74 0 0 1 -92.113281 -19.5 1 0 1
pepsi2_arch_woodf4
0 -168 -98 74 0 0 1 -91.480469 -19.375 1 0 1
0 -249 -82 74 0 0 1 -92.113281 -19.5 1 0 1
0 -249 -98 74 0 0 1 -92.113281 -19.375 1 0 1
pepsi2_arch_woodf4
0 -168 -98 66 0 -1 0 -91.480469 2.9375 1 0 1
0 -168 -98 74 0 -1 0 -91.480469 2.875 1 0 1
0 -249 -98 74 0 -1 0 -92.113281 2.875 1 0 1
pepsi2_arch_woodf4
0 -168 -98 66 0 -1 0 -91.480469 2.9375 1 0 1
0 -249 -98 74 0 -1 0 -92.113281 2.875 1 0 1
0 -249 -98 66 0 -1 0 -92.113281 2.9375 1 0 1
bridge_se1_metal_flat_steel_01
0 -79 70 272.017 0 1 0 -0.93207 -150.494792 1 0 1
0 -79 70 160 0 1 0 -2.390625 -150.494792 1 0 1
0 -83 70 160 0 1 0 -2.390625 -150.546875 1 0 1
bridge_se1_metal_flat_steel_01
0 -79 70 272.017 0 1 0 -0.93207 -150.494792 1 0 1
0 -83 70 160 0 1 0 -2.390625 -150.546875 1 0 1
0 -83 70 268.015 0 1 0 -0.98418 -150.546875 1 0 1
bridge_se1_metal_flat_steel_01
0 -79 60 160 0 -1 0 2.027344 -150.494792 1 0 1
0 -79 60 272.027 0 -1 0 0.568659 -150.494792 1 0 1
0 -83 60 268.025 0 -1 0 0.620768 -150.546875 1 0 1
bridge_se1_metal_flat_steel_01
0 -79 60 160 0 -1 0 2.027344 -150.494792 1 0 1
0 -83 60 268.025 0 -1 0 0.620768 -150.546875 1 0 1
0 -83 60 160 0 -1 0 2.027344 -150.546875 1 0 1
bridge_se1_metal_flat_steel_01
0 -83 60 160 -1 0 0 -36.341146 -1.578125 1 0 1
0 -83 60 268.025 -1 0 0 -36.341146 -0.171549 1 0 1
0 -83 70 268.015 -1 0 0 -36.471354 -0.17168 1 0 1
bridge_se1_metal_flat_steel_01
0 -83 60 160 -1 0 0 -36.341146 -1.578125 1 0 1
0 -83 70 268.015 -1 0 0 -36.471354 -0.17168 1 0 1
0 -83 70 160 -1 0 0 -36.471354 -1.578125 1 0 1
pepsi2_arch_woodf4
0 -168 -50 90 0 -1 0 -91.480469 2.75 1 0 1
0 -168 -50 98 0 -1 0 -91.480469 2.6875 1 0 1
0 -249 -50 98 0 -1 0 -92.113281 2.6875 1 0 1
pepsi2_arch_woodf4
0 -168 -50 90 0 -1 0 -91.480469 2.75 1 0 1
0 -249 -50 98 0 -1 0 -92.113281 2.6875 1 0 1
0 -249 -50 90 0 -1 0 -92.113281 2.75 1 0 1
pepsi2_arch_woodf4
0 -249 -50 98 0 0 1 -92.113281 -19.9375 1 0 1
0 -168 -50 98 0 0 1 -91.480469 -19.9375 1 0 1
0 -168 -34 98 0 0 1 -91.480469 -20.0625 1 0 1
pepsi2_arch_woodf4
0 -249 -50 98 0 0 1 -92.113281 -19.9375 1 0 1
0 -168 -34 98 0 0 1 -91.480469 -20.0625 1 0 1
0 -249 -34 98 0 0 1 -92.113281 -20.0625 1 0 1
pepsi2_arch_woodf4
0 -148 -215 50 1 0 0 19.011719 3 1 0 1
0 -148 -215 42 1 0 0 19.011719 3.0625 1 0 1
0 -148 -134 42 1 0 0 19.644531 3.0625 1 0 1
pepsi2_arch_woodf4
0 -148 -215 50 1 0 0 19.011719 3 1 0 1
0 -148 -134 42 1 0 0 19.644531 3.0625 1 0 1
0 -148 -134 50 1 0 0 19.644531 3 1 0 1
pepsi2_arch_woodf4
0 -164 -215 50 0 0 1 19.011719 -90.125 1 0 1
0 -148 -215 50 0 0 1 19.011719 -90 1 0 1
0 -148 -134 50 0 0 1 19.644531 -90 1 0 1
pepsi2_arch_woodf4
0 -164 -215 50 0 0 1 19.011719 -90.125 1 0 1
0 -148 -134 50 0 0 1 19.644531 -90 1 0 1
0 -164 -134 50 0 0 1 19.644531 -90.125 1 0 1
pepsi2_arch_concrete_stair01
0 90 123 4 0 0 1 21.916016 -88.003906 1 0 1
0 97 123 4 0 0 1 21.916016 -87.949219 1 0 1
0 97 179 4 0 0 1 22.353516 -87.949219 1 0 1
pepsi2_arch_concrete_stair01
0 90 123 4 0 0 1 21.916016 -88.003906 1 0 1
0 97 179 4 0 0 1 22.353516 -87.949219 1 0 1
0 90 179 4 0 0 1 22.353516 -88.003906 1 0 1
pepsi2_arch_concrete_stair01
0 98 179 3.001 0.706753 0 0.70746 22.353516 -59.936749 1 0 1
0 97 179 4 0.706753 0 0.70746 22.353516 -59.947792 1 0 1
0 97 123 4 0.706753 0 0.70746 21.916016 -59.947792 1 0 1
pepsi2_arch_concrete_stair01
0 98 179 3.001 0.706753 0 0.70746 22.353516 -59.936749 1 0 1
0 97 123 4 0.706753 0 0.70746 21.916016 -59.947792 1 0 1
0 98 123 3.001 0.706753 0 0.70746 21.916016 -59.936749 1 0 1
pepsi2_arch_concrete_stair01
0 90 179 0 0 1 0 2.384766 -88.003906 1 0 1
0 90 179 4 0 1 0 2.353516 -88.003906 1 0 1
0 97 179 4 0 1 0 2.353516 -87.949219 1 0 1
pepsi2_arch_concrete_stair01
0 90 179 0 0 1 0 2.384766 -88.003906 1 0 1
0 97 179 4 0 1 0 2.353516 -87.949219 1 0 1
0 98 179 3.001 0 1 0 2.36132 -87.941406 1 0 1
pepsi2_arch_concrete_stair01
0 90 179 0 0 1 0 2.384766 -88.003906 1 0 1
0 98 179 3.001 0 1 0 2.36132 -87.941406 1 0 1
0 98 179 0 0 1 0 2.384766 -87.941406 1 0 1
pepsi2_arch_concrete_stair01
0 98 123 0 0 -1 0 -2.115234 -87.941406 1 0 1
0 98 123 3.001 0 -1 0 -2.091789 -87.941406 1 0 1
0 97 123 4 0 -1 0 -2.083984 -87.949219 1 0 1
pepsi2_arch_concrete_stair01
0 98 123 0 0 -1 0 -2.115234 -87.941406 1 0 1
0 97 123 4 0 -1 0 -2.083984 -87.949219 1 0 1
0 90 123 4 0 -1 0 -2.083984 -88.003906 1 0 1
pepsi2_arch_concrete_stair01
0 98 123 0 0 -1 0 -2.115234 -87.941406 1 0 1
0 90 123 4 0 -1 0 -2.083984 -88.003906 1 0 1
0 90 123 0 0 -1 0 -2.115234 -88.003906 1 0 1
pepsi2_arch_concrete_stair01
0 98 179 0 1 0 0 22.353516 3.085938 1 0 1
0 98 179 3.001 1 0 0 22.353516 3.062492 1 0 1
0 98 123 3.001 1 0 0 21.916016 3.062492 1 0 1
pepsi2_arch_concrete_stair01
0 98 179 0 1 0 0 22.353516 3.085938 1 0 1
0 98 123 3.001 1 0 0 21.916016 3.062492 1 0 1
0 98 123 0 1 0 0 21.916016 3.085938 1 0 1
pepsi2_arch_woodf4
0 -116 -215 34 1 0 0 19.011719 3.125 1 0 1
0 -116 -215 26 1 0 0 19.011719 3.1875 1 0 1
0 -116 -134 26 1 0 0 19.644531 3.1875 1 0 1
pepsi2_arch_woodf4
0 -116 -215 34 1 0 0 19.011719 3.125 1 0 1
0 -116 -134 26 1 0 0 19.644531 3.1875 1 0 1
0 -116 -134 34 1 0 0 19.644531 3.125 1 0 1
pepsi2_arch_woodf4
0 -132 -215 34 0 0 1 19.011719 -89.75 1 0 1
0 -116 -215 34 0 0 1 19.011719 -89.625 1 0 1
0 -116 -134 34 0 0 1 19.644531 -89.625 1 0 1
pepsi2_arch_woodf4
0 -132 -215 34 0 0 1 19.011719 -89.75 1 0 1
0 -116 -134 34 0 0 1 19.644531 -89.625 1 0 1
0 -132 -134 34 0 0 1 19.644531 -89.75 1 0 1
bridge_se1_metal_flat_steel_01
0 80 180 288 0 1 0 -149.332682 1.848958 1 0 1
0 80 180 278 0 1 0 -149.332682 1.979167 1 0 1
0 -253 180 278 0 1 0 -153.66862 1.979167 1 0 1
bridge_se1_metal_flat_steel_01
0 80 180 288 0 1 0 -149.332682 1.848958 1 0 1
0 -253 180 278 0 1 0 -153.66862 1.979167 1 0 1
0 -253 180 288 0 1 0 -153.66862 1.848958 1 0 1
bridge_se1_metal_flat_steel_01
0 80 170 278 0 -1 0 -149.332682 0.108724 1 0 1
0 80 170 288 0 -1 0 -149.332682 0.238932 1 0 1
0 -253 170 288 0 -1 0 -153.66862 0.238932 1 0 1
bridge_se1_metal_flat_steel_01
0 80 170 278 0 -1 0 -149.332682 0.108724 1 0 1
0 -253 170 288 0 -1 0 -153.66862 0.238932 1 0 1
0 -253 170 278 0 -1 0 -153.66862 0.108724 1 0 1
bridge_se1_metal_flat_steel_01
0 80 170 278 0 0 -1 -149.332682 -36.890625 1 0 1
0 -253 170 278 0 0 -1 -153.66862 -36.890625 1 0 1
0 -253 180 278 0 0 -1 -153.66862 -37.020833 1 0 1
bridge_se1_metal_flat_steel_01
0 80 170 278 0 0 -1 -149.332682 -36.890625 1 0 1
0 -253 180 278 0 0 -1 -153.66862 -37.020833 1 0 1
0 80 180 278 0 0 -1 -149.332682 -37.020833 1 0 1
pepsi2_arch_plaster01
0 80 -137 160 -1 0 0 -19.785156 -0.609375 1 0 1
0 80 -137 170 -1 0 0 -19.785156 -0.53125 1 0 1
0 80 -21 170 -1 0 0 -20.691406 -0.53125 1 0 1
pepsi2_arch_plaster01
0 80 -137 160 -1 0 0 -19.785156 -0.609375 1 0 1
0 80 -21 170 -1 0 0 -20.691406 -0.53125 1 0 1
0 80 -21 160 -1 0 0 -20.691406 -0.609375 1 0 1
pepsi2_arch_concrete_wall01
0 90 -137 170 1 0 0 -11.203342 0.482856 1 0 1
0 90 -137 160 1 0 0 -11.203342 0.439453 1 0 1
0 90 -21 160 1 0 0 -11.706814 0.439453 1 0 1
pepsi2_arch_concrete_wall01
0 90 -137 170 1 0 0 -11.203342 0.482856 1 0 1
0 90 -21 160 1 0 0 -11.706814 0.439453 1 0 1
0 90 -21 170 1 0 0 -11.706814 0.482856 1 0 1
pepsi2_arch_concrete_wall01
0 -164 -130 50 0 -1 0 -3.846354 -151.050781 1 0 1
0 -164 -130 58 0 -1 0 -3.742188 -151.050781 1 0 1
0 -168 -130 58 0 -1 0 -3.742188 -151.102865 1 0 1
pepsi2_arch_concrete_wall01
0 -164 -130 50 0 -1 0 -3.846354 -151.050781 1 0 1
0 -168 -130 58 0 -1 0 -3.742188 -151.102865 1 0 1
0 -168 -130 49.995 0 -1 0 -3.846419 -151.102865 1 0 1
pepsi2_arch_concrete_wall01
0 -168 -130 49.995 -1 0 0 -3.846419 -33.101562 1 0 1
0 -168 -130 58 -1 0 0 -3.742188 -33.101562 1 0 1
0 -168 62 154 -1 0 0 -2.492188 -35.601562 1 0 1
pepsi2_arch_concrete_wall01
0 -168 -130 49.995 -1 0 0 -3.846419 -33.101562 1 0 1
0 -168 62 154 -1 0 0 -2.492188 -35.601562 1 0 1
0 -168 78 154 -1 0 0 -2.492188 -35.809896 1 0 1
pepsi2_arch_concrete_wall01
0 -164 62 154 0 0 1 36.052734 -151.050781 1 0 1
0 -164 77.99 154 0 0 1 36.260938 -151.050781 1 0 1
0 -168 78 154 0 0 1 36.261068 -151.102865 1 0 1
pepsi2_arch_concrete_wall01
0 -164 62 154 0 0 1 36.052734 -151.050781 1 0 1
0 -168 78 154 0 0 1 36.261068 -151.102865 1 0 1
0 -168 62 154 0 0 1 36.052734 -151.102865 1 0 1
pepsi2_arch_concrete_wall01
0 -168 -130 58 0 -0.447214 0.894427 28.256594 -151.102865 1 0 1
0 -164 -130 58 0 -0.447214 0.894427 28.256594 -151.050781 1 0 1
0 -164 62 154 0 -0.447214 0.894427 31.051594 -151.050781 1 0 1
pepsi2_arch_concrete_wall01
0 -168 -130 58 0 -0.447214 0.894427 28.256594 -151.102865 1 0 1
0 -164 62 154 0 -0.447214 0.894427 31.051594 -151.050781 1 0 1
0 -168 62 154 0 -0.447214 0.894427 31.051594 -151.102865 1 0 1
bridge_se1_metal_flat_steel_01
0 -131 60 268 0 0 -1 -36.341146 -151.171875 1 0 1
0 -131 70 268 0 0 -1 -36.471354 -151.171875 1 0 1
0 -83 70 268 0 0 -1 -36.471354 -150.546875 1 0 1
bridge_se1_metal_flat_steel_01
0 -131 60 268 0 0 -1 -36.341146 -151.171875 1 0 1
0 -83 70 268 0 0 -1 -36.471354 -150.546875 1 0 1
0 -83 60 268 0 0 -1 -36.341146 -150.546875 1 0 1
bridge_se1_metal_flat_steel_01
0 -83 70 268 0 1 0 -0.984375 -150.546875 1 0 1
0 -131 70 268 0 1 0 -0.984375 -151.171875 1 0 1
0 -135 70 272 0 1 0 -0.932292 -151.223958 1 0 1
bridge_se1_metal_flat_steel_01
0 -83 70 268 0 1 0 -0.984375 -150.546875 1 0 1
0 -135 70 272 0 1 0 -0.932292 -151.223958 1 0 1
0 -79 70 272 0 1 0 -0.932292 -150.494792 1 0 1
bridge_se1_metal_flat_steel_01
0 -79 60 272 0 -1 0 0.56901 -150.494792 1 0 1
0 -135 60 272 0 -1 0 0.56901 -151.223958 1 0 1
0 -131 60 268 0 -1 0 0.621094 -151.171875 1 0 1
bridge_se1_metal_flat_steel_01
0 -79 60 272 0 -1 0 0.56901 -150.494792 1 0 1
0 -131 60 268 0 -1 0 0.621094 -151.171875 1 0 1
0 -83 60 268 0 -1 0 0.621094 -150.546875 1 0 1
pepsi2_arch_woodf4
0 -168 14 122 0 -1 0 -91.480469 2.5 1 0 1
0 -168 14 130 0 -1 0 -91.480469 2.4375 1 0 1
0 -249 14 130 0 -1 0 -92.113281 2.4375 1 0 1
pepsi2_arch_woodf4
0 -168 14 122 0 -1 0 -91.480469 2.5 1 0 1
0 -249 14 130 0 -1 0 -92.113281 2.4375 1 0 1
0 -249 14 122 0 -1 0 -92.113281 2.5 1 0 1
pepsi2_arch_woodf4
0 -249 14 130 0 0 1 -92.113281 -20.6875 1 0 1
0 -168 14 130 0 0 1 -91.480469 -20.6875 1 0 1
0 -168 30 130 0 0 1 -91.480469 -20.8125 1 0 1
pepsi2_arch_woodf4
0 -249 14 130 0 0 1 -92.113281 -20.6875 1 0 1
0 -168 30 130 0 0 1 -91.480469 -20.8125 1 0 1
0 -249 30 130 0 0 1 -92.113281 -20.8125 1 0 1
bridge_se1_metal_flat_steel_01
0 -253 208 140 0 0 -1 -153.66862 -37.385417 1 0 1
0 -253 218 140 0 0 -1 -153.66862 -37.515625 1 0 1
0 80 218 140 0 0 -1 -149.332682 -37.515625 1 0 1
bridge_se1_metal_flat_steel_01
0 -253 208 140 0 0 -1 -153.66862 -37.385417 1 0 1
0 80 218 140 0 0 -1 -149.332682 -37.515625 1 0 1
0 80 208 140 0 0 -1 -149.332682 -37.385417 1 0 1
bridge_se1_metal_flat_steel_01
0 80 218 150 0 1 0 -149.332682 3.151693 1 0 1
0 80 218 140 0 1 0 -149.332682 3.281901 1 0 1
0 -253 218 140 0 1 0 -153.66862 3.281901 1 0 1
bridge_se1_metal_flat_steel_01
0 80 218 150 0 1 0 -149.332682 3.151693 1 0 1
0 -253 218 140 0 1 0 -153.66862 3.281901 1 0 1
0 -253 218 150 0 1 0 -153.66862 3.151693 1 0 1
bridge_se1_metal_flat_steel_01
0 80 208 140 0 -1 0 -149.332682 -1.182292 1 0 1
0 80 208 150 0 -1 0 -149.332682 -1.052083 1 0 1
0 -253 208 150 0 -1 0 -153.66862 -1.052083 1 0 1
bridge_se1_metal_flat_steel_01
0 80 208 140 0 -1 0 -149.332682 -1.182292 1 0 1
0 -253 208 150 0 -1 0 -153.66862 -1.052083 1 0 1
0 -253 208 140 0 -1 0 -153.66862 -1.182292 1 0 1
pepsi2_arch_woodf4
0 -100 -215 26 1 0 0 19.011719 3.1875 1 0 1
0 -100 -215 18 1 0 0 19.011719 3.25 1 0 1
0 -100 -134 18 1 0 0 19.644531 3.25 1 0 1
pepsi2_arch_woodf4
0 -100 -215 26 1 0 0 19.011719 3.1875 1 0 1
0 -100 -134 18 1 0 0 19.644531 3.25 1 0 1
0 -100 -134 26 1 0 0 19.644531 3.1875 1 0 1
pepsi2_arch_woodf4
0 -100 -134 26 0 0 1 19.644531 -89.4375 1 0 1
0 -116 -134 26 0 0 1 19.644531 -89.5625 1 0 1
0 -116 -215 26 0 0 1 19.011719 -89.5625 1 0 1
pepsi2_arch_woodf4
0 -100 -134 26 0 0 1 19.644531 -89.4375 1 0 1
0 -116 -215 26 0 0 1 19.011719 -89.5625 1 0 1
0 -100 -215 26 0 0 1 19.011719 -89.4375 1 0 1
pepsi2_arch_woodf4
0 -168 -2 114 0 -1 0 -91.480469 2.5625 1 0 1
0 -168 -2 122 0 -1 0 -91.480469 2.5 1 0 1
0 -249 -2 122 0 -1 0 -92.113281 2.5 1 0 1
pepsi2_arch_woodf4
0 -168 -2 114 0 -1 0 -91.480469 2.5625 1 0 1
0 -249 -2 122 0 -1 0 -92.113281 2.5 1 0 1
0 -249 -2 114 0 -1 0 -92.113281 2.5625 1 0 1
pepsi2_arch_woodf4
0 -249 -2 122 0 0 1 -92.113281 -20.5 1 0 1
0 -168 -2 122 0 0 1 -91.480469 -20.5 1 0 1
0 -168 14 122 0 0 1 -91.480469 -20.625 1 0 1
pepsi2_arch_woodf4
0 -249 -2 122 0 0 1 -92.113281 -20.5 1 0 1
0 -168 14 122 0 0 1 -91.480469 -20.625 1 0 1
0 -249 14 122 0 0 1 -92.113281 -20.625 1 0 1
pepsi2_arch_woodf4
0 -168 -18 106 0 -1 0 -91.480469 2.625 1 0 1
0 -168 -18 114 0 -1 0 -91.480469 2.5625 1 0 1
0 -249 -18 114 0 -1 0 -92.113281 2.5625 1 0 1
pepsi2_arch_woodf4
0 -168 -18 106 0 -1 0 -91.480469 2.625 1 0 1
0 -249 -18 114 0 -1 0 -92.113281 2.5625 1 0 1
0 -249 -18 106 0 -1 0 -92.113281 2.625 1 0 1
pepsi2_arch_woodf4
0 -249 -18 114 0 0 1 -92.113281 -20.3125 1 0 1
0 -168 -18 114 0 0 1 -91.480469 -20.3125 1 0 1
0 -168 -2 114 0 0 1 -91.480469 -20.4375 1 0 1
pepsi2_arch_woodf4
0 -249 -18 114 0 0 1 -92.113281 -20.3125 1 0 1
0 -168 -2 114 0 0 1 -91.480469 -20.4375 1 0 1
0 -249 -2 114 0 0 1 -92.113281 -20.4375 1 0 1
pepsi2_arch_woodf4
0 -168 -130 50 0 -1 0 -91.480469 3.0625 1 0 1
0 -168 -130 58 0 -1 0 -91.480469 3 1 0 1
0 -249 -130 58 0 -1 0 -92.113281 3 1 0 1
pepsi2_arch_woodf4
0 -168 -130 50 0 -1 0 -91.480469 3.0625 1 0 1
0 -249 -130 58 0 -1 0 -92.113281 3 1 0 1
0 -249 -130 50 0 -1 0 -92.113281 3.0625 1 0 1
pepsi2_arch_woodf4
0 -249 -130 58 0 0 1 -92.113281 -19 1 0 1
0 -168 -130 58 0 0 1 -91.480469 -19 1 0 1
0 -168 -114 58 0 0 1 -91.480469 -19.125 1 0 1
pepsi2_arch_woodf4
0 -249 -130 58 0 0 1 -92.113281 -19 1 0 1
0 -168 -114 58 0 0 1 -91.480469 -19.125 1 0 1
0 -249 -114 58 0 0 1 -92.113281 -19.125 1 0 1
bridge_se1_metal_flat_steel_01
0 80 123 122 -1 0 0 2.56901 -36.481771 1 0 1
0 80 179 122 -1 0 0 2.56901 -37.210938 1 0 1
0 80 175 118 -1 0 0 2.621094 -37.158854 1 0 1
bridge_se1_metal_flat_steel_01
0 80 123 122 -1 0 0 2.56901 -36.481771 1 0 1
0 80 175 118 -1 0 0 2.621094 -37.158854 1 0 1
0 80 127 118 -1 0 0 2.621094 -36.533854 1 0 1
bridge_se1_metal_flat_steel_01
0 90 127 118 1 0 0 2.621094 -36.533854 1 0 1
0 90 175 118 1 0 0 2.621094 -37.158854 1 0 1
0 90 179 122 1 0 0 2.56901 -37.210938 1 0 1
bridge_se1_metal_flat_steel_01
0 90 127 118 1 0 0 2.621094 -36.533854 1 0 1
0 90 179 122 1 0 0 2.56901 -37.210938 1 0 1
0 90 123 122 1 0 0 2.56901 -36.481771 1 0 1
bridge_se1_metal_flat_steel_01
0 80 127 118 0 0 -1 -149.44987 -36.533854 1 0 1
0 80 175 118 0 0 -1 -149.44987 -37.158854 1 0 1
0 90 175 118 0 0 -1 -149.319661 -37.158854 1 0 1
bridge_se1_metal_flat_steel_01
0 80 127 118 0 0 -1 -149.44987 -36.533854 1 0 1
0 90 175 118 0 0 -1 -149.319661 -37.158854 1 0 1
0 90 127 118 0 0 -1 -149.319661 -36.533854 1 0 1
bridge_se1_metal_flat_steel_01
0 80 10 288 0 1 0 -149.332682 2.061849 1 0 1
0 80 10 278 0 1 0 -149.332682 2.192057 1 0 1
0 -154 10 278 0 1 0 -152.379557 2.192057 1 0 1
bridge_se1_metal_flat_steel_01
0 80 10 288 0 1 0 -149.332682 2.061849 1 0 1
0 -154 10 278 0 1 0 -152.379557 2.192057 1 0 1
0 -154 10 288 0 1 0 -152.379557 2.061849 1 0 1
bridge_se1_metal_flat_steel_01
0 80 0 278 0 -1 0 -149.332682 0.323568 1 0 1
0 80 0 288 0 -1 0 -149.332682 0.453776 1 0 1
0 -154 0 288 0 -1 0 -152.379557 0.453776 1 0 1
bridge_se1_metal_flat_steel_01
0 80 0 278 0 -1 0 -149.332682 0.323568 1 0 1
0 -154 0 288 0 -1 0 -152.379557 0.453776 1 0 1
0 -154 0 278 0 -1 0 -152.379557 0.323568 1 0 1
bridge_se1_metal_flat_steel_01
0 80 0 278 0 0 -1 -149.332682 -34.677083 1 0 1
0 -154 0 278 0 0 -1 -152.379557 -34.677083 1 0 1
0 -154 10 278 0 0 -1 -152.379557 -34.807292 1 0 1
bridge_se1_metal_flat_steel_01
0 80 0 278 0 0 -1 -149.332682 -34.677083 1 0 1
0 -154 10 278 0 0 -1 -152.379557 -34.807292 1 0 1
0 80 10 278 0 0 -1 -149.332682 -34.807292 1 0 1
pepsi2_arch_concrete_wall01
0 -84 -134 10 1 0 0 -4.367188 34.990885 1 0 1
0 -84 -130 10 1 0 0 -4.367188 35.042969 1 0 1
0 -84 -130 18 1 0 0 -4.263021 35.042969 1 0 1
pepsi2_arch_concrete_wall01
0 -84 -134 10 1 0 0 -4.367188 34.990885 1 0 1
0 -84 -130 18 1 0 0 -4.263021 35.042969 1 0 1
0 -84 -134 18 1 0 0 -4.263021 34.990885 1 0 1
pepsi2_arch_concrete_wall01
0 -148 -134 50 0 0 1 151.986979 34.990885 1 0 1
0 -148 -130 50 0 0 1 151.986979 35.042969 1 0 1
0 -164 -130 50 0 0 1 152.195312 35.042969 1 0 1
pepsi2_arch_concrete_wall01
0 -148 -134 50 0 0 1 151.986979 34.990885 1 0 1
0 -164 -130 50 0 0 1 152.195312 35.042969 1 0 1
0 -164 -134 50 0 0 1 152.195312 34.990885 1 0 1
pepsi2_arch_concrete_wall01
0 -84 -134 18 0.447214 0 0.894427 132.732151 34.990885 1 0 1
0 -84 -130 18 0.447214 0 0.894427 132.732151 35.042969 1 0 1
0 -148 -130 50 0.447214 0 0.894427 133.663818 35.042969 1 0 1
pepsi2_arch_concrete_wall01
0 -84 -134 18 0.447214 0 0.894427 132.732151 34.990885 1 0 1
0 -148 -130 50 0.447214 0 0.894427 133.663818 35.042969 1 0 1
0 -148 -134 50 0.447214 0 0.894427 133.663818 34.990885 1 0 1
pepsi2_arch_concrete_wall01
0 -84 -130 18 0 1 0 -4.263021 152.044271 1 0 1
0 -84 -130 10 0 1 0 -4.367188 152.044271 1 0 1
0 -164 -130 50 0 1 0 -3.846354 153.085938 1 0 1
pepsi2_arch_concrete_wall01
0 -84 -130 18 0 1 0 -4.263021 152.044271 1 0 1
0 -164 -130 50 0 1 0 -3.846354 153.085938 1 0 1
0 -148 -130 50 0 1 0 -3.846354 152.877604 1 0 1
pepsi2_arch_concrete_wall01
0 -84 -134 10 0 -1 0 -4.367188 -150.009115 1 0 1
0 -84 -134 18 0 -1 0 -4.263021 -150.009115 1 0 1
0 -148 -134 50 0 -1 0 -3.846354 -150.842448 1 0 1
pepsi2_arch_concrete_wall01
0 -84 -134 10 0 -1 0 -4.367188 -150.009115 1 0 1
0 -148 -134 50 0 -1 0 -3.846354 -150.842448 1 0 1
0 -164 -134 50 0 -1 0 -3.846354 -151.050781 1 0 1
pepsi2_arch_woodf4
0 -249 -82 82 0 0 1 -92.113281 -19.5625 1 0 1
0 -168 -82 82 0 0 1 -91.480469 -19.5625 1 0 1
0 -168 -66 82 0 0 1 -91.480469 -19.6875 1 0 1
pepsi2_arch_woodf4
0 -249 -82 82 0 0 1 -92.113281 -19.5625 1 0 1
0 -168 -66 82 0 0 1 -91.480469 -19.6875 1 0 1
0 -249 -66 82 0 0 1 -92.113281 -19.6875 1 0 1
pepsi2_arch_woodf4
0 -168 -82 82 0 -1 0 -91.480469 2.8125 1 0 1
0 -249 -82 82 0 -1 0 -92.113281 2.8125 1 0 1
0 -249 -82 74 0 -1 0 -92.113281 2.875 1 0 1
pepsi2_arch_woodf4
0 -168 -82 82 0 -1 0 -91.480469 2.8125 1 0 1
0 -249 -82 74 0 -1 0 -92.113281 2.875 1 0 1
0 -168 -82 74 0 -1 0 -91.480469 2.875 1 0 1
end
