version 1
nodes
0 "root" -1
end
skeleton
time 0
0 0 0 0 0 0 0
end
triangles
props_tarpaperroof002a
0 67 -1 4 1 0 0 -3.510417 -1.598958 1 0 1
0 67 1 4 1 0 0 -3.536458 -1.598958 1 0 1
0 67 1 74 1 0 0 -3.536458 -0.6875 1 0 1
props_tarpaperroof002a
0 67 -1 4 1 0 0 -3.510417 -1.598958 1 0 1
0 67 1 74 1 0 0 -3.536458 -0.6875 1 0 1
0 67 -1 74 1 0 0 -3.510417 -0.6875 1 0 1
props_tarpaperroof002a
0 65 1 4 0 0 -1 -60.583333 -0.142361 1 0 1
0 67 1 4 0 0 -1 -60.574653 -0.142361 1 0 1
0 67 -1 4 0 0 -1 -60.574653 -0.133681 1 0 1
props_tarpaperroof002a
0 65 1 4 0 0 -1 -60.583333 -0.142361 1 0 1
0 67 -1 4 0 0 -1 -60.574653 -0.133681 1 0 1
0 65 -1 4 0 0 -1 -60.583333 -0.133681 1 0 1
props_tarpaperroof002a
0 65 -1 74 0 0 1 -60.583333 -0.133681 1 0 1
0 67 -1 74 0 0 1 -60.574653 -0.133681 1 0 1
0 67 1 74 0 0 1 -60.574653 -0.142361 1 0 1
props_tarpaperroof002a
0 65 -1 74 0 0 1 -60.583333 -0.133681 1 0 1
0 67 1 74 0 0 1 -60.574653 -0.142361 1 0 1
0 65 1 74 0 0 1 -60.583333 -0.142361 1 0 1
props_tarpaperroof002a
0 67 1 74 0 1 0 108.882812 0.056641 1 0 1
0 67 1 4 0 1 0 108.882812 -0.490234 1 0 1
0 65 1 4 0 1 0 108.898438 -0.490234 1 0 1
props_tarpaperroof002a
0 67 1 74 0 1 0 108.882812 0.056641 1 0 1
0 65 1 4 0 1 0 108.898438 -0.490234 1 0 1
0 65 1 74 0 1 0 108.898438 0.056641 1 0 1
props_tarpaperroof002a
0 67 -1 4 0 -1 0 182.014974 -1.598958 1 0 1
0 67 -1 74 0 -1 0 182.014974 -0.6875 1 0 1
0 65 -1 74 0 -1 0 182.041016 -0.6875 1 0 1
props_tarpaperroof002a
0 67 -1 4 0 -1 0 182.014974 -1.598958 1 0 1
0 65 -1 74 0 -1 0 182.041016 -0.6875 1 0 1
0 65 -1 4 0 -1 0 182.041016 -1.598958 1 0 1
props_tarpaperroof002a
0 65 -1 74 -1 0 0 -3.510417 -0.6875 1 0 1
0 65 1 74 -1 0 0 -3.536458 -0.6875 1 0 1
0 65 1 4 -1 0 0 -3.536458 -1.598958 1 0 1
props_tarpaperroof002a
0 65 -1 74 -1 0 0 -3.510417 -0.6875 1 0 1
0 65 1 4 -1 0 0 -3.536458 -1.598958 1 0 1
0 65 -1 4 -1 0 0 -3.510417 -1.598958 1 0 1
props_tarpaperroof002a
0 67 95 74 0 1 0 108.882812 0.056641 1 0 1
0 67 95 4 0 1 0 108.882812 -0.490234 1 0 1
0 65 95 4 0 1 0 108.898438 -0.490234 1 0 1
props_tarpaperroof002a
0 67 95 74 0 1 0 108.882812 0.056641 1 0 1
0 65 95 4 0 1 0 108.898438 -0.490234 1 0 1
0 65 95 74 0 1 0 108.898438 0.056641 1 0 1
props_tarpaperroof002a
0 67 93 4 0 -1 0 182.014974 -1.598958 1 0 1
0 67 93 74 0 -1 0 182.014974 -0.6875 1 0 1
0 65 93 74 0 -1 0 182.041016 -0.6875 1 0 1
props_tarpaperroof002a
0 67 93 4 0 -1 0 182.014974 -1.598958 1 0 1
0 65 93 74 0 -1 0 182.041016 -0.6875 1 0 1
0 65 93 4 0 -1 0 182.041016 -1.598958 1 0 1
props_tarpaperroof002a
0 65 93 4 -1 0 0 -4.509766 -1.598958 1 0 1
0 65 93 74 -1 0 0 -4.509766 -0.6875 1 0 1
0 65 95 74 -1 0 0 -4.535807 -0.6875 1 0 1
props_tarpaperroof002a
0 65 93 4 -1 0 0 -4.509766 -1.598958 1 0 1
0 65 95 74 -1 0 0 -4.535807 -0.6875 1 0 1
0 65 95 4 -1 0 0 -4.535807 -1.598958 1 0 1
props_tarpaperroof002a
0 67 93 74 1 0 0 -4.509766 -0.6875 1 0 1
0 67 93 4 1 0 0 -4.509766 -1.598958 1 0 1
0 67 95 4 1 0 0 -4.535807 -1.598958 1 0 1
props_tarpaperroof002a
0 67 93 74 1 0 0 -4.509766 -0.6875 1 0 1
0 67 95 4 1 0 0 -4.535807 -1.598958 1 0 1
0 67 95 74 1 0 0 -4.535807 -0.6875 1 0 1
props_tarpaperroof002a
0 67 93 4 0 0 -1 -60.574653 -0.541667 1 0 1
0 65 93 4 0 0 -1 -60.583333 -0.541667 1 0 1
0 65 95 4 0 0 -1 -60.583333 -0.550347 1 0 1
props_tarpaperroof002a
0 67 93 4 0 0 -1 -60.574653 -0.541667 1 0 1
0 65 95 4 0 0 -1 -60.583333 -0.550347 1 0 1
0 67 95 4 0 0 -1 -60.574653 -0.550347 1 0 1
props_tarpaperroof002a
0 65 93 74 0 0 1 -60.583333 -0.541667 1 0 1
0 67 93 74 0 0 1 -60.574653 -0.541667 1 0 1
0 67 95 74 0 0 1 -60.574653 -0.550347 1 0 1
props_tarpaperroof002a
0 65 93 74 0 0 1 -60.583333 -0.541667 1 0 1
0 67 95 74 0 0 1 -60.574653 -0.550347 1 0 1
0 65 95 74 0 0 1 -60.583333 -0.550347 1 0 1
props_tarpaperroof002a
0 65 -203 4 0 0 1 -181.955078 0.127604 1 0 1
0 67 -203 4 0 0 1 -181.929036 0.127604 1 0 1
0 67 1 4 0 0 1 -181.929036 -2.528646 1 0 1
props_tarpaperroof002a
0 65 -203 4 0 0 1 -181.955078 0.127604 1 0 1
0 67 1 4 0 0 1 -181.929036 -2.528646 1 0 1
0 65 1 4 0 0 1 -181.955078 -2.528646 1 0 1
props_tarpaperroof002a
0 65 1 0 0 1 0 -181.919922 -1.428385 1 0 1
0 65 1 4 0 1 0 -181.919922 -1.376302 1 0 1
0 67 1 4 0 1 0 -181.89388 -1.376302 1 0 1
props_tarpaperroof002a
0 65 1 0 0 1 0 -181.919922 -1.428385 1 0 1
0 67 1 4 0 1 0 -181.89388 -1.376302 1 0 1
0 67 1 0 0 1 0 -181.89388 -1.428385 1 0 1
props_tarpaperroof002a
0 67 -203 0 0 -1 0 -181.89388 -1.428385 1 0 1
0 67 -203 4 0 -1 0 -181.89388 -1.376302 1 0 1
0 65 -203 4 0 -1 0 -181.919922 -1.376302 1 0 1
props_tarpaperroof002a
0 67 -203 0 0 -1 0 -181.89388 -1.428385 1 0 1
0 65 -203 4 0 -1 0 -181.919922 -1.376302 1 0 1
0 65 -203 0 0 -1 0 -181.919922 -1.428385 1 0 1
props_tarpaperroof002a
0 65 -203 0 -1 0 0 -2.602214 0.127604 1 0 1
0 65 -203 4 -1 0 0 -2.55013 0.127604 1 0 1
0 65 1 4 -1 0 0 -2.55013 -2.528646 1 0 1
props_tarpaperroof002a
0 65 -203 0 -1 0 0 -2.602214 0.127604 1 0 1
0 65 1 4 -1 0 0 -2.55013 -2.528646 1 0 1
0 65 1 0 -1 0 0 -2.602214 -2.528646 1 0 1
props_tarpaperroof002a
0 67 1 0 1 0 0 -2.602214 -2.528646 1 0 1
0 67 1 4 1 0 0 -2.55013 -2.528646 1 0 1
0 67 -203 4 1 0 0 -2.55013 0.127604 1 0 1
props_tarpaperroof002a
0 67 1 0 1 0 0 -2.602214 -2.528646 1 0 1
0 67 -203 4 1 0 0 -2.55013 0.127604 1 0 1
0 67 -203 0 1 0 0 -2.602214 0.127604 1 0 1
props_tarpaperroof002a
0 67 -203 0 0 0 -1 -181.89388 0.393229 1 0 1
0 65 -203 0 0 0 -1 -181.919922 0.393229 1 0 1
0 65 1 0 0 0 -1 -181.919922 -2.263021 1 0 1
props_tarpaperroof002a
0 67 -203 0 0 0 -1 -181.89388 0.393229 1 0 1
0 65 1 0 0 0 -1 -181.919922 -2.263021 1 0 1
0 67 1 0 0 0 -1 -181.89388 -2.263021 1 0 1
props_tarpaperroof002a
0 65 -201 4 0 1 0 -2.55013 183.167969 1 0 1
0 65 -201 0 0 1 0 -2.602214 183.167969 1 0 1
0 -67 -201 0 0 1 0 -2.602214 184.886719 1 0 1
props_tarpaperroof002a
0 65 -201 4 0 1 0 -2.55013 183.167969 1 0 1
0 -67 -201 0 0 1 0 -2.602214 184.886719 1 0 1
0 -67 -201 4 0 1 0 -2.55013 184.886719 1 0 1
props_tarpaperroof002a
0 65 -203 0 0 -1 0 -2.602214 183.167969 1 0 1
0 65 -203 4 0 -1 0 -2.55013 183.167969 1 0 1
0 -67 -203 4 0 -1 0 -2.55013 184.886719 1 0 1
props_tarpaperroof002a
0 65 -203 0 0 -1 0 -2.602214 183.167969 1 0 1
0 -67 -203 4 0 -1 0 -2.55013 184.886719 1 0 1
0 -67 -203 0 0 -1 0 -2.602214 184.886719 1 0 1
props_tarpaperroof002a
0 -67 -203 0 -1 0 0 -0.757812 -0.890625 1 0 1
0 -67 -203 4 -1 0 0 -0.757812 -0.859375 1 0 1
0 -67 -201 4 -1 0 0 -0.773438 -0.859375 1 0 1
props_tarpaperroof002a
0 -67 -203 0 -1 0 0 -0.757812 -0.890625 1 0 1
0 -67 -201 4 -1 0 0 -0.773438 -0.859375 1 0 1
0 -67 -201 0 -1 0 0 -0.773438 -0.890625 1 0 1
props_tarpaperroof002a
0 65 -203 4 1 0 0 0.757812 -0.859375 1 0 1
0 65 -203 0 1 0 0 0.757812 -0.890625 1 0 1
0 65 -201 0 1 0 0 0.773438 -0.890625 1 0 1
props_tarpaperroof002a
0 65 -203 4 1 0 0 0.757812 -0.859375 1 0 1
0 65 -201 0 1 0 0 0.773438 -0.890625 1 0 1
0 65 -201 4 1 0 0 0.773438 -0.859375 1 0 1
props_tarpaperroof002a
0 65 -203 0 0 0 -1 -0.780599 183.167969 1 0 1
0 -67 -203 0 0 0 -1 -0.780599 184.886719 1 0 1
0 -67 -201 0 0 0 -1 -0.806641 184.886719 1 0 1
props_tarpaperroof002a
0 65 -203 0 0 0 -1 -0.780599 183.167969 1 0 1
0 -67 -201 0 0 0 -1 -0.806641 184.886719 1 0 1
0 65 -201 0 0 0 -1 -0.806641 183.167969 1 0 1
props_tarpaperroof002a
0 -67 -203 4 0 0 1 -0.958333 184.886719 1 0 1
0 65 -203 4 0 0 1 -0.958333 183.167969 1 0 1
0 65 -201 4 0 0 1 -0.984375 183.167969 1 0 1
props_tarpaperroof002a
0 -67 -203 4 0 0 1 -0.958333 184.886719 1 0 1
0 65 -201 4 0 0 1 -0.984375 183.167969 1 0 1
0 -67 -201 4 0 0 1 -0.984375 184.886719 1 0 1
props_tarpaperroof002a
0 67 -295 74 0 1 0 108.882812 0.056641 1 0 1
0 67 -295 4 0 1 0 108.882812 -0.490234 1 0 1
0 65 -295 4 0 1 0 108.898438 -0.490234 1 0 1
props_tarpaperroof002a
0 67 -295 74 0 1 0 108.882812 0.056641 1 0 1
0 65 -295 4 0 1 0 108.898438 -0.490234 1 0 1
0 65 -295 74 0 1 0 108.898438 0.056641 1 0 1
props_tarpaperroof002a
0 67 -297 4 0 -1 0 182.014974 -1.598958 1 0 1
0 67 -297 74 0 -1 0 182.014974 -0.6875 1 0 1
0 65 -297 74 0 -1 0 182.041016 -0.6875 1 0 1
props_tarpaperroof002a
0 67 -297 4 0 -1 0 182.014974 -1.598958 1 0 1
0 65 -297 74 0 -1 0 182.041016 -0.6875 1 0 1
0 65 -297 4 0 -1 0 182.041016 -1.598958 1 0 1
props_tarpaperroof002a
0 65 -297 4 -1 0 0 0.490234 -1.598958 1 0 1
0 65 -297 74 -1 0 0 0.490234 -0.6875 1 0 1
0 65 -295 74 -1 0 0 0.464193 -0.6875 1 0 1
props_tarpaperroof002a
0 65 -297 4 -1 0 0 0.490234 -1.598958 1 0 1
0 65 -295 74 -1 0 0 0.464193 -0.6875 1 0 1
0 65 -295 4 -1 0 0 0.464193 -1.598958 1 0 1
props_tarpaperroof002a
0 67 -297 74 1 0 0 0.490234 -0.6875 1 0 1
0 67 -297 4 1 0 0 0.490234 -1.598958 1 0 1
0 67 -295 4 1 0 0 0.464193 -1.598958 1 0 1
props_tarpaperroof002a
0 67 -297 74 1 0 0 0.490234 -0.6875 1 0 1
0 67 -295 4 1 0 0 0.464193 -1.598958 1 0 1
0 67 -295 74 1 0 0 0.464193 -0.6875 1 0 1
props_tarpaperroof002a
0 67 -297 4 0 0 -1 -60.574653 1.151042 1 0 1
0 65 -297 4 0 0 -1 -60.583333 1.151042 1 0 1
0 65 -295 4 0 0 -1 -60.583333 1.142361 1 0 1
props_tarpaperroof002a
0 67 -297 4 0 0 -1 -60.574653 1.151042 1 0 1
0 65 -295 4 0 0 -1 -60.583333 1.142361 1 0 1
0 67 -295 4 0 0 -1 -60.574653 1.142361 1 0 1
props_tarpaperroof002a
0 65 -297 74 0 0 1 -60.583333 1.151042 1 0 1
0 67 -297 74 0 0 1 -60.574653 1.151042 1 0 1
0 67 -295 74 0 0 1 -60.574653 1.142361 1 0 1
props_tarpaperroof002a
0 65 -297 74 0 0 1 -60.583333 1.151042 1 0 1
0 67 -295 74 0 0 1 -60.574653 1.142361 1 0 1
0 65 -295 74 0 0 1 -60.583333 1.142361 1 0 1
props_tarpaperroof002a
0 65 -295 4 0 1 0 -2.55013 183.167969 1 0 1
0 65 -295 0 0 1 0 -2.602214 183.167969 1 0 1
0 -67 -295 0 0 1 0 -2.602214 184.886719 1 0 1
props_tarpaperroof002a
0 65 -295 4 0 1 0 -2.55013 183.167969 1 0 1
0 -67 -295 0 0 1 0 -2.602214 184.886719 1 0 1
0 -67 -295 4 0 1 0 -2.55013 184.886719 1 0 1
props_tarpaperroof002a
0 65 -297 0 0 -1 0 -2.602214 183.167969 1 0 1
0 65 -297 4 0 -1 0 -2.55013 183.167969 1 0 1
0 -67 -297 4 0 -1 0 -2.55013 184.886719 1 0 1
props_tarpaperroof002a
0 65 -297 0 0 -1 0 -2.602214 183.167969 1 0 1
0 -67 -297 4 0 -1 0 -2.55013 184.886719 1 0 1
0 -67 -297 0 0 -1 0 -2.602214 184.886719 1 0 1
props_tarpaperroof002a
0 -67 -297 0 -1 0 0 -0.023438 -0.890625 1 0 1
0 -67 -297 4 -1 0 0 -0.023438 -0.859375 1 0 1
0 -67 -295 4 -1 0 0 -0.039062 -0.859375 1 0 1
props_tarpaperroof002a
0 -67 -297 0 -1 0 0 -0.023438 -0.890625 1 0 1
0 -67 -295 4 -1 0 0 -0.039062 -0.859375 1 0 1
0 -67 -295 0 -1 0 0 -0.039062 -0.890625 1 0 1
props_tarpaperroof002a
0 65 -297 4 1 0 0 0.023438 -0.859375 1 0 1
0 65 -297 0 1 0 0 0.023438 -0.890625 1 0 1
0 65 -295 0 1 0 0 0.039062 -0.890625 1 0 1
props_tarpaperroof002a
0 65 -297 4 1 0 0 0.023438 -0.859375 1 0 1
0 65 -295 0 1 0 0 0.039062 -0.890625 1 0 1
0 65 -295 4 1 0 0 0.039062 -0.859375 1 0 1
props_tarpaperroof002a
0 65 -297 0 0 0 -1 0.287109 183.167969 1 0 1
0 -67 -297 0 0 0 -1 0.287109 184.886719 1 0 1
0 -67 -295 0 0 0 -1 0.261068 184.886719 1 0 1
props_tarpaperroof002a
0 65 -297 0 0 0 -1 0.287109 183.167969 1 0 1
0 -67 -295 0 0 0 -1 0.261068 184.886719 1 0 1
0 65 -295 0 0 0 -1 0.261068 183.167969 1 0 1
props_tarpaperroof002a
0 -67 -297 4 0 0 1 0.068359 184.886719 1 0 1
0 65 -297 4 0 0 1 0.068359 183.167969 1 0 1
0 65 -295 4 0 0 1 0.042318 183.167969 1 0 1
props_tarpaperroof002a
0 -67 -297 4 0 0 1 0.068359 184.886719 1 0 1
0 65 -295 4 0 0 1 0.042318 183.167969 1 0 1
0 -67 -295 4 0 0 1 0.042318 184.886719 1 0 1
props_tarpaperroof002a
0 67 -201 74 0 1 0 108.882812 0.056641 1 0 1
0 67 -201 4 0 1 0 108.882812 -0.490234 1 0 1
0 65 -201 4 0 1 0 108.898438 -0.490234 1 0 1
props_tarpaperroof002a
0 67 -201 74 0 1 0 108.882812 0.056641 1 0 1
0 65 -201 4 0 1 0 108.898438 -0.490234 1 0 1
0 65 -201 74 0 1 0 108.898438 0.056641 1 0 1
props_tarpaperroof002a
0 67 -203 4 0 -1 0 182.014974 -1.598958 1 0 1
0 67 -203 74 0 -1 0 182.014974 -0.6875 1 0 1
0 65 -203 74 0 -1 0 182.041016 -0.6875 1 0 1
props_tarpaperroof002a
0 67 -203 4 0 -1 0 182.014974 -1.598958 1 0 1
0 65 -203 74 0 -1 0 182.041016 -0.6875 1 0 1
0 65 -203 4 0 -1 0 182.041016 -1.598958 1 0 1
props_tarpaperroof002a
0 65 -203 4 -1 0 0 -0.511068 -1.598958 1 0 1
0 65 -203 74 -1 0 0 -0.511068 -0.6875 1 0 1
0 65 -201 74 -1 0 0 -0.537109 -0.6875 1 0 1
props_tarpaperroof002a
0 65 -203 4 -1 0 0 -0.511068 -1.598958 1 0 1
0 65 -201 74 -1 0 0 -0.537109 -0.6875 1 0 1
0 65 -201 4 -1 0 0 -0.537109 -1.598958 1 0 1
props_tarpaperroof002a
0 67 -203 74 1 0 0 -0.511068 -0.6875 1 0 1
0 67 -203 4 1 0 0 -0.511068 -1.598958 1 0 1
0 67 -201 4 1 0 0 -0.537109 -1.598958 1 0 1
props_tarpaperroof002a
0 67 -203 74 1 0 0 -0.511068 -0.6875 1 0 1
0 67 -201 4 1 0 0 -0.537109 -1.598958 1 0 1
0 67 -201 74 1 0 0 -0.537109 -0.6875 1 0 1
props_tarpaperroof002a
0 67 -203 4 0 0 -1 -60.574653 0.743056 1 0 1
0 65 -203 4 0 0 -1 -60.583333 0.743056 1 0 1
0 65 -201 4 0 0 -1 -60.583333 0.734375 1 0 1
props_tarpaperroof002a
0 67 -203 4 0 0 -1 -60.574653 0.743056 1 0 1
0 65 -201 4 0 0 -1 -60.583333 0.734375 1 0 1
0 67 -201 4 0 0 -1 -60.574653 0.734375 1 0 1
props_tarpaperroof002a
0 65 -203 74 0 0 1 -60.583333 0.743056 1 0 1
0 67 -203 74 0 0 1 -60.574653 0.743056 1 0 1
0 67 -201 74 0 0 1 -60.574653 0.734375 1 0 1
props_tarpaperroof002a
0 65 -203 74 0 0 1 -60.583333 0.743056 1 0 1
0 67 -201 74 0 0 1 -60.574653 0.734375 1 0 1
0 65 -201 74 0 0 1 -60.583333 0.734375 1 0 1
props_tarpaperroof002a
0 65 93 4 0 0 1 -181.955078 -3.873047 1 0 1
0 67 93 4 0 0 1 -181.929036 -3.873047 1 0 1
0 67 297 4 0 0 1 -181.929036 -6.529297 1 0 1
props_tarpaperroof002a
0 65 93 4 0 0 1 -181.955078 -3.873047 1 0 1
0 67 297 4 0 0 1 -181.929036 -6.529297 1 0 1
0 65 297 4 0 0 1 -181.955078 -6.529297 1 0 1
props_tarpaperroof002a
0 65 297 0 0 1 0 -181.919922 -1.428385 1 0 1
0 65 297 4 0 1 0 -181.919922 -1.376302 1 0 1
0 67 297 4 0 1 0 -181.89388 -1.376302 1 0 1
props_tarpaperroof002a
0 65 297 0 0 1 0 -181.919922 -1.428385 1 0 1
0 67 297 4 0 1 0 -181.89388 -1.376302 1 0 1
0 67 297 0 0 1 0 -181.89388 -1.428385 1 0 1
props_tarpaperroof002a
0 67 93 0 0 -1 0 -181.89388 -1.428385 1 0 1
0 67 93 4 0 -1 0 -181.89388 -1.376302 1 0 1
0 65 93 4 0 -1 0 -181.919922 -1.376302 1 0 1
props_tarpaperroof002a
0 67 93 0 0 -1 0 -181.89388 -1.428385 1 0 1
0 65 93 4 0 -1 0 -181.919922 -1.376302 1 0 1
0 65 93 0 0 -1 0 -181.919922 -1.428385 1 0 1
props_tarpaperroof002a
0 65 93 0 -1 0 0 -2.602214 -3.873047 1 0 1
0 65 93 4 -1 0 0 -2.55013 -3.873047 1 0 1
0 65 297 4 -1 0 0 -2.55013 -6.529297 1 0 1
props_tarpaperroof002a
0 65 93 0 -1 0 0 -2.602214 -3.873047 1 0 1
0 65 297 4 -1 0 0 -2.55013 -6.529297 1 0 1
0 65 297 0 -1 0 0 -2.602214 -6.529297 1 0 1
props_tarpaperroof002a
0 67 297 0 1 0 0 -2.602214 -6.529297 1 0 1
0 67 297 4 1 0 0 -2.55013 -6.529297 1 0 1
0 67 93 4 1 0 0 -2.55013 -3.873047 1 0 1
props_tarpaperroof002a
0 67 297 0 1 0 0 -2.602214 -6.529297 1 0 1
0 67 93 4 1 0 0 -2.55013 -3.873047 1 0 1
0 67 93 0 1 0 0 -2.602214 -3.873047 1 0 1
props_tarpaperroof002a
0 67 93 0 0 0 -1 -181.89388 -3.607422 1 0 1
0 65 93 0 0 0 -1 -181.919922 -3.607422 1 0 1
0 65 297 0 0 0 -1 -181.919922 -6.263672 1 0 1
props_tarpaperroof002a
0 67 93 0 0 0 -1 -181.89388 -3.607422 1 0 1
0 65 297 0 0 0 -1 -181.919922 -6.263672 1 0 1
0 67 297 0 0 0 -1 -181.89388 -6.263672 1 0 1
props_tarpaperroof002a
0 65 95 4 0 1 0 -2.55013 183.167969 1 0 1
0 65 95 0 0 1 0 -2.602214 183.167969 1 0 1
0 -67 95 0 0 1 0 -2.602214 184.886719 1 0 1
props_tarpaperroof002a
0 65 95 4 0 1 0 -2.55013 183.167969 1 0 1
0 -67 95 0 0 1 0 -2.602214 184.886719 1 0 1
0 -67 95 4 0 1 0 -2.55013 184.886719 1 0 1
props_tarpaperroof002a
0 65 93 0 0 -1 0 -2.602214 183.167969 1 0 1
0 65 93 4 0 -1 0 -2.55013 183.167969 1 0 1
0 -67 93 4 0 -1 0 -2.55013 184.886719 1 0 1
props_tarpaperroof002a
0 65 93 0 0 -1 0 -2.602214 183.167969 1 0 1
0 -67 93 4 0 -1 0 -2.55013 184.886719 1 0 1
0 -67 93 0 0 -1 0 -2.602214 184.886719 1 0 1
props_tarpaperroof002a
0 -67 93 0 -1 0 0 -3.070312 -0.890625 1 0 1
0 -67 93 4 -1 0 0 -3.070312 -0.859375 1 0 1
0 -67 95 4 -1 0 0 -3.085938 -0.859375 1 0 1
props_tarpaperroof002a
0 -67 93 0 -1 0 0 -3.070312 -0.890625 1 0 1
0 -67 95 4 -1 0 0 -3.085938 -0.859375 1 0 1
0 -67 95 0 -1 0 0 -3.085938 -0.890625 1 0 1
props_tarpaperroof002a
0 65 93 4 1 0 0 3.070312 -0.859375 1 0 1
0 65 93 0 1 0 0 3.070312 -0.890625 1 0 1
0 65 95 0 1 0 0 3.085938 -0.890625 1 0 1
props_tarpaperroof002a
0 65 93 4 1 0 0 3.070312 -0.859375 1 0 1
0 65 95 0 1 0 0 3.085938 -0.890625 1 0 1
0 65 95 4 1 0 0 3.085938 -0.859375 1 0 1
props_tarpaperroof002a
0 65 93 0 0 0 -1 -4.78125 183.167969 1 0 1
0 -67 93 0 0 0 -1 -4.78125 184.886719 1 0 1
0 -67 95 0 0 0 -1 -4.807292 184.886719 1 0 1
props_tarpaperroof002a
0 65 93 0 0 0 -1 -4.78125 183.167969 1 0 1
0 -67 95 0 0 0 -1 -4.807292 184.886719 1 0 1
0 65 95 0 0 0 -1 -4.807292 183.167969 1 0 1
props_tarpaperroof002a
0 -67 93 4 0 0 1 -4.958984 184.886719 1 0 1
0 65 93 4 0 0 1 -4.958984 183.167969 1 0 1
0 65 95 4 0 0 1 -4.985026 183.167969 1 0 1
props_tarpaperroof002a
0 -67 93 4 0 0 1 -4.958984 184.886719 1 0 1
0 65 95 4 0 0 1 -4.985026 183.167969 1 0 1
0 -67 95 4 0 0 1 -4.985026 184.886719 1 0 1
props_tarpaperroof002a
0 65 1 4 0 1 0 -2.55013 183.167969 1 0 1
0 65 1 0 0 1 0 -2.602214 183.167969 1 0 1
0 -67 1 0 0 1 0 -2.602214 184.886719 1 0 1
props_tarpaperroof002a
0 65 1 4 0 1 0 -2.55013 183.167969 1 0 1
0 -67 1 0 0 1 0 -2.602214 184.886719 1 0 1
0 -67 1 4 0 1 0 -2.55013 184.886719 1 0 1
props_tarpaperroof002a
0 65 -1 0 0 -1 0 -2.602214 183.167969 1 0 1
0 65 -1 4 0 -1 0 -2.55013 183.167969 1 0 1
0 -67 -1 4 0 -1 0 -2.55013 184.886719 1 0 1
props_tarpaperroof002a
0 65 -1 0 0 -1 0 -2.602214 183.167969 1 0 1
0 -67 -1 4 0 -1 0 -2.55013 184.886719 1 0 1
0 -67 -1 0 0 -1 0 -2.602214 184.886719 1 0 1
props_tarpaperroof002a
0 -67 -1 0 -1 0 0 -2.335938 -0.890625 1 0 1
0 -67 -1 4 -1 0 0 -2.335938 -0.859375 1 0 1
0 -67 1 4 -1 0 0 -2.351562 -0.859375 1 0 1
props_tarpaperroof002a
0 -67 -1 0 -1 0 0 -2.335938 -0.890625 1 0 1
0 -67 1 4 -1 0 0 -2.351562 -0.859375 1 0 1
0 -67 1 0 -1 0 0 -2.351562 -0.890625 1 0 1
props_tarpaperroof002a
0 65 -1 4 1 0 0 2.335938 -0.859375 1 0 1
0 65 -1 0 1 0 0 2.335938 -0.890625 1 0 1
0 65 1 0 1 0 0 2.351562 -0.890625 1 0 1
props_tarpaperroof002a
0 65 -1 4 1 0 0 2.335938 -0.859375 1 0 1
0 65 1 0 1 0 0 2.351562 -0.890625 1 0 1
0 65 1 4 1 0 0 2.351562 -0.859375 1 0 1
props_tarpaperroof002a
0 65 -1 0 0 0 -1 -3.713542 183.167969 1 0 1
0 -67 -1 0 0 0 -1 -3.713542 184.886719 1 0 1
0 -67 1 0 0 0 -1 -3.739583 184.886719 1 0 1
props_tarpaperroof002a
0 65 -1 0 0 0 -1 -3.713542 183.167969 1 0 1
0 -67 1 0 0 0 -1 -3.739583 184.886719 1 0 1
0 65 1 0 0 0 -1 -3.739583 183.167969 1 0 1
props_tarpaperroof002a
0 -67 -1 4 0 0 1 -2.932292 184.886719 1 0 1
0 65 -1 4 0 0 1 -2.932292 183.167969 1 0 1
0 65 1 4 0 0 1 -2.958333 183.167969 1 0 1
props_tarpaperroof002a
0 -67 -1 4 0 0 1 -2.932292 184.886719 1 0 1
0 65 1 4 0 0 1 -2.958333 183.167969 1 0 1
0 -67 1 4 0 0 1 -2.958333 184.886719 1 0 1
end
