version 1
nodes
0 "root" -1
end
skeleton
time 0
0 0 0 0 0 0 0
end
triangles
phys
0 -8 -39 -1 0 0 1 1 0 1 0 1
0 -8 -39 1 0 0 1 1 0 1 0 1
0 -8 39 1 0 0 1 1 0 1 0 1
phys
0 -8 -39 -1 0 0 1 1 0 1 0 1
0 -8 39 1 0 0 1 1 0 1 0 1
0 -8 39 -1 0 0 1 1 0 1 0 1
phys
0 8 -39 1 0 0 1 1 0 1 0 1
0 8 -39 -1 0 0 1 1 0 1 0 1
0 8 39 -1 0 0 1 1 0 1 0 1
phys
0 8 -39 1 0 0 1 1 0 1 0 1
0 8 39 -1 0 0 1 1 0 1 0 1
0 8 39 1 0 0 1 1 0 1 0 1
phys
0 8 -39 -1 0 0 1 1 0 1 0 1
0 8 -39 1 0 0 1 1 0 1 0 1
0 -8 -39 1 0 0 1 1 0 1 0 1
phys
0 8 -39 -1 0 0 1 1 0 1 0 1
0 -8 -39 1 0 0 1 1 0 1 0 1
0 -8 -39 -1 0 0 1 1 0 1 0 1
phys
0 8 39 1 0 0 1 1 0 1 0 1
0 8 39 -1 0 0 1 1 0 1 0 1
0 -8 39 -1 0 0 1 1 0 1 0 1
phys
0 8 39 1 0 0 1 1 0 1 0 1
0 -8 39 -1 0 0 1 1 0 1 0 1
0 -8 39 1 0 0 1 1 0 1 0 1
phys
0 -8 -39 -1 0 0 1 1 0 1 0 1
0 -8 39 -1 0 0 1 1 0 1 0 1
0 8 39 -1 0 0 1 1 0 1 0 1
phys
0 -8 -39 -1 0 0 1 1 0 1 0 1
0 8 39 -1 0 0 1 1 0 1 0 1
0 8 -39 -1 0 0 1 1 0 1 0 1
phys
0 8 -39 1 0 0 1 1 0 1 0 1
0 8 39 1 0 0 1 1 0 1 0 1
0 -8 39 1 0 0 1 1 0 1 0 1
phys
0 8 -39 1 0 0 1 1 0 1 0 1
0 -8 39 1 0 0 1 1 0 1 0 1
0 -8 -39 1 0 0 1 1 0 1 0 1
phys
0 -72 -11 1 0 0 1 2 0 1 0 1
0 -72 -9 1 0 0 1 2 0 1 0 1
0 -70 -9 1 0 0 1 2 0 1 0 1
phys
0 -72 -11 1 0 0 1 2 0 1 0 1
0 -70 -9 1 0 0 1 2 0 1 0 1
0 -70 -11 1 0 0 1 2 0 1 0 1
phys
0 -70 -11 41 0 0 1 2 0 1 0 1
0 -70 -9 41 0 0 1 2 0 1 0 1
0 -72 -9 41 0 0 1 2 0 1 0 1
phys
0 -70 -11 41 0 0 1 2 0 1 0 1
0 -72 -9 41 0 0 1 2 0 1 0 1
0 -72 -11 41 0 0 1 2 0 1 0 1
phys
0 -72 -11 41 0 0 1 2 0 1 0 1
0 -72 -9 41 0 0 1 2 0 1 0 1
0 -72 -9 1 0 0 1 2 0 1 0 1
phys
0 -72 -11 41 0 0 1 2 0 1 0 1
0 -72 -9 1 0 0 1 2 0 1 0 1
0 -72 -11 1 0 0 1 2 0 1 0 1
phys
0 -70 -11 1 0 0 1 2 0 1 0 1
0 -70 -9 1 0 0 1 2 0 1 0 1
0 -70 -9 41 0 0 1 2 0 1 0 1
phys
0 -70 -11 1 0 0 1 2 0 1 0 1
0 -70 -9 41 0 0 1 2 0 1 0 1
0 -70 -11 41 0 0 1 2 0 1 0 1
phys
0 -70 -11 41 0 0 1 2 0 1 0 1
0 -72 -11 41 0 0 1 2 0 1 0 1
0 -72 -11 1 0 0 1 2 0 1 0 1
phys
0 -70 -11 41 0 0 1 2 0 1 0 1
0 -72 -11 1 0 0 1 2 0 1 0 1
0 -70 -11 1 0 0 1 2 0 1 0 1
phys
0 -70 -9 1 0 0 1 2 0 1 0 1
0 -72 -9 1 0 0 1 2 0 1 0 1
0 -72 -9 41 0 0 1 2 0 1 0 1
phys
0 -70 -9 1 0 0 1 2 0 1 0 1
0 -72 -9 41 0 0 1 2 0 1 0 1
0 -70 -9 41 0 0 1 2 0 1 0 1
phys
0 -83 -218 5.233 0 0 1 3 0 1 0 1
0 -83 -218 9.233 0 0 1 3 0 1 0 1
0 -83 -210 9.233 0 0 1 3 0 1 0 1
phys
0 -83 -218 5.233 0 0 1 3 0 1 0 1
0 -83 -210 9.233 0 0 1 3 0 1 0 1
0 -83 -210 5.233 0 0 1 3 0 1 0 1
phys
0 -27 -218 9.233 0 0 1 3 0 1 0 1
0 -27 -218 5.233 0 0 1 3 0 1 0 1
0 -27 -210 5.233 0 0 1 3 0 1 0 1
phys
0 -27 -218 9.233 0 0 1 3 0 1 0 1
0 -27 -210 5.233 0 0 1 3 0 1 0 1
0 -27 -210 9.233 0 0 1 3 0 1 0 1
phys
0 -27 -218 5.233 0 0 1 3 0 1 0 1
0 -27 -218 9.233 0 0 1 3 0 1 0 1
0 -83 -218 9.233 0 0 1 3 0 1 0 1
phys
0 -27 -218 5.233 0 0 1 3 0 1 0 1
0 -83 -218 9.233 0 0 1 3 0 1 0 1
0 -83 -218 5.233 0 0 1 3 0 1 0 1
phys
0 -27 -210 9.233 0 0 1 3 0 1 0 1
0 -27 -210 5.233 0 0 1 3 0 1 0 1
0 -83 -210 5.233 0 0 1 3 0 1 0 1
phys
0 -27 -210 9.233 0 0 1 3 0 1 0 1
0 -83 -210 5.233 0 0 1 3 0 1 0 1
0 -83 -210 9.233 0 0 1 3 0 1 0 1
phys
0 -83 -218 5.233 0 0 1 3 0 1 0 1
0 -83 -210 5.233 0 0 1 3 0 1 0 1
0 -27 -210 5.233 0 0 1 3 0 1 0 1
phys
0 -83 -218 5.233 0 0 1 3 0 1 0 1
0 -27 -210 5.233 0 0 1 3 0 1 0 1
0 -27 -218 5.233 0 0 1 3 0 1 0 1
phys
0 -27 -218 9.233 0 0 1 3 0 1 0 1
0 -27 -210 9.233 0 0 1 3 0 1 0 1
0 -83 -210 9.233 0 0 1 3 0 1 0 1
phys
0 -27 -218 9.233 0 0 1 3 0 1 0 1
0 -83 -210 9.233 0 0 1 3 0 1 0 1
0 -83 -218 9.233 0 0 1 3 0 1 0 1
phys
0 122 -39 65 0 0 1 4 0 1 0 1
0 120 -39 65 0 0 1 4 0 1 0 1
0 120 -39 105 0 0 1 4 0 1 0 1
phys
0 122 -39 65 0 0 1 4 0 1 0 1
0 120 -39 105 0 0 1 4 0 1 0 1
0 122 -39 105 0 0 1 4 0 1 0 1
phys
0 120 -41 65 0 0 1 4 0 1 0 1
0 120 -39 65 0 0 1 4 0 1 0 1
0 122 -39 65 0 0 1 4 0 1 0 1
phys
0 120 -41 65 0 0 1 4 0 1 0 1
0 122 -39 65 0 0 1 4 0 1 0 1
0 122 -41 65 0 0 1 4 0 1 0 1
phys
0 122 -41 105 0 0 1 4 0 1 0 1
0 122 -39 105 0 0 1 4 0 1 0 1
0 120 -39 105 0 0 1 4 0 1 0 1
phys
0 122 -41 105 0 0 1 4 0 1 0 1
0 120 -39 105 0 0 1 4 0 1 0 1
0 120 -41 105 0 0 1 4 0 1 0 1
phys
0 120 -41 105 0 0 1 4 0 1 0 1
0 120 -39 105 0 0 1 4 0 1 0 1
0 120 -39 65 0 0 1 4 0 1 0 1
phys
0 120 -41 105 0 0 1 4 0 1 0 1
0 120 -39 65 0 0 1 4 0 1 0 1
0 120 -41 65 0 0 1 4 0 1 0 1
phys
0 122 -41 65 0 0 1 4 0 1 0 1
0 122 -39 65 0 0 1 4 0 1 0 1
0 122 -39 105 0 0 1 4 0 1 0 1
phys
0 122 -41 65 0 0 1 4 0 1 0 1
0 122 -39 105 0 0 1 4 0 1 0 1
0 122 -41 105 0 0 1 4 0 1 0 1
phys
0 122 -41 105 0 0 1 4 0 1 0 1
0 120 -41 105 0 0 1 4 0 1 0 1
0 120 -41 65 0 0 1 4 0 1 0 1
phys
0 122 -41 105 0 0 1 4 0 1 0 1
0 120 -41 65 0 0 1 4 0 1 0 1
0 122 -41 65 0 0 1 4 0 1 0 1
phys
0 24 -39 -17 0 0 1 5 0 1 0 1
0 24 -39 -15 0 0 1 5 0 1 0 1
0 24 39 -15 0 0 1 5 0 1 0 1
phys
0 24 -39 -17 0 0 1 5 0 1 0 1
0 24 39 -15 0 0 1 5 0 1 0 1
0 24 39 -17 0 0 1 5 0 1 0 1
phys
0 40 -39 -15 0 0 1 5 0 1 0 1
0 40 -39 -17 0 0 1 5 0 1 0 1
0 40 39 -17 0 0 1 5 0 1 0 1
phys
0 40 -39 -15 0 0 1 5 0 1 0 1
0 40 39 -17 0 0 1 5 0 1 0 1
0 40 39 -15 0 0 1 5 0 1 0 1
phys
0 40 -39 -17 0 0 1 5 0 1 0 1
0 40 -39 -15 0 0 1 5 0 1 0 1
0 24 -39 -15 0 0 1 5 0 1 0 1
phys
0 40 -39 -17 0 0 1 5 0 1 0 1
0 24 -39 -15 0 0 1 5 0 1 0 1
0 24 -39 -17 0 0 1 5 0 1 0 1
phys
0 40 39 -15 0 0 1 5 0 1 0 1
0 40 39 -17 0 0 1 5 0 1 0 1
0 24 39 -17 0 0 1 5 0 1 0 1
phys
0 40 39 -15 0 0 1 5 0 1 0 1
0 24 39 -17 0 0 1 5 0 1 0 1
0 24 39 -15 0 0 1 5 0 1 0 1
phys
0 24 -39 -17 0 0 1 5 0 1 0 1
0 24 39 -17 0 0 1 5 0 1 0 1
0 40 39 -17 0 0 1 5 0 1 0 1
phys
0 24 -39 -17 0 0 1 5 0 1 0 1
0 40 39 -17 0 0 1 5 0 1 0 1
0 40 -39 -17 0 0 1 5 0 1 0 1
phys
0 40 -39 -15 0 0 1 5 0 1 0 1
0 40 39 -15 0 0 1 5 0 1 0 1
0 24 39 -15 0 0 1 5 0 1 0 1
phys
0 40 -39 -15 0 0 1 5 0 1 0 1
0 24 39 -15 0 0 1 5 0 1 0 1
0 24 -39 -15 0 0 1 5 0 1 0 1
phys
0 188 -218 5.514 0 0 1 6 0 1 0 1
0 188 -218 9.505 0 0 1 6 0 1 0 1
0 188 -210 9.505 0 0 1 6 0 1 0 1
phys
0 188 -218 5.514 0 0 1 6 0 1 0 1
0 188 -210 9.505 0 0 1 6 0 1 0 1
0 188 -210 5.514 0 0 1 6 0 1 0 1
phys
0 244 -218 9.505 0 0 1 6 0 1 0 1
0 244 -218 5.514 0 0 1 6 0 1 0 1
0 244 -210 5.514 0 0 1 6 0 1 0 1
phys
0 244 -218 9.505 0 0 1 6 0 1 0 1
0 244 -210 5.514 0 0 1 6 0 1 0 1
0 244 -210 9.505 0 0 1 6 0 1 0 1
phys
0 244 -218 5.514 0 0 1 6 0 1 0 1
0 244 -218 9.505 0 0 1 6 0 1 0 1
0 188 -218 9.505 0 0 1 6 0 1 0 1
phys
0 244 -218 5.514 0 0 1 6 0 1 0 1
0 188 -218 9.505 0 0 1 6 0 1 0 1
0 188 -218 5.514 0 0 1 6 0 1 0 1
phys
0 244 -210 9.505 0 0 1 6 0 1 0 1
0 244 -210 5.514 0 0 1 6 0 1 0 1
0 188 -210 5.514 0 0 1 6 0 1 0 1
phys
0 244 -210 9.505 0 0 1 6 0 1 0 1
0 188 -210 5.514 0 0 1 6 0 1 0 1
0 188 -210 9.505 0 0 1 6 0 1 0 1
phys
0 188 -218 5.514 0 0 1 6 0 1 0 1
0 188 -210 5.514 0 0 1 6 0 1 0 1
0 244 -210 5.514 0 0 1 6 0 1 0 1
phys
0 188 -218 5.514 0 0 1 6 0 1 0 1
0 244 -210 5.514 0 0 1 6 0 1 0 1
0 244 -218 5.514 0 0 1 6 0 1 0 1
phys
0 244 -218 9.505 0 0 1 6 0 1 0 1
0 244 -210 9.505 0 0 1 6 0 1 0 1
0 188 -210 9.505 0 0 1 6 0 1 0 1
phys
0 244 -218 9.505 0 0 1 6 0 1 0 1
0 188 -210 9.505 0 0 1 6 0 1 0 1
0 188 -218 9.505 0 0 1 6 0 1 0 1
phys
0 184 -107 65 0 0 1 7 0 1 0 1
0 184 -107 105 0 0 1 7 0 1 0 1
0 184 -105 105 0 0 1 7 0 1 0 1
phys
0 184 -107 65 0 0 1 7 0 1 0 1
0 184 -105 105 0 0 1 7 0 1 0 1
0 184 -105 65 0 0 1 7 0 1 0 1
phys
0 186 -107 105 0 0 1 7 0 1 0 1
0 186 -107 65 0 0 1 7 0 1 0 1
0 186 -105 65 0 0 1 7 0 1 0 1
phys
0 186 -107 105 0 0 1 7 0 1 0 1
0 186 -105 65 0 0 1 7 0 1 0 1
0 186 -105 105 0 0 1 7 0 1 0 1
phys
0 186 -107 65 0 0 1 7 0 1 0 1
0 186 -107 105 0 0 1 7 0 1 0 1
0 184 -107 105 0 0 1 7 0 1 0 1
phys
0 186 -107 65 0 0 1 7 0 1 0 1
0 184 -107 105 0 0 1 7 0 1 0 1
0 184 -107 65 0 0 1 7 0 1 0 1
phys
0 186 -105 105 0 0 1 7 0 1 0 1
0 186 -105 65 0 0 1 7 0 1 0 1
0 184 -105 65 0 0 1 7 0 1 0 1
phys
0 186 -105 105 0 0 1 7 0 1 0 1
0 184 -105 65 0 0 1 7 0 1 0 1
0 184 -105 105 0 0 1 7 0 1 0 1
phys
0 184 -107 65 0 0 1 7 0 1 0 1
0 184 -105 65 0 0 1 7 0 1 0 1
0 186 -105 65 0 0 1 7 0 1 0 1
phys
0 184 -107 65 0 0 1 7 0 1 0 1
0 186 -105 65 0 0 1 7 0 1 0 1
0 186 -107 65 0 0 1 7 0 1 0 1
phys
0 186 -107 105 0 0 1 7 0 1 0 1
0 186 -105 105 0 0 1 7 0 1 0 1
0 184 -105 105 0 0 1 7 0 1 0 1
phys
0 186 -107 105 0 0 1 7 0 1 0 1
0 184 -105 105 0 0 1 7 0 1 0 1
0 184 -107 105 0 0 1 7 0 1 0 1
phys
0 184 -43 65 0 0 1 8 0 1 0 1
0 184 -43 105 0 0 1 8 0 1 0 1
0 184 -41 105 0 0 1 8 0 1 0 1
phys
0 184 -43 65 0 0 1 8 0 1 0 1
0 184 -41 105 0 0 1 8 0 1 0 1
0 184 -41 65 0 0 1 8 0 1 0 1
phys
0 186 -43 105 0 0 1 8 0 1 0 1
0 186 -43 65 0 0 1 8 0 1 0 1
0 186 -41 65 0 0 1 8 0 1 0 1
phys
0 186 -43 105 0 0 1 8 0 1 0 1
0 186 -41 65 0 0 1 8 0 1 0 1
0 186 -41 105 0 0 1 8 0 1 0 1
phys
0 186 -43 65 0 0 1 8 0 1 0 1
0 186 -43 105 0 0 1 8 0 1 0 1
0 184 -43 105 0 0 1 8 0 1 0 1
phys
0 186 -43 65 0 0 1 8 0 1 0 1
0 184 -43 105 0 0 1 8 0 1 0 1
0 184 -43 65 0 0 1 8 0 1 0 1
phys
0 186 -41 105 0 0 1 8 0 1 0 1
0 186 -41 65 0 0 1 8 0 1 0 1
0 184 -41 65 0 0 1 8 0 1 0 1
phys
0 186 -41 105 0 0 1 8 0 1 0 1
0 184 -41 65 0 0 1 8 0 1 0 1
0 184 -41 105 0 0 1 8 0 1 0 1
phys
0 184 -43 65 0 0 1 8 0 1 0 1
0 184 -41 65 0 0 1 8 0 1 0 1
0 186 -41 65 0 0 1 8 0 1 0 1
phys
0 184 -43 65 0 0 1 8 0 1 0 1
0 186 -41 65 0 0 1 8 0 1 0 1
0 186 -43 65 0 0 1 8 0 1 0 1
phys
0 186 -43 105 0 0 1 8 0 1 0 1
0 186 -41 105 0 0 1 8 0 1 0 1
0 184 -41 105 0 0 1 8 0 1 0 1
phys
0 186 -43 105 0 0 1 8 0 1 0 1
0 184 -41 105 0 0 1 8 0 1 0 1
0 184 -43 105 0 0 1 8 0 1 0 1
phys
0 24 -39 -7 0 0 1 9 0 1 0 1
0 8 -39 -7 0 0 1 9 0 1 0 1
0 8 -39 -9 0 0 1 9 0 1 0 1
phys
0 24 -39 -7 0 0 1 9 0 1 0 1
0 8 -39 -9 0 0 1 9 0 1 0 1
0 24 -39 -9 0 0 1 9 0 1 0 1
phys
0 24 39 -9 0 0 1 9 0 1 0 1
0 8 39 -9 0 0 1 9 0 1 0 1
0 8 39 -7 0 0 1 9 0 1 0 1
phys
0 24 39 -9 0 0 1 9 0 1 0 1
0 8 39 -7 0 0 1 9 0 1 0 1
0 24 39 -7 0 0 1 9 0 1 0 1
phys
0 24 -39 -9 0 0 1 9 0 1 0 1
0 8 -39 -9 0 0 1 9 0 1 0 1
0 8 39 -9 0 0 1 9 0 1 0 1
phys
0 24 -39 -9 0 0 1 9 0 1 0 1
0 8 39 -9 0 0 1 9 0 1 0 1
0 24 39 -9 0 0 1 9 0 1 0 1
phys
0 8 -39 -7 0 0 1 9 0 1 0 1
0 24 -39 -7 0 0 1 9 0 1 0 1
0 24 39 -7 0 0 1 9 0 1 0 1
phys
0 8 -39 -7 0 0 1 9 0 1 0 1
0 24 39 -7 0 0 1 9 0 1 0 1
0 8 39 -7 0 0 1 9 0 1 0 1
phys
0 8 -39 -9 0 0 1 9 0 1 0 1
0 8 -39 -7 0 0 1 9 0 1 0 1
0 8 39 -7 0 0 1 9 0 1 0 1
phys
0 8 -39 -9 0 0 1 9 0 1 0 1
0 8 39 -7 0 0 1 9 0 1 0 1
0 8 39 -9 0 0 1 9 0 1 0 1
phys
0 24 -39 -7 0 0 1 9 0 1 0 1
0 24 -39 -9 0 0 1 9 0 1 0 1
0 24 39 -9 0 0 1 9 0 1 0 1
phys
0 24 -39 -7 0 0 1 9 0 1 0 1
0 24 39 -9 0 0 1 9 0 1 0 1
0 24 39 -7 0 0 1 9 0 1 0 1
phys
0 40 -39 -25 0 0 1 10 0 1 0 1
0 40 -39 -23 0 0 1 10 0 1 0 1
0 40 39 -23 0 0 1 10 0 1 0 1
phys
0 40 -39 -25 0 0 1 10 0 1 0 1
0 40 39 -23 0 0 1 10 0 1 0 1
0 40 39 -25 0 0 1 10 0 1 0 1
phys
0 56 -39 -23 0 0 1 10 0 1 0 1
0 56 -39 -25 0 0 1 10 0 1 0 1
0 56 39 -25 0 0 1 10 0 1 0 1
phys
0 56 -39 -23 0 0 1 10 0 1 0 1
0 56 39 -25 0 0 1 10 0 1 0 1
0 56 39 -23 0 0 1 10 0 1 0 1
phys
0 56 -39 -25 0 0 1 10 0 1 0 1
0 56 -39 -23 0 0 1 10 0 1 0 1
0 40 -39 -23 0 0 1 10 0 1 0 1
phys
0 56 -39 -25 0 0 1 10 0 1 0 1
0 40 -39 -23 0 0 1 10 0 1 0 1
0 40 -39 -25 0 0 1 10 0 1 0 1
phys
0 56 39 -23 0 0 1 10 0 1 0 1
0 56 39 -25 0 0 1 10 0 1 0 1
0 40 39 -25 0 0 1 10 0 1 0 1
phys
0 56 39 -23 0 0 1 10 0 1 0 1
0 40 39 -25 0 0 1 10 0 1 0 1
0 40 39 -23 0 0 1 10 0 1 0 1
phys
0 40 -39 -25 0 0 1 10 0 1 0 1
0 40 39 -25 0 0 1 10 0 1 0 1
0 56 39 -25 0 0 1 10 0 1 0 1
phys
0 40 -39 -25 0 0 1 10 0 1 0 1
0 56 39 -25 0 0 1 10 0 1 0 1
0 56 -39 -25 0 0 1 10 0 1 0 1
phys
0 56 -39 -23 0 0 1 10 0 1 0 1
0 56 39 -23 0 0 1 10 0 1 0 1
0 40 39 -23 0 0 1 10 0 1 0 1
phys
0 56 -39 -23 0 0 1 10 0 1 0 1
0 40 39 -23 0 0 1 10 0 1 0 1
0 40 -39 -23 0 0 1 10 0 1 0 1
end
