version 1
nodes
0 "root" -1
end
skeleton
time 0
0 0 0 0 0 0 0
end
triangles
phys
0 -36.27 342 244 0 0 1 1 0 1 0 1
0 -36.27 342 234 0 0 1 1 0 1 0 1
0 -38.19 342 234 0 0 1 1 0 1 0 1
phys
0 -36.27 342 244 0 0 1 1 0 1 0 1
0 -38.19 342 234 0 0 1 1 0 1 0 1
0 -38.19 342 244 0 0 1 1 0 1 0 1
phys
0 -36.27 -100 234 0 0 1 1 0 1 0 1
0 -36.27 -100 244 0 0 1 1 0 1 0 1
0 -38.19 -100 244 0 0 1 1 0 1 0 1
phys
0 -36.27 -100 234 0 0 1 1 0 1 0 1
0 -38.19 -100 244 0 0 1 1 0 1 0 1
0 -38.19 -100 234 0 0 1 1 0 1 0 1
phys
0 -38.19 -100 234 0 0 1 1 0 1 0 1
0 -38.19 -100 244 0 0 1 1 0 1 0 1
0 -38.19 342 244 0 0 1 1 0 1 0 1
phys
0 -38.19 -100 234 0 0 1 1 0 1 0 1
0 -38.19 342 244 0 0 1 1 0 1 0 1
0 -38.19 342 234 0 0 1 1 0 1 0 1
phys
0 -36.27 -100 244 0 0 1 1 0 1 0 1
0 -36.27 -100 234 0 0 1 1 0 1 0 1
0 -36.27 342 234 0 0 1 1 0 1 0 1
phys
0 -36.27 -100 244 0 0 1 1 0 1 0 1
0 -36.27 342 234 0 0 1 1 0 1 0 1
0 -36.27 342 244 0 0 1 1 0 1 0 1
phys
0 -36.27 -100 234 0 0 1 1 0 1 0 1
0 -38.19 -100 234 0 0 1 1 0 1 0 1
0 -38.19 342 234 0 0 1 1 0 1 0 1
phys
0 -36.27 -100 234 0 0 1 1 0 1 0 1
0 -38.19 342 234 0 0 1 1 0 1 0 1
0 -36.27 342 234 0 0 1 1 0 1 0 1
phys
0 -38.19 -100 244 0 0 1 1 0 1 0 1
0 -36.27 -100 244 0 0 1 1 0 1 0 1
0 -36.27 342 244 0 0 1 1 0 1 0 1
phys
0 -38.19 -100 244 0 0 1 1 0 1 0 1
0 -36.27 342 244 0 0 1 1 0 1 0 1
0 -38.19 342 244 0 0 1 1 0 1 0 1
phys
0 2 -100 234 0 0 1 2 0 1 0 1
0 2 -100 244 0 0 1 2 0 1 0 1
0 0.09 -100 244 0 0 1 2 0 1 0 1
phys
0 2 -100 234 0 0 1 2 0 1 0 1
0 0.09 -100 244 0 0 1 2 0 1 0 1
0 0.09 -100 234 0 0 1 2 0 1 0 1
phys
0 0.09 -100 234 0 0 1 2 0 1 0 1
0 0.09 -100 244 0 0 1 2 0 1 0 1
0 0.09 342 244 0 0 1 2 0 1 0 1
phys
0 0.09 -100 234 0 0 1 2 0 1 0 1
0 0.09 342 244 0 0 1 2 0 1 0 1
0 0.09 342 234 0 0 1 2 0 1 0 1
phys
0 2 -100 244 0 0 1 2 0 1 0 1
0 2 -100 234 0 0 1 2 0 1 0 1
0 2 342 234 0 0 1 2 0 1 0 1
phys
0 2 -100 244 0 0 1 2 0 1 0 1
0 2 342 234 0 0 1 2 0 1 0 1
0 2 342 244 0 0 1 2 0 1 0 1
phys
0 2 -100 234 0 0 1 2 0 1 0 1
0 0.09 -100 234 0 0 1 2 0 1 0 1
0 0.09 342 234 0 0 1 2 0 1 0 1
phys
0 2 -100 234 0 0 1 2 0 1 0 1
0 0.09 342 234 0 0 1 2 0 1 0 1
0 2 342 234 0 0 1 2 0 1 0 1
phys
0 0.09 -100 244 0 0 1 2 0 1 0 1
0 2 -100 244 0 0 1 2 0 1 0 1
0 2 342 244 0 0 1 2 0 1 0 1
phys
0 0.09 -100 244 0 0 1 2 0 1 0 1
0 2 342 244 0 0 1 2 0 1 0 1
0 0.09 342 244 0 0 1 2 0 1 0 1
phys
0 2 342 244 0 0 1 2 0 1 0 1
0 2 342 234 0 0 1 2 0 1 0 1
0 0.09 342 234 0 0 1 2 0 1 0 1
phys
0 2 342 244 0 0 1 2 0 1 0 1
0 0.09 342 234 0 0 1 2 0 1 0 1
0 0.09 342 244 0 0 1 2 0 1 0 1
phys
0 -149.18 342 244 0 0 1 3 0 1 0 1
0 -149.18 342 234 0 0 1 3 0 1 0 1
0 -151.09 342 234 0 0 1 3 0 1 0 1
phys
0 -149.18 342 244 0 0 1 3 0 1 0 1
0 -151.09 342 234 0 0 1 3 0 1 0 1
0 -151.09 342 244 0 0 1 3 0 1 0 1
phys
0 -149.18 -100 234 0 0 1 3 0 1 0 1
0 -149.18 -100 244 0 0 1 3 0 1 0 1
0 -151.09 -100 244 0 0 1 3 0 1 0 1
phys
0 -149.18 -100 234 0 0 1 3 0 1 0 1
0 -151.09 -100 244 0 0 1 3 0 1 0 1
0 -151.09 -100 234 0 0 1 3 0 1 0 1
phys
0 -151.09 -100 234 0 0 1 3 0 1 0 1
0 -151.09 -100 244 0 0 1 3 0 1 0 1
0 -151.09 342 244 0 0 1 3 0 1 0 1
phys
0 -151.09 -100 234 0 0 1 3 0 1 0 1
0 -151.09 342 244 0 0 1 3 0 1 0 1
0 -151.09 342 234 0 0 1 3 0 1 0 1
phys
0 -149.18 -100 244 0 0 1 3 0 1 0 1
0 -149.18 -100 234 0 0 1 3 0 1 0 1
0 -149.18 342 234 0 0 1 3 0 1 0 1
phys
0 -149.18 -100 244 0 0 1 3 0 1 0 1
0 -149.18 342 234 0 0 1 3 0 1 0 1
0 -149.18 342 244 0 0 1 3 0 1 0 1
phys
0 -149.18 -100 234 0 0 1 3 0 1 0 1
0 -151.09 -100 234 0 0 1 3 0 1 0 1
0 -151.09 342 234 0 0 1 3 0 1 0 1
phys
0 -149.18 -100 234 0 0 1 3 0 1 0 1
0 -151.09 342 234 0 0 1 3 0 1 0 1
0 -149.18 342 234 0 0 1 3 0 1 0 1
phys
0 -151.09 -100 244 0 0 1 3 0 1 0 1
0 -149.18 -100 244 0 0 1 3 0 1 0 1
0 -149.18 342 244 0 0 1 3 0 1 0 1
phys
0 -151.09 -100 244 0 0 1 3 0 1 0 1
0 -149.18 342 244 0 0 1 3 0 1 0 1
0 -151.09 342 244 0 0 1 3 0 1 0 1
phys
0 -71 -286 23 0 0 1 4 0 1 0 1
0 -71 -286 82 0 0 1 4 0 1 0 1
0 -93 -286 82 0 0 1 4 0 1 0 1
phys
0 -71 -286 23 0 0 1 4 0 1 0 1
0 -93 -286 82 0 0 1 4 0 1 0 1
0 -93 -286 23 0 0 1 4 0 1 0 1
phys
0 -71 -276 82 0 0 1 4 0 1 0 1
0 -71 -276 23 0 0 1 4 0 1 0 1
0 -93 -276 23 0 0 1 4 0 1 0 1
phys
0 -71 -276 82 0 0 1 4 0 1 0 1
0 -93 -276 23 0 0 1 4 0 1 0 1
0 -93 -276 82 0 0 1 4 0 1 0 1
phys
0 -71 -286 82 0 0 1 4 0 1 0 1
0 -71 -286 23 0 0 1 4 0 1 0 1
0 -71 -276 23 0 0 1 4 0 1 0 1
phys
0 -71 -286 82 0 0 1 4 0 1 0 1
0 -71 -276 23 0 0 1 4 0 1 0 1
0 -71 -276 82 0 0 1 4 0 1 0 1
phys
0 -93 -286 23 0 0 1 4 0 1 0 1
0 -93 -286 82 0 0 1 4 0 1 0 1
0 -93 -276 82 0 0 1 4 0 1 0 1
phys
0 -93 -286 23 0 0 1 4 0 1 0 1
0 -93 -276 82 0 0 1 4 0 1 0 1
0 -93 -276 23 0 0 1 4 0 1 0 1
phys
0 -71 -286 23 0 0 1 4 0 1 0 1
0 -93 -286 23 0 0 1 4 0 1 0 1
0 -93 -276 23 0 0 1 4 0 1 0 1
phys
0 -71 -286 23 0 0 1 4 0 1 0 1
0 -93 -276 23 0 0 1 4 0 1 0 1
0 -71 -276 23 0 0 1 4 0 1 0 1
phys
0 -93 -286 82 0 0 1 4 0 1 0 1
0 -71 -286 82 0 0 1 4 0 1 0 1
0 -71 -276 82 0 0 1 4 0 1 0 1
phys
0 -93 -286 82 0 0 1 4 0 1 0 1
0 -71 -276 82 0 0 1 4 0 1 0 1
0 -93 -276 82 0 0 1 4 0 1 0 1
phys
0 -71 -286 99 0 0 1 5 0 1 0 1
0 -71 -286 234 0 0 1 5 0 1 0 1
0 -199.64 -286 234 0 0 1 5 0 1 0 1
phys
0 -71 -286 99 0 0 1 5 0 1 0 1
0 -199.64 -286 234 0 0 1 5 0 1 0 1
0 -199.64 -286 99 0 0 1 5 0 1 0 1
phys
0 -71 -232 234 0 0 1 5 0 1 0 1
0 -71 -232 99 0 0 1 5 0 1 0 1
0 -199.64 -232 99 0 0 1 5 0 1 0 1
phys
0 -71 -232 234 0 0 1 5 0 1 0 1
0 -199.64 -232 99 0 0 1 5 0 1 0 1
0 -199.64 -232 234 0 0 1 5 0 1 0 1
phys
0 -71 -286 234 0 0 1 5 0 1 0 1
0 -71 -286 99 0 0 1 5 0 1 0 1
0 -71 -232 99 0 0 1 5 0 1 0 1
phys
0 -71 -286 234 0 0 1 5 0 1 0 1
0 -71 -232 99 0 0 1 5 0 1 0 1
0 -71 -232 234 0 0 1 5 0 1 0 1
phys
0 -199.64 -286 99 0 0 1 5 0 1 0 1
0 -199.64 -286 234 0 0 1 5 0 1 0 1
0 -199.64 -232 234 0 0 1 5 0 1 0 1
phys
0 -199.64 -286 99 0 0 1 5 0 1 0 1
0 -199.64 -232 234 0 0 1 5 0 1 0 1
0 -199.64 -232 99 0 0 1 5 0 1 0 1
phys
0 -71 -286 99 0 0 1 5 0 1 0 1
0 -199.64 -286 99 0 0 1 5 0 1 0 1
0 -199.64 -232 99 0 0 1 5 0 1 0 1
phys
0 -71 -286 99 0 0 1 5 0 1 0 1
0 -199.64 -232 99 0 0 1 5 0 1 0 1
0 -71 -232 99 0 0 1 5 0 1 0 1
phys
0 -199.64 -286 234 0 0 1 5 0 1 0 1
0 -71 -286 234 0 0 1 5 0 1 0 1
0 -71 -232 234 0 0 1 5 0 1 0 1
phys
0 -199.64 -286 234 0 0 1 5 0 1 0 1
0 -71 -232 234 0 0 1 5 0 1 0 1
0 -199.64 -232 234 0 0 1 5 0 1 0 1
phys
0 -71 -286 94 0 0 1 6 0 1 0 1
0 -71 -286 99 0 0 1 6 0 1 0 1
0 -199.64 -286 99 0 0 1 6 0 1 0 1
phys
0 -71 -286 94 0 0 1 6 0 1 0 1
0 -199.64 -286 99 0 0 1 6 0 1 0 1
0 -199.64 -286 94 0 0 1 6 0 1 0 1
phys
0 -71 -260 99 0 0 1 6 0 1 0 1
0 -71 -260 94 0 0 1 6 0 1 0 1
0 -199.64 -260 94 0 0 1 6 0 1 0 1
phys
0 -71 -260 99 0 0 1 6 0 1 0 1
0 -199.64 -260 94 0 0 1 6 0 1 0 1
0 -199.64 -260 99 0 0 1 6 0 1 0 1
phys
0 -71 -286 99 0 0 1 6 0 1 0 1
0 -71 -286 94 0 0 1 6 0 1 0 1
0 -71 -260 94 0 0 1 6 0 1 0 1
phys
0 -71 -286 99 0 0 1 6 0 1 0 1
0 -71 -260 94 0 0 1 6 0 1 0 1
0 -71 -260 99 0 0 1 6 0 1 0 1
phys
0 -199.64 -286 94 0 0 1 6 0 1 0 1
0 -199.64 -286 99 0 0 1 6 0 1 0 1
0 -199.64 -260 99 0 0 1 6 0 1 0 1
phys
0 -199.64 -286 94 0 0 1 6 0 1 0 1
0 -199.64 -260 99 0 0 1 6 0 1 0 1
0 -199.64 -260 94 0 0 1 6 0 1 0 1
phys
0 -71 -286 94 0 0 1 6 0 1 0 1
0 -199.64 -286 94 0 0 1 6 0 1 0 1
0 -199.64 -260 94 0 0 1 6 0 1 0 1
phys
0 -71 -286 94 0 0 1 6 0 1 0 1
0 -199.64 -260 94 0 0 1 6 0 1 0 1
0 -71 -260 94 0 0 1 6 0 1 0 1
phys
0 -199.64 -286 99 0 0 1 6 0 1 0 1
0 -71 -286 99 0 0 1 6 0 1 0 1
0 -71 -260 99 0 0 1 6 0 1 0 1
phys
0 -199.64 -286 99 0 0 1 6 0 1 0 1
0 -71 -260 99 0 0 1 6 0 1 0 1
0 -199.64 -260 99 0 0 1 6 0 1 0 1
phys
0 -95.56 -286 28 0 0 1 7 0 1 0 1
0 -95.56 -286 77 0 0 1 7 0 1 0 1
0 -170.44 -286 77 0 0 1 7 0 1 0 1
phys
0 -95.56 -286 28 0 0 1 7 0 1 0 1
0 -170.44 -286 77 0 0 1 7 0 1 0 1
0 -170.44 -286 28 0 0 1 7 0 1 0 1
phys
0 -95.56 -276 77 0 0 1 7 0 1 0 1
0 -95.56 -276 28 0 0 1 7 0 1 0 1
0 -170.44 -276 28 0 0 1 7 0 1 0 1
phys
0 -95.56 -276 77 0 0 1 7 0 1 0 1
0 -170.44 -276 28 0 0 1 7 0 1 0 1
0 -170.44 -276 77 0 0 1 7 0 1 0 1
phys
0 -95.56 -286 77 0 0 1 7 0 1 0 1
0 -95.56 -286 28 0 0 1 7 0 1 0 1
0 -95.56 -276 28 0 0 1 7 0 1 0 1
phys
0 -95.56 -286 77 0 0 1 7 0 1 0 1
0 -95.56 -276 28 0 0 1 7 0 1 0 1
0 -95.56 -276 77 0 0 1 7 0 1 0 1
phys
0 -170.44 -286 28 0 0 1 7 0 1 0 1
0 -170.44 -286 77 0 0 1 7 0 1 0 1
0 -170.44 -276 77 0 0 1 7 0 1 0 1
phys
0 -170.44 -286 28 0 0 1 7 0 1 0 1
0 -170.44 -276 77 0 0 1 7 0 1 0 1
0 -170.44 -276 28 0 0 1 7 0 1 0 1
phys
0 -95.56 -286 28 0 0 1 7 0 1 0 1
0 -170.44 -286 28 0 0 1 7 0 1 0 1
0 -170.44 -276 28 0 0 1 7 0 1 0 1
phys
0 -95.56 -286 28 0 0 1 7 0 1 0 1
0 -170.44 -276 28 0 0 1 7 0 1 0 1
0 -95.56 -276 28 0 0 1 7 0 1 0 1
phys
0 -170.44 -286 77 0 0 1 7 0 1 0 1
0 -95.56 -286 77 0 0 1 7 0 1 0 1
0 -95.56 -276 77 0 0 1 7 0 1 0 1
phys
0 -170.44 -286 77 0 0 1 7 0 1 0 1
0 -95.56 -276 77 0 0 1 7 0 1 0 1
0 -170.44 -276 77 0 0 1 7 0 1 0 1
phys
0 -71 -286 3 0 0 1 8 0 1 0 1
0 -71 -286 23 0 0 1 8 0 1 0 1
0 -199.64 -286 23 0 0 1 8 0 1 0 1
phys
0 -71 -286 3 0 0 1 8 0 1 0 1
0 -199.64 -286 23 0 0 1 8 0 1 0 1
0 -199.64 -286 3 0 0 1 8 0 1 0 1
phys
0 -71 -232 23 0 0 1 8 0 1 0 1
0 -71 -232 3 0 0 1 8 0 1 0 1
0 -199.64 -232 3 0 0 1 8 0 1 0 1
phys
0 -71 -232 23 0 0 1 8 0 1 0 1
0 -199.64 -232 3 0 0 1 8 0 1 0 1
0 -199.64 -232 23 0 0 1 8 0 1 0 1
phys
0 -71 -286 23 0 0 1 8 0 1 0 1
0 -71 -286 3 0 0 1 8 0 1 0 1
0 -71 -232 3 0 0 1 8 0 1 0 1
phys
0 -71 -286 23 0 0 1 8 0 1 0 1
0 -71 -232 3 0 0 1 8 0 1 0 1
0 -71 -232 23 0 0 1 8 0 1 0 1
phys
0 -199.64 -286 3 0 0 1 8 0 1 0 1
0 -199.64 -286 23 0 0 1 8 0 1 0 1
0 -199.64 -232 23 0 0 1 8 0 1 0 1
phys
0 -199.64 -286 3 0 0 1 8 0 1 0 1
0 -199.64 -232 23 0 0 1 8 0 1 0 1
0 -199.64 -232 3 0 0 1 8 0 1 0 1
phys
0 -71 -286 3 0 0 1 8 0 1 0 1
0 -199.64 -286 3 0 0 1 8 0 1 0 1
0 -199.64 -232 3 0 0 1 8 0 1 0 1
phys
0 -71 -286 3 0 0 1 8 0 1 0 1
0 -199.64 -232 3 0 0 1 8 0 1 0 1
0 -71 -232 3 0 0 1 8 0 1 0 1
phys
0 -199.64 -286 23 0 0 1 8 0 1 0 1
0 -71 -286 23 0 0 1 8 0 1 0 1
0 -71 -232 23 0 0 1 8 0 1 0 1
phys
0 -199.64 -286 23 0 0 1 8 0 1 0 1
0 -71 -232 23 0 0 1 8 0 1 0 1
0 -199.64 -232 23 0 0 1 8 0 1 0 1
phys
0 -95.56 -286 28 0 0 1 9 0 1 0 1
0 -170.44 -286 28 0 0 1 9 0 1 0 1
0 -173 -286 23 0 0 1 9 0 1 0 1
phys
0 -95.56 -286 28 0 0 1 9 0 1 0 1
0 -173 -286 23 0 0 1 9 0 1 0 1
0 -93 -286 23 0 0 1 9 0 1 0 1
phys
0 -93 -276 23 0 0 1 9 0 1 0 1
0 -173 -276 23 0 0 1 9 0 1 0 1
0 -170.44 -276 28 0 0 1 9 0 1 0 1
phys
0 -93 -276 23 0 0 1 9 0 1 0 1
0 -170.44 -276 28 0 0 1 9 0 1 0 1
0 -95.56 -276 28 0 0 1 9 0 1 0 1
phys
0 -93 -286 23 0 0 1 9 0 1 0 1
0 -173 -286 23 0 0 1 9 0 1 0 1
0 -173 -276 23 0 0 1 9 0 1 0 1
phys
0 -93 -286 23 0 0 1 9 0 1 0 1
0 -173 -276 23 0 0 1 9 0 1 0 1
0 -93 -276 23 0 0 1 9 0 1 0 1
phys
0 -170.44 -286 28 0 0 1 9 0 1 0 1
0 -95.56 -286 28 0 0 1 9 0 1 0 1
0 -95.56 -276 28 0 0 1 9 0 1 0 1
phys
0 -170.44 -286 28 0 0 1 9 0 1 0 1
0 -95.56 -276 28 0 0 1 9 0 1 0 1
0 -170.44 -276 28 0 0 1 9 0 1 0 1
phys
0 -173 -286 23 0 0 1 9 0 1 0 1
0 -170.44 -286 28 0 0 1 9 0 1 0 1
0 -170.44 -276 28 0 0 1 9 0 1 0 1
phys
0 -173 -286 23 0 0 1 9 0 1 0 1
0 -170.44 -276 28 0 0 1 9 0 1 0 1
0 -173 -276 23 0 0 1 9 0 1 0 1
phys
0 -95.56 -286 28 0 0 1 9 0 1 0 1
0 -93 -286 23 0 0 1 9 0 1 0 1
0 -93 -276 23 0 0 1 9 0 1 0 1
phys
0 -95.56 -286 28 0 0 1 9 0 1 0 1
0 -93 -276 23 0 0 1 9 0 1 0 1
0 -95.56 -276 28 0 0 1 9 0 1 0 1
phys
0 -173 -276 82 0 0 1 10 0 1 0 1
0 -170.44 -276 77 0 0 1 10 0 1 0 1
0 -170.44 -286 77 0 0 1 10 0 1 0 1
phys
0 -173 -276 82 0 0 1 10 0 1 0 1
0 -170.44 -286 77 0 0 1 10 0 1 0 1
0 -173 -286 82 0 0 1 10 0 1 0 1
phys
0 -93 -286 82 0 0 1 10 0 1 0 1
0 -95.56 -286 77 0 0 1 10 0 1 0 1
0 -95.56 -276 77 0 0 1 10 0 1 0 1
phys
0 -93 -286 82 0 0 1 10 0 1 0 1
0 -95.56 -276 77 0 0 1 10 0 1 0 1
0 -93 -276 82 0 0 1 10 0 1 0 1
phys
0 -173 -286 82 0 0 1 10 0 1 0 1
0 -170.44 -286 77 0 0 1 10 0 1 0 1
0 -95.56 -286 77 0 0 1 10 0 1 0 1
phys
0 -173 -286 82 0 0 1 10 0 1 0 1
0 -95.56 -286 77 0 0 1 10 0 1 0 1
0 -93 -286 82 0 0 1 10 0 1 0 1
phys
0 -93 -276 82 0 0 1 10 0 1 0 1
0 -95.56 -276 77 0 0 1 10 0 1 0 1
0 -170.44 -276 77 0 0 1 10 0 1 0 1
phys
0 -93 -276 82 0 0 1 10 0 1 0 1
0 -170.44 -276 77 0 0 1 10 0 1 0 1
0 -173 -276 82 0 0 1 10 0 1 0 1
phys
0 -170.44 -286 77 0 0 1 10 0 1 0 1
0 -170.44 -276 77 0 0 1 10 0 1 0 1
0 -95.56 -276 77 0 0 1 10 0 1 0 1
phys
0 -170.44 -286 77 0 0 1 10 0 1 0 1
0 -95.56 -276 77 0 0 1 10 0 1 0 1
0 -95.56 -286 77 0 0 1 10 0 1 0 1
phys
0 -93 -286 82 0 0 1 10 0 1 0 1
0 -93 -276 82 0 0 1 10 0 1 0 1
0 -173 -276 82 0 0 1 10 0 1 0 1
phys
0 -93 -286 82 0 0 1 10 0 1 0 1
0 -173 -276 82 0 0 1 10 0 1 0 1
0 -173 -286 82 0 0 1 10 0 1 0 1
phys
0 -71 -286 82 0 0 1 11 0 1 0 1
0 -199.64 -286 82 0 0 1 11 0 1 0 1
0 -199.64 -276 82 0 0 1 11 0 1 0 1
phys
0 -71 -286 82 0 0 1 11 0 1 0 1
0 -199.64 -276 82 0 0 1 11 0 1 0 1
0 -71 -276 82 0 0 1 11 0 1 0 1
phys
0 -199.64 -286 94 0 0 1 11 0 1 0 1
0 -71 -286 94 0 0 1 11 0 1 0 1
0 -71 -276 94 0 0 1 11 0 1 0 1
phys
0 -199.64 -286 94 0 0 1 11 0 1 0 1
0 -71 -276 94 0 0 1 11 0 1 0 1
0 -199.64 -276 94 0 0 1 11 0 1 0 1
phys
0 -71 -286 94 0 0 1 11 0 1 0 1
0 -199.64 -286 94 0 0 1 11 0 1 0 1
0 -199.64 -286 82 0 0 1 11 0 1 0 1
phys
0 -71 -286 94 0 0 1 11 0 1 0 1
0 -199.64 -286 82 0 0 1 11 0 1 0 1
0 -71 -286 82 0 0 1 11 0 1 0 1
phys
0 -71 -276 82 0 0 1 11 0 1 0 1
0 -199.64 -276 82 0 0 1 11 0 1 0 1
0 -199.64 -276 94 0 0 1 11 0 1 0 1
phys
0 -71 -276 82 0 0 1 11 0 1 0 1
0 -199.64 -276 94 0 0 1 11 0 1 0 1
0 -71 -276 94 0 0 1 11 0 1 0 1
phys
0 -71 -286 82 0 0 1 11 0 1 0 1
0 -71 -276 82 0 0 1 11 0 1 0 1
0 -71 -276 94 0 0 1 11 0 1 0 1
phys
0 -71 -286 82 0 0 1 11 0 1 0 1
0 -71 -276 94 0 0 1 11 0 1 0 1
0 -71 -286 94 0 0 1 11 0 1 0 1
phys
0 -199.64 -286 94 0 0 1 11 0 1 0 1
0 -199.64 -276 94 0 0 1 11 0 1 0 1
0 -199.64 -276 82 0 0 1 11 0 1 0 1
phys
0 -199.64 -286 94 0 0 1 11 0 1 0 1
0 -199.64 -276 82 0 0 1 11 0 1 0 1
0 -199.64 -286 82 0 0 1 11 0 1 0 1
phys
0 -173 -276 23 0 0 1 12 0 1 0 1
0 -168 -276 28 0 0 1 12 0 1 0 1
0 -168 -286 28 0 0 1 12 0 1 0 1
phys
0 -173 -276 23 0 0 1 12 0 1 0 1
0 -168 -286 28 0 0 1 12 0 1 0 1
0 -173 -286 23 0 0 1 12 0 1 0 1
phys
0 -173 -286 82 0 0 1 12 0 1 0 1
0 -168 -286 77 0 0 1 12 0 1 0 1
0 -168 -276 77 0 0 1 12 0 1 0 1
phys
0 -173 -286 82 0 0 1 12 0 1 0 1
0 -168 -276 77 0 0 1 12 0 1 0 1
0 -173 -276 82 0 0 1 12 0 1 0 1
phys
0 -173 -286 23 0 0 1 12 0 1 0 1
0 -168 -286 28 0 0 1 12 0 1 0 1
0 -168 -286 77 0 0 1 12 0 1 0 1
phys
0 -173 -286 23 0 0 1 12 0 1 0 1
0 -168 -286 77 0 0 1 12 0 1 0 1
0 -173 -286 82 0 0 1 12 0 1 0 1
phys
0 -173 -276 82 0 0 1 12 0 1 0 1
0 -168 -276 77 0 0 1 12 0 1 0 1
0 -168 -276 28 0 0 1 12 0 1 0 1
phys
0 -173 -276 82 0 0 1 12 0 1 0 1
0 -168 -276 28 0 0 1 12 0 1 0 1
0 -173 -276 23 0 0 1 12 0 1 0 1
phys
0 -168 -286 28 0 0 1 12 0 1 0 1
0 -168 -276 28 0 0 1 12 0 1 0 1
0 -168 -276 77 0 0 1 12 0 1 0 1
phys
0 -168 -286 28 0 0 1 12 0 1 0 1
0 -168 -276 77 0 0 1 12 0 1 0 1
0 -168 -286 77 0 0 1 12 0 1 0 1
phys
0 -173 -286 82 0 0 1 12 0 1 0 1
0 -173 -276 82 0 0 1 12 0 1 0 1
0 -173 -276 23 0 0 1 12 0 1 0 1
phys
0 -173 -286 82 0 0 1 12 0 1 0 1
0 -173 -276 23 0 0 1 12 0 1 0 1
0 -173 -286 23 0 0 1 12 0 1 0 1
phys
0 -93 -286 23 0 0 1 13 0 1 0 1
0 -93 -286 82 0 0 1 13 0 1 0 1
0 -95.56 -286 77 0 0 1 13 0 1 0 1
phys
0 -93 -286 23 0 0 1 13 0 1 0 1
0 -95.56 -286 77 0 0 1 13 0 1 0 1
0 -95.56 -286 28 0 0 1 13 0 1 0 1
phys
0 -93 -276 82 0 0 1 13 0 1 0 1
0 -93 -276 23 0 0 1 13 0 1 0 1
0 -95.56 -276 28 0 0 1 13 0 1 0 1
phys
0 -93 -276 82 0 0 1 13 0 1 0 1
0 -95.56 -276 28 0 0 1 13 0 1 0 1
0 -95.56 -276 77 0 0 1 13 0 1 0 1
phys
0 -93 -286 82 0 0 1 13 0 1 0 1
0 -93 -286 23 0 0 1 13 0 1 0 1
0 -93 -276 23 0 0 1 13 0 1 0 1
phys
0 -93 -286 82 0 0 1 13 0 1 0 1
0 -93 -276 23 0 0 1 13 0 1 0 1
0 -93 -276 82 0 0 1 13 0 1 0 1
phys
0 -95.56 -286 28 0 0 1 13 0 1 0 1
0 -95.56 -286 77 0 0 1 13 0 1 0 1
0 -95.56 -276 77 0 0 1 13 0 1 0 1
phys
0 -95.56 -286 28 0 0 1 13 0 1 0 1
0 -95.56 -276 77 0 0 1 13 0 1 0 1
0 -95.56 -276 28 0 0 1 13 0 1 0 1
phys
0 -93 -286 23 0 0 1 13 0 1 0 1
0 -95.56 -286 28 0 0 1 13 0 1 0 1
0 -95.56 -276 28 0 0 1 13 0 1 0 1
phys
0 -93 -286 23 0 0 1 13 0 1 0 1
0 -95.56 -276 28 0 0 1 13 0 1 0 1
0 -93 -276 23 0 0 1 13 0 1 0 1
phys
0 -95.56 -286 77 0 0 1 13 0 1 0 1
0 -93 -286 82 0 0 1 13 0 1 0 1
0 -93 -276 82 0 0 1 13 0 1 0 1
phys
0 -95.56 -286 77 0 0 1 13 0 1 0 1
0 -93 -276 82 0 0 1 13 0 1 0 1
0 -95.56 -276 77 0 0 1 13 0 1 0 1
phys
0 -61 -286 3 0 0 1 14 0 1 0 1
0 -61 -286 234 0 0 1 14 0 1 0 1
0 -71 -286 234 0 0 1 14 0 1 0 1
phys
0 -61 -286 3 0 0 1 14 0 1 0 1
0 -71 -286 234 0 0 1 14 0 1 0 1
0 -71 -286 3 0 0 1 14 0 1 0 1
phys
0 -61 -232 234 0 0 1 14 0 1 0 1
0 -61 -232 3 0 0 1 14 0 1 0 1
0 -71 -232 3 0 0 1 14 0 1 0 1
phys
0 -61 -232 234 0 0 1 14 0 1 0 1
0 -71 -232 3 0 0 1 14 0 1 0 1
0 -71 -232 234 0 0 1 14 0 1 0 1
phys
0 -61 -286 234 0 0 1 14 0 1 0 1
0 -61 -286 3 0 0 1 14 0 1 0 1
0 -61 -232 3 0 0 1 14 0 1 0 1
phys
0 -61 -286 234 0 0 1 14 0 1 0 1
0 -61 -232 3 0 0 1 14 0 1 0 1
0 -61 -232 234 0 0 1 14 0 1 0 1
phys
0 -71 -286 3 0 0 1 14 0 1 0 1
0 -71 -286 234 0 0 1 14 0 1 0 1
0 -71 -232 234 0 0 1 14 0 1 0 1
phys
0 -71 -286 3 0 0 1 14 0 1 0 1
0 -71 -232 234 0 0 1 14 0 1 0 1
0 -71 -232 3 0 0 1 14 0 1 0 1
phys
0 -61 -286 3 0 0 1 14 0 1 0 1
0 -71 -286 3 0 0 1 14 0 1 0 1
0 -71 -232 3 0 0 1 14 0 1 0 1
phys
0 -61 -286 3 0 0 1 14 0 1 0 1
0 -71 -232 3 0 0 1 14 0 1 0 1
0 -61 -232 3 0 0 1 14 0 1 0 1
phys
0 -71 -286 234 0 0 1 14 0 1 0 1
0 -61 -286 234 0 0 1 14 0 1 0 1
0 -61 -232 234 0 0 1 14 0 1 0 1
phys
0 -71 -286 234 0 0 1 14 0 1 0 1
0 -61 -232 234 0 0 1 14 0 1 0 1
0 -71 -232 234 0 0 1 14 0 1 0 1
phys
0 -30 -342 0 0 0 1 15 0 1 0 1
0 -237 -342 0 0 0 1 15 0 1 0 1
0 -237 -222 0 0 0 1 15 0 1 0 1
phys
0 -30 -342 0 0 0 1 15 0 1 0 1
0 -237 -222 0 0 0 1 15 0 1 0 1
0 -30 -222 0 0 0 1 15 0 1 0 1
phys
0 -237 -342 3 0 0 1 15 0 1 0 1
0 -30 -342 3 0 0 1 15 0 1 0 1
0 -30 -222 3 0 0 1 15 0 1 0 1
phys
0 -237 -342 3 0 0 1 15 0 1 0 1
0 -30 -222 3 0 0 1 15 0 1 0 1
0 -237 -222 3 0 0 1 15 0 1 0 1
phys
0 -30 -342 3 0 0 1 15 0 1 0 1
0 -237 -342 3 0 0 1 15 0 1 0 1
0 -237 -342 0 0 0 1 15 0 1 0 1
phys
0 -30 -342 3 0 0 1 15 0 1 0 1
0 -237 -342 0 0 0 1 15 0 1 0 1
0 -30 -342 0 0 0 1 15 0 1 0 1
phys
0 -30 -222 0 0 0 1 15 0 1 0 1
0 -237 -222 0 0 0 1 15 0 1 0 1
0 -237 -222 3 0 0 1 15 0 1 0 1
phys
0 -30 -222 0 0 0 1 15 0 1 0 1
0 -237 -222 3 0 0 1 15 0 1 0 1
0 -30 -222 3 0 0 1 15 0 1 0 1
phys
0 -30 -342 0 0 0 1 15 0 1 0 1
0 -30 -222 0 0 0 1 15 0 1 0 1
0 -30 -222 3 0 0 1 15 0 1 0 1
phys
0 -30 -342 0 0 0 1 15 0 1 0 1
0 -30 -222 3 0 0 1 15 0 1 0 1
0 -30 -342 3 0 0 1 15 0 1 0 1
phys
0 -237 -342 3 0 0 1 15 0 1 0 1
0 -237 -222 3 0 0 1 15 0 1 0 1
0 -237 -222 0 0 0 1 15 0 1 0 1
phys
0 -237 -342 3 0 0 1 15 0 1 0 1
0 -237 -222 0 0 0 1 15 0 1 0 1
0 -237 -342 0 0 0 1 15 0 1 0 1
phys
0 -79 -260 23 0 0 1 16 0 1 0 1
0 -79 -260 26 0 0 1 16 0 1 0 1
0 -181 -260 26 0 0 1 16 0 1 0 1
phys
0 -79 -260 23 0 0 1 16 0 1 0 1
0 -181 -260 26 0 0 1 16 0 1 0 1
0 -181 -260 23 0 0 1 16 0 1 0 1
phys
0 -79 -239 26 0 0 1 16 0 1 0 1
0 -79 -239 23 0 0 1 16 0 1 0 1
0 -181 -239 23 0 0 1 16 0 1 0 1
phys
0 -79 -239 26 0 0 1 16 0 1 0 1
0 -181 -239 23 0 0 1 16 0 1 0 1
0 -181 -239 26 0 0 1 16 0 1 0 1
phys
0 -79 -260 26 0 0 1 16 0 1 0 1
0 -79 -260 23 0 0 1 16 0 1 0 1
0 -79 -239 23 0 0 1 16 0 1 0 1
phys
0 -79 -260 26 0 0 1 16 0 1 0 1
0 -79 -239 23 0 0 1 16 0 1 0 1
0 -79 -239 26 0 0 1 16 0 1 0 1
phys
0 -79 -260 26 0 0 1 16 0 1 0 1
0 -79 -239 26 0 0 1 16 0 1 0 1
0 -79 -241 28 0 0 1 16 0 1 0 1
phys
0 -79 -260 26 0 0 1 16 0 1 0 1
0 -79 -241 28 0 0 1 16 0 1 0 1
0 -79 -258 28 0 0 1 16 0 1 0 1
phys
0 -181 -260 23 0 0 1 16 0 1 0 1
0 -181 -260 26 0 0 1 16 0 1 0 1
0 -181 -258 28 0 0 1 16 0 1 0 1
phys
0 -181 -260 23 0 0 1 16 0 1 0 1
0 -181 -258 28 0 0 1 16 0 1 0 1
0 -181 -241 28 0 0 1 16 0 1 0 1
phys
0 -181 -260 23 0 0 1 16 0 1 0 1
0 -181 -241 28 0 0 1 16 0 1 0 1
0 -181 -239 26 0 0 1 16 0 1 0 1
phys
0 -181 -260 23 0 0 1 16 0 1 0 1
0 -181 -239 26 0 0 1 16 0 1 0 1
0 -181 -239 23 0 0 1 16 0 1 0 1
phys
0 -79 -260 23 0 0 1 16 0 1 0 1
0 -181 -260 23 0 0 1 16 0 1 0 1
0 -181 -239 23 0 0 1 16 0 1 0 1
phys
0 -79 -260 23 0 0 1 16 0 1 0 1
0 -181 -239 23 0 0 1 16 0 1 0 1
0 -79 -239 23 0 0 1 16 0 1 0 1
phys
0 -79 -258 28 0 0 1 16 0 1 0 1
0 -79 -241 28 0 0 1 16 0 1 0 1
0 -181 -241 28 0 0 1 16 0 1 0 1
phys
0 -79 -258 28 0 0 1 16 0 1 0 1
0 -181 -241 28 0 0 1 16 0 1 0 1
0 -181 -258 28 0 0 1 16 0 1 0 1
phys
0 -79 -241 28 0 0 1 16 0 1 0 1
0 -79 -239 26 0 0 1 16 0 1 0 1
0 -181 -239 26 0 0 1 16 0 1 0 1
phys
0 -79 -241 28 0 0 1 16 0 1 0 1
0 -181 -239 26 0 0 1 16 0 1 0 1
0 -181 -241 28 0 0 1 16 0 1 0 1
phys
0 -181 -260 26 0 0 1 16 0 1 0 1
0 -79 -260 26 0 0 1 16 0 1 0 1
0 -79 -258 28 0 0 1 16 0 1 0 1
phys
0 -181 -260 26 0 0 1 16 0 1 0 1
0 -79 -258 28 0 0 1 16 0 1 0 1
0 -181 -258 28 0 0 1 16 0 1 0 1
phys
0 -92 -260 94 0 0 1 17 0 1 0 1
0 -191 -260 94 0 0 1 17 0 1 0 1
0 -191 -239 94 0 0 1 17 0 1 0 1
phys
0 -92 -260 94 0 0 1 17 0 1 0 1
0 -191 -239 94 0 0 1 17 0 1 0 1
0 -92 -239 94 0 0 1 17 0 1 0 1
phys
0 -191 -260 99 0 0 1 17 0 1 0 1
0 -92 -260 99 0 0 1 17 0 1 0 1
0 -92 -239 99 0 0 1 17 0 1 0 1
phys
0 -191 -260 99 0 0 1 17 0 1 0 1
0 -92 -239 99 0 0 1 17 0 1 0 1
0 -191 -239 99 0 0 1 17 0 1 0 1
phys
0 -92 -260 99 0 0 1 17 0 1 0 1
0 -191 -260 99 0 0 1 17 0 1 0 1
0 -191 -260 94 0 0 1 17 0 1 0 1
phys
0 -92 -260 99 0 0 1 17 0 1 0 1
0 -191 -260 94 0 0 1 17 0 1 0 1
0 -92 -260 94 0 0 1 17 0 1 0 1
phys
0 -92 -239 94 0 0 1 17 0 1 0 1
0 -191 -239 94 0 0 1 17 0 1 0 1
0 -191 -239 99 0 0 1 17 0 1 0 1
phys
0 -92 -239 94 0 0 1 17 0 1 0 1
0 -191 -239 99 0 0 1 17 0 1 0 1
0 -92 -239 99 0 0 1 17 0 1 0 1
phys
0 -92 -260 94 0 0 1 17 0 1 0 1
0 -92 -239 94 0 0 1 17 0 1 0 1
0 -92 -239 99 0 0 1 17 0 1 0 1
phys
0 -92 -260 94 0 0 1 17 0 1 0 1
0 -92 -239 99 0 0 1 17 0 1 0 1
0 -92 -260 99 0 0 1 17 0 1 0 1
phys
0 -191 -260 99 0 0 1 17 0 1 0 1
0 -191 -239 99 0 0 1 17 0 1 0 1
0 -191 -239 94 0 0 1 17 0 1 0 1
phys
0 -191 -260 99 0 0 1 17 0 1 0 1
0 -191 -239 94 0 0 1 17 0 1 0 1
0 -191 -260 94 0 0 1 17 0 1 0 1
phys
0 -92 -239 94 0 0 1 18 0 1 0 1
0 -92 -239 99 0 0 1 18 0 1 0 1
0 -195 -239 99 0 0 1 18 0 1 0 1
phys
0 -92 -239 94 0 0 1 18 0 1 0 1
0 -195 -239 99 0 0 1 18 0 1 0 1
0 -195 -239 94 0 0 1 18 0 1 0 1
phys
0 -92 -232 99 0 0 1 18 0 1 0 1
0 -92 -232 94 0 0 1 18 0 1 0 1
0 -195 -232 94 0 0 1 18 0 1 0 1
phys
0 -92 -232 99 0 0 1 18 0 1 0 1
0 -195 -232 94 0 0 1 18 0 1 0 1
0 -195 -232 99 0 0 1 18 0 1 0 1
phys
0 -92 -239 99 0 0 1 18 0 1 0 1
0 -92 -239 94 0 0 1 18 0 1 0 1
0 -92 -232 94 0 0 1 18 0 1 0 1
phys
0 -92 -239 99 0 0 1 18 0 1 0 1
0 -92 -232 94 0 0 1 18 0 1 0 1
0 -92 -232 99 0 0 1 18 0 1 0 1
phys
0 -195 -239 94 0 0 1 18 0 1 0 1
0 -195 -239 99 0 0 1 18 0 1 0 1
0 -195 -232 99 0 0 1 18 0 1 0 1
phys
0 -195 -239 94 0 0 1 18 0 1 0 1
0 -195 -232 99 0 0 1 18 0 1 0 1
0 -195 -232 94 0 0 1 18 0 1 0 1
phys
0 -92 -239 94 0 0 1 18 0 1 0 1
0 -195 -239 94 0 0 1 18 0 1 0 1
0 -195 -232 94 0 0 1 18 0 1 0 1
phys
0 -92 -239 94 0 0 1 18 0 1 0 1
0 -195 -232 94 0 0 1 18 0 1 0 1
0 -92 -232 94 0 0 1 18 0 1 0 1
phys
0 -195 -239 99 0 0 1 18 0 1 0 1
0 -92 -239 99 0 0 1 18 0 1 0 1
0 -92 -232 99 0 0 1 18 0 1 0 1
phys
0 -195 -239 99 0 0 1 18 0 1 0 1
0 -92 -232 99 0 0 1 18 0 1 0 1
0 -195 -232 99 0 0 1 18 0 1 0 1
phys
0 -62 -232 3 0 0 1 19 0 1 0 1
0 -62 -232 234 0 0 1 19 0 1 0 1
0 -205 -232 234 0 0 1 19 0 1 0 1
phys
0 -62 -232 3 0 0 1 19 0 1 0 1
0 -205 -232 234 0 0 1 19 0 1 0 1
0 -205 -232 3 0 0 1 19 0 1 0 1
phys
0 -62 -222 234 0 0 1 19 0 1 0 1
0 -62 -222 3 0 0 1 19 0 1 0 1
0 -205 -222 3 0 0 1 19 0 1 0 1
phys
0 -62 -222 234 0 0 1 19 0 1 0 1
0 -205 -222 3 0 0 1 19 0 1 0 1
0 -205 -222 234 0 0 1 19 0 1 0 1
phys
0 -62 -232 234 0 0 1 19 0 1 0 1
0 -62 -232 3 0 0 1 19 0 1 0 1
0 -62 -222 3 0 0 1 19 0 1 0 1
phys
0 -62 -232 234 0 0 1 19 0 1 0 1
0 -62 -222 3 0 0 1 19 0 1 0 1
0 -62 -222 234 0 0 1 19 0 1 0 1
phys
0 -205 -232 3 0 0 1 19 0 1 0 1
0 -205 -232 234 0 0 1 19 0 1 0 1
0 -205 -222 234 0 0 1 19 0 1 0 1
phys
0 -205 -232 3 0 0 1 19 0 1 0 1
0 -205 -222 234 0 0 1 19 0 1 0 1
0 -205 -222 3 0 0 1 19 0 1 0 1
phys
0 -62 -232 3 0 0 1 19 0 1 0 1
0 -205 -232 3 0 0 1 19 0 1 0 1
0 -205 -222 3 0 0 1 19 0 1 0 1
phys
0 -62 -232 3 0 0 1 19 0 1 0 1
0 -205 -222 3 0 0 1 19 0 1 0 1
0 -62 -222 3 0 0 1 19 0 1 0 1
phys
0 -205 -232 234 0 0 1 19 0 1 0 1
0 -62 -232 234 0 0 1 19 0 1 0 1
0 -62 -222 234 0 0 1 19 0 1 0 1
phys
0 -205 -232 234 0 0 1 19 0 1 0 1
0 -62 -222 234 0 0 1 19 0 1 0 1
0 -205 -222 234 0 0 1 19 0 1 0 1
phys
0 237 -264 91 0 0 1 20 0 1 0 1
0 237 -264 79 0 0 1 20 0 1 0 1
0 236 -264 79 0 0 1 20 0 1 0 1
phys
0 237 -264 91 0 0 1 20 0 1 0 1
0 236 -264 79 0 0 1 20 0 1 0 1
0 236 -264 91 0 0 1 20 0 1 0 1
phys
0 237 -291 79 0 0 1 20 0 1 0 1
0 237 -291 91 0 0 1 20 0 1 0 1
0 236 -291 91 0 0 1 20 0 1 0 1
phys
0 237 -291 79 0 0 1 20 0 1 0 1
0 236 -291 91 0 0 1 20 0 1 0 1
0 236 -291 79 0 0 1 20 0 1 0 1
phys
0 236 -291 79 0 0 1 20 0 1 0 1
0 236 -291 91 0 0 1 20 0 1 0 1
0 236 -264 91 0 0 1 20 0 1 0 1
phys
0 236 -291 79 0 0 1 20 0 1 0 1
0 236 -264 91 0 0 1 20 0 1 0 1
0 236 -264 79 0 0 1 20 0 1 0 1
phys
0 237 -291 91 0 0 1 20 0 1 0 1
0 237 -291 79 0 0 1 20 0 1 0 1
0 237 -264 79 0 0 1 20 0 1 0 1
phys
0 237 -291 91 0 0 1 20 0 1 0 1
0 237 -264 79 0 0 1 20 0 1 0 1
0 237 -264 91 0 0 1 20 0 1 0 1
phys
0 237 -291 79 0 0 1 20 0 1 0 1
0 236 -291 79 0 0 1 20 0 1 0 1
0 236 -264 79 0 0 1 20 0 1 0 1
phys
0 237 -291 79 0 0 1 20 0 1 0 1
0 236 -264 79 0 0 1 20 0 1 0 1
0 237 -264 79 0 0 1 20 0 1 0 1
phys
0 236 -291 91 0 0 1 20 0 1 0 1
0 237 -291 91 0 0 1 20 0 1 0 1
0 237 -264 91 0 0 1 20 0 1 0 1
phys
0 236 -291 91 0 0 1 20 0 1 0 1
0 237 -264 91 0 0 1 20 0 1 0 1
0 236 -264 91 0 0 1 20 0 1 0 1
phys
0 -76.46 -100 244 0 0 1 21 0 1 0 1
0 -74.55 -100 244 0 0 1 21 0 1 0 1
0 -74.55 342 244 0 0 1 21 0 1 0 1
phys
0 -76.46 -100 244 0 0 1 21 0 1 0 1
0 -74.55 342 244 0 0 1 21 0 1 0 1
0 -76.46 342 244 0 0 1 21 0 1 0 1
phys
0 -76.46 342 234 0 0 1 21 0 1 0 1
0 -76.46 342 244 0 0 1 21 0 1 0 1
0 -74.55 342 244 0 0 1 21 0 1 0 1
phys
0 -76.46 342 234 0 0 1 21 0 1 0 1
0 -74.55 342 244 0 0 1 21 0 1 0 1
0 -74.55 342 234 0 0 1 21 0 1 0 1
phys
0 -74.55 -100 234 0 0 1 21 0 1 0 1
0 -74.55 -100 244 0 0 1 21 0 1 0 1
0 -76.46 -100 244 0 0 1 21 0 1 0 1
phys
0 -74.55 -100 234 0 0 1 21 0 1 0 1
0 -76.46 -100 244 0 0 1 21 0 1 0 1
0 -76.46 -100 234 0 0 1 21 0 1 0 1
phys
0 -76.46 -100 234 0 0 1 21 0 1 0 1
0 -76.46 -100 244 0 0 1 21 0 1 0 1
0 -76.46 342 244 0 0 1 21 0 1 0 1
phys
0 -76.46 -100 234 0 0 1 21 0 1 0 1
0 -76.46 342 244 0 0 1 21 0 1 0 1
0 -76.46 342 234 0 0 1 21 0 1 0 1
phys
0 -74.55 342 234 0 0 1 21 0 1 0 1
0 -74.55 342 244 0 0 1 21 0 1 0 1
0 -74.55 -100 244 0 0 1 21 0 1 0 1
phys
0 -74.55 342 234 0 0 1 21 0 1 0 1
0 -74.55 -100 244 0 0 1 21 0 1 0 1
0 -74.55 -100 234 0 0 1 21 0 1 0 1
phys
0 -74.55 -100 234 0 0 1 21 0 1 0 1
0 -76.46 -100 234 0 0 1 21 0 1 0 1
0 -76.46 342 234 0 0 1 21 0 1 0 1
phys
0 -74.55 -100 234 0 0 1 21 0 1 0 1
0 -76.46 342 234 0 0 1 21 0 1 0 1
0 -74.55 342 234 0 0 1 21 0 1 0 1
phys
0 -110.91 342 244 0 0 1 22 0 1 0 1
0 -110.91 342 234 0 0 1 22 0 1 0 1
0 -112.82 342 234 0 0 1 22 0 1 0 1
phys
0 -110.91 342 244 0 0 1 22 0 1 0 1
0 -112.82 342 234 0 0 1 22 0 1 0 1
0 -112.82 342 244 0 0 1 22 0 1 0 1
phys
0 -110.91 -100 234 0 0 1 22 0 1 0 1
0 -110.91 -100 244 0 0 1 22 0 1 0 1
0 -112.82 -100 244 0 0 1 22 0 1 0 1
phys
0 -110.91 -100 234 0 0 1 22 0 1 0 1
0 -112.82 -100 244 0 0 1 22 0 1 0 1
0 -112.82 -100 234 0 0 1 22 0 1 0 1
phys
0 -112.82 -100 234 0 0 1 22 0 1 0 1
0 -112.82 -100 244 0 0 1 22 0 1 0 1
0 -112.82 342 244 0 0 1 22 0 1 0 1
phys
0 -112.82 -100 234 0 0 1 22 0 1 0 1
0 -112.82 342 244 0 0 1 22 0 1 0 1
0 -112.82 342 234 0 0 1 22 0 1 0 1
phys
0 -110.91 -100 244 0 0 1 22 0 1 0 1
0 -110.91 -100 234 0 0 1 22 0 1 0 1
0 -110.91 342 234 0 0 1 22 0 1 0 1
phys
0 -110.91 -100 244 0 0 1 22 0 1 0 1
0 -110.91 342 234 0 0 1 22 0 1 0 1
0 -110.91 342 244 0 0 1 22 0 1 0 1
phys
0 -110.91 -100 234 0 0 1 22 0 1 0 1
0 -112.82 -100 234 0 0 1 22 0 1 0 1
0 -112.82 342 234 0 0 1 22 0 1 0 1
phys
0 -110.91 -100 234 0 0 1 22 0 1 0 1
0 -112.82 342 234 0 0 1 22 0 1 0 1
0 -110.91 342 234 0 0 1 22 0 1 0 1
phys
0 -112.82 -100 244 0 0 1 22 0 1 0 1
0 -110.91 -100 244 0 0 1 22 0 1 0 1
0 -110.91 342 244 0 0 1 22 0 1 0 1
phys
0 -112.82 -100 244 0 0 1 22 0 1 0 1
0 -110.91 342 244 0 0 1 22 0 1 0 1
0 -112.82 342 244 0 0 1 22 0 1 0 1
phys
0 42.73 342 244 0 0 1 23 0 1 0 1
0 42.73 342 234 0 0 1 23 0 1 0 1
0 40.81 342 234 0 0 1 23 0 1 0 1
phys
0 42.73 342 244 0 0 1 23 0 1 0 1
0 40.81 342 234 0 0 1 23 0 1 0 1
0 40.81 342 244 0 0 1 23 0 1 0 1
phys
0 42.73 -100 234 0 0 1 23 0 1 0 1
0 42.73 -100 244 0 0 1 23 0 1 0 1
0 40.81 -100 244 0 0 1 23 0 1 0 1
phys
0 42.73 -100 234 0 0 1 23 0 1 0 1
0 40.81 -100 244 0 0 1 23 0 1 0 1
0 40.81 -100 234 0 0 1 23 0 1 0 1
phys
0 40.81 -100 234 0 0 1 23 0 1 0 1
0 40.81 -100 244 0 0 1 23 0 1 0 1
0 40.81 342 244 0 0 1 23 0 1 0 1
phys
0 40.81 -100 234 0 0 1 23 0 1 0 1
0 40.81 342 244 0 0 1 23 0 1 0 1
0 40.81 342 234 0 0 1 23 0 1 0 1
phys
0 42.73 -100 244 0 0 1 23 0 1 0 1
0 42.73 -100 234 0 0 1 23 0 1 0 1
0 42.73 342 234 0 0 1 23 0 1 0 1
phys
0 42.73 -100 244 0 0 1 23 0 1 0 1
0 42.73 342 234 0 0 1 23 0 1 0 1
0 42.73 342 244 0 0 1 23 0 1 0 1
phys
0 42.73 -100 234 0 0 1 23 0 1 0 1
0 40.81 -100 234 0 0 1 23 0 1 0 1
0 40.81 342 234 0 0 1 23 0 1 0 1
phys
0 42.73 -100 234 0 0 1 23 0 1 0 1
0 40.81 342 234 0 0 1 23 0 1 0 1
0 42.73 342 234 0 0 1 23 0 1 0 1
phys
0 40.81 -100 244 0 0 1 23 0 1 0 1
0 42.73 -100 244 0 0 1 23 0 1 0 1
0 42.73 342 244 0 0 1 23 0 1 0 1
phys
0 40.81 -100 244 0 0 1 23 0 1 0 1
0 42.73 342 244 0 0 1 23 0 1 0 1
0 40.81 342 244 0 0 1 23 0 1 0 1
end
