version 1
nodes
0 "root" -1
end
skeleton
time 0
0 0 0 0 0 0 0
end
triangles
bridge_se1_metal_flat_steel_01
0 -2 -123 25 -1 0 0 7.5625 19.535156 1 0 1
0 -2 -123 35 -1 0 0 7.953125 19.535156 1 0 1
0 -2 4 35 -1 0 0 7.953125 24.496094 1 0 1
bridge_se1_metal_flat_steel_01
0 -2 -123 25 -1 0 0 7.5625 19.535156 1 0 1
0 -2 4 35 -1 0 0 7.953125 24.496094 1 0 1
0 -2 4 25 -1 0 0 7.5625 24.496094 1 0 1
bridge_se1_metal_flat_steel_01
0 0 -123 35 1 0 0 7.953125 19.535156 1 0 1
0 0 -123 25 1 0 0 7.5625 19.535156 1 0 1
0 0 4 25 1 0 0 7.5625 24.496094 1 0 1
bridge_se1_metal_flat_steel_01
0 0 -123 35 1 0 0 7.953125 19.535156 1 0 1
0 0 4 25 1 0 0 7.5625 24.496094 1 0 1
0 0 4 35 1 0 0 7.953125 24.496094 1 0 1
bridge_se1_metal_flat_steel_01
0 0 -123 25 0 0 -1 357.140625 19.535156 1 0 1
0 -2 -123 25 0 0 -1 357.21875 19.535156 1 0 1
0 -2 4 25 0 0 -1 357.21875 24.496094 1 0 1
bridge_se1_metal_flat_steel_01
0 0 -123 25 0 0 -1 357.140625 19.535156 1 0 1
0 -2 4 25 0 0 -1 357.21875 24.496094 1 0 1
0 0 4 25 0 0 -1 357.140625 24.496094 1 0 1
pepsi2_arch_concrete_panel01
0 136 65 0 0 -1 0 70.433594 0.269531 1 0 1
0 136 65 24 0 -1 0 70.433594 0.082031 1 0 1
0 -137 65 24 0 -1 0 72.566406 0.082031 1 0 1
pepsi2_arch_concrete_panel01
0 136 65 0 0 -1 0 70.433594 0.269531 1 0 1
0 -137 65 24 0 -1 0 72.566406 0.082031 1 0 1
0 -137 65 0 0 -1 0 72.566406 0.269531 1 0 1
pepsi2_arch_concrete_panel01
0 136 65 0 0 0 -1 70.433594 6.269531 1 0 1
0 -137 65 0 0 0 -1 72.566406 6.269531 1 0 1
0 -137 124 0 0 0 -1 72.566406 6.730469 1 0 1
pepsi2_arch_concrete_panel01
0 136 65 0 0 0 -1 70.433594 6.269531 1 0 1
0 -137 124 0 0 0 -1 72.566406 6.730469 1 0 1
0 136 124 0 0 0 -1 70.433594 6.730469 1 0 1
bridge_se1_metal_flat_steel_01
0 58 -123 25 -1 0 0 7.5625 19.535156 1 0 1
0 58 -123 35 -1 0 0 7.953125 19.535156 1 0 1
0 58 4 35 -1 0 0 7.953125 24.496094 1 0 1
bridge_se1_metal_flat_steel_01
0 58 -123 25 -1 0 0 7.5625 19.535156 1 0 1
0 58 4 35 -1 0 0 7.953125 24.496094 1 0 1
0 58 4 25 -1 0 0 7.5625 24.496094 1 0 1
bridge_se1_metal_flat_steel_01
0 60 -123 35 1 0 0 7.953125 19.535156 1 0 1
0 60 -123 25 1 0 0 7.5625 19.535156 1 0 1
0 60 4 25 1 0 0 7.5625 24.496094 1 0 1
bridge_se1_metal_flat_steel_01
0 60 -123 35 1 0 0 7.953125 19.535156 1 0 1
0 60 4 25 1 0 0 7.5625 24.496094 1 0 1
0 60 4 35 1 0 0 7.953125 24.496094 1 0 1
bridge_se1_metal_flat_steel_01
0 60 -123 25 0 0 -1 354.796875 19.535156 1 0 1
0 58 -123 25 0 0 -1 354.875 19.535156 1 0 1
0 58 4 25 0 0 -1 354.875 24.496094 1 0 1
bridge_se1_metal_flat_steel_01
0 60 -123 25 0 0 -1 354.796875 19.535156 1 0 1
0 58 4 25 0 0 -1 354.875 24.496094 1 0 1
0 60 4 25 0 0 -1 354.796875 24.496094 1 0 1
bridge_se1_metal_flat_steel_01
0 -22 -123 25 -1 0 0 7.5625 19.535156 1 0 1
0 -22 -123 35 -1 0 0 7.953125 19.535156 1 0 1
0 -22 4 35 -1 0 0 7.953125 24.496094 1 0 1
bridge_se1_metal_flat_steel_01
0 -22 -123 25 -1 0 0 7.5625 19.535156 1 0 1
0 -22 4 35 -1 0 0 7.953125 24.496094 1 0 1
0 -22 4 25 -1 0 0 7.5625 24.496094 1 0 1
bridge_se1_metal_flat_steel_01
0 -20 -123 35 1 0 0 7.953125 19.535156 1 0 1
0 -20 -123 25 1 0 0 7.5625 19.535156 1 0 1
0 -20 4 25 1 0 0 7.5625 24.496094 1 0 1
bridge_se1_metal_flat_steel_01
0 -20 -123 35 1 0 0 7.953125 19.535156 1 0 1
0 -20 4 25 1 0 0 7.5625 24.496094 1 0 1
0 -20 4 35 1 0 0 7.953125 24.496094 1 0 1
bridge_se1_metal_flat_steel_01
0 -20 -123 25 0 0 -1 357.921875 19.535156 1 0 1
0 -22 -123 25 0 0 -1 358 19.535156 1 0 1
0 -22 4 25 0 0 -1 358 24.496094 1 0 1
bridge_se1_metal_flat_steel_01
0 -20 -123 25 0 0 -1 357.921875 19.535156 1 0 1
0 -22 4 25 0 0 -1 358 24.496094 1 0 1
0 -20 4 25 0 0 -1 357.921875 24.496094 1 0 1
bridge_se1_metal_flat_steel_01
0 18 -123 25 -1 0 0 7.5625 19.535156 1 0 1
0 18 -123 35 -1 0 0 7.953125 19.535156 1 0 1
0 18 4 35 -1 0 0 7.953125 24.496094 1 0 1
bridge_se1_metal_flat_steel_01
0 18 -123 25 -1 0 0 7.5625 19.535156 1 0 1
0 18 4 35 -1 0 0 7.953125 24.496094 1 0 1
0 18 4 25 -1 0 0 7.5625 24.496094 1 0 1
bridge_se1_metal_flat_steel_01
0 20 -123 35 1 0 0 7.953125 19.535156 1 0 1
0 20 -123 25 1 0 0 7.5625 19.535156 1 0 1
0 20 4 25 1 0 0 7.5625 24.496094 1 0 1
bridge_se1_metal_flat_steel_01
0 20 -123 35 1 0 0 7.953125 19.535156 1 0 1
0 20 4 25 1 0 0 7.5625 24.496094 1 0 1
0 20 4 35 1 0 0 7.953125 24.496094 1 0 1
bridge_se1_metal_flat_steel_01
0 20 -123 25 0 0 -1 356.359375 19.535156 1 0 1
0 18 -123 25 0 0 -1 356.4375 19.535156 1 0 1
0 18 4 25 0 0 -1 356.4375 24.496094 1 0 1
bridge_se1_metal_flat_steel_01
0 20 -123 25 0 0 -1 356.359375 19.535156 1 0 1
0 18 4 25 0 0 -1 356.4375 24.496094 1 0 1
0 20 4 25 0 0 -1 356.359375 24.496094 1 0 1
bridge_se1_metal_flat_steel_01
0 40 -123 25 0 0 -1 355.578125 19.535156 1 0 1
0 38 -123 25 0 0 -1 355.65625 19.535156 1 0 1
0 38 4 25 0 0 -1 355.65625 24.496094 1 0 1
bridge_se1_metal_flat_steel_01
0 40 -123 25 0 0 -1 355.578125 19.535156 1 0 1
0 38 4 25 0 0 -1 355.65625 24.496094 1 0 1
0 40 4 25 0 0 -1 355.578125 24.496094 1 0 1
bridge_se1_metal_flat_steel_01
0 38 -123 35 -1 0 0 7.953125 19.535156 1 0 1
0 38 4 35 -1 0 0 7.953125 24.496094 1 0 1
0 38 4 25 -1 0 0 7.5625 24.496094 1 0 1
bridge_se1_metal_flat_steel_01
0 38 -123 35 -1 0 0 7.953125 19.535156 1 0 1
0 38 4 25 -1 0 0 7.5625 24.496094 1 0 1
0 38 -123 25 -1 0 0 7.5625 19.535156 1 0 1
bridge_se1_metal_flat_steel_01
0 40 -123 25 1 0 0 7.5625 19.535156 1 0 1
0 40 4 25 1 0 0 7.5625 24.496094 1 0 1
0 40 4 35 1 0 0 7.953125 24.496094 1 0 1
bridge_se1_metal_flat_steel_01
0 40 -123 25 1 0 0 7.5625 19.535156 1 0 1
0 40 4 35 1 0 0 7.953125 24.496094 1 0 1
0 40 -123 35 1 0 0 7.953125 19.535156 1 0 1
bridge_se1_metal_flat_steel_01
0 -42 -123 25 -1 0 0 7.5625 19.535156 1 0 1
0 -42 -123 35 -1 0 0 7.953125 19.535156 1 0 1
0 -42 4 35 -1 0 0 7.953125 24.496094 1 0 1
bridge_se1_metal_flat_steel_01
0 -42 -123 25 -1 0 0 7.5625 19.535156 1 0 1
0 -42 4 35 -1 0 0 7.953125 24.496094 1 0 1
0 -42 4 25 -1 0 0 7.5625 24.496094 1 0 1
bridge_se1_metal_flat_steel_01
0 -40 -123 35 1 0 0 7.953125 19.535156 1 0 1
0 -40 -123 25 1 0 0 7.5625 19.535156 1 0 1
0 -40 4 25 1 0 0 7.5625 24.496094 1 0 1
bridge_se1_metal_flat_steel_01
0 -40 -123 35 1 0 0 7.953125 19.535156 1 0 1
0 -40 4 25 1 0 0 7.5625 24.496094 1 0 1
0 -40 4 35 1 0 0 7.953125 24.496094 1 0 1
bridge_se1_metal_flat_steel_01
0 -40 -123 25 0 0 -1 358.703125 19.535156 1 0 1
0 -42 -123 25 0 0 -1 358.78125 19.535156 1 0 1
0 -42 4 25 0 0 -1 358.78125 24.496094 1 0 1
bridge_se1_metal_flat_steel_01
0 -40 -123 25 0 0 -1 358.703125 19.535156 1 0 1
0 -42 4 25 0 0 -1 358.78125 24.496094 1 0 1
0 -40 4 25 0 0 -1 358.703125 24.496094 1 0 1
end
