version 1
nodes
0 "root" -1
end
skeleton
time 0
0 0 0 0 0 0 0
end
triangles
metal_metaltruss009a
0 176 21 -38 1 0 0 190 -3.4375 1 0 1
0 176 21 -48 1 0 0 190 -3.515625 1 0 1
0 176 23 -48 1 0 0 189.875 -3.515625 1 0 1
metal_metaltruss009a
0 176 21 -38 1 0 0 190 -3.4375 1 0 1
0 176 23 -48 1 0 0 189.875 -3.515625 1 0 1
0 176 23 -38 1 0 0 189.875 -3.4375 1 0 1
metal_metalwall074a
0 176 21 -48 0 -1 0 -4.578125 -41.875 1 0 1
0 176 21 -38 0 -1 0 -4.5 -41.875 1 0 1
0 48 21 26 0 -1 0 -4 -40.875 1 0 1
metal_metalwall074a
0 176 21 -48 0 -1 0 -4.578125 -41.875 1 0 1
0 48 21 26 0 -1 0 -4 -40.875 1 0 1
0 48 21 16 0 -1 0 -4.078125 -40.875 1 0 1
metal_metalwall074a
0 176 23 -38 0 1 0 -4.5 -41.875 1 0 1
0 176 23 -48 0 1 0 -4.578125 -41.875 1 0 1
0 48 23 16 0 1 0 -4.078125 -40.875 1 0 1
metal_metalwall074a
0 176 23 -38 0 1 0 -4.5 -41.875 1 0 1
0 48 23 16 0 1 0 -4.078125 -40.875 1 0 1
0 48 23 26 0 1 0 -4 -40.875 1 0 1
metal_metalwall074a
0 48 21 16 -0.447214 0 -0.894427 -23.9375 -40.890625 1 0 1
0 48 23 16 -0.447214 0 -0.894427 -23.921875 -40.890625 1 0 1
0 176 23 -48 -0.447214 0 -0.894427 -23.921875 -41.890625 1 0 1
metal_metalwall074a
0 48 21 16 -0.447214 0 -0.894427 -23.9375 -40.890625 1 0 1
0 176 23 -48 -0.447214 0 -0.894427 -23.921875 -41.890625 1 0 1
0 176 21 -48 -0.447214 0 -0.894427 -23.9375 -41.890625 1 0 1
metal_metalwall074a
0 176 21 -38 0.447214 0 0.894427 -23.9375 -41.890625 1 0 1
0 176 23 -38 0.447214 0 0.894427 -23.921875 -41.890625 1 0 1
0 48 23 26 0.447214 0 0.894427 -23.921875 -40.890625 1 0 1
metal_metalwall074a
0 176 21 -38 0.447214 0 0.894427 -23.9375 -41.890625 1 0 1
0 48 23 26 0.447214 0 0.894427 -23.921875 -40.890625 1 0 1
0 48 21 26 0.447214 0 0.894427 -23.9375 -40.890625 1 0 1
props_woodcrate001a
0 24 -19.78 22 0 0 1 112.996392 -79.949098 1 0 1
0 19.78 24.01 22 0 0 1 112.996367 -78.966544 1 0 1
0 -24.01 19.8 22 0 0 1 112.013834 -78.966347 1 0 1
props_woodcrate001a
0 24 -19.78 22 0 0 1 112.996392 -79.949098 1 0 1
0 -24.01 19.8 22 0 0 1 112.013834 -78.966347 1 0 1
0 -19.79 -24 22 0 0 1 112.013838 -79.949123 1 0 1
props_woodcrate001a
0 19.78 24.01 -22 0.995389 0.095925 0 -79.966544 -11.982141 1 0 1
0 19.78 24.01 22 0.995389 0.095925 0 -79.966544 -10.999998 1 0 1
0 24 -19.78 22 0.995389 0.095925 0 -80.949098 -10.999998 1 0 1
props_woodcrate001a
0 19.78 24.01 -22 0.995389 0.095925 0 -79.966544 -11.982141 1 0 1
0 24 -19.78 22 0.995389 0.095925 0 -80.949098 -10.999998 1 0 1
0 24 -19.78 -22 0.995389 0.095925 0 -80.949098 -11.982141 1 0 1
props_woodcrate001a
0 -19.79 -24 -22 -0.995391 -0.095903 0 -80.949123 -11.982141 1 0 1
0 -19.79 -24 22 -0.995391 -0.095903 0 -80.949123 -10.999998 1 0 1
0 -24.01 19.8 22 -0.995391 -0.095903 0 -79.966347 -10.999998 1 0 1
props_woodcrate001a
0 -19.79 -24 -22 -0.995391 -0.095903 0 -80.949123 -11.982141 1 0 1
0 -24.01 19.8 22 -0.995391 -0.095903 0 -79.966347 -10.999998 1 0 1
0 -24.01 19.8 -22 -0.995391 -0.095903 0 -79.966347 -11.982141 1 0 1
props_woodcrate001a
0 24 -19.78 -22 0.095925 -0.995389 0 112.996392 -11.982141 1 0 1
0 24 -19.78 22 0.095925 -0.995389 0 112.996392 -10.999998 1 0 1
0 -19.79 -24 22 0.095925 -0.995389 0 112.013838 -10.999998 1 0 1
props_woodcrate001a
0 24 -19.78 -22 0.095925 -0.995389 0 112.996392 -11.982141 1 0 1
0 -19.79 -24 22 0.095925 -0.995389 0 112.013838 -10.999998 1 0 1
0 -19.79 -24 -22 0.095925 -0.995389 0 112.013838 -11.982141 1 0 1
props_woodcrate001a
0 -24.01 19.8 -22 -0.095699 0.99541 0 112.013834 -11.982141 1 0 1
0 -24.01 19.8 22 -0.095699 0.99541 0 112.013834 -10.999998 1 0 1
0 19.78 24.01 22 -0.095699 0.99541 0 112.996367 -10.999998 1 0 1
props_woodcrate001a
0 -24.01 19.8 -22 -0.095699 0.99541 0 112.013834 -11.982141 1 0 1
0 19.78 24.01 22 -0.095699 0.99541 0 112.996367 -10.999998 1 0 1
0 19.78 24.01 -22 -0.095699 0.99541 0 112.996367 -11.982141 1 0 1
props_woodcrate001a
0 -19.79 -24 -22 0 0 -1 -167.225313 -96.0625 1 0 1
0 -24.01 19.8 -22 0 0 -1 -167.093438 -94.69375 1 0 1
0 19.78 24.01 -22 0 0 -1 -168.461875 -94.562187 1 0 1
props_woodcrate001a
0 -19.79 -24 -22 0 0 -1 -167.225313 -96.0625 1 0 1
0 19.78 24.01 -22 0 0 -1 -168.461875 -94.562187 1 0 1
0 24 -19.78 -22 0 0 -1 -168.59375 -95.930625 1 0 1
metal_metalwall074a
0 136 21 14 0 -1 0 -4.09375 -41.53125 1 0 1
0 48 21 58 0 -1 0 -3.75 -40.84375 1 0 1
0 48 21 56 0 -1 0 -3.765625 -40.84375 1 0 1
metal_metalwall074a
0 136 21 14 0 -1 0 -4.09375 -41.53125 1 0 1
0 48 21 56 0 -1 0 -3.765625 -40.84375 1 0 1
0 136 21 12 0 -1 0 -4.109375 -41.53125 1 0 1
metal_metalwall074a
0 136 23 12 0 1 0 -4.109375 -41.53125 1 0 1
0 48 23 56 0 1 0 -3.765625 -40.84375 1 0 1
0 48 23 58 0 1 0 -3.75 -40.84375 1 0 1
metal_metalwall074a
0 136 23 12 0 1 0 -4.109375 -41.53125 1 0 1
0 48 23 58 0 1 0 -3.75 -40.84375 1 0 1
0 136 23 14 0 1 0 -4.09375 -41.53125 1 0 1
metal_metalwall074a
0 48 21 58 0.447214 0 0.894427 -23.9375 -40.875 1 0 1
0 136 21 14 0.447214 0 0.894427 -23.9375 -41.5625 1 0 1
0 136 23 14 0.447214 0 0.894427 -23.921875 -41.5625 1 0 1
metal_metalwall074a
0 48 21 58 0.447214 0 0.894427 -23.9375 -40.875 1 0 1
0 136 23 14 0.447214 0 0.894427 -23.921875 -41.5625 1 0 1
0 48 23 58 0.447214 0 0.894427 -23.921875 -40.875 1 0 1
metal_metalwall074a
0 136 21 12 -0.447214 0 -0.894427 -23.9375 -41.5625 1 0 1
0 48 21 56 -0.447214 0 -0.894427 -23.9375 -40.875 1 0 1
0 48 23 56 -0.447214 0 -0.894427 -23.921875 -40.875 1 0 1
metal_metalwall074a
0 136 21 12 -0.447214 0 -0.894427 -23.9375 -41.5625 1 0 1
0 48 23 56 -0.447214 0 -0.894427 -23.921875 -40.875 1 0 1
0 136 23 12 -0.447214 0 -0.894427 -23.921875 -41.5625 1 0 1
metal_metalwall074a
0 92 21 2 -1 0 0 -4.125 25.015625 1 0 1
0 92 21 34 -1 0 0 -3.875 25.015625 1 0 1
0 92 23 34 -1 0 0 -3.875 25 1 0 1
metal_metalwall074a
0 92 21 2 -1 0 0 -4.125 25.015625 1 0 1
0 92 23 34 -1 0 0 -3.875 25 1 0 1
0 92 23 2 -1 0 0 -4.125 25 1 0 1
metal_metalwall074a
0 94 21 34 1 0 0 -3.875 25.015625 1 0 1
0 94 21 2 1 0 0 -4.125 25.015625 1 0 1
0 94 23 2 1 0 0 -4.125 25 1 0 1
metal_metalwall074a
0 94 21 34 1 0 0 -3.875 25.015625 1 0 1
0 94 23 2 1 0 0 -4.125 25 1 0 1
0 94 23 34 1 0 0 -3.875 25 1 0 1
metal_metalwall074a
0 94 21 2 0 -1 0 -4.171875 -41.09375 1 0 1
0 94 21 34 0 -1 0 -3.921875 -41.09375 1 0 1
0 92 21 34 0 -1 0 -3.921875 -41.078125 1 0 1
metal_metalwall074a
0 94 21 2 0 -1 0 -4.171875 -41.09375 1 0 1
0 92 21 34 0 -1 0 -3.921875 -41.078125 1 0 1
0 92 21 2 0 -1 0 -4.171875 -41.078125 1 0 1
metal_metalwall074a
0 94 23 34 0 1 0 -3.921875 -41.09375 1 0 1
0 94 23 2 0 1 0 -4.171875 -41.09375 1 0 1
0 92 23 2 0 1 0 -4.171875 -41.078125 1 0 1
metal_metalwall074a
0 94 23 34 0 1 0 -3.921875 -41.09375 1 0 1
0 92 23 2 0 1 0 -4.171875 -41.078125 1 0 1
0 92 23 34 0 1 0 -3.921875 -41.078125 1 0 1
metal_metalwall074a
0 134 21 14 -1 0 0 -4.03125 24.9375 1 0 1
0 134 23 14 -1 0 0 -4.03125 24.921875 1 0 1
0 134 23 -18 -1 0 0 -4.28125 24.921875 1 0 1
metal_metalwall074a
0 134 21 14 -1 0 0 -4.03125 24.9375 1 0 1
0 134 23 -18 -1 0 0 -4.28125 24.921875 1 0 1
0 134 21 -18 -1 0 0 -4.28125 24.9375 1 0 1
metal_metalwall074a
0 136 21 -18 1 0 0 -4.28125 24.9375 1 0 1
0 136 23 -18 1 0 0 -4.28125 24.921875 1 0 1
0 136 23 14 1 0 0 -4.03125 24.921875 1 0 1
metal_metalwall074a
0 136 21 -18 1 0 0 -4.28125 24.9375 1 0 1
0 136 23 14 1 0 0 -4.03125 24.921875 1 0 1
0 136 21 14 1 0 0 -4.03125 24.9375 1 0 1
metal_metalwall074a
0 136 21 14 0 -1 0 -4.15625 -41.5 1 0 1
0 134 21 14 0 -1 0 -4.15625 -41.484375 1 0 1
0 134 21 -18 0 -1 0 -4.40625 -41.484375 1 0 1
metal_metalwall074a
0 136 21 14 0 -1 0 -4.15625 -41.5 1 0 1
0 134 21 -18 0 -1 0 -4.40625 -41.484375 1 0 1
0 136 21 -18 0 -1 0 -4.40625 -41.5 1 0 1
metal_metalwall074a
0 136 23 -18 0 1 0 -4.40625 -41.5 1 0 1
0 134 23 -18 0 1 0 -4.40625 -41.484375 1 0 1
0 134 23 14 0 1 0 -4.15625 -41.484375 1 0 1
metal_metalwall074a
0 136 23 -18 0 1 0 -4.40625 -41.5 1 0 1
0 134 23 14 0 1 0 -4.15625 -41.484375 1 0 1
0 136 23 14 0 1 0 -4.15625 -41.5 1 0 1
metal_metalwall074a
0 48 21 18 -1 0 0 -3.5 25.0625 1 0 1
0 48 21 57 -1 0 0 -3.195312 25.0625 1 0 1
0 48 23 57 -1 0 0 -3.195312 25.046875 1 0 1
metal_metalwall074a
0 48 21 18 -1 0 0 -3.5 25.0625 1 0 1
0 48 23 57 -1 0 0 -3.195312 25.046875 1 0 1
0 48 23 18 -1 0 0 -3.5 25.046875 1 0 1
metal_metalwall074a
0 50 21 57 1 0 0 -3.195312 25.0625 1 0 1
0 50 21 18 1 0 0 -3.5 25.0625 1 0 1
0 50 23 18 1 0 0 -3.5 25.046875 1 0 1
metal_metalwall074a
0 50 21 57 1 0 0 -3.195312 25.0625 1 0 1
0 50 23 18 1 0 0 -3.5 25.046875 1 0 1
0 50 23 57 1 0 0 -3.195312 25.046875 1 0 1
metal_metalwall074a
0 50 21 18 0 -1 0 -3.703125 -40.703125 1 0 1
0 50 21 57 0 -1 0 -3.398438 -40.703125 1 0 1
0 48 21 57 0 -1 0 -3.398438 -40.6875 1 0 1
metal_metalwall074a
0 50 21 18 0 -1 0 -3.703125 -40.703125 1 0 1
0 48 21 57 0 -1 0 -3.398438 -40.6875 1 0 1
0 48 21 18 0 -1 0 -3.703125 -40.6875 1 0 1
metal_metalwall074a
0 50 23 57 0 1 0 -3.398438 -40.703125 1 0 1
0 50 23 18 0 1 0 -3.703125 -40.703125 1 0 1
0 48 23 18 0 1 0 -3.703125 -40.6875 1 0 1
metal_metalwall074a
0 50 23 57 0 1 0 -3.398438 -40.703125 1 0 1
0 48 23 18 0 1 0 -3.703125 -40.6875 1 0 1
0 48 23 57 0 1 0 -3.398438 -40.6875 1 0 1
metal_metalwall074a
0 48 21 42 -0.447214 0 -0.894427 -23.9375 -40.875 1 0 1
0 48 23 42 -0.447214 0 -0.894427 -23.921875 -40.875 1 0 1
0 136 23 -2 -0.447214 0 -0.894427 -23.921875 -41.5625 1 0 1
metal_metalwall074a
0 48 21 42 -0.447214 0 -0.894427 -23.9375 -40.875 1 0 1
0 136 23 -2 -0.447214 0 -0.894427 -23.921875 -41.5625 1 0 1
0 136 21 -2 -0.447214 0 -0.894427 -23.9375 -41.5625 1 0 1
metal_metalwall074a
0 136 21 0 0.447214 0 0.894427 -23.9375 -41.5625 1 0 1
0 136 23 0 0.447214 0 0.894427 -23.921875 -41.5625 1 0 1
0 48 23 44 0.447214 0 0.894427 -23.921875 -40.875 1 0 1
metal_metalwall074a
0 136 21 0 0.447214 0 0.894427 -23.9375 -41.5625 1 0 1
0 48 23 44 0.447214 0 0.894427 -23.921875 -40.875 1 0 1
0 48 21 44 0.447214 0 0.894427 -23.9375 -40.875 1 0 1
metal_metalwall074a
0 48 21 44 -1 0 0 -3.796875 25.015625 1 0 1
0 48 23 44 -1 0 0 -3.796875 25 1 0 1
0 48 23 42 -1 0 0 -3.8125 25 1 0 1
metal_metalwall074a
0 48 21 44 -1 0 0 -3.796875 25.015625 1 0 1
0 48 23 42 -1 0 0 -3.8125 25 1 0 1
0 48 21 42 -1 0 0 -3.8125 25.015625 1 0 1
metal_metalwall074a
0 136 21 -2 1 0 0 -23.914062 -3.257812 1 0 1
0 136 23 -2 1 0 0 -23.898438 -3.257812 1 0 1
0 136 23 0 1 0 0 -23.898438 -3.242188 1 0 1
metal_metalwall074a
0 136 21 -2 1 0 0 -23.914062 -3.257812 1 0 1
0 136 23 0 1 0 0 -23.898438 -3.242188 1 0 1
0 136 21 0 1 0 0 -23.914062 -3.242188 1 0 1
metal_metalwall074a
0 136 21 0 0 -1 0 -4.203125 -41.421875 1 0 1
0 48 21 44 0 -1 0 -3.859375 -40.734375 1 0 1
0 48 21 42 0 -1 0 -3.875 -40.734375 1 0 1
metal_metalwall074a
0 136 21 0 0 -1 0 -4.203125 -41.421875 1 0 1
0 48 21 42 0 -1 0 -3.875 -40.734375 1 0 1
0 136 21 -2 0 -1 0 -4.21875 -41.421875 1 0 1
metal_metalwall074a
0 136 23 -2 0 1 0 -4.21875 -41.421875 1 0 1
0 48 23 42 0 1 0 -3.875 -40.734375 1 0 1
0 48 23 44 0 1 0 -3.859375 -40.734375 1 0 1
metal_metalwall074a
0 136 23 -2 0 1 0 -4.21875 -41.421875 1 0 1
0 48 23 44 0 1 0 -3.859375 -40.734375 1 0 1
0 136 23 0 0 1 0 -4.203125 -41.421875 1 0 1
metal_metalwall074a
0 48 21 16 0 -1 0 -3.578125 -40.875 1 0 1
0 48 21 26 0 -1 0 -3.5 -40.875 1 0 1
0 -80 21 90 0 -1 0 -3 -39.875 1 0 1
metal_metalwall074a
0 48 21 16 0 -1 0 -3.578125 -40.875 1 0 1
0 -80 21 90 0 -1 0 -3 -39.875 1 0 1
0 -80 21 80 0 -1 0 -3.078125 -39.875 1 0 1
metal_metalwall074a
0 48 23 26 0 1 0 -3.5 -40.875 1 0 1
0 48 23 16 0 1 0 -3.578125 -40.875 1 0 1
0 -80 23 80 0 1 0 -3.078125 -39.875 1 0 1
metal_metalwall074a
0 48 23 26 0 1 0 -3.5 -40.875 1 0 1
0 -80 23 80 0 1 0 -3.078125 -39.875 1 0 1
0 -80 23 90 0 1 0 -3 -39.875 1 0 1
metal_metalwall074a
0 -80 21 80 -0.447214 0 -0.894427 -23.9375 -39.890625 1 0 1
0 -80 23 80 -0.447214 0 -0.894427 -23.921875 -39.890625 1 0 1
0 48 23 16 -0.447214 0 -0.894427 -23.921875 -40.890625 1 0 1
metal_metalwall074a
0 -80 21 80 -0.447214 0 -0.894427 -23.9375 -39.890625 1 0 1
0 48 23 16 -0.447214 0 -0.894427 -23.921875 -40.890625 1 0 1
0 48 21 16 -0.447214 0 -0.894427 -23.9375 -40.890625 1 0 1
metal_metalwall074a
0 48 21 26 0.447214 0 0.894427 -23.9375 -40.890625 1 0 1
0 48 23 26 0.447214 0 0.894427 -23.921875 -40.890625 1 0 1
0 -80 23 90 0.447214 0 0.894427 -23.921875 -39.890625 1 0 1
metal_metalwall074a
0 48 21 26 0.447214 0 0.894427 -23.9375 -40.890625 1 0 1
0 -80 23 90 0.447214 0 0.894427 -23.921875 -39.890625 1 0 1
0 -80 21 90 0.447214 0 0.894427 -23.9375 -39.890625 1 0 1
end
