version 1
nodes
0 "root" -1
end
skeleton
time 0
0 0 0 0 0 0 0
end
triangles
phys
0 72 -61 -40 0 0 1 1 0 1 0 1
0 56 -61 -40 0 0 1 1 0 1 0 1
0 56 61 -40 0 0 1 1 0 1 0 1
phys
0 72 -61 -40 0 0 1 1 0 1 0 1
0 56 61 -40 0 0 1 1 0 1 0 1
0 72 61 -40 0 0 1 1 0 1 0 1
phys
0 56 -61 -24 0 0 1 1 0 1 0 1
0 72 -61 -24 0 0 1 1 0 1 0 1
0 72 61 -24 0 0 1 1 0 1 0 1
phys
0 56 -61 -24 0 0 1 1 0 1 0 1
0 72 61 -24 0 0 1 1 0 1 0 1
0 56 61 -24 0 0 1 1 0 1 0 1
phys
0 72 61 -40 0 0 1 1 0 1 0 1
0 56 61 -40 0 0 1 1 0 1 0 1
0 56 61 -24 0 0 1 1 0 1 0 1
phys
0 72 61 -40 0 0 1 1 0 1 0 1
0 56 61 -24 0 0 1 1 0 1 0 1
0 72 61 -24 0 0 1 1 0 1 0 1
phys
0 72 -61 -24 0 0 1 1 0 1 0 1
0 56 -61 -24 0 0 1 1 0 1 0 1
0 56 -61 -40 0 0 1 1 0 1 0 1
phys
0 72 -61 -24 0 0 1 1 0 1 0 1
0 56 -61 -40 0 0 1 1 0 1 0 1
0 72 -61 -40 0 0 1 1 0 1 0 1
phys
0 56 -61 -24 0 0 1 1 0 1 0 1
0 56 61 -24 0 0 1 1 0 1 0 1
0 56 61 -40 0 0 1 1 0 1 0 1
phys
0 56 -61 -24 0 0 1 1 0 1 0 1
0 56 61 -40 0 0 1 1 0 1 0 1
0 56 -61 -40 0 0 1 1 0 1 0 1
phys
0 72 -61 -40 0 0 1 1 0 1 0 1
0 72 61 -40 0 0 1 1 0 1 0 1
0 72 61 -24 0 0 1 1 0 1 0 1
phys
0 72 -61 -40 0 0 1 1 0 1 0 1
0 72 61 -24 0 0 1 1 0 1 0 1
0 72 -61 -24 0 0 1 1 0 1 0 1
phys
0 56 61 -8 0 0 1 2 0 1 0 1
0 56 61 -40 0 0 1 2 0 1 0 1
0 40 61 -40 0 0 1 2 0 1 0 1
phys
0 56 61 -8 0 0 1 2 0 1 0 1
0 40 61 -40 0 0 1 2 0 1 0 1
0 40 61 -8 0 0 1 2 0 1 0 1
phys
0 56 -61 -40 0 0 1 2 0 1 0 1
0 56 -61 -8 0 0 1 2 0 1 0 1
0 40 -61 -8 0 0 1 2 0 1 0 1
phys
0 56 -61 -40 0 0 1 2 0 1 0 1
0 40 -61 -8 0 0 1 2 0 1 0 1
0 40 -61 -40 0 0 1 2 0 1 0 1
phys
0 40 -61 -40 0 0 1 2 0 1 0 1
0 40 -61 -8 0 0 1 2 0 1 0 1
0 40 61 -8 0 0 1 2 0 1 0 1
phys
0 40 -61 -40 0 0 1 2 0 1 0 1
0 40 61 -8 0 0 1 2 0 1 0 1
0 40 61 -40 0 0 1 2 0 1 0 1
phys
0 56 -61 -8 0 0 1 2 0 1 0 1
0 56 -61 -40 0 0 1 2 0 1 0 1
0 56 61 -40 0 0 1 2 0 1 0 1
phys
0 56 -61 -8 0 0 1 2 0 1 0 1
0 56 61 -40 0 0 1 2 0 1 0 1
0 56 61 -8 0 0 1 2 0 1 0 1
phys
0 56 -61 -40 0 0 1 2 0 1 0 1
0 40 -61 -40 0 0 1 2 0 1 0 1
0 40 61 -40 0 0 1 2 0 1 0 1
phys
0 56 -61 -40 0 0 1 2 0 1 0 1
0 40 61 -40 0 0 1 2 0 1 0 1
0 56 61 -40 0 0 1 2 0 1 0 1
phys
0 40 -61 -8 0 0 1 2 0 1 0 1
0 56 -61 -8 0 0 1 2 0 1 0 1
0 56 61 -8 0 0 1 2 0 1 0 1
phys
0 40 -61 -8 0 0 1 2 0 1 0 1
0 56 61 -8 0 0 1 2 0 1 0 1
0 40 61 -8 0 0 1 2 0 1 0 1
phys
0 72 65 40 0 0 1 3 0 1 0 1
0 72 71 40 0 0 1 3 0 1 0 1
0 72 69 42 0 0 1 3 0 1 0 1
phys
0 72 65 40 0 0 1 3 0 1 0 1
0 72 69 42 0 0 1 3 0 1 0 1
0 72 67 42 0 0 1 3 0 1 0 1
phys
0 72 65 40 0 0 1 3 0 1 0 1
0 72 67 42 0 0 1 3 0 1 0 1
0 72 65 40.001 0 0 1 3 0 1 0 1
phys
0 -8 71 40 0 0 1 3 0 1 0 1
0 72 71 40 0 0 1 3 0 1 0 1
0 72 71 40 0 0 1 3 0 1 0 1
phys
0 -8 71 40 0 0 1 3 0 1 0 1
0 72 71 40 0 0 1 3 0 1 0 1
0 72 65 40 0 0 1 3 0 1 0 1
phys
0 -8 71 40 0 0 1 3 0 1 0 1
0 72 65 40 0 0 1 3 0 1 0 1
0 -8 65 40 0 0 1 3 0 1 0 1
phys
0 -8 71 77 0 0 1 3 0 1 0 1
0 72 71 40 0 0 1 3 0 1 0 1
0 72 71 40 0 0 1 3 0 1 0 1
phys
0 -8 71 77 0 0 1 3 0 1 0 1
0 72 71 40 0 0 1 3 0 1 0 1
0 72 69 42 0 0 1 3 0 1 0 1
phys
0 -8 71 77 0 0 1 3 0 1 0 1
0 72 69 42 0 0 1 3 0 1 0 1
0 -8 69 79 0 0 1 3 0 1 0 1
phys
0 -8 65 77.001 0 0 1 3 0 1 0 1
0 72 65 40.001 0 0 1 3 0 1 0 1
0 72 67 42 0 0 1 3 0 1 0 1
phys
0 -8 65 77.001 0 0 1 3 0 1 0 1
0 72 67 42 0 0 1 3 0 1 0 1
0 -8 67 79 0 0 1 3 0 1 0 1
phys
0 -8 67 79 0 0 1 3 0 1 0 1
0 72 67 42 0 0 1 3 0 1 0 1
0 72 69 42 0 0 1 3 0 1 0 1
phys
0 -8 67 79 0 0 1 3 0 1 0 1
0 72 69 42 0 0 1 3 0 1 0 1
0 -8 69 79 0 0 1 3 0 1 0 1
phys
0 72 71 40 0 0 1 3 0 1 0 1
0 72 71 40 0 0 1 3 0 1 0 1
0 -8 71 40 0 0 1 3 0 1 0 1
phys
0 72 71 40 0 0 1 3 0 1 0 1
0 -8 71 40 0 0 1 3 0 1 0 1
0 -8 71 77 0 0 1 3 0 1 0 1
phys
0 72 65 40 0 0 1 3 0 1 0 1
0 72 65 40.001 0 0 1 3 0 1 0 1
0 -8 65 77.001 0 0 1 3 0 1 0 1
phys
0 72 65 40 0 0 1 3 0 1 0 1
0 -8 65 77.001 0 0 1 3 0 1 0 1
0 -8 65 40 0 0 1 3 0 1 0 1
phys
0 -8 69 79 0 0 1 3 0 1 0 1
0 -8 71 77 0 0 1 3 0 1 0 1
0 -8 71 40 0 0 1 3 0 1 0 1
phys
0 -8 69 79 0 0 1 3 0 1 0 1
0 -8 71 40 0 0 1 3 0 1 0 1
0 -8 65 40 0 0 1 3 0 1 0 1
phys
0 -8 69 79 0 0 1 3 0 1 0 1
0 -8 65 40 0 0 1 3 0 1 0 1
0 -8 65 77.001 0 0 1 3 0 1 0 1
phys
0 -8 69 79 0 0 1 3 0 1 0 1
0 -8 65 77.001 0 0 1 3 0 1 0 1
0 -8 67 79 0 0 1 3 0 1 0 1
phys
0 8 -61 24 0 0 1 4 0 1 0 1
0 8 61 24 0 0 1 4 0 1 0 1
0 8 61 -40 0 0 1 4 0 1 0 1
phys
0 8 -61 24 0 0 1 4 0 1 0 1
0 8 61 -40 0 0 1 4 0 1 0 1
0 8 -61 -40 0 0 1 4 0 1 0 1
phys
0 24 -61 -40 0 0 1 4 0 1 0 1
0 24 61 -40 0 0 1 4 0 1 0 1
0 24 61 24 0 0 1 4 0 1 0 1
phys
0 24 -61 -40 0 0 1 4 0 1 0 1
0 24 61 24 0 0 1 4 0 1 0 1
0 24 -61 24 0 0 1 4 0 1 0 1
phys
0 8 -61 -40 0 0 1 4 0 1 0 1
0 8 61 -40 0 0 1 4 0 1 0 1
0 24 61 -40 0 0 1 4 0 1 0 1
phys
0 8 -61 -40 0 0 1 4 0 1 0 1
0 24 61 -40 0 0 1 4 0 1 0 1
0 24 -61 -40 0 0 1 4 0 1 0 1
phys
0 24 -61 24 0 0 1 4 0 1 0 1
0 24 61 24 0 0 1 4 0 1 0 1
0 8 61 24 0 0 1 4 0 1 0 1
phys
0 24 -61 24 0 0 1 4 0 1 0 1
0 8 61 24 0 0 1 4 0 1 0 1
0 8 -61 24 0 0 1 4 0 1 0 1
phys
0 24 61 24 0 0 1 4 0 1 0 1
0 24 61 -40 0 0 1 4 0 1 0 1
0 8 61 -40 0 0 1 4 0 1 0 1
phys
0 24 61 24 0 0 1 4 0 1 0 1
0 8 61 -40 0 0 1 4 0 1 0 1
0 8 61 24 0 0 1 4 0 1 0 1
phys
0 24 -61 -40 0 0 1 4 0 1 0 1
0 24 -61 24 0 0 1 4 0 1 0 1
0 8 -61 24 0 0 1 4 0 1 0 1
phys
0 24 -61 -40 0 0 1 4 0 1 0 1
0 8 -61 24 0 0 1 4 0 1 0 1
0 8 -61 -40 0 0 1 4 0 1 0 1
phys
0 72 -69 42 0 0 1 5 0 1 0 1
0 72 -67 42 0 0 1 5 0 1 0 1
0 -8 -67 79 0 0 1 5 0 1 0 1
phys
0 72 -69 42 0 0 1 5 0 1 0 1
0 -8 -67 79 0 0 1 5 0 1 0 1
0 -8 -69 79 0 0 1 5 0 1 0 1
phys
0 -8 -65 40 0 0 1 5 0 1 0 1
0 -8 -65 76.995 0 0 1 5 0 1 0 1
0 71.989189 -65 40 0 0 1 5 0 1 0 1
phys
0 72 -71 40 0 0 1 5 0 1 0 1
0 72 -71 40 0 0 1 5 0 1 0 1
0 -8 -71 77 0 0 1 5 0 1 0 1
phys
0 72 -71 40 0 0 1 5 0 1 0 1
0 -8 -71 77 0 0 1 5 0 1 0 1
0 -8 -71 40 0 0 1 5 0 1 0 1
phys
0 -8 -71 40 0 0 1 5 0 1 0 1
0 -8 -71 77 0 0 1 5 0 1 0 1
0 -8 -69 79 0 0 1 5 0 1 0 1
phys
0 -8 -71 40 0 0 1 5 0 1 0 1
0 -8 -69 79 0 0 1 5 0 1 0 1
0 -8 -67 79 0 0 1 5 0 1 0 1
phys
0 -8 -71 40 0 0 1 5 0 1 0 1
0 -8 -67 79 0 0 1 5 0 1 0 1
0 -8 -65 76.995 0 0 1 5 0 1 0 1
phys
0 -8 -71 40 0 0 1 5 0 1 0 1
0 -8 -65 76.995 0 0 1 5 0 1 0 1
0 -8 -65 40 0 0 1 5 0 1 0 1
phys
0 72 -65.004988 40 0 0 1 5 0 1 0 1
0 72 -71 40 0 0 1 5 0 1 0 1
0 72 -71 40 0 0 1 5 0 1 0 1
phys
0 72 -65.004988 40 0 0 1 5 0 1 0 1
0 72 -71 40 0 0 1 5 0 1 0 1
0 72 -69 42 0 0 1 5 0 1 0 1
phys
0 72 -65.004988 40 0 0 1 5 0 1 0 1
0 72 -69 42 0 0 1 5 0 1 0 1
0 72 -67 42 0 0 1 5 0 1 0 1
phys
0 -8 -65 40 0 0 1 5 0 1 0 1
0 71.989189 -65 40 0 0 1 5 0 1 0 1
0 72 -65.004988 40 0 0 1 5 0 1 0 1
phys
0 -8 -65 40 0 0 1 5 0 1 0 1
0 72 -65.004988 40 0 0 1 5 0 1 0 1
0 72 -71 40 0 0 1 5 0 1 0 1
phys
0 -8 -65 40 0 0 1 5 0 1 0 1
0 72 -71 40 0 0 1 5 0 1 0 1
0 -8 -71 40 0 0 1 5 0 1 0 1
phys
0 -8 -67 79 0 0 1 5 0 1 0 1
0 72 -67 42 0 0 1 5 0 1 0 1
0 72 -65.004988 40 0 0 1 5 0 1 0 1
phys
0 -8 -67 79 0 0 1 5 0 1 0 1
0 72 -65.004988 40 0 0 1 5 0 1 0 1
0 71.989189 -65 40 0 0 1 5 0 1 0 1
phys
0 -8 -67 79 0 0 1 5 0 1 0 1
0 71.989189 -65 40 0 0 1 5 0 1 0 1
0 -8 -65 76.995 0 0 1 5 0 1 0 1
phys
0 -8 -71 77 0 0 1 5 0 1 0 1
0 72 -71 40 0 0 1 5 0 1 0 1
0 72 -69 42 0 0 1 5 0 1 0 1
phys
0 -8 -71 77 0 0 1 5 0 1 0 1
0 72 -69 42 0 0 1 5 0 1 0 1
0 -8 -69 79 0 0 1 5 0 1 0 1
phys
0 8 61 40 0 0 1 6 0 1 0 1
0 8 61 -40 0 0 1 6 0 1 0 1
0 -8 61 -40 0 0 1 6 0 1 0 1
phys
0 8 61 40 0 0 1 6 0 1 0 1
0 -8 61 -40 0 0 1 6 0 1 0 1
0 -8 61 40 0 0 1 6 0 1 0 1
phys
0 8 -61 -40 0 0 1 6 0 1 0 1
0 8 -61 40 0 0 1 6 0 1 0 1
0 -8 -61 40 0 0 1 6 0 1 0 1
phys
0 8 -61 -40 0 0 1 6 0 1 0 1
0 -8 -61 40 0 0 1 6 0 1 0 1
0 -8 -61 -40 0 0 1 6 0 1 0 1
phys
0 -8 -61 -40 0 0 1 6 0 1 0 1
0 -8 -61 40 0 0 1 6 0 1 0 1
0 -8 61 40 0 0 1 6 0 1 0 1
phys
0 -8 -61 -40 0 0 1 6 0 1 0 1
0 -8 61 40 0 0 1 6 0 1 0 1
0 -8 61 -40 0 0 1 6 0 1 0 1
phys
0 8 -61 40 0 0 1 6 0 1 0 1
0 8 -61 -40 0 0 1 6 0 1 0 1
0 8 61 -40 0 0 1 6 0 1 0 1
phys
0 8 -61 40 0 0 1 6 0 1 0 1
0 8 61 -40 0 0 1 6 0 1 0 1
0 8 61 40 0 0 1 6 0 1 0 1
phys
0 8 -61 -40 0 0 1 6 0 1 0 1
0 -8 -61 -40 0 0 1 6 0 1 0 1
0 -8 61 -40 0 0 1 6 0 1 0 1
phys
0 8 -61 -40 0 0 1 6 0 1 0 1
0 -8 61 -40 0 0 1 6 0 1 0 1
0 8 61 -40 0 0 1 6 0 1 0 1
phys
0 -8 -61 40 0 0 1 6 0 1 0 1
0 8 -61 40 0 0 1 6 0 1 0 1
0 8 61 40 0 0 1 6 0 1 0 1
phys
0 -8 -61 40 0 0 1 6 0 1 0 1
0 8 61 40 0 0 1 6 0 1 0 1
0 -8 61 40 0 0 1 6 0 1 0 1
phys
0 72 75 40 0 0 1 7 0 1 0 1
0 72 75 -35 0 0 1 7 0 1 0 1
0 -8 75 -35 0 0 1 7 0 1 0 1
phys
0 72 75 40 0 0 1 7 0 1 0 1
0 -8 75 -35 0 0 1 7 0 1 0 1
0 -8 75 40 0 0 1 7 0 1 0 1
phys
0 72 61 -35 0 0 1 7 0 1 0 1
0 72 61 40 0 0 1 7 0 1 0 1
0 -8 61 40 0 0 1 7 0 1 0 1
phys
0 72 61 -35 0 0 1 7 0 1 0 1
0 -8 61 40 0 0 1 7 0 1 0 1
0 -8 61 -35 0 0 1 7 0 1 0 1
phys
0 -8 61 -35 0 0 1 7 0 1 0 1
0 -8 61 40 0 0 1 7 0 1 0 1
0 -8 75 40 0 0 1 7 0 1 0 1
phys
0 -8 61 -35 0 0 1 7 0 1 0 1
0 -8 75 40 0 0 1 7 0 1 0 1
0 -8 75 -35 0 0 1 7 0 1 0 1
phys
0 72 61 40 0 0 1 7 0 1 0 1
0 72 61 -35 0 0 1 7 0 1 0 1
0 72 75 -35 0 0 1 7 0 1 0 1
phys
0 72 61 40 0 0 1 7 0 1 0 1
0 72 75 -35 0 0 1 7 0 1 0 1
0 72 75 40 0 0 1 7 0 1 0 1
phys
0 72 61 -35 0 0 1 7 0 1 0 1
0 -8 61 -35 0 0 1 7 0 1 0 1
0 -8 75 -35 0 0 1 7 0 1 0 1
phys
0 72 61 -35 0 0 1 7 0 1 0 1
0 -8 75 -35 0 0 1 7 0 1 0 1
0 72 75 -35 0 0 1 7 0 1 0 1
phys
0 -8 61 40 0 0 1 7 0 1 0 1
0 72 61 40 0 0 1 7 0 1 0 1
0 72 75 40 0 0 1 7 0 1 0 1
phys
0 -8 61 40 0 0 1 7 0 1 0 1
0 72 75 40 0 0 1 7 0 1 0 1
0 -8 75 40 0 0 1 7 0 1 0 1
phys
0 40 61 8 0 0 1 8 0 1 0 1
0 40 61 -40 0 0 1 8 0 1 0 1
0 24 61 -40 0 0 1 8 0 1 0 1
phys
0 40 61 8 0 0 1 8 0 1 0 1
0 24 61 -40 0 0 1 8 0 1 0 1
0 24 61 8 0 0 1 8 0 1 0 1
phys
0 40 -61 -40 0 0 1 8 0 1 0 1
0 40 -61 8 0 0 1 8 0 1 0 1
0 24 -61 8 0 0 1 8 0 1 0 1
phys
0 40 -61 -40 0 0 1 8 0 1 0 1
0 24 -61 8 0 0 1 8 0 1 0 1
0 24 -61 -40 0 0 1 8 0 1 0 1
phys
0 24 -61 -40 0 0 1 8 0 1 0 1
0 24 -61 8 0 0 1 8 0 1 0 1
0 24 61 8 0 0 1 8 0 1 0 1
phys
0 24 -61 -40 0 0 1 8 0 1 0 1
0 24 61 8 0 0 1 8 0 1 0 1
0 24 61 -40 0 0 1 8 0 1 0 1
phys
0 40 -61 8 0 0 1 8 0 1 0 1
0 40 -61 -40 0 0 1 8 0 1 0 1
0 40 61 -40 0 0 1 8 0 1 0 1
phys
0 40 -61 8 0 0 1 8 0 1 0 1
0 40 61 -40 0 0 1 8 0 1 0 1
0 40 61 8 0 0 1 8 0 1 0 1
phys
0 40 -61 -40 0 0 1 8 0 1 0 1
0 24 -61 -40 0 0 1 8 0 1 0 1
0 24 61 -40 0 0 1 8 0 1 0 1
phys
0 40 -61 -40 0 0 1 8 0 1 0 1
0 24 61 -40 0 0 1 8 0 1 0 1
0 40 61 -40 0 0 1 8 0 1 0 1
phys
0 24 -61 8 0 0 1 8 0 1 0 1
0 40 -61 8 0 0 1 8 0 1 0 1
0 40 61 8 0 0 1 8 0 1 0 1
phys
0 24 -61 8 0 0 1 8 0 1 0 1
0 40 61 8 0 0 1 8 0 1 0 1
0 24 61 8 0 0 1 8 0 1 0 1
phys
0 72 -61 40 0 0 1 9 0 1 0 1
0 72 -61 -35 0 0 1 9 0 1 0 1
0 -8 -61 -35 0 0 1 9 0 1 0 1
phys
0 72 -61 40 0 0 1 9 0 1 0 1
0 -8 -61 -35 0 0 1 9 0 1 0 1
0 -8 -61 40 0 0 1 9 0 1 0 1
phys
0 72 -75 -35 0 0 1 9 0 1 0 1
0 72 -75 40 0 0 1 9 0 1 0 1
0 -8 -75 40 0 0 1 9 0 1 0 1
phys
0 72 -75 -35 0 0 1 9 0 1 0 1
0 -8 -75 40 0 0 1 9 0 1 0 1
0 -8 -75 -35 0 0 1 9 0 1 0 1
phys
0 -8 -75 -35 0 0 1 9 0 1 0 1
0 -8 -75 40 0 0 1 9 0 1 0 1
0 -8 -61 40 0 0 1 9 0 1 0 1
phys
0 -8 -75 -35 0 0 1 9 0 1 0 1
0 -8 -61 40 0 0 1 9 0 1 0 1
0 -8 -61 -35 0 0 1 9 0 1 0 1
phys
0 72 -75 40 0 0 1 9 0 1 0 1
0 72 -75 -35 0 0 1 9 0 1 0 1
0 72 -61 -35 0 0 1 9 0 1 0 1
phys
0 72 -75 40 0 0 1 9 0 1 0 1
0 72 -61 -35 0 0 1 9 0 1 0 1
0 72 -61 40 0 0 1 9 0 1 0 1
phys
0 72 -75 -35 0 0 1 9 0 1 0 1
0 -8 -75 -35 0 0 1 9 0 1 0 1
0 -8 -61 -35 0 0 1 9 0 1 0 1
phys
0 72 -75 -35 0 0 1 9 0 1 0 1
0 -8 -61 -35 0 0 1 9 0 1 0 1
0 72 -61 -35 0 0 1 9 0 1 0 1
phys
0 -8 -75 40 0 0 1 9 0 1 0 1
0 72 -75 40 0 0 1 9 0 1 0 1
0 72 -61 40 0 0 1 9 0 1 0 1
phys
0 -8 -75 40 0 0 1 9 0 1 0 1
0 72 -61 40 0 0 1 9 0 1 0 1
0 -8 -61 40 0 0 1 9 0 1 0 1
end
