version 1
nodes
0 "root" -1
end
skeleton
time 0
0 0 0 0 0 0 0
end
triangles
phys
0 228 -304 53 0 0 1 1 0 1 0 1
0 229 -304 53 0 0 1 1 0 1 0 1
0 229 -208 53 0 0 1 1 0 1 0 1
phys
0 228 -304 53 0 0 1 1 0 1 0 1
0 229 -208 53 0 0 1 1 0 1 0 1
0 228 -208 53 0 0 1 1 0 1 0 1
phys
0 228 -208 -43 0 0 1 1 0 1 0 1
0 228 -208 53 0 0 1 1 0 1 0 1
0 229 -208 53 0 0 1 1 0 1 0 1
phys
0 228 -208 -43 0 0 1 1 0 1 0 1
0 229 -208 53 0 0 1 1 0 1 0 1
0 229 -208 -43 0 0 1 1 0 1 0 1
phys
0 229 -304 -43 0 0 1 1 0 1 0 1
0 229 -304 53 0 0 1 1 0 1 0 1
0 228 -304 53 0 0 1 1 0 1 0 1
phys
0 229 -304 -43 0 0 1 1 0 1 0 1
0 228 -304 53 0 0 1 1 0 1 0 1
0 228 -304 -43 0 0 1 1 0 1 0 1
phys
0 228 -304 -43 0 0 1 1 0 1 0 1
0 228 -304 53 0 0 1 1 0 1 0 1
0 228 -208 53 0 0 1 1 0 1 0 1
phys
0 228 -304 -43 0 0 1 1 0 1 0 1
0 228 -208 53 0 0 1 1 0 1 0 1
0 228 -208 -43 0 0 1 1 0 1 0 1
phys
0 229 -208 -43 0 0 1 1 0 1 0 1
0 229 -208 53 0 0 1 1 0 1 0 1
0 229 -304 53 0 0 1 1 0 1 0 1
phys
0 229 -208 -43 0 0 1 1 0 1 0 1
0 229 -304 53 0 0 1 1 0 1 0 1
0 229 -304 -43 0 0 1 1 0 1 0 1
phys
0 229 -304 -43 0 0 1 1 0 1 0 1
0 228 -304 -43 0 0 1 1 0 1 0 1
0 228 -208 -43 0 0 1 1 0 1 0 1
phys
0 229 -304 -43 0 0 1 1 0 1 0 1
0 228 -208 -43 0 0 1 1 0 1 0 1
0 229 -208 -43 0 0 1 1 0 1 0 1
phys
0 229 -38 -58 0 0 1 2 0 1 0 1
0 229 -4 -58 0 0 1 2 0 1 0 1
0 229 -2 -60 0 0 1 2 0 1 0 1
phys
0 229 -38 -58 0 0 1 2 0 1 0 1
0 229 -2 -60 0 0 1 2 0 1 0 1
0 229 -40 -60 0 0 1 2 0 1 0 1
phys
0 239 -40 -60 0 0 1 2 0 1 0 1
0 239 -2 -60 0 0 1 2 0 1 0 1
0 239 -4 -58 0 0 1 2 0 1 0 1
phys
0 239 -40 -60 0 0 1 2 0 1 0 1
0 239 -4 -58 0 0 1 2 0 1 0 1
0 239 -38 -58 0 0 1 2 0 1 0 1
phys
0 229 -40 -60 0 0 1 2 0 1 0 1
0 229 -2 -60 0 0 1 2 0 1 0 1
0 239 -2 -60 0 0 1 2 0 1 0 1
phys
0 229 -40 -60 0 0 1 2 0 1 0 1
0 239 -2 -60 0 0 1 2 0 1 0 1
0 239 -40 -60 0 0 1 2 0 1 0 1
phys
0 239 -38 -58 0 0 1 2 0 1 0 1
0 239 -4 -58 0 0 1 2 0 1 0 1
0 229 -4 -58 0 0 1 2 0 1 0 1
phys
0 239 -38 -58 0 0 1 2 0 1 0 1
0 229 -4 -58 0 0 1 2 0 1 0 1
0 229 -38 -58 0 0 1 2 0 1 0 1
phys
0 239 -40 -60 0 0 1 2 0 1 0 1
0 239 -38 -58 0 0 1 2 0 1 0 1
0 229 -38 -58 0 0 1 2 0 1 0 1
phys
0 239 -40 -60 0 0 1 2 0 1 0 1
0 229 -38 -58 0 0 1 2 0 1 0 1
0 229 -40 -60 0 0 1 2 0 1 0 1
phys
0 239 -4 -58 0 0 1 2 0 1 0 1
0 239 -2 -60 0 0 1 2 0 1 0 1
0 229 -2 -60 0 0 1 2 0 1 0 1
phys
0 239 -4 -58 0 0 1 2 0 1 0 1
0 229 -2 -60 0 0 1 2 0 1 0 1
0 229 -4 -58 0 0 1 2 0 1 0 1
phys
0 229 -130 16 0 0 1 3 0 1 0 1
0 229 -2 16 0 0 1 3 0 1 0 1
0 229 -4 14 0 0 1 3 0 1 0 1
phys
0 229 -130 16 0 0 1 3 0 1 0 1
0 229 -4 14 0 0 1 3 0 1 0 1
0 229 -128 14 0 0 1 3 0 1 0 1
phys
0 239 -128 14 0 0 1 3 0 1 0 1
0 239 -4 14 0 0 1 3 0 1 0 1
0 239 -2 16 0 0 1 3 0 1 0 1
phys
0 239 -128 14 0 0 1 3 0 1 0 1
0 239 -2 16 0 0 1 3 0 1 0 1
0 239 -130 16 0 0 1 3 0 1 0 1
phys
0 229 -128 14 0 0 1 3 0 1 0 1
0 229 -4 14 0 0 1 3 0 1 0 1
0 239 -4 14 0 0 1 3 0 1 0 1
phys
0 229 -128 14 0 0 1 3 0 1 0 1
0 239 -4 14 0 0 1 3 0 1 0 1
0 239 -128 14 0 0 1 3 0 1 0 1
phys
0 239 -130 16 0 0 1 3 0 1 0 1
0 239 -2 16 0 0 1 3 0 1 0 1
0 229 -2 16 0 0 1 3 0 1 0 1
phys
0 239 -130 16 0 0 1 3 0 1 0 1
0 229 -2 16 0 0 1 3 0 1 0 1
0 229 -130 16 0 0 1 3 0 1 0 1
phys
0 229 -4 14 0 0 1 3 0 1 0 1
0 229 -2 16 0 0 1 3 0 1 0 1
0 239 -2 16 0 0 1 3 0 1 0 1
phys
0 229 -4 14 0 0 1 3 0 1 0 1
0 239 -2 16 0 0 1 3 0 1 0 1
0 239 -4 14 0 0 1 3 0 1 0 1
phys
0 229 -130 16 0 0 1 3 0 1 0 1
0 229 -128 14 0 0 1 3 0 1 0 1
0 239 -128 14 0 0 1 3 0 1 0 1
phys
0 229 -130 16 0 0 1 3 0 1 0 1
0 239 -128 14 0 0 1 3 0 1 0 1
0 239 -130 16 0 0 1 3 0 1 0 1
phys
0 239 -130 -60 0 0 1 4 0 1 0 1
0 239 -130 15.999 0 0 1 4 0 1 0 1
0 229 -130 15.999 0 0 1 4 0 1 0 1
phys
0 239 -130 -60 0 0 1 4 0 1 0 1
0 229 -130 15.999 0 0 1 4 0 1 0 1
0 229 -130 -60 0 0 1 4 0 1 0 1
phys
0 229 -130 -60 0 0 1 4 0 1 0 1
0 229 -130 15.999 0 0 1 4 0 1 0 1
0 229 -128 13.999 0 0 1 4 0 1 0 1
phys
0 229 -130 -60 0 0 1 4 0 1 0 1
0 229 -128 13.999 0 0 1 4 0 1 0 1
0 229 -128 -58 0 0 1 4 0 1 0 1
phys
0 239 -130 15.999 0 0 1 4 0 1 0 1
0 239 -130 -60 0 0 1 4 0 1 0 1
0 239 -128 -58 0 0 1 4 0 1 0 1
phys
0 239 -130 15.999 0 0 1 4 0 1 0 1
0 239 -128 -58 0 0 1 4 0 1 0 1
0 239 -128 13.999 0 0 1 4 0 1 0 1
phys
0 229 -130 15.999 0 0 1 4 0 1 0 1
0 239 -130 15.999 0 0 1 4 0 1 0 1
0 239 -128 13.999 0 0 1 4 0 1 0 1
phys
0 229 -130 15.999 0 0 1 4 0 1 0 1
0 239 -128 13.999 0 0 1 4 0 1 0 1
0 229 -128 13.999 0 0 1 4 0 1 0 1
phys
0 239 -130 -60 0 0 1 4 0 1 0 1
0 229 -130 -60 0 0 1 4 0 1 0 1
0 229 -128 -58 0 0 1 4 0 1 0 1
phys
0 239 -130 -60 0 0 1 4 0 1 0 1
0 229 -128 -58 0 0 1 4 0 1 0 1
0 239 -128 -58 0 0 1 4 0 1 0 1
phys
0 239 -128 13.999 0 0 1 4 0 1 0 1
0 239 -128 -58 0 0 1 4 0 1 0 1
0 229 -128 -58 0 0 1 4 0 1 0 1
phys
0 239 -128 13.999 0 0 1 4 0 1 0 1
0 229 -128 -58 0 0 1 4 0 1 0 1
0 229 -128 13.999 0 0 1 4 0 1 0 1
phys
0 235 -94 14 0 0 1 5 0 1 0 1
0 235 -94 -58 0 0 1 5 0 1 0 1
0 234 -94 -58 0 0 1 5 0 1 0 1
phys
0 235 -94 14 0 0 1 5 0 1 0 1
0 234 -94 -58 0 0 1 5 0 1 0 1
0 234 -94 14 0 0 1 5 0 1 0 1
phys
0 235 -128 -58 0 0 1 5 0 1 0 1
0 235 -128 14 0 0 1 5 0 1 0 1
0 234 -128 14 0 0 1 5 0 1 0 1
phys
0 235 -128 -58 0 0 1 5 0 1 0 1
0 234 -128 14 0 0 1 5 0 1 0 1
0 234 -128 -58 0 0 1 5 0 1 0 1
phys
0 234 -128 -58 0 0 1 5 0 1 0 1
0 234 -128 14 0 0 1 5 0 1 0 1
0 234 -94 14 0 0 1 5 0 1 0 1
phys
0 234 -128 -58 0 0 1 5 0 1 0 1
0 234 -94 14 0 0 1 5 0 1 0 1
0 234 -94 -58 0 0 1 5 0 1 0 1
phys
0 235 -128 14 0 0 1 5 0 1 0 1
0 235 -128 -58 0 0 1 5 0 1 0 1
0 235 -94 -58 0 0 1 5 0 1 0 1
phys
0 235 -128 14 0 0 1 5 0 1 0 1
0 235 -94 -58 0 0 1 5 0 1 0 1
0 235 -94 14 0 0 1 5 0 1 0 1
phys
0 235 -128 -58 0 0 1 5 0 1 0 1
0 234 -128 -58 0 0 1 5 0 1 0 1
0 234 -94 -58 0 0 1 5 0 1 0 1
phys
0 235 -128 -58 0 0 1 5 0 1 0 1
0 234 -94 -58 0 0 1 5 0 1 0 1
0 235 -94 -58 0 0 1 5 0 1 0 1
phys
0 234 -128 14 0 0 1 5 0 1 0 1
0 235 -128 14 0 0 1 5 0 1 0 1
0 235 -94 14 0 0 1 5 0 1 0 1
phys
0 234 -128 14 0 0 1 5 0 1 0 1
0 235 -94 14 0 0 1 5 0 1 0 1
0 234 -94 14 0 0 1 5 0 1 0 1
phys
0 229 -208 -43 0 0 1 6 0 1 0 1
0 229 -206 -45 0 0 1 6 0 1 0 1
0 226 -206 -45 0 0 1 6 0 1 0 1
phys
0 229 -208 -43 0 0 1 6 0 1 0 1
0 226 -206 -45 0 0 1 6 0 1 0 1
0 226 -208 -43 0 0 1 6 0 1 0 1
phys
0 226 -304 -43 0 0 1 6 0 1 0 1
0 226 -208 -43 0 0 1 6 0 1 0 1
0 226 -206 -45 0 0 1 6 0 1 0 1
phys
0 226 -304 -43 0 0 1 6 0 1 0 1
0 226 -206 -45 0 0 1 6 0 1 0 1
0 226 -306 -45 0 0 1 6 0 1 0 1
phys
0 229 -306 -45 0 0 1 6 0 1 0 1
0 229 -206 -45 0 0 1 6 0 1 0 1
0 229 -208 -43 0 0 1 6 0 1 0 1
phys
0 229 -306 -45 0 0 1 6 0 1 0 1
0 229 -208 -43 0 0 1 6 0 1 0 1
0 229 -304 -43 0 0 1 6 0 1 0 1
phys
0 226 -306 -45 0 0 1 6 0 1 0 1
0 226 -206 -45 0 0 1 6 0 1 0 1
0 229 -206 -45 0 0 1 6 0 1 0 1
phys
0 226 -306 -45 0 0 1 6 0 1 0 1
0 229 -206 -45 0 0 1 6 0 1 0 1
0 229 -306 -45 0 0 1 6 0 1 0 1
phys
0 229 -304 -43 0 0 1 6 0 1 0 1
0 229 -208 -43 0 0 1 6 0 1 0 1
0 226 -208 -43 0 0 1 6 0 1 0 1
phys
0 229 -304 -43 0 0 1 6 0 1 0 1
0 226 -208 -43 0 0 1 6 0 1 0 1
0 226 -304 -43 0 0 1 6 0 1 0 1
phys
0 229 -306 -45 0 0 1 6 0 1 0 1
0 229 -304 -43 0 0 1 6 0 1 0 1
0 226 -304 -43 0 0 1 6 0 1 0 1
phys
0 229 -306 -45 0 0 1 6 0 1 0 1
0 226 -304 -43 0 0 1 6 0 1 0 1
0 226 -306 -45 0 0 1 6 0 1 0 1
phys
0 239 -38 14 0 0 1 7 0 1 0 1
0 239 -38 -26 0 0 1 7 0 1 0 1
0 229 -38 -26 0 0 1 7 0 1 0 1
phys
0 239 -38 14 0 0 1 7 0 1 0 1
0 229 -38 -26 0 0 1 7 0 1 0 1
0 229 -38 14 0 0 1 7 0 1 0 1
phys
0 239 -40 -26 0 0 1 7 0 1 0 1
0 239 -40 14 0 0 1 7 0 1 0 1
0 229 -40 14 0 0 1 7 0 1 0 1
phys
0 239 -40 -26 0 0 1 7 0 1 0 1
0 229 -40 14 0 0 1 7 0 1 0 1
0 229 -40 -26 0 0 1 7 0 1 0 1
phys
0 229 -40 -26 0 0 1 7 0 1 0 1
0 229 -40 14 0 0 1 7 0 1 0 1
0 229 -38 14 0 0 1 7 0 1 0 1
phys
0 229 -40 -26 0 0 1 7 0 1 0 1
0 229 -38 14 0 0 1 7 0 1 0 1
0 229 -38 -26 0 0 1 7 0 1 0 1
phys
0 239 -40 14 0 0 1 7 0 1 0 1
0 239 -40 -26 0 0 1 7 0 1 0 1
0 239 -38 -26 0 0 1 7 0 1 0 1
phys
0 239 -40 14 0 0 1 7 0 1 0 1
0 239 -38 -26 0 0 1 7 0 1 0 1
0 239 -38 14 0 0 1 7 0 1 0 1
phys
0 239 -40 -26 0 0 1 7 0 1 0 1
0 229 -40 -26 0 0 1 7 0 1 0 1
0 229 -38 -26 0 0 1 7 0 1 0 1
phys
0 239 -40 -26 0 0 1 7 0 1 0 1
0 229 -38 -26 0 0 1 7 0 1 0 1
0 239 -38 -26 0 0 1 7 0 1 0 1
phys
0 229 -40 14 0 0 1 7 0 1 0 1
0 239 -40 14 0 0 1 7 0 1 0 1
0 239 -38 14 0 0 1 7 0 1 0 1
phys
0 229 -40 14 0 0 1 7 0 1 0 1
0 239 -38 14 0 0 1 7 0 1 0 1
0 229 -38 14 0 0 1 7 0 1 0 1
phys
0 239 -92 -28 0 0 1 8 0 1 0 1
0 239 -92 -60 0 0 1 8 0 1 0 1
0 229 -92 -60 0 0 1 8 0 1 0 1
phys
0 239 -92 -28 0 0 1 8 0 1 0 1
0 229 -92 -60 0 0 1 8 0 1 0 1
0 229 -92 -28 0 0 1 8 0 1 0 1
phys
0 239 -94 -58 0 0 1 8 0 1 0 1
0 239 -94 -28 0 0 1 8 0 1 0 1
0 229 -94 -28 0 0 1 8 0 1 0 1
phys
0 239 -94 -58 0 0 1 8 0 1 0 1
0 229 -94 -28 0 0 1 8 0 1 0 1
0 229 -94 -58 0 0 1 8 0 1 0 1
phys
0 229 -94 -58 0 0 1 8 0 1 0 1
0 229 -94 -28 0 0 1 8 0 1 0 1
0 229 -92 -28 0 0 1 8 0 1 0 1
phys
0 229 -94 -58 0 0 1 8 0 1 0 1
0 229 -92 -28 0 0 1 8 0 1 0 1
0 229 -92 -60 0 0 1 8 0 1 0 1
phys
0 239 -94 -28 0 0 1 8 0 1 0 1
0 239 -94 -58 0 0 1 8 0 1 0 1
0 239 -92 -60 0 0 1 8 0 1 0 1
phys
0 239 -94 -28 0 0 1 8 0 1 0 1
0 239 -92 -60 0 0 1 8 0 1 0 1
0 239 -92 -28 0 0 1 8 0 1 0 1
phys
0 229 -94 -28 0 0 1 8 0 1 0 1
0 239 -94 -28 0 0 1 8 0 1 0 1
0 239 -92 -28 0 0 1 8 0 1 0 1
phys
0 229 -94 -28 0 0 1 8 0 1 0 1
0 239 -92 -28 0 0 1 8 0 1 0 1
0 229 -92 -28 0 0 1 8 0 1 0 1
phys
0 239 -94 -58 0 0 1 8 0 1 0 1
0 229 -94 -58 0 0 1 8 0 1 0 1
0 229 -92 -60 0 0 1 8 0 1 0 1
phys
0 239 -94 -58 0 0 1 8 0 1 0 1
0 229 -92 -60 0 0 1 8 0 1 0 1
0 239 -92 -60 0 0 1 8 0 1 0 1
phys
0 229 -128 -58 0 0 1 9 0 1 0 1
0 229 -94 -58 0 0 1 9 0 1 0 1
0 229 -92 -60 0 0 1 9 0 1 0 1
phys
0 229 -128 -58 0 0 1 9 0 1 0 1
0 229 -92 -60 0 0 1 9 0 1 0 1
0 229 -130 -60 0 0 1 9 0 1 0 1
phys
0 239 -130 -60 0 0 1 9 0 1 0 1
0 239 -92 -60 0 0 1 9 0 1 0 1
0 239 -94 -58 0 0 1 9 0 1 0 1
phys
0 239 -130 -60 0 0 1 9 0 1 0 1
0 239 -94 -58 0 0 1 9 0 1 0 1
0 239 -128 -58 0 0 1 9 0 1 0 1
phys
0 229 -130 -60 0 0 1 9 0 1 0 1
0 229 -92 -60 0 0 1 9 0 1 0 1
0 239 -92 -60 0 0 1 9 0 1 0 1
phys
0 229 -130 -60 0 0 1 9 0 1 0 1
0 239 -92 -60 0 0 1 9 0 1 0 1
0 239 -130 -60 0 0 1 9 0 1 0 1
phys
0 239 -128 -58 0 0 1 9 0 1 0 1
0 239 -94 -58 0 0 1 9 0 1 0 1
0 229 -94 -58 0 0 1 9 0 1 0 1
phys
0 239 -128 -58 0 0 1 9 0 1 0 1
0 229 -94 -58 0 0 1 9 0 1 0 1
0 229 -128 -58 0 0 1 9 0 1 0 1
phys
0 239 -94 -58 0 0 1 9 0 1 0 1
0 239 -92 -60 0 0 1 9 0 1 0 1
0 229 -92 -60 0 0 1 9 0 1 0 1
phys
0 239 -94 -58 0 0 1 9 0 1 0 1
0 229 -92 -60 0 0 1 9 0 1 0 1
0 229 -94 -58 0 0 1 9 0 1 0 1
phys
0 239 -130 -60 0 0 1 9 0 1 0 1
0 239 -128 -58 0 0 1 9 0 1 0 1
0 229 -128 -58 0 0 1 9 0 1 0 1
phys
0 239 -130 -60 0 0 1 9 0 1 0 1
0 229 -128 -58 0 0 1 9 0 1 0 1
0 229 -130 -60 0 0 1 9 0 1 0 1
phys
0 2.3 -211.52 64 0 0 1 10 0 1 0 1
0 8.7 -207.99 64 0 0 1 10 0 1 0 1
0 11.5 -202.33 64 0 0 1 10 0 1 0 1
phys
0 2.3 -211.52 64 0 0 1 10 0 1 0 1
0 11.5 -202.33 64 0 0 1 10 0 1 0 1
0 11.5 -196.67 64 0 0 1 10 0 1 0 1
phys
0 2.3 -211.52 64 0 0 1 10 0 1 0 1
0 11.5 -196.67 64 0 0 1 10 0 1 0 1
0 8 -190.31 64 0 0 1 10 0 1 0 1
phys
0 2.3 -211.52 64 0 0 1 10 0 1 0 1
0 8 -190.31 64 0 0 1 10 0 1 0 1
0 2.3 -187.48 64 0 0 1 10 0 1 0 1
phys
0 2.3 -211.52 64 0 0 1 10 0 1 0 1
0 2.3 -187.48 64 0 0 1 10 0 1 0 1
0 -3.3 -187.48 64 0 0 1 10 0 1 0 1
phys
0 2.3 -211.52 64 0 0 1 10 0 1 0 1
0 -3.3 -187.48 64 0 0 1 10 0 1 0 1
0 -9 -190.31 64 0 0 1 10 0 1 0 1
phys
0 2.3 -211.52 64 0 0 1 10 0 1 0 1
0 -9 -190.31 64 0 0 1 10 0 1 0 1
0 -12.5 -196.67 64 0 0 1 10 0 1 0 1
phys
0 2.3 -211.52 64 0 0 1 10 0 1 0 1
0 -12.5 -196.67 64 0 0 1 10 0 1 0 1
0 -12.5 -202.33 64 0 0 1 10 0 1 0 1
phys
0 2.3 -211.52 64 0 0 1 10 0 1 0 1
0 -12.5 -202.33 64 0 0 1 10 0 1 0 1
0 -9.706811 -207.976233 64 0 0 1 10 0 1 0 1
phys
0 2.3 -211.52 64 0 0 1 10 0 1 0 1
0 -9.706811 -207.976233 64 0 0 1 10 0 1 0 1
0 -3.3 -211.52 64 0 0 1 10 0 1 0 1
phys
0 11.5 -202.33 -64 0 0 1 10 0 1 0 1
0 11.5 -202.33 64 0 0 1 10 0 1 0 1
0 8.7 -207.99 64 0 0 1 10 0 1 0 1
phys
0 11.5 -202.33 -64 0 0 1 10 0 1 0 1
0 8.7 -207.99 64 0 0 1 10 0 1 0 1
0 8.7 -207.99 -64 0 0 1 10 0 1 0 1
phys
0 8 -190.31 -64 0 0 1 10 0 1 0 1
0 8 -190.31 64 0 0 1 10 0 1 0 1
0 11.5 -196.67 64 0 0 1 10 0 1 0 1
phys
0 8 -190.31 -64 0 0 1 10 0 1 0 1
0 11.5 -196.67 64 0 0 1 10 0 1 0 1
0 11.5 -196.67 -64 0 0 1 10 0 1 0 1
phys
0 2.3 -187.48 -64 0 0 1 10 0 1 0 1
0 2.3 -187.48 64 0 0 1 10 0 1 0 1
0 8 -190.31 64 0 0 1 10 0 1 0 1
phys
0 2.3 -187.48 -64 0 0 1 10 0 1 0 1
0 8 -190.31 64 0 0 1 10 0 1 0 1
0 8 -190.31 -64 0 0 1 10 0 1 0 1
phys
0 8.7 -207.99 -64 0 0 1 10 0 1 0 1
0 8.7 -207.99 64 0 0 1 10 0 1 0 1
0 2.3 -211.52 64 0 0 1 10 0 1 0 1
phys
0 8.7 -207.99 -64 0 0 1 10 0 1 0 1
0 2.3 -211.52 64 0 0 1 10 0 1 0 1
0 2.3 -211.52 -64 0 0 1 10 0 1 0 1
phys
0 -9 -190.31 -64 0 0 1 10 0 1 0 1
0 -9 -190.31 64 0 0 1 10 0 1 0 1
0 -3.3 -187.48 64 0 0 1 10 0 1 0 1
phys
0 -9 -190.31 -64 0 0 1 10 0 1 0 1
0 -3.3 -187.48 64 0 0 1 10 0 1 0 1
0 -3.3 -187.48 -64 0 0 1 10 0 1 0 1
phys
0 -12.5 -196.67 -64 0 0 1 10 0 1 0 1
0 -12.5 -196.67 64 0 0 1 10 0 1 0 1
0 -9 -190.31 64 0 0 1 10 0 1 0 1
phys
0 -12.5 -196.67 -64 0 0 1 10 0 1 0 1
0 -9 -190.31 64 0 0 1 10 0 1 0 1
0 -9 -190.31 -64 0 0 1 10 0 1 0 1
phys
0 -3.3 -211.52 -64 0 0 1 10 0 1 0 1
0 -3.3 -211.52 64 0 0 1 10 0 1 0 1
0 -9.706811 -207.976233 64 0 0 1 10 0 1 0 1
phys
0 -3.3 -211.52 -64 0 0 1 10 0 1 0 1
0 -9.706811 -207.976233 64 0 0 1 10 0 1 0 1
0 -9.706811 -207.976233 -64 0 0 1 10 0 1 0 1
phys
0 -9.706811 -207.976233 -64 0 0 1 10 0 1 0 1
0 -9.706811 -207.976233 64 0 0 1 10 0 1 0 1
0 -12.5 -202.33 64 0 0 1 10 0 1 0 1
phys
0 -9.706811 -207.976233 -64 0 0 1 10 0 1 0 1
0 -12.5 -202.33 64 0 0 1 10 0 1 0 1
0 -12.5 -202.33 -64 0 0 1 10 0 1 0 1
phys
0 -3.3 -187.48 -64 0 0 1 10 0 1 0 1
0 -3.3 -187.48 64 0 0 1 10 0 1 0 1
0 2.3 -187.48 64 0 0 1 10 0 1 0 1
phys
0 -3.3 -187.48 -64 0 0 1 10 0 1 0 1
0 2.3 -187.48 64 0 0 1 10 0 1 0 1
0 2.3 -187.48 -64 0 0 1 10 0 1 0 1
phys
0 2.3 -211.52 -64 0 0 1 10 0 1 0 1
0 2.3 -211.52 64 0 0 1 10 0 1 0 1
0 -3.3 -211.52 64 0 0 1 10 0 1 0 1
phys
0 2.3 -211.52 -64 0 0 1 10 0 1 0 1
0 -3.3 -211.52 64 0 0 1 10 0 1 0 1
0 -3.3 -211.52 -64 0 0 1 10 0 1 0 1
phys
0 -12.5 -202.33 -64 0 0 1 10 0 1 0 1
0 -12.5 -202.33 64 0 0 1 10 0 1 0 1
0 -12.5 -196.67 64 0 0 1 10 0 1 0 1
phys
0 -12.5 -202.33 -64 0 0 1 10 0 1 0 1
0 -12.5 -196.67 64 0 0 1 10 0 1 0 1
0 -12.5 -196.67 -64 0 0 1 10 0 1 0 1
phys
0 11.5 -196.67 -64 0 0 1 10 0 1 0 1
0 11.5 -196.67 64 0 0 1 10 0 1 0 1
0 11.5 -202.33 64 0 0 1 10 0 1 0 1
phys
0 11.5 -196.67 -64 0 0 1 10 0 1 0 1
0 11.5 -202.33 64 0 0 1 10 0 1 0 1
0 11.5 -202.33 -64 0 0 1 10 0 1 0 1
phys
0 -9 -190.31 -64 0 0 1 10 0 1 0 1
0 -3.3 -187.48 -64 0 0 1 10 0 1 0 1
0 2.3 -187.48 -64 0 0 1 10 0 1 0 1
phys
0 -9 -190.31 -64 0 0 1 10 0 1 0 1
0 2.3 -187.48 -64 0 0 1 10 0 1 0 1
0 8 -190.31 -64 0 0 1 10 0 1 0 1
phys
0 -9 -190.31 -64 0 0 1 10 0 1 0 1
0 8 -190.31 -64 0 0 1 10 0 1 0 1
0 11.5 -196.67 -64 0 0 1 10 0 1 0 1
phys
0 -9 -190.31 -64 0 0 1 10 0 1 0 1
0 11.5 -196.67 -64 0 0 1 10 0 1 0 1
0 11.5 -202.33 -64 0 0 1 10 0 1 0 1
phys
0 -9 -190.31 -64 0 0 1 10 0 1 0 1
0 11.5 -202.33 -64 0 0 1 10 0 1 0 1
0 8.7 -207.99 -64 0 0 1 10 0 1 0 1
phys
0 -9 -190.31 -64 0 0 1 10 0 1 0 1
0 8.7 -207.99 -64 0 0 1 10 0 1 0 1
0 2.3 -211.52 -64 0 0 1 10 0 1 0 1
phys
0 -9 -190.31 -64 0 0 1 10 0 1 0 1
0 2.3 -211.52 -64 0 0 1 10 0 1 0 1
0 -3.3 -211.52 -64 0 0 1 10 0 1 0 1
phys
0 -9 -190.31 -64 0 0 1 10 0 1 0 1
0 -3.3 -211.52 -64 0 0 1 10 0 1 0 1
0 -9.706811 -207.976233 -64 0 0 1 10 0 1 0 1
phys
0 -9 -190.31 -64 0 0 1 10 0 1 0 1
0 -9.706811 -207.976233 -64 0 0 1 10 0 1 0 1
0 -12.5 -202.33 -64 0 0 1 10 0 1 0 1
phys
0 -9 -190.31 -64 0 0 1 10 0 1 0 1
0 -12.5 -202.33 -64 0 0 1 10 0 1 0 1
0 -12.5 -196.67 -64 0 0 1 10 0 1 0 1
phys
0 -7 -10 -64 0 0 1 11 0 1 0 1
0 -11 -6 -64 0 0 1 11 0 1 0 1
0 -13 1 -64 0 0 1 11 0 1 0 1
phys
0 -7 -10 -64 0 0 1 11 0 1 0 1
0 -13 1 -64 0 0 1 11 0 1 0 1
0 -11 7 -64 0 0 1 11 0 1 0 1
phys
0 -7 -10 -64 0 0 1 11 0 1 0 1
0 -11 7 -64 0 0 1 11 0 1 0 1
0 -7 11 -64 0 0 1 11 0 1 0 1
phys
0 -7 -10 -64 0 0 1 11 0 1 0 1
0 -7 11 -64 0 0 1 11 0 1 0 1
0 -1 12.99 -64 0 0 1 11 0 1 0 1
phys
0 -7 -10 -64 0 0 1 11 0 1 0 1
0 -1 12.99 -64 0 0 1 11 0 1 0 1
0 6 10.99 -64 0 0 1 11 0 1 0 1
phys
0 -7 -10 -64 0 0 1 11 0 1 0 1
0 6 10.99 -64 0 0 1 11 0 1 0 1
0 10 7 -64 0 0 1 11 0 1 0 1
phys
0 -7 -10 -64 0 0 1 11 0 1 0 1
0 10 7 -64 0 0 1 11 0 1 0 1
0 12 1 -64 0 0 1 11 0 1 0 1
phys
0 -7 -10 -64 0 0 1 11 0 1 0 1
0 12 1 -64 0 0 1 11 0 1 0 1
0 10 -6 -64 0 0 1 11 0 1 0 1
phys
0 -7 -10 -64 0 0 1 11 0 1 0 1
0 10 -6 -64 0 0 1 11 0 1 0 1
0 6 -10 -64 0 0 1 11 0 1 0 1
phys
0 -7 -10 -64 0 0 1 11 0 1 0 1
0 6 -10 -64 0 0 1 11 0 1 0 1
0 -1 -12 -64 0 0 1 11 0 1 0 1
phys
0 10 7 64 0 0 1 11 0 1 0 1
0 6 10.99 64 0 0 1 11 0 1 0 1
0 -1 12.99 64 0 0 1 11 0 1 0 1
phys
0 10 7 64 0 0 1 11 0 1 0 1
0 -1 12.99 64 0 0 1 11 0 1 0 1
0 -7 11 64 0 0 1 11 0 1 0 1
phys
0 10 7 64 0 0 1 11 0 1 0 1
0 -7 11 64 0 0 1 11 0 1 0 1
0 -11 7 64 0 0 1 11 0 1 0 1
phys
0 10 7 64 0 0 1 11 0 1 0 1
0 -11 7 64 0 0 1 11 0 1 0 1
0 -13 1 64 0 0 1 11 0 1 0 1
phys
0 10 7 64 0 0 1 11 0 1 0 1
0 -13 1 64 0 0 1 11 0 1 0 1
0 -11 -6 64 0 0 1 11 0 1 0 1
phys
0 10 7 64 0 0 1 11 0 1 0 1
0 -11 -6 64 0 0 1 11 0 1 0 1
0 -7 -10 64 0 0 1 11 0 1 0 1
phys
0 10 7 64 0 0 1 11 0 1 0 1
0 -7 -10 64 0 0 1 11 0 1 0 1
0 -1 -12 64 0 0 1 11 0 1 0 1
phys
0 10 7 64 0 0 1 11 0 1 0 1
0 -1 -12 64 0 0 1 11 0 1 0 1
0 6 -10 64 0 0 1 11 0 1 0 1
phys
0 10 7 64 0 0 1 11 0 1 0 1
0 6 -10 64 0 0 1 11 0 1 0 1
0 10 -6 64 0 0 1 11 0 1 0 1
phys
0 10 7 64 0 0 1 11 0 1 0 1
0 10 -6 64 0 0 1 11 0 1 0 1
0 12 1 64 0 0 1 11 0 1 0 1
phys
0 10 7 -64 0 0 1 11 0 1 0 1
0 6 10.99 -64 0 0 1 11 0 1 0 1
0 6 10.99 64 0 0 1 11 0 1 0 1
phys
0 10 7 -64 0 0 1 11 0 1 0 1
0 6 10.99 64 0 0 1 11 0 1 0 1
0 10 7 64 0 0 1 11 0 1 0 1
phys
0 6 10.99 -64 0 0 1 11 0 1 0 1
0 -1 12.99 -64 0 0 1 11 0 1 0 1
0 -1 12.99 64 0 0 1 11 0 1 0 1
phys
0 6 10.99 -64 0 0 1 11 0 1 0 1
0 -1 12.99 64 0 0 1 11 0 1 0 1
0 6 10.99 64 0 0 1 11 0 1 0 1
phys
0 -1 12.99 -64 0 0 1 11 0 1 0 1
0 -7 11 -64 0 0 1 11 0 1 0 1
0 -7 11 64 0 0 1 11 0 1 0 1
phys
0 -1 12.99 -64 0 0 1 11 0 1 0 1
0 -7 11 64 0 0 1 11 0 1 0 1
0 -1 12.99 64 0 0 1 11 0 1 0 1
phys
0 -11 7 64 0 0 1 11 0 1 0 1
0 -7 11 64 0 0 1 11 0 1 0 1
0 -7 11 -64 0 0 1 11 0 1 0 1
phys
0 -11 7 64 0 0 1 11 0 1 0 1
0 -7 11 -64 0 0 1 11 0 1 0 1
0 -11 7 -64 0 0 1 11 0 1 0 1
phys
0 -13 1 64 0 0 1 11 0 1 0 1
0 -11 7 64 0 0 1 11 0 1 0 1
0 -11 7 -64 0 0 1 11 0 1 0 1
phys
0 -13 1 64 0 0 1 11 0 1 0 1
0 -11 7 -64 0 0 1 11 0 1 0 1
0 -13 1 -64 0 0 1 11 0 1 0 1
phys
0 -11 -6 64 0 0 1 11 0 1 0 1
0 -13 1 64 0 0 1 11 0 1 0 1
0 -13 1 -64 0 0 1 11 0 1 0 1
phys
0 -11 -6 64 0 0 1 11 0 1 0 1
0 -13 1 -64 0 0 1 11 0 1 0 1
0 -11 -6 -64 0 0 1 11 0 1 0 1
phys
0 -7 -10 64 0 0 1 11 0 1 0 1
0 -11 -6 64 0 0 1 11 0 1 0 1
0 -11 -6 -64 0 0 1 11 0 1 0 1
phys
0 -7 -10 64 0 0 1 11 0 1 0 1
0 -11 -6 -64 0 0 1 11 0 1 0 1
0 -7 -10 -64 0 0 1 11 0 1 0 1
phys
0 -1 -12 64 0 0 1 11 0 1 0 1
0 -7 -10 64 0 0 1 11 0 1 0 1
0 -7 -10 -64 0 0 1 11 0 1 0 1
phys
0 -1 -12 64 0 0 1 11 0 1 0 1
0 -7 -10 -64 0 0 1 11 0 1 0 1
0 -1 -12 -64 0 0 1 11 0 1 0 1
phys
0 10 -6 -64 0 0 1 11 0 1 0 1
0 12 1 -64 0 0 1 11 0 1 0 1
0 12 1 64 0 0 1 11 0 1 0 1
phys
0 10 -6 -64 0 0 1 11 0 1 0 1
0 12 1 64 0 0 1 11 0 1 0 1
0 10 -6 64 0 0 1 11 0 1 0 1
phys
0 12 1 -64 0 0 1 11 0 1 0 1
0 10 7 -64 0 0 1 11 0 1 0 1
0 10 7 64 0 0 1 11 0 1 0 1
phys
0 12 1 -64 0 0 1 11 0 1 0 1
0 10 7 64 0 0 1 11 0 1 0 1
0 12 1 64 0 0 1 11 0 1 0 1
phys
0 6 -10 64 0 0 1 11 0 1 0 1
0 -1 -12 64 0 0 1 11 0 1 0 1
0 -1 -12 -64 0 0 1 11 0 1 0 1
phys
0 6 -10 64 0 0 1 11 0 1 0 1
0 -1 -12 -64 0 0 1 11 0 1 0 1
0 6 -10 -64 0 0 1 11 0 1 0 1
phys
0 6 -10 -64 0 0 1 11 0 1 0 1
0 10 -6 -64 0 0 1 11 0 1 0 1
0 10 -6 64 0 0 1 11 0 1 0 1
phys
0 6 -10 -64 0 0 1 11 0 1 0 1
0 10 -6 64 0 0 1 11 0 1 0 1
0 6 -10 64 0 0 1 11 0 1 0 1
phys
0 239 -128 -28 0 0 1 12 0 1 0 1
0 229 -128 -28 0 0 1 12 0 1 0 1
0 229 -4 -28 0 0 1 12 0 1 0 1
phys
0 239 -128 -28 0 0 1 12 0 1 0 1
0 229 -4 -28 0 0 1 12 0 1 0 1
0 239 -4 -28 0 0 1 12 0 1 0 1
phys
0 229 -128 -26 0 0 1 12 0 1 0 1
0 239 -128 -26 0 0 1 12 0 1 0 1
0 239 -4 -26 0 0 1 12 0 1 0 1
phys
0 229 -128 -26 0 0 1 12 0 1 0 1
0 239 -4 -26 0 0 1 12 0 1 0 1
0 229 -4 -26 0 0 1 12 0 1 0 1
phys
0 239 -4 -28 0 0 1 12 0 1 0 1
0 229 -4 -28 0 0 1 12 0 1 0 1
0 229 -4 -26 0 0 1 12 0 1 0 1
phys
0 239 -4 -28 0 0 1 12 0 1 0 1
0 229 -4 -26 0 0 1 12 0 1 0 1
0 239 -4 -26 0 0 1 12 0 1 0 1
phys
0 239 -128 -26 0 0 1 12 0 1 0 1
0 229 -128 -26 0 0 1 12 0 1 0 1
0 229 -128 -28 0 0 1 12 0 1 0 1
phys
0 239 -128 -26 0 0 1 12 0 1 0 1
0 229 -128 -28 0 0 1 12 0 1 0 1
0 239 -128 -28 0 0 1 12 0 1 0 1
phys
0 229 -128 -26 0 0 1 12 0 1 0 1
0 229 -4 -26 0 0 1 12 0 1 0 1
0 229 -4 -28 0 0 1 12 0 1 0 1
phys
0 229 -128 -26 0 0 1 12 0 1 0 1
0 229 -4 -28 0 0 1 12 0 1 0 1
0 229 -128 -28 0 0 1 12 0 1 0 1
phys
0 239 -128 -28 0 0 1 12 0 1 0 1
0 239 -4 -28 0 0 1 12 0 1 0 1
0 239 -4 -26 0 0 1 12 0 1 0 1
phys
0 239 -128 -28 0 0 1 12 0 1 0 1
0 239 -4 -26 0 0 1 12 0 1 0 1
0 239 -128 -26 0 0 1 12 0 1 0 1
phys
0 229 -2 -60 0 0 1 13 0 1 0 1
0 229 -2 -64 0 0 1 13 0 1 0 1
0 213 -2 -64 0 0 1 13 0 1 0 1
phys
0 229 -2 -60 0 0 1 13 0 1 0 1
0 213 -2 -64 0 0 1 13 0 1 0 1
0 205 -2 -61 0 0 1 13 0 1 0 1
phys
0 229 -2 -60 0 0 1 13 0 1 0 1
0 205 -2 -61 0 0 1 13 0 1 0 1
0 205 -2 -60 0 0 1 13 0 1 0 1
phys
0 229 -130 -64 0 0 1 13 0 1 0 1
0 229 -130 -60 0 0 1 13 0 1 0 1
0 205 -130 -60 0 0 1 13 0 1 0 1
phys
0 229 -130 -64 0 0 1 13 0 1 0 1
0 205 -130 -60 0 0 1 13 0 1 0 1
0 205 -130 -61 0 0 1 13 0 1 0 1
phys
0 229 -130 -64 0 0 1 13 0 1 0 1
0 205 -130 -61 0 0 1 13 0 1 0 1
0 213 -130 -64 0 0 1 13 0 1 0 1
phys
0 205 -130 -61 0 0 1 13 0 1 0 1
0 205 -130 -60 0 0 1 13 0 1 0 1
0 205 -2 -60 0 0 1 13 0 1 0 1
phys
0 205 -130 -61 0 0 1 13 0 1 0 1
0 205 -2 -60 0 0 1 13 0 1 0 1
0 205 -2 -61 0 0 1 13 0 1 0 1
phys
0 229 -130 -60 0 0 1 13 0 1 0 1
0 229 -130 -64 0 0 1 13 0 1 0 1
0 229 -2 -64 0 0 1 13 0 1 0 1
phys
0 229 -130 -60 0 0 1 13 0 1 0 1
0 229 -2 -64 0 0 1 13 0 1 0 1
0 229 -2 -60 0 0 1 13 0 1 0 1
phys
0 229 -130 -64 0 0 1 13 0 1 0 1
0 213 -130 -64 0 0 1 13 0 1 0 1
0 213 -2 -64 0 0 1 13 0 1 0 1
phys
0 229 -130 -64 0 0 1 13 0 1 0 1
0 213 -2 -64 0 0 1 13 0 1 0 1
0 229 -2 -64 0 0 1 13 0 1 0 1
phys
0 205 -130 -60 0 0 1 13 0 1 0 1
0 229 -130 -60 0 0 1 13 0 1 0 1
0 229 -2 -60 0 0 1 13 0 1 0 1
phys
0 205 -130 -60 0 0 1 13 0 1 0 1
0 229 -2 -60 0 0 1 13 0 1 0 1
0 205 -2 -60 0 0 1 13 0 1 0 1
phys
0 213 -130 -64 0 0 1 13 0 1 0 1
0 205 -130 -61 0 0 1 13 0 1 0 1
0 205 -2 -61 0 0 1 13 0 1 0 1
phys
0 213 -130 -64 0 0 1 13 0 1 0 1
0 205 -2 -61 0 0 1 13 0 1 0 1
0 213 -2 -64 0 0 1 13 0 1 0 1
phys
0 235 -40 14 0 0 1 14 0 1 0 1
0 235 -40 -26 0 0 1 14 0 1 0 1
0 234 -40 -26 0 0 1 14 0 1 0 1
phys
0 235 -40 14 0 0 1 14 0 1 0 1
0 234 -40 -26 0 0 1 14 0 1 0 1
0 234 -40 14 0 0 1 14 0 1 0 1
phys
0 235 -92 -26 0 0 1 14 0 1 0 1
0 235 -92 14 0 0 1 14 0 1 0 1
0 234 -92 14 0 0 1 14 0 1 0 1
phys
0 235 -92 -26 0 0 1 14 0 1 0 1
0 234 -92 14 0 0 1 14 0 1 0 1
0 234 -92 -26 0 0 1 14 0 1 0 1
phys
0 234 -92 -26 0 0 1 14 0 1 0 1
0 234 -92 14 0 0 1 14 0 1 0 1
0 234 -40 14 0 0 1 14 0 1 0 1
phys
0 234 -92 -26 0 0 1 14 0 1 0 1
0 234 -40 14 0 0 1 14 0 1 0 1
0 234 -40 -26 0 0 1 14 0 1 0 1
phys
0 235 -92 14 0 0 1 14 0 1 0 1
0 235 -92 -26 0 0 1 14 0 1 0 1
0 235 -40 -26 0 0 1 14 0 1 0 1
phys
0 235 -92 14 0 0 1 14 0 1 0 1
0 235 -40 -26 0 0 1 14 0 1 0 1
0 235 -40 14 0 0 1 14 0 1 0 1
phys
0 235 -92 -26 0 0 1 14 0 1 0 1
0 234 -92 -26 0 0 1 14 0 1 0 1
0 234 -40 -26 0 0 1 14 0 1 0 1
phys
0 235 -92 -26 0 0 1 14 0 1 0 1
0 234 -40 -26 0 0 1 14 0 1 0 1
0 235 -40 -26 0 0 1 14 0 1 0 1
phys
0 234 -92 14 0 0 1 14 0 1 0 1
0 235 -92 14 0 0 1 14 0 1 0 1
0 235 -40 14 0 0 1 14 0 1 0 1
phys
0 234 -92 14 0 0 1 14 0 1 0 1
0 235 -40 14 0 0 1 14 0 1 0 1
0 234 -40 14 0 0 1 14 0 1 0 1
phys
0 226 -306 55 0 0 1 15 0 1 0 1
0 226 -206 55 0 0 1 15 0 1 0 1
0 226 -208 53 0 0 1 15 0 1 0 1
phys
0 226 -306 55 0 0 1 15 0 1 0 1
0 226 -208 53 0 0 1 15 0 1 0 1
0 226 -304 53 0 0 1 15 0 1 0 1
phys
0 229 -304 53 0 0 1 15 0 1 0 1
0 229 -208 53 0 0 1 15 0 1 0 1
0 229 -206 55 0 0 1 15 0 1 0 1
phys
0 229 -304 53 0 0 1 15 0 1 0 1
0 229 -206 55 0 0 1 15 0 1 0 1
0 229 -306 55 0 0 1 15 0 1 0 1
phys
0 226 -304 53 0 0 1 15 0 1 0 1
0 226 -208 53 0 0 1 15 0 1 0 1
0 229 -208 53 0 0 1 15 0 1 0 1
phys
0 226 -304 53 0 0 1 15 0 1 0 1
0 229 -208 53 0 0 1 15 0 1 0 1
0 229 -304 53 0 0 1 15 0 1 0 1
phys
0 229 -306 55 0 0 1 15 0 1 0 1
0 229 -206 55 0 0 1 15 0 1 0 1
0 226 -206 55 0 0 1 15 0 1 0 1
phys
0 229 -306 55 0 0 1 15 0 1 0 1
0 226 -206 55 0 0 1 15 0 1 0 1
0 226 -306 55 0 0 1 15 0 1 0 1
phys
0 226 -306 55 0 0 1 15 0 1 0 1
0 226 -304 53 0 0 1 15 0 1 0 1
0 229 -304 53 0 0 1 15 0 1 0 1
phys
0 226 -306 55 0 0 1 15 0 1 0 1
0 229 -304 53 0 0 1 15 0 1 0 1
0 229 -306 55 0 0 1 15 0 1 0 1
phys
0 226 -208 53 0 0 1 15 0 1 0 1
0 226 -206 55 0 0 1 15 0 1 0 1
0 229 -206 55 0 0 1 15 0 1 0 1
phys
0 226 -208 53 0 0 1 15 0 1 0 1
0 229 -206 55 0 0 1 15 0 1 0 1
0 229 -208 53 0 0 1 15 0 1 0 1
phys
0 239 -40 -60 0 0 1 16 0 1 0 1
0 239 -40 -28 0 0 1 16 0 1 0 1
0 229 -40 -28 0 0 1 16 0 1 0 1
phys
0 239 -40 -60 0 0 1 16 0 1 0 1
0 229 -40 -28 0 0 1 16 0 1 0 1
0 229 -40 -60 0 0 1 16 0 1 0 1
phys
0 229 -40 -60 0 0 1 16 0 1 0 1
0 229 -40 -28 0 0 1 16 0 1 0 1
0 229 -38 -28 0 0 1 16 0 1 0 1
phys
0 229 -40 -60 0 0 1 16 0 1 0 1
0 229 -38 -28 0 0 1 16 0 1 0 1
0 229 -38 -58 0 0 1 16 0 1 0 1
phys
0 239 -40 -28 0 0 1 16 0 1 0 1
0 239 -40 -60 0 0 1 16 0 1 0 1
0 239 -38 -58 0 0 1 16 0 1 0 1
phys
0 239 -40 -28 0 0 1 16 0 1 0 1
0 239 -38 -58 0 0 1 16 0 1 0 1
0 239 -38 -28 0 0 1 16 0 1 0 1
phys
0 229 -40 -28 0 0 1 16 0 1 0 1
0 239 -40 -28 0 0 1 16 0 1 0 1
0 239 -38 -28 0 0 1 16 0 1 0 1
phys
0 229 -40 -28 0 0 1 16 0 1 0 1
0 239 -38 -28 0 0 1 16 0 1 0 1
0 229 -38 -28 0 0 1 16 0 1 0 1
phys
0 239 -40 -60 0 0 1 16 0 1 0 1
0 229 -40 -60 0 0 1 16 0 1 0 1
0 229 -38 -58 0 0 1 16 0 1 0 1
phys
0 239 -40 -60 0 0 1 16 0 1 0 1
0 229 -38 -58 0 0 1 16 0 1 0 1
0 239 -38 -58 0 0 1 16 0 1 0 1
phys
0 239 -38 -28 0 0 1 16 0 1 0 1
0 239 -38 -58 0 0 1 16 0 1 0 1
0 229 -38 -58 0 0 1 16 0 1 0 1
phys
0 239 -38 -28 0 0 1 16 0 1 0 1
0 229 -38 -58 0 0 1 16 0 1 0 1
0 229 -38 -28 0 0 1 16 0 1 0 1
phys
0 229 -206 55 0 0 1 17 0 1 0 1
0 229 -206 -45 0 0 1 17 0 1 0 1
0 226 -206 -45 0 0 1 17 0 1 0 1
phys
0 229 -206 55 0 0 1 17 0 1 0 1
0 226 -206 -45 0 0 1 17 0 1 0 1
0 226 -206 55 0 0 1 17 0 1 0 1
phys
0 229 -208 -43 0 0 1 17 0 1 0 1
0 229 -208 53 0 0 1 17 0 1 0 1
0 226 -208 53 0 0 1 17 0 1 0 1
phys
0 229 -208 -43 0 0 1 17 0 1 0 1
0 226 -208 53 0 0 1 17 0 1 0 1
0 226 -208 -43 0 0 1 17 0 1 0 1
phys
0 226 -208 -43 0 0 1 17 0 1 0 1
0 226 -208 53 0 0 1 17 0 1 0 1
0 226 -206 55 0 0 1 17 0 1 0 1
phys
0 226 -208 -43 0 0 1 17 0 1 0 1
0 226 -206 55 0 0 1 17 0 1 0 1
0 226 -206 -45 0 0 1 17 0 1 0 1
phys
0 229 -208 53 0 0 1 17 0 1 0 1
0 229 -208 -43 0 0 1 17 0 1 0 1
0 229 -206 -45 0 0 1 17 0 1 0 1
phys
0 229 -208 53 0 0 1 17 0 1 0 1
0 229 -206 -45 0 0 1 17 0 1 0 1
0 229 -206 55 0 0 1 17 0 1 0 1
phys
0 229 -208 -43 0 0 1 17 0 1 0 1
0 226 -208 -43 0 0 1 17 0 1 0 1
0 226 -206 -45 0 0 1 17 0 1 0 1
phys
0 229 -208 -43 0 0 1 17 0 1 0 1
0 226 -206 -45 0 0 1 17 0 1 0 1
0 229 -206 -45 0 0 1 17 0 1 0 1
phys
0 226 -208 53 0 0 1 17 0 1 0 1
0 229 -208 53 0 0 1 17 0 1 0 1
0 229 -206 55 0 0 1 17 0 1 0 1
phys
0 226 -208 53 0 0 1 17 0 1 0 1
0 229 -206 55 0 0 1 17 0 1 0 1
0 226 -206 55 0 0 1 17 0 1 0 1
phys
0 229 -304 53 0 0 1 18 0 1 0 1
0 229 -304 -43 0 0 1 18 0 1 0 1
0 226 -304 -43 0 0 1 18 0 1 0 1
phys
0 229 -304 53 0 0 1 18 0 1 0 1
0 226 -304 -43 0 0 1 18 0 1 0 1
0 226 -304 53 0 0 1 18 0 1 0 1
phys
0 229 -306 -45 0 0 1 18 0 1 0 1
0 229 -306 55 0 0 1 18 0 1 0 1
0 226 -306 55 0 0 1 18 0 1 0 1
phys
0 229 -306 -45 0 0 1 18 0 1 0 1
0 226 -306 55 0 0 1 18 0 1 0 1
0 226 -306 -45 0 0 1 18 0 1 0 1
phys
0 226 -306 -45 0 0 1 18 0 1 0 1
0 226 -306 55 0 0 1 18 0 1 0 1
0 226 -304 53 0 0 1 18 0 1 0 1
phys
0 226 -306 -45 0 0 1 18 0 1 0 1
0 226 -304 53 0 0 1 18 0 1 0 1
0 226 -304 -43 0 0 1 18 0 1 0 1
phys
0 229 -306 55 0 0 1 18 0 1 0 1
0 229 -306 -45 0 0 1 18 0 1 0 1
0 229 -304 -43 0 0 1 18 0 1 0 1
phys
0 229 -306 55 0 0 1 18 0 1 0 1
0 229 -304 -43 0 0 1 18 0 1 0 1
0 229 -304 53 0 0 1 18 0 1 0 1
phys
0 229 -306 -45 0 0 1 18 0 1 0 1
0 226 -306 -45 0 0 1 18 0 1 0 1
0 226 -304 -43 0 0 1 18 0 1 0 1
phys
0 229 -306 -45 0 0 1 18 0 1 0 1
0 226 -304 -43 0 0 1 18 0 1 0 1
0 229 -304 -43 0 0 1 18 0 1 0 1
phys
0 226 -306 55 0 0 1 18 0 1 0 1
0 229 -306 55 0 0 1 18 0 1 0 1
0 229 -304 53 0 0 1 18 0 1 0 1
phys
0 226 -306 55 0 0 1 18 0 1 0 1
0 229 -304 53 0 0 1 18 0 1 0 1
0 226 -304 53 0 0 1 18 0 1 0 1
phys
0 239 -92 14 0 0 1 19 0 1 0 1
0 239 -92 -26 0 0 1 19 0 1 0 1
0 229 -92 -26 0 0 1 19 0 1 0 1
phys
0 239 -92 14 0 0 1 19 0 1 0 1
0 229 -92 -26 0 0 1 19 0 1 0 1
0 229 -92 14 0 0 1 19 0 1 0 1
phys
0 239 -94 -26 0 0 1 19 0 1 0 1
0 239 -94 14 0 0 1 19 0 1 0 1
0 229 -94 14 0 0 1 19 0 1 0 1
phys
0 239 -94 -26 0 0 1 19 0 1 0 1
0 229 -94 14 0 0 1 19 0 1 0 1
0 229 -94 -26 0 0 1 19 0 1 0 1
phys
0 229 -94 -26 0 0 1 19 0 1 0 1
0 229 -94 14 0 0 1 19 0 1 0 1
0 229 -92 14 0 0 1 19 0 1 0 1
phys
0 229 -94 -26 0 0 1 19 0 1 0 1
0 229 -92 14 0 0 1 19 0 1 0 1
0 229 -92 -26 0 0 1 19 0 1 0 1
phys
0 239 -94 14 0 0 1 19 0 1 0 1
0 239 -94 -26 0 0 1 19 0 1 0 1
0 239 -92 -26 0 0 1 19 0 1 0 1
phys
0 239 -94 14 0 0 1 19 0 1 0 1
0 239 -92 -26 0 0 1 19 0 1 0 1
0 239 -92 14 0 0 1 19 0 1 0 1
phys
0 239 -94 -26 0 0 1 19 0 1 0 1
0 229 -94 -26 0 0 1 19 0 1 0 1
0 229 -92 -26 0 0 1 19 0 1 0 1
phys
0 239 -94 -26 0 0 1 19 0 1 0 1
0 229 -92 -26 0 0 1 19 0 1 0 1
0 239 -92 -26 0 0 1 19 0 1 0 1
phys
0 229 -94 14 0 0 1 19 0 1 0 1
0 239 -94 14 0 0 1 19 0 1 0 1
0 239 -92 14 0 0 1 19 0 1 0 1
phys
0 229 -94 14 0 0 1 19 0 1 0 1
0 239 -92 14 0 0 1 19 0 1 0 1
0 229 -92 14 0 0 1 19 0 1 0 1
phys
0 235 -38 -58 0 0 1 20 0 1 0 1
0 235 -4 -58 0 0 1 20 0 1 0 1
0 235 -4 14 0 0 1 20 0 1 0 1
phys
0 235 -38 -58 0 0 1 20 0 1 0 1
0 235 -4 14 0 0 1 20 0 1 0 1
0 235 -38 14 0 0 1 20 0 1 0 1
phys
0 234 -4 -58 0 0 1 20 0 1 0 1
0 235 -4 -58 0 0 1 20 0 1 0 1
0 235 -38 -58 0 0 1 20 0 1 0 1
phys
0 234 -4 -58 0 0 1 20 0 1 0 1
0 235 -38 -58 0 0 1 20 0 1 0 1
0 234 -38 -58 0 0 1 20 0 1 0 1
phys
0 234 -38 14 0 0 1 20 0 1 0 1
0 235 -38 14 0 0 1 20 0 1 0 1
0 235 -4 14 0 0 1 20 0 1 0 1
phys
0 234 -38 14 0 0 1 20 0 1 0 1
0 235 -4 14 0 0 1 20 0 1 0 1
0 234 -4 14 0 0 1 20 0 1 0 1
phys
0 235 -4 14 0 0 1 20 0 1 0 1
0 235 -4 -58 0 0 1 20 0 1 0 1
0 234 -4 -58 0 0 1 20 0 1 0 1
phys
0 235 -4 14 0 0 1 20 0 1 0 1
0 234 -4 -58 0 0 1 20 0 1 0 1
0 234 -4 14 0 0 1 20 0 1 0 1
phys
0 235 -38 -58 0 0 1 20 0 1 0 1
0 235 -38 14 0 0 1 20 0 1 0 1
0 234 -38 14 0 0 1 20 0 1 0 1
phys
0 235 -38 -58 0 0 1 20 0 1 0 1
0 234 -38 14 0 0 1 20 0 1 0 1
0 234 -38 -58 0 0 1 20 0 1 0 1
phys
0 234 -38 14 0 0 1 20 0 1 0 1
0 234 -4 14 0 0 1 20 0 1 0 1
0 234 -4 -58 0 0 1 20 0 1 0 1
phys
0 234 -38 14 0 0 1 20 0 1 0 1
0 234 -4 -58 0 0 1 20 0 1 0 1
0 234 -38 -58 0 0 1 20 0 1 0 1
phys
0 263 -130 -61 0 0 1 21 0 1 0 1
0 255 -130 -64 0 0 1 21 0 1 0 1
0 255 -2 -64 0 0 1 21 0 1 0 1
phys
0 263 -130 -61 0 0 1 21 0 1 0 1
0 255 -2 -64 0 0 1 21 0 1 0 1
0 263 -2 -61 0 0 1 21 0 1 0 1
phys
0 263 -2 -60 0 0 1 21 0 1 0 1
0 263 -2 -61 0 0 1 21 0 1 0 1
0 255 -2 -64 0 0 1 21 0 1 0 1
phys
0 263 -2 -60 0 0 1 21 0 1 0 1
0 255 -2 -64 0 0 1 21 0 1 0 1
0 239 -2 -64 0 0 1 21 0 1 0 1
phys
0 263 -2 -60 0 0 1 21 0 1 0 1
0 239 -2 -64 0 0 1 21 0 1 0 1
0 239 -2 -60 0 0 1 21 0 1 0 1
phys
0 239 -130 -60 0 0 1 21 0 1 0 1
0 239 -130 -64 0 0 1 21 0 1 0 1
0 255 -130 -64 0 0 1 21 0 1 0 1
phys
0 239 -130 -60 0 0 1 21 0 1 0 1
0 255 -130 -64 0 0 1 21 0 1 0 1
0 263 -130 -61 0 0 1 21 0 1 0 1
phys
0 239 -130 -60 0 0 1 21 0 1 0 1
0 263 -130 -61 0 0 1 21 0 1 0 1
0 263 -130 -60 0 0 1 21 0 1 0 1
phys
0 239 -2 -60 0 0 1 21 0 1 0 1
0 239 -2 -64 0 0 1 21 0 1 0 1
0 239 -130 -64 0 0 1 21 0 1 0 1
phys
0 239 -2 -60 0 0 1 21 0 1 0 1
0 239 -130 -64 0 0 1 21 0 1 0 1
0 239 -130 -60 0 0 1 21 0 1 0 1
phys
0 263 -130 -60 0 0 1 21 0 1 0 1
0 263 -130 -61 0 0 1 21 0 1 0 1
0 263 -2 -61 0 0 1 21 0 1 0 1
phys
0 263 -130 -60 0 0 1 21 0 1 0 1
0 263 -2 -61 0 0 1 21 0 1 0 1
0 263 -2 -60 0 0 1 21 0 1 0 1
phys
0 239 -2 -64 0 0 1 21 0 1 0 1
0 255 -2 -64 0 0 1 21 0 1 0 1
0 255 -130 -64 0 0 1 21 0 1 0 1
phys
0 239 -2 -64 0 0 1 21 0 1 0 1
0 255 -130 -64 0 0 1 21 0 1 0 1
0 239 -130 -64 0 0 1 21 0 1 0 1
phys
0 239 -130 -60 0 0 1 21 0 1 0 1
0 263 -130 -60 0 0 1 21 0 1 0 1
0 263 -2 -60 0 0 1 21 0 1 0 1
phys
0 239 -130 -60 0 0 1 21 0 1 0 1
0 263 -2 -60 0 0 1 21 0 1 0 1
0 239 -2 -60 0 0 1 21 0 1 0 1
phys
0 239 -4 -58 0 0 1 22 0 1 0 1
0 239 -4 14 0 0 1 22 0 1 0 1
0 229 -4 14 0 0 1 22 0 1 0 1
phys
0 239 -4 -58 0 0 1 22 0 1 0 1
0 229 -4 14 0 0 1 22 0 1 0 1
0 229 -4 -58 0 0 1 22 0 1 0 1
phys
0 229 -2 -60 0 0 1 22 0 1 0 1
0 229 -4 -58 0 0 1 22 0 1 0 1
0 229 -4 14 0 0 1 22 0 1 0 1
phys
0 229 -2 -60 0 0 1 22 0 1 0 1
0 229 -4 14 0 0 1 22 0 1 0 1
0 229 -2 16 0 0 1 22 0 1 0 1
phys
0 239 -2 16 0 0 1 22 0 1 0 1
0 239 -4 14 0 0 1 22 0 1 0 1
0 239 -4 -58 0 0 1 22 0 1 0 1
phys
0 239 -2 16 0 0 1 22 0 1 0 1
0 239 -4 -58 0 0 1 22 0 1 0 1
0 239 -2 -60 0 0 1 22 0 1 0 1
phys
0 229 -4 14 0 0 1 22 0 1 0 1
0 239 -4 14 0 0 1 22 0 1 0 1
0 239 -2 16 0 0 1 22 0 1 0 1
phys
0 229 -4 14 0 0 1 22 0 1 0 1
0 239 -2 16 0 0 1 22 0 1 0 1
0 229 -2 16 0 0 1 22 0 1 0 1
phys
0 239 -4 -58 0 0 1 22 0 1 0 1
0 229 -4 -58 0 0 1 22 0 1 0 1
0 229 -2 -60 0 0 1 22 0 1 0 1
phys
0 239 -4 -58 0 0 1 22 0 1 0 1
0 229 -2 -60 0 0 1 22 0 1 0 1
0 239 -2 -60 0 0 1 22 0 1 0 1
phys
0 239 -2 16 0 0 1 22 0 1 0 1
0 239 -2 -60 0 0 1 22 0 1 0 1
0 229 -2 -60 0 0 1 22 0 1 0 1
phys
0 239 -2 16 0 0 1 22 0 1 0 1
0 229 -2 -60 0 0 1 22 0 1 0 1
0 229 -2 16 0 0 1 22 0 1 0 1
end
