version 1
nodes
0 "root" -1
end
skeleton
time 0
0 0 0 0 0 0 0
end
triangles
phys
0 213 -131 72 0 0 1 1 0 1 0 1
0 213 -129 72 0 0 1 1 0 1 0 1
0 203 -129 72 0 0 1 1 0 1 0 1
phys
0 213 -131 72 0 0 1 1 0 1 0 1
0 203 -129 72 0 0 1 1 0 1 0 1
0 203 -131 72 0 0 1 1 0 1 0 1
phys
0 203 -131 42 0 0 1 1 0 1 0 1
0 203 -129 40 0 0 1 1 0 1 0 1
0 213 -129 40 0 0 1 1 0 1 0 1
phys
0 203 -131 42 0 0 1 1 0 1 0 1
0 213 -129 40 0 0 1 1 0 1 0 1
0 213 -131 42 0 0 1 1 0 1 0 1
phys
0 213 -129 72 0 0 1 1 0 1 0 1
0 213 -131 72 0 0 1 1 0 1 0 1
0 213 -131 42 0 0 1 1 0 1 0 1
phys
0 213 -129 72 0 0 1 1 0 1 0 1
0 213 -131 42 0 0 1 1 0 1 0 1
0 213 -129 40 0 0 1 1 0 1 0 1
phys
0 203 -129 40 0 0 1 1 0 1 0 1
0 203 -131 42 0 0 1 1 0 1 0 1
0 203 -131 72 0 0 1 1 0 1 0 1
phys
0 203 -129 40 0 0 1 1 0 1 0 1
0 203 -131 72 0 0 1 1 0 1 0 1
0 203 -129 72 0 0 1 1 0 1 0 1
phys
0 213 -129 40 0 0 1 1 0 1 0 1
0 203 -129 40 0 0 1 1 0 1 0 1
0 203 -129 72 0 0 1 1 0 1 0 1
phys
0 213 -129 40 0 0 1 1 0 1 0 1
0 203 -129 72 0 0 1 1 0 1 0 1
0 213 -129 72 0 0 1 1 0 1 0 1
phys
0 213 -131 72 0 0 1 1 0 1 0 1
0 203 -131 72 0 0 1 1 0 1 0 1
0 203 -131 42 0 0 1 1 0 1 0 1
phys
0 213 -131 72 0 0 1 1 0 1 0 1
0 203 -131 42 0 0 1 1 0 1 0 1
0 213 -131 42 0 0 1 1 0 1 0 1
phys
0 213 -165 114 0 0 1 2 0 1 0 1
0 213 -41 114 0 0 1 2 0 1 0 1
0 213 -39 116 0 0 1 2 0 1 0 1
phys
0 213 -165 114 0 0 1 2 0 1 0 1
0 213 -39 116 0 0 1 2 0 1 0 1
0 213 -167 116 0 0 1 2 0 1 0 1
phys
0 203 -167 116 0 0 1 2 0 1 0 1
0 203 -39 116 0 0 1 2 0 1 0 1
0 203 -41 114 0 0 1 2 0 1 0 1
phys
0 203 -167 116 0 0 1 2 0 1 0 1
0 203 -41 114 0 0 1 2 0 1 0 1
0 203 -165 114 0 0 1 2 0 1 0 1
phys
0 203 -165 114 0 0 1 2 0 1 0 1
0 203 -41 114 0 0 1 2 0 1 0 1
0 213 -41 114 0 0 1 2 0 1 0 1
phys
0 203 -165 114 0 0 1 2 0 1 0 1
0 213 -41 114 0 0 1 2 0 1 0 1
0 213 -165 114 0 0 1 2 0 1 0 1
phys
0 213 -167 116 0 0 1 2 0 1 0 1
0 213 -39 116 0 0 1 2 0 1 0 1
0 203 -39 116 0 0 1 2 0 1 0 1
phys
0 213 -167 116 0 0 1 2 0 1 0 1
0 203 -39 116 0 0 1 2 0 1 0 1
0 203 -167 116 0 0 1 2 0 1 0 1
phys
0 203 -167 116 0 0 1 2 0 1 0 1
0 203 -165 114 0 0 1 2 0 1 0 1
0 213 -165 114 0 0 1 2 0 1 0 1
phys
0 203 -167 116 0 0 1 2 0 1 0 1
0 213 -165 114 0 0 1 2 0 1 0 1
0 213 -167 116 0 0 1 2 0 1 0 1
phys
0 203 -41 114 0 0 1 2 0 1 0 1
0 203 -39 116 0 0 1 2 0 1 0 1
0 213 -39 116 0 0 1 2 0 1 0 1
phys
0 203 -41 114 0 0 1 2 0 1 0 1
0 213 -39 116 0 0 1 2 0 1 0 1
0 213 -41 114 0 0 1 2 0 1 0 1
phys
0 213 -41 114 0 0 1 3 0 1 0 1
0 213 -39 116 0 0 1 3 0 1 0 1
0 203 -39 116 0 0 1 3 0 1 0 1
phys
0 213 -41 114 0 0 1 3 0 1 0 1
0 203 -39 116 0 0 1 3 0 1 0 1
0 203 -41 114 0 0 1 3 0 1 0 1
phys
0 203 -41 42 0 0 1 3 0 1 0 1
0 203 -39 40 0 0 1 3 0 1 0 1
0 213 -39 40 0 0 1 3 0 1 0 1
phys
0 203 -41 42 0 0 1 3 0 1 0 1
0 213 -39 40 0 0 1 3 0 1 0 1
0 213 -41 42 0 0 1 3 0 1 0 1
phys
0 213 -39 116 0 0 1 3 0 1 0 1
0 213 -41 114 0 0 1 3 0 1 0 1
0 213 -41 42 0 0 1 3 0 1 0 1
phys
0 213 -39 116 0 0 1 3 0 1 0 1
0 213 -41 42 0 0 1 3 0 1 0 1
0 213 -39 40 0 0 1 3 0 1 0 1
phys
0 203 -39 40 0 0 1 3 0 1 0 1
0 203 -41 42 0 0 1 3 0 1 0 1
0 203 -41 114 0 0 1 3 0 1 0 1
phys
0 203 -39 40 0 0 1 3 0 1 0 1
0 203 -41 114 0 0 1 3 0 1 0 1
0 203 -39 116 0 0 1 3 0 1 0 1
phys
0 213 -39 40 0 0 1 3 0 1 0 1
0 203 -39 40 0 0 1 3 0 1 0 1
0 203 -39 116 0 0 1 3 0 1 0 1
phys
0 213 -39 40 0 0 1 3 0 1 0 1
0 203 -39 116 0 0 1 3 0 1 0 1
0 213 -39 116 0 0 1 3 0 1 0 1
phys
0 213 -41 114 0 0 1 3 0 1 0 1
0 203 -41 114 0 0 1 3 0 1 0 1
0 203 -41 42 0 0 1 3 0 1 0 1
phys
0 213 -41 114 0 0 1 3 0 1 0 1
0 203 -41 42 0 0 1 3 0 1 0 1
0 213 -41 42 0 0 1 3 0 1 0 1
phys
0 208 -129 114 0 0 1 4 0 1 0 1
0 208 -129 74 0 0 1 4 0 1 0 1
0 208 -77 74 0 0 1 4 0 1 0 1
phys
0 208 -129 114 0 0 1 4 0 1 0 1
0 208 -77 74 0 0 1 4 0 1 0 1
0 208 -77 114 0 0 1 4 0 1 0 1
phys
0 207 -129 74 0 0 1 4 0 1 0 1
0 207 -129 114 0 0 1 4 0 1 0 1
0 207 -77 114 0 0 1 4 0 1 0 1
phys
0 207 -129 74 0 0 1 4 0 1 0 1
0 207 -77 114 0 0 1 4 0 1 0 1
0 207 -77 74 0 0 1 4 0 1 0 1
phys
0 208 -77 114 0 0 1 4 0 1 0 1
0 208 -77 74 0 0 1 4 0 1 0 1
0 207 -77 74 0 0 1 4 0 1 0 1
phys
0 208 -77 114 0 0 1 4 0 1 0 1
0 207 -77 74 0 0 1 4 0 1 0 1
0 207 -77 114 0 0 1 4 0 1 0 1
phys
0 208 -129 74 0 0 1 4 0 1 0 1
0 208 -129 114 0 0 1 4 0 1 0 1
0 207 -129 114 0 0 1 4 0 1 0 1
phys
0 208 -129 74 0 0 1 4 0 1 0 1
0 207 -129 114 0 0 1 4 0 1 0 1
0 207 -129 74 0 0 1 4 0 1 0 1
phys
0 207 -129 74 0 0 1 4 0 1 0 1
0 207 -77 74 0 0 1 4 0 1 0 1
0 208 -77 74 0 0 1 4 0 1 0 1
phys
0 207 -129 74 0 0 1 4 0 1 0 1
0 208 -77 74 0 0 1 4 0 1 0 1
0 208 -129 74 0 0 1 4 0 1 0 1
phys
0 208 -129 114 0 0 1 4 0 1 0 1
0 208 -77 114 0 0 1 4 0 1 0 1
0 207 -77 114 0 0 1 4 0 1 0 1
phys
0 208 -129 114 0 0 1 4 0 1 0 1
0 207 -77 114 0 0 1 4 0 1 0 1
0 207 -129 114 0 0 1 4 0 1 0 1
phys
0 213 -77 114 0 0 1 5 0 1 0 1
0 213 -77 74 0 0 1 5 0 1 0 1
0 213 -75 74 0 0 1 5 0 1 0 1
phys
0 213 -77 114 0 0 1 5 0 1 0 1
0 213 -75 74 0 0 1 5 0 1 0 1
0 213 -75 114 0 0 1 5 0 1 0 1
phys
0 203 -77 74 0 0 1 5 0 1 0 1
0 203 -77 114 0 0 1 5 0 1 0 1
0 203 -75 114 0 0 1 5 0 1 0 1
phys
0 203 -77 74 0 0 1 5 0 1 0 1
0 203 -75 114 0 0 1 5 0 1 0 1
0 203 -75 74 0 0 1 5 0 1 0 1
phys
0 213 -75 114 0 0 1 5 0 1 0 1
0 213 -75 74 0 0 1 5 0 1 0 1
0 203 -75 74 0 0 1 5 0 1 0 1
phys
0 213 -75 114 0 0 1 5 0 1 0 1
0 203 -75 74 0 0 1 5 0 1 0 1
0 203 -75 114 0 0 1 5 0 1 0 1
phys
0 213 -77 74 0 0 1 5 0 1 0 1
0 213 -77 114 0 0 1 5 0 1 0 1
0 203 -77 114 0 0 1 5 0 1 0 1
phys
0 213 -77 74 0 0 1 5 0 1 0 1
0 203 -77 114 0 0 1 5 0 1 0 1
0 203 -77 74 0 0 1 5 0 1 0 1
phys
0 203 -77 74 0 0 1 5 0 1 0 1
0 203 -75 74 0 0 1 5 0 1 0 1
0 213 -75 74 0 0 1 5 0 1 0 1
phys
0 203 -77 74 0 0 1 5 0 1 0 1
0 213 -75 74 0 0 1 5 0 1 0 1
0 213 -77 74 0 0 1 5 0 1 0 1
phys
0 213 -77 114 0 0 1 5 0 1 0 1
0 213 -75 114 0 0 1 5 0 1 0 1
0 203 -75 114 0 0 1 5 0 1 0 1
phys
0 213 -77 114 0 0 1 5 0 1 0 1
0 203 -75 114 0 0 1 5 0 1 0 1
0 203 -77 114 0 0 1 5 0 1 0 1
phys
0 213 -77 40 0 0 1 6 0 1 0 1
0 213 -39 40 0 0 1 6 0 1 0 1
0 213 -41 42 0 0 1 6 0 1 0 1
phys
0 213 -77 40 0 0 1 6 0 1 0 1
0 213 -41 42 0 0 1 6 0 1 0 1
0 213 -75 42 0 0 1 6 0 1 0 1
phys
0 203 -75 42 0 0 1 6 0 1 0 1
0 203 -41 42 0 0 1 6 0 1 0 1
0 203 -39 40 0 0 1 6 0 1 0 1
phys
0 203 -75 42 0 0 1 6 0 1 0 1
0 203 -39 40 0 0 1 6 0 1 0 1
0 203 -77 40 0 0 1 6 0 1 0 1
phys
0 203 -77 40 0 0 1 6 0 1 0 1
0 203 -39 40 0 0 1 6 0 1 0 1
0 213 -39 40 0 0 1 6 0 1 0 1
phys
0 203 -77 40 0 0 1 6 0 1 0 1
0 213 -39 40 0 0 1 6 0 1 0 1
0 213 -77 40 0 0 1 6 0 1 0 1
phys
0 213 -75 42 0 0 1 6 0 1 0 1
0 213 -41 42 0 0 1 6 0 1 0 1
0 203 -41 42 0 0 1 6 0 1 0 1
phys
0 213 -75 42 0 0 1 6 0 1 0 1
0 203 -41 42 0 0 1 6 0 1 0 1
0 203 -75 42 0 0 1 6 0 1 0 1
phys
0 213 -41 42 0 0 1 6 0 1 0 1
0 213 -39 40 0 0 1 6 0 1 0 1
0 203 -39 40 0 0 1 6 0 1 0 1
phys
0 213 -41 42 0 0 1 6 0 1 0 1
0 203 -39 40 0 0 1 6 0 1 0 1
0 203 -41 42 0 0 1 6 0 1 0 1
phys
0 213 -77 40 0 0 1 6 0 1 0 1
0 213 -75 42 0 0 1 6 0 1 0 1
0 203 -75 42 0 0 1 6 0 1 0 1
phys
0 213 -77 40 0 0 1 6 0 1 0 1
0 203 -75 42 0 0 1 6 0 1 0 1
0 203 -77 40 0 0 1 6 0 1 0 1
phys
0 203 -168 160 0 0 1 7 0 1 0 1
0 203 -168 136 0 0 1 7 0 1 0 1
0 -237 -168 136 0 0 1 7 0 1 0 1
phys
0 203 -168 160 0 0 1 7 0 1 0 1
0 -237 -168 136 0 0 1 7 0 1 0 1
0 -237 -168 160 0 0 1 7 0 1 0 1
phys
0 203 -227 136 0 0 1 7 0 1 0 1
0 203 -227 160 0 0 1 7 0 1 0 1
0 -237 -227 160 0 0 1 7 0 1 0 1
phys
0 203 -227 136 0 0 1 7 0 1 0 1
0 -237 -227 160 0 0 1 7 0 1 0 1
0 -237 -227 136 0 0 1 7 0 1 0 1
phys
0 -237 -227 136 0 0 1 7 0 1 0 1
0 -237 -227 160 0 0 1 7 0 1 0 1
0 -237 -168 160 0 0 1 7 0 1 0 1
phys
0 -237 -227 136 0 0 1 7 0 1 0 1
0 -237 -168 160 0 0 1 7 0 1 0 1
0 -237 -168 136 0 0 1 7 0 1 0 1
phys
0 203 -227 160 0 0 1 7 0 1 0 1
0 203 -227 136 0 0 1 7 0 1 0 1
0 203 -168 136 0 0 1 7 0 1 0 1
phys
0 203 -227 160 0 0 1 7 0 1 0 1
0 203 -168 136 0 0 1 7 0 1 0 1
0 203 -168 160 0 0 1 7 0 1 0 1
phys
0 203 -227 136 0 0 1 7 0 1 0 1
0 -237 -227 136 0 0 1 7 0 1 0 1
0 -237 -168 136 0 0 1 7 0 1 0 1
phys
0 203 -227 136 0 0 1 7 0 1 0 1
0 -237 -168 136 0 0 1 7 0 1 0 1
0 203 -168 136 0 0 1 7 0 1 0 1
phys
0 -237 -227 160 0 0 1 7 0 1 0 1
0 203 -227 160 0 0 1 7 0 1 0 1
0 203 -168 160 0 0 1 7 0 1 0 1
phys
0 -237 -227 160 0 0 1 7 0 1 0 1
0 203 -168 160 0 0 1 7 0 1 0 1
0 -237 -168 160 0 0 1 7 0 1 0 1
phys
0 6.16 224.7153 52 0 0 1 8 0 1 0 1
0 9.16 224.7153 52 0 0 1 8 0 1 0 1
0 9.16 227.7153 52 0 0 1 8 0 1 0 1
phys
0 6.16 224.7153 52 0 0 1 8 0 1 0 1
0 9.16 227.7153 52 0 0 1 8 0 1 0 1
0 6.16 227.7153 52 0 0 1 8 0 1 0 1
phys
0 6.16 227.7153 0 0 0 1 8 0 1 0 1
0 6.16 227.7153 52 0 0 1 8 0 1 0 1
0 9.16 227.7153 52 0 0 1 8 0 1 0 1
phys
0 6.16 227.7153 0 0 0 1 8 0 1 0 1
0 9.16 227.7153 52 0 0 1 8 0 1 0 1
0 9.16 227.7153 0 0 0 1 8 0 1 0 1
phys
0 9.16 224.7153 0 0 0 1 8 0 1 0 1
0 9.16 224.7153 52 0 0 1 8 0 1 0 1
0 6.16 224.7153 52 0 0 1 8 0 1 0 1
phys
0 9.16 224.7153 0 0 0 1 8 0 1 0 1
0 6.16 224.7153 52 0 0 1 8 0 1 0 1
0 6.16 224.7153 0 0 0 1 8 0 1 0 1
phys
0 6.16 224.7153 0 0 0 1 8 0 1 0 1
0 6.16 224.7153 52 0 0 1 8 0 1 0 1
0 6.16 227.7153 52 0 0 1 8 0 1 0 1
phys
0 6.16 224.7153 0 0 0 1 8 0 1 0 1
0 6.16 227.7153 52 0 0 1 8 0 1 0 1
0 6.16 227.7153 0 0 0 1 8 0 1 0 1
phys
0 9.16 227.7153 0 0 0 1 8 0 1 0 1
0 9.16 227.7153 52 0 0 1 8 0 1 0 1
0 9.16 224.7153 52 0 0 1 8 0 1 0 1
phys
0 9.16 227.7153 0 0 0 1 8 0 1 0 1
0 9.16 224.7153 52 0 0 1 8 0 1 0 1
0 9.16 224.7153 0 0 0 1 8 0 1 0 1
phys
0 9.16 224.7153 0 0 0 1 8 0 1 0 1
0 6.16 224.7153 0 0 0 1 8 0 1 0 1
0 6.16 227.7153 0 0 0 1 8 0 1 0 1
phys
0 9.16 224.7153 0 0 0 1 8 0 1 0 1
0 6.16 227.7153 0 0 0 1 8 0 1 0 1
0 9.16 227.7153 0 0 0 1 8 0 1 0 1
phys
0 7.16 34 7 0 0 1 9 0 1 0 1
0 8.16 34 7 0 0 1 9 0 1 0 1
0 8.16 163.715 7 0 0 1 9 0 1 0 1
phys
0 7.16 34 7 0 0 1 9 0 1 0 1
0 8.16 163.715 7 0 0 1 9 0 1 0 1
0 7.16 163.715 7 0 0 1 9 0 1 0 1
phys
0 7.16 163.715 6 0 0 1 9 0 1 0 1
0 7.16 163.715 7 0 0 1 9 0 1 0 1
0 8.16 163.715 7 0 0 1 9 0 1 0 1
phys
0 7.16 163.715 6 0 0 1 9 0 1 0 1
0 8.16 163.715 7 0 0 1 9 0 1 0 1
0 8.16 163.715 6 0 0 1 9 0 1 0 1
phys
0 8.16 34 6 0 0 1 9 0 1 0 1
0 8.16 34 7 0 0 1 9 0 1 0 1
0 7.16 34 7 0 0 1 9 0 1 0 1
phys
0 8.16 34 6 0 0 1 9 0 1 0 1
0 7.16 34 7 0 0 1 9 0 1 0 1
0 7.16 34 6 0 0 1 9 0 1 0 1
phys
0 7.16 34 6 0 0 1 9 0 1 0 1
0 7.16 34 7 0 0 1 9 0 1 0 1
0 7.16 163.715 7 0 0 1 9 0 1 0 1
phys
0 7.16 34 6 0 0 1 9 0 1 0 1
0 7.16 163.715 7 0 0 1 9 0 1 0 1
0 7.16 163.715 6 0 0 1 9 0 1 0 1
phys
0 8.16 163.715 6 0 0 1 9 0 1 0 1
0 8.16 163.715 7 0 0 1 9 0 1 0 1
0 8.16 34 7 0 0 1 9 0 1 0 1
phys
0 8.16 163.715 6 0 0 1 9 0 1 0 1
0 8.16 34 7 0 0 1 9 0 1 0 1
0 8.16 34 6 0 0 1 9 0 1 0 1
phys
0 8.16 34 6 0 0 1 9 0 1 0 1
0 7.16 34 6 0 0 1 9 0 1 0 1
0 7.16 163.715 6 0 0 1 9 0 1 0 1
phys
0 8.16 34 6 0 0 1 9 0 1 0 1
0 7.16 163.715 6 0 0 1 9 0 1 0 1
0 8.16 163.715 6 0 0 1 9 0 1 0 1
phys
0 237 -167 40 0 0 1 10 0 1 0 1
0 213 -167 40 0 0 1 10 0 1 0 1
0 213 -167 36 0 0 1 10 0 1 0 1
phys
0 237 -167 40 0 0 1 10 0 1 0 1
0 213 -167 36 0 0 1 10 0 1 0 1
0 229 -167 36 0 0 1 10 0 1 0 1
phys
0 237 -167 40 0 0 1 10 0 1 0 1
0 229 -167 36 0 0 1 10 0 1 0 1
0 237 -167 39 0 0 1 10 0 1 0 1
phys
0 229 -167 36 0 0 1 10 0 1 0 1
0 213 -167 36 0 0 1 10 0 1 0 1
0 213 -39 36 0 0 1 10 0 1 0 1
phys
0 229 -167 36 0 0 1 10 0 1 0 1
0 213 -39 36 0 0 1 10 0 1 0 1
0 229 -39 36 0 0 1 10 0 1 0 1
phys
0 213 -167 40 0 0 1 10 0 1 0 1
0 237 -167 40 0 0 1 10 0 1 0 1
0 237 -39 40 0 0 1 10 0 1 0 1
phys
0 213 -167 40 0 0 1 10 0 1 0 1
0 237 -39 40 0 0 1 10 0 1 0 1
0 213 -39 40 0 0 1 10 0 1 0 1
phys
0 237 -167 39 0 0 1 10 0 1 0 1
0 229 -167 36 0 0 1 10 0 1 0 1
0 229 -39 36 0 0 1 10 0 1 0 1
phys
0 237 -167 39 0 0 1 10 0 1 0 1
0 229 -39 36 0 0 1 10 0 1 0 1
0 237 -39 39 0 0 1 10 0 1 0 1
phys
0 237 -167 40 0 0 1 10 0 1 0 1
0 237 -167 39 0 0 1 10 0 1 0 1
0 237 -39 39 0 0 1 10 0 1 0 1
phys
0 237 -167 40 0 0 1 10 0 1 0 1
0 237 -39 39 0 0 1 10 0 1 0 1
0 237 -39 40 0 0 1 10 0 1 0 1
phys
0 213 -167 36 0 0 1 10 0 1 0 1
0 213 -167 40 0 0 1 10 0 1 0 1
0 213 -39 40 0 0 1 10 0 1 0 1
phys
0 213 -167 36 0 0 1 10 0 1 0 1
0 213 -39 40 0 0 1 10 0 1 0 1
0 213 -39 36 0 0 1 10 0 1 0 1
phys
0 229 -39 36 0 0 1 10 0 1 0 1
0 213 -39 36 0 0 1 10 0 1 0 1
0 213 -39 40 0 0 1 10 0 1 0 1
phys
0 229 -39 36 0 0 1 10 0 1 0 1
0 213 -39 40 0 0 1 10 0 1 0 1
0 237 -39 40 0 0 1 10 0 1 0 1
phys
0 229 -39 36 0 0 1 10 0 1 0 1
0 237 -39 40 0 0 1 10 0 1 0 1
0 237 -39 39 0 0 1 10 0 1 0 1
phys
0 207 -165 42 0 0 1 11 0 1 0 1
0 207 -165 114 0 0 1 11 0 1 0 1
0 207 -131 114 0 0 1 11 0 1 0 1
phys
0 207 -165 42 0 0 1 11 0 1 0 1
0 207 -131 114 0 0 1 11 0 1 0 1
0 207 -131 42 0 0 1 11 0 1 0 1
phys
0 208 -131 42 0 0 1 11 0 1 0 1
0 207 -131 42 0 0 1 11 0 1 0 1
0 207 -131 114 0 0 1 11 0 1 0 1
phys
0 208 -131 42 0 0 1 11 0 1 0 1
0 207 -131 114 0 0 1 11 0 1 0 1
0 208 -131 114 0 0 1 11 0 1 0 1
phys
0 208 -165 114 0 0 1 11 0 1 0 1
0 207 -165 114 0 0 1 11 0 1 0 1
0 207 -165 42 0 0 1 11 0 1 0 1
phys
0 208 -165 114 0 0 1 11 0 1 0 1
0 207 -165 42 0 0 1 11 0 1 0 1
0 208 -165 42 0 0 1 11 0 1 0 1
phys
0 208 -165 42 0 0 1 11 0 1 0 1
0 207 -165 42 0 0 1 11 0 1 0 1
0 207 -131 42 0 0 1 11 0 1 0 1
phys
0 208 -165 42 0 0 1 11 0 1 0 1
0 207 -131 42 0 0 1 11 0 1 0 1
0 208 -131 42 0 0 1 11 0 1 0 1
phys
0 208 -131 114 0 0 1 11 0 1 0 1
0 207 -131 114 0 0 1 11 0 1 0 1
0 207 -165 114 0 0 1 11 0 1 0 1
phys
0 208 -131 114 0 0 1 11 0 1 0 1
0 207 -165 114 0 0 1 11 0 1 0 1
0 208 -165 114 0 0 1 11 0 1 0 1
phys
0 208 -165 114 0 0 1 11 0 1 0 1
0 208 -165 42 0 0 1 11 0 1 0 1
0 208 -131 42 0 0 1 11 0 1 0 1
phys
0 208 -165 114 0 0 1 11 0 1 0 1
0 208 -131 42 0 0 1 11 0 1 0 1
0 208 -131 114 0 0 1 11 0 1 0 1
phys
0 9.16 166.715 52 0 0 1 12 0 1 0 1
0 9.16 166.715 0 0 0 1 12 0 1 0 1
0 6.16 166.715 0 0 0 1 12 0 1 0 1
phys
0 9.16 166.715 52 0 0 1 12 0 1 0 1
0 6.16 166.715 0 0 0 1 12 0 1 0 1
0 6.16 166.715 52 0 0 1 12 0 1 0 1
phys
0 9.16 163.715 0 0 0 1 12 0 1 0 1
0 9.16 163.715 52 0 0 1 12 0 1 0 1
0 6.16 163.715 52 0 0 1 12 0 1 0 1
phys
0 9.16 163.715 0 0 0 1 12 0 1 0 1
0 6.16 163.715 52 0 0 1 12 0 1 0 1
0 6.16 163.715 0 0 0 1 12 0 1 0 1
phys
0 6.16 163.715 0 0 0 1 12 0 1 0 1
0 6.16 163.715 52 0 0 1 12 0 1 0 1
0 6.16 166.715 52 0 0 1 12 0 1 0 1
phys
0 6.16 163.715 0 0 0 1 12 0 1 0 1
0 6.16 166.715 52 0 0 1 12 0 1 0 1
0 6.16 166.715 0 0 0 1 12 0 1 0 1
phys
0 9.16 163.715 52 0 0 1 12 0 1 0 1
0 9.16 163.715 0 0 0 1 12 0 1 0 1
0 9.16 166.715 0 0 0 1 12 0 1 0 1
phys
0 9.16 163.715 52 0 0 1 12 0 1 0 1
0 9.16 166.715 0 0 0 1 12 0 1 0 1
0 9.16 166.715 52 0 0 1 12 0 1 0 1
phys
0 9.16 163.715 0 0 0 1 12 0 1 0 1
0 6.16 163.715 0 0 0 1 12 0 1 0 1
0 6.16 166.715 0 0 0 1 12 0 1 0 1
phys
0 9.16 163.715 0 0 0 1 12 0 1 0 1
0 6.16 166.715 0 0 0 1 12 0 1 0 1
0 9.16 166.715 0 0 0 1 12 0 1 0 1
phys
0 6.16 163.715 52 0 0 1 12 0 1 0 1
0 9.16 163.715 52 0 0 1 12 0 1 0 1
0 9.16 166.715 52 0 0 1 12 0 1 0 1
phys
0 6.16 163.715 52 0 0 1 12 0 1 0 1
0 9.16 166.715 52 0 0 1 12 0 1 0 1
0 6.16 166.715 52 0 0 1 12 0 1 0 1
phys
0 9.16 31 0 0 0 1 13 0 1 0 1
0 9.16 34 0 0 0 1 13 0 1 0 1
0 9.16 34 52 0 0 1 13 0 1 0 1
phys
0 9.16 31 0 0 0 1 13 0 1 0 1
0 9.16 34 52 0 0 1 13 0 1 0 1
0 9.16 31 52 0 0 1 13 0 1 0 1
phys
0 6.16 34 0 0 0 1 13 0 1 0 1
0 9.16 34 0 0 0 1 13 0 1 0 1
0 9.16 31 0 0 0 1 13 0 1 0 1
phys
0 6.16 34 0 0 0 1 13 0 1 0 1
0 9.16 31 0 0 0 1 13 0 1 0 1
0 6.16 31 0 0 0 1 13 0 1 0 1
phys
0 6.16 31 52 0 0 1 13 0 1 0 1
0 9.16 31 52 0 0 1 13 0 1 0 1
0 9.16 34 52 0 0 1 13 0 1 0 1
phys
0 6.16 31 52 0 0 1 13 0 1 0 1
0 9.16 34 52 0 0 1 13 0 1 0 1
0 6.16 34 52 0 0 1 13 0 1 0 1
phys
0 9.16 34 52 0 0 1 13 0 1 0 1
0 9.16 34 0 0 0 1 13 0 1 0 1
0 6.16 34 0 0 0 1 13 0 1 0 1
phys
0 9.16 34 52 0 0 1 13 0 1 0 1
0 6.16 34 0 0 0 1 13 0 1 0 1
0 6.16 34 52 0 0 1 13 0 1 0 1
phys
0 9.16 31 0 0 0 1 13 0 1 0 1
0 9.16 31 52 0 0 1 13 0 1 0 1
0 6.16 31 52 0 0 1 13 0 1 0 1
phys
0 9.16 31 0 0 0 1 13 0 1 0 1
0 6.16 31 52 0 0 1 13 0 1 0 1
0 6.16 31 0 0 0 1 13 0 1 0 1
phys
0 6.16 31 52 0 0 1 13 0 1 0 1
0 6.16 34 52 0 0 1 13 0 1 0 1
0 6.16 34 0 0 0 1 13 0 1 0 1
phys
0 6.16 31 52 0 0 1 13 0 1 0 1
0 6.16 34 0 0 0 1 13 0 1 0 1
0 6.16 31 0 0 0 1 13 0 1 0 1
phys
0 208 -75 114 0 0 1 14 0 1 0 1
0 208 -75 42 0 0 1 14 0 1 0 1
0 208 -41 42 0 0 1 14 0 1 0 1
phys
0 208 -75 114 0 0 1 14 0 1 0 1
0 208 -41 42 0 0 1 14 0 1 0 1
0 208 -41 114 0 0 1 14 0 1 0 1
phys
0 207 -75 42 0 0 1 14 0 1 0 1
0 207 -75 114 0 0 1 14 0 1 0 1
0 207 -41 114 0 0 1 14 0 1 0 1
phys
0 207 -75 42 0 0 1 14 0 1 0 1
0 207 -41 114 0 0 1 14 0 1 0 1
0 207 -41 42 0 0 1 14 0 1 0 1
phys
0 208 -41 114 0 0 1 14 0 1 0 1
0 208 -41 42 0 0 1 14 0 1 0 1
0 207 -41 42 0 0 1 14 0 1 0 1
phys
0 208 -41 114 0 0 1 14 0 1 0 1
0 207 -41 42 0 0 1 14 0 1 0 1
0 207 -41 114 0 0 1 14 0 1 0 1
phys
0 208 -75 42 0 0 1 14 0 1 0 1
0 208 -75 114 0 0 1 14 0 1 0 1
0 207 -75 114 0 0 1 14 0 1 0 1
phys
0 208 -75 42 0 0 1 14 0 1 0 1
0 207 -75 114 0 0 1 14 0 1 0 1
0 207 -75 42 0 0 1 14 0 1 0 1
phys
0 207 -75 42 0 0 1 14 0 1 0 1
0 207 -41 42 0 0 1 14 0 1 0 1
0 208 -41 42 0 0 1 14 0 1 0 1
phys
0 207 -75 42 0 0 1 14 0 1 0 1
0 208 -41 42 0 0 1 14 0 1 0 1
0 208 -75 42 0 0 1 14 0 1 0 1
phys
0 208 -75 114 0 0 1 14 0 1 0 1
0 208 -41 114 0 0 1 14 0 1 0 1
0 207 -41 114 0 0 1 14 0 1 0 1
phys
0 208 -75 114 0 0 1 14 0 1 0 1
0 207 -41 114 0 0 1 14 0 1 0 1
0 207 -75 114 0 0 1 14 0 1 0 1
phys
0 213 -165 74 0 0 1 15 0 1 0 1
0 213 -165 72 0 0 1 15 0 1 0 1
0 213 -41 72 0 0 1 15 0 1 0 1
phys
0 213 -165 74 0 0 1 15 0 1 0 1
0 213 -41 72 0 0 1 15 0 1 0 1
0 213 -41 74 0 0 1 15 0 1 0 1
phys
0 203 -165 72 0 0 1 15 0 1 0 1
0 203 -165 74 0 0 1 15 0 1 0 1
0 203 -41 74 0 0 1 15 0 1 0 1
phys
0 203 -165 72 0 0 1 15 0 1 0 1
0 203 -41 74 0 0 1 15 0 1 0 1
0 203 -41 72 0 0 1 15 0 1 0 1
phys
0 213 -41 74 0 0 1 15 0 1 0 1
0 213 -41 72 0 0 1 15 0 1 0 1
0 203 -41 72 0 0 1 15 0 1 0 1
phys
0 213 -41 74 0 0 1 15 0 1 0 1
0 203 -41 72 0 0 1 15 0 1 0 1
0 203 -41 74 0 0 1 15 0 1 0 1
phys
0 213 -165 72 0 0 1 15 0 1 0 1
0 213 -165 74 0 0 1 15 0 1 0 1
0 203 -165 74 0 0 1 15 0 1 0 1
phys
0 213 -165 72 0 0 1 15 0 1 0 1
0 203 -165 74 0 0 1 15 0 1 0 1
0 203 -165 72 0 0 1 15 0 1 0 1
phys
0 203 -165 72 0 0 1 15 0 1 0 1
0 203 -41 72 0 0 1 15 0 1 0 1
0 213 -41 72 0 0 1 15 0 1 0 1
phys
0 203 -165 72 0 0 1 15 0 1 0 1
0 213 -41 72 0 0 1 15 0 1 0 1
0 213 -165 72 0 0 1 15 0 1 0 1
phys
0 213 -165 74 0 0 1 15 0 1 0 1
0 213 -41 74 0 0 1 15 0 1 0 1
0 203 -41 74 0 0 1 15 0 1 0 1
phys
0 213 -165 74 0 0 1 15 0 1 0 1
0 203 -41 74 0 0 1 15 0 1 0 1
0 203 -165 74 0 0 1 15 0 1 0 1
phys
0 213 -167 116 0 0 1 16 0 1 0 1
0 213 -165 114 0 0 1 16 0 1 0 1
0 203 -165 114 0 0 1 16 0 1 0 1
phys
0 213 -167 116 0 0 1 16 0 1 0 1
0 203 -165 114 0 0 1 16 0 1 0 1
0 203 -167 116 0 0 1 16 0 1 0 1
phys
0 203 -167 40 0 0 1 16 0 1 0 1
0 203 -165 42 0 0 1 16 0 1 0 1
0 213 -165 42 0 0 1 16 0 1 0 1
phys
0 203 -167 40 0 0 1 16 0 1 0 1
0 213 -165 42 0 0 1 16 0 1 0 1
0 213 -167 40 0 0 1 16 0 1 0 1
phys
0 213 -167 40 0 0 1 16 0 1 0 1
0 213 -165 42 0 0 1 16 0 1 0 1
0 213 -165 114 0 0 1 16 0 1 0 1
phys
0 213 -167 40 0 0 1 16 0 1 0 1
0 213 -165 114 0 0 1 16 0 1 0 1
0 213 -167 116 0 0 1 16 0 1 0 1
phys
0 203 -167 116 0 0 1 16 0 1 0 1
0 203 -165 114 0 0 1 16 0 1 0 1
0 203 -165 42 0 0 1 16 0 1 0 1
phys
0 203 -167 116 0 0 1 16 0 1 0 1
0 203 -165 42 0 0 1 16 0 1 0 1
0 203 -167 40 0 0 1 16 0 1 0 1
phys
0 213 -165 42 0 0 1 16 0 1 0 1
0 203 -165 42 0 0 1 16 0 1 0 1
0 203 -165 114 0 0 1 16 0 1 0 1
phys
0 213 -165 42 0 0 1 16 0 1 0 1
0 203 -165 114 0 0 1 16 0 1 0 1
0 213 -165 114 0 0 1 16 0 1 0 1
phys
0 213 -167 116 0 0 1 16 0 1 0 1
0 203 -167 116 0 0 1 16 0 1 0 1
0 203 -167 40 0 0 1 16 0 1 0 1
phys
0 213 -167 116 0 0 1 16 0 1 0 1
0 203 -167 40 0 0 1 16 0 1 0 1
0 213 -167 40 0 0 1 16 0 1 0 1
phys
0 8.16 163.715 50 0 0 1 17 0 1 0 1
0 8.16 163.715 7 0 0 1 17 0 1 0 1
0 7.16 163.715 7 0 0 1 17 0 1 0 1
phys
0 8.16 163.715 50 0 0 1 17 0 1 0 1
0 7.16 163.715 7 0 0 1 17 0 1 0 1
0 7.16 163.715 50 0 0 1 17 0 1 0 1
phys
0 8.16 34 7 0 0 1 17 0 1 0 1
0 8.16 34 50 0 0 1 17 0 1 0 1
0 7.16 34 50 0 0 1 17 0 1 0 1
phys
0 8.16 34 7 0 0 1 17 0 1 0 1
0 7.16 34 50 0 0 1 17 0 1 0 1
0 7.16 34 7 0 0 1 17 0 1 0 1
phys
0 7.16 34 7 0 0 1 17 0 1 0 1
0 7.16 34 50 0 0 1 17 0 1 0 1
0 7.16 163.715 50 0 0 1 17 0 1 0 1
phys
0 7.16 34 7 0 0 1 17 0 1 0 1
0 7.16 163.715 50 0 0 1 17 0 1 0 1
0 7.16 163.715 7 0 0 1 17 0 1 0 1
phys
0 8.16 34 50 0 0 1 17 0 1 0 1
0 8.16 34 7 0 0 1 17 0 1 0 1
0 8.16 163.715 7 0 0 1 17 0 1 0 1
phys
0 8.16 34 50 0 0 1 17 0 1 0 1
0 8.16 163.715 7 0 0 1 17 0 1 0 1
0 8.16 163.715 50 0 0 1 17 0 1 0 1
phys
0 8.16 34 7 0 0 1 17 0 1 0 1
0 7.16 34 7 0 0 1 17 0 1 0 1
0 7.16 163.715 7 0 0 1 17 0 1 0 1
phys
0 8.16 34 7 0 0 1 17 0 1 0 1
0 7.16 163.715 7 0 0 1 17 0 1 0 1
0 8.16 163.715 7 0 0 1 17 0 1 0 1
phys
0 7.16 34 50 0 0 1 17 0 1 0 1
0 8.16 34 50 0 0 1 17 0 1 0 1
0 8.16 163.715 50 0 0 1 17 0 1 0 1
phys
0 7.16 34 50 0 0 1 17 0 1 0 1
0 8.16 163.715 50 0 0 1 17 0 1 0 1
0 7.16 163.715 50 0 0 1 17 0 1 0 1
phys
0 213 -167 40 0 0 1 18 0 1 0 1
0 203 -167 40 0 0 1 18 0 1 0 1
0 203 -129 40 0 0 1 18 0 1 0 1
phys
0 213 -167 40 0 0 1 18 0 1 0 1
0 203 -129 40 0 0 1 18 0 1 0 1
0 213 -129 40 0 0 1 18 0 1 0 1
phys
0 203 -165 42 0 0 1 18 0 1 0 1
0 213 -165 42 0 0 1 18 0 1 0 1
0 213 -131 42 0 0 1 18 0 1 0 1
phys
0 203 -165 42 0 0 1 18 0 1 0 1
0 213 -131 42 0 0 1 18 0 1 0 1
0 203 -131 42 0 0 1 18 0 1 0 1
phys
0 203 -167 40 0 0 1 18 0 1 0 1
0 213 -167 40 0 0 1 18 0 1 0 1
0 213 -165 42 0 0 1 18 0 1 0 1
phys
0 203 -167 40 0 0 1 18 0 1 0 1
0 213 -165 42 0 0 1 18 0 1 0 1
0 203 -165 42 0 0 1 18 0 1 0 1
phys
0 203 -131 42 0 0 1 18 0 1 0 1
0 213 -131 42 0 0 1 18 0 1 0 1
0 213 -129 40 0 0 1 18 0 1 0 1
phys
0 203 -131 42 0 0 1 18 0 1 0 1
0 213 -129 40 0 0 1 18 0 1 0 1
0 203 -129 40 0 0 1 18 0 1 0 1
phys
0 213 -167 40 0 0 1 18 0 1 0 1
0 213 -129 40 0 0 1 18 0 1 0 1
0 213 -131 42 0 0 1 18 0 1 0 1
phys
0 213 -167 40 0 0 1 18 0 1 0 1
0 213 -131 42 0 0 1 18 0 1 0 1
0 213 -165 42 0 0 1 18 0 1 0 1
phys
0 203 -165 42 0 0 1 18 0 1 0 1
0 203 -131 42 0 0 1 18 0 1 0 1
0 203 -129 40 0 0 1 18 0 1 0 1
phys
0 203 -165 42 0 0 1 18 0 1 0 1
0 203 -129 40 0 0 1 18 0 1 0 1
0 203 -167 40 0 0 1 18 0 1 0 1
phys
0 213 -131 114 0 0 1 19 0 1 0 1
0 213 -131 74 0 0 1 19 0 1 0 1
0 213 -129 74 0 0 1 19 0 1 0 1
phys
0 213 -131 114 0 0 1 19 0 1 0 1
0 213 -129 74 0 0 1 19 0 1 0 1
0 213 -129 114 0 0 1 19 0 1 0 1
phys
0 203 -131 74 0 0 1 19 0 1 0 1
0 203 -131 114 0 0 1 19 0 1 0 1
0 203 -129 114 0 0 1 19 0 1 0 1
phys
0 203 -131 74 0 0 1 19 0 1 0 1
0 203 -129 114 0 0 1 19 0 1 0 1
0 203 -129 74 0 0 1 19 0 1 0 1
phys
0 213 -129 114 0 0 1 19 0 1 0 1
0 213 -129 74 0 0 1 19 0 1 0 1
0 203 -129 74 0 0 1 19 0 1 0 1
phys
0 213 -129 114 0 0 1 19 0 1 0 1
0 203 -129 74 0 0 1 19 0 1 0 1
0 203 -129 114 0 0 1 19 0 1 0 1
phys
0 213 -131 74 0 0 1 19 0 1 0 1
0 213 -131 114 0 0 1 19 0 1 0 1
0 203 -131 114 0 0 1 19 0 1 0 1
phys
0 213 -131 74 0 0 1 19 0 1 0 1
0 203 -131 114 0 0 1 19 0 1 0 1
0 203 -131 74 0 0 1 19 0 1 0 1
phys
0 203 -131 74 0 0 1 19 0 1 0 1
0 203 -129 74 0 0 1 19 0 1 0 1
0 213 -129 74 0 0 1 19 0 1 0 1
phys
0 203 -131 74 0 0 1 19 0 1 0 1
0 213 -129 74 0 0 1 19 0 1 0 1
0 213 -131 74 0 0 1 19 0 1 0 1
phys
0 213 -131 114 0 0 1 19 0 1 0 1
0 213 -129 114 0 0 1 19 0 1 0 1
0 203 -129 114 0 0 1 19 0 1 0 1
phys
0 213 -131 114 0 0 1 19 0 1 0 1
0 203 -129 114 0 0 1 19 0 1 0 1
0 203 -131 114 0 0 1 19 0 1 0 1
phys
0 213 -167 40 0 0 1 20 0 1 0 1
0 213 -167 36 0 0 1 20 0 1 0 1
0 213 -39 36 0 0 1 20 0 1 0 1
phys
0 213 -167 40 0 0 1 20 0 1 0 1
0 213 -39 36 0 0 1 20 0 1 0 1
0 213 -39 40 0 0 1 20 0 1 0 1
phys
0 179 -167 39 0 0 1 20 0 1 0 1
0 179 -167 40 0 0 1 20 0 1 0 1
0 179 -39 40 0 0 1 20 0 1 0 1
phys
0 179 -167 39 0 0 1 20 0 1 0 1
0 179 -39 40 0 0 1 20 0 1 0 1
0 179 -39 39 0 0 1 20 0 1 0 1
phys
0 213 -39 40 0 0 1 20 0 1 0 1
0 213 -39 36 0 0 1 20 0 1 0 1
0 190.33 -39 36 0 0 1 20 0 1 0 1
phys
0 213 -39 40 0 0 1 20 0 1 0 1
0 190.33 -39 36 0 0 1 20 0 1 0 1
0 179 -39 39 0 0 1 20 0 1 0 1
phys
0 213 -39 40 0 0 1 20 0 1 0 1
0 179 -39 39 0 0 1 20 0 1 0 1
0 179 -39 40 0 0 1 20 0 1 0 1
phys
0 213 -167 36 0 0 1 20 0 1 0 1
0 213 -167 40 0 0 1 20 0 1 0 1
0 179 -167 40 0 0 1 20 0 1 0 1
phys
0 213 -167 36 0 0 1 20 0 1 0 1
0 179 -167 40 0 0 1 20 0 1 0 1
0 179 -167 39 0 0 1 20 0 1 0 1
phys
0 213 -167 36 0 0 1 20 0 1 0 1
0 179 -167 39 0 0 1 20 0 1 0 1
0 190.33 -167 36 0 0 1 20 0 1 0 1
phys
0 190.33 -39 36 0 0 1 20 0 1 0 1
0 213 -39 36 0 0 1 20 0 1 0 1
0 213 -167 36 0 0 1 20 0 1 0 1
phys
0 190.33 -39 36 0 0 1 20 0 1 0 1
0 213 -167 36 0 0 1 20 0 1 0 1
0 190.33 -167 36 0 0 1 20 0 1 0 1
phys
0 213 -167 40 0 0 1 20 0 1 0 1
0 213 -39 40 0 0 1 20 0 1 0 1
0 179 -39 40 0 0 1 20 0 1 0 1
phys
0 213 -167 40 0 0 1 20 0 1 0 1
0 179 -39 40 0 0 1 20 0 1 0 1
0 179 -167 40 0 0 1 20 0 1 0 1
phys
0 179 -167 39 0 0 1 20 0 1 0 1
0 179 -39 39 0 0 1 20 0 1 0 1
0 190.33 -39 36 0 0 1 20 0 1 0 1
phys
0 179 -167 39 0 0 1 20 0 1 0 1
0 190.33 -39 36 0 0 1 20 0 1 0 1
0 190.33 -167 36 0 0 1 20 0 1 0 1
phys
0 8.16 163.715 51 0 0 1 21 0 1 0 1
0 8.16 163.715 50 0 0 1 21 0 1 0 1
0 7.16 163.715 50 0 0 1 21 0 1 0 1
phys
0 8.16 163.715 51 0 0 1 21 0 1 0 1
0 7.16 163.715 50 0 0 1 21 0 1 0 1
0 7.16 163.715 51 0 0 1 21 0 1 0 1
phys
0 8.16 34 50 0 0 1 21 0 1 0 1
0 8.16 34 51 0 0 1 21 0 1 0 1
0 7.16 34 51 0 0 1 21 0 1 0 1
phys
0 8.16 34 50 0 0 1 21 0 1 0 1
0 7.16 34 51 0 0 1 21 0 1 0 1
0 7.16 34 50 0 0 1 21 0 1 0 1
phys
0 7.16 34 50 0 0 1 21 0 1 0 1
0 7.16 34 51 0 0 1 21 0 1 0 1
0 7.16 163.715 51 0 0 1 21 0 1 0 1
phys
0 7.16 34 50 0 0 1 21 0 1 0 1
0 7.16 163.715 51 0 0 1 21 0 1 0 1
0 7.16 163.715 50 0 0 1 21 0 1 0 1
phys
0 8.16 34 51 0 0 1 21 0 1 0 1
0 8.16 34 50 0 0 1 21 0 1 0 1
0 8.16 163.715 50 0 0 1 21 0 1 0 1
phys
0 8.16 34 51 0 0 1 21 0 1 0 1
0 8.16 163.715 50 0 0 1 21 0 1 0 1
0 8.16 163.715 51 0 0 1 21 0 1 0 1
phys
0 8.16 34 50 0 0 1 21 0 1 0 1
0 7.16 34 50 0 0 1 21 0 1 0 1
0 7.16 163.715 50 0 0 1 21 0 1 0 1
phys
0 8.16 34 50 0 0 1 21 0 1 0 1
0 7.16 163.715 50 0 0 1 21 0 1 0 1
0 8.16 163.715 50 0 0 1 21 0 1 0 1
phys
0 7.16 34 51 0 0 1 21 0 1 0 1
0 8.16 34 51 0 0 1 21 0 1 0 1
0 8.16 163.715 51 0 0 1 21 0 1 0 1
phys
0 7.16 34 51 0 0 1 21 0 1 0 1
0 8.16 163.715 51 0 0 1 21 0 1 0 1
0 7.16 163.715 51 0 0 1 21 0 1 0 1
phys
0 213 -75 42 0 0 1 22 0 1 0 1
0 203 -75 42 0 0 1 22 0 1 0 1
0 203 -75 72 0 0 1 22 0 1 0 1
phys
0 213 -75 42 0 0 1 22 0 1 0 1
0 203 -75 72 0 0 1 22 0 1 0 1
0 213 -75 72 0 0 1 22 0 1 0 1
phys
0 213 -77 72 0 0 1 22 0 1 0 1
0 203 -77 72 0 0 1 22 0 1 0 1
0 203 -77 40 0 0 1 22 0 1 0 1
phys
0 213 -77 72 0 0 1 22 0 1 0 1
0 203 -77 40 0 0 1 22 0 1 0 1
0 213 -77 40 0 0 1 22 0 1 0 1
phys
0 203 -77 72 0 0 1 22 0 1 0 1
0 213 -77 72 0 0 1 22 0 1 0 1
0 213 -75 72 0 0 1 22 0 1 0 1
phys
0 203 -77 72 0 0 1 22 0 1 0 1
0 213 -75 72 0 0 1 22 0 1 0 1
0 203 -75 72 0 0 1 22 0 1 0 1
phys
0 213 -77 40 0 0 1 22 0 1 0 1
0 203 -77 40 0 0 1 22 0 1 0 1
0 203 -75 42 0 0 1 22 0 1 0 1
phys
0 213 -77 40 0 0 1 22 0 1 0 1
0 203 -75 42 0 0 1 22 0 1 0 1
0 213 -75 42 0 0 1 22 0 1 0 1
phys
0 213 -77 72 0 0 1 22 0 1 0 1
0 213 -77 40 0 0 1 22 0 1 0 1
0 213 -75 42 0 0 1 22 0 1 0 1
phys
0 213 -77 72 0 0 1 22 0 1 0 1
0 213 -75 42 0 0 1 22 0 1 0 1
0 213 -75 72 0 0 1 22 0 1 0 1
phys
0 203 -77 40 0 0 1 22 0 1 0 1
0 203 -77 72 0 0 1 22 0 1 0 1
0 203 -75 72 0 0 1 22 0 1 0 1
phys
0 203 -77 40 0 0 1 22 0 1 0 1
0 203 -75 72 0 0 1 22 0 1 0 1
0 203 -75 42 0 0 1 22 0 1 0 1
end
