version 1
nodes
0 "root" -1
end
skeleton
time 0
0 0 0 0 0 0 0
end
triangles
phys
0 -132 -207 9 0 0 1 1 0 1 0 1
0 -147 -207 0 0 0 1 1 0 1 0 1
0 -147 -107 0 0 0 1 1 0 1 0 1
phys
0 -132 -207 9 0 0 1 1 0 1 0 1
0 -147 -107 0 0 0 1 1 0 1 0 1
0 -132 -107 9 0 0 1 1 0 1 0 1
phys
0 -132 -107 9 0 0 1 1 0 1 0 1
0 -147 -107 0 0 0 1 1 0 1 0 1
0 -147 -107 9 0 0 1 1 0 1 0 1
phys
0 -147 -207 9 0 0 1 1 0 1 0 1
0 -147 -207 0 0 0 1 1 0 1 0 1
0 -132 -207 9 0 0 1 1 0 1 0 1
phys
0 -147 -107 9 0 0 1 1 0 1 0 1
0 -147 -107 0 0 0 1 1 0 1 0 1
0 -147 -207 0 0 0 1 1 0 1 0 1
phys
0 -147 -107 9 0 0 1 1 0 1 0 1
0 -147 -207 0 0 0 1 1 0 1 0 1
0 -147 -207 9 0 0 1 1 0 1 0 1
phys
0 -147 -207 9 0 0 1 1 0 1 0 1
0 -132 -207 9 0 0 1 1 0 1 0 1
0 -132 -107 9 0 0 1 1 0 1 0 1
phys
0 -147 -207 9 0 0 1 1 0 1 0 1
0 -132 -107 9 0 0 1 1 0 1 0 1
0 -147 -107 9 0 0 1 1 0 1 0 1
phys
0 15 297 272 0 0 1 2 0 1 0 1
0 15 297 268 0 0 1 2 0 1 0 1
0 13 297 268 0 0 1 2 0 1 0 1
phys
0 15 297 272 0 0 1 2 0 1 0 1
0 13 297 268 0 0 1 2 0 1 0 1
0 13 297 272 0 0 1 2 0 1 0 1
phys
0 15 93 268 0 0 1 2 0 1 0 1
0 15 93 272 0 0 1 2 0 1 0 1
0 13 93 272 0 0 1 2 0 1 0 1
phys
0 15 93 268 0 0 1 2 0 1 0 1
0 13 93 272 0 0 1 2 0 1 0 1
0 13 93 268 0 0 1 2 0 1 0 1
phys
0 13 93 268 0 0 1 2 0 1 0 1
0 13 93 272 0 0 1 2 0 1 0 1
0 13 297 272 0 0 1 2 0 1 0 1
phys
0 13 93 268 0 0 1 2 0 1 0 1
0 13 297 272 0 0 1 2 0 1 0 1
0 13 297 268 0 0 1 2 0 1 0 1
phys
0 15 93 272 0 0 1 2 0 1 0 1
0 15 93 268 0 0 1 2 0 1 0 1
0 15 297 268 0 0 1 2 0 1 0 1
phys
0 15 93 272 0 0 1 2 0 1 0 1
0 15 297 268 0 0 1 2 0 1 0 1
0 15 297 272 0 0 1 2 0 1 0 1
phys
0 15 93 268 0 0 1 2 0 1 0 1
0 13 93 268 0 0 1 2 0 1 0 1
0 13 297 268 0 0 1 2 0 1 0 1
phys
0 15 93 268 0 0 1 2 0 1 0 1
0 13 297 268 0 0 1 2 0 1 0 1
0 15 297 268 0 0 1 2 0 1 0 1
phys
0 13 93 272 0 0 1 2 0 1 0 1
0 15 93 272 0 0 1 2 0 1 0 1
0 15 297 272 0 0 1 2 0 1 0 1
phys
0 13 93 272 0 0 1 2 0 1 0 1
0 15 297 272 0 0 1 2 0 1 0 1
0 13 297 272 0 0 1 2 0 1 0 1
phys
0 15 1 272 0 0 1 3 0 1 0 1
0 15 1 268 0 0 1 3 0 1 0 1
0 13 1 268 0 0 1 3 0 1 0 1
phys
0 15 1 272 0 0 1 3 0 1 0 1
0 13 1 268 0 0 1 3 0 1 0 1
0 13 1 272 0 0 1 3 0 1 0 1
phys
0 15 -203 268 0 0 1 3 0 1 0 1
0 15 -203 272 0 0 1 3 0 1 0 1
0 13 -203 272 0 0 1 3 0 1 0 1
phys
0 15 -203 268 0 0 1 3 0 1 0 1
0 13 -203 272 0 0 1 3 0 1 0 1
0 13 -203 268 0 0 1 3 0 1 0 1
phys
0 13 -203 268 0 0 1 3 0 1 0 1
0 13 -203 272 0 0 1 3 0 1 0 1
0 13 1 272 0 0 1 3 0 1 0 1
phys
0 13 -203 268 0 0 1 3 0 1 0 1
0 13 1 272 0 0 1 3 0 1 0 1
0 13 1 268 0 0 1 3 0 1 0 1
phys
0 15 -203 272 0 0 1 3 0 1 0 1
0 15 -203 268 0 0 1 3 0 1 0 1
0 15 1 268 0 0 1 3 0 1 0 1
phys
0 15 -203 272 0 0 1 3 0 1 0 1
0 15 1 268 0 0 1 3 0 1 0 1
0 15 1 272 0 0 1 3 0 1 0 1
phys
0 15 -203 268 0 0 1 3 0 1 0 1
0 13 -203 268 0 0 1 3 0 1 0 1
0 13 1 268 0 0 1 3 0 1 0 1
phys
0 15 -203 268 0 0 1 3 0 1 0 1
0 13 1 268 0 0 1 3 0 1 0 1
0 15 1 268 0 0 1 3 0 1 0 1
phys
0 13 -203 272 0 0 1 3 0 1 0 1
0 15 -203 272 0 0 1 3 0 1 0 1
0 15 1 272 0 0 1 3 0 1 0 1
phys
0 13 -203 272 0 0 1 3 0 1 0 1
0 15 1 272 0 0 1 3 0 1 0 1
0 13 1 272 0 0 1 3 0 1 0 1
phys
0 147 -295 272 0 0 1 4 0 1 0 1
0 147 -295 268 0 0 1 4 0 1 0 1
0 15 -295 268 0 0 1 4 0 1 0 1
phys
0 147 -295 272 0 0 1 4 0 1 0 1
0 15 -295 268 0 0 1 4 0 1 0 1
0 15 -295 272 0 0 1 4 0 1 0 1
phys
0 147 -297 268 0 0 1 4 0 1 0 1
0 147 -297 272 0 0 1 4 0 1 0 1
0 15 -297 272 0 0 1 4 0 1 0 1
phys
0 147 -297 268 0 0 1 4 0 1 0 1
0 15 -297 272 0 0 1 4 0 1 0 1
0 15 -297 268 0 0 1 4 0 1 0 1
phys
0 15 -297 268 0 0 1 4 0 1 0 1
0 15 -297 272 0 0 1 4 0 1 0 1
0 15 -295 272 0 0 1 4 0 1 0 1
phys
0 15 -297 268 0 0 1 4 0 1 0 1
0 15 -295 272 0 0 1 4 0 1 0 1
0 15 -295 268 0 0 1 4 0 1 0 1
phys
0 147 -297 272 0 0 1 4 0 1 0 1
0 147 -297 268 0 0 1 4 0 1 0 1
0 147 -295 268 0 0 1 4 0 1 0 1
phys
0 147 -297 272 0 0 1 4 0 1 0 1
0 147 -295 268 0 0 1 4 0 1 0 1
0 147 -295 272 0 0 1 4 0 1 0 1
phys
0 147 -297 268 0 0 1 4 0 1 0 1
0 15 -297 268 0 0 1 4 0 1 0 1
0 15 -295 268 0 0 1 4 0 1 0 1
phys
0 147 -297 268 0 0 1 4 0 1 0 1
0 15 -295 268 0 0 1 4 0 1 0 1
0 147 -295 268 0 0 1 4 0 1 0 1
phys
0 15 -297 272 0 0 1 4 0 1 0 1
0 147 -297 272 0 0 1 4 0 1 0 1
0 147 -295 272 0 0 1 4 0 1 0 1
phys
0 15 -297 272 0 0 1 4 0 1 0 1
0 147 -295 272 0 0 1 4 0 1 0 1
0 15 -295 272 0 0 1 4 0 1 0 1
phys
0 3 -207 99 0 0 1 5 0 1 0 1
0 18 -207 99 0 0 1 5 0 1 0 1
0 18 -107 99 0 0 1 5 0 1 0 1
phys
0 3 -207 99 0 0 1 5 0 1 0 1
0 18 -107 99 0 0 1 5 0 1 0 1
0 3 -107 99 0 0 1 5 0 1 0 1
phys
0 3 -107 90 0 0 1 5 0 1 0 1
0 18 -107 99 0 0 1 5 0 1 0 1
0 18 -207 99 0 0 1 5 0 1 0 1
phys
0 3 -107 90 0 0 1 5 0 1 0 1
0 18 -207 99 0 0 1 5 0 1 0 1
0 3 -207 90 0 0 1 5 0 1 0 1
phys
0 3 -107 99 0 0 1 5 0 1 0 1
0 18 -107 99 0 0 1 5 0 1 0 1
0 3 -107 90 0 0 1 5 0 1 0 1
phys
0 18 -207 99 0 0 1 5 0 1 0 1
0 3 -207 99 0 0 1 5 0 1 0 1
0 3 -207 90 0 0 1 5 0 1 0 1
phys
0 3 -207 99 0 0 1 5 0 1 0 1
0 3 -107 99 0 0 1 5 0 1 0 1
0 3 -107 90 0 0 1 5 0 1 0 1
phys
0 3 -207 99 0 0 1 5 0 1 0 1
0 3 -107 90 0 0 1 5 0 1 0 1
0 3 -207 90 0 0 1 5 0 1 0 1
phys
0 15 -201 342 0 0 1 6 0 1 0 1
0 15 -201 272 0 0 1 6 0 1 0 1
0 13 -201 272 0 0 1 6 0 1 0 1
phys
0 15 -201 342 0 0 1 6 0 1 0 1
0 13 -201 272 0 0 1 6 0 1 0 1
0 13 -201 342 0 0 1 6 0 1 0 1
phys
0 15 -203 272 0 0 1 6 0 1 0 1
0 15 -203 342 0 0 1 6 0 1 0 1
0 13 -203 342 0 0 1 6 0 1 0 1
phys
0 15 -203 272 0 0 1 6 0 1 0 1
0 13 -203 342 0 0 1 6 0 1 0 1
0 13 -203 272 0 0 1 6 0 1 0 1
phys
0 13 -203 272 0 0 1 6 0 1 0 1
0 13 -203 342 0 0 1 6 0 1 0 1
0 13 -201 342 0 0 1 6 0 1 0 1
phys
0 13 -203 272 0 0 1 6 0 1 0 1
0 13 -201 342 0 0 1 6 0 1 0 1
0 13 -201 272 0 0 1 6 0 1 0 1
phys
0 15 -203 342 0 0 1 6 0 1 0 1
0 15 -203 272 0 0 1 6 0 1 0 1
0 15 -201 272 0 0 1 6 0 1 0 1
phys
0 15 -203 342 0 0 1 6 0 1 0 1
0 15 -201 272 0 0 1 6 0 1 0 1
0 15 -201 342 0 0 1 6 0 1 0 1
phys
0 15 -203 272 0 0 1 6 0 1 0 1
0 13 -203 272 0 0 1 6 0 1 0 1
0 13 -201 272 0 0 1 6 0 1 0 1
phys
0 15 -203 272 0 0 1 6 0 1 0 1
0 13 -201 272 0 0 1 6 0 1 0 1
0 15 -201 272 0 0 1 6 0 1 0 1
phys
0 13 -203 342 0 0 1 6 0 1 0 1
0 15 -203 342 0 0 1 6 0 1 0 1
0 15 -201 342 0 0 1 6 0 1 0 1
phys
0 13 -203 342 0 0 1 6 0 1 0 1
0 15 -201 342 0 0 1 6 0 1 0 1
0 13 -201 342 0 0 1 6 0 1 0 1
phys
0 147 93 268 0 0 1 7 0 1 0 1
0 147 93 272 0 0 1 7 0 1 0 1
0 15 93 272 0 0 1 7 0 1 0 1
phys
0 147 93 268 0 0 1 7 0 1 0 1
0 15 93 272 0 0 1 7 0 1 0 1
0 15 93 268 0 0 1 7 0 1 0 1
phys
0 15 93 268 0 0 1 7 0 1 0 1
0 15 93 272 0 0 1 7 0 1 0 1
0 15 95 272 0 0 1 7 0 1 0 1
phys
0 15 93 268 0 0 1 7 0 1 0 1
0 15 95 272 0 0 1 7 0 1 0 1
0 15 95 268 0 0 1 7 0 1 0 1
phys
0 147 93 272 0 0 1 7 0 1 0 1
0 147 93 268 0 0 1 7 0 1 0 1
0 147 95 268 0 0 1 7 0 1 0 1
phys
0 147 93 272 0 0 1 7 0 1 0 1
0 147 95 268 0 0 1 7 0 1 0 1
0 147 95 272 0 0 1 7 0 1 0 1
phys
0 147 93 268 0 0 1 7 0 1 0 1
0 15 93 268 0 0 1 7 0 1 0 1
0 15 95 268 0 0 1 7 0 1 0 1
phys
0 147 93 268 0 0 1 7 0 1 0 1
0 15 95 268 0 0 1 7 0 1 0 1
0 147 95 268 0 0 1 7 0 1 0 1
phys
0 15 93 272 0 0 1 7 0 1 0 1
0 147 93 272 0 0 1 7 0 1 0 1
0 147 95 272 0 0 1 7 0 1 0 1
phys
0 15 93 272 0 0 1 7 0 1 0 1
0 147 95 272 0 0 1 7 0 1 0 1
0 15 95 272 0 0 1 7 0 1 0 1
phys
0 147 95 272 0 0 1 7 0 1 0 1
0 147 95 268 0 0 1 7 0 1 0 1
0 15 95 268 0 0 1 7 0 1 0 1
phys
0 147 95 272 0 0 1 7 0 1 0 1
0 15 95 268 0 0 1 7 0 1 0 1
0 15 95 272 0 0 1 7 0 1 0 1
phys
0 -117 -207 27 0 0 1 8 0 1 0 1
0 -102 -207 27 0 0 1 8 0 1 0 1
0 -102 -107 27 0 0 1 8 0 1 0 1
phys
0 -117 -207 27 0 0 1 8 0 1 0 1
0 -102 -107 27 0 0 1 8 0 1 0 1
0 -117 -107 27 0 0 1 8 0 1 0 1
phys
0 -117 -107 18 0 0 1 8 0 1 0 1
0 -102 -107 27 0 0 1 8 0 1 0 1
0 -102 -207 27 0 0 1 8 0 1 0 1
phys
0 -117 -107 18 0 0 1 8 0 1 0 1
0 -102 -207 27 0 0 1 8 0 1 0 1
0 -117 -207 18 0 0 1 8 0 1 0 1
phys
0 -117 -107 27 0 0 1 8 0 1 0 1
0 -102 -107 27 0 0 1 8 0 1 0 1
0 -117 -107 18 0 0 1 8 0 1 0 1
phys
0 -102 -207 27 0 0 1 8 0 1 0 1
0 -117 -207 27 0 0 1 8 0 1 0 1
0 -117 -207 18 0 0 1 8 0 1 0 1
phys
0 -117 -207 27 0 0 1 8 0 1 0 1
0 -117 -107 27 0 0 1 8 0 1 0 1
0 -117 -107 18 0 0 1 8 0 1 0 1
phys
0 -117 -207 27 0 0 1 8 0 1 0 1
0 -117 -107 18 0 0 1 8 0 1 0 1
0 -117 -207 18 0 0 1 8 0 1 0 1
phys
0 18 -107 99 0 0 1 9 0 1 0 1
0 18 -107 108 0 0 1 9 0 1 0 1
0 33 -107 108 0 0 1 9 0 1 0 1
phys
0 33 -207 108 0 0 1 9 0 1 0 1
0 18 -207 108 0 0 1 9 0 1 0 1
0 18 -207 99 0 0 1 9 0 1 0 1
phys
0 18 -207 99 0 0 1 9 0 1 0 1
0 18 -207 108 0 0 1 9 0 1 0 1
0 18 -107 108 0 0 1 9 0 1 0 1
phys
0 18 -207 99 0 0 1 9 0 1 0 1
0 18 -107 108 0 0 1 9 0 1 0 1
0 18 -107 99 0 0 1 9 0 1 0 1
phys
0 18 -207 108 0 0 1 9 0 1 0 1
0 33 -207 108 0 0 1 9 0 1 0 1
0 33 -107 108 0 0 1 9 0 1 0 1
phys
0 18 -207 108 0 0 1 9 0 1 0 1
0 33 -107 108 0 0 1 9 0 1 0 1
0 18 -107 108 0 0 1 9 0 1 0 1
phys
0 33 -207 108 0 0 1 9 0 1 0 1
0 18 -207 99 0 0 1 9 0 1 0 1
0 18 -107 99 0 0 1 9 0 1 0 1
phys
0 33 -207 108 0 0 1 9 0 1 0 1
0 18 -107 99 0 0 1 9 0 1 0 1
0 33 -107 108 0 0 1 9 0 1 0 1
phys
0 -87 -207 45 0 0 1 10 0 1 0 1
0 -72 -207 45 0 0 1 10 0 1 0 1
0 -72 -107 45 0 0 1 10 0 1 0 1
phys
0 -87 -207 45 0 0 1 10 0 1 0 1
0 -72 -107 45 0 0 1 10 0 1 0 1
0 -87 -107 45 0 0 1 10 0 1 0 1
phys
0 -87 -107 36 0 0 1 10 0 1 0 1
0 -72 -107 45 0 0 1 10 0 1 0 1
0 -72 -207 45 0 0 1 10 0 1 0 1
phys
0 -87 -107 36 0 0 1 10 0 1 0 1
0 -72 -207 45 0 0 1 10 0 1 0 1
0 -87 -207 36 0 0 1 10 0 1 0 1
phys
0 -87 -107 45 0 0 1 10 0 1 0 1
0 -72 -107 45 0 0 1 10 0 1 0 1
0 -87 -107 36 0 0 1 10 0 1 0 1
phys
0 -72 -207 45 0 0 1 10 0 1 0 1
0 -87 -207 45 0 0 1 10 0 1 0 1
0 -87 -207 36 0 0 1 10 0 1 0 1
phys
0 -87 -207 45 0 0 1 10 0 1 0 1
0 -87 -107 45 0 0 1 10 0 1 0 1
0 -87 -107 36 0 0 1 10 0 1 0 1
phys
0 -87 -207 45 0 0 1 10 0 1 0 1
0 -87 -107 36 0 0 1 10 0 1 0 1
0 -87 -207 36 0 0 1 10 0 1 0 1
phys
0 -42 -207 72 0 0 1 11 0 1 0 1
0 -27 -207 72 0 0 1 11 0 1 0 1
0 -27 -107 72 0 0 1 11 0 1 0 1
phys
0 -42 -207 72 0 0 1 11 0 1 0 1
0 -27 -107 72 0 0 1 11 0 1 0 1
0 -42 -107 72 0 0 1 11 0 1 0 1
phys
0 -42 -107 63 0 0 1 11 0 1 0 1
0 -27 -107 72 0 0 1 11 0 1 0 1
0 -27 -207 72 0 0 1 11 0 1 0 1
phys
0 -42 -107 63 0 0 1 11 0 1 0 1
0 -27 -207 72 0 0 1 11 0 1 0 1
0 -42 -207 63 0 0 1 11 0 1 0 1
phys
0 -42 -107 72 0 0 1 11 0 1 0 1
0 -27 -107 72 0 0 1 11 0 1 0 1
0 -42 -107 63 0 0 1 11 0 1 0 1
phys
0 -27 -207 72 0 0 1 11 0 1 0 1
0 -42 -207 72 0 0 1 11 0 1 0 1
0 -42 -207 63 0 0 1 11 0 1 0 1
phys
0 -42 -207 72 0 0 1 11 0 1 0 1
0 -42 -107 72 0 0 1 11 0 1 0 1
0 -42 -107 63 0 0 1 11 0 1 0 1
phys
0 -42 -207 72 0 0 1 11 0 1 0 1
0 -42 -107 63 0 0 1 11 0 1 0 1
0 -42 -207 63 0 0 1 11 0 1 0 1
phys
0 33 -107 108 0 0 1 12 0 1 0 1
0 33 -107 117 0 0 1 12 0 1 0 1
0 48 -107 117 0 0 1 12 0 1 0 1
phys
0 48 -207 117 0 0 1 12 0 1 0 1
0 33 -207 117 0 0 1 12 0 1 0 1
0 33 -207 108 0 0 1 12 0 1 0 1
phys
0 33 -207 108 0 0 1 12 0 1 0 1
0 33 -207 117 0 0 1 12 0 1 0 1
0 33 -107 117 0 0 1 12 0 1 0 1
phys
0 33 -207 108 0 0 1 12 0 1 0 1
0 33 -107 117 0 0 1 12 0 1 0 1
0 33 -107 108 0 0 1 12 0 1 0 1
phys
0 33 -207 117 0 0 1 12 0 1 0 1
0 48 -207 117 0 0 1 12 0 1 0 1
0 48 -107 117 0 0 1 12 0 1 0 1
phys
0 33 -207 117 0 0 1 12 0 1 0 1
0 48 -107 117 0 0 1 12 0 1 0 1
0 33 -107 117 0 0 1 12 0 1 0 1
phys
0 48 -207 117 0 0 1 12 0 1 0 1
0 33 -207 108 0 0 1 12 0 1 0 1
0 33 -107 108 0 0 1 12 0 1 0 1
phys
0 48 -207 117 0 0 1 12 0 1 0 1
0 33 -107 108 0 0 1 12 0 1 0 1
0 48 -107 117 0 0 1 12 0 1 0 1
phys
0 -102 -107 27 0 0 1 13 0 1 0 1
0 -102 -107 36 0 0 1 13 0 1 0 1
0 -87 -107 36 0 0 1 13 0 1 0 1
phys
0 -87 -207 36 0 0 1 13 0 1 0 1
0 -102 -207 36 0 0 1 13 0 1 0 1
0 -102 -207 27 0 0 1 13 0 1 0 1
phys
0 -102 -207 27 0 0 1 13 0 1 0 1
0 -102 -207 36 0 0 1 13 0 1 0 1
0 -102 -107 36 0 0 1 13 0 1 0 1
phys
0 -102 -207 27 0 0 1 13 0 1 0 1
0 -102 -107 36 0 0 1 13 0 1 0 1
0 -102 -107 27 0 0 1 13 0 1 0 1
phys
0 -102 -207 36 0 0 1 13 0 1 0 1
0 -87 -207 36 0 0 1 13 0 1 0 1
0 -87 -107 36 0 0 1 13 0 1 0 1
phys
0 -102 -207 36 0 0 1 13 0 1 0 1
0 -87 -107 36 0 0 1 13 0 1 0 1
0 -102 -107 36 0 0 1 13 0 1 0 1
phys
0 -87 -207 36 0 0 1 13 0 1 0 1
0 -102 -207 27 0 0 1 13 0 1 0 1
0 -102 -107 27 0 0 1 13 0 1 0 1
phys
0 -87 -207 36 0 0 1 13 0 1 0 1
0 -102 -107 27 0 0 1 13 0 1 0 1
0 -87 -107 36 0 0 1 13 0 1 0 1
phys
0 147 1 272 0 0 1 14 0 1 0 1
0 147 1 268 0 0 1 14 0 1 0 1
0 15 1 268 0 0 1 14 0 1 0 1
phys
0 147 1 272 0 0 1 14 0 1 0 1
0 15 1 268 0 0 1 14 0 1 0 1
0 15 1 272 0 0 1 14 0 1 0 1
phys
0 147 -1 268 0 0 1 14 0 1 0 1
0 147 -1 272 0 0 1 14 0 1 0 1
0 15 -1 272 0 0 1 14 0 1 0 1
phys
0 147 -1 268 0 0 1 14 0 1 0 1
0 15 -1 272 0 0 1 14 0 1 0 1
0 15 -1 268 0 0 1 14 0 1 0 1
phys
0 15 -1 268 0 0 1 14 0 1 0 1
0 15 -1 272 0 0 1 14 0 1 0 1
0 15 1 272 0 0 1 14 0 1 0 1
phys
0 15 -1 268 0 0 1 14 0 1 0 1
0 15 1 272 0 0 1 14 0 1 0 1
0 15 1 268 0 0 1 14 0 1 0 1
phys
0 147 -1 272 0 0 1 14 0 1 0 1
0 147 -1 268 0 0 1 14 0 1 0 1
0 147 1 268 0 0 1 14 0 1 0 1
phys
0 147 -1 272 0 0 1 14 0 1 0 1
0 147 1 268 0 0 1 14 0 1 0 1
0 147 1 272 0 0 1 14 0 1 0 1
phys
0 147 -1 268 0 0 1 14 0 1 0 1
0 15 -1 268 0 0 1 14 0 1 0 1
0 15 1 268 0 0 1 14 0 1 0 1
phys
0 147 -1 268 0 0 1 14 0 1 0 1
0 15 1 268 0 0 1 14 0 1 0 1
0 147 1 268 0 0 1 14 0 1 0 1
phys
0 15 -1 272 0 0 1 14 0 1 0 1
0 147 -1 272 0 0 1 14 0 1 0 1
0 147 1 272 0 0 1 14 0 1 0 1
phys
0 15 -1 272 0 0 1 14 0 1 0 1
0 147 1 272 0 0 1 14 0 1 0 1
0 15 1 272 0 0 1 14 0 1 0 1
phys
0 147 -203 268 0 0 1 15 0 1 0 1
0 147 -203 272 0 0 1 15 0 1 0 1
0 15 -203 272 0 0 1 15 0 1 0 1
phys
0 147 -203 268 0 0 1 15 0 1 0 1
0 15 -203 272 0 0 1 15 0 1 0 1
0 15 -203 268 0 0 1 15 0 1 0 1
phys
0 15 -203 268 0 0 1 15 0 1 0 1
0 15 -203 272 0 0 1 15 0 1 0 1
0 15 -201 272 0 0 1 15 0 1 0 1
phys
0 15 -203 268 0 0 1 15 0 1 0 1
0 15 -201 272 0 0 1 15 0 1 0 1
0 15 -201 268 0 0 1 15 0 1 0 1
phys
0 147 -203 272 0 0 1 15 0 1 0 1
0 147 -203 268 0 0 1 15 0 1 0 1
0 147 -201 268 0 0 1 15 0 1 0 1
phys
0 147 -203 272 0 0 1 15 0 1 0 1
0 147 -201 268 0 0 1 15 0 1 0 1
0 147 -201 272 0 0 1 15 0 1 0 1
phys
0 147 -203 268 0 0 1 15 0 1 0 1
0 15 -203 268 0 0 1 15 0 1 0 1
0 15 -201 268 0 0 1 15 0 1 0 1
phys
0 147 -203 268 0 0 1 15 0 1 0 1
0 15 -201 268 0 0 1 15 0 1 0 1
0 147 -201 268 0 0 1 15 0 1 0 1
phys
0 15 -203 272 0 0 1 15 0 1 0 1
0 147 -203 272 0 0 1 15 0 1 0 1
0 147 -201 272 0 0 1 15 0 1 0 1
phys
0 15 -203 272 0 0 1 15 0 1 0 1
0 147 -201 272 0 0 1 15 0 1 0 1
0 15 -201 272 0 0 1 15 0 1 0 1
phys
0 147 -201 272 0 0 1 15 0 1 0 1
0 147 -201 268 0 0 1 15 0 1 0 1
0 15 -201 268 0 0 1 15 0 1 0 1
phys
0 147 -201 272 0 0 1 15 0 1 0 1
0 15 -201 268 0 0 1 15 0 1 0 1
0 15 -201 272 0 0 1 15 0 1 0 1
phys
0 -27 -107 72 0 0 1 16 0 1 0 1
0 -27 -107 81 0 0 1 16 0 1 0 1
0 -12 -107 81 0 0 1 16 0 1 0 1
phys
0 -12 -207 81 0 0 1 16 0 1 0 1
0 -27 -207 81 0 0 1 16 0 1 0 1
0 -27 -207 72 0 0 1 16 0 1 0 1
phys
0 -27 -207 72 0 0 1 16 0 1 0 1
0 -27 -207 81 0 0 1 16 0 1 0 1
0 -27 -107 81 0 0 1 16 0 1 0 1
phys
0 -27 -207 72 0 0 1 16 0 1 0 1
0 -27 -107 81 0 0 1 16 0 1 0 1
0 -27 -107 72 0 0 1 16 0 1 0 1
phys
0 -27 -207 81 0 0 1 16 0 1 0 1
0 -12 -207 81 0 0 1 16 0 1 0 1
0 -12 -107 81 0 0 1 16 0 1 0 1
phys
0 -27 -207 81 0 0 1 16 0 1 0 1
0 -12 -107 81 0 0 1 16 0 1 0 1
0 -27 -107 81 0 0 1 16 0 1 0 1
phys
0 -12 -207 81 0 0 1 16 0 1 0 1
0 -27 -207 72 0 0 1 16 0 1 0 1
0 -27 -107 72 0 0 1 16 0 1 0 1
phys
0 -12 -207 81 0 0 1 16 0 1 0 1
0 -27 -107 72 0 0 1 16 0 1 0 1
0 -12 -107 81 0 0 1 16 0 1 0 1
phys
0 13 -1 342 0 0 1 17 0 1 0 1
0 15 -1 342 0 0 1 17 0 1 0 1
0 15 1 342 0 0 1 17 0 1 0 1
phys
0 13 -1 342 0 0 1 17 0 1 0 1
0 15 1 342 0 0 1 17 0 1 0 1
0 13 1 342 0 0 1 17 0 1 0 1
phys
0 13 1 272 0 0 1 17 0 1 0 1
0 13 1 342 0 0 1 17 0 1 0 1
0 15 1 342 0 0 1 17 0 1 0 1
phys
0 13 1 272 0 0 1 17 0 1 0 1
0 15 1 342 0 0 1 17 0 1 0 1
0 15 1 272 0 0 1 17 0 1 0 1
phys
0 15 -1 272 0 0 1 17 0 1 0 1
0 15 -1 342 0 0 1 17 0 1 0 1
0 13 -1 342 0 0 1 17 0 1 0 1
phys
0 15 -1 272 0 0 1 17 0 1 0 1
0 13 -1 342 0 0 1 17 0 1 0 1
0 13 -1 272 0 0 1 17 0 1 0 1
phys
0 13 -1 272 0 0 1 17 0 1 0 1
0 13 -1 342 0 0 1 17 0 1 0 1
0 13 1 342 0 0 1 17 0 1 0 1
phys
0 13 -1 272 0 0 1 17 0 1 0 1
0 13 1 342 0 0 1 17 0 1 0 1
0 13 1 272 0 0 1 17 0 1 0 1
phys
0 15 1 272 0 0 1 17 0 1 0 1
0 15 1 342 0 0 1 17 0 1 0 1
0 15 -1 342 0 0 1 17 0 1 0 1
phys
0 15 1 272 0 0 1 17 0 1 0 1
0 15 -1 342 0 0 1 17 0 1 0 1
0 15 -1 272 0 0 1 17 0 1 0 1
phys
0 15 -1 272 0 0 1 17 0 1 0 1
0 13 -1 272 0 0 1 17 0 1 0 1
0 13 1 272 0 0 1 17 0 1 0 1
phys
0 15 -1 272 0 0 1 17 0 1 0 1
0 13 1 272 0 0 1 17 0 1 0 1
0 15 1 272 0 0 1 17 0 1 0 1
phys
0 15 93 272 0 0 1 18 0 1 0 1
0 15 95 272 0 0 1 18 0 1 0 1
0 15 95 342 0 0 1 18 0 1 0 1
phys
0 15 93 272 0 0 1 18 0 1 0 1
0 15 95 342 0 0 1 18 0 1 0 1
0 15 93 342 0 0 1 18 0 1 0 1
phys
0 13 95 272 0 0 1 18 0 1 0 1
0 15 95 272 0 0 1 18 0 1 0 1
0 15 93 272 0 0 1 18 0 1 0 1
phys
0 13 95 272 0 0 1 18 0 1 0 1
0 15 93 272 0 0 1 18 0 1 0 1
0 13 93 272 0 0 1 18 0 1 0 1
phys
0 13 93 342 0 0 1 18 0 1 0 1
0 15 93 342 0 0 1 18 0 1 0 1
0 15 95 342 0 0 1 18 0 1 0 1
phys
0 13 93 342 0 0 1 18 0 1 0 1
0 15 95 342 0 0 1 18 0 1 0 1
0 13 95 342 0 0 1 18 0 1 0 1
phys
0 15 95 342 0 0 1 18 0 1 0 1
0 15 95 272 0 0 1 18 0 1 0 1
0 13 95 272 0 0 1 18 0 1 0 1
phys
0 15 95 342 0 0 1 18 0 1 0 1
0 13 95 272 0 0 1 18 0 1 0 1
0 13 95 342 0 0 1 18 0 1 0 1
phys
0 15 93 272 0 0 1 18 0 1 0 1
0 15 93 342 0 0 1 18 0 1 0 1
0 13 93 342 0 0 1 18 0 1 0 1
phys
0 15 93 272 0 0 1 18 0 1 0 1
0 13 93 342 0 0 1 18 0 1 0 1
0 13 93 272 0 0 1 18 0 1 0 1
phys
0 13 93 342 0 0 1 18 0 1 0 1
0 13 95 342 0 0 1 18 0 1 0 1
0 13 95 272 0 0 1 18 0 1 0 1
phys
0 13 93 342 0 0 1 18 0 1 0 1
0 13 95 272 0 0 1 18 0 1 0 1
0 13 93 272 0 0 1 18 0 1 0 1
phys
0 15 -295 342 0 0 1 19 0 1 0 1
0 15 -295 272 0 0 1 19 0 1 0 1
0 13 -295 272 0 0 1 19 0 1 0 1
phys
0 15 -295 342 0 0 1 19 0 1 0 1
0 13 -295 272 0 0 1 19 0 1 0 1
0 13 -295 342 0 0 1 19 0 1 0 1
phys
0 15 -297 272 0 0 1 19 0 1 0 1
0 15 -297 342 0 0 1 19 0 1 0 1
0 13 -297 342 0 0 1 19 0 1 0 1
phys
0 15 -297 272 0 0 1 19 0 1 0 1
0 13 -297 342 0 0 1 19 0 1 0 1
0 13 -297 272 0 0 1 19 0 1 0 1
phys
0 13 -297 272 0 0 1 19 0 1 0 1
0 13 -297 342 0 0 1 19 0 1 0 1
0 13 -295 342 0 0 1 19 0 1 0 1
phys
0 13 -297 272 0 0 1 19 0 1 0 1
0 13 -295 342 0 0 1 19 0 1 0 1
0 13 -295 272 0 0 1 19 0 1 0 1
phys
0 15 -297 342 0 0 1 19 0 1 0 1
0 15 -297 272 0 0 1 19 0 1 0 1
0 15 -295 272 0 0 1 19 0 1 0 1
phys
0 15 -297 342 0 0 1 19 0 1 0 1
0 15 -295 272 0 0 1 19 0 1 0 1
0 15 -295 342 0 0 1 19 0 1 0 1
phys
0 15 -297 272 0 0 1 19 0 1 0 1
0 13 -297 272 0 0 1 19 0 1 0 1
0 13 -295 272 0 0 1 19 0 1 0 1
phys
0 15 -297 272 0 0 1 19 0 1 0 1
0 13 -295 272 0 0 1 19 0 1 0 1
0 15 -295 272 0 0 1 19 0 1 0 1
phys
0 13 -297 342 0 0 1 19 0 1 0 1
0 15 -297 342 0 0 1 19 0 1 0 1
0 15 -295 342 0 0 1 19 0 1 0 1
phys
0 13 -297 342 0 0 1 19 0 1 0 1
0 15 -295 342 0 0 1 19 0 1 0 1
0 13 -295 342 0 0 1 19 0 1 0 1
phys
0 -132 -107 9 0 0 1 20 0 1 0 1
0 -132 -107 18 0 0 1 20 0 1 0 1
0 -117 -107 18 0 0 1 20 0 1 0 1
phys
0 -117 -207 18 0 0 1 20 0 1 0 1
0 -132 -207 18 0 0 1 20 0 1 0 1
0 -132 -207 9 0 0 1 20 0 1 0 1
phys
0 -132 -207 9 0 0 1 20 0 1 0 1
0 -132 -207 18 0 0 1 20 0 1 0 1
0 -132 -107 18 0 0 1 20 0 1 0 1
phys
0 -132 -207 9 0 0 1 20 0 1 0 1
0 -132 -107 18 0 0 1 20 0 1 0 1
0 -132 -107 9 0 0 1 20 0 1 0 1
phys
0 -132 -207 18 0 0 1 20 0 1 0 1
0 -117 -207 18 0 0 1 20 0 1 0 1
0 -117 -107 18 0 0 1 20 0 1 0 1
phys
0 -132 -207 18 0 0 1 20 0 1 0 1
0 -117 -107 18 0 0 1 20 0 1 0 1
0 -132 -107 18 0 0 1 20 0 1 0 1
phys
0 -117 -207 18 0 0 1 20 0 1 0 1
0 -132 -207 9 0 0 1 20 0 1 0 1
0 -132 -107 9 0 0 1 20 0 1 0 1
phys
0 -117 -207 18 0 0 1 20 0 1 0 1
0 -132 -107 9 0 0 1 20 0 1 0 1
0 -117 -107 18 0 0 1 20 0 1 0 1
phys
0 -12 -107 81 0 0 1 21 0 1 0 1
0 -12 -107 90 0 0 1 21 0 1 0 1
0 3 -107 90 0 0 1 21 0 1 0 1
phys
0 3 -207 90 0 0 1 21 0 1 0 1
0 -12 -207 90 0 0 1 21 0 1 0 1
0 -12 -207 81 0 0 1 21 0 1 0 1
phys
0 -12 -207 81 0 0 1 21 0 1 0 1
0 -12 -207 90 0 0 1 21 0 1 0 1
0 -12 -107 90 0 0 1 21 0 1 0 1
phys
0 -12 -207 81 0 0 1 21 0 1 0 1
0 -12 -107 90 0 0 1 21 0 1 0 1
0 -12 -107 81 0 0 1 21 0 1 0 1
phys
0 -12 -207 90 0 0 1 21 0 1 0 1
0 3 -207 90 0 0 1 21 0 1 0 1
0 3 -107 90 0 0 1 21 0 1 0 1
phys
0 -12 -207 90 0 0 1 21 0 1 0 1
0 3 -107 90 0 0 1 21 0 1 0 1
0 -12 -107 90 0 0 1 21 0 1 0 1
phys
0 3 -207 90 0 0 1 21 0 1 0 1
0 -12 -207 81 0 0 1 21 0 1 0 1
0 -12 -107 81 0 0 1 21 0 1 0 1
phys
0 3 -207 90 0 0 1 21 0 1 0 1
0 -12 -107 81 0 0 1 21 0 1 0 1
0 3 -107 90 0 0 1 21 0 1 0 1
phys
0 -57 -207 63 0 0 1 22 0 1 0 1
0 -42 -207 63 0 0 1 22 0 1 0 1
0 -42 -107 63 0 0 1 22 0 1 0 1
phys
0 -57 -207 63 0 0 1 22 0 1 0 1
0 -42 -107 63 0 0 1 22 0 1 0 1
0 -57 -107 63 0 0 1 22 0 1 0 1
phys
0 -57 -107 54 0 0 1 22 0 1 0 1
0 -42 -107 63 0 0 1 22 0 1 0 1
0 -42 -207 63 0 0 1 22 0 1 0 1
phys
0 -57 -107 54 0 0 1 22 0 1 0 1
0 -42 -207 63 0 0 1 22 0 1 0 1
0 -57 -207 54 0 0 1 22 0 1 0 1
phys
0 -57 -107 63 0 0 1 22 0 1 0 1
0 -42 -107 63 0 0 1 22 0 1 0 1
0 -57 -107 54 0 0 1 22 0 1 0 1
phys
0 -42 -207 63 0 0 1 22 0 1 0 1
0 -57 -207 63 0 0 1 22 0 1 0 1
0 -57 -207 54 0 0 1 22 0 1 0 1
phys
0 -57 -207 63 0 0 1 22 0 1 0 1
0 -57 -107 63 0 0 1 22 0 1 0 1
0 -57 -107 54 0 0 1 22 0 1 0 1
phys
0 -57 -207 63 0 0 1 22 0 1 0 1
0 -57 -107 54 0 0 1 22 0 1 0 1
0 -57 -207 54 0 0 1 22 0 1 0 1
phys
0 -72 -107 45 0 0 1 23 0 1 0 1
0 -72 -107 54 0 0 1 23 0 1 0 1
0 -57 -107 54 0 0 1 23 0 1 0 1
phys
0 -57 -207 54 0 0 1 23 0 1 0 1
0 -72 -207 54 0 0 1 23 0 1 0 1
0 -72 -207 45 0 0 1 23 0 1 0 1
phys
0 -72 -207 45 0 0 1 23 0 1 0 1
0 -72 -207 54 0 0 1 23 0 1 0 1
0 -72 -107 54 0 0 1 23 0 1 0 1
phys
0 -72 -207 45 0 0 1 23 0 1 0 1
0 -72 -107 54 0 0 1 23 0 1 0 1
0 -72 -107 45 0 0 1 23 0 1 0 1
phys
0 -72 -207 54 0 0 1 23 0 1 0 1
0 -57 -207 54 0 0 1 23 0 1 0 1
0 -57 -107 54 0 0 1 23 0 1 0 1
phys
0 -72 -207 54 0 0 1 23 0 1 0 1
0 -57 -107 54 0 0 1 23 0 1 0 1
0 -72 -107 54 0 0 1 23 0 1 0 1
phys
0 -57 -207 54 0 0 1 23 0 1 0 1
0 -72 -207 45 0 0 1 23 0 1 0 1
0 -72 -107 45 0 0 1 23 0 1 0 1
phys
0 -57 -207 54 0 0 1 23 0 1 0 1
0 -72 -107 45 0 0 1 23 0 1 0 1
0 -57 -107 54 0 0 1 23 0 1 0 1
phys
0 48 -207 126 0 0 1 24 0 1 0 1
0 63 -207 126 0 0 1 24 0 1 0 1
0 63 -107 126 0 0 1 24 0 1 0 1
phys
0 48 -207 126 0 0 1 24 0 1 0 1
0 63 -107 126 0 0 1 24 0 1 0 1
0 48 -107 126 0 0 1 24 0 1 0 1
phys
0 48 -107 117 0 0 1 24 0 1 0 1
0 63 -107 126 0 0 1 24 0 1 0 1
0 63 -207 126 0 0 1 24 0 1 0 1
phys
0 48 -107 117 0 0 1 24 0 1 0 1
0 63 -207 126 0 0 1 24 0 1 0 1
0 48 -207 117 0 0 1 24 0 1 0 1
phys
0 48 -107 126 0 0 1 24 0 1 0 1
0 63 -107 126 0 0 1 24 0 1 0 1
0 48 -107 117 0 0 1 24 0 1 0 1
phys
0 63 -207 126 0 0 1 24 0 1 0 1
0 48 -207 126 0 0 1 24 0 1 0 1
0 48 -207 117 0 0 1 24 0 1 0 1
phys
0 48 -207 126 0 0 1 24 0 1 0 1
0 48 -107 126 0 0 1 24 0 1 0 1
0 48 -107 117 0 0 1 24 0 1 0 1
phys
0 48 -207 126 0 0 1 24 0 1 0 1
0 48 -107 117 0 0 1 24 0 1 0 1
0 48 -207 117 0 0 1 24 0 1 0 1
end
