version 1
nodes
0 "root" -1
end
skeleton
time 0
0 0 0 0 0 0 0
end
triangles
metal_metalwall074a
0 104 -18 90 -1 0 0 -2.375 -23.8125 1 0 1
0 104 -18 130 -1 0 0 -2.0625 -23.8125 1 0 1
0 104 -16 130 -1 0 0 -2.0625 -23.796875 1 0 1
metal_metalwall074a
0 104 -18 90 -1 0 0 -2.375 -23.8125 1 0 1
0 104 -16 130 -1 0 0 -2.0625 -23.796875 1 0 1
0 104 -16 90 -1 0 0 -2.375 -23.796875 1 0 1
metal_metalwall074a
0 106 -18 130 1 0 0 -2.0625 -23.8125 1 0 1
0 106 -18 90 1 0 0 -2.375 -23.8125 1 0 1
0 106 -16 90 1 0 0 -2.375 -23.796875 1 0 1
metal_metalwall074a
0 106 -18 130 1 0 0 -2.0625 -23.8125 1 0 1
0 106 -16 90 1 0 0 -2.375 -23.796875 1 0 1
0 106 -16 130 1 0 0 -2.0625 -23.796875 1 0 1
metal_metalwall074a
0 106 -18 90 0 -1 0 -2.4375 43.84375 1 0 1
0 106 -18 130 0 -1 0 -2.125 43.84375 1 0 1
0 104 -18 130 0 -1 0 -2.125 43.828125 1 0 1
metal_metalwall074a
0 106 -18 90 0 -1 0 -2.4375 43.84375 1 0 1
0 104 -18 130 0 -1 0 -2.125 43.828125 1 0 1
0 104 -18 90 0 -1 0 -2.4375 43.828125 1 0 1
metal_metalwall074a
0 106 -16 130 0 1 0 -2.125 43.84375 1 0 1
0 106 -16 90 0 1 0 -2.4375 43.84375 1 0 1
0 104 -16 90 0 1 0 -2.4375 43.828125 1 0 1
metal_metalwall074a
0 106 -16 130 0 1 0 -2.125 43.84375 1 0 1
0 104 -16 90 0 1 0 -2.4375 43.828125 1 0 1
0 104 -16 130 0 1 0 -2.125 43.828125 1 0 1
halflife_basetrim02
0 104 -18 90 0 0 -1 22.663641 -156.925 1 0 1
0 104 -16 90 0 0 -1 22.649565 -156.925 1 0 1
0 106 -16 90 0 0 -1 22.649565 -156.975 1 0 1
halflife_basetrim02
0 104 -18 90 0 0 -1 22.663641 -156.925 1 0 1
0 106 -16 90 0 0 -1 22.649565 -156.975 1 0 1
0 106 -18 90 0 0 -1 22.663641 -156.975 1 0 1
halflife_basetrim02
0 106 -18 130 0 0 1 22.663641 -154.975 1 0 1
0 106 -16 130 0 0 1 22.649565 -154.975 1 0 1
0 104 -16 130 0 0 1 22.649565 -154.925 1 0 1
halflife_basetrim02
0 106 -18 130 0 0 1 22.663641 -154.975 1 0 1
0 104 -16 130 0 0 1 22.649565 -154.925 1 0 1
0 104 -18 130 0 0 1 22.663641 -154.925 1 0 1
metal_metalwall074a
0 104 46 90 -1 0 0 -2.375 -23.8125 1 0 1
0 104 46 130 -1 0 0 -2.0625 -23.8125 1 0 1
0 104 48 130 -1 0 0 -2.0625 -23.796875 1 0 1
metal_metalwall074a
0 104 46 90 -1 0 0 -2.375 -23.8125 1 0 1
0 104 48 130 -1 0 0 -2.0625 -23.796875 1 0 1
0 104 48 90 -1 0 0 -2.375 -23.796875 1 0 1
metal_metalwall074a
0 106 46 130 1 0 0 -2.0625 -23.8125 1 0 1
0 106 46 90 1 0 0 -2.375 -23.8125 1 0 1
0 106 48 90 1 0 0 -2.375 -23.796875 1 0 1
metal_metalwall074a
0 106 46 130 1 0 0 -2.0625 -23.8125 1 0 1
0 106 48 90 1 0 0 -2.375 -23.796875 1 0 1
0 106 48 130 1 0 0 -2.0625 -23.796875 1 0 1
metal_metalwall074a
0 106 46 90 0 -1 0 -2.4375 43.84375 1 0 1
0 106 46 130 0 -1 0 -2.125 43.84375 1 0 1
0 104 46 130 0 -1 0 -2.125 43.828125 1 0 1
metal_metalwall074a
0 106 46 90 0 -1 0 -2.4375 43.84375 1 0 1
0 104 46 130 0 -1 0 -2.125 43.828125 1 0 1
0 104 46 90 0 -1 0 -2.4375 43.828125 1 0 1
metal_metalwall074a
0 106 48 130 0 1 0 -2.125 43.84375 1 0 1
0 106 48 90 0 1 0 -2.4375 43.84375 1 0 1
0 104 48 90 0 1 0 -2.4375 43.828125 1 0 1
metal_metalwall074a
0 106 48 130 0 1 0 -2.125 43.84375 1 0 1
0 104 48 90 0 1 0 -2.4375 43.828125 1 0 1
0 104 48 130 0 1 0 -2.125 43.828125 1 0 1
halflife_basetrim02
0 104 46 90 0 0 -1 22.213191 -156.925 1 0 1
0 104 48 90 0 0 -1 22.199114 -156.925 1 0 1
0 106 48 90 0 0 -1 22.199114 -156.975 1 0 1
halflife_basetrim02
0 104 46 90 0 0 -1 22.213191 -156.925 1 0 1
0 106 48 90 0 0 -1 22.199114 -156.975 1 0 1
0 106 46 90 0 0 -1 22.213191 -156.975 1 0 1
halflife_basetrim02
0 106 46 130 0 0 1 22.213191 -154.975 1 0 1
0 106 48 130 0 0 1 22.199114 -154.975 1 0 1
0 104 48 130 0 0 1 22.199114 -154.925 1 0 1
halflife_basetrim02
0 106 46 130 0 0 1 22.213191 -154.975 1 0 1
0 104 48 130 0 0 1 22.199114 -154.925 1 0 1
0 104 46 130 0 0 1 22.213191 -154.925 1 0 1
metal_metalfloor006a
0 -56 50 18 0 -1 0 -41.460938 -2.726562 1 0 1
0 -72 50 18 0 -1 0 -41.335938 -2.726562 1 0 1
0 -72 50 16 0 -1 0 -41.335938 -2.742188 1 0 1
metal_metalfloor006a
0 -56 50 18 0 -1 0 -41.460938 -2.726562 1 0 1
0 -72 50 16 0 -1 0 -41.335938 -2.742188 1 0 1
0 -56 50 16 0 -1 0 -41.460938 -2.742188 1 0 1
metal_metalfloor006a
0 -56 128 16 0 1 0 -41.460938 -2.742188 1 0 1
0 -72 128 16 0 1 0 -41.335938 -2.742188 1 0 1
0 -72 128 18 0 1 0 -41.335938 -2.726562 1 0 1
metal_metalfloor006a
0 -56 128 16 0 1 0 -41.460938 -2.742188 1 0 1
0 -72 128 18 0 1 0 -41.335938 -2.726562 1 0 1
0 -56 128 18 0 1 0 -41.460938 -2.726562 1 0 1
metal_metalfloor006a
0 -56 50 16 0 0 -1 -24.484375 -40.125 1 0 1
0 -72 50 16 0 0 -1 -24.484375 -40 1 0 1
0 -72 128 16 0 0 -1 -23.875 -40 1 0 1
metal_metalfloor006a
0 -56 50 16 0 0 -1 -24.484375 -40.125 1 0 1
0 -72 128 16 0 0 -1 -23.875 -40 1 0 1
0 -56 128 16 0 0 -1 -23.875 -40.125 1 0 1
metal_metalfloor006a
0 -72 50 18 0 0 1 -24.484375 -40 1 0 1
0 -56 50 18 0 0 1 -24.484375 -40.125 1 0 1
0 -56 128 18 0 0 1 -23.875 -40.125 1 0 1
metal_metalfloor006a
0 -72 50 18 0 0 1 -24.484375 -40 1 0 1
0 -56 128 18 0 0 1 -23.875 -40.125 1 0 1
0 -72 128 18 0 0 1 -23.875 -40 1 0 1
metal_metalfloor006a
0 -72 50 16 -1 0 0 -3.078125 25.609375 1 0 1
0 -72 50 18 -1 0 0 -3.0625 25.609375 1 0 1
0 -72 128 18 -1 0 0 -3.0625 25 1 0 1
metal_metalfloor006a
0 -72 50 16 -1 0 0 -3.078125 25.609375 1 0 1
0 -72 128 18 -1 0 0 -3.0625 25 1 0 1
0 -72 128 16 -1 0 0 -3.078125 25 1 0 1
metal_metalfloor006a
0 -56 50 18 1 0 0 -3.0625 25.609375 1 0 1
0 -56 50 16 1 0 0 -3.078125 25.609375 1 0 1
0 -56 128 16 1 0 0 -3.078125 25 1 0 1
metal_metalfloor006a
0 -56 50 18 1 0 0 -3.0625 25.609375 1 0 1
0 -56 128 16 1 0 0 -3.078125 25 1 0 1
0 -56 128 18 1 0 0 -3.0625 25 1 0 1
metal_metalfloor006a
0 -40 50 0 -1 0 0 -3.203125 25.484375 1 0 1
0 -40 50 2 -1 0 0 -3.1875 25.484375 1 0 1
0 -40 128 2 -1 0 0 -3.1875 24.875 1 0 1
metal_metalfloor006a
0 -40 50 0 -1 0 0 -3.203125 25.484375 1 0 1
0 -40 128 2 -1 0 0 -3.1875 24.875 1 0 1
0 -40 128 0 -1 0 0 -3.203125 24.875 1 0 1
metal_metalfloor006a
0 -24 50 2 1 0 0 -3.1875 25.484375 1 0 1
0 -24 50 0 1 0 0 -3.203125 25.484375 1 0 1
0 -24 128 0 1 0 0 -3.203125 24.875 1 0 1
metal_metalfloor006a
0 -24 50 2 1 0 0 -3.1875 25.484375 1 0 1
0 -24 128 0 1 0 0 -3.203125 24.875 1 0 1
0 -24 128 2 1 0 0 -3.1875 24.875 1 0 1
metal_metalfloor006a
0 -24 50 0 0 -1 0 -41.710938 -2.867188 1 0 1
0 -24 50 2 0 -1 0 -41.710938 -2.851562 1 0 1
0 -40 50 2 0 -1 0 -41.585938 -2.851562 1 0 1
metal_metalfloor006a
0 -24 50 0 0 -1 0 -41.710938 -2.867188 1 0 1
0 -40 50 2 0 -1 0 -41.585938 -2.851562 1 0 1
0 -40 50 0 0 -1 0 -41.585938 -2.867188 1 0 1
metal_metalfloor006a
0 -24 128 2 0 1 0 -41.710938 -2.851562 1 0 1
0 -24 128 0 0 1 0 -41.710938 -2.867188 1 0 1
0 -40 128 0 0 1 0 -41.585938 -2.867188 1 0 1
metal_metalfloor006a
0 -24 128 2 0 1 0 -41.710938 -2.851562 1 0 1
0 -40 128 0 0 1 0 -41.585938 -2.867188 1 0 1
0 -40 128 2 0 1 0 -41.585938 -2.851562 1 0 1
metal_metalfloor006a
0 -40 50 0 0 0 -1 -24.484375 -40.25 1 0 1
0 -40 128 0 0 0 -1 -23.875 -40.25 1 0 1
0 -24 128 0 0 0 -1 -23.875 -40.375 1 0 1
metal_metalfloor006a
0 -40 50 0 0 0 -1 -24.484375 -40.25 1 0 1
0 -24 128 0 0 0 -1 -23.875 -40.375 1 0 1
0 -24 50 0 0 0 -1 -24.484375 -40.375 1 0 1
metal_metalfloor006a
0 -24 50 2 0 0 1 -24.484375 -40.375 1 0 1
0 -24 128 2 0 0 1 -23.875 -40.375 1 0 1
0 -40 128 2 0 0 1 -23.875 -40.25 1 0 1
metal_metalfloor006a
0 -24 50 2 0 0 1 -24.484375 -40.375 1 0 1
0 -40 128 2 0 0 1 -23.875 -40.25 1 0 1
0 -40 50 2 0 0 1 -24.484375 -40.25 1 0 1
metal_metalfloor006a
0 -88 50 24 -1 0 0 -3.015625 25.546875 1 0 1
0 -88 50 26 -1 0 0 -3 25.546875 1 0 1
0 -88 128 26 -1 0 0 -3 24.9375 1 0 1
metal_metalfloor006a
0 -88 50 24 -1 0 0 -3.015625 25.546875 1 0 1
0 -88 128 26 -1 0 0 -3 24.9375 1 0 1
0 -88 128 24 -1 0 0 -3.015625 24.9375 1 0 1
metal_metalfloor006a
0 -72 50 26 1 0 0 -3 25.546875 1 0 1
0 -72 50 24 1 0 0 -3.015625 25.546875 1 0 1
0 -72 128 24 1 0 0 -3.015625 24.9375 1 0 1
metal_metalfloor006a
0 -72 50 26 1 0 0 -3 25.546875 1 0 1
0 -72 128 24 1 0 0 -3.015625 24.9375 1 0 1
0 -72 128 26 1 0 0 -3 24.9375 1 0 1
metal_metalfloor006a
0 -72 50 24 0 -1 0 -41.335938 -2.679688 1 0 1
0 -72 50 26 0 -1 0 -41.335938 -2.664062 1 0 1
0 -88 50 26 0 -1 0 -41.210938 -2.664062 1 0 1
metal_metalfloor006a
0 -72 50 24 0 -1 0 -41.335938 -2.679688 1 0 1
0 -88 50 26 0 -1 0 -41.210938 -2.664062 1 0 1
0 -88 50 24 0 -1 0 -41.210938 -2.679688 1 0 1
metal_metalfloor006a
0 -72 128 26 0 1 0 -41.335938 -2.664062 1 0 1
0 -72 128 24 0 1 0 -41.335938 -2.679688 1 0 1
0 -88 128 24 0 1 0 -41.210938 -2.679688 1 0 1
metal_metalfloor006a
0 -72 128 26 0 1 0 -41.335938 -2.664062 1 0 1
0 -88 128 24 0 1 0 -41.210938 -2.679688 1 0 1
0 -88 128 26 0 1 0 -41.210938 -2.664062 1 0 1
metal_metalfloor006a
0 -88 50 24 0 0 -1 -24.359375 -39.875 1 0 1
0 -88 128 24 0 0 -1 -23.75 -39.875 1 0 1
0 -72 128 24 0 0 -1 -23.75 -40 1 0 1
metal_metalfloor006a
0 -88 50 24 0 0 -1 -24.359375 -39.875 1 0 1
0 -72 128 24 0 0 -1 -23.75 -40 1 0 1
0 -72 50 24 0 0 -1 -24.359375 -40 1 0 1
metal_metalfloor006a
0 -72 50 26 0 0 1 -24.359375 -40 1 0 1
0 -72 128 26 0 0 1 -23.75 -40 1 0 1
0 -88 128 26 0 0 1 -23.75 -39.875 1 0 1
metal_metalfloor006a
0 -72 50 26 0 0 1 -24.359375 -40 1 0 1
0 -88 128 26 0 0 1 -23.75 -39.875 1 0 1
0 -88 50 26 0 0 1 -24.359375 -39.875 1 0 1
halflife_basetrim02
0 -152 78 26 0 0 -1 21.987965 -153.725 1 0 1
0 -152 80 26 0 0 -1 21.973889 -153.725 1 0 1
0 -150 80 26 0 0 -1 21.973889 -153.775 1 0 1
halflife_basetrim02
0 -152 78 26 0 0 -1 21.987965 -153.725 1 0 1
0 -150 80 26 0 0 -1 21.973889 -153.775 1 0 1
0 -150 78 26 0 0 -1 21.987965 -153.775 1 0 1
halflife_basetrim02
0 -150 78 66 0 0 1 21.987965 -151.775 1 0 1
0 -150 80 66 0 0 1 21.973889 -151.775 1 0 1
0 -152 80 66 0 0 1 21.973889 -151.725 1 0 1
halflife_basetrim02
0 -150 78 66 0 0 1 21.987965 -151.775 1 0 1
0 -152 80 66 0 0 1 21.973889 -151.725 1 0 1
0 -152 78 66 0 0 1 21.987965 -151.725 1 0 1
metal_metalwall074a
0 -152 78 66 -1 0 0 -2.5625 -23.828125 1 0 1
0 -152 80 66 -1 0 0 -2.5625 -23.8125 1 0 1
0 -152 80 26 -1 0 0 -2.875 -23.8125 1 0 1
metal_metalwall074a
0 -152 78 66 -1 0 0 -2.5625 -23.828125 1 0 1
0 -152 80 26 -1 0 0 -2.875 -23.8125 1 0 1
0 -152 78 26 -1 0 0 -2.875 -23.828125 1 0 1
metal_metalwall074a
0 -150 78 26 1 0 0 -2.875 -23.828125 1 0 1
0 -150 80 26 1 0 0 -2.875 -23.8125 1 0 1
0 -150 80 66 1 0 0 -2.5625 -23.8125 1 0 1
metal_metalwall074a
0 -150 78 26 1 0 0 -2.875 -23.828125 1 0 1
0 -150 80 66 1 0 0 -2.5625 -23.8125 1 0 1
0 -150 78 66 1 0 0 -2.5625 -23.828125 1 0 1
metal_metalwall074a
0 -150 78 66 0 -1 0 -2.640625 41.8125 1 0 1
0 -152 78 66 0 -1 0 -2.640625 41.796875 1 0 1
0 -152 78 26 0 -1 0 -2.953125 41.796875 1 0 1
metal_metalwall074a
0 -150 78 66 0 -1 0 -2.640625 41.8125 1 0 1
0 -152 78 26 0 -1 0 -2.953125 41.796875 1 0 1
0 -150 78 26 0 -1 0 -2.953125 41.8125 1 0 1
metal_metalwall074a
0 -150 80 26 0 1 0 -2.953125 41.8125 1 0 1
0 -152 80 26 0 1 0 -2.953125 41.796875 1 0 1
0 -152 80 66 0 1 0 -2.640625 41.796875 1 0 1
metal_metalwall074a
0 -150 80 26 0 1 0 -2.953125 41.8125 1 0 1
0 -152 80 66 0 1 0 -2.640625 41.796875 1 0 1
0 -150 80 66 0 1 0 -2.640625 41.8125 1 0 1
metal_metalwall030a
0 -163 -129 30.233 -1 0 0 -3.013805 27.115234 1 0 1
0 -163 -129 34.233 -1 0 0 -2.982555 27.115234 1 0 1
0 -163 -121 34.233 -1 0 0 -2.982555 27.052734 1 0 1
metal_metalwall030a
0 -163 -129 30.233 -1 0 0 -3.013805 27.115234 1 0 1
0 -163 -121 34.233 -1 0 0 -2.982555 27.052734 1 0 1
0 -163 -121 30.233 -1 0 0 -3.013805 27.052734 1 0 1
metal_metalwall030a
0 -107 -129 34.233 1 0 0 -2.982555 27.115234 1 0 1
0 -107 -129 30.233 1 0 0 -3.013805 27.115234 1 0 1
0 -107 -121 30.233 1 0 0 -3.013805 27.052734 1 0 1
metal_metalwall030a
0 -107 -129 34.233 1 0 0 -2.982555 27.115234 1 0 1
0 -107 -121 30.233 1 0 0 -3.013805 27.052734 1 0 1
0 -107 -121 34.233 1 0 0 -2.982555 27.052734 1 0 1
metal_metalwall030a
0 -107 -129 30.233 0 -1 0 -3.013805 -40.080078 1 0 1
0 -107 -129 34.233 0 -1 0 -2.982555 -40.080078 1 0 1
0 -163 -129 34.233 0 -1 0 -2.982555 -39.642578 1 0 1
metal_metalwall030a
0 -107 -129 30.233 0 -1 0 -3.013805 -40.080078 1 0 1
0 -163 -129 34.233 0 -1 0 -2.982555 -39.642578 1 0 1
0 -163 -129 30.233 0 -1 0 -3.013805 -39.642578 1 0 1
metal_metalwall030a
0 -107 -121 34.233 0 1 0 -2.982555 -40.080078 1 0 1
0 -107 -121 30.233 0 1 0 -3.013805 -40.080078 1 0 1
0 -163 -121 30.233 0 1 0 -3.013805 -39.642578 1 0 1
metal_metalwall030a
0 -107 -121 34.233 0 1 0 -2.982555 -40.080078 1 0 1
0 -163 -121 30.233 0 1 0 -3.013805 -39.642578 1 0 1
0 -163 -121 34.233 0 1 0 -2.982555 -39.642578 1 0 1
metal_metalwall030a
0 -163 -129 30.233 0 0 -1 -26.257812 -39.642578 1 0 1
0 -163 -121 30.233 0 0 -1 -26.195312 -39.642578 1 0 1
0 -107 -121 30.233 0 0 -1 -26.195312 -40.080078 1 0 1
metal_metalwall030a
0 -163 -129 30.233 0 0 -1 -26.257812 -39.642578 1 0 1
0 -107 -121 30.233 0 0 -1 -26.195312 -40.080078 1 0 1
0 -107 -129 30.233 0 0 -1 -26.257812 -40.080078 1 0 1
metal_metalwall030a
0 -107 -129 34.233 0 0 1 40.492188 -25.064453 1 0 1
0 -107 -121 34.233 0 0 1 40.492188 -25.001953 1 0 1
0 -163 -121 34.233 0 0 1 40.054688 -25.001953 1 0 1
metal_metalwall030a
0 -107 -129 34.233 0 0 1 40.492188 -25.064453 1 0 1
0 -163 -121 34.233 0 0 1 40.054688 -25.001953 1 0 1
0 -163 -129 34.233 0 0 1 40.054688 -25.064453 1 0 1
metal_metalwall074a
0 42 50 90 0 1 0 -2.4375 42.84375 1 0 1
0 40 50 90 0 1 0 -2.4375 42.828125 1 0 1
0 40 50 130 0 1 0 -2.125 42.828125 1 0 1
metal_metalwall074a
0 42 50 90 0 1 0 -2.4375 42.84375 1 0 1
0 40 50 130 0 1 0 -2.125 42.828125 1 0 1
0 42 50 130 0 1 0 -2.125 42.84375 1 0 1
metal_metalwall074a
0 40 48 90 0 0 -1 24.828125 43 1 0 1
0 40 50 90 0 0 -1 24.8125 43 1 0 1
0 42 50 90 0 0 -1 24.8125 43.015625 1 0 1
metal_metalwall074a
0 40 48 90 0 0 -1 24.828125 43 1 0 1
0 42 50 90 0 0 -1 24.8125 43.015625 1 0 1
0 42 48 90 0 0 -1 24.828125 43.015625 1 0 1
metal_metalwall074a
0 42 48 130 0 0 1 24.828125 43.015625 1 0 1
0 42 50 130 0 0 1 24.8125 43.015625 1 0 1
0 40 50 130 0 0 1 24.8125 43 1 0 1
metal_metalwall074a
0 42 48 130 0 0 1 24.828125 43.015625 1 0 1
0 40 50 130 0 0 1 24.8125 43 1 0 1
0 40 48 130 0 0 1 24.828125 43 1 0 1
metal_metalwall074a
0 40 48 130 -1 0 0 -2.0625 -23.8125 1 0 1
0 40 50 130 -1 0 0 -2.0625 -23.796875 1 0 1
0 40 50 90 -1 0 0 -2.375 -23.796875 1 0 1
metal_metalwall074a
0 40 48 130 -1 0 0 -2.0625 -23.8125 1 0 1
0 40 50 90 -1 0 0 -2.375 -23.796875 1 0 1
0 40 48 90 -1 0 0 -2.375 -23.8125 1 0 1
metal_metalwall074a
0 42 48 90 1 0 0 -2.375 -23.8125 1 0 1
0 42 50 90 1 0 0 -2.375 -23.796875 1 0 1
0 42 50 130 1 0 0 -2.0625 -23.796875 1 0 1
metal_metalwall074a
0 42 48 90 1 0 0 -2.375 -23.8125 1 0 1
0 42 50 130 1 0 0 -2.0625 -23.796875 1 0 1
0 42 48 130 1 0 0 -2.0625 -23.8125 1 0 1
metal_metalwall074a
0 42 48 130 0 -1 0 -2.125 42.84375 1 0 1
0 40 48 130 0 -1 0 -2.125 42.828125 1 0 1
0 40 48 90 0 -1 0 -2.4375 42.828125 1 0 1
metal_metalwall074a
0 42 48 130 0 -1 0 -2.125 42.84375 1 0 1
0 40 48 90 0 -1 0 -2.4375 42.828125 1 0 1
0 42 48 90 0 -1 0 -2.4375 42.84375 1 0 1
metal_metalfloor006a
0 -56 50 8 -1 0 0 -3.140625 25.671875 1 0 1
0 -56 50 10 -1 0 0 -3.125 25.671875 1 0 1
0 -56 128 10 -1 0 0 -3.125 25.0625 1 0 1
metal_metalfloor006a
0 -56 50 8 -1 0 0 -3.140625 25.671875 1 0 1
0 -56 128 10 -1 0 0 -3.125 25.0625 1 0 1
0 -56 128 8 -1 0 0 -3.140625 25.0625 1 0 1
metal_metalfloor006a
0 -40 50 10 1 0 0 -3.125 25.671875 1 0 1
0 -40 50 8 1 0 0 -3.140625 25.671875 1 0 1
0 -40 128 8 1 0 0 -3.140625 25.0625 1 0 1
metal_metalfloor006a
0 -40 50 10 1 0 0 -3.125 25.671875 1 0 1
0 -40 128 8 1 0 0 -3.140625 25.0625 1 0 1
0 -40 128 10 1 0 0 -3.125 25.0625 1 0 1
metal_metalfloor006a
0 -40 50 8 0 -1 0 -41.585938 -2.804688 1 0 1
0 -40 50 10 0 -1 0 -41.585938 -2.789062 1 0 1
0 -56 50 10 0 -1 0 -41.460938 -2.789062 1 0 1
metal_metalfloor006a
0 -40 50 8 0 -1 0 -41.585938 -2.804688 1 0 1
0 -56 50 10 0 -1 0 -41.460938 -2.789062 1 0 1
0 -56 50 8 0 -1 0 -41.460938 -2.804688 1 0 1
metal_metalfloor006a
0 -40 128 10 0 1 0 -41.585938 -2.789062 1 0 1
0 -40 128 8 0 1 0 -41.585938 -2.804688 1 0 1
0 -56 128 8 0 1 0 -41.460938 -2.804688 1 0 1
metal_metalfloor006a
0 -40 128 10 0 1 0 -41.585938 -2.789062 1 0 1
0 -56 128 8 0 1 0 -41.460938 -2.804688 1 0 1
0 -56 128 10 0 1 0 -41.460938 -2.789062 1 0 1
metal_metalfloor006a
0 -56 50 8 0 0 -1 -24.359375 -40.125 1 0 1
0 -56 128 8 0 0 -1 -23.75 -40.125 1 0 1
0 -40 128 8 0 0 -1 -23.75 -40.25 1 0 1
metal_metalfloor006a
0 -56 50 8 0 0 -1 -24.359375 -40.125 1 0 1
0 -40 128 8 0 0 -1 -23.75 -40.25 1 0 1
0 -40 50 8 0 0 -1 -24.359375 -40.25 1 0 1
metal_metalfloor006a
0 -40 50 10 0 0 1 -24.359375 -40.25 1 0 1
0 -40 128 10 0 0 1 -23.75 -40.25 1 0 1
0 -56 128 10 0 0 1 -23.75 -40.125 1 0 1
metal_metalfloor006a
0 -40 50 10 0 0 1 -24.359375 -40.25 1 0 1
0 -56 128 10 0 0 1 -23.75 -40.125 1 0 1
0 -56 50 10 0 0 1 -24.359375 -40.125 1 0 1
metal_metalwall030a
0 108 -129 30.514 -1 0 0 -3.013562 27.115234 1 0 1
0 108 -129 34.505 -1 0 0 -2.982383 27.115234 1 0 1
0 108 -121 34.505 -1 0 0 -2.982383 27.052734 1 0 1
metal_metalwall030a
0 108 -129 30.514 -1 0 0 -3.013562 27.115234 1 0 1
0 108 -121 34.505 -1 0 0 -2.982383 27.052734 1 0 1
0 108 -121 30.514 -1 0 0 -3.013562 27.052734 1 0 1
metal_metalwall030a
0 164 -129 34.505 1 0 0 -2.982383 27.115234 1 0 1
0 164 -129 30.514 1 0 0 -3.013562 27.115234 1 0 1
0 164 -121 30.514 1 0 0 -3.013562 27.052734 1 0 1
metal_metalwall030a
0 164 -129 34.505 1 0 0 -2.982383 27.115234 1 0 1
0 164 -121 30.514 1 0 0 -3.013562 27.052734 1 0 1
0 164 -121 34.505 1 0 0 -2.982383 27.052734 1 0 1
metal_metalwall030a
0 164 -129 30.514 0 -1 0 -3.013562 -42.197266 1 0 1
0 164 -129 34.505 0 -1 0 -2.982383 -42.197266 1 0 1
0 108 -129 34.505 0 -1 0 -2.982383 -41.759766 1 0 1
metal_metalwall030a
0 164 -129 30.514 0 -1 0 -3.013562 -42.197266 1 0 1
0 108 -129 34.505 0 -1 0 -2.982383 -41.759766 1 0 1
0 108 -129 30.514 0 -1 0 -3.013562 -41.759766 1 0 1
metal_metalwall030a
0 164 -121 34.505 0 1 0 -2.982383 -42.197266 1 0 1
0 164 -121 30.514 0 1 0 -3.013562 -42.197266 1 0 1
0 108 -121 30.514 0 1 0 -3.013562 -41.759766 1 0 1
metal_metalwall030a
0 164 -121 34.505 0 1 0 -2.982383 -42.197266 1 0 1
0 108 -121 30.514 0 1 0 -3.013562 -41.759766 1 0 1
0 108 -121 34.505 0 1 0 -2.982383 -41.759766 1 0 1
metal_metalwall030a
0 108 -129 30.514 0 0 -1 -26.257812 -41.759766 1 0 1
0 108 -121 30.514 0 0 -1 -26.195312 -41.759766 1 0 1
0 164 -121 30.514 0 0 -1 -26.195312 -42.197266 1 0 1
metal_metalwall030a
0 108 -129 30.514 0 0 -1 -26.257812 -41.759766 1 0 1
0 164 -121 30.514 0 0 -1 -26.195312 -42.197266 1 0 1
0 164 -129 30.514 0 0 -1 -26.257812 -42.197266 1 0 1
metal_metalwall030a
0 164 -129 34.505 0 0 1 43.123047 -25.085938 1 0 1
0 164 -121 34.505 0 0 1 43.123047 -25.023438 1 0 1
0 108 -121 34.505 0 0 1 42.685547 -25.023438 1 0 1
metal_metalwall030a
0 164 -129 34.505 0 0 1 43.123047 -25.085938 1 0 1
0 108 -121 34.505 0 0 1 42.685547 -25.023438 1 0 1
0 108 -129 34.505 0 0 1 42.685547 -25.085938 1 0 1
end
