version 1
nodes
0 "root" -1
end
skeleton
time 0
0 0 0 0 0 0 0
end
triangles
ocrp_glass2
0 62 2 85 0 1 0 694 -126 1 0 1
0 62 2 21 0 1 0 694 -142 1 0 1
0 -18 2 21 0 1 0 674 -142 1 0 1
ocrp_glass2
0 62 2 85 0 1 0 694 -126 1 0 1
0 -18 2 21 0 1 0 674 -142 1 0 1
0 -18 2 85 0 1 0 674 -126 1 0 1
ocrp_glass2
0 62 1 21 0 -1 0 694 -142 1 0 1
0 62 1 85 0 -1 0 694 -126 1 0 1
0 -18 1 85 0 -1 0 674 -126 1 0 1
ocrp_glass2
0 62 1 21 0 -1 0 694 -142 1 0 1
0 -18 1 85 0 -1 0 674 -126 1 0 1
0 -18 1 21 0 -1 0 674 -142 1 0 1
realworldtextures2_wood_wood_26
0 -18 4 85 0 1 0 21 -2.921875 1 0 1
0 -18 4 21 0 1 0 21 -3.421875 1 0 1
0 -34 4 21 0 1 0 20.875 -3.421875 1 0 1
realworldtextures2_wood_wood_26
0 -18 4 85 0 1 0 21 -2.921875 1 0 1
0 -34 4 21 0 1 0 20.875 -3.421875 1 0 1
0 -34 4 85 0 1 0 20.875 -2.921875 1 0 1
realworldtextures2_wood_wood_26
0 -18 -4 21 0 -1 0 21 -3.421875 1 0 1
0 -18 -4 85 0 -1 0 21 -2.921875 1 0 1
0 -34 -4 85 0 -1 0 20.875 -2.921875 1 0 1
realworldtextures2_wood_wood_26
0 -18 -4 21 0 -1 0 21 -3.421875 1 0 1
0 -34 -4 85 0 -1 0 20.875 -2.921875 1 0 1
0 -34 -4 21 0 -1 0 20.875 -3.421875 1 0 1
realworldtextures2_wood_wood_26
0 -34 -4 21 -1 0 0 -24.9375 -3.421875 1 0 1
0 -34 -4 85 -1 0 0 -24.9375 -2.921875 1 0 1
0 -34 4 85 -1 0 0 -25 -2.921875 1 0 1
realworldtextures2_wood_wood_26
0 -34 -4 21 -1 0 0 -24.9375 -3.421875 1 0 1
0 -34 4 85 -1 0 0 -25 -2.921875 1 0 1
0 -34 4 21 -1 0 0 -25 -3.421875 1 0 1
realworldtextures2_wood_wood_26
0 -18 -4 85 1 0 0 -24.9375 -2.921875 1 0 1
0 -18 -4 21 1 0 0 -24.9375 -3.421875 1 0 1
0 -18 4 21 1 0 0 -25 -3.421875 1 0 1
realworldtextures2_wood_wood_26
0 -18 -4 85 1 0 0 -24.9375 -2.921875 1 0 1
0 -18 4 21 1 0 0 -25 -3.421875 1 0 1
0 -18 4 85 1 0 0 -25 -2.921875 1 0 1
realworldtextures2_wood_wood_26
0 -114 4 85 0 1 0 20.25 -2.921875 1 0 1
0 -114 4 21 0 1 0 20.25 -3.421875 1 0 1
0 -142 4 21 0 1 0 20.03125 -3.421875 1 0 1
realworldtextures2_wood_wood_26
0 -114 4 85 0 1 0 20.25 -2.921875 1 0 1
0 -142 4 21 0 1 0 20.03125 -3.421875 1 0 1
0 -142 4 85 0 1 0 20.03125 -2.921875 1 0 1
realworldtextures2_wood_wood_26
0 -114 -4 21 0 -1 0 20.25 -3.421875 1 0 1
0 -114 -4 85 0 -1 0 20.25 -2.921875 1 0 1
0 -142 -4 85 0 -1 0 20.03125 -2.921875 1 0 1
realworldtextures2_wood_wood_26
0 -114 -4 21 0 -1 0 20.25 -3.421875 1 0 1
0 -142 -4 85 0 -1 0 20.03125 -2.921875 1 0 1
0 -142 -4 21 0 -1 0 20.03125 -3.421875 1 0 1
realworldtextures2_wood_wood_26
0 -142 -4 21 -1 0 0 -24.9375 -3.421875 1 0 1
0 -142 -4 85 -1 0 0 -24.9375 -2.921875 1 0 1
0 -142 4 85 -1 0 0 -25 -2.921875 1 0 1
realworldtextures2_wood_wood_26
0 -142 -4 21 -1 0 0 -24.9375 -3.421875 1 0 1
0 -142 4 85 -1 0 0 -25 -2.921875 1 0 1
0 -142 4 21 -1 0 0 -25 -3.421875 1 0 1
realworldtextures2_wood_wood_26
0 -114 -4 85 1 0 0 -24.9375 -2.921875 1 0 1
0 -114 -4 21 1 0 0 -24.9375 -3.421875 1 0 1
0 -114 4 21 1 0 0 -25 -3.421875 1 0 1
realworldtextures2_wood_wood_26
0 -114 -4 85 1 0 0 -24.9375 -2.921875 1 0 1
0 -114 4 21 1 0 0 -25 -3.421875 1 0 1
0 -114 4 85 1 0 0 -25 -2.921875 1 0 1
realworldtextures2_wood_wood_26
0 -142 4 -21 0 1 0 20.03125 -3.75 1 0 1
0 -142 4 21 0 1 0 20.03125 -3.421875 1 0 1
0 113.3 4 21 0 1 0 22.025781 -3.421875 1 0 1
realworldtextures2_wood_wood_26
0 -142 4 -21 0 1 0 20.03125 -3.75 1 0 1
0 113.3 4 21 0 1 0 22.025781 -3.421875 1 0 1
0 142 4 -21 0 1 0 22.25 -3.75 1 0 1
realworldtextures2_wood_wood_26
0 142 -4 -21 0 -1 0 22.25 -3.75 1 0 1
0 113.3 -4 21 0 -1 0 22.025781 -3.421875 1 0 1
0 -142 -4 21 0 -1 0 20.03125 -3.421875 1 0 1
realworldtextures2_wood_wood_26
0 142 -4 -21 0 -1 0 22.25 -3.75 1 0 1
0 -142 -4 21 0 -1 0 20.03125 -3.421875 1 0 1
0 -142 -4 -21 0 -1 0 20.03125 -3.75 1 0 1
realworldtextures2_wood_wood_26
0 113.3 4 21 0 1 0 22.025781 -3.421875 1 0 1
0 62 4 21 0 1 0 21.625 -3.421875 1 0 1
0 62 4 85 0 1 0 21.625 -2.921875 1 0 1
realworldtextures2_wood_wood_26
0 113.3 4 21 0 1 0 22.025781 -3.421875 1 0 1
0 62 4 85 0 1 0 21.625 -2.921875 1 0 1
0 69.5 4 85 0 1 0 21.683594 -2.921875 1 0 1
realworldtextures2_wood_wood_26
0 69.5 -4 85 0 -1 0 21.683594 -2.921875 1 0 1
0 62 -4 85 0 -1 0 21.625 -2.921875 1 0 1
0 62 -4 21 0 -1 0 21.625 -3.421875 1 0 1
realworldtextures2_wood_wood_26
0 69.5 -4 85 0 -1 0 21.683594 -2.921875 1 0 1
0 62 -4 21 0 -1 0 21.625 -3.421875 1 0 1
0 113.3 -4 21 0 -1 0 22.025781 -3.421875 1 0 1
realworldtextures2_wood_wood_26
0 62 -4 21 -1 0 0 -24.9375 -3.421875 1 0 1
0 62 -4 85 -1 0 0 -24.9375 -2.921875 1 0 1
0 62 4 85 -1 0 0 -25 -2.921875 1 0 1
realworldtextures2_wood_wood_26
0 62 -4 21 -1 0 0 -24.9375 -3.421875 1 0 1
0 62 4 85 -1 0 0 -25 -2.921875 1 0 1
0 62 4 21 -1 0 0 -25 -3.421875 1 0 1
ocrp_glass2
0 -34 2 85 0 1 0 670 -126 1 0 1
0 -34 2 21 0 1 0 670 -142 1 0 1
0 -114 2 21 0 1 0 650 -142 1 0 1
ocrp_glass2
0 -34 2 85 0 1 0 670 -126 1 0 1
0 -114 2 21 0 1 0 650 -142 1 0 1
0 -114 2 85 0 1 0 650 -126 1 0 1
ocrp_glass2
0 -34 1 21 0 -1 0 670 -142 1 0 1
0 -34 1 85 0 -1 0 670 -126 1 0 1
0 -114 1 85 0 -1 0 650 -126 1 0 1
ocrp_glass2
0 -34 1 21 0 -1 0 670 -142 1 0 1
0 -114 1 85 0 -1 0 650 -126 1 0 1
0 -114 1 21 0 -1 0 650 -142 1 0 1
end
