version 1
nodes
0 "root" -1
end
skeleton
time 0
0 0 0 0 0 0 0
end
triangles
phys
0 12 5 303 0 0 1 1 0 1 0 1
0 12 325 303 0 0 1 1 0 1 0 1
0 12 325 288 0 0 1 1 0 1 0 1
phys
0 12 5 303 0 0 1 1 0 1 0 1
0 12 325 288 0 0 1 1 0 1 0 1
0 12 5 288 0 0 1 1 0 1 0 1
phys
0 20 5 288 0 0 1 1 0 1 0 1
0 20 325 288 0 0 1 1 0 1 0 1
0 20 325 303 0 0 1 1 0 1 0 1
phys
0 20 5 288 0 0 1 1 0 1 0 1
0 20 325 303 0 0 1 1 0 1 0 1
0 20 5 303 0 0 1 1 0 1 0 1
phys
0 12 5 288 0 0 1 1 0 1 0 1
0 12 325 288 0 0 1 1 0 1 0 1
0 20 325 288 0 0 1 1 0 1 0 1
phys
0 12 5 288 0 0 1 1 0 1 0 1
0 20 325 288 0 0 1 1 0 1 0 1
0 20 5 288 0 0 1 1 0 1 0 1
phys
0 20 5 303 0 0 1 1 0 1 0 1
0 20 325 303 0 0 1 1 0 1 0 1
0 12 325 303 0 0 1 1 0 1 0 1
phys
0 20 5 303 0 0 1 1 0 1 0 1
0 12 325 303 0 0 1 1 0 1 0 1
0 12 5 303 0 0 1 1 0 1 0 1
phys
0 20 325 303 0 0 1 1 0 1 0 1
0 20 325 288 0 0 1 1 0 1 0 1
0 12 325 288 0 0 1 1 0 1 0 1
phys
0 20 325 303 0 0 1 1 0 1 0 1
0 12 325 288 0 0 1 1 0 1 0 1
0 12 325 303 0 0 1 1 0 1 0 1
phys
0 20 5 288 0 0 1 1 0 1 0 1
0 20 5 303 0 0 1 1 0 1 0 1
0 12 5 303 0 0 1 1 0 1 0 1
phys
0 20 5 288 0 0 1 1 0 1 0 1
0 12 5 303 0 0 1 1 0 1 0 1
0 12 5 288 0 0 1 1 0 1 0 1
phys
0 12 405 160 0 0 1 2 0 1 0 1
0 12 405 145 0 0 1 2 0 1 0 1
0 -8 405 145 0 0 1 2 0 1 0 1
phys
0 12 405 160 0 0 1 2 0 1 0 1
0 -8 405 145 0 0 1 2 0 1 0 1
0 -8 405 160 0 0 1 2 0 1 0 1
phys
0 12 5 145 0 0 1 2 0 1 0 1
0 12 5 160 0 0 1 2 0 1 0 1
0 -8 5 160 0 0 1 2 0 1 0 1
phys
0 12 5 145 0 0 1 2 0 1 0 1
0 -8 5 160 0 0 1 2 0 1 0 1
0 -8 5 145 0 0 1 2 0 1 0 1
phys
0 -8 5 145 0 0 1 2 0 1 0 1
0 -8 5 160 0 0 1 2 0 1 0 1
0 -8 405 160 0 0 1 2 0 1 0 1
phys
0 -8 5 145 0 0 1 2 0 1 0 1
0 -8 405 160 0 0 1 2 0 1 0 1
0 -8 405 145 0 0 1 2 0 1 0 1
phys
0 12 5 160 0 0 1 2 0 1 0 1
0 12 5 145 0 0 1 2 0 1 0 1
0 12 405 145 0 0 1 2 0 1 0 1
phys
0 12 5 160 0 0 1 2 0 1 0 1
0 12 405 145 0 0 1 2 0 1 0 1
0 12 405 160 0 0 1 2 0 1 0 1
phys
0 12 5 145 0 0 1 2 0 1 0 1
0 -8 5 145 0 0 1 2 0 1 0 1
0 -8 405 145 0 0 1 2 0 1 0 1
phys
0 12 5 145 0 0 1 2 0 1 0 1
0 -8 405 145 0 0 1 2 0 1 0 1
0 12 405 145 0 0 1 2 0 1 0 1
phys
0 -8 5 160 0 0 1 2 0 1 0 1
0 12 5 160 0 0 1 2 0 1 0 1
0 12 405 160 0 0 1 2 0 1 0 1
phys
0 -8 5 160 0 0 1 2 0 1 0 1
0 12 405 160 0 0 1 2 0 1 0 1
0 -8 405 160 0 0 1 2 0 1 0 1
phys
0 20 -5 303 0 0 1 3 0 1 0 1
0 20 -5 288 0 0 1 3 0 1 0 1
0 12 -5 288 0 0 1 3 0 1 0 1
phys
0 20 -5 303 0 0 1 3 0 1 0 1
0 12 -5 288 0 0 1 3 0 1 0 1
0 12 -5 303 0 0 1 3 0 1 0 1
phys
0 20 -325 288 0 0 1 3 0 1 0 1
0 20 -325 303 0 0 1 3 0 1 0 1
0 12 -325 303 0 0 1 3 0 1 0 1
phys
0 20 -325 288 0 0 1 3 0 1 0 1
0 12 -325 303 0 0 1 3 0 1 0 1
0 12 -325 288 0 0 1 3 0 1 0 1
phys
0 12 -325 288 0 0 1 3 0 1 0 1
0 12 -325 303 0 0 1 3 0 1 0 1
0 12 -5 303 0 0 1 3 0 1 0 1
phys
0 12 -325 288 0 0 1 3 0 1 0 1
0 12 -5 303 0 0 1 3 0 1 0 1
0 12 -5 288 0 0 1 3 0 1 0 1
phys
0 20 -325 303 0 0 1 3 0 1 0 1
0 20 -325 288 0 0 1 3 0 1 0 1
0 20 -5 288 0 0 1 3 0 1 0 1
phys
0 20 -325 303 0 0 1 3 0 1 0 1
0 20 -5 288 0 0 1 3 0 1 0 1
0 20 -5 303 0 0 1 3 0 1 0 1
phys
0 20 -325 288 0 0 1 3 0 1 0 1
0 12 -325 288 0 0 1 3 0 1 0 1
0 12 -5 288 0 0 1 3 0 1 0 1
phys
0 20 -325 288 0 0 1 3 0 1 0 1
0 12 -5 288 0 0 1 3 0 1 0 1
0 20 -5 288 0 0 1 3 0 1 0 1
phys
0 12 -325 303 0 0 1 3 0 1 0 1
0 20 -325 303 0 0 1 3 0 1 0 1
0 20 -5 303 0 0 1 3 0 1 0 1
phys
0 12 -325 303 0 0 1 3 0 1 0 1
0 20 -5 303 0 0 1 3 0 1 0 1
0 12 -5 303 0 0 1 3 0 1 0 1
phys
0 35 17 7 0 0 1 4 0 1 0 1
0 35 17 0 0 0 1 4 0 1 0 1
0 -35 17 0 0 0 1 4 0 1 0 1
phys
0 35 17 7 0 0 1 4 0 1 0 1
0 -35 17 0 0 0 1 4 0 1 0 1
0 -35 17 7 0 0 1 4 0 1 0 1
phys
0 35 -15 0 0 0 1 4 0 1 0 1
0 35 -15 7 0 0 1 4 0 1 0 1
0 -35 -15 7 0 0 1 4 0 1 0 1
phys
0 35 -15 0 0 0 1 4 0 1 0 1
0 -35 -15 7 0 0 1 4 0 1 0 1
0 -35 -15 0 0 0 1 4 0 1 0 1
phys
0 -35 -15 0 0 0 1 4 0 1 0 1
0 -35 -15 7 0 0 1 4 0 1 0 1
0 -35 17 7 0 0 1 4 0 1 0 1
phys
0 -35 -15 0 0 0 1 4 0 1 0 1
0 -35 17 7 0 0 1 4 0 1 0 1
0 -35 17 0 0 0 1 4 0 1 0 1
phys
0 35 -15 7 0 0 1 4 0 1 0 1
0 35 -15 0 0 0 1 4 0 1 0 1
0 35 17 0 0 0 1 4 0 1 0 1
phys
0 35 -15 7 0 0 1 4 0 1 0 1
0 35 17 0 0 0 1 4 0 1 0 1
0 35 17 7 0 0 1 4 0 1 0 1
phys
0 35 -15 0 0 0 1 4 0 1 0 1
0 -35 -15 0 0 0 1 4 0 1 0 1
0 -35 17 0 0 0 1 4 0 1 0 1
phys
0 35 -15 0 0 0 1 4 0 1 0 1
0 -35 17 0 0 0 1 4 0 1 0 1
0 35 17 0 0 0 1 4 0 1 0 1
phys
0 -35 -15 7 0 0 1 4 0 1 0 1
0 35 -15 7 0 0 1 4 0 1 0 1
0 35 17 7 0 0 1 4 0 1 0 1
phys
0 -35 -15 7 0 0 1 4 0 1 0 1
0 35 17 7 0 0 1 4 0 1 0 1
0 -35 17 7 0 0 1 4 0 1 0 1
phys
0 12 -405 145 0 0 1 5 0 1 0 1
0 -8 -405 145 0 0 1 5 0 1 0 1
0 -8 -5 145 0 0 1 5 0 1 0 1
phys
0 12 -405 145 0 0 1 5 0 1 0 1
0 -8 -5 145 0 0 1 5 0 1 0 1
0 12 -5 145 0 0 1 5 0 1 0 1
phys
0 -8 -405 160 0 0 1 5 0 1 0 1
0 12 -405 160 0 0 1 5 0 1 0 1
0 12 -5 160 0 0 1 5 0 1 0 1
phys
0 -8 -405 160 0 0 1 5 0 1 0 1
0 12 -5 160 0 0 1 5 0 1 0 1
0 -8 -5 160 0 0 1 5 0 1 0 1
phys
0 12 -5 145 0 0 1 5 0 1 0 1
0 -8 -5 145 0 0 1 5 0 1 0 1
0 -8 -5 160 0 0 1 5 0 1 0 1
phys
0 12 -5 145 0 0 1 5 0 1 0 1
0 -8 -5 160 0 0 1 5 0 1 0 1
0 12 -5 160 0 0 1 5 0 1 0 1
phys
0 12 -405 160 0 0 1 5 0 1 0 1
0 -8 -405 160 0 0 1 5 0 1 0 1
0 -8 -405 145 0 0 1 5 0 1 0 1
phys
0 12 -405 160 0 0 1 5 0 1 0 1
0 -8 -405 145 0 0 1 5 0 1 0 1
0 12 -405 145 0 0 1 5 0 1 0 1
phys
0 -8 -405 160 0 0 1 5 0 1 0 1
0 -8 -5 160 0 0 1 5 0 1 0 1
0 -8 -5 145 0 0 1 5 0 1 0 1
phys
0 -8 -405 160 0 0 1 5 0 1 0 1
0 -8 -5 145 0 0 1 5 0 1 0 1
0 -8 -405 145 0 0 1 5 0 1 0 1
phys
0 12 -405 145 0 0 1 5 0 1 0 1
0 12 -5 145 0 0 1 5 0 1 0 1
0 12 -5 160 0 0 1 5 0 1 0 1
phys
0 12 -405 145 0 0 1 5 0 1 0 1
0 12 -5 160 0 0 1 5 0 1 0 1
0 12 -405 160 0 0 1 5 0 1 0 1
phys
0 16 17 7 0 0 1 6 0 1 0 1
0 -8 17 7 0 0 1 6 0 1 0 1
0 -8 17 140 0 0 1 6 0 1 0 1
phys
0 16 17 7 0 0 1 6 0 1 0 1
0 -8 17 140 0 0 1 6 0 1 0 1
0 16 17 140 0 0 1 6 0 1 0 1
phys
0 16 -15 140 0 0 1 6 0 1 0 1
0 -8 -15 140 0 0 1 6 0 1 0 1
0 -8 -15 7 0 0 1 6 0 1 0 1
phys
0 16 -15 140 0 0 1 6 0 1 0 1
0 -8 -15 7 0 0 1 6 0 1 0 1
0 16 -15 7 0 0 1 6 0 1 0 1
phys
0 -12 -10.999 140 0 0 1 6 0 1 0 1
0 -12 13 140 0 0 1 6 0 1 0 1
0 -12 13 7 0 0 1 6 0 1 0 1
phys
0 -12 -10.999 140 0 0 1 6 0 1 0 1
0 -12 13 7 0 0 1 6 0 1 0 1
0 -12 -10.999 7 0 0 1 6 0 1 0 1
phys
0 20 -11.001 7 0 0 1 6 0 1 0 1
0 20 12.999 7 0 0 1 6 0 1 0 1
0 20 12.999 140 0 0 1 6 0 1 0 1
phys
0 20 -11.001 7 0 0 1 6 0 1 0 1
0 20 12.999 140 0 0 1 6 0 1 0 1
0 20 -11.001 140 0 0 1 6 0 1 0 1
phys
0 16 -15 7 0 0 1 6 0 1 0 1
0 -8 -15 7 0 0 1 6 0 1 0 1
0 -12 -10.999 7 0 0 1 6 0 1 0 1
phys
0 16 -15 7 0 0 1 6 0 1 0 1
0 -12 -10.999 7 0 0 1 6 0 1 0 1
0 -12 13 7 0 0 1 6 0 1 0 1
phys
0 16 -15 7 0 0 1 6 0 1 0 1
0 -12 13 7 0 0 1 6 0 1 0 1
0 -8 17 7 0 0 1 6 0 1 0 1
phys
0 16 -15 7 0 0 1 6 0 1 0 1
0 -8 17 7 0 0 1 6 0 1 0 1
0 16 17 7 0 0 1 6 0 1 0 1
phys
0 16 -15 7 0 0 1 6 0 1 0 1
0 16 17 7 0 0 1 6 0 1 0 1
0 20 12.999 7 0 0 1 6 0 1 0 1
phys
0 16 -15 7 0 0 1 6 0 1 0 1
0 20 12.999 7 0 0 1 6 0 1 0 1
0 20 -11.001 7 0 0 1 6 0 1 0 1
phys
0 -8 -15 140 0 0 1 6 0 1 0 1
0 16 -15 140 0 0 1 6 0 1 0 1
0 20 -11.001 140 0 0 1 6 0 1 0 1
phys
0 -8 -15 140 0 0 1 6 0 1 0 1
0 20 -11.001 140 0 0 1 6 0 1 0 1
0 20 12.999 140 0 0 1 6 0 1 0 1
phys
0 -8 -15 140 0 0 1 6 0 1 0 1
0 20 12.999 140 0 0 1 6 0 1 0 1
0 16 17 140 0 0 1 6 0 1 0 1
phys
0 -8 -15 140 0 0 1 6 0 1 0 1
0 16 17 140 0 0 1 6 0 1 0 1
0 -8 17 140 0 0 1 6 0 1 0 1
phys
0 -8 -15 140 0 0 1 6 0 1 0 1
0 -8 17 140 0 0 1 6 0 1 0 1
0 -12 13 140 0 0 1 6 0 1 0 1
phys
0 -8 -15 140 0 0 1 6 0 1 0 1
0 -12 13 140 0 0 1 6 0 1 0 1
0 -12 -10.999 140 0 0 1 6 0 1 0 1
phys
0 -12 13 7 0 0 1 6 0 1 0 1
0 -12 13 140 0 0 1 6 0 1 0 1
0 -8 17 140 0 0 1 6 0 1 0 1
phys
0 -12 13 7 0 0 1 6 0 1 0 1
0 -8 17 140 0 0 1 6 0 1 0 1
0 -8 17 7 0 0 1 6 0 1 0 1
phys
0 20 12.999 140 0 0 1 6 0 1 0 1
0 20 12.999 7 0 0 1 6 0 1 0 1
0 16 17 7 0 0 1 6 0 1 0 1
phys
0 20 12.999 140 0 0 1 6 0 1 0 1
0 16 17 7 0 0 1 6 0 1 0 1
0 16 17 140 0 0 1 6 0 1 0 1
phys
0 -8 -15 7 0 0 1 6 0 1 0 1
0 -8 -15 140 0 0 1 6 0 1 0 1
0 -12 -10.999 140 0 0 1 6 0 1 0 1
phys
0 -8 -15 7 0 0 1 6 0 1 0 1
0 -12 -10.999 140 0 0 1 6 0 1 0 1
0 -12 -10.999 7 0 0 1 6 0 1 0 1
phys
0 16 -15 140 0 0 1 6 0 1 0 1
0 16 -15 7 0 0 1 6 0 1 0 1
0 20 -11.001 7 0 0 1 6 0 1 0 1
phys
0 16 -15 140 0 0 1 6 0 1 0 1
0 20 -11.001 7 0 0 1 6 0 1 0 1
0 20 -11.001 140 0 0 1 6 0 1 0 1
phys
0 20 -5 288 0 0 1 7 0 1 0 1
0 12 -5 288 0 0 1 7 0 1 0 1
0 12 5 288 0 0 1 7 0 1 0 1
phys
0 20 -5 288 0 0 1 7 0 1 0 1
0 12 5 288 0 0 1 7 0 1 0 1
0 20 5 288 0 0 1 7 0 1 0 1
phys
0 12 -5 431 0 0 1 7 0 1 0 1
0 20 -5 431 0 0 1 7 0 1 0 1
0 20 5 431 0 0 1 7 0 1 0 1
phys
0 12 -5 431 0 0 1 7 0 1 0 1
0 20 5 431 0 0 1 7 0 1 0 1
0 12 5 431 0 0 1 7 0 1 0 1
phys
0 20 5 288 0 0 1 7 0 1 0 1
0 12 5 288 0 0 1 7 0 1 0 1
0 12 5 431 0 0 1 7 0 1 0 1
phys
0 20 5 288 0 0 1 7 0 1 0 1
0 12 5 431 0 0 1 7 0 1 0 1
0 20 5 431 0 0 1 7 0 1 0 1
phys
0 20 -5 431 0 0 1 7 0 1 0 1
0 12 -5 431 0 0 1 7 0 1 0 1
0 12 -5 288 0 0 1 7 0 1 0 1
phys
0 20 -5 431 0 0 1 7 0 1 0 1
0 12 -5 288 0 0 1 7 0 1 0 1
0 20 -5 288 0 0 1 7 0 1 0 1
phys
0 12 -5 431 0 0 1 7 0 1 0 1
0 12 5 431 0 0 1 7 0 1 0 1
0 12 5 288 0 0 1 7 0 1 0 1
phys
0 12 -5 431 0 0 1 7 0 1 0 1
0 12 5 288 0 0 1 7 0 1 0 1
0 12 -5 288 0 0 1 7 0 1 0 1
phys
0 20 -5 288 0 0 1 7 0 1 0 1
0 20 5 288 0 0 1 7 0 1 0 1
0 20 5 431 0 0 1 7 0 1 0 1
phys
0 20 -5 288 0 0 1 7 0 1 0 1
0 20 5 431 0 0 1 7 0 1 0 1
0 20 -5 431 0 0 1 7 0 1 0 1
end
