version 1
nodes
0 "root" -1
end
skeleton
time 0
0 0 0 0 0 0 0
end
triangles
realworldtextures2_misc_granite_03
0 -70 -36 -54 1 0 0 -28.314453 -3.128906 1 0 1
0 -70 -36 -56 1 0 0 -28.314453 -3.144531 1 0 1
0 -70 60 -56 1 0 0 -27.564453 -3.144531 1 0 1
realworldtextures2_misc_granite_03
0 -70 -36 -54 1 0 0 -28.314453 -3.128906 1 0 1
0 -70 60 -56 1 0 0 -27.564453 -3.144531 1 0 1
0 -70 60 -54 1 0 0 -27.564453 -3.128906 1 0 1
realworldtextures2_misc_granite_03
0 -104 -36 -54 0 0 1 -24.908203 -27.113281 1 0 1
0 -70 -36 -54 0 0 1 -25.173828 -27.113281 1 0 1
0 -70 60 -54 0 0 1 -25.173828 -26.363281 1 0 1
realworldtextures2_misc_granite_03
0 -104 -36 -54 0 0 1 -24.908203 -27.113281 1 0 1
0 -70 60 -54 0 0 1 -25.173828 -26.363281 1 0 1
0 -104 60 -54 0 0 1 -24.908203 -26.363281 1 0 1
ocrp_glass2
0 24 -418 -50 0 -1 0 -830 -142 1 0 1
0 24 -418 14 0 -1 0 -830 -126 1 0 1
0 -56 -418 14 0 -1 0 -810 -126 1 0 1
ocrp_glass2
0 24 -418 -50 0 -1 0 -830 -142 1 0 1
0 -56 -418 14 0 -1 0 -810 -126 1 0 1
0 -56 -418 -50 0 -1 0 -810 -142 1 0 1
realworldtextures2_misc_granite_03
0 -104 -76 -56 -1 0 0 28.90625 -2.90625 1 0 1
0 -104 -76 -54 -1 0 0 28.90625 -2.890625 1 0 1
0 -104 -36 -54 -1 0 0 28.59375 -2.890625 1 0 1
realworldtextures2_misc_granite_03
0 -104 -76 -56 -1 0 0 28.90625 -2.90625 1 0 1
0 -104 -36 -54 -1 0 0 28.59375 -2.890625 1 0 1
0 -104 -36 -56 -1 0 0 28.59375 -2.90625 1 0 1
realworldtextures2_misc_granite_03
0 -104 -76 -54 0 0 1 28.998047 -24.738281 1 0 1
0 -100 -76 -54 0 0 1 28.998047 -24.769531 1 0 1
0 -100 -36 -54 0 0 1 28.685547 -24.769531 1 0 1
realworldtextures2_misc_granite_03
0 -104 -76 -54 0 0 1 28.998047 -24.738281 1 0 1
0 -100 -36 -54 0 0 1 28.685547 -24.769531 1 0 1
0 -104 -36 -54 0 0 1 28.685547 -24.738281 1 0 1
props_woodcrate003d
0 16 60 20 0 1 0 -103.5 -14.59375 1 0 1
0 16 60 -20 0 1 0 -103.5 -15.84375 1 0 1
0 -16 60 -20 0 1 0 -102.5 -15.84375 1 0 1
props_woodcrate003d
0 16 60 20 0 1 0 -103.5 -14.59375 1 0 1
0 -16 60 -20 0 1 0 -102.5 -15.84375 1 0 1
0 -16 60 20 0 1 0 -102.5 -14.59375 1 0 1
wood_cabinets04
0 16 -60 -20 0 -1 0 -91.571046 -7.677688 1 0 1
0 16 -60 20 0 -1 0 -91.571046 -7.011092 1 0 1
0 -16 -60 20 0 -1 0 -90.681999 -7.011092 1 0 1
wood_cabinets04
0 16 -60 -20 0 -1 0 -91.571046 -7.677688 1 0 1
0 -16 -60 20 0 -1 0 -90.681999 -7.011092 1 0 1
0 -16 -60 -20 0 -1 0 -90.681999 -7.677688 1 0 1
wood_cabinets03
0 -16 -60 -20 -1 0 0 -99.513874 9.595656 1 0 1
0 -16 -60 20 -1 0 0 -99.513874 8.929061 1 0 1
0 -16 60 20 -1 0 0 -96.281115 8.929061 1 0 1
wood_cabinets03
0 -16 -60 -20 -1 0 0 -99.513874 9.595656 1 0 1
0 -16 60 20 -1 0 0 -96.281115 8.929061 1 0 1
0 -16 60 -20 -1 0 0 -96.281115 9.595656 1 0 1
realworldtextures_walls_westernwhite
0 16 -60 -20 0 0 -1 -25.9375 29.28125 1 0 1
0 -16 -60 -20 0 0 -1 -25.6875 29.28125 1 0 1
0 -16 60 -20 0 0 -1 -25.6875 28.34375 1 0 1
realworldtextures_walls_westernwhite
0 16 -60 -20 0 0 -1 -25.9375 29.28125 1 0 1
0 -16 60 -20 0 0 -1 -25.6875 28.34375 1 0 1
0 16 60 -20 0 0 -1 -25.9375 28.34375 1 0 1
realworldtextures_walls_westernwhite
0 -16 -60 20 0 0 1 -25.6875 29.28125 1 0 1
0 16 -60 20 0 0 1 -25.9375 29.28125 1 0 1
0 16 60 20 0 0 1 -25.9375 28.34375 1 0 1
realworldtextures_walls_westernwhite
0 -16 -60 20 0 0 1 -25.6875 29.28125 1 0 1
0 16 60 20 0 0 1 -25.9375 28.34375 1 0 1
0 -16 60 20 0 0 1 -25.6875 28.34375 1 0 1
realworldtextures2_misc_granite_03
0 -70 -100 -56 1 0 0 -28.783203 -2.957031 1 0 1
0 -70 -76 -56 1 0 0 -28.595703 -2.957031 1 0 1
0 -70 -76 -54 1 0 0 -28.595703 -2.941406 1 0 1
realworldtextures2_misc_granite_03
0 -70 -100 -56 1 0 0 -28.783203 -2.957031 1 0 1
0 -70 -76 -54 1 0 0 -28.595703 -2.941406 1 0 1
0 -70 -100 -54 1 0 0 -28.783203 -2.941406 1 0 1
realworldtextures2_misc_granite_03
0 -70 -100 -54 0 0 1 -25.173828 -28.363281 1 0 1
0 -70 -76 -54 0 0 1 -25.173828 -28.175781 1 0 1
0 -104 -76 -54 0 0 1 -24.908203 -28.175781 1 0 1
realworldtextures2_misc_granite_03
0 -70 -100 -54 0 0 1 -25.173828 -28.363281 1 0 1
0 -104 -76 -54 0 0 1 -24.908203 -28.175781 1 0 1
0 -104 -100 -54 0 0 1 -24.908203 -28.363281 1 0 1
realworldtextures2_misc_granite_03
0 -70 -100 -56 0 -1 0 -26.048828 -2.957031 1 0 1
0 -70 -100 -54 0 -1 0 -26.048828 -2.941406 1 0 1
0 -104 -100 -54 0 -1 0 -25.783203 -2.941406 1 0 1
realworldtextures2_misc_granite_03
0 -70 -100 -56 0 -1 0 -26.048828 -2.957031 1 0 1
0 -104 -100 -54 0 -1 0 -25.783203 -2.941406 1 0 1
0 -104 -100 -56 0 -1 0 -25.783203 -2.957031 1 0 1
wood_cabinets03
0 -72 -76 -56 1 0 0 103.474645 -15.002406 1 0 1
0 -72 -76 -92 1 0 0 103.474645 -16.002584 1 0 1
0 -72 -36 -92 1 0 0 102.363337 -16.002584 1 0 1
wood_cabinets03
0 -72 -76 -56 1 0 0 103.474645 -15.002406 1 0 1
0 -72 -36 -92 1 0 0 102.363337 -16.002584 1 0 1
0 -72 -36 -56 1 0 0 102.363337 -15.002406 1 0 1
realworldtextures2_wood_wood_26
0 24 -412 -50 0 1 0 -26 -3.421875 1 0 1
0 24 -412 14 0 1 0 -26 -2.921875 1 0 1
0 40 -412 14 0 1 0 -26.125 -2.921875 1 0 1
realworldtextures2_wood_wood_26
0 24 -412 -50 0 1 0 -26 -3.421875 1 0 1
0 40 -412 14 0 1 0 -26.125 -2.921875 1 0 1
0 40 -412 -50 0 1 0 -26.125 -3.421875 1 0 1
realworldtextures2_wood_wood_26
0 40 -420 -50 0 -1 0 -26.125 -3.421875 1 0 1
0 40 -420 14 0 -1 0 -26.125 -2.921875 1 0 1
0 24 -420 14 0 -1 0 -26 -2.921875 1 0 1
realworldtextures2_wood_wood_26
0 40 -420 -50 0 -1 0 -26.125 -3.421875 1 0 1
0 24 -420 14 0 -1 0 -26 -2.921875 1 0 1
0 24 -420 -50 0 -1 0 -26 -3.421875 1 0 1
realworldtextures2_wood_wood_26
0 24 -420 -50 -1 0 0 -31 -3.421875 1 0 1
0 24 -420 14 -1 0 0 -31 -2.921875 1 0 1
0 24 -412 14 -1 0 0 -30.9375 -2.921875 1 0 1
realworldtextures2_wood_wood_26
0 24 -420 -50 -1 0 0 -31 -3.421875 1 0 1
0 24 -412 14 -1 0 0 -30.9375 -2.921875 1 0 1
0 24 -412 -50 -1 0 0 -30.9375 -3.421875 1 0 1
realworldtextures2_wood_wood_26
0 40 -412 -50 1 0 0 -30.9375 -3.421875 1 0 1
0 40 -412 14 1 0 0 -30.9375 -2.921875 1 0 1
0 40 -420 14 1 0 0 -31 -2.921875 1 0 1
realworldtextures2_wood_wood_26
0 40 -412 -50 1 0 0 -30.9375 -3.421875 1 0 1
0 40 -420 14 1 0 0 -31 -2.921875 1 0 1
0 40 -420 -50 1 0 0 -31 -3.421875 1 0 1
wood_cabinets03
0 -72 -36 -92 1 0 0 102.460993 -16.002584 1 0 1
0 -72 60 -92 1 0 0 99.793852 -16.002584 1 0 1
0 -72 60 -56 1 0 0 99.793852 -15.002406 1 0 1
wood_cabinets03
0 -72 -36 -92 1 0 0 102.460993 -16.002584 1 0 1
0 -72 60 -56 1 0 0 99.793852 -15.002406 1 0 1
0 -72 -36 -56 1 0 0 102.460993 -15.002406 1 0 1
realworldtextures2_wood_wood_26
0 148 -412 14 0 1 0 -26.96875 -2.921875 1 0 1
0 148 -412 -50 0 1 0 -26.96875 -3.421875 1 0 1
0 120 -412 -50 0 1 0 -26.75 -3.421875 1 0 1
realworldtextures2_wood_wood_26
0 148 -412 14 0 1 0 -26.96875 -2.921875 1 0 1
0 120 -412 -50 0 1 0 -26.75 -3.421875 1 0 1
0 120 -412 14 0 1 0 -26.75 -2.921875 1 0 1
realworldtextures2_wood_wood_26
0 148 -420 -50 0 -1 0 -26.96875 -3.421875 1 0 1
0 148 -420 14 0 -1 0 -26.96875 -2.921875 1 0 1
0 120 -420 14 0 -1 0 -26.75 -2.921875 1 0 1
realworldtextures2_wood_wood_26
0 148 -420 -50 0 -1 0 -26.96875 -3.421875 1 0 1
0 120 -420 14 0 -1 0 -26.75 -2.921875 1 0 1
0 120 -420 -50 0 -1 0 -26.75 -3.421875 1 0 1
realworldtextures2_wood_wood_26
0 120 -420 -50 -1 0 0 -31 -3.421875 1 0 1
0 120 -420 14 -1 0 0 -31 -2.921875 1 0 1
0 120 -412 14 -1 0 0 -30.9375 -2.921875 1 0 1
realworldtextures2_wood_wood_26
0 120 -420 -50 -1 0 0 -31 -3.421875 1 0 1
0 120 -412 14 -1 0 0 -30.9375 -2.921875 1 0 1
0 120 -412 -50 -1 0 0 -30.9375 -3.421875 1 0 1
realworldtextures2_wood_wood_26
0 148 -420 14 1 0 0 -31 -2.921875 1 0 1
0 148 -420 -50 1 0 0 -31 -3.421875 1 0 1
0 148 -412 -50 1 0 0 -30.9375 -3.421875 1 0 1
realworldtextures2_wood_wood_26
0 148 -420 14 1 0 0 -31 -2.921875 1 0 1
0 148 -412 -50 1 0 0 -30.9375 -3.421875 1 0 1
0 148 -412 14 1 0 0 -30.9375 -2.921875 1 0 1
rock_rock_005
0 16 60 -54 0 1 0 -12.9375 -1.238281 1 0 1
0 16 60 -56 0 1 0 -12.9375 -1.246094 1 0 1
0 -18 60 -56 0 1 0 -12.804688 -1.246094 1 0 1
rock_rock_005
0 16 60 -54 0 1 0 -12.9375 -1.238281 1 0 1
0 -18 60 -56 0 1 0 -12.804688 -1.246094 1 0 1
0 -18 60 -54 0 1 0 -12.804688 -1.238281 1 0 1
realworldtextures2_misc_granite_03
0 16 12 -56 0 -1 0 26.029297 -3.144531 1 0 1
0 16 12 -54 0 -1 0 26.029297 -3.128906 1 0 1
0 -18 12 -54 0 -1 0 25.763672 -3.128906 1 0 1
realworldtextures2_misc_granite_03
0 16 12 -56 0 -1 0 26.029297 -3.144531 1 0 1
0 -18 12 -54 0 -1 0 25.763672 -3.128906 1 0 1
0 -18 12 -56 0 -1 0 25.763672 -3.144531 1 0 1
realworldtextures2_misc_granite_03
0 -18 12 -56 -1 0 0 27.982422 -3.144531 1 0 1
0 -18 12 -54 -1 0 0 27.982422 -3.128906 1 0 1
0 -18 60 -54 -1 0 0 27.607422 -3.128906 1 0 1
realworldtextures2_misc_granite_03
0 -18 12 -56 -1 0 0 27.982422 -3.144531 1 0 1
0 -18 60 -54 -1 0 0 27.607422 -3.128906 1 0 1
0 -18 60 -56 -1 0 0 27.607422 -3.144531 1 0 1
realworldtextures2_misc_granite_01
0 16 12 -56 0 0 -1 28.029297 27.261719 1 0 1
0 -18 12 -56 0 0 -1 28.029297 26.996094 1 0 1
0 -18 60 -56 0 0 -1 27.654297 26.996094 1 0 1
realworldtextures2_misc_granite_01
0 16 12 -56 0 0 -1 28.029297 27.261719 1 0 1
0 -18 60 -56 0 0 -1 27.654297 26.996094 1 0 1
0 16 60 -56 0 0 -1 27.654297 27.261719 1 0 1
realworldtextures2_misc_granite_03
0 -18 12 -54 0 0 1 27.982422 26.996094 1 0 1
0 16 12 -54 0 0 1 27.982422 27.261719 1 0 1
0 16 60 -54 0 0 1 27.607422 27.261719 1 0 1
realworldtextures2_misc_granite_03
0 -18 12 -54 0 0 1 27.982422 26.996094 1 0 1
0 16 60 -54 0 0 1 27.607422 27.261719 1 0 1
0 -18 60 -54 0 0 1 27.607422 26.996094 1 0 1
realworldtextures2_wood_wood_26
0 -56 -412 14 0 1 0 -25.375 -2.921875 1 0 1
0 -56 -412 -50 0 1 0 -25.375 -3.421875 1 0 1
0 -107.3 -412 -50 0 1 0 -24.974219 -3.421875 1 0 1
realworldtextures2_wood_wood_26
0 -56 -412 14 0 1 0 -25.375 -2.921875 1 0 1
0 -107.3 -412 -50 0 1 0 -24.974219 -3.421875 1 0 1
0 -63.5 -412 14 0 1 0 -25.316406 -2.921875 1 0 1
realworldtextures2_wood_wood_26
0 -56 -420 -50 0 -1 0 -25.375 -3.421875 1 0 1
0 -56 -420 14 0 -1 0 -25.375 -2.921875 1 0 1
0 -63.5 -420 14 0 -1 0 -25.316406 -2.921875 1 0 1
realworldtextures2_wood_wood_26
0 -56 -420 -50 0 -1 0 -25.375 -3.421875 1 0 1
0 -63.5 -420 14 0 -1 0 -25.316406 -2.921875 1 0 1
0 -107.3 -420 -50 0 -1 0 -24.974219 -3.421875 1 0 1
realworldtextures2_wood_wood_26
0 -56 -420 14 1 0 0 -31 -2.921875 1 0 1
0 -56 -420 -50 1 0 0 -31 -3.421875 1 0 1
0 -56 -412 -50 1 0 0 -30.9375 -3.421875 1 0 1
realworldtextures2_wood_wood_26
0 -56 -420 14 1 0 0 -31 -2.921875 1 0 1
0 -56 -412 -50 1 0 0 -30.9375 -3.421875 1 0 1
0 -56 -412 14 1 0 0 -30.9375 -2.921875 1 0 1
wood_cabinets04
0 -72 -98 -92 0 -1 0 -89.516792 -16.002584 1 0 1
0 -72 -98 -56 0 -1 0 -89.516792 -15.002406 1 0 1
0 -104 -98 -56 0 -1 0 -88.627745 -15.002406 1 0 1
wood_cabinets04
0 -72 -98 -92 0 -1 0 -89.516792 -16.002584 1 0 1
0 -104 -98 -56 0 -1 0 -88.627745 -15.002406 1 0 1
0 -104 -98 -92 0 -1 0 -88.627745 -16.002584 1 0 1
wood_cabinets03
0 -72 -98 -56 1 0 0 104.081959 -14.994593 1 0 1
0 -72 -98 -92 1 0 0 104.081959 -15.994771 1 0 1
0 -72 -76 -92 1 0 0 103.470739 -15.994771 1 0 1
wood_cabinets03
0 -72 -98 -56 1 0 0 104.081959 -14.994593 1 0 1
0 -72 -76 -92 1 0 0 103.470739 -15.994771 1 0 1
0 -72 -76 -56 1 0 0 103.470739 -14.994593 1 0 1
wood_cabinets04
0 16 -24 -56 0 1 0 -92.12964 -15.002406 1 0 1
0 16 -24 -92 0 1 0 -92.12964 -16.002584 1 0 1
0 -16 -24 -92 0 1 0 -91.240593 -16.002584 1 0 1
wood_cabinets04
0 16 -24 -56 0 1 0 -92.12964 -15.002406 1 0 1
0 -16 -24 -92 0 1 0 -91.240593 -16.002584 1 0 1
0 -16 -24 -56 0 1 0 -91.240593 -15.002406 1 0 1
wood_cabinets04
0 16 -62 -92 0 -1 0 -91.75464 -16.002584 1 0 1
0 16 -62 -56 0 -1 0 -91.75464 -15.002406 1 0 1
0 -16 -62 -56 0 -1 0 -90.865593 -15.002406 1 0 1
wood_cabinets04
0 16 -62 -92 0 -1 0 -91.75464 -16.002584 1 0 1
0 -16 -62 -56 0 -1 0 -90.865593 -15.002406 1 0 1
0 -16 -62 -92 0 -1 0 -90.865593 -16.002584 1 0 1
wood_cabinets03
0 -16 -62 -56 -1 0 0 97.278817 -15.002406 1 0 1
0 -16 -24 -56 -1 0 0 96.279238 -15.002406 1 0 1
0 -16 -24 -92 -1 0 0 96.279238 -16.002584 1 0 1
wood_cabinets03
0 -16 -62 -56 -1 0 0 97.278817 -15.002406 1 0 1
0 -16 -24 -92 -1 0 0 96.279238 -16.002584 1 0 1
0 -16 -62 -92 -1 0 0 97.278817 -16.002584 1 0 1
ocrp_glass2
0 120 -418 -50 0 -1 0 -854 -142 1 0 1
0 120 -418 14 0 -1 0 -854 -126 1 0 1
0 40 -418 14 0 -1 0 -834 -126 1 0 1
ocrp_glass2
0 120 -418 -50 0 -1 0 -854 -142 1 0 1
0 40 -418 14 0 -1 0 -834 -126 1 0 1
0 40 -418 -50 0 -1 0 -834 -142 1 0 1
realworldtextures2_misc_granite_03
0 -70 -76 -54 1 0 0 28.998047 -3.128906 1 0 1
0 -70 -76 -56 1 0 0 28.998047 -3.144531 1 0 1
0 -70 -36 -56 1 0 0 28.685547 -3.144531 1 0 1
realworldtextures2_misc_granite_03
0 -70 -76 -54 1 0 0 28.998047 -3.128906 1 0 1
0 -70 -36 -56 1 0 0 28.685547 -3.144531 1 0 1
0 -70 -36 -54 1 0 0 28.685547 -3.128906 1 0 1
realworldtextures2_misc_granite_01
0 -70 -76 -56 0 0 -1 28.65625 -24.328125 1 0 1
0 -76 -76 -56 0 0 -1 28.65625 -24.28125 1 0 1
0 -76 -36 -56 0 0 -1 28.34375 -24.28125 1 0 1
realworldtextures2_misc_granite_01
0 -70 -76 -56 0 0 -1 28.65625 -24.328125 1 0 1
0 -76 -36 -56 0 0 -1 28.34375 -24.28125 1 0 1
0 -70 -36 -56 0 0 -1 28.34375 -24.328125 1 0 1
realworldtextures2_misc_granite_03
0 -76 -76 -54 0 0 1 28.998047 -24.957031 1 0 1
0 -70 -76 -54 0 0 1 28.998047 -25.003906 1 0 1
0 -70 -36 -54 0 0 1 28.685547 -25.003906 1 0 1
realworldtextures2_misc_granite_03
0 -76 -76 -54 0 0 1 28.998047 -24.957031 1 0 1
0 -70 -36 -54 0 0 1 28.685547 -25.003906 1 0 1
0 -76 -36 -54 0 0 1 28.685547 -24.957031 1 0 1
realworldtextures2_wood_wood_26
0 207.5 -420 14 0 -1 0 -27.433594 -2.921875 1 0 1
0 200 -420 14 0 -1 0 -27.375 -2.921875 1 0 1
0 200 -420 -92 0 -1 0 -27.375 -3.75 1 0 1
realworldtextures2_wood_wood_26
0 207.5 -420 14 0 -1 0 -27.433594 -2.921875 1 0 1
0 200 -420 -92 0 -1 0 -27.375 -3.75 1 0 1
0 280 -420 -92 0 -1 0 -28 -3.75 1 0 1
realworldtextures2_wood_wood_26
0 200 -420 -92 -1 0 0 -31 -3.75 1 0 1
0 200 -420 14 -1 0 0 -31 -2.921875 1 0 1
0 200 -412 14 -1 0 0 -30.9375 -2.921875 1 0 1
realworldtextures2_wood_wood_26
0 200 -420 -92 -1 0 0 -31 -3.75 1 0 1
0 200 -412 14 -1 0 0 -30.9375 -2.921875 1 0 1
0 200 -412 -92 -1 0 0 -30.9375 -3.75 1 0 1
realworldtextures2_wood_wood_26
0 280 -412 -92 0 1 0 -28 -3.75 1 0 1
0 200 -412 -92 0 1 0 -27.375 -3.75 1 0 1
0 200 -412 14 0 1 0 -27.375 -2.921875 1 0 1
realworldtextures2_wood_wood_26
0 280 -412 -92 0 1 0 -28 -3.75 1 0 1
0 200 -412 14 0 1 0 -27.375 -2.921875 1 0 1
0 207.5 -412 14 0 1 0 -27.433594 -2.921875 1 0 1
props_woodcrate003d
0 16 60 -56 0 1 0 -103.5 -16.96875 1 0 1
0 16 60 -92 0 1 0 -103.5 -18.09375 1 0 1
0 -16 60 -92 0 1 0 -102.5 -18.09375 1 0 1
props_woodcrate003d
0 16 60 -56 0 1 0 -103.5 -16.96875 1 0 1
0 -16 60 -92 0 1 0 -102.5 -18.09375 1 0 1
0 -16 60 -56 0 1 0 -102.5 -16.96875 1 0 1
wood_cabinets04
0 16 12 -92 0 -1 0 92.043702 -16.002584 1 0 1
0 16 12 -56 0 -1 0 92.043702 -15.002406 1 0 1
0 -16 12 -56 0 -1 0 91.154655 -15.002406 1 0 1
wood_cabinets04
0 16 12 -92 0 -1 0 92.043702 -16.002584 1 0 1
0 -16 12 -56 0 -1 0 91.154655 -15.002406 1 0 1
0 -16 12 -92 0 -1 0 91.154655 -16.002584 1 0 1
wood_cabinets03
0 -16 12 -92 -1 0 0 75.332031 -16.002584 1 0 1
0 -16 12 -56 -1 0 0 75.332031 -15.002406 1 0 1
0 -16 60 -56 -1 0 0 74.332031 -15.002406 1 0 1
wood_cabinets03
0 -16 12 -92 -1 0 0 75.332031 -16.002584 1 0 1
0 -16 60 -56 -1 0 0 74.332031 -15.002406 1 0 1
0 -16 60 -92 -1 0 0 74.332031 -16.002584 1 0 1
realworldtextures2_misc_granite_03
0 16 -24 -54 0 1 0 -25.845703 -3.128906 1 0 1
0 16 -24 -56 0 1 0 -25.845703 -3.144531 1 0 1
0 -18 -24 -56 0 1 0 -25.580078 -3.144531 1 0 1
realworldtextures2_misc_granite_03
0 16 -24 -54 0 1 0 -25.845703 -3.128906 1 0 1
0 -18 -24 -56 0 1 0 -25.580078 -3.144531 1 0 1
0 -18 -24 -54 0 1 0 -25.580078 -3.128906 1 0 1
realworldtextures2_misc_granite_03
0 -18 -64.02 -54 -1 0 0 28.841953 -3.128906 1 0 1
0 -18 -24 -54 -1 0 0 28.529297 -3.128906 1 0 1
0 -18 -24 -56 -1 0 0 28.529297 -3.144531 1 0 1
realworldtextures2_misc_granite_03
0 -18 -64.02 -54 -1 0 0 28.841953 -3.128906 1 0 1
0 -18 -24 -56 -1 0 0 28.529297 -3.144531 1 0 1
0 -18 -64 -56 -1 0 0 28.841797 -3.144531 1 0 1
realworldtextures2_misc_granite_03
0 16 -64.02 -54 0 0 1 -25.845703 30.074375 1 0 1
0 16 -24 -54 0 0 1 -25.845703 29.761719 1 0 1
0 -18 -24 -54 0 0 1 -25.580078 29.761719 1 0 1
realworldtextures2_misc_granite_03
0 16 -64.02 -54 0 0 1 -25.845703 30.074375 1 0 1
0 -18 -24 -54 0 0 1 -25.580078 29.761719 1 0 1
0 -18 -64.02 -54 0 0 1 -25.580078 30.074375 1 0 1
realworldtextures2_misc_granite_03
0 -18 -64.02 -54 0 -0.99995 -0.01 25.584509 -2.966564 1 0 1
0 -18 -64 -56 0 -0.99995 -0.01 25.584395 -2.982191 1 0 1
0 16 -64 -56 0 -0.99995 -0.01 25.85002 -2.98413 1 0 1
realworldtextures2_misc_granite_03
0 -18 -64.02 -54 0 -0.99995 -0.01 25.584509 -2.966564 1 0 1
0 16 -64 -56 0 -0.99995 -0.01 25.85002 -2.98413 1 0 1
0 16 -64.02 -54 0 -0.99995 -0.01 25.850134 -2.968503 1 0 1
realworldtextures2_wood_wood_26
0 148 -412 -50 0 1 0 -26.96875 -3.421875 1 0 1
0 148 -412 -92 0 1 0 -26.96875 -3.75 1 0 1
0 -136 -412 -92 0 1 0 -24.75 -3.75 1 0 1
realworldtextures2_wood_wood_26
0 148 -412 -50 0 1 0 -26.96875 -3.421875 1 0 1
0 -136 -412 -92 0 1 0 -24.75 -3.75 1 0 1
0 -107.3 -412 -50 0 1 0 -24.974219 -3.421875 1 0 1
realworldtextures2_wood_wood_26
0 148 -420 -92 0 -1 0 -26.96875 -3.75 1 0 1
0 148 -420 -50 0 -1 0 -26.96875 -3.421875 1 0 1
0 -107.3 -420 -50 0 -1 0 -24.974219 -3.421875 1 0 1
realworldtextures2_wood_wood_26
0 148 -420 -92 0 -1 0 -26.96875 -3.75 1 0 1
0 -107.3 -420 -50 0 -1 0 -24.974219 -3.421875 1 0 1
0 -136 -420 -92 0 -1 0 -24.75 -3.75 1 0 1
end
