version 1
nodes
0 "root" -1
end
skeleton
time 0
0 0 0 0 0 0 0
end
triangles
pepsi2_arch_concrete_stair01
0 64 86 -20 0 1 0 92.914062 1.0625 1 0 1
0 64 86 -28 0 1 0 92.914062 1 1 0 1
0 -66 86 -28 0 1 0 93.929688 1 1 0 1
pepsi2_arch_concrete_stair01
0 64 86 -20 0 1 0 92.914062 1.0625 1 0 1
0 -66 86 -28 0 1 0 93.929688 1 1 0 1
0 -66 86 -20 0 1 0 93.929688 1.0625 1 0 1
pepsi2_arch_concrete_stair01
0 64 74 -20 0 0 1 92.914062 10.15625 1 0 1
0 64 86 -20 0 0 1 92.914062 10.0625 1 0 1
0 -66 86 -20 0 0 1 93.929688 10.0625 1 0 1
pepsi2_arch_concrete_stair01
0 64 74 -20 0 0 1 92.914062 10.15625 1 0 1
0 -66 86 -20 0 0 1 93.929688 10.0625 1 0 1
0 -66 74 -20 0 0 1 93.929688 10.15625 1 0 1
ares_hr_concrete_polished_001_color
0 65 50 4 0 1 0 -1.179036 -154.578776 1 0 1
0 65 50 -4 0 1 0 -1.283203 -154.578776 1 0 1
0 -65 50 -4 0 1 0 -1.283203 -156.271484 1 0 1
ares_hr_concrete_polished_001_color
0 65 50 4 0 1 0 -1.179036 -154.578776 1 0 1
0 -65 50 -4 0 1 0 -1.283203 -156.271484 1 0 1
0 -65 50 4 0 1 0 -1.179036 -156.271484 1 0 1
pepsi2_arch_concrete_floor_smooth01
0 -65 -51 4 0 0 1 -94.007812 -8.894531 1 0 1
0 65 -51 4 0 0 1 -92.992188 -8.894531 1 0 1
0 65 50 4 0 0 1 -92.992188 -8.105469 1 0 1
pepsi2_arch_concrete_floor_smooth01
0 -65 -51 4 0 0 1 -94.007812 -8.894531 1 0 1
0 65 50 4 0 0 1 -92.992188 -8.105469 1 0 1
0 -65 50 4 0 0 1 -94.007812 -8.105469 1 0 1
de_cbble_concrete01
0 126 -433 -250 0 -1 0 93.162109 -2.472656 1 0 1
0 126 -433 -242.001 0 -1 0 93.162109 -2.410164 1 0 1
0 118 -433 -250 0 -1 0 93.224609 -2.472656 1 0 1
de_cbble_concrete01
0 118 -433 -250 -0.707063 0 0.707151 -13.003906 -66.925343 1 0 1
0 126 -433 -242.001 -0.707063 0 0.707151 -13.003906 -66.836961 1 0 1
0 126 -231 -242.001 -0.707063 0 0.707151 -11.425781 -66.836961 1 0 1
de_cbble_concrete01
0 118 -433 -250 -0.707063 0 0.707151 -13.003906 -66.925343 1 0 1
0 126 -231 -242.001 -0.707063 0 0.707151 -11.425781 -66.836961 1 0 1
0 118 -231 -250 -0.707063 0 0.707151 -11.425781 -66.925343 1 0 1
pepsi2_arch_concrete_stair01
0 64 62 -4 0 1 0 92.914062 1.0625 1 0 1
0 64 62 -12 0 1 0 92.914062 1 1 0 1
0 -66 62 -12 0 1 0 93.929688 1 1 0 1
pepsi2_arch_concrete_stair01
0 64 62 -4 0 1 0 92.914062 1.0625 1 0 1
0 -66 62 -12 0 1 0 93.929688 1 1 0 1
0 -66 62 -4 0 1 0 93.929688 1.0625 1 0 1
pepsi2_arch_concrete_stair01
0 64 50 -4 0 0 1 92.914062 10.15625 1 0 1
0 64 62 -4 0 0 1 92.914062 10.0625 1 0 1
0 -66 62 -4 0 0 1 93.929688 10.0625 1 0 1
pepsi2_arch_concrete_stair01
0 64 50 -4 0 0 1 92.914062 10.15625 1 0 1
0 -66 62 -4 0 0 1 93.929688 10.0625 1 0 1
0 -66 50 -4 0 0 1 93.929688 10.15625 1 0 1
pepsi2_arch_concrete_stair01
0 64 122 -44 0 1 0 92.914062 0.0625 1 0 1
0 64 122 -52 0 1 0 92.914062 0 1 0 1
0 -66 122 -52 0 1 0 93.929688 0 1 0 1
pepsi2_arch_concrete_stair01
0 64 122 -44 0 1 0 92.914062 0.0625 1 0 1
0 -66 122 -52 0 1 0 93.929688 0 1 0 1
0 -66 122 -44 0 1 0 93.929688 0.0625 1 0 1
pepsi2_arch_concrete_stair01
0 64 110 -44 0 0 1 92.914062 9.15625 1 0 1
0 64 122 -44 0 0 1 92.914062 9.0625 1 0 1
0 -66 122 -44 0 0 1 93.929688 9.0625 1 0 1
pepsi2_arch_concrete_stair01
0 64 110 -44 0 0 1 92.914062 9.15625 1 0 1
0 -66 122 -44 0 0 1 93.929688 9.0625 1 0 1
0 -66 110 -44 0 0 1 93.929688 9.15625 1 0 1
pepsi2_arch_concrete_stair01
0 -66 86 -28 0 0 1 93.929688 10.15625 1 0 1
0 64 86 -28 0 0 1 92.914062 10.15625 1 0 1
0 64 98 -28 0 0 1 92.914062 10.0625 1 0 1
pepsi2_arch_concrete_stair01
0 -66 86 -28 0 0 1 93.929688 10.15625 1 0 1
0 64 98 -28 0 0 1 92.914062 10.0625 1 0 1
0 -66 98 -28 0 0 1 93.929688 10.0625 1 0 1
pepsi2_arch_concrete_stair01
0 64 98 -36 0 1 0 92.914062 0 1 0 1
0 -66 98 -36 0 1 0 93.929688 0 1 0 1
0 -66 98 -28 0 1 0 93.929688 0.0625 1 0 1
pepsi2_arch_concrete_stair01
0 64 98 -36 0 1 0 92.914062 0 1 0 1
0 -66 98 -28 0 1 0 93.929688 0.0625 1 0 1
0 64 98 -28 0 1 0 92.914062 0.0625 1 0 1
pepsi2_arch_concrete_stair01
0 -66 62 -12 0 0 1 93.929688 10.15625 1 0 1
0 64 62 -12 0 0 1 92.914062 10.15625 1 0 1
0 64 74 -12 0 0 1 92.914062 10.0625 1 0 1
pepsi2_arch_concrete_stair01
0 -66 62 -12 0 0 1 93.929688 10.15625 1 0 1
0 64 74 -12 0 0 1 92.914062 10.0625 1 0 1
0 -66 74 -12 0 0 1 93.929688 10.0625 1 0 1
pepsi2_arch_concrete_stair01
0 64 74 -20 0 1 0 92.914062 1 1 0 1
0 -66 74 -20 0 1 0 93.929688 1 1 0 1
0 -66 74 -12 0 1 0 93.929688 1.0625 1 0 1
pepsi2_arch_concrete_stair01
0 64 74 -20 0 1 0 92.914062 1 1 0 1
0 -66 74 -12 0 1 0 93.929688 1.0625 1 0 1
0 64 74 -12 0 1 0 92.914062 1.0625 1 0 1
de_cbble_concrete01
0 62 -433 -242 0 -1 0 93.662109 -2.410156 1 0 1
0 62 -433 -250 0 -1 0 93.662109 -2.472656 1 0 1
0 70 -433 -250 0 -1 0 93.599609 -2.472656 1 0 1
de_cbble_concrete01
0 62 -433 -242 0.707107 0 0.707107 -13.003906 -62.543412 1 0 1
0 70 -433 -250 0.707107 0 0.707107 -13.003906 -62.455024 1 0 1
0 70 -231 -250 0.707107 0 0.707107 -11.425781 -62.455024 1 0 1
de_cbble_concrete01
0 62 -433 -242 0.707107 0 0.707107 -13.003906 -62.543412 1 0 1
0 70 -231 -250 0.707107 0 0.707107 -11.425781 -62.455024 1 0 1
0 62 -231 -242 0.707107 0 0.707107 -11.425781 -62.543412 1 0 1
de_train_train_metalceiling_02
0 122 -227 -246 0 1 0 92.515625 4.59375 1 0 1
0 122 -227 -250 0 1 0 92.515625 4.625 1 0 1
0 66 -227 -250 0 1 0 92.953125 4.625 1 0 1
de_train_train_metalceiling_02
0 122 -227 -246 0 1 0 92.515625 4.59375 1 0 1
0 66 -227 -250 0 1 0 92.953125 4.625 1 0 1
0 66 -227 -246 0 1 0 92.953125 4.59375 1 0 1
de_train_train_metalceiling_02
0 122 -231 -250 0 -1 0 92.515625 4.625 1 0 1
0 122 -231 -246 0 -1 0 92.515625 4.59375 1 0 1
0 66 -231 -246 0 -1 0 92.953125 4.59375 1 0 1
de_train_train_metalceiling_02
0 122 -231 -250 0 -1 0 92.515625 4.625 1 0 1
0 66 -231 -246 0 -1 0 92.953125 4.59375 1 0 1
0 66 -231 -250 0 -1 0 92.953125 4.625 1 0 1
de_train_train_metalceiling_02
0 66 -231 -246 0 0 1 92.953125 12.59375 1 0 1
0 122 -231 -246 0 0 1 92.515625 12.59375 1 0 1
0 122 -227 -246 0 0 1 92.515625 12.5625 1 0 1
de_train_train_metalceiling_02
0 66 -231 -246 0 0 1 92.953125 12.59375 1 0 1
0 122 -227 -246 0 0 1 92.515625 12.5625 1 0 1
0 66 -227 -246 0 0 1 92.953125 12.5625 1 0 1
de_train_train_metalceiling_02
0 122 -231 -190 0 -1 0 92.515625 4.15625 1 0 1
0 122 -231 -186 0 -1 0 92.515625 4.125 1 0 1
0 66 -231 -186 0 -1 0 92.953125 4.125 1 0 1
de_train_train_metalceiling_02
0 122 -231 -190 0 -1 0 92.515625 4.15625 1 0 1
0 66 -231 -186 0 -1 0 92.953125 4.125 1 0 1
0 66 -231 -190 0 -1 0 92.953125 4.15625 1 0 1
de_train_train_metalceiling_02
0 122 -231 -190 0 0 -1 92.515625 -9.84375 1 0 1
0 66 -231 -190 0 0 -1 92.953125 -9.84375 1 0 1
0 66 -227 -190 0 0 -1 92.953125 -9.8125 1 0 1
de_train_train_metalceiling_02
0 122 -231 -190 0 0 -1 92.515625 -9.84375 1 0 1
0 66 -227 -190 0 0 -1 92.953125 -9.8125 1 0 1
0 122 -227 -190 0 0 -1 92.515625 -9.8125 1 0 1
de_train_train_metalceiling_02
0 122 -227 -186 0 1 0 92.515625 4.125 1 0 1
0 122 -227 -190 0 1 0 92.515625 4.15625 1 0 1
0 66 -227 -190 0 1 0 92.953125 4.15625 1 0 1
de_train_train_metalceiling_02
0 122 -227 -186 0 1 0 92.515625 4.125 1 0 1
0 66 -227 -190 0 1 0 92.953125 4.15625 1 0 1
0 66 -227 -186 0 1 0 92.953125 4.125 1 0 1
de_train_train_metalceiling_02
0 62 -227 -250 0 1 0 92.984375 4.625 1 0 1
0 62 -227 -186 0 1 0 92.984375 4.125 1 0 1
0 66 -227 -186 0 1 0 92.953125 4.125 1 0 1
de_train_train_metalceiling_02
0 62 -227 -250 0 1 0 92.984375 4.625 1 0 1
0 66 -227 -186 0 1 0 92.953125 4.125 1 0 1
0 66 -227 -250 0 1 0 92.953125 4.625 1 0 1
de_train_train_metalceiling_02
0 66 -231 -250 0 -1 0 92.953125 4.625 1 0 1
0 66 -231 -186 0 -1 0 92.953125 4.125 1 0 1
0 62 -231 -186 0 -1 0 92.984375 4.125 1 0 1
de_train_train_metalceiling_02
0 66 -231 -250 0 -1 0 92.953125 4.625 1 0 1
0 62 -231 -186 0 -1 0 92.984375 4.125 1 0 1
0 62 -231 -250 0 -1 0 92.984375 4.625 1 0 1
de_train_train_metalceiling_02
0 66 -227 -250 1 0 0 10.921875 4.625 1 0 1
0 66 -227 -186 1 0 0 10.921875 4.125 1 0 1
0 66 -231 -186 1 0 0 10.953125 4.125 1 0 1
de_train_train_metalceiling_02
0 66 -227 -250 1 0 0 10.921875 4.625 1 0 1
0 66 -231 -186 1 0 0 10.953125 4.125 1 0 1
0 66 -231 -250 1 0 0 10.953125 4.625 1 0 1
de_train_train_metalceiling_02
0 126 -227 -186 0 1 0 92.484375 4.125 1 0 1
0 126 -227 -250 0 1 0 92.484375 4.625 1 0 1
0 122 -227 -250 0 1 0 92.515625 4.625 1 0 1
de_train_train_metalceiling_02
0 126 -227 -186 0 1 0 92.484375 4.125 1 0 1
0 122 -227 -250 0 1 0 92.515625 4.625 1 0 1
0 122 -227 -186 0 1 0 92.515625 4.125 1 0 1
de_train_train_metalceiling_02
0 126 -231 -250 0 -1 0 92.484375 4.625 1 0 1
0 126 -231 -186 0 -1 0 92.484375 4.125 1 0 1
0 122 -231 -186 0 -1 0 92.515625 4.125 1 0 1
de_train_train_metalceiling_02
0 126 -231 -250 0 -1 0 92.484375 4.625 1 0 1
0 122 -231 -186 0 -1 0 92.515625 4.125 1 0 1
0 122 -231 -250 0 -1 0 92.515625 4.625 1 0 1
de_train_train_metalceiling_02
0 122 -231 -250 -1 0 0 -11.484375 4.625 1 0 1
0 122 -231 -186 -1 0 0 -11.484375 4.125 1 0 1
0 122 -227 -186 -1 0 0 -11.453125 4.125 1 0 1
de_train_train_metalceiling_02
0 122 -231 -250 -1 0 0 -11.484375 4.625 1 0 1
0 122 -227 -186 -1 0 0 -11.453125 4.125 1 0 1
0 122 -227 -250 -1 0 0 -11.453125 4.625 1 0 1
de_cbble_concrete01
0 126 -497 -193.999 -0.707063 0 -0.707151 64.222608 14.488281 1 0 1
0 118 -497 -186 -0.707063 0 -0.707151 64.31099 14.488281 1 0 1
0 118 -231 -186 -0.707063 0 -0.707151 64.31099 12.410156 1 0 1
de_cbble_concrete01
0 126 -497 -193.999 -0.707063 0 -0.707151 64.222608 14.488281 1 0 1
0 118 -231 -186 -0.707063 0 -0.707151 64.31099 12.410156 1 0 1
0 126 -231 -193.999 -0.707063 0 -0.707151 64.222608 12.410156 1 0 1
pepsi2_arch_concrete_stair01
0 64 110 -36 0 1 0 92.914062 0.0625 1 0 1
0 64 110 -44 0 1 0 92.914062 0 1 0 1
0 -66 110 -44 0 1 0 93.929688 0 1 0 1
pepsi2_arch_concrete_stair01
0 64 110 -36 0 1 0 92.914062 0.0625 1 0 1
0 -66 110 -44 0 1 0 93.929688 0 1 0 1
0 -66 110 -36 0 1 0 93.929688 0.0625 1 0 1
pepsi2_arch_concrete_stair01
0 64 98 -36 0 0 1 92.914062 10.15625 1 0 1
0 64 110 -36 0 0 1 92.914062 10.0625 1 0 1
0 -66 110 -36 0 0 1 93.929688 10.0625 1 0 1
pepsi2_arch_concrete_stair01
0 64 98 -36 0 0 1 92.914062 10.15625 1 0 1
0 -66 110 -36 0 0 1 93.929688 10.0625 1 0 1
0 -66 98 -36 0 0 1 93.929688 10.15625 1 0 1
de_cbble_concrete01
0 70 -497 -186 0.707195 0 -0.707018 67.686565 14.488281 1 0 1
0 62 -497 -194.002 0.707195 0 -0.707018 67.774963 14.488281 1 0 1
0 62 -231 -194.002 0.707195 0 -0.707018 67.774963 12.410156 1 0 1
de_cbble_concrete01
0 70 -497 -186 0.707195 0 -0.707018 67.686565 14.488281 1 0 1
0 62 -231 -194.002 0.707195 0 -0.707018 67.774963 12.410156 1 0 1
0 70 -231 -186 0.707195 0 -0.707018 67.686565 12.410156 1 0 1
end
