version 1
nodes
0 "root" -1
end
skeleton
time 0
0 0 0 0 0 0 0
end
triangles
phys
0 185 -159 -238 0 0 1 1 0 1 0 1
0 185 -159 -278 0 0 1 1 0 1 0 1
0 175 -159 -278 0 0 1 1 0 1 0 1
phys
0 185 -159 -238 0 0 1 1 0 1 0 1
0 175 -159 -278 0 0 1 1 0 1 0 1
0 175 -159 -238 0 0 1 1 0 1 0 1
phys
0 185 -161 -278 0 0 1 1 0 1 0 1
0 185 -161 -238 0 0 1 1 0 1 0 1
0 175 -161 -238 0 0 1 1 0 1 0 1
phys
0 185 -161 -278 0 0 1 1 0 1 0 1
0 175 -161 -238 0 0 1 1 0 1 0 1
0 175 -161 -278 0 0 1 1 0 1 0 1
phys
0 175 -161 -278 0 0 1 1 0 1 0 1
0 175 -161 -238 0 0 1 1 0 1 0 1
0 175 -159 -238 0 0 1 1 0 1 0 1
phys
0 175 -161 -278 0 0 1 1 0 1 0 1
0 175 -159 -238 0 0 1 1 0 1 0 1
0 175 -159 -278 0 0 1 1 0 1 0 1
phys
0 185 -161 -238 0 0 1 1 0 1 0 1
0 185 -161 -278 0 0 1 1 0 1 0 1
0 185 -159 -278 0 0 1 1 0 1 0 1
phys
0 185 -161 -238 0 0 1 1 0 1 0 1
0 185 -159 -278 0 0 1 1 0 1 0 1
0 185 -159 -238 0 0 1 1 0 1 0 1
phys
0 185 -161 -278 0 0 1 1 0 1 0 1
0 175 -161 -278 0 0 1 1 0 1 0 1
0 175 -159 -278 0 0 1 1 0 1 0 1
phys
0 185 -161 -278 0 0 1 1 0 1 0 1
0 175 -159 -278 0 0 1 1 0 1 0 1
0 185 -159 -278 0 0 1 1 0 1 0 1
phys
0 175 -161 -238 0 0 1 1 0 1 0 1
0 185 -161 -238 0 0 1 1 0 1 0 1
0 185 -159 -238 0 0 1 1 0 1 0 1
phys
0 175 -161 -238 0 0 1 1 0 1 0 1
0 185 -159 -238 0 0 1 1 0 1 0 1
0 175 -159 -238 0 0 1 1 0 1 0 1
phys
0 38 75 -10 0 0 1 2 0 1 0 1
0 38 76 -10 0 0 1 2 0 1 0 1
0 38 76 2 0 0 1 2 0 1 0 1
phys
0 38 75 -10 0 0 1 2 0 1 0 1
0 38 76 2 0 0 1 2 0 1 0 1
0 38 75 2 0 0 1 2 0 1 0 1
phys
0 11 76 -10 0 0 1 2 0 1 0 1
0 38 76 -10 0 0 1 2 0 1 0 1
0 38 75 -10 0 0 1 2 0 1 0 1
phys
0 11 76 -10 0 0 1 2 0 1 0 1
0 38 75 -10 0 0 1 2 0 1 0 1
0 11 75 -10 0 0 1 2 0 1 0 1
phys
0 11 75 2 0 0 1 2 0 1 0 1
0 38 75 2 0 0 1 2 0 1 0 1
0 38 76 2 0 0 1 2 0 1 0 1
phys
0 11 75 2 0 0 1 2 0 1 0 1
0 38 76 2 0 0 1 2 0 1 0 1
0 11 76 2 0 0 1 2 0 1 0 1
phys
0 38 76 2 0 0 1 2 0 1 0 1
0 38 76 -10 0 0 1 2 0 1 0 1
0 11 76 -10 0 0 1 2 0 1 0 1
phys
0 38 76 2 0 0 1 2 0 1 0 1
0 11 76 -10 0 0 1 2 0 1 0 1
0 11 76 2 0 0 1 2 0 1 0 1
phys
0 38 75 -10 0 0 1 2 0 1 0 1
0 38 75 2 0 0 1 2 0 1 0 1
0 11 75 2 0 0 1 2 0 1 0 1
phys
0 38 75 -10 0 0 1 2 0 1 0 1
0 11 75 2 0 0 1 2 0 1 0 1
0 11 75 -10 0 0 1 2 0 1 0 1
phys
0 11 75 2 0 0 1 2 0 1 0 1
0 11 76 2 0 0 1 2 0 1 0 1
0 11 76 -10 0 0 1 2 0 1 0 1
phys
0 11 75 2 0 0 1 2 0 1 0 1
0 11 76 -10 0 0 1 2 0 1 0 1
0 11 75 -10 0 0 1 2 0 1 0 1
phys
0 179 -159 -238 0 0 1 3 0 1 0 1
0 179 -107 -238 0 0 1 3 0 1 0 1
0 179 -107 -278 0 0 1 3 0 1 0 1
phys
0 179 -159 -238 0 0 1 3 0 1 0 1
0 179 -107 -278 0 0 1 3 0 1 0 1
0 179 -159 -278 0 0 1 3 0 1 0 1
phys
0 180 -159 -278 0 0 1 3 0 1 0 1
0 180 -107 -278 0 0 1 3 0 1 0 1
0 180 -107 -238 0 0 1 3 0 1 0 1
phys
0 180 -159 -278 0 0 1 3 0 1 0 1
0 180 -107 -238 0 0 1 3 0 1 0 1
0 180 -159 -238 0 0 1 3 0 1 0 1
phys
0 179 -159 -278 0 0 1 3 0 1 0 1
0 179 -107 -278 0 0 1 3 0 1 0 1
0 180 -107 -278 0 0 1 3 0 1 0 1
phys
0 179 -159 -278 0 0 1 3 0 1 0 1
0 180 -107 -278 0 0 1 3 0 1 0 1
0 180 -159 -278 0 0 1 3 0 1 0 1
phys
0 180 -159 -238 0 0 1 3 0 1 0 1
0 180 -107 -238 0 0 1 3 0 1 0 1
0 179 -107 -238 0 0 1 3 0 1 0 1
phys
0 180 -159 -238 0 0 1 3 0 1 0 1
0 179 -107 -238 0 0 1 3 0 1 0 1
0 179 -159 -238 0 0 1 3 0 1 0 1
phys
0 180 -107 -238 0 0 1 3 0 1 0 1
0 180 -107 -278 0 0 1 3 0 1 0 1
0 179 -107 -278 0 0 1 3 0 1 0 1
phys
0 180 -107 -238 0 0 1 3 0 1 0 1
0 179 -107 -278 0 0 1 3 0 1 0 1
0 179 -107 -238 0 0 1 3 0 1 0 1
phys
0 180 -159 -278 0 0 1 3 0 1 0 1
0 180 -159 -238 0 0 1 3 0 1 0 1
0 179 -159 -238 0 0 1 3 0 1 0 1
phys
0 180 -159 -278 0 0 1 3 0 1 0 1
0 179 -159 -238 0 0 1 3 0 1 0 1
0 179 -159 -278 0 0 1 3 0 1 0 1
phys
0 185 -105 -238 0 0 1 4 0 1 0 1
0 185 -105 -278 0 0 1 4 0 1 0 1
0 175 -105 -278 0 0 1 4 0 1 0 1
phys
0 185 -105 -238 0 0 1 4 0 1 0 1
0 175 -105 -278 0 0 1 4 0 1 0 1
0 175 -105 -238 0 0 1 4 0 1 0 1
phys
0 185 -107 -278 0 0 1 4 0 1 0 1
0 185 -107 -238 0 0 1 4 0 1 0 1
0 175 -107 -238 0 0 1 4 0 1 0 1
phys
0 185 -107 -278 0 0 1 4 0 1 0 1
0 175 -107 -238 0 0 1 4 0 1 0 1
0 175 -107 -278 0 0 1 4 0 1 0 1
phys
0 175 -107 -278 0 0 1 4 0 1 0 1
0 175 -107 -238 0 0 1 4 0 1 0 1
0 175 -105 -238 0 0 1 4 0 1 0 1
phys
0 175 -107 -278 0 0 1 4 0 1 0 1
0 175 -105 -238 0 0 1 4 0 1 0 1
0 175 -105 -278 0 0 1 4 0 1 0 1
phys
0 185 -107 -238 0 0 1 4 0 1 0 1
0 185 -107 -278 0 0 1 4 0 1 0 1
0 185 -105 -278 0 0 1 4 0 1 0 1
phys
0 185 -107 -238 0 0 1 4 0 1 0 1
0 185 -105 -278 0 0 1 4 0 1 0 1
0 185 -105 -238 0 0 1 4 0 1 0 1
phys
0 185 -107 -278 0 0 1 4 0 1 0 1
0 175 -107 -278 0 0 1 4 0 1 0 1
0 175 -105 -278 0 0 1 4 0 1 0 1
phys
0 185 -107 -278 0 0 1 4 0 1 0 1
0 175 -105 -278 0 0 1 4 0 1 0 1
0 185 -105 -278 0 0 1 4 0 1 0 1
phys
0 175 -107 -238 0 0 1 4 0 1 0 1
0 185 -107 -238 0 0 1 4 0 1 0 1
0 185 -105 -238 0 0 1 4 0 1 0 1
phys
0 175 -107 -238 0 0 1 4 0 1 0 1
0 185 -105 -238 0 0 1 4 0 1 0 1
0 175 -105 -238 0 0 1 4 0 1 0 1
phys
0 -5 289 -59 0 0 1 5 0 1 0 1
0 -5 289 -62 0 0 1 5 0 1 0 1
0 -42 289 -62 0 0 1 5 0 1 0 1
phys
0 -5 289 -59 0 0 1 5 0 1 0 1
0 -42 289 -62 0 0 1 5 0 1 0 1
0 -42 289 -59 0 0 1 5 0 1 0 1
phys
0 -5 235 -62 0 0 1 5 0 1 0 1
0 -5 235 -59 0 0 1 5 0 1 0 1
0 -42 235 -59 0 0 1 5 0 1 0 1
phys
0 -5 235 -62 0 0 1 5 0 1 0 1
0 -42 235 -59 0 0 1 5 0 1 0 1
0 -42 235 -62 0 0 1 5 0 1 0 1
phys
0 -42 235 -62 0 0 1 5 0 1 0 1
0 -42 235 -59 0 0 1 5 0 1 0 1
0 -42 289 -59 0 0 1 5 0 1 0 1
phys
0 -42 235 -62 0 0 1 5 0 1 0 1
0 -42 289 -59 0 0 1 5 0 1 0 1
0 -42 289 -62 0 0 1 5 0 1 0 1
phys
0 -5 235 -59 0 0 1 5 0 1 0 1
0 -5 235 -62 0 0 1 5 0 1 0 1
0 -5 289 -62 0 0 1 5 0 1 0 1
phys
0 -5 235 -59 0 0 1 5 0 1 0 1
0 -5 289 -62 0 0 1 5 0 1 0 1
0 -5 289 -59 0 0 1 5 0 1 0 1
phys
0 -5 235 -62 0 0 1 5 0 1 0 1
0 -42 235 -62 0 0 1 5 0 1 0 1
0 -42 289 -62 0 0 1 5 0 1 0 1
phys
0 -5 235 -62 0 0 1 5 0 1 0 1
0 -42 289 -62 0 0 1 5 0 1 0 1
0 -5 289 -62 0 0 1 5 0 1 0 1
phys
0 -42 235 -59 0 0 1 5 0 1 0 1
0 -5 235 -59 0 0 1 5 0 1 0 1
0 -5 289 -59 0 0 1 5 0 1 0 1
phys
0 -42 235 -59 0 0 1 5 0 1 0 1
0 -5 289 -59 0 0 1 5 0 1 0 1
0 -42 289 -59 0 0 1 5 0 1 0 1
phys
0 5 237 51 0 0 1 6 0 1 0 1
0 5 237 -31 0 0 1 6 0 1 0 1
0 -5 237 -31 0 0 1 6 0 1 0 1
phys
0 5 237 51 0 0 1 6 0 1 0 1
0 -5 237 -31 0 0 1 6 0 1 0 1
0 -5 237 51 0 0 1 6 0 1 0 1
phys
0 5 235 -33 0 0 1 6 0 1 0 1
0 5 235 53 0 0 1 6 0 1 0 1
0 -5 235 53 0 0 1 6 0 1 0 1
phys
0 5 235 -33 0 0 1 6 0 1 0 1
0 -5 235 53 0 0 1 6 0 1 0 1
0 -5 235 -33 0 0 1 6 0 1 0 1
phys
0 -5 235 -33 0 0 1 6 0 1 0 1
0 -5 235 53 0 0 1 6 0 1 0 1
0 -5 237 51 0 0 1 6 0 1 0 1
phys
0 -5 235 -33 0 0 1 6 0 1 0 1
0 -5 237 51 0 0 1 6 0 1 0 1
0 -5 237 -31 0 0 1 6 0 1 0 1
phys
0 5 235 53 0 0 1 6 0 1 0 1
0 5 235 -33 0 0 1 6 0 1 0 1
0 5 237 -31 0 0 1 6 0 1 0 1
phys
0 5 235 53 0 0 1 6 0 1 0 1
0 5 237 -31 0 0 1 6 0 1 0 1
0 5 237 51 0 0 1 6 0 1 0 1
phys
0 -5 235 53 0 0 1 6 0 1 0 1
0 5 235 53 0 0 1 6 0 1 0 1
0 5 237 51 0 0 1 6 0 1 0 1
phys
0 -5 235 53 0 0 1 6 0 1 0 1
0 5 237 51 0 0 1 6 0 1 0 1
0 -5 237 51 0 0 1 6 0 1 0 1
phys
0 5 235 -33 0 0 1 6 0 1 0 1
0 -5 235 -33 0 0 1 6 0 1 0 1
0 -5 237 -31 0 0 1 6 0 1 0 1
phys
0 5 235 -33 0 0 1 6 0 1 0 1
0 -5 237 -31 0 0 1 6 0 1 0 1
0 5 237 -31 0 0 1 6 0 1 0 1
phys
0 -5 239 -80 0 0 1 7 0 1 0 1
0 -5 239 -62 0 0 1 7 0 1 0 1
0 -38 239 -62 0 0 1 7 0 1 0 1
phys
0 -5 239 -80 0 0 1 7 0 1 0 1
0 -38 239 -62 0 0 1 7 0 1 0 1
0 -38 239 -80 0 0 1 7 0 1 0 1
phys
0 -38 239 -80 0 0 1 7 0 1 0 1
0 -38 239 -62 0 0 1 7 0 1 0 1
0 -38 285 -62 0 0 1 7 0 1 0 1
phys
0 -38 239 -80 0 0 1 7 0 1 0 1
0 -38 285 -62 0 0 1 7 0 1 0 1
0 -38 285 -80 0 0 1 7 0 1 0 1
phys
0 -5 239 -62 0 0 1 7 0 1 0 1
0 -5 239 -80 0 0 1 7 0 1 0 1
0 -5 285 -80 0 0 1 7 0 1 0 1
phys
0 -5 239 -62 0 0 1 7 0 1 0 1
0 -5 285 -80 0 0 1 7 0 1 0 1
0 -5 285 -62 0 0 1 7 0 1 0 1
phys
0 -5 239 -80 0 0 1 7 0 1 0 1
0 -38 239 -80 0 0 1 7 0 1 0 1
0 -38 285 -80 0 0 1 7 0 1 0 1
phys
0 -5 239 -80 0 0 1 7 0 1 0 1
0 -38 285 -80 0 0 1 7 0 1 0 1
0 -5 285 -80 0 0 1 7 0 1 0 1
phys
0 -38 239 -62 0 0 1 7 0 1 0 1
0 -5 239 -62 0 0 1 7 0 1 0 1
0 -5 285 -62 0 0 1 7 0 1 0 1
phys
0 -38 239 -62 0 0 1 7 0 1 0 1
0 -5 285 -62 0 0 1 7 0 1 0 1
0 -38 285 -62 0 0 1 7 0 1 0 1
phys
0 -5 285 -62 0 0 1 7 0 1 0 1
0 -5 285 -80 0 0 1 7 0 1 0 1
0 -38 285 -80 0 0 1 7 0 1 0 1
phys
0 -5 285 -62 0 0 1 7 0 1 0 1
0 -38 285 -80 0 0 1 7 0 1 0 1
0 -38 285 -62 0 0 1 7 0 1 0 1
phys
0 0 287 51 0 0 1 8 0 1 0 1
0 0 287 -31 0 0 1 8 0 1 0 1
0 -1 287 -31 0 0 1 8 0 1 0 1
phys
0 0 287 51 0 0 1 8 0 1 0 1
0 -1 287 -31 0 0 1 8 0 1 0 1
0 -1 287 51 0 0 1 8 0 1 0 1
phys
0 0 237 -31 0 0 1 8 0 1 0 1
0 0 237 51 0 0 1 8 0 1 0 1
0 -1 237 51 0 0 1 8 0 1 0 1
phys
0 0 237 -31 0 0 1 8 0 1 0 1
0 -1 237 51 0 0 1 8 0 1 0 1
0 -1 237 -31 0 0 1 8 0 1 0 1
phys
0 -1 237 -31 0 0 1 8 0 1 0 1
0 -1 237 51 0 0 1 8 0 1 0 1
0 -1 287 51 0 0 1 8 0 1 0 1
phys
0 -1 237 -31 0 0 1 8 0 1 0 1
0 -1 287 51 0 0 1 8 0 1 0 1
0 -1 287 -31 0 0 1 8 0 1 0 1
phys
0 0 237 51 0 0 1 8 0 1 0 1
0 0 237 -31 0 0 1 8 0 1 0 1
0 0 287 -31 0 0 1 8 0 1 0 1
phys
0 0 237 51 0 0 1 8 0 1 0 1
0 0 287 -31 0 0 1 8 0 1 0 1
0 0 287 51 0 0 1 8 0 1 0 1
phys
0 0 237 -31 0 0 1 8 0 1 0 1
0 -1 237 -31 0 0 1 8 0 1 0 1
0 -1 287 -31 0 0 1 8 0 1 0 1
phys
0 0 237 -31 0 0 1 8 0 1 0 1
0 -1 287 -31 0 0 1 8 0 1 0 1
0 0 287 -31 0 0 1 8 0 1 0 1
phys
0 -1 237 51 0 0 1 8 0 1 0 1
0 0 237 51 0 0 1 8 0 1 0 1
0 0 287 51 0 0 1 8 0 1 0 1
phys
0 -1 237 51 0 0 1 8 0 1 0 1
0 0 287 51 0 0 1 8 0 1 0 1
0 -1 287 51 0 0 1 8 0 1 0 1
phys
0 175 -197 -236 0 0 1 9 0 1 0 1
0 175 -69 -236 0 0 1 9 0 1 0 1
0 175 -71 -238 0 0 1 9 0 1 0 1
phys
0 175 -197 -236 0 0 1 9 0 1 0 1
0 175 -71 -238 0 0 1 9 0 1 0 1
0 175 -195 -238 0 0 1 9 0 1 0 1
phys
0 185 -195 -238 0 0 1 9 0 1 0 1
0 185 -71 -238 0 0 1 9 0 1 0 1
0 185 -69 -236 0 0 1 9 0 1 0 1
phys
0 185 -195 -238 0 0 1 9 0 1 0 1
0 185 -69 -236 0 0 1 9 0 1 0 1
0 185 -197 -236 0 0 1 9 0 1 0 1
phys
0 175 -195 -238 0 0 1 9 0 1 0 1
0 175 -71 -238 0 0 1 9 0 1 0 1
0 185 -71 -238 0 0 1 9 0 1 0 1
phys
0 175 -195 -238 0 0 1 9 0 1 0 1
0 185 -71 -238 0 0 1 9 0 1 0 1
0 185 -195 -238 0 0 1 9 0 1 0 1
phys
0 185 -197 -236 0 0 1 9 0 1 0 1
0 185 -69 -236 0 0 1 9 0 1 0 1
0 175 -69 -236 0 0 1 9 0 1 0 1
phys
0 185 -197 -236 0 0 1 9 0 1 0 1
0 175 -69 -236 0 0 1 9 0 1 0 1
0 175 -197 -236 0 0 1 9 0 1 0 1
phys
0 175 -71 -238 0 0 1 9 0 1 0 1
0 175 -69 -236 0 0 1 9 0 1 0 1
0 185 -69 -236 0 0 1 9 0 1 0 1
phys
0 175 -71 -238 0 0 1 9 0 1 0 1
0 185 -69 -236 0 0 1 9 0 1 0 1
0 185 -71 -238 0 0 1 9 0 1 0 1
phys
0 175 -197 -236 0 0 1 9 0 1 0 1
0 175 -195 -238 0 0 1 9 0 1 0 1
0 185 -195 -238 0 0 1 9 0 1 0 1
phys
0 175 -197 -236 0 0 1 9 0 1 0 1
0 185 -195 -238 0 0 1 9 0 1 0 1
0 185 -197 -236 0 0 1 9 0 1 0 1
phys
0 12 16 -80 0 0 1 10 0 1 0 1
0 -12 16 -80 0 0 1 10 0 1 0 1
0 -12 16 80 0 0 1 10 0 1 0 1
phys
0 12 16 -80 0 0 1 10 0 1 0 1
0 -12 16 80 0 0 1 10 0 1 0 1
0 12 16 80 0 0 1 10 0 1 0 1
phys
0 12 -16 80 0 0 1 10 0 1 0 1
0 -12 -16 80 0 0 1 10 0 1 0 1
0 -12 -16 -80 0 0 1 10 0 1 0 1
phys
0 12 -16 80 0 0 1 10 0 1 0 1
0 -12 -16 -80 0 0 1 10 0 1 0 1
0 12 -16 -80 0 0 1 10 0 1 0 1
phys
0 -16 -12.001 80 0 0 1 10 0 1 0 1
0 -16 12.001 80 0 0 1 10 0 1 0 1
0 -16 12.001 -80 0 0 1 10 0 1 0 1
phys
0 -16 -12.001 80 0 0 1 10 0 1 0 1
0 -16 12.001 -80 0 0 1 10 0 1 0 1
0 -16 -12.001 -80 0 0 1 10 0 1 0 1
phys
0 16 -11.999 -80 0 0 1 10 0 1 0 1
0 16 11.999 -80 0 0 1 10 0 1 0 1
0 16 11.999 80 0 0 1 10 0 1 0 1
phys
0 16 -11.999 -80 0 0 1 10 0 1 0 1
0 16 11.999 80 0 0 1 10 0 1 0 1
0 16 -11.999 80 0 0 1 10 0 1 0 1
phys
0 12 -16 -80 0 0 1 10 0 1 0 1
0 -12 -16 -80 0 0 1 10 0 1 0 1
0 -16 -12.001 -80 0 0 1 10 0 1 0 1
phys
0 12 -16 -80 0 0 1 10 0 1 0 1
0 -16 -12.001 -80 0 0 1 10 0 1 0 1
0 -16 12.001 -80 0 0 1 10 0 1 0 1
phys
0 12 -16 -80 0 0 1 10 0 1 0 1
0 -16 12.001 -80 0 0 1 10 0 1 0 1
0 -12 16 -80 0 0 1 10 0 1 0 1
phys
0 12 -16 -80 0 0 1 10 0 1 0 1
0 -12 16 -80 0 0 1 10 0 1 0 1
0 12 16 -80 0 0 1 10 0 1 0 1
phys
0 12 -16 -80 0 0 1 10 0 1 0 1
0 12 16 -80 0 0 1 10 0 1 0 1
0 16 11.999 -80 0 0 1 10 0 1 0 1
phys
0 12 -16 -80 0 0 1 10 0 1 0 1
0 16 11.999 -80 0 0 1 10 0 1 0 1
0 16 -11.999 -80 0 0 1 10 0 1 0 1
phys
0 -12 -16 80 0 0 1 10 0 1 0 1
0 12 -16 80 0 0 1 10 0 1 0 1
0 16 -11.999 80 0 0 1 10 0 1 0 1
phys
0 -12 -16 80 0 0 1 10 0 1 0 1
0 16 -11.999 80 0 0 1 10 0 1 0 1
0 16 11.999 80 0 0 1 10 0 1 0 1
phys
0 -12 -16 80 0 0 1 10 0 1 0 1
0 16 11.999 80 0 0 1 10 0 1 0 1
0 12 16 80 0 0 1 10 0 1 0 1
phys
0 -12 -16 80 0 0 1 10 0 1 0 1
0 12 16 80 0 0 1 10 0 1 0 1
0 -12 16 80 0 0 1 10 0 1 0 1
phys
0 -12 -16 80 0 0 1 10 0 1 0 1
0 -12 16 80 0 0 1 10 0 1 0 1
0 -16 12.001 80 0 0 1 10 0 1 0 1
phys
0 -12 -16 80 0 0 1 10 0 1 0 1
0 -16 12.001 80 0 0 1 10 0 1 0 1
0 -16 -12.001 80 0 0 1 10 0 1 0 1
phys
0 12 -16 80 0 0 1 10 0 1 0 1
0 12 -16 -80 0 0 1 10 0 1 0 1
0 16 -11.999 -80 0 0 1 10 0 1 0 1
phys
0 12 -16 80 0 0 1 10 0 1 0 1
0 16 -11.999 -80 0 0 1 10 0 1 0 1
0 16 -11.999 80 0 0 1 10 0 1 0 1
phys
0 -12 -16 -80 0 0 1 10 0 1 0 1
0 -12 -16 80 0 0 1 10 0 1 0 1
0 -16 -12.001 80 0 0 1 10 0 1 0 1
phys
0 -12 -16 -80 0 0 1 10 0 1 0 1
0 -16 -12.001 80 0 0 1 10 0 1 0 1
0 -16 -12.001 -80 0 0 1 10 0 1 0 1
phys
0 16 11.999 80 0 0 1 10 0 1 0 1
0 16 11.999 -80 0 0 1 10 0 1 0 1
0 12 16 -80 0 0 1 10 0 1 0 1
phys
0 16 11.999 80 0 0 1 10 0 1 0 1
0 12 16 -80 0 0 1 10 0 1 0 1
0 12 16 80 0 0 1 10 0 1 0 1
phys
0 -16 12.001 -80 0 0 1 10 0 1 0 1
0 -16 12.001 80 0 0 1 10 0 1 0 1
0 -12 16 80 0 0 1 10 0 1 0 1
phys
0 -16 12.001 -80 0 0 1 10 0 1 0 1
0 -12 16 80 0 0 1 10 0 1 0 1
0 -12 16 -80 0 0 1 10 0 1 0 1
phys
0 159 75 -62 0 0 1 11 0 1 0 1
0 159 75 -80 0 0 1 11 0 1 0 1
0 113 75 -80 0 0 1 11 0 1 0 1
phys
0 159 75 -62 0 0 1 11 0 1 0 1
0 113 75 -80 0 0 1 11 0 1 0 1
0 113 75 -62 0 0 1 11 0 1 0 1
phys
0 159 42 -80 0 0 1 11 0 1 0 1
0 159 42 -62 0 0 1 11 0 1 0 1
0 113 42 -62 0 0 1 11 0 1 0 1
phys
0 159 42 -80 0 0 1 11 0 1 0 1
0 113 42 -62 0 0 1 11 0 1 0 1
0 113 42 -80 0 0 1 11 0 1 0 1
phys
0 113 42 -80 0 0 1 11 0 1 0 1
0 113 42 -62 0 0 1 11 0 1 0 1
0 113 75 -62 0 0 1 11 0 1 0 1
phys
0 113 42 -80 0 0 1 11 0 1 0 1
0 113 75 -62 0 0 1 11 0 1 0 1
0 113 75 -80 0 0 1 11 0 1 0 1
phys
0 159 42 -62 0 0 1 11 0 1 0 1
0 159 42 -80 0 0 1 11 0 1 0 1
0 159 75 -80 0 0 1 11 0 1 0 1
phys
0 159 42 -62 0 0 1 11 0 1 0 1
0 159 75 -80 0 0 1 11 0 1 0 1
0 159 75 -62 0 0 1 11 0 1 0 1
phys
0 159 42 -80 0 0 1 11 0 1 0 1
0 113 42 -80 0 0 1 11 0 1 0 1
0 113 75 -80 0 0 1 11 0 1 0 1
phys
0 159 42 -80 0 0 1 11 0 1 0 1
0 113 75 -80 0 0 1 11 0 1 0 1
0 159 75 -80 0 0 1 11 0 1 0 1
phys
0 113 42 -62 0 0 1 11 0 1 0 1
0 159 42 -62 0 0 1 11 0 1 0 1
0 159 75 -62 0 0 1 11 0 1 0 1
phys
0 113 42 -62 0 0 1 11 0 1 0 1
0 159 75 -62 0 0 1 11 0 1 0 1
0 113 75 -62 0 0 1 11 0 1 0 1
phys
0 109 38 -59 0 0 1 12 0 1 0 1
0 163 38 -59 0 0 1 12 0 1 0 1
0 163 75 -59 0 0 1 12 0 1 0 1
phys
0 109 38 -59 0 0 1 12 0 1 0 1
0 163 75 -59 0 0 1 12 0 1 0 1
0 109 75 -59 0 0 1 12 0 1 0 1
phys
0 109 75 -62 0 0 1 12 0 1 0 1
0 109 75 -59 0 0 1 12 0 1 0 1
0 163 75 -59 0 0 1 12 0 1 0 1
phys
0 109 75 -62 0 0 1 12 0 1 0 1
0 163 75 -59 0 0 1 12 0 1 0 1
0 163 75 -62 0 0 1 12 0 1 0 1
phys
0 163 38 -62 0 0 1 12 0 1 0 1
0 163 38 -59 0 0 1 12 0 1 0 1
0 109 38 -59 0 0 1 12 0 1 0 1
phys
0 163 38 -62 0 0 1 12 0 1 0 1
0 109 38 -59 0 0 1 12 0 1 0 1
0 109 38 -62 0 0 1 12 0 1 0 1
phys
0 109 38 -62 0 0 1 12 0 1 0 1
0 109 38 -59 0 0 1 12 0 1 0 1
0 109 75 -59 0 0 1 12 0 1 0 1
phys
0 109 38 -62 0 0 1 12 0 1 0 1
0 109 75 -59 0 0 1 12 0 1 0 1
0 109 75 -62 0 0 1 12 0 1 0 1
phys
0 163 75 -62 0 0 1 12 0 1 0 1
0 163 75 -59 0 0 1 12 0 1 0 1
0 163 38 -59 0 0 1 12 0 1 0 1
phys
0 163 75 -62 0 0 1 12 0 1 0 1
0 163 38 -59 0 0 1 12 0 1 0 1
0 163 38 -62 0 0 1 12 0 1 0 1
phys
0 163 38 -62 0 0 1 12 0 1 0 1
0 109 38 -62 0 0 1 12 0 1 0 1
0 109 75 -62 0 0 1 12 0 1 0 1
phys
0 163 38 -62 0 0 1 12 0 1 0 1
0 109 75 -62 0 0 1 12 0 1 0 1
0 163 75 -62 0 0 1 12 0 1 0 1
end
