version 1
nodes
0 "root" -1
end
skeleton
time 0
0 0 0 0 0 0 0
end
triangles
bridge_se1_metal_flat_steel_01
0 185 -159 -238 0 1 0 3.046875 -68.90625 1 0 1
0 185 -159 -278 0 1 0 3.359375 -68.90625 1 0 1
0 175 -159 -278 0 1 0 3.359375 -68.984375 1 0 1
bridge_se1_metal_flat_steel_01
0 185 -159 -238 0 1 0 3.046875 -68.90625 1 0 1
0 175 -159 -278 0 1 0 3.359375 -68.984375 1 0 1
0 175 -159 -238 0 1 0 3.046875 -68.984375 1 0 1
bridge_se1_metal_flat_steel_01
0 185 -161 -278 0 -1 0 -3.65625 -68.90625 1 0 1
0 185 -161 -238 0 -1 0 -3.34375 -68.90625 1 0 1
0 175 -161 -238 0 -1 0 -3.34375 -68.984375 1 0 1
bridge_se1_metal_flat_steel_01
0 185 -161 -278 0 -1 0 -3.65625 -68.90625 1 0 1
0 175 -161 -238 0 -1 0 -3.34375 -68.984375 1 0 1
0 175 -161 -278 0 -1 0 -3.65625 -68.984375 1 0 1
bridge_se1_metal_flat_steel_01
0 175 -161 -278 -1 0 0 3.359375 -2.734375 1 0 1
0 175 -161 -238 -1 0 0 3.046875 -2.734375 1 0 1
0 175 -159 -238 -1 0 0 3.046875 -2.71875 1 0 1
bridge_se1_metal_flat_steel_01
0 175 -161 -278 -1 0 0 3.359375 -2.734375 1 0 1
0 175 -159 -238 -1 0 0 3.046875 -2.71875 1 0 1
0 175 -159 -278 -1 0 0 3.359375 -2.71875 1 0 1
bridge_se1_metal_flat_steel_01
0 185 -161 -238 1 0 0 3.046875 4.734375 1 0 1
0 185 -161 -278 1 0 0 3.359375 4.734375 1 0 1
0 185 -159 -278 1 0 0 3.359375 4.71875 1 0 1
bridge_se1_metal_flat_steel_01
0 185 -161 -238 1 0 0 3.046875 4.734375 1 0 1
0 185 -159 -278 1 0 0 3.359375 4.71875 1 0 1
0 185 -159 -238 1 0 0 3.046875 4.71875 1 0 1
bridge_se1_metal_flat_steel_01
0 185 -161 -278 0 0 -1 -3.398438 -69.34375 1 0 1
0 175 -161 -278 0 0 -1 -3.398438 -69.421875 1 0 1
0 175 -159 -278 0 0 -1 -3.382812 -69.421875 1 0 1
bridge_se1_metal_flat_steel_01
0 185 -161 -278 0 0 -1 -3.398438 -69.34375 1 0 1
0 175 -159 -278 0 0 -1 -3.382812 -69.421875 1 0 1
0 185 -159 -278 0 0 -1 -3.382812 -69.34375 1 0 1
bridge_se1_metal_flat_steel_01
0 175 -161 -238 0 0 1 3.398438 -69.421875 1 0 1
0 185 -161 -238 0 0 1 3.398438 -69.34375 1 0 1
0 185 -159 -238 0 0 1 3.382812 -69.34375 1 0 1
bridge_se1_metal_flat_steel_01
0 175 -161 -238 0 0 1 3.398438 -69.421875 1 0 1
0 185 -159 -238 0 0 1 3.382812 -69.34375 1 0 1
0 175 -159 -238 0 0 1 3.382812 -69.421875 1 0 1
bridge_se1_metal_flat_steel_01
0 38 75 -10 1 0 0 -2.698568 -2.328125 1 0 1
0 38 76 -10 1 0 0 -2.685547 -2.328125 1 0 1
0 38 76 2 1 0 0 -2.685547 -2.171875 1 0 1
bridge_se1_metal_flat_steel_01
0 38 75 -10 1 0 0 -2.698568 -2.328125 1 0 1
0 38 76 2 1 0 0 -2.685547 -2.171875 1 0 1
0 38 75 2 1 0 0 -2.698568 -2.171875 1 0 1
bridge_se1_metal_flat_steel_01
0 11 76 -10 0 0 -1 -2.685547 -117.866536 1 0 1
0 38 76 -10 0 0 -1 -2.685547 -117.514974 1 0 1
0 38 75 -10 0 0 -1 -2.698568 -117.514974 1 0 1
bridge_se1_metal_flat_steel_01
0 11 76 -10 0 0 -1 -2.685547 -117.866536 1 0 1
0 38 75 -10 0 0 -1 -2.698568 -117.514974 1 0 1
0 11 75 -10 0 0 -1 -2.698568 -117.866536 1 0 1
bridge_se1_metal_flat_steel_01
0 11 75 2 0 0 1 -2.698568 119.866536 1 0 1
0 38 75 2 0 0 1 -2.698568 119.514974 1 0 1
0 38 76 2 0 0 1 -2.685547 119.514974 1 0 1
bridge_se1_metal_flat_steel_01
0 11 75 2 0 0 1 -2.698568 119.866536 1 0 1
0 38 76 2 0 0 1 -2.685547 119.514974 1 0 1
0 11 76 2 0 0 1 -2.685547 119.866536 1 0 1
pepsi2_graphics_label_chief
0 38 75 -10 0 -1 0 -274.094952 -20 1 0 1
0 38 75 2 0 -1 0 -274.094952 -19 1 0 1
0 11 75 2 0 -1 0 -274.90625 -19 1 0 1
pepsi2_graphics_label_chief
0 38 75 -10 0 -1 0 -274.094952 -20 1 0 1
0 11 75 2 0 -1 0 -274.90625 -19 1 0 1
0 11 75 -10 0 -1 0 -274.90625 -20 1 0 1
bridge_se1_metal_flat_steel_01
0 11 75 2 -1 0 0 -2.698568 -2.171875 1 0 1
0 11 76 2 -1 0 0 -2.685547 -2.171875 1 0 1
0 11 76 -10 -1 0 0 -2.685547 -2.328125 1 0 1
bridge_se1_metal_flat_steel_01
0 11 75 2 -1 0 0 -2.698568 -2.171875 1 0 1
0 11 76 -10 -1 0 0 -2.685547 -2.328125 1 0 1
0 11 75 -10 -1 0 0 -2.698568 -2.328125 1 0 1
glass_unbreakable
0 179 -159 -238 -1 0 0 -12.00651 -11.5625 1 0 1
0 179 -107 -238 -1 0 0 -10.652344 -11.5625 1 0 1
0 179 -107 -278 -1 0 0 -10.652344 -12.604167 1 0 1
glass_unbreakable
0 179 -159 -238 -1 0 0 -12.00651 -11.5625 1 0 1
0 179 -107 -278 -1 0 0 -10.652344 -12.604167 1 0 1
0 179 -159 -278 -1 0 0 -12.00651 -12.604167 1 0 1
glass_unbreakable
0 180 -159 -278 1 0 0 -12.00651 -12.604167 1 0 1
0 180 -107 -278 1 0 0 -10.652344 -12.604167 1 0 1
0 180 -107 -238 1 0 0 -10.652344 -11.5625 1 0 1
glass_unbreakable
0 180 -159 -278 1 0 0 -12.00651 -12.604167 1 0 1
0 180 -107 -238 1 0 0 -10.652344 -11.5625 1 0 1
0 180 -159 -238 1 0 0 -12.00651 -11.5625 1 0 1
bridge_se1_metal_flat_steel_01
0 185 -105 -238 0 1 0 3.046875 -68.90625 1 0 1
0 185 -105 -278 0 1 0 3.359375 -68.90625 1 0 1
0 175 -105 -278 0 1 0 3.359375 -68.984375 1 0 1
bridge_se1_metal_flat_steel_01
0 185 -105 -238 0 1 0 3.046875 -68.90625 1 0 1
0 175 -105 -278 0 1 0 3.359375 -68.984375 1 0 1
0 175 -105 -238 0 1 0 3.046875 -68.984375 1 0 1
bridge_se1_metal_flat_steel_01
0 185 -107 -278 0 -1 0 -3.65625 -68.90625 1 0 1
0 185 -107 -238 0 -1 0 -3.34375 -68.90625 1 0 1
0 175 -107 -238 0 -1 0 -3.34375 -68.984375 1 0 1
bridge_se1_metal_flat_steel_01
0 185 -107 -278 0 -1 0 -3.65625 -68.90625 1 0 1
0 175 -107 -238 0 -1 0 -3.34375 -68.984375 1 0 1
0 175 -107 -278 0 -1 0 -3.65625 -68.984375 1 0 1
bridge_se1_metal_flat_steel_01
0 175 -107 -278 -1 0 0 3.359375 -2.359375 1 0 1
0 175 -107 -238 -1 0 0 3.046875 -2.359375 1 0 1
0 175 -105 -238 -1 0 0 3.046875 -2.34375 1 0 1
bridge_se1_metal_flat_steel_01
0 175 -107 -278 -1 0 0 3.359375 -2.359375 1 0 1
0 175 -105 -238 -1 0 0 3.046875 -2.34375 1 0 1
0 175 -105 -278 -1 0 0 3.359375 -2.34375 1 0 1
bridge_se1_metal_flat_steel_01
0 185 -107 -238 1 0 0 3.046875 4.359375 1 0 1
0 185 -107 -278 1 0 0 3.359375 4.359375 1 0 1
0 185 -105 -278 1 0 0 3.359375 4.34375 1 0 1
bridge_se1_metal_flat_steel_01
0 185 -107 -238 1 0 0 3.046875 4.359375 1 0 1
0 185 -105 -278 1 0 0 3.359375 4.34375 1 0 1
0 185 -105 -238 1 0 0 3.046875 4.34375 1 0 1
bridge_se1_metal_flat_steel_01
0 185 -107 -278 0 0 -1 -2.976562 -69.34375 1 0 1
0 175 -107 -278 0 0 -1 -2.976562 -69.421875 1 0 1
0 175 -105 -278 0 0 -1 -2.960938 -69.421875 1 0 1
bridge_se1_metal_flat_steel_01
0 185 -107 -278 0 0 -1 -2.976562 -69.34375 1 0 1
0 175 -105 -278 0 0 -1 -2.960938 -69.421875 1 0 1
0 185 -105 -278 0 0 -1 -2.960938 -69.34375 1 0 1
bridge_se1_metal_flat_steel_01
0 175 -107 -238 0 0 1 2.976562 -69.421875 1 0 1
0 185 -107 -238 0 0 1 2.976562 -69.34375 1 0 1
0 185 -105 -238 0 0 1 2.960938 -69.34375 1 0 1
bridge_se1_metal_flat_steel_01
0 175 -107 -238 0 0 1 2.976562 -69.421875 1 0 1
0 185 -105 -238 0 0 1 2.960938 -69.34375 1 0 1
0 175 -105 -238 0 0 1 2.960938 -69.421875 1 0 1
bridge_se1_metal_flat_steel_01
0 -5 289 -59 0 1 0 70.914062 3.023438 1 0 1
0 -5 289 -62 0 1 0 70.914062 3.046875 1 0 1
0 -42 289 -62 0 1 0 71.203125 3.046875 1 0 1
bridge_se1_metal_flat_steel_01
0 -5 289 -59 0 1 0 70.914062 3.023438 1 0 1
0 -42 289 -62 0 1 0 71.203125 3.046875 1 0 1
0 -42 289 -59 0 1 0 71.203125 3.023438 1 0 1
bridge_se1_metal_flat_steel_01
0 -5 235 -62 0 -1 0 70.914062 -1.421875 1 0 1
0 -5 235 -59 0 -1 0 70.914062 -1.398438 1 0 1
0 -42 235 -59 0 -1 0 71.203125 -1.398438 1 0 1
bridge_se1_metal_flat_steel_01
0 -5 235 -62 0 -1 0 70.914062 -1.421875 1 0 1
0 -42 235 -59 0 -1 0 71.203125 -1.398438 1 0 1
0 -42 235 -62 0 -1 0 71.203125 -1.421875 1 0 1
bridge_se1_metal_flat_steel_01
0 -42 235 -62 -1 0 0 2.226562 0.601562 1 0 1
0 -42 235 -59 -1 0 0 2.203125 0.601562 1 0 1
0 -42 289 -59 -1 0 0 2.203125 1.023438 1 0 1
bridge_se1_metal_flat_steel_01
0 -42 235 -62 -1 0 0 2.226562 0.601562 1 0 1
0 -42 289 -59 -1 0 0 2.203125 1.023438 1 0 1
0 -42 289 -62 -1 0 0 2.226562 1.023438 1 0 1
bridge_se1_metal_flat_steel_01
0 -5 235 -62 0 0 -1 70.914062 0.601562 1 0 1
0 -42 235 -62 0 0 -1 71.203125 0.601562 1 0 1
0 -42 289 -62 0 0 -1 71.203125 1.023438 1 0 1
bridge_se1_metal_flat_steel_01
0 -5 235 -62 0 0 -1 70.914062 0.601562 1 0 1
0 -42 289 -62 0 0 -1 71.203125 1.023438 1 0 1
0 -5 289 -62 0 0 -1 70.914062 1.023438 1 0 1
bridge_se1_metal_flat_steel_01
0 -42 235 -59 0 0 1 71.203125 0.601562 1 0 1
0 -5 235 -59 0 0 1 70.914062 0.601562 1 0 1
0 -5 289 -59 0 0 1 70.914062 1.023438 1 0 1
bridge_se1_metal_flat_steel_01
0 -42 235 -59 0 0 1 71.203125 0.601562 1 0 1
0 -5 289 -59 0 0 1 70.914062 1.023438 1 0 1
0 -42 289 -59 0 0 1 71.203125 1.023438 1 0 1
bridge_se1_metal_flat_steel_01
0 5 237 51 0 1 0 -1.015625 -70.515625 1 0 1
0 5 237 -31 0 1 0 -1.65625 -70.515625 1 0 1
0 -5 237 -31 0 1 0 -1.65625 -70.59375 1 0 1
bridge_se1_metal_flat_steel_01
0 5 237 51 0 1 0 -1.015625 -70.515625 1 0 1
0 -5 237 -31 0 1 0 -1.65625 -70.59375 1 0 1
0 -5 237 51 0 1 0 -1.015625 -70.59375 1 0 1
bridge_se1_metal_flat_steel_01
0 -5 235 -33 -1 0 0 -1.671875 0.265625 1 0 1
0 -5 235 53 -1 0 0 -1 0.265625 1 0 1
0 -5 237 51 -1 0 0 -1.015625 0.28125 1 0 1
bridge_se1_metal_flat_steel_01
0 -5 235 -33 -1 0 0 -1.671875 0.265625 1 0 1
0 -5 237 51 -1 0 0 -1.015625 0.28125 1 0 1
0 -5 237 -31 -1 0 0 -1.65625 0.28125 1 0 1
bridge_se1_metal_flat_steel_01
0 5 235 53 1 0 0 -1 1.734375 1 0 1
0 5 235 -33 1 0 0 -1.671875 1.734375 1 0 1
0 5 237 -31 1 0 0 -1.65625 1.71875 1 0 1
bridge_se1_metal_flat_steel_01
0 5 235 53 1 0 0 -1 1.734375 1 0 1
0 5 237 -31 1 0 0 -1.65625 1.71875 1 0 1
0 5 237 51 1 0 0 -1.015625 1.71875 1 0 1
bridge_se1_metal_flat_steel_01
0 -5 235 53 0 0.707107 0.707107 -1.15625 -70.082031 1 0 1
0 5 235 53 0 0.707107 0.707107 -1.15625 -70.003906 1 0 1
0 5 237 51 0 0.707107 0.707107 -1.171875 -70.003906 1 0 1
bridge_se1_metal_flat_steel_01
0 -5 235 53 0 0.707107 0.707107 -1.15625 -70.082031 1 0 1
0 5 237 51 0 0.707107 0.707107 -1.171875 -70.003906 1 0 1
0 -5 237 51 0 0.707107 0.707107 -1.171875 -70.082031 1 0 1
bridge_se1_metal_flat_steel_01
0 5 235 -33 0 0.707107 -0.707107 -1.828125 -70.003906 1 0 1
0 -5 235 -33 0 0.707107 -0.707107 -1.828125 -70.082031 1 0 1
0 -5 237 -31 0 0.707107 -0.707107 -1.8125 -70.082031 1 0 1
bridge_se1_metal_flat_steel_01
0 5 235 -33 0 0.707107 -0.707107 -1.828125 -70.003906 1 0 1
0 -5 237 -31 0 0.707107 -0.707107 -1.8125 -70.082031 1 0 1
0 5 237 -31 0 0.707107 -0.707107 -1.8125 -70.003906 1 0 1
pepsi2_arch_concrete_stair01
0 -5 239 -80 0 -1 0 71.273438 3.179688 1 0 1
0 -5 239 -62 0 -1 0 71.273438 3.039062 1 0 1
0 -38 239 -62 0 -1 0 71.53125 3.039062 1 0 1
pepsi2_arch_concrete_stair01
0 -5 239 -80 0 -1 0 71.273438 3.179688 1 0 1
0 -38 239 -62 0 -1 0 71.53125 3.039062 1 0 1
0 -38 239 -80 0 -1 0 71.53125 3.179688 1 0 1
pepsi2_arch_concrete_stair01
0 -38 239 -80 -1 0 0 -0.46875 3.179688 1 0 1
0 -38 239 -62 -1 0 0 -0.46875 3.039062 1 0 1
0 -38 285 -62 -1 0 0 -0.109375 3.039062 1 0 1
pepsi2_arch_concrete_stair01
0 -38 239 -80 -1 0 0 -0.46875 3.179688 1 0 1
0 -38 285 -62 -1 0 0 -0.109375 3.039062 1 0 1
0 -38 285 -80 -1 0 0 -0.109375 3.179688 1 0 1
pepsi2_arch_concrete_stair01
0 -5 285 -62 0 1 0 -70.851562 3.039062 1 0 1
0 -5 285 -80 0 1 0 -70.851562 3.179688 1 0 1
0 -38 285 -80 0 1 0 -71.109375 3.179688 1 0 1
pepsi2_arch_concrete_stair01
0 -5 285 -62 0 1 0 -70.851562 3.039062 1 0 1
0 -38 285 -80 0 1 0 -71.109375 3.179688 1 0 1
0 -38 285 -62 0 1 0 -71.109375 3.039062 1 0 1
af_omega_clock_glass
0 -1 237 -31 -1 0 0 2.778646 -13.132812 1 0 1
0 -1 237 51 -1 0 0 2.778646 -8.861979 1 0 1
0 -1 287 51 -1 0 0 0.174479 -8.861979 1 0 1
af_omega_clock_glass
0 -1 237 -31 -1 0 0 2.778646 -13.132812 1 0 1
0 -1 287 51 -1 0 0 0.174479 -8.861979 1 0 1
0 -1 287 -31 -1 0 0 0.174479 -13.132812 1 0 1
af_omega_clock_glass
0 0 237 51 1 0 0 -2.856771 -8.861979 1 0 1
0 0 237 -31 1 0 0 -2.856771 -13.132812 1 0 1
0 0 287 -31 1 0 0 -0.252604 -13.132812 1 0 1
af_omega_clock_glass
0 0 237 51 1 0 0 -2.856771 -8.861979 1 0 1
0 0 287 -31 1 0 0 -0.252604 -13.132812 1 0 1
0 0 287 51 1 0 0 -0.252604 -8.861979 1 0 1
bridge_se1_metal_flat_steel_01
0 175 -197 -236 -1 0 0 -4 4.640625 1 0 1
0 175 -69 -236 -1 0 0 -3 4.640625 1 0 1
0 175 -71 -238 -1 0 0 -3.015625 4.65625 1 0 1
bridge_se1_metal_flat_steel_01
0 175 -197 -236 -1 0 0 -4 4.640625 1 0 1
0 175 -71 -238 -1 0 0 -3.015625 4.65625 1 0 1
0 175 -195 -238 -1 0 0 -3.984375 4.65625 1 0 1
bridge_se1_metal_flat_steel_01
0 185 -195 -238 1 0 0 -3.984375 -2.65625 1 0 1
0 185 -71 -238 1 0 0 -3.015625 -2.65625 1 0 1
0 185 -69 -236 1 0 0 -3 -2.640625 1 0 1
bridge_se1_metal_flat_steel_01
0 185 -195 -238 1 0 0 -3.984375 -2.65625 1 0 1
0 185 -69 -236 1 0 0 -3 -2.640625 1 0 1
0 185 -197 -236 1 0 0 -4 -2.640625 1 0 1
bridge_se1_metal_flat_steel_01
0 175 -195 -238 0 0 -1 -3.984375 -68.984375 1 0 1
0 175 -71 -238 0 0 -1 -3.015625 -68.984375 1 0 1
0 185 -71 -238 0 0 -1 -3.015625 -68.90625 1 0 1
bridge_se1_metal_flat_steel_01
0 175 -195 -238 0 0 -1 -3.984375 -68.984375 1 0 1
0 185 -71 -238 0 0 -1 -3.015625 -68.90625 1 0 1
0 185 -195 -238 0 0 -1 -3.984375 -68.90625 1 0 1
bridge_se1_metal_flat_steel_01
0 175 -71 -238 0 0.707107 -0.707107 -3.429687 -68.675781 1 0 1
0 175 -69 -236 0 0.707107 -0.707107 -3.414062 -68.675781 1 0 1
0 185 -69 -236 0 0.707107 -0.707107 -3.414062 -68.597656 1 0 1
bridge_se1_metal_flat_steel_01
0 175 -71 -238 0 0.707107 -0.707107 -3.429687 -68.675781 1 0 1
0 185 -69 -236 0 0.707107 -0.707107 -3.414062 -68.597656 1 0 1
0 185 -71 -238 0 0.707107 -0.707107 -3.429688 -68.597656 1 0 1
bridge_se1_metal_flat_steel_01
0 175 -197 -236 0 -0.707107 -0.707107 -3.414062 -68.675781 1 0 1
0 175 -195 -238 0 -0.707107 -0.707107 -3.429688 -68.675781 1 0 1
0 185 -195 -238 0 -0.707107 -0.707107 -3.429687 -68.597656 1 0 1
bridge_se1_metal_flat_steel_01
0 175 -197 -236 0 -0.707107 -0.707107 -3.414062 -68.675781 1 0 1
0 185 -195 -238 0 -0.707107 -0.707107 -3.429687 -68.597656 1 0 1
0 185 -197 -236 0 -0.707107 -0.707107 -3.414062 -68.597656 1 0 1
pepsi2_arch_concrete_floor_smooth01
0 12 16 -80 0 1 0 70.757812 3.25 1 0 1
0 -12 16 -80 0 1 0 70.945312 3.25 1 0 1
0 -12 16 80 0 1 0 70.945312 2 1 0 1
pepsi2_arch_concrete_floor_smooth01
0 12 16 -80 0 1 0 70.757812 3.25 1 0 1
0 -12 16 80 0 1 0 70.945312 2 1 0 1
0 12 16 80 0 1 0 70.757812 2 1 0 1
pepsi2_arch_concrete_floor_smooth01
0 12 -16 80 0 -1 0 -71.572266 2 1 0 1
0 -12 -16 80 0 -1 0 -71.759766 2 1 0 1
0 -12 -16 -80 0 -1 0 -71.759766 3.25 1 0 1
pepsi2_arch_concrete_floor_smooth01
0 12 -16 80 0 -1 0 -71.572266 2 1 0 1
0 -12 -16 -80 0 -1 0 -71.759766 3.25 1 0 1
0 12 -16 -80 0 -1 0 -71.572266 3.25 1 0 1
pepsi2_arch_concrete_floor_smooth01
0 -16 -12.001 80 -1 0 0 3.19532 2 1 0 1
0 -16 12.001 80 -1 0 0 3.007805 2 1 0 1
0 -16 12.001 -80 -1 0 0 3.007805 3.25 1 0 1
pepsi2_arch_concrete_floor_smooth01
0 -16 -12.001 80 -1 0 0 3.19532 2 1 0 1
0 -16 12.001 -80 -1 0 0 3.007805 3.25 1 0 1
0 -16 -12.001 -80 -1 0 0 3.19532 3.25 1 0 1
pepsi2_arch_concrete_floor_smooth01
0 16 -11.999 -80 1 0 0 -2.529289 3.25 1 0 1
0 16 11.999 -80 1 0 0 -2.341805 3.25 1 0 1
0 16 11.999 80 1 0 0 -2.341805 2 1 0 1
pepsi2_arch_concrete_floor_smooth01
0 16 -11.999 -80 1 0 0 -2.529289 3.25 1 0 1
0 16 11.999 80 1 0 0 -2.341805 2 1 0 1
0 16 -11.999 80 1 0 0 -2.529289 2 1 0 1
pepsi2_arch_concrete_floor_smooth01
0 12 -16 80 0.707195 -0.707018 0 -51.57317 2 1 0 1
0 12 -16 -80 0.707195 -0.707018 0 -51.57317 3.25 1 0 1
0 16 -11.999 -80 0.707195 -0.707018 0 -51.52897 3.25 1 0 1
pepsi2_arch_concrete_floor_smooth01
0 12 -16 80 0.707195 -0.707018 0 -51.57317 2 1 0 1
0 16 -11.999 -80 0.707195 -0.707018 0 -51.52897 3.25 1 0 1
0 16 -11.999 80 0.707195 -0.707018 0 -51.52897 2 1 0 1
pepsi2_arch_concrete_floor_smooth01
0 -12 -16 -80 -0.707018 -0.707195 0 -48.759516 3.25 1 0 1
0 -12 -16 80 -0.707018 -0.707195 0 -48.759516 2 1 0 1
0 -16 -12.001 80 -0.707018 -0.707195 0 -48.803705 2 1 0 1
pepsi2_arch_concrete_floor_smooth01
0 -12 -16 -80 -0.707018 -0.707195 0 -48.759516 3.25 1 0 1
0 -16 -12.001 80 -0.707018 -0.707195 0 -48.803705 2 1 0 1
0 -16 -12.001 -80 -0.707018 -0.707195 0 -48.803705 3.25 1 0 1
pepsi2_arch_concrete_floor_smooth01
0 16 11.999 80 0.707195 0.707018 0 48.657948 2 1 0 1
0 16 11.999 -80 0.707195 0.707018 0 48.657948 3.25 1 0 1
0 12 16 -80 0.707195 0.707018 0 48.702148 3.25 1 0 1
pepsi2_arch_concrete_floor_smooth01
0 16 11.999 80 0.707195 0.707018 0 48.657948 2 1 0 1
0 12 16 -80 0.707195 0.707018 0 48.702148 3.25 1 0 1
0 12 16 80 0.707195 0.707018 0 48.702148 2 1 0 1
pepsi2_arch_concrete_floor_smooth01
0 -16 12.001 -80 -0.707018 0.707195 0 52.006758 3.25 1 0 1
0 -16 12.001 80 -0.707018 0.707195 0 52.006758 2 1 0 1
0 -12 16 80 -0.707018 0.707195 0 51.96257 2 1 0 1
pepsi2_arch_concrete_floor_smooth01
0 -16 12.001 -80 -0.707018 0.707195 0 52.006758 3.25 1 0 1
0 -12 16 80 -0.707018 0.707195 0 51.96257 2 1 0 1
0 -12 16 -80 -0.707018 0.707195 0 51.96257 3.25 1 0 1
pepsi2_arch_concrete_stair01
0 159 42 -80 0 -1 0 70.53125 3.179688 1 0 1
0 159 42 -62 0 -1 0 70.53125 3.039062 1 0 1
0 113 42 -62 0 -1 0 70.890625 3.039062 1 0 1
pepsi2_arch_concrete_stair01
0 159 42 -80 0 -1 0 70.53125 3.179688 1 0 1
0 113 42 -62 0 -1 0 70.890625 3.039062 1 0 1
0 113 42 -80 0 -1 0 70.890625 3.179688 1 0 1
pepsi2_arch_concrete_stair01
0 113 42 -80 -1 0 0 -2.109375 3.179688 1 0 1
0 113 42 -62 -1 0 0 -2.109375 3.039062 1 0 1
0 113 75 -62 -1 0 0 -1.851562 3.039062 1 0 1
pepsi2_arch_concrete_stair01
0 113 42 -80 -1 0 0 -2.109375 3.179688 1 0 1
0 113 75 -62 -1 0 0 -1.851562 3.039062 1 0 1
0 113 75 -80 -1 0 0 -1.851562 3.179688 1 0 1
pepsi2_arch_concrete_stair01
0 159 42 -62 1 0 0 2.53125 3.039062 1 0 1
0 159 42 -80 1 0 0 2.53125 3.179688 1 0 1
0 159 75 -80 1 0 0 2.273438 3.179688 1 0 1
pepsi2_arch_concrete_stair01
0 159 42 -62 1 0 0 2.53125 3.039062 1 0 1
0 159 75 -80 1 0 0 2.273438 3.179688 1 0 1
0 159 75 -62 1 0 0 2.273438 3.039062 1 0 1
bridge_se1_metal_flat_steel_01
0 109 38 -59 0 0 1 2.203125 71.023438 1 0 1
0 163 38 -59 0 0 1 2.203125 70.601562 1 0 1
0 163 75 -59 0 0 1 1.914062 70.601562 1 0 1
bridge_se1_metal_flat_steel_01
0 109 38 -59 0 0 1 2.203125 71.023438 1 0 1
0 163 75 -59 0 0 1 1.914062 70.601562 1 0 1
0 109 75 -59 0 0 1 1.914062 71.023438 1 0 1
bridge_se1_metal_flat_steel_01
0 163 38 -62 0 -1 0 2.226562 70.601562 1 0 1
0 163 38 -59 0 -1 0 2.203125 70.601562 1 0 1
0 109 38 -59 0 -1 0 2.203125 71.023438 1 0 1
bridge_se1_metal_flat_steel_01
0 163 38 -62 0 -1 0 2.226562 70.601562 1 0 1
0 109 38 -59 0 -1 0 2.203125 71.023438 1 0 1
0 109 38 -62 0 -1 0 2.226562 71.023438 1 0 1
bridge_se1_metal_flat_steel_01
0 109 38 -62 -1 0 0 2.203125 3.046875 1 0 1
0 109 38 -59 -1 0 0 2.203125 3.023438 1 0 1
0 109 75 -59 -1 0 0 1.914062 3.023438 1 0 1
bridge_se1_metal_flat_steel_01
0 109 38 -62 -1 0 0 2.203125 3.046875 1 0 1
0 109 75 -59 -1 0 0 1.914062 3.023438 1 0 1
0 109 75 -62 -1 0 0 1.914062 3.046875 1 0 1
bridge_se1_metal_flat_steel_01
0 163 75 -62 1 0 0 1.914062 -1.421875 1 0 1
0 163 75 -59 1 0 0 1.914062 -1.398438 1 0 1
0 163 38 -59 1 0 0 2.203125 -1.398438 1 0 1
bridge_se1_metal_flat_steel_01
0 163 75 -62 1 0 0 1.914062 -1.421875 1 0 1
0 163 38 -59 1 0 0 2.203125 -1.398438 1 0 1
0 163 38 -62 1 0 0 2.203125 -1.421875 1 0 1
bridge_se1_metal_flat_steel_01
0 163 38 -62 0 0 -1 2.203125 70.601562 1 0 1
0 109 38 -62 0 0 -1 2.203125 71.023438 1 0 1
0 109 75 -62 0 0 -1 1.914062 71.023438 1 0 1
bridge_se1_metal_flat_steel_01
0 163 38 -62 0 0 -1 2.203125 70.601562 1 0 1
0 109 75 -62 0 0 -1 1.914062 71.023438 1 0 1
0 163 75 -62 0 0 -1 1.914062 70.601562 1 0 1
end
