version 1
nodes
0 "root" -1
end
skeleton
time 0
0 0 0 0 0 0 0
end
triangles
phys
0 -1 -100 2 0 0 1 1 0 1 0 1
0 -1 -100 -2 0 0 1 1 0 1 0 1
0 -133 -100 -2 0 0 1 1 0 1 0 1
phys
0 -1 -100 2 0 0 1 1 0 1 0 1
0 -133 -100 -2 0 0 1 1 0 1 0 1
0 -133 -100 2 0 0 1 1 0 1 0 1
phys
0 -1 -102 -2 0 0 1 1 0 1 0 1
0 -1 -102 2 0 0 1 1 0 1 0 1
0 -133 -102 2 0 0 1 1 0 1 0 1
phys
0 -1 -102 -2 0 0 1 1 0 1 0 1
0 -133 -102 2 0 0 1 1 0 1 0 1
0 -133 -102 -2 0 0 1 1 0 1 0 1
phys
0 -133 -102 -2 0 0 1 1 0 1 0 1
0 -133 -102 2 0 0 1 1 0 1 0 1
0 -133 -100 2 0 0 1 1 0 1 0 1
phys
0 -133 -102 -2 0 0 1 1 0 1 0 1
0 -133 -100 2 0 0 1 1 0 1 0 1
0 -133 -100 -2 0 0 1 1 0 1 0 1
phys
0 -1 -102 2 0 0 1 1 0 1 0 1
0 -1 -102 -2 0 0 1 1 0 1 0 1
0 -1 -100 -2 0 0 1 1 0 1 0 1
phys
0 -1 -102 2 0 0 1 1 0 1 0 1
0 -1 -100 -2 0 0 1 1 0 1 0 1
0 -1 -100 2 0 0 1 1 0 1 0 1
phys
0 -1 -102 -2 0 0 1 1 0 1 0 1
0 -133 -102 -2 0 0 1 1 0 1 0 1
0 -133 -100 -2 0 0 1 1 0 1 0 1
phys
0 -1 -102 -2 0 0 1 1 0 1 0 1
0 -133 -100 -2 0 0 1 1 0 1 0 1
0 -1 -100 -2 0 0 1 1 0 1 0 1
phys
0 -133 -102 2 0 0 1 1 0 1 0 1
0 -1 -102 2 0 0 1 1 0 1 0 1
0 -1 -100 2 0 0 1 1 0 1 0 1
phys
0 -133 -102 2 0 0 1 1 0 1 0 1
0 -1 -100 2 0 0 1 1 0 1 0 1
0 -133 -100 2 0 0 1 1 0 1 0 1
phys
0 -1 102 2 0 0 1 2 0 1 0 1
0 -1 102 -2 0 0 1 2 0 1 0 1
0 -133 102 -2 0 0 1 2 0 1 0 1
phys
0 -1 102 2 0 0 1 2 0 1 0 1
0 -133 102 -2 0 0 1 2 0 1 0 1
0 -133 102 2 0 0 1 2 0 1 0 1
phys
0 -1 100 -2 0 0 1 2 0 1 0 1
0 -1 100 2 0 0 1 2 0 1 0 1
0 -133 100 2 0 0 1 2 0 1 0 1
phys
0 -1 100 -2 0 0 1 2 0 1 0 1
0 -133 100 2 0 0 1 2 0 1 0 1
0 -133 100 -2 0 0 1 2 0 1 0 1
phys
0 -133 100 -2 0 0 1 2 0 1 0 1
0 -133 100 2 0 0 1 2 0 1 0 1
0 -133 102 2 0 0 1 2 0 1 0 1
phys
0 -133 100 -2 0 0 1 2 0 1 0 1
0 -133 102 2 0 0 1 2 0 1 0 1
0 -133 102 -2 0 0 1 2 0 1 0 1
phys
0 -1 100 2 0 0 1 2 0 1 0 1
0 -1 100 -2 0 0 1 2 0 1 0 1
0 -1 102 -2 0 0 1 2 0 1 0 1
phys
0 -1 100 2 0 0 1 2 0 1 0 1
0 -1 102 -2 0 0 1 2 0 1 0 1
0 -1 102 2 0 0 1 2 0 1 0 1
phys
0 -1 100 -2 0 0 1 2 0 1 0 1
0 -133 100 -2 0 0 1 2 0 1 0 1
0 -133 102 -2 0 0 1 2 0 1 0 1
phys
0 -1 100 -2 0 0 1 2 0 1 0 1
0 -133 102 -2 0 0 1 2 0 1 0 1
0 -1 102 -2 0 0 1 2 0 1 0 1
phys
0 -133 100 2 0 0 1 2 0 1 0 1
0 -1 100 2 0 0 1 2 0 1 0 1
0 -1 102 2 0 0 1 2 0 1 0 1
phys
0 -133 100 2 0 0 1 2 0 1 0 1
0 -1 102 2 0 0 1 2 0 1 0 1
0 -133 102 2 0 0 1 2 0 1 0 1
phys
0 -1 -102 2 0 0 1 3 0 1 0 1
0 1 -102 2 0 0 1 3 0 1 0 1
0 1 102 2 0 0 1 3 0 1 0 1
phys
0 -1 -102 2 0 0 1 3 0 1 0 1
0 1 102 2 0 0 1 3 0 1 0 1
0 -1 102 2 0 0 1 3 0 1 0 1
phys
0 -1 102 -2 0 0 1 3 0 1 0 1
0 -1 102 2 0 0 1 3 0 1 0 1
0 1 102 2 0 0 1 3 0 1 0 1
phys
0 -1 102 -2 0 0 1 3 0 1 0 1
0 1 102 2 0 0 1 3 0 1 0 1
0 1 102 -2 0 0 1 3 0 1 0 1
phys
0 1 -102 -2 0 0 1 3 0 1 0 1
0 1 -102 2 0 0 1 3 0 1 0 1
0 -1 -102 2 0 0 1 3 0 1 0 1
phys
0 1 -102 -2 0 0 1 3 0 1 0 1
0 -1 -102 2 0 0 1 3 0 1 0 1
0 -1 -102 -2 0 0 1 3 0 1 0 1
phys
0 -1 -102 -2 0 0 1 3 0 1 0 1
0 -1 -102 2 0 0 1 3 0 1 0 1
0 -1 102 2 0 0 1 3 0 1 0 1
phys
0 -1 -102 -2 0 0 1 3 0 1 0 1
0 -1 102 2 0 0 1 3 0 1 0 1
0 -1 102 -2 0 0 1 3 0 1 0 1
phys
0 1 102 -2 0 0 1 3 0 1 0 1
0 1 102 2 0 0 1 3 0 1 0 1
0 1 -102 2 0 0 1 3 0 1 0 1
phys
0 1 102 -2 0 0 1 3 0 1 0 1
0 1 -102 2 0 0 1 3 0 1 0 1
0 1 -102 -2 0 0 1 3 0 1 0 1
phys
0 1 -102 -2 0 0 1 3 0 1 0 1
0 -1 -102 -2 0 0 1 3 0 1 0 1
0 -1 102 -2 0 0 1 3 0 1 0 1
phys
0 1 -102 -2 0 0 1 3 0 1 0 1
0 -1 102 -2 0 0 1 3 0 1 0 1
0 1 102 -2 0 0 1 3 0 1 0 1
phys
0 -1 196 2 0 0 1 4 0 1 0 1
0 -1 196 -2 0 0 1 4 0 1 0 1
0 -133 196 -2 0 0 1 4 0 1 0 1
phys
0 -1 196 2 0 0 1 4 0 1 0 1
0 -133 196 -2 0 0 1 4 0 1 0 1
0 -133 196 2 0 0 1 4 0 1 0 1
phys
0 -1 194 -2 0 0 1 4 0 1 0 1
0 -1 194 2 0 0 1 4 0 1 0 1
0 -133 194 2 0 0 1 4 0 1 0 1
phys
0 -1 194 -2 0 0 1 4 0 1 0 1
0 -133 194 2 0 0 1 4 0 1 0 1
0 -133 194 -2 0 0 1 4 0 1 0 1
phys
0 -133 194 -2 0 0 1 4 0 1 0 1
0 -133 194 2 0 0 1 4 0 1 0 1
0 -133 196 2 0 0 1 4 0 1 0 1
phys
0 -133 194 -2 0 0 1 4 0 1 0 1
0 -133 196 2 0 0 1 4 0 1 0 1
0 -133 196 -2 0 0 1 4 0 1 0 1
phys
0 -1 194 2 0 0 1 4 0 1 0 1
0 -1 194 -2 0 0 1 4 0 1 0 1
0 -1 196 -2 0 0 1 4 0 1 0 1
phys
0 -1 194 2 0 0 1 4 0 1 0 1
0 -1 196 -2 0 0 1 4 0 1 0 1
0 -1 196 2 0 0 1 4 0 1 0 1
phys
0 -1 194 -2 0 0 1 4 0 1 0 1
0 -133 194 -2 0 0 1 4 0 1 0 1
0 -133 196 -2 0 0 1 4 0 1 0 1
phys
0 -1 194 -2 0 0 1 4 0 1 0 1
0 -133 196 -2 0 0 1 4 0 1 0 1
0 -1 196 -2 0 0 1 4 0 1 0 1
phys
0 -133 194 2 0 0 1 4 0 1 0 1
0 -1 194 2 0 0 1 4 0 1 0 1
0 -1 196 2 0 0 1 4 0 1 0 1
phys
0 -133 194 2 0 0 1 4 0 1 0 1
0 -1 196 2 0 0 1 4 0 1 0 1
0 -133 196 2 0 0 1 4 0 1 0 1
phys
0 1 196 72 0 0 1 5 0 1 0 1
0 1 196 2 0 0 1 5 0 1 0 1
0 -1 196 2 0 0 1 5 0 1 0 1
phys
0 1 196 72 0 0 1 5 0 1 0 1
0 -1 196 2 0 0 1 5 0 1 0 1
0 -1 196 72 0 0 1 5 0 1 0 1
phys
0 1 194 2 0 0 1 5 0 1 0 1
0 1 194 72 0 0 1 5 0 1 0 1
0 -1 194 72 0 0 1 5 0 1 0 1
phys
0 1 194 2 0 0 1 5 0 1 0 1
0 -1 194 72 0 0 1 5 0 1 0 1
0 -1 194 2 0 0 1 5 0 1 0 1
phys
0 -1 194 2 0 0 1 5 0 1 0 1
0 -1 194 72 0 0 1 5 0 1 0 1
0 -1 196 72 0 0 1 5 0 1 0 1
phys
0 -1 194 2 0 0 1 5 0 1 0 1
0 -1 196 72 0 0 1 5 0 1 0 1
0 -1 196 2 0 0 1 5 0 1 0 1
phys
0 1 194 72 0 0 1 5 0 1 0 1
0 1 194 2 0 0 1 5 0 1 0 1
0 1 196 2 0 0 1 5 0 1 0 1
phys
0 1 194 72 0 0 1 5 0 1 0 1
0 1 196 2 0 0 1 5 0 1 0 1
0 1 196 72 0 0 1 5 0 1 0 1
phys
0 1 194 2 0 0 1 5 0 1 0 1
0 -1 194 2 0 0 1 5 0 1 0 1
0 -1 196 2 0 0 1 5 0 1 0 1
phys
0 1 194 2 0 0 1 5 0 1 0 1
0 -1 196 2 0 0 1 5 0 1 0 1
0 1 196 2 0 0 1 5 0 1 0 1
phys
0 -1 194 72 0 0 1 5 0 1 0 1
0 1 194 72 0 0 1 5 0 1 0 1
0 1 196 72 0 0 1 5 0 1 0 1
phys
0 -1 194 72 0 0 1 5 0 1 0 1
0 1 196 72 0 0 1 5 0 1 0 1
0 -1 196 72 0 0 1 5 0 1 0 1
phys
0 -1 -194 2 0 0 1 6 0 1 0 1
0 -1 -194 -2 0 0 1 6 0 1 0 1
0 -133 -194 -2 0 0 1 6 0 1 0 1
phys
0 -1 -194 2 0 0 1 6 0 1 0 1
0 -133 -194 -2 0 0 1 6 0 1 0 1
0 -133 -194 2 0 0 1 6 0 1 0 1
phys
0 -1 -196 -2 0 0 1 6 0 1 0 1
0 -1 -196 2 0 0 1 6 0 1 0 1
0 -133 -196 2 0 0 1 6 0 1 0 1
phys
0 -1 -196 -2 0 0 1 6 0 1 0 1
0 -133 -196 2 0 0 1 6 0 1 0 1
0 -133 -196 -2 0 0 1 6 0 1 0 1
phys
0 -133 -196 -2 0 0 1 6 0 1 0 1
0 -133 -196 2 0 0 1 6 0 1 0 1
0 -133 -194 2 0 0 1 6 0 1 0 1
phys
0 -133 -196 -2 0 0 1 6 0 1 0 1
0 -133 -194 2 0 0 1 6 0 1 0 1
0 -133 -194 -2 0 0 1 6 0 1 0 1
phys
0 -1 -196 2 0 0 1 6 0 1 0 1
0 -1 -196 -2 0 0 1 6 0 1 0 1
0 -1 -194 -2 0 0 1 6 0 1 0 1
phys
0 -1 -196 2 0 0 1 6 0 1 0 1
0 -1 -194 -2 0 0 1 6 0 1 0 1
0 -1 -194 2 0 0 1 6 0 1 0 1
phys
0 -1 -196 -2 0 0 1 6 0 1 0 1
0 -133 -196 -2 0 0 1 6 0 1 0 1
0 -133 -194 -2 0 0 1 6 0 1 0 1
phys
0 -1 -196 -2 0 0 1 6 0 1 0 1
0 -133 -194 -2 0 0 1 6 0 1 0 1
0 -1 -194 -2 0 0 1 6 0 1 0 1
phys
0 -133 -196 2 0 0 1 6 0 1 0 1
0 -1 -196 2 0 0 1 6 0 1 0 1
0 -1 -194 2 0 0 1 6 0 1 0 1
phys
0 -133 -196 2 0 0 1 6 0 1 0 1
0 -1 -194 2 0 0 1 6 0 1 0 1
0 -133 -194 2 0 0 1 6 0 1 0 1
phys
0 1 -100 72 0 0 1 7 0 1 0 1
0 1 -100 2 0 0 1 7 0 1 0 1
0 -1 -100 2 0 0 1 7 0 1 0 1
phys
0 1 -100 72 0 0 1 7 0 1 0 1
0 -1 -100 2 0 0 1 7 0 1 0 1
0 -1 -100 72 0 0 1 7 0 1 0 1
phys
0 1 -102 2 0 0 1 7 0 1 0 1
0 1 -102 72 0 0 1 7 0 1 0 1
0 -1 -102 72 0 0 1 7 0 1 0 1
phys
0 1 -102 2 0 0 1 7 0 1 0 1
0 -1 -102 72 0 0 1 7 0 1 0 1
0 -1 -102 2 0 0 1 7 0 1 0 1
phys
0 -1 -102 2 0 0 1 7 0 1 0 1
0 -1 -102 72 0 0 1 7 0 1 0 1
0 -1 -100 72 0 0 1 7 0 1 0 1
phys
0 -1 -102 2 0 0 1 7 0 1 0 1
0 -1 -100 72 0 0 1 7 0 1 0 1
0 -1 -100 2 0 0 1 7 0 1 0 1
phys
0 1 -102 72 0 0 1 7 0 1 0 1
0 1 -102 2 0 0 1 7 0 1 0 1
0 1 -100 2 0 0 1 7 0 1 0 1
phys
0 1 -102 72 0 0 1 7 0 1 0 1
0 1 -100 2 0 0 1 7 0 1 0 1
0 1 -100 72 0 0 1 7 0 1 0 1
phys
0 1 -102 2 0 0 1 7 0 1 0 1
0 -1 -102 2 0 0 1 7 0 1 0 1
0 -1 -100 2 0 0 1 7 0 1 0 1
phys
0 1 -102 2 0 0 1 7 0 1 0 1
0 -1 -100 2 0 0 1 7 0 1 0 1
0 1 -100 2 0 0 1 7 0 1 0 1
phys
0 -1 -102 72 0 0 1 7 0 1 0 1
0 1 -102 72 0 0 1 7 0 1 0 1
0 1 -100 72 0 0 1 7 0 1 0 1
phys
0 -1 -102 72 0 0 1 7 0 1 0 1
0 1 -100 72 0 0 1 7 0 1 0 1
0 -1 -100 72 0 0 1 7 0 1 0 1
phys
0 1 -194 72 0 0 1 8 0 1 0 1
0 1 -194 2 0 0 1 8 0 1 0 1
0 -1 -194 2 0 0 1 8 0 1 0 1
phys
0 1 -194 72 0 0 1 8 0 1 0 1
0 -1 -194 2 0 0 1 8 0 1 0 1
0 -1 -194 72 0 0 1 8 0 1 0 1
phys
0 1 -196 2 0 0 1 8 0 1 0 1
0 1 -196 72 0 0 1 8 0 1 0 1
0 -1 -196 72 0 0 1 8 0 1 0 1
phys
0 1 -196 2 0 0 1 8 0 1 0 1
0 -1 -196 72 0 0 1 8 0 1 0 1
0 -1 -196 2 0 0 1 8 0 1 0 1
phys
0 -1 -196 2 0 0 1 8 0 1 0 1
0 -1 -196 72 0 0 1 8 0 1 0 1
0 -1 -194 72 0 0 1 8 0 1 0 1
phys
0 -1 -196 2 0 0 1 8 0 1 0 1
0 -1 -194 72 0 0 1 8 0 1 0 1
0 -1 -194 2 0 0 1 8 0 1 0 1
phys
0 1 -196 72 0 0 1 8 0 1 0 1
0 1 -196 2 0 0 1 8 0 1 0 1
0 1 -194 2 0 0 1 8 0 1 0 1
phys
0 1 -196 72 0 0 1 8 0 1 0 1
0 1 -194 2 0 0 1 8 0 1 0 1
0 1 -194 72 0 0 1 8 0 1 0 1
phys
0 1 -196 2 0 0 1 8 0 1 0 1
0 -1 -196 2 0 0 1 8 0 1 0 1
0 -1 -194 2 0 0 1 8 0 1 0 1
phys
0 1 -196 2 0 0 1 8 0 1 0 1
0 -1 -194 2 0 0 1 8 0 1 0 1
0 1 -194 2 0 0 1 8 0 1 0 1
phys
0 -1 -196 72 0 0 1 8 0 1 0 1
0 1 -196 72 0 0 1 8 0 1 0 1
0 1 -194 72 0 0 1 8 0 1 0 1
phys
0 -1 -196 72 0 0 1 8 0 1 0 1
0 1 -194 72 0 0 1 8 0 1 0 1
0 -1 -194 72 0 0 1 8 0 1 0 1
phys
0 1 100 2 0 0 1 9 0 1 0 1
0 1 102 2 0 0 1 9 0 1 0 1
0 1 102 72 0 0 1 9 0 1 0 1
phys
0 1 100 2 0 0 1 9 0 1 0 1
0 1 102 72 0 0 1 9 0 1 0 1
0 1 100 72 0 0 1 9 0 1 0 1
phys
0 -1 102 2 0 0 1 9 0 1 0 1
0 1 102 2 0 0 1 9 0 1 0 1
0 1 100 2 0 0 1 9 0 1 0 1
phys
0 -1 102 2 0 0 1 9 0 1 0 1
0 1 100 2 0 0 1 9 0 1 0 1
0 -1 100 2 0 0 1 9 0 1 0 1
phys
0 -1 100 72 0 0 1 9 0 1 0 1
0 1 100 72 0 0 1 9 0 1 0 1
0 1 102 72 0 0 1 9 0 1 0 1
phys
0 -1 100 72 0 0 1 9 0 1 0 1
0 1 102 72 0 0 1 9 0 1 0 1
0 -1 102 72 0 0 1 9 0 1 0 1
phys
0 1 102 72 0 0 1 9 0 1 0 1
0 1 102 2 0 0 1 9 0 1 0 1
0 -1 102 2 0 0 1 9 0 1 0 1
phys
0 1 102 72 0 0 1 9 0 1 0 1
0 -1 102 2 0 0 1 9 0 1 0 1
0 -1 102 72 0 0 1 9 0 1 0 1
phys
0 1 100 2 0 0 1 9 0 1 0 1
0 1 100 72 0 0 1 9 0 1 0 1
0 -1 100 72 0 0 1 9 0 1 0 1
phys
0 1 100 2 0 0 1 9 0 1 0 1
0 -1 100 72 0 0 1 9 0 1 0 1
0 -1 100 2 0 0 1 9 0 1 0 1
phys
0 -1 100 72 0 0 1 9 0 1 0 1
0 -1 102 72 0 0 1 9 0 1 0 1
0 -1 102 2 0 0 1 9 0 1 0 1
phys
0 -1 100 72 0 0 1 9 0 1 0 1
0 -1 102 2 0 0 1 9 0 1 0 1
0 -1 100 2 0 0 1 9 0 1 0 1
phys
0 -1 194 2 0 0 1 10 0 1 0 1
0 1 194 2 0 0 1 10 0 1 0 1
0 1 398 2 0 0 1 10 0 1 0 1
phys
0 -1 194 2 0 0 1 10 0 1 0 1
0 1 398 2 0 0 1 10 0 1 0 1
0 -1 398 2 0 0 1 10 0 1 0 1
phys
0 -1 398 -2 0 0 1 10 0 1 0 1
0 -1 398 2 0 0 1 10 0 1 0 1
0 1 398 2 0 0 1 10 0 1 0 1
phys
0 -1 398 -2 0 0 1 10 0 1 0 1
0 1 398 2 0 0 1 10 0 1 0 1
0 1 398 -2 0 0 1 10 0 1 0 1
phys
0 1 194 -2 0 0 1 10 0 1 0 1
0 1 194 2 0 0 1 10 0 1 0 1
0 -1 194 2 0 0 1 10 0 1 0 1
phys
0 1 194 -2 0 0 1 10 0 1 0 1
0 -1 194 2 0 0 1 10 0 1 0 1
0 -1 194 -2 0 0 1 10 0 1 0 1
phys
0 -1 194 -2 0 0 1 10 0 1 0 1
0 -1 194 2 0 0 1 10 0 1 0 1
0 -1 398 2 0 0 1 10 0 1 0 1
phys
0 -1 194 -2 0 0 1 10 0 1 0 1
0 -1 398 2 0 0 1 10 0 1 0 1
0 -1 398 -2 0 0 1 10 0 1 0 1
phys
0 1 398 -2 0 0 1 10 0 1 0 1
0 1 398 2 0 0 1 10 0 1 0 1
0 1 194 2 0 0 1 10 0 1 0 1
phys
0 1 398 -2 0 0 1 10 0 1 0 1
0 1 194 2 0 0 1 10 0 1 0 1
0 1 194 -2 0 0 1 10 0 1 0 1
phys
0 1 194 -2 0 0 1 10 0 1 0 1
0 -1 194 -2 0 0 1 10 0 1 0 1
0 -1 398 -2 0 0 1 10 0 1 0 1
phys
0 1 194 -2 0 0 1 10 0 1 0 1
0 -1 398 -2 0 0 1 10 0 1 0 1
0 1 398 -2 0 0 1 10 0 1 0 1
end
