version 1
nodes
0 "root" -1
end
skeleton
time 0
0 0 0 0 0 0 0
end
triangles
phys
0 -270 72 21 0 0 1 1 0 1 0 1
0 -131 72 21 0 0 1 1 0 1 0 1
0 -131 109 21 0 0 1 1 0 1 0 1
phys
0 -270 72 21 0 0 1 1 0 1 0 1
0 -131 109 21 0 0 1 1 0 1 0 1
0 -270 109 21 0 0 1 1 0 1 0 1
phys
0 -270 109 18 0 0 1 1 0 1 0 1
0 -270 109 21 0 0 1 1 0 1 0 1
0 -131 109 21 0 0 1 1 0 1 0 1
phys
0 -270 109 18 0 0 1 1 0 1 0 1
0 -131 109 21 0 0 1 1 0 1 0 1
0 -131 109 18 0 0 1 1 0 1 0 1
phys
0 -131 72 18 0 0 1 1 0 1 0 1
0 -131 72 21 0 0 1 1 0 1 0 1
0 -270 72 21 0 0 1 1 0 1 0 1
phys
0 -131 72 18 0 0 1 1 0 1 0 1
0 -270 72 21 0 0 1 1 0 1 0 1
0 -270 72 18 0 0 1 1 0 1 0 1
phys
0 -270 72 18 0 0 1 1 0 1 0 1
0 -270 72 21 0 0 1 1 0 1 0 1
0 -270 109 21 0 0 1 1 0 1 0 1
phys
0 -270 72 18 0 0 1 1 0 1 0 1
0 -270 109 21 0 0 1 1 0 1 0 1
0 -270 109 18 0 0 1 1 0 1 0 1
phys
0 -131 109 18 0 0 1 1 0 1 0 1
0 -131 109 21 0 0 1 1 0 1 0 1
0 -131 72 21 0 0 1 1 0 1 0 1
phys
0 -131 109 18 0 0 1 1 0 1 0 1
0 -131 72 21 0 0 1 1 0 1 0 1
0 -131 72 18 0 0 1 1 0 1 0 1
phys
0 -131 72 18 0 0 1 1 0 1 0 1
0 -270 72 18 0 0 1 1 0 1 0 1
0 -270 109 18 0 0 1 1 0 1 0 1
phys
0 -131 72 18 0 0 1 1 0 1 0 1
0 -270 109 18 0 0 1 1 0 1 0 1
0 -131 109 18 0 0 1 1 0 1 0 1
phys
0 77 125 210 0 0 1 2 0 1 0 1
0 269 125 210 0 0 1 2 0 1 0 1
0 269 133 210 0 0 1 2 0 1 0 1
phys
0 77 125 210 0 0 1 2 0 1 0 1
0 269 133 210 0 0 1 2 0 1 0 1
0 77 133 210 0 0 1 2 0 1 0 1
phys
0 77 133 170 0 0 1 2 0 1 0 1
0 77 133 210 0 0 1 2 0 1 0 1
0 269 133 210 0 0 1 2 0 1 0 1
phys
0 77 133 170 0 0 1 2 0 1 0 1
0 269 133 210 0 0 1 2 0 1 0 1
0 269 133 170 0 0 1 2 0 1 0 1
phys
0 269 125 170 0 0 1 2 0 1 0 1
0 269 125 210 0 0 1 2 0 1 0 1
0 77 125 210 0 0 1 2 0 1 0 1
phys
0 269 125 170 0 0 1 2 0 1 0 1
0 77 125 210 0 0 1 2 0 1 0 1
0 77 125 170 0 0 1 2 0 1 0 1
phys
0 77 125 170 0 0 1 2 0 1 0 1
0 77 125 210 0 0 1 2 0 1 0 1
0 77 133 210 0 0 1 2 0 1 0 1
phys
0 77 125 170 0 0 1 2 0 1 0 1
0 77 133 210 0 0 1 2 0 1 0 1
0 77 133 170 0 0 1 2 0 1 0 1
phys
0 269 133 170 0 0 1 2 0 1 0 1
0 269 133 210 0 0 1 2 0 1 0 1
0 269 125 210 0 0 1 2 0 1 0 1
phys
0 269 133 170 0 0 1 2 0 1 0 1
0 269 125 210 0 0 1 2 0 1 0 1
0 269 125 170 0 0 1 2 0 1 0 1
phys
0 269 125 170 0 0 1 2 0 1 0 1
0 77 125 170 0 0 1 2 0 1 0 1
0 77 133 170 0 0 1 2 0 1 0 1
phys
0 269 125 170 0 0 1 2 0 1 0 1
0 77 133 170 0 0 1 2 0 1 0 1
0 269 133 170 0 0 1 2 0 1 0 1
phys
0 133 47 112 0 0 1 3 0 1 0 1
0 133 47 108 0 0 1 3 0 1 0 1
0 119 47 108 0 0 1 3 0 1 0 1
phys
0 133 47 112 0 0 1 3 0 1 0 1
0 119 47 108 0 0 1 3 0 1 0 1
0 119 47 112 0 0 1 3 0 1 0 1
phys
0 133 -57 108 0 0 1 3 0 1 0 1
0 133 -57 112 0 0 1 3 0 1 0 1
0 119 -57 112 0 0 1 3 0 1 0 1
phys
0 133 -57 108 0 0 1 3 0 1 0 1
0 119 -57 112 0 0 1 3 0 1 0 1
0 119 -57 108 0 0 1 3 0 1 0 1
phys
0 119 -57 108 0 0 1 3 0 1 0 1
0 119 -57 112 0 0 1 3 0 1 0 1
0 119 47 112 0 0 1 3 0 1 0 1
phys
0 119 -57 108 0 0 1 3 0 1 0 1
0 119 47 112 0 0 1 3 0 1 0 1
0 119 47 108 0 0 1 3 0 1 0 1
phys
0 133 -57 112 0 0 1 3 0 1 0 1
0 133 -57 108 0 0 1 3 0 1 0 1
0 133 47 108 0 0 1 3 0 1 0 1
phys
0 133 -57 112 0 0 1 3 0 1 0 1
0 133 47 108 0 0 1 3 0 1 0 1
0 133 47 112 0 0 1 3 0 1 0 1
phys
0 133 -57 108 0 0 1 3 0 1 0 1
0 119 -57 108 0 0 1 3 0 1 0 1
0 119 47 108 0 0 1 3 0 1 0 1
phys
0 133 -57 108 0 0 1 3 0 1 0 1
0 119 47 108 0 0 1 3 0 1 0 1
0 133 47 108 0 0 1 3 0 1 0 1
phys
0 119 -57 112 0 0 1 3 0 1 0 1
0 133 -57 112 0 0 1 3 0 1 0 1
0 133 47 112 0 0 1 3 0 1 0 1
phys
0 119 -57 112 0 0 1 3 0 1 0 1
0 133 47 112 0 0 1 3 0 1 0 1
0 119 47 112 0 0 1 3 0 1 0 1
phys
0 93 125 112 0 0 1 4 0 1 0 1
0 93 125 32 0 0 1 4 0 1 0 1
0 89 125 32 0 0 1 4 0 1 0 1
phys
0 93 125 112 0 0 1 4 0 1 0 1
0 89 125 32 0 0 1 4 0 1 0 1
0 89 125 112 0 0 1 4 0 1 0 1
phys
0 93 109 32 0 0 1 4 0 1 0 1
0 93 109 112 0 0 1 4 0 1 0 1
0 89 109 112 0 0 1 4 0 1 0 1
phys
0 93 109 32 0 0 1 4 0 1 0 1
0 89 109 112 0 0 1 4 0 1 0 1
0 89 109 32 0 0 1 4 0 1 0 1
phys
0 89 109 32 0 0 1 4 0 1 0 1
0 89 109 112 0 0 1 4 0 1 0 1
0 89 125 112 0 0 1 4 0 1 0 1
phys
0 89 109 32 0 0 1 4 0 1 0 1
0 89 125 112 0 0 1 4 0 1 0 1
0 89 125 32 0 0 1 4 0 1 0 1
phys
0 93 109 112 0 0 1 4 0 1 0 1
0 93 109 32 0 0 1 4 0 1 0 1
0 93 125 32 0 0 1 4 0 1 0 1
phys
0 93 109 112 0 0 1 4 0 1 0 1
0 93 125 32 0 0 1 4 0 1 0 1
0 93 125 112 0 0 1 4 0 1 0 1
phys
0 93 109 32 0 0 1 4 0 1 0 1
0 89 109 32 0 0 1 4 0 1 0 1
0 89 125 32 0 0 1 4 0 1 0 1
phys
0 93 109 32 0 0 1 4 0 1 0 1
0 89 125 32 0 0 1 4 0 1 0 1
0 93 125 32 0 0 1 4 0 1 0 1
phys
0 89 109 112 0 0 1 4 0 1 0 1
0 93 109 112 0 0 1 4 0 1 0 1
0 93 125 112 0 0 1 4 0 1 0 1
phys
0 89 109 112 0 0 1 4 0 1 0 1
0 93 125 112 0 0 1 4 0 1 0 1
0 89 125 112 0 0 1 4 0 1 0 1
phys
0 123 -57 112 0 0 1 5 0 1 0 1
0 123 -57 0 0 0 1 5 0 1 0 1
0 119 -57 0 0 0 1 5 0 1 0 1
phys
0 123 -57 112 0 0 1 5 0 1 0 1
0 119 -57 0 0 0 1 5 0 1 0 1
0 119 -57 112 0 0 1 5 0 1 0 1
phys
0 123 -61 0 0 0 1 5 0 1 0 1
0 123 -61 112 0 0 1 5 0 1 0 1
0 119 -61 112 0 0 1 5 0 1 0 1
phys
0 123 -61 0 0 0 1 5 0 1 0 1
0 119 -61 112 0 0 1 5 0 1 0 1
0 119 -61 0 0 0 1 5 0 1 0 1
phys
0 119 -61 0 0 0 1 5 0 1 0 1
0 119 -61 112 0 0 1 5 0 1 0 1
0 119 -57 112 0 0 1 5 0 1 0 1
phys
0 119 -61 0 0 0 1 5 0 1 0 1
0 119 -57 112 0 0 1 5 0 1 0 1
0 119 -57 0 0 0 1 5 0 1 0 1
phys
0 123 -61 112 0 0 1 5 0 1 0 1
0 123 -61 0 0 0 1 5 0 1 0 1
0 123 -57 0 0 0 1 5 0 1 0 1
phys
0 123 -61 112 0 0 1 5 0 1 0 1
0 123 -57 0 0 0 1 5 0 1 0 1
0 123 -57 112 0 0 1 5 0 1 0 1
phys
0 123 -61 0 0 0 1 5 0 1 0 1
0 119 -61 0 0 0 1 5 0 1 0 1
0 119 -57 0 0 0 1 5 0 1 0 1
phys
0 123 -61 0 0 0 1 5 0 1 0 1
0 119 -57 0 0 0 1 5 0 1 0 1
0 123 -57 0 0 0 1 5 0 1 0 1
phys
0 119 -61 112 0 0 1 5 0 1 0 1
0 123 -61 112 0 0 1 5 0 1 0 1
0 123 -57 112 0 0 1 5 0 1 0 1
phys
0 119 -61 112 0 0 1 5 0 1 0 1
0 123 -57 112 0 0 1 5 0 1 0 1
0 119 -57 112 0 0 1 5 0 1 0 1
phys
0 -136 109 18 0 0 1 6 0 1 0 1
0 -136 109 0 0 0 1 6 0 1 0 1
0 -265 109 0 0 0 1 6 0 1 0 1
phys
0 -136 109 18 0 0 1 6 0 1 0 1
0 -265 109 0 0 0 1 6 0 1 0 1
0 -265 109 18 0 0 1 6 0 1 0 1
phys
0 -136 77 0 0 0 1 6 0 1 0 1
0 -136 77 18 0 0 1 6 0 1 0 1
0 -265 77 18 0 0 1 6 0 1 0 1
phys
0 -136 77 0 0 0 1 6 0 1 0 1
0 -265 77 18 0 0 1 6 0 1 0 1
0 -265 77 0 0 0 1 6 0 1 0 1
phys
0 -265 77 0 0 0 1 6 0 1 0 1
0 -265 77 18 0 0 1 6 0 1 0 1
0 -265 109 18 0 0 1 6 0 1 0 1
phys
0 -265 77 0 0 0 1 6 0 1 0 1
0 -265 109 18 0 0 1 6 0 1 0 1
0 -265 109 0 0 0 1 6 0 1 0 1
phys
0 -136 77 18 0 0 1 6 0 1 0 1
0 -136 77 0 0 0 1 6 0 1 0 1
0 -136 109 0 0 0 1 6 0 1 0 1
phys
0 -136 77 18 0 0 1 6 0 1 0 1
0 -136 109 0 0 0 1 6 0 1 0 1
0 -136 109 18 0 0 1 6 0 1 0 1
phys
0 -136 77 0 0 0 1 6 0 1 0 1
0 -265 77 0 0 0 1 6 0 1 0 1
0 -265 109 0 0 0 1 6 0 1 0 1
phys
0 -136 77 0 0 0 1 6 0 1 0 1
0 -265 109 0 0 0 1 6 0 1 0 1
0 -136 109 0 0 0 1 6 0 1 0 1
phys
0 -265 77 18 0 0 1 6 0 1 0 1
0 -136 77 18 0 0 1 6 0 1 0 1
0 -136 109 18 0 0 1 6 0 1 0 1
phys
0 -265 77 18 0 0 1 6 0 1 0 1
0 -136 109 18 0 0 1 6 0 1 0 1
0 -265 109 18 0 0 1 6 0 1 0 1
phys
0 133 -61 0 0 0 1 7 0 1 0 1
0 133 -57 0 0 0 1 7 0 1 0 1
0 133 -57 112 0 0 1 7 0 1 0 1
phys
0 133 -61 0 0 0 1 7 0 1 0 1
0 133 -57 112 0 0 1 7 0 1 0 1
0 133 -61 112 0 0 1 7 0 1 0 1
phys
0 127 -57 0 0 0 1 7 0 1 0 1
0 133 -57 0 0 0 1 7 0 1 0 1
0 133 -61 0 0 0 1 7 0 1 0 1
phys
0 127 -57 0 0 0 1 7 0 1 0 1
0 133 -61 0 0 0 1 7 0 1 0 1
0 127 -61 0 0 0 1 7 0 1 0 1
phys
0 127 -61 112 0 0 1 7 0 1 0 1
0 133 -61 112 0 0 1 7 0 1 0 1
0 133 -57 112 0 0 1 7 0 1 0 1
phys
0 127 -61 112 0 0 1 7 0 1 0 1
0 133 -57 112 0 0 1 7 0 1 0 1
0 127 -57 112 0 0 1 7 0 1 0 1
phys
0 133 -57 112 0 0 1 7 0 1 0 1
0 133 -57 0 0 0 1 7 0 1 0 1
0 127 -57 0 0 0 1 7 0 1 0 1
phys
0 133 -57 112 0 0 1 7 0 1 0 1
0 127 -57 0 0 0 1 7 0 1 0 1
0 127 -57 112 0 0 1 7 0 1 0 1
phys
0 133 -61 0 0 0 1 7 0 1 0 1
0 133 -61 112 0 0 1 7 0 1 0 1
0 127 -61 112 0 0 1 7 0 1 0 1
phys
0 133 -61 0 0 0 1 7 0 1 0 1
0 127 -61 112 0 0 1 7 0 1 0 1
0 127 -61 0 0 0 1 7 0 1 0 1
phys
0 127 -61 112 0 0 1 7 0 1 0 1
0 127 -57 112 0 0 1 7 0 1 0 1
0 127 -57 0 0 0 1 7 0 1 0 1
phys
0 127 -61 112 0 0 1 7 0 1 0 1
0 127 -57 0 0 0 1 7 0 1 0 1
0 127 -61 0 0 0 1 7 0 1 0 1
phys
0 123 51 112 0 0 1 8 0 1 0 1
0 123 51 0 0 0 1 8 0 1 0 1
0 119 51 0 0 0 1 8 0 1 0 1
phys
0 123 51 112 0 0 1 8 0 1 0 1
0 119 51 0 0 0 1 8 0 1 0 1
0 119 51 112 0 0 1 8 0 1 0 1
phys
0 123 47 0 0 0 1 8 0 1 0 1
0 123 47 112 0 0 1 8 0 1 0 1
0 119 47 112 0 0 1 8 0 1 0 1
phys
0 123 47 0 0 0 1 8 0 1 0 1
0 119 47 112 0 0 1 8 0 1 0 1
0 119 47 0 0 0 1 8 0 1 0 1
phys
0 119 47 0 0 0 1 8 0 1 0 1
0 119 47 112 0 0 1 8 0 1 0 1
0 119 51 112 0 0 1 8 0 1 0 1
phys
0 119 47 0 0 0 1 8 0 1 0 1
0 119 51 112 0 0 1 8 0 1 0 1
0 119 51 0 0 0 1 8 0 1 0 1
phys
0 123 47 112 0 0 1 8 0 1 0 1
0 123 47 0 0 0 1 8 0 1 0 1
0 123 51 0 0 0 1 8 0 1 0 1
phys
0 123 47 112 0 0 1 8 0 1 0 1
0 123 51 0 0 0 1 8 0 1 0 1
0 123 51 112 0 0 1 8 0 1 0 1
phys
0 123 47 0 0 0 1 8 0 1 0 1
0 119 47 0 0 0 1 8 0 1 0 1
0 119 51 0 0 0 1 8 0 1 0 1
phys
0 123 47 0 0 0 1 8 0 1 0 1
0 119 51 0 0 0 1 8 0 1 0 1
0 123 51 0 0 0 1 8 0 1 0 1
phys
0 119 47 112 0 0 1 8 0 1 0 1
0 123 47 112 0 0 1 8 0 1 0 1
0 123 51 112 0 0 1 8 0 1 0 1
phys
0 119 47 112 0 0 1 8 0 1 0 1
0 123 51 112 0 0 1 8 0 1 0 1
0 119 51 112 0 0 1 8 0 1 0 1
phys
0 -110 -132 116 0 0 1 9 0 1 0 1
0 -110 -132 126 0 0 1 9 0 1 0 1
0 -165 -132 126 0 0 1 9 0 1 0 1
phys
0 -110 -132 116 0 0 1 9 0 1 0 1
0 -165 -132 126 0 0 1 9 0 1 0 1
0 -165 -132 116 0 0 1 9 0 1 0 1
phys
0 -165 -132 116 0 0 1 9 0 1 0 1
0 -165 -132 126 0 0 1 9 0 1 0 1
0 -165 -130 126 0 0 1 9 0 1 0 1
phys
0 -165 -132 116 0 0 1 9 0 1 0 1
0 -165 -130 126 0 0 1 9 0 1 0 1
0 -165 -130 116 0 0 1 9 0 1 0 1
phys
0 -110 -132 126 0 0 1 9 0 1 0 1
0 -110 -132 116 0 0 1 9 0 1 0 1
0 -110 -130 116 0 0 1 9 0 1 0 1
phys
0 -110 -132 126 0 0 1 9 0 1 0 1
0 -110 -130 116 0 0 1 9 0 1 0 1
0 -110 -130 126 0 0 1 9 0 1 0 1
phys
0 -110 -132 116 0 0 1 9 0 1 0 1
0 -165 -132 116 0 0 1 9 0 1 0 1
0 -165 -130 116 0 0 1 9 0 1 0 1
phys
0 -110 -132 116 0 0 1 9 0 1 0 1
0 -165 -130 116 0 0 1 9 0 1 0 1
0 -110 -130 116 0 0 1 9 0 1 0 1
phys
0 -165 -132 126 0 0 1 9 0 1 0 1
0 -110 -132 126 0 0 1 9 0 1 0 1
0 -110 -130 126 0 0 1 9 0 1 0 1
phys
0 -165 -132 126 0 0 1 9 0 1 0 1
0 -110 -130 126 0 0 1 9 0 1 0 1
0 -165 -130 126 0 0 1 9 0 1 0 1
phys
0 -110 -130 126 0 0 1 9 0 1 0 1
0 -110 -130 116 0 0 1 9 0 1 0 1
0 -165 -130 116 0 0 1 9 0 1 0 1
phys
0 -110 -130 126 0 0 1 9 0 1 0 1
0 -165 -130 116 0 0 1 9 0 1 0 1
0 -165 -130 126 0 0 1 9 0 1 0 1
phys
0 133 51 112 0 0 1 10 0 1 0 1
0 133 51 0 0 0 1 10 0 1 0 1
0 127 51 0 0 0 1 10 0 1 0 1
phys
0 133 51 112 0 0 1 10 0 1 0 1
0 127 51 0 0 0 1 10 0 1 0 1
0 127 51 112 0 0 1 10 0 1 0 1
phys
0 133 47 0 0 0 1 10 0 1 0 1
0 133 47 112 0 0 1 10 0 1 0 1
0 127 47 112 0 0 1 10 0 1 0 1
phys
0 133 47 0 0 0 1 10 0 1 0 1
0 127 47 112 0 0 1 10 0 1 0 1
0 127 47 0 0 0 1 10 0 1 0 1
phys
0 127 47 0 0 0 1 10 0 1 0 1
0 127 47 112 0 0 1 10 0 1 0 1
0 127 51 112 0 0 1 10 0 1 0 1
phys
0 127 47 0 0 0 1 10 0 1 0 1
0 127 51 112 0 0 1 10 0 1 0 1
0 127 51 0 0 0 1 10 0 1 0 1
phys
0 133 47 112 0 0 1 10 0 1 0 1
0 133 47 0 0 0 1 10 0 1 0 1
0 133 51 0 0 0 1 10 0 1 0 1
phys
0 133 47 112 0 0 1 10 0 1 0 1
0 133 51 0 0 0 1 10 0 1 0 1
0 133 51 112 0 0 1 10 0 1 0 1
phys
0 133 47 0 0 0 1 10 0 1 0 1
0 127 47 0 0 0 1 10 0 1 0 1
0 127 51 0 0 0 1 10 0 1 0 1
phys
0 133 47 0 0 0 1 10 0 1 0 1
0 127 51 0 0 0 1 10 0 1 0 1
0 133 51 0 0 0 1 10 0 1 0 1
phys
0 127 47 112 0 0 1 10 0 1 0 1
0 133 47 112 0 0 1 10 0 1 0 1
0 133 51 112 0 0 1 10 0 1 0 1
phys
0 127 47 112 0 0 1 10 0 1 0 1
0 133 51 112 0 0 1 10 0 1 0 1
0 127 51 112 0 0 1 10 0 1 0 1
phys
0 -110 -130 128 0 0 1 11 0 1 0 1
0 -110 -130 126 0 0 1 11 0 1 0 1
0 -165 -130 126 0 0 1 11 0 1 0 1
phys
0 -110 -130 128 0 0 1 11 0 1 0 1
0 -165 -130 126 0 0 1 11 0 1 0 1
0 -165 -130 128 0 0 1 11 0 1 0 1
phys
0 -110 -132 126 0 0 1 11 0 1 0 1
0 -110 -132 128 0 0 1 11 0 1 0 1
0 -165 -132 128 0 0 1 11 0 1 0 1
phys
0 -110 -132 126 0 0 1 11 0 1 0 1
0 -165 -132 128 0 0 1 11 0 1 0 1
0 -165 -132 126 0 0 1 11 0 1 0 1
phys
0 -165 -132 126 0 0 1 11 0 1 0 1
0 -165 -132 128 0 0 1 11 0 1 0 1
0 -165 -130 128 0 0 1 11 0 1 0 1
phys
0 -165 -132 126 0 0 1 11 0 1 0 1
0 -165 -130 128 0 0 1 11 0 1 0 1
0 -165 -130 126 0 0 1 11 0 1 0 1
phys
0 -110 -132 128 0 0 1 11 0 1 0 1
0 -110 -132 126 0 0 1 11 0 1 0 1
0 -110 -130 126 0 0 1 11 0 1 0 1
phys
0 -110 -132 128 0 0 1 11 0 1 0 1
0 -110 -130 126 0 0 1 11 0 1 0 1
0 -110 -130 128 0 0 1 11 0 1 0 1
phys
0 -110 -132 126 0 0 1 11 0 1 0 1
0 -165 -132 126 0 0 1 11 0 1 0 1
0 -165 -130 126 0 0 1 11 0 1 0 1
phys
0 -110 -132 126 0 0 1 11 0 1 0 1
0 -165 -130 126 0 0 1 11 0 1 0 1
0 -110 -130 126 0 0 1 11 0 1 0 1
phys
0 -165 -132 128 0 0 1 11 0 1 0 1
0 -110 -132 128 0 0 1 11 0 1 0 1
0 -110 -130 128 0 0 1 11 0 1 0 1
phys
0 -165 -132 128 0 0 1 11 0 1 0 1
0 -110 -130 128 0 0 1 11 0 1 0 1
0 -165 -130 128 0 0 1 11 0 1 0 1
end
