version 1
nodes
0 "root" -1
end
skeleton
time 0
0 0 0 0 0 0 0
end
triangles
phys
0 20.37 -472.29 44.108 0 0 1 1 0 1 0 1
0 20.37 -472.29 -63.892 0 0 1 1 0 1 0 1
0 -15.63 -472.29 -63.892 0 0 1 1 0 1 0 1
phys
0 20.37 -472.29 44.108 0 0 1 1 0 1 0 1
0 -15.63 -472.29 -63.892 0 0 1 1 0 1 0 1
0 -15.63 -472.29 44.108 0 0 1 1 0 1 0 1
phys
0 20.37 -480.29 -63.892 0 0 1 1 0 1 0 1
0 20.37 -480.29 44.108 0 0 1 1 0 1 0 1
0 -15.63 -480.29 44.108 0 0 1 1 0 1 0 1
phys
0 20.37 -480.29 -63.892 0 0 1 1 0 1 0 1
0 -15.63 -480.29 44.108 0 0 1 1 0 1 0 1
0 -15.63 -480.29 -63.892 0 0 1 1 0 1 0 1
phys
0 -15.63 -480.29 -63.892 0 0 1 1 0 1 0 1
0 -15.63 -480.29 44.108 0 0 1 1 0 1 0 1
0 -15.63 -472.29 44.108 0 0 1 1 0 1 0 1
phys
0 -15.63 -480.29 -63.892 0 0 1 1 0 1 0 1
0 -15.63 -472.29 44.108 0 0 1 1 0 1 0 1
0 -15.63 -472.29 -63.892 0 0 1 1 0 1 0 1
phys
0 20.37 -480.29 44.108 0 0 1 1 0 1 0 1
0 20.37 -480.29 -63.892 0 0 1 1 0 1 0 1
0 20.37 -472.29 -63.892 0 0 1 1 0 1 0 1
phys
0 20.37 -480.29 44.108 0 0 1 1 0 1 0 1
0 20.37 -472.29 -63.892 0 0 1 1 0 1 0 1
0 20.37 -472.29 44.108 0 0 1 1 0 1 0 1
phys
0 20.37 -480.29 -63.892 0 0 1 1 0 1 0 1
0 -15.63 -480.29 -63.892 0 0 1 1 0 1 0 1
0 -15.63 -472.29 -63.892 0 0 1 1 0 1 0 1
phys
0 20.37 -480.29 -63.892 0 0 1 1 0 1 0 1
0 -15.63 -472.29 -63.892 0 0 1 1 0 1 0 1
0 20.37 -472.29 -63.892 0 0 1 1 0 1 0 1
phys
0 -15.63 -480.29 44.108 0 0 1 1 0 1 0 1
0 20.37 -480.29 44.108 0 0 1 1 0 1 0 1
0 20.37 -472.29 44.108 0 0 1 1 0 1 0 1
phys
0 -15.63 -480.29 44.108 0 0 1 1 0 1 0 1
0 20.37 -472.29 44.108 0 0 1 1 0 1 0 1
0 -15.63 -472.29 44.108 0 0 1 1 0 1 0 1
phys
0 -47.62 -160.29 -63.892 0 0 1 2 0 1 0 1
0 -47.62 -160.29 56.108 0 0 1 2 0 1 0 1
0 -55.63 -152.29 56.108 0 0 1 2 0 1 0 1
phys
0 -47.62 -160.29 -63.892 0 0 1 2 0 1 0 1
0 -55.63 -152.29 56.108 0 0 1 2 0 1 0 1
0 -55.63 -152.29 -63.892 0 0 1 2 0 1 0 1
phys
0 -47.62 -140.29 56.108 0 0 1 2 0 1 0 1
0 -47.62 -140.29 -63.892 0 0 1 2 0 1 0 1
0 -55.63 -140.29 -63.892 0 0 1 2 0 1 0 1
phys
0 -47.62 -140.29 56.108 0 0 1 2 0 1 0 1
0 -55.63 -140.29 -63.892 0 0 1 2 0 1 0 1
0 -55.63 -140.29 56.108 0 0 1 2 0 1 0 1
phys
0 -55.63 -152.29 -63.892 0 0 1 2 0 1 0 1
0 -55.63 -152.29 56.108 0 0 1 2 0 1 0 1
0 -55.63 -140.29 56.108 0 0 1 2 0 1 0 1
phys
0 -55.63 -152.29 -63.892 0 0 1 2 0 1 0 1
0 -55.63 -140.29 56.108 0 0 1 2 0 1 0 1
0 -55.63 -140.29 -63.892 0 0 1 2 0 1 0 1
phys
0 -47.62 -160.29 56.108 0 0 1 2 0 1 0 1
0 -47.62 -160.29 -63.892 0 0 1 2 0 1 0 1
0 -47.62 -140.29 -63.892 0 0 1 2 0 1 0 1
phys
0 -47.62 -160.29 56.108 0 0 1 2 0 1 0 1
0 -47.62 -140.29 -63.892 0 0 1 2 0 1 0 1
0 -47.62 -140.29 56.108 0 0 1 2 0 1 0 1
phys
0 -47.62 -160.29 -63.892 0 0 1 2 0 1 0 1
0 -55.63 -152.29 -63.892 0 0 1 2 0 1 0 1
0 -55.63 -140.29 -63.892 0 0 1 2 0 1 0 1
phys
0 -47.62 -160.29 -63.892 0 0 1 2 0 1 0 1
0 -55.63 -140.29 -63.892 0 0 1 2 0 1 0 1
0 -47.62 -140.29 -63.892 0 0 1 2 0 1 0 1
phys
0 -55.63 -152.29 56.108 0 0 1 2 0 1 0 1
0 -47.62 -160.29 56.108 0 0 1 2 0 1 0 1
0 -47.62 -140.29 56.108 0 0 1 2 0 1 0 1
phys
0 -55.63 -152.29 56.108 0 0 1 2 0 1 0 1
0 -47.62 -140.29 56.108 0 0 1 2 0 1 0 1
0 -55.63 -140.29 56.108 0 0 1 2 0 1 0 1
phys
0 -55.63 -152.29 -63.892 0 0 1 3 0 1 0 1
0 -191.63 -152.29 -63.892 0 0 1 3 0 1 0 1
0 -191.63 -152.29 56.108 0 0 1 3 0 1 0 1
phys
0 -55.63 -152.29 -63.892 0 0 1 3 0 1 0 1
0 -191.63 -152.29 56.108 0 0 1 3 0 1 0 1
0 -55.63 -152.29 56.108 0 0 1 3 0 1 0 1
phys
0 -47.63 -160.29 56.108 0 0 1 3 0 1 0 1
0 -191.63 -160.29 56.108 0 0 1 3 0 1 0 1
0 -191.63 -160.29 -63.892 0 0 1 3 0 1 0 1
phys
0 -47.63 -160.29 56.108 0 0 1 3 0 1 0 1
0 -191.63 -160.29 -63.892 0 0 1 3 0 1 0 1
0 -47.63 -160.29 -63.892 0 0 1 3 0 1 0 1
phys
0 -191.63 -160.29 -63.892 0 0 1 3 0 1 0 1
0 -191.63 -160.29 56.108 0 0 1 3 0 1 0 1
0 -191.63 -152.29 56.108 0 0 1 3 0 1 0 1
phys
0 -191.63 -160.29 -63.892 0 0 1 3 0 1 0 1
0 -191.63 -152.29 56.108 0 0 1 3 0 1 0 1
0 -191.63 -152.29 -63.892 0 0 1 3 0 1 0 1
phys
0 -47.63 -160.29 -63.892 0 0 1 3 0 1 0 1
0 -191.63 -160.29 -63.892 0 0 1 3 0 1 0 1
0 -191.63 -152.29 -63.892 0 0 1 3 0 1 0 1
phys
0 -47.63 -160.29 -63.892 0 0 1 3 0 1 0 1
0 -191.63 -152.29 -63.892 0 0 1 3 0 1 0 1
0 -55.63 -152.29 -63.892 0 0 1 3 0 1 0 1
phys
0 -191.63 -160.29 56.108 0 0 1 3 0 1 0 1
0 -47.63 -160.29 56.108 0 0 1 3 0 1 0 1
0 -55.63 -152.29 56.108 0 0 1 3 0 1 0 1
phys
0 -191.63 -160.29 56.108 0 0 1 3 0 1 0 1
0 -55.63 -152.29 56.108 0 0 1 3 0 1 0 1
0 -191.63 -152.29 56.108 0 0 1 3 0 1 0 1
phys
0 -47.63 -160.29 56.108 0 0 1 3 0 1 0 1
0 -47.63 -160.29 -63.892 0 0 1 3 0 1 0 1
0 -55.63 -152.29 -63.892 0 0 1 3 0 1 0 1
phys
0 -47.63 -160.29 56.108 0 0 1 3 0 1 0 1
0 -55.63 -152.29 -63.892 0 0 1 3 0 1 0 1
0 -55.63 -152.29 56.108 0 0 1 3 0 1 0 1
phys
0 48.37 -160.29 56.108 0 0 1 4 0 1 0 1
0 48.37 -140.29 56.108 0 0 1 4 0 1 0 1
0 48.37 -140.29 -63.892 0 0 1 4 0 1 0 1
phys
0 48.37 -160.29 56.108 0 0 1 4 0 1 0 1
0 48.37 -140.29 -63.892 0 0 1 4 0 1 0 1
0 48.37 -160.29 -63.892 0 0 1 4 0 1 0 1
phys
0 56.37 -152.29 -63.892 0 0 1 4 0 1 0 1
0 56.37 -140.29 -63.892 0 0 1 4 0 1 0 1
0 56.37 -140.29 56.108 0 0 1 4 0 1 0 1
phys
0 56.37 -152.29 -63.892 0 0 1 4 0 1 0 1
0 56.37 -140.29 56.108 0 0 1 4 0 1 0 1
0 56.37 -152.29 56.108 0 0 1 4 0 1 0 1
phys
0 48.37 -160.29 -63.892 0 0 1 4 0 1 0 1
0 48.37 -140.29 -63.892 0 0 1 4 0 1 0 1
0 56.37 -140.29 -63.892 0 0 1 4 0 1 0 1
phys
0 48.37 -160.29 -63.892 0 0 1 4 0 1 0 1
0 56.37 -140.29 -63.892 0 0 1 4 0 1 0 1
0 56.37 -152.29 -63.892 0 0 1 4 0 1 0 1
phys
0 56.37 -152.29 56.108 0 0 1 4 0 1 0 1
0 56.37 -140.29 56.108 0 0 1 4 0 1 0 1
0 48.37 -140.29 56.108 0 0 1 4 0 1 0 1
phys
0 56.37 -152.29 56.108 0 0 1 4 0 1 0 1
0 48.37 -140.29 56.108 0 0 1 4 0 1 0 1
0 48.37 -160.29 56.108 0 0 1 4 0 1 0 1
phys
0 48.37 -160.29 56.108 0 0 1 4 0 1 0 1
0 48.37 -160.29 -63.892 0 0 1 4 0 1 0 1
0 56.37 -152.29 -63.892 0 0 1 4 0 1 0 1
phys
0 48.37 -160.29 56.108 0 0 1 4 0 1 0 1
0 56.37 -152.29 -63.892 0 0 1 4 0 1 0 1
0 56.37 -152.29 56.108 0 0 1 4 0 1 0 1
phys
0 56.37 -140.29 56.108 0 0 1 4 0 1 0 1
0 56.37 -140.29 -63.892 0 0 1 4 0 1 0 1
0 48.37 -140.29 -63.892 0 0 1 4 0 1 0 1
phys
0 56.37 -140.29 56.108 0 0 1 4 0 1 0 1
0 48.37 -140.29 -63.892 0 0 1 4 0 1 0 1
0 48.37 -140.29 56.108 0 0 1 4 0 1 0 1
phys
0 48.37 63.71 64.109 0 0 1 5 0 1 0 1
0 48.37 63.71 -63.892 0 0 1 5 0 1 0 1
0 -47.62 63.71 -63.892 0 0 1 5 0 1 0 1
phys
0 48.37 63.71 64.109 0 0 1 5 0 1 0 1
0 -47.62 63.71 -63.892 0 0 1 5 0 1 0 1
0 -47.62 63.71 64.109 0 0 1 5 0 1 0 1
phys
0 -47.62 63.71 64.109 0 0 1 5 0 1 0 1
0 -47.62 63.71 -63.892 0 0 1 5 0 1 0 1
0 -47.62 -64.29 -63.892 0 0 1 5 0 1 0 1
phys
0 48.37 -64.29 -63.892 0 0 1 5 0 1 0 1
0 48.37 63.71 -63.892 0 0 1 5 0 1 0 1
0 48.37 63.71 64.109 0 0 1 5 0 1 0 1
phys
0 -47.62 -64.29 -63.892 0 0 1 5 0 1 0 1
0 -47.62 63.71 -63.892 0 0 1 5 0 1 0 1
0 48.37 63.71 -63.892 0 0 1 5 0 1 0 1
phys
0 -47.62 -64.29 -63.892 0 0 1 5 0 1 0 1
0 48.37 63.71 -63.892 0 0 1 5 0 1 0 1
0 48.37 -64.29 -63.892 0 0 1 5 0 1 0 1
phys
0 48.37 -64.29 -63.892 0 0 1 5 0 1 0 1
0 48.37 63.71 64.109 0 0 1 5 0 1 0 1
0 -47.62 63.71 64.109 0 0 1 5 0 1 0 1
phys
0 48.37 -64.29 -63.892 0 0 1 5 0 1 0 1
0 -47.62 63.71 64.109 0 0 1 5 0 1 0 1
0 -47.62 -64.29 -63.892 0 0 1 5 0 1 0 1
phys
0 -119.63 -96.29 0.108 0 0 1 6 0 1 0 1
0 -119.63 -96.29 -63.892 0 0 1 6 0 1 0 1
0 -127.63 -96.29 -63.892 0 0 1 6 0 1 0 1
phys
0 -119.63 -96.29 0.108 0 0 1 6 0 1 0 1
0 -127.63 -96.29 -63.892 0 0 1 6 0 1 0 1
0 -127.63 -96.29 0.108 0 0 1 6 0 1 0 1
phys
0 -119.63 -152.29 -63.892 0 0 1 6 0 1 0 1
0 -119.63 -152.29 0.108 0 0 1 6 0 1 0 1
0 -127.63 -152.29 0.108 0 0 1 6 0 1 0 1
phys
0 -119.63 -152.29 -63.892 0 0 1 6 0 1 0 1
0 -127.63 -152.29 0.108 0 0 1 6 0 1 0 1
0 -127.63 -152.29 -63.892 0 0 1 6 0 1 0 1
phys
0 -127.63 -152.29 -63.892 0 0 1 6 0 1 0 1
0 -127.63 -152.29 0.108 0 0 1 6 0 1 0 1
0 -127.63 -96.29 0.108 0 0 1 6 0 1 0 1
phys
0 -127.63 -152.29 -63.892 0 0 1 6 0 1 0 1
0 -127.63 -96.29 0.108 0 0 1 6 0 1 0 1
0 -127.63 -96.29 -63.892 0 0 1 6 0 1 0 1
phys
0 -119.63 -152.29 0.108 0 0 1 6 0 1 0 1
0 -119.63 -152.29 -63.892 0 0 1 6 0 1 0 1
0 -119.63 -96.29 -63.892 0 0 1 6 0 1 0 1
phys
0 -119.63 -152.29 0.108 0 0 1 6 0 1 0 1
0 -119.63 -96.29 -63.892 0 0 1 6 0 1 0 1
0 -119.63 -96.29 0.108 0 0 1 6 0 1 0 1
phys
0 -119.63 -152.29 -63.892 0 0 1 6 0 1 0 1
0 -127.63 -152.29 -63.892 0 0 1 6 0 1 0 1
0 -127.63 -96.29 -63.892 0 0 1 6 0 1 0 1
phys
0 -119.63 -152.29 -63.892 0 0 1 6 0 1 0 1
0 -127.63 -96.29 -63.892 0 0 1 6 0 1 0 1
0 -119.63 -96.29 -63.892 0 0 1 6 0 1 0 1
phys
0 -127.63 -152.29 0.108 0 0 1 6 0 1 0 1
0 -119.63 -152.29 0.108 0 0 1 6 0 1 0 1
0 -119.63 -96.29 0.108 0 0 1 6 0 1 0 1
phys
0 -127.63 -152.29 0.108 0 0 1 6 0 1 0 1
0 -119.63 -96.29 0.108 0 0 1 6 0 1 0 1
0 -127.63 -96.29 0.108 0 0 1 6 0 1 0 1
phys
0 -143.63 -472.29 44.108 0 0 1 7 0 1 0 1
0 -143.63 -472.29 -63.892 0 0 1 7 0 1 0 1
0 -191.63 -472.29 -63.892 0 0 1 7 0 1 0 1
phys
0 -143.63 -472.29 44.108 0 0 1 7 0 1 0 1
0 -191.63 -472.29 -63.892 0 0 1 7 0 1 0 1
0 -191.63 -472.29 44.108 0 0 1 7 0 1 0 1
phys
0 -143.63 -480.29 -63.892 0 0 1 7 0 1 0 1
0 -143.63 -480.29 44.108 0 0 1 7 0 1 0 1
0 -191.63 -480.29 44.108 0 0 1 7 0 1 0 1
phys
0 -143.63 -480.29 -63.892 0 0 1 7 0 1 0 1
0 -191.63 -480.29 44.108 0 0 1 7 0 1 0 1
0 -191.63 -480.29 -63.892 0 0 1 7 0 1 0 1
phys
0 -191.63 -480.29 -63.892 0 0 1 7 0 1 0 1
0 -191.63 -480.29 44.108 0 0 1 7 0 1 0 1
0 -191.63 -472.29 44.108 0 0 1 7 0 1 0 1
phys
0 -191.63 -480.29 -63.892 0 0 1 7 0 1 0 1
0 -191.63 -472.29 44.108 0 0 1 7 0 1 0 1
0 -191.63 -472.29 -63.892 0 0 1 7 0 1 0 1
phys
0 -143.63 -480.29 44.108 0 0 1 7 0 1 0 1
0 -143.63 -480.29 -63.892 0 0 1 7 0 1 0 1
0 -143.63 -472.29 -63.892 0 0 1 7 0 1 0 1
phys
0 -143.63 -480.29 44.108 0 0 1 7 0 1 0 1
0 -143.63 -472.29 -63.892 0 0 1 7 0 1 0 1
0 -143.63 -472.29 44.108 0 0 1 7 0 1 0 1
phys
0 -143.63 -480.29 -63.892 0 0 1 7 0 1 0 1
0 -191.63 -480.29 -63.892 0 0 1 7 0 1 0 1
0 -191.63 -472.29 -63.892 0 0 1 7 0 1 0 1
phys
0 -143.63 -480.29 -63.892 0 0 1 7 0 1 0 1
0 -191.63 -472.29 -63.892 0 0 1 7 0 1 0 1
0 -143.63 -472.29 -63.892 0 0 1 7 0 1 0 1
phys
0 -191.63 -480.29 44.108 0 0 1 7 0 1 0 1
0 -143.63 -480.29 44.108 0 0 1 7 0 1 0 1
0 -143.63 -472.29 44.108 0 0 1 7 0 1 0 1
phys
0 -191.63 -480.29 44.108 0 0 1 7 0 1 0 1
0 -143.63 -472.29 44.108 0 0 1 7 0 1 0 1
0 -191.63 -472.29 44.108 0 0 1 7 0 1 0 1
phys
0 -15.63 -480.29 -63.892 0 0 1 8 0 1 0 1
0 -15.63 -480.29 -23.892 0 0 1 8 0 1 0 1
0 -143.63 -480.29 -23.892 0 0 1 8 0 1 0 1
phys
0 -15.63 -480.29 -63.892 0 0 1 8 0 1 0 1
0 -143.63 -480.29 -23.892 0 0 1 8 0 1 0 1
0 -143.63 -480.29 -63.892 0 0 1 8 0 1 0 1
phys
0 -143.63 -480.29 -63.892 0 0 1 8 0 1 0 1
0 -143.63 -480.29 -23.892 0 0 1 8 0 1 0 1
0 -143.63 -472.29 -23.892 0 0 1 8 0 1 0 1
phys
0 -143.63 -480.29 -63.892 0 0 1 8 0 1 0 1
0 -143.63 -472.29 -23.892 0 0 1 8 0 1 0 1
0 -143.63 -472.29 -63.892 0 0 1 8 0 1 0 1
phys
0 -15.63 -480.29 -23.892 0 0 1 8 0 1 0 1
0 -15.63 -480.29 -63.892 0 0 1 8 0 1 0 1
0 -15.63 -472.29 -63.892 0 0 1 8 0 1 0 1
phys
0 -15.63 -480.29 -23.892 0 0 1 8 0 1 0 1
0 -15.63 -472.29 -63.892 0 0 1 8 0 1 0 1
0 -15.63 -472.29 -23.892 0 0 1 8 0 1 0 1
phys
0 -15.63 -480.29 -63.892 0 0 1 8 0 1 0 1
0 -143.63 -480.29 -63.892 0 0 1 8 0 1 0 1
0 -143.63 -472.29 -63.892 0 0 1 8 0 1 0 1
phys
0 -15.63 -480.29 -63.892 0 0 1 8 0 1 0 1
0 -143.63 -472.29 -63.892 0 0 1 8 0 1 0 1
0 -15.63 -472.29 -63.892 0 0 1 8 0 1 0 1
phys
0 -143.63 -480.29 -23.892 0 0 1 8 0 1 0 1
0 -15.63 -480.29 -23.892 0 0 1 8 0 1 0 1
0 -15.63 -472.29 -23.892 0 0 1 8 0 1 0 1
phys
0 -143.63 -480.29 -23.892 0 0 1 8 0 1 0 1
0 -15.63 -472.29 -23.892 0 0 1 8 0 1 0 1
0 -143.63 -472.29 -23.892 0 0 1 8 0 1 0 1
phys
0 -15.63 -472.29 -23.892 0 0 1 8 0 1 0 1
0 -15.63 -472.29 -63.892 0 0 1 8 0 1 0 1
0 -143.63 -472.29 -63.892 0 0 1 8 0 1 0 1
phys
0 -15.63 -472.29 -23.892 0 0 1 8 0 1 0 1
0 -143.63 -472.29 -63.892 0 0 1 8 0 1 0 1
0 -143.63 -472.29 -23.892 0 0 1 8 0 1 0 1
phys
0 76.37 -480.29 44.108 0 0 1 9 0 1 0 1
0 112.37 -480.29 44.108 0 0 1 9 0 1 0 1
0 112.37 -472.29 44.108 0 0 1 9 0 1 0 1
phys
0 76.37 -480.29 44.108 0 0 1 9 0 1 0 1
0 112.37 -472.29 44.108 0 0 1 9 0 1 0 1
0 76.37 -472.29 44.108 0 0 1 9 0 1 0 1
phys
0 76.37 -472.29 -63.892 0 0 1 9 0 1 0 1
0 76.37 -472.29 44.108 0 0 1 9 0 1 0 1
0 112.37 -472.29 44.108 0 0 1 9 0 1 0 1
phys
0 76.37 -472.29 -63.892 0 0 1 9 0 1 0 1
0 112.37 -472.29 44.108 0 0 1 9 0 1 0 1
0 112.37 -472.29 -63.892 0 0 1 9 0 1 0 1
phys
0 112.37 -480.29 -63.892 0 0 1 9 0 1 0 1
0 112.37 -480.29 44.108 0 0 1 9 0 1 0 1
0 76.37 -480.29 44.108 0 0 1 9 0 1 0 1
phys
0 112.37 -480.29 -63.892 0 0 1 9 0 1 0 1
0 76.37 -480.29 44.108 0 0 1 9 0 1 0 1
0 76.37 -480.29 -63.892 0 0 1 9 0 1 0 1
phys
0 76.37 -480.29 -63.892 0 0 1 9 0 1 0 1
0 76.37 -480.29 44.108 0 0 1 9 0 1 0 1
0 76.37 -472.29 44.108 0 0 1 9 0 1 0 1
phys
0 76.37 -480.29 -63.892 0 0 1 9 0 1 0 1
0 76.37 -472.29 44.108 0 0 1 9 0 1 0 1
0 76.37 -472.29 -63.892 0 0 1 9 0 1 0 1
phys
0 112.37 -472.29 -63.892 0 0 1 9 0 1 0 1
0 112.37 -472.29 44.108 0 0 1 9 0 1 0 1
0 112.37 -480.29 44.108 0 0 1 9 0 1 0 1
phys
0 112.37 -472.29 -63.892 0 0 1 9 0 1 0 1
0 112.37 -480.29 44.108 0 0 1 9 0 1 0 1
0 112.37 -480.29 -63.892 0 0 1 9 0 1 0 1
phys
0 112.37 -480.29 -63.892 0 0 1 9 0 1 0 1
0 76.37 -480.29 -63.892 0 0 1 9 0 1 0 1
0 76.37 -472.29 -63.892 0 0 1 9 0 1 0 1
phys
0 112.37 -480.29 -63.892 0 0 1 9 0 1 0 1
0 76.37 -472.29 -63.892 0 0 1 9 0 1 0 1
0 112.37 -472.29 -63.892 0 0 1 9 0 1 0 1
end
