version 1
nodes
0 "root" -1
end
skeleton
time 0
0 0 0 0 0 0 0
end
triangles
wood_woodwall_016
0 20.37 -472.29 44.108 0 1 0 4.512188 -2.277943 1 0 1
0 20.37 -472.29 -63.892 0 1 0 4.512188 -2.981068 1 0 1
0 -15.63 -472.29 -63.892 0 1 0 4.371563 -2.981068 1 0 1
wood_woodwall_016
0 20.37 -472.29 44.108 0 1 0 4.512188 -2.277943 1 0 1
0 -15.63 -472.29 -63.892 0 1 0 4.371563 -2.981068 1 0 1
0 -15.63 -472.29 44.108 0 1 0 4.371563 -2.277943 1 0 1
realworldtextures2_wood_wood_19
0 20.37 -480.29 -63.892 0 -1 0 10.565391 -3.796031 1 0 1
0 20.37 -480.29 44.108 0 -1 0 10.565391 -2.952281 1 0 1
0 -15.63 -480.29 44.108 0 -1 0 10.284141 -2.952281 1 0 1
realworldtextures2_wood_wood_19
0 20.37 -480.29 -63.892 0 -1 0 10.565391 -3.796031 1 0 1
0 -15.63 -480.29 44.108 0 -1 0 10.284141 -2.952281 1 0 1
0 -15.63 -480.29 -63.892 0 -1 0 10.284141 -3.796031 1 0 1
rp_downtown_plaster_wall13
0 -55.63 -152.29 -63.892 -1 0 0 28.363594 -3.749156 1 0 1
0 -55.63 -152.29 56.108 -1 0 0 28.363594 -2.811656 1 0 1
0 -55.63 -140.29 56.108 -1 0 0 28.269844 -2.811656 1 0 1
rp_downtown_plaster_wall13
0 -55.63 -152.29 -63.892 -1 0 0 28.363594 -3.749156 1 0 1
0 -55.63 -140.29 56.108 -1 0 0 28.269844 -2.811656 1 0 1
0 -55.63 -140.29 -63.892 -1 0 0 28.269844 -3.749156 1 0 1
wood_woodwall_016
0 -47.62 -160.29 56.108 1 0 0 15.463047 -2.199818 1 0 1
0 -47.62 -160.29 -63.892 1 0 0 15.463047 -2.981068 1 0 1
0 -47.62 -140.29 -63.892 1 0 0 15.384922 -2.981068 1 0 1
wood_woodwall_016
0 -47.62 -160.29 56.108 1 0 0 15.463047 -2.199818 1 0 1
0 -47.62 -140.29 -63.892 1 0 0 15.384922 -2.981068 1 0 1
0 -47.62 -140.29 56.108 1 0 0 15.384922 -2.199818 1 0 1
rp_downtown_plaster_wall13
0 -55.63 -152.29 -63.892 0 1 0 10.930625 -3.749156 1 0 1
0 -191.63 -152.29 -63.892 0 1 0 9.868125 -3.749156 1 0 1
0 -191.63 -152.29 56.108 0 1 0 9.868125 -2.811656 1 0 1
rp_downtown_plaster_wall13
0 -55.63 -152.29 -63.892 0 1 0 10.930625 -3.749156 1 0 1
0 -191.63 -152.29 56.108 0 1 0 9.868125 -2.811656 1 0 1
0 -55.63 -152.29 56.108 0 1 0 10.930625 -2.811656 1 0 1
wood_woodwall_016
0 -47.63 -160.29 56.108 0 -1 0 4.502422 -2.199818 1 0 1
0 -191.63 -160.29 56.108 0 -1 0 3.939922 -2.199818 1 0 1
0 -191.63 -160.29 -63.892 0 -1 0 3.939922 -2.981068 1 0 1
wood_woodwall_016
0 -47.63 -160.29 56.108 0 -1 0 4.502422 -2.199818 1 0 1
0 -191.63 -160.29 -63.892 0 -1 0 3.939922 -2.981068 1 0 1
0 -47.63 -160.29 -63.892 0 -1 0 4.502422 -2.981068 1 0 1
wood_woodwall_016
0 48.37 -160.29 56.108 -1 0 0 15.463047 -2.199818 1 0 1
0 48.37 -140.29 56.108 -1 0 0 15.384922 -2.199818 1 0 1
0 48.37 -140.29 -63.892 -1 0 0 15.384922 -2.981068 1 0 1
wood_woodwall_016
0 48.37 -160.29 56.108 -1 0 0 15.463047 -2.199818 1 0 1
0 48.37 -140.29 -63.892 -1 0 0 15.384922 -2.981068 1 0 1
0 48.37 -160.29 -63.892 -1 0 0 15.463047 -2.981068 1 0 1
wood_woodwall_016
0 56.37 -152.29 -63.892 1 0 0 15.431797 -2.981068 1 0 1
0 56.37 -140.29 -63.892 1 0 0 15.384922 -2.981068 1 0 1
0 56.37 -140.29 56.108 1 0 0 15.384922 -2.199818 1 0 1
wood_woodwall_016
0 56.37 -152.29 -63.892 1 0 0 15.431797 -2.981068 1 0 1
0 56.37 -140.29 56.108 1 0 0 15.384922 -2.199818 1 0 1
0 56.37 -152.29 56.108 1 0 0 15.431797 -2.199818 1 0 1
wood_milwall017
0 48.37 -64.29 -63.892 1 0 0 -28.533516 -3.819469 1 0 1
0 48.37 63.71 -63.892 1 0 0 -27.533516 -3.819469 1 0 1
0 48.37 63.71 64.109 1 0 0 -27.533516 -2.819461 1 0 1
brush_vegas_wall_int_wall_int_ens_tile_03
0 -119.63 -96.29 0.108 0 1 0 19.86125 -7.498313 1 0 1
0 -119.63 -96.29 -63.892 0 1 0 19.86125 -8.498312 1 0 1
0 -127.63 -96.29 -63.892 0 1 0 19.73625 -8.498312 1 0 1
brush_vegas_wall_int_wall_int_ens_tile_03
0 -119.63 -96.29 0.108 0 1 0 19.86125 -7.498313 1 0 1
0 -127.63 -96.29 -63.892 0 1 0 19.73625 -8.498312 1 0 1
0 -127.63 -96.29 0.108 0 1 0 19.73625 -7.498312 1 0 1
brush_vegas_wall_int_wall_int_ens_tile_03
0 -127.63 -152.29 -63.892 -1 0 0 57.727188 -8.498312 1 0 1
0 -127.63 -152.29 0.108 -1 0 0 57.727188 -7.498312 1 0 1
0 -127.63 -96.29 0.108 -1 0 0 56.852187 -7.498313 1 0 1
brush_vegas_wall_int_wall_int_ens_tile_03
0 -127.63 -152.29 -63.892 -1 0 0 57.727188 -8.498312 1 0 1
0 -127.63 -96.29 0.108 -1 0 0 56.852187 -7.498313 1 0 1
0 -127.63 -96.29 -63.892 -1 0 0 56.852187 -8.498312 1 0 1
brush_vegas_wall_int_wall_int_ens_tile_03
0 -119.63 -152.29 0.108 1 0 0 57.727188 -7.498313 1 0 1
0 -119.63 -152.29 -63.892 1 0 0 57.727188 -8.498312 1 0 1
0 -119.63 -96.29 -63.892 1 0 0 56.852188 -8.498312 1 0 1
brush_vegas_wall_int_wall_int_ens_tile_03
0 -119.63 -152.29 0.108 1 0 0 57.727188 -7.498313 1 0 1
0 -119.63 -96.29 -63.892 1 0 0 56.852188 -8.498312 1 0 1
0 -119.63 -96.29 0.108 1 0 0 56.852188 -7.498312 1 0 1
brush_vegas_wall_int_wall_int_ens_tile_03
0 -127.63 -152.29 0.108 0 0 1 57.727188 21.11125 1 0 1
0 -119.63 -152.29 0.108 0 0 1 57.727188 21.23625 1 0 1
0 -119.63 -96.29 0.108 0 0 1 56.852188 21.23625 1 0 1
brush_vegas_wall_int_wall_int_ens_tile_03
0 -127.63 -152.29 0.108 0 0 1 57.727188 21.11125 1 0 1
0 -119.63 -96.29 0.108 0 0 1 56.852188 21.23625 1 0 1
0 -127.63 -96.29 0.108 0 0 1 56.852188 21.11125 1 0 1
wood_woodwall_016
0 -143.63 -472.29 44.108 0 1 0 3.871563 -2.277943 1 0 1
0 -143.63 -472.29 -63.892 0 1 0 3.871563 -2.981068 1 0 1
0 -191.63 -472.29 -63.892 0 1 0 3.684063 -2.981068 1 0 1
wood_woodwall_016
0 -143.63 -472.29 44.108 0 1 0 3.871563 -2.277943 1 0 1
0 -191.63 -472.29 -63.892 0 1 0 3.684063 -2.981068 1 0 1
0 -191.63 -472.29 44.108 0 1 0 3.684063 -2.277943 1 0 1
realworldtextures2_wood_wood_19
0 -143.63 -480.29 -63.892 0 -1 0 9.284141 -3.796031 1 0 1
0 -143.63 -480.29 44.108 0 -1 0 9.284141 -2.952281 1 0 1
0 -191.63 -480.29 44.108 0 -1 0 8.909141 -2.952281 1 0 1
realworldtextures2_wood_wood_19
0 -143.63 -480.29 -63.892 0 -1 0 9.284141 -3.796031 1 0 1
0 -191.63 -480.29 44.108 0 -1 0 8.909141 -2.952281 1 0 1
0 -191.63 -480.29 -63.892 0 -1 0 8.909141 -3.796031 1 0 1
realworldtextures2_wood_wood_19
0 -15.63 -480.29 -63.892 0 -1 0 10.284141 -3.796031 1 0 1
0 -15.63 -480.29 -23.892 0 -1 0 10.284141 -3.483531 1 0 1
0 -143.63 -480.29 -23.892 0 -1 0 9.284141 -3.483531 1 0 1
realworldtextures2_wood_wood_19
0 -15.63 -480.29 -63.892 0 -1 0 10.284141 -3.796031 1 0 1
0 -143.63 -480.29 -23.892 0 -1 0 9.284141 -3.483531 1 0 1
0 -143.63 -480.29 -63.892 0 -1 0 9.284141 -3.796031 1 0 1
wood_woodwall_016
0 -15.63 -472.29 -23.892 0 1 0 4.371563 -2.720651 1 0 1
0 -15.63 -472.29 -63.892 0 1 0 4.371563 -2.981068 1 0 1
0 -143.63 -472.29 -63.892 0 1 0 3.871563 -2.981068 1 0 1
wood_woodwall_016
0 -15.63 -472.29 -23.892 0 1 0 4.371563 -2.720651 1 0 1
0 -143.63 -472.29 -63.892 0 1 0 3.871563 -2.981068 1 0 1
0 -143.63 -472.29 -23.892 0 1 0 3.871563 -2.720651 1 0 1
wood_woodwall_016
0 76.37 -472.29 -63.892 0 1 0 4.730938 -2.981068 1 0 1
0 76.37 -472.29 44.108 0 1 0 4.730938 -2.277943 1 0 1
0 112.37 -472.29 44.108 0 1 0 4.871563 -2.277943 1 0 1
wood_woodwall_016
0 76.37 -472.29 -63.892 0 1 0 4.730938 -2.981068 1 0 1
0 112.37 -472.29 44.108 0 1 0 4.871563 -2.277943 1 0 1
0 112.37 -472.29 -63.892 0 1 0 4.871563 -2.981068 1 0 1
realworldtextures2_wood_wood_19
0 112.37 -480.29 -63.892 0 -1 0 11.284141 -3.796031 1 0 1
0 112.37 -480.29 44.108 0 -1 0 11.284141 -2.952281 1 0 1
0 76.37 -480.29 44.108 0 -1 0 11.002891 -2.952281 1 0 1
realworldtextures2_wood_wood_19
0 112.37 -480.29 -63.892 0 -1 0 11.284141 -3.796031 1 0 1
0 76.37 -480.29 44.108 0 -1 0 11.002891 -2.952281 1 0 1
0 76.37 -480.29 -63.892 0 -1 0 11.002891 -3.796031 1 0 1
end
