version 1
nodes
0 "root" -1
end
skeleton
time 0
0 0 0 0 0 0 0
end
triangles
phys
0 314 72 0 0 0 1 1 0 1 0 1
0 300 72 0 0 0 1 1 0 1 0 1
0 300 72 116 0 0 1 1 0 1 0 1
phys
0 314 72 0 0 0 1 1 0 1 0 1
0 300 72 116 0 0 1 1 0 1 0 1
0 314 72 116 0 0 1 1 0 1 0 1
phys
0 314 52 116 0 0 1 1 0 1 0 1
0 300 52 116 0 0 1 1 0 1 0 1
0 300 52 0 0 0 1 1 0 1 0 1
phys
0 314 52 116 0 0 1 1 0 1 0 1
0 300 52 0 0 0 1 1 0 1 0 1
0 314 52 0 0 0 1 1 0 1 0 1
phys
0 297 55 116 0 0 1 1 0 1 0 1
0 297 69 116 0 0 1 1 0 1 0 1
0 297 69 0 0 0 1 1 0 1 0 1
phys
0 297 55 116 0 0 1 1 0 1 0 1
0 297 69 0 0 0 1 1 0 1 0 1
0 297 55 0 0 0 1 1 0 1 0 1
phys
0 317 55 0 0 0 1 1 0 1 0 1
0 317 69 0 0 0 1 1 0 1 0 1
0 317 69 116 0 0 1 1 0 1 0 1
phys
0 317 55 0 0 0 1 1 0 1 0 1
0 317 69 116 0 0 1 1 0 1 0 1
0 317 55 116 0 0 1 1 0 1 0 1
phys
0 314 52 0 0 0 1 1 0 1 0 1
0 300 52 0 0 0 1 1 0 1 0 1
0 297 55 0 0 0 1 1 0 1 0 1
phys
0 314 52 0 0 0 1 1 0 1 0 1
0 297 55 0 0 0 1 1 0 1 0 1
0 297 69 0 0 0 1 1 0 1 0 1
phys
0 314 52 0 0 0 1 1 0 1 0 1
0 297 69 0 0 0 1 1 0 1 0 1
0 300 72 0 0 0 1 1 0 1 0 1
phys
0 314 52 0 0 0 1 1 0 1 0 1
0 300 72 0 0 0 1 1 0 1 0 1
0 314 72 0 0 0 1 1 0 1 0 1
phys
0 314 52 0 0 0 1 1 0 1 0 1
0 314 72 0 0 0 1 1 0 1 0 1
0 317 69 0 0 0 1 1 0 1 0 1
phys
0 314 52 0 0 0 1 1 0 1 0 1
0 317 69 0 0 0 1 1 0 1 0 1
0 317 55 0 0 0 1 1 0 1 0 1
phys
0 300 52 116 0 0 1 1 0 1 0 1
0 314 52 116 0 0 1 1 0 1 0 1
0 317 55 116 0 0 1 1 0 1 0 1
phys
0 300 52 116 0 0 1 1 0 1 0 1
0 317 55 116 0 0 1 1 0 1 0 1
0 317 69 116 0 0 1 1 0 1 0 1
phys
0 300 52 116 0 0 1 1 0 1 0 1
0 317 69 116 0 0 1 1 0 1 0 1
0 314 72 116 0 0 1 1 0 1 0 1
phys
0 300 52 116 0 0 1 1 0 1 0 1
0 314 72 116 0 0 1 1 0 1 0 1
0 300 72 116 0 0 1 1 0 1 0 1
phys
0 300 52 116 0 0 1 1 0 1 0 1
0 300 72 116 0 0 1 1 0 1 0 1
0 297 69 116 0 0 1 1 0 1 0 1
phys
0 300 52 116 0 0 1 1 0 1 0 1
0 297 69 116 0 0 1 1 0 1 0 1
0 297 55 116 0 0 1 1 0 1 0 1
phys
0 317 69 116 0 0 1 1 0 1 0 1
0 317 69 0 0 0 1 1 0 1 0 1
0 314 72 0 0 0 1 1 0 1 0 1
phys
0 317 69 116 0 0 1 1 0 1 0 1
0 314 72 0 0 0 1 1 0 1 0 1
0 314 72 116 0 0 1 1 0 1 0 1
phys
0 297 69 0 0 0 1 1 0 1 0 1
0 297 69 116 0 0 1 1 0 1 0 1
0 300 72 116 0 0 1 1 0 1 0 1
phys
0 297 69 0 0 0 1 1 0 1 0 1
0 300 72 116 0 0 1 1 0 1 0 1
0 300 72 0 0 0 1 1 0 1 0 1
phys
0 314 52 116 0 0 1 1 0 1 0 1
0 314 52 0 0 0 1 1 0 1 0 1
0 317 55 0 0 0 1 1 0 1 0 1
phys
0 314 52 116 0 0 1 1 0 1 0 1
0 317 55 0 0 0 1 1 0 1 0 1
0 317 55 116 0 0 1 1 0 1 0 1
phys
0 300 52 0 0 0 1 1 0 1 0 1
0 300 52 116 0 0 1 1 0 1 0 1
0 297 55 116 0 0 1 1 0 1 0 1
phys
0 300 52 0 0 0 1 1 0 1 0 1
0 297 55 116 0 0 1 1 0 1 0 1
0 297 55 0 0 0 1 1 0 1 0 1
phys
0 50 -83 148 0 0 1 2 0 1 0 1
0 50 -83 160 0 0 1 2 0 1 0 1
0 -328 -83 160 0 0 1 2 0 1 0 1
phys
0 50 -83 148 0 0 1 2 0 1 0 1
0 -328 -83 160 0 0 1 2 0 1 0 1
0 -328 -83 148 0 0 1 2 0 1 0 1
phys
0 -328 -83 148 0 0 1 2 0 1 0 1
0 -328 -83 160 0 0 1 2 0 1 0 1
0 -328 -69 160 0 0 1 2 0 1 0 1
phys
0 -328 -83 148 0 0 1 2 0 1 0 1
0 -328 -69 160 0 0 1 2 0 1 0 1
0 -328 -67 158 0 0 1 2 0 1 0 1
phys
0 -328 -83 148 0 0 1 2 0 1 0 1
0 -328 -67 158 0 0 1 2 0 1 0 1
0 -328 -67 148 0 0 1 2 0 1 0 1
phys
0 50 -83 160 0 0 1 2 0 1 0 1
0 50 -83 148 0 0 1 2 0 1 0 1
0 50 -67 148 0 0 1 2 0 1 0 1
phys
0 50 -83 160 0 0 1 2 0 1 0 1
0 50 -67 148 0 0 1 2 0 1 0 1
0 50 -67 158 0 0 1 2 0 1 0 1
phys
0 50 -83 160 0 0 1 2 0 1 0 1
0 50 -67 158 0 0 1 2 0 1 0 1
0 50 -69 160 0 0 1 2 0 1 0 1
phys
0 50 -83 148 0 0 1 2 0 1 0 1
0 -328 -83 148 0 0 1 2 0 1 0 1
0 -328 -67 148 0 0 1 2 0 1 0 1
phys
0 50 -83 148 0 0 1 2 0 1 0 1
0 -328 -67 148 0 0 1 2 0 1 0 1
0 50 -67 148 0 0 1 2 0 1 0 1
phys
0 -328 -83 160 0 0 1 2 0 1 0 1
0 50 -83 160 0 0 1 2 0 1 0 1
0 50 -69 160 0 0 1 2 0 1 0 1
phys
0 -328 -83 160 0 0 1 2 0 1 0 1
0 50 -69 160 0 0 1 2 0 1 0 1
0 -328 -69 160 0 0 1 2 0 1 0 1
phys
0 50 -69 160 0 0 1 2 0 1 0 1
0 50 -67 158 0 0 1 2 0 1 0 1
0 -328 -67 158 0 0 1 2 0 1 0 1
phys
0 50 -69 160 0 0 1 2 0 1 0 1
0 -328 -67 158 0 0 1 2 0 1 0 1
0 -328 -69 160 0 0 1 2 0 1 0 1
phys
0 50 -67 158 0 0 1 2 0 1 0 1
0 50 -67 148 0 0 1 2 0 1 0 1
0 -328 -67 148 0 0 1 2 0 1 0 1
phys
0 50 -67 158 0 0 1 2 0 1 0 1
0 -328 -67 148 0 0 1 2 0 1 0 1
0 -328 -67 158 0 0 1 2 0 1 0 1
phys
0 327 72 136 0 0 1 3 0 1 0 1
0 327 82 136 0 0 1 3 0 1 0 1
0 327 82 148 0 0 1 3 0 1 0 1
phys
0 327 72 136 0 0 1 3 0 1 0 1
0 327 82 148 0 0 1 3 0 1 0 1
0 327 72 148 0 0 1 3 0 1 0 1
phys
0 36 82 136 0 0 1 3 0 1 0 1
0 327 82 136 0 0 1 3 0 1 0 1
0 327 72 136 0 0 1 3 0 1 0 1
phys
0 36 82 136 0 0 1 3 0 1 0 1
0 327 72 136 0 0 1 3 0 1 0 1
0 36 72 136 0 0 1 3 0 1 0 1
phys
0 36 72 148 0 0 1 3 0 1 0 1
0 327 72 148 0 0 1 3 0 1 0 1
0 327 82 148 0 0 1 3 0 1 0 1
phys
0 36 72 148 0 0 1 3 0 1 0 1
0 327 82 148 0 0 1 3 0 1 0 1
0 36 82 148 0 0 1 3 0 1 0 1
phys
0 327 82 148 0 0 1 3 0 1 0 1
0 327 82 136 0 0 1 3 0 1 0 1
0 36 82 136 0 0 1 3 0 1 0 1
phys
0 327 82 148 0 0 1 3 0 1 0 1
0 36 82 136 0 0 1 3 0 1 0 1
0 36 82 148 0 0 1 3 0 1 0 1
phys
0 327 72 136 0 0 1 3 0 1 0 1
0 327 72 148 0 0 1 3 0 1 0 1
0 36 72 148 0 0 1 3 0 1 0 1
phys
0 327 72 136 0 0 1 3 0 1 0 1
0 36 72 148 0 0 1 3 0 1 0 1
0 36 72 136 0 0 1 3 0 1 0 1
phys
0 36 72 148 0 0 1 3 0 1 0 1
0 36 82 148 0 0 1 3 0 1 0 1
0 36 82 136 0 0 1 3 0 1 0 1
phys
0 36 72 148 0 0 1 3 0 1 0 1
0 36 82 136 0 0 1 3 0 1 0 1
0 36 72 136 0 0 1 3 0 1 0 1
phys
0 63 72 0 0 0 1 4 0 1 0 1
0 49 72 0 0 0 1 4 0 1 0 1
0 49 72 116 0 0 1 4 0 1 0 1
phys
0 63 72 0 0 0 1 4 0 1 0 1
0 49 72 116 0 0 1 4 0 1 0 1
0 63 72 116 0 0 1 4 0 1 0 1
phys
0 63 52 116 0 0 1 4 0 1 0 1
0 49 52 116 0 0 1 4 0 1 0 1
0 49 52 0 0 0 1 4 0 1 0 1
phys
0 63 52 116 0 0 1 4 0 1 0 1
0 49 52 0 0 0 1 4 0 1 0 1
0 63 52 0 0 0 1 4 0 1 0 1
phys
0 46 55.01 116 0 0 1 4 0 1 0 1
0 46 69 116 0 0 1 4 0 1 0 1
0 46 69 0 0 0 1 4 0 1 0 1
phys
0 46 55.01 116 0 0 1 4 0 1 0 1
0 46 69 0 0 0 1 4 0 1 0 1
0 46 55.01 0 0 0 1 4 0 1 0 1
phys
0 66 55 0 0 0 1 4 0 1 0 1
0 66 69 0 0 0 1 4 0 1 0 1
0 66 69 116 0 0 1 4 0 1 0 1
phys
0 66 55 0 0 0 1 4 0 1 0 1
0 66 69 116 0 0 1 4 0 1 0 1
0 66 55 116 0 0 1 4 0 1 0 1
phys
0 63 52 0 0 0 1 4 0 1 0 1
0 49 52 0 0 0 1 4 0 1 0 1
0 46 55.01 0 0 0 1 4 0 1 0 1
phys
0 63 52 0 0 0 1 4 0 1 0 1
0 46 55.01 0 0 0 1 4 0 1 0 1
0 46 69 0 0 0 1 4 0 1 0 1
phys
0 63 52 0 0 0 1 4 0 1 0 1
0 46 69 0 0 0 1 4 0 1 0 1
0 49 72 0 0 0 1 4 0 1 0 1
phys
0 63 52 0 0 0 1 4 0 1 0 1
0 49 72 0 0 0 1 4 0 1 0 1
0 63 72 0 0 0 1 4 0 1 0 1
phys
0 63 52 0 0 0 1 4 0 1 0 1
0 63 72 0 0 0 1 4 0 1 0 1
0 66 69 0 0 0 1 4 0 1 0 1
phys
0 63 52 0 0 0 1 4 0 1 0 1
0 66 69 0 0 0 1 4 0 1 0 1
0 66 55 0 0 0 1 4 0 1 0 1
phys
0 49 52 116 0 0 1 4 0 1 0 1
0 63 52 116 0 0 1 4 0 1 0 1
0 66 55 116 0 0 1 4 0 1 0 1
phys
0 49 52 116 0 0 1 4 0 1 0 1
0 66 55 116 0 0 1 4 0 1 0 1
0 66 69 116 0 0 1 4 0 1 0 1
phys
0 49 52 116 0 0 1 4 0 1 0 1
0 66 69 116 0 0 1 4 0 1 0 1
0 63 72 116 0 0 1 4 0 1 0 1
phys
0 49 52 116 0 0 1 4 0 1 0 1
0 63 72 116 0 0 1 4 0 1 0 1
0 49 72 116 0 0 1 4 0 1 0 1
phys
0 49 52 116 0 0 1 4 0 1 0 1
0 49 72 116 0 0 1 4 0 1 0 1
0 46 69 116 0 0 1 4 0 1 0 1
phys
0 49 52 116 0 0 1 4 0 1 0 1
0 46 69 116 0 0 1 4 0 1 0 1
0 46 55.01 116 0 0 1 4 0 1 0 1
phys
0 66 69 116 0 0 1 4 0 1 0 1
0 66 69 0 0 0 1 4 0 1 0 1
0 63 72 0 0 0 1 4 0 1 0 1
phys
0 66 69 116 0 0 1 4 0 1 0 1
0 63 72 0 0 0 1 4 0 1 0 1
0 63 72 116 0 0 1 4 0 1 0 1
phys
0 46 69 0 0 0 1 4 0 1 0 1
0 46 69 116 0 0 1 4 0 1 0 1
0 49 72 116 0 0 1 4 0 1 0 1
phys
0 46 69 0 0 0 1 4 0 1 0 1
0 49 72 116 0 0 1 4 0 1 0 1
0 49 72 0 0 0 1 4 0 1 0 1
phys
0 63 52 116 0 0 1 4 0 1 0 1
0 63 52 0 0 0 1 4 0 1 0 1
0 66 55 0 0 0 1 4 0 1 0 1
phys
0 63 52 116 0 0 1 4 0 1 0 1
0 66 55 0 0 0 1 4 0 1 0 1
0 66 55 116 0 0 1 4 0 1 0 1
phys
0 49 52 0 0 0 1 4 0 1 0 1
0 49 52 116 0 0 1 4 0 1 0 1
0 46 55.01 116 0 0 1 4 0 1 0 1
phys
0 49 52 0 0 0 1 4 0 1 0 1
0 46 55.01 116 0 0 1 4 0 1 0 1
0 46 55.01 0 0 0 1 4 0 1 0 1
end
