version 1
nodes
0 "root" -1
end
skeleton
time 0
0 0 0 0 0 0 0
end
triangles
de_dust_pwtrim1
0 314 72 0 0 1 0 480.819196 6.68471 1 0 1
0 300 72 0 0 1 0 481.444196 6.68471 1 0 1
0 300 72 116 0 1 0 481.444196 5.390067 1 0 1
de_dust_pwtrim1
0 314 72 0 0 1 0 480.819196 6.68471 1 0 1
0 300 72 116 0 1 0 481.444196 5.390067 1 0 1
0 314 72 116 0 1 0 480.819196 5.390067 1 0 1
de_dust_pwtrim1
0 314 52 116 0 -1 0 -481.194196 5.390067 1 0 1
0 300 52 116 0 -1 0 -481.819196 5.390067 1 0 1
0 300 52 0 0 -1 0 -481.819196 6.68471 1 0 1
de_dust_pwtrim1
0 314 52 116 0 -1 0 -481.194196 5.390067 1 0 1
0 300 52 0 0 -1 0 -481.819196 6.68471 1 0 1
0 314 52 0 0 -1 0 -481.194196 6.68471 1 0 1
de_dust_pwtrim1
0 297 55 116 -1 0 0 -187.736607 5.390067 1 0 1
0 297 69 116 -1 0 0 -188.361607 5.390067 1 0 1
0 297 69 0 -1 0 0 -188.361607 6.68471 1 0 1
de_dust_pwtrim1
0 297 55 116 -1 0 0 -187.736607 5.390067 1 0 1
0 297 69 0 -1 0 0 -188.361607 6.68471 1 0 1
0 297 55 0 -1 0 0 -187.736607 6.68471 1 0 1
de_dust_pwtrim1
0 317 55 0 1 0 0 188.002232 6.68471 1 0 1
0 317 69 0 1 0 0 188.627232 6.68471 1 0 1
0 317 69 116 1 0 0 188.627232 5.390067 1 0 1
de_dust_pwtrim1
0 317 55 0 1 0 0 188.002232 6.68471 1 0 1
0 317 69 116 1 0 0 188.627232 5.390067 1 0 1
0 317 55 116 1 0 0 188.002232 5.390067 1 0 1
de_dust_pwtrim1
0 317 69 116 0.707107 0.707107 0 473.620812 5.390067 1 0 1
0 317 69 0 0.707107 0.707107 0 473.620812 6.68471 1 0 1
0 314 72 0 0.707107 0.707107 0 473.810214 6.68471 1 0 1
de_dust_pwtrim1
0 317 69 116 0.707107 0.707107 0 473.620812 5.390067 1 0 1
0 314 72 0 0.707107 0.707107 0 473.810214 6.68471 1 0 1
0 314 72 116 0.707107 0.707107 0 473.810214 5.390067 1 0 1
de_dust_pwtrim1
0 297 69 0 -0.707107 0.707107 0 206.626161 6.68471 1 0 1
0 297 69 116 -0.707107 0.707107 0 206.626161 5.390067 1 0 1
0 300 72 116 -0.707107 0.707107 0 206.436759 5.390067 1 0 1
de_dust_pwtrim1
0 297 69 0 -0.707107 0.707107 0 206.626161 6.68471 1 0 1
0 300 72 116 -0.707107 0.707107 0 206.436759 5.390067 1 0 1
0 300 72 0 -0.707107 0.707107 0 206.436759 6.68471 1 0 1
de_dust_pwtrim1
0 314 52 116 0.707107 -0.707107 0 -206.188661 5.390067 1 0 1
0 314 52 0 0.707107 -0.707107 0 -206.188661 6.68471 1 0 1
0 317 55 0 0.707107 -0.707107 0 -205.999259 6.68471 1 0 1
de_dust_pwtrim1
0 314 52 116 0.707107 -0.707107 0 -206.188661 5.390067 1 0 1
0 317 55 0 0.707107 -0.707107 0 -205.999259 6.68471 1 0 1
0 317 55 116 0.707107 -0.707107 0 -205.999259 5.390067 1 0 1
de_dust_pwtrim1
0 300 52 0 -0.707107 -0.707107 0 -473.542687 6.68471 1 0 1
0 300 52 116 -0.707107 -0.707107 0 -473.542687 5.390067 1 0 1
0 297 55 116 -0.707107 -0.707107 0 -473.732089 5.390067 1 0 1
de_dust_pwtrim1
0 300 52 0 -0.707107 -0.707107 0 -473.542687 6.68471 1 0 1
0 297 55 116 -0.707107 -0.707107 0 -473.732089 5.390067 1 0 1
0 297 55 0 -0.707107 -0.707107 0 -473.732089 6.68471 1 0 1
goldeneye_caverns_cavernsconcretefloor02
0 -328 -83 148 -1 0 0 -4.226562 53.429688 1 0 1
0 -328 -83 160 -1 0 0 -4.070312 53.429688 1 0 1
0 -328 -69 160 -1 0 0 -4.070312 53.611979 1 0 1
goldeneye_caverns_cavernsconcretefloor02
0 -328 -83 148 -1 0 0 -4.226562 53.429688 1 0 1
0 -328 -69 160 -1 0 0 -4.070312 53.611979 1 0 1
0 -328 -67 158 -1 0 0 -4.096354 53.638021 1 0 1
goldeneye_caverns_cavernsconcretefloor02
0 -328 -83 148 -1 0 0 -4.226562 53.429688 1 0 1
0 -328 -67 158 -1 0 0 -4.096354 53.638021 1 0 1
0 -328 -67 148 -1 0 0 -4.226562 53.638021 1 0 1
goldeneye_caverns_cavernsconcretefloor02
0 50 -83 160 1 0 0 5.851562 53.429688 1 0 1
0 50 -83 148 1 0 0 6.007812 53.429688 1 0 1
0 50 -67 148 1 0 0 6.007812 53.638021 1 0 1
goldeneye_caverns_cavernsconcretefloor02
0 50 -83 160 1 0 0 5.851562 53.429688 1 0 1
0 50 -67 148 1 0 0 6.007812 53.638021 1 0 1
0 50 -67 158 1 0 0 5.877604 53.638021 1 0 1
goldeneye_caverns_cavernsconcretefloor02
0 50 -83 160 1 0 0 5.851562 53.429688 1 0 1
0 50 -67 158 1 0 0 5.877604 53.638021 1 0 1
0 50 -69 160 1 0 0 5.851562 53.611979 1 0 1
goldeneye_caverns_cavernsconcretefloor02
0 -328 -83 160 0 0 1 -148.070964 53.429688 1 0 1
0 50 -83 160 0 0 1 -143.149089 53.429688 1 0 1
0 50 -69 160 0 0 1 -143.149089 53.611979 1 0 1
goldeneye_caverns_cavernsconcretefloor02
0 -328 -83 160 0 0 1 -148.070964 53.429688 1 0 1
0 50 -69 160 0 0 1 -143.149089 53.611979 1 0 1
0 -328 -69 160 0 0 1 -148.070964 53.611979 1 0 1
goldeneye_caverns_cavernsconcretefloor02
0 50 -69 160 0 0.707107 0.707107 -143.149089 41.610777 1 0 1
0 50 -67 158 0 0.707107 0.707107 -143.149089 41.647605 1 0 1
0 -328 -67 158 0 0.707107 0.707107 -148.070964 41.647605 1 0 1
goldeneye_caverns_cavernsconcretefloor02
0 50 -69 160 0 0.707107 0.707107 -143.149089 41.610777 1 0 1
0 -328 -67 158 0 0.707107 0.707107 -148.070964 41.647605 1 0 1
0 -328 -69 160 0 0.707107 0.707107 -148.070964 41.610777 1 0 1
goldeneye_caverns_cavernsconcretefloor02
0 50 -67 158 0 1 0 -143.149089 6.647135 1 0 1
0 50 -67 148 0 1 0 -143.149089 6.777344 1 0 1
0 -328 -67 148 0 1 0 -148.070964 6.777344 1 0 1
goldeneye_caverns_cavernsconcretefloor02
0 50 -67 158 0 1 0 -143.149089 6.647135 1 0 1
0 -328 -67 148 0 1 0 -148.070964 6.777344 1 0 1
0 -328 -67 158 0 1 0 -148.070964 6.647135 1 0 1
de_dust_pwtrim1
0 327 72 136 1 0 0 18.261161 47.635603 1 0 1
0 327 82 136 1 0 0 18.261161 47.74721 1 0 1
0 327 82 148 1 0 0 17.725446 47.74721 1 0 1
de_dust_pwtrim1
0 327 72 136 1 0 0 18.261161 47.635603 1 0 1
0 327 82 148 1 0 0 17.725446 47.74721 1 0 1
0 327 72 148 1 0 0 17.725446 47.635603 1 0 1
de_dust_pwtrim1
0 36 82 136 0 0 -1 -189.723214 -121.838728 1 0 1
0 327 82 136 0 0 -1 -189.723214 -118.59096 1 0 1
0 327 72 136 0 0 -1 -189.276786 -118.59096 1 0 1
de_dust_pwtrim1
0 36 82 136 0 0 -1 -189.723214 -121.838728 1 0 1
0 327 72 136 0 0 -1 -189.276786 -118.59096 1 0 1
0 36 72 136 0 0 -1 -189.276786 -121.838728 1 0 1
de_dust_pwtrim1
0 36 72 148 0 0 1 -189.276786 -121.838728 1 0 1
0 327 72 148 0 0 1 -189.276786 -118.59096 1 0 1
0 327 82 148 0 0 1 -189.723214 -118.59096 1 0 1
de_dust_pwtrim1
0 36 72 148 0 0 1 -189.276786 -121.838728 1 0 1
0 327 82 148 0 0 1 -189.723214 -118.59096 1 0 1
0 36 82 148 0 0 1 -189.723214 -121.838728 1 0 1
pepsi2_arch_woodf3
0 327 72 136 0 -1 0 -84.148438 -2.1875 1 0 1
0 327 72 148 0 -1 0 -84.148438 -2.09375 1 0 1
0 36 72 148 0 -1 0 -86.421875 -2.09375 1 0 1
pepsi2_arch_woodf3
0 327 72 136 0 -1 0 -84.148438 -2.1875 1 0 1
0 36 72 148 0 -1 0 -86.421875 -2.09375 1 0 1
0 36 72 136 0 -1 0 -86.421875 -2.1875 1 0 1
de_dust_pwtrim1
0 36 72 148 -1 0 0 17.725446 -46.116071 1 0 1
0 36 82 148 -1 0 0 17.725446 -46.227679 1 0 1
0 36 82 136 -1 0 0 18.261161 -46.227679 1 0 1
de_dust_pwtrim1
0 36 72 148 -1 0 0 17.725446 -46.116071 1 0 1
0 36 82 136 -1 0 0 18.261161 -46.227679 1 0 1
0 36 72 136 -1 0 0 18.261161 -46.116071 1 0 1
de_dust_pwtrim1
0 63 72 0 0 1 0 -492.555804 6.68471 1 0 1
0 49 72 0 0 1 0 -493.180804 6.68471 1 0 1
0 49 72 116 0 1 0 -493.180804 5.390067 1 0 1
de_dust_pwtrim1
0 63 72 0 0 1 0 -492.555804 6.68471 1 0 1
0 49 72 116 0 1 0 -493.180804 5.390067 1 0 1
0 63 72 116 0 1 0 -492.555804 5.390067 1 0 1
de_dust_pwtrim1
0 63 52 116 0 -1 0 492.180804 5.390067 1 0 1
0 49 52 116 0 -1 0 492.805804 5.390067 1 0 1
0 49 52 0 0 -1 0 492.805804 6.68471 1 0 1
de_dust_pwtrim1
0 63 52 116 0 -1 0 492.180804 5.390067 1 0 1
0 49 52 0 0 -1 0 492.805804 6.68471 1 0 1
0 63 52 0 0 -1 0 492.180804 6.68471 1 0 1
de_dust_pwtrim1
0 46 55.01 116 -1 0 0 188.002679 5.390067 1 0 1
0 46 69 116 -1 0 0 188.627232 5.390067 1 0 1
0 46 69 0 -1 0 0 188.627232 6.68471 1 0 1
de_dust_pwtrim1
0 46 55.01 116 -1 0 0 188.002679 5.390067 1 0 1
0 46 69 0 -1 0 0 188.627232 6.68471 1 0 1
0 46 55.01 0 -1 0 0 188.002679 6.68471 1 0 1
de_dust_pwtrim1
0 66 55 0 1 0 0 -187.736607 6.68471 1 0 1
0 66 69 0 1 0 0 -188.361607 6.68471 1 0 1
0 66 69 116 1 0 0 -188.361607 5.390067 1 0 1
de_dust_pwtrim1
0 66 55 0 1 0 0 -187.736607 6.68471 1 0 1
0 66 69 116 1 0 0 -188.361607 5.390067 1 0 1
0 66 55 116 1 0 0 -187.736607 5.390067 1 0 1
de_dust_pwtrim1
0 66 69 116 0.707107 0.707107 0 -481.372246 5.390067 1 0 1
0 66 69 0 0.707107 0.707107 0 -481.372246 6.68471 1 0 1
0 63 72 0 0.707107 0.707107 0 -481.561647 6.68471 1 0 1
de_dust_pwtrim1
0 66 69 116 0.707107 0.707107 0 -481.372246 5.390067 1 0 1
0 63 72 0 0.707107 0.707107 0 -481.561647 6.68471 1 0 1
0 63 72 116 0.707107 0.707107 0 -481.561647 5.390067 1 0 1
de_dust_pwtrim1
0 46 69 0 -0.707107 0.707107 0 -214.377594 6.68471 1 0 1
0 46 69 116 -0.707107 0.707107 0 -214.377594 5.390067 1 0 1
0 49 72 116 -0.707107 0.707107 0 -214.188192 5.390067 1 0 1
de_dust_pwtrim1
0 46 69 0 -0.707107 0.707107 0 -214.377594 6.68471 1 0 1
0 49 72 116 -0.707107 0.707107 0 -214.188192 5.390067 1 0 1
0 49 72 0 -0.707107 0.707107 0 -214.188192 6.68471 1 0 1
de_dust_pwtrim1
0 63 52 116 0.707107 -0.707107 0 214.190094 5.390067 1 0 1
0 63 52 0 0.707107 -0.707107 0 214.190094 6.68471 1 0 1
0 66 55 0 0.707107 -0.707107 0 214.000692 6.68471 1 0 1
de_dust_pwtrim1
0 63 52 116 0.707107 -0.707107 0 214.190094 5.390067 1 0 1
0 66 55 0 0.707107 -0.707107 0 214.000692 6.68471 1 0 1
0 66 55 116 0.707107 -0.707107 0 214.000692 5.390067 1 0 1
de_dust_pwtrim1
0 49 52 0 -0.708282 -0.705929 0 481.809746 6.68471 1 0 1
0 49 52 116 -0.708282 -0.705929 0 481.809746 5.390067 1 0 1
0 46 55.01 116 -0.708282 -0.705929 0 481.999463 5.390067 1 0 1
de_dust_pwtrim1
0 49 52 0 -0.708282 -0.705929 0 481.809746 6.68471 1 0 1
0 46 55.01 116 -0.708282 -0.705929 0 481.999463 5.390067 1 0 1
0 46 55.01 0 -0.708282 -0.705929 0 481.999463 6.68471 1 0 1
end
