version 1
nodes
0 "root" -1
end
skeleton
time 0
0 0 0 0 0 0 0
end
triangles
phys
0 -158 280 16 0 0 1 1 0 1 0 1
0 -158 304 16 0 0 1 1 0 1 0 1
0 -158 304 20 0 0 1 1 0 1 0 1
phys
0 -158 280 16 0 0 1 1 0 1 0 1
0 -158 304 20 0 0 1 1 0 1 0 1
0 -158 280 17 0 0 1 1 0 1 0 1
phys
0 -172 304 16 0 0 1 1 0 1 0 1
0 -158 304 16 0 0 1 1 0 1 0 1
0 -158 280 16 0 0 1 1 0 1 0 1
phys
0 -172 304 16 0 0 1 1 0 1 0 1
0 -158 280 16 0 0 1 1 0 1 0 1
0 -172 280 16 0 0 1 1 0 1 0 1
phys
0 -172 280 17 0 0 1 1 0 1 0 1
0 -158 280 17 0 0 1 1 0 1 0 1
0 -158 304 20 0 0 1 1 0 1 0 1
phys
0 -172 280 17 0 0 1 1 0 1 0 1
0 -158 304 20 0 0 1 1 0 1 0 1
0 -172 304 20 0 0 1 1 0 1 0 1
phys
0 -158 304 20 0 0 1 1 0 1 0 1
0 -158 304 16 0 0 1 1 0 1 0 1
0 -172 304 16 0 0 1 1 0 1 0 1
phys
0 -158 304 20 0 0 1 1 0 1 0 1
0 -172 304 16 0 0 1 1 0 1 0 1
0 -172 304 20 0 0 1 1 0 1 0 1
phys
0 -158 280 16 0 0 1 1 0 1 0 1
0 -158 280 17 0 0 1 1 0 1 0 1
0 -172 280 17 0 0 1 1 0 1 0 1
phys
0 -158 280 16 0 0 1 1 0 1 0 1
0 -172 280 17 0 0 1 1 0 1 0 1
0 -172 280 16 0 0 1 1 0 1 0 1
phys
0 -172 304 16 0 0 1 1 0 1 0 1
0 -172 280 16 0 0 1 1 0 1 0 1
0 -172 280 17 0 0 1 1 0 1 0 1
phys
0 -172 304 16 0 0 1 1 0 1 0 1
0 -172 280 17 0 0 1 1 0 1 0 1
0 -172 304 20 0 0 1 1 0 1 0 1
phys
0 8 44 16 0 0 1 2 0 1 0 1
0 8 44 20 0 0 1 2 0 1 0 1
0 -158 44 20 0 0 1 2 0 1 0 1
phys
0 8 44 16 0 0 1 2 0 1 0 1
0 -158 44 20 0 0 1 2 0 1 0 1
0 -158 44 16 0 0 1 2 0 1 0 1
phys
0 -158 44 16 0 0 1 2 0 1 0 1
0 -158 44 20 0 0 1 2 0 1 0 1
0 -158 68 17 0 0 1 2 0 1 0 1
phys
0 -158 44 16 0 0 1 2 0 1 0 1
0 -158 68 17 0 0 1 2 0 1 0 1
0 -158 68 16 0 0 1 2 0 1 0 1
phys
0 8 44 20 0 0 1 2 0 1 0 1
0 8 44 16 0 0 1 2 0 1 0 1
0 8 68 16 0 0 1 2 0 1 0 1
phys
0 8 44 20 0 0 1 2 0 1 0 1
0 8 68 16 0 0 1 2 0 1 0 1
0 8 68 17 0 0 1 2 0 1 0 1
phys
0 8 44 16 0 0 1 2 0 1 0 1
0 -158 44 16 0 0 1 2 0 1 0 1
0 -158 68 16 0 0 1 2 0 1 0 1
phys
0 8 44 16 0 0 1 2 0 1 0 1
0 -158 68 16 0 0 1 2 0 1 0 1
0 8 68 16 0 0 1 2 0 1 0 1
phys
0 -158 44 20 0 0 1 2 0 1 0 1
0 8 44 20 0 0 1 2 0 1 0 1
0 8 68 17 0 0 1 2 0 1 0 1
phys
0 -158 44 20 0 0 1 2 0 1 0 1
0 8 68 17 0 0 1 2 0 1 0 1
0 -158 68 17 0 0 1 2 0 1 0 1
phys
0 8 68 17 0 0 1 2 0 1 0 1
0 8 68 16 0 0 1 2 0 1 0 1
0 -158 68 16 0 0 1 2 0 1 0 1
phys
0 8 68 17 0 0 1 2 0 1 0 1
0 -158 68 16 0 0 1 2 0 1 0 1
0 -158 68 17 0 0 1 2 0 1 0 1
phys
0 8 280 177 0 0 1 3 0 1 0 1
0 8 280 172 0 0 1 3 0 1 0 1
0 1 280 172 0 0 1 3 0 1 0 1
phys
0 8 280 177 0 0 1 3 0 1 0 1
0 1 280 172 0 0 1 3 0 1 0 1
0 1 280 177 0 0 1 3 0 1 0 1
phys
0 8 68 172 0 0 1 3 0 1 0 1
0 8 68 177 0 0 1 3 0 1 0 1
0 1 68 177 0 0 1 3 0 1 0 1
phys
0 8 68 172 0 0 1 3 0 1 0 1
0 1 68 177 0 0 1 3 0 1 0 1
0 1 68 172 0 0 1 3 0 1 0 1
phys
0 1 68 172 0 0 1 3 0 1 0 1
0 1 68 177 0 0 1 3 0 1 0 1
0 1 280 177 0 0 1 3 0 1 0 1
phys
0 1 68 172 0 0 1 3 0 1 0 1
0 1 280 177 0 0 1 3 0 1 0 1
0 1 280 172 0 0 1 3 0 1 0 1
phys
0 8 68 177 0 0 1 3 0 1 0 1
0 8 68 172 0 0 1 3 0 1 0 1
0 8 280 172 0 0 1 3 0 1 0 1
phys
0 8 68 177 0 0 1 3 0 1 0 1
0 8 280 172 0 0 1 3 0 1 0 1
0 8 280 177 0 0 1 3 0 1 0 1
phys
0 8 68 172 0 0 1 3 0 1 0 1
0 1 68 172 0 0 1 3 0 1 0 1
0 1 280 172 0 0 1 3 0 1 0 1
phys
0 8 68 172 0 0 1 3 0 1 0 1
0 1 280 172 0 0 1 3 0 1 0 1
0 8 280 172 0 0 1 3 0 1 0 1
phys
0 1 68 177 0 0 1 3 0 1 0 1
0 8 68 177 0 0 1 3 0 1 0 1
0 8 280 177 0 0 1 3 0 1 0 1
phys
0 1 68 177 0 0 1 3 0 1 0 1
0 8 280 177 0 0 1 3 0 1 0 1
0 1 280 177 0 0 1 3 0 1 0 1
phys
0 148 74 158 0 0 1 4 0 1 0 1
0 148 74 154 0 0 1 4 0 1 0 1
0 16 74 154 0 0 1 4 0 1 0 1
phys
0 148 74 158 0 0 1 4 0 1 0 1
0 16 74 154 0 0 1 4 0 1 0 1
0 16 74 158 0 0 1 4 0 1 0 1
phys
0 148 72 154 0 0 1 4 0 1 0 1
0 148 72 158 0 0 1 4 0 1 0 1
0 16 72 158 0 0 1 4 0 1 0 1
phys
0 148 72 154 0 0 1 4 0 1 0 1
0 16 72 158 0 0 1 4 0 1 0 1
0 16 72 154 0 0 1 4 0 1 0 1
phys
0 16 72 154 0 0 1 4 0 1 0 1
0 16 72 158 0 0 1 4 0 1 0 1
0 16 74 158 0 0 1 4 0 1 0 1
phys
0 16 72 154 0 0 1 4 0 1 0 1
0 16 74 158 0 0 1 4 0 1 0 1
0 16 74 154 0 0 1 4 0 1 0 1
phys
0 148 72 158 0 0 1 4 0 1 0 1
0 148 72 154 0 0 1 4 0 1 0 1
0 148 74 154 0 0 1 4 0 1 0 1
phys
0 148 72 158 0 0 1 4 0 1 0 1
0 148 74 154 0 0 1 4 0 1 0 1
0 148 74 158 0 0 1 4 0 1 0 1
phys
0 148 72 154 0 0 1 4 0 1 0 1
0 16 72 154 0 0 1 4 0 1 0 1
0 16 74 154 0 0 1 4 0 1 0 1
phys
0 148 72 154 0 0 1 4 0 1 0 1
0 16 74 154 0 0 1 4 0 1 0 1
0 148 74 154 0 0 1 4 0 1 0 1
phys
0 16 72 158 0 0 1 4 0 1 0 1
0 148 72 158 0 0 1 4 0 1 0 1
0 148 74 158 0 0 1 4 0 1 0 1
phys
0 16 72 158 0 0 1 4 0 1 0 1
0 148 74 158 0 0 1 4 0 1 0 1
0 16 74 158 0 0 1 4 0 1 0 1
phys
0 150 -96 228 0 0 1 5 0 1 0 1
0 150 -96 158 0 0 1 5 0 1 0 1
0 148 -96 158 0 0 1 5 0 1 0 1
phys
0 150 -96 228 0 0 1 5 0 1 0 1
0 148 -96 158 0 0 1 5 0 1 0 1
0 148 -96 228 0 0 1 5 0 1 0 1
phys
0 150 -98 158 0 0 1 5 0 1 0 1
0 150 -98 228 0 0 1 5 0 1 0 1
0 148 -98 228 0 0 1 5 0 1 0 1
phys
0 150 -98 158 0 0 1 5 0 1 0 1
0 148 -98 228 0 0 1 5 0 1 0 1
0 148 -98 158 0 0 1 5 0 1 0 1
phys
0 148 -98 158 0 0 1 5 0 1 0 1
0 148 -98 228 0 0 1 5 0 1 0 1
0 148 -96 228 0 0 1 5 0 1 0 1
phys
0 148 -98 158 0 0 1 5 0 1 0 1
0 148 -96 228 0 0 1 5 0 1 0 1
0 148 -96 158 0 0 1 5 0 1 0 1
phys
0 150 -98 228 0 0 1 5 0 1 0 1
0 150 -98 158 0 0 1 5 0 1 0 1
0 150 -96 158 0 0 1 5 0 1 0 1
phys
0 150 -98 228 0 0 1 5 0 1 0 1
0 150 -96 158 0 0 1 5 0 1 0 1
0 150 -96 228 0 0 1 5 0 1 0 1
phys
0 150 -98 158 0 0 1 5 0 1 0 1
0 148 -98 158 0 0 1 5 0 1 0 1
0 148 -96 158 0 0 1 5 0 1 0 1
phys
0 150 -98 158 0 0 1 5 0 1 0 1
0 148 -96 158 0 0 1 5 0 1 0 1
0 150 -96 158 0 0 1 5 0 1 0 1
phys
0 148 -98 228 0 0 1 5 0 1 0 1
0 150 -98 228 0 0 1 5 0 1 0 1
0 150 -96 228 0 0 1 5 0 1 0 1
phys
0 148 -98 228 0 0 1 5 0 1 0 1
0 150 -96 228 0 0 1 5 0 1 0 1
0 148 -96 228 0 0 1 5 0 1 0 1
phys
0 148 274 154 0 0 1 6 0 1 0 1
0 16 274 154 0 0 1 6 0 1 0 1
0 16 276 154 0 0 1 6 0 1 0 1
phys
0 148 274 154 0 0 1 6 0 1 0 1
0 16 276 154 0 0 1 6 0 1 0 1
0 148 276 154 0 0 1 6 0 1 0 1
phys
0 16 274 158 0 0 1 6 0 1 0 1
0 148 274 158 0 0 1 6 0 1 0 1
0 148 276 158 0 0 1 6 0 1 0 1
phys
0 16 274 158 0 0 1 6 0 1 0 1
0 148 276 158 0 0 1 6 0 1 0 1
0 16 276 158 0 0 1 6 0 1 0 1
phys
0 148 276 154 0 0 1 6 0 1 0 1
0 16 276 154 0 0 1 6 0 1 0 1
0 16 276 158 0 0 1 6 0 1 0 1
phys
0 148 276 154 0 0 1 6 0 1 0 1
0 16 276 158 0 0 1 6 0 1 0 1
0 148 276 158 0 0 1 6 0 1 0 1
phys
0 148 274 158 0 0 1 6 0 1 0 1
0 16 274 158 0 0 1 6 0 1 0 1
0 16 274 154 0 0 1 6 0 1 0 1
phys
0 148 274 158 0 0 1 6 0 1 0 1
0 16 274 154 0 0 1 6 0 1 0 1
0 148 274 154 0 0 1 6 0 1 0 1
phys
0 16 274 158 0 0 1 6 0 1 0 1
0 16 276 158 0 0 1 6 0 1 0 1
0 16 276 154 0 0 1 6 0 1 0 1
phys
0 16 274 158 0 0 1 6 0 1 0 1
0 16 276 154 0 0 1 6 0 1 0 1
0 16 274 154 0 0 1 6 0 1 0 1
phys
0 148 274 154 0 0 1 6 0 1 0 1
0 148 276 154 0 0 1 6 0 1 0 1
0 148 276 158 0 0 1 6 0 1 0 1
phys
0 148 274 154 0 0 1 6 0 1 0 1
0 148 276 158 0 0 1 6 0 1 0 1
0 148 274 158 0 0 1 6 0 1 0 1
phys
0 -158 -92 17 0 0 1 7 0 1 0 1
0 8 -92 17 0 0 1 7 0 1 0 1
0 8 -68 20 0 0 1 7 0 1 0 1
phys
0 -158 -92 17 0 0 1 7 0 1 0 1
0 8 -68 20 0 0 1 7 0 1 0 1
0 -158 -68 20 0 0 1 7 0 1 0 1
phys
0 -158 -68 16 0 0 1 7 0 1 0 1
0 -158 -68 20 0 0 1 7 0 1 0 1
0 8 -68 20 0 0 1 7 0 1 0 1
phys
0 -158 -68 16 0 0 1 7 0 1 0 1
0 8 -68 20 0 0 1 7 0 1 0 1
0 8 -68 16 0 0 1 7 0 1 0 1
phys
0 8 -92 16 0 0 1 7 0 1 0 1
0 8 -92 17 0 0 1 7 0 1 0 1
0 -158 -92 17 0 0 1 7 0 1 0 1
phys
0 8 -92 16 0 0 1 7 0 1 0 1
0 -158 -92 17 0 0 1 7 0 1 0 1
0 -158 -92 16 0 0 1 7 0 1 0 1
phys
0 -158 -92 16 0 0 1 7 0 1 0 1
0 -158 -92 17 0 0 1 7 0 1 0 1
0 -158 -68 20 0 0 1 7 0 1 0 1
phys
0 -158 -92 16 0 0 1 7 0 1 0 1
0 -158 -68 20 0 0 1 7 0 1 0 1
0 -158 -68 16 0 0 1 7 0 1 0 1
phys
0 8 -68 16 0 0 1 7 0 1 0 1
0 8 -68 20 0 0 1 7 0 1 0 1
0 8 -92 17 0 0 1 7 0 1 0 1
phys
0 8 -68 16 0 0 1 7 0 1 0 1
0 8 -92 17 0 0 1 7 0 1 0 1
0 8 -92 16 0 0 1 7 0 1 0 1
phys
0 8 -92 16 0 0 1 7 0 1 0 1
0 -158 -92 16 0 0 1 7 0 1 0 1
0 -158 -68 16 0 0 1 7 0 1 0 1
phys
0 8 -92 16 0 0 1 7 0 1 0 1
0 -158 -68 16 0 0 1 7 0 1 0 1
0 8 -68 16 0 0 1 7 0 1 0 1
phys
0 150 276 158 0 0 1 8 0 1 0 1
0 150 276 154 0 0 1 8 0 1 0 1
0 148 276 154 0 0 1 8 0 1 0 1
phys
0 150 276 158 0 0 1 8 0 1 0 1
0 148 276 154 0 0 1 8 0 1 0 1
0 148 276 158 0 0 1 8 0 1 0 1
phys
0 150 72 154 0 0 1 8 0 1 0 1
0 150 72 158 0 0 1 8 0 1 0 1
0 148 72 158 0 0 1 8 0 1 0 1
phys
0 150 72 154 0 0 1 8 0 1 0 1
0 148 72 158 0 0 1 8 0 1 0 1
0 148 72 154 0 0 1 8 0 1 0 1
phys
0 148 72 154 0 0 1 8 0 1 0 1
0 148 72 158 0 0 1 8 0 1 0 1
0 148 276 158 0 0 1 8 0 1 0 1
phys
0 148 72 154 0 0 1 8 0 1 0 1
0 148 276 158 0 0 1 8 0 1 0 1
0 148 276 154 0 0 1 8 0 1 0 1
phys
0 150 72 158 0 0 1 8 0 1 0 1
0 150 72 154 0 0 1 8 0 1 0 1
0 150 276 154 0 0 1 8 0 1 0 1
phys
0 150 72 158 0 0 1 8 0 1 0 1
0 150 276 154 0 0 1 8 0 1 0 1
0 150 276 158 0 0 1 8 0 1 0 1
phys
0 150 72 154 0 0 1 8 0 1 0 1
0 148 72 154 0 0 1 8 0 1 0 1
0 148 276 154 0 0 1 8 0 1 0 1
phys
0 150 72 154 0 0 1 8 0 1 0 1
0 148 276 154 0 0 1 8 0 1 0 1
0 150 276 154 0 0 1 8 0 1 0 1
phys
0 148 72 158 0 0 1 8 0 1 0 1
0 150 72 158 0 0 1 8 0 1 0 1
0 150 276 158 0 0 1 8 0 1 0 1
phys
0 148 72 158 0 0 1 8 0 1 0 1
0 150 276 158 0 0 1 8 0 1 0 1
0 148 276 158 0 0 1 8 0 1 0 1
phys
0 -158 44 20 0 0 1 9 0 1 0 1
0 -158 44 0 0 0 1 9 0 1 0 1
0 -172 44 0 0 0 1 9 0 1 0 1
phys
0 -158 44 20 0 0 1 9 0 1 0 1
0 -172 44 0 0 0 1 9 0 1 0 1
0 -172 44 20 0 0 1 9 0 1 0 1
phys
0 -158 -68 0 0 0 1 9 0 1 0 1
0 -158 -68 20 0 0 1 9 0 1 0 1
0 -172 -68 20 0 0 1 9 0 1 0 1
phys
0 -158 -68 0 0 0 1 9 0 1 0 1
0 -172 -68 20 0 0 1 9 0 1 0 1
0 -172 -68 0 0 0 1 9 0 1 0 1
phys
0 -172 -68 0 0 0 1 9 0 1 0 1
0 -172 -68 20 0 0 1 9 0 1 0 1
0 -172 44 20 0 0 1 9 0 1 0 1
phys
0 -172 -68 0 0 0 1 9 0 1 0 1
0 -172 44 20 0 0 1 9 0 1 0 1
0 -172 44 0 0 0 1 9 0 1 0 1
phys
0 -158 -68 20 0 0 1 9 0 1 0 1
0 -158 -68 0 0 0 1 9 0 1 0 1
0 -158 44 0 0 0 1 9 0 1 0 1
phys
0 -158 -68 20 0 0 1 9 0 1 0 1
0 -158 44 0 0 0 1 9 0 1 0 1
0 -158 44 20 0 0 1 9 0 1 0 1
phys
0 -158 -68 0 0 0 1 9 0 1 0 1
0 -172 -68 0 0 0 1 9 0 1 0 1
0 -172 44 0 0 0 1 9 0 1 0 1
phys
0 -158 -68 0 0 0 1 9 0 1 0 1
0 -172 44 0 0 0 1 9 0 1 0 1
0 -158 44 0 0 0 1 9 0 1 0 1
phys
0 -172 -68 20 0 0 1 9 0 1 0 1
0 -158 -68 20 0 0 1 9 0 1 0 1
0 -158 44 20 0 0 1 9 0 1 0 1
phys
0 -172 -68 20 0 0 1 9 0 1 0 1
0 -158 44 20 0 0 1 9 0 1 0 1
0 -172 44 20 0 0 1 9 0 1 0 1
phys
0 1 -304 177 0 0 1 10 0 1 0 1
0 1 -92 177 0 0 1 10 0 1 0 1
0 1 -92 172 0 0 1 10 0 1 0 1
phys
0 1 -304 177 0 0 1 10 0 1 0 1
0 1 -92 172 0 0 1 10 0 1 0 1
0 1 -304 172 0 0 1 10 0 1 0 1
phys
0 8 -304 172 0 0 1 10 0 1 0 1
0 8 -92 172 0 0 1 10 0 1 0 1
0 8 -92 177 0 0 1 10 0 1 0 1
phys
0 8 -304 172 0 0 1 10 0 1 0 1
0 8 -92 177 0 0 1 10 0 1 0 1
0 8 -304 177 0 0 1 10 0 1 0 1
phys
0 1 -304 172 0 0 1 10 0 1 0 1
0 1 -92 172 0 0 1 10 0 1 0 1
0 8 -92 172 0 0 1 10 0 1 0 1
phys
0 1 -304 172 0 0 1 10 0 1 0 1
0 8 -92 172 0 0 1 10 0 1 0 1
0 8 -304 172 0 0 1 10 0 1 0 1
phys
0 8 -304 177 0 0 1 10 0 1 0 1
0 8 -92 177 0 0 1 10 0 1 0 1
0 1 -92 177 0 0 1 10 0 1 0 1
phys
0 8 -304 177 0 0 1 10 0 1 0 1
0 1 -92 177 0 0 1 10 0 1 0 1
0 1 -304 177 0 0 1 10 0 1 0 1
phys
0 8 -92 177 0 0 1 10 0 1 0 1
0 8 -92 172 0 0 1 10 0 1 0 1
0 1 -92 172 0 0 1 10 0 1 0 1
phys
0 8 -92 177 0 0 1 10 0 1 0 1
0 1 -92 172 0 0 1 10 0 1 0 1
0 1 -92 177 0 0 1 10 0 1 0 1
phys
0 8 -304 172 0 0 1 10 0 1 0 1
0 8 -304 177 0 0 1 10 0 1 0 1
0 1 -304 177 0 0 1 10 0 1 0 1
phys
0 8 -304 172 0 0 1 10 0 1 0 1
0 1 -304 177 0 0 1 10 0 1 0 1
0 1 -304 172 0 0 1 10 0 1 0 1
phys
0 172 -161 292 0 0 1 11 0 1 0 1
0 172 -161 252 0 0 1 11 0 1 0 1
0 168 -161 252 0 0 1 11 0 1 0 1
phys
0 172 -161 292 0 0 1 11 0 1 0 1
0 168 -161 252 0 0 1 11 0 1 0 1
0 168 -161 292 0 0 1 11 0 1 0 1
phys
0 172 -168 252 0 0 1 11 0 1 0 1
0 172 -168 292 0 0 1 11 0 1 0 1
0 168 -168 292 0 0 1 11 0 1 0 1
phys
0 172 -168 252 0 0 1 11 0 1 0 1
0 168 -168 292 0 0 1 11 0 1 0 1
0 168 -168 252 0 0 1 11 0 1 0 1
phys
0 168 -168 252 0 0 1 11 0 1 0 1
0 168 -168 292 0 0 1 11 0 1 0 1
0 168 -161 292 0 0 1 11 0 1 0 1
phys
0 168 -168 252 0 0 1 11 0 1 0 1
0 168 -161 292 0 0 1 11 0 1 0 1
0 168 -161 252 0 0 1 11 0 1 0 1
phys
0 172 -168 292 0 0 1 11 0 1 0 1
0 172 -168 252 0 0 1 11 0 1 0 1
0 172 -161 252 0 0 1 11 0 1 0 1
phys
0 172 -168 292 0 0 1 11 0 1 0 1
0 172 -161 252 0 0 1 11 0 1 0 1
0 172 -161 292 0 0 1 11 0 1 0 1
phys
0 172 -168 252 0 0 1 11 0 1 0 1
0 168 -168 252 0 0 1 11 0 1 0 1
0 168 -161 252 0 0 1 11 0 1 0 1
phys
0 172 -168 252 0 0 1 11 0 1 0 1
0 168 -161 252 0 0 1 11 0 1 0 1
0 172 -161 252 0 0 1 11 0 1 0 1
phys
0 168 -168 292 0 0 1 11 0 1 0 1
0 172 -168 292 0 0 1 11 0 1 0 1
0 172 -161 292 0 0 1 11 0 1 0 1
phys
0 168 -168 292 0 0 1 11 0 1 0 1
0 172 -161 292 0 0 1 11 0 1 0 1
0 168 -161 292 0 0 1 11 0 1 0 1
phys
0 150 276 228 0 0 1 12 0 1 0 1
0 150 276 158 0 0 1 12 0 1 0 1
0 148 276 158 0 0 1 12 0 1 0 1
phys
0 150 276 228 0 0 1 12 0 1 0 1
0 148 276 158 0 0 1 12 0 1 0 1
0 148 276 228 0 0 1 12 0 1 0 1
phys
0 150 274 158 0 0 1 12 0 1 0 1
0 150 274 228 0 0 1 12 0 1 0 1
0 148 274 228 0 0 1 12 0 1 0 1
phys
0 150 274 158 0 0 1 12 0 1 0 1
0 148 274 228 0 0 1 12 0 1 0 1
0 148 274 158 0 0 1 12 0 1 0 1
phys
0 148 274 158 0 0 1 12 0 1 0 1
0 148 274 228 0 0 1 12 0 1 0 1
0 148 276 228 0 0 1 12 0 1 0 1
phys
0 148 274 158 0 0 1 12 0 1 0 1
0 148 276 228 0 0 1 12 0 1 0 1
0 148 276 158 0 0 1 12 0 1 0 1
phys
0 150 274 228 0 0 1 12 0 1 0 1
0 150 274 158 0 0 1 12 0 1 0 1
0 150 276 158 0 0 1 12 0 1 0 1
phys
0 150 274 228 0 0 1 12 0 1 0 1
0 150 276 158 0 0 1 12 0 1 0 1
0 150 276 228 0 0 1 12 0 1 0 1
phys
0 150 274 158 0 0 1 12 0 1 0 1
0 148 274 158 0 0 1 12 0 1 0 1
0 148 276 158 0 0 1 12 0 1 0 1
phys
0 150 274 158 0 0 1 12 0 1 0 1
0 148 276 158 0 0 1 12 0 1 0 1
0 150 276 158 0 0 1 12 0 1 0 1
phys
0 148 274 228 0 0 1 12 0 1 0 1
0 150 274 228 0 0 1 12 0 1 0 1
0 150 276 228 0 0 1 12 0 1 0 1
phys
0 148 274 228 0 0 1 12 0 1 0 1
0 150 276 228 0 0 1 12 0 1 0 1
0 148 276 228 0 0 1 12 0 1 0 1
phys
0 -158 68 17 0 0 1 13 0 1 0 1
0 -158 68 16 0 0 1 13 0 1 0 1
0 -172 68 16 0 0 1 13 0 1 0 1
phys
0 -158 68 17 0 0 1 13 0 1 0 1
0 -172 68 16 0 0 1 13 0 1 0 1
0 -172 68 17 0 0 1 13 0 1 0 1
phys
0 -158 44 16 0 0 1 13 0 1 0 1
0 -158 44 20 0 0 1 13 0 1 0 1
0 -172 44 20 0 0 1 13 0 1 0 1
phys
0 -158 44 16 0 0 1 13 0 1 0 1
0 -172 44 20 0 0 1 13 0 1 0 1
0 -172 44 16 0 0 1 13 0 1 0 1
phys
0 -172 44 16 0 0 1 13 0 1 0 1
0 -172 44 20 0 0 1 13 0 1 0 1
0 -172 68 17 0 0 1 13 0 1 0 1
phys
0 -172 44 16 0 0 1 13 0 1 0 1
0 -172 68 17 0 0 1 13 0 1 0 1
0 -172 68 16 0 0 1 13 0 1 0 1
phys
0 -158 44 20 0 0 1 13 0 1 0 1
0 -158 44 16 0 0 1 13 0 1 0 1
0 -158 68 16 0 0 1 13 0 1 0 1
phys
0 -158 44 20 0 0 1 13 0 1 0 1
0 -158 68 16 0 0 1 13 0 1 0 1
0 -158 68 17 0 0 1 13 0 1 0 1
phys
0 -158 44 16 0 0 1 13 0 1 0 1
0 -172 44 16 0 0 1 13 0 1 0 1
0 -172 68 16 0 0 1 13 0 1 0 1
phys
0 -158 44 16 0 0 1 13 0 1 0 1
0 -172 68 16 0 0 1 13 0 1 0 1
0 -158 68 16 0 0 1 13 0 1 0 1
phys
0 -172 44 20 0 0 1 13 0 1 0 1
0 -158 44 20 0 0 1 13 0 1 0 1
0 -158 68 17 0 0 1 13 0 1 0 1
phys
0 -172 44 20 0 0 1 13 0 1 0 1
0 -158 68 17 0 0 1 13 0 1 0 1
0 -172 68 17 0 0 1 13 0 1 0 1
phys
0 8 44 20 0 0 1 14 0 1 0 1
0 8 44 0.014 0 0 1 14 0 1 0 1
0 -22 44 0.014 0 0 1 14 0 1 0 1
phys
0 8 44 20 0 0 1 14 0 1 0 1
0 -22 44 0.014 0 0 1 14 0 1 0 1
0 -22 44 20 0 0 1 14 0 1 0 1
phys
0 8 -68 0.014 0 0 1 14 0 1 0 1
0 8 -68 20 0 0 1 14 0 1 0 1
0 -22 -68 20 0 0 1 14 0 1 0 1
phys
0 8 -68 0.014 0 0 1 14 0 1 0 1
0 -22 -68 20 0 0 1 14 0 1 0 1
0 -22 -68 0.014 0 0 1 14 0 1 0 1
phys
0 -22 -68 0.014 0 0 1 14 0 1 0 1
0 -22 -68 20 0 0 1 14 0 1 0 1
0 -22 44 20 0 0 1 14 0 1 0 1
phys
0 -22 -68 0.014 0 0 1 14 0 1 0 1
0 -22 44 20 0 0 1 14 0 1 0 1
0 -22 44 0.014 0 0 1 14 0 1 0 1
phys
0 8 -68 20 0 0 1 14 0 1 0 1
0 8 -68 0.014 0 0 1 14 0 1 0 1
0 8 44 0.014 0 0 1 14 0 1 0 1
phys
0 8 -68 20 0 0 1 14 0 1 0 1
0 8 44 0.014 0 0 1 14 0 1 0 1
0 8 44 20 0 0 1 14 0 1 0 1
phys
0 8 -68 0.014 0 0 1 14 0 1 0 1
0 -22 -68 0.014 0 0 1 14 0 1 0 1
0 -22 44 0.014 0 0 1 14 0 1 0 1
phys
0 8 -68 0.014 0 0 1 14 0 1 0 1
0 -22 44 0.014 0 0 1 14 0 1 0 1
0 8 44 0.014 0 0 1 14 0 1 0 1
phys
0 -22 -68 20 0 0 1 14 0 1 0 1
0 8 -68 20 0 0 1 14 0 1 0 1
0 8 44 20 0 0 1 14 0 1 0 1
phys
0 -22 -68 20 0 0 1 14 0 1 0 1
0 8 44 20 0 0 1 14 0 1 0 1
0 -22 44 20 0 0 1 14 0 1 0 1
phys
0 150 -96 158 0 0 1 15 0 1 0 1
0 150 -96 154 0 0 1 15 0 1 0 1
0 148 -96 154 0 0 1 15 0 1 0 1
phys
0 150 -96 158 0 0 1 15 0 1 0 1
0 148 -96 154 0 0 1 15 0 1 0 1
0 148 -96 158 0 0 1 15 0 1 0 1
phys
0 150 -300 154 0 0 1 15 0 1 0 1
0 150 -300 158 0 0 1 15 0 1 0 1
0 148 -300 158 0 0 1 15 0 1 0 1
phys
0 150 -300 154 0 0 1 15 0 1 0 1
0 148 -300 158 0 0 1 15 0 1 0 1
0 148 -300 154 0 0 1 15 0 1 0 1
phys
0 148 -300 154 0 0 1 15 0 1 0 1
0 148 -300 158 0 0 1 15 0 1 0 1
0 148 -96 158 0 0 1 15 0 1 0 1
phys
0 148 -300 154 0 0 1 15 0 1 0 1
0 148 -96 158 0 0 1 15 0 1 0 1
0 148 -96 154 0 0 1 15 0 1 0 1
phys
0 150 -300 158 0 0 1 15 0 1 0 1
0 150 -300 154 0 0 1 15 0 1 0 1
0 150 -96 154 0 0 1 15 0 1 0 1
phys
0 150 -300 158 0 0 1 15 0 1 0 1
0 150 -96 154 0 0 1 15 0 1 0 1
0 150 -96 158 0 0 1 15 0 1 0 1
phys
0 150 -300 154 0 0 1 15 0 1 0 1
0 148 -300 154 0 0 1 15 0 1 0 1
0 148 -96 154 0 0 1 15 0 1 0 1
phys
0 150 -300 154 0 0 1 15 0 1 0 1
0 148 -96 154 0 0 1 15 0 1 0 1
0 150 -96 154 0 0 1 15 0 1 0 1
phys
0 148 -300 158 0 0 1 15 0 1 0 1
0 150 -300 158 0 0 1 15 0 1 0 1
0 150 -96 158 0 0 1 15 0 1 0 1
phys
0 148 -300 158 0 0 1 15 0 1 0 1
0 150 -96 158 0 0 1 15 0 1 0 1
0 148 -96 158 0 0 1 15 0 1 0 1
phys
0 150 74 228 0 0 1 16 0 1 0 1
0 150 74 158 0 0 1 16 0 1 0 1
0 148 74 158 0 0 1 16 0 1 0 1
phys
0 150 74 228 0 0 1 16 0 1 0 1
0 148 74 158 0 0 1 16 0 1 0 1
0 148 74 228 0 0 1 16 0 1 0 1
phys
0 150 72 158 0 0 1 16 0 1 0 1
0 150 72 228 0 0 1 16 0 1 0 1
0 148 72 228 0 0 1 16 0 1 0 1
phys
0 150 72 158 0 0 1 16 0 1 0 1
0 148 72 228 0 0 1 16 0 1 0 1
0 148 72 158 0 0 1 16 0 1 0 1
phys
0 148 72 158 0 0 1 16 0 1 0 1
0 148 72 228 0 0 1 16 0 1 0 1
0 148 74 228 0 0 1 16 0 1 0 1
phys
0 148 72 158 0 0 1 16 0 1 0 1
0 148 74 228 0 0 1 16 0 1 0 1
0 148 74 158 0 0 1 16 0 1 0 1
phys
0 150 72 228 0 0 1 16 0 1 0 1
0 150 72 158 0 0 1 16 0 1 0 1
0 150 74 158 0 0 1 16 0 1 0 1
phys
0 150 72 228 0 0 1 16 0 1 0 1
0 150 74 158 0 0 1 16 0 1 0 1
0 150 74 228 0 0 1 16 0 1 0 1
phys
0 150 72 158 0 0 1 16 0 1 0 1
0 148 72 158 0 0 1 16 0 1 0 1
0 148 74 158 0 0 1 16 0 1 0 1
phys
0 150 72 158 0 0 1 16 0 1 0 1
0 148 74 158 0 0 1 16 0 1 0 1
0 150 74 158 0 0 1 16 0 1 0 1
phys
0 148 72 228 0 0 1 16 0 1 0 1
0 150 72 228 0 0 1 16 0 1 0 1
0 150 74 228 0 0 1 16 0 1 0 1
phys
0 148 72 228 0 0 1 16 0 1 0 1
0 150 74 228 0 0 1 16 0 1 0 1
0 148 74 228 0 0 1 16 0 1 0 1
phys
0 8 304 20 0 0 1 17 0 1 0 1
0 8 304 16 0 0 1 17 0 1 0 1
0 -158 304 16 0 0 1 17 0 1 0 1
phys
0 8 304 20 0 0 1 17 0 1 0 1
0 -158 304 16 0 0 1 17 0 1 0 1
0 -158 304 20 0 0 1 17 0 1 0 1
phys
0 8 280 16 0 0 1 17 0 1 0 1
0 8 280 17 0 0 1 17 0 1 0 1
0 -158 280 17 0 0 1 17 0 1 0 1
phys
0 8 280 16 0 0 1 17 0 1 0 1
0 -158 280 17 0 0 1 17 0 1 0 1
0 -158 280 16 0 0 1 17 0 1 0 1
phys
0 -158 280 16 0 0 1 17 0 1 0 1
0 -158 280 17 0 0 1 17 0 1 0 1
0 -158 304 20 0 0 1 17 0 1 0 1
phys
0 -158 280 16 0 0 1 17 0 1 0 1
0 -158 304 20 0 0 1 17 0 1 0 1
0 -158 304 16 0 0 1 17 0 1 0 1
phys
0 8 280 17 0 0 1 17 0 1 0 1
0 8 280 16 0 0 1 17 0 1 0 1
0 8 304 16 0 0 1 17 0 1 0 1
phys
0 8 280 17 0 0 1 17 0 1 0 1
0 8 304 16 0 0 1 17 0 1 0 1
0 8 304 20 0 0 1 17 0 1 0 1
phys
0 8 280 16 0 0 1 17 0 1 0 1
0 -158 280 16 0 0 1 17 0 1 0 1
0 -158 304 16 0 0 1 17 0 1 0 1
phys
0 8 280 16 0 0 1 17 0 1 0 1
0 -158 304 16 0 0 1 17 0 1 0 1
0 8 304 16 0 0 1 17 0 1 0 1
phys
0 -158 280 17 0 0 1 17 0 1 0 1
0 8 280 17 0 0 1 17 0 1 0 1
0 8 304 20 0 0 1 17 0 1 0 1
phys
0 -158 280 17 0 0 1 17 0 1 0 1
0 8 304 20 0 0 1 17 0 1 0 1
0 -158 304 20 0 0 1 17 0 1 0 1
phys
0 -158 -68 20 0 0 1 18 0 1 0 1
0 -158 -68 16 0 0 1 18 0 1 0 1
0 -172 -68 16 0 0 1 18 0 1 0 1
phys
0 -158 -68 20 0 0 1 18 0 1 0 1
0 -172 -68 16 0 0 1 18 0 1 0 1
0 -172 -68 20 0 0 1 18 0 1 0 1
phys
0 -158 -92 16 0 0 1 18 0 1 0 1
0 -158 -92 17 0 0 1 18 0 1 0 1
0 -172 -92 17 0 0 1 18 0 1 0 1
phys
0 -158 -92 16 0 0 1 18 0 1 0 1
0 -172 -92 17 0 0 1 18 0 1 0 1
0 -172 -92 16 0 0 1 18 0 1 0 1
phys
0 -172 -92 16 0 0 1 18 0 1 0 1
0 -172 -92 17 0 0 1 18 0 1 0 1
0 -172 -68 20 0 0 1 18 0 1 0 1
phys
0 -172 -92 16 0 0 1 18 0 1 0 1
0 -172 -68 20 0 0 1 18 0 1 0 1
0 -172 -68 16 0 0 1 18 0 1 0 1
phys
0 -158 -92 17 0 0 1 18 0 1 0 1
0 -158 -92 16 0 0 1 18 0 1 0 1
0 -158 -68 16 0 0 1 18 0 1 0 1
phys
0 -158 -92 17 0 0 1 18 0 1 0 1
0 -158 -68 16 0 0 1 18 0 1 0 1
0 -158 -68 20 0 0 1 18 0 1 0 1
phys
0 -158 -92 16 0 0 1 18 0 1 0 1
0 -172 -92 16 0 0 1 18 0 1 0 1
0 -172 -68 16 0 0 1 18 0 1 0 1
phys
0 -158 -92 16 0 0 1 18 0 1 0 1
0 -172 -68 16 0 0 1 18 0 1 0 1
0 -158 -68 16 0 0 1 18 0 1 0 1
phys
0 -172 -92 17 0 0 1 18 0 1 0 1
0 -158 -92 17 0 0 1 18 0 1 0 1
0 -158 -68 20 0 0 1 18 0 1 0 1
phys
0 -172 -92 17 0 0 1 18 0 1 0 1
0 -158 -68 20 0 0 1 18 0 1 0 1
0 -172 -68 20 0 0 1 18 0 1 0 1
phys
0 16 -98 158 0 0 1 19 0 1 0 1
0 16 -96 158 0 0 1 19 0 1 0 1
0 16 -96 154 0 0 1 19 0 1 0 1
phys
0 16 -98 158 0 0 1 19 0 1 0 1
0 16 -96 154 0 0 1 19 0 1 0 1
0 16 -98 154 0 0 1 19 0 1 0 1
phys
0 148 -98 154 0 0 1 19 0 1 0 1
0 148 -96 154 0 0 1 19 0 1 0 1
0 148 -96 158 0 0 1 19 0 1 0 1
phys
0 148 -98 154 0 0 1 19 0 1 0 1
0 148 -96 158 0 0 1 19 0 1 0 1
0 148 -98 158 0 0 1 19 0 1 0 1
phys
0 16 -98 154 0 0 1 19 0 1 0 1
0 16 -96 154 0 0 1 19 0 1 0 1
0 148 -96 154 0 0 1 19 0 1 0 1
phys
0 16 -98 154 0 0 1 19 0 1 0 1
0 148 -96 154 0 0 1 19 0 1 0 1
0 148 -98 154 0 0 1 19 0 1 0 1
phys
0 148 -98 158 0 0 1 19 0 1 0 1
0 148 -96 158 0 0 1 19 0 1 0 1
0 16 -96 158 0 0 1 19 0 1 0 1
phys
0 148 -98 158 0 0 1 19 0 1 0 1
0 16 -96 158 0 0 1 19 0 1 0 1
0 16 -98 158 0 0 1 19 0 1 0 1
phys
0 148 -96 158 0 0 1 19 0 1 0 1
0 148 -96 154 0 0 1 19 0 1 0 1
0 16 -96 154 0 0 1 19 0 1 0 1
phys
0 148 -96 158 0 0 1 19 0 1 0 1
0 16 -96 154 0 0 1 19 0 1 0 1
0 16 -96 158 0 0 1 19 0 1 0 1
phys
0 148 -98 154 0 0 1 19 0 1 0 1
0 148 -98 158 0 0 1 19 0 1 0 1
0 16 -98 158 0 0 1 19 0 1 0 1
phys
0 148 -98 154 0 0 1 19 0 1 0 1
0 16 -98 158 0 0 1 19 0 1 0 1
0 16 -98 154 0 0 1 19 0 1 0 1
phys
0 -22 44 20 0 0 1 20 0 1 0 1
0 -22 44 0.014 0 0 1 20 0 1 0 1
0 -158 44 0.014 0 0 1 20 0 1 0 1
phys
0 -22 44 20 0 0 1 20 0 1 0 1
0 -158 44 0.014 0 0 1 20 0 1 0 1
0 -158 44 20 0 0 1 20 0 1 0 1
phys
0 -22 -68 0.014 0 0 1 20 0 1 0 1
0 -22 -68 20 0 0 1 20 0 1 0 1
0 -158 -68 20 0 0 1 20 0 1 0 1
phys
0 -22 -68 0.014 0 0 1 20 0 1 0 1
0 -158 -68 20 0 0 1 20 0 1 0 1
0 -158 -68 0.014 0 0 1 20 0 1 0 1
phys
0 -158 -68 0.014 0 0 1 20 0 1 0 1
0 -158 -68 20 0 0 1 20 0 1 0 1
0 -158 44 20 0 0 1 20 0 1 0 1
phys
0 -158 -68 0.014 0 0 1 20 0 1 0 1
0 -158 44 20 0 0 1 20 0 1 0 1
0 -158 44 0.014 0 0 1 20 0 1 0 1
phys
0 -22 -68 20 0 0 1 20 0 1 0 1
0 -22 -68 0.014 0 0 1 20 0 1 0 1
0 -22 44 0.014 0 0 1 20 0 1 0 1
phys
0 -22 -68 20 0 0 1 20 0 1 0 1
0 -22 44 0.014 0 0 1 20 0 1 0 1
0 -22 44 20 0 0 1 20 0 1 0 1
phys
0 -22 -68 0.014 0 0 1 20 0 1 0 1
0 -158 -68 0.014 0 0 1 20 0 1 0 1
0 -158 44 0.014 0 0 1 20 0 1 0 1
phys
0 -22 -68 0.014 0 0 1 20 0 1 0 1
0 -158 44 0.014 0 0 1 20 0 1 0 1
0 -22 44 0.014 0 0 1 20 0 1 0 1
phys
0 -158 -68 20 0 0 1 20 0 1 0 1
0 -22 -68 20 0 0 1 20 0 1 0 1
0 -22 44 20 0 0 1 20 0 1 0 1
phys
0 -158 -68 20 0 0 1 20 0 1 0 1
0 -22 44 20 0 0 1 20 0 1 0 1
0 -158 44 20 0 0 1 20 0 1 0 1
end
