version 1
nodes
0 "root" -1
end
skeleton
time 0
0 0 0 0 0 0 0
end
triangles
goldeneye_caverns_cavernsconcretefloor02
0 -172 280 17 0 -0.124035 0.992278 94.948278 -5.273683 1 0 1
0 -158 280 17 0 -0.124035 0.992278 94.847005 -5.273683 1 0 1
0 -158 304 20 0 -0.124035 0.992278 94.847005 -5.448649 1 0 1
goldeneye_caverns_cavernsconcretefloor02
0 -172 280 17 0 -0.124035 0.992278 94.948278 -5.273683 1 0 1
0 -158 304 20 0 -0.124035 0.992278 94.847005 -5.448649 1 0 1
0 -172 304 20 0 -0.124035 0.992278 94.948278 -5.448649 1 0 1
goldeneye_caverns_cavernsconcretefloor02
0 -158 280 16 0 -1 0 95.761068 3.108218 1 0 1
0 -158 280 17 0 -1 0 95.761068 3.100984 1 0 1
0 -172 280 17 0 -1 0 95.862341 3.100984 1 0 1
goldeneye_caverns_cavernsconcretefloor02
0 -158 280 16 0 -1 0 95.761068 3.108218 1 0 1
0 -172 280 17 0 -1 0 95.862341 3.100984 1 0 1
0 -172 280 16 0 -1 0 95.862341 3.108218 1 0 1
goldeneye_caverns_cavernsconcretefloor02
0 -172 304 16 -1 0 0 2.891421 -6.094907 1 0 1
0 -172 280 16 -1 0 0 2.891421 -5.921296 1 0 1
0 -172 280 17 -1 0 0 2.884187 -5.921296 1 0 1
goldeneye_caverns_cavernsconcretefloor02
0 -172 304 16 -1 0 0 2.891421 -6.094907 1 0 1
0 -172 280 17 -1 0 0 2.884187 -5.921296 1 0 1
0 -172 304 20 -1 0 0 2.862486 -6.094907 1 0 1
goldeneye_caverns_cavernsconcretefloor02
0 -158 44 20 0 0.124035 0.992278 -96.819661 7.385787 1 0 1
0 8 44 20 0 0.124035 0.992278 -95.618851 7.385787 1 0 1
0 8 68 17 0 0.124035 0.992278 -95.618851 7.560752 1 0 1
goldeneye_caverns_cavernsconcretefloor02
0 -158 44 20 0 0.124035 0.992278 -96.819661 7.385787 1 0 1
0 8 68 17 0 0.124035 0.992278 -95.618851 7.560752 1 0 1
0 -158 68 17 0 0.124035 0.992278 -96.819661 7.560752 1 0 1
goldeneye_caverns_cavernsconcretefloor02
0 8 68 17 0 1 0 94.560258 -2.409578 1 0 1
0 8 68 16 0 1 0 94.560258 -2.416811 1 0 1
0 -158 68 16 0 1 0 95.761068 -2.416811 1 0 1
goldeneye_caverns_cavernsconcretefloor02
0 8 68 17 0 1 0 94.560258 -2.409578 1 0 1
0 -158 68 16 0 1 0 95.761068 -2.416811 1 0 1
0 -158 68 17 0 1 0 95.761068 -2.409578 1 0 1
props_tarpaperroof002a
0 8 280 177 0 1 0 -0.828125 -100.617188 1 0 1
0 8 280 172 0 1 0 -0.867188 -100.617188 1 0 1
0 1 280 172 0 1 0 -0.867188 -100.671875 1 0 1
props_tarpaperroof002a
0 8 280 177 0 1 0 -0.828125 -100.617188 1 0 1
0 1 280 172 0 1 0 -0.867188 -100.671875 1 0 1
0 1 280 177 0 1 0 -0.828125 -100.671875 1 0 1
props_tarpaperroof002a
0 8 68 172 0 -1 0 0.867188 -100.617188 1 0 1
0 8 68 177 0 -1 0 0.828125 -100.617188 1 0 1
0 1 68 177 0 -1 0 0.828125 -100.671875 1 0 1
props_tarpaperroof002a
0 8 68 172 0 -1 0 0.867188 -100.617188 1 0 1
0 1 68 177 0 -1 0 0.828125 -100.671875 1 0 1
0 1 68 172 0 -1 0 0.867188 -100.671875 1 0 1
props_tarpaperroof002a
0 1 68 172 -1 0 0 -5.171875 -0.710938 1 0 1
0 1 68 177 -1 0 0 -5.171875 -0.671875 1 0 1
0 1 280 177 -1 0 0 -6.828125 -0.671875 1 0 1
props_tarpaperroof002a
0 1 68 172 -1 0 0 -5.171875 -0.710938 1 0 1
0 1 280 177 -1 0 0 -6.828125 -0.671875 1 0 1
0 1 280 172 -1 0 0 -6.828125 -0.710938 1 0 1
props_tarpaperroof002a
0 8 68 172 0 0 -1 -5.171875 -100.617188 1 0 1
0 1 68 172 0 0 -1 -5.171875 -100.671875 1 0 1
0 1 280 172 0 0 -1 -6.828125 -100.671875 1 0 1
props_tarpaperroof002a
0 8 68 172 0 0 -1 -5.171875 -100.617188 1 0 1
0 1 280 172 0 0 -1 -6.828125 -100.671875 1 0 1
0 8 280 172 0 0 -1 -6.828125 -100.617188 1 0 1
props_tarpaperroof002a
0 1 68 177 0 0 1 -5.171875 -100.671875 1 0 1
0 8 68 177 0 0 1 -5.171875 -100.617188 1 0 1
0 8 280 177 0 0 1 -6.828125 -100.617188 1 0 1
props_tarpaperroof002a
0 1 68 177 0 0 1 -5.171875 -100.671875 1 0 1
0 8 280 177 0 0 1 -6.828125 -100.617188 1 0 1
0 1 280 177 0 0 1 -6.828125 -100.671875 1 0 1
props_tarpaperroof002a
0 148 74 158 0 1 0 -2.55013 169.167969 1 0 1
0 148 74 154 0 1 0 -2.602214 169.167969 1 0 1
0 16 74 154 0 1 0 -2.602214 170.886719 1 0 1
props_tarpaperroof002a
0 148 74 158 0 1 0 -2.55013 169.167969 1 0 1
0 16 74 154 0 1 0 -2.602214 170.886719 1 0 1
0 16 74 158 0 1 0 -2.55013 170.886719 1 0 1
props_tarpaperroof002a
0 148 72 154 0 -1 0 -2.602214 169.167969 1 0 1
0 148 72 158 0 -1 0 -2.55013 169.167969 1 0 1
0 16 72 158 0 -1 0 -2.55013 170.886719 1 0 1
props_tarpaperroof002a
0 148 72 154 0 -1 0 -2.602214 169.167969 1 0 1
0 16 72 158 0 -1 0 -2.55013 170.886719 1 0 1
0 16 72 154 0 -1 0 -2.602214 170.886719 1 0 1
props_tarpaperroof002a
0 16 72 154 -1 0 0 -6.1875 -0.890625 1 0 1
0 16 72 158 -1 0 0 -6.1875 -0.859375 1 0 1
0 16 74 158 -1 0 0 -6.203125 -0.859375 1 0 1
props_tarpaperroof002a
0 16 72 154 -1 0 0 -6.1875 -0.890625 1 0 1
0 16 74 158 -1 0 0 -6.203125 -0.859375 1 0 1
0 16 74 154 -1 0 0 -6.203125 -0.890625 1 0 1
props_tarpaperroof002a
0 148 72 158 1 0 0 6.1875 -0.859375 1 0 1
0 148 72 154 1 0 0 6.1875 -0.890625 1 0 1
0 148 74 154 1 0 0 6.203125 -0.890625 1 0 1
props_tarpaperroof002a
0 148 72 158 1 0 0 6.1875 -0.859375 1 0 1
0 148 74 154 1 0 0 6.203125 -0.890625 1 0 1
0 148 74 158 1 0 0 6.203125 -0.859375 1 0 1
props_tarpaperroof002a
0 148 72 154 0 0 -1 -9.78125 169.167969 1 0 1
0 16 72 154 0 0 -1 -9.78125 170.886719 1 0 1
0 16 74 154 0 0 -1 -9.807292 170.886719 1 0 1
props_tarpaperroof002a
0 148 72 154 0 0 -1 -9.78125 169.167969 1 0 1
0 16 74 154 0 0 -1 -9.807292 170.886719 1 0 1
0 148 74 154 0 0 -1 -9.807292 169.167969 1 0 1
props_tarpaperroof002a
0 16 72 158 0 0 1 -9.958984 170.886719 1 0 1
0 148 72 158 0 0 1 -9.958984 169.167969 1 0 1
0 148 74 158 0 0 1 -9.985026 169.167969 1 0 1
props_tarpaperroof002a
0 16 72 158 0 0 1 -9.958984 170.886719 1 0 1
0 148 74 158 0 0 1 -9.985026 169.167969 1 0 1
0 16 74 158 0 0 1 -9.985026 170.886719 1 0 1
props_tarpaperroof002a
0 150 -96 228 0 1 0 100.882812 0.056641 1 0 1
0 150 -96 158 0 1 0 100.882812 -0.490234 1 0 1
0 148 -96 158 0 1 0 100.898438 -0.490234 1 0 1
props_tarpaperroof002a
0 150 -96 228 0 1 0 100.882812 0.056641 1 0 1
0 148 -96 158 0 1 0 100.898438 -0.490234 1 0 1
0 148 -96 228 0 1 0 100.898438 0.056641 1 0 1
props_tarpaperroof002a
0 150 -98 158 0 -1 0 168.014974 -1.598958 1 0 1
0 150 -98 228 0 -1 0 168.014974 -0.6875 1 0 1
0 148 -98 228 0 -1 0 168.041016 -0.6875 1 0 1
props_tarpaperroof002a
0 150 -98 158 0 -1 0 168.014974 -1.598958 1 0 1
0 148 -98 228 0 -1 0 168.041016 -0.6875 1 0 1
0 148 -98 158 0 -1 0 168.041016 -1.598958 1 0 1
props_tarpaperroof002a
0 148 -98 158 -1 0 0 -7.511068 -1.598958 1 0 1
0 148 -98 228 -1 0 0 -7.511068 -0.6875 1 0 1
0 148 -96 228 -1 0 0 -7.537109 -0.6875 1 0 1
props_tarpaperroof002a
0 148 -98 158 -1 0 0 -7.511068 -1.598958 1 0 1
0 148 -96 228 -1 0 0 -7.537109 -0.6875 1 0 1
0 148 -96 158 -1 0 0 -7.537109 -1.598958 1 0 1
props_tarpaperroof002a
0 150 -98 228 1 0 0 -7.511068 -0.6875 1 0 1
0 150 -98 158 1 0 0 -7.511068 -1.598958 1 0 1
0 150 -96 158 1 0 0 -7.537109 -1.598958 1 0 1
props_tarpaperroof002a
0 150 -98 228 1 0 0 -7.511068 -0.6875 1 0 1
0 150 -96 158 1 0 0 -7.537109 -1.598958 1 0 1
0 150 -96 228 1 0 0 -7.537109 -0.6875 1 0 1
props_tarpaperroof002a
0 150 -98 158 0 0 -1 -55.913194 -1.53559 1 0 1
0 148 -98 158 0 0 -1 -55.921875 -1.53559 1 0 1
0 148 -96 158 0 0 -1 -55.921875 -1.544271 1 0 1
props_tarpaperroof002a
0 150 -98 158 0 0 -1 -55.913194 -1.53559 1 0 1
0 148 -96 158 0 0 -1 -55.921875 -1.544271 1 0 1
0 150 -96 158 0 0 -1 -55.913194 -1.544271 1 0 1
props_tarpaperroof002a
0 148 -98 228 0 0 1 -55.921875 -1.53559 1 0 1
0 150 -98 228 0 0 1 -55.913194 -1.53559 1 0 1
0 150 -96 228 0 0 1 -55.913194 -1.544271 1 0 1
props_tarpaperroof002a
0 148 -98 228 0 0 1 -55.921875 -1.53559 1 0 1
0 150 -96 228 0 0 1 -55.913194 -1.544271 1 0 1
0 148 -96 228 0 0 1 -55.921875 -1.544271 1 0 1
props_tarpaperroof002a
0 148 274 154 0 0 -1 -12.71224 169.167969 1 0 1
0 16 274 154 0 0 -1 -12.71224 170.886719 1 0 1
0 16 276 154 0 0 -1 -12.738281 170.886719 1 0 1
props_tarpaperroof002a
0 148 274 154 0 0 -1 -12.71224 169.167969 1 0 1
0 16 276 154 0 0 -1 -12.738281 170.886719 1 0 1
0 148 276 154 0 0 -1 -12.738281 169.167969 1 0 1
props_tarpaperroof002a
0 16 274 158 0 0 1 -12.932943 170.886719 1 0 1
0 148 274 158 0 0 1 -12.932943 169.167969 1 0 1
0 148 276 158 0 0 1 -12.958984 169.167969 1 0 1
props_tarpaperroof002a
0 16 274 158 0 0 1 -12.932943 170.886719 1 0 1
0 148 276 158 0 0 1 -12.958984 169.167969 1 0 1
0 16 276 158 0 0 1 -12.958984 170.886719 1 0 1
props_tarpaperroof002a
0 148 276 154 0 1 0 -2.602214 169.167969 1 0 1
0 16 276 154 0 1 0 -2.602214 170.886719 1 0 1
0 16 276 158 0 1 0 -2.55013 170.886719 1 0 1
props_tarpaperroof002a
0 148 276 154 0 1 0 -2.602214 169.167969 1 0 1
0 16 276 158 0 1 0 -2.55013 170.886719 1 0 1
0 148 276 158 0 1 0 -2.55013 169.167969 1 0 1
props_tarpaperroof002a
0 148 274 158 0 -1 0 -2.55013 169.167969 1 0 1
0 16 274 158 0 -1 0 -2.55013 170.886719 1 0 1
0 16 274 154 0 -1 0 -2.602214 170.886719 1 0 1
props_tarpaperroof002a
0 148 274 158 0 -1 0 -2.55013 169.167969 1 0 1
0 16 274 154 0 -1 0 -2.602214 170.886719 1 0 1
0 148 274 154 0 -1 0 -2.602214 169.167969 1 0 1
props_tarpaperroof002a
0 16 274 158 -1 0 0 -7.765625 -0.859375 1 0 1
0 16 276 158 -1 0 0 -7.78125 -0.859375 1 0 1
0 16 276 154 -1 0 0 -7.78125 -0.890625 1 0 1
props_tarpaperroof002a
0 16 274 158 -1 0 0 -7.765625 -0.859375 1 0 1
0 16 276 154 -1 0 0 -7.78125 -0.890625 1 0 1
0 16 274 154 -1 0 0 -7.765625 -0.890625 1 0 1
props_tarpaperroof002a
0 148 274 154 1 0 0 7.765625 -0.890625 1 0 1
0 148 276 154 1 0 0 7.78125 -0.890625 1 0 1
0 148 276 158 1 0 0 7.78125 -0.859375 1 0 1
props_tarpaperroof002a
0 148 274 154 1 0 0 7.765625 -0.890625 1 0 1
0 148 276 158 1 0 0 7.78125 -0.859375 1 0 1
0 148 274 158 1 0 0 7.765625 -0.859375 1 0 1
goldeneye_caverns_cavernsconcretefloor02
0 -158 -92 17 0 -0.124035 0.992278 -96.819661 5.732338 1 0 1
0 8 -92 17 0 -0.124035 0.992278 -95.618851 5.732338 1 0 1
0 8 -68 20 0 -0.124035 0.992278 -95.618851 5.907303 1 0 1
goldeneye_caverns_cavernsconcretefloor02
0 -158 -92 17 0 -0.124035 0.992278 -96.819661 5.732338 1 0 1
0 8 -68 20 0 -0.124035 0.992278 -95.618851 5.907303 1 0 1
0 -158 -68 20 0 -0.124035 0.992278 -96.819661 5.907303 1 0 1
goldeneye_caverns_cavernsconcretefloor02
0 8 -92 16 0 -1 0 94.560258 2.799624 1 0 1
0 8 -92 17 0 -1 0 94.560258 2.79239 1 0 1
0 -158 -92 17 0 -1 0 95.761068 2.79239 1 0 1
goldeneye_caverns_cavernsconcretefloor02
0 8 -92 16 0 -1 0 94.560258 2.799624 1 0 1
0 -158 -92 17 0 -1 0 95.761068 2.79239 1 0 1
0 -158 -92 16 0 -1 0 95.761068 2.799624 1 0 1
props_tarpaperroof002a
0 150 276 158 0 1 0 -167.89388 -1.376302 1 0 1
0 150 276 154 0 1 0 -167.89388 -1.428385 1 0 1
0 148 276 154 0 1 0 -167.919922 -1.428385 1 0 1
props_tarpaperroof002a
0 150 276 158 0 1 0 -167.89388 -1.376302 1 0 1
0 148 276 154 0 1 0 -167.919922 -1.428385 1 0 1
0 148 276 158 0 1 0 -167.919922 -1.376302 1 0 1
props_tarpaperroof002a
0 150 72 154 0 -1 0 -167.89388 -1.428385 1 0 1
0 150 72 158 0 -1 0 -167.89388 -1.376302 1 0 1
0 148 72 158 0 -1 0 -167.919922 -1.376302 1 0 1
props_tarpaperroof002a
0 150 72 154 0 -1 0 -167.89388 -1.428385 1 0 1
0 148 72 158 0 -1 0 -167.919922 -1.376302 1 0 1
0 148 72 154 0 -1 0 -167.919922 -1.428385 1 0 1
props_tarpaperroof002a
0 148 72 154 -1 0 0 -2.602214 -8.873047 1 0 1
0 148 72 158 -1 0 0 -2.55013 -8.873047 1 0 1
0 148 276 158 -1 0 0 -2.55013 -11.529297 1 0 1
props_tarpaperroof002a
0 148 72 154 -1 0 0 -2.602214 -8.873047 1 0 1
0 148 276 158 -1 0 0 -2.55013 -11.529297 1 0 1
0 148 276 154 -1 0 0 -2.602214 -11.529297 1 0 1
props_tarpaperroof002a
0 150 72 158 1 0 0 -2.55013 -8.873047 1 0 1
0 150 72 154 1 0 0 -2.602214 -8.873047 1 0 1
0 150 276 154 1 0 0 -2.602214 -11.529297 1 0 1
props_tarpaperroof002a
0 150 72 158 1 0 0 -2.55013 -8.873047 1 0 1
0 150 276 154 1 0 0 -2.602214 -11.529297 1 0 1
0 150 276 158 1 0 0 -2.55013 -11.529297 1 0 1
props_tarpaperroof002a
0 150 72 154 0 0 -1 -167.89388 -8.607422 1 0 1
0 148 72 154 0 0 -1 -167.919922 -8.607422 1 0 1
0 148 276 154 0 0 -1 -167.919922 -11.263672 1 0 1
props_tarpaperroof002a
0 150 72 154 0 0 -1 -167.89388 -8.607422 1 0 1
0 148 276 154 0 0 -1 -167.919922 -11.263672 1 0 1
0 150 276 154 0 0 -1 -167.89388 -11.263672 1 0 1
props_tarpaperroof002a
0 148 72 158 0 0 1 -167.955078 -8.873047 1 0 1
0 150 72 158 0 0 1 -167.929036 -8.873047 1 0 1
0 150 276 158 0 0 1 -167.929036 -11.529297 1 0 1
props_tarpaperroof002a
0 148 72 158 0 0 1 -167.955078 -8.873047 1 0 1
0 150 276 158 0 0 1 -167.929036 -11.529297 1 0 1
0 148 276 158 0 0 1 -167.955078 -11.529297 1 0 1
goldeneye_caverns_cavernsconcretefloor02
0 -172 -68 0 -1 0 0 3.007161 -3.403935 1 0 1
0 -172 -68 20 -1 0 0 2.862486 -3.403935 1 0 1
0 -172 44 20 -1 0 0 2.862486 -4.21412 1 0 1
goldeneye_caverns_cavernsconcretefloor02
0 -172 -68 0 -1 0 0 3.007161 -3.403935 1 0 1
0 -172 44 20 -1 0 0 2.862486 -4.21412 1 0 1
0 -172 44 0 -1 0 0 3.007161 -4.21412 1 0 1
goldeneye_caverns_cavernsconcretefloor02
0 -172 -68 20 0 0 1 94.948278 -3.151982 1 0 1
0 -158 -68 20 0 0 1 94.847005 -3.151982 1 0 1
0 -158 44 20 0 0 1 94.847005 -3.962167 1 0 1
goldeneye_caverns_cavernsconcretefloor02
0 -172 -68 20 0 0 1 94.948278 -3.151982 1 0 1
0 -158 44 20 0 0 1 94.847005 -3.962167 1 0 1
0 -172 44 20 0 0 1 94.948278 -3.962167 1 0 1
props_tarpaperroof002a
0 1 -304 177 -1 0 0 -3.171875 -0.671875 1 0 1
0 1 -92 177 -1 0 0 -4.828125 -0.671875 1 0 1
0 1 -92 172 -1 0 0 -4.828125 -0.710938 1 0 1
props_tarpaperroof002a
0 1 -304 177 -1 0 0 -3.171875 -0.671875 1 0 1
0 1 -92 172 -1 0 0 -4.828125 -0.710938 1 0 1
0 1 -304 172 -1 0 0 -3.171875 -0.710938 1 0 1
props_tarpaperroof002a
0 1 -304 172 0 0 -1 -3.171875 -100.671875 1 0 1
0 1 -92 172 0 0 -1 -4.828125 -100.671875 1 0 1
0 8 -92 172 0 0 -1 -4.828125 -100.617188 1 0 1
props_tarpaperroof002a
0 1 -304 172 0 0 -1 -3.171875 -100.671875 1 0 1
0 8 -92 172 0 0 -1 -4.828125 -100.617188 1 0 1
0 8 -304 172 0 0 -1 -3.171875 -100.617188 1 0 1
props_tarpaperroof002a
0 8 -304 177 0 0 1 -3.171875 -100.617188 1 0 1
0 8 -92 177 0 0 1 -4.828125 -100.617188 1 0 1
0 1 -92 177 0 0 1 -4.828125 -100.671875 1 0 1
props_tarpaperroof002a
0 8 -304 177 0 0 1 -3.171875 -100.617188 1 0 1
0 1 -92 177 0 0 1 -4.828125 -100.671875 1 0 1
0 1 -304 177 0 0 1 -3.171875 -100.671875 1 0 1
props_tarpaperroof002a
0 8 -92 177 0 1 0 -0.828125 -100.617188 1 0 1
0 8 -92 172 0 1 0 -0.867188 -100.617188 1 0 1
0 1 -92 172 0 1 0 -0.867188 -100.671875 1 0 1
props_tarpaperroof002a
0 8 -92 177 0 1 0 -0.828125 -100.617188 1 0 1
0 1 -92 172 0 1 0 -0.867188 -100.671875 1 0 1
0 1 -92 177 0 1 0 -0.828125 -100.671875 1 0 1
props_tarpaperroof002a
0 8 -304 172 0 -1 0 0.867188 -100.617188 1 0 1
0 8 -304 177 0 -1 0 0.828125 -100.617188 1 0 1
0 1 -304 177 0 -1 0 0.828125 -100.671875 1 0 1
props_tarpaperroof002a
0 8 -304 172 0 -1 0 0.867188 -100.617188 1 0 1
0 1 -304 177 0 -1 0 0.828125 -100.671875 1 0 1
0 1 -304 172 0 -1 0 0.867188 -100.671875 1 0 1
goldeneye_caverns_cavernsconcretefloor02
0 172 -161 292 0 1 0 0.379557 168.521484 1 0 1
0 172 -161 252 0 1 0 0.900391 168.521484 1 0 1
0 168 -161 252 0 1 0 0.900391 168.573568 1 0 1
goldeneye_caverns_cavernsconcretefloor02
0 172 -161 292 0 1 0 0.379557 168.521484 1 0 1
0 168 -161 252 0 1 0 0.900391 168.573568 1 0 1
0 168 -161 292 0 1 0 0.379557 168.573568 1 0 1
goldeneye_caverns_cavernsconcretefloor02
0 168 -168 252 -1 0 0 0.900391 -5.529297 1 0 1
0 168 -168 292 -1 0 0 0.379557 -5.529297 1 0 1
0 168 -161 292 -1 0 0 0.379557 -5.620443 1 0 1
goldeneye_caverns_cavernsconcretefloor02
0 168 -168 252 -1 0 0 0.900391 -5.529297 1 0 1
0 168 -161 292 -1 0 0 0.379557 -5.620443 1 0 1
0 168 -161 252 -1 0 0 0.900391 -5.620443 1 0 1
goldeneye_caverns_cavernsconcretefloor02
0 172 -168 292 1 0 0 0.379557 8.134766 1 0 1
0 172 -168 252 1 0 0 0.900391 8.134766 1 0 1
0 172 -161 252 1 0 0 0.900391 8.225911 1 0 1
goldeneye_caverns_cavernsconcretefloor02
0 172 -168 292 1 0 0 0.379557 8.134766 1 0 1
0 172 -161 252 1 0 0 0.900391 8.225911 1 0 1
0 172 -161 292 1 0 0 0.379557 8.225911 1 0 1
props_tarpaperroof002a
0 150 276 228 0 1 0 100.882812 0.056641 1 0 1
0 150 276 158 0 1 0 100.882812 -0.490234 1 0 1
0 148 276 158 0 1 0 100.898438 -0.490234 1 0 1
props_tarpaperroof002a
0 150 276 228 0 1 0 100.882812 0.056641 1 0 1
0 148 276 158 0 1 0 100.898438 -0.490234 1 0 1
0 148 276 228 0 1 0 100.898438 0.056641 1 0 1
props_tarpaperroof002a
0 150 274 158 0 -1 0 168.014974 -1.598958 1 0 1
0 150 274 228 0 -1 0 168.014974 -0.6875 1 0 1
0 148 274 228 0 -1 0 168.041016 -0.6875 1 0 1
props_tarpaperroof002a
0 150 274 158 0 -1 0 168.014974 -1.598958 1 0 1
0 148 274 228 0 -1 0 168.041016 -0.6875 1 0 1
0 148 274 158 0 -1 0 168.041016 -1.598958 1 0 1
props_tarpaperroof002a
0 148 274 158 -1 0 0 -12.511068 -1.598958 1 0 1
0 148 274 228 -1 0 0 -12.511068 -0.6875 1 0 1
0 148 276 228 -1 0 0 -12.537109 -0.6875 1 0 1
props_tarpaperroof002a
0 148 274 158 -1 0 0 -12.511068 -1.598958 1 0 1
0 148 276 228 -1 0 0 -12.537109 -0.6875 1 0 1
0 148 276 158 -1 0 0 -12.537109 -1.598958 1 0 1
props_tarpaperroof002a
0 150 274 228 1 0 0 -12.511068 -0.6875 1 0 1
0 150 274 158 1 0 0 -12.511068 -1.598958 1 0 1
0 150 276 158 1 0 0 -12.537109 -1.598958 1 0 1
props_tarpaperroof002a
0 150 274 228 1 0 0 -12.511068 -0.6875 1 0 1
0 150 276 158 1 0 0 -12.537109 -1.598958 1 0 1
0 150 276 228 1 0 0 -12.537109 -0.6875 1 0 1
props_tarpaperroof002a
0 150 274 158 0 0 -1 -55.913194 -3.150174 1 0 1
0 148 274 158 0 0 -1 -55.921875 -3.150174 1 0 1
0 148 276 158 0 0 -1 -55.921875 -3.158854 1 0 1
props_tarpaperroof002a
0 150 274 158 0 0 -1 -55.913194 -3.150174 1 0 1
0 148 276 158 0 0 -1 -55.921875 -3.158854 1 0 1
0 150 276 158 0 0 -1 -55.913194 -3.158854 1 0 1
props_tarpaperroof002a
0 148 274 228 0 0 1 -55.921875 -3.150174 1 0 1
0 150 274 228 0 0 1 -55.913194 -3.150174 1 0 1
0 150 276 228 0 0 1 -55.913194 -3.158854 1 0 1
props_tarpaperroof002a
0 148 274 228 0 0 1 -55.921875 -3.150174 1 0 1
0 150 276 228 0 0 1 -55.913194 -3.158854 1 0 1
0 148 276 228 0 0 1 -55.921875 -3.158854 1 0 1
goldeneye_caverns_cavernsconcretefloor02
0 -158 68 17 0 1 0 95.761068 -2.409578 1 0 1
0 -158 68 16 0 1 0 95.761068 -2.416811 1 0 1
0 -172 68 16 0 1 0 95.862341 -2.416811 1 0 1
goldeneye_caverns_cavernsconcretefloor02
0 -158 68 17 0 1 0 95.761068 -2.409578 1 0 1
0 -172 68 16 0 1 0 95.862341 -2.416811 1 0 1
0 -172 68 17 0 1 0 95.862341 -2.409578 1 0 1
goldeneye_caverns_cavernsconcretefloor02
0 -172 44 16 -1 0 0 2.891421 -4.21412 1 0 1
0 -172 44 20 -1 0 0 2.862486 -4.21412 1 0 1
0 -172 68 17 -1 0 0 2.884187 -4.387731 1 0 1
goldeneye_caverns_cavernsconcretefloor02
0 -172 44 16 -1 0 0 2.891421 -4.21412 1 0 1
0 -172 68 17 -1 0 0 2.884187 -4.387731 1 0 1
0 -172 68 16 -1 0 0 2.891421 -4.387731 1 0 1
goldeneye_caverns_cavernsconcretefloor02
0 -172 44 20 0 0.124035 0.992278 94.948278 -4.256881 1 0 1
0 -158 44 20 0 0.124035 0.992278 94.847005 -4.256881 1 0 1
0 -158 68 17 0 0.124035 0.992278 94.847005 -4.431846 1 0 1
goldeneye_caverns_cavernsconcretefloor02
0 -172 44 20 0 0.124035 0.992278 94.948278 -4.256881 1 0 1
0 -158 68 17 0 0.124035 0.992278 94.847005 -4.431846 1 0 1
0 -172 68 17 0 0.124035 0.992278 94.948278 -4.431846 1 0 1
pepsi2_arch_st_sidewalk02
0 -22 -68 20 0 0 1 -73.132533 4.38058 1 0 1
0 8 -68 20 0 0 1 -72.965123 4.38058 1 0 1
0 8 44 20 0 0 1 -72.965123 5.00558 1 0 1
pepsi2_arch_st_sidewalk02
0 -22 -68 20 0 0 1 -73.132533 4.38058 1 0 1
0 8 44 20 0 0 1 -72.965123 5.00558 1 0 1
0 -22 44 20 0 0 1 -73.132533 5.00558 1 0 1
props_tarpaperroof002a
0 150 -96 158 0 1 0 -167.89388 -1.376302 1 0 1
0 150 -96 154 0 1 0 -167.89388 -1.428385 1 0 1
0 148 -96 154 0 1 0 -167.919922 -1.428385 1 0 1
props_tarpaperroof002a
0 150 -96 158 0 1 0 -167.89388 -1.376302 1 0 1
0 148 -96 154 0 1 0 -167.919922 -1.428385 1 0 1
0 148 -96 158 0 1 0 -167.919922 -1.376302 1 0 1
props_tarpaperroof002a
0 150 -300 154 0 -1 0 -167.89388 -1.428385 1 0 1
0 150 -300 158 0 -1 0 -167.89388 -1.376302 1 0 1
0 148 -300 158 0 -1 0 -167.919922 -1.376302 1 0 1
props_tarpaperroof002a
0 150 -300 154 0 -1 0 -167.89388 -1.428385 1 0 1
0 148 -300 158 0 -1 0 -167.919922 -1.376302 1 0 1
0 148 -300 154 0 -1 0 -167.919922 -1.428385 1 0 1
props_tarpaperroof002a
0 148 -300 154 -1 0 0 -2.602214 -3.873047 1 0 1
0 148 -300 158 -1 0 0 -2.55013 -3.873047 1 0 1
0 148 -96 158 -1 0 0 -2.55013 -6.529297 1 0 1
props_tarpaperroof002a
0 148 -300 154 -1 0 0 -2.602214 -3.873047 1 0 1
0 148 -96 158 -1 0 0 -2.55013 -6.529297 1 0 1
0 148 -96 154 -1 0 0 -2.602214 -6.529297 1 0 1
props_tarpaperroof002a
0 150 -300 158 1 0 0 -2.55013 -3.873047 1 0 1
0 150 -300 154 1 0 0 -2.602214 -3.873047 1 0 1
0 150 -96 154 1 0 0 -2.602214 -6.529297 1 0 1
props_tarpaperroof002a
0 150 -300 158 1 0 0 -2.55013 -3.873047 1 0 1
0 150 -96 154 1 0 0 -2.602214 -6.529297 1 0 1
0 150 -96 158 1 0 0 -2.55013 -6.529297 1 0 1
props_tarpaperroof002a
0 150 -300 154 0 0 -1 -167.89388 -3.607422 1 0 1
0 148 -300 154 0 0 -1 -167.919922 -3.607422 1 0 1
0 148 -96 154 0 0 -1 -167.919922 -6.263672 1 0 1
props_tarpaperroof002a
0 150 -300 154 0 0 -1 -167.89388 -3.607422 1 0 1
0 148 -96 154 0 0 -1 -167.919922 -6.263672 1 0 1
0 150 -96 154 0 0 -1 -167.89388 -6.263672 1 0 1
props_tarpaperroof002a
0 148 -300 158 0 0 1 -167.955078 -3.873047 1 0 1
0 150 -300 158 0 0 1 -167.929036 -3.873047 1 0 1
0 150 -96 158 0 0 1 -167.929036 -6.529297 1 0 1
props_tarpaperroof002a
0 148 -300 158 0 0 1 -167.955078 -3.873047 1 0 1
0 150 -96 158 0 0 1 -167.929036 -6.529297 1 0 1
0 148 -96 158 0 0 1 -167.955078 -6.529297 1 0 1
props_tarpaperroof002a
0 150 74 228 0 1 0 100.882812 0.056641 1 0 1
0 150 74 158 0 1 0 100.882812 -0.490234 1 0 1
0 148 74 158 0 1 0 100.898438 -0.490234 1 0 1
props_tarpaperroof002a
0 150 74 228 0 1 0 100.882812 0.056641 1 0 1
0 148 74 158 0 1 0 100.898438 -0.490234 1 0 1
0 148 74 228 0 1 0 100.898438 0.056641 1 0 1
props_tarpaperroof002a
0 150 72 158 0 -1 0 168.014974 -1.598958 1 0 1
0 150 72 228 0 -1 0 168.014974 -0.6875 1 0 1
0 148 72 228 0 -1 0 168.041016 -0.6875 1 0 1
props_tarpaperroof002a
0 150 72 158 0 -1 0 168.014974 -1.598958 1 0 1
0 148 72 228 0 -1 0 168.041016 -0.6875 1 0 1
0 148 72 158 0 -1 0 168.041016 -1.598958 1 0 1
props_tarpaperroof002a
0 148 72 158 -1 0 0 -9.509766 -1.598958 1 0 1
0 148 72 228 -1 0 0 -9.509766 -0.6875 1 0 1
0 148 74 228 -1 0 0 -9.535807 -0.6875 1 0 1
props_tarpaperroof002a
0 148 72 158 -1 0 0 -9.509766 -1.598958 1 0 1
0 148 74 228 -1 0 0 -9.535807 -0.6875 1 0 1
0 148 74 158 -1 0 0 -9.535807 -1.598958 1 0 1
props_tarpaperroof002a
0 150 72 228 1 0 0 -9.509766 -0.6875 1 0 1
0 150 72 158 1 0 0 -9.509766 -1.598958 1 0 1
0 150 74 158 1 0 0 -9.535807 -1.598958 1 0 1
props_tarpaperroof002a
0 150 72 228 1 0 0 -9.509766 -0.6875 1 0 1
0 150 74 158 1 0 0 -9.535807 -1.598958 1 0 1
0 150 74 228 1 0 0 -9.535807 -0.6875 1 0 1
props_tarpaperroof002a
0 150 72 158 0 0 -1 -55.913194 -2.273438 1 0 1
0 148 72 158 0 0 -1 -55.921875 -2.273438 1 0 1
0 148 74 158 0 0 -1 -55.921875 -2.282118 1 0 1
props_tarpaperroof002a
0 150 72 158 0 0 -1 -55.913194 -2.273438 1 0 1
0 148 74 158 0 0 -1 -55.921875 -2.282118 1 0 1
0 150 74 158 0 0 -1 -55.913194 -2.282118 1 0 1
props_tarpaperroof002a
0 148 72 228 0 0 1 -55.921875 -2.273438 1 0 1
0 150 72 228 0 0 1 -55.913194 -2.273438 1 0 1
0 150 74 228 0 0 1 -55.913194 -2.282118 1 0 1
props_tarpaperroof002a
0 148 72 228 0 0 1 -55.921875 -2.273438 1 0 1
0 150 74 228 0 0 1 -55.913194 -2.282118 1 0 1
0 148 74 228 0 0 1 -55.921875 -2.282118 1 0 1
goldeneye_caverns_cavernsconcretefloor02
0 8 280 16 0 -1 0 94.560258 3.108218 1 0 1
0 8 280 17 0 -1 0 94.560258 3.100984 1 0 1
0 -158 280 17 0 -1 0 95.761068 3.100984 1 0 1
goldeneye_caverns_cavernsconcretefloor02
0 8 280 16 0 -1 0 94.560258 3.108218 1 0 1
0 -158 280 17 0 -1 0 95.761068 3.100984 1 0 1
0 -158 280 16 0 -1 0 95.761068 3.108218 1 0 1
goldeneye_caverns_cavernsconcretefloor02
0 -158 280 17 0 -0.124035 0.992278 -96.819661 8.40259 1 0 1
0 8 280 17 0 -0.124035 0.992278 -95.618851 8.40259 1 0 1
0 8 304 20 0 -0.124035 0.992278 -95.618851 8.577555 1 0 1
goldeneye_caverns_cavernsconcretefloor02
0 -158 280 17 0 -0.124035 0.992278 -96.819661 8.40259 1 0 1
0 8 304 20 0 -0.124035 0.992278 -95.618851 8.577555 1 0 1
0 -158 304 20 0 -0.124035 0.992278 -96.819661 8.577555 1 0 1
goldeneye_caverns_cavernsconcretefloor02
0 -158 -92 16 0 -1 0 2.891421 -94.128255 1 0 1
0 -158 -92 17 0 -1 0 2.884187 -94.128255 1 0 1
0 -172 -92 17 0 -1 0 2.884187 -94.229528 1 0 1
goldeneye_caverns_cavernsconcretefloor02
0 -158 -92 16 0 -1 0 2.891421 -94.128255 1 0 1
0 -172 -92 17 0 -1 0 2.884187 -94.229528 1 0 1
0 -172 -92 16 0 -1 0 2.891421 -94.229528 1 0 1
goldeneye_caverns_cavernsconcretefloor02
0 -172 -92 16 -1 0 0 2.891421 -3.230324 1 0 1
0 -172 -92 17 -1 0 0 2.884187 -3.230324 1 0 1
0 -172 -68 20 -1 0 0 2.862486 -3.403935 1 0 1
goldeneye_caverns_cavernsconcretefloor02
0 -172 -92 16 -1 0 0 2.891421 -3.230324 1 0 1
0 -172 -68 20 -1 0 0 2.862486 -3.403935 1 0 1
0 -172 -68 16 -1 0 0 2.891421 -3.403935 1 0 1
goldeneye_caverns_cavernsconcretefloor02
0 -172 -92 17 0 -0.124035 0.992278 94.948278 -2.603432 1 0 1
0 -158 -92 17 0 -0.124035 0.992278 94.847005 -2.603432 1 0 1
0 -158 -68 20 0 -0.124035 0.992278 94.847005 -2.778397 1 0 1
goldeneye_caverns_cavernsconcretefloor02
0 -172 -92 17 0 -0.124035 0.992278 94.948278 -2.603432 1 0 1
0 -158 -68 20 0 -0.124035 0.992278 94.847005 -2.778397 1 0 1
0 -172 -68 20 0 -0.124035 0.992278 94.948278 -2.778397 1 0 1
props_tarpaperroof002a
0 16 -98 158 -1 0 0 -4.859375 -0.859375 1 0 1
0 16 -96 158 -1 0 0 -4.875 -0.859375 1 0 1
0 16 -96 154 -1 0 0 -4.875 -0.890625 1 0 1
props_tarpaperroof002a
0 16 -98 158 -1 0 0 -4.859375 -0.859375 1 0 1
0 16 -96 154 -1 0 0 -4.875 -0.890625 1 0 1
0 16 -98 154 -1 0 0 -4.859375 -0.890625 1 0 1
props_tarpaperroof002a
0 148 -98 154 1 0 0 4.859375 -0.890625 1 0 1
0 148 -96 154 1 0 0 4.875 -0.890625 1 0 1
0 148 -96 158 1 0 0 4.875 -0.859375 1 0 1
props_tarpaperroof002a
0 148 -98 154 1 0 0 4.859375 -0.890625 1 0 1
0 148 -96 158 1 0 0 4.875 -0.859375 1 0 1
0 148 -98 158 1 0 0 4.859375 -0.859375 1 0 1
props_tarpaperroof002a
0 16 -98 154 0 0 -1 -7.71224 170.886719 1 0 1
0 16 -96 154 0 0 -1 -7.738281 170.886719 1 0 1
0 148 -96 154 0 0 -1 -7.738281 169.167969 1 0 1
props_tarpaperroof002a
0 16 -98 154 0 0 -1 -7.71224 170.886719 1 0 1
0 148 -96 154 0 0 -1 -7.738281 169.167969 1 0 1
0 148 -98 154 0 0 -1 -7.71224 169.167969 1 0 1
props_tarpaperroof002a
0 148 -98 158 0 0 1 -7.932943 169.167969 1 0 1
0 148 -96 158 0 0 1 -7.958984 169.167969 1 0 1
0 16 -96 158 0 0 1 -7.958984 170.886719 1 0 1
props_tarpaperroof002a
0 148 -98 158 0 0 1 -7.932943 169.167969 1 0 1
0 16 -96 158 0 0 1 -7.958984 170.886719 1 0 1
0 16 -98 158 0 0 1 -7.932943 170.886719 1 0 1
props_tarpaperroof002a
0 148 -96 158 0 1 0 -2.55013 169.167969 1 0 1
0 148 -96 154 0 1 0 -2.602214 169.167969 1 0 1
0 16 -96 154 0 1 0 -2.602214 170.886719 1 0 1
props_tarpaperroof002a
0 148 -96 158 0 1 0 -2.55013 169.167969 1 0 1
0 16 -96 154 0 1 0 -2.602214 170.886719 1 0 1
0 16 -96 158 0 1 0 -2.55013 170.886719 1 0 1
props_tarpaperroof002a
0 148 -98 154 0 -1 0 -2.602214 169.167969 1 0 1
0 148 -98 158 0 -1 0 -2.55013 169.167969 1 0 1
0 16 -98 158 0 -1 0 -2.55013 170.886719 1 0 1
props_tarpaperroof002a
0 148 -98 154 0 -1 0 -2.602214 169.167969 1 0 1
0 16 -98 158 0 -1 0 -2.55013 170.886719 1 0 1
0 16 -98 154 0 -1 0 -2.602214 170.886719 1 0 1
pepsi2_arch_st_sidewalk02
0 -158 -68 20 0 0 1 -73.891462 4.38058 1 0 1
0 -22 -68 20 0 0 1 -73.132533 4.38058 1 0 1
0 -22 44 20 0 0 1 -73.132533 5.00558 1 0 1
pepsi2_arch_st_sidewalk02
0 -158 -68 20 0 0 1 -73.891462 4.38058 1 0 1
0 -22 44 20 0 0 1 -73.132533 5.00558 1 0 1
0 -158 44 20 0 0 1 -73.891462 5.00558 1 0 1
end
