version 1
nodes
0 "root" -1
end
skeleton
time 0
0 0 0 0 0 0 0
end
triangles
phys
0 -54 429 59 0 0 1 1 0 1 0 1
0 -54 429 27 0 0 1 1 0 1 0 1
0 -56 429 27 0 0 1 1 0 1 0 1
phys
0 -54 429 59 0 0 1 1 0 1 0 1
0 -56 429 27 0 0 1 1 0 1 0 1
0 -56 429 59 0 0 1 1 0 1 0 1
phys
0 -54 192 27 0 0 1 1 0 1 0 1
0 -54 192 59 0 0 1 1 0 1 0 1
0 -56 192 59 0 0 1 1 0 1 0 1
phys
0 -54 192 27 0 0 1 1 0 1 0 1
0 -56 192 59 0 0 1 1 0 1 0 1
0 -56 192 27 0 0 1 1 0 1 0 1
phys
0 -56 192 27 0 0 1 1 0 1 0 1
0 -56 192 59 0 0 1 1 0 1 0 1
0 -56 429 59 0 0 1 1 0 1 0 1
phys
0 -56 192 27 0 0 1 1 0 1 0 1
0 -56 429 59 0 0 1 1 0 1 0 1
0 -56 429 27 0 0 1 1 0 1 0 1
phys
0 -54 192 59 0 0 1 1 0 1 0 1
0 -54 192 27 0 0 1 1 0 1 0 1
0 -54 429 27 0 0 1 1 0 1 0 1
phys
0 -54 192 59 0 0 1 1 0 1 0 1
0 -54 429 27 0 0 1 1 0 1 0 1
0 -54 429 59 0 0 1 1 0 1 0 1
phys
0 -54 192 27 0 0 1 1 0 1 0 1
0 -56 192 27 0 0 1 1 0 1 0 1
0 -56 429 27 0 0 1 1 0 1 0 1
phys
0 -54 192 27 0 0 1 1 0 1 0 1
0 -56 429 27 0 0 1 1 0 1 0 1
0 -54 429 27 0 0 1 1 0 1 0 1
phys
0 -56 192 59 0 0 1 1 0 1 0 1
0 -54 192 59 0 0 1 1 0 1 0 1
0 -54 429 59 0 0 1 1 0 1 0 1
phys
0 -56 192 59 0 0 1 1 0 1 0 1
0 -54 429 59 0 0 1 1 0 1 0 1
0 -56 429 59 0 0 1 1 0 1 0 1
phys
0 84 -176 -8 0 0 1 2 0 1 0 1
0 84 176 -8 0 0 1 2 0 1 0 1
0 84 176 -16 0 0 1 2 0 1 0 1
phys
0 84 -176 -8 0 0 1 2 0 1 0 1
0 84 176 -16 0 0 1 2 0 1 0 1
0 84 -176 -16 0 0 1 2 0 1 0 1
phys
0 100 -192 -16 0 0 1 2 0 1 0 1
0 100 192 -16 0 0 1 2 0 1 0 1
0 100 192 -8 0 0 1 2 0 1 0 1
phys
0 100 -192 -16 0 0 1 2 0 1 0 1
0 100 192 -8 0 0 1 2 0 1 0 1
0 100 -192 -8 0 0 1 2 0 1 0 1
phys
0 84 -176 -16 0 0 1 2 0 1 0 1
0 84 176 -16 0 0 1 2 0 1 0 1
0 100 192 -16 0 0 1 2 0 1 0 1
phys
0 84 -176 -16 0 0 1 2 0 1 0 1
0 100 192 -16 0 0 1 2 0 1 0 1
0 100 -192 -16 0 0 1 2 0 1 0 1
phys
0 100 -192 -8 0 0 1 2 0 1 0 1
0 100 192 -8 0 0 1 2 0 1 0 1
0 84 176 -8 0 0 1 2 0 1 0 1
phys
0 100 -192 -8 0 0 1 2 0 1 0 1
0 84 176 -8 0 0 1 2 0 1 0 1
0 84 -176 -8 0 0 1 2 0 1 0 1
phys
0 100 -192 -16 0 0 1 2 0 1 0 1
0 100 -192 -8 0 0 1 2 0 1 0 1
0 84 -176 -8 0 0 1 2 0 1 0 1
phys
0 100 -192 -16 0 0 1 2 0 1 0 1
0 84 -176 -8 0 0 1 2 0 1 0 1
0 84 -176 -16 0 0 1 2 0 1 0 1
phys
0 84 176 -16 0 0 1 2 0 1 0 1
0 84 176 -8 0 0 1 2 0 1 0 1
0 100 192 -8 0 0 1 2 0 1 0 1
phys
0 84 176 -16 0 0 1 2 0 1 0 1
0 100 192 -8 0 0 1 2 0 1 0 1
0 100 192 -16 0 0 1 2 0 1 0 1
phys
0 84 176 -8 0 0 1 3 0 1 0 1
0 -52 176 -8 0 0 1 3 0 1 0 1
0 -52 176 -16 0 0 1 3 0 1 0 1
phys
0 84 176 -8 0 0 1 3 0 1 0 1
0 -52 176 -16 0 0 1 3 0 1 0 1
0 84 176 -16 0 0 1 3 0 1 0 1
phys
0 -52 176 -16 0 0 1 3 0 1 0 1
0 -52 176 -8 0 0 1 3 0 1 0 1
0 -52 192 -8 0 0 1 3 0 1 0 1
phys
0 -52 176 -16 0 0 1 3 0 1 0 1
0 -52 192 -8 0 0 1 3 0 1 0 1
0 -52 192 -16 0 0 1 3 0 1 0 1
phys
0 100 192 -16 0 0 1 3 0 1 0 1
0 84 176 -16 0 0 1 3 0 1 0 1
0 -52 176 -16 0 0 1 3 0 1 0 1
phys
0 100 192 -16 0 0 1 3 0 1 0 1
0 -52 176 -16 0 0 1 3 0 1 0 1
0 -52 192 -16 0 0 1 3 0 1 0 1
phys
0 -52 176 -8 0 0 1 3 0 1 0 1
0 84 176 -8 0 0 1 3 0 1 0 1
0 100 192 -8 0 0 1 3 0 1 0 1
phys
0 -52 176 -8 0 0 1 3 0 1 0 1
0 100 192 -8 0 0 1 3 0 1 0 1
0 -52 192 -8 0 0 1 3 0 1 0 1
phys
0 84 176 -8 0 0 1 3 0 1 0 1
0 84 176 -16 0 0 1 3 0 1 0 1
0 100 192 -16 0 0 1 3 0 1 0 1
phys
0 84 176 -8 0 0 1 3 0 1 0 1
0 100 192 -16 0 0 1 3 0 1 0 1
0 100 192 -8 0 0 1 3 0 1 0 1
phys
0 100 192 -16 0 0 1 3 0 1 0 1
0 -52 192 -16 0 0 1 3 0 1 0 1
0 -52 192 -8 0 0 1 3 0 1 0 1
phys
0 100 192 -16 0 0 1 3 0 1 0 1
0 -52 192 -8 0 0 1 3 0 1 0 1
0 100 192 -8 0 0 1 3 0 1 0 1
phys
0 -52 429 16 0 0 1 4 0 1 0 1
0 -52 435 16 0 0 1 4 0 1 0 1
0 -52 435 59 0 0 1 4 0 1 0 1
phys
0 -52 429 16 0 0 1 4 0 1 0 1
0 -52 435 59 0 0 1 4 0 1 0 1
0 -52 429 59 0 0 1 4 0 1 0 1
phys
0 -58 435 16 0 0 1 4 0 1 0 1
0 -52 435 16 0 0 1 4 0 1 0 1
0 -52 429 16 0 0 1 4 0 1 0 1
phys
0 -58 435 16 0 0 1 4 0 1 0 1
0 -52 429 16 0 0 1 4 0 1 0 1
0 -58 429 16 0 0 1 4 0 1 0 1
phys
0 -58 429 59 0 0 1 4 0 1 0 1
0 -52 429 59 0 0 1 4 0 1 0 1
0 -52 435 59 0 0 1 4 0 1 0 1
phys
0 -58 429 59 0 0 1 4 0 1 0 1
0 -52 435 59 0 0 1 4 0 1 0 1
0 -58 435 59 0 0 1 4 0 1 0 1
phys
0 -52 435 59 0 0 1 4 0 1 0 1
0 -52 435 16 0 0 1 4 0 1 0 1
0 -58 435 16 0 0 1 4 0 1 0 1
phys
0 -52 435 59 0 0 1 4 0 1 0 1
0 -58 435 16 0 0 1 4 0 1 0 1
0 -58 435 59 0 0 1 4 0 1 0 1
phys
0 -52 429 16 0 0 1 4 0 1 0 1
0 -52 429 59 0 0 1 4 0 1 0 1
0 -58 429 59 0 0 1 4 0 1 0 1
phys
0 -52 429 16 0 0 1 4 0 1 0 1
0 -58 429 59 0 0 1 4 0 1 0 1
0 -58 429 16 0 0 1 4 0 1 0 1
phys
0 -58 429 59 0 0 1 4 0 1 0 1
0 -58 435 59 0 0 1 4 0 1 0 1
0 -58 435 16 0 0 1 4 0 1 0 1
phys
0 -58 429 59 0 0 1 4 0 1 0 1
0 -58 435 16 0 0 1 4 0 1 0 1
0 -58 429 16 0 0 1 4 0 1 0 1
phys
0 68 -160 0 0 0 1 5 0 1 0 1
0 68 160 0 0 0 1 5 0 1 0 1
0 68 160 -16 0 0 1 5 0 1 0 1
phys
0 68 -160 0 0 0 1 5 0 1 0 1
0 68 160 -16 0 0 1 5 0 1 0 1
0 68 -160 -16 0 0 1 5 0 1 0 1
phys
0 84 -176 -16 0 0 1 5 0 1 0 1
0 84 176 -16 0 0 1 5 0 1 0 1
0 84 176 0 0 0 1 5 0 1 0 1
phys
0 84 -176 -16 0 0 1 5 0 1 0 1
0 84 176 0 0 0 1 5 0 1 0 1
0 84 -176 0 0 0 1 5 0 1 0 1
phys
0 68 -160 -16 0 0 1 5 0 1 0 1
0 68 160 -16 0 0 1 5 0 1 0 1
0 84 176 -16 0 0 1 5 0 1 0 1
phys
0 68 -160 -16 0 0 1 5 0 1 0 1
0 84 176 -16 0 0 1 5 0 1 0 1
0 84 -176 -16 0 0 1 5 0 1 0 1
phys
0 84 -176 0 0 0 1 5 0 1 0 1
0 84 176 0 0 0 1 5 0 1 0 1
0 68 160 0 0 0 1 5 0 1 0 1
phys
0 84 -176 0 0 0 1 5 0 1 0 1
0 68 160 0 0 0 1 5 0 1 0 1
0 68 -160 0 0 0 1 5 0 1 0 1
phys
0 68 160 -16 0 0 1 5 0 1 0 1
0 68 160 0 0 0 1 5 0 1 0 1
0 84 176 0 0 0 1 5 0 1 0 1
phys
0 68 160 -16 0 0 1 5 0 1 0 1
0 84 176 0 0 0 1 5 0 1 0 1
0 84 176 -16 0 0 1 5 0 1 0 1
phys
0 84 -176 -16 0 0 1 5 0 1 0 1
0 84 -176 0 0 0 1 5 0 1 0 1
0 68 -160 0 0 0 1 5 0 1 0 1
phys
0 84 -176 -16 0 0 1 5 0 1 0 1
0 68 -160 0 0 0 1 5 0 1 0 1
0 68 -160 -16 0 0 1 5 0 1 0 1
phys
0 84 176 -16 0 0 1 6 0 1 0 1
0 -52 176 -16 0 0 1 6 0 1 0 1
0 -52 176 0 0 0 1 6 0 1 0 1
phys
0 84 176 -16 0 0 1 6 0 1 0 1
0 -52 176 0 0 0 1 6 0 1 0 1
0 84 176 0 0 0 1 6 0 1 0 1
phys
0 68 160 0 0 0 1 6 0 1 0 1
0 -52 160 0 0 0 1 6 0 1 0 1
0 -52 160 -16 0 0 1 6 0 1 0 1
phys
0 68 160 0 0 0 1 6 0 1 0 1
0 -52 160 -16 0 0 1 6 0 1 0 1
0 68 160 -16 0 0 1 6 0 1 0 1
phys
0 -52 160 -16 0 0 1 6 0 1 0 1
0 -52 160 0 0 0 1 6 0 1 0 1
0 -52 176 0 0 0 1 6 0 1 0 1
phys
0 -52 160 -16 0 0 1 6 0 1 0 1
0 -52 176 0 0 0 1 6 0 1 0 1
0 -52 176 -16 0 0 1 6 0 1 0 1
phys
0 68 160 -16 0 0 1 6 0 1 0 1
0 -52 160 -16 0 0 1 6 0 1 0 1
0 -52 176 -16 0 0 1 6 0 1 0 1
phys
0 68 160 -16 0 0 1 6 0 1 0 1
0 -52 176 -16 0 0 1 6 0 1 0 1
0 84 176 -16 0 0 1 6 0 1 0 1
phys
0 -52 160 0 0 0 1 6 0 1 0 1
0 68 160 0 0 0 1 6 0 1 0 1
0 84 176 0 0 0 1 6 0 1 0 1
phys
0 -52 160 0 0 0 1 6 0 1 0 1
0 84 176 0 0 0 1 6 0 1 0 1
0 -52 176 0 0 0 1 6 0 1 0 1
phys
0 68 160 0 0 0 1 6 0 1 0 1
0 68 160 -16 0 0 1 6 0 1 0 1
0 84 176 -16 0 0 1 6 0 1 0 1
phys
0 68 160 0 0 0 1 6 0 1 0 1
0 84 176 -16 0 0 1 6 0 1 0 1
0 84 176 0 0 0 1 6 0 1 0 1
phys
0 -52 144 16 0 0 1 7 0 1 0 1
0 -52 144 59 0 0 1 7 0 1 0 1
0 -80 144 59 0 0 1 7 0 1 0 1
phys
0 -52 144 16 0 0 1 7 0 1 0 1
0 -80 144 59 0 0 1 7 0 1 0 1
0 -80 144 16 0 0 1 7 0 1 0 1
phys
0 -88 152 59 0 0 1 7 0 1 0 1
0 -88 184 59 0 0 1 7 0 1 0 1
0 -88 184 16 0 0 1 7 0 1 0 1
phys
0 -88 152 59 0 0 1 7 0 1 0 1
0 -88 184 16 0 0 1 7 0 1 0 1
0 -88 152 16 0 0 1 7 0 1 0 1
phys
0 -52 144 59 0 0 1 7 0 1 0 1
0 -52 144 16 0 0 1 7 0 1 0 1
0 -52 192 16 0 0 1 7 0 1 0 1
phys
0 -52 144 59 0 0 1 7 0 1 0 1
0 -52 192 16 0 0 1 7 0 1 0 1
0 -52 192 59 0 0 1 7 0 1 0 1
phys
0 -52 144 16 0 0 1 7 0 1 0 1
0 -80 144 16 0 0 1 7 0 1 0 1
0 -88 152 16 0 0 1 7 0 1 0 1
phys
0 -52 144 16 0 0 1 7 0 1 0 1
0 -88 152 16 0 0 1 7 0 1 0 1
0 -88 184 16 0 0 1 7 0 1 0 1
phys
0 -52 144 16 0 0 1 7 0 1 0 1
0 -88 184 16 0 0 1 7 0 1 0 1
0 -80 192 16 0 0 1 7 0 1 0 1
phys
0 -52 144 16 0 0 1 7 0 1 0 1
0 -80 192 16 0 0 1 7 0 1 0 1
0 -52 192 16 0 0 1 7 0 1 0 1
phys
0 -80 144 59 0 0 1 7 0 1 0 1
0 -52 144 59 0 0 1 7 0 1 0 1
0 -52 192 59 0 0 1 7 0 1 0 1
phys
0 -80 144 59 0 0 1 7 0 1 0 1
0 -52 192 59 0 0 1 7 0 1 0 1
0 -80 192 59 0 0 1 7 0 1 0 1
phys
0 -80 144 59 0 0 1 7 0 1 0 1
0 -80 192 59 0 0 1 7 0 1 0 1
0 -88 184 59 0 0 1 7 0 1 0 1
phys
0 -80 144 59 0 0 1 7 0 1 0 1
0 -88 184 59 0 0 1 7 0 1 0 1
0 -88 152 59 0 0 1 7 0 1 0 1
phys
0 -80 144 16 0 0 1 7 0 1 0 1
0 -80 144 59 0 0 1 7 0 1 0 1
0 -88 152 59 0 0 1 7 0 1 0 1
phys
0 -80 144 16 0 0 1 7 0 1 0 1
0 -88 152 59 0 0 1 7 0 1 0 1
0 -88 152 16 0 0 1 7 0 1 0 1
phys
0 -88 184 16 0 0 1 7 0 1 0 1
0 -88 184 59 0 0 1 7 0 1 0 1
0 -80 192 59 0 0 1 7 0 1 0 1
phys
0 -88 184 16 0 0 1 7 0 1 0 1
0 -80 192 59 0 0 1 7 0 1 0 1
0 -80 192 16 0 0 1 7 0 1 0 1
phys
0 -52 192 59 0 0 1 7 0 1 0 1
0 -52 192 16 0 0 1 7 0 1 0 1
0 -80 192 16 0 0 1 7 0 1 0 1
phys
0 -52 192 59 0 0 1 7 0 1 0 1
0 -80 192 16 0 0 1 7 0 1 0 1
0 -80 192 59 0 0 1 7 0 1 0 1
phys
0 68 160 -16 0 0 1 8 0 1 0 1
0 -52 160 -16 0 0 1 8 0 1 0 1
0 -52 160 8 0 0 1 8 0 1 0 1
phys
0 68 160 -16 0 0 1 8 0 1 0 1
0 -52 160 8 0 0 1 8 0 1 0 1
0 68 160 8 0 0 1 8 0 1 0 1
phys
0 52 144 8 0 0 1 8 0 1 0 1
0 -52 144 8 0 0 1 8 0 1 0 1
0 -52 144 -16 0 0 1 8 0 1 0 1
phys
0 52 144 8 0 0 1 8 0 1 0 1
0 -52 144 -16 0 0 1 8 0 1 0 1
0 52 144 -16 0 0 1 8 0 1 0 1
phys
0 -52 144 -16 0 0 1 8 0 1 0 1
0 -52 144 8 0 0 1 8 0 1 0 1
0 -52 160 8 0 0 1 8 0 1 0 1
phys
0 -52 144 -16 0 0 1 8 0 1 0 1
0 -52 160 8 0 0 1 8 0 1 0 1
0 -52 160 -16 0 0 1 8 0 1 0 1
phys
0 52 144 -16 0 0 1 8 0 1 0 1
0 -52 144 -16 0 0 1 8 0 1 0 1
0 -52 160 -16 0 0 1 8 0 1 0 1
phys
0 52 144 -16 0 0 1 8 0 1 0 1
0 -52 160 -16 0 0 1 8 0 1 0 1
0 68 160 -16 0 0 1 8 0 1 0 1
phys
0 -52 144 8 0 0 1 8 0 1 0 1
0 52 144 8 0 0 1 8 0 1 0 1
0 68 160 8 0 0 1 8 0 1 0 1
phys
0 -52 144 8 0 0 1 8 0 1 0 1
0 68 160 8 0 0 1 8 0 1 0 1
0 -52 160 8 0 0 1 8 0 1 0 1
phys
0 52 144 8 0 0 1 8 0 1 0 1
0 52 144 -16 0 0 1 8 0 1 0 1
0 68 160 -16 0 0 1 8 0 1 0 1
phys
0 52 144 8 0 0 1 8 0 1 0 1
0 68 160 -16 0 0 1 8 0 1 0 1
0 68 160 8 0 0 1 8 0 1 0 1
phys
0 52 -144 8 0 0 1 9 0 1 0 1
0 52 144 8 0 0 1 9 0 1 0 1
0 52 144 -16 0 0 1 9 0 1 0 1
phys
0 52 -144 8 0 0 1 9 0 1 0 1
0 52 144 -16 0 0 1 9 0 1 0 1
0 52 -144 -16 0 0 1 9 0 1 0 1
phys
0 68 -160 -16 0 0 1 9 0 1 0 1
0 68 160 -16 0 0 1 9 0 1 0 1
0 68 160 8 0 0 1 9 0 1 0 1
phys
0 68 -160 -16 0 0 1 9 0 1 0 1
0 68 160 8 0 0 1 9 0 1 0 1
0 68 -160 8 0 0 1 9 0 1 0 1
phys
0 52 -144 -16 0 0 1 9 0 1 0 1
0 52 144 -16 0 0 1 9 0 1 0 1
0 68 160 -16 0 0 1 9 0 1 0 1
phys
0 52 -144 -16 0 0 1 9 0 1 0 1
0 68 160 -16 0 0 1 9 0 1 0 1
0 68 -160 -16 0 0 1 9 0 1 0 1
phys
0 68 -160 8 0 0 1 9 0 1 0 1
0 68 160 8 0 0 1 9 0 1 0 1
0 52 144 8 0 0 1 9 0 1 0 1
phys
0 68 -160 8 0 0 1 9 0 1 0 1
0 52 144 8 0 0 1 9 0 1 0 1
0 52 -144 8 0 0 1 9 0 1 0 1
phys
0 68 -160 -16 0 0 1 9 0 1 0 1
0 68 -160 8 0 0 1 9 0 1 0 1
0 52 -144 8 0 0 1 9 0 1 0 1
phys
0 68 -160 -16 0 0 1 9 0 1 0 1
0 52 -144 8 0 0 1 9 0 1 0 1
0 52 -144 -16 0 0 1 9 0 1 0 1
phys
0 52 144 -16 0 0 1 9 0 1 0 1
0 52 144 8 0 0 1 9 0 1 0 1
0 68 160 8 0 0 1 9 0 1 0 1
phys
0 52 144 -16 0 0 1 9 0 1 0 1
0 68 160 8 0 0 1 9 0 1 0 1
0 68 160 -16 0 0 1 9 0 1 0 1
phys
0 -52 429 27 0 0 1 10 0 1 0 1
0 -52 429 16 0 0 1 10 0 1 0 1
0 -58 429 16 0 0 1 10 0 1 0 1
phys
0 -52 429 27 0 0 1 10 0 1 0 1
0 -58 429 16 0 0 1 10 0 1 0 1
0 -58 429 27 0 0 1 10 0 1 0 1
phys
0 -52 192 16 0 0 1 10 0 1 0 1
0 -52 192 27 0 0 1 10 0 1 0 1
0 -58 192 27 0 0 1 10 0 1 0 1
phys
0 -52 192 16 0 0 1 10 0 1 0 1
0 -58 192 27 0 0 1 10 0 1 0 1
0 -58 192 16 0 0 1 10 0 1 0 1
phys
0 -58 192 16 0 0 1 10 0 1 0 1
0 -58 192 27 0 0 1 10 0 1 0 1
0 -58 429 27 0 0 1 10 0 1 0 1
phys
0 -58 192 16 0 0 1 10 0 1 0 1
0 -58 429 27 0 0 1 10 0 1 0 1
0 -58 429 16 0 0 1 10 0 1 0 1
phys
0 -52 192 27 0 0 1 10 0 1 0 1
0 -52 192 16 0 0 1 10 0 1 0 1
0 -52 429 16 0 0 1 10 0 1 0 1
phys
0 -52 192 27 0 0 1 10 0 1 0 1
0 -52 429 16 0 0 1 10 0 1 0 1
0 -52 429 27 0 0 1 10 0 1 0 1
phys
0 -52 192 16 0 0 1 10 0 1 0 1
0 -58 192 16 0 0 1 10 0 1 0 1
0 -58 429 16 0 0 1 10 0 1 0 1
phys
0 -52 192 16 0 0 1 10 0 1 0 1
0 -58 429 16 0 0 1 10 0 1 0 1
0 -52 429 16 0 0 1 10 0 1 0 1
phys
0 -58 192 27 0 0 1 10 0 1 0 1
0 -52 192 27 0 0 1 10 0 1 0 1
0 -52 429 27 0 0 1 10 0 1 0 1
phys
0 -58 192 27 0 0 1 10 0 1 0 1
0 -52 429 27 0 0 1 10 0 1 0 1
0 -58 429 27 0 0 1 10 0 1 0 1
phys
0 52 144 16 0 0 1 11 0 1 0 1
0 52 144 -16 0 0 1 11 0 1 0 1
0 -52 144 -16 0 0 1 11 0 1 0 1
phys
0 52 144 16 0 0 1 11 0 1 0 1
0 -52 144 -16 0 0 1 11 0 1 0 1
0 -52 144 16 0 0 1 11 0 1 0 1
phys
0 52 -144 -16 0 0 1 11 0 1 0 1
0 52 -144 16 0 0 1 11 0 1 0 1
0 -52 -144 16 0 0 1 11 0 1 0 1
phys
0 52 -144 -16 0 0 1 11 0 1 0 1
0 -52 -144 16 0 0 1 11 0 1 0 1
0 -52 -144 -16 0 0 1 11 0 1 0 1
phys
0 -52 -144 -16 0 0 1 11 0 1 0 1
0 -52 -144 16 0 0 1 11 0 1 0 1
0 -52 144 16 0 0 1 11 0 1 0 1
phys
0 -52 -144 -16 0 0 1 11 0 1 0 1
0 -52 144 16 0 0 1 11 0 1 0 1
0 -52 144 -16 0 0 1 11 0 1 0 1
phys
0 52 -144 16 0 0 1 11 0 1 0 1
0 52 -144 -16 0 0 1 11 0 1 0 1
0 52 144 -16 0 0 1 11 0 1 0 1
phys
0 52 -144 16 0 0 1 11 0 1 0 1
0 52 144 -16 0 0 1 11 0 1 0 1
0 52 144 16 0 0 1 11 0 1 0 1
phys
0 52 -144 -16 0 0 1 11 0 1 0 1
0 -52 -144 -16 0 0 1 11 0 1 0 1
0 -52 144 -16 0 0 1 11 0 1 0 1
phys
0 52 -144 -16 0 0 1 11 0 1 0 1
0 -52 144 -16 0 0 1 11 0 1 0 1
0 52 144 -16 0 0 1 11 0 1 0 1
phys
0 -52 -144 16 0 0 1 11 0 1 0 1
0 52 -144 16 0 0 1 11 0 1 0 1
0 52 144 16 0 0 1 11 0 1 0 1
phys
0 -52 -144 16 0 0 1 11 0 1 0 1
0 52 144 16 0 0 1 11 0 1 0 1
0 -52 144 16 0 0 1 11 0 1 0 1
end
