version 1
nodes
0 "root" -1
end
skeleton
time 0
0 0 0 0 0 0 0
end
triangles
wood_woodwall_016
0 -0.22 135.7 0.108 0 1 0 -21.744258 -2.772734 1 0 1
0 -240.21 135.7 0.108 0 1 0 -20.806797 -2.772734 1 0 1
0 -240.21 135.7 120.108 0 1 0 -20.806797 -1.991484 1 0 1
wood_woodwall_016
0 -0.22 135.7 0.108 0 1 0 -21.744258 -2.772734 1 0 1
0 -240.21 135.7 120.108 0 1 0 -20.806797 -1.991484 1 0 1
0 -0.22 135.7 120.108 0 1 0 -21.744258 -1.991484 1 0 1
wood_woodwall_016
0 -8.22 127.7 120.108 0 -1 0 -21.713008 -1.991484 1 0 1
0 -240.21 127.7 120.108 0 -1 0 -20.806797 -1.991484 1 0 1
0 -240.21 127.7 0.108 0 -1 0 -20.806797 -2.772734 1 0 1
wood_woodwall_016
0 -8.22 127.7 120.108 0 -1 0 -21.713008 -1.991484 1 0 1
0 -240.21 127.7 0.108 0 -1 0 -20.806797 -2.772734 1 0 1
0 -8.22 127.7 0.108 0 -1 0 -21.713008 -2.772734 1 0 1
wood_cabinets03
0 -80.22 175.7 40.108 0 1 0 -99.97425 -7.998533 1 0 1
0 -80.22 175.7 0.108 0 1 0 -99.97425 -8.665129 1 0 1
0 -212.22 175.7 0.108 0 1 0 -97.508324 -8.665129 1 0 1
wood_cabinets03
0 -80.22 175.7 40.108 0 1 0 -99.97425 -7.998533 1 0 1
0 -212.22 175.7 0.108 0 1 0 -97.508324 -8.665129 1 0 1
0 -212.22 175.7 40.108 0 1 0 -97.508324 -7.998533 1 0 1
wood_cabinets04
0 -212.22 135.7 0.108 -1 0 0 92.163396 -10.817887 1 0 1
0 -212.22 135.7 40.108 -1 0 0 92.163396 -9.995518 1 0 1
0 -212.22 175.7 40.108 -1 0 0 93.274704 -9.995518 1 0 1
wood_cabinets04
0 -212.22 135.7 0.108 -1 0 0 92.163396 -10.817887 1 0 1
0 -212.22 175.7 40.108 -1 0 0 93.274704 -9.995518 1 0 1
0 -212.22 175.7 0.108 -1 0 0 93.274704 -10.817887 1 0 1
wood_cabinets04
0 -80.22 135.7 40.108 1 0 0 92.163396 -9.995518 1 0 1
0 -80.22 135.7 0.108 1 0 0 92.163396 -10.817887 1 0 1
0 -80.22 175.7 0.108 1 0 0 93.274704 -10.817887 1 0 1
wood_cabinets04
0 -80.22 135.7 40.108 1 0 0 92.163396 -9.995518 1 0 1
0 -80.22 175.7 0.108 1 0 0 93.274704 -10.817887 1 0 1
0 -80.22 175.7 40.108 1 0 0 93.274704 -9.995518 1 0 1
realworldtextures2_misc_granite_03
0 -212.22 135.7 40.108 0 0 1 -40.711172 -25.798437 1 0 1
0 -80.22 135.7 40.108 0 0 1 -41.742422 -25.798437 1 0 1
0 -80.22 175.7 40.108 0 0 1 -41.742422 -26.110937 1 0 1
realworldtextures2_misc_granite_03
0 -212.22 135.7 40.108 0 0 1 -40.711172 -25.798437 1 0 1
0 -80.22 175.7 40.108 0 0 1 -41.742422 -26.110937 1 0 1
0 -212.22 175.7 40.108 0 0 1 -40.711172 -26.110937 1 0 1
wood_woodwall_016
0 95.78 135.7 0.108 0 1 0 -22.119258 -2.772734 1 0 1
0 95.78 135.7 120.108 0 1 0 -22.119258 -1.991484 1 0 1
0 239.79 135.7 120.108 0 1 0 -22.681797 -1.991484 1 0 1
wood_woodwall_016
0 95.78 135.7 0.108 0 1 0 -22.119258 -2.772734 1 0 1
0 239.79 135.7 120.108 0 1 0 -22.681797 -1.991484 1 0 1
0 239.79 135.7 0.108 0 1 0 -22.681797 -2.772734 1 0 1
rp_downtown_plaster_wall13
0 239.79 127.7 0.108 0 -1 0 -43.375312 -3.499156 1 0 1
0 239.79 127.7 120.108 0 -1 0 -43.375312 -2.561656 1 0 1
0 103.78 127.7 120.108 0 -1 0 -42.312734 -2.561656 1 0 1
rp_downtown_plaster_wall13
0 239.79 127.7 0.108 0 -1 0 -43.375312 -3.499156 1 0 1
0 103.78 127.7 120.108 0 -1 0 -42.312734 -2.561656 1 0 1
0 103.78 127.7 0.108 0 -1 0 -42.312734 -3.499156 1 0 1
brush_vegas_wall_int_wall_int_ens_tile_03
0 175.78 71.7 0.108 0 -1 0 -86.750469 -7.998312 1 0 1
0 175.78 71.7 64.108 0 -1 0 -86.750469 -6.998312 1 0 1
0 167.78 71.7 64.108 0 -1 0 -86.625469 -6.998313 1 0 1
brush_vegas_wall_int_wall_int_ens_tile_03
0 175.78 71.7 0.108 0 -1 0 -86.750469 -7.998312 1 0 1
0 167.78 71.7 64.108 0 -1 0 -86.625469 -6.998313 1 0 1
0 167.78 71.7 0.108 0 -1 0 -86.625469 -7.998312 1 0 1
brush_vegas_wall_int_wall_int_ens_tile_03
0 167.78 71.7 0.108 -1 0 0 49.999219 -7.998312 1 0 1
0 167.78 71.7 64.108 -1 0 0 49.999219 -6.998312 1 0 1
0 167.78 127.7 64.108 -1 0 0 50.874219 -6.998313 1 0 1
brush_vegas_wall_int_wall_int_ens_tile_03
0 167.78 71.7 0.108 -1 0 0 49.999219 -7.998312 1 0 1
0 167.78 127.7 64.108 -1 0 0 50.874219 -6.998313 1 0 1
0 167.78 127.7 0.108 -1 0 0 50.874219 -7.998312 1 0 1
brush_vegas_wall_int_wall_int_ens_tile_03
0 175.78 71.7 64.108 1 0 0 49.999219 -6.998313 1 0 1
0 175.78 71.7 0.108 1 0 0 49.999219 -7.998312 1 0 1
0 175.78 127.7 0.108 1 0 0 50.874219 -7.998312 1 0 1
brush_vegas_wall_int_wall_int_ens_tile_03
0 175.78 71.7 64.108 1 0 0 49.999219 -6.998313 1 0 1
0 175.78 127.7 0.108 1 0 0 50.874219 -7.998312 1 0 1
0 175.78 127.7 64.108 1 0 0 50.874219 -6.998312 1 0 1
brush_vegas_wall_int_wall_int_ens_tile_03
0 167.78 71.7 64.108 0 0 1 49.999219 -85.250469 1 0 1
0 175.78 71.7 64.108 0 0 1 49.999219 -85.375469 1 0 1
0 175.78 127.7 64.108 0 0 1 50.874219 -85.375469 1 0 1
brush_vegas_wall_int_wall_int_ens_tile_03
0 167.78 71.7 64.108 0 0 1 49.999219 -85.250469 1 0 1
0 175.78 127.7 64.108 0 0 1 50.874219 -85.375469 1 0 1
0 167.78 127.7 64.108 0 0 1 50.874219 -85.250469 1 0 1
wood_milwall017
0 -0.22 -88.3 0.108 -1 0 0 -24.107031 -3.569469 1 0 1
0 -0.22 -88.3 128.108 -1 0 0 -24.107031 -2.569469 1 0 1
0 -0.22 39.7 0.108 -1 0 0 -25.107031 -3.569469 1 0 1
wood_woodwall_016
0 95.78 115.7 0.108 -1 0 0 13.67168 -2.772734 1 0 1
0 95.78 115.7 120.108 -1 0 0 13.67168 -1.991484 1 0 1
0 95.78 135.7 120.108 -1 0 0 13.749805 -1.991484 1 0 1
wood_woodwall_016
0 95.78 115.7 0.108 -1 0 0 13.67168 -2.772734 1 0 1
0 95.78 135.7 120.108 -1 0 0 13.749805 -1.991484 1 0 1
0 95.78 135.7 0.108 -1 0 0 13.749805 -2.772734 1 0 1
rp_downtown_plaster_wall13
0 103.78 115.7 120.108 1 0 0 24.843359 -2.561656 1 0 1
0 103.78 115.7 0.108 1 0 0 24.843359 -3.499156 1 0 1
0 103.78 127.7 0.108 1 0 0 24.937109 -3.499156 1 0 1
rp_downtown_plaster_wall13
0 103.78 115.7 120.108 1 0 0 24.843359 -2.561656 1 0 1
0 103.78 127.7 0.108 1 0 0 24.937109 -3.499156 1 0 1
0 103.78 127.7 120.108 1 0 0 24.937109 -2.561656 1 0 1
wood_woodwall_016
0 -8.22 -176.3 0.108 -1 0 0 12.531055 -2.772734 1 0 1
0 -8.22 -176.3 120.108 -1 0 0 12.531055 -1.991484 1 0 1
0 -8.22 59.7 120.108 -1 0 0 13.45293 -1.991484 1 0 1
wood_woodwall_016
0 -8.22 -176.3 0.108 -1 0 0 12.531055 -2.772734 1 0 1
0 -8.22 59.7 120.108 -1 0 0 13.45293 -1.991484 1 0 1
0 -8.22 59.7 0.108 -1 0 0 13.45293 -2.772734 1 0 1
wood_woodwall_016
0 -0.22 -176.3 120.108 1 0 0 12.531055 -1.991484 1 0 1
0 -0.22 -176.3 0.108 1 0 0 12.531055 -2.772734 1 0 1
0 -0.22 59.7 0.108 1 0 0 13.45293 -2.772734 1 0 1
wood_woodwall_016
0 -0.22 -176.3 120.108 1 0 0 12.531055 -1.991484 1 0 1
0 -0.22 59.7 0.108 1 0 0 13.45293 -2.772734 1 0 1
0 -0.22 59.7 120.108 1 0 0 13.45293 -1.991484 1 0 1
wood_woodwall_016
0 95.78 -176.3 0.108 -1 0 0 12.531055 -2.772734 1 0 1
0 95.78 -176.3 120.108 -1 0 0 12.531055 -1.991484 1 0 1
0 95.78 59.7 120.108 -1 0 0 13.45293 -1.991484 1 0 1
wood_woodwall_016
0 95.78 -176.3 0.108 -1 0 0 12.531055 -2.772734 1 0 1
0 95.78 59.7 120.108 -1 0 0 13.45293 -1.991484 1 0 1
0 95.78 59.7 0.108 -1 0 0 13.45293 -2.772734 1 0 1
rp_downtown_plaster_wall13
0 103.78 59.7 0.108 1 0 0 24.405859 -3.499156 1 0 1
0 103.78 59.7 120.108 1 0 0 24.405859 -2.561656 1 0 1
0 103.78 -176.3 120.108 1 0 0 22.562109 -2.561656 1 0 1
rp_downtown_plaster_wall13
0 103.78 59.7 0.108 1 0 0 24.405859 -3.499156 1 0 1
0 103.78 -176.3 120.108 1 0 0 22.562109 -2.561656 1 0 1
0 103.78 -176.3 0.108 1 0 0 22.562109 -3.499156 1 0 1
wood_woodwall_016
0 -8.22 115.7 0.108 -1 0 0 13.67168 -2.772734 1 0 1
0 -8.22 115.7 120.108 -1 0 0 13.67168 -1.991484 1 0 1
0 -8.22 127.7 120.108 -1 0 0 13.718555 -1.991484 1 0 1
wood_woodwall_016
0 -8.22 115.7 0.108 -1 0 0 13.67168 -2.772734 1 0 1
0 -8.22 127.7 120.108 -1 0 0 13.718555 -1.991484 1 0 1
0 -8.22 127.7 0.108 -1 0 0 13.718555 -2.772734 1 0 1
wood_woodwall_016
0 -0.22 135.7 0.108 1 0 0 13.749805 -2.772734 1 0 1
0 -0.22 135.7 120.108 1 0 0 13.749805 -1.991484 1 0 1
0 -0.22 115.7 120.108 1 0 0 13.67168 -1.991484 1 0 1
wood_woodwall_016
0 -0.22 135.7 0.108 1 0 0 13.749805 -2.772734 1 0 1
0 -0.22 115.7 120.108 1 0 0 13.67168 -1.991484 1 0 1
0 -0.22 115.7 0.108 1 0 0 13.67168 -2.772734 1 0 1
end
