version 1
nodes
0 "root" -1
end
skeleton
time 0
0 0 0 0 0 0 0
end
triangles
phys
0 279.65 -0.28 9 0 0 1 1 0 1 0 1
0 279.65 -0.28 15.83 0 0 1 1 0 1 0 1
0 -232.35 -0.28 15.83 0 0 1 1 0 1 0 1
phys
0 279.65 -0.28 9 0 0 1 1 0 1 0 1
0 -232.35 -0.28 15.83 0 0 1 1 0 1 0 1
0 -232.35 -0.28 9 0 0 1 1 0 1 0 1
phys
0 -232.35 -0.28 9 0 0 1 1 0 1 0 1
0 -232.35 -0.28 15.83 0 0 1 1 0 1 0 1
0 -232.35 31.72 9 0 0 1 1 0 1 0 1
phys
0 279.65 -0.28 15.83 0 0 1 1 0 1 0 1
0 279.65 -0.28 9 0 0 1 1 0 1 0 1
0 279.65 31.72 9 0 0 1 1 0 1 0 1
phys
0 279.65 -0.28 9 0 0 1 1 0 1 0 1
0 -232.35 -0.28 9 0 0 1 1 0 1 0 1
0 -232.35 31.72 9 0 0 1 1 0 1 0 1
phys
0 279.65 -0.28 9 0 0 1 1 0 1 0 1
0 -232.35 31.72 9 0 0 1 1 0 1 0 1
0 279.65 31.72 9 0 0 1 1 0 1 0 1
phys
0 -232.35 -0.28 15.83 0 0 1 1 0 1 0 1
0 279.65 -0.28 15.83 0 0 1 1 0 1 0 1
0 279.65 31.72 9 0 0 1 1 0 1 0 1
phys
0 -232.35 -0.28 15.83 0 0 1 1 0 1 0 1
0 279.65 31.72 9 0 0 1 1 0 1 0 1
0 -232.35 31.72 9 0 0 1 1 0 1 0 1
phys
0 -221.68 31.72 -0.17 0 0 1 2 0 1 0 1
0 -243.02 31.72 -0.17 0 0 1 2 0 1 0 1
0 -243.02 31.72 329 0 0 1 2 0 1 0 1
phys
0 -221.68 31.72 -0.17 0 0 1 2 0 1 0 1
0 -243.02 31.72 329 0 0 1 2 0 1 0 1
0 -221.68 31.72 329 0 0 1 2 0 1 0 1
phys
0 -221.68 -32.28 329 0 0 1 2 0 1 0 1
0 -243.02 -32.28 329 0 0 1 2 0 1 0 1
0 -243.02 -32.28 -0.17 0 0 1 2 0 1 0 1
phys
0 -221.68 -32.28 329 0 0 1 2 0 1 0 1
0 -243.02 -32.28 -0.17 0 0 1 2 0 1 0 1
0 -221.68 -32.28 -0.17 0 0 1 2 0 1 0 1
phys
0 -264.35 -10.95 329 0 0 1 2 0 1 0 1
0 -264.35 10.39 329 0 0 1 2 0 1 0 1
0 -264.35 10.39 -0.17 0 0 1 2 0 1 0 1
phys
0 -264.35 -10.95 329 0 0 1 2 0 1 0 1
0 -264.35 10.39 -0.17 0 0 1 2 0 1 0 1
0 -264.35 -10.95 -0.17 0 0 1 2 0 1 0 1
phys
0 -200.35 -10.95 -0.17 0 0 1 2 0 1 0 1
0 -200.35 10.39 -0.17 0 0 1 2 0 1 0 1
0 -200.35 10.39 329 0 0 1 2 0 1 0 1
phys
0 -200.35 -10.95 -0.17 0 0 1 2 0 1 0 1
0 -200.35 10.39 329 0 0 1 2 0 1 0 1
0 -200.35 -10.95 329 0 0 1 2 0 1 0 1
phys
0 -221.68 -32.28 -0.17 0 0 1 2 0 1 0 1
0 -243.02 -32.28 -0.17 0 0 1 2 0 1 0 1
0 -264.35 -10.95 -0.17 0 0 1 2 0 1 0 1
phys
0 -221.68 -32.28 -0.17 0 0 1 2 0 1 0 1
0 -264.35 -10.95 -0.17 0 0 1 2 0 1 0 1
0 -264.35 10.39 -0.17 0 0 1 2 0 1 0 1
phys
0 -221.68 -32.28 -0.17 0 0 1 2 0 1 0 1
0 -264.35 10.39 -0.17 0 0 1 2 0 1 0 1
0 -243.02 31.72 -0.17 0 0 1 2 0 1 0 1
phys
0 -221.68 -32.28 -0.17 0 0 1 2 0 1 0 1
0 -243.02 31.72 -0.17 0 0 1 2 0 1 0 1
0 -221.68 31.72 -0.17 0 0 1 2 0 1 0 1
phys
0 -221.68 -32.28 -0.17 0 0 1 2 0 1 0 1
0 -221.68 31.72 -0.17 0 0 1 2 0 1 0 1
0 -200.35 10.39 -0.17 0 0 1 2 0 1 0 1
phys
0 -221.68 -32.28 -0.17 0 0 1 2 0 1 0 1
0 -200.35 10.39 -0.17 0 0 1 2 0 1 0 1
0 -200.35 -10.95 -0.17 0 0 1 2 0 1 0 1
phys
0 -243.02 -32.28 329 0 0 1 2 0 1 0 1
0 -221.68 -32.28 329 0 0 1 2 0 1 0 1
0 -200.35 -10.95 329 0 0 1 2 0 1 0 1
phys
0 -243.02 -32.28 329 0 0 1 2 0 1 0 1
0 -200.35 -10.95 329 0 0 1 2 0 1 0 1
0 -200.35 10.39 329 0 0 1 2 0 1 0 1
phys
0 -243.02 -32.28 329 0 0 1 2 0 1 0 1
0 -200.35 10.39 329 0 0 1 2 0 1 0 1
0 -221.68 31.72 329 0 0 1 2 0 1 0 1
phys
0 -243.02 -32.28 329 0 0 1 2 0 1 0 1
0 -221.68 31.72 329 0 0 1 2 0 1 0 1
0 -243.02 31.72 329 0 0 1 2 0 1 0 1
phys
0 -243.02 -32.28 329 0 0 1 2 0 1 0 1
0 -243.02 31.72 329 0 0 1 2 0 1 0 1
0 -264.35 10.39 329 0 0 1 2 0 1 0 1
phys
0 -243.02 -32.28 329 0 0 1 2 0 1 0 1
0 -264.35 10.39 329 0 0 1 2 0 1 0 1
0 -264.35 -10.95 329 0 0 1 2 0 1 0 1
phys
0 -264.35 10.39 -0.17 0 0 1 2 0 1 0 1
0 -264.35 10.39 329 0 0 1 2 0 1 0 1
0 -243.02 31.72 329 0 0 1 2 0 1 0 1
phys
0 -264.35 10.39 -0.17 0 0 1 2 0 1 0 1
0 -243.02 31.72 329 0 0 1 2 0 1 0 1
0 -243.02 31.72 -0.17 0 0 1 2 0 1 0 1
phys
0 -200.35 10.39 329 0 0 1 2 0 1 0 1
0 -200.35 10.39 -0.17 0 0 1 2 0 1 0 1
0 -221.68 31.72 -0.17 0 0 1 2 0 1 0 1
phys
0 -200.35 10.39 329 0 0 1 2 0 1 0 1
0 -221.68 31.72 -0.17 0 0 1 2 0 1 0 1
0 -221.68 31.72 329 0 0 1 2 0 1 0 1
phys
0 -243.02 -32.28 -0.17 0 0 1 2 0 1 0 1
0 -243.02 -32.28 329 0 0 1 2 0 1 0 1
0 -264.35 -10.95 329 0 0 1 2 0 1 0 1
phys
0 -243.02 -32.28 -0.17 0 0 1 2 0 1 0 1
0 -264.35 -10.95 329 0 0 1 2 0 1 0 1
0 -264.35 -10.95 -0.17 0 0 1 2 0 1 0 1
phys
0 -221.68 -32.28 329 0 0 1 2 0 1 0 1
0 -221.68 -32.28 -0.17 0 0 1 2 0 1 0 1
0 -200.35 -10.95 -0.17 0 0 1 2 0 1 0 1
phys
0 -221.68 -32.28 329 0 0 1 2 0 1 0 1
0 -200.35 -10.95 -0.17 0 0 1 2 0 1 0 1
0 -200.35 -10.95 329 0 0 1 2 0 1 0 1
phys
0 -216.35 47.72 313 0 0 1 3 0 1 0 1
0 -248.35 47.72 313 0 0 1 3 0 1 0 1
0 -248.35 47.72 329 0 0 1 3 0 1 0 1
phys
0 -216.35 47.72 313 0 0 1 3 0 1 0 1
0 -248.35 47.72 329 0 0 1 3 0 1 0 1
0 -216.35 47.72 329 0 0 1 3 0 1 0 1
phys
0 -216.35 -48.28 329 0 0 1 3 0 1 0 1
0 -248.35 -48.28 329 0 0 1 3 0 1 0 1
0 -248.35 -48.28 313 0 0 1 3 0 1 0 1
phys
0 -216.35 -48.28 329 0 0 1 3 0 1 0 1
0 -248.35 -48.28 313 0 0 1 3 0 1 0 1
0 -216.35 -48.28 313 0 0 1 3 0 1 0 1
phys
0 -280.35 -16.28 329 0 0 1 3 0 1 0 1
0 -280.35 15.72 329 0 0 1 3 0 1 0 1
0 -280.35 15.72 313 0 0 1 3 0 1 0 1
phys
0 -280.35 -16.28 329 0 0 1 3 0 1 0 1
0 -280.35 15.72 313 0 0 1 3 0 1 0 1
0 -280.35 -16.28 313 0 0 1 3 0 1 0 1
phys
0 -184.35 -16.28 313 0 0 1 3 0 1 0 1
0 -184.35 15.72 313 0 0 1 3 0 1 0 1
0 -184.35 15.72 329 0 0 1 3 0 1 0 1
phys
0 -184.35 -16.28 313 0 0 1 3 0 1 0 1
0 -184.35 15.72 329 0 0 1 3 0 1 0 1
0 -184.35 -16.28 329 0 0 1 3 0 1 0 1
phys
0 -216.35 -48.28 313 0 0 1 3 0 1 0 1
0 -248.35 -48.28 313 0 0 1 3 0 1 0 1
0 -280.35 -16.28 313 0 0 1 3 0 1 0 1
phys
0 -216.35 -48.28 313 0 0 1 3 0 1 0 1
0 -280.35 -16.28 313 0 0 1 3 0 1 0 1
0 -280.35 15.72 313 0 0 1 3 0 1 0 1
phys
0 -216.35 -48.28 313 0 0 1 3 0 1 0 1
0 -280.35 15.72 313 0 0 1 3 0 1 0 1
0 -248.35 47.72 313 0 0 1 3 0 1 0 1
phys
0 -216.35 -48.28 313 0 0 1 3 0 1 0 1
0 -248.35 47.72 313 0 0 1 3 0 1 0 1
0 -216.35 47.72 313 0 0 1 3 0 1 0 1
phys
0 -216.35 -48.28 313 0 0 1 3 0 1 0 1
0 -216.35 47.72 313 0 0 1 3 0 1 0 1
0 -184.35 15.72 313 0 0 1 3 0 1 0 1
phys
0 -216.35 -48.28 313 0 0 1 3 0 1 0 1
0 -184.35 15.72 313 0 0 1 3 0 1 0 1
0 -184.35 -16.28 313 0 0 1 3 0 1 0 1
phys
0 -248.35 -48.28 329 0 0 1 3 0 1 0 1
0 -216.35 -48.28 329 0 0 1 3 0 1 0 1
0 -184.35 -16.28 329 0 0 1 3 0 1 0 1
phys
0 -248.35 -48.28 329 0 0 1 3 0 1 0 1
0 -184.35 -16.28 329 0 0 1 3 0 1 0 1
0 -184.35 15.72 329 0 0 1 3 0 1 0 1
phys
0 -248.35 -48.28 329 0 0 1 3 0 1 0 1
0 -184.35 15.72 329 0 0 1 3 0 1 0 1
0 -216.35 47.72 329 0 0 1 3 0 1 0 1
phys
0 -248.35 -48.28 329 0 0 1 3 0 1 0 1
0 -216.35 47.72 329 0 0 1 3 0 1 0 1
0 -248.35 47.72 329 0 0 1 3 0 1 0 1
phys
0 -248.35 -48.28 329 0 0 1 3 0 1 0 1
0 -248.35 47.72 329 0 0 1 3 0 1 0 1
0 -280.35 15.72 329 0 0 1 3 0 1 0 1
phys
0 -248.35 -48.28 329 0 0 1 3 0 1 0 1
0 -280.35 15.72 329 0 0 1 3 0 1 0 1
0 -280.35 -16.28 329 0 0 1 3 0 1 0 1
phys
0 -280.35 15.72 313 0 0 1 3 0 1 0 1
0 -280.35 15.72 329 0 0 1 3 0 1 0 1
0 -248.35 47.72 329 0 0 1 3 0 1 0 1
phys
0 -280.35 15.72 313 0 0 1 3 0 1 0 1
0 -248.35 47.72 329 0 0 1 3 0 1 0 1
0 -248.35 47.72 313 0 0 1 3 0 1 0 1
phys
0 -184.35 15.72 329 0 0 1 3 0 1 0 1
0 -184.35 15.72 313 0 0 1 3 0 1 0 1
0 -216.35 47.72 313 0 0 1 3 0 1 0 1
phys
0 -184.35 15.72 329 0 0 1 3 0 1 0 1
0 -216.35 47.72 313 0 0 1 3 0 1 0 1
0 -216.35 47.72 329 0 0 1 3 0 1 0 1
phys
0 -248.35 -48.28 313 0 0 1 3 0 1 0 1
0 -248.35 -48.28 329 0 0 1 3 0 1 0 1
0 -280.35 -16.28 329 0 0 1 3 0 1 0 1
phys
0 -248.35 -48.28 313 0 0 1 3 0 1 0 1
0 -280.35 -16.28 329 0 0 1 3 0 1 0 1
0 -280.35 -16.28 313 0 0 1 3 0 1 0 1
phys
0 -216.35 -48.28 329 0 0 1 3 0 1 0 1
0 -216.35 -48.28 313 0 0 1 3 0 1 0 1
0 -184.35 -16.28 313 0 0 1 3 0 1 0 1
phys
0 -216.35 -48.28 329 0 0 1 3 0 1 0 1
0 -184.35 -16.28 313 0 0 1 3 0 1 0 1
0 -184.35 -16.28 329 0 0 1 3 0 1 0 1
end
