version 1
nodes
0 "root" -1
end
skeleton
time 0
0 0 0 0 0 0 0
end
triangles
pepsi2_arch_concrete_stair01
0 -102 37 -43 0 0 1 25.78125 -115.175781 1 0 1
0 -2 37 -43 0 0 1 25.78125 -114.394531 1 0 1
0 -2 52 -43 0 0 1 25.664062 -114.394531 1 0 1
pepsi2_arch_concrete_stair01
0 -102 37 -43 0 0 1 25.78125 -115.175781 1 0 1
0 -2 52 -43 0 0 1 25.664062 -114.394531 1 0 1
0 -102 52 -43 0 0 1 25.664062 -115.175781 1 0 1
crossroads_mall_ceiling
0 -2 37 -43 0 -0.514496 -0.857493 -24.27025 115.765625 1 0 1
0 -102 37 -43 0 -0.514496 -0.857493 -24.27025 116.546875 1 0 1
0 -102 52 -52 0 -0.514496 -0.857493 -24.205938 116.546875 1 0 1
crossroads_mall_ceiling
0 -2 37 -43 0 -0.514496 -0.857493 -24.27025 115.765625 1 0 1
0 -102 52 -52 0 -0.514496 -0.857493 -24.205938 116.546875 1 0 1
0 -2 52 -52 0 -0.514496 -0.857493 -24.205938 115.765625 1 0 1
pepsi2_arch_concrete_stair01
0 -2 52 -52 0 1 0 113.875 -1.3125 1 0 1
0 -102 52 -52 0 1 0 114.65625 -1.3125 1 0 1
0 -102 52 -43 0 1 0 114.65625 -1.242188 1 0 1
pepsi2_arch_concrete_stair01
0 -2 52 -52 0 1 0 113.875 -1.3125 1 0 1
0 -102 52 -43 0 1 0 114.65625 -1.242188 1 0 1
0 -2 52 -43 0 1 0 113.875 -1.242188 1 0 1
pepsi2_arch_concrete_stair01
0 -2 97 -79 0 0 1 25.3125 -114.394531 1 0 1
0 -2 112 -79 0 0 1 25.195312 -114.394531 1 0 1
0 -102 112 -79 0 0 1 25.195312 -115.175781 1 0 1
pepsi2_arch_concrete_stair01
0 -2 97 -79 0 0 1 25.3125 -114.394531 1 0 1
0 -102 112 -79 0 0 1 25.195312 -115.175781 1 0 1
0 -102 97 -79 0 0 1 25.3125 -115.175781 1 0 1
crossroads_mall_ceiling
0 -102 97 -79 0 -0.514496 -0.857493 -24.013 116.546875 1 0 1
0 -102 112 -88 0 -0.514496 -0.857493 -23.948687 116.546875 1 0 1
0 -2 112 -88 0 -0.514496 -0.857493 -23.948687 115.765625 1 0 1
crossroads_mall_ceiling
0 -102 97 -79 0 -0.514496 -0.857493 -24.013 116.546875 1 0 1
0 -2 112 -88 0 -0.514496 -0.857493 -23.948687 115.765625 1 0 1
0 -2 97 -79 0 -0.514496 -0.857493 -24.013 115.765625 1 0 1
pepsi2_arch_concrete_stair01
0 -2 112 -79 0 1 0 113.875 -1.523438 1 0 1
0 -2 112 -88 0 1 0 113.875 -1.59375 1 0 1
0 -102 112 -88 0 1 0 114.65625 -1.59375 1 0 1
pepsi2_arch_concrete_stair01
0 -2 112 -79 0 1 0 113.875 -1.523438 1 0 1
0 -102 112 -88 0 1 0 114.65625 -1.59375 1 0 1
0 -102 112 -79 0 1 0 114.65625 -1.523438 1 0 1
pepsi2_arch_concrete_stair01
0 -2 -113 47 0 0 1 26.953125 -114.394531 1 0 1
0 -2 -98 47 0 0 1 26.835938 -114.394531 1 0 1
0 -102 -98 47 0 0 1 26.835938 -115.175781 1 0 1
pepsi2_arch_concrete_stair01
0 -2 -113 47 0 0 1 26.953125 -114.394531 1 0 1
0 -102 -98 47 0 0 1 26.835938 -115.175781 1 0 1
0 -102 -113 47 0 0 1 26.953125 -115.175781 1 0 1
crossroads_mall_ceiling
0 -102 -113 47 0 -0.514496 -0.857493 -24.913375 116.546875 1 0 1
0 -102 -98 38 0 -0.514496 -0.857493 -24.849063 116.546875 1 0 1
0 -2 -98 38 0 -0.514496 -0.857493 -24.849063 115.765625 1 0 1
crossroads_mall_ceiling
0 -102 -113 47 0 -0.514496 -0.857493 -24.913375 116.546875 1 0 1
0 -2 -98 38 0 -0.514496 -0.857493 -24.849063 115.765625 1 0 1
0 -2 -113 47 0 -0.514496 -0.857493 -24.913375 115.765625 1 0 1
pepsi2_arch_concrete_stair01
0 -2 -98 47 0 1 0 113.875 -0.539062 1 0 1
0 -2 -98 38 0 1 0 113.875 -0.609375 1 0 1
0 -102 -98 38 0 1 0 114.65625 -0.609375 1 0 1
pepsi2_arch_concrete_stair01
0 -2 -98 47 0 1 0 113.875 -0.539062 1 0 1
0 -102 -98 38 0 1 0 114.65625 -0.609375 1 0 1
0 -102 -98 47 0 1 0 114.65625 -0.539062 1 0 1
wood_infwoodfloor007a
0 232 164 24 0 1 0 112.976562 -1.0625 1 0 1
0 232 164 20 0 1 0 112.976562 -1.09375 1 0 1
0 224 164 20 0 1 0 113.039062 -1.09375 1 0 1
wood_infwoodfloor007a
0 232 164 24 0 1 0 112.976562 -1.0625 1 0 1
0 224 164 20 0 1 0 113.039062 -1.09375 1 0 1
0 224 164 24 0 1 0 113.039062 -1.0625 1 0 1
wood_infwoodfloor007a
0 232 116 20 0 -1 0 -112.976562 -1.09375 1 0 1
0 232 116 24 0 -1 0 -112.976562 -1.0625 1 0 1
0 224 116 24 0 -1 0 -113.039062 -1.0625 1 0 1
wood_infwoodfloor007a
0 232 116 20 0 -1 0 -112.976562 -1.09375 1 0 1
0 224 116 24 0 -1 0 -113.039062 -1.0625 1 0 1
0 224 116 20 0 -1 0 -113.039062 -1.09375 1 0 1
bridge_se1_metal_flat_steel_01
0 224 116 20 -1 0 0 -26.892578 -0.623047 1 0 1
0 224 116 24 -1 0 0 -26.892578 -0.591797 1 0 1
0 224 164 24 -1 0 0 -26.517578 -0.591797 1 0 1
bridge_se1_metal_flat_steel_01
0 224 116 20 -1 0 0 -26.892578 -0.623047 1 0 1
0 224 164 24 -1 0 0 -26.517578 -0.591797 1 0 1
0 224 164 20 -1 0 0 -26.517578 -0.623047 1 0 1
bridge_se1_metal_flat_steel_01
0 232 116 24 1 0 0 -26.892578 -0.591797 1 0 1
0 232 116 20 1 0 0 -26.892578 -0.623047 1 0 1
0 232 164 20 1 0 0 -26.517578 -0.623047 1 0 1
bridge_se1_metal_flat_steel_01
0 232 116 24 1 0 0 -26.892578 -0.591797 1 0 1
0 232 164 20 1 0 0 -26.517578 -0.623047 1 0 1
0 232 164 24 1 0 0 -26.517578 -0.591797 1 0 1
bridge_se1_metal_flat_steel_01
0 232 116 20 0 0 -1 -26.892578 -111.013672 1 0 1
0 224 116 20 0 0 -1 -26.892578 -111.076172 1 0 1
0 224 164 20 0 0 -1 -26.517578 -111.076172 1 0 1
bridge_se1_metal_flat_steel_01
0 232 116 20 0 0 -1 -26.892578 -111.013672 1 0 1
0 224 164 20 0 0 -1 -26.517578 -111.076172 1 0 1
0 232 164 20 0 0 -1 -26.517578 -111.013672 1 0 1
pepsi2_arch_concrete_stair01
0 -2 -53 20 0 1 0 113.875 -0.75 1 0 1
0 -2 -53 11 0 1 0 113.875 -0.820312 1 0 1
0 -102 -53 11 0 1 0 114.65625 -0.820312 1 0 1
pepsi2_arch_concrete_stair01
0 -2 -53 20 0 1 0 113.875 -0.75 1 0 1
0 -102 -53 11 0 1 0 114.65625 -0.820312 1 0 1
0 -102 -53 20 0 1 0 114.65625 -0.75 1 0 1
pepsi2_arch_concrete_stair01
0 -2 -68 20 0 0 1 26.601562 -114.394531 1 0 1
0 -2 -53 20 0 0 1 26.484375 -114.394531 1 0 1
0 -102 -53 20 0 0 1 26.484375 -115.175781 1 0 1
pepsi2_arch_concrete_stair01
0 -2 -68 20 0 0 1 26.601562 -114.394531 1 0 1
0 -102 -53 20 0 0 1 26.484375 -115.175781 1 0 1
0 -102 -68 20 0 0 1 26.601562 -115.175781 1 0 1
crossroads_mall_ceiling
0 -102 -68 20 0 -0.514496 -0.857493 -24.720437 116.546875 1 0 1
0 -102 -53 11 0 -0.514496 -0.857493 -24.656125 116.546875 1 0 1
0 -2 -53 11 0 -0.514496 -0.857493 -24.656125 115.765625 1 0 1
crossroads_mall_ceiling
0 -102 -68 20 0 -0.514496 -0.857493 -24.720437 116.546875 1 0 1
0 -2 -53 11 0 -0.514496 -0.857493 -24.656125 115.765625 1 0 1
0 -2 -68 20 0 -0.514496 -0.857493 -24.720437 115.765625 1 0 1
bridge_se1_metal_flat_steel_01
0 -23 -113 182 1 0 0 -28.681641 1.501953 1 0 1
0 -23 112 182 1 0 0 -26.923828 1.501953 1 0 1
0 -23 112 223 1 0 0 -26.923828 1.181641 1 0 1
bridge_se1_metal_flat_steel_01
0 -23 -113 182 1 0 0 -28.681641 1.501953 1 0 1
0 -23 112 223 1 0 0 -26.923828 1.181641 1 0 1
0 -23 -113 223 1 0 0 -28.681641 1.181641 1 0 1
bridge_se1_metal_flat_steel_01
0 -27 -113 223 0 0 1 -28.681641 115.423828 1 0 1
0 -23 -113 223 0 0 1 -28.681641 115.392578 1 0 1
0 -23 112 223 0 0 1 -26.923828 115.392578 1 0 1
bridge_se1_metal_flat_steel_01
0 -27 -113 223 0 0 1 -28.681641 115.423828 1 0 1
0 -23 112 223 0 0 1 -26.923828 115.392578 1 0 1
0 -27 112 223 0 0 1 -26.923828 115.423828 1 0 1
bridge_se1_metal_flat_steel_01
0 -27 -113 223 -1 0 0 -28.681641 1.423828 1 0 1
0 -27 112 223 -1 0 0 -26.923828 1.423828 1 0 1
0 -27 112 182 -1 0 0 -26.923828 1.744141 1 0 1
bridge_se1_metal_flat_steel_01
0 -27 -113 223 -1 0 0 -28.681641 1.423828 1 0 1
0 -27 112 182 -1 0 0 -26.923828 1.744141 1 0 1
0 -27 -113 182 -1 0 0 -28.681641 1.744141 1 0 1
pepsi2_arch_concrete_stair01
0 -2 67 -52 0 1 0 113.875 -1.3125 1 0 1
0 -2 67 -61 0 1 0 113.875 -1.382812 1 0 1
0 -102 67 -61 0 1 0 114.65625 -1.382812 1 0 1
pepsi2_arch_concrete_stair01
0 -2 67 -52 0 1 0 113.875 -1.3125 1 0 1
0 -102 67 -61 0 1 0 114.65625 -1.382812 1 0 1
0 -102 67 -52 0 1 0 114.65625 -1.3125 1 0 1
pepsi2_arch_concrete_stair01
0 -2 52 -52 0 0 1 25.664062 -114.394531 1 0 1
0 -2 67 -52 0 0 1 25.546875 -114.394531 1 0 1
0 -102 67 -52 0 0 1 25.546875 -115.175781 1 0 1
pepsi2_arch_concrete_stair01
0 -2 52 -52 0 0 1 25.664062 -114.394531 1 0 1
0 -102 67 -52 0 0 1 25.546875 -115.175781 1 0 1
0 -102 52 -52 0 0 1 25.664062 -115.175781 1 0 1
crossroads_mall_ceiling
0 -102 52 -52 0 -0.514496 -0.857493 -24.205937 116.546875 1 0 1
0 -102 67 -61 0 -0.514496 -0.857493 -24.141625 116.546875 1 0 1
0 -2 67 -61 0 -0.514496 -0.857493 -24.141625 115.765625 1 0 1
crossroads_mall_ceiling
0 -102 52 -52 0 -0.514496 -0.857493 -24.205937 116.546875 1 0 1
0 -2 67 -61 0 -0.514496 -0.857493 -24.141625 115.765625 1 0 1
0 -2 52 -52 0 -0.514496 -0.857493 -24.205937 115.765625 1 0 1
pepsi2_arch_concrete_stair01
0 128 -23 101 0 -1 0 -114.71875 -0.117188 1 0 1
0 128 -23 110 0 -1 0 -114.71875 -0.046875 1 0 1
0 28 -23 110 0 -1 0 -115.5 -0.046875 1 0 1
pepsi2_arch_concrete_stair01
0 128 -23 101 0 -1 0 -114.71875 -0.117188 1 0 1
0 28 -23 110 0 -1 0 -115.5 -0.046875 1 0 1
0 28 -23 101 0 -1 0 -115.5 -0.117188 1 0 1
pepsi2_arch_concrete_floor_smooth01
0 128 -23 110 1 0 0 -27.179688 -0.390625 1 0 1
0 128 -23 101 1 0 0 -27.179688 -0.460938 1 0 1
0 128 -8 110 1 0 0 -27.0625 -0.390625 1 0 1
pepsi2_arch_concrete_stair01
0 28 -23 110 0 0 1 26.25 -112.980469 1 0 1
0 128 -23 110 0 0 1 26.25 -112.199219 1 0 1
0 128 -8 110 0 0 1 26.132812 -112.199219 1 0 1
pepsi2_arch_concrete_stair01
0 28 -23 110 0 0 1 26.25 -112.980469 1 0 1
0 128 -8 110 0 0 1 26.132812 -112.199219 1 0 1
0 28 -8 110 0 0 1 26.132812 -112.980469 1 0 1
crossroads_mall_ceiling
0 128 -23 101 0 0.514496 -0.857493 -24.094482 114.71875 1 0 1
0 28 -23 101 0 0.514496 -0.857493 -24.094482 115.5 1 0 1
0 28 -8 110 0 0.514496 -0.857493 -23.957816 115.5 1 0 1
crossroads_mall_ceiling
0 128 -23 101 0 0.514496 -0.857493 -24.094482 114.71875 1 0 1
0 28 -8 110 0 0.514496 -0.857493 -23.957816 115.5 1 0 1
0 128 -8 110 0 0.514496 -0.857493 -23.957816 114.71875 1 0 1
pepsi2_arch_concrete_stair01
0 128 -113 47 0 -1 0 -114.71875 -0.539062 1 0 1
0 128 -113 56 0 -1 0 -114.71875 -0.46875 1 0 1
0 28 -113 56 0 -1 0 -115.5 -0.46875 1 0 1
pepsi2_arch_concrete_stair01
0 128 -113 47 0 -1 0 -114.71875 -0.539062 1 0 1
0 28 -113 56 0 -1 0 -115.5 -0.46875 1 0 1
0 28 -113 47 0 -1 0 -115.5 -0.539062 1 0 1
pepsi2_arch_concrete_stair01
0 28 -113 56 0 0 1 26.953125 -112.980469 1 0 1
0 128 -113 56 0 0 1 26.953125 -112.199219 1 0 1
0 128 -98 56 0 0 1 26.835938 -112.199219 1 0 1
pepsi2_arch_concrete_stair01
0 28 -113 56 0 0 1 26.953125 -112.980469 1 0 1
0 128 -98 56 0 0 1 26.835938 -112.199219 1 0 1
0 28 -98 56 0 0 1 26.835938 -112.980469 1 0 1
crossroads_mall_ceiling
0 128 -113 47 0 0.514496 -0.857493 -24.913375 114.71875 1 0 1
0 28 -113 47 0 0.514496 -0.857493 -24.913375 115.5 1 0 1
0 28 -98 56 0 0.514496 -0.857493 -24.776711 115.5 1 0 1
crossroads_mall_ceiling
0 128 -113 47 0 0.514496 -0.857493 -24.913375 114.71875 1 0 1
0 28 -98 56 0 0.514496 -0.857493 -24.776711 115.5 1 0 1
0 128 -98 56 0 0.514496 -0.857493 -24.776711 114.71875 1 0 1
wood_infwoodfloor007a
0 232 164 159 0 1 0 112.976562 -0.007812 1 0 1
0 232 164 155 0 1 0 112.976562 -0.039062 1 0 1
0 224 164 155 0 1 0 113.039062 -0.039062 1 0 1
wood_infwoodfloor007a
0 232 164 159 0 1 0 112.976562 -0.007812 1 0 1
0 224 164 155 0 1 0 113.039062 -0.039062 1 0 1
0 224 164 159 0 1 0 113.039062 -0.007812 1 0 1
wood_infwoodfloor007a
0 232 116 155 0 -1 0 -112.976562 -0.039062 1 0 1
0 232 116 159 0 -1 0 -112.976562 -0.007812 1 0 1
0 224 116 159 0 -1 0 -113.039062 -0.007812 1 0 1
wood_infwoodfloor007a
0 232 116 155 0 -1 0 -112.976562 -0.039062 1 0 1
0 224 116 159 0 -1 0 -113.039062 -0.007812 1 0 1
0 224 116 155 0 -1 0 -113.039062 -0.039062 1 0 1
wood_wooddoor045b
0 224 116 155 -1 0 0 52.8125 0.84375 1 0 1
0 224 116 159 -1 0 0 52.8125 0.875 1 0 1
0 224 164 159 -1 0 0 52.0625 0.875 1 0 1
wood_wooddoor045b
0 224 116 155 -1 0 0 52.8125 0.84375 1 0 1
0 224 164 159 -1 0 0 52.0625 0.875 1 0 1
0 224 164 155 -1 0 0 52.0625 0.84375 1 0 1
wood_wooddoor045b
0 232 116 159 1 0 0 52.8125 0.875 1 0 1
0 232 116 155 1 0 0 52.8125 0.84375 1 0 1
0 232 164 155 1 0 0 52.0625 0.84375 1 0 1
wood_wooddoor045b
0 232 116 159 1 0 0 52.8125 0.875 1 0 1
0 232 164 155 1 0 0 52.0625 0.84375 1 0 1
0 232 164 159 1 0 0 52.0625 0.875 1 0 1
wood_wooddoor045b
0 232 116 155 0 0 -1 225.070312 27.382812 1 0 1
0 224 116 155 0 0 -1 225.195312 27.382812 1 0 1
0 224 164 155 0 0 -1 225.195312 27.007812 1 0 1
wood_wooddoor045b
0 232 116 155 0 0 -1 225.070312 27.382812 1 0 1
0 224 164 155 0 0 -1 225.195312 27.007812 1 0 1
0 232 164 155 0 0 -1 225.070312 27.007812 1 0 1
pepsi2_arch_concrete_stair01
0 -2 -68 29 0 1 0 113.875 -0.679688 1 0 1
0 -2 -68 20 0 1 0 113.875 -0.75 1 0 1
0 -102 -68 20 0 1 0 114.65625 -0.75 1 0 1
pepsi2_arch_concrete_stair01
0 -2 -68 29 0 1 0 113.875 -0.679688 1 0 1
0 -102 -68 20 0 1 0 114.65625 -0.75 1 0 1
0 -102 -68 29 0 1 0 114.65625 -0.679688 1 0 1
pepsi2_arch_concrete_stair01
0 -2 -83 29 0 0 1 26.71875 -114.394531 1 0 1
0 -2 -68 29 0 0 1 26.601562 -114.394531 1 0 1
0 -102 -68 29 0 0 1 26.601562 -115.175781 1 0 1
pepsi2_arch_concrete_stair01
0 -2 -83 29 0 0 1 26.71875 -114.394531 1 0 1
0 -102 -68 29 0 0 1 26.601562 -115.175781 1 0 1
0 -102 -83 29 0 0 1 26.71875 -115.175781 1 0 1
crossroads_mall_ceiling
0 -102 -83 29 0 -0.514496 -0.857493 -24.78475 116.546875 1 0 1
0 -102 -68 20 0 -0.514496 -0.857493 -24.720437 116.546875 1 0 1
0 -2 -68 20 0 -0.514496 -0.857493 -24.720437 115.765625 1 0 1
crossroads_mall_ceiling
0 -102 -83 29 0 -0.514496 -0.857493 -24.78475 116.546875 1 0 1
0 -2 -68 20 0 -0.514496 -0.857493 -24.720437 115.765625 1 0 1
0 -2 -83 29 0 -0.514496 -0.857493 -24.78475 115.765625 1 0 1
bridge_se1_metal_flat_steel_01
0 232 164 -88 0 -1 0 -112.908203 -1.466797 1 0 1
0 232 164 24 0 -1 0 -112.908203 -0.591797 1 0 1
0 224 164 24 0 -1 0 -112.970703 -0.591797 1 0 1
bridge_se1_metal_flat_steel_01
0 232 164 -88 0 -1 0 -112.908203 -1.466797 1 0 1
0 224 164 24 0 -1 0 -112.970703 -0.591797 1 0 1
0 224 164 -88 0 -1 0 -112.970703 -1.466797 1 0 1
bridge_se1_metal_flat_steel_01
0 224 164 -88 -1 0 0 -26.517578 -1.466797 1 0 1
0 224 164 24 -1 0 0 -26.517578 -0.591797 1 0 1
0 224 168 24 -1 0 0 -26.486328 -0.591797 1 0 1
bridge_se1_metal_flat_steel_01
0 224 164 -88 -1 0 0 -26.517578 -1.466797 1 0 1
0 224 168 24 -1 0 0 -26.486328 -0.591797 1 0 1
0 224 168 -88 -1 0 0 -26.486328 -1.466797 1 0 1
bridge_se1_metal_flat_steel_01
0 232 164 24 1 0 0 -26.517578 -0.591797 1 0 1
0 232 164 -88 1 0 0 -26.517578 -1.466797 1 0 1
0 232 168 -88 1 0 0 -26.486328 -1.466797 1 0 1
bridge_se1_metal_flat_steel_01
0 232 164 24 1 0 0 -26.517578 -0.591797 1 0 1
0 232 168 -88 1 0 0 -26.486328 -1.466797 1 0 1
0 232 168 24 1 0 0 -26.486328 -0.591797 1 0 1
wood_infwoodfloor007a
0 232 164 -88 0 0 -1 -112.230469 -25.269531 1 0 1
0 224 164 -88 0 0 -1 -112.292969 -25.269531 1 0 1
0 224 168 -88 0 0 -1 -112.292969 -25.238281 1 0 1
wood_infwoodfloor007a
0 232 164 -88 0 0 -1 -112.230469 -25.269531 1 0 1
0 224 168 -88 0 0 -1 -112.292969 -25.238281 1 0 1
0 232 168 -88 0 0 -1 -112.230469 -25.238281 1 0 1
pepsi2_arch_concrete_stair01
0 -2 -38 11 0 1 0 113.875 -0.820312 1 0 1
0 -2 -38 2 0 1 0 113.875 -0.890625 1 0 1
0 -102 -38 2 0 1 0 114.65625 -0.890625 1 0 1
pepsi2_arch_concrete_stair01
0 -2 -38 11 0 1 0 113.875 -0.820312 1 0 1
0 -102 -38 2 0 1 0 114.65625 -0.890625 1 0 1
0 -102 -38 11 0 1 0 114.65625 -0.820312 1 0 1
pepsi2_arch_concrete_stair01
0 -2 -53 11 0 0 1 26.484375 -114.394531 1 0 1
0 -2 -38 11 0 0 1 26.367188 -114.394531 1 0 1
0 -102 -38 11 0 0 1 26.367188 -115.175781 1 0 1
pepsi2_arch_concrete_stair01
0 -2 -53 11 0 0 1 26.484375 -114.394531 1 0 1
0 -102 -38 11 0 0 1 26.367188 -115.175781 1 0 1
0 -102 -53 11 0 0 1 26.484375 -115.175781 1 0 1
crossroads_mall_ceiling
0 -102 -53 11 0 -0.514496 -0.857493 -24.656125 116.546875 1 0 1
0 -102 -38 2 0 -0.514496 -0.857493 -24.591812 116.546875 1 0 1
0 -2 -38 2 0 -0.514496 -0.857493 -24.591812 115.765625 1 0 1
crossroads_mall_ceiling
0 -102 -53 11 0 -0.514496 -0.857493 -24.656125 116.546875 1 0 1
0 -2 -38 2 0 -0.514496 -0.857493 -24.591812 115.765625 1 0 1
0 -2 -53 11 0 -0.514496 -0.857493 -24.656125 115.765625 1 0 1
bridge_se1_metal_flat_steel_01
0 136 -113 47 0 -1 0 -1.056641 114.150391 1 0 1
0 136 -113 88 0 -1 0 -0.736328 114.150391 1 0 1
0 132 -113 88 0 -1 0 -0.736328 114.181641 1 0 1
bridge_se1_metal_flat_steel_01
0 136 -113 47 0 -1 0 -1.056641 114.150391 1 0 1
0 132 -113 88 0 -1 0 -0.736328 114.181641 1 0 1
0 132 -113 47 0 -1 0 -1.056641 114.181641 1 0 1
bridge_se1_metal_flat_steel_01
0 132 -113 47 -1 0 0 -28.681641 2.556641 1 0 1
0 132 -113 88 -1 0 0 -28.681641 2.236328 1 0 1
0 132 191 88 -1 0 0 -26.306641 2.236328 1 0 1
bridge_se1_metal_flat_steel_01
0 132 -113 47 -1 0 0 -28.681641 2.556641 1 0 1
0 132 191 88 -1 0 0 -26.306641 2.236328 1 0 1
0 132 191 47 -1 0 0 -26.306641 2.556641 1 0 1
bridge_se1_metal_flat_steel_01
0 136 -113 88 1 0 0 -0.736328 29.150391 1 0 1
0 136 -113 47 1 0 0 -1.056641 29.150391 1 0 1
0 136 191 47 1 0 0 -1.056641 26.775391 1 0 1
bridge_se1_metal_flat_steel_01
0 136 -113 88 1 0 0 -0.736328 29.150391 1 0 1
0 136 191 47 1 0 0 -1.056641 26.775391 1 0 1
0 136 191 88 1 0 0 -0.736328 26.775391 1 0 1
bridge_se1_metal_flat_steel_01
0 132 -113 88 0 0 1 -28.681641 114.181641 1 0 1
0 136 -113 88 0 0 1 -28.681641 114.150391 1 0 1
0 136 191 88 0 0 1 -26.306641 114.150391 1 0 1
bridge_se1_metal_flat_steel_01
0 132 -113 88 0 0 1 -28.681641 114.181641 1 0 1
0 136 191 88 0 0 1 -26.306641 114.150391 1 0 1
0 132 191 88 0 0 1 -26.306641 114.181641 1 0 1
bridge_se1_metal_flat_steel_01
0 -102 164 -88 0 -1 0 -115.517578 -1.466797 1 0 1
0 -102 164 24 0 -1 0 -115.517578 -0.591797 1 0 1
0 -110 164 24 0 -1 0 -115.580078 -0.591797 1 0 1
bridge_se1_metal_flat_steel_01
0 -102 164 -88 0 -1 0 -115.517578 -1.466797 1 0 1
0 -110 164 24 0 -1 0 -115.580078 -0.591797 1 0 1
0 -110 164 -88 0 -1 0 -115.580078 -1.466797 1 0 1
bridge_se1_metal_flat_steel_01
0 -110 164 -88 -1 0 0 -26.517578 -1.466797 1 0 1
0 -110 164 24 -1 0 0 -26.517578 -0.591797 1 0 1
0 -110 168 24 -1 0 0 -26.486328 -0.591797 1 0 1
bridge_se1_metal_flat_steel_01
0 -110 164 -88 -1 0 0 -26.517578 -1.466797 1 0 1
0 -110 168 24 -1 0 0 -26.486328 -0.591797 1 0 1
0 -110 168 -88 -1 0 0 -26.486328 -1.466797 1 0 1
bridge_se1_metal_flat_steel_01
0 -102 164 24 1 0 0 -26.517578 -0.591797 1 0 1
0 -102 164 -88 1 0 0 -26.517578 -1.466797 1 0 1
0 -102 168 -88 1 0 0 -26.486328 -1.466797 1 0 1
bridge_se1_metal_flat_steel_01
0 -102 164 24 1 0 0 -26.517578 -0.591797 1 0 1
0 -102 168 -88 1 0 0 -26.486328 -1.466797 1 0 1
0 -102 168 24 1 0 0 -26.486328 -0.591797 1 0 1
wood_infwoodfloor007a
0 -102 164 -88 0 0 -1 -114.839844 -25.269531 1 0 1
0 -110 164 -88 0 0 -1 -114.902344 -25.269531 1 0 1
0 -110 168 -88 0 0 -1 -114.902344 -25.238281 1 0 1
wood_infwoodfloor007a
0 -102 164 -88 0 0 -1 -114.839844 -25.269531 1 0 1
0 -110 168 -88 0 0 -1 -114.902344 -25.238281 1 0 1
0 -102 168 -88 0 0 -1 -114.839844 -25.238281 1 0 1
pepsi2_arch_concrete_stair01
0 128 7 119 0 -1 0 -114.71875 0.023438 1 0 1
0 128 7 128 0 -1 0 -114.71875 0.09375 1 0 1
0 28 7 128 0 -1 0 -115.5 0.09375 1 0 1
pepsi2_arch_concrete_stair01
0 128 7 119 0 -1 0 -114.71875 0.023438 1 0 1
0 28 7 128 0 -1 0 -115.5 0.09375 1 0 1
0 28 7 119 0 -1 0 -115.5 0.023438 1 0 1
pepsi2_arch_concrete_floor_smooth01
0 128 7 128 1 0 0 -26.945312 -0.25 1 0 1
0 128 7 119 1 0 0 -26.945312 -0.320312 1 0 1
0 128 22 128 1 0 0 -26.828125 -0.25 1 0 1
pepsi2_arch_concrete_stair01
0 28 7 128 0 0 1 26.015625 -112.980469 1 0 1
0 128 7 128 0 0 1 26.015625 -112.199219 1 0 1
0 128 22 128 0 0 1 25.898438 -112.199219 1 0 1
pepsi2_arch_concrete_stair01
0 28 7 128 0 0 1 26.015625 -112.980469 1 0 1
0 128 22 128 0 0 1 25.898438 -112.199219 1 0 1
0 28 22 128 0 0 1 25.898438 -112.980469 1 0 1
crossroads_mall_ceiling
0 128 7 119 0 0.514496 -0.857493 -23.820063 114.71875 1 0 1
0 28 7 119 0 0.514496 -0.857493 -23.820063 115.5 1 0 1
0 28 22 128 0 0.514496 -0.857493 -23.683398 115.5 1 0 1
crossroads_mall_ceiling
0 128 7 119 0 0.514496 -0.857493 -23.820063 114.71875 1 0 1
0 28 22 128 0 0.514496 -0.857493 -23.683398 115.5 1 0 1
0 128 22 128 0 0.514496 -0.857493 -23.683398 114.71875 1 0 1
bridge_se1_metal_flat_steel_01
0 -102 116 20 1 0 0 -26.892578 -0.623047 1 0 1
0 -102 164 20 1 0 0 -26.517578 -0.623047 1 0 1
0 -102 164 24 1 0 0 -26.517578 -0.591797 1 0 1
bridge_se1_metal_flat_steel_01
0 -102 116 20 1 0 0 -26.892578 -0.623047 1 0 1
0 -102 164 24 1 0 0 -26.517578 -0.591797 1 0 1
0 -102 116 24 1 0 0 -26.892578 -0.591797 1 0 1
bridge_se1_metal_flat_steel_01
0 -110 164 20 0 0 -1 -26.517578 -113.685547 1 0 1
0 -102 164 20 0 0 -1 -26.517578 -113.623047 1 0 1
0 -102 116 20 0 0 -1 -26.892578 -113.623047 1 0 1
bridge_se1_metal_flat_steel_01
0 -110 164 20 0 0 -1 -26.517578 -113.685547 1 0 1
0 -102 116 20 0 0 -1 -26.892578 -113.623047 1 0 1
0 -110 116 20 0 0 -1 -26.892578 -113.685547 1 0 1
wood_infwoodfloor007a
0 -102 164 24 0 1 0 115.585938 -1.0625 1 0 1
0 -102 164 20 0 1 0 115.585938 -1.09375 1 0 1
0 -110 164 20 0 1 0 115.648438 -1.09375 1 0 1
wood_infwoodfloor007a
0 -102 164 24 0 1 0 115.585938 -1.0625 1 0 1
0 -110 164 20 0 1 0 115.648438 -1.09375 1 0 1
0 -110 164 24 0 1 0 115.648438 -1.0625 1 0 1
wood_infwoodfloor007a
0 -102 116 20 0 -1 0 -115.585938 -1.09375 1 0 1
0 -102 116 24 0 -1 0 -115.585938 -1.0625 1 0 1
0 -110 116 24 0 -1 0 -115.648438 -1.0625 1 0 1
wood_infwoodfloor007a
0 -102 116 20 0 -1 0 -115.585938 -1.09375 1 0 1
0 -110 116 24 0 -1 0 -115.648438 -1.0625 1 0 1
0 -110 116 20 0 -1 0 -115.648438 -1.09375 1 0 1
bridge_se1_metal_flat_steel_01
0 -110 116 24 -1 0 0 -26.892578 -0.591797 1 0 1
0 -110 164 24 -1 0 0 -26.517578 -0.591797 1 0 1
0 -110 164 20 -1 0 0 -26.517578 -0.623047 1 0 1
bridge_se1_metal_flat_steel_01
0 -110 116 24 -1 0 0 -26.892578 -0.591797 1 0 1
0 -110 164 20 -1 0 0 -26.517578 -0.623047 1 0 1
0 -110 116 20 -1 0 0 -26.892578 -0.623047 1 0 1
crossroads_mall_ceiling
0 128 97 173 0 0.514496 -0.857493 -23.000078 114.71875 1 0 1
0 28 97 173 0 0.514496 -0.857493 -23.000078 115.5 1 0 1
0 28 112 182 0 0.514496 -0.857493 -22.863414 115.5 1 0 1
crossroads_mall_ceiling
0 128 97 173 0 0.514496 -0.857493 -23.000078 114.71875 1 0 1
0 28 112 182 0 0.514496 -0.857493 -22.863414 115.5 1 0 1
0 128 112 182 0 0.514496 -0.857493 -22.863414 114.71875 1 0 1
pepsi2_arch_concrete_stair01
0 28 97 182 0 -1 0 -115.5 0.515625 1 0 1
0 28 97 173 0 -1 0 -115.5 0.445312 1 0 1
0 128 97 173 0 -1 0 -114.71875 0.445312 1 0 1
pepsi2_arch_concrete_stair01
0 28 97 182 0 -1 0 -115.5 0.515625 1 0 1
0 128 97 173 0 -1 0 -114.71875 0.445312 1 0 1
0 128 97 182 0 -1 0 -114.71875 0.515625 1 0 1
pepsi2_arch_concrete_stair01
0 28 97 182 0 0 1 25.3125 -112.980469 1 0 1
0 128 97 182 0 0 1 25.3125 -112.199219 1 0 1
0 128 112 182 0 0 1 25.195312 -112.199219 1 0 1
pepsi2_arch_concrete_stair01
0 28 97 182 0 0 1 25.3125 -112.980469 1 0 1
0 128 112 182 0 0 1 25.195312 -112.199219 1 0 1
0 28 112 182 0 0 1 25.195312 -112.980469 1 0 1
bridge_se1_metal_flat_steel_01
0 136 112 223 0 1 0 -0.140625 -111.980469 1 0 1
0 136 112 182 0 1 0 -0.460938 -111.980469 1 0 1
0 132 112 182 0 1 0 -0.460938 -112.011719 1 0 1
bridge_se1_metal_flat_steel_01
0 136 112 223 0 1 0 -0.140625 -111.980469 1 0 1
0 132 112 182 0 1 0 -0.460938 -112.011719 1 0 1
0 132 112 223 0 1 0 -0.140625 -112.011719 1 0 1
bridge_se1_metal_flat_steel_01
0 132 -113 182 -1 0 0 -28.681641 1.501953 1 0 1
0 132 -113 223 -1 0 0 -28.681641 1.181641 1 0 1
0 132 112 223 -1 0 0 -26.923828 1.181641 1 0 1
bridge_se1_metal_flat_steel_01
0 132 -113 182 -1 0 0 -28.681641 1.501953 1 0 1
0 132 112 223 -1 0 0 -26.923828 1.181641 1 0 1
0 132 112 182 -1 0 0 -26.923828 1.501953 1 0 1
bridge_se1_metal_flat_steel_01
0 136 -113 223 1 0 0 -28.681641 1.150391 1 0 1
0 136 -113 182 1 0 0 -28.681641 0.830078 1 0 1
0 136 112 182 1 0 0 -26.923828 0.830078 1 0 1
bridge_se1_metal_flat_steel_01
0 136 -113 223 1 0 0 -28.681641 1.150391 1 0 1
0 136 112 182 1 0 0 -26.923828 0.830078 1 0 1
0 136 112 223 1 0 0 -26.923828 1.150391 1 0 1
bridge_se1_metal_flat_steel_01
0 132 -113 223 0 0 1 -28.681641 114.181641 1 0 1
0 136 -113 223 0 0 1 -28.681641 114.150391 1 0 1
0 136 112 223 0 0 1 -26.923828 114.150391 1 0 1
bridge_se1_metal_flat_steel_01
0 132 -113 223 0 0 1 -28.681641 114.181641 1 0 1
0 136 112 223 0 0 1 -26.923828 114.150391 1 0 1
0 132 112 223 0 0 1 -26.923828 114.181641 1 0 1
pepsi2_arch_concrete_stair01
0 128 22 128 0 -1 0 -114.71875 0.09375 1 0 1
0 128 22 137 0 -1 0 -114.71875 0.164062 1 0 1
0 28 22 137 0 -1 0 -115.5 0.164062 1 0 1
pepsi2_arch_concrete_stair01
0 128 22 128 0 -1 0 -114.71875 0.09375 1 0 1
0 28 22 137 0 -1 0 -115.5 0.164062 1 0 1
0 28 22 128 0 -1 0 -115.5 0.09375 1 0 1
pepsi2_arch_concrete_floor_smooth01
0 128 22 137 1 0 0 -26.828125 -0.179688 1 0 1
0 128 22 128 1 0 0 -26.828125 -0.25 1 0 1
0 128 37 137 1 0 0 -26.710938 -0.179688 1 0 1
pepsi2_arch_concrete_stair01
0 28 22 137 0 0 1 25.898438 -112.980469 1 0 1
0 128 22 137 0 0 1 25.898438 -112.199219 1 0 1
0 128 37 137 0 0 1 25.78125 -112.199219 1 0 1
pepsi2_arch_concrete_stair01
0 28 22 137 0 0 1 25.898438 -112.980469 1 0 1
0 128 37 137 0 0 1 25.78125 -112.199219 1 0 1
0 28 37 137 0 0 1 25.78125 -112.980469 1 0 1
crossroads_mall_ceiling
0 128 22 128 0 0.514496 -0.857493 -23.683398 114.71875 1 0 1
0 28 22 128 0 0.514496 -0.857493 -23.683398 115.5 1 0 1
0 28 37 137 0 0.514496 -0.857493 -23.546734 115.5 1 0 1
crossroads_mall_ceiling
0 128 22 128 0 0.514496 -0.857493 -23.683398 114.71875 1 0 1
0 28 37 137 0 0.514496 -0.857493 -23.546734 115.5 1 0 1
0 128 37 137 0 0.514496 -0.857493 -23.546734 114.71875 1 0 1
pepsi2_arch_concrete_stair01
0 28 -38 101 0 0 1 26.367188 -112.980469 1 0 1
0 128 -38 101 0 0 1 26.367188 -112.199219 1 0 1
0 128 -23 101 0 0 1 26.25 -112.199219 1 0 1
pepsi2_arch_concrete_stair01
0 28 -38 101 0 0 1 26.367188 -112.980469 1 0 1
0 128 -23 101 0 0 1 26.25 -112.199219 1 0 1
0 28 -23 101 0 0 1 26.25 -112.980469 1 0 1
crossroads_mall_ceiling
0 128 -38 92 0 0.514496 -0.857493 -24.230055 114.71875 1 0 1
0 28 -38 92 0 0.514496 -0.857493 -24.230055 115.5 1 0 1
0 28 -23 101 0 0.514496 -0.857493 -24.093391 115.5 1 0 1
crossroads_mall_ceiling
0 128 -38 92 0 0.514496 -0.857493 -24.230055 114.71875 1 0 1
0 28 -23 101 0 0.514496 -0.857493 -24.093391 115.5 1 0 1
0 128 -23 101 0 0.514496 -0.857493 -24.093391 114.71875 1 0 1
pepsi2_arch_concrete_stair01
0 128 -38 101 0 -1 0 -114.71875 -0.117188 1 0 1
0 28 -38 101 0 -1 0 -115.5 -0.117188 1 0 1
0 28 -38 92 0 -1 0 -115.5 -0.1875 1 0 1
pepsi2_arch_concrete_stair01
0 128 -38 101 0 -1 0 -114.71875 -0.117188 1 0 1
0 28 -38 92 0 -1 0 -115.5 -0.1875 1 0 1
0 128 -38 92 0 -1 0 -114.71875 -0.1875 1 0 1
pepsi2_arch_concrete_floor_smooth01
0 128 -38 92 1 0 0 -27.296875 -0.53125 1 0 1
0 128 -23 101 1 0 0 -27.179688 -0.460938 1 0 1
0 128 -38 101 1 0 0 -27.296875 -0.460938 1 0 1
bridge_se1_metal_flat_steel_01
0 -2 112 -88 -1 0 0 -26.923828 -1.466797 1 0 1
0 -2 112 -47 -1 0 0 -26.923828 -1.146484 1 0 1
0 -2 120 -47 -1 0 0 -26.861328 -1.146484 1 0 1
bridge_se1_metal_flat_steel_01
0 -2 112 -88 -1 0 0 -26.923828 -1.466797 1 0 1
0 -2 120 -47 -1 0 0 -26.861328 -1.146484 1 0 1
0 -2 120 -88 -1 0 0 -26.861328 -1.466797 1 0 1
bridge_se1_metal_flat_steel_01
0 2 112 -47 1 0 0 -26.923828 -1.146484 1 0 1
0 2 112 -88 1 0 0 -26.923828 -1.466797 1 0 1
0 2 120 -88 1 0 0 -26.861328 -1.466797 1 0 1
bridge_se1_metal_flat_steel_01
0 2 112 -47 1 0 0 -26.923828 -1.146484 1 0 1
0 2 120 -88 1 0 0 -26.861328 -1.466797 1 0 1
0 2 120 -47 1 0 0 -26.861328 -1.146484 1 0 1
bridge_se1_metal_flat_steel_01
0 -2 112 -47 0 0 1 -26.923828 115.119141 1 0 1
0 2 112 -47 0 0 1 -26.923828 115.087891 1 0 1
0 2 120 -47 0 0 1 -26.861328 115.087891 1 0 1
bridge_se1_metal_flat_steel_01
0 -2 112 -47 0 0 1 -26.923828 115.119141 1 0 1
0 2 120 -47 0 0 1 -26.861328 115.087891 1 0 1
0 -2 120 -47 0 0 1 -26.861328 115.119141 1 0 1
bridge_se1_metal_flat_steel_01
0 2 120 -47 0 1 0 114.373047 -1.146484 1 0 1
0 2 120 -88 0 1 0 114.373047 -1.466797 1 0 1
0 -2 120 -88 0 1 0 114.404297 -1.466797 1 0 1
bridge_se1_metal_flat_steel_01
0 2 120 -47 0 1 0 114.373047 -1.146484 1 0 1
0 -2 120 -88 0 1 0 114.404297 -1.466797 1 0 1
0 -2 120 -47 0 1 0 114.404297 -1.146484 1 0 1
bridge_se1_metal_flat_steel_01
0 232 112 -88 1 0 0 -26.923828 -1.466797 1 0 1
0 232 116 -88 1 0 0 -26.892578 -1.466797 1 0 1
0 232 116 24 1 0 0 -26.892578 -0.591797 1 0 1
bridge_se1_metal_flat_steel_01
0 232 112 -88 1 0 0 -26.923828 -1.466797 1 0 1
0 232 116 24 1 0 0 -26.892578 -0.591797 1 0 1
0 232 112 24 1 0 0 -26.923828 -0.591797 1 0 1
wood_infwoodfloor007a
0 224 116 -88 0 0 -1 -112.292969 -25.644531 1 0 1
0 232 116 -88 0 0 -1 -112.230469 -25.644531 1 0 1
0 232 112 -88 0 0 -1 -112.230469 -25.675781 1 0 1
wood_infwoodfloor007a
0 224 116 -88 0 0 -1 -112.292969 -25.644531 1 0 1
0 232 112 -88 0 0 -1 -112.230469 -25.675781 1 0 1
0 224 112 -88 0 0 -1 -112.292969 -25.675781 1 0 1
bridge_se1_metal_flat_steel_01
0 232 116 24 0 1 0 112.498047 -0.591797 1 0 1
0 232 116 -88 0 1 0 112.498047 -1.466797 1 0 1
0 224 116 -88 0 1 0 112.560547 -1.466797 1 0 1
bridge_se1_metal_flat_steel_01
0 232 116 24 0 1 0 112.498047 -0.591797 1 0 1
0 224 116 -88 0 1 0 112.560547 -1.466797 1 0 1
0 224 116 24 0 1 0 112.560547 -0.591797 1 0 1
bridge_se1_metal_flat_steel_01
0 224 112 24 -1 0 0 -26.923828 -0.591797 1 0 1
0 224 116 24 -1 0 0 -26.892578 -0.591797 1 0 1
0 224 116 -88 -1 0 0 -26.892578 -1.466797 1 0 1
bridge_se1_metal_flat_steel_01
0 224 112 24 -1 0 0 -26.923828 -0.591797 1 0 1
0 224 116 -88 -1 0 0 -26.892578 -1.466797 1 0 1
0 224 112 -88 -1 0 0 -26.923828 -1.466797 1 0 1
pepsi2_arch_concrete_stair01
0 128 37 137 0 -1 0 -114.71875 0.164062 1 0 1
0 128 37 146 0 -1 0 -114.71875 0.234375 1 0 1
0 28 37 146 0 -1 0 -115.5 0.234375 1 0 1
pepsi2_arch_concrete_stair01
0 128 37 137 0 -1 0 -114.71875 0.164062 1 0 1
0 28 37 146 0 -1 0 -115.5 0.234375 1 0 1
0 28 37 137 0 -1 0 -115.5 0.164062 1 0 1
pepsi2_arch_concrete_floor_smooth01
0 128 37 146 1 0 0 -26.710938 -0.109375 1 0 1
0 128 37 137 1 0 0 -26.710938 -0.179688 1 0 1
0 128 52 146 1 0 0 -26.59375 -0.109375 1 0 1
pepsi2_arch_concrete_stair01
0 28 37 146 0 0 1 25.78125 -112.980469 1 0 1
0 128 37 146 0 0 1 25.78125 -112.199219 1 0 1
0 128 52 146 0 0 1 25.664062 -112.199219 1 0 1
pepsi2_arch_concrete_stair01
0 28 37 146 0 0 1 25.78125 -112.980469 1 0 1
0 128 52 146 0 0 1 25.664062 -112.199219 1 0 1
0 28 52 146 0 0 1 25.664062 -112.980469 1 0 1
crossroads_mall_ceiling
0 128 37 137 0 0.514496 -0.857493 -23.546734 114.71875 1 0 1
0 28 37 137 0 0.514496 -0.857493 -23.546734 115.5 1 0 1
0 28 52 146 0 0.514496 -0.857493 -23.41007 115.5 1 0 1
crossroads_mall_ceiling
0 128 37 137 0 0.514496 -0.857493 -23.546734 114.71875 1 0 1
0 28 52 146 0 0.514496 -0.857493 -23.41007 115.5 1 0 1
0 128 52 146 0 0.514496 -0.857493 -23.41007 114.71875 1 0 1
bridge_se1_metal_flat_steel_01
0 128 112 223 0 0 1 -26.923828 114.212891 1 0 1
0 136 112 223 0 0 1 -26.923828 114.150391 1 0 1
0 136 116 223 0 0 1 -26.892578 114.150391 1 0 1
bridge_se1_metal_flat_steel_01
0 128 112 223 0 0 1 -26.923828 114.212891 1 0 1
0 136 116 223 0 0 1 -26.892578 114.150391 1 0 1
0 128 116 223 0 0 1 -26.892578 114.212891 1 0 1
bridge_se1_metal_flat_steel_01
0 128 116 182 0 1 0 113.169922 0.830078 1 0 1
0 128 116 223 0 1 0 113.169922 1.150391 1 0 1
0 136 116 223 0 1 0 113.107422 1.150391 1 0 1
bridge_se1_metal_flat_steel_01
0 128 116 182 0 1 0 113.169922 0.830078 1 0 1
0 136 116 223 0 1 0 113.107422 1.150391 1 0 1
0 136 116 182 0 1 0 113.107422 0.830078 1 0 1
bridge_se1_metal_flat_steel_01
0 136 112 182 0 -1 0 -0.460938 -111.980469 1 0 1
0 136 112 223 0 -1 0 -0.140625 -111.980469 1 0 1
0 128 112 223 0 -1 0 -0.140625 -112.042969 1 0 1
bridge_se1_metal_flat_steel_01
0 136 112 182 0 -1 0 -0.460938 -111.980469 1 0 1
0 128 112 223 0 -1 0 -0.140625 -112.042969 1 0 1
0 128 112 182 0 -1 0 -0.460938 -112.042969 1 0 1
bridge_se1_metal_flat_steel_01
0 128 112 182 -1 0 0 -26.923828 0.642578 1 0 1
0 128 112 223 -1 0 0 -26.923828 0.962891 1 0 1
0 128 116 223 -1 0 0 -26.892578 0.962891 1 0 1
bridge_se1_metal_flat_steel_01
0 128 112 182 -1 0 0 -26.923828 0.642578 1 0 1
0 128 116 223 -1 0 0 -26.892578 0.962891 1 0 1
0 128 116 182 -1 0 0 -26.892578 0.642578 1 0 1
bridge_se1_metal_flat_steel_01
0 136 116 182 1 0 0 -26.892578 0.830078 1 0 1
0 136 116 223 1 0 0 -26.892578 1.150391 1 0 1
0 136 112 223 1 0 0 -26.923828 1.150391 1 0 1
bridge_se1_metal_flat_steel_01
0 136 116 182 1 0 0 -26.892578 0.830078 1 0 1
0 136 112 223 1 0 0 -26.923828 1.150391 1 0 1
0 136 112 182 1 0 0 -26.923828 0.830078 1 0 1
bridge_se1_metal_flat_steel_01
0 -102 116 24 0 1 0 114.919922 -0.591797 1 0 1
0 -102 116 -88 0 1 0 114.919922 -1.466797 1 0 1
0 -110 116 -88 0 1 0 114.982422 -1.466797 1 0 1
bridge_se1_metal_flat_steel_01
0 -102 116 24 0 1 0 114.919922 -0.591797 1 0 1
0 -110 116 -88 0 1 0 114.982422 -1.466797 1 0 1
0 -110 116 24 0 1 0 114.982422 -0.591797 1 0 1
bridge_se1_metal_flat_steel_01
0 -110 112 -88 -1 0 0 -26.923828 -1.466797 1 0 1
0 -110 112 24 -1 0 0 -26.923828 -0.591797 1 0 1
0 -110 116 24 -1 0 0 -26.892578 -0.591797 1 0 1
bridge_se1_metal_flat_steel_01
0 -110 112 -88 -1 0 0 -26.923828 -1.466797 1 0 1
0 -110 116 24 -1 0 0 -26.892578 -0.591797 1 0 1
0 -110 116 -88 -1 0 0 -26.892578 -1.466797 1 0 1
bridge_se1_metal_flat_steel_01
0 -102 112 24 1 0 0 -26.923828 -0.591797 1 0 1
0 -102 112 -88 1 0 0 -26.923828 -1.466797 1 0 1
0 -102 116 -88 1 0 0 -26.892578 -1.466797 1 0 1
bridge_se1_metal_flat_steel_01
0 -102 112 24 1 0 0 -26.923828 -0.591797 1 0 1
0 -102 116 -88 1 0 0 -26.892578 -1.466797 1 0 1
0 -102 116 24 1 0 0 -26.892578 -0.591797 1 0 1
wood_infwoodfloor007a
0 -102 112 -88 0 0 -1 -114.839844 -25.675781 1 0 1
0 -110 112 -88 0 0 -1 -114.902344 -25.675781 1 0 1
0 -110 116 -88 0 0 -1 -114.902344 -25.644531 1 0 1
wood_infwoodfloor007a
0 -102 112 -88 0 0 -1 -114.839844 -25.675781 1 0 1
0 -110 116 -88 0 0 -1 -114.902344 -25.644531 1 0 1
0 -102 116 -88 0 0 -1 -114.839844 -25.644531 1 0 1
pepsi2_arch_concrete_stair01
0 -2 -8 -7 0 1 0 113.875 -0.960938 1 0 1
0 -2 -8 -16 0 1 0 113.875 -1.03125 1 0 1
0 -102 -8 -16 0 1 0 114.65625 -1.03125 1 0 1
pepsi2_arch_concrete_stair01
0 -2 -8 -7 0 1 0 113.875 -0.960938 1 0 1
0 -102 -8 -16 0 1 0 114.65625 -1.03125 1 0 1
0 -102 -8 -7 0 1 0 114.65625 -0.960938 1 0 1
pepsi2_arch_concrete_stair01
0 -2 -23 -7 0 0 1 26.25 -114.394531 1 0 1
0 -2 -8 -7 0 0 1 26.132812 -114.394531 1 0 1
0 -102 -8 -7 0 0 1 26.132812 -115.175781 1 0 1
pepsi2_arch_concrete_stair01
0 -2 -23 -7 0 0 1 26.25 -114.394531 1 0 1
0 -102 -8 -7 0 0 1 26.132812 -115.175781 1 0 1
0 -102 -23 -7 0 0 1 26.25 -115.175781 1 0 1
crossroads_mall_ceiling
0 -102 -23 -7 0 -0.514496 -0.857493 -24.5275 116.546875 1 0 1
0 -102 -8 -16 0 -0.514496 -0.857493 -24.463187 116.546875 1 0 1
0 -2 -8 -16 0 -0.514496 -0.857493 -24.463187 115.765625 1 0 1
crossroads_mall_ceiling
0 -102 -23 -7 0 -0.514496 -0.857493 -24.5275 116.546875 1 0 1
0 -2 -8 -16 0 -0.514496 -0.857493 -24.463187 115.765625 1 0 1
0 -2 -23 -7 0 -0.514496 -0.857493 -24.5275 115.765625 1 0 1
wood_wooddoor045b
0 232 164 182 1 0 0 52.0625 0 1 0 1
0 232 168 182 1 0 0 52 0 1 0 1
0 232 168 294 1 0 0 52 0.875 1 0 1
wood_wooddoor045b
0 232 164 182 1 0 0 52.0625 0 1 0 1
0 232 168 294 1 0 0 52 0.875 1 0 1
0 232 164 294 1 0 0 52.0625 0.875 1 0 1
wood_infwoodfloor007a
0 224 168 182 0 0 -1 -112.292969 -25.238281 1 0 1
0 232 168 182 0 0 -1 -112.230469 -25.238281 1 0 1
0 232 164 182 0 0 -1 -112.230469 -25.269531 1 0 1
wood_infwoodfloor007a
0 224 168 182 0 0 -1 -112.292969 -25.238281 1 0 1
0 232 164 182 0 0 -1 -112.230469 -25.269531 1 0 1
0 224 164 182 0 0 -1 -112.292969 -25.269531 1 0 1
wood_wooddoor045b
0 232 164 182 0 -1 0 225.0625 0 1 0 1
0 232 164 294 0 -1 0 225.0625 0.875 1 0 1
0 224 164 294 0 -1 0 225.1875 0.875 1 0 1
wood_wooddoor045b
0 232 164 182 0 -1 0 225.0625 0 1 0 1
0 224 164 294 0 -1 0 225.1875 0.875 1 0 1
0 224 164 182 0 -1 0 225.1875 0 1 0 1
wood_wooddoor045b
0 224 164 294 -1 0 0 52.0625 0.875 1 0 1
0 224 168 294 -1 0 0 52 0.875 1 0 1
0 224 168 182 -1 0 0 52 0 1 0 1
wood_wooddoor045b
0 224 164 294 -1 0 0 52.0625 0.875 1 0 1
0 224 168 182 -1 0 0 52 0 1 0 1
0 224 164 182 -1 0 0 52.0625 0 1 0 1
pepsi2_arch_concrete_stair01
0 128 -53 83 0 -1 0 -114.71875 -0.257812 1 0 1
0 128 -53 92 0 -1 0 -114.71875 -0.1875 1 0 1
0 28 -53 92 0 -1 0 -115.5 -0.1875 1 0 1
pepsi2_arch_concrete_stair01
0 128 -53 83 0 -1 0 -114.71875 -0.257812 1 0 1
0 28 -53 92 0 -1 0 -115.5 -0.1875 1 0 1
0 28 -53 83 0 -1 0 -115.5 -0.257812 1 0 1
pepsi2_arch_concrete_floor_smooth01
0 128 -53 92 1 0 0 -27.414062 -0.53125 1 0 1
0 128 -53 83 1 0 0 -27.414062 -0.601562 1 0 1
0 128 -38 92 1 0 0 -27.296875 -0.53125 1 0 1
pepsi2_arch_concrete_stair01
0 28 -53 92 0 0 1 26.484375 -112.980469 1 0 1
0 128 -53 92 0 0 1 26.484375 -112.199219 1 0 1
0 128 -38 92 0 0 1 26.367188 -112.199219 1 0 1
pepsi2_arch_concrete_stair01
0 28 -53 92 0 0 1 26.484375 -112.980469 1 0 1
0 128 -38 92 0 0 1 26.367188 -112.199219 1 0 1
0 28 -38 92 0 0 1 26.367188 -112.980469 1 0 1
crossroads_mall_ceiling
0 128 -53 83 0 0.514496 -0.857493 -24.367027 114.71875 1 0 1
0 28 -53 83 0 0.514496 -0.857493 -24.367027 115.5 1 0 1
0 28 -38 92 0 0.514496 -0.857493 -24.230372 115.5 1 0 1
crossroads_mall_ceiling
0 128 -53 83 0 0.514496 -0.857493 -24.367027 114.71875 1 0 1
0 28 -38 92 0 0.514496 -0.857493 -24.230372 115.5 1 0 1
0 128 -38 92 0 0.514496 -0.857493 -24.230372 114.71875 1 0 1
pepsi2_arch_concrete_stair01
0 128 82 164 0 -1 0 -114.71875 0.375 1 0 1
0 128 82 173 0 -1 0 -114.71875 0.445312 1 0 1
0 28 82 173 0 -1 0 -115.5 0.445312 1 0 1
pepsi2_arch_concrete_stair01
0 128 82 164 0 -1 0 -114.71875 0.375 1 0 1
0 28 82 173 0 -1 0 -115.5 0.445312 1 0 1
0 28 82 164 0 -1 0 -115.5 0.375 1 0 1
pepsi2_arch_concrete_floor_smooth01
0 128 82 173 1 0 0 -26.359375 0.101562 1 0 1
0 128 82 164 1 0 0 -26.359375 0.03125 1 0 1
0 128 97 173 1 0 0 -26.242188 0.101562 1 0 1
pepsi2_arch_concrete_stair01
0 28 82 173 0 0 1 25.429688 -112.980469 1 0 1
0 128 82 173 0 0 1 25.429688 -112.199219 1 0 1
0 128 97 173 0 0 1 25.3125 -112.199219 1 0 1
pepsi2_arch_concrete_stair01
0 28 82 173 0 0 1 25.429688 -112.980469 1 0 1
0 128 97 173 0 0 1 25.3125 -112.199219 1 0 1
0 28 97 173 0 0 1 25.3125 -112.980469 1 0 1
crossroads_mall_ceiling
0 128 82 164 0 0.514496 -0.857493 -23.136742 114.71875 1 0 1
0 28 82 164 0 0.514496 -0.857493 -23.136742 115.5 1 0 1
0 28 97 173 0 0.514496 -0.857493 -23.000078 115.5 1 0 1
crossroads_mall_ceiling
0 128 82 164 0 0.514496 -0.857493 -23.136742 114.71875 1 0 1
0 28 97 173 0 0.514496 -0.857493 -23.000078 115.5 1 0 1
0 128 97 173 0 0.514496 -0.857493 -23.000078 114.71875 1 0 1
bridge_se1_metal_flat_steel_01
0 28 116 223 0 1 0 0.107422 114.994141 1 0 1
0 28 116 182 0 1 0 0.427734 114.994141 1 0 1
0 -27 116 182 0 1 0 0.427734 115.423828 1 0 1
bridge_se1_metal_flat_steel_01
0 28 116 223 0 1 0 0.107422 114.994141 1 0 1
0 -27 116 182 0 1 0 0.427734 115.423828 1 0 1
0 -27 116 223 0 1 0 0.107422 115.423828 1 0 1
bridge_se1_metal_flat_steel_01
0 28 112 182 0 -1 0 113.888672 1.501953 1 0 1
0 28 112 223 0 -1 0 113.888672 1.181641 1 0 1
0 -27 112 223 0 -1 0 114.318359 1.181641 1 0 1
bridge_se1_metal_flat_steel_01
0 28 112 182 0 -1 0 113.888672 1.501953 1 0 1
0 -27 112 223 0 -1 0 114.318359 1.181641 1 0 1
0 -27 112 182 0 -1 0 114.318359 1.501953 1 0 1
bridge_se1_metal_flat_steel_01
0 -27 112 182 -1 0 0 -26.923828 1.744141 1 0 1
0 -27 112 223 -1 0 0 -26.923828 1.423828 1 0 1
0 -27 116 223 -1 0 0 -26.892578 1.423828 1 0 1
bridge_se1_metal_flat_steel_01
0 -27 112 182 -1 0 0 -26.923828 1.744141 1 0 1
0 -27 116 223 -1 0 0 -26.892578 1.423828 1 0 1
0 -27 116 182 -1 0 0 -26.892578 1.744141 1 0 1
bridge_se1_metal_flat_steel_01
0 28 112 223 1 0 0 -26.923828 0.962891 1 0 1
0 28 112 182 1 0 0 -26.923828 0.642578 1 0 1
0 28 116 182 1 0 0 -26.892578 0.642578 1 0 1
bridge_se1_metal_flat_steel_01
0 28 112 223 1 0 0 -26.923828 0.962891 1 0 1
0 28 116 182 1 0 0 -26.892578 0.642578 1 0 1
0 28 116 223 1 0 0 -26.892578 0.962891 1 0 1
bridge_se1_metal_flat_steel_01
0 -27 112 223 0 0 1 -26.923828 115.423828 1 0 1
0 28 112 223 0 0 1 -26.923828 114.994141 1 0 1
0 28 116 223 0 0 1 -26.892578 114.994141 1 0 1
bridge_se1_metal_flat_steel_01
0 -27 112 223 0 0 1 -26.923828 115.423828 1 0 1
0 28 116 223 0 0 1 -26.892578 114.994141 1 0 1
0 -27 116 223 0 0 1 -26.892578 115.423828 1 0 1
bridge_se1_metal_flat_steel_01
0 132 112 222.9999 0 1 0 -0.140626 -112.011719 1 0 1
0 132 112 182 0 1 0 -0.460938 -112.011719 1 0 1
0 128 112 182 0 1 0 -0.460938 -112.042969 1 0 1
bridge_se1_metal_flat_steel_01
0 132 112 222.9999 0 1 0 -0.140626 -112.011719 1 0 1
0 128 112 182 0 1 0 -0.460938 -112.042969 1 0 1
0 128 112 222.9999 0 1 0 -0.140626 -112.042969 1 0 1
bridge_se1_metal_flat_steel_01
0 132 -113 47 0 -1 0 -1.056641 114.181641 1 0 1
0 132 -113 88 0 -1 0 -0.736328 114.181641 1 0 1
0 128 -113 88 0 -1 0 -0.736328 114.212891 1 0 1
bridge_se1_metal_flat_steel_01
0 132 -113 47 0 -1 0 -1.056641 114.181641 1 0 1
0 128 -113 88 0 -1 0 -0.736328 114.212891 1 0 1
0 128 -113 47 0 -1 0 -1.056641 114.212891 1 0 1
bridge_se1_metal_flat_steel_01
0 128 -113 47 -1 0 0 -28.681641 -0.412109 1 0 1
0 128 -113 88 -1 0 0 -28.681641 -0.091797 1 0 1
0 128 112 222.9999 -1 0 0 -26.923828 0.96289 1 0 1
bridge_se1_metal_flat_steel_01
0 128 -113 47 -1 0 0 -28.681641 -0.412109 1 0 1
0 128 112 222.9999 -1 0 0 -26.923828 0.96289 1 0 1
0 128 112 182 -1 0 0 -26.923828 0.642578 1 0 1
bridge_se1_metal_flat_steel_01
0 132 -113 88 1 0 0 -28.681641 -0.091797 1 0 1
0 132 -113 47 1 0 0 -28.681641 -0.412109 1 0 1
0 132 112 182 1 0 0 -26.923828 0.642578 1 0 1
bridge_se1_metal_flat_steel_01
0 132 -113 88 1 0 0 -28.681641 -0.091797 1 0 1
0 132 112 182 1 0 0 -26.923828 0.642578 1 0 1
0 132 112 222.9999 1 0 0 -26.923828 0.96289 1 0 1
bridge_se1_metal_flat_steel_01
0 128 -113 88 0 -0.514495 0.857493 -24.973184 113.994141 1 0 1
0 132 -113 88 0 -0.514495 0.857493 -24.973184 113.962891 1 0 1
0 132 112 222.9999 0 -0.514495 0.857493 -22.923223 113.962891 1 0 1
bridge_se1_metal_flat_steel_01
0 128 -113 88 0 -0.514495 0.857493 -24.973184 113.994141 1 0 1
0 132 112 222.9999 0 -0.514495 0.857493 -22.923223 113.962891 1 0 1
0 128 112 222.9999 0 -0.514495 0.857493 -22.923223 113.994141 1 0 1
bridge_se1_metal_flat_steel_01
0 132 -113 47 0 0.514496 -0.857493 36.318512 -108.414008 1 0 1
0 128 -113 47 0 0.514496 -0.857493 36.334591 -108.440805 1 0 1
0 128 112 182 0 0.514496 -0.857493 38.092438 -107.386082 1 0 1
bridge_se1_metal_flat_steel_01
0 132 -113 47 0 0.514496 -0.857493 36.318512 -108.414008 1 0 1
0 128 112 182 0 0.514496 -0.857493 38.092438 -107.386082 1 0 1
0 132 112 182 0 0.514496 -0.857493 38.07636 -107.359285 1 0 1
pepsi2_arch_concrete_stair01
0 -102 67 -61 0 0 1 25.546875 -115.175781 1 0 1
0 -2 67 -61 0 0 1 25.546875 -114.394531 1 0 1
0 -2 82 -61 0 0 1 25.429688 -114.394531 1 0 1
pepsi2_arch_concrete_stair01
0 -102 67 -61 0 0 1 25.546875 -115.175781 1 0 1
0 -2 82 -61 0 0 1 25.429688 -114.394531 1 0 1
0 -102 82 -61 0 0 1 25.429688 -115.175781 1 0 1
crossroads_mall_ceiling
0 -102 82 -70 0 -0.514496 -0.857493 -24.077312 116.546875 1 0 1
0 -2 82 -70 0 -0.514496 -0.857493 -24.077312 115.765625 1 0 1
0 -2 67 -61 0 -0.514496 -0.857493 -24.141625 115.765625 1 0 1
crossroads_mall_ceiling
0 -102 82 -70 0 -0.514496 -0.857493 -24.077312 116.546875 1 0 1
0 -2 67 -61 0 -0.514496 -0.857493 -24.141625 115.765625 1 0 1
0 -102 67 -61 0 -0.514496 -0.857493 -24.141625 116.546875 1 0 1
pepsi2_arch_concrete_stair01
0 -2 82 -61 0 1 0 113.875 -1.382812 1 0 1
0 -2 82 -70 0 1 0 113.875 -1.453125 1 0 1
0 -102 82 -70 0 1 0 114.65625 -1.453125 1 0 1
pepsi2_arch_concrete_stair01
0 -2 82 -61 0 1 0 113.875 -1.382812 1 0 1
0 -102 82 -70 0 1 0 114.65625 -1.453125 1 0 1
0 -102 82 -61 0 1 0 114.65625 -1.382812 1 0 1
pepsi2_arch_concrete_stair01
0 128 -8 110 0 -1 0 -114.71875 -0.046875 1 0 1
0 128 -8 119 0 -1 0 -114.71875 0.023438 1 0 1
0 28 -8 119 0 -1 0 -115.5 0.023438 1 0 1
pepsi2_arch_concrete_stair01
0 128 -8 110 0 -1 0 -114.71875 -0.046875 1 0 1
0 28 -8 119 0 -1 0 -115.5 0.023438 1 0 1
0 28 -8 110 0 -1 0 -115.5 -0.046875 1 0 1
pepsi2_arch_concrete_floor_smooth01
0 128 -8 119 1 0 0 -27.0625 -0.320312 1 0 1
0 128 -8 110 1 0 0 -27.0625 -0.390625 1 0 1
0 128 7 119 1 0 0 -26.945312 -0.320312 1 0 1
pepsi2_arch_concrete_stair01
0 28 -8 119 0 0 1 26.132812 -112.980469 1 0 1
0 128 -8 119 0 0 1 26.132812 -112.199219 1 0 1
0 128 7 119 0 0 1 26.015625 -112.199219 1 0 1
pepsi2_arch_concrete_stair01
0 28 -8 119 0 0 1 26.132812 -112.980469 1 0 1
0 128 7 119 0 0 1 26.015625 -112.199219 1 0 1
0 28 7 119 0 0 1 26.015625 -112.980469 1 0 1
crossroads_mall_ceiling
0 128 -8 110 0 0.514496 -0.857493 -23.956727 114.71875 1 0 1
0 28 -8 110 0 0.514496 -0.857493 -23.956727 115.5 1 0 1
0 28 7 119 0 0.514496 -0.857493 -23.820063 115.5 1 0 1
crossroads_mall_ceiling
0 128 -8 110 0 0.514496 -0.857493 -23.956727 114.71875 1 0 1
0 28 7 119 0 0.514496 -0.857493 -23.820063 115.5 1 0 1
0 128 7 119 0 0.514496 -0.857493 -23.820063 114.71875 1 0 1
bridge_se1_metal_flat_steel_01
0 136 -113 223 0 1 0 -113.650391 1.181641 1 0 1
0 136 -113 182 0 1 0 -113.650391 1.501953 1 0 1
0 -27 -113 182 0 1 0 -114.923828 1.501953 1 0 1
bridge_se1_metal_flat_steel_01
0 136 -113 223 0 1 0 -113.650391 1.181641 1 0 1
0 -27 -113 182 0 1 0 -114.923828 1.501953 1 0 1
0 -27 -113 223 0 1 0 -114.923828 1.181641 1 0 1
bridge_se1_metal_flat_steel_01
0 136 -117 182 0 -1 0 -0.033203 114.150391 1 0 1
0 136 -117 223 0 -1 0 0.287109 114.150391 1 0 1
0 -27 -117 223 0 -1 0 0.287109 115.423828 1 0 1
bridge_se1_metal_flat_steel_01
0 136 -117 182 0 -1 0 -0.033203 114.150391 1 0 1
0 -27 -117 223 0 -1 0 0.287109 115.423828 1 0 1
0 -27 -117 182 0 -1 0 -0.033203 115.423828 1 0 1
bridge_se1_metal_flat_steel_01
0 -27 -117 182 -1 0 0 -28.712891 1.744141 1 0 1
0 -27 -117 223 -1 0 0 -28.712891 1.423828 1 0 1
0 -27 -113 223 -1 0 0 -28.681641 1.423828 1 0 1
bridge_se1_metal_flat_steel_01
0 -27 -117 182 -1 0 0 -28.712891 1.744141 1 0 1
0 -27 -113 223 -1 0 0 -28.681641 1.423828 1 0 1
0 -27 -113 182 -1 0 0 -28.681641 1.744141 1 0 1
bridge_se1_metal_flat_steel_01
0 136 -117 223 1 0 0 -28.712891 1.150391 1 0 1
0 136 -117 182 1 0 0 -28.712891 0.830078 1 0 1
0 136 -113 182 1 0 0 -28.681641 0.830078 1 0 1
bridge_se1_metal_flat_steel_01
0 136 -117 223 1 0 0 -28.712891 1.150391 1 0 1
0 136 -113 182 1 0 0 -28.681641 0.830078 1 0 1
0 136 -113 223 1 0 0 -28.681641 1.150391 1 0 1
bridge_se1_metal_flat_steel_01
0 -27 -117 223 0 0 1 -28.712891 115.423828 1 0 1
0 136 -117 223 0 0 1 -28.712891 114.150391 1 0 1
0 136 -113 223 0 0 1 -28.681641 114.150391 1 0 1
bridge_se1_metal_flat_steel_01
0 -27 -117 223 0 0 1 -28.712891 115.423828 1 0 1
0 136 -113 223 0 0 1 -28.681641 114.150391 1 0 1
0 -27 -113 223 0 0 1 -28.681641 115.423828 1 0 1
concrete_concrete_mall_clean00
0 -110 202 186 0 1 0 -192.671224 0.078125 1 0 1
0 -110 202 176 0 1 0 -192.671224 -0.052083 1 0 1
0 -113 202 176 0 1 0 -192.710286 -0.052083 1 0 1
concrete_concrete_mall_clean00
0 -110 202 186 0 1 0 -192.671224 0.078125 1 0 1
0 -113 202 176 0 1 0 -192.710286 -0.052083 1 0 1
0 -113 202 186 0 1 0 -192.710286 0.078125 1 0 1
concrete_concrete_mall_clean00
0 -113 -185 176 -1 0 0 -47.748698 -0.052083 1 0 1
0 -113 -185 186 -1 0 0 -47.748698 0.078125 1 0 1
0 -113 202 186 -1 0 0 -42.709635 0.078125 1 0 1
concrete_concrete_mall_clean00
0 -113 -185 176 -1 0 0 -47.748698 -0.052083 1 0 1
0 -113 202 186 -1 0 0 -42.709635 0.078125 1 0 1
0 -113 202 176 -1 0 0 -42.709635 -0.052083 1 0 1
concrete_concrete_mall_clean00
0 -110 -185 176 0 0 -1 -192.671224 -47.090495 1 0 1
0 -113 -185 176 0 0 -1 -192.710286 -47.090495 1 0 1
0 -113 202 176 0 0 -1 -192.710286 -42.051432 1 0 1
concrete_concrete_mall_clean00
0 -110 -185 176 0 0 -1 -192.671224 -47.090495 1 0 1
0 -113 202 176 0 0 -1 -192.710286 -42.051432 1 0 1
0 -110 202 176 0 0 -1 -192.671224 -42.051432 1 0 1
concrete_concrete_mall_clean00
0 -113 -185 186 0 0 1 -192.710286 49.117839 1 0 1
0 -110 -185 186 0 0 1 -192.671224 49.117839 1 0 1
0 -110 202 186 0 0 1 -192.671224 44.078776 1 0 1
concrete_concrete_mall_clean00
0 -113 -185 186 0 0 1 -192.710286 49.117839 1 0 1
0 -110 202 186 0 0 1 -192.671224 44.078776 1 0 1
0 -113 202 186 0 0 1 -192.710286 44.078776 1 0 1
wood_wooddoor045b
0 224 116 47 0 1 0 225.1875 0 1 0 1
0 224 116 159 0 1 0 225.1875 0.875 1 0 1
0 232 116 159 0 1 0 225.0625 0.875 1 0 1
wood_wooddoor045b
0 224 116 47 0 1 0 225.1875 0 1 0 1
0 232 116 159 0 1 0 225.0625 0.875 1 0 1
0 232 116 47 0 1 0 225.0625 0 1 0 1
wood_wooddoor045b
0 224 112 47 -1 0 0 52.875 0 1 0 1
0 224 112 159 -1 0 0 52.875 0.875 1 0 1
0 224 116 159 -1 0 0 52.8125 0.875 1 0 1
wood_wooddoor045b
0 224 112 47 -1 0 0 52.875 0 1 0 1
0 224 116 159 -1 0 0 52.8125 0.875 1 0 1
0 224 116 47 -1 0 0 52.8125 0 1 0 1
wood_wooddoor045b
0 232 116 47 1 0 0 52.8125 0 1 0 1
0 232 116 159 1 0 0 52.8125 0.875 1 0 1
0 232 112 159 1 0 0 52.875 0.875 1 0 1
wood_wooddoor045b
0 232 116 47 1 0 0 52.8125 0 1 0 1
0 232 112 159 1 0 0 52.875 0.875 1 0 1
0 232 112 47 1 0 0 52.875 0 1 0 1
wood_infwoodfloor007a
0 232 112 47 0 0 -1 -112.230469 -25.675781 1 0 1
0 224 112 47 0 0 -1 -112.292969 -25.675781 1 0 1
0 224 116 47 0 0 -1 -112.292969 -25.644531 1 0 1
wood_infwoodfloor007a
0 232 112 47 0 0 -1 -112.230469 -25.675781 1 0 1
0 224 116 47 0 0 -1 -112.292969 -25.644531 1 0 1
0 232 116 47 0 0 -1 -112.230469 -25.644531 1 0 1
bridge_se1_metal_flat_steel_01
0 28 -113 88 0 1 0 114.349609 -0.091797 1 0 1
0 28 -113 47 0 1 0 114.349609 -0.412109 1 0 1
0 -2 -113 47 0 1 0 114.583984 -0.412109 1 0 1
bridge_se1_metal_flat_steel_01
0 28 -113 88 0 1 0 114.349609 -0.091797 1 0 1
0 -2 -113 47 0 1 0 114.583984 -0.412109 1 0 1
0 -2 -113 88 0 1 0 114.583984 -0.091797 1 0 1
bridge_se1_metal_flat_steel_01
0 28 -117 47 0 -1 0 -113.744141 -0.412109 1 0 1
0 28 -117 88 0 -1 0 -113.744141 -0.091797 1 0 1
0 -2 -117 88 0 -1 0 -113.978516 -0.091797 1 0 1
bridge_se1_metal_flat_steel_01
0 28 -117 47 0 -1 0 -113.744141 -0.412109 1 0 1
0 -2 -117 88 0 -1 0 -113.978516 -0.091797 1 0 1
0 -2 -117 47 0 -1 0 -113.978516 -0.412109 1 0 1
bridge_se1_metal_flat_steel_01
0 -2 -117 47 -1 0 0 -28.712891 -0.412109 1 0 1
0 -2 -117 88 -1 0 0 -28.712891 -0.091797 1 0 1
0 -2 -113 88 -1 0 0 -28.681641 -0.091797 1 0 1
bridge_se1_metal_flat_steel_01
0 -2 -117 47 -1 0 0 -28.712891 -0.412109 1 0 1
0 -2 -113 88 -1 0 0 -28.681641 -0.091797 1 0 1
0 -2 -113 47 -1 0 0 -28.681641 -0.412109 1 0 1
bridge_se1_metal_flat_steel_01
0 28 -117 88 1 0 0 -28.712891 -0.091797 1 0 1
0 28 -117 47 1 0 0 -28.712891 -0.412109 1 0 1
0 28 -113 47 1 0 0 -28.681641 -0.412109 1 0 1
bridge_se1_metal_flat_steel_01
0 28 -117 88 1 0 0 -28.712891 -0.091797 1 0 1
0 28 -113 47 1 0 0 -28.681641 -0.412109 1 0 1
0 28 -113 88 1 0 0 -28.681641 -0.091797 1 0 1
bridge_se1_metal_flat_steel_01
0 -2 -117 88 0 0 1 -28.712891 115.173828 1 0 1
0 28 -117 88 0 0 1 -28.712891 114.939453 1 0 1
0 28 -113 88 0 0 1 -28.681641 114.939453 1 0 1
bridge_se1_metal_flat_steel_01
0 -2 -117 88 0 0 1 -28.712891 115.173828 1 0 1
0 28 -113 88 0 0 1 -28.681641 114.939453 1 0 1
0 -2 -113 88 0 0 1 -28.681641 115.173828 1 0 1
pepsi2_arch_concrete_stair01
0 -2 37 -34 0 1 0 113.875 -1.171875 1 0 1
0 -2 37 -43 0 1 0 113.875 -1.242188 1 0 1
0 -102 37 -43 0 1 0 114.65625 -1.242188 1 0 1
pepsi2_arch_concrete_stair01
0 -2 37 -34 0 1 0 113.875 -1.171875 1 0 1
0 -102 37 -43 0 1 0 114.65625 -1.242188 1 0 1
0 -102 37 -34 0 1 0 114.65625 -1.171875 1 0 1
pepsi2_arch_concrete_stair01
0 -2 22 -34 0 0 1 25.898438 -114.394531 1 0 1
0 -2 37 -34 0 0 1 25.78125 -114.394531 1 0 1
0 -102 37 -34 0 0 1 25.78125 -115.175781 1 0 1
pepsi2_arch_concrete_stair01
0 -2 22 -34 0 0 1 25.898438 -114.394531 1 0 1
0 -102 37 -34 0 0 1 25.78125 -115.175781 1 0 1
0 -102 22 -34 0 0 1 25.898438 -115.175781 1 0 1
crossroads_mall_ceiling
0 -102 22 -34 0 -0.514496 -0.857493 -24.334562 116.546875 1 0 1
0 -102 37 -43 0 -0.514496 -0.857493 -24.27025 116.546875 1 0 1
0 -2 37 -43 0 -0.514496 -0.857493 -24.27025 115.765625 1 0 1
crossroads_mall_ceiling
0 -102 22 -34 0 -0.514496 -0.857493 -24.334562 116.546875 1 0 1
0 -2 37 -43 0 -0.514496 -0.857493 -24.27025 115.765625 1 0 1
0 -2 22 -34 0 -0.514496 -0.857493 -24.334562 115.765625 1 0 1
pepsi2_arch_concrete_stair01
0 128 -98 65 0 0 1 26.835938 -112.199219 1 0 1
0 128 -83 65 0 0 1 26.71875 -112.199219 1 0 1
0 28 -83 65 0 0 1 26.71875 -112.980469 1 0 1
pepsi2_arch_concrete_stair01
0 128 -98 65 0 0 1 26.835938 -112.199219 1 0 1
0 28 -83 65 0 0 1 26.71875 -112.980469 1 0 1
0 28 -98 65 0 0 1 26.835938 -112.980469 1 0 1
crossroads_mall_ceiling
0 28 -98 56 0 0.514496 -0.857493 -24.776711 115.5 1 0 1
0 28 -83 65 0 0.514496 -0.857493 -24.640047 115.5 1 0 1
0 128 -83 65 0 0.514496 -0.857493 -24.640047 114.71875 1 0 1
crossroads_mall_ceiling
0 28 -98 56 0 0.514496 -0.857493 -24.776711 115.5 1 0 1
0 128 -83 65 0 0.514496 -0.857493 -24.640047 114.71875 1 0 1
0 128 -98 56 0 0.514496 -0.857493 -24.776711 114.71875 1 0 1
pepsi2_arch_concrete_stair01
0 128 -98 56 0 -1 0 -114.71875 -0.46875 1 0 1
0 128 -98 65 0 -1 0 -114.71875 -0.398438 1 0 1
0 28 -98 65 0 -1 0 -115.5 -0.398438 1 0 1
pepsi2_arch_concrete_stair01
0 128 -98 56 0 -1 0 -114.71875 -0.46875 1 0 1
0 28 -98 65 0 -1 0 -115.5 -0.398438 1 0 1
0 28 -98 56 0 -1 0 -115.5 -0.46875 1 0 1
pepsi2_arch_concrete_stair01
0 -2 7 -16 0 1 0 113.875 -1.03125 1 0 1
0 -2 7 -25 0 1 0 113.875 -1.101562 1 0 1
0 -102 7 -25 0 1 0 114.65625 -1.101562 1 0 1
pepsi2_arch_concrete_stair01
0 -2 7 -16 0 1 0 113.875 -1.03125 1 0 1
0 -102 7 -25 0 1 0 114.65625 -1.101562 1 0 1
0 -102 7 -16 0 1 0 114.65625 -1.03125 1 0 1
pepsi2_arch_concrete_stair01
0 -2 -8 -16 0 0 1 26.132812 -114.394531 1 0 1
0 -2 7 -16 0 0 1 26.015625 -114.394531 1 0 1
0 -102 7 -16 0 0 1 26.015625 -115.175781 1 0 1
pepsi2_arch_concrete_stair01
0 -2 -8 -16 0 0 1 26.132812 -114.394531 1 0 1
0 -102 7 -16 0 0 1 26.015625 -115.175781 1 0 1
0 -102 -8 -16 0 0 1 26.132812 -115.175781 1 0 1
crossroads_mall_ceiling
0 -102 -8 -16 0 -0.514496 -0.857493 -24.463187 116.546875 1 0 1
0 -102 7 -25 0 -0.514496 -0.857493 -24.398875 116.546875 1 0 1
0 -2 7 -25 0 -0.514496 -0.857493 -24.398875 115.765625 1 0 1
crossroads_mall_ceiling
0 -102 -8 -16 0 -0.514496 -0.857493 -24.463187 116.546875 1 0 1
0 -2 7 -25 0 -0.514496 -0.857493 -24.398875 115.765625 1 0 1
0 -2 -8 -16 0 -0.514496 -0.857493 -24.463187 115.765625 1 0 1
wood_wooddoor045b
0 232 116 294 0 1 0 225.0625 0.875 1 0 1
0 232 116 182 0 1 0 225.0625 0 1 0 1
0 224 116 182 0 1 0 225.1875 0 1 0 1
wood_wooddoor045b
0 232 116 294 0 1 0 225.0625 0.875 1 0 1
0 224 116 182 0 1 0 225.1875 0 1 0 1
0 224 116 294 0 1 0 225.1875 0.875 1 0 1
wood_wooddoor045b
0 224 112 182 -1 0 0 52.875 0 1 0 1
0 224 112 294 -1 0 0 52.875 0.875 1 0 1
0 224 116 294 -1 0 0 52.8125 0.875 1 0 1
wood_wooddoor045b
0 224 112 182 -1 0 0 52.875 0 1 0 1
0 224 116 294 -1 0 0 52.8125 0.875 1 0 1
0 224 116 182 -1 0 0 52.8125 0 1 0 1
wood_wooddoor045b
0 232 112 294 1 0 0 52.875 0.875 1 0 1
0 232 112 182 1 0 0 52.875 0 1 0 1
0 232 116 182 1 0 0 52.8125 0 1 0 1
wood_wooddoor045b
0 232 112 294 1 0 0 52.875 0.875 1 0 1
0 232 116 182 1 0 0 52.8125 0 1 0 1
0 232 116 294 1 0 0 52.8125 0.875 1 0 1
wood_infwoodfloor007a
0 232 112 182 0 0 -1 -112.230469 -25.675781 1 0 1
0 224 112 182 0 0 -1 -112.292969 -25.675781 1 0 1
0 224 116 182 0 0 -1 -112.292969 -25.644531 1 0 1
wood_infwoodfloor007a
0 232 112 182 0 0 -1 -112.230469 -25.675781 1 0 1
0 224 116 182 0 0 -1 -112.292969 -25.644531 1 0 1
0 232 116 182 0 0 -1 -112.230469 -25.644531 1 0 1
pepsi2_arch_concrete_stair01
0 128 52 146 0 -1 0 -114.71875 0.234375 1 0 1
0 128 52 155 0 -1 0 -114.71875 0.304688 1 0 1
0 28 52 155 0 -1 0 -115.5 0.304688 1 0 1
pepsi2_arch_concrete_stair01
0 128 52 146 0 -1 0 -114.71875 0.234375 1 0 1
0 28 52 155 0 -1 0 -115.5 0.304688 1 0 1
0 28 52 146 0 -1 0 -115.5 0.234375 1 0 1
pepsi2_arch_concrete_floor_smooth01
0 128 52 155 1 0 0 -26.59375 -0.039062 1 0 1
0 128 52 146 1 0 0 -26.59375 -0.109375 1 0 1
0 128 67 155 1 0 0 -26.476562 -0.039062 1 0 1
pepsi2_arch_concrete_stair01
0 28 52 155 0 0 1 25.664062 -112.980469 1 0 1
0 128 52 155 0 0 1 25.664062 -112.199219 1 0 1
0 128 67 155 0 0 1 25.546875 -112.199219 1 0 1
pepsi2_arch_concrete_stair01
0 28 52 155 0 0 1 25.664062 -112.980469 1 0 1
0 128 67 155 0 0 1 25.546875 -112.199219 1 0 1
0 28 67 155 0 0 1 25.546875 -112.980469 1 0 1
crossroads_mall_ceiling
0 128 52 146 0 0.514496 -0.857493 -23.41007 114.71875 1 0 1
0 28 52 146 0 0.514496 -0.857493 -23.41007 115.5 1 0 1
0 28 67 155 0 0.514496 -0.857493 -23.273406 115.5 1 0 1
crossroads_mall_ceiling
0 128 52 146 0 0.514496 -0.857493 -23.41007 114.71875 1 0 1
0 28 67 155 0 0.514496 -0.857493 -23.273406 115.5 1 0 1
0 128 67 155 0 0.514496 -0.857493 -23.273406 114.71875 1 0 1
wood_wooddoor045b
0 232 164 47 0 -1 0 225.0625 0 1 0 1
0 232 164 159 0 -1 0 225.0625 0.875 1 0 1
0 224 164 159 0 -1 0 225.1875 0.875 1 0 1
wood_wooddoor045b
0 232 164 47 0 -1 0 225.0625 0 1 0 1
0 224 164 159 0 -1 0 225.1875 0.875 1 0 1
0 224 164 47 0 -1 0 225.1875 0 1 0 1
wood_wooddoor045b
0 224 164 47 -1 0 0 52.0625 0 1 0 1
0 224 164 159 -1 0 0 52.0625 0.875 1 0 1
0 224 168 159 -1 0 0 52 0.875 1 0 1
wood_wooddoor045b
0 224 164 47 -1 0 0 52.0625 0 1 0 1
0 224 168 159 -1 0 0 52 0.875 1 0 1
0 224 168 47 -1 0 0 52 0 1 0 1
wood_wooddoor045b
0 232 164 159 1 0 0 52.0625 0.875 1 0 1
0 232 164 47 1 0 0 52.0625 0 1 0 1
0 232 168 47 1 0 0 52 0 1 0 1
wood_wooddoor045b
0 232 164 159 1 0 0 52.0625 0.875 1 0 1
0 232 168 47 1 0 0 52 0 1 0 1
0 232 168 159 1 0 0 52 0.875 1 0 1
wood_infwoodfloor007a
0 232 164 47 0 0 -1 -112.230469 -25.269531 1 0 1
0 224 164 47 0 0 -1 -112.292969 -25.269531 1 0 1
0 224 168 47 0 0 -1 -112.292969 -25.238281 1 0 1
wood_infwoodfloor007a
0 232 164 47 0 0 -1 -112.230469 -25.269531 1 0 1
0 224 168 47 0 0 -1 -112.292969 -25.238281 1 0 1
0 232 168 47 0 0 -1 -112.230469 -25.238281 1 0 1
bridge_se1_metal_flat_steel_01
0 2 -113 47 0 -0.514496 -0.857493 -77.802547 -85.612753 1 0 1
0 -2 -113 47 0 -0.514496 -0.857493 -77.818625 -85.63955 1 0 1
0 -2 112 -88 0 -0.514496 -0.857493 -76.060777 -86.694273 1 0 1
bridge_se1_metal_flat_steel_01
0 2 -113 47 0 -0.514496 -0.857493 -77.802547 -85.612753 1 0 1
0 -2 112 -88 0 -0.514496 -0.857493 -76.060777 -86.694273 1 0 1
0 2 112 -88 0 -0.514496 -0.857493 -76.044699 -86.667476 1 0 1
bridge_se1_metal_flat_steel_01
0 -2 112 -47 -1 0 0 -26.923828 -1.146484 1 0 1
0 -2 112 -88 -1 0 0 -26.923828 -1.466797 1 0 1
0 -2 -113 47 -1 0 0 -28.681641 -0.412109 1 0 1
bridge_se1_metal_flat_steel_01
0 -2 112 -47 -1 0 0 -26.923828 -1.146484 1 0 1
0 -2 -113 47 -1 0 0 -28.681641 -0.412109 1 0 1
0 -2 -113 88 -1 0 0 -28.681641 -0.091797 1 0 1
bridge_se1_metal_flat_steel_01
0 2 -113 88 1 0 0 -28.681641 -0.091797 1 0 1
0 2 -113 47 1 0 0 -28.681641 -0.412109 1 0 1
0 2 112 -88 1 0 0 -26.923828 -1.466797 1 0 1
bridge_se1_metal_flat_steel_01
0 2 -113 88 1 0 0 -28.681641 -0.091797 1 0 1
0 2 112 -88 1 0 0 -26.923828 -1.466797 1 0 1
0 2 112 -47 1 0 0 -26.923828 -1.146484 1 0 1
bridge_se1_metal_flat_steel_01
0 -2 -113 88 0 0.514496 0.857493 38.455327 111.13801 1 0 1
0 2 -113 88 0 0.514496 0.857493 38.439248 111.111213 1 0 1
0 2 112 -47 0 0.514496 0.857493 40.197096 110.056491 1 0 1
bridge_se1_metal_flat_steel_01
0 -2 -113 88 0 0.514496 0.857493 38.455327 111.13801 1 0 1
0 2 112 -47 0 0.514496 0.857493 40.197096 110.056491 1 0 1
0 -2 112 -47 0 0.514496 0.857493 40.213174 110.083288 1 0 1
pepsi2_arch_concrete_stair01
0 -102 7 -25 0 0 1 26.015625 -115.175781 1 0 1
0 -2 7 -25 0 0 1 26.015625 -114.394531 1 0 1
0 -2 22 -25 0 0 1 25.898438 -114.394531 1 0 1
pepsi2_arch_concrete_stair01
0 -102 7 -25 0 0 1 26.015625 -115.175781 1 0 1
0 -2 22 -25 0 0 1 25.898438 -114.394531 1 0 1
0 -102 22 -25 0 0 1 25.898438 -115.175781 1 0 1
crossroads_mall_ceiling
0 -2 7 -25 0 -0.514496 -0.857493 -24.398875 115.765625 1 0 1
0 -102 7 -25 0 -0.514496 -0.857493 -24.398875 116.546875 1 0 1
0 -102 22 -34 0 -0.514496 -0.857493 -24.334563 116.546875 1 0 1
crossroads_mall_ceiling
0 -2 7 -25 0 -0.514496 -0.857493 -24.398875 115.765625 1 0 1
0 -102 22 -34 0 -0.514496 -0.857493 -24.334563 116.546875 1 0 1
0 -2 22 -34 0 -0.514496 -0.857493 -24.334563 115.765625 1 0 1
pepsi2_arch_concrete_stair01
0 -2 22 -34 0 1 0 113.875 -1.171875 1 0 1
0 -102 22 -34 0 1 0 114.65625 -1.171875 1 0 1
0 -102 22 -25 0 1 0 114.65625 -1.101562 1 0 1
pepsi2_arch_concrete_stair01
0 -2 22 -34 0 1 0 113.875 -1.171875 1 0 1
0 -102 22 -25 0 1 0 114.65625 -1.101562 1 0 1
0 -2 22 -25 0 1 0 113.875 -1.101562 1 0 1
pepsi2_arch_concrete_stair01
0 128 -83 65 0 -1 0 -114.71875 -0.398438 1 0 1
0 128 -83 74 0 -1 0 -114.71875 -0.328125 1 0 1
0 28 -83 74 0 -1 0 -115.5 -0.328125 1 0 1
pepsi2_arch_concrete_stair01
0 128 -83 65 0 -1 0 -114.71875 -0.398438 1 0 1
0 28 -83 74 0 -1 0 -115.5 -0.328125 1 0 1
0 28 -83 65 0 -1 0 -115.5 -0.398438 1 0 1
pepsi2_arch_concrete_stair01
0 28 -83 74 0 0 1 26.71875 -112.980469 1 0 1
0 128 -83 74 0 0 1 26.71875 -112.199219 1 0 1
0 128 -68 74 0 0 1 26.601562 -112.199219 1 0 1
pepsi2_arch_concrete_stair01
0 28 -83 74 0 0 1 26.71875 -112.980469 1 0 1
0 128 -68 74 0 0 1 26.601562 -112.199219 1 0 1
0 28 -68 74 0 0 1 26.601562 -112.980469 1 0 1
crossroads_mall_ceiling
0 128 -83 65 0 0.514496 -0.857493 -24.640047 114.71875 1 0 1
0 28 -83 65 0 0.514496 -0.857493 -24.640047 115.5 1 0 1
0 28 -68 74 0 0.514496 -0.857493 -24.503383 115.5 1 0 1
crossroads_mall_ceiling
0 128 -83 65 0 0.514496 -0.857493 -24.640047 114.71875 1 0 1
0 28 -68 74 0 0.514496 -0.857493 -24.503383 115.5 1 0 1
0 128 -68 74 0 0.514496 -0.857493 -24.503383 114.71875 1 0 1
pepsi2_arch_concrete_stair01
0 -2 -23 2 0 1 0 113.875 -0.890625 1 0 1
0 -2 -23 -7 0 1 0 113.875 -0.960938 1 0 1
0 -102 -23 -7 0 1 0 114.65625 -0.960938 1 0 1
pepsi2_arch_concrete_stair01
0 -2 -23 2 0 1 0 113.875 -0.890625 1 0 1
0 -102 -23 -7 0 1 0 114.65625 -0.960938 1 0 1
0 -102 -23 2 0 1 0 114.65625 -0.890625 1 0 1
pepsi2_arch_concrete_stair01
0 -2 -38 2 0 0 1 26.367188 -114.394531 1 0 1
0 -2 -23 2 0 0 1 26.25 -114.394531 1 0 1
0 -102 -23 2 0 0 1 26.25 -115.175781 1 0 1
pepsi2_arch_concrete_stair01
0 -2 -38 2 0 0 1 26.367188 -114.394531 1 0 1
0 -102 -23 2 0 0 1 26.25 -115.175781 1 0 1
0 -102 -38 2 0 0 1 26.367188 -115.175781 1 0 1
crossroads_mall_ceiling
0 -102 -38 2 0 -0.514496 -0.857493 -24.591812 116.546875 1 0 1
0 -102 -23 -7 0 -0.514496 -0.857493 -24.5275 116.546875 1 0 1
0 -2 -23 -7 0 -0.514496 -0.857493 -24.5275 115.765625 1 0 1
crossroads_mall_ceiling
0 -102 -38 2 0 -0.514496 -0.857493 -24.591812 116.546875 1 0 1
0 -2 -23 -7 0 -0.514496 -0.857493 -24.5275 115.765625 1 0 1
0 -2 -38 2 0 -0.514496 -0.857493 -24.591812 115.765625 1 0 1
bridge_se1_metal_flat_steel_01
0 24 -113 47 -1 0 0 -28.681641 -0.412109 1 0 1
0 24 -113 88 -1 0 0 -28.681641 -0.091797 1 0 1
0 24 112 222.9999 -1 0 0 -26.923828 0.96289 1 0 1
bridge_se1_metal_flat_steel_01
0 24 -113 47 -1 0 0 -28.681641 -0.412109 1 0 1
0 24 112 222.9999 -1 0 0 -26.923828 0.96289 1 0 1
0 24 112 182 -1 0 0 -26.923828 0.642578 1 0 1
bridge_se1_metal_flat_steel_01
0 28 -113 88 1 0 0 -28.681641 -0.091797 1 0 1
0 28 -113 47 1 0 0 -28.681641 -0.412109 1 0 1
0 28 112 182 1 0 0 -26.923828 0.642578 1 0 1
bridge_se1_metal_flat_steel_01
0 28 -113 88 1 0 0 -28.681641 -0.091797 1 0 1
0 28 112 182 1 0 0 -26.923828 0.642578 1 0 1
0 28 112 222.9999 1 0 0 -26.923828 0.96289 1 0 1
bridge_se1_metal_flat_steel_01
0 24 -113 88 0 -0.514495 0.857493 -24.973184 114.994141 1 0 1
0 28 -113 88 0 -0.514495 0.857493 -24.973184 114.962891 1 0 1
0 28 112 222.9999 0 -0.514495 0.857493 -22.923223 114.962891 1 0 1
bridge_se1_metal_flat_steel_01
0 24 -113 88 0 -0.514495 0.857493 -24.973184 114.994141 1 0 1
0 28 112 222.9999 0 -0.514495 0.857493 -22.923223 114.962891 1 0 1
0 24 112 222.9999 0 -0.514495 0.857493 -22.923223 114.994141 1 0 1
bridge_se1_metal_flat_steel_01
0 28 -113 47 0 0.514496 -0.857493 37.318575 -109.413461 1 0 1
0 24 -113 47 0 0.514496 -0.857493 37.334653 -109.440258 1 0 1
0 24 112 182 0 0.514496 -0.857493 39.092501 -108.385535 1 0 1
bridge_se1_metal_flat_steel_01
0 28 -113 47 0 0.514496 -0.857493 37.318575 -109.413461 1 0 1
0 24 112 182 0 0.514496 -0.857493 39.092501 -108.385535 1 0 1
0 28 112 182 0 0.514496 -0.857493 39.076423 -108.358738 1 0 1
pepsi2_arch_concrete_stair01
0 -2 97 -70 0 1 0 113.875 -1.453125 1 0 1
0 -2 97 -79 0 1 0 113.875 -1.523438 1 0 1
0 -102 97 -79 0 1 0 114.65625 -1.523438 1 0 1
pepsi2_arch_concrete_stair01
0 -2 97 -70 0 1 0 113.875 -1.453125 1 0 1
0 -102 97 -79 0 1 0 114.65625 -1.523438 1 0 1
0 -102 97 -70 0 1 0 114.65625 -1.453125 1 0 1
pepsi2_arch_concrete_stair01
0 -2 82 -70 0 0 1 25.429688 -114.394531 1 0 1
0 -2 97 -70 0 0 1 25.3125 -114.394531 1 0 1
0 -102 97 -70 0 0 1 25.3125 -115.175781 1 0 1
pepsi2_arch_concrete_stair01
0 -2 82 -70 0 0 1 25.429688 -114.394531 1 0 1
0 -102 97 -70 0 0 1 25.3125 -115.175781 1 0 1
0 -102 82 -70 0 0 1 25.429688 -115.175781 1 0 1
crossroads_mall_ceiling
0 -102 82 -70 0 -0.514496 -0.857493 -24.077312 116.546875 1 0 1
0 -102 97 -79 0 -0.514496 -0.857493 -24.013 116.546875 1 0 1
0 -2 97 -79 0 -0.514496 -0.857493 -24.013 115.765625 1 0 1
crossroads_mall_ceiling
0 -102 82 -70 0 -0.514496 -0.857493 -24.077312 116.546875 1 0 1
0 -2 97 -79 0 -0.514496 -0.857493 -24.013 115.765625 1 0 1
0 -2 82 -70 0 -0.514496 -0.857493 -24.077312 115.765625 1 0 1
pepsi2_arch_concrete_stair01
0 128 67 155 0 -1 0 -114.71875 0.304688 1 0 1
0 128 67 164 0 -1 0 -114.71875 0.375 1 0 1
0 28 67 164 0 -1 0 -115.5 0.375 1 0 1
pepsi2_arch_concrete_stair01
0 128 67 155 0 -1 0 -114.71875 0.304688 1 0 1
0 28 67 164 0 -1 0 -115.5 0.375 1 0 1
0 28 67 155 0 -1 0 -115.5 0.304688 1 0 1
pepsi2_arch_concrete_floor_smooth01
0 128 67 164 1 0 0 -26.476562 0.03125 1 0 1
0 128 67 155 1 0 0 -26.476562 -0.039062 1 0 1
0 128 82 164 1 0 0 -26.359375 0.03125 1 0 1
pepsi2_arch_concrete_stair01
0 28 67 164 0 0 1 25.546875 -112.980469 1 0 1
0 128 67 164 0 0 1 25.546875 -112.199219 1 0 1
0 128 82 164 0 0 1 25.429688 -112.199219 1 0 1
pepsi2_arch_concrete_stair01
0 28 67 164 0 0 1 25.546875 -112.980469 1 0 1
0 128 82 164 0 0 1 25.429688 -112.199219 1 0 1
0 28 82 164 0 0 1 25.429688 -112.980469 1 0 1
crossroads_mall_ceiling
0 128 67 155 0 0.514496 -0.857493 -23.273406 114.71875 1 0 1
0 28 67 155 0 0.514496 -0.857493 -23.273406 115.5 1 0 1
0 28 82 164 0 0.514496 -0.857493 -23.136742 115.5 1 0 1
crossroads_mall_ceiling
0 128 67 155 0 0.514496 -0.857493 -23.273406 114.71875 1 0 1
0 28 82 164 0 0.514496 -0.857493 -23.136742 115.5 1 0 1
0 128 82 164 0 0.514496 -0.857493 -23.136742 114.71875 1 0 1
pepsi2_arch_concrete_stair01
0 28 -68 83 0 0 1 26.601562 -112.980469 1 0 1
0 128 -68 83 0 0 1 26.601562 -112.199219 1 0 1
0 128 -52.98 83 0 0 1 26.484219 -112.199219 1 0 1
pepsi2_arch_concrete_stair01
0 28 -68 83 0 0 1 26.601562 -112.980469 1 0 1
0 128 -52.98 83 0 0 1 26.484219 -112.199219 1 0 1
0 28 -52.98 83 0 0 1 26.484219 -112.980469 1 0 1
crossroads_mall_ceiling
0 28 -52.98 83 0 0.513992 -0.857795 -24.366585 115.5 1 0 1
0 128 -52.98 83 0 0.513992 -0.857795 -24.366585 114.71875 1 0 1
0 128 -68 74 0 0.513992 -0.857795 -24.503383 114.71875 1 0 1
crossroads_mall_ceiling
0 28 -52.98 83 0 0.513992 -0.857795 -24.366585 115.5 1 0 1
0 128 -68 74 0 0.513992 -0.857795 -24.503383 114.71875 1 0 1
0 28 -68 74 0 0.513992 -0.857795 -24.503383 115.5 1 0 1
pepsi2_arch_concrete_stair01
0 128 -68 74 0 -1 0 -114.71875 -0.328125 1 0 1
0 128 -68 83 0 -1 0 -114.71875 -0.257812 1 0 1
0 28 -68 83 0 -1 0 -115.5 -0.257812 1 0 1
pepsi2_arch_concrete_stair01
0 128 -68 74 0 -1 0 -114.71875 -0.328125 1 0 1
0 28 -68 83 0 -1 0 -115.5 -0.257812 1 0 1
0 28 -68 74 0 -1 0 -115.5 -0.328125 1 0 1
concrete_concrete_mall_clean00
0 -110 202 55 0 1 0 -192.671224 -1.627604 1 0 1
0 -110 202 45 0 1 0 -192.671224 -1.757812 1 0 1
0 -113 202 45 0 1 0 -192.710286 -1.757812 1 0 1
concrete_concrete_mall_clean00
0 -110 202 55 0 1 0 -192.671224 -1.627604 1 0 1
0 -113 202 45 0 1 0 -192.710286 -1.757812 1 0 1
0 -113 202 55 0 1 0 -192.710286 -1.627604 1 0 1
concrete_concrete_mall_clean00
0 -113 -185 45 -1 0 0 -47.748698 -1.757812 1 0 1
0 -113 -185 55 -1 0 0 -47.748698 -1.627604 1 0 1
0 -113 202 55 -1 0 0 -42.709635 -1.627604 1 0 1
concrete_concrete_mall_clean00
0 -113 -185 45 -1 0 0 -47.748698 -1.757812 1 0 1
0 -113 202 55 -1 0 0 -42.709635 -1.627604 1 0 1
0 -113 202 45 -1 0 0 -42.709635 -1.757812 1 0 1
concrete_concrete_mall_clean00
0 -110 -185 45 0 0 -1 -192.671224 -46.797526 1 0 1
0 -113 -185 45 0 0 -1 -192.710286 -46.797526 1 0 1
0 -113 202 45 0 0 -1 -192.710286 -41.758464 1 0 1
concrete_concrete_mall_clean00
0 -110 -185 45 0 0 -1 -192.671224 -46.797526 1 0 1
0 -113 202 45 0 0 -1 -192.710286 -41.758464 1 0 1
0 -110 202 45 0 0 -1 -192.671224 -41.758464 1 0 1
concrete_concrete_mall_clean00
0 -113 -185 55 0 0 1 -192.710286 48.410807 1 0 1
0 -110 -185 55 0 0 1 -192.671224 48.410807 1 0 1
0 -110 202 55 0 0 1 -192.671224 43.371745 1 0 1
concrete_concrete_mall_clean00
0 -113 -185 55 0 0 1 -192.710286 48.410807 1 0 1
0 -110 202 55 0 0 1 -192.671224 43.371745 1 0 1
0 -113 202 55 0 0 1 -192.710286 43.371745 1 0 1
pepsi2_arch_concrete_stair01
0 -2 -83 38 0 1 0 113.875 -0.609375 1 0 1
0 -2 -83 29 0 1 0 113.875 -0.679688 1 0 1
0 -102 -83 29 0 1 0 114.65625 -0.679688 1 0 1
pepsi2_arch_concrete_stair01
0 -2 -83 38 0 1 0 113.875 -0.609375 1 0 1
0 -102 -83 29 0 1 0 114.65625 -0.679688 1 0 1
0 -102 -83 38 0 1 0 114.65625 -0.609375 1 0 1
pepsi2_arch_concrete_stair01
0 -2 -98 38 0 0 1 26.835938 -114.394531 1 0 1
0 -2 -83 38 0 0 1 26.71875 -114.394531 1 0 1
0 -102 -83 38 0 0 1 26.71875 -115.175781 1 0 1
pepsi2_arch_concrete_stair01
0 -2 -98 38 0 0 1 26.835938 -114.394531 1 0 1
0 -102 -83 38 0 0 1 26.71875 -115.175781 1 0 1
0 -102 -98 38 0 0 1 26.835938 -115.175781 1 0 1
crossroads_mall_ceiling
0 -102 -98 38 0 -0.514496 -0.857493 -24.849062 116.546875 1 0 1
0 -102 -83 29 0 -0.514496 -0.857493 -24.78475 116.546875 1 0 1
0 -2 -83 29 0 -0.514496 -0.857493 -24.78475 115.765625 1 0 1
crossroads_mall_ceiling
0 -102 -98 38 0 -0.514496 -0.857493 -24.849062 116.546875 1 0 1
0 -2 -83 29 0 -0.514496 -0.857493 -24.78475 115.765625 1 0 1
0 -2 -98 38 0 -0.514496 -0.857493 -24.849062 115.765625 1 0 1
end
