version 1
nodes
0 "root" -1
end
skeleton
time 0
0 0 0 0 0 0 0
end
triangles
ocrp_glass2
0 -18 2 21 0 1 0 1062 -142 1 0 1
0 -18 2 85 0 1 0 1062 -126 1 0 1
0 62 2 85 0 1 0 1082 -126 1 0 1
ocrp_glass2
0 -18 2 21 0 1 0 1062 -142 1 0 1
0 62 2 85 0 1 0 1082 -126 1 0 1
0 62 2 21 0 1 0 1082 -142 1 0 1
ocrp_glass2
0 62 1 21 0 -1 0 1082 -142 1 0 1
0 62 1 85 0 -1 0 1082 -126 1 0 1
0 -18 1 85 0 -1 0 1062 -126 1 0 1
ocrp_glass2
0 62 1 21 0 -1 0 1082 -142 1 0 1
0 -18 1 85 0 -1 0 1062 -126 1 0 1
0 -18 1 21 0 -1 0 1062 -142 1 0 1
realworldtextures2_wood_wood_19
0 -114 4 85 0 1 0 33.25 -2.921875 1 0 1
0 -114 4 21 0 1 0 33.25 -3.421875 1 0 1
0 -142 4 21 0 1 0 33.03125 -3.421875 1 0 1
realworldtextures2_wood_wood_19
0 -114 4 85 0 1 0 33.25 -2.921875 1 0 1
0 -142 4 21 0 1 0 33.03125 -3.421875 1 0 1
0 -142 4 85 0 1 0 33.03125 -2.921875 1 0 1
realworldtextures2_wood_wood_19
0 -114 -4 21 0 -1 0 33.25 -3.421875 1 0 1
0 -114 -4 85 0 -1 0 33.25 -2.921875 1 0 1
0 -142 -4 85 0 -1 0 33.03125 -2.921875 1 0 1
realworldtextures2_wood_wood_19
0 -114 -4 21 0 -1 0 33.25 -3.421875 1 0 1
0 -142 -4 85 0 -1 0 33.03125 -2.921875 1 0 1
0 -142 -4 21 0 -1 0 33.03125 -3.421875 1 0 1
realworldtextures2_wood_wood_19
0 -142 -4 21 -1 0 0 -24.9375 -3.421875 1 0 1
0 -142 -4 85 -1 0 0 -24.9375 -2.921875 1 0 1
0 -142 4 85 -1 0 0 -25 -2.921875 1 0 1
realworldtextures2_wood_wood_19
0 -142 -4 21 -1 0 0 -24.9375 -3.421875 1 0 1
0 -142 4 85 -1 0 0 -25 -2.921875 1 0 1
0 -142 4 21 -1 0 0 -25 -3.421875 1 0 1
realworldtextures2_wood_wood_19
0 -114 -4 85 1 0 0 -24.9375 -2.921875 1 0 1
0 -114 -4 21 1 0 0 -24.9375 -3.421875 1 0 1
0 -114 4 21 1 0 0 -25 -3.421875 1 0 1
realworldtextures2_wood_wood_19
0 -114 -4 85 1 0 0 -24.9375 -2.921875 1 0 1
0 -114 4 21 1 0 0 -25 -3.421875 1 0 1
0 -114 4 85 1 0 0 -25 -2.921875 1 0 1
realworldtextures2_wood_wood_19
0 -18 4 85 0 1 0 34 -2.921875 1 0 1
0 -18 4 21 0 1 0 34 -3.421875 1 0 1
0 -34 4 21 0 1 0 33.875 -3.421875 1 0 1
realworldtextures2_wood_wood_19
0 -18 4 85 0 1 0 34 -2.921875 1 0 1
0 -34 4 21 0 1 0 33.875 -3.421875 1 0 1
0 -34 4 85 0 1 0 33.875 -2.921875 1 0 1
realworldtextures2_wood_wood_19
0 -18 -4 21 0 -1 0 34 -3.421875 1 0 1
0 -18 -4 85 0 -1 0 34 -2.921875 1 0 1
0 -34 -4 85 0 -1 0 33.875 -2.921875 1 0 1
realworldtextures2_wood_wood_19
0 -18 -4 21 0 -1 0 34 -3.421875 1 0 1
0 -34 -4 85 0 -1 0 33.875 -2.921875 1 0 1
0 -34 -4 21 0 -1 0 33.875 -3.421875 1 0 1
realworldtextures2_wood_wood_19
0 -34 -4 21 -1 0 0 -24.9375 -3.421875 1 0 1
0 -34 -4 85 -1 0 0 -24.9375 -2.921875 1 0 1
0 -34 4 85 -1 0 0 -25 -2.921875 1 0 1
realworldtextures2_wood_wood_19
0 -34 -4 21 -1 0 0 -24.9375 -3.421875 1 0 1
0 -34 4 85 -1 0 0 -25 -2.921875 1 0 1
0 -34 4 21 -1 0 0 -25 -3.421875 1 0 1
realworldtextures2_wood_wood_19
0 -18 -4 85 1 0 0 -24.9375 -2.921875 1 0 1
0 -18 -4 21 1 0 0 -24.9375 -3.421875 1 0 1
0 -18 4 21 1 0 0 -25 -3.421875 1 0 1
realworldtextures2_wood_wood_19
0 -18 -4 85 1 0 0 -24.9375 -2.921875 1 0 1
0 -18 4 21 1 0 0 -25 -3.421875 1 0 1
0 -18 4 85 1 0 0 -25 -2.921875 1 0 1
realworldtextures2_wood_wood_19
0 142 4 -21 0 1 0 35.25 -3.75 1 0 1
0 -142 4 -21 0 1 0 33.03125 -3.75 1 0 1
0 -142 4 21 0 1 0 33.03125 -3.421875 1 0 1
realworldtextures2_wood_wood_19
0 142 4 -21 0 1 0 35.25 -3.75 1 0 1
0 -142 4 21 0 1 0 33.03125 -3.421875 1 0 1
0 113.3 4 21 0 1 0 35.025781 -3.421875 1 0 1
realworldtextures2_wood_wood_19
0 113.3 -4 21 0 -1 0 35.025781 -3.421875 1 0 1
0 -142 -4 21 0 -1 0 33.03125 -3.421875 1 0 1
0 -142 -4 -21 0 -1 0 33.03125 -3.75 1 0 1
realworldtextures2_wood_wood_19
0 113.3 -4 21 0 -1 0 35.025781 -3.421875 1 0 1
0 -142 -4 -21 0 -1 0 33.03125 -3.75 1 0 1
0 142 -4 -21 0 -1 0 35.25 -3.75 1 0 1
ocrp_glass2
0 -34 2 85 0 1 0 1058 -126 1 0 1
0 -34 2 21 0 1 0 1058 -142 1 0 1
0 -114 2 21 0 1 0 1038 -142 1 0 1
ocrp_glass2
0 -34 2 85 0 1 0 1058 -126 1 0 1
0 -114 2 21 0 1 0 1038 -142 1 0 1
0 -114 2 85 0 1 0 1038 -126 1 0 1
ocrp_glass2
0 -34 1 21 0 -1 0 1058 -142 1 0 1
0 -34 1 85 0 -1 0 1058 -126 1 0 1
0 -114 1 85 0 -1 0 1038 -126 1 0 1
ocrp_glass2
0 -34 1 21 0 -1 0 1058 -142 1 0 1
0 -114 1 85 0 -1 0 1038 -126 1 0 1
0 -114 1 21 0 -1 0 1038 -142 1 0 1
realworldtextures2_wood_wood_19
0 113.3 4 21 0 1 0 35.025781 -3.421875 1 0 1
0 62 4 21 0 1 0 34.625 -3.421875 1 0 1
0 62 4 85 0 1 0 34.625 -2.921875 1 0 1
realworldtextures2_wood_wood_19
0 113.3 4 21 0 1 0 35.025781 -3.421875 1 0 1
0 62 4 85 0 1 0 34.625 -2.921875 1 0 1
0 69.5 4 85 0 1 0 34.683594 -2.921875 1 0 1
realworldtextures2_wood_wood_19
0 69.5 -4 85 0 -1 0 34.683594 -2.921875 1 0 1
0 62 -4 85 0 -1 0 34.625 -2.921875 1 0 1
0 62 -4 21 0 -1 0 34.625 -3.421875 1 0 1
realworldtextures2_wood_wood_19
0 69.5 -4 85 0 -1 0 34.683594 -2.921875 1 0 1
0 62 -4 21 0 -1 0 34.625 -3.421875 1 0 1
0 113.3 -4 21 0 -1 0 35.025781 -3.421875 1 0 1
realworldtextures2_wood_wood_19
0 62 -4 21 -1 0 0 -24.9375 -3.421875 1 0 1
0 62 -4 85 -1 0 0 -24.9375 -2.921875 1 0 1
0 62 4 85 -1 0 0 -25 -2.921875 1 0 1
realworldtextures2_wood_wood_19
0 62 -4 21 -1 0 0 -24.9375 -3.421875 1 0 1
0 62 4 85 -1 0 0 -25 -2.921875 1 0 1
0 62 4 21 -1 0 0 -25 -3.421875 1 0 1
end
