version 1
nodes
0 "root" -1
end
skeleton
time 0
0 0 0 0 0 0 0
end
triangles
phys
0 57.1 0.07 -131 0 0 1 1 0 1 0 1
0 57.1 4.08 -131 0 0 1 1 0 1 0 1
0 57.1 4.08 -127 0 0 1 1 0 1 0 1
phys
0 57.1 0.07 -131 0 0 1 1 0 1 0 1
0 57.1 4.08 -127 0 0 1 1 0 1 0 1
0 57.1 0.07 -127 0 0 1 1 0 1 0 1
phys
0 1 4.08 -131 0 0 1 1 0 1 0 1
0 57.1 4.08 -131 0 0 1 1 0 1 0 1
0 57.1 0.07 -131 0 0 1 1 0 1 0 1
phys
0 1 4.08 -131 0 0 1 1 0 1 0 1
0 57.1 0.07 -131 0 0 1 1 0 1 0 1
0 1 0.07 -131 0 0 1 1 0 1 0 1
phys
0 1 0.07 -127 0 0 1 1 0 1 0 1
0 57.1 0.07 -127 0 0 1 1 0 1 0 1
0 57.1 4.08 -127 0 0 1 1 0 1 0 1
phys
0 1 0.07 -127 0 0 1 1 0 1 0 1
0 57.1 4.08 -127 0 0 1 1 0 1 0 1
0 1 4.08 -127 0 0 1 1 0 1 0 1
phys
0 57.1 4.08 -127 0 0 1 1 0 1 0 1
0 57.1 4.08 -131 0 0 1 1 0 1 0 1
0 1 4.08 -131 0 0 1 1 0 1 0 1
phys
0 57.1 4.08 -127 0 0 1 1 0 1 0 1
0 1 4.08 -131 0 0 1 1 0 1 0 1
0 1 4.08 -127 0 0 1 1 0 1 0 1
phys
0 57.1 0.07 -131 0 0 1 1 0 1 0 1
0 57.1 0.07 -127 0 0 1 1 0 1 0 1
0 1 0.07 -127 0 0 1 1 0 1 0 1
phys
0 57.1 0.07 -131 0 0 1 1 0 1 0 1
0 1 0.07 -127 0 0 1 1 0 1 0 1
0 1 0.07 -131 0 0 1 1 0 1 0 1
phys
0 1 0.07 -127 0 0 1 1 0 1 0 1
0 1 4.08 -127 0 0 1 1 0 1 0 1
0 1 4.08 -131 0 0 1 1 0 1 0 1
phys
0 1 0.07 -127 0 0 1 1 0 1 0 1
0 1 4.08 -131 0 0 1 1 0 1 0 1
0 1 0.07 -131 0 0 1 1 0 1 0 1
phys
0 4.1 4.14 -129 0 0 1 2 0 1 0 1
0 -3.9 4.14 -129 0 0 1 2 0 1 0 1
0 -3.9 4.14 128 0 0 1 2 0 1 0 1
phys
0 4.1 4.14 -129 0 0 1 2 0 1 0 1
0 -3.9 4.14 128 0 0 1 2 0 1 0 1
0 4.1 4.14 128 0 0 1 2 0 1 0 1
phys
0 -3.9 -3.97 128 0 0 1 2 0 1 0 1
0 -3.9 4.14 128 0 0 1 2 0 1 0 1
0 -3.9 4.14 -129 0 0 1 2 0 1 0 1
phys
0 -3.9 -3.97 128 0 0 1 2 0 1 0 1
0 -3.9 4.14 -129 0 0 1 2 0 1 0 1
0 -3.9 -3.97 -129 0 0 1 2 0 1 0 1
phys
0 -3.9 -3.97 -129 0 0 1 2 0 1 0 1
0 -3.9 4.14 -129 0 0 1 2 0 1 0 1
0 4.1 4.14 -129 0 0 1 2 0 1 0 1
phys
0 4.1 4.14 128 0 0 1 2 0 1 0 1
0 -3.9 4.14 128 0 0 1 2 0 1 0 1
0 -3.9 -3.97 128 0 0 1 2 0 1 0 1
phys
0 -3.9 -3.97 128 0 0 1 2 0 1 0 1
0 -3.9 -3.97 -129 0 0 1 2 0 1 0 1
0 4.1 4.14 -129 0 0 1 2 0 1 0 1
phys
0 -3.9 -3.97 128 0 0 1 2 0 1 0 1
0 4.1 4.14 -129 0 0 1 2 0 1 0 1
0 4.1 4.14 128 0 0 1 2 0 1 0 1
phys
0 1 4.08 -127 0 0 1 3 0 1 0 1
0 1 4.08 -131 0 0 1 3 0 1 0 1
0 -3 4.08 -131 0 0 1 3 0 1 0 1
phys
0 1 4.08 -127 0 0 1 3 0 1 0 1
0 -3 4.08 -131 0 0 1 3 0 1 0 1
0 -3 4.08 -127 0 0 1 3 0 1 0 1
phys
0 1 -60 -131 0 0 1 3 0 1 0 1
0 1 -60 -127 0 0 1 3 0 1 0 1
0 -3 -60 -127 0 0 1 3 0 1 0 1
phys
0 1 -60 -131 0 0 1 3 0 1 0 1
0 -3 -60 -127 0 0 1 3 0 1 0 1
0 -3 -60 -131 0 0 1 3 0 1 0 1
phys
0 -3 -60 -131 0 0 1 3 0 1 0 1
0 -3 -60 -127 0 0 1 3 0 1 0 1
0 -3 4.08 -127 0 0 1 3 0 1 0 1
phys
0 -3 -60 -131 0 0 1 3 0 1 0 1
0 -3 4.08 -127 0 0 1 3 0 1 0 1
0 -3 4.08 -131 0 0 1 3 0 1 0 1
phys
0 1 -60 -127 0 0 1 3 0 1 0 1
0 1 -60 -131 0 0 1 3 0 1 0 1
0 1 4.08 -131 0 0 1 3 0 1 0 1
phys
0 1 -60 -127 0 0 1 3 0 1 0 1
0 1 4.08 -131 0 0 1 3 0 1 0 1
0 1 4.08 -127 0 0 1 3 0 1 0 1
phys
0 1 -60 -131 0 0 1 3 0 1 0 1
0 -3 -60 -131 0 0 1 3 0 1 0 1
0 -3 4.08 -131 0 0 1 3 0 1 0 1
phys
0 1 -60 -131 0 0 1 3 0 1 0 1
0 -3 4.08 -131 0 0 1 3 0 1 0 1
0 1 4.08 -131 0 0 1 3 0 1 0 1
phys
0 -3 -60 -127 0 0 1 3 0 1 0 1
0 1 -60 -127 0 0 1 3 0 1 0 1
0 1 4.08 -127 0 0 1 3 0 1 0 1
phys
0 -3 -60 -127 0 0 1 3 0 1 0 1
0 1 4.08 -127 0 0 1 3 0 1 0 1
0 -3 4.08 -127 0 0 1 3 0 1 0 1
phys
0 57.1 -55.99 -127 0 0 1 4 0 1 0 1
0 57.1 -55.99 -131 0 0 1 4 0 1 0 1
0 1 -55.99 -131 0 0 1 4 0 1 0 1
phys
0 57.1 -55.99 -127 0 0 1 4 0 1 0 1
0 1 -55.99 -131 0 0 1 4 0 1 0 1
0 1 -55.99 -127 0 0 1 4 0 1 0 1
phys
0 57.1 -60 -131 0 0 1 4 0 1 0 1
0 57.1 -60 -127 0 0 1 4 0 1 0 1
0 1 -60 -127 0 0 1 4 0 1 0 1
phys
0 57.1 -60 -131 0 0 1 4 0 1 0 1
0 1 -60 -127 0 0 1 4 0 1 0 1
0 1 -60 -131 0 0 1 4 0 1 0 1
phys
0 1 -60 -131 0 0 1 4 0 1 0 1
0 1 -60 -127 0 0 1 4 0 1 0 1
0 1 -55.99 -127 0 0 1 4 0 1 0 1
phys
0 1 -60 -131 0 0 1 4 0 1 0 1
0 1 -55.99 -127 0 0 1 4 0 1 0 1
0 1 -55.99 -131 0 0 1 4 0 1 0 1
phys
0 57.1 -60 -127 0 0 1 4 0 1 0 1
0 57.1 -60 -131 0 0 1 4 0 1 0 1
0 57.1 -55.99 -131 0 0 1 4 0 1 0 1
phys
0 57.1 -60 -127 0 0 1 4 0 1 0 1
0 57.1 -55.99 -131 0 0 1 4 0 1 0 1
0 57.1 -55.99 -127 0 0 1 4 0 1 0 1
phys
0 57.1 -60 -131 0 0 1 4 0 1 0 1
0 1 -60 -131 0 0 1 4 0 1 0 1
0 1 -55.99 -131 0 0 1 4 0 1 0 1
phys
0 57.1 -60 -131 0 0 1 4 0 1 0 1
0 1 -55.99 -131 0 0 1 4 0 1 0 1
0 57.1 -55.99 -131 0 0 1 4 0 1 0 1
phys
0 1 -60 -127 0 0 1 4 0 1 0 1
0 57.1 -60 -127 0 0 1 4 0 1 0 1
0 57.1 -55.99 -127 0 0 1 4 0 1 0 1
phys
0 1 -60 -127 0 0 1 4 0 1 0 1
0 57.1 -55.99 -127 0 0 1 4 0 1 0 1
0 1 -55.99 -127 0 0 1 4 0 1 0 1
phys
0 62.2 -2.92 -127 0 0 1 5 0 1 0 1
0 62.2 5.2 -127 0 0 1 5 0 1 0 1
0 62.2 5.2 120 0 0 1 5 0 1 0 1
phys
0 62.2 -2.92 -127 0 0 1 5 0 1 0 1
0 62.2 5.2 120 0 0 1 5 0 1 0 1
0 62.2 -2.92 120 0 0 1 5 0 1 0 1
phys
0 62.2 5.2 -127 0 0 1 5 0 1 0 1
0 62.2 -2.92 -127 0 0 1 5 0 1 0 1
0 54.2 5.2 -127 0 0 1 5 0 1 0 1
phys
0 62.2 -2.92 120 0 0 1 5 0 1 0 1
0 62.2 5.2 120 0 0 1 5 0 1 0 1
0 54.2 5.2 120 0 0 1 5 0 1 0 1
phys
0 62.2 -2.92 -127 0 0 1 5 0 1 0 1
0 62.2 -2.92 120 0 0 1 5 0 1 0 1
0 54.2 5.2 120 0 0 1 5 0 1 0 1
phys
0 62.2 -2.92 -127 0 0 1 5 0 1 0 1
0 54.2 5.2 120 0 0 1 5 0 1 0 1
0 54.2 5.2 -127 0 0 1 5 0 1 0 1
phys
0 62.2 5.2 120 0 0 1 5 0 1 0 1
0 62.2 5.2 -127 0 0 1 5 0 1 0 1
0 54.2 5.2 -127 0 0 1 5 0 1 0 1
phys
0 62.2 5.2 120 0 0 1 5 0 1 0 1
0 54.2 5.2 -127 0 0 1 5 0 1 0 1
0 54.2 5.2 120 0 0 1 5 0 1 0 1
phys
0 -2.8 -52.03 -129.665 0 0 1 6 0 1 0 1
0 4.9 -59.96 -129.665 0 0 1 6 0 1 0 1
0 -2.8 -59.96 -129.665 0 0 1 6 0 1 0 1
phys
0 -2.8 -59.96 51.85 0 0 1 6 0 1 0 1
0 4.9 -59.96 51.85 0 0 1 6 0 1 0 1
0 -2.8 -52.03 51.85 0 0 1 6 0 1 0 1
phys
0 4.9 -59.96 -129.665 0 0 1 6 0 1 0 1
0 -2.8 -52.03 -129.665 0 0 1 6 0 1 0 1
0 -2.8 -52.03 51.85 0 0 1 6 0 1 0 1
phys
0 4.9 -59.96 -129.665 0 0 1 6 0 1 0 1
0 -2.8 -52.03 51.85 0 0 1 6 0 1 0 1
0 4.9 -59.96 51.85 0 0 1 6 0 1 0 1
phys
0 4.9 -59.96 51.85 0 0 1 6 0 1 0 1
0 -2.8 -59.96 51.85 0 0 1 6 0 1 0 1
0 -2.8 -59.96 -129.665 0 0 1 6 0 1 0 1
phys
0 4.9 -59.96 51.85 0 0 1 6 0 1 0 1
0 -2.8 -59.96 -129.665 0 0 1 6 0 1 0 1
0 4.9 -59.96 -129.665 0 0 1 6 0 1 0 1
phys
0 -2.8 -59.96 51.85 0 0 1 6 0 1 0 1
0 -2.8 -52.03 51.85 0 0 1 6 0 1 0 1
0 -2.8 -52.03 -129.665 0 0 1 6 0 1 0 1
phys
0 -2.8 -59.96 51.85 0 0 1 6 0 1 0 1
0 -2.8 -52.03 -129.665 0 0 1 6 0 1 0 1
0 -2.8 -59.96 -129.665 0 0 1 6 0 1 0 1
phys
0 61.1 -60 -131 0 0 1 7 0 1 0 1
0 61.1 -60 -127 0 0 1 7 0 1 0 1
0 57.1 -60 -127 0 0 1 7 0 1 0 1
phys
0 61.1 -60 -131 0 0 1 7 0 1 0 1
0 57.1 -60 -127 0 0 1 7 0 1 0 1
0 57.1 -60 -131 0 0 1 7 0 1 0 1
phys
0 57.1 -60 -131 0 0 1 7 0 1 0 1
0 57.1 -60 -127 0 0 1 7 0 1 0 1
0 57.1 4.08 -127 0 0 1 7 0 1 0 1
phys
0 57.1 -60 -131 0 0 1 7 0 1 0 1
0 57.1 4.08 -127 0 0 1 7 0 1 0 1
0 57.1 4.08 -131 0 0 1 7 0 1 0 1
phys
0 61.1 -60 -127 0 0 1 7 0 1 0 1
0 61.1 -60 -131 0 0 1 7 0 1 0 1
0 61.1 4.08 -131 0 0 1 7 0 1 0 1
phys
0 61.1 -60 -127 0 0 1 7 0 1 0 1
0 61.1 4.08 -131 0 0 1 7 0 1 0 1
0 61.1 4.08 -127 0 0 1 7 0 1 0 1
phys
0 61.1 -60 -131 0 0 1 7 0 1 0 1
0 57.1 -60 -131 0 0 1 7 0 1 0 1
0 57.1 4.08 -131 0 0 1 7 0 1 0 1
phys
0 61.1 -60 -131 0 0 1 7 0 1 0 1
0 57.1 4.08 -131 0 0 1 7 0 1 0 1
0 61.1 4.08 -131 0 0 1 7 0 1 0 1
phys
0 57.1 -60 -127 0 0 1 7 0 1 0 1
0 61.1 -60 -127 0 0 1 7 0 1 0 1
0 61.1 4.08 -127 0 0 1 7 0 1 0 1
phys
0 57.1 -60 -127 0 0 1 7 0 1 0 1
0 61.1 4.08 -127 0 0 1 7 0 1 0 1
0 57.1 4.08 -127 0 0 1 7 0 1 0 1
phys
0 61.1 4.08 -127 0 0 1 7 0 1 0 1
0 61.1 4.08 -131 0 0 1 7 0 1 0 1
0 57.1 4.08 -131 0 0 1 7 0 1 0 1
phys
0 61.1 4.08 -127 0 0 1 7 0 1 0 1
0 57.1 4.08 -131 0 0 1 7 0 1 0 1
0 57.1 4.08 -127 0 0 1 7 0 1 0 1
phys
0 61 -59.92 -129.665 0 0 1 8 0 1 0 1
0 61 -59.92 51.85 0 0 1 8 0 1 0 1
0 53.3 -59.92 51.85 0 0 1 8 0 1 0 1
phys
0 61 -59.92 -129.665 0 0 1 8 0 1 0 1
0 53.3 -59.92 51.85 0 0 1 8 0 1 0 1
0 53.3 -59.92 -129.665 0 0 1 8 0 1 0 1
phys
0 61 -59.92 51.85 0 0 1 8 0 1 0 1
0 61 -59.92 -129.665 0 0 1 8 0 1 0 1
0 61 -52.03 -129.665 0 0 1 8 0 1 0 1
phys
0 61 -59.92 51.85 0 0 1 8 0 1 0 1
0 61 -52.03 -129.665 0 0 1 8 0 1 0 1
0 61 -52.03 51.85 0 0 1 8 0 1 0 1
phys
0 61 -59.92 -129.665 0 0 1 8 0 1 0 1
0 53.3 -59.92 -129.665 0 0 1 8 0 1 0 1
0 61 -52.03 -129.665 0 0 1 8 0 1 0 1
phys
0 53.3 -59.92 51.85 0 0 1 8 0 1 0 1
0 61 -59.92 51.85 0 0 1 8 0 1 0 1
0 61 -52.03 51.85 0 0 1 8 0 1 0 1
phys
0 53.3 -59.92 -129.665 0 0 1 8 0 1 0 1
0 53.3 -59.92 51.85 0 0 1 8 0 1 0 1
0 61 -52.03 51.85 0 0 1 8 0 1 0 1
phys
0 53.3 -59.92 -129.665 0 0 1 8 0 1 0 1
0 61 -52.03 51.85 0 0 1 8 0 1 0 1
0 61 -52.03 -129.665 0 0 1 8 0 1 0 1
end
