version 1
nodes
0 "root" -1
end
skeleton
time 0
0 0 0 0 0 0 0
end
triangles
phys
0 -21 -68 12 0 0 1 1 0 1 0 1
0 -21 -68 -91 0 0 1 1 0 1 0 1
0 -24 -68 -91 0 0 1 1 0 1 0 1
phys
0 -21 -68 12 0 0 1 1 0 1 0 1
0 -24 -68 -91 0 0 1 1 0 1 0 1
0 -24 -68 12 0 0 1 1 0 1 0 1
phys
0 -21 -71 -91 0 0 1 1 0 1 0 1
0 -21 -71 12 0 0 1 1 0 1 0 1
0 -24 -71 12 0 0 1 1 0 1 0 1
phys
0 -21 -71 -91 0 0 1 1 0 1 0 1
0 -24 -71 12 0 0 1 1 0 1 0 1
0 -24 -71 -91 0 0 1 1 0 1 0 1
phys
0 -24 -71 -91 0 0 1 1 0 1 0 1
0 -24 -71 12 0 0 1 1 0 1 0 1
0 -24 -68 12 0 0 1 1 0 1 0 1
phys
0 -24 -71 -91 0 0 1 1 0 1 0 1
0 -24 -68 12 0 0 1 1 0 1 0 1
0 -24 -68 -91 0 0 1 1 0 1 0 1
phys
0 -21 -71 12 0 0 1 1 0 1 0 1
0 -21 -71 -91 0 0 1 1 0 1 0 1
0 -21 -68 -91 0 0 1 1 0 1 0 1
phys
0 -21 -71 12 0 0 1 1 0 1 0 1
0 -21 -68 -91 0 0 1 1 0 1 0 1
0 -21 -68 12 0 0 1 1 0 1 0 1
phys
0 -21 -71 -91 0 0 1 1 0 1 0 1
0 -24 -71 -91 0 0 1 1 0 1 0 1
0 -24 -68 -91 0 0 1 1 0 1 0 1
phys
0 -21 -71 -91 0 0 1 1 0 1 0 1
0 -24 -68 -91 0 0 1 1 0 1 0 1
0 -21 -68 -91 0 0 1 1 0 1 0 1
phys
0 -24 -71 12 0 0 1 1 0 1 0 1
0 -21 -71 12 0 0 1 1 0 1 0 1
0 -21 -68 12 0 0 1 1 0 1 0 1
phys
0 -24 -71 12 0 0 1 1 0 1 0 1
0 -21 -68 12 0 0 1 1 0 1 0 1
0 -24 -68 12 0 0 1 1 0 1 0 1
phys
0 23 70 1 0 0 1 2 0 1 0 1
0 23 70 -1 0 0 1 2 0 1 0 1
0 -23 70 -1 0 0 1 2 0 1 0 1
phys
0 23 70 1 0 0 1 2 0 1 0 1
0 -23 70 -1 0 0 1 2 0 1 0 1
0 -23 70 1 0 0 1 2 0 1 0 1
phys
0 23 -70 -1 0 0 1 2 0 1 0 1
0 23 -70 1 0 0 1 2 0 1 0 1
0 -23 -70 1 0 0 1 2 0 1 0 1
phys
0 23 -70 -1 0 0 1 2 0 1 0 1
0 -23 -70 1 0 0 1 2 0 1 0 1
0 -23 -70 -1 0 0 1 2 0 1 0 1
phys
0 -23 -70 -1 0 0 1 2 0 1 0 1
0 -23 -70 1 0 0 1 2 0 1 0 1
0 -23 70 1 0 0 1 2 0 1 0 1
phys
0 -23 -70 -1 0 0 1 2 0 1 0 1
0 -23 70 1 0 0 1 2 0 1 0 1
0 -23 70 -1 0 0 1 2 0 1 0 1
phys
0 23 -70 1 0 0 1 2 0 1 0 1
0 23 -70 -1 0 0 1 2 0 1 0 1
0 23 70 -1 0 0 1 2 0 1 0 1
phys
0 23 -70 1 0 0 1 2 0 1 0 1
0 23 70 -1 0 0 1 2 0 1 0 1
0 23 70 1 0 0 1 2 0 1 0 1
phys
0 23 -70 -1 0 0 1 2 0 1 0 1
0 -23 -70 -1 0 0 1 2 0 1 0 1
0 -23 70 -1 0 0 1 2 0 1 0 1
phys
0 23 -70 -1 0 0 1 2 0 1 0 1
0 -23 70 -1 0 0 1 2 0 1 0 1
0 23 70 -1 0 0 1 2 0 1 0 1
phys
0 -23 -70 1 0 0 1 2 0 1 0 1
0 23 -70 1 0 0 1 2 0 1 0 1
0 23 70 1 0 0 1 2 0 1 0 1
phys
0 -23 -70 1 0 0 1 2 0 1 0 1
0 23 70 1 0 0 1 2 0 1 0 1
0 -23 70 1 0 0 1 2 0 1 0 1
phys
0 -21 71 12 0 0 1 3 0 1 0 1
0 -21 71 -91 0 0 1 3 0 1 0 1
0 -24 71 -91 0 0 1 3 0 1 0 1
phys
0 -21 71 12 0 0 1 3 0 1 0 1
0 -24 71 -91 0 0 1 3 0 1 0 1
0 -24 71 12 0 0 1 3 0 1 0 1
phys
0 -21 68 -91 0 0 1 3 0 1 0 1
0 -21 68 12 0 0 1 3 0 1 0 1
0 -24 68 12 0 0 1 3 0 1 0 1
phys
0 -21 68 -91 0 0 1 3 0 1 0 1
0 -24 68 12 0 0 1 3 0 1 0 1
0 -24 68 -91 0 0 1 3 0 1 0 1
phys
0 -24 68 -91 0 0 1 3 0 1 0 1
0 -24 68 12 0 0 1 3 0 1 0 1
0 -24 71 12 0 0 1 3 0 1 0 1
phys
0 -24 68 -91 0 0 1 3 0 1 0 1
0 -24 71 12 0 0 1 3 0 1 0 1
0 -24 71 -91 0 0 1 3 0 1 0 1
phys
0 -21 68 12 0 0 1 3 0 1 0 1
0 -21 68 -91 0 0 1 3 0 1 0 1
0 -21 71 -91 0 0 1 3 0 1 0 1
phys
0 -21 68 12 0 0 1 3 0 1 0 1
0 -21 71 -91 0 0 1 3 0 1 0 1
0 -21 71 12 0 0 1 3 0 1 0 1
phys
0 -21 68 -91 0 0 1 3 0 1 0 1
0 -24 68 -91 0 0 1 3 0 1 0 1
0 -24 71 -91 0 0 1 3 0 1 0 1
phys
0 -21 68 -91 0 0 1 3 0 1 0 1
0 -24 71 -91 0 0 1 3 0 1 0 1
0 -21 71 -91 0 0 1 3 0 1 0 1
phys
0 -24 68 12 0 0 1 3 0 1 0 1
0 -21 68 12 0 0 1 3 0 1 0 1
0 -21 71 12 0 0 1 3 0 1 0 1
phys
0 -24 68 12 0 0 1 3 0 1 0 1
0 -21 71 12 0 0 1 3 0 1 0 1
0 -24 71 12 0 0 1 3 0 1 0 1
phys
0 -21 -74 12 0 0 1 4 0 1 0 1
0 -21 -74 -91 0 0 1 4 0 1 0 1
0 -24 -74 -91 0 0 1 4 0 1 0 1
phys
0 -21 -74 12 0 0 1 4 0 1 0 1
0 -24 -74 -91 0 0 1 4 0 1 0 1
0 -24 -74 12 0 0 1 4 0 1 0 1
phys
0 -21 -77 -91 0 0 1 4 0 1 0 1
0 -21 -77 12 0 0 1 4 0 1 0 1
0 -24 -77 12 0 0 1 4 0 1 0 1
phys
0 -21 -77 -91 0 0 1 4 0 1 0 1
0 -24 -77 12 0 0 1 4 0 1 0 1
0 -24 -77 -91 0 0 1 4 0 1 0 1
phys
0 -24 -77 -91 0 0 1 4 0 1 0 1
0 -24 -77 12 0 0 1 4 0 1 0 1
0 -24 -74 12 0 0 1 4 0 1 0 1
phys
0 -24 -77 -91 0 0 1 4 0 1 0 1
0 -24 -74 12 0 0 1 4 0 1 0 1
0 -24 -74 -91 0 0 1 4 0 1 0 1
phys
0 -21 -77 12 0 0 1 4 0 1 0 1
0 -21 -77 -91 0 0 1 4 0 1 0 1
0 -21 -74 -91 0 0 1 4 0 1 0 1
phys
0 -21 -77 12 0 0 1 4 0 1 0 1
0 -21 -74 -91 0 0 1 4 0 1 0 1
0 -21 -74 12 0 0 1 4 0 1 0 1
phys
0 -21 -77 -91 0 0 1 4 0 1 0 1
0 -24 -77 -91 0 0 1 4 0 1 0 1
0 -24 -74 -91 0 0 1 4 0 1 0 1
phys
0 -21 -77 -91 0 0 1 4 0 1 0 1
0 -24 -74 -91 0 0 1 4 0 1 0 1
0 -21 -74 -91 0 0 1 4 0 1 0 1
phys
0 -24 -77 12 0 0 1 4 0 1 0 1
0 -21 -77 12 0 0 1 4 0 1 0 1
0 -21 -74 12 0 0 1 4 0 1 0 1
phys
0 -24 -77 12 0 0 1 4 0 1 0 1
0 -21 -74 12 0 0 1 4 0 1 0 1
0 -24 -74 12 0 0 1 4 0 1 0 1
phys
0 24 71 12 0 0 1 5 0 1 0 1
0 24 71 -91 0 0 1 5 0 1 0 1
0 21 71 -91 0 0 1 5 0 1 0 1
phys
0 24 71 12 0 0 1 5 0 1 0 1
0 21 71 -91 0 0 1 5 0 1 0 1
0 21 71 12 0 0 1 5 0 1 0 1
phys
0 24 68 -91 0 0 1 5 0 1 0 1
0 24 68 12 0 0 1 5 0 1 0 1
0 21 68 12 0 0 1 5 0 1 0 1
phys
0 24 68 -91 0 0 1 5 0 1 0 1
0 21 68 12 0 0 1 5 0 1 0 1
0 21 68 -91 0 0 1 5 0 1 0 1
phys
0 21 68 -91 0 0 1 5 0 1 0 1
0 21 68 12 0 0 1 5 0 1 0 1
0 21 71 12 0 0 1 5 0 1 0 1
phys
0 21 68 -91 0 0 1 5 0 1 0 1
0 21 71 12 0 0 1 5 0 1 0 1
0 21 71 -91 0 0 1 5 0 1 0 1
phys
0 24 68 12 0 0 1 5 0 1 0 1
0 24 68 -91 0 0 1 5 0 1 0 1
0 24 71 -91 0 0 1 5 0 1 0 1
phys
0 24 68 12 0 0 1 5 0 1 0 1
0 24 71 -91 0 0 1 5 0 1 0 1
0 24 71 12 0 0 1 5 0 1 0 1
phys
0 24 68 -91 0 0 1 5 0 1 0 1
0 21 68 -91 0 0 1 5 0 1 0 1
0 21 71 -91 0 0 1 5 0 1 0 1
phys
0 24 68 -91 0 0 1 5 0 1 0 1
0 21 71 -91 0 0 1 5 0 1 0 1
0 24 71 -91 0 0 1 5 0 1 0 1
phys
0 21 68 12 0 0 1 5 0 1 0 1
0 24 68 12 0 0 1 5 0 1 0 1
0 24 71 12 0 0 1 5 0 1 0 1
phys
0 21 68 12 0 0 1 5 0 1 0 1
0 24 71 12 0 0 1 5 0 1 0 1
0 21 71 12 0 0 1 5 0 1 0 1
phys
0 24 -68 12 0 0 1 6 0 1 0 1
0 24 -68 -91 0 0 1 6 0 1 0 1
0 21 -68 -91 0 0 1 6 0 1 0 1
phys
0 24 -68 12 0 0 1 6 0 1 0 1
0 21 -68 -91 0 0 1 6 0 1 0 1
0 21 -68 12 0 0 1 6 0 1 0 1
phys
0 24 -71 -91 0 0 1 6 0 1 0 1
0 24 -71 12 0 0 1 6 0 1 0 1
0 21 -71 12 0 0 1 6 0 1 0 1
phys
0 24 -71 -91 0 0 1 6 0 1 0 1
0 21 -71 12 0 0 1 6 0 1 0 1
0 21 -71 -91 0 0 1 6 0 1 0 1
phys
0 21 -71 -91 0 0 1 6 0 1 0 1
0 21 -71 12 0 0 1 6 0 1 0 1
0 21 -68 12 0 0 1 6 0 1 0 1
phys
0 21 -71 -91 0 0 1 6 0 1 0 1
0 21 -68 12 0 0 1 6 0 1 0 1
0 21 -68 -91 0 0 1 6 0 1 0 1
phys
0 24 -71 12 0 0 1 6 0 1 0 1
0 24 -71 -91 0 0 1 6 0 1 0 1
0 24 -68 -91 0 0 1 6 0 1 0 1
phys
0 24 -71 12 0 0 1 6 0 1 0 1
0 24 -68 -91 0 0 1 6 0 1 0 1
0 24 -68 12 0 0 1 6 0 1 0 1
phys
0 24 -71 -91 0 0 1 6 0 1 0 1
0 21 -71 -91 0 0 1 6 0 1 0 1
0 21 -68 -91 0 0 1 6 0 1 0 1
phys
0 24 -71 -91 0 0 1 6 0 1 0 1
0 21 -68 -91 0 0 1 6 0 1 0 1
0 24 -68 -91 0 0 1 6 0 1 0 1
phys
0 21 -71 12 0 0 1 6 0 1 0 1
0 24 -71 12 0 0 1 6 0 1 0 1
0 24 -68 12 0 0 1 6 0 1 0 1
phys
0 21 -71 12 0 0 1 6 0 1 0 1
0 24 -68 12 0 0 1 6 0 1 0 1
0 21 -68 12 0 0 1 6 0 1 0 1
phys
0 24 -74 12 0 0 1 7 0 1 0 1
0 24 -74 -91 0 0 1 7 0 1 0 1
0 21 -74 -91 0 0 1 7 0 1 0 1
phys
0 24 -74 12 0 0 1 7 0 1 0 1
0 21 -74 -91 0 0 1 7 0 1 0 1
0 21 -74 12 0 0 1 7 0 1 0 1
phys
0 24 -77 -91 0 0 1 7 0 1 0 1
0 24 -77 12 0 0 1 7 0 1 0 1
0 21 -77 12 0 0 1 7 0 1 0 1
phys
0 24 -77 -91 0 0 1 7 0 1 0 1
0 21 -77 12 0 0 1 7 0 1 0 1
0 21 -77 -91 0 0 1 7 0 1 0 1
phys
0 21 -77 -91 0 0 1 7 0 1 0 1
0 21 -77 12 0 0 1 7 0 1 0 1
0 21 -74 12 0 0 1 7 0 1 0 1
phys
0 21 -77 -91 0 0 1 7 0 1 0 1
0 21 -74 12 0 0 1 7 0 1 0 1
0 21 -74 -91 0 0 1 7 0 1 0 1
phys
0 24 -77 12 0 0 1 7 0 1 0 1
0 24 -77 -91 0 0 1 7 0 1 0 1
0 24 -74 -91 0 0 1 7 0 1 0 1
phys
0 24 -77 12 0 0 1 7 0 1 0 1
0 24 -74 -91 0 0 1 7 0 1 0 1
0 24 -74 12 0 0 1 7 0 1 0 1
phys
0 24 -77 -91 0 0 1 7 0 1 0 1
0 21 -77 -91 0 0 1 7 0 1 0 1
0 21 -74 -91 0 0 1 7 0 1 0 1
phys
0 24 -77 -91 0 0 1 7 0 1 0 1
0 21 -74 -91 0 0 1 7 0 1 0 1
0 24 -74 -91 0 0 1 7 0 1 0 1
phys
0 21 -77 12 0 0 1 7 0 1 0 1
0 24 -77 12 0 0 1 7 0 1 0 1
0 24 -74 12 0 0 1 7 0 1 0 1
phys
0 21 -77 12 0 0 1 7 0 1 0 1
0 24 -74 12 0 0 1 7 0 1 0 1
0 21 -74 12 0 0 1 7 0 1 0 1
phys
0 23 -70 -73 0 0 1 8 0 1 0 1
0 -23 -70 -73 0 0 1 8 0 1 0 1
0 -23 70 -73 0 0 1 8 0 1 0 1
phys
0 23 -70 -73 0 0 1 8 0 1 0 1
0 -23 70 -73 0 0 1 8 0 1 0 1
0 23 70 -73 0 0 1 8 0 1 0 1
phys
0 -23 -70 -71 0 0 1 8 0 1 0 1
0 23 -70 -71 0 0 1 8 0 1 0 1
0 23 70 -71 0 0 1 8 0 1 0 1
phys
0 -23 -70 -71 0 0 1 8 0 1 0 1
0 23 70 -71 0 0 1 8 0 1 0 1
0 -23 70 -71 0 0 1 8 0 1 0 1
phys
0 23 70 -73 0 0 1 8 0 1 0 1
0 -23 70 -73 0 0 1 8 0 1 0 1
0 -23 70 -71 0 0 1 8 0 1 0 1
phys
0 23 70 -73 0 0 1 8 0 1 0 1
0 -23 70 -71 0 0 1 8 0 1 0 1
0 23 70 -71 0 0 1 8 0 1 0 1
phys
0 23 -70 -71 0 0 1 8 0 1 0 1
0 -23 -70 -71 0 0 1 8 0 1 0 1
0 -23 -70 -73 0 0 1 8 0 1 0 1
phys
0 23 -70 -71 0 0 1 8 0 1 0 1
0 -23 -70 -73 0 0 1 8 0 1 0 1
0 23 -70 -73 0 0 1 8 0 1 0 1
phys
0 -23 -70 -71 0 0 1 8 0 1 0 1
0 -23 70 -71 0 0 1 8 0 1 0 1
0 -23 70 -73 0 0 1 8 0 1 0 1
phys
0 -23 -70 -71 0 0 1 8 0 1 0 1
0 -23 70 -73 0 0 1 8 0 1 0 1
0 -23 -70 -73 0 0 1 8 0 1 0 1
phys
0 23 -70 -73 0 0 1 8 0 1 0 1
0 23 70 -73 0 0 1 8 0 1 0 1
0 23 70 -71 0 0 1 8 0 1 0 1
phys
0 23 -70 -73 0 0 1 8 0 1 0 1
0 23 70 -71 0 0 1 8 0 1 0 1
0 23 -70 -71 0 0 1 8 0 1 0 1
end
