version 1
nodes
0 "root" -1
end
skeleton
time 0
0 0 0 0 0 0 0
end
triangles
de_nuke_nuke_metalfloor_01
0 -21 -68 12 0 1 0 15.404297 467.591797 1 0 1
0 -21 -68 -91 0 1 0 19.427734 467.591797 1 0 1
0 -24 -68 -91 0 1 0 19.427734 467.708984 1 0 1
de_nuke_nuke_metalfloor_01
0 -21 -68 12 0 1 0 15.404297 467.591797 1 0 1
0 -24 -68 -91 0 1 0 19.427734 467.708984 1 0 1
0 -24 -68 12 0 1 0 15.404297 467.708984 1 0 1
de_nuke_nuke_metalfloor_01
0 -21 -71 -91 0 -1 0 19.427734 -466.041016 1 0 1
0 -21 -71 12 0 -1 0 15.404297 -466.041016 1 0 1
0 -24 -71 12 0 -1 0 15.404297 -466.158203 1 0 1
de_nuke_nuke_metalfloor_01
0 -21 -71 -91 0 -1 0 19.427734 -466.041016 1 0 1
0 -24 -71 12 0 -1 0 15.404297 -466.158203 1 0 1
0 -24 -71 -91 0 -1 0 19.427734 -466.158203 1 0 1
de_nuke_nuke_metalfloor_01
0 -24 -71 -91 -1 0 0 19.427734 -97.283203 1 0 1
0 -24 -71 12 -1 0 0 15.404297 -97.283203 1 0 1
0 -24 -68 12 -1 0 0 15.404297 -97.166016 1 0 1
de_nuke_nuke_metalfloor_01
0 -24 -71 -91 -1 0 0 19.427734 -97.283203 1 0 1
0 -24 -68 12 -1 0 0 15.404297 -97.166016 1 0 1
0 -24 -68 -91 -1 0 0 19.427734 -97.166016 1 0 1
de_nuke_nuke_metalfloor_01
0 -21 -71 12 1 0 0 15.404297 -97.283203 1 0 1
0 -21 -71 -91 1 0 0 19.427734 -97.283203 1 0 1
0 -21 -68 -91 1 0 0 19.427734 -97.166016 1 0 1
de_nuke_nuke_metalfloor_01
0 -21 -71 12 1 0 0 15.404297 -97.283203 1 0 1
0 -21 -68 -91 1 0 0 19.427734 -97.166016 1 0 1
0 -21 -68 12 1 0 0 15.404297 -97.166016 1 0 1
de_nuke_nuke_metalfloor_01
0 -24 -71 12 0 0 1 -467.072266 -97.283203 1 0 1
0 -21 -71 12 0 0 1 -466.955078 -97.283203 1 0 1
0 -21 -68 12 0 0 1 -466.955078 -97.166016 1 0 1
de_nuke_nuke_metalfloor_01
0 -24 -71 12 0 0 1 -467.072266 -97.283203 1 0 1
0 -21 -68 12 0 0 1 -466.955078 -97.166016 1 0 1
0 -24 -68 12 0 0 1 -467.072266 -97.166016 1 0 1
de_nuke_nuke_metalfloor_01
0 23 70 1 0 1 0 15.833984 466.263672 1 0 1
0 23 70 -1 0 1 0 15.912109 466.263672 1 0 1
0 -23 70 -1 0 1 0 15.912109 468.060547 1 0 1
de_nuke_nuke_metalfloor_01
0 23 70 1 0 1 0 15.833984 466.263672 1 0 1
0 -23 70 -1 0 1 0 15.912109 468.060547 1 0 1
0 -23 70 1 0 1 0 15.833984 468.060547 1 0 1
de_nuke_nuke_metalfloor_01
0 23 -70 -1 0 -1 0 15.912109 -464.283203 1 0 1
0 23 -70 1 0 -1 0 15.833984 -464.283203 1 0 1
0 -23 -70 1 0 -1 0 15.833984 -466.080078 1 0 1
de_nuke_nuke_metalfloor_01
0 23 -70 -1 0 -1 0 15.912109 -464.283203 1 0 1
0 -23 -70 1 0 -1 0 15.833984 -466.080078 1 0 1
0 -23 -70 -1 0 -1 0 15.912109 -466.080078 1 0 1
de_nuke_nuke_metalfloor_01
0 -23 -70 -1 -1 0 0 15.912109 -97.244141 1 0 1
0 -23 -70 1 -1 0 0 15.833984 -97.244141 1 0 1
0 -23 70 1 -1 0 0 15.833984 -91.775391 1 0 1
de_nuke_nuke_metalfloor_01
0 -23 -70 -1 -1 0 0 15.912109 -97.244141 1 0 1
0 -23 70 1 -1 0 0 15.833984 -91.775391 1 0 1
0 -23 70 -1 -1 0 0 15.912109 -91.775391 1 0 1
de_nuke_nuke_metalfloor_01
0 23 -70 1 1 0 0 15.833984 -97.244141 1 0 1
0 23 -70 -1 1 0 0 15.912109 -97.244141 1 0 1
0 23 70 -1 1 0 0 15.912109 -91.775391 1 0 1
de_nuke_nuke_metalfloor_01
0 23 -70 1 1 0 0 15.833984 -97.244141 1 0 1
0 23 70 -1 1 0 0 15.912109 -91.775391 1 0 1
0 23 70 1 1 0 0 15.833984 -91.775391 1 0 1
metal_metalgrate013a
0 23 -70 -1 0 0 -1 65.324219 -308.89974 1 0 1
0 -23 -70 -1 0 0 -1 65.324219 -310.097656 1 0 1
0 -23 70 -1 0 0 -1 61.678385 -310.097656 1 0 1
metal_metalgrate013a
0 23 -70 -1 0 0 -1 65.324219 -308.89974 1 0 1
0 -23 70 -1 0 0 -1 61.678385 -310.097656 1 0 1
0 23 70 -1 0 0 -1 61.678385 -308.89974 1 0 1
metal_metalgrate013a
0 -23 -70 1 0 0 1 65.324219 -310.097656 1 0 1
0 23 -70 1 0 0 1 65.324219 -308.89974 1 0 1
0 23 70 1 0 0 1 61.678385 -308.89974 1 0 1
metal_metalgrate013a
0 -23 -70 1 0 0 1 65.324219 -310.097656 1 0 1
0 23 70 1 0 0 1 61.678385 -308.89974 1 0 1
0 -23 70 1 0 0 1 61.678385 -310.097656 1 0 1
de_nuke_nuke_metalfloor_01
0 -21 71 12 0 1 0 15.404297 468.021484 1 0 1
0 -21 71 -91 0 1 0 19.427734 468.021484 1 0 1
0 -24 71 -91 0 1 0 19.427734 468.138672 1 0 1
de_nuke_nuke_metalfloor_01
0 -21 71 12 0 1 0 15.404297 468.021484 1 0 1
0 -24 71 -91 0 1 0 19.427734 468.138672 1 0 1
0 -24 71 12 0 1 0 15.404297 468.138672 1 0 1
de_nuke_nuke_metalfloor_01
0 -21 68 -91 0 -1 0 19.427734 -465.611328 1 0 1
0 -21 68 12 0 -1 0 15.404297 -465.611328 1 0 1
0 -24 68 12 0 -1 0 15.404297 -465.728516 1 0 1
de_nuke_nuke_metalfloor_01
0 -21 68 -91 0 -1 0 19.427734 -465.611328 1 0 1
0 -24 68 12 0 -1 0 15.404297 -465.728516 1 0 1
0 -24 68 -91 0 -1 0 19.427734 -465.728516 1 0 1
de_nuke_nuke_metalfloor_01
0 -24 68 -91 -1 0 0 19.427734 -91.853516 1 0 1
0 -24 68 12 -1 0 0 15.404297 -91.853516 1 0 1
0 -24 71 12 -1 0 0 15.404297 -91.736328 1 0 1
de_nuke_nuke_metalfloor_01
0 -24 68 -91 -1 0 0 19.427734 -91.853516 1 0 1
0 -24 71 12 -1 0 0 15.404297 -91.736328 1 0 1
0 -24 71 -91 -1 0 0 19.427734 -91.736328 1 0 1
de_nuke_nuke_metalfloor_01
0 -21 68 12 1 0 0 15.404297 -91.853516 1 0 1
0 -21 68 -91 1 0 0 19.427734 -91.853516 1 0 1
0 -21 71 -91 1 0 0 19.427734 -91.736328 1 0 1
de_nuke_nuke_metalfloor_01
0 -21 68 12 1 0 0 15.404297 -91.853516 1 0 1
0 -21 71 -91 1 0 0 19.427734 -91.736328 1 0 1
0 -21 71 12 1 0 0 15.404297 -91.736328 1 0 1
de_nuke_nuke_metalfloor_01
0 -24 68 12 0 0 1 -467.072266 -91.853516 1 0 1
0 -21 68 12 0 0 1 -466.955078 -91.853516 1 0 1
0 -21 71 12 0 0 1 -466.955078 -91.736328 1 0 1
de_nuke_nuke_metalfloor_01
0 -24 68 12 0 0 1 -467.072266 -91.853516 1 0 1
0 -21 71 12 0 0 1 -466.955078 -91.736328 1 0 1
0 -24 71 12 0 0 1 -467.072266 -91.736328 1 0 1
de_nuke_nuke_metalfloor_01
0 -21 -74 12 0 1 0 15.404297 468.021484 1 0 1
0 -21 -74 -91 0 1 0 19.427734 468.021484 1 0 1
0 -24 -74 -91 0 1 0 19.427734 468.138672 1 0 1
de_nuke_nuke_metalfloor_01
0 -21 -74 12 0 1 0 15.404297 468.021484 1 0 1
0 -24 -74 -91 0 1 0 19.427734 468.138672 1 0 1
0 -24 -74 12 0 1 0 15.404297 468.138672 1 0 1
de_nuke_nuke_metalfloor_01
0 -21 -77 -91 0 -1 0 19.427734 -465.611328 1 0 1
0 -21 -77 12 0 -1 0 15.404297 -465.611328 1 0 1
0 -24 -77 12 0 -1 0 15.404297 -465.728516 1 0 1
de_nuke_nuke_metalfloor_01
0 -21 -77 -91 0 -1 0 19.427734 -465.611328 1 0 1
0 -24 -77 12 0 -1 0 15.404297 -465.728516 1 0 1
0 -24 -77 -91 0 -1 0 19.427734 -465.728516 1 0 1
de_nuke_nuke_metalfloor_01
0 -24 -77 -91 -1 0 0 19.427734 -97.853516 1 0 1
0 -24 -77 12 -1 0 0 15.404297 -97.853516 1 0 1
0 -24 -74 12 -1 0 0 15.404297 -97.736328 1 0 1
de_nuke_nuke_metalfloor_01
0 -24 -77 -91 -1 0 0 19.427734 -97.853516 1 0 1
0 -24 -74 12 -1 0 0 15.404297 -97.736328 1 0 1
0 -24 -74 -91 -1 0 0 19.427734 -97.736328 1 0 1
de_nuke_nuke_metalfloor_01
0 -21 -77 12 1 0 0 15.404297 -97.853516 1 0 1
0 -21 -77 -91 1 0 0 19.427734 -97.853516 1 0 1
0 -21 -74 -91 1 0 0 19.427734 -97.736328 1 0 1
de_nuke_nuke_metalfloor_01
0 -21 -77 12 1 0 0 15.404297 -97.853516 1 0 1
0 -21 -74 -91 1 0 0 19.427734 -97.736328 1 0 1
0 -21 -74 12 1 0 0 15.404297 -97.736328 1 0 1
de_nuke_nuke_metalfloor_01
0 -24 -77 12 0 0 1 -467.072266 -97.853516 1 0 1
0 -21 -77 12 0 0 1 -466.955078 -97.853516 1 0 1
0 -21 -74 12 0 0 1 -466.955078 -97.736328 1 0 1
de_nuke_nuke_metalfloor_01
0 -24 -77 12 0 0 1 -467.072266 -97.853516 1 0 1
0 -21 -74 12 0 0 1 -466.955078 -97.736328 1 0 1
0 -24 -74 12 0 0 1 -467.072266 -97.736328 1 0 1
de_nuke_nuke_metalfloor_01
0 24 71 12 0 1 0 15.404297 466.263672 1 0 1
0 24 71 -91 0 1 0 19.427734 466.263672 1 0 1
0 21 71 -91 0 1 0 19.427734 466.380859 1 0 1
de_nuke_nuke_metalfloor_01
0 24 71 12 0 1 0 15.404297 466.263672 1 0 1
0 21 71 -91 0 1 0 19.427734 466.380859 1 0 1
0 21 71 12 0 1 0 15.404297 466.380859 1 0 1
de_nuke_nuke_metalfloor_01
0 24 68 -91 0 -1 0 19.427734 -463.853516 1 0 1
0 24 68 12 0 -1 0 15.404297 -463.853516 1 0 1
0 21 68 12 0 -1 0 15.404297 -463.970703 1 0 1
de_nuke_nuke_metalfloor_01
0 24 68 -91 0 -1 0 19.427734 -463.853516 1 0 1
0 21 68 12 0 -1 0 15.404297 -463.970703 1 0 1
0 21 68 -91 0 -1 0 19.427734 -463.970703 1 0 1
de_nuke_nuke_metalfloor_01
0 21 68 -91 -1 0 0 19.427734 -91.853516 1 0 1
0 21 68 12 -1 0 0 15.404297 -91.853516 1 0 1
0 21 71 12 -1 0 0 15.404297 -91.736328 1 0 1
de_nuke_nuke_metalfloor_01
0 21 68 -91 -1 0 0 19.427734 -91.853516 1 0 1
0 21 71 12 -1 0 0 15.404297 -91.736328 1 0 1
0 21 71 -91 -1 0 0 19.427734 -91.736328 1 0 1
de_nuke_nuke_metalfloor_01
0 24 68 12 1 0 0 15.404297 -91.853516 1 0 1
0 24 68 -91 1 0 0 19.427734 -91.853516 1 0 1
0 24 71 -91 1 0 0 19.427734 -91.736328 1 0 1
de_nuke_nuke_metalfloor_01
0 24 68 12 1 0 0 15.404297 -91.853516 1 0 1
0 24 71 -91 1 0 0 19.427734 -91.736328 1 0 1
0 24 71 12 1 0 0 15.404297 -91.736328 1 0 1
de_nuke_nuke_metalfloor_01
0 21 68 12 0 0 1 -465.314453 -91.853516 1 0 1
0 24 68 12 0 0 1 -465.197266 -91.853516 1 0 1
0 24 71 12 0 0 1 -465.197266 -91.736328 1 0 1
de_nuke_nuke_metalfloor_01
0 21 68 12 0 0 1 -465.314453 -91.853516 1 0 1
0 24 71 12 0 0 1 -465.197266 -91.736328 1 0 1
0 21 71 12 0 0 1 -465.314453 -91.736328 1 0 1
de_nuke_nuke_metalfloor_01
0 24 -68 12 0 1 0 15.404297 465.833984 1 0 1
0 24 -68 -91 0 1 0 19.427734 465.833984 1 0 1
0 21 -68 -91 0 1 0 19.427734 465.951172 1 0 1
de_nuke_nuke_metalfloor_01
0 24 -68 12 0 1 0 15.404297 465.833984 1 0 1
0 21 -68 -91 0 1 0 19.427734 465.951172 1 0 1
0 21 -68 12 0 1 0 15.404297 465.951172 1 0 1
de_nuke_nuke_metalfloor_01
0 24 -71 -91 0 -1 0 19.427734 -464.283203 1 0 1
0 24 -71 12 0 -1 0 15.404297 -464.283203 1 0 1
0 21 -71 12 0 -1 0 15.404297 -464.400391 1 0 1
de_nuke_nuke_metalfloor_01
0 24 -71 -91 0 -1 0 19.427734 -464.283203 1 0 1
0 21 -71 12 0 -1 0 15.404297 -464.400391 1 0 1
0 21 -71 -91 0 -1 0 19.427734 -464.400391 1 0 1
de_nuke_nuke_metalfloor_01
0 21 -71 -91 -1 0 0 19.427734 -97.283203 1 0 1
0 21 -71 12 -1 0 0 15.404297 -97.283203 1 0 1
0 21 -68 12 -1 0 0 15.404297 -97.166016 1 0 1
de_nuke_nuke_metalfloor_01
0 21 -71 -91 -1 0 0 19.427734 -97.283203 1 0 1
0 21 -68 12 -1 0 0 15.404297 -97.166016 1 0 1
0 21 -68 -91 -1 0 0 19.427734 -97.166016 1 0 1
de_nuke_nuke_metalfloor_01
0 24 -71 12 1 0 0 15.404297 -97.283203 1 0 1
0 24 -71 -91 1 0 0 19.427734 -97.283203 1 0 1
0 24 -68 -91 1 0 0 19.427734 -97.166016 1 0 1
de_nuke_nuke_metalfloor_01
0 24 -71 12 1 0 0 15.404297 -97.283203 1 0 1
0 24 -68 -91 1 0 0 19.427734 -97.166016 1 0 1
0 24 -68 12 1 0 0 15.404297 -97.166016 1 0 1
de_nuke_nuke_metalfloor_01
0 21 -71 12 0 0 1 -465.314453 -97.283203 1 0 1
0 24 -71 12 0 0 1 -465.197266 -97.283203 1 0 1
0 24 -68 12 0 0 1 -465.197266 -97.166016 1 0 1
de_nuke_nuke_metalfloor_01
0 21 -71 12 0 0 1 -465.314453 -97.283203 1 0 1
0 24 -68 12 0 0 1 -465.197266 -97.166016 1 0 1
0 21 -68 12 0 0 1 -465.314453 -97.166016 1 0 1
de_nuke_nuke_metalfloor_01
0 24 -74 12 0 1 0 15.404297 466.263672 1 0 1
0 24 -74 -91 0 1 0 19.427734 466.263672 1 0 1
0 21 -74 -91 0 1 0 19.427734 466.380859 1 0 1
de_nuke_nuke_metalfloor_01
0 24 -74 12 0 1 0 15.404297 466.263672 1 0 1
0 21 -74 -91 0 1 0 19.427734 466.380859 1 0 1
0 21 -74 12 0 1 0 15.404297 466.380859 1 0 1
de_nuke_nuke_metalfloor_01
0 24 -77 -91 0 -1 0 19.427734 -463.853516 1 0 1
0 24 -77 12 0 -1 0 15.404297 -463.853516 1 0 1
0 21 -77 12 0 -1 0 15.404297 -463.970703 1 0 1
de_nuke_nuke_metalfloor_01
0 24 -77 -91 0 -1 0 19.427734 -463.853516 1 0 1
0 21 -77 12 0 -1 0 15.404297 -463.970703 1 0 1
0 21 -77 -91 0 -1 0 19.427734 -463.970703 1 0 1
de_nuke_nuke_metalfloor_01
0 21 -77 -91 -1 0 0 19.427734 -97.853516 1 0 1
0 21 -77 12 -1 0 0 15.404297 -97.853516 1 0 1
0 21 -74 12 -1 0 0 15.404297 -97.736328 1 0 1
de_nuke_nuke_metalfloor_01
0 21 -77 -91 -1 0 0 19.427734 -97.853516 1 0 1
0 21 -74 12 -1 0 0 15.404297 -97.736328 1 0 1
0 21 -74 -91 -1 0 0 19.427734 -97.736328 1 0 1
de_nuke_nuke_metalfloor_01
0 24 -77 12 1 0 0 15.404297 -97.853516 1 0 1
0 24 -77 -91 1 0 0 19.427734 -97.853516 1 0 1
0 24 -74 -91 1 0 0 19.427734 -97.736328 1 0 1
de_nuke_nuke_metalfloor_01
0 24 -77 12 1 0 0 15.404297 -97.853516 1 0 1
0 24 -74 -91 1 0 0 19.427734 -97.736328 1 0 1
0 24 -74 12 1 0 0 15.404297 -97.736328 1 0 1
de_nuke_nuke_metalfloor_01
0 21 -77 12 0 0 1 -465.314453 -97.853516 1 0 1
0 24 -77 12 0 0 1 -465.197266 -97.853516 1 0 1
0 24 -74 12 0 0 1 -465.197266 -97.736328 1 0 1
de_nuke_nuke_metalfloor_01
0 21 -77 12 0 0 1 -465.314453 -97.853516 1 0 1
0 24 -74 12 0 0 1 -465.197266 -97.736328 1 0 1
0 21 -74 12 0 0 1 -465.314453 -97.736328 1 0 1
metal_metalgrate013a
0 23 -70 -73 0 0 -1 65.324219 -308.89974 1 0 1
0 -23 -70 -73 0 0 -1 65.324219 -310.097656 1 0 1
0 -23 70 -73 0 0 -1 61.678385 -310.097656 1 0 1
metal_metalgrate013a
0 23 -70 -73 0 0 -1 65.324219 -308.89974 1 0 1
0 -23 70 -73 0 0 -1 61.678385 -310.097656 1 0 1
0 23 70 -73 0 0 -1 61.678385 -308.89974 1 0 1
metal_metalgrate013a
0 -23 -70 -71 0 0 1 65.324219 -310.097656 1 0 1
0 23 -70 -71 0 0 1 65.324219 -308.89974 1 0 1
0 23 70 -71 0 0 1 61.678385 -308.89974 1 0 1
metal_metalgrate013a
0 -23 -70 -71 0 0 1 65.324219 -310.097656 1 0 1
0 23 70 -71 0 0 1 61.678385 -308.89974 1 0 1
0 -23 70 -71 0 0 1 61.678385 -310.097656 1 0 1
de_nuke_nuke_metalfloor_01
0 23 70 -73 0 1 0 18.724609 466.263672 1 0 1
0 -23 70 -73 0 1 0 18.724609 468.060547 1 0 1
0 -23 70 -71 0 1 0 18.646484 468.060547 1 0 1
de_nuke_nuke_metalfloor_01
0 23 70 -73 0 1 0 18.724609 466.263672 1 0 1
0 -23 70 -71 0 1 0 18.646484 468.060547 1 0 1
0 23 70 -71 0 1 0 18.646484 466.263672 1 0 1
de_nuke_nuke_metalfloor_01
0 23 -70 -71 0 -1 0 18.646484 -464.283203 1 0 1
0 -23 -70 -71 0 -1 0 18.646484 -466.080078 1 0 1
0 -23 -70 -73 0 -1 0 18.724609 -466.080078 1 0 1
de_nuke_nuke_metalfloor_01
0 23 -70 -71 0 -1 0 18.646484 -464.283203 1 0 1
0 -23 -70 -73 0 -1 0 18.724609 -466.080078 1 0 1
0 23 -70 -73 0 -1 0 18.724609 -464.283203 1 0 1
de_nuke_nuke_metalfloor_01
0 -23 -70 -71 -1 0 0 18.646484 -97.244141 1 0 1
0 -23 70 -71 -1 0 0 18.646484 -91.775391 1 0 1
0 -23 70 -73 -1 0 0 18.724609 -91.775391 1 0 1
de_nuke_nuke_metalfloor_01
0 -23 -70 -71 -1 0 0 18.646484 -97.244141 1 0 1
0 -23 70 -73 -1 0 0 18.724609 -91.775391 1 0 1
0 -23 -70 -73 -1 0 0 18.724609 -97.244141 1 0 1
de_nuke_nuke_metalfloor_01
0 23 -70 -73 1 0 0 18.724609 -97.244141 1 0 1
0 23 70 -73 1 0 0 18.724609 -91.775391 1 0 1
0 23 70 -71 1 0 0 18.646484 -91.775391 1 0 1
de_nuke_nuke_metalfloor_01
0 23 -70 -73 1 0 0 18.724609 -97.244141 1 0 1
0 23 70 -71 1 0 0 18.646484 -91.775391 1 0 1
0 23 -70 -71 1 0 0 18.646484 -97.244141 1 0 1
end
