version 1
nodes
0 "root" -1
end
skeleton
time 0
0 0 0 0 0 0 0
end
triangles
phys
0 117 5 5 0 0 1 1 0 1 0 1
0 117 5 -5 0 0 1 1 0 1 0 1
0 -117 5 -5 0 0 1 1 0 1 0 1
phys
0 117 5 5 0 0 1 1 0 1 0 1
0 -117 5 -5 0 0 1 1 0 1 0 1
0 -117 5 5 0 0 1 1 0 1 0 1
phys
0 117 -5 -5 0 0 1 1 0 1 0 1
0 117 -5 5 0 0 1 1 0 1 0 1
0 -117 -5 5 0 0 1 1 0 1 0 1
phys
0 117 -5 -5 0 0 1 1 0 1 0 1
0 -117 -5 5 0 0 1 1 0 1 0 1
0 -117 -5 -5 0 0 1 1 0 1 0 1
phys
0 -117 -5 -5 0 0 1 1 0 1 0 1
0 -117 -5 5 0 0 1 1 0 1 0 1
0 -117 5 5 0 0 1 1 0 1 0 1
phys
0 -117 -5 -5 0 0 1 1 0 1 0 1
0 -117 5 5 0 0 1 1 0 1 0 1
0 -117 5 -5 0 0 1 1 0 1 0 1
phys
0 117 -5 5 0 0 1 1 0 1 0 1
0 117 -5 -5 0 0 1 1 0 1 0 1
0 117 5 -5 0 0 1 1 0 1 0 1
phys
0 117 -5 5 0 0 1 1 0 1 0 1
0 117 5 -5 0 0 1 1 0 1 0 1
0 117 5 5 0 0 1 1 0 1 0 1
phys
0 117 -5 -5 0 0 1 1 0 1 0 1
0 -117 -5 -5 0 0 1 1 0 1 0 1
0 -117 5 -5 0 0 1 1 0 1 0 1
phys
0 117 -5 -5 0 0 1 1 0 1 0 1
0 -117 5 -5 0 0 1 1 0 1 0 1
0 117 5 -5 0 0 1 1 0 1 0 1
phys
0 -117 -5 5 0 0 1 1 0 1 0 1
0 117 -5 5 0 0 1 1 0 1 0 1
0 117 5 5 0 0 1 1 0 1 0 1
phys
0 -117 -5 5 0 0 1 1 0 1 0 1
0 117 5 5 0 0 1 1 0 1 0 1
0 -117 5 5 0 0 1 1 0 1 0 1
phys
0 117 205 5 0 0 1 2 0 1 0 1
0 117 205 -5 0 0 1 2 0 1 0 1
0 -117 205 -5 0 0 1 2 0 1 0 1
phys
0 117 205 5 0 0 1 2 0 1 0 1
0 -117 205 -5 0 0 1 2 0 1 0 1
0 -117 205 5 0 0 1 2 0 1 0 1
phys
0 117 195 -5 0 0 1 2 0 1 0 1
0 117 195 5 0 0 1 2 0 1 0 1
0 -117 195 5 0 0 1 2 0 1 0 1
phys
0 117 195 -5 0 0 1 2 0 1 0 1
0 -117 195 5 0 0 1 2 0 1 0 1
0 -117 195 -5 0 0 1 2 0 1 0 1
phys
0 -117 195 -5 0 0 1 2 0 1 0 1
0 -117 195 5 0 0 1 2 0 1 0 1
0 -117 205 5 0 0 1 2 0 1 0 1
phys
0 -117 195 -5 0 0 1 2 0 1 0 1
0 -117 205 5 0 0 1 2 0 1 0 1
0 -117 205 -5 0 0 1 2 0 1 0 1
phys
0 117 195 5 0 0 1 2 0 1 0 1
0 117 195 -5 0 0 1 2 0 1 0 1
0 117 205 -5 0 0 1 2 0 1 0 1
phys
0 117 195 5 0 0 1 2 0 1 0 1
0 117 205 -5 0 0 1 2 0 1 0 1
0 117 205 5 0 0 1 2 0 1 0 1
phys
0 117 195 -5 0 0 1 2 0 1 0 1
0 -117 195 -5 0 0 1 2 0 1 0 1
0 -117 205 -5 0 0 1 2 0 1 0 1
phys
0 117 195 -5 0 0 1 2 0 1 0 1
0 -117 205 -5 0 0 1 2 0 1 0 1
0 117 205 -5 0 0 1 2 0 1 0 1
phys
0 -117 195 5 0 0 1 2 0 1 0 1
0 117 195 5 0 0 1 2 0 1 0 1
0 117 205 5 0 0 1 2 0 1 0 1
phys
0 -117 195 5 0 0 1 2 0 1 0 1
0 117 205 5 0 0 1 2 0 1 0 1
0 -117 205 5 0 0 1 2 0 1 0 1
phys
0 -117 -44 143 0 0 1 3 0 1 0 1
0 117 -44 143 0 0 1 3 0 1 0 1
0 117 -34 143 0 0 1 3 0 1 0 1
phys
0 -117 -44 143 0 0 1 3 0 1 0 1
0 117 -34 143 0 0 1 3 0 1 0 1
0 -117 -34 143 0 0 1 3 0 1 0 1
phys
0 -117 -34 133 0 0 1 3 0 1 0 1
0 -117 -34 143 0 0 1 3 0 1 0 1
0 117 -34 143 0 0 1 3 0 1 0 1
phys
0 -117 -34 133 0 0 1 3 0 1 0 1
0 117 -34 143 0 0 1 3 0 1 0 1
0 117 -34 133 0 0 1 3 0 1 0 1
phys
0 117 -44 133 0 0 1 3 0 1 0 1
0 117 -44 143 0 0 1 3 0 1 0 1
0 -117 -44 143 0 0 1 3 0 1 0 1
phys
0 117 -44 133 0 0 1 3 0 1 0 1
0 -117 -44 143 0 0 1 3 0 1 0 1
0 -117 -44 133 0 0 1 3 0 1 0 1
phys
0 -117 -44 133 0 0 1 3 0 1 0 1
0 -117 -44 143 0 0 1 3 0 1 0 1
0 -117 -34 143 0 0 1 3 0 1 0 1
phys
0 -117 -44 133 0 0 1 3 0 1 0 1
0 -117 -34 143 0 0 1 3 0 1 0 1
0 -117 -34 133 0 0 1 3 0 1 0 1
phys
0 117 -34 133 0 0 1 3 0 1 0 1
0 117 -34 143 0 0 1 3 0 1 0 1
0 117 -44 143 0 0 1 3 0 1 0 1
phys
0 117 -34 133 0 0 1 3 0 1 0 1
0 117 -44 143 0 0 1 3 0 1 0 1
0 117 -44 133 0 0 1 3 0 1 0 1
phys
0 117 -44 133 0 0 1 3 0 1 0 1
0 -117 -44 133 0 0 1 3 0 1 0 1
0 -117 -34 133 0 0 1 3 0 1 0 1
phys
0 117 -44 133 0 0 1 3 0 1 0 1
0 -117 -34 133 0 0 1 3 0 1 0 1
0 117 -34 133 0 0 1 3 0 1 0 1
phys
0 127 104 25 0 0 1 4 0 1 0 1
0 127 104 15 0 0 1 4 0 1 0 1
0 117 104 15 0 0 1 4 0 1 0 1
phys
0 127 104 25 0 0 1 4 0 1 0 1
0 117 104 15 0 0 1 4 0 1 0 1
0 117 104 25 0 0 1 4 0 1 0 1
phys
0 127 -12 15 0 0 1 4 0 1 0 1
0 127 -12 25 0 0 1 4 0 1 0 1
0 117 -12 25 0 0 1 4 0 1 0 1
phys
0 127 -12 15 0 0 1 4 0 1 0 1
0 117 -12 25 0 0 1 4 0 1 0 1
0 117 -12 15 0 0 1 4 0 1 0 1
phys
0 117 -12 15 0 0 1 4 0 1 0 1
0 117 -12 25 0 0 1 4 0 1 0 1
0 117 104 25 0 0 1 4 0 1 0 1
phys
0 117 -12 15 0 0 1 4 0 1 0 1
0 117 104 25 0 0 1 4 0 1 0 1
0 117 104 15 0 0 1 4 0 1 0 1
phys
0 127 -12 25 0 0 1 4 0 1 0 1
0 127 -12 15 0 0 1 4 0 1 0 1
0 127 104 15 0 0 1 4 0 1 0 1
phys
0 127 -12 25 0 0 1 4 0 1 0 1
0 127 104 15 0 0 1 4 0 1 0 1
0 127 104 25 0 0 1 4 0 1 0 1
phys
0 127 -12 15 0 0 1 4 0 1 0 1
0 117 -12 15 0 0 1 4 0 1 0 1
0 117 104 15 0 0 1 4 0 1 0 1
phys
0 127 -12 15 0 0 1 4 0 1 0 1
0 117 104 15 0 0 1 4 0 1 0 1
0 127 104 15 0 0 1 4 0 1 0 1
phys
0 117 -12 25 0 0 1 4 0 1 0 1
0 127 -12 25 0 0 1 4 0 1 0 1
0 127 104 25 0 0 1 4 0 1 0 1
phys
0 117 -12 25 0 0 1 4 0 1 0 1
0 127 104 25 0 0 1 4 0 1 0 1
0 117 104 25 0 0 1 4 0 1 0 1
phys
0 127 -12 94 0 0 1 5 0 1 0 1
0 127 104 94 0 0 1 5 0 1 0 1
0 127 104 99 0 0 1 5 0 1 0 1
phys
0 127 -12 94 0 0 1 5 0 1 0 1
0 127 104 99 0 0 1 5 0 1 0 1
0 127 -12 99 0 0 1 5 0 1 0 1
phys
0 117 104 94 0 0 1 5 0 1 0 1
0 127 104 94 0 0 1 5 0 1 0 1
0 127 -12 94 0 0 1 5 0 1 0 1
phys
0 117 104 94 0 0 1 5 0 1 0 1
0 127 -12 94 0 0 1 5 0 1 0 1
0 117 -12 94 0 0 1 5 0 1 0 1
phys
0 117 -12 99 0 0 1 5 0 1 0 1
0 127 -12 99 0 0 1 5 0 1 0 1
0 127 104 99 0 0 1 5 0 1 0 1
phys
0 117 -12 99 0 0 1 5 0 1 0 1
0 127 104 99 0 0 1 5 0 1 0 1
0 117 104 99 0 0 1 5 0 1 0 1
phys
0 127 104 99 0 0 1 5 0 1 0 1
0 127 104 94 0 0 1 5 0 1 0 1
0 117 104 94 0 0 1 5 0 1 0 1
phys
0 127 104 99 0 0 1 5 0 1 0 1
0 117 104 94 0 0 1 5 0 1 0 1
0 117 104 99 0 0 1 5 0 1 0 1
phys
0 127 -12 94 0 0 1 5 0 1 0 1
0 127 -12 99 0 0 1 5 0 1 0 1
0 117 -12 99 0 0 1 5 0 1 0 1
phys
0 127 -12 94 0 0 1 5 0 1 0 1
0 117 -12 99 0 0 1 5 0 1 0 1
0 117 -12 94 0 0 1 5 0 1 0 1
phys
0 117 -12 99 0 0 1 5 0 1 0 1
0 117 104 99 0 0 1 5 0 1 0 1
0 117 104 94 0 0 1 5 0 1 0 1
phys
0 117 -12 99 0 0 1 5 0 1 0 1
0 117 104 94 0 0 1 5 0 1 0 1
0 117 -12 94 0 0 1 5 0 1 0 1
phys
0 388.7 180.02 -145 0 0 1 6 0 1 0 1
0 386.8 180.77 -145 0 0 1 6 0 1 0 1
0 386.8 180.77 -81 0 0 1 6 0 1 0 1
phys
0 388.7 180.02 -145 0 0 1 6 0 1 0 1
0 386.8 180.77 -81 0 0 1 6 0 1 0 1
0 388.7 180.02 -81 0 0 1 6 0 1 0 1
phys
0 386.1 178.91 -145 0 0 1 6 0 1 0 1
0 386.1 178.91 -81 0 0 1 6 0 1 0 1
0 386.8 180.77 -81 0 0 1 6 0 1 0 1
phys
0 386.1 178.91 -145 0 0 1 6 0 1 0 1
0 386.8 180.77 -81 0 0 1 6 0 1 0 1
0 386.8 180.77 -145 0 0 1 6 0 1 0 1
phys
0 387.9 178.16 -81 0 0 1 6 0 1 0 1
0 386.1 178.91 -81 0 0 1 6 0 1 0 1
0 386.1 178.91 -145 0 0 1 6 0 1 0 1
phys
0 387.9 178.16 -81 0 0 1 6 0 1 0 1
0 386.1 178.91 -145 0 0 1 6 0 1 0 1
0 387.9 178.16 -145 0 0 1 6 0 1 0 1
phys
0 387.9 178.16 -145 0 0 1 6 0 1 0 1
0 386.1 178.91 -145 0 0 1 6 0 1 0 1
0 386.8 180.77 -145 0 0 1 6 0 1 0 1
phys
0 387.9 178.16 -145 0 0 1 6 0 1 0 1
0 386.8 180.77 -145 0 0 1 6 0 1 0 1
0 388.7 180.02 -145 0 0 1 6 0 1 0 1
phys
0 388.7 180.02 -81 0 0 1 6 0 1 0 1
0 386.8 180.77 -81 0 0 1 6 0 1 0 1
0 386.1 178.91 -81 0 0 1 6 0 1 0 1
phys
0 388.7 180.02 -81 0 0 1 6 0 1 0 1
0 386.1 178.91 -81 0 0 1 6 0 1 0 1
0 387.9 178.16 -81 0 0 1 6 0 1 0 1
phys
0 387.9 178.16 -81 0 0 1 6 0 1 0 1
0 387.9 178.16 -145 0 0 1 6 0 1 0 1
0 388.7 180.02 -145 0 0 1 6 0 1 0 1
phys
0 387.9 178.16 -81 0 0 1 6 0 1 0 1
0 388.7 180.02 -145 0 0 1 6 0 1 0 1
0 388.7 180.02 -81 0 0 1 6 0 1 0 1
phys
0 117 -12 143 0 0 1 7 0 1 0 1
0 117 104 143 0 0 1 7 0 1 0 1
0 117 104 131 0 0 1 7 0 1 0 1
phys
0 117 -12 143 0 0 1 7 0 1 0 1
0 117 104 131 0 0 1 7 0 1 0 1
0 117 -12 131 0 0 1 7 0 1 0 1
phys
0 127 -12 131 0 0 1 7 0 1 0 1
0 127 104 131 0 0 1 7 0 1 0 1
0 127 104 143 0 0 1 7 0 1 0 1
phys
0 127 -12 131 0 0 1 7 0 1 0 1
0 127 104 143 0 0 1 7 0 1 0 1
0 127 -12 143 0 0 1 7 0 1 0 1
phys
0 117 -12 131 0 0 1 7 0 1 0 1
0 117 104 131 0 0 1 7 0 1 0 1
0 127 104 131 0 0 1 7 0 1 0 1
phys
0 117 -12 131 0 0 1 7 0 1 0 1
0 127 104 131 0 0 1 7 0 1 0 1
0 127 -12 131 0 0 1 7 0 1 0 1
phys
0 127 -12 143 0 0 1 7 0 1 0 1
0 127 104 143 0 0 1 7 0 1 0 1
0 117 104 143 0 0 1 7 0 1 0 1
phys
0 127 -12 143 0 0 1 7 0 1 0 1
0 117 104 143 0 0 1 7 0 1 0 1
0 117 -12 143 0 0 1 7 0 1 0 1
phys
0 127 104 143 0 0 1 7 0 1 0 1
0 127 104 131 0 0 1 7 0 1 0 1
0 117 104 131 0 0 1 7 0 1 0 1
phys
0 127 104 143 0 0 1 7 0 1 0 1
0 117 104 131 0 0 1 7 0 1 0 1
0 117 104 143 0 0 1 7 0 1 0 1
phys
0 127 -12 131 0 0 1 7 0 1 0 1
0 127 -12 143 0 0 1 7 0 1 0 1
0 117 -12 143 0 0 1 7 0 1 0 1
phys
0 127 -12 131 0 0 1 7 0 1 0 1
0 117 -12 143 0 0 1 7 0 1 0 1
0 117 -12 131 0 0 1 7 0 1 0 1
phys
0 117 135 143 0 0 1 8 0 1 0 1
0 117 135 133 0 0 1 8 0 1 0 1
0 -117 135 133 0 0 1 8 0 1 0 1
phys
0 117 135 143 0 0 1 8 0 1 0 1
0 -117 135 133 0 0 1 8 0 1 0 1
0 -117 135 143 0 0 1 8 0 1 0 1
phys
0 117 125 133 0 0 1 8 0 1 0 1
0 117 125 143 0 0 1 8 0 1 0 1
0 -117 125 143 0 0 1 8 0 1 0 1
phys
0 117 125 133 0 0 1 8 0 1 0 1
0 -117 125 143 0 0 1 8 0 1 0 1
0 -117 125 133 0 0 1 8 0 1 0 1
phys
0 -117 125 133 0 0 1 8 0 1 0 1
0 -117 125 143 0 0 1 8 0 1 0 1
0 -117 135 143 0 0 1 8 0 1 0 1
phys
0 -117 125 133 0 0 1 8 0 1 0 1
0 -117 135 143 0 0 1 8 0 1 0 1
0 -117 135 133 0 0 1 8 0 1 0 1
phys
0 117 125 143 0 0 1 8 0 1 0 1
0 117 125 133 0 0 1 8 0 1 0 1
0 117 135 133 0 0 1 8 0 1 0 1
phys
0 117 125 143 0 0 1 8 0 1 0 1
0 117 135 133 0 0 1 8 0 1 0 1
0 117 135 143 0 0 1 8 0 1 0 1
phys
0 117 125 133 0 0 1 8 0 1 0 1
0 -117 125 133 0 0 1 8 0 1 0 1
0 -117 135 133 0 0 1 8 0 1 0 1
phys
0 117 125 133 0 0 1 8 0 1 0 1
0 -117 135 133 0 0 1 8 0 1 0 1
0 117 135 133 0 0 1 8 0 1 0 1
phys
0 -117 125 143 0 0 1 8 0 1 0 1
0 117 125 143 0 0 1 8 0 1 0 1
0 117 135 143 0 0 1 8 0 1 0 1
phys
0 -117 125 143 0 0 1 8 0 1 0 1
0 117 135 143 0 0 1 8 0 1 0 1
0 -117 135 143 0 0 1 8 0 1 0 1
phys
0 383.6 164.81 -115 0 0 1 9 0 1 0 1
0 383.6 164.81 -68 0 0 1 9 0 1 0 1
0 382.7 165.18 -68 0 0 1 9 0 1 0 1
phys
0 383.6 164.81 -115 0 0 1 9 0 1 0 1
0 382.7 165.18 -68 0 0 1 9 0 1 0 1
0 382.7 165.18 -115 0 0 1 9 0 1 0 1
phys
0 383.6 164.81 -68 0 0 1 9 0 1 0 1
0 383.6 164.81 -115 0 0 1 9 0 1 0 1
0 394.8 192.63 -115 0 0 1 9 0 1 0 1
phys
0 383.6 164.81 -68 0 0 1 9 0 1 0 1
0 394.8 192.63 -115 0 0 1 9 0 1 0 1
0 394.8 192.63 -68 0 0 1 9 0 1 0 1
phys
0 394.8 192.63 -68 0 0 1 9 0 1 0 1
0 394.8 192.63 -115 0 0 1 9 0 1 0 1
0 393.9 193 -115 0 0 1 9 0 1 0 1
phys
0 394.8 192.63 -68 0 0 1 9 0 1 0 1
0 393.9 193 -115 0 0 1 9 0 1 0 1
0 393.9 193 -68 0 0 1 9 0 1 0 1
phys
0 383.6 164.81 -115 0 0 1 9 0 1 0 1
0 382.7 165.18 -115 0 0 1 9 0 1 0 1
0 393.9 193 -115 0 0 1 9 0 1 0 1
phys
0 383.6 164.81 -115 0 0 1 9 0 1 0 1
0 393.9 193 -115 0 0 1 9 0 1 0 1
0 394.8 192.63 -115 0 0 1 9 0 1 0 1
phys
0 382.7 165.18 -68 0 0 1 9 0 1 0 1
0 383.6 164.81 -68 0 0 1 9 0 1 0 1
0 394.8 192.63 -68 0 0 1 9 0 1 0 1
phys
0 382.7 165.18 -68 0 0 1 9 0 1 0 1
0 394.8 192.63 -68 0 0 1 9 0 1 0 1
0 393.9 193 -68 0 0 1 9 0 1 0 1
phys
0 382.7 165.18 -115 0 0 1 9 0 1 0 1
0 382.7 165.18 -68 0 0 1 9 0 1 0 1
0 393.9 193 -68 0 0 1 9 0 1 0 1
phys
0 382.7 165.18 -115 0 0 1 9 0 1 0 1
0 393.9 193 -68 0 0 1 9 0 1 0 1
0 393.9 193 -115 0 0 1 9 0 1 0 1
phys
0 127 104 62 0 0 1 10 0 1 0 1
0 127 104 57 0 0 1 10 0 1 0 1
0 117 104 57 0 0 1 10 0 1 0 1
phys
0 127 104 62 0 0 1 10 0 1 0 1
0 117 104 57 0 0 1 10 0 1 0 1
0 117 104 62 0 0 1 10 0 1 0 1
phys
0 127 -12 57 0 0 1 10 0 1 0 1
0 127 -12 62 0 0 1 10 0 1 0 1
0 117 -12 62 0 0 1 10 0 1 0 1
phys
0 127 -12 57 0 0 1 10 0 1 0 1
0 117 -12 62 0 0 1 10 0 1 0 1
0 117 -12 57 0 0 1 10 0 1 0 1
phys
0 117 -12 57 0 0 1 10 0 1 0 1
0 117 -12 62 0 0 1 10 0 1 0 1
0 117 104 62 0 0 1 10 0 1 0 1
phys
0 117 -12 57 0 0 1 10 0 1 0 1
0 117 104 62 0 0 1 10 0 1 0 1
0 117 104 57 0 0 1 10 0 1 0 1
phys
0 127 -12 62 0 0 1 10 0 1 0 1
0 127 -12 57 0 0 1 10 0 1 0 1
0 127 104 57 0 0 1 10 0 1 0 1
phys
0 127 -12 62 0 0 1 10 0 1 0 1
0 127 104 57 0 0 1 10 0 1 0 1
0 127 104 62 0 0 1 10 0 1 0 1
phys
0 127 -12 57 0 0 1 10 0 1 0 1
0 117 -12 57 0 0 1 10 0 1 0 1
0 117 104 57 0 0 1 10 0 1 0 1
phys
0 127 -12 57 0 0 1 10 0 1 0 1
0 117 104 57 0 0 1 10 0 1 0 1
0 127 104 57 0 0 1 10 0 1 0 1
phys
0 117 -12 62 0 0 1 10 0 1 0 1
0 127 -12 62 0 0 1 10 0 1 0 1
0 127 104 62 0 0 1 10 0 1 0 1
phys
0 117 -12 62 0 0 1 10 0 1 0 1
0 127 104 62 0 0 1 10 0 1 0 1
0 117 104 62 0 0 1 10 0 1 0 1
end
