version 1
nodes
0 "root" -1
end
skeleton
time 0
0 0 0 0 0 0 0
end
triangles
phys
0 224 76 150 0 0 1 1 0 1 0 1
0 224 76 49 0 0 1 1 0 1 0 1
0 204 76 49 0 0 1 1 0 1 0 1
phys
0 224 76 150 0 0 1 1 0 1 0 1
0 204 76 49 0 0 1 1 0 1 0 1
0 204 76 150 0 0 1 1 0 1 0 1
phys
0 224 36 49 0 0 1 1 0 1 0 1
0 224 36 150 0 0 1 1 0 1 0 1
0 204 36 150 0 0 1 1 0 1 0 1
phys
0 224 36 49 0 0 1 1 0 1 0 1
0 204 36 150 0 0 1 1 0 1 0 1
0 204 36 49 0 0 1 1 0 1 0 1
phys
0 204 36 49 0 0 1 1 0 1 0 1
0 204 36 150 0 0 1 1 0 1 0 1
0 204 76 150 0 0 1 1 0 1 0 1
phys
0 204 36 49 0 0 1 1 0 1 0 1
0 204 76 150 0 0 1 1 0 1 0 1
0 204 76 49 0 0 1 1 0 1 0 1
phys
0 224 36 150 0 0 1 1 0 1 0 1
0 224 36 49 0 0 1 1 0 1 0 1
0 224 76 49 0 0 1 1 0 1 0 1
phys
0 224 36 150 0 0 1 1 0 1 0 1
0 224 76 49 0 0 1 1 0 1 0 1
0 224 76 150 0 0 1 1 0 1 0 1
phys
0 224 36 49 0 0 1 1 0 1 0 1
0 204 36 49 0 0 1 1 0 1 0 1
0 204 76 49 0 0 1 1 0 1 0 1
phys
0 224 36 49 0 0 1 1 0 1 0 1
0 204 76 49 0 0 1 1 0 1 0 1
0 224 76 49 0 0 1 1 0 1 0 1
phys
0 204 36 150 0 0 1 1 0 1 0 1
0 224 36 150 0 0 1 1 0 1 0 1
0 224 76 150 0 0 1 1 0 1 0 1
phys
0 204 36 150 0 0 1 1 0 1 0 1
0 224 76 150 0 0 1 1 0 1 0 1
0 204 76 150 0 0 1 1 0 1 0 1
phys
0 -246 110 348 0 0 1 2 0 1 0 1
0 204 110 348 0 0 1 2 0 1 0 1
0 204 151.83 343.4993 0 0 1 2 0 1 0 1
phys
0 -246 110 348 0 0 1 2 0 1 0 1
0 204 151.83 343.4993 0 0 1 2 0 1 0 1
0 -246 151.83 343.4993 0 0 1 2 0 1 0 1
phys
0 204 110 296 0 0 1 2 0 1 0 1
0 -246 110 296 0 0 1 2 0 1 0 1
0 -246 151.83 343.4993 0 0 1 2 0 1 0 1
phys
0 204 110 296 0 0 1 2 0 1 0 1
0 -246 151.83 343.4993 0 0 1 2 0 1 0 1
0 204 151.83 343.4993 0 0 1 2 0 1 0 1
phys
0 204 110 348 0 0 1 2 0 1 0 1
0 -246 110 348 0 0 1 2 0 1 0 1
0 -246 110 296 0 0 1 2 0 1 0 1
phys
0 204 110 348 0 0 1 2 0 1 0 1
0 -246 110 296 0 0 1 2 0 1 0 1
0 204 110 296 0 0 1 2 0 1 0 1
phys
0 -246 110 348 0 0 1 2 0 1 0 1
0 -246 151.83 343.4993 0 0 1 2 0 1 0 1
0 -246 110 296 0 0 1 2 0 1 0 1
phys
0 204 110 296 0 0 1 2 0 1 0 1
0 204 151.83 343.4993 0 0 1 2 0 1 0 1
0 204 110 348 0 0 1 2 0 1 0 1
phys
0 140 236 100.999 0 0 1 3 0 1 0 1
0 203.99827 236 64 0 0 1 3 0 1 0 1
0 204 236.001 64 0 0 1 3 0 1 0 1
phys
0 140 236 100.999 0 0 1 3 0 1 0 1
0 204 236.001 64 0 0 1 3 0 1 0 1
0 204 237.999 65.999 0 0 1 3 0 1 0 1
phys
0 140 236 100.999 0 0 1 3 0 1 0 1
0 204 237.999 65.999 0 0 1 3 0 1 0 1
0 140 237.999 102.999 0 0 1 3 0 1 0 1
phys
0 140 240.001 102.999 0 0 1 3 0 1 0 1
0 204 240.001 65.999 0 0 1 3 0 1 0 1
0 204 242 64 0 0 1 3 0 1 0 1
phys
0 140 240.001 102.999 0 0 1 3 0 1 0 1
0 204 242 64 0 0 1 3 0 1 0 1
0 140 242 101 0 0 1 3 0 1 0 1
phys
0 140 237.999 102.999 0 0 1 3 0 1 0 1
0 204 237.999 65.999 0 0 1 3 0 1 0 1
0 204 240.001 65.999 0 0 1 3 0 1 0 1
phys
0 140 237.999 102.999 0 0 1 3 0 1 0 1
0 204 240.001 65.999 0 0 1 3 0 1 0 1
0 140 240.001 102.999 0 0 1 3 0 1 0 1
phys
0 204 242 64 0 0 1 3 0 1 0 1
0 204 242 64 0 0 1 3 0 1 0 1
0 140 242 101 0 0 1 3 0 1 0 1
phys
0 204 242 64 0 0 1 3 0 1 0 1
0 140 242 101 0 0 1 3 0 1 0 1
0 140 242 64 0 0 1 3 0 1 0 1
phys
0 203.99827 236 64 0 0 1 3 0 1 0 1
0 140 236 100.999 0 0 1 3 0 1 0 1
0 140 236 64 0 0 1 3 0 1 0 1
phys
0 140 236 64 0 0 1 3 0 1 0 1
0 140 236 100.999 0 0 1 3 0 1 0 1
0 140 237.999 102.999 0 0 1 3 0 1 0 1
phys
0 140 236 64 0 0 1 3 0 1 0 1
0 140 237.999 102.999 0 0 1 3 0 1 0 1
0 140 240.001 102.999 0 0 1 3 0 1 0 1
phys
0 140 236 64 0 0 1 3 0 1 0 1
0 140 240.001 102.999 0 0 1 3 0 1 0 1
0 140 242 101 0 0 1 3 0 1 0 1
phys
0 140 236 64 0 0 1 3 0 1 0 1
0 140 242 101 0 0 1 3 0 1 0 1
0 140 242 64 0 0 1 3 0 1 0 1
phys
0 204 237.999 65.999 0 0 1 3 0 1 0 1
0 204 236.001 64 0 0 1 3 0 1 0 1
0 204 242 64 0 0 1 3 0 1 0 1
phys
0 204 237.999 65.999 0 0 1 3 0 1 0 1
0 204 242 64 0 0 1 3 0 1 0 1
0 204 242 64 0 0 1 3 0 1 0 1
phys
0 204 237.999 65.999 0 0 1 3 0 1 0 1
0 204 242 64 0 0 1 3 0 1 0 1
0 204 240.001 65.999 0 0 1 3 0 1 0 1
phys
0 204 242 64 0 0 1 3 0 1 0 1
0 204 242 64 0 0 1 3 0 1 0 1
0 140 242 64 0 0 1 3 0 1 0 1
phys
0 204 242 64 0 0 1 3 0 1 0 1
0 140 242 64 0 0 1 3 0 1 0 1
0 140 236 64 0 0 1 3 0 1 0 1
phys
0 204 242 64 0 0 1 3 0 1 0 1
0 140 236 64 0 0 1 3 0 1 0 1
0 203.99827 236 64 0 0 1 3 0 1 0 1
phys
0 204 242 64 0 0 1 3 0 1 0 1
0 203.99827 236 64 0 0 1 3 0 1 0 1
0 204 236.001 64 0 0 1 3 0 1 0 1
phys
0 224 76 45 0 0 1 4 0 1 0 1
0 224 76 0 0 0 1 4 0 1 0 1
0 204 76 0 0 0 1 4 0 1 0 1
phys
0 224 76 45 0 0 1 4 0 1 0 1
0 204 76 0 0 0 1 4 0 1 0 1
0 204 76 45 0 0 1 4 0 1 0 1
phys
0 224 36 0 0 0 1 4 0 1 0 1
0 224 36 45 0 0 1 4 0 1 0 1
0 204 36 45 0 0 1 4 0 1 0 1
phys
0 224 36 0 0 0 1 4 0 1 0 1
0 204 36 45 0 0 1 4 0 1 0 1
0 204 36 0 0 0 1 4 0 1 0 1
phys
0 204 36 0 0 0 1 4 0 1 0 1
0 204 36 45 0 0 1 4 0 1 0 1
0 204 76 45 0 0 1 4 0 1 0 1
phys
0 204 36 0 0 0 1 4 0 1 0 1
0 204 76 45 0 0 1 4 0 1 0 1
0 204 76 0 0 0 1 4 0 1 0 1
phys
0 224 36 45 0 0 1 4 0 1 0 1
0 224 36 0 0 0 1 4 0 1 0 1
0 224 76 0 0 0 1 4 0 1 0 1
phys
0 224 36 45 0 0 1 4 0 1 0 1
0 224 76 0 0 0 1 4 0 1 0 1
0 224 76 45 0 0 1 4 0 1 0 1
phys
0 224 36 0 0 0 1 4 0 1 0 1
0 204 36 0 0 0 1 4 0 1 0 1
0 204 76 0 0 0 1 4 0 1 0 1
phys
0 224 36 0 0 0 1 4 0 1 0 1
0 204 76 0 0 0 1 4 0 1 0 1
0 224 76 0 0 0 1 4 0 1 0 1
phys
0 204 36 45 0 0 1 4 0 1 0 1
0 224 36 45 0 0 1 4 0 1 0 1
0 224 76 45 0 0 1 4 0 1 0 1
phys
0 204 36 45 0 0 1 4 0 1 0 1
0 224 76 45 0 0 1 4 0 1 0 1
0 204 76 45 0 0 1 4 0 1 0 1
phys
0 204 110 348 0 0 1 5 0 1 0 1
0 204 151.83 343.4986 0 0 1 5 0 1 0 1
0 204 215.8 371.99996 0 0 1 5 0 1 0 1
phys
0 204 110 348 0 0 1 5 0 1 0 1
0 204 215.8 371.99996 0 0 1 5 0 1 0 1
0 204 110 408 0 0 1 5 0 1 0 1
phys
0 -246 110 408 0 0 1 5 0 1 0 1
0 204 110 408 0 0 1 5 0 1 0 1
0 204 215.8 371.99996 0 0 1 5 0 1 0 1
phys
0 -246 110 408 0 0 1 5 0 1 0 1
0 204 215.8 371.99996 0 0 1 5 0 1 0 1
0 -246 215.8 371.99996 0 0 1 5 0 1 0 1
phys
0 -246 151.83 343.4986 0 0 1 5 0 1 0 1
0 204 151.83 343.4986 0 0 1 5 0 1 0 1
0 204 110 348 0 0 1 5 0 1 0 1
phys
0 -246 151.83 343.4986 0 0 1 5 0 1 0 1
0 204 110 348 0 0 1 5 0 1 0 1
0 -246 110 348 0 0 1 5 0 1 0 1
phys
0 -246 215.8 371.99996 0 0 1 5 0 1 0 1
0 204 215.8 371.99996 0 0 1 5 0 1 0 1
0 204 151.83 343.4986 0 0 1 5 0 1 0 1
phys
0 -246 215.8 371.99996 0 0 1 5 0 1 0 1
0 204 151.83 343.4986 0 0 1 5 0 1 0 1
0 -246 151.83 343.4986 0 0 1 5 0 1 0 1
phys
0 204 110 348 0 0 1 5 0 1 0 1
0 204 110 408 0 0 1 5 0 1 0 1
0 -246 110 408 0 0 1 5 0 1 0 1
phys
0 204 110 348 0 0 1 5 0 1 0 1
0 -246 110 408 0 0 1 5 0 1 0 1
0 -246 110 348 0 0 1 5 0 1 0 1
phys
0 -246 110 408 0 0 1 5 0 1 0 1
0 -246 215.8 371.99996 0 0 1 5 0 1 0 1
0 -246 151.83 343.4986 0 0 1 5 0 1 0 1
phys
0 -246 110 408 0 0 1 5 0 1 0 1
0 -246 151.83 343.4986 0 0 1 5 0 1 0 1
0 -246 110 348 0 0 1 5 0 1 0 1
phys
0 206 38 49 0 0 1 6 0 1 0 1
0 222 38 49 0 0 1 6 0 1 0 1
0 222 74 49 0 0 1 6 0 1 0 1
phys
0 206 38 49 0 0 1 6 0 1 0 1
0 222 74 49 0 0 1 6 0 1 0 1
0 206 74 49 0 0 1 6 0 1 0 1
phys
0 206 74 45 0 0 1 6 0 1 0 1
0 206 74 49 0 0 1 6 0 1 0 1
0 222 74 49 0 0 1 6 0 1 0 1
phys
0 206 74 45 0 0 1 6 0 1 0 1
0 222 74 49 0 0 1 6 0 1 0 1
0 222 74 45 0 0 1 6 0 1 0 1
phys
0 222 38 45 0 0 1 6 0 1 0 1
0 222 38 49 0 0 1 6 0 1 0 1
0 206 38 49 0 0 1 6 0 1 0 1
phys
0 222 38 45 0 0 1 6 0 1 0 1
0 206 38 49 0 0 1 6 0 1 0 1
0 206 38 45 0 0 1 6 0 1 0 1
phys
0 206 38 45 0 0 1 6 0 1 0 1
0 206 38 49 0 0 1 6 0 1 0 1
0 206 74 49 0 0 1 6 0 1 0 1
phys
0 206 38 45 0 0 1 6 0 1 0 1
0 206 74 49 0 0 1 6 0 1 0 1
0 206 74 45 0 0 1 6 0 1 0 1
phys
0 222 74 45 0 0 1 6 0 1 0 1
0 222 74 49 0 0 1 6 0 1 0 1
0 222 38 49 0 0 1 6 0 1 0 1
phys
0 222 74 45 0 0 1 6 0 1 0 1
0 222 38 49 0 0 1 6 0 1 0 1
0 222 38 45 0 0 1 6 0 1 0 1
phys
0 222 38 45 0 0 1 6 0 1 0 1
0 206 38 45 0 0 1 6 0 1 0 1
0 206 74 45 0 0 1 6 0 1 0 1
phys
0 222 38 45 0 0 1 6 0 1 0 1
0 206 74 45 0 0 1 6 0 1 0 1
0 222 74 45 0 0 1 6 0 1 0 1
phys
0 204 -216 150 0 0 1 7 0 1 0 1
0 204 36 150 0 0 1 7 0 1 0 1
0 204 36 133.997 0 0 1 7 0 1 0 1
phys
0 204 -216 150 0 0 1 7 0 1 0 1
0 204 36 133.997 0 0 1 7 0 1 0 1
0 204 -216 133.997 0 0 1 7 0 1 0 1
phys
0 224 -216 134.003 0 0 1 7 0 1 0 1
0 224 36 134.003 0 0 1 7 0 1 0 1
0 224 36 150 0 0 1 7 0 1 0 1
phys
0 224 -216 134.003 0 0 1 7 0 1 0 1
0 224 36 150 0 0 1 7 0 1 0 1
0 224 -216 150 0 0 1 7 0 1 0 1
phys
0 208 -216 130 0 0 1 7 0 1 0 1
0 208 36 130 0 0 1 7 0 1 0 1
0 220 36 130 0 0 1 7 0 1 0 1
phys
0 208 -216 130 0 0 1 7 0 1 0 1
0 220 36 130 0 0 1 7 0 1 0 1
0 220 -216 130 0 0 1 7 0 1 0 1
phys
0 224 -216 150 0 0 1 7 0 1 0 1
0 224 36 150 0 0 1 7 0 1 0 1
0 204 36 150 0 0 1 7 0 1 0 1
phys
0 224 -216 150 0 0 1 7 0 1 0 1
0 204 36 150 0 0 1 7 0 1 0 1
0 204 -216 150 0 0 1 7 0 1 0 1
phys
0 204 -216 133.997 0 0 1 7 0 1 0 1
0 204 36 133.997 0 0 1 7 0 1 0 1
0 208 36 130 0 0 1 7 0 1 0 1
phys
0 204 -216 133.997 0 0 1 7 0 1 0 1
0 208 36 130 0 0 1 7 0 1 0 1
0 208 -216 130 0 0 1 7 0 1 0 1
phys
0 220 -216 130 0 0 1 7 0 1 0 1
0 220 36 130 0 0 1 7 0 1 0 1
0 224 36 134.003 0 0 1 7 0 1 0 1
phys
0 220 -216 130 0 0 1 7 0 1 0 1
0 224 36 134.003 0 0 1 7 0 1 0 1
0 224 -216 134.003 0 0 1 7 0 1 0 1
phys
0 224 36 150 0 0 1 7 0 1 0 1
0 224 36 134.003 0 0 1 7 0 1 0 1
0 220 36 130 0 0 1 7 0 1 0 1
phys
0 224 36 150 0 0 1 7 0 1 0 1
0 220 36 130 0 0 1 7 0 1 0 1
0 208 36 130 0 0 1 7 0 1 0 1
phys
0 224 36 150 0 0 1 7 0 1 0 1
0 208 36 130 0 0 1 7 0 1 0 1
0 204 36 133.997 0 0 1 7 0 1 0 1
phys
0 224 36 150 0 0 1 7 0 1 0 1
0 204 36 133.997 0 0 1 7 0 1 0 1
0 204 36 150 0 0 1 7 0 1 0 1
phys
0 224 -216 134.003 0 0 1 7 0 1 0 1
0 224 -216 150 0 0 1 7 0 1 0 1
0 204 -216 150 0 0 1 7 0 1 0 1
phys
0 224 -216 134.003 0 0 1 7 0 1 0 1
0 204 -216 150 0 0 1 7 0 1 0 1
0 204 -216 133.997 0 0 1 7 0 1 0 1
phys
0 224 -216 134.003 0 0 1 7 0 1 0 1
0 204 -216 133.997 0 0 1 7 0 1 0 1
0 208 -216 130 0 0 1 7 0 1 0 1
phys
0 224 -216 134.003 0 0 1 7 0 1 0 1
0 208 -216 130 0 0 1 7 0 1 0 1
0 220 -216 130 0 0 1 7 0 1 0 1
phys
0 188 232 32 0 0 1 8 0 1 0 1
0 188 232 0 0 0 1 8 0 1 0 1
0 172 232 0 0 0 1 8 0 1 0 1
phys
0 188 232 32 0 0 1 8 0 1 0 1
0 172 232 0 0 0 1 8 0 1 0 1
0 172 232 32 0 0 1 8 0 1 0 1
phys
0 188 110 0 0 0 1 8 0 1 0 1
0 188 110 32 0 0 1 8 0 1 0 1
0 172 110 32 0 0 1 8 0 1 0 1
phys
0 188 110 0 0 0 1 8 0 1 0 1
0 172 110 32 0 0 1 8 0 1 0 1
0 172 110 0 0 0 1 8 0 1 0 1
phys
0 172 110 0 0 0 1 8 0 1 0 1
0 172 110 32 0 0 1 8 0 1 0 1
0 172 232 32 0 0 1 8 0 1 0 1
phys
0 172 110 0 0 0 1 8 0 1 0 1
0 172 232 32 0 0 1 8 0 1 0 1
0 172 232 0 0 0 1 8 0 1 0 1
phys
0 188 110 32 0 0 1 8 0 1 0 1
0 188 110 0 0 0 1 8 0 1 0 1
0 188 232 0 0 0 1 8 0 1 0 1
phys
0 188 110 32 0 0 1 8 0 1 0 1
0 188 232 0 0 0 1 8 0 1 0 1
0 188 232 32 0 0 1 8 0 1 0 1
phys
0 188 110 0 0 0 1 8 0 1 0 1
0 172 110 0 0 0 1 8 0 1 0 1
0 172 232 0 0 0 1 8 0 1 0 1
phys
0 188 110 0 0 0 1 8 0 1 0 1
0 172 232 0 0 0 1 8 0 1 0 1
0 188 232 0 0 0 1 8 0 1 0 1
phys
0 172 110 32 0 0 1 8 0 1 0 1
0 188 110 32 0 0 1 8 0 1 0 1
0 188 232 32 0 0 1 8 0 1 0 1
phys
0 172 110 32 0 0 1 8 0 1 0 1
0 188 232 32 0 0 1 8 0 1 0 1
0 172 232 32 0 0 1 8 0 1 0 1
phys
0 172 110 0 0 0 1 9 0 1 0 1
0 172 110 48 0 0 1 9 0 1 0 1
0 156 110 48 0 0 1 9 0 1 0 1
phys
0 172 110 0 0 0 1 9 0 1 0 1
0 156 110 48 0 0 1 9 0 1 0 1
0 156 110 0 0 0 1 9 0 1 0 1
phys
0 156 110 0 0 0 1 9 0 1 0 1
0 156 110 48 0 0 1 9 0 1 0 1
0 156 232 48 0 0 1 9 0 1 0 1
phys
0 156 110 0 0 0 1 9 0 1 0 1
0 156 232 48 0 0 1 9 0 1 0 1
0 156 232 0 0 0 1 9 0 1 0 1
phys
0 172 110 48 0 0 1 9 0 1 0 1
0 172 110 0 0 0 1 9 0 1 0 1
0 172 232 0 0 0 1 9 0 1 0 1
phys
0 172 110 48 0 0 1 9 0 1 0 1
0 172 232 0 0 0 1 9 0 1 0 1
0 172 232 48 0 0 1 9 0 1 0 1
phys
0 172 110 0 0 0 1 9 0 1 0 1
0 156 110 0 0 0 1 9 0 1 0 1
0 156 232 0 0 0 1 9 0 1 0 1
phys
0 172 110 0 0 0 1 9 0 1 0 1
0 156 232 0 0 0 1 9 0 1 0 1
0 172 232 0 0 0 1 9 0 1 0 1
phys
0 156 110 48 0 0 1 9 0 1 0 1
0 172 110 48 0 0 1 9 0 1 0 1
0 172 232 48 0 0 1 9 0 1 0 1
phys
0 156 110 48 0 0 1 9 0 1 0 1
0 172 232 48 0 0 1 9 0 1 0 1
0 156 232 48 0 0 1 9 0 1 0 1
phys
0 172 232 48 0 0 1 9 0 1 0 1
0 172 232 0 0 0 1 9 0 1 0 1
0 156 232 0 0 0 1 9 0 1 0 1
phys
0 172 232 48 0 0 1 9 0 1 0 1
0 156 232 0 0 0 1 9 0 1 0 1
0 156 232 48 0 0 1 9 0 1 0 1
phys
0 224 -236 0 0 0 1 10 0 1 0 1
0 224 -216 0 0 0 1 10 0 1 0 1
0 224 -216 150 0 0 1 10 0 1 0 1
phys
0 224 -236 0 0 0 1 10 0 1 0 1
0 224 -216 150 0 0 1 10 0 1 0 1
0 224 -236 150 0 0 1 10 0 1 0 1
phys
0 204 -216 0 0 0 1 10 0 1 0 1
0 224 -216 0 0 0 1 10 0 1 0 1
0 224 -236 0 0 0 1 10 0 1 0 1
phys
0 204 -216 0 0 0 1 10 0 1 0 1
0 224 -236 0 0 0 1 10 0 1 0 1
0 204 -236 0 0 0 1 10 0 1 0 1
phys
0 204 -236 150 0 0 1 10 0 1 0 1
0 224 -236 150 0 0 1 10 0 1 0 1
0 224 -216 150 0 0 1 10 0 1 0 1
phys
0 204 -236 150 0 0 1 10 0 1 0 1
0 224 -216 150 0 0 1 10 0 1 0 1
0 204 -216 150 0 0 1 10 0 1 0 1
phys
0 224 -216 150 0 0 1 10 0 1 0 1
0 224 -216 0 0 0 1 10 0 1 0 1
0 204 -216 0 0 0 1 10 0 1 0 1
phys
0 224 -216 150 0 0 1 10 0 1 0 1
0 204 -216 0 0 0 1 10 0 1 0 1
0 204 -216 150 0 0 1 10 0 1 0 1
phys
0 224 -236 0 0 0 1 10 0 1 0 1
0 224 -236 150 0 0 1 10 0 1 0 1
0 204 -236 150 0 0 1 10 0 1 0 1
phys
0 224 -236 0 0 0 1 10 0 1 0 1
0 204 -236 150 0 0 1 10 0 1 0 1
0 204 -236 0 0 0 1 10 0 1 0 1
phys
0 204 -236 150 0 0 1 10 0 1 0 1
0 204 -216 150 0 0 1 10 0 1 0 1
0 204 -216 0 0 0 1 10 0 1 0 1
phys
0 204 -236 150 0 0 1 10 0 1 0 1
0 204 -216 0 0 0 1 10 0 1 0 1
0 204 -236 0 0 0 1 10 0 1 0 1
phys
0 156 232 64 0 0 1 11 0 1 0 1
0 156 232 0 0 0 1 11 0 1 0 1
0 140 232 0 0 0 1 11 0 1 0 1
phys
0 156 232 64 0 0 1 11 0 1 0 1
0 140 232 0 0 0 1 11 0 1 0 1
0 140 232 64 0 0 1 11 0 1 0 1
phys
0 156 110 0 0 0 1 11 0 1 0 1
0 156 110 64 0 0 1 11 0 1 0 1
0 140 110 64 0 0 1 11 0 1 0 1
phys
0 156 110 0 0 0 1 11 0 1 0 1
0 140 110 64 0 0 1 11 0 1 0 1
0 140 110 0 0 0 1 11 0 1 0 1
phys
0 140 110 0 0 0 1 11 0 1 0 1
0 140 110 64 0 0 1 11 0 1 0 1
0 140 232 64 0 0 1 11 0 1 0 1
phys
0 140 110 0 0 0 1 11 0 1 0 1
0 140 232 64 0 0 1 11 0 1 0 1
0 140 232 0 0 0 1 11 0 1 0 1
phys
0 156 110 64 0 0 1 11 0 1 0 1
0 156 110 0 0 0 1 11 0 1 0 1
0 156 232 0 0 0 1 11 0 1 0 1
phys
0 156 110 64 0 0 1 11 0 1 0 1
0 156 232 0 0 0 1 11 0 1 0 1
0 156 232 64 0 0 1 11 0 1 0 1
phys
0 156 110 0 0 0 1 11 0 1 0 1
0 140 110 0 0 0 1 11 0 1 0 1
0 140 232 0 0 0 1 11 0 1 0 1
phys
0 156 110 0 0 0 1 11 0 1 0 1
0 140 232 0 0 0 1 11 0 1 0 1
0 156 232 0 0 0 1 11 0 1 0 1
phys
0 140 110 64 0 0 1 11 0 1 0 1
0 156 110 64 0 0 1 11 0 1 0 1
0 156 232 64 0 0 1 11 0 1 0 1
phys
0 140 110 64 0 0 1 11 0 1 0 1
0 156 232 64 0 0 1 11 0 1 0 1
0 140 232 64 0 0 1 11 0 1 0 1
phys
0 204 246 64 0 0 1 12 0 1 0 1
0 204 246 0 0 0 1 12 0 1 0 1
0 140 246 0 0 0 1 12 0 1 0 1
phys
0 204 246 64 0 0 1 12 0 1 0 1
0 140 246 0 0 0 1 12 0 1 0 1
0 140 246 64 0 0 1 12 0 1 0 1
phys
0 204 232 0 0 0 1 12 0 1 0 1
0 204 232 64 0 0 1 12 0 1 0 1
0 140 232 64 0 0 1 12 0 1 0 1
phys
0 204 232 0 0 0 1 12 0 1 0 1
0 140 232 64 0 0 1 12 0 1 0 1
0 140 232 0 0 0 1 12 0 1 0 1
phys
0 140 232 0 0 0 1 12 0 1 0 1
0 140 232 64 0 0 1 12 0 1 0 1
0 140 246 64 0 0 1 12 0 1 0 1
phys
0 140 232 0 0 0 1 12 0 1 0 1
0 140 246 64 0 0 1 12 0 1 0 1
0 140 246 0 0 0 1 12 0 1 0 1
phys
0 204 232 64 0 0 1 12 0 1 0 1
0 204 232 0 0 0 1 12 0 1 0 1
0 204 246 0 0 0 1 12 0 1 0 1
phys
0 204 232 64 0 0 1 12 0 1 0 1
0 204 246 0 0 0 1 12 0 1 0 1
0 204 246 64 0 0 1 12 0 1 0 1
phys
0 204 232 0 0 0 1 12 0 1 0 1
0 140 232 0 0 0 1 12 0 1 0 1
0 140 246 0 0 0 1 12 0 1 0 1
phys
0 204 232 0 0 0 1 12 0 1 0 1
0 140 246 0 0 0 1 12 0 1 0 1
0 204 246 0 0 0 1 12 0 1 0 1
phys
0 140 232 64 0 0 1 12 0 1 0 1
0 204 232 64 0 0 1 12 0 1 0 1
0 204 246 64 0 0 1 12 0 1 0 1
phys
0 140 232 64 0 0 1 12 0 1 0 1
0 204 246 64 0 0 1 12 0 1 0 1
0 140 246 64 0 0 1 12 0 1 0 1
phys
0 247 -246 10 0 0 1 13 0 1 0 1
0 247 -246 117.997 0 0 1 13 0 1 0 1
0 243 -246 121.997 0 0 1 13 0 1 0 1
phys
0 247 -246 10 0 0 1 13 0 1 0 1
0 243 -246 121.997 0 0 1 13 0 1 0 1
0 243 -246 10 0 0 1 13 0 1 0 1
phys
0 243 -246 10 0 0 1 13 0 1 0 1
0 243 -246 121.997 0 0 1 13 0 1 0 1
0 243 -236 121.997 0 0 1 13 0 1 0 1
phys
0 243 -246 10 0 0 1 13 0 1 0 1
0 243 -236 121.997 0 0 1 13 0 1 0 1
0 243 -236 10 0 0 1 13 0 1 0 1
phys
0 247 -246 117.997 0 0 1 13 0 1 0 1
0 247 -246 10 0 0 1 13 0 1 0 1
0 247 -236 10 0 0 1 13 0 1 0 1
phys
0 247 -246 117.997 0 0 1 13 0 1 0 1
0 247 -236 10 0 0 1 13 0 1 0 1
0 247 -236 117.997 0 0 1 13 0 1 0 1
phys
0 247 -246 10 0 0 1 13 0 1 0 1
0 243 -246 10 0 0 1 13 0 1 0 1
0 243 -236 10 0 0 1 13 0 1 0 1
phys
0 247 -246 10 0 0 1 13 0 1 0 1
0 243 -236 10 0 0 1 13 0 1 0 1
0 247 -236 10 0 0 1 13 0 1 0 1
phys
0 243 -246 121.997 0 0 1 13 0 1 0 1
0 247 -246 117.997 0 0 1 13 0 1 0 1
0 247 -236 117.997 0 0 1 13 0 1 0 1
phys
0 243 -246 121.997 0 0 1 13 0 1 0 1
0 247 -236 117.997 0 0 1 13 0 1 0 1
0 243 -236 121.997 0 0 1 13 0 1 0 1
phys
0 247 -236 117.997 0 0 1 13 0 1 0 1
0 247 -236 10 0 0 1 13 0 1 0 1
0 243 -236 10 0 0 1 13 0 1 0 1
phys
0 247 -236 117.997 0 0 1 13 0 1 0 1
0 243 -236 10 0 0 1 13 0 1 0 1
0 243 -236 121.997 0 0 1 13 0 1 0 1
phys
0 224 36 5 0 0 1 14 0 1 0 1
0 224 36 0 0 0 1 14 0 1 0 1
0 216 36 0 0 0 1 14 0 1 0 1
phys
0 224 36 5 0 0 1 14 0 1 0 1
0 216 36 0 0 0 1 14 0 1 0 1
0 216 36 5 0 0 1 14 0 1 0 1
phys
0 224 -216 0 0 0 1 14 0 1 0 1
0 224 -216 5 0 0 1 14 0 1 0 1
0 216 -216 5 0 0 1 14 0 1 0 1
phys
0 224 -216 0 0 0 1 14 0 1 0 1
0 216 -216 5 0 0 1 14 0 1 0 1
0 216 -216 0 0 0 1 14 0 1 0 1
phys
0 216 -216 0 0 0 1 14 0 1 0 1
0 216 -216 5 0 0 1 14 0 1 0 1
0 216 36 5 0 0 1 14 0 1 0 1
phys
0 216 -216 0 0 0 1 14 0 1 0 1
0 216 36 5 0 0 1 14 0 1 0 1
0 216 36 0 0 0 1 14 0 1 0 1
phys
0 224 -216 5 0 0 1 14 0 1 0 1
0 224 -216 0 0 0 1 14 0 1 0 1
0 224 36 0 0 0 1 14 0 1 0 1
phys
0 224 -216 5 0 0 1 14 0 1 0 1
0 224 36 0 0 0 1 14 0 1 0 1
0 224 36 5 0 0 1 14 0 1 0 1
phys
0 224 -216 0 0 0 1 14 0 1 0 1
0 216 -216 0 0 0 1 14 0 1 0 1
0 216 36 0 0 0 1 14 0 1 0 1
phys
0 224 -216 0 0 0 1 14 0 1 0 1
0 216 36 0 0 0 1 14 0 1 0 1
0 224 36 0 0 0 1 14 0 1 0 1
phys
0 216 -216 5 0 0 1 14 0 1 0 1
0 224 -216 5 0 0 1 14 0 1 0 1
0 224 36 5 0 0 1 14 0 1 0 1
phys
0 216 -216 5 0 0 1 14 0 1 0 1
0 224 36 5 0 0 1 14 0 1 0 1
0 216 36 5 0 0 1 14 0 1 0 1
phys
0 188 110 16 0 0 1 15 0 1 0 1
0 204 110 16 0 0 1 15 0 1 0 1
0 204 232 16 0 0 1 15 0 1 0 1
phys
0 188 110 16 0 0 1 15 0 1 0 1
0 204 232 16 0 0 1 15 0 1 0 1
0 188 232 16 0 0 1 15 0 1 0 1
phys
0 188 232 0 0 0 1 15 0 1 0 1
0 188 232 16 0 0 1 15 0 1 0 1
0 204 232 16 0 0 1 15 0 1 0 1
phys
0 188 232 0 0 0 1 15 0 1 0 1
0 204 232 16 0 0 1 15 0 1 0 1
0 204 232 0 0 0 1 15 0 1 0 1
phys
0 204 110 0 0 0 1 15 0 1 0 1
0 204 110 16 0 0 1 15 0 1 0 1
0 188 110 16 0 0 1 15 0 1 0 1
phys
0 204 110 0 0 0 1 15 0 1 0 1
0 188 110 16 0 0 1 15 0 1 0 1
0 188 110 0 0 0 1 15 0 1 0 1
phys
0 188 110 0 0 0 1 15 0 1 0 1
0 188 110 16 0 0 1 15 0 1 0 1
0 188 232 16 0 0 1 15 0 1 0 1
phys
0 188 110 0 0 0 1 15 0 1 0 1
0 188 232 16 0 0 1 15 0 1 0 1
0 188 232 0 0 0 1 15 0 1 0 1
phys
0 204 232 0 0 0 1 15 0 1 0 1
0 204 232 16 0 0 1 15 0 1 0 1
0 204 110 16 0 0 1 15 0 1 0 1
phys
0 204 232 0 0 0 1 15 0 1 0 1
0 204 110 16 0 0 1 15 0 1 0 1
0 204 110 0 0 0 1 15 0 1 0 1
phys
0 204 110 0 0 0 1 15 0 1 0 1
0 188 110 0 0 0 1 15 0 1 0 1
0 188 232 0 0 0 1 15 0 1 0 1
phys
0 204 110 0 0 0 1 15 0 1 0 1
0 188 232 0 0 0 1 15 0 1 0 1
0 204 232 0 0 0 1 15 0 1 0 1
end
