version 1
nodes
0 "root" -1
end
skeleton
time 0
0 0 0 0 0 0 0
end
triangles
pepsi2_arch_concrete_wall01
0 224 76 150 0 1 0 50.383898 0.39605 1 0 1
0 224 76 49 0 1 0 50.383898 -0.042318 1 0 1
0 204 76 49 0 1 0 50.470703 -0.042318 1 0 1
pepsi2_arch_concrete_wall01
0 224 76 150 0 1 0 50.383898 0.39605 1 0 1
0 204 76 49 0 1 0 50.470703 -0.042318 1 0 1
0 204 76 150 0 1 0 50.470703 0.39605 1 0 1
pepsi2_arch_concrete_wall01
0 224 36 49 0 -1 0 50.383898 -0.042318 1 0 1
0 224 36 150 0 -1 0 50.383898 0.39605 1 0 1
0 204 36 150 0 -1 0 50.470703 0.39605 1 0 1
pepsi2_arch_concrete_wall01
0 224 36 49 0 -1 0 50.383898 -0.042318 1 0 1
0 204 36 150 0 -1 0 50.470703 0.39605 1 0 1
0 204 36 49 0 -1 0 50.470703 -0.042318 1 0 1
pepsi2_arch_concrete_wall01
0 224 36 150 1 0 0 14.211806 0.39605 1 0 1
0 224 36 49 1 0 0 14.211806 -0.042318 1 0 1
0 224 76 49 1 0 0 14.385417 -0.042318 1 0 1
pepsi2_arch_concrete_wall01
0 224 36 150 1 0 0 14.211806 0.39605 1 0 1
0 224 76 49 1 0 0 14.385417 -0.042318 1 0 1
0 224 76 150 1 0 0 14.385417 0.39605 1 0 1
pepsi2_arch_concrete_wall01
0 224 36 49 0 0 -1 50.383898 14.784071 1 0 1
0 204 36 49 0 0 -1 50.470703 14.784071 1 0 1
0 204 76 49 0 0 -1 50.470703 14.957682 1 0 1
pepsi2_arch_concrete_wall01
0 224 36 49 0 0 -1 50.383898 14.784071 1 0 1
0 204 76 49 0 0 -1 50.470703 14.957682 1 0 1
0 224 76 49 0 0 -1 50.383898 14.957682 1 0 1
pepsi2_arch_concrete_floor_smooth01
0 204 110 296 0 0.750474 -0.6609 51.980469 0.488715 1 0 1
0 -246 110 296 0 0.750474 -0.6609 53.933594 0.488715 1 0 1
0 -246 151.83 343.4993 0 0.750474 -0.6609 53.933594 0.694875 1 0 1
pepsi2_arch_concrete_floor_smooth01
0 204 110 296 0 0.750474 -0.6609 51.980469 0.488715 1 0 1
0 -246 151.83 343.4993 0 0.750474 -0.6609 53.933594 0.694875 1 0 1
0 204 151.83 343.4993 0 0.750474 -0.6609 51.980469 0.694875 1 0 1
pepsi2_arch_concrete_floor_smooth01
0 -246 110 348 -1 0 0 13.962674 0.888238 1 0 1
0 -246 151.83 343.4993 -1 0 0 14.144227 0.868704 1 0 1
0 -246 110 296 -1 0 0 13.962674 0.662543 1 0 1
pepsi2_arch_st_modern_wall04
0 204 110 296 1 0 0 18.381975 0.047712 1 0 1
0 204 151.83 343.4993 1 0 0 18.615402 0.312775 1 0 1
0 204 110 348 1 0 0 18.381975 0.337891 1 0 1
pepsi2_arch_concrete_floor_smooth01
0 140 236 100.999 0.378318 -0.654715 0.654388 92.546875 -1.148445 1 0 1
0 203.99827 236 64 0.378318 -0.654715 0.654388 92.046889 -1.4375 1 0 1
0 204 236.001 64 0.378318 -0.654715 0.654388 92.046875 -1.4375 1 0 1
pepsi2_arch_concrete_floor_smooth01
0 140 236 100.999 0.378318 -0.654715 0.654388 92.546875 -1.148445 1 0 1
0 204 236.001 64 0.378318 -0.654715 0.654388 92.046875 -1.4375 1 0 1
0 204 237.999 65.999 0.378318 -0.654715 0.654388 92.046875 -1.421883 1 0 1
pepsi2_arch_concrete_floor_smooth01
0 140 236 100.999 0.378318 -0.654715 0.654388 92.546875 -1.148445 1 0 1
0 204 237.999 65.999 0.378318 -0.654715 0.654388 92.046875 -1.421883 1 0 1
0 140 237.999 102.999 0.378318 -0.654715 0.654388 92.546875 -1.13282 1 0 1
pepsi2_arch_concrete_floor_smooth01
0 140 240.001 102.999 0.378399 0.654528 0.654528 92.546875 -1.13282 1 0 1
0 204 240.001 65.999 0.378399 0.654528 0.654528 92.046875 -1.421883 1 0 1
0 204 242 64 0.378399 0.654528 0.654528 92.046875 -1.4375 1 0 1
pepsi2_arch_concrete_floor_smooth01
0 140 240.001 102.999 0.378399 0.654528 0.654528 92.546875 -1.13282 1 0 1
0 204 242 64 0.378399 0.654528 0.654528 92.046875 -1.4375 1 0 1
0 140 242 101 0.378399 0.654528 0.654528 92.546875 -1.148437 1 0 1
pepsi2_arch_concrete_floor_smooth01
0 140 237.999 102.999 0.500503 0 0.865735 27.109367 93.546875 1 0 1
0 204 237.999 65.999 0.500503 0 0.865735 27.109367 93.046875 1 0 1
0 204 240.001 65.999 0.500503 0 0.865735 27.125008 93.046875 1 0 1
pepsi2_arch_concrete_floor_smooth01
0 140 237.999 102.999 0.500503 0 0.865735 27.109367 93.546875 1 0 1
0 204 240.001 65.999 0.500503 0 0.865735 27.125008 93.046875 1 0 1
0 140 240.001 102.999 0.500503 0 0.865735 27.125008 93.546875 1 0 1
pepsi2_arch_concrete_floor_smooth01
0 204 242 64 0 1 0 92.046875 -1.4375 1 0 1
0 204 242 64 0 1 0 92.046875 -1.4375 1 0 1
0 140 242 101 0 1 0 92.546875 -1.148438 1 0 1
pepsi2_arch_concrete_floor_smooth01
0 204 242 64 0 1 0 92.046875 -1.4375 1 0 1
0 140 242 101 0 1 0 92.546875 -1.148438 1 0 1
0 140 242 64 0 1 0 92.546875 -1.4375 1 0 1
pepsi2_arch_concrete_floor_smooth01
0 203.99827 236 64 0 -1 0 92.046889 -1.4375 1 0 1
0 140 236 100.999 0 -1 0 92.546875 -1.148445 1 0 1
0 140 236 64 0 -1 0 92.546875 -1.4375 1 0 1
pepsi2_arch_concrete_floor_smooth01
0 204 237.999 65.999 1 0 0 27.109367 -1.421883 1 0 1
0 204 236.001 64 1 0 0 27.093758 -1.4375 1 0 1
0 204 242 64 1 0 0 27.140625 -1.4375 1 0 1
pepsi2_arch_concrete_floor_smooth01
0 204 237.999 65.999 1 0 0 27.109367 -1.421883 1 0 1
0 204 242 64 1 0 0 27.140625 -1.4375 1 0 1
0 204 242 64 1 0 0 27.140625 -1.4375 1 0 1
pepsi2_arch_concrete_floor_smooth01
0 204 237.999 65.999 1 0 0 27.109367 -1.421883 1 0 1
0 204 242 64 1 0 0 27.140625 -1.4375 1 0 1
0 204 240.001 65.999 1 0 0 27.125008 -1.421883 1 0 1
pepsi2_arch_concrete_floor_smooth01
0 224 76 45 0 1 0 91.421875 -1.324219 1 0 1
0 224 76 0 0 1 0 91.421875 -1.675781 1 0 1
0 204 76 0 0 1 0 91.578125 -1.675781 1 0 1
pepsi2_arch_concrete_floor_smooth01
0 224 76 45 0 1 0 91.421875 -1.324219 1 0 1
0 204 76 0 0 1 0 91.578125 -1.675781 1 0 1
0 204 76 45 0 1 0 91.578125 -1.324219 1 0 1
pepsi2_arch_concrete_floor_smooth01
0 224 36 0 0 -1 0 91.421875 -1.675781 1 0 1
0 224 36 45 0 -1 0 91.421875 -1.324219 1 0 1
0 204 36 45 0 -1 0 91.578125 -1.324219 1 0 1
pepsi2_arch_concrete_floor_smooth01
0 224 36 0 0 -1 0 91.421875 -1.675781 1 0 1
0 204 36 45 0 -1 0 91.578125 -1.324219 1 0 1
0 204 36 0 0 -1 0 91.578125 -1.675781 1 0 1
pepsi2_arch_concrete_floor_smooth01
0 224 36 45 1 0 0 26.109375 -1.324219 1 0 1
0 224 36 0 1 0 0 26.109375 -1.675781 1 0 1
0 224 76 0 1 0 0 26.421875 -1.675781 1 0 1
pepsi2_arch_concrete_floor_smooth01
0 224 36 45 1 0 0 26.109375 -1.324219 1 0 1
0 224 76 0 1 0 0 26.421875 -1.675781 1 0 1
0 224 76 45 1 0 0 26.421875 -1.324219 1 0 1
pepsi2_arch_concrete_floor_smooth01
0 204 36 45 0 0 1 91.578125 -25.011719 1 0 1
0 224 36 45 0 0 1 91.421875 -25.011719 1 0 1
0 224 76 45 0 0 1 91.421875 -25.324219 1 0 1
pepsi2_arch_concrete_floor_smooth01
0 204 36 45 0 0 1 91.578125 -25.011719 1 0 1
0 224 76 45 0 0 1 91.421875 -25.324219 1 0 1
0 204 76 45 0 0 1 91.578125 -25.324219 1 0 1
pepsi2_arch_st_modern_wall04
0 204 110 348 1 0 0 18.663225 0.337891 1 0 1
0 204 151.83 343.4986 1 0 0 18.896652 0.312771 1 0 1
0 204 215.8 371.99996 1 0 0 19.253627 0.471819 1 0 1
pepsi2_arch_st_modern_wall04
0 204 110 348 1 0 0 18.663225 0.337891 1 0 1
0 204 215.8 371.99996 1 0 0 19.253627 0.471819 1 0 1
0 204 110 408 1 0 0 18.663225 0.672712 1 0 1
pepsi2_arch_concrete_floor_smooth01
0 -246 215.8 371.99996 0 0.406976 -0.913439 14.591797 54.666016 1 0 1
0 204 215.8 371.99996 0 0.406976 -0.913439 14.591797 52.712891 1 0 1
0 204 151.83 343.4986 0 0.406976 -0.913439 14.314149 52.712891 1 0 1
pepsi2_arch_concrete_floor_smooth01
0 -246 215.8 371.99996 0 0.406976 -0.913439 14.591797 54.666016 1 0 1
0 204 151.83 343.4986 0 0.406976 -0.913439 14.314149 52.712891 1 0 1
0 -246 151.83 343.4986 0 0.406976 -0.913439 14.314149 54.666016 1 0 1
pepsi2_arch_concrete_floor_smooth01
0 -246 110 408 -1 0 0 13.962674 1.148655 1 0 1
0 -246 215.8 371.99996 -1 0 0 14.421875 0.992404 1 0 1
0 -246 151.83 343.4986 -1 0 0 14.144227 0.868701 1 0 1
pepsi2_arch_concrete_floor_smooth01
0 -246 110 408 -1 0 0 13.962674 1.148655 1 0 1
0 -246 151.83 343.4986 -1 0 0 14.144227 0.868701 1 0 1
0 -246 110 348 -1 0 0 13.962674 0.888238 1 0 1
bridge_se1_metal_flat_steel_01
0 206 74 45 0 1 0 153.089193 -2.757161 1 0 1
0 206 74 49 0 1 0 153.089193 -2.705078 1 0 1
0 222 74 49 0 1 0 152.880859 -2.705078 1 0 1
bridge_se1_metal_flat_steel_01
0 206 74 45 0 1 0 153.089193 -2.757161 1 0 1
0 222 74 49 0 1 0 152.880859 -2.705078 1 0 1
0 222 74 45 0 1 0 152.880859 -2.757161 1 0 1
bridge_se1_metal_flat_steel_01
0 222 38 45 0 -1 0 -152.818359 -2.757161 1 0 1
0 222 38 49 0 -1 0 -152.818359 -2.705078 1 0 1
0 206 38 49 0 -1 0 -153.026693 -2.705078 1 0 1
bridge_se1_metal_flat_steel_01
0 222 38 45 0 -1 0 -152.818359 -2.757161 1 0 1
0 206 38 49 0 -1 0 -153.026693 -2.705078 1 0 1
0 206 38 45 0 -1 0 -153.026693 -2.757161 1 0 1
bridge_se1_metal_flat_steel_01
0 222 74 45 1 0 0 -44.177083 4.319661 1 0 1
0 222 74 49 1 0 0 -44.177083 4.267578 1 0 1
0 222 38 49 1 0 0 -43.708333 4.267578 1 0 1
bridge_se1_metal_flat_steel_01
0 222 74 45 1 0 0 -44.177083 4.319661 1 0 1
0 222 38 49 1 0 0 -43.708333 4.267578 1 0 1
0 222 38 45 1 0 0 -43.708333 4.319661 1 0 1
bridge_se1_metal_flat_steel_01
0 224 -216 134.003 1 0 0 -39.860026 4.061159 1 0 1
0 224 36 134.003 1 0 0 -43.141276 4.061159 1 0 1
0 224 36 150 1 0 0 -43.141276 3.852865 1 0 1
bridge_se1_metal_flat_steel_01
0 224 -216 134.003 1 0 0 -39.860026 4.061159 1 0 1
0 224 36 150 1 0 0 -43.141276 3.852865 1 0 1
0 224 -216 150 1 0 0 -39.860026 3.852865 1 0 1
bridge_se1_metal_flat_steel_01
0 208 -216 130 0 0 -1 -39.860026 154.291667 1 0 1
0 208 36 130 0 0 -1 -43.141276 154.291667 1 0 1
0 220 36 130 0 0 -1 -43.141276 154.135417 1 0 1
bridge_se1_metal_flat_steel_01
0 208 -216 130 0 0 -1 -39.860026 154.291667 1 0 1
0 220 36 130 0 0 -1 -43.141276 154.135417 1 0 1
0 220 -216 130 0 0 -1 -39.860026 154.135417 1 0 1
bridge_se1_metal_flat_steel_01
0 204 -216 133.997 -0.706841 0 -0.707372 -39.860026 107.394457 1 0 1
0 204 36 133.997 -0.706841 0 -0.707372 -43.141276 107.394457 1 0 1
0 208 36 130 -0.706841 0 -0.707372 -43.141276 107.320828 1 0 1
bridge_se1_metal_flat_steel_01
0 204 -216 133.997 -0.706841 0 -0.707372 -39.860026 107.394457 1 0 1
0 208 36 130 -0.706841 0 -0.707372 -43.141276 107.320828 1 0 1
0 208 -216 130 -0.706841 0 -0.707372 -39.860026 107.320828 1 0 1
bridge_se1_metal_flat_steel_01
0 220 -216 130 0.707372 0 -0.706842 -39.860026 111.134734 1 0 1
0 220 36 130 0.707372 0 -0.706842 -43.141276 111.134734 1 0 1
0 224 36 134.003 0.707372 0 -0.706842 -43.141276 111.061051 1 0 1
bridge_se1_metal_flat_steel_01
0 220 -216 130 0.707372 0 -0.706842 -39.860026 111.134734 1 0 1
0 224 36 134.003 0.707372 0 -0.706842 -43.141276 111.061051 1 0 1
0 224 -216 134.003 0.707372 0 -0.706842 -39.860026 111.061051 1 0 1
pepsi2_arch_stairs01
0 188 110 32 1 0 0 53.34375 -9.75 1 0 1
0 188 110 0 1 0 0 53.34375 -10.75 1 0 1
0 188 232 0 1 0 0 55.25 -10.75 1 0 1
pepsi2_arch_stairs01
0 188 110 32 1 0 0 53.34375 -9.75 1 0 1
0 188 232 0 1 0 0 55.25 -10.75 1 0 1
0 188 232 32 1 0 0 55.25 -9.75 1 0 1
pepsi2_arch_stairs01
0 172 110 32 0 0 1 53.34375 371.1875 1 0 1
0 188 110 32 0 0 1 53.34375 370.6875 1 0 1
0 188 232 32 0 0 1 55.25 370.6875 1 0 1
pepsi2_arch_stairs01
0 172 110 32 0 0 1 53.34375 371.1875 1 0 1
0 188 232 32 0 0 1 55.25 370.6875 1 0 1
0 172 232 32 0 0 1 55.25 371.1875 1 0 1
pepsi2_arch_stairs01
0 172 110 48 1 0 0 53.34375 -9.25 1 0 1
0 172 110 0 1 0 0 53.34375 -10.75 1 0 1
0 172 232 0 1 0 0 55.25 -10.75 1 0 1
pepsi2_arch_stairs01
0 172 110 48 1 0 0 53.34375 -9.25 1 0 1
0 172 232 0 1 0 0 55.25 -10.75 1 0 1
0 172 232 48 1 0 0 55.25 -9.25 1 0 1
pepsi2_arch_stairs01
0 156 110 48 0 0 1 53.34375 371.6875 1 0 1
0 172 110 48 0 0 1 53.34375 371.1875 1 0 1
0 172 232 48 0 0 1 55.25 371.1875 1 0 1
pepsi2_arch_stairs01
0 156 110 48 0 0 1 53.34375 371.6875 1 0 1
0 172 232 48 0 0 1 55.25 371.1875 1 0 1
0 156 232 48 0 0 1 55.25 371.6875 1 0 1
pepsi2_arch_concrete_floor_smooth01
0 224 -236 0 1 0 0 -23.6875 -1.609375 1 0 1
0 224 -216 0 1 0 0 -23.84375 -1.609375 1 0 1
0 224 -216 150 1 0 0 -23.84375 -0.4375 1 0 1
pepsi2_arch_concrete_floor_smooth01
0 224 -236 0 1 0 0 -23.6875 -1.609375 1 0 1
0 224 -216 150 1 0 0 -23.84375 -0.4375 1 0 1
0 224 -236 150 1 0 0 -23.6875 -0.4375 1 0 1
pepsi2_arch_concrete_floor_smooth01
0 224 -216 150 0 1 0 92 -0.4375 1 0 1
0 224 -216 0 0 1 0 92 -1.609375 1 0 1
0 204 -216 0 0 1 0 92.15625 -1.609375 1 0 1
pepsi2_arch_concrete_floor_smooth01
0 224 -216 150 0 1 0 92 -0.4375 1 0 1
0 204 -216 0 0 1 0 92.15625 -1.609375 1 0 1
0 204 -216 150 0 1 0 92.15625 -0.4375 1 0 1
pepsi2_arch_stairs01
0 156 110 64 1 0 0 53.34375 -8.75 1 0 1
0 156 110 0 1 0 0 53.34375 -10.75 1 0 1
0 156 232 0 1 0 0 55.25 -10.75 1 0 1
pepsi2_arch_stairs01
0 156 110 64 1 0 0 53.34375 -8.75 1 0 1
0 156 232 0 1 0 0 55.25 -10.75 1 0 1
0 156 232 64 1 0 0 55.25 -8.75 1 0 1
pepsi2_arch_stairs01
0 140 110 64 0 0 1 53.34375 372.1875 1 0 1
0 156 110 64 0 0 1 53.34375 371.6875 1 0 1
0 156 232 64 0 0 1 55.25 371.6875 1 0 1
pepsi2_arch_stairs01
0 140 110 64 0 0 1 53.34375 372.1875 1 0 1
0 156 232 64 0 0 1 55.25 371.6875 1 0 1
0 140 232 64 0 0 1 55.25 372.1875 1 0 1
goldeneye_caverns_cavernsconcretefloor02
0 204 246 64 0 1 0 92.046875 -1.4375 1 0 1
0 204 246 0 0 1 0 92.046875 -1.9375 1 0 1
0 140 246 0 0 1 0 92.546875 -1.9375 1 0 1
goldeneye_caverns_cavernsconcretefloor02
0 204 246 64 0 1 0 92.046875 -1.4375 1 0 1
0 140 246 0 0 1 0 92.546875 -1.9375 1 0 1
0 140 246 64 0 1 0 92.546875 -1.4375 1 0 1
goldeneye_caverns_cavernsconcretefloor02
0 204 232 0 0 -1 0 92.046875 -1.9375 1 0 1
0 204 232 64 0 -1 0 92.046875 -1.4375 1 0 1
0 140 232 64 0 -1 0 92.546875 -1.4375 1 0 1
goldeneye_caverns_cavernsconcretefloor02
0 204 232 0 0 -1 0 92.046875 -1.9375 1 0 1
0 140 232 64 0 -1 0 92.546875 -1.4375 1 0 1
0 140 232 0 0 -1 0 92.546875 -1.9375 1 0 1
goldeneye_caverns_cavernsconcretefloor02
0 204 232 64 1 0 0 27.0625 -1.4375 1 0 1
0 204 232 0 1 0 0 27.0625 -1.9375 1 0 1
0 204 246 0 1 0 0 27.171875 -1.9375 1 0 1
goldeneye_caverns_cavernsconcretefloor02
0 204 232 64 1 0 0 27.0625 -1.4375 1 0 1
0 204 246 0 1 0 0 27.171875 -1.9375 1 0 1
0 204 246 64 1 0 0 27.171875 -1.4375 1 0 1
goldeneye_caverns_cavernsconcretefloor02
0 140 232 64 0 0 1 27.0625 93.546875 1 0 1
0 204 232 64 0 0 1 27.0625 93.046875 1 0 1
0 204 246 64 0 0 1 27.171875 93.046875 1 0 1
goldeneye_caverns_cavernsconcretefloor02
0 140 232 64 0 0 1 27.0625 93.546875 1 0 1
0 204 246 64 0 0 1 27.171875 93.046875 1 0 1
0 140 246 64 0 0 1 27.171875 93.546875 1 0 1
bridge_se1_metal_flat_steel_01
0 247 -246 10 0 -1 0 152.676432 -3.150391 1 0 1
0 247 -246 117.997 0 -1 0 152.676432 -1.74418 1 0 1
0 243 -246 121.997 0 -1 0 152.728516 -1.692096 1 0 1
bridge_se1_metal_flat_steel_01
0 247 -246 10 0 -1 0 152.676432 -3.150391 1 0 1
0 243 -246 121.997 0 -1 0 152.728516 -1.692096 1 0 1
0 243 -246 10 0 -1 0 152.728516 -3.150391 1 0 1
bridge_se1_metal_flat_steel_01
0 247 -246 117.997 1 0 0 39.545573 -1.74418 1 0 1
0 247 -246 10 1 0 0 39.545573 -3.150391 1 0 1
0 247 -236 10 1 0 0 39.675781 -3.150391 1 0 1
bridge_se1_metal_flat_steel_01
0 247 -246 117.997 1 0 0 39.545573 -1.74418 1 0 1
0 247 -236 10 1 0 0 39.675781 -3.150391 1 0 1
0 247 -236 117.997 1 0 0 39.675781 -1.74418 1 0 1
bridge_se1_metal_flat_steel_01
0 247 -236 117.997 0 1 0 152.676432 -1.74418 1 0 1
0 247 -236 10 0 1 0 152.676432 -3.150391 1 0 1
0 243 -236 10 0 1 0 152.728516 -3.150391 1 0 1
bridge_se1_metal_flat_steel_01
0 247 -236 117.997 0 1 0 152.676432 -1.74418 1 0 1
0 243 -236 10 0 1 0 152.728516 -3.150391 1 0 1
0 243 -236 121.997 0 1 0 152.728516 -1.692096 1 0 1
pepsi2_arch_concrete_stair01
0 216 -216 0 -1 0 0 23.595703 -0.974609 1 0 1
0 216 -216 5 -1 0 0 23.595703 -0.935547 1 0 1
0 216 36 5 -1 0 0 25.564453 -0.935547 1 0 1
pepsi2_arch_concrete_stair01
0 216 -216 0 -1 0 0 23.595703 -0.974609 1 0 1
0 216 36 5 -1 0 0 25.564453 -0.935547 1 0 1
0 216 36 0 -1 0 0 25.564453 -0.974609 1 0 1
pepsi2_arch_concrete_stair01
0 216 -216 5 0 0 1 23.595703 -90.935547 1 0 1
0 224 -216 5 0 0 1 23.595703 -90.873047 1 0 1
0 224 36 5 0 0 1 25.564453 -90.873047 1 0 1
pepsi2_arch_concrete_stair01
0 216 -216 5 0 0 1 23.595703 -90.935547 1 0 1
0 224 36 5 0 0 1 25.564453 -90.873047 1 0 1
0 216 36 5 0 0 1 25.564453 -90.935547 1 0 1
pepsi2_arch_stairs01
0 188 110 16 0 0 1 53.34375 370.6875 1 0 1
0 204 110 16 0 0 1 53.34375 370.1875 1 0 1
0 204 232 16 0 0 1 55.25 370.1875 1 0 1
pepsi2_arch_stairs01
0 188 110 16 0 0 1 53.34375 370.6875 1 0 1
0 204 232 16 0 0 1 55.25 370.1875 1 0 1
0 188 232 16 0 0 1 55.25 370.6875 1 0 1
pepsi2_arch_stairs01
0 204 232 0 1 0 0 55.25 -10.75 1 0 1
0 204 232 16 1 0 0 55.25 -10.25 1 0 1
0 204 110 16 1 0 0 53.34375 -10.25 1 0 1
pepsi2_arch_stairs01
0 204 232 0 1 0 0 55.25 -10.75 1 0 1
0 204 110 16 1 0 0 53.34375 -10.25 1 0 1
0 204 110 0 1 0 0 53.34375 -10.75 1 0 1
end
