version 1
nodes
0 "root" -1
end
skeleton
time 0
0 0 0 0 0 0 0
end
triangles
pepsi2_gta4_churchfloor
0 -327.400923 -354.030584 115 0 0 1 -76.046831 131.398803 1 0 1
0 -328.5 -352.344 115 0 0 1 -76.073042 131.399073 1 0 1
0 -330.199539 -353.418708 115 0 0 1 -76.07313 131.425256 1 0 1
pepsi2_gta4_churchfloor
0 -327.400923 -354.030584 115 0 0 1 -76.046831 131.398803 1 0 1
0 -330.199539 -353.418708 115 0 0 1 -76.07313 131.425256 1 0 1
0 -329.100461 -355.105292 115 0 0 1 -76.046919 131.424986 1 0 1
pepsi2_gta4_churchfloor
0 -327.400461 -354.031292 51 0.837808 0.545965 0 4.786458 -75.601508 1 0 1
0 -328.500461 -352.343292 51 0.837808 0.545965 0 4.786458 -75.62774 1 0 1
0 -328.5 -352.344 115 0.837808 0.545965 0 3.953125 -75.627729 1 0 1
pepsi2_gta4_churchfloor
0 -327.400461 -354.031292 51 0.837808 0.545965 0 4.786458 -75.601508 1 0 1
0 -328.5 -352.344 115 0.837808 0.545965 0 3.953125 -75.627729 1 0 1
0 -327.400923 -354.030584 115 0.837808 0.545965 0 3.953125 -75.601519 1 0 1
pepsi2_gta4_churchfloor
0 -330.199539 -353.418708 115 -0.534461 0.845193 0.000013 3.953125 131.425256 1 0 1
0 -328.5 -352.344 115 -0.534461 0.845193 0.000013 3.953125 131.399073 1 0 1
0 -328.500461 -352.343292 51 -0.534461 0.845193 0.000013 4.786458 131.399073 1 0 1
pepsi2_gta4_churchfloor
0 -330.199539 -353.418708 115 -0.534461 0.845193 0.000013 3.953125 131.425256 1 0 1
0 -328.500461 -352.343292 51 -0.534461 0.845193 0.000013 4.786458 131.399073 1 0 1
0 -330.2 -353.418 51 -0.534461 0.845193 0.000013 4.786458 131.425256 1 0 1
pepsi2_gta4_churchfloor
0 -329.100461 -355.105292 115 -0.837808 -0.545965 0 3.953125 77.423872 1 0 1
0 -330.199539 -353.418708 115 -0.837808 -0.545965 0 3.953125 77.450083 1 0 1
0 -330.2 -353.418 51 -0.837808 -0.545965 0 4.786458 77.450094 1 0 1
pepsi2_gta4_churchfloor
0 -329.100461 -355.105292 115 -0.837808 -0.545965 0 3.953125 77.423872 1 0 1
0 -330.2 -353.418 51 -0.837808 -0.545965 0 4.786458 77.450094 1 0 1
0 -329.1 -355.106 51 -0.837808 -0.545965 0 4.786458 77.423861 1 0 1
pepsi2_gta4_churchfloor
0 -329.1 -355.106 51 0.534461 -0.845193 0.000013 4.786458 131.424986 1 0 1
0 -327.400461 -354.031292 51 0.534461 -0.845193 0.000013 4.786458 131.398803 1 0 1
0 -327.400923 -354.030584 115 0.534461 -0.845193 0.000013 3.953125 131.398803 1 0 1
pepsi2_gta4_churchfloor
0 -329.1 -355.106 51 0.534461 -0.845193 0.000013 4.786458 131.424986 1 0 1
0 -327.400923 -354.030584 115 0.534461 -0.845193 0.000013 3.953125 131.398803 1 0 1
0 -329.100461 -355.105292 115 0.534461 -0.845193 0.000013 3.953125 131.424986 1 0 1
bridge_se1_metal_flat_steel_01
0 -301 -326 207 0 -1 0 1.78125 -89.144531 1 0 1
0 -301 -326 478 0 -1 0 -0.335938 -89.144531 1 0 1
0 -321 -326 478 0 -1 0 -0.335938 -89.300781 1 0 1
bridge_se1_metal_flat_steel_01
0 -301 -326 207 0 -1 0 1.78125 -89.144531 1 0 1
0 -321 -326 478 0 -1 0 -0.335938 -89.300781 1 0 1
0 -321 -326 207 0 -1 0 1.78125 -89.300781 1 0 1
bridge_se1_metal_flat_steel_01
0 -301 -326 478 1 0 0 3.78125 0.738281 1 0 1
0 -301 -326 207 1 0 0 3.78125 2.855469 1 0 1
0 -301 -306 207 1 0 0 3.625 2.855469 1 0 1
bridge_se1_metal_flat_steel_01
0 -301 -326 478 1 0 0 3.78125 0.738281 1 0 1
0 -301 -306 207 1 0 0 3.625 2.855469 1 0 1
0 -301 -306 478 1 0 0 3.625 0.738281 1 0 1
bridge_se1_metal_flat_steel_01
0 -301 -306 478 0 1 0 -0.257812 -89.144531 1 0 1
0 -301 -306 207 0 1 0 -2.375 -89.144531 1 0 1
0 -321 -306 207 0 1 0 -2.375 -89.300781 1 0 1
bridge_se1_metal_flat_steel_01
0 -301 -306 478 0 1 0 -0.257812 -89.144531 1 0 1
0 -321 -306 207 0 1 0 -2.375 -89.300781 1 0 1
0 -321 -306 478 0 1 0 -0.257812 -89.300781 1 0 1
pepsi2_arch_concrete_floor_smooth01
0 53 189 34 0 1 0 -2.851562 -86.828125 1 0 1
0 53 189 -34 0 1 0 -3.382812 -86.828125 1 0 1
0 -53.6 189 34 0 1 0 -2.851562 -87.660937 1 0 1
pepsi2_arch_concrete_floor_smooth01
0 -53.6 -189 34 0 -1 0 -2.851562 89.035938 1 0 1
0 53 -189 -34 0 -1 0 -3.382813 88.203125 1 0 1
0 53 -189 34 0 -1 0 -2.851562 88.203125 1 0 1
pepsi2_arch_concrete_floor_smooth01
0 53 -189 34 1 0 0 -2.851562 3.125 1 0 1
0 53 -189 -34 1 0 0 -3.382812 3.125 1 0 1
0 53 189 -34 1 0 0 -3.382812 0.171875 1 0 1
pepsi2_arch_concrete_floor_smooth01
0 53 -189 34 1 0 0 -2.851562 3.125 1 0 1
0 53 189 -34 1 0 0 -3.382812 0.171875 1 0 1
0 53 189 34 1 0 0 -2.851562 0.171875 1 0 1
bridge_se1_metal_flat_steel_01
0 -321 -410 187 0.707107 0.707107 0 -61.726557 3.011719 1 0 1
0 -321 -410 51 0.707107 0.707107 0 -61.726557 4.074219 1 0 1
0 -325 -406 51 0.707107 0.707107 0 -61.770751 4.074219 1 0 1
bridge_se1_metal_flat_steel_01
0 -321 -410 187 0.707107 0.707107 0 -61.726557 3.011719 1 0 1
0 -325 -406 51 0.707107 0.707107 0 -61.770751 4.074219 1 0 1
0 -325 -406 187 0.707107 0.707107 0 -61.770751 3.011719 1 0 1
bridge_se1_metal_flat_steel_01
0 -349 -438 51 -0.707107 -0.707107 0 61.691401 4.074219 1 0 1
0 -349 -438 187 -0.707107 -0.707107 0 61.691401 3.011719 1 0 1
0 -353 -434 187 -0.707107 -0.707107 0 61.735595 3.011719 1 0 1
bridge_se1_metal_flat_steel_01
0 -349 -438 51 -0.707107 -0.707107 0 61.691401 4.074219 1 0 1
0 -353 -434 187 -0.707107 -0.707107 0 61.735595 3.011719 1 0 1
0 -353 -434 51 -0.707107 -0.707107 0 61.735595 4.074219 1 0 1
bridge_se1_metal_flat_steel_01
0 -325 -438 187 0.707018 -0.707195 0 66.50363 3.011719 1 0 1
0 -325 -438 51 0.707018 -0.707195 0 66.50363 4.074219 1 0 1
0 -321 -434.001 51 0.707018 -0.707195 0 66.459442 4.074219 1 0 1
bridge_se1_metal_flat_steel_01
0 -325 -438 187 0.707018 -0.707195 0 66.50363 3.011719 1 0 1
0 -321 -434.001 51 0.707018 -0.707195 0 66.459442 4.074219 1 0 1
0 -321 -434.001 187 0.707018 -0.707195 0 66.459442 3.011719 1 0 1
bridge_se1_metal_flat_steel_01
0 -325 -406 187 0 1 0 -90.771484 3.011719 1 0 1
0 -325 -406 51 0 1 0 -90.771484 4.074219 1 0 1
0 -349 -406 51 0 1 0 -90.958984 4.074219 1 0 1
bridge_se1_metal_flat_steel_01
0 -325 -406 187 0 1 0 -90.771484 3.011719 1 0 1
0 -349 -406 51 0 1 0 -90.958984 4.074219 1 0 1
0 -349 -406 187 0 1 0 -90.958984 3.011719 1 0 1
bridge_se1_metal_flat_steel_01
0 -325 -438 51 0 -1 0 90.505859 4.074219 1 0 1
0 -325 -438 187 0 -1 0 90.505859 3.011719 1 0 1
0 -349 -438 187 0 -1 0 90.693359 3.011719 1 0 1
bridge_se1_metal_flat_steel_01
0 -325 -438 51 0 -1 0 90.505859 4.074219 1 0 1
0 -349 -438 187 0 -1 0 90.693359 3.011719 1 0 1
0 -349 -438 51 0 -1 0 90.693359 4.074219 1 0 1
bridge_se1_metal_flat_steel_01
0 -353 -434 51 -1 0 0 -4.263672 4.074219 1 0 1
0 -353 -434 187 -1 0 0 -4.263672 3.011719 1 0 1
0 -353 -410 187 -1 0 0 -4.076172 3.011719 1 0 1
bridge_se1_metal_flat_steel_01
0 -353 -434 51 -1 0 0 -4.263672 4.074219 1 0 1
0 -353 -410 187 -1 0 0 -4.076172 3.011719 1 0 1
0 -353 -410 51 -1 0 0 -4.076172 4.074219 1 0 1
bridge_se1_metal_flat_steel_01
0 -321 -434.001 187 1 0 0 4.460945 3.011719 1 0 1
0 -321 -434.001 51 1 0 0 4.460945 4.074219 1 0 1
0 -321 -410 51 1 0 0 4.273438 4.074219 1 0 1
bridge_se1_metal_flat_steel_01
0 -321 -434.001 187 1 0 0 4.460945 3.011719 1 0 1
0 -321 -410 51 1 0 0 4.273438 4.074219 1 0 1
0 -321 -410 187 1 0 0 4.273438 3.011719 1 0 1
bridge_se1_metal_flat_steel_01
0 -353 -410 51 -0.707107 0.707107 0 -67.001677 4.074219 1 0 1
0 -353 -410 187 -0.707107 0.707107 0 -67.001677 3.011719 1 0 1
0 -349 -406 187 -0.707107 0.707107 0 -66.957484 3.011719 1 0 1
bridge_se1_metal_flat_steel_01
0 -353 -410 51 -0.707107 0.707107 0 -67.001677 4.074219 1 0 1
0 -349 -406 187 -0.707107 0.707107 0 -66.957484 3.011719 1 0 1
0 -349 -406 51 -0.707107 0.707107 0 -66.957484 4.074219 1 0 1
pepsi2_arch_concrete_stair01
0 -85 -65 97 0 1 0 88.929688 -2.037109 1 0 1
0 -85 -65 54 0 1 0 88.929688 -2.373047 1 0 1
0 -91 -65 54 0 1 0 88.976562 -2.373047 1 0 1
pepsi2_arch_concrete_stair01
0 -85 -65 97 0 1 0 88.929688 -2.037109 1 0 1
0 -91 -65 54 0 1 0 88.976562 -2.373047 1 0 1
0 -91 -65 97 0 1 0 88.976562 -2.037109 1 0 1
pepsi2_arch_concrete_stair01
0 -85 -71 54 0 -1 0 -88.929688 -2.373047 1 0 1
0 -85 -71 97 0 -1 0 -88.929688 -2.037109 1 0 1
0 -91 -71 97 0 -1 0 -88.976562 -2.037109 1 0 1
pepsi2_arch_concrete_stair01
0 -85 -71 54 0 -1 0 -88.929688 -2.373047 1 0 1
0 -91 -71 97 0 -1 0 -88.976562 -2.037109 1 0 1
0 -91 -71 54 0 -1 0 -88.976562 -2.373047 1 0 1
pepsi2_arch_concrete_stair01
0 -91 -71 54 -1 0 0 2.023438 -2.373047 1 0 1
0 -91 -71 97 -1 0 0 2.023438 -2.037109 1 0 1
0 -91 -65 97 -1 0 0 1.976562 -2.037109 1 0 1
pepsi2_arch_concrete_stair01
0 -91 -71 54 -1 0 0 2.023438 -2.373047 1 0 1
0 -91 -65 97 -1 0 0 1.976562 -2.037109 1 0 1
0 -91 -65 54 -1 0 0 1.976562 -2.373047 1 0 1
pepsi2_arch_concrete_stair01
0 -85 -71 97 1 0 0 -2.023438 -2.037109 1 0 1
0 -85 -71 54 1 0 0 -2.023438 -2.373047 1 0 1
0 -85 -65 54 1 0 0 -1.976562 -2.373047 1 0 1
pepsi2_arch_concrete_stair01
0 -85 -71 97 1 0 0 -2.023438 -2.037109 1 0 1
0 -85 -65 54 1 0 0 -1.976562 -2.373047 1 0 1
0 -85 -65 97 1 0 0 -1.976562 -2.037109 1 0 1
pepsi2_arch_concrete_stair01
0 -91 -71 97 0 0 1 -88.992188 -0.271484 1 0 1
0 -85 -71 97 0 0 1 -88.945312 -0.271484 1 0 1
0 -85 -65 97 0 0 1 -88.945312 -0.224609 1 0 1
pepsi2_arch_concrete_stair01
0 -91 -71 97 0 0 1 -88.992188 -0.271484 1 0 1
0 -85 -65 97 0 0 1 -88.945312 -0.224609 1 0 1
0 -91 -65 97 0 0 1 -88.992188 -0.224609 1 0 1
pepsi2_arch_plaster01
0 -319.000463 -365.302276 81 0 0 -1 76.631856 -129.201815 1 0 1
0 -319.900461 -365.839275 81 0 0 -1 76.632255 -129.215456 1 0 1
0 -336 -340.536 81 0 0 -1 77.022764 -129.215233 1 0 1
pepsi2_arch_plaster01
0 -319.000463 -365.302276 81 0 0 -1 76.631856 -129.201815 1 0 1
0 -336 -340.536 81 0 0 -1 77.022764 -129.215233 1 0 1
0 -335.200448 -339.999301 81 0 0 -1 77.023064 -129.202698 1 0 1
pepsi2_arch_plaster01
0 -336 -340.536 128 0 0 1 77.022764 -129.215233 1 0 1
0 -319.900461 -365.839275 128 0 0 1 76.632255 -129.215456 1 0 1
0 -319.000463 -365.302276 128 0 0 1 76.631856 -129.201815 1 0 1
pepsi2_arch_plaster01
0 -336 -340.536 128 0 0 1 77.022764 -129.215233 1 0 1
0 -319.000463 -365.302276 128 0 0 1 76.631856 -129.201815 1 0 1
0 -335.200448 -339.999301 128 0 0 1 77.023064 -129.202698 1 0 1
pepsi2_arch_plaster01
0 -319.900461 -365.839275 128 -0.8437 -0.536815 0 45.3524 -1.273438 1 0 1
0 -336 -340.536 128 -0.8437 -0.536815 0 45.586705 -1.273438 1 0 1
0 -336 -340.536 81 -0.8437 -0.536815 0 45.586705 -1.640625 1 0 1
pepsi2_arch_plaster01
0 -319.900461 -365.839275 128 -0.8437 -0.536815 0 45.3524 -1.273438 1 0 1
0 -336 -340.536 81 -0.8437 -0.536815 0 45.586705 -1.640625 1 0 1
0 -319.900461 -365.839275 81 -0.8437 -0.536815 0 45.3524 -1.640625 1 0 1
pepsi2_arch_plaster01
0 -319.900461 -365.839275 81 0.512389 -0.858753 0 -4.466146 -129.215456 1 0 1
0 -319.000463 -365.302276 81 0.512389 -0.858753 0 -4.466146 -129.201815 1 0 1
0 -319.000463 -365.302276 128 0.512389 -0.858753 0 -3.854167 -129.201815 1 0 1
pepsi2_arch_plaster01
0 -319.900461 -365.839275 81 0.512389 -0.858753 0 -4.466146 -129.215456 1 0 1
0 -319.000463 -365.302276 128 0.512389 -0.858753 0 -3.854167 -129.201815 1 0 1
0 -319.900461 -365.839275 128 0.512389 -0.858753 0 -3.854167 -129.215456 1 0 1
pepsi2_graphics_election1
0 -319.000463 -365.302276 81 0.84218 0.539197 0 196.000135 -5.999991 1 0 1
0 -335.200448 -339.999301 81 0.84218 0.539197 0 197.000147 -5.999991 1 0 1
0 -335.200448 -339.999301 128 0.84218 0.539197 0 197.000147 -4.999992 1 0 1
pepsi2_graphics_election1
0 -319.000463 -365.302276 81 0.84218 0.539197 0 196.000135 -5.999991 1 0 1
0 -335.200448 -339.999301 128 0.84218 0.539197 0 197.000147 -4.999992 1 0 1
0 -319.000463 -365.302276 128 0.84218 0.539197 0 196.000135 -4.999992 1 0 1
pepsi2_arch_plaster01
0 -336 -340.536 128 -0.557332 0.83029 0 3.91276 -129.215233 1 0 1
0 -335.200448 -339.999301 128 -0.557332 0.83029 0 3.91276 -129.202698 1 0 1
0 -335.200448 -339.999301 81 -0.557332 0.83029 0 4.52474 -129.202698 1 0 1
pepsi2_arch_plaster01
0 -336 -340.536 128 -0.557332 0.83029 0 3.91276 -129.215233 1 0 1
0 -335.200448 -339.999301 81 -0.557332 0.83029 0 4.52474 -129.202698 1 0 1
0 -336 -340.536 81 -0.557332 0.83029 0 4.52474 -129.215233 1 0 1
end
