version 1
nodes
0 "root" -1
end
skeleton
time 0
0 0 0 0 0 0 0
end
triangles
phys
0 -130 10 202 0 0 1 1 0 1 0 1
0 -130 10 130 0 0 1 1 0 1 0 1
0 -132 10 130 0 0 1 1 0 1 0 1
phys
0 -130 10 202 0 0 1 1 0 1 0 1
0 -132 10 130 0 0 1 1 0 1 0 1
0 -132 10 202 0 0 1 1 0 1 0 1
phys
0 -130 6 130 0 0 1 1 0 1 0 1
0 -130 6 202 0 0 1 1 0 1 0 1
0 -132 6 202 0 0 1 1 0 1 0 1
phys
0 -130 6 130 0 0 1 1 0 1 0 1
0 -132 6 202 0 0 1 1 0 1 0 1
0 -132 6 130 0 0 1 1 0 1 0 1
phys
0 -132 6 130 0 0 1 1 0 1 0 1
0 -132 6 202 0 0 1 1 0 1 0 1
0 -132 10 202 0 0 1 1 0 1 0 1
phys
0 -132 6 130 0 0 1 1 0 1 0 1
0 -132 10 202 0 0 1 1 0 1 0 1
0 -132 10 130 0 0 1 1 0 1 0 1
phys
0 -130 6 202 0 0 1 1 0 1 0 1
0 -130 6 130 0 0 1 1 0 1 0 1
0 -130 10 130 0 0 1 1 0 1 0 1
phys
0 -130 6 202 0 0 1 1 0 1 0 1
0 -130 10 130 0 0 1 1 0 1 0 1
0 -130 10 202 0 0 1 1 0 1 0 1
phys
0 -130 6 130 0 0 1 1 0 1 0 1
0 -132 6 130 0 0 1 1 0 1 0 1
0 -132 10 130 0 0 1 1 0 1 0 1
phys
0 -130 6 130 0 0 1 1 0 1 0 1
0 -132 10 130 0 0 1 1 0 1 0 1
0 -130 10 130 0 0 1 1 0 1 0 1
phys
0 -132 6 202 0 0 1 1 0 1 0 1
0 -130 6 202 0 0 1 1 0 1 0 1
0 -130 10 202 0 0 1 1 0 1 0 1
phys
0 -132 6 202 0 0 1 1 0 1 0 1
0 -130 10 202 0 0 1 1 0 1 0 1
0 -132 10 202 0 0 1 1 0 1 0 1
phys
0 -199 6 232 0 0 1 2 0 1 0 1
0 -199 6 200 0 0 1 2 0 1 0 1
0 -223 6 200 0 0 1 2 0 1 0 1
phys
0 -199 6 232 0 0 1 2 0 1 0 1
0 -223 6 200 0 0 1 2 0 1 0 1
0 -223 6 232 0 0 1 2 0 1 0 1
phys
0 -199 -10 200 0 0 1 2 0 1 0 1
0 -199 -10 232 0 0 1 2 0 1 0 1
0 -223 -10 232 0 0 1 2 0 1 0 1
phys
0 -199 -10 200 0 0 1 2 0 1 0 1
0 -223 -10 232 0 0 1 2 0 1 0 1
0 -223 -10 200 0 0 1 2 0 1 0 1
phys
0 -223 -10 200 0 0 1 2 0 1 0 1
0 -223 -10 232 0 0 1 2 0 1 0 1
0 -223 6 232 0 0 1 2 0 1 0 1
phys
0 -223 -10 200 0 0 1 2 0 1 0 1
0 -223 6 232 0 0 1 2 0 1 0 1
0 -223 6 200 0 0 1 2 0 1 0 1
phys
0 -199 -10 232 0 0 1 2 0 1 0 1
0 -199 -10 200 0 0 1 2 0 1 0 1
0 -199 6 200 0 0 1 2 0 1 0 1
phys
0 -199 -10 232 0 0 1 2 0 1 0 1
0 -199 6 200 0 0 1 2 0 1 0 1
0 -199 6 232 0 0 1 2 0 1 0 1
phys
0 -199 -10 200 0 0 1 2 0 1 0 1
0 -223 -10 200 0 0 1 2 0 1 0 1
0 -223 6 200 0 0 1 2 0 1 0 1
phys
0 -199 -10 200 0 0 1 2 0 1 0 1
0 -223 6 200 0 0 1 2 0 1 0 1
0 -199 6 200 0 0 1 2 0 1 0 1
phys
0 -223 -10 232 0 0 1 2 0 1 0 1
0 -199 -10 232 0 0 1 2 0 1 0 1
0 -199 6 232 0 0 1 2 0 1 0 1
phys
0 -223 -10 232 0 0 1 2 0 1 0 1
0 -199 6 232 0 0 1 2 0 1 0 1
0 -223 6 232 0 0 1 2 0 1 0 1
phys
0 -130 10 2 0 0 1 3 0 1 0 1
0 -130 10 0 0 0 1 3 0 1 0 1
0 -178 10 0 0 0 1 3 0 1 0 1
phys
0 -130 10 2 0 0 1 3 0 1 0 1
0 -178 10 0 0 0 1 3 0 1 0 1
0 -178 10 2 0 0 1 3 0 1 0 1
phys
0 -130 6 0 0 0 1 3 0 1 0 1
0 -130 6 2 0 0 1 3 0 1 0 1
0 -178 6 2 0 0 1 3 0 1 0 1
phys
0 -130 6 0 0 0 1 3 0 1 0 1
0 -178 6 2 0 0 1 3 0 1 0 1
0 -178 6 0 0 0 1 3 0 1 0 1
phys
0 -178 6 0 0 0 1 3 0 1 0 1
0 -178 6 2 0 0 1 3 0 1 0 1
0 -178 10 2 0 0 1 3 0 1 0 1
phys
0 -178 6 0 0 0 1 3 0 1 0 1
0 -178 10 2 0 0 1 3 0 1 0 1
0 -178 10 0 0 0 1 3 0 1 0 1
phys
0 -130 6 2 0 0 1 3 0 1 0 1
0 -130 6 0 0 0 1 3 0 1 0 1
0 -130 10 0 0 0 1 3 0 1 0 1
phys
0 -130 6 2 0 0 1 3 0 1 0 1
0 -130 10 0 0 0 1 3 0 1 0 1
0 -130 10 2 0 0 1 3 0 1 0 1
phys
0 -130 6 0 0 0 1 3 0 1 0 1
0 -178 6 0 0 0 1 3 0 1 0 1
0 -178 10 0 0 0 1 3 0 1 0 1
phys
0 -130 6 0 0 0 1 3 0 1 0 1
0 -178 10 0 0 0 1 3 0 1 0 1
0 -130 10 0 0 0 1 3 0 1 0 1
phys
0 -178 6 2 0 0 1 3 0 1 0 1
0 -130 6 2 0 0 1 3 0 1 0 1
0 -130 10 2 0 0 1 3 0 1 0 1
phys
0 -178 6 2 0 0 1 3 0 1 0 1
0 -130 10 2 0 0 1 3 0 1 0 1
0 -178 10 2 0 0 1 3 0 1 0 1
phys
0 -76 10 74 0 0 1 4 0 1 0 1
0 -76 10 2 0 0 1 4 0 1 0 1
0 -78 10 2 0 0 1 4 0 1 0 1
phys
0 -76 10 74 0 0 1 4 0 1 0 1
0 -78 10 2 0 0 1 4 0 1 0 1
0 -78 10 74 0 0 1 4 0 1 0 1
phys
0 -76 6 2 0 0 1 4 0 1 0 1
0 -76 6 74 0 0 1 4 0 1 0 1
0 -78 6 74 0 0 1 4 0 1 0 1
phys
0 -76 6 2 0 0 1 4 0 1 0 1
0 -78 6 74 0 0 1 4 0 1 0 1
0 -78 6 2 0 0 1 4 0 1 0 1
phys
0 -78 6 2 0 0 1 4 0 1 0 1
0 -78 6 74 0 0 1 4 0 1 0 1
0 -78 10 74 0 0 1 4 0 1 0 1
phys
0 -78 6 2 0 0 1 4 0 1 0 1
0 -78 10 74 0 0 1 4 0 1 0 1
0 -78 10 2 0 0 1 4 0 1 0 1
phys
0 -76 6 74 0 0 1 4 0 1 0 1
0 -76 6 2 0 0 1 4 0 1 0 1
0 -76 10 2 0 0 1 4 0 1 0 1
phys
0 -76 6 74 0 0 1 4 0 1 0 1
0 -76 10 2 0 0 1 4 0 1 0 1
0 -76 10 74 0 0 1 4 0 1 0 1
phys
0 -76 6 2 0 0 1 4 0 1 0 1
0 -78 6 2 0 0 1 4 0 1 0 1
0 -78 10 2 0 0 1 4 0 1 0 1
phys
0 -76 6 2 0 0 1 4 0 1 0 1
0 -78 10 2 0 0 1 4 0 1 0 1
0 -76 10 2 0 0 1 4 0 1 0 1
phys
0 -78 6 74 0 0 1 4 0 1 0 1
0 -76 6 74 0 0 1 4 0 1 0 1
0 -76 10 74 0 0 1 4 0 1 0 1
phys
0 -78 6 74 0 0 1 4 0 1 0 1
0 -76 10 74 0 0 1 4 0 1 0 1
0 -78 10 74 0 0 1 4 0 1 0 1
phys
0 -223 -10 264 0 0 1 5 0 1 0 1
0 -223 6 264 0 0 1 5 0 1 0 1
0 -223 6 232 0 0 1 5 0 1 0 1
phys
0 -223 -10 264 0 0 1 5 0 1 0 1
0 -223 6 232 0 0 1 5 0 1 0 1
0 -223 -10 232 0 0 1 5 0 1 0 1
phys
0 224 -10 232 0 0 1 5 0 1 0 1
0 224 6 232 0 0 1 5 0 1 0 1
0 224 6 264 0 0 1 5 0 1 0 1
phys
0 224 -10 232 0 0 1 5 0 1 0 1
0 224 6 264 0 0 1 5 0 1 0 1
0 224 -10 264 0 0 1 5 0 1 0 1
phys
0 -223 -10 232 0 0 1 5 0 1 0 1
0 -223 6 232 0 0 1 5 0 1 0 1
0 224 6 232 0 0 1 5 0 1 0 1
phys
0 -223 -10 232 0 0 1 5 0 1 0 1
0 224 6 232 0 0 1 5 0 1 0 1
0 224 -10 232 0 0 1 5 0 1 0 1
phys
0 224 -10 264 0 0 1 5 0 1 0 1
0 224 6 264 0 0 1 5 0 1 0 1
0 -223 6 264 0 0 1 5 0 1 0 1
phys
0 224 -10 264 0 0 1 5 0 1 0 1
0 -223 6 264 0 0 1 5 0 1 0 1
0 -223 -10 264 0 0 1 5 0 1 0 1
phys
0 224 6 264 0 0 1 5 0 1 0 1
0 224 6 232 0 0 1 5 0 1 0 1
0 -223 6 232 0 0 1 5 0 1 0 1
phys
0 224 6 264 0 0 1 5 0 1 0 1
0 -223 6 232 0 0 1 5 0 1 0 1
0 -223 6 264 0 0 1 5 0 1 0 1
phys
0 224 -10 232 0 0 1 5 0 1 0 1
0 224 -10 264 0 0 1 5 0 1 0 1
0 -223 -10 264 0 0 1 5 0 1 0 1
phys
0 224 -10 232 0 0 1 5 0 1 0 1
0 -223 -10 264 0 0 1 5 0 1 0 1
0 -223 -10 232 0 0 1 5 0 1 0 1
phys
0 -30 10 130 0 0 1 6 0 1 0 1
0 -30 10 128 0 0 1 6 0 1 0 1
0 -78 10 128 0 0 1 6 0 1 0 1
phys
0 -30 10 130 0 0 1 6 0 1 0 1
0 -78 10 128 0 0 1 6 0 1 0 1
0 -78 10 130 0 0 1 6 0 1 0 1
phys
0 -30 6 128 0 0 1 6 0 1 0 1
0 -30 6 130 0 0 1 6 0 1 0 1
0 -78 6 130 0 0 1 6 0 1 0 1
phys
0 -30 6 128 0 0 1 6 0 1 0 1
0 -78 6 130 0 0 1 6 0 1 0 1
0 -78 6 128 0 0 1 6 0 1 0 1
phys
0 -78 6 128 0 0 1 6 0 1 0 1
0 -78 6 130 0 0 1 6 0 1 0 1
0 -78 10 130 0 0 1 6 0 1 0 1
phys
0 -78 6 128 0 0 1 6 0 1 0 1
0 -78 10 130 0 0 1 6 0 1 0 1
0 -78 10 128 0 0 1 6 0 1 0 1
phys
0 -30 6 130 0 0 1 6 0 1 0 1
0 -30 6 128 0 0 1 6 0 1 0 1
0 -30 10 128 0 0 1 6 0 1 0 1
phys
0 -30 6 130 0 0 1 6 0 1 0 1
0 -30 10 128 0 0 1 6 0 1 0 1
0 -30 10 130 0 0 1 6 0 1 0 1
phys
0 -30 6 128 0 0 1 6 0 1 0 1
0 -78 6 128 0 0 1 6 0 1 0 1
0 -78 10 128 0 0 1 6 0 1 0 1
phys
0 -30 6 128 0 0 1 6 0 1 0 1
0 -78 10 128 0 0 1 6 0 1 0 1
0 -30 10 128 0 0 1 6 0 1 0 1
phys
0 -78 6 130 0 0 1 6 0 1 0 1
0 -30 6 130 0 0 1 6 0 1 0 1
0 -30 10 130 0 0 1 6 0 1 0 1
phys
0 -78 6 130 0 0 1 6 0 1 0 1
0 -30 10 130 0 0 1 6 0 1 0 1
0 -78 10 130 0 0 1 6 0 1 0 1
phys
0 -130 10 76 0 0 1 7 0 1 0 1
0 -130 10 74 0 0 1 7 0 1 0 1
0 -178 10 74 0 0 1 7 0 1 0 1
phys
0 -130 10 76 0 0 1 7 0 1 0 1
0 -178 10 74 0 0 1 7 0 1 0 1
0 -178 10 76 0 0 1 7 0 1 0 1
phys
0 -130 6 74 0 0 1 7 0 1 0 1
0 -130 6 76 0 0 1 7 0 1 0 1
0 -178 6 76 0 0 1 7 0 1 0 1
phys
0 -130 6 74 0 0 1 7 0 1 0 1
0 -178 6 76 0 0 1 7 0 1 0 1
0 -178 6 74 0 0 1 7 0 1 0 1
phys
0 -178 6 74 0 0 1 7 0 1 0 1
0 -178 6 76 0 0 1 7 0 1 0 1
0 -178 10 76 0 0 1 7 0 1 0 1
phys
0 -178 6 74 0 0 1 7 0 1 0 1
0 -178 10 76 0 0 1 7 0 1 0 1
0 -178 10 74 0 0 1 7 0 1 0 1
phys
0 -130 6 76 0 0 1 7 0 1 0 1
0 -130 6 74 0 0 1 7 0 1 0 1
0 -130 10 74 0 0 1 7 0 1 0 1
phys
0 -130 6 76 0 0 1 7 0 1 0 1
0 -130 10 74 0 0 1 7 0 1 0 1
0 -130 10 76 0 0 1 7 0 1 0 1
phys
0 -130 6 74 0 0 1 7 0 1 0 1
0 -178 6 74 0 0 1 7 0 1 0 1
0 -178 10 74 0 0 1 7 0 1 0 1
phys
0 -130 6 74 0 0 1 7 0 1 0 1
0 -178 10 74 0 0 1 7 0 1 0 1
0 -130 10 74 0 0 1 7 0 1 0 1
phys
0 -178 6 76 0 0 1 7 0 1 0 1
0 -130 6 76 0 0 1 7 0 1 0 1
0 -130 10 76 0 0 1 7 0 1 0 1
phys
0 -178 6 76 0 0 1 7 0 1 0 1
0 -130 10 76 0 0 1 7 0 1 0 1
0 -178 10 76 0 0 1 7 0 1 0 1
phys
0 -30 10 2 0 0 1 8 0 1 0 1
0 -30 10 0 0 0 1 8 0 1 0 1
0 -78 10 0 0 0 1 8 0 1 0 1
phys
0 -30 10 2 0 0 1 8 0 1 0 1
0 -78 10 0 0 0 1 8 0 1 0 1
0 -78 10 2 0 0 1 8 0 1 0 1
phys
0 -30 6 0 0 0 1 8 0 1 0 1
0 -30 6 2 0 0 1 8 0 1 0 1
0 -78 6 2 0 0 1 8 0 1 0 1
phys
0 -30 6 0 0 0 1 8 0 1 0 1
0 -78 6 2 0 0 1 8 0 1 0 1
0 -78 6 0 0 0 1 8 0 1 0 1
phys
0 -78 6 0 0 0 1 8 0 1 0 1
0 -78 6 2 0 0 1 8 0 1 0 1
0 -78 10 2 0 0 1 8 0 1 0 1
phys
0 -78 6 0 0 0 1 8 0 1 0 1
0 -78 10 2 0 0 1 8 0 1 0 1
0 -78 10 0 0 0 1 8 0 1 0 1
phys
0 -30 6 2 0 0 1 8 0 1 0 1
0 -30 6 0 0 0 1 8 0 1 0 1
0 -30 10 0 0 0 1 8 0 1 0 1
phys
0 -30 6 2 0 0 1 8 0 1 0 1
0 -30 10 0 0 0 1 8 0 1 0 1
0 -30 10 2 0 0 1 8 0 1 0 1
phys
0 -30 6 0 0 0 1 8 0 1 0 1
0 -78 6 0 0 0 1 8 0 1 0 1
0 -78 10 0 0 0 1 8 0 1 0 1
phys
0 -30 6 0 0 0 1 8 0 1 0 1
0 -78 10 0 0 0 1 8 0 1 0 1
0 -30 10 0 0 0 1 8 0 1 0 1
phys
0 -78 6 2 0 0 1 8 0 1 0 1
0 -30 6 2 0 0 1 8 0 1 0 1
0 -30 10 2 0 0 1 8 0 1 0 1
phys
0 -78 6 2 0 0 1 8 0 1 0 1
0 -30 10 2 0 0 1 8 0 1 0 1
0 -78 10 2 0 0 1 8 0 1 0 1
phys
0 -76 10 202 0 0 1 9 0 1 0 1
0 -76 10 130 0 0 1 9 0 1 0 1
0 -78 10 130 0 0 1 9 0 1 0 1
phys
0 -76 10 202 0 0 1 9 0 1 0 1
0 -78 10 130 0 0 1 9 0 1 0 1
0 -78 10 202 0 0 1 9 0 1 0 1
phys
0 -76 6 130 0 0 1 9 0 1 0 1
0 -76 6 202 0 0 1 9 0 1 0 1
0 -78 6 202 0 0 1 9 0 1 0 1
phys
0 -76 6 130 0 0 1 9 0 1 0 1
0 -78 6 202 0 0 1 9 0 1 0 1
0 -78 6 130 0 0 1 9 0 1 0 1
phys
0 -78 6 130 0 0 1 9 0 1 0 1
0 -78 6 202 0 0 1 9 0 1 0 1
0 -78 10 202 0 0 1 9 0 1 0 1
phys
0 -78 6 130 0 0 1 9 0 1 0 1
0 -78 10 202 0 0 1 9 0 1 0 1
0 -78 10 130 0 0 1 9 0 1 0 1
phys
0 -76 6 202 0 0 1 9 0 1 0 1
0 -76 6 130 0 0 1 9 0 1 0 1
0 -76 10 130 0 0 1 9 0 1 0 1
phys
0 -76 6 202 0 0 1 9 0 1 0 1
0 -76 10 130 0 0 1 9 0 1 0 1
0 -76 10 202 0 0 1 9 0 1 0 1
phys
0 -76 6 130 0 0 1 9 0 1 0 1
0 -78 6 130 0 0 1 9 0 1 0 1
0 -78 10 130 0 0 1 9 0 1 0 1
phys
0 -76 6 130 0 0 1 9 0 1 0 1
0 -78 10 130 0 0 1 9 0 1 0 1
0 -76 10 130 0 0 1 9 0 1 0 1
phys
0 -78 6 202 0 0 1 9 0 1 0 1
0 -76 6 202 0 0 1 9 0 1 0 1
0 -76 10 202 0 0 1 9 0 1 0 1
phys
0 -78 6 202 0 0 1 9 0 1 0 1
0 -76 10 202 0 0 1 9 0 1 0 1
0 -78 10 202 0 0 1 9 0 1 0 1
phys
0 -78 6 204 0 0 1 10 0 1 0 1
0 -78 10 204 0 0 1 10 0 1 0 1
0 -78 10 202 0 0 1 10 0 1 0 1
phys
0 -78 6 204 0 0 1 10 0 1 0 1
0 -78 10 202 0 0 1 10 0 1 0 1
0 -78 6 202 0 0 1 10 0 1 0 1
phys
0 -30 6 202 0 0 1 10 0 1 0 1
0 -30 10 202 0 0 1 10 0 1 0 1
0 -30 10 204 0 0 1 10 0 1 0 1
phys
0 -30 6 202 0 0 1 10 0 1 0 1
0 -30 10 204 0 0 1 10 0 1 0 1
0 -30 6 204 0 0 1 10 0 1 0 1
phys
0 -78 6 202 0 0 1 10 0 1 0 1
0 -78 10 202 0 0 1 10 0 1 0 1
0 -30 10 202 0 0 1 10 0 1 0 1
phys
0 -78 6 202 0 0 1 10 0 1 0 1
0 -30 10 202 0 0 1 10 0 1 0 1
0 -30 6 202 0 0 1 10 0 1 0 1
phys
0 -30 6 204 0 0 1 10 0 1 0 1
0 -30 10 204 0 0 1 10 0 1 0 1
0 -78 10 204 0 0 1 10 0 1 0 1
phys
0 -30 6 204 0 0 1 10 0 1 0 1
0 -78 10 204 0 0 1 10 0 1 0 1
0 -78 6 204 0 0 1 10 0 1 0 1
phys
0 -30 10 204 0 0 1 10 0 1 0 1
0 -30 10 202 0 0 1 10 0 1 0 1
0 -78 10 202 0 0 1 10 0 1 0 1
phys
0 -30 10 204 0 0 1 10 0 1 0 1
0 -78 10 202 0 0 1 10 0 1 0 1
0 -78 10 204 0 0 1 10 0 1 0 1
phys
0 -30 6 202 0 0 1 10 0 1 0 1
0 -30 6 204 0 0 1 10 0 1 0 1
0 -78 6 204 0 0 1 10 0 1 0 1
phys
0 -30 6 202 0 0 1 10 0 1 0 1
0 -78 6 204 0 0 1 10 0 1 0 1
0 -78 6 202 0 0 1 10 0 1 0 1
phys
0 12 6 232 0 0 1 11 0 1 0 1
0 12 6 200 0 0 1 11 0 1 0 1
0 -12 6 200 0 0 1 11 0 1 0 1
phys
0 12 6 232 0 0 1 11 0 1 0 1
0 -12 6 200 0 0 1 11 0 1 0 1
0 -12 6 232 0 0 1 11 0 1 0 1
phys
0 12 -10 200 0 0 1 11 0 1 0 1
0 12 -10 232 0 0 1 11 0 1 0 1
0 -12 -10 232 0 0 1 11 0 1 0 1
phys
0 12 -10 200 0 0 1 11 0 1 0 1
0 -12 -10 232 0 0 1 11 0 1 0 1
0 -12 -10 200 0 0 1 11 0 1 0 1
phys
0 -12 -10 200 0 0 1 11 0 1 0 1
0 -12 -10 232 0 0 1 11 0 1 0 1
0 -12 6 232 0 0 1 11 0 1 0 1
phys
0 -12 -10 200 0 0 1 11 0 1 0 1
0 -12 6 232 0 0 1 11 0 1 0 1
0 -12 6 200 0 0 1 11 0 1 0 1
phys
0 12 -10 232 0 0 1 11 0 1 0 1
0 12 -10 200 0 0 1 11 0 1 0 1
0 12 6 200 0 0 1 11 0 1 0 1
phys
0 12 -10 232 0 0 1 11 0 1 0 1
0 12 6 200 0 0 1 11 0 1 0 1
0 12 6 232 0 0 1 11 0 1 0 1
phys
0 12 -10 200 0 0 1 11 0 1 0 1
0 -12 -10 200 0 0 1 11 0 1 0 1
0 -12 6 200 0 0 1 11 0 1 0 1
phys
0 12 -10 200 0 0 1 11 0 1 0 1
0 -12 6 200 0 0 1 11 0 1 0 1
0 12 6 200 0 0 1 11 0 1 0 1
phys
0 -12 -10 232 0 0 1 11 0 1 0 1
0 12 -10 232 0 0 1 11 0 1 0 1
0 12 6 232 0 0 1 11 0 1 0 1
phys
0 -12 -10 232 0 0 1 11 0 1 0 1
0 12 6 232 0 0 1 11 0 1 0 1
0 -12 6 232 0 0 1 11 0 1 0 1
phys
0 -199 6 200 0 0 1 12 0 1 0 1
0 -199 6 192 0 0 1 12 0 1 0 1
0 -223 6 192 0 0 1 12 0 1 0 1
phys
0 -199 6 200 0 0 1 12 0 1 0 1
0 -223 6 192 0 0 1 12 0 1 0 1
0 -223 6 200 0 0 1 12 0 1 0 1
phys
0 -223 -10 200 0 0 1 12 0 1 0 1
0 -223 6 200 0 0 1 12 0 1 0 1
0 -223 6 192 0 0 1 12 0 1 0 1
phys
0 -199 6 192 0 0 1 12 0 1 0 1
0 -199 6 200 0 0 1 12 0 1 0 1
0 -199 -10 200 0 0 1 12 0 1 0 1
phys
0 -199 -10 200 0 0 1 12 0 1 0 1
0 -199 6 200 0 0 1 12 0 1 0 1
0 -223 6 200 0 0 1 12 0 1 0 1
phys
0 -199 -10 200 0 0 1 12 0 1 0 1
0 -223 6 200 0 0 1 12 0 1 0 1
0 -223 -10 200 0 0 1 12 0 1 0 1
phys
0 -223 -10 200 0 0 1 12 0 1 0 1
0 -223 6 192 0 0 1 12 0 1 0 1
0 -199 6 192 0 0 1 12 0 1 0 1
phys
0 -223 -10 200 0 0 1 12 0 1 0 1
0 -199 6 192 0 0 1 12 0 1 0 1
0 -199 -10 200 0 0 1 12 0 1 0 1
phys
0 -176 10 74 0 0 1 13 0 1 0 1
0 -176 10 2 0 0 1 13 0 1 0 1
0 -178 10 2 0 0 1 13 0 1 0 1
phys
0 -176 10 74 0 0 1 13 0 1 0 1
0 -178 10 2 0 0 1 13 0 1 0 1
0 -178 10 74 0 0 1 13 0 1 0 1
phys
0 -176 6 2 0 0 1 13 0 1 0 1
0 -176 6 74 0 0 1 13 0 1 0 1
0 -178 6 74 0 0 1 13 0 1 0 1
phys
0 -176 6 2 0 0 1 13 0 1 0 1
0 -178 6 74 0 0 1 13 0 1 0 1
0 -178 6 2 0 0 1 13 0 1 0 1
phys
0 -178 6 2 0 0 1 13 0 1 0 1
0 -178 6 74 0 0 1 13 0 1 0 1
0 -178 10 74 0 0 1 13 0 1 0 1
phys
0 -178 6 2 0 0 1 13 0 1 0 1
0 -178 10 74 0 0 1 13 0 1 0 1
0 -178 10 2 0 0 1 13 0 1 0 1
phys
0 -176 6 74 0 0 1 13 0 1 0 1
0 -176 6 2 0 0 1 13 0 1 0 1
0 -176 10 2 0 0 1 13 0 1 0 1
phys
0 -176 6 74 0 0 1 13 0 1 0 1
0 -176 10 2 0 0 1 13 0 1 0 1
0 -176 10 74 0 0 1 13 0 1 0 1
phys
0 -176 6 2 0 0 1 13 0 1 0 1
0 -178 6 2 0 0 1 13 0 1 0 1
0 -178 10 2 0 0 1 13 0 1 0 1
phys
0 -176 6 2 0 0 1 13 0 1 0 1
0 -178 10 2 0 0 1 13 0 1 0 1
0 -176 10 2 0 0 1 13 0 1 0 1
phys
0 -178 6 74 0 0 1 13 0 1 0 1
0 -176 6 74 0 0 1 13 0 1 0 1
0 -176 10 74 0 0 1 13 0 1 0 1
phys
0 -178 6 74 0 0 1 13 0 1 0 1
0 -176 10 74 0 0 1 13 0 1 0 1
0 -178 10 74 0 0 1 13 0 1 0 1
phys
0 -30 10 202 0 0 1 14 0 1 0 1
0 -30 10 130 0 0 1 14 0 1 0 1
0 -32 10 130 0 0 1 14 0 1 0 1
phys
0 -30 10 202 0 0 1 14 0 1 0 1
0 -32 10 130 0 0 1 14 0 1 0 1
0 -32 10 202 0 0 1 14 0 1 0 1
phys
0 -30 6 130 0 0 1 14 0 1 0 1
0 -30 6 202 0 0 1 14 0 1 0 1
0 -32 6 202 0 0 1 14 0 1 0 1
phys
0 -30 6 130 0 0 1 14 0 1 0 1
0 -32 6 202 0 0 1 14 0 1 0 1
0 -32 6 130 0 0 1 14 0 1 0 1
phys
0 -32 6 130 0 0 1 14 0 1 0 1
0 -32 6 202 0 0 1 14 0 1 0 1
0 -32 10 202 0 0 1 14 0 1 0 1
phys
0 -32 6 130 0 0 1 14 0 1 0 1
0 -32 10 202 0 0 1 14 0 1 0 1
0 -32 10 130 0 0 1 14 0 1 0 1
phys
0 -30 6 202 0 0 1 14 0 1 0 1
0 -30 6 130 0 0 1 14 0 1 0 1
0 -30 10 130 0 0 1 14 0 1 0 1
phys
0 -30 6 202 0 0 1 14 0 1 0 1
0 -30 10 130 0 0 1 14 0 1 0 1
0 -30 10 202 0 0 1 14 0 1 0 1
phys
0 -30 6 130 0 0 1 14 0 1 0 1
0 -32 6 130 0 0 1 14 0 1 0 1
0 -32 10 130 0 0 1 14 0 1 0 1
phys
0 -30 6 130 0 0 1 14 0 1 0 1
0 -32 10 130 0 0 1 14 0 1 0 1
0 -30 10 130 0 0 1 14 0 1 0 1
phys
0 -32 6 202 0 0 1 14 0 1 0 1
0 -30 6 202 0 0 1 14 0 1 0 1
0 -30 10 202 0 0 1 14 0 1 0 1
phys
0 -32 6 202 0 0 1 14 0 1 0 1
0 -30 10 202 0 0 1 14 0 1 0 1
0 -32 10 202 0 0 1 14 0 1 0 1
phys
0 -102 -10 224 0 0 1 15 0 1 0 1
0 -110 -10 224 0 0 1 15 0 1 0 1
0 -110 6 216 0 0 1 15 0 1 0 1
phys
0 -102 -10 224 0 0 1 15 0 1 0 1
0 -110 6 216 0 0 1 15 0 1 0 1
0 -102 6 216 0 0 1 15 0 1 0 1
phys
0 -102 6 232 0 0 1 15 0 1 0 1
0 -102 6 216 0 0 1 15 0 1 0 1
0 -110 6 216 0 0 1 15 0 1 0 1
phys
0 -102 6 232 0 0 1 15 0 1 0 1
0 -110 6 216 0 0 1 15 0 1 0 1
0 -110 6 232 0 0 1 15 0 1 0 1
phys
0 -110 -10 232 0 0 1 15 0 1 0 1
0 -110 -10 224 0 0 1 15 0 1 0 1
0 -102 -10 224 0 0 1 15 0 1 0 1
phys
0 -110 -10 232 0 0 1 15 0 1 0 1
0 -102 -10 224 0 0 1 15 0 1 0 1
0 -102 -10 232 0 0 1 15 0 1 0 1
phys
0 -110 6 232 0 0 1 15 0 1 0 1
0 -110 6 216 0 0 1 15 0 1 0 1
0 -110 -10 224 0 0 1 15 0 1 0 1
phys
0 -110 6 232 0 0 1 15 0 1 0 1
0 -110 -10 224 0 0 1 15 0 1 0 1
0 -110 -10 232 0 0 1 15 0 1 0 1
phys
0 -102 -10 232 0 0 1 15 0 1 0 1
0 -102 -10 224 0 0 1 15 0 1 0 1
0 -102 6 216 0 0 1 15 0 1 0 1
phys
0 -102 -10 232 0 0 1 15 0 1 0 1
0 -102 6 216 0 0 1 15 0 1 0 1
0 -102 6 232 0 0 1 15 0 1 0 1
phys
0 -110 -10 232 0 0 1 15 0 1 0 1
0 -102 -10 232 0 0 1 15 0 1 0 1
0 -102 6 232 0 0 1 15 0 1 0 1
phys
0 -110 -10 232 0 0 1 15 0 1 0 1
0 -102 6 232 0 0 1 15 0 1 0 1
0 -110 6 232 0 0 1 15 0 1 0 1
phys
0 -176 10 202 0 0 1 16 0 1 0 1
0 -176 10 130 0 0 1 16 0 1 0 1
0 -178 10 130 0 0 1 16 0 1 0 1
phys
0 -176 10 202 0 0 1 16 0 1 0 1
0 -178 10 130 0 0 1 16 0 1 0 1
0 -178 10 202 0 0 1 16 0 1 0 1
phys
0 -176 6 130 0 0 1 16 0 1 0 1
0 -176 6 202 0 0 1 16 0 1 0 1
0 -178 6 202 0 0 1 16 0 1 0 1
phys
0 -176 6 130 0 0 1 16 0 1 0 1
0 -178 6 202 0 0 1 16 0 1 0 1
0 -178 6 130 0 0 1 16 0 1 0 1
phys
0 -178 6 130 0 0 1 16 0 1 0 1
0 -178 6 202 0 0 1 16 0 1 0 1
0 -178 10 202 0 0 1 16 0 1 0 1
phys
0 -178 6 130 0 0 1 16 0 1 0 1
0 -178 10 202 0 0 1 16 0 1 0 1
0 -178 10 130 0 0 1 16 0 1 0 1
phys
0 -176 6 202 0 0 1 16 0 1 0 1
0 -176 6 130 0 0 1 16 0 1 0 1
0 -176 10 130 0 0 1 16 0 1 0 1
phys
0 -176 6 202 0 0 1 16 0 1 0 1
0 -176 10 130 0 0 1 16 0 1 0 1
0 -176 10 202 0 0 1 16 0 1 0 1
phys
0 -176 6 130 0 0 1 16 0 1 0 1
0 -178 6 130 0 0 1 16 0 1 0 1
0 -178 10 130 0 0 1 16 0 1 0 1
phys
0 -176 6 130 0 0 1 16 0 1 0 1
0 -178 10 130 0 0 1 16 0 1 0 1
0 -176 10 130 0 0 1 16 0 1 0 1
phys
0 -178 6 202 0 0 1 16 0 1 0 1
0 -176 6 202 0 0 1 16 0 1 0 1
0 -176 10 202 0 0 1 16 0 1 0 1
phys
0 -178 6 202 0 0 1 16 0 1 0 1
0 -176 10 202 0 0 1 16 0 1 0 1
0 -178 10 202 0 0 1 16 0 1 0 1
phys
0 -130 10 204 0 0 1 17 0 1 0 1
0 -130 10 202 0 0 1 17 0 1 0 1
0 -178 10 202 0 0 1 17 0 1 0 1
phys
0 -130 10 204 0 0 1 17 0 1 0 1
0 -178 10 202 0 0 1 17 0 1 0 1
0 -178 10 204 0 0 1 17 0 1 0 1
phys
0 -130 6 202 0 0 1 17 0 1 0 1
0 -130 6 204 0 0 1 17 0 1 0 1
0 -178 6 204 0 0 1 17 0 1 0 1
phys
0 -130 6 202 0 0 1 17 0 1 0 1
0 -178 6 204 0 0 1 17 0 1 0 1
0 -178 6 202 0 0 1 17 0 1 0 1
phys
0 -178 6 202 0 0 1 17 0 1 0 1
0 -178 6 204 0 0 1 17 0 1 0 1
0 -178 10 204 0 0 1 17 0 1 0 1
phys
0 -178 6 202 0 0 1 17 0 1 0 1
0 -178 10 204 0 0 1 17 0 1 0 1
0 -178 10 202 0 0 1 17 0 1 0 1
phys
0 -130 6 204 0 0 1 17 0 1 0 1
0 -130 6 202 0 0 1 17 0 1 0 1
0 -130 10 202 0 0 1 17 0 1 0 1
phys
0 -130 6 204 0 0 1 17 0 1 0 1
0 -130 10 202 0 0 1 17 0 1 0 1
0 -130 10 204 0 0 1 17 0 1 0 1
phys
0 -130 6 202 0 0 1 17 0 1 0 1
0 -178 6 202 0 0 1 17 0 1 0 1
0 -178 10 202 0 0 1 17 0 1 0 1
phys
0 -130 6 202 0 0 1 17 0 1 0 1
0 -178 10 202 0 0 1 17 0 1 0 1
0 -130 10 202 0 0 1 17 0 1 0 1
phys
0 -178 6 204 0 0 1 17 0 1 0 1
0 -130 6 204 0 0 1 17 0 1 0 1
0 -130 10 204 0 0 1 17 0 1 0 1
phys
0 -178 6 204 0 0 1 17 0 1 0 1
0 -130 10 204 0 0 1 17 0 1 0 1
0 -178 10 204 0 0 1 17 0 1 0 1
phys
0 -78 6 76 0 0 1 18 0 1 0 1
0 -30 6 76 0 0 1 18 0 1 0 1
0 -30 10 76 0 0 1 18 0 1 0 1
phys
0 -78 6 76 0 0 1 18 0 1 0 1
0 -30 10 76 0 0 1 18 0 1 0 1
0 -78 10 76 0 0 1 18 0 1 0 1
phys
0 -78 10 74 0 0 1 18 0 1 0 1
0 -78 10 76 0 0 1 18 0 1 0 1
0 -30 10 76 0 0 1 18 0 1 0 1
phys
0 -78 10 74 0 0 1 18 0 1 0 1
0 -30 10 76 0 0 1 18 0 1 0 1
0 -30 10 74 0 0 1 18 0 1 0 1
phys
0 -30 6 74 0 0 1 18 0 1 0 1
0 -30 6 76 0 0 1 18 0 1 0 1
0 -78 6 76 0 0 1 18 0 1 0 1
phys
0 -30 6 74 0 0 1 18 0 1 0 1
0 -78 6 76 0 0 1 18 0 1 0 1
0 -78 6 74 0 0 1 18 0 1 0 1
phys
0 -78 6 74 0 0 1 18 0 1 0 1
0 -78 6 76 0 0 1 18 0 1 0 1
0 -78 10 76 0 0 1 18 0 1 0 1
phys
0 -78 6 74 0 0 1 18 0 1 0 1
0 -78 10 76 0 0 1 18 0 1 0 1
0 -78 10 74 0 0 1 18 0 1 0 1
phys
0 -30 10 74 0 0 1 18 0 1 0 1
0 -30 10 76 0 0 1 18 0 1 0 1
0 -30 6 76 0 0 1 18 0 1 0 1
phys
0 -30 10 74 0 0 1 18 0 1 0 1
0 -30 6 76 0 0 1 18 0 1 0 1
0 -30 6 74 0 0 1 18 0 1 0 1
phys
0 -30 6 74 0 0 1 18 0 1 0 1
0 -78 6 74 0 0 1 18 0 1 0 1
0 -78 10 74 0 0 1 18 0 1 0 1
phys
0 -30 6 74 0 0 1 18 0 1 0 1
0 -78 10 74 0 0 1 18 0 1 0 1
0 -30 10 74 0 0 1 18 0 1 0 1
phys
0 -32 8 74 0 0 1 19 0 1 0 1
0 -32 8 2 0 0 1 19 0 1 0 1
0 -76 8 2 0 0 1 19 0 1 0 1
phys
0 -32 8 74 0 0 1 19 0 1 0 1
0 -76 8 2 0 0 1 19 0 1 0 1
0 -76 8 74 0 0 1 19 0 1 0 1
phys
0 -32 7 2 0 0 1 19 0 1 0 1
0 -32 7 74 0 0 1 19 0 1 0 1
0 -76 7 74 0 0 1 19 0 1 0 1
phys
0 -32 7 2 0 0 1 19 0 1 0 1
0 -76 7 74 0 0 1 19 0 1 0 1
0 -76 7 2 0 0 1 19 0 1 0 1
phys
0 -76 7 2 0 0 1 19 0 1 0 1
0 -76 7 74 0 0 1 19 0 1 0 1
0 -76 8 74 0 0 1 19 0 1 0 1
phys
0 -76 7 2 0 0 1 19 0 1 0 1
0 -76 8 74 0 0 1 19 0 1 0 1
0 -76 8 2 0 0 1 19 0 1 0 1
phys
0 -32 7 74 0 0 1 19 0 1 0 1
0 -32 7 2 0 0 1 19 0 1 0 1
0 -32 8 2 0 0 1 19 0 1 0 1
phys
0 -32 7 74 0 0 1 19 0 1 0 1
0 -32 8 2 0 0 1 19 0 1 0 1
0 -32 8 74 0 0 1 19 0 1 0 1
phys
0 -32 7 2 0 0 1 19 0 1 0 1
0 -76 7 2 0 0 1 19 0 1 0 1
0 -76 8 2 0 0 1 19 0 1 0 1
phys
0 -32 7 2 0 0 1 19 0 1 0 1
0 -76 8 2 0 0 1 19 0 1 0 1
0 -32 8 2 0 0 1 19 0 1 0 1
phys
0 -76 7 74 0 0 1 19 0 1 0 1
0 -32 7 74 0 0 1 19 0 1 0 1
0 -32 8 74 0 0 1 19 0 1 0 1
phys
0 -76 7 74 0 0 1 19 0 1 0 1
0 -32 8 74 0 0 1 19 0 1 0 1
0 -76 8 74 0 0 1 19 0 1 0 1
phys
0 -130 10 74 0 0 1 20 0 1 0 1
0 -130 10 2 0 0 1 20 0 1 0 1
0 -132 10 2 0 0 1 20 0 1 0 1
phys
0 -130 10 74 0 0 1 20 0 1 0 1
0 -132 10 2 0 0 1 20 0 1 0 1
0 -132 10 74 0 0 1 20 0 1 0 1
phys
0 -130 6 2 0 0 1 20 0 1 0 1
0 -130 6 74 0 0 1 20 0 1 0 1
0 -132 6 74 0 0 1 20 0 1 0 1
phys
0 -130 6 2 0 0 1 20 0 1 0 1
0 -132 6 74 0 0 1 20 0 1 0 1
0 -132 6 2 0 0 1 20 0 1 0 1
phys
0 -132 6 2 0 0 1 20 0 1 0 1
0 -132 6 74 0 0 1 20 0 1 0 1
0 -132 10 74 0 0 1 20 0 1 0 1
phys
0 -132 6 2 0 0 1 20 0 1 0 1
0 -132 10 74 0 0 1 20 0 1 0 1
0 -132 10 2 0 0 1 20 0 1 0 1
phys
0 -130 6 74 0 0 1 20 0 1 0 1
0 -130 6 2 0 0 1 20 0 1 0 1
0 -130 10 2 0 0 1 20 0 1 0 1
phys
0 -130 6 74 0 0 1 20 0 1 0 1
0 -130 10 2 0 0 1 20 0 1 0 1
0 -130 10 74 0 0 1 20 0 1 0 1
phys
0 -130 6 2 0 0 1 20 0 1 0 1
0 -132 6 2 0 0 1 20 0 1 0 1
0 -132 10 2 0 0 1 20 0 1 0 1
phys
0 -130 6 2 0 0 1 20 0 1 0 1
0 -132 10 2 0 0 1 20 0 1 0 1
0 -130 10 2 0 0 1 20 0 1 0 1
phys
0 -132 6 74 0 0 1 20 0 1 0 1
0 -130 6 74 0 0 1 20 0 1 0 1
0 -130 10 74 0 0 1 20 0 1 0 1
phys
0 -132 6 74 0 0 1 20 0 1 0 1
0 -130 10 74 0 0 1 20 0 1 0 1
0 -132 10 74 0 0 1 20 0 1 0 1
phys
0 12 6 200 0 0 1 21 0 1 0 1
0 12 6 192 0 0 1 21 0 1 0 1
0 -12 6 192 0 0 1 21 0 1 0 1
phys
0 12 6 200 0 0 1 21 0 1 0 1
0 -12 6 192 0 0 1 21 0 1 0 1
0 -12 6 200 0 0 1 21 0 1 0 1
phys
0 -12 -10 200 0 0 1 21 0 1 0 1
0 -12 6 200 0 0 1 21 0 1 0 1
0 -12 6 192 0 0 1 21 0 1 0 1
phys
0 12 6 192 0 0 1 21 0 1 0 1
0 12 6 200 0 0 1 21 0 1 0 1
0 12 -10 200 0 0 1 21 0 1 0 1
phys
0 12 -10 200 0 0 1 21 0 1 0 1
0 12 6 200 0 0 1 21 0 1 0 1
0 -12 6 200 0 0 1 21 0 1 0 1
phys
0 12 -10 200 0 0 1 21 0 1 0 1
0 -12 6 200 0 0 1 21 0 1 0 1
0 -12 -10 200 0 0 1 21 0 1 0 1
phys
0 -12 -10 200 0 0 1 21 0 1 0 1
0 -12 6 192 0 0 1 21 0 1 0 1
0 12 6 192 0 0 1 21 0 1 0 1
phys
0 -12 -10 200 0 0 1 21 0 1 0 1
0 12 6 192 0 0 1 21 0 1 0 1
0 12 -10 200 0 0 1 21 0 1 0 1
phys
0 -32 8 202 0 0 1 22 0 1 0 1
0 -32 8 130 0 0 1 22 0 1 0 1
0 -76 8 130 0 0 1 22 0 1 0 1
phys
0 -32 8 202 0 0 1 22 0 1 0 1
0 -76 8 130 0 0 1 22 0 1 0 1
0 -76 8 202 0 0 1 22 0 1 0 1
phys
0 -32 7 130 0 0 1 22 0 1 0 1
0 -32 7 202 0 0 1 22 0 1 0 1
0 -76 7 202 0 0 1 22 0 1 0 1
phys
0 -32 7 130 0 0 1 22 0 1 0 1
0 -76 7 202 0 0 1 22 0 1 0 1
0 -76 7 130 0 0 1 22 0 1 0 1
phys
0 -76 7 130 0 0 1 22 0 1 0 1
0 -76 7 202 0 0 1 22 0 1 0 1
0 -76 8 202 0 0 1 22 0 1 0 1
phys
0 -76 7 130 0 0 1 22 0 1 0 1
0 -76 8 202 0 0 1 22 0 1 0 1
0 -76 8 130 0 0 1 22 0 1 0 1
phys
0 -32 7 202 0 0 1 22 0 1 0 1
0 -32 7 130 0 0 1 22 0 1 0 1
0 -32 8 130 0 0 1 22 0 1 0 1
phys
0 -32 7 202 0 0 1 22 0 1 0 1
0 -32 8 130 0 0 1 22 0 1 0 1
0 -32 8 202 0 0 1 22 0 1 0 1
phys
0 -32 7 130 0 0 1 22 0 1 0 1
0 -76 7 130 0 0 1 22 0 1 0 1
0 -76 8 130 0 0 1 22 0 1 0 1
phys
0 -32 7 130 0 0 1 22 0 1 0 1
0 -76 8 130 0 0 1 22 0 1 0 1
0 -32 8 130 0 0 1 22 0 1 0 1
phys
0 -76 7 202 0 0 1 22 0 1 0 1
0 -32 7 202 0 0 1 22 0 1 0 1
0 -32 8 202 0 0 1 22 0 1 0 1
phys
0 -76 7 202 0 0 1 22 0 1 0 1
0 -32 8 202 0 0 1 22 0 1 0 1
0 -76 8 202 0 0 1 22 0 1 0 1
phys
0 -178 6 130 0 0 1 23 0 1 0 1
0 -178 10 130 0 0 1 23 0 1 0 1
0 -178 10 128 0 0 1 23 0 1 0 1
phys
0 -178 6 130 0 0 1 23 0 1 0 1
0 -178 10 128 0 0 1 23 0 1 0 1
0 -178 6 128 0 0 1 23 0 1 0 1
phys
0 -130 6 128 0 0 1 23 0 1 0 1
0 -130 10 128 0 0 1 23 0 1 0 1
0 -130 10 130 0 0 1 23 0 1 0 1
phys
0 -130 6 128 0 0 1 23 0 1 0 1
0 -130 10 130 0 0 1 23 0 1 0 1
0 -130 6 130 0 0 1 23 0 1 0 1
phys
0 -178 6 128 0 0 1 23 0 1 0 1
0 -178 10 128 0 0 1 23 0 1 0 1
0 -130 10 128 0 0 1 23 0 1 0 1
phys
0 -178 6 128 0 0 1 23 0 1 0 1
0 -130 10 128 0 0 1 23 0 1 0 1
0 -130 6 128 0 0 1 23 0 1 0 1
phys
0 -130 6 130 0 0 1 23 0 1 0 1
0 -130 10 130 0 0 1 23 0 1 0 1
0 -178 10 130 0 0 1 23 0 1 0 1
phys
0 -130 6 130 0 0 1 23 0 1 0 1
0 -178 10 130 0 0 1 23 0 1 0 1
0 -178 6 130 0 0 1 23 0 1 0 1
phys
0 -130 10 130 0 0 1 23 0 1 0 1
0 -130 10 128 0 0 1 23 0 1 0 1
0 -178 10 128 0 0 1 23 0 1 0 1
phys
0 -130 10 130 0 0 1 23 0 1 0 1
0 -178 10 128 0 0 1 23 0 1 0 1
0 -178 10 130 0 0 1 23 0 1 0 1
phys
0 -130 6 128 0 0 1 23 0 1 0 1
0 -130 6 130 0 0 1 23 0 1 0 1
0 -178 6 130 0 0 1 23 0 1 0 1
phys
0 -130 6 128 0 0 1 23 0 1 0 1
0 -178 6 130 0 0 1 23 0 1 0 1
0 -178 6 128 0 0 1 23 0 1 0 1
phys
0 -30 10 74 0 0 1 24 0 1 0 1
0 -30 10 2 0 0 1 24 0 1 0 1
0 -32 10 2 0 0 1 24 0 1 0 1
phys
0 -30 10 74 0 0 1 24 0 1 0 1
0 -32 10 2 0 0 1 24 0 1 0 1
0 -32 10 74 0 0 1 24 0 1 0 1
phys
0 -30 6 2 0 0 1 24 0 1 0 1
0 -30 6 74 0 0 1 24 0 1 0 1
0 -32 6 74 0 0 1 24 0 1 0 1
phys
0 -30 6 2 0 0 1 24 0 1 0 1
0 -32 6 74 0 0 1 24 0 1 0 1
0 -32 6 2 0 0 1 24 0 1 0 1
phys
0 -32 6 2 0 0 1 24 0 1 0 1
0 -32 6 74 0 0 1 24 0 1 0 1
0 -32 10 74 0 0 1 24 0 1 0 1
phys
0 -32 6 2 0 0 1 24 0 1 0 1
0 -32 10 74 0 0 1 24 0 1 0 1
0 -32 10 2 0 0 1 24 0 1 0 1
phys
0 -30 6 74 0 0 1 24 0 1 0 1
0 -30 6 2 0 0 1 24 0 1 0 1
0 -30 10 2 0 0 1 24 0 1 0 1
phys
0 -30 6 74 0 0 1 24 0 1 0 1
0 -30 10 2 0 0 1 24 0 1 0 1
0 -30 10 74 0 0 1 24 0 1 0 1
phys
0 -30 6 2 0 0 1 24 0 1 0 1
0 -32 6 2 0 0 1 24 0 1 0 1
0 -32 10 2 0 0 1 24 0 1 0 1
phys
0 -30 6 2 0 0 1 24 0 1 0 1
0 -32 10 2 0 0 1 24 0 1 0 1
0 -30 10 2 0 0 1 24 0 1 0 1
phys
0 -32 6 74 0 0 1 24 0 1 0 1
0 -30 6 74 0 0 1 24 0 1 0 1
0 -30 10 74 0 0 1 24 0 1 0 1
phys
0 -32 6 74 0 0 1 24 0 1 0 1
0 -30 10 74 0 0 1 24 0 1 0 1
0 -32 10 74 0 0 1 24 0 1 0 1
end
