version 1
nodes
0 "root" -1
end
skeleton
time 0
0 0 0 0 0 0 0
end
triangles
phys
0 170 228 96 0 0 1 1 0 1 0 1
0 170 242 96 0 0 1 1 0 1 0 1
0 170 242 32 0 0 1 1 0 1 0 1
phys
0 170 228 96 0 0 1 1 0 1 0 1
0 170 242 32 0 0 1 1 0 1 0 1
0 170 228 32 0 0 1 1 0 1 0 1
phys
0 234 228 32 0 0 1 1 0 1 0 1
0 234 242 32 0 0 1 1 0 1 0 1
0 234 242 96 0 0 1 1 0 1 0 1
phys
0 234 228 32 0 0 1 1 0 1 0 1
0 234 242 96 0 0 1 1 0 1 0 1
0 234 228 96 0 0 1 1 0 1 0 1
phys
0 170 228 32 0 0 1 1 0 1 0 1
0 170 242 32 0 0 1 1 0 1 0 1
0 234 242 32 0 0 1 1 0 1 0 1
phys
0 170 228 32 0 0 1 1 0 1 0 1
0 234 242 32 0 0 1 1 0 1 0 1
0 234 228 32 0 0 1 1 0 1 0 1
phys
0 234 228 96 0 0 1 1 0 1 0 1
0 234 242 96 0 0 1 1 0 1 0 1
0 170 242 96 0 0 1 1 0 1 0 1
phys
0 234 228 96 0 0 1 1 0 1 0 1
0 170 242 96 0 0 1 1 0 1 0 1
0 170 228 96 0 0 1 1 0 1 0 1
phys
0 234 242 96 0 0 1 1 0 1 0 1
0 234 242 32 0 0 1 1 0 1 0 1
0 170 242 32 0 0 1 1 0 1 0 1
phys
0 234 242 96 0 0 1 1 0 1 0 1
0 170 242 32 0 0 1 1 0 1 0 1
0 170 242 96 0 0 1 1 0 1 0 1
phys
0 234 228 32 0 0 1 1 0 1 0 1
0 234 228 96 0 0 1 1 0 1 0 1
0 170 228 96 0 0 1 1 0 1 0 1
phys
0 234 228 32 0 0 1 1 0 1 0 1
0 170 228 96 0 0 1 1 0 1 0 1
0 170 228 32 0 0 1 1 0 1 0 1
phys
0 -157 92 139.998 0 0 1 2 0 1 0 1
0 -157 92 32 0 0 1 2 0 1 0 1
0 -160 92 32 0 0 1 2 0 1 0 1
phys
0 -157 92 139.998 0 0 1 2 0 1 0 1
0 -160 92 32 0 0 1 2 0 1 0 1
0 -160 92 142.998 0 0 1 2 0 1 0 1
phys
0 -157 84 32 0 0 1 2 0 1 0 1
0 -157 84 139.998 0 0 1 2 0 1 0 1
0 -160 84 142.998 0 0 1 2 0 1 0 1
phys
0 -157 84 32 0 0 1 2 0 1 0 1
0 -160 84 142.998 0 0 1 2 0 1 0 1
0 -160 84 32 0 0 1 2 0 1 0 1
phys
0 -160 84 32 0 0 1 2 0 1 0 1
0 -160 84 142.998 0 0 1 2 0 1 0 1
0 -160 92 142.998 0 0 1 2 0 1 0 1
phys
0 -160 84 32 0 0 1 2 0 1 0 1
0 -160 92 142.998 0 0 1 2 0 1 0 1
0 -160 92 32 0 0 1 2 0 1 0 1
phys
0 -157 84 139.998 0 0 1 2 0 1 0 1
0 -157 84 32 0 0 1 2 0 1 0 1
0 -157 92 32 0 0 1 2 0 1 0 1
phys
0 -157 84 139.998 0 0 1 2 0 1 0 1
0 -157 92 32 0 0 1 2 0 1 0 1
0 -157 92 139.998 0 0 1 2 0 1 0 1
phys
0 -157 84 32 0 0 1 2 0 1 0 1
0 -160 84 32 0 0 1 2 0 1 0 1
0 -160 92 32 0 0 1 2 0 1 0 1
phys
0 -157 84 32 0 0 1 2 0 1 0 1
0 -160 92 32 0 0 1 2 0 1 0 1
0 -157 92 32 0 0 1 2 0 1 0 1
phys
0 -160 84 142.998 0 0 1 2 0 1 0 1
0 -157 84 139.998 0 0 1 2 0 1 0 1
0 -157 92 139.998 0 0 1 2 0 1 0 1
phys
0 -160 84 142.998 0 0 1 2 0 1 0 1
0 -157 92 139.998 0 0 1 2 0 1 0 1
0 -160 92 142.998 0 0 1 2 0 1 0 1
phys
0 -61 84 140.002 0 0 1 3 0 1 0 1
0 -58 84 143.002 0 0 1 3 0 1 0 1
0 -58 92 143.002 0 0 1 3 0 1 0 1
phys
0 -61 84 140.002 0 0 1 3 0 1 0 1
0 -58 92 143.002 0 0 1 3 0 1 0 1
0 -61 92 140.002 0 0 1 3 0 1 0 1
phys
0 -61 92 32 0 0 1 3 0 1 0 1
0 -61 92 140.002 0 0 1 3 0 1 0 1
0 -58 92 143.002 0 0 1 3 0 1 0 1
phys
0 -61 92 32 0 0 1 3 0 1 0 1
0 -58 92 143.002 0 0 1 3 0 1 0 1
0 -58 92 32 0 0 1 3 0 1 0 1
phys
0 -58 84 32 0 0 1 3 0 1 0 1
0 -58 84 143.002 0 0 1 3 0 1 0 1
0 -61 84 140.002 0 0 1 3 0 1 0 1
phys
0 -58 84 32 0 0 1 3 0 1 0 1
0 -61 84 140.002 0 0 1 3 0 1 0 1
0 -61 84 32 0 0 1 3 0 1 0 1
phys
0 -61 84 32 0 0 1 3 0 1 0 1
0 -61 84 140.002 0 0 1 3 0 1 0 1
0 -61 92 140.002 0 0 1 3 0 1 0 1
phys
0 -61 84 32 0 0 1 3 0 1 0 1
0 -61 92 140.002 0 0 1 3 0 1 0 1
0 -61 92 32 0 0 1 3 0 1 0 1
phys
0 -58 92 32 0 0 1 3 0 1 0 1
0 -58 92 143.002 0 0 1 3 0 1 0 1
0 -58 84 143.002 0 0 1 3 0 1 0 1
phys
0 -58 92 32 0 0 1 3 0 1 0 1
0 -58 84 143.002 0 0 1 3 0 1 0 1
0 -58 84 32 0 0 1 3 0 1 0 1
phys
0 -58 84 32 0 0 1 3 0 1 0 1
0 -61 84 32 0 0 1 3 0 1 0 1
0 -61 92 32 0 0 1 3 0 1 0 1
phys
0 -58 84 32 0 0 1 3 0 1 0 1
0 -61 92 32 0 0 1 3 0 1 0 1
0 -58 92 32 0 0 1 3 0 1 0 1
phys
0 -58 84 143 0 0 1 4 0 1 0 1
0 -58 92 143 0 0 1 4 0 1 0 1
0 -160 92 143 0 0 1 4 0 1 0 1
phys
0 -58 84 143 0 0 1 4 0 1 0 1
0 -160 92 143 0 0 1 4 0 1 0 1
0 -160 84 143 0 0 1 4 0 1 0 1
phys
0 -160 84 143 0 0 1 4 0 1 0 1
0 -160 92 143 0 0 1 4 0 1 0 1
0 -157 92 140 0 0 1 4 0 1 0 1
phys
0 -160 84 143 0 0 1 4 0 1 0 1
0 -157 92 140 0 0 1 4 0 1 0 1
0 -157 84 140 0 0 1 4 0 1 0 1
phys
0 -61 92 140 0 0 1 4 0 1 0 1
0 -58 92 143 0 0 1 4 0 1 0 1
0 -58 84 143 0 0 1 4 0 1 0 1
phys
0 -61 92 140 0 0 1 4 0 1 0 1
0 -58 84 143 0 0 1 4 0 1 0 1
0 -61 84 140 0 0 1 4 0 1 0 1
phys
0 -157 92 140 0 0 1 4 0 1 0 1
0 -160 92 143 0 0 1 4 0 1 0 1
0 -58 92 143 0 0 1 4 0 1 0 1
phys
0 -157 92 140 0 0 1 4 0 1 0 1
0 -58 92 143 0 0 1 4 0 1 0 1
0 -61 92 140 0 0 1 4 0 1 0 1
phys
0 -58 84 143 0 0 1 4 0 1 0 1
0 -160 84 143 0 0 1 4 0 1 0 1
0 -157 84 140 0 0 1 4 0 1 0 1
phys
0 -58 84 143 0 0 1 4 0 1 0 1
0 -157 84 140 0 0 1 4 0 1 0 1
0 -61 84 140 0 0 1 4 0 1 0 1
phys
0 -157 84 140 0 0 1 4 0 1 0 1
0 -157 92 140 0 0 1 4 0 1 0 1
0 -61 92 140 0 0 1 4 0 1 0 1
phys
0 -157 84 140 0 0 1 4 0 1 0 1
0 -61 92 140 0 0 1 4 0 1 0 1
0 -61 84 140 0 0 1 4 0 1 0 1
phys
0 234 228 96 0 0 1 5 0 1 0 1
0 234 228 32 0 0 1 5 0 1 0 1
0 218 228 32 0 0 1 5 0 1 0 1
phys
0 234 228 96 0 0 1 5 0 1 0 1
0 218 228 32 0 0 1 5 0 1 0 1
0 218 228 96 0 0 1 5 0 1 0 1
phys
0 234 106 32 0 0 1 5 0 1 0 1
0 234 106 96 0 0 1 5 0 1 0 1
0 218 106 96 0 0 1 5 0 1 0 1
phys
0 234 106 32 0 0 1 5 0 1 0 1
0 218 106 96 0 0 1 5 0 1 0 1
0 218 106 32 0 0 1 5 0 1 0 1
phys
0 218 106 32 0 0 1 5 0 1 0 1
0 218 106 96 0 0 1 5 0 1 0 1
0 218 228 96 0 0 1 5 0 1 0 1
phys
0 218 106 32 0 0 1 5 0 1 0 1
0 218 228 96 0 0 1 5 0 1 0 1
0 218 228 32 0 0 1 5 0 1 0 1
phys
0 234 106 96 0 0 1 5 0 1 0 1
0 234 106 32 0 0 1 5 0 1 0 1
0 234 228 32 0 0 1 5 0 1 0 1
phys
0 234 106 96 0 0 1 5 0 1 0 1
0 234 228 32 0 0 1 5 0 1 0 1
0 234 228 96 0 0 1 5 0 1 0 1
phys
0 234 106 32 0 0 1 5 0 1 0 1
0 218 106 32 0 0 1 5 0 1 0 1
0 218 228 32 0 0 1 5 0 1 0 1
phys
0 234 106 32 0 0 1 5 0 1 0 1
0 218 228 32 0 0 1 5 0 1 0 1
0 234 228 32 0 0 1 5 0 1 0 1
phys
0 218 106 96 0 0 1 5 0 1 0 1
0 234 106 96 0 0 1 5 0 1 0 1
0 234 228 96 0 0 1 5 0 1 0 1
phys
0 218 106 96 0 0 1 5 0 1 0 1
0 234 228 96 0 0 1 5 0 1 0 1
0 218 228 96 0 0 1 5 0 1 0 1
phys
0 170 238 96 0 0 1 6 0 1 0 1
0 170 238 96 0 0 1 6 0 1 0 1
0 234 238 96 0 0 1 6 0 1 0 1
phys
0 170 238 96 0 0 1 6 0 1 0 1
0 234 238 96 0 0 1 6 0 1 0 1
0 234 238 133 0 0 1 6 0 1 0 1
phys
0 170 232 96 0 0 1 6 0 1 0 1
0 170 232 96 0 0 1 6 0 1 0 1
0 234 232 133 0 0 1 6 0 1 0 1
phys
0 170 232 96 0 0 1 6 0 1 0 1
0 234 232 133 0 0 1 6 0 1 0 1
0 234 232 96 0 0 1 6 0 1 0 1
phys
0 170 238 96 0 0 1 6 0 1 0 1
0 170 238 96 0 0 1 6 0 1 0 1
0 170 236 98 0 0 1 6 0 1 0 1
phys
0 170 238 96 0 0 1 6 0 1 0 1
0 170 236 98 0 0 1 6 0 1 0 1
0 170 234 98 0 0 1 6 0 1 0 1
phys
0 170 238 96 0 0 1 6 0 1 0 1
0 170 234 98 0 0 1 6 0 1 0 1
0 170 232 96 0 0 1 6 0 1 0 1
phys
0 170 238 96 0 0 1 6 0 1 0 1
0 170 232 96 0 0 1 6 0 1 0 1
0 170 232 96 0 0 1 6 0 1 0 1
phys
0 234 232 133 0 0 1 6 0 1 0 1
0 234 232 96 0 0 1 6 0 1 0 1
0 234 238 96 0 0 1 6 0 1 0 1
phys
0 234 232 133 0 0 1 6 0 1 0 1
0 234 238 96 0 0 1 6 0 1 0 1
0 234 238 133 0 0 1 6 0 1 0 1
phys
0 234 232 133 0 0 1 6 0 1 0 1
0 234 238 133 0 0 1 6 0 1 0 1
0 234 236 135 0 0 1 6 0 1 0 1
phys
0 234 232 133 0 0 1 6 0 1 0 1
0 234 236 135 0 0 1 6 0 1 0 1
0 234 234 135 0 0 1 6 0 1 0 1
phys
0 234 232 96 0 0 1 6 0 1 0 1
0 170 232 96 0 0 1 6 0 1 0 1
0 170 238 96 0 0 1 6 0 1 0 1
phys
0 234 232 96 0 0 1 6 0 1 0 1
0 170 238 96 0 0 1 6 0 1 0 1
0 234 238 96 0 0 1 6 0 1 0 1
phys
0 234 236 135 0 0 1 6 0 1 0 1
0 234 238 133 0 0 1 6 0 1 0 1
0 170 238 96 0 0 1 6 0 1 0 1
phys
0 234 236 135 0 0 1 6 0 1 0 1
0 170 238 96 0 0 1 6 0 1 0 1
0 170 236 98 0 0 1 6 0 1 0 1
phys
0 170 232 96 0 0 1 6 0 1 0 1
0 234 232 133 0 0 1 6 0 1 0 1
0 234 234 135 0 0 1 6 0 1 0 1
phys
0 170 232 96 0 0 1 6 0 1 0 1
0 234 234 135 0 0 1 6 0 1 0 1
0 170 234 98 0 0 1 6 0 1 0 1
phys
0 234 234 135 0 0 1 6 0 1 0 1
0 234 236 135 0 0 1 6 0 1 0 1
0 170 236 98 0 0 1 6 0 1 0 1
phys
0 234 234 135 0 0 1 6 0 1 0 1
0 170 236 98 0 0 1 6 0 1 0 1
0 170 234 98 0 0 1 6 0 1 0 1
phys
0 -1 60 32 0 0 1 7 0 1 0 1
0 -1 60 0 0 0 1 7 0 1 0 1
0 -5 60 0 0 0 1 7 0 1 0 1
phys
0 -1 60 32 0 0 1 7 0 1 0 1
0 -5 60 0 0 0 1 7 0 1 0 1
0 -5 60 32 0 0 1 7 0 1 0 1
phys
0 -1 -194 0 0 0 1 7 0 1 0 1
0 -1 -194 32 0 0 1 7 0 1 0 1
0 -5 -194 32 0 0 1 7 0 1 0 1
phys
0 -1 -194 0 0 0 1 7 0 1 0 1
0 -5 -194 32 0 0 1 7 0 1 0 1
0 -5 -194 0 0 0 1 7 0 1 0 1
phys
0 -5 -194 0 0 0 1 7 0 1 0 1
0 -5 -194 32 0 0 1 7 0 1 0 1
0 -5 60 32 0 0 1 7 0 1 0 1
phys
0 -5 -194 0 0 0 1 7 0 1 0 1
0 -5 60 32 0 0 1 7 0 1 0 1
0 -5 60 0 0 0 1 7 0 1 0 1
phys
0 -1 -194 32 0 0 1 7 0 1 0 1
0 -1 -194 0 0 0 1 7 0 1 0 1
0 -1 60 0 0 0 1 7 0 1 0 1
phys
0 -1 -194 32 0 0 1 7 0 1 0 1
0 -1 60 0 0 0 1 7 0 1 0 1
0 -1 60 32 0 0 1 7 0 1 0 1
phys
0 -1 -194 0 0 0 1 7 0 1 0 1
0 -5 -194 0 0 0 1 7 0 1 0 1
0 -5 60 0 0 0 1 7 0 1 0 1
phys
0 -1 -194 0 0 0 1 7 0 1 0 1
0 -5 60 0 0 0 1 7 0 1 0 1
0 -1 60 0 0 0 1 7 0 1 0 1
phys
0 -5 -194 32 0 0 1 7 0 1 0 1
0 -1 -194 32 0 0 1 7 0 1 0 1
0 -1 60 32 0 0 1 7 0 1 0 1
phys
0 -5 -194 32 0 0 1 7 0 1 0 1
0 -1 60 32 0 0 1 7 0 1 0 1
0 -5 60 32 0 0 1 7 0 1 0 1
phys
0 24 -194 24 0 0 1 8 0 1 0 1
0 24 -194 0 0 0 1 8 0 1 0 1
0 -235 -194 0 0 0 1 8 0 1 0 1
phys
0 24 -194 24 0 0 1 8 0 1 0 1
0 -235 -194 0 0 0 1 8 0 1 0 1
0 -235 -194 24 0 0 1 8 0 1 0 1
phys
0 24 -210 0 0 0 1 8 0 1 0 1
0 24 -210 24 0 0 1 8 0 1 0 1
0 -235 -210 24 0 0 1 8 0 1 0 1
phys
0 24 -210 0 0 0 1 8 0 1 0 1
0 -235 -210 24 0 0 1 8 0 1 0 1
0 -235 -210 0 0 0 1 8 0 1 0 1
phys
0 -235 -210 0 0 0 1 8 0 1 0 1
0 -235 -210 24 0 0 1 8 0 1 0 1
0 -235 -194 24 0 0 1 8 0 1 0 1
phys
0 -235 -210 0 0 0 1 8 0 1 0 1
0 -235 -194 24 0 0 1 8 0 1 0 1
0 -235 -194 0 0 0 1 8 0 1 0 1
phys
0 24 -210 24 0 0 1 8 0 1 0 1
0 24 -210 0 0 0 1 8 0 1 0 1
0 24 -194 0 0 0 1 8 0 1 0 1
phys
0 24 -210 24 0 0 1 8 0 1 0 1
0 24 -194 0 0 0 1 8 0 1 0 1
0 24 -194 24 0 0 1 8 0 1 0 1
phys
0 24 -210 0 0 0 1 8 0 1 0 1
0 -235 -210 0 0 0 1 8 0 1 0 1
0 -235 -194 0 0 0 1 8 0 1 0 1
phys
0 24 -210 0 0 0 1 8 0 1 0 1
0 -235 -194 0 0 0 1 8 0 1 0 1
0 24 -194 0 0 0 1 8 0 1 0 1
phys
0 -235 -210 24 0 0 1 8 0 1 0 1
0 24 -210 24 0 0 1 8 0 1 0 1
0 24 -194 24 0 0 1 8 0 1 0 1
phys
0 -235 -210 24 0 0 1 8 0 1 0 1
0 24 -194 24 0 0 1 8 0 1 0 1
0 -235 -194 24 0 0 1 8 0 1 0 1
phys
0 36 92 334 0 0 1 9 0 1 0 1
0 36 102.01 334 0 0 1 9 0 1 0 1
0 36 102.01 32 0 0 1 9 0 1 0 1
phys
0 36 92 334 0 0 1 9 0 1 0 1
0 36 102.01 32 0 0 1 9 0 1 0 1
0 36 92 32 0 0 1 9 0 1 0 1
phys
0 66 92 32 0 0 1 9 0 1 0 1
0 66 102.01 32 0 0 1 9 0 1 0 1
0 66 102.01 334 0 0 1 9 0 1 0 1
phys
0 66 92 32 0 0 1 9 0 1 0 1
0 66 102.01 334 0 0 1 9 0 1 0 1
0 66 92 334 0 0 1 9 0 1 0 1
phys
0 36 92 32 0 0 1 9 0 1 0 1
0 36 102.01 32 0 0 1 9 0 1 0 1
0 46 112 32 0 0 1 9 0 1 0 1
phys
0 36 92 32 0 0 1 9 0 1 0 1
0 46 112 32 0 0 1 9 0 1 0 1
0 56 112 32 0 0 1 9 0 1 0 1
phys
0 36 92 32 0 0 1 9 0 1 0 1
0 56 112 32 0 0 1 9 0 1 0 1
0 66 102.01 32 0 0 1 9 0 1 0 1
phys
0 36 92 32 0 0 1 9 0 1 0 1
0 66 102.01 32 0 0 1 9 0 1 0 1
0 66 92 32 0 0 1 9 0 1 0 1
phys
0 36 92 32 0 0 1 9 0 1 0 1
0 66 92 32 0 0 1 9 0 1 0 1
0 56 82 32 0 0 1 9 0 1 0 1
phys
0 36 92 32 0 0 1 9 0 1 0 1
0 56 82 32 0 0 1 9 0 1 0 1
0 46 82 32 0 0 1 9 0 1 0 1
phys
0 66 92 334 0 0 1 9 0 1 0 1
0 66 102.01 334 0 0 1 9 0 1 0 1
0 56 112 334 0 0 1 9 0 1 0 1
phys
0 66 92 334 0 0 1 9 0 1 0 1
0 56 112 334 0 0 1 9 0 1 0 1
0 46 112 334 0 0 1 9 0 1 0 1
phys
0 66 92 334 0 0 1 9 0 1 0 1
0 46 112 334 0 0 1 9 0 1 0 1
0 36 102.01 334 0 0 1 9 0 1 0 1
phys
0 66 92 334 0 0 1 9 0 1 0 1
0 36 102.01 334 0 0 1 9 0 1 0 1
0 36 92 334 0 0 1 9 0 1 0 1
phys
0 66 92 334 0 0 1 9 0 1 0 1
0 36 92 334 0 0 1 9 0 1 0 1
0 46 82 334 0 0 1 9 0 1 0 1
phys
0 66 92 334 0 0 1 9 0 1 0 1
0 46 82 334 0 0 1 9 0 1 0 1
0 56 82 334 0 0 1 9 0 1 0 1
phys
0 46 82 334 0 0 1 9 0 1 0 1
0 36 92 334 0 0 1 9 0 1 0 1
0 36 92 32 0 0 1 9 0 1 0 1
phys
0 46 82 334 0 0 1 9 0 1 0 1
0 36 92 32 0 0 1 9 0 1 0 1
0 46 82 32 0 0 1 9 0 1 0 1
phys
0 66 102.01 334 0 0 1 9 0 1 0 1
0 66 102.01 32 0 0 1 9 0 1 0 1
0 56 112 32 0 0 1 9 0 1 0 1
phys
0 66 102.01 334 0 0 1 9 0 1 0 1
0 56 112 32 0 0 1 9 0 1 0 1
0 56 112 334 0 0 1 9 0 1 0 1
phys
0 56 82 32 0 0 1 9 0 1 0 1
0 66 92 32 0 0 1 9 0 1 0 1
0 66 92 334 0 0 1 9 0 1 0 1
phys
0 56 82 32 0 0 1 9 0 1 0 1
0 66 92 334 0 0 1 9 0 1 0 1
0 56 82 334 0 0 1 9 0 1 0 1
phys
0 36 102.01 32 0 0 1 9 0 1 0 1
0 36 102.01 334 0 0 1 9 0 1 0 1
0 46 112 334 0 0 1 9 0 1 0 1
phys
0 36 102.01 32 0 0 1 9 0 1 0 1
0 46 112 334 0 0 1 9 0 1 0 1
0 46 112 32 0 0 1 9 0 1 0 1
phys
0 56 112 32 0 0 1 9 0 1 0 1
0 46 112 32 0 0 1 9 0 1 0 1
0 46 112 334 0 0 1 9 0 1 0 1
phys
0 56 112 32 0 0 1 9 0 1 0 1
0 46 112 334 0 0 1 9 0 1 0 1
0 56 112 334 0 0 1 9 0 1 0 1
phys
0 56 82 334 0 0 1 9 0 1 0 1
0 46 82 334 0 0 1 9 0 1 0 1
0 46 82 32 0 0 1 9 0 1 0 1
phys
0 56 82 334 0 0 1 9 0 1 0 1
0 46 82 32 0 0 1 9 0 1 0 1
0 56 82 32 0 0 1 9 0 1 0 1
phys
0 202 106 32 0 0 1 10 0 1 0 1
0 202 106 64 0 0 1 10 0 1 0 1
0 186 106 64 0 0 1 10 0 1 0 1
phys
0 202 106 32 0 0 1 10 0 1 0 1
0 186 106 64 0 0 1 10 0 1 0 1
0 186 106 32 0 0 1 10 0 1 0 1
phys
0 186 106 32 0 0 1 10 0 1 0 1
0 186 106 64 0 0 1 10 0 1 0 1
0 186 228 64 0 0 1 10 0 1 0 1
phys
0 186 106 32 0 0 1 10 0 1 0 1
0 186 228 64 0 0 1 10 0 1 0 1
0 186 228 32 0 0 1 10 0 1 0 1
phys
0 202 106 64 0 0 1 10 0 1 0 1
0 202 106 32 0 0 1 10 0 1 0 1
0 202 228 32 0 0 1 10 0 1 0 1
phys
0 202 106 64 0 0 1 10 0 1 0 1
0 202 228 32 0 0 1 10 0 1 0 1
0 202 228 64 0 0 1 10 0 1 0 1
phys
0 202 106 32 0 0 1 10 0 1 0 1
0 186 106 32 0 0 1 10 0 1 0 1
0 186 228 32 0 0 1 10 0 1 0 1
phys
0 202 106 32 0 0 1 10 0 1 0 1
0 186 228 32 0 0 1 10 0 1 0 1
0 202 228 32 0 0 1 10 0 1 0 1
phys
0 186 106 64 0 0 1 10 0 1 0 1
0 202 106 64 0 0 1 10 0 1 0 1
0 202 228 64 0 0 1 10 0 1 0 1
phys
0 186 106 64 0 0 1 10 0 1 0 1
0 202 228 64 0 0 1 10 0 1 0 1
0 186 228 64 0 0 1 10 0 1 0 1
phys
0 202 228 64 0 0 1 10 0 1 0 1
0 202 228 32 0 0 1 10 0 1 0 1
0 186 228 32 0 0 1 10 0 1 0 1
phys
0 202 228 64 0 0 1 10 0 1 0 1
0 186 228 32 0 0 1 10 0 1 0 1
0 186 228 64 0 0 1 10 0 1 0 1
phys
0 186 228 48 0 0 1 11 0 1 0 1
0 186 228 32 0 0 1 11 0 1 0 1
0 170 228 32 0 0 1 11 0 1 0 1
phys
0 186 228 48 0 0 1 11 0 1 0 1
0 170 228 32 0 0 1 11 0 1 0 1
0 170 228 48 0 0 1 11 0 1 0 1
phys
0 186 106 32 0 0 1 11 0 1 0 1
0 186 106 48 0 0 1 11 0 1 0 1
0 170 106 48 0 0 1 11 0 1 0 1
phys
0 186 106 32 0 0 1 11 0 1 0 1
0 170 106 48 0 0 1 11 0 1 0 1
0 170 106 32 0 0 1 11 0 1 0 1
phys
0 170 106 32 0 0 1 11 0 1 0 1
0 170 106 48 0 0 1 11 0 1 0 1
0 170 228 48 0 0 1 11 0 1 0 1
phys
0 170 106 32 0 0 1 11 0 1 0 1
0 170 228 48 0 0 1 11 0 1 0 1
0 170 228 32 0 0 1 11 0 1 0 1
phys
0 186 106 48 0 0 1 11 0 1 0 1
0 186 106 32 0 0 1 11 0 1 0 1
0 186 228 32 0 0 1 11 0 1 0 1
phys
0 186 106 48 0 0 1 11 0 1 0 1
0 186 228 32 0 0 1 11 0 1 0 1
0 186 228 48 0 0 1 11 0 1 0 1
phys
0 186 106 32 0 0 1 11 0 1 0 1
0 170 106 32 0 0 1 11 0 1 0 1
0 170 228 32 0 0 1 11 0 1 0 1
phys
0 186 106 32 0 0 1 11 0 1 0 1
0 170 228 32 0 0 1 11 0 1 0 1
0 186 228 32 0 0 1 11 0 1 0 1
phys
0 170 106 48 0 0 1 11 0 1 0 1
0 186 106 48 0 0 1 11 0 1 0 1
0 186 228 48 0 0 1 11 0 1 0 1
phys
0 170 106 48 0 0 1 11 0 1 0 1
0 186 228 48 0 0 1 11 0 1 0 1
0 170 228 48 0 0 1 11 0 1 0 1
phys
0 24 -210 16 0 0 1 12 0 1 0 1
0 24 -210 0 0 0 1 12 0 1 0 1
0 -235 -210 0 0 0 1 12 0 1 0 1
phys
0 24 -210 16 0 0 1 12 0 1 0 1
0 -235 -210 0 0 0 1 12 0 1 0 1
0 -235 -210 16 0 0 1 12 0 1 0 1
phys
0 24 -226 0 0 0 1 12 0 1 0 1
0 24 -226 16 0 0 1 12 0 1 0 1
0 -235 -226 16 0 0 1 12 0 1 0 1
phys
0 24 -226 0 0 0 1 12 0 1 0 1
0 -235 -226 16 0 0 1 12 0 1 0 1
0 -235 -226 0 0 0 1 12 0 1 0 1
phys
0 -235 -226 0 0 0 1 12 0 1 0 1
0 -235 -226 16 0 0 1 12 0 1 0 1
0 -235 -210 16 0 0 1 12 0 1 0 1
phys
0 -235 -226 0 0 0 1 12 0 1 0 1
0 -235 -210 16 0 0 1 12 0 1 0 1
0 -235 -210 0 0 0 1 12 0 1 0 1
phys
0 24 -226 16 0 0 1 12 0 1 0 1
0 24 -226 0 0 0 1 12 0 1 0 1
0 24 -210 0 0 0 1 12 0 1 0 1
phys
0 24 -226 16 0 0 1 12 0 1 0 1
0 24 -210 0 0 0 1 12 0 1 0 1
0 24 -210 16 0 0 1 12 0 1 0 1
phys
0 24 -226 0 0 0 1 12 0 1 0 1
0 -235 -226 0 0 0 1 12 0 1 0 1
0 -235 -210 0 0 0 1 12 0 1 0 1
phys
0 24 -226 0 0 0 1 12 0 1 0 1
0 -235 -210 0 0 0 1 12 0 1 0 1
0 24 -210 0 0 0 1 12 0 1 0 1
phys
0 -235 -226 16 0 0 1 12 0 1 0 1
0 24 -226 16 0 0 1 12 0 1 0 1
0 24 -210 16 0 0 1 12 0 1 0 1
phys
0 -235 -226 16 0 0 1 12 0 1 0 1
0 24 -210 16 0 0 1 12 0 1 0 1
0 -235 -210 16 0 0 1 12 0 1 0 1
phys
0 24 -194 0 0 0 1 13 0 1 0 1
0 -1 -194 0 0 0 1 13 0 1 0 1
0 -1 60 0 0 0 1 13 0 1 0 1
phys
0 24 -194 0 0 0 1 13 0 1 0 1
0 -1 60 0 0 0 1 13 0 1 0 1
0 24 60 0 0 0 1 13 0 1 0 1
phys
0 -1 -194 32 0 0 1 13 0 1 0 1
0 24 -194 32 0 0 1 13 0 1 0 1
0 24 60 32 0 0 1 13 0 1 0 1
phys
0 -1 -194 32 0 0 1 13 0 1 0 1
0 24 60 32 0 0 1 13 0 1 0 1
0 -1 60 32 0 0 1 13 0 1 0 1
phys
0 24 60 0 0 0 1 13 0 1 0 1
0 -1 60 0 0 0 1 13 0 1 0 1
0 -1 60 32 0 0 1 13 0 1 0 1
phys
0 24 60 0 0 0 1 13 0 1 0 1
0 -1 60 32 0 0 1 13 0 1 0 1
0 24 60 32 0 0 1 13 0 1 0 1
phys
0 24 -194 32 0 0 1 13 0 1 0 1
0 -1 -194 32 0 0 1 13 0 1 0 1
0 -1 -194 0 0 0 1 13 0 1 0 1
phys
0 24 -194 32 0 0 1 13 0 1 0 1
0 -1 -194 0 0 0 1 13 0 1 0 1
0 24 -194 0 0 0 1 13 0 1 0 1
phys
0 -1 -194 32 0 0 1 13 0 1 0 1
0 -1 60 32 0 0 1 13 0 1 0 1
0 -1 60 0 0 0 1 13 0 1 0 1
phys
0 -1 -194 32 0 0 1 13 0 1 0 1
0 -1 60 0 0 0 1 13 0 1 0 1
0 -1 -194 0 0 0 1 13 0 1 0 1
phys
0 24 -194 0 0 0 1 13 0 1 0 1
0 24 60 0 0 0 1 13 0 1 0 1
0 24 60 32 0 0 1 13 0 1 0 1
phys
0 24 -194 0 0 0 1 13 0 1 0 1
0 24 60 32 0 0 1 13 0 1 0 1
0 24 -194 32 0 0 1 13 0 1 0 1
phys
0 -235 -242 8 0 0 1 14 0 1 0 1
0 -235 -226 8 0 0 1 14 0 1 0 1
0 -235 -226 0 0 0 1 14 0 1 0 1
phys
0 -235 -242 8 0 0 1 14 0 1 0 1
0 -235 -226 0 0 0 1 14 0 1 0 1
0 -235 -242 0 0 0 1 14 0 1 0 1
phys
0 24 -242 0 0 0 1 14 0 1 0 1
0 24 -226 0 0 0 1 14 0 1 0 1
0 24 -226 8 0 0 1 14 0 1 0 1
phys
0 24 -242 0 0 0 1 14 0 1 0 1
0 24 -226 8 0 0 1 14 0 1 0 1
0 24 -242 8 0 0 1 14 0 1 0 1
phys
0 -235 -242 0 0 0 1 14 0 1 0 1
0 -235 -226 0 0 0 1 14 0 1 0 1
0 24 -226 0 0 0 1 14 0 1 0 1
phys
0 -235 -242 0 0 0 1 14 0 1 0 1
0 24 -226 0 0 0 1 14 0 1 0 1
0 24 -242 0 0 0 1 14 0 1 0 1
phys
0 24 -242 8 0 0 1 14 0 1 0 1
0 24 -226 8 0 0 1 14 0 1 0 1
0 -235 -226 8 0 0 1 14 0 1 0 1
phys
0 24 -242 8 0 0 1 14 0 1 0 1
0 -235 -226 8 0 0 1 14 0 1 0 1
0 -235 -242 8 0 0 1 14 0 1 0 1
phys
0 24 -226 8 0 0 1 14 0 1 0 1
0 24 -226 0 0 0 1 14 0 1 0 1
0 -235 -226 0 0 0 1 14 0 1 0 1
phys
0 24 -226 8 0 0 1 14 0 1 0 1
0 -235 -226 0 0 0 1 14 0 1 0 1
0 -235 -226 8 0 0 1 14 0 1 0 1
phys
0 24 -242 0 0 0 1 14 0 1 0 1
0 24 -242 8 0 0 1 14 0 1 0 1
0 -235 -242 8 0 0 1 14 0 1 0 1
phys
0 24 -242 0 0 0 1 14 0 1 0 1
0 -235 -242 8 0 0 1 14 0 1 0 1
0 -235 -242 0 0 0 1 14 0 1 0 1
phys
0 218 228 80 0 0 1 15 0 1 0 1
0 218 228 32 0 0 1 15 0 1 0 1
0 202 228 32 0 0 1 15 0 1 0 1
phys
0 218 228 80 0 0 1 15 0 1 0 1
0 202 228 32 0 0 1 15 0 1 0 1
0 202 228 80 0 0 1 15 0 1 0 1
phys
0 218 106 32 0 0 1 15 0 1 0 1
0 218 106 80 0 0 1 15 0 1 0 1
0 202 106 80 0 0 1 15 0 1 0 1
phys
0 218 106 32 0 0 1 15 0 1 0 1
0 202 106 80 0 0 1 15 0 1 0 1
0 202 106 32 0 0 1 15 0 1 0 1
phys
0 202 106 32 0 0 1 15 0 1 0 1
0 202 106 80 0 0 1 15 0 1 0 1
0 202 228 80 0 0 1 15 0 1 0 1
phys
0 202 106 32 0 0 1 15 0 1 0 1
0 202 228 80 0 0 1 15 0 1 0 1
0 202 228 32 0 0 1 15 0 1 0 1
phys
0 218 106 80 0 0 1 15 0 1 0 1
0 218 106 32 0 0 1 15 0 1 0 1
0 218 228 32 0 0 1 15 0 1 0 1
phys
0 218 106 80 0 0 1 15 0 1 0 1
0 218 228 32 0 0 1 15 0 1 0 1
0 218 228 80 0 0 1 15 0 1 0 1
phys
0 218 106 32 0 0 1 15 0 1 0 1
0 202 106 32 0 0 1 15 0 1 0 1
0 202 228 32 0 0 1 15 0 1 0 1
phys
0 218 106 32 0 0 1 15 0 1 0 1
0 202 228 32 0 0 1 15 0 1 0 1
0 218 228 32 0 0 1 15 0 1 0 1
phys
0 202 106 80 0 0 1 15 0 1 0 1
0 218 106 80 0 0 1 15 0 1 0 1
0 218 228 80 0 0 1 15 0 1 0 1
phys
0 202 106 80 0 0 1 15 0 1 0 1
0 218 228 80 0 0 1 15 0 1 0 1
0 202 228 80 0 0 1 15 0 1 0 1
end
