version 1
nodes
0 "root" -1
end
skeleton
time 0
0 0 0 0 0 0 0
end
triangles
goldeneye_caverns_cavernsconcretefloor02
0 170 228 96 -1 0 0 44.171875 -1.4375 1 0 1
0 170 242 96 -1 0 0 44.0625 -1.4375 1 0 1
0 170 242 32 -1 0 0 44.0625 -1.9375 1 0 1
goldeneye_caverns_cavernsconcretefloor02
0 170 228 96 -1 0 0 44.171875 -1.4375 1 0 1
0 170 242 32 -1 0 0 44.0625 -1.9375 1 0 1
0 170 228 32 -1 0 0 44.171875 -1.9375 1 0 1
goldeneye_caverns_cavernsconcretefloor02
0 234 228 96 0 0 1 44.171875 -67.453125 1 0 1
0 234 242 96 0 0 1 44.0625 -67.453125 1 0 1
0 170 242 96 0 0 1 44.0625 -67.953125 1 0 1
goldeneye_caverns_cavernsconcretefloor02
0 234 228 96 0 0 1 44.171875 -67.453125 1 0 1
0 170 242 96 0 0 1 44.0625 -67.953125 1 0 1
0 170 228 96 0 0 1 44.171875 -67.953125 1 0 1
goldeneye_caverns_cavernsconcretefloor02
0 234 242 96 0 1 0 -68.453125 -1.4375 1 0 1
0 234 242 32 0 1 0 -68.453125 -1.9375 1 0 1
0 170 242 32 0 1 0 -68.953125 -1.9375 1 0 1
goldeneye_caverns_cavernsconcretefloor02
0 234 242 96 0 1 0 -68.453125 -1.4375 1 0 1
0 170 242 32 0 1 0 -68.953125 -1.9375 1 0 1
0 170 242 96 0 1 0 -68.953125 -1.4375 1 0 1
goldeneye_caverns_cavernsconcretefloor02
0 234 228 32 0 -1 0 -68.453125 -1.9375 1 0 1
0 234 228 96 0 -1 0 -68.453125 -1.4375 1 0 1
0 170 228 96 0 -1 0 -68.953125 -1.4375 1 0 1
goldeneye_caverns_cavernsconcretefloor02
0 234 228 32 0 -1 0 -68.453125 -1.9375 1 0 1
0 170 228 96 0 -1 0 -68.953125 -1.4375 1 0 1
0 170 228 32 0 -1 0 -68.953125 -1.9375 1 0 1
wood_wooddoor032a
0 -157 92 139.998 0 1 0 -142.933594 -0.158219 1 0 1
0 -157 92 32 0 1 0 -142.933594 -1.001953 1 0 1
0 -160 92 32 0 1 0 -142.980469 -1.001953 1 0 1
wood_wooddoor032a
0 -157 92 139.998 0 1 0 -142.933594 -0.158219 1 0 1
0 -160 92 32 0 1 0 -142.980469 -1.001953 1 0 1
0 -160 92 142.998 0 1 0 -142.980469 -0.134781 1 0 1
wood_wooddoor032a
0 -157 84 32 0 -1 0 -142.933594 -1.001953 1 0 1
0 -157 84 139.998 0 -1 0 -142.933594 -0.158219 1 0 1
0 -160 84 142.998 0 -1 0 -142.980469 -0.134781 1 0 1
wood_wooddoor032a
0 -157 84 32 0 -1 0 -142.933594 -1.001953 1 0 1
0 -160 84 142.998 0 -1 0 -142.980469 -0.134781 1 0 1
0 -160 84 32 0 -1 0 -142.980469 -1.001953 1 0 1
wood_wooddoor032a
0 -157 84 139.998 1 0 0 -90.933594 -0.158219 1 0 1
0 -157 84 32 1 0 0 -90.933594 -1.001953 1 0 1
0 -157 92 32 1 0 0 -90.808594 -1.001953 1 0 1
wood_wooddoor032a
0 -157 84 139.998 1 0 0 -90.933594 -0.158219 1 0 1
0 -157 92 32 1 0 0 -90.808594 -1.001953 1 0 1
0 -157 92 139.998 1 0 0 -90.808594 -0.158219 1 0 1
wood_wooddoor032a
0 -61 92 32 0 1 0 141.074219 -0.994141 1 0 1
0 -61 92 140.002 0 1 0 141.074219 -0.150375 1 0 1
0 -58 92 143.002 0 1 0 141.027344 -0.126938 1 0 1
wood_wooddoor032a
0 -61 92 32 0 1 0 141.074219 -0.994141 1 0 1
0 -58 92 143.002 0 1 0 141.027344 -0.126938 1 0 1
0 -58 92 32 0 1 0 141.027344 -0.994141 1 0 1
wood_wooddoor032a
0 -58 84 32 0 -1 0 141.027344 -0.994141 1 0 1
0 -58 84 143.002 0 -1 0 141.027344 -0.126938 1 0 1
0 -61 84 140.002 0 -1 0 141.074219 -0.150375 1 0 1
wood_wooddoor032a
0 -58 84 32 0 -1 0 141.027344 -0.994141 1 0 1
0 -61 84 140.002 0 -1 0 141.074219 -0.150375 1 0 1
0 -61 84 32 0 -1 0 141.074219 -0.994141 1 0 1
wood_wooddoor032a
0 -61 84 32 -1 0 0 -90.925781 -0.994141 1 0 1
0 -61 84 140.002 -1 0 0 -90.925781 -0.150375 1 0 1
0 -61 92 140.002 -1 0 0 -90.800781 -0.150375 1 0 1
wood_wooddoor032a
0 -61 84 32 -1 0 0 -90.925781 -0.994141 1 0 1
0 -61 92 140.002 -1 0 0 -90.800781 -0.150375 1 0 1
0 -61 92 32 -1 0 0 -90.800781 -0.994141 1 0 1
wood_wooddoor032a
0 -157 92 140 0 1 0 41.778263 -0.183594 1 0 1
0 -160 92 143 0 1 0 41.79205 -0.160156 1 0 1
0 -58 92 143 0 1 0 41.3233 -0.160156 1 0 1
wood_wooddoor032a
0 -157 92 140 0 1 0 41.778263 -0.183594 1 0 1
0 -58 92 143 0 1 0 41.3233 -0.160156 1 0 1
0 -61 92 140 0 1 0 41.337086 -0.183594 1 0 1
wood_wooddoor032a
0 -58 84 143 0 -1 0 41.264706 -0.160156 1 0 1
0 -160 84 143 0 -1 0 41.733456 -0.160156 1 0 1
0 -157 84 140 0 -1 0 41.719669 -0.183594 1 0 1
wood_wooddoor032a
0 -58 84 143 0 -1 0 41.264706 -0.160156 1 0 1
0 -157 84 140 0 -1 0 41.719669 -0.183594 1 0 1
0 -61 84 140 0 -1 0 41.278493 -0.183594 1 0 1
wood_wooddoor032a
0 -157 84 140 0 0 -1 41.719669 -45.246094 1 0 1
0 -157 92 140 0 0 -1 41.719669 -45.183594 1 0 1
0 -61 92 140 0 0 -1 41.278493 -45.183594 1 0 1
wood_wooddoor032a
0 -157 84 140 0 0 -1 41.719669 -45.246094 1 0 1
0 -61 92 140 0 0 -1 41.278493 -45.183594 1 0 1
0 -61 84 140 0 0 -1 41.278493 -45.246094 1 0 1
pepsi2_arch_stairs01
0 218 106 32 -1 0 0 90.25 -10.75 1 0 1
0 218 106 96 -1 0 0 90.25 -8.75 1 0 1
0 218 228 96 -1 0 0 88.34375 -8.75 1 0 1
pepsi2_arch_stairs01
0 218 106 32 -1 0 0 90.25 -10.75 1 0 1
0 218 228 96 -1 0 0 88.34375 -8.75 1 0 1
0 218 228 32 -1 0 0 88.34375 -10.75 1 0 1
pepsi2_arch_stairs01
0 218 106 96 0 0 1 90.25 -273.3125 1 0 1
0 234 106 96 0 0 1 90.25 -272.8125 1 0 1
0 234 228 96 0 0 1 88.34375 -272.8125 1 0 1
pepsi2_arch_stairs01
0 218 106 96 0 0 1 90.25 -273.3125 1 0 1
0 234 228 96 0 0 1 88.34375 -272.8125 1 0 1
0 218 228 96 0 0 1 88.34375 -273.3125 1 0 1
pepsi2_arch_concrete_floor_smooth01
0 170 238 96 0 1 0 -68.953125 -1.4375 1 0 1
0 170 238 96 0 1 0 -68.953125 -1.4375 1 0 1
0 234 238 96 0 1 0 -68.453125 -1.4375 1 0 1
pepsi2_arch_concrete_floor_smooth01
0 170 238 96 0 1 0 -68.953125 -1.4375 1 0 1
0 234 238 96 0 1 0 -68.453125 -1.4375 1 0 1
0 234 238 133 0 1 0 -68.453125 -1.148438 1 0 1
pepsi2_arch_concrete_floor_smooth01
0 170 232 96 0 -1 0 -68.953125 -1.4375 1 0 1
0 170 232 96 0 -1 0 -68.953125 -1.4375 1 0 1
0 234 232 133 0 -1 0 -68.453125 -1.148438 1 0 1
pepsi2_arch_concrete_floor_smooth01
0 170 232 96 0 -1 0 -68.953125 -1.4375 1 0 1
0 234 232 133 0 -1 0 -68.453125 -1.148438 1 0 1
0 234 232 96 0 -1 0 -68.453125 -1.4375 1 0 1
pepsi2_arch_concrete_floor_smooth01
0 170 238 96 -1 0 0 44.09375 -1.4375 1 0 1
0 170 238 96 -1 0 0 44.09375 -1.4375 1 0 1
0 170 236 98 -1 0 0 44.109375 -1.421875 1 0 1
pepsi2_arch_concrete_floor_smooth01
0 170 238 96 -1 0 0 44.09375 -1.4375 1 0 1
0 170 236 98 -1 0 0 44.109375 -1.421875 1 0 1
0 170 234 98 -1 0 0 44.125 -1.421875 1 0 1
pepsi2_arch_concrete_floor_smooth01
0 170 238 96 -1 0 0 44.09375 -1.4375 1 0 1
0 170 234 98 -1 0 0 44.125 -1.421875 1 0 1
0 170 232 96 -1 0 0 44.140625 -1.4375 1 0 1
pepsi2_arch_concrete_floor_smooth01
0 170 238 96 -1 0 0 44.09375 -1.4375 1 0 1
0 170 232 96 -1 0 0 44.140625 -1.4375 1 0 1
0 170 232 96 -1 0 0 44.140625 -1.4375 1 0 1
pepsi2_arch_concrete_floor_smooth01
0 234 236 135 -0.378399 0.654528 0.654528 -68.453125 -1.132812 1 0 1
0 234 238 133 -0.378399 0.654528 0.654528 -68.453125 -1.148437 1 0 1
0 170 238 96 -0.378399 0.654528 0.654528 -68.953125 -1.4375 1 0 1
pepsi2_arch_concrete_floor_smooth01
0 234 236 135 -0.378399 0.654528 0.654528 -68.453125 -1.132812 1 0 1
0 170 238 96 -0.378399 0.654528 0.654528 -68.953125 -1.4375 1 0 1
0 170 236 98 -0.378399 0.654528 0.654528 -68.953125 -1.421875 1 0 1
pepsi2_arch_concrete_floor_smooth01
0 170 232 96 -0.378399 -0.654528 0.654528 -68.953125 -1.4375 1 0 1
0 234 232 133 -0.378399 -0.654528 0.654528 -68.453125 -1.148438 1 0 1
0 234 234 135 -0.378399 -0.654528 0.654528 -68.453125 -1.132812 1 0 1
pepsi2_arch_concrete_floor_smooth01
0 170 232 96 -0.378399 -0.654528 0.654528 -68.953125 -1.4375 1 0 1
0 234 234 135 -0.378399 -0.654528 0.654528 -68.453125 -1.132812 1 0 1
0 170 234 98 -0.378399 -0.654528 0.654528 -68.953125 -1.421875 1 0 1
pepsi2_arch_concrete_floor_smooth01
0 234 234 135 -0.500503 0 0.865735 44.125 -67.453125 1 0 1
0 234 236 135 -0.500503 0 0.865735 44.109375 -67.453125 1 0 1
0 170 236 98 -0.500503 0 0.865735 44.109375 -67.953125 1 0 1
pepsi2_arch_concrete_floor_smooth01
0 234 234 135 -0.500503 0 0.865735 44.125 -67.453125 1 0 1
0 170 236 98 -0.500503 0 0.865735 44.109375 -67.953125 1 0 1
0 170 234 98 -0.500503 0 0.865735 44.125 -67.953125 1 0 1
custom_textures_txt_chao2
0 -1 -194 0 0 -1 0 -69.484375 -1.578125 1 0 1
0 -1 -194 32 0 -1 0 -69.484375 -1.328125 1 0 1
0 -5 -194 32 0 -1 0 -69.515625 -1.328125 1 0 1
custom_textures_txt_chao2
0 -1 -194 0 0 -1 0 -69.484375 -1.578125 1 0 1
0 -5 -194 32 0 -1 0 -69.515625 -1.328125 1 0 1
0 -5 -194 0 0 -1 0 -69.515625 -1.578125 1 0 1
dunc_temp_vegas_wall_int_grey_panel_glowtrim
0 -5 -194 32 0 0 1 -1126.803085 12.499765 1 0 1
0 -1 -194 32 0 0 1 -1126.302284 12.499765 1 0 1
0 -1 60 32 0 0 1 -1126.302284 12.029401 1 0 1
dunc_temp_vegas_wall_int_grey_panel_glowtrim
0 -5 -194 32 0 0 1 -1126.803085 12.499765 1 0 1
0 -1 60 32 0 0 1 -1126.302284 12.029401 1 0 1
0 -5 60 32 0 0 1 -1126.803085 12.029401 1 0 1
custom_textures_txt_chao2
0 24 -210 0 0 -1 0 -69.425781 -1.65625 1 0 1
0 24 -210 24 0 -1 0 -69.425781 -1.46875 1 0 1
0 -235 -210 24 0 -1 0 -71.449219 -1.46875 1 0 1
custom_textures_txt_chao2
0 24 -210 0 0 -1 0 -69.425781 -1.65625 1 0 1
0 -235 -210 24 0 -1 0 -71.449219 -1.46875 1 0 1
0 -235 -210 0 0 -1 0 -71.449219 -1.65625 1 0 1
custom_textures_txt_chao2
0 -235 -210 24 0 0 1 -71.449219 48.5625 1 0 1
0 24 -210 24 0 0 1 -69.425781 48.5625 1 0 1
0 24 -194 24 0 0 1 -69.425781 48.4375 1 0 1
custom_textures_txt_chao2
0 -235 -210 24 0 0 1 -71.449219 48.5625 1 0 1
0 24 -194 24 0 0 1 -69.425781 48.4375 1 0 1
0 -235 -194 24 0 0 1 -71.449219 48.4375 1 0 1
bridge_se1_metal_flat_steel_01
0 36 92 334 -1 0 0 45.289062 0.671875 1 0 1
0 36 102.01 334 -1 0 0 45.210859 0.671875 1 0 1
0 36 102.01 32 -1 0 0 45.210859 -1.6875 1 0 1
bridge_se1_metal_flat_steel_01
0 36 92 334 -1 0 0 45.289062 0.671875 1 0 1
0 36 102.01 32 -1 0 0 45.210859 -1.6875 1 0 1
0 36 92 32 -1 0 0 45.289062 -1.6875 1 0 1
bridge_se1_metal_flat_steel_01
0 66 92 32 1 0 0 45.289062 -1.6875 1 0 1
0 66 102.01 32 1 0 0 45.210859 -1.6875 1 0 1
0 66 102.01 334 1 0 0 45.210859 0.671875 1 0 1
bridge_se1_metal_flat_steel_01
0 66 92 32 1 0 0 45.289062 -1.6875 1 0 1
0 66 102.01 334 1 0 0 45.210859 0.671875 1 0 1
0 66 92 334 1 0 0 45.289062 0.671875 1 0 1
bridge_se1_metal_flat_steel_01
0 66 92 334 0 0 1 45.289062 -68.515625 1 0 1
0 66 102.01 334 0 0 1 45.210859 -68.515625 1 0 1
0 56 112 334 0 0 1 45.132812 -68.59375 1 0 1
bridge_se1_metal_flat_steel_01
0 66 92 334 0 0 1 45.289062 -68.515625 1 0 1
0 56 112 334 0 0 1 45.132812 -68.59375 1 0 1
0 46 112 334 0 0 1 45.132812 -68.671875 1 0 1
bridge_se1_metal_flat_steel_01
0 66 92 334 0 0 1 45.289062 -68.515625 1 0 1
0 46 112 334 0 0 1 45.132812 -68.671875 1 0 1
0 36 102.01 334 0 0 1 45.210859 -68.75 1 0 1
bridge_se1_metal_flat_steel_01
0 66 92 334 0 0 1 45.289062 -68.515625 1 0 1
0 36 102.01 334 0 0 1 45.210859 -68.75 1 0 1
0 36 92 334 0 0 1 45.289062 -68.75 1 0 1
bridge_se1_metal_flat_steel_01
0 66 92 334 0 0 1 45.289062 -68.515625 1 0 1
0 36 92 334 0 0 1 45.289062 -68.75 1 0 1
0 46 82 334 0 0 1 45.367188 -68.671875 1 0 1
bridge_se1_metal_flat_steel_01
0 66 92 334 0 0 1 45.289062 -68.515625 1 0 1
0 46 82 334 0 0 1 45.367188 -68.671875 1 0 1
0 56 82 334 0 0 1 45.367188 -68.59375 1 0 1
bridge_se1_metal_flat_steel_01
0 46 82 334 -0.707107 -0.707107 0 -69.867188 0.671875 1 0 1
0 36 92 334 -0.707107 -0.707107 0 -69.945312 0.671875 1 0 1
0 36 92 32 -0.707107 -0.707107 0 -69.945312 -1.6875 1 0 1
bridge_se1_metal_flat_steel_01
0 46 82 334 -0.707107 -0.707107 0 -69.867188 0.671875 1 0 1
0 36 92 32 -0.707107 -0.707107 0 -69.945312 -1.6875 1 0 1
0 46 82 32 -0.707107 -0.707107 0 -69.867188 -1.6875 1 0 1
bridge_se1_metal_flat_steel_01
0 66 102.01 334 0.706753 0.70746 0 -69.710938 0.671875 1 0 1
0 66 102.01 32 0.706753 0.70746 0 -69.710938 -1.6875 1 0 1
0 56 112 32 0.706753 0.70746 0 -69.789063 -1.6875 1 0 1
bridge_se1_metal_flat_steel_01
0 66 102.01 334 0.706753 0.70746 0 -69.710938 0.671875 1 0 1
0 56 112 32 0.706753 0.70746 0 -69.789063 -1.6875 1 0 1
0 56 112 334 0.706753 0.70746 0 -69.789063 0.671875 1 0 1
bridge_se1_metal_flat_steel_01
0 56 82 32 0.707107 -0.707107 0 -69.789062 -1.6875 1 0 1
0 66 92 32 0.707107 -0.707107 0 -69.710938 -1.6875 1 0 1
0 66 92 334 0.707107 -0.707107 0 -69.710938 0.671875 1 0 1
bridge_se1_metal_flat_steel_01
0 56 82 32 0.707107 -0.707107 0 -69.789062 -1.6875 1 0 1
0 66 92 334 0.707107 -0.707107 0 -69.710938 0.671875 1 0 1
0 56 82 334 0.707107 -0.707107 0 -69.789062 0.671875 1 0 1
bridge_se1_metal_flat_steel_01
0 36 102.01 32 -0.706753 0.70746 0 -69.945312 -1.6875 1 0 1
0 36 102.01 334 -0.706753 0.70746 0 -69.945312 0.671875 1 0 1
0 46 112 334 -0.706753 0.70746 0 -69.867188 0.671875 1 0 1
bridge_se1_metal_flat_steel_01
0 36 102.01 32 -0.706753 0.70746 0 -69.945312 -1.6875 1 0 1
0 46 112 334 -0.706753 0.70746 0 -69.867188 0.671875 1 0 1
0 46 112 32 -0.706753 0.70746 0 -69.867188 -1.6875 1 0 1
bridge_se1_metal_flat_steel_01
0 56 112 32 0 1 0 -69.789062 -1.6875 1 0 1
0 46 112 32 0 1 0 -69.867188 -1.6875 1 0 1
0 46 112 334 0 1 0 -69.867188 0.671875 1 0 1
bridge_se1_metal_flat_steel_01
0 56 112 32 0 1 0 -69.789062 -1.6875 1 0 1
0 46 112 334 0 1 0 -69.867188 0.671875 1 0 1
0 56 112 334 0 1 0 -69.789062 0.671875 1 0 1
bridge_se1_metal_flat_steel_01
0 56 82 334 0 -1 0 -69.789062 0.671875 1 0 1
0 46 82 334 0 -1 0 -69.867188 0.671875 1 0 1
0 46 82 32 0 -1 0 -69.867188 -1.6875 1 0 1
bridge_se1_metal_flat_steel_01
0 56 82 334 0 -1 0 -69.789062 0.671875 1 0 1
0 46 82 32 0 -1 0 -69.867188 -1.6875 1 0 1
0 56 82 32 0 -1 0 -69.789062 -1.6875 1 0 1
pepsi2_arch_stairs01
0 186 106 32 -1 0 0 90.25 -10.75 1 0 1
0 186 106 64 -1 0 0 90.25 -9.75 1 0 1
0 186 228 64 -1 0 0 88.34375 -9.75 1 0 1
pepsi2_arch_stairs01
0 186 106 32 -1 0 0 90.25 -10.75 1 0 1
0 186 228 64 -1 0 0 88.34375 -9.75 1 0 1
0 186 228 32 -1 0 0 88.34375 -10.75 1 0 1
pepsi2_arch_stairs01
0 186 106 64 0 0 1 90.25 -274.3125 1 0 1
0 202 106 64 0 0 1 90.25 -273.8125 1 0 1
0 202 228 64 0 0 1 88.34375 -273.8125 1 0 1
pepsi2_arch_stairs01
0 186 106 64 0 0 1 90.25 -274.3125 1 0 1
0 202 228 64 0 0 1 88.34375 -273.8125 1 0 1
0 186 228 64 0 0 1 88.34375 -274.3125 1 0 1
pepsi2_arch_stairs01
0 170 106 32 -1 0 0 90.25 -10.75 1 0 1
0 170 106 48 -1 0 0 90.25 -10.25 1 0 1
0 170 228 48 -1 0 0 88.34375 -10.25 1 0 1
pepsi2_arch_stairs01
0 170 106 32 -1 0 0 90.25 -10.75 1 0 1
0 170 228 48 -1 0 0 88.34375 -10.25 1 0 1
0 170 228 32 -1 0 0 88.34375 -10.75 1 0 1
pepsi2_arch_stairs01
0 170 106 48 0 0 1 90.25 -274.8125 1 0 1
0 186 106 48 0 0 1 90.25 -274.3125 1 0 1
0 186 228 48 0 0 1 88.34375 -274.3125 1 0 1
pepsi2_arch_stairs01
0 170 106 48 0 0 1 90.25 -274.8125 1 0 1
0 186 228 48 0 0 1 88.34375 -274.3125 1 0 1
0 170 228 48 0 0 1 88.34375 -274.8125 1 0 1
custom_textures_txt_chao2
0 24 -226 0 0 -1 0 -69.425781 -1.59375 1 0 1
0 24 -226 16 0 -1 0 -69.425781 -1.46875 1 0 1
0 -235 -226 16 0 -1 0 -71.449219 -1.46875 1 0 1
custom_textures_txt_chao2
0 24 -226 0 0 -1 0 -69.425781 -1.59375 1 0 1
0 -235 -226 16 0 -1 0 -71.449219 -1.46875 1 0 1
0 -235 -226 0 0 -1 0 -71.449219 -1.59375 1 0 1
custom_textures_txt_chao2
0 -235 -226 16 0 0 1 -71.449219 48.5625 1 0 1
0 24 -226 16 0 0 1 -69.425781 48.5625 1 0 1
0 24 -210 16 0 0 1 -69.425781 48.4375 1 0 1
custom_textures_txt_chao2
0 -235 -226 16 0 0 1 -71.449219 48.5625 1 0 1
0 24 -210 16 0 0 1 -69.425781 48.4375 1 0 1
0 -235 -210 16 0 0 1 -71.449219 48.4375 1 0 1
custom_textures_txt_chao
0 -1 -194 32 0 0 1 -69.597656 47.554688 1 0 1
0 24 -194 32 0 0 1 -69.402344 47.554688 1 0 1
0 24 60 32 0 0 1 -69.402344 45.570312 1 0 1
custom_textures_txt_chao
0 -1 -194 32 0 0 1 -69.597656 47.554688 1 0 1
0 24 60 32 0 0 1 -69.402344 45.570312 1 0 1
0 -1 60 32 0 0 1 -69.597656 45.570312 1 0 1
custom_textures_txt_chao2
0 24 -194 32 0 -1 0 -69.402344 -1.3125 1 0 1
0 -1 -194 32 0 -1 0 -69.597656 -1.3125 1 0 1
0 -1 -194 0 0 -1 0 -69.597656 -1.5625 1 0 1
custom_textures_txt_chao2
0 24 -194 32 0 -1 0 -69.402344 -1.3125 1 0 1
0 -1 -194 0 0 -1 0 -69.597656 -1.5625 1 0 1
0 24 -194 0 0 -1 0 -69.402344 -1.5625 1 0 1
custom_textures_txt_chao2
0 24 -242 8 0 0 1 -69.425781 48.5625 1 0 1
0 24 -226 8 0 0 1 -69.425781 48.4375 1 0 1
0 -235 -226 8 0 0 1 -71.449219 48.4375 1 0 1
custom_textures_txt_chao2
0 24 -242 8 0 0 1 -69.425781 48.5625 1 0 1
0 -235 -226 8 0 0 1 -71.449219 48.4375 1 0 1
0 -235 -242 8 0 0 1 -71.449219 48.5625 1 0 1
custom_textures_txt_chao2
0 24 -242 0 0 -1 0 -69.425781 -1.53125 1 0 1
0 24 -242 8 0 -1 0 -69.425781 -1.46875 1 0 1
0 -235 -242 8 0 -1 0 -71.449219 -1.46875 1 0 1
custom_textures_txt_chao2
0 24 -242 0 0 -1 0 -69.425781 -1.53125 1 0 1
0 -235 -242 8 0 -1 0 -71.449219 -1.46875 1 0 1
0 -235 -242 0 0 -1 0 -71.449219 -1.53125 1 0 1
pepsi2_arch_stairs01
0 202 106 32 -1 0 0 90.25 -10.75 1 0 1
0 202 106 80 -1 0 0 90.25 -9.25 1 0 1
0 202 228 80 -1 0 0 88.34375 -9.25 1 0 1
pepsi2_arch_stairs01
0 202 106 32 -1 0 0 90.25 -10.75 1 0 1
0 202 228 80 -1 0 0 88.34375 -9.25 1 0 1
0 202 228 32 -1 0 0 88.34375 -10.75 1 0 1
pepsi2_arch_stairs01
0 202 106 80 0 0 1 90.25 -273.8125 1 0 1
0 218 106 80 0 0 1 90.25 -273.3125 1 0 1
0 218 228 80 0 0 1 88.34375 -273.3125 1 0 1
pepsi2_arch_stairs01
0 202 106 80 0 0 1 90.25 -273.8125 1 0 1
0 218 228 80 0 0 1 88.34375 -273.3125 1 0 1
0 202 228 80 0 0 1 88.34375 -273.8125 1 0 1
end
