version 1
nodes
0 "root" -1
end
skeleton
time 0
0 0 0 0 0 0 0
end
triangles
phys
0 -144 144 36 0 0 1 1 0 1 0 1
0 -144 144 0 0 0 1 1 0 1 0 1
0 -148 144 0 0 0 1 1 0 1 0 1
phys
0 -144 144 36 0 0 1 1 0 1 0 1
0 -148 144 0 0 0 1 1 0 1 0 1
0 -148 144 36 0 0 1 1 0 1 0 1
phys
0 -144 104 0 0 0 1 1 0 1 0 1
0 -144 104 36 0 0 1 1 0 1 0 1
0 -148 104 36 0 0 1 1 0 1 0 1
phys
0 -144 104 0 0 0 1 1 0 1 0 1
0 -148 104 36 0 0 1 1 0 1 0 1
0 -148 104 0 0 0 1 1 0 1 0 1
phys
0 -148 104 0 0 0 1 1 0 1 0 1
0 -148 104 36 0 0 1 1 0 1 0 1
0 -148 144 36 0 0 1 1 0 1 0 1
phys
0 -148 104 0 0 0 1 1 0 1 0 1
0 -148 144 36 0 0 1 1 0 1 0 1
0 -148 144 0 0 0 1 1 0 1 0 1
phys
0 -144 104 36 0 0 1 1 0 1 0 1
0 -144 104 0 0 0 1 1 0 1 0 1
0 -144 144 0 0 0 1 1 0 1 0 1
phys
0 -144 104 36 0 0 1 1 0 1 0 1
0 -144 144 0 0 0 1 1 0 1 0 1
0 -144 144 36 0 0 1 1 0 1 0 1
phys
0 -144 104 0 0 0 1 1 0 1 0 1
0 -148 104 0 0 0 1 1 0 1 0 1
0 -148 144 0 0 0 1 1 0 1 0 1
phys
0 -144 104 0 0 0 1 1 0 1 0 1
0 -148 144 0 0 0 1 1 0 1 0 1
0 -144 144 0 0 0 1 1 0 1 0 1
phys
0 -148 104 36 0 0 1 1 0 1 0 1
0 -144 104 36 0 0 1 1 0 1 0 1
0 -144 144 36 0 0 1 1 0 1 0 1
phys
0 -148 104 36 0 0 1 1 0 1 0 1
0 -144 144 36 0 0 1 1 0 1 0 1
0 -148 144 36 0 0 1 1 0 1 0 1
phys
0 -172 144 38 0 0 1 2 0 1 0 1
0 -172 144 36 0 0 1 2 0 1 0 1
0 -176 144 36 0 0 1 2 0 1 0 1
phys
0 -172 144 38 0 0 1 2 0 1 0 1
0 -176 144 36 0 0 1 2 0 1 0 1
0 -176 144 38 0 0 1 2 0 1 0 1
phys
0 -172 104 36 0 0 1 2 0 1 0 1
0 -172 104 38 0 0 1 2 0 1 0 1
0 -176 104 38 0 0 1 2 0 1 0 1
phys
0 -172 104 36 0 0 1 2 0 1 0 1
0 -176 104 38 0 0 1 2 0 1 0 1
0 -176 104 36 0 0 1 2 0 1 0 1
phys
0 -176 104 36 0 0 1 2 0 1 0 1
0 -176 104 38 0 0 1 2 0 1 0 1
0 -176 144 38 0 0 1 2 0 1 0 1
phys
0 -176 104 36 0 0 1 2 0 1 0 1
0 -176 144 38 0 0 1 2 0 1 0 1
0 -176 144 36 0 0 1 2 0 1 0 1
phys
0 -172 104 38 0 0 1 2 0 1 0 1
0 -172 104 36 0 0 1 2 0 1 0 1
0 -172 144 36 0 0 1 2 0 1 0 1
phys
0 -172 104 38 0 0 1 2 0 1 0 1
0 -172 144 36 0 0 1 2 0 1 0 1
0 -172 144 38 0 0 1 2 0 1 0 1
phys
0 -172 104 36 0 0 1 2 0 1 0 1
0 -176 104 36 0 0 1 2 0 1 0 1
0 -176 144 36 0 0 1 2 0 1 0 1
phys
0 -172 104 36 0 0 1 2 0 1 0 1
0 -176 144 36 0 0 1 2 0 1 0 1
0 -172 144 36 0 0 1 2 0 1 0 1
phys
0 -176 104 38 0 0 1 2 0 1 0 1
0 -172 104 38 0 0 1 2 0 1 0 1
0 -172 144 38 0 0 1 2 0 1 0 1
phys
0 -176 104 38 0 0 1 2 0 1 0 1
0 -172 144 38 0 0 1 2 0 1 0 1
0 -176 144 38 0 0 1 2 0 1 0 1
phys
0 76 -232 106 0 0 1 3 0 1 0 1
0 76 -232 42 0 0 1 3 0 1 0 1
0 48 -232 42 0 0 1 3 0 1 0 1
phys
0 76 -232 106 0 0 1 3 0 1 0 1
0 48 -232 42 0 0 1 3 0 1 0 1
0 48 -232 106 0 0 1 3 0 1 0 1
phys
0 76 -240 42 0 0 1 3 0 1 0 1
0 76 -240 106 0 0 1 3 0 1 0 1
0 48 -240 106 0 0 1 3 0 1 0 1
phys
0 76 -240 42 0 0 1 3 0 1 0 1
0 48 -240 106 0 0 1 3 0 1 0 1
0 48 -240 42 0 0 1 3 0 1 0 1
phys
0 48 -240 42 0 0 1 3 0 1 0 1
0 48 -240 106 0 0 1 3 0 1 0 1
0 48 -232 106 0 0 1 3 0 1 0 1
phys
0 48 -240 42 0 0 1 3 0 1 0 1
0 48 -232 106 0 0 1 3 0 1 0 1
0 48 -232 42 0 0 1 3 0 1 0 1
phys
0 76 -240 106 0 0 1 3 0 1 0 1
0 76 -240 42 0 0 1 3 0 1 0 1
0 76 -232 42 0 0 1 3 0 1 0 1
phys
0 76 -240 106 0 0 1 3 0 1 0 1
0 76 -232 42 0 0 1 3 0 1 0 1
0 76 -232 106 0 0 1 3 0 1 0 1
phys
0 76 -240 42 0 0 1 3 0 1 0 1
0 48 -240 42 0 0 1 3 0 1 0 1
0 48 -232 42 0 0 1 3 0 1 0 1
phys
0 76 -240 42 0 0 1 3 0 1 0 1
0 48 -232 42 0 0 1 3 0 1 0 1
0 76 -232 42 0 0 1 3 0 1 0 1
phys
0 48 -240 106 0 0 1 3 0 1 0 1
0 76 -240 106 0 0 1 3 0 1 0 1
0 76 -232 106 0 0 1 3 0 1 0 1
phys
0 48 -240 106 0 0 1 3 0 1 0 1
0 76 -232 106 0 0 1 3 0 1 0 1
0 48 -232 106 0 0 1 3 0 1 0 1
phys
0 -56 118 0 0 0 1 4 0 1 0 1
0 -56 156 0 0 0 1 4 0 1 0 1
0 -56 156 36 0 0 1 4 0 1 0 1
phys
0 -56 118 0 0 0 1 4 0 1 0 1
0 -56 156 36 0 0 1 4 0 1 0 1
0 -56 118 36 0 0 1 4 0 1 0 1
phys
0 -88 156 0 0 0 1 4 0 1 0 1
0 -56 156 0 0 0 1 4 0 1 0 1
0 -56 118 0 0 0 1 4 0 1 0 1
phys
0 -88 156 0 0 0 1 4 0 1 0 1
0 -56 118 0 0 0 1 4 0 1 0 1
0 -88 118 0 0 0 1 4 0 1 0 1
phys
0 -88 118 36 0 0 1 4 0 1 0 1
0 -56 118 36 0 0 1 4 0 1 0 1
0 -56 156 36 0 0 1 4 0 1 0 1
phys
0 -88 118 36 0 0 1 4 0 1 0 1
0 -56 156 36 0 0 1 4 0 1 0 1
0 -88 156 36 0 0 1 4 0 1 0 1
phys
0 -56 156 36 0 0 1 4 0 1 0 1
0 -56 156 0 0 0 1 4 0 1 0 1
0 -88 156 0 0 0 1 4 0 1 0 1
phys
0 -56 156 36 0 0 1 4 0 1 0 1
0 -88 156 0 0 0 1 4 0 1 0 1
0 -88 156 36 0 0 1 4 0 1 0 1
phys
0 -56 118 0 0 0 1 4 0 1 0 1
0 -56 118 36 0 0 1 4 0 1 0 1
0 -88 118 36 0 0 1 4 0 1 0 1
phys
0 -56 118 0 0 0 1 4 0 1 0 1
0 -88 118 36 0 0 1 4 0 1 0 1
0 -88 118 0 0 0 1 4 0 1 0 1
phys
0 -88 118 36 0 0 1 4 0 1 0 1
0 -88 156 36 0 0 1 4 0 1 0 1
0 -88 156 0 0 0 1 4 0 1 0 1
phys
0 -88 118 36 0 0 1 4 0 1 0 1
0 -88 156 0 0 0 1 4 0 1 0 1
0 -88 118 0 0 0 1 4 0 1 0 1
phys
0 -142 144 38 0 0 1 5 0 1 0 1
0 -142 144 36 0 0 1 5 0 1 0 1
0 -148 144 36 0 0 1 5 0 1 0 1
phys
0 -142 144 38 0 0 1 5 0 1 0 1
0 -148 144 36 0 0 1 5 0 1 0 1
0 -148 144 38 0 0 1 5 0 1 0 1
phys
0 -142 104 36 0 0 1 5 0 1 0 1
0 -142 104 38 0 0 1 5 0 1 0 1
0 -148 104 38 0 0 1 5 0 1 0 1
phys
0 -142 104 36 0 0 1 5 0 1 0 1
0 -148 104 38 0 0 1 5 0 1 0 1
0 -148 104 36 0 0 1 5 0 1 0 1
phys
0 -148 104 36 0 0 1 5 0 1 0 1
0 -148 104 38 0 0 1 5 0 1 0 1
0 -148 144 38 0 0 1 5 0 1 0 1
phys
0 -148 104 36 0 0 1 5 0 1 0 1
0 -148 144 38 0 0 1 5 0 1 0 1
0 -148 144 36 0 0 1 5 0 1 0 1
phys
0 -142 104 38 0 0 1 5 0 1 0 1
0 -142 104 36 0 0 1 5 0 1 0 1
0 -142 144 36 0 0 1 5 0 1 0 1
phys
0 -142 104 38 0 0 1 5 0 1 0 1
0 -142 144 36 0 0 1 5 0 1 0 1
0 -142 144 38 0 0 1 5 0 1 0 1
phys
0 -142 104 36 0 0 1 5 0 1 0 1
0 -148 104 36 0 0 1 5 0 1 0 1
0 -148 144 36 0 0 1 5 0 1 0 1
phys
0 -142 104 36 0 0 1 5 0 1 0 1
0 -148 144 36 0 0 1 5 0 1 0 1
0 -142 144 36 0 0 1 5 0 1 0 1
phys
0 -148 104 38 0 0 1 5 0 1 0 1
0 -142 104 38 0 0 1 5 0 1 0 1
0 -142 144 38 0 0 1 5 0 1 0 1
phys
0 -148 104 38 0 0 1 5 0 1 0 1
0 -142 144 38 0 0 1 5 0 1 0 1
0 -148 144 38 0 0 1 5 0 1 0 1
phys
0 -144 144 0 0 0 1 6 0 1 0 1
0 -176 144 0 0 0 1 6 0 1 0 1
0 -176 240 0 0 0 1 6 0 1 0 1
phys
0 -144 144 0 0 0 1 6 0 1 0 1
0 -176 240 0 0 0 1 6 0 1 0 1
0 -144 240 0 0 0 1 6 0 1 0 1
phys
0 -176 144 36 0 0 1 6 0 1 0 1
0 -144 144 36 0 0 1 6 0 1 0 1
0 -144 240 36 0 0 1 6 0 1 0 1
phys
0 -176 144 36 0 0 1 6 0 1 0 1
0 -144 240 36 0 0 1 6 0 1 0 1
0 -176 240 36 0 0 1 6 0 1 0 1
phys
0 -144 240 0 0 0 1 6 0 1 0 1
0 -176 240 0 0 0 1 6 0 1 0 1
0 -176 240 36 0 0 1 6 0 1 0 1
phys
0 -144 240 0 0 0 1 6 0 1 0 1
0 -176 240 36 0 0 1 6 0 1 0 1
0 -144 240 36 0 0 1 6 0 1 0 1
phys
0 -144 144 36 0 0 1 6 0 1 0 1
0 -176 144 36 0 0 1 6 0 1 0 1
0 -176 144 0 0 0 1 6 0 1 0 1
phys
0 -144 144 36 0 0 1 6 0 1 0 1
0 -176 144 0 0 0 1 6 0 1 0 1
0 -144 144 0 0 0 1 6 0 1 0 1
phys
0 -176 144 36 0 0 1 6 0 1 0 1
0 -176 240 36 0 0 1 6 0 1 0 1
0 -176 240 0 0 0 1 6 0 1 0 1
phys
0 -176 144 36 0 0 1 6 0 1 0 1
0 -176 240 0 0 0 1 6 0 1 0 1
0 -176 144 0 0 0 1 6 0 1 0 1
phys
0 -144 144 0 0 0 1 6 0 1 0 1
0 -144 240 0 0 0 1 6 0 1 0 1
0 -144 240 36 0 0 1 6 0 1 0 1
phys
0 -144 144 0 0 0 1 6 0 1 0 1
0 -144 240 36 0 0 1 6 0 1 0 1
0 -144 144 36 0 0 1 6 0 1 0 1
phys
0 -56 240 112 0 0 1 7 0 1 0 1
0 -56 240 72 0 0 1 7 0 1 0 1
0 -88 240 72 0 0 1 7 0 1 0 1
phys
0 -56 240 112 0 0 1 7 0 1 0 1
0 -88 240 72 0 0 1 7 0 1 0 1
0 -88 240 112 0 0 1 7 0 1 0 1
phys
0 -56 120 72 0 0 1 7 0 1 0 1
0 -56 120 112 0 0 1 7 0 1 0 1
0 -88 120 112 0 0 1 7 0 1 0 1
phys
0 -56 120 72 0 0 1 7 0 1 0 1
0 -88 120 112 0 0 1 7 0 1 0 1
0 -88 120 72 0 0 1 7 0 1 0 1
phys
0 -88 120 72 0 0 1 7 0 1 0 1
0 -88 120 112 0 0 1 7 0 1 0 1
0 -88 240 112 0 0 1 7 0 1 0 1
phys
0 -88 120 72 0 0 1 7 0 1 0 1
0 -88 240 112 0 0 1 7 0 1 0 1
0 -88 240 72 0 0 1 7 0 1 0 1
phys
0 -56 120 112 0 0 1 7 0 1 0 1
0 -56 120 72 0 0 1 7 0 1 0 1
0 -56 240 72 0 0 1 7 0 1 0 1
phys
0 -56 120 112 0 0 1 7 0 1 0 1
0 -56 240 72 0 0 1 7 0 1 0 1
0 -56 240 112 0 0 1 7 0 1 0 1
phys
0 -56 120 72 0 0 1 7 0 1 0 1
0 -88 120 72 0 0 1 7 0 1 0 1
0 -88 240 72 0 0 1 7 0 1 0 1
phys
0 -56 120 72 0 0 1 7 0 1 0 1
0 -88 240 72 0 0 1 7 0 1 0 1
0 -56 240 72 0 0 1 7 0 1 0 1
phys
0 -88 120 112 0 0 1 7 0 1 0 1
0 -56 120 112 0 0 1 7 0 1 0 1
0 -56 240 112 0 0 1 7 0 1 0 1
phys
0 -88 120 112 0 0 1 7 0 1 0 1
0 -56 240 112 0 0 1 7 0 1 0 1
0 -88 240 112 0 0 1 7 0 1 0 1
phys
0 -176 80 38 0 0 1 8 0 1 0 1
0 -176 104 38 0 0 1 8 0 1 0 1
0 -176 104 36 0 0 1 8 0 1 0 1
phys
0 -176 80 38 0 0 1 8 0 1 0 1
0 -176 104 36 0 0 1 8 0 1 0 1
0 -176 80 36 0 0 1 8 0 1 0 1
phys
0 -142 80 36 0 0 1 8 0 1 0 1
0 -142 104 36 0 0 1 8 0 1 0 1
0 -142 104 38 0 0 1 8 0 1 0 1
phys
0 -142 80 36 0 0 1 8 0 1 0 1
0 -142 104 38 0 0 1 8 0 1 0 1
0 -142 80 38 0 0 1 8 0 1 0 1
phys
0 -176 80 36 0 0 1 8 0 1 0 1
0 -176 104 36 0 0 1 8 0 1 0 1
0 -142 104 36 0 0 1 8 0 1 0 1
phys
0 -176 80 36 0 0 1 8 0 1 0 1
0 -142 104 36 0 0 1 8 0 1 0 1
0 -142 80 36 0 0 1 8 0 1 0 1
phys
0 -142 80 38 0 0 1 8 0 1 0 1
0 -142 104 38 0 0 1 8 0 1 0 1
0 -176 104 38 0 0 1 8 0 1 0 1
phys
0 -142 80 38 0 0 1 8 0 1 0 1
0 -176 104 38 0 0 1 8 0 1 0 1
0 -176 80 38 0 0 1 8 0 1 0 1
phys
0 -142 104 38 0 0 1 8 0 1 0 1
0 -142 104 36 0 0 1 8 0 1 0 1
0 -176 104 36 0 0 1 8 0 1 0 1
phys
0 -142 104 38 0 0 1 8 0 1 0 1
0 -176 104 36 0 0 1 8 0 1 0 1
0 -176 104 38 0 0 1 8 0 1 0 1
phys
0 -142 80 36 0 0 1 8 0 1 0 1
0 -142 80 38 0 0 1 8 0 1 0 1
0 -176 80 38 0 0 1 8 0 1 0 1
phys
0 -142 80 36 0 0 1 8 0 1 0 1
0 -176 80 38 0 0 1 8 0 1 0 1
0 -176 80 36 0 0 1 8 0 1 0 1
phys
0 -144 104 36 0 0 1 9 0 1 0 1
0 -144 104 0 0 0 1 9 0 1 0 1
0 -176 104 0 0 0 1 9 0 1 0 1
phys
0 -144 104 36 0 0 1 9 0 1 0 1
0 -176 104 0 0 0 1 9 0 1 0 1
0 -176 104 36 0 0 1 9 0 1 0 1
phys
0 -144 82 0 0 0 1 9 0 1 0 1
0 -144 82 36 0 0 1 9 0 1 0 1
0 -176 82 36 0 0 1 9 0 1 0 1
phys
0 -144 82 0 0 0 1 9 0 1 0 1
0 -176 82 36 0 0 1 9 0 1 0 1
0 -176 82 0 0 0 1 9 0 1 0 1
phys
0 -176 82 0 0 0 1 9 0 1 0 1
0 -176 82 36 0 0 1 9 0 1 0 1
0 -176 104 36 0 0 1 9 0 1 0 1
phys
0 -176 82 0 0 0 1 9 0 1 0 1
0 -176 104 36 0 0 1 9 0 1 0 1
0 -176 104 0 0 0 1 9 0 1 0 1
phys
0 -144 82 36 0 0 1 9 0 1 0 1
0 -144 82 0 0 0 1 9 0 1 0 1
0 -144 104 0 0 0 1 9 0 1 0 1
phys
0 -144 82 36 0 0 1 9 0 1 0 1
0 -144 104 0 0 0 1 9 0 1 0 1
0 -144 104 36 0 0 1 9 0 1 0 1
phys
0 -144 82 0 0 0 1 9 0 1 0 1
0 -176 82 0 0 0 1 9 0 1 0 1
0 -176 104 0 0 0 1 9 0 1 0 1
phys
0 -144 82 0 0 0 1 9 0 1 0 1
0 -176 104 0 0 0 1 9 0 1 0 1
0 -144 104 0 0 0 1 9 0 1 0 1
phys
0 -176 82 36 0 0 1 9 0 1 0 1
0 -144 82 36 0 0 1 9 0 1 0 1
0 -144 104 36 0 0 1 9 0 1 0 1
phys
0 -176 82 36 0 0 1 9 0 1 0 1
0 -144 104 36 0 0 1 9 0 1 0 1
0 -176 104 36 0 0 1 9 0 1 0 1
phys
0 48 -238 42 0 0 1 10 0 1 0 1
0 48 -238 106 0 0 1 10 0 1 0 1
0 -32 -238 106 0 0 1 10 0 1 0 1
phys
0 48 -238 42 0 0 1 10 0 1 0 1
0 -32 -238 106 0 0 1 10 0 1 0 1
0 -32 -238 42 0 0 1 10 0 1 0 1
phys
0 -32 -238 42 0 0 1 10 0 1 0 1
0 -32 -238 106 0 0 1 10 0 1 0 1
0 -32 -237 106 0 0 1 10 0 1 0 1
phys
0 -32 -238 42 0 0 1 10 0 1 0 1
0 -32 -237 106 0 0 1 10 0 1 0 1
0 -32 -237 42 0 0 1 10 0 1 0 1
phys
0 48 -238 106 0 0 1 10 0 1 0 1
0 48 -238 42 0 0 1 10 0 1 0 1
0 48 -237 42 0 0 1 10 0 1 0 1
phys
0 48 -238 106 0 0 1 10 0 1 0 1
0 48 -237 42 0 0 1 10 0 1 0 1
0 48 -237 106 0 0 1 10 0 1 0 1
phys
0 48 -238 42 0 0 1 10 0 1 0 1
0 -32 -238 42 0 0 1 10 0 1 0 1
0 -32 -237 42 0 0 1 10 0 1 0 1
phys
0 48 -238 42 0 0 1 10 0 1 0 1
0 -32 -237 42 0 0 1 10 0 1 0 1
0 48 -237 42 0 0 1 10 0 1 0 1
phys
0 -32 -238 106 0 0 1 10 0 1 0 1
0 48 -238 106 0 0 1 10 0 1 0 1
0 48 -237 106 0 0 1 10 0 1 0 1
phys
0 -32 -238 106 0 0 1 10 0 1 0 1
0 48 -237 106 0 0 1 10 0 1 0 1
0 -32 -237 106 0 0 1 10 0 1 0 1
phys
0 48 -237 106 0 0 1 10 0 1 0 1
0 48 -237 42 0 0 1 10 0 1 0 1
0 -32 -237 42 0 0 1 10 0 1 0 1
phys
0 48 -237 106 0 0 1 10 0 1 0 1
0 -32 -237 42 0 0 1 10 0 1 0 1
0 -32 -237 106 0 0 1 10 0 1 0 1
phys
0 -56 240 36 0 0 1 11 0 1 0 1
0 -56 240 0 0 0 1 11 0 1 0 1
0 -88 240 0 0 0 1 11 0 1 0 1
phys
0 -56 240 36 0 0 1 11 0 1 0 1
0 -88 240 0 0 0 1 11 0 1 0 1
0 -88 240 36 0 0 1 11 0 1 0 1
phys
0 -56 192 0 0 0 1 11 0 1 0 1
0 -56 192 36 0 0 1 11 0 1 0 1
0 -88 192 36 0 0 1 11 0 1 0 1
phys
0 -56 192 0 0 0 1 11 0 1 0 1
0 -88 192 36 0 0 1 11 0 1 0 1
0 -88 192 0 0 0 1 11 0 1 0 1
phys
0 -88 192 0 0 0 1 11 0 1 0 1
0 -88 192 36 0 0 1 11 0 1 0 1
0 -88 240 36 0 0 1 11 0 1 0 1
phys
0 -88 192 0 0 0 1 11 0 1 0 1
0 -88 240 36 0 0 1 11 0 1 0 1
0 -88 240 0 0 0 1 11 0 1 0 1
phys
0 -56 192 36 0 0 1 11 0 1 0 1
0 -56 192 0 0 0 1 11 0 1 0 1
0 -56 240 0 0 0 1 11 0 1 0 1
phys
0 -56 192 36 0 0 1 11 0 1 0 1
0 -56 240 0 0 0 1 11 0 1 0 1
0 -56 240 36 0 0 1 11 0 1 0 1
phys
0 -56 192 0 0 0 1 11 0 1 0 1
0 -88 192 0 0 0 1 11 0 1 0 1
0 -88 240 0 0 0 1 11 0 1 0 1
phys
0 -56 192 0 0 0 1 11 0 1 0 1
0 -88 240 0 0 0 1 11 0 1 0 1
0 -56 240 0 0 0 1 11 0 1 0 1
phys
0 -88 192 36 0 0 1 11 0 1 0 1
0 -56 192 36 0 0 1 11 0 1 0 1
0 -56 240 36 0 0 1 11 0 1 0 1
phys
0 -88 192 36 0 0 1 11 0 1 0 1
0 -56 240 36 0 0 1 11 0 1 0 1
0 -88 240 36 0 0 1 11 0 1 0 1
phys
0 76 -232 42 0 0 1 12 0 1 0 1
0 76 -232 0 0 0 1 12 0 1 0 1
0 -208 -232 0 0 0 1 12 0 1 0 1
phys
0 76 -232 42 0 0 1 12 0 1 0 1
0 -208 -232 0 0 0 1 12 0 1 0 1
0 -179.3 -232 42 0 0 1 12 0 1 0 1
phys
0 76 -240 0 0 0 1 12 0 1 0 1
0 76 -240 42 0 0 1 12 0 1 0 1
0 -179.3 -240 42 0 0 1 12 0 1 0 1
phys
0 76 -240 0 0 0 1 12 0 1 0 1
0 -179.3 -240 42 0 0 1 12 0 1 0 1
0 -208 -240 0 0 0 1 12 0 1 0 1
phys
0 76 -240 42 0 0 1 12 0 1 0 1
0 76 -240 0 0 0 1 12 0 1 0 1
0 76 -232 0 0 0 1 12 0 1 0 1
phys
0 76 -240 42 0 0 1 12 0 1 0 1
0 76 -232 0 0 0 1 12 0 1 0 1
0 76 -232 42 0 0 1 12 0 1 0 1
phys
0 76 -240 0 0 0 1 12 0 1 0 1
0 -208 -240 0 0 0 1 12 0 1 0 1
0 -208 -232 0 0 0 1 12 0 1 0 1
phys
0 76 -240 0 0 0 1 12 0 1 0 1
0 -208 -232 0 0 0 1 12 0 1 0 1
0 76 -232 0 0 0 1 12 0 1 0 1
phys
0 -179.3 -240 42 0 0 1 12 0 1 0 1
0 76 -240 42 0 0 1 12 0 1 0 1
0 76 -232 42 0 0 1 12 0 1 0 1
phys
0 -179.3 -240 42 0 0 1 12 0 1 0 1
0 76 -232 42 0 0 1 12 0 1 0 1
0 -179.3 -232 42 0 0 1 12 0 1 0 1
phys
0 -208 -240 0 0 0 1 12 0 1 0 1
0 -179.3 -240 42 0 0 1 12 0 1 0 1
0 -179.3 -232 42 0 0 1 12 0 1 0 1
phys
0 -208 -240 0 0 0 1 12 0 1 0 1
0 -179.3 -232 42 0 0 1 12 0 1 0 1
0 -208 -232 0 0 0 1 12 0 1 0 1
phys
0 135.5 -240 106 0 0 1 13 0 1 0 1
0 128 -240 106 0 0 1 13 0 1 0 1
0 128 -240 0 0 0 1 13 0 1 0 1
phys
0 135.5 -240 106 0 0 1 13 0 1 0 1
0 128 -240 0 0 0 1 13 0 1 0 1
0 208 -240 0 0 0 1 13 0 1 0 1
phys
0 128 -240 0 0 0 1 13 0 1 0 1
0 128 -240 106 0 0 1 13 0 1 0 1
0 128 -232 106 0 0 1 13 0 1 0 1
phys
0 128 -240 0 0 0 1 13 0 1 0 1
0 128 -232 106 0 0 1 13 0 1 0 1
0 128 -232 0 0 0 1 13 0 1 0 1
phys
0 208 -240 0 0 0 1 13 0 1 0 1
0 128 -240 0 0 0 1 13 0 1 0 1
0 128 -232 0 0 0 1 13 0 1 0 1
phys
0 208 -240 0 0 0 1 13 0 1 0 1
0 128 -232 0 0 0 1 13 0 1 0 1
0 208 -232 0 0 0 1 13 0 1 0 1
phys
0 128 -240 106 0 0 1 13 0 1 0 1
0 135.5 -240 106 0 0 1 13 0 1 0 1
0 135.5 -232 106 0 0 1 13 0 1 0 1
phys
0 128 -240 106 0 0 1 13 0 1 0 1
0 135.5 -232 106 0 0 1 13 0 1 0 1
0 128 -232 106 0 0 1 13 0 1 0 1
phys
0 135.5 -240 106 0 0 1 13 0 1 0 1
0 208 -240 0 0 0 1 13 0 1 0 1
0 208 -232 0 0 0 1 13 0 1 0 1
phys
0 135.5 -240 106 0 0 1 13 0 1 0 1
0 208 -232 0 0 0 1 13 0 1 0 1
0 135.5 -232 106 0 0 1 13 0 1 0 1
phys
0 208 -232 0 0 0 1 13 0 1 0 1
0 128 -232 0 0 0 1 13 0 1 0 1
0 128 -232 106 0 0 1 13 0 1 0 1
phys
0 208 -232 0 0 0 1 13 0 1 0 1
0 128 -232 106 0 0 1 13 0 1 0 1
0 135.5 -232 106 0 0 1 13 0 1 0 1
phys
0 -56 156 38 0 0 1 14 0 1 0 1
0 -56 156 36 0 0 1 14 0 1 0 1
0 -90 156 36 0 0 1 14 0 1 0 1
phys
0 -56 156 38 0 0 1 14 0 1 0 1
0 -90 156 36 0 0 1 14 0 1 0 1
0 -90 156 38 0 0 1 14 0 1 0 1
phys
0 -90 115.98 38 0 0 1 14 0 1 0 1
0 -90 156 38 0 0 1 14 0 1 0 1
0 -90 156 36 0 0 1 14 0 1 0 1
phys
0 -90 115.98 38 0 0 1 14 0 1 0 1
0 -90 156 36 0 0 1 14 0 1 0 1
0 -90 116 36 0 0 1 14 0 1 0 1
phys
0 -56 116 36 0 0 1 14 0 1 0 1
0 -56 156 36 0 0 1 14 0 1 0 1
0 -56 156 38 0 0 1 14 0 1 0 1
phys
0 -56 116 36 0 0 1 14 0 1 0 1
0 -56 156 38 0 0 1 14 0 1 0 1
0 -56 115.98 38 0 0 1 14 0 1 0 1
phys
0 -90 116 36 0 0 1 14 0 1 0 1
0 -90 156 36 0 0 1 14 0 1 0 1
0 -56 156 36 0 0 1 14 0 1 0 1
phys
0 -90 116 36 0 0 1 14 0 1 0 1
0 -56 156 36 0 0 1 14 0 1 0 1
0 -56 116 36 0 0 1 14 0 1 0 1
phys
0 -56 115.98 38 0 0 1 14 0 1 0 1
0 -56 156 38 0 0 1 14 0 1 0 1
0 -90 156 38 0 0 1 14 0 1 0 1
phys
0 -56 115.98 38 0 0 1 14 0 1 0 1
0 -90 156 38 0 0 1 14 0 1 0 1
0 -90 115.98 38 0 0 1 14 0 1 0 1
phys
0 -90 115.98 38 0 0 1 14 0 1 0 1
0 -90 116 36 0 0 1 14 0 1 0 1
0 -56 116 36 0 0 1 14 0 1 0 1
phys
0 -90 115.98 38 0 0 1 14 0 1 0 1
0 -56 116 36 0 0 1 14 0 1 0 1
0 -56 115.98 38 0 0 1 14 0 1 0 1
phys
0 -48 -237 106 0 0 1 15 0 1 0 1
0 -48 -237 42 0 0 1 15 0 1 0 1
0 -128 -237 42 0 0 1 15 0 1 0 1
phys
0 -48 -237 106 0 0 1 15 0 1 0 1
0 -128 -237 42 0 0 1 15 0 1 0 1
0 -128 -237 106 0 0 1 15 0 1 0 1
phys
0 -48 -238 42 0 0 1 15 0 1 0 1
0 -48 -238 106 0 0 1 15 0 1 0 1
0 -128 -238 106 0 0 1 15 0 1 0 1
phys
0 -48 -238 42 0 0 1 15 0 1 0 1
0 -128 -238 106 0 0 1 15 0 1 0 1
0 -128 -238 42 0 0 1 15 0 1 0 1
phys
0 -128 -238 42 0 0 1 15 0 1 0 1
0 -128 -238 106 0 0 1 15 0 1 0 1
0 -128 -237 106 0 0 1 15 0 1 0 1
phys
0 -128 -238 42 0 0 1 15 0 1 0 1
0 -128 -237 106 0 0 1 15 0 1 0 1
0 -128 -237 42 0 0 1 15 0 1 0 1
phys
0 -48 -238 106 0 0 1 15 0 1 0 1
0 -48 -238 42 0 0 1 15 0 1 0 1
0 -48 -237 42 0 0 1 15 0 1 0 1
phys
0 -48 -238 106 0 0 1 15 0 1 0 1
0 -48 -237 42 0 0 1 15 0 1 0 1
0 -48 -237 106 0 0 1 15 0 1 0 1
phys
0 -48 -238 42 0 0 1 15 0 1 0 1
0 -128 -238 42 0 0 1 15 0 1 0 1
0 -128 -237 42 0 0 1 15 0 1 0 1
phys
0 -48 -238 42 0 0 1 15 0 1 0 1
0 -128 -237 42 0 0 1 15 0 1 0 1
0 -48 -237 42 0 0 1 15 0 1 0 1
phys
0 -128 -238 106 0 0 1 15 0 1 0 1
0 -48 -238 106 0 0 1 15 0 1 0 1
0 -48 -237 106 0 0 1 15 0 1 0 1
phys
0 -128 -238 106 0 0 1 15 0 1 0 1
0 -48 -237 106 0 0 1 15 0 1 0 1
0 -128 -237 106 0 0 1 15 0 1 0 1
phys
0 -48 -240 106 0 0 1 16 0 1 0 1
0 -32 -240 106 0 0 1 16 0 1 0 1
0 -32 -232 106 0 0 1 16 0 1 0 1
phys
0 -48 -240 106 0 0 1 16 0 1 0 1
0 -32 -232 106 0 0 1 16 0 1 0 1
0 -48 -232 106 0 0 1 16 0 1 0 1
phys
0 -48 -232 42 0 0 1 16 0 1 0 1
0 -48 -232 106 0 0 1 16 0 1 0 1
0 -32 -232 106 0 0 1 16 0 1 0 1
phys
0 -48 -232 42 0 0 1 16 0 1 0 1
0 -32 -232 106 0 0 1 16 0 1 0 1
0 -32 -232 42 0 0 1 16 0 1 0 1
phys
0 -32 -240 42 0 0 1 16 0 1 0 1
0 -32 -240 106 0 0 1 16 0 1 0 1
0 -48 -240 106 0 0 1 16 0 1 0 1
phys
0 -32 -240 42 0 0 1 16 0 1 0 1
0 -48 -240 106 0 0 1 16 0 1 0 1
0 -48 -240 42 0 0 1 16 0 1 0 1
phys
0 -48 -240 42 0 0 1 16 0 1 0 1
0 -48 -240 106 0 0 1 16 0 1 0 1
0 -48 -232 106 0 0 1 16 0 1 0 1
phys
0 -48 -240 42 0 0 1 16 0 1 0 1
0 -48 -232 106 0 0 1 16 0 1 0 1
0 -48 -232 42 0 0 1 16 0 1 0 1
phys
0 -32 -232 42 0 0 1 16 0 1 0 1
0 -32 -232 106 0 0 1 16 0 1 0 1
0 -32 -240 106 0 0 1 16 0 1 0 1
phys
0 -32 -232 42 0 0 1 16 0 1 0 1
0 -32 -240 106 0 0 1 16 0 1 0 1
0 -32 -240 42 0 0 1 16 0 1 0 1
phys
0 -32 -240 42 0 0 1 16 0 1 0 1
0 -48 -240 42 0 0 1 16 0 1 0 1
0 -48 -232 42 0 0 1 16 0 1 0 1
phys
0 -32 -240 42 0 0 1 16 0 1 0 1
0 -48 -232 42 0 0 1 16 0 1 0 1
0 -32 -232 42 0 0 1 16 0 1 0 1
phys
0 -142 240 38 0 0 1 17 0 1 0 1
0 -142 240 36 0 0 1 17 0 1 0 1
0 -176 240 36 0 0 1 17 0 1 0 1
phys
0 -142 240 38 0 0 1 17 0 1 0 1
0 -176 240 36 0 0 1 17 0 1 0 1
0 -176 240 38 0 0 1 17 0 1 0 1
phys
0 -142 144 36 0 0 1 17 0 1 0 1
0 -142 144 38 0 0 1 17 0 1 0 1
0 -176 144 38 0 0 1 17 0 1 0 1
phys
0 -142 144 36 0 0 1 17 0 1 0 1
0 -176 144 38 0 0 1 17 0 1 0 1
0 -176 144 36 0 0 1 17 0 1 0 1
phys
0 -176 144 36 0 0 1 17 0 1 0 1
0 -176 144 38 0 0 1 17 0 1 0 1
0 -176 240 38 0 0 1 17 0 1 0 1
phys
0 -176 144 36 0 0 1 17 0 1 0 1
0 -176 240 38 0 0 1 17 0 1 0 1
0 -176 240 36 0 0 1 17 0 1 0 1
phys
0 -142 144 38 0 0 1 17 0 1 0 1
0 -142 144 36 0 0 1 17 0 1 0 1
0 -142 240 36 0 0 1 17 0 1 0 1
phys
0 -142 144 38 0 0 1 17 0 1 0 1
0 -142 240 36 0 0 1 17 0 1 0 1
0 -142 240 38 0 0 1 17 0 1 0 1
phys
0 -142 144 36 0 0 1 17 0 1 0 1
0 -176 144 36 0 0 1 17 0 1 0 1
0 -176 240 36 0 0 1 17 0 1 0 1
phys
0 -142 144 36 0 0 1 17 0 1 0 1
0 -176 240 36 0 0 1 17 0 1 0 1
0 -142 240 36 0 0 1 17 0 1 0 1
phys
0 -176 144 38 0 0 1 17 0 1 0 1
0 -142 144 38 0 0 1 17 0 1 0 1
0 -142 240 38 0 0 1 17 0 1 0 1
phys
0 -176 144 38 0 0 1 17 0 1 0 1
0 -142 240 38 0 0 1 17 0 1 0 1
0 -176 240 38 0 0 1 17 0 1 0 1
phys
0 -56 240 38 0 0 1 18 0 1 0 1
0 -56 240 36 0 0 1 18 0 1 0 1
0 -90 240 36 0 0 1 18 0 1 0 1
phys
0 -56 240 38 0 0 1 18 0 1 0 1
0 -90 240 36 0 0 1 18 0 1 0 1
0 -90 240 38 0 0 1 18 0 1 0 1
phys
0 -56 192 36 0 0 1 18 0 1 0 1
0 -56 192 38 0 0 1 18 0 1 0 1
0 -90 192 38 0 0 1 18 0 1 0 1
phys
0 -56 192 36 0 0 1 18 0 1 0 1
0 -90 192 38 0 0 1 18 0 1 0 1
0 -90 192 36 0 0 1 18 0 1 0 1
phys
0 -90 192 36 0 0 1 18 0 1 0 1
0 -90 192 38 0 0 1 18 0 1 0 1
0 -90 240 38 0 0 1 18 0 1 0 1
phys
0 -90 192 36 0 0 1 18 0 1 0 1
0 -90 240 38 0 0 1 18 0 1 0 1
0 -90 240 36 0 0 1 18 0 1 0 1
phys
0 -56 192 38 0 0 1 18 0 1 0 1
0 -56 192 36 0 0 1 18 0 1 0 1
0 -56 240 36 0 0 1 18 0 1 0 1
phys
0 -56 192 38 0 0 1 18 0 1 0 1
0 -56 240 36 0 0 1 18 0 1 0 1
0 -56 240 38 0 0 1 18 0 1 0 1
phys
0 -56 192 36 0 0 1 18 0 1 0 1
0 -90 192 36 0 0 1 18 0 1 0 1
0 -90 240 36 0 0 1 18 0 1 0 1
phys
0 -56 192 36 0 0 1 18 0 1 0 1
0 -90 240 36 0 0 1 18 0 1 0 1
0 -56 240 36 0 0 1 18 0 1 0 1
phys
0 -90 192 38 0 0 1 18 0 1 0 1
0 -56 192 38 0 0 1 18 0 1 0 1
0 -56 240 38 0 0 1 18 0 1 0 1
phys
0 -90 192 38 0 0 1 18 0 1 0 1
0 -56 240 38 0 0 1 18 0 1 0 1
0 -90 240 38 0 0 1 18 0 1 0 1
phys
0 -128 -232 106 0 0 1 19 0 1 0 1
0 -128 -232 42 0 0 1 19 0 1 0 1
0 -179.3 -232 42 0 0 1 19 0 1 0 1
phys
0 -128 -232 106 0 0 1 19 0 1 0 1
0 -179.3 -232 42 0 0 1 19 0 1 0 1
0 -135.5 -232 106 0 0 1 19 0 1 0 1
phys
0 -128 -240 42 0 0 1 19 0 1 0 1
0 -128 -240 106 0 0 1 19 0 1 0 1
0 -135.5 -240 106 0 0 1 19 0 1 0 1
phys
0 -128 -240 42 0 0 1 19 0 1 0 1
0 -135.5 -240 106 0 0 1 19 0 1 0 1
0 -179.3 -240 42 0 0 1 19 0 1 0 1
phys
0 -128 -240 106 0 0 1 19 0 1 0 1
0 -128 -240 42 0 0 1 19 0 1 0 1
0 -128 -232 42 0 0 1 19 0 1 0 1
phys
0 -128 -240 106 0 0 1 19 0 1 0 1
0 -128 -232 42 0 0 1 19 0 1 0 1
0 -128 -232 106 0 0 1 19 0 1 0 1
phys
0 -128 -240 42 0 0 1 19 0 1 0 1
0 -179.3 -240 42 0 0 1 19 0 1 0 1
0 -179.3 -232 42 0 0 1 19 0 1 0 1
phys
0 -128 -240 42 0 0 1 19 0 1 0 1
0 -179.3 -232 42 0 0 1 19 0 1 0 1
0 -128 -232 42 0 0 1 19 0 1 0 1
phys
0 -135.5 -240 106 0 0 1 19 0 1 0 1
0 -128 -240 106 0 0 1 19 0 1 0 1
0 -128 -232 106 0 0 1 19 0 1 0 1
phys
0 -135.5 -240 106 0 0 1 19 0 1 0 1
0 -128 -232 106 0 0 1 19 0 1 0 1
0 -135.5 -232 106 0 0 1 19 0 1 0 1
phys
0 -179.3 -240 42 0 0 1 19 0 1 0 1
0 -135.5 -240 106 0 0 1 19 0 1 0 1
0 -135.5 -232 106 0 0 1 19 0 1 0 1
phys
0 -179.3 -240 42 0 0 1 19 0 1 0 1
0 -135.5 -232 106 0 0 1 19 0 1 0 1
0 -179.3 -232 42 0 0 1 19 0 1 0 1
end
