version 1
nodes
0 "root" -1
end
skeleton
time 0
0 0 0 0 0 0 0
end
triangles
wood_cabinets03
0 -144 104 36 1 0 0 103.474645 -15.002406 1 0 1
0 -144 104 0 1 0 0 103.474645 -16.002584 1 0 1
0 -144 144 0 1 0 0 102.363337 -16.002584 1 0 1
wood_cabinets03
0 -144 104 36 1 0 0 103.474645 -15.002406 1 0 1
0 -144 144 0 1 0 0 102.363337 -16.002584 1 0 1
0 -144 144 36 1 0 0 102.363337 -15.002406 1 0 1
realworldtextures2_misc_granite_03
0 -176 104 36 -1 0 0 28.90625 -2.90625 1 0 1
0 -176 104 38 -1 0 0 28.90625 -2.890625 1 0 1
0 -176 144 38 -1 0 0 28.59375 -2.890625 1 0 1
realworldtextures2_misc_granite_03
0 -176 104 36 -1 0 0 28.90625 -2.90625 1 0 1
0 -176 144 38 -1 0 0 28.59375 -2.890625 1 0 1
0 -176 144 36 -1 0 0 28.59375 -2.90625 1 0 1
realworldtextures2_misc_granite_03
0 -176 104 38 0 0 1 28.998047 -24.738281 1 0 1
0 -172 104 38 0 0 1 28.998047 -24.769531 1 0 1
0 -172 144 38 0 0 1 28.685547 -24.769531 1 0 1
realworldtextures2_misc_granite_03
0 -176 104 38 0 0 1 28.998047 -24.738281 1 0 1
0 -172 144 38 0 0 1 28.685547 -24.769531 1 0 1
0 -176 144 38 0 0 1 28.685547 -24.738281 1 0 1
realworldtextures2_wood_wood_26
0 76 -232 106 0 1 0 -26.96875 -2.921875 1 0 1
0 76 -232 42 0 1 0 -26.96875 -3.421875 1 0 1
0 48 -232 42 0 1 0 -26.75 -3.421875 1 0 1
realworldtextures2_wood_wood_26
0 76 -232 106 0 1 0 -26.96875 -2.921875 1 0 1
0 48 -232 42 0 1 0 -26.75 -3.421875 1 0 1
0 48 -232 106 0 1 0 -26.75 -2.921875 1 0 1
realworldtextures2_wood_wood_26
0 76 -240 42 0 -1 0 -26.96875 -3.421875 1 0 1
0 76 -240 106 0 -1 0 -26.96875 -2.921875 1 0 1
0 48 -240 106 0 -1 0 -26.75 -2.921875 1 0 1
realworldtextures2_wood_wood_26
0 76 -240 42 0 -1 0 -26.96875 -3.421875 1 0 1
0 48 -240 106 0 -1 0 -26.75 -2.921875 1 0 1
0 48 -240 42 0 -1 0 -26.75 -3.421875 1 0 1
realworldtextures2_wood_wood_26
0 48 -240 42 -1 0 0 -31 -3.421875 1 0 1
0 48 -240 106 -1 0 0 -31 -2.921875 1 0 1
0 48 -232 106 -1 0 0 -30.9375 -2.921875 1 0 1
realworldtextures2_wood_wood_26
0 48 -240 42 -1 0 0 -31 -3.421875 1 0 1
0 48 -232 106 -1 0 0 -30.9375 -2.921875 1 0 1
0 48 -232 42 -1 0 0 -30.9375 -3.421875 1 0 1
realworldtextures2_wood_wood_26
0 76 -240 106 1 0 0 -31 -2.921875 1 0 1
0 76 -240 42 1 0 0 -31 -3.421875 1 0 1
0 76 -232 42 1 0 0 -30.9375 -3.421875 1 0 1
realworldtextures2_wood_wood_26
0 76 -240 106 1 0 0 -31 -2.921875 1 0 1
0 76 -232 42 1 0 0 -30.9375 -3.421875 1 0 1
0 76 -232 106 1 0 0 -30.9375 -2.921875 1 0 1
wood_cabinets04
0 -56 156 36 0 1 0 -92.12964 -15.002406 1 0 1
0 -56 156 0 0 1 0 -92.12964 -16.002584 1 0 1
0 -88 156 0 0 1 0 -91.240593 -16.002584 1 0 1
wood_cabinets04
0 -56 156 36 0 1 0 -92.12964 -15.002406 1 0 1
0 -88 156 0 0 1 0 -91.240593 -16.002584 1 0 1
0 -88 156 36 0 1 0 -91.240593 -15.002406 1 0 1
wood_cabinets04
0 -56 118 0 0 -1 0 -91.75464 -16.002584 1 0 1
0 -56 118 36 0 -1 0 -91.75464 -15.002406 1 0 1
0 -88 118 36 0 -1 0 -90.865593 -15.002406 1 0 1
wood_cabinets04
0 -56 118 0 0 -1 0 -91.75464 -16.002584 1 0 1
0 -88 118 36 0 -1 0 -90.865593 -15.002406 1 0 1
0 -88 118 0 0 -1 0 -90.865593 -16.002584 1 0 1
wood_cabinets03
0 -88 118 36 -1 0 0 97.278817 -15.002406 1 0 1
0 -88 156 36 -1 0 0 96.279238 -15.002406 1 0 1
0 -88 156 0 -1 0 0 96.279238 -16.002584 1 0 1
wood_cabinets03
0 -88 118 36 -1 0 0 97.278817 -15.002406 1 0 1
0 -88 156 0 -1 0 0 96.279238 -16.002584 1 0 1
0 -88 118 0 -1 0 0 97.278817 -16.002584 1 0 1
realworldtextures2_misc_granite_03
0 -142 104 38 1 0 0 28.998047 -3.128906 1 0 1
0 -142 104 36 1 0 0 28.998047 -3.144531 1 0 1
0 -142 144 36 1 0 0 28.685547 -3.144531 1 0 1
realworldtextures2_misc_granite_03
0 -142 104 38 1 0 0 28.998047 -3.128906 1 0 1
0 -142 144 36 1 0 0 28.685547 -3.144531 1 0 1
0 -142 144 38 1 0 0 28.685547 -3.128906 1 0 1
realworldtextures2_misc_granite_01
0 -142 104 36 0 0 -1 28.65625 -24.328125 1 0 1
0 -148 104 36 0 0 -1 28.65625 -24.28125 1 0 1
0 -148 144 36 0 0 -1 28.34375 -24.28125 1 0 1
realworldtextures2_misc_granite_01
0 -142 104 36 0 0 -1 28.65625 -24.328125 1 0 1
0 -148 144 36 0 0 -1 28.34375 -24.28125 1 0 1
0 -142 144 36 0 0 -1 28.34375 -24.328125 1 0 1
realworldtextures2_misc_granite_03
0 -148 104 38 0 0 1 28.998047 -24.957031 1 0 1
0 -142 104 38 0 0 1 28.998047 -25.003906 1 0 1
0 -142 144 38 0 0 1 28.685547 -25.003906 1 0 1
realworldtextures2_misc_granite_03
0 -148 104 38 0 0 1 28.998047 -24.957031 1 0 1
0 -142 144 38 0 0 1 28.685547 -25.003906 1 0 1
0 -148 144 38 0 0 1 28.685547 -24.957031 1 0 1
wood_cabinets03
0 -144 144 0 1 0 0 102.460993 -16.002584 1 0 1
0 -144 240 0 1 0 0 99.793852 -16.002584 1 0 1
0 -144 240 36 1 0 0 99.793852 -15.002406 1 0 1
wood_cabinets03
0 -144 144 0 1 0 0 102.460993 -16.002584 1 0 1
0 -144 240 36 1 0 0 99.793852 -15.002406 1 0 1
0 -144 144 36 1 0 0 102.460993 -15.002406 1 0 1
props_woodcrate003d
0 -56 240 112 0 1 0 -103.5 -14.59375 1 0 1
0 -56 240 72 0 1 0 -103.5 -15.84375 1 0 1
0 -88 240 72 0 1 0 -102.5 -15.84375 1 0 1
props_woodcrate003d
0 -56 240 112 0 1 0 -103.5 -14.59375 1 0 1
0 -88 240 72 0 1 0 -102.5 -15.84375 1 0 1
0 -88 240 112 0 1 0 -102.5 -14.59375 1 0 1
wood_cabinets04
0 -56 120 72 0 -1 0 -91.571046 -7.677688 1 0 1
0 -56 120 112 0 -1 0 -91.571046 -7.011092 1 0 1
0 -88 120 112 0 -1 0 -90.681999 -7.011092 1 0 1
wood_cabinets04
0 -56 120 72 0 -1 0 -91.571046 -7.677688 1 0 1
0 -88 120 112 0 -1 0 -90.681999 -7.011092 1 0 1
0 -88 120 72 0 -1 0 -90.681999 -7.677688 1 0 1
wood_cabinets03
0 -88 120 72 -1 0 0 -99.513874 9.595656 1 0 1
0 -88 120 112 -1 0 0 -99.513874 8.929061 1 0 1
0 -88 240 112 -1 0 0 -96.281115 8.929061 1 0 1
wood_cabinets03
0 -88 120 72 -1 0 0 -99.513874 9.595656 1 0 1
0 -88 240 112 -1 0 0 -96.281115 8.929061 1 0 1
0 -88 240 72 -1 0 0 -96.281115 9.595656 1 0 1
realworldtextures_walls_westernwhite
0 -56 120 72 0 0 -1 -25.9375 29.28125 1 0 1
0 -88 120 72 0 0 -1 -25.6875 29.28125 1 0 1
0 -88 240 72 0 0 -1 -25.6875 28.34375 1 0 1
realworldtextures_walls_westernwhite
0 -56 120 72 0 0 -1 -25.9375 29.28125 1 0 1
0 -88 240 72 0 0 -1 -25.6875 28.34375 1 0 1
0 -56 240 72 0 0 -1 -25.9375 28.34375 1 0 1
realworldtextures_walls_westernwhite
0 -88 120 112 0 0 1 -25.6875 29.28125 1 0 1
0 -56 120 112 0 0 1 -25.9375 29.28125 1 0 1
0 -56 240 112 0 0 1 -25.9375 28.34375 1 0 1
realworldtextures_walls_westernwhite
0 -88 120 112 0 0 1 -25.6875 29.28125 1 0 1
0 -56 240 112 0 0 1 -25.9375 28.34375 1 0 1
0 -88 240 112 0 0 1 -25.6875 28.34375 1 0 1
realworldtextures2_misc_granite_03
0 -142 80 36 1 0 0 -28.783203 -2.957031 1 0 1
0 -142 104 36 1 0 0 -28.595703 -2.957031 1 0 1
0 -142 104 38 1 0 0 -28.595703 -2.941406 1 0 1
realworldtextures2_misc_granite_03
0 -142 80 36 1 0 0 -28.783203 -2.957031 1 0 1
0 -142 104 38 1 0 0 -28.595703 -2.941406 1 0 1
0 -142 80 38 1 0 0 -28.783203 -2.941406 1 0 1
realworldtextures2_misc_granite_03
0 -142 80 38 0 0 1 -25.173828 -28.363281 1 0 1
0 -142 104 38 0 0 1 -25.173828 -28.175781 1 0 1
0 -176 104 38 0 0 1 -24.908203 -28.175781 1 0 1
realworldtextures2_misc_granite_03
0 -142 80 38 0 0 1 -25.173828 -28.363281 1 0 1
0 -176 104 38 0 0 1 -24.908203 -28.175781 1 0 1
0 -176 80 38 0 0 1 -24.908203 -28.363281 1 0 1
realworldtextures2_misc_granite_03
0 -142 80 36 0 -1 0 -26.048828 -2.957031 1 0 1
0 -142 80 38 0 -1 0 -26.048828 -2.941406 1 0 1
0 -176 80 38 0 -1 0 -25.783203 -2.941406 1 0 1
realworldtextures2_misc_granite_03
0 -142 80 36 0 -1 0 -26.048828 -2.957031 1 0 1
0 -176 80 38 0 -1 0 -25.783203 -2.941406 1 0 1
0 -176 80 36 0 -1 0 -25.783203 -2.957031 1 0 1
wood_cabinets04
0 -144 82 0 0 -1 0 -89.516792 -16.002584 1 0 1
0 -144 82 36 0 -1 0 -89.516792 -15.002406 1 0 1
0 -176 82 36 0 -1 0 -88.627745 -15.002406 1 0 1
wood_cabinets04
0 -144 82 0 0 -1 0 -89.516792 -16.002584 1 0 1
0 -176 82 36 0 -1 0 -88.627745 -15.002406 1 0 1
0 -176 82 0 0 -1 0 -88.627745 -16.002584 1 0 1
wood_cabinets03
0 -144 82 36 1 0 0 104.081959 -14.994593 1 0 1
0 -144 82 0 1 0 0 104.081959 -15.994771 1 0 1
0 -144 104 0 1 0 0 103.470739 -15.994771 1 0 1
wood_cabinets03
0 -144 82 36 1 0 0 104.081959 -14.994593 1 0 1
0 -144 104 0 1 0 0 103.470739 -15.994771 1 0 1
0 -144 104 36 1 0 0 103.470739 -14.994593 1 0 1
ocrp_glass2
0 48 -238 42 0 -1 0 -854 -142 1 0 1
0 48 -238 106 0 -1 0 -854 -126 1 0 1
0 -32 -238 106 0 -1 0 -834 -126 1 0 1
ocrp_glass2
0 48 -238 42 0 -1 0 -854 -142 1 0 1
0 -32 -238 106 0 -1 0 -834 -126 1 0 1
0 -32 -238 42 0 -1 0 -834 -142 1 0 1
props_woodcrate003d
0 -56 240 36 0 1 0 -103.5 -16.96875 1 0 1
0 -56 240 0 0 1 0 -103.5 -18.09375 1 0 1
0 -88 240 0 0 1 0 -102.5 -18.09375 1 0 1
props_woodcrate003d
0 -56 240 36 0 1 0 -103.5 -16.96875 1 0 1
0 -88 240 0 0 1 0 -102.5 -18.09375 1 0 1
0 -88 240 36 0 1 0 -102.5 -16.96875 1 0 1
wood_cabinets04
0 -56 192 0 0 -1 0 92.043702 -16.002584 1 0 1
0 -56 192 36 0 -1 0 92.043702 -15.002406 1 0 1
0 -88 192 36 0 -1 0 91.154655 -15.002406 1 0 1
wood_cabinets04
0 -56 192 0 0 -1 0 92.043702 -16.002584 1 0 1
0 -88 192 36 0 -1 0 91.154655 -15.002406 1 0 1
0 -88 192 0 0 -1 0 91.154655 -16.002584 1 0 1
wood_cabinets03
0 -88 192 0 -1 0 0 75.332031 -16.002584 1 0 1
0 -88 192 36 -1 0 0 75.332031 -15.002406 1 0 1
0 -88 240 36 -1 0 0 74.332031 -15.002406 1 0 1
wood_cabinets03
0 -88 192 0 -1 0 0 75.332031 -16.002584 1 0 1
0 -88 240 36 -1 0 0 74.332031 -15.002406 1 0 1
0 -88 240 0 -1 0 0 74.332031 -16.002584 1 0 1
realworldtextures2_wood_wood_26
0 76 -232 42 0 1 0 -26.96875 -3.421875 1 0 1
0 76 -232 0 0 1 0 -26.96875 -3.75 1 0 1
0 -208 -232 0 0 1 0 -24.75 -3.75 1 0 1
realworldtextures2_wood_wood_26
0 76 -232 42 0 1 0 -26.96875 -3.421875 1 0 1
0 -208 -232 0 0 1 0 -24.75 -3.75 1 0 1
0 -179.3 -232 42 0 1 0 -24.974219 -3.421875 1 0 1
realworldtextures2_wood_wood_26
0 76 -240 0 0 -1 0 -26.96875 -3.75 1 0 1
0 76 -240 42 0 -1 0 -26.96875 -3.421875 1 0 1
0 -179.3 -240 42 0 -1 0 -24.974219 -3.421875 1 0 1
realworldtextures2_wood_wood_26
0 76 -240 0 0 -1 0 -26.96875 -3.75 1 0 1
0 -179.3 -240 42 0 -1 0 -24.974219 -3.421875 1 0 1
0 -208 -240 0 0 -1 0 -24.75 -3.75 1 0 1
realworldtextures2_wood_wood_26
0 135.5 -240 106 0 -1 0 -27.433594 -2.921875 1 0 1
0 128 -240 106 0 -1 0 -27.375 -2.921875 1 0 1
0 128 -240 0 0 -1 0 -27.375 -3.75 1 0 1
realworldtextures2_wood_wood_26
0 135.5 -240 106 0 -1 0 -27.433594 -2.921875 1 0 1
0 128 -240 0 0 -1 0 -27.375 -3.75 1 0 1
0 208 -240 0 0 -1 0 -28 -3.75 1 0 1
realworldtextures2_wood_wood_26
0 128 -240 0 -1 0 0 -31 -3.75 1 0 1
0 128 -240 106 -1 0 0 -31 -2.921875 1 0 1
0 128 -232 106 -1 0 0 -30.9375 -2.921875 1 0 1
realworldtextures2_wood_wood_26
0 128 -240 0 -1 0 0 -31 -3.75 1 0 1
0 128 -232 106 -1 0 0 -30.9375 -2.921875 1 0 1
0 128 -232 0 -1 0 0 -30.9375 -3.75 1 0 1
realworldtextures2_wood_wood_26
0 208 -232 0 0 1 0 -28 -3.75 1 0 1
0 128 -232 0 0 1 0 -27.375 -3.75 1 0 1
0 128 -232 106 0 1 0 -27.375 -2.921875 1 0 1
realworldtextures2_wood_wood_26
0 208 -232 0 0 1 0 -28 -3.75 1 0 1
0 128 -232 106 0 1 0 -27.375 -2.921875 1 0 1
0 135.5 -232 106 0 1 0 -27.433594 -2.921875 1 0 1
realworldtextures2_misc_granite_03
0 -56 156 38 0 1 0 -25.845703 -3.128906 1 0 1
0 -56 156 36 0 1 0 -25.845703 -3.144531 1 0 1
0 -90 156 36 0 1 0 -25.580078 -3.144531 1 0 1
realworldtextures2_misc_granite_03
0 -56 156 38 0 1 0 -25.845703 -3.128906 1 0 1
0 -90 156 36 0 1 0 -25.580078 -3.144531 1 0 1
0 -90 156 38 0 1 0 -25.580078 -3.128906 1 0 1
realworldtextures2_misc_granite_03
0 -90 115.98 38 -1 0 0 28.841953 -3.128906 1 0 1
0 -90 156 38 -1 0 0 28.529297 -3.128906 1 0 1
0 -90 156 36 -1 0 0 28.529297 -3.144531 1 0 1
realworldtextures2_misc_granite_03
0 -90 115.98 38 -1 0 0 28.841953 -3.128906 1 0 1
0 -90 156 36 -1 0 0 28.529297 -3.144531 1 0 1
0 -90 116 36 -1 0 0 28.841797 -3.144531 1 0 1
realworldtextures2_misc_granite_03
0 -56 115.98 38 0 0 1 -25.845703 30.074375 1 0 1
0 -56 156 38 0 0 1 -25.845703 29.761719 1 0 1
0 -90 156 38 0 0 1 -25.580078 29.761719 1 0 1
realworldtextures2_misc_granite_03
0 -56 115.98 38 0 0 1 -25.845703 30.074375 1 0 1
0 -90 156 38 0 0 1 -25.580078 29.761719 1 0 1
0 -90 115.98 38 0 0 1 -25.580078 30.074375 1 0 1
realworldtextures2_misc_granite_03
0 -90 115.98 38 0 -0.99995 -0.01 25.584509 -2.966564 1 0 1
0 -90 116 36 0 -0.99995 -0.01 25.584395 -2.982191 1 0 1
0 -56 116 36 0 -0.99995 -0.01 25.85002 -2.98413 1 0 1
realworldtextures2_misc_granite_03
0 -90 115.98 38 0 -0.99995 -0.01 25.584509 -2.966564 1 0 1
0 -56 116 36 0 -0.99995 -0.01 25.85002 -2.98413 1 0 1
0 -56 115.98 38 0 -0.99995 -0.01 25.850134 -2.968503 1 0 1
ocrp_glass2
0 -48 -238 42 0 -1 0 -830 -142 1 0 1
0 -48 -238 106 0 -1 0 -830 -126 1 0 1
0 -128 -238 106 0 -1 0 -810 -126 1 0 1
ocrp_glass2
0 -48 -238 42 0 -1 0 -830 -142 1 0 1
0 -128 -238 106 0 -1 0 -810 -126 1 0 1
0 -128 -238 42 0 -1 0 -810 -142 1 0 1
realworldtextures2_wood_wood_26
0 -48 -232 42 0 1 0 -26 -3.421875 1 0 1
0 -48 -232 106 0 1 0 -26 -2.921875 1 0 1
0 -32 -232 106 0 1 0 -26.125 -2.921875 1 0 1
realworldtextures2_wood_wood_26
0 -48 -232 42 0 1 0 -26 -3.421875 1 0 1
0 -32 -232 106 0 1 0 -26.125 -2.921875 1 0 1
0 -32 -232 42 0 1 0 -26.125 -3.421875 1 0 1
realworldtextures2_wood_wood_26
0 -32 -240 42 0 -1 0 -26.125 -3.421875 1 0 1
0 -32 -240 106 0 -1 0 -26.125 -2.921875 1 0 1
0 -48 -240 106 0 -1 0 -26 -2.921875 1 0 1
realworldtextures2_wood_wood_26
0 -32 -240 42 0 -1 0 -26.125 -3.421875 1 0 1
0 -48 -240 106 0 -1 0 -26 -2.921875 1 0 1
0 -48 -240 42 0 -1 0 -26 -3.421875 1 0 1
realworldtextures2_wood_wood_26
0 -48 -240 42 -1 0 0 -31 -3.421875 1 0 1
0 -48 -240 106 -1 0 0 -31 -2.921875 1 0 1
0 -48 -232 106 -1 0 0 -30.9375 -2.921875 1 0 1
realworldtextures2_wood_wood_26
0 -48 -240 42 -1 0 0 -31 -3.421875 1 0 1
0 -48 -232 106 -1 0 0 -30.9375 -2.921875 1 0 1
0 -48 -232 42 -1 0 0 -30.9375 -3.421875 1 0 1
realworldtextures2_wood_wood_26
0 -32 -232 42 1 0 0 -30.9375 -3.421875 1 0 1
0 -32 -232 106 1 0 0 -30.9375 -2.921875 1 0 1
0 -32 -240 106 1 0 0 -31 -2.921875 1 0 1
realworldtextures2_wood_wood_26
0 -32 -232 42 1 0 0 -30.9375 -3.421875 1 0 1
0 -32 -240 106 1 0 0 -31 -2.921875 1 0 1
0 -32 -240 42 1 0 0 -31 -3.421875 1 0 1
realworldtextures2_misc_granite_03
0 -142 144 38 1 0 0 -28.314453 -3.128906 1 0 1
0 -142 144 36 1 0 0 -28.314453 -3.144531 1 0 1
0 -142 240 36 1 0 0 -27.564453 -3.144531 1 0 1
realworldtextures2_misc_granite_03
0 -142 144 38 1 0 0 -28.314453 -3.128906 1 0 1
0 -142 240 36 1 0 0 -27.564453 -3.144531 1 0 1
0 -142 240 38 1 0 0 -27.564453 -3.128906 1 0 1
realworldtextures2_misc_granite_03
0 -176 144 38 0 0 1 -24.908203 -27.113281 1 0 1
0 -142 144 38 0 0 1 -25.173828 -27.113281 1 0 1
0 -142 240 38 0 0 1 -25.173828 -26.363281 1 0 1
realworldtextures2_misc_granite_03
0 -176 144 38 0 0 1 -24.908203 -27.113281 1 0 1
0 -142 240 38 0 0 1 -25.173828 -26.363281 1 0 1
0 -176 240 38 0 0 1 -24.908203 -26.363281 1 0 1
rock_rock_005
0 -56 240 38 0 1 0 -12.9375 -1.238281 1 0 1
0 -56 240 36 0 1 0 -12.9375 -1.246094 1 0 1
0 -90 240 36 0 1 0 -12.804688 -1.246094 1 0 1
rock_rock_005
0 -56 240 38 0 1 0 -12.9375 -1.238281 1 0 1
0 -90 240 36 0 1 0 -12.804688 -1.246094 1 0 1
0 -90 240 38 0 1 0 -12.804688 -1.238281 1 0 1
realworldtextures2_misc_granite_03
0 -56 192 36 0 -1 0 26.029297 -3.144531 1 0 1
0 -56 192 38 0 -1 0 26.029297 -3.128906 1 0 1
0 -90 192 38 0 -1 0 25.763672 -3.128906 1 0 1
realworldtextures2_misc_granite_03
0 -56 192 36 0 -1 0 26.029297 -3.144531 1 0 1
0 -90 192 38 0 -1 0 25.763672 -3.128906 1 0 1
0 -90 192 36 0 -1 0 25.763672 -3.144531 1 0 1
realworldtextures2_misc_granite_03
0 -90 192 36 -1 0 0 27.982422 -3.144531 1 0 1
0 -90 192 38 -1 0 0 27.982422 -3.128906 1 0 1
0 -90 240 38 -1 0 0 27.607422 -3.128906 1 0 1
realworldtextures2_misc_granite_03
0 -90 192 36 -1 0 0 27.982422 -3.144531 1 0 1
0 -90 240 38 -1 0 0 27.607422 -3.128906 1 0 1
0 -90 240 36 -1 0 0 27.607422 -3.144531 1 0 1
realworldtextures2_misc_granite_01
0 -56 192 36 0 0 -1 28.029297 27.261719 1 0 1
0 -90 192 36 0 0 -1 28.029297 26.996094 1 0 1
0 -90 240 36 0 0 -1 27.654297 26.996094 1 0 1
realworldtextures2_misc_granite_01
0 -56 192 36 0 0 -1 28.029297 27.261719 1 0 1
0 -90 240 36 0 0 -1 27.654297 26.996094 1 0 1
0 -56 240 36 0 0 -1 27.654297 27.261719 1 0 1
realworldtextures2_misc_granite_03
0 -90 192 38 0 0 1 27.982422 26.996094 1 0 1
0 -56 192 38 0 0 1 27.982422 27.261719 1 0 1
0 -56 240 38 0 0 1 27.607422 27.261719 1 0 1
realworldtextures2_misc_granite_03
0 -90 192 38 0 0 1 27.982422 26.996094 1 0 1
0 -56 240 38 0 0 1 27.607422 27.261719 1 0 1
0 -90 240 38 0 0 1 27.607422 26.996094 1 0 1
realworldtextures2_wood_wood_26
0 -128 -232 106 0 1 0 -25.375 -2.921875 1 0 1
0 -128 -232 42 0 1 0 -25.375 -3.421875 1 0 1
0 -179.3 -232 42 0 1 0 -24.974219 -3.421875 1 0 1
realworldtextures2_wood_wood_26
0 -128 -232 106 0 1 0 -25.375 -2.921875 1 0 1
0 -179.3 -232 42 0 1 0 -24.974219 -3.421875 1 0 1
0 -135.5 -232 106 0 1 0 -25.316406 -2.921875 1 0 1
realworldtextures2_wood_wood_26
0 -128 -240 42 0 -1 0 -25.375 -3.421875 1 0 1
0 -128 -240 106 0 -1 0 -25.375 -2.921875 1 0 1
0 -135.5 -240 106 0 -1 0 -25.316406 -2.921875 1 0 1
realworldtextures2_wood_wood_26
0 -128 -240 42 0 -1 0 -25.375 -3.421875 1 0 1
0 -135.5 -240 106 0 -1 0 -25.316406 -2.921875 1 0 1
0 -179.3 -240 42 0 -1 0 -24.974219 -3.421875 1 0 1
realworldtextures2_wood_wood_26
0 -128 -240 106 1 0 0 -31 -2.921875 1 0 1
0 -128 -240 42 1 0 0 -31 -3.421875 1 0 1
0 -128 -232 42 1 0 0 -30.9375 -3.421875 1 0 1
realworldtextures2_wood_wood_26
0 -128 -240 106 1 0 0 -31 -2.921875 1 0 1
0 -128 -232 42 1 0 0 -30.9375 -3.421875 1 0 1
0 -128 -232 106 1 0 0 -30.9375 -2.921875 1 0 1
end
