version 1
nodes
0 "root" -1
end
skeleton
time 0
0 0 0 0 0 0 0
end
triangles
pepsi2_arch_stairs01
0 405 -6 74.996 -1 0 0 35.300781 -27.000125 1 0 1
0 405 -6 84 -1 0 0 35.300781 -26.71875 1 0 1
0 405 138 84 -1 0 0 33.050781 -26.71875 1 0 1
pepsi2_arch_stairs01
0 405 -6 74.996 -1 0 0 35.300781 -27.000125 1 0 1
0 405 138 84 -1 0 0 33.050781 -26.71875 1 0 1
0 405 138 74.996 -1 0 0 33.050781 -27.000125 1 0 1
pepsi2_arch_stairs01
0 405 -6 84 0 0 1 35.300781 -350.71875 1 0 1
0 420 -6 84 0 0 1 35.300781 -350.25 1 0 1
0 420 138 84 0 0 1 33.050781 -350.25 1 0 1
pepsi2_arch_stairs01
0 405 -6 84 0 0 1 35.300781 -350.71875 1 0 1
0 420 138 84 0 0 1 33.050781 -350.25 1 0 1
0 405 138 84 0 0 1 33.050781 -350.71875 1 0 1
pepsi2_arch_stairs01
0 126 -6 3 0 0 1 35.300781 -359.71875 1 0 1
0 141 -6 3 0 0 1 35.300781 -359.25 1 0 1
0 141 138 3 0 0 1 33.050781 -359.25 1 0 1
pepsi2_arch_stairs01
0 126 -6 3 0 0 1 35.300781 -359.71875 1 0 1
0 141 138 3 0 0 1 33.050781 -359.25 1 0 1
0 126 138 3 0 0 1 33.050781 -359.71875 1 0 1
pepsi2_arch_stairs01
0 126 -6 3 -1 0 0 35.300781 -29.71875 1 0 1
0 126 138 3 -1 0 0 33.050781 -29.71875 1 0 1
0 126 138 -6 -1 0 0 33.050781 -30 1 0 1
pepsi2_arch_stairs01
0 126 -6 3 -1 0 0 35.300781 -29.71875 1 0 1
0 126 138 -6 -1 0 0 33.050781 -30 1 0 1
0 126 -6 -6 -1 0 0 35.300781 -30 1 0 1
pepsi2_arch_stairs01
0 216 -6 48 -1 0 0 35.300781 -28 1 0 1
0 216 -6 57 -1 0 0 35.300781 -27.71875 1 0 1
0 216 138 57 -1 0 0 33.050781 -27.71875 1 0 1
pepsi2_arch_stairs01
0 216 -6 48 -1 0 0 35.300781 -28 1 0 1
0 216 138 57 -1 0 0 33.050781 -27.71875 1 0 1
0 216 138 48 -1 0 0 33.050781 -28 1 0 1
pepsi2_arch_stairs01
0 216 -6 57 0 0 1 35.300781 -356.71875 1 0 1
0 231 -6 57 0 0 1 35.300781 -356.25 1 0 1
0 231 138 57 0 0 1 33.050781 -356.25 1 0 1
pepsi2_arch_stairs01
0 216 -6 57 0 0 1 35.300781 -356.71875 1 0 1
0 231 138 57 0 0 1 33.050781 -356.25 1 0 1
0 216 138 57 0 0 1 33.050781 -356.71875 1 0 1
bridge_se1_metal_flat_steel_01
0 6 6 78 0 1 0 90.390625 -5.150391 1 0 1
0 6 6 -78 0 1 0 90.390625 -6.369141 1 0 1
0 -6 6 -78 0 1 0 90.484375 -6.369141 1 0 1
bridge_se1_metal_flat_steel_01
0 6 6 78 0 1 0 90.390625 -5.150391 1 0 1
0 -6 6 -78 0 1 0 90.484375 -6.369141 1 0 1
0 -6 6 78 0 1 0 90.484375 -5.150391 1 0 1
bridge_se1_metal_flat_steel_01
0 -6 -6 -78 -1 0 0 -18.460938 -6.369141 1 0 1
0 -6 -6 78 -1 0 0 -18.460938 -5.150391 1 0 1
0 -6 6 78 -1 0 0 -18.367188 -5.150391 1 0 1
bridge_se1_metal_flat_steel_01
0 -6 -6 -78 -1 0 0 -18.460938 -6.369141 1 0 1
0 -6 6 78 -1 0 0 -18.367188 -5.150391 1 0 1
0 -6 6 -78 -1 0 0 -18.367188 -6.369141 1 0 1
bridge_se1_metal_flat_steel_01
0 6 -6 78 1 0 0 -18.460938 -5.150391 1 0 1
0 6 -6 -78 1 0 0 -18.460938 -6.369141 1 0 1
0 6 6 -78 1 0 0 -18.367188 -6.369141 1 0 1
bridge_se1_metal_flat_steel_01
0 6 -6 78 1 0 0 -18.460938 -5.150391 1 0 1
0 6 6 -78 1 0 0 -18.367188 -6.369141 1 0 1
0 6 6 78 1 0 0 -18.367188 -5.150391 1 0 1
bridge_se1_metal_flat_steel_01
0 6 126 -78 0 -1 0 -91.1875 -6.369141 1 0 1
0 6 126 78 0 -1 0 -91.1875 -5.150391 1 0 1
0 -6 126 78 0 -1 0 -91.28125 -5.150391 1 0 1
bridge_se1_metal_flat_steel_01
0 6 126 -78 0 -1 0 -91.1875 -6.369141 1 0 1
0 -6 126 78 0 -1 0 -91.28125 -5.150391 1 0 1
0 -6 126 -78 0 -1 0 -91.28125 -6.369141 1 0 1
bridge_se1_metal_flat_steel_01
0 -6 126 -78 -1 0 0 -17.429688 -6.369141 1 0 1
0 -6 126 78 -1 0 0 -17.429688 -5.150391 1 0 1
0 -6 138 78 -1 0 0 -17.335938 -5.150391 1 0 1
bridge_se1_metal_flat_steel_01
0 -6 126 -78 -1 0 0 -17.429688 -6.369141 1 0 1
0 -6 138 78 -1 0 0 -17.335938 -5.150391 1 0 1
0 -6 138 -78 -1 0 0 -17.335938 -6.369141 1 0 1
bridge_se1_metal_flat_steel_01
0 6 138 -78 1 0 0 -17.335938 -6.369141 1 0 1
0 6 138 78 1 0 0 -17.335938 -5.150391 1 0 1
0 6 126 78 1 0 0 -17.429688 -5.150391 1 0 1
bridge_se1_metal_flat_steel_01
0 6 138 -78 1 0 0 -17.335938 -6.369141 1 0 1
0 6 126 78 1 0 0 -17.429688 -5.150391 1 0 1
0 6 126 -78 1 0 0 -17.429688 -6.369141 1 0 1
pepsi2_arch_stairs01
0 96 -6 -24 -1 0 0 35.300781 -30 1 0 1
0 96 -6 -15 -1 0 0 35.300781 -29.71875 1 0 1
0 96 138 -15 -1 0 0 33.050781 -29.71875 1 0 1
pepsi2_arch_stairs01
0 96 -6 -24 -1 0 0 35.300781 -30 1 0 1
0 96 138 -15 -1 0 0 33.050781 -29.71875 1 0 1
0 96 138 -24 -1 0 0 33.050781 -30 1 0 1
pepsi2_arch_stairs01
0 96 -6 -15 0 0 1 35.300781 -360.71875 1 0 1
0 111 -6 -15 0 0 1 35.300781 -360.25 1 0 1
0 111 138 -15 0 0 1 33.050781 -360.25 1 0 1
pepsi2_arch_stairs01
0 96 -6 -15 0 0 1 35.300781 -360.71875 1 0 1
0 111 138 -15 0 0 1 33.050781 -360.25 1 0 1
0 96 138 -15 0 0 1 33.050781 -360.71875 1 0 1
pepsi2_arch_stairs01
0 201 138 48 -1 0 0 33.050781 -27.71875 1 0 1
0 201 138 39 -1 0 0 33.050781 -28 1 0 1
0 201 -6 39 -1 0 0 35.300781 -28 1 0 1
pepsi2_arch_stairs01
0 201 138 48 -1 0 0 33.050781 -27.71875 1 0 1
0 201 -6 39 -1 0 0 35.300781 -28 1 0 1
0 201 -6 48 -1 0 0 35.300781 -27.71875 1 0 1
pepsi2_arch_stairs01
0 201 -6 48 0 0 1 35.300781 -357.71875 1 0 1
0 216 -6 48 0 0 1 35.300781 -357.25 1 0 1
0 216 138 48 0 0 1 33.050781 -357.25 1 0 1
pepsi2_arch_stairs01
0 201 -6 48 0 0 1 35.300781 -357.71875 1 0 1
0 216 138 48 0 0 1 33.050781 -357.25 1 0 1
0 201 138 48 0 0 1 33.050781 -357.71875 1 0 1
pepsi2_arch_stairs01
0 171 -6 21 -1 0 0 35.300781 -29 1 0 1
0 171 -6 30 -1 0 0 35.300781 -28.71875 1 0 1
0 171 138 30 -1 0 0 33.050781 -28.71875 1 0 1
pepsi2_arch_stairs01
0 171 -6 21 -1 0 0 35.300781 -29 1 0 1
0 171 138 30 -1 0 0 33.050781 -28.71875 1 0 1
0 171 138 21 -1 0 0 33.050781 -29 1 0 1
pepsi2_arch_stairs01
0 171 -6 30 0 0 1 35.300781 -358.71875 1 0 1
0 186 -6 30 0 0 1 35.300781 -358.25 1 0 1
0 186 138 30 0 0 1 33.050781 -358.25 1 0 1
pepsi2_arch_stairs01
0 171 -6 30 0 0 1 35.300781 -358.71875 1 0 1
0 186 138 30 0 0 1 33.050781 -358.25 1 0 1
0 171 138 30 0 0 1 33.050781 -358.71875 1 0 1
pepsi2_arch_stairs01
0 66 -6 -33 0 0 1 35.300781 -361.71875 1 0 1
0 81 -6 -33 0 0 1 35.300781 -361.25 1 0 1
0 81 138 -33 0 0 1 33.050781 -361.25 1 0 1
pepsi2_arch_stairs01
0 66 -6 -33 0 0 1 35.300781 -361.71875 1 0 1
0 81 138 -33 0 0 1 33.050781 -361.25 1 0 1
0 66 138 -33 0 0 1 33.050781 -361.71875 1 0 1
pepsi2_arch_stairs01
0 66 -6 -33 -1 0 0 35.300781 -30.71875 1 0 1
0 66 138 -33 -1 0 0 33.050781 -30.71875 1 0 1
0 66 138 -42 -1 0 0 33.050781 -31 1 0 1
pepsi2_arch_stairs01
0 66 -6 -33 -1 0 0 35.300781 -30.71875 1 0 1
0 66 138 -42 -1 0 0 33.050781 -31 1 0 1
0 66 -6 -42 -1 0 0 35.300781 -31 1 0 1
pepsi2_arch_stairs01
0 375 -6 56.996 -1 0 0 35.300781 -27.000125 1 0 1
0 375 -6 66 -1 0 0 35.300781 -26.71875 1 0 1
0 375 138 66 -1 0 0 33.050781 -26.71875 1 0 1
pepsi2_arch_stairs01
0 375 -6 56.996 -1 0 0 35.300781 -27.000125 1 0 1
0 375 138 66 -1 0 0 33.050781 -26.71875 1 0 1
0 375 138 56.996 -1 0 0 33.050781 -27.000125 1 0 1
pepsi2_arch_stairs01
0 375 -6 66 0 0 1 35.300781 -351.71875 1 0 1
0 390 -6 66 0 0 1 35.300781 -351.25 1 0 1
0 390 138 66 0 0 1 33.050781 -351.25 1 0 1
pepsi2_arch_stairs01
0 375 -6 66 0 0 1 35.300781 -351.71875 1 0 1
0 390 138 66 0 0 1 33.050781 -351.25 1 0 1
0 375 138 66 0 0 1 33.050781 -351.71875 1 0 1
pepsi2_arch_stairs01
0 51 -6 -51 -1 0 0 35.300781 -31 1 0 1
0 51 -6 -42 -1 0 0 35.300781 -30.71875 1 0 1
0 51 138 -42 -1 0 0 33.050781 -30.71875 1 0 1
pepsi2_arch_stairs01
0 51 -6 -51 -1 0 0 35.300781 -31 1 0 1
0 51 138 -42 -1 0 0 33.050781 -30.71875 1 0 1
0 51 138 -51 -1 0 0 33.050781 -31 1 0 1
pepsi2_arch_stairs01
0 51 -6 -42 0 0 1 35.300781 -361.71875 1 0 1
0 66 -6 -42 0 0 1 35.300781 -361.25 1 0 1
0 66 138 -42 0 0 1 33.050781 -361.25 1 0 1
pepsi2_arch_stairs01
0 51 -6 -42 0 0 1 35.300781 -361.71875 1 0 1
0 66 138 -42 0 0 1 33.050781 -361.25 1 0 1
0 51 138 -42 0 0 1 33.050781 -361.71875 1 0 1
pepsi2_arch_stairs01
0 141 -6 3 -1 0 0 35.300781 -29 1 0 1
0 141 -6 12 -1 0 0 35.300781 -28.71875 1 0 1
0 141 138 12 -1 0 0 33.050781 -28.71875 1 0 1
pepsi2_arch_stairs01
0 141 -6 3 -1 0 0 35.300781 -29 1 0 1
0 141 138 12 -1 0 0 33.050781 -28.71875 1 0 1
0 141 138 3 -1 0 0 33.050781 -29 1 0 1
pepsi2_arch_stairs01
0 141 -6 12 0 0 1 35.300781 -359.71875 1 0 1
0 156 -6 12 0 0 1 35.300781 -359.25 1 0 1
0 156 138 12 0 0 1 33.050781 -359.25 1 0 1
pepsi2_arch_stairs01
0 141 -6 12 0 0 1 35.300781 -359.71875 1 0 1
0 156 138 12 0 0 1 33.050781 -359.25 1 0 1
0 141 138 12 0 0 1 33.050781 -359.71875 1 0 1
pepsi2_arch_stairs01
0 81 -6 -24 0 0 1 35.300781 -360.71875 1 0 1
0 96 -6 -24 0 0 1 35.300781 -360.25 1 0 1
0 96 138 -24 0 0 1 33.050781 -360.25 1 0 1
pepsi2_arch_stairs01
0 81 -6 -24 0 0 1 35.300781 -360.71875 1 0 1
0 96 138 -24 0 0 1 33.050781 -360.25 1 0 1
0 81 138 -24 0 0 1 33.050781 -360.71875 1 0 1
pepsi2_arch_stairs01
0 81 -6 -24 -1 0 0 35.300781 -30.71875 1 0 1
0 81 138 -24 -1 0 0 33.050781 -30.71875 1 0 1
0 81 138 -33 -1 0 0 33.050781 -31 1 0 1
pepsi2_arch_stairs01
0 81 -6 -24 -1 0 0 35.300781 -30.71875 1 0 1
0 81 138 -33 -1 0 0 33.050781 -31 1 0 1
0 81 -6 -33 -1 0 0 35.300781 -31 1 0 1
bridge_se1_metal_flat_steel_01
0 -6 6 66 -1 0 0 -18.367188 -5.244141 1 0 1
0 -6 6 78 -1 0 0 -18.367188 -5.150391 1 0 1
0 -6 126 78 -1 0 0 -17.429688 -5.150391 1 0 1
bridge_se1_metal_flat_steel_01
0 -6 6 66 -1 0 0 -18.367188 -5.244141 1 0 1
0 -6 126 78 -1 0 0 -17.429688 -5.150391 1 0 1
0 -6 126 66 -1 0 0 -17.429688 -5.244141 1 0 1
bridge_se1_metal_flat_steel_01
0 6 6 78 1 0 0 -18.367188 -5.150391 1 0 1
0 6 6 66 1 0 0 -18.367188 -5.244141 1 0 1
0 6 126 66 1 0 0 -17.429688 -5.244141 1 0 1
bridge_se1_metal_flat_steel_01
0 6 6 78 1 0 0 -18.367188 -5.150391 1 0 1
0 6 126 66 1 0 0 -17.429688 -5.244141 1 0 1
0 6 126 78 1 0 0 -17.429688 -5.150391 1 0 1
bridge_se1_metal_flat_steel_01
0 6 6 66 0 0 -1 -18.367188 -90.001953 1 0 1
0 -6 6 66 0 0 -1 -18.367188 -90.095703 1 0 1
0 -6 126 66 0 0 -1 -17.429688 -90.095703 1 0 1
bridge_se1_metal_flat_steel_01
0 6 6 66 0 0 -1 -18.367188 -90.001953 1 0 1
0 -6 126 66 0 0 -1 -17.429688 -90.095703 1 0 1
0 6 126 66 0 0 -1 -17.429688 -90.001953 1 0 1
pepsi2_arch_stairs01
0 156 138 21 -1 0 0 33.050781 -28.71875 1 0 1
0 156 138 12 -1 0 0 33.050781 -29 1 0 1
0 156 -6 12 -1 0 0 35.300781 -29 1 0 1
pepsi2_arch_stairs01
0 156 138 21 -1 0 0 33.050781 -28.71875 1 0 1
0 156 -6 12 -1 0 0 35.300781 -29 1 0 1
0 156 -6 21 -1 0 0 35.300781 -28.71875 1 0 1
pepsi2_arch_stairs01
0 156 -6 21 0 0 1 35.300781 -358.71875 1 0 1
0 171 -6 21 0 0 1 35.300781 -358.25 1 0 1
0 171 138 21 0 0 1 33.050781 -358.25 1 0 1
pepsi2_arch_stairs01
0 156 -6 21 0 0 1 35.300781 -358.71875 1 0 1
0 171 138 21 0 0 1 33.050781 -358.25 1 0 1
0 156 138 21 0 0 1 33.050781 -358.71875 1 0 1
pepsi2_arch_stairs01
0 111 -6 -15 -1 0 0 35.300781 -30 1 0 1
0 111 -6 -6 -1 0 0 35.300781 -29.71875 1 0 1
0 111 138 -6 -1 0 0 33.050781 -29.71875 1 0 1
pepsi2_arch_stairs01
0 111 -6 -15 -1 0 0 35.300781 -30 1 0 1
0 111 138 -6 -1 0 0 33.050781 -29.71875 1 0 1
0 111 138 -15 -1 0 0 33.050781 -30 1 0 1
pepsi2_arch_stairs01
0 111 -6 -6 0 0 1 35.300781 -360.71875 1 0 1
0 126 -6 -6 0 0 1 35.300781 -360.25 1 0 1
0 126 138 -6 0 0 1 33.050781 -360.25 1 0 1
pepsi2_arch_stairs01
0 111 -6 -6 0 0 1 35.300781 -360.71875 1 0 1
0 126 138 -6 0 0 1 33.050781 -360.25 1 0 1
0 111 138 -6 0 0 1 33.050781 -360.71875 1 0 1
pepsi2_arch_stairs01
0 390 138 75 -1 0 0 33.050781 -26.71875 1 0 1
0 390 138 65.996 -1 0 0 33.050781 -27.000125 1 0 1
0 390 -6 65.996 -1 0 0 35.300781 -27.000125 1 0 1
pepsi2_arch_stairs01
0 390 138 75 -1 0 0 33.050781 -26.71875 1 0 1
0 390 -6 65.996 -1 0 0 35.300781 -27.000125 1 0 1
0 390 -6 75 -1 0 0 35.300781 -26.71875 1 0 1
pepsi2_arch_stairs01
0 390 -6 75 0 0 1 35.300781 -351.71875 1 0 1
0 405 -6 75 0 0 1 35.300781 -351.25 1 0 1
0 405 138 75 0 0 1 33.050781 -351.25 1 0 1
pepsi2_arch_stairs01
0 390 -6 75 0 0 1 35.300781 -351.71875 1 0 1
0 405 138 75 0 0 1 33.050781 -351.25 1 0 1
0 390 138 75 0 0 1 33.050781 -351.71875 1 0 1
pepsi2_arch_stairs01
0 186 -6 30 -1 0 0 35.300781 -29 1 0 1
0 186 -6 39 -1 0 0 35.300781 -28.71875 1 0 1
0 186 138 39 -1 0 0 33.050781 -28.71875 1 0 1
pepsi2_arch_stairs01
0 186 -6 30 -1 0 0 35.300781 -29 1 0 1
0 186 138 39 -1 0 0 33.050781 -28.71875 1 0 1
0 186 138 30 -1 0 0 33.050781 -29 1 0 1
pepsi2_arch_stairs01
0 186 -6 39 0 0 1 35.300781 -357.71875 1 0 1
0 201 -6 39 0 0 1 35.300781 -357.25 1 0 1
0 201 138 39 0 0 1 33.050781 -357.25 1 0 1
pepsi2_arch_stairs01
0 186 -6 39 0 0 1 35.300781 -357.71875 1 0 1
0 201 138 39 0 0 1 33.050781 -357.25 1 0 1
0 186 138 39 0 0 1 33.050781 -357.71875 1 0 1
end
