version 1
nodes
0 "root" -1
end
skeleton
time 0
0 0 0 0 0 0 0
end
triangles
phys
0 -7 50 -5 0 0 1 1 0 1 0 1
0 -7 50 4 0 0 1 1 0 1 0 1
0 8 50 4 0 0 1 1 0 1 0 1
phys
0 8 -50 4 0 0 1 1 0 1 0 1
0 -7 -50 4 0 0 1 1 0 1 0 1
0 -7 -50 -5 0 0 1 1 0 1 0 1
phys
0 -7 -50 -5 0 0 1 1 0 1 0 1
0 -7 -50 4 0 0 1 1 0 1 0 1
0 -7 50 4 0 0 1 1 0 1 0 1
phys
0 -7 -50 -5 0 0 1 1 0 1 0 1
0 -7 50 4 0 0 1 1 0 1 0 1
0 -7 50 -5 0 0 1 1 0 1 0 1
phys
0 -7 -50 4 0 0 1 1 0 1 0 1
0 8 -50 4 0 0 1 1 0 1 0 1
0 8 50 4 0 0 1 1 0 1 0 1
phys
0 -7 -50 4 0 0 1 1 0 1 0 1
0 8 50 4 0 0 1 1 0 1 0 1
0 -7 50 4 0 0 1 1 0 1 0 1
phys
0 8 -50 4 0 0 1 1 0 1 0 1
0 -7 -50 -5 0 0 1 1 0 1 0 1
0 -7 50 -5 0 0 1 1 0 1 0 1
phys
0 8 -50 4 0 0 1 1 0 1 0 1
0 -7 50 -5 0 0 1 1 0 1 0 1
0 8 50 4 0 0 1 1 0 1 0 1
phys
0 110 454 240 0 0 1 2 0 1 0 1
0 110 454 236 0 0 1 2 0 1 0 1
0 108 454 236 0 0 1 2 0 1 0 1
phys
0 110 454 240 0 0 1 2 0 1 0 1
0 108 454 236 0 0 1 2 0 1 0 1
0 108 454 240 0 0 1 2 0 1 0 1
phys
0 110 250 236 0 0 1 2 0 1 0 1
0 110 250 240 0 0 1 2 0 1 0 1
0 108 250 240 0 0 1 2 0 1 0 1
phys
0 110 250 236 0 0 1 2 0 1 0 1
0 108 250 240 0 0 1 2 0 1 0 1
0 108 250 236 0 0 1 2 0 1 0 1
phys
0 108 250 236 0 0 1 2 0 1 0 1
0 108 250 240 0 0 1 2 0 1 0 1
0 108 454 240 0 0 1 2 0 1 0 1
phys
0 108 250 236 0 0 1 2 0 1 0 1
0 108 454 240 0 0 1 2 0 1 0 1
0 108 454 236 0 0 1 2 0 1 0 1
phys
0 110 250 240 0 0 1 2 0 1 0 1
0 110 250 236 0 0 1 2 0 1 0 1
0 110 454 236 0 0 1 2 0 1 0 1
phys
0 110 250 240 0 0 1 2 0 1 0 1
0 110 454 236 0 0 1 2 0 1 0 1
0 110 454 240 0 0 1 2 0 1 0 1
phys
0 110 250 236 0 0 1 2 0 1 0 1
0 108 250 236 0 0 1 2 0 1 0 1
0 108 454 236 0 0 1 2 0 1 0 1
phys
0 110 250 236 0 0 1 2 0 1 0 1
0 108 454 236 0 0 1 2 0 1 0 1
0 110 454 236 0 0 1 2 0 1 0 1
phys
0 108 250 240 0 0 1 2 0 1 0 1
0 110 250 240 0 0 1 2 0 1 0 1
0 110 454 240 0 0 1 2 0 1 0 1
phys
0 108 250 240 0 0 1 2 0 1 0 1
0 110 454 240 0 0 1 2 0 1 0 1
0 108 454 240 0 0 1 2 0 1 0 1
phys
0 242 -138 240 0 0 1 3 0 1 0 1
0 242 -138 236 0 0 1 3 0 1 0 1
0 110 -138 236 0 0 1 3 0 1 0 1
phys
0 242 -138 240 0 0 1 3 0 1 0 1
0 110 -138 236 0 0 1 3 0 1 0 1
0 110 -138 240 0 0 1 3 0 1 0 1
phys
0 242 -140 236 0 0 1 3 0 1 0 1
0 242 -140 240 0 0 1 3 0 1 0 1
0 110 -140 240 0 0 1 3 0 1 0 1
phys
0 242 -140 236 0 0 1 3 0 1 0 1
0 110 -140 240 0 0 1 3 0 1 0 1
0 110 -140 236 0 0 1 3 0 1 0 1
phys
0 110 -140 236 0 0 1 3 0 1 0 1
0 110 -140 240 0 0 1 3 0 1 0 1
0 110 -138 240 0 0 1 3 0 1 0 1
phys
0 110 -140 236 0 0 1 3 0 1 0 1
0 110 -138 240 0 0 1 3 0 1 0 1
0 110 -138 236 0 0 1 3 0 1 0 1
phys
0 242 -140 240 0 0 1 3 0 1 0 1
0 242 -140 236 0 0 1 3 0 1 0 1
0 242 -138 236 0 0 1 3 0 1 0 1
phys
0 242 -140 240 0 0 1 3 0 1 0 1
0 242 -138 236 0 0 1 3 0 1 0 1
0 242 -138 240 0 0 1 3 0 1 0 1
phys
0 242 -140 236 0 0 1 3 0 1 0 1
0 110 -140 236 0 0 1 3 0 1 0 1
0 110 -138 236 0 0 1 3 0 1 0 1
phys
0 242 -140 236 0 0 1 3 0 1 0 1
0 110 -138 236 0 0 1 3 0 1 0 1
0 242 -138 236 0 0 1 3 0 1 0 1
phys
0 110 -140 240 0 0 1 3 0 1 0 1
0 242 -140 240 0 0 1 3 0 1 0 1
0 242 -138 240 0 0 1 3 0 1 0 1
phys
0 110 -140 240 0 0 1 3 0 1 0 1
0 242 -138 240 0 0 1 3 0 1 0 1
0 110 -138 240 0 0 1 3 0 1 0 1
phys
0 242 250 236 0 0 1 4 0 1 0 1
0 242 250 240 0 0 1 4 0 1 0 1
0 110 250 240 0 0 1 4 0 1 0 1
phys
0 242 250 236 0 0 1 4 0 1 0 1
0 110 250 240 0 0 1 4 0 1 0 1
0 110 250 236 0 0 1 4 0 1 0 1
phys
0 110 250 236 0 0 1 4 0 1 0 1
0 110 250 240 0 0 1 4 0 1 0 1
0 110 252 240 0 0 1 4 0 1 0 1
phys
0 110 250 236 0 0 1 4 0 1 0 1
0 110 252 240 0 0 1 4 0 1 0 1
0 110 252 236 0 0 1 4 0 1 0 1
phys
0 242 250 240 0 0 1 4 0 1 0 1
0 242 250 236 0 0 1 4 0 1 0 1
0 242 252 236 0 0 1 4 0 1 0 1
phys
0 242 250 240 0 0 1 4 0 1 0 1
0 242 252 236 0 0 1 4 0 1 0 1
0 242 252 240 0 0 1 4 0 1 0 1
phys
0 242 250 236 0 0 1 4 0 1 0 1
0 110 250 236 0 0 1 4 0 1 0 1
0 110 252 236 0 0 1 4 0 1 0 1
phys
0 242 250 236 0 0 1 4 0 1 0 1
0 110 252 236 0 0 1 4 0 1 0 1
0 242 252 236 0 0 1 4 0 1 0 1
phys
0 110 250 240 0 0 1 4 0 1 0 1
0 242 250 240 0 0 1 4 0 1 0 1
0 242 252 240 0 0 1 4 0 1 0 1
phys
0 110 250 240 0 0 1 4 0 1 0 1
0 242 252 240 0 0 1 4 0 1 0 1
0 110 252 240 0 0 1 4 0 1 0 1
phys
0 242 252 240 0 0 1 4 0 1 0 1
0 242 252 236 0 0 1 4 0 1 0 1
0 110 252 236 0 0 1 4 0 1 0 1
phys
0 242 252 240 0 0 1 4 0 1 0 1
0 110 252 236 0 0 1 4 0 1 0 1
0 110 252 240 0 0 1 4 0 1 0 1
phys
0 -37 -50 -23 0 0 1 5 0 1 0 1
0 -52 -50 -32 0 0 1 5 0 1 0 1
0 -52 50 -32 0 0 1 5 0 1 0 1
phys
0 -37 -50 -23 0 0 1 5 0 1 0 1
0 -52 50 -32 0 0 1 5 0 1 0 1
0 -37 50 -23 0 0 1 5 0 1 0 1
phys
0 -37 50 -23 0 0 1 5 0 1 0 1
0 -52 50 -32 0 0 1 5 0 1 0 1
0 -52 50 -23 0 0 1 5 0 1 0 1
phys
0 -52 -50 -23 0 0 1 5 0 1 0 1
0 -52 -50 -32 0 0 1 5 0 1 0 1
0 -37 -50 -23 0 0 1 5 0 1 0 1
phys
0 -52 50 -23 0 0 1 5 0 1 0 1
0 -52 50 -32 0 0 1 5 0 1 0 1
0 -52 -50 -32 0 0 1 5 0 1 0 1
phys
0 -52 50 -23 0 0 1 5 0 1 0 1
0 -52 -50 -32 0 0 1 5 0 1 0 1
0 -52 -50 -23 0 0 1 5 0 1 0 1
phys
0 -52 -50 -23 0 0 1 5 0 1 0 1
0 -37 -50 -23 0 0 1 5 0 1 0 1
0 -37 50 -23 0 0 1 5 0 1 0 1
phys
0 -52 -50 -23 0 0 1 5 0 1 0 1
0 -37 50 -23 0 0 1 5 0 1 0 1
0 -52 50 -23 0 0 1 5 0 1 0 1
phys
0 23 50 13 0 0 1 6 0 1 0 1
0 23 50 22 0 0 1 6 0 1 0 1
0 38 50 22 0 0 1 6 0 1 0 1
phys
0 38 -50 22 0 0 1 6 0 1 0 1
0 23 -50 22 0 0 1 6 0 1 0 1
0 23 -50 13 0 0 1 6 0 1 0 1
phys
0 23 -50 13 0 0 1 6 0 1 0 1
0 23 -50 22 0 0 1 6 0 1 0 1
0 23 50 22 0 0 1 6 0 1 0 1
phys
0 23 -50 13 0 0 1 6 0 1 0 1
0 23 50 22 0 0 1 6 0 1 0 1
0 23 50 13 0 0 1 6 0 1 0 1
phys
0 23 -50 22 0 0 1 6 0 1 0 1
0 38 -50 22 0 0 1 6 0 1 0 1
0 38 50 22 0 0 1 6 0 1 0 1
phys
0 23 -50 22 0 0 1 6 0 1 0 1
0 38 50 22 0 0 1 6 0 1 0 1
0 23 50 22 0 0 1 6 0 1 0 1
phys
0 38 -50 22 0 0 1 6 0 1 0 1
0 23 -50 13 0 0 1 6 0 1 0 1
0 23 50 13 0 0 1 6 0 1 0 1
phys
0 38 -50 22 0 0 1 6 0 1 0 1
0 23 50 13 0 0 1 6 0 1 0 1
0 38 50 22 0 0 1 6 0 1 0 1
phys
0 143 -50 94 0 0 1 7 0 1 0 1
0 158 -50 94 0 0 1 7 0 1 0 1
0 158 50 94 0 0 1 7 0 1 0 1
phys
0 143 -50 94 0 0 1 7 0 1 0 1
0 158 50 94 0 0 1 7 0 1 0 1
0 143 50 94 0 0 1 7 0 1 0 1
phys
0 143 50 85 0 0 1 7 0 1 0 1
0 158 50 94 0 0 1 7 0 1 0 1
0 158 -50 94 0 0 1 7 0 1 0 1
phys
0 143 50 85 0 0 1 7 0 1 0 1
0 158 -50 94 0 0 1 7 0 1 0 1
0 143 -50 85 0 0 1 7 0 1 0 1
phys
0 143 50 94 0 0 1 7 0 1 0 1
0 158 50 94 0 0 1 7 0 1 0 1
0 143 50 85 0 0 1 7 0 1 0 1
phys
0 158 -50 94 0 0 1 7 0 1 0 1
0 143 -50 94 0 0 1 7 0 1 0 1
0 143 -50 85 0 0 1 7 0 1 0 1
phys
0 143 -50 94 0 0 1 7 0 1 0 1
0 143 50 94 0 0 1 7 0 1 0 1
0 143 50 85 0 0 1 7 0 1 0 1
phys
0 143 -50 94 0 0 1 7 0 1 0 1
0 143 50 85 0 0 1 7 0 1 0 1
0 143 -50 85 0 0 1 7 0 1 0 1
phys
0 68 50 40 0 0 1 8 0 1 0 1
0 68 50 49 0 0 1 8 0 1 0 1
0 83 50 49 0 0 1 8 0 1 0 1
phys
0 83 -50 49 0 0 1 8 0 1 0 1
0 68 -50 49 0 0 1 8 0 1 0 1
0 68 -50 40 0 0 1 8 0 1 0 1
phys
0 68 -50 40 0 0 1 8 0 1 0 1
0 68 -50 49 0 0 1 8 0 1 0 1
0 68 50 49 0 0 1 8 0 1 0 1
phys
0 68 -50 40 0 0 1 8 0 1 0 1
0 68 50 49 0 0 1 8 0 1 0 1
0 68 50 40 0 0 1 8 0 1 0 1
phys
0 68 -50 49 0 0 1 8 0 1 0 1
0 83 -50 49 0 0 1 8 0 1 0 1
0 83 50 49 0 0 1 8 0 1 0 1
phys
0 68 -50 49 0 0 1 8 0 1 0 1
0 83 50 49 0 0 1 8 0 1 0 1
0 68 50 49 0 0 1 8 0 1 0 1
phys
0 83 -50 49 0 0 1 8 0 1 0 1
0 68 -50 40 0 0 1 8 0 1 0 1
0 68 50 40 0 0 1 8 0 1 0 1
phys
0 83 -50 49 0 0 1 8 0 1 0 1
0 68 50 40 0 0 1 8 0 1 0 1
0 83 50 49 0 0 1 8 0 1 0 1
phys
0 113 50 67 0 0 1 9 0 1 0 1
0 113 50 76 0 0 1 9 0 1 0 1
0 128 50 76 0 0 1 9 0 1 0 1
phys
0 128 -50 76 0 0 1 9 0 1 0 1
0 113 -50 76 0 0 1 9 0 1 0 1
0 113 -50 67 0 0 1 9 0 1 0 1
phys
0 113 -50 67 0 0 1 9 0 1 0 1
0 113 -50 76 0 0 1 9 0 1 0 1
0 113 50 76 0 0 1 9 0 1 0 1
phys
0 113 -50 67 0 0 1 9 0 1 0 1
0 113 50 76 0 0 1 9 0 1 0 1
0 113 50 67 0 0 1 9 0 1 0 1
phys
0 113 -50 76 0 0 1 9 0 1 0 1
0 128 -50 76 0 0 1 9 0 1 0 1
0 128 50 76 0 0 1 9 0 1 0 1
phys
0 113 -50 76 0 0 1 9 0 1 0 1
0 128 50 76 0 0 1 9 0 1 0 1
0 113 50 76 0 0 1 9 0 1 0 1
phys
0 128 -50 76 0 0 1 9 0 1 0 1
0 113 -50 67 0 0 1 9 0 1 0 1
0 113 50 67 0 0 1 9 0 1 0 1
phys
0 128 -50 76 0 0 1 9 0 1 0 1
0 113 50 67 0 0 1 9 0 1 0 1
0 128 50 76 0 0 1 9 0 1 0 1
phys
0 242 158 240 0 0 1 10 0 1 0 1
0 242 158 236 0 0 1 10 0 1 0 1
0 110 158 236 0 0 1 10 0 1 0 1
phys
0 242 158 240 0 0 1 10 0 1 0 1
0 110 158 236 0 0 1 10 0 1 0 1
0 110 158 240 0 0 1 10 0 1 0 1
phys
0 242 156 236 0 0 1 10 0 1 0 1
0 242 156 240 0 0 1 10 0 1 0 1
0 110 156 240 0 0 1 10 0 1 0 1
phys
0 242 156 236 0 0 1 10 0 1 0 1
0 110 156 240 0 0 1 10 0 1 0 1
0 110 156 236 0 0 1 10 0 1 0 1
phys
0 110 156 236 0 0 1 10 0 1 0 1
0 110 156 240 0 0 1 10 0 1 0 1
0 110 158 240 0 0 1 10 0 1 0 1
phys
0 110 156 236 0 0 1 10 0 1 0 1
0 110 158 240 0 0 1 10 0 1 0 1
0 110 158 236 0 0 1 10 0 1 0 1
phys
0 242 156 240 0 0 1 10 0 1 0 1
0 242 156 236 0 0 1 10 0 1 0 1
0 242 158 236 0 0 1 10 0 1 0 1
phys
0 242 156 240 0 0 1 10 0 1 0 1
0 242 158 236 0 0 1 10 0 1 0 1
0 242 158 240 0 0 1 10 0 1 0 1
phys
0 242 156 236 0 0 1 10 0 1 0 1
0 110 156 236 0 0 1 10 0 1 0 1
0 110 158 236 0 0 1 10 0 1 0 1
phys
0 242 156 236 0 0 1 10 0 1 0 1
0 110 158 236 0 0 1 10 0 1 0 1
0 242 158 236 0 0 1 10 0 1 0 1
phys
0 110 156 240 0 0 1 10 0 1 0 1
0 242 156 240 0 0 1 10 0 1 0 1
0 242 158 240 0 0 1 10 0 1 0 1
phys
0 110 156 240 0 0 1 10 0 1 0 1
0 242 158 240 0 0 1 10 0 1 0 1
0 110 158 240 0 0 1 10 0 1 0 1
phys
0 110 -138 310 0 0 1 11 0 1 0 1
0 110 -138 240 0 0 1 11 0 1 0 1
0 108 -138 240 0 0 1 11 0 1 0 1
phys
0 110 -138 310 0 0 1 11 0 1 0 1
0 108 -138 240 0 0 1 11 0 1 0 1
0 108 -138 310 0 0 1 11 0 1 0 1
phys
0 110 -140 240 0 0 1 11 0 1 0 1
0 110 -140 310 0 0 1 11 0 1 0 1
0 108 -140 310 0 0 1 11 0 1 0 1
phys
0 110 -140 240 0 0 1 11 0 1 0 1
0 108 -140 310 0 0 1 11 0 1 0 1
0 108 -140 240 0 0 1 11 0 1 0 1
phys
0 108 -140 240 0 0 1 11 0 1 0 1
0 108 -140 310 0 0 1 11 0 1 0 1
0 108 -138 310 0 0 1 11 0 1 0 1
phys
0 108 -140 240 0 0 1 11 0 1 0 1
0 108 -138 310 0 0 1 11 0 1 0 1
0 108 -138 240 0 0 1 11 0 1 0 1
phys
0 110 -140 310 0 0 1 11 0 1 0 1
0 110 -140 240 0 0 1 11 0 1 0 1
0 110 -138 240 0 0 1 11 0 1 0 1
phys
0 110 -140 310 0 0 1 11 0 1 0 1
0 110 -138 240 0 0 1 11 0 1 0 1
0 110 -138 310 0 0 1 11 0 1 0 1
phys
0 110 -140 240 0 0 1 11 0 1 0 1
0 108 -140 240 0 0 1 11 0 1 0 1
0 108 -138 240 0 0 1 11 0 1 0 1
phys
0 110 -140 240 0 0 1 11 0 1 0 1
0 108 -138 240 0 0 1 11 0 1 0 1
0 110 -138 240 0 0 1 11 0 1 0 1
phys
0 108 -140 310 0 0 1 11 0 1 0 1
0 110 -140 310 0 0 1 11 0 1 0 1
0 110 -138 310 0 0 1 11 0 1 0 1
phys
0 108 -140 310 0 0 1 11 0 1 0 1
0 110 -138 310 0 0 1 11 0 1 0 1
0 108 -138 310 0 0 1 11 0 1 0 1
phys
0 8 -50 13 0 0 1 12 0 1 0 1
0 23 -50 13 0 0 1 12 0 1 0 1
0 23 50 13 0 0 1 12 0 1 0 1
phys
0 8 -50 13 0 0 1 12 0 1 0 1
0 23 50 13 0 0 1 12 0 1 0 1
0 8 50 13 0 0 1 12 0 1 0 1
phys
0 8 50 4 0 0 1 12 0 1 0 1
0 23 50 13 0 0 1 12 0 1 0 1
0 23 -50 13 0 0 1 12 0 1 0 1
phys
0 8 50 4 0 0 1 12 0 1 0 1
0 23 -50 13 0 0 1 12 0 1 0 1
0 8 -50 4 0 0 1 12 0 1 0 1
phys
0 8 50 13 0 0 1 12 0 1 0 1
0 23 50 13 0 0 1 12 0 1 0 1
0 8 50 4 0 0 1 12 0 1 0 1
phys
0 23 -50 13 0 0 1 12 0 1 0 1
0 8 -50 13 0 0 1 12 0 1 0 1
0 8 -50 4 0 0 1 12 0 1 0 1
phys
0 8 -50 13 0 0 1 12 0 1 0 1
0 8 50 13 0 0 1 12 0 1 0 1
0 8 50 4 0 0 1 12 0 1 0 1
phys
0 8 -50 13 0 0 1 12 0 1 0 1
0 8 50 4 0 0 1 12 0 1 0 1
0 8 -50 4 0 0 1 12 0 1 0 1
phys
0 38 -50 31 0 0 1 13 0 1 0 1
0 53 -50 31 0 0 1 13 0 1 0 1
0 53 50 31 0 0 1 13 0 1 0 1
phys
0 38 -50 31 0 0 1 13 0 1 0 1
0 53 50 31 0 0 1 13 0 1 0 1
0 38 50 31 0 0 1 13 0 1 0 1
phys
0 38 50 22 0 0 1 13 0 1 0 1
0 53 50 31 0 0 1 13 0 1 0 1
0 53 -50 31 0 0 1 13 0 1 0 1
phys
0 38 50 22 0 0 1 13 0 1 0 1
0 53 -50 31 0 0 1 13 0 1 0 1
0 38 -50 22 0 0 1 13 0 1 0 1
phys
0 38 50 31 0 0 1 13 0 1 0 1
0 53 50 31 0 0 1 13 0 1 0 1
0 38 50 22 0 0 1 13 0 1 0 1
phys
0 53 -50 31 0 0 1 13 0 1 0 1
0 38 -50 31 0 0 1 13 0 1 0 1
0 38 -50 22 0 0 1 13 0 1 0 1
phys
0 38 -50 31 0 0 1 13 0 1 0 1
0 38 50 31 0 0 1 13 0 1 0 1
0 38 50 22 0 0 1 13 0 1 0 1
phys
0 38 -50 31 0 0 1 13 0 1 0 1
0 38 50 22 0 0 1 13 0 1 0 1
0 38 -50 22 0 0 1 13 0 1 0 1
phys
0 108 156 310 0 0 1 14 0 1 0 1
0 110 156 310 0 0 1 14 0 1 0 1
0 110 158 310 0 0 1 14 0 1 0 1
phys
0 108 156 310 0 0 1 14 0 1 0 1
0 110 158 310 0 0 1 14 0 1 0 1
0 108 158 310 0 0 1 14 0 1 0 1
phys
0 108 158 240 0 0 1 14 0 1 0 1
0 108 158 310 0 0 1 14 0 1 0 1
0 110 158 310 0 0 1 14 0 1 0 1
phys
0 108 158 240 0 0 1 14 0 1 0 1
0 110 158 310 0 0 1 14 0 1 0 1
0 110 158 240 0 0 1 14 0 1 0 1
phys
0 110 156 240 0 0 1 14 0 1 0 1
0 110 156 310 0 0 1 14 0 1 0 1
0 108 156 310 0 0 1 14 0 1 0 1
phys
0 110 156 240 0 0 1 14 0 1 0 1
0 108 156 310 0 0 1 14 0 1 0 1
0 108 156 240 0 0 1 14 0 1 0 1
phys
0 108 156 240 0 0 1 14 0 1 0 1
0 108 156 310 0 0 1 14 0 1 0 1
0 108 158 310 0 0 1 14 0 1 0 1
phys
0 108 156 240 0 0 1 14 0 1 0 1
0 108 158 310 0 0 1 14 0 1 0 1
0 108 158 240 0 0 1 14 0 1 0 1
phys
0 110 158 240 0 0 1 14 0 1 0 1
0 110 158 310 0 0 1 14 0 1 0 1
0 110 156 310 0 0 1 14 0 1 0 1
phys
0 110 158 240 0 0 1 14 0 1 0 1
0 110 156 310 0 0 1 14 0 1 0 1
0 110 156 240 0 0 1 14 0 1 0 1
phys
0 110 156 240 0 0 1 14 0 1 0 1
0 108 156 240 0 0 1 14 0 1 0 1
0 108 158 240 0 0 1 14 0 1 0 1
phys
0 110 156 240 0 0 1 14 0 1 0 1
0 108 158 240 0 0 1 14 0 1 0 1
0 110 158 240 0 0 1 14 0 1 0 1
phys
0 110 158 240 0 0 1 15 0 1 0 1
0 110 158 236 0 0 1 15 0 1 0 1
0 108 158 236 0 0 1 15 0 1 0 1
phys
0 110 158 240 0 0 1 15 0 1 0 1
0 108 158 236 0 0 1 15 0 1 0 1
0 108 158 240 0 0 1 15 0 1 0 1
phys
0 110 -46 236 0 0 1 15 0 1 0 1
0 110 -46 240 0 0 1 15 0 1 0 1
0 108 -46 240 0 0 1 15 0 1 0 1
phys
0 110 -46 236 0 0 1 15 0 1 0 1
0 108 -46 240 0 0 1 15 0 1 0 1
0 108 -46 236 0 0 1 15 0 1 0 1
phys
0 108 -46 236 0 0 1 15 0 1 0 1
0 108 -46 240 0 0 1 15 0 1 0 1
0 108 158 240 0 0 1 15 0 1 0 1
phys
0 108 -46 236 0 0 1 15 0 1 0 1
0 108 158 240 0 0 1 15 0 1 0 1
0 108 158 236 0 0 1 15 0 1 0 1
phys
0 110 -46 240 0 0 1 15 0 1 0 1
0 110 -46 236 0 0 1 15 0 1 0 1
0 110 158 236 0 0 1 15 0 1 0 1
phys
0 110 -46 240 0 0 1 15 0 1 0 1
0 110 158 236 0 0 1 15 0 1 0 1
0 110 158 240 0 0 1 15 0 1 0 1
phys
0 110 -46 236 0 0 1 15 0 1 0 1
0 108 -46 236 0 0 1 15 0 1 0 1
0 108 158 236 0 0 1 15 0 1 0 1
phys
0 110 -46 236 0 0 1 15 0 1 0 1
0 108 158 236 0 0 1 15 0 1 0 1
0 110 158 236 0 0 1 15 0 1 0 1
phys
0 108 -46 240 0 0 1 15 0 1 0 1
0 110 -46 240 0 0 1 15 0 1 0 1
0 110 158 240 0 0 1 15 0 1 0 1
phys
0 108 -46 240 0 0 1 15 0 1 0 1
0 110 158 240 0 0 1 15 0 1 0 1
0 108 158 240 0 0 1 15 0 1 0 1
phys
0 242 -46 236 0 0 1 16 0 1 0 1
0 242 -46 240 0 0 1 16 0 1 0 1
0 110 -46 240 0 0 1 16 0 1 0 1
phys
0 242 -46 236 0 0 1 16 0 1 0 1
0 110 -46 240 0 0 1 16 0 1 0 1
0 110 -46 236 0 0 1 16 0 1 0 1
phys
0 110 -46 236 0 0 1 16 0 1 0 1
0 110 -46 240 0 0 1 16 0 1 0 1
0 110 -44 240 0 0 1 16 0 1 0 1
phys
0 110 -46 236 0 0 1 16 0 1 0 1
0 110 -44 240 0 0 1 16 0 1 0 1
0 110 -44 236 0 0 1 16 0 1 0 1
phys
0 242 -46 240 0 0 1 16 0 1 0 1
0 242 -46 236 0 0 1 16 0 1 0 1
0 242 -44 236 0 0 1 16 0 1 0 1
phys
0 242 -46 240 0 0 1 16 0 1 0 1
0 242 -44 236 0 0 1 16 0 1 0 1
0 242 -44 240 0 0 1 16 0 1 0 1
phys
0 242 -46 236 0 0 1 16 0 1 0 1
0 110 -46 236 0 0 1 16 0 1 0 1
0 110 -44 236 0 0 1 16 0 1 0 1
phys
0 242 -46 236 0 0 1 16 0 1 0 1
0 110 -44 236 0 0 1 16 0 1 0 1
0 242 -44 236 0 0 1 16 0 1 0 1
phys
0 110 -46 240 0 0 1 16 0 1 0 1
0 242 -46 240 0 0 1 16 0 1 0 1
0 242 -44 240 0 0 1 16 0 1 0 1
phys
0 110 -46 240 0 0 1 16 0 1 0 1
0 242 -44 240 0 0 1 16 0 1 0 1
0 110 -44 240 0 0 1 16 0 1 0 1
phys
0 242 -44 240 0 0 1 16 0 1 0 1
0 242 -44 236 0 0 1 16 0 1 0 1
0 110 -44 236 0 0 1 16 0 1 0 1
phys
0 242 -44 240 0 0 1 16 0 1 0 1
0 110 -44 236 0 0 1 16 0 1 0 1
0 110 -44 240 0 0 1 16 0 1 0 1
phys
0 -37 50 -23 0 0 1 17 0 1 0 1
0 -37 50 -14 0 0 1 17 0 1 0 1
0 -22 50 -14 0 0 1 17 0 1 0 1
phys
0 -22 -50 -14 0 0 1 17 0 1 0 1
0 -37 -50 -14 0 0 1 17 0 1 0 1
0 -37 -50 -23 0 0 1 17 0 1 0 1
phys
0 -37 -50 -23 0 0 1 17 0 1 0 1
0 -37 -50 -14 0 0 1 17 0 1 0 1
0 -37 50 -14 0 0 1 17 0 1 0 1
phys
0 -37 -50 -23 0 0 1 17 0 1 0 1
0 -37 50 -14 0 0 1 17 0 1 0 1
0 -37 50 -23 0 0 1 17 0 1 0 1
phys
0 -37 -50 -14 0 0 1 17 0 1 0 1
0 -22 -50 -14 0 0 1 17 0 1 0 1
0 -22 50 -14 0 0 1 17 0 1 0 1
phys
0 -37 -50 -14 0 0 1 17 0 1 0 1
0 -22 50 -14 0 0 1 17 0 1 0 1
0 -37 50 -14 0 0 1 17 0 1 0 1
phys
0 -22 -50 -14 0 0 1 17 0 1 0 1
0 -37 -50 -23 0 0 1 17 0 1 0 1
0 -37 50 -23 0 0 1 17 0 1 0 1
phys
0 -22 -50 -14 0 0 1 17 0 1 0 1
0 -37 50 -23 0 0 1 17 0 1 0 1
0 -22 50 -14 0 0 1 17 0 1 0 1
phys
0 -22 -50 -5 0 0 1 18 0 1 0 1
0 -7 -50 -5 0 0 1 18 0 1 0 1
0 -7 50 -5 0 0 1 18 0 1 0 1
phys
0 -22 -50 -5 0 0 1 18 0 1 0 1
0 -7 50 -5 0 0 1 18 0 1 0 1
0 -22 50 -5 0 0 1 18 0 1 0 1
phys
0 -22 50 -14 0 0 1 18 0 1 0 1
0 -7 50 -5 0 0 1 18 0 1 0 1
0 -7 -50 -5 0 0 1 18 0 1 0 1
phys
0 -22 50 -14 0 0 1 18 0 1 0 1
0 -7 -50 -5 0 0 1 18 0 1 0 1
0 -22 -50 -14 0 0 1 18 0 1 0 1
phys
0 -22 50 -5 0 0 1 18 0 1 0 1
0 -7 50 -5 0 0 1 18 0 1 0 1
0 -22 50 -14 0 0 1 18 0 1 0 1
phys
0 -7 -50 -5 0 0 1 18 0 1 0 1
0 -22 -50 -5 0 0 1 18 0 1 0 1
0 -22 -50 -14 0 0 1 18 0 1 0 1
phys
0 -22 -50 -5 0 0 1 18 0 1 0 1
0 -22 50 -5 0 0 1 18 0 1 0 1
0 -22 50 -14 0 0 1 18 0 1 0 1
phys
0 -22 -50 -5 0 0 1 18 0 1 0 1
0 -22 50 -14 0 0 1 18 0 1 0 1
0 -22 -50 -14 0 0 1 18 0 1 0 1
phys
0 83 50 49 0 0 1 19 0 1 0 1
0 83 50 58 0 0 1 19 0 1 0 1
0 98 50 58 0 0 1 19 0 1 0 1
phys
0 98 -50 58 0 0 1 19 0 1 0 1
0 83 -50 58 0 0 1 19 0 1 0 1
0 83 -50 49 0 0 1 19 0 1 0 1
phys
0 83 -50 49 0 0 1 19 0 1 0 1
0 83 -50 58 0 0 1 19 0 1 0 1
0 83 50 58 0 0 1 19 0 1 0 1
phys
0 83 -50 49 0 0 1 19 0 1 0 1
0 83 50 58 0 0 1 19 0 1 0 1
0 83 50 49 0 0 1 19 0 1 0 1
phys
0 83 -50 58 0 0 1 19 0 1 0 1
0 98 -50 58 0 0 1 19 0 1 0 1
0 98 50 58 0 0 1 19 0 1 0 1
phys
0 83 -50 58 0 0 1 19 0 1 0 1
0 98 50 58 0 0 1 19 0 1 0 1
0 83 50 58 0 0 1 19 0 1 0 1
phys
0 98 -50 58 0 0 1 19 0 1 0 1
0 83 -50 49 0 0 1 19 0 1 0 1
0 83 50 49 0 0 1 19 0 1 0 1
phys
0 98 -50 58 0 0 1 19 0 1 0 1
0 83 50 49 0 0 1 19 0 1 0 1
0 98 50 58 0 0 1 19 0 1 0 1
phys
0 98 -50 67 0 0 1 20 0 1 0 1
0 113 -50 67 0 0 1 20 0 1 0 1
0 113 50 67 0 0 1 20 0 1 0 1
phys
0 98 -50 67 0 0 1 20 0 1 0 1
0 113 50 67 0 0 1 20 0 1 0 1
0 98 50 67 0 0 1 20 0 1 0 1
phys
0 98 50 58 0 0 1 20 0 1 0 1
0 113 50 67 0 0 1 20 0 1 0 1
0 113 -50 67 0 0 1 20 0 1 0 1
phys
0 98 50 58 0 0 1 20 0 1 0 1
0 113 -50 67 0 0 1 20 0 1 0 1
0 98 -50 58 0 0 1 20 0 1 0 1
phys
0 98 50 67 0 0 1 20 0 1 0 1
0 113 50 67 0 0 1 20 0 1 0 1
0 98 50 58 0 0 1 20 0 1 0 1
phys
0 113 -50 67 0 0 1 20 0 1 0 1
0 98 -50 67 0 0 1 20 0 1 0 1
0 98 -50 58 0 0 1 20 0 1 0 1
phys
0 98 -50 67 0 0 1 20 0 1 0 1
0 98 50 67 0 0 1 20 0 1 0 1
0 98 50 58 0 0 1 20 0 1 0 1
phys
0 98 -50 67 0 0 1 20 0 1 0 1
0 98 50 58 0 0 1 20 0 1 0 1
0 98 -50 58 0 0 1 20 0 1 0 1
phys
0 110 -44 310 0 0 1 21 0 1 0 1
0 110 -44 240 0 0 1 21 0 1 0 1
0 108 -44 240 0 0 1 21 0 1 0 1
phys
0 110 -44 310 0 0 1 21 0 1 0 1
0 108 -44 240 0 0 1 21 0 1 0 1
0 108 -44 310 0 0 1 21 0 1 0 1
phys
0 110 -46 240 0 0 1 21 0 1 0 1
0 110 -46 310 0 0 1 21 0 1 0 1
0 108 -46 310 0 0 1 21 0 1 0 1
phys
0 110 -46 240 0 0 1 21 0 1 0 1
0 108 -46 310 0 0 1 21 0 1 0 1
0 108 -46 240 0 0 1 21 0 1 0 1
phys
0 108 -46 240 0 0 1 21 0 1 0 1
0 108 -46 310 0 0 1 21 0 1 0 1
0 108 -44 310 0 0 1 21 0 1 0 1
phys
0 108 -46 240 0 0 1 21 0 1 0 1
0 108 -44 310 0 0 1 21 0 1 0 1
0 108 -44 240 0 0 1 21 0 1 0 1
phys
0 110 -46 310 0 0 1 21 0 1 0 1
0 110 -46 240 0 0 1 21 0 1 0 1
0 110 -44 240 0 0 1 21 0 1 0 1
phys
0 110 -46 310 0 0 1 21 0 1 0 1
0 110 -44 240 0 0 1 21 0 1 0 1
0 110 -44 310 0 0 1 21 0 1 0 1
phys
0 110 -46 240 0 0 1 21 0 1 0 1
0 108 -46 240 0 0 1 21 0 1 0 1
0 108 -44 240 0 0 1 21 0 1 0 1
phys
0 110 -46 240 0 0 1 21 0 1 0 1
0 108 -44 240 0 0 1 21 0 1 0 1
0 110 -44 240 0 0 1 21 0 1 0 1
phys
0 108 -46 310 0 0 1 21 0 1 0 1
0 110 -46 310 0 0 1 21 0 1 0 1
0 110 -44 310 0 0 1 21 0 1 0 1
phys
0 108 -46 310 0 0 1 21 0 1 0 1
0 110 -44 310 0 0 1 21 0 1 0 1
0 108 -44 310 0 0 1 21 0 1 0 1
phys
0 110 250 240 0 0 1 22 0 1 0 1
0 110 252 240 0 0 1 22 0 1 0 1
0 110 252 310 0 0 1 22 0 1 0 1
phys
0 110 250 240 0 0 1 22 0 1 0 1
0 110 252 310 0 0 1 22 0 1 0 1
0 110 250 310 0 0 1 22 0 1 0 1
phys
0 108 252 240 0 0 1 22 0 1 0 1
0 110 252 240 0 0 1 22 0 1 0 1
0 110 250 240 0 0 1 22 0 1 0 1
phys
0 108 252 240 0 0 1 22 0 1 0 1
0 110 250 240 0 0 1 22 0 1 0 1
0 108 250 240 0 0 1 22 0 1 0 1
phys
0 108 250 310 0 0 1 22 0 1 0 1
0 110 250 310 0 0 1 22 0 1 0 1
0 110 252 310 0 0 1 22 0 1 0 1
phys
0 108 250 310 0 0 1 22 0 1 0 1
0 110 252 310 0 0 1 22 0 1 0 1
0 108 252 310 0 0 1 22 0 1 0 1
phys
0 110 252 310 0 0 1 22 0 1 0 1
0 110 252 240 0 0 1 22 0 1 0 1
0 108 252 240 0 0 1 22 0 1 0 1
phys
0 110 252 310 0 0 1 22 0 1 0 1
0 108 252 240 0 0 1 22 0 1 0 1
0 108 252 310 0 0 1 22 0 1 0 1
phys
0 110 250 240 0 0 1 22 0 1 0 1
0 110 250 310 0 0 1 22 0 1 0 1
0 108 250 310 0 0 1 22 0 1 0 1
phys
0 110 250 240 0 0 1 22 0 1 0 1
0 108 250 310 0 0 1 22 0 1 0 1
0 108 250 240 0 0 1 22 0 1 0 1
phys
0 108 250 310 0 0 1 22 0 1 0 1
0 108 252 310 0 0 1 22 0 1 0 1
0 108 252 240 0 0 1 22 0 1 0 1
phys
0 108 250 310 0 0 1 22 0 1 0 1
0 108 252 240 0 0 1 22 0 1 0 1
0 108 250 240 0 0 1 22 0 1 0 1
phys
0 53 -50 40 0 0 1 23 0 1 0 1
0 68 -50 40 0 0 1 23 0 1 0 1
0 68 50 40 0 0 1 23 0 1 0 1
phys
0 53 -50 40 0 0 1 23 0 1 0 1
0 68 50 40 0 0 1 23 0 1 0 1
0 53 50 40 0 0 1 23 0 1 0 1
phys
0 53 50 31 0 0 1 23 0 1 0 1
0 68 50 40 0 0 1 23 0 1 0 1
0 68 -50 40 0 0 1 23 0 1 0 1
phys
0 53 50 31 0 0 1 23 0 1 0 1
0 68 -50 40 0 0 1 23 0 1 0 1
0 53 -50 31 0 0 1 23 0 1 0 1
phys
0 53 50 40 0 0 1 23 0 1 0 1
0 68 50 40 0 0 1 23 0 1 0 1
0 53 50 31 0 0 1 23 0 1 0 1
phys
0 68 -50 40 0 0 1 23 0 1 0 1
0 53 -50 40 0 0 1 23 0 1 0 1
0 53 -50 31 0 0 1 23 0 1 0 1
phys
0 53 -50 40 0 0 1 23 0 1 0 1
0 53 50 40 0 0 1 23 0 1 0 1
0 53 50 31 0 0 1 23 0 1 0 1
phys
0 53 -50 40 0 0 1 23 0 1 0 1
0 53 50 31 0 0 1 23 0 1 0 1
0 53 -50 31 0 0 1 23 0 1 0 1
phys
0 128 50 76 0 0 1 24 0 1 0 1
0 128 50 85 0 0 1 24 0 1 0 1
0 143 50 85 0 0 1 24 0 1 0 1
phys
0 143 -50 85 0 0 1 24 0 1 0 1
0 128 -50 85 0 0 1 24 0 1 0 1
0 128 -50 76 0 0 1 24 0 1 0 1
phys
0 128 -50 76 0 0 1 24 0 1 0 1
0 128 -50 85 0 0 1 24 0 1 0 1
0 128 50 85 0 0 1 24 0 1 0 1
phys
0 128 -50 76 0 0 1 24 0 1 0 1
0 128 50 85 0 0 1 24 0 1 0 1
0 128 50 76 0 0 1 24 0 1 0 1
phys
0 128 -50 85 0 0 1 24 0 1 0 1
0 143 -50 85 0 0 1 24 0 1 0 1
0 143 50 85 0 0 1 24 0 1 0 1
phys
0 128 -50 85 0 0 1 24 0 1 0 1
0 143 50 85 0 0 1 24 0 1 0 1
0 128 50 85 0 0 1 24 0 1 0 1
phys
0 143 -50 85 0 0 1 24 0 1 0 1
0 128 -50 76 0 0 1 24 0 1 0 1
0 128 50 76 0 0 1 24 0 1 0 1
phys
0 143 -50 85 0 0 1 24 0 1 0 1
0 128 50 76 0 0 1 24 0 1 0 1
0 143 50 85 0 0 1 24 0 1 0 1
end
