version 1
nodes
0 "root" -1
end
skeleton
time 0
0 0 0 0 0 0 0
end
triangles
cs_italy_woodbeam01
0 204 30 -18 0 1 0 -1.171875 -962.5 1 0 1
0 204 30 -124 0 1 0 -2 -962.5 1 0 1
0 196 30 -124 0 1 0 -2 -963 1 0 1
cs_italy_woodbeam01
0 204 30 -18 0 1 0 -1.171875 -962.5 1 0 1
0 196 30 -124 0 1 0 -2 -963 1 0 1
0 196 30 -18 0 1 0 -1.171875 -963 1 0 1
cs_italy_woodbeam01
0 196 22 -124 -1 0 0 -2 228.125 1 0 1
0 196 22 -18 -1 0 0 -1.171875 228.125 1 0 1
0 196 30 -18 -1 0 0 -1.171875 227.625 1 0 1
cs_italy_woodbeam01
0 196 22 -124 -1 0 0 -2 228.125 1 0 1
0 196 30 -18 -1 0 0 -1.171875 227.625 1 0 1
0 196 30 -124 -1 0 0 -2 227.625 1 0 1
cs_italy_woodbeam01
0 204 22 -18 1 0 0 -1.171875 -226 1 0 1
0 204 22 -124 1 0 0 -2 -226 1 0 1
0 204 30 -124 1 0 0 -2 -225.5 1 0 1
cs_italy_woodbeam01
0 204 22 -18 1 0 0 -1.171875 -226 1 0 1
0 204 30 -124 1 0 0 -2 -225.5 1 0 1
0 204 30 -18 1 0 0 -1.171875 -225.5 1 0 1
pepsi2_arch_woodf3
0 -190 -4 4 -1 0 0 28.554688 -0.9375 1 0 1
0 -190 4 4 -1 0 0 28.492188 -0.9375 1 0 1
0 -190 4 -4 -1 0 0 28.492188 -1 1 0 1
pepsi2_arch_woodf3
0 -190 -4 4 -1 0 0 28.554688 -0.9375 1 0 1
0 -190 4 -4 -1 0 0 28.492188 -1 1 0 1
0 -190 -4 -4 -1 0 0 28.554688 -1 1 0 1
pepsi2_arch_woodf3
0 190 -4 -4 1 0 0 -28.554688 -1 1 0 1
0 190 4 -4 1 0 0 -28.492188 -1 1 0 1
0 190 4 4 1 0 0 -28.492188 -0.9375 1 0 1
pepsi2_arch_woodf3
0 190 -4 -4 1 0 0 -28.554688 -1 1 0 1
0 190 4 4 1 0 0 -28.492188 -0.9375 1 0 1
0 190 -4 4 1 0 0 -28.554688 -0.9375 1 0 1
cs_italy_woodbeam01
0 -190 -4 -4 0 0 -1 123.171875 -228 1 0 1
0 -190 4 -4 0 0 -1 123.171875 -227.5 1 0 1
0 190 4 -4 0 0 -1 120.203125 -227.5 1 0 1
cs_italy_woodbeam01
0 -190 -4 -4 0 0 -1 123.171875 -228 1 0 1
0 190 4 -4 0 0 -1 120.203125 -227.5 1 0 1
0 190 -4 -4 0 0 -1 120.203125 -228 1 0 1
cs_italy_woodbeam01
0 190 4 4 0 1 0 -120.046875 16.5 1 0 1
0 190 4 -4 0 1 0 -120.046875 17 1 0 1
0 -190 4 -4 0 1 0 -123.015625 17 1 0 1
cs_italy_woodbeam01
0 190 4 4 0 1 0 -120.046875 16.5 1 0 1
0 -190 4 -4 0 1 0 -123.015625 17 1 0 1
0 -190 4 4 0 1 0 -123.015625 16.5 1 0 1
cs_italy_woodbeam01
0 190 -4 -4 0 -1 0 120.203125 17 1 0 1
0 190 -4 4 0 -1 0 120.203125 16.5 1 0 1
0 -190 -4 4 0 -1 0 123.171875 16.5 1 0 1
cs_italy_woodbeam01
0 190 -4 -4 0 -1 0 120.203125 17 1 0 1
0 -190 -4 4 0 -1 0 123.171875 16.5 1 0 1
0 -190 -4 -4 0 -1 0 123.171875 17 1 0 1
cs_italy_woodbeam01
0 210 4 -4 0 1 0 -1.0625 -961.625 1 0 1
0 210 4 -124 0 1 0 -2 -961.625 1 0 1
0 204 4 -124 0 1 0 -2 -962 1 0 1
cs_italy_woodbeam01
0 210 4 -4 0 1 0 -1.0625 -961.625 1 0 1
0 204 4 -124 0 1 0 -2 -962 1 0 1
0 204 4 -4 0 1 0 -1.0625 -962 1 0 1
cs_italy_woodbeam01
0 210 -4 -124 0 -1 0 -2 -961.625 1 0 1
0 210 -4 -4 0 -1 0 -1.0625 -961.625 1 0 1
0 204 -4 -4 0 -1 0 -1.0625 -962 1 0 1
cs_italy_woodbeam01
0 210 -4 -124 0 -1 0 -2 -961.625 1 0 1
0 204 -4 -4 0 -1 0 -1.0625 -962 1 0 1
0 204 -4 -124 0 -1 0 -2 -962 1 0 1
cs_italy_woodbeam01
0 204 -4 -124 -1 0 0 -2 -228 1 0 1
0 204 -4 -4 -1 0 0 -1.0625 -228 1 0 1
0 204 4 -4 -1 0 0 -1.0625 -227.5 1 0 1
cs_italy_woodbeam01
0 204 -4 -124 -1 0 0 -2 -228 1 0 1
0 204 4 -4 -1 0 0 -1.0625 -227.5 1 0 1
0 204 4 -124 -1 0 0 -2 -227.5 1 0 1
cs_italy_woodbeam01
0 210 -4 -4 1 0 0 2 -228 1 0 1
0 210 -4 -124 1 0 0 2.9375 -228 1 0 1
0 210 4 -124 1 0 0 2.9375 -227.5 1 0 1
cs_italy_woodbeam01
0 210 -4 -4 1 0 0 2 -228 1 0 1
0 210 4 -124 1 0 0 2.9375 -227.5 1 0 1
0 210 4 -4 1 0 0 2 -227.5 1 0 1
pepsi2_arch_woodf3
0 210 -4 -124 0 0 -1 -85.432757 -20.29269 1 0 1
0 204 -4 -124 0 0 -1 -85.466239 -20.29269 1 0 1
0 204 4 -124 0 0 -1 -85.466239 -20.248047 1 0 1
pepsi2_arch_woodf3
0 210 -4 -124 0 0 -1 -85.432757 -20.29269 1 0 1
0 204 4 -124 0 0 -1 -85.466239 -20.248047 1 0 1
0 210 4 -124 0 0 -1 -85.432757 -20.248047 1 0 1
pepsi2_arch_woodf3
0 204 -4 -4 0 0 1 -85.466239 -20.29269 1 0 1
0 210 -4 -4 0 0 1 -85.432757 -20.29269 1 0 1
0 210 4 -4 0 0 1 -85.432757 -20.248047 1 0 1
pepsi2_arch_woodf3
0 204 -4 -4 0 0 1 -85.466239 -20.29269 1 0 1
0 210 4 -4 0 0 1 -85.432757 -20.248047 1 0 1
0 204 4 -4 0 0 1 -85.466239 -20.248047 1 0 1
pepsi2_arch_woodf3
0 204 -4 -22.001 -1 0 0 28.554688 -1.140633 1 0 1
0 204 -22 -4 -1 0 0 28.695312 -1 1 0 1
0 204 -18 -4 -1 0 0 28.664062 -1 1 0 1
pepsi2_arch_woodf3
0 204 -4 -22.001 -1 0 0 28.554688 -1.140633 1 0 1
0 204 -18 -4 -1 0 0 28.664062 -1 1 0 1
0 204 -4 -18 -1 0 0 28.554688 -1.109375 1 0 1
cs_italy_woodbeam01
0 210 -4 -18 1 0 0 -56.862152 -172.819844 1 0 1
0 210 -18 -4 1 0 0 -56.738405 -172.819844 1 0 1
0 210 -22 -4 1 0 0 -56.720727 -172.996619 1 0 1
cs_italy_woodbeam01
0 210 -4 -18 1 0 0 -56.862152 -172.819844 1 0 1
0 210 -22 -4 1 0 0 -56.720727 -172.996619 1 0 1
0 210 -4 -22.001 1 0 0 -56.879835 -172.996663 1 0 1
pepsi2_arch_woodf3
0 210 -22 -4 0 0 1 -85.432757 -20.393136 1 0 1
0 210 -18 -4 0 0 1 -85.432757 -20.370815 1 0 1
0 204 -18 -4 0 0 1 -85.466239 -20.370815 1 0 1
pepsi2_arch_woodf3
0 210 -22 -4 0 0 1 -85.432757 -20.393136 1 0 1
0 204 -18 -4 0 0 1 -85.466239 -20.370815 1 0 1
0 204 -22 -4 0 0 1 -85.466239 -20.393136 1 0 1
cs_italy_woodbeam01
0 210 -18 -4 0 0.707107 0.707107 28.890625 -962 1 0 1
0 210 -4 -18 0 0.707107 0.707107 28.78125 -962 1 0 1
0 204 -4 -18 0 0.707107 0.707107 28.78125 -962.375 1 0 1
cs_italy_woodbeam01
0 210 -18 -4 0 0.707107 0.707107 28.890625 -962 1 0 1
0 204 -4 -18 0 0.707107 0.707107 28.78125 -962.375 1 0 1
0 204 -18 -4 0 0.707107 0.707107 28.890625 -962.375 1 0 1
cs_italy_woodbeam01
0 204 -22 -4 0 -0.707126 -0.707087 28.921875 -962.375 1 0 1
0 204 -4 -22.001 0 -0.707126 -0.707087 28.78125 -962.375 1 0 1
0 210 -4 -22.001 0 -0.707126 -0.707087 28.78125 -962 1 0 1
cs_italy_woodbeam01
0 204 -22 -4 0 -0.707126 -0.707087 28.921875 -962.375 1 0 1
0 210 -4 -22.001 0 -0.707126 -0.707087 28.78125 -962 1 0 1
0 210 -22 -4 0 -0.707126 -0.707087 28.921875 -962 1 0 1
pepsi2_arch_woodf3
0 210 -4 -18 0 1 0 120.390625 -1.109375 1 0 1
0 210 -4 -22.001 0 1 0 120.390625 -1.140633 1 0 1
0 204 -4 -22.001 0 1 0 120.4375 -1.140633 1 0 1
pepsi2_arch_woodf3
0 210 -4 -18 0 1 0 120.390625 -1.109375 1 0 1
0 204 -4 -22.001 0 1 0 120.4375 -1.140633 1 0 1
0 204 -4 -18 0 1 0 120.4375 -1.109375 1 0 1
pepsi2_arch_woodf3
0 196 4 -21.999 0 -1 0 -120.5 -1.140617 1 0 1
0 196 4 -18 0 -1 0 -120.5 -1.109375 1 0 1
0 190 4 -18 0 -1 0 -120.546875 -1.109375 1 0 1
pepsi2_arch_woodf3
0 196 4 -21.999 0 -1 0 -120.5 -1.140617 1 0 1
0 190 4 -18 0 -1 0 -120.546875 -1.109375 1 0 1
0 190 4 -21.999 0 -1 0 -120.546875 -1.140617 1 0 1
cs_italy_woodbeam01
0 190 4 -21.999 -1 0 0 54.120241 151.003063 1 0 1
0 190 4 -18 -1 0 0 54.137915 151.179794 1 0 1
0 190 18 -4 -1 0 0 54.261662 151.179794 1 0 1
cs_italy_woodbeam01
0 190 4 -21.999 -1 0 0 54.120241 151.003063 1 0 1
0 190 18 -4 -1 0 0 54.261662 151.179794 1 0 1
0 190 22 -4 -1 0 0 54.27934 151.003019 1 0 1
pepsi2_arch_woodf3
0 196 4 -18 1 0 0 -28.492188 -1.109375 1 0 1
0 196 4 -21.999 1 0 0 -28.492188 -1.140617 1 0 1
0 196 22 -4 1 0 0 -28.351562 -1 1 0 1
pepsi2_arch_woodf3
0 196 4 -18 1 0 0 -28.492188 -1.109375 1 0 1
0 196 22 -4 1 0 0 -28.351562 -1 1 0 1
0 196 18 -4 1 0 0 -28.382812 -1 1 0 1
pepsi2_arch_woodf3
0 196 18 -4 0 0 1 -85.510882 -20.169922 1 0 1
0 196 22 -4 0 0 1 -85.510882 -20.1476 1 0 1
0 190 22 -4 0 0 1 -85.544364 -20.1476 1 0 1
pepsi2_arch_woodf3
0 196 18 -4 0 0 1 -85.510882 -20.169922 1 0 1
0 190 22 -4 0 0 1 -85.544364 -20.1476 1 0 1
0 190 18 -4 0 0 1 -85.544364 -20.169922 1 0 1
cs_italy_woodbeam01
0 190 4 -18 0 -0.707107 0.707107 -29.21875 965 1 0 1
0 196 4 -18 0 -0.707107 0.707107 -29.21875 964.625 1 0 1
0 196 18 -4 0 -0.707107 0.707107 -29.109375 964.625 1 0 1
cs_italy_woodbeam01
0 190 4 -18 0 -0.707107 0.707107 -29.21875 965 1 0 1
0 196 18 -4 0 -0.707107 0.707107 -29.109375 964.625 1 0 1
0 190 18 -4 0 -0.707107 0.707107 -29.109375 965 1 0 1
cs_italy_woodbeam01
0 196 4 -21.999 0 0.707087 -0.707126 -29.21875 964.625 1 0 1
0 190 4 -21.999 0 0.707087 -0.707126 -29.21875 965 1 0 1
0 190 22 -4 0 0.707087 -0.707126 -29.078125 965 1 0 1
cs_italy_woodbeam01
0 196 4 -21.999 0 0.707087 -0.707126 -29.21875 964.625 1 0 1
0 190 22 -4 0 0.707087 -0.707126 -29.078125 965 1 0 1
0 196 22 -4 0 0.707087 -0.707126 -29.078125 964.625 1 0 1
cs_italy_woodbeam01
0 196 4 -4 0 1 0 -1.0625 -962.625 1 0 1
0 196 4 -124 0 1 0 -2 -962.625 1 0 1
0 190 4 -124 0 1 0 -2 -963 1 0 1
cs_italy_woodbeam01
0 196 4 -4 0 1 0 -1.0625 -962.625 1 0 1
0 190 4 -124 0 1 0 -2 -963 1 0 1
0 190 4 -4 0 1 0 -1.0625 -963 1 0 1
cs_italy_woodbeam01
0 196 -4 -124 0 -1 0 -2 -962.625 1 0 1
0 196 -4 -4 0 -1 0 -1.0625 -962.625 1 0 1
0 190 -4 -4 0 -1 0 -1.0625 -963 1 0 1
cs_italy_woodbeam01
0 196 -4 -124 0 -1 0 -2 -962.625 1 0 1
0 190 -4 -4 0 -1 0 -1.0625 -963 1 0 1
0 190 -4 -124 0 -1 0 -2 -963 1 0 1
cs_italy_woodbeam01
0 190 -4 -124 -1 0 0 -2 -228 1 0 1
0 190 -4 -4 -1 0 0 -1.0625 -228 1 0 1
0 190 4 -4 -1 0 0 -1.0625 -227.5 1 0 1
cs_italy_woodbeam01
0 190 -4 -124 -1 0 0 -2 -228 1 0 1
0 190 4 -4 -1 0 0 -1.0625 -227.5 1 0 1
0 190 4 -124 -1 0 0 -2 -227.5 1 0 1
cs_italy_woodbeam01
0 196 -4 -4 1 0 0 2 -228 1 0 1
0 196 -4 -124 1 0 0 2.9375 -228 1 0 1
0 196 4 -124 1 0 0 2.9375 -227.5 1 0 1
cs_italy_woodbeam01
0 196 -4 -4 1 0 0 2 -228 1 0 1
0 196 4 -124 1 0 0 2.9375 -227.5 1 0 1
0 196 4 -4 1 0 0 2 -227.5 1 0 1
pepsi2_arch_woodf3
0 196 -4 -124 0 0 -1 -85.510882 -20.29269 1 0 1
0 190 -4 -124 0 0 -1 -85.544364 -20.29269 1 0 1
0 190 4 -124 0 0 -1 -85.544364 -20.248047 1 0 1
pepsi2_arch_woodf3
0 196 -4 -124 0 0 -1 -85.510882 -20.29269 1 0 1
0 190 4 -124 0 0 -1 -85.544364 -20.248047 1 0 1
0 196 4 -124 0 0 -1 -85.510882 -20.248047 1 0 1
pepsi2_arch_woodf3
0 190 -4 -4 0 0 1 -85.544364 -20.29269 1 0 1
0 196 -4 -4 0 0 1 -85.510882 -20.29269 1 0 1
0 196 4 -4 0 0 1 -85.510882 -20.248047 1 0 1
pepsi2_arch_woodf3
0 190 -4 -4 0 0 1 -85.544364 -20.29269 1 0 1
0 196 4 -4 0 0 1 -85.510882 -20.248047 1 0 1
0 190 4 -4 0 0 1 -85.544364 -20.248047 1 0 1
pepsi2_arch_woodf3
0 -190 -4 -18 0 1 0 123.515625 -1.109375 1 0 1
0 -190 -4 -22.001 0 1 0 123.515625 -1.140633 1 0 1
0 -196 -4 -22.001 0 1 0 123.5625 -1.140633 1 0 1
pepsi2_arch_woodf3
0 -190 -4 -18 0 1 0 123.515625 -1.109375 1 0 1
0 -196 -4 -22.001 0 1 0 123.5625 -1.140633 1 0 1
0 -196 -4 -18 0 1 0 123.5625 -1.109375 1 0 1
pepsi2_arch_woodf3
0 -196 -22 -4 -1 0 0 28.695312 -1 1 0 1
0 -196 -18 -4 -1 0 0 28.664062 -1 1 0 1
0 -196 -4 -18 -1 0 0 28.554688 -1.109375 1 0 1
pepsi2_arch_woodf3
0 -196 -22 -4 -1 0 0 28.695312 -1 1 0 1
0 -196 -4 -18 -1 0 0 28.554688 -1.109375 1 0 1
0 -196 -4 -22.001 -1 0 0 28.554688 -1.140633 1 0 1
cs_italy_woodbeam01
0 -190 -4 -22.001 1 0 0 -58.879835 -172.996663 1 0 1
0 -190 -4 -18 1 0 0 -58.862152 -172.819844 1 0 1
0 -190 -18 -4 1 0 0 -58.738405 -172.819844 1 0 1
cs_italy_woodbeam01
0 -190 -4 -22.001 1 0 0 -58.879835 -172.996663 1 0 1
0 -190 -18 -4 1 0 0 -58.738405 -172.819844 1 0 1
0 -190 -22 -4 1 0 0 -58.720727 -172.996619 1 0 1
pepsi2_arch_woodf3
0 -190 -22 -4 0 0 1 -87.6649 -20.393136 1 0 1
0 -190 -18 -4 0 0 1 -87.6649 -20.370815 1 0 1
0 -196 -18 -4 0 0 1 -87.698382 -20.370815 1 0 1
pepsi2_arch_woodf3
0 -190 -22 -4 0 0 1 -87.6649 -20.393136 1 0 1
0 -196 -18 -4 0 0 1 -87.698382 -20.370815 1 0 1
0 -196 -22 -4 0 0 1 -87.698382 -20.393136 1 0 1
cs_italy_woodbeam01
0 -190 -18 -4 0 0.707107 0.707107 28.890625 -987 1 0 1
0 -190 -4 -18 0 0.707107 0.707107 28.78125 -987 1 0 1
0 -196 -4 -18 0 0.707107 0.707107 28.78125 -987.375 1 0 1
cs_italy_woodbeam01
0 -190 -18 -4 0 0.707107 0.707107 28.890625 -987 1 0 1
0 -196 -4 -18 0 0.707107 0.707107 28.78125 -987.375 1 0 1
0 -196 -18 -4 0 0.707107 0.707107 28.890625 -987.375 1 0 1
cs_italy_woodbeam01
0 -196 -22 -4 0 -0.707126 -0.707087 28.921875 -987.375 1 0 1
0 -196 -4 -22.001 0 -0.707126 -0.707087 28.78125 -987.375 1 0 1
0 -190 -4 -22.001 0 -0.707126 -0.707087 28.78125 -987 1 0 1
cs_italy_woodbeam01
0 -196 -22 -4 0 -0.707126 -0.707087 28.921875 -987.375 1 0 1
0 -190 -4 -22.001 0 -0.707126 -0.707087 28.78125 -987 1 0 1
0 -190 -22 -4 0 -0.707126 -0.707087 28.921875 -987 1 0 1
pepsi2_arch_woodf3
0 196 -4 -18 0 1 0 120.5 -1.109375 1 0 1
0 196 -4 -22.001 0 1 0 120.5 -1.140633 1 0 1
0 190 -4 -22.001 0 1 0 120.546875 -1.140633 1 0 1
pepsi2_arch_woodf3
0 196 -4 -18 0 1 0 120.5 -1.109375 1 0 1
0 190 -4 -22.001 0 1 0 120.546875 -1.140633 1 0 1
0 190 -4 -18 0 1 0 120.546875 -1.109375 1 0 1
cs_italy_woodbeam01
0 190 -22 -4 -1 0 0 86.67771 175.496619 1 0 1
0 190 -18 -4 -1 0 0 86.660032 175.319844 1 0 1
0 190 -4 -18 -1 0 0 86.536285 175.319844 1 0 1
cs_italy_woodbeam01
0 190 -22 -4 -1 0 0 86.67771 175.496619 1 0 1
0 190 -4 -18 -1 0 0 86.536285 175.319844 1 0 1
0 190 -4 -22.001 -1 0 0 86.518603 175.496663 1 0 1
pepsi2_arch_woodf3
0 196 -4 -22.001 1 0 0 -28.554688 -1.140633 1 0 1
0 196 -4 -18 1 0 0 -28.554688 -1.109375 1 0 1
0 196 -18 -4 1 0 0 -28.664062 -1 1 0 1
pepsi2_arch_woodf3
0 196 -4 -22.001 1 0 0 -28.554688 -1.140633 1 0 1
0 196 -18 -4 1 0 0 -28.664062 -1 1 0 1
0 196 -22 -4 1 0 0 -28.695312 -1 1 0 1
pepsi2_arch_woodf3
0 196 -22 -4 0 0 1 -85.510882 -20.393136 1 0 1
0 196 -18 -4 0 0 1 -85.510882 -20.370815 1 0 1
0 190 -18 -4 0 0 1 -85.544364 -20.370815 1 0 1
pepsi2_arch_woodf3
0 196 -22 -4 0 0 1 -85.510882 -20.393136 1 0 1
0 190 -18 -4 0 0 1 -85.544364 -20.370815 1 0 1
0 190 -22 -4 0 0 1 -85.544364 -20.393136 1 0 1
cs_italy_woodbeam01
0 196 -18 -4 0 0.707107 0.707107 28.890625 -963 1 0 1
0 196 -4 -18 0 0.707107 0.707107 28.78125 -963 1 0 1
0 190 -4 -18 0 0.707107 0.707107 28.78125 -963.375 1 0 1
cs_italy_woodbeam01
0 196 -18 -4 0 0.707107 0.707107 28.890625 -963 1 0 1
0 190 -4 -18 0 0.707107 0.707107 28.78125 -963.375 1 0 1
0 190 -18 -4 0 0.707107 0.707107 28.890625 -963.375 1 0 1
cs_italy_woodbeam01
0 190 -22 -4 0 -0.707126 -0.707087 28.921875 -963.375 1 0 1
0 190 -4 -22.001 0 -0.707126 -0.707087 28.78125 -963.375 1 0 1
0 196 -4 -22.001 0 -0.707126 -0.707087 28.78125 -963 1 0 1
cs_italy_woodbeam01
0 190 -22 -4 0 -0.707126 -0.707087 28.921875 -963.375 1 0 1
0 196 -4 -22.001 0 -0.707126 -0.707087 28.78125 -963 1 0 1
0 196 -22 -4 0 -0.707126 -0.707087 28.921875 -963 1 0 1
cs_italy_woodbeam01
0 -45 -118 -15.972 0 1 0 1.296656 979.78125 1 0 1
0 -45 -118 -124 0 1 0 2.140625 979.78125 1 0 1
0 -49 -118 -124 0 1 0 2.140625 980.03125 1 0 1
cs_italy_woodbeam01
0 -45 -118 -15.972 0 1 0 1.296656 979.78125 1 0 1
0 -49 -118 -124 0 1 0 2.140625 980.03125 1 0 1
0 -49 -118 -11.97 0 1 0 1.265391 980.03125 1 0 1
de_nuke_nuke_beam_01
0 -45 -126 -124 0 -1 0 203.801432 5.452474 1 0 1
0 -45 -126 -15.99 0 -1 0 203.801432 4.046094 1 0 1
0 -49 -126 -11.988 0 -1 0 203.853516 3.993984 1 0 1
de_nuke_nuke_beam_01
0 -45 -126 -124 0 -1 0 203.801432 5.452474 1 0 1
0 -49 -126 -11.988 0 -1 0 203.853516 3.993984 1 0 1
0 -49 -126 -124 0 -1 0 203.853516 5.452474 1 0 1
de_nuke_nuke_beam_01
0 -45 -126 -15.99 1 0 0 49.302734 4.046094 1 0 1
0 -45 -126 -124 1 0 0 49.302734 5.452474 1 0 1
0 -45 -118 -124 1 0 0 49.198568 5.452474 1 0 1
de_nuke_nuke_beam_01
0 -45 -126 -15.99 1 0 0 49.302734 4.046094 1 0 1
0 -45 -118 -124 1 0 0 49.198568 5.452474 1 0 1
0 -45 -118 -15.972 1 0 0 49.198568 4.045859 1 0 1
cs_italy_woodbeam01
0 7 -118 -12.001 0 1 0 -2.046883 -973.96875 1 0 1
0 7 -118 -124 0 1 0 -2.921875 -973.96875 1 0 1
0 3 -118 -124 0 1 0 -2.921875 -974.21875 1 0 1
cs_italy_woodbeam01
0 7 -118 -12.001 0 1 0 -2.046883 -973.96875 1 0 1
0 3 -118 -124 0 1 0 -2.921875 -974.21875 1 0 1
0 3 -118 -16.001 0 1 0 -2.078133 -974.21875 1 0 1
de_nuke_nuke_beam_01
0 7 -126 -124 0 -1 0 -203.145833 5.452474 1 0 1
0 7 -126 -12.001 0 -1 0 -203.145833 3.994154 1 0 1
0 3 -126 -16.001 0 -1 0 -203.197917 4.046237 1 0 1
de_nuke_nuke_beam_01
0 7 -126 -124 0 -1 0 -203.145833 5.452474 1 0 1
0 3 -126 -16.001 0 -1 0 -203.197917 4.046237 1 0 1
0 3 -126 -124 0 -1 0 -203.197917 5.452474 1 0 1
cs_italy_woodbeam01
0 3 -126 -124 -1 0 0 -2.921875 -235.71875 1 0 1
0 3 -126 -16.001 -1 0 0 -2.078133 -235.71875 1 0 1
0 3 -118 -16.001 -1 0 0 -2.078133 -235.21875 1 0 1
cs_italy_woodbeam01
0 3 -126 -124 -1 0 0 -2.921875 -235.71875 1 0 1
0 3 -118 -16.001 -1 0 0 -2.078133 -235.21875 1 0 1
0 3 -118 -124 -1 0 0 -2.921875 -235.21875 1 0 1
cs_italy_woodbeam01
0 -190 4 -4 0 1 0 -1.0625 -986.625 1 0 1
0 -190 4 -124 0 1 0 -2 -986.625 1 0 1
0 -196 4 -124 0 1 0 -2 -987 1 0 1
cs_italy_woodbeam01
0 -190 4 -4 0 1 0 -1.0625 -986.625 1 0 1
0 -196 4 -124 0 1 0 -2 -987 1 0 1
0 -196 4 -4 0 1 0 -1.0625 -987 1 0 1
cs_italy_woodbeam01
0 -190 -4 -124 0 -1 0 -2 -986.625 1 0 1
0 -190 -4 -4 0 -1 0 -1.0625 -986.625 1 0 1
0 -196 -4 -4 0 -1 0 -1.0625 -987 1 0 1
cs_italy_woodbeam01
0 -190 -4 -124 0 -1 0 -2 -986.625 1 0 1
0 -196 -4 -4 0 -1 0 -1.0625 -987 1 0 1
0 -196 -4 -124 0 -1 0 -2 -987 1 0 1
cs_italy_woodbeam01
0 -196 -4 -124 -1 0 0 -2 -228 1 0 1
0 -196 -4 -4 -1 0 0 -1.0625 -228 1 0 1
0 -196 4 -4 -1 0 0 -1.0625 -227.5 1 0 1
cs_italy_woodbeam01
0 -196 -4 -124 -1 0 0 -2 -228 1 0 1
0 -196 4 -4 -1 0 0 -1.0625 -227.5 1 0 1
0 -196 4 -124 -1 0 0 -2 -227.5 1 0 1
cs_italy_woodbeam01
0 -190 -4 -4 1 0 0 2 -228 1 0 1
0 -190 -4 -124 1 0 0 2.9375 -228 1 0 1
0 -190 4 -124 1 0 0 2.9375 -227.5 1 0 1
cs_italy_woodbeam01
0 -190 -4 -4 1 0 0 2 -228 1 0 1
0 -190 4 -124 1 0 0 2.9375 -227.5 1 0 1
0 -190 4 -4 1 0 0 2 -227.5 1 0 1
pepsi2_arch_woodf3
0 -190 -4 -124 0 0 -1 -87.6649 -20.29269 1 0 1
0 -196 -4 -124 0 0 -1 -87.698382 -20.29269 1 0 1
0 -196 4 -124 0 0 -1 -87.698382 -20.248047 1 0 1
pepsi2_arch_woodf3
0 -190 -4 -124 0 0 -1 -87.6649 -20.29269 1 0 1
0 -196 4 -124 0 0 -1 -87.698382 -20.248047 1 0 1
0 -190 4 -124 0 0 -1 -87.6649 -20.248047 1 0 1
pepsi2_arch_woodf3
0 -196 -4 -4 0 0 1 -87.698382 -20.29269 1 0 1
0 -190 -4 -4 0 0 1 -87.6649 -20.29269 1 0 1
0 -190 4 -4 0 0 1 -87.6649 -20.248047 1 0 1
pepsi2_arch_woodf3
0 -196 -4 -4 0 0 1 -87.698382 -20.29269 1 0 1
0 -190 4 -4 0 0 1 -87.6649 -20.248047 1 0 1
0 -196 4 -4 0 0 1 -87.698382 -20.248047 1 0 1
de_nuke_nuke_beam_01
0 7 -126 -12 0 -1 0 -3.146484 203.870443 1 0 1
0 -49 -126 -12 0 -1 0 -3.146484 204.599609 1 0 1
0 -45 -126 -16 0 -1 0 -3.198568 204.547526 1 0 1
de_nuke_nuke_beam_01
0 7 -126 -12 0 -1 0 -3.146484 203.870443 1 0 1
0 -45 -126 -16 0 -1 0 -3.198568 204.547526 1 0 1
0 3 -126 -16 0 -1 0 -3.198568 203.922526 1 0 1
cs_italy_woodbeam01
0 3 -126 -16 0 0 -1 121.921875 -235.71875 1 0 1
0 -45 -126 -16 0 0 -1 122.296875 -235.71875 1 0 1
0 -45 -118 -16 0 0 -1 122.296875 -235.21875 1 0 1
cs_italy_woodbeam01
0 3 -126 -16 0 0 -1 121.921875 -235.71875 1 0 1
0 -45 -118 -16 0 0 -1 122.296875 -235.21875 1 0 1
0 3 -118 -16 0 0 -1 121.921875 -235.21875 1 0 1
cs_italy_woodbeam01
0 3 -118 -16 0 1 0 121.921875 -15.21875 1 0 1
0 -45 -118 -16 0 1 0 122.296875 -15.21875 1 0 1
0 -49 -118 -12 0 1 0 122.328125 -14.96875 1 0 1
cs_italy_woodbeam01
0 3 -118 -16 0 1 0 121.921875 -15.21875 1 0 1
0 -49 -118 -12 0 1 0 122.328125 -14.96875 1 0 1
0 7 -118 -12 0 1 0 121.890625 -14.96875 1 0 1
pepsi2_arch_woodf3
0 -190 4 -21.999 0 -1 0 -123.515625 -1.140617 1 0 1
0 -190 4 -18 0 -1 0 -123.515625 -1.109375 1 0 1
0 -196 4 -18 0 -1 0 -123.5625 -1.109375 1 0 1
pepsi2_arch_woodf3
0 -190 4 -21.999 0 -1 0 -123.515625 -1.140617 1 0 1
0 -196 4 -18 0 -1 0 -123.5625 -1.109375 1 0 1
0 -196 4 -21.999 0 -1 0 -123.5625 -1.140617 1 0 1
pepsi2_arch_woodf3
0 -196 4 -21.999 -1 0 0 28.492188 -1.140617 1 0 1
0 -196 4 -18 -1 0 0 28.492188 -1.109375 1 0 1
0 -196 18 -4 -1 0 0 28.382812 -1 1 0 1
pepsi2_arch_woodf3
0 -196 4 -21.999 -1 0 0 28.492188 -1.140617 1 0 1
0 -196 18 -4 -1 0 0 28.382812 -1 1 0 1
0 -196 22 -4 -1 0 0 28.351562 -1 1 0 1
cs_italy_woodbeam01
0 -190 4 -18 1 0 0 -90.463648 -148.679794 1 0 1
0 -190 4 -21.999 1 0 0 -90.481321 -148.503063 1 0 1
0 -190 22 -4 1 0 0 -90.322223 -148.503019 1 0 1
cs_italy_woodbeam01
0 -190 4 -18 1 0 0 -90.463648 -148.679794 1 0 1
0 -190 22 -4 1 0 0 -90.322223 -148.503019 1 0 1
0 -190 18 -4 1 0 0 -90.339901 -148.679794 1 0 1
pepsi2_arch_woodf3
0 -190 18 -4 0 0 1 -87.6649 -20.169922 1 0 1
0 -190 22 -4 0 0 1 -87.6649 -20.1476 1 0 1
0 -196 22 -4 0 0 1 -87.698382 -20.1476 1 0 1
pepsi2_arch_woodf3
0 -190 18 -4 0 0 1 -87.6649 -20.169922 1 0 1
0 -196 22 -4 0 0 1 -87.698382 -20.1476 1 0 1
0 -196 18 -4 0 0 1 -87.698382 -20.169922 1 0 1
cs_italy_woodbeam01
0 -196 4 -18 0 -0.707107 0.707107 -29.21875 989 1 0 1
0 -190 4 -18 0 -0.707107 0.707107 -29.21875 988.625 1 0 1
0 -190 18 -4 0 -0.707107 0.707107 -29.109375 988.625 1 0 1
cs_italy_woodbeam01
0 -196 4 -18 0 -0.707107 0.707107 -29.21875 989 1 0 1
0 -190 18 -4 0 -0.707107 0.707107 -29.109375 988.625 1 0 1
0 -196 18 -4 0 -0.707107 0.707107 -29.109375 989 1 0 1
cs_italy_woodbeam01
0 -190 4 -21.999 0 0.707087 -0.707126 -29.21875 988.625 1 0 1
0 -196 4 -21.999 0 0.707087 -0.707126 -29.21875 989 1 0 1
0 -196 22 -4 0 0.707087 -0.707126 -29.078125 989 1 0 1
cs_italy_woodbeam01
0 -190 4 -21.999 0 0.707087 -0.707126 -29.21875 988.625 1 0 1
0 -196 22 -4 0 0.707087 -0.707126 -29.078125 989 1 0 1
0 -190 22 -4 0 0.707087 -0.707126 -29.078125 988.625 1 0 1
pepsi2_arch_woodf3
0 210 4 -21.999 0 -1 0 -120.390625 -1.140617 1 0 1
0 210 4 -18 0 -1 0 -120.390625 -1.109375 1 0 1
0 204 4 -18 0 -1 0 -120.4375 -1.109375 1 0 1
pepsi2_arch_woodf3
0 210 4 -21.999 0 -1 0 -120.390625 -1.140617 1 0 1
0 204 4 -18 0 -1 0 -120.4375 -1.109375 1 0 1
0 204 4 -21.999 0 -1 0 -120.4375 -1.140617 1 0 1
pepsi2_arch_woodf3
0 204 4 -21.999 -1 0 0 28.492188 -1.140617 1 0 1
0 204 4 -18 -1 0 0 28.492188 -1.109375 1 0 1
0 204 18 -4 -1 0 0 28.382812 -1 1 0 1
pepsi2_arch_woodf3
0 204 4 -21.999 -1 0 0 28.492188 -1.140617 1 0 1
0 204 18 -4 -1 0 0 28.382812 -1 1 0 1
0 204 22 -4 -1 0 0 28.351562 -1 1 0 1
cs_italy_woodbeam01
0 210 4 -18 1 0 0 -89.463648 -148.679794 1 0 1
0 210 4 -21.999 1 0 0 -89.481321 -148.503063 1 0 1
0 210 22 -4 1 0 0 -89.322223 -148.503019 1 0 1
cs_italy_woodbeam01
0 210 4 -18 1 0 0 -89.463648 -148.679794 1 0 1
0 210 22 -4 1 0 0 -89.322223 -148.503019 1 0 1
0 210 18 -4 1 0 0 -89.339901 -148.679794 1 0 1
pepsi2_arch_woodf3
0 210 18 -4 0 0 1 -85.432757 -20.169922 1 0 1
0 210 22 -4 0 0 1 -85.432757 -20.1476 1 0 1
0 204 22 -4 0 0 1 -85.466239 -20.1476 1 0 1
pepsi2_arch_woodf3
0 210 18 -4 0 0 1 -85.432757 -20.169922 1 0 1
0 204 22 -4 0 0 1 -85.466239 -20.1476 1 0 1
0 204 18 -4 0 0 1 -85.466239 -20.169922 1 0 1
cs_italy_woodbeam01
0 204 4 -18 0 -0.707107 0.707107 -29.21875 964 1 0 1
0 210 4 -18 0 -0.707107 0.707107 -29.21875 963.625 1 0 1
0 210 18 -4 0 -0.707107 0.707107 -29.109375 963.625 1 0 1
cs_italy_woodbeam01
0 204 4 -18 0 -0.707107 0.707107 -29.21875 964 1 0 1
0 210 18 -4 0 -0.707107 0.707107 -29.109375 963.625 1 0 1
0 204 18 -4 0 -0.707107 0.707107 -29.109375 964 1 0 1
cs_italy_woodbeam01
0 210 4 -21.999 0 0.707087 -0.707126 -29.21875 963.625 1 0 1
0 204 4 -21.999 0 0.707087 -0.707126 -29.21875 964 1 0 1
0 204 22 -4 0 0.707087 -0.707126 -29.078125 964 1 0 1
cs_italy_woodbeam01
0 210 4 -21.999 0 0.707087 -0.707126 -29.21875 963.625 1 0 1
0 204 22 -4 0 0.707087 -0.707126 -29.078125 964 1 0 1
0 210 22 -4 0 0.707087 -0.707126 -29.078125 963.625 1 0 1
end
