version 1
nodes
0 "root" -1
end
skeleton
time 0
0 0 0 0 0 0 0
end
triangles
phys
0 -72 -36 -92 0 0 1 1 0 1 0 1
0 -104 -36 -92 0 0 1 1 0 1 0 1
0 -104 60 -92 0 0 1 1 0 1 0 1
phys
0 -72 -36 -92 0 0 1 1 0 1 0 1
0 -104 60 -92 0 0 1 1 0 1 0 1
0 -72 60 -92 0 0 1 1 0 1 0 1
phys
0 -104 -36 -56 0 0 1 1 0 1 0 1
0 -72 -36 -56 0 0 1 1 0 1 0 1
0 -72 60 -56 0 0 1 1 0 1 0 1
phys
0 -104 -36 -56 0 0 1 1 0 1 0 1
0 -72 60 -56 0 0 1 1 0 1 0 1
0 -104 60 -56 0 0 1 1 0 1 0 1
phys
0 -72 60 -92 0 0 1 1 0 1 0 1
0 -104 60 -92 0 0 1 1 0 1 0 1
0 -104 60 -56 0 0 1 1 0 1 0 1
phys
0 -72 60 -92 0 0 1 1 0 1 0 1
0 -104 60 -56 0 0 1 1 0 1 0 1
0 -72 60 -56 0 0 1 1 0 1 0 1
phys
0 -72 -36 -56 0 0 1 1 0 1 0 1
0 -104 -36 -56 0 0 1 1 0 1 0 1
0 -104 -36 -92 0 0 1 1 0 1 0 1
phys
0 -72 -36 -56 0 0 1 1 0 1 0 1
0 -104 -36 -92 0 0 1 1 0 1 0 1
0 -72 -36 -92 0 0 1 1 0 1 0 1
phys
0 -104 -36 -56 0 0 1 1 0 1 0 1
0 -104 60 -56 0 0 1 1 0 1 0 1
0 -104 60 -92 0 0 1 1 0 1 0 1
phys
0 -104 -36 -56 0 0 1 1 0 1 0 1
0 -104 60 -92 0 0 1 1 0 1 0 1
0 -104 -36 -92 0 0 1 1 0 1 0 1
phys
0 -72 -36 -92 0 0 1 1 0 1 0 1
0 -72 60 -92 0 0 1 1 0 1 0 1
0 -72 60 -56 0 0 1 1 0 1 0 1
phys
0 -72 -36 -92 0 0 1 1 0 1 0 1
0 -72 60 -56 0 0 1 1 0 1 0 1
0 -72 -36 -56 0 0 1 1 0 1 0 1
phys
0 -100 -36 -54 0 0 1 2 0 1 0 1
0 -100 -36 -56 0 0 1 2 0 1 0 1
0 -104 -36 -56 0 0 1 2 0 1 0 1
phys
0 -100 -36 -54 0 0 1 2 0 1 0 1
0 -104 -36 -56 0 0 1 2 0 1 0 1
0 -104 -36 -54 0 0 1 2 0 1 0 1
phys
0 -100 -76 -56 0 0 1 2 0 1 0 1
0 -100 -76 -54 0 0 1 2 0 1 0 1
0 -104 -76 -54 0 0 1 2 0 1 0 1
phys
0 -100 -76 -56 0 0 1 2 0 1 0 1
0 -104 -76 -54 0 0 1 2 0 1 0 1
0 -104 -76 -56 0 0 1 2 0 1 0 1
phys
0 -104 -76 -56 0 0 1 2 0 1 0 1
0 -104 -76 -54 0 0 1 2 0 1 0 1
0 -104 -36 -54 0 0 1 2 0 1 0 1
phys
0 -104 -76 -56 0 0 1 2 0 1 0 1
0 -104 -36 -54 0 0 1 2 0 1 0 1
0 -104 -36 -56 0 0 1 2 0 1 0 1
phys
0 -100 -76 -54 0 0 1 2 0 1 0 1
0 -100 -76 -56 0 0 1 2 0 1 0 1
0 -100 -36 -56 0 0 1 2 0 1 0 1
phys
0 -100 -76 -54 0 0 1 2 0 1 0 1
0 -100 -36 -56 0 0 1 2 0 1 0 1
0 -100 -36 -54 0 0 1 2 0 1 0 1
phys
0 -100 -76 -56 0 0 1 2 0 1 0 1
0 -104 -76 -56 0 0 1 2 0 1 0 1
0 -104 -36 -56 0 0 1 2 0 1 0 1
phys
0 -100 -76 -56 0 0 1 2 0 1 0 1
0 -104 -36 -56 0 0 1 2 0 1 0 1
0 -100 -36 -56 0 0 1 2 0 1 0 1
phys
0 -104 -76 -54 0 0 1 2 0 1 0 1
0 -100 -76 -54 0 0 1 2 0 1 0 1
0 -100 -36 -54 0 0 1 2 0 1 0 1
phys
0 -104 -76 -54 0 0 1 2 0 1 0 1
0 -100 -36 -54 0 0 1 2 0 1 0 1
0 -104 -36 -54 0 0 1 2 0 1 0 1
phys
0 16 60 20 0 0 1 3 0 1 0 1
0 16 60 -20 0 0 1 3 0 1 0 1
0 -16 60 -20 0 0 1 3 0 1 0 1
phys
0 16 60 20 0 0 1 3 0 1 0 1
0 -16 60 -20 0 0 1 3 0 1 0 1
0 -16 60 20 0 0 1 3 0 1 0 1
phys
0 16 -60 -20 0 0 1 3 0 1 0 1
0 16 -60 20 0 0 1 3 0 1 0 1
0 -16 -60 20 0 0 1 3 0 1 0 1
phys
0 16 -60 -20 0 0 1 3 0 1 0 1
0 -16 -60 20 0 0 1 3 0 1 0 1
0 -16 -60 -20 0 0 1 3 0 1 0 1
phys
0 -16 -60 -20 0 0 1 3 0 1 0 1
0 -16 -60 20 0 0 1 3 0 1 0 1
0 -16 60 20 0 0 1 3 0 1 0 1
phys
0 -16 -60 -20 0 0 1 3 0 1 0 1
0 -16 60 20 0 0 1 3 0 1 0 1
0 -16 60 -20 0 0 1 3 0 1 0 1
phys
0 16 -60 20 0 0 1 3 0 1 0 1
0 16 -60 -20 0 0 1 3 0 1 0 1
0 16 60 -20 0 0 1 3 0 1 0 1
phys
0 16 -60 20 0 0 1 3 0 1 0 1
0 16 60 -20 0 0 1 3 0 1 0 1
0 16 60 20 0 0 1 3 0 1 0 1
phys
0 16 -60 -20 0 0 1 3 0 1 0 1
0 -16 -60 -20 0 0 1 3 0 1 0 1
0 -16 60 -20 0 0 1 3 0 1 0 1
phys
0 16 -60 -20 0 0 1 3 0 1 0 1
0 -16 60 -20 0 0 1 3 0 1 0 1
0 16 60 -20 0 0 1 3 0 1 0 1
phys
0 -16 -60 20 0 0 1 3 0 1 0 1
0 16 -60 20 0 0 1 3 0 1 0 1
0 16 60 20 0 0 1 3 0 1 0 1
phys
0 -16 -60 20 0 0 1 3 0 1 0 1
0 16 60 20 0 0 1 3 0 1 0 1
0 -16 60 20 0 0 1 3 0 1 0 1
phys
0 -104 -100 -54 0 0 1 4 0 1 0 1
0 -104 -76 -54 0 0 1 4 0 1 0 1
0 -104 -76 -56 0 0 1 4 0 1 0 1
phys
0 -104 -100 -54 0 0 1 4 0 1 0 1
0 -104 -76 -56 0 0 1 4 0 1 0 1
0 -104 -100 -56 0 0 1 4 0 1 0 1
phys
0 -70 -100 -56 0 0 1 4 0 1 0 1
0 -70 -76 -56 0 0 1 4 0 1 0 1
0 -70 -76 -54 0 0 1 4 0 1 0 1
phys
0 -70 -100 -56 0 0 1 4 0 1 0 1
0 -70 -76 -54 0 0 1 4 0 1 0 1
0 -70 -100 -54 0 0 1 4 0 1 0 1
phys
0 -104 -100 -56 0 0 1 4 0 1 0 1
0 -104 -76 -56 0 0 1 4 0 1 0 1
0 -70 -76 -56 0 0 1 4 0 1 0 1
phys
0 -104 -100 -56 0 0 1 4 0 1 0 1
0 -70 -76 -56 0 0 1 4 0 1 0 1
0 -70 -100 -56 0 0 1 4 0 1 0 1
phys
0 -70 -100 -54 0 0 1 4 0 1 0 1
0 -70 -76 -54 0 0 1 4 0 1 0 1
0 -104 -76 -54 0 0 1 4 0 1 0 1
phys
0 -70 -100 -54 0 0 1 4 0 1 0 1
0 -104 -76 -54 0 0 1 4 0 1 0 1
0 -104 -100 -54 0 0 1 4 0 1 0 1
phys
0 -70 -76 -54 0 0 1 4 0 1 0 1
0 -70 -76 -56 0 0 1 4 0 1 0 1
0 -104 -76 -56 0 0 1 4 0 1 0 1
phys
0 -70 -76 -54 0 0 1 4 0 1 0 1
0 -104 -76 -56 0 0 1 4 0 1 0 1
0 -104 -76 -54 0 0 1 4 0 1 0 1
phys
0 -70 -100 -56 0 0 1 4 0 1 0 1
0 -70 -100 -54 0 0 1 4 0 1 0 1
0 -104 -100 -54 0 0 1 4 0 1 0 1
phys
0 -70 -100 -56 0 0 1 4 0 1 0 1
0 -104 -100 -54 0 0 1 4 0 1 0 1
0 -104 -100 -56 0 0 1 4 0 1 0 1
phys
0 24 -417 14 0 0 1 5 0 1 0 1
0 24 -417 -50 0 0 1 5 0 1 0 1
0 -56 -417 -50 0 0 1 5 0 1 0 1
phys
0 24 -417 14 0 0 1 5 0 1 0 1
0 -56 -417 -50 0 0 1 5 0 1 0 1
0 -56 -417 14 0 0 1 5 0 1 0 1
phys
0 24 -418 -50 0 0 1 5 0 1 0 1
0 24 -418 14 0 0 1 5 0 1 0 1
0 -56 -418 14 0 0 1 5 0 1 0 1
phys
0 24 -418 -50 0 0 1 5 0 1 0 1
0 -56 -418 14 0 0 1 5 0 1 0 1
0 -56 -418 -50 0 0 1 5 0 1 0 1
phys
0 -56 -418 -50 0 0 1 5 0 1 0 1
0 -56 -418 14 0 0 1 5 0 1 0 1
0 -56 -417 14 0 0 1 5 0 1 0 1
phys
0 -56 -418 -50 0 0 1 5 0 1 0 1
0 -56 -417 14 0 0 1 5 0 1 0 1
0 -56 -417 -50 0 0 1 5 0 1 0 1
phys
0 24 -418 14 0 0 1 5 0 1 0 1
0 24 -418 -50 0 0 1 5 0 1 0 1
0 24 -417 -50 0 0 1 5 0 1 0 1
phys
0 24 -418 14 0 0 1 5 0 1 0 1
0 24 -417 -50 0 0 1 5 0 1 0 1
0 24 -417 14 0 0 1 5 0 1 0 1
phys
0 24 -418 -50 0 0 1 5 0 1 0 1
0 -56 -418 -50 0 0 1 5 0 1 0 1
0 -56 -417 -50 0 0 1 5 0 1 0 1
phys
0 24 -418 -50 0 0 1 5 0 1 0 1
0 -56 -417 -50 0 0 1 5 0 1 0 1
0 24 -417 -50 0 0 1 5 0 1 0 1
phys
0 -56 -418 14 0 0 1 5 0 1 0 1
0 24 -418 14 0 0 1 5 0 1 0 1
0 24 -417 14 0 0 1 5 0 1 0 1
phys
0 -56 -418 14 0 0 1 5 0 1 0 1
0 24 -417 14 0 0 1 5 0 1 0 1
0 -56 -417 14 0 0 1 5 0 1 0 1
phys
0 16 -62 -92 0 0 1 6 0 1 0 1
0 16 -24 -92 0 0 1 6 0 1 0 1
0 16 -24 -56 0 0 1 6 0 1 0 1
phys
0 16 -62 -92 0 0 1 6 0 1 0 1
0 16 -24 -56 0 0 1 6 0 1 0 1
0 16 -62 -56 0 0 1 6 0 1 0 1
phys
0 -16 -24 -92 0 0 1 6 0 1 0 1
0 16 -24 -92 0 0 1 6 0 1 0 1
0 16 -62 -92 0 0 1 6 0 1 0 1
phys
0 -16 -24 -92 0 0 1 6 0 1 0 1
0 16 -62 -92 0 0 1 6 0 1 0 1
0 -16 -62 -92 0 0 1 6 0 1 0 1
phys
0 -16 -62 -56 0 0 1 6 0 1 0 1
0 16 -62 -56 0 0 1 6 0 1 0 1
0 16 -24 -56 0 0 1 6 0 1 0 1
phys
0 -16 -62 -56 0 0 1 6 0 1 0 1
0 16 -24 -56 0 0 1 6 0 1 0 1
0 -16 -24 -56 0 0 1 6 0 1 0 1
phys
0 16 -24 -56 0 0 1 6 0 1 0 1
0 16 -24 -92 0 0 1 6 0 1 0 1
0 -16 -24 -92 0 0 1 6 0 1 0 1
phys
0 16 -24 -56 0 0 1 6 0 1 0 1
0 -16 -24 -92 0 0 1 6 0 1 0 1
0 -16 -24 -56 0 0 1 6 0 1 0 1
phys
0 16 -62 -92 0 0 1 6 0 1 0 1
0 16 -62 -56 0 0 1 6 0 1 0 1
0 -16 -62 -56 0 0 1 6 0 1 0 1
phys
0 16 -62 -92 0 0 1 6 0 1 0 1
0 -16 -62 -56 0 0 1 6 0 1 0 1
0 -16 -62 -92 0 0 1 6 0 1 0 1
phys
0 -16 -62 -56 0 0 1 6 0 1 0 1
0 -16 -24 -56 0 0 1 6 0 1 0 1
0 -16 -24 -92 0 0 1 6 0 1 0 1
phys
0 -16 -62 -56 0 0 1 6 0 1 0 1
0 -16 -24 -92 0 0 1 6 0 1 0 1
0 -16 -62 -92 0 0 1 6 0 1 0 1
phys
0 -70 -36 -54 0 0 1 7 0 1 0 1
0 -70 -36 -56 0 0 1 7 0 1 0 1
0 -76 -36 -56 0 0 1 7 0 1 0 1
phys
0 -70 -36 -54 0 0 1 7 0 1 0 1
0 -76 -36 -56 0 0 1 7 0 1 0 1
0 -76 -36 -54 0 0 1 7 0 1 0 1
phys
0 -70 -76 -56 0 0 1 7 0 1 0 1
0 -70 -76 -54 0 0 1 7 0 1 0 1
0 -76 -76 -54 0 0 1 7 0 1 0 1
phys
0 -70 -76 -56 0 0 1 7 0 1 0 1
0 -76 -76 -54 0 0 1 7 0 1 0 1
0 -76 -76 -56 0 0 1 7 0 1 0 1
phys
0 -76 -76 -56 0 0 1 7 0 1 0 1
0 -76 -76 -54 0 0 1 7 0 1 0 1
0 -76 -36 -54 0 0 1 7 0 1 0 1
phys
0 -76 -76 -56 0 0 1 7 0 1 0 1
0 -76 -36 -54 0 0 1 7 0 1 0 1
0 -76 -36 -56 0 0 1 7 0 1 0 1
phys
0 -70 -76 -54 0 0 1 7 0 1 0 1
0 -70 -76 -56 0 0 1 7 0 1 0 1
0 -70 -36 -56 0 0 1 7 0 1 0 1
phys
0 -70 -76 -54 0 0 1 7 0 1 0 1
0 -70 -36 -56 0 0 1 7 0 1 0 1
0 -70 -36 -54 0 0 1 7 0 1 0 1
phys
0 -70 -76 -56 0 0 1 7 0 1 0 1
0 -76 -76 -56 0 0 1 7 0 1 0 1
0 -76 -36 -56 0 0 1 7 0 1 0 1
phys
0 -70 -76 -56 0 0 1 7 0 1 0 1
0 -76 -36 -56 0 0 1 7 0 1 0 1
0 -70 -36 -56 0 0 1 7 0 1 0 1
phys
0 -76 -76 -54 0 0 1 7 0 1 0 1
0 -70 -76 -54 0 0 1 7 0 1 0 1
0 -70 -36 -54 0 0 1 7 0 1 0 1
phys
0 -76 -76 -54 0 0 1 7 0 1 0 1
0 -70 -36 -54 0 0 1 7 0 1 0 1
0 -76 -36 -54 0 0 1 7 0 1 0 1
phys
0 -72 -76 -56 0 0 1 8 0 1 0 1
0 -72 -76 -92 0 0 1 8 0 1 0 1
0 -104 -76 -92 0 0 1 8 0 1 0 1
phys
0 -72 -76 -56 0 0 1 8 0 1 0 1
0 -104 -76 -92 0 0 1 8 0 1 0 1
0 -104 -76 -56 0 0 1 8 0 1 0 1
phys
0 -72 -98 -92 0 0 1 8 0 1 0 1
0 -72 -98 -56 0 0 1 8 0 1 0 1
0 -104 -98 -56 0 0 1 8 0 1 0 1
phys
0 -72 -98 -92 0 0 1 8 0 1 0 1
0 -104 -98 -56 0 0 1 8 0 1 0 1
0 -104 -98 -92 0 0 1 8 0 1 0 1
phys
0 -104 -98 -92 0 0 1 8 0 1 0 1
0 -104 -98 -56 0 0 1 8 0 1 0 1
0 -104 -76 -56 0 0 1 8 0 1 0 1
phys
0 -104 -98 -92 0 0 1 8 0 1 0 1
0 -104 -76 -56 0 0 1 8 0 1 0 1
0 -104 -76 -92 0 0 1 8 0 1 0 1
phys
0 -72 -98 -56 0 0 1 8 0 1 0 1
0 -72 -98 -92 0 0 1 8 0 1 0 1
0 -72 -76 -92 0 0 1 8 0 1 0 1
phys
0 -72 -98 -56 0 0 1 8 0 1 0 1
0 -72 -76 -92 0 0 1 8 0 1 0 1
0 -72 -76 -56 0 0 1 8 0 1 0 1
phys
0 -72 -98 -92 0 0 1 8 0 1 0 1
0 -104 -98 -92 0 0 1 8 0 1 0 1
0 -104 -76 -92 0 0 1 8 0 1 0 1
phys
0 -72 -98 -92 0 0 1 8 0 1 0 1
0 -104 -76 -92 0 0 1 8 0 1 0 1
0 -72 -76 -92 0 0 1 8 0 1 0 1
phys
0 -104 -98 -56 0 0 1 8 0 1 0 1
0 -72 -98 -56 0 0 1 8 0 1 0 1
0 -72 -76 -56 0 0 1 8 0 1 0 1
phys
0 -104 -98 -56 0 0 1 8 0 1 0 1
0 -72 -76 -56 0 0 1 8 0 1 0 1
0 -104 -76 -56 0 0 1 8 0 1 0 1
phys
0 148 -412 14 0 0 1 9 0 1 0 1
0 148 -412 -50 0 0 1 9 0 1 0 1
0 120 -412 -50 0 0 1 9 0 1 0 1
phys
0 148 -412 14 0 0 1 9 0 1 0 1
0 120 -412 -50 0 0 1 9 0 1 0 1
0 120 -412 14 0 0 1 9 0 1 0 1
phys
0 148 -420 -50 0 0 1 9 0 1 0 1
0 148 -420 14 0 0 1 9 0 1 0 1
0 120 -420 14 0 0 1 9 0 1 0 1
phys
0 148 -420 -50 0 0 1 9 0 1 0 1
0 120 -420 14 0 0 1 9 0 1 0 1
0 120 -420 -50 0 0 1 9 0 1 0 1
phys
0 120 -420 -50 0 0 1 9 0 1 0 1
0 120 -420 14 0 0 1 9 0 1 0 1
0 120 -412 14 0 0 1 9 0 1 0 1
phys
0 120 -420 -50 0 0 1 9 0 1 0 1
0 120 -412 14 0 0 1 9 0 1 0 1
0 120 -412 -50 0 0 1 9 0 1 0 1
phys
0 148 -420 14 0 0 1 9 0 1 0 1
0 148 -420 -50 0 0 1 9 0 1 0 1
0 148 -412 -50 0 0 1 9 0 1 0 1
phys
0 148 -420 14 0 0 1 9 0 1 0 1
0 148 -412 -50 0 0 1 9 0 1 0 1
0 148 -412 14 0 0 1 9 0 1 0 1
phys
0 148 -420 -50 0 0 1 9 0 1 0 1
0 120 -420 -50 0 0 1 9 0 1 0 1
0 120 -412 -50 0 0 1 9 0 1 0 1
phys
0 148 -420 -50 0 0 1 9 0 1 0 1
0 120 -412 -50 0 0 1 9 0 1 0 1
0 148 -412 -50 0 0 1 9 0 1 0 1
phys
0 120 -420 14 0 0 1 9 0 1 0 1
0 148 -420 14 0 0 1 9 0 1 0 1
0 148 -412 14 0 0 1 9 0 1 0 1
phys
0 120 -420 14 0 0 1 9 0 1 0 1
0 148 -412 14 0 0 1 9 0 1 0 1
0 120 -412 14 0 0 1 9 0 1 0 1
phys
0 -72 -36 -56 0 0 1 10 0 1 0 1
0 -72 -36 -92 0 0 1 10 0 1 0 1
0 -76 -36 -92 0 0 1 10 0 1 0 1
phys
0 -72 -36 -56 0 0 1 10 0 1 0 1
0 -76 -36 -92 0 0 1 10 0 1 0 1
0 -76 -36 -56 0 0 1 10 0 1 0 1
phys
0 -72 -76 -92 0 0 1 10 0 1 0 1
0 -72 -76 -56 0 0 1 10 0 1 0 1
0 -76 -76 -56 0 0 1 10 0 1 0 1
phys
0 -72 -76 -92 0 0 1 10 0 1 0 1
0 -76 -76 -56 0 0 1 10 0 1 0 1
0 -76 -76 -92 0 0 1 10 0 1 0 1
phys
0 -76 -76 -92 0 0 1 10 0 1 0 1
0 -76 -76 -56 0 0 1 10 0 1 0 1
0 -76 -36 -56 0 0 1 10 0 1 0 1
phys
0 -76 -76 -92 0 0 1 10 0 1 0 1
0 -76 -36 -56 0 0 1 10 0 1 0 1
0 -76 -36 -92 0 0 1 10 0 1 0 1
phys
0 -72 -76 -56 0 0 1 10 0 1 0 1
0 -72 -76 -92 0 0 1 10 0 1 0 1
0 -72 -36 -92 0 0 1 10 0 1 0 1
phys
0 -72 -76 -56 0 0 1 10 0 1 0 1
0 -72 -36 -92 0 0 1 10 0 1 0 1
0 -72 -36 -56 0 0 1 10 0 1 0 1
phys
0 -72 -76 -92 0 0 1 10 0 1 0 1
0 -76 -76 -92 0 0 1 10 0 1 0 1
0 -76 -36 -92 0 0 1 10 0 1 0 1
phys
0 -72 -76 -92 0 0 1 10 0 1 0 1
0 -76 -36 -92 0 0 1 10 0 1 0 1
0 -72 -36 -92 0 0 1 10 0 1 0 1
phys
0 -76 -76 -56 0 0 1 10 0 1 0 1
0 -72 -76 -56 0 0 1 10 0 1 0 1
0 -72 -36 -56 0 0 1 10 0 1 0 1
phys
0 -76 -76 -56 0 0 1 10 0 1 0 1
0 -72 -36 -56 0 0 1 10 0 1 0 1
0 -76 -36 -56 0 0 1 10 0 1 0 1
phys
0 -70 60 -54 0 0 1 11 0 1 0 1
0 -70 60 -56 0 0 1 11 0 1 0 1
0 -104 60 -56 0 0 1 11 0 1 0 1
phys
0 -70 60 -54 0 0 1 11 0 1 0 1
0 -104 60 -56 0 0 1 11 0 1 0 1
0 -104 60 -54 0 0 1 11 0 1 0 1
phys
0 -70 -36 -56 0 0 1 11 0 1 0 1
0 -70 -36 -54 0 0 1 11 0 1 0 1
0 -104 -36 -54 0 0 1 11 0 1 0 1
phys
0 -70 -36 -56 0 0 1 11 0 1 0 1
0 -104 -36 -54 0 0 1 11 0 1 0 1
0 -104 -36 -56 0 0 1 11 0 1 0 1
phys
0 -104 -36 -56 0 0 1 11 0 1 0 1
0 -104 -36 -54 0 0 1 11 0 1 0 1
0 -104 60 -54 0 0 1 11 0 1 0 1
phys
0 -104 -36 -56 0 0 1 11 0 1 0 1
0 -104 60 -54 0 0 1 11 0 1 0 1
0 -104 60 -56 0 0 1 11 0 1 0 1
phys
0 -70 -36 -54 0 0 1 11 0 1 0 1
0 -70 -36 -56 0 0 1 11 0 1 0 1
0 -70 60 -56 0 0 1 11 0 1 0 1
phys
0 -70 -36 -54 0 0 1 11 0 1 0 1
0 -70 60 -56 0 0 1 11 0 1 0 1
0 -70 60 -54 0 0 1 11 0 1 0 1
phys
0 -70 -36 -56 0 0 1 11 0 1 0 1
0 -104 -36 -56 0 0 1 11 0 1 0 1
0 -104 60 -56 0 0 1 11 0 1 0 1
phys
0 -70 -36 -56 0 0 1 11 0 1 0 1
0 -104 60 -56 0 0 1 11 0 1 0 1
0 -70 60 -56 0 0 1 11 0 1 0 1
phys
0 -104 -36 -54 0 0 1 11 0 1 0 1
0 -70 -36 -54 0 0 1 11 0 1 0 1
0 -70 60 -54 0 0 1 11 0 1 0 1
phys
0 -104 -36 -54 0 0 1 11 0 1 0 1
0 -70 60 -54 0 0 1 11 0 1 0 1
0 -104 60 -54 0 0 1 11 0 1 0 1
phys
0 148 -412 -50 0 0 1 12 0 1 0 1
0 148 -412 -92 0 0 1 12 0 1 0 1
0 -136 -412 -92 0 0 1 12 0 1 0 1
phys
0 148 -412 -50 0 0 1 12 0 1 0 1
0 -136 -412 -92 0 0 1 12 0 1 0 1
0 -107.3 -412 -50 0 0 1 12 0 1 0 1
phys
0 148 -420 -92 0 0 1 12 0 1 0 1
0 148 -420 -50 0 0 1 12 0 1 0 1
0 -107.3 -420 -50 0 0 1 12 0 1 0 1
phys
0 148 -420 -92 0 0 1 12 0 1 0 1
0 -107.3 -420 -50 0 0 1 12 0 1 0 1
0 -136 -420 -92 0 0 1 12 0 1 0 1
phys
0 148 -420 -50 0 0 1 12 0 1 0 1
0 148 -420 -92 0 0 1 12 0 1 0 1
0 148 -412 -92 0 0 1 12 0 1 0 1
phys
0 148 -420 -50 0 0 1 12 0 1 0 1
0 148 -412 -92 0 0 1 12 0 1 0 1
0 148 -412 -50 0 0 1 12 0 1 0 1
phys
0 148 -420 -92 0 0 1 12 0 1 0 1
0 -136 -420 -92 0 0 1 12 0 1 0 1
0 -136 -412 -92 0 0 1 12 0 1 0 1
phys
0 148 -420 -92 0 0 1 12 0 1 0 1
0 -136 -412 -92 0 0 1 12 0 1 0 1
0 148 -412 -92 0 0 1 12 0 1 0 1
phys
0 -107.3 -420 -50 0 0 1 12 0 1 0 1
0 148 -420 -50 0 0 1 12 0 1 0 1
0 148 -412 -50 0 0 1 12 0 1 0 1
phys
0 -107.3 -420 -50 0 0 1 12 0 1 0 1
0 148 -412 -50 0 0 1 12 0 1 0 1
0 -107.3 -412 -50 0 0 1 12 0 1 0 1
phys
0 -136 -420 -92 0 0 1 12 0 1 0 1
0 -107.3 -420 -50 0 0 1 12 0 1 0 1
0 -107.3 -412 -50 0 0 1 12 0 1 0 1
phys
0 -136 -420 -92 0 0 1 12 0 1 0 1
0 -107.3 -412 -50 0 0 1 12 0 1 0 1
0 -136 -412 -92 0 0 1 12 0 1 0 1
phys
0 120 -418 -50 0 0 1 13 0 1 0 1
0 120 -418 14 0 0 1 13 0 1 0 1
0 40 -418 14 0 0 1 13 0 1 0 1
phys
0 120 -418 -50 0 0 1 13 0 1 0 1
0 40 -418 14 0 0 1 13 0 1 0 1
0 40 -418 -50 0 0 1 13 0 1 0 1
phys
0 40 -418 -50 0 0 1 13 0 1 0 1
0 40 -418 14 0 0 1 13 0 1 0 1
0 40 -417 14 0 0 1 13 0 1 0 1
phys
0 40 -418 -50 0 0 1 13 0 1 0 1
0 40 -417 14 0 0 1 13 0 1 0 1
0 40 -417 -50 0 0 1 13 0 1 0 1
phys
0 120 -418 14 0 0 1 13 0 1 0 1
0 120 -418 -50 0 0 1 13 0 1 0 1
0 120 -417 -50 0 0 1 13 0 1 0 1
phys
0 120 -418 14 0 0 1 13 0 1 0 1
0 120 -417 -50 0 0 1 13 0 1 0 1
0 120 -417 14 0 0 1 13 0 1 0 1
phys
0 120 -418 -50 0 0 1 13 0 1 0 1
0 40 -418 -50 0 0 1 13 0 1 0 1
0 40 -417 -50 0 0 1 13 0 1 0 1
phys
0 120 -418 -50 0 0 1 13 0 1 0 1
0 40 -417 -50 0 0 1 13 0 1 0 1
0 120 -417 -50 0 0 1 13 0 1 0 1
phys
0 40 -418 14 0 0 1 13 0 1 0 1
0 120 -418 14 0 0 1 13 0 1 0 1
0 120 -417 14 0 0 1 13 0 1 0 1
phys
0 40 -418 14 0 0 1 13 0 1 0 1
0 120 -417 14 0 0 1 13 0 1 0 1
0 40 -417 14 0 0 1 13 0 1 0 1
phys
0 120 -417 14 0 0 1 13 0 1 0 1
0 120 -417 -50 0 0 1 13 0 1 0 1
0 40 -417 -50 0 0 1 13 0 1 0 1
phys
0 120 -417 14 0 0 1 13 0 1 0 1
0 40 -417 -50 0 0 1 13 0 1 0 1
0 40 -417 14 0 0 1 13 0 1 0 1
phys
0 16 60 -56 0 0 1 14 0 1 0 1
0 16 60 -92 0 0 1 14 0 1 0 1
0 -16 60 -92 0 0 1 14 0 1 0 1
phys
0 16 60 -56 0 0 1 14 0 1 0 1
0 -16 60 -92 0 0 1 14 0 1 0 1
0 -16 60 -56 0 0 1 14 0 1 0 1
phys
0 16 12 -92 0 0 1 14 0 1 0 1
0 16 12 -56 0 0 1 14 0 1 0 1
0 -16 12 -56 0 0 1 14 0 1 0 1
phys
0 16 12 -92 0 0 1 14 0 1 0 1
0 -16 12 -56 0 0 1 14 0 1 0 1
0 -16 12 -92 0 0 1 14 0 1 0 1
phys
0 -16 12 -92 0 0 1 14 0 1 0 1
0 -16 12 -56 0 0 1 14 0 1 0 1
0 -16 60 -56 0 0 1 14 0 1 0 1
phys
0 -16 12 -92 0 0 1 14 0 1 0 1
0 -16 60 -56 0 0 1 14 0 1 0 1
0 -16 60 -92 0 0 1 14 0 1 0 1
phys
0 16 12 -56 0 0 1 14 0 1 0 1
0 16 12 -92 0 0 1 14 0 1 0 1
0 16 60 -92 0 0 1 14 0 1 0 1
phys
0 16 12 -56 0 0 1 14 0 1 0 1
0 16 60 -92 0 0 1 14 0 1 0 1
0 16 60 -56 0 0 1 14 0 1 0 1
phys
0 16 12 -92 0 0 1 14 0 1 0 1
0 -16 12 -92 0 0 1 14 0 1 0 1
0 -16 60 -92 0 0 1 14 0 1 0 1
phys
0 16 12 -92 0 0 1 14 0 1 0 1
0 -16 60 -92 0 0 1 14 0 1 0 1
0 16 60 -92 0 0 1 14 0 1 0 1
phys
0 -16 12 -56 0 0 1 14 0 1 0 1
0 16 12 -56 0 0 1 14 0 1 0 1
0 16 60 -56 0 0 1 14 0 1 0 1
phys
0 -16 12 -56 0 0 1 14 0 1 0 1
0 16 60 -56 0 0 1 14 0 1 0 1
0 -16 60 -56 0 0 1 14 0 1 0 1
phys
0 16 60 -54 0 0 1 15 0 1 0 1
0 16 60 -56 0 0 1 15 0 1 0 1
0 -18 60 -56 0 0 1 15 0 1 0 1
phys
0 16 60 -54 0 0 1 15 0 1 0 1
0 -18 60 -56 0 0 1 15 0 1 0 1
0 -18 60 -54 0 0 1 15 0 1 0 1
phys
0 16 12 -56 0 0 1 15 0 1 0 1
0 16 12 -54 0 0 1 15 0 1 0 1
0 -18 12 -54 0 0 1 15 0 1 0 1
phys
0 16 12 -56 0 0 1 15 0 1 0 1
0 -18 12 -54 0 0 1 15 0 1 0 1
0 -18 12 -56 0 0 1 15 0 1 0 1
phys
0 -18 12 -56 0 0 1 15 0 1 0 1
0 -18 12 -54 0 0 1 15 0 1 0 1
0 -18 60 -54 0 0 1 15 0 1 0 1
phys
0 -18 12 -56 0 0 1 15 0 1 0 1
0 -18 60 -54 0 0 1 15 0 1 0 1
0 -18 60 -56 0 0 1 15 0 1 0 1
phys
0 16 12 -54 0 0 1 15 0 1 0 1
0 16 12 -56 0 0 1 15 0 1 0 1
0 16 60 -56 0 0 1 15 0 1 0 1
phys
0 16 12 -54 0 0 1 15 0 1 0 1
0 16 60 -56 0 0 1 15 0 1 0 1
0 16 60 -54 0 0 1 15 0 1 0 1
phys
0 16 12 -56 0 0 1 15 0 1 0 1
0 -18 12 -56 0 0 1 15 0 1 0 1
0 -18 60 -56 0 0 1 15 0 1 0 1
phys
0 16 12 -56 0 0 1 15 0 1 0 1
0 -18 60 -56 0 0 1 15 0 1 0 1
0 16 60 -56 0 0 1 15 0 1 0 1
phys
0 -18 12 -54 0 0 1 15 0 1 0 1
0 16 12 -54 0 0 1 15 0 1 0 1
0 16 60 -54 0 0 1 15 0 1 0 1
phys
0 -18 12 -54 0 0 1 15 0 1 0 1
0 16 60 -54 0 0 1 15 0 1 0 1
0 -18 60 -54 0 0 1 15 0 1 0 1
phys
0 -56 -412 14 0 0 1 16 0 1 0 1
0 -56 -412 -50 0 0 1 16 0 1 0 1
0 -107.3 -412 -50 0 0 1 16 0 1 0 1
phys
0 -56 -412 14 0 0 1 16 0 1 0 1
0 -107.3 -412 -50 0 0 1 16 0 1 0 1
0 -63.5 -412 14 0 0 1 16 0 1 0 1
phys
0 -56 -420 -50 0 0 1 16 0 1 0 1
0 -56 -420 14 0 0 1 16 0 1 0 1
0 -63.5 -420 14 0 0 1 16 0 1 0 1
phys
0 -56 -420 -50 0 0 1 16 0 1 0 1
0 -63.5 -420 14 0 0 1 16 0 1 0 1
0 -107.3 -420 -50 0 0 1 16 0 1 0 1
phys
0 -56 -420 14 0 0 1 16 0 1 0 1
0 -56 -420 -50 0 0 1 16 0 1 0 1
0 -56 -412 -50 0 0 1 16 0 1 0 1
phys
0 -56 -420 14 0 0 1 16 0 1 0 1
0 -56 -412 -50 0 0 1 16 0 1 0 1
0 -56 -412 14 0 0 1 16 0 1 0 1
phys
0 -56 -420 -50 0 0 1 16 0 1 0 1
0 -107.3 -420 -50 0 0 1 16 0 1 0 1
0 -107.3 -412 -50 0 0 1 16 0 1 0 1
phys
0 -56 -420 -50 0 0 1 16 0 1 0 1
0 -107.3 -412 -50 0 0 1 16 0 1 0 1
0 -56 -412 -50 0 0 1 16 0 1 0 1
phys
0 -63.5 -420 14 0 0 1 16 0 1 0 1
0 -56 -420 14 0 0 1 16 0 1 0 1
0 -56 -412 14 0 0 1 16 0 1 0 1
phys
0 -63.5 -420 14 0 0 1 16 0 1 0 1
0 -56 -412 14 0 0 1 16 0 1 0 1
0 -63.5 -412 14 0 0 1 16 0 1 0 1
phys
0 -107.3 -420 -50 0 0 1 16 0 1 0 1
0 -63.5 -420 14 0 0 1 16 0 1 0 1
0 -63.5 -412 14 0 0 1 16 0 1 0 1
phys
0 -107.3 -420 -50 0 0 1 16 0 1 0 1
0 -63.5 -412 14 0 0 1 16 0 1 0 1
0 -107.3 -412 -50 0 0 1 16 0 1 0 1
phys
0 24 -420 14 0 0 1 17 0 1 0 1
0 40 -420 14 0 0 1 17 0 1 0 1
0 40 -412 14 0 0 1 17 0 1 0 1
phys
0 24 -420 14 0 0 1 17 0 1 0 1
0 40 -412 14 0 0 1 17 0 1 0 1
0 24 -412 14 0 0 1 17 0 1 0 1
phys
0 24 -412 -50 0 0 1 17 0 1 0 1
0 24 -412 14 0 0 1 17 0 1 0 1
0 40 -412 14 0 0 1 17 0 1 0 1
phys
0 24 -412 -50 0 0 1 17 0 1 0 1
0 40 -412 14 0 0 1 17 0 1 0 1
0 40 -412 -50 0 0 1 17 0 1 0 1
phys
0 40 -420 -50 0 0 1 17 0 1 0 1
0 40 -420 14 0 0 1 17 0 1 0 1
0 24 -420 14 0 0 1 17 0 1 0 1
phys
0 40 -420 -50 0 0 1 17 0 1 0 1
0 24 -420 14 0 0 1 17 0 1 0 1
0 24 -420 -50 0 0 1 17 0 1 0 1
phys
0 24 -420 -50 0 0 1 17 0 1 0 1
0 24 -420 14 0 0 1 17 0 1 0 1
0 24 -412 14 0 0 1 17 0 1 0 1
phys
0 24 -420 -50 0 0 1 17 0 1 0 1
0 24 -412 14 0 0 1 17 0 1 0 1
0 24 -412 -50 0 0 1 17 0 1 0 1
phys
0 40 -412 -50 0 0 1 17 0 1 0 1
0 40 -412 14 0 0 1 17 0 1 0 1
0 40 -420 14 0 0 1 17 0 1 0 1
phys
0 40 -412 -50 0 0 1 17 0 1 0 1
0 40 -420 14 0 0 1 17 0 1 0 1
0 40 -420 -50 0 0 1 17 0 1 0 1
phys
0 40 -420 -50 0 0 1 17 0 1 0 1
0 24 -420 -50 0 0 1 17 0 1 0 1
0 24 -412 -50 0 0 1 17 0 1 0 1
phys
0 40 -420 -50 0 0 1 17 0 1 0 1
0 24 -412 -50 0 0 1 17 0 1 0 1
0 40 -412 -50 0 0 1 17 0 1 0 1
phys
0 207.5 -420 14 0 0 1 18 0 1 0 1
0 200 -420 14 0 0 1 18 0 1 0 1
0 200 -420 -92 0 0 1 18 0 1 0 1
phys
0 207.5 -420 14 0 0 1 18 0 1 0 1
0 200 -420 -92 0 0 1 18 0 1 0 1
0 280 -420 -92 0 0 1 18 0 1 0 1
phys
0 200 -420 -92 0 0 1 18 0 1 0 1
0 200 -420 14 0 0 1 18 0 1 0 1
0 200 -412 14 0 0 1 18 0 1 0 1
phys
0 200 -420 -92 0 0 1 18 0 1 0 1
0 200 -412 14 0 0 1 18 0 1 0 1
0 200 -412 -92 0 0 1 18 0 1 0 1
phys
0 280 -420 -92 0 0 1 18 0 1 0 1
0 200 -420 -92 0 0 1 18 0 1 0 1
0 200 -412 -92 0 0 1 18 0 1 0 1
phys
0 280 -420 -92 0 0 1 18 0 1 0 1
0 200 -412 -92 0 0 1 18 0 1 0 1
0 280 -412 -92 0 0 1 18 0 1 0 1
phys
0 200 -420 14 0 0 1 18 0 1 0 1
0 207.5 -420 14 0 0 1 18 0 1 0 1
0 207.5 -412 14 0 0 1 18 0 1 0 1
phys
0 200 -420 14 0 0 1 18 0 1 0 1
0 207.5 -412 14 0 0 1 18 0 1 0 1
0 200 -412 14 0 0 1 18 0 1 0 1
phys
0 207.5 -420 14 0 0 1 18 0 1 0 1
0 280 -420 -92 0 0 1 18 0 1 0 1
0 280 -412 -92 0 0 1 18 0 1 0 1
phys
0 207.5 -420 14 0 0 1 18 0 1 0 1
0 280 -412 -92 0 0 1 18 0 1 0 1
0 207.5 -412 14 0 0 1 18 0 1 0 1
phys
0 280 -412 -92 0 0 1 18 0 1 0 1
0 200 -412 -92 0 0 1 18 0 1 0 1
0 200 -412 14 0 0 1 18 0 1 0 1
phys
0 280 -412 -92 0 0 1 18 0 1 0 1
0 200 -412 14 0 0 1 18 0 1 0 1
0 207.5 -412 14 0 0 1 18 0 1 0 1
phys
0 16 -24 -54 0 0 1 19 0 1 0 1
0 16 -24 -56 0 0 1 19 0 1 0 1
0 -18 -24 -56 0 0 1 19 0 1 0 1
phys
0 16 -24 -54 0 0 1 19 0 1 0 1
0 -18 -24 -56 0 0 1 19 0 1 0 1
0 -18 -24 -54 0 0 1 19 0 1 0 1
phys
0 -18 -64.02 -54 0 0 1 19 0 1 0 1
0 -18 -24 -54 0 0 1 19 0 1 0 1
0 -18 -24 -56 0 0 1 19 0 1 0 1
phys
0 -18 -64.02 -54 0 0 1 19 0 1 0 1
0 -18 -24 -56 0 0 1 19 0 1 0 1
0 -18 -64 -56 0 0 1 19 0 1 0 1
phys
0 16 -64 -56 0 0 1 19 0 1 0 1
0 16 -24 -56 0 0 1 19 0 1 0 1
0 16 -24 -54 0 0 1 19 0 1 0 1
phys
0 16 -64 -56 0 0 1 19 0 1 0 1
0 16 -24 -54 0 0 1 19 0 1 0 1
0 16 -64.02 -54 0 0 1 19 0 1 0 1
phys
0 -18 -64 -56 0 0 1 19 0 1 0 1
0 -18 -24 -56 0 0 1 19 0 1 0 1
0 16 -24 -56 0 0 1 19 0 1 0 1
phys
0 -18 -64 -56 0 0 1 19 0 1 0 1
0 16 -24 -56 0 0 1 19 0 1 0 1
0 16 -64 -56 0 0 1 19 0 1 0 1
phys
0 16 -64.02 -54 0 0 1 19 0 1 0 1
0 16 -24 -54 0 0 1 19 0 1 0 1
0 -18 -24 -54 0 0 1 19 0 1 0 1
phys
0 16 -64.02 -54 0 0 1 19 0 1 0 1
0 -18 -24 -54 0 0 1 19 0 1 0 1
0 -18 -64.02 -54 0 0 1 19 0 1 0 1
phys
0 -18 -64.02 -54 0 0 1 19 0 1 0 1
0 -18 -64 -56 0 0 1 19 0 1 0 1
0 16 -64 -56 0 0 1 19 0 1 0 1
phys
0 -18 -64.02 -54 0 0 1 19 0 1 0 1
0 16 -64 -56 0 0 1 19 0 1 0 1
0 16 -64.02 -54 0 0 1 19 0 1 0 1
end
