version 1
nodes
0 "root" -1
end
skeleton
time 0
0 0 0 0 0 0 0
end
triangles
phys
0 62 48 44 0 0 1 1 0 1 0 1
0 62 48 40 0 0 1 1 0 1 0 1
0 -62 48 40 0 0 1 1 0 1 0 1
phys
0 62 48 44 0 0 1 1 0 1 0 1
0 -62 48 40 0 0 1 1 0 1 0 1
0 -62 48 44 0 0 1 1 0 1 0 1
phys
0 62 40 40 0 0 1 1 0 1 0 1
0 62 40 44 0 0 1 1 0 1 0 1
0 -62 40 44 0 0 1 1 0 1 0 1
phys
0 62 40 40 0 0 1 1 0 1 0 1
0 -62 40 44 0 0 1 1 0 1 0 1
0 -62 40 40 0 0 1 1 0 1 0 1
phys
0 -62 40 40 0 0 1 1 0 1 0 1
0 -62 40 44 0 0 1 1 0 1 0 1
0 -62 48 44 0 0 1 1 0 1 0 1
phys
0 -62 40 40 0 0 1 1 0 1 0 1
0 -62 48 44 0 0 1 1 0 1 0 1
0 -62 48 40 0 0 1 1 0 1 0 1
phys
0 62 40 44 0 0 1 1 0 1 0 1
0 62 40 40 0 0 1 1 0 1 0 1
0 62 48 40 0 0 1 1 0 1 0 1
phys
0 62 40 44 0 0 1 1 0 1 0 1
0 62 48 40 0 0 1 1 0 1 0 1
0 62 48 44 0 0 1 1 0 1 0 1
phys
0 62 40 40 0 0 1 1 0 1 0 1
0 -62 40 40 0 0 1 1 0 1 0 1
0 -62 48 40 0 0 1 1 0 1 0 1
phys
0 62 40 40 0 0 1 1 0 1 0 1
0 -62 48 40 0 0 1 1 0 1 0 1
0 62 48 40 0 0 1 1 0 1 0 1
phys
0 -62 40 44 0 0 1 1 0 1 0 1
0 62 40 44 0 0 1 1 0 1 0 1
0 62 48 44 0 0 1 1 0 1 0 1
phys
0 -62 40 44 0 0 1 1 0 1 0 1
0 62 48 44 0 0 1 1 0 1 0 1
0 -62 48 44 0 0 1 1 0 1 0 1
phys
0 -158 -48 4 0 0 1 2 0 1 0 1
0 -158 48 4 0 0 1 2 0 1 0 1
0 -158 48 -4 0 0 1 2 0 1 0 1
phys
0 -158 -48 4 0 0 1 2 0 1 0 1
0 -158 48 -4 0 0 1 2 0 1 0 1
0 -158 -48 -4 0 0 1 2 0 1 0 1
phys
0 158 -48 -4 0 0 1 2 0 1 0 1
0 158 48 -4 0 0 1 2 0 1 0 1
0 158 48 4 0 0 1 2 0 1 0 1
phys
0 158 -48 -4 0 0 1 2 0 1 0 1
0 158 48 4 0 0 1 2 0 1 0 1
0 158 -48 4 0 0 1 2 0 1 0 1
phys
0 -158 -48 -4 0 0 1 2 0 1 0 1
0 -158 48 -4 0 0 1 2 0 1 0 1
0 158 48 -4 0 0 1 2 0 1 0 1
phys
0 -158 -48 -4 0 0 1 2 0 1 0 1
0 158 48 -4 0 0 1 2 0 1 0 1
0 158 -48 -4 0 0 1 2 0 1 0 1
phys
0 158 -48 4 0 0 1 2 0 1 0 1
0 158 48 4 0 0 1 2 0 1 0 1
0 -158 48 4 0 0 1 2 0 1 0 1
phys
0 158 -48 4 0 0 1 2 0 1 0 1
0 -158 48 4 0 0 1 2 0 1 0 1
0 -158 -48 4 0 0 1 2 0 1 0 1
phys
0 158 48 4 0 0 1 2 0 1 0 1
0 158 48 -4 0 0 1 2 0 1 0 1
0 -158 48 -4 0 0 1 2 0 1 0 1
phys
0 158 48 4 0 0 1 2 0 1 0 1
0 -158 48 -4 0 0 1 2 0 1 0 1
0 -158 48 4 0 0 1 2 0 1 0 1
phys
0 158 -48 -4 0 0 1 2 0 1 0 1
0 158 -48 4 0 0 1 2 0 1 0 1
0 -158 -48 4 0 0 1 2 0 1 0 1
phys
0 158 -48 -4 0 0 1 2 0 1 0 1
0 -158 -48 4 0 0 1 2 0 1 0 1
0 -158 -48 -4 0 0 1 2 0 1 0 1
phys
0 -150 -40 44 0 0 1 3 0 1 0 1
0 -150 -40 4 0 0 1 3 0 1 0 1
0 -158 -40 4 0 0 1 3 0 1 0 1
phys
0 -150 -40 44 0 0 1 3 0 1 0 1
0 -158 -40 4 0 0 1 3 0 1 0 1
0 -158 -40 44 0 0 1 3 0 1 0 1
phys
0 -150 -48 4 0 0 1 3 0 1 0 1
0 -150 -48 44 0 0 1 3 0 1 0 1
0 -158 -48 44 0 0 1 3 0 1 0 1
phys
0 -150 -48 4 0 0 1 3 0 1 0 1
0 -158 -48 44 0 0 1 3 0 1 0 1
0 -158 -48 4 0 0 1 3 0 1 0 1
phys
0 -158 -48 4 0 0 1 3 0 1 0 1
0 -158 -48 44 0 0 1 3 0 1 0 1
0 -158 -40 44 0 0 1 3 0 1 0 1
phys
0 -158 -48 4 0 0 1 3 0 1 0 1
0 -158 -40 44 0 0 1 3 0 1 0 1
0 -158 -40 4 0 0 1 3 0 1 0 1
phys
0 -150 -48 44 0 0 1 3 0 1 0 1
0 -150 -48 4 0 0 1 3 0 1 0 1
0 -150 -40 4 0 0 1 3 0 1 0 1
phys
0 -150 -48 44 0 0 1 3 0 1 0 1
0 -150 -40 4 0 0 1 3 0 1 0 1
0 -150 -40 44 0 0 1 3 0 1 0 1
phys
0 -150 -48 4 0 0 1 3 0 1 0 1
0 -158 -48 4 0 0 1 3 0 1 0 1
0 -158 -40 4 0 0 1 3 0 1 0 1
phys
0 -150 -48 4 0 0 1 3 0 1 0 1
0 -158 -40 4 0 0 1 3 0 1 0 1
0 -150 -40 4 0 0 1 3 0 1 0 1
phys
0 -158 -48 44 0 0 1 3 0 1 0 1
0 -150 -48 44 0 0 1 3 0 1 0 1
0 -150 -40 44 0 0 1 3 0 1 0 1
phys
0 -158 -48 44 0 0 1 3 0 1 0 1
0 -150 -40 44 0 0 1 3 0 1 0 1
0 -158 -40 44 0 0 1 3 0 1 0 1
phys
0 -150 48 44 0 0 1 4 0 1 0 1
0 -150 48 4 0 0 1 4 0 1 0 1
0 -158 48 4 0 0 1 4 0 1 0 1
phys
0 -150 48 44 0 0 1 4 0 1 0 1
0 -158 48 4 0 0 1 4 0 1 0 1
0 -158 48 44 0 0 1 4 0 1 0 1
phys
0 -150 40 4 0 0 1 4 0 1 0 1
0 -150 40 44 0 0 1 4 0 1 0 1
0 -158 40 44 0 0 1 4 0 1 0 1
phys
0 -150 40 4 0 0 1 4 0 1 0 1
0 -158 40 44 0 0 1 4 0 1 0 1
0 -158 40 4 0 0 1 4 0 1 0 1
phys
0 -158 40 4 0 0 1 4 0 1 0 1
0 -158 40 44 0 0 1 4 0 1 0 1
0 -158 48 44 0 0 1 4 0 1 0 1
phys
0 -158 40 4 0 0 1 4 0 1 0 1
0 -158 48 44 0 0 1 4 0 1 0 1
0 -158 48 4 0 0 1 4 0 1 0 1
phys
0 -150 40 44 0 0 1 4 0 1 0 1
0 -150 40 4 0 0 1 4 0 1 0 1
0 -150 48 4 0 0 1 4 0 1 0 1
phys
0 -150 40 44 0 0 1 4 0 1 0 1
0 -150 48 4 0 0 1 4 0 1 0 1
0 -150 48 44 0 0 1 4 0 1 0 1
phys
0 -150 40 4 0 0 1 4 0 1 0 1
0 -158 40 4 0 0 1 4 0 1 0 1
0 -158 48 4 0 0 1 4 0 1 0 1
phys
0 -150 40 4 0 0 1 4 0 1 0 1
0 -158 48 4 0 0 1 4 0 1 0 1
0 -150 48 4 0 0 1 4 0 1 0 1
phys
0 -158 40 44 0 0 1 4 0 1 0 1
0 -150 40 44 0 0 1 4 0 1 0 1
0 -150 48 44 0 0 1 4 0 1 0 1
phys
0 -158 40 44 0 0 1 4 0 1 0 1
0 -150 48 44 0 0 1 4 0 1 0 1
0 -158 48 44 0 0 1 4 0 1 0 1
phys
0 72 -57 116 0 0 1 5 0 1 0 1
0 68 -57 112 0 0 1 5 0 1 0 1
0 68 -48 112 0 0 1 5 0 1 0 1
phys
0 72 -57 116 0 0 1 5 0 1 0 1
0 68 -48 112 0 0 1 5 0 1 0 1
0 72 -48 116 0 0 1 5 0 1 0 1
phys
0 72 -48 116 0 0 1 5 0 1 0 1
0 68 -48 112 0 0 1 5 0 1 0 1
0 20 -48 112 0 0 1 5 0 1 0 1
phys
0 72 -48 116 0 0 1 5 0 1 0 1
0 20 -48 112 0 0 1 5 0 1 0 1
0 16 -48 116 0 0 1 5 0 1 0 1
phys
0 68 -57 112 0 0 1 5 0 1 0 1
0 72 -57 116 0 0 1 5 0 1 0 1
0 16 -57 116 0 0 1 5 0 1 0 1
phys
0 68 -57 112 0 0 1 5 0 1 0 1
0 16 -57 116 0 0 1 5 0 1 0 1
0 20 -57 112 0 0 1 5 0 1 0 1
phys
0 20 -48 112 0 0 1 5 0 1 0 1
0 68 -48 112 0 0 1 5 0 1 0 1
0 68 -57 112 0 0 1 5 0 1 0 1
phys
0 20 -48 112 0 0 1 5 0 1 0 1
0 68 -57 112 0 0 1 5 0 1 0 1
0 20 -57 112 0 0 1 5 0 1 0 1
phys
0 16 -57 116 0 0 1 5 0 1 0 1
0 72 -57 116 0 0 1 5 0 1 0 1
0 72 -48 116 0 0 1 5 0 1 0 1
phys
0 16 -57 116 0 0 1 5 0 1 0 1
0 72 -48 116 0 0 1 5 0 1 0 1
0 16 -48 116 0 0 1 5 0 1 0 1
phys
0 16 -48 116 0 0 1 5 0 1 0 1
0 20 -48 112 0 0 1 5 0 1 0 1
0 20 -57 112 0 0 1 5 0 1 0 1
phys
0 16 -48 116 0 0 1 5 0 1 0 1
0 20 -57 112 0 0 1 5 0 1 0 1
0 16 -57 116 0 0 1 5 0 1 0 1
phys
0 -70 48 44 0 0 1 6 0 1 0 1
0 -70 48 40 0 0 1 6 0 1 0 1
0 -150 48 40 0 0 1 6 0 1 0 1
phys
0 -70 48 44 0 0 1 6 0 1 0 1
0 -150 48 40 0 0 1 6 0 1 0 1
0 -150 48 44 0 0 1 6 0 1 0 1
phys
0 -70 40 40 0 0 1 6 0 1 0 1
0 -70 40 44 0 0 1 6 0 1 0 1
0 -150 40 44 0 0 1 6 0 1 0 1
phys
0 -70 40 40 0 0 1 6 0 1 0 1
0 -150 40 44 0 0 1 6 0 1 0 1
0 -150 40 40 0 0 1 6 0 1 0 1
phys
0 -150 40 40 0 0 1 6 0 1 0 1
0 -150 40 44 0 0 1 6 0 1 0 1
0 -150 48 44 0 0 1 6 0 1 0 1
phys
0 -150 40 40 0 0 1 6 0 1 0 1
0 -150 48 44 0 0 1 6 0 1 0 1
0 -150 48 40 0 0 1 6 0 1 0 1
phys
0 -70 40 44 0 0 1 6 0 1 0 1
0 -70 40 40 0 0 1 6 0 1 0 1
0 -70 48 40 0 0 1 6 0 1 0 1
phys
0 -70 40 44 0 0 1 6 0 1 0 1
0 -70 48 40 0 0 1 6 0 1 0 1
0 -70 48 44 0 0 1 6 0 1 0 1
phys
0 -70 40 40 0 0 1 6 0 1 0 1
0 -150 40 40 0 0 1 6 0 1 0 1
0 -150 48 40 0 0 1 6 0 1 0 1
phys
0 -70 40 40 0 0 1 6 0 1 0 1
0 -150 48 40 0 0 1 6 0 1 0 1
0 -70 48 40 0 0 1 6 0 1 0 1
phys
0 -150 40 44 0 0 1 6 0 1 0 1
0 -70 40 44 0 0 1 6 0 1 0 1
0 -70 48 44 0 0 1 6 0 1 0 1
phys
0 -150 40 44 0 0 1 6 0 1 0 1
0 -70 48 44 0 0 1 6 0 1 0 1
0 -150 48 44 0 0 1 6 0 1 0 1
phys
0 20 -48 112.0209 0 0 1 7 0 1 0 1
0 20 -48 4 0 0 1 7 0 1 0 1
0 16 -48 4 0 0 1 7 0 1 0 1
phys
0 20 -48 112.0209 0 0 1 7 0 1 0 1
0 16 -48 4 0 0 1 7 0 1 0 1
0 16 -48 116.0219 0 0 1 7 0 1 0 1
phys
0 20 -57 4 0 0 1 7 0 1 0 1
0 20 -57 112.0297 0 0 1 7 0 1 0 1
0 16 -57 116.0307 0 0 1 7 0 1 0 1
phys
0 20 -57 4 0 0 1 7 0 1 0 1
0 16 -57 116.0307 0 0 1 7 0 1 0 1
0 16 -57 4 0 0 1 7 0 1 0 1
phys
0 16 -57 4 0 0 1 7 0 1 0 1
0 16 -57 116.0307 0 0 1 7 0 1 0 1
0 16 -48 116.0219 0 0 1 7 0 1 0 1
phys
0 16 -57 4 0 0 1 7 0 1 0 1
0 16 -48 116.0219 0 0 1 7 0 1 0 1
0 16 -48 4 0 0 1 7 0 1 0 1
phys
0 20 -57 112.0297 0 0 1 7 0 1 0 1
0 20 -57 4 0 0 1 7 0 1 0 1
0 20 -48 4 0 0 1 7 0 1 0 1
phys
0 20 -57 112.0297 0 0 1 7 0 1 0 1
0 20 -48 4 0 0 1 7 0 1 0 1
0 20 -48 112.0209 0 0 1 7 0 1 0 1
phys
0 20 -57 4 0 0 1 7 0 1 0 1
0 16 -57 4 0 0 1 7 0 1 0 1
0 16 -48 4 0 0 1 7 0 1 0 1
phys
0 20 -57 4 0 0 1 7 0 1 0 1
0 16 -48 4 0 0 1 7 0 1 0 1
0 20 -48 4 0 0 1 7 0 1 0 1
phys
0 16 -57 116.0307 0 0 1 7 0 1 0 1
0 20 -57 112.0297 0 0 1 7 0 1 0 1
0 20 -48 112.0209 0 0 1 7 0 1 0 1
phys
0 16 -57 116.0307 0 0 1 7 0 1 0 1
0 20 -48 112.0209 0 0 1 7 0 1 0 1
0 16 -48 116.0219 0 0 1 7 0 1 0 1
phys
0 -150 40 44 0 0 1 8 0 1 0 1
0 -150 40 40 0 0 1 8 0 1 0 1
0 -158 40 40 0 0 1 8 0 1 0 1
phys
0 -150 40 44 0 0 1 8 0 1 0 1
0 -158 40 40 0 0 1 8 0 1 0 1
0 -158 40 44 0 0 1 8 0 1 0 1
phys
0 -150 -40 40 0 0 1 8 0 1 0 1
0 -150 -40 44 0 0 1 8 0 1 0 1
0 -158 -40 44 0 0 1 8 0 1 0 1
phys
0 -150 -40 40 0 0 1 8 0 1 0 1
0 -158 -40 44 0 0 1 8 0 1 0 1
0 -158 -40 40 0 0 1 8 0 1 0 1
phys
0 -158 -40 40 0 0 1 8 0 1 0 1
0 -158 -40 44 0 0 1 8 0 1 0 1
0 -158 40 44 0 0 1 8 0 1 0 1
phys
0 -158 -40 40 0 0 1 8 0 1 0 1
0 -158 40 44 0 0 1 8 0 1 0 1
0 -158 40 40 0 0 1 8 0 1 0 1
phys
0 -150 -40 44 0 0 1 8 0 1 0 1
0 -150 -40 40 0 0 1 8 0 1 0 1
0 -150 40 40 0 0 1 8 0 1 0 1
phys
0 -150 -40 44 0 0 1 8 0 1 0 1
0 -150 40 40 0 0 1 8 0 1 0 1
0 -150 40 44 0 0 1 8 0 1 0 1
phys
0 -150 -40 40 0 0 1 8 0 1 0 1
0 -158 -40 40 0 0 1 8 0 1 0 1
0 -158 40 40 0 0 1 8 0 1 0 1
phys
0 -150 -40 40 0 0 1 8 0 1 0 1
0 -158 40 40 0 0 1 8 0 1 0 1
0 -150 40 40 0 0 1 8 0 1 0 1
phys
0 -158 -40 44 0 0 1 8 0 1 0 1
0 -150 -40 44 0 0 1 8 0 1 0 1
0 -150 40 44 0 0 1 8 0 1 0 1
phys
0 -158 -40 44 0 0 1 8 0 1 0 1
0 -150 40 44 0 0 1 8 0 1 0 1
0 -158 40 44 0 0 1 8 0 1 0 1
phys
0 -62 48 44 0 0 1 9 0 1 0 1
0 -62 48 4 0 0 1 9 0 1 0 1
0 -70 48 4 0 0 1 9 0 1 0 1
phys
0 -62 48 44 0 0 1 9 0 1 0 1
0 -70 48 4 0 0 1 9 0 1 0 1
0 -70 48 44 0 0 1 9 0 1 0 1
phys
0 -62 40 4 0 0 1 9 0 1 0 1
0 -62 40 44 0 0 1 9 0 1 0 1
0 -70 40 44 0 0 1 9 0 1 0 1
phys
0 -62 40 4 0 0 1 9 0 1 0 1
0 -70 40 44 0 0 1 9 0 1 0 1
0 -70 40 4 0 0 1 9 0 1 0 1
phys
0 -70 40 4 0 0 1 9 0 1 0 1
0 -70 40 44 0 0 1 9 0 1 0 1
0 -70 48 44 0 0 1 9 0 1 0 1
phys
0 -70 40 4 0 0 1 9 0 1 0 1
0 -70 48 44 0 0 1 9 0 1 0 1
0 -70 48 4 0 0 1 9 0 1 0 1
phys
0 -62 40 44 0 0 1 9 0 1 0 1
0 -62 40 4 0 0 1 9 0 1 0 1
0 -62 48 4 0 0 1 9 0 1 0 1
phys
0 -62 40 44 0 0 1 9 0 1 0 1
0 -62 48 4 0 0 1 9 0 1 0 1
0 -62 48 44 0 0 1 9 0 1 0 1
phys
0 -62 40 4 0 0 1 9 0 1 0 1
0 -70 40 4 0 0 1 9 0 1 0 1
0 -70 48 4 0 0 1 9 0 1 0 1
phys
0 -62 40 4 0 0 1 9 0 1 0 1
0 -70 48 4 0 0 1 9 0 1 0 1
0 -62 48 4 0 0 1 9 0 1 0 1
phys
0 -70 40 44 0 0 1 9 0 1 0 1
0 -62 40 44 0 0 1 9 0 1 0 1
0 -62 48 44 0 0 1 9 0 1 0 1
phys
0 -70 40 44 0 0 1 9 0 1 0 1
0 -62 48 44 0 0 1 9 0 1 0 1
0 -70 48 44 0 0 1 9 0 1 0 1
phys
0 70 48 44 0 0 1 10 0 1 0 1
0 70 48 4 0 0 1 10 0 1 0 1
0 62 48 4 0 0 1 10 0 1 0 1
phys
0 70 48 44 0 0 1 10 0 1 0 1
0 62 48 4 0 0 1 10 0 1 0 1
0 62 48 44 0 0 1 10 0 1 0 1
phys
0 70 40 4 0 0 1 10 0 1 0 1
0 70 40 44 0 0 1 10 0 1 0 1
0 62 40 44 0 0 1 10 0 1 0 1
phys
0 70 40 4 0 0 1 10 0 1 0 1
0 62 40 44 0 0 1 10 0 1 0 1
0 62 40 4 0 0 1 10 0 1 0 1
phys
0 62 40 4 0 0 1 10 0 1 0 1
0 62 40 44 0 0 1 10 0 1 0 1
0 62 48 44 0 0 1 10 0 1 0 1
phys
0 62 40 4 0 0 1 10 0 1 0 1
0 62 48 44 0 0 1 10 0 1 0 1
0 62 48 4 0 0 1 10 0 1 0 1
phys
0 70 40 44 0 0 1 10 0 1 0 1
0 70 40 4 0 0 1 10 0 1 0 1
0 70 48 4 0 0 1 10 0 1 0 1
phys
0 70 40 44 0 0 1 10 0 1 0 1
0 70 48 4 0 0 1 10 0 1 0 1
0 70 48 44 0 0 1 10 0 1 0 1
phys
0 70 40 4 0 0 1 10 0 1 0 1
0 62 40 4 0 0 1 10 0 1 0 1
0 62 48 4 0 0 1 10 0 1 0 1
phys
0 70 40 4 0 0 1 10 0 1 0 1
0 62 48 4 0 0 1 10 0 1 0 1
0 70 48 4 0 0 1 10 0 1 0 1
phys
0 62 40 44 0 0 1 10 0 1 0 1
0 70 40 44 0 0 1 10 0 1 0 1
0 70 48 44 0 0 1 10 0 1 0 1
phys
0 62 40 44 0 0 1 10 0 1 0 1
0 70 48 44 0 0 1 10 0 1 0 1
0 62 48 44 0 0 1 10 0 1 0 1
phys
0 72 -48 115.9938 0 0 1 11 0 1 0 1
0 72 -48 4 0 0 1 11 0 1 0 1
0 68 -48 4 0 0 1 11 0 1 0 1
phys
0 72 -48 115.9938 0 0 1 11 0 1 0 1
0 68 -48 4 0 0 1 11 0 1 0 1
0 68 -48 111.9938 0 0 1 11 0 1 0 1
phys
0 72 -57 4 0 0 1 11 0 1 0 1
0 72 -57 115.9938 0 0 1 11 0 1 0 1
0 68 -57 111.9938 0 0 1 11 0 1 0 1
phys
0 72 -57 4 0 0 1 11 0 1 0 1
0 68 -57 111.9938 0 0 1 11 0 1 0 1
0 68 -57 4 0 0 1 11 0 1 0 1
phys
0 68 -57 4 0 0 1 11 0 1 0 1
0 68 -57 111.9938 0 0 1 11 0 1 0 1
0 68 -48 111.9938 0 0 1 11 0 1 0 1
phys
0 68 -57 4 0 0 1 11 0 1 0 1
0 68 -48 111.9938 0 0 1 11 0 1 0 1
0 68 -48 4 0 0 1 11 0 1 0 1
phys
0 72 -57 115.9938 0 0 1 11 0 1 0 1
0 72 -57 4 0 0 1 11 0 1 0 1
0 72 -48 4 0 0 1 11 0 1 0 1
phys
0 72 -57 115.9938 0 0 1 11 0 1 0 1
0 72 -48 4 0 0 1 11 0 1 0 1
0 72 -48 115.9938 0 0 1 11 0 1 0 1
phys
0 72 -57 4 0 0 1 11 0 1 0 1
0 68 -57 4 0 0 1 11 0 1 0 1
0 68 -48 4 0 0 1 11 0 1 0 1
phys
0 72 -57 4 0 0 1 11 0 1 0 1
0 68 -48 4 0 0 1 11 0 1 0 1
0 72 -48 4 0 0 1 11 0 1 0 1
phys
0 68 -57 111.9938 0 0 1 11 0 1 0 1
0 72 -57 115.9938 0 0 1 11 0 1 0 1
0 72 -48 115.9938 0 0 1 11 0 1 0 1
phys
0 68 -57 111.9938 0 0 1 11 0 1 0 1
0 72 -48 115.9938 0 0 1 11 0 1 0 1
0 68 -48 111.9938 0 0 1 11 0 1 0 1
phys
0 -108 -48 -4 0 0 1 12 0 1 0 1
0 -108 40 -4 0 0 1 12 0 1 0 1
0 -108 40 -12 0 0 1 12 0 1 0 1
phys
0 -108 -48 -4 0 0 1 12 0 1 0 1
0 -108 40 -12 0 0 1 12 0 1 0 1
0 -108 -38 -69 0 0 1 12 0 1 0 1
phys
0 -108 -48 -4 0 0 1 12 0 1 0 1
0 -108 -38 -69 0 0 1 12 0 1 0 1
0 -108 -48 -69 0 0 1 12 0 1 0 1
phys
0 -98 -48 -69 0 0 1 12 0 1 0 1
0 -98 -38 -69 0 0 1 12 0 1 0 1
0 -98 40 -12 0 0 1 12 0 1 0 1
phys
0 -98 -48 -69 0 0 1 12 0 1 0 1
0 -98 40 -12 0 0 1 12 0 1 0 1
0 -98 40 -4 0 0 1 12 0 1 0 1
phys
0 -98 -48 -69 0 0 1 12 0 1 0 1
0 -98 40 -4 0 0 1 12 0 1 0 1
0 -98 -48 -4 0 0 1 12 0 1 0 1
phys
0 -108 -48 -69 0 0 1 12 0 1 0 1
0 -108 -38 -69 0 0 1 12 0 1 0 1
0 -98 -38 -69 0 0 1 12 0 1 0 1
phys
0 -108 -48 -69 0 0 1 12 0 1 0 1
0 -98 -38 -69 0 0 1 12 0 1 0 1
0 -98 -48 -69 0 0 1 12 0 1 0 1
phys
0 -98 -48 -4 0 0 1 12 0 1 0 1
0 -98 40 -4 0 0 1 12 0 1 0 1
0 -108 40 -4 0 0 1 12 0 1 0 1
phys
0 -98 -48 -4 0 0 1 12 0 1 0 1
0 -108 40 -4 0 0 1 12 0 1 0 1
0 -108 -48 -4 0 0 1 12 0 1 0 1
phys
0 -108 -38 -69 0 0 1 12 0 1 0 1
0 -108 40 -12 0 0 1 12 0 1 0 1
0 -98 40 -12 0 0 1 12 0 1 0 1
phys
0 -108 -38 -69 0 0 1 12 0 1 0 1
0 -98 40 -12 0 0 1 12 0 1 0 1
0 -98 -38 -69 0 0 1 12 0 1 0 1
phys
0 -98 40 -4 0 0 1 12 0 1 0 1
0 -98 40 -12 0 0 1 12 0 1 0 1
0 -108 40 -12 0 0 1 12 0 1 0 1
phys
0 -98 40 -4 0 0 1 12 0 1 0 1
0 -108 40 -12 0 0 1 12 0 1 0 1
0 -108 40 -4 0 0 1 12 0 1 0 1
phys
0 -98 -48 -69 0 0 1 12 0 1 0 1
0 -98 -48 -4 0 0 1 12 0 1 0 1
0 -108 -48 -4 0 0 1 12 0 1 0 1
phys
0 -98 -48 -69 0 0 1 12 0 1 0 1
0 -108 -48 -4 0 0 1 12 0 1 0 1
0 -108 -48 -69 0 0 1 12 0 1 0 1
phys
0 150 40 40 0 0 1 13 0 1 0 1
0 70 40 40 0 0 1 13 0 1 0 1
0 70 48 40 0 0 1 13 0 1 0 1
phys
0 150 40 40 0 0 1 13 0 1 0 1
0 70 48 40 0 0 1 13 0 1 0 1
0 150 48 40 0 0 1 13 0 1 0 1
phys
0 70 40 44 0 0 1 13 0 1 0 1
0 150 40 44 0 0 1 13 0 1 0 1
0 150 48 44 0 0 1 13 0 1 0 1
phys
0 70 40 44 0 0 1 13 0 1 0 1
0 150 48 44 0 0 1 13 0 1 0 1
0 70 48 44 0 0 1 13 0 1 0 1
phys
0 150 48 40 0 0 1 13 0 1 0 1
0 70 48 40 0 0 1 13 0 1 0 1
0 70 48 44 0 0 1 13 0 1 0 1
phys
0 150 48 40 0 0 1 13 0 1 0 1
0 70 48 44 0 0 1 13 0 1 0 1
0 150 48 44 0 0 1 13 0 1 0 1
phys
0 150 40 44 0 0 1 13 0 1 0 1
0 70 40 44 0 0 1 13 0 1 0 1
0 70 40 40 0 0 1 13 0 1 0 1
phys
0 150 40 44 0 0 1 13 0 1 0 1
0 70 40 40 0 0 1 13 0 1 0 1
0 150 40 40 0 0 1 13 0 1 0 1
phys
0 70 40 44 0 0 1 13 0 1 0 1
0 70 48 44 0 0 1 13 0 1 0 1
0 70 48 40 0 0 1 13 0 1 0 1
phys
0 70 40 44 0 0 1 13 0 1 0 1
0 70 48 40 0 0 1 13 0 1 0 1
0 70 40 40 0 0 1 13 0 1 0 1
phys
0 150 40 40 0 0 1 13 0 1 0 1
0 150 48 40 0 0 1 13 0 1 0 1
0 150 48 44 0 0 1 13 0 1 0 1
phys
0 150 40 40 0 0 1 13 0 1 0 1
0 150 48 44 0 0 1 13 0 1 0 1
0 150 40 44 0 0 1 13 0 1 0 1
phys
0 108 40 -4 0 0 1 14 0 1 0 1
0 108 40 -12 0 0 1 14 0 1 0 1
0 98 40 -12 0 0 1 14 0 1 0 1
phys
0 108 40 -4 0 0 1 14 0 1 0 1
0 98 40 -12 0 0 1 14 0 1 0 1
0 98 40 -4 0 0 1 14 0 1 0 1
phys
0 108 -48 -69 0 0 1 14 0 1 0 1
0 108 -48 -4 0 0 1 14 0 1 0 1
0 98 -48 -4 0 0 1 14 0 1 0 1
phys
0 108 -48 -69 0 0 1 14 0 1 0 1
0 98 -48 -4 0 0 1 14 0 1 0 1
0 98 -48 -69 0 0 1 14 0 1 0 1
phys
0 98 -48 -69 0 0 1 14 0 1 0 1
0 98 -48 -4 0 0 1 14 0 1 0 1
0 98 40 -4 0 0 1 14 0 1 0 1
phys
0 98 -48 -69 0 0 1 14 0 1 0 1
0 98 40 -4 0 0 1 14 0 1 0 1
0 98 40 -12 0 0 1 14 0 1 0 1
phys
0 98 -48 -69 0 0 1 14 0 1 0 1
0 98 40 -12 0 0 1 14 0 1 0 1
0 98 -38 -69 0 0 1 14 0 1 0 1
phys
0 108 -48 -4 0 0 1 14 0 1 0 1
0 108 -48 -69 0 0 1 14 0 1 0 1
0 108 -38 -69 0 0 1 14 0 1 0 1
phys
0 108 -48 -4 0 0 1 14 0 1 0 1
0 108 -38 -69 0 0 1 14 0 1 0 1
0 108 40 -12 0 0 1 14 0 1 0 1
phys
0 108 -48 -4 0 0 1 14 0 1 0 1
0 108 40 -12 0 0 1 14 0 1 0 1
0 108 40 -4 0 0 1 14 0 1 0 1
phys
0 108 -48 -69 0 0 1 14 0 1 0 1
0 98 -48 -69 0 0 1 14 0 1 0 1
0 98 -38 -69 0 0 1 14 0 1 0 1
phys
0 108 -48 -69 0 0 1 14 0 1 0 1
0 98 -38 -69 0 0 1 14 0 1 0 1
0 108 -38 -69 0 0 1 14 0 1 0 1
phys
0 98 -48 -4 0 0 1 14 0 1 0 1
0 108 -48 -4 0 0 1 14 0 1 0 1
0 108 40 -4 0 0 1 14 0 1 0 1
phys
0 98 -48 -4 0 0 1 14 0 1 0 1
0 108 40 -4 0 0 1 14 0 1 0 1
0 98 40 -4 0 0 1 14 0 1 0 1
phys
0 98 -38 -69 0 0 1 14 0 1 0 1
0 98 40 -12 0 0 1 14 0 1 0 1
0 108 40 -12 0 0 1 14 0 1 0 1
phys
0 98 -38 -69 0 0 1 14 0 1 0 1
0 108 40 -12 0 0 1 14 0 1 0 1
0 108 -38 -69 0 0 1 14 0 1 0 1
end
