version 1
nodes
0 "root" -1
end
skeleton
time 0
0 0 0 0 0 0 0
end
triangles
phys
0 189 -8 -6 0 0 1 1 0 1 0 1
0 189 -8 6 0 0 1 1 0 1 0 1
0 -189 -8 6 0 0 1 1 0 1 0 1
phys
0 189 -8 -6 0 0 1 1 0 1 0 1
0 -189 -8 6 0 0 1 1 0 1 0 1
0 -189 -8 -6 0 0 1 1 0 1 0 1
phys
0 -189 -8 -6 0 0 1 1 0 1 0 1
0 -189 -8 6 0 0 1 1 0 1 0 1
0 -189 6 6 0 0 1 1 0 1 0 1
phys
0 -189 -8 -6 0 0 1 1 0 1 0 1
0 -189 6 6 0 0 1 1 0 1 0 1
0 -189 8 4 0 0 1 1 0 1 0 1
phys
0 -189 -8 -6 0 0 1 1 0 1 0 1
0 -189 8 4 0 0 1 1 0 1 0 1
0 -189 8 -6 0 0 1 1 0 1 0 1
phys
0 189 -8 6 0 0 1 1 0 1 0 1
0 189 -8 -6 0 0 1 1 0 1 0 1
0 189 8 -6 0 0 1 1 0 1 0 1
phys
0 189 -8 6 0 0 1 1 0 1 0 1
0 189 8 -6 0 0 1 1 0 1 0 1
0 189 8 4 0 0 1 1 0 1 0 1
phys
0 189 -8 6 0 0 1 1 0 1 0 1
0 189 8 4 0 0 1 1 0 1 0 1
0 189 6 6 0 0 1 1 0 1 0 1
phys
0 189 -8 -6 0 0 1 1 0 1 0 1
0 -189 -8 -6 0 0 1 1 0 1 0 1
0 -189 8 -6 0 0 1 1 0 1 0 1
phys
0 189 -8 -6 0 0 1 1 0 1 0 1
0 -189 8 -6 0 0 1 1 0 1 0 1
0 189 8 -6 0 0 1 1 0 1 0 1
phys
0 -189 -8 6 0 0 1 1 0 1 0 1
0 189 -8 6 0 0 1 1 0 1 0 1
0 189 6 6 0 0 1 1 0 1 0 1
phys
0 -189 -8 6 0 0 1 1 0 1 0 1
0 189 6 6 0 0 1 1 0 1 0 1
0 -189 6 6 0 0 1 1 0 1 0 1
phys
0 189 6 6 0 0 1 1 0 1 0 1
0 189 8 4 0 0 1 1 0 1 0 1
0 -189 8 4 0 0 1 1 0 1 0 1
phys
0 189 6 6 0 0 1 1 0 1 0 1
0 -189 8 4 0 0 1 1 0 1 0 1
0 -189 6 6 0 0 1 1 0 1 0 1
phys
0 189 8 4 0 0 1 1 0 1 0 1
0 189 8 -6 0 0 1 1 0 1 0 1
0 -189 8 -6 0 0 1 1 0 1 0 1
phys
0 189 8 4 0 0 1 1 0 1 0 1
0 -189 8 -6 0 0 1 1 0 1 0 1
0 -189 8 4 0 0 1 1 0 1 0 1
phys
0 202 147 -154 0 0 1 2 0 1 0 1
0 188 147 -154 0 0 1 2 0 1 0 1
0 188 147 -38 0 0 1 2 0 1 0 1
phys
0 202 147 -154 0 0 1 2 0 1 0 1
0 188 147 -38 0 0 1 2 0 1 0 1
0 202 147 -38 0 0 1 2 0 1 0 1
phys
0 202 127 -38 0 0 1 2 0 1 0 1
0 188 127 -38 0 0 1 2 0 1 0 1
0 188 127 -154 0 0 1 2 0 1 0 1
phys
0 202 127 -38 0 0 1 2 0 1 0 1
0 188 127 -154 0 0 1 2 0 1 0 1
0 202 127 -154 0 0 1 2 0 1 0 1
phys
0 185 130.01 -38 0 0 1 2 0 1 0 1
0 185 144 -38 0 0 1 2 0 1 0 1
0 185 144 -154 0 0 1 2 0 1 0 1
phys
0 185 130.01 -38 0 0 1 2 0 1 0 1
0 185 144 -154 0 0 1 2 0 1 0 1
0 185 130.01 -154 0 0 1 2 0 1 0 1
phys
0 205 130 -154 0 0 1 2 0 1 0 1
0 205 144 -154 0 0 1 2 0 1 0 1
0 205 144 -38 0 0 1 2 0 1 0 1
phys
0 205 130 -154 0 0 1 2 0 1 0 1
0 205 144 -38 0 0 1 2 0 1 0 1
0 205 130 -38 0 0 1 2 0 1 0 1
phys
0 202 127 -154 0 0 1 2 0 1 0 1
0 188 127 -154 0 0 1 2 0 1 0 1
0 185 130.01 -154 0 0 1 2 0 1 0 1
phys
0 202 127 -154 0 0 1 2 0 1 0 1
0 185 130.01 -154 0 0 1 2 0 1 0 1
0 185 144 -154 0 0 1 2 0 1 0 1
phys
0 202 127 -154 0 0 1 2 0 1 0 1
0 185 144 -154 0 0 1 2 0 1 0 1
0 188 147 -154 0 0 1 2 0 1 0 1
phys
0 202 127 -154 0 0 1 2 0 1 0 1
0 188 147 -154 0 0 1 2 0 1 0 1
0 202 147 -154 0 0 1 2 0 1 0 1
phys
0 202 127 -154 0 0 1 2 0 1 0 1
0 202 147 -154 0 0 1 2 0 1 0 1
0 205 144 -154 0 0 1 2 0 1 0 1
phys
0 202 127 -154 0 0 1 2 0 1 0 1
0 205 144 -154 0 0 1 2 0 1 0 1
0 205 130 -154 0 0 1 2 0 1 0 1
phys
0 188 127 -38 0 0 1 2 0 1 0 1
0 202 127 -38 0 0 1 2 0 1 0 1
0 205 130 -38 0 0 1 2 0 1 0 1
phys
0 188 127 -38 0 0 1 2 0 1 0 1
0 205 130 -38 0 0 1 2 0 1 0 1
0 205 144 -38 0 0 1 2 0 1 0 1
phys
0 188 127 -38 0 0 1 2 0 1 0 1
0 205 144 -38 0 0 1 2 0 1 0 1
0 202 147 -38 0 0 1 2 0 1 0 1
phys
0 188 127 -38 0 0 1 2 0 1 0 1
0 202 147 -38 0 0 1 2 0 1 0 1
0 188 147 -38 0 0 1 2 0 1 0 1
phys
0 188 127 -38 0 0 1 2 0 1 0 1
0 188 147 -38 0 0 1 2 0 1 0 1
0 185 144 -38 0 0 1 2 0 1 0 1
phys
0 188 127 -38 0 0 1 2 0 1 0 1
0 185 144 -38 0 0 1 2 0 1 0 1
0 185 130.01 -38 0 0 1 2 0 1 0 1
phys
0 205 144 -38 0 0 1 2 0 1 0 1
0 205 144 -154 0 0 1 2 0 1 0 1
0 202 147 -154 0 0 1 2 0 1 0 1
phys
0 205 144 -38 0 0 1 2 0 1 0 1
0 202 147 -154 0 0 1 2 0 1 0 1
0 202 147 -38 0 0 1 2 0 1 0 1
phys
0 185 144 -154 0 0 1 2 0 1 0 1
0 185 144 -38 0 0 1 2 0 1 0 1
0 188 147 -38 0 0 1 2 0 1 0 1
phys
0 185 144 -154 0 0 1 2 0 1 0 1
0 188 147 -38 0 0 1 2 0 1 0 1
0 188 147 -154 0 0 1 2 0 1 0 1
phys
0 202 127 -38 0 0 1 2 0 1 0 1
0 202 127 -154 0 0 1 2 0 1 0 1
0 205 130 -154 0 0 1 2 0 1 0 1
phys
0 202 127 -38 0 0 1 2 0 1 0 1
0 205 130 -154 0 0 1 2 0 1 0 1
0 205 130 -38 0 0 1 2 0 1 0 1
phys
0 188 127 -154 0 0 1 2 0 1 0 1
0 188 127 -38 0 0 1 2 0 1 0 1
0 185 130.01 -38 0 0 1 2 0 1 0 1
phys
0 188 127 -154 0 0 1 2 0 1 0 1
0 185 130.01 -38 0 0 1 2 0 1 0 1
0 185 130.01 -154 0 0 1 2 0 1 0 1
phys
0 466 147 -18 0 0 1 3 0 1 0 1
0 466 157 -18 0 0 1 3 0 1 0 1
0 466 157 -6 0 0 1 3 0 1 0 1
phys
0 466 147 -18 0 0 1 3 0 1 0 1
0 466 157 -6 0 0 1 3 0 1 0 1
0 466 147 -6 0 0 1 3 0 1 0 1
phys
0 175 157 -18 0 0 1 3 0 1 0 1
0 466 157 -18 0 0 1 3 0 1 0 1
0 466 147 -18 0 0 1 3 0 1 0 1
phys
0 175 157 -18 0 0 1 3 0 1 0 1
0 466 147 -18 0 0 1 3 0 1 0 1
0 175 147 -18 0 0 1 3 0 1 0 1
phys
0 175 147 -6 0 0 1 3 0 1 0 1
0 466 147 -6 0 0 1 3 0 1 0 1
0 466 157 -6 0 0 1 3 0 1 0 1
phys
0 175 147 -6 0 0 1 3 0 1 0 1
0 466 157 -6 0 0 1 3 0 1 0 1
0 175 157 -6 0 0 1 3 0 1 0 1
phys
0 466 157 -6 0 0 1 3 0 1 0 1
0 466 157 -18 0 0 1 3 0 1 0 1
0 175 157 -18 0 0 1 3 0 1 0 1
phys
0 466 157 -6 0 0 1 3 0 1 0 1
0 175 157 -18 0 0 1 3 0 1 0 1
0 175 157 -6 0 0 1 3 0 1 0 1
phys
0 466 147 -18 0 0 1 3 0 1 0 1
0 466 147 -6 0 0 1 3 0 1 0 1
0 175 147 -6 0 0 1 3 0 1 0 1
phys
0 466 147 -18 0 0 1 3 0 1 0 1
0 175 147 -6 0 0 1 3 0 1 0 1
0 175 147 -18 0 0 1 3 0 1 0 1
phys
0 175 147 -6 0 0 1 3 0 1 0 1
0 175 157 -6 0 0 1 3 0 1 0 1
0 175 157 -18 0 0 1 3 0 1 0 1
phys
0 175 147 -6 0 0 1 3 0 1 0 1
0 175 157 -18 0 0 1 3 0 1 0 1
0 175 147 -18 0 0 1 3 0 1 0 1
phys
0 453 147 -154 0 0 1 4 0 1 0 1
0 439 147 -154 0 0 1 4 0 1 0 1
0 439 147 -38 0 0 1 4 0 1 0 1
phys
0 453 147 -154 0 0 1 4 0 1 0 1
0 439 147 -38 0 0 1 4 0 1 0 1
0 453 147 -38 0 0 1 4 0 1 0 1
phys
0 453 127 -38 0 0 1 4 0 1 0 1
0 439 127 -38 0 0 1 4 0 1 0 1
0 439 127 -154 0 0 1 4 0 1 0 1
phys
0 453 127 -38 0 0 1 4 0 1 0 1
0 439 127 -154 0 0 1 4 0 1 0 1
0 453 127 -154 0 0 1 4 0 1 0 1
phys
0 436 130 -38 0 0 1 4 0 1 0 1
0 436 144 -38 0 0 1 4 0 1 0 1
0 436 144 -154 0 0 1 4 0 1 0 1
phys
0 436 130 -38 0 0 1 4 0 1 0 1
0 436 144 -154 0 0 1 4 0 1 0 1
0 436 130 -154 0 0 1 4 0 1 0 1
phys
0 456 130 -154 0 0 1 4 0 1 0 1
0 456 144 -154 0 0 1 4 0 1 0 1
0 456 144 -38 0 0 1 4 0 1 0 1
phys
0 456 130 -154 0 0 1 4 0 1 0 1
0 456 144 -38 0 0 1 4 0 1 0 1
0 456 130 -38 0 0 1 4 0 1 0 1
phys
0 453 127 -154 0 0 1 4 0 1 0 1
0 439 127 -154 0 0 1 4 0 1 0 1
0 436 130 -154 0 0 1 4 0 1 0 1
phys
0 453 127 -154 0 0 1 4 0 1 0 1
0 436 130 -154 0 0 1 4 0 1 0 1
0 436 144 -154 0 0 1 4 0 1 0 1
phys
0 453 127 -154 0 0 1 4 0 1 0 1
0 436 144 -154 0 0 1 4 0 1 0 1
0 439 147 -154 0 0 1 4 0 1 0 1
phys
0 453 127 -154 0 0 1 4 0 1 0 1
0 439 147 -154 0 0 1 4 0 1 0 1
0 453 147 -154 0 0 1 4 0 1 0 1
phys
0 453 127 -154 0 0 1 4 0 1 0 1
0 453 147 -154 0 0 1 4 0 1 0 1
0 456 144 -154 0 0 1 4 0 1 0 1
phys
0 453 127 -154 0 0 1 4 0 1 0 1
0 456 144 -154 0 0 1 4 0 1 0 1
0 456 130 -154 0 0 1 4 0 1 0 1
phys
0 439 127 -38 0 0 1 4 0 1 0 1
0 453 127 -38 0 0 1 4 0 1 0 1
0 456 130 -38 0 0 1 4 0 1 0 1
phys
0 439 127 -38 0 0 1 4 0 1 0 1
0 456 130 -38 0 0 1 4 0 1 0 1
0 456 144 -38 0 0 1 4 0 1 0 1
phys
0 439 127 -38 0 0 1 4 0 1 0 1
0 456 144 -38 0 0 1 4 0 1 0 1
0 453 147 -38 0 0 1 4 0 1 0 1
phys
0 439 127 -38 0 0 1 4 0 1 0 1
0 453 147 -38 0 0 1 4 0 1 0 1
0 439 147 -38 0 0 1 4 0 1 0 1
phys
0 439 127 -38 0 0 1 4 0 1 0 1
0 439 147 -38 0 0 1 4 0 1 0 1
0 436 144 -38 0 0 1 4 0 1 0 1
phys
0 439 127 -38 0 0 1 4 0 1 0 1
0 436 144 -38 0 0 1 4 0 1 0 1
0 436 130 -38 0 0 1 4 0 1 0 1
phys
0 456 144 -38 0 0 1 4 0 1 0 1
0 456 144 -154 0 0 1 4 0 1 0 1
0 453 147 -154 0 0 1 4 0 1 0 1
phys
0 456 144 -38 0 0 1 4 0 1 0 1
0 453 147 -154 0 0 1 4 0 1 0 1
0 453 147 -38 0 0 1 4 0 1 0 1
phys
0 436 144 -154 0 0 1 4 0 1 0 1
0 436 144 -38 0 0 1 4 0 1 0 1
0 439 147 -38 0 0 1 4 0 1 0 1
phys
0 436 144 -154 0 0 1 4 0 1 0 1
0 439 147 -38 0 0 1 4 0 1 0 1
0 439 147 -154 0 0 1 4 0 1 0 1
phys
0 453 127 -38 0 0 1 4 0 1 0 1
0 453 127 -154 0 0 1 4 0 1 0 1
0 456 130 -154 0 0 1 4 0 1 0 1
phys
0 453 127 -38 0 0 1 4 0 1 0 1
0 456 130 -154 0 0 1 4 0 1 0 1
0 456 130 -38 0 0 1 4 0 1 0 1
phys
0 439 127 -154 0 0 1 4 0 1 0 1
0 439 127 -38 0 0 1 4 0 1 0 1
0 436 130 -38 0 0 1 4 0 1 0 1
phys
0 439 127 -154 0 0 1 4 0 1 0 1
0 436 130 -38 0 0 1 4 0 1 0 1
0 436 130 -154 0 0 1 4 0 1 0 1
end
