version 1
nodes
0 "root" -1
end
skeleton
time 0
0 0 0 0 0 0 0
end
triangles
goldeneye_caverns_cavernsconcretefloor02
0 -189 -8 -6 -1 0 0 -4.226562 53.429688 1 0 1
0 -189 -8 6 -1 0 0 -4.070312 53.429688 1 0 1
0 -189 6 6 -1 0 0 -4.070312 53.611979 1 0 1
goldeneye_caverns_cavernsconcretefloor02
0 -189 -8 -6 -1 0 0 -4.226562 53.429688 1 0 1
0 -189 6 6 -1 0 0 -4.070312 53.611979 1 0 1
0 -189 8 4 -1 0 0 -4.096354 53.638021 1 0 1
goldeneye_caverns_cavernsconcretefloor02
0 -189 -8 -6 -1 0 0 -4.226562 53.429688 1 0 1
0 -189 8 4 -1 0 0 -4.096354 53.638021 1 0 1
0 -189 8 -6 -1 0 0 -4.226562 53.638021 1 0 1
goldeneye_caverns_cavernsconcretefloor02
0 189 -8 6 1 0 0 5.851562 53.429688 1 0 1
0 189 -8 -6 1 0 0 6.007812 53.429688 1 0 1
0 189 8 -6 1 0 0 6.007812 53.638021 1 0 1
goldeneye_caverns_cavernsconcretefloor02
0 189 -8 6 1 0 0 5.851562 53.429688 1 0 1
0 189 8 -6 1 0 0 6.007812 53.638021 1 0 1
0 189 8 4 1 0 0 5.877604 53.638021 1 0 1
goldeneye_caverns_cavernsconcretefloor02
0 189 -8 6 1 0 0 5.851562 53.429688 1 0 1
0 189 8 4 1 0 0 5.877604 53.638021 1 0 1
0 189 6 6 1 0 0 5.851562 53.611979 1 0 1
goldeneye_caverns_cavernsconcretefloor02
0 -189 -8 6 0 0 1 -148.070964 53.429688 1 0 1
0 189 -8 6 0 0 1 -143.149089 53.429688 1 0 1
0 189 6 6 0 0 1 -143.149089 53.611979 1 0 1
goldeneye_caverns_cavernsconcretefloor02
0 -189 -8 6 0 0 1 -148.070964 53.429688 1 0 1
0 189 6 6 0 0 1 -143.149089 53.611979 1 0 1
0 -189 6 6 0 0 1 -148.070964 53.611979 1 0 1
goldeneye_caverns_cavernsconcretefloor02
0 189 6 6 0 0.707107 0.707107 -143.149089 41.610777 1 0 1
0 189 8 4 0 0.707107 0.707107 -143.149089 41.647605 1 0 1
0 -189 8 4 0 0.707107 0.707107 -148.070964 41.647605 1 0 1
goldeneye_caverns_cavernsconcretefloor02
0 189 6 6 0 0.707107 0.707107 -143.149089 41.610777 1 0 1
0 -189 8 4 0 0.707107 0.707107 -148.070964 41.647605 1 0 1
0 -189 6 6 0 0.707107 0.707107 -148.070964 41.610777 1 0 1
goldeneye_caverns_cavernsconcretefloor02
0 189 8 4 0 1 0 -143.149089 6.647135 1 0 1
0 189 8 -6 0 1 0 -143.149089 6.777344 1 0 1
0 -189 8 -6 0 1 0 -148.070964 6.777344 1 0 1
goldeneye_caverns_cavernsconcretefloor02
0 189 8 4 0 1 0 -143.149089 6.647135 1 0 1
0 -189 8 -6 0 1 0 -148.070964 6.777344 1 0 1
0 -189 8 4 0 1 0 -148.070964 6.647135 1 0 1
de_dust_pwtrim1
0 202 147 -154 0 1 0 -492.555803 6.68471 1 0 1
0 188 147 -154 0 1 0 -493.180803 6.68471 1 0 1
0 188 147 -38 0 1 0 -493.180803 5.390067 1 0 1
de_dust_pwtrim1
0 202 147 -154 0 1 0 -492.555803 6.68471 1 0 1
0 188 147 -38 0 1 0 -493.180803 5.390067 1 0 1
0 202 147 -38 0 1 0 -492.555803 5.390067 1 0 1
de_dust_pwtrim1
0 202 127 -38 0 -1 0 492.180803 5.390067 1 0 1
0 188 127 -38 0 -1 0 492.805803 5.390067 1 0 1
0 188 127 -154 0 -1 0 492.805803 6.68471 1 0 1
de_dust_pwtrim1
0 202 127 -38 0 -1 0 492.180803 5.390067 1 0 1
0 188 127 -154 0 -1 0 492.805803 6.68471 1 0 1
0 202 127 -154 0 -1 0 492.180803 6.68471 1 0 1
de_dust_pwtrim1
0 185 130.01 -38 -1 0 0 188.002679 5.390067 1 0 1
0 185 144 -38 -1 0 0 188.627232 5.390067 1 0 1
0 185 144 -154 -1 0 0 188.627232 6.68471 1 0 1
de_dust_pwtrim1
0 185 130.01 -38 -1 0 0 188.002679 5.390067 1 0 1
0 185 144 -154 -1 0 0 188.627232 6.68471 1 0 1
0 185 130.01 -154 -1 0 0 188.002679 6.68471 1 0 1
de_dust_pwtrim1
0 205 130 -154 1 0 0 -187.736607 6.68471 1 0 1
0 205 144 -154 1 0 0 -188.361607 6.68471 1 0 1
0 205 144 -38 1 0 0 -188.361607 5.390067 1 0 1
de_dust_pwtrim1
0 205 130 -154 1 0 0 -187.736607 6.68471 1 0 1
0 205 144 -38 1 0 0 -188.361607 5.390067 1 0 1
0 205 130 -38 1 0 0 -187.736607 5.390067 1 0 1
de_dust_pwtrim1
0 205 144 -38 0.707107 0.707107 0 -481.372245 5.390067 1 0 1
0 205 144 -154 0.707107 0.707107 0 -481.372245 6.68471 1 0 1
0 202 147 -154 0.707107 0.707107 0 -481.561647 6.68471 1 0 1
de_dust_pwtrim1
0 205 144 -38 0.707107 0.707107 0 -481.372245 5.390067 1 0 1
0 202 147 -154 0.707107 0.707107 0 -481.561647 6.68471 1 0 1
0 202 147 -38 0.707107 0.707107 0 -481.561647 5.390067 1 0 1
de_dust_pwtrim1
0 185 144 -154 -0.707107 0.707107 0 -214.377593 6.68471 1 0 1
0 185 144 -38 -0.707107 0.707107 0 -214.377593 5.390067 1 0 1
0 188 147 -38 -0.707107 0.707107 0 -214.188192 5.390067 1 0 1
de_dust_pwtrim1
0 185 144 -154 -0.707107 0.707107 0 -214.377593 6.68471 1 0 1
0 188 147 -38 -0.707107 0.707107 0 -214.188192 5.390067 1 0 1
0 188 147 -154 -0.707107 0.707107 0 -214.188192 6.68471 1 0 1
de_dust_pwtrim1
0 202 127 -38 0.707107 -0.707107 0 214.190093 5.390067 1 0 1
0 202 127 -154 0.707107 -0.707107 0 214.190093 6.68471 1 0 1
0 205 130 -154 0.707107 -0.707107 0 214.000692 6.68471 1 0 1
de_dust_pwtrim1
0 202 127 -38 0.707107 -0.707107 0 214.190093 5.390067 1 0 1
0 205 130 -154 0.707107 -0.707107 0 214.000692 6.68471 1 0 1
0 205 130 -38 0.707107 -0.707107 0 214.000692 5.390067 1 0 1
de_dust_pwtrim1
0 188 127 -154 -0.708282 -0.705929 0 481.809745 6.68471 1 0 1
0 188 127 -38 -0.708282 -0.705929 0 481.809745 5.390067 1 0 1
0 185 130.01 -38 -0.708282 -0.705929 0 481.999463 5.390067 1 0 1
de_dust_pwtrim1
0 188 127 -154 -0.708282 -0.705929 0 481.809745 6.68471 1 0 1
0 185 130.01 -38 -0.708282 -0.705929 0 481.999463 5.390067 1 0 1
0 185 130.01 -154 -0.708282 -0.705929 0 481.999463 6.68471 1 0 1
de_dust_pwtrim1
0 466 147 -18 1 0 0 18.261161 47.635603 1 0 1
0 466 157 -18 1 0 0 18.261161 47.74721 1 0 1
0 466 157 -6 1 0 0 17.725446 47.74721 1 0 1
de_dust_pwtrim1
0 466 147 -18 1 0 0 18.261161 47.635603 1 0 1
0 466 157 -6 1 0 0 17.725446 47.74721 1 0 1
0 466 147 -6 1 0 0 17.725446 47.635603 1 0 1
de_dust_pwtrim1
0 175 157 -18 0 0 -1 -189.723214 -121.838728 1 0 1
0 466 157 -18 0 0 -1 -189.723214 -118.59096 1 0 1
0 466 147 -18 0 0 -1 -189.276786 -118.59096 1 0 1
de_dust_pwtrim1
0 175 157 -18 0 0 -1 -189.723214 -121.838728 1 0 1
0 466 147 -18 0 0 -1 -189.276786 -118.59096 1 0 1
0 175 147 -18 0 0 -1 -189.276786 -121.838728 1 0 1
de_dust_pwtrim1
0 175 147 -6 0 0 1 -189.276786 -121.838728 1 0 1
0 466 147 -6 0 0 1 -189.276786 -118.59096 1 0 1
0 466 157 -6 0 0 1 -189.723214 -118.59096 1 0 1
de_dust_pwtrim1
0 175 147 -6 0 0 1 -189.276786 -121.838728 1 0 1
0 466 157 -6 0 0 1 -189.723214 -118.59096 1 0 1
0 175 157 -6 0 0 1 -189.723214 -121.838728 1 0 1
pepsi2_arch_woodf3
0 466 147 -18 0 -1 0 -84.148438 -2.1875 1 0 1
0 466 147 -6 0 -1 0 -84.148438 -2.09375 1 0 1
0 175 147 -6 0 -1 0 -86.421875 -2.09375 1 0 1
pepsi2_arch_woodf3
0 466 147 -18 0 -1 0 -84.148438 -2.1875 1 0 1
0 175 147 -6 0 -1 0 -86.421875 -2.09375 1 0 1
0 175 147 -18 0 -1 0 -86.421875 -2.1875 1 0 1
de_dust_pwtrim1
0 175 147 -6 -1 0 0 17.725446 -46.116071 1 0 1
0 175 157 -6 -1 0 0 17.725446 -46.227679 1 0 1
0 175 157 -18 -1 0 0 18.261161 -46.227679 1 0 1
de_dust_pwtrim1
0 175 147 -6 -1 0 0 17.725446 -46.116071 1 0 1
0 175 157 -18 -1 0 0 18.261161 -46.227679 1 0 1
0 175 147 -18 -1 0 0 18.261161 -46.116071 1 0 1
de_dust_pwtrim1
0 453 147 -154 0 1 0 480.819196 6.68471 1 0 1
0 439 147 -154 0 1 0 481.444196 6.68471 1 0 1
0 439 147 -38 0 1 0 481.444196 5.390067 1 0 1
de_dust_pwtrim1
0 453 147 -154 0 1 0 480.819196 6.68471 1 0 1
0 439 147 -38 0 1 0 481.444196 5.390067 1 0 1
0 453 147 -38 0 1 0 480.819196 5.390067 1 0 1
de_dust_pwtrim1
0 453 127 -38 0 -1 0 -481.194196 5.390067 1 0 1
0 439 127 -38 0 -1 0 -481.819196 5.390067 1 0 1
0 439 127 -154 0 -1 0 -481.819196 6.68471 1 0 1
de_dust_pwtrim1
0 453 127 -38 0 -1 0 -481.194196 5.390067 1 0 1
0 439 127 -154 0 -1 0 -481.819196 6.68471 1 0 1
0 453 127 -154 0 -1 0 -481.194196 6.68471 1 0 1
de_dust_pwtrim1
0 436 130 -38 -1 0 0 -187.736607 5.390067 1 0 1
0 436 144 -38 -1 0 0 -188.361607 5.390067 1 0 1
0 436 144 -154 -1 0 0 -188.361607 6.68471 1 0 1
de_dust_pwtrim1
0 436 130 -38 -1 0 0 -187.736607 5.390067 1 0 1
0 436 144 -154 -1 0 0 -188.361607 6.68471 1 0 1
0 436 130 -154 -1 0 0 -187.736607 6.68471 1 0 1
de_dust_pwtrim1
0 456 130 -154 1 0 0 188.002232 6.68471 1 0 1
0 456 144 -154 1 0 0 188.627232 6.68471 1 0 1
0 456 144 -38 1 0 0 188.627232 5.390067 1 0 1
de_dust_pwtrim1
0 456 130 -154 1 0 0 188.002232 6.68471 1 0 1
0 456 144 -38 1 0 0 188.627232 5.390067 1 0 1
0 456 130 -38 1 0 0 188.002232 5.390067 1 0 1
de_dust_pwtrim1
0 456 144 -38 0.707107 0.707107 0 473.620812 5.390067 1 0 1
0 456 144 -154 0.707107 0.707107 0 473.620812 6.68471 1 0 1
0 453 147 -154 0.707107 0.707107 0 473.810214 6.68471 1 0 1
de_dust_pwtrim1
0 456 144 -38 0.707107 0.707107 0 473.620812 5.390067 1 0 1
0 453 147 -154 0.707107 0.707107 0 473.810214 6.68471 1 0 1
0 453 147 -38 0.707107 0.707107 0 473.810214 5.390067 1 0 1
de_dust_pwtrim1
0 436 144 -154 -0.707107 0.707107 0 206.62616 6.68471 1 0 1
0 436 144 -38 -0.707107 0.707107 0 206.62616 5.390067 1 0 1
0 439 147 -38 -0.707107 0.707107 0 206.436758 5.390067 1 0 1
de_dust_pwtrim1
0 436 144 -154 -0.707107 0.707107 0 206.62616 6.68471 1 0 1
0 439 147 -38 -0.707107 0.707107 0 206.436758 5.390067 1 0 1
0 439 147 -154 -0.707107 0.707107 0 206.436758 6.68471 1 0 1
de_dust_pwtrim1
0 453 127 -38 0.707107 -0.707107 0 -206.18866 5.390067 1 0 1
0 453 127 -154 0.707107 -0.707107 0 -206.18866 6.68471 1 0 1
0 456 130 -154 0.707107 -0.707107 0 -205.999258 6.68471 1 0 1
de_dust_pwtrim1
0 453 127 -38 0.707107 -0.707107 0 -206.18866 5.390067 1 0 1
0 456 130 -154 0.707107 -0.707107 0 -205.999258 6.68471 1 0 1
0 456 130 -38 0.707107 -0.707107 0 -205.999258 5.390067 1 0 1
de_dust_pwtrim1
0 439 127 -154 -0.707107 -0.707107 0 -473.542687 6.68471 1 0 1
0 439 127 -38 -0.707107 -0.707107 0 -473.542687 5.390067 1 0 1
0 436 130 -38 -0.707107 -0.707107 0 -473.732089 5.390067 1 0 1
de_dust_pwtrim1
0 439 127 -154 -0.707107 -0.707107 0 -473.542687 6.68471 1 0 1
0 436 130 -38 -0.707107 -0.707107 0 -473.732089 5.390067 1 0 1
0 436 130 -154 -0.707107 -0.707107 0 -473.732089 6.68471 1 0 1
end
