version 1
nodes
0 "root" -1
end
skeleton
time 0
0 0 0 0 0 0 0
end
triangles
phys
0 -149 139 108 0 0 1 1 0 1 0 1
0 -179 139 108 0 0 1 1 0 1 0 1
0 -179 139 112 0 0 1 1 0 1 0 1
phys
0 -149 139 108 0 0 1 1 0 1 0 1
0 -179 139 112 0 0 1 1 0 1 0 1
0 -145 139 112 0 0 1 1 0 1 0 1
phys
0 -145 127 112 0 0 1 1 0 1 0 1
0 -179 127 112 0 0 1 1 0 1 0 1
0 -179 127 108 0 0 1 1 0 1 0 1
phys
0 -145 127 112 0 0 1 1 0 1 0 1
0 -179 127 108 0 0 1 1 0 1 0 1
0 -149 127 108 0 0 1 1 0 1 0 1
phys
0 -179 127 108 0 0 1 1 0 1 0 1
0 -179 127 112 0 0 1 1 0 1 0 1
0 -179 139 112 0 0 1 1 0 1 0 1
phys
0 -179 127 108 0 0 1 1 0 1 0 1
0 -179 139 112 0 0 1 1 0 1 0 1
0 -179 139 108 0 0 1 1 0 1 0 1
phys
0 -149 127 108 0 0 1 1 0 1 0 1
0 -179 127 108 0 0 1 1 0 1 0 1
0 -179 139 108 0 0 1 1 0 1 0 1
phys
0 -149 127 108 0 0 1 1 0 1 0 1
0 -179 139 108 0 0 1 1 0 1 0 1
0 -149 139 108 0 0 1 1 0 1 0 1
phys
0 -179 127 112 0 0 1 1 0 1 0 1
0 -145 127 112 0 0 1 1 0 1 0 1
0 -145 139 112 0 0 1 1 0 1 0 1
phys
0 -179 127 112 0 0 1 1 0 1 0 1
0 -145 139 112 0 0 1 1 0 1 0 1
0 -179 139 112 0 0 1 1 0 1 0 1
phys
0 -145 127 112 0 0 1 1 0 1 0 1
0 -149 127 108 0 0 1 1 0 1 0 1
0 -149 139 108 0 0 1 1 0 1 0 1
phys
0 -145 127 112 0 0 1 1 0 1 0 1
0 -149 139 108 0 0 1 1 0 1 0 1
0 -145 139 112 0 0 1 1 0 1 0 1
phys
0 202 59 96 0 0 1 2 0 1 0 1
0 202 59 80 0 0 1 2 0 1 0 1
0 107 59 80 0 0 1 2 0 1 0 1
phys
0 202 59 96 0 0 1 2 0 1 0 1
0 107 59 80 0 0 1 2 0 1 0 1
0 107 59 96 0 0 1 2 0 1 0 1
phys
0 107 43 96 0 0 1 2 0 1 0 1
0 107 59 96 0 0 1 2 0 1 0 1
0 107 59 80 0 0 1 2 0 1 0 1
phys
0 202 59 80 0 0 1 2 0 1 0 1
0 202 59 96 0 0 1 2 0 1 0 1
0 202 43 96 0 0 1 2 0 1 0 1
phys
0 202 43 96 0 0 1 2 0 1 0 1
0 202 59 96 0 0 1 2 0 1 0 1
0 107 59 96 0 0 1 2 0 1 0 1
phys
0 202 43 96 0 0 1 2 0 1 0 1
0 107 59 96 0 0 1 2 0 1 0 1
0 107 43 96 0 0 1 2 0 1 0 1
phys
0 107 43 96 0 0 1 2 0 1 0 1
0 107 59 80 0 0 1 2 0 1 0 1
0 202 59 80 0 0 1 2 0 1 0 1
phys
0 107 43 96 0 0 1 2 0 1 0 1
0 202 59 80 0 0 1 2 0 1 0 1
0 202 43 96 0 0 1 2 0 1 0 1
phys
0 107 145 43 0 0 1 3 0 1 0 1
0 107 145 0 0 0 1 3 0 1 0 1
0 101 145 0 0 0 1 3 0 1 0 1
phys
0 107 145 43 0 0 1 3 0 1 0 1
0 101 145 0 0 0 1 3 0 1 0 1
0 101 145 43 0 0 1 3 0 1 0 1
phys
0 107 139 0 0 0 1 3 0 1 0 1
0 107 139 43 0 0 1 3 0 1 0 1
0 101 139 43 0 0 1 3 0 1 0 1
phys
0 107 139 0 0 0 1 3 0 1 0 1
0 101 139 43 0 0 1 3 0 1 0 1
0 101 139 0 0 0 1 3 0 1 0 1
phys
0 101 139 0 0 0 1 3 0 1 0 1
0 101 139 43 0 0 1 3 0 1 0 1
0 101 145 43 0 0 1 3 0 1 0 1
phys
0 101 139 0 0 0 1 3 0 1 0 1
0 101 145 43 0 0 1 3 0 1 0 1
0 101 145 0 0 0 1 3 0 1 0 1
phys
0 107 139 43 0 0 1 3 0 1 0 1
0 107 139 0 0 0 1 3 0 1 0 1
0 107 145 0 0 0 1 3 0 1 0 1
phys
0 107 139 43 0 0 1 3 0 1 0 1
0 107 145 0 0 0 1 3 0 1 0 1
0 107 145 43 0 0 1 3 0 1 0 1
phys
0 107 139 0 0 0 1 3 0 1 0 1
0 101 139 0 0 0 1 3 0 1 0 1
0 101 145 0 0 0 1 3 0 1 0 1
phys
0 107 139 0 0 0 1 3 0 1 0 1
0 101 145 0 0 0 1 3 0 1 0 1
0 107 145 0 0 0 1 3 0 1 0 1
phys
0 101 139 43 0 0 1 3 0 1 0 1
0 107 139 43 0 0 1 3 0 1 0 1
0 107 145 43 0 0 1 3 0 1 0 1
phys
0 101 139 43 0 0 1 3 0 1 0 1
0 107 145 43 0 0 1 3 0 1 0 1
0 101 145 43 0 0 1 3 0 1 0 1
phys
0 -164 -95 40 0 0 1 4 0 1 0 1
0 -164 -95 0 0 0 1 4 0 1 0 1
0 -196 -95 0 0 0 1 4 0 1 0 1
phys
0 -164 -95 40 0 0 1 4 0 1 0 1
0 -196 -95 0 0 0 1 4 0 1 0 1
0 -196 -95 40 0 0 1 4 0 1 0 1
phys
0 -164 -154 0 0 0 1 4 0 1 0 1
0 -164 -154 40 0 0 1 4 0 1 0 1
0 -196 -154 40 0 0 1 4 0 1 0 1
phys
0 -164 -154 0 0 0 1 4 0 1 0 1
0 -196 -154 40 0 0 1 4 0 1 0 1
0 -196 -154 0 0 0 1 4 0 1 0 1
phys
0 -196 -154 0 0 0 1 4 0 1 0 1
0 -196 -154 40 0 0 1 4 0 1 0 1
0 -196 -95 40 0 0 1 4 0 1 0 1
phys
0 -196 -154 0 0 0 1 4 0 1 0 1
0 -196 -95 40 0 0 1 4 0 1 0 1
0 -196 -95 0 0 0 1 4 0 1 0 1
phys
0 -164 -154 40 0 0 1 4 0 1 0 1
0 -164 -154 0 0 0 1 4 0 1 0 1
0 -164 -95 0 0 0 1 4 0 1 0 1
phys
0 -164 -154 40 0 0 1 4 0 1 0 1
0 -164 -95 0 0 0 1 4 0 1 0 1
0 -164 -95 40 0 0 1 4 0 1 0 1
phys
0 -164 -154 0 0 0 1 4 0 1 0 1
0 -196 -154 0 0 0 1 4 0 1 0 1
0 -196 -95 0 0 0 1 4 0 1 0 1
phys
0 -164 -154 0 0 0 1 4 0 1 0 1
0 -196 -95 0 0 0 1 4 0 1 0 1
0 -164 -95 0 0 0 1 4 0 1 0 1
phys
0 -196 -154 40 0 0 1 4 0 1 0 1
0 -164 -154 40 0 0 1 4 0 1 0 1
0 -164 -95 40 0 0 1 4 0 1 0 1
phys
0 -196 -154 40 0 0 1 4 0 1 0 1
0 -164 -95 40 0 0 1 4 0 1 0 1
0 -196 -95 40 0 0 1 4 0 1 0 1
phys
0 202 43 112 0 0 1 5 0 1 0 1
0 202 43 96 0 0 1 5 0 1 0 1
0 107 43 96 0 0 1 5 0 1 0 1
phys
0 202 43 112 0 0 1 5 0 1 0 1
0 107 43 96 0 0 1 5 0 1 0 1
0 107 43 112 0 0 1 5 0 1 0 1
phys
0 107 27 112 0 0 1 5 0 1 0 1
0 107 43 112 0 0 1 5 0 1 0 1
0 107 43 96 0 0 1 5 0 1 0 1
phys
0 202 43 96 0 0 1 5 0 1 0 1
0 202 43 112 0 0 1 5 0 1 0 1
0 202 27 112 0 0 1 5 0 1 0 1
phys
0 202 27 112 0 0 1 5 0 1 0 1
0 202 43 112 0 0 1 5 0 1 0 1
0 107 43 112 0 0 1 5 0 1 0 1
phys
0 202 27 112 0 0 1 5 0 1 0 1
0 107 43 112 0 0 1 5 0 1 0 1
0 107 27 112 0 0 1 5 0 1 0 1
phys
0 107 27 112 0 0 1 5 0 1 0 1
0 107 43 96 0 0 1 5 0 1 0 1
0 202 43 96 0 0 1 5 0 1 0 1
phys
0 107 27 112 0 0 1 5 0 1 0 1
0 202 43 96 0 0 1 5 0 1 0 1
0 202 27 112 0 0 1 5 0 1 0 1
phys
0 -159 142 154 0 0 1 6 0 1 0 1
0 -159 142 119 0 0 1 6 0 1 0 1
0 -199 142 119 0 0 1 6 0 1 0 1
phys
0 -159 142 154 0 0 1 6 0 1 0 1
0 -199 142 119 0 0 1 6 0 1 0 1
0 -199 142 154 0 0 1 6 0 1 0 1
phys
0 -159 139 119 0 0 1 6 0 1 0 1
0 -159 139 154 0 0 1 6 0 1 0 1
0 -199 139 154 0 0 1 6 0 1 0 1
phys
0 -159 139 119 0 0 1 6 0 1 0 1
0 -199 139 154 0 0 1 6 0 1 0 1
0 -199 139 119 0 0 1 6 0 1 0 1
phys
0 -199 139 119 0 0 1 6 0 1 0 1
0 -199 139 154 0 0 1 6 0 1 0 1
0 -199 142 154 0 0 1 6 0 1 0 1
phys
0 -199 139 119 0 0 1 6 0 1 0 1
0 -199 142 154 0 0 1 6 0 1 0 1
0 -199 142 119 0 0 1 6 0 1 0 1
phys
0 -159 139 154 0 0 1 6 0 1 0 1
0 -159 139 119 0 0 1 6 0 1 0 1
0 -159 142 119 0 0 1 6 0 1 0 1
phys
0 -159 139 154 0 0 1 6 0 1 0 1
0 -159 142 119 0 0 1 6 0 1 0 1
0 -159 142 154 0 0 1 6 0 1 0 1
phys
0 -159 139 119 0 0 1 6 0 1 0 1
0 -199 139 119 0 0 1 6 0 1 0 1
0 -199 142 119 0 0 1 6 0 1 0 1
phys
0 -159 139 119 0 0 1 6 0 1 0 1
0 -199 142 119 0 0 1 6 0 1 0 1
0 -159 142 119 0 0 1 6 0 1 0 1
phys
0 -199 139 154 0 0 1 6 0 1 0 1
0 -159 139 154 0 0 1 6 0 1 0 1
0 -159 142 154 0 0 1 6 0 1 0 1
phys
0 -199 139 154 0 0 1 6 0 1 0 1
0 -159 142 154 0 0 1 6 0 1 0 1
0 -199 142 154 0 0 1 6 0 1 0 1
phys
0 107 27 112 0 0 1 7 0 1 0 1
0 107 11 128 0 0 1 7 0 1 0 1
0 107 27 128 0 0 1 7 0 1 0 1
phys
0 202 27 128 0 0 1 7 0 1 0 1
0 202 11 128 0 0 1 7 0 1 0 1
0 202 27 112 0 0 1 7 0 1 0 1
phys
0 202 11 128 0 0 1 7 0 1 0 1
0 202 27 128 0 0 1 7 0 1 0 1
0 107 27 128 0 0 1 7 0 1 0 1
phys
0 202 11 128 0 0 1 7 0 1 0 1
0 107 27 128 0 0 1 7 0 1 0 1
0 107 11 128 0 0 1 7 0 1 0 1
phys
0 107 11 128 0 0 1 7 0 1 0 1
0 107 27 112 0 0 1 7 0 1 0 1
0 202 27 112 0 0 1 7 0 1 0 1
phys
0 107 11 128 0 0 1 7 0 1 0 1
0 202 27 112 0 0 1 7 0 1 0 1
0 202 11 128 0 0 1 7 0 1 0 1
phys
0 202 27 128 0 0 1 7 0 1 0 1
0 202 27 112 0 0 1 7 0 1 0 1
0 107 27 112 0 0 1 7 0 1 0 1
phys
0 202 27 128 0 0 1 7 0 1 0 1
0 107 27 112 0 0 1 7 0 1 0 1
0 107 27 128 0 0 1 7 0 1 0 1
phys
0 -179 139 112 0 0 1 8 0 1 0 1
0 -179 139 108 0 0 1 8 0 1 0 1
0 -209 139 108 0 0 1 8 0 1 0 1
phys
0 -179 139 112 0 0 1 8 0 1 0 1
0 -209 139 108 0 0 1 8 0 1 0 1
0 -213 139 112 0 0 1 8 0 1 0 1
phys
0 -179 127 108 0 0 1 8 0 1 0 1
0 -179 127 112 0 0 1 8 0 1 0 1
0 -213 127 112 0 0 1 8 0 1 0 1
phys
0 -179 127 108 0 0 1 8 0 1 0 1
0 -213 127 112 0 0 1 8 0 1 0 1
0 -209 127 108 0 0 1 8 0 1 0 1
phys
0 -179 127 112 0 0 1 8 0 1 0 1
0 -179 127 108 0 0 1 8 0 1 0 1
0 -179 139 108 0 0 1 8 0 1 0 1
phys
0 -179 127 112 0 0 1 8 0 1 0 1
0 -179 139 108 0 0 1 8 0 1 0 1
0 -179 139 112 0 0 1 8 0 1 0 1
phys
0 -179 127 108 0 0 1 8 0 1 0 1
0 -209 127 108 0 0 1 8 0 1 0 1
0 -209 139 108 0 0 1 8 0 1 0 1
phys
0 -179 127 108 0 0 1 8 0 1 0 1
0 -209 139 108 0 0 1 8 0 1 0 1
0 -179 139 108 0 0 1 8 0 1 0 1
phys
0 -213 127 112 0 0 1 8 0 1 0 1
0 -179 127 112 0 0 1 8 0 1 0 1
0 -179 139 112 0 0 1 8 0 1 0 1
phys
0 -213 127 112 0 0 1 8 0 1 0 1
0 -179 139 112 0 0 1 8 0 1 0 1
0 -213 139 112 0 0 1 8 0 1 0 1
phys
0 -209 127 108 0 0 1 8 0 1 0 1
0 -213 127 112 0 0 1 8 0 1 0 1
0 -213 139 112 0 0 1 8 0 1 0 1
phys
0 -209 127 108 0 0 1 8 0 1 0 1
0 -213 139 112 0 0 1 8 0 1 0 1
0 -209 139 108 0 0 1 8 0 1 0 1
phys
0 101 331 11 0 0 1 9 0 1 0 1
0 101 331 0 0 0 1 9 0 1 0 1
0 -79 331 0 0 0 1 9 0 1 0 1
phys
0 101 331 11 0 0 1 9 0 1 0 1
0 -79 331 0 0 0 1 9 0 1 0 1
0 -79 331 11 0 0 1 9 0 1 0 1
phys
0 101 325 0 0 0 1 9 0 1 0 1
0 101 325 11 0 0 1 9 0 1 0 1
0 -79 325 11 0 0 1 9 0 1 0 1
phys
0 101 325 0 0 0 1 9 0 1 0 1
0 -79 325 11 0 0 1 9 0 1 0 1
0 -79 325 0 0 0 1 9 0 1 0 1
phys
0 -79 325 0 0 0 1 9 0 1 0 1
0 -79 325 11 0 0 1 9 0 1 0 1
0 -79 331 11 0 0 1 9 0 1 0 1
phys
0 -79 325 0 0 0 1 9 0 1 0 1
0 -79 331 11 0 0 1 9 0 1 0 1
0 -79 331 0 0 0 1 9 0 1 0 1
phys
0 101 325 11 0 0 1 9 0 1 0 1
0 101 325 0 0 0 1 9 0 1 0 1
0 101 331 0 0 0 1 9 0 1 0 1
phys
0 101 325 11 0 0 1 9 0 1 0 1
0 101 331 0 0 0 1 9 0 1 0 1
0 101 331 11 0 0 1 9 0 1 0 1
phys
0 101 325 0 0 0 1 9 0 1 0 1
0 -79 325 0 0 0 1 9 0 1 0 1
0 -79 331 0 0 0 1 9 0 1 0 1
phys
0 101 325 0 0 0 1 9 0 1 0 1
0 -79 331 0 0 0 1 9 0 1 0 1
0 101 331 0 0 0 1 9 0 1 0 1
phys
0 -79 325 11 0 0 1 9 0 1 0 1
0 101 325 11 0 0 1 9 0 1 0 1
0 101 331 11 0 0 1 9 0 1 0 1
phys
0 -79 325 11 0 0 1 9 0 1 0 1
0 101 331 11 0 0 1 9 0 1 0 1
0 -79 331 11 0 0 1 9 0 1 0 1
phys
0 -159 -95 45 0 0 1 10 0 1 0 1
0 -159 -95 43.002 0 0 1 10 0 1 0 1
0 -161 -95 40 0 0 1 10 0 1 0 1
phys
0 -159 -95 45 0 0 1 10 0 1 0 1
0 -161 -95 40 0 0 1 10 0 1 0 1
0 -196 -95 40 0 0 1 10 0 1 0 1
phys
0 -159 -95 45 0 0 1 10 0 1 0 1
0 -196 -95 40 0 0 1 10 0 1 0 1
0 -196 -95 45 0 0 1 10 0 1 0 1
phys
0 -159 -159 43.002 0 0 1 10 0 1 0 1
0 -159 -159 45 0 0 1 10 0 1 0 1
0 -196 -159 45 0 0 1 10 0 1 0 1
phys
0 -159 -159 43.002 0 0 1 10 0 1 0 1
0 -196 -159 45 0 0 1 10 0 1 0 1
0 -196 -159 43 0 0 1 10 0 1 0 1
phys
0 -159 -159 43.002 0 0 1 10 0 1 0 1
0 -196 -159 43 0 0 1 10 0 1 0 1
0 -159.001332 -159 43 0 0 1 10 0 1 0 1
phys
0 -196 -159 43 0 0 1 10 0 1 0 1
0 -196 -159 45 0 0 1 10 0 1 0 1
0 -196 -95 45 0 0 1 10 0 1 0 1
phys
0 -196 -159 43 0 0 1 10 0 1 0 1
0 -196 -95 45 0 0 1 10 0 1 0 1
0 -196 -95 40 0 0 1 10 0 1 0 1
phys
0 -196 -159 43 0 0 1 10 0 1 0 1
0 -196 -95 40 0 0 1 10 0 1 0 1
0 -196 -157 40 0 0 1 10 0 1 0 1
phys
0 -159 -159 45 0 0 1 10 0 1 0 1
0 -159 -159 43.002 0 0 1 10 0 1 0 1
0 -159 -95 43.002 0 0 1 10 0 1 0 1
phys
0 -159 -159 45 0 0 1 10 0 1 0 1
0 -159 -95 43.002 0 0 1 10 0 1 0 1
0 -159 -95 45 0 0 1 10 0 1 0 1
phys
0 -196 -157 40 0 0 1 10 0 1 0 1
0 -196 -95 40 0 0 1 10 0 1 0 1
0 -161 -95 40 0 0 1 10 0 1 0 1
phys
0 -196 -157 40 0 0 1 10 0 1 0 1
0 -161 -95 40 0 0 1 10 0 1 0 1
0 -161 -157 40 0 0 1 10 0 1 0 1
phys
0 -196 -159 45 0 0 1 10 0 1 0 1
0 -159 -159 45 0 0 1 10 0 1 0 1
0 -159 -95 45 0 0 1 10 0 1 0 1
phys
0 -196 -159 45 0 0 1 10 0 1 0 1
0 -159 -95 45 0 0 1 10 0 1 0 1
0 -196 -95 45 0 0 1 10 0 1 0 1
phys
0 -159 -159 43.002 0 0 1 10 0 1 0 1
0 -159.001332 -159 43 0 0 1 10 0 1 0 1
0 -161 -157 40 0 0 1 10 0 1 0 1
phys
0 -159 -159 43.002 0 0 1 10 0 1 0 1
0 -161 -157 40 0 0 1 10 0 1 0 1
0 -161 -95 40 0 0 1 10 0 1 0 1
phys
0 -159 -159 43.002 0 0 1 10 0 1 0 1
0 -161 -95 40 0 0 1 10 0 1 0 1
0 -159 -95 43.002 0 0 1 10 0 1 0 1
phys
0 -159.001332 -159 43 0 0 1 10 0 1 0 1
0 -196 -159 43 0 0 1 10 0 1 0 1
0 -196 -157 40 0 0 1 10 0 1 0 1
phys
0 -159.001332 -159 43 0 0 1 10 0 1 0 1
0 -196 -157 40 0 0 1 10 0 1 0 1
0 -161 -157 40 0 0 1 10 0 1 0 1
phys
0 105 325 43 0 0 1 11 0 1 0 1
0 105 325 11 0 0 1 11 0 1 0 1
0 103 325 11 0 0 1 11 0 1 0 1
phys
0 105 325 43 0 0 1 11 0 1 0 1
0 103 325 11 0 0 1 11 0 1 0 1
0 103 325 43 0 0 1 11 0 1 0 1
phys
0 105 145 11 0 0 1 11 0 1 0 1
0 105 145 43 0 0 1 11 0 1 0 1
0 103 145 43 0 0 1 11 0 1 0 1
phys
0 105 145 11 0 0 1 11 0 1 0 1
0 103 145 43 0 0 1 11 0 1 0 1
0 103 145 11 0 0 1 11 0 1 0 1
phys
0 103 145 11 0 0 1 11 0 1 0 1
0 103 145 43 0 0 1 11 0 1 0 1
0 103 325 43 0 0 1 11 0 1 0 1
phys
0 103 145 11 0 0 1 11 0 1 0 1
0 103 325 43 0 0 1 11 0 1 0 1
0 103 325 11 0 0 1 11 0 1 0 1
phys
0 105 145 43 0 0 1 11 0 1 0 1
0 105 145 11 0 0 1 11 0 1 0 1
0 105 325 11 0 0 1 11 0 1 0 1
phys
0 105 145 43 0 0 1 11 0 1 0 1
0 105 325 11 0 0 1 11 0 1 0 1
0 105 325 43 0 0 1 11 0 1 0 1
phys
0 105 145 11 0 0 1 11 0 1 0 1
0 103 145 11 0 0 1 11 0 1 0 1
0 103 325 11 0 0 1 11 0 1 0 1
phys
0 105 145 11 0 0 1 11 0 1 0 1
0 103 325 11 0 0 1 11 0 1 0 1
0 105 325 11 0 0 1 11 0 1 0 1
phys
0 103 145 43 0 0 1 11 0 1 0 1
0 105 145 43 0 0 1 11 0 1 0 1
0 105 325 43 0 0 1 11 0 1 0 1
phys
0 103 145 43 0 0 1 11 0 1 0 1
0 105 325 43 0 0 1 11 0 1 0 1
0 103 325 43 0 0 1 11 0 1 0 1
phys
0 202 123 32 0 0 1 12 0 1 0 1
0 202 123 16 0 0 1 12 0 1 0 1
0 107 123 16 0 0 1 12 0 1 0 1
phys
0 202 123 32 0 0 1 12 0 1 0 1
0 107 123 16 0 0 1 12 0 1 0 1
0 107 123 32 0 0 1 12 0 1 0 1
phys
0 107 107 32 0 0 1 12 0 1 0 1
0 107 123 32 0 0 1 12 0 1 0 1
0 107 123 16 0 0 1 12 0 1 0 1
phys
0 202 123 16 0 0 1 12 0 1 0 1
0 202 123 32 0 0 1 12 0 1 0 1
0 202 107 32 0 0 1 12 0 1 0 1
phys
0 202 107 32 0 0 1 12 0 1 0 1
0 202 123 32 0 0 1 12 0 1 0 1
0 107 123 32 0 0 1 12 0 1 0 1
phys
0 202 107 32 0 0 1 12 0 1 0 1
0 107 123 32 0 0 1 12 0 1 0 1
0 107 107 32 0 0 1 12 0 1 0 1
phys
0 107 107 32 0 0 1 12 0 1 0 1
0 107 123 16 0 0 1 12 0 1 0 1
0 202 123 16 0 0 1 12 0 1 0 1
phys
0 107 107 32 0 0 1 12 0 1 0 1
0 202 123 16 0 0 1 12 0 1 0 1
0 202 107 32 0 0 1 12 0 1 0 1
phys
0 -149 127 108.003 0 0 1 13 0 1 0 1
0 -145 127 112.003 0 0 1 13 0 1 0 1
0 -145 139 112.003 0 0 1 13 0 1 0 1
phys
0 -149 127 108.003 0 0 1 13 0 1 0 1
0 -145 139 112.003 0 0 1 13 0 1 0 1
0 -149 139 108.003 0 0 1 13 0 1 0 1
phys
0 -149 139 0 0 0 1 13 0 1 0 1
0 -149 139 108.003 0 0 1 13 0 1 0 1
0 -145 139 112.003 0 0 1 13 0 1 0 1
phys
0 -149 139 0 0 0 1 13 0 1 0 1
0 -145 139 112.003 0 0 1 13 0 1 0 1
0 -145 139 0 0 0 1 13 0 1 0 1
phys
0 -145 127 0 0 0 1 13 0 1 0 1
0 -145 127 112.003 0 0 1 13 0 1 0 1
0 -149 127 108.003 0 0 1 13 0 1 0 1
phys
0 -145 127 0 0 0 1 13 0 1 0 1
0 -149 127 108.003 0 0 1 13 0 1 0 1
0 -149 127 0 0 0 1 13 0 1 0 1
phys
0 -149 127 0 0 0 1 13 0 1 0 1
0 -149 127 108.003 0 0 1 13 0 1 0 1
0 -149 139 108.003 0 0 1 13 0 1 0 1
phys
0 -149 127 0 0 0 1 13 0 1 0 1
0 -149 139 108.003 0 0 1 13 0 1 0 1
0 -149 139 0 0 0 1 13 0 1 0 1
phys
0 -145 139 0 0 0 1 13 0 1 0 1
0 -145 139 112.003 0 0 1 13 0 1 0 1
0 -145 127 112.003 0 0 1 13 0 1 0 1
phys
0 -145 139 0 0 0 1 13 0 1 0 1
0 -145 127 112.003 0 0 1 13 0 1 0 1
0 -145 127 0 0 0 1 13 0 1 0 1
phys
0 -145 127 0 0 0 1 13 0 1 0 1
0 -149 127 0 0 0 1 13 0 1 0 1
0 -149 139 0 0 0 1 13 0 1 0 1
phys
0 -145 127 0 0 0 1 13 0 1 0 1
0 -149 139 0 0 0 1 13 0 1 0 1
0 -145 139 0 0 0 1 13 0 1 0 1
phys
0 202 91 64 0 0 1 14 0 1 0 1
0 202 91 48 0 0 1 14 0 1 0 1
0 107 91 48 0 0 1 14 0 1 0 1
phys
0 202 91 64 0 0 1 14 0 1 0 1
0 107 91 48 0 0 1 14 0 1 0 1
0 107 91 64 0 0 1 14 0 1 0 1
phys
0 107 75 64 0 0 1 14 0 1 0 1
0 107 91 64 0 0 1 14 0 1 0 1
0 107 91 48 0 0 1 14 0 1 0 1
phys
0 202 91 48 0 0 1 14 0 1 0 1
0 202 91 64 0 0 1 14 0 1 0 1
0 202 75 64 0 0 1 14 0 1 0 1
phys
0 202 75 64 0 0 1 14 0 1 0 1
0 202 91 64 0 0 1 14 0 1 0 1
0 107 91 64 0 0 1 14 0 1 0 1
phys
0 202 75 64 0 0 1 14 0 1 0 1
0 107 91 64 0 0 1 14 0 1 0 1
0 107 75 64 0 0 1 14 0 1 0 1
phys
0 107 75 64 0 0 1 14 0 1 0 1
0 107 91 48 0 0 1 14 0 1 0 1
0 202 91 48 0 0 1 14 0 1 0 1
phys
0 107 75 64 0 0 1 14 0 1 0 1
0 202 91 48 0 0 1 14 0 1 0 1
0 202 75 64 0 0 1 14 0 1 0 1
phys
0 212 139 201 0 0 1 15 0 1 0 1
0 212 139 176 0 0 1 15 0 1 0 1
0 202 139 176 0 0 1 15 0 1 0 1
phys
0 212 139 201 0 0 1 15 0 1 0 1
0 202 139 176 0 0 1 15 0 1 0 1
0 202 139 201 0 0 1 15 0 1 0 1
phys
0 212 -332 176 0 0 1 15 0 1 0 1
0 212 -332 201 0 0 1 15 0 1 0 1
0 202 -332 201 0 0 1 15 0 1 0 1
phys
0 212 -332 176 0 0 1 15 0 1 0 1
0 202 -332 201 0 0 1 15 0 1 0 1
0 202 -332 176 0 0 1 15 0 1 0 1
phys
0 202 -332 176 0 0 1 15 0 1 0 1
0 202 -332 201 0 0 1 15 0 1 0 1
0 202 139 201 0 0 1 15 0 1 0 1
phys
0 202 -332 176 0 0 1 15 0 1 0 1
0 202 139 201 0 0 1 15 0 1 0 1
0 202 139 176 0 0 1 15 0 1 0 1
phys
0 212 -332 201 0 0 1 15 0 1 0 1
0 212 -332 176 0 0 1 15 0 1 0 1
0 212 139 176 0 0 1 15 0 1 0 1
phys
0 212 -332 201 0 0 1 15 0 1 0 1
0 212 139 176 0 0 1 15 0 1 0 1
0 212 139 201 0 0 1 15 0 1 0 1
phys
0 212 -332 176 0 0 1 15 0 1 0 1
0 202 -332 176 0 0 1 15 0 1 0 1
0 202 139 176 0 0 1 15 0 1 0 1
phys
0 212 -332 176 0 0 1 15 0 1 0 1
0 202 139 176 0 0 1 15 0 1 0 1
0 212 139 176 0 0 1 15 0 1 0 1
phys
0 202 -332 201 0 0 1 15 0 1 0 1
0 212 -332 201 0 0 1 15 0 1 0 1
0 212 139 201 0 0 1 15 0 1 0 1
phys
0 202 -332 201 0 0 1 15 0 1 0 1
0 212 139 201 0 0 1 15 0 1 0 1
0 202 139 201 0 0 1 15 0 1 0 1
phys
0 97 -37 201 0 0 1 16 0 1 0 1
0 107 -37 201 0 0 1 16 0 1 0 1
0 107 139 201 0 0 1 16 0 1 0 1
phys
0 97 -37 201 0 0 1 16 0 1 0 1
0 107 139 201 0 0 1 16 0 1 0 1
0 97 139 201 0 0 1 16 0 1 0 1
phys
0 97 139 176 0 0 1 16 0 1 0 1
0 97 139 201 0 0 1 16 0 1 0 1
0 107 139 201 0 0 1 16 0 1 0 1
phys
0 97 139 176 0 0 1 16 0 1 0 1
0 107 139 201 0 0 1 16 0 1 0 1
0 107 139 176 0 0 1 16 0 1 0 1
phys
0 107 -37 176 0 0 1 16 0 1 0 1
0 107 -37 201 0 0 1 16 0 1 0 1
0 97 -37 201 0 0 1 16 0 1 0 1
phys
0 107 -37 176 0 0 1 16 0 1 0 1
0 97 -37 201 0 0 1 16 0 1 0 1
0 97 -37 176 0 0 1 16 0 1 0 1
phys
0 97 -37 176 0 0 1 16 0 1 0 1
0 97 -37 201 0 0 1 16 0 1 0 1
0 97 139 201 0 0 1 16 0 1 0 1
phys
0 97 -37 176 0 0 1 16 0 1 0 1
0 97 139 201 0 0 1 16 0 1 0 1
0 97 139 176 0 0 1 16 0 1 0 1
phys
0 107 139 176 0 0 1 16 0 1 0 1
0 107 139 201 0 0 1 16 0 1 0 1
0 107 -37 201 0 0 1 16 0 1 0 1
phys
0 107 139 176 0 0 1 16 0 1 0 1
0 107 -37 201 0 0 1 16 0 1 0 1
0 107 -37 176 0 0 1 16 0 1 0 1
phys
0 107 -37 176 0 0 1 16 0 1 0 1
0 97 -37 176 0 0 1 16 0 1 0 1
0 97 139 176 0 0 1 16 0 1 0 1
phys
0 107 -37 176 0 0 1 16 0 1 0 1
0 97 139 176 0 0 1 16 0 1 0 1
0 107 139 176 0 0 1 16 0 1 0 1
phys
0 101 327 11 0 0 1 17 0 1 0 1
0 101 329 11 0 0 1 17 0 1 0 1
0 101 329 43 0 0 1 17 0 1 0 1
phys
0 101 327 11 0 0 1 17 0 1 0 1
0 101 329 43 0 0 1 17 0 1 0 1
0 101 327 43 0 0 1 17 0 1 0 1
phys
0 -79 329 11 0 0 1 17 0 1 0 1
0 101 329 11 0 0 1 17 0 1 0 1
0 101 327 11 0 0 1 17 0 1 0 1
phys
0 -79 329 11 0 0 1 17 0 1 0 1
0 101 327 11 0 0 1 17 0 1 0 1
0 -79 327 11 0 0 1 17 0 1 0 1
phys
0 -79 327 43 0 0 1 17 0 1 0 1
0 101 327 43 0 0 1 17 0 1 0 1
0 101 329 43 0 0 1 17 0 1 0 1
phys
0 -79 327 43 0 0 1 17 0 1 0 1
0 101 329 43 0 0 1 17 0 1 0 1
0 -79 329 43 0 0 1 17 0 1 0 1
phys
0 101 329 43 0 0 1 17 0 1 0 1
0 101 329 11 0 0 1 17 0 1 0 1
0 -79 329 11 0 0 1 17 0 1 0 1
phys
0 101 329 43 0 0 1 17 0 1 0 1
0 -79 329 11 0 0 1 17 0 1 0 1
0 -79 329 43 0 0 1 17 0 1 0 1
phys
0 101 327 11 0 0 1 17 0 1 0 1
0 101 327 43 0 0 1 17 0 1 0 1
0 -79 327 43 0 0 1 17 0 1 0 1
phys
0 101 327 11 0 0 1 17 0 1 0 1
0 -79 327 43 0 0 1 17 0 1 0 1
0 -79 327 11 0 0 1 17 0 1 0 1
phys
0 -79 327 43 0 0 1 17 0 1 0 1
0 -79 329 43 0 0 1 17 0 1 0 1
0 -79 329 11 0 0 1 17 0 1 0 1
phys
0 -79 327 43 0 0 1 17 0 1 0 1
0 -79 329 11 0 0 1 17 0 1 0 1
0 -79 327 11 0 0 1 17 0 1 0 1
phys
0 107 59 80 0 0 1 18 0 1 0 1
0 107 75 64 0 0 1 18 0 1 0 1
0 202 75 64 0 0 1 18 0 1 0 1
phys
0 107 59 80 0 0 1 18 0 1 0 1
0 202 75 64 0 0 1 18 0 1 0 1
0 202 59 80 0 0 1 18 0 1 0 1
phys
0 202 75 80 0 0 1 18 0 1 0 1
0 202 75 64 0 0 1 18 0 1 0 1
0 107 75 64 0 0 1 18 0 1 0 1
phys
0 202 75 80 0 0 1 18 0 1 0 1
0 107 75 64 0 0 1 18 0 1 0 1
0 107 75 80 0 0 1 18 0 1 0 1
phys
0 107 75 64 0 0 1 18 0 1 0 1
0 107 59 80 0 0 1 18 0 1 0 1
0 107 75 80 0 0 1 18 0 1 0 1
phys
0 202 59 80 0 0 1 18 0 1 0 1
0 202 75 64 0 0 1 18 0 1 0 1
0 202 75 80 0 0 1 18 0 1 0 1
phys
0 107 59 80 0 0 1 18 0 1 0 1
0 202 59 80 0 0 1 18 0 1 0 1
0 202 75 80 0 0 1 18 0 1 0 1
phys
0 107 59 80 0 0 1 18 0 1 0 1
0 202 75 80 0 0 1 18 0 1 0 1
0 107 75 80 0 0 1 18 0 1 0 1
phys
0 86 147 41 0 0 1 19 0 1 0 1
0 86 147 39.001 0 0 1 19 0 1 0 1
0 -106 147 39.001 0 0 1 19 0 1 0 1
phys
0 86 147 41 0 0 1 19 0 1 0 1
0 -106 147 39.001 0 0 1 19 0 1 0 1
0 -106 147 41 0 0 1 19 0 1 0 1
phys
0 86 139 31 0 0 1 19 0 1 0 1
0 86 139 41 0 0 1 19 0 1 0 1
0 -106 139 41 0 0 1 19 0 1 0 1
phys
0 86 139 31 0 0 1 19 0 1 0 1
0 -106 139 41 0 0 1 19 0 1 0 1
0 -106 139 31 0 0 1 19 0 1 0 1
phys
0 -106 139 31 0 0 1 19 0 1 0 1
0 -106 139 41 0 0 1 19 0 1 0 1
0 -106 147 41 0 0 1 19 0 1 0 1
phys
0 -106 139 31 0 0 1 19 0 1 0 1
0 -106 147 41 0 0 1 19 0 1 0 1
0 -106 147 39.001 0 0 1 19 0 1 0 1
phys
0 -106 139 31 0 0 1 19 0 1 0 1
0 -106 147 39.001 0 0 1 19 0 1 0 1
0 -106 141 31 0 0 1 19 0 1 0 1
phys
0 86 139 41 0 0 1 19 0 1 0 1
0 86 139 31 0 0 1 19 0 1 0 1
0 86 141 31 0 0 1 19 0 1 0 1
phys
0 86 139 41 0 0 1 19 0 1 0 1
0 86 141 31 0 0 1 19 0 1 0 1
0 86 147 39.001 0 0 1 19 0 1 0 1
phys
0 86 139 41 0 0 1 19 0 1 0 1
0 86 147 39.001 0 0 1 19 0 1 0 1
0 86 147 41 0 0 1 19 0 1 0 1
phys
0 86 139 31 0 0 1 19 0 1 0 1
0 -106 139 31 0 0 1 19 0 1 0 1
0 -106 141 31 0 0 1 19 0 1 0 1
phys
0 86 139 31 0 0 1 19 0 1 0 1
0 -106 141 31 0 0 1 19 0 1 0 1
0 86 141 31 0 0 1 19 0 1 0 1
phys
0 -106 139 41 0 0 1 19 0 1 0 1
0 86 139 41 0 0 1 19 0 1 0 1
0 86 147 41 0 0 1 19 0 1 0 1
phys
0 -106 139 41 0 0 1 19 0 1 0 1
0 86 147 41 0 0 1 19 0 1 0 1
0 -106 147 41 0 0 1 19 0 1 0 1
phys
0 -106 141 31 0 0 1 19 0 1 0 1
0 -106 147 39.001 0 0 1 19 0 1 0 1
0 86 147 39.001 0 0 1 19 0 1 0 1
phys
0 -106 141 31 0 0 1 19 0 1 0 1
0 86 147 39.001 0 0 1 19 0 1 0 1
0 86 141 31 0 0 1 19 0 1 0 1
phys
0 -79 331 43 0 0 1 20 0 1 0 1
0 -79 331 0 0 0 1 20 0 1 0 1
0 -85 331 0 0 0 1 20 0 1 0 1
phys
0 -79 331 43 0 0 1 20 0 1 0 1
0 -85 331 0 0 0 1 20 0 1 0 1
0 -85 331 43 0 0 1 20 0 1 0 1
phys
0 -79 325 0 0 0 1 20 0 1 0 1
0 -79 325 43 0 0 1 20 0 1 0 1
0 -85 325 43 0 0 1 20 0 1 0 1
phys
0 -79 325 0 0 0 1 20 0 1 0 1
0 -85 325 43 0 0 1 20 0 1 0 1
0 -85 325 0 0 0 1 20 0 1 0 1
phys
0 -85 325 0 0 0 1 20 0 1 0 1
0 -85 325 43 0 0 1 20 0 1 0 1
0 -85 331 43 0 0 1 20 0 1 0 1
phys
0 -85 325 0 0 0 1 20 0 1 0 1
0 -85 331 43 0 0 1 20 0 1 0 1
0 -85 331 0 0 0 1 20 0 1 0 1
phys
0 -79 325 43 0 0 1 20 0 1 0 1
0 -79 325 0 0 0 1 20 0 1 0 1
0 -79 331 0 0 0 1 20 0 1 0 1
phys
0 -79 325 43 0 0 1 20 0 1 0 1
0 -79 331 0 0 0 1 20 0 1 0 1
0 -79 331 43 0 0 1 20 0 1 0 1
phys
0 -79 325 0 0 0 1 20 0 1 0 1
0 -85 325 0 0 0 1 20 0 1 0 1
0 -85 331 0 0 0 1 20 0 1 0 1
phys
0 -79 325 0 0 0 1 20 0 1 0 1
0 -85 331 0 0 0 1 20 0 1 0 1
0 -79 331 0 0 0 1 20 0 1 0 1
phys
0 -85 325 43 0 0 1 20 0 1 0 1
0 -79 325 43 0 0 1 20 0 1 0 1
0 -79 331 43 0 0 1 20 0 1 0 1
phys
0 -85 325 43 0 0 1 20 0 1 0 1
0 -79 331 43 0 0 1 20 0 1 0 1
0 -85 331 43 0 0 1 20 0 1 0 1
phys
0 202 11 144 0 0 1 21 0 1 0 1
0 202 11 128 0 0 1 21 0 1 0 1
0 107 11 128 0 0 1 21 0 1 0 1
phys
0 202 11 144 0 0 1 21 0 1 0 1
0 107 11 128 0 0 1 21 0 1 0 1
0 107 11 144 0 0 1 21 0 1 0 1
phys
0 107 -5 144 0 0 1 21 0 1 0 1
0 107 11 144 0 0 1 21 0 1 0 1
0 107 11 128 0 0 1 21 0 1 0 1
phys
0 202 11 128 0 0 1 21 0 1 0 1
0 202 11 144 0 0 1 21 0 1 0 1
0 202 -5 144 0 0 1 21 0 1 0 1
phys
0 202 -5 144 0 0 1 21 0 1 0 1
0 202 11 144 0 0 1 21 0 1 0 1
0 107 11 144 0 0 1 21 0 1 0 1
phys
0 202 -5 144 0 0 1 21 0 1 0 1
0 107 11 144 0 0 1 21 0 1 0 1
0 107 -5 144 0 0 1 21 0 1 0 1
phys
0 107 -5 144 0 0 1 21 0 1 0 1
0 107 11 128 0 0 1 21 0 1 0 1
0 202 11 128 0 0 1 21 0 1 0 1
phys
0 107 -5 144 0 0 1 21 0 1 0 1
0 202 11 128 0 0 1 21 0 1 0 1
0 202 -5 144 0 0 1 21 0 1 0 1
phys
0 107 91 48 0 0 1 22 0 1 0 1
0 202 91 48 0 0 1 22 0 1 0 1
0 202 107 48 0 0 1 22 0 1 0 1
phys
0 107 91 48 0 0 1 22 0 1 0 1
0 202 107 48 0 0 1 22 0 1 0 1
0 107 107 48 0 0 1 22 0 1 0 1
phys
0 202 91 48 0 0 1 22 0 1 0 1
0 107 91 48 0 0 1 22 0 1 0 1
0 107 107 32 0 0 1 22 0 1 0 1
phys
0 202 91 48 0 0 1 22 0 1 0 1
0 107 107 32 0 0 1 22 0 1 0 1
0 202 107 32 0 0 1 22 0 1 0 1
phys
0 202 107 32 0 0 1 22 0 1 0 1
0 107 107 32 0 0 1 22 0 1 0 1
0 107 107 48 0 0 1 22 0 1 0 1
phys
0 202 107 32 0 0 1 22 0 1 0 1
0 107 107 48 0 0 1 22 0 1 0 1
0 202 107 48 0 0 1 22 0 1 0 1
phys
0 107 107 32 0 0 1 22 0 1 0 1
0 107 91 48 0 0 1 22 0 1 0 1
0 107 107 48 0 0 1 22 0 1 0 1
phys
0 202 107 48 0 0 1 22 0 1 0 1
0 202 91 48 0 0 1 22 0 1 0 1
0 202 107 32 0 0 1 22 0 1 0 1
phys
0 97 127.54 74 0 0 1 23 0 1 0 1
0 97 127.54 0 0 0 1 23 0 1 0 1
0 94 127.54 0 0 0 1 23 0 1 0 1
phys
0 97 127.54 74 0 0 1 23 0 1 0 1
0 94 127.54 0 0 0 1 23 0 1 0 1
0 94 127.54 74 0 0 1 23 0 1 0 1
phys
0 97 -243 0 0 0 1 23 0 1 0 1
0 97 -243 74 0 0 1 23 0 1 0 1
0 94 -243 74 0 0 1 23 0 1 0 1
phys
0 97 -243 0 0 0 1 23 0 1 0 1
0 94 -243 74 0 0 1 23 0 1 0 1
0 94 -243 0 0 0 1 23 0 1 0 1
phys
0 94 -243 0 0 0 1 23 0 1 0 1
0 94 -243 74 0 0 1 23 0 1 0 1
0 94 127.54 74 0 0 1 23 0 1 0 1
phys
0 94 -243 0 0 0 1 23 0 1 0 1
0 94 127.54 74 0 0 1 23 0 1 0 1
0 94 127.54 0 0 0 1 23 0 1 0 1
phys
0 97 -243 74 0 0 1 23 0 1 0 1
0 97 -243 0 0 0 1 23 0 1 0 1
0 97 127.54 0 0 0 1 23 0 1 0 1
phys
0 97 -243 74 0 0 1 23 0 1 0 1
0 97 127.54 0 0 0 1 23 0 1 0 1
0 97 127.54 74 0 0 1 23 0 1 0 1
phys
0 97 -243 0 0 0 1 23 0 1 0 1
0 94 -243 0 0 0 1 23 0 1 0 1
0 94 127.54 0 0 0 1 23 0 1 0 1
phys
0 97 -243 0 0 0 1 23 0 1 0 1
0 94 127.54 0 0 0 1 23 0 1 0 1
0 97 127.54 0 0 0 1 23 0 1 0 1
phys
0 94 -243 74 0 0 1 23 0 1 0 1
0 97 -243 74 0 0 1 23 0 1 0 1
0 97 127.54 74 0 0 1 23 0 1 0 1
phys
0 94 -243 74 0 0 1 23 0 1 0 1
0 97 127.54 74 0 0 1 23 0 1 0 1
0 94 127.54 74 0 0 1 23 0 1 0 1
phys
0 202 -5 160 0 0 1 24 0 1 0 1
0 202 -21 160 0 0 1 24 0 1 0 1
0 202 -5 144 0 0 1 24 0 1 0 1
phys
0 107 -21 160 0 0 1 24 0 1 0 1
0 202 -21 160 0 0 1 24 0 1 0 1
0 202 -5 160 0 0 1 24 0 1 0 1
phys
0 107 -21 160 0 0 1 24 0 1 0 1
0 202 -5 160 0 0 1 24 0 1 0 1
0 107 -5 160 0 0 1 24 0 1 0 1
phys
0 107 -5 144 0 0 1 24 0 1 0 1
0 202 -5 144 0 0 1 24 0 1 0 1
0 202 -21 160 0 0 1 24 0 1 0 1
phys
0 107 -5 144 0 0 1 24 0 1 0 1
0 202 -21 160 0 0 1 24 0 1 0 1
0 107 -21 160 0 0 1 24 0 1 0 1
phys
0 202 -5 160 0 0 1 24 0 1 0 1
0 202 -5 144 0 0 1 24 0 1 0 1
0 107 -5 144 0 0 1 24 0 1 0 1
phys
0 202 -5 160 0 0 1 24 0 1 0 1
0 107 -5 144 0 0 1 24 0 1 0 1
0 107 -5 160 0 0 1 24 0 1 0 1
phys
0 107 -5 144 0 0 1 24 0 1 0 1
0 107 -21 160 0 0 1 24 0 1 0 1
0 107 -5 160 0 0 1 24 0 1 0 1
phys
0 107 139 0 0 0 1 25 0 1 0 1
0 107 123 16 0 0 1 25 0 1 0 1
0 107 139 16 0 0 1 25 0 1 0 1
phys
0 202 139 16 0 0 1 25 0 1 0 1
0 202 123 16 0 0 1 25 0 1 0 1
0 202 139 0 0 0 1 25 0 1 0 1
phys
0 202 123 16 0 0 1 25 0 1 0 1
0 202 139 16 0 0 1 25 0 1 0 1
0 107 139 16 0 0 1 25 0 1 0 1
phys
0 202 123 16 0 0 1 25 0 1 0 1
0 107 139 16 0 0 1 25 0 1 0 1
0 107 123 16 0 0 1 25 0 1 0 1
phys
0 107 123 16 0 0 1 25 0 1 0 1
0 107 139 0 0 0 1 25 0 1 0 1
0 202 139 0 0 0 1 25 0 1 0 1
phys
0 107 123 16 0 0 1 25 0 1 0 1
0 202 139 0 0 0 1 25 0 1 0 1
0 202 123 16 0 0 1 25 0 1 0 1
phys
0 202 139 16 0 0 1 25 0 1 0 1
0 202 139 0 0 0 1 25 0 1 0 1
0 107 139 0 0 0 1 25 0 1 0 1
phys
0 202 139 16 0 0 1 25 0 1 0 1
0 107 139 0 0 0 1 25 0 1 0 1
0 107 139 16 0 0 1 25 0 1 0 1
phys
0 202 -21 176 0 0 1 26 0 1 0 1
0 202 -21 160 0 0 1 26 0 1 0 1
0 107 -21 160 0 0 1 26 0 1 0 1
phys
0 202 -21 176 0 0 1 26 0 1 0 1
0 107 -21 160 0 0 1 26 0 1 0 1
0 107 -21 176 0 0 1 26 0 1 0 1
phys
0 107 -37 176 0 0 1 26 0 1 0 1
0 107 -21 176 0 0 1 26 0 1 0 1
0 107 -21 160 0 0 1 26 0 1 0 1
phys
0 202 -21 160 0 0 1 26 0 1 0 1
0 202 -21 176 0 0 1 26 0 1 0 1
0 202 -37 176 0 0 1 26 0 1 0 1
phys
0 202 -37 176 0 0 1 26 0 1 0 1
0 202 -21 176 0 0 1 26 0 1 0 1
0 107 -21 176 0 0 1 26 0 1 0 1
phys
0 202 -37 176 0 0 1 26 0 1 0 1
0 107 -21 176 0 0 1 26 0 1 0 1
0 107 -37 176 0 0 1 26 0 1 0 1
phys
0 107 -37 176 0 0 1 26 0 1 0 1
0 107 -21 160 0 0 1 26 0 1 0 1
0 202 -21 160 0 0 1 26 0 1 0 1
phys
0 107 -37 176 0 0 1 26 0 1 0 1
0 202 -21 160 0 0 1 26 0 1 0 1
0 202 -37 176 0 0 1 26 0 1 0 1
phys
0 101 325 43 0 0 1 27 0 1 0 1
0 107 325 43 0 0 1 27 0 1 0 1
0 107 331 43 0 0 1 27 0 1 0 1
phys
0 101 325 43 0 0 1 27 0 1 0 1
0 107 331 43 0 0 1 27 0 1 0 1
0 101 331 43 0 0 1 27 0 1 0 1
phys
0 101 331 0 0 0 1 27 0 1 0 1
0 101 331 43 0 0 1 27 0 1 0 1
0 107 331 43 0 0 1 27 0 1 0 1
phys
0 101 331 0 0 0 1 27 0 1 0 1
0 107 331 43 0 0 1 27 0 1 0 1
0 107 331 0 0 0 1 27 0 1 0 1
phys
0 107 325 0 0 0 1 27 0 1 0 1
0 107 325 43 0 0 1 27 0 1 0 1
0 101 325 43 0 0 1 27 0 1 0 1
phys
0 107 325 0 0 0 1 27 0 1 0 1
0 101 325 43 0 0 1 27 0 1 0 1
0 101 325 0 0 0 1 27 0 1 0 1
phys
0 101 325 0 0 0 1 27 0 1 0 1
0 101 325 43 0 0 1 27 0 1 0 1
0 101 331 43 0 0 1 27 0 1 0 1
phys
0 101 325 0 0 0 1 27 0 1 0 1
0 101 331 43 0 0 1 27 0 1 0 1
0 101 331 0 0 0 1 27 0 1 0 1
phys
0 107 331 0 0 0 1 27 0 1 0 1
0 107 331 43 0 0 1 27 0 1 0 1
0 107 325 43 0 0 1 27 0 1 0 1
phys
0 107 331 0 0 0 1 27 0 1 0 1
0 107 325 43 0 0 1 27 0 1 0 1
0 107 325 0 0 0 1 27 0 1 0 1
phys
0 107 325 0 0 0 1 27 0 1 0 1
0 101 325 0 0 0 1 27 0 1 0 1
0 101 331 0 0 0 1 27 0 1 0 1
phys
0 107 325 0 0 0 1 27 0 1 0 1
0 101 331 0 0 0 1 27 0 1 0 1
0 107 331 0 0 0 1 27 0 1 0 1
phys
0 107 145 0 0 0 1 28 0 1 0 1
0 107 145 11 0 0 1 28 0 1 0 1
0 101 145 11 0 0 1 28 0 1 0 1
phys
0 107 145 0 0 0 1 28 0 1 0 1
0 101 145 11 0 0 1 28 0 1 0 1
0 101 145 0 0 0 1 28 0 1 0 1
phys
0 101 145 0 0 0 1 28 0 1 0 1
0 101 145 11 0 0 1 28 0 1 0 1
0 101 325 11 0 0 1 28 0 1 0 1
phys
0 101 145 0 0 0 1 28 0 1 0 1
0 101 325 11 0 0 1 28 0 1 0 1
0 101 325 0 0 0 1 28 0 1 0 1
phys
0 107 145 11 0 0 1 28 0 1 0 1
0 107 145 0 0 0 1 28 0 1 0 1
0 107 325 0 0 0 1 28 0 1 0 1
phys
0 107 145 11 0 0 1 28 0 1 0 1
0 107 325 0 0 0 1 28 0 1 0 1
0 107 325 11 0 0 1 28 0 1 0 1
phys
0 107 145 0 0 0 1 28 0 1 0 1
0 101 145 0 0 0 1 28 0 1 0 1
0 101 325 0 0 0 1 28 0 1 0 1
phys
0 107 145 0 0 0 1 28 0 1 0 1
0 101 325 0 0 0 1 28 0 1 0 1
0 107 325 0 0 0 1 28 0 1 0 1
phys
0 101 145 11 0 0 1 28 0 1 0 1
0 107 145 11 0 0 1 28 0 1 0 1
0 107 325 11 0 0 1 28 0 1 0 1
phys
0 101 145 11 0 0 1 28 0 1 0 1
0 107 325 11 0 0 1 28 0 1 0 1
0 101 325 11 0 0 1 28 0 1 0 1
phys
0 107 325 11 0 0 1 28 0 1 0 1
0 107 325 0 0 0 1 28 0 1 0 1
0 101 325 0 0 0 1 28 0 1 0 1
phys
0 107 325 11 0 0 1 28 0 1 0 1
0 101 325 0 0 0 1 28 0 1 0 1
0 101 325 11 0 0 1 28 0 1 0 1
end
