version 1
nodes
0 "root" -1
end
skeleton
time 0
0 0 0 0 0 0 0
end
triangles
wood_wooddoor045b
0 -149 139 108 0 1 0 -190.191406 -0.15625 1 0 1
0 -179 139 108 0 1 0 -190.660156 -0.15625 1 0 1
0 -179 139 112 0 1 0 -190.660156 -0.125 1 0 1
wood_wooddoor045b
0 -149 139 108 0 1 0 -190.191406 -0.15625 1 0 1
0 -179 139 112 0 1 0 -190.660156 -0.125 1 0 1
0 -145 139 112 0 1 0 -190.128906 -0.125 1 0 1
wood_wooddoor045b
0 -145 127 112 0 -1 0 -190.128906 -0.125 1 0 1
0 -179 127 112 0 -1 0 -190.660156 -0.125 1 0 1
0 -179 127 108 0 -1 0 -190.660156 -0.15625 1 0 1
wood_wooddoor045b
0 -145 127 112 0 -1 0 -190.128906 -0.125 1 0 1
0 -179 127 108 0 -1 0 -190.660156 -0.15625 1 0 1
0 -149 127 108 0 -1 0 -190.191406 -0.15625 1 0 1
wood_infwoodfloor007a
0 -179 127 108 -1 0 0 33.648438 -1.09375 1 0 1
0 -179 127 112 -1 0 0 33.648438 -1.0625 1 0 1
0 -179 139 112 -1 0 0 33.554688 -1.0625 1 0 1
wood_infwoodfloor007a
0 -179 127 108 -1 0 0 33.648438 -1.09375 1 0 1
0 -179 139 112 -1 0 0 33.554688 -1.0625 1 0 1
0 -179 139 108 -1 0 0 33.554688 -1.09375 1 0 1
wood_wooddoor045b
0 -149 127 108 0 0 -1 68.234375 96.039062 1 0 1
0 -179 127 108 0 0 -1 68.234375 96.273438 1 0 1
0 -179 139 108 0 0 -1 68.046875 96.273438 1 0 1
wood_wooddoor045b
0 -149 127 108 0 0 -1 68.234375 96.039062 1 0 1
0 -179 139 108 0 0 -1 68.046875 96.273438 1 0 1
0 -149 139 108 0 0 -1 68.046875 96.039062 1 0 1
wood_infwoodfloor007a
0 -145 127 112 0.707107 0 -0.707107 -94.808594 -33.199219 1 0 1
0 -149 127 108 0.707107 0 -0.707107 -94.839844 -33.199219 1 0 1
0 -149 139 108 0.707107 0 -0.707107 -94.839844 -33.105469 1 0 1
wood_infwoodfloor007a
0 -145 127 112 0.707107 0 -0.707107 -94.808594 -33.199219 1 0 1
0 -149 139 108 0.707107 0 -0.707107 -94.839844 -33.105469 1 0 1
0 -145 139 112 0.707107 0 -0.707107 -94.808594 -33.105469 1 0 1
pepsi2_arch_stairs01
0 202 59 96 0 1 0 -185.683594 9.5 1 0 1
0 202 59 80 0 1 0 -185.683594 10 1 0 1
0 107 59 80 0 1 0 -187.167969 10 1 0 1
pepsi2_arch_stairs01
0 202 59 96 0 1 0 -185.683594 9.5 1 0 1
0 107 59 80 0 1 0 -187.167969 10 1 0 1
0 107 59 96 0 1 0 -187.167969 9.5 1 0 1
pepsi2_arch_stairs01
0 202 43 96 0 0 1 -185.683594 -136.5 1 0 1
0 202 59 96 0 0 1 -185.683594 -136 1 0 1
0 107 59 96 0 0 1 -187.167969 -136 1 0 1
pepsi2_arch_stairs01
0 202 43 96 0 0 1 -185.683594 -136.5 1 0 1
0 107 59 96 0 0 1 -187.167969 -136 1 0 1
0 107 43 96 0 0 1 -187.167969 -136.5 1 0 1
pepsi2_arch_concrete_stair01
0 107 145 43 0 1 0 -92.890625 -1.205078 1 0 1
0 107 145 0 0 1 0 -92.890625 -1.541016 1 0 1
0 101 145 0 0 1 0 -92.9375 -1.541016 1 0 1
pepsi2_arch_concrete_stair01
0 107 145 43 0 1 0 -92.890625 -1.205078 1 0 1
0 101 145 0 0 1 0 -92.9375 -1.541016 1 0 1
0 101 145 43 0 1 0 -92.9375 -1.205078 1 0 1
pepsi2_arch_concrete_stair01
0 101 139 0 -1 0 0 -33.984375 -1.541016 1 0 1
0 101 139 43 -1 0 0 -33.984375 -1.205078 1 0 1
0 101 145 43 -1 0 0 -33.9375 -1.205078 1 0 1
pepsi2_arch_concrete_stair01
0 101 139 0 -1 0 0 -33.984375 -1.541016 1 0 1
0 101 145 43 -1 0 0 -33.9375 -1.205078 1 0 1
0 101 145 0 -1 0 0 -33.9375 -1.541016 1 0 1
pepsi2_arch_concrete_stair01
0 107 139 43 1 0 0 -33.984375 -1.205078 1 0 1
0 107 139 0 1 0 0 -33.984375 -1.541016 1 0 1
0 107 145 0 1 0 0 -33.9375 -1.541016 1 0 1
pepsi2_arch_concrete_stair01
0 107 139 43 1 0 0 -33.984375 -1.205078 1 0 1
0 107 145 0 1 0 0 -33.9375 -1.541016 1 0 1
0 107 145 43 1 0 0 -33.9375 -1.205078 1 0 1
pepsi2_arch_concrete_stair01
0 101 139 43 0 0 1 33.609375 -92.478516 1 0 1
0 107 139 43 0 0 1 33.609375 -92.431641 1 0 1
0 107 145 43 0 0 1 33.5625 -92.431641 1 0 1
pepsi2_arch_concrete_stair01
0 101 139 43 0 0 1 33.609375 -92.478516 1 0 1
0 107 145 43 0 0 1 33.5625 -92.431641 1 0 1
0 101 145 43 0 0 1 33.5625 -92.478516 1 0 1
pepsi2_gta4_churchpanels
0 -164 -154 0 0 -1 0 318.084635 -7.998698 1 0 1
0 -164 -154 40 0 -1 0 318.084635 -6.957031 1 0 1
0 -196 -154 40 0 -1 0 318.917969 -6.957031 1 0 1
pepsi2_gta4_churchpanels
0 -164 -154 0 0 -1 0 318.084635 -7.998698 1 0 1
0 -196 -154 40 0 -1 0 318.917969 -6.957031 1 0 1
0 -196 -154 0 0 -1 0 318.917969 -7.998698 1 0 1
pepsi2_gta4_churchpanels
0 -196 -154 0 -1 0 0 -120.268229 -8.022135 1 0 1
0 -196 -154 40 -1 0 0 -120.268229 -6.980469 1 0 1
0 -196 -95 40 -1 0 0 -118.731771 -6.980469 1 0 1
pepsi2_gta4_churchpanels
0 -196 -154 0 -1 0 0 -120.268229 -8.022135 1 0 1
0 -196 -95 40 -1 0 0 -118.731771 -6.980469 1 0 1
0 -196 -95 0 -1 0 0 -118.731771 -8.022135 1 0 1
pepsi2_gta4_churchpanels
0 -164 -154 40 1 0 0 119.928385 -6.957031 1 0 1
0 -164 -154 0 1 0 0 119.928385 -7.998698 1 0 1
0 -164 -95 0 1 0 0 118.391927 -7.998698 1 0 1
pepsi2_gta4_churchpanels
0 -164 -154 40 1 0 0 119.928385 -6.957031 1 0 1
0 -164 -95 0 1 0 0 118.391927 -7.998698 1 0 1
0 -164 -95 40 1 0 0 118.391927 -6.957031 1 0 1
pepsi2_arch_stairs01
0 202 43 112 0 1 0 -185.683594 9 1 0 1
0 202 43 96 0 1 0 -185.683594 9.5 1 0 1
0 107 43 96 0 1 0 -187.167969 9.5 1 0 1
pepsi2_arch_stairs01
0 202 43 112 0 1 0 -185.683594 9 1 0 1
0 107 43 96 0 1 0 -187.167969 9.5 1 0 1
0 107 43 112 0 1 0 -187.167969 9 1 0 1
pepsi2_arch_stairs01
0 202 27 112 0 0 1 -185.683594 -137.5 1 0 1
0 202 43 112 0 0 1 -185.683594 -137 1 0 1
0 107 43 112 0 0 1 -187.167969 -137 1 0 1
pepsi2_arch_stairs01
0 202 27 112 0 0 1 -185.683594 -137.5 1 0 1
0 107 43 112 0 0 1 -187.167969 -137 1 0 1
0 107 27 112 0 0 1 -187.167969 -137.5 1 0 1
props_sign_cafe01a
0 -159 142 154 0 1 0 317.977865 -4.003906 1 0 1
0 -159 142 119 0 1 0 317.977865 -4.915365 1 0 1
0 -199 142 119 0 1 0 319.019531 -4.915365 1 0 1
props_sign_cafe01a
0 -159 142 154 0 1 0 317.977865 -4.003906 1 0 1
0 -199 142 119 0 1 0 319.019531 -4.915365 1 0 1
0 -199 142 154 0 1 0 319.019531 -4.003906 1 0 1
props_sign_cafe01a
0 -199 139 119 -1 0 0 68.046875 -2.078125 1 0 1
0 -199 139 154 -1 0 0 68.046875 -1.53125 1 0 1
0 -199 142 154 -1 0 0 68 -1.53125 1 0 1
props_sign_cafe01a
0 -199 139 119 -1 0 0 68.046875 -2.078125 1 0 1
0 -199 142 154 -1 0 0 68 -1.53125 1 0 1
0 -199 142 119 -1 0 0 68 -2.078125 1 0 1
props_sign_cafe01a
0 -159 139 154 1 0 0 68.046875 -1.53125 1 0 1
0 -159 139 119 1 0 0 68.046875 -2.078125 1 0 1
0 -159 142 119 1 0 0 68 -2.078125 1 0 1
props_sign_cafe01a
0 -159 139 154 1 0 0 68.046875 -1.53125 1 0 1
0 -159 142 119 1 0 0 68 -2.078125 1 0 1
0 -159 142 154 1 0 0 68 -1.53125 1 0 1
props_sign_cafe01a
0 -159 139 119 0 0 -1 68.046875 192.296875 1 0 1
0 -199 139 119 0 0 -1 68.046875 192.921875 1 0 1
0 -199 142 119 0 0 -1 68 192.921875 1 0 1
props_sign_cafe01a
0 -159 139 119 0 0 -1 68.046875 192.296875 1 0 1
0 -199 142 119 0 0 -1 68 192.921875 1 0 1
0 -159 142 119 0 0 -1 68 192.296875 1 0 1
props_sign_cafe01a
0 -199 139 154 0 0 1 68.046875 -190.53125 1 0 1
0 -159 139 154 0 0 1 68.046875 -189.90625 1 0 1
0 -159 142 154 0 0 1 68 -189.90625 1 0 1
props_sign_cafe01a
0 -199 139 154 0 0 1 68.046875 -190.53125 1 0 1
0 -159 142 154 0 0 1 68 -189.90625 1 0 1
0 -199 142 154 0 0 1 68 -190.53125 1 0 1
pepsi2_arch_stairs01
0 202 11 128 0 0 1 -185.683594 -137.5 1 0 1
0 202 27 128 0 0 1 -185.683594 -137 1 0 1
0 107 27 128 0 0 1 -187.167969 -137 1 0 1
pepsi2_arch_stairs01
0 202 11 128 0 0 1 -185.683594 -137.5 1 0 1
0 107 27 128 0 0 1 -187.167969 -137 1 0 1
0 107 11 128 0 0 1 -187.167969 -137.5 1 0 1
pepsi2_arch_stairs01
0 202 27 128 0 1 0 -185.683594 8.5 1 0 1
0 202 27 112 0 1 0 -185.683594 9 1 0 1
0 107 27 112 0 1 0 -187.167969 9 1 0 1
pepsi2_arch_stairs01
0 202 27 128 0 1 0 -185.683594 8.5 1 0 1
0 107 27 112 0 1 0 -187.167969 9 1 0 1
0 107 27 128 0 1 0 -187.167969 8.5 1 0 1
wood_wooddoor045b
0 -179 139 112 0 1 0 -191.46875 -0.125 1 0 1
0 -179 139 108 0 1 0 -191.46875 -0.15625 1 0 1
0 -209 139 108 0 1 0 -191.9375 -0.15625 1 0 1
wood_wooddoor045b
0 -179 139 112 0 1 0 -191.46875 -0.125 1 0 1
0 -209 139 108 0 1 0 -191.9375 -0.15625 1 0 1
0 -213 139 112 0 1 0 -192 -0.125 1 0 1
wood_wooddoor045b
0 -179 127 108 0 -1 0 -191.46875 -0.15625 1 0 1
0 -179 127 112 0 -1 0 -191.46875 -0.125 1 0 1
0 -213 127 112 0 -1 0 -192 -0.125 1 0 1
wood_wooddoor045b
0 -179 127 108 0 -1 0 -191.46875 -0.15625 1 0 1
0 -213 127 112 0 -1 0 -192 -0.125 1 0 1
0 -209 127 108 0 -1 0 -191.9375 -0.15625 1 0 1
wood_infwoodfloor007a
0 -179 127 112 1 0 0 -33.648438 -1.0625 1 0 1
0 -179 127 108 1 0 0 -33.648438 -1.09375 1 0 1
0 -179 139 108 1 0 0 -33.554688 -1.09375 1 0 1
wood_infwoodfloor007a
0 -179 127 112 1 0 0 -33.648438 -1.0625 1 0 1
0 -179 139 108 1 0 0 -33.554688 -1.09375 1 0 1
0 -179 139 112 1 0 0 -33.554688 -1.0625 1 0 1
wood_wooddoor045b
0 -179 127 108 0 0 -1 68.234375 96.21875 1 0 1
0 -209 127 108 0 0 -1 68.234375 96.453125 1 0 1
0 -209 139 108 0 0 -1 68.046875 96.453125 1 0 1
wood_wooddoor045b
0 -179 127 108 0 0 -1 68.234375 96.21875 1 0 1
0 -209 139 108 0 0 -1 68.046875 96.453125 1 0 1
0 -179 139 108 0 0 -1 68.046875 96.21875 1 0 1
wood_infwoodfloor007a
0 -209 127 108 -0.707107 0 -0.707107 -95.308594 -33.199219 1 0 1
0 -213 127 112 -0.707107 0 -0.707107 -95.339844 -33.199219 1 0 1
0 -213 139 112 -0.707107 0 -0.707107 -95.339844 -33.105469 1 0 1
wood_infwoodfloor007a
0 -209 127 108 -0.707107 0 -0.707107 -95.308594 -33.199219 1 0 1
0 -213 139 112 -0.707107 0 -0.707107 -95.339844 -33.105469 1 0 1
0 -209 139 108 -0.707107 0 -0.707107 -95.308594 -33.105469 1 0 1
pepsi2_arch_concrete_stair01
0 101 331 11 0 1 0 93.0625 -1.455078 1 0 1
0 101 331 0 0 1 0 93.0625 -1.541016 1 0 1
0 -79 331 0 0 1 0 94.46875 -1.541016 1 0 1
pepsi2_arch_concrete_stair01
0 101 331 11 0 1 0 93.0625 -1.455078 1 0 1
0 -79 331 0 0 1 0 94.46875 -1.541016 1 0 1
0 -79 331 11 0 1 0 94.46875 -1.455078 1 0 1
pepsi2_arch_concrete_stair01
0 101 325 0 0 -1 0 93.0625 -1.541016 1 0 1
0 101 325 11 0 -1 0 93.0625 -1.455078 1 0 1
0 -79 325 11 0 -1 0 94.46875 -1.455078 1 0 1
pepsi2_arch_concrete_stair01
0 101 325 0 0 -1 0 93.0625 -1.541016 1 0 1
0 -79 325 11 0 -1 0 94.46875 -1.455078 1 0 1
0 -79 325 0 0 -1 0 94.46875 -1.541016 1 0 1
pepsi2_arch_concrete_stair01
0 -79 325 11 0 0 1 94.46875 -31.455078 1 0 1
0 101 325 11 0 0 1 93.0625 -31.455078 1 0 1
0 101 331 11 0 0 1 93.0625 -31.408203 1 0 1
pepsi2_arch_concrete_stair01
0 -79 325 11 0 0 1 94.46875 -31.455078 1 0 1
0 101 331 11 0 0 1 93.0625 -31.408203 1 0 1
0 -79 331 11 0 0 1 94.46875 -31.408203 1 0 1
bridge_se1_metal_flat_steel_01
0 -159 -159 43.002 0 -1 0 -95.056641 4.275375 1 0 1
0 -159 -159 45 0 -1 0 -95.056641 4.259766 1 0 1
0 -196 -159 45 0 -1 0 -95.345703 4.259766 1 0 1
bridge_se1_metal_flat_steel_01
0 -159 -159 43.002 0 -1 0 -95.056641 4.275375 1 0 1
0 -196 -159 45 0 -1 0 -95.345703 4.259766 1 0 1
0 -196 -159 43 0 -1 0 -95.345703 4.275391 1 0 1
bridge_se1_metal_flat_steel_01
0 -159 -159 43.002 0 -1 0 -95.056641 4.275375 1 0 1
0 -196 -159 43 0 -1 0 -95.345703 4.275391 1 0 1
0 -159.001332 -159 43 0 -1 0 -95.056651 4.275391 1 0 1
bridge_se1_metal_flat_steel_01
0 -196 -159 43 -1 0 0 -2.361328 37.259766 1 0 1
0 -196 -159 45 -1 0 0 -2.345703 37.259766 1 0 1
0 -196 -95 45 -1 0 0 -2.345703 36.759766 1 0 1
bridge_se1_metal_flat_steel_01
0 -196 -159 43 -1 0 0 -2.361328 37.259766 1 0 1
0 -196 -95 45 -1 0 0 -2.345703 36.759766 1 0 1
0 -196 -95 40 -1 0 0 -2.384766 36.759766 1 0 1
bridge_se1_metal_flat_steel_01
0 -196 -159 43 -1 0 0 -2.361328 37.259766 1 0 1
0 -196 -95 40 -1 0 0 -2.384766 36.759766 1 0 1
0 -196 -157 40 -1 0 0 -2.384766 37.244141 1 0 1
bridge_se1_metal_flat_steel_01
0 -159 -159 45 1 0 0 1.943359 37.259766 1 0 1
0 -159 -159 43.002 1 0 0 1.958969 37.259766 1 0 1
0 -159 -95 43.002 1 0 0 1.958969 36.759766 1 0 1
bridge_se1_metal_flat_steel_01
0 -159 -159 45 1 0 0 1.943359 37.259766 1 0 1
0 -159 -95 43.002 1 0 0 1.958969 36.759766 1 0 1
0 -159 -95 45 1 0 0 1.943359 36.759766 1 0 1
bridge_se1_metal_flat_steel_01
0 -196 -157 40 0 0 -1 -95.345703 -35.697266 1 0 1
0 -196 -95 40 0 0 -1 -95.345703 -35.212891 1 0 1
0 -161 -95 40 0 0 -1 -95.072266 -35.212891 1 0 1
bridge_se1_metal_flat_steel_01
0 -196 -157 40 0 0 -1 -95.345703 -35.697266 1 0 1
0 -161 -95 40 0 0 -1 -95.072266 -35.212891 1 0 1
0 -161 -157 40 0 0 -1 -95.072266 -35.697266 1 0 1
bridge_se1_metal_flat_steel_01
0 -196 -159 45 0 0 1 -95.345703 37.259766 1 0 1
0 -159 -159 45 0 0 1 -95.056641 37.259766 1 0 1
0 -159 -95 45 0 0 1 -95.056641 36.759766 1 0 1
bridge_se1_metal_flat_steel_01
0 -196 -159 45 0 0 1 -95.345703 37.259766 1 0 1
0 -159 -95 45 0 0 1 -95.056641 36.759766 1 0 1
0 -196 -95 45 0 0 1 -95.345703 36.759766 1 0 1
bridge_se1_metal_flat_steel_01
0 -159 -159 43.002 0.832221 0 -0.554444 54.960071 37.259766 1 0 1
0 -159.001332 -159 43 0.832221 0 -0.554444 54.96009 37.259766 1 0 1
0 -161 -157 40 0.832221 0 -0.554444 54.988254 37.244141 1 0 1
bridge_se1_metal_flat_steel_01
0 -159 -159 43.002 0.832221 0 -0.554444 54.960071 37.259766 1 0 1
0 -161 -157 40 0.832221 0 -0.554444 54.988254 37.244141 1 0 1
0 -161 -95 40 0.832221 0 -0.554444 54.988254 36.759766 1 0 1
bridge_se1_metal_flat_steel_01
0 -159 -159 43.002 0.832221 0 -0.554444 54.960071 37.259766 1 0 1
0 -161 -95 40 0.832221 0 -0.554444 54.988254 36.759766 1 0 1
0 -159 -95 43.002 0.832221 0 -0.554444 54.960071 36.759766 1 0 1
bridge_se1_metal_flat_steel_01
0 -159.001332 -159 43 0 -0.83205 -0.5547 -95.056651 -17.723811 1 0 1
0 -196 -159 43 0 -0.83205 -0.5547 -95.345703 -17.723811 1 0 1
0 -196 -157 40 0 -0.83205 -0.5547 -95.345703 -17.695641 1 0 1
bridge_se1_metal_flat_steel_01
0 -159.001332 -159 43 0 -0.83205 -0.5547 -95.056651 -17.723811 1 0 1
0 -196 -157 40 0 -0.83205 -0.5547 -95.345703 -17.695641 1 0 1
0 -161 -157 40 0 -0.83205 -0.5547 -95.072266 -17.695641 1 0 1
metal_metalfireescape002a
0 103 145 11 -1 0 0 67.9375 -10 1 0 1
0 103 145 43 -1 0 0 67.9375 -9 1 0 1
0 103 325 43 -1 0 0 65.125 -9 1 0 1
metal_metalfireescape002a
0 103 145 11 -1 0 0 67.9375 -10 1 0 1
0 103 325 43 -1 0 0 65.125 -9 1 0 1
0 103 325 11 -1 0 0 65.125 -10 1 0 1
metal_metalfireescape002a
0 105 145 43 1 0 0 -67.9375 -9 1 0 1
0 105 145 11 1 0 0 -67.9375 -10 1 0 1
0 105 325 11 1 0 0 -65.125 -10 1 0 1
metal_metalfireescape002a
0 105 145 43 1 0 0 -67.9375 -9 1 0 1
0 105 325 11 1 0 0 -65.125 -10 1 0 1
0 105 325 43 1 0 0 -65.125 -9 1 0 1
metal_metalfireescape002a
0 103 145 43 0 0 1 48.098772 -266.063616 1 0 1
0 105 145 43 0 0 1 48.098772 -266.018973 1 0 1
0 105 325 43 0 0 1 46.089844 -266.018973 1 0 1
metal_metalfireescape002a
0 103 145 43 0 0 1 48.098772 -266.063616 1 0 1
0 105 325 43 0 0 1 46.089844 -266.018973 1 0 1
0 103 325 43 0 0 1 46.089844 -266.063616 1 0 1
pepsi2_arch_stairs01
0 202 123 32 0 1 0 -185.683594 11.5 1 0 1
0 202 123 16 0 1 0 -185.683594 12 1 0 1
0 107 123 16 0 1 0 -187.167969 12 1 0 1
pepsi2_arch_stairs01
0 202 123 32 0 1 0 -185.683594 11.5 1 0 1
0 107 123 16 0 1 0 -187.167969 12 1 0 1
0 107 123 32 0 1 0 -187.167969 11.5 1 0 1
pepsi2_arch_stairs01
0 202 107 32 0 0 1 -185.683594 -134.5 1 0 1
0 202 123 32 0 0 1 -185.683594 -134 1 0 1
0 107 123 32 0 0 1 -187.167969 -134 1 0 1
pepsi2_arch_stairs01
0 202 107 32 0 0 1 -185.683594 -134.5 1 0 1
0 107 123 32 0 0 1 -187.167969 -134 1 0 1
0 107 107 32 0 0 1 -187.167969 -134.5 1 0 1
wood_infwoodfloor007a
0 -149 127 108.003 -0.707107 0 0.707107 -94.839844 -33.199219 1 0 1
0 -145 127 112.003 -0.707107 0 0.707107 -94.808594 -33.199219 1 0 1
0 -145 139 112.003 -0.707107 0 0.707107 -94.808594 -33.105469 1 0 1
wood_infwoodfloor007a
0 -149 127 108.003 -0.707107 0 0.707107 -94.839844 -33.199219 1 0 1
0 -145 139 112.003 -0.707107 0 0.707107 -94.808594 -33.105469 1 0 1
0 -149 139 108.003 -0.707107 0 0.707107 -94.839844 -33.105469 1 0 1
wood_wooddoor045b
0 -149 139 0 0 1 0 -190.191406 -1 1 0 1
0 -149 139 108.003 0 1 0 -190.191406 -0.156227 1 0 1
0 -145 139 112.003 0 1 0 -190.128906 -0.124977 1 0 1
wood_wooddoor045b
0 -149 139 0 0 1 0 -190.191406 -1 1 0 1
0 -145 139 112.003 0 1 0 -190.128906 -0.124977 1 0 1
0 -145 139 0 0 1 0 -190.128906 -1 1 0 1
wood_wooddoor045b
0 -145 127 0 0 -1 0 -190.128906 -1 1 0 1
0 -145 127 112.003 0 -1 0 -190.128906 -0.124977 1 0 1
0 -149 127 108.003 0 -1 0 -190.191406 -0.156227 1 0 1
wood_wooddoor045b
0 -145 127 0 0 -1 0 -190.128906 -1 1 0 1
0 -149 127 108.003 0 -1 0 -190.191406 -0.156227 1 0 1
0 -149 127 0 0 -1 0 -190.191406 -1 1 0 1
wood_wooddoor045b
0 -149 127 0 -1 0 0 68.234375 -1 1 0 1
0 -149 127 108.003 -1 0 0 68.234375 -0.156227 1 0 1
0 -149 139 108.003 -1 0 0 68.046875 -0.156227 1 0 1
wood_wooddoor045b
0 -149 127 0 -1 0 0 68.234375 -1 1 0 1
0 -149 139 108.003 -1 0 0 68.046875 -0.156227 1 0 1
0 -149 139 0 -1 0 0 68.046875 -1 1 0 1
wood_infwoodfloor007a
0 -145 127 0 0 0 -1 -94.808594 -33.199219 1 0 1
0 -149 127 0 0 0 -1 -94.839844 -33.199219 1 0 1
0 -149 139 0 0 0 -1 -94.839844 -33.105469 1 0 1
wood_infwoodfloor007a
0 -145 127 0 0 0 -1 -94.808594 -33.199219 1 0 1
0 -149 139 0 0 0 -1 -94.839844 -33.105469 1 0 1
0 -145 139 0 0 0 -1 -94.808594 -33.105469 1 0 1
pepsi2_arch_stairs01
0 202 91 64 0 1 0 -185.683594 10.5 1 0 1
0 202 91 48 0 1 0 -185.683594 11 1 0 1
0 107 91 48 0 1 0 -187.167969 11 1 0 1
pepsi2_arch_stairs01
0 202 91 64 0 1 0 -185.683594 10.5 1 0 1
0 107 91 48 0 1 0 -187.167969 11 1 0 1
0 107 91 64 0 1 0 -187.167969 10.5 1 0 1
pepsi2_arch_stairs01
0 202 75 64 0 0 1 -185.683594 -135.5 1 0 1
0 202 91 64 0 0 1 -185.683594 -135 1 0 1
0 107 91 64 0 0 1 -187.167969 -135 1 0 1
pepsi2_arch_stairs01
0 202 75 64 0 0 1 -185.683594 -135.5 1 0 1
0 107 91 64 0 0 1 -187.167969 -135 1 0 1
0 107 75 64 0 0 1 -187.167969 -135.5 1 0 1
brick_brick_ext_06_cheap
0 212 139 201 0 1 0 91.933594 0.445312 1 0 1
0 212 139 176 0 1 0 91.933594 0.25 1 0 1
0 202 139 176 0 1 0 92.011719 0.25 1 0 1
brick_brick_ext_06_cheap
0 212 139 201 0 1 0 91.933594 0.445312 1 0 1
0 202 139 176 0 1 0 92.011719 0.25 1 0 1
0 202 139 201 0 1 0 92.011719 0.445312 1 0 1
brick_brick_ext_06_cheap
0 202 -332 176 -1 0 0 37.691406 0.25 1 0 1
0 202 -332 201 -1 0 0 37.691406 0.445312 1 0 1
0 202 139 201 -1 0 0 34.011719 0.445312 1 0 1
brick_brick_ext_06_cheap
0 202 -332 176 -1 0 0 37.691406 0.25 1 0 1
0 202 139 201 -1 0 0 34.011719 0.445312 1 0 1
0 202 139 176 -1 0 0 34.011719 0.25 1 0 1
goldeneye_caverns_cavernsconcretefloor02
0 202 -332 201 0 0 1 92.71875 38.492188 1 0 1
0 212 -332 201 0 0 1 92.640625 38.492188 1 0 1
0 212 139 201 0 0 1 92.640625 34.8125 1 0 1
goldeneye_caverns_cavernsconcretefloor02
0 202 -332 201 0 0 1 92.71875 38.492188 1 0 1
0 212 139 201 0 0 1 92.640625 34.8125 1 0 1
0 202 139 201 0 0 1 92.71875 34.8125 1 0 1
goldeneye_caverns_cavernsconcretefloor02
0 97 -37 201 0 0 1 93.539062 36.1875 1 0 1
0 107 -37 201 0 0 1 93.460938 36.1875 1 0 1
0 107 139 201 0 0 1 93.460938 34.8125 1 0 1
goldeneye_caverns_cavernsconcretefloor02
0 97 -37 201 0 0 1 93.539062 36.1875 1 0 1
0 107 139 201 0 0 1 93.460938 34.8125 1 0 1
0 97 139 201 0 0 1 93.539062 34.8125 1 0 1
gmod_tower_cafe_cafe_brick
0 97 139 176 0 1 0 93.664062 -0.5625 1 0 1
0 97 139 201 0 1 0 93.664062 -0.367188 1 0 1
0 107 139 201 0 1 0 93.585938 -0.367188 1 0 1
gmod_tower_cafe_cafe_brick
0 97 139 176 0 1 0 93.664062 -0.5625 1 0 1
0 107 139 201 0 1 0 93.585938 -0.367188 1 0 1
0 107 139 176 0 1 0 93.585938 -0.5625 1 0 1
brick_brick_ext_06_cheap
0 107 -37 176 0 -1 0 -92.621094 0.25 1 0 1
0 107 -37 201 0 -1 0 -92.621094 0.445312 1 0 1
0 97 -37 201 0 -1 0 -92.699219 0.445312 1 0 1
brick_brick_ext_06_cheap
0 107 -37 176 0 -1 0 -92.621094 0.25 1 0 1
0 97 -37 201 0 -1 0 -92.699219 0.445312 1 0 1
0 97 -37 176 0 -1 0 -92.699219 0.25 1 0 1
brick_brick_ext_06_cheap
0 97 -37 176 -1 0 0 35.207031 0.25 1 0 1
0 97 -37 201 -1 0 0 35.207031 0.445312 1 0 1
0 97 139 201 -1 0 0 33.832031 0.445312 1 0 1
brick_brick_ext_06_cheap
0 97 -37 176 -1 0 0 35.207031 0.25 1 0 1
0 97 139 201 -1 0 0 33.832031 0.445312 1 0 1
0 97 139 176 -1 0 0 33.832031 0.25 1 0 1
brick_brick_ext_06_cheap
0 107 139 176 1 0 0 -34.246094 0.25 1 0 1
0 107 139 201 1 0 0 -34.246094 0.445312 1 0 1
0 107 -37 201 1 0 0 -35.621094 0.445312 1 0 1
brick_brick_ext_06_cheap
0 107 139 176 1 0 0 -34.246094 0.25 1 0 1
0 107 -37 201 1 0 0 -35.621094 0.445312 1 0 1
0 107 -37 176 1 0 0 -35.621094 0.25 1 0 1
metal_metalfireescape002a
0 -79 327 43 0 0 1 -134.910714 -91.05692 1 0 1
0 101 327 43 0 0 1 -132.901786 -91.05692 1 0 1
0 101 329 43 0 0 1 -132.901786 -91.012277 1 0 1
metal_metalfireescape002a
0 -79 327 43 0 0 1 -134.910714 -91.05692 1 0 1
0 101 329 43 0 0 1 -132.901786 -91.012277 1 0 1
0 -79 329 43 0 0 1 -134.910714 -91.012277 1 0 1
metal_metalfireescape002a
0 101 329 43 0 1 0 187.0625 -9 1 0 1
0 101 329 11 0 1 0 187.0625 -10 1 0 1
0 -79 329 11 0 1 0 189.875 -10 1 0 1
metal_metalfireescape002a
0 101 329 43 0 1 0 187.0625 -9 1 0 1
0 -79 329 11 0 1 0 189.875 -10 1 0 1
0 -79 329 43 0 1 0 189.875 -9 1 0 1
metal_metalfireescape002a
0 101 327 11 0 -1 0 -187.0625 -10 1 0 1
0 101 327 43 0 -1 0 -187.0625 -9 1 0 1
0 -79 327 43 0 -1 0 -189.875 -9 1 0 1
metal_metalfireescape002a
0 101 327 11 0 -1 0 -187.0625 -10 1 0 1
0 -79 327 43 0 -1 0 -189.875 -9 1 0 1
0 -79 327 11 0 -1 0 -189.875 -10 1 0 1
pepsi2_arch_stairs01
0 202 75 80 0 1 0 -185.683594 10 1 0 1
0 202 75 64 0 1 0 -185.683594 10.5 1 0 1
0 107 75 64 0 1 0 -187.167969 10.5 1 0 1
pepsi2_arch_stairs01
0 202 75 80 0 1 0 -185.683594 10 1 0 1
0 107 75 64 0 1 0 -187.167969 10.5 1 0 1
0 107 75 80 0 1 0 -187.167969 10 1 0 1
pepsi2_arch_stairs01
0 107 59 80 0 0 1 -187.167969 -136.5 1 0 1
0 202 59 80 0 0 1 -185.683594 -136.5 1 0 1
0 202 75 80 0 0 1 -185.683594 -136 1 0 1
pepsi2_arch_stairs01
0 107 59 80 0 0 1 -187.167969 -136.5 1 0 1
0 202 75 80 0 0 1 -185.683594 -136 1 0 1
0 107 75 80 0 0 1 -187.167969 -136 1 0 1
buildings_trim19
0 86 147 41 0 1 0 93.75 -3.25 1 0 1
0 86 147 39.001 0 1 0 93.75 -3.281234 1 0 1
0 -106 147 39.001 0 1 0 95.25 -3.281234 1 0 1
buildings_trim19
0 86 147 41 0 1 0 93.75 -3.25 1 0 1
0 -106 147 39.001 0 1 0 95.25 -3.281234 1 0 1
0 -106 147 41 0 1 0 95.25 -3.25 1 0 1
buildings_trim19
0 -106 139 31 -1 0 0 2.328125 68.503906 1 0 1
0 -106 139 41 -1 0 0 2.25 68.503906 1 0 1
0 -106 147 41 -1 0 0 2.25 68.378906 1 0 1
buildings_trim19
0 -106 139 31 -1 0 0 2.328125 68.503906 1 0 1
0 -106 147 41 -1 0 0 2.25 68.378906 1 0 1
0 -106 147 39.001 -1 0 0 2.265617 68.378906 1 0 1
buildings_trim19
0 -106 139 31 -1 0 0 2.328125 68.503906 1 0 1
0 -106 147 39.001 -1 0 0 2.265617 68.378906 1 0 1
0 -106 141 31 -1 0 0 2.328125 68.472656 1 0 1
buildings_trim19
0 86 139 41 1 0 0 -2.25 68.503906 1 0 1
0 86 139 31 1 0 0 -2.328125 68.503906 1 0 1
0 86 141 31 1 0 0 -2.328125 68.472656 1 0 1
buildings_trim19
0 86 139 41 1 0 0 -2.25 68.503906 1 0 1
0 86 141 31 1 0 0 -2.328125 68.472656 1 0 1
0 86 147 39.001 1 0 0 -2.265617 68.378906 1 0 1
buildings_trim19
0 86 139 41 1 0 0 -2.25 68.503906 1 0 1
0 86 147 39.001 1 0 0 -2.265617 68.378906 1 0 1
0 86 147 41 1 0 0 -2.25 68.378906 1 0 1
buildings_trim19
0 86 139 31 0 0 -1 93.75 -66.46875 1 0 1
0 -106 139 31 0 0 -1 95.25 -66.46875 1 0 1
0 -106 141 31 0 0 -1 95.25 -66.4375 1 0 1
buildings_trim19
0 86 139 31 0 0 -1 93.75 -66.46875 1 0 1
0 -106 141 31 0 0 -1 95.25 -66.4375 1 0 1
0 86 141 31 0 0 -1 93.75 -66.4375 1 0 1
buildings_trim19
0 -106 139 41 0 0 1 95.25 68.503906 1 0 1
0 86 139 41 0 0 1 93.75 68.503906 1 0 1
0 86 147 41 0 0 1 93.75 68.378906 1 0 1
buildings_trim19
0 -106 139 41 0 0 1 95.25 68.503906 1 0 1
0 86 147 41 0 0 1 93.75 68.378906 1 0 1
0 -106 147 41 0 0 1 95.25 68.378906 1 0 1
buildings_trim19
0 -106 141 31 0 0.800036 -0.599952 95.25 -44.438281 1 0 1
0 -106 147 39.001 0 0.800036 -0.599952 95.25 -44.282019 1 0 1
0 86 147 39.001 0 0.800036 -0.599952 93.75 -44.282019 1 0 1
buildings_trim19
0 -106 141 31 0 0.800036 -0.599952 95.25 -44.438281 1 0 1
0 86 147 39.001 0 0.800036 -0.599952 93.75 -44.282019 1 0 1
0 86 141 31 0 0.800036 -0.599952 93.75 -44.438281 1 0 1
pepsi2_arch_concrete_stair01
0 -79 331 43 0 1 0 94.46875 -1.205078 1 0 1
0 -79 331 0 0 1 0 94.46875 -1.541016 1 0 1
0 -85 331 0 0 1 0 94.515625 -1.541016 1 0 1
pepsi2_arch_concrete_stair01
0 -79 331 43 0 1 0 94.46875 -1.205078 1 0 1
0 -85 331 0 0 1 0 94.515625 -1.541016 1 0 1
0 -85 331 43 0 1 0 94.515625 -1.205078 1 0 1
pepsi2_arch_concrete_stair01
0 -79 325 0 0 -1 0 94.46875 -1.541016 1 0 1
0 -79 325 43 0 -1 0 94.46875 -1.205078 1 0 1
0 -85 325 43 0 -1 0 94.515625 -1.205078 1 0 1
pepsi2_arch_concrete_stair01
0 -79 325 0 0 -1 0 94.46875 -1.541016 1 0 1
0 -85 325 43 0 -1 0 94.515625 -1.205078 1 0 1
0 -85 325 0 0 -1 0 94.515625 -1.541016 1 0 1
pepsi2_arch_concrete_stair01
0 -85 325 0 -1 0 0 -32.484375 -1.541016 1 0 1
0 -85 325 43 -1 0 0 -32.484375 -1.205078 1 0 1
0 -85 331 43 -1 0 0 -32.4375 -1.205078 1 0 1
pepsi2_arch_concrete_stair01
0 -85 325 0 -1 0 0 -32.484375 -1.541016 1 0 1
0 -85 331 43 -1 0 0 -32.4375 -1.205078 1 0 1
0 -85 331 0 -1 0 0 -32.4375 -1.541016 1 0 1
pepsi2_arch_concrete_stair01
0 -79 325 43 1 0 0 32.46875 -1.205078 1 0 1
0 -79 325 0 1 0 0 32.46875 -1.541016 1 0 1
0 -79 331 0 1 0 0 32.421875 -1.541016 1 0 1
pepsi2_arch_concrete_stair01
0 -79 325 43 1 0 0 32.46875 -1.205078 1 0 1
0 -79 331 0 1 0 0 32.421875 -1.541016 1 0 1
0 -79 331 43 1 0 0 32.421875 -1.205078 1 0 1
pepsi2_arch_concrete_stair01
0 -85 325 43 0 0 1 -94.890625 -31.478516 1 0 1
0 -79 325 43 0 0 1 -94.84375 -31.478516 1 0 1
0 -79 331 43 0 0 1 -94.84375 -31.431641 1 0 1
pepsi2_arch_concrete_stair01
0 -85 325 43 0 0 1 -94.890625 -31.478516 1 0 1
0 -79 331 43 0 0 1 -94.84375 -31.431641 1 0 1
0 -85 331 43 0 0 1 -94.890625 -31.431641 1 0 1
pepsi2_arch_stairs01
0 202 11 144 0 1 0 -185.683594 8 1 0 1
0 202 11 128 0 1 0 -185.683594 8.5 1 0 1
0 107 11 128 0 1 0 -187.167969 8.5 1 0 1
pepsi2_arch_stairs01
0 202 11 144 0 1 0 -185.683594 8 1 0 1
0 107 11 128 0 1 0 -187.167969 8.5 1 0 1
0 107 11 144 0 1 0 -187.167969 8 1 0 1
pepsi2_arch_stairs01
0 202 -5 144 0 0 1 -185.683594 -138.5 1 0 1
0 202 11 144 0 0 1 -185.683594 -138 1 0 1
0 107 11 144 0 0 1 -187.167969 -138 1 0 1
pepsi2_arch_stairs01
0 202 -5 144 0 0 1 -185.683594 -138.5 1 0 1
0 107 11 144 0 0 1 -187.167969 -138 1 0 1
0 107 -5 144 0 0 1 -187.167969 -138.5 1 0 1
pepsi2_arch_stairs01
0 107 91 48 0 0 1 -187.167969 -135.5 1 0 1
0 202 91 48 0 0 1 -185.683594 -135.5 1 0 1
0 202 107 48 0 0 1 -185.683594 -135 1 0 1
pepsi2_arch_stairs01
0 107 91 48 0 0 1 -187.167969 -135.5 1 0 1
0 202 107 48 0 0 1 -185.683594 -135 1 0 1
0 107 107 48 0 0 1 -187.167969 -135 1 0 1
pepsi2_arch_stairs01
0 202 107 32 0 1 0 -185.683594 11.5 1 0 1
0 107 107 32 0 1 0 -187.167969 11.5 1 0 1
0 107 107 48 0 1 0 -187.167969 11 1 0 1
pepsi2_arch_stairs01
0 202 107 32 0 1 0 -185.683594 11.5 1 0 1
0 107 107 48 0 1 0 -187.167969 11 1 0 1
0 202 107 48 0 1 0 -185.683594 11 1 0 1
pepsi2_gta4_churchpanels
0 94 -243 0 -1 0 0 -73.738281 -4 1 0 1
0 94 -243 74 -1 0 0 -73.738281 -2.84375 1 0 1
0 94 127.54 74 -1 0 0 -67.948594 -2.84375 1 0 1
pepsi2_gta4_churchpanels
0 94 -243 0 -1 0 0 -73.738281 -4 1 0 1
0 94 127.54 74 -1 0 0 -67.948594 -2.84375 1 0 1
0 94 127.54 0 -1 0 0 -67.948594 -4 1 0 1
pepsi2_gta4_churchpanels
0 94 -243 74 0 0 1 -73.738281 -185.84375 1 0 1
0 97 -243 74 0 0 1 -73.738281 -185.796875 1 0 1
0 97 127.54 74 0 0 1 -67.948594 -185.796875 1 0 1
pepsi2_gta4_churchpanels
0 94 -243 74 0 0 1 -73.738281 -185.84375 1 0 1
0 97 127.54 74 0 0 1 -67.948594 -185.796875 1 0 1
0 94 127.54 74 0 0 1 -67.948594 -185.84375 1 0 1
pepsi2_arch_stairs01
0 107 -21 160 0 0 1 -187.167969 -138.5 1 0 1
0 202 -21 160 0 0 1 -185.683594 -138.5 1 0 1
0 202 -5 160 0 0 1 -185.683594 -138 1 0 1
pepsi2_arch_stairs01
0 107 -21 160 0 0 1 -187.167969 -138.5 1 0 1
0 202 -5 160 0 0 1 -185.683594 -138 1 0 1
0 107 -5 160 0 0 1 -187.167969 -138 1 0 1
pepsi2_arch_stairs01
0 202 -5 160 0 1 0 -185.683594 7.5 1 0 1
0 202 -5 144 0 1 0 -185.683594 8 1 0 1
0 107 -5 144 0 1 0 -187.167969 8 1 0 1
pepsi2_arch_stairs01
0 202 -5 160 0 1 0 -185.683594 7.5 1 0 1
0 107 -5 144 0 1 0 -187.167969 8 1 0 1
0 107 -5 160 0 1 0 -187.167969 7.5 1 0 1
pepsi2_arch_stairs01
0 202 123 16 0 0 1 -185.683594 -134.5 1 0 1
0 202 139 16 0 0 1 -185.683594 -134 1 0 1
0 107 139 16 0 0 1 -187.167969 -134 1 0 1
pepsi2_arch_stairs01
0 202 123 16 0 0 1 -185.683594 -134.5 1 0 1
0 107 139 16 0 0 1 -187.167969 -134 1 0 1
0 107 123 16 0 0 1 -187.167969 -134.5 1 0 1
pepsi2_arch_stairs01
0 202 139 16 0 1 0 -185.683594 12 1 0 1
0 202 139 0 0 1 0 -185.683594 12.5 1 0 1
0 107 139 0 0 1 0 -187.167969 12.5 1 0 1
pepsi2_arch_stairs01
0 202 139 16 0 1 0 -185.683594 12 1 0 1
0 107 139 0 0 1 0 -187.167969 12.5 1 0 1
0 107 139 16 0 1 0 -187.167969 12 1 0 1
pepsi2_arch_stairs01
0 202 -21 176 0 1 0 -185.683594 7 1 0 1
0 202 -21 160 0 1 0 -185.683594 7.5 1 0 1
0 107 -21 160 0 1 0 -187.167969 7.5 1 0 1
pepsi2_arch_stairs01
0 202 -21 176 0 1 0 -185.683594 7 1 0 1
0 107 -21 160 0 1 0 -187.167969 7.5 1 0 1
0 107 -21 176 0 1 0 -187.167969 7 1 0 1
pepsi2_arch_stairs01
0 202 -37 176 0 0 1 -185.683594 -139.5 1 0 1
0 202 -21 176 0 0 1 -185.683594 -139 1 0 1
0 107 -21 176 0 0 1 -187.167969 -139 1 0 1
pepsi2_arch_stairs01
0 202 -37 176 0 0 1 -185.683594 -139.5 1 0 1
0 107 -21 176 0 0 1 -187.167969 -139 1 0 1
0 107 -37 176 0 0 1 -187.167969 -139.5 1 0 1
pepsi2_arch_concrete_stair01
0 101 325 43 0 0 1 32.15625 -92.478516 1 0 1
0 107 325 43 0 0 1 32.15625 -92.431641 1 0 1
0 107 331 43 0 0 1 32.109375 -92.431641 1 0 1
pepsi2_arch_concrete_stair01
0 101 325 43 0 0 1 32.15625 -92.478516 1 0 1
0 107 331 43 0 0 1 32.109375 -92.431641 1 0 1
0 101 331 43 0 0 1 32.109375 -92.478516 1 0 1
pepsi2_arch_concrete_stair01
0 101 331 0 0 1 0 -93.484375 -1.541016 1 0 1
0 101 331 43 0 1 0 -93.484375 -1.205078 1 0 1
0 107 331 43 0 1 0 -93.4375 -1.205078 1 0 1
pepsi2_arch_concrete_stair01
0 101 331 0 0 1 0 -93.484375 -1.541016 1 0 1
0 107 331 43 0 1 0 -93.4375 -1.205078 1 0 1
0 107 331 0 0 1 0 -93.4375 -1.541016 1 0 1
pepsi2_arch_concrete_stair01
0 107 325 0 0 -1 0 93.421875 -1.541016 1 0 1
0 107 325 43 0 -1 0 93.421875 -1.205078 1 0 1
0 101 325 43 0 -1 0 93.46875 -1.205078 1 0 1
pepsi2_arch_concrete_stair01
0 107 325 0 0 -1 0 93.421875 -1.541016 1 0 1
0 101 325 43 0 -1 0 93.46875 -1.205078 1 0 1
0 101 325 0 0 -1 0 93.46875 -1.541016 1 0 1
pepsi2_arch_concrete_stair01
0 101 325 0 -1 0 0 -32.53125 -1.541016 1 0 1
0 101 325 43 -1 0 0 -32.53125 -1.205078 1 0 1
0 101 331 43 -1 0 0 -32.484375 -1.205078 1 0 1
pepsi2_arch_concrete_stair01
0 101 325 0 -1 0 0 -32.53125 -1.541016 1 0 1
0 101 331 43 -1 0 0 -32.484375 -1.205078 1 0 1
0 101 331 0 -1 0 0 -32.484375 -1.541016 1 0 1
pepsi2_arch_concrete_stair01
0 107 331 0 1 0 0 -32.484375 -1.541016 1 0 1
0 107 331 43 1 0 0 -32.484375 -1.205078 1 0 1
0 107 325 43 1 0 0 -32.53125 -1.205078 1 0 1
pepsi2_arch_concrete_stair01
0 107 331 0 1 0 0 -32.484375 -1.541016 1 0 1
0 107 325 43 1 0 0 -32.53125 -1.205078 1 0 1
0 107 325 0 1 0 0 -32.53125 -1.541016 1 0 1
pepsi2_arch_concrete_stair01
0 101 145 0 -1 0 0 -33.9375 -1.541016 1 0 1
0 101 145 11 -1 0 0 -33.9375 -1.455078 1 0 1
0 101 325 11 -1 0 0 -32.53125 -1.455078 1 0 1
pepsi2_arch_concrete_stair01
0 101 145 0 -1 0 0 -33.9375 -1.541016 1 0 1
0 101 325 11 -1 0 0 -32.53125 -1.455078 1 0 1
0 101 325 0 -1 0 0 -32.53125 -1.541016 1 0 1
pepsi2_arch_concrete_stair01
0 107 145 11 1 0 0 -33.9375 -1.455078 1 0 1
0 107 145 0 1 0 0 -33.9375 -1.541016 1 0 1
0 107 325 0 1 0 0 -32.53125 -1.541016 1 0 1
pepsi2_arch_concrete_stair01
0 107 145 11 1 0 0 -33.9375 -1.455078 1 0 1
0 107 325 0 1 0 0 -32.53125 -1.541016 1 0 1
0 107 325 11 1 0 0 -32.53125 -1.455078 1 0 1
pepsi2_arch_concrete_stair01
0 101 145 11 0 0 1 -33.9375 -92.455078 1 0 1
0 107 145 11 0 0 1 -33.9375 -92.408203 1 0 1
0 107 325 11 0 0 1 -32.53125 -92.408203 1 0 1
pepsi2_arch_concrete_stair01
0 101 145 11 0 0 1 -33.9375 -92.455078 1 0 1
0 107 325 11 0 0 1 -32.53125 -92.408203 1 0 1
0 101 325 11 0 0 1 -32.53125 -92.455078 1 0 1
end
