version 1
nodes
0 "root" -1
end
skeleton
time 0
0 0 0 0 0 0 0
end
triangles
phys
0 -234 120 99 0 0 1 1 0 1 0 1
0 -234 120 31 0 0 1 1 0 1 0 1
0 -236 120 31 0 0 1 1 0 1 0 1
phys
0 -234 120 99 0 0 1 1 0 1 0 1
0 -236 120 31 0 0 1 1 0 1 0 1
0 -236 120 99 0 0 1 1 0 1 0 1
phys
0 -234 112 31 0 0 1 1 0 1 0 1
0 -234 112 99 0 0 1 1 0 1 0 1
0 -236 112 99 0 0 1 1 0 1 0 1
phys
0 -234 112 31 0 0 1 1 0 1 0 1
0 -236 112 99 0 0 1 1 0 1 0 1
0 -236 112 31 0 0 1 1 0 1 0 1
phys
0 -236 112 31 0 0 1 1 0 1 0 1
0 -236 112 99 0 0 1 1 0 1 0 1
0 -236 120 99 0 0 1 1 0 1 0 1
phys
0 -236 112 31 0 0 1 1 0 1 0 1
0 -236 120 99 0 0 1 1 0 1 0 1
0 -236 120 31 0 0 1 1 0 1 0 1
phys
0 -234 112 99 0 0 1 1 0 1 0 1
0 -234 112 31 0 0 1 1 0 1 0 1
0 -234 120 31 0 0 1 1 0 1 0 1
phys
0 -234 112 99 0 0 1 1 0 1 0 1
0 -234 120 31 0 0 1 1 0 1 0 1
0 -234 120 99 0 0 1 1 0 1 0 1
phys
0 -234 112 31 0 0 1 1 0 1 0 1
0 -236 112 31 0 0 1 1 0 1 0 1
0 -236 120 31 0 0 1 1 0 1 0 1
phys
0 -234 112 31 0 0 1 1 0 1 0 1
0 -236 120 31 0 0 1 1 0 1 0 1
0 -234 120 31 0 0 1 1 0 1 0 1
phys
0 -236 112 99 0 0 1 1 0 1 0 1
0 -234 112 99 0 0 1 1 0 1 0 1
0 -234 120 99 0 0 1 1 0 1 0 1
phys
0 -236 112 99 0 0 1 1 0 1 0 1
0 -234 120 99 0 0 1 1 0 1 0 1
0 -236 120 99 0 0 1 1 0 1 0 1
phys
0 -56 120 56.996 0 0 1 2 0 1 0 1
0 -56 120 1 0 0 1 2 0 1 0 1
0 -100 120 1 0 0 1 2 0 1 0 1
phys
0 -56 120 56.996 0 0 1 2 0 1 0 1
0 -100 120 1 0 0 1 2 0 1 0 1
0 -100 120 56.996 0 0 1 2 0 1 0 1
phys
0 -56 112 1 0 0 1 2 0 1 0 1
0 -56 112 64.996 0 0 1 2 0 1 0 1
0 -100 112 64.996 0 0 1 2 0 1 0 1
phys
0 -56 112 1 0 0 1 2 0 1 0 1
0 -100 112 64.996 0 0 1 2 0 1 0 1
0 -100 112 1 0 0 1 2 0 1 0 1
phys
0 -100 112 1 0 0 1 2 0 1 0 1
0 -100 112 64.996 0 0 1 2 0 1 0 1
0 -100 120 56.996 0 0 1 2 0 1 0 1
phys
0 -100 112 1 0 0 1 2 0 1 0 1
0 -100 120 56.996 0 0 1 2 0 1 0 1
0 -100 120 1 0 0 1 2 0 1 0 1
phys
0 -56 112 64.996 0 0 1 2 0 1 0 1
0 -56 112 1 0 0 1 2 0 1 0 1
0 -56 120 1 0 0 1 2 0 1 0 1
phys
0 -56 112 64.996 0 0 1 2 0 1 0 1
0 -56 120 1 0 0 1 2 0 1 0 1
0 -56 120 56.996 0 0 1 2 0 1 0 1
phys
0 -56 112 1 0 0 1 2 0 1 0 1
0 -100 112 1 0 0 1 2 0 1 0 1
0 -100 120 1 0 0 1 2 0 1 0 1
phys
0 -56 112 1 0 0 1 2 0 1 0 1
0 -100 120 1 0 0 1 2 0 1 0 1
0 -56 120 1 0 0 1 2 0 1 0 1
phys
0 -100 112 64.996 0 0 1 2 0 1 0 1
0 -56 112 64.996 0 0 1 2 0 1 0 1
0 -56 120 56.996 0 0 1 2 0 1 0 1
phys
0 -100 112 64.996 0 0 1 2 0 1 0 1
0 -56 120 56.996 0 0 1 2 0 1 0 1
0 -100 120 56.996 0 0 1 2 0 1 0 1
phys
0 -156 120 159 0 0 1 3 0 1 0 1
0 -156 120 157 0 0 1 3 0 1 0 1
0 -236 120 157 0 0 1 3 0 1 0 1
phys
0 -156 120 159 0 0 1 3 0 1 0 1
0 -236 120 157 0 0 1 3 0 1 0 1
0 -236 120 159 0 0 1 3 0 1 0 1
phys
0 -156 112 157 0 0 1 3 0 1 0 1
0 -156 112 159 0 0 1 3 0 1 0 1
0 -236 112 159 0 0 1 3 0 1 0 1
phys
0 -156 112 157 0 0 1 3 0 1 0 1
0 -236 112 159 0 0 1 3 0 1 0 1
0 -236 112 157 0 0 1 3 0 1 0 1
phys
0 -236 112 157 0 0 1 3 0 1 0 1
0 -236 112 159 0 0 1 3 0 1 0 1
0 -236 120 159 0 0 1 3 0 1 0 1
phys
0 -236 112 157 0 0 1 3 0 1 0 1
0 -236 120 159 0 0 1 3 0 1 0 1
0 -236 120 157 0 0 1 3 0 1 0 1
phys
0 -156 112 159 0 0 1 3 0 1 0 1
0 -156 112 157 0 0 1 3 0 1 0 1
0 -156 120 157 0 0 1 3 0 1 0 1
phys
0 -156 112 159 0 0 1 3 0 1 0 1
0 -156 120 157 0 0 1 3 0 1 0 1
0 -156 120 159 0 0 1 3 0 1 0 1
phys
0 -156 112 157 0 0 1 3 0 1 0 1
0 -236 112 157 0 0 1 3 0 1 0 1
0 -236 120 157 0 0 1 3 0 1 0 1
phys
0 -156 112 157 0 0 1 3 0 1 0 1
0 -236 120 157 0 0 1 3 0 1 0 1
0 -156 120 157 0 0 1 3 0 1 0 1
phys
0 -236 112 159 0 0 1 3 0 1 0 1
0 -156 112 159 0 0 1 3 0 1 0 1
0 -156 120 159 0 0 1 3 0 1 0 1
phys
0 -236 112 159 0 0 1 3 0 1 0 1
0 -156 120 159 0 0 1 3 0 1 0 1
0 -236 120 159 0 0 1 3 0 1 0 1
phys
0 -156 120 101 0 0 1 4 0 1 0 1
0 -156 120 99 0 0 1 4 0 1 0 1
0 -236 120 99 0 0 1 4 0 1 0 1
phys
0 -156 120 101 0 0 1 4 0 1 0 1
0 -236 120 99 0 0 1 4 0 1 0 1
0 -236 120 101 0 0 1 4 0 1 0 1
phys
0 -156 112 99 0 0 1 4 0 1 0 1
0 -156 112 101 0 0 1 4 0 1 0 1
0 -236 112 101 0 0 1 4 0 1 0 1
phys
0 -156 112 99 0 0 1 4 0 1 0 1
0 -236 112 101 0 0 1 4 0 1 0 1
0 -236 112 99 0 0 1 4 0 1 0 1
phys
0 -236 112 99 0 0 1 4 0 1 0 1
0 -236 112 101 0 0 1 4 0 1 0 1
0 -236 120 101 0 0 1 4 0 1 0 1
phys
0 -236 112 99 0 0 1 4 0 1 0 1
0 -236 120 101 0 0 1 4 0 1 0 1
0 -236 120 99 0 0 1 4 0 1 0 1
phys
0 -156 112 101 0 0 1 4 0 1 0 1
0 -156 112 99 0 0 1 4 0 1 0 1
0 -156 120 99 0 0 1 4 0 1 0 1
phys
0 -156 112 101 0 0 1 4 0 1 0 1
0 -156 120 99 0 0 1 4 0 1 0 1
0 -156 120 101 0 0 1 4 0 1 0 1
phys
0 -156 112 99 0 0 1 4 0 1 0 1
0 -236 112 99 0 0 1 4 0 1 0 1
0 -236 120 99 0 0 1 4 0 1 0 1
phys
0 -156 112 99 0 0 1 4 0 1 0 1
0 -236 120 99 0 0 1 4 0 1 0 1
0 -156 120 99 0 0 1 4 0 1 0 1
phys
0 -236 112 101 0 0 1 4 0 1 0 1
0 -156 112 101 0 0 1 4 0 1 0 1
0 -156 120 101 0 0 1 4 0 1 0 1
phys
0 -236 112 101 0 0 1 4 0 1 0 1
0 -156 120 101 0 0 1 4 0 1 0 1
0 -236 120 101 0 0 1 4 0 1 0 1
phys
0 -195 120 99 0 0 1 5 0 1 0 1
0 -195 120 31 0 0 1 5 0 1 0 1
0 -197 120 31 0 0 1 5 0 1 0 1
phys
0 -195 120 99 0 0 1 5 0 1 0 1
0 -197 120 31 0 0 1 5 0 1 0 1
0 -197 120 99 0 0 1 5 0 1 0 1
phys
0 -195 116 31 0 0 1 5 0 1 0 1
0 -195 116 99 0 0 1 5 0 1 0 1
0 -197 116 99 0 0 1 5 0 1 0 1
phys
0 -195 116 31 0 0 1 5 0 1 0 1
0 -197 116 99 0 0 1 5 0 1 0 1
0 -197 116 31 0 0 1 5 0 1 0 1
phys
0 -197 116 31 0 0 1 5 0 1 0 1
0 -197 116 99 0 0 1 5 0 1 0 1
0 -197 120 99 0 0 1 5 0 1 0 1
phys
0 -197 116 31 0 0 1 5 0 1 0 1
0 -197 120 99 0 0 1 5 0 1 0 1
0 -197 120 31 0 0 1 5 0 1 0 1
phys
0 -195 116 99 0 0 1 5 0 1 0 1
0 -195 116 31 0 0 1 5 0 1 0 1
0 -195 120 31 0 0 1 5 0 1 0 1
phys
0 -195 116 99 0 0 1 5 0 1 0 1
0 -195 120 31 0 0 1 5 0 1 0 1
0 -195 120 99 0 0 1 5 0 1 0 1
phys
0 -195 116 31 0 0 1 5 0 1 0 1
0 -197 116 31 0 0 1 5 0 1 0 1
0 -197 120 31 0 0 1 5 0 1 0 1
phys
0 -195 116 31 0 0 1 5 0 1 0 1
0 -197 120 31 0 0 1 5 0 1 0 1
0 -195 120 31 0 0 1 5 0 1 0 1
phys
0 -197 116 99 0 0 1 5 0 1 0 1
0 -195 116 99 0 0 1 5 0 1 0 1
0 -195 120 99 0 0 1 5 0 1 0 1
phys
0 -197 116 99 0 0 1 5 0 1 0 1
0 -195 120 99 0 0 1 5 0 1 0 1
0 -197 120 99 0 0 1 5 0 1 0 1
phys
0 -156 120 31 0 0 1 6 0 1 0 1
0 -156 120 29 0 0 1 6 0 1 0 1
0 -236 120 29 0 0 1 6 0 1 0 1
phys
0 -156 120 31 0 0 1 6 0 1 0 1
0 -236 120 29 0 0 1 6 0 1 0 1
0 -236 120 31 0 0 1 6 0 1 0 1
phys
0 -156 112 29 0 0 1 6 0 1 0 1
0 -156 112 31 0 0 1 6 0 1 0 1
0 -236 112 31 0 0 1 6 0 1 0 1
phys
0 -156 112 29 0 0 1 6 0 1 0 1
0 -236 112 31 0 0 1 6 0 1 0 1
0 -236 112 29 0 0 1 6 0 1 0 1
phys
0 -236 112 29 0 0 1 6 0 1 0 1
0 -236 112 31 0 0 1 6 0 1 0 1
0 -236 120 31 0 0 1 6 0 1 0 1
phys
0 -236 112 29 0 0 1 6 0 1 0 1
0 -236 120 31 0 0 1 6 0 1 0 1
0 -236 120 29 0 0 1 6 0 1 0 1
phys
0 -156 112 31 0 0 1 6 0 1 0 1
0 -156 112 29 0 0 1 6 0 1 0 1
0 -156 120 29 0 0 1 6 0 1 0 1
phys
0 -156 112 31 0 0 1 6 0 1 0 1
0 -156 120 29 0 0 1 6 0 1 0 1
0 -156 120 31 0 0 1 6 0 1 0 1
phys
0 -156 112 29 0 0 1 6 0 1 0 1
0 -236 112 29 0 0 1 6 0 1 0 1
0 -236 120 29 0 0 1 6 0 1 0 1
phys
0 -156 112 29 0 0 1 6 0 1 0 1
0 -236 120 29 0 0 1 6 0 1 0 1
0 -156 120 29 0 0 1 6 0 1 0 1
phys
0 -236 112 31 0 0 1 6 0 1 0 1
0 -156 112 31 0 0 1 6 0 1 0 1
0 -156 120 31 0 0 1 6 0 1 0 1
phys
0 -236 112 31 0 0 1 6 0 1 0 1
0 -156 120 31 0 0 1 6 0 1 0 1
0 -236 120 31 0 0 1 6 0 1 0 1
phys
0 -234 120 227 0 0 1 7 0 1 0 1
0 -234 120 159 0 0 1 7 0 1 0 1
0 -236 120 159 0 0 1 7 0 1 0 1
phys
0 -234 120 227 0 0 1 7 0 1 0 1
0 -236 120 159 0 0 1 7 0 1 0 1
0 -236 120 227 0 0 1 7 0 1 0 1
phys
0 -234 112 159 0 0 1 7 0 1 0 1
0 -234 112 227 0 0 1 7 0 1 0 1
0 -236 112 227 0 0 1 7 0 1 0 1
phys
0 -234 112 159 0 0 1 7 0 1 0 1
0 -236 112 227 0 0 1 7 0 1 0 1
0 -236 112 159 0 0 1 7 0 1 0 1
phys
0 -236 112 159 0 0 1 7 0 1 0 1
0 -236 112 227 0 0 1 7 0 1 0 1
0 -236 120 227 0 0 1 7 0 1 0 1
phys
0 -236 112 159 0 0 1 7 0 1 0 1
0 -236 120 227 0 0 1 7 0 1 0 1
0 -236 120 159 0 0 1 7 0 1 0 1
phys
0 -234 112 227 0 0 1 7 0 1 0 1
0 -234 112 159 0 0 1 7 0 1 0 1
0 -234 120 159 0 0 1 7 0 1 0 1
phys
0 -234 112 227 0 0 1 7 0 1 0 1
0 -234 120 159 0 0 1 7 0 1 0 1
0 -234 120 227 0 0 1 7 0 1 0 1
phys
0 -234 112 159 0 0 1 7 0 1 0 1
0 -236 112 159 0 0 1 7 0 1 0 1
0 -236 120 159 0 0 1 7 0 1 0 1
phys
0 -234 112 159 0 0 1 7 0 1 0 1
0 -236 120 159 0 0 1 7 0 1 0 1
0 -234 120 159 0 0 1 7 0 1 0 1
phys
0 -236 112 227 0 0 1 7 0 1 0 1
0 -234 112 227 0 0 1 7 0 1 0 1
0 -234 120 227 0 0 1 7 0 1 0 1
phys
0 -236 112 227 0 0 1 7 0 1 0 1
0 -234 120 227 0 0 1 7 0 1 0 1
0 -236 120 227 0 0 1 7 0 1 0 1
phys
0 236 120 56.996 0 0 1 8 0 1 0 1
0 236 120 1 0 0 1 8 0 1 0 1
0 0 120 1 0 0 1 8 0 1 0 1
phys
0 236 120 56.996 0 0 1 8 0 1 0 1
0 0 120 1 0 0 1 8 0 1 0 1
0 0 120 56.996 0 0 1 8 0 1 0 1
phys
0 236 112 1 0 0 1 8 0 1 0 1
0 236 112 64.996 0 0 1 8 0 1 0 1
0 0 112 64.996 0 0 1 8 0 1 0 1
phys
0 236 112 1 0 0 1 8 0 1 0 1
0 0 112 64.996 0 0 1 8 0 1 0 1
0 0 112 1 0 0 1 8 0 1 0 1
phys
0 0 112 1 0 0 1 8 0 1 0 1
0 0 112 64.996 0 0 1 8 0 1 0 1
0 0 120 56.996 0 0 1 8 0 1 0 1
phys
0 0 112 1 0 0 1 8 0 1 0 1
0 0 120 56.996 0 0 1 8 0 1 0 1
0 0 120 1 0 0 1 8 0 1 0 1
phys
0 236 112 64.996 0 0 1 8 0 1 0 1
0 236 112 1 0 0 1 8 0 1 0 1
0 236 120 1 0 0 1 8 0 1 0 1
phys
0 236 112 64.996 0 0 1 8 0 1 0 1
0 236 120 1 0 0 1 8 0 1 0 1
0 236 120 56.996 0 0 1 8 0 1 0 1
phys
0 236 112 1 0 0 1 8 0 1 0 1
0 0 112 1 0 0 1 8 0 1 0 1
0 0 120 1 0 0 1 8 0 1 0 1
phys
0 236 112 1 0 0 1 8 0 1 0 1
0 0 120 1 0 0 1 8 0 1 0 1
0 236 120 1 0 0 1 8 0 1 0 1
phys
0 0 112 64.996 0 0 1 8 0 1 0 1
0 236 112 64.996 0 0 1 8 0 1 0 1
0 236 120 56.996 0 0 1 8 0 1 0 1
phys
0 0 112 64.996 0 0 1 8 0 1 0 1
0 236 120 56.996 0 0 1 8 0 1 0 1
0 0 120 56.996 0 0 1 8 0 1 0 1
phys
0 -4 104 109 0 0 1 9 0 1 0 1
0 -4 112 109 0 0 1 9 0 1 0 1
0 -4 112 0.5 0 0 1 9 0 1 0 1
phys
0 -4 104 109 0 0 1 9 0 1 0 1
0 -4 112 0.5 0 0 1 9 0 1 0 1
0 -4 104 0.5 0 0 1 9 0 1 0 1
phys
0 0 104 0.5 0 0 1 9 0 1 0 1
0 0 112 0.5 0 0 1 9 0 1 0 1
0 0 112 113 0 0 1 9 0 1 0 1
phys
0 0 104 0.5 0 0 1 9 0 1 0 1
0 0 112 113 0 0 1 9 0 1 0 1
0 0 104 113 0 0 1 9 0 1 0 1
phys
0 -4 104 0.5 0 0 1 9 0 1 0 1
0 -4 112 0.5 0 0 1 9 0 1 0 1
0 0 112 0.5 0 0 1 9 0 1 0 1
phys
0 -4 104 0.5 0 0 1 9 0 1 0 1
0 0 112 0.5 0 0 1 9 0 1 0 1
0 0 104 0.5 0 0 1 9 0 1 0 1
phys
0 0 104 113 0 0 1 9 0 1 0 1
0 0 112 113 0 0 1 9 0 1 0 1
0 -4 112 109 0 0 1 9 0 1 0 1
phys
0 0 104 113 0 0 1 9 0 1 0 1
0 -4 112 109 0 0 1 9 0 1 0 1
0 -4 104 109 0 0 1 9 0 1 0 1
phys
0 0 112 113 0 0 1 9 0 1 0 1
0 0 112 0.5 0 0 1 9 0 1 0 1
0 -4 112 0.5 0 0 1 9 0 1 0 1
phys
0 0 112 113 0 0 1 9 0 1 0 1
0 -4 112 0.5 0 0 1 9 0 1 0 1
0 -4 112 109 0 0 1 9 0 1 0 1
phys
0 0 104 0.5 0 0 1 9 0 1 0 1
0 0 104 113 0 0 1 9 0 1 0 1
0 -4 104 109 0 0 1 9 0 1 0 1
phys
0 0 104 0.5 0 0 1 9 0 1 0 1
0 -4 104 109 0 0 1 9 0 1 0 1
0 -4 104 0.5 0 0 1 9 0 1 0 1
phys
0 -156 112 159 0 0 1 10 0 1 0 1
0 -158 112 159 0 0 1 10 0 1 0 1
0 -158 120 159 0 0 1 10 0 1 0 1
phys
0 -156 112 159 0 0 1 10 0 1 0 1
0 -158 120 159 0 0 1 10 0 1 0 1
0 -156 120 159 0 0 1 10 0 1 0 1
phys
0 -158 112 227 0 0 1 10 0 1 0 1
0 -156 112 227 0 0 1 10 0 1 0 1
0 -156 120 227 0 0 1 10 0 1 0 1
phys
0 -158 112 227 0 0 1 10 0 1 0 1
0 -156 120 227 0 0 1 10 0 1 0 1
0 -158 120 227 0 0 1 10 0 1 0 1
phys
0 -156 120 159 0 0 1 10 0 1 0 1
0 -158 120 159 0 0 1 10 0 1 0 1
0 -158 120 227 0 0 1 10 0 1 0 1
phys
0 -156 120 159 0 0 1 10 0 1 0 1
0 -158 120 227 0 0 1 10 0 1 0 1
0 -156 120 227 0 0 1 10 0 1 0 1
phys
0 -156 112 227 0 0 1 10 0 1 0 1
0 -158 112 227 0 0 1 10 0 1 0 1
0 -158 112 159 0 0 1 10 0 1 0 1
phys
0 -156 112 227 0 0 1 10 0 1 0 1
0 -158 112 159 0 0 1 10 0 1 0 1
0 -156 112 159 0 0 1 10 0 1 0 1
phys
0 -158 112 227 0 0 1 10 0 1 0 1
0 -158 120 227 0 0 1 10 0 1 0 1
0 -158 120 159 0 0 1 10 0 1 0 1
phys
0 -158 112 227 0 0 1 10 0 1 0 1
0 -158 120 159 0 0 1 10 0 1 0 1
0 -158 112 159 0 0 1 10 0 1 0 1
phys
0 -156 112 159 0 0 1 10 0 1 0 1
0 -156 120 159 0 0 1 10 0 1 0 1
0 -156 120 227 0 0 1 10 0 1 0 1
phys
0 -156 112 159 0 0 1 10 0 1 0 1
0 -156 120 227 0 0 1 10 0 1 0 1
0 -156 112 227 0 0 1 10 0 1 0 1
phys
0 -236 112 229 0 0 1 11 0 1 0 1
0 -156 112 229 0 0 1 11 0 1 0 1
0 -156 120 229 0 0 1 11 0 1 0 1
phys
0 -236 112 229 0 0 1 11 0 1 0 1
0 -156 120 229 0 0 1 11 0 1 0 1
0 -236 120 229 0 0 1 11 0 1 0 1
phys
0 -236 120 227 0 0 1 11 0 1 0 1
0 -236 120 229 0 0 1 11 0 1 0 1
0 -156 120 229 0 0 1 11 0 1 0 1
phys
0 -236 120 227 0 0 1 11 0 1 0 1
0 -156 120 229 0 0 1 11 0 1 0 1
0 -156 120 227 0 0 1 11 0 1 0 1
phys
0 -156 112 227 0 0 1 11 0 1 0 1
0 -156 112 229 0 0 1 11 0 1 0 1
0 -236 112 229 0 0 1 11 0 1 0 1
phys
0 -156 112 227 0 0 1 11 0 1 0 1
0 -236 112 229 0 0 1 11 0 1 0 1
0 -236 112 227 0 0 1 11 0 1 0 1
phys
0 -236 112 227 0 0 1 11 0 1 0 1
0 -236 112 229 0 0 1 11 0 1 0 1
0 -236 120 229 0 0 1 11 0 1 0 1
phys
0 -236 112 227 0 0 1 11 0 1 0 1
0 -236 120 229 0 0 1 11 0 1 0 1
0 -236 120 227 0 0 1 11 0 1 0 1
phys
0 -156 120 227 0 0 1 11 0 1 0 1
0 -156 120 229 0 0 1 11 0 1 0 1
0 -156 112 229 0 0 1 11 0 1 0 1
phys
0 -156 120 227 0 0 1 11 0 1 0 1
0 -156 112 229 0 0 1 11 0 1 0 1
0 -156 112 227 0 0 1 11 0 1 0 1
phys
0 -156 112 227 0 0 1 11 0 1 0 1
0 -236 112 227 0 0 1 11 0 1 0 1
0 -236 120 227 0 0 1 11 0 1 0 1
phys
0 -156 112 227 0 0 1 11 0 1 0 1
0 -236 120 227 0 0 1 11 0 1 0 1
0 -156 120 227 0 0 1 11 0 1 0 1
phys
0 -156 112 31 0 0 1 12 0 1 0 1
0 -156 112 99 0 0 1 12 0 1 0 1
0 -158 112 99 0 0 1 12 0 1 0 1
phys
0 -156 112 31 0 0 1 12 0 1 0 1
0 -158 112 99 0 0 1 12 0 1 0 1
0 -158 112 31 0 0 1 12 0 1 0 1
phys
0 -158 112 31 0 0 1 12 0 1 0 1
0 -158 112 99 0 0 1 12 0 1 0 1
0 -158 120 99 0 0 1 12 0 1 0 1
phys
0 -158 112 31 0 0 1 12 0 1 0 1
0 -158 120 99 0 0 1 12 0 1 0 1
0 -158 120 31 0 0 1 12 0 1 0 1
phys
0 -156 112 99 0 0 1 12 0 1 0 1
0 -156 112 31 0 0 1 12 0 1 0 1
0 -156 120 31 0 0 1 12 0 1 0 1
phys
0 -156 112 99 0 0 1 12 0 1 0 1
0 -156 120 31 0 0 1 12 0 1 0 1
0 -156 120 99 0 0 1 12 0 1 0 1
phys
0 -156 112 31 0 0 1 12 0 1 0 1
0 -158 112 31 0 0 1 12 0 1 0 1
0 -158 120 31 0 0 1 12 0 1 0 1
phys
0 -156 112 31 0 0 1 12 0 1 0 1
0 -158 120 31 0 0 1 12 0 1 0 1
0 -156 120 31 0 0 1 12 0 1 0 1
phys
0 -158 112 99 0 0 1 12 0 1 0 1
0 -156 112 99 0 0 1 12 0 1 0 1
0 -156 120 99 0 0 1 12 0 1 0 1
phys
0 -158 112 99 0 0 1 12 0 1 0 1
0 -156 120 99 0 0 1 12 0 1 0 1
0 -158 120 99 0 0 1 12 0 1 0 1
phys
0 -156 120 99 0 0 1 12 0 1 0 1
0 -156 120 31 0 0 1 12 0 1 0 1
0 -158 120 31 0 0 1 12 0 1 0 1
phys
0 -156 120 99 0 0 1 12 0 1 0 1
0 -158 120 31 0 0 1 12 0 1 0 1
0 -158 120 99 0 0 1 12 0 1 0 1
phys
0 -52 112 109.001 0 0 1 13 0 1 0 1
0 -52 112 0.5 0 0 1 13 0 1 0 1
0 -56 112 0.5 0 0 1 13 0 1 0 1
phys
0 -52 112 109.001 0 0 1 13 0 1 0 1
0 -56 112 0.5 0 0 1 13 0 1 0 1
0 -56 112 113.001 0 0 1 13 0 1 0 1
phys
0 -52 104 0.5 0 0 1 13 0 1 0 1
0 -52 104 109.001 0 0 1 13 0 1 0 1
0 -56 104 113.001 0 0 1 13 0 1 0 1
phys
0 -52 104 0.5 0 0 1 13 0 1 0 1
0 -56 104 113.001 0 0 1 13 0 1 0 1
0 -56 104 0.5 0 0 1 13 0 1 0 1
phys
0 -56 104 0.5 0 0 1 13 0 1 0 1
0 -56 104 113.001 0 0 1 13 0 1 0 1
0 -56 112 113.001 0 0 1 13 0 1 0 1
phys
0 -56 104 0.5 0 0 1 13 0 1 0 1
0 -56 112 113.001 0 0 1 13 0 1 0 1
0 -56 112 0.5 0 0 1 13 0 1 0 1
phys
0 -52 104 109.001 0 0 1 13 0 1 0 1
0 -52 104 0.5 0 0 1 13 0 1 0 1
0 -52 112 0.5 0 0 1 13 0 1 0 1
phys
0 -52 104 109.001 0 0 1 13 0 1 0 1
0 -52 112 0.5 0 0 1 13 0 1 0 1
0 -52 112 109.001 0 0 1 13 0 1 0 1
phys
0 -52 104 0.5 0 0 1 13 0 1 0 1
0 -56 104 0.5 0 0 1 13 0 1 0 1
0 -56 112 0.5 0 0 1 13 0 1 0 1
phys
0 -52 104 0.5 0 0 1 13 0 1 0 1
0 -56 112 0.5 0 0 1 13 0 1 0 1
0 -52 112 0.5 0 0 1 13 0 1 0 1
phys
0 -56 104 113.001 0 0 1 13 0 1 0 1
0 -52 104 109.001 0 0 1 13 0 1 0 1
0 -52 112 109.001 0 0 1 13 0 1 0 1
phys
0 -56 104 113.001 0 0 1 13 0 1 0 1
0 -52 112 109.001 0 0 1 13 0 1 0 1
0 -56 112 113.001 0 0 1 13 0 1 0 1
phys
0 -100 120 289 0 0 1 14 0 1 0 1
0 -100 120 257 0 0 1 14 0 1 0 1
0 -116 120 257 0 0 1 14 0 1 0 1
phys
0 -100 120 289 0 0 1 14 0 1 0 1
0 -116 120 257 0 0 1 14 0 1 0 1
0 -116 120 289 0 0 1 14 0 1 0 1
phys
0 -100 -120 257 0 0 1 14 0 1 0 1
0 -100 -120 289 0 0 1 14 0 1 0 1
0 -116 -120 289 0 0 1 14 0 1 0 1
phys
0 -100 -120 257 0 0 1 14 0 1 0 1
0 -116 -120 289 0 0 1 14 0 1 0 1
0 -116 -120 257 0 0 1 14 0 1 0 1
phys
0 -116 -120 257 0 0 1 14 0 1 0 1
0 -116 -120 289 0 0 1 14 0 1 0 1
0 -116 120 289 0 0 1 14 0 1 0 1
phys
0 -116 -120 257 0 0 1 14 0 1 0 1
0 -116 120 289 0 0 1 14 0 1 0 1
0 -116 120 257 0 0 1 14 0 1 0 1
phys
0 -100 -120 289 0 0 1 14 0 1 0 1
0 -100 -120 257 0 0 1 14 0 1 0 1
0 -100 120 257 0 0 1 14 0 1 0 1
phys
0 -100 -120 289 0 0 1 14 0 1 0 1
0 -100 120 257 0 0 1 14 0 1 0 1
0 -100 120 289 0 0 1 14 0 1 0 1
phys
0 -100 -120 257 0 0 1 14 0 1 0 1
0 -116 -120 257 0 0 1 14 0 1 0 1
0 -116 120 257 0 0 1 14 0 1 0 1
phys
0 -100 -120 257 0 0 1 14 0 1 0 1
0 -116 120 257 0 0 1 14 0 1 0 1
0 -100 120 257 0 0 1 14 0 1 0 1
phys
0 -116 -120 289 0 0 1 14 0 1 0 1
0 -100 -120 289 0 0 1 14 0 1 0 1
0 -100 120 289 0 0 1 14 0 1 0 1
phys
0 -116 -120 289 0 0 1 14 0 1 0 1
0 -100 120 289 0 0 1 14 0 1 0 1
0 -116 120 289 0 0 1 14 0 1 0 1
phys
0 -4 112 109 0 0 1 15 0 1 0 1
0 -52 112 109 0 0 1 15 0 1 0 1
0 -56 112 113 0 0 1 15 0 1 0 1
phys
0 -4 112 109 0 0 1 15 0 1 0 1
0 -56 112 113 0 0 1 15 0 1 0 1
0 0 112 113 0 0 1 15 0 1 0 1
phys
0 0 104 113 0 0 1 15 0 1 0 1
0 -56 104 113 0 0 1 15 0 1 0 1
0 -52 104 109 0 0 1 15 0 1 0 1
phys
0 0 104 113 0 0 1 15 0 1 0 1
0 -52 104 109 0 0 1 15 0 1 0 1
0 -4 104 109 0 0 1 15 0 1 0 1
phys
0 -4 104 109 0 0 1 15 0 1 0 1
0 -52 104 109 0 0 1 15 0 1 0 1
0 -52 112 109 0 0 1 15 0 1 0 1
phys
0 -4 104 109 0 0 1 15 0 1 0 1
0 -52 112 109 0 0 1 15 0 1 0 1
0 -4 112 109 0 0 1 15 0 1 0 1
phys
0 -56 104 113 0 0 1 15 0 1 0 1
0 0 104 113 0 0 1 15 0 1 0 1
0 0 112 113 0 0 1 15 0 1 0 1
phys
0 -56 104 113 0 0 1 15 0 1 0 1
0 0 112 113 0 0 1 15 0 1 0 1
0 -56 112 113 0 0 1 15 0 1 0 1
phys
0 -52 104 109 0 0 1 15 0 1 0 1
0 -56 104 113 0 0 1 15 0 1 0 1
0 -56 112 113 0 0 1 15 0 1 0 1
phys
0 -52 104 109 0 0 1 15 0 1 0 1
0 -56 112 113 0 0 1 15 0 1 0 1
0 -52 112 109 0 0 1 15 0 1 0 1
phys
0 0 104 113 0 0 1 15 0 1 0 1
0 -4 104 109 0 0 1 15 0 1 0 1
0 -4 112 109 0 0 1 15 0 1 0 1
phys
0 0 104 113 0 0 1 15 0 1 0 1
0 -4 112 109 0 0 1 15 0 1 0 1
0 0 112 113 0 0 1 15 0 1 0 1
phys
0 -195 120 227 0 0 1 16 0 1 0 1
0 -195 120 159 0 0 1 16 0 1 0 1
0 -197 120 159 0 0 1 16 0 1 0 1
phys
0 -195 120 227 0 0 1 16 0 1 0 1
0 -197 120 159 0 0 1 16 0 1 0 1
0 -197 120 227 0 0 1 16 0 1 0 1
phys
0 -195 116 159 0 0 1 16 0 1 0 1
0 -195 116 227 0 0 1 16 0 1 0 1
0 -197 116 227 0 0 1 16 0 1 0 1
phys
0 -195 116 159 0 0 1 16 0 1 0 1
0 -197 116 227 0 0 1 16 0 1 0 1
0 -197 116 159 0 0 1 16 0 1 0 1
phys
0 -197 116 159 0 0 1 16 0 1 0 1
0 -197 116 227 0 0 1 16 0 1 0 1
0 -197 120 227 0 0 1 16 0 1 0 1
phys
0 -197 116 159 0 0 1 16 0 1 0 1
0 -197 120 227 0 0 1 16 0 1 0 1
0 -197 120 159 0 0 1 16 0 1 0 1
phys
0 -195 116 227 0 0 1 16 0 1 0 1
0 -195 116 159 0 0 1 16 0 1 0 1
0 -195 120 159 0 0 1 16 0 1 0 1
phys
0 -195 116 227 0 0 1 16 0 1 0 1
0 -195 120 159 0 0 1 16 0 1 0 1
0 -195 120 227 0 0 1 16 0 1 0 1
phys
0 -195 116 159 0 0 1 16 0 1 0 1
0 -197 116 159 0 0 1 16 0 1 0 1
0 -197 120 159 0 0 1 16 0 1 0 1
phys
0 -195 116 159 0 0 1 16 0 1 0 1
0 -197 120 159 0 0 1 16 0 1 0 1
0 -195 120 159 0 0 1 16 0 1 0 1
phys
0 -197 116 227 0 0 1 16 0 1 0 1
0 -195 116 227 0 0 1 16 0 1 0 1
0 -195 120 227 0 0 1 16 0 1 0 1
phys
0 -197 116 227 0 0 1 16 0 1 0 1
0 -195 120 227 0 0 1 16 0 1 0 1
0 -197 120 227 0 0 1 16 0 1 0 1
phys
0 -197 119 227 0 0 1 17 0 1 0 1
0 -197 119 159 0 0 1 17 0 1 0 1
0 -234 119 159 0 0 1 17 0 1 0 1
phys
0 -197 119 227 0 0 1 17 0 1 0 1
0 -234 119 159 0 0 1 17 0 1 0 1
0 -234 119 227 0 0 1 17 0 1 0 1
phys
0 -197 117 159 0 0 1 17 0 1 0 1
0 -197 117 227 0 0 1 17 0 1 0 1
0 -234 117 227 0 0 1 17 0 1 0 1
phys
0 -197 117 159 0 0 1 17 0 1 0 1
0 -234 117 227 0 0 1 17 0 1 0 1
0 -234 117 159 0 0 1 17 0 1 0 1
phys
0 -234 117 159 0 0 1 17 0 1 0 1
0 -234 117 227 0 0 1 17 0 1 0 1
0 -234 119 227 0 0 1 17 0 1 0 1
phys
0 -234 117 159 0 0 1 17 0 1 0 1
0 -234 119 227 0 0 1 17 0 1 0 1
0 -234 119 159 0 0 1 17 0 1 0 1
phys
0 -197 117 227 0 0 1 17 0 1 0 1
0 -197 117 159 0 0 1 17 0 1 0 1
0 -197 119 159 0 0 1 17 0 1 0 1
phys
0 -197 117 227 0 0 1 17 0 1 0 1
0 -197 119 159 0 0 1 17 0 1 0 1
0 -197 119 227 0 0 1 17 0 1 0 1
phys
0 -197 117 159 0 0 1 17 0 1 0 1
0 -234 117 159 0 0 1 17 0 1 0 1
0 -234 119 159 0 0 1 17 0 1 0 1
phys
0 -197 117 159 0 0 1 17 0 1 0 1
0 -234 119 159 0 0 1 17 0 1 0 1
0 -197 119 159 0 0 1 17 0 1 0 1
phys
0 -234 117 227 0 0 1 17 0 1 0 1
0 -197 117 227 0 0 1 17 0 1 0 1
0 -197 119 227 0 0 1 17 0 1 0 1
phys
0 -234 117 227 0 0 1 17 0 1 0 1
0 -197 119 227 0 0 1 17 0 1 0 1
0 -234 119 227 0 0 1 17 0 1 0 1
end
