version 1
nodes
0 "root" -1
end
skeleton
time 0
0 0 0 0 0 0 0
end
triangles
wood_woodshelf002a
0 -234 120 99 0 1 0 -161.994591 -1.298118 1 0 1
0 -234 120 31 0 1 0 -161.994591 -1.901811 1 0 1
0 -236 120 31 0 1 0 -162.024639 -1.901811 1 0 1
wood_woodshelf002a
0 -234 120 99 0 1 0 -161.994591 -1.298118 1 0 1
0 -236 120 31 0 1 0 -162.024639 -1.901811 1 0 1
0 -236 120 99 0 1 0 -162.024639 -1.298118 1 0 1
wood_woodshelf002a
0 -234 112 31 0 -1 0 -161.994591 -1.901811 1 0 1
0 -234 112 99 0 -1 0 -161.994591 -1.298118 1 0 1
0 -236 112 99 0 -1 0 -162.024639 -1.298118 1 0 1
wood_woodshelf002a
0 -234 112 31 0 -1 0 -161.994591 -1.901811 1 0 1
0 -236 112 99 0 -1 0 -162.024639 -1.298118 1 0 1
0 -236 112 31 0 -1 0 -162.024639 -1.901811 1 0 1
wood_woodshelf002a
0 -234 112 99 1 0 0 174.542819 -1.298118 1 0 1
0 -234 112 31 1 0 0 174.542819 -1.901811 1 0 1
0 -234 120 31 1 0 0 174.422626 -1.901811 1 0 1
wood_woodshelf002a
0 -234 112 99 1 0 0 174.542819 -1.298118 1 0 1
0 -234 120 31 1 0 0 174.422626 -1.901811 1 0 1
0 -234 120 99 1 0 0 174.422626 -1.298118 1 0 1
concrete_concretewall004b
0 -56 120 56.996 0 1 0 -82.65625 -1.562531 1 0 1
0 -56 120 1 0 1 0 -82.65625 -2 1 0 1
0 -100 120 1 0 1 0 -83 -2 1 0 1
concrete_concretewall004b
0 -56 120 56.996 0 1 0 -82.65625 -1.562531 1 0 1
0 -100 120 1 0 1 0 -83 -2 1 0 1
0 -100 120 56.996 0 1 0 -83 -1.562531 1 0 1
concrete_concretewall013f
0 -56 112 64.996 1 0 0 91.3125 -3.000063 1 0 1
0 -56 112 1 1 0 0 91.3125 -4 1 0 1
0 -56 120 1 1 0 0 91.25 -4 1 0 1
concrete_concretewall013f
0 -56 112 64.996 1 0 0 91.3125 -3.000063 1 0 1
0 -56 120 1 1 0 0 91.25 -4 1 0 1
0 -56 120 56.996 1 0 0 91.25 -3.125062 1 0 1
concrete_concretefloor033o
0 -100 112 64.996 0 0.707107 0.707107 91.3125 -82 1 0 1
0 -56 112 64.996 0 0.707107 0.707107 91.3125 -81.65625 1 0 1
0 -56 120 56.996 0 0.707107 0.707107 91.25 -81.65625 1 0 1
concrete_concretefloor033o
0 -100 112 64.996 0 0.707107 0.707107 91.3125 -82 1 0 1
0 -56 120 56.996 0 0.707107 0.707107 91.25 -81.65625 1 0 1
0 -100 120 56.996 0 0.707107 0.707107 91.25 -82 1 0 1
wood_woodshelf002a
0 -156 120 159 0 1 0 -160.822716 -0.765447 1 0 1
0 -156 120 157 0 1 0 -160.822716 -0.783203 1 0 1
0 -236 120 157 0 1 0 -162.024639 -0.783203 1 0 1
wood_woodshelf002a
0 -156 120 159 0 1 0 -160.822716 -0.765447 1 0 1
0 -236 120 157 0 1 0 -162.024639 -0.783203 1 0 1
0 -236 120 159 0 1 0 -162.024639 -0.765447 1 0 1
wood_woodshelf002a
0 -156 112 157 0 -1 0 -160.822716 -0.783203 1 0 1
0 -156 112 159 0 -1 0 -160.822716 -0.765447 1 0 1
0 -236 112 159 0 -1 0 -162.024639 -0.765447 1 0 1
wood_woodshelf002a
0 -156 112 157 0 -1 0 -160.822716 -0.783203 1 0 1
0 -236 112 159 0 -1 0 -162.024639 -0.765447 1 0 1
0 -236 112 157 0 -1 0 -162.024639 -0.783203 1 0 1
wood_woodshelf002a
0 -236 112 159 0 0 1 174.542819 -94.998224 1 0 1
0 -156 112 159 0 0 1 174.542819 -94.287997 1 0 1
0 -156 120 159 0 0 1 174.422626 -94.287997 1 0 1
wood_woodshelf002a
0 -236 112 159 0 0 1 174.542819 -94.998224 1 0 1
0 -156 120 159 0 0 1 174.422626 -94.287997 1 0 1
0 -236 120 159 0 0 1 174.422626 -94.998224 1 0 1
wood_woodshelf002a
0 -156 120 101 0 1 0 -160.822716 -1.280362 1 0 1
0 -156 120 99 0 1 0 -160.822716 -1.298118 1 0 1
0 -236 120 99 0 1 0 -162.024639 -1.298118 1 0 1
wood_woodshelf002a
0 -156 120 101 0 1 0 -160.822716 -1.280362 1 0 1
0 -236 120 99 0 1 0 -162.024639 -1.298118 1 0 1
0 -236 120 101 0 1 0 -162.024639 -1.280362 1 0 1
wood_woodshelf002a
0 -156 112 99 0 -1 0 -160.822716 -1.298118 1 0 1
0 -156 112 101 0 -1 0 -160.822716 -1.280362 1 0 1
0 -236 112 101 0 -1 0 -162.024639 -1.280362 1 0 1
wood_woodshelf002a
0 -156 112 99 0 -1 0 -160.822716 -1.298118 1 0 1
0 -236 112 101 0 -1 0 -162.024639 -1.280362 1 0 1
0 -236 112 99 0 -1 0 -162.024639 -1.298118 1 0 1
wood_woodshelf002a
0 -156 112 99 0 0 -1 174.542819 -94.287997 1 0 1
0 -236 112 99 0 0 -1 174.542819 -94.998224 1 0 1
0 -236 120 99 0 0 -1 174.422626 -94.998224 1 0 1
wood_woodshelf002a
0 -156 112 99 0 0 -1 174.542819 -94.287997 1 0 1
0 -236 120 99 0 0 -1 174.422626 -94.998224 1 0 1
0 -156 120 99 0 0 -1 174.422626 -94.287997 1 0 1
wood_woodshelf002a
0 -195 120 99 0 1 0 -161.408654 -1.298118 1 0 1
0 -195 120 31 0 1 0 -161.408654 -1.901811 1 0 1
0 -197 120 31 0 1 0 -161.438702 -1.901811 1 0 1
wood_woodshelf002a
0 -195 120 99 0 1 0 -161.408654 -1.298118 1 0 1
0 -197 120 31 0 1 0 -161.438702 -1.901811 1 0 1
0 -197 120 99 0 1 0 -161.438702 -1.298118 1 0 1
wood_woodshelf002a
0 -195 116 31 0 -1 0 -161.408654 -1.901811 1 0 1
0 -195 116 99 0 -1 0 -161.408654 -1.298118 1 0 1
0 -197 116 99 0 -1 0 -161.438702 -1.298118 1 0 1
wood_woodshelf002a
0 -195 116 31 0 -1 0 -161.408654 -1.901811 1 0 1
0 -197 116 99 0 -1 0 -161.438702 -1.298118 1 0 1
0 -197 116 31 0 -1 0 -161.438702 -1.901811 1 0 1
wood_woodshelf002a
0 -197 116 31 -1 0 0 174.482722 -1.901811 1 0 1
0 -197 116 99 -1 0 0 174.482722 -1.298118 1 0 1
0 -197 120 99 -1 0 0 174.422626 -1.298118 1 0 1
wood_woodshelf002a
0 -197 116 31 -1 0 0 174.482722 -1.901811 1 0 1
0 -197 120 99 -1 0 0 174.422626 -1.298118 1 0 1
0 -197 120 31 -1 0 0 174.422626 -1.901811 1 0 1
wood_woodshelf002a
0 -195 116 99 1 0 0 174.482722 -1.298118 1 0 1
0 -195 116 31 1 0 0 174.482722 -1.901811 1 0 1
0 -195 120 31 1 0 0 174.422626 -1.901811 1 0 1
wood_woodshelf002a
0 -195 116 99 1 0 0 174.482722 -1.298118 1 0 1
0 -195 120 31 1 0 0 174.422626 -1.901811 1 0 1
0 -195 120 99 1 0 0 174.422626 -1.298118 1 0 1
wood_woodshelf002a
0 -156 120 31 0 1 0 -160.822716 -1.901811 1 0 1
0 -156 120 29 0 1 0 -160.822716 -1.919567 1 0 1
0 -236 120 29 0 1 0 -162.024639 -1.919567 1 0 1
wood_woodshelf002a
0 -156 120 31 0 1 0 -160.822716 -1.901811 1 0 1
0 -236 120 29 0 1 0 -162.024639 -1.919567 1 0 1
0 -236 120 31 0 1 0 -162.024639 -1.901811 1 0 1
wood_woodshelf002a
0 -156 112 29 0 -1 0 -160.822716 -1.919567 1 0 1
0 -156 112 31 0 -1 0 -160.822716 -1.901811 1 0 1
0 -236 112 31 0 -1 0 -162.024639 -1.901811 1 0 1
wood_woodshelf002a
0 -156 112 29 0 -1 0 -160.822716 -1.919567 1 0 1
0 -236 112 31 0 -1 0 -162.024639 -1.901811 1 0 1
0 -236 112 29 0 -1 0 -162.024639 -1.919567 1 0 1
wood_woodshelf002a
0 -236 112 31 0 0 1 174.542819 -94.998224 1 0 1
0 -156 112 31 0 0 1 174.542819 -94.287997 1 0 1
0 -156 120 31 0 0 1 174.422626 -94.287997 1 0 1
wood_woodshelf002a
0 -236 112 31 0 0 1 174.542819 -94.998224 1 0 1
0 -156 120 31 0 0 1 174.422626 -94.287997 1 0 1
0 -236 120 31 0 0 1 174.422626 -94.998224 1 0 1
wood_woodshelf002a
0 -234 120 227 0 1 0 -161.994591 -0.161754 1 0 1
0 -234 120 159 0 1 0 -161.994591 -0.765447 1 0 1
0 -236 120 159 0 1 0 -162.024639 -0.765447 1 0 1
wood_woodshelf002a
0 -234 120 227 0 1 0 -161.994591 -0.161754 1 0 1
0 -236 120 159 0 1 0 -162.024639 -0.765447 1 0 1
0 -236 120 227 0 1 0 -162.024639 -0.161754 1 0 1
wood_woodshelf002a
0 -234 112 159 0 -1 0 -161.994591 -0.765447 1 0 1
0 -234 112 227 0 -1 0 -161.994591 -0.161754 1 0 1
0 -236 112 227 0 -1 0 -162.024639 -0.161754 1 0 1
wood_woodshelf002a
0 -234 112 159 0 -1 0 -161.994591 -0.765447 1 0 1
0 -236 112 227 0 -1 0 -162.024639 -0.161754 1 0 1
0 -236 112 159 0 -1 0 -162.024639 -0.765447 1 0 1
wood_woodshelf002a
0 -234 112 227 1 0 0 174.542819 -0.161754 1 0 1
0 -234 112 159 1 0 0 174.542819 -0.765447 1 0 1
0 -234 120 159 1 0 0 174.422626 -0.765447 1 0 1
wood_woodshelf002a
0 -234 112 227 1 0 0 174.542819 -0.161754 1 0 1
0 -234 120 159 1 0 0 174.422626 -0.765447 1 0 1
0 -234 120 227 1 0 0 174.422626 -0.161754 1 0 1
concrete_concretewall004b
0 236 120 56.996 0 1 0 -80.375 -1.562531 1 0 1
0 236 120 1 0 1 0 -80.375 -2 1 0 1
0 0 120 1 0 1 0 -82.21875 -2 1 0 1
concrete_concretewall004b
0 236 120 56.996 0 1 0 -80.375 -1.562531 1 0 1
0 0 120 1 0 1 0 -82.21875 -2 1 0 1
0 0 120 56.996 0 1 0 -82.21875 -1.562531 1 0 1
concrete_concretewall013f
0 0 112 1 -1 0 0 91.3125 -4 1 0 1
0 0 112 64.996 -1 0 0 91.3125 -3.000062 1 0 1
0 0 120 56.996 -1 0 0 91.25 -3.125063 1 0 1
concrete_concretewall013f
0 0 112 1 -1 0 0 91.3125 -4 1 0 1
0 0 120 56.996 -1 0 0 91.25 -3.125063 1 0 1
0 0 120 1 -1 0 0 91.25 -4 1 0 1
concrete_concretewall013f
0 236 112 64.996 1 0 0 91.158203 -3.000063 1 0 1
0 236 112 1 1 0 0 91.158203 -4 1 0 1
0 236 120 1 1 0 0 91.095703 -4 1 0 1
concrete_concretewall013f
0 236 112 64.996 1 0 0 91.158203 -3.000063 1 0 1
0 236 120 1 1 0 0 91.095703 -4 1 0 1
0 236 120 56.996 1 0 0 91.095703 -3.125062 1 0 1
concrete_concretefloor033o
0 0 112 64.996 0 0.707107 0.707107 91.3125 -81.21875 1 0 1
0 236 112 64.996 0 0.707107 0.707107 91.3125 -79.375 1 0 1
0 236 120 56.996 0 0.707107 0.707107 91.25 -79.375 1 0 1
concrete_concretefloor033o
0 0 112 64.996 0 0.707107 0.707107 91.3125 -81.21875 1 0 1
0 236 120 56.996 0 0.707107 0.707107 91.25 -79.375 1 0 1
0 0 120 56.996 0 0.707107 0.707107 91.25 -81.21875 1 0 1
dev_dev_lowermetaldoor02a
0 -4 104 109 -1 0 0 207.205445 -1.032076 1 0 1
0 -4 112 109 -1 0 0 207.062555 -1.032076 1 0 1
0 -4 112 0.5 -1 0 0 207.062555 -2.001048 1 0 1
dev_dev_lowermetaldoor02a
0 -4 104 109 -1 0 0 207.205445 -1.032076 1 0 1
0 -4 112 0.5 -1 0 0 207.062555 -2.001048 1 0 1
0 -4 104 0.5 -1 0 0 207.205445 -2.001048 1 0 1
dev_dev_lowermetaldoor02a
0 0 112 113 0 1 0 -187.993813 -0.996354 1 0 1
0 0 112 0.5 0 1 0 -187.993813 -2.001048 1 0 1
0 -4 112 0.5 0 1 0 -188.065258 -2.001048 1 0 1
dev_dev_lowermetaldoor02a
0 0 112 113 0 1 0 -187.993813 -0.996354 1 0 1
0 -4 112 0.5 0 1 0 -188.065258 -2.001048 1 0 1
0 -4 112 109 0 1 0 -188.065258 -1.032076 1 0 1
dev_dev_lowermetaldoor02a
0 0 104 0.5 0 -1 0 -187.993813 -2.001048 1 0 1
0 0 104 113 0 -1 0 -187.993813 -0.996354 1 0 1
0 -4 104 109 0 -1 0 -188.065258 -1.032076 1 0 1
dev_dev_lowermetaldoor02a
0 0 104 0.5 0 -1 0 -187.993813 -2.001048 1 0 1
0 -4 104 109 0 -1 0 -188.065258 -1.032076 1 0 1
0 -4 104 0.5 0 -1 0 -188.065258 -2.001048 1 0 1
wood_woodshelf002a
0 -156 120 159 0 1 0 -160.822716 -0.765447 1 0 1
0 -158 120 159 0 1 0 -160.852764 -0.765447 1 0 1
0 -158 120 227 0 1 0 -160.852764 -0.161754 1 0 1
wood_woodshelf002a
0 -156 120 159 0 1 0 -160.822716 -0.765447 1 0 1
0 -158 120 227 0 1 0 -160.852764 -0.161754 1 0 1
0 -156 120 227 0 1 0 -160.822716 -0.161754 1 0 1
wood_woodshelf002a
0 -156 112 227 0 -1 0 -160.822716 -0.161754 1 0 1
0 -158 112 227 0 -1 0 -160.852764 -0.161754 1 0 1
0 -158 112 159 0 -1 0 -160.852764 -0.765447 1 0 1
wood_woodshelf002a
0 -156 112 227 0 -1 0 -160.822716 -0.161754 1 0 1
0 -158 112 159 0 -1 0 -160.852764 -0.765447 1 0 1
0 -156 112 159 0 -1 0 -160.822716 -0.765447 1 0 1
wood_woodshelf002a
0 -158 112 227 -1 0 0 174.542819 -0.161754 1 0 1
0 -158 120 227 -1 0 0 174.422626 -0.161754 1 0 1
0 -158 120 159 -1 0 0 174.422626 -0.765447 1 0 1
wood_woodshelf002a
0 -158 112 227 -1 0 0 174.542819 -0.161754 1 0 1
0 -158 120 159 -1 0 0 174.422626 -0.765447 1 0 1
0 -158 112 159 -1 0 0 174.542819 -0.765447 1 0 1
wood_woodshelf002a
0 -236 120 227 0 1 0 -162.024639 -0.161754 1 0 1
0 -236 120 229 0 1 0 -162.024639 -0.143999 1 0 1
0 -156 120 229 0 1 0 -160.822716 -0.143999 1 0 1
wood_woodshelf002a
0 -236 120 227 0 1 0 -162.024639 -0.161754 1 0 1
0 -156 120 229 0 1 0 -160.822716 -0.143999 1 0 1
0 -156 120 227 0 1 0 -160.822716 -0.161754 1 0 1
wood_woodshelf002a
0 -156 112 227 0 -1 0 -160.822716 -0.161754 1 0 1
0 -156 112 229 0 -1 0 -160.822716 -0.143999 1 0 1
0 -236 112 229 0 -1 0 -162.024639 -0.143999 1 0 1
wood_woodshelf002a
0 -156 112 227 0 -1 0 -160.822716 -0.161754 1 0 1
0 -236 112 229 0 -1 0 -162.024639 -0.143999 1 0 1
0 -236 112 227 0 -1 0 -162.024639 -0.161754 1 0 1
wood_woodshelf002a
0 -156 112 227 0 0 -1 174.542819 -94.287997 1 0 1
0 -236 112 227 0 0 -1 174.542819 -94.998224 1 0 1
0 -236 120 227 0 0 -1 174.422626 -94.998224 1 0 1
wood_woodshelf002a
0 -156 112 227 0 0 -1 174.542819 -94.287997 1 0 1
0 -236 120 227 0 0 -1 174.422626 -94.998224 1 0 1
0 -156 120 227 0 0 -1 174.422626 -94.287997 1 0 1
wood_woodshelf002a
0 -156 112 31 0 -1 0 -160.822716 -1.901811 1 0 1
0 -156 112 99 0 -1 0 -160.822716 -1.298118 1 0 1
0 -158 112 99 0 -1 0 -160.852764 -1.298118 1 0 1
wood_woodshelf002a
0 -156 112 31 0 -1 0 -160.822716 -1.901811 1 0 1
0 -158 112 99 0 -1 0 -160.852764 -1.298118 1 0 1
0 -158 112 31 0 -1 0 -160.852764 -1.901811 1 0 1
wood_woodshelf002a
0 -158 112 31 -1 0 0 174.542819 -1.901811 1 0 1
0 -158 112 99 -1 0 0 174.542819 -1.298118 1 0 1
0 -158 120 99 -1 0 0 174.422626 -1.298118 1 0 1
wood_woodshelf002a
0 -158 112 31 -1 0 0 174.542819 -1.901811 1 0 1
0 -158 120 99 -1 0 0 174.422626 -1.298118 1 0 1
0 -158 120 31 -1 0 0 174.422626 -1.901811 1 0 1
wood_woodshelf002a
0 -156 120 99 0 1 0 -160.822716 -1.298118 1 0 1
0 -156 120 31 0 1 0 -160.822716 -1.901811 1 0 1
0 -158 120 31 0 1 0 -160.852764 -1.901811 1 0 1
wood_woodshelf002a
0 -156 120 99 0 1 0 -160.822716 -1.298118 1 0 1
0 -158 120 31 0 1 0 -160.852764 -1.901811 1 0 1
0 -158 120 99 0 1 0 -160.852764 -1.298118 1 0 1
dev_dev_lowermetaldoor02a
0 -52 112 109.001 0 1 0 -188.922597 -1.032067 1 0 1
0 -52 112 0.5 0 1 0 -188.922597 -2.001048 1 0 1
0 -56 112 0.5 0 1 0 -188.994041 -2.001048 1 0 1
dev_dev_lowermetaldoor02a
0 -52 112 109.001 0 1 0 -188.922597 -1.032067 1 0 1
0 -56 112 0.5 0 1 0 -188.994041 -2.001048 1 0 1
0 -56 112 113.001 0 1 0 -188.994041 -0.996345 1 0 1
dev_dev_lowermetaldoor02a
0 -52 104 0.5 0 -1 0 -188.922597 -2.001048 1 0 1
0 -52 104 109.001 0 -1 0 -188.922597 -1.032067 1 0 1
0 -56 104 113.001 0 -1 0 -188.994041 -0.996345 1 0 1
dev_dev_lowermetaldoor02a
0 -52 104 0.5 0 -1 0 -188.922597 -2.001048 1 0 1
0 -56 104 113.001 0 -1 0 -188.994041 -0.996345 1 0 1
0 -56 104 0.5 0 -1 0 -188.994041 -2.001048 1 0 1
dev_dev_lowermetaldoor02a
0 -52 104 109.001 1 0 0 207.205445 -1.032067 1 0 1
0 -52 104 0.5 1 0 0 207.205445 -2.001048 1 0 1
0 -52 112 0.5 1 0 0 207.062555 -2.001048 1 0 1
dev_dev_lowermetaldoor02a
0 -52 104 109.001 1 0 0 207.205445 -1.032067 1 0 1
0 -52 112 0.5 1 0 0 207.062555 -2.001048 1 0 1
0 -52 112 109.001 1 0 0 207.062555 -1.032067 1 0 1
brick_brickwall031d
0 -116 -120 257 -1 0 0 93.125 0.703125 1 0 1
0 -116 -120 289 -1 0 0 93.125 0.953125 1 0 1
0 -116 120 289 -1 0 0 91.25 0.953125 1 0 1
brick_brickwall031d
0 -116 -120 257 -1 0 0 93.125 0.703125 1 0 1
0 -116 120 289 -1 0 0 91.25 0.953125 1 0 1
0 -116 120 257 -1 0 0 91.25 0.703125 1 0 1
brick_brickwall031d
0 -100 -120 289 1 0 0 93.125 0.953125 1 0 1
0 -100 -120 257 1 0 0 93.125 0.703125 1 0 1
0 -100 120 257 1 0 0 91.25 0.703125 1 0 1
brick_brickwall031d
0 -100 -120 289 1 0 0 93.125 0.953125 1 0 1
0 -100 120 257 1 0 0 91.25 0.703125 1 0 1
0 -100 120 289 1 0 0 91.25 0.953125 1 0 1
concrete_concretefloor005a
0 -116 -120 289 0 0 1 92.554688 -82.75 1 0 1
0 -100 -120 289 0 0 1 92.554688 -82.625 1 0 1
0 -100 120 289 0 0 1 90.679688 -82.625 1 0 1
concrete_concretefloor005a
0 -116 -120 289 0 0 1 92.554688 -82.75 1 0 1
0 -100 120 289 0 0 1 90.679688 -82.625 1 0 1
0 -116 120 289 0 0 1 90.679688 -82.75 1 0 1
dev_dev_lowermetaldoor02a
0 -4 112 109 0 1 0 -188.065258 -1.032076 1 0 1
0 -52 112 109 0 1 0 -188.922597 -1.032076 1 0 1
0 -56 112 113 0 1 0 -188.994041 -0.996354 1 0 1
dev_dev_lowermetaldoor02a
0 -4 112 109 0 1 0 -188.065258 -1.032076 1 0 1
0 -56 112 113 0 1 0 -188.994041 -0.996354 1 0 1
0 0 112 113 0 1 0 -187.993813 -0.996354 1 0 1
dev_dev_lowermetaldoor02a
0 0 104 113 0 -1 0 -187.993813 -0.996354 1 0 1
0 -56 104 113 0 -1 0 -188.994041 -0.996354 1 0 1
0 -52 104 109 0 -1 0 -188.922597 -1.032076 1 0 1
dev_dev_lowermetaldoor02a
0 0 104 113 0 -1 0 -187.993813 -0.996354 1 0 1
0 -52 104 109 0 -1 0 -188.922597 -1.032076 1 0 1
0 -4 104 109 0 -1 0 -188.065258 -1.032076 1 0 1
dev_dev_lowermetaldoor02a
0 -4 104 109 0 0 -1 207.307008 -93.097082 1 0 1
0 -52 104 109 0 0 -1 207.307008 -93.525751 1 0 1
0 -52 112 109 0 0 -1 207.164118 -93.525751 1 0 1
dev_dev_lowermetaldoor02a
0 -4 104 109 0 0 -1 207.307008 -93.097082 1 0 1
0 -52 112 109 0 0 -1 207.164118 -93.525751 1 0 1
0 -4 112 109 0 0 -1 207.164118 -93.097082 1 0 1
wood_woodshelf002a
0 -195 120 227 0 1 0 -161.408654 -0.161754 1 0 1
0 -195 120 159 0 1 0 -161.408654 -0.765447 1 0 1
0 -197 120 159 0 1 0 -161.438702 -0.765447 1 0 1
wood_woodshelf002a
0 -195 120 227 0 1 0 -161.408654 -0.161754 1 0 1
0 -197 120 159 0 1 0 -161.438702 -0.765447 1 0 1
0 -197 120 227 0 1 0 -161.438702 -0.161754 1 0 1
wood_woodshelf002a
0 -195 116 159 0 -1 0 -161.408654 -0.765447 1 0 1
0 -195 116 227 0 -1 0 -161.408654 -0.161754 1 0 1
0 -197 116 227 0 -1 0 -161.438702 -0.161754 1 0 1
wood_woodshelf002a
0 -195 116 159 0 -1 0 -161.408654 -0.765447 1 0 1
0 -197 116 227 0 -1 0 -161.438702 -0.161754 1 0 1
0 -197 116 159 0 -1 0 -161.438702 -0.765447 1 0 1
wood_woodshelf002a
0 -197 116 159 -1 0 0 174.482722 -0.765447 1 0 1
0 -197 116 227 -1 0 0 174.482722 -0.161754 1 0 1
0 -197 120 227 -1 0 0 174.422626 -0.161754 1 0 1
wood_woodshelf002a
0 -197 116 159 -1 0 0 174.482722 -0.765447 1 0 1
0 -197 120 227 -1 0 0 174.422626 -0.161754 1 0 1
0 -197 120 159 -1 0 0 174.422626 -0.765447 1 0 1
wood_woodshelf002a
0 -195 116 227 1 0 0 174.482722 -0.161754 1 0 1
0 -195 116 159 1 0 0 174.482722 -0.765447 1 0 1
0 -195 120 159 1 0 0 174.422626 -0.765447 1 0 1
wood_woodshelf002a
0 -195 116 227 1 0 0 174.482722 -0.161754 1 0 1
0 -195 120 159 1 0 0 174.422626 -0.765447 1 0 1
0 -195 120 227 1 0 0 174.422626 -0.161754 1 0 1
wood_woodshelf001a
0 -197 119 227 0 1 0 -290.000038 -0.999059 1 0 1
0 -197 119 159 0 1 0 -290.000038 -1.999153 1 0 1
0 -234 119 159 0 1 0 -290.999908 -1.999153 1 0 1
wood_woodshelf001a
0 -197 119 227 0 1 0 -290.000038 -0.999059 1 0 1
0 -234 119 159 0 1 0 -290.999908 -1.999153 1 0 1
0 -234 119 227 0 1 0 -290.999908 -0.999059 1 0 1
wood_woodshelf001a
0 -197 117 159 0 -1 0 -290.000038 -1.999153 1 0 1
0 -197 117 227 0 -1 0 -290.000038 -0.999059 1 0 1
0 -234 117 227 0 -1 0 -290.999908 -0.999059 1 0 1
wood_woodshelf001a
0 -197 117 159 0 -1 0 -290.000038 -1.999153 1 0 1
0 -234 117 227 0 -1 0 -290.999908 -0.999059 1 0 1
0 -234 117 159 0 -1 0 -290.999908 -1.999153 1 0 1
end
