version 1
nodes
0 "root" -1
end
skeleton
time 0
0 0 0 0 0 0 0
end
triangles
concrete_concrete_mall_clean00
0 -29 16 -78 0 1 0 -136.338542 4.429688 1 0 1
0 -33 16 -82 0 1 0 -136.390625 4.481771 1 0 1
0 -81 16 -82 0 1 0 -137.015625 4.481771 1 0 1
concrete_concrete_mall_clean00
0 -29 16 -78 0 1 0 -136.338542 4.429688 1 0 1
0 -81 16 -82 0 1 0 -137.015625 4.481771 1 0 1
0 -85 16 -78 0 1 0 -137.067708 4.429688 1 0 1
concrete_concrete_mall_clean00
0 -85 8 -78 0 -1 0 -137.067708 4.429688 1 0 1
0 -81 8 -82 0 -1 0 -137.015625 4.481771 1 0 1
0 -33 8 -82 0 -1 0 -136.390625 4.481771 1 0 1
concrete_concrete_mall_clean00
0 -85 8 -78 0 -1 0 -137.067708 4.429688 1 0 1
0 -33 8 -82 0 -1 0 -136.390625 4.481771 1 0 1
0 -29 8 -78 0 -1 0 -136.338542 4.429688 1 0 1
concrete_concrete_mall_clean00
0 -81 8 -82 0 0 -1 -137.015625 44.211589 1 0 1
0 -81 16 -82 0 0 -1 -137.015625 44.107422 1 0 1
0 -33 16 -82 0 0 -1 -136.390625 44.107422 1 0 1
concrete_concrete_mall_clean00
0 -81 8 -82 0 0 -1 -137.015625 44.211589 1 0 1
0 -33 16 -82 0 0 -1 -136.390625 44.107422 1 0 1
0 -33 8 -82 0 0 -1 -136.390625 44.211589 1 0 1
brick_brick_ext_02_cheap
0 -82 0 -38.001 0 -1 0 -57.964007 0.466791 1 0 1
0 -82 0 -36 0 -1 0 -57.964007 0.477958 1 0 1
0 -274 0 -36 0 -1 0 -59.035435 0.477958 1 0 1
brick_brick_ext_02_cheap
0 -82 0 -38.001 0 -1 0 -57.964007 0.466791 1 0 1
0 -274 0 -36 0 -1 0 -59.035435 0.477958 1 0 1
0 -274 0 -38.001 0 -1 0 -59.035435 0.466791 1 0 1
brick_brick_ext_02_cheap
0 -274 0 -38.001 -1 0 0 -1.046881 -17.5226 1 0 1
0 -274 0 -36 -1 0 0 -1.035714 -17.5226 1 0 1
0 -274 8 -36 -1 0 0 -1.035714 -17.477958 1 0 1
brick_brick_ext_02_cheap
0 -274 0 -38.001 -1 0 0 -1.046881 -17.5226 1 0 1
0 -274 8 -36 -1 0 0 -1.035714 -17.477958 1 0 1
0 -274 8 -46 -1 0 0 -1.091518 -17.477958 1 0 1
brick_brick_ext_02_cheap
0 -274 0 -38.001 -1 0 0 -1.046881 -17.5226 1 0 1
0 -274 8 -46 -1 0 0 -1.091518 -17.477958 1 0 1
0 -274 6 -46 -1 0 0 -1.091518 -17.489118 1 0 1
brick_brick_ext_02_cheap
0 -82 0 -36 1 0 0 1.035714 -17.5226 1 0 1
0 -82 0 -38.001 1 0 0 1.046881 -17.5226 1 0 1
0 -82 6 -46 1 0 0 1.091518 -17.489118 1 0 1
brick_brick_ext_02_cheap
0 -82 0 -36 1 0 0 1.035714 -17.5226 1 0 1
0 -82 6 -46 1 0 0 1.091518 -17.489118 1 0 1
0 -82 8 -46 1 0 0 1.091518 -17.477958 1 0 1
brick_brick_ext_02_cheap
0 -82 0 -36 1 0 0 1.035714 -17.5226 1 0 1
0 -82 8 -46 1 0 0 1.091518 -17.477958 1 0 1
0 -82 8 -36 1 0 0 1.035714 -17.477958 1 0 1
brick_brick_ext_02_cheap
0 -274 6 -46 0 0 -1 -59.035435 19.410993 1 0 1
0 -274 8 -46 0 0 -1 -59.035435 19.399833 1 0 1
0 -82 8 -46 0 0 -1 -57.964007 19.399833 1 0 1
brick_brick_ext_02_cheap
0 -274 6 -46 0 0 -1 -59.035435 19.410993 1 0 1
0 -82 8 -46 0 0 -1 -57.964007 19.399833 1 0 1
0 -82 6 -46 0 0 -1 -57.964007 19.410993 1 0 1
brick_brick_ext_02_cheap
0 -274 0 -36 0 0 1 -59.035435 -17.5226 1 0 1
0 -82 0 -36 0 0 1 -57.964007 -17.5226 1 0 1
0 -82 8 -36 0 0 1 -57.964007 -17.477958 1 0 1
brick_brick_ext_02_cheap
0 -274 0 -36 0 0 1 -59.035435 -17.5226 1 0 1
0 -82 8 -36 0 0 1 -57.964007 -17.477958 1 0 1
0 -274 8 -36 0 0 1 -59.035435 -17.477958 1 0 1
brick_brick_ext_02_cheap
0 -82 0 -38.001 0 -0.799964 -0.600048 -57.964007 11.467071 1 0 1
0 -274 0 -38.001 0 -0.799964 -0.600048 -59.035435 11.467071 1 0 1
0 -274 6 -46 0 -0.799964 -0.600048 -59.035435 11.411272 1 0 1
brick_brick_ext_02_cheap
0 -82 0 -38.001 0 -0.799964 -0.600048 -57.964007 11.467071 1 0 1
0 -274 6 -46 0 -0.799964 -0.600048 -59.035435 11.411272 1 0 1
0 -82 6 -46 0 -0.799964 -0.600048 -57.964007 11.411272 1 0 1
concrete_concrete_mall_clean00
0 -81 16 -81.999 0 1 0 -137.015625 4.481758 1 0 1
0 -81 16 -190 0 1 0 -137.015625 5.888021 1 0 1
0 -85 16 -190 0 1 0 -137.067708 5.888021 1 0 1
concrete_concrete_mall_clean00
0 -81 16 -81.999 0 1 0 -137.015625 4.481758 1 0 1
0 -85 16 -190 0 1 0 -137.067708 5.888021 1 0 1
0 -85 16 -77.999 0 1 0 -137.067708 4.429674 1 0 1
concrete_concrete_mall_clean00
0 -81 8 -190 0 -1 0 -137.015625 5.888021 1 0 1
0 -81 8 -81.999 0 -1 0 -137.015625 4.481758 1 0 1
0 -85 8 -77.999 0 -1 0 -137.067708 4.429674 1 0 1
concrete_concrete_mall_clean00
0 -81 8 -190 0 -1 0 -137.015625 5.888021 1 0 1
0 -85 8 -77.999 0 -1 0 -137.067708 4.429674 1 0 1
0 -85 8 -190 0 -1 0 -137.067708 5.888021 1 0 1
concrete_concrete_mall_clean00
0 -81 8 -81.999 1 0 0 42.713542 4.481758 1 0 1
0 -81 8 -190 1 0 0 42.713542 5.888021 1 0 1
0 -81 16 -190 1 0 0 42.609375 5.888021 1 0 1
concrete_concrete_mall_clean00
0 -81 8 -81.999 1 0 0 42.713542 4.481758 1 0 1
0 -81 16 -190 1 0 0 42.609375 5.888021 1 0 1
0 -81 16 -81.999 1 0 0 42.609375 4.481758 1 0 1
brick_brick_ext_02_cheap
0 5 16 -190 -1 0 0 25.431641 -1.265625 1 0 1
0 5 16 -70 -1 0 0 25.431641 -0.328125 1 0 1
0 5 40 -70 -1 0 0 25.244141 -0.328125 1 0 1
brick_brick_ext_02_cheap
0 5 16 -190 -1 0 0 25.431641 -1.265625 1 0 1
0 5 40 -70 -1 0 0 25.244141 -0.328125 1 0 1
0 5 40 -190 -1 0 0 25.244141 -1.265625 1 0 1
brick_brick_ext_02_cheap
0 21 40 -70 0 1 0 -81.318359 -0.328125 1 0 1
0 21 40 -190 0 1 0 -81.318359 -1.265625 1 0 1
0 5 40 -190 0 1 0 -81.443359 -1.265625 1 0 1
brick_brick_ext_02_cheap
0 21 40 -70 0 1 0 -81.318359 -0.328125 1 0 1
0 5 40 -190 0 1 0 -81.443359 -1.265625 1 0 1
0 5 40 -70 0 1 0 -81.443359 -0.328125 1 0 1
calcada_paulista_pp_mapa_gasta
0 1 -316.81 -190 0 0 1 43.074585 -126.523926 1 0 1
0 27 -314.79 -190 0 0 1 43.049927 -126.206543 1 0 1
0 53 -306.68 -190 0 0 1 42.950928 -125.88916 1 0 1
calcada_paulista_pp_mapa_gasta
0 1 -316.81 -190 0 0 1 43.074585 -126.523926 1 0 1
0 53 -306.68 -190 0 0 1 42.950928 -125.88916 1 0 1
0 77 -294.52 -190 0 0 1 42.80249 -125.596191 1 0 1
calcada_paulista_pp_mapa_gasta
0 1 -316.81 -190 0 0 1 43.074585 -126.523926 1 0 1
0 77 -294.52 -190 0 0 1 42.80249 -125.596191 1 0 1
0 97.1 -276.18 -190 0 0 1 42.578613 -125.35083 1 0 1
calcada_paulista_pp_mapa_gasta
0 1 -316.81 -190 0 0 1 43.074585 -126.523926 1 0 1
0 97.1 -276.18 -190 0 0 1 42.578613 -125.35083 1 0 1
0 115 -256.01 -190 0 0 1 42.332397 -125.132324 1 0 1
calcada_paulista_pp_mapa_gasta
0 1 -316.81 -190 0 0 1 43.074585 -126.523926 1 0 1
0 115 -256.01 -190 0 0 1 42.332397 -125.132324 1 0 1
0 127 -231.69 -190 0 0 1 42.035522 -124.98584 1 0 1
calcada_paulista_pp_mapa_gasta
0 1 -316.81 -190 0 0 1 43.074585 -126.523926 1 0 1
0 127 -231.69 -190 0 0 1 42.035522 -124.98584 1 0 1
0 135 -205.35 -190 0 0 1 41.713989 -124.888184 1 0 1
calcada_paulista_pp_mapa_gasta
0 1 -316.81 -190 0 0 1 43.074585 -126.523926 1 0 1
0 135 -205.35 -190 0 0 1 41.713989 -124.888184 1 0 1
0 137 -179 -190 0 0 1 41.392334 -124.86377 1 0 1
calcada_paulista_pp_mapa_gasta
0 1 -316.81 -190 0 0 1 43.074585 -126.523926 1 0 1
0 137 -179 -190 0 0 1 41.392334 -124.86377 1 0 1
0 1 -179 -190 0 0 1 41.392334 -126.523926 1 0 1
goldeneye_caverns_cavernsconcretefloor02
0 31 -328.97 -190 0 0 1 -26.198721 75.373405 1 0 1
0 59 -318.84 -190 0 0 1 -26.125442 75.170858 1 0 1
0 53 -306.68 -190 0 0 1 -26.037479 75.214261 1 0 1
goldeneye_caverns_cavernsconcretefloor02
0 31 -328.97 -190 0 0 1 -26.198721 75.373405 1 0 1
0 53 -306.68 -190 0 0 1 -26.037479 75.214261 1 0 1
0 27 -314.79 -190 0 0 1 -26.096145 75.40234 1 0 1
goldeneye_caverns_cavernsconcretefloor02
0 59 -318.84 -190 0.340206 -0.940351 0 78.413252 8.484357 1 0 1
0 31 -328.97 -190 0.340206 -0.940351 0 78.628181 8.49874 1 0 1
0 31 -328.97 -194 0.340206 -0.940351 0 78.626265 8.527611 1 0 1
goldeneye_caverns_cavernsconcretefloor02
0 59 -318.84 -190 0.340206 -0.940351 0 78.413252 8.484357 1 0 1
0 31 -328.97 -194 0.340206 -0.940351 0 78.626265 8.527611 1 0 1
0 59 -318.84 -194 0.340206 -0.940351 0 78.411337 8.513228 1 0 1
goldeneye_caverns_cavernsconcretefloor02
0 59 -318.84 -190 0 0 1 -26.125442 75.170858 1 0 1
0 85 -304.65 -190 0 0 1 -26.022795 74.98278 1 0 1
0 77 -294.52 -190 0 0 1 -25.949516 75.04065 1 0 1
goldeneye_caverns_cavernsconcretefloor02
0 59 -318.84 -190 0 0 1 -26.125442 75.170858 1 0 1
0 77 -294.52 -190 0 0 1 -25.949516 75.04065 1 0 1
0 53 -306.68 -190 0 0 1 -26.037479 75.214261 1 0 1
goldeneye_caverns_cavernsconcretefloor02
0 59 -318.84 -194 0.479065 -0.877779 0 77.341551 8.515518 1 0 1
0 85 -304.65 -194 0.479065 -0.877779 0 77.127755 8.501192 1 0 1
0 85 -304.65 -190 0.479065 -0.877779 0 77.129668 8.47232 1 0 1
goldeneye_caverns_cavernsconcretefloor02
0 59 -318.84 -194 0.479065 -0.877779 0 77.341551 8.515518 1 0 1
0 85 -304.65 -190 0.479065 -0.877779 0 77.129668 8.47232 1 0 1
0 59 -318.84 -190 0.479065 -0.877779 0 77.343464 8.486647 1 0 1
goldeneye_caverns_cavernsconcretefloor02
0 107 -286.41 -190 0 0 1 -25.89085 74.823636 1 0 1
0 125 -264.12 -190 0 0 1 -25.729609 74.693428 1 0 1
0 115 -256.01 -190 0 0 1 -25.670943 74.765766 1 0 1
goldeneye_caverns_cavernsconcretefloor02
0 107 -286.41 -190 0 0 1 -25.89085 74.823636 1 0 1
0 115 -256.01 -190 0 0 1 -25.670943 74.765766 1 0 1
0 97 -276.28 -190 0 0 1 -25.817572 74.895974 1 0 1
goldeneye_caverns_cavernsconcretefloor02
0 107 -286.41 -194 0.778 -0.628264 0 66.727376 7.495506 1 0 1
0 125 -264.12 -194 0.778 -0.628264 0 66.520573 7.481581 1 0 1
0 125 -264.12 -190 0.778 -0.628264 0 66.522476 7.452711 1 0 1
goldeneye_caverns_cavernsconcretefloor02
0 107 -286.41 -194 0.778 -0.628264 0 66.727376 7.495506 1 0 1
0 125 -264.12 -190 0.778 -0.628264 0 66.522476 7.452711 1 0 1
0 107 -286.41 -190 0.778 -0.628264 0 66.729279 7.466636 1 0 1
goldeneye_caverns_cavernsconcretefloor02
0 139 -237.77 -190 0 0 1 -25.538998 74.592155 1 0 1
0 127 -231.69 -190 0 0 1 -25.495017 74.67896 1 0 1
0 115 -256.01 -190 0 0 1 -25.670943 74.765766 1 0 1
goldeneye_caverns_cavernsconcretefloor02
0 139 -237.77 -190 0 0 1 -25.538998 74.592155 1 0 1
0 115 -256.01 -190 0 0 1 -25.670943 74.765766 1 0 1
0 125 -264.12 -190 0 0 1 -25.729609 74.693428 1 0 1
goldeneye_caverns_cavernsconcretefloor02
0 125 -264.12 -190 0.883094 -0.469196 0 56.507693 7.453966 1 0 1
0 125 -264.12 -194 0.883094 -0.469196 0 56.505795 7.482836 1 0 1
0 139 -237.77 -194 0.883094 -0.469196 0 56.290418 7.468299 1 0 1
goldeneye_caverns_cavernsconcretefloor02
0 125 -264.12 -190 0.883094 -0.469196 0 56.507693 7.453966 1 0 1
0 139 -237.77 -194 0.883094 -0.469196 0 56.290418 7.468299 1 0 1
0 139 -237.77 -190 0.883094 -0.469196 0 56.292317 7.439428 1 0 1
goldeneye_caverns_cavernsconcretefloor02
0 127 -231.69 -190 0 0 1 -25.495017 74.67896 1 0 1
0 139 -237.77 -190 0 0 1 -25.538998 74.592155 1 0 1
0 149 -209.4 -190 0 0 1 -25.333776 74.519817 1 0 1
goldeneye_caverns_cavernsconcretefloor02
0 127 -231.69 -190 0 0 1 -25.495017 74.67896 1 0 1
0 149 -209.4 -190 0 0 1 -25.333776 74.519817 1 0 1
0 135 -205.35 -190 0 0 1 -25.304479 74.62109 1 0 1
goldeneye_caverns_cavernsconcretefloor02
0 139 -237.77 -190 0.943125 -0.332438 0 48.32491 6.439733 1 0 1
0 139 -237.77 -194 0.943125 -0.332438 0 48.323013 6.468603 1 0 1
0 149 -209.4 -194 0.943125 -0.332438 0 48.105876 6.453923 1 0 1
goldeneye_caverns_cavernsconcretefloor02
0 139 -237.77 -190 0.943125 -0.332438 0 48.32491 6.439733 1 0 1
0 149 -209.4 -194 0.943125 -0.332438 0 48.105876 6.453923 1 0 1
0 149 -209.4 -190 0.943125 -0.332438 0 48.107772 6.425053 1 0 1
goldeneye_caverns_cavernsconcretefloor02
0 135 -205.35 -190 0 0 1 -25.304479 74.62109 1 0 1
0 149 -209.4 -190 0 0 1 -25.333776 74.519817 1 0 1
0 151 -179 -190 0 0 1 -25.113868 74.505349 1 0 1
goldeneye_caverns_cavernsconcretefloor02
0 135 -205.35 -190 0 0 1 -25.304479 74.62109 1 0 1
0 151 -179 -190 0 0 1 -25.113868 74.505349 1 0 1
0 137 -179 -190 0 0 1 -25.113868 74.606622 1 0 1
goldeneye_caverns_cavernsconcretefloor02
0 149 -209.4 -190 0.997843 -0.065648 0 29.303519 5.420833 1 0 1
0 149 -209.4 -194 0.997843 -0.065648 0 29.301626 5.449703 1 0 1
0 151 -179 -194 0.997843 -0.065648 0 29.081713 5.434799 1 0 1
goldeneye_caverns_cavernsconcretefloor02
0 149 -209.4 -190 0.997843 -0.065648 0 29.303519 5.420833 1 0 1
0 151 -179 -194 0.997843 -0.065648 0 29.081713 5.434799 1 0 1
0 151 -179 -190 0.997843 -0.065648 0 29.083606 5.405929 1 0 1
goldeneye_caverns_cavernsconcretefloor02
0 85 -304.65 -190 0 0 1 -26.022795 74.98278 1 0 1
0 107 -286.41 -190 0 0 1 -25.89085 74.823636 1 0 1
0 97 -276.28 -190 0 0 1 -25.817572 74.895974 1 0 1
goldeneye_caverns_cavernsconcretefloor02
0 85 -304.65 -190 0 0 1 -26.022795 74.98278 1 0 1
0 97 -276.28 -190 0 0 1 -25.817572 74.895974 1 0 1
0 77 -294.52 -190 0 0 1 -25.949516 75.04065 1 0 1
goldeneye_caverns_cavernsconcretefloor02
0 85 -304.65 -194 0.638255 -0.769825 0 73.031496 8.506265 1 0 1
0 107 -286.41 -194 0.638255 -0.769825 0 72.825218 8.492411 1 0 1
0 107 -286.41 -190 0.638255 -0.769825 0 72.827126 8.46354 1 0 1
goldeneye_caverns_cavernsconcretefloor02
0 85 -304.65 -194 0.638255 -0.769825 0 73.031496 8.506265 1 0 1
0 107 -286.41 -190 0.638255 -0.769825 0 72.827126 8.46354 1 0 1
0 85 -304.65 -190 0.638255 -0.769825 0 73.033404 8.477394 1 0 1
concrete_concrete_mall_clean00
0 -29 16 -78.001 0 1 0 -136.338542 4.429701 1 0 1
0 -29 16 -190 0 1 0 -136.338542 5.888021 1 0 1
0 -33 16 -190 0 1 0 -136.390625 5.888021 1 0 1
concrete_concrete_mall_clean00
0 -29 16 -78.001 0 1 0 -136.338542 4.429701 1 0 1
0 -33 16 -190 0 1 0 -136.390625 5.888021 1 0 1
0 -33 16 -82.001 0 1 0 -136.390625 4.481784 1 0 1
concrete_concrete_mall_clean00
0 -29 8 -190 0 -1 0 -136.338542 5.888021 1 0 1
0 -29 8 -78.001 0 -1 0 -136.338542 4.429701 1 0 1
0 -33 8 -82.001 0 -1 0 -136.390625 4.481784 1 0 1
concrete_concrete_mall_clean00
0 -29 8 -190 0 -1 0 -136.338542 5.888021 1 0 1
0 -33 8 -82.001 0 -1 0 -136.390625 4.481784 1 0 1
0 -33 8 -190 0 -1 0 -136.390625 5.888021 1 0 1
concrete_concrete_mall_clean00
0 -33 8 -190 -1 0 0 -43.119792 5.888021 1 0 1
0 -33 8 -82.001 -1 0 0 -43.119792 4.481784 1 0 1
0 -33 16 -82.001 -1 0 0 -43.015625 4.481784 1 0 1
concrete_concrete_mall_clean00
0 -33 8 -190 -1 0 0 -43.119792 5.888021 1 0 1
0 -33 16 -82.001 -1 0 0 -43.015625 4.481784 1 0 1
0 -33 16 -190 -1 0 0 -43.015625 5.888021 1 0 1
brick_brick_ext_02_cheap
0 29 4 -190 1 0 0 -26.394531 -0.984375 1 0 1
0 29 8 -190 1 0 0 -26.363281 -0.984375 1 0 1
0 29 8 190 1 0 0 -26.363281 1.984375 1 0 1
brick_brick_ext_02_cheap
0 29 4 -190 1 0 0 -26.394531 -0.984375 1 0 1
0 29 8 190 1 0 0 -26.363281 1.984375 1 0 1
0 29 4 190 1 0 0 -26.394531 1.984375 1 0 1
brick_brick_ext_02_cheap
0 5 -8 -190 0.447214 -0.894427 0 -83.601947 -0.984375 1 0 1
0 29 4 -190 0.447214 -0.894427 0 -83.392322 -0.984375 1 0 1
0 29 4 190 0.447214 -0.894427 0 -83.392322 1.984375 1 0 1
brick_brick_ext_02_cheap
0 5 -8 -190 0.447214 -0.894427 0 -83.601947 -0.984375 1 0 1
0 29 4 190 0.447214 -0.894427 0 -83.392322 1.984375 1 0 1
0 5 -8 190 0.447214 -0.894427 0 -83.601947 1.984375 1 0 1
brick_brick_ext_02_cheap
0 -7 -8 190 -0.478852 -0.877896 0 -58.710021 1.984375 1 0 1
0 -29 4 190 -0.478852 -0.877896 0 -58.905807 1.984375 1 0 1
0 -29 4 -190 -0.478852 -0.877896 0 -58.905807 -0.984375 1 0 1
brick_brick_ext_02_cheap
0 -7 -8 190 -0.478852 -0.877896 0 -58.710021 1.984375 1 0 1
0 -29 4 -190 -0.478852 -0.877896 0 -58.905807 -0.984375 1 0 1
0 -7 -8 -190 -0.478852 -0.877896 0 -58.710021 -0.984375 1 0 1
brick_brick_ext_02_cheap
0 5 -8 190 0 -1 0 -80.605469 1.984375 1 0 1
0 -7 -8 190 0 -1 0 -80.699219 1.984375 1 0 1
0 -7 -8 -190 0 -1 0 -80.699219 -0.984375 1 0 1
brick_brick_ext_02_cheap
0 5 -8 190 0 -1 0 -80.605469 1.984375 1 0 1
0 -7 -8 -190 0 -1 0 -80.699219 -0.984375 1 0 1
0 5 -8 -190 0 -1 0 -80.605469 -0.984375 1 0 1
brick_brick_ext_02_cheap
0 -29 4 190 -1 0 0 26.09375 1.984375 1 0 1
0 -29 8 190 -1 0 0 26.0625 1.984375 1 0 1
0 -29 8 -190 -1 0 0 26.0625 -0.984375 1 0 1
brick_brick_ext_02_cheap
0 -29 4 190 -1 0 0 26.09375 1.984375 1 0 1
0 -29 8 -190 -1 0 0 26.0625 -0.984375 1 0 1
0 -29 4 -190 -1 0 0 26.09375 -0.984375 1 0 1
concrete_concrete_mall_clean00
0 -139 60 -78 -1 0 0 -42.196615 4.429688 1 0 1
0 -139 164 -78 -1 0 0 -40.842448 4.429688 1 0 1
0 -139 160 -82 -1 0 0 -40.894531 4.481771 1 0 1
concrete_concrete_mall_clean00
0 -139 60 -78 -1 0 0 -42.196615 4.429688 1 0 1
0 -139 160 -82 -1 0 0 -40.894531 4.481771 1 0 1
0 -139 64 -82 -1 0 0 -42.144531 4.481771 1 0 1
concrete_concrete_mall_clean00
0 -131 64 -82 1 0 0 41.708984 4.481771 1 0 1
0 -131 160 -82 1 0 0 40.458984 4.481771 1 0 1
0 -131 164 -78 1 0 0 40.406901 4.429688 1 0 1
concrete_concrete_mall_clean00
0 -131 64 -82 1 0 0 41.708984 4.481771 1 0 1
0 -131 164 -78 1 0 0 40.406901 4.429688 1 0 1
0 -131 60 -78 1 0 0 41.761068 4.429688 1 0 1
concrete_concrete_mall_clean00
0 -139 64 -82 0 0 -1 -137.770833 42.857422 1 0 1
0 -139 160 -82 0 0 -1 -137.770833 41.607422 1 0 1
0 -131 160 -82 0 0 -1 -137.666667 41.607422 1 0 1
concrete_concrete_mall_clean00
0 -139 64 -82 0 0 -1 -137.770833 42.857422 1 0 1
0 -131 160 -82 0 0 -1 -137.666667 41.607422 1 0 1
0 -131 64 -82 0 0 -1 -137.666667 42.857422 1 0 1
bridge_se1_metal_flat_steel_01
0 -139 160 -82 0 0.707107 -0.707107 -1.726562 -80.972656 1 0 1
0 -139 164 -78 0 0.707107 -0.707107 -1.695312 -80.972656 1 0 1
0 -131 164 -78 0 0.707107 -0.707107 -1.695312 -80.910156 1 0 1
bridge_se1_metal_flat_steel_01
0 -139 160 -82 0 0.707107 -0.707107 -1.726562 -80.972656 1 0 1
0 -131 164 -78 0 0.707107 -0.707107 -1.695312 -80.910156 1 0 1
0 -131 160 -82 0 0.707107 -0.707107 -1.726562 -80.910156 1 0 1
ares_hr_concrete_polished_001_color
0 -139 60 -78 0 -0.707107 -0.707107 -16.81704 -81.046875 1 0 1
0 -139 64 -82 0 -0.707107 -0.707107 -16.772846 -81.046875 1 0 1
0 -131 64 -82 0 -0.707107 -0.707107 -16.772846 -80.984375 1 0 1
ares_hr_concrete_polished_001_color
0 -139 60 -78 0 -0.707107 -0.707107 -16.81704 -81.046875 1 0 1
0 -131 64 -82 0 -0.707107 -0.707107 -16.772846 -80.984375 1 0 1
0 -131 60 -78 0 -0.707107 -0.707107 -16.81704 -80.984375 1 0 1
concrete_concrete_mall_clean00
0 -139 60 -190 -1 0 0 -42.196615 5.888021 1 0 1
0 -139 60 -78.015 -1 0 0 -42.196615 4.429883 1 0 1
0 -139 64 -82 -1 0 0 -42.144531 4.481771 1 0 1
concrete_concrete_mall_clean00
0 -139 60 -190 -1 0 0 -42.196615 5.888021 1 0 1
0 -139 64 -82 -1 0 0 -42.144531 4.481771 1 0 1
0 -139 64 -190 -1 0 0 -42.144531 5.888021 1 0 1
concrete_concrete_mall_clean00
0 -131 60 -78.015 1 0 0 41.761068 4.429883 1 0 1
0 -131 60 -190 1 0 0 41.761068 5.888021 1 0 1
0 -131 64 -190 1 0 0 41.708984 5.888021 1 0 1
concrete_concrete_mall_clean00
0 -131 60 -78.015 1 0 0 41.761068 4.429883 1 0 1
0 -131 64 -190 1 0 0 41.708984 5.888021 1 0 1
0 -131 64 -82 1 0 0 41.708984 4.481771 1 0 1
bridge_se1_metal_flat_steel_01
0 -131 60 -190 0 0 -1 -25.039062 -81.65625 1 0 1
0 -139 60 -190 0 0 -1 -25.039062 -81.71875 1 0 1
0 -139 64 -190 0 0 -1 -25.007812 -81.71875 1 0 1
bridge_se1_metal_flat_steel_01
0 -131 60 -190 0 0 -1 -25.039062 -81.65625 1 0 1
0 -139 64 -190 0 0 -1 -25.007812 -81.71875 1 0 1
0 -131 64 -190 0 0 -1 -25.007812 -81.65625 1 0 1
ares_hr_concrete_polished_001_color
0 -139 60 -78.015 0 0.705777 0.708434 16.816957 -81.046875 1 0 1
0 -131 60 -78.015 0 0.705777 0.708434 16.816957 -80.984375 1 0 1
0 -131 64 -82 0 0.705777 0.708434 16.772846 -80.984375 1 0 1
ares_hr_concrete_polished_001_color
0 -139 60 -78.015 0 0.705777 0.708434 16.816957 -81.046875 1 0 1
0 -131 64 -82 0 0.705777 0.708434 16.772846 -80.984375 1 0 1
0 -139 64 -82 0 0.705777 0.708434 16.772846 -81.046875 1 0 1
concrete_concrete_mall_clean00
0 -131 64 -82 0 1 0 -137.666667 4.481771 1 0 1
0 -131 64 -190 0 1 0 -137.666667 5.888021 1 0 1
0 -139 64 -190 0 1 0 -137.770833 5.888021 1 0 1
concrete_concrete_mall_clean00
0 -131 64 -82 0 1 0 -137.666667 4.481771 1 0 1
0 -139 64 -190 0 1 0 -137.770833 5.888021 1 0 1
0 -139 64 -82 0 1 0 -137.770833 4.481771 1 0 1
concrete_concrete_mall_clean00
0 -131 160 -190 0 -1 0 -137.666667 5.888021 1 0 1
0 -131 160 -82 0 -1 0 -137.666667 4.481771 1 0 1
0 -139 160 -82 0 -1 0 -137.770833 4.481771 1 0 1
concrete_concrete_mall_clean00
0 -131 160 -190 0 -1 0 -137.666667 5.888021 1 0 1
0 -139 160 -82 0 -1 0 -137.770833 4.481771 1 0 1
0 -139 160 -190 0 -1 0 -137.770833 5.888021 1 0 1
concrete_concrete_mall_clean00
0 -139 160 -190 -1 0 0 -40.894531 5.888021 1 0 1
0 -139 160 -82 -1 0 0 -40.894531 4.481771 1 0 1
0 -139 164 -78 -1 0 0 -40.842448 4.429688 1 0 1
concrete_concrete_mall_clean00
0 -139 160 -190 -1 0 0 -40.894531 5.888021 1 0 1
0 -139 164 -78 -1 0 0 -40.842448 4.429688 1 0 1
0 -139 164 -190 -1 0 0 -40.842448 5.888021 1 0 1
concrete_concrete_mall_clean00
0 -131 160 -82 1 0 0 40.458984 4.481771 1 0 1
0 -131 160 -190 1 0 0 40.458984 5.888021 1 0 1
0 -131 164 -190 1 0 0 40.406901 5.888021 1 0 1
concrete_concrete_mall_clean00
0 -131 160 -82 1 0 0 40.458984 4.481771 1 0 1
0 -131 164 -190 1 0 0 40.406901 5.888021 1 0 1
0 -131 164 -78 1 0 0 40.406901 4.429688 1 0 1
bridge_se1_metal_flat_steel_01
0 -131 160 -190 0 0 -1 -24.257812 -81.65625 1 0 1
0 -139 160 -190 0 0 -1 -24.257812 -81.71875 1 0 1
0 -139 164 -190 0 0 -1 -24.226562 -81.71875 1 0 1
bridge_se1_metal_flat_steel_01
0 -131 160 -190 0 0 -1 -24.257812 -81.65625 1 0 1
0 -139 164 -190 0 0 -1 -24.226562 -81.71875 1 0 1
0 -131 164 -190 0 0 -1 -24.226562 -81.65625 1 0 1
bridge_se1_metal_flat_steel_01
0 -139 160 -82 0 -0.707107 0.707107 -1.726562 -80.972656 1 0 1
0 -131 160 -82 0 -0.707107 0.707107 -1.726562 -80.910156 1 0 1
0 -131 164 -78 0 -0.707107 0.707107 -1.695312 -80.910156 1 0 1
bridge_se1_metal_flat_steel_01
0 -139 160 -82 0 -0.707107 0.707107 -1.726562 -80.972656 1 0 1
0 -131 164 -78 0 -0.707107 0.707107 -1.695312 -80.910156 1 0 1
0 -139 164 -78 0 -0.707107 0.707107 -1.695312 -80.972656 1 0 1
brick_brick_ext_02_cheap
0 -82 0 89.9993 0 -1 0 -57.964007 0.466235 1 0 1
0 -82 0 92 0 -1 0 -57.964007 0.4774 1 0 1
0 -274 0 92 0 -1 0 -59.035435 0.4774 1 0 1
brick_brick_ext_02_cheap
0 -82 0 89.9993 0 -1 0 -57.964007 0.466235 1 0 1
0 -274 0 92 0 -1 0 -59.035435 0.4774 1 0 1
0 -274 0 89.9993 0 -1 0 -59.035435 0.466235 1 0 1
brick_brick_ext_02_cheap
0 -274 0 89.9993 -1 0 0 -0.047437 -17.5226 1 0 1
0 -274 0 92 -1 0 0 -0.036272 -17.5226 1 0 1
0 -274 8 92 -1 0 0 -0.036272 -17.477958 1 0 1
brick_brick_ext_02_cheap
0 -274 0 89.9993 -1 0 0 -0.047437 -17.5226 1 0 1
0 -274 8 92 -1 0 0 -0.036272 -17.477958 1 0 1
0 -274 8 82 -1 0 0 -0.092076 -17.477958 1 0 1
brick_brick_ext_02_cheap
0 -274 0 89.9993 -1 0 0 -0.047437 -17.5226 1 0 1
0 -274 8 82 -1 0 0 -0.092076 -17.477958 1 0 1
0 -274 6 82 -1 0 0 -0.092076 -17.489118 1 0 1
brick_brick_ext_02_cheap
0 -82 0 92 1 0 0 0.036272 -17.5226 1 0 1
0 -82 0 89.9993 1 0 0 0.047437 -17.5226 1 0 1
0 -82 6 82 1 0 0 0.092076 -17.489118 1 0 1
brick_brick_ext_02_cheap
0 -82 0 92 1 0 0 0.036272 -17.5226 1 0 1
0 -82 6 82 1 0 0 0.092076 -17.489118 1 0 1
0 -82 8 82 1 0 0 0.092076 -17.477958 1 0 1
brick_brick_ext_02_cheap
0 -82 0 92 1 0 0 0.036272 -17.5226 1 0 1
0 -82 8 82 1 0 0 0.092076 -17.477958 1 0 1
0 -82 8 92 1 0 0 0.036272 -17.477958 1 0 1
brick_brick_ext_02_cheap
0 -274 6 82 0 0 -1 -59.035435 19.410993 1 0 1
0 -274 8 82 0 0 -1 -59.035435 19.399833 1 0 1
0 -82 8 82 0 0 -1 -57.964007 19.399833 1 0 1
brick_brick_ext_02_cheap
0 -274 6 82 0 0 -1 -59.035435 19.410993 1 0 1
0 -82 8 82 0 0 -1 -57.964007 19.399833 1 0 1
0 -82 6 82 0 0 -1 -57.964007 19.410993 1 0 1
brick_brick_ext_02_cheap
0 -274 0 92 0 0 1 -59.035435 -17.5226 1 0 1
0 -82 0 92 0 0 1 -57.964007 -17.5226 1 0 1
0 -82 8 92 0 0 1 -57.964007 -17.477958 1 0 1
brick_brick_ext_02_cheap
0 -274 0 92 0 0 1 -59.035435 -17.5226 1 0 1
0 -82 8 92 0 0 1 -57.964007 -17.477958 1 0 1
0 -274 8 92 0 0 1 -59.035435 -17.477958 1 0 1
brick_brick_ext_02_cheap
0 -82 0 89.9993 0 -0.799975 -0.600034 -57.964007 11.466236 1 0 1
0 -274 0 89.9993 0 -0.799975 -0.600034 -59.035435 11.466236 1 0 1
0 -274 6 82 0 -0.799975 -0.600034 -59.035435 11.410435 1 0 1
brick_brick_ext_02_cheap
0 -82 0 89.9993 0 -0.799975 -0.600034 -57.964007 11.466236 1 0 1
0 -274 6 82 0 -0.799975 -0.600034 -59.035435 11.410435 1 0 1
0 -82 6 82 0 -0.799975 -0.600034 -57.964007 11.410435 1 0 1
brick_brick_ext_02_cheap
0 -115 40 -70 0 1 0 -82.380859 -0.328125 1 0 1
0 -115 40 -190 0 1 0 -82.380859 -1.265625 1 0 1
0 -131 40 -190 0 1 0 -82.505859 -1.265625 1 0 1
brick_brick_ext_02_cheap
0 -115 40 -70 0 1 0 -82.380859 -0.328125 1 0 1
0 -131 40 -190 0 1 0 -82.505859 -1.265625 1 0 1
0 -131 40 -70 0 1 0 -82.505859 -0.328125 1 0 1
brick_brick_ext_02_cheap
0 -115 16 -70 1 0 0 -26.255859 -0.328125 1 0 1
0 -115 16 -190 1 0 0 -26.255859 -1.265625 1 0 1
0 -115 40 -190 1 0 0 -26.068359 -1.265625 1 0 1
brick_brick_ext_02_cheap
0 -115 16 -70 1 0 0 -26.255859 -0.328125 1 0 1
0 -115 40 -190 1 0 0 -26.068359 -1.265625 1 0 1
0 -115 40 -70 1 0 0 -26.068359 -0.328125 1 0 1
end
