version 1
nodes
0 "root" -1
end
skeleton
time 0
0 0 0 0 0 0 0
end
triangles
phys
0 237 35 17 0 0 1 1 0 1 0 1
0 237 35 33 0 0 1 1 0 1 0 1
0 253 35 33 0 0 1 1 0 1 0 1
phys
0 253 -40 33 0 0 1 1 0 1 0 1
0 237 -40 33 0 0 1 1 0 1 0 1
0 237 -40 17 0 0 1 1 0 1 0 1
phys
0 237 -40 17 0 0 1 1 0 1 0 1
0 237 -40 33 0 0 1 1 0 1 0 1
0 237 35 33 0 0 1 1 0 1 0 1
phys
0 237 -40 17 0 0 1 1 0 1 0 1
0 237 35 33 0 0 1 1 0 1 0 1
0 237 35 17 0 0 1 1 0 1 0 1
phys
0 237 -40 33 0 0 1 1 0 1 0 1
0 253 -40 33 0 0 1 1 0 1 0 1
0 253 35 33 0 0 1 1 0 1 0 1
phys
0 237 -40 33 0 0 1 1 0 1 0 1
0 253 35 33 0 0 1 1 0 1 0 1
0 237 35 33 0 0 1 1 0 1 0 1
phys
0 253 -40 33 0 0 1 1 0 1 0 1
0 237 -40 17 0 0 1 1 0 1 0 1
0 237 35 17 0 0 1 1 0 1 0 1
phys
0 253 -40 33 0 0 1 1 0 1 0 1
0 237 35 17 0 0 1 1 0 1 0 1
0 253 35 33 0 0 1 1 0 1 0 1
phys
0 284 109 80 0 0 1 2 0 1 0 1
0 284 184 80 0 0 1 2 0 1 0 1
0 284 184 89 0 0 1 2 0 1 0 1
phys
0 284 109 80 0 0 1 2 0 1 0 1
0 284 184 89 0 0 1 2 0 1 0 1
0 284 109 89 0 0 1 2 0 1 0 1
phys
0 274 109 80 0 0 1 2 0 1 0 1
0 274 184 80 0 0 1 2 0 1 0 1
0 284 184 80 0 0 1 2 0 1 0 1
phys
0 274 109 80 0 0 1 2 0 1 0 1
0 284 184 80 0 0 1 2 0 1 0 1
0 284 109 80 0 0 1 2 0 1 0 1
phys
0 284 109 89 0 0 1 2 0 1 0 1
0 284 184 89 0 0 1 2 0 1 0 1
0 269 184 89 0 0 1 2 0 1 0 1
phys
0 284 109 89 0 0 1 2 0 1 0 1
0 269 184 89 0 0 1 2 0 1 0 1
0 269 109 89 0 0 1 2 0 1 0 1
phys
0 269 184 84.997 0 0 1 2 0 1 0 1
0 274 184 80 0 0 1 2 0 1 0 1
0 274 109 80 0 0 1 2 0 1 0 1
phys
0 269 184 84.997 0 0 1 2 0 1 0 1
0 274 109 80 0 0 1 2 0 1 0 1
0 269 109 84.997 0 0 1 2 0 1 0 1
phys
0 284 184 89 0 0 1 2 0 1 0 1
0 284 184 80 0 0 1 2 0 1 0 1
0 274 184 80 0 0 1 2 0 1 0 1
phys
0 284 184 89 0 0 1 2 0 1 0 1
0 274 184 80 0 0 1 2 0 1 0 1
0 269 184 84.997 0 0 1 2 0 1 0 1
phys
0 284 184 89 0 0 1 2 0 1 0 1
0 269 184 84.997 0 0 1 2 0 1 0 1
0 269 184 89 0 0 1 2 0 1 0 1
phys
0 284 109 80 0 0 1 2 0 1 0 1
0 284 109 89 0 0 1 2 0 1 0 1
0 269 109 89 0 0 1 2 0 1 0 1
phys
0 284 109 80 0 0 1 2 0 1 0 1
0 269 109 89 0 0 1 2 0 1 0 1
0 269 109 84.997 0 0 1 2 0 1 0 1
phys
0 284 109 80 0 0 1 2 0 1 0 1
0 269 109 84.997 0 0 1 2 0 1 0 1
0 274 109 80 0 0 1 2 0 1 0 1
phys
0 269 109 89 0 0 1 2 0 1 0 1
0 269 184 89 0 0 1 2 0 1 0 1
0 269 184 84.997 0 0 1 2 0 1 0 1
phys
0 269 109 89 0 0 1 2 0 1 0 1
0 269 184 84.997 0 0 1 2 0 1 0 1
0 269 109 84.997 0 0 1 2 0 1 0 1
phys
0 64 35 -47 0 0 1 3 0 1 0 1
0 64 35 -63.999 0 0 1 3 0 1 0 1
0 47 35 -47 0 0 1 3 0 1 0 1
phys
0 64 -40 -63.999 0 0 1 3 0 1 0 1
0 64 -40 -47 0 0 1 3 0 1 0 1
0 47 -40 -47 0 0 1 3 0 1 0 1
phys
0 64 -40 -47 0 0 1 3 0 1 0 1
0 64 -40 -63.999 0 0 1 3 0 1 0 1
0 64 35 -63.999 0 0 1 3 0 1 0 1
phys
0 64 -40 -47 0 0 1 3 0 1 0 1
0 64 35 -63.999 0 0 1 3 0 1 0 1
0 64 35 -47 0 0 1 3 0 1 0 1
phys
0 47 -40 -47 0 0 1 3 0 1 0 1
0 64 -40 -47 0 0 1 3 0 1 0 1
0 64 35 -47 0 0 1 3 0 1 0 1
phys
0 47 -40 -47 0 0 1 3 0 1 0 1
0 64 35 -47 0 0 1 3 0 1 0 1
0 47 35 -47 0 0 1 3 0 1 0 1
phys
0 64 -40 -63.999 0 0 1 3 0 1 0 1
0 47 -40 -47 0 0 1 3 0 1 0 1
0 47 35 -47 0 0 1 3 0 1 0 1
phys
0 64 -40 -63.999 0 0 1 3 0 1 0 1
0 47 35 -47 0 0 1 3 0 1 0 1
0 64 35 -63.999 0 0 1 3 0 1 0 1
phys
0 173 35 -47 0 0 1 4 0 1 0 1
0 173 35 -31 0 0 1 4 0 1 0 1
0 189 35 -31 0 0 1 4 0 1 0 1
phys
0 189 -40 -31 0 0 1 4 0 1 0 1
0 173 -40 -31 0 0 1 4 0 1 0 1
0 173 -40 -47 0 0 1 4 0 1 0 1
phys
0 173 -40 -47 0 0 1 4 0 1 0 1
0 173 -40 -31 0 0 1 4 0 1 0 1
0 173 35 -31 0 0 1 4 0 1 0 1
phys
0 173 -40 -47 0 0 1 4 0 1 0 1
0 173 35 -31 0 0 1 4 0 1 0 1
0 173 35 -47 0 0 1 4 0 1 0 1
phys
0 173 -40 -31 0 0 1 4 0 1 0 1
0 189 -40 -31 0 0 1 4 0 1 0 1
0 189 35 -31 0 0 1 4 0 1 0 1
phys
0 173 -40 -31 0 0 1 4 0 1 0 1
0 189 35 -31 0 0 1 4 0 1 0 1
0 173 35 -31 0 0 1 4 0 1 0 1
phys
0 189 -40 -31 0 0 1 4 0 1 0 1
0 173 -40 -47 0 0 1 4 0 1 0 1
0 173 35 -47 0 0 1 4 0 1 0 1
phys
0 189 -40 -31 0 0 1 4 0 1 0 1
0 173 35 -47 0 0 1 4 0 1 0 1
0 189 35 -31 0 0 1 4 0 1 0 1
phys
0 173 184 193.471 0 0 1 5 0 1 0 1
0 173 184 177.9781 0 0 1 5 0 1 0 1
0 157 184 193.471 0 0 1 5 0 1 0 1
phys
0 173 109 177.9781 0 0 1 5 0 1 0 1
0 173 109 193.471 0 0 1 5 0 1 0 1
0 157 109 193.471 0 0 1 5 0 1 0 1
phys
0 173 109 193.471 0 0 1 5 0 1 0 1
0 173 109 177.9781 0 0 1 5 0 1 0 1
0 173 184 177.9781 0 0 1 5 0 1 0 1
phys
0 173 109 193.471 0 0 1 5 0 1 0 1
0 173 184 177.9781 0 0 1 5 0 1 0 1
0 173 184 193.471 0 0 1 5 0 1 0 1
phys
0 157 109 193.471 0 0 1 5 0 1 0 1
0 173 109 193.471 0 0 1 5 0 1 0 1
0 173 184 193.471 0 0 1 5 0 1 0 1
phys
0 157 109 193.471 0 0 1 5 0 1 0 1
0 173 184 193.471 0 0 1 5 0 1 0 1
0 157 184 193.471 0 0 1 5 0 1 0 1
phys
0 173 109 177.9781 0 0 1 5 0 1 0 1
0 157 109 193.471 0 0 1 5 0 1 0 1
0 157 184 193.471 0 0 1 5 0 1 0 1
phys
0 173 109 177.9781 0 0 1 5 0 1 0 1
0 157 184 193.471 0 0 1 5 0 1 0 1
0 173 184 177.9781 0 0 1 5 0 1 0 1
phys
0 205 35 -15 0 0 1 6 0 1 0 1
0 205 35 1 0 0 1 6 0 1 0 1
0 221 35 1 0 0 1 6 0 1 0 1
phys
0 221 -40 1 0 0 1 6 0 1 0 1
0 205 -40 1 0 0 1 6 0 1 0 1
0 205 -40 -15 0 0 1 6 0 1 0 1
phys
0 205 -40 -15 0 0 1 6 0 1 0 1
0 205 -40 1 0 0 1 6 0 1 0 1
0 205 35 1 0 0 1 6 0 1 0 1
phys
0 205 -40 -15 0 0 1 6 0 1 0 1
0 205 35 1 0 0 1 6 0 1 0 1
0 205 35 -15 0 0 1 6 0 1 0 1
phys
0 205 -40 1 0 0 1 6 0 1 0 1
0 221 -40 1 0 0 1 6 0 1 0 1
0 221 35 1 0 0 1 6 0 1 0 1
phys
0 205 -40 1 0 0 1 6 0 1 0 1
0 221 35 1 0 0 1 6 0 1 0 1
0 205 35 1 0 0 1 6 0 1 0 1
phys
0 221 -40 1 0 0 1 6 0 1 0 1
0 205 -40 -15 0 0 1 6 0 1 0 1
0 205 35 -15 0 0 1 6 0 1 0 1
phys
0 221 -40 1 0 0 1 6 0 1 0 1
0 205 35 -15 0 0 1 6 0 1 0 1
0 221 35 1 0 0 1 6 0 1 0 1
phys
0 189 109 162.4882 0 0 1 7 0 1 0 1
0 189 109 177.978 0 0 1 7 0 1 0 1
0 173 109 177.978 0 0 1 7 0 1 0 1
phys
0 189 109 177.978 0 0 1 7 0 1 0 1
0 189 109 162.4882 0 0 1 7 0 1 0 1
0 189 184 162.4882 0 0 1 7 0 1 0 1
phys
0 189 109 177.978 0 0 1 7 0 1 0 1
0 189 184 162.4882 0 0 1 7 0 1 0 1
0 189 184 177.978 0 0 1 7 0 1 0 1
phys
0 173 109 177.978 0 0 1 7 0 1 0 1
0 189 109 177.978 0 0 1 7 0 1 0 1
0 189 184 177.978 0 0 1 7 0 1 0 1
phys
0 173 109 177.978 0 0 1 7 0 1 0 1
0 189 184 177.978 0 0 1 7 0 1 0 1
0 173 184 177.978 0 0 1 7 0 1 0 1
phys
0 189 109 162.4882 0 0 1 7 0 1 0 1
0 173 109 177.978 0 0 1 7 0 1 0 1
0 173 184 177.978 0 0 1 7 0 1 0 1
phys
0 189 109 162.4882 0 0 1 7 0 1 0 1
0 173 184 177.978 0 0 1 7 0 1 0 1
0 189 184 162.4882 0 0 1 7 0 1 0 1
phys
0 189 184 177.978 0 0 1 7 0 1 0 1
0 189 184 162.4882 0 0 1 7 0 1 0 1
0 173 184 177.978 0 0 1 7 0 1 0 1
phys
0 15 35 1 0 0 1 8 0 1 0 1
0 15 35 -14.999 0 0 1 8 0 1 0 1
0 -1 35 1 0 0 1 8 0 1 0 1
phys
0 15 -40 -14.999 0 0 1 8 0 1 0 1
0 15 -40 1 0 0 1 8 0 1 0 1
0 -1 -40 1 0 0 1 8 0 1 0 1
phys
0 15 -40 1 0 0 1 8 0 1 0 1
0 15 -40 -14.999 0 0 1 8 0 1 0 1
0 15 35 -14.999 0 0 1 8 0 1 0 1
phys
0 15 -40 1 0 0 1 8 0 1 0 1
0 15 35 -14.999 0 0 1 8 0 1 0 1
0 15 35 1 0 0 1 8 0 1 0 1
phys
0 -1 -40 1 0 0 1 8 0 1 0 1
0 15 -40 1 0 0 1 8 0 1 0 1
0 15 35 1 0 0 1 8 0 1 0 1
phys
0 -1 -40 1 0 0 1 8 0 1 0 1
0 15 35 1 0 0 1 8 0 1 0 1
0 -1 35 1 0 0 1 8 0 1 0 1
phys
0 15 -40 -14.999 0 0 1 8 0 1 0 1
0 -1 -40 1 0 0 1 8 0 1 0 1
0 -1 35 1 0 0 1 8 0 1 0 1
phys
0 15 -40 -14.999 0 0 1 8 0 1 0 1
0 -1 35 1 0 0 1 8 0 1 0 1
0 15 35 -14.999 0 0 1 8 0 1 0 1
phys
0 -1 35 17 0 0 1 9 0 1 0 1
0 -1 35 1.001 0 0 1 9 0 1 0 1
0 -17 35 17 0 0 1 9 0 1 0 1
phys
0 -1 -40 1.001 0 0 1 9 0 1 0 1
0 -1 -40 17 0 0 1 9 0 1 0 1
0 -17 -40 17 0 0 1 9 0 1 0 1
phys
0 -1 -40 17 0 0 1 9 0 1 0 1
0 -1 -40 1.001 0 0 1 9 0 1 0 1
0 -1 35 1.001 0 0 1 9 0 1 0 1
phys
0 -1 -40 17 0 0 1 9 0 1 0 1
0 -1 35 1.001 0 0 1 9 0 1 0 1
0 -1 35 17 0 0 1 9 0 1 0 1
phys
0 -17 -40 17 0 0 1 9 0 1 0 1
0 -1 -40 17 0 0 1 9 0 1 0 1
0 -1 35 17 0 0 1 9 0 1 0 1
phys
0 -17 -40 17 0 0 1 9 0 1 0 1
0 -1 35 17 0 0 1 9 0 1 0 1
0 -17 35 17 0 0 1 9 0 1 0 1
phys
0 -1 -40 1.001 0 0 1 9 0 1 0 1
0 -17 -40 17 0 0 1 9 0 1 0 1
0 -17 35 17 0 0 1 9 0 1 0 1
phys
0 -1 -40 1.001 0 0 1 9 0 1 0 1
0 -17 35 17 0 0 1 9 0 1 0 1
0 -1 35 1.001 0 0 1 9 0 1 0 1
phys
0 -151 -40 188 0 0 1 10 0 1 0 1
0 -199 -40 188 0 0 1 10 0 1 0 1
0 -203 -40 192 0 0 1 10 0 1 0 1
phys
0 -151 -40 188 0 0 1 10 0 1 0 1
0 -203 -40 192 0 0 1 10 0 1 0 1
0 -147 -40 192 0 0 1 10 0 1 0 1
phys
0 -147 -50 192 0 0 1 10 0 1 0 1
0 -203 -50 192 0 0 1 10 0 1 0 1
0 -199 -50 188 0 0 1 10 0 1 0 1
phys
0 -147 -50 192 0 0 1 10 0 1 0 1
0 -199 -50 188 0 0 1 10 0 1 0 1
0 -151 -50 188 0 0 1 10 0 1 0 1
phys
0 -151 -50 188 0 0 1 10 0 1 0 1
0 -199 -50 188 0 0 1 10 0 1 0 1
0 -199 -40 188 0 0 1 10 0 1 0 1
phys
0 -151 -50 188 0 0 1 10 0 1 0 1
0 -199 -40 188 0 0 1 10 0 1 0 1
0 -151 -40 188 0 0 1 10 0 1 0 1
phys
0 -203 -50 192 0 0 1 10 0 1 0 1
0 -147 -50 192 0 0 1 10 0 1 0 1
0 -147 -40 192 0 0 1 10 0 1 0 1
phys
0 -203 -50 192 0 0 1 10 0 1 0 1
0 -147 -40 192 0 0 1 10 0 1 0 1
0 -203 -40 192 0 0 1 10 0 1 0 1
phys
0 -147 -50 192 0 0 1 10 0 1 0 1
0 -151 -50 188 0 0 1 10 0 1 0 1
0 -151 -40 188 0 0 1 10 0 1 0 1
phys
0 -147 -50 192 0 0 1 10 0 1 0 1
0 -151 -40 188 0 0 1 10 0 1 0 1
0 -147 -40 192 0 0 1 10 0 1 0 1
phys
0 -199 -50 188 0 0 1 10 0 1 0 1
0 -203 -50 192 0 0 1 10 0 1 0 1
0 -203 -40 192 0 0 1 10 0 1 0 1
phys
0 -199 -50 188 0 0 1 10 0 1 0 1
0 -203 -40 192 0 0 1 10 0 1 0 1
0 -199 -40 188 0 0 1 10 0 1 0 1
phys
0 253 35 33 0 0 1 11 0 1 0 1
0 253 35 49 0 0 1 11 0 1 0 1
0 269 35 49 0 0 1 11 0 1 0 1
phys
0 269 -40 49 0 0 1 11 0 1 0 1
0 253 -40 49 0 0 1 11 0 1 0 1
0 253 -40 33 0 0 1 11 0 1 0 1
phys
0 253 -40 33 0 0 1 11 0 1 0 1
0 253 -40 49 0 0 1 11 0 1 0 1
0 253 35 49 0 0 1 11 0 1 0 1
phys
0 253 -40 33 0 0 1 11 0 1 0 1
0 253 35 49 0 0 1 11 0 1 0 1
0 253 35 33 0 0 1 11 0 1 0 1
phys
0 253 -40 49 0 0 1 11 0 1 0 1
0 269 -40 49 0 0 1 11 0 1 0 1
0 269 35 49 0 0 1 11 0 1 0 1
phys
0 253 -40 49 0 0 1 11 0 1 0 1
0 269 35 49 0 0 1 11 0 1 0 1
0 253 35 49 0 0 1 11 0 1 0 1
phys
0 269 -40 49 0 0 1 11 0 1 0 1
0 253 -40 33 0 0 1 11 0 1 0 1
0 253 35 33 0 0 1 11 0 1 0 1
phys
0 269 -40 49 0 0 1 11 0 1 0 1
0 253 35 33 0 0 1 11 0 1 0 1
0 269 35 49 0 0 1 11 0 1 0 1
phys
0 78 35 208 0 0 1 12 0 1 0 1
0 78 35 199 0 0 1 12 0 1 0 1
0 -64 35 199 0 0 1 12 0 1 0 1
phys
0 78 35 208 0 0 1 12 0 1 0 1
0 -64 35 199 0 0 1 12 0 1 0 1
0 -64 35 208 0 0 1 12 0 1 0 1
phys
0 78 -40 199 0 0 1 12 0 1 0 1
0 78 -40 208 0 0 1 12 0 1 0 1
0 -64 -40 208 0 0 1 12 0 1 0 1
phys
0 78 -40 199 0 0 1 12 0 1 0 1
0 -64 -40 208 0 0 1 12 0 1 0 1
0 -64 -40 199 0 0 1 12 0 1 0 1
phys
0 -64 -40 199 0 0 1 12 0 1 0 1
0 -64 -40 208 0 0 1 12 0 1 0 1
0 -64 35 208 0 0 1 12 0 1 0 1
phys
0 -64 -40 199 0 0 1 12 0 1 0 1
0 -64 35 208 0 0 1 12 0 1 0 1
0 -64 35 199 0 0 1 12 0 1 0 1
phys
0 78 -40 208 0 0 1 12 0 1 0 1
0 78 -40 199 0 0 1 12 0 1 0 1
0 78 35 199 0 0 1 12 0 1 0 1
phys
0 78 -40 208 0 0 1 12 0 1 0 1
0 78 35 199 0 0 1 12 0 1 0 1
0 78 35 208 0 0 1 12 0 1 0 1
phys
0 78 -40 199 0 0 1 12 0 1 0 1
0 -64 -40 199 0 0 1 12 0 1 0 1
0 -64 35 199 0 0 1 12 0 1 0 1
phys
0 78 -40 199 0 0 1 12 0 1 0 1
0 -64 35 199 0 0 1 12 0 1 0 1
0 78 35 199 0 0 1 12 0 1 0 1
phys
0 -64 -40 208 0 0 1 12 0 1 0 1
0 78 -40 208 0 0 1 12 0 1 0 1
0 78 35 208 0 0 1 12 0 1 0 1
phys
0 -64 -40 208 0 0 1 12 0 1 0 1
0 78 35 208 0 0 1 12 0 1 0 1
0 -64 35 208 0 0 1 12 0 1 0 1
phys
0 205 184 162.484 0 0 1 13 0 1 0 1
0 205 184 146.9841 0 0 1 13 0 1 0 1
0 189 184 162.484 0 0 1 13 0 1 0 1
phys
0 205 109 146.9841 0 0 1 13 0 1 0 1
0 205 109 162.484 0 0 1 13 0 1 0 1
0 189 109 162.484 0 0 1 13 0 1 0 1
phys
0 205 109 162.484 0 0 1 13 0 1 0 1
0 205 109 146.9841 0 0 1 13 0 1 0 1
0 205 184 146.9841 0 0 1 13 0 1 0 1
phys
0 205 109 162.484 0 0 1 13 0 1 0 1
0 205 184 146.9841 0 0 1 13 0 1 0 1
0 205 184 162.484 0 0 1 13 0 1 0 1
phys
0 189 109 162.484 0 0 1 13 0 1 0 1
0 205 109 162.484 0 0 1 13 0 1 0 1
0 205 184 162.484 0 0 1 13 0 1 0 1
phys
0 189 109 162.484 0 0 1 13 0 1 0 1
0 205 184 162.484 0 0 1 13 0 1 0 1
0 189 184 162.484 0 0 1 13 0 1 0 1
phys
0 205 109 146.9841 0 0 1 13 0 1 0 1
0 189 109 162.484 0 0 1 13 0 1 0 1
0 189 184 162.484 0 0 1 13 0 1 0 1
phys
0 205 109 146.9841 0 0 1 13 0 1 0 1
0 189 184 162.484 0 0 1 13 0 1 0 1
0 205 184 146.9841 0 0 1 13 0 1 0 1
phys
0 142 105 250.9986 0 0 1 14 0 1 0 1
0 142 109 250.9986 0 0 1 14 0 1 0 1
0 142 109 207.999251 0 0 1 14 0 1 0 1
phys
0 142 105 250.9986 0 0 1 14 0 1 0 1
0 142 109 207.999251 0 0 1 14 0 1 0 1
0 142 105 207.999251 0 0 1 14 0 1 0 1
phys
0 269 105 84.999 0 0 1 14 0 1 0 1
0 269 109 84.999 0 0 1 14 0 1 0 1
0 269 109 131.9986 0 0 1 14 0 1 0 1
phys
0 269 105 84.999 0 0 1 14 0 1 0 1
0 269 109 131.9986 0 0 1 14 0 1 0 1
0 269 105 131.9986 0 0 1 14 0 1 0 1
phys
0 269 105 131.9986 0 0 1 14 0 1 0 1
0 269 109 131.9986 0 0 1 14 0 1 0 1
0 142 109 250.9986 0 0 1 14 0 1 0 1
phys
0 269 105 131.9986 0 0 1 14 0 1 0 1
0 142 109 250.9986 0 0 1 14 0 1 0 1
0 142 105 250.9986 0 0 1 14 0 1 0 1
phys
0 142 105 207.999251 0 0 1 14 0 1 0 1
0 142 109 207.999251 0 0 1 14 0 1 0 1
0 269 109 84.999 0 0 1 14 0 1 0 1
phys
0 142 105 207.999251 0 0 1 14 0 1 0 1
0 269 109 84.999 0 0 1 14 0 1 0 1
0 269 105 84.999 0 0 1 14 0 1 0 1
phys
0 269 109 131.9986 0 0 1 14 0 1 0 1
0 269 109 84.999 0 0 1 14 0 1 0 1
0 142 109 207.999251 0 0 1 14 0 1 0 1
phys
0 269 109 131.9986 0 0 1 14 0 1 0 1
0 142 109 207.999251 0 0 1 14 0 1 0 1
0 142 109 250.9986 0 0 1 14 0 1 0 1
phys
0 269 105 84.999 0 0 1 14 0 1 0 1
0 269 105 131.9986 0 0 1 14 0 1 0 1
0 142 105 250.9986 0 0 1 14 0 1 0 1
phys
0 269 105 84.999 0 0 1 14 0 1 0 1
0 142 105 250.9986 0 0 1 14 0 1 0 1
0 142 105 207.999251 0 0 1 14 0 1 0 1
phys
0 284 39 64 0 0 1 15 0 1 0 1
0 284 39 -64 0 0 1 15 0 1 0 1
0 156 39 -64 0 0 1 15 0 1 0 1
phys
0 284 -40 -64 0 0 1 15 0 1 0 1
0 284 -40 64 0 0 1 15 0 1 0 1
0 156 -40 -64 0 0 1 15 0 1 0 1
phys
0 284 -40 64 0 0 1 15 0 1 0 1
0 284 -40 -64 0 0 1 15 0 1 0 1
0 284 39 -64 0 0 1 15 0 1 0 1
phys
0 284 -40 64 0 0 1 15 0 1 0 1
0 284 39 -64 0 0 1 15 0 1 0 1
0 284 39 64 0 0 1 15 0 1 0 1
phys
0 284 -40 -64 0 0 1 15 0 1 0 1
0 156 -40 -64 0 0 1 15 0 1 0 1
0 156 39 -64 0 0 1 15 0 1 0 1
phys
0 284 -40 -64 0 0 1 15 0 1 0 1
0 156 39 -64 0 0 1 15 0 1 0 1
0 284 39 -64 0 0 1 15 0 1 0 1
phys
0 156 -40 -64 0 0 1 15 0 1 0 1
0 284 -40 64 0 0 1 15 0 1 0 1
0 284 39 64 0 0 1 15 0 1 0 1
phys
0 156 -40 -64 0 0 1 15 0 1 0 1
0 284 39 64 0 0 1 15 0 1 0 1
0 156 39 -64 0 0 1 15 0 1 0 1
phys
0 -33 184 100.49 0 0 1 16 0 1 0 1
0 -33 184 116 0 0 1 16 0 1 0 1
0 -17 184 116 0 0 1 16 0 1 0 1
phys
0 -17.002063 109 116 0 0 1 16 0 1 0 1
0 -33 109 116 0 0 1 16 0 1 0 1
0 -33 109 100.492 0 0 1 16 0 1 0 1
phys
0 -33 109 100.492 0 0 1 16 0 1 0 1
0 -33 109 116 0 0 1 16 0 1 0 1
0 -33 184 116 0 0 1 16 0 1 0 1
phys
0 -33 109 100.492 0 0 1 16 0 1 0 1
0 -33 184 116 0 0 1 16 0 1 0 1
0 -33 184 100.49 0 0 1 16 0 1 0 1
phys
0 -33 109 116 0 0 1 16 0 1 0 1
0 -17.002063 109 116 0 0 1 16 0 1 0 1
0 -17 184 116 0 0 1 16 0 1 0 1
phys
0 -33 109 116 0 0 1 16 0 1 0 1
0 -17 184 116 0 0 1 16 0 1 0 1
0 -33 184 116 0 0 1 16 0 1 0 1
phys
0 -17.002063 109 116 0 0 1 16 0 1 0 1
0 -33 109 100.492 0 0 1 16 0 1 0 1
0 -33 184 100.49 0 0 1 16 0 1 0 1
phys
0 -17.002063 109 116 0 0 1 16 0 1 0 1
0 -33 184 100.49 0 0 1 16 0 1 0 1
0 -17 184 116 0 0 1 16 0 1 0 1
phys
0 -17 184 115.9997 0 0 1 17 0 1 0 1
0 -17 184 131.4961 0 0 1 17 0 1 0 1
0 -1 184 131.4961 0 0 1 17 0 1 0 1
phys
0 -1 109 131.4961 0 0 1 17 0 1 0 1
0 -17 109 131.4961 0 0 1 17 0 1 0 1
0 -17 109 115.9997 0 0 1 17 0 1 0 1
phys
0 -17 109 115.9997 0 0 1 17 0 1 0 1
0 -17 109 131.4961 0 0 1 17 0 1 0 1
0 -17 184 131.4961 0 0 1 17 0 1 0 1
phys
0 -17 109 115.9997 0 0 1 17 0 1 0 1
0 -17 184 131.4961 0 0 1 17 0 1 0 1
0 -17 184 115.9997 0 0 1 17 0 1 0 1
phys
0 -17 109 131.4961 0 0 1 17 0 1 0 1
0 -1 109 131.4961 0 0 1 17 0 1 0 1
0 -1 184 131.4961 0 0 1 17 0 1 0 1
phys
0 -17 109 131.4961 0 0 1 17 0 1 0 1
0 -1 184 131.4961 0 0 1 17 0 1 0 1
0 -17 184 131.4961 0 0 1 17 0 1 0 1
phys
0 -1 109 131.4961 0 0 1 17 0 1 0 1
0 -17 109 115.9997 0 0 1 17 0 1 0 1
0 -17 184 115.9997 0 0 1 17 0 1 0 1
phys
0 -1 109 131.4961 0 0 1 17 0 1 0 1
0 -17 184 115.9997 0 0 1 17 0 1 0 1
0 -1 184 131.4961 0 0 1 17 0 1 0 1
phys
0 221 -40 17 0 0 1 18 0 1 0 1
0 237 -40 17 0 0 1 18 0 1 0 1
0 237 35 17 0 0 1 18 0 1 0 1
phys
0 221 -40 17 0 0 1 18 0 1 0 1
0 237 35 17 0 0 1 18 0 1 0 1
0 221 35 17 0 0 1 18 0 1 0 1
phys
0 221 35 1 0 0 1 18 0 1 0 1
0 237 35 17 0 0 1 18 0 1 0 1
0 237 -40 17 0 0 1 18 0 1 0 1
phys
0 221 35 1 0 0 1 18 0 1 0 1
0 237 -40 17 0 0 1 18 0 1 0 1
0 221 -40 1 0 0 1 18 0 1 0 1
phys
0 221 35 17 0 0 1 18 0 1 0 1
0 237 35 17 0 0 1 18 0 1 0 1
0 221 35 1 0 0 1 18 0 1 0 1
phys
0 221 -40 1 0 0 1 18 0 1 0 1
0 237 -40 17 0 0 1 18 0 1 0 1
0 221 -40 17 0 0 1 18 0 1 0 1
phys
0 221 -40 17 0 0 1 18 0 1 0 1
0 221 35 17 0 0 1 18 0 1 0 1
0 221 35 1 0 0 1 18 0 1 0 1
phys
0 221 -40 17 0 0 1 18 0 1 0 1
0 221 35 1 0 0 1 18 0 1 0 1
0 221 -40 1 0 0 1 18 0 1 0 1
phys
0 -49 184 89 0 0 1 19 0 1 0 1
0 -49 184 85.003 0 0 1 19 0 1 0 1
0 -54 184 80 0 0 1 19 0 1 0 1
phys
0 -49 184 89 0 0 1 19 0 1 0 1
0 -54 184 80 0 0 1 19 0 1 0 1
0 -64 184 80 0 0 1 19 0 1 0 1
phys
0 -49 184 89 0 0 1 19 0 1 0 1
0 -64 184 80 0 0 1 19 0 1 0 1
0 -64 184 89 0 0 1 19 0 1 0 1
phys
0 -49 109 85.003 0 0 1 19 0 1 0 1
0 -49 109 89 0 0 1 19 0 1 0 1
0 -64 109 89 0 0 1 19 0 1 0 1
phys
0 -49 109 85.003 0 0 1 19 0 1 0 1
0 -64 109 89 0 0 1 19 0 1 0 1
0 -64 109 80 0 0 1 19 0 1 0 1
phys
0 -49 109 85.003 0 0 1 19 0 1 0 1
0 -64 109 80 0 0 1 19 0 1 0 1
0 -54 109 80 0 0 1 19 0 1 0 1
phys
0 -64 109 80 0 0 1 19 0 1 0 1
0 -64 109 89 0 0 1 19 0 1 0 1
0 -64 184 89 0 0 1 19 0 1 0 1
phys
0 -64 109 80 0 0 1 19 0 1 0 1
0 -64 184 89 0 0 1 19 0 1 0 1
0 -64 184 80 0 0 1 19 0 1 0 1
phys
0 -49 109 89 0 0 1 19 0 1 0 1
0 -49 109 85.003 0 0 1 19 0 1 0 1
0 -49 184 85.003 0 0 1 19 0 1 0 1
phys
0 -49 109 89 0 0 1 19 0 1 0 1
0 -49 184 85.003 0 0 1 19 0 1 0 1
0 -49 184 89 0 0 1 19 0 1 0 1
phys
0 -54 109 80 0 0 1 19 0 1 0 1
0 -64 109 80 0 0 1 19 0 1 0 1
0 -64 184 80 0 0 1 19 0 1 0 1
phys
0 -54 109 80 0 0 1 19 0 1 0 1
0 -64 184 80 0 0 1 19 0 1 0 1
0 -54 184 80 0 0 1 19 0 1 0 1
phys
0 -64 109 89 0 0 1 19 0 1 0 1
0 -49 109 89 0 0 1 19 0 1 0 1
0 -49 184 89 0 0 1 19 0 1 0 1
phys
0 -64 109 89 0 0 1 19 0 1 0 1
0 -49 184 89 0 0 1 19 0 1 0 1
0 -64 184 89 0 0 1 19 0 1 0 1
phys
0 -49 109 85.003 0 0 1 19 0 1 0 1
0 -54 109 80 0 0 1 19 0 1 0 1
0 -54 184 80 0 0 1 19 0 1 0 1
phys
0 -49 109 85.003 0 0 1 19 0 1 0 1
0 -54 184 80 0 0 1 19 0 1 0 1
0 -49 184 85.003 0 0 1 19 0 1 0 1
phys
0 -1 184 131.4964 0 0 1 20 0 1 0 1
0 -1 184 146.984 0 0 1 20 0 1 0 1
0 15 184 146.984 0 0 1 20 0 1 0 1
phys
0 14.994835 109 146.984 0 0 1 20 0 1 0 1
0 -1 109 146.984 0 0 1 20 0 1 0 1
0 -1 109 131.5014 0 0 1 20 0 1 0 1
phys
0 -1 109 131.5014 0 0 1 20 0 1 0 1
0 -1 109 146.984 0 0 1 20 0 1 0 1
0 -1 184 146.984 0 0 1 20 0 1 0 1
phys
0 -1 109 131.5014 0 0 1 20 0 1 0 1
0 -1 184 146.984 0 0 1 20 0 1 0 1
0 -1 184 131.4964 0 0 1 20 0 1 0 1
phys
0 -1 109 146.984 0 0 1 20 0 1 0 1
0 14.994835 109 146.984 0 0 1 20 0 1 0 1
0 15 184 146.984 0 0 1 20 0 1 0 1
phys
0 -1 109 146.984 0 0 1 20 0 1 0 1
0 15 184 146.984 0 0 1 20 0 1 0 1
0 -1 184 146.984 0 0 1 20 0 1 0 1
phys
0 14.994835 109 146.984 0 0 1 20 0 1 0 1
0 -1 109 131.5014 0 0 1 20 0 1 0 1
0 -1 184 131.4964 0 0 1 20 0 1 0 1
phys
0 14.994835 109 146.984 0 0 1 20 0 1 0 1
0 -1 184 131.4964 0 0 1 20 0 1 0 1
0 15 184 146.984 0 0 1 20 0 1 0 1
phys
0 142 -40 199 0 0 1 21 0 1 0 1
0 142 184 199 0 0 1 21 0 1 0 1
0 142 184 208 0 0 1 21 0 1 0 1
phys
0 142 -40 199 0 0 1 21 0 1 0 1
0 142 184 208 0 0 1 21 0 1 0 1
0 142 -40 208 0 0 1 21 0 1 0 1
phys
0 78 184 199 0 0 1 21 0 1 0 1
0 142 184 199 0 0 1 21 0 1 0 1
0 142 -40 199 0 0 1 21 0 1 0 1
phys
0 78 184 199 0 0 1 21 0 1 0 1
0 142 -40 199 0 0 1 21 0 1 0 1
0 78 -40 199 0 0 1 21 0 1 0 1
phys
0 78 -40 208 0 0 1 21 0 1 0 1
0 142 -40 208 0 0 1 21 0 1 0 1
0 142 184 208 0 0 1 21 0 1 0 1
phys
0 78 -40 208 0 0 1 21 0 1 0 1
0 142 184 208 0 0 1 21 0 1 0 1
0 78 184 208 0 0 1 21 0 1 0 1
phys
0 142 184 208 0 0 1 21 0 1 0 1
0 142 184 199 0 0 1 21 0 1 0 1
0 78 184 199 0 0 1 21 0 1 0 1
phys
0 142 184 208 0 0 1 21 0 1 0 1
0 78 184 199 0 0 1 21 0 1 0 1
0 78 184 208 0 0 1 21 0 1 0 1
phys
0 142 -40 199 0 0 1 21 0 1 0 1
0 142 -40 208 0 0 1 21 0 1 0 1
0 78 -40 208 0 0 1 21 0 1 0 1
phys
0 142 -40 199 0 0 1 21 0 1 0 1
0 78 -40 208 0 0 1 21 0 1 0 1
0 78 -40 199 0 0 1 21 0 1 0 1
phys
0 78 -40 208 0 0 1 21 0 1 0 1
0 78 184 208 0 0 1 21 0 1 0 1
0 78 184 199 0 0 1 21 0 1 0 1
phys
0 78 -40 208 0 0 1 21 0 1 0 1
0 78 184 199 0 0 1 21 0 1 0 1
0 78 -40 199 0 0 1 21 0 1 0 1
phys
0 15 184 146.9831 0 0 1 22 0 1 0 1
0 15 184 162.484 0 0 1 22 0 1 0 1
0 31 184 162.484 0 0 1 22 0 1 0 1
phys
0 31 109 162.484 0 0 1 22 0 1 0 1
0 15 109 162.484 0 0 1 22 0 1 0 1
0 15 109 146.9831 0 0 1 22 0 1 0 1
phys
0 15 109 146.9831 0 0 1 22 0 1 0 1
0 15 109 162.484 0 0 1 22 0 1 0 1
0 15 184 162.484 0 0 1 22 0 1 0 1
phys
0 15 109 146.9831 0 0 1 22 0 1 0 1
0 15 184 162.484 0 0 1 22 0 1 0 1
0 15 184 146.9831 0 0 1 22 0 1 0 1
phys
0 15 109 162.484 0 0 1 22 0 1 0 1
0 31 109 162.484 0 0 1 22 0 1 0 1
0 31 184 162.484 0 0 1 22 0 1 0 1
phys
0 15 109 162.484 0 0 1 22 0 1 0 1
0 31 184 162.484 0 0 1 22 0 1 0 1
0 15 184 162.484 0 0 1 22 0 1 0 1
phys
0 31 109 162.484 0 0 1 22 0 1 0 1
0 15 109 146.9831 0 0 1 22 0 1 0 1
0 15 184 146.9831 0 0 1 22 0 1 0 1
phys
0 31 109 162.484 0 0 1 22 0 1 0 1
0 15 184 146.9831 0 0 1 22 0 1 0 1
0 31 184 162.484 0 0 1 22 0 1 0 1
phys
0 157 184 208 0 0 1 23 0 1 0 1
0 157 184 193.4713 0 0 1 23 0 1 0 1
0 142 184 208 0 0 1 23 0 1 0 1
phys
0 157 109 193.4713 0 0 1 23 0 1 0 1
0 157 109 208 0 0 1 23 0 1 0 1
0 142 109 208 0 0 1 23 0 1 0 1
phys
0 157 109 208 0 0 1 23 0 1 0 1
0 157 109 193.4713 0 0 1 23 0 1 0 1
0 157 184 193.4713 0 0 1 23 0 1 0 1
phys
0 157 109 208 0 0 1 23 0 1 0 1
0 157 184 193.4713 0 0 1 23 0 1 0 1
0 157 184 208 0 0 1 23 0 1 0 1
phys
0 142 109 208 0 0 1 23 0 1 0 1
0 157 109 208 0 0 1 23 0 1 0 1
0 157 184 208 0 0 1 23 0 1 0 1
phys
0 142 109 208 0 0 1 23 0 1 0 1
0 157 184 208 0 0 1 23 0 1 0 1
0 142 184 208 0 0 1 23 0 1 0 1
phys
0 157 109 193.4713 0 0 1 23 0 1 0 1
0 142 109 208 0 0 1 23 0 1 0 1
0 142 184 208 0 0 1 23 0 1 0 1
phys
0 157 109 193.4713 0 0 1 23 0 1 0 1
0 142 184 208 0 0 1 23 0 1 0 1
0 157 184 193.4713 0 0 1 23 0 1 0 1
phys
0 -147 -50 80 0 0 1 24 0 1 0 1
0 -147 -50 192.0029 0 0 1 24 0 1 0 1
0 -151 -50 188.0029 0 0 1 24 0 1 0 1
phys
0 -147 -50 80 0 0 1 24 0 1 0 1
0 -151 -50 188.0029 0 0 1 24 0 1 0 1
0 -151 -50 80 0 0 1 24 0 1 0 1
phys
0 -151 -50 80 0 0 1 24 0 1 0 1
0 -151 -50 188.0029 0 0 1 24 0 1 0 1
0 -151 -40 188.0029 0 0 1 24 0 1 0 1
phys
0 -151 -50 80 0 0 1 24 0 1 0 1
0 -151 -40 188.0029 0 0 1 24 0 1 0 1
0 -151 -40 80 0 0 1 24 0 1 0 1
phys
0 -147 -50 192.0029 0 0 1 24 0 1 0 1
0 -147 -50 80 0 0 1 24 0 1 0 1
0 -147 -40 80 0 0 1 24 0 1 0 1
phys
0 -147 -50 192.0029 0 0 1 24 0 1 0 1
0 -147 -40 80 0 0 1 24 0 1 0 1
0 -147 -40 192.0029 0 0 1 24 0 1 0 1
phys
0 -147 -50 80 0 0 1 24 0 1 0 1
0 -151 -50 80 0 0 1 24 0 1 0 1
0 -151 -40 80 0 0 1 24 0 1 0 1
phys
0 -147 -50 80 0 0 1 24 0 1 0 1
0 -151 -40 80 0 0 1 24 0 1 0 1
0 -147 -40 80 0 0 1 24 0 1 0 1
phys
0 -151 -50 188.0029 0 0 1 24 0 1 0 1
0 -147 -50 192.0029 0 0 1 24 0 1 0 1
0 -147 -40 192.0029 0 0 1 24 0 1 0 1
phys
0 -151 -50 188.0029 0 0 1 24 0 1 0 1
0 -147 -40 192.0029 0 0 1 24 0 1 0 1
0 -151 -40 188.0029 0 0 1 24 0 1 0 1
phys
0 -147 -40 192.0029 0 0 1 24 0 1 0 1
0 -147 -40 80 0 0 1 24 0 1 0 1
0 -151 -40 80 0 0 1 24 0 1 0 1
phys
0 -147 -40 192.0029 0 0 1 24 0 1 0 1
0 -151 -40 80 0 0 1 24 0 1 0 1
0 -151 -40 188.0029 0 0 1 24 0 1 0 1
phys
0 221 184 146.984 0 0 1 25 0 1 0 1
0 221 184 131.5065 0 0 1 25 0 1 0 1
0 205.005167 184 146.984 0 0 1 25 0 1 0 1
phys
0 221 109 131.5015 0 0 1 25 0 1 0 1
0 221 109 146.984 0 0 1 25 0 1 0 1
0 205 109 146.984 0 0 1 25 0 1 0 1
phys
0 221 109 146.984 0 0 1 25 0 1 0 1
0 221 109 131.5015 0 0 1 25 0 1 0 1
0 221 184 131.5065 0 0 1 25 0 1 0 1
phys
0 221 109 146.984 0 0 1 25 0 1 0 1
0 221 184 131.5065 0 0 1 25 0 1 0 1
0 221 184 146.984 0 0 1 25 0 1 0 1
phys
0 205 109 146.984 0 0 1 25 0 1 0 1
0 221 109 146.984 0 0 1 25 0 1 0 1
0 221 184 146.984 0 0 1 25 0 1 0 1
phys
0 205 109 146.984 0 0 1 25 0 1 0 1
0 221 184 146.984 0 0 1 25 0 1 0 1
0 205.005167 184 146.984 0 0 1 25 0 1 0 1
phys
0 221 109 131.5015 0 0 1 25 0 1 0 1
0 205 109 146.984 0 0 1 25 0 1 0 1
0 205.005167 184 146.984 0 0 1 25 0 1 0 1
phys
0 221 109 131.5015 0 0 1 25 0 1 0 1
0 205.005167 184 146.984 0 0 1 25 0 1 0 1
0 221 184 131.5065 0 0 1 25 0 1 0 1
phys
0 284 35 208 0 0 1 26 0 1 0 1
0 284 35 199 0 0 1 26 0 1 0 1
0 142 35 199 0 0 1 26 0 1 0 1
phys
0 284 35 208 0 0 1 26 0 1 0 1
0 142 35 199 0 0 1 26 0 1 0 1
0 142 35 208 0 0 1 26 0 1 0 1
phys
0 284 -40 199 0 0 1 26 0 1 0 1
0 284 -40 208 0 0 1 26 0 1 0 1
0 142 -40 208 0 0 1 26 0 1 0 1
phys
0 284 -40 199 0 0 1 26 0 1 0 1
0 142 -40 208 0 0 1 26 0 1 0 1
0 142 -40 199 0 0 1 26 0 1 0 1
phys
0 142 -40 199 0 0 1 26 0 1 0 1
0 142 -40 208 0 0 1 26 0 1 0 1
0 142 35 208 0 0 1 26 0 1 0 1
phys
0 142 -40 199 0 0 1 26 0 1 0 1
0 142 35 208 0 0 1 26 0 1 0 1
0 142 35 199 0 0 1 26 0 1 0 1
phys
0 284 -40 208 0 0 1 26 0 1 0 1
0 284 -40 199 0 0 1 26 0 1 0 1
0 284 35 199 0 0 1 26 0 1 0 1
phys
0 284 -40 208 0 0 1 26 0 1 0 1
0 284 35 199 0 0 1 26 0 1 0 1
0 284 35 208 0 0 1 26 0 1 0 1
phys
0 284 -40 199 0 0 1 26 0 1 0 1
0 142 -40 199 0 0 1 26 0 1 0 1
0 142 35 199 0 0 1 26 0 1 0 1
phys
0 284 -40 199 0 0 1 26 0 1 0 1
0 142 35 199 0 0 1 26 0 1 0 1
0 284 35 199 0 0 1 26 0 1 0 1
phys
0 142 -40 208 0 0 1 26 0 1 0 1
0 284 -40 208 0 0 1 26 0 1 0 1
0 284 35 208 0 0 1 26 0 1 0 1
phys
0 142 -40 208 0 0 1 26 0 1 0 1
0 284 35 208 0 0 1 26 0 1 0 1
0 142 35 208 0 0 1 26 0 1 0 1
phys
0 31 109 177.978 0 0 1 27 0 1 0 1
0 47 109 177.978 0 0 1 27 0 1 0 1
0 47 184 177.978 0 0 1 27 0 1 0 1
phys
0 31 109 177.978 0 0 1 27 0 1 0 1
0 47 184 177.978 0 0 1 27 0 1 0 1
0 31 184 177.978 0 0 1 27 0 1 0 1
phys
0 31 184 162.4876 0 0 1 27 0 1 0 1
0 47 184 177.978 0 0 1 27 0 1 0 1
0 47 109 177.978 0 0 1 27 0 1 0 1
phys
0 31 184 162.4876 0 0 1 27 0 1 0 1
0 47 109 177.978 0 0 1 27 0 1 0 1
0 31 109 162.4876 0 0 1 27 0 1 0 1
phys
0 31 184 177.978 0 0 1 27 0 1 0 1
0 47 184 177.978 0 0 1 27 0 1 0 1
0 31 184 162.4876 0 0 1 27 0 1 0 1
phys
0 47 109 177.978 0 0 1 27 0 1 0 1
0 31 109 177.978 0 0 1 27 0 1 0 1
0 31 109 162.4876 0 0 1 27 0 1 0 1
phys
0 31 109 177.978 0 0 1 27 0 1 0 1
0 31 184 177.978 0 0 1 27 0 1 0 1
0 31 184 162.4876 0 0 1 27 0 1 0 1
phys
0 31 109 177.978 0 0 1 27 0 1 0 1
0 31 184 162.4876 0 0 1 27 0 1 0 1
0 31 109 162.4876 0 0 1 27 0 1 0 1
phys
0 189 -40 -15 0 0 1 28 0 1 0 1
0 205 -40 -15 0 0 1 28 0 1 0 1
0 205 35 -15 0 0 1 28 0 1 0 1
phys
0 189 -40 -15 0 0 1 28 0 1 0 1
0 205 35 -15 0 0 1 28 0 1 0 1
0 189 35 -15 0 0 1 28 0 1 0 1
phys
0 189 35 -31 0 0 1 28 0 1 0 1
0 205 35 -15 0 0 1 28 0 1 0 1
0 205 -40 -15 0 0 1 28 0 1 0 1
phys
0 189 35 -31 0 0 1 28 0 1 0 1
0 205 -40 -15 0 0 1 28 0 1 0 1
0 189 -40 -31 0 0 1 28 0 1 0 1
phys
0 189 35 -15 0 0 1 28 0 1 0 1
0 205 35 -15 0 0 1 28 0 1 0 1
0 189 35 -31 0 0 1 28 0 1 0 1
phys
0 189 -40 -31 0 0 1 28 0 1 0 1
0 205 -40 -15 0 0 1 28 0 1 0 1
0 189 -40 -15 0 0 1 28 0 1 0 1
phys
0 189 -40 -15 0 0 1 28 0 1 0 1
0 189 35 -15 0 0 1 28 0 1 0 1
0 189 35 -31 0 0 1 28 0 1 0 1
phys
0 189 -40 -15 0 0 1 28 0 1 0 1
0 189 35 -31 0 0 1 28 0 1 0 1
0 189 -40 -31 0 0 1 28 0 1 0 1
phys
0 -33 35 49 0 0 1 29 0 1 0 1
0 -33 35 33.001 0 0 1 29 0 1 0 1
0 -49 35 49 0 0 1 29 0 1 0 1
phys
0 -33 -40 33.001 0 0 1 29 0 1 0 1
0 -33 -40 49 0 0 1 29 0 1 0 1
0 -49 -40 49 0 0 1 29 0 1 0 1
phys
0 -33 -40 49 0 0 1 29 0 1 0 1
0 -33 -40 33.001 0 0 1 29 0 1 0 1
0 -33 35 33.001 0 0 1 29 0 1 0 1
phys
0 -33 -40 49 0 0 1 29 0 1 0 1
0 -33 35 33.001 0 0 1 29 0 1 0 1
0 -33 35 49 0 0 1 29 0 1 0 1
phys
0 -49 -40 49 0 0 1 29 0 1 0 1
0 -33 -40 49 0 0 1 29 0 1 0 1
0 -33 35 49 0 0 1 29 0 1 0 1
phys
0 -49 -40 49 0 0 1 29 0 1 0 1
0 -33 35 49 0 0 1 29 0 1 0 1
0 -49 35 49 0 0 1 29 0 1 0 1
phys
0 -33 -40 33.001 0 0 1 29 0 1 0 1
0 -49 -40 49 0 0 1 29 0 1 0 1
0 -49 35 49 0 0 1 29 0 1 0 1
phys
0 -33 -40 33.001 0 0 1 29 0 1 0 1
0 -49 35 49 0 0 1 29 0 1 0 1
0 -33 35 33.001 0 0 1 29 0 1 0 1
phys
0 237 109 116.0002 0 0 1 30 0 1 0 1
0 237 184 116.0002 0 0 1 30 0 1 0 1
0 237 184 131.4961 0 0 1 30 0 1 0 1
phys
0 237 109 116.0002 0 0 1 30 0 1 0 1
0 237 184 131.4961 0 0 1 30 0 1 0 1
0 237 109 131.4961 0 0 1 30 0 1 0 1
phys
0 237 109 131.4961 0 0 1 30 0 1 0 1
0 237 184 131.4961 0 0 1 30 0 1 0 1
0 221 184 131.4961 0 0 1 30 0 1 0 1
phys
0 237 109 131.4961 0 0 1 30 0 1 0 1
0 221 184 131.4961 0 0 1 30 0 1 0 1
0 221 109 131.4961 0 0 1 30 0 1 0 1
phys
0 221 109 131.4961 0 0 1 30 0 1 0 1
0 221 184 131.4961 0 0 1 30 0 1 0 1
0 237 184 116.0002 0 0 1 30 0 1 0 1
phys
0 221 109 131.4961 0 0 1 30 0 1 0 1
0 237 184 116.0002 0 0 1 30 0 1 0 1
0 237 109 116.0002 0 0 1 30 0 1 0 1
phys
0 237 184 131.4961 0 0 1 30 0 1 0 1
0 237 184 116.0002 0 0 1 30 0 1 0 1
0 221 184 131.4961 0 0 1 30 0 1 0 1
phys
0 237 109 116.0002 0 0 1 30 0 1 0 1
0 237 109 131.4961 0 0 1 30 0 1 0 1
0 221 109 131.4961 0 0 1 30 0 1 0 1
phys
0 64 39 -11.017 0 0 1 31 0 1 0 1
0 64 39 -63.999 0 0 1 31 0 1 0 1
0 -64 39 64.001 0 0 1 31 0 1 0 1
phys
0 64 39 -11.017 0 0 1 31 0 1 0 1
0 -64 39 64.001 0 0 1 31 0 1 0 1
0 -64 39 123.0007 0 0 1 31 0 1 0 1
phys
0 64 35 -63.999 0 0 1 31 0 1 0 1
0 64 35 -11.017 0 0 1 31 0 1 0 1
0 -64 35 123.0007 0 0 1 31 0 1 0 1
phys
0 64 35 -63.999 0 0 1 31 0 1 0 1
0 -64 35 123.0007 0 0 1 31 0 1 0 1
0 -64 35 64.001 0 0 1 31 0 1 0 1
phys
0 -64 35 64.001 0 0 1 31 0 1 0 1
0 -64 35 123.0007 0 0 1 31 0 1 0 1
0 -64 39 123.0007 0 0 1 31 0 1 0 1
phys
0 -64 35 64.001 0 0 1 31 0 1 0 1
0 -64 39 123.0007 0 0 1 31 0 1 0 1
0 -64 39 64.001 0 0 1 31 0 1 0 1
phys
0 64 35 -11.017 0 0 1 31 0 1 0 1
0 64 35 -63.999 0 0 1 31 0 1 0 1
0 64 39 -63.999 0 0 1 31 0 1 0 1
phys
0 64 35 -11.017 0 0 1 31 0 1 0 1
0 64 39 -63.999 0 0 1 31 0 1 0 1
0 64 39 -11.017 0 0 1 31 0 1 0 1
phys
0 -64 35 123.0007 0 0 1 31 0 1 0 1
0 64 35 -11.017 0 0 1 31 0 1 0 1
0 64 39 -11.017 0 0 1 31 0 1 0 1
phys
0 -64 35 123.0007 0 0 1 31 0 1 0 1
0 64 39 -11.017 0 0 1 31 0 1 0 1
0 -64 39 123.0007 0 0 1 31 0 1 0 1
phys
0 64 35 -63.999 0 0 1 31 0 1 0 1
0 -64 35 64.001 0 0 1 31 0 1 0 1
0 -64 39 64.001 0 0 1 31 0 1 0 1
phys
0 64 35 -63.999 0 0 1 31 0 1 0 1
0 -64 39 64.001 0 0 1 31 0 1 0 1
0 64 39 -63.999 0 0 1 31 0 1 0 1
phys
0 -64 184 208 0 0 1 32 0 1 0 1
0 -64 184 199 0 0 1 32 0 1 0 1
0 -222 184 199 0 0 1 32 0 1 0 1
phys
0 -64 184 208 0 0 1 32 0 1 0 1
0 -222 184 199 0 0 1 32 0 1 0 1
0 -222 184 208 0 0 1 32 0 1 0 1
phys
0 -64 -40 199 0 0 1 32 0 1 0 1
0 -64 -40 208 0 0 1 32 0 1 0 1
0 -222 -40 208 0 0 1 32 0 1 0 1
phys
0 -64 -40 199 0 0 1 32 0 1 0 1
0 -222 -40 208 0 0 1 32 0 1 0 1
0 -222 -40 199 0 0 1 32 0 1 0 1
phys
0 -222 -40 199 0 0 1 32 0 1 0 1
0 -222 -40 208 0 0 1 32 0 1 0 1
0 -222 184 208 0 0 1 32 0 1 0 1
phys
0 -222 -40 199 0 0 1 32 0 1 0 1
0 -222 184 208 0 0 1 32 0 1 0 1
0 -222 184 199 0 0 1 32 0 1 0 1
phys
0 -64 -40 208 0 0 1 32 0 1 0 1
0 -64 -40 199 0 0 1 32 0 1 0 1
0 -64 184 199 0 0 1 32 0 1 0 1
phys
0 -64 -40 208 0 0 1 32 0 1 0 1
0 -64 184 199 0 0 1 32 0 1 0 1
0 -64 184 208 0 0 1 32 0 1 0 1
phys
0 -64 -40 199 0 0 1 32 0 1 0 1
0 -222 -40 199 0 0 1 32 0 1 0 1
0 -222 184 199 0 0 1 32 0 1 0 1
phys
0 -64 -40 199 0 0 1 32 0 1 0 1
0 -222 184 199 0 0 1 32 0 1 0 1
0 -64 184 199 0 0 1 32 0 1 0 1
phys
0 -222 -40 208 0 0 1 32 0 1 0 1
0 -64 -40 208 0 0 1 32 0 1 0 1
0 -64 184 208 0 0 1 32 0 1 0 1
phys
0 -222 -40 208 0 0 1 32 0 1 0 1
0 -64 184 208 0 0 1 32 0 1 0 1
0 -222 184 208 0 0 1 32 0 1 0 1
phys
0 -17 35 33 0 0 1 33 0 1 0 1
0 -17 35 17.001 0 0 1 33 0 1 0 1
0 -33 35 33 0 0 1 33 0 1 0 1
phys
0 -17 -40 17.001 0 0 1 33 0 1 0 1
0 -17 -40 33 0 0 1 33 0 1 0 1
0 -33 -40 33 0 0 1 33 0 1 0 1
phys
0 -17 -40 33 0 0 1 33 0 1 0 1
0 -17 -40 17.001 0 0 1 33 0 1 0 1
0 -17 35 17.001 0 0 1 33 0 1 0 1
phys
0 -17 -40 33 0 0 1 33 0 1 0 1
0 -17 35 17.001 0 0 1 33 0 1 0 1
0 -17 35 33 0 0 1 33 0 1 0 1
phys
0 -33 -40 33 0 0 1 33 0 1 0 1
0 -17 -40 33 0 0 1 33 0 1 0 1
0 -17 35 33 0 0 1 33 0 1 0 1
phys
0 -33 -40 33 0 0 1 33 0 1 0 1
0 -17 35 33 0 0 1 33 0 1 0 1
0 -33 35 33 0 0 1 33 0 1 0 1
phys
0 -17 -40 17.001 0 0 1 33 0 1 0 1
0 -33 -40 33 0 0 1 33 0 1 0 1
0 -33 35 33 0 0 1 33 0 1 0 1
phys
0 -17 -40 17.001 0 0 1 33 0 1 0 1
0 -33 35 33 0 0 1 33 0 1 0 1
0 -17 35 17.001 0 0 1 33 0 1 0 1
phys
0 269 35 49 0 0 1 34 0 1 0 1
0 269 35 64 0 0 1 34 0 1 0 1
0 284 35 64 0 0 1 34 0 1 0 1
phys
0 284 -40 64 0 0 1 34 0 1 0 1
0 269 -40 64 0 0 1 34 0 1 0 1
0 269 -40 49 0 0 1 34 0 1 0 1
phys
0 269 -40 49 0 0 1 34 0 1 0 1
0 269 -40 64 0 0 1 34 0 1 0 1
0 269 35 64 0 0 1 34 0 1 0 1
phys
0 269 -40 49 0 0 1 34 0 1 0 1
0 269 35 64 0 0 1 34 0 1 0 1
0 269 35 49 0 0 1 34 0 1 0 1
phys
0 269 -40 64 0 0 1 34 0 1 0 1
0 284 -40 64 0 0 1 34 0 1 0 1
0 284 35 64 0 0 1 34 0 1 0 1
phys
0 269 -40 64 0 0 1 34 0 1 0 1
0 284 35 64 0 0 1 34 0 1 0 1
0 269 35 64 0 0 1 34 0 1 0 1
phys
0 284 -40 64 0 0 1 34 0 1 0 1
0 269 -40 49 0 0 1 34 0 1 0 1
0 269 35 49 0 0 1 34 0 1 0 1
phys
0 284 -40 64 0 0 1 34 0 1 0 1
0 269 35 49 0 0 1 34 0 1 0 1
0 284 35 64 0 0 1 34 0 1 0 1
phys
0 269 184 100.486 0 0 1 35 0 1 0 1
0 269 184 85.001 0 0 1 35 0 1 0 1
0 253 184 100.486 0 0 1 35 0 1 0 1
phys
0 269 109 85.001 0 0 1 35 0 1 0 1
0 269 109 100.486 0 0 1 35 0 1 0 1
0 253 109 100.486 0 0 1 35 0 1 0 1
phys
0 269 109 100.486 0 0 1 35 0 1 0 1
0 269 109 85.001 0 0 1 35 0 1 0 1
0 269 184 85.001 0 0 1 35 0 1 0 1
phys
0 269 109 100.486 0 0 1 35 0 1 0 1
0 269 184 85.001 0 0 1 35 0 1 0 1
0 269 184 100.486 0 0 1 35 0 1 0 1
phys
0 253 109 100.486 0 0 1 35 0 1 0 1
0 269 109 100.486 0 0 1 35 0 1 0 1
0 269 184 100.486 0 0 1 35 0 1 0 1
phys
0 253 109 100.486 0 0 1 35 0 1 0 1
0 269 184 100.486 0 0 1 35 0 1 0 1
0 253 184 100.486 0 0 1 35 0 1 0 1
phys
0 269 109 85.001 0 0 1 35 0 1 0 1
0 253 109 100.486 0 0 1 35 0 1 0 1
0 253 184 100.486 0 0 1 35 0 1 0 1
phys
0 269 109 85.001 0 0 1 35 0 1 0 1
0 253 184 100.486 0 0 1 35 0 1 0 1
0 269 184 85.001 0 0 1 35 0 1 0 1
phys
0 -64 109 123 0 0 1 36 0 1 0 1
0 -64 109 80 0 0 1 36 0 1 0 1
0 -68 109 80 0 0 1 36 0 1 0 1
phys
0 -64 109 123 0 0 1 36 0 1 0 1
0 -68 109 80 0 0 1 36 0 1 0 1
0 -68 109 123 0 0 1 36 0 1 0 1
phys
0 -64 35 80 0 0 1 36 0 1 0 1
0 -64 35 123 0 0 1 36 0 1 0 1
0 -68 35 123 0 0 1 36 0 1 0 1
phys
0 -64 35 80 0 0 1 36 0 1 0 1
0 -68 35 123 0 0 1 36 0 1 0 1
0 -68 35 80 0 0 1 36 0 1 0 1
phys
0 -68 35 80 0 0 1 36 0 1 0 1
0 -68 35 123 0 0 1 36 0 1 0 1
0 -68 109 123 0 0 1 36 0 1 0 1
phys
0 -68 35 80 0 0 1 36 0 1 0 1
0 -68 109 123 0 0 1 36 0 1 0 1
0 -68 109 80 0 0 1 36 0 1 0 1
phys
0 -64 35 123 0 0 1 36 0 1 0 1
0 -64 35 80 0 0 1 36 0 1 0 1
0 -64 109 80 0 0 1 36 0 1 0 1
phys
0 -64 35 123 0 0 1 36 0 1 0 1
0 -64 109 80 0 0 1 36 0 1 0 1
0 -64 109 123 0 0 1 36 0 1 0 1
phys
0 -64 35 80 0 0 1 36 0 1 0 1
0 -68 35 80 0 0 1 36 0 1 0 1
0 -68 109 80 0 0 1 36 0 1 0 1
phys
0 -64 35 80 0 0 1 36 0 1 0 1
0 -68 109 80 0 0 1 36 0 1 0 1
0 -64 109 80 0 0 1 36 0 1 0 1
phys
0 -68 35 123 0 0 1 36 0 1 0 1
0 -64 35 123 0 0 1 36 0 1 0 1
0 -64 109 123 0 0 1 36 0 1 0 1
phys
0 -68 35 123 0 0 1 36 0 1 0 1
0 -64 109 123 0 0 1 36 0 1 0 1
0 -68 109 123 0 0 1 36 0 1 0 1
phys
0 288 109 123 0 0 1 37 0 1 0 1
0 288 109 80 0 0 1 37 0 1 0 1
0 284 109 80 0 0 1 37 0 1 0 1
phys
0 288 109 123 0 0 1 37 0 1 0 1
0 284 109 80 0 0 1 37 0 1 0 1
0 284 109 123 0 0 1 37 0 1 0 1
phys
0 288 35 80 0 0 1 37 0 1 0 1
0 288 35 123 0 0 1 37 0 1 0 1
0 284 35 123 0 0 1 37 0 1 0 1
phys
0 288 35 80 0 0 1 37 0 1 0 1
0 284 35 123 0 0 1 37 0 1 0 1
0 284 35 80 0 0 1 37 0 1 0 1
phys
0 284 35 80 0 0 1 37 0 1 0 1
0 284 35 123 0 0 1 37 0 1 0 1
0 284 109 123 0 0 1 37 0 1 0 1
phys
0 284 35 80 0 0 1 37 0 1 0 1
0 284 109 123 0 0 1 37 0 1 0 1
0 284 109 80 0 0 1 37 0 1 0 1
phys
0 288 35 123 0 0 1 37 0 1 0 1
0 288 35 80 0 0 1 37 0 1 0 1
0 288 109 80 0 0 1 37 0 1 0 1
phys
0 288 35 123 0 0 1 37 0 1 0 1
0 288 109 80 0 0 1 37 0 1 0 1
0 288 109 123 0 0 1 37 0 1 0 1
phys
0 288 35 80 0 0 1 37 0 1 0 1
0 284 35 80 0 0 1 37 0 1 0 1
0 284 109 80 0 0 1 37 0 1 0 1
phys
0 288 35 80 0 0 1 37 0 1 0 1
0 284 109 80 0 0 1 37 0 1 0 1
0 288 109 80 0 0 1 37 0 1 0 1
phys
0 284 35 123 0 0 1 37 0 1 0 1
0 288 35 123 0 0 1 37 0 1 0 1
0 288 109 123 0 0 1 37 0 1 0 1
phys
0 284 35 123 0 0 1 37 0 1 0 1
0 288 109 123 0 0 1 37 0 1 0 1
0 284 109 123 0 0 1 37 0 1 0 1
phys
0 -64 -40 64.001 0 0 1 38 0 1 0 1
0 -64 -40 -64 0 0 1 38 0 1 0 1
0 64 -40 -64 0 0 1 38 0 1 0 1
phys
0 -64 -40 -64 0 0 1 38 0 1 0 1
0 -64 -40 64.001 0 0 1 38 0 1 0 1
0 -64 39 64.001 0 0 1 38 0 1 0 1
phys
0 -64 -40 -64 0 0 1 38 0 1 0 1
0 -64 39 64.001 0 0 1 38 0 1 0 1
0 -64 39 -64 0 0 1 38 0 1 0 1
phys
0 64 -40 -64 0 0 1 38 0 1 0 1
0 -64 -40 -64 0 0 1 38 0 1 0 1
0 -64 39 -64 0 0 1 38 0 1 0 1
phys
0 64 -40 -64 0 0 1 38 0 1 0 1
0 -64 39 -64 0 0 1 38 0 1 0 1
0 64 39 -64 0 0 1 38 0 1 0 1
phys
0 -64 -40 64.001 0 0 1 38 0 1 0 1
0 64 -40 -64 0 0 1 38 0 1 0 1
0 64 39 -64 0 0 1 38 0 1 0 1
phys
0 -64 -40 64.001 0 0 1 38 0 1 0 1
0 64 39 -64 0 0 1 38 0 1 0 1
0 -64 39 64.001 0 0 1 38 0 1 0 1
phys
0 64 39 -64 0 0 1 38 0 1 0 1
0 -64 39 -64 0 0 1 38 0 1 0 1
0 -64 39 64.001 0 0 1 38 0 1 0 1
phys
0 -49 35 64 0 0 1 39 0 1 0 1
0 -49 35 49.001 0 0 1 39 0 1 0 1
0 -64 35 64 0 0 1 39 0 1 0 1
phys
0 -49 -40 49.001 0 0 1 39 0 1 0 1
0 -49 -40 64 0 0 1 39 0 1 0 1
0 -64 -40 64 0 0 1 39 0 1 0 1
phys
0 -49 -40 64 0 0 1 39 0 1 0 1
0 -49 -40 49.001 0 0 1 39 0 1 0 1
0 -49 35 49.001 0 0 1 39 0 1 0 1
phys
0 -49 -40 64 0 0 1 39 0 1 0 1
0 -49 35 49.001 0 0 1 39 0 1 0 1
0 -49 35 64 0 0 1 39 0 1 0 1
phys
0 -64 -40 64 0 0 1 39 0 1 0 1
0 -49 -40 64 0 0 1 39 0 1 0 1
0 -49 35 64 0 0 1 39 0 1 0 1
phys
0 -64 -40 64 0 0 1 39 0 1 0 1
0 -49 35 64 0 0 1 39 0 1 0 1
0 -64 35 64 0 0 1 39 0 1 0 1
phys
0 -49 -40 49.001 0 0 1 39 0 1 0 1
0 -64 -40 64 0 0 1 39 0 1 0 1
0 -64 35 64 0 0 1 39 0 1 0 1
phys
0 -49 -40 49.001 0 0 1 39 0 1 0 1
0 -64 35 64 0 0 1 39 0 1 0 1
0 -49 35 49.001 0 0 1 39 0 1 0 1
phys
0 47 -40 -46.999 0 0 1 40 0 1 0 1
0 31 -40 -31 0 0 1 40 0 1 0 1
0 31 35 -31 0 0 1 40 0 1 0 1
phys
0 47 -40 -46.999 0 0 1 40 0 1 0 1
0 31 35 -31 0 0 1 40 0 1 0 1
0 47 35 -46.999 0 0 1 40 0 1 0 1
phys
0 47 35 -31 0 0 1 40 0 1 0 1
0 47 35 -46.999 0 0 1 40 0 1 0 1
0 31 35 -31 0 0 1 40 0 1 0 1
phys
0 31 -40 -31 0 0 1 40 0 1 0 1
0 47 -40 -46.999 0 0 1 40 0 1 0 1
0 47 -40 -31 0 0 1 40 0 1 0 1
phys
0 47 -40 -31 0 0 1 40 0 1 0 1
0 47 -40 -46.999 0 0 1 40 0 1 0 1
0 47 35 -46.999 0 0 1 40 0 1 0 1
phys
0 47 -40 -31 0 0 1 40 0 1 0 1
0 47 35 -46.999 0 0 1 40 0 1 0 1
0 47 35 -31 0 0 1 40 0 1 0 1
phys
0 47 35 -31 0 0 1 40 0 1 0 1
0 31 35 -31 0 0 1 40 0 1 0 1
0 31 -40 -31 0 0 1 40 0 1 0 1
phys
0 47 35 -31 0 0 1 40 0 1 0 1
0 31 -40 -31 0 0 1 40 0 1 0 1
0 47 -40 -31 0 0 1 40 0 1 0 1
phys
0 -49 109 132.0002 0 0 1 41 0 1 0 1
0 -49 109 85.003 0 0 1 41 0 1 0 1
0 -54 109 80 0 0 1 41 0 1 0 1
phys
0 -49 109 132.0002 0 0 1 41 0 1 0 1
0 -54 109 80 0 0 1 41 0 1 0 1
0 -64 109 80 0 0 1 41 0 1 0 1
phys
0 -49 109 132.0002 0 0 1 41 0 1 0 1
0 -64 109 80 0 0 1 41 0 1 0 1
0 -64 109 123.0002 0 0 1 41 0 1 0 1
phys
0 -49 105 85.003 0 0 1 41 0 1 0 1
0 -49 105 132.0002 0 0 1 41 0 1 0 1
0 -64 105 123.0002 0 0 1 41 0 1 0 1
phys
0 -49 105 85.003 0 0 1 41 0 1 0 1
0 -64 105 123.0002 0 0 1 41 0 1 0 1
0 -64 105 80 0 0 1 41 0 1 0 1
phys
0 -49 105 85.003 0 0 1 41 0 1 0 1
0 -64 105 80 0 0 1 41 0 1 0 1
0 -54 105 80 0 0 1 41 0 1 0 1
phys
0 -64 105 80 0 0 1 41 0 1 0 1
0 -64 105 123.0002 0 0 1 41 0 1 0 1
0 -64 109 123.0002 0 0 1 41 0 1 0 1
phys
0 -64 105 80 0 0 1 41 0 1 0 1
0 -64 109 123.0002 0 0 1 41 0 1 0 1
0 -64 109 80 0 0 1 41 0 1 0 1
phys
0 -49 105 132.0002 0 0 1 41 0 1 0 1
0 -49 105 85.003 0 0 1 41 0 1 0 1
0 -49 109 85.003 0 0 1 41 0 1 0 1
phys
0 -49 105 132.0002 0 0 1 41 0 1 0 1
0 -49 109 85.003 0 0 1 41 0 1 0 1
0 -49 109 132.0002 0 0 1 41 0 1 0 1
phys
0 -54 105 80 0 0 1 41 0 1 0 1
0 -64 105 80 0 0 1 41 0 1 0 1
0 -64 109 80 0 0 1 41 0 1 0 1
phys
0 -54 105 80 0 0 1 41 0 1 0 1
0 -64 109 80 0 0 1 41 0 1 0 1
0 -54 109 80 0 0 1 41 0 1 0 1
phys
0 -49 105 85.003 0 0 1 41 0 1 0 1
0 -54 105 80 0 0 1 41 0 1 0 1
0 -54 109 80 0 0 1 41 0 1 0 1
phys
0 -49 105 85.003 0 0 1 41 0 1 0 1
0 -54 109 80 0 0 1 41 0 1 0 1
0 -49 109 85.003 0 0 1 41 0 1 0 1
phys
0 -64 105 123.0002 0 0 1 41 0 1 0 1
0 -49 105 132.0002 0 0 1 41 0 1 0 1
0 -49 109 132.0002 0 0 1 41 0 1 0 1
phys
0 -64 105 123.0002 0 0 1 41 0 1 0 1
0 -49 109 132.0002 0 0 1 41 0 1 0 1
0 -64 109 123.0002 0 0 1 41 0 1 0 1
phys
0 31 35 -15 0 0 1 42 0 1 0 1
0 31 35 -30.999 0 0 1 42 0 1 0 1
0 15 35 -15 0 0 1 42 0 1 0 1
phys
0 31 -40 -30.999 0 0 1 42 0 1 0 1
0 31 -40 -15 0 0 1 42 0 1 0 1
0 15 -40 -15 0 0 1 42 0 1 0 1
phys
0 31 -40 -15 0 0 1 42 0 1 0 1
0 31 -40 -30.999 0 0 1 42 0 1 0 1
0 31 35 -30.999 0 0 1 42 0 1 0 1
phys
0 31 -40 -15 0 0 1 42 0 1 0 1
0 31 35 -30.999 0 0 1 42 0 1 0 1
0 31 35 -15 0 0 1 42 0 1 0 1
phys
0 15 -40 -15 0 0 1 42 0 1 0 1
0 31 -40 -15 0 0 1 42 0 1 0 1
0 31 35 -15 0 0 1 42 0 1 0 1
phys
0 15 -40 -15 0 0 1 42 0 1 0 1
0 31 35 -15 0 0 1 42 0 1 0 1
0 15 35 -15 0 0 1 42 0 1 0 1
phys
0 31 -40 -30.999 0 0 1 42 0 1 0 1
0 15 -40 -15 0 0 1 42 0 1 0 1
0 15 35 -15 0 0 1 42 0 1 0 1
phys
0 31 -40 -30.999 0 0 1 42 0 1 0 1
0 15 35 -15 0 0 1 42 0 1 0 1
0 31 35 -30.999 0 0 1 42 0 1 0 1
phys
0 284 39 123.0012 0 0 1 43 0 1 0 1
0 284 39 64 0 0 1 43 0 1 0 1
0 156 39 -64 0 0 1 43 0 1 0 1
phys
0 284 39 123.0012 0 0 1 43 0 1 0 1
0 156 39 -64 0 0 1 43 0 1 0 1
0 156 39 -11.016 0 0 1 43 0 1 0 1
phys
0 284 35 64 0 0 1 43 0 1 0 1
0 284 35 123.0012 0 0 1 43 0 1 0 1
0 156 35 -11.016 0 0 1 43 0 1 0 1
phys
0 284 35 64 0 0 1 43 0 1 0 1
0 156 35 -11.016 0 0 1 43 0 1 0 1
0 156 35 -64 0 0 1 43 0 1 0 1
phys
0 156 35 -64 0 0 1 43 0 1 0 1
0 156 35 -11.016 0 0 1 43 0 1 0 1
0 156 39 -11.016 0 0 1 43 0 1 0 1
phys
0 156 35 -64 0 0 1 43 0 1 0 1
0 156 39 -11.016 0 0 1 43 0 1 0 1
0 156 39 -64 0 0 1 43 0 1 0 1
phys
0 284 35 123.0012 0 0 1 43 0 1 0 1
0 284 35 64 0 0 1 43 0 1 0 1
0 284 39 64 0 0 1 43 0 1 0 1
phys
0 284 35 123.0012 0 0 1 43 0 1 0 1
0 284 39 64 0 0 1 43 0 1 0 1
0 284 39 123.0012 0 0 1 43 0 1 0 1
phys
0 156 35 -11.016 0 0 1 43 0 1 0 1
0 284 35 123.0012 0 0 1 43 0 1 0 1
0 284 39 123.0012 0 0 1 43 0 1 0 1
phys
0 156 35 -11.016 0 0 1 43 0 1 0 1
0 284 39 123.0012 0 0 1 43 0 1 0 1
0 156 39 -11.016 0 0 1 43 0 1 0 1
phys
0 284 35 64 0 0 1 43 0 1 0 1
0 156 35 -64 0 0 1 43 0 1 0 1
0 156 39 -64 0 0 1 43 0 1 0 1
phys
0 284 35 64 0 0 1 43 0 1 0 1
0 156 39 -64 0 0 1 43 0 1 0 1
0 284 39 64 0 0 1 43 0 1 0 1
phys
0 -49 184 85 0 0 1 44 0 1 0 1
0 -49 184 100.486 0 0 1 44 0 1 0 1
0 -33 184 100.486 0 0 1 44 0 1 0 1
phys
0 -33 109 100.486 0 0 1 44 0 1 0 1
0 -49 109 100.486 0 0 1 44 0 1 0 1
0 -49 109 85 0 0 1 44 0 1 0 1
phys
0 -49 109 85 0 0 1 44 0 1 0 1
0 -49 109 100.486 0 0 1 44 0 1 0 1
0 -49 184 100.486 0 0 1 44 0 1 0 1
phys
0 -49 109 85 0 0 1 44 0 1 0 1
0 -49 184 100.486 0 0 1 44 0 1 0 1
0 -49 184 85 0 0 1 44 0 1 0 1
phys
0 -49 109 100.486 0 0 1 44 0 1 0 1
0 -33 109 100.486 0 0 1 44 0 1 0 1
0 -33 184 100.486 0 0 1 44 0 1 0 1
phys
0 -49 109 100.486 0 0 1 44 0 1 0 1
0 -33 184 100.486 0 0 1 44 0 1 0 1
0 -49 184 100.486 0 0 1 44 0 1 0 1
phys
0 -33 109 100.486 0 0 1 44 0 1 0 1
0 -49 109 85 0 0 1 44 0 1 0 1
0 -49 184 85 0 0 1 44 0 1 0 1
phys
0 -33 109 100.486 0 0 1 44 0 1 0 1
0 -49 184 85 0 0 1 44 0 1 0 1
0 -33 184 100.486 0 0 1 44 0 1 0 1
phys
0 284 109 122.9996 0 0 1 45 0 1 0 1
0 284 109 80 0 0 1 45 0 1 0 1
0 274 109 80 0 0 1 45 0 1 0 1
phys
0 284 109 122.9996 0 0 1 45 0 1 0 1
0 274 109 80 0 0 1 45 0 1 0 1
0 269 109 84.997 0 0 1 45 0 1 0 1
phys
0 284 109 122.9996 0 0 1 45 0 1 0 1
0 269 109 84.997 0 0 1 45 0 1 0 1
0 269 109 131.9996 0 0 1 45 0 1 0 1
phys
0 284 105 80 0 0 1 45 0 1 0 1
0 284 105 122.9996 0 0 1 45 0 1 0 1
0 269 105 131.9996 0 0 1 45 0 1 0 1
phys
0 284 105 80 0 0 1 45 0 1 0 1
0 269 105 131.9996 0 0 1 45 0 1 0 1
0 269 105 84.997 0 0 1 45 0 1 0 1
phys
0 284 105 80 0 0 1 45 0 1 0 1
0 269 105 84.997 0 0 1 45 0 1 0 1
0 274 105 80 0 0 1 45 0 1 0 1
phys
0 269 105 84.997 0 0 1 45 0 1 0 1
0 269 105 131.9996 0 0 1 45 0 1 0 1
0 269 109 131.9996 0 0 1 45 0 1 0 1
phys
0 269 105 84.997 0 0 1 45 0 1 0 1
0 269 109 131.9996 0 0 1 45 0 1 0 1
0 269 109 84.997 0 0 1 45 0 1 0 1
phys
0 284 105 122.9996 0 0 1 45 0 1 0 1
0 284 105 80 0 0 1 45 0 1 0 1
0 284 109 80 0 0 1 45 0 1 0 1
phys
0 284 105 122.9996 0 0 1 45 0 1 0 1
0 284 109 80 0 0 1 45 0 1 0 1
0 284 109 122.9996 0 0 1 45 0 1 0 1
phys
0 284 105 80 0 0 1 45 0 1 0 1
0 274 105 80 0 0 1 45 0 1 0 1
0 274 109 80 0 0 1 45 0 1 0 1
phys
0 284 105 80 0 0 1 45 0 1 0 1
0 274 109 80 0 0 1 45 0 1 0 1
0 284 109 80 0 0 1 45 0 1 0 1
phys
0 274 105 80 0 0 1 45 0 1 0 1
0 269 105 84.997 0 0 1 45 0 1 0 1
0 269 109 84.997 0 0 1 45 0 1 0 1
phys
0 274 105 80 0 0 1 45 0 1 0 1
0 269 109 84.997 0 0 1 45 0 1 0 1
0 274 109 80 0 0 1 45 0 1 0 1
phys
0 269 105 131.9996 0 0 1 45 0 1 0 1
0 284 105 122.9996 0 0 1 45 0 1 0 1
0 284 109 122.9996 0 0 1 45 0 1 0 1
phys
0 269 105 131.9996 0 0 1 45 0 1 0 1
0 284 109 122.9996 0 0 1 45 0 1 0 1
0 269 109 131.9996 0 0 1 45 0 1 0 1
phys
0 -49 105 132.0014 0 0 1 46 0 1 0 1
0 -49 109 132.0014 0 0 1 46 0 1 0 1
0 -49 109 85.001 0 0 1 46 0 1 0 1
phys
0 -49 105 132.0014 0 0 1 46 0 1 0 1
0 -49 109 85.001 0 0 1 46 0 1 0 1
0 -49 105 85.001 0 0 1 46 0 1 0 1
phys
0 78 105 208.001217 0 0 1 46 0 1 0 1
0 78 109 208.001217 0 0 1 46 0 1 0 1
0 78 109 251.0014 0 0 1 46 0 1 0 1
phys
0 78 105 208.001217 0 0 1 46 0 1 0 1
0 78 109 251.0014 0 0 1 46 0 1 0 1
0 78 105 251.0014 0 0 1 46 0 1 0 1
phys
0 78 105 251.0014 0 0 1 46 0 1 0 1
0 78 109 251.0014 0 0 1 46 0 1 0 1
0 -49 109 132.0014 0 0 1 46 0 1 0 1
phys
0 78 105 251.0014 0 0 1 46 0 1 0 1
0 -49 109 132.0014 0 0 1 46 0 1 0 1
0 -49 105 132.0014 0 0 1 46 0 1 0 1
phys
0 -49 105 85.001 0 0 1 46 0 1 0 1
0 -49 109 85.001 0 0 1 46 0 1 0 1
0 78 109 208.001217 0 0 1 46 0 1 0 1
phys
0 -49 105 85.001 0 0 1 46 0 1 0 1
0 78 109 208.001217 0 0 1 46 0 1 0 1
0 78 105 208.001217 0 0 1 46 0 1 0 1
phys
0 78 109 251.0014 0 0 1 46 0 1 0 1
0 78 109 208.001217 0 0 1 46 0 1 0 1
0 -49 109 85.001 0 0 1 46 0 1 0 1
phys
0 78 109 251.0014 0 0 1 46 0 1 0 1
0 -49 109 85.001 0 0 1 46 0 1 0 1
0 -49 109 132.0014 0 0 1 46 0 1 0 1
phys
0 78 105 208.001217 0 0 1 46 0 1 0 1
0 78 105 251.0014 0 0 1 46 0 1 0 1
0 -49 105 132.0014 0 0 1 46 0 1 0 1
phys
0 78 105 208.001217 0 0 1 46 0 1 0 1
0 -49 105 132.0014 0 0 1 46 0 1 0 1
0 -49 105 85.001 0 0 1 46 0 1 0 1
phys
0 63 109 208 0 0 1 47 0 1 0 1
0 78 109 208 0 0 1 47 0 1 0 1
0 78 184 208 0 0 1 47 0 1 0 1
phys
0 63 109 208 0 0 1 47 0 1 0 1
0 78 184 208 0 0 1 47 0 1 0 1
0 63 184 208 0 0 1 47 0 1 0 1
phys
0 63 184 193.4754 0 0 1 47 0 1 0 1
0 78 184 208 0 0 1 47 0 1 0 1
0 78 109 208 0 0 1 47 0 1 0 1
phys
0 63 184 193.4754 0 0 1 47 0 1 0 1
0 78 109 208 0 0 1 47 0 1 0 1
0 63 109 193.4754 0 0 1 47 0 1 0 1
phys
0 63 184 208 0 0 1 47 0 1 0 1
0 78 184 208 0 0 1 47 0 1 0 1
0 63 184 193.4754 0 0 1 47 0 1 0 1
phys
0 78 109 208 0 0 1 47 0 1 0 1
0 63 109 208 0 0 1 47 0 1 0 1
0 63 109 193.4754 0 0 1 47 0 1 0 1
phys
0 63 109 208 0 0 1 47 0 1 0 1
0 63 184 208 0 0 1 47 0 1 0 1
0 63 184 193.4754 0 0 1 47 0 1 0 1
phys
0 63 109 208 0 0 1 47 0 1 0 1
0 63 184 193.4754 0 0 1 47 0 1 0 1
0 63 109 193.4754 0 0 1 47 0 1 0 1
phys
0 47 184 177.9779 0 0 1 48 0 1 0 1
0 47 184 193.471 0 0 1 48 0 1 0 1
0 63 184 193.471 0 0 1 48 0 1 0 1
phys
0 63 109 193.471 0 0 1 48 0 1 0 1
0 47 109 193.471 0 0 1 48 0 1 0 1
0 47 109 177.9779 0 0 1 48 0 1 0 1
phys
0 47 109 177.9779 0 0 1 48 0 1 0 1
0 47 109 193.471 0 0 1 48 0 1 0 1
0 47 184 193.471 0 0 1 48 0 1 0 1
phys
0 47 109 177.9779 0 0 1 48 0 1 0 1
0 47 184 193.471 0 0 1 48 0 1 0 1
0 47 184 177.9779 0 0 1 48 0 1 0 1
phys
0 47 109 193.471 0 0 1 48 0 1 0 1
0 63 109 193.471 0 0 1 48 0 1 0 1
0 63 184 193.471 0 0 1 48 0 1 0 1
phys
0 47 109 193.471 0 0 1 48 0 1 0 1
0 63 184 193.471 0 0 1 48 0 1 0 1
0 47 184 193.471 0 0 1 48 0 1 0 1
phys
0 63 109 193.471 0 0 1 48 0 1 0 1
0 47 109 177.9779 0 0 1 48 0 1 0 1
0 47 184 177.9779 0 0 1 48 0 1 0 1
phys
0 63 109 193.471 0 0 1 48 0 1 0 1
0 47 184 177.9779 0 0 1 48 0 1 0 1
0 63 184 193.471 0 0 1 48 0 1 0 1
phys
0 253 184 116 0 0 1 49 0 1 0 1
0 237.002064 184 116 0 0 1 49 0 1 0 1
0 237 109 116 0 0 1 49 0 1 0 1
phys
0 253 184 116 0 0 1 49 0 1 0 1
0 237 109 116 0 0 1 49 0 1 0 1
0 253 109 116 0 0 1 49 0 1 0 1
phys
0 253 109 100.493 0 0 1 49 0 1 0 1
0 237 109 116 0 0 1 49 0 1 0 1
0 237.002064 184 116 0 0 1 49 0 1 0 1
phys
0 253 109 100.493 0 0 1 49 0 1 0 1
0 237.002064 184 116 0 0 1 49 0 1 0 1
0 253 184 100.495 0 0 1 49 0 1 0 1
phys
0 253 184 100.495 0 0 1 49 0 1 0 1
0 237.002064 184 116 0 0 1 49 0 1 0 1
0 253 184 116 0 0 1 49 0 1 0 1
phys
0 253 109 116 0 0 1 49 0 1 0 1
0 237 109 116 0 0 1 49 0 1 0 1
0 253 109 100.493 0 0 1 49 0 1 0 1
phys
0 253 109 100.493 0 0 1 49 0 1 0 1
0 253 184 100.495 0 0 1 49 0 1 0 1
0 253 184 116 0 0 1 49 0 1 0 1
phys
0 253 109 100.493 0 0 1 49 0 1 0 1
0 253 184 116 0 0 1 49 0 1 0 1
0 253 109 116 0 0 1 49 0 1 0 1
phys
0 156 -40 -47 0 0 1 50 0 1 0 1
0 173 -40 -47 0 0 1 50 0 1 0 1
0 173 35 -47 0 0 1 50 0 1 0 1
phys
0 156 -40 -47 0 0 1 50 0 1 0 1
0 173 35 -47 0 0 1 50 0 1 0 1
0 156 35 -47 0 0 1 50 0 1 0 1
phys
0 156 35 -64 0 0 1 50 0 1 0 1
0 173 35 -47 0 0 1 50 0 1 0 1
0 173 -40 -47 0 0 1 50 0 1 0 1
phys
0 156 35 -64 0 0 1 50 0 1 0 1
0 173 -40 -47 0 0 1 50 0 1 0 1
0 156 -40 -64 0 0 1 50 0 1 0 1
phys
0 156 35 -47 0 0 1 50 0 1 0 1
0 173 35 -47 0 0 1 50 0 1 0 1
0 156 35 -64 0 0 1 50 0 1 0 1
phys
0 156 -40 -64 0 0 1 50 0 1 0 1
0 173 -40 -47 0 0 1 50 0 1 0 1
0 156 -40 -47 0 0 1 50 0 1 0 1
phys
0 156 -40 -47 0 0 1 50 0 1 0 1
0 156 35 -47 0 0 1 50 0 1 0 1
0 156 35 -64 0 0 1 50 0 1 0 1
phys
0 156 -40 -47 0 0 1 50 0 1 0 1
0 156 35 -64 0 0 1 50 0 1 0 1
0 156 -40 -64 0 0 1 50 0 1 0 1
end
