version 1
nodes
0 "root" -1
end
skeleton
time 0
0 0 0 0 0 0 0
end
triangles
phys
0 104 145 4 0 0 1 1 0 1 0 1
0 104 145 0 0 0 1 1 0 1 0 1
0 88 145 0 0 0 1 1 0 1 0 1
phys
0 104 145 4 0 0 1 1 0 1 0 1
0 88 145 0 0 0 1 1 0 1 0 1
0 80 145 3 0 0 1 1 0 1 0 1
phys
0 104 145 4 0 0 1 1 0 1 0 1
0 80 145 3 0 0 1 1 0 1 0 1
0 80 145 4 0 0 1 1 0 1 0 1
phys
0 104 17 0 0 0 1 1 0 1 0 1
0 104 17 4 0 0 1 1 0 1 0 1
0 80 17 4 0 0 1 1 0 1 0 1
phys
0 104 17 0 0 0 1 1 0 1 0 1
0 80 17 4 0 0 1 1 0 1 0 1
0 80 17 3 0 0 1 1 0 1 0 1
phys
0 104 17 0 0 0 1 1 0 1 0 1
0 80 17 3 0 0 1 1 0 1 0 1
0 88 17 0 0 0 1 1 0 1 0 1
phys
0 80 17 3 0 0 1 1 0 1 0 1
0 80 17 4 0 0 1 1 0 1 0 1
0 80 145 4 0 0 1 1 0 1 0 1
phys
0 80 17 3 0 0 1 1 0 1 0 1
0 80 145 4 0 0 1 1 0 1 0 1
0 80 145 3 0 0 1 1 0 1 0 1
phys
0 104 17 4 0 0 1 1 0 1 0 1
0 104 17 0 0 0 1 1 0 1 0 1
0 104 145 0 0 0 1 1 0 1 0 1
phys
0 104 17 4 0 0 1 1 0 1 0 1
0 104 145 0 0 0 1 1 0 1 0 1
0 104 145 4 0 0 1 1 0 1 0 1
phys
0 104 17 0 0 0 1 1 0 1 0 1
0 88 17 0 0 0 1 1 0 1 0 1
0 88 145 0 0 0 1 1 0 1 0 1
phys
0 104 17 0 0 0 1 1 0 1 0 1
0 88 145 0 0 0 1 1 0 1 0 1
0 104 145 0 0 0 1 1 0 1 0 1
phys
0 80 17 4 0 0 1 1 0 1 0 1
0 104 17 4 0 0 1 1 0 1 0 1
0 104 145 4 0 0 1 1 0 1 0 1
phys
0 80 17 4 0 0 1 1 0 1 0 1
0 104 145 4 0 0 1 1 0 1 0 1
0 80 145 4 0 0 1 1 0 1 0 1
phys
0 88 17 0 0 0 1 1 0 1 0 1
0 80 17 3 0 0 1 1 0 1 0 1
0 80 145 3 0 0 1 1 0 1 0 1
phys
0 88 17 0 0 0 1 1 0 1 0 1
0 80 145 3 0 0 1 1 0 1 0 1
0 88 145 0 0 0 1 1 0 1 0 1
phys
0 104 17 80 0 0 1 2 0 1 0 1
0 104 145 80 0 0 1 2 0 1 0 1
0 104 143 78 0 0 1 2 0 1 0 1
phys
0 104 17 80 0 0 1 2 0 1 0 1
0 104 143 78 0 0 1 2 0 1 0 1
0 104 19 78 0 0 1 2 0 1 0 1
phys
0 114 19 78 0 0 1 2 0 1 0 1
0 114 143 78 0 0 1 2 0 1 0 1
0 114 145 80 0 0 1 2 0 1 0 1
phys
0 114 19 78 0 0 1 2 0 1 0 1
0 114 145 80 0 0 1 2 0 1 0 1
0 114 17 80 0 0 1 2 0 1 0 1
phys
0 104 19 78 0 0 1 2 0 1 0 1
0 104 143 78 0 0 1 2 0 1 0 1
0 114 143 78 0 0 1 2 0 1 0 1
phys
0 104 19 78 0 0 1 2 0 1 0 1
0 114 143 78 0 0 1 2 0 1 0 1
0 114 19 78 0 0 1 2 0 1 0 1
phys
0 114 17 80 0 0 1 2 0 1 0 1
0 114 145 80 0 0 1 2 0 1 0 1
0 104 145 80 0 0 1 2 0 1 0 1
phys
0 114 17 80 0 0 1 2 0 1 0 1
0 104 145 80 0 0 1 2 0 1 0 1
0 104 17 80 0 0 1 2 0 1 0 1
phys
0 104 143 78 0 0 1 2 0 1 0 1
0 104 145 80 0 0 1 2 0 1 0 1
0 114 145 80 0 0 1 2 0 1 0 1
phys
0 104 143 78 0 0 1 2 0 1 0 1
0 114 145 80 0 0 1 2 0 1 0 1
0 114 143 78 0 0 1 2 0 1 0 1
phys
0 104 17 80 0 0 1 2 0 1 0 1
0 104 19 78 0 0 1 2 0 1 0 1
0 114 19 78 0 0 1 2 0 1 0 1
phys
0 104 17 80 0 0 1 2 0 1 0 1
0 114 19 78 0 0 1 2 0 1 0 1
0 114 17 80 0 0 1 2 0 1 0 1
phys
0 104 -59 119 0 0 1 3 0 1 0 1
0 104 -59 19 0 0 1 3 0 1 0 1
0 101 -59 19 0 0 1 3 0 1 0 1
phys
0 104 -59 119 0 0 1 3 0 1 0 1
0 101 -59 19 0 0 1 3 0 1 0 1
0 101 -59 119 0 0 1 3 0 1 0 1
phys
0 104 -61 21 0 0 1 3 0 1 0 1
0 104 -61 117 0 0 1 3 0 1 0 1
0 101 -61 117 0 0 1 3 0 1 0 1
phys
0 104 -61 21 0 0 1 3 0 1 0 1
0 101 -61 117 0 0 1 3 0 1 0 1
0 101 -61 21 0 0 1 3 0 1 0 1
phys
0 101 -61 21 0 0 1 3 0 1 0 1
0 101 -61 117 0 0 1 3 0 1 0 1
0 101 -59 119 0 0 1 3 0 1 0 1
phys
0 101 -61 21 0 0 1 3 0 1 0 1
0 101 -59 119 0 0 1 3 0 1 0 1
0 101 -59 19 0 0 1 3 0 1 0 1
phys
0 104 -61 117 0 0 1 3 0 1 0 1
0 104 -61 21 0 0 1 3 0 1 0 1
0 104 -59 19 0 0 1 3 0 1 0 1
phys
0 104 -61 117 0 0 1 3 0 1 0 1
0 104 -59 19 0 0 1 3 0 1 0 1
0 104 -59 119 0 0 1 3 0 1 0 1
phys
0 104 -61 21 0 0 1 3 0 1 0 1
0 101 -61 21 0 0 1 3 0 1 0 1
0 101 -59 19 0 0 1 3 0 1 0 1
phys
0 104 -61 21 0 0 1 3 0 1 0 1
0 101 -59 19 0 0 1 3 0 1 0 1
0 104 -59 19 0 0 1 3 0 1 0 1
phys
0 101 -61 117 0 0 1 3 0 1 0 1
0 104 -61 117 0 0 1 3 0 1 0 1
0 104 -59 119 0 0 1 3 0 1 0 1
phys
0 101 -61 117 0 0 1 3 0 1 0 1
0 104 -59 119 0 0 1 3 0 1 0 1
0 101 -59 119 0 0 1 3 0 1 0 1
phys
0 104 -61 21 0 0 1 4 0 1 0 1
0 104 -59 19 0 0 1 4 0 1 0 1
0 101 -59 19 0 0 1 4 0 1 0 1
phys
0 104 -61 21 0 0 1 4 0 1 0 1
0 101 -59 19 0 0 1 4 0 1 0 1
0 101 -61 21 0 0 1 4 0 1 0 1
phys
0 101 -157 21 0 0 1 4 0 1 0 1
0 101 -61 21 0 0 1 4 0 1 0 1
0 101 -59 19 0 0 1 4 0 1 0 1
phys
0 101 -157 21 0 0 1 4 0 1 0 1
0 101 -59 19 0 0 1 4 0 1 0 1
0 101 -159 19 0 0 1 4 0 1 0 1
phys
0 104 -159 19 0 0 1 4 0 1 0 1
0 104 -59 19 0 0 1 4 0 1 0 1
0 104 -61 21 0 0 1 4 0 1 0 1
phys
0 104 -159 19 0 0 1 4 0 1 0 1
0 104 -61 21 0 0 1 4 0 1 0 1
0 104 -157 21 0 0 1 4 0 1 0 1
phys
0 101 -159 19 0 0 1 4 0 1 0 1
0 101 -59 19 0 0 1 4 0 1 0 1
0 104 -59 19 0 0 1 4 0 1 0 1
phys
0 101 -159 19 0 0 1 4 0 1 0 1
0 104 -59 19 0 0 1 4 0 1 0 1
0 104 -159 19 0 0 1 4 0 1 0 1
phys
0 104 -157 21 0 0 1 4 0 1 0 1
0 104 -61 21 0 0 1 4 0 1 0 1
0 101 -61 21 0 0 1 4 0 1 0 1
phys
0 104 -157 21 0 0 1 4 0 1 0 1
0 101 -61 21 0 0 1 4 0 1 0 1
0 101 -157 21 0 0 1 4 0 1 0 1
phys
0 104 -159 19 0 0 1 4 0 1 0 1
0 104 -157 21 0 0 1 4 0 1 0 1
0 101 -157 21 0 0 1 4 0 1 0 1
phys
0 104 -159 19 0 0 1 4 0 1 0 1
0 101 -157 21 0 0 1 4 0 1 0 1
0 101 -159 19 0 0 1 4 0 1 0 1
phys
0 110 53 78 0 0 1 5 0 1 0 1
0 110 53 6 0 0 1 5 0 1 0 1
0 109 53 6 0 0 1 5 0 1 0 1
phys
0 110 53 78 0 0 1 5 0 1 0 1
0 109 53 6 0 0 1 5 0 1 0 1
0 109 53 78 0 0 1 5 0 1 0 1
phys
0 110 19 6 0 0 1 5 0 1 0 1
0 110 19 78 0 0 1 5 0 1 0 1
0 109 19 78 0 0 1 5 0 1 0 1
phys
0 110 19 6 0 0 1 5 0 1 0 1
0 109 19 78 0 0 1 5 0 1 0 1
0 109 19 6 0 0 1 5 0 1 0 1
phys
0 109 19 6 0 0 1 5 0 1 0 1
0 109 19 78 0 0 1 5 0 1 0 1
0 109 53 78 0 0 1 5 0 1 0 1
phys
0 109 19 6 0 0 1 5 0 1 0 1
0 109 53 78 0 0 1 5 0 1 0 1
0 109 53 6 0 0 1 5 0 1 0 1
phys
0 110 19 78 0 0 1 5 0 1 0 1
0 110 19 6 0 0 1 5 0 1 0 1
0 110 53 6 0 0 1 5 0 1 0 1
phys
0 110 19 78 0 0 1 5 0 1 0 1
0 110 53 6 0 0 1 5 0 1 0 1
0 110 53 78 0 0 1 5 0 1 0 1
phys
0 110 19 6 0 0 1 5 0 1 0 1
0 109 19 6 0 0 1 5 0 1 0 1
0 109 53 6 0 0 1 5 0 1 0 1
phys
0 110 19 6 0 0 1 5 0 1 0 1
0 109 53 6 0 0 1 5 0 1 0 1
0 110 53 6 0 0 1 5 0 1 0 1
phys
0 109 19 78 0 0 1 5 0 1 0 1
0 110 19 78 0 0 1 5 0 1 0 1
0 110 53 78 0 0 1 5 0 1 0 1
phys
0 109 19 78 0 0 1 5 0 1 0 1
0 110 53 78 0 0 1 5 0 1 0 1
0 109 53 78 0 0 1 5 0 1 0 1
phys
0 -122.7 -64.52 128 0 0 1 6 0 1 0 1
0 -116.3 -60.99 128 0 0 1 6 0 1 0 1
0 -113.5 -55.33 128 0 0 1 6 0 1 0 1
phys
0 -122.7 -64.52 128 0 0 1 6 0 1 0 1
0 -113.5 -55.33 128 0 0 1 6 0 1 0 1
0 -113.5 -49.67 128 0 0 1 6 0 1 0 1
phys
0 -122.7 -64.52 128 0 0 1 6 0 1 0 1
0 -113.5 -49.67 128 0 0 1 6 0 1 0 1
0 -117 -43.31 128 0 0 1 6 0 1 0 1
phys
0 -122.7 -64.52 128 0 0 1 6 0 1 0 1
0 -117 -43.31 128 0 0 1 6 0 1 0 1
0 -122.7 -40.48 128 0 0 1 6 0 1 0 1
phys
0 -122.7 -64.52 128 0 0 1 6 0 1 0 1
0 -122.7 -40.48 128 0 0 1 6 0 1 0 1
0 -128.3 -40.48 128 0 0 1 6 0 1 0 1
phys
0 -122.7 -64.52 128 0 0 1 6 0 1 0 1
0 -128.3 -40.48 128 0 0 1 6 0 1 0 1
0 -134 -43.31 128 0 0 1 6 0 1 0 1
phys
0 -122.7 -64.52 128 0 0 1 6 0 1 0 1
0 -134 -43.31 128 0 0 1 6 0 1 0 1
0 -137.5 -49.67 128 0 0 1 6 0 1 0 1
phys
0 -122.7 -64.52 128 0 0 1 6 0 1 0 1
0 -137.5 -49.67 128 0 0 1 6 0 1 0 1
0 -137.5 -55.33 128 0 0 1 6 0 1 0 1
phys
0 -122.7 -64.52 128 0 0 1 6 0 1 0 1
0 -137.5 -55.33 128 0 0 1 6 0 1 0 1
0 -134.706811 -60.976233 128 0 0 1 6 0 1 0 1
phys
0 -122.7 -64.52 128 0 0 1 6 0 1 0 1
0 -134.706811 -60.976233 128 0 0 1 6 0 1 0 1
0 -128.3 -64.52 128 0 0 1 6 0 1 0 1
phys
0 -113.5 -55.33 0 0 0 1 6 0 1 0 1
0 -113.5 -55.33 128 0 0 1 6 0 1 0 1
0 -116.3 -60.99 128 0 0 1 6 0 1 0 1
phys
0 -113.5 -55.33 0 0 0 1 6 0 1 0 1
0 -116.3 -60.99 128 0 0 1 6 0 1 0 1
0 -116.3 -60.99 0 0 0 1 6 0 1 0 1
phys
0 -117 -43.31 0 0 0 1 6 0 1 0 1
0 -117 -43.31 128 0 0 1 6 0 1 0 1
0 -113.5 -49.67 128 0 0 1 6 0 1 0 1
phys
0 -117 -43.31 0 0 0 1 6 0 1 0 1
0 -113.5 -49.67 128 0 0 1 6 0 1 0 1
0 -113.5 -49.67 0 0 0 1 6 0 1 0 1
phys
0 -122.7 -40.48 0 0 0 1 6 0 1 0 1
0 -122.7 -40.48 128 0 0 1 6 0 1 0 1
0 -117 -43.31 128 0 0 1 6 0 1 0 1
phys
0 -122.7 -40.48 0 0 0 1 6 0 1 0 1
0 -117 -43.31 128 0 0 1 6 0 1 0 1
0 -117 -43.31 0 0 0 1 6 0 1 0 1
phys
0 -116.3 -60.99 0 0 0 1 6 0 1 0 1
0 -116.3 -60.99 128 0 0 1 6 0 1 0 1
0 -122.7 -64.52 128 0 0 1 6 0 1 0 1
phys
0 -116.3 -60.99 0 0 0 1 6 0 1 0 1
0 -122.7 -64.52 128 0 0 1 6 0 1 0 1
0 -122.7 -64.52 0 0 0 1 6 0 1 0 1
phys
0 -134 -43.31 0 0 0 1 6 0 1 0 1
0 -134 -43.31 128 0 0 1 6 0 1 0 1
0 -128.3 -40.48 128 0 0 1 6 0 1 0 1
phys
0 -134 -43.31 0 0 0 1 6 0 1 0 1
0 -128.3 -40.48 128 0 0 1 6 0 1 0 1
0 -128.3 -40.48 0 0 0 1 6 0 1 0 1
phys
0 -137.5 -49.67 0 0 0 1 6 0 1 0 1
0 -137.5 -49.67 128 0 0 1 6 0 1 0 1
0 -134 -43.31 128 0 0 1 6 0 1 0 1
phys
0 -137.5 -49.67 0 0 0 1 6 0 1 0 1
0 -134 -43.31 128 0 0 1 6 0 1 0 1
0 -134 -43.31 0 0 0 1 6 0 1 0 1
phys
0 -128.3 -64.52 0 0 0 1 6 0 1 0 1
0 -128.3 -64.52 128 0 0 1 6 0 1 0 1
0 -134.706811 -60.976233 128 0 0 1 6 0 1 0 1
phys
0 -128.3 -64.52 0 0 0 1 6 0 1 0 1
0 -134.706811 -60.976233 128 0 0 1 6 0 1 0 1
0 -134.706811 -60.976233 0 0 0 1 6 0 1 0 1
phys
0 -134.706811 -60.976233 0 0 0 1 6 0 1 0 1
0 -134.706811 -60.976233 128 0 0 1 6 0 1 0 1
0 -137.5 -55.33 128 0 0 1 6 0 1 0 1
phys
0 -134.706811 -60.976233 0 0 0 1 6 0 1 0 1
0 -137.5 -55.33 128 0 0 1 6 0 1 0 1
0 -137.5 -55.33 0 0 0 1 6 0 1 0 1
phys
0 -128.3 -40.48 0 0 0 1 6 0 1 0 1
0 -128.3 -40.48 128 0 0 1 6 0 1 0 1
0 -122.7 -40.48 128 0 0 1 6 0 1 0 1
phys
0 -128.3 -40.48 0 0 0 1 6 0 1 0 1
0 -122.7 -40.48 128 0 0 1 6 0 1 0 1
0 -122.7 -40.48 0 0 0 1 6 0 1 0 1
phys
0 -122.7 -64.52 0 0 0 1 6 0 1 0 1
0 -122.7 -64.52 128 0 0 1 6 0 1 0 1
0 -128.3 -64.52 128 0 0 1 6 0 1 0 1
phys
0 -122.7 -64.52 0 0 0 1 6 0 1 0 1
0 -128.3 -64.52 128 0 0 1 6 0 1 0 1
0 -128.3 -64.52 0 0 0 1 6 0 1 0 1
phys
0 -137.5 -55.33 0 0 0 1 6 0 1 0 1
0 -137.5 -55.33 128 0 0 1 6 0 1 0 1
0 -137.5 -49.67 128 0 0 1 6 0 1 0 1
phys
0 -137.5 -55.33 0 0 0 1 6 0 1 0 1
0 -137.5 -49.67 128 0 0 1 6 0 1 0 1
0 -137.5 -49.67 0 0 0 1 6 0 1 0 1
phys
0 -113.5 -49.67 0 0 0 1 6 0 1 0 1
0 -113.5 -49.67 128 0 0 1 6 0 1 0 1
0 -113.5 -55.33 128 0 0 1 6 0 1 0 1
phys
0 -113.5 -49.67 0 0 0 1 6 0 1 0 1
0 -113.5 -55.33 128 0 0 1 6 0 1 0 1
0 -113.5 -55.33 0 0 0 1 6 0 1 0 1
phys
0 -134 -43.31 0 0 0 1 6 0 1 0 1
0 -128.3 -40.48 0 0 0 1 6 0 1 0 1
0 -122.7 -40.48 0 0 0 1 6 0 1 0 1
phys
0 -134 -43.31 0 0 0 1 6 0 1 0 1
0 -122.7 -40.48 0 0 0 1 6 0 1 0 1
0 -117 -43.31 0 0 0 1 6 0 1 0 1
phys
0 -134 -43.31 0 0 0 1 6 0 1 0 1
0 -117 -43.31 0 0 0 1 6 0 1 0 1
0 -113.5 -49.67 0 0 0 1 6 0 1 0 1
phys
0 -134 -43.31 0 0 0 1 6 0 1 0 1
0 -113.5 -49.67 0 0 0 1 6 0 1 0 1
0 -113.5 -55.33 0 0 0 1 6 0 1 0 1
phys
0 -134 -43.31 0 0 0 1 6 0 1 0 1
0 -113.5 -55.33 0 0 0 1 6 0 1 0 1
0 -116.3 -60.99 0 0 0 1 6 0 1 0 1
phys
0 -134 -43.31 0 0 0 1 6 0 1 0 1
0 -116.3 -60.99 0 0 0 1 6 0 1 0 1
0 -122.7 -64.52 0 0 0 1 6 0 1 0 1
phys
0 -134 -43.31 0 0 0 1 6 0 1 0 1
0 -122.7 -64.52 0 0 0 1 6 0 1 0 1
0 -128.3 -64.52 0 0 0 1 6 0 1 0 1
phys
0 -134 -43.31 0 0 0 1 6 0 1 0 1
0 -128.3 -64.52 0 0 0 1 6 0 1 0 1
0 -134.706811 -60.976233 0 0 0 1 6 0 1 0 1
phys
0 -134 -43.31 0 0 0 1 6 0 1 0 1
0 -134.706811 -60.976233 0 0 0 1 6 0 1 0 1
0 -137.5 -55.33 0 0 0 1 6 0 1 0 1
phys
0 -134 -43.31 0 0 0 1 6 0 1 0 1
0 -137.5 -55.33 0 0 0 1 6 0 1 0 1
0 -137.5 -49.67 0 0 0 1 6 0 1 0 1
phys
0 138 17 3 0 0 1 7 0 1 0 1
0 130 17 0 0 0 1 7 0 1 0 1
0 130 145 0 0 0 1 7 0 1 0 1
phys
0 138 17 3 0 0 1 7 0 1 0 1
0 130 145 0 0 0 1 7 0 1 0 1
0 138 145 3 0 0 1 7 0 1 0 1
phys
0 138 145 4 0 0 1 7 0 1 0 1
0 138 145 3 0 0 1 7 0 1 0 1
0 130 145 0 0 0 1 7 0 1 0 1
phys
0 138 145 4 0 0 1 7 0 1 0 1
0 130 145 0 0 0 1 7 0 1 0 1
0 114 145 0 0 0 1 7 0 1 0 1
phys
0 138 145 4 0 0 1 7 0 1 0 1
0 114 145 0 0 0 1 7 0 1 0 1
0 114 145 4 0 0 1 7 0 1 0 1
phys
0 114 17 4 0 0 1 7 0 1 0 1
0 114 17 0 0 0 1 7 0 1 0 1
0 130 17 0 0 0 1 7 0 1 0 1
phys
0 114 17 4 0 0 1 7 0 1 0 1
0 130 17 0 0 0 1 7 0 1 0 1
0 138 17 3 0 0 1 7 0 1 0 1
phys
0 114 17 4 0 0 1 7 0 1 0 1
0 138 17 3 0 0 1 7 0 1 0 1
0 138 17 4 0 0 1 7 0 1 0 1
phys
0 114 145 4 0 0 1 7 0 1 0 1
0 114 145 0 0 0 1 7 0 1 0 1
0 114 17 0 0 0 1 7 0 1 0 1
phys
0 114 145 4 0 0 1 7 0 1 0 1
0 114 17 0 0 0 1 7 0 1 0 1
0 114 17 4 0 0 1 7 0 1 0 1
phys
0 138 17 4 0 0 1 7 0 1 0 1
0 138 17 3 0 0 1 7 0 1 0 1
0 138 145 3 0 0 1 7 0 1 0 1
phys
0 138 17 4 0 0 1 7 0 1 0 1
0 138 145 3 0 0 1 7 0 1 0 1
0 138 145 4 0 0 1 7 0 1 0 1
phys
0 114 145 0 0 0 1 7 0 1 0 1
0 130 145 0 0 0 1 7 0 1 0 1
0 130 17 0 0 0 1 7 0 1 0 1
phys
0 114 145 0 0 0 1 7 0 1 0 1
0 130 17 0 0 0 1 7 0 1 0 1
0 114 17 0 0 0 1 7 0 1 0 1
phys
0 114 17 4 0 0 1 7 0 1 0 1
0 138 17 4 0 0 1 7 0 1 0 1
0 138 145 4 0 0 1 7 0 1 0 1
phys
0 114 17 4 0 0 1 7 0 1 0 1
0 138 145 4 0 0 1 7 0 1 0 1
0 114 145 4 0 0 1 7 0 1 0 1
phys
0 104 -157 117 0 0 1 8 0 1 0 1
0 104 -157 21 0 0 1 8 0 1 0 1
0 101 -157 21 0 0 1 8 0 1 0 1
phys
0 104 -157 117 0 0 1 8 0 1 0 1
0 101 -157 21 0 0 1 8 0 1 0 1
0 101 -157 117 0 0 1 8 0 1 0 1
phys
0 104 -159 19 0 0 1 8 0 1 0 1
0 104 -159 119 0 0 1 8 0 1 0 1
0 101 -159 119 0 0 1 8 0 1 0 1
phys
0 104 -159 19 0 0 1 8 0 1 0 1
0 101 -159 119 0 0 1 8 0 1 0 1
0 101 -159 19 0 0 1 8 0 1 0 1
phys
0 101 -159 19 0 0 1 8 0 1 0 1
0 101 -159 119 0 0 1 8 0 1 0 1
0 101 -157 117 0 0 1 8 0 1 0 1
phys
0 101 -159 19 0 0 1 8 0 1 0 1
0 101 -157 117 0 0 1 8 0 1 0 1
0 101 -157 21 0 0 1 8 0 1 0 1
phys
0 104 -159 119 0 0 1 8 0 1 0 1
0 104 -159 19 0 0 1 8 0 1 0 1
0 104 -157 21 0 0 1 8 0 1 0 1
phys
0 104 -159 119 0 0 1 8 0 1 0 1
0 104 -157 21 0 0 1 8 0 1 0 1
0 104 -157 117 0 0 1 8 0 1 0 1
phys
0 104 -159 19 0 0 1 8 0 1 0 1
0 101 -159 19 0 0 1 8 0 1 0 1
0 101 -157 21 0 0 1 8 0 1 0 1
phys
0 104 -159 19 0 0 1 8 0 1 0 1
0 101 -157 21 0 0 1 8 0 1 0 1
0 104 -157 21 0 0 1 8 0 1 0 1
phys
0 101 -159 119 0 0 1 8 0 1 0 1
0 104 -159 119 0 0 1 8 0 1 0 1
0 104 -157 117 0 0 1 8 0 1 0 1
phys
0 101 -159 119 0 0 1 8 0 1 0 1
0 104 -157 117 0 0 1 8 0 1 0 1
0 101 -157 117 0 0 1 8 0 1 0 1
phys
0 114 109 78 0 0 1 9 0 1 0 1
0 114 109 38 0 0 1 9 0 1 0 1
0 104 109 38 0 0 1 9 0 1 0 1
phys
0 114 109 78 0 0 1 9 0 1 0 1
0 104 109 38 0 0 1 9 0 1 0 1
0 104 109 78 0 0 1 9 0 1 0 1
phys
0 114 107 38 0 0 1 9 0 1 0 1
0 114 107 78 0 0 1 9 0 1 0 1
0 104 107 78 0 0 1 9 0 1 0 1
phys
0 114 107 38 0 0 1 9 0 1 0 1
0 104 107 78 0 0 1 9 0 1 0 1
0 104 107 38 0 0 1 9 0 1 0 1
phys
0 104 107 38 0 0 1 9 0 1 0 1
0 104 107 78 0 0 1 9 0 1 0 1
0 104 109 78 0 0 1 9 0 1 0 1
phys
0 104 107 38 0 0 1 9 0 1 0 1
0 104 109 78 0 0 1 9 0 1 0 1
0 104 109 38 0 0 1 9 0 1 0 1
phys
0 114 107 78 0 0 1 9 0 1 0 1
0 114 107 38 0 0 1 9 0 1 0 1
0 114 109 38 0 0 1 9 0 1 0 1
phys
0 114 107 78 0 0 1 9 0 1 0 1
0 114 109 38 0 0 1 9 0 1 0 1
0 114 109 78 0 0 1 9 0 1 0 1
phys
0 114 107 38 0 0 1 9 0 1 0 1
0 104 107 38 0 0 1 9 0 1 0 1
0 104 109 38 0 0 1 9 0 1 0 1
phys
0 114 107 38 0 0 1 9 0 1 0 1
0 104 109 38 0 0 1 9 0 1 0 1
0 114 109 38 0 0 1 9 0 1 0 1
phys
0 104 107 78 0 0 1 9 0 1 0 1
0 114 107 78 0 0 1 9 0 1 0 1
0 114 109 78 0 0 1 9 0 1 0 1
phys
0 104 107 78 0 0 1 9 0 1 0 1
0 114 109 78 0 0 1 9 0 1 0 1
0 104 109 78 0 0 1 9 0 1 0 1
phys
0 114 19 36 0 0 1 10 0 1 0 1
0 104 19 36 0 0 1 10 0 1 0 1
0 104 143 36 0 0 1 10 0 1 0 1
phys
0 114 19 36 0 0 1 10 0 1 0 1
0 104 143 36 0 0 1 10 0 1 0 1
0 114 143 36 0 0 1 10 0 1 0 1
phys
0 104 19 38 0 0 1 10 0 1 0 1
0 114 19 38 0 0 1 10 0 1 0 1
0 114 143 38 0 0 1 10 0 1 0 1
phys
0 104 19 38 0 0 1 10 0 1 0 1
0 114 143 38 0 0 1 10 0 1 0 1
0 104 143 38 0 0 1 10 0 1 0 1
phys
0 114 143 36 0 0 1 10 0 1 0 1
0 104 143 36 0 0 1 10 0 1 0 1
0 104 143 38 0 0 1 10 0 1 0 1
phys
0 114 143 36 0 0 1 10 0 1 0 1
0 104 143 38 0 0 1 10 0 1 0 1
0 114 143 38 0 0 1 10 0 1 0 1
phys
0 114 19 38 0 0 1 10 0 1 0 1
0 104 19 38 0 0 1 10 0 1 0 1
0 104 19 36 0 0 1 10 0 1 0 1
phys
0 114 19 38 0 0 1 10 0 1 0 1
0 104 19 36 0 0 1 10 0 1 0 1
0 114 19 36 0 0 1 10 0 1 0 1
phys
0 104 19 38 0 0 1 10 0 1 0 1
0 104 143 38 0 0 1 10 0 1 0 1
0 104 143 36 0 0 1 10 0 1 0 1
phys
0 104 19 38 0 0 1 10 0 1 0 1
0 104 143 36 0 0 1 10 0 1 0 1
0 104 19 36 0 0 1 10 0 1 0 1
phys
0 114 19 36 0 0 1 10 0 1 0 1
0 114 143 36 0 0 1 10 0 1 0 1
0 114 143 38 0 0 1 10 0 1 0 1
phys
0 114 19 36 0 0 1 10 0 1 0 1
0 114 143 38 0 0 1 10 0 1 0 1
0 114 19 38 0 0 1 10 0 1 0 1
phys
0 -132 137 0 0 0 1 11 0 1 0 1
0 -136 141 0 0 0 1 11 0 1 0 1
0 -138 148 0 0 0 1 11 0 1 0 1
phys
0 -132 137 0 0 0 1 11 0 1 0 1
0 -138 148 0 0 0 1 11 0 1 0 1
0 -136 154 0 0 0 1 11 0 1 0 1
phys
0 -132 137 0 0 0 1 11 0 1 0 1
0 -136 154 0 0 0 1 11 0 1 0 1
0 -132 158 0 0 0 1 11 0 1 0 1
phys
0 -132 137 0 0 0 1 11 0 1 0 1
0 -132 158 0 0 0 1 11 0 1 0 1
0 -126 159.99 0 0 0 1 11 0 1 0 1
phys
0 -132 137 0 0 0 1 11 0 1 0 1
0 -126 159.99 0 0 0 1 11 0 1 0 1
0 -119 157.99 0 0 0 1 11 0 1 0 1
phys
0 -132 137 0 0 0 1 11 0 1 0 1
0 -119 157.99 0 0 0 1 11 0 1 0 1
0 -115 154 0 0 0 1 11 0 1 0 1
phys
0 -132 137 0 0 0 1 11 0 1 0 1
0 -115 154 0 0 0 1 11 0 1 0 1
0 -113 148 0 0 0 1 11 0 1 0 1
phys
0 -132 137 0 0 0 1 11 0 1 0 1
0 -113 148 0 0 0 1 11 0 1 0 1
0 -115 141 0 0 0 1 11 0 1 0 1
phys
0 -132 137 0 0 0 1 11 0 1 0 1
0 -115 141 0 0 0 1 11 0 1 0 1
0 -119 137 0 0 0 1 11 0 1 0 1
phys
0 -132 137 0 0 0 1 11 0 1 0 1
0 -119 137 0 0 0 1 11 0 1 0 1
0 -126 135 0 0 0 1 11 0 1 0 1
phys
0 -115 154 128 0 0 1 11 0 1 0 1
0 -119 157.99 128 0 0 1 11 0 1 0 1
0 -126 159.99 128 0 0 1 11 0 1 0 1
phys
0 -115 154 128 0 0 1 11 0 1 0 1
0 -126 159.99 128 0 0 1 11 0 1 0 1
0 -132 158 128 0 0 1 11 0 1 0 1
phys
0 -115 154 128 0 0 1 11 0 1 0 1
0 -132 158 128 0 0 1 11 0 1 0 1
0 -136 154 128 0 0 1 11 0 1 0 1
phys
0 -115 154 128 0 0 1 11 0 1 0 1
0 -136 154 128 0 0 1 11 0 1 0 1
0 -138 148 128 0 0 1 11 0 1 0 1
phys
0 -115 154 128 0 0 1 11 0 1 0 1
0 -138 148 128 0 0 1 11 0 1 0 1
0 -136 141 128 0 0 1 11 0 1 0 1
phys
0 -115 154 128 0 0 1 11 0 1 0 1
0 -136 141 128 0 0 1 11 0 1 0 1
0 -132 137 128 0 0 1 11 0 1 0 1
phys
0 -115 154 128 0 0 1 11 0 1 0 1
0 -132 137 128 0 0 1 11 0 1 0 1
0 -126 135 128 0 0 1 11 0 1 0 1
phys
0 -115 154 128 0 0 1 11 0 1 0 1
0 -126 135 128 0 0 1 11 0 1 0 1
0 -119 137 128 0 0 1 11 0 1 0 1
phys
0 -115 154 128 0 0 1 11 0 1 0 1
0 -119 137 128 0 0 1 11 0 1 0 1
0 -115 141 128 0 0 1 11 0 1 0 1
phys
0 -115 154 128 0 0 1 11 0 1 0 1
0 -115 141 128 0 0 1 11 0 1 0 1
0 -113 148 128 0 0 1 11 0 1 0 1
phys
0 -115 154 0 0 0 1 11 0 1 0 1
0 -119 157.99 0 0 0 1 11 0 1 0 1
0 -119 157.99 128 0 0 1 11 0 1 0 1
phys
0 -115 154 0 0 0 1 11 0 1 0 1
0 -119 157.99 128 0 0 1 11 0 1 0 1
0 -115 154 128 0 0 1 11 0 1 0 1
phys
0 -119 157.99 0 0 0 1 11 0 1 0 1
0 -126 159.99 0 0 0 1 11 0 1 0 1
0 -126 159.99 128 0 0 1 11 0 1 0 1
phys
0 -119 157.99 0 0 0 1 11 0 1 0 1
0 -126 159.99 128 0 0 1 11 0 1 0 1
0 -119 157.99 128 0 0 1 11 0 1 0 1
phys
0 -126 159.99 0 0 0 1 11 0 1 0 1
0 -132 158 0 0 0 1 11 0 1 0 1
0 -132 158 128 0 0 1 11 0 1 0 1
phys
0 -126 159.99 0 0 0 1 11 0 1 0 1
0 -132 158 128 0 0 1 11 0 1 0 1
0 -126 159.99 128 0 0 1 11 0 1 0 1
phys
0 -136 154 128 0 0 1 11 0 1 0 1
0 -132 158 128 0 0 1 11 0 1 0 1
0 -132 158 0 0 0 1 11 0 1 0 1
phys
0 -136 154 128 0 0 1 11 0 1 0 1
0 -132 158 0 0 0 1 11 0 1 0 1
0 -136 154 0 0 0 1 11 0 1 0 1
phys
0 -138 148 128 0 0 1 11 0 1 0 1
0 -136 154 128 0 0 1 11 0 1 0 1
0 -136 154 0 0 0 1 11 0 1 0 1
phys
0 -138 148 128 0 0 1 11 0 1 0 1
0 -136 154 0 0 0 1 11 0 1 0 1
0 -138 148 0 0 0 1 11 0 1 0 1
phys
0 -136 141 128 0 0 1 11 0 1 0 1
0 -138 148 128 0 0 1 11 0 1 0 1
0 -138 148 0 0 0 1 11 0 1 0 1
phys
0 -136 141 128 0 0 1 11 0 1 0 1
0 -138 148 0 0 0 1 11 0 1 0 1
0 -136 141 0 0 0 1 11 0 1 0 1
phys
0 -132 137 128 0 0 1 11 0 1 0 1
0 -136 141 128 0 0 1 11 0 1 0 1
0 -136 141 0 0 0 1 11 0 1 0 1
phys
0 -132 137 128 0 0 1 11 0 1 0 1
0 -136 141 0 0 0 1 11 0 1 0 1
0 -132 137 0 0 0 1 11 0 1 0 1
phys
0 -126 135 128 0 0 1 11 0 1 0 1
0 -132 137 128 0 0 1 11 0 1 0 1
0 -132 137 0 0 0 1 11 0 1 0 1
phys
0 -126 135 128 0 0 1 11 0 1 0 1
0 -132 137 0 0 0 1 11 0 1 0 1
0 -126 135 0 0 0 1 11 0 1 0 1
phys
0 -115 141 0 0 0 1 11 0 1 0 1
0 -113 148 0 0 0 1 11 0 1 0 1
0 -113 148 128 0 0 1 11 0 1 0 1
phys
0 -115 141 0 0 0 1 11 0 1 0 1
0 -113 148 128 0 0 1 11 0 1 0 1
0 -115 141 128 0 0 1 11 0 1 0 1
phys
0 -113 148 0 0 0 1 11 0 1 0 1
0 -115 154 0 0 0 1 11 0 1 0 1
0 -115 154 128 0 0 1 11 0 1 0 1
phys
0 -113 148 0 0 0 1 11 0 1 0 1
0 -115 154 128 0 0 1 11 0 1 0 1
0 -113 148 128 0 0 1 11 0 1 0 1
phys
0 -119 137 128 0 0 1 11 0 1 0 1
0 -126 135 128 0 0 1 11 0 1 0 1
0 -126 135 0 0 0 1 11 0 1 0 1
phys
0 -119 137 128 0 0 1 11 0 1 0 1
0 -126 135 0 0 0 1 11 0 1 0 1
0 -119 137 0 0 0 1 11 0 1 0 1
phys
0 -119 137 0 0 0 1 11 0 1 0 1
0 -115 141 0 0 0 1 11 0 1 0 1
0 -115 141 128 0 0 1 11 0 1 0 1
phys
0 -119 137 0 0 0 1 11 0 1 0 1
0 -115 141 128 0 0 1 11 0 1 0 1
0 -119 137 128 0 0 1 11 0 1 0 1
phys
0 114 107 4 0 0 1 12 0 1 0 1
0 114 107 36 0 0 1 12 0 1 0 1
0 104 107 36 0 0 1 12 0 1 0 1
phys
0 114 107 4 0 0 1 12 0 1 0 1
0 104 107 36 0 0 1 12 0 1 0 1
0 104 107 4 0 0 1 12 0 1 0 1
phys
0 104 107 4 0 0 1 12 0 1 0 1
0 104 107 36 0 0 1 12 0 1 0 1
0 104 109 36 0 0 1 12 0 1 0 1
phys
0 104 107 4 0 0 1 12 0 1 0 1
0 104 109 36 0 0 1 12 0 1 0 1
0 104 109 6 0 0 1 12 0 1 0 1
phys
0 114 107 36 0 0 1 12 0 1 0 1
0 114 107 4 0 0 1 12 0 1 0 1
0 114 109 6 0 0 1 12 0 1 0 1
phys
0 114 107 36 0 0 1 12 0 1 0 1
0 114 109 6 0 0 1 12 0 1 0 1
0 114 109 36 0 0 1 12 0 1 0 1
phys
0 104 107 36 0 0 1 12 0 1 0 1
0 114 107 36 0 0 1 12 0 1 0 1
0 114 109 36 0 0 1 12 0 1 0 1
phys
0 104 107 36 0 0 1 12 0 1 0 1
0 114 109 36 0 0 1 12 0 1 0 1
0 104 109 36 0 0 1 12 0 1 0 1
phys
0 114 107 4 0 0 1 12 0 1 0 1
0 104 107 4 0 0 1 12 0 1 0 1
0 104 109 6 0 0 1 12 0 1 0 1
phys
0 114 107 4 0 0 1 12 0 1 0 1
0 104 109 6 0 0 1 12 0 1 0 1
0 114 109 6 0 0 1 12 0 1 0 1
phys
0 114 109 36 0 0 1 12 0 1 0 1
0 114 109 6 0 0 1 12 0 1 0 1
0 104 109 6 0 0 1 12 0 1 0 1
phys
0 114 109 36 0 0 1 12 0 1 0 1
0 104 109 6 0 0 1 12 0 1 0 1
0 104 109 36 0 0 1 12 0 1 0 1
phys
0 104 109 6 0 0 1 13 0 1 0 1
0 104 143 6 0 0 1 13 0 1 0 1
0 104 145 4 0 0 1 13 0 1 0 1
phys
0 104 109 6 0 0 1 13 0 1 0 1
0 104 145 4 0 0 1 13 0 1 0 1
0 104 107 4 0 0 1 13 0 1 0 1
phys
0 114 107 4 0 0 1 13 0 1 0 1
0 114 145 4 0 0 1 13 0 1 0 1
0 114 143 6 0 0 1 13 0 1 0 1
phys
0 114 107 4 0 0 1 13 0 1 0 1
0 114 143 6 0 0 1 13 0 1 0 1
0 114 109 6 0 0 1 13 0 1 0 1
phys
0 104 107 4 0 0 1 13 0 1 0 1
0 104 145 4 0 0 1 13 0 1 0 1
0 114 145 4 0 0 1 13 0 1 0 1
phys
0 104 107 4 0 0 1 13 0 1 0 1
0 114 145 4 0 0 1 13 0 1 0 1
0 114 107 4 0 0 1 13 0 1 0 1
phys
0 114 109 6 0 0 1 13 0 1 0 1
0 114 143 6 0 0 1 13 0 1 0 1
0 104 143 6 0 0 1 13 0 1 0 1
phys
0 114 109 6 0 0 1 13 0 1 0 1
0 104 143 6 0 0 1 13 0 1 0 1
0 104 109 6 0 0 1 13 0 1 0 1
phys
0 114 107 4 0 0 1 13 0 1 0 1
0 114 109 6 0 0 1 13 0 1 0 1
0 104 109 6 0 0 1 13 0 1 0 1
phys
0 114 107 4 0 0 1 13 0 1 0 1
0 104 109 6 0 0 1 13 0 1 0 1
0 104 107 4 0 0 1 13 0 1 0 1
phys
0 114 143 6 0 0 1 13 0 1 0 1
0 114 145 4 0 0 1 13 0 1 0 1
0 104 145 4 0 0 1 13 0 1 0 1
phys
0 114 143 6 0 0 1 13 0 1 0 1
0 104 145 4 0 0 1 13 0 1 0 1
0 104 143 6 0 0 1 13 0 1 0 1
phys
0 114 17 4 0 0 1 14 0 1 0 1
0 114 17 79.999 0 0 1 14 0 1 0 1
0 104 17 79.999 0 0 1 14 0 1 0 1
phys
0 114 17 4 0 0 1 14 0 1 0 1
0 104 17 79.999 0 0 1 14 0 1 0 1
0 104 17 4 0 0 1 14 0 1 0 1
phys
0 104 17 4 0 0 1 14 0 1 0 1
0 104 17 79.999 0 0 1 14 0 1 0 1
0 104 19 77.999 0 0 1 14 0 1 0 1
phys
0 104 17 4 0 0 1 14 0 1 0 1
0 104 19 77.999 0 0 1 14 0 1 0 1
0 104 19 6 0 0 1 14 0 1 0 1
phys
0 114 17 79.999 0 0 1 14 0 1 0 1
0 114 17 4 0 0 1 14 0 1 0 1
0 114 19 6 0 0 1 14 0 1 0 1
phys
0 114 17 79.999 0 0 1 14 0 1 0 1
0 114 19 6 0 0 1 14 0 1 0 1
0 114 19 77.999 0 0 1 14 0 1 0 1
phys
0 104 17 79.999 0 0 1 14 0 1 0 1
0 114 17 79.999 0 0 1 14 0 1 0 1
0 114 19 77.999 0 0 1 14 0 1 0 1
phys
0 104 17 79.999 0 0 1 14 0 1 0 1
0 114 19 77.999 0 0 1 14 0 1 0 1
0 104 19 77.999 0 0 1 14 0 1 0 1
phys
0 114 17 4 0 0 1 14 0 1 0 1
0 104 17 4 0 0 1 14 0 1 0 1
0 104 19 6 0 0 1 14 0 1 0 1
phys
0 114 17 4 0 0 1 14 0 1 0 1
0 104 19 6 0 0 1 14 0 1 0 1
0 114 19 6 0 0 1 14 0 1 0 1
phys
0 114 19 77.999 0 0 1 14 0 1 0 1
0 114 19 6 0 0 1 14 0 1 0 1
0 104 19 6 0 0 1 14 0 1 0 1
phys
0 114 19 77.999 0 0 1 14 0 1 0 1
0 104 19 6 0 0 1 14 0 1 0 1
0 104 19 77.999 0 0 1 14 0 1 0 1
phys
0 114 143 6 0 0 1 15 0 1 0 1
0 114 143 78 0 0 1 15 0 1 0 1
0 104 143 78 0 0 1 15 0 1 0 1
phys
0 114 143 6 0 0 1 15 0 1 0 1
0 104 143 78 0 0 1 15 0 1 0 1
0 104 143 6 0 0 1 15 0 1 0 1
phys
0 104 145 4 0 0 1 15 0 1 0 1
0 104 143 6 0 0 1 15 0 1 0 1
0 104 143 78 0 0 1 15 0 1 0 1
phys
0 104 145 4 0 0 1 15 0 1 0 1
0 104 143 78 0 0 1 15 0 1 0 1
0 104 145 80 0 0 1 15 0 1 0 1
phys
0 114 145 80 0 0 1 15 0 1 0 1
0 114 143 78 0 0 1 15 0 1 0 1
0 114 143 6 0 0 1 15 0 1 0 1
phys
0 114 145 80 0 0 1 15 0 1 0 1
0 114 143 6 0 0 1 15 0 1 0 1
0 114 145 4 0 0 1 15 0 1 0 1
phys
0 104 143 78 0 0 1 15 0 1 0 1
0 114 143 78 0 0 1 15 0 1 0 1
0 114 145 80 0 0 1 15 0 1 0 1
phys
0 104 143 78 0 0 1 15 0 1 0 1
0 114 145 80 0 0 1 15 0 1 0 1
0 104 145 80 0 0 1 15 0 1 0 1
phys
0 114 143 6 0 0 1 15 0 1 0 1
0 104 143 6 0 0 1 15 0 1 0 1
0 104 145 4 0 0 1 15 0 1 0 1
phys
0 114 143 6 0 0 1 15 0 1 0 1
0 104 145 4 0 0 1 15 0 1 0 1
0 114 145 4 0 0 1 15 0 1 0 1
phys
0 114 145 80 0 0 1 15 0 1 0 1
0 114 145 4 0 0 1 15 0 1 0 1
0 104 145 4 0 0 1 15 0 1 0 1
phys
0 114 145 80 0 0 1 15 0 1 0 1
0 104 145 4 0 0 1 15 0 1 0 1
0 104 145 80 0 0 1 15 0 1 0 1
phys
0 114 55 36 0 0 1 16 0 1 0 1
0 114 55 4 0 0 1 16 0 1 0 1
0 104 55 4 0 0 1 16 0 1 0 1
phys
0 114 55 36 0 0 1 16 0 1 0 1
0 104 55 4 0 0 1 16 0 1 0 1
0 104 55 36 0 0 1 16 0 1 0 1
phys
0 114 53 6 0 0 1 16 0 1 0 1
0 114 53 36 0 0 1 16 0 1 0 1
0 104 53 36 0 0 1 16 0 1 0 1
phys
0 114 53 6 0 0 1 16 0 1 0 1
0 104 53 36 0 0 1 16 0 1 0 1
0 104 53 6 0 0 1 16 0 1 0 1
phys
0 104 53 6 0 0 1 16 0 1 0 1
0 104 53 36 0 0 1 16 0 1 0 1
0 104 55 36 0 0 1 16 0 1 0 1
phys
0 104 53 6 0 0 1 16 0 1 0 1
0 104 55 36 0 0 1 16 0 1 0 1
0 104 55 4 0 0 1 16 0 1 0 1
phys
0 114 53 36 0 0 1 16 0 1 0 1
0 114 53 6 0 0 1 16 0 1 0 1
0 114 55 4 0 0 1 16 0 1 0 1
phys
0 114 53 36 0 0 1 16 0 1 0 1
0 114 55 4 0 0 1 16 0 1 0 1
0 114 55 36 0 0 1 16 0 1 0 1
phys
0 104 53 36 0 0 1 16 0 1 0 1
0 114 53 36 0 0 1 16 0 1 0 1
0 114 55 36 0 0 1 16 0 1 0 1
phys
0 104 53 36 0 0 1 16 0 1 0 1
0 114 55 36 0 0 1 16 0 1 0 1
0 104 55 36 0 0 1 16 0 1 0 1
phys
0 114 53 6 0 0 1 16 0 1 0 1
0 104 53 6 0 0 1 16 0 1 0 1
0 104 55 4 0 0 1 16 0 1 0 1
phys
0 114 53 6 0 0 1 16 0 1 0 1
0 104 55 4 0 0 1 16 0 1 0 1
0 114 55 4 0 0 1 16 0 1 0 1
phys
0 114 55 78 0 0 1 17 0 1 0 1
0 114 55 38 0 0 1 17 0 1 0 1
0 104 55 38 0 0 1 17 0 1 0 1
phys
0 114 55 78 0 0 1 17 0 1 0 1
0 104 55 38 0 0 1 17 0 1 0 1
0 104 55 78 0 0 1 17 0 1 0 1
phys
0 114 53 38 0 0 1 17 0 1 0 1
0 114 53 78 0 0 1 17 0 1 0 1
0 104 53 78 0 0 1 17 0 1 0 1
phys
0 114 53 38 0 0 1 17 0 1 0 1
0 104 53 78 0 0 1 17 0 1 0 1
0 104 53 38 0 0 1 17 0 1 0 1
phys
0 104 53 38 0 0 1 17 0 1 0 1
0 104 53 78 0 0 1 17 0 1 0 1
0 104 55 78 0 0 1 17 0 1 0 1
phys
0 104 53 38 0 0 1 17 0 1 0 1
0 104 55 78 0 0 1 17 0 1 0 1
0 104 55 38 0 0 1 17 0 1 0 1
phys
0 114 53 78 0 0 1 17 0 1 0 1
0 114 53 38 0 0 1 17 0 1 0 1
0 114 55 38 0 0 1 17 0 1 0 1
phys
0 114 53 78 0 0 1 17 0 1 0 1
0 114 55 38 0 0 1 17 0 1 0 1
0 114 55 78 0 0 1 17 0 1 0 1
phys
0 114 53 38 0 0 1 17 0 1 0 1
0 104 53 38 0 0 1 17 0 1 0 1
0 104 55 38 0 0 1 17 0 1 0 1
phys
0 114 53 38 0 0 1 17 0 1 0 1
0 104 55 38 0 0 1 17 0 1 0 1
0 114 55 38 0 0 1 17 0 1 0 1
phys
0 104 53 78 0 0 1 17 0 1 0 1
0 114 53 78 0 0 1 17 0 1 0 1
0 114 55 78 0 0 1 17 0 1 0 1
phys
0 104 53 78 0 0 1 17 0 1 0 1
0 114 55 78 0 0 1 17 0 1 0 1
0 104 55 78 0 0 1 17 0 1 0 1
phys
0 110 109 6 0 0 1 18 0 1 0 1
0 110 143 6 0 0 1 18 0 1 0 1
0 110 143 78 0 0 1 18 0 1 0 1
phys
0 110 109 6 0 0 1 18 0 1 0 1
0 110 143 78 0 0 1 18 0 1 0 1
0 110 109 78 0 0 1 18 0 1 0 1
phys
0 109 143 6 0 0 1 18 0 1 0 1
0 110 143 6 0 0 1 18 0 1 0 1
0 110 109 6 0 0 1 18 0 1 0 1
phys
0 109 143 6 0 0 1 18 0 1 0 1
0 110 109 6 0 0 1 18 0 1 0 1
0 109 109 6 0 0 1 18 0 1 0 1
phys
0 109 109 78 0 0 1 18 0 1 0 1
0 110 109 78 0 0 1 18 0 1 0 1
0 110 143 78 0 0 1 18 0 1 0 1
phys
0 109 109 78 0 0 1 18 0 1 0 1
0 110 143 78 0 0 1 18 0 1 0 1
0 109 143 78 0 0 1 18 0 1 0 1
phys
0 110 143 78 0 0 1 18 0 1 0 1
0 110 143 6 0 0 1 18 0 1 0 1
0 109 143 6 0 0 1 18 0 1 0 1
phys
0 110 143 78 0 0 1 18 0 1 0 1
0 109 143 6 0 0 1 18 0 1 0 1
0 109 143 78 0 0 1 18 0 1 0 1
phys
0 110 109 6 0 0 1 18 0 1 0 1
0 110 109 78 0 0 1 18 0 1 0 1
0 109 109 78 0 0 1 18 0 1 0 1
phys
0 110 109 6 0 0 1 18 0 1 0 1
0 109 109 78 0 0 1 18 0 1 0 1
0 109 109 6 0 0 1 18 0 1 0 1
phys
0 109 109 78 0 0 1 18 0 1 0 1
0 109 143 78 0 0 1 18 0 1 0 1
0 109 143 6 0 0 1 18 0 1 0 1
phys
0 109 109 78 0 0 1 18 0 1 0 1
0 109 143 6 0 0 1 18 0 1 0 1
0 109 109 6 0 0 1 18 0 1 0 1
phys
0 104 19 6 0 0 1 19 0 1 0 1
0 104 53 6 0 0 1 19 0 1 0 1
0 104 55 4 0 0 1 19 0 1 0 1
phys
0 104 19 6 0 0 1 19 0 1 0 1
0 104 55 4 0 0 1 19 0 1 0 1
0 104 17 4 0 0 1 19 0 1 0 1
phys
0 114 17 4 0 0 1 19 0 1 0 1
0 114 55 4 0 0 1 19 0 1 0 1
0 114 53 6 0 0 1 19 0 1 0 1
phys
0 114 17 4 0 0 1 19 0 1 0 1
0 114 53 6 0 0 1 19 0 1 0 1
0 114 19 6 0 0 1 19 0 1 0 1
phys
0 104 17 4 0 0 1 19 0 1 0 1
0 104 55 4 0 0 1 19 0 1 0 1
0 114 55 4 0 0 1 19 0 1 0 1
phys
0 104 17 4 0 0 1 19 0 1 0 1
0 114 55 4 0 0 1 19 0 1 0 1
0 114 17 4 0 0 1 19 0 1 0 1
phys
0 114 19 6 0 0 1 19 0 1 0 1
0 114 53 6 0 0 1 19 0 1 0 1
0 104 53 6 0 0 1 19 0 1 0 1
phys
0 114 19 6 0 0 1 19 0 1 0 1
0 104 53 6 0 0 1 19 0 1 0 1
0 104 19 6 0 0 1 19 0 1 0 1
phys
0 114 53 6 0 0 1 19 0 1 0 1
0 114 55 4 0 0 1 19 0 1 0 1
0 104 55 4 0 0 1 19 0 1 0 1
phys
0 114 53 6 0 0 1 19 0 1 0 1
0 104 55 4 0 0 1 19 0 1 0 1
0 104 53 6 0 0 1 19 0 1 0 1
phys
0 114 17 4 0 0 1 19 0 1 0 1
0 114 19 6 0 0 1 19 0 1 0 1
0 104 19 6 0 0 1 19 0 1 0 1
phys
0 114 17 4 0 0 1 19 0 1 0 1
0 104 19 6 0 0 1 19 0 1 0 1
0 104 17 4 0 0 1 19 0 1 0 1
phys
0 110 107 78 0 0 1 20 0 1 0 1
0 110 107 38 0 0 1 20 0 1 0 1
0 109 107 38 0 0 1 20 0 1 0 1
phys
0 110 107 78 0 0 1 20 0 1 0 1
0 109 107 38 0 0 1 20 0 1 0 1
0 109 107 78 0 0 1 20 0 1 0 1
phys
0 110 55 38 0 0 1 20 0 1 0 1
0 110 55 78 0 0 1 20 0 1 0 1
0 109 55 78 0 0 1 20 0 1 0 1
phys
0 110 55 38 0 0 1 20 0 1 0 1
0 109 55 78 0 0 1 20 0 1 0 1
0 109 55 38 0 0 1 20 0 1 0 1
phys
0 109 55 38 0 0 1 20 0 1 0 1
0 109 55 78 0 0 1 20 0 1 0 1
0 109 107 78 0 0 1 20 0 1 0 1
phys
0 109 55 38 0 0 1 20 0 1 0 1
0 109 107 78 0 0 1 20 0 1 0 1
0 109 107 38 0 0 1 20 0 1 0 1
phys
0 110 55 78 0 0 1 20 0 1 0 1
0 110 55 38 0 0 1 20 0 1 0 1
0 110 107 38 0 0 1 20 0 1 0 1
phys
0 110 55 78 0 0 1 20 0 1 0 1
0 110 107 38 0 0 1 20 0 1 0 1
0 110 107 78 0 0 1 20 0 1 0 1
phys
0 110 55 38 0 0 1 20 0 1 0 1
0 109 55 38 0 0 1 20 0 1 0 1
0 109 107 38 0 0 1 20 0 1 0 1
phys
0 110 55 38 0 0 1 20 0 1 0 1
0 109 107 38 0 0 1 20 0 1 0 1
0 110 107 38 0 0 1 20 0 1 0 1
phys
0 109 55 78 0 0 1 20 0 1 0 1
0 110 55 78 0 0 1 20 0 1 0 1
0 110 107 78 0 0 1 20 0 1 0 1
phys
0 109 55 78 0 0 1 20 0 1 0 1
0 110 107 78 0 0 1 20 0 1 0 1
0 109 107 78 0 0 1 20 0 1 0 1
phys
0 103 -157 117 0 0 1 21 0 1 0 1
0 104 -157 117 0 0 1 21 0 1 0 1
0 104 -61 117 0 0 1 21 0 1 0 1
phys
0 103 -157 117 0 0 1 21 0 1 0 1
0 104 -61 117 0 0 1 21 0 1 0 1
0 103 -61 117 0 0 1 21 0 1 0 1
phys
0 103 -61 21 0 0 1 21 0 1 0 1
0 103 -61 117 0 0 1 21 0 1 0 1
0 104 -61 117 0 0 1 21 0 1 0 1
phys
0 103 -61 21 0 0 1 21 0 1 0 1
0 104 -61 117 0 0 1 21 0 1 0 1
0 104 -61 21 0 0 1 21 0 1 0 1
phys
0 104 -157 21 0 0 1 21 0 1 0 1
0 104 -157 117 0 0 1 21 0 1 0 1
0 103 -157 117 0 0 1 21 0 1 0 1
phys
0 104 -157 21 0 0 1 21 0 1 0 1
0 103 -157 117 0 0 1 21 0 1 0 1
0 103 -157 21 0 0 1 21 0 1 0 1
phys
0 103 -157 21 0 0 1 21 0 1 0 1
0 103 -157 117 0 0 1 21 0 1 0 1
0 103 -61 117 0 0 1 21 0 1 0 1
phys
0 103 -157 21 0 0 1 21 0 1 0 1
0 103 -61 117 0 0 1 21 0 1 0 1
0 103 -61 21 0 0 1 21 0 1 0 1
phys
0 104 -61 21 0 0 1 21 0 1 0 1
0 104 -61 117 0 0 1 21 0 1 0 1
0 104 -157 117 0 0 1 21 0 1 0 1
phys
0 104 -61 21 0 0 1 21 0 1 0 1
0 104 -157 117 0 0 1 21 0 1 0 1
0 104 -157 21 0 0 1 21 0 1 0 1
phys
0 104 -157 21 0 0 1 21 0 1 0 1
0 103 -157 21 0 0 1 21 0 1 0 1
0 103 -61 21 0 0 1 21 0 1 0 1
phys
0 104 -157 21 0 0 1 21 0 1 0 1
0 103 -61 21 0 0 1 21 0 1 0 1
0 104 -61 21 0 0 1 21 0 1 0 1
phys
0 101 -159 119 0 0 1 22 0 1 0 1
0 101 -59 119 0 0 1 22 0 1 0 1
0 101 -61 117 0 0 1 22 0 1 0 1
phys
0 101 -159 119 0 0 1 22 0 1 0 1
0 101 -61 117 0 0 1 22 0 1 0 1
0 101 -157 117 0 0 1 22 0 1 0 1
phys
0 104 -157 117 0 0 1 22 0 1 0 1
0 104 -61 117 0 0 1 22 0 1 0 1
0 104 -59 119 0 0 1 22 0 1 0 1
phys
0 104 -157 117 0 0 1 22 0 1 0 1
0 104 -59 119 0 0 1 22 0 1 0 1
0 104 -159 119 0 0 1 22 0 1 0 1
phys
0 101 -157 117 0 0 1 22 0 1 0 1
0 101 -61 117 0 0 1 22 0 1 0 1
0 104 -61 117 0 0 1 22 0 1 0 1
phys
0 101 -157 117 0 0 1 22 0 1 0 1
0 104 -61 117 0 0 1 22 0 1 0 1
0 104 -157 117 0 0 1 22 0 1 0 1
phys
0 104 -159 119 0 0 1 22 0 1 0 1
0 104 -59 119 0 0 1 22 0 1 0 1
0 101 -59 119 0 0 1 22 0 1 0 1
phys
0 104 -159 119 0 0 1 22 0 1 0 1
0 101 -59 119 0 0 1 22 0 1 0 1
0 101 -159 119 0 0 1 22 0 1 0 1
phys
0 101 -159 119 0 0 1 22 0 1 0 1
0 101 -157 117 0 0 1 22 0 1 0 1
0 104 -157 117 0 0 1 22 0 1 0 1
phys
0 101 -159 119 0 0 1 22 0 1 0 1
0 104 -157 117 0 0 1 22 0 1 0 1
0 104 -159 119 0 0 1 22 0 1 0 1
phys
0 101 -61 117 0 0 1 22 0 1 0 1
0 101 -59 119 0 0 1 22 0 1 0 1
0 104 -59 119 0 0 1 22 0 1 0 1
phys
0 101 -61 117 0 0 1 22 0 1 0 1
0 104 -59 119 0 0 1 22 0 1 0 1
0 104 -61 117 0 0 1 22 0 1 0 1
end
