version 1
nodes
0 "root" -1
end
skeleton
time 0
0 0 0 0 0 0 0
end
triangles
wood_offdesktop
0 104 145 4 0 1 0 -186.3125 8 1 0 1
0 104 145 0 0 1 0 -186.3125 8.03125 1 0 1
0 88 145 0 0 1 0 -186.5625 8.03125 1 0 1
wood_offdesktop
0 104 145 4 0 1 0 -186.3125 8 1 0 1
0 88 145 0 0 1 0 -186.5625 8.03125 1 0 1
0 80 145 3 0 1 0 -186.6875 8.007812 1 0 1
wood_offdesktop
0 104 145 4 0 1 0 -186.3125 8 1 0 1
0 80 145 3 0 1 0 -186.6875 8.007812 1 0 1
0 80 145 4 0 1 0 -186.6875 8 1 0 1
wood_offdesktop
0 104 17 0 0 -1 0 -186.3125 -7.03125 1 0 1
0 104 17 4 0 -1 0 -186.3125 -7 1 0 1
0 80 17 4 0 -1 0 -186.6875 -7 1 0 1
wood_offdesktop
0 104 17 0 0 -1 0 -186.3125 -7.03125 1 0 1
0 80 17 4 0 -1 0 -186.6875 -7 1 0 1
0 80 17 3 0 -1 0 -186.6875 -7.007812 1 0 1
wood_offdesktop
0 104 17 0 0 -1 0 -186.3125 -7.03125 1 0 1
0 80 17 3 0 -1 0 -186.6875 -7.007812 1 0 1
0 88 17 0 0 -1 0 -186.5625 -7.03125 1 0 1
wood_offdesktop
0 80 17 3 -1 0 0 -15.703125 -14 1 0 1
0 80 17 4 -1 0 0 -15.6875 -14 1 0 1
0 80 145 4 -1 0 0 -15.6875 -13 1 0 1
wood_offdesktop
0 80 17 3 -1 0 0 -15.703125 -14 1 0 1
0 80 145 4 -1 0 0 -15.6875 -13 1 0 1
0 80 145 3 -1 0 0 -15.703125 -13 1 0 1
wood_offdesktop
0 104 17 0 0 0 -1 -186.3125 -14 1 0 1
0 88 17 0 0 0 -1 -186.5625 -14 1 0 1
0 88 145 0 0 0 -1 -186.5625 -13 1 0 1
wood_offdesktop
0 104 17 0 0 0 -1 -186.3125 -14 1 0 1
0 88 145 0 0 0 -1 -186.5625 -13 1 0 1
0 104 145 0 0 0 -1 -186.3125 -13 1 0 1
wood_offdesktop
0 80 17 4 0 0 1 -186.6875 -14 1 0 1
0 104 17 4 0 0 1 -186.3125 -14 1 0 1
0 104 145 4 0 0 1 -186.3125 -13 1 0 1
wood_offdesktop
0 80 17 4 0 0 1 -186.6875 -14 1 0 1
0 104 145 4 0 0 1 -186.3125 -13 1 0 1
0 80 145 4 0 0 1 -186.6875 -13 1 0 1
wood_offdesktop
0 88 17 0 -0.351123 0 -0.936329 -169.556722 -14 1 0 1
0 80 17 3 -0.351123 0 -0.936329 -169.690217 -14 1 0 1
0 80 145 3 -0.351123 0 -0.936329 -169.690217 -13 1 0 1
wood_offdesktop
0 88 17 0 -0.351123 0 -0.936329 -169.556722 -14 1 0 1
0 80 145 3 -0.351123 0 -0.936329 -169.690217 -13 1 0 1
0 88 145 0 -0.351123 0 -0.936329 -169.556722 -13 1 0 1
metal_citadel_metalwall074a
0 104 17 80 -1 0 0 -14.898438 8.617188 1 0 1
0 104 145 80 -1 0 0 -13.898438 8.617188 1 0 1
0 104 143 78 -1 0 0 -13.914062 8.632812 1 0 1
metal_citadel_metalwall074a
0 104 17 80 -1 0 0 -14.898438 8.617188 1 0 1
0 104 143 78 -1 0 0 -13.914062 8.632812 1 0 1
0 104 19 78 -1 0 0 -14.882812 8.632812 1 0 1
metal_citadel_metalwall074a
0 114 19 78 1 0 0 -14.882812 8.632812 1 0 1
0 114 143 78 1 0 0 -13.914062 8.632812 1 0 1
0 114 145 80 1 0 0 -13.898438 8.617188 1 0 1
metal_citadel_metalwall074a
0 114 19 78 1 0 0 -14.882812 8.632812 1 0 1
0 114 145 80 1 0 0 -13.898438 8.617188 1 0 1
0 114 17 80 1 0 0 -14.898438 8.617188 1 0 1
metal_citadel_metalwall074a
0 104 19 78 0 0 -1 -14.882812 -92.367188 1 0 1
0 104 143 78 0 0 -1 -13.914062 -92.367188 1 0 1
0 114 143 78 0 0 -1 -13.914062 -92.289062 1 0 1
metal_citadel_metalwall074a
0 104 19 78 0 0 -1 -14.882812 -92.367188 1 0 1
0 114 143 78 0 0 -1 -13.914062 -92.289062 1 0 1
0 114 19 78 0 0 -1 -14.882812 -92.289062 1 0 1
bridge_se1_metal_flat_steel_01
0 104 143 78 0 0.707107 -0.707107 -7.015625 -91.761719 1 0 1
0 104 145 80 0 0.707107 -0.707107 -7 -91.761719 1 0 1
0 114 145 80 0 0.707107 -0.707107 -7 -91.683594 1 0 1
bridge_se1_metal_flat_steel_01
0 104 143 78 0 0.707107 -0.707107 -7.015625 -91.761719 1 0 1
0 114 145 80 0 0.707107 -0.707107 -7 -91.683594 1 0 1
0 114 143 78 0 0.707107 -0.707107 -7.015625 -91.683594 1 0 1
bridge_se1_metal_flat_steel_01
0 104 17 80 0 -0.707107 -0.707107 -7 -91.761719 1 0 1
0 104 19 78 0 -0.707107 -0.707107 -7.015625 -91.761719 1 0 1
0 114 19 78 0 -0.707107 -0.707107 -7.015625 -91.683594 1 0 1
bridge_se1_metal_flat_steel_01
0 104 17 80 0 -0.707107 -0.707107 -7 -91.761719 1 0 1
0 114 19 78 0 -0.707107 -0.707107 -7.015625 -91.683594 1 0 1
0 114 17 80 0 -0.707107 -0.707107 -7 -91.683594 1 0 1
metal_metalfloor006a
0 104 -59 119 0 1 0 -93 -5.359375 1 0 1
0 104 -59 19 0 1 0 -93 -6.140625 1 0 1
0 101 -59 19 0 1 0 -93.023438 -6.140625 1 0 1
metal_metalfloor006a
0 104 -59 119 0 1 0 -93 -5.359375 1 0 1
0 101 -59 19 0 1 0 -93.023438 -6.140625 1 0 1
0 101 -59 119 0 1 0 -93.023438 -5.359375 1 0 1
metal_metalfloor006a
0 104 -61 21 0 -1 0 -93 -6.125 1 0 1
0 104 -61 117 0 -1 0 -93 -5.375 1 0 1
0 101 -61 117 0 -1 0 -93.023438 -5.375 1 0 1
metal_metalfloor006a
0 104 -61 21 0 -1 0 -93 -6.125 1 0 1
0 101 -61 117 0 -1 0 -93.023438 -5.375 1 0 1
0 101 -61 21 0 -1 0 -93.023438 -6.125 1 0 1
metal_metalfloor006a
0 101 -61 21 -1 0 0 -15.164062 -6.125 1 0 1
0 101 -61 117 -1 0 0 -15.164062 -5.375 1 0 1
0 101 -59 119 -1 0 0 -15.148438 -5.359375 1 0 1
metal_metalfloor006a
0 101 -61 21 -1 0 0 -15.164062 -6.125 1 0 1
0 101 -59 119 -1 0 0 -15.148438 -5.359375 1 0 1
0 101 -59 19 -1 0 0 -15.148438 -6.140625 1 0 1
metal_metalfloor006a
0 101 -157 21 -1 0 0 -15.914062 -6.125 1 0 1
0 101 -61 21 -1 0 0 -15.164062 -6.125 1 0 1
0 101 -59 19 -1 0 0 -15.148438 -6.140625 1 0 1
metal_metalfloor006a
0 101 -157 21 -1 0 0 -15.914062 -6.125 1 0 1
0 101 -59 19 -1 0 0 -15.148438 -6.140625 1 0 1
0 101 -159 19 -1 0 0 -15.929688 -6.140625 1 0 1
metal_metalfloor006a
0 101 -159 19 0 0 -1 -93.023438 -14.929688 1 0 1
0 101 -59 19 0 0 -1 -93.023438 -14.148438 1 0 1
0 104 -59 19 0 0 -1 -93 -14.148438 1 0 1
metal_metalfloor006a
0 101 -159 19 0 0 -1 -93.023438 -14.929688 1 0 1
0 104 -59 19 0 0 -1 -93 -14.148438 1 0 1
0 104 -159 19 0 0 -1 -93 -14.929688 1 0 1
metal_metalfloor006a
0 104 -157 21 0 0 1 -93 -14.914062 1 0 1
0 104 -61 21 0 0 1 -93 -14.164063 1 0 1
0 101 -61 21 0 0 1 -93.023438 -14.164063 1 0 1
metal_metalfloor006a
0 104 -157 21 0 0 1 -93 -14.914062 1 0 1
0 101 -61 21 0 0 1 -93.023438 -14.164063 1 0 1
0 101 -157 21 0 0 1 -93.023438 -14.914062 1 0 1
glass_unbreakable
0 109 19 6 -1 0 0 48.425781 -25.25 1 0 1
0 109 19 78 -1 0 0 48.425781 -23.375 1 0 1
0 109 53 78 -1 0 0 47.540365 -23.375 1 0 1
glass_unbreakable
0 109 19 6 -1 0 0 48.425781 -25.25 1 0 1
0 109 53 78 -1 0 0 47.540365 -23.375 1 0 1
0 109 53 6 -1 0 0 47.540365 -25.25 1 0 1
glass_unbreakable
0 110 19 78 1 0 0 48.425781 -23.375 1 0 1
0 110 19 6 1 0 0 48.425781 -25.25 1 0 1
0 110 53 6 1 0 0 47.540365 -25.25 1 0 1
glass_unbreakable
0 110 19 78 1 0 0 48.425781 -23.375 1 0 1
0 110 53 6 1 0 0 47.540365 -25.25 1 0 1
0 110 53 78 1 0 0 47.540365 -23.375 1 0 1
wall_subwaywall01_ivy
0 -113.5 -55.33 0 0.896319 -0.443409 0 -46.559148 -4.916016 1 0 1
0 -113.5 -55.33 128 0.896319 -0.443409 0 -46.559148 -4.082682 1 0 1
0 -116.3 -60.99 128 0.896319 -0.443409 0 -46.600258 -4.082682 1 0 1
wall_subwaywall01_ivy
0 -113.5 -55.33 0 0.896319 -0.443409 0 -46.559148 -4.916016 1 0 1
0 -116.3 -60.99 128 0.896319 -0.443409 0 -46.600258 -4.082682 1 0 1
0 -116.3 -60.99 0 0.896319 -0.443409 0 -46.600258 -4.916016 1 0 1
wall_subwaywall01_ivy
0 -117 -43.31 0 0.8761 0.48213 0 46.522348 -4.916016 1 0 1
0 -117 -43.31 128 0.8761 0.48213 0 46.522348 -4.082682 1 0 1
0 -113.5 -49.67 128 0.8761 0.48213 0 46.476958 -4.082682 1 0 1
wall_subwaywall01_ivy
0 -117 -43.31 0 0.8761 0.48213 0 46.522348 -4.916016 1 0 1
0 -113.5 -49.67 128 0.8761 0.48213 0 46.476958 -4.082682 1 0 1
0 -113.5 -49.67 0 0.8761 0.48213 0 46.476958 -4.916016 1 0 1
wall_subwaywall01_ivy
0 -122.7 -40.48 0 0.444698 0.895681 0 64.561418 -4.916016 1 0 1
0 -122.7 -40.48 128 0.444698 0.895681 0 64.561418 -4.082682 1 0 1
0 -117 -43.31 128 0.444698 0.895681 0 64.519988 -4.082682 1 0 1
wall_subwaywall01_ivy
0 -122.7 -40.48 0 0.444698 0.895681 0 64.561418 -4.916016 1 0 1
0 -117 -43.31 128 0.444698 0.895681 0 64.519988 -4.082682 1 0 1
0 -117 -43.31 0 0.444698 0.895681 0 64.519988 -4.916016 1 0 1
wall_subwaywall01_ivy
0 -116.3 -60.99 0 0.482969 -0.875638 0 -74.603175 -4.916016 1 0 1
0 -116.3 -60.99 128 0.482969 -0.875638 0 -74.603175 -4.082682 1 0 1
0 -122.7 -64.52 128 0.482969 -0.875638 0 -74.650759 -4.082682 1 0 1
wall_subwaywall01_ivy
0 -116.3 -60.99 0 0.482969 -0.875638 0 -74.603175 -4.916016 1 0 1
0 -122.7 -64.52 128 0.482969 -0.875638 0 -74.650759 -4.082682 1 0 1
0 -122.7 -64.52 0 0.482969 -0.875638 0 -74.650759 -4.916016 1 0 1
wall_subwaywall01_ivy
0 -134 -43.31 0 -0.444698 0.895681 0 75.639366 -4.916016 1 0 1
0 -134 -43.31 128 -0.444698 0.895681 0 75.639366 -4.082682 1 0 1
0 -128.3 -40.48 128 -0.444698 0.895681 0 75.597936 -4.082682 1 0 1
wall_subwaywall01_ivy
0 -134 -43.31 0 -0.444698 0.895681 0 75.639366 -4.916016 1 0 1
0 -128.3 -40.48 128 -0.444698 0.895681 0 75.597936 -4.082682 1 0 1
0 -128.3 -40.48 0 -0.444698 0.895681 0 75.597936 -4.916016 1 0 1
wall_subwaywall01_ivy
0 -137.5 -49.67 0 -0.8761 0.48213 0 49.186874 -4.916016 1 0 1
0 -137.5 -49.67 128 -0.8761 0.48213 0 49.186874 -4.082682 1 0 1
0 -134 -43.31 128 -0.8761 0.48213 0 49.139612 -4.082682 1 0 1
wall_subwaywall01_ivy
0 -137.5 -49.67 0 -0.8761 0.48213 0 49.186874 -4.916016 1 0 1
0 -134 -43.31 128 -0.8761 0.48213 0 49.139612 -4.082682 1 0 1
0 -134 -43.31 0 -0.8761 0.48213 0 49.139612 -4.916016 1 0 1
wall_subwaywall01_ivy
0 -128.3 -64.52 0 -0.484017 -0.875059 0 -62.688807 -4.916016 1 0 1
0 -128.3 -64.52 128 -0.484017 -0.875059 0 -62.688807 -4.082682 1 0 1
0 -134.706811 -60.976233 128 -0.484017 -0.875059 0 -62.736474 -4.082682 1 0 1
wall_subwaywall01_ivy
0 -128.3 -64.52 0 -0.484017 -0.875059 0 -62.688807 -4.916016 1 0 1
0 -134.706811 -60.976233 128 -0.484017 -0.875059 0 -62.736474 -4.082682 1 0 1
0 -134.706811 -60.976233 0 -0.484017 -0.875059 0 -62.736474 -4.916016 1 0 1
wall_subwaywall01_ivy
0 -134.706811 -60.976233 0 -0.896319 -0.443409 0 -23.731472 -4.916016 1 0 1
0 -134.706811 -60.976233 128 -0.896319 -0.443409 0 -23.731472 -4.082682 1 0 1
0 -137.5 -55.33 128 -0.896319 -0.443409 0 -23.772482 -4.082682 1 0 1
wall_subwaywall01_ivy
0 -134.706811 -60.976233 0 -0.896319 -0.443409 0 -23.731472 -4.916016 1 0 1
0 -137.5 -55.33 128 -0.896319 -0.443409 0 -23.772482 -4.082682 1 0 1
0 -137.5 -55.33 0 -0.896319 -0.443409 0 -23.772482 -4.916016 1 0 1
wall_subwaywall01_ivy
0 -128.3 -40.48 0 0 1 0 78.601562 -4.916016 1 0 1
0 -128.3 -40.48 128 0 1 0 78.601562 -4.082682 1 0 1
0 -122.7 -40.48 128 0 1 0 78.565104 -4.082682 1 0 1
wall_subwaywall01_ivy
0 -128.3 -40.48 0 0 1 0 78.601562 -4.916016 1 0 1
0 -122.7 -40.48 128 0 1 0 78.565104 -4.082682 1 0 1
0 -122.7 -40.48 0 0 1 0 78.565104 -4.916016 1 0 1
wall_subwaywall01_ivy
0 -122.7 -64.52 0 0 -1 0 -78.649089 -4.916016 1 0 1
0 -122.7 -64.52 128 0 -1 0 -78.649089 -4.082682 1 0 1
0 -128.3 -64.52 128 0 -1 0 -78.685547 -4.082682 1 0 1
wall_subwaywall01_ivy
0 -122.7 -64.52 0 0 -1 0 -78.649089 -4.916016 1 0 1
0 -128.3 -64.52 128 0 -1 0 -78.685547 -4.082682 1 0 1
0 -128.3 -64.52 0 0 -1 0 -78.685547 -4.916016 1 0 1
wall_subwaywall01_ivy
0 -137.5 -55.33 0 -1 0 0 13.226107 -4.916016 1 0 1
0 -137.5 -55.33 128 -1 0 0 13.226107 -4.082682 1 0 1
0 -137.5 -49.67 128 -1 0 0 13.189258 -4.082682 1 0 1
wall_subwaywall01_ivy
0 -137.5 -55.33 0 -1 0 0 13.226107 -4.916016 1 0 1
0 -137.5 -49.67 128 -1 0 0 13.189258 -4.082682 1 0 1
0 -137.5 -49.67 0 -1 0 0 13.189258 -4.916016 1 0 1
wall_subwaywall01_ivy
0 -113.5 -49.67 0 1 0 0 -12.523242 -4.916016 1 0 1
0 -113.5 -49.67 128 1 0 0 -12.523242 -4.082682 1 0 1
0 -113.5 -55.33 128 1 0 0 -12.560091 -4.082682 1 0 1
wall_subwaywall01_ivy
0 -113.5 -49.67 0 1 0 0 -12.523242 -4.916016 1 0 1
0 -113.5 -55.33 128 1 0 0 -12.560091 -4.082682 1 0 1
0 -113.5 -55.33 0 1 0 0 -12.560091 -4.916016 1 0 1
wood_offdesktop
0 138 17 3 0.351123 0 -0.936329 -179.767383 15.96875 1 0 1
0 130 17 0 0.351123 0 -0.936329 -179.900878 15.96875 1 0 1
0 130 145 0 0.351123 0 -0.936329 -179.900878 14.96875 1 0 1
wood_offdesktop
0 138 17 3 0.351123 0 -0.936329 -179.767383 15.96875 1 0 1
0 130 145 0 0.351123 0 -0.936329 -179.900878 14.96875 1 0 1
0 138 145 3 0.351123 0 -0.936329 -179.767383 14.96875 1 0 1
wood_offdesktop
0 138 145 4 0 1 0 -185.78125 8 1 0 1
0 138 145 3 0 1 0 -185.78125 8.007812 1 0 1
0 130 145 0 0 1 0 -185.90625 8.03125 1 0 1
wood_offdesktop
0 138 145 4 0 1 0 -185.78125 8 1 0 1
0 130 145 0 0 1 0 -185.90625 8.03125 1 0 1
0 114 145 0 0 1 0 -186.15625 8.03125 1 0 1
wood_offdesktop
0 138 145 4 0 1 0 -185.78125 8 1 0 1
0 114 145 0 0 1 0 -186.15625 8.03125 1 0 1
0 114 145 4 0 1 0 -186.15625 8 1 0 1
wood_offdesktop
0 114 17 4 0 -1 0 -186.15625 -7 1 0 1
0 114 17 0 0 -1 0 -186.15625 -7.03125 1 0 1
0 130 17 0 0 -1 0 -185.90625 -7.03125 1 0 1
wood_offdesktop
0 114 17 4 0 -1 0 -186.15625 -7 1 0 1
0 130 17 0 0 -1 0 -185.90625 -7.03125 1 0 1
0 138 17 3 0 -1 0 -185.78125 -7.007812 1 0 1
wood_offdesktop
0 114 17 4 0 -1 0 -186.15625 -7 1 0 1
0 138 17 3 0 -1 0 -185.78125 -7.007812 1 0 1
0 138 17 4 0 -1 0 -185.78125 -7 1 0 1
wood_offdesktop
0 138 17 4 1 0 0 15.21875 -14 1 0 1
0 138 17 3 1 0 0 15.234375 -14 1 0 1
0 138 145 3 1 0 0 15.234375 -13 1 0 1
wood_offdesktop
0 138 17 4 1 0 0 15.21875 -14 1 0 1
0 138 145 3 1 0 0 15.234375 -13 1 0 1
0 138 145 4 1 0 0 15.21875 -13 1 0 1
wood_offdesktop
0 114 145 0 0 0 -1 -186.15625 14.96875 1 0 1
0 130 145 0 0 0 -1 -185.90625 14.96875 1 0 1
0 130 17 0 0 0 -1 -185.90625 15.96875 1 0 1
wood_offdesktop
0 114 145 0 0 0 -1 -186.15625 14.96875 1 0 1
0 130 17 0 0 0 -1 -185.90625 15.96875 1 0 1
0 114 17 0 0 0 -1 -186.15625 15.96875 1 0 1
wood_offdesktop
0 114 17 4 0 0 1 -186.15625 -14 1 0 1
0 138 17 4 0 0 1 -185.78125 -14 1 0 1
0 138 145 4 0 0 1 -185.78125 -13 1 0 1
wood_offdesktop
0 114 17 4 0 0 1 -186.15625 -14 1 0 1
0 138 145 4 0 0 1 -185.78125 -13 1 0 1
0 114 145 4 0 0 1 -186.15625 -13 1 0 1
metal_metalfloor006a
0 104 -157 117 0 1 0 92.984375 -5.375 1 0 1
0 104 -157 21 0 1 0 92.984375 -6.125 1 0 1
0 101 -157 21 0 1 0 93.007812 -6.125 1 0 1
metal_metalfloor006a
0 104 -157 117 0 1 0 92.984375 -5.375 1 0 1
0 101 -157 21 0 1 0 93.007812 -6.125 1 0 1
0 101 -157 117 0 1 0 93.007812 -5.375 1 0 1
metal_metalfloor006a
0 104 -159 19 0 -1 0 92.984375 -6.140625 1 0 1
0 104 -159 119 0 -1 0 92.984375 -5.359375 1 0 1
0 101 -159 119 0 -1 0 93.007812 -5.359375 1 0 1
metal_metalfloor006a
0 104 -159 19 0 -1 0 92.984375 -6.140625 1 0 1
0 101 -159 119 0 -1 0 93.007812 -5.359375 1 0 1
0 101 -159 19 0 -1 0 93.007812 -6.140625 1 0 1
metal_metalfloor006a
0 101 -159 19 -1 0 0 15.851562 -6.140625 1 0 1
0 101 -159 119 -1 0 0 15.851562 -5.359375 1 0 1
0 101 -157 117 -1 0 0 15.835938 -5.375 1 0 1
metal_metalfloor006a
0 101 -159 19 -1 0 0 15.851562 -6.140625 1 0 1
0 101 -157 117 -1 0 0 15.835938 -5.375 1 0 1
0 101 -157 21 -1 0 0 15.835938 -6.125 1 0 1
metal_citadel_metalwall074a
0 114 109 78 0 1 0 -93.101562 8.632812 1 0 1
0 114 109 38 0 1 0 -93.101562 8.945312 1 0 1
0 104 109 38 0 1 0 -93.179688 8.945312 1 0 1
metal_citadel_metalwall074a
0 114 109 78 0 1 0 -93.101562 8.632812 1 0 1
0 104 109 38 0 1 0 -93.179688 8.945312 1 0 1
0 104 109 78 0 1 0 -93.179688 8.632812 1 0 1
metal_citadel_metalwall074a
0 114 107 38 0 -1 0 92.726562 8.945312 1 0 1
0 114 107 78 0 -1 0 92.726562 8.632812 1 0 1
0 104 107 78 0 -1 0 92.804688 8.632812 1 0 1
metal_citadel_metalwall074a
0 114 107 38 0 -1 0 92.726562 8.945312 1 0 1
0 104 107 78 0 -1 0 92.804688 8.632812 1 0 1
0 104 107 38 0 -1 0 92.804688 8.945312 1 0 1
metal_citadel_metalwall074a
0 104 107 38 -1 0 0 -14.195312 8.945312 1 0 1
0 104 107 78 -1 0 0 -14.195312 8.632812 1 0 1
0 104 109 78 -1 0 0 -14.179688 8.632812 1 0 1
metal_citadel_metalwall074a
0 104 107 38 -1 0 0 -14.195312 8.945312 1 0 1
0 104 109 78 -1 0 0 -14.179688 8.632812 1 0 1
0 104 109 38 -1 0 0 -14.179688 8.945312 1 0 1
metal_citadel_metalwall074a
0 114 107 78 1 0 0 -14.195312 8.632812 1 0 1
0 114 107 38 1 0 0 -14.195312 8.945312 1 0 1
0 114 109 38 1 0 0 -14.179688 8.945312 1 0 1
metal_citadel_metalwall074a
0 114 107 78 1 0 0 -14.195312 8.632812 1 0 1
0 114 109 38 1 0 0 -14.179688 8.945312 1 0 1
0 114 109 78 1 0 0 -14.179688 8.632812 1 0 1
bridge_se1_metal_flat_steel_01
0 114 107 38 0 0 -1 -13.679688 -92.429688 1 0 1
0 104 107 38 0 0 -1 -13.679688 -92.507812 1 0 1
0 104 109 38 0 0 -1 -13.664062 -92.507812 1 0 1
bridge_se1_metal_flat_steel_01
0 114 107 38 0 0 -1 -13.679688 -92.429688 1 0 1
0 104 109 38 0 0 -1 -13.664062 -92.507812 1 0 1
0 114 109 38 0 0 -1 -13.664062 -92.429688 1 0 1
bridge_se1_metal_flat_steel_01
0 104 107 78 0 0 1 13.679688 -92.507812 1 0 1
0 114 107 78 0 0 1 13.679688 -92.429688 1 0 1
0 114 109 78 0 0 1 13.664062 -92.429688 1 0 1
bridge_se1_metal_flat_steel_01
0 104 107 78 0 0 1 13.679688 -92.507812 1 0 1
0 114 109 78 0 0 1 13.664062 -92.429688 1 0 1
0 104 109 78 0 0 1 13.664062 -92.507812 1 0 1
metal_citadel_metalwall074a
0 114 19 36 0 0 -1 -14.882812 -91.960938 1 0 1
0 104 19 36 0 0 -1 -14.882812 -92.039062 1 0 1
0 104 143 36 0 0 -1 -13.914062 -92.039062 1 0 1
metal_citadel_metalwall074a
0 114 19 36 0 0 -1 -14.882812 -91.960938 1 0 1
0 104 143 36 0 0 -1 -13.914062 -92.039062 1 0 1
0 114 143 36 0 0 -1 -13.914062 -91.960938 1 0 1
metal_citadel_metalwall074a
0 104 19 38 0 0 1 -14.882812 93.945312 1 0 1
0 114 19 38 0 0 1 -14.882812 93.867188 1 0 1
0 114 143 38 0 0 1 -13.914062 93.867188 1 0 1
metal_citadel_metalwall074a
0 104 19 38 0 0 1 -14.882812 93.945312 1 0 1
0 114 143 38 0 0 1 -13.914062 93.867188 1 0 1
0 104 143 38 0 0 1 -13.914062 93.945312 1 0 1
bridge_se1_metal_flat_steel_01
0 114 143 36 0 1 0 -7.34375 -91.683594 1 0 1
0 104 143 36 0 1 0 -7.34375 -91.761719 1 0 1
0 104 143 38 0 1 0 -7.328125 -91.761719 1 0 1
bridge_se1_metal_flat_steel_01
0 114 143 36 0 1 0 -7.34375 -91.683594 1 0 1
0 104 143 38 0 1 0 -7.328125 -91.761719 1 0 1
0 114 143 38 0 1 0 -7.328125 -91.683594 1 0 1
bridge_se1_metal_flat_steel_01
0 114 19 38 0 -1 0 -7.328125 -91.683594 1 0 1
0 104 19 38 0 -1 0 -7.328125 -91.761719 1 0 1
0 104 19 36 0 -1 0 -7.34375 -91.761719 1 0 1
bridge_se1_metal_flat_steel_01
0 114 19 38 0 -1 0 -7.328125 -91.683594 1 0 1
0 104 19 36 0 -1 0 -7.34375 -91.761719 1 0 1
0 114 19 36 0 -1 0 -7.34375 -91.683594 1 0 1
metal_citadel_metalwall074a
0 104 19 38 -1 0 0 -14.882812 8.945312 1 0 1
0 104 143 38 -1 0 0 -13.914062 8.945312 1 0 1
0 104 143 36 -1 0 0 -13.914062 8.960938 1 0 1
metal_citadel_metalwall074a
0 104 19 38 -1 0 0 -14.882812 8.945312 1 0 1
0 104 143 36 -1 0 0 -13.914062 8.960938 1 0 1
0 104 19 36 -1 0 0 -14.882812 8.960938 1 0 1
metal_citadel_metalwall074a
0 114 19 36 1 0 0 -14.882812 8.960938 1 0 1
0 114 143 36 1 0 0 -13.914062 8.960938 1 0 1
0 114 143 38 1 0 0 -13.914062 8.945312 1 0 1
metal_citadel_metalwall074a
0 114 19 36 1 0 0 -14.882812 8.960938 1 0 1
0 114 143 38 1 0 0 -13.914062 8.945312 1 0 1
0 114 19 38 1 0 0 -14.882812 8.945312 1 0 1
wall_subwaywall01_ivy
0 -115 154 0 0.706221 0.707991 0 47.439039 -4.916016 1 0 1
0 -119 157.99 0 0.706221 0.707991 0 47.475821 -4.916016 1 0 1
0 -119 157.99 128 0.706221 0.707991 0 47.475821 -4.082682 1 0 1
wall_subwaywall01_ivy
0 -115 154 0 0.706221 0.707991 0 47.439039 -4.916016 1 0 1
0 -119 157.99 128 0.706221 0.707991 0 47.475821 -4.082682 1 0 1
0 -115 154 128 0.706221 0.707991 0 47.439039 -4.082682 1 0 1
wall_subwaywall01_ivy
0 -119 157.99 0 0.274721 0.961524 0 78.476562 -4.916016 1 0 1
0 -126 159.99 0 0.274721 0.961524 0 78.522135 -4.916016 1 0 1
0 -126 159.99 128 0.274721 0.961524 0 78.522135 -4.082682 1 0 1
wall_subwaywall01_ivy
0 -119 157.99 0 0.274721 0.961524 0 78.476562 -4.916016 1 0 1
0 -126 159.99 128 0.274721 0.961524 0 78.522135 -4.082682 1 0 1
0 -119 157.99 128 0.274721 0.961524 0 78.476563 -4.082682 1 0 1
wall_subwaywall01_ivy
0 -126 159.99 0 -0.314804 0.949157 0 78.523451 -4.916016 1 0 1
0 -132 158 0 -0.314804 0.949157 0 78.564606 -4.916016 1 0 1
0 -132 158 128 -0.314804 0.949157 0 78.564606 -4.082682 1 0 1
wall_subwaywall01_ivy
0 -126 159.99 0 -0.314804 0.949157 0 78.523451 -4.916016 1 0 1
0 -132 158 128 -0.314804 0.949157 0 78.564606 -4.082682 1 0 1
0 -126 159.99 128 -0.314804 0.949157 0 78.523451 -4.082682 1 0 1
wall_subwaywall01_ivy
0 -136 154 128 -0.707107 0.707107 0 63.599494 -4.082682 1 0 1
0 -132 158 128 -0.707107 0.707107 0 63.562666 -4.082682 1 0 1
0 -132 158 0 -0.707107 0.707107 0 63.562666 -4.916016 1 0 1
wall_subwaywall01_ivy
0 -136 154 128 -0.707107 0.707107 0 63.599494 -4.082682 1 0 1
0 -132 158 0 -0.707107 0.707107 0 63.562666 -4.916016 1 0 1
0 -136 154 0 -0.707107 0.707107 0 63.599494 -4.916016 1 0 1
wall_subwaywall01_ivy
0 -138 148 128 -0.948683 0.316228 0 35.640594 -4.082682 1 0 1
0 -136 154 128 -0.948683 0.316228 0 35.599418 -4.082682 1 0 1
0 -136 154 0 -0.948683 0.316228 0 35.599418 -4.916016 1 0 1
wall_subwaywall01_ivy
0 -138 148 128 -0.948683 0.316228 0 35.640594 -4.082682 1 0 1
0 -136 154 0 -0.948683 0.316228 0 35.599418 -4.916016 1 0 1
0 -138 148 0 -0.948683 0.316228 0 35.640594 -4.916016 1 0 1
wall_subwaywall01_ivy
0 -136 141 128 -0.961524 -0.274721 0 -10.809354 -4.082682 1 0 1
0 -138 148 128 -0.961524 -0.274721 0 -10.856749 -4.082682 1 0 1
0 -138 148 0 -0.961524 -0.274721 0 -10.856749 -4.916016 1 0 1
wall_subwaywall01_ivy
0 -136 141 128 -0.961524 -0.274721 0 -10.809354 -4.082682 1 0 1
0 -138 148 0 -0.961524 -0.274721 0 -10.856749 -4.916016 1 0 1
0 -136 141 0 -0.961524 -0.274721 0 -10.809354 -4.916016 1 0 1
wall_subwaywall01_ivy
0 -132 137 128 -0.707107 -0.707107 0 -47.773023 -4.082682 1 0 1
0 -136 141 128 -0.707107 -0.707107 0 -47.809852 -4.082682 1 0 1
0 -136 141 0 -0.707107 -0.707107 0 -47.809852 -4.916016 1 0 1
wall_subwaywall01_ivy
0 -132 137 128 -0.707107 -0.707107 0 -47.773023 -4.082682 1 0 1
0 -136 141 0 -0.707107 -0.707107 0 -47.809852 -4.916016 1 0 1
0 -132 137 0 -0.707107 -0.707107 0 -47.773023 -4.916016 1 0 1
wall_subwaywall01_ivy
0 -126 135 128 -0.316228 -0.948683 0 -71.734887 -4.082682 1 0 1
0 -132 137 128 -0.316228 -0.948683 0 -71.776063 -4.082682 1 0 1
0 -132 137 0 -0.316228 -0.948683 0 -71.776063 -4.916016 1 0 1
wall_subwaywall01_ivy
0 -126 135 128 -0.316228 -0.948683 0 -71.734887 -4.082682 1 0 1
0 -132 137 0 -0.316228 -0.948683 0 -71.776063 -4.916016 1 0 1
0 -126 135 0 -0.316228 -0.948683 0 -71.734887 -4.916016 1 0 1
wall_subwaywall01_ivy
0 -115 141 0 0.961524 -0.274721 0 -31.646739 -4.916016 1 0 1
0 -113 148 0 0.961524 -0.274721 0 -31.599344 -4.916016 1 0 1
0 -113 148 128 0.961524 -0.274721 0 -31.599344 -4.082682 1 0 1
wall_subwaywall01_ivy
0 -115 141 0 0.961524 -0.274721 0 -31.646739 -4.916016 1 0 1
0 -113 148 128 0.961524 -0.274721 0 -31.599344 -4.082682 1 0 1
0 -115 141 128 0.961524 -0.274721 0 -31.646739 -4.082682 1 0 1
wall_subwaywall01_ivy
0 -113 148 0 0.948683 0.316228 0 14.397371 -4.916016 1 0 1
0 -115 154 0 0.948683 0.316228 0 14.438547 -4.916016 1 0 1
0 -115 154 128 0.948683 0.316228 0 14.438547 -4.082682 1 0 1
wall_subwaywall01_ivy
0 -113 148 0 0.948683 0.316228 0 14.397371 -4.916016 1 0 1
0 -115 154 128 0.948683 0.316228 0 14.438547 -4.082682 1 0 1
0 -113 148 128 0.948683 0.316228 0 14.397371 -4.082682 1 0 1
wall_subwaywall01_ivy
0 -119 137 128 0.274721 -0.961524 0 -78.682075 -4.082682 1 0 1
0 -126 135 128 0.274721 -0.961524 0 -78.72947 -4.082682 1 0 1
0 -126 135 0 0.274721 -0.961524 0 -78.72947 -4.916016 1 0 1
wall_subwaywall01_ivy
0 -119 137 128 0.274721 -0.961524 0 -78.682075 -4.082682 1 0 1
0 -126 135 0 0.274721 -0.961524 0 -78.72947 -4.916016 1 0 1
0 -119 137 0 0.274721 -0.961524 0 -78.682075 -4.916016 1 0 1
wall_subwaywall01_ivy
0 -119 137 0 0.707107 -0.707107 0 -63.683479 -4.916016 1 0 1
0 -115 141 0 0.707107 -0.707107 0 -63.64665 -4.916016 1 0 1
0 -115 141 128 0.707107 -0.707107 0 -63.64665 -4.082682 1 0 1
wall_subwaywall01_ivy
0 -119 137 0 0.707107 -0.707107 0 -63.683479 -4.916016 1 0 1
0 -115 141 128 0.707107 -0.707107 0 -63.64665 -4.082682 1 0 1
0 -119 137 128 0.707107 -0.707107 0 -63.683479 -4.082682 1 0 1
metal_citadel_metalwall074a
0 114 107 4 0 -1 0 92.726562 9.210938 1 0 1
0 114 107 36 0 -1 0 92.726562 8.960938 1 0 1
0 104 107 36 0 -1 0 92.804688 8.960938 1 0 1
metal_citadel_metalwall074a
0 114 107 4 0 -1 0 92.726562 9.210938 1 0 1
0 104 107 36 0 -1 0 92.804688 8.960938 1 0 1
0 104 107 4 0 -1 0 92.804688 9.210937 1 0 1
metal_citadel_metalwall074a
0 104 107 4 -1 0 0 -14.195312 9.210938 1 0 1
0 104 107 36 -1 0 0 -14.195312 8.960938 1 0 1
0 104 109 36 -1 0 0 -14.179688 8.960938 1 0 1
metal_citadel_metalwall074a
0 104 107 4 -1 0 0 -14.195312 9.210938 1 0 1
0 104 109 36 -1 0 0 -14.179688 8.960938 1 0 1
0 104 109 6 -1 0 0 -14.179688 9.195312 1 0 1
metal_citadel_metalwall074a
0 114 107 36 1 0 0 -14.195312 8.960938 1 0 1
0 114 107 4 1 0 0 -14.195312 9.210937 1 0 1
0 114 109 6 1 0 0 -14.179688 9.195312 1 0 1
metal_citadel_metalwall074a
0 114 107 36 1 0 0 -14.195312 8.960938 1 0 1
0 114 109 6 1 0 0 -14.179688 9.195312 1 0 1
0 114 109 36 1 0 0 -14.179688 8.960938 1 0 1
bridge_se1_metal_flat_steel_01
0 104 107 36 0 0 1 13.679688 -92.507812 1 0 1
0 114 107 36 0 0 1 13.679688 -92.429688 1 0 1
0 114 109 36 0 0 1 13.664062 -92.429688 1 0 1
bridge_se1_metal_flat_steel_01
0 104 107 36 0 0 1 13.679688 -92.507812 1 0 1
0 114 109 36 0 0 1 13.664062 -92.429688 1 0 1
0 104 109 36 0 0 1 13.664062 -92.507812 1 0 1
bridge_se1_metal_flat_steel_01
0 114 107 4 0 0.707107 -0.707107 -7.59375 -91.683594 1 0 1
0 104 107 4 0 0.707107 -0.707107 -7.59375 -91.761719 1 0 1
0 104 109 6 0 0.707107 -0.707107 -7.578125 -91.761719 1 0 1
bridge_se1_metal_flat_steel_01
0 114 107 4 0 0.707107 -0.707107 -7.59375 -91.683594 1 0 1
0 104 109 6 0 0.707107 -0.707107 -7.578125 -91.761719 1 0 1
0 114 109 6 0 0.707107 -0.707107 -7.578125 -91.683594 1 0 1
metal_citadel_metalwall074a
0 114 109 36 0 1 0 -93.101562 8.960938 1 0 1
0 114 109 6 0 1 0 -93.101562 9.195312 1 0 1
0 104 109 6 0 1 0 -93.179688 9.195312 1 0 1
metal_citadel_metalwall074a
0 114 109 36 0 1 0 -93.101562 8.960938 1 0 1
0 104 109 6 0 1 0 -93.179688 9.195312 1 0 1
0 104 109 36 0 1 0 -93.179688 8.960938 1 0 1
metal_citadel_metalwall074a
0 104 109 6 -1 0 0 -14.179688 9.195312 1 0 1
0 104 143 6 -1 0 0 -13.914062 9.195312 1 0 1
0 104 145 4 -1 0 0 -13.898438 9.210938 1 0 1
metal_citadel_metalwall074a
0 104 109 6 -1 0 0 -14.179688 9.195312 1 0 1
0 104 145 4 -1 0 0 -13.898438 9.210938 1 0 1
0 104 107 4 -1 0 0 -14.195312 9.210938 1 0 1
metal_citadel_metalwall074a
0 114 107 4 1 0 0 -14.195312 9.210938 1 0 1
0 114 145 4 1 0 0 -13.898438 9.210938 1 0 1
0 114 143 6 1 0 0 -13.914062 9.195312 1 0 1
metal_citadel_metalwall074a
0 114 107 4 1 0 0 -14.195312 9.210938 1 0 1
0 114 143 6 1 0 0 -13.914062 9.195312 1 0 1
0 114 109 6 1 0 0 -14.179687 9.195312 1 0 1
metal_citadel_metalwall074a
0 114 109 6 0 0 1 -14.179688 94.117188 1 0 1
0 114 143 6 0 0 1 -13.914062 94.117188 1 0 1
0 104 143 6 0 0 1 -13.914062 94.195312 1 0 1
metal_citadel_metalwall074a
0 114 109 6 0 0 1 -14.179688 94.117188 1 0 1
0 104 143 6 0 0 1 -13.914062 94.195312 1 0 1
0 104 109 6 0 0 1 -14.179688 94.195312 1 0 1
bridge_se1_metal_flat_steel_01
0 114 107 4 0 -0.707107 0.707107 -7.59375 -91.683594 1 0 1
0 114 109 6 0 -0.707107 0.707107 -7.578125 -91.683594 1 0 1
0 104 109 6 0 -0.707107 0.707107 -7.578125 -91.761719 1 0 1
bridge_se1_metal_flat_steel_01
0 114 107 4 0 -0.707107 0.707107 -7.59375 -91.683594 1 0 1
0 104 109 6 0 -0.707107 0.707107 -7.578125 -91.761719 1 0 1
0 104 107 4 0 -0.707107 0.707107 -7.59375 -91.761719 1 0 1
bridge_se1_metal_flat_steel_01
0 114 143 6 0 0.707107 0.707107 -7.578125 -91.683594 1 0 1
0 114 145 4 0 0.707107 0.707107 -7.59375 -91.683594 1 0 1
0 104 145 4 0 0.707107 0.707107 -7.59375 -91.761719 1 0 1
bridge_se1_metal_flat_steel_01
0 114 143 6 0 0.707107 0.707107 -7.578125 -91.683594 1 0 1
0 104 145 4 0 0.707107 0.707107 -7.59375 -91.761719 1 0 1
0 104 143 6 0 0.707107 0.707107 -7.578125 -91.761719 1 0 1
metal_citadel_metalwall074a
0 104 17 4 -1 0 0 -14.898438 9.210938 1 0 1
0 104 17 79.999 -1 0 0 -14.898438 8.617195 1 0 1
0 104 19 77.999 -1 0 0 -14.882812 8.63282 1 0 1
metal_citadel_metalwall074a
0 104 17 4 -1 0 0 -14.898438 9.210938 1 0 1
0 104 19 77.999 -1 0 0 -14.882812 8.63282 1 0 1
0 104 19 6 -1 0 0 -14.882812 9.195312 1 0 1
metal_citadel_metalwall074a
0 114 17 79.999 1 0 0 -14.898438 8.617195 1 0 1
0 114 17 4 1 0 0 -14.898438 9.210937 1 0 1
0 114 19 6 1 0 0 -14.882812 9.195312 1 0 1
metal_citadel_metalwall074a
0 114 17 79.999 1 0 0 -14.898438 8.617195 1 0 1
0 114 19 6 1 0 0 -14.882812 9.195312 1 0 1
0 114 19 77.999 1 0 0 -14.882812 8.63282 1 0 1
bridge_se1_metal_flat_steel_01
0 104 17 79.999 0 0.707107 0.707107 -7.000008 -91.761719 1 0 1
0 114 17 79.999 0 0.707107 0.707107 -7.000008 -91.683594 1 0 1
0 114 19 77.999 0 0.707107 0.707107 -7.015633 -91.683594 1 0 1
bridge_se1_metal_flat_steel_01
0 104 17 79.999 0 0.707107 0.707107 -7.000008 -91.761719 1 0 1
0 114 19 77.999 0 0.707107 0.707107 -7.015633 -91.683594 1 0 1
0 104 19 77.999 0 0.707107 0.707107 -7.015633 -91.761719 1 0 1
bridge_se1_metal_flat_steel_01
0 114 17 4 0 0.707107 -0.707107 -7.59375 -91.683594 1 0 1
0 104 17 4 0 0.707107 -0.707107 -7.59375 -91.761719 1 0 1
0 104 19 6 0 0.707107 -0.707107 -7.578125 -91.761719 1 0 1
bridge_se1_metal_flat_steel_01
0 114 17 4 0 0.707107 -0.707107 -7.59375 -91.683594 1 0 1
0 104 19 6 0 0.707107 -0.707107 -7.578125 -91.761719 1 0 1
0 114 19 6 0 0.707107 -0.707107 -7.578125 -91.683594 1 0 1
metal_citadel_metalwall074a
0 114 19 77.999 0 1 0 -92.804688 8.63282 1 0 1
0 114 19 6 0 1 0 -92.804688 9.195312 1 0 1
0 104 19 6 0 1 0 -92.882812 9.195312 1 0 1
metal_citadel_metalwall074a
0 114 19 77.999 0 1 0 -92.804688 8.63282 1 0 1
0 104 19 6 0 1 0 -92.882812 9.195312 1 0 1
0 104 19 77.999 0 1 0 -92.882812 8.63282 1 0 1
metal_citadel_metalwall074a
0 114 143 6 0 -1 0 93.007812 9.195312 1 0 1
0 114 143 78 0 -1 0 93.007812 8.632812 1 0 1
0 104 143 78 0 -1 0 93.085938 8.632812 1 0 1
metal_citadel_metalwall074a
0 114 143 6 0 -1 0 93.007812 9.195312 1 0 1
0 104 143 78 0 -1 0 93.085938 8.632812 1 0 1
0 104 143 6 0 -1 0 93.085938 9.195312 1 0 1
metal_citadel_metalwall074a
0 104 145 4 -1 0 0 -13.898438 9.210938 1 0 1
0 104 143 6 -1 0 0 -13.914062 9.195312 1 0 1
0 104 143 78 -1 0 0 -13.914062 8.632812 1 0 1
metal_citadel_metalwall074a
0 104 145 4 -1 0 0 -13.898438 9.210938 1 0 1
0 104 143 78 -1 0 0 -13.914062 8.632812 1 0 1
0 104 145 80 -1 0 0 -13.898438 8.617188 1 0 1
metal_citadel_metalwall074a
0 114 145 80 1 0 0 -13.898438 8.617187 1 0 1
0 114 143 78 1 0 0 -13.914062 8.632812 1 0 1
0 114 143 6 1 0 0 -13.914062 9.195313 1 0 1
metal_citadel_metalwall074a
0 114 145 80 1 0 0 -13.898438 8.617187 1 0 1
0 114 143 6 1 0 0 -13.914062 9.195313 1 0 1
0 114 145 4 1 0 0 -13.898438 9.210938 1 0 1
bridge_se1_metal_flat_steel_01
0 104 143 78 0 -0.707107 0.707107 -7.015625 -91.761719 1 0 1
0 114 143 78 0 -0.707107 0.707107 -7.015625 -91.683594 1 0 1
0 114 145 80 0 -0.707107 0.707107 -7 -91.683594 1 0 1
bridge_se1_metal_flat_steel_01
0 104 143 78 0 -0.707107 0.707107 -7.015625 -91.761719 1 0 1
0 114 145 80 0 -0.707107 0.707107 -7 -91.683594 1 0 1
0 104 145 80 0 -0.707107 0.707107 -7 -91.761719 1 0 1
bridge_se1_metal_flat_steel_01
0 114 143 6 0 -0.707107 -0.707107 -7.578125 -91.683594 1 0 1
0 104 143 6 0 -0.707107 -0.707107 -7.578125 -91.761719 1 0 1
0 104 145 4 0 -0.707107 -0.707107 -7.59375 -91.761719 1 0 1
bridge_se1_metal_flat_steel_01
0 114 143 6 0 -0.707107 -0.707107 -7.578125 -91.683594 1 0 1
0 104 145 4 0 -0.707107 -0.707107 -7.59375 -91.761719 1 0 1
0 114 145 4 0 -0.707107 -0.707107 -7.59375 -91.683594 1 0 1
metal_citadel_metalwall074a
0 114 55 36 0 1 0 -92.523438 8.960938 1 0 1
0 114 55 4 0 1 0 -92.523438 9.210937 1 0 1
0 104 55 4 0 1 0 -92.601562 9.210938 1 0 1
metal_citadel_metalwall074a
0 114 55 36 0 1 0 -92.523438 8.960938 1 0 1
0 104 55 4 0 1 0 -92.601562 9.210938 1 0 1
0 104 55 36 0 1 0 -92.601562 8.960938 1 0 1
metal_citadel_metalwall074a
0 114 53 6 0 -1 0 93.304688 9.195312 1 0 1
0 114 53 36 0 -1 0 93.304688 8.960938 1 0 1
0 104 53 36 0 -1 0 93.382812 8.960938 1 0 1
metal_citadel_metalwall074a
0 114 53 6 0 -1 0 93.304688 9.195312 1 0 1
0 104 53 36 0 -1 0 93.382812 8.960938 1 0 1
0 104 53 6 0 -1 0 93.382812 9.195312 1 0 1
metal_citadel_metalwall074a
0 104 53 6 -1 0 0 -14.617188 9.195312 1 0 1
0 104 53 36 -1 0 0 -14.617188 8.960938 1 0 1
0 104 55 36 -1 0 0 -14.601562 8.960938 1 0 1
metal_citadel_metalwall074a
0 104 53 6 -1 0 0 -14.617188 9.195312 1 0 1
0 104 55 36 -1 0 0 -14.601562 8.960938 1 0 1
0 104 55 4 -1 0 0 -14.601562 9.210937 1 0 1
metal_citadel_metalwall074a
0 114 53 36 1 0 0 -14.617188 8.960938 1 0 1
0 114 53 6 1 0 0 -14.617188 9.195312 1 0 1
0 114 55 4 1 0 0 -14.601562 9.210938 1 0 1
metal_citadel_metalwall074a
0 114 53 36 1 0 0 -14.617188 8.960938 1 0 1
0 114 55 4 1 0 0 -14.601562 9.210938 1 0 1
0 114 55 36 1 0 0 -14.601562 8.960938 1 0 1
bridge_se1_metal_flat_steel_01
0 104 53 36 0 0 1 14.101562 -92.507812 1 0 1
0 114 53 36 0 0 1 14.101562 -92.429688 1 0 1
0 114 55 36 0 0 1 14.085938 -92.429688 1 0 1
bridge_se1_metal_flat_steel_01
0 104 53 36 0 0 1 14.101562 -92.507812 1 0 1
0 114 55 36 0 0 1 14.085938 -92.429688 1 0 1
0 104 55 36 0 0 1 14.085938 -92.507812 1 0 1
bridge_se1_metal_flat_steel_01
0 114 53 6 0 -0.707107 -0.707107 -7.578125 -91.683594 1 0 1
0 104 53 6 0 -0.707107 -0.707107 -7.578125 -91.761719 1 0 1
0 104 55 4 0 -0.707107 -0.707107 -7.59375 -91.761719 1 0 1
bridge_se1_metal_flat_steel_01
0 114 53 6 0 -0.707107 -0.707107 -7.578125 -91.683594 1 0 1
0 104 55 4 0 -0.707107 -0.707107 -7.59375 -91.761719 1 0 1
0 114 55 4 0 -0.707107 -0.707107 -7.59375 -91.683594 1 0 1
metal_citadel_metalwall074a
0 114 55 78 0 1 0 -92.523438 8.632812 1 0 1
0 114 55 38 0 1 0 -92.523438 8.945312 1 0 1
0 104 55 38 0 1 0 -92.601562 8.945312 1 0 1
metal_citadel_metalwall074a
0 114 55 78 0 1 0 -92.523438 8.632812 1 0 1
0 104 55 38 0 1 0 -92.601562 8.945312 1 0 1
0 104 55 78 0 1 0 -92.601562 8.632812 1 0 1
metal_citadel_metalwall074a
0 114 53 38 0 -1 0 93.304688 8.945312 1 0 1
0 114 53 78 0 -1 0 93.304688 8.632812 1 0 1
0 104 53 78 0 -1 0 93.382812 8.632812 1 0 1
metal_citadel_metalwall074a
0 114 53 38 0 -1 0 93.304688 8.945312 1 0 1
0 104 53 78 0 -1 0 93.382812 8.632812 1 0 1
0 104 53 38 0 -1 0 93.382812 8.945312 1 0 1
metal_citadel_metalwall074a
0 104 53 38 -1 0 0 -14.617188 8.945312 1 0 1
0 104 53 78 -1 0 0 -14.617188 8.632812 1 0 1
0 104 55 78 -1 0 0 -14.601562 8.632812 1 0 1
metal_citadel_metalwall074a
0 104 53 38 -1 0 0 -14.617188 8.945312 1 0 1
0 104 55 78 -1 0 0 -14.601562 8.632812 1 0 1
0 104 55 38 -1 0 0 -14.601562 8.945312 1 0 1
metal_citadel_metalwall074a
0 114 53 78 1 0 0 -14.617188 8.632812 1 0 1
0 114 53 38 1 0 0 -14.617188 8.945312 1 0 1
0 114 55 38 1 0 0 -14.601562 8.945312 1 0 1
metal_citadel_metalwall074a
0 114 53 78 1 0 0 -14.617188 8.632812 1 0 1
0 114 55 38 1 0 0 -14.601562 8.945312 1 0 1
0 114 55 78 1 0 0 -14.601562 8.632812 1 0 1
bridge_se1_metal_flat_steel_01
0 114 53 38 0 0 -1 -14.101562 -92.429688 1 0 1
0 104 53 38 0 0 -1 -14.101562 -92.507812 1 0 1
0 104 55 38 0 0 -1 -14.085938 -92.507812 1 0 1
bridge_se1_metal_flat_steel_01
0 114 53 38 0 0 -1 -14.101562 -92.429688 1 0 1
0 104 55 38 0 0 -1 -14.085938 -92.507812 1 0 1
0 114 55 38 0 0 -1 -14.085938 -92.429688 1 0 1
bridge_se1_metal_flat_steel_01
0 104 53 78 0 0 1 14.101562 -92.507812 1 0 1
0 114 53 78 0 0 1 14.101562 -92.429688 1 0 1
0 114 55 78 0 0 1 14.085938 -92.429688 1 0 1
bridge_se1_metal_flat_steel_01
0 104 53 78 0 0 1 14.101562 -92.507812 1 0 1
0 114 55 78 0 0 1 14.085938 -92.429688 1 0 1
0 104 55 78 0 0 1 14.085938 -92.507812 1 0 1
glass_unbreakable
0 110 109 6 1 0 0 46.082031 -25.25 1 0 1
0 110 143 6 1 0 0 45.196615 -25.25 1 0 1
0 110 143 78 1 0 0 45.196615 -23.375 1 0 1
glass_unbreakable
0 110 109 6 1 0 0 46.082031 -25.25 1 0 1
0 110 143 78 1 0 0 45.196615 -23.375 1 0 1
0 110 109 78 1 0 0 46.082031 -23.375 1 0 1
glass_unbreakable
0 109 109 78 -1 0 0 46.082031 -23.375 1 0 1
0 109 143 78 -1 0 0 45.196615 -23.375 1 0 1
0 109 143 6 -1 0 0 45.196615 -25.25 1 0 1
glass_unbreakable
0 109 109 78 -1 0 0 46.082031 -23.375 1 0 1
0 109 143 6 -1 0 0 45.196615 -25.25 1 0 1
0 109 109 6 -1 0 0 46.082031 -25.25 1 0 1
metal_citadel_metalwall074a
0 104 19 6 -1 0 0 -14.882812 9.195312 1 0 1
0 104 53 6 -1 0 0 -14.617188 9.195312 1 0 1
0 104 55 4 -1 0 0 -14.601563 9.210938 1 0 1
metal_citadel_metalwall074a
0 104 19 6 -1 0 0 -14.882812 9.195312 1 0 1
0 104 55 4 -1 0 0 -14.601563 9.210938 1 0 1
0 104 17 4 -1 0 0 -14.898438 9.210938 1 0 1
metal_citadel_metalwall074a
0 114 17 4 1 0 0 -14.898438 9.210938 1 0 1
0 114 55 4 1 0 0 -14.601562 9.210938 1 0 1
0 114 53 6 1 0 0 -14.617187 9.195312 1 0 1
metal_citadel_metalwall074a
0 114 17 4 1 0 0 -14.898438 9.210938 1 0 1
0 114 53 6 1 0 0 -14.617187 9.195312 1 0 1
0 114 19 6 1 0 0 -14.882813 9.195312 1 0 1
metal_citadel_metalwall074a
0 114 19 6 0 0 1 -14.882812 94.117188 1 0 1
0 114 53 6 0 0 1 -14.617188 94.117188 1 0 1
0 104 53 6 0 0 1 -14.617188 94.195312 1 0 1
metal_citadel_metalwall074a
0 114 19 6 0 0 1 -14.882812 94.117188 1 0 1
0 104 53 6 0 0 1 -14.617188 94.195312 1 0 1
0 104 19 6 0 0 1 -14.882812 94.195312 1 0 1
bridge_se1_metal_flat_steel_01
0 114 53 6 0 0.707107 0.707107 -7.578125 -91.683594 1 0 1
0 114 55 4 0 0.707107 0.707107 -7.59375 -91.683594 1 0 1
0 104 55 4 0 0.707107 0.707107 -7.59375 -91.761719 1 0 1
bridge_se1_metal_flat_steel_01
0 114 53 6 0 0.707107 0.707107 -7.578125 -91.683594 1 0 1
0 104 55 4 0 0.707107 0.707107 -7.59375 -91.761719 1 0 1
0 104 53 6 0 0.707107 0.707107 -7.578125 -91.761719 1 0 1
bridge_se1_metal_flat_steel_01
0 114 17 4 0 -0.707107 0.707107 -7.59375 -91.683594 1 0 1
0 114 19 6 0 -0.707107 0.707107 -7.578125 -91.683594 1 0 1
0 104 19 6 0 -0.707107 0.707107 -7.578125 -91.761719 1 0 1
bridge_se1_metal_flat_steel_01
0 114 17 4 0 -0.707107 0.707107 -7.59375 -91.683594 1 0 1
0 104 19 6 0 -0.707107 0.707107 -7.578125 -91.761719 1 0 1
0 104 17 4 0 -0.707107 0.707107 -7.59375 -91.761719 1 0 1
glass_unbreakable
0 109 55 38 -1 0 0 47.488281 -24.416667 1 0 1
0 109 55 78 -1 0 0 47.488281 -23.375 1 0 1
0 109 107 78 -1 0 0 46.134115 -23.375 1 0 1
glass_unbreakable
0 109 55 38 -1 0 0 47.488281 -24.416667 1 0 1
0 109 107 78 -1 0 0 46.134115 -23.375 1 0 1
0 109 107 38 -1 0 0 46.134115 -24.416667 1 0 1
glass_unbreakable
0 110 55 78 1 0 0 47.488281 -23.375 1 0 1
0 110 55 38 1 0 0 47.488281 -24.416667 1 0 1
0 110 107 38 1 0 0 46.134115 -24.416667 1 0 1
glass_unbreakable
0 110 55 78 1 0 0 47.488281 -23.375 1 0 1
0 110 107 38 1 0 0 46.134115 -24.416667 1 0 1
0 110 107 78 1 0 0 46.134115 -23.375 1 0 1
props_sign_trainschedule01a
0 103 -157 21 -1 0 0 20.999349 -9 1 0 1
0 103 -157 117 -1 0 0 20.999349 -8 1 0 1
0 103 -61 117 -1 0 0 19.999349 -8 1 0 1
props_sign_trainschedule01a
0 103 -157 21 -1 0 0 20.999349 -9 1 0 1
0 103 -61 117 -1 0 0 19.999349 -8 1 0 1
0 103 -61 21 -1 0 0 19.999349 -9 1 0 1
metal_metalfloor006a
0 101 -159 119 -1 0 0 15.851562 7.359375 1 0 1
0 101 -59 119 -1 0 0 15.070313 7.359375 1 0 1
0 101 -61 117 -1 0 0 15.085938 7.375 1 0 1
metal_metalfloor006a
0 101 -159 119 -1 0 0 15.851562 7.359375 1 0 1
0 101 -61 117 -1 0 0 15.085938 7.375 1 0 1
0 101 -157 117 -1 0 0 15.835938 7.375 1 0 1
metal_metalfloor006a
0 101 -157 117 0 0 -1 -93.023438 16.835938 1 0 1
0 101 -61 117 0 0 -1 -93.023438 16.085938 1 0 1
0 104 -61 117 0 0 -1 -93 16.085938 1 0 1
metal_metalfloor006a
0 101 -157 117 0 0 -1 -93.023438 16.835938 1 0 1
0 104 -61 117 0 0 -1 -93 16.085938 1 0 1
0 104 -157 117 0 0 -1 -93 16.835938 1 0 1
metal_metalfloor006a
0 104 -159 119 0 0 1 -93 16.851562 1 0 1
0 104 -59 119 0 0 1 -93 16.070313 1 0 1
0 101 -59 119 0 0 1 -93.023438 16.070312 1 0 1
metal_metalfloor006a
0 104 -159 119 0 0 1 -93 16.851562 1 0 1
0 101 -59 119 0 0 1 -93.023438 16.070312 1 0 1
0 101 -159 119 0 0 1 -93.023438 16.851562 1 0 1
end
