version 1
nodes
0 "root" -1
end
skeleton
time 0
0 0 0 0 0 0 0
end
triangles
phys
0 -64 -200 308 0 0 1 1 0 1 0 1
0 -64 -200 268 0 0 1 1 0 1 0 1
0 -72 -200 268 0 0 1 1 0 1 0 1
phys
0 -64 -200 308 0 0 1 1 0 1 0 1
0 -72 -200 268 0 0 1 1 0 1 0 1
0 -72 -200 308 0 0 1 1 0 1 0 1
phys
0 -64 -208 268 0 0 1 1 0 1 0 1
0 -64 -208 308 0 0 1 1 0 1 0 1
0 -72 -208 308 0 0 1 1 0 1 0 1
phys
0 -64 -208 268 0 0 1 1 0 1 0 1
0 -72 -208 308 0 0 1 1 0 1 0 1
0 -72 -208 268 0 0 1 1 0 1 0 1
phys
0 -72 -208 268 0 0 1 1 0 1 0 1
0 -72 -208 308 0 0 1 1 0 1 0 1
0 -72 -200 308 0 0 1 1 0 1 0 1
phys
0 -72 -208 268 0 0 1 1 0 1 0 1
0 -72 -200 308 0 0 1 1 0 1 0 1
0 -72 -200 268 0 0 1 1 0 1 0 1
phys
0 -64 -208 308 0 0 1 1 0 1 0 1
0 -64 -208 268 0 0 1 1 0 1 0 1
0 -64 -200 268 0 0 1 1 0 1 0 1
phys
0 -64 -208 308 0 0 1 1 0 1 0 1
0 -64 -200 268 0 0 1 1 0 1 0 1
0 -64 -200 308 0 0 1 1 0 1 0 1
phys
0 -64 -208 268 0 0 1 1 0 1 0 1
0 -72 -208 268 0 0 1 1 0 1 0 1
0 -72 -200 268 0 0 1 1 0 1 0 1
phys
0 -64 -208 268 0 0 1 1 0 1 0 1
0 -72 -200 268 0 0 1 1 0 1 0 1
0 -64 -200 268 0 0 1 1 0 1 0 1
phys
0 -72 -208 308 0 0 1 1 0 1 0 1
0 -64 -208 308 0 0 1 1 0 1 0 1
0 -64 -200 308 0 0 1 1 0 1 0 1
phys
0 -72 -208 308 0 0 1 1 0 1 0 1
0 -64 -200 308 0 0 1 1 0 1 0 1
0 -72 -200 308 0 0 1 1 0 1 0 1
phys
0 168 -102 375.998 0 0 1 2 0 1 0 1
0 168 -102 268 0 0 1 2 0 1 0 1
0 164 -102 268 0 0 1 2 0 1 0 1
phys
0 168 -102 375.998 0 0 1 2 0 1 0 1
0 164 -102 268 0 0 1 2 0 1 0 1
0 164 -102 379.998 0 0 1 2 0 1 0 1
phys
0 168 -112 268 0 0 1 2 0 1 0 1
0 168 -112 375.998 0 0 1 2 0 1 0 1
0 164 -112 379.998 0 0 1 2 0 1 0 1
phys
0 168 -112 268 0 0 1 2 0 1 0 1
0 164 -112 379.998 0 0 1 2 0 1 0 1
0 164 -112 268 0 0 1 2 0 1 0 1
phys
0 164 -112 268 0 0 1 2 0 1 0 1
0 164 -112 379.998 0 0 1 2 0 1 0 1
0 164 -102 379.998 0 0 1 2 0 1 0 1
phys
0 164 -112 268 0 0 1 2 0 1 0 1
0 164 -102 379.998 0 0 1 2 0 1 0 1
0 164 -102 268 0 0 1 2 0 1 0 1
phys
0 168 -112 375.998 0 0 1 2 0 1 0 1
0 168 -112 268 0 0 1 2 0 1 0 1
0 168 -102 268 0 0 1 2 0 1 0 1
phys
0 168 -112 375.998 0 0 1 2 0 1 0 1
0 168 -102 268 0 0 1 2 0 1 0 1
0 168 -102 375.998 0 0 1 2 0 1 0 1
phys
0 168 -112 268 0 0 1 2 0 1 0 1
0 164 -112 268 0 0 1 2 0 1 0 1
0 164 -102 268 0 0 1 2 0 1 0 1
phys
0 168 -112 268 0 0 1 2 0 1 0 1
0 164 -102 268 0 0 1 2 0 1 0 1
0 168 -102 268 0 0 1 2 0 1 0 1
phys
0 164 -112 379.998 0 0 1 2 0 1 0 1
0 168 -112 375.998 0 0 1 2 0 1 0 1
0 168 -102 375.998 0 0 1 2 0 1 0 1
phys
0 164 -112 379.998 0 0 1 2 0 1 0 1
0 168 -102 375.998 0 0 1 2 0 1 0 1
0 164 -102 379.998 0 0 1 2 0 1 0 1
phys
0 -64 -120 308 0 0 1 3 0 1 0 1
0 -64 -120 304 0 0 1 3 0 1 0 1
0 -72 -120 304 0 0 1 3 0 1 0 1
phys
0 -64 -120 308 0 0 1 3 0 1 0 1
0 -72 -120 304 0 0 1 3 0 1 0 1
0 -72 -120 308 0 0 1 3 0 1 0 1
phys
0 -64 -200 304 0 0 1 3 0 1 0 1
0 -64 -200 308 0 0 1 3 0 1 0 1
0 -72 -200 308 0 0 1 3 0 1 0 1
phys
0 -64 -200 304 0 0 1 3 0 1 0 1
0 -72 -200 308 0 0 1 3 0 1 0 1
0 -72 -200 304 0 0 1 3 0 1 0 1
phys
0 -72 -200 304 0 0 1 3 0 1 0 1
0 -72 -200 308 0 0 1 3 0 1 0 1
0 -72 -120 308 0 0 1 3 0 1 0 1
phys
0 -72 -200 304 0 0 1 3 0 1 0 1
0 -72 -120 308 0 0 1 3 0 1 0 1
0 -72 -120 304 0 0 1 3 0 1 0 1
phys
0 -64 -200 308 0 0 1 3 0 1 0 1
0 -64 -200 304 0 0 1 3 0 1 0 1
0 -64 -120 304 0 0 1 3 0 1 0 1
phys
0 -64 -200 308 0 0 1 3 0 1 0 1
0 -64 -120 304 0 0 1 3 0 1 0 1
0 -64 -120 308 0 0 1 3 0 1 0 1
phys
0 -64 -200 304 0 0 1 3 0 1 0 1
0 -72 -200 304 0 0 1 3 0 1 0 1
0 -72 -120 304 0 0 1 3 0 1 0 1
phys
0 -64 -200 304 0 0 1 3 0 1 0 1
0 -72 -120 304 0 0 1 3 0 1 0 1
0 -64 -120 304 0 0 1 3 0 1 0 1
phys
0 -72 -200 308 0 0 1 3 0 1 0 1
0 -64 -200 308 0 0 1 3 0 1 0 1
0 -64 -120 308 0 0 1 3 0 1 0 1
phys
0 -72 -200 308 0 0 1 3 0 1 0 1
0 -64 -120 308 0 0 1 3 0 1 0 1
0 -72 -120 308 0 0 1 3 0 1 0 1
phys
0 40 -102 -16 0 0 1 4 0 1 0 1
0 40 102 -16 0 0 1 4 0 1 0 1
0 40 102 16 0 0 1 4 0 1 0 1
phys
0 40 -102 -16 0 0 1 4 0 1 0 1
0 40 102 16 0 0 1 4 0 1 0 1
0 40 -102 16 0 0 1 4 0 1 0 1
phys
0 -41 102 -16 0 0 1 4 0 1 0 1
0 40 102 -16 0 0 1 4 0 1 0 1
0 40 -102 -16 0 0 1 4 0 1 0 1
phys
0 -41 102 -16 0 0 1 4 0 1 0 1
0 40 -102 -16 0 0 1 4 0 1 0 1
0 -41 -102 -16 0 0 1 4 0 1 0 1
phys
0 -41 -102 16 0 0 1 4 0 1 0 1
0 40 -102 16 0 0 1 4 0 1 0 1
0 40 102 16 0 0 1 4 0 1 0 1
phys
0 -41 -102 16 0 0 1 4 0 1 0 1
0 40 102 16 0 0 1 4 0 1 0 1
0 -41 102 16 0 0 1 4 0 1 0 1
phys
0 40 102 16 0 0 1 4 0 1 0 1
0 40 102 -16 0 0 1 4 0 1 0 1
0 -41 102 -16 0 0 1 4 0 1 0 1
phys
0 40 102 16 0 0 1 4 0 1 0 1
0 -41 102 -16 0 0 1 4 0 1 0 1
0 -41 102 16 0 0 1 4 0 1 0 1
phys
0 40 -102 -16 0 0 1 4 0 1 0 1
0 40 -102 16 0 0 1 4 0 1 0 1
0 -41 -102 16 0 0 1 4 0 1 0 1
phys
0 40 -102 -16 0 0 1 4 0 1 0 1
0 -41 -102 16 0 0 1 4 0 1 0 1
0 -41 -102 -16 0 0 1 4 0 1 0 1
phys
0 -41 -102 16 0 0 1 4 0 1 0 1
0 -41 102 16 0 0 1 4 0 1 0 1
0 -41 102 -16 0 0 1 4 0 1 0 1
phys
0 -41 -102 16 0 0 1 4 0 1 0 1
0 -41 102 -16 0 0 1 4 0 1 0 1
0 -41 -102 -16 0 0 1 4 0 1 0 1
phys
0 -164 -118 300 0 0 1 5 0 1 0 1
0 -164 -112 300 0 0 1 5 0 1 0 1
0 -164 -112 291 0 0 1 5 0 1 0 1
phys
0 -164 -118 300 0 0 1 5 0 1 0 1
0 -164 -112 291 0 0 1 5 0 1 0 1
0 -164 -114 291 0 0 1 5 0 1 0 1
phys
0 -164 -118 300 0 0 1 5 0 1 0 1
0 -164 -114 291 0 0 1 5 0 1 0 1
0 -164 -118 299.0001 0 0 1 5 0 1 0 1
phys
0 -100 -114 291 0 0 1 5 0 1 0 1
0 -100 -112 291 0 0 1 5 0 1 0 1
0 -100 -112 300 0 0 1 5 0 1 0 1
phys
0 -100 -114 291 0 0 1 5 0 1 0 1
0 -100 -112 300 0 0 1 5 0 1 0 1
0 -100 -118 300 0 0 1 5 0 1 0 1
phys
0 -100 -114 291 0 0 1 5 0 1 0 1
0 -100 -118 300 0 0 1 5 0 1 0 1
0 -100 -118 299.0001 0 0 1 5 0 1 0 1
phys
0 -164 -114 291 0 0 1 5 0 1 0 1
0 -164 -112 291 0 0 1 5 0 1 0 1
0 -100 -112 291 0 0 1 5 0 1 0 1
phys
0 -164 -114 291 0 0 1 5 0 1 0 1
0 -100 -112 291 0 0 1 5 0 1 0 1
0 -100 -114 291 0 0 1 5 0 1 0 1
phys
0 -100 -118 300 0 0 1 5 0 1 0 1
0 -100 -112 300 0 0 1 5 0 1 0 1
0 -164 -112 300 0 0 1 5 0 1 0 1
phys
0 -100 -118 300 0 0 1 5 0 1 0 1
0 -164 -112 300 0 0 1 5 0 1 0 1
0 -164 -118 300 0 0 1 5 0 1 0 1
phys
0 -164 -118 299.0001 0 0 1 5 0 1 0 1
0 -164 -114 291 0 0 1 5 0 1 0 1
0 -100 -114 291 0 0 1 5 0 1 0 1
phys
0 -164 -118 299.0001 0 0 1 5 0 1 0 1
0 -100 -114 291 0 0 1 5 0 1 0 1
0 -100 -118 299.0001 0 0 1 5 0 1 0 1
phys
0 -100 -112 300 0 0 1 5 0 1 0 1
0 -100 -112 291 0 0 1 5 0 1 0 1
0 -164 -112 291 0 0 1 5 0 1 0 1
phys
0 -100 -112 300 0 0 1 5 0 1 0 1
0 -164 -112 291 0 0 1 5 0 1 0 1
0 -164 -112 300 0 0 1 5 0 1 0 1
phys
0 -100 -118 299.0001 0 0 1 5 0 1 0 1
0 -100 -118 300 0 0 1 5 0 1 0 1
0 -164 -118 300 0 0 1 5 0 1 0 1
phys
0 -100 -118 299.0001 0 0 1 5 0 1 0 1
0 -164 -118 300 0 0 1 5 0 1 0 1
0 -164 -118 299.0001 0 0 1 5 0 1 0 1
phys
0 16 -200 308 0 0 1 6 0 1 0 1
0 16 -200 304 0 0 1 6 0 1 0 1
0 -64 -200 304 0 0 1 6 0 1 0 1
phys
0 16 -200 308 0 0 1 6 0 1 0 1
0 -64 -200 304 0 0 1 6 0 1 0 1
0 -64 -200 308 0 0 1 6 0 1 0 1
phys
0 16 -208 304 0 0 1 6 0 1 0 1
0 16 -208 308 0 0 1 6 0 1 0 1
0 -64 -208 308 0 0 1 6 0 1 0 1
phys
0 16 -208 304 0 0 1 6 0 1 0 1
0 -64 -208 308 0 0 1 6 0 1 0 1
0 -64 -208 304 0 0 1 6 0 1 0 1
phys
0 -64 -208 304 0 0 1 6 0 1 0 1
0 -64 -208 308 0 0 1 6 0 1 0 1
0 -64 -200 308 0 0 1 6 0 1 0 1
phys
0 -64 -208 304 0 0 1 6 0 1 0 1
0 -64 -200 308 0 0 1 6 0 1 0 1
0 -64 -200 304 0 0 1 6 0 1 0 1
phys
0 16 -208 308 0 0 1 6 0 1 0 1
0 16 -208 304 0 0 1 6 0 1 0 1
0 16 -200 304 0 0 1 6 0 1 0 1
phys
0 16 -208 308 0 0 1 6 0 1 0 1
0 16 -200 304 0 0 1 6 0 1 0 1
0 16 -200 308 0 0 1 6 0 1 0 1
phys
0 16 -208 304 0 0 1 6 0 1 0 1
0 -64 -208 304 0 0 1 6 0 1 0 1
0 -64 -200 304 0 0 1 6 0 1 0 1
phys
0 16 -208 304 0 0 1 6 0 1 0 1
0 -64 -200 304 0 0 1 6 0 1 0 1
0 16 -200 304 0 0 1 6 0 1 0 1
phys
0 -64 -208 308 0 0 1 6 0 1 0 1
0 16 -208 308 0 0 1 6 0 1 0 1
0 16 -200 308 0 0 1 6 0 1 0 1
phys
0 -64 -208 308 0 0 1 6 0 1 0 1
0 16 -200 308 0 0 1 6 0 1 0 1
0 -64 -200 308 0 0 1 6 0 1 0 1
phys
0 -151 -102 97.997 0 0 1 7 0 1 0 1
0 -151 -102 -16 0 0 1 7 0 1 0 1
0 -155 -102 -16 0 0 1 7 0 1 0 1
phys
0 -151 -102 97.997 0 0 1 7 0 1 0 1
0 -155 -102 -16 0 0 1 7 0 1 0 1
0 -155 -102 101.997 0 0 1 7 0 1 0 1
phys
0 -151 -112 -16 0 0 1 7 0 1 0 1
0 -151 -112 97.997 0 0 1 7 0 1 0 1
0 -155 -112 101.997 0 0 1 7 0 1 0 1
phys
0 -151 -112 -16 0 0 1 7 0 1 0 1
0 -155 -112 101.997 0 0 1 7 0 1 0 1
0 -155 -112 -16 0 0 1 7 0 1 0 1
phys
0 -155 -112 -16 0 0 1 7 0 1 0 1
0 -155 -112 101.997 0 0 1 7 0 1 0 1
0 -155 -102 101.997 0 0 1 7 0 1 0 1
phys
0 -155 -112 -16 0 0 1 7 0 1 0 1
0 -155 -102 101.997 0 0 1 7 0 1 0 1
0 -155 -102 -16 0 0 1 7 0 1 0 1
phys
0 -151 -112 97.997 0 0 1 7 0 1 0 1
0 -151 -112 -16 0 0 1 7 0 1 0 1
0 -151 -102 -16 0 0 1 7 0 1 0 1
phys
0 -151 -112 97.997 0 0 1 7 0 1 0 1
0 -151 -102 -16 0 0 1 7 0 1 0 1
0 -151 -102 97.997 0 0 1 7 0 1 0 1
phys
0 -151 -112 -16 0 0 1 7 0 1 0 1
0 -155 -112 -16 0 0 1 7 0 1 0 1
0 -155 -102 -16 0 0 1 7 0 1 0 1
phys
0 -151 -112 -16 0 0 1 7 0 1 0 1
0 -155 -102 -16 0 0 1 7 0 1 0 1
0 -151 -102 -16 0 0 1 7 0 1 0 1
phys
0 -155 -112 101.997 0 0 1 7 0 1 0 1
0 -151 -112 97.997 0 0 1 7 0 1 0 1
0 -151 -102 97.997 0 0 1 7 0 1 0 1
phys
0 -155 -112 101.997 0 0 1 7 0 1 0 1
0 -151 -102 97.997 0 0 1 7 0 1 0 1
0 -155 -102 101.997 0 0 1 7 0 1 0 1
phys
0 -72 -120 308 0 0 1 8 0 1 0 1
0 -72 -112 308 0 0 1 8 0 1 0 1
0 -72 -112 268 0 0 1 8 0 1 0 1
phys
0 -72 -120 308 0 0 1 8 0 1 0 1
0 -72 -112 268 0 0 1 8 0 1 0 1
0 -72 -120 268 0 0 1 8 0 1 0 1
phys
0 -64 -120 268 0 0 1 8 0 1 0 1
0 -64 -112 268 0 0 1 8 0 1 0 1
0 -64 -112 308 0 0 1 8 0 1 0 1
phys
0 -64 -120 268 0 0 1 8 0 1 0 1
0 -64 -112 308 0 0 1 8 0 1 0 1
0 -64 -120 308 0 0 1 8 0 1 0 1
phys
0 -72 -120 268 0 0 1 8 0 1 0 1
0 -72 -112 268 0 0 1 8 0 1 0 1
0 -64 -112 268 0 0 1 8 0 1 0 1
phys
0 -72 -120 268 0 0 1 8 0 1 0 1
0 -64 -112 268 0 0 1 8 0 1 0 1
0 -64 -120 268 0 0 1 8 0 1 0 1
phys
0 -64 -120 308 0 0 1 8 0 1 0 1
0 -64 -112 308 0 0 1 8 0 1 0 1
0 -72 -112 308 0 0 1 8 0 1 0 1
phys
0 -64 -120 308 0 0 1 8 0 1 0 1
0 -72 -112 308 0 0 1 8 0 1 0 1
0 -72 -120 308 0 0 1 8 0 1 0 1
phys
0 -64 -112 308 0 0 1 8 0 1 0 1
0 -64 -112 268 0 0 1 8 0 1 0 1
0 -72 -112 268 0 0 1 8 0 1 0 1
phys
0 -64 -112 308 0 0 1 8 0 1 0 1
0 -72 -112 268 0 0 1 8 0 1 0 1
0 -72 -112 308 0 0 1 8 0 1 0 1
phys
0 -64 -120 268 0 0 1 8 0 1 0 1
0 -64 -120 308 0 0 1 8 0 1 0 1
0 -72 -120 308 0 0 1 8 0 1 0 1
phys
0 -64 -120 268 0 0 1 8 0 1 0 1
0 -72 -120 308 0 0 1 8 0 1 0 1
0 -72 -120 268 0 0 1 8 0 1 0 1
phys
0 -75 -112 118 0 0 1 9 0 1 0 1
0 -75 -112 101 0 0 1 9 0 1 0 1
0 -155 -112 101 0 0 1 9 0 1 0 1
phys
0 -75 -112 118 0 0 1 9 0 1 0 1
0 -155 -112 101 0 0 1 9 0 1 0 1
0 -155 -112 118 0 0 1 9 0 1 0 1
phys
0 -75 -124 110.999 0 0 1 9 0 1 0 1
0 -75 -124 118 0 0 1 9 0 1 0 1
0 -155 -124 118 0 0 1 9 0 1 0 1
phys
0 -75 -124 110.999 0 0 1 9 0 1 0 1
0 -155 -124 118 0 0 1 9 0 1 0 1
0 -155 -124 110.999 0 0 1 9 0 1 0 1
phys
0 -155 -124 110.999 0 0 1 9 0 1 0 1
0 -155 -124 118 0 0 1 9 0 1 0 1
0 -155 -112 118 0 0 1 9 0 1 0 1
phys
0 -155 -124 110.999 0 0 1 9 0 1 0 1
0 -155 -112 118 0 0 1 9 0 1 0 1
0 -155 -112 101 0 0 1 9 0 1 0 1
phys
0 -155 -124 110.999 0 0 1 9 0 1 0 1
0 -155 -112 101 0 0 1 9 0 1 0 1
0 -155 -114 101 0 0 1 9 0 1 0 1
phys
0 -75 -124 118 0 0 1 9 0 1 0 1
0 -75 -124 110.999 0 0 1 9 0 1 0 1
0 -75 -114 101 0 0 1 9 0 1 0 1
phys
0 -75 -124 118 0 0 1 9 0 1 0 1
0 -75 -114 101 0 0 1 9 0 1 0 1
0 -75 -112 101 0 0 1 9 0 1 0 1
phys
0 -75 -124 118 0 0 1 9 0 1 0 1
0 -75 -112 101 0 0 1 9 0 1 0 1
0 -75 -112 118 0 0 1 9 0 1 0 1
phys
0 -155 -114 101 0 0 1 9 0 1 0 1
0 -155 -112 101 0 0 1 9 0 1 0 1
0 -75 -112 101 0 0 1 9 0 1 0 1
phys
0 -155 -114 101 0 0 1 9 0 1 0 1
0 -75 -112 101 0 0 1 9 0 1 0 1
0 -75 -114 101 0 0 1 9 0 1 0 1
phys
0 -155 -124 118 0 0 1 9 0 1 0 1
0 -75 -124 118 0 0 1 9 0 1 0 1
0 -75 -112 118 0 0 1 9 0 1 0 1
phys
0 -155 -124 118 0 0 1 9 0 1 0 1
0 -75 -112 118 0 0 1 9 0 1 0 1
0 -155 -112 118 0 0 1 9 0 1 0 1
phys
0 -75 -124 110.999 0 0 1 9 0 1 0 1
0 -155 -124 110.999 0 0 1 9 0 1 0 1
0 -155 -114 101 0 0 1 9 0 1 0 1
phys
0 -75 -124 110.999 0 0 1 9 0 1 0 1
0 -155 -114 101 0 0 1 9 0 1 0 1
0 -75 -114 101 0 0 1 9 0 1 0 1
phys
0 24 -200 308 0 0 1 10 0 1 0 1
0 24 -200 268 0 0 1 10 0 1 0 1
0 16 -200 268 0 0 1 10 0 1 0 1
phys
0 24 -200 308 0 0 1 10 0 1 0 1
0 16 -200 268 0 0 1 10 0 1 0 1
0 16 -200 308 0 0 1 10 0 1 0 1
phys
0 24 -208 268 0 0 1 10 0 1 0 1
0 24 -208 308 0 0 1 10 0 1 0 1
0 16 -208 308 0 0 1 10 0 1 0 1
phys
0 24 -208 268 0 0 1 10 0 1 0 1
0 16 -208 308 0 0 1 10 0 1 0 1
0 16 -208 268 0 0 1 10 0 1 0 1
phys
0 16 -208 268 0 0 1 10 0 1 0 1
0 16 -208 308 0 0 1 10 0 1 0 1
0 16 -200 308 0 0 1 10 0 1 0 1
phys
0 16 -208 268 0 0 1 10 0 1 0 1
0 16 -200 308 0 0 1 10 0 1 0 1
0 16 -200 268 0 0 1 10 0 1 0 1
phys
0 24 -208 308 0 0 1 10 0 1 0 1
0 24 -208 268 0 0 1 10 0 1 0 1
0 24 -200 268 0 0 1 10 0 1 0 1
phys
0 24 -208 308 0 0 1 10 0 1 0 1
0 24 -200 268 0 0 1 10 0 1 0 1
0 24 -200 308 0 0 1 10 0 1 0 1
phys
0 24 -208 268 0 0 1 10 0 1 0 1
0 16 -208 268 0 0 1 10 0 1 0 1
0 16 -200 268 0 0 1 10 0 1 0 1
phys
0 24 -208 268 0 0 1 10 0 1 0 1
0 16 -200 268 0 0 1 10 0 1 0 1
0 24 -200 268 0 0 1 10 0 1 0 1
phys
0 16 -208 308 0 0 1 10 0 1 0 1
0 24 -208 308 0 0 1 10 0 1 0 1
0 24 -200 308 0 0 1 10 0 1 0 1
phys
0 16 -208 308 0 0 1 10 0 1 0 1
0 24 -200 308 0 0 1 10 0 1 0 1
0 16 -200 308 0 0 1 10 0 1 0 1
phys
0 248 -112 16 0 0 1 11 0 1 0 1
0 248 -112 -16 0 0 1 11 0 1 0 1
0 135 -112 -16 0 0 1 11 0 1 0 1
phys
0 248 -112 16 0 0 1 11 0 1 0 1
0 135 -112 -16 0 0 1 11 0 1 0 1
0 135 -112 16 0 0 1 11 0 1 0 1
phys
0 248 -208 -16 0 0 1 11 0 1 0 1
0 248 -208 16 0 0 1 11 0 1 0 1
0 135 -208 16 0 0 1 11 0 1 0 1
phys
0 248 -208 -16 0 0 1 11 0 1 0 1
0 135 -208 16 0 0 1 11 0 1 0 1
0 135 -208 -16 0 0 1 11 0 1 0 1
phys
0 135 -208 -16 0 0 1 11 0 1 0 1
0 135 -208 16 0 0 1 11 0 1 0 1
0 135 -112 16 0 0 1 11 0 1 0 1
phys
0 135 -208 -16 0 0 1 11 0 1 0 1
0 135 -112 16 0 0 1 11 0 1 0 1
0 135 -112 -16 0 0 1 11 0 1 0 1
phys
0 248 -208 16 0 0 1 11 0 1 0 1
0 248 -208 -16 0 0 1 11 0 1 0 1
0 248 -112 -16 0 0 1 11 0 1 0 1
phys
0 248 -208 16 0 0 1 11 0 1 0 1
0 248 -112 -16 0 0 1 11 0 1 0 1
0 248 -112 16 0 0 1 11 0 1 0 1
phys
0 248 -208 -16 0 0 1 11 0 1 0 1
0 135 -208 -16 0 0 1 11 0 1 0 1
0 135 -112 -16 0 0 1 11 0 1 0 1
phys
0 248 -208 -16 0 0 1 11 0 1 0 1
0 135 -112 -16 0 0 1 11 0 1 0 1
0 248 -112 -16 0 0 1 11 0 1 0 1
phys
0 135 -208 16 0 0 1 11 0 1 0 1
0 248 -208 16 0 0 1 11 0 1 0 1
0 248 -112 16 0 0 1 11 0 1 0 1
phys
0 135 -208 16 0 0 1 11 0 1 0 1
0 248 -112 16 0 0 1 11 0 1 0 1
0 135 -112 16 0 0 1 11 0 1 0 1
phys
0 156 -208 268 0 0 1 12 0 1 0 1
0 148 -208 268 0 0 1 12 0 1 0 1
0 148 -200 268 0 0 1 12 0 1 0 1
phys
0 156 -208 268 0 0 1 12 0 1 0 1
0 148 -200 268 0 0 1 12 0 1 0 1
0 156 -200 268 0 0 1 12 0 1 0 1
phys
0 148 -208 308 0 0 1 12 0 1 0 1
0 156 -208 308 0 0 1 12 0 1 0 1
0 156 -200 308 0 0 1 12 0 1 0 1
phys
0 148 -208 308 0 0 1 12 0 1 0 1
0 156 -200 308 0 0 1 12 0 1 0 1
0 148 -200 308 0 0 1 12 0 1 0 1
phys
0 156 -200 268 0 0 1 12 0 1 0 1
0 148 -200 268 0 0 1 12 0 1 0 1
0 148 -200 308 0 0 1 12 0 1 0 1
phys
0 156 -200 268 0 0 1 12 0 1 0 1
0 148 -200 308 0 0 1 12 0 1 0 1
0 156 -200 308 0 0 1 12 0 1 0 1
phys
0 156 -208 308 0 0 1 12 0 1 0 1
0 148 -208 308 0 0 1 12 0 1 0 1
0 148 -208 268 0 0 1 12 0 1 0 1
phys
0 156 -208 308 0 0 1 12 0 1 0 1
0 148 -208 268 0 0 1 12 0 1 0 1
0 156 -208 268 0 0 1 12 0 1 0 1
phys
0 148 -208 308 0 0 1 12 0 1 0 1
0 148 -200 308 0 0 1 12 0 1 0 1
0 148 -200 268 0 0 1 12 0 1 0 1
phys
0 148 -208 308 0 0 1 12 0 1 0 1
0 148 -200 268 0 0 1 12 0 1 0 1
0 148 -208 268 0 0 1 12 0 1 0 1
phys
0 156 -208 268 0 0 1 12 0 1 0 1
0 156 -200 268 0 0 1 12 0 1 0 1
0 156 -200 308 0 0 1 12 0 1 0 1
phys
0 156 -208 268 0 0 1 12 0 1 0 1
0 156 -200 308 0 0 1 12 0 1 0 1
0 156 -208 308 0 0 1 12 0 1 0 1
phys
0 40 138 0 0 0 1 13 0 1 0 1
0 40 138 -8 0 0 1 13 0 1 0 1
0 -41 138 -8 0 0 1 13 0 1 0 1
phys
0 40 138 0 0 0 1 13 0 1 0 1
0 -41 138 -8 0 0 1 13 0 1 0 1
0 -41 138 0 0 0 1 13 0 1 0 1
phys
0 -41 126 0 0 0 1 13 0 1 0 1
0 -41 138 0 0 0 1 13 0 1 0 1
0 -41 138 -8 0 0 1 13 0 1 0 1
phys
0 40 138 -8 0 0 1 13 0 1 0 1
0 40 138 0 0 0 1 13 0 1 0 1
0 40 126 0 0 0 1 13 0 1 0 1
phys
0 40 126 0 0 0 1 13 0 1 0 1
0 40 138 0 0 0 1 13 0 1 0 1
0 -41 138 0 0 0 1 13 0 1 0 1
phys
0 40 126 0 0 0 1 13 0 1 0 1
0 -41 138 0 0 0 1 13 0 1 0 1
0 -41 126 0 0 0 1 13 0 1 0 1
phys
0 -41 126 0 0 0 1 13 0 1 0 1
0 -41 138 -8 0 0 1 13 0 1 0 1
0 40 138 -8 0 0 1 13 0 1 0 1
phys
0 -41 126 0 0 0 1 13 0 1 0 1
0 40 138 -8 0 0 1 13 0 1 0 1
0 40 126 0 0 0 1 13 0 1 0 1
phys
0 40 74 124 0 0 1 14 0 1 0 1
0 48 74 124 0 0 1 14 0 1 0 1
0 48 78 127.984 0 0 1 14 0 1 0 1
phys
0 40 74 124 0 0 1 14 0 1 0 1
0 48 78 127.984 0 0 1 14 0 1 0 1
0 40 78 127.984 0 0 1 14 0 1 0 1
phys
0 40 78 16 0 0 1 14 0 1 0 1
0 40 78 127.984 0 0 1 14 0 1 0 1
0 48 78 127.984 0 0 1 14 0 1 0 1
phys
0 40 78 16 0 0 1 14 0 1 0 1
0 48 78 127.984 0 0 1 14 0 1 0 1
0 48 78 16 0 0 1 14 0 1 0 1
phys
0 48 74 16 0 0 1 14 0 1 0 1
0 48 74 124 0 0 1 14 0 1 0 1
0 40 74 124 0 0 1 14 0 1 0 1
phys
0 48 74 16 0 0 1 14 0 1 0 1
0 40 74 124 0 0 1 14 0 1 0 1
0 40 74 16 0 0 1 14 0 1 0 1
phys
0 40 74 16 0 0 1 14 0 1 0 1
0 40 74 124 0 0 1 14 0 1 0 1
0 40 78 127.984 0 0 1 14 0 1 0 1
phys
0 40 74 16 0 0 1 14 0 1 0 1
0 40 78 127.984 0 0 1 14 0 1 0 1
0 40 78 16 0 0 1 14 0 1 0 1
phys
0 48 78 16 0 0 1 14 0 1 0 1
0 48 78 127.984 0 0 1 14 0 1 0 1
0 48 74 124 0 0 1 14 0 1 0 1
phys
0 48 78 16 0 0 1 14 0 1 0 1
0 48 74 124 0 0 1 14 0 1 0 1
0 48 74 16 0 0 1 14 0 1 0 1
phys
0 48 74 16 0 0 1 14 0 1 0 1
0 40 74 16 0 0 1 14 0 1 0 1
0 40 78 16 0 0 1 14 0 1 0 1
phys
0 48 74 16 0 0 1 14 0 1 0 1
0 40 78 16 0 0 1 14 0 1 0 1
0 48 78 16 0 0 1 14 0 1 0 1
phys
0 99 -208 0 0 0 1 15 0 1 0 1
0 111 -208 0 0 0 1 15 0 1 0 1
0 111 -146 0 0 0 1 15 0 1 0 1
phys
0 99 -208 0 0 0 1 15 0 1 0 1
0 111 -146 0 0 0 1 15 0 1 0 1
0 99 -146 0 0 0 1 15 0 1 0 1
phys
0 99 -146 -8 0 0 1 15 0 1 0 1
0 111 -146 0 0 0 1 15 0 1 0 1
0 111 -208 0 0 0 1 15 0 1 0 1
phys
0 99 -146 -8 0 0 1 15 0 1 0 1
0 111 -208 0 0 0 1 15 0 1 0 1
0 99 -208 -8 0 0 1 15 0 1 0 1
phys
0 99 -146 0 0 0 1 15 0 1 0 1
0 111 -146 0 0 0 1 15 0 1 0 1
0 99 -146 -8 0 0 1 15 0 1 0 1
phys
0 111 -208 0 0 0 1 15 0 1 0 1
0 99 -208 0 0 0 1 15 0 1 0 1
0 99 -208 -8 0 0 1 15 0 1 0 1
phys
0 99 -208 0 0 0 1 15 0 1 0 1
0 99 -146 0 0 0 1 15 0 1 0 1
0 99 -146 -8 0 0 1 15 0 1 0 1
phys
0 99 -208 0 0 0 1 15 0 1 0 1
0 99 -146 -8 0 0 1 15 0 1 0 1
0 99 -208 -8 0 0 1 15 0 1 0 1
phys
0 168 -102 123.997 0 0 1 16 0 1 0 1
0 168 -102 16 0 0 1 16 0 1 0 1
0 164 -102 16 0 0 1 16 0 1 0 1
phys
0 168 -102 123.997 0 0 1 16 0 1 0 1
0 164 -102 16 0 0 1 16 0 1 0 1
0 164 -102 127.997 0 0 1 16 0 1 0 1
phys
0 168 -112 16 0 0 1 16 0 1 0 1
0 168 -112 123.997 0 0 1 16 0 1 0 1
0 164 -112 127.997 0 0 1 16 0 1 0 1
phys
0 168 -112 16 0 0 1 16 0 1 0 1
0 164 -112 127.997 0 0 1 16 0 1 0 1
0 164 -112 16 0 0 1 16 0 1 0 1
phys
0 164 -112 16 0 0 1 16 0 1 0 1
0 164 -112 127.997 0 0 1 16 0 1 0 1
0 164 -102 127.997 0 0 1 16 0 1 0 1
phys
0 164 -112 16 0 0 1 16 0 1 0 1
0 164 -102 127.997 0 0 1 16 0 1 0 1
0 164 -102 16 0 0 1 16 0 1 0 1
phys
0 168 -112 123.997 0 0 1 16 0 1 0 1
0 168 -112 16 0 0 1 16 0 1 0 1
0 168 -102 16 0 0 1 16 0 1 0 1
phys
0 168 -112 123.997 0 0 1 16 0 1 0 1
0 168 -102 16 0 0 1 16 0 1 0 1
0 168 -102 123.997 0 0 1 16 0 1 0 1
phys
0 168 -112 16 0 0 1 16 0 1 0 1
0 164 -112 16 0 0 1 16 0 1 0 1
0 164 -102 16 0 0 1 16 0 1 0 1
phys
0 168 -112 16 0 0 1 16 0 1 0 1
0 164 -102 16 0 0 1 16 0 1 0 1
0 168 -102 16 0 0 1 16 0 1 0 1
phys
0 164 -112 127.997 0 0 1 16 0 1 0 1
0 168 -112 123.997 0 0 1 16 0 1 0 1
0 168 -102 123.997 0 0 1 16 0 1 0 1
phys
0 164 -112 127.997 0 0 1 16 0 1 0 1
0 168 -102 123.997 0 0 1 16 0 1 0 1
0 164 -102 127.997 0 0 1 16 0 1 0 1
phys
0 -75 -102 101.987 0 0 1 17 0 1 0 1
0 -75 -102 -16 0 0 1 17 0 1 0 1
0 -79 -102 -16 0 0 1 17 0 1 0 1
phys
0 -75 -102 101.987 0 0 1 17 0 1 0 1
0 -79 -102 -16 0 0 1 17 0 1 0 1
0 -79 -102 97.987 0 0 1 17 0 1 0 1
phys
0 -75 -112 -16 0 0 1 17 0 1 0 1
0 -75 -112 102.001 0 0 1 17 0 1 0 1
0 -79 -112 98.001 0 0 1 17 0 1 0 1
phys
0 -75 -112 -16 0 0 1 17 0 1 0 1
0 -79 -112 98.001 0 0 1 17 0 1 0 1
0 -79 -112 -16 0 0 1 17 0 1 0 1
phys
0 -79 -112 -16 0 0 1 17 0 1 0 1
0 -79 -112 98.001 0 0 1 17 0 1 0 1
0 -79 -102 97.987 0 0 1 17 0 1 0 1
phys
0 -79 -112 -16 0 0 1 17 0 1 0 1
0 -79 -102 97.987 0 0 1 17 0 1 0 1
0 -79 -102 -16 0 0 1 17 0 1 0 1
phys
0 -75 -112 102.001 0 0 1 17 0 1 0 1
0 -75 -112 -16 0 0 1 17 0 1 0 1
0 -75 -102 -16 0 0 1 17 0 1 0 1
phys
0 -75 -112 102.001 0 0 1 17 0 1 0 1
0 -75 -102 -16 0 0 1 17 0 1 0 1
0 -75 -102 101.987 0 0 1 17 0 1 0 1
phys
0 -75 -112 -16 0 0 1 17 0 1 0 1
0 -79 -112 -16 0 0 1 17 0 1 0 1
0 -79 -102 -16 0 0 1 17 0 1 0 1
phys
0 -75 -112 -16 0 0 1 17 0 1 0 1
0 -79 -102 -16 0 0 1 17 0 1 0 1
0 -75 -102 -16 0 0 1 17 0 1 0 1
phys
0 -79 -112 98.001 0 0 1 17 0 1 0 1
0 -75 -112 102.001 0 0 1 17 0 1 0 1
0 -75 -102 101.987 0 0 1 17 0 1 0 1
phys
0 -79 -112 98.001 0 0 1 17 0 1 0 1
0 -75 -102 101.987 0 0 1 17 0 1 0 1
0 -79 -102 97.987 0 0 1 17 0 1 0 1
phys
0 40 126 8 0 0 1 18 0 1 0 1
0 40 126 0 0 0 1 18 0 1 0 1
0 -41 126 0 0 0 1 18 0 1 0 1
phys
0 40 126 8 0 0 1 18 0 1 0 1
0 -41 126 0 0 0 1 18 0 1 0 1
0 -41 126 8 0 0 1 18 0 1 0 1
phys
0 -41 114 8 0 0 1 18 0 1 0 1
0 -41 126 8 0 0 1 18 0 1 0 1
0 -41 126 0 0 0 1 18 0 1 0 1
phys
0 40 126 0 0 0 1 18 0 1 0 1
0 40 126 8 0 0 1 18 0 1 0 1
0 40 114 8 0 0 1 18 0 1 0 1
phys
0 40 114 8 0 0 1 18 0 1 0 1
0 40 126 8 0 0 1 18 0 1 0 1
0 -41 126 8 0 0 1 18 0 1 0 1
phys
0 40 114 8 0 0 1 18 0 1 0 1
0 -41 126 8 0 0 1 18 0 1 0 1
0 -41 114 8 0 0 1 18 0 1 0 1
phys
0 -41 114 8 0 0 1 18 0 1 0 1
0 -41 126 0 0 0 1 18 0 1 0 1
0 40 126 0 0 0 1 18 0 1 0 1
phys
0 -41 114 8 0 0 1 18 0 1 0 1
0 40 126 0 0 0 1 18 0 1 0 1
0 40 114 8 0 0 1 18 0 1 0 1
phys
0 -41 102 16 0 0 1 19 0 1 0 1
0 -41 114 8 0 0 1 19 0 1 0 1
0 40 114 8 0 0 1 19 0 1 0 1
phys
0 -41 102 16 0 0 1 19 0 1 0 1
0 40 114 8 0 0 1 19 0 1 0 1
0 40 102 16 0 0 1 19 0 1 0 1
phys
0 40 114 16 0 0 1 19 0 1 0 1
0 40 114 8 0 0 1 19 0 1 0 1
0 -41 114 8 0 0 1 19 0 1 0 1
phys
0 40 114 16 0 0 1 19 0 1 0 1
0 -41 114 8 0 0 1 19 0 1 0 1
0 -41 114 16 0 0 1 19 0 1 0 1
phys
0 -41 114 16 0 0 1 19 0 1 0 1
0 -41 114 8 0 0 1 19 0 1 0 1
0 -41 102 16 0 0 1 19 0 1 0 1
phys
0 40 102 16 0 0 1 19 0 1 0 1
0 40 114 8 0 0 1 19 0 1 0 1
0 40 114 16 0 0 1 19 0 1 0 1
phys
0 -41 102 16 0 0 1 19 0 1 0 1
0 40 102 16 0 0 1 19 0 1 0 1
0 40 114 16 0 0 1 19 0 1 0 1
phys
0 -41 102 16 0 0 1 19 0 1 0 1
0 40 114 16 0 0 1 19 0 1 0 1
0 -41 114 16 0 0 1 19 0 1 0 1
phys
0 -12 -112 260 0 0 1 20 0 1 0 1
0 -12 -112 195 0 0 1 20 0 1 0 1
0 -22 -112 195 0 0 1 20 0 1 0 1
phys
0 -12 -112 260 0 0 1 20 0 1 0 1
0 -22 -112 195 0 0 1 20 0 1 0 1
0 -22 -112 260 0 0 1 20 0 1 0 1
phys
0 -12 -200 252 0 0 1 20 0 1 0 1
0 -12 -200 260 0 0 1 20 0 1 0 1
0 -22 -200 260 0 0 1 20 0 1 0 1
phys
0 -12 -200 252 0 0 1 20 0 1 0 1
0 -22 -200 260 0 0 1 20 0 1 0 1
0 -22 -200 252 0 0 1 20 0 1 0 1
phys
0 -22 -200 252 0 0 1 20 0 1 0 1
0 -22 -200 260 0 0 1 20 0 1 0 1
0 -22 -112 260 0 0 1 20 0 1 0 1
phys
0 -22 -200 252 0 0 1 20 0 1 0 1
0 -22 -112 260 0 0 1 20 0 1 0 1
0 -22 -112 195 0 0 1 20 0 1 0 1
phys
0 -22 -200 252 0 0 1 20 0 1 0 1
0 -22 -112 195 0 0 1 20 0 1 0 1
0 -22 -122 195 0 0 1 20 0 1 0 1
phys
0 -12 -200 260 0 0 1 20 0 1 0 1
0 -12 -200 252 0 0 1 20 0 1 0 1
0 -12 -122 195 0 0 1 20 0 1 0 1
phys
0 -12 -200 260 0 0 1 20 0 1 0 1
0 -12 -122 195 0 0 1 20 0 1 0 1
0 -12 -112 195 0 0 1 20 0 1 0 1
phys
0 -12 -200 260 0 0 1 20 0 1 0 1
0 -12 -112 195 0 0 1 20 0 1 0 1
0 -12 -112 260 0 0 1 20 0 1 0 1
phys
0 -22 -122 195 0 0 1 20 0 1 0 1
0 -22 -112 195 0 0 1 20 0 1 0 1
0 -12 -112 195 0 0 1 20 0 1 0 1
phys
0 -22 -122 195 0 0 1 20 0 1 0 1
0 -12 -112 195 0 0 1 20 0 1 0 1
0 -12 -122 195 0 0 1 20 0 1 0 1
phys
0 -22 -200 260 0 0 1 20 0 1 0 1
0 -12 -200 260 0 0 1 20 0 1 0 1
0 -12 -112 260 0 0 1 20 0 1 0 1
phys
0 -22 -200 260 0 0 1 20 0 1 0 1
0 -12 -112 260 0 0 1 20 0 1 0 1
0 -22 -112 260 0 0 1 20 0 1 0 1
phys
0 -12 -200 252 0 0 1 20 0 1 0 1
0 -22 -200 252 0 0 1 20 0 1 0 1
0 -22 -122 195 0 0 1 20 0 1 0 1
phys
0 -12 -200 252 0 0 1 20 0 1 0 1
0 -22 -122 195 0 0 1 20 0 1 0 1
0 -12 -122 195 0 0 1 20 0 1 0 1
phys
0 244 -120 308 0 0 1 21 0 1 0 1
0 244 -120 304 0 0 1 21 0 1 0 1
0 236 -120 304 0 0 1 21 0 1 0 1
phys
0 244 -120 308 0 0 1 21 0 1 0 1
0 236 -120 304 0 0 1 21 0 1 0 1
0 236 -120 308 0 0 1 21 0 1 0 1
phys
0 244 -200 304 0 0 1 21 0 1 0 1
0 244 -200 308 0 0 1 21 0 1 0 1
0 236 -200 308 0 0 1 21 0 1 0 1
phys
0 244 -200 304 0 0 1 21 0 1 0 1
0 236 -200 308 0 0 1 21 0 1 0 1
0 236 -200 304 0 0 1 21 0 1 0 1
phys
0 236 -200 304 0 0 1 21 0 1 0 1
0 236 -200 308 0 0 1 21 0 1 0 1
0 236 -120 308 0 0 1 21 0 1 0 1
phys
0 236 -200 304 0 0 1 21 0 1 0 1
0 236 -120 308 0 0 1 21 0 1 0 1
0 236 -120 304 0 0 1 21 0 1 0 1
phys
0 244 -200 308 0 0 1 21 0 1 0 1
0 244 -200 304 0 0 1 21 0 1 0 1
0 244 -120 304 0 0 1 21 0 1 0 1
phys
0 244 -200 308 0 0 1 21 0 1 0 1
0 244 -120 304 0 0 1 21 0 1 0 1
0 244 -120 308 0 0 1 21 0 1 0 1
phys
0 244 -200 304 0 0 1 21 0 1 0 1
0 236 -200 304 0 0 1 21 0 1 0 1
0 236 -120 304 0 0 1 21 0 1 0 1
phys
0 244 -200 304 0 0 1 21 0 1 0 1
0 236 -120 304 0 0 1 21 0 1 0 1
0 244 -120 304 0 0 1 21 0 1 0 1
phys
0 236 -200 308 0 0 1 21 0 1 0 1
0 244 -200 308 0 0 1 21 0 1 0 1
0 244 -120 308 0 0 1 21 0 1 0 1
phys
0 236 -200 308 0 0 1 21 0 1 0 1
0 244 -120 308 0 0 1 21 0 1 0 1
0 236 -120 308 0 0 1 21 0 1 0 1
phys
0 148 -200 308 0 0 1 22 0 1 0 1
0 148 -200 304 0 0 1 22 0 1 0 1
0 24 -200 304 0 0 1 22 0 1 0 1
phys
0 148 -200 308 0 0 1 22 0 1 0 1
0 24 -200 304 0 0 1 22 0 1 0 1
0 24 -200 308 0 0 1 22 0 1 0 1
phys
0 148 -208 304 0 0 1 22 0 1 0 1
0 148 -208 308 0 0 1 22 0 1 0 1
0 24 -208 308 0 0 1 22 0 1 0 1
phys
0 148 -208 304 0 0 1 22 0 1 0 1
0 24 -208 308 0 0 1 22 0 1 0 1
0 24 -208 304 0 0 1 22 0 1 0 1
phys
0 24 -208 304 0 0 1 22 0 1 0 1
0 24 -208 308 0 0 1 22 0 1 0 1
0 24 -200 308 0 0 1 22 0 1 0 1
phys
0 24 -208 304 0 0 1 22 0 1 0 1
0 24 -200 308 0 0 1 22 0 1 0 1
0 24 -200 304 0 0 1 22 0 1 0 1
phys
0 148 -208 308 0 0 1 22 0 1 0 1
0 148 -208 304 0 0 1 22 0 1 0 1
0 148 -200 304 0 0 1 22 0 1 0 1
phys
0 148 -208 308 0 0 1 22 0 1 0 1
0 148 -200 304 0 0 1 22 0 1 0 1
0 148 -200 308 0 0 1 22 0 1 0 1
phys
0 148 -208 304 0 0 1 22 0 1 0 1
0 24 -208 304 0 0 1 22 0 1 0 1
0 24 -200 304 0 0 1 22 0 1 0 1
phys
0 148 -208 304 0 0 1 22 0 1 0 1
0 24 -200 304 0 0 1 22 0 1 0 1
0 148 -200 304 0 0 1 22 0 1 0 1
phys
0 24 -208 308 0 0 1 22 0 1 0 1
0 148 -208 308 0 0 1 22 0 1 0 1
0 148 -200 308 0 0 1 22 0 1 0 1
phys
0 24 -208 308 0 0 1 22 0 1 0 1
0 148 -200 308 0 0 1 22 0 1 0 1
0 24 -200 308 0 0 1 22 0 1 0 1
phys
0 168 -112 124 0 0 1 23 0 1 0 1
0 168 -102 124 0 0 1 23 0 1 0 1
0 216 -102 124 0 0 1 23 0 1 0 1
phys
0 168 -112 124 0 0 1 23 0 1 0 1
0 216 -102 124 0 0 1 23 0 1 0 1
0 216 -112 124 0 0 1 23 0 1 0 1
phys
0 220 -112 128 0 0 1 23 0 1 0 1
0 220 -102 128 0 0 1 23 0 1 0 1
0 164 -102 128 0 0 1 23 0 1 0 1
phys
0 220 -112 128 0 0 1 23 0 1 0 1
0 164 -102 128 0 0 1 23 0 1 0 1
0 164 -112 128 0 0 1 23 0 1 0 1
phys
0 216 -112 124 0 0 1 23 0 1 0 1
0 216 -102 124 0 0 1 23 0 1 0 1
0 220 -102 128 0 0 1 23 0 1 0 1
phys
0 216 -112 124 0 0 1 23 0 1 0 1
0 220 -102 128 0 0 1 23 0 1 0 1
0 220 -112 128 0 0 1 23 0 1 0 1
phys
0 164 -112 128 0 0 1 23 0 1 0 1
0 164 -102 128 0 0 1 23 0 1 0 1
0 168 -102 124 0 0 1 23 0 1 0 1
phys
0 164 -112 128 0 0 1 23 0 1 0 1
0 168 -102 124 0 0 1 23 0 1 0 1
0 168 -112 124 0 0 1 23 0 1 0 1
phys
0 216 -102 124 0 0 1 23 0 1 0 1
0 168 -102 124 0 0 1 23 0 1 0 1
0 164 -102 128 0 0 1 23 0 1 0 1
phys
0 216 -102 124 0 0 1 23 0 1 0 1
0 164 -102 128 0 0 1 23 0 1 0 1
0 220 -102 128 0 0 1 23 0 1 0 1
phys
0 220 -112 128 0 0 1 23 0 1 0 1
0 164 -112 128 0 0 1 23 0 1 0 1
0 168 -112 124 0 0 1 23 0 1 0 1
phys
0 220 -112 128 0 0 1 23 0 1 0 1
0 168 -112 124 0 0 1 23 0 1 0 1
0 216 -112 124 0 0 1 23 0 1 0 1
phys
0 244 -112 268 0 0 1 24 0 1 0 1
0 244 -112 260 0 0 1 24 0 1 0 1
0 -72 -112 260 0 0 1 24 0 1 0 1
phys
0 244 -112 268 0 0 1 24 0 1 0 1
0 -72 -112 260 0 0 1 24 0 1 0 1
0 -72 -112 268 0 0 1 24 0 1 0 1
phys
0 244 -208 260 0 0 1 24 0 1 0 1
0 244 -208 268 0 0 1 24 0 1 0 1
0 -72 -208 268 0 0 1 24 0 1 0 1
phys
0 244 -208 260 0 0 1 24 0 1 0 1
0 -72 -208 268 0 0 1 24 0 1 0 1
0 -72 -208 260 0 0 1 24 0 1 0 1
phys
0 -72 -208 260 0 0 1 24 0 1 0 1
0 -72 -208 268 0 0 1 24 0 1 0 1
0 -72 -112 268 0 0 1 24 0 1 0 1
phys
0 -72 -208 260 0 0 1 24 0 1 0 1
0 -72 -112 268 0 0 1 24 0 1 0 1
0 -72 -112 260 0 0 1 24 0 1 0 1
phys
0 244 -208 268 0 0 1 24 0 1 0 1
0 244 -208 260 0 0 1 24 0 1 0 1
0 244 -112 260 0 0 1 24 0 1 0 1
phys
0 244 -208 268 0 0 1 24 0 1 0 1
0 244 -112 260 0 0 1 24 0 1 0 1
0 244 -112 268 0 0 1 24 0 1 0 1
phys
0 244 -208 260 0 0 1 24 0 1 0 1
0 -72 -208 260 0 0 1 24 0 1 0 1
0 -72 -112 260 0 0 1 24 0 1 0 1
phys
0 244 -208 260 0 0 1 24 0 1 0 1
0 -72 -112 260 0 0 1 24 0 1 0 1
0 244 -112 260 0 0 1 24 0 1 0 1
phys
0 -72 -208 268 0 0 1 24 0 1 0 1
0 244 -208 268 0 0 1 24 0 1 0 1
0 244 -112 268 0 0 1 24 0 1 0 1
phys
0 -72 -208 268 0 0 1 24 0 1 0 1
0 244 -112 268 0 0 1 24 0 1 0 1
0 -72 -112 268 0 0 1 24 0 1 0 1
phys
0 244 -112 308 0 0 1 25 0 1 0 1
0 244 -112 268 0 0 1 25 0 1 0 1
0 236 -112 268 0 0 1 25 0 1 0 1
phys
0 244 -112 308 0 0 1 25 0 1 0 1
0 236 -112 268 0 0 1 25 0 1 0 1
0 236 -112 308 0 0 1 25 0 1 0 1
phys
0 244 -120 268 0 0 1 25 0 1 0 1
0 244 -120 308 0 0 1 25 0 1 0 1
0 236 -120 308 0 0 1 25 0 1 0 1
phys
0 244 -120 268 0 0 1 25 0 1 0 1
0 236 -120 308 0 0 1 25 0 1 0 1
0 236 -120 268 0 0 1 25 0 1 0 1
phys
0 236 -120 268 0 0 1 25 0 1 0 1
0 236 -120 308 0 0 1 25 0 1 0 1
0 236 -112 308 0 0 1 25 0 1 0 1
phys
0 236 -120 268 0 0 1 25 0 1 0 1
0 236 -112 308 0 0 1 25 0 1 0 1
0 236 -112 268 0 0 1 25 0 1 0 1
phys
0 244 -120 308 0 0 1 25 0 1 0 1
0 244 -120 268 0 0 1 25 0 1 0 1
0 244 -112 268 0 0 1 25 0 1 0 1
phys
0 244 -120 308 0 0 1 25 0 1 0 1
0 244 -112 268 0 0 1 25 0 1 0 1
0 244 -112 308 0 0 1 25 0 1 0 1
phys
0 244 -120 268 0 0 1 25 0 1 0 1
0 236 -120 268 0 0 1 25 0 1 0 1
0 236 -112 268 0 0 1 25 0 1 0 1
phys
0 244 -120 268 0 0 1 25 0 1 0 1
0 236 -112 268 0 0 1 25 0 1 0 1
0 244 -112 268 0 0 1 25 0 1 0 1
phys
0 236 -120 308 0 0 1 25 0 1 0 1
0 244 -120 308 0 0 1 25 0 1 0 1
0 244 -112 308 0 0 1 25 0 1 0 1
phys
0 236 -120 308 0 0 1 25 0 1 0 1
0 244 -112 308 0 0 1 25 0 1 0 1
0 236 -112 308 0 0 1 25 0 1 0 1
phys
0 40 102 -16 0 0 1 26 0 1 0 1
0 40 102 16 0 0 1 26 0 1 0 1
0 -41 102 16 0 0 1 26 0 1 0 1
phys
0 40 102 -16 0 0 1 26 0 1 0 1
0 -41 102 16 0 0 1 26 0 1 0 1
0 -41 102 -16 0 0 1 26 0 1 0 1
phys
0 -41 102 -16 0 0 1 26 0 1 0 1
0 -41 102 16 0 0 1 26 0 1 0 1
0 -41 150 -16 0 0 1 26 0 1 0 1
phys
0 40 102 16 0 0 1 26 0 1 0 1
0 40 102 -16 0 0 1 26 0 1 0 1
0 40 150 -16 0 0 1 26 0 1 0 1
phys
0 40 102 -16 0 0 1 26 0 1 0 1
0 -41 102 -16 0 0 1 26 0 1 0 1
0 -41 150 -16 0 0 1 26 0 1 0 1
phys
0 40 102 -16 0 0 1 26 0 1 0 1
0 -41 150 -16 0 0 1 26 0 1 0 1
0 40 150 -16 0 0 1 26 0 1 0 1
phys
0 -41 102 16 0 0 1 26 0 1 0 1
0 40 102 16 0 0 1 26 0 1 0 1
0 40 150 -16 0 0 1 26 0 1 0 1
phys
0 -41 102 16 0 0 1 26 0 1 0 1
0 40 150 -16 0 0 1 26 0 1 0 1
0 -41 150 -16 0 0 1 26 0 1 0 1
phys
0 111 -146 0 0 0 1 27 0 1 0 1
0 111 -146 8 0 0 1 27 0 1 0 1
0 123 -146 8 0 0 1 27 0 1 0 1
phys
0 123 -208 8 0 0 1 27 0 1 0 1
0 111 -208 8 0 0 1 27 0 1 0 1
0 111 -208 0 0 0 1 27 0 1 0 1
phys
0 111 -208 0 0 0 1 27 0 1 0 1
0 111 -208 8 0 0 1 27 0 1 0 1
0 111 -146 8 0 0 1 27 0 1 0 1
phys
0 111 -208 0 0 0 1 27 0 1 0 1
0 111 -146 8 0 0 1 27 0 1 0 1
0 111 -146 0 0 0 1 27 0 1 0 1
phys
0 111 -208 8 0 0 1 27 0 1 0 1
0 123 -208 8 0 0 1 27 0 1 0 1
0 123 -146 8 0 0 1 27 0 1 0 1
phys
0 111 -208 8 0 0 1 27 0 1 0 1
0 123 -146 8 0 0 1 27 0 1 0 1
0 111 -146 8 0 0 1 27 0 1 0 1
phys
0 123 -208 8 0 0 1 27 0 1 0 1
0 111 -208 0 0 0 1 27 0 1 0 1
0 111 -146 0 0 0 1 27 0 1 0 1
phys
0 123 -208 8 0 0 1 27 0 1 0 1
0 111 -146 0 0 0 1 27 0 1 0 1
0 123 -146 8 0 0 1 27 0 1 0 1
phys
0 123 -208 16 0 0 1 28 0 1 0 1
0 135 -208 16 0 0 1 28 0 1 0 1
0 135 -146 16 0 0 1 28 0 1 0 1
phys
0 123 -208 16 0 0 1 28 0 1 0 1
0 135 -146 16 0 0 1 28 0 1 0 1
0 123 -146 16 0 0 1 28 0 1 0 1
phys
0 123 -146 8 0 0 1 28 0 1 0 1
0 135 -146 16 0 0 1 28 0 1 0 1
0 135 -208 16 0 0 1 28 0 1 0 1
phys
0 123 -146 8 0 0 1 28 0 1 0 1
0 135 -208 16 0 0 1 28 0 1 0 1
0 123 -208 8 0 0 1 28 0 1 0 1
phys
0 123 -146 16 0 0 1 28 0 1 0 1
0 135 -146 16 0 0 1 28 0 1 0 1
0 123 -146 8 0 0 1 28 0 1 0 1
phys
0 135 -208 16 0 0 1 28 0 1 0 1
0 123 -208 16 0 0 1 28 0 1 0 1
0 123 -208 8 0 0 1 28 0 1 0 1
phys
0 123 -208 16 0 0 1 28 0 1 0 1
0 123 -146 16 0 0 1 28 0 1 0 1
0 123 -146 8 0 0 1 28 0 1 0 1
phys
0 123 -208 16 0 0 1 28 0 1 0 1
0 123 -146 8 0 0 1 28 0 1 0 1
0 123 -208 8 0 0 1 28 0 1 0 1
phys
0 220 -102 128.021 0 0 1 29 0 1 0 1
0 220 -102 16 0 0 1 29 0 1 0 1
0 216 -102 16 0 0 1 29 0 1 0 1
phys
0 220 -102 128.021 0 0 1 29 0 1 0 1
0 216 -102 16 0 0 1 29 0 1 0 1
0 216 -102 124.019 0 0 1 29 0 1 0 1
phys
0 220 -112 16 0 0 1 29 0 1 0 1
0 220 -112 128.025 0 0 1 29 0 1 0 1
0 216 -112 124.023 0 0 1 29 0 1 0 1
phys
0 220 -112 16 0 0 1 29 0 1 0 1
0 216 -112 124.023 0 0 1 29 0 1 0 1
0 216 -112 16 0 0 1 29 0 1 0 1
phys
0 216 -112 16 0 0 1 29 0 1 0 1
0 216 -112 124.023 0 0 1 29 0 1 0 1
0 216 -102 124.019 0 0 1 29 0 1 0 1
phys
0 216 -112 16 0 0 1 29 0 1 0 1
0 216 -102 124.019 0 0 1 29 0 1 0 1
0 216 -102 16 0 0 1 29 0 1 0 1
phys
0 220 -112 128.025 0 0 1 29 0 1 0 1
0 220 -112 16 0 0 1 29 0 1 0 1
0 220 -102 16 0 0 1 29 0 1 0 1
phys
0 220 -112 128.025 0 0 1 29 0 1 0 1
0 220 -102 16 0 0 1 29 0 1 0 1
0 220 -102 128.021 0 0 1 29 0 1 0 1
phys
0 220 -112 16 0 0 1 29 0 1 0 1
0 216 -112 16 0 0 1 29 0 1 0 1
0 216 -102 16 0 0 1 29 0 1 0 1
phys
0 220 -112 16 0 0 1 29 0 1 0 1
0 216 -102 16 0 0 1 29 0 1 0 1
0 220 -102 16 0 0 1 29 0 1 0 1
phys
0 216 -112 124.023 0 0 1 29 0 1 0 1
0 220 -112 128.025 0 0 1 29 0 1 0 1
0 220 -102 128.021 0 0 1 29 0 1 0 1
phys
0 216 -112 124.023 0 0 1 29 0 1 0 1
0 220 -102 128.021 0 0 1 29 0 1 0 1
0 216 -102 124.019 0 0 1 29 0 1 0 1
phys
0 236 -208 308 0 0 1 30 0 1 0 1
0 236 -200 308 0 0 1 30 0 1 0 1
0 236 -200 268 0 0 1 30 0 1 0 1
phys
0 236 -208 308 0 0 1 30 0 1 0 1
0 236 -200 268 0 0 1 30 0 1 0 1
0 236 -208 268 0 0 1 30 0 1 0 1
phys
0 244 -208 268 0 0 1 30 0 1 0 1
0 244 -200 268 0 0 1 30 0 1 0 1
0 244 -200 308 0 0 1 30 0 1 0 1
phys
0 244 -208 268 0 0 1 30 0 1 0 1
0 244 -200 308 0 0 1 30 0 1 0 1
0 244 -208 308 0 0 1 30 0 1 0 1
phys
0 236 -208 268 0 0 1 30 0 1 0 1
0 236 -200 268 0 0 1 30 0 1 0 1
0 244 -200 268 0 0 1 30 0 1 0 1
phys
0 236 -208 268 0 0 1 30 0 1 0 1
0 244 -200 268 0 0 1 30 0 1 0 1
0 244 -208 268 0 0 1 30 0 1 0 1
phys
0 244 -208 308 0 0 1 30 0 1 0 1
0 244 -200 308 0 0 1 30 0 1 0 1
0 236 -200 308 0 0 1 30 0 1 0 1
phys
0 244 -208 308 0 0 1 30 0 1 0 1
0 236 -200 308 0 0 1 30 0 1 0 1
0 236 -208 308 0 0 1 30 0 1 0 1
phys
0 244 -200 308 0 0 1 30 0 1 0 1
0 244 -200 268 0 0 1 30 0 1 0 1
0 236 -200 268 0 0 1 30 0 1 0 1
phys
0 244 -200 308 0 0 1 30 0 1 0 1
0 236 -200 268 0 0 1 30 0 1 0 1
0 236 -200 308 0 0 1 30 0 1 0 1
phys
0 244 -208 268 0 0 1 30 0 1 0 1
0 244 -208 308 0 0 1 30 0 1 0 1
0 236 -208 308 0 0 1 30 0 1 0 1
phys
0 244 -208 268 0 0 1 30 0 1 0 1
0 236 -208 308 0 0 1 30 0 1 0 1
0 236 -208 268 0 0 1 30 0 1 0 1
phys
0 40 -26 128 0 0 1 31 0 1 0 1
0 48 -26 128 0 0 1 31 0 1 0 1
0 48 -22 124 0 0 1 31 0 1 0 1
phys
0 40 -26 128 0 0 1 31 0 1 0 1
0 48 -22 124 0 0 1 31 0 1 0 1
0 40 -22 124 0 0 1 31 0 1 0 1
phys
0 40 -22 16 0 0 1 31 0 1 0 1
0 40 -22 124 0 0 1 31 0 1 0 1
0 48 -22 124 0 0 1 31 0 1 0 1
phys
0 40 -22 16 0 0 1 31 0 1 0 1
0 48 -22 124 0 0 1 31 0 1 0 1
0 48 -22 16 0 0 1 31 0 1 0 1
phys
0 48 -26 16 0 0 1 31 0 1 0 1
0 48 -26 128 0 0 1 31 0 1 0 1
0 40 -26 128 0 0 1 31 0 1 0 1
phys
0 48 -26 16 0 0 1 31 0 1 0 1
0 40 -26 128 0 0 1 31 0 1 0 1
0 40 -26 16 0 0 1 31 0 1 0 1
phys
0 40 -26 16 0 0 1 31 0 1 0 1
0 40 -26 128 0 0 1 31 0 1 0 1
0 40 -22 124 0 0 1 31 0 1 0 1
phys
0 40 -26 16 0 0 1 31 0 1 0 1
0 40 -22 124 0 0 1 31 0 1 0 1
0 40 -22 16 0 0 1 31 0 1 0 1
phys
0 48 -22 16 0 0 1 31 0 1 0 1
0 48 -22 124 0 0 1 31 0 1 0 1
0 48 -26 128 0 0 1 31 0 1 0 1
phys
0 48 -22 16 0 0 1 31 0 1 0 1
0 48 -26 128 0 0 1 31 0 1 0 1
0 48 -26 16 0 0 1 31 0 1 0 1
phys
0 48 -26 16 0 0 1 31 0 1 0 1
0 40 -26 16 0 0 1 31 0 1 0 1
0 40 -22 16 0 0 1 31 0 1 0 1
phys
0 48 -26 16 0 0 1 31 0 1 0 1
0 40 -22 16 0 0 1 31 0 1 0 1
0 48 -22 16 0 0 1 31 0 1 0 1
phys
0 220 -102 380.0307 0 0 1 32 0 1 0 1
0 220 -102 268 0 0 1 32 0 1 0 1
0 216 -102 268 0 0 1 32 0 1 0 1
phys
0 220 -102 380.0307 0 0 1 32 0 1 0 1
0 216 -102 268 0 0 1 32 0 1 0 1
0 216 -102 376.0306 0 0 1 32 0 1 0 1
phys
0 220 -112 268 0 0 1 32 0 1 0 1
0 220 -112 380.0267 0 0 1 32 0 1 0 1
0 216 -112 376.0266 0 0 1 32 0 1 0 1
phys
0 220 -112 268 0 0 1 32 0 1 0 1
0 216 -112 376.0266 0 0 1 32 0 1 0 1
0 216 -112 268 0 0 1 32 0 1 0 1
phys
0 216 -112 268 0 0 1 32 0 1 0 1
0 216 -112 376.0266 0 0 1 32 0 1 0 1
0 216 -102 376.0306 0 0 1 32 0 1 0 1
phys
0 216 -112 268 0 0 1 32 0 1 0 1
0 216 -102 376.0306 0 0 1 32 0 1 0 1
0 216 -102 268 0 0 1 32 0 1 0 1
phys
0 220 -112 380.0267 0 0 1 32 0 1 0 1
0 220 -112 268 0 0 1 32 0 1 0 1
0 220 -102 268 0 0 1 32 0 1 0 1
phys
0 220 -112 380.0267 0 0 1 32 0 1 0 1
0 220 -102 268 0 0 1 32 0 1 0 1
0 220 -102 380.0307 0 0 1 32 0 1 0 1
phys
0 220 -112 268 0 0 1 32 0 1 0 1
0 216 -112 268 0 0 1 32 0 1 0 1
0 216 -102 268 0 0 1 32 0 1 0 1
phys
0 220 -112 268 0 0 1 32 0 1 0 1
0 216 -102 268 0 0 1 32 0 1 0 1
0 220 -102 268 0 0 1 32 0 1 0 1
phys
0 216 -112 376.0266 0 0 1 32 0 1 0 1
0 220 -112 380.0267 0 0 1 32 0 1 0 1
0 220 -102 380.0307 0 0 1 32 0 1 0 1
phys
0 216 -112 376.0266 0 0 1 32 0 1 0 1
0 220 -102 380.0307 0 0 1 32 0 1 0 1
0 216 -102 376.0306 0 0 1 32 0 1 0 1
phys
0 324 -200 349 0 0 1 33 0 1 0 1
0 324 -200 234 0 0 1 33 0 1 0 1
0 322 -200 234 0 0 1 33 0 1 0 1
phys
0 324 -200 349 0 0 1 33 0 1 0 1
0 322 -200 234 0 0 1 33 0 1 0 1
0 322 -200 349 0 0 1 33 0 1 0 1
phys
0 324 -208 234 0 0 1 33 0 1 0 1
0 324 -208 349 0 0 1 33 0 1 0 1
0 322 -208 349 0 0 1 33 0 1 0 1
phys
0 324 -208 234 0 0 1 33 0 1 0 1
0 322 -208 349 0 0 1 33 0 1 0 1
0 322 -208 234 0 0 1 33 0 1 0 1
phys
0 322 -208 234 0 0 1 33 0 1 0 1
0 322 -208 349 0 0 1 33 0 1 0 1
0 322 -200 349 0 0 1 33 0 1 0 1
phys
0 322 -208 234 0 0 1 33 0 1 0 1
0 322 -200 349 0 0 1 33 0 1 0 1
0 322 -200 234 0 0 1 33 0 1 0 1
phys
0 324 -208 349 0 0 1 33 0 1 0 1
0 324 -208 234 0 0 1 33 0 1 0 1
0 324 -200 234 0 0 1 33 0 1 0 1
phys
0 324 -208 349 0 0 1 33 0 1 0 1
0 324 -200 234 0 0 1 33 0 1 0 1
0 324 -200 349 0 0 1 33 0 1 0 1
phys
0 324 -208 234 0 0 1 33 0 1 0 1
0 322 -208 234 0 0 1 33 0 1 0 1
0 322 -200 234 0 0 1 33 0 1 0 1
phys
0 324 -208 234 0 0 1 33 0 1 0 1
0 322 -200 234 0 0 1 33 0 1 0 1
0 324 -200 234 0 0 1 33 0 1 0 1
phys
0 322 -208 349 0 0 1 33 0 1 0 1
0 324 -208 349 0 0 1 33 0 1 0 1
0 324 -200 349 0 0 1 33 0 1 0 1
phys
0 322 -208 349 0 0 1 33 0 1 0 1
0 324 -200 349 0 0 1 33 0 1 0 1
0 322 -200 349 0 0 1 33 0 1 0 1
phys
0 87 -146 -16 0 0 1 34 0 1 0 1
0 87 -146 -8 0 0 1 34 0 1 0 1
0 99 -146 -8 0 0 1 34 0 1 0 1
phys
0 99 -208 -8 0 0 1 34 0 1 0 1
0 87 -208 -8 0 0 1 34 0 1 0 1
0 87 -208 -16 0 0 1 34 0 1 0 1
phys
0 87 -208 -16 0 0 1 34 0 1 0 1
0 87 -208 -8 0 0 1 34 0 1 0 1
0 87 -146 -8 0 0 1 34 0 1 0 1
phys
0 87 -208 -16 0 0 1 34 0 1 0 1
0 87 -146 -8 0 0 1 34 0 1 0 1
0 87 -146 -16 0 0 1 34 0 1 0 1
phys
0 87 -208 -8 0 0 1 34 0 1 0 1
0 99 -208 -8 0 0 1 34 0 1 0 1
0 99 -146 -8 0 0 1 34 0 1 0 1
phys
0 87 -208 -8 0 0 1 34 0 1 0 1
0 99 -146 -8 0 0 1 34 0 1 0 1
0 87 -146 -8 0 0 1 34 0 1 0 1
phys
0 99 -208 -8 0 0 1 34 0 1 0 1
0 87 -208 -16 0 0 1 34 0 1 0 1
0 87 -146 -16 0 0 1 34 0 1 0 1
phys
0 99 -208 -8 0 0 1 34 0 1 0 1
0 87 -146 -16 0 0 1 34 0 1 0 1
0 99 -146 -8 0 0 1 34 0 1 0 1
phys
0 -151 -112 98 0 0 1 35 0 1 0 1
0 -155 -112 102 0 0 1 35 0 1 0 1
0 -155 -102 102 0 0 1 35 0 1 0 1
phys
0 -151 -112 98 0 0 1 35 0 1 0 1
0 -155 -102 102 0 0 1 35 0 1 0 1
0 -151 -102 98 0 0 1 35 0 1 0 1
phys
0 -79 -102 98 0 0 1 35 0 1 0 1
0 -151 -102 98 0 0 1 35 0 1 0 1
0 -155 -102 102 0 0 1 35 0 1 0 1
phys
0 -79 -102 98 0 0 1 35 0 1 0 1
0 -155 -102 102 0 0 1 35 0 1 0 1
0 -75 -102 102 0 0 1 35 0 1 0 1
phys
0 -75 -112 102 0 0 1 35 0 1 0 1
0 -155 -112 102 0 0 1 35 0 1 0 1
0 -151 -112 98 0 0 1 35 0 1 0 1
phys
0 -75 -112 102 0 0 1 35 0 1 0 1
0 -151 -112 98 0 0 1 35 0 1 0 1
0 -79 -112 98 0 0 1 35 0 1 0 1
phys
0 -79 -112 98 0 0 1 35 0 1 0 1
0 -151 -112 98 0 0 1 35 0 1 0 1
0 -151 -102 98 0 0 1 35 0 1 0 1
phys
0 -79 -112 98 0 0 1 35 0 1 0 1
0 -151 -102 98 0 0 1 35 0 1 0 1
0 -79 -102 98 0 0 1 35 0 1 0 1
phys
0 -75 -102 102 0 0 1 35 0 1 0 1
0 -155 -102 102 0 0 1 35 0 1 0 1
0 -155 -112 102 0 0 1 35 0 1 0 1
phys
0 -75 -102 102 0 0 1 35 0 1 0 1
0 -155 -112 102 0 0 1 35 0 1 0 1
0 -75 -112 102 0 0 1 35 0 1 0 1
phys
0 -75 -112 102 0 0 1 35 0 1 0 1
0 -79 -112 98 0 0 1 35 0 1 0 1
0 -79 -102 98 0 0 1 35 0 1 0 1
phys
0 -75 -112 102 0 0 1 35 0 1 0 1
0 -79 -102 98 0 0 1 35 0 1 0 1
0 -75 -102 102 0 0 1 35 0 1 0 1
phys
0 194 -112 260 0 0 1 36 0 1 0 1
0 194 -112 195 0 0 1 36 0 1 0 1
0 184 -112 195 0 0 1 36 0 1 0 1
phys
0 194 -112 260 0 0 1 36 0 1 0 1
0 184 -112 195 0 0 1 36 0 1 0 1
0 184 -112 260 0 0 1 36 0 1 0 1
phys
0 194 -200 252 0 0 1 36 0 1 0 1
0 194 -200 260 0 0 1 36 0 1 0 1
0 184 -200 260 0 0 1 36 0 1 0 1
phys
0 194 -200 252 0 0 1 36 0 1 0 1
0 184 -200 260 0 0 1 36 0 1 0 1
0 184 -200 252 0 0 1 36 0 1 0 1
phys
0 184 -200 252 0 0 1 36 0 1 0 1
0 184 -200 260 0 0 1 36 0 1 0 1
0 184 -112 260 0 0 1 36 0 1 0 1
phys
0 184 -200 252 0 0 1 36 0 1 0 1
0 184 -112 260 0 0 1 36 0 1 0 1
0 184 -112 195 0 0 1 36 0 1 0 1
phys
0 184 -200 252 0 0 1 36 0 1 0 1
0 184 -112 195 0 0 1 36 0 1 0 1
0 184 -122 195 0 0 1 36 0 1 0 1
phys
0 194 -200 260 0 0 1 36 0 1 0 1
0 194 -200 252 0 0 1 36 0 1 0 1
0 194 -122 195 0 0 1 36 0 1 0 1
phys
0 194 -200 260 0 0 1 36 0 1 0 1
0 194 -122 195 0 0 1 36 0 1 0 1
0 194 -112 195 0 0 1 36 0 1 0 1
phys
0 194 -200 260 0 0 1 36 0 1 0 1
0 194 -112 195 0 0 1 36 0 1 0 1
0 194 -112 260 0 0 1 36 0 1 0 1
phys
0 184 -122 195 0 0 1 36 0 1 0 1
0 184 -112 195 0 0 1 36 0 1 0 1
0 194 -112 195 0 0 1 36 0 1 0 1
phys
0 184 -122 195 0 0 1 36 0 1 0 1
0 194 -112 195 0 0 1 36 0 1 0 1
0 194 -122 195 0 0 1 36 0 1 0 1
phys
0 184 -200 260 0 0 1 36 0 1 0 1
0 194 -200 260 0 0 1 36 0 1 0 1
0 194 -112 260 0 0 1 36 0 1 0 1
phys
0 184 -200 260 0 0 1 36 0 1 0 1
0 194 -112 260 0 0 1 36 0 1 0 1
0 184 -112 260 0 0 1 36 0 1 0 1
phys
0 194 -200 252 0 0 1 36 0 1 0 1
0 184 -200 252 0 0 1 36 0 1 0 1
0 184 -122 195 0 0 1 36 0 1 0 1
phys
0 194 -200 252 0 0 1 36 0 1 0 1
0 184 -122 195 0 0 1 36 0 1 0 1
0 194 -122 195 0 0 1 36 0 1 0 1
phys
0 28 -112 300 0 0 1 37 0 1 0 1
0 28 -112 291 0 0 1 37 0 1 0 1
0 -36 -112 291 0 0 1 37 0 1 0 1
phys
0 28 -112 300 0 0 1 37 0 1 0 1
0 -36 -112 291 0 0 1 37 0 1 0 1
0 -36 -112 300 0 0 1 37 0 1 0 1
phys
0 28 -118 299.0001 0 0 1 37 0 1 0 1
0 28 -118 300 0 0 1 37 0 1 0 1
0 -36 -118 300 0 0 1 37 0 1 0 1
phys
0 28 -118 299.0001 0 0 1 37 0 1 0 1
0 -36 -118 300 0 0 1 37 0 1 0 1
0 -36 -118 299.0001 0 0 1 37 0 1 0 1
phys
0 -36 -118 299.0001 0 0 1 37 0 1 0 1
0 -36 -118 300 0 0 1 37 0 1 0 1
0 -36 -112 300 0 0 1 37 0 1 0 1
phys
0 -36 -118 299.0001 0 0 1 37 0 1 0 1
0 -36 -112 300 0 0 1 37 0 1 0 1
0 -36 -112 291 0 0 1 37 0 1 0 1
phys
0 -36 -118 299.0001 0 0 1 37 0 1 0 1
0 -36 -112 291 0 0 1 37 0 1 0 1
0 -36 -114 291 0 0 1 37 0 1 0 1
phys
0 28 -118 300 0 0 1 37 0 1 0 1
0 28 -118 299.0001 0 0 1 37 0 1 0 1
0 28 -114 291 0 0 1 37 0 1 0 1
phys
0 28 -118 300 0 0 1 37 0 1 0 1
0 28 -114 291 0 0 1 37 0 1 0 1
0 28 -112 291 0 0 1 37 0 1 0 1
phys
0 28 -118 300 0 0 1 37 0 1 0 1
0 28 -112 291 0 0 1 37 0 1 0 1
0 28 -112 300 0 0 1 37 0 1 0 1
phys
0 -36 -114 291 0 0 1 37 0 1 0 1
0 -36 -112 291 0 0 1 37 0 1 0 1
0 28 -112 291 0 0 1 37 0 1 0 1
phys
0 -36 -114 291 0 0 1 37 0 1 0 1
0 28 -112 291 0 0 1 37 0 1 0 1
0 28 -114 291 0 0 1 37 0 1 0 1
phys
0 -36 -118 300 0 0 1 37 0 1 0 1
0 28 -118 300 0 0 1 37 0 1 0 1
0 28 -112 300 0 0 1 37 0 1 0 1
phys
0 -36 -118 300 0 0 1 37 0 1 0 1
0 28 -112 300 0 0 1 37 0 1 0 1
0 -36 -112 300 0 0 1 37 0 1 0 1
phys
0 28 -118 299.0001 0 0 1 37 0 1 0 1
0 -36 -118 299.0001 0 0 1 37 0 1 0 1
0 -36 -114 291 0 0 1 37 0 1 0 1
phys
0 28 -118 299.0001 0 0 1 37 0 1 0 1
0 -36 -114 291 0 0 1 37 0 1 0 1
0 28 -114 291 0 0 1 37 0 1 0 1
phys
0 40 -26 128 0 0 1 38 0 1 0 1
0 40 78 128 0 0 1 38 0 1 0 1
0 40 74 124 0 0 1 38 0 1 0 1
phys
0 40 -26 128 0 0 1 38 0 1 0 1
0 40 74 124 0 0 1 38 0 1 0 1
0 40 -22 124 0 0 1 38 0 1 0 1
phys
0 48 -22 124 0 0 1 38 0 1 0 1
0 48 74 124 0 0 1 38 0 1 0 1
0 48 78 128 0 0 1 38 0 1 0 1
phys
0 48 -22 124 0 0 1 38 0 1 0 1
0 48 78 128 0 0 1 38 0 1 0 1
0 48 -26 128 0 0 1 38 0 1 0 1
phys
0 40 -22 124 0 0 1 38 0 1 0 1
0 40 74 124 0 0 1 38 0 1 0 1
0 48 74 124 0 0 1 38 0 1 0 1
phys
0 40 -22 124 0 0 1 38 0 1 0 1
0 48 74 124 0 0 1 38 0 1 0 1
0 48 -22 124 0 0 1 38 0 1 0 1
phys
0 48 -26 128 0 0 1 38 0 1 0 1
0 48 78 128 0 0 1 38 0 1 0 1
0 40 78 128 0 0 1 38 0 1 0 1
phys
0 48 -26 128 0 0 1 38 0 1 0 1
0 40 78 128 0 0 1 38 0 1 0 1
0 40 -26 128 0 0 1 38 0 1 0 1
phys
0 40 74 124 0 0 1 38 0 1 0 1
0 40 78 128 0 0 1 38 0 1 0 1
0 48 78 128 0 0 1 38 0 1 0 1
phys
0 40 74 124 0 0 1 38 0 1 0 1
0 48 78 128 0 0 1 38 0 1 0 1
0 48 74 124 0 0 1 38 0 1 0 1
phys
0 40 -26 128 0 0 1 38 0 1 0 1
0 40 -22 124 0 0 1 38 0 1 0 1
0 48 -22 124 0 0 1 38 0 1 0 1
phys
0 40 -26 128 0 0 1 38 0 1 0 1
0 48 -22 124 0 0 1 38 0 1 0 1
0 48 -26 128 0 0 1 38 0 1 0 1
phys
0 135 -208 -16 0 0 1 39 0 1 0 1
0 87 -208 -16 0 0 1 39 0 1 0 1
0 87 -146 -16 0 0 1 39 0 1 0 1
phys
0 135 -208 -16 0 0 1 39 0 1 0 1
0 87 -146 -16 0 0 1 39 0 1 0 1
0 135 -146 -16 0 0 1 39 0 1 0 1
phys
0 135 -146 16 0 0 1 39 0 1 0 1
0 87 -146 -16 0 0 1 39 0 1 0 1
0 87 -208 -16 0 0 1 39 0 1 0 1
phys
0 135 -146 16 0 0 1 39 0 1 0 1
0 87 -208 -16 0 0 1 39 0 1 0 1
0 135 -208 16 0 0 1 39 0 1 0 1
phys
0 135 -146 -16 0 0 1 39 0 1 0 1
0 87 -146 -16 0 0 1 39 0 1 0 1
0 135 -146 16 0 0 1 39 0 1 0 1
phys
0 135 -208 16 0 0 1 39 0 1 0 1
0 87 -208 -16 0 0 1 39 0 1 0 1
0 135 -208 -16 0 0 1 39 0 1 0 1
phys
0 135 -208 -16 0 0 1 39 0 1 0 1
0 135 -146 -16 0 0 1 39 0 1 0 1
0 135 -146 16 0 0 1 39 0 1 0 1
phys
0 135 -208 -16 0 0 1 39 0 1 0 1
0 135 -146 16 0 0 1 39 0 1 0 1
0 135 -208 16 0 0 1 39 0 1 0 1
phys
0 -41 138 -8 0 0 1 40 0 1 0 1
0 -41 150 -8 0 0 1 40 0 1 0 1
0 -41 150 -16 0 0 1 40 0 1 0 1
phys
0 40 150 -8 0 0 1 40 0 1 0 1
0 40 138 -8 0 0 1 40 0 1 0 1
0 40 150 -16 0 0 1 40 0 1 0 1
phys
0 40 138 -8 0 0 1 40 0 1 0 1
0 40 150 -8 0 0 1 40 0 1 0 1
0 -41 150 -8 0 0 1 40 0 1 0 1
phys
0 40 138 -8 0 0 1 40 0 1 0 1
0 -41 150 -8 0 0 1 40 0 1 0 1
0 -41 138 -8 0 0 1 40 0 1 0 1
phys
0 -41 138 -8 0 0 1 40 0 1 0 1
0 -41 150 -16 0 0 1 40 0 1 0 1
0 40 150 -16 0 0 1 40 0 1 0 1
phys
0 -41 138 -8 0 0 1 40 0 1 0 1
0 40 150 -16 0 0 1 40 0 1 0 1
0 40 138 -8 0 0 1 40 0 1 0 1
phys
0 40 150 -8 0 0 1 40 0 1 0 1
0 40 150 -16 0 0 1 40 0 1 0 1
0 -41 150 -16 0 0 1 40 0 1 0 1
phys
0 40 150 -8 0 0 1 40 0 1 0 1
0 -41 150 -16 0 0 1 40 0 1 0 1
0 -41 150 -8 0 0 1 40 0 1 0 1
phys
0 236 -200 308 0 0 1 41 0 1 0 1
0 236 -200 304 0 0 1 41 0 1 0 1
0 156 -200 304 0 0 1 41 0 1 0 1
phys
0 236 -200 308 0 0 1 41 0 1 0 1
0 156 -200 304 0 0 1 41 0 1 0 1
0 156 -200 308 0 0 1 41 0 1 0 1
phys
0 236 -208 304 0 0 1 41 0 1 0 1
0 236 -208 308 0 0 1 41 0 1 0 1
0 156 -208 308 0 0 1 41 0 1 0 1
phys
0 236 -208 304 0 0 1 41 0 1 0 1
0 156 -208 308 0 0 1 41 0 1 0 1
0 156 -208 304 0 0 1 41 0 1 0 1
phys
0 156 -208 304 0 0 1 41 0 1 0 1
0 156 -208 308 0 0 1 41 0 1 0 1
0 156 -200 308 0 0 1 41 0 1 0 1
phys
0 156 -208 304 0 0 1 41 0 1 0 1
0 156 -200 308 0 0 1 41 0 1 0 1
0 156 -200 304 0 0 1 41 0 1 0 1
phys
0 236 -208 308 0 0 1 41 0 1 0 1
0 236 -208 304 0 0 1 41 0 1 0 1
0 236 -200 304 0 0 1 41 0 1 0 1
phys
0 236 -208 308 0 0 1 41 0 1 0 1
0 236 -200 304 0 0 1 41 0 1 0 1
0 236 -200 308 0 0 1 41 0 1 0 1
phys
0 236 -208 304 0 0 1 41 0 1 0 1
0 156 -208 304 0 0 1 41 0 1 0 1
0 156 -200 304 0 0 1 41 0 1 0 1
phys
0 236 -208 304 0 0 1 41 0 1 0 1
0 156 -200 304 0 0 1 41 0 1 0 1
0 236 -200 304 0 0 1 41 0 1 0 1
phys
0 156 -208 308 0 0 1 41 0 1 0 1
0 236 -208 308 0 0 1 41 0 1 0 1
0 236 -200 308 0 0 1 41 0 1 0 1
phys
0 156 -208 308 0 0 1 41 0 1 0 1
0 236 -200 308 0 0 1 41 0 1 0 1
0 156 -200 308 0 0 1 41 0 1 0 1
end
