version 1
nodes
0 "root" -1
end
skeleton
time 0
0 0 0 0 0 0 0
end
triangles
pepsi2_arch_stairs01
0 68 -160 -16 1 0 0 -68.530527 -10.000868 1 0 1
0 68 160 -16 1 0 0 -63.900897 -10.000868 1 0 1
0 68 160 8 1 0 0 -63.900897 -9.306424 1 0 1
pepsi2_arch_stairs01
0 68 -160 -16 1 0 0 -68.530527 -10.000868 1 0 1
0 68 160 8 1 0 0 -63.900897 -9.306424 1 0 1
0 68 -160 8 1 0 0 -68.530527 -9.306424 1 0 1
pepsi2_arch_stairs01
0 68 -160 8 0 0 1 -68.530527 334.693287 1 0 1
0 68 160 8 0 0 1 -63.900897 334.693287 1 0 1
0 52 144 8 0 0 1 -64.132378 335.15625 1 0 1
pepsi2_arch_stairs01
0 68 -160 8 0 0 1 -68.530527 334.693287 1 0 1
0 52 144 8 0 0 1 -64.132378 335.15625 1 0 1
0 52 -144 8 0 0 1 -68.299045 335.15625 1 0 1
pepsi2_arch_stairs01
0 52 144 16 0 1 0 166.664062 -9.989005 1 0 1
0 52 144 -16 0 1 0 166.664062 -10.914931 1 0 1
0 -52 144 -16 0 1 0 168.168692 -10.914931 1 0 1
pepsi2_arch_stairs01
0 52 144 16 0 1 0 166.664062 -9.989005 1 0 1
0 -52 144 -16 0 1 0 168.168692 -10.914931 1 0 1
0 -52 144 16 0 1 0 168.168692 -9.989005 1 0 1
pepsi2_arch_stairs01
0 52 -144 -16 0 -1 0 -167.097656 -10.914931 1 0 1
0 52 -144 16 0 -1 0 -167.097656 -9.989005 1 0 1
0 -52 -144 16 0 -1 0 -168.602286 -9.989005 1 0 1
pepsi2_arch_stairs01
0 52 -144 -16 0 -1 0 -167.097656 -10.914931 1 0 1
0 -52 -144 16 0 -1 0 -168.602286 -9.989005 1 0 1
0 -52 -144 -16 0 -1 0 -168.602286 -10.914931 1 0 1
pepsi2_arch_stairs01
0 52 -144 16 1 0 0 -68.299045 -9.989005 1 0 1
0 52 -144 -16 1 0 0 -68.299045 -10.914931 1 0 1
0 52 144 -16 1 0 0 -64.132378 -10.914931 1 0 1
pepsi2_arch_stairs01
0 52 -144 16 1 0 0 -68.299045 -9.989005 1 0 1
0 52 144 -16 1 0 0 -64.132378 -10.914931 1 0 1
0 52 144 16 1 0 0 -64.132378 -9.989005 1 0 1
pepsi2_arch_concrete_floor_smooth01
0 -52 -144 16 0 0 1 -90.90625 37.625 1 0 1
0 52 -144 16 0 0 1 -90.09375 37.625 1 0 1
0 52 144 16 0 0 1 -90.09375 35.375 1 0 1
pepsi2_arch_concrete_floor_smooth01
0 -52 -144 16 0 0 1 -90.90625 37.625 1 0 1
0 52 144 16 0 0 1 -90.09375 35.375 1 0 1
0 -52 144 16 0 0 1 -90.90625 35.375 1 0 1
metal_metalfireescape002a
0 -56 192 27 -1 0 0 68.65625 -11 1 0 1
0 -56 192 59 -1 0 0 68.65625 -10 1 0 1
0 -56 429 59 -1 0 0 64.953125 -10 1 0 1
metal_metalfireescape002a
0 -56 192 27 -1 0 0 68.65625 -11 1 0 1
0 -56 429 59 -1 0 0 64.953125 -10 1 0 1
0 -56 429 27 -1 0 0 64.953125 -11 1 0 1
metal_metalfireescape002a
0 -54 192 59 1 0 0 -68.90625 -10 1 0 1
0 -54 192 27 1 0 0 -68.90625 -11 1 0 1
0 -54 429 27 1 0 0 -65.203125 -11 1 0 1
metal_metalfireescape002a
0 -54 192 59 1 0 0 -68.90625 -10 1 0 1
0 -54 429 27 1 0 0 -65.203125 -11 1 0 1
0 -54 429 59 1 0 0 -65.203125 -10 1 0 1
metal_metalfireescape002a
0 -56 192 59 0 0 1 -31.324574 165.978693 1 0 1
0 -54 192 59 0 0 1 -31.324574 165.950284 1 0 1
0 -54 429 59 0 0 1 -29.641335 165.950284 1 0 1
metal_metalfireescape002a
0 -56 192 59 0 0 1 -31.324574 165.978693 1 0 1
0 -54 429 59 0 0 1 -29.641335 165.950284 1 0 1
0 -56 429 59 0 0 1 -29.641335 165.978693 1 0 1
pepsi2_arch_stairs01
0 84 -176 -16 1 0 0 -69.000289 -10.000868 1 0 1
0 84 176 -16 1 0 0 -63.907697 -10.000868 1 0 1
0 84 176 0 1 0 0 -63.907697 -9.537905 1 0 1
pepsi2_arch_stairs01
0 84 -176 -16 1 0 0 -69.000289 -10.000868 1 0 1
0 84 176 0 1 0 0 -63.907697 -9.537905 1 0 1
0 84 -176 0 1 0 0 -69.000289 -9.537905 1 0 1
pepsi2_arch_stairs01
0 84 -176 0 0 0 1 -69.000289 333.464699 1 0 1
0 84 176 0 0 0 1 -63.907697 333.464699 1 0 1
0 68 160 0 0 0 1 -64.139178 333.927662 1 0 1
pepsi2_arch_stairs01
0 84 -176 0 0 0 1 -69.000289 333.464699 1 0 1
0 68 160 0 0 0 1 -64.139178 333.927662 1 0 1
0 68 -160 0 0 0 1 -68.768808 333.927662 1 0 1
pepsi2_arch_concrete_floor_smooth01
0 68 160 -16 -0.707107 0.707107 0 -89.414062 -2.789062 1 0 1
0 68 160 0 -0.707107 0.707107 0 -89.414062 -2.664062 1 0 1
0 84 176 0 -0.707107 0.707107 0 -89.289062 -2.664062 1 0 1
pepsi2_arch_concrete_floor_smooth01
0 68 160 -16 -0.707107 0.707107 0 -89.414062 -2.789062 1 0 1
0 84 176 0 -0.707107 0.707107 0 -89.289062 -2.664062 1 0 1
0 84 176 -16 -0.707107 0.707107 0 -89.289062 -2.789062 1 0 1
pepsi2_arch_concrete_floor_smooth01
0 84 -176 -16 -0.707107 -0.707107 0 -89.289062 -2.789062 1 0 1
0 84 -176 0 -0.707107 -0.707107 0 -89.289062 -2.664062 1 0 1
0 68 -160 0 -0.707107 -0.707107 0 -89.414062 -2.664062 1 0 1
pepsi2_arch_concrete_floor_smooth01
0 84 -176 -16 -0.707107 -0.707107 0 -89.289062 -2.789062 1 0 1
0 68 -160 0 -0.707107 -0.707107 0 -89.414062 -2.664062 1 0 1
0 68 -160 -16 -0.707107 -0.707107 0 -89.414062 -2.789062 1 0 1
pepsi2_arch_concrete_stair01
0 -52 144 16 0 -1 0 -90.423828 -2.373047 1 0 1
0 -52 144 59 0 -1 0 -90.423828 -2.037109 1 0 1
0 -80 144 59 0 -1 0 -90.642578 -2.037109 1 0 1
pepsi2_arch_concrete_stair01
0 -52 144 16 0 -1 0 -90.423828 -2.373047 1 0 1
0 -80 144 59 0 -1 0 -90.642578 -2.037109 1 0 1
0 -80 144 16 0 -1 0 -90.642578 -2.373047 1 0 1
pepsi2_arch_concrete_stair01
0 -88 152 59 -1 0 0 35.269531 -2.037109 1 0 1
0 -88 184 59 -1 0 0 35.019531 -2.037109 1 0 1
0 -88 184 16 -1 0 0 35.019531 -2.373047 1 0 1
pepsi2_arch_concrete_stair01
0 -88 152 59 -1 0 0 35.269531 -2.037109 1 0 1
0 -88 184 16 -1 0 0 35.019531 -2.373047 1 0 1
0 -88 152 16 -1 0 0 35.269531 -2.373047 1 0 1
pepsi2_arch_concrete_stair01
0 -52 144 59 1 0 0 -34.423828 -2.037109 1 0 1
0 -52 144 16 1 0 0 -34.423828 -2.373047 1 0 1
0 -52 192 16 1 0 0 -34.048828 -2.373047 1 0 1
pepsi2_arch_concrete_stair01
0 -52 144 59 1 0 0 -34.423828 -2.037109 1 0 1
0 -52 192 16 1 0 0 -34.048828 -2.373047 1 0 1
0 -52 192 59 1 0 0 -34.048828 -2.037109 1 0 1
pepsi2_arch_concrete_floor_smooth01
0 -80 144 59 0 0 1 -90.359375 36.0625 1 0 1
0 -52 144 59 0 0 1 -90.140625 36.0625 1 0 1
0 -52 192 59 0 0 1 -90.140625 35.6875 1 0 1
pepsi2_arch_concrete_floor_smooth01
0 -80 144 59 0 0 1 -90.359375 36.0625 1 0 1
0 -52 192 59 0 0 1 -90.140625 35.6875 1 0 1
0 -80 192 59 0 0 1 -90.359375 35.6875 1 0 1
pepsi2_arch_concrete_floor_smooth01
0 -80 144 59 0 0 1 -90.359375 36.0625 1 0 1
0 -80 192 59 0 0 1 -90.359375 35.6875 1 0 1
0 -88 184 59 0 0 1 -90.421875 35.75 1 0 1
pepsi2_arch_concrete_floor_smooth01
0 -80 144 59 0 0 1 -90.359375 36.0625 1 0 1
0 -88 184 59 0 0 1 -90.421875 35.75 1 0 1
0 -88 152 59 0 0 1 -90.421875 36 1 0 1
pepsi2_arch_concrete_stair01
0 -80 144 16 -0.707107 -0.707107 0 -39.642648 -2.373047 1 0 1
0 -80 144 59 -0.707107 -0.707107 0 -39.642648 -2.037109 1 0 1
0 -88 152 59 -0.707107 -0.707107 0 -39.731036 -2.037109 1 0 1
pepsi2_arch_concrete_stair01
0 -80 144 16 -0.707107 -0.707107 0 -39.642648 -2.373047 1 0 1
0 -88 152 59 -0.707107 -0.707107 0 -39.731036 -2.037109 1 0 1
0 -88 152 16 -0.707107 -0.707107 0 -39.731036 -2.373047 1 0 1
pepsi2_arch_concrete_stair01
0 -88 184 16 -0.707107 0.707107 0 88.017839 -2.373047 1 0 1
0 -88 184 59 -0.707107 0.707107 0 88.017839 -2.037109 1 0 1
0 -80 192 59 -0.707107 0.707107 0 87.929452 -2.037109 1 0 1
pepsi2_arch_concrete_stair01
0 -88 184 16 -0.707107 0.707107 0 88.017839 -2.373047 1 0 1
0 -80 192 59 -0.707107 0.707107 0 87.929452 -2.037109 1 0 1
0 -80 192 16 -0.707107 0.707107 0 87.929452 -2.373047 1 0 1
pepsi2_arch_concrete_stair01
0 -52 192 59 0 1 0 90.710938 -2.037109 1 0 1
0 -52 192 16 0 1 0 90.710938 -2.373047 1 0 1
0 -80 192 16 0 1 0 90.929688 -2.373047 1 0 1
pepsi2_arch_concrete_stair01
0 -52 192 59 0 1 0 90.710938 -2.037109 1 0 1
0 -80 192 16 0 1 0 90.929688 -2.373047 1 0 1
0 -80 192 59 0 1 0 90.929688 -2.037109 1 0 1
pepsi2_arch_stairs01
0 84 176 -16 0 1 0 166.091725 -10.000868 1 0 1
0 -52 176 -16 0 1 0 168.059317 -10.000868 1 0 1
0 -52 176 0 0 1 0 168.059317 -9.537905 1 0 1
pepsi2_arch_stairs01
0 84 176 -16 0 1 0 166.091725 -10.000868 1 0 1
0 -52 176 0 0 1 0 168.059317 -9.537905 1 0 1
0 84 176 0 0 1 0 166.091725 -9.537905 1 0 1
pepsi2_arch_stairs01
0 -52 160 0 0 0 1 168.063223 127.918981 1 0 1
0 68 160 0 0 0 1 166.327112 127.918981 1 0 1
0 84 176 0 0 0 1 166.095631 127.456019 1 0 1
pepsi2_arch_stairs01
0 -52 160 0 0 0 1 168.063223 127.918981 1 0 1
0 84 176 0 0 0 1 166.095631 127.456019 1 0 1
0 -52 176 0 0 0 1 168.063223 127.456019 1 0 1
pepsi2_arch_concrete_floor_smooth01
0 68 160 0 0.707107 -0.707107 0 -89.414062 -2.664062 1 0 1
0 68 160 -16 0.707107 -0.707107 0 -89.414062 -2.789062 1 0 1
0 84 176 -16 0.707107 -0.707107 0 -89.289062 -2.789062 1 0 1
pepsi2_arch_concrete_floor_smooth01
0 68 160 0 0.707107 -0.707107 0 -89.414062 -2.664062 1 0 1
0 84 176 -16 0.707107 -0.707107 0 -89.289062 -2.789062 1 0 1
0 84 176 0 0.707107 -0.707107 0 -89.289062 -2.664062 1 0 1
pepsi2_arch_concrete_stair01
0 -58 192 16 -1 0 0 34.757812 -2.373047 1 0 1
0 -58 192 27 -1 0 0 34.757812 -2.287109 1 0 1
0 -58 429 27 -1 0 0 32.90625 -2.287109 1 0 1
pepsi2_arch_concrete_stair01
0 -58 192 16 -1 0 0 34.757812 -2.373047 1 0 1
0 -58 429 27 -1 0 0 32.90625 -2.287109 1 0 1
0 -58 429 16 -1 0 0 32.90625 -2.373047 1 0 1
pepsi2_arch_concrete_stair01
0 -52 192 27 1 0 0 -34.048828 -2.287109 1 0 1
0 -52 192 16 1 0 0 -34.048828 -2.373047 1 0 1
0 -52 429 16 1 0 0 -32.197266 -2.373047 1 0 1
pepsi2_arch_concrete_stair01
0 -52 192 27 1 0 0 -34.048828 -2.287109 1 0 1
0 -52 429 16 1 0 0 -32.197266 -2.373047 1 0 1
0 -52 429 27 1 0 0 -32.197266 -2.287109 1 0 1
pepsi2_arch_concrete_stair01
0 -58 192 27 0 0 1 34.757812 -89.287109 1 0 1
0 -52 192 27 0 0 1 34.757812 -89.240234 1 0 1
0 -52 429 27 0 0 1 32.90625 -89.240234 1 0 1
pepsi2_arch_concrete_stair01
0 -58 192 27 0 0 1 34.757812 -89.287109 1 0 1
0 -52 429 27 0 0 1 32.90625 -89.240234 1 0 1
0 -58 429 27 0 0 1 32.90625 -89.287109 1 0 1
pepsi2_arch_stairs01
0 100 -192 -16 1 0 0 -68.99349 -10.000868 1 0 1
0 100 192 -16 1 0 0 -63.437934 -10.000868 1 0 1
0 100 192 -8 1 0 0 -63.437934 -9.769387 1 0 1
pepsi2_arch_stairs01
0 100 -192 -16 1 0 0 -68.99349 -10.000868 1 0 1
0 100 192 -8 1 0 0 -63.437934 -9.769387 1 0 1
0 100 -192 -8 1 0 0 -68.99349 -9.769387 1 0 1
pepsi2_arch_stairs01
0 100 -192 -8 0 0 1 -68.99349 333.228299 1 0 1
0 100 192 -8 0 0 1 -63.437934 333.228299 1 0 1
0 84 176 -8 0 0 1 -63.669416 333.691262 1 0 1
pepsi2_arch_stairs01
0 100 -192 -8 0 0 1 -68.99349 333.228299 1 0 1
0 84 176 -8 0 0 1 -63.669416 333.691262 1 0 1
0 84 -176 -8 0 0 1 -68.762008 333.691262 1 0 1
pepsi2_arch_stairs01
0 -52 176 -8 0 0 1 167.758536 127.690394 1 0 1
0 84 176 -8 0 0 1 165.790943 127.690394 1 0 1
0 100 192 -8 0 0 1 165.559462 127.227431 1 0 1
pepsi2_arch_stairs01
0 -52 176 -8 0 0 1 167.758536 127.690394 1 0 1
0 100 192 -8 0 0 1 165.559462 127.227431 1 0 1
0 -52 192 -8 0 0 1 167.758536 127.227431 1 0 1
pepsi2_arch_stairs01
0 100 192 -16 0 1 0 165.563368 -10.000868 1 0 1
0 -52 192 -16 0 1 0 167.762442 -10.000868 1 0 1
0 -52 192 -8 0 1 0 167.762442 -9.769387 1 0 1
pepsi2_arch_stairs01
0 100 192 -16 0 1 0 165.563368 -10.000868 1 0 1
0 -52 192 -8 0 1 0 167.762442 -9.769387 1 0 1
0 100 192 -8 0 1 0 165.563368 -9.769387 1 0 1
pepsi2_arch_concrete_stair01
0 -52 429 16 1 0 0 32.90625 -2.373047 1 0 1
0 -52 435 16 1 0 0 32.859375 -2.373047 1 0 1
0 -52 435 59 1 0 0 32.859375 -2.037109 1 0 1
pepsi2_arch_concrete_stair01
0 -52 429 16 1 0 0 32.90625 -2.373047 1 0 1
0 -52 435 59 1 0 0 32.859375 -2.037109 1 0 1
0 -52 429 59 1 0 0 32.90625 -2.037109 1 0 1
pepsi2_arch_concrete_stair01
0 -58 429 59 0 0 1 32.90625 -89.287109 1 0 1
0 -52 429 59 0 0 1 32.90625 -89.240234 1 0 1
0 -52 435 59 0 0 1 32.859375 -89.240234 1 0 1
pepsi2_arch_concrete_stair01
0 -58 429 59 0 0 1 32.90625 -89.287109 1 0 1
0 -52 435 59 0 0 1 32.859375 -89.240234 1 0 1
0 -58 435 59 0 0 1 32.859375 -89.287109 1 0 1
pepsi2_arch_concrete_stair01
0 -52 435 59 0 1 0 90.8125 -2.037109 1 0 1
0 -52 435 16 0 1 0 90.8125 -2.373047 1 0 1
0 -58 435 16 0 1 0 90.859375 -2.373047 1 0 1
pepsi2_arch_concrete_stair01
0 -52 435 59 0 1 0 90.8125 -2.037109 1 0 1
0 -58 435 16 0 1 0 90.859375 -2.373047 1 0 1
0 -58 435 59 0 1 0 90.859375 -2.037109 1 0 1
pepsi2_arch_concrete_stair01
0 -52 429 16 0 -1 0 -91.046875 -2.373047 1 0 1
0 -52 429 59 0 -1 0 -91.046875 -2.037109 1 0 1
0 -58 429 59 0 -1 0 -91.09375 -2.037109 1 0 1
pepsi2_arch_concrete_stair01
0 -52 429 16 0 -1 0 -91.046875 -2.373047 1 0 1
0 -58 429 59 0 -1 0 -91.09375 -2.037109 1 0 1
0 -58 429 16 0 -1 0 -91.09375 -2.373047 1 0 1
pepsi2_arch_concrete_stair01
0 -58 429 59 -1 0 0 32.90625 -2.037109 1 0 1
0 -58 435 59 -1 0 0 32.859375 -2.037109 1 0 1
0 -58 435 16 -1 0 0 32.859375 -2.373047 1 0 1
pepsi2_arch_concrete_stair01
0 -58 429 59 -1 0 0 32.90625 -2.037109 1 0 1
0 -58 435 16 -1 0 0 32.859375 -2.373047 1 0 1
0 -58 429 16 -1 0 0 32.90625 -2.373047 1 0 1
pepsi2_arch_stairs01
0 68 160 -16 0 1 0 166.096644 -10.000868 1 0 1
0 -52 160 -16 0 1 0 167.832755 -10.000868 1 0 1
0 -52 160 8 0 1 0 167.832755 -9.306424 1 0 1
pepsi2_arch_stairs01
0 68 160 -16 0 1 0 166.096644 -10.000868 1 0 1
0 -52 160 8 0 1 0 167.832755 -9.306424 1 0 1
0 68 160 8 0 1 0 166.096644 -9.306424 1 0 1
pepsi2_arch_stairs01
0 -52 144 8 0 0 1 167.836661 129.155382 1 0 1
0 52 144 8 0 0 1 166.332031 129.155382 1 0 1
0 68 160 8 0 0 1 166.10055 128.692419 1 0 1
pepsi2_arch_stairs01
0 -52 144 8 0 0 1 167.836661 129.155382 1 0 1
0 68 160 8 0 0 1 166.10055 128.692419 1 0 1
0 -52 160 8 0 0 1 167.836661 128.692419 1 0 1
end
