version 1
nodes
0 "root" -1
end
skeleton
time 0
0 0 0 0 0 0 0
end
triangles
cs_italy_woodbeam01
0 -24 87 100 0 1 0 -1.0625 -962.625 1 0 1
0 -24 87 -20 0 1 0 -2 -962.625 1 0 1
0 -30 87 -20 0 1 0 -2 -963 1 0 1
cs_italy_woodbeam01
0 -24 87 100 0 1 0 -1.0625 -962.625 1 0 1
0 -30 87 -20 0 1 0 -2 -963 1 0 1
0 -30 87 100 0 1 0 -1.0625 -963 1 0 1
cs_italy_woodbeam01
0 -24 79 -20 0 -1 0 -2 -962.625 1 0 1
0 -24 79 100 0 -1 0 -1.0625 -962.625 1 0 1
0 -30 79 100 0 -1 0 -1.0625 -963 1 0 1
cs_italy_woodbeam01
0 -24 79 -20 0 -1 0 -2 -962.625 1 0 1
0 -30 79 100 0 -1 0 -1.0625 -963 1 0 1
0 -30 79 -20 0 -1 0 -2 -963 1 0 1
cs_italy_woodbeam01
0 -30 79 -20 -1 0 0 -2 -209 1 0 1
0 -30 79 100 -1 0 0 -1.0625 -209 1 0 1
0 -30 87 100 -1 0 0 -1.0625 -208.5 1 0 1
cs_italy_woodbeam01
0 -30 79 -20 -1 0 0 -2 -209 1 0 1
0 -30 87 100 -1 0 0 -1.0625 -208.5 1 0 1
0 -30 87 -20 -1 0 0 -2 -208.5 1 0 1
cs_italy_woodbeam01
0 -24 79 100 1 0 0 2 -209 1 0 1
0 -24 79 -20 1 0 0 2.9375 -209 1 0 1
0 -24 87 -20 1 0 0 2.9375 -208.5 1 0 1
cs_italy_woodbeam01
0 -24 79 100 1 0 0 2 -209 1 0 1
0 -24 87 -20 1 0 0 2.9375 -208.5 1 0 1
0 -24 87 100 1 0 0 2 -208.5 1 0 1
pepsi2_arch_woodf3
0 -24 79 -20 0 0 -1 -85.510882 -18.596261 1 0 1
0 -30 79 -20 0 0 -1 -85.544364 -18.596261 1 0 1
0 -30 87 -20 0 0 -1 -85.544364 -18.551618 1 0 1
pepsi2_arch_woodf3
0 -24 79 -20 0 0 -1 -85.510882 -18.596261 1 0 1
0 -30 87 -20 0 0 -1 -85.544364 -18.551618 1 0 1
0 -24 87 -20 0 0 -1 -85.510882 -18.551618 1 0 1
pepsi2_arch_woodf3
0 -30 79 100 0 0 1 -85.544364 -18.596261 1 0 1
0 -24 79 100 0 0 1 -85.510882 -18.596261 1 0 1
0 -24 87 100 0 0 1 -85.510882 -18.551618 1 0 1
pepsi2_arch_woodf3
0 -30 79 100 0 0 1 -85.544364 -18.596261 1 0 1
0 -24 87 100 0 0 1 -85.510882 -18.551618 1 0 1
0 -30 87 100 0 0 1 -85.544364 -18.551618 1 0 1
pepsi2_arch_woodf3
0 -16 87 86 -1 0 0 26.117188 -1.109375 1 0 1
0 -16 101 100 -1 0 0 26.007812 -1 1 0 1
0 -16 105 100 -1 0 0 25.976562 -1 1 0 1
pepsi2_arch_woodf3
0 -16 87 86 -1 0 0 26.117188 -1.109375 1 0 1
0 -16 105 100 -1 0 0 25.976562 -1 1 0 1
0 -16 87 82.001 -1 0 0 26.117188 -1.140617 1 0 1
cs_italy_woodbeam01
0 -10 87 82.001 1 0 0 -87.481534 -135.490038 1 0 1
0 -10 105 100 1 0 0 -87.322435 -135.489994 1 0 1
0 -10 101 100 1 0 0 -87.340113 -135.666769 1 0 1
cs_italy_woodbeam01
0 -10 87 82.001 1 0 0 -87.481534 -135.490038 1 0 1
0 -10 101 100 1 0 0 -87.340113 -135.666769 1 0 1
0 -10 87 86 1 0 0 -87.46386 -135.666769 1 0 1
pepsi2_arch_woodf3
0 -10 101 100 0 0 1 -85.432757 -18.473493 1 0 1
0 -10 105 100 0 0 1 -85.432757 -18.451172 1 0 1
0 -16 105 100 0 0 1 -85.466239 -18.451172 1 0 1
pepsi2_arch_woodf3
0 -10 101 100 0 0 1 -85.432757 -18.473493 1 0 1
0 -16 105 100 0 0 1 -85.466239 -18.451172 1 0 1
0 -16 101 100 0 0 1 -85.466239 -18.473493 1 0 1
cs_italy_woodbeam01
0 -10 87 86 0 -0.707107 0.707107 -26.21875 963.625 1 0 1
0 -10 101 100 0 -0.707107 0.707107 -26.109375 963.625 1 0 1
0 -16 101 100 0 -0.707107 0.707107 -26.109375 964 1 0 1
cs_italy_woodbeam01
0 -10 87 86 0 -0.707107 0.707107 -26.21875 963.625 1 0 1
0 -16 101 100 0 -0.707107 0.707107 -26.109375 964 1 0 1
0 -16 87 86 0 -0.707107 0.707107 -26.21875 964 1 0 1
cs_italy_woodbeam01
0 -16 87 82.001 0 0.707087 -0.707126 -26.21875 964 1 0 1
0 -16 105 100 0 0.707087 -0.707126 -26.078125 964 1 0 1
0 -10 105 100 0 0.707087 -0.707126 -26.078125 963.625 1 0 1
cs_italy_woodbeam01
0 -16 87 82.001 0 0.707087 -0.707126 -26.21875 964 1 0 1
0 -10 105 100 0 0.707087 -0.707126 -26.078125 963.625 1 0 1
0 -10 87 82.001 0 0.707087 -0.707126 -26.21875 963.625 1 0 1
pepsi2_arch_woodf3
0 -10 87 82.001 0 -1 0 -120.390625 -1.140617 1 0 1
0 -10 87 86 0 -1 0 -120.390625 -1.109375 1 0 1
0 -16 87 86 0 -1 0 -120.4375 -1.109375 1 0 1
pepsi2_arch_woodf3
0 -10 87 82.001 0 -1 0 -120.390625 -1.140617 1 0 1
0 -16 87 86 0 -1 0 -120.4375 -1.109375 1 0 1
0 -16 87 82.001 0 -1 0 -120.4375 -1.140617 1 0 1
cs_italy_woodbeam01
0 -24 -75 100 0 1 0 -1.0625 -962.625 1 0 1
0 -24 -75 -20 0 1 0 -2 -962.625 1 0 1
0 -30 -75 -20 0 1 0 -2 -963 1 0 1
cs_italy_woodbeam01
0 -24 -75 100 0 1 0 -1.0625 -962.625 1 0 1
0 -30 -75 -20 0 1 0 -2 -963 1 0 1
0 -30 -75 100 0 1 0 -1.0625 -963 1 0 1
cs_italy_woodbeam01
0 -24 -83 -20 0 -1 0 -2 -962.625 1 0 1
0 -24 -83 100 0 -1 0 -1.0625 -962.625 1 0 1
0 -30 -83 100 0 -1 0 -1.0625 -963 1 0 1
cs_italy_woodbeam01
0 -24 -83 -20 0 -1 0 -2 -962.625 1 0 1
0 -30 -83 100 0 -1 0 -1.0625 -963 1 0 1
0 -30 -83 -20 0 -1 0 -2 -963 1 0 1
cs_italy_woodbeam01
0 -30 -83 -20 -1 0 0 -2 -219 1 0 1
0 -30 -83 100 -1 0 0 -1.0625 -219 1 0 1
0 -30 -75 100 -1 0 0 -1.0625 -218.5 1 0 1
cs_italy_woodbeam01
0 -30 -83 -20 -1 0 0 -2 -219 1 0 1
0 -30 -75 100 -1 0 0 -1.0625 -218.5 1 0 1
0 -30 -75 -20 -1 0 0 -2 -218.5 1 0 1
cs_italy_woodbeam01
0 -24 -83 100 1 0 0 2 -219 1 0 1
0 -24 -83 -20 1 0 0 2.9375 -219 1 0 1
0 -24 -75 -20 1 0 0 2.9375 -218.5 1 0 1
cs_italy_woodbeam01
0 -24 -83 100 1 0 0 2 -219 1 0 1
0 -24 -75 -20 1 0 0 2.9375 -218.5 1 0 1
0 -24 -75 100 1 0 0 2 -218.5 1 0 1
pepsi2_arch_woodf3
0 -24 -83 -20 0 0 -1 -85.510882 -19.500279 1 0 1
0 -30 -83 -20 0 0 -1 -85.544364 -19.500279 1 0 1
0 -30 -75 -20 0 0 -1 -85.544364 -19.455636 1 0 1
pepsi2_arch_woodf3
0 -24 -83 -20 0 0 -1 -85.510882 -19.500279 1 0 1
0 -30 -75 -20 0 0 -1 -85.544364 -19.455636 1 0 1
0 -24 -75 -20 0 0 -1 -85.510882 -19.455636 1 0 1
pepsi2_arch_woodf3
0 -30 -83 100 0 0 1 -85.544364 -19.500279 1 0 1
0 -24 -83 100 0 0 1 -85.510882 -19.500279 1 0 1
0 -24 -75 100 0 0 1 -85.510882 -19.455636 1 0 1
pepsi2_arch_woodf3
0 -30 -83 100 0 0 1 -85.544364 -19.500279 1 0 1
0 -24 -75 100 0 0 1 -85.510882 -19.455636 1 0 1
0 -30 -75 100 0 0 1 -85.544364 -19.455636 1 0 1
cs_italy_cellarwall01c
0 16 -88 -20 0 -1 0 -199.498047 -3.065755 1 0 1
0 16 -88 20 0 -1 0 -199.498047 -2.544922 1 0 1
0 -16 -88 20 0 -1 0 -199.914714 -2.544922 1 0 1
cs_italy_cellarwall01c
0 16 -88 -20 0 -1 0 -199.498047 -3.065755 1 0 1
0 -16 -88 20 0 -1 0 -199.914714 -2.544922 1 0 1
0 -16 -88 -20 0 -1 0 -199.914714 -3.065755 1 0 1
cs_italy_cellarwall01c
0 16 -88 20 1 0 0 -46.496745 -2.544922 1 0 1
0 16 -88 -20 1 0 0 -46.496745 -3.065755 1 0 1
0 16 87 -20 1 0 0 -44.218099 -3.065755 1 0 1
cs_italy_cellarwall01c
0 16 -88 20 1 0 0 -46.496745 -2.544922 1 0 1
0 16 87 -20 1 0 0 -44.218099 -3.065755 1 0 1
0 16 87 20 1 0 0 -44.218099 -2.544922 1 0 1
cs_italy_woodbeam01
0 -410 87 100 0 1 0 -1.0625 -986.625 1 0 1
0 -410 87 -20 0 1 0 -2 -986.625 1 0 1
0 -416 87 -20 0 1 0 -2 -987 1 0 1
cs_italy_woodbeam01
0 -410 87 100 0 1 0 -1.0625 -986.625 1 0 1
0 -416 87 -20 0 1 0 -2 -987 1 0 1
0 -416 87 100 0 1 0 -1.0625 -987 1 0 1
cs_italy_woodbeam01
0 -410 79 -20 0 -1 0 -2 -986.625 1 0 1
0 -410 79 100 0 -1 0 -1.0625 -986.625 1 0 1
0 -416 79 100 0 -1 0 -1.0625 -987 1 0 1
cs_italy_woodbeam01
0 -410 79 -20 0 -1 0 -2 -986.625 1 0 1
0 -416 79 100 0 -1 0 -1.0625 -987 1 0 1
0 -416 79 -20 0 -1 0 -2 -987 1 0 1
cs_italy_woodbeam01
0 -416 79 -20 -1 0 0 -2 -209 1 0 1
0 -416 79 100 -1 0 0 -1.0625 -209 1 0 1
0 -416 87 100 -1 0 0 -1.0625 -208.5 1 0 1
cs_italy_woodbeam01
0 -416 79 -20 -1 0 0 -2 -209 1 0 1
0 -416 87 100 -1 0 0 -1.0625 -208.5 1 0 1
0 -416 87 -20 -1 0 0 -2 -208.5 1 0 1
cs_italy_woodbeam01
0 -410 79 100 1 0 0 2 -209 1 0 1
0 -410 79 -20 1 0 0 2.9375 -209 1 0 1
0 -410 87 -20 1 0 0 2.9375 -208.5 1 0 1
cs_italy_woodbeam01
0 -410 79 100 1 0 0 2 -209 1 0 1
0 -410 87 -20 1 0 0 2.9375 -208.5 1 0 1
0 -410 87 100 1 0 0 2 -208.5 1 0 1
pepsi2_arch_woodf3
0 -410 79 -20 0 0 -1 -87.6649 -18.596261 1 0 1
0 -416 79 -20 0 0 -1 -87.698382 -18.596261 1 0 1
0 -416 87 -20 0 0 -1 -87.698382 -18.551618 1 0 1
pepsi2_arch_woodf3
0 -410 79 -20 0 0 -1 -87.6649 -18.596261 1 0 1
0 -416 87 -20 0 0 -1 -87.698382 -18.551618 1 0 1
0 -410 87 -20 0 0 -1 -87.6649 -18.551618 1 0 1
pepsi2_arch_woodf3
0 -416 79 100 0 0 1 -87.698382 -18.596261 1 0 1
0 -410 79 100 0 0 1 -87.6649 -18.596261 1 0 1
0 -410 87 100 0 0 1 -87.6649 -18.551618 1 0 1
pepsi2_arch_woodf3
0 -416 79 100 0 0 1 -87.698382 -18.596261 1 0 1
0 -410 87 100 0 0 1 -87.6649 -18.551618 1 0 1
0 -416 87 100 0 0 1 -87.698382 -18.551618 1 0 1
pepsi2_arch_woodf3
0 -16 -61 100 0 0 1 -85.466239 -19.377511 1 0 1
0 -10 -61 100 0 0 1 -85.432757 -19.377511 1 0 1
0 -10 -57 100 0 0 1 -85.432757 -19.35519 1 0 1
pepsi2_arch_woodf3
0 -16 -61 100 0 0 1 -85.466239 -19.377511 1 0 1
0 -10 -57 100 0 0 1 -85.432757 -19.35519 1 0 1
0 -16 -57 100 0 0 1 -85.466239 -19.35519 1 0 1
cs_italy_woodbeam01
0 -16 -75 86 0 -0.707107 0.707107 -28.21875 964 1 0 1
0 -10 -75 86 0 -0.707107 0.707107 -28.21875 963.625 1 0 1
0 -10 -61 100 0 -0.707107 0.707107 -28.109375 963.625 1 0 1
cs_italy_woodbeam01
0 -16 -75 86 0 -0.707107 0.707107 -28.21875 964 1 0 1
0 -10 -61 100 0 -0.707107 0.707107 -28.109375 963.625 1 0 1
0 -16 -61 100 0 -0.707107 0.707107 -28.109375 964 1 0 1
cs_italy_woodbeam01
0 -10 -75 82.001 0 0.707087 -0.707126 -28.21875 963.625 1 0 1
0 -16 -75 82.001 0 0.707087 -0.707126 -28.21875 964 1 0 1
0 -16 -57 100 0 0.707087 -0.707126 -28.078125 964 1 0 1
cs_italy_woodbeam01
0 -10 -75 82.001 0 0.707087 -0.707126 -28.21875 963.625 1 0 1
0 -16 -57 100 0 0.707087 -0.707126 -28.078125 964 1 0 1
0 -10 -57 100 0 0.707087 -0.707126 -28.078125 963.625 1 0 1
pepsi2_arch_woodf3
0 -10 -75 86 0 -1 0 -120.390625 -1.109375 1 0 1
0 -16 -75 86 0 -1 0 -120.4375 -1.109375 1 0 1
0 -16 -75 82.001 0 -1 0 -120.4375 -1.140617 1 0 1
pepsi2_arch_woodf3
0 -10 -75 86 0 -1 0 -120.390625 -1.109375 1 0 1
0 -16 -75 82.001 0 -1 0 -120.4375 -1.140617 1 0 1
0 -10 -75 82.001 0 -1 0 -120.390625 -1.140617 1 0 1
pepsi2_arch_woodf3
0 -16 -75 86 -1 0 0 27.382812 -1.109375 1 0 1
0 -16 -61 100 -1 0 0 27.273438 -1 1 0 1
0 -16 -57 100 -1 0 0 27.242188 -1 1 0 1
pepsi2_arch_woodf3
0 -16 -75 86 -1 0 0 27.382812 -1.109375 1 0 1
0 -16 -57 100 -1 0 0 27.242188 -1 1 0 1
0 -16 -75 82.001 -1 0 0 27.382812 -1.140617 1 0 1
cs_italy_woodbeam01
0 -10 -75 82.001 1 0 0 -88.480701 -142.493175 1 0 1
0 -10 -57 100 1 0 0 -88.321602 -142.493131 1 0 1
0 -10 -61 100 1 0 0 -88.33928 -142.669906 1 0 1
cs_italy_woodbeam01
0 -10 -75 82.001 1 0 0 -88.480701 -142.493175 1 0 1
0 -10 -61 100 1 0 0 -88.33928 -142.669906 1 0 1
0 -10 -75 86 1 0 0 -88.463027 -142.669906 1 0 1
cs_italy_woodbeam01
0 -16 -109 -20 0 -1 0 -2 -962.5 1 0 1
0 -16 -109 86 0 -1 0 -1.171875 -962.5 1 0 1
0 -24 -109 86 0 -1 0 -1.171875 -963 1 0 1
cs_italy_woodbeam01
0 -16 -109 -20 0 -1 0 -2 -962.5 1 0 1
0 -24 -109 86 0 -1 0 -1.171875 -963 1 0 1
0 -24 -109 -20 0 -1 0 -2 -963 1 0 1
cs_italy_woodbeam01
0 -24 -109 -20 -1 0 0 -2 222.5 1 0 1
0 -24 -109 86 -1 0 0 -1.171875 222.5 1 0 1
0 -24 -101 86 -1 0 0 -1.171875 222 1 0 1
cs_italy_woodbeam01
0 -24 -109 -20 -1 0 0 -2 222.5 1 0 1
0 -24 -101 86 -1 0 0 -1.171875 222 1 0 1
0 -24 -101 -20 -1 0 0 -2 222 1 0 1
cs_italy_woodbeam01
0 -16 -109 86 1 0 0 -1.171875 -220.375 1 0 1
0 -16 -109 -20 1 0 0 -2 -220.375 1 0 1
0 -16 -101 -20 1 0 0 -2 -219.875 1 0 1
cs_italy_woodbeam01
0 -16 -109 86 1 0 0 -1.171875 -220.375 1 0 1
0 -16 -101 -20 1 0 0 -2 -219.875 1 0 1
0 -16 -101 86 1 0 0 -1.171875 -219.875 1 0 1
pepsi2_arch_woodf3
0 -30 101 100 0 0 1 -85.544364 -18.473493 1 0 1
0 -24 101 100 0 0 1 -85.510882 -18.473493 1 0 1
0 -24 105 100 0 0 1 -85.510882 -18.451172 1 0 1
pepsi2_arch_woodf3
0 -30 101 100 0 0 1 -85.544364 -18.473493 1 0 1
0 -24 105 100 0 0 1 -85.510882 -18.451172 1 0 1
0 -30 105 100 0 0 1 -85.544364 -18.451172 1 0 1
cs_italy_woodbeam01
0 -24 87 82.001 0 0.707087 -0.707126 -26.21875 964.625 1 0 1
0 -30 87 82.001 0 0.707087 -0.707126 -26.21875 965 1 0 1
0 -30 105 100 0 0.707087 -0.707126 -26.078125 965 1 0 1
cs_italy_woodbeam01
0 -24 87 82.001 0 0.707087 -0.707126 -26.21875 964.625 1 0 1
0 -30 105 100 0 0.707087 -0.707126 -26.078125 965 1 0 1
0 -24 105 100 0 0.707087 -0.707126 -26.078125 964.625 1 0 1
cs_italy_woodbeam01
0 -30 87 86 0 -0.707107 0.707107 -26.21875 965 1 0 1
0 -24 87 86 0 -0.707107 0.707107 -26.21875 964.625 1 0 1
0 -24 101 100 0 -0.707107 0.707107 -26.109375 964.625 1 0 1
cs_italy_woodbeam01
0 -30 87 86 0 -0.707107 0.707107 -26.21875 965 1 0 1
0 -24 101 100 0 -0.707107 0.707107 -26.109375 964.625 1 0 1
0 -30 101 100 0 -0.707107 0.707107 -26.109375 965 1 0 1
pepsi2_arch_woodf3
0 -24 87 86 0 -1 0 -120.5 -1.109375 1 0 1
0 -30 87 86 0 -1 0 -120.546875 -1.109375 1 0 1
0 -30 87 82.001 0 -1 0 -120.546875 -1.140617 1 0 1
pepsi2_arch_woodf3
0 -24 87 86 0 -1 0 -120.5 -1.109375 1 0 1
0 -30 87 82.001 0 -1 0 -120.546875 -1.140617 1 0 1
0 -24 87 82.001 0 -1 0 -120.5 -1.140617 1 0 1
cs_italy_woodbeam01
0 -30 87 86 -1 0 0 56.139655 137.166769 1 0 1
0 -30 101 100 -1 0 0 56.263402 137.166769 1 0 1
0 -30 105 100 -1 0 0 56.28108 136.989994 1 0 1
cs_italy_woodbeam01
0 -30 87 86 -1 0 0 56.139655 137.166769 1 0 1
0 -30 105 100 -1 0 0 56.28108 136.989994 1 0 1
0 -30 87 82.001 -1 0 0 56.121982 136.990038 1 0 1
pepsi2_arch_woodf3
0 -24 87 82.001 1 0 0 -26.117188 -1.140617 1 0 1
0 -24 105 100 1 0 0 -25.976562 -1 1 0 1
0 -24 101 100 1 0 0 -26.007812 -1 1 0 1
pepsi2_arch_woodf3
0 -24 87 82.001 1 0 0 -26.117188 -1.140617 1 0 1
0 -24 101 100 1 0 0 -26.007812 -1 1 0 1
0 -24 87 86 1 0 0 -26.117188 -1.109375 1 0 1
cs_italy_woodbeam01
0 -10 87 100 0 1 0 -1.0625 -961.625 1 0 1
0 -10 87 -20 0 1 0 -2 -961.625 1 0 1
0 -16 87 -20 0 1 0 -2 -962 1 0 1
cs_italy_woodbeam01
0 -10 87 100 0 1 0 -1.0625 -961.625 1 0 1
0 -16 87 -20 0 1 0 -2 -962 1 0 1
0 -16 87 100 0 1 0 -1.0625 -962 1 0 1
cs_italy_woodbeam01
0 -10 79 -20 0 -1 0 -2 -961.625 1 0 1
0 -10 79 100 0 -1 0 -1.0625 -961.625 1 0 1
0 -16 79 100 0 -1 0 -1.0625 -962 1 0 1
cs_italy_woodbeam01
0 -10 79 -20 0 -1 0 -2 -961.625 1 0 1
0 -16 79 100 0 -1 0 -1.0625 -962 1 0 1
0 -16 79 -20 0 -1 0 -2 -962 1 0 1
cs_italy_woodbeam01
0 -16 79 -20 -1 0 0 -2 -209 1 0 1
0 -16 79 100 -1 0 0 -1.0625 -209 1 0 1
0 -16 87 100 -1 0 0 -1.0625 -208.5 1 0 1
cs_italy_woodbeam01
0 -16 79 -20 -1 0 0 -2 -209 1 0 1
0 -16 87 100 -1 0 0 -1.0625 -208.5 1 0 1
0 -16 87 -20 -1 0 0 -2 -208.5 1 0 1
cs_italy_woodbeam01
0 -10 79 100 1 0 0 2 -209 1 0 1
0 -10 79 -20 1 0 0 2.9375 -209 1 0 1
0 -10 87 -20 1 0 0 2.9375 -208.5 1 0 1
cs_italy_woodbeam01
0 -10 79 100 1 0 0 2 -209 1 0 1
0 -10 87 -20 1 0 0 2.9375 -208.5 1 0 1
0 -10 87 100 1 0 0 2 -208.5 1 0 1
pepsi2_arch_woodf3
0 -10 79 -20 0 0 -1 -85.432757 -18.596261 1 0 1
0 -16 79 -20 0 0 -1 -85.466239 -18.596261 1 0 1
0 -16 87 -20 0 0 -1 -85.466239 -18.551618 1 0 1
pepsi2_arch_woodf3
0 -10 79 -20 0 0 -1 -85.432757 -18.596261 1 0 1
0 -16 87 -20 0 0 -1 -85.466239 -18.551618 1 0 1
0 -10 87 -20 0 0 -1 -85.432757 -18.551618 1 0 1
pepsi2_arch_woodf3
0 -16 79 100 0 0 1 -85.466239 -18.596261 1 0 1
0 -10 79 100 0 0 1 -85.432757 -18.596261 1 0 1
0 -10 87 100 0 0 1 -85.432757 -18.551618 1 0 1
pepsi2_arch_woodf3
0 -16 79 100 0 0 1 -85.466239 -18.596261 1 0 1
0 -10 87 100 0 0 1 -85.432757 -18.551618 1 0 1
0 -16 87 100 0 0 1 -85.466239 -18.551618 1 0 1
cs_havana_woodm
0 -16 -94 25 0 0 1 46.402995 201.641276 1 0 1
0 21 -94 25 0 0 1 46.402995 201.159505 1 0 1
0 21 87 25 0 0 1 44.046224 201.159505 1 0 1
cs_havana_woodm
0 -16 -94 25 0 0 1 46.402995 201.641276 1 0 1
0 21 87 25 0 0 1 44.046224 201.159505 1 0 1
0 -16 87 25 0 0 1 44.046224 201.641276 1 0 1
cs_havana_woodm
0 21 -93.998001 22.998 0.706871 0 -0.707343 144.428472 47.160781 1 0 1
0 18 -92 20 0.706871 0 -0.707343 144.483695 47.134766 1 0 1
0 18 87 20 0.706871 0 -0.707343 144.483695 44.804036 1 0 1
cs_havana_woodm
0 21 -93.998001 22.998 0.706871 0 -0.707343 144.428472 47.160781 1 0 1
0 18 87 20 0.706871 0 -0.707343 144.483695 44.804036 1 0 1
0 21 87 22.998 0.706871 0 -0.707343 144.428472 44.804036 1 0 1
cs_havana_woodm
0 18 -92 20 0 -0.832136 -0.554572 -22.522367 201.198568 1 0 1
0 21 -93.998001 22.998 0 -0.832136 -0.554572 -22.56928 201.159505 1 0 1
0 21 -94 23.001 0 -0.832136 -0.554572 -22.569327 201.159505 1 0 1
cs_havana_woodm
0 18 -92 20 0 -0.832136 -0.554572 -22.522367 201.198568 1 0 1
0 21 -94 23.001 0 -0.832136 -0.554572 -22.569327 201.159505 1 0 1
0 -16 -94 23.001 0 -0.832136 -0.554572 -22.569327 201.641276 1 0 1
cs_havana_woodm
0 18 -92 20 0 -0.832136 -0.554572 -22.522367 201.198568 1 0 1
0 -16 -94 23.001 0 -0.832136 -0.554572 -22.569327 201.641276 1 0 1
0 -16 -92 20 0 -0.832136 -0.554572 -22.522367 201.641276 1 0 1
cs_havana_woodm
0 21 -94 25 0 -1 0 3.403646 201.159505 1 0 1
0 -16 -94 25 0 -1 0 3.403646 201.641276 1 0 1
0 -16 -94 23.001 0 -1 0 3.429674 201.641276 1 0 1
cs_havana_woodm
0 21 -94 25 0 -1 0 3.403646 201.159505 1 0 1
0 -16 -94 23.001 0 -1 0 3.429674 201.641276 1 0 1
0 21 -94 23.001 0 -1 0 3.429674 201.159505 1 0 1
cs_havana_woodm
0 21 -93.998001 22.998 1 0 0 3.429714 47.160781 1 0 1
0 21 87 22.998 1 0 0 3.429714 44.804036 1 0 1
0 21 87 25 1 0 0 3.403646 44.804036 1 0 1
cs_havana_woodm
0 21 -93.998001 22.998 1 0 0 3.429714 47.160781 1 0 1
0 21 87 25 1 0 0 3.403646 44.804036 1 0 1
0 21 -94 25 1 0 0 3.403646 47.160807 1 0 1
cs_havana_woodm
0 21 -93.998001 22.998 1 0 0 3.429714 47.160781 1 0 1
0 21 -94 25 1 0 0 3.403646 47.160807 1 0 1
0 21 -94 23.001 1 0 0 3.429674 47.160807 1 0 1
cs_italy_cellarwall01
0 -16 87 20 0 0 -1 120.4375 27.328125 1 0 1
0 18 87 20 0 0 -1 120.171875 27.328125 1 0 1
0 18 -92 20 0 0 -1 120.171875 28.726562 1 0 1
cs_italy_cellarwall01
0 -16 87 20 0 0 -1 120.4375 27.328125 1 0 1
0 18 -92 20 0 0 -1 120.171875 28.726562 1 0 1
0 -16 -92 20 0 0 -1 120.4375 28.726562 1 0 1
cs_italy_woodbeam01
0 -30 61 100 0 -0.707126 -0.707087 26.921875 -963.375 1 0 1
0 -30 79 81.999 0 -0.707126 -0.707087 26.78125 -963.375 1 0 1
0 -24 79 81.999 0 -0.707126 -0.707087 26.78125 -963 1 0 1
cs_italy_woodbeam01
0 -30 61 100 0 -0.707126 -0.707087 26.921875 -963.375 1 0 1
0 -24 79 81.999 0 -0.707126 -0.707087 26.78125 -963 1 0 1
0 -24 61 100 0 -0.707126 -0.707087 26.921875 -963 1 0 1
cs_italy_woodbeam01
0 -24 65 100 0 0.707107 0.707107 26.890625 -963 1 0 1
0 -24 79 86 0 0.707107 0.707107 26.78125 -963 1 0 1
0 -30 79 86 0 0.707107 0.707107 26.78125 -963.375 1 0 1
cs_italy_woodbeam01
0 -24 65 100 0 0.707107 0.707107 26.890625 -963 1 0 1
0 -30 79 86 0 0.707107 0.707107 26.78125 -963.375 1 0 1
0 -30 65 100 0 0.707107 0.707107 26.890625 -963.375 1 0 1
pepsi2_arch_woodf3
0 -24 79 81.999 0 1 0 120.5 -1.140633 1 0 1
0 -30 79 81.999 0 1 0 120.546875 -1.140633 1 0 1
0 -30 79 86 0 1 0 120.546875 -1.109375 1 0 1
pepsi2_arch_woodf3
0 -24 79 81.999 0 1 0 120.5 -1.140633 1 0 1
0 -30 79 86 0 1 0 120.546875 -1.109375 1 0 1
0 -24 79 86 0 1 0 120.5 -1.109375 1 0 1
cs_italy_woodbeam01
0 -30 79 81.999 -1 0 0 85.518815 161.499263 1 0 1
0 -30 61 100 -1 0 0 85.677923 161.499219 1 0 1
0 -30 65 100 -1 0 0 85.660245 161.322444 1 0 1
cs_italy_woodbeam01
0 -30 79 81.999 -1 0 0 85.518815 161.499263 1 0 1
0 -30 65 100 -1 0 0 85.660245 161.322444 1 0 1
0 -30 79 86 -1 0 0 85.536498 161.322444 1 0 1
pepsi2_arch_woodf3
0 -24 61 100 1 0 0 -26.320313 -1 1 0 1
0 -24 79 81.999 1 0 0 -26.179688 -1.140633 1 0 1
0 -24 79 86 1 0 0 -26.179688 -1.109375 1 0 1
pepsi2_arch_woodf3
0 -24 61 100 1 0 0 -26.320313 -1 1 0 1
0 -24 79 86 1 0 0 -26.179688 -1.109375 1 0 1
0 -24 65 100 1 0 0 -26.289062 -1 1 0 1
pepsi2_arch_woodf3
0 -30 61 100 0 0 1 -85.544364 -18.696708 1 0 1
0 -24 61 100 0 0 1 -85.510882 -18.696708 1 0 1
0 -24 65 100 0 0 1 -85.510882 -18.674386 1 0 1
pepsi2_arch_woodf3
0 -30 61 100 0 0 1 -85.544364 -18.696708 1 0 1
0 -24 65 100 0 0 1 -85.510882 -18.674386 1 0 1
0 -30 65 100 0 0 1 -85.544364 -18.674386 1 0 1
cs_italy_woodbeam01
0 -24 -191 82 -1 0 0 -28.820312 -16 1 0 1
0 -24 -191 86 -1 0 0 -28.820312 -15.75 1 0 1
0 -24 -109 86 -1 0 0 -28.179688 -15.75 1 0 1
cs_italy_woodbeam01
0 -24 -191 82 -1 0 0 -28.820312 -16 1 0 1
0 -24 -109 86 -1 0 0 -28.179688 -15.75 1 0 1
0 -24 -109 82 -1 0 0 -28.179688 -16 1 0 1
cs_italy_woodbeam01
0 -16 -191 86 1 0 0 28.820312 -15.75 1 0 1
0 -16 -191 82 1 0 0 28.820312 -16 1 0 1
0 -16 -109 82 1 0 0 28.179688 -16 1 0 1
cs_italy_woodbeam01
0 -16 -191 86 1 0 0 28.820312 -15.75 1 0 1
0 -16 -109 82 1 0 0 28.179688 -16 1 0 1
0 -16 -109 86 1 0 0 28.179688 -15.75 1 0 1
cs_italy_woodbeam01
0 -16 -191 82 0 0 -1 28.703125 -962.5 1 0 1
0 -24 -191 82 0 0 -1 28.703125 -963 1 0 1
0 -24 -109 82 0 0 -1 28.0625 -963 1 0 1
cs_italy_woodbeam01
0 -16 -191 82 0 0 -1 28.703125 -962.5 1 0 1
0 -24 -109 82 0 0 -1 28.0625 -963 1 0 1
0 -16 -109 82 0 0 -1 28.0625 -962.5 1 0 1
cs_italy_woodbeam01
0 -410 65 100 0 0.707107 0.707107 26.890625 -987 1 0 1
0 -410 79 86 0 0.707107 0.707107 26.78125 -987 1 0 1
0 -416 79 86 0 0.707107 0.707107 26.78125 -987.375 1 0 1
cs_italy_woodbeam01
0 -410 65 100 0 0.707107 0.707107 26.890625 -987 1 0 1
0 -416 79 86 0 0.707107 0.707107 26.78125 -987.375 1 0 1
0 -416 65 100 0 0.707107 0.707107 26.890625 -987.375 1 0 1
cs_italy_woodbeam01
0 -416 61 100 0 -0.707126 -0.707087 26.921875 -987.375 1 0 1
0 -416 79 81.999 0 -0.707126 -0.707087 26.78125 -987.375 1 0 1
0 -410 79 81.999 0 -0.707126 -0.707087 26.78125 -987 1 0 1
cs_italy_woodbeam01
0 -416 61 100 0 -0.707126 -0.707087 26.921875 -987.375 1 0 1
0 -410 79 81.999 0 -0.707126 -0.707087 26.78125 -987 1 0 1
0 -410 61 100 0 -0.707126 -0.707087 26.921875 -987 1 0 1
pepsi2_arch_woodf3
0 -410 79 81.999 0 1 0 123.515625 -1.140633 1 0 1
0 -416 79 81.999 0 1 0 123.5625 -1.140633 1 0 1
0 -416 79 86 0 1 0 123.5625 -1.109375 1 0 1
pepsi2_arch_woodf3
0 -410 79 81.999 0 1 0 123.515625 -1.140633 1 0 1
0 -416 79 86 0 1 0 123.5625 -1.109375 1 0 1
0 -410 79 86 0 1 0 123.515625 -1.109375 1 0 1
pepsi2_arch_woodf3
0 -416 79 81.999 -1 0 0 26.179688 -1.140633 1 0 1
0 -416 61 100 -1 0 0 26.320312 -1 1 0 1
0 -416 65 100 -1 0 0 26.289062 -1 1 0 1
pepsi2_arch_woodf3
0 -416 79 81.999 -1 0 0 26.179688 -1.140633 1 0 1
0 -416 65 100 -1 0 0 26.289062 -1 1 0 1
0 -416 79 86 -1 0 0 26.179688 -1.109375 1 0 1
cs_italy_woodbeam01
0 -410 61 100 1 0 0 -59.720515 -159.999219 1 0 1
0 -410 79 81.999 1 0 0 -59.879622 -159.999263 1 0 1
0 -410 79 86 1 0 0 -59.86194 -159.822444 1 0 1
cs_italy_woodbeam01
0 -410 61 100 1 0 0 -59.720515 -159.999219 1 0 1
0 -410 79 86 1 0 0 -59.86194 -159.822444 1 0 1
0 -410 65 100 1 0 0 -59.738193 -159.822444 1 0 1
pepsi2_arch_woodf3
0 -416 61 100 0 0 1 -87.698382 -18.696708 1 0 1
0 -410 61 100 0 0 1 -87.6649 -18.696708 1 0 1
0 -410 65 100 0 0 1 -87.6649 -18.674386 1 0 1
pepsi2_arch_woodf3
0 -416 61 100 0 0 1 -87.698382 -18.696708 1 0 1
0 -410 65 100 0 0 1 -87.6649 -18.674386 1 0 1
0 -416 65 100 0 0 1 -87.698382 -18.674386 1 0 1
cs_italy_woodbeam01
0 -416 -83 100 -1 0 0 -1.0625 -219 1 0 1
0 -416 -75 100 -1 0 0 -1.0625 -218.5 1 0 1
0 -416 -75 -20 -1 0 0 -2 -218.5 1 0 1
cs_italy_woodbeam01
0 -416 -83 100 -1 0 0 -1.0625 -219 1 0 1
0 -416 -75 -20 -1 0 0 -2 -218.5 1 0 1
0 -416 -83 -20 -1 0 0 -2 -219 1 0 1
cs_italy_woodbeam01
0 -410 -83 -20 1 0 0 2.9375 -219 1 0 1
0 -410 -75 -20 1 0 0 2.9375 -218.5 1 0 1
0 -410 -75 100 1 0 0 2 -218.5 1 0 1
cs_italy_woodbeam01
0 -410 -83 -20 1 0 0 2.9375 -219 1 0 1
0 -410 -75 100 1 0 0 2 -218.5 1 0 1
0 -410 -83 100 1 0 0 2 -219 1 0 1
pepsi2_arch_woodf3
0 -416 -83 -20 0 0 -1 -87.698382 -19.500279 1 0 1
0 -416 -75 -20 0 0 -1 -87.698382 -19.455636 1 0 1
0 -410 -75 -20 0 0 -1 -87.6649 -19.455636 1 0 1
pepsi2_arch_woodf3
0 -416 -83 -20 0 0 -1 -87.698382 -19.500279 1 0 1
0 -410 -75 -20 0 0 -1 -87.6649 -19.455636 1 0 1
0 -410 -83 -20 0 0 -1 -87.6649 -19.500279 1 0 1
pepsi2_arch_woodf3
0 -410 -83 100 0 0 1 -87.6649 -19.500279 1 0 1
0 -410 -75 100 0 0 1 -87.6649 -19.455636 1 0 1
0 -416 -75 100 0 0 1 -87.698382 -19.455636 1 0 1
pepsi2_arch_woodf3
0 -410 -83 100 0 0 1 -87.6649 -19.500279 1 0 1
0 -416 -75 100 0 0 1 -87.698382 -19.455636 1 0 1
0 -416 -83 100 0 0 1 -87.698382 -19.500279 1 0 1
cs_italy_woodbeam01
0 -410 -75 100 0 1 0 -1.0625 -986.625 1 0 1
0 -410 -75 -20 0 1 0 -2 -986.625 1 0 1
0 -416 -75 -20 0 1 0 -2 -987 1 0 1
cs_italy_woodbeam01
0 -410 -75 100 0 1 0 -1.0625 -986.625 1 0 1
0 -416 -75 -20 0 1 0 -2 -987 1 0 1
0 -416 -75 100 0 1 0 -1.0625 -987 1 0 1
cs_italy_woodbeam01
0 -410 -83 -20 0 -1 0 -2 -986.625 1 0 1
0 -410 -83 100 0 -1 0 -1.0625 -986.625 1 0 1
0 -416 -83 100 0 -1 0 -1.0625 -987 1 0 1
cs_italy_woodbeam01
0 -410 -83 -20 0 -1 0 -2 -986.625 1 0 1
0 -416 -83 100 0 -1 0 -1.0625 -987 1 0 1
0 -416 -83 -20 0 -1 0 -2 -987 1 0 1
pepsi2_arch_woodf3
0 -410 87 82.001 0 -1 0 -123.515625 -1.140617 1 0 1
0 -410 87 86 0 -1 0 -123.515625 -1.109375 1 0 1
0 -416 87 86 0 -1 0 -123.5625 -1.109375 1 0 1
pepsi2_arch_woodf3
0 -410 87 82.001 0 -1 0 -123.515625 -1.140617 1 0 1
0 -416 87 86 0 -1 0 -123.5625 -1.109375 1 0 1
0 -416 87 82.001 0 -1 0 -123.5625 -1.140617 1 0 1
pepsi2_arch_woodf3
0 -416 87 82.001 -1 0 0 26.117188 -1.140617 1 0 1
0 -416 87 86 -1 0 0 26.117188 -1.109375 1 0 1
0 -416 101 100 -1 0 0 26.007812 -1 1 0 1
pepsi2_arch_woodf3
0 -416 87 82.001 -1 0 0 26.117188 -1.140617 1 0 1
0 -416 101 100 -1 0 0 26.007812 -1 1 0 1
0 -416 105 100 -1 0 0 25.976562 -1 1 0 1
cs_italy_woodbeam01
0 -410 87 86 1 0 0 -89.46386 -135.666769 1 0 1
0 -410 87 82.001 1 0 0 -89.481534 -135.490038 1 0 1
0 -410 105 100 1 0 0 -89.322435 -135.489994 1 0 1
cs_italy_woodbeam01
0 -410 87 86 1 0 0 -89.46386 -135.666769 1 0 1
0 -410 105 100 1 0 0 -89.322435 -135.489994 1 0 1
0 -410 101 100 1 0 0 -89.340113 -135.666769 1 0 1
pepsi2_arch_woodf3
0 -410 101 100 0 0 1 -87.6649 -18.473493 1 0 1
0 -410 105 100 0 0 1 -87.6649 -18.451172 1 0 1
0 -416 105 100 0 0 1 -87.698382 -18.451172 1 0 1
pepsi2_arch_woodf3
0 -410 101 100 0 0 1 -87.6649 -18.473493 1 0 1
0 -416 105 100 0 0 1 -87.698382 -18.451172 1 0 1
0 -416 101 100 0 0 1 -87.698382 -18.473493 1 0 1
cs_italy_woodbeam01
0 -416 87 86 0 -0.707107 0.707107 -26.21875 989 1 0 1
0 -410 87 86 0 -0.707107 0.707107 -26.21875 988.625 1 0 1
0 -410 101 100 0 -0.707107 0.707107 -26.109375 988.625 1 0 1
cs_italy_woodbeam01
0 -416 87 86 0 -0.707107 0.707107 -26.21875 989 1 0 1
0 -410 101 100 0 -0.707107 0.707107 -26.109375 988.625 1 0 1
0 -416 101 100 0 -0.707107 0.707107 -26.109375 989 1 0 1
cs_italy_woodbeam01
0 -410 87 82.001 0 0.707087 -0.707126 -26.21875 988.625 1 0 1
0 -416 87 82.001 0 0.707087 -0.707126 -26.21875 989 1 0 1
0 -416 105 100 0 0.707087 -0.707126 -26.078125 989 1 0 1
cs_italy_woodbeam01
0 -410 87 82.001 0 0.707087 -0.707126 -26.21875 988.625 1 0 1
0 -416 105 100 0 0.707087 -0.707126 -26.078125 989 1 0 1
0 -410 105 100 0 0.707087 -0.707126 -26.078125 988.625 1 0 1
cs_italy_woodbeam01
0 -30 -75 108 0 1 0 -120.046875 16.5 1 0 1
0 -30 -75 100 0 1 0 -120.046875 17 1 0 1
0 -410 -75 100 0 1 0 -123.015625 17 1 0 1
cs_italy_woodbeam01
0 -30 -75 108 0 1 0 -120.046875 16.5 1 0 1
0 -410 -75 100 0 1 0 -123.015625 17 1 0 1
0 -410 -75 108 0 1 0 -123.015625 16.5 1 0 1
cs_italy_woodbeam01
0 -30 -83 100 0 -1 0 120.203125 17 1 0 1
0 -30 -83 108 0 -1 0 120.203125 16.5 1 0 1
0 -410 -83 108 0 -1 0 123.171875 16.5 1 0 1
cs_italy_woodbeam01
0 -30 -83 100 0 -1 0 120.203125 17 1 0 1
0 -410 -83 108 0 -1 0 123.171875 16.5 1 0 1
0 -410 -83 100 0 -1 0 123.171875 17 1 0 1
pepsi2_arch_woodf3
0 -410 -83 100 -1 0 0 27.445312 -1 1 0 1
0 -410 -83 108 -1 0 0 27.445312 -0.9375 1 0 1
0 -410 -75 108 -1 0 0 27.382812 -0.9375 1 0 1
pepsi2_arch_woodf3
0 -410 -83 100 -1 0 0 27.445312 -1 1 0 1
0 -410 -75 108 -1 0 0 27.382812 -0.9375 1 0 1
0 -410 -75 100 -1 0 0 27.382812 -1 1 0 1
pepsi2_arch_woodf3
0 -30 -83 108 1 0 0 -27.445312 -0.9375 1 0 1
0 -30 -83 100 1 0 0 -27.445312 -1 1 0 1
0 -30 -75 100 1 0 0 -27.382812 -1 1 0 1
pepsi2_arch_woodf3
0 -30 -83 108 1 0 0 -27.445312 -0.9375 1 0 1
0 -30 -75 100 1 0 0 -27.382812 -1 1 0 1
0 -30 -75 108 1 0 0 -27.382812 -0.9375 1 0 1
cs_italy_woodbeam01
0 -30 -83 100 0 0 -1 120.203125 -219 1 0 1
0 -410 -83 100 0 0 -1 123.171875 -219 1 0 1
0 -410 -75 100 0 0 -1 123.171875 -218.5 1 0 1
cs_italy_woodbeam01
0 -30 -83 100 0 0 -1 120.203125 -219 1 0 1
0 -410 -75 100 0 0 -1 123.171875 -218.5 1 0 1
0 -30 -75 100 0 0 -1 120.203125 -218.5 1 0 1
cs_italy_woodbeam01
0 -30 87 108 0 1 0 -119.984375 16.5 1 0 1
0 -30 87 100 0 1 0 -119.984375 17 1 0 1
0 -410 87 100 0 1 0 -122.953125 17 1 0 1
cs_italy_woodbeam01
0 -30 87 108 0 1 0 -119.984375 16.5 1 0 1
0 -410 87 100 0 1 0 -122.953125 17 1 0 1
0 -410 87 108 0 1 0 -122.953125 16.5 1 0 1
cs_italy_woodbeam01
0 -30 79 100 0 -1 0 120.140625 17 1 0 1
0 -30 79 108 0 -1 0 120.140625 16.5 1 0 1
0 -410 79 108 0 -1 0 123.109375 16.5 1 0 1
cs_italy_woodbeam01
0 -30 79 100 0 -1 0 120.140625 17 1 0 1
0 -410 79 108 0 -1 0 123.109375 16.5 1 0 1
0 -410 79 100 0 -1 0 123.109375 17 1 0 1
cs_italy_woodbeam01
0 -410 79 100 -1 0 0 27.109375 -14.5 1 0 1
0 -410 79 108 -1 0 0 27.109375 -14 1 0 1
0 -410 87 108 -1 0 0 27.046875 -14 1 0 1
cs_italy_woodbeam01
0 -410 79 100 -1 0 0 27.109375 -14.5 1 0 1
0 -410 87 108 -1 0 0 27.046875 -14 1 0 1
0 -410 87 100 -1 0 0 27.046875 -14.5 1 0 1
cs_italy_woodbeam01
0 -30 79 108 1 0 0 27.109375 16.5 1 0 1
0 -30 79 100 1 0 0 27.109375 17 1 0 1
0 -30 87 100 1 0 0 27.046875 17 1 0 1
cs_italy_woodbeam01
0 -30 79 108 1 0 0 27.109375 16.5 1 0 1
0 -30 87 100 1 0 0 27.046875 17 1 0 1
0 -30 87 108 1 0 0 27.046875 16.5 1 0 1
cs_italy_woodbeam01
0 -30 79 100 0 0 -1 120.140625 -209 1 0 1
0 -410 79 100 0 0 -1 123.109375 -209 1 0 1
0 -410 87 100 0 0 -1 123.109375 -208.5 1 0 1
cs_italy_woodbeam01
0 -30 79 100 0 0 -1 120.140625 -209 1 0 1
0 -410 87 100 0 0 -1 123.109375 -208.5 1 0 1
0 -30 87 100 0 0 -1 120.140625 -208.5 1 0 1
pepsi2_arch_woodf3
0 -24 -83 86 0 1 0 120.5 -1.109375 1 0 1
0 -24 -83 81.999 0 1 0 120.5 -1.140633 1 0 1
0 -30 -83 81.999 0 1 0 120.546875 -1.140633 1 0 1
pepsi2_arch_woodf3
0 -24 -83 86 0 1 0 120.5 -1.109375 1 0 1
0 -30 -83 81.999 0 1 0 120.546875 -1.140633 1 0 1
0 -30 -83 86 0 1 0 120.546875 -1.109375 1 0 1
cs_italy_woodbeam01
0 -30 -101 100 -1 0 0 86.679043 168.502356 1 0 1
0 -30 -97 100 -1 0 0 86.661365 168.325581 1 0 1
0 -30 -83 86 -1 0 0 86.537618 168.325581 1 0 1
cs_italy_woodbeam01
0 -30 -101 100 -1 0 0 86.679043 168.502356 1 0 1
0 -30 -83 86 -1 0 0 86.537618 168.325581 1 0 1
0 -30 -83 81.999 -1 0 0 86.519935 168.5024 1 0 1
pepsi2_arch_woodf3
0 -24 -83 81.999 1 0 0 -27.445312 -1.140633 1 0 1
0 -24 -83 86 1 0 0 -27.445312 -1.109375 1 0 1
0 -24 -97 100 1 0 0 -27.554688 -1 1 0 1
pepsi2_arch_woodf3
0 -24 -83 81.999 1 0 0 -27.445312 -1.140633 1 0 1
0 -24 -97 100 1 0 0 -27.554688 -1 1 0 1
0 -24 -101 100 1 0 0 -27.585938 -1 1 0 1
pepsi2_arch_woodf3
0 -24 -101 100 0 0 1 -85.510882 -19.600725 1 0 1
0 -24 -97 100 0 0 1 -85.510882 -19.578404 1 0 1
0 -30 -97 100 0 0 1 -85.544364 -19.578404 1 0 1
pepsi2_arch_woodf3
0 -24 -101 100 0 0 1 -85.510882 -19.600725 1 0 1
0 -30 -97 100 0 0 1 -85.544364 -19.578404 1 0 1
0 -30 -101 100 0 0 1 -85.544364 -19.600725 1 0 1
cs_italy_woodbeam01
0 -30 -101 100 0 -0.707126 -0.707087 27.921875 -963.375 1 0 1
0 -30 -83 81.999 0 -0.707126 -0.707087 27.78125 -963.375 1 0 1
0 -24 -83 81.999 0 -0.707126 -0.707087 27.78125 -963 1 0 1
cs_italy_woodbeam01
0 -30 -101 100 0 -0.707126 -0.707087 27.921875 -963.375 1 0 1
0 -24 -83 81.999 0 -0.707126 -0.707087 27.78125 -963 1 0 1
0 -24 -101 100 0 -0.707126 -0.707087 27.921875 -963 1 0 1
cs_italy_woodbeam01
0 -24 -97 100 0 0.707107 0.707107 27.890625 -963 1 0 1
0 -24 -83 86 0 0.707107 0.707107 27.78125 -963 1 0 1
0 -30 -83 86 0 0.707107 0.707107 27.78125 -963.375 1 0 1
cs_italy_woodbeam01
0 -24 -97 100 0 0.707107 0.707107 27.890625 -963 1 0 1
0 -30 -83 86 0 0.707107 0.707107 27.78125 -963.375 1 0 1
0 -30 -97 100 0 0.707107 0.707107 27.890625 -963.375 1 0 1
cs_italy_woodbeam01
0 -10 -75 100 0 1 0 -1.0625 -961.625 1 0 1
0 -10 -75 -20 0 1 0 -2 -961.625 1 0 1
0 -16 -75 -20 0 1 0 -2 -962 1 0 1
cs_italy_woodbeam01
0 -10 -75 100 0 1 0 -1.0625 -961.625 1 0 1
0 -16 -75 -20 0 1 0 -2 -962 1 0 1
0 -16 -75 100 0 1 0 -1.0625 -962 1 0 1
cs_italy_woodbeam01
0 -10 -83 -20 0 -1 0 -2 -961.625 1 0 1
0 -10 -83 100 0 -1 0 -1.0625 -961.625 1 0 1
0 -16 -83 100 0 -1 0 -1.0625 -962 1 0 1
cs_italy_woodbeam01
0 -10 -83 -20 0 -1 0 -2 -961.625 1 0 1
0 -16 -83 100 0 -1 0 -1.0625 -962 1 0 1
0 -16 -83 -20 0 -1 0 -2 -962 1 0 1
cs_italy_woodbeam01
0 -16 -83 -20 -1 0 0 -2 -219 1 0 1
0 -16 -83 100 -1 0 0 -1.0625 -219 1 0 1
0 -16 -75 100 -1 0 0 -1.0625 -218.5 1 0 1
cs_italy_woodbeam01
0 -16 -83 -20 -1 0 0 -2 -219 1 0 1
0 -16 -75 100 -1 0 0 -1.0625 -218.5 1 0 1
0 -16 -75 -20 -1 0 0 -2 -218.5 1 0 1
cs_italy_woodbeam01
0 -10 -83 100 1 0 0 2 -219 1 0 1
0 -10 -83 -20 1 0 0 2.9375 -219 1 0 1
0 -10 -75 -20 1 0 0 2.9375 -218.5 1 0 1
cs_italy_woodbeam01
0 -10 -83 100 1 0 0 2 -219 1 0 1
0 -10 -75 -20 1 0 0 2.9375 -218.5 1 0 1
0 -10 -75 100 1 0 0 2 -218.5 1 0 1
pepsi2_arch_woodf3
0 -10 -83 -20 0 0 -1 -85.432757 -19.500279 1 0 1
0 -16 -83 -20 0 0 -1 -85.466239 -19.500279 1 0 1
0 -16 -75 -20 0 0 -1 -85.466239 -19.455636 1 0 1
pepsi2_arch_woodf3
0 -10 -83 -20 0 0 -1 -85.432757 -19.500279 1 0 1
0 -16 -75 -20 0 0 -1 -85.466239 -19.455636 1 0 1
0 -10 -75 -20 0 0 -1 -85.432757 -19.455636 1 0 1
pepsi2_arch_woodf3
0 -16 -83 100 0 0 1 -85.466239 -19.500279 1 0 1
0 -10 -83 100 0 0 1 -85.432757 -19.500279 1 0 1
0 -10 -75 100 0 0 1 -85.432757 -19.455636 1 0 1
pepsi2_arch_woodf3
0 -16 -83 100 0 0 1 -85.466239 -19.500279 1 0 1
0 -10 -75 100 0 0 1 -85.432757 -19.455636 1 0 1
0 -16 -75 100 0 0 1 -85.466239 -19.455636 1 0 1
pepsi2_arch_woodf3
0 -10 79 86 0 1 0 120.390625 -1.109375 1 0 1
0 -10 79 81.999 0 1 0 120.390625 -1.140633 1 0 1
0 -16 79 81.999 0 1 0 120.4375 -1.140633 1 0 1
pepsi2_arch_woodf3
0 -10 79 86 0 1 0 120.390625 -1.109375 1 0 1
0 -16 79 81.999 0 1 0 120.4375 -1.140633 1 0 1
0 -16 79 86 0 1 0 120.4375 -1.109375 1 0 1
pepsi2_arch_woodf3
0 -16 61 100 -1 0 0 26.320312 -1 1 0 1
0 -16 65 100 -1 0 0 26.289062 -1 1 0 1
0 -16 79 86 -1 0 0 26.179688 -1.109375 1 0 1
pepsi2_arch_woodf3
0 -16 61 100 -1 0 0 26.320312 -1 1 0 1
0 -16 79 86 -1 0 0 26.179688 -1.109375 1 0 1
0 -16 79 81.999 -1 0 0 26.179688 -1.140633 1 0 1
cs_italy_woodbeam01
0 -10 79 81.999 1 0 0 -57.879622 -159.999263 1 0 1
0 -10 79 86 1 0 0 -57.86194 -159.822444 1 0 1
0 -10 65 100 1 0 0 -57.738193 -159.822444 1 0 1
cs_italy_woodbeam01
0 -10 79 81.999 1 0 0 -57.879622 -159.999263 1 0 1
0 -10 65 100 1 0 0 -57.738193 -159.822444 1 0 1
0 -10 61 100 1 0 0 -57.720515 -159.999219 1 0 1
pepsi2_arch_woodf3
0 -10 61 100 0 0 1 -85.432757 -18.696708 1 0 1
0 -10 65 100 0 0 1 -85.432757 -18.674386 1 0 1
0 -16 65 100 0 0 1 -85.466239 -18.674386 1 0 1
pepsi2_arch_woodf3
0 -10 61 100 0 0 1 -85.432757 -18.696708 1 0 1
0 -16 65 100 0 0 1 -85.466239 -18.674386 1 0 1
0 -16 61 100 0 0 1 -85.466239 -18.696708 1 0 1
cs_italy_woodbeam01
0 -10 65 100 0 0.707107 0.707107 26.890625 -962 1 0 1
0 -10 79 86 0 0.707107 0.707107 26.78125 -962 1 0 1
0 -16 79 86 0 0.707107 0.707107 26.78125 -962.375 1 0 1
cs_italy_woodbeam01
0 -10 65 100 0 0.707107 0.707107 26.890625 -962 1 0 1
0 -16 79 86 0 0.707107 0.707107 26.78125 -962.375 1 0 1
0 -16 65 100 0 0.707107 0.707107 26.890625 -962.375 1 0 1
cs_italy_woodbeam01
0 -16 61 100 0 -0.707126 -0.707087 26.921875 -962.375 1 0 1
0 -16 79 81.999 0 -0.707126 -0.707087 26.78125 -962.375 1 0 1
0 -10 79 81.999 0 -0.707126 -0.707087 26.78125 -962 1 0 1
cs_italy_woodbeam01
0 -16 61 100 0 -0.707126 -0.707087 26.921875 -962.375 1 0 1
0 -10 79 81.999 0 -0.707126 -0.707087 26.78125 -962 1 0 1
0 -10 61 100 0 -0.707126 -0.707087 26.921875 -962 1 0 1
pepsi2_arch_woodf3
0 -24 -75 82.001 0 -1 0 -120.5 -1.140617 1 0 1
0 -24 -75 86 0 -1 0 -120.5 -1.109375 1 0 1
0 -30 -75 86 0 -1 0 -120.546875 -1.109375 1 0 1
pepsi2_arch_woodf3
0 -24 -75 82.001 0 -1 0 -120.5 -1.140617 1 0 1
0 -30 -75 86 0 -1 0 -120.546875 -1.109375 1 0 1
0 -30 -75 82.001 0 -1 0 -120.546875 -1.140617 1 0 1
cs_italy_woodbeam01
0 -30 -75 82.001 -1 0 0 55.120861 143.993175 1 0 1
0 -30 -75 86 -1 0 0 55.138535 144.169906 1 0 1
0 -30 -61 100 -1 0 0 55.262282 144.169906 1 0 1
cs_italy_woodbeam01
0 -30 -75 82.001 -1 0 0 55.120861 143.993175 1 0 1
0 -30 -61 100 -1 0 0 55.262282 144.169906 1 0 1
0 -30 -57 100 -1 0 0 55.27996 143.993131 1 0 1
pepsi2_arch_woodf3
0 -24 -75 86 1 0 0 -27.382812 -1.109375 1 0 1
0 -24 -75 82.001 1 0 0 -27.382812 -1.140617 1 0 1
0 -24 -57 100 1 0 0 -27.242188 -1 1 0 1
pepsi2_arch_woodf3
0 -24 -75 86 1 0 0 -27.382812 -1.109375 1 0 1
0 -24 -57 100 1 0 0 -27.242188 -1 1 0 1
0 -24 -61 100 1 0 0 -27.273438 -1 1 0 1
pepsi2_arch_woodf3
0 -24 -61 100 0 0 1 -85.510882 -19.377511 1 0 1
0 -24 -57 100 0 0 1 -85.510882 -19.35519 1 0 1
0 -30 -57 100 0 0 1 -85.544364 -19.35519 1 0 1
pepsi2_arch_woodf3
0 -24 -61 100 0 0 1 -85.510882 -19.377511 1 0 1
0 -30 -57 100 0 0 1 -85.544364 -19.35519 1 0 1
0 -30 -61 100 0 0 1 -85.544364 -19.377511 1 0 1
cs_italy_woodbeam01
0 -30 -75 86 0 -0.707107 0.707107 -28.21875 965 1 0 1
0 -24 -75 86 0 -0.707107 0.707107 -28.21875 964.625 1 0 1
0 -24 -61 100 0 -0.707107 0.707107 -28.109375 964.625 1 0 1
cs_italy_woodbeam01
0 -30 -75 86 0 -0.707107 0.707107 -28.21875 965 1 0 1
0 -24 -61 100 0 -0.707107 0.707107 -28.109375 964.625 1 0 1
0 -30 -61 100 0 -0.707107 0.707107 -28.109375 965 1 0 1
cs_italy_woodbeam01
0 -24 -75 82.001 0 0.707087 -0.707126 -28.21875 964.625 1 0 1
0 -30 -75 82.001 0 0.707087 -0.707126 -28.21875 965 1 0 1
0 -30 -57 100 0 0.707087 -0.707126 -28.078125 965 1 0 1
cs_italy_woodbeam01
0 -24 -75 82.001 0 0.707087 -0.707126 -28.21875 964.625 1 0 1
0 -30 -57 100 0 0.707087 -0.707126 -28.078125 965 1 0 1
0 -24 -57 100 0 0.707087 -0.707126 -28.078125 964.625 1 0 1
pepsi2_arch_woodf3
0 -410 -75 82.001 0 -1 0 -123.515625 -1.140617 1 0 1
0 -410 -75 86 0 -1 0 -123.515625 -1.109375 1 0 1
0 -416 -75 86 0 -1 0 -123.5625 -1.109375 1 0 1
pepsi2_arch_woodf3
0 -410 -75 82.001 0 -1 0 -123.515625 -1.140617 1 0 1
0 -416 -75 86 0 -1 0 -123.5625 -1.109375 1 0 1
0 -416 -75 82.001 0 -1 0 -123.5625 -1.140617 1 0 1
pepsi2_arch_woodf3
0 -416 -75 82.001 -1 0 0 27.382812 -1.140617 1 0 1
0 -416 -75 86 -1 0 0 27.382812 -1.109375 1 0 1
0 -416 -61 100 -1 0 0 27.273438 -1 1 0 1
pepsi2_arch_woodf3
0 -416 -75 82.001 -1 0 0 27.382812 -1.140617 1 0 1
0 -416 -61 100 -1 0 0 27.273438 -1 1 0 1
0 -416 -57 100 -1 0 0 27.242188 -1 1 0 1
cs_italy_woodbeam01
0 -410 -75 86 1 0 0 -90.463027 -142.669906 1 0 1
0 -410 -75 82.001 1 0 0 -90.480701 -142.493175 1 0 1
0 -410 -57 100 1 0 0 -90.321602 -142.493131 1 0 1
cs_italy_woodbeam01
0 -410 -75 86 1 0 0 -90.463027 -142.669906 1 0 1
0 -410 -57 100 1 0 0 -90.321602 -142.493131 1 0 1
0 -410 -61 100 1 0 0 -90.33928 -142.669906 1 0 1
pepsi2_arch_woodf3
0 -410 -61 100 0 0 1 -87.6649 -19.377511 1 0 1
0 -410 -57 100 0 0 1 -87.6649 -19.35519 1 0 1
0 -416 -57 100 0 0 1 -87.698382 -19.35519 1 0 1
pepsi2_arch_woodf3
0 -410 -61 100 0 0 1 -87.6649 -19.377511 1 0 1
0 -416 -57 100 0 0 1 -87.698382 -19.35519 1 0 1
0 -416 -61 100 0 0 1 -87.698382 -19.377511 1 0 1
cs_italy_woodbeam01
0 -416 -75 86 0 -0.707107 0.707107 -28.21875 989 1 0 1
0 -410 -75 86 0 -0.707107 0.707107 -28.21875 988.625 1 0 1
0 -410 -61 100 0 -0.707107 0.707107 -28.109375 988.625 1 0 1
cs_italy_woodbeam01
0 -416 -75 86 0 -0.707107 0.707107 -28.21875 989 1 0 1
0 -410 -61 100 0 -0.707107 0.707107 -28.109375 988.625 1 0 1
0 -416 -61 100 0 -0.707107 0.707107 -28.109375 989 1 0 1
cs_italy_woodbeam01
0 -410 -75 82.001 0 0.707087 -0.707126 -28.21875 988.625 1 0 1
0 -416 -75 82.001 0 0.707087 -0.707126 -28.21875 989 1 0 1
0 -416 -57 100 0 0.707087 -0.707126 -28.078125 989 1 0 1
cs_italy_woodbeam01
0 -410 -75 82.001 0 0.707087 -0.707126 -28.21875 988.625 1 0 1
0 -416 -57 100 0 0.707087 -0.707126 -28.078125 989 1 0 1
0 -410 -57 100 0 0.707087 -0.707126 -28.078125 988.625 1 0 1
end
