version 1
nodes
0 "root" -1
end
skeleton
time 0
0 0 0 0 0 0 0
end
triangles
phys
0 -90.1 -88 16 0 0 1 1 0 1 0 1
0 185 -88 16 0 0 1 1 0 1 0 1
0 185 -71.98 16 0 0 1 1 0 1 0 1
phys
0 -90.1 -88 16 0 0 1 1 0 1 0 1
0 185 -71.98 16 0 0 1 1 0 1 0 1
0 -90.1 -71.98 16 0 0 1 1 0 1 0 1
phys
0 185 -88 8 0 0 1 1 0 1 0 1
0 -90.1 -88 8 0 0 1 1 0 1 0 1
0 -90.1 -71.98 16 0 0 1 1 0 1 0 1
phys
0 185 -88 8 0 0 1 1 0 1 0 1
0 -90.1 -71.98 16 0 0 1 1 0 1 0 1
0 185 -71.98 16 0 0 1 1 0 1 0 1
phys
0 185 -88 16 0 0 1 1 0 1 0 1
0 -90.1 -88 16 0 0 1 1 0 1 0 1
0 -90.1 -88 8 0 0 1 1 0 1 0 1
phys
0 185 -88 16 0 0 1 1 0 1 0 1
0 -90.1 -88 8 0 0 1 1 0 1 0 1
0 185 -88 8 0 0 1 1 0 1 0 1
phys
0 -90.1 -88 16 0 0 1 1 0 1 0 1
0 -90.1 -71.98 16 0 0 1 1 0 1 0 1
0 -90.1 -88 8 0 0 1 1 0 1 0 1
phys
0 185 -88 8 0 0 1 1 0 1 0 1
0 185 -71.98 16 0 0 1 1 0 1 0 1
0 185 -88 16 0 0 1 1 0 1 0 1
phys
0 -178 -15 191 0 0 1 2 0 1 0 1
0 -178 -15 41 0 0 1 2 0 1 0 1
0 -218 -15 41 0 0 1 2 0 1 0 1
phys
0 -178 -15 191 0 0 1 2 0 1 0 1
0 -218 -15 41 0 0 1 2 0 1 0 1
0 -218 -15 191 0 0 1 2 0 1 0 1
phys
0 -178 -20 42.999 0 0 1 2 0 1 0 1
0 -178 -20 189.001 0 0 1 2 0 1 0 1
0 -218 -20 189.001 0 0 1 2 0 1 0 1
phys
0 -178 -20 42.999 0 0 1 2 0 1 0 1
0 -218 -20 189.001 0 0 1 2 0 1 0 1
0 -218 -20 42.999 0 0 1 2 0 1 0 1
phys
0 -218 -20 42.999 0 0 1 2 0 1 0 1
0 -218 -20 189.001 0 0 1 2 0 1 0 1
0 -218 -18 191 0 0 1 2 0 1 0 1
phys
0 -218 -20 42.999 0 0 1 2 0 1 0 1
0 -218 -18 191 0 0 1 2 0 1 0 1
0 -218 -15 191 0 0 1 2 0 1 0 1
phys
0 -218 -20 42.999 0 0 1 2 0 1 0 1
0 -218 -15 191 0 0 1 2 0 1 0 1
0 -218 -15 41 0 0 1 2 0 1 0 1
phys
0 -218 -20 42.999 0 0 1 2 0 1 0 1
0 -218 -15 41 0 0 1 2 0 1 0 1
0 -218 -18 41 0 0 1 2 0 1 0 1
phys
0 -178 -20 189.001 0 0 1 2 0 1 0 1
0 -178 -20 42.999 0 0 1 2 0 1 0 1
0 -178 -18 41 0 0 1 2 0 1 0 1
phys
0 -178 -20 189.001 0 0 1 2 0 1 0 1
0 -178 -18 41 0 0 1 2 0 1 0 1
0 -178 -15 41 0 0 1 2 0 1 0 1
phys
0 -178 -20 189.001 0 0 1 2 0 1 0 1
0 -178 -15 41 0 0 1 2 0 1 0 1
0 -178 -15 191 0 0 1 2 0 1 0 1
phys
0 -178 -20 189.001 0 0 1 2 0 1 0 1
0 -178 -15 191 0 0 1 2 0 1 0 1
0 -178 -18 191 0 0 1 2 0 1 0 1
phys
0 -218 -18 41 0 0 1 2 0 1 0 1
0 -218 -15 41 0 0 1 2 0 1 0 1
0 -178 -15 41 0 0 1 2 0 1 0 1
phys
0 -218 -18 41 0 0 1 2 0 1 0 1
0 -178 -15 41 0 0 1 2 0 1 0 1
0 -178 -18 41 0 0 1 2 0 1 0 1
phys
0 -178 -18 191 0 0 1 2 0 1 0 1
0 -178 -15 191 0 0 1 2 0 1 0 1
0 -218 -15 191 0 0 1 2 0 1 0 1
phys
0 -178 -18 191 0 0 1 2 0 1 0 1
0 -218 -15 191 0 0 1 2 0 1 0 1
0 -218 -18 191 0 0 1 2 0 1 0 1
phys
0 -218 -20 189.001 0 0 1 2 0 1 0 1
0 -178 -20 189.001 0 0 1 2 0 1 0 1
0 -178 -18 191 0 0 1 2 0 1 0 1
phys
0 -218 -20 189.001 0 0 1 2 0 1 0 1
0 -178 -18 191 0 0 1 2 0 1 0 1
0 -218 -18 191 0 0 1 2 0 1 0 1
phys
0 -178 -20 42.999 0 0 1 2 0 1 0 1
0 -218 -20 42.999 0 0 1 2 0 1 0 1
0 -218 -18 41 0 0 1 2 0 1 0 1
phys
0 -178 -20 42.999 0 0 1 2 0 1 0 1
0 -218 -18 41 0 0 1 2 0 1 0 1
0 -178 -18 41 0 0 1 2 0 1 0 1
phys
0 183 -104 248 0 0 1 3 0 1 0 1
0 183 -104 259 0 0 1 3 0 1 0 1
0 56 -104 259 0 0 1 3 0 1 0 1
phys
0 183 -104 248 0 0 1 3 0 1 0 1
0 56 -104 259 0 0 1 3 0 1 0 1
0 56 -104 248 0 0 1 3 0 1 0 1
phys
0 56 -104 248 0 0 1 3 0 1 0 1
0 56 -104 259 0 0 1 3 0 1 0 1
0 56 -98 259 0 0 1 3 0 1 0 1
phys
0 56 -104 248 0 0 1 3 0 1 0 1
0 56 -98 259 0 0 1 3 0 1 0 1
0 56 -98 248 0 0 1 3 0 1 0 1
phys
0 183 -104 259 0 0 1 3 0 1 0 1
0 183 -104 248 0 0 1 3 0 1 0 1
0 183 -98 248 0 0 1 3 0 1 0 1
phys
0 183 -104 259 0 0 1 3 0 1 0 1
0 183 -98 248 0 0 1 3 0 1 0 1
0 183 -98 259 0 0 1 3 0 1 0 1
phys
0 183 -104 248 0 0 1 3 0 1 0 1
0 56 -104 248 0 0 1 3 0 1 0 1
0 56 -98 248 0 0 1 3 0 1 0 1
phys
0 183 -104 248 0 0 1 3 0 1 0 1
0 56 -98 248 0 0 1 3 0 1 0 1
0 183 -98 248 0 0 1 3 0 1 0 1
phys
0 56 -104 259 0 0 1 3 0 1 0 1
0 183 -104 259 0 0 1 3 0 1 0 1
0 183 -98 259 0 0 1 3 0 1 0 1
phys
0 56 -104 259 0 0 1 3 0 1 0 1
0 183 -98 259 0 0 1 3 0 1 0 1
0 56 -98 259 0 0 1 3 0 1 0 1
phys
0 183 -98 259 0 0 1 3 0 1 0 1
0 183 -98 248 0 0 1 3 0 1 0 1
0 56 -98 248 0 0 1 3 0 1 0 1
phys
0 183 -98 259 0 0 1 3 0 1 0 1
0 56 -98 248 0 0 1 3 0 1 0 1
0 56 -98 259 0 0 1 3 0 1 0 1
phys
0 -111 -104 280 0 0 1 4 0 1 0 1
0 -111 -96 280 0 0 1 4 0 1 0 1
0 -111 -96 282 0 0 1 4 0 1 0 1
phys
0 -111 -104 280 0 0 1 4 0 1 0 1
0 -111 -96 282 0 0 1 4 0 1 0 1
0 -111 -104 282 0 0 1 4 0 1 0 1
phys
0 -198 -96 280 0 0 1 4 0 1 0 1
0 -111 -96 280 0 0 1 4 0 1 0 1
0 -111 -104 280 0 0 1 4 0 1 0 1
phys
0 -198 -96 280 0 0 1 4 0 1 0 1
0 -111 -104 280 0 0 1 4 0 1 0 1
0 -198 -104 280 0 0 1 4 0 1 0 1
phys
0 -198 -104 282 0 0 1 4 0 1 0 1
0 -111 -104 282 0 0 1 4 0 1 0 1
0 -111 -96 282 0 0 1 4 0 1 0 1
phys
0 -198 -104 282 0 0 1 4 0 1 0 1
0 -111 -96 282 0 0 1 4 0 1 0 1
0 -198 -96 282 0 0 1 4 0 1 0 1
phys
0 -111 -96 282 0 0 1 4 0 1 0 1
0 -111 -96 280 0 0 1 4 0 1 0 1
0 -198 -96 280 0 0 1 4 0 1 0 1
phys
0 -111 -96 282 0 0 1 4 0 1 0 1
0 -198 -96 280 0 0 1 4 0 1 0 1
0 -198 -96 282 0 0 1 4 0 1 0 1
phys
0 -111 -104 280 0 0 1 4 0 1 0 1
0 -111 -104 282 0 0 1 4 0 1 0 1
0 -198 -104 282 0 0 1 4 0 1 0 1
phys
0 -111 -104 280 0 0 1 4 0 1 0 1
0 -198 -104 282 0 0 1 4 0 1 0 1
0 -198 -104 280 0 0 1 4 0 1 0 1
phys
0 -198 -104 282 0 0 1 4 0 1 0 1
0 -198 -96 282 0 0 1 4 0 1 0 1
0 -198 -96 280 0 0 1 4 0 1 0 1
phys
0 -198 -104 282 0 0 1 4 0 1 0 1
0 -198 -96 280 0 0 1 4 0 1 0 1
0 -198 -104 280 0 0 1 4 0 1 0 1
phys
0 185 -56 24.01 0 0 1 5 0 1 0 1
0 185 -56 32 0 0 1 5 0 1 0 1
0 -90.1 -56 32 0 0 1 5 0 1 0 1
phys
0 185 -56 24.01 0 0 1 5 0 1 0 1
0 -90.1 -56 32 0 0 1 5 0 1 0 1
0 -90.1 -56 24.01 0 0 1 5 0 1 0 1
phys
0 -90.1 -56 24.01 0 0 1 5 0 1 0 1
0 -90.1 -56 32 0 0 1 5 0 1 0 1
0 -90.1 -40 32 0 0 1 5 0 1 0 1
phys
0 185 -56 32 0 0 1 5 0 1 0 1
0 185 -56 24.01 0 0 1 5 0 1 0 1
0 185 -40 32 0 0 1 5 0 1 0 1
phys
0 -90.1 -56 32 0 0 1 5 0 1 0 1
0 185 -56 32 0 0 1 5 0 1 0 1
0 185 -40 32 0 0 1 5 0 1 0 1
phys
0 -90.1 -56 32 0 0 1 5 0 1 0 1
0 185 -40 32 0 0 1 5 0 1 0 1
0 -90.1 -40 32 0 0 1 5 0 1 0 1
phys
0 185 -56 24.01 0 0 1 5 0 1 0 1
0 -90.1 -56 24.01 0 0 1 5 0 1 0 1
0 -90.1 -40 32 0 0 1 5 0 1 0 1
phys
0 185 -56 24.01 0 0 1 5 0 1 0 1
0 -90.1 -40 32 0 0 1 5 0 1 0 1
0 185 -40 32 0 0 1 5 0 1 0 1
phys
0 -90.1 -104 8 0 0 1 6 0 1 0 1
0 -90.1 -88 8 0 0 1 6 0 1 0 1
0 -90.1 -104 0.01 0 0 1 6 0 1 0 1
phys
0 185 -104 0.01 0 0 1 6 0 1 0 1
0 185 -88 8 0 0 1 6 0 1 0 1
0 185 -104 8 0 0 1 6 0 1 0 1
phys
0 185 -104 8 0 0 1 6 0 1 0 1
0 185 -88 8 0 0 1 6 0 1 0 1
0 -90.1 -88 8 0 0 1 6 0 1 0 1
phys
0 185 -104 8 0 0 1 6 0 1 0 1
0 -90.1 -88 8 0 0 1 6 0 1 0 1
0 -90.1 -104 8 0 0 1 6 0 1 0 1
phys
0 -90.1 -104 0.01 0 0 1 6 0 1 0 1
0 -90.1 -88 8 0 0 1 6 0 1 0 1
0 185 -88 8 0 0 1 6 0 1 0 1
phys
0 -90.1 -104 0.01 0 0 1 6 0 1 0 1
0 185 -88 8 0 0 1 6 0 1 0 1
0 185 -104 0.01 0 0 1 6 0 1 0 1
phys
0 185 -104 0.01 0 0 1 6 0 1 0 1
0 185 -104 8 0 0 1 6 0 1 0 1
0 -90.1 -104 8 0 0 1 6 0 1 0 1
phys
0 185 -104 0.01 0 0 1 6 0 1 0 1
0 -90.1 -104 8 0 0 1 6 0 1 0 1
0 -90.1 -104 0.01 0 0 1 6 0 1 0 1
phys
0 229 -104 43 0 0 1 7 0 1 0 1
0 235 -104 43 0 0 1 7 0 1 0 1
0 235 -98 43 0 0 1 7 0 1 0 1
phys
0 229 -104 43 0 0 1 7 0 1 0 1
0 235 -98 43 0 0 1 7 0 1 0 1
0 229 -98 43 0 0 1 7 0 1 0 1
phys
0 229 -98 0 0 0 1 7 0 1 0 1
0 229 -98 43 0 0 1 7 0 1 0 1
0 235 -98 43 0 0 1 7 0 1 0 1
phys
0 229 -98 0 0 0 1 7 0 1 0 1
0 235 -98 43 0 0 1 7 0 1 0 1
0 235 -98 0 0 0 1 7 0 1 0 1
phys
0 235 -104 0 0 0 1 7 0 1 0 1
0 235 -104 43 0 0 1 7 0 1 0 1
0 229 -104 43 0 0 1 7 0 1 0 1
phys
0 235 -104 0 0 0 1 7 0 1 0 1
0 229 -104 43 0 0 1 7 0 1 0 1
0 229 -104 0 0 0 1 7 0 1 0 1
phys
0 229 -104 0 0 0 1 7 0 1 0 1
0 229 -104 43 0 0 1 7 0 1 0 1
0 229 -98 43 0 0 1 7 0 1 0 1
phys
0 229 -104 0 0 0 1 7 0 1 0 1
0 229 -98 43 0 0 1 7 0 1 0 1
0 229 -98 0 0 0 1 7 0 1 0 1
phys
0 235 -98 0 0 0 1 7 0 1 0 1
0 235 -98 43 0 0 1 7 0 1 0 1
0 235 -104 43 0 0 1 7 0 1 0 1
phys
0 235 -98 0 0 0 1 7 0 1 0 1
0 235 -104 43 0 0 1 7 0 1 0 1
0 235 -104 0 0 0 1 7 0 1 0 1
phys
0 235 -104 0 0 0 1 7 0 1 0 1
0 229 -104 0 0 0 1 7 0 1 0 1
0 229 -98 0 0 0 1 7 0 1 0 1
phys
0 235 -104 0 0 0 1 7 0 1 0 1
0 229 -98 0 0 0 1 7 0 1 0 1
0 235 -98 0 0 0 1 7 0 1 0 1
phys
0 -111 -101 250 0 0 1 8 0 1 0 1
0 -111 -101 365 0 0 1 8 0 1 0 1
0 -286 -101 365 0 0 1 8 0 1 0 1
phys
0 -111 -101 250 0 0 1 8 0 1 0 1
0 -286 -101 365 0 0 1 8 0 1 0 1
0 -286 -101 250 0 0 1 8 0 1 0 1
phys
0 -286 -101 250 0 0 1 8 0 1 0 1
0 -286 -101 365 0 0 1 8 0 1 0 1
0 -286 -99 365 0 0 1 8 0 1 0 1
phys
0 -286 -101 250 0 0 1 8 0 1 0 1
0 -286 -99 365 0 0 1 8 0 1 0 1
0 -286 -99 250 0 0 1 8 0 1 0 1
phys
0 -111 -101 365 0 0 1 8 0 1 0 1
0 -111 -101 250 0 0 1 8 0 1 0 1
0 -111 -99 250 0 0 1 8 0 1 0 1
phys
0 -111 -101 365 0 0 1 8 0 1 0 1
0 -111 -99 250 0 0 1 8 0 1 0 1
0 -111 -99 365 0 0 1 8 0 1 0 1
phys
0 -111 -101 250 0 0 1 8 0 1 0 1
0 -286 -101 250 0 0 1 8 0 1 0 1
0 -286 -99 250 0 0 1 8 0 1 0 1
phys
0 -111 -101 250 0 0 1 8 0 1 0 1
0 -286 -99 250 0 0 1 8 0 1 0 1
0 -111 -99 250 0 0 1 8 0 1 0 1
phys
0 -286 -101 365 0 0 1 8 0 1 0 1
0 -111 -101 365 0 0 1 8 0 1 0 1
0 -111 -99 365 0 0 1 8 0 1 0 1
phys
0 -286 -101 365 0 0 1 8 0 1 0 1
0 -111 -99 365 0 0 1 8 0 1 0 1
0 -286 -99 365 0 0 1 8 0 1 0 1
phys
0 -111 -99 365 0 0 1 8 0 1 0 1
0 -111 -99 250 0 0 1 8 0 1 0 1
0 -286 -99 250 0 0 1 8 0 1 0 1
phys
0 -111 -99 365 0 0 1 8 0 1 0 1
0 -286 -99 250 0 0 1 8 0 1 0 1
0 -286 -99 365 0 0 1 8 0 1 0 1
phys
0 287 -104 280 0 0 1 9 0 1 0 1
0 287 -104 282 0 0 1 9 0 1 0 1
0 201 -104 282 0 0 1 9 0 1 0 1
phys
0 287 -104 280 0 0 1 9 0 1 0 1
0 201 -104 282 0 0 1 9 0 1 0 1
0 201 -104 280 0 0 1 9 0 1 0 1
phys
0 201 -104 280 0 0 1 9 0 1 0 1
0 201 -104 282 0 0 1 9 0 1 0 1
0 201 -96 282 0 0 1 9 0 1 0 1
phys
0 201 -104 280 0 0 1 9 0 1 0 1
0 201 -96 282 0 0 1 9 0 1 0 1
0 201 -96 280 0 0 1 9 0 1 0 1
phys
0 287 -104 282 0 0 1 9 0 1 0 1
0 287 -104 280 0 0 1 9 0 1 0 1
0 287 -96 280 0 0 1 9 0 1 0 1
phys
0 287 -104 282 0 0 1 9 0 1 0 1
0 287 -96 280 0 0 1 9 0 1 0 1
0 287 -96 282 0 0 1 9 0 1 0 1
phys
0 287 -104 280 0 0 1 9 0 1 0 1
0 201 -104 280 0 0 1 9 0 1 0 1
0 201 -96 280 0 0 1 9 0 1 0 1
phys
0 287 -104 280 0 0 1 9 0 1 0 1
0 201 -96 280 0 0 1 9 0 1 0 1
0 287 -96 280 0 0 1 9 0 1 0 1
phys
0 201 -104 282 0 0 1 9 0 1 0 1
0 287 -104 282 0 0 1 9 0 1 0 1
0 287 -96 282 0 0 1 9 0 1 0 1
phys
0 201 -104 282 0 0 1 9 0 1 0 1
0 287 -96 282 0 0 1 9 0 1 0 1
0 201 -96 282 0 0 1 9 0 1 0 1
phys
0 287 -96 282 0 0 1 9 0 1 0 1
0 287 -96 280 0 0 1 9 0 1 0 1
0 201 -96 280 0 0 1 9 0 1 0 1
phys
0 287 -96 282 0 0 1 9 0 1 0 1
0 201 -96 280 0 0 1 9 0 1 0 1
0 201 -96 282 0 0 1 9 0 1 0 1
phys
0 185 56 80 0 0 1 10 0 1 0 1
0 185 56 88 0 0 1 10 0 1 0 1
0 -90.1 56 88 0 0 1 10 0 1 0 1
phys
0 185 56 80 0 0 1 10 0 1 0 1
0 -90.1 56 88 0 0 1 10 0 1 0 1
0 -90.1 56 80 0 0 1 10 0 1 0 1
phys
0 -90.1 56 80 0 0 1 10 0 1 0 1
0 -90.1 56 88 0 0 1 10 0 1 0 1
0 -90.1 72 88 0 0 1 10 0 1 0 1
phys
0 185 56 88 0 0 1 10 0 1 0 1
0 185 56 80 0 0 1 10 0 1 0 1
0 185 72 88 0 0 1 10 0 1 0 1
phys
0 -90.1 56 88 0 0 1 10 0 1 0 1
0 185 56 88 0 0 1 10 0 1 0 1
0 185 72 88 0 0 1 10 0 1 0 1
phys
0 -90.1 56 88 0 0 1 10 0 1 0 1
0 185 72 88 0 0 1 10 0 1 0 1
0 -90.1 72 88 0 0 1 10 0 1 0 1
phys
0 185 56 80 0 0 1 10 0 1 0 1
0 -90.1 56 80 0 0 1 10 0 1 0 1
0 -90.1 72 88 0 0 1 10 0 1 0 1
phys
0 185 56 80 0 0 1 10 0 1 0 1
0 -90.1 72 88 0 0 1 10 0 1 0 1
0 185 72 88 0 0 1 10 0 1 0 1
phys
0 -198 -96 365 0 0 1 11 0 1 0 1
0 -198 -96 250 0 0 1 11 0 1 0 1
0 -200 -96 250 0 0 1 11 0 1 0 1
phys
0 -198 -96 365 0 0 1 11 0 1 0 1
0 -200 -96 250 0 0 1 11 0 1 0 1
0 -200 -96 365 0 0 1 11 0 1 0 1
phys
0 -198 -104 250 0 0 1 11 0 1 0 1
0 -198 -104 365 0 0 1 11 0 1 0 1
0 -200 -104 365 0 0 1 11 0 1 0 1
phys
0 -198 -104 250 0 0 1 11 0 1 0 1
0 -200 -104 365 0 0 1 11 0 1 0 1
0 -200 -104 250 0 0 1 11 0 1 0 1
phys
0 -200 -104 250 0 0 1 11 0 1 0 1
0 -200 -104 365 0 0 1 11 0 1 0 1
0 -200 -96 365 0 0 1 11 0 1 0 1
phys
0 -200 -104 250 0 0 1 11 0 1 0 1
0 -200 -96 365 0 0 1 11 0 1 0 1
0 -200 -96 250 0 0 1 11 0 1 0 1
phys
0 -198 -104 365 0 0 1 11 0 1 0 1
0 -198 -104 250 0 0 1 11 0 1 0 1
0 -198 -96 250 0 0 1 11 0 1 0 1
phys
0 -198 -104 365 0 0 1 11 0 1 0 1
0 -198 -96 250 0 0 1 11 0 1 0 1
0 -198 -96 365 0 0 1 11 0 1 0 1
phys
0 -198 -104 250 0 0 1 11 0 1 0 1
0 -200 -104 250 0 0 1 11 0 1 0 1
0 -200 -96 250 0 0 1 11 0 1 0 1
phys
0 -198 -104 250 0 0 1 11 0 1 0 1
0 -200 -96 250 0 0 1 11 0 1 0 1
0 -198 -96 250 0 0 1 11 0 1 0 1
phys
0 -200 -104 365 0 0 1 11 0 1 0 1
0 -198 -104 365 0 0 1 11 0 1 0 1
0 -198 -96 365 0 0 1 11 0 1 0 1
phys
0 -200 -104 365 0 0 1 11 0 1 0 1
0 -198 -96 365 0 0 1 11 0 1 0 1
0 -200 -96 365 0 0 1 11 0 1 0 1
phys
0 189 -104 0 0 0 1 12 0 1 0 1
0 189 -104 8 0 0 1 12 0 1 0 1
0 185 -104 8 0 0 1 12 0 1 0 1
phys
0 189 -104 0 0 0 1 12 0 1 0 1
0 185 -104 8 0 0 1 12 0 1 0 1
0 185 -104 0 0 0 1 12 0 1 0 1
phys
0 185 -104 0 0 0 1 12 0 1 0 1
0 185 -104 8 0 0 1 12 0 1 0 1
0 185 88 104 0 0 1 12 0 1 0 1
phys
0 185 -104 0 0 0 1 12 0 1 0 1
0 185 88 104 0 0 1 12 0 1 0 1
0 185 104 104 0 0 1 12 0 1 0 1
phys
0 189 -104 8 0 0 1 12 0 1 0 1
0 189 -104 0 0 0 1 12 0 1 0 1
0 189 104 104 0 0 1 12 0 1 0 1
phys
0 189 -104 8 0 0 1 12 0 1 0 1
0 189 104 104 0 0 1 12 0 1 0 1
0 189 88 104 0 0 1 12 0 1 0 1
phys
0 189 88 104 0 0 1 12 0 1 0 1
0 189 104 104 0 0 1 12 0 1 0 1
0 185 104 104 0 0 1 12 0 1 0 1
phys
0 189 88 104 0 0 1 12 0 1 0 1
0 185 104 104 0 0 1 12 0 1 0 1
0 185 88 104 0 0 1 12 0 1 0 1
phys
0 189 -104 0 0 0 1 12 0 1 0 1
0 185 -104 0 0 0 1 12 0 1 0 1
0 185 104 104 0 0 1 12 0 1 0 1
phys
0 189 -104 0 0 0 1 12 0 1 0 1
0 185 104 104 0 0 1 12 0 1 0 1
0 189 104 104 0 0 1 12 0 1 0 1
phys
0 185 -104 8 0 0 1 12 0 1 0 1
0 189 -104 8 0 0 1 12 0 1 0 1
0 189 88 104 0 0 1 12 0 1 0 1
phys
0 185 -104 8 0 0 1 12 0 1 0 1
0 189 88 104 0 0 1 12 0 1 0 1
0 185 88 104 0 0 1 12 0 1 0 1
phys
0 -139 -104 0 0 0 1 13 0 1 0 1
0 -139 -98 0 0 0 1 13 0 1 0 1
0 -139 -98 43 0 0 1 13 0 1 0 1
phys
0 -139 -104 0 0 0 1 13 0 1 0 1
0 -139 -98 43 0 0 1 13 0 1 0 1
0 -139 -104 43 0 0 1 13 0 1 0 1
phys
0 -145 -98 0 0 0 1 13 0 1 0 1
0 -139 -98 0 0 0 1 13 0 1 0 1
0 -139 -104 0 0 0 1 13 0 1 0 1
phys
0 -145 -98 0 0 0 1 13 0 1 0 1
0 -139 -104 0 0 0 1 13 0 1 0 1
0 -145 -104 0 0 0 1 13 0 1 0 1
phys
0 -145 -104 43 0 0 1 13 0 1 0 1
0 -139 -104 43 0 0 1 13 0 1 0 1
0 -139 -98 43 0 0 1 13 0 1 0 1
phys
0 -145 -104 43 0 0 1 13 0 1 0 1
0 -139 -98 43 0 0 1 13 0 1 0 1
0 -145 -98 43 0 0 1 13 0 1 0 1
phys
0 -139 -98 43 0 0 1 13 0 1 0 1
0 -139 -98 0 0 0 1 13 0 1 0 1
0 -145 -98 0 0 0 1 13 0 1 0 1
phys
0 -139 -98 43 0 0 1 13 0 1 0 1
0 -145 -98 0 0 0 1 13 0 1 0 1
0 -145 -98 43 0 0 1 13 0 1 0 1
phys
0 -139 -104 0 0 0 1 13 0 1 0 1
0 -139 -104 43 0 0 1 13 0 1 0 1
0 -145 -104 43 0 0 1 13 0 1 0 1
phys
0 -139 -104 0 0 0 1 13 0 1 0 1
0 -145 -104 43 0 0 1 13 0 1 0 1
0 -145 -104 0 0 0 1 13 0 1 0 1
phys
0 -145 -104 43 0 0 1 13 0 1 0 1
0 -145 -98 43 0 0 1 13 0 1 0 1
0 -145 -98 0 0 0 1 13 0 1 0 1
phys
0 -145 -104 43 0 0 1 13 0 1 0 1
0 -145 -98 0 0 0 1 13 0 1 0 1
0 -145 -104 0 0 0 1 13 0 1 0 1
phys
0 -99 -40 356.0002 0 0 1 14 0 1 0 1
0 -99 -40 248 0 0 1 14 0 1 0 1
0 -109 -40 248 0 0 1 14 0 1 0 1
phys
0 -99 -40 356.0002 0 0 1 14 0 1 0 1
0 -109 -40 248 0 0 1 14 0 1 0 1
0 -109 -40 356.0002 0 0 1 14 0 1 0 1
phys
0 -99 -44 248 0 0 1 14 0 1 0 1
0 -99 -44 360.0002 0 0 1 14 0 1 0 1
0 -109 -44 360.0002 0 0 1 14 0 1 0 1
phys
0 -99 -44 248 0 0 1 14 0 1 0 1
0 -109 -44 360.0002 0 0 1 14 0 1 0 1
0 -109 -44 248 0 0 1 14 0 1 0 1
phys
0 -109 -44 248 0 0 1 14 0 1 0 1
0 -109 -44 360.0002 0 0 1 14 0 1 0 1
0 -109 -40 356.0002 0 0 1 14 0 1 0 1
phys
0 -109 -44 248 0 0 1 14 0 1 0 1
0 -109 -40 356.0002 0 0 1 14 0 1 0 1
0 -109 -40 248 0 0 1 14 0 1 0 1
phys
0 -99 -44 360.0002 0 0 1 14 0 1 0 1
0 -99 -44 248 0 0 1 14 0 1 0 1
0 -99 -40 248 0 0 1 14 0 1 0 1
phys
0 -99 -44 360.0002 0 0 1 14 0 1 0 1
0 -99 -40 248 0 0 1 14 0 1 0 1
0 -99 -40 356.0002 0 0 1 14 0 1 0 1
phys
0 -99 -44 248 0 0 1 14 0 1 0 1
0 -109 -44 248 0 0 1 14 0 1 0 1
0 -109 -40 248 0 0 1 14 0 1 0 1
phys
0 -99 -44 248 0 0 1 14 0 1 0 1
0 -109 -40 248 0 0 1 14 0 1 0 1
0 -99 -40 248 0 0 1 14 0 1 0 1
phys
0 -109 -44 360.0002 0 0 1 14 0 1 0 1
0 -99 -44 360.0002 0 0 1 14 0 1 0 1
0 -99 -40 356.0002 0 0 1 14 0 1 0 1
phys
0 -109 -44 360.0002 0 0 1 14 0 1 0 1
0 -99 -40 356.0002 0 0 1 14 0 1 0 1
0 -109 -40 356.0002 0 0 1 14 0 1 0 1
phys
0 -109 -96 365 0 0 1 15 0 1 0 1
0 -109 -96 250 0 0 1 15 0 1 0 1
0 -111 -96 250 0 0 1 15 0 1 0 1
phys
0 -109 -96 365 0 0 1 15 0 1 0 1
0 -111 -96 250 0 0 1 15 0 1 0 1
0 -111 -96 365 0 0 1 15 0 1 0 1
phys
0 -109 -104 250 0 0 1 15 0 1 0 1
0 -109 -104 365 0 0 1 15 0 1 0 1
0 -111 -104 365 0 0 1 15 0 1 0 1
phys
0 -109 -104 250 0 0 1 15 0 1 0 1
0 -111 -104 365 0 0 1 15 0 1 0 1
0 -111 -104 250 0 0 1 15 0 1 0 1
phys
0 -111 -104 250 0 0 1 15 0 1 0 1
0 -111 -104 365 0 0 1 15 0 1 0 1
0 -111 -96 365 0 0 1 15 0 1 0 1
phys
0 -111 -104 250 0 0 1 15 0 1 0 1
0 -111 -96 365 0 0 1 15 0 1 0 1
0 -111 -96 250 0 0 1 15 0 1 0 1
phys
0 -109 -104 365 0 0 1 15 0 1 0 1
0 -109 -104 250 0 0 1 15 0 1 0 1
0 -109 -96 250 0 0 1 15 0 1 0 1
phys
0 -109 -104 365 0 0 1 15 0 1 0 1
0 -109 -96 250 0 0 1 15 0 1 0 1
0 -109 -96 365 0 0 1 15 0 1 0 1
phys
0 -109 -104 250 0 0 1 15 0 1 0 1
0 -111 -104 250 0 0 1 15 0 1 0 1
0 -111 -96 250 0 0 1 15 0 1 0 1
phys
0 -109 -104 250 0 0 1 15 0 1 0 1
0 -111 -96 250 0 0 1 15 0 1 0 1
0 -109 -96 250 0 0 1 15 0 1 0 1
phys
0 -111 -104 365 0 0 1 15 0 1 0 1
0 -109 -104 365 0 0 1 15 0 1 0 1
0 -109 -96 365 0 0 1 15 0 1 0 1
phys
0 -111 -104 365 0 0 1 15 0 1 0 1
0 -109 -96 365 0 0 1 15 0 1 0 1
0 -111 -96 365 0 0 1 15 0 1 0 1
phys
0 34 -100 291 0 0 1 16 0 1 0 1
0 34 -100 259 0 0 1 16 0 1 0 1
0 -93 -100 259 0 0 1 16 0 1 0 1
phys
0 34 -100 291 0 0 1 16 0 1 0 1
0 -93 -100 259 0 0 1 16 0 1 0 1
0 -93 -100 291 0 0 1 16 0 1 0 1
phys
0 34 -102 259 0 0 1 16 0 1 0 1
0 34 -102 291 0 0 1 16 0 1 0 1
0 -93 -102 291 0 0 1 16 0 1 0 1
phys
0 34 -102 259 0 0 1 16 0 1 0 1
0 -93 -102 291 0 0 1 16 0 1 0 1
0 -93 -102 259 0 0 1 16 0 1 0 1
phys
0 -93 -102 259 0 0 1 16 0 1 0 1
0 -93 -102 291 0 0 1 16 0 1 0 1
0 -93 -100 291 0 0 1 16 0 1 0 1
phys
0 -93 -102 259 0 0 1 16 0 1 0 1
0 -93 -100 291 0 0 1 16 0 1 0 1
0 -93 -100 259 0 0 1 16 0 1 0 1
phys
0 34 -102 291 0 0 1 16 0 1 0 1
0 34 -102 259 0 0 1 16 0 1 0 1
0 34 -100 259 0 0 1 16 0 1 0 1
phys
0 34 -102 291 0 0 1 16 0 1 0 1
0 34 -100 259 0 0 1 16 0 1 0 1
0 34 -100 291 0 0 1 16 0 1 0 1
phys
0 34 -102 259 0 0 1 16 0 1 0 1
0 -93 -102 259 0 0 1 16 0 1 0 1
0 -93 -100 259 0 0 1 16 0 1 0 1
phys
0 34 -102 259 0 0 1 16 0 1 0 1
0 -93 -100 259 0 0 1 16 0 1 0 1
0 34 -100 259 0 0 1 16 0 1 0 1
phys
0 -93 -102 291 0 0 1 16 0 1 0 1
0 34 -102 291 0 0 1 16 0 1 0 1
0 34 -100 291 0 0 1 16 0 1 0 1
phys
0 -93 -102 291 0 0 1 16 0 1 0 1
0 34 -100 291 0 0 1 16 0 1 0 1
0 -93 -100 291 0 0 1 16 0 1 0 1
phys
0 -99 12 360.001 0 0 1 17 0 1 0 1
0 -99 12 248 0 0 1 17 0 1 0 1
0 -109 12 248 0 0 1 17 0 1 0 1
phys
0 -99 12 360.001 0 0 1 17 0 1 0 1
0 -109 12 248 0 0 1 17 0 1 0 1
0 -109 12 360.001 0 0 1 17 0 1 0 1
phys
0 -99 8 248 0 0 1 17 0 1 0 1
0 -99 8 356.001 0 0 1 17 0 1 0 1
0 -109 8 356.001 0 0 1 17 0 1 0 1
phys
0 -99 8 248 0 0 1 17 0 1 0 1
0 -109 8 356.001 0 0 1 17 0 1 0 1
0 -109 8 248 0 0 1 17 0 1 0 1
phys
0 -109 8 248 0 0 1 17 0 1 0 1
0 -109 8 356.001 0 0 1 17 0 1 0 1
0 -109 12 360.001 0 0 1 17 0 1 0 1
phys
0 -109 8 248 0 0 1 17 0 1 0 1
0 -109 12 360.001 0 0 1 17 0 1 0 1
0 -109 12 248 0 0 1 17 0 1 0 1
phys
0 -99 8 356.001 0 0 1 17 0 1 0 1
0 -99 8 248 0 0 1 17 0 1 0 1
0 -99 12 248 0 0 1 17 0 1 0 1
phys
0 -99 8 356.001 0 0 1 17 0 1 0 1
0 -99 12 248 0 0 1 17 0 1 0 1
0 -99 12 360.001 0 0 1 17 0 1 0 1
phys
0 -99 8 248 0 0 1 17 0 1 0 1
0 -109 8 248 0 0 1 17 0 1 0 1
0 -109 12 248 0 0 1 17 0 1 0 1
phys
0 -99 8 248 0 0 1 17 0 1 0 1
0 -109 12 248 0 0 1 17 0 1 0 1
0 -99 12 248 0 0 1 17 0 1 0 1
phys
0 -109 8 356.001 0 0 1 17 0 1 0 1
0 -99 8 356.001 0 0 1 17 0 1 0 1
0 -99 12 360.001 0 0 1 17 0 1 0 1
phys
0 -109 8 356.001 0 0 1 17 0 1 0 1
0 -99 12 360.001 0 0 1 17 0 1 0 1
0 -109 12 360.001 0 0 1 17 0 1 0 1
phys
0 185 8 56 0 0 1 18 0 1 0 1
0 -90.1 8 56 0 0 1 18 0 1 0 1
0 -90.1 24 64 0 0 1 18 0 1 0 1
phys
0 185 8 56 0 0 1 18 0 1 0 1
0 -90.1 24 64 0 0 1 18 0 1 0 1
0 185 24 64 0 0 1 18 0 1 0 1
phys
0 -90.1 8 64 0 0 1 18 0 1 0 1
0 -90.1 8 56 0 0 1 18 0 1 0 1
0 185 8 56 0 0 1 18 0 1 0 1
phys
0 -90.1 8 64 0 0 1 18 0 1 0 1
0 185 8 56 0 0 1 18 0 1 0 1
0 185 8 64 0 0 1 18 0 1 0 1
phys
0 -90.1 24 64 0 0 1 18 0 1 0 1
0 -90.1 8 56 0 0 1 18 0 1 0 1
0 -90.1 8 64 0 0 1 18 0 1 0 1
phys
0 185 8 64 0 0 1 18 0 1 0 1
0 185 8 56 0 0 1 18 0 1 0 1
0 185 24 64 0 0 1 18 0 1 0 1
phys
0 -90.1 8 64 0 0 1 18 0 1 0 1
0 185 8 64 0 0 1 18 0 1 0 1
0 185 24 64 0 0 1 18 0 1 0 1
phys
0 -90.1 8 64 0 0 1 18 0 1 0 1
0 185 24 64 0 0 1 18 0 1 0 1
0 -90.1 24 64 0 0 1 18 0 1 0 1
phys
0 185 24 64 0 0 1 19 0 1 0 1
0 185 24 72 0 0 1 19 0 1 0 1
0 -90.1 24 72 0 0 1 19 0 1 0 1
phys
0 185 24 64 0 0 1 19 0 1 0 1
0 -90.1 24 72 0 0 1 19 0 1 0 1
0 -90.1 24 64 0 0 1 19 0 1 0 1
phys
0 -90.1 24 64 0 0 1 19 0 1 0 1
0 -90.1 24 72 0 0 1 19 0 1 0 1
0 -90.1 40 72 0 0 1 19 0 1 0 1
phys
0 185 24 72 0 0 1 19 0 1 0 1
0 185 24 64 0 0 1 19 0 1 0 1
0 185 40 72 0 0 1 19 0 1 0 1
phys
0 -90.1 24 72 0 0 1 19 0 1 0 1
0 185 24 72 0 0 1 19 0 1 0 1
0 185 40 72 0 0 1 19 0 1 0 1
phys
0 -90.1 24 72 0 0 1 19 0 1 0 1
0 185 40 72 0 0 1 19 0 1 0 1
0 -90.1 40 72 0 0 1 19 0 1 0 1
phys
0 185 24 64 0 0 1 19 0 1 0 1
0 -90.1 24 64 0 0 1 19 0 1 0 1
0 -90.1 40 72 0 0 1 19 0 1 0 1
phys
0 185 24 64 0 0 1 19 0 1 0 1
0 -90.1 40 72 0 0 1 19 0 1 0 1
0 185 40 72 0 0 1 19 0 1 0 1
phys
0 201 -104 250 0 0 1 20 0 1 0 1
0 201 -96 250 0 0 1 20 0 1 0 1
0 201 -96 365 0 0 1 20 0 1 0 1
phys
0 201 -104 250 0 0 1 20 0 1 0 1
0 201 -96 365 0 0 1 20 0 1 0 1
0 201 -104 365 0 0 1 20 0 1 0 1
phys
0 199 -96 250 0 0 1 20 0 1 0 1
0 201 -96 250 0 0 1 20 0 1 0 1
0 201 -104 250 0 0 1 20 0 1 0 1
phys
0 199 -96 250 0 0 1 20 0 1 0 1
0 201 -104 250 0 0 1 20 0 1 0 1
0 199 -104 250 0 0 1 20 0 1 0 1
phys
0 199 -104 365 0 0 1 20 0 1 0 1
0 201 -104 365 0 0 1 20 0 1 0 1
0 201 -96 365 0 0 1 20 0 1 0 1
phys
0 199 -104 365 0 0 1 20 0 1 0 1
0 201 -96 365 0 0 1 20 0 1 0 1
0 199 -96 365 0 0 1 20 0 1 0 1
phys
0 201 -96 365 0 0 1 20 0 1 0 1
0 201 -96 250 0 0 1 20 0 1 0 1
0 199 -96 250 0 0 1 20 0 1 0 1
phys
0 201 -96 365 0 0 1 20 0 1 0 1
0 199 -96 250 0 0 1 20 0 1 0 1
0 199 -96 365 0 0 1 20 0 1 0 1
phys
0 201 -104 250 0 0 1 20 0 1 0 1
0 201 -104 365 0 0 1 20 0 1 0 1
0 199 -104 365 0 0 1 20 0 1 0 1
phys
0 201 -104 250 0 0 1 20 0 1 0 1
0 199 -104 365 0 0 1 20 0 1 0 1
0 199 -104 250 0 0 1 20 0 1 0 1
phys
0 199 -104 365 0 0 1 20 0 1 0 1
0 199 -96 365 0 0 1 20 0 1 0 1
0 199 -96 250 0 0 1 20 0 1 0 1
phys
0 199 -104 365 0 0 1 20 0 1 0 1
0 199 -96 250 0 0 1 20 0 1 0 1
0 199 -104 250 0 0 1 20 0 1 0 1
phys
0 185 40 72 0 0 1 21 0 1 0 1
0 185 40 80 0 0 1 21 0 1 0 1
0 -90.1 40 80 0 0 1 21 0 1 0 1
phys
0 185 40 72 0 0 1 21 0 1 0 1
0 -90.1 40 80 0 0 1 21 0 1 0 1
0 -90.1 40 72 0 0 1 21 0 1 0 1
phys
0 -90.1 40 72 0 0 1 21 0 1 0 1
0 -90.1 40 80 0 0 1 21 0 1 0 1
0 -90.1 56 80 0 0 1 21 0 1 0 1
phys
0 185 40 80 0 0 1 21 0 1 0 1
0 185 40 72 0 0 1 21 0 1 0 1
0 185 56 80 0 0 1 21 0 1 0 1
phys
0 -90.1 40 80 0 0 1 21 0 1 0 1
0 185 40 80 0 0 1 21 0 1 0 1
0 185 56 80 0 0 1 21 0 1 0 1
phys
0 -90.1 40 80 0 0 1 21 0 1 0 1
0 185 56 80 0 0 1 21 0 1 0 1
0 -90.1 56 80 0 0 1 21 0 1 0 1
phys
0 185 40 72 0 0 1 21 0 1 0 1
0 -90.1 40 72 0 0 1 21 0 1 0 1
0 -90.1 56 80 0 0 1 21 0 1 0 1
phys
0 185 40 72 0 0 1 21 0 1 0 1
0 -90.1 56 80 0 0 1 21 0 1 0 1
0 185 56 80 0 0 1 21 0 1 0 1
phys
0 185 -72 15.99 0 0 1 22 0 1 0 1
0 185 -72 24 0 0 1 22 0 1 0 1
0 -90.1 -72 24 0 0 1 22 0 1 0 1
phys
0 185 -72 15.99 0 0 1 22 0 1 0 1
0 -90.1 -72 24 0 0 1 22 0 1 0 1
0 -90.1 -72 15.99 0 0 1 22 0 1 0 1
phys
0 -90.1 -72 15.99 0 0 1 22 0 1 0 1
0 -90.1 -72 24 0 0 1 22 0 1 0 1
0 -90.1 -55.96 24 0 0 1 22 0 1 0 1
phys
0 185 -72 24 0 0 1 22 0 1 0 1
0 185 -72 15.99 0 0 1 22 0 1 0 1
0 185 -55.96 24 0 0 1 22 0 1 0 1
phys
0 -90.1 -72 24 0 0 1 22 0 1 0 1
0 185 -72 24 0 0 1 22 0 1 0 1
0 185 -55.96 24 0 0 1 22 0 1 0 1
phys
0 -90.1 -72 24 0 0 1 22 0 1 0 1
0 185 -55.96 24 0 0 1 22 0 1 0 1
0 -90.1 -55.96 24 0 0 1 22 0 1 0 1
phys
0 185 -72 15.99 0 0 1 22 0 1 0 1
0 -90.1 -72 15.99 0 0 1 22 0 1 0 1
0 -90.1 -55.96 24 0 0 1 22 0 1 0 1
phys
0 185 -72 15.99 0 0 1 22 0 1 0 1
0 -90.1 -55.96 24 0 0 1 22 0 1 0 1
0 185 -55.96 24 0 0 1 22 0 1 0 1
phys
0 185 88 96 0 0 1 23 0 1 0 1
0 185 88 104 0 0 1 23 0 1 0 1
0 -90.1 88 104 0 0 1 23 0 1 0 1
phys
0 185 88 96 0 0 1 23 0 1 0 1
0 -90.1 88 104 0 0 1 23 0 1 0 1
0 -90.1 88 96 0 0 1 23 0 1 0 1
phys
0 -90.1 88 96 0 0 1 23 0 1 0 1
0 -90.1 88 104 0 0 1 23 0 1 0 1
0 -90.1 104 104 0 0 1 23 0 1 0 1
phys
0 185 88 104 0 0 1 23 0 1 0 1
0 185 88 96 0 0 1 23 0 1 0 1
0 185 104 104 0 0 1 23 0 1 0 1
phys
0 -90.1 88 104 0 0 1 23 0 1 0 1
0 185 88 104 0 0 1 23 0 1 0 1
0 185 104 104 0 0 1 23 0 1 0 1
phys
0 -90.1 88 104 0 0 1 23 0 1 0 1
0 185 104 104 0 0 1 23 0 1 0 1
0 -90.1 104 104 0 0 1 23 0 1 0 1
phys
0 185 88 96 0 0 1 23 0 1 0 1
0 -90.1 88 96 0 0 1 23 0 1 0 1
0 -90.1 104 104 0 0 1 23 0 1 0 1
phys
0 185 88 96 0 0 1 23 0 1 0 1
0 -90.1 104 104 0 0 1 23 0 1 0 1
0 185 104 104 0 0 1 23 0 1 0 1
phys
0 40 -104 248 0 0 1 24 0 1 0 1
0 40 -98 248 0 0 1 24 0 1 0 1
0 40 -98 291 0 0 1 24 0 1 0 1
phys
0 40 -104 248 0 0 1 24 0 1 0 1
0 40 -98 291 0 0 1 24 0 1 0 1
0 40 -104 291 0 0 1 24 0 1 0 1
phys
0 34 -98 248 0 0 1 24 0 1 0 1
0 40 -98 248 0 0 1 24 0 1 0 1
0 40 -104 248 0 0 1 24 0 1 0 1
phys
0 34 -98 248 0 0 1 24 0 1 0 1
0 40 -104 248 0 0 1 24 0 1 0 1
0 34 -104 248 0 0 1 24 0 1 0 1
phys
0 34 -104 291 0 0 1 24 0 1 0 1
0 40 -104 291 0 0 1 24 0 1 0 1
0 40 -98 291 0 0 1 24 0 1 0 1
phys
0 34 -104 291 0 0 1 24 0 1 0 1
0 40 -98 291 0 0 1 24 0 1 0 1
0 34 -98 291 0 0 1 24 0 1 0 1
phys
0 40 -98 291 0 0 1 24 0 1 0 1
0 40 -98 248 0 0 1 24 0 1 0 1
0 34 -98 248 0 0 1 24 0 1 0 1
phys
0 40 -98 291 0 0 1 24 0 1 0 1
0 34 -98 248 0 0 1 24 0 1 0 1
0 34 -98 291 0 0 1 24 0 1 0 1
phys
0 40 -104 248 0 0 1 24 0 1 0 1
0 40 -104 291 0 0 1 24 0 1 0 1
0 34 -104 291 0 0 1 24 0 1 0 1
phys
0 40 -104 248 0 0 1 24 0 1 0 1
0 34 -104 291 0 0 1 24 0 1 0 1
0 34 -104 248 0 0 1 24 0 1 0 1
phys
0 34 -104 291 0 0 1 24 0 1 0 1
0 34 -98 291 0 0 1 24 0 1 0 1
0 34 -98 248 0 0 1 24 0 1 0 1
phys
0 34 -104 291 0 0 1 24 0 1 0 1
0 34 -98 248 0 0 1 24 0 1 0 1
0 34 -104 248 0 0 1 24 0 1 0 1
phys
0 -145 -98 11 0 0 1 25 0 1 0 1
0 -145 -98 0 0 0 1 25 0 1 0 1
0 -252 -98 0 0 0 1 25 0 1 0 1
phys
0 -145 -98 11 0 0 1 25 0 1 0 1
0 -252 -98 0 0 0 1 25 0 1 0 1
0 -252 -98 11 0 0 1 25 0 1 0 1
phys
0 -145 -104 0 0 0 1 25 0 1 0 1
0 -145 -104 11 0 0 1 25 0 1 0 1
0 -252 -104 11 0 0 1 25 0 1 0 1
phys
0 -145 -104 0 0 0 1 25 0 1 0 1
0 -252 -104 11 0 0 1 25 0 1 0 1
0 -252 -104 0 0 0 1 25 0 1 0 1
phys
0 -252 -104 0 0 0 1 25 0 1 0 1
0 -252 -104 11 0 0 1 25 0 1 0 1
0 -252 -98 11 0 0 1 25 0 1 0 1
phys
0 -252 -104 0 0 0 1 25 0 1 0 1
0 -252 -98 11 0 0 1 25 0 1 0 1
0 -252 -98 0 0 0 1 25 0 1 0 1
phys
0 -145 -104 11 0 0 1 25 0 1 0 1
0 -145 -104 0 0 0 1 25 0 1 0 1
0 -145 -98 0 0 0 1 25 0 1 0 1
phys
0 -145 -104 11 0 0 1 25 0 1 0 1
0 -145 -98 0 0 0 1 25 0 1 0 1
0 -145 -98 11 0 0 1 25 0 1 0 1
phys
0 -145 -104 0 0 0 1 25 0 1 0 1
0 -252 -104 0 0 0 1 25 0 1 0 1
0 -252 -98 0 0 0 1 25 0 1 0 1
phys
0 -145 -104 0 0 0 1 25 0 1 0 1
0 -252 -98 0 0 0 1 25 0 1 0 1
0 -145 -98 0 0 0 1 25 0 1 0 1
phys
0 -252 -104 11 0 0 1 25 0 1 0 1
0 -145 -104 11 0 0 1 25 0 1 0 1
0 -145 -98 11 0 0 1 25 0 1 0 1
phys
0 -252 -104 11 0 0 1 25 0 1 0 1
0 -145 -98 11 0 0 1 25 0 1 0 1
0 -252 -98 11 0 0 1 25 0 1 0 1
phys
0 -109 -96 367 0 0 1 26 0 1 0 1
0 -109 -96 365 0 0 1 26 0 1 0 1
0 -288 -96 365 0 0 1 26 0 1 0 1
phys
0 -109 -96 367 0 0 1 26 0 1 0 1
0 -288 -96 365 0 0 1 26 0 1 0 1
0 -288 -96 367 0 0 1 26 0 1 0 1
phys
0 -109 -104 365 0 0 1 26 0 1 0 1
0 -109 -104 367 0 0 1 26 0 1 0 1
0 -288 -104 367 0 0 1 26 0 1 0 1
phys
0 -109 -104 365 0 0 1 26 0 1 0 1
0 -288 -104 367 0 0 1 26 0 1 0 1
0 -288 -104 365 0 0 1 26 0 1 0 1
phys
0 -288 -104 365 0 0 1 26 0 1 0 1
0 -288 -104 367 0 0 1 26 0 1 0 1
0 -288 -96 367 0 0 1 26 0 1 0 1
phys
0 -288 -104 365 0 0 1 26 0 1 0 1
0 -288 -96 367 0 0 1 26 0 1 0 1
0 -288 -96 365 0 0 1 26 0 1 0 1
phys
0 -109 -104 367 0 0 1 26 0 1 0 1
0 -109 -104 365 0 0 1 26 0 1 0 1
0 -109 -96 365 0 0 1 26 0 1 0 1
phys
0 -109 -104 367 0 0 1 26 0 1 0 1
0 -109 -96 365 0 0 1 26 0 1 0 1
0 -109 -96 367 0 0 1 26 0 1 0 1
phys
0 -109 -104 365 0 0 1 26 0 1 0 1
0 -288 -104 365 0 0 1 26 0 1 0 1
0 -288 -96 365 0 0 1 26 0 1 0 1
phys
0 -109 -104 365 0 0 1 26 0 1 0 1
0 -288 -96 365 0 0 1 26 0 1 0 1
0 -109 -96 365 0 0 1 26 0 1 0 1
phys
0 -288 -104 367 0 0 1 26 0 1 0 1
0 -109 -104 367 0 0 1 26 0 1 0 1
0 -109 -96 367 0 0 1 26 0 1 0 1
phys
0 -288 -104 367 0 0 1 26 0 1 0 1
0 -109 -96 367 0 0 1 26 0 1 0 1
0 -288 -96 367 0 0 1 26 0 1 0 1
phys
0 -99 -40 356 0 0 1 27 0 1 0 1
0 -109 -40 356 0 0 1 27 0 1 0 1
0 -109 8 356 0 0 1 27 0 1 0 1
phys
0 -99 -40 356 0 0 1 27 0 1 0 1
0 -109 8 356 0 0 1 27 0 1 0 1
0 -99 8 356 0 0 1 27 0 1 0 1
phys
0 -109 -44 360 0 0 1 27 0 1 0 1
0 -99 -44 360 0 0 1 27 0 1 0 1
0 -99 12 360 0 0 1 27 0 1 0 1
phys
0 -109 -44 360 0 0 1 27 0 1 0 1
0 -99 12 360 0 0 1 27 0 1 0 1
0 -109 12 360 0 0 1 27 0 1 0 1
phys
0 -99 -44 360 0 0 1 27 0 1 0 1
0 -109 -44 360 0 0 1 27 0 1 0 1
0 -109 -40 356 0 0 1 27 0 1 0 1
phys
0 -99 -44 360 0 0 1 27 0 1 0 1
0 -109 -40 356 0 0 1 27 0 1 0 1
0 -99 -40 356 0 0 1 27 0 1 0 1
phys
0 -99 8 356 0 0 1 27 0 1 0 1
0 -109 8 356 0 0 1 27 0 1 0 1
0 -109 12 360 0 0 1 27 0 1 0 1
phys
0 -99 8 356 0 0 1 27 0 1 0 1
0 -109 12 360 0 0 1 27 0 1 0 1
0 -99 12 360 0 0 1 27 0 1 0 1
phys
0 -109 -44 360 0 0 1 27 0 1 0 1
0 -109 12 360 0 0 1 27 0 1 0 1
0 -109 8 356 0 0 1 27 0 1 0 1
phys
0 -109 -44 360 0 0 1 27 0 1 0 1
0 -109 8 356 0 0 1 27 0 1 0 1
0 -109 -40 356 0 0 1 27 0 1 0 1
phys
0 -99 -40 356 0 0 1 27 0 1 0 1
0 -99 8 356 0 0 1 27 0 1 0 1
0 -99 12 360 0 0 1 27 0 1 0 1
phys
0 -99 -40 356 0 0 1 27 0 1 0 1
0 -99 12 360 0 0 1 27 0 1 0 1
0 -99 -44 360 0 0 1 27 0 1 0 1
phys
0 189 -44 360 0 0 1 28 0 1 0 1
0 189 12 360 0 0 1 28 0 1 0 1
0 189 8 356 0 0 1 28 0 1 0 1
phys
0 189 -44 360 0 0 1 28 0 1 0 1
0 189 8 356 0 0 1 28 0 1 0 1
0 189 -40 356 0 0 1 28 0 1 0 1
phys
0 199 -40 356 0 0 1 28 0 1 0 1
0 199 8 356 0 0 1 28 0 1 0 1
0 199 12 360 0 0 1 28 0 1 0 1
phys
0 199 -40 356 0 0 1 28 0 1 0 1
0 199 12 360 0 0 1 28 0 1 0 1
0 199 -44 360 0 0 1 28 0 1 0 1
phys
0 189 -40 356 0 0 1 28 0 1 0 1
0 189 8 356 0 0 1 28 0 1 0 1
0 199 8 356 0 0 1 28 0 1 0 1
phys
0 189 -40 356 0 0 1 28 0 1 0 1
0 199 8 356 0 0 1 28 0 1 0 1
0 199 -40 356 0 0 1 28 0 1 0 1
phys
0 199 -44 360 0 0 1 28 0 1 0 1
0 199 12 360 0 0 1 28 0 1 0 1
0 189 12 360 0 0 1 28 0 1 0 1
phys
0 199 -44 360 0 0 1 28 0 1 0 1
0 189 12 360 0 0 1 28 0 1 0 1
0 189 -44 360 0 0 1 28 0 1 0 1
phys
0 189 -44 360 0 0 1 28 0 1 0 1
0 189 -40 356 0 0 1 28 0 1 0 1
0 199 -40 356 0 0 1 28 0 1 0 1
phys
0 189 -44 360 0 0 1 28 0 1 0 1
0 199 -40 356 0 0 1 28 0 1 0 1
0 199 -44 360 0 0 1 28 0 1 0 1
phys
0 189 8 356 0 0 1 28 0 1 0 1
0 189 12 360 0 0 1 28 0 1 0 1
0 199 12 360 0 0 1 28 0 1 0 1
phys
0 189 8 356 0 0 1 28 0 1 0 1
0 199 12 360 0 0 1 28 0 1 0 1
0 199 8 356 0 0 1 28 0 1 0 1
phys
0 185 -8 48 0 0 1 29 0 1 0 1
0 185 -8 56 0 0 1 29 0 1 0 1
0 -90.1 -8 56 0 0 1 29 0 1 0 1
phys
0 185 -8 48 0 0 1 29 0 1 0 1
0 -90.1 -8 56 0 0 1 29 0 1 0 1
0 -90.1 -8 48 0 0 1 29 0 1 0 1
phys
0 -90.1 -8 48 0 0 1 29 0 1 0 1
0 -90.1 -8 56 0 0 1 29 0 1 0 1
0 -90.1 8.02 56 0 0 1 29 0 1 0 1
phys
0 185 -8 56 0 0 1 29 0 1 0 1
0 185 -8 48 0 0 1 29 0 1 0 1
0 185 8.02 56 0 0 1 29 0 1 0 1
phys
0 -90.1 -8 56 0 0 1 29 0 1 0 1
0 185 -8 56 0 0 1 29 0 1 0 1
0 185 8.02 56 0 0 1 29 0 1 0 1
phys
0 -90.1 -8 56 0 0 1 29 0 1 0 1
0 185 8.02 56 0 0 1 29 0 1 0 1
0 -90.1 8.02 56 0 0 1 29 0 1 0 1
phys
0 185 -8 48 0 0 1 29 0 1 0 1
0 -90.1 -8 48 0 0 1 29 0 1 0 1
0 -90.1 8.02 56 0 0 1 29 0 1 0 1
phys
0 185 -8 48 0 0 1 29 0 1 0 1
0 -90.1 8.02 56 0 0 1 29 0 1 0 1
0 185 8.02 56 0 0 1 29 0 1 0 1
phys
0 -90.1 -103.99 0.005 0 0 1 30 0 1 0 1
0 -90.1 -103.99 8.005 0 0 1 30 0 1 0 1
0 -99 -103.99 8.005 0 0 1 30 0 1 0 1
phys
0 -90.1 -103.99 0.005 0 0 1 30 0 1 0 1
0 -99 -103.99 8.005 0 0 1 30 0 1 0 1
0 -99 -103.99 0.005 0 0 1 30 0 1 0 1
phys
0 -99 -103.99 0.005 0 0 1 30 0 1 0 1
0 -99 -103.99 8.005 0 0 1 30 0 1 0 1
0 -99 88 104 0 0 1 30 0 1 0 1
phys
0 -99 -103.99 0.005 0 0 1 30 0 1 0 1
0 -99 88 104 0 0 1 30 0 1 0 1
0 -99 104 104 0 0 1 30 0 1 0 1
phys
0 -90.1 -103.99 8.005 0 0 1 30 0 1 0 1
0 -90.1 -103.99 0.005 0 0 1 30 0 1 0 1
0 -90.1 104 104 0 0 1 30 0 1 0 1
phys
0 -90.1 -103.99 8.005 0 0 1 30 0 1 0 1
0 -90.1 104 104 0 0 1 30 0 1 0 1
0 -90.1 88 104 0 0 1 30 0 1 0 1
phys
0 -90.1 88 104 0 0 1 30 0 1 0 1
0 -90.1 104 104 0 0 1 30 0 1 0 1
0 -99 104 104 0 0 1 30 0 1 0 1
phys
0 -90.1 88 104 0 0 1 30 0 1 0 1
0 -99 104 104 0 0 1 30 0 1 0 1
0 -99 88 104 0 0 1 30 0 1 0 1
phys
0 -90.1 -103.99 0.005 0 0 1 30 0 1 0 1
0 -99 -103.99 0.005 0 0 1 30 0 1 0 1
0 -99 104 104 0 0 1 30 0 1 0 1
phys
0 -90.1 -103.99 0.005 0 0 1 30 0 1 0 1
0 -99 104 104 0 0 1 30 0 1 0 1
0 -90.1 104 104 0 0 1 30 0 1 0 1
phys
0 -99 -103.99 8.005 0 0 1 30 0 1 0 1
0 -90.1 -103.99 8.005 0 0 1 30 0 1 0 1
0 -90.1 88 104 0 0 1 30 0 1 0 1
phys
0 -99 -103.99 8.005 0 0 1 30 0 1 0 1
0 -90.1 88 104 0 0 1 30 0 1 0 1
0 -99 88 104 0 0 1 30 0 1 0 1
phys
0 -286 -104 282 0 0 1 31 0 1 0 1
0 -200 -104 282 0 0 1 31 0 1 0 1
0 -200 -96 282 0 0 1 31 0 1 0 1
phys
0 -286 -104 282 0 0 1 31 0 1 0 1
0 -200 -96 282 0 0 1 31 0 1 0 1
0 -286 -96 282 0 0 1 31 0 1 0 1
phys
0 -286 -96 280 0 0 1 31 0 1 0 1
0 -286 -96 282 0 0 1 31 0 1 0 1
0 -200 -96 282 0 0 1 31 0 1 0 1
phys
0 -286 -96 280 0 0 1 31 0 1 0 1
0 -200 -96 282 0 0 1 31 0 1 0 1
0 -200 -96 280 0 0 1 31 0 1 0 1
phys
0 -200 -104 280 0 0 1 31 0 1 0 1
0 -200 -104 282 0 0 1 31 0 1 0 1
0 -286 -104 282 0 0 1 31 0 1 0 1
phys
0 -200 -104 280 0 0 1 31 0 1 0 1
0 -286 -104 282 0 0 1 31 0 1 0 1
0 -286 -104 280 0 0 1 31 0 1 0 1
phys
0 -286 -104 280 0 0 1 31 0 1 0 1
0 -286 -104 282 0 0 1 31 0 1 0 1
0 -286 -96 282 0 0 1 31 0 1 0 1
phys
0 -286 -104 280 0 0 1 31 0 1 0 1
0 -286 -96 282 0 0 1 31 0 1 0 1
0 -286 -96 280 0 0 1 31 0 1 0 1
phys
0 -200 -96 280 0 0 1 31 0 1 0 1
0 -200 -96 282 0 0 1 31 0 1 0 1
0 -200 -104 282 0 0 1 31 0 1 0 1
phys
0 -200 -96 280 0 0 1 31 0 1 0 1
0 -200 -104 282 0 0 1 31 0 1 0 1
0 -200 -104 280 0 0 1 31 0 1 0 1
phys
0 -200 -104 280 0 0 1 31 0 1 0 1
0 -286 -104 280 0 0 1 31 0 1 0 1
0 -286 -96 280 0 0 1 31 0 1 0 1
phys
0 -200 -104 280 0 0 1 31 0 1 0 1
0 -286 -96 280 0 0 1 31 0 1 0 1
0 -200 -96 280 0 0 1 31 0 1 0 1
phys
0 -93 -98 291 0 0 1 32 0 1 0 1
0 -93 -98 248 0 0 1 32 0 1 0 1
0 -99 -98 248 0 0 1 32 0 1 0 1
phys
0 -93 -98 291 0 0 1 32 0 1 0 1
0 -99 -98 248 0 0 1 32 0 1 0 1
0 -99 -98 291 0 0 1 32 0 1 0 1
phys
0 -93 -104 248 0 0 1 32 0 1 0 1
0 -93 -104 291 0 0 1 32 0 1 0 1
0 -99 -104 291 0 0 1 32 0 1 0 1
phys
0 -93 -104 248 0 0 1 32 0 1 0 1
0 -99 -104 291 0 0 1 32 0 1 0 1
0 -99 -104 248 0 0 1 32 0 1 0 1
phys
0 -99 -104 248 0 0 1 32 0 1 0 1
0 -99 -104 291 0 0 1 32 0 1 0 1
0 -99 -98 291 0 0 1 32 0 1 0 1
phys
0 -99 -104 248 0 0 1 32 0 1 0 1
0 -99 -98 291 0 0 1 32 0 1 0 1
0 -99 -98 248 0 0 1 32 0 1 0 1
phys
0 -93 -104 291 0 0 1 32 0 1 0 1
0 -93 -104 248 0 0 1 32 0 1 0 1
0 -93 -98 248 0 0 1 32 0 1 0 1
phys
0 -93 -104 291 0 0 1 32 0 1 0 1
0 -93 -98 248 0 0 1 32 0 1 0 1
0 -93 -98 291 0 0 1 32 0 1 0 1
phys
0 -93 -104 248 0 0 1 32 0 1 0 1
0 -99 -104 248 0 0 1 32 0 1 0 1
0 -99 -98 248 0 0 1 32 0 1 0 1
phys
0 -93 -104 248 0 0 1 32 0 1 0 1
0 -99 -98 248 0 0 1 32 0 1 0 1
0 -93 -98 248 0 0 1 32 0 1 0 1
phys
0 -99 -104 291 0 0 1 32 0 1 0 1
0 -93 -104 291 0 0 1 32 0 1 0 1
0 -93 -98 291 0 0 1 32 0 1 0 1
phys
0 -99 -104 291 0 0 1 32 0 1 0 1
0 -93 -98 291 0 0 1 32 0 1 0 1
0 -99 -98 291 0 0 1 32 0 1 0 1
phys
0 189 -98 291 0 0 1 33 0 1 0 1
0 189 -98 248 0 0 1 33 0 1 0 1
0 183 -98 248 0 0 1 33 0 1 0 1
phys
0 189 -98 291 0 0 1 33 0 1 0 1
0 183 -98 248 0 0 1 33 0 1 0 1
0 183 -98 291 0 0 1 33 0 1 0 1
phys
0 189 -104 248 0 0 1 33 0 1 0 1
0 189 -104 291 0 0 1 33 0 1 0 1
0 183 -104 291 0 0 1 33 0 1 0 1
phys
0 189 -104 248 0 0 1 33 0 1 0 1
0 183 -104 291 0 0 1 33 0 1 0 1
0 183 -104 248 0 0 1 33 0 1 0 1
phys
0 183 -104 248 0 0 1 33 0 1 0 1
0 183 -104 291 0 0 1 33 0 1 0 1
0 183 -98 291 0 0 1 33 0 1 0 1
phys
0 183 -104 248 0 0 1 33 0 1 0 1
0 183 -98 291 0 0 1 33 0 1 0 1
0 183 -98 248 0 0 1 33 0 1 0 1
phys
0 189 -104 291 0 0 1 33 0 1 0 1
0 189 -104 248 0 0 1 33 0 1 0 1
0 189 -98 248 0 0 1 33 0 1 0 1
phys
0 189 -104 291 0 0 1 33 0 1 0 1
0 189 -98 248 0 0 1 33 0 1 0 1
0 189 -98 291 0 0 1 33 0 1 0 1
phys
0 189 -104 248 0 0 1 33 0 1 0 1
0 183 -104 248 0 0 1 33 0 1 0 1
0 183 -98 248 0 0 1 33 0 1 0 1
phys
0 189 -104 248 0 0 1 33 0 1 0 1
0 183 -98 248 0 0 1 33 0 1 0 1
0 189 -98 248 0 0 1 33 0 1 0 1
phys
0 183 -104 291 0 0 1 33 0 1 0 1
0 189 -104 291 0 0 1 33 0 1 0 1
0 189 -98 291 0 0 1 33 0 1 0 1
phys
0 183 -104 291 0 0 1 33 0 1 0 1
0 189 -98 291 0 0 1 33 0 1 0 1
0 183 -98 291 0 0 1 33 0 1 0 1
phys
0 185 -40 32 0 0 1 34 0 1 0 1
0 -90.1 -40 32 0 0 1 34 0 1 0 1
0 -90.1 -23.98 40 0 0 1 34 0 1 0 1
phys
0 185 -40 32 0 0 1 34 0 1 0 1
0 -90.1 -23.98 40 0 0 1 34 0 1 0 1
0 185 -23.98 40 0 0 1 34 0 1 0 1
phys
0 -90.1 -40 40 0 0 1 34 0 1 0 1
0 -90.1 -40 32 0 0 1 34 0 1 0 1
0 185 -40 32 0 0 1 34 0 1 0 1
phys
0 -90.1 -40 40 0 0 1 34 0 1 0 1
0 185 -40 32 0 0 1 34 0 1 0 1
0 185 -40 40 0 0 1 34 0 1 0 1
phys
0 -90.1 -23.98 40 0 0 1 34 0 1 0 1
0 -90.1 -40 32 0 0 1 34 0 1 0 1
0 -90.1 -40 40 0 0 1 34 0 1 0 1
phys
0 185 -40 40 0 0 1 34 0 1 0 1
0 185 -40 32 0 0 1 34 0 1 0 1
0 185 -23.98 40 0 0 1 34 0 1 0 1
phys
0 -90.1 -40 40 0 0 1 34 0 1 0 1
0 185 -40 40 0 0 1 34 0 1 0 1
0 185 -23.98 40 0 0 1 34 0 1 0 1
phys
0 -90.1 -40 40 0 0 1 34 0 1 0 1
0 185 -23.98 40 0 0 1 34 0 1 0 1
0 -90.1 -23.98 40 0 0 1 34 0 1 0 1
phys
0 -90.1 -24 48 0 0 1 35 0 1 0 1
0 -90.1 -8 48 0 0 1 35 0 1 0 1
0 -90.1 -24 40.01 0 0 1 35 0 1 0 1
phys
0 185 -24 40.01 0 0 1 35 0 1 0 1
0 185 -8 48 0 0 1 35 0 1 0 1
0 185 -24 48 0 0 1 35 0 1 0 1
phys
0 185 -24 48 0 0 1 35 0 1 0 1
0 185 -8 48 0 0 1 35 0 1 0 1
0 -90.1 -8 48 0 0 1 35 0 1 0 1
phys
0 185 -24 48 0 0 1 35 0 1 0 1
0 -90.1 -8 48 0 0 1 35 0 1 0 1
0 -90.1 -24 48 0 0 1 35 0 1 0 1
phys
0 -90.1 -24 40.01 0 0 1 35 0 1 0 1
0 -90.1 -8 48 0 0 1 35 0 1 0 1
0 185 -8 48 0 0 1 35 0 1 0 1
phys
0 -90.1 -24 40.01 0 0 1 35 0 1 0 1
0 185 -8 48 0 0 1 35 0 1 0 1
0 185 -24 40.01 0 0 1 35 0 1 0 1
phys
0 185 -24 40.01 0 0 1 35 0 1 0 1
0 185 -24 48 0 0 1 35 0 1 0 1
0 -90.1 -24 48 0 0 1 35 0 1 0 1
phys
0 185 -24 40.01 0 0 1 35 0 1 0 1
0 -90.1 -24 48 0 0 1 35 0 1 0 1
0 -90.1 -24 40.01 0 0 1 35 0 1 0 1
phys
0 50 -104 291 0 0 1 36 0 1 0 1
0 56 -104 291 0 0 1 36 0 1 0 1
0 56 -98 291 0 0 1 36 0 1 0 1
phys
0 50 -104 291 0 0 1 36 0 1 0 1
0 56 -98 291 0 0 1 36 0 1 0 1
0 50 -98 291 0 0 1 36 0 1 0 1
phys
0 50 -98 248 0 0 1 36 0 1 0 1
0 50 -98 291 0 0 1 36 0 1 0 1
0 56 -98 291 0 0 1 36 0 1 0 1
phys
0 50 -98 248 0 0 1 36 0 1 0 1
0 56 -98 291 0 0 1 36 0 1 0 1
0 56 -98 248 0 0 1 36 0 1 0 1
phys
0 56 -104 248 0 0 1 36 0 1 0 1
0 56 -104 291 0 0 1 36 0 1 0 1
0 50 -104 291 0 0 1 36 0 1 0 1
phys
0 56 -104 248 0 0 1 36 0 1 0 1
0 50 -104 291 0 0 1 36 0 1 0 1
0 50 -104 248 0 0 1 36 0 1 0 1
phys
0 50 -104 248 0 0 1 36 0 1 0 1
0 50 -104 291 0 0 1 36 0 1 0 1
0 50 -98 291 0 0 1 36 0 1 0 1
phys
0 50 -104 248 0 0 1 36 0 1 0 1
0 50 -98 291 0 0 1 36 0 1 0 1
0 50 -98 248 0 0 1 36 0 1 0 1
phys
0 56 -98 248 0 0 1 36 0 1 0 1
0 56 -98 291 0 0 1 36 0 1 0 1
0 56 -104 291 0 0 1 36 0 1 0 1
phys
0 56 -98 248 0 0 1 36 0 1 0 1
0 56 -104 291 0 0 1 36 0 1 0 1
0 56 -104 248 0 0 1 36 0 1 0 1
phys
0 56 -104 248 0 0 1 36 0 1 0 1
0 50 -104 248 0 0 1 36 0 1 0 1
0 50 -98 248 0 0 1 36 0 1 0 1
phys
0 56 -104 248 0 0 1 36 0 1 0 1
0 50 -98 248 0 0 1 36 0 1 0 1
0 56 -98 248 0 0 1 36 0 1 0 1
phys
0 -109 -96 250 0 0 1 37 0 1 0 1
0 -109 -96 248 0 0 1 37 0 1 0 1
0 -288 -96 248 0 0 1 37 0 1 0 1
phys
0 -109 -96 250 0 0 1 37 0 1 0 1
0 -288 -96 248 0 0 1 37 0 1 0 1
0 -288 -96 250 0 0 1 37 0 1 0 1
phys
0 -109 -104 248 0 0 1 37 0 1 0 1
0 -109 -104 250 0 0 1 37 0 1 0 1
0 -288 -104 250 0 0 1 37 0 1 0 1
phys
0 -109 -104 248 0 0 1 37 0 1 0 1
0 -288 -104 250 0 0 1 37 0 1 0 1
0 -288 -104 248 0 0 1 37 0 1 0 1
phys
0 -288 -104 248 0 0 1 37 0 1 0 1
0 -288 -104 250 0 0 1 37 0 1 0 1
0 -288 -96 250 0 0 1 37 0 1 0 1
phys
0 -288 -104 248 0 0 1 37 0 1 0 1
0 -288 -96 250 0 0 1 37 0 1 0 1
0 -288 -96 248 0 0 1 37 0 1 0 1
phys
0 -109 -104 250 0 0 1 37 0 1 0 1
0 -109 -104 248 0 0 1 37 0 1 0 1
0 -109 -96 248 0 0 1 37 0 1 0 1
phys
0 -109 -104 250 0 0 1 37 0 1 0 1
0 -109 -96 248 0 0 1 37 0 1 0 1
0 -109 -96 250 0 0 1 37 0 1 0 1
phys
0 -109 -104 248 0 0 1 37 0 1 0 1
0 -288 -104 248 0 0 1 37 0 1 0 1
0 -288 -96 248 0 0 1 37 0 1 0 1
phys
0 -109 -104 248 0 0 1 37 0 1 0 1
0 -288 -96 248 0 0 1 37 0 1 0 1
0 -109 -96 248 0 0 1 37 0 1 0 1
phys
0 -288 -104 250 0 0 1 37 0 1 0 1
0 -109 -104 250 0 0 1 37 0 1 0 1
0 -109 -96 250 0 0 1 37 0 1 0 1
phys
0 -288 -104 250 0 0 1 37 0 1 0 1
0 -109 -96 250 0 0 1 37 0 1 0 1
0 -288 -96 250 0 0 1 37 0 1 0 1
phys
0 -145 -100 43 0 0 1 38 0 1 0 1
0 -145 -100 11 0 0 1 38 0 1 0 1
0 -252 -100 11 0 0 1 38 0 1 0 1
phys
0 -145 -100 43 0 0 1 38 0 1 0 1
0 -252 -100 11 0 0 1 38 0 1 0 1
0 -252 -100 43 0 0 1 38 0 1 0 1
phys
0 -145 -102 11 0 0 1 38 0 1 0 1
0 -145 -102 43 0 0 1 38 0 1 0 1
0 -252 -102 43 0 0 1 38 0 1 0 1
phys
0 -145 -102 11 0 0 1 38 0 1 0 1
0 -252 -102 43 0 0 1 38 0 1 0 1
0 -252 -102 11 0 0 1 38 0 1 0 1
phys
0 -252 -102 11 0 0 1 38 0 1 0 1
0 -252 -102 43 0 0 1 38 0 1 0 1
0 -252 -100 43 0 0 1 38 0 1 0 1
phys
0 -252 -102 11 0 0 1 38 0 1 0 1
0 -252 -100 43 0 0 1 38 0 1 0 1
0 -252 -100 11 0 0 1 38 0 1 0 1
phys
0 -145 -102 43 0 0 1 38 0 1 0 1
0 -145 -102 11 0 0 1 38 0 1 0 1
0 -145 -100 11 0 0 1 38 0 1 0 1
phys
0 -145 -102 43 0 0 1 38 0 1 0 1
0 -145 -100 11 0 0 1 38 0 1 0 1
0 -145 -100 43 0 0 1 38 0 1 0 1
phys
0 -145 -102 11 0 0 1 38 0 1 0 1
0 -252 -102 11 0 0 1 38 0 1 0 1
0 -252 -100 11 0 0 1 38 0 1 0 1
phys
0 -145 -102 11 0 0 1 38 0 1 0 1
0 -252 -100 11 0 0 1 38 0 1 0 1
0 -145 -100 11 0 0 1 38 0 1 0 1
phys
0 -252 -102 43 0 0 1 38 0 1 0 1
0 -145 -102 43 0 0 1 38 0 1 0 1
0 -145 -100 43 0 0 1 38 0 1 0 1
phys
0 -252 -102 43 0 0 1 38 0 1 0 1
0 -145 -100 43 0 0 1 38 0 1 0 1
0 -252 -100 43 0 0 1 38 0 1 0 1
phys
0 34 -98 259 0 0 1 39 0 1 0 1
0 34 -98 248 0 0 1 39 0 1 0 1
0 -93 -98 248 0 0 1 39 0 1 0 1
phys
0 34 -98 259 0 0 1 39 0 1 0 1
0 -93 -98 248 0 0 1 39 0 1 0 1
0 -93 -98 259 0 0 1 39 0 1 0 1
phys
0 34 -104 248 0 0 1 39 0 1 0 1
0 34 -104 259 0 0 1 39 0 1 0 1
0 -93 -104 259 0 0 1 39 0 1 0 1
phys
0 34 -104 248 0 0 1 39 0 1 0 1
0 -93 -104 259 0 0 1 39 0 1 0 1
0 -93 -104 248 0 0 1 39 0 1 0 1
phys
0 -93 -104 248 0 0 1 39 0 1 0 1
0 -93 -104 259 0 0 1 39 0 1 0 1
0 -93 -98 259 0 0 1 39 0 1 0 1
phys
0 -93 -104 248 0 0 1 39 0 1 0 1
0 -93 -98 259 0 0 1 39 0 1 0 1
0 -93 -98 248 0 0 1 39 0 1 0 1
phys
0 34 -104 259 0 0 1 39 0 1 0 1
0 34 -104 248 0 0 1 39 0 1 0 1
0 34 -98 248 0 0 1 39 0 1 0 1
phys
0 34 -104 259 0 0 1 39 0 1 0 1
0 34 -98 248 0 0 1 39 0 1 0 1
0 34 -98 259 0 0 1 39 0 1 0 1
phys
0 34 -104 248 0 0 1 39 0 1 0 1
0 -93 -104 248 0 0 1 39 0 1 0 1
0 -93 -98 248 0 0 1 39 0 1 0 1
phys
0 34 -104 248 0 0 1 39 0 1 0 1
0 -93 -98 248 0 0 1 39 0 1 0 1
0 34 -98 248 0 0 1 39 0 1 0 1
phys
0 -93 -104 259 0 0 1 39 0 1 0 1
0 34 -104 259 0 0 1 39 0 1 0 1
0 34 -98 259 0 0 1 39 0 1 0 1
phys
0 -93 -104 259 0 0 1 39 0 1 0 1
0 34 -98 259 0 0 1 39 0 1 0 1
0 -93 -98 259 0 0 1 39 0 1 0 1
phys
0 183 -100 291 0 0 1 40 0 1 0 1
0 183 -100 259 0 0 1 40 0 1 0 1
0 56 -100 259 0 0 1 40 0 1 0 1
phys
0 183 -100 291 0 0 1 40 0 1 0 1
0 56 -100 259 0 0 1 40 0 1 0 1
0 56 -100 291 0 0 1 40 0 1 0 1
phys
0 183 -102 259 0 0 1 40 0 1 0 1
0 183 -102 291 0 0 1 40 0 1 0 1
0 56 -102 291 0 0 1 40 0 1 0 1
phys
0 183 -102 259 0 0 1 40 0 1 0 1
0 56 -102 291 0 0 1 40 0 1 0 1
0 56 -102 259 0 0 1 40 0 1 0 1
phys
0 56 -102 259 0 0 1 40 0 1 0 1
0 56 -102 291 0 0 1 40 0 1 0 1
0 56 -100 291 0 0 1 40 0 1 0 1
phys
0 56 -102 259 0 0 1 40 0 1 0 1
0 56 -100 291 0 0 1 40 0 1 0 1
0 56 -100 259 0 0 1 40 0 1 0 1
phys
0 183 -102 291 0 0 1 40 0 1 0 1
0 183 -102 259 0 0 1 40 0 1 0 1
0 183 -100 259 0 0 1 40 0 1 0 1
phys
0 183 -102 291 0 0 1 40 0 1 0 1
0 183 -100 259 0 0 1 40 0 1 0 1
0 183 -100 291 0 0 1 40 0 1 0 1
phys
0 183 -102 259 0 0 1 40 0 1 0 1
0 56 -102 259 0 0 1 40 0 1 0 1
0 56 -100 259 0 0 1 40 0 1 0 1
phys
0 183 -102 259 0 0 1 40 0 1 0 1
0 56 -100 259 0 0 1 40 0 1 0 1
0 183 -100 259 0 0 1 40 0 1 0 1
phys
0 56 -102 291 0 0 1 40 0 1 0 1
0 183 -102 291 0 0 1 40 0 1 0 1
0 183 -100 291 0 0 1 40 0 1 0 1
phys
0 56 -102 291 0 0 1 40 0 1 0 1
0 183 -100 291 0 0 1 40 0 1 0 1
0 56 -100 291 0 0 1 40 0 1 0 1
phys
0 199 -40 356.0002 0 0 1 41 0 1 0 1
0 199 -40 248 0 0 1 41 0 1 0 1
0 189 -40 248 0 0 1 41 0 1 0 1
phys
0 199 -40 356.0002 0 0 1 41 0 1 0 1
0 189 -40 248 0 0 1 41 0 1 0 1
0 189 -40 356.0002 0 0 1 41 0 1 0 1
phys
0 199 -44 248 0 0 1 41 0 1 0 1
0 199 -44 360.0002 0 0 1 41 0 1 0 1
0 189 -44 360.0002 0 0 1 41 0 1 0 1
phys
0 199 -44 248 0 0 1 41 0 1 0 1
0 189 -44 360.0002 0 0 1 41 0 1 0 1
0 189 -44 248 0 0 1 41 0 1 0 1
phys
0 189 -44 248 0 0 1 41 0 1 0 1
0 189 -44 360.0002 0 0 1 41 0 1 0 1
0 189 -40 356.0002 0 0 1 41 0 1 0 1
phys
0 189 -44 248 0 0 1 41 0 1 0 1
0 189 -40 356.0002 0 0 1 41 0 1 0 1
0 189 -40 248 0 0 1 41 0 1 0 1
phys
0 199 -44 360.0002 0 0 1 41 0 1 0 1
0 199 -44 248 0 0 1 41 0 1 0 1
0 199 -40 248 0 0 1 41 0 1 0 1
phys
0 199 -44 360.0002 0 0 1 41 0 1 0 1
0 199 -40 248 0 0 1 41 0 1 0 1
0 199 -40 356.0002 0 0 1 41 0 1 0 1
phys
0 199 -44 248 0 0 1 41 0 1 0 1
0 189 -44 248 0 0 1 41 0 1 0 1
0 189 -40 248 0 0 1 41 0 1 0 1
phys
0 199 -44 248 0 0 1 41 0 1 0 1
0 189 -40 248 0 0 1 41 0 1 0 1
0 199 -40 248 0 0 1 41 0 1 0 1
phys
0 189 -44 360.0002 0 0 1 41 0 1 0 1
0 199 -44 360.0002 0 0 1 41 0 1 0 1
0 199 -40 356.0002 0 0 1 41 0 1 0 1
phys
0 189 -44 360.0002 0 0 1 41 0 1 0 1
0 199 -40 356.0002 0 0 1 41 0 1 0 1
0 189 -40 356.0002 0 0 1 41 0 1 0 1
phys
0 199 12 360.001 0 0 1 42 0 1 0 1
0 199 12 248 0 0 1 42 0 1 0 1
0 189 12 248 0 0 1 42 0 1 0 1
phys
0 199 12 360.001 0 0 1 42 0 1 0 1
0 189 12 248 0 0 1 42 0 1 0 1
0 189 12 360.001 0 0 1 42 0 1 0 1
phys
0 199 8 248 0 0 1 42 0 1 0 1
0 199 8 356.001 0 0 1 42 0 1 0 1
0 189 8 356.001 0 0 1 42 0 1 0 1
phys
0 199 8 248 0 0 1 42 0 1 0 1
0 189 8 356.001 0 0 1 42 0 1 0 1
0 189 8 248 0 0 1 42 0 1 0 1
phys
0 189 8 248 0 0 1 42 0 1 0 1
0 189 8 356.001 0 0 1 42 0 1 0 1
0 189 12 360.001 0 0 1 42 0 1 0 1
phys
0 189 8 248 0 0 1 42 0 1 0 1
0 189 12 360.001 0 0 1 42 0 1 0 1
0 189 12 248 0 0 1 42 0 1 0 1
phys
0 199 8 356.001 0 0 1 42 0 1 0 1
0 199 8 248 0 0 1 42 0 1 0 1
0 199 12 248 0 0 1 42 0 1 0 1
phys
0 199 8 356.001 0 0 1 42 0 1 0 1
0 199 12 248 0 0 1 42 0 1 0 1
0 199 12 360.001 0 0 1 42 0 1 0 1
phys
0 199 8 248 0 0 1 42 0 1 0 1
0 189 8 248 0 0 1 42 0 1 0 1
0 189 12 248 0 0 1 42 0 1 0 1
phys
0 199 8 248 0 0 1 42 0 1 0 1
0 189 12 248 0 0 1 42 0 1 0 1
0 199 12 248 0 0 1 42 0 1 0 1
phys
0 189 8 356.001 0 0 1 42 0 1 0 1
0 199 8 356.001 0 0 1 42 0 1 0 1
0 199 12 360.001 0 0 1 42 0 1 0 1
phys
0 189 8 356.001 0 0 1 42 0 1 0 1
0 199 12 360.001 0 0 1 42 0 1 0 1
0 189 12 360.001 0 0 1 42 0 1 0 1
phys
0 -252 -98 43 0 0 1 43 0 1 0 1
0 -252 -98 0 0 0 1 43 0 1 0 1
0 -258 -98 0 0 0 1 43 0 1 0 1
phys
0 -252 -98 43 0 0 1 43 0 1 0 1
0 -258 -98 0 0 0 1 43 0 1 0 1
0 -258 -98 43 0 0 1 43 0 1 0 1
phys
0 -252 -104 0 0 0 1 43 0 1 0 1
0 -252 -104 43 0 0 1 43 0 1 0 1
0 -258 -104 43 0 0 1 43 0 1 0 1
phys
0 -252 -104 0 0 0 1 43 0 1 0 1
0 -258 -104 43 0 0 1 43 0 1 0 1
0 -258 -104 0 0 0 1 43 0 1 0 1
phys
0 -258 -104 0 0 0 1 43 0 1 0 1
0 -258 -104 43 0 0 1 43 0 1 0 1
0 -258 -98 43 0 0 1 43 0 1 0 1
phys
0 -258 -104 0 0 0 1 43 0 1 0 1
0 -258 -98 43 0 0 1 43 0 1 0 1
0 -258 -98 0 0 0 1 43 0 1 0 1
phys
0 -252 -104 43 0 0 1 43 0 1 0 1
0 -252 -104 0 0 0 1 43 0 1 0 1
0 -252 -98 0 0 0 1 43 0 1 0 1
phys
0 -252 -104 43 0 0 1 43 0 1 0 1
0 -252 -98 0 0 0 1 43 0 1 0 1
0 -252 -98 43 0 0 1 43 0 1 0 1
phys
0 -252 -104 0 0 0 1 43 0 1 0 1
0 -258 -104 0 0 0 1 43 0 1 0 1
0 -258 -98 0 0 0 1 43 0 1 0 1
phys
0 -252 -104 0 0 0 1 43 0 1 0 1
0 -258 -98 0 0 0 1 43 0 1 0 1
0 -252 -98 0 0 0 1 43 0 1 0 1
phys
0 -258 -104 43 0 0 1 43 0 1 0 1
0 -252 -104 43 0 0 1 43 0 1 0 1
0 -252 -98 43 0 0 1 43 0 1 0 1
phys
0 -258 -104 43 0 0 1 43 0 1 0 1
0 -252 -98 43 0 0 1 43 0 1 0 1
0 -258 -98 43 0 0 1 43 0 1 0 1
phys
0 185 72 88 0 0 1 44 0 1 0 1
0 185 72 96 0 0 1 44 0 1 0 1
0 -90.1 72 96 0 0 1 44 0 1 0 1
phys
0 185 72 88 0 0 1 44 0 1 0 1
0 -90.1 72 96 0 0 1 44 0 1 0 1
0 -90.1 72 88 0 0 1 44 0 1 0 1
phys
0 -90.1 72 88 0 0 1 44 0 1 0 1
0 -90.1 72 96 0 0 1 44 0 1 0 1
0 -90.1 88 96 0 0 1 44 0 1 0 1
phys
0 185 72 96 0 0 1 44 0 1 0 1
0 185 72 88 0 0 1 44 0 1 0 1
0 185 88 96 0 0 1 44 0 1 0 1
phys
0 -90.1 72 96 0 0 1 44 0 1 0 1
0 185 72 96 0 0 1 44 0 1 0 1
0 185 88 96 0 0 1 44 0 1 0 1
phys
0 -90.1 72 96 0 0 1 44 0 1 0 1
0 185 88 96 0 0 1 44 0 1 0 1
0 -90.1 88 96 0 0 1 44 0 1 0 1
phys
0 185 72 88 0 0 1 44 0 1 0 1
0 -90.1 72 88 0 0 1 44 0 1 0 1
0 -90.1 88 96 0 0 1 44 0 1 0 1
phys
0 185 72 88 0 0 1 44 0 1 0 1
0 -90.1 88 96 0 0 1 44 0 1 0 1
0 185 88 96 0 0 1 44 0 1 0 1
end
