version 1
nodes
0 "root" -1
end
skeleton
time 0
0 0 0 0 0 0 0
end
triangles
phys
0 5 -5 -159.001 0 0 1 1 0 1 0 1
0 5 -5 -152 0 0 1 1 0 1 0 1
0 5.7 -5 -151 0 0 1 1 0 1 0 1
phys
0 5 -5 -159.001 0 0 1 1 0 1 0 1
0 5.7 -5 -151 0 0 1 1 0 1 0 1
0 17 -5 -151 0 0 1 1 0 1 0 1
phys
0 17 -105 -151 0 0 1 1 0 1 0 1
0 5.7 -105 -151 0 0 1 1 0 1 0 1
0 5 -105 -152 0 0 1 1 0 1 0 1
phys
0 17 -105 -151 0 0 1 1 0 1 0 1
0 5 -105 -152 0 0 1 1 0 1 0 1
0 5 -105 -159.001 0 0 1 1 0 1 0 1
phys
0 5 -105 -159.001 0 0 1 1 0 1 0 1
0 5 -105 -152 0 0 1 1 0 1 0 1
0 5 -5 -152 0 0 1 1 0 1 0 1
phys
0 5 -105 -159.001 0 0 1 1 0 1 0 1
0 5 -5 -152 0 0 1 1 0 1 0 1
0 5 -5 -159.001 0 0 1 1 0 1 0 1
phys
0 5.7 -105 -151 0 0 1 1 0 1 0 1
0 17 -105 -151 0 0 1 1 0 1 0 1
0 17 -5 -151 0 0 1 1 0 1 0 1
phys
0 5.7 -105 -151 0 0 1 1 0 1 0 1
0 17 -5 -151 0 0 1 1 0 1 0 1
0 5.7 -5 -151 0 0 1 1 0 1 0 1
phys
0 17 -105 -151 0 0 1 1 0 1 0 1
0 5 -105 -159.001 0 0 1 1 0 1 0 1
0 5 -5 -159.001 0 0 1 1 0 1 0 1
phys
0 17 -105 -151 0 0 1 1 0 1 0 1
0 5 -5 -159.001 0 0 1 1 0 1 0 1
0 17 -5 -151 0 0 1 1 0 1 0 1
phys
0 5 -105 -152 0 0 1 1 0 1 0 1
0 5.7 -105 -151 0 0 1 1 0 1 0 1
0 5.7 -5 -151 0 0 1 1 0 1 0 1
phys
0 5 -105 -152 0 0 1 1 0 1 0 1
0 5.7 -5 -151 0 0 1 1 0 1 0 1
0 5 -5 -152 0 0 1 1 0 1 0 1
phys
0 245 -5 0.999 0 0 1 2 0 1 0 1
0 245 -5 8 0 0 1 2 0 1 0 1
0 245.7 -5 9 0 0 1 2 0 1 0 1
phys
0 245 -5 0.999 0 0 1 2 0 1 0 1
0 245.7 -5 9 0 0 1 2 0 1 0 1
0 257 -5 9 0 0 1 2 0 1 0 1
phys
0 257 -105 9 0 0 1 2 0 1 0 1
0 245.7 -105 9 0 0 1 2 0 1 0 1
0 245 -105 8 0 0 1 2 0 1 0 1
phys
0 257 -105 9 0 0 1 2 0 1 0 1
0 245 -105 8 0 0 1 2 0 1 0 1
0 245 -105 0.999 0 0 1 2 0 1 0 1
phys
0 245 -105 0.999 0 0 1 2 0 1 0 1
0 245 -105 8 0 0 1 2 0 1 0 1
0 245 -5 8 0 0 1 2 0 1 0 1
phys
0 245 -105 0.999 0 0 1 2 0 1 0 1
0 245 -5 8 0 0 1 2 0 1 0 1
0 245 -5 0.999 0 0 1 2 0 1 0 1
phys
0 245.7 -105 9 0 0 1 2 0 1 0 1
0 257 -105 9 0 0 1 2 0 1 0 1
0 257 -5 9 0 0 1 2 0 1 0 1
phys
0 245.7 -105 9 0 0 1 2 0 1 0 1
0 257 -5 9 0 0 1 2 0 1 0 1
0 245.7 -5 9 0 0 1 2 0 1 0 1
phys
0 257 -105 9 0 0 1 2 0 1 0 1
0 245 -105 0.999 0 0 1 2 0 1 0 1
0 245 -5 0.999 0 0 1 2 0 1 0 1
phys
0 257 -105 9 0 0 1 2 0 1 0 1
0 245 -5 0.999 0 0 1 2 0 1 0 1
0 257 -5 9 0 0 1 2 0 1 0 1
phys
0 245 -105 8 0 0 1 2 0 1 0 1
0 245.7 -105 9 0 0 1 2 0 1 0 1
0 245.7 -5 9 0 0 1 2 0 1 0 1
phys
0 245 -105 8 0 0 1 2 0 1 0 1
0 245.7 -5 9 0 0 1 2 0 1 0 1
0 245 -5 8 0 0 1 2 0 1 0 1
phys
0 173 -5 -47.001 0 0 1 3 0 1 0 1
0 173 -5 -39.999 0 0 1 3 0 1 0 1
0 173.7 -5 -39 0 0 1 3 0 1 0 1
phys
0 173 -5 -47.001 0 0 1 3 0 1 0 1
0 173.7 -5 -39 0 0 1 3 0 1 0 1
0 185 -5 -39 0 0 1 3 0 1 0 1
phys
0 185 -105 -39 0 0 1 3 0 1 0 1
0 173.7 -105 -39 0 0 1 3 0 1 0 1
0 173 -105 -39.999 0 0 1 3 0 1 0 1
phys
0 185 -105 -39 0 0 1 3 0 1 0 1
0 173 -105 -39.999 0 0 1 3 0 1 0 1
0 173 -105 -47.001 0 0 1 3 0 1 0 1
phys
0 173 -105 -47.001 0 0 1 3 0 1 0 1
0 173 -105 -39.999 0 0 1 3 0 1 0 1
0 173 -5 -39.999 0 0 1 3 0 1 0 1
phys
0 173 -105 -47.001 0 0 1 3 0 1 0 1
0 173 -5 -39.999 0 0 1 3 0 1 0 1
0 173 -5 -47.001 0 0 1 3 0 1 0 1
phys
0 173.7 -105 -39 0 0 1 3 0 1 0 1
0 185 -105 -39 0 0 1 3 0 1 0 1
0 185 -5 -39 0 0 1 3 0 1 0 1
phys
0 173.7 -105 -39 0 0 1 3 0 1 0 1
0 185 -5 -39 0 0 1 3 0 1 0 1
0 173.7 -5 -39 0 0 1 3 0 1 0 1
phys
0 185 -105 -39 0 0 1 3 0 1 0 1
0 173 -105 -47.001 0 0 1 3 0 1 0 1
0 173 -5 -47.001 0 0 1 3 0 1 0 1
phys
0 185 -105 -39 0 0 1 3 0 1 0 1
0 173 -5 -47.001 0 0 1 3 0 1 0 1
0 185 -5 -39 0 0 1 3 0 1 0 1
phys
0 173 -105 -39.999 0 0 1 3 0 1 0 1
0 173.7 -105 -39 0 0 1 3 0 1 0 1
0 173.7 -5 -39 0 0 1 3 0 1 0 1
phys
0 173 -105 -39.999 0 0 1 3 0 1 0 1
0 173.7 -5 -39 0 0 1 3 0 1 0 1
0 173 -5 -39.999 0 0 1 3 0 1 0 1
phys
0 269 -105 17 0 0 1 4 0 1 0 1
0 257 -105 8.999 0 0 1 4 0 1 0 1
0 257 -5 8.999 0 0 1 4 0 1 0 1
phys
0 269 -105 17 0 0 1 4 0 1 0 1
0 257 -5 8.999 0 0 1 4 0 1 0 1
0 269 -5 17 0 0 1 4 0 1 0 1
phys
0 257.7 -5 17 0 0 1 4 0 1 0 1
0 257 -5 16.002 0 0 1 4 0 1 0 1
0 257 -105 16.002 0 0 1 4 0 1 0 1
phys
0 257.7 -5 17 0 0 1 4 0 1 0 1
0 257 -105 16.002 0 0 1 4 0 1 0 1
0 257.7 -105 17 0 0 1 4 0 1 0 1
phys
0 269 -5 17 0 0 1 4 0 1 0 1
0 257 -5 8.999 0 0 1 4 0 1 0 1
0 257 -5 16.002 0 0 1 4 0 1 0 1
phys
0 269 -5 17 0 0 1 4 0 1 0 1
0 257 -5 16.002 0 0 1 4 0 1 0 1
0 257.7 -5 17 0 0 1 4 0 1 0 1
phys
0 257.7 -105 17 0 0 1 4 0 1 0 1
0 257 -105 16.002 0 0 1 4 0 1 0 1
0 257 -105 8.999 0 0 1 4 0 1 0 1
phys
0 257.7 -105 17 0 0 1 4 0 1 0 1
0 257 -105 8.999 0 0 1 4 0 1 0 1
0 269 -105 17 0 0 1 4 0 1 0 1
phys
0 257 -105 16.002 0 0 1 4 0 1 0 1
0 257 -5 16.002 0 0 1 4 0 1 0 1
0 257 -5 8.999 0 0 1 4 0 1 0 1
phys
0 257 -105 16.002 0 0 1 4 0 1 0 1
0 257 -5 8.999 0 0 1 4 0 1 0 1
0 257 -105 8.999 0 0 1 4 0 1 0 1
phys
0 269 -105 17 0 0 1 4 0 1 0 1
0 269 -5 17 0 0 1 4 0 1 0 1
0 257.7 -5 17 0 0 1 4 0 1 0 1
phys
0 269 -105 17 0 0 1 4 0 1 0 1
0 257.7 -5 17 0 0 1 4 0 1 0 1
0 257.7 -105 17 0 0 1 4 0 1 0 1
phys
0 17 -105 -143.998 0 0 1 5 0 1 0 1
0 17.7 -105 -143 0 0 1 5 0 1 0 1
0 17.7 -5 -143 0 0 1 5 0 1 0 1
phys
0 17 -105 -143.998 0 0 1 5 0 1 0 1
0 17.7 -5 -143 0 0 1 5 0 1 0 1
0 17 -5 -143.998 0 0 1 5 0 1 0 1
phys
0 17 -5 -151.001 0 0 1 5 0 1 0 1
0 17 -5 -143.998 0 0 1 5 0 1 0 1
0 17.7 -5 -143 0 0 1 5 0 1 0 1
phys
0 17 -5 -151.001 0 0 1 5 0 1 0 1
0 17.7 -5 -143 0 0 1 5 0 1 0 1
0 29 -5 -143 0 0 1 5 0 1 0 1
phys
0 29 -105 -143 0 0 1 5 0 1 0 1
0 17.7 -105 -143 0 0 1 5 0 1 0 1
0 17 -105 -143.998 0 0 1 5 0 1 0 1
phys
0 29 -105 -143 0 0 1 5 0 1 0 1
0 17 -105 -143.998 0 0 1 5 0 1 0 1
0 17 -105 -151.001 0 0 1 5 0 1 0 1
phys
0 17 -105 -151.001 0 0 1 5 0 1 0 1
0 17 -105 -143.998 0 0 1 5 0 1 0 1
0 17 -5 -143.998 0 0 1 5 0 1 0 1
phys
0 17 -105 -151.001 0 0 1 5 0 1 0 1
0 17 -5 -143.998 0 0 1 5 0 1 0 1
0 17 -5 -151.001 0 0 1 5 0 1 0 1
phys
0 29 -5 -143 0 0 1 5 0 1 0 1
0 17.7 -5 -143 0 0 1 5 0 1 0 1
0 17.7 -105 -143 0 0 1 5 0 1 0 1
phys
0 29 -5 -143 0 0 1 5 0 1 0 1
0 17.7 -105 -143 0 0 1 5 0 1 0 1
0 29 -105 -143 0 0 1 5 0 1 0 1
phys
0 29 -105 -143 0 0 1 5 0 1 0 1
0 17 -105 -151.001 0 0 1 5 0 1 0 1
0 17 -5 -151.001 0 0 1 5 0 1 0 1
phys
0 29 -105 -143 0 0 1 5 0 1 0 1
0 17 -5 -151.001 0 0 1 5 0 1 0 1
0 29 -5 -143 0 0 1 5 0 1 0 1
phys
0 -9 -430 128.9948 0 0 1 6 0 1 0 1
0 -9 -430 17 0 0 1 6 0 1 0 1
0 -13 -430 17 0 0 1 6 0 1 0 1
phys
0 -9 -430 128.9948 0 0 1 6 0 1 0 1
0 -13 -430 17 0 0 1 6 0 1 0 1
0 -13 -430 124.9948 0 0 1 6 0 1 0 1
phys
0 -9 -439 17 0 0 1 6 0 1 0 1
0 -9 -439 128.9948 0 0 1 6 0 1 0 1
0 -13 -439 124.9948 0 0 1 6 0 1 0 1
phys
0 -9 -439 17 0 0 1 6 0 1 0 1
0 -13 -439 124.9948 0 0 1 6 0 1 0 1
0 -13 -439 17 0 0 1 6 0 1 0 1
phys
0 -13 -439 17 0 0 1 6 0 1 0 1
0 -13 -439 124.9948 0 0 1 6 0 1 0 1
0 -13 -430 124.9948 0 0 1 6 0 1 0 1
phys
0 -13 -439 17 0 0 1 6 0 1 0 1
0 -13 -430 124.9948 0 0 1 6 0 1 0 1
0 -13 -430 17 0 0 1 6 0 1 0 1
phys
0 -9 -439 128.9948 0 0 1 6 0 1 0 1
0 -9 -439 17 0 0 1 6 0 1 0 1
0 -9 -430 17 0 0 1 6 0 1 0 1
phys
0 -9 -439 128.9948 0 0 1 6 0 1 0 1
0 -9 -430 17 0 0 1 6 0 1 0 1
0 -9 -430 128.9948 0 0 1 6 0 1 0 1
phys
0 -9 -439 17 0 0 1 6 0 1 0 1
0 -13 -439 17 0 0 1 6 0 1 0 1
0 -13 -430 17 0 0 1 6 0 1 0 1
phys
0 -9 -439 17 0 0 1 6 0 1 0 1
0 -13 -430 17 0 0 1 6 0 1 0 1
0 -9 -430 17 0 0 1 6 0 1 0 1
phys
0 -13 -439 124.9948 0 0 1 6 0 1 0 1
0 -9 -439 128.9948 0 0 1 6 0 1 0 1
0 -9 -430 128.9948 0 0 1 6 0 1 0 1
phys
0 -13 -439 124.9948 0 0 1 6 0 1 0 1
0 -9 -430 128.9948 0 0 1 6 0 1 0 1
0 -13 -430 124.9948 0 0 1 6 0 1 0 1
phys
0 149 -5 -63.001 0 0 1 7 0 1 0 1
0 149 -5 -56 0 0 1 7 0 1 0 1
0 149.7 -5 -55 0 0 1 7 0 1 0 1
phys
0 149 -5 -63.001 0 0 1 7 0 1 0 1
0 149.7 -5 -55 0 0 1 7 0 1 0 1
0 161 -5 -55 0 0 1 7 0 1 0 1
phys
0 161 -105 -55 0 0 1 7 0 1 0 1
0 149.7 -105 -55 0 0 1 7 0 1 0 1
0 149 -105 -56 0 0 1 7 0 1 0 1
phys
0 161 -105 -55 0 0 1 7 0 1 0 1
0 149 -105 -56 0 0 1 7 0 1 0 1
0 149 -105 -63.001 0 0 1 7 0 1 0 1
phys
0 149 -105 -63.001 0 0 1 7 0 1 0 1
0 149 -105 -56 0 0 1 7 0 1 0 1
0 149 -5 -56 0 0 1 7 0 1 0 1
phys
0 149 -105 -63.001 0 0 1 7 0 1 0 1
0 149 -5 -56 0 0 1 7 0 1 0 1
0 149 -5 -63.001 0 0 1 7 0 1 0 1
phys
0 149.7 -105 -55 0 0 1 7 0 1 0 1
0 161 -105 -55 0 0 1 7 0 1 0 1
0 161 -5 -55 0 0 1 7 0 1 0 1
phys
0 149.7 -105 -55 0 0 1 7 0 1 0 1
0 161 -5 -55 0 0 1 7 0 1 0 1
0 149.7 -5 -55 0 0 1 7 0 1 0 1
phys
0 161 -105 -55 0 0 1 7 0 1 0 1
0 149 -105 -63.001 0 0 1 7 0 1 0 1
0 149 -5 -63.001 0 0 1 7 0 1 0 1
phys
0 161 -105 -55 0 0 1 7 0 1 0 1
0 149 -5 -63.001 0 0 1 7 0 1 0 1
0 161 -5 -55 0 0 1 7 0 1 0 1
phys
0 149 -105 -56 0 0 1 7 0 1 0 1
0 149.7 -105 -55 0 0 1 7 0 1 0 1
0 149.7 -5 -55 0 0 1 7 0 1 0 1
phys
0 149 -105 -56 0 0 1 7 0 1 0 1
0 149.7 -5 -55 0 0 1 7 0 1 0 1
0 149 -5 -56 0 0 1 7 0 1 0 1
phys
0 221 -5 -15.001 0 0 1 8 0 1 0 1
0 221 -5 -7.998 0 0 1 8 0 1 0 1
0 221.7 -5 -7 0 0 1 8 0 1 0 1
phys
0 221 -5 -15.001 0 0 1 8 0 1 0 1
0 221.7 -5 -7 0 0 1 8 0 1 0 1
0 233 -5 -7 0 0 1 8 0 1 0 1
phys
0 233 -105 -7 0 0 1 8 0 1 0 1
0 221.7 -105 -7 0 0 1 8 0 1 0 1
0 221 -105 -7.998 0 0 1 8 0 1 0 1
phys
0 233 -105 -7 0 0 1 8 0 1 0 1
0 221 -105 -7.998 0 0 1 8 0 1 0 1
0 221 -105 -15.001 0 0 1 8 0 1 0 1
phys
0 221 -105 -15.001 0 0 1 8 0 1 0 1
0 221 -105 -7.998 0 0 1 8 0 1 0 1
0 221 -5 -7.998 0 0 1 8 0 1 0 1
phys
0 221 -105 -15.001 0 0 1 8 0 1 0 1
0 221 -5 -7.998 0 0 1 8 0 1 0 1
0 221 -5 -15.001 0 0 1 8 0 1 0 1
phys
0 221.7 -105 -7 0 0 1 8 0 1 0 1
0 233 -105 -7 0 0 1 8 0 1 0 1
0 233 -5 -7 0 0 1 8 0 1 0 1
phys
0 221.7 -105 -7 0 0 1 8 0 1 0 1
0 233 -5 -7 0 0 1 8 0 1 0 1
0 221.7 -5 -7 0 0 1 8 0 1 0 1
phys
0 233 -105 -7 0 0 1 8 0 1 0 1
0 221 -105 -15.001 0 0 1 8 0 1 0 1
0 221 -5 -15.001 0 0 1 8 0 1 0 1
phys
0 233 -105 -7 0 0 1 8 0 1 0 1
0 221 -5 -15.001 0 0 1 8 0 1 0 1
0 233 -5 -7 0 0 1 8 0 1 0 1
phys
0 221 -105 -7.998 0 0 1 8 0 1 0 1
0 221.7 -105 -7 0 0 1 8 0 1 0 1
0 221.7 -5 -7 0 0 1 8 0 1 0 1
phys
0 221 -105 -7.998 0 0 1 8 0 1 0 1
0 221.7 -5 -7 0 0 1 8 0 1 0 1
0 221 -5 -7.998 0 0 1 8 0 1 0 1
phys
0 -13 -430 125 0 0 1 9 0 1 0 1
0 -109 -430 125 0 0 1 9 0 1 0 1
0 -113 -430 129 0 0 1 9 0 1 0 1
phys
0 -13 -430 125 0 0 1 9 0 1 0 1
0 -113 -430 129 0 0 1 9 0 1 0 1
0 -9 -430 129 0 0 1 9 0 1 0 1
phys
0 -9 -439 129 0 0 1 9 0 1 0 1
0 -113 -439 129 0 0 1 9 0 1 0 1
0 -109 -439 125 0 0 1 9 0 1 0 1
phys
0 -9 -439 129 0 0 1 9 0 1 0 1
0 -109 -439 125 0 0 1 9 0 1 0 1
0 -13 -439 125 0 0 1 9 0 1 0 1
phys
0 -13 -439 125 0 0 1 9 0 1 0 1
0 -109 -439 125 0 0 1 9 0 1 0 1
0 -109 -430 125 0 0 1 9 0 1 0 1
phys
0 -13 -439 125 0 0 1 9 0 1 0 1
0 -109 -430 125 0 0 1 9 0 1 0 1
0 -13 -430 125 0 0 1 9 0 1 0 1
phys
0 -113 -439 129 0 0 1 9 0 1 0 1
0 -9 -439 129 0 0 1 9 0 1 0 1
0 -9 -430 129 0 0 1 9 0 1 0 1
phys
0 -113 -439 129 0 0 1 9 0 1 0 1
0 -9 -430 129 0 0 1 9 0 1 0 1
0 -113 -430 129 0 0 1 9 0 1 0 1
phys
0 -9 -439 129 0 0 1 9 0 1 0 1
0 -13 -439 125 0 0 1 9 0 1 0 1
0 -13 -430 125 0 0 1 9 0 1 0 1
phys
0 -9 -439 129 0 0 1 9 0 1 0 1
0 -13 -430 125 0 0 1 9 0 1 0 1
0 -9 -430 129 0 0 1 9 0 1 0 1
phys
0 -109 -439 125 0 0 1 9 0 1 0 1
0 -113 -439 129 0 0 1 9 0 1 0 1
0 -113 -430 129 0 0 1 9 0 1 0 1
phys
0 -109 -439 125 0 0 1 9 0 1 0 1
0 -113 -430 129 0 0 1 9 0 1 0 1
0 -109 -430 125 0 0 1 9 0 1 0 1
phys
0 53 -105 -127 0 0 1 10 0 1 0 1
0 53 -5 -127 0 0 1 10 0 1 0 1
0 41.7 -5 -127 0 0 1 10 0 1 0 1
phys
0 53 -105 -127 0 0 1 10 0 1 0 1
0 41.7 -5 -127 0 0 1 10 0 1 0 1
0 41.7 -105 -127 0 0 1 10 0 1 0 1
phys
0 41 -5 -135.001 0 0 1 10 0 1 0 1
0 53 -5 -127 0 0 1 10 0 1 0 1
0 53 -105 -127 0 0 1 10 0 1 0 1
phys
0 41 -5 -135.001 0 0 1 10 0 1 0 1
0 53 -105 -127 0 0 1 10 0 1 0 1
0 41 -105 -135.001 0 0 1 10 0 1 0 1
phys
0 41.7 -105 -127 0 0 1 10 0 1 0 1
0 41.7 -5 -127 0 0 1 10 0 1 0 1
0 41 -5 -128 0 0 1 10 0 1 0 1
phys
0 41.7 -105 -127 0 0 1 10 0 1 0 1
0 41 -5 -128 0 0 1 10 0 1 0 1
0 41 -105 -128 0 0 1 10 0 1 0 1
phys
0 41.7 -5 -127 0 0 1 10 0 1 0 1
0 53 -5 -127 0 0 1 10 0 1 0 1
0 41 -5 -135.001 0 0 1 10 0 1 0 1
phys
0 41.7 -5 -127 0 0 1 10 0 1 0 1
0 41 -5 -135.001 0 0 1 10 0 1 0 1
0 41 -5 -128 0 0 1 10 0 1 0 1
phys
0 53 -105 -127 0 0 1 10 0 1 0 1
0 41.7 -105 -127 0 0 1 10 0 1 0 1
0 41 -105 -128 0 0 1 10 0 1 0 1
phys
0 53 -105 -127 0 0 1 10 0 1 0 1
0 41 -105 -128 0 0 1 10 0 1 0 1
0 41 -105 -135.001 0 0 1 10 0 1 0 1
phys
0 41 -105 -128 0 0 1 10 0 1 0 1
0 41 -5 -128 0 0 1 10 0 1 0 1
0 41 -5 -135.001 0 0 1 10 0 1 0 1
phys
0 41 -105 -128 0 0 1 10 0 1 0 1
0 41 -5 -135.001 0 0 1 10 0 1 0 1
0 41 -105 -135.001 0 0 1 10 0 1 0 1
phys
0 113 -105 -80 0 0 1 11 0 1 0 1
0 113 -5 -80 0 0 1 11 0 1 0 1
0 113 -5 -87.001 0 0 1 11 0 1 0 1
phys
0 113 -105 -80 0 0 1 11 0 1 0 1
0 113 -5 -87.001 0 0 1 11 0 1 0 1
0 113 -105 -87.001 0 0 1 11 0 1 0 1
phys
0 125 -105 -79 0 0 1 11 0 1 0 1
0 125 -5 -79 0 0 1 11 0 1 0 1
0 113.7 -5 -79 0 0 1 11 0 1 0 1
phys
0 125 -105 -79 0 0 1 11 0 1 0 1
0 113.7 -5 -79 0 0 1 11 0 1 0 1
0 113.7 -105 -79 0 0 1 11 0 1 0 1
phys
0 113 -105 -87.001 0 0 1 11 0 1 0 1
0 113 -5 -87.001 0 0 1 11 0 1 0 1
0 125 -5 -79 0 0 1 11 0 1 0 1
phys
0 113 -105 -87.001 0 0 1 11 0 1 0 1
0 125 -5 -79 0 0 1 11 0 1 0 1
0 125 -105 -79 0 0 1 11 0 1 0 1
phys
0 113.7 -105 -79 0 0 1 11 0 1 0 1
0 113.7 -5 -79 0 0 1 11 0 1 0 1
0 113 -5 -80 0 0 1 11 0 1 0 1
phys
0 113.7 -105 -79 0 0 1 11 0 1 0 1
0 113 -5 -80 0 0 1 11 0 1 0 1
0 113 -105 -80 0 0 1 11 0 1 0 1
phys
0 113 -5 -87.001 0 0 1 11 0 1 0 1
0 113 -5 -80 0 0 1 11 0 1 0 1
0 113.7 -5 -79 0 0 1 11 0 1 0 1
phys
0 113 -5 -87.001 0 0 1 11 0 1 0 1
0 113.7 -5 -79 0 0 1 11 0 1 0 1
0 125 -5 -79 0 0 1 11 0 1 0 1
phys
0 125 -105 -79 0 0 1 11 0 1 0 1
0 113.7 -105 -79 0 0 1 11 0 1 0 1
0 113 -105 -80 0 0 1 11 0 1 0 1
phys
0 125 -105 -79 0 0 1 11 0 1 0 1
0 113 -105 -80 0 0 1 11 0 1 0 1
0 113 -105 -87.001 0 0 1 11 0 1 0 1
phys
0 125 -5 -79.001 0 0 1 12 0 1 0 1
0 125 -5 -72 0 0 1 12 0 1 0 1
0 125.7 -5 -71 0 0 1 12 0 1 0 1
phys
0 125 -5 -79.001 0 0 1 12 0 1 0 1
0 125.7 -5 -71 0 0 1 12 0 1 0 1
0 137 -5 -71 0 0 1 12 0 1 0 1
phys
0 137 -105 -71 0 0 1 12 0 1 0 1
0 125.7 -105 -71 0 0 1 12 0 1 0 1
0 125 -105 -72 0 0 1 12 0 1 0 1
phys
0 137 -105 -71 0 0 1 12 0 1 0 1
0 125 -105 -72 0 0 1 12 0 1 0 1
0 125 -105 -79.001 0 0 1 12 0 1 0 1
phys
0 125 -105 -79.001 0 0 1 12 0 1 0 1
0 125 -105 -72 0 0 1 12 0 1 0 1
0 125 -5 -72 0 0 1 12 0 1 0 1
phys
0 125 -105 -79.001 0 0 1 12 0 1 0 1
0 125 -5 -72 0 0 1 12 0 1 0 1
0 125 -5 -79.001 0 0 1 12 0 1 0 1
phys
0 125.7 -105 -71 0 0 1 12 0 1 0 1
0 137 -105 -71 0 0 1 12 0 1 0 1
0 137 -5 -71 0 0 1 12 0 1 0 1
phys
0 125.7 -105 -71 0 0 1 12 0 1 0 1
0 137 -5 -71 0 0 1 12 0 1 0 1
0 125.7 -5 -71 0 0 1 12 0 1 0 1
phys
0 137 -105 -71 0 0 1 12 0 1 0 1
0 125 -105 -79.001 0 0 1 12 0 1 0 1
0 125 -5 -79.001 0 0 1 12 0 1 0 1
phys
0 137 -105 -71 0 0 1 12 0 1 0 1
0 125 -5 -79.001 0 0 1 12 0 1 0 1
0 137 -5 -71 0 0 1 12 0 1 0 1
phys
0 125 -105 -72 0 0 1 12 0 1 0 1
0 125.7 -105 -71 0 0 1 12 0 1 0 1
0 125.7 -5 -71 0 0 1 12 0 1 0 1
phys
0 125 -105 -72 0 0 1 12 0 1 0 1
0 125.7 -5 -71 0 0 1 12 0 1 0 1
0 125 -5 -72 0 0 1 12 0 1 0 1
phys
0 89 -5 -103.001 0 0 1 13 0 1 0 1
0 89 -5 -95.999 0 0 1 13 0 1 0 1
0 89.7 -5 -95 0 0 1 13 0 1 0 1
phys
0 89 -5 -103.001 0 0 1 13 0 1 0 1
0 89.7 -5 -95 0 0 1 13 0 1 0 1
0 101 -5 -95 0 0 1 13 0 1 0 1
phys
0 101 -105 -95 0 0 1 13 0 1 0 1
0 89.7 -105 -95 0 0 1 13 0 1 0 1
0 89 -105 -95.999 0 0 1 13 0 1 0 1
phys
0 101 -105 -95 0 0 1 13 0 1 0 1
0 89 -105 -95.999 0 0 1 13 0 1 0 1
0 89 -105 -103.001 0 0 1 13 0 1 0 1
phys
0 89 -105 -103.001 0 0 1 13 0 1 0 1
0 89 -105 -95.999 0 0 1 13 0 1 0 1
0 89 -5 -95.999 0 0 1 13 0 1 0 1
phys
0 89 -105 -103.001 0 0 1 13 0 1 0 1
0 89 -5 -95.999 0 0 1 13 0 1 0 1
0 89 -5 -103.001 0 0 1 13 0 1 0 1
phys
0 89.7 -105 -95 0 0 1 13 0 1 0 1
0 101 -105 -95 0 0 1 13 0 1 0 1
0 101 -5 -95 0 0 1 13 0 1 0 1
phys
0 89.7 -105 -95 0 0 1 13 0 1 0 1
0 101 -5 -95 0 0 1 13 0 1 0 1
0 89.7 -5 -95 0 0 1 13 0 1 0 1
phys
0 101 -105 -95 0 0 1 13 0 1 0 1
0 89 -105 -103.001 0 0 1 13 0 1 0 1
0 89 -5 -103.001 0 0 1 13 0 1 0 1
phys
0 101 -105 -95 0 0 1 13 0 1 0 1
0 89 -5 -103.001 0 0 1 13 0 1 0 1
0 101 -5 -95 0 0 1 13 0 1 0 1
phys
0 89 -105 -95.999 0 0 1 13 0 1 0 1
0 89.7 -105 -95 0 0 1 13 0 1 0 1
0 89.7 -5 -95 0 0 1 13 0 1 0 1
phys
0 89 -105 -95.999 0 0 1 13 0 1 0 1
0 89.7 -5 -95 0 0 1 13 0 1 0 1
0 89 -5 -95.999 0 0 1 13 0 1 0 1
phys
0 209 -5 -23.001 0 0 1 14 0 1 0 1
0 209 -5 -15.999 0 0 1 14 0 1 0 1
0 209.7 -5 -15 0 0 1 14 0 1 0 1
phys
0 209 -5 -23.001 0 0 1 14 0 1 0 1
0 209.7 -5 -15 0 0 1 14 0 1 0 1
0 221 -5 -15 0 0 1 14 0 1 0 1
phys
0 221 -105 -15 0 0 1 14 0 1 0 1
0 209.7 -105 -15 0 0 1 14 0 1 0 1
0 209 -105 -15.999 0 0 1 14 0 1 0 1
phys
0 221 -105 -15 0 0 1 14 0 1 0 1
0 209 -105 -15.999 0 0 1 14 0 1 0 1
0 209 -105 -23.001 0 0 1 14 0 1 0 1
phys
0 209 -105 -23.001 0 0 1 14 0 1 0 1
0 209 -105 -15.999 0 0 1 14 0 1 0 1
0 209 -5 -15.999 0 0 1 14 0 1 0 1
phys
0 209 -105 -23.001 0 0 1 14 0 1 0 1
0 209 -5 -15.999 0 0 1 14 0 1 0 1
0 209 -5 -23.001 0 0 1 14 0 1 0 1
phys
0 209.7 -105 -15 0 0 1 14 0 1 0 1
0 221 -105 -15 0 0 1 14 0 1 0 1
0 221 -5 -15 0 0 1 14 0 1 0 1
phys
0 209.7 -105 -15 0 0 1 14 0 1 0 1
0 221 -5 -15 0 0 1 14 0 1 0 1
0 209.7 -5 -15 0 0 1 14 0 1 0 1
phys
0 221 -105 -15 0 0 1 14 0 1 0 1
0 209 -105 -23.001 0 0 1 14 0 1 0 1
0 209 -5 -23.001 0 0 1 14 0 1 0 1
phys
0 221 -105 -15 0 0 1 14 0 1 0 1
0 209 -5 -23.001 0 0 1 14 0 1 0 1
0 221 -5 -15 0 0 1 14 0 1 0 1
phys
0 209 -105 -15.999 0 0 1 14 0 1 0 1
0 209.7 -105 -15 0 0 1 14 0 1 0 1
0 209.7 -5 -15 0 0 1 14 0 1 0 1
phys
0 209 -105 -15.999 0 0 1 14 0 1 0 1
0 209.7 -5 -15 0 0 1 14 0 1 0 1
0 209 -5 -15.999 0 0 1 14 0 1 0 1
phys
0 233 -105 0 0 0 1 15 0 1 0 1
0 233 -5 0 0 0 1 15 0 1 0 1
0 233 -5 -7.001 0 0 1 15 0 1 0 1
phys
0 233 -105 0 0 0 1 15 0 1 0 1
0 233 -5 -7.001 0 0 1 15 0 1 0 1
0 233 -105 -7.001 0 0 1 15 0 1 0 1
phys
0 245 -105 1 0 0 1 15 0 1 0 1
0 245 -5 1 0 0 1 15 0 1 0 1
0 233.7 -5 1 0 0 1 15 0 1 0 1
phys
0 245 -105 1 0 0 1 15 0 1 0 1
0 233.7 -5 1 0 0 1 15 0 1 0 1
0 233.7 -105 1 0 0 1 15 0 1 0 1
phys
0 233 -105 -7.001 0 0 1 15 0 1 0 1
0 233 -5 -7.001 0 0 1 15 0 1 0 1
0 245 -5 1 0 0 1 15 0 1 0 1
phys
0 233 -105 -7.001 0 0 1 15 0 1 0 1
0 245 -5 1 0 0 1 15 0 1 0 1
0 245 -105 1 0 0 1 15 0 1 0 1
phys
0 233.7 -105 1 0 0 1 15 0 1 0 1
0 233.7 -5 1 0 0 1 15 0 1 0 1
0 233 -5 0 0 0 1 15 0 1 0 1
phys
0 233.7 -105 1 0 0 1 15 0 1 0 1
0 233 -5 0 0 0 1 15 0 1 0 1
0 233 -105 0 0 0 1 15 0 1 0 1
phys
0 233 -5 -7.001 0 0 1 15 0 1 0 1
0 233 -5 0 0 0 1 15 0 1 0 1
0 233.7 -5 1 0 0 1 15 0 1 0 1
phys
0 233 -5 -7.001 0 0 1 15 0 1 0 1
0 233.7 -5 1 0 0 1 15 0 1 0 1
0 245 -5 1 0 0 1 15 0 1 0 1
phys
0 245 -105 1 0 0 1 15 0 1 0 1
0 233.7 -105 1 0 0 1 15 0 1 0 1
0 233 -105 0 0 0 1 15 0 1 0 1
phys
0 245 -105 1 0 0 1 15 0 1 0 1
0 233 -105 0 0 0 1 15 0 1 0 1
0 233 -105 -7.001 0 0 1 15 0 1 0 1
phys
0 137 -5 -71.001 0 0 1 16 0 1 0 1
0 137 -5 -63.998 0 0 1 16 0 1 0 1
0 137.7 -5 -63 0 0 1 16 0 1 0 1
phys
0 137 -5 -71.001 0 0 1 16 0 1 0 1
0 137.7 -5 -63 0 0 1 16 0 1 0 1
0 149 -5 -63 0 0 1 16 0 1 0 1
phys
0 149 -105 -63 0 0 1 16 0 1 0 1
0 137.7 -105 -63 0 0 1 16 0 1 0 1
0 137 -105 -63.998 0 0 1 16 0 1 0 1
phys
0 149 -105 -63 0 0 1 16 0 1 0 1
0 137 -105 -63.998 0 0 1 16 0 1 0 1
0 137 -105 -71.001 0 0 1 16 0 1 0 1
phys
0 137 -105 -71.001 0 0 1 16 0 1 0 1
0 137 -105 -63.998 0 0 1 16 0 1 0 1
0 137 -5 -63.998 0 0 1 16 0 1 0 1
phys
0 137 -105 -71.001 0 0 1 16 0 1 0 1
0 137 -5 -63.998 0 0 1 16 0 1 0 1
0 137 -5 -71.001 0 0 1 16 0 1 0 1
phys
0 137.7 -105 -63 0 0 1 16 0 1 0 1
0 149 -105 -63 0 0 1 16 0 1 0 1
0 149 -5 -63 0 0 1 16 0 1 0 1
phys
0 137.7 -105 -63 0 0 1 16 0 1 0 1
0 149 -5 -63 0 0 1 16 0 1 0 1
0 137.7 -5 -63 0 0 1 16 0 1 0 1
phys
0 149 -105 -63 0 0 1 16 0 1 0 1
0 137 -105 -71.001 0 0 1 16 0 1 0 1
0 137 -5 -71.001 0 0 1 16 0 1 0 1
phys
0 149 -105 -63 0 0 1 16 0 1 0 1
0 137 -5 -71.001 0 0 1 16 0 1 0 1
0 149 -5 -63 0 0 1 16 0 1 0 1
phys
0 137 -105 -63.998 0 0 1 16 0 1 0 1
0 137.7 -105 -63 0 0 1 16 0 1 0 1
0 137.7 -5 -63 0 0 1 16 0 1 0 1
phys
0 137 -105 -63.998 0 0 1 16 0 1 0 1
0 137.7 -5 -63 0 0 1 16 0 1 0 1
0 137 -5 -63.998 0 0 1 16 0 1 0 1
phys
0 269 -115 17 0 0 1 17 0 1 0 1
0 166 -115 17 0 0 1 17 0 1 0 1
0 166 -105 17 0 0 1 17 0 1 0 1
phys
0 269 -115 17 0 0 1 17 0 1 0 1
0 166 -105 17 0 0 1 17 0 1 0 1
0 269 -105 17 0 0 1 17 0 1 0 1
phys
0 166 -115 43 0 0 1 17 0 1 0 1
0 269 -115 43 0 0 1 17 0 1 0 1
0 269 -105 43 0 0 1 17 0 1 0 1
phys
0 166 -115 43 0 0 1 17 0 1 0 1
0 269 -105 43 0 0 1 17 0 1 0 1
0 166 -105 43 0 0 1 17 0 1 0 1
phys
0 269 -105 17 0 0 1 17 0 1 0 1
0 166 -105 17 0 0 1 17 0 1 0 1
0 166 -105 43 0 0 1 17 0 1 0 1
phys
0 269 -105 17 0 0 1 17 0 1 0 1
0 166 -105 43 0 0 1 17 0 1 0 1
0 269 -105 43 0 0 1 17 0 1 0 1
phys
0 269 -115 43 0 0 1 17 0 1 0 1
0 166 -115 43 0 0 1 17 0 1 0 1
0 166 -115 17 0 0 1 17 0 1 0 1
phys
0 269 -115 43 0 0 1 17 0 1 0 1
0 166 -115 17 0 0 1 17 0 1 0 1
0 269 -115 17 0 0 1 17 0 1 0 1
phys
0 166 -115 43 0 0 1 17 0 1 0 1
0 166 -105 43 0 0 1 17 0 1 0 1
0 166 -105 17 0 0 1 17 0 1 0 1
phys
0 166 -115 43 0 0 1 17 0 1 0 1
0 166 -105 17 0 0 1 17 0 1 0 1
0 166 -115 17 0 0 1 17 0 1 0 1
phys
0 269 -115 17 0 0 1 17 0 1 0 1
0 269 -105 17 0 0 1 17 0 1 0 1
0 269 -105 43 0 0 1 17 0 1 0 1
phys
0 269 -115 17 0 0 1 17 0 1 0 1
0 269 -105 43 0 0 1 17 0 1 0 1
0 269 -115 43 0 0 1 17 0 1 0 1
phys
0 432 8 9 0 0 1 18 0 1 0 1
0 432 8 -1 0 0 1 18 0 1 0 1
0 185.2 8 -1 0 0 1 18 0 1 0 1
phys
0 432 8 9 0 0 1 18 0 1 0 1
0 185.2 8 -1 0 0 1 18 0 1 0 1
0 200.6 8 9 0 0 1 18 0 1 0 1
phys
0 432 5 -1 0 0 1 18 0 1 0 1
0 432 5 9 0 0 1 18 0 1 0 1
0 200.6 5 9 0 0 1 18 0 1 0 1
phys
0 432 5 -1 0 0 1 18 0 1 0 1
0 200.6 5 9 0 0 1 18 0 1 0 1
0 185.2 5 -1 0 0 1 18 0 1 0 1
phys
0 432 5 9 0 0 1 18 0 1 0 1
0 432 5 -1 0 0 1 18 0 1 0 1
0 432 8 -1 0 0 1 18 0 1 0 1
phys
0 432 5 9 0 0 1 18 0 1 0 1
0 432 8 -1 0 0 1 18 0 1 0 1
0 432 8 9 0 0 1 18 0 1 0 1
phys
0 432 5 -1 0 0 1 18 0 1 0 1
0 185.2 5 -1 0 0 1 18 0 1 0 1
0 185.2 8 -1 0 0 1 18 0 1 0 1
phys
0 432 5 -1 0 0 1 18 0 1 0 1
0 185.2 8 -1 0 0 1 18 0 1 0 1
0 432 8 -1 0 0 1 18 0 1 0 1
phys
0 200.6 5 9 0 0 1 18 0 1 0 1
0 432 5 9 0 0 1 18 0 1 0 1
0 432 8 9 0 0 1 18 0 1 0 1
phys
0 200.6 5 9 0 0 1 18 0 1 0 1
0 432 8 9 0 0 1 18 0 1 0 1
0 200.6 8 9 0 0 1 18 0 1 0 1
phys
0 185.2 5 -1 0 0 1 18 0 1 0 1
0 200.6 5 9 0 0 1 18 0 1 0 1
0 200.6 8 9 0 0 1 18 0 1 0 1
phys
0 185.2 5 -1 0 0 1 18 0 1 0 1
0 200.6 8 9 0 0 1 18 0 1 0 1
0 185.2 8 -1 0 0 1 18 0 1 0 1
phys
0 -151 -9 57 0 0 1 19 0 1 0 1
0 -151 -9 17 0 0 1 19 0 1 0 1
0 -159 -9 17 0 0 1 19 0 1 0 1
phys
0 -151 -9 57 0 0 1 19 0 1 0 1
0 -159 -9 17 0 0 1 19 0 1 0 1
0 -159 -9 57 0 0 1 19 0 1 0 1
phys
0 -151 -17 17 0 0 1 19 0 1 0 1
0 -151 -17 57 0 0 1 19 0 1 0 1
0 -159 -17 57 0 0 1 19 0 1 0 1
phys
0 -151 -17 17 0 0 1 19 0 1 0 1
0 -159 -17 57 0 0 1 19 0 1 0 1
0 -159 -17 17 0 0 1 19 0 1 0 1
phys
0 -159 -17 17 0 0 1 19 0 1 0 1
0 -159 -17 57 0 0 1 19 0 1 0 1
0 -159 -9 57 0 0 1 19 0 1 0 1
phys
0 -159 -17 17 0 0 1 19 0 1 0 1
0 -159 -9 57 0 0 1 19 0 1 0 1
0 -159 -9 17 0 0 1 19 0 1 0 1
phys
0 -151 -17 57 0 0 1 19 0 1 0 1
0 -151 -17 17 0 0 1 19 0 1 0 1
0 -151 -9 17 0 0 1 19 0 1 0 1
phys
0 -151 -17 57 0 0 1 19 0 1 0 1
0 -151 -9 17 0 0 1 19 0 1 0 1
0 -151 -9 57 0 0 1 19 0 1 0 1
phys
0 -151 -17 17 0 0 1 19 0 1 0 1
0 -159 -17 17 0 0 1 19 0 1 0 1
0 -159 -9 17 0 0 1 19 0 1 0 1
phys
0 -151 -17 17 0 0 1 19 0 1 0 1
0 -159 -9 17 0 0 1 19 0 1 0 1
0 -151 -9 17 0 0 1 19 0 1 0 1
phys
0 -159 -17 57 0 0 1 19 0 1 0 1
0 -151 -17 57 0 0 1 19 0 1 0 1
0 -151 -9 57 0 0 1 19 0 1 0 1
phys
0 -159 -17 57 0 0 1 19 0 1 0 1
0 -151 -9 57 0 0 1 19 0 1 0 1
0 -159 -9 57 0 0 1 19 0 1 0 1
phys
0 89 -105 -103 0 0 1 20 0 1 0 1
0 89 -5 -103 0 0 1 20 0 1 0 1
0 77.7 -5 -103 0 0 1 20 0 1 0 1
phys
0 89 -105 -103 0 0 1 20 0 1 0 1
0 77.7 -5 -103 0 0 1 20 0 1 0 1
0 77.7 -105 -103 0 0 1 20 0 1 0 1
phys
0 77 -5 -111.001 0 0 1 20 0 1 0 1
0 89 -5 -103 0 0 1 20 0 1 0 1
0 89 -105 -103 0 0 1 20 0 1 0 1
phys
0 77 -5 -111.001 0 0 1 20 0 1 0 1
0 89 -105 -103 0 0 1 20 0 1 0 1
0 77 -105 -111.001 0 0 1 20 0 1 0 1
phys
0 77.7 -105 -103 0 0 1 20 0 1 0 1
0 77.7 -5 -103 0 0 1 20 0 1 0 1
0 77 -5 -103.999 0 0 1 20 0 1 0 1
phys
0 77.7 -105 -103 0 0 1 20 0 1 0 1
0 77 -5 -103.999 0 0 1 20 0 1 0 1
0 77 -105 -103.999 0 0 1 20 0 1 0 1
phys
0 77.7 -5 -103 0 0 1 20 0 1 0 1
0 89 -5 -103 0 0 1 20 0 1 0 1
0 77 -5 -111.001 0 0 1 20 0 1 0 1
phys
0 77.7 -5 -103 0 0 1 20 0 1 0 1
0 77 -5 -111.001 0 0 1 20 0 1 0 1
0 77 -5 -103.999 0 0 1 20 0 1 0 1
phys
0 89 -105 -103 0 0 1 20 0 1 0 1
0 77.7 -105 -103 0 0 1 20 0 1 0 1
0 77 -105 -103.999 0 0 1 20 0 1 0 1
phys
0 89 -105 -103 0 0 1 20 0 1 0 1
0 77 -105 -103.999 0 0 1 20 0 1 0 1
0 77 -105 -111.001 0 0 1 20 0 1 0 1
phys
0 77 -105 -103.999 0 0 1 20 0 1 0 1
0 77 -5 -103.999 0 0 1 20 0 1 0 1
0 77 -5 -111.001 0 0 1 20 0 1 0 1
phys
0 77 -105 -103.999 0 0 1 20 0 1 0 1
0 77 -5 -111.001 0 0 1 20 0 1 0 1
0 77 -105 -111.001 0 0 1 20 0 1 0 1
phys
0 101 -5 -95.001 0 0 1 21 0 1 0 1
0 101 -5 -87.999 0 0 1 21 0 1 0 1
0 101.7 -5 -87 0 0 1 21 0 1 0 1
phys
0 101 -5 -95.001 0 0 1 21 0 1 0 1
0 101.7 -5 -87 0 0 1 21 0 1 0 1
0 113 -5 -87 0 0 1 21 0 1 0 1
phys
0 113 -105 -87 0 0 1 21 0 1 0 1
0 101.7 -105 -87 0 0 1 21 0 1 0 1
0 101 -105 -87.999 0 0 1 21 0 1 0 1
phys
0 113 -105 -87 0 0 1 21 0 1 0 1
0 101 -105 -87.999 0 0 1 21 0 1 0 1
0 101 -105 -95.001 0 0 1 21 0 1 0 1
phys
0 101 -105 -95.001 0 0 1 21 0 1 0 1
0 101 -105 -87.999 0 0 1 21 0 1 0 1
0 101 -5 -87.999 0 0 1 21 0 1 0 1
phys
0 101 -105 -95.001 0 0 1 21 0 1 0 1
0 101 -5 -87.999 0 0 1 21 0 1 0 1
0 101 -5 -95.001 0 0 1 21 0 1 0 1
phys
0 101.7 -105 -87 0 0 1 21 0 1 0 1
0 113 -105 -87 0 0 1 21 0 1 0 1
0 113 -5 -87 0 0 1 21 0 1 0 1
phys
0 101.7 -105 -87 0 0 1 21 0 1 0 1
0 113 -5 -87 0 0 1 21 0 1 0 1
0 101.7 -5 -87 0 0 1 21 0 1 0 1
phys
0 113 -105 -87 0 0 1 21 0 1 0 1
0 101 -105 -95.001 0 0 1 21 0 1 0 1
0 101 -5 -95.001 0 0 1 21 0 1 0 1
phys
0 113 -105 -87 0 0 1 21 0 1 0 1
0 101 -5 -95.001 0 0 1 21 0 1 0 1
0 113 -5 -87 0 0 1 21 0 1 0 1
phys
0 101 -105 -87.999 0 0 1 21 0 1 0 1
0 101.7 -105 -87 0 0 1 21 0 1 0 1
0 101.7 -5 -87 0 0 1 21 0 1 0 1
phys
0 101 -105 -87.999 0 0 1 21 0 1 0 1
0 101.7 -5 -87 0 0 1 21 0 1 0 1
0 101 -5 -87.999 0 0 1 21 0 1 0 1
phys
0 53 -5 -127.001 0 0 1 22 0 1 0 1
0 53 -5 -119.999 0 0 1 22 0 1 0 1
0 53.7 -5 -119 0 0 1 22 0 1 0 1
phys
0 53 -5 -127.001 0 0 1 22 0 1 0 1
0 53.7 -5 -119 0 0 1 22 0 1 0 1
0 65 -5 -119 0 0 1 22 0 1 0 1
phys
0 65 -105 -119 0 0 1 22 0 1 0 1
0 53.7 -105 -119 0 0 1 22 0 1 0 1
0 53 -105 -119.999 0 0 1 22 0 1 0 1
phys
0 65 -105 -119 0 0 1 22 0 1 0 1
0 53 -105 -119.999 0 0 1 22 0 1 0 1
0 53 -105 -127.001 0 0 1 22 0 1 0 1
phys
0 53 -105 -127.001 0 0 1 22 0 1 0 1
0 53 -105 -119.999 0 0 1 22 0 1 0 1
0 53 -5 -119.999 0 0 1 22 0 1 0 1
phys
0 53 -105 -127.001 0 0 1 22 0 1 0 1
0 53 -5 -119.999 0 0 1 22 0 1 0 1
0 53 -5 -127.001 0 0 1 22 0 1 0 1
phys
0 53.7 -105 -119 0 0 1 22 0 1 0 1
0 65 -105 -119 0 0 1 22 0 1 0 1
0 65 -5 -119 0 0 1 22 0 1 0 1
phys
0 53.7 -105 -119 0 0 1 22 0 1 0 1
0 65 -5 -119 0 0 1 22 0 1 0 1
0 53.7 -5 -119 0 0 1 22 0 1 0 1
phys
0 65 -105 -119 0 0 1 22 0 1 0 1
0 53 -105 -127.001 0 0 1 22 0 1 0 1
0 53 -5 -127.001 0 0 1 22 0 1 0 1
phys
0 65 -105 -119 0 0 1 22 0 1 0 1
0 53 -5 -127.001 0 0 1 22 0 1 0 1
0 65 -5 -119 0 0 1 22 0 1 0 1
phys
0 53 -105 -119.999 0 0 1 22 0 1 0 1
0 53.7 -105 -119 0 0 1 22 0 1 0 1
0 53.7 -5 -119 0 0 1 22 0 1 0 1
phys
0 53 -105 -119.999 0 0 1 22 0 1 0 1
0 53.7 -5 -119 0 0 1 22 0 1 0 1
0 53 -5 -119.999 0 0 1 22 0 1 0 1
phys
0 185 -5 -39.001 0 0 1 23 0 1 0 1
0 185 -5 -32.001 0 0 1 23 0 1 0 1
0 185.7 -5 -31 0 0 1 23 0 1 0 1
phys
0 185 -5 -39.001 0 0 1 23 0 1 0 1
0 185.7 -5 -31 0 0 1 23 0 1 0 1
0 197 -5 -31 0 0 1 23 0 1 0 1
phys
0 197 -105 -31 0 0 1 23 0 1 0 1
0 185.7 -105 -31 0 0 1 23 0 1 0 1
0 185 -105 -32.001 0 0 1 23 0 1 0 1
phys
0 197 -105 -31 0 0 1 23 0 1 0 1
0 185 -105 -32.001 0 0 1 23 0 1 0 1
0 185 -105 -39.001 0 0 1 23 0 1 0 1
phys
0 185 -105 -39.001 0 0 1 23 0 1 0 1
0 185 -105 -32.001 0 0 1 23 0 1 0 1
0 185 -5 -32.001 0 0 1 23 0 1 0 1
phys
0 185 -105 -39.001 0 0 1 23 0 1 0 1
0 185 -5 -32.001 0 0 1 23 0 1 0 1
0 185 -5 -39.001 0 0 1 23 0 1 0 1
phys
0 185.7 -105 -31 0 0 1 23 0 1 0 1
0 197 -105 -31 0 0 1 23 0 1 0 1
0 197 -5 -31 0 0 1 23 0 1 0 1
phys
0 185.7 -105 -31 0 0 1 23 0 1 0 1
0 197 -5 -31 0 0 1 23 0 1 0 1
0 185.7 -5 -31 0 0 1 23 0 1 0 1
phys
0 197 -105 -31 0 0 1 23 0 1 0 1
0 185 -105 -39.001 0 0 1 23 0 1 0 1
0 185 -5 -39.001 0 0 1 23 0 1 0 1
phys
0 197 -105 -31 0 0 1 23 0 1 0 1
0 185 -5 -39.001 0 0 1 23 0 1 0 1
0 197 -5 -31 0 0 1 23 0 1 0 1
phys
0 185 -105 -32.001 0 0 1 23 0 1 0 1
0 185.7 -105 -31 0 0 1 23 0 1 0 1
0 185.7 -5 -31 0 0 1 23 0 1 0 1
phys
0 185 -105 -32.001 0 0 1 23 0 1 0 1
0 185.7 -5 -31 0 0 1 23 0 1 0 1
0 185 -5 -32.001 0 0 1 23 0 1 0 1
phys
0 -5 -5 158 0 0 1 24 0 1 0 1
0 -5 5 158 0 0 1 24 0 1 0 1
0 -5 5 -158 0 0 1 24 0 1 0 1
phys
0 -5 -5 158 0 0 1 24 0 1 0 1
0 -5 5 -158 0 0 1 24 0 1 0 1
0 -5 -5 -158 0 0 1 24 0 1 0 1
phys
0 5 -5 -158 0 0 1 24 0 1 0 1
0 5 5 -158 0 0 1 24 0 1 0 1
0 5 5 158 0 0 1 24 0 1 0 1
phys
0 5 -5 -158 0 0 1 24 0 1 0 1
0 5 5 158 0 0 1 24 0 1 0 1
0 5 -5 158 0 0 1 24 0 1 0 1
phys
0 -5 -5 -158 0 0 1 24 0 1 0 1
0 -5 5 -158 0 0 1 24 0 1 0 1
0 5 5 -158 0 0 1 24 0 1 0 1
phys
0 -5 -5 -158 0 0 1 24 0 1 0 1
0 5 5 -158 0 0 1 24 0 1 0 1
0 5 -5 -158 0 0 1 24 0 1 0 1
phys
0 5 -5 158 0 0 1 24 0 1 0 1
0 5 5 158 0 0 1 24 0 1 0 1
0 -5 5 158 0 0 1 24 0 1 0 1
phys
0 5 -5 158 0 0 1 24 0 1 0 1
0 -5 5 158 0 0 1 24 0 1 0 1
0 -5 -5 158 0 0 1 24 0 1 0 1
phys
0 5 5 158 0 0 1 24 0 1 0 1
0 5 5 -158 0 0 1 24 0 1 0 1
0 -5 5 -158 0 0 1 24 0 1 0 1
phys
0 5 5 158 0 0 1 24 0 1 0 1
0 -5 5 -158 0 0 1 24 0 1 0 1
0 -5 5 158 0 0 1 24 0 1 0 1
phys
0 5 -5 -158 0 0 1 24 0 1 0 1
0 5 -5 158 0 0 1 24 0 1 0 1
0 -5 -5 158 0 0 1 24 0 1 0 1
phys
0 5 -5 -158 0 0 1 24 0 1 0 1
0 -5 -5 158 0 0 1 24 0 1 0 1
0 -5 -5 -158 0 0 1 24 0 1 0 1
phys
0 -159 -105 57 0 0 1 25 0 1 0 1
0 -159 -97 57 0 0 1 25 0 1 0 1
0 -159 -97 17 0 0 1 25 0 1 0 1
phys
0 -159 -105 57 0 0 1 25 0 1 0 1
0 -159 -97 17 0 0 1 25 0 1 0 1
0 -159 -105 17 0 0 1 25 0 1 0 1
phys
0 -151 -105 17 0 0 1 25 0 1 0 1
0 -151 -97 17 0 0 1 25 0 1 0 1
0 -151 -97 57 0 0 1 25 0 1 0 1
phys
0 -151 -105 17 0 0 1 25 0 1 0 1
0 -151 -97 57 0 0 1 25 0 1 0 1
0 -151 -105 57 0 0 1 25 0 1 0 1
phys
0 -159 -105 17 0 0 1 25 0 1 0 1
0 -159 -97 17 0 0 1 25 0 1 0 1
0 -151 -97 17 0 0 1 25 0 1 0 1
phys
0 -159 -105 17 0 0 1 25 0 1 0 1
0 -151 -97 17 0 0 1 25 0 1 0 1
0 -151 -105 17 0 0 1 25 0 1 0 1
phys
0 -151 -105 57 0 0 1 25 0 1 0 1
0 -151 -97 57 0 0 1 25 0 1 0 1
0 -159 -97 57 0 0 1 25 0 1 0 1
phys
0 -151 -105 57 0 0 1 25 0 1 0 1
0 -159 -97 57 0 0 1 25 0 1 0 1
0 -159 -105 57 0 0 1 25 0 1 0 1
phys
0 -151 -97 57 0 0 1 25 0 1 0 1
0 -151 -97 17 0 0 1 25 0 1 0 1
0 -159 -97 17 0 0 1 25 0 1 0 1
phys
0 -151 -97 57 0 0 1 25 0 1 0 1
0 -159 -97 17 0 0 1 25 0 1 0 1
0 -159 -97 57 0 0 1 25 0 1 0 1
phys
0 -151 -105 17 0 0 1 25 0 1 0 1
0 -151 -105 57 0 0 1 25 0 1 0 1
0 -159 -105 57 0 0 1 25 0 1 0 1
phys
0 -151 -105 17 0 0 1 25 0 1 0 1
0 -159 -105 57 0 0 1 25 0 1 0 1
0 -159 -105 17 0 0 1 25 0 1 0 1
phys
0 65 -5 -119.001 0 0 1 26 0 1 0 1
0 65 -5 -111.999 0 0 1 26 0 1 0 1
0 65.7 -5 -111 0 0 1 26 0 1 0 1
phys
0 65 -5 -119.001 0 0 1 26 0 1 0 1
0 65.7 -5 -111 0 0 1 26 0 1 0 1
0 77 -5 -111 0 0 1 26 0 1 0 1
phys
0 77 -105 -111 0 0 1 26 0 1 0 1
0 65.7 -105 -111 0 0 1 26 0 1 0 1
0 65 -105 -111.999 0 0 1 26 0 1 0 1
phys
0 77 -105 -111 0 0 1 26 0 1 0 1
0 65 -105 -111.999 0 0 1 26 0 1 0 1
0 65 -105 -119.001 0 0 1 26 0 1 0 1
phys
0 65 -105 -119.001 0 0 1 26 0 1 0 1
0 65 -105 -111.999 0 0 1 26 0 1 0 1
0 65 -5 -111.999 0 0 1 26 0 1 0 1
phys
0 65 -105 -119.001 0 0 1 26 0 1 0 1
0 65 -5 -111.999 0 0 1 26 0 1 0 1
0 65 -5 -119.001 0 0 1 26 0 1 0 1
phys
0 65.7 -105 -111 0 0 1 26 0 1 0 1
0 77 -105 -111 0 0 1 26 0 1 0 1
0 77 -5 -111 0 0 1 26 0 1 0 1
phys
0 65.7 -105 -111 0 0 1 26 0 1 0 1
0 77 -5 -111 0 0 1 26 0 1 0 1
0 65.7 -5 -111 0 0 1 26 0 1 0 1
phys
0 77 -105 -111 0 0 1 26 0 1 0 1
0 65 -105 -119.001 0 0 1 26 0 1 0 1
0 65 -5 -119.001 0 0 1 26 0 1 0 1
phys
0 77 -105 -111 0 0 1 26 0 1 0 1
0 65 -5 -119.001 0 0 1 26 0 1 0 1
0 77 -5 -111 0 0 1 26 0 1 0 1
phys
0 65 -105 -111.999 0 0 1 26 0 1 0 1
0 65.7 -105 -111 0 0 1 26 0 1 0 1
0 65.7 -5 -111 0 0 1 26 0 1 0 1
phys
0 65 -105 -111.999 0 0 1 26 0 1 0 1
0 65.7 -5 -111 0 0 1 26 0 1 0 1
0 65 -5 -111.999 0 0 1 26 0 1 0 1
phys
0 -109 -430 125.0014 0 0 1 27 0 1 0 1
0 -109 -430 17 0 0 1 27 0 1 0 1
0 -113 -430 17 0 0 1 27 0 1 0 1
phys
0 -109 -430 125.0014 0 0 1 27 0 1 0 1
0 -113 -430 17 0 0 1 27 0 1 0 1
0 -113 -430 128.986 0 0 1 27 0 1 0 1
phys
0 -109 -439 17 0 0 1 27 0 1 0 1
0 -109 -439 125.0014 0 0 1 27 0 1 0 1
0 -113 -439 128.986 0 0 1 27 0 1 0 1
phys
0 -109 -439 17 0 0 1 27 0 1 0 1
0 -113 -439 128.986 0 0 1 27 0 1 0 1
0 -113 -439 17 0 0 1 27 0 1 0 1
phys
0 -113 -439 17 0 0 1 27 0 1 0 1
0 -113 -439 128.986 0 0 1 27 0 1 0 1
0 -113 -430 128.986 0 0 1 27 0 1 0 1
phys
0 -113 -439 17 0 0 1 27 0 1 0 1
0 -113 -430 128.986 0 0 1 27 0 1 0 1
0 -113 -430 17 0 0 1 27 0 1 0 1
phys
0 -109 -439 125.0014 0 0 1 27 0 1 0 1
0 -109 -439 17 0 0 1 27 0 1 0 1
0 -109 -430 17 0 0 1 27 0 1 0 1
phys
0 -109 -439 125.0014 0 0 1 27 0 1 0 1
0 -109 -430 17 0 0 1 27 0 1 0 1
0 -109 -430 125.0014 0 0 1 27 0 1 0 1
phys
0 -109 -439 17 0 0 1 27 0 1 0 1
0 -113 -439 17 0 0 1 27 0 1 0 1
0 -113 -430 17 0 0 1 27 0 1 0 1
phys
0 -109 -439 17 0 0 1 27 0 1 0 1
0 -113 -430 17 0 0 1 27 0 1 0 1
0 -109 -430 17 0 0 1 27 0 1 0 1
phys
0 -113 -439 128.986 0 0 1 27 0 1 0 1
0 -109 -439 125.0014 0 0 1 27 0 1 0 1
0 -109 -430 125.0014 0 0 1 27 0 1 0 1
phys
0 -113 -439 128.986 0 0 1 27 0 1 0 1
0 -109 -430 125.0014 0 0 1 27 0 1 0 1
0 -113 -430 128.986 0 0 1 27 0 1 0 1
phys
0 29 -5 -143.001 0 0 1 28 0 1 0 1
0 29 -5 -135.998 0 0 1 28 0 1 0 1
0 29.7 -5 -135 0 0 1 28 0 1 0 1
phys
0 29 -5 -143.001 0 0 1 28 0 1 0 1
0 29.7 -5 -135 0 0 1 28 0 1 0 1
0 41 -5 -135 0 0 1 28 0 1 0 1
phys
0 41 -105 -135 0 0 1 28 0 1 0 1
0 29.7 -105 -135 0 0 1 28 0 1 0 1
0 29 -105 -135.998 0 0 1 28 0 1 0 1
phys
0 41 -105 -135 0 0 1 28 0 1 0 1
0 29 -105 -135.998 0 0 1 28 0 1 0 1
0 29 -105 -143.001 0 0 1 28 0 1 0 1
phys
0 29 -105 -143.001 0 0 1 28 0 1 0 1
0 29 -105 -135.998 0 0 1 28 0 1 0 1
0 29 -5 -135.998 0 0 1 28 0 1 0 1
phys
0 29 -105 -143.001 0 0 1 28 0 1 0 1
0 29 -5 -135.998 0 0 1 28 0 1 0 1
0 29 -5 -143.001 0 0 1 28 0 1 0 1
phys
0 29.7 -105 -135 0 0 1 28 0 1 0 1
0 41 -105 -135 0 0 1 28 0 1 0 1
0 41 -5 -135 0 0 1 28 0 1 0 1
phys
0 29.7 -105 -135 0 0 1 28 0 1 0 1
0 41 -5 -135 0 0 1 28 0 1 0 1
0 29.7 -5 -135 0 0 1 28 0 1 0 1
phys
0 41 -105 -135 0 0 1 28 0 1 0 1
0 29 -105 -143.001 0 0 1 28 0 1 0 1
0 29 -5 -143.001 0 0 1 28 0 1 0 1
phys
0 41 -105 -135 0 0 1 28 0 1 0 1
0 29 -5 -143.001 0 0 1 28 0 1 0 1
0 41 -5 -135 0 0 1 28 0 1 0 1
phys
0 29 -105 -135.998 0 0 1 28 0 1 0 1
0 29.7 -105 -135 0 0 1 28 0 1 0 1
0 29.7 -5 -135 0 0 1 28 0 1 0 1
phys
0 29 -105 -135.998 0 0 1 28 0 1 0 1
0 29.7 -5 -135 0 0 1 28 0 1 0 1
0 29 -5 -135.998 0 0 1 28 0 1 0 1
phys
0 -151 -17 57 0 0 1 29 0 1 0 1
0 -151 -17 53 0 0 1 29 0 1 0 1
0 -159 -17 53 0 0 1 29 0 1 0 1
phys
0 -151 -17 57 0 0 1 29 0 1 0 1
0 -159 -17 53 0 0 1 29 0 1 0 1
0 -159 -17 57 0 0 1 29 0 1 0 1
phys
0 -151 -97 53 0 0 1 29 0 1 0 1
0 -151 -97 57 0 0 1 29 0 1 0 1
0 -159 -97 57 0 0 1 29 0 1 0 1
phys
0 -151 -97 53 0 0 1 29 0 1 0 1
0 -159 -97 57 0 0 1 29 0 1 0 1
0 -159 -97 53 0 0 1 29 0 1 0 1
phys
0 -159 -97 53 0 0 1 29 0 1 0 1
0 -159 -97 57 0 0 1 29 0 1 0 1
0 -159 -17 57 0 0 1 29 0 1 0 1
phys
0 -159 -97 53 0 0 1 29 0 1 0 1
0 -159 -17 57 0 0 1 29 0 1 0 1
0 -159 -17 53 0 0 1 29 0 1 0 1
phys
0 -151 -97 57 0 0 1 29 0 1 0 1
0 -151 -97 53 0 0 1 29 0 1 0 1
0 -151 -17 53 0 0 1 29 0 1 0 1
phys
0 -151 -97 57 0 0 1 29 0 1 0 1
0 -151 -17 53 0 0 1 29 0 1 0 1
0 -151 -17 57 0 0 1 29 0 1 0 1
phys
0 -151 -97 53 0 0 1 29 0 1 0 1
0 -159 -97 53 0 0 1 29 0 1 0 1
0 -159 -17 53 0 0 1 29 0 1 0 1
phys
0 -151 -97 53 0 0 1 29 0 1 0 1
0 -159 -17 53 0 0 1 29 0 1 0 1
0 -151 -17 53 0 0 1 29 0 1 0 1
phys
0 -159 -97 57 0 0 1 29 0 1 0 1
0 -151 -97 57 0 0 1 29 0 1 0 1
0 -151 -17 57 0 0 1 29 0 1 0 1
phys
0 -159 -97 57 0 0 1 29 0 1 0 1
0 -151 -17 57 0 0 1 29 0 1 0 1
0 -159 -17 57 0 0 1 29 0 1 0 1
phys
0 173 -105 -47 0 0 1 30 0 1 0 1
0 173 -5 -47 0 0 1 30 0 1 0 1
0 161.7 -5 -47 0 0 1 30 0 1 0 1
phys
0 173 -105 -47 0 0 1 30 0 1 0 1
0 161.7 -5 -47 0 0 1 30 0 1 0 1
0 161.7 -105 -47 0 0 1 30 0 1 0 1
phys
0 161 -5 -55.001 0 0 1 30 0 1 0 1
0 173 -5 -47 0 0 1 30 0 1 0 1
0 173 -105 -47 0 0 1 30 0 1 0 1
phys
0 161 -5 -55.001 0 0 1 30 0 1 0 1
0 173 -105 -47 0 0 1 30 0 1 0 1
0 161 -105 -55.001 0 0 1 30 0 1 0 1
phys
0 161.7 -105 -47 0 0 1 30 0 1 0 1
0 161.7 -5 -47 0 0 1 30 0 1 0 1
0 161 -5 -47.999 0 0 1 30 0 1 0 1
phys
0 161.7 -105 -47 0 0 1 30 0 1 0 1
0 161 -5 -47.999 0 0 1 30 0 1 0 1
0 161 -105 -47.999 0 0 1 30 0 1 0 1
phys
0 161.7 -5 -47 0 0 1 30 0 1 0 1
0 173 -5 -47 0 0 1 30 0 1 0 1
0 161 -5 -55.001 0 0 1 30 0 1 0 1
phys
0 161.7 -5 -47 0 0 1 30 0 1 0 1
0 161 -5 -55.001 0 0 1 30 0 1 0 1
0 161 -5 -47.999 0 0 1 30 0 1 0 1
phys
0 173 -105 -47 0 0 1 30 0 1 0 1
0 161.7 -105 -47 0 0 1 30 0 1 0 1
0 161 -105 -47.999 0 0 1 30 0 1 0 1
phys
0 173 -105 -47 0 0 1 30 0 1 0 1
0 161 -105 -47.999 0 0 1 30 0 1 0 1
0 161 -105 -55.001 0 0 1 30 0 1 0 1
phys
0 161 -105 -47.999 0 0 1 30 0 1 0 1
0 161 -5 -47.999 0 0 1 30 0 1 0 1
0 161 -5 -55.001 0 0 1 30 0 1 0 1
phys
0 161 -105 -47.999 0 0 1 30 0 1 0 1
0 161 -5 -55.001 0 0 1 30 0 1 0 1
0 161 -105 -55.001 0 0 1 30 0 1 0 1
phys
0 209 -105 -23 0 0 1 31 0 1 0 1
0 197 -105 -31.001 0 0 1 31 0 1 0 1
0 197 -5 -31.001 0 0 1 31 0 1 0 1
phys
0 209 -105 -23 0 0 1 31 0 1 0 1
0 197 -5 -31.001 0 0 1 31 0 1 0 1
0 209 -5 -23 0 0 1 31 0 1 0 1
phys
0 197.7 -5 -23 0 0 1 31 0 1 0 1
0 197 -5 -23.999 0 0 1 31 0 1 0 1
0 197 -105 -23.999 0 0 1 31 0 1 0 1
phys
0 197.7 -5 -23 0 0 1 31 0 1 0 1
0 197 -105 -23.999 0 0 1 31 0 1 0 1
0 197.7 -105 -23 0 0 1 31 0 1 0 1
phys
0 209 -5 -23 0 0 1 31 0 1 0 1
0 197 -5 -31.001 0 0 1 31 0 1 0 1
0 197 -5 -23.999 0 0 1 31 0 1 0 1
phys
0 209 -5 -23 0 0 1 31 0 1 0 1
0 197 -5 -23.999 0 0 1 31 0 1 0 1
0 197.7 -5 -23 0 0 1 31 0 1 0 1
phys
0 197.7 -105 -23 0 0 1 31 0 1 0 1
0 197 -105 -23.999 0 0 1 31 0 1 0 1
0 197 -105 -31.001 0 0 1 31 0 1 0 1
phys
0 197.7 -105 -23 0 0 1 31 0 1 0 1
0 197 -105 -31.001 0 0 1 31 0 1 0 1
0 209 -105 -23 0 0 1 31 0 1 0 1
phys
0 197 -105 -23.999 0 0 1 31 0 1 0 1
0 197 -5 -23.999 0 0 1 31 0 1 0 1
0 197 -5 -31.001 0 0 1 31 0 1 0 1
phys
0 197 -105 -23.999 0 0 1 31 0 1 0 1
0 197 -5 -31.001 0 0 1 31 0 1 0 1
0 197 -105 -31.001 0 0 1 31 0 1 0 1
phys
0 209 -105 -23 0 0 1 31 0 1 0 1
0 209 -5 -23 0 0 1 31 0 1 0 1
0 197.7 -5 -23 0 0 1 31 0 1 0 1
phys
0 209 -105 -23 0 0 1 31 0 1 0 1
0 197.7 -5 -23 0 0 1 31 0 1 0 1
0 197.7 -105 -23 0 0 1 31 0 1 0 1
end
