version 1
nodes
0 "root" -1
end
skeleton
time 0
0 0 0 0 0 0 0
end
triangles
pepsi2_arch_concrete_floor_smooth01
0 -189 -5 42 -1 0 0 15.695312 -1.664062 1 0 1
0 -189 5 42 -1 0 0 15.617188 -1.664062 1 0 1
0 -189 5 -42 -1 0 0 15.617188 -2.320312 1 0 1
pepsi2_arch_concrete_floor_smooth01
0 -189 -5 42 -1 0 0 15.695312 -1.664062 1 0 1
0 -189 5 -42 -1 0 0 15.617188 -2.320312 1 0 1
0 -189 -5 -42 -1 0 0 15.695312 -2.320312 1 0 1
pepsi2_arch_concrete_floor_smooth01
0 190 -5 -42 1 0 0 -16.492188 -2.320312 1 0 1
0 190 5 -42 1 0 0 -16.414062 -2.320312 1 0 1
0 190 5 42 1 0 0 -16.414062 -1.664062 1 0 1
pepsi2_arch_concrete_floor_smooth01
0 190 -5 -42 1 0 0 -16.492188 -2.320312 1 0 1
0 190 5 42 1 0 0 -16.414062 -1.664062 1 0 1
0 190 -5 42 1 0 0 -16.492188 -1.664062 1 0 1
pepsi2_arch_concrete_floor_smooth01
0 190 5 42 0 1 0 76.65625 -1.664062 1 0 1
0 190 5 -42 0 1 0 76.65625 -2.320312 1 0 1
0 -189 5 -42 0 1 0 79.617188 -2.320312 1 0 1
pepsi2_arch_concrete_floor_smooth01
0 190 5 42 0 1 0 76.65625 -1.664062 1 0 1
0 -189 5 -42 0 1 0 79.617188 -2.320312 1 0 1
0 -189 5 42 0 1 0 79.617188 -1.664062 1 0 1
pepsi2_arch_concrete_floor_smooth01
0 190 -5 -42 0 -1 0 3.523438 -76.375 1 0 1
0 190 -5 42 0 -1 0 2.867188 -76.375 1 0 1
0 -189 -5 42 0 -1 0 2.867188 -79.335938 1 0 1
pepsi2_arch_concrete_floor_smooth01
0 190 -5 -42 0 -1 0 3.523438 -76.375 1 0 1
0 -189 -5 42 0 -1 0 2.867188 -79.335938 1 0 1
0 -189 -5 -42 0 -1 0 3.523438 -79.335938 1 0 1
bridge_se1_metal_flat_steel_01
0 190 13 42 0 1 0 -56.331533 -50.962211 1 0 1
0 190 13 40 0 1 0 -56.342581 -50.951162 1 0 1
0 -189 13 40 0 1 0 -58.43626 -53.044841 1 0 1
bridge_se1_metal_flat_steel_01
0 190 13 42 0 1 0 -56.331533 -50.962211 1 0 1
0 -189 13 40 0 1 0 -58.43626 -53.044841 1 0 1
0 -189 13 42 0 1 0 -58.425212 -53.05589 1 0 1
bridge_se1_metal_flat_steel_01
0 -189 5 34 -1 0 0 9.011134 14.46689 1 0 1
0 -189 5 42 -1 0 0 9.055327 14.422696 1 0 1
0 -189 13 42 -1 0 0 9.011134 14.378502 1 0 1
bridge_se1_metal_flat_steel_01
0 -189 5 34 -1 0 0 9.011134 14.46689 1 0 1
0 -189 13 42 -1 0 0 9.011134 14.378502 1 0 1
0 -189 13 40 -1 0 0 9.000085 14.389551 1 0 1
bridge_se1_metal_flat_steel_01
0 -189 5 34 -1 0 0 9.011134 14.46689 1 0 1
0 -189 13 40 -1 0 0 9.000085 14.389551 1 0 1
0 -189 7 34 -1 0 0 9.000085 14.455841 1 0 1
bridge_se1_metal_flat_steel_01
0 190 5 42 1 0 0 9.055327 14.422696 1 0 1
0 190 5 34 1 0 0 9.011134 14.46689 1 0 1
0 190 7 34 1 0 0 9.000085 14.455841 1 0 1
bridge_se1_metal_flat_steel_01
0 190 5 42 1 0 0 9.055327 14.422696 1 0 1
0 190 7 34 1 0 0 9.000085 14.455841 1 0 1
0 190 13 40 1 0 0 9.000085 14.389551 1 0 1
bridge_se1_metal_flat_steel_01
0 190 5 42 1 0 0 9.055327 14.422696 1 0 1
0 190 13 40 1 0 0 9.000085 14.389551 1 0 1
0 190 13 42 1 0 0 9.011134 14.378502 1 0 1
bridge_se1_metal_flat_steel_01
0 190 5 34 0 0 -1 -43.330712 65.808735 1 0 1
0 -189 5 34 0 0 -1 -45.424391 67.902414 1 0 1
0 -189 7 34 0 0 -1 -45.435439 67.891366 1 0 1
bridge_se1_metal_flat_steel_01
0 190 5 34 0 0 -1 -43.330712 65.808735 1 0 1
0 -189 7 34 0 0 -1 -45.435439 67.891366 1 0 1
0 190 7 34 0 0 -1 -43.34176 65.797687 1 0 1
bridge_se1_metal_flat_steel_01
0 -189 7 34 0 0.707107 -0.707107 -80.03125 14.455841 1 0 1
0 -189 13 40 0 0.707107 -0.707107 -80.03125 14.389551 1 0 1
0 190 13 40 0 0.707107 -0.707107 -77.070312 14.389551 1 0 1
bridge_se1_metal_flat_steel_01
0 -189 7 34 0 0.707107 -0.707107 -80.03125 14.455841 1 0 1
0 190 13 40 0 0.707107 -0.707107 -77.070312 14.389551 1 0 1
0 190 7 34 0 0.707107 -0.707107 -77.070312 14.455841 1 0 1
bridge_se1_metal_flat_steel_01
0 190 119 40 0 -0.707107 -0.707107 8.414518 77.875 1 0 1
0 -189 119 40 0 -0.707107 -0.707107 8.414518 80.835938 1 0 1
0 -189 125 34 0 -0.707107 -0.707107 8.348227 80.835938 1 0 1
bridge_se1_metal_flat_steel_01
0 190 119 40 0 -0.707107 -0.707107 8.414518 77.875 1 0 1
0 -189 125 34 0 -0.707107 -0.707107 8.348227 80.835938 1 0 1
0 190 125 34 0 -0.707107 -0.707107 8.348227 77.875 1 0 1
bridge_se1_metal_flat_steel_01
0 190 119 42 0 -1 0 -2.570312 77.875 1 0 1
0 -189 119 42 0 -1 0 -2.570312 80.835938 1 0 1
0 -189 119 40 0 -1 0 -2.585938 80.835938 1 0 1
bridge_se1_metal_flat_steel_01
0 190 119 42 0 -1 0 -2.570312 77.875 1 0 1
0 -189 119 40 0 -1 0 -2.585938 80.835938 1 0 1
0 190 119 40 0 -1 0 -2.585938 77.875 1 0 1
bridge_se1_metal_flat_steel_01
0 -189 125 34 -1 0 0 8.348227 -12.163359 1 0 1
0 -189 119 40 -1 0 0 8.414518 -12.163359 1 0 1
0 -189 119 42 -1 0 0 8.425566 -12.15231 1 0 1
bridge_se1_metal_flat_steel_01
0 -189 125 34 -1 0 0 8.348227 -12.163359 1 0 1
0 -189 119 42 -1 0 0 8.425566 -12.15231 1 0 1
0 -189 127 42 -1 0 0 8.381373 -12.108116 1 0 1
bridge_se1_metal_flat_steel_01
0 -189 125 34 -1 0 0 8.348227 -12.163359 1 0 1
0 -189 127 42 -1 0 0 8.381373 -12.108116 1 0 1
0 -189 127 34 -1 0 0 8.337179 -12.15231 1 0 1
bridge_se1_metal_flat_steel_01
0 190 127 42 1 0 0 8.381373 13.748741 1 0 1
0 190 119 42 1 0 0 8.425566 13.792935 1 0 1
0 190 119 40 1 0 0 8.414518 13.803984 1 0 1
bridge_se1_metal_flat_steel_01
0 190 127 42 1 0 0 8.381373 13.748741 1 0 1
0 190 119 40 1 0 0 8.414518 13.803984 1 0 1
0 190 125 34 1 0 0 8.348227 13.803984 1 0 1
bridge_se1_metal_flat_steel_01
0 190 127 42 1 0 0 8.381373 13.748741 1 0 1
0 190 125 34 1 0 0 8.348227 13.803984 1 0 1
0 190 127 34 1 0 0 8.337179 13.792935 1 0 1
bridge_se1_metal_flat_steel_01
0 190 125 34 0 0 -1 15.347656 77.875 1 0 1
0 -189 125 34 0 0 -1 15.347656 80.835938 1 0 1
0 -189 127 34 0 0 -1 15.332031 80.835938 1 0 1
bridge_se1_metal_flat_steel_01
0 190 125 34 0 0 -1 15.347656 77.875 1 0 1
0 -189 127 34 0 0 -1 15.332031 80.835938 1 0 1
0 190 127 34 0 0 -1 15.332031 77.875 1 0 1
de_train_train_metalceiling_02
0 -87 130 29.835 0 1 0 78.953125 4.124336 1 0 1
0 -87 130 -34.162 0 1 0 78.953125 4.624312 1 0 1
0 -91 130 -34.162 0 1 0 78.984375 4.624313 1 0 1
de_train_train_metalceiling_02
0 -87 130 29.835 0 1 0 78.953125 4.124336 1 0 1
0 -91 130 -34.162 0 1 0 78.984375 4.624313 1 0 1
0 -91 130 29.835 0 1 0 78.984375 4.124336 1 0 1
de_train_train_metalceiling_02
0 -87 126 -34.162 0 -1 0 78.953125 4.624313 1 0 1
0 -87 126 29.835 0 -1 0 78.953125 4.124336 1 0 1
0 -91 126 29.835 0 -1 0 78.984375 4.124336 1 0 1
de_train_train_metalceiling_02
0 -87 126 -34.162 0 -1 0 78.953125 4.624313 1 0 1
0 -91 126 29.835 0 -1 0 78.984375 4.124336 1 0 1
0 -91 126 -34.162 0 -1 0 78.984375 4.624312 1 0 1
de_train_train_metalceiling_02
0 -91 126 -34.162 -1 0 0 -15.234375 -2.753219 1 0 1
0 -91 126 29.835 -1 0 0 -15.234375 -2.253242 1 0 1
0 -91 130 29.835 -1 0 0 -15.203125 -2.253242 1 0 1
de_train_train_metalceiling_02
0 -91 126 -34.162 -1 0 0 -15.234375 -2.753219 1 0 1
0 -91 130 29.835 -1 0 0 -15.203125 -2.253242 1 0 1
0 -91 130 -34.162 -1 0 0 -15.203125 -2.753219 1 0 1
de_train_train_metalceiling_02
0 -87 126 29.835 1 0 0 14.953125 4.124336 1 0 1
0 -87 126 -34.162 1 0 0 14.953125 4.624312 1 0 1
0 -87 130 -34.162 1 0 0 14.921875 4.624313 1 0 1
de_train_train_metalceiling_02
0 -87 126 29.835 1 0 0 14.953125 4.124336 1 0 1
0 -87 130 -34.162 1 0 0 14.921875 4.624313 1 0 1
0 -87 130 29.835 1 0 0 14.921875 4.124336 1 0 1
de_train_train_metalceiling_02
0 -87 126 -34.162 0 0 -1 -15.234375 80.677734 1 0 1
0 -91 126 -34.162 0 0 -1 -15.234375 80.708984 1 0 1
0 -91 130 -34.162 0 0 -1 -15.203125 80.708984 1 0 1
de_train_train_metalceiling_02
0 -87 126 -34.162 0 0 -1 -15.234375 80.677734 1 0 1
0 -91 130 -34.162 0 0 -1 -15.203125 80.708984 1 0 1
0 -87 130 -34.162 0 0 -1 -15.203125 80.677734 1 0 1
de_train_train_metalceiling_02
0 -91 126 29.835 0 0 1 -15.234375 80.708984 1 0 1
0 -87 126 29.835 0 0 1 -15.234375 80.677734 1 0 1
0 -87 130 29.835 0 0 1 -15.203125 80.677734 1 0 1
de_train_train_metalceiling_02
0 -91 126 29.835 0 0 1 -15.234375 80.708984 1 0 1
0 -87 130 29.835 0 0 1 -15.203125 80.677734 1 0 1
0 -91 130 29.835 0 0 1 -15.203125 80.708984 1 0 1
de_train_train_metalceiling_02
0 -31 130 -30.16 0 1 0 78.515625 4.593047 1 0 1
0 -31 130 -34.162 0 1 0 78.515625 4.624312 1 0 1
0 -87 130 -34.162 0 1 0 78.953125 4.624312 1 0 1
de_train_train_metalceiling_02
0 -31 130 -30.16 0 1 0 78.515625 4.593047 1 0 1
0 -87 130 -34.162 0 1 0 78.953125 4.624312 1 0 1
0 -87 130 -30.16 0 1 0 78.953125 4.593047 1 0 1
de_train_train_metalceiling_02
0 -31 126 -34.162 0 -1 0 78.515625 4.624312 1 0 1
0 -31 126 -30.16 0 -1 0 78.515625 4.593047 1 0 1
0 -87 126 -30.16 0 -1 0 78.953125 4.593047 1 0 1
de_train_train_metalceiling_02
0 -31 126 -34.162 0 -1 0 78.515625 4.624312 1 0 1
0 -87 126 -30.16 0 -1 0 78.953125 4.593047 1 0 1
0 -87 126 -34.162 0 -1 0 78.953125 4.624312 1 0 1
de_train_train_metalceiling_02
0 -31 126 -34.162 0 0 -1 -15.234375 -77.369141 1 0 1
0 -87 126 -34.162 0 0 -1 -15.234375 -77.806641 1 0 1
0 -87 130 -34.162 0 0 -1 -15.203125 -77.806641 1 0 1
de_train_train_metalceiling_02
0 -31 126 -34.162 0 0 -1 -15.234375 -77.369141 1 0 1
0 -87 130 -34.162 0 0 -1 -15.203125 -77.806641 1 0 1
0 -31 130 -34.162 0 0 -1 -15.203125 -77.369141 1 0 1
de_train_train_metalceiling_02
0 -87 126 -30.16 0 0 1 78.953125 15.59375 1 0 1
0 -31 126 -30.16 0 0 1 78.515625 15.59375 1 0 1
0 -31 130 -30.16 0 0 1 78.515625 15.5625 1 0 1
de_train_train_metalceiling_02
0 -87 126 -30.16 0 0 1 78.953125 15.59375 1 0 1
0 -31 130 -30.16 0 0 1 78.515625 15.5625 1 0 1
0 -87 130 -30.16 0 0 1 78.953125 15.5625 1 0 1
de_train_train_metalceiling_02
0 -27 130 29.835 0 1 0 78.484375 4.124336 1 0 1
0 -27 130 -34.162 0 1 0 78.484375 4.624312 1 0 1
0 -31 130 -34.162 0 1 0 78.515625 4.624313 1 0 1
de_train_train_metalceiling_02
0 -27 130 29.835 0 1 0 78.484375 4.124336 1 0 1
0 -31 130 -34.162 0 1 0 78.515625 4.624313 1 0 1
0 -31 130 29.835 0 1 0 78.515625 4.124336 1 0 1
de_train_train_metalceiling_02
0 -27 126 -34.162 0 -1 0 78.484375 4.624313 1 0 1
0 -27 126 29.835 0 -1 0 78.484375 4.124336 1 0 1
0 -31 126 29.835 0 -1 0 78.515625 4.124336 1 0 1
de_train_train_metalceiling_02
0 -27 126 -34.162 0 -1 0 78.484375 4.624313 1 0 1
0 -31 126 29.835 0 -1 0 78.515625 4.124336 1 0 1
0 -31 126 -34.162 0 -1 0 78.515625 4.624312 1 0 1
de_train_train_metalceiling_02
0 -31 126 -34.162 -1 0 0 -15.484375 4.624313 1 0 1
0 -31 126 29.835 -1 0 0 -15.484375 4.124336 1 0 1
0 -31 130 29.835 -1 0 0 -15.453125 4.124336 1 0 1
de_train_train_metalceiling_02
0 -31 126 -34.162 -1 0 0 -15.484375 4.624313 1 0 1
0 -31 130 29.835 -1 0 0 -15.453125 4.124336 1 0 1
0 -31 130 -34.162 -1 0 0 -15.453125 4.624312 1 0 1
de_train_train_metalceiling_02
0 -27 126 29.835 1 0 0 -15.234375 -2.253242 1 0 1
0 -27 126 -34.162 1 0 0 -15.234375 -2.753219 1 0 1
0 -27 130 -34.162 1 0 0 -15.203125 -2.753219 1 0 1
de_train_train_metalceiling_02
0 -27 126 29.835 1 0 0 -15.234375 -2.253242 1 0 1
0 -27 130 -34.162 1 0 0 -15.203125 -2.753219 1 0 1
0 -27 130 29.835 1 0 0 -15.203125 -2.253242 1 0 1
de_train_train_metalceiling_02
0 -27 126 -34.162 0 0 -1 -15.234375 80.208984 1 0 1
0 -31 126 -34.162 0 0 -1 -15.234375 80.240234 1 0 1
0 -31 130 -34.162 0 0 -1 -15.203125 80.240234 1 0 1
de_train_train_metalceiling_02
0 -27 126 -34.162 0 0 -1 -15.234375 80.208984 1 0 1
0 -31 130 -34.162 0 0 -1 -15.203125 80.240234 1 0 1
0 -27 130 -34.162 0 0 -1 -15.203125 80.208984 1 0 1
de_train_train_metalceiling_02
0 -31 126 29.835 0 0 1 -15.234375 80.240234 1 0 1
0 -27 126 29.835 0 0 1 -15.234375 80.208984 1 0 1
0 -27 130 29.835 0 0 1 -15.203125 80.208984 1 0 1
de_train_train_metalceiling_02
0 -31 126 29.835 0 0 1 -15.234375 80.240234 1 0 1
0 -27 130 29.835 0 0 1 -15.203125 80.208984 1 0 1
0 -31 130 29.835 0 0 1 -15.203125 80.240234 1 0 1
de_train_train_metalceiling_02
0 -31 130 29.835 0 1 0 78.515625 4.124336 1 0 1
0 -31 130 25.84 0 1 0 78.515625 4.155547 1 0 1
0 -87 130 25.84 0 1 0 78.953125 4.155547 1 0 1
de_train_train_metalceiling_02
0 -31 130 29.835 0 1 0 78.515625 4.124336 1 0 1
0 -87 130 25.84 0 1 0 78.953125 4.155547 1 0 1
0 -87 130 29.835 0 1 0 78.953125 4.124336 1 0 1
de_train_train_metalceiling_02
0 -31 126 25.84 0 -1 0 78.515625 4.155547 1 0 1
0 -31 126 29.835 0 -1 0 78.515625 4.124336 1 0 1
0 -87 126 29.835 0 -1 0 78.953125 4.124336 1 0 1
de_train_train_metalceiling_02
0 -31 126 25.84 0 -1 0 78.515625 4.155547 1 0 1
0 -87 126 29.835 0 -1 0 78.953125 4.124336 1 0 1
0 -87 126 25.84 0 -1 0 78.953125 4.155547 1 0 1
de_train_train_metalceiling_02
0 -31 126 25.84 0 0 -1 78.515625 -13.84375 1 0 1
0 -87 126 25.84 0 0 -1 78.953125 -13.84375 1 0 1
0 -87 130 25.84 0 0 -1 78.953125 -13.8125 1 0 1
de_train_train_metalceiling_02
0 -31 126 25.84 0 0 -1 78.515625 -13.84375 1 0 1
0 -87 130 25.84 0 0 -1 78.953125 -13.8125 1 0 1
0 -31 130 25.84 0 0 -1 78.515625 -13.8125 1 0 1
de_train_train_metalceiling_02
0 -87 126 29.835 0 0 1 -15.234375 80.677734 1 0 1
0 -31 126 29.835 0 0 1 -15.234375 80.240234 1 0 1
0 -31 130 29.835 0 0 1 -15.203125 80.240234 1 0 1
de_train_train_metalceiling_02
0 -87 126 29.835 0 0 1 -15.234375 80.677734 1 0 1
0 -31 130 29.835 0 0 1 -15.203125 80.240234 1 0 1
0 -87 130 29.835 0 0 1 -15.203125 80.677734 1 0 1
pepsi2_arch_concrete_stair01
0 72 132 105 0 1 0 79.398438 -1.257812 1 0 1
0 72 132 62 0 1 0 79.398438 -1.59375 1 0 1
0 66 132 62 0 1 0 79.445312 -1.59375 1 0 1
pepsi2_arch_concrete_stair01
0 72 132 105 0 1 0 79.398438 -1.257812 1 0 1
0 66 132 62 0 1 0 79.445312 -1.59375 1 0 1
0 66 132 105 0 1 0 79.445312 -1.257812 1 0 1
pepsi2_arch_concrete_stair01
0 72 126 62 0 -1 0 -77.539062 -1.59375 1 0 1
0 72 126 105 0 -1 0 -77.539062 -1.257812 1 0 1
0 66 126 105 0 -1 0 -77.585938 -1.257812 1 0 1
pepsi2_arch_concrete_stair01
0 72 126 62 0 -1 0 -77.539062 -1.59375 1 0 1
0 66 126 105 0 -1 0 -77.585938 -1.257812 1 0 1
0 66 126 62 0 -1 0 -77.585938 -1.59375 1 0 1
pepsi2_arch_concrete_stair01
0 66 126 62 -1 0 0 13.972656 -1.59375 1 0 1
0 66 126 105 -1 0 0 13.972656 -1.257812 1 0 1
0 66 132 105 -1 0 0 13.925781 -1.257812 1 0 1
pepsi2_arch_concrete_stair01
0 66 126 62 -1 0 0 13.972656 -1.59375 1 0 1
0 66 132 105 -1 0 0 13.925781 -1.257812 1 0 1
0 66 132 62 -1 0 0 13.925781 -1.59375 1 0 1
pepsi2_arch_concrete_stair01
0 72 126 105 1 0 0 -13.972656 -1.257812 1 0 1
0 72 126 62 1 0 0 -13.972656 -1.59375 1 0 1
0 72 132 62 1 0 0 -13.925781 -1.59375 1 0 1
pepsi2_arch_concrete_stair01
0 72 126 105 1 0 0 -13.972656 -1.257812 1 0 1
0 72 132 62 1 0 0 -13.925781 -1.59375 1 0 1
0 72 132 105 1 0 0 -13.925781 -1.257812 1 0 1
pepsi2_arch_concrete_stair01
0 66 126 105 0 0 1 13.972656 -78.445312 1 0 1
0 72 126 105 0 0 1 13.972656 -78.398438 1 0 1
0 72 132 105 0 0 1 13.925781 -78.398438 1 0 1
pepsi2_arch_concrete_stair01
0 66 126 105 0 0 1 13.972656 -78.445312 1 0 1
0 72 132 105 0 0 1 13.925781 -78.398438 1 0 1
0 66 132 105 0 0 1 13.925781 -78.445312 1 0 1
end
