version 1
nodes
0 "root" -1
end
skeleton
time 0
0 0 0 0 0 0 0
end
triangles
pepsi2_arch_stairs01
0 -21 -72 108 -1 0 0 35.300781 -29 1 0 1
0 -21 -72 117 -1 0 0 35.300781 -28.71875 1 0 1
0 -21 72 117 -1 0 0 33.050781 -28.71875 1 0 1
pepsi2_arch_stairs01
0 -21 -72 108 -1 0 0 35.300781 -29 1 0 1
0 -21 72 117 -1 0 0 33.050781 -28.71875 1 0 1
0 -21 72 108 -1 0 0 33.050781 -29 1 0 1
pepsi2_arch_stairs01
0 -21 -72 117 0 0 1 35.300781 -357.71875 1 0 1
0 -6 -72 117 0 0 1 35.300781 -357.25 1 0 1
0 -6 72 117 0 0 1 33.050781 -357.25 1 0 1
pepsi2_arch_stairs01
0 -21 -72 117 0 0 1 35.300781 -357.71875 1 0 1
0 -6 72 117 0 0 1 33.050781 -357.25 1 0 1
0 -21 72 117 0 0 1 33.050781 -357.71875 1 0 1
pepsi2_arch_stairs01
0 -6 72 126 -1 0 0 33.050781 -27.71875 1 0 1
0 -6 72 117 -1 0 0 33.050781 -28 1 0 1
0 -6 -72 117 -1 0 0 35.300781 -28 1 0 1
pepsi2_arch_stairs01
0 -6 72 126 -1 0 0 33.050781 -27.71875 1 0 1
0 -6 -72 117 -1 0 0 35.300781 -28 1 0 1
0 -6 -72 126 -1 0 0 35.300781 -27.71875 1 0 1
pepsi2_arch_stairs01
0 -6 -72 126 0 0 1 35.300781 -357.71875 1 0 1
0 9 -72 126 0 0 1 35.300781 -357.25 1 0 1
0 9 72 126 0 0 1 33.050781 -357.25 1 0 1
pepsi2_arch_stairs01
0 -6 -72 126 0 0 1 35.300781 -357.71875 1 0 1
0 9 72 126 0 0 1 33.050781 -357.25 1 0 1
0 -6 72 126 0 0 1 33.050781 -357.71875 1 0 1
pepsi2_arch_stairs01
0 -111 -72 54 -1 0 0 35.300781 -30 1 0 1
0 -111 -72 63 -1 0 0 35.300781 -29.71875 1 0 1
0 -111 72 63 -1 0 0 33.050781 -29.71875 1 0 1
pepsi2_arch_stairs01
0 -111 -72 54 -1 0 0 35.300781 -30 1 0 1
0 -111 72 63 -1 0 0 33.050781 -29.71875 1 0 1
0 -111 72 54 -1 0 0 33.050781 -30 1 0 1
pepsi2_arch_stairs01
0 -111 -72 63 0 0 1 35.300781 -360.71875 1 0 1
0 -96 -72 63 0 0 1 35.300781 -360.25 1 0 1
0 -96 72 63 0 0 1 33.050781 -360.25 1 0 1
pepsi2_arch_stairs01
0 -111 -72 63 0 0 1 35.300781 -360.71875 1 0 1
0 -96 72 63 0 0 1 33.050781 -360.25 1 0 1
0 -111 72 63 0 0 1 33.050781 -360.71875 1 0 1
pepsi2_arch_stairs01
0 -96 -72 63 -1 0 0 35.300781 -30 1 0 1
0 -96 -72 72 -1 0 0 35.300781 -29.71875 1 0 1
0 -96 72 72 -1 0 0 33.050781 -29.71875 1 0 1
pepsi2_arch_stairs01
0 -96 -72 63 -1 0 0 35.300781 -30 1 0 1
0 -96 72 72 -1 0 0 33.050781 -29.71875 1 0 1
0 -96 72 63 -1 0 0 33.050781 -30 1 0 1
pepsi2_arch_stairs01
0 -96 -72 72 0 0 1 35.300781 -360.71875 1 0 1
0 -81 -72 72 0 0 1 35.300781 -360.25 1 0 1
0 -81 72 72 0 0 1 33.050781 -360.25 1 0 1
pepsi2_arch_stairs01
0 -96 -72 72 0 0 1 35.300781 -360.71875 1 0 1
0 -81 72 72 0 0 1 33.050781 -360.25 1 0 1
0 -96 72 72 0 0 1 33.050781 -360.71875 1 0 1
pepsi2_arch_stairs01
0 183 72 153 -1 0 0 33.050781 -26.71875 1 0 1
0 183 72 143.996 -1 0 0 33.050781 -27.000125 1 0 1
0 183 -72 143.996 -1 0 0 35.300781 -27.000125 1 0 1
pepsi2_arch_stairs01
0 183 72 153 -1 0 0 33.050781 -26.71875 1 0 1
0 183 -72 143.996 -1 0 0 35.300781 -27.000125 1 0 1
0 183 -72 153 -1 0 0 35.300781 -26.71875 1 0 1
pepsi2_arch_stairs01
0 183 -72 153 0 0 1 35.300781 -351.71875 1 0 1
0 198 -72 153 0 0 1 35.300781 -351.25 1 0 1
0 198 72 153 0 0 1 33.050781 -351.25 1 0 1
pepsi2_arch_stairs01
0 183 -72 153 0 0 1 35.300781 -351.71875 1 0 1
0 198 72 153 0 0 1 33.050781 -351.25 1 0 1
0 183 72 153 0 0 1 33.050781 -351.71875 1 0 1
pepsi2_arch_stairs01
0 -51 72 99 -1 0 0 33.050781 -28.71875 1 0 1
0 -51 72 90 -1 0 0 33.050781 -29 1 0 1
0 -51 -72 90 -1 0 0 35.300781 -29 1 0 1
pepsi2_arch_stairs01
0 -51 72 99 -1 0 0 33.050781 -28.71875 1 0 1
0 -51 -72 90 -1 0 0 35.300781 -29 1 0 1
0 -51 -72 99 -1 0 0 35.300781 -28.71875 1 0 1
pepsi2_arch_stairs01
0 -51 -72 99 0 0 1 35.300781 -358.71875 1 0 1
0 -36 -72 99 0 0 1 35.300781 -358.25 1 0 1
0 -36 72 99 0 0 1 33.050781 -358.25 1 0 1
pepsi2_arch_stairs01
0 -51 -72 99 0 0 1 35.300781 -358.71875 1 0 1
0 -36 72 99 0 0 1 33.050781 -358.25 1 0 1
0 -51 72 99 0 0 1 33.050781 -358.71875 1 0 1
pepsi2_arch_stairs01
0 -36 -72 99 -1 0 0 35.300781 -29 1 0 1
0 -36 -72 108 -1 0 0 35.300781 -28.71875 1 0 1
0 -36 72 108 -1 0 0 33.050781 -28.71875 1 0 1
pepsi2_arch_stairs01
0 -36 -72 99 -1 0 0 35.300781 -29 1 0 1
0 -36 72 108 -1 0 0 33.050781 -28.71875 1 0 1
0 -36 72 99 -1 0 0 33.050781 -29 1 0 1
pepsi2_arch_stairs01
0 -36 -72 108 0 0 1 35.300781 -358.71875 1 0 1
0 -21 -72 108 0 0 1 35.300781 -358.25 1 0 1
0 -21 72 108 0 0 1 33.050781 -358.25 1 0 1
pepsi2_arch_stairs01
0 -36 -72 108 0 0 1 35.300781 -358.71875 1 0 1
0 -21 72 108 0 0 1 33.050781 -358.25 1 0 1
0 -36 72 108 0 0 1 33.050781 -358.71875 1 0 1
bridge_se1_metal_flat_steel_01
0 -213 -60 144 -1 0 0 -18.367188 -5.244141 1 0 1
0 -213 -60 156 -1 0 0 -18.367188 -5.150391 1 0 1
0 -213 60 156 -1 0 0 -17.429688 -5.150391 1 0 1
bridge_se1_metal_flat_steel_01
0 -213 -60 144 -1 0 0 -18.367188 -5.244141 1 0 1
0 -213 60 156 -1 0 0 -17.429688 -5.150391 1 0 1
0 -213 60 144 -1 0 0 -17.429688 -5.244141 1 0 1
bridge_se1_metal_flat_steel_01
0 -201 -60 156 1 0 0 -18.367188 -5.150391 1 0 1
0 -201 -60 144 1 0 0 -18.367188 -5.244141 1 0 1
0 -201 60 144 1 0 0 -17.429688 -5.244141 1 0 1
bridge_se1_metal_flat_steel_01
0 -201 -60 156 1 0 0 -18.367188 -5.150391 1 0 1
0 -201 60 144 1 0 0 -17.429688 -5.244141 1 0 1
0 -201 60 156 1 0 0 -17.429688 -5.150391 1 0 1
bridge_se1_metal_flat_steel_01
0 -201 -60 144 0 0 -1 -18.367188 -90.001953 1 0 1
0 -213 -60 144 0 0 -1 -18.367188 -90.095703 1 0 1
0 -213 60 144 0 0 -1 -17.429688 -90.095703 1 0 1
bridge_se1_metal_flat_steel_01
0 -201 -60 144 0 0 -1 -18.367188 -90.001953 1 0 1
0 -213 60 144 0 0 -1 -17.429688 -90.095703 1 0 1
0 -201 60 144 0 0 -1 -17.429688 -90.001953 1 0 1
pepsi2_arch_stairs01
0 -66 -72 81 -1 0 0 35.300781 -29 1 0 1
0 -66 -72 90 -1 0 0 35.300781 -28.71875 1 0 1
0 -66 72 90 -1 0 0 33.050781 -28.71875 1 0 1
pepsi2_arch_stairs01
0 -66 -72 81 -1 0 0 35.300781 -29 1 0 1
0 -66 72 90 -1 0 0 33.050781 -28.71875 1 0 1
0 -66 72 81 -1 0 0 33.050781 -29 1 0 1
pepsi2_arch_stairs01
0 -66 -72 90 0 0 1 35.300781 -359.71875 1 0 1
0 -51 -72 90 0 0 1 35.300781 -359.25 1 0 1
0 -51 72 90 0 0 1 33.050781 -359.25 1 0 1
pepsi2_arch_stairs01
0 -66 -72 90 0 0 1 35.300781 -359.71875 1 0 1
0 -51 72 90 0 0 1 33.050781 -359.25 1 0 1
0 -66 72 90 0 0 1 33.050781 -359.71875 1 0 1
bridge_se1_metal_flat_steel_01
0 -201 -60 156 0 1 0 90.390625 -5.150391 1 0 1
0 -201 -60 0 0 1 0 90.390625 -6.369141 1 0 1
0 -213 -60 0 0 1 0 90.484375 -6.369141 1 0 1
bridge_se1_metal_flat_steel_01
0 -201 -60 156 0 1 0 90.390625 -5.150391 1 0 1
0 -213 -60 0 0 1 0 90.484375 -6.369141 1 0 1
0 -213 -60 156 0 1 0 90.484375 -5.150391 1 0 1
bridge_se1_metal_flat_steel_01
0 -213 -72 0 -1 0 0 -18.460938 -6.369141 1 0 1
0 -213 -72 156 -1 0 0 -18.460938 -5.150391 1 0 1
0 -213 -60 156 -1 0 0 -18.367188 -5.150391 1 0 1
bridge_se1_metal_flat_steel_01
0 -213 -72 0 -1 0 0 -18.460938 -6.369141 1 0 1
0 -213 -60 156 -1 0 0 -18.367188 -5.150391 1 0 1
0 -213 -60 0 -1 0 0 -18.367188 -6.369141 1 0 1
bridge_se1_metal_flat_steel_01
0 -201 -72 156 1 0 0 -18.460938 -5.150391 1 0 1
0 -201 -72 0 1 0 0 -18.460938 -6.369141 1 0 1
0 -201 -60 0 1 0 0 -18.367188 -6.369141 1 0 1
bridge_se1_metal_flat_steel_01
0 -201 -72 156 1 0 0 -18.460938 -5.150391 1 0 1
0 -201 -60 0 1 0 0 -18.367188 -6.369141 1 0 1
0 -201 -60 156 1 0 0 -18.367188 -5.150391 1 0 1
pepsi2_arch_stairs01
0 168 -72 134.996 -1 0 0 35.300781 -27.000125 1 0 1
0 168 -72 144 -1 0 0 35.300781 -26.71875 1 0 1
0 168 72 144 -1 0 0 33.050781 -26.71875 1 0 1
pepsi2_arch_stairs01
0 168 -72 134.996 -1 0 0 35.300781 -27.000125 1 0 1
0 168 72 144 -1 0 0 33.050781 -26.71875 1 0 1
0 168 72 134.996 -1 0 0 33.050781 -27.000125 1 0 1
pepsi2_arch_stairs01
0 168 -72 144 0 0 1 35.300781 -351.71875 1 0 1
0 183 -72 144 0 0 1 35.300781 -351.25 1 0 1
0 183 72 144 0 0 1 33.050781 -351.25 1 0 1
pepsi2_arch_stairs01
0 168 -72 144 0 0 1 35.300781 -351.71875 1 0 1
0 183 72 144 0 0 1 33.050781 -351.25 1 0 1
0 168 72 144 0 0 1 33.050781 -351.71875 1 0 1
pepsi2_arch_stairs01
0 -156 -72 27 -1 0 0 35.300781 -31 1 0 1
0 -156 -72 36 -1 0 0 35.300781 -30.71875 1 0 1
0 -156 72 36 -1 0 0 33.050781 -30.71875 1 0 1
pepsi2_arch_stairs01
0 -156 -72 27 -1 0 0 35.300781 -31 1 0 1
0 -156 72 36 -1 0 0 33.050781 -30.71875 1 0 1
0 -156 72 27 -1 0 0 33.050781 -31 1 0 1
pepsi2_arch_stairs01
0 -156 -72 36 0 0 1 35.300781 -361.71875 1 0 1
0 -141 -72 36 0 0 1 35.300781 -361.25 1 0 1
0 -141 72 36 0 0 1 33.050781 -361.25 1 0 1
pepsi2_arch_stairs01
0 -156 -72 36 0 0 1 35.300781 -361.71875 1 0 1
0 -141 72 36 0 0 1 33.050781 -361.25 1 0 1
0 -156 72 36 0 0 1 33.050781 -361.71875 1 0 1
pepsi2_arch_stairs01
0 198 -72 152.996 -1 0 0 35.300781 -27.000125 1 0 1
0 198 -72 162 -1 0 0 35.300781 -26.71875 1 0 1
0 198 72 162 -1 0 0 33.050781 -26.71875 1 0 1
pepsi2_arch_stairs01
0 198 -72 152.996 -1 0 0 35.300781 -27.000125 1 0 1
0 198 72 162 -1 0 0 33.050781 -26.71875 1 0 1
0 198 72 152.996 -1 0 0 33.050781 -27.000125 1 0 1
pepsi2_arch_stairs01
0 198 -72 162 0 0 1 35.300781 -350.71875 1 0 1
0 213 -72 162 0 0 1 35.300781 -350.25 1 0 1
0 213 72 162 0 0 1 33.050781 -350.25 1 0 1
pepsi2_arch_stairs01
0 198 -72 162 0 0 1 35.300781 -350.71875 1 0 1
0 213 72 162 0 0 1 33.050781 -350.25 1 0 1
0 198 72 162 0 0 1 33.050781 -350.71875 1 0 1
pepsi2_arch_stairs01
0 9 -72 126 -1 0 0 35.300781 -28 1 0 1
0 9 -72 135 -1 0 0 35.300781 -27.71875 1 0 1
0 9 72 135 -1 0 0 33.050781 -27.71875 1 0 1
pepsi2_arch_stairs01
0 9 -72 126 -1 0 0 35.300781 -28 1 0 1
0 9 72 135 -1 0 0 33.050781 -27.71875 1 0 1
0 9 72 126 -1 0 0 33.050781 -28 1 0 1
pepsi2_arch_stairs01
0 9 -72 135 0 0 1 35.300781 -356.71875 1 0 1
0 24 -72 135 0 0 1 35.300781 -356.25 1 0 1
0 24 72 135 0 0 1 33.050781 -356.25 1 0 1
pepsi2_arch_stairs01
0 9 -72 135 0 0 1 35.300781 -356.71875 1 0 1
0 24 72 135 0 0 1 33.050781 -356.25 1 0 1
0 9 72 135 0 0 1 33.050781 -356.71875 1 0 1
pepsi2_arch_stairs01
0 -141 -72 45 0 0 1 35.300781 -361.71875 1 0 1
0 -126 -72 45 0 0 1 35.300781 -361.25 1 0 1
0 -126 72 45 0 0 1 33.050781 -361.25 1 0 1
pepsi2_arch_stairs01
0 -141 -72 45 0 0 1 35.300781 -361.71875 1 0 1
0 -126 72 45 0 0 1 33.050781 -361.25 1 0 1
0 -141 72 45 0 0 1 33.050781 -361.71875 1 0 1
pepsi2_arch_stairs01
0 -141 -72 45 -1 0 0 35.300781 -30.71875 1 0 1
0 -141 72 45 -1 0 0 33.050781 -30.71875 1 0 1
0 -141 72 36 -1 0 0 33.050781 -31 1 0 1
pepsi2_arch_stairs01
0 -141 -72 45 -1 0 0 35.300781 -30.71875 1 0 1
0 -141 72 36 -1 0 0 33.050781 -31 1 0 1
0 -141 -72 36 -1 0 0 35.300781 -31 1 0 1
pepsi2_arch_stairs01
0 -81 -72 81 0 0 1 35.300781 -359.71875 1 0 1
0 -66 -72 81 0 0 1 35.300781 -359.25 1 0 1
0 -66 72 81 0 0 1 33.050781 -359.25 1 0 1
pepsi2_arch_stairs01
0 -81 -72 81 0 0 1 35.300781 -359.71875 1 0 1
0 -66 72 81 0 0 1 33.050781 -359.25 1 0 1
0 -81 72 81 0 0 1 33.050781 -359.71875 1 0 1
pepsi2_arch_stairs01
0 -81 -72 81 -1 0 0 35.300781 -29.71875 1 0 1
0 -81 72 81 -1 0 0 33.050781 -29.71875 1 0 1
0 -81 72 72 -1 0 0 33.050781 -30 1 0 1
pepsi2_arch_stairs01
0 -81 -72 81 -1 0 0 35.300781 -29.71875 1 0 1
0 -81 72 72 -1 0 0 33.050781 -30 1 0 1
0 -81 -72 72 -1 0 0 35.300781 -30 1 0 1
bridge_se1_metal_flat_steel_01
0 -201 60 0 0 -1 0 -91.1875 -6.369141 1 0 1
0 -201 60 156 0 -1 0 -91.1875 -5.150391 1 0 1
0 -213 60 156 0 -1 0 -91.28125 -5.150391 1 0 1
bridge_se1_metal_flat_steel_01
0 -201 60 0 0 -1 0 -91.1875 -6.369141 1 0 1
0 -213 60 156 0 -1 0 -91.28125 -5.150391 1 0 1
0 -213 60 0 0 -1 0 -91.28125 -6.369141 1 0 1
bridge_se1_metal_flat_steel_01
0 -213 60 0 -1 0 0 -17.429688 -6.369141 1 0 1
0 -213 60 156 -1 0 0 -17.429688 -5.150391 1 0 1
0 -213 72 156 -1 0 0 -17.335938 -5.150391 1 0 1
bridge_se1_metal_flat_steel_01
0 -213 60 0 -1 0 0 -17.429688 -6.369141 1 0 1
0 -213 72 156 -1 0 0 -17.335938 -5.150391 1 0 1
0 -213 72 0 -1 0 0 -17.335938 -6.369141 1 0 1
bridge_se1_metal_flat_steel_01
0 -201 72 0 1 0 0 -17.335938 -6.369141 1 0 1
0 -201 72 156 1 0 0 -17.335938 -5.150391 1 0 1
0 -201 60 156 1 0 0 -17.429688 -5.150391 1 0 1
bridge_se1_metal_flat_steel_01
0 -201 72 0 1 0 0 -17.335938 -6.369141 1 0 1
0 -201 60 156 1 0 0 -17.429688 -5.150391 1 0 1
0 -201 60 0 1 0 0 -17.429688 -6.369141 1 0 1
pepsi2_arch_stairs01
0 -126 -72 54 0 0 1 35.300781 -360.71875 1 0 1
0 -111 -72 54 0 0 1 35.300781 -360.25 1 0 1
0 -111 72 54 0 0 1 33.050781 -360.25 1 0 1
pepsi2_arch_stairs01
0 -126 -72 54 0 0 1 35.300781 -360.71875 1 0 1
0 -111 72 54 0 0 1 33.050781 -360.25 1 0 1
0 -126 72 54 0 0 1 33.050781 -360.71875 1 0 1
pepsi2_arch_stairs01
0 -126 -72 54 -1 0 0 35.300781 -30.71875 1 0 1
0 -126 72 54 -1 0 0 33.050781 -30.71875 1 0 1
0 -126 72 45 -1 0 0 33.050781 -31 1 0 1
pepsi2_arch_stairs01
0 -126 -72 54 -1 0 0 35.300781 -30.71875 1 0 1
0 -126 72 45 -1 0 0 33.050781 -31 1 0 1
0 -126 -72 45 -1 0 0 35.300781 -31 1 0 1
end
