version 1
nodes
0 "root" -1
end
skeleton
time 0
0 0 0 0 0 0 0
end
triangles
phys
0 -130 -63 92 0 0 1 1 0 1 0 1
0 -226 -63 92 0 0 1 1 0 1 0 1
0 -230 -63 96 0 0 1 1 0 1 0 1
phys
0 -130 -63 92 0 0 1 1 0 1 0 1
0 -230 -63 96 0 0 1 1 0 1 0 1
0 -126 -63 96 0 0 1 1 0 1 0 1
phys
0 -126 -79 96 0 0 1 1 0 1 0 1
0 -230 -79 96 0 0 1 1 0 1 0 1
0 -226 -79 92 0 0 1 1 0 1 0 1
phys
0 -126 -79 96 0 0 1 1 0 1 0 1
0 -226 -79 92 0 0 1 1 0 1 0 1
0 -130 -79 92 0 0 1 1 0 1 0 1
phys
0 -130 -79 92 0 0 1 1 0 1 0 1
0 -226 -79 92 0 0 1 1 0 1 0 1
0 -226 -63 92 0 0 1 1 0 1 0 1
phys
0 -130 -79 92 0 0 1 1 0 1 0 1
0 -226 -63 92 0 0 1 1 0 1 0 1
0 -130 -63 92 0 0 1 1 0 1 0 1
phys
0 -230 -79 96 0 0 1 1 0 1 0 1
0 -126 -79 96 0 0 1 1 0 1 0 1
0 -126 -63 96 0 0 1 1 0 1 0 1
phys
0 -230 -79 96 0 0 1 1 0 1 0 1
0 -126 -63 96 0 0 1 1 0 1 0 1
0 -230 -63 96 0 0 1 1 0 1 0 1
phys
0 -126 -79 96 0 0 1 1 0 1 0 1
0 -130 -79 92 0 0 1 1 0 1 0 1
0 -130 -63 92 0 0 1 1 0 1 0 1
phys
0 -126 -79 96 0 0 1 1 0 1 0 1
0 -130 -63 92 0 0 1 1 0 1 0 1
0 -126 -63 96 0 0 1 1 0 1 0 1
phys
0 -226 -79 92 0 0 1 1 0 1 0 1
0 -230 -79 96 0 0 1 1 0 1 0 1
0 -230 -63 96 0 0 1 1 0 1 0 1
phys
0 -226 -79 92 0 0 1 1 0 1 0 1
0 -230 -63 96 0 0 1 1 0 1 0 1
0 -226 -63 92 0 0 1 1 0 1 0 1
phys
0 76 -63 140 0 0 1 2 0 1 0 1
0 76 -63 16 0 0 1 2 0 1 0 1
0 64 -63 16 0 0 1 2 0 1 0 1
phys
0 76 -63 140 0 0 1 2 0 1 0 1
0 64 -63 16 0 0 1 2 0 1 0 1
0 64 -63 140 0 0 1 2 0 1 0 1
phys
0 76 -79 16 0 0 1 2 0 1 0 1
0 76 -79 140 0 0 1 2 0 1 0 1
0 64 -79 140 0 0 1 2 0 1 0 1
phys
0 76 -79 16 0 0 1 2 0 1 0 1
0 64 -79 140 0 0 1 2 0 1 0 1
0 64 -79 16 0 0 1 2 0 1 0 1
phys
0 64 -79 16 0 0 1 2 0 1 0 1
0 64 -79 140 0 0 1 2 0 1 0 1
0 64 -63 140 0 0 1 2 0 1 0 1
phys
0 64 -79 16 0 0 1 2 0 1 0 1
0 64 -63 140 0 0 1 2 0 1 0 1
0 64 -63 16 0 0 1 2 0 1 0 1
phys
0 76 -79 140 0 0 1 2 0 1 0 1
0 76 -79 16 0 0 1 2 0 1 0 1
0 76 -63 16 0 0 1 2 0 1 0 1
phys
0 76 -79 140 0 0 1 2 0 1 0 1
0 76 -63 16 0 0 1 2 0 1 0 1
0 76 -63 140 0 0 1 2 0 1 0 1
phys
0 76 -79 16 0 0 1 2 0 1 0 1
0 64 -79 16 0 0 1 2 0 1 0 1
0 64 -63 16 0 0 1 2 0 1 0 1
phys
0 76 -79 16 0 0 1 2 0 1 0 1
0 64 -63 16 0 0 1 2 0 1 0 1
0 76 -63 16 0 0 1 2 0 1 0 1
phys
0 64 -79 140 0 0 1 2 0 1 0 1
0 76 -79 140 0 0 1 2 0 1 0 1
0 76 -63 140 0 0 1 2 0 1 0 1
phys
0 64 -79 140 0 0 1 2 0 1 0 1
0 76 -63 140 0 0 1 2 0 1 0 1
0 64 -63 140 0 0 1 2 0 1 0 1
phys
0 76 -91 4 0 0 1 3 0 1 0 1
0 76 -91 16 0 0 1 3 0 1 0 1
0 -76 -91 16 0 0 1 3 0 1 0 1
phys
0 76 -91 4 0 0 1 3 0 1 0 1
0 -76 -91 16 0 0 1 3 0 1 0 1
0 -76 -91 4 0 0 1 3 0 1 0 1
phys
0 -76 -91 4 0 0 1 3 0 1 0 1
0 -76 -91 16 0 0 1 3 0 1 0 1
0 -76 -79 16 0 0 1 3 0 1 0 1
phys
0 -76 -91 4 0 0 1 3 0 1 0 1
0 -76 -79 16 0 0 1 3 0 1 0 1
0 -76 -79 4 0 0 1 3 0 1 0 1
phys
0 76 -91 16 0 0 1 3 0 1 0 1
0 76 -91 4 0 0 1 3 0 1 0 1
0 76 -79 4 0 0 1 3 0 1 0 1
phys
0 76 -91 16 0 0 1 3 0 1 0 1
0 76 -79 4 0 0 1 3 0 1 0 1
0 76 -79 16 0 0 1 3 0 1 0 1
phys
0 76 -91 4 0 0 1 3 0 1 0 1
0 -76 -91 4 0 0 1 3 0 1 0 1
0 -76 -79 4 0 0 1 3 0 1 0 1
phys
0 76 -91 4 0 0 1 3 0 1 0 1
0 -76 -79 4 0 0 1 3 0 1 0 1
0 76 -79 4 0 0 1 3 0 1 0 1
phys
0 -76 -91 16 0 0 1 3 0 1 0 1
0 76 -91 16 0 0 1 3 0 1 0 1
0 76 -79 16 0 0 1 3 0 1 0 1
phys
0 -76 -91 16 0 0 1 3 0 1 0 1
0 76 -79 16 0 0 1 3 0 1 0 1
0 -76 -79 16 0 0 1 3 0 1 0 1
phys
0 76 -79 16 0 0 1 3 0 1 0 1
0 76 -79 4 0 0 1 3 0 1 0 1
0 -76 -79 4 0 0 1 3 0 1 0 1
phys
0 76 -79 16 0 0 1 3 0 1 0 1
0 -76 -79 4 0 0 1 3 0 1 0 1
0 -76 -79 16 0 0 1 3 0 1 0 1
phys
0 -160 133 16 0 0 1 4 0 1 0 1
0 -160 133 -16 0 0 1 4 0 1 0 1
0 -184 157 -16 0 0 1 4 0 1 0 1
phys
0 -160 133 16 0 0 1 4 0 1 0 1
0 -184 157 -16 0 0 1 4 0 1 0 1
0 -184 157 16 0 0 1 4 0 1 0 1
phys
0 -184 157 16 0 0 1 4 0 1 0 1
0 -184 157 -16 0 0 1 4 0 1 0 1
0 -231 157 -16 0 0 1 4 0 1 0 1
phys
0 -184 157 16 0 0 1 4 0 1 0 1
0 -231 157 -16 0 0 1 4 0 1 0 1
0 -231 157 16 0 0 1 4 0 1 0 1
phys
0 -160 133 -16 0 0 1 4 0 1 0 1
0 -160 133 16 0 0 1 4 0 1 0 1
0 -231 133 16 0 0 1 4 0 1 0 1
phys
0 -160 133 -16 0 0 1 4 0 1 0 1
0 -231 133 16 0 0 1 4 0 1 0 1
0 -231 133 -16 0 0 1 4 0 1 0 1
phys
0 -231 133 -16 0 0 1 4 0 1 0 1
0 -231 133 16 0 0 1 4 0 1 0 1
0 -231 157 16 0 0 1 4 0 1 0 1
phys
0 -231 133 -16 0 0 1 4 0 1 0 1
0 -231 157 16 0 0 1 4 0 1 0 1
0 -231 157 -16 0 0 1 4 0 1 0 1
phys
0 -231 157 -16 0 0 1 4 0 1 0 1
0 -184 157 -16 0 0 1 4 0 1 0 1
0 -160 133 -16 0 0 1 4 0 1 0 1
phys
0 -231 157 -16 0 0 1 4 0 1 0 1
0 -160 133 -16 0 0 1 4 0 1 0 1
0 -231 133 -16 0 0 1 4 0 1 0 1
phys
0 -231 133 16 0 0 1 4 0 1 0 1
0 -160 133 16 0 0 1 4 0 1 0 1
0 -184 157 16 0 0 1 4 0 1 0 1
phys
0 -231 133 16 0 0 1 4 0 1 0 1
0 -184 157 16 0 0 1 4 0 1 0 1
0 -231 157 16 0 0 1 4 0 1 0 1
phys
0 -275 225 115.999 0 0 1 5 0 1 0 1
0 -275 225 180 0 0 1 5 0 1 0 1
0 -211 225 180 0 0 1 5 0 1 0 1
phys
0 -211 209 180 0 0 1 5 0 1 0 1
0 -275 209 180 0 0 1 5 0 1 0 1
0 -275 209 115.999 0 0 1 5 0 1 0 1
phys
0 -275 209 115.999 0 0 1 5 0 1 0 1
0 -275 209 180 0 0 1 5 0 1 0 1
0 -275 225 180 0 0 1 5 0 1 0 1
phys
0 -275 209 115.999 0 0 1 5 0 1 0 1
0 -275 225 180 0 0 1 5 0 1 0 1
0 -275 225 115.999 0 0 1 5 0 1 0 1
phys
0 -275 209 180 0 0 1 5 0 1 0 1
0 -211 209 180 0 0 1 5 0 1 0 1
0 -211 225 180 0 0 1 5 0 1 0 1
phys
0 -275 209 180 0 0 1 5 0 1 0 1
0 -211 225 180 0 0 1 5 0 1 0 1
0 -275 225 180 0 0 1 5 0 1 0 1
phys
0 -211 209 180 0 0 1 5 0 1 0 1
0 -275 209 115.999 0 0 1 5 0 1 0 1
0 -275 225 115.999 0 0 1 5 0 1 0 1
phys
0 -211 209 180 0 0 1 5 0 1 0 1
0 -275 225 115.999 0 0 1 5 0 1 0 1
0 -211 225 180 0 0 1 5 0 1 0 1
phys
0 -64 -63 140 0 0 1 6 0 1 0 1
0 -64 -63 16 0 0 1 6 0 1 0 1
0 -76 -63 16 0 0 1 6 0 1 0 1
phys
0 -64 -63 140 0 0 1 6 0 1 0 1
0 -76 -63 16 0 0 1 6 0 1 0 1
0 -76 -63 140 0 0 1 6 0 1 0 1
phys
0 -64 -79 16 0 0 1 6 0 1 0 1
0 -64 -79 140 0 0 1 6 0 1 0 1
0 -76 -79 140 0 0 1 6 0 1 0 1
phys
0 -64 -79 16 0 0 1 6 0 1 0 1
0 -76 -79 140 0 0 1 6 0 1 0 1
0 -76 -79 16 0 0 1 6 0 1 0 1
phys
0 -76 -79 16 0 0 1 6 0 1 0 1
0 -76 -79 140 0 0 1 6 0 1 0 1
0 -76 -63 140 0 0 1 6 0 1 0 1
phys
0 -76 -79 16 0 0 1 6 0 1 0 1
0 -76 -63 140 0 0 1 6 0 1 0 1
0 -76 -63 16 0 0 1 6 0 1 0 1
phys
0 -64 -79 140 0 0 1 6 0 1 0 1
0 -64 -79 16 0 0 1 6 0 1 0 1
0 -64 -63 16 0 0 1 6 0 1 0 1
phys
0 -64 -79 140 0 0 1 6 0 1 0 1
0 -64 -63 16 0 0 1 6 0 1 0 1
0 -64 -63 140 0 0 1 6 0 1 0 1
phys
0 -64 -79 16 0 0 1 6 0 1 0 1
0 -76 -79 16 0 0 1 6 0 1 0 1
0 -76 -63 16 0 0 1 6 0 1 0 1
phys
0 -64 -79 16 0 0 1 6 0 1 0 1
0 -76 -63 16 0 0 1 6 0 1 0 1
0 -64 -63 16 0 0 1 6 0 1 0 1
phys
0 -76 -79 140 0 0 1 6 0 1 0 1
0 -64 -79 140 0 0 1 6 0 1 0 1
0 -64 -63 140 0 0 1 6 0 1 0 1
phys
0 -76 -79 140 0 0 1 6 0 1 0 1
0 -64 -63 140 0 0 1 6 0 1 0 1
0 -76 -63 140 0 0 1 6 0 1 0 1
phys
0 99 -81 156.021 0 0 1 7 0 1 0 1
0 107 -81 156.021 0 0 1 7 0 1 0 1
0 107 -79 156.021 0 0 1 7 0 1 0 1
phys
0 99 -81 156.021 0 0 1 7 0 1 0 1
0 107 -79 156.021 0 0 1 7 0 1 0 1
0 99 -79 156.021 0 0 1 7 0 1 0 1
phys
0 99 -79 84.025 0 0 1 7 0 1 0 1
0 99 -79 156.021 0 0 1 7 0 1 0 1
0 107 -79 156.021 0 0 1 7 0 1 0 1
phys
0 99 -79 84.025 0 0 1 7 0 1 0 1
0 107 -79 156.021 0 0 1 7 0 1 0 1
0 107 -79 84.025 0 0 1 7 0 1 0 1
phys
0 107 -81 84.025 0 0 1 7 0 1 0 1
0 107 -81 156.021 0 0 1 7 0 1 0 1
0 99 -81 156.021 0 0 1 7 0 1 0 1
phys
0 107 -81 84.025 0 0 1 7 0 1 0 1
0 99 -81 156.021 0 0 1 7 0 1 0 1
0 99 -81 84.025 0 0 1 7 0 1 0 1
phys
0 99 -81 84.025 0 0 1 7 0 1 0 1
0 99 -81 156.021 0 0 1 7 0 1 0 1
0 99 -79 156.021 0 0 1 7 0 1 0 1
phys
0 99 -81 84.025 0 0 1 7 0 1 0 1
0 99 -79 156.021 0 0 1 7 0 1 0 1
0 99 -79 84.025 0 0 1 7 0 1 0 1
phys
0 107 -79 84.025 0 0 1 7 0 1 0 1
0 107 -79 156.021 0 0 1 7 0 1 0 1
0 107 -81 156.021 0 0 1 7 0 1 0 1
phys
0 107 -79 84.025 0 0 1 7 0 1 0 1
0 107 -81 156.021 0 0 1 7 0 1 0 1
0 107 -81 84.025 0 0 1 7 0 1 0 1
phys
0 107 -81 84.025 0 0 1 7 0 1 0 1
0 99 -81 84.025 0 0 1 7 0 1 0 1
0 99 -79 84.025 0 0 1 7 0 1 0 1
phys
0 107 -81 84.025 0 0 1 7 0 1 0 1
0 99 -79 84.025 0 0 1 7 0 1 0 1
0 107 -79 84.025 0 0 1 7 0 1 0 1
phys
0 -130 -79 91.999 0 0 1 8 0 1 0 1
0 -130 -63 91.999 0 0 1 8 0 1 0 1
0 -130 -63 -16 0 0 1 8 0 1 0 1
phys
0 -130 -79 91.999 0 0 1 8 0 1 0 1
0 -130 -63 -16 0 0 1 8 0 1 0 1
0 -130 -79 -16 0 0 1 8 0 1 0 1
phys
0 -126 -79 -16 0 0 1 8 0 1 0 1
0 -126 -63 -16 0 0 1 8 0 1 0 1
0 -126 -63 95.999 0 0 1 8 0 1 0 1
phys
0 -126 -79 -16 0 0 1 8 0 1 0 1
0 -126 -63 95.999 0 0 1 8 0 1 0 1
0 -126 -79 95.999 0 0 1 8 0 1 0 1
phys
0 -130 -79 -16 0 0 1 8 0 1 0 1
0 -130 -63 -16 0 0 1 8 0 1 0 1
0 -126 -63 -16 0 0 1 8 0 1 0 1
phys
0 -130 -79 -16 0 0 1 8 0 1 0 1
0 -126 -63 -16 0 0 1 8 0 1 0 1
0 -126 -79 -16 0 0 1 8 0 1 0 1
phys
0 -126 -79 95.999 0 0 1 8 0 1 0 1
0 -126 -63 95.999 0 0 1 8 0 1 0 1
0 -130 -63 91.999 0 0 1 8 0 1 0 1
phys
0 -126 -79 95.999 0 0 1 8 0 1 0 1
0 -130 -63 91.999 0 0 1 8 0 1 0 1
0 -130 -79 91.999 0 0 1 8 0 1 0 1
phys
0 -126 -63 95.999 0 0 1 8 0 1 0 1
0 -126 -63 -16 0 0 1 8 0 1 0 1
0 -130 -63 -16 0 0 1 8 0 1 0 1
phys
0 -126 -63 95.999 0 0 1 8 0 1 0 1
0 -130 -63 -16 0 0 1 8 0 1 0 1
0 -130 -63 91.999 0 0 1 8 0 1 0 1
phys
0 -126 -79 -16 0 0 1 8 0 1 0 1
0 -126 -79 95.999 0 0 1 8 0 1 0 1
0 -130 -79 91.999 0 0 1 8 0 1 0 1
phys
0 -126 -79 -16 0 0 1 8 0 1 0 1
0 -130 -79 91.999 0 0 1 8 0 1 0 1
0 -130 -79 -16 0 0 1 8 0 1 0 1
phys
0 76 -63 152 0 0 1 9 0 1 0 1
0 76 -63 140 0 0 1 9 0 1 0 1
0 -76 -63 140 0 0 1 9 0 1 0 1
phys
0 76 -63 152 0 0 1 9 0 1 0 1
0 -76 -63 140 0 0 1 9 0 1 0 1
0 -76 -63 152 0 0 1 9 0 1 0 1
phys
0 76 -79 140 0 0 1 9 0 1 0 1
0 76 -79 152 0 0 1 9 0 1 0 1
0 -76 -79 152 0 0 1 9 0 1 0 1
phys
0 76 -79 140 0 0 1 9 0 1 0 1
0 -76 -79 152 0 0 1 9 0 1 0 1
0 -76 -79 140 0 0 1 9 0 1 0 1
phys
0 -76 -79 140 0 0 1 9 0 1 0 1
0 -76 -79 152 0 0 1 9 0 1 0 1
0 -76 -63 152 0 0 1 9 0 1 0 1
phys
0 -76 -79 140 0 0 1 9 0 1 0 1
0 -76 -63 152 0 0 1 9 0 1 0 1
0 -76 -63 140 0 0 1 9 0 1 0 1
phys
0 76 -79 152 0 0 1 9 0 1 0 1
0 76 -79 140 0 0 1 9 0 1 0 1
0 76 -63 140 0 0 1 9 0 1 0 1
phys
0 76 -79 152 0 0 1 9 0 1 0 1
0 76 -63 140 0 0 1 9 0 1 0 1
0 76 -63 152 0 0 1 9 0 1 0 1
phys
0 76 -79 140 0 0 1 9 0 1 0 1
0 -76 -79 140 0 0 1 9 0 1 0 1
0 -76 -63 140 0 0 1 9 0 1 0 1
phys
0 76 -79 140 0 0 1 9 0 1 0 1
0 -76 -63 140 0 0 1 9 0 1 0 1
0 76 -63 140 0 0 1 9 0 1 0 1
phys
0 -76 -79 152 0 0 1 9 0 1 0 1
0 76 -79 152 0 0 1 9 0 1 0 1
0 76 -63 152 0 0 1 9 0 1 0 1
phys
0 -76 -79 152 0 0 1 9 0 1 0 1
0 76 -63 152 0 0 1 9 0 1 0 1
0 -76 -63 152 0 0 1 9 0 1 0 1
phys
0 -226 -79 -16 0 0 1 10 0 1 0 1
0 -226 -63 -16 0 0 1 10 0 1 0 1
0 -226 -63 92.001 0 0 1 10 0 1 0 1
phys
0 -226 -79 -16 0 0 1 10 0 1 0 1
0 -226 -63 92.001 0 0 1 10 0 1 0 1
0 -226 -79 92.001 0 0 1 10 0 1 0 1
phys
0 -230 -63 -16 0 0 1 10 0 1 0 1
0 -226 -63 -16 0 0 1 10 0 1 0 1
0 -226 -79 -16 0 0 1 10 0 1 0 1
phys
0 -230 -63 -16 0 0 1 10 0 1 0 1
0 -226 -79 -16 0 0 1 10 0 1 0 1
0 -230 -79 -16 0 0 1 10 0 1 0 1
phys
0 -230 -79 96.001 0 0 1 10 0 1 0 1
0 -226 -79 92.001 0 0 1 10 0 1 0 1
0 -226 -63 92.001 0 0 1 10 0 1 0 1
phys
0 -230 -79 96.001 0 0 1 10 0 1 0 1
0 -226 -63 92.001 0 0 1 10 0 1 0 1
0 -230 -63 96.001 0 0 1 10 0 1 0 1
phys
0 -230 -63 96.001 0 0 1 10 0 1 0 1
0 -226 -63 92.001 0 0 1 10 0 1 0 1
0 -226 -63 -16 0 0 1 10 0 1 0 1
phys
0 -230 -63 96.001 0 0 1 10 0 1 0 1
0 -226 -63 -16 0 0 1 10 0 1 0 1
0 -230 -63 -16 0 0 1 10 0 1 0 1
phys
0 -226 -79 -16 0 0 1 10 0 1 0 1
0 -226 -79 92.001 0 0 1 10 0 1 0 1
0 -230 -79 96.001 0 0 1 10 0 1 0 1
phys
0 -226 -79 -16 0 0 1 10 0 1 0 1
0 -230 -79 96.001 0 0 1 10 0 1 0 1
0 -230 -79 -16 0 0 1 10 0 1 0 1
phys
0 -230 -79 96.001 0 0 1 10 0 1 0 1
0 -230 -63 96.001 0 0 1 10 0 1 0 1
0 -230 -63 -16 0 0 1 10 0 1 0 1
phys
0 -230 -79 96.001 0 0 1 10 0 1 0 1
0 -230 -63 -16 0 0 1 10 0 1 0 1
0 -230 -79 -16 0 0 1 10 0 1 0 1
phys
0 275 -79 164.021 0 0 1 11 0 1 0 1
0 275 -79 156.021 0 0 1 11 0 1 0 1
0 99 -79 156.021 0 0 1 11 0 1 0 1
phys
0 275 -79 164.021 0 0 1 11 0 1 0 1
0 99 -79 156.021 0 0 1 11 0 1 0 1
0 99 -79 164.021 0 0 1 11 0 1 0 1
phys
0 275 -81 156.021 0 0 1 11 0 1 0 1
0 275 -81 164.021 0 0 1 11 0 1 0 1
0 99 -81 164.021 0 0 1 11 0 1 0 1
phys
0 275 -81 156.021 0 0 1 11 0 1 0 1
0 99 -81 164.021 0 0 1 11 0 1 0 1
0 99 -81 156.021 0 0 1 11 0 1 0 1
phys
0 99 -81 156.021 0 0 1 11 0 1 0 1
0 99 -81 164.021 0 0 1 11 0 1 0 1
0 99 -79 164.021 0 0 1 11 0 1 0 1
phys
0 99 -81 156.021 0 0 1 11 0 1 0 1
0 99 -79 164.021 0 0 1 11 0 1 0 1
0 99 -79 156.021 0 0 1 11 0 1 0 1
phys
0 275 -81 164.021 0 0 1 11 0 1 0 1
0 275 -81 156.021 0 0 1 11 0 1 0 1
0 275 -79 156.021 0 0 1 11 0 1 0 1
phys
0 275 -81 164.021 0 0 1 11 0 1 0 1
0 275 -79 156.021 0 0 1 11 0 1 0 1
0 275 -79 164.021 0 0 1 11 0 1 0 1
phys
0 275 -81 156.021 0 0 1 11 0 1 0 1
0 99 -81 156.021 0 0 1 11 0 1 0 1
0 99 -79 156.021 0 0 1 11 0 1 0 1
phys
0 275 -81 156.021 0 0 1 11 0 1 0 1
0 99 -79 156.021 0 0 1 11 0 1 0 1
0 275 -79 156.021 0 0 1 11 0 1 0 1
phys
0 99 -81 164.021 0 0 1 11 0 1 0 1
0 275 -81 164.021 0 0 1 11 0 1 0 1
0 275 -79 164.021 0 0 1 11 0 1 0 1
phys
0 99 -81 164.021 0 0 1 11 0 1 0 1
0 275 -79 164.021 0 0 1 11 0 1 0 1
0 99 -79 164.021 0 0 1 11 0 1 0 1
phys
0 -211 9 180 0 0 1 12 0 1 0 1
0 -275 9 180 0 0 1 12 0 1 0 1
0 -275 9 115.999 0 0 1 12 0 1 0 1
phys
0 -275 9 115.999 0 0 1 12 0 1 0 1
0 -275 9 180 0 0 1 12 0 1 0 1
0 -275 25 180 0 0 1 12 0 1 0 1
phys
0 -275 9 115.999 0 0 1 12 0 1 0 1
0 -275 25 180 0 0 1 12 0 1 0 1
0 -275 25 115.999 0 0 1 12 0 1 0 1
phys
0 -275 9 180 0 0 1 12 0 1 0 1
0 -211 9 180 0 0 1 12 0 1 0 1
0 -211 25 180 0 0 1 12 0 1 0 1
phys
0 -275 9 180 0 0 1 12 0 1 0 1
0 -211 25 180 0 0 1 12 0 1 0 1
0 -275 25 180 0 0 1 12 0 1 0 1
phys
0 -211 9 180 0 0 1 12 0 1 0 1
0 -275 9 115.999 0 0 1 12 0 1 0 1
0 -275 25 115.999 0 0 1 12 0 1 0 1
phys
0 -211 9 180 0 0 1 12 0 1 0 1
0 -275 25 115.999 0 0 1 12 0 1 0 1
0 -211 25 180 0 0 1 12 0 1 0 1
phys
0 -275 25 115.999 0 0 1 12 0 1 0 1
0 -275 25 180 0 0 1 12 0 1 0 1
0 -211 25 180 0 0 1 12 0 1 0 1
phys
0 -160 157 16 0 0 1 13 0 1 0 1
0 -231 157 16 0 0 1 13 0 1 0 1
0 -231 157 19 0 0 1 13 0 1 0 1
phys
0 -160 157 16 0 0 1 13 0 1 0 1
0 -231 157 19 0 0 1 13 0 1 0 1
0 -157 157 19 0 0 1 13 0 1 0 1
phys
0 -157 133 19 0 0 1 13 0 1 0 1
0 -231 133 19 0 0 1 13 0 1 0 1
0 -231 133 16 0 0 1 13 0 1 0 1
phys
0 -157 133 19 0 0 1 13 0 1 0 1
0 -231 133 16 0 0 1 13 0 1 0 1
0 -160 133 16 0 0 1 13 0 1 0 1
phys
0 -231 133 16 0 0 1 13 0 1 0 1
0 -231 133 19 0 0 1 13 0 1 0 1
0 -231 157 19 0 0 1 13 0 1 0 1
phys
0 -231 133 16 0 0 1 13 0 1 0 1
0 -231 157 19 0 0 1 13 0 1 0 1
0 -231 157 16 0 0 1 13 0 1 0 1
phys
0 -160 133 16 0 0 1 13 0 1 0 1
0 -231 133 16 0 0 1 13 0 1 0 1
0 -231 157 16 0 0 1 13 0 1 0 1
phys
0 -160 133 16 0 0 1 13 0 1 0 1
0 -231 157 16 0 0 1 13 0 1 0 1
0 -160 157 16 0 0 1 13 0 1 0 1
phys
0 -231 133 19 0 0 1 13 0 1 0 1
0 -157 133 19 0 0 1 13 0 1 0 1
0 -157 157 19 0 0 1 13 0 1 0 1
phys
0 -231 133 19 0 0 1 13 0 1 0 1
0 -157 157 19 0 0 1 13 0 1 0 1
0 -231 157 19 0 0 1 13 0 1 0 1
phys
0 -157 133 19 0 0 1 13 0 1 0 1
0 -160 133 16 0 0 1 13 0 1 0 1
0 -160 157 16 0 0 1 13 0 1 0 1
phys
0 -157 133 19 0 0 1 13 0 1 0 1
0 -160 157 16 0 0 1 13 0 1 0 1
0 -157 157 19 0 0 1 13 0 1 0 1
phys
0 275 -79 84.025 0 0 1 14 0 1 0 1
0 275 -79 76.021 0 0 1 14 0 1 0 1
0 99 -79 76.021 0 0 1 14 0 1 0 1
phys
0 275 -79 84.025 0 0 1 14 0 1 0 1
0 99 -79 76.021 0 0 1 14 0 1 0 1
0 99 -79 84.025 0 0 1 14 0 1 0 1
phys
0 275 -81 76.021 0 0 1 14 0 1 0 1
0 275 -81 84.025 0 0 1 14 0 1 0 1
0 99 -81 84.025 0 0 1 14 0 1 0 1
phys
0 275 -81 76.021 0 0 1 14 0 1 0 1
0 99 -81 84.025 0 0 1 14 0 1 0 1
0 99 -81 76.021 0 0 1 14 0 1 0 1
phys
0 99 -81 76.021 0 0 1 14 0 1 0 1
0 99 -81 84.025 0 0 1 14 0 1 0 1
0 99 -79 84.025 0 0 1 14 0 1 0 1
phys
0 99 -81 76.021 0 0 1 14 0 1 0 1
0 99 -79 84.025 0 0 1 14 0 1 0 1
0 99 -79 76.021 0 0 1 14 0 1 0 1
phys
0 275 -81 84.025 0 0 1 14 0 1 0 1
0 275 -81 76.021 0 0 1 14 0 1 0 1
0 275 -79 76.021 0 0 1 14 0 1 0 1
phys
0 275 -81 84.025 0 0 1 14 0 1 0 1
0 275 -79 76.021 0 0 1 14 0 1 0 1
0 275 -79 84.025 0 0 1 14 0 1 0 1
phys
0 275 -81 76.021 0 0 1 14 0 1 0 1
0 99 -81 76.021 0 0 1 14 0 1 0 1
0 99 -79 76.021 0 0 1 14 0 1 0 1
phys
0 275 -81 76.021 0 0 1 14 0 1 0 1
0 99 -79 76.021 0 0 1 14 0 1 0 1
0 275 -79 76.021 0 0 1 14 0 1 0 1
phys
0 99 -81 84.025 0 0 1 14 0 1 0 1
0 275 -81 84.025 0 0 1 14 0 1 0 1
0 275 -79 84.025 0 0 1 14 0 1 0 1
phys
0 99 -81 84.025 0 0 1 14 0 1 0 1
0 275 -79 84.025 0 0 1 14 0 1 0 1
0 99 -79 84.025 0 0 1 14 0 1 0 1
phys
0 -77 -63 16 0 0 1 15 0 1 0 1
0 76 -63 16 0 0 1 15 0 1 0 1
0 76 63 -16 0 0 1 15 0 1 0 1
phys
0 -77 -63 16 0 0 1 15 0 1 0 1
0 76 63 -16 0 0 1 15 0 1 0 1
0 -77 63 -16 0 0 1 15 0 1 0 1
phys
0 76 -63 -16 0 0 1 15 0 1 0 1
0 76 -63 16 0 0 1 15 0 1 0 1
0 -77 -63 16 0 0 1 15 0 1 0 1
phys
0 76 -63 -16 0 0 1 15 0 1 0 1
0 -77 -63 16 0 0 1 15 0 1 0 1
0 -77 -63 -16 0 0 1 15 0 1 0 1
phys
0 -77 -63 -16 0 0 1 15 0 1 0 1
0 -77 -63 16 0 0 1 15 0 1 0 1
0 -77 63 -16 0 0 1 15 0 1 0 1
phys
0 76 63 -16 0 0 1 15 0 1 0 1
0 76 -63 16 0 0 1 15 0 1 0 1
0 76 -63 -16 0 0 1 15 0 1 0 1
phys
0 76 -63 -16 0 0 1 15 0 1 0 1
0 -77 -63 -16 0 0 1 15 0 1 0 1
0 -77 63 -16 0 0 1 15 0 1 0 1
phys
0 76 -63 -16 0 0 1 15 0 1 0 1
0 -77 63 -16 0 0 1 15 0 1 0 1
0 76 63 -16 0 0 1 15 0 1 0 1
phys
0 267 -81 84.025 0 0 1 16 0 1 0 1
0 267 -79 84.025 0 0 1 16 0 1 0 1
0 267 -79 156.021 0 0 1 16 0 1 0 1
phys
0 267 -81 84.025 0 0 1 16 0 1 0 1
0 267 -79 156.021 0 0 1 16 0 1 0 1
0 267 -81 156.021 0 0 1 16 0 1 0 1
phys
0 107 -79 84.025 0 0 1 16 0 1 0 1
0 267 -79 84.025 0 0 1 16 0 1 0 1
0 267 -81 84.025 0 0 1 16 0 1 0 1
phys
0 107 -79 84.025 0 0 1 16 0 1 0 1
0 267 -81 84.025 0 0 1 16 0 1 0 1
0 107 -81 84.025 0 0 1 16 0 1 0 1
phys
0 107 -81 156.021 0 0 1 16 0 1 0 1
0 267 -81 156.021 0 0 1 16 0 1 0 1
0 267 -79 156.021 0 0 1 16 0 1 0 1
phys
0 107 -81 156.021 0 0 1 16 0 1 0 1
0 267 -79 156.021 0 0 1 16 0 1 0 1
0 107 -79 156.021 0 0 1 16 0 1 0 1
phys
0 267 -79 156.021 0 0 1 16 0 1 0 1
0 267 -79 84.025 0 0 1 16 0 1 0 1
0 107 -79 84.025 0 0 1 16 0 1 0 1
phys
0 267 -79 156.021 0 0 1 16 0 1 0 1
0 107 -79 84.025 0 0 1 16 0 1 0 1
0 107 -79 156.021 0 0 1 16 0 1 0 1
phys
0 267 -81 84.025 0 0 1 16 0 1 0 1
0 267 -81 156.021 0 0 1 16 0 1 0 1
0 107 -81 156.021 0 0 1 16 0 1 0 1
phys
0 267 -81 84.025 0 0 1 16 0 1 0 1
0 107 -81 156.021 0 0 1 16 0 1 0 1
0 107 -81 84.025 0 0 1 16 0 1 0 1
phys
0 107 -81 156.021 0 0 1 16 0 1 0 1
0 107 -79 156.021 0 0 1 16 0 1 0 1
0 107 -79 84.025 0 0 1 16 0 1 0 1
phys
0 107 -81 156.021 0 0 1 16 0 1 0 1
0 107 -79 84.025 0 0 1 16 0 1 0 1
0 107 -81 84.025 0 0 1 16 0 1 0 1
end
