version 1
nodes
0 "root" -1
end
skeleton
time 0
0 0 0 0 0 0 0
end
triangles
phys
0 -109 -50 130 0 0 1 1 0 1 0 1
0 -109 -50 128 0 0 1 1 0 1 0 1
0 -288 -50 128 0 0 1 1 0 1 0 1
phys
0 -109 -50 130 0 0 1 1 0 1 0 1
0 -288 -50 128 0 0 1 1 0 1 0 1
0 -288 -50 130 0 0 1 1 0 1 0 1
phys
0 -109 -58 128 0 0 1 1 0 1 0 1
0 -109 -58 130 0 0 1 1 0 1 0 1
0 -288 -58 130 0 0 1 1 0 1 0 1
phys
0 -109 -58 128 0 0 1 1 0 1 0 1
0 -288 -58 130 0 0 1 1 0 1 0 1
0 -288 -58 128 0 0 1 1 0 1 0 1
phys
0 -288 -58 128 0 0 1 1 0 1 0 1
0 -288 -58 130 0 0 1 1 0 1 0 1
0 -288 -50 130 0 0 1 1 0 1 0 1
phys
0 -288 -58 128 0 0 1 1 0 1 0 1
0 -288 -50 130 0 0 1 1 0 1 0 1
0 -288 -50 128 0 0 1 1 0 1 0 1
phys
0 -109 -58 130 0 0 1 1 0 1 0 1
0 -109 -58 128 0 0 1 1 0 1 0 1
0 -109 -50 128 0 0 1 1 0 1 0 1
phys
0 -109 -58 130 0 0 1 1 0 1 0 1
0 -109 -50 128 0 0 1 1 0 1 0 1
0 -109 -50 130 0 0 1 1 0 1 0 1
phys
0 -109 -58 128 0 0 1 1 0 1 0 1
0 -288 -58 128 0 0 1 1 0 1 0 1
0 -288 -50 128 0 0 1 1 0 1 0 1
phys
0 -109 -58 128 0 0 1 1 0 1 0 1
0 -288 -50 128 0 0 1 1 0 1 0 1
0 -109 -50 128 0 0 1 1 0 1 0 1
phys
0 -288 -58 130 0 0 1 1 0 1 0 1
0 -109 -58 130 0 0 1 1 0 1 0 1
0 -109 -50 130 0 0 1 1 0 1 0 1
phys
0 -288 -58 130 0 0 1 1 0 1 0 1
0 -109 -50 130 0 0 1 1 0 1 0 1
0 -288 -50 130 0 0 1 1 0 1 0 1
phys
0 201 -50 245 0 0 1 2 0 1 0 1
0 201 -50 130 0 0 1 2 0 1 0 1
0 199 -50 130 0 0 1 2 0 1 0 1
phys
0 201 -50 245 0 0 1 2 0 1 0 1
0 199 -50 130 0 0 1 2 0 1 0 1
0 199 -50 245 0 0 1 2 0 1 0 1
phys
0 201 -58 130 0 0 1 2 0 1 0 1
0 201 -58 245 0 0 1 2 0 1 0 1
0 199 -58 245 0 0 1 2 0 1 0 1
phys
0 201 -58 130 0 0 1 2 0 1 0 1
0 199 -58 245 0 0 1 2 0 1 0 1
0 199 -58 130 0 0 1 2 0 1 0 1
phys
0 199 -58 130 0 0 1 2 0 1 0 1
0 199 -58 245 0 0 1 2 0 1 0 1
0 199 -50 245 0 0 1 2 0 1 0 1
phys
0 199 -58 130 0 0 1 2 0 1 0 1
0 199 -50 245 0 0 1 2 0 1 0 1
0 199 -50 130 0 0 1 2 0 1 0 1
phys
0 201 -58 245 0 0 1 2 0 1 0 1
0 201 -58 130 0 0 1 2 0 1 0 1
0 201 -50 130 0 0 1 2 0 1 0 1
phys
0 201 -58 245 0 0 1 2 0 1 0 1
0 201 -50 130 0 0 1 2 0 1 0 1
0 201 -50 245 0 0 1 2 0 1 0 1
phys
0 201 -58 130 0 0 1 2 0 1 0 1
0 199 -58 130 0 0 1 2 0 1 0 1
0 199 -50 130 0 0 1 2 0 1 0 1
phys
0 201 -58 130 0 0 1 2 0 1 0 1
0 199 -50 130 0 0 1 2 0 1 0 1
0 201 -50 130 0 0 1 2 0 1 0 1
phys
0 199 -58 245 0 0 1 2 0 1 0 1
0 201 -58 245 0 0 1 2 0 1 0 1
0 201 -50 245 0 0 1 2 0 1 0 1
phys
0 199 -58 245 0 0 1 2 0 1 0 1
0 201 -50 245 0 0 1 2 0 1 0 1
0 199 -50 245 0 0 1 2 0 1 0 1
phys
0 201 -58 162 0 0 1 3 0 1 0 1
0 287 -58 162 0 0 1 3 0 1 0 1
0 287 -50 162 0 0 1 3 0 1 0 1
phys
0 201 -58 162 0 0 1 3 0 1 0 1
0 287 -50 162 0 0 1 3 0 1 0 1
0 201 -50 162 0 0 1 3 0 1 0 1
phys
0 201 -50 160 0 0 1 3 0 1 0 1
0 201 -50 162 0 0 1 3 0 1 0 1
0 287 -50 162 0 0 1 3 0 1 0 1
phys
0 201 -50 160 0 0 1 3 0 1 0 1
0 287 -50 162 0 0 1 3 0 1 0 1
0 287 -50 160 0 0 1 3 0 1 0 1
phys
0 287 -58 160 0 0 1 3 0 1 0 1
0 287 -58 162 0 0 1 3 0 1 0 1
0 201 -58 162 0 0 1 3 0 1 0 1
phys
0 287 -58 160 0 0 1 3 0 1 0 1
0 201 -58 162 0 0 1 3 0 1 0 1
0 201 -58 160 0 0 1 3 0 1 0 1
phys
0 201 -58 160 0 0 1 3 0 1 0 1
0 201 -58 162 0 0 1 3 0 1 0 1
0 201 -50 162 0 0 1 3 0 1 0 1
phys
0 201 -58 160 0 0 1 3 0 1 0 1
0 201 -50 162 0 0 1 3 0 1 0 1
0 201 -50 160 0 0 1 3 0 1 0 1
phys
0 287 -50 160 0 0 1 3 0 1 0 1
0 287 -50 162 0 0 1 3 0 1 0 1
0 287 -58 162 0 0 1 3 0 1 0 1
phys
0 287 -50 160 0 0 1 3 0 1 0 1
0 287 -58 162 0 0 1 3 0 1 0 1
0 287 -58 160 0 0 1 3 0 1 0 1
phys
0 287 -58 160 0 0 1 3 0 1 0 1
0 201 -58 160 0 0 1 3 0 1 0 1
0 201 -50 160 0 0 1 3 0 1 0 1
phys
0 287 -58 160 0 0 1 3 0 1 0 1
0 201 -50 160 0 0 1 3 0 1 0 1
0 287 -50 160 0 0 1 3 0 1 0 1
phys
0 50 -58 43 0 0 1 4 0 1 0 1
0 56 -58 43 0 0 1 4 0 1 0 1
0 56 -52 43 0 0 1 4 0 1 0 1
phys
0 50 -58 43 0 0 1 4 0 1 0 1
0 56 -52 43 0 0 1 4 0 1 0 1
0 50 -52 43 0 0 1 4 0 1 0 1
phys
0 50 -52 0 0 0 1 4 0 1 0 1
0 50 -52 43 0 0 1 4 0 1 0 1
0 56 -52 43 0 0 1 4 0 1 0 1
phys
0 50 -52 0 0 0 1 4 0 1 0 1
0 56 -52 43 0 0 1 4 0 1 0 1
0 56 -52 0 0 0 1 4 0 1 0 1
phys
0 56 -58 0 0 0 1 4 0 1 0 1
0 56 -58 43 0 0 1 4 0 1 0 1
0 50 -58 43 0 0 1 4 0 1 0 1
phys
0 56 -58 0 0 0 1 4 0 1 0 1
0 50 -58 43 0 0 1 4 0 1 0 1
0 50 -58 0 0 0 1 4 0 1 0 1
phys
0 50 -58 0 0 0 1 4 0 1 0 1
0 50 -58 43 0 0 1 4 0 1 0 1
0 50 -52 43 0 0 1 4 0 1 0 1
phys
0 50 -58 0 0 0 1 4 0 1 0 1
0 50 -52 43 0 0 1 4 0 1 0 1
0 50 -52 0 0 0 1 4 0 1 0 1
phys
0 56 -52 0 0 0 1 4 0 1 0 1
0 56 -52 43 0 0 1 4 0 1 0 1
0 56 -58 43 0 0 1 4 0 1 0 1
phys
0 56 -52 0 0 0 1 4 0 1 0 1
0 56 -58 43 0 0 1 4 0 1 0 1
0 56 -58 0 0 0 1 4 0 1 0 1
phys
0 56 -58 0 0 0 1 4 0 1 0 1
0 50 -58 0 0 0 1 4 0 1 0 1
0 50 -52 0 0 0 1 4 0 1 0 1
phys
0 56 -58 0 0 0 1 4 0 1 0 1
0 50 -52 0 0 0 1 4 0 1 0 1
0 56 -52 0 0 0 1 4 0 1 0 1
phys
0 -111 -55 130 0 0 1 5 0 1 0 1
0 -111 -55 245 0 0 1 5 0 1 0 1
0 -286 -55 245 0 0 1 5 0 1 0 1
phys
0 -111 -55 130 0 0 1 5 0 1 0 1
0 -286 -55 245 0 0 1 5 0 1 0 1
0 -286 -55 130 0 0 1 5 0 1 0 1
phys
0 -286 -55 130 0 0 1 5 0 1 0 1
0 -286 -55 245 0 0 1 5 0 1 0 1
0 -286 -53 245 0 0 1 5 0 1 0 1
phys
0 -286 -55 130 0 0 1 5 0 1 0 1
0 -286 -53 245 0 0 1 5 0 1 0 1
0 -286 -53 130 0 0 1 5 0 1 0 1
phys
0 -111 -55 245 0 0 1 5 0 1 0 1
0 -111 -55 130 0 0 1 5 0 1 0 1
0 -111 -53 130 0 0 1 5 0 1 0 1
phys
0 -111 -55 245 0 0 1 5 0 1 0 1
0 -111 -53 130 0 0 1 5 0 1 0 1
0 -111 -53 245 0 0 1 5 0 1 0 1
phys
0 -111 -55 130 0 0 1 5 0 1 0 1
0 -286 -55 130 0 0 1 5 0 1 0 1
0 -286 -53 130 0 0 1 5 0 1 0 1
phys
0 -111 -55 130 0 0 1 5 0 1 0 1
0 -286 -53 130 0 0 1 5 0 1 0 1
0 -111 -53 130 0 0 1 5 0 1 0 1
phys
0 -286 -55 245 0 0 1 5 0 1 0 1
0 -111 -55 245 0 0 1 5 0 1 0 1
0 -111 -53 245 0 0 1 5 0 1 0 1
phys
0 -286 -55 245 0 0 1 5 0 1 0 1
0 -111 -53 245 0 0 1 5 0 1 0 1
0 -286 -53 245 0 0 1 5 0 1 0 1
phys
0 -111 -53 245 0 0 1 5 0 1 0 1
0 -111 -53 130 0 0 1 5 0 1 0 1
0 -286 -53 130 0 0 1 5 0 1 0 1
phys
0 -111 -53 245 0 0 1 5 0 1 0 1
0 -286 -53 130 0 0 1 5 0 1 0 1
0 -286 -53 245 0 0 1 5 0 1 0 1
phys
0 189 2 112 0 0 1 6 0 1 0 1
0 189 58 112 0 0 1 6 0 1 0 1
0 189 54 108 0 0 1 6 0 1 0 1
phys
0 189 2 112 0 0 1 6 0 1 0 1
0 189 54 108 0 0 1 6 0 1 0 1
0 189 6 108 0 0 1 6 0 1 0 1
phys
0 199 6 108 0 0 1 6 0 1 0 1
0 199 54 108 0 0 1 6 0 1 0 1
0 199 58 112 0 0 1 6 0 1 0 1
phys
0 199 6 108 0 0 1 6 0 1 0 1
0 199 58 112 0 0 1 6 0 1 0 1
0 199 2 112 0 0 1 6 0 1 0 1
phys
0 189 6 108 0 0 1 6 0 1 0 1
0 189 54 108 0 0 1 6 0 1 0 1
0 199 54 108 0 0 1 6 0 1 0 1
phys
0 189 6 108 0 0 1 6 0 1 0 1
0 199 54 108 0 0 1 6 0 1 0 1
0 199 6 108 0 0 1 6 0 1 0 1
phys
0 199 2 112 0 0 1 6 0 1 0 1
0 199 58 112 0 0 1 6 0 1 0 1
0 189 58 112 0 0 1 6 0 1 0 1
phys
0 199 2 112 0 0 1 6 0 1 0 1
0 189 58 112 0 0 1 6 0 1 0 1
0 189 2 112 0 0 1 6 0 1 0 1
phys
0 189 2 112 0 0 1 6 0 1 0 1
0 189 6 108 0 0 1 6 0 1 0 1
0 199 6 108 0 0 1 6 0 1 0 1
phys
0 189 2 112 0 0 1 6 0 1 0 1
0 199 6 108 0 0 1 6 0 1 0 1
0 199 2 112 0 0 1 6 0 1 0 1
phys
0 189 54 108 0 0 1 6 0 1 0 1
0 189 58 112 0 0 1 6 0 1 0 1
0 199 58 112 0 0 1 6 0 1 0 1
phys
0 189 54 108 0 0 1 6 0 1 0 1
0 199 58 112 0 0 1 6 0 1 0 1
0 199 54 108 0 0 1 6 0 1 0 1
phys
0 34 -54 43 0 0 1 7 0 1 0 1
0 34 -54 11 0 0 1 7 0 1 0 1
0 -93 -54 11 0 0 1 7 0 1 0 1
phys
0 34 -54 43 0 0 1 7 0 1 0 1
0 -93 -54 11 0 0 1 7 0 1 0 1
0 -93 -54 43 0 0 1 7 0 1 0 1
phys
0 34 -56 11 0 0 1 7 0 1 0 1
0 34 -56 43 0 0 1 7 0 1 0 1
0 -93 -56 43 0 0 1 7 0 1 0 1
phys
0 34 -56 11 0 0 1 7 0 1 0 1
0 -93 -56 43 0 0 1 7 0 1 0 1
0 -93 -56 11 0 0 1 7 0 1 0 1
phys
0 -93 -56 11 0 0 1 7 0 1 0 1
0 -93 -56 43 0 0 1 7 0 1 0 1
0 -93 -54 43 0 0 1 7 0 1 0 1
phys
0 -93 -56 11 0 0 1 7 0 1 0 1
0 -93 -54 43 0 0 1 7 0 1 0 1
0 -93 -54 11 0 0 1 7 0 1 0 1
phys
0 34 -56 43 0 0 1 7 0 1 0 1
0 34 -56 11 0 0 1 7 0 1 0 1
0 34 -54 11 0 0 1 7 0 1 0 1
phys
0 34 -56 43 0 0 1 7 0 1 0 1
0 34 -54 11 0 0 1 7 0 1 0 1
0 34 -54 43 0 0 1 7 0 1 0 1
phys
0 34 -56 11 0 0 1 7 0 1 0 1
0 -93 -56 11 0 0 1 7 0 1 0 1
0 -93 -54 11 0 0 1 7 0 1 0 1
phys
0 34 -56 11 0 0 1 7 0 1 0 1
0 -93 -54 11 0 0 1 7 0 1 0 1
0 34 -54 11 0 0 1 7 0 1 0 1
phys
0 -93 -56 43 0 0 1 7 0 1 0 1
0 34 -56 43 0 0 1 7 0 1 0 1
0 34 -54 43 0 0 1 7 0 1 0 1
phys
0 -93 -56 43 0 0 1 7 0 1 0 1
0 34 -54 43 0 0 1 7 0 1 0 1
0 -93 -54 43 0 0 1 7 0 1 0 1
phys
0 40 -58 0 0 0 1 8 0 1 0 1
0 40 -52 0 0 0 1 8 0 1 0 1
0 40 -52 43 0 0 1 8 0 1 0 1
phys
0 40 -58 0 0 0 1 8 0 1 0 1
0 40 -52 43 0 0 1 8 0 1 0 1
0 40 -58 43 0 0 1 8 0 1 0 1
phys
0 34 -52 0 0 0 1 8 0 1 0 1
0 40 -52 0 0 0 1 8 0 1 0 1
0 40 -58 0 0 0 1 8 0 1 0 1
phys
0 34 -52 0 0 0 1 8 0 1 0 1
0 40 -58 0 0 0 1 8 0 1 0 1
0 34 -58 0 0 0 1 8 0 1 0 1
phys
0 34 -58 43 0 0 1 8 0 1 0 1
0 40 -58 43 0 0 1 8 0 1 0 1
0 40 -52 43 0 0 1 8 0 1 0 1
phys
0 34 -58 43 0 0 1 8 0 1 0 1
0 40 -52 43 0 0 1 8 0 1 0 1
0 34 -52 43 0 0 1 8 0 1 0 1
phys
0 40 -52 43 0 0 1 8 0 1 0 1
0 40 -52 0 0 0 1 8 0 1 0 1
0 34 -52 0 0 0 1 8 0 1 0 1
phys
0 40 -52 43 0 0 1 8 0 1 0 1
0 34 -52 0 0 0 1 8 0 1 0 1
0 34 -52 43 0 0 1 8 0 1 0 1
phys
0 40 -58 0 0 0 1 8 0 1 0 1
0 40 -58 43 0 0 1 8 0 1 0 1
0 34 -58 43 0 0 1 8 0 1 0 1
phys
0 40 -58 0 0 0 1 8 0 1 0 1
0 34 -58 43 0 0 1 8 0 1 0 1
0 34 -58 0 0 0 1 8 0 1 0 1
phys
0 34 -58 43 0 0 1 8 0 1 0 1
0 34 -52 43 0 0 1 8 0 1 0 1
0 34 -52 0 0 0 1 8 0 1 0 1
phys
0 34 -58 43 0 0 1 8 0 1 0 1
0 34 -52 0 0 0 1 8 0 1 0 1
0 34 -58 0 0 0 1 8 0 1 0 1
phys
0 -109 -50 119 0 0 1 9 0 1 0 1
0 -109 -50 117 0 0 1 9 0 1 0 1
0 -288 -50 117 0 0 1 9 0 1 0 1
phys
0 -109 -50 119 0 0 1 9 0 1 0 1
0 -288 -50 117 0 0 1 9 0 1 0 1
0 -288 -50 119 0 0 1 9 0 1 0 1
phys
0 -109 -58 117 0 0 1 9 0 1 0 1
0 -109 -58 119 0 0 1 9 0 1 0 1
0 -288 -58 119 0 0 1 9 0 1 0 1
phys
0 -109 -58 117 0 0 1 9 0 1 0 1
0 -288 -58 119 0 0 1 9 0 1 0 1
0 -288 -58 117 0 0 1 9 0 1 0 1
phys
0 -288 -58 117 0 0 1 9 0 1 0 1
0 -288 -58 119 0 0 1 9 0 1 0 1
0 -288 -50 119 0 0 1 9 0 1 0 1
phys
0 -288 -58 117 0 0 1 9 0 1 0 1
0 -288 -50 119 0 0 1 9 0 1 0 1
0 -288 -50 117 0 0 1 9 0 1 0 1
phys
0 -109 -58 119 0 0 1 9 0 1 0 1
0 -109 -58 117 0 0 1 9 0 1 0 1
0 -109 -50 117 0 0 1 9 0 1 0 1
phys
0 -109 -58 119 0 0 1 9 0 1 0 1
0 -109 -50 117 0 0 1 9 0 1 0 1
0 -109 -50 119 0 0 1 9 0 1 0 1
phys
0 -109 -58 117 0 0 1 9 0 1 0 1
0 -288 -58 117 0 0 1 9 0 1 0 1
0 -288 -50 117 0 0 1 9 0 1 0 1
phys
0 -109 -58 117 0 0 1 9 0 1 0 1
0 -288 -50 117 0 0 1 9 0 1 0 1
0 -109 -50 117 0 0 1 9 0 1 0 1
phys
0 -288 -58 119 0 0 1 9 0 1 0 1
0 -109 -58 119 0 0 1 9 0 1 0 1
0 -109 -50 119 0 0 1 9 0 1 0 1
phys
0 -288 -58 119 0 0 1 9 0 1 0 1
0 -109 -50 119 0 0 1 9 0 1 0 1
0 -288 -50 119 0 0 1 9 0 1 0 1
phys
0 -42 -58 162 0 0 1 10 0 1 0 1
0 44 -58 162 0 0 1 10 0 1 0 1
0 44 -50 162 0 0 1 10 0 1 0 1
phys
0 -42 -58 162 0 0 1 10 0 1 0 1
0 44 -50 162 0 0 1 10 0 1 0 1
0 -42 -50 162 0 0 1 10 0 1 0 1
phys
0 -42 -50 160 0 0 1 10 0 1 0 1
0 -42 -50 162 0 0 1 10 0 1 0 1
0 44 -50 162 0 0 1 10 0 1 0 1
phys
0 -42 -50 160 0 0 1 10 0 1 0 1
0 44 -50 162 0 0 1 10 0 1 0 1
0 44 -50 160 0 0 1 10 0 1 0 1
phys
0 44 -58 160 0 0 1 10 0 1 0 1
0 44 -58 162 0 0 1 10 0 1 0 1
0 -42 -58 162 0 0 1 10 0 1 0 1
phys
0 44 -58 160 0 0 1 10 0 1 0 1
0 -42 -58 162 0 0 1 10 0 1 0 1
0 -42 -58 160 0 0 1 10 0 1 0 1
phys
0 -42 -58 160 0 0 1 10 0 1 0 1
0 -42 -58 162 0 0 1 10 0 1 0 1
0 -42 -50 162 0 0 1 10 0 1 0 1
phys
0 -42 -58 160 0 0 1 10 0 1 0 1
0 -42 -50 162 0 0 1 10 0 1 0 1
0 -42 -50 160 0 0 1 10 0 1 0 1
phys
0 44 -50 160 0 0 1 10 0 1 0 1
0 44 -50 162 0 0 1 10 0 1 0 1
0 44 -58 162 0 0 1 10 0 1 0 1
phys
0 44 -50 160 0 0 1 10 0 1 0 1
0 44 -58 162 0 0 1 10 0 1 0 1
0 44 -58 160 0 0 1 10 0 1 0 1
phys
0 44 -58 160 0 0 1 10 0 1 0 1
0 -42 -58 160 0 0 1 10 0 1 0 1
0 -42 -50 160 0 0 1 10 0 1 0 1
phys
0 44 -58 160 0 0 1 10 0 1 0 1
0 -42 -50 160 0 0 1 10 0 1 0 1
0 44 -50 160 0 0 1 10 0 1 0 1
phys
0 183 -54 43 0 0 1 11 0 1 0 1
0 183 -54 11 0 0 1 11 0 1 0 1
0 56 -54 11 0 0 1 11 0 1 0 1
phys
0 183 -54 43 0 0 1 11 0 1 0 1
0 56 -54 11 0 0 1 11 0 1 0 1
0 56 -54 43 0 0 1 11 0 1 0 1
phys
0 183 -56 11 0 0 1 11 0 1 0 1
0 183 -56 43 0 0 1 11 0 1 0 1
0 56 -56 43 0 0 1 11 0 1 0 1
phys
0 183 -56 11 0 0 1 11 0 1 0 1
0 56 -56 43 0 0 1 11 0 1 0 1
0 56 -56 11 0 0 1 11 0 1 0 1
phys
0 56 -56 11 0 0 1 11 0 1 0 1
0 56 -56 43 0 0 1 11 0 1 0 1
0 56 -54 43 0 0 1 11 0 1 0 1
phys
0 56 -56 11 0 0 1 11 0 1 0 1
0 56 -54 43 0 0 1 11 0 1 0 1
0 56 -54 11 0 0 1 11 0 1 0 1
phys
0 183 -56 43 0 0 1 11 0 1 0 1
0 183 -56 11 0 0 1 11 0 1 0 1
0 183 -54 11 0 0 1 11 0 1 0 1
phys
0 183 -56 43 0 0 1 11 0 1 0 1
0 183 -54 11 0 0 1 11 0 1 0 1
0 183 -54 43 0 0 1 11 0 1 0 1
phys
0 183 -56 11 0 0 1 11 0 1 0 1
0 56 -56 11 0 0 1 11 0 1 0 1
0 56 -54 11 0 0 1 11 0 1 0 1
phys
0 183 -56 11 0 0 1 11 0 1 0 1
0 56 -54 11 0 0 1 11 0 1 0 1
0 183 -54 11 0 0 1 11 0 1 0 1
phys
0 56 -56 43 0 0 1 11 0 1 0 1
0 183 -56 43 0 0 1 11 0 1 0 1
0 183 -54 43 0 0 1 11 0 1 0 1
phys
0 56 -56 43 0 0 1 11 0 1 0 1
0 183 -54 43 0 0 1 11 0 1 0 1
0 56 -54 43 0 0 1 11 0 1 0 1
phys
0 133 -55 130 0 0 1 12 0 1 0 1
0 133 -55 245 0 0 1 12 0 1 0 1
0 -42 -55 245 0 0 1 12 0 1 0 1
phys
0 133 -55 130 0 0 1 12 0 1 0 1
0 -42 -55 245 0 0 1 12 0 1 0 1
0 -42 -55 130 0 0 1 12 0 1 0 1
phys
0 -42 -55 130 0 0 1 12 0 1 0 1
0 -42 -55 245 0 0 1 12 0 1 0 1
0 -42 -53 245 0 0 1 12 0 1 0 1
phys
0 -42 -55 130 0 0 1 12 0 1 0 1
0 -42 -53 245 0 0 1 12 0 1 0 1
0 -42 -53 130 0 0 1 12 0 1 0 1
phys
0 133 -55 245 0 0 1 12 0 1 0 1
0 133 -55 130 0 0 1 12 0 1 0 1
0 133 -53 130 0 0 1 12 0 1 0 1
phys
0 133 -55 245 0 0 1 12 0 1 0 1
0 133 -53 130 0 0 1 12 0 1 0 1
0 133 -53 245 0 0 1 12 0 1 0 1
phys
0 133 -55 130 0 0 1 12 0 1 0 1
0 -42 -55 130 0 0 1 12 0 1 0 1
0 -42 -53 130 0 0 1 12 0 1 0 1
phys
0 133 -55 130 0 0 1 12 0 1 0 1
0 -42 -53 130 0 0 1 12 0 1 0 1
0 133 -53 130 0 0 1 12 0 1 0 1
phys
0 -42 -55 245 0 0 1 12 0 1 0 1
0 133 -55 245 0 0 1 12 0 1 0 1
0 133 -53 245 0 0 1 12 0 1 0 1
phys
0 -42 -55 245 0 0 1 12 0 1 0 1
0 133 -53 245 0 0 1 12 0 1 0 1
0 -42 -53 245 0 0 1 12 0 1 0 1
phys
0 133 -53 245 0 0 1 12 0 1 0 1
0 133 -53 130 0 0 1 12 0 1 0 1
0 -42 -53 130 0 0 1 12 0 1 0 1
phys
0 133 -53 245 0 0 1 12 0 1 0 1
0 -42 -53 130 0 0 1 12 0 1 0 1
0 -42 -53 245 0 0 1 12 0 1 0 1
phys
0 46 -50 245 0 0 1 13 0 1 0 1
0 46 -50 130 0 0 1 13 0 1 0 1
0 44 -50 130 0 0 1 13 0 1 0 1
phys
0 46 -50 245 0 0 1 13 0 1 0 1
0 44 -50 130 0 0 1 13 0 1 0 1
0 44 -50 245 0 0 1 13 0 1 0 1
phys
0 46 -58 130 0 0 1 13 0 1 0 1
0 46 -58 245 0 0 1 13 0 1 0 1
0 44 -58 245 0 0 1 13 0 1 0 1
phys
0 46 -58 130 0 0 1 13 0 1 0 1
0 44 -58 245 0 0 1 13 0 1 0 1
0 44 -58 130 0 0 1 13 0 1 0 1
phys
0 44 -58 130 0 0 1 13 0 1 0 1
0 44 -58 245 0 0 1 13 0 1 0 1
0 44 -50 245 0 0 1 13 0 1 0 1
phys
0 44 -58 130 0 0 1 13 0 1 0 1
0 44 -50 245 0 0 1 13 0 1 0 1
0 44 -50 130 0 0 1 13 0 1 0 1
phys
0 46 -58 245 0 0 1 13 0 1 0 1
0 46 -58 130 0 0 1 13 0 1 0 1
0 46 -50 130 0 0 1 13 0 1 0 1
phys
0 46 -58 245 0 0 1 13 0 1 0 1
0 46 -50 130 0 0 1 13 0 1 0 1
0 46 -50 245 0 0 1 13 0 1 0 1
phys
0 46 -58 130 0 0 1 13 0 1 0 1
0 44 -58 130 0 0 1 13 0 1 0 1
0 44 -50 130 0 0 1 13 0 1 0 1
phys
0 46 -58 130 0 0 1 13 0 1 0 1
0 44 -50 130 0 0 1 13 0 1 0 1
0 46 -50 130 0 0 1 13 0 1 0 1
phys
0 44 -58 245 0 0 1 13 0 1 0 1
0 46 -58 245 0 0 1 13 0 1 0 1
0 46 -50 245 0 0 1 13 0 1 0 1
phys
0 44 -58 245 0 0 1 13 0 1 0 1
0 46 -50 245 0 0 1 13 0 1 0 1
0 44 -50 245 0 0 1 13 0 1 0 1
phys
0 -42 -50 245 0 0 1 14 0 1 0 1
0 -42 -50 130 0 0 1 14 0 1 0 1
0 -44 -50 130 0 0 1 14 0 1 0 1
phys
0 -42 -50 245 0 0 1 14 0 1 0 1
0 -44 -50 130 0 0 1 14 0 1 0 1
0 -44 -50 245 0 0 1 14 0 1 0 1
phys
0 -42 -58 130 0 0 1 14 0 1 0 1
0 -42 -58 245 0 0 1 14 0 1 0 1
0 -44 -58 245 0 0 1 14 0 1 0 1
phys
0 -42 -58 130 0 0 1 14 0 1 0 1
0 -44 -58 245 0 0 1 14 0 1 0 1
0 -44 -58 130 0 0 1 14 0 1 0 1
phys
0 -44 -58 130 0 0 1 14 0 1 0 1
0 -44 -58 245 0 0 1 14 0 1 0 1
0 -44 -50 245 0 0 1 14 0 1 0 1
phys
0 -44 -58 130 0 0 1 14 0 1 0 1
0 -44 -50 245 0 0 1 14 0 1 0 1
0 -44 -50 130 0 0 1 14 0 1 0 1
phys
0 -42 -58 245 0 0 1 14 0 1 0 1
0 -42 -58 130 0 0 1 14 0 1 0 1
0 -42 -50 130 0 0 1 14 0 1 0 1
phys
0 -42 -58 245 0 0 1 14 0 1 0 1
0 -42 -50 130 0 0 1 14 0 1 0 1
0 -42 -50 245 0 0 1 14 0 1 0 1
phys
0 -42 -58 130 0 0 1 14 0 1 0 1
0 -44 -58 130 0 0 1 14 0 1 0 1
0 -44 -50 130 0 0 1 14 0 1 0 1
phys
0 -42 -58 130 0 0 1 14 0 1 0 1
0 -44 -50 130 0 0 1 14 0 1 0 1
0 -42 -50 130 0 0 1 14 0 1 0 1
phys
0 -44 -58 245 0 0 1 14 0 1 0 1
0 -42 -58 245 0 0 1 14 0 1 0 1
0 -42 -50 245 0 0 1 14 0 1 0 1
phys
0 -44 -58 245 0 0 1 14 0 1 0 1
0 -42 -50 245 0 0 1 14 0 1 0 1
0 -44 -50 245 0 0 1 14 0 1 0 1
phys
0 -93 -52 43 0 0 1 15 0 1 0 1
0 -93 -52 0 0 0 1 15 0 1 0 1
0 -99 -52 0 0 0 1 15 0 1 0 1
phys
0 -93 -52 43 0 0 1 15 0 1 0 1
0 -99 -52 0 0 0 1 15 0 1 0 1
0 -99 -52 43 0 0 1 15 0 1 0 1
phys
0 -93 -58 0 0 0 1 15 0 1 0 1
0 -93 -58 43 0 0 1 15 0 1 0 1
0 -99 -58 43 0 0 1 15 0 1 0 1
phys
0 -93 -58 0 0 0 1 15 0 1 0 1
0 -99 -58 43 0 0 1 15 0 1 0 1
0 -99 -58 0 0 0 1 15 0 1 0 1
phys
0 -99 -58 0 0 0 1 15 0 1 0 1
0 -99 -58 43 0 0 1 15 0 1 0 1
0 -99 -52 43 0 0 1 15 0 1 0 1
phys
0 -99 -58 0 0 0 1 15 0 1 0 1
0 -99 -52 43 0 0 1 15 0 1 0 1
0 -99 -52 0 0 0 1 15 0 1 0 1
phys
0 -93 -58 43 0 0 1 15 0 1 0 1
0 -93 -58 0 0 0 1 15 0 1 0 1
0 -93 -52 0 0 0 1 15 0 1 0 1
phys
0 -93 -58 43 0 0 1 15 0 1 0 1
0 -93 -52 0 0 0 1 15 0 1 0 1
0 -93 -52 43 0 0 1 15 0 1 0 1
phys
0 -93 -58 0 0 0 1 15 0 1 0 1
0 -99 -58 0 0 0 1 15 0 1 0 1
0 -99 -52 0 0 0 1 15 0 1 0 1
phys
0 -93 -58 0 0 0 1 15 0 1 0 1
0 -99 -52 0 0 0 1 15 0 1 0 1
0 -93 -52 0 0 0 1 15 0 1 0 1
phys
0 -99 -58 43 0 0 1 15 0 1 0 1
0 -93 -58 43 0 0 1 15 0 1 0 1
0 -93 -52 43 0 0 1 15 0 1 0 1
phys
0 -99 -58 43 0 0 1 15 0 1 0 1
0 -93 -52 43 0 0 1 15 0 1 0 1
0 -99 -52 43 0 0 1 15 0 1 0 1
phys
0 -286 -58 162 0 0 1 16 0 1 0 1
0 -200 -58 162 0 0 1 16 0 1 0 1
0 -200 -50 162 0 0 1 16 0 1 0 1
phys
0 -286 -58 162 0 0 1 16 0 1 0 1
0 -200 -50 162 0 0 1 16 0 1 0 1
0 -286 -50 162 0 0 1 16 0 1 0 1
phys
0 -286 -50 160 0 0 1 16 0 1 0 1
0 -286 -50 162 0 0 1 16 0 1 0 1
0 -200 -50 162 0 0 1 16 0 1 0 1
phys
0 -286 -50 160 0 0 1 16 0 1 0 1
0 -200 -50 162 0 0 1 16 0 1 0 1
0 -200 -50 160 0 0 1 16 0 1 0 1
phys
0 -200 -58 160 0 0 1 16 0 1 0 1
0 -200 -58 162 0 0 1 16 0 1 0 1
0 -286 -58 162 0 0 1 16 0 1 0 1
phys
0 -200 -58 160 0 0 1 16 0 1 0 1
0 -286 -58 162 0 0 1 16 0 1 0 1
0 -286 -58 160 0 0 1 16 0 1 0 1
phys
0 -286 -58 160 0 0 1 16 0 1 0 1
0 -286 -58 162 0 0 1 16 0 1 0 1
0 -286 -50 162 0 0 1 16 0 1 0 1
phys
0 -286 -58 160 0 0 1 16 0 1 0 1
0 -286 -50 162 0 0 1 16 0 1 0 1
0 -286 -50 160 0 0 1 16 0 1 0 1
phys
0 -200 -50 160 0 0 1 16 0 1 0 1
0 -200 -50 162 0 0 1 16 0 1 0 1
0 -200 -58 162 0 0 1 16 0 1 0 1
phys
0 -200 -50 160 0 0 1 16 0 1 0 1
0 -200 -58 162 0 0 1 16 0 1 0 1
0 -200 -58 160 0 0 1 16 0 1 0 1
phys
0 -200 -58 160 0 0 1 16 0 1 0 1
0 -286 -58 160 0 0 1 16 0 1 0 1
0 -286 -50 160 0 0 1 16 0 1 0 1
phys
0 -200 -58 160 0 0 1 16 0 1 0 1
0 -286 -50 160 0 0 1 16 0 1 0 1
0 -200 -50 160 0 0 1 16 0 1 0 1
phys
0 135 -50 130 0 0 1 17 0 1 0 1
0 135 -50 128 0 0 1 17 0 1 0 1
0 -44 -50 128 0 0 1 17 0 1 0 1
phys
0 135 -50 130 0 0 1 17 0 1 0 1
0 -44 -50 128 0 0 1 17 0 1 0 1
0 -44 -50 130 0 0 1 17 0 1 0 1
phys
0 135 -58 128 0 0 1 17 0 1 0 1
0 135 -58 130 0 0 1 17 0 1 0 1
0 -44 -58 130 0 0 1 17 0 1 0 1
phys
0 135 -58 128 0 0 1 17 0 1 0 1
0 -44 -58 130 0 0 1 17 0 1 0 1
0 -44 -58 128 0 0 1 17 0 1 0 1
phys
0 -44 -58 128 0 0 1 17 0 1 0 1
0 -44 -58 130 0 0 1 17 0 1 0 1
0 -44 -50 130 0 0 1 17 0 1 0 1
phys
0 -44 -58 128 0 0 1 17 0 1 0 1
0 -44 -50 130 0 0 1 17 0 1 0 1
0 -44 -50 128 0 0 1 17 0 1 0 1
phys
0 135 -58 130 0 0 1 17 0 1 0 1
0 135 -58 128 0 0 1 17 0 1 0 1
0 135 -50 128 0 0 1 17 0 1 0 1
phys
0 135 -58 130 0 0 1 17 0 1 0 1
0 135 -50 128 0 0 1 17 0 1 0 1
0 135 -50 130 0 0 1 17 0 1 0 1
phys
0 135 -58 128 0 0 1 17 0 1 0 1
0 -44 -58 128 0 0 1 17 0 1 0 1
0 -44 -50 128 0 0 1 17 0 1 0 1
phys
0 135 -58 128 0 0 1 17 0 1 0 1
0 -44 -50 128 0 0 1 17 0 1 0 1
0 135 -50 128 0 0 1 17 0 1 0 1
phys
0 -44 -58 130 0 0 1 17 0 1 0 1
0 135 -58 130 0 0 1 17 0 1 0 1
0 135 -50 130 0 0 1 17 0 1 0 1
phys
0 -44 -58 130 0 0 1 17 0 1 0 1
0 135 -50 130 0 0 1 17 0 1 0 1
0 -44 -50 130 0 0 1 17 0 1 0 1
phys
0 201 -50 117 0 0 1 18 0 1 0 1
0 201 -50 2 0 0 1 18 0 1 0 1
0 199 -50 2 0 0 1 18 0 1 0 1
phys
0 201 -50 117 0 0 1 18 0 1 0 1
0 199 -50 2 0 0 1 18 0 1 0 1
0 199 -50 117 0 0 1 18 0 1 0 1
phys
0 201 -58 2 0 0 1 18 0 1 0 1
0 201 -58 117 0 0 1 18 0 1 0 1
0 199 -58 117 0 0 1 18 0 1 0 1
phys
0 201 -58 2 0 0 1 18 0 1 0 1
0 199 -58 117 0 0 1 18 0 1 0 1
0 199 -58 2 0 0 1 18 0 1 0 1
phys
0 199 -58 2 0 0 1 18 0 1 0 1
0 199 -58 117 0 0 1 18 0 1 0 1
0 199 -50 117 0 0 1 18 0 1 0 1
phys
0 199 -58 2 0 0 1 18 0 1 0 1
0 199 -50 117 0 0 1 18 0 1 0 1
0 199 -50 2 0 0 1 18 0 1 0 1
phys
0 201 -58 117 0 0 1 18 0 1 0 1
0 201 -58 2 0 0 1 18 0 1 0 1
0 201 -50 2 0 0 1 18 0 1 0 1
phys
0 201 -58 117 0 0 1 18 0 1 0 1
0 201 -50 2 0 0 1 18 0 1 0 1
0 201 -50 117 0 0 1 18 0 1 0 1
phys
0 201 -58 2 0 0 1 18 0 1 0 1
0 199 -58 2 0 0 1 18 0 1 0 1
0 199 -50 2 0 0 1 18 0 1 0 1
phys
0 201 -58 2 0 0 1 18 0 1 0 1
0 199 -50 2 0 0 1 18 0 1 0 1
0 201 -50 2 0 0 1 18 0 1 0 1
phys
0 199 -58 117 0 0 1 18 0 1 0 1
0 201 -58 117 0 0 1 18 0 1 0 1
0 201 -50 117 0 0 1 18 0 1 0 1
phys
0 199 -58 117 0 0 1 18 0 1 0 1
0 201 -50 117 0 0 1 18 0 1 0 1
0 199 -50 117 0 0 1 18 0 1 0 1
phys
0 -109 -50 2 0 0 1 19 0 1 0 1
0 -109 -50 0 0 0 1 19 0 1 0 1
0 -288 -50 0 0 0 1 19 0 1 0 1
phys
0 -109 -50 2 0 0 1 19 0 1 0 1
0 -288 -50 0 0 0 1 19 0 1 0 1
0 -288 -50 2 0 0 1 19 0 1 0 1
phys
0 -109 -58 0 0 0 1 19 0 1 0 1
0 -109 -58 2 0 0 1 19 0 1 0 1
0 -288 -58 2 0 0 1 19 0 1 0 1
phys
0 -109 -58 0 0 0 1 19 0 1 0 1
0 -288 -58 2 0 0 1 19 0 1 0 1
0 -288 -58 0 0 0 1 19 0 1 0 1
phys
0 -288 -58 0 0 0 1 19 0 1 0 1
0 -288 -58 2 0 0 1 19 0 1 0 1
0 -288 -50 2 0 0 1 19 0 1 0 1
phys
0 -288 -58 0 0 0 1 19 0 1 0 1
0 -288 -50 2 0 0 1 19 0 1 0 1
0 -288 -50 0 0 0 1 19 0 1 0 1
phys
0 -109 -58 2 0 0 1 19 0 1 0 1
0 -109 -58 0 0 0 1 19 0 1 0 1
0 -109 -50 0 0 0 1 19 0 1 0 1
phys
0 -109 -58 2 0 0 1 19 0 1 0 1
0 -109 -50 0 0 0 1 19 0 1 0 1
0 -109 -50 2 0 0 1 19 0 1 0 1
phys
0 -109 -58 0 0 0 1 19 0 1 0 1
0 -288 -58 0 0 0 1 19 0 1 0 1
0 -288 -50 0 0 0 1 19 0 1 0 1
phys
0 -109 -58 0 0 0 1 19 0 1 0 1
0 -288 -50 0 0 0 1 19 0 1 0 1
0 -109 -50 0 0 0 1 19 0 1 0 1
phys
0 -288 -58 2 0 0 1 19 0 1 0 1
0 -109 -58 2 0 0 1 19 0 1 0 1
0 -109 -50 2 0 0 1 19 0 1 0 1
phys
0 -288 -58 2 0 0 1 19 0 1 0 1
0 -109 -50 2 0 0 1 19 0 1 0 1
0 -288 -50 2 0 0 1 19 0 1 0 1
phys
0 -109 -50 245 0 0 1 20 0 1 0 1
0 -109 -50 130 0 0 1 20 0 1 0 1
0 -111 -50 130 0 0 1 20 0 1 0 1
phys
0 -109 -50 245 0 0 1 20 0 1 0 1
0 -111 -50 130 0 0 1 20 0 1 0 1
0 -111 -50 245 0 0 1 20 0 1 0 1
phys
0 -109 -58 130 0 0 1 20 0 1 0 1
0 -109 -58 245 0 0 1 20 0 1 0 1
0 -111 -58 245 0 0 1 20 0 1 0 1
phys
0 -109 -58 130 0 0 1 20 0 1 0 1
0 -111 -58 245 0 0 1 20 0 1 0 1
0 -111 -58 130 0 0 1 20 0 1 0 1
phys
0 -111 -58 130 0 0 1 20 0 1 0 1
0 -111 -58 245 0 0 1 20 0 1 0 1
0 -111 -50 245 0 0 1 20 0 1 0 1
phys
0 -111 -58 130 0 0 1 20 0 1 0 1
0 -111 -50 245 0 0 1 20 0 1 0 1
0 -111 -50 130 0 0 1 20 0 1 0 1
phys
0 -109 -58 245 0 0 1 20 0 1 0 1
0 -109 -58 130 0 0 1 20 0 1 0 1
0 -109 -50 130 0 0 1 20 0 1 0 1
phys
0 -109 -58 245 0 0 1 20 0 1 0 1
0 -109 -50 130 0 0 1 20 0 1 0 1
0 -109 -50 245 0 0 1 20 0 1 0 1
phys
0 -109 -58 130 0 0 1 20 0 1 0 1
0 -111 -58 130 0 0 1 20 0 1 0 1
0 -111 -50 130 0 0 1 20 0 1 0 1
phys
0 -109 -58 130 0 0 1 20 0 1 0 1
0 -111 -50 130 0 0 1 20 0 1 0 1
0 -109 -50 130 0 0 1 20 0 1 0 1
phys
0 -111 -58 245 0 0 1 20 0 1 0 1
0 -109 -58 245 0 0 1 20 0 1 0 1
0 -109 -50 245 0 0 1 20 0 1 0 1
phys
0 -111 -58 245 0 0 1 20 0 1 0 1
0 -109 -50 245 0 0 1 20 0 1 0 1
0 -111 -50 245 0 0 1 20 0 1 0 1
phys
0 -109 -50 247 0 0 1 21 0 1 0 1
0 -109 -50 245 0 0 1 21 0 1 0 1
0 -288 -50 245 0 0 1 21 0 1 0 1
phys
0 -109 -50 247 0 0 1 21 0 1 0 1
0 -288 -50 245 0 0 1 21 0 1 0 1
0 -288 -50 247 0 0 1 21 0 1 0 1
phys
0 -109 -58 245 0 0 1 21 0 1 0 1
0 -109 -58 247 0 0 1 21 0 1 0 1
0 -288 -58 247 0 0 1 21 0 1 0 1
phys
0 -109 -58 245 0 0 1 21 0 1 0 1
0 -288 -58 247 0 0 1 21 0 1 0 1
0 -288 -58 245 0 0 1 21 0 1 0 1
phys
0 -288 -58 245 0 0 1 21 0 1 0 1
0 -288 -58 247 0 0 1 21 0 1 0 1
0 -288 -50 247 0 0 1 21 0 1 0 1
phys
0 -288 -58 245 0 0 1 21 0 1 0 1
0 -288 -50 247 0 0 1 21 0 1 0 1
0 -288 -50 245 0 0 1 21 0 1 0 1
phys
0 -109 -58 247 0 0 1 21 0 1 0 1
0 -109 -58 245 0 0 1 21 0 1 0 1
0 -109 -50 245 0 0 1 21 0 1 0 1
phys
0 -109 -58 247 0 0 1 21 0 1 0 1
0 -109 -50 245 0 0 1 21 0 1 0 1
0 -109 -50 247 0 0 1 21 0 1 0 1
phys
0 -109 -58 245 0 0 1 21 0 1 0 1
0 -288 -58 245 0 0 1 21 0 1 0 1
0 -288 -50 245 0 0 1 21 0 1 0 1
phys
0 -109 -58 245 0 0 1 21 0 1 0 1
0 -288 -50 245 0 0 1 21 0 1 0 1
0 -109 -50 245 0 0 1 21 0 1 0 1
phys
0 -288 -58 247 0 0 1 21 0 1 0 1
0 -109 -58 247 0 0 1 21 0 1 0 1
0 -109 -50 247 0 0 1 21 0 1 0 1
phys
0 -288 -58 247 0 0 1 21 0 1 0 1
0 -109 -50 247 0 0 1 21 0 1 0 1
0 -288 -50 247 0 0 1 21 0 1 0 1
phys
0 199 2 0 0 0 1 22 0 1 0 1
0 189 2 0 0 0 1 22 0 1 0 1
0 189 6 0 0 0 1 22 0 1 0 1
phys
0 199 2 0 0 0 1 22 0 1 0 1
0 189 6 0 0 0 1 22 0 1 0 1
0 199 6 0 0 0 1 22 0 1 0 1
phys
0 189 2 112 0 0 1 22 0 1 0 1
0 199 2 112 0 0 1 22 0 1 0 1
0 199 6 108 0 0 1 22 0 1 0 1
phys
0 189 2 112 0 0 1 22 0 1 0 1
0 199 6 108 0 0 1 22 0 1 0 1
0 189 6 108 0 0 1 22 0 1 0 1
phys
0 199 6 0 0 0 1 22 0 1 0 1
0 189 6 0 0 0 1 22 0 1 0 1
0 189 6 108 0 0 1 22 0 1 0 1
phys
0 199 6 0 0 0 1 22 0 1 0 1
0 189 6 108 0 0 1 22 0 1 0 1
0 199 6 108 0 0 1 22 0 1 0 1
phys
0 199 2 112 0 0 1 22 0 1 0 1
0 189 2 112 0 0 1 22 0 1 0 1
0 189 2 0 0 0 1 22 0 1 0 1
phys
0 199 2 112 0 0 1 22 0 1 0 1
0 189 2 0 0 0 1 22 0 1 0 1
0 199 2 0 0 0 1 22 0 1 0 1
phys
0 189 2 112 0 0 1 22 0 1 0 1
0 189 6 108 0 0 1 22 0 1 0 1
0 189 6 0 0 0 1 22 0 1 0 1
phys
0 189 2 112 0 0 1 22 0 1 0 1
0 189 6 0 0 0 1 22 0 1 0 1
0 189 2 0 0 0 1 22 0 1 0 1
phys
0 199 2 0 0 0 1 22 0 1 0 1
0 199 6 0 0 0 1 22 0 1 0 1
0 199 6 108 0 0 1 22 0 1 0 1
phys
0 199 2 0 0 0 1 22 0 1 0 1
0 199 6 108 0 0 1 22 0 1 0 1
0 199 2 112 0 0 1 22 0 1 0 1
phys
0 133 -58 160 0 0 1 23 0 1 0 1
0 133 -50 160 0 0 1 23 0 1 0 1
0 133 -50 162 0 0 1 23 0 1 0 1
phys
0 133 -58 160 0 0 1 23 0 1 0 1
0 133 -50 162 0 0 1 23 0 1 0 1
0 133 -58 162 0 0 1 23 0 1 0 1
phys
0 46 -50 160 0 0 1 23 0 1 0 1
0 133 -50 160 0 0 1 23 0 1 0 1
0 133 -58 160 0 0 1 23 0 1 0 1
phys
0 46 -50 160 0 0 1 23 0 1 0 1
0 133 -58 160 0 0 1 23 0 1 0 1
0 46 -58 160 0 0 1 23 0 1 0 1
phys
0 46 -58 162 0 0 1 23 0 1 0 1
0 133 -58 162 0 0 1 23 0 1 0 1
0 133 -50 162 0 0 1 23 0 1 0 1
phys
0 46 -58 162 0 0 1 23 0 1 0 1
0 133 -50 162 0 0 1 23 0 1 0 1
0 46 -50 162 0 0 1 23 0 1 0 1
phys
0 133 -50 162 0 0 1 23 0 1 0 1
0 133 -50 160 0 0 1 23 0 1 0 1
0 46 -50 160 0 0 1 23 0 1 0 1
phys
0 133 -50 162 0 0 1 23 0 1 0 1
0 46 -50 160 0 0 1 23 0 1 0 1
0 46 -50 162 0 0 1 23 0 1 0 1
phys
0 133 -58 160 0 0 1 23 0 1 0 1
0 133 -58 162 0 0 1 23 0 1 0 1
0 46 -58 162 0 0 1 23 0 1 0 1
phys
0 133 -58 160 0 0 1 23 0 1 0 1
0 46 -58 162 0 0 1 23 0 1 0 1
0 46 -58 160 0 0 1 23 0 1 0 1
phys
0 46 -58 162 0 0 1 23 0 1 0 1
0 46 -50 162 0 0 1 23 0 1 0 1
0 46 -50 160 0 0 1 23 0 1 0 1
phys
0 46 -58 162 0 0 1 23 0 1 0 1
0 46 -50 160 0 0 1 23 0 1 0 1
0 46 -58 160 0 0 1 23 0 1 0 1
phys
0 135 -50 245 0 0 1 24 0 1 0 1
0 135 -50 130 0 0 1 24 0 1 0 1
0 133 -50 130 0 0 1 24 0 1 0 1
phys
0 135 -50 245 0 0 1 24 0 1 0 1
0 133 -50 130 0 0 1 24 0 1 0 1
0 133 -50 245 0 0 1 24 0 1 0 1
phys
0 135 -58 130 0 0 1 24 0 1 0 1
0 135 -58 245 0 0 1 24 0 1 0 1
0 133 -58 245 0 0 1 24 0 1 0 1
phys
0 135 -58 130 0 0 1 24 0 1 0 1
0 133 -58 245 0 0 1 24 0 1 0 1
0 133 -58 130 0 0 1 24 0 1 0 1
phys
0 133 -58 130 0 0 1 24 0 1 0 1
0 133 -58 245 0 0 1 24 0 1 0 1
0 133 -50 245 0 0 1 24 0 1 0 1
phys
0 133 -58 130 0 0 1 24 0 1 0 1
0 133 -50 245 0 0 1 24 0 1 0 1
0 133 -50 130 0 0 1 24 0 1 0 1
phys
0 135 -58 245 0 0 1 24 0 1 0 1
0 135 -58 130 0 0 1 24 0 1 0 1
0 135 -50 130 0 0 1 24 0 1 0 1
phys
0 135 -58 245 0 0 1 24 0 1 0 1
0 135 -50 130 0 0 1 24 0 1 0 1
0 135 -50 245 0 0 1 24 0 1 0 1
phys
0 135 -58 130 0 0 1 24 0 1 0 1
0 133 -58 130 0 0 1 24 0 1 0 1
0 133 -50 130 0 0 1 24 0 1 0 1
phys
0 135 -58 130 0 0 1 24 0 1 0 1
0 133 -50 130 0 0 1 24 0 1 0 1
0 135 -50 130 0 0 1 24 0 1 0 1
phys
0 133 -58 245 0 0 1 24 0 1 0 1
0 135 -58 245 0 0 1 24 0 1 0 1
0 135 -50 245 0 0 1 24 0 1 0 1
phys
0 133 -58 245 0 0 1 24 0 1 0 1
0 135 -50 245 0 0 1 24 0 1 0 1
0 133 -50 245 0 0 1 24 0 1 0 1
phys
0 -198 -50 117 0 0 1 25 0 1 0 1
0 -198 -50 2 0 0 1 25 0 1 0 1
0 -200 -50 2 0 0 1 25 0 1 0 1
phys
0 -198 -50 117 0 0 1 25 0 1 0 1
0 -200 -50 2 0 0 1 25 0 1 0 1
0 -200 -50 117 0 0 1 25 0 1 0 1
phys
0 -198 -58 2 0 0 1 25 0 1 0 1
0 -198 -58 117 0 0 1 25 0 1 0 1
0 -200 -58 117 0 0 1 25 0 1 0 1
phys
0 -198 -58 2 0 0 1 25 0 1 0 1
0 -200 -58 117 0 0 1 25 0 1 0 1
0 -200 -58 2 0 0 1 25 0 1 0 1
phys
0 -200 -58 2 0 0 1 25 0 1 0 1
0 -200 -58 117 0 0 1 25 0 1 0 1
0 -200 -50 117 0 0 1 25 0 1 0 1
phys
0 -200 -58 2 0 0 1 25 0 1 0 1
0 -200 -50 117 0 0 1 25 0 1 0 1
0 -200 -50 2 0 0 1 25 0 1 0 1
phys
0 -198 -58 117 0 0 1 25 0 1 0 1
0 -198 -58 2 0 0 1 25 0 1 0 1
0 -198 -50 2 0 0 1 25 0 1 0 1
phys
0 -198 -58 117 0 0 1 25 0 1 0 1
0 -198 -50 2 0 0 1 25 0 1 0 1
0 -198 -50 117 0 0 1 25 0 1 0 1
phys
0 -198 -58 2 0 0 1 25 0 1 0 1
0 -200 -58 2 0 0 1 25 0 1 0 1
0 -200 -50 2 0 0 1 25 0 1 0 1
phys
0 -198 -58 2 0 0 1 25 0 1 0 1
0 -200 -50 2 0 0 1 25 0 1 0 1
0 -198 -50 2 0 0 1 25 0 1 0 1
phys
0 -200 -58 117 0 0 1 25 0 1 0 1
0 -198 -58 117 0 0 1 25 0 1 0 1
0 -198 -50 117 0 0 1 25 0 1 0 1
phys
0 -200 -58 117 0 0 1 25 0 1 0 1
0 -198 -50 117 0 0 1 25 0 1 0 1
0 -200 -50 117 0 0 1 25 0 1 0 1
phys
0 183 -58 0 0 0 1 26 0 1 0 1
0 183 -58 11 0 0 1 26 0 1 0 1
0 56 -58 11 0 0 1 26 0 1 0 1
phys
0 183 -58 0 0 0 1 26 0 1 0 1
0 56 -58 11 0 0 1 26 0 1 0 1
0 56 -58 0 0 0 1 26 0 1 0 1
phys
0 56 -58 0 0 0 1 26 0 1 0 1
0 56 -58 11 0 0 1 26 0 1 0 1
0 56 -52 11 0 0 1 26 0 1 0 1
phys
0 56 -58 0 0 0 1 26 0 1 0 1
0 56 -52 11 0 0 1 26 0 1 0 1
0 56 -52 0 0 0 1 26 0 1 0 1
phys
0 183 -58 11 0 0 1 26 0 1 0 1
0 183 -58 0 0 0 1 26 0 1 0 1
0 183 -52 0 0 0 1 26 0 1 0 1
phys
0 183 -58 11 0 0 1 26 0 1 0 1
0 183 -52 0 0 0 1 26 0 1 0 1
0 183 -52 11 0 0 1 26 0 1 0 1
phys
0 183 -58 0 0 0 1 26 0 1 0 1
0 56 -58 0 0 0 1 26 0 1 0 1
0 56 -52 0 0 0 1 26 0 1 0 1
phys
0 183 -58 0 0 0 1 26 0 1 0 1
0 56 -52 0 0 0 1 26 0 1 0 1
0 183 -52 0 0 0 1 26 0 1 0 1
phys
0 56 -58 11 0 0 1 26 0 1 0 1
0 183 -58 11 0 0 1 26 0 1 0 1
0 183 -52 11 0 0 1 26 0 1 0 1
phys
0 56 -58 11 0 0 1 26 0 1 0 1
0 183 -52 11 0 0 1 26 0 1 0 1
0 56 -52 11 0 0 1 26 0 1 0 1
phys
0 183 -52 11 0 0 1 26 0 1 0 1
0 183 -52 0 0 0 1 26 0 1 0 1
0 56 -52 0 0 0 1 26 0 1 0 1
phys
0 183 -52 11 0 0 1 26 0 1 0 1
0 56 -52 0 0 0 1 26 0 1 0 1
0 56 -52 11 0 0 1 26 0 1 0 1
phys
0 -99 6 108 0 0 1 27 0 1 0 1
0 -99 6 0 0 0 1 27 0 1 0 1
0 -109 6 0 0 0 1 27 0 1 0 1
phys
0 -99 6 108 0 0 1 27 0 1 0 1
0 -109 6 0 0 0 1 27 0 1 0 1
0 -109 6 108 0 0 1 27 0 1 0 1
phys
0 -99 2 0 0 0 1 27 0 1 0 1
0 -99 2 112 0 0 1 27 0 1 0 1
0 -109 2 112 0 0 1 27 0 1 0 1
phys
0 -99 2 0 0 0 1 27 0 1 0 1
0 -109 2 112 0 0 1 27 0 1 0 1
0 -109 2 0 0 0 1 27 0 1 0 1
phys
0 -109 2 0 0 0 1 27 0 1 0 1
0 -109 2 112 0 0 1 27 0 1 0 1
0 -109 6 108 0 0 1 27 0 1 0 1
phys
0 -109 2 0 0 0 1 27 0 1 0 1
0 -109 6 108 0 0 1 27 0 1 0 1
0 -109 6 0 0 0 1 27 0 1 0 1
phys
0 -99 2 112 0 0 1 27 0 1 0 1
0 -99 2 0 0 0 1 27 0 1 0 1
0 -99 6 0 0 0 1 27 0 1 0 1
phys
0 -99 2 112 0 0 1 27 0 1 0 1
0 -99 6 0 0 0 1 27 0 1 0 1
0 -99 6 108 0 0 1 27 0 1 0 1
phys
0 -99 2 0 0 0 1 27 0 1 0 1
0 -109 2 0 0 0 1 27 0 1 0 1
0 -109 6 0 0 0 1 27 0 1 0 1
phys
0 -99 2 0 0 0 1 27 0 1 0 1
0 -109 6 0 0 0 1 27 0 1 0 1
0 -99 6 0 0 0 1 27 0 1 0 1
phys
0 -109 2 112 0 0 1 27 0 1 0 1
0 -99 2 112 0 0 1 27 0 1 0 1
0 -99 6 108 0 0 1 27 0 1 0 1
phys
0 -109 2 112 0 0 1 27 0 1 0 1
0 -99 6 108 0 0 1 27 0 1 0 1
0 -109 6 108 0 0 1 27 0 1 0 1
phys
0 -111 -58 160 0 0 1 28 0 1 0 1
0 -111 -50 160 0 0 1 28 0 1 0 1
0 -111 -50 162 0 0 1 28 0 1 0 1
phys
0 -111 -58 160 0 0 1 28 0 1 0 1
0 -111 -50 162 0 0 1 28 0 1 0 1
0 -111 -58 162 0 0 1 28 0 1 0 1
phys
0 -198 -50 160 0 0 1 28 0 1 0 1
0 -111 -50 160 0 0 1 28 0 1 0 1
0 -111 -58 160 0 0 1 28 0 1 0 1
phys
0 -198 -50 160 0 0 1 28 0 1 0 1
0 -111 -58 160 0 0 1 28 0 1 0 1
0 -198 -58 160 0 0 1 28 0 1 0 1
phys
0 -198 -58 162 0 0 1 28 0 1 0 1
0 -111 -58 162 0 0 1 28 0 1 0 1
0 -111 -50 162 0 0 1 28 0 1 0 1
phys
0 -198 -58 162 0 0 1 28 0 1 0 1
0 -111 -50 162 0 0 1 28 0 1 0 1
0 -198 -50 162 0 0 1 28 0 1 0 1
phys
0 -111 -50 162 0 0 1 28 0 1 0 1
0 -111 -50 160 0 0 1 28 0 1 0 1
0 -198 -50 160 0 0 1 28 0 1 0 1
phys
0 -111 -50 162 0 0 1 28 0 1 0 1
0 -198 -50 160 0 0 1 28 0 1 0 1
0 -198 -50 162 0 0 1 28 0 1 0 1
phys
0 -111 -58 160 0 0 1 28 0 1 0 1
0 -111 -58 162 0 0 1 28 0 1 0 1
0 -198 -58 162 0 0 1 28 0 1 0 1
phys
0 -111 -58 160 0 0 1 28 0 1 0 1
0 -198 -58 162 0 0 1 28 0 1 0 1
0 -198 -58 160 0 0 1 28 0 1 0 1
phys
0 -198 -58 162 0 0 1 28 0 1 0 1
0 -198 -50 162 0 0 1 28 0 1 0 1
0 -198 -50 160 0 0 1 28 0 1 0 1
phys
0 -198 -58 162 0 0 1 28 0 1 0 1
0 -198 -50 160 0 0 1 28 0 1 0 1
0 -198 -58 160 0 0 1 28 0 1 0 1
phys
0 135 -50 247 0 0 1 29 0 1 0 1
0 135 -50 245 0 0 1 29 0 1 0 1
0 -44 -50 245 0 0 1 29 0 1 0 1
phys
0 135 -50 247 0 0 1 29 0 1 0 1
0 -44 -50 245 0 0 1 29 0 1 0 1
0 -44 -50 247 0 0 1 29 0 1 0 1
phys
0 135 -58 245 0 0 1 29 0 1 0 1
0 135 -58 247 0 0 1 29 0 1 0 1
0 -44 -58 247 0 0 1 29 0 1 0 1
phys
0 135 -58 245 0 0 1 29 0 1 0 1
0 -44 -58 247 0 0 1 29 0 1 0 1
0 -44 -58 245 0 0 1 29 0 1 0 1
phys
0 -44 -58 245 0 0 1 29 0 1 0 1
0 -44 -58 247 0 0 1 29 0 1 0 1
0 -44 -50 247 0 0 1 29 0 1 0 1
phys
0 -44 -58 245 0 0 1 29 0 1 0 1
0 -44 -50 247 0 0 1 29 0 1 0 1
0 -44 -50 245 0 0 1 29 0 1 0 1
phys
0 135 -58 247 0 0 1 29 0 1 0 1
0 135 -58 245 0 0 1 29 0 1 0 1
0 135 -50 245 0 0 1 29 0 1 0 1
phys
0 135 -58 247 0 0 1 29 0 1 0 1
0 135 -50 245 0 0 1 29 0 1 0 1
0 135 -50 247 0 0 1 29 0 1 0 1
phys
0 135 -58 245 0 0 1 29 0 1 0 1
0 -44 -58 245 0 0 1 29 0 1 0 1
0 -44 -50 245 0 0 1 29 0 1 0 1
phys
0 135 -58 245 0 0 1 29 0 1 0 1
0 -44 -50 245 0 0 1 29 0 1 0 1
0 135 -50 245 0 0 1 29 0 1 0 1
phys
0 -44 -58 247 0 0 1 29 0 1 0 1
0 135 -58 247 0 0 1 29 0 1 0 1
0 135 -50 247 0 0 1 29 0 1 0 1
phys
0 -44 -58 247 0 0 1 29 0 1 0 1
0 135 -50 247 0 0 1 29 0 1 0 1
0 -44 -50 247 0 0 1 29 0 1 0 1
phys
0 34 -52 11 0 0 1 30 0 1 0 1
0 34 -52 0 0 0 1 30 0 1 0 1
0 -93 -52 0 0 0 1 30 0 1 0 1
phys
0 34 -52 11 0 0 1 30 0 1 0 1
0 -93 -52 0 0 0 1 30 0 1 0 1
0 -93 -52 11 0 0 1 30 0 1 0 1
phys
0 34 -58 0 0 0 1 30 0 1 0 1
0 34 -58 11 0 0 1 30 0 1 0 1
0 -93 -58 11 0 0 1 30 0 1 0 1
phys
0 34 -58 0 0 0 1 30 0 1 0 1
0 -93 -58 11 0 0 1 30 0 1 0 1
0 -93 -58 0 0 0 1 30 0 1 0 1
phys
0 -93 -58 0 0 0 1 30 0 1 0 1
0 -93 -58 11 0 0 1 30 0 1 0 1
0 -93 -52 11 0 0 1 30 0 1 0 1
phys
0 -93 -58 0 0 0 1 30 0 1 0 1
0 -93 -52 11 0 0 1 30 0 1 0 1
0 -93 -52 0 0 0 1 30 0 1 0 1
phys
0 34 -58 11 0 0 1 30 0 1 0 1
0 34 -58 0 0 0 1 30 0 1 0 1
0 34 -52 0 0 0 1 30 0 1 0 1
phys
0 34 -58 11 0 0 1 30 0 1 0 1
0 34 -52 0 0 0 1 30 0 1 0 1
0 34 -52 11 0 0 1 30 0 1 0 1
phys
0 34 -58 0 0 0 1 30 0 1 0 1
0 -93 -58 0 0 0 1 30 0 1 0 1
0 -93 -52 0 0 0 1 30 0 1 0 1
phys
0 34 -58 0 0 0 1 30 0 1 0 1
0 -93 -52 0 0 0 1 30 0 1 0 1
0 34 -52 0 0 0 1 30 0 1 0 1
phys
0 -93 -58 11 0 0 1 30 0 1 0 1
0 34 -58 11 0 0 1 30 0 1 0 1
0 34 -52 11 0 0 1 30 0 1 0 1
phys
0 -93 -58 11 0 0 1 30 0 1 0 1
0 34 -52 11 0 0 1 30 0 1 0 1
0 -93 -52 11 0 0 1 30 0 1 0 1
phys
0 -99 58 112.001 0 0 1 31 0 1 0 1
0 -99 58 0 0 0 1 31 0 1 0 1
0 -109 58 0 0 0 1 31 0 1 0 1
phys
0 -99 58 112.001 0 0 1 31 0 1 0 1
0 -109 58 0 0 0 1 31 0 1 0 1
0 -109 58 112.001 0 0 1 31 0 1 0 1
phys
0 -99 54 0 0 0 1 31 0 1 0 1
0 -99 54 108.001 0 0 1 31 0 1 0 1
0 -109 54 108.001 0 0 1 31 0 1 0 1
phys
0 -99 54 0 0 0 1 31 0 1 0 1
0 -109 54 108.001 0 0 1 31 0 1 0 1
0 -109 54 0 0 0 1 31 0 1 0 1
phys
0 -109 54 0 0 0 1 31 0 1 0 1
0 -109 54 108.001 0 0 1 31 0 1 0 1
0 -109 58 112.001 0 0 1 31 0 1 0 1
phys
0 -109 54 0 0 0 1 31 0 1 0 1
0 -109 58 112.001 0 0 1 31 0 1 0 1
0 -109 58 0 0 0 1 31 0 1 0 1
phys
0 -99 54 108.001 0 0 1 31 0 1 0 1
0 -99 54 0 0 0 1 31 0 1 0 1
0 -99 58 0 0 0 1 31 0 1 0 1
phys
0 -99 54 108.001 0 0 1 31 0 1 0 1
0 -99 58 0 0 0 1 31 0 1 0 1
0 -99 58 112.001 0 0 1 31 0 1 0 1
phys
0 -99 54 0 0 0 1 31 0 1 0 1
0 -109 54 0 0 0 1 31 0 1 0 1
0 -109 58 0 0 0 1 31 0 1 0 1
phys
0 -99 54 0 0 0 1 31 0 1 0 1
0 -109 58 0 0 0 1 31 0 1 0 1
0 -99 58 0 0 0 1 31 0 1 0 1
phys
0 -109 54 108.001 0 0 1 31 0 1 0 1
0 -99 54 108.001 0 0 1 31 0 1 0 1
0 -99 58 112.001 0 0 1 31 0 1 0 1
phys
0 -109 54 108.001 0 0 1 31 0 1 0 1
0 -99 58 112.001 0 0 1 31 0 1 0 1
0 -109 58 112.001 0 0 1 31 0 1 0 1
phys
0 199 58 112.001 0 0 1 32 0 1 0 1
0 199 54 108.001 0 0 1 32 0 1 0 1
0 199 54 0 0 0 1 32 0 1 0 1
phys
0 199 58 112.001 0 0 1 32 0 1 0 1
0 199 54 0 0 0 1 32 0 1 0 1
0 199 58 0 0 0 1 32 0 1 0 1
phys
0 189 58 0 0 0 1 32 0 1 0 1
0 199 58 0 0 0 1 32 0 1 0 1
0 199 54 0 0 0 1 32 0 1 0 1
phys
0 189 58 0 0 0 1 32 0 1 0 1
0 199 54 0 0 0 1 32 0 1 0 1
0 189 54 0 0 0 1 32 0 1 0 1
phys
0 189 54 108.001 0 0 1 32 0 1 0 1
0 199 54 108.001 0 0 1 32 0 1 0 1
0 199 58 112.001 0 0 1 32 0 1 0 1
phys
0 189 54 108.001 0 0 1 32 0 1 0 1
0 199 58 112.001 0 0 1 32 0 1 0 1
0 189 58 112.001 0 0 1 32 0 1 0 1
phys
0 199 58 112.001 0 0 1 32 0 1 0 1
0 199 58 0 0 0 1 32 0 1 0 1
0 189 58 0 0 0 1 32 0 1 0 1
phys
0 199 58 112.001 0 0 1 32 0 1 0 1
0 189 58 0 0 0 1 32 0 1 0 1
0 189 58 112.001 0 0 1 32 0 1 0 1
phys
0 199 54 0 0 0 1 32 0 1 0 1
0 199 54 108.001 0 0 1 32 0 1 0 1
0 189 54 108.001 0 0 1 32 0 1 0 1
phys
0 199 54 0 0 0 1 32 0 1 0 1
0 189 54 108.001 0 0 1 32 0 1 0 1
0 189 54 0 0 0 1 32 0 1 0 1
phys
0 189 58 0 0 0 1 32 0 1 0 1
0 189 54 0 0 0 1 32 0 1 0 1
0 189 54 108.001 0 0 1 32 0 1 0 1
phys
0 189 58 0 0 0 1 32 0 1 0 1
0 189 54 108.001 0 0 1 32 0 1 0 1
0 189 58 112.001 0 0 1 32 0 1 0 1
phys
0 189 -52 43 0 0 1 33 0 1 0 1
0 189 -52 0 0 0 1 33 0 1 0 1
0 183 -52 0 0 0 1 33 0 1 0 1
phys
0 189 -52 43 0 0 1 33 0 1 0 1
0 183 -52 0 0 0 1 33 0 1 0 1
0 183 -52 43 0 0 1 33 0 1 0 1
phys
0 189 -58 0 0 0 1 33 0 1 0 1
0 189 -58 43 0 0 1 33 0 1 0 1
0 183 -58 43 0 0 1 33 0 1 0 1
phys
0 189 -58 0 0 0 1 33 0 1 0 1
0 183 -58 43 0 0 1 33 0 1 0 1
0 183 -58 0 0 0 1 33 0 1 0 1
phys
0 183 -58 0 0 0 1 33 0 1 0 1
0 183 -58 43 0 0 1 33 0 1 0 1
0 183 -52 43 0 0 1 33 0 1 0 1
phys
0 183 -58 0 0 0 1 33 0 1 0 1
0 183 -52 43 0 0 1 33 0 1 0 1
0 183 -52 0 0 0 1 33 0 1 0 1
phys
0 189 -58 43 0 0 1 33 0 1 0 1
0 189 -58 0 0 0 1 33 0 1 0 1
0 189 -52 0 0 0 1 33 0 1 0 1
phys
0 189 -58 43 0 0 1 33 0 1 0 1
0 189 -52 0 0 0 1 33 0 1 0 1
0 189 -52 43 0 0 1 33 0 1 0 1
phys
0 189 -58 0 0 0 1 33 0 1 0 1
0 183 -58 0 0 0 1 33 0 1 0 1
0 183 -52 0 0 0 1 33 0 1 0 1
phys
0 189 -58 0 0 0 1 33 0 1 0 1
0 183 -52 0 0 0 1 33 0 1 0 1
0 189 -52 0 0 0 1 33 0 1 0 1
phys
0 183 -58 43 0 0 1 33 0 1 0 1
0 189 -58 43 0 0 1 33 0 1 0 1
0 189 -52 43 0 0 1 33 0 1 0 1
phys
0 183 -58 43 0 0 1 33 0 1 0 1
0 189 -52 43 0 0 1 33 0 1 0 1
0 183 -52 43 0 0 1 33 0 1 0 1
phys
0 -111 -58 32 0 0 1 34 0 1 0 1
0 -111 -50 32 0 0 1 34 0 1 0 1
0 -111 -50 34 0 0 1 34 0 1 0 1
phys
0 -111 -58 32 0 0 1 34 0 1 0 1
0 -111 -50 34 0 0 1 34 0 1 0 1
0 -111 -58 34 0 0 1 34 0 1 0 1
phys
0 -198 -50 32 0 0 1 34 0 1 0 1
0 -111 -50 32 0 0 1 34 0 1 0 1
0 -111 -58 32 0 0 1 34 0 1 0 1
phys
0 -198 -50 32 0 0 1 34 0 1 0 1
0 -111 -58 32 0 0 1 34 0 1 0 1
0 -198 -58 32 0 0 1 34 0 1 0 1
phys
0 -198 -58 34 0 0 1 34 0 1 0 1
0 -111 -58 34 0 0 1 34 0 1 0 1
0 -111 -50 34 0 0 1 34 0 1 0 1
phys
0 -198 -58 34 0 0 1 34 0 1 0 1
0 -111 -50 34 0 0 1 34 0 1 0 1
0 -198 -50 34 0 0 1 34 0 1 0 1
phys
0 -111 -50 34 0 0 1 34 0 1 0 1
0 -111 -50 32 0 0 1 34 0 1 0 1
0 -198 -50 32 0 0 1 34 0 1 0 1
phys
0 -111 -50 34 0 0 1 34 0 1 0 1
0 -198 -50 32 0 0 1 34 0 1 0 1
0 -198 -50 34 0 0 1 34 0 1 0 1
phys
0 -111 -58 32 0 0 1 34 0 1 0 1
0 -111 -58 34 0 0 1 34 0 1 0 1
0 -198 -58 34 0 0 1 34 0 1 0 1
phys
0 -111 -58 32 0 0 1 34 0 1 0 1
0 -198 -58 34 0 0 1 34 0 1 0 1
0 -198 -58 32 0 0 1 34 0 1 0 1
phys
0 -198 -58 34 0 0 1 34 0 1 0 1
0 -198 -50 34 0 0 1 34 0 1 0 1
0 -198 -50 32 0 0 1 34 0 1 0 1
phys
0 -198 -58 34 0 0 1 34 0 1 0 1
0 -198 -50 32 0 0 1 34 0 1 0 1
0 -198 -58 32 0 0 1 34 0 1 0 1
phys
0 -109 2 112 0 0 1 35 0 1 0 1
0 -109 58 112 0 0 1 35 0 1 0 1
0 -109 54 108 0 0 1 35 0 1 0 1
phys
0 -109 2 112 0 0 1 35 0 1 0 1
0 -109 54 108 0 0 1 35 0 1 0 1
0 -109 6 108 0 0 1 35 0 1 0 1
phys
0 -99 6 108 0 0 1 35 0 1 0 1
0 -99 54 108 0 0 1 35 0 1 0 1
0 -99 58 112 0 0 1 35 0 1 0 1
phys
0 -99 6 108 0 0 1 35 0 1 0 1
0 -99 58 112 0 0 1 35 0 1 0 1
0 -99 2 112 0 0 1 35 0 1 0 1
phys
0 -109 6 108 0 0 1 35 0 1 0 1
0 -109 54 108 0 0 1 35 0 1 0 1
0 -99 54 108 0 0 1 35 0 1 0 1
phys
0 -109 6 108 0 0 1 35 0 1 0 1
0 -99 54 108 0 0 1 35 0 1 0 1
0 -99 6 108 0 0 1 35 0 1 0 1
phys
0 -99 2 112 0 0 1 35 0 1 0 1
0 -99 58 112 0 0 1 35 0 1 0 1
0 -109 58 112 0 0 1 35 0 1 0 1
phys
0 -99 2 112 0 0 1 35 0 1 0 1
0 -109 58 112 0 0 1 35 0 1 0 1
0 -109 2 112 0 0 1 35 0 1 0 1
phys
0 -109 2 112 0 0 1 35 0 1 0 1
0 -109 6 108 0 0 1 35 0 1 0 1
0 -99 6 108 0 0 1 35 0 1 0 1
phys
0 -109 2 112 0 0 1 35 0 1 0 1
0 -99 6 108 0 0 1 35 0 1 0 1
0 -99 2 112 0 0 1 35 0 1 0 1
phys
0 -109 54 108 0 0 1 35 0 1 0 1
0 -109 58 112 0 0 1 35 0 1 0 1
0 -99 58 112 0 0 1 35 0 1 0 1
phys
0 -109 54 108 0 0 1 35 0 1 0 1
0 -99 58 112 0 0 1 35 0 1 0 1
0 -99 54 108 0 0 1 35 0 1 0 1
phys
0 -109 -50 117 0 0 1 36 0 1 0 1
0 -109 -50 2 0 0 1 36 0 1 0 1
0 -111 -50 2 0 0 1 36 0 1 0 1
phys
0 -109 -50 117 0 0 1 36 0 1 0 1
0 -111 -50 2 0 0 1 36 0 1 0 1
0 -111 -50 117 0 0 1 36 0 1 0 1
phys
0 -109 -58 2 0 0 1 36 0 1 0 1
0 -109 -58 117 0 0 1 36 0 1 0 1
0 -111 -58 117 0 0 1 36 0 1 0 1
phys
0 -109 -58 2 0 0 1 36 0 1 0 1
0 -111 -58 117 0 0 1 36 0 1 0 1
0 -111 -58 2 0 0 1 36 0 1 0 1
phys
0 -111 -58 2 0 0 1 36 0 1 0 1
0 -111 -58 117 0 0 1 36 0 1 0 1
0 -111 -50 117 0 0 1 36 0 1 0 1
phys
0 -111 -58 2 0 0 1 36 0 1 0 1
0 -111 -50 117 0 0 1 36 0 1 0 1
0 -111 -50 2 0 0 1 36 0 1 0 1
phys
0 -109 -58 117 0 0 1 36 0 1 0 1
0 -109 -58 2 0 0 1 36 0 1 0 1
0 -109 -50 2 0 0 1 36 0 1 0 1
phys
0 -109 -58 117 0 0 1 36 0 1 0 1
0 -109 -50 2 0 0 1 36 0 1 0 1
0 -109 -50 117 0 0 1 36 0 1 0 1
phys
0 -109 -58 2 0 0 1 36 0 1 0 1
0 -111 -58 2 0 0 1 36 0 1 0 1
0 -111 -50 2 0 0 1 36 0 1 0 1
phys
0 -109 -58 2 0 0 1 36 0 1 0 1
0 -111 -50 2 0 0 1 36 0 1 0 1
0 -109 -50 2 0 0 1 36 0 1 0 1
phys
0 -111 -58 117 0 0 1 36 0 1 0 1
0 -109 -58 117 0 0 1 36 0 1 0 1
0 -109 -50 117 0 0 1 36 0 1 0 1
phys
0 -111 -58 117 0 0 1 36 0 1 0 1
0 -109 -50 117 0 0 1 36 0 1 0 1
0 -111 -50 117 0 0 1 36 0 1 0 1
phys
0 -286 -58 34 0 0 1 37 0 1 0 1
0 -200 -58 34 0 0 1 37 0 1 0 1
0 -200 -50 34 0 0 1 37 0 1 0 1
phys
0 -286 -58 34 0 0 1 37 0 1 0 1
0 -200 -50 34 0 0 1 37 0 1 0 1
0 -286 -50 34 0 0 1 37 0 1 0 1
phys
0 -286 -50 32 0 0 1 37 0 1 0 1
0 -286 -50 34 0 0 1 37 0 1 0 1
0 -200 -50 34 0 0 1 37 0 1 0 1
phys
0 -286 -50 32 0 0 1 37 0 1 0 1
0 -200 -50 34 0 0 1 37 0 1 0 1
0 -200 -50 32 0 0 1 37 0 1 0 1
phys
0 -200 -58 32 0 0 1 37 0 1 0 1
0 -200 -58 34 0 0 1 37 0 1 0 1
0 -286 -58 34 0 0 1 37 0 1 0 1
phys
0 -200 -58 32 0 0 1 37 0 1 0 1
0 -286 -58 34 0 0 1 37 0 1 0 1
0 -286 -58 32 0 0 1 37 0 1 0 1
phys
0 -286 -58 32 0 0 1 37 0 1 0 1
0 -286 -58 34 0 0 1 37 0 1 0 1
0 -286 -50 34 0 0 1 37 0 1 0 1
phys
0 -286 -58 32 0 0 1 37 0 1 0 1
0 -286 -50 34 0 0 1 37 0 1 0 1
0 -286 -50 32 0 0 1 37 0 1 0 1
phys
0 -200 -50 32 0 0 1 37 0 1 0 1
0 -200 -50 34 0 0 1 37 0 1 0 1
0 -200 -58 34 0 0 1 37 0 1 0 1
phys
0 -200 -50 32 0 0 1 37 0 1 0 1
0 -200 -58 34 0 0 1 37 0 1 0 1
0 -200 -58 32 0 0 1 37 0 1 0 1
phys
0 -200 -58 32 0 0 1 37 0 1 0 1
0 -286 -58 32 0 0 1 37 0 1 0 1
0 -286 -50 32 0 0 1 37 0 1 0 1
phys
0 -200 -58 32 0 0 1 37 0 1 0 1
0 -286 -50 32 0 0 1 37 0 1 0 1
0 -200 -50 32 0 0 1 37 0 1 0 1
phys
0 201 -58 34 0 0 1 38 0 1 0 1
0 287 -58 34 0 0 1 38 0 1 0 1
0 287 -50 34 0 0 1 38 0 1 0 1
phys
0 201 -58 34 0 0 1 38 0 1 0 1
0 287 -50 34 0 0 1 38 0 1 0 1
0 201 -50 34 0 0 1 38 0 1 0 1
phys
0 201 -50 32 0 0 1 38 0 1 0 1
0 201 -50 34 0 0 1 38 0 1 0 1
0 287 -50 34 0 0 1 38 0 1 0 1
phys
0 201 -50 32 0 0 1 38 0 1 0 1
0 287 -50 34 0 0 1 38 0 1 0 1
0 287 -50 32 0 0 1 38 0 1 0 1
phys
0 287 -58 32 0 0 1 38 0 1 0 1
0 287 -58 34 0 0 1 38 0 1 0 1
0 201 -58 34 0 0 1 38 0 1 0 1
phys
0 287 -58 32 0 0 1 38 0 1 0 1
0 201 -58 34 0 0 1 38 0 1 0 1
0 201 -58 32 0 0 1 38 0 1 0 1
phys
0 201 -58 32 0 0 1 38 0 1 0 1
0 201 -58 34 0 0 1 38 0 1 0 1
0 201 -50 34 0 0 1 38 0 1 0 1
phys
0 201 -58 32 0 0 1 38 0 1 0 1
0 201 -50 34 0 0 1 38 0 1 0 1
0 201 -50 32 0 0 1 38 0 1 0 1
phys
0 287 -50 32 0 0 1 38 0 1 0 1
0 287 -50 34 0 0 1 38 0 1 0 1
0 287 -58 34 0 0 1 38 0 1 0 1
phys
0 287 -50 32 0 0 1 38 0 1 0 1
0 287 -58 34 0 0 1 38 0 1 0 1
0 287 -58 32 0 0 1 38 0 1 0 1
phys
0 287 -58 32 0 0 1 38 0 1 0 1
0 201 -58 32 0 0 1 38 0 1 0 1
0 201 -50 32 0 0 1 38 0 1 0 1
phys
0 287 -58 32 0 0 1 38 0 1 0 1
0 201 -50 32 0 0 1 38 0 1 0 1
0 287 -50 32 0 0 1 38 0 1 0 1
phys
0 -198 -50 245 0 0 1 39 0 1 0 1
0 -198 -50 130 0 0 1 39 0 1 0 1
0 -200 -50 130 0 0 1 39 0 1 0 1
phys
0 -198 -50 245 0 0 1 39 0 1 0 1
0 -200 -50 130 0 0 1 39 0 1 0 1
0 -200 -50 245 0 0 1 39 0 1 0 1
phys
0 -198 -58 130 0 0 1 39 0 1 0 1
0 -198 -58 245 0 0 1 39 0 1 0 1
0 -200 -58 245 0 0 1 39 0 1 0 1
phys
0 -198 -58 130 0 0 1 39 0 1 0 1
0 -200 -58 245 0 0 1 39 0 1 0 1
0 -200 -58 130 0 0 1 39 0 1 0 1
phys
0 -200 -58 130 0 0 1 39 0 1 0 1
0 -200 -58 245 0 0 1 39 0 1 0 1
0 -200 -50 245 0 0 1 39 0 1 0 1
phys
0 -200 -58 130 0 0 1 39 0 1 0 1
0 -200 -50 245 0 0 1 39 0 1 0 1
0 -200 -50 130 0 0 1 39 0 1 0 1
phys
0 -198 -58 245 0 0 1 39 0 1 0 1
0 -198 -58 130 0 0 1 39 0 1 0 1
0 -198 -50 130 0 0 1 39 0 1 0 1
phys
0 -198 -58 245 0 0 1 39 0 1 0 1
0 -198 -50 130 0 0 1 39 0 1 0 1
0 -198 -50 245 0 0 1 39 0 1 0 1
phys
0 -198 -58 130 0 0 1 39 0 1 0 1
0 -200 -58 130 0 0 1 39 0 1 0 1
0 -200 -50 130 0 0 1 39 0 1 0 1
phys
0 -198 -58 130 0 0 1 39 0 1 0 1
0 -200 -50 130 0 0 1 39 0 1 0 1
0 -198 -50 130 0 0 1 39 0 1 0 1
phys
0 -200 -58 245 0 0 1 39 0 1 0 1
0 -198 -58 245 0 0 1 39 0 1 0 1
0 -198 -50 245 0 0 1 39 0 1 0 1
phys
0 -200 -58 245 0 0 1 39 0 1 0 1
0 -198 -50 245 0 0 1 39 0 1 0 1
0 -200 -50 245 0 0 1 39 0 1 0 1
phys
0 -111 -55 2 0 0 1 40 0 1 0 1
0 -111 -55 117 0 0 1 40 0 1 0 1
0 -286 -55 117 0 0 1 40 0 1 0 1
phys
0 -111 -55 2 0 0 1 40 0 1 0 1
0 -286 -55 117 0 0 1 40 0 1 0 1
0 -286 -55 2 0 0 1 40 0 1 0 1
phys
0 -286 -55 2 0 0 1 40 0 1 0 1
0 -286 -55 117 0 0 1 40 0 1 0 1
0 -286 -53 117 0 0 1 40 0 1 0 1
phys
0 -286 -55 2 0 0 1 40 0 1 0 1
0 -286 -53 117 0 0 1 40 0 1 0 1
0 -286 -53 2 0 0 1 40 0 1 0 1
phys
0 -111 -55 117 0 0 1 40 0 1 0 1
0 -111 -55 2 0 0 1 40 0 1 0 1
0 -111 -53 2 0 0 1 40 0 1 0 1
phys
0 -111 -55 117 0 0 1 40 0 1 0 1
0 -111 -53 2 0 0 1 40 0 1 0 1
0 -111 -53 117 0 0 1 40 0 1 0 1
phys
0 -111 -55 2 0 0 1 40 0 1 0 1
0 -286 -55 2 0 0 1 40 0 1 0 1
0 -286 -53 2 0 0 1 40 0 1 0 1
phys
0 -111 -55 2 0 0 1 40 0 1 0 1
0 -286 -53 2 0 0 1 40 0 1 0 1
0 -111 -53 2 0 0 1 40 0 1 0 1
phys
0 -286 -55 117 0 0 1 40 0 1 0 1
0 -111 -55 117 0 0 1 40 0 1 0 1
0 -111 -53 117 0 0 1 40 0 1 0 1
phys
0 -286 -55 117 0 0 1 40 0 1 0 1
0 -111 -53 117 0 0 1 40 0 1 0 1
0 -286 -53 117 0 0 1 40 0 1 0 1
phys
0 -111 -53 117 0 0 1 40 0 1 0 1
0 -111 -53 2 0 0 1 40 0 1 0 1
0 -286 -53 2 0 0 1 40 0 1 0 1
phys
0 -111 -53 117 0 0 1 40 0 1 0 1
0 -286 -53 2 0 0 1 40 0 1 0 1
0 -286 -53 117 0 0 1 40 0 1 0 1
end
