version 1
nodes
0 "root" -1
end
skeleton
time 0
0 0 0 0 0 0 0
end
triangles
phys
0 88.37 47.71 120.108 0 0 1 1 0 1 0 1
0 88.37 67.71 120.108 0 0 1 1 0 1 0 1
0 88.37 67.71 0.108 0 0 1 1 0 1 0 1
phys
0 88.37 47.71 120.108 0 0 1 1 0 1 0 1
0 88.37 67.71 0.108 0 0 1 1 0 1 0 1
0 88.37 47.71 0.108 0 0 1 1 0 1 0 1
phys
0 96.37 55.71 0.108 0 0 1 1 0 1 0 1
0 96.37 67.71 0.108 0 0 1 1 0 1 0 1
0 96.37 67.71 120.108 0 0 1 1 0 1 0 1
phys
0 96.37 55.71 0.108 0 0 1 1 0 1 0 1
0 96.37 67.71 120.108 0 0 1 1 0 1 0 1
0 96.37 55.71 120.108 0 0 1 1 0 1 0 1
phys
0 88.37 47.71 0.108 0 0 1 1 0 1 0 1
0 88.37 67.71 0.108 0 0 1 1 0 1 0 1
0 96.37 67.71 0.108 0 0 1 1 0 1 0 1
phys
0 88.37 47.71 0.108 0 0 1 1 0 1 0 1
0 96.37 67.71 0.108 0 0 1 1 0 1 0 1
0 96.37 55.71 0.108 0 0 1 1 0 1 0 1
phys
0 96.37 55.71 120.108 0 0 1 1 0 1 0 1
0 96.37 67.71 120.108 0 0 1 1 0 1 0 1
0 88.37 67.71 120.108 0 0 1 1 0 1 0 1
phys
0 96.37 55.71 120.108 0 0 1 1 0 1 0 1
0 88.37 67.71 120.108 0 0 1 1 0 1 0 1
0 88.37 47.71 120.108 0 0 1 1 0 1 0 1
phys
0 88.37 47.71 120.108 0 0 1 1 0 1 0 1
0 88.37 47.71 0.108 0 0 1 1 0 1 0 1
0 96.37 55.71 0.108 0 0 1 1 0 1 0 1
phys
0 88.37 47.71 120.108 0 0 1 1 0 1 0 1
0 96.37 55.71 0.108 0 0 1 1 0 1 0 1
0 96.37 55.71 120.108 0 0 1 1 0 1 0 1
phys
0 96.37 67.71 120.108 0 0 1 1 0 1 0 1
0 96.37 67.71 0.108 0 0 1 1 0 1 0 1
0 88.37 67.71 0.108 0 0 1 1 0 1 0 1
phys
0 96.37 67.71 120.108 0 0 1 1 0 1 0 1
0 88.37 67.71 0.108 0 0 1 1 0 1 0 1
0 88.37 67.71 120.108 0 0 1 1 0 1 0 1
phys
0 -7.62 47.71 0.108 0 0 1 2 0 1 0 1
0 -7.62 47.71 120.108 0 0 1 2 0 1 0 1
0 -15.63 55.71 120.108 0 0 1 2 0 1 0 1
phys
0 -7.62 47.71 0.108 0 0 1 2 0 1 0 1
0 -15.63 55.71 120.108 0 0 1 2 0 1 0 1
0 -15.63 55.71 0.108 0 0 1 2 0 1 0 1
phys
0 -7.62 67.71 120.108 0 0 1 2 0 1 0 1
0 -7.62 67.71 0.108 0 0 1 2 0 1 0 1
0 -15.63 67.71 0.108 0 0 1 2 0 1 0 1
phys
0 -7.62 67.71 120.108 0 0 1 2 0 1 0 1
0 -15.63 67.71 0.108 0 0 1 2 0 1 0 1
0 -15.63 67.71 120.108 0 0 1 2 0 1 0 1
phys
0 -15.63 55.71 0.108 0 0 1 2 0 1 0 1
0 -15.63 55.71 120.108 0 0 1 2 0 1 0 1
0 -15.63 67.71 120.108 0 0 1 2 0 1 0 1
phys
0 -15.63 55.71 0.108 0 0 1 2 0 1 0 1
0 -15.63 67.71 120.108 0 0 1 2 0 1 0 1
0 -15.63 67.71 0.108 0 0 1 2 0 1 0 1
phys
0 -7.62 47.71 120.108 0 0 1 2 0 1 0 1
0 -7.62 47.71 0.108 0 0 1 2 0 1 0 1
0 -7.62 67.71 0.108 0 0 1 2 0 1 0 1
phys
0 -7.62 47.71 120.108 0 0 1 2 0 1 0 1
0 -7.62 67.71 0.108 0 0 1 2 0 1 0 1
0 -7.62 67.71 120.108 0 0 1 2 0 1 0 1
phys
0 -7.62 47.71 0.108 0 0 1 2 0 1 0 1
0 -15.63 55.71 0.108 0 0 1 2 0 1 0 1
0 -15.63 67.71 0.108 0 0 1 2 0 1 0 1
phys
0 -7.62 47.71 0.108 0 0 1 2 0 1 0 1
0 -15.63 67.71 0.108 0 0 1 2 0 1 0 1
0 -7.62 67.71 0.108 0 0 1 2 0 1 0 1
phys
0 -15.63 55.71 120.108 0 0 1 2 0 1 0 1
0 -7.62 47.71 120.108 0 0 1 2 0 1 0 1
0 -7.62 67.71 120.108 0 0 1 2 0 1 0 1
phys
0 -15.63 55.71 120.108 0 0 1 2 0 1 0 1
0 -7.62 67.71 120.108 0 0 1 2 0 1 0 1
0 -15.63 67.71 120.108 0 0 1 2 0 1 0 1
phys
0 -79.63 111.71 64.108 0 0 1 3 0 1 0 1
0 -79.63 111.71 0.108 0 0 1 3 0 1 0 1
0 -87.63 111.71 0.108 0 0 1 3 0 1 0 1
phys
0 -79.63 111.71 64.108 0 0 1 3 0 1 0 1
0 -87.63 111.71 0.108 0 0 1 3 0 1 0 1
0 -87.63 111.71 64.108 0 0 1 3 0 1 0 1
phys
0 -79.63 55.71 0.108 0 0 1 3 0 1 0 1
0 -79.63 55.71 64.108 0 0 1 3 0 1 0 1
0 -87.63 55.71 64.108 0 0 1 3 0 1 0 1
phys
0 -79.63 55.71 0.108 0 0 1 3 0 1 0 1
0 -87.63 55.71 64.108 0 0 1 3 0 1 0 1
0 -87.63 55.71 0.108 0 0 1 3 0 1 0 1
phys
0 -87.63 55.71 0.108 0 0 1 3 0 1 0 1
0 -87.63 55.71 64.108 0 0 1 3 0 1 0 1
0 -87.63 111.71 64.108 0 0 1 3 0 1 0 1
phys
0 -87.63 55.71 0.108 0 0 1 3 0 1 0 1
0 -87.63 111.71 64.108 0 0 1 3 0 1 0 1
0 -87.63 111.71 0.108 0 0 1 3 0 1 0 1
phys
0 -79.63 55.71 64.108 0 0 1 3 0 1 0 1
0 -79.63 55.71 0.108 0 0 1 3 0 1 0 1
0 -79.63 111.71 0.108 0 0 1 3 0 1 0 1
phys
0 -79.63 55.71 64.108 0 0 1 3 0 1 0 1
0 -79.63 111.71 0.108 0 0 1 3 0 1 0 1
0 -79.63 111.71 64.108 0 0 1 3 0 1 0 1
phys
0 -79.63 55.71 0.108 0 0 1 3 0 1 0 1
0 -87.63 55.71 0.108 0 0 1 3 0 1 0 1
0 -87.63 111.71 0.108 0 0 1 3 0 1 0 1
phys
0 -79.63 55.71 0.108 0 0 1 3 0 1 0 1
0 -87.63 111.71 0.108 0 0 1 3 0 1 0 1
0 -79.63 111.71 0.108 0 0 1 3 0 1 0 1
phys
0 -87.63 55.71 64.108 0 0 1 3 0 1 0 1
0 -79.63 55.71 64.108 0 0 1 3 0 1 0 1
0 -79.63 111.71 64.108 0 0 1 3 0 1 0 1
phys
0 -87.63 55.71 64.108 0 0 1 3 0 1 0 1
0 -79.63 111.71 64.108 0 0 1 3 0 1 0 1
0 -87.63 111.71 64.108 0 0 1 3 0 1 0 1
phys
0 -15.63 55.71 0.108 0 0 1 4 0 1 0 1
0 -151.63 55.71 0.108 0 0 1 4 0 1 0 1
0 -151.63 55.71 120.108 0 0 1 4 0 1 0 1
phys
0 -15.63 55.71 0.108 0 0 1 4 0 1 0 1
0 -151.63 55.71 120.108 0 0 1 4 0 1 0 1
0 -15.63 55.71 120.108 0 0 1 4 0 1 0 1
phys
0 -7.63 47.71 120.108 0 0 1 4 0 1 0 1
0 -151.63 47.71 120.108 0 0 1 4 0 1 0 1
0 -151.63 47.71 0.108 0 0 1 4 0 1 0 1
phys
0 -7.63 47.71 120.108 0 0 1 4 0 1 0 1
0 -151.63 47.71 0.108 0 0 1 4 0 1 0 1
0 -7.63 47.71 0.108 0 0 1 4 0 1 0 1
phys
0 -151.63 47.71 0.108 0 0 1 4 0 1 0 1
0 -151.63 47.71 120.108 0 0 1 4 0 1 0 1
0 -151.63 55.71 120.108 0 0 1 4 0 1 0 1
phys
0 -151.63 47.71 0.108 0 0 1 4 0 1 0 1
0 -151.63 55.71 120.108 0 0 1 4 0 1 0 1
0 -151.63 55.71 0.108 0 0 1 4 0 1 0 1
phys
0 -7.63 47.71 0.108 0 0 1 4 0 1 0 1
0 -151.63 47.71 0.108 0 0 1 4 0 1 0 1
0 -151.63 55.71 0.108 0 0 1 4 0 1 0 1
phys
0 -7.63 47.71 0.108 0 0 1 4 0 1 0 1
0 -151.63 55.71 0.108 0 0 1 4 0 1 0 1
0 -15.63 55.71 0.108 0 0 1 4 0 1 0 1
phys
0 -151.63 47.71 120.108 0 0 1 4 0 1 0 1
0 -7.63 47.71 120.108 0 0 1 4 0 1 0 1
0 -15.63 55.71 120.108 0 0 1 4 0 1 0 1
phys
0 -151.63 47.71 120.108 0 0 1 4 0 1 0 1
0 -15.63 55.71 120.108 0 0 1 4 0 1 0 1
0 -151.63 55.71 120.108 0 0 1 4 0 1 0 1
phys
0 -7.63 47.71 120.108 0 0 1 4 0 1 0 1
0 -7.63 47.71 0.108 0 0 1 4 0 1 0 1
0 -15.63 55.71 0.108 0 0 1 4 0 1 0 1
phys
0 -7.63 47.71 120.108 0 0 1 4 0 1 0 1
0 -15.63 55.71 0.108 0 0 1 4 0 1 0 1
0 -15.63 55.71 120.108 0 0 1 4 0 1 0 1
phys
0 88.37 271.71 128.109 0 0 1 5 0 1 0 1
0 88.37 271.71 0.108 0 0 1 5 0 1 0 1
0 -7.62 271.71 0.108 0 0 1 5 0 1 0 1
phys
0 88.37 271.71 128.109 0 0 1 5 0 1 0 1
0 -7.62 271.71 0.108 0 0 1 5 0 1 0 1
0 -7.62 271.71 128.109 0 0 1 5 0 1 0 1
phys
0 -7.62 271.71 128.109 0 0 1 5 0 1 0 1
0 -7.62 271.71 0.108 0 0 1 5 0 1 0 1
0 -7.62 143.71 0.108 0 0 1 5 0 1 0 1
phys
0 88.37 143.71 0.108 0 0 1 5 0 1 0 1
0 88.37 271.71 0.108 0 0 1 5 0 1 0 1
0 88.37 271.71 128.109 0 0 1 5 0 1 0 1
phys
0 -7.62 143.71 0.108 0 0 1 5 0 1 0 1
0 -7.62 271.71 0.108 0 0 1 5 0 1 0 1
0 88.37 271.71 0.108 0 0 1 5 0 1 0 1
phys
0 -7.62 143.71 0.108 0 0 1 5 0 1 0 1
0 88.37 271.71 0.108 0 0 1 5 0 1 0 1
0 88.37 143.71 0.108 0 0 1 5 0 1 0 1
phys
0 88.37 143.71 0.108 0 0 1 5 0 1 0 1
0 88.37 271.71 128.109 0 0 1 5 0 1 0 1
0 -7.62 271.71 128.109 0 0 1 5 0 1 0 1
phys
0 88.37 143.71 0.108 0 0 1 5 0 1 0 1
0 -7.62 271.71 128.109 0 0 1 5 0 1 0 1
0 -7.62 143.71 0.108 0 0 1 5 0 1 0 1
phys
0 60.37 -264.29 108.108 0 0 1 6 0 1 0 1
0 60.37 -264.29 0.108 0 0 1 6 0 1 0 1
0 24.37 -264.29 0.108 0 0 1 6 0 1 0 1
phys
0 60.37 -264.29 108.108 0 0 1 6 0 1 0 1
0 24.37 -264.29 0.108 0 0 1 6 0 1 0 1
0 24.37 -264.29 108.108 0 0 1 6 0 1 0 1
phys
0 60.37 -272.29 0.108 0 0 1 6 0 1 0 1
0 60.37 -272.29 108.108 0 0 1 6 0 1 0 1
0 24.37 -272.29 108.108 0 0 1 6 0 1 0 1
phys
0 60.37 -272.29 0.108 0 0 1 6 0 1 0 1
0 24.37 -272.29 108.108 0 0 1 6 0 1 0 1
0 24.37 -272.29 0.108 0 0 1 6 0 1 0 1
phys
0 24.37 -272.29 0.108 0 0 1 6 0 1 0 1
0 24.37 -272.29 108.108 0 0 1 6 0 1 0 1
0 24.37 -264.29 108.108 0 0 1 6 0 1 0 1
phys
0 24.37 -272.29 0.108 0 0 1 6 0 1 0 1
0 24.37 -264.29 108.108 0 0 1 6 0 1 0 1
0 24.37 -264.29 0.108 0 0 1 6 0 1 0 1
phys
0 60.37 -272.29 108.108 0 0 1 6 0 1 0 1
0 60.37 -272.29 0.108 0 0 1 6 0 1 0 1
0 60.37 -264.29 0.108 0 0 1 6 0 1 0 1
phys
0 60.37 -272.29 108.108 0 0 1 6 0 1 0 1
0 60.37 -264.29 0.108 0 0 1 6 0 1 0 1
0 60.37 -264.29 108.108 0 0 1 6 0 1 0 1
phys
0 60.37 -272.29 0.108 0 0 1 6 0 1 0 1
0 24.37 -272.29 0.108 0 0 1 6 0 1 0 1
0 24.37 -264.29 0.108 0 0 1 6 0 1 0 1
phys
0 60.37 -272.29 0.108 0 0 1 6 0 1 0 1
0 24.37 -264.29 0.108 0 0 1 6 0 1 0 1
0 60.37 -264.29 0.108 0 0 1 6 0 1 0 1
phys
0 24.37 -272.29 108.108 0 0 1 6 0 1 0 1
0 60.37 -272.29 108.108 0 0 1 6 0 1 0 1
0 60.37 -264.29 108.108 0 0 1 6 0 1 0 1
phys
0 24.37 -272.29 108.108 0 0 1 6 0 1 0 1
0 60.37 -264.29 108.108 0 0 1 6 0 1 0 1
0 24.37 -264.29 108.108 0 0 1 6 0 1 0 1
phys
0 -103.63 -264.29 108.108 0 0 1 7 0 1 0 1
0 -103.63 -264.29 0.108 0 0 1 7 0 1 0 1
0 -151.63 -264.29 0.108 0 0 1 7 0 1 0 1
phys
0 -103.63 -264.29 108.108 0 0 1 7 0 1 0 1
0 -151.63 -264.29 0.108 0 0 1 7 0 1 0 1
0 -151.63 -264.29 108.108 0 0 1 7 0 1 0 1
phys
0 -103.63 -272.29 0.108 0 0 1 7 0 1 0 1
0 -103.63 -272.29 108.108 0 0 1 7 0 1 0 1
0 -151.63 -272.29 108.108 0 0 1 7 0 1 0 1
phys
0 -103.63 -272.29 0.108 0 0 1 7 0 1 0 1
0 -151.63 -272.29 108.108 0 0 1 7 0 1 0 1
0 -151.63 -272.29 0.108 0 0 1 7 0 1 0 1
phys
0 -151.63 -272.29 0.108 0 0 1 7 0 1 0 1
0 -151.63 -272.29 108.108 0 0 1 7 0 1 0 1
0 -151.63 -264.29 108.108 0 0 1 7 0 1 0 1
phys
0 -151.63 -272.29 0.108 0 0 1 7 0 1 0 1
0 -151.63 -264.29 108.108 0 0 1 7 0 1 0 1
0 -151.63 -264.29 0.108 0 0 1 7 0 1 0 1
phys
0 -103.63 -272.29 108.108 0 0 1 7 0 1 0 1
0 -103.63 -272.29 0.108 0 0 1 7 0 1 0 1
0 -103.63 -264.29 0.108 0 0 1 7 0 1 0 1
phys
0 -103.63 -272.29 108.108 0 0 1 7 0 1 0 1
0 -103.63 -264.29 0.108 0 0 1 7 0 1 0 1
0 -103.63 -264.29 108.108 0 0 1 7 0 1 0 1
phys
0 -103.63 -272.29 0.108 0 0 1 7 0 1 0 1
0 -151.63 -272.29 0.108 0 0 1 7 0 1 0 1
0 -151.63 -264.29 0.108 0 0 1 7 0 1 0 1
phys
0 -103.63 -272.29 0.108 0 0 1 7 0 1 0 1
0 -151.63 -264.29 0.108 0 0 1 7 0 1 0 1
0 -103.63 -264.29 0.108 0 0 1 7 0 1 0 1
phys
0 -151.63 -272.29 108.108 0 0 1 7 0 1 0 1
0 -103.63 -272.29 108.108 0 0 1 7 0 1 0 1
0 -103.63 -264.29 108.108 0 0 1 7 0 1 0 1
phys
0 -151.63 -272.29 108.108 0 0 1 7 0 1 0 1
0 -103.63 -264.29 108.108 0 0 1 7 0 1 0 1
0 -151.63 -264.29 108.108 0 0 1 7 0 1 0 1
phys
0 24.37 -272.29 0.108 0 0 1 8 0 1 0 1
0 24.37 -272.29 40.108 0 0 1 8 0 1 0 1
0 -103.63 -272.29 40.108 0 0 1 8 0 1 0 1
phys
0 24.37 -272.29 0.108 0 0 1 8 0 1 0 1
0 -103.63 -272.29 40.108 0 0 1 8 0 1 0 1
0 -103.63 -272.29 0.108 0 0 1 8 0 1 0 1
phys
0 -103.63 -272.29 0.108 0 0 1 8 0 1 0 1
0 -103.63 -272.29 40.108 0 0 1 8 0 1 0 1
0 -103.63 -264.29 40.108 0 0 1 8 0 1 0 1
phys
0 -103.63 -272.29 0.108 0 0 1 8 0 1 0 1
0 -103.63 -264.29 40.108 0 0 1 8 0 1 0 1
0 -103.63 -264.29 0.108 0 0 1 8 0 1 0 1
phys
0 24.37 -272.29 40.108 0 0 1 8 0 1 0 1
0 24.37 -272.29 0.108 0 0 1 8 0 1 0 1
0 24.37 -264.29 0.108 0 0 1 8 0 1 0 1
phys
0 24.37 -272.29 40.108 0 0 1 8 0 1 0 1
0 24.37 -264.29 0.108 0 0 1 8 0 1 0 1
0 24.37 -264.29 40.108 0 0 1 8 0 1 0 1
phys
0 24.37 -272.29 0.108 0 0 1 8 0 1 0 1
0 -103.63 -272.29 0.108 0 0 1 8 0 1 0 1
0 -103.63 -264.29 0.108 0 0 1 8 0 1 0 1
phys
0 24.37 -272.29 0.108 0 0 1 8 0 1 0 1
0 -103.63 -264.29 0.108 0 0 1 8 0 1 0 1
0 24.37 -264.29 0.108 0 0 1 8 0 1 0 1
phys
0 -103.63 -272.29 40.108 0 0 1 8 0 1 0 1
0 24.37 -272.29 40.108 0 0 1 8 0 1 0 1
0 24.37 -264.29 40.108 0 0 1 8 0 1 0 1
phys
0 -103.63 -272.29 40.108 0 0 1 8 0 1 0 1
0 24.37 -264.29 40.108 0 0 1 8 0 1 0 1
0 -103.63 -264.29 40.108 0 0 1 8 0 1 0 1
phys
0 24.37 -264.29 40.108 0 0 1 8 0 1 0 1
0 24.37 -264.29 0.108 0 0 1 8 0 1 0 1
0 -103.63 -264.29 0.108 0 0 1 8 0 1 0 1
phys
0 24.37 -264.29 40.108 0 0 1 8 0 1 0 1
0 -103.63 -264.29 0.108 0 0 1 8 0 1 0 1
0 -103.63 -264.29 40.108 0 0 1 8 0 1 0 1
phys
0 116.37 -272.29 108.108 0 0 1 9 0 1 0 1
0 152.37 -272.29 108.108 0 0 1 9 0 1 0 1
0 152.37 -264.29 108.108 0 0 1 9 0 1 0 1
phys
0 116.37 -272.29 108.108 0 0 1 9 0 1 0 1
0 152.37 -264.29 108.108 0 0 1 9 0 1 0 1
0 116.37 -264.29 108.108 0 0 1 9 0 1 0 1
phys
0 116.37 -264.29 0.108 0 0 1 9 0 1 0 1
0 116.37 -264.29 108.108 0 0 1 9 0 1 0 1
0 152.37 -264.29 108.108 0 0 1 9 0 1 0 1
phys
0 116.37 -264.29 0.108 0 0 1 9 0 1 0 1
0 152.37 -264.29 108.108 0 0 1 9 0 1 0 1
0 152.37 -264.29 0.108 0 0 1 9 0 1 0 1
phys
0 152.37 -272.29 0.108 0 0 1 9 0 1 0 1
0 152.37 -272.29 108.108 0 0 1 9 0 1 0 1
0 116.37 -272.29 108.108 0 0 1 9 0 1 0 1
phys
0 152.37 -272.29 0.108 0 0 1 9 0 1 0 1
0 116.37 -272.29 108.108 0 0 1 9 0 1 0 1
0 116.37 -272.29 0.108 0 0 1 9 0 1 0 1
phys
0 116.37 -272.29 0.108 0 0 1 9 0 1 0 1
0 116.37 -272.29 108.108 0 0 1 9 0 1 0 1
0 116.37 -264.29 108.108 0 0 1 9 0 1 0 1
phys
0 116.37 -272.29 0.108 0 0 1 9 0 1 0 1
0 116.37 -264.29 108.108 0 0 1 9 0 1 0 1
0 116.37 -264.29 0.108 0 0 1 9 0 1 0 1
phys
0 152.37 -264.29 0.108 0 0 1 9 0 1 0 1
0 152.37 -264.29 108.108 0 0 1 9 0 1 0 1
0 152.37 -272.29 108.108 0 0 1 9 0 1 0 1
phys
0 152.37 -264.29 0.108 0 0 1 9 0 1 0 1
0 152.37 -272.29 108.108 0 0 1 9 0 1 0 1
0 152.37 -272.29 0.108 0 0 1 9 0 1 0 1
phys
0 152.37 -272.29 0.108 0 0 1 9 0 1 0 1
0 116.37 -272.29 0.108 0 0 1 9 0 1 0 1
0 116.37 -264.29 0.108 0 0 1 9 0 1 0 1
phys
0 152.37 -272.29 0.108 0 0 1 9 0 1 0 1
0 116.37 -264.29 0.108 0 0 1 9 0 1 0 1
0 152.37 -264.29 0.108 0 0 1 9 0 1 0 1
end
