version 1
nodes
0 "root" -1
end
skeleton
time 0
0 0 0 0 0 0 0
end
triangles
wood_woodwall_016
0 88.37 47.71 120.108 -1 0 0 15.463047 -2.199818 1 0 1
0 88.37 67.71 120.108 -1 0 0 15.384922 -2.199818 1 0 1
0 88.37 67.71 0.108 -1 0 0 15.384922 -2.981068 1 0 1
wood_woodwall_016
0 88.37 47.71 120.108 -1 0 0 15.463047 -2.199818 1 0 1
0 88.37 67.71 0.108 -1 0 0 15.384922 -2.981068 1 0 1
0 88.37 47.71 0.108 -1 0 0 15.463047 -2.981068 1 0 1
wood_woodwall_016
0 96.37 55.71 0.108 1 0 0 15.431797 -2.981068 1 0 1
0 96.37 67.71 0.108 1 0 0 15.384922 -2.981068 1 0 1
0 96.37 67.71 120.108 1 0 0 15.384922 -2.199818 1 0 1
wood_woodwall_016
0 96.37 55.71 0.108 1 0 0 15.431797 -2.981068 1 0 1
0 96.37 67.71 120.108 1 0 0 15.384922 -2.199818 1 0 1
0 96.37 55.71 120.108 1 0 0 15.431797 -2.199818 1 0 1
rp_downtown_plaster_wall13
0 -15.63 55.71 0.108 -1 0 0 28.363594 -3.749156 1 0 1
0 -15.63 55.71 120.108 -1 0 0 28.363594 -2.811656 1 0 1
0 -15.63 67.71 120.108 -1 0 0 28.269844 -2.811656 1 0 1
rp_downtown_plaster_wall13
0 -15.63 55.71 0.108 -1 0 0 28.363594 -3.749156 1 0 1
0 -15.63 67.71 120.108 -1 0 0 28.269844 -2.811656 1 0 1
0 -15.63 67.71 0.108 -1 0 0 28.269844 -3.749156 1 0 1
wood_woodwall_016
0 -7.62 47.71 120.108 1 0 0 15.463047 -2.199818 1 0 1
0 -7.62 47.71 0.108 1 0 0 15.463047 -2.981068 1 0 1
0 -7.62 67.71 0.108 1 0 0 15.384922 -2.981068 1 0 1
wood_woodwall_016
0 -7.62 47.71 120.108 1 0 0 15.463047 -2.199818 1 0 1
0 -7.62 67.71 0.108 1 0 0 15.384922 -2.981068 1 0 1
0 -7.62 67.71 120.108 1 0 0 15.384922 -2.199818 1 0 1
brush_vegas_wall_int_wall_int_ens_tile_03
0 -79.63 111.71 64.108 0 1 0 19.86125 -7.498313 1 0 1
0 -79.63 111.71 0.108 0 1 0 19.86125 -8.498312 1 0 1
0 -87.63 111.71 0.108 0 1 0 19.73625 -8.498312 1 0 1
brush_vegas_wall_int_wall_int_ens_tile_03
0 -79.63 111.71 64.108 0 1 0 19.86125 -7.498313 1 0 1
0 -87.63 111.71 0.108 0 1 0 19.73625 -8.498312 1 0 1
0 -87.63 111.71 64.108 0 1 0 19.73625 -7.498312 1 0 1
brush_vegas_wall_int_wall_int_ens_tile_03
0 -87.63 55.71 0.108 -1 0 0 57.727188 -8.498312 1 0 1
0 -87.63 55.71 64.108 -1 0 0 57.727188 -7.498312 1 0 1
0 -87.63 111.71 64.108 -1 0 0 56.852187 -7.498313 1 0 1
brush_vegas_wall_int_wall_int_ens_tile_03
0 -87.63 55.71 0.108 -1 0 0 57.727188 -8.498312 1 0 1
0 -87.63 111.71 64.108 -1 0 0 56.852187 -7.498313 1 0 1
0 -87.63 111.71 0.108 -1 0 0 56.852187 -8.498312 1 0 1
brush_vegas_wall_int_wall_int_ens_tile_03
0 -79.63 55.71 64.108 1 0 0 57.727188 -7.498313 1 0 1
0 -79.63 55.71 0.108 1 0 0 57.727188 -8.498312 1 0 1
0 -79.63 111.71 0.108 1 0 0 56.852188 -8.498312 1 0 1
brush_vegas_wall_int_wall_int_ens_tile_03
0 -79.63 55.71 64.108 1 0 0 57.727188 -7.498313 1 0 1
0 -79.63 111.71 0.108 1 0 0 56.852188 -8.498312 1 0 1
0 -79.63 111.71 64.108 1 0 0 56.852188 -7.498312 1 0 1
brush_vegas_wall_int_wall_int_ens_tile_03
0 -87.63 55.71 64.108 0 0 1 57.727188 21.11125 1 0 1
0 -79.63 55.71 64.108 0 0 1 57.727188 21.23625 1 0 1
0 -79.63 111.71 64.108 0 0 1 56.852188 21.23625 1 0 1
brush_vegas_wall_int_wall_int_ens_tile_03
0 -87.63 55.71 64.108 0 0 1 57.727188 21.11125 1 0 1
0 -79.63 111.71 64.108 0 0 1 56.852188 21.23625 1 0 1
0 -87.63 111.71 64.108 0 0 1 56.852188 21.11125 1 0 1
rp_downtown_plaster_wall13
0 -15.63 55.71 0.108 0 1 0 10.930625 -3.749156 1 0 1
0 -151.63 55.71 0.108 0 1 0 9.868125 -3.749156 1 0 1
0 -151.63 55.71 120.108 0 1 0 9.868125 -2.811656 1 0 1
rp_downtown_plaster_wall13
0 -15.63 55.71 0.108 0 1 0 10.930625 -3.749156 1 0 1
0 -151.63 55.71 120.108 0 1 0 9.868125 -2.811656 1 0 1
0 -15.63 55.71 120.108 0 1 0 10.930625 -2.811656 1 0 1
wood_woodwall_016
0 -7.63 47.71 120.108 0 -1 0 4.502422 -2.199818 1 0 1
0 -151.63 47.71 120.108 0 -1 0 3.939922 -2.199818 1 0 1
0 -151.63 47.71 0.108 0 -1 0 3.939922 -2.981068 1 0 1
wood_woodwall_016
0 -7.63 47.71 120.108 0 -1 0 4.502422 -2.199818 1 0 1
0 -151.63 47.71 0.108 0 -1 0 3.939922 -2.981068 1 0 1
0 -7.63 47.71 0.108 0 -1 0 4.502422 -2.981068 1 0 1
wood_milwall017
0 88.37 143.71 0.108 1 0 0 -28.533516 -3.819469 1 0 1
0 88.37 271.71 0.108 1 0 0 -27.533516 -3.819469 1 0 1
0 88.37 271.71 128.109 1 0 0 -27.533516 -2.819461 1 0 1
wood_woodwall_016
0 60.37 -264.29 108.108 0 1 0 4.512188 -2.277943 1 0 1
0 60.37 -264.29 0.108 0 1 0 4.512188 -2.981068 1 0 1
0 24.37 -264.29 0.108 0 1 0 4.371563 -2.981068 1 0 1
wood_woodwall_016
0 60.37 -264.29 108.108 0 1 0 4.512188 -2.277943 1 0 1
0 24.37 -264.29 0.108 0 1 0 4.371563 -2.981068 1 0 1
0 24.37 -264.29 108.108 0 1 0 4.371563 -2.277943 1 0 1
realworldtextures2_wood_wood_19
0 60.37 -272.29 0.108 0 -1 0 10.565391 -3.796031 1 0 1
0 60.37 -272.29 108.108 0 -1 0 10.565391 -2.952281 1 0 1
0 24.37 -272.29 108.108 0 -1 0 10.284141 -2.952281 1 0 1
realworldtextures2_wood_wood_19
0 60.37 -272.29 0.108 0 -1 0 10.565391 -3.796031 1 0 1
0 24.37 -272.29 108.108 0 -1 0 10.284141 -2.952281 1 0 1
0 24.37 -272.29 0.108 0 -1 0 10.284141 -3.796031 1 0 1
wood_woodwall_016
0 -103.63 -264.29 108.108 0 1 0 3.871563 -2.277943 1 0 1
0 -103.63 -264.29 0.108 0 1 0 3.871563 -2.981068 1 0 1
0 -151.63 -264.29 0.108 0 1 0 3.684063 -2.981068 1 0 1
wood_woodwall_016
0 -103.63 -264.29 108.108 0 1 0 3.871563 -2.277943 1 0 1
0 -151.63 -264.29 0.108 0 1 0 3.684063 -2.981068 1 0 1
0 -151.63 -264.29 108.108 0 1 0 3.684063 -2.277943 1 0 1
realworldtextures2_wood_wood_19
0 -103.63 -272.29 0.108 0 -1 0 9.284141 -3.796031 1 0 1
0 -103.63 -272.29 108.108 0 -1 0 9.284141 -2.952281 1 0 1
0 -151.63 -272.29 108.108 0 -1 0 8.909141 -2.952281 1 0 1
realworldtextures2_wood_wood_19
0 -103.63 -272.29 0.108 0 -1 0 9.284141 -3.796031 1 0 1
0 -151.63 -272.29 108.108 0 -1 0 8.909141 -2.952281 1 0 1
0 -151.63 -272.29 0.108 0 -1 0 8.909141 -3.796031 1 0 1
realworldtextures2_wood_wood_19
0 24.37 -272.29 0.108 0 -1 0 10.284141 -3.796031 1 0 1
0 24.37 -272.29 40.108 0 -1 0 10.284141 -3.483531 1 0 1
0 -103.63 -272.29 40.108 0 -1 0 9.284141 -3.483531 1 0 1
realworldtextures2_wood_wood_19
0 24.37 -272.29 0.108 0 -1 0 10.284141 -3.796031 1 0 1
0 -103.63 -272.29 40.108 0 -1 0 9.284141 -3.483531 1 0 1
0 -103.63 -272.29 0.108 0 -1 0 9.284141 -3.796031 1 0 1
wood_woodwall_016
0 24.37 -264.29 40.108 0 1 0 4.371563 -2.720651 1 0 1
0 24.37 -264.29 0.108 0 1 0 4.371563 -2.981068 1 0 1
0 -103.63 -264.29 0.108 0 1 0 3.871563 -2.981068 1 0 1
wood_woodwall_016
0 24.37 -264.29 40.108 0 1 0 4.371563 -2.720651 1 0 1
0 -103.63 -264.29 0.108 0 1 0 3.871563 -2.981068 1 0 1
0 -103.63 -264.29 40.108 0 1 0 3.871563 -2.720651 1 0 1
wood_woodwall_016
0 116.37 -264.29 0.108 0 1 0 4.730938 -2.981068 1 0 1
0 116.37 -264.29 108.108 0 1 0 4.730938 -2.277943 1 0 1
0 152.37 -264.29 108.108 0 1 0 4.871563 -2.277943 1 0 1
wood_woodwall_016
0 116.37 -264.29 0.108 0 1 0 4.730938 -2.981068 1 0 1
0 152.37 -264.29 108.108 0 1 0 4.871563 -2.277943 1 0 1
0 152.37 -264.29 0.108 0 1 0 4.871563 -2.981068 1 0 1
realworldtextures2_wood_wood_19
0 152.37 -272.29 0.108 0 -1 0 11.284141 -3.796031 1 0 1
0 152.37 -272.29 108.108 0 -1 0 11.284141 -2.952281 1 0 1
0 116.37 -272.29 108.108 0 -1 0 11.002891 -2.952281 1 0 1
realworldtextures2_wood_wood_19
0 152.37 -272.29 0.108 0 -1 0 11.284141 -3.796031 1 0 1
0 116.37 -272.29 108.108 0 -1 0 11.002891 -2.952281 1 0 1
0 116.37 -272.29 0.108 0 -1 0 11.002891 -3.796031 1 0 1
end
