version 1
nodes
0 "root" -1
end
skeleton
time 0
0 0 0 0 0 0 0
end
triangles
phys
0 -151 218 -20 0 0 1 1 0 1 0 1
0 -151 218 23 0 0 1 1 0 1 0 1
0 -157 218 23 0 0 1 1 0 1 0 1
phys
0 -151 218 -20 0 0 1 1 0 1 0 1
0 -157 218 23 0 0 1 1 0 1 0 1
0 -157 218 -20 0 0 1 1 0 1 0 1
phys
0 -157 218 -20 0 0 1 1 0 1 0 1
0 -157 218 23 0 0 1 1 0 1 0 1
0 -157 224 23 0 0 1 1 0 1 0 1
phys
0 -157 218 -20 0 0 1 1 0 1 0 1
0 -157 224 23 0 0 1 1 0 1 0 1
0 -157 224 -20 0 0 1 1 0 1 0 1
phys
0 -151 218 23 0 0 1 1 0 1 0 1
0 -151 218 -20 0 0 1 1 0 1 0 1
0 -151 224 -20 0 0 1 1 0 1 0 1
phys
0 -151 218 23 0 0 1 1 0 1 0 1
0 -151 224 -20 0 0 1 1 0 1 0 1
0 -151 224 23 0 0 1 1 0 1 0 1
phys
0 -151 218 -20 0 0 1 1 0 1 0 1
0 -157 218 -20 0 0 1 1 0 1 0 1
0 -157 224 -20 0 0 1 1 0 1 0 1
phys
0 -151 218 -20 0 0 1 1 0 1 0 1
0 -157 224 -20 0 0 1 1 0 1 0 1
0 -151 224 -20 0 0 1 1 0 1 0 1
phys
0 -157 218 23 0 0 1 1 0 1 0 1
0 -151 218 23 0 0 1 1 0 1 0 1
0 -151 224 23 0 0 1 1 0 1 0 1
phys
0 -157 218 23 0 0 1 1 0 1 0 1
0 -151 224 23 0 0 1 1 0 1 0 1
0 -157 224 23 0 0 1 1 0 1 0 1
phys
0 -151 224 23 0 0 1 1 0 1 0 1
0 -151 224 -20 0 0 1 1 0 1 0 1
0 -157 224 -20 0 0 1 1 0 1 0 1
phys
0 -151 224 23 0 0 1 1 0 1 0 1
0 -157 224 -20 0 0 1 1 0 1 0 1
0 -157 224 23 0 0 1 1 0 1 0 1
phys
0 149 21 25 0 0 1 2 0 1 0 1
0 149 21 23.002 0 0 1 2 0 1 0 1
0 148.999334 21 23.001 0 0 1 2 0 1 0 1
phys
0 149 21 25 0 0 1 2 0 1 0 1
0 148.999334 21 23.001 0 0 1 2 0 1 0 1
0 -144 21 23.001 0 0 1 2 0 1 0 1
phys
0 149 21 25 0 0 1 2 0 1 0 1
0 -144 21 23.001 0 0 1 2 0 1 0 1
0 -144 21 25 0 0 1 2 0 1 0 1
phys
0 149 -16 23.002 0 0 1 2 0 1 0 1
0 149 -16 25 0 0 1 2 0 1 0 1
0 -144 -16 25 0 0 1 2 0 1 0 1
phys
0 149 -16 23.002 0 0 1 2 0 1 0 1
0 -144 -16 25 0 0 1 2 0 1 0 1
0 -144 -16 20 0 0 1 2 0 1 0 1
phys
0 149 -16 23.002 0 0 1 2 0 1 0 1
0 -144 -16 20 0 0 1 2 0 1 0 1
0 147 -16 20 0 0 1 2 0 1 0 1
phys
0 -144 -16 20 0 0 1 2 0 1 0 1
0 -144 -16 25 0 0 1 2 0 1 0 1
0 -144 21 25 0 0 1 2 0 1 0 1
phys
0 -144 -16 20 0 0 1 2 0 1 0 1
0 -144 21 25 0 0 1 2 0 1 0 1
0 -144 21 23.001 0 0 1 2 0 1 0 1
phys
0 -144 -16 20 0 0 1 2 0 1 0 1
0 -144 21 23.001 0 0 1 2 0 1 0 1
0 -144 18 20 0 0 1 2 0 1 0 1
phys
0 149 -16 25 0 0 1 2 0 1 0 1
0 149 -16 23.002 0 0 1 2 0 1 0 1
0 149 21 23.002 0 0 1 2 0 1 0 1
phys
0 149 -16 25 0 0 1 2 0 1 0 1
0 149 21 23.002 0 0 1 2 0 1 0 1
0 149 21 25 0 0 1 2 0 1 0 1
phys
0 147 -16 20 0 0 1 2 0 1 0 1
0 -144 -16 20 0 0 1 2 0 1 0 1
0 -144 18 20 0 0 1 2 0 1 0 1
phys
0 147 -16 20 0 0 1 2 0 1 0 1
0 -144 18 20 0 0 1 2 0 1 0 1
0 147 18 20 0 0 1 2 0 1 0 1
phys
0 -144 -16 25 0 0 1 2 0 1 0 1
0 149 -16 25 0 0 1 2 0 1 0 1
0 149 21 25 0 0 1 2 0 1 0 1
phys
0 -144 -16 25 0 0 1 2 0 1 0 1
0 149 21 25 0 0 1 2 0 1 0 1
0 -144 21 25 0 0 1 2 0 1 0 1
phys
0 149 -16 23.002 0 0 1 2 0 1 0 1
0 147 -16 20 0 0 1 2 0 1 0 1
0 147 18 20 0 0 1 2 0 1 0 1
phys
0 149 -16 23.002 0 0 1 2 0 1 0 1
0 147 18 20 0 0 1 2 0 1 0 1
0 148.999334 21 23.001 0 0 1 2 0 1 0 1
phys
0 149 -16 23.002 0 0 1 2 0 1 0 1
0 148.999334 21 23.001 0 0 1 2 0 1 0 1
0 149 21 23.002 0 0 1 2 0 1 0 1
phys
0 -144 18 20 0 0 1 2 0 1 0 1
0 -144 21 23.001 0 0 1 2 0 1 0 1
0 148.999334 21 23.001 0 0 1 2 0 1 0 1
phys
0 -144 18 20 0 0 1 2 0 1 0 1
0 148.999334 21 23.001 0 0 1 2 0 1 0 1
0 147 18 20 0 0 1 2 0 1 0 1
phys
0 -112 -16 20 0 0 1 3 0 1 0 1
0 -112 -16 -20 0 0 1 3 0 1 0 1
0 -144 -16 -20 0 0 1 3 0 1 0 1
phys
0 -112 -16 20 0 0 1 3 0 1 0 1
0 -144 -16 -20 0 0 1 3 0 1 0 1
0 -144 -16 20 0 0 1 3 0 1 0 1
phys
0 -112 -161 -20 0 0 1 3 0 1 0 1
0 -112 -161 20 0 0 1 3 0 1 0 1
0 -144 -161 20 0 0 1 3 0 1 0 1
phys
0 -112 -161 -20 0 0 1 3 0 1 0 1
0 -144 -161 20 0 0 1 3 0 1 0 1
0 -144 -161 -20 0 0 1 3 0 1 0 1
phys
0 -144 -161 -20 0 0 1 3 0 1 0 1
0 -144 -161 20 0 0 1 3 0 1 0 1
0 -144 -16 20 0 0 1 3 0 1 0 1
phys
0 -144 -161 -20 0 0 1 3 0 1 0 1
0 -144 -16 20 0 0 1 3 0 1 0 1
0 -144 -16 -20 0 0 1 3 0 1 0 1
phys
0 -112 -161 20 0 0 1 3 0 1 0 1
0 -112 -161 -20 0 0 1 3 0 1 0 1
0 -112 -16 -20 0 0 1 3 0 1 0 1
phys
0 -112 -161 20 0 0 1 3 0 1 0 1
0 -112 -16 -20 0 0 1 3 0 1 0 1
0 -112 -16 20 0 0 1 3 0 1 0 1
phys
0 -112 -161 -20 0 0 1 3 0 1 0 1
0 -144 -161 -20 0 0 1 3 0 1 0 1
0 -144 -16 -20 0 0 1 3 0 1 0 1
phys
0 -112 -161 -20 0 0 1 3 0 1 0 1
0 -144 -16 -20 0 0 1 3 0 1 0 1
0 -112 -16 -20 0 0 1 3 0 1 0 1
phys
0 -144 -161 20 0 0 1 3 0 1 0 1
0 -112 -161 20 0 0 1 3 0 1 0 1
0 -112 -16 20 0 0 1 3 0 1 0 1
phys
0 -144 -161 20 0 0 1 3 0 1 0 1
0 -112 -16 20 0 0 1 3 0 1 0 1
0 -144 -16 20 0 0 1 3 0 1 0 1
phys
0 35 404 -20 0 0 1 4 0 1 0 1
0 35 410 -20 0 0 1 4 0 1 0 1
0 35 410 23 0 0 1 4 0 1 0 1
phys
0 35 404 -20 0 0 1 4 0 1 0 1
0 35 410 23 0 0 1 4 0 1 0 1
0 35 404 23 0 0 1 4 0 1 0 1
phys
0 29 410 -20 0 0 1 4 0 1 0 1
0 35 410 -20 0 0 1 4 0 1 0 1
0 35 404 -20 0 0 1 4 0 1 0 1
phys
0 29 410 -20 0 0 1 4 0 1 0 1
0 35 404 -20 0 0 1 4 0 1 0 1
0 29 404 -20 0 0 1 4 0 1 0 1
phys
0 29 404 23 0 0 1 4 0 1 0 1
0 35 404 23 0 0 1 4 0 1 0 1
0 35 410 23 0 0 1 4 0 1 0 1
phys
0 29 404 23 0 0 1 4 0 1 0 1
0 35 410 23 0 0 1 4 0 1 0 1
0 29 410 23 0 0 1 4 0 1 0 1
phys
0 35 410 23 0 0 1 4 0 1 0 1
0 35 410 -20 0 0 1 4 0 1 0 1
0 29 410 -20 0 0 1 4 0 1 0 1
phys
0 35 410 23 0 0 1 4 0 1 0 1
0 29 410 -20 0 0 1 4 0 1 0 1
0 29 410 23 0 0 1 4 0 1 0 1
phys
0 35 404 -20 0 0 1 4 0 1 0 1
0 35 404 23 0 0 1 4 0 1 0 1
0 29 404 23 0 0 1 4 0 1 0 1
phys
0 35 404 -20 0 0 1 4 0 1 0 1
0 29 404 23 0 0 1 4 0 1 0 1
0 29 404 -20 0 0 1 4 0 1 0 1
phys
0 29 404 23 0 0 1 4 0 1 0 1
0 29 410 23 0 0 1 4 0 1 0 1
0 29 410 -20 0 0 1 4 0 1 0 1
phys
0 29 404 23 0 0 1 4 0 1 0 1
0 29 410 -20 0 0 1 4 0 1 0 1
0 29 404 -20 0 0 1 4 0 1 0 1
phys
0 -155 224 23 0 0 1 5 0 1 0 1
0 -153 224 23 0 0 1 5 0 1 0 1
0 -153 404 23 0 0 1 5 0 1 0 1
phys
0 -155 224 23 0 0 1 5 0 1 0 1
0 -153 404 23 0 0 1 5 0 1 0 1
0 -155 404 23 0 0 1 5 0 1 0 1
phys
0 -155 404 -9 0 0 1 5 0 1 0 1
0 -155 404 23 0 0 1 5 0 1 0 1
0 -153 404 23 0 0 1 5 0 1 0 1
phys
0 -155 404 -9 0 0 1 5 0 1 0 1
0 -153 404 23 0 0 1 5 0 1 0 1
0 -153 404 -9 0 0 1 5 0 1 0 1
phys
0 -153 224 -9 0 0 1 5 0 1 0 1
0 -153 224 23 0 0 1 5 0 1 0 1
0 -155 224 23 0 0 1 5 0 1 0 1
phys
0 -153 224 -9 0 0 1 5 0 1 0 1
0 -155 224 23 0 0 1 5 0 1 0 1
0 -155 224 -9 0 0 1 5 0 1 0 1
phys
0 -155 224 -9 0 0 1 5 0 1 0 1
0 -155 224 23 0 0 1 5 0 1 0 1
0 -155 404 23 0 0 1 5 0 1 0 1
phys
0 -155 224 -9 0 0 1 5 0 1 0 1
0 -155 404 23 0 0 1 5 0 1 0 1
0 -155 404 -9 0 0 1 5 0 1 0 1
phys
0 -153 404 -9 0 0 1 5 0 1 0 1
0 -153 404 23 0 0 1 5 0 1 0 1
0 -153 224 23 0 0 1 5 0 1 0 1
phys
0 -153 404 -9 0 0 1 5 0 1 0 1
0 -153 224 23 0 0 1 5 0 1 0 1
0 -153 224 -9 0 0 1 5 0 1 0 1
phys
0 -153 224 -9 0 0 1 5 0 1 0 1
0 -155 224 -9 0 0 1 5 0 1 0 1
0 -155 404 -9 0 0 1 5 0 1 0 1
phys
0 -153 224 -9 0 0 1 5 0 1 0 1
0 -155 404 -9 0 0 1 5 0 1 0 1
0 -153 404 -9 0 0 1 5 0 1 0 1
phys
0 29 408 23 0 0 1 6 0 1 0 1
0 29 408 -9 0 0 1 6 0 1 0 1
0 -151 408 -9 0 0 1 6 0 1 0 1
phys
0 29 408 23 0 0 1 6 0 1 0 1
0 -151 408 -9 0 0 1 6 0 1 0 1
0 -151 408 23 0 0 1 6 0 1 0 1
phys
0 29 406 -9 0 0 1 6 0 1 0 1
0 29 406 23 0 0 1 6 0 1 0 1
0 -151 406 23 0 0 1 6 0 1 0 1
phys
0 29 406 -9 0 0 1 6 0 1 0 1
0 -151 406 23 0 0 1 6 0 1 0 1
0 -151 406 -9 0 0 1 6 0 1 0 1
phys
0 -151 406 -9 0 0 1 6 0 1 0 1
0 -151 406 23 0 0 1 6 0 1 0 1
0 -151 408 23 0 0 1 6 0 1 0 1
phys
0 -151 406 -9 0 0 1 6 0 1 0 1
0 -151 408 23 0 0 1 6 0 1 0 1
0 -151 408 -9 0 0 1 6 0 1 0 1
phys
0 29 406 23 0 0 1 6 0 1 0 1
0 29 406 -9 0 0 1 6 0 1 0 1
0 29 408 -9 0 0 1 6 0 1 0 1
phys
0 29 406 23 0 0 1 6 0 1 0 1
0 29 408 -9 0 0 1 6 0 1 0 1
0 29 408 23 0 0 1 6 0 1 0 1
phys
0 29 406 -9 0 0 1 6 0 1 0 1
0 -151 406 -9 0 0 1 6 0 1 0 1
0 -151 408 -9 0 0 1 6 0 1 0 1
phys
0 29 406 -9 0 0 1 6 0 1 0 1
0 -151 408 -9 0 0 1 6 0 1 0 1
0 29 408 -9 0 0 1 6 0 1 0 1
phys
0 -151 406 23 0 0 1 6 0 1 0 1
0 29 406 23 0 0 1 6 0 1 0 1
0 29 408 23 0 0 1 6 0 1 0 1
phys
0 -151 406 23 0 0 1 6 0 1 0 1
0 29 408 23 0 0 1 6 0 1 0 1
0 -151 408 23 0 0 1 6 0 1 0 1
phys
0 -151 410 23 0 0 1 7 0 1 0 1
0 -151 410 -20 0 0 1 7 0 1 0 1
0 -157 410 -20 0 0 1 7 0 1 0 1
phys
0 -151 410 23 0 0 1 7 0 1 0 1
0 -157 410 -20 0 0 1 7 0 1 0 1
0 -157 410 23 0 0 1 7 0 1 0 1
phys
0 -151 404 -20 0 0 1 7 0 1 0 1
0 -151 404 23 0 0 1 7 0 1 0 1
0 -157 404 23 0 0 1 7 0 1 0 1
phys
0 -151 404 -20 0 0 1 7 0 1 0 1
0 -157 404 23 0 0 1 7 0 1 0 1
0 -157 404 -20 0 0 1 7 0 1 0 1
phys
0 -157 404 -20 0 0 1 7 0 1 0 1
0 -157 404 23 0 0 1 7 0 1 0 1
0 -157 410 23 0 0 1 7 0 1 0 1
phys
0 -157 404 -20 0 0 1 7 0 1 0 1
0 -157 410 23 0 0 1 7 0 1 0 1
0 -157 410 -20 0 0 1 7 0 1 0 1
phys
0 -151 404 23 0 0 1 7 0 1 0 1
0 -151 404 -20 0 0 1 7 0 1 0 1
0 -151 410 -20 0 0 1 7 0 1 0 1
phys
0 -151 404 23 0 0 1 7 0 1 0 1
0 -151 410 -20 0 0 1 7 0 1 0 1
0 -151 410 23 0 0 1 7 0 1 0 1
phys
0 -151 404 -20 0 0 1 7 0 1 0 1
0 -157 404 -20 0 0 1 7 0 1 0 1
0 -157 410 -20 0 0 1 7 0 1 0 1
phys
0 -151 404 -20 0 0 1 7 0 1 0 1
0 -157 410 -20 0 0 1 7 0 1 0 1
0 -151 410 -20 0 0 1 7 0 1 0 1
phys
0 -157 404 23 0 0 1 7 0 1 0 1
0 -151 404 23 0 0 1 7 0 1 0 1
0 -151 410 23 0 0 1 7 0 1 0 1
phys
0 -157 404 23 0 0 1 7 0 1 0 1
0 -151 410 23 0 0 1 7 0 1 0 1
0 -157 410 23 0 0 1 7 0 1 0 1
phys
0 -151 404 -9 0 0 1 8 0 1 0 1
0 -151 404 -20 0 0 1 8 0 1 0 1
0 -157 404 -20 0 0 1 8 0 1 0 1
phys
0 -151 404 -9 0 0 1 8 0 1 0 1
0 -157 404 -20 0 0 1 8 0 1 0 1
0 -157 404 -9 0 0 1 8 0 1 0 1
phys
0 -151 224 -20 0 0 1 8 0 1 0 1
0 -151 224 -9 0 0 1 8 0 1 0 1
0 -157 224 -9 0 0 1 8 0 1 0 1
phys
0 -151 224 -20 0 0 1 8 0 1 0 1
0 -157 224 -9 0 0 1 8 0 1 0 1
0 -157 224 -20 0 0 1 8 0 1 0 1
phys
0 -157 224 -20 0 0 1 8 0 1 0 1
0 -157 224 -9 0 0 1 8 0 1 0 1
0 -157 404 -9 0 0 1 8 0 1 0 1
phys
0 -157 224 -20 0 0 1 8 0 1 0 1
0 -157 404 -9 0 0 1 8 0 1 0 1
0 -157 404 -20 0 0 1 8 0 1 0 1
phys
0 -151 224 -9 0 0 1 8 0 1 0 1
0 -151 224 -20 0 0 1 8 0 1 0 1
0 -151 404 -20 0 0 1 8 0 1 0 1
phys
0 -151 224 -9 0 0 1 8 0 1 0 1
0 -151 404 -20 0 0 1 8 0 1 0 1
0 -151 404 -9 0 0 1 8 0 1 0 1
phys
0 -151 224 -20 0 0 1 8 0 1 0 1
0 -157 224 -20 0 0 1 8 0 1 0 1
0 -157 404 -20 0 0 1 8 0 1 0 1
phys
0 -151 224 -20 0 0 1 8 0 1 0 1
0 -157 404 -20 0 0 1 8 0 1 0 1
0 -151 404 -20 0 0 1 8 0 1 0 1
phys
0 -157 224 -9 0 0 1 8 0 1 0 1
0 -151 224 -9 0 0 1 8 0 1 0 1
0 -151 404 -9 0 0 1 8 0 1 0 1
phys
0 -157 224 -9 0 0 1 8 0 1 0 1
0 -151 404 -9 0 0 1 8 0 1 0 1
0 -157 404 -9 0 0 1 8 0 1 0 1
phys
0 29 410 -9 0 0 1 9 0 1 0 1
0 29 410 -20 0 0 1 9 0 1 0 1
0 -151 410 -20 0 0 1 9 0 1 0 1
phys
0 29 410 -9 0 0 1 9 0 1 0 1
0 -151 410 -20 0 0 1 9 0 1 0 1
0 -151 410 -9 0 0 1 9 0 1 0 1
phys
0 29 404 -20 0 0 1 9 0 1 0 1
0 29 404 -9 0 0 1 9 0 1 0 1
0 -151 404 -9 0 0 1 9 0 1 0 1
phys
0 29 404 -20 0 0 1 9 0 1 0 1
0 -151 404 -9 0 0 1 9 0 1 0 1
0 -151 404 -20 0 0 1 9 0 1 0 1
phys
0 -151 404 -20 0 0 1 9 0 1 0 1
0 -151 404 -9 0 0 1 9 0 1 0 1
0 -151 410 -9 0 0 1 9 0 1 0 1
phys
0 -151 404 -20 0 0 1 9 0 1 0 1
0 -151 410 -9 0 0 1 9 0 1 0 1
0 -151 410 -20 0 0 1 9 0 1 0 1
phys
0 29 404 -9 0 0 1 9 0 1 0 1
0 29 404 -20 0 0 1 9 0 1 0 1
0 29 410 -20 0 0 1 9 0 1 0 1
phys
0 29 404 -9 0 0 1 9 0 1 0 1
0 29 410 -20 0 0 1 9 0 1 0 1
0 29 410 -9 0 0 1 9 0 1 0 1
phys
0 29 404 -20 0 0 1 9 0 1 0 1
0 -151 404 -20 0 0 1 9 0 1 0 1
0 -151 410 -20 0 0 1 9 0 1 0 1
phys
0 29 404 -20 0 0 1 9 0 1 0 1
0 -151 410 -20 0 0 1 9 0 1 0 1
0 29 410 -20 0 0 1 9 0 1 0 1
phys
0 -151 404 -9 0 0 1 9 0 1 0 1
0 29 404 -9 0 0 1 9 0 1 0 1
0 29 410 -9 0 0 1 9 0 1 0 1
phys
0 -151 404 -9 0 0 1 9 0 1 0 1
0 29 410 -9 0 0 1 9 0 1 0 1
0 -151 410 -9 0 0 1 9 0 1 0 1
phys
0 -147 208 181 0 0 1 10 0 1 0 1
0 -147 208 156 0 0 1 10 0 1 0 1
0 -157 208 156 0 0 1 10 0 1 0 1
phys
0 -147 208 181 0 0 1 10 0 1 0 1
0 -157 208 156 0 0 1 10 0 1 0 1
0 -157 208 181 0 0 1 10 0 1 0 1
phys
0 -147 -134 156 0 0 1 10 0 1 0 1
0 -147 -134 181 0 0 1 10 0 1 0 1
0 -157 -134 181 0 0 1 10 0 1 0 1
phys
0 -147 -134 156 0 0 1 10 0 1 0 1
0 -157 -134 181 0 0 1 10 0 1 0 1
0 -157 -134 156 0 0 1 10 0 1 0 1
phys
0 -157 -134 156 0 0 1 10 0 1 0 1
0 -157 -134 181 0 0 1 10 0 1 0 1
0 -157 208 181 0 0 1 10 0 1 0 1
phys
0 -157 -134 156 0 0 1 10 0 1 0 1
0 -157 208 181 0 0 1 10 0 1 0 1
0 -157 208 156 0 0 1 10 0 1 0 1
phys
0 -147 -134 181 0 0 1 10 0 1 0 1
0 -147 -134 156 0 0 1 10 0 1 0 1
0 -147 208 156 0 0 1 10 0 1 0 1
phys
0 -147 -134 181 0 0 1 10 0 1 0 1
0 -147 208 156 0 0 1 10 0 1 0 1
0 -147 208 181 0 0 1 10 0 1 0 1
phys
0 -147 -134 156 0 0 1 10 0 1 0 1
0 -157 -134 156 0 0 1 10 0 1 0 1
0 -157 208 156 0 0 1 10 0 1 0 1
phys
0 -147 -134 156 0 0 1 10 0 1 0 1
0 -157 208 156 0 0 1 10 0 1 0 1
0 -147 208 156 0 0 1 10 0 1 0 1
phys
0 -157 -134 181 0 0 1 10 0 1 0 1
0 -147 -134 181 0 0 1 10 0 1 0 1
0 -147 208 181 0 0 1 10 0 1 0 1
phys
0 -157 -134 181 0 0 1 10 0 1 0 1
0 -147 208 181 0 0 1 10 0 1 0 1
0 -157 208 181 0 0 1 10 0 1 0 1
phys
0 -314 410 296 0 0 1 11 0 1 0 1
0 -314 410 181 0 0 1 11 0 1 0 1
0 -324 410 181 0 0 1 11 0 1 0 1
phys
0 -314 410 296 0 0 1 11 0 1 0 1
0 -324 410 181 0 0 1 11 0 1 0 1
0 -324 410 296 0 0 1 11 0 1 0 1
phys
0 -314 400 181 0 0 1 11 0 1 0 1
0 -314 400 296 0 0 1 11 0 1 0 1
0 -324 400 296 0 0 1 11 0 1 0 1
phys
0 -314 400 181 0 0 1 11 0 1 0 1
0 -324 400 296 0 0 1 11 0 1 0 1
0 -324 400 181 0 0 1 11 0 1 0 1
phys
0 -324 400 181 0 0 1 11 0 1 0 1
0 -324 400 296 0 0 1 11 0 1 0 1
0 -324 410 296 0 0 1 11 0 1 0 1
phys
0 -324 400 181 0 0 1 11 0 1 0 1
0 -324 410 296 0 0 1 11 0 1 0 1
0 -324 410 181 0 0 1 11 0 1 0 1
phys
0 -314 400 296 0 0 1 11 0 1 0 1
0 -314 400 181 0 0 1 11 0 1 0 1
0 -314 410 181 0 0 1 11 0 1 0 1
phys
0 -314 400 296 0 0 1 11 0 1 0 1
0 -314 410 181 0 0 1 11 0 1 0 1
0 -314 410 296 0 0 1 11 0 1 0 1
phys
0 -314 400 181 0 0 1 11 0 1 0 1
0 -324 400 181 0 0 1 11 0 1 0 1
0 -324 410 181 0 0 1 11 0 1 0 1
phys
0 -314 400 181 0 0 1 11 0 1 0 1
0 -324 410 181 0 0 1 11 0 1 0 1
0 -314 410 181 0 0 1 11 0 1 0 1
phys
0 -324 400 296 0 0 1 11 0 1 0 1
0 -314 400 296 0 0 1 11 0 1 0 1
0 -314 410 296 0 0 1 11 0 1 0 1
phys
0 -324 400 296 0 0 1 11 0 1 0 1
0 -314 410 296 0 0 1 11 0 1 0 1
0 -324 410 296 0 0 1 11 0 1 0 1
phys
0 -112 -161 20 0 0 1 12 0 1 0 1
0 -112 -16 20 0 0 1 12 0 1 0 1
0 -112 -16 25 0 0 1 12 0 1 0 1
phys
0 -112 -161 20 0 0 1 12 0 1 0 1
0 -112 -16 25 0 0 1 12 0 1 0 1
0 -112 -161 25 0 0 1 12 0 1 0 1
phys
0 -144 -16 20 0 0 1 12 0 1 0 1
0 -112 -16 20 0 0 1 12 0 1 0 1
0 -112 -161 20 0 0 1 12 0 1 0 1
phys
0 -144 -16 20 0 0 1 12 0 1 0 1
0 -112 -161 20 0 0 1 12 0 1 0 1
0 -144 -161 20 0 0 1 12 0 1 0 1
phys
0 -144 -161 25 0 0 1 12 0 1 0 1
0 -112 -161 25 0 0 1 12 0 1 0 1
0 -112 -16 25 0 0 1 12 0 1 0 1
phys
0 -144 -161 25 0 0 1 12 0 1 0 1
0 -112 -16 25 0 0 1 12 0 1 0 1
0 -144 -16 25 0 0 1 12 0 1 0 1
phys
0 -112 -16 25 0 0 1 12 0 1 0 1
0 -112 -16 20 0 0 1 12 0 1 0 1
0 -144 -16 20 0 0 1 12 0 1 0 1
phys
0 -112 -16 25 0 0 1 12 0 1 0 1
0 -144 -16 20 0 0 1 12 0 1 0 1
0 -144 -16 25 0 0 1 12 0 1 0 1
phys
0 -112 -161 20 0 0 1 12 0 1 0 1
0 -112 -161 25 0 0 1 12 0 1 0 1
0 -144 -161 25 0 0 1 12 0 1 0 1
phys
0 -112 -161 20 0 0 1 12 0 1 0 1
0 -144 -161 25 0 0 1 12 0 1 0 1
0 -144 -161 20 0 0 1 12 0 1 0 1
phys
0 -144 -161 25 0 0 1 12 0 1 0 1
0 -144 -16 25 0 0 1 12 0 1 0 1
0 -144 -16 20 0 0 1 12 0 1 0 1
phys
0 -144 -161 25 0 0 1 12 0 1 0 1
0 -144 -16 20 0 0 1 12 0 1 0 1
0 -144 -161 20 0 0 1 12 0 1 0 1
phys
0 99 218 87.996 0 0 1 13 0 1 0 1
0 99 218 -20 0 0 1 13 0 1 0 1
0 95 218 -20 0 0 1 13 0 1 0 1
phys
0 99 218 87.996 0 0 1 13 0 1 0 1
0 95 218 -20 0 0 1 13 0 1 0 1
0 95 218 91.996 0 0 1 13 0 1 0 1
phys
0 99 206 -20 0 0 1 13 0 1 0 1
0 99 206 87.996 0 0 1 13 0 1 0 1
0 95 206 91.996 0 0 1 13 0 1 0 1
phys
0 99 206 -20 0 0 1 13 0 1 0 1
0 95 206 91.996 0 0 1 13 0 1 0 1
0 95 206 -20 0 0 1 13 0 1 0 1
phys
0 95 206 -20 0 0 1 13 0 1 0 1
0 95 206 91.996 0 0 1 13 0 1 0 1
0 95 218 91.996 0 0 1 13 0 1 0 1
phys
0 95 206 -20 0 0 1 13 0 1 0 1
0 95 218 91.996 0 0 1 13 0 1 0 1
0 95 218 -20 0 0 1 13 0 1 0 1
phys
0 99 206 87.996 0 0 1 13 0 1 0 1
0 99 206 -20 0 0 1 13 0 1 0 1
0 99 218 -20 0 0 1 13 0 1 0 1
phys
0 99 206 87.996 0 0 1 13 0 1 0 1
0 99 218 -20 0 0 1 13 0 1 0 1
0 99 218 87.996 0 0 1 13 0 1 0 1
phys
0 99 206 -20 0 0 1 13 0 1 0 1
0 95 206 -20 0 0 1 13 0 1 0 1
0 95 218 -20 0 0 1 13 0 1 0 1
phys
0 99 206 -20 0 0 1 13 0 1 0 1
0 95 218 -20 0 0 1 13 0 1 0 1
0 99 218 -20 0 0 1 13 0 1 0 1
phys
0 95 206 91.996 0 0 1 13 0 1 0 1
0 99 206 87.996 0 0 1 13 0 1 0 1
0 99 218 87.996 0 0 1 13 0 1 0 1
phys
0 95 206 91.996 0 0 1 13 0 1 0 1
0 99 218 87.996 0 0 1 13 0 1 0 1
0 95 218 91.996 0 0 1 13 0 1 0 1
phys
0 -136 220 11 0 0 1 14 0 1 0 1
0 -136 226 19.001 0 0 1 14 0 1 0 1
0 56 226 19.001 0 0 1 14 0 1 0 1
phys
0 -136 220 11 0 0 1 14 0 1 0 1
0 56 226 19.001 0 0 1 14 0 1 0 1
0 56 220 11 0 0 1 14 0 1 0 1
phys
0 56 226 21 0 0 1 14 0 1 0 1
0 56 226 19.001 0 0 1 14 0 1 0 1
0 -136 226 19.001 0 0 1 14 0 1 0 1
phys
0 56 226 21 0 0 1 14 0 1 0 1
0 -136 226 19.001 0 0 1 14 0 1 0 1
0 -136 226 21 0 0 1 14 0 1 0 1
phys
0 -136 218 21 0 0 1 14 0 1 0 1
0 -136 218 11 0 0 1 14 0 1 0 1
0 56 218 11 0 0 1 14 0 1 0 1
phys
0 -136 218 21 0 0 1 14 0 1 0 1
0 56 218 11 0 0 1 14 0 1 0 1
0 56 218 21 0 0 1 14 0 1 0 1
phys
0 -136 226 21 0 0 1 14 0 1 0 1
0 -136 226 19.001 0 0 1 14 0 1 0 1
0 -136 220 11 0 0 1 14 0 1 0 1
phys
0 -136 226 21 0 0 1 14 0 1 0 1
0 -136 220 11 0 0 1 14 0 1 0 1
0 -136 218 11 0 0 1 14 0 1 0 1
phys
0 -136 226 21 0 0 1 14 0 1 0 1
0 -136 218 11 0 0 1 14 0 1 0 1
0 -136 218 21 0 0 1 14 0 1 0 1
phys
0 56 218 21 0 0 1 14 0 1 0 1
0 56 218 11 0 0 1 14 0 1 0 1
0 56 220 11 0 0 1 14 0 1 0 1
phys
0 56 218 21 0 0 1 14 0 1 0 1
0 56 220 11 0 0 1 14 0 1 0 1
0 56 226 19.001 0 0 1 14 0 1 0 1
phys
0 56 218 21 0 0 1 14 0 1 0 1
0 56 226 19.001 0 0 1 14 0 1 0 1
0 56 226 21 0 0 1 14 0 1 0 1
phys
0 56 218 11 0 0 1 14 0 1 0 1
0 -136 218 11 0 0 1 14 0 1 0 1
0 -136 220 11 0 0 1 14 0 1 0 1
phys
0 56 218 11 0 0 1 14 0 1 0 1
0 -136 220 11 0 0 1 14 0 1 0 1
0 56 220 11 0 0 1 14 0 1 0 1
phys
0 -136 218 21 0 0 1 14 0 1 0 1
0 56 218 21 0 0 1 14 0 1 0 1
0 56 226 21 0 0 1 14 0 1 0 1
phys
0 -136 218 21 0 0 1 14 0 1 0 1
0 56 226 21 0 0 1 14 0 1 0 1
0 -136 226 21 0 0 1 14 0 1 0 1
phys
0 -147 -161 54 0 0 1 15 0 1 0 1
0 -144 -161 54 0 0 1 15 0 1 0 1
0 -144 209 54 0 0 1 15 0 1 0 1
phys
0 -147 -161 54 0 0 1 15 0 1 0 1
0 -144 209 54 0 0 1 15 0 1 0 1
0 -147 209 54 0 0 1 15 0 1 0 1
phys
0 -147 209 -20 0 0 1 15 0 1 0 1
0 -147 209 54 0 0 1 15 0 1 0 1
0 -144 209 54 0 0 1 15 0 1 0 1
phys
0 -147 209 -20 0 0 1 15 0 1 0 1
0 -144 209 54 0 0 1 15 0 1 0 1
0 -144 209 -20 0 0 1 15 0 1 0 1
phys
0 -144 -161 -20 0 0 1 15 0 1 0 1
0 -144 -161 54 0 0 1 15 0 1 0 1
0 -147 -161 54 0 0 1 15 0 1 0 1
phys
0 -144 -161 -20 0 0 1 15 0 1 0 1
0 -147 -161 54 0 0 1 15 0 1 0 1
0 -147 -161 -20 0 0 1 15 0 1 0 1
phys
0 -147 -161 -20 0 0 1 15 0 1 0 1
0 -147 -161 54 0 0 1 15 0 1 0 1
0 -147 209 54 0 0 1 15 0 1 0 1
phys
0 -147 -161 -20 0 0 1 15 0 1 0 1
0 -147 209 54 0 0 1 15 0 1 0 1
0 -147 209 -20 0 0 1 15 0 1 0 1
phys
0 -144 209 -20 0 0 1 15 0 1 0 1
0 -144 209 54 0 0 1 15 0 1 0 1
0 -144 -161 54 0 0 1 15 0 1 0 1
phys
0 -144 209 -20 0 0 1 15 0 1 0 1
0 -144 -161 54 0 0 1 15 0 1 0 1
0 -144 -161 -20 0 0 1 15 0 1 0 1
phys
0 -144 -161 -20 0 0 1 15 0 1 0 1
0 -147 -161 -20 0 0 1 15 0 1 0 1
0 -147 209 -20 0 0 1 15 0 1 0 1
phys
0 -144 -161 -20 0 0 1 15 0 1 0 1
0 -147 209 -20 0 0 1 15 0 1 0 1
0 -144 209 -20 0 0 1 15 0 1 0 1
phys
0 -144 -16 20 0 0 1 16 0 1 0 1
0 144 -16 20 0 0 1 16 0 1 0 1
0 144 16 20 0 0 1 16 0 1 0 1
phys
0 -144 -16 20 0 0 1 16 0 1 0 1
0 144 16 20 0 0 1 16 0 1 0 1
0 -144 16 20 0 0 1 16 0 1 0 1
phys
0 -144 16 -20 0 0 1 16 0 1 0 1
0 -144 16 20 0 0 1 16 0 1 0 1
0 144 16 20 0 0 1 16 0 1 0 1
phys
0 -144 16 -20 0 0 1 16 0 1 0 1
0 144 16 20 0 0 1 16 0 1 0 1
0 144 16 -20 0 0 1 16 0 1 0 1
phys
0 144 -16 -20 0 0 1 16 0 1 0 1
0 144 -16 20 0 0 1 16 0 1 0 1
0 -144 -16 20 0 0 1 16 0 1 0 1
phys
0 144 -16 -20 0 0 1 16 0 1 0 1
0 -144 -16 20 0 0 1 16 0 1 0 1
0 -144 -16 -20 0 0 1 16 0 1 0 1
phys
0 -144 -16 -20 0 0 1 16 0 1 0 1
0 -144 -16 20 0 0 1 16 0 1 0 1
0 -144 16 20 0 0 1 16 0 1 0 1
phys
0 -144 -16 -20 0 0 1 16 0 1 0 1
0 -144 16 20 0 0 1 16 0 1 0 1
0 -144 16 -20 0 0 1 16 0 1 0 1
phys
0 144 16 -20 0 0 1 16 0 1 0 1
0 144 16 20 0 0 1 16 0 1 0 1
0 144 -16 20 0 0 1 16 0 1 0 1
phys
0 144 16 -20 0 0 1 16 0 1 0 1
0 144 -16 20 0 0 1 16 0 1 0 1
0 144 -16 -20 0 0 1 16 0 1 0 1
phys
0 144 -16 -20 0 0 1 16 0 1 0 1
0 -144 -16 -20 0 0 1 16 0 1 0 1
0 -144 16 -20 0 0 1 16 0 1 0 1
phys
0 144 -16 -20 0 0 1 16 0 1 0 1
0 -144 16 -20 0 0 1 16 0 1 0 1
0 144 16 -20 0 0 1 16 0 1 0 1
end
