version 1
nodes
0 "root" -1
end
skeleton
time 0
0 0 0 0 0 0 0
end
triangles
phys
0 -109 -96 -147.001 0 0 1 1 0 1 0 1
0 -149 -96 -147.001 0 0 1 1 0 1 0 1
0 -149 -94 -149 0 0 1 1 0 1 0 1
phys
0 -109 -96 -147.001 0 0 1 1 0 1 0 1
0 -149 -94 -149 0 0 1 1 0 1 0 1
0 -109 -94 -149 0 0 1 1 0 1 0 1
phys
0 -109 -91 1 0 0 1 1 0 1 0 1
0 -109 -91 -149 0 0 1 1 0 1 0 1
0 -149 -91 -149 0 0 1 1 0 1 0 1
phys
0 -109 -91 1 0 0 1 1 0 1 0 1
0 -149 -91 -149 0 0 1 1 0 1 0 1
0 -149 -91 1 0 0 1 1 0 1 0 1
phys
0 -149 -96 -0.999 0 0 1 1 0 1 0 1
0 -149 -96 -147.001 0 0 1 1 0 1 0 1
0 -109 -96 -147.001 0 0 1 1 0 1 0 1
phys
0 -149 -96 -0.999 0 0 1 1 0 1 0 1
0 -109 -96 -147.001 0 0 1 1 0 1 0 1
0 -109 -96 -0.999 0 0 1 1 0 1 0 1
phys
0 -149 -94 -149 0 0 1 1 0 1 0 1
0 -149 -96 -147.001 0 0 1 1 0 1 0 1
0 -149 -96 -0.999 0 0 1 1 0 1 0 1
phys
0 -149 -94 -149 0 0 1 1 0 1 0 1
0 -149 -96 -0.999 0 0 1 1 0 1 0 1
0 -149 -94 1 0 0 1 1 0 1 0 1
phys
0 -149 -94 -149 0 0 1 1 0 1 0 1
0 -149 -94 1 0 0 1 1 0 1 0 1
0 -149 -91 1 0 0 1 1 0 1 0 1
phys
0 -149 -94 -149 0 0 1 1 0 1 0 1
0 -149 -91 1 0 0 1 1 0 1 0 1
0 -149 -91 -149 0 0 1 1 0 1 0 1
phys
0 -109 -96 -0.999 0 0 1 1 0 1 0 1
0 -109 -96 -147.001 0 0 1 1 0 1 0 1
0 -109 -94 -149 0 0 1 1 0 1 0 1
phys
0 -109 -96 -0.999 0 0 1 1 0 1 0 1
0 -109 -94 -149 0 0 1 1 0 1 0 1
0 -109 -91 -149 0 0 1 1 0 1 0 1
phys
0 -109 -96 -0.999 0 0 1 1 0 1 0 1
0 -109 -91 -149 0 0 1 1 0 1 0 1
0 -109 -91 1 0 0 1 1 0 1 0 1
phys
0 -109 -96 -0.999 0 0 1 1 0 1 0 1
0 -109 -91 1 0 0 1 1 0 1 0 1
0 -109 -94 1 0 0 1 1 0 1 0 1
phys
0 -109 -94 -149 0 0 1 1 0 1 0 1
0 -149 -94 -149 0 0 1 1 0 1 0 1
0 -149 -91 -149 0 0 1 1 0 1 0 1
phys
0 -109 -94 -149 0 0 1 1 0 1 0 1
0 -149 -91 -149 0 0 1 1 0 1 0 1
0 -109 -91 -149 0 0 1 1 0 1 0 1
phys
0 -109 -94 1 0 0 1 1 0 1 0 1
0 -109 -91 1 0 0 1 1 0 1 0 1
0 -149 -91 1 0 0 1 1 0 1 0 1
phys
0 -109 -94 1 0 0 1 1 0 1 0 1
0 -149 -91 1 0 0 1 1 0 1 0 1
0 -149 -94 1 0 0 1 1 0 1 0 1
phys
0 -149 -96 -0.999 0 0 1 1 0 1 0 1
0 -109 -96 -0.999 0 0 1 1 0 1 0 1
0 -109 -94 1 0 0 1 1 0 1 0 1
phys
0 -149 -96 -0.999 0 0 1 1 0 1 0 1
0 -109 -94 1 0 0 1 1 0 1 0 1
0 -149 -94 1 0 0 1 1 0 1 0 1
phys
0 85 184 -78.001 0 0 1 2 0 1 0 1
0 85 184 -190 0 0 1 2 0 1 0 1
0 81 184 -190 0 0 1 2 0 1 0 1
phys
0 85 184 -78.001 0 0 1 2 0 1 0 1
0 81 184 -190 0 0 1 2 0 1 0 1
0 81 184 -82.001 0 0 1 2 0 1 0 1
phys
0 85 176 -190 0 0 1 2 0 1 0 1
0 85 176 -78.001 0 0 1 2 0 1 0 1
0 81 176 -82.001 0 0 1 2 0 1 0 1
phys
0 85 176 -190 0 0 1 2 0 1 0 1
0 81 176 -82.001 0 0 1 2 0 1 0 1
0 81 176 -190 0 0 1 2 0 1 0 1
phys
0 81 176 -190 0 0 1 2 0 1 0 1
0 81 176 -82.001 0 0 1 2 0 1 0 1
0 81 184 -82.001 0 0 1 2 0 1 0 1
phys
0 81 176 -190 0 0 1 2 0 1 0 1
0 81 184 -82.001 0 0 1 2 0 1 0 1
0 81 184 -190 0 0 1 2 0 1 0 1
phys
0 85 176 -78.001 0 0 1 2 0 1 0 1
0 85 176 -190 0 0 1 2 0 1 0 1
0 85 184 -190 0 0 1 2 0 1 0 1
phys
0 85 176 -78.001 0 0 1 2 0 1 0 1
0 85 184 -190 0 0 1 2 0 1 0 1
0 85 184 -78.001 0 0 1 2 0 1 0 1
phys
0 85 176 -190 0 0 1 2 0 1 0 1
0 81 176 -190 0 0 1 2 0 1 0 1
0 81 184 -190 0 0 1 2 0 1 0 1
phys
0 85 176 -190 0 0 1 2 0 1 0 1
0 81 184 -190 0 0 1 2 0 1 0 1
0 85 184 -190 0 0 1 2 0 1 0 1
phys
0 81 176 -82.001 0 0 1 2 0 1 0 1
0 85 176 -78.001 0 0 1 2 0 1 0 1
0 85 184 -78.001 0 0 1 2 0 1 0 1
phys
0 81 176 -82.001 0 0 1 2 0 1 0 1
0 85 184 -78.001 0 0 1 2 0 1 0 1
0 81 184 -82.001 0 0 1 2 0 1 0 1
phys
0 33 184 -82 0 0 1 3 0 1 0 1
0 33 184 -190 0 0 1 3 0 1 0 1
0 29 184 -190 0 0 1 3 0 1 0 1
phys
0 33 184 -82 0 0 1 3 0 1 0 1
0 29 184 -190 0 0 1 3 0 1 0 1
0 29 184 -78 0 0 1 3 0 1 0 1
phys
0 33 176 -190 0 0 1 3 0 1 0 1
0 33 176 -82 0 0 1 3 0 1 0 1
0 29 176 -78 0 0 1 3 0 1 0 1
phys
0 33 176 -190 0 0 1 3 0 1 0 1
0 29 176 -78 0 0 1 3 0 1 0 1
0 29 176 -190 0 0 1 3 0 1 0 1
phys
0 29 176 -190 0 0 1 3 0 1 0 1
0 29 176 -78 0 0 1 3 0 1 0 1
0 29 184 -78 0 0 1 3 0 1 0 1
phys
0 29 176 -190 0 0 1 3 0 1 0 1
0 29 184 -78 0 0 1 3 0 1 0 1
0 29 184 -190 0 0 1 3 0 1 0 1
phys
0 33 176 -82 0 0 1 3 0 1 0 1
0 33 176 -190 0 0 1 3 0 1 0 1
0 33 184 -190 0 0 1 3 0 1 0 1
phys
0 33 176 -82 0 0 1 3 0 1 0 1
0 33 184 -190 0 0 1 3 0 1 0 1
0 33 184 -82 0 0 1 3 0 1 0 1
phys
0 33 176 -190 0 0 1 3 0 1 0 1
0 29 176 -190 0 0 1 3 0 1 0 1
0 29 184 -190 0 0 1 3 0 1 0 1
phys
0 33 176 -190 0 0 1 3 0 1 0 1
0 29 184 -190 0 0 1 3 0 1 0 1
0 33 184 -190 0 0 1 3 0 1 0 1
phys
0 29 176 -78 0 0 1 3 0 1 0 1
0 33 176 -82 0 0 1 3 0 1 0 1
0 33 184 -82 0 0 1 3 0 1 0 1
phys
0 29 176 -78 0 0 1 3 0 1 0 1
0 33 184 -82 0 0 1 3 0 1 0 1
0 29 184 -78 0 0 1 3 0 1 0 1
phys
0 -75 -176 -147 0 0 1 4 0 1 0 1
0 -75 -176 -179 0 0 1 4 0 1 0 1
0 -182 -176 -179 0 0 1 4 0 1 0 1
phys
0 -75 -176 -147 0 0 1 4 0 1 0 1
0 -182 -176 -179 0 0 1 4 0 1 0 1
0 -182 -176 -147 0 0 1 4 0 1 0 1
phys
0 -75 -178 -179 0 0 1 4 0 1 0 1
0 -75 -178 -147 0 0 1 4 0 1 0 1
0 -182 -178 -147 0 0 1 4 0 1 0 1
phys
0 -75 -178 -179 0 0 1 4 0 1 0 1
0 -182 -178 -147 0 0 1 4 0 1 0 1
0 -182 -178 -179 0 0 1 4 0 1 0 1
phys
0 -182 -178 -179 0 0 1 4 0 1 0 1
0 -182 -178 -147 0 0 1 4 0 1 0 1
0 -182 -176 -147 0 0 1 4 0 1 0 1
phys
0 -182 -178 -179 0 0 1 4 0 1 0 1
0 -182 -176 -147 0 0 1 4 0 1 0 1
0 -182 -176 -179 0 0 1 4 0 1 0 1
phys
0 -75 -178 -147 0 0 1 4 0 1 0 1
0 -75 -178 -179 0 0 1 4 0 1 0 1
0 -75 -176 -179 0 0 1 4 0 1 0 1
phys
0 -75 -178 -147 0 0 1 4 0 1 0 1
0 -75 -176 -179 0 0 1 4 0 1 0 1
0 -75 -176 -147 0 0 1 4 0 1 0 1
phys
0 -75 -178 -179 0 0 1 4 0 1 0 1
0 -182 -178 -179 0 0 1 4 0 1 0 1
0 -182 -176 -179 0 0 1 4 0 1 0 1
phys
0 -75 -178 -179 0 0 1 4 0 1 0 1
0 -182 -176 -179 0 0 1 4 0 1 0 1
0 -75 -176 -179 0 0 1 4 0 1 0 1
phys
0 -182 -178 -147 0 0 1 4 0 1 0 1
0 -75 -178 -147 0 0 1 4 0 1 0 1
0 -75 -176 -147 0 0 1 4 0 1 0 1
phys
0 -182 -178 -147 0 0 1 4 0 1 0 1
0 -75 -176 -147 0 0 1 4 0 1 0 1
0 -182 -176 -147 0 0 1 4 0 1 0 1
phys
0 -41 -175 175 0 0 1 5 0 1 0 1
0 -41 -175 60 0 0 1 5 0 1 0 1
0 -216 -175 60 0 0 1 5 0 1 0 1
phys
0 -41 -175 175 0 0 1 5 0 1 0 1
0 -216 -175 60 0 0 1 5 0 1 0 1
0 -216 -175 175 0 0 1 5 0 1 0 1
phys
0 -41 -177 60 0 0 1 5 0 1 0 1
0 -41 -177 175 0 0 1 5 0 1 0 1
0 -216 -177 175 0 0 1 5 0 1 0 1
phys
0 -41 -177 60 0 0 1 5 0 1 0 1
0 -216 -177 175 0 0 1 5 0 1 0 1
0 -216 -177 60 0 0 1 5 0 1 0 1
phys
0 -216 -177 60 0 0 1 5 0 1 0 1
0 -216 -177 175 0 0 1 5 0 1 0 1
0 -216 -175 175 0 0 1 5 0 1 0 1
phys
0 -216 -177 60 0 0 1 5 0 1 0 1
0 -216 -175 175 0 0 1 5 0 1 0 1
0 -216 -175 60 0 0 1 5 0 1 0 1
phys
0 -41 -177 175 0 0 1 5 0 1 0 1
0 -41 -177 60 0 0 1 5 0 1 0 1
0 -41 -175 60 0 0 1 5 0 1 0 1
phys
0 -41 -177 175 0 0 1 5 0 1 0 1
0 -41 -175 60 0 0 1 5 0 1 0 1
0 -41 -175 175 0 0 1 5 0 1 0 1
phys
0 -41 -177 60 0 0 1 5 0 1 0 1
0 -216 -177 60 0 0 1 5 0 1 0 1
0 -216 -175 60 0 0 1 5 0 1 0 1
phys
0 -41 -177 60 0 0 1 5 0 1 0 1
0 -216 -175 60 0 0 1 5 0 1 0 1
0 -41 -175 60 0 0 1 5 0 1 0 1
phys
0 -216 -177 175 0 0 1 5 0 1 0 1
0 -41 -177 175 0 0 1 5 0 1 0 1
0 -41 -175 175 0 0 1 5 0 1 0 1
phys
0 -216 -177 175 0 0 1 5 0 1 0 1
0 -41 -175 175 0 0 1 5 0 1 0 1
0 -216 -175 175 0 0 1 5 0 1 0 1
phys
0 -75 -180 -190 0 0 1 6 0 1 0 1
0 -75 -180 -179 0 0 1 6 0 1 0 1
0 -182 -180 -179 0 0 1 6 0 1 0 1
phys
0 -75 -180 -190 0 0 1 6 0 1 0 1
0 -182 -180 -179 0 0 1 6 0 1 0 1
0 -182 -180 -190 0 0 1 6 0 1 0 1
phys
0 -182 -180 -190 0 0 1 6 0 1 0 1
0 -182 -180 -179 0 0 1 6 0 1 0 1
0 -182 -174 -179 0 0 1 6 0 1 0 1
phys
0 -182 -180 -190 0 0 1 6 0 1 0 1
0 -182 -174 -179 0 0 1 6 0 1 0 1
0 -182 -174 -190 0 0 1 6 0 1 0 1
phys
0 -75 -180 -179 0 0 1 6 0 1 0 1
0 -75 -180 -190 0 0 1 6 0 1 0 1
0 -75 -174 -190 0 0 1 6 0 1 0 1
phys
0 -75 -180 -179 0 0 1 6 0 1 0 1
0 -75 -174 -190 0 0 1 6 0 1 0 1
0 -75 -174 -179 0 0 1 6 0 1 0 1
phys
0 -75 -180 -190 0 0 1 6 0 1 0 1
0 -182 -180 -190 0 0 1 6 0 1 0 1
0 -182 -174 -190 0 0 1 6 0 1 0 1
phys
0 -75 -180 -190 0 0 1 6 0 1 0 1
0 -182 -174 -190 0 0 1 6 0 1 0 1
0 -75 -174 -190 0 0 1 6 0 1 0 1
phys
0 -182 -180 -179 0 0 1 6 0 1 0 1
0 -75 -180 -179 0 0 1 6 0 1 0 1
0 -75 -174 -179 0 0 1 6 0 1 0 1
phys
0 -182 -180 -179 0 0 1 6 0 1 0 1
0 -75 -174 -179 0 0 1 6 0 1 0 1
0 -182 -174 -179 0 0 1 6 0 1 0 1
phys
0 -75 -174 -179 0 0 1 6 0 1 0 1
0 -75 -174 -190 0 0 1 6 0 1 0 1
0 -182 -174 -190 0 0 1 6 0 1 0 1
phys
0 -75 -174 -179 0 0 1 6 0 1 0 1
0 -182 -174 -190 0 0 1 6 0 1 0 1
0 -182 -174 -179 0 0 1 6 0 1 0 1
phys
0 -128 -172 175 0 0 1 7 0 1 0 1
0 -128 -172 60 0 0 1 7 0 1 0 1
0 -130 -172 60 0 0 1 7 0 1 0 1
phys
0 -128 -172 175 0 0 1 7 0 1 0 1
0 -130 -172 60 0 0 1 7 0 1 0 1
0 -130 -172 175 0 0 1 7 0 1 0 1
phys
0 -128 -180 60 0 0 1 7 0 1 0 1
0 -128 -180 175 0 0 1 7 0 1 0 1
0 -130 -180 175 0 0 1 7 0 1 0 1
phys
0 -128 -180 60 0 0 1 7 0 1 0 1
0 -130 -180 175 0 0 1 7 0 1 0 1
0 -130 -180 60 0 0 1 7 0 1 0 1
phys
0 -130 -180 60 0 0 1 7 0 1 0 1
0 -130 -180 175 0 0 1 7 0 1 0 1
0 -130 -172 175 0 0 1 7 0 1 0 1
phys
0 -130 -180 60 0 0 1 7 0 1 0 1
0 -130 -172 175 0 0 1 7 0 1 0 1
0 -130 -172 60 0 0 1 7 0 1 0 1
phys
0 -128 -180 175 0 0 1 7 0 1 0 1
0 -128 -180 60 0 0 1 7 0 1 0 1
0 -128 -172 60 0 0 1 7 0 1 0 1
phys
0 -128 -180 175 0 0 1 7 0 1 0 1
0 -128 -172 60 0 0 1 7 0 1 0 1
0 -128 -172 175 0 0 1 7 0 1 0 1
phys
0 -128 -180 60 0 0 1 7 0 1 0 1
0 -130 -180 60 0 0 1 7 0 1 0 1
0 -130 -172 60 0 0 1 7 0 1 0 1
phys
0 -128 -180 60 0 0 1 7 0 1 0 1
0 -130 -172 60 0 0 1 7 0 1 0 1
0 -128 -172 60 0 0 1 7 0 1 0 1
phys
0 -130 -180 175 0 0 1 7 0 1 0 1
0 -128 -180 175 0 0 1 7 0 1 0 1
0 -128 -172 175 0 0 1 7 0 1 0 1
phys
0 -130 -180 175 0 0 1 7 0 1 0 1
0 -128 -172 175 0 0 1 7 0 1 0 1
0 -130 -172 175 0 0 1 7 0 1 0 1
phys
0 280 8 92 0 0 1 8 0 1 0 1
0 280 8 82 0 0 1 8 0 1 0 1
0 88 8 82 0 0 1 8 0 1 0 1
phys
0 280 8 92 0 0 1 8 0 1 0 1
0 88 8 82 0 0 1 8 0 1 0 1
0 88 8 92 0 0 1 8 0 1 0 1
phys
0 280 0 89.9993 0 0 1 8 0 1 0 1
0 280 0 92 0 0 1 8 0 1 0 1
0 88 0 92 0 0 1 8 0 1 0 1
phys
0 280 0 89.9993 0 0 1 8 0 1 0 1
0 88 0 92 0 0 1 8 0 1 0 1
0 88 0 89.9993 0 0 1 8 0 1 0 1
phys
0 88 0 89.9993 0 0 1 8 0 1 0 1
0 88 0 92 0 0 1 8 0 1 0 1
0 88 8 92 0 0 1 8 0 1 0 1
phys
0 88 0 89.9993 0 0 1 8 0 1 0 1
0 88 8 92 0 0 1 8 0 1 0 1
0 88 8 82 0 0 1 8 0 1 0 1
phys
0 88 0 89.9993 0 0 1 8 0 1 0 1
0 88 8 82 0 0 1 8 0 1 0 1
0 88 6 82 0 0 1 8 0 1 0 1
phys
0 280 0 92 0 0 1 8 0 1 0 1
0 280 0 89.9993 0 0 1 8 0 1 0 1
0 280 6 82 0 0 1 8 0 1 0 1
phys
0 280 0 92 0 0 1 8 0 1 0 1
0 280 6 82 0 0 1 8 0 1 0 1
0 280 8 82 0 0 1 8 0 1 0 1
phys
0 280 0 92 0 0 1 8 0 1 0 1
0 280 8 82 0 0 1 8 0 1 0 1
0 280 8 92 0 0 1 8 0 1 0 1
phys
0 88 6 82 0 0 1 8 0 1 0 1
0 88 8 82 0 0 1 8 0 1 0 1
0 280 8 82 0 0 1 8 0 1 0 1
phys
0 88 6 82 0 0 1 8 0 1 0 1
0 280 8 82 0 0 1 8 0 1 0 1
0 280 6 82 0 0 1 8 0 1 0 1
phys
0 88 0 92 0 0 1 8 0 1 0 1
0 280 0 92 0 0 1 8 0 1 0 1
0 280 8 92 0 0 1 8 0 1 0 1
phys
0 88 0 92 0 0 1 8 0 1 0 1
0 280 8 92 0 0 1 8 0 1 0 1
0 88 8 92 0 0 1 8 0 1 0 1
phys
0 280 0 89.9993 0 0 1 8 0 1 0 1
0 88 0 89.9993 0 0 1 8 0 1 0 1
0 88 6 82 0 0 1 8 0 1 0 1
phys
0 280 0 89.9993 0 0 1 8 0 1 0 1
0 88 6 82 0 0 1 8 0 1 0 1
0 280 6 82 0 0 1 8 0 1 0 1
phys
0 -41 -172 92 0 0 1 9 0 1 0 1
0 -41 -172 90 0 0 1 9 0 1 0 1
0 -128 -172 90 0 0 1 9 0 1 0 1
phys
0 -41 -172 92 0 0 1 9 0 1 0 1
0 -128 -172 90 0 0 1 9 0 1 0 1
0 -128 -172 92 0 0 1 9 0 1 0 1
phys
0 -41 -180 90 0 0 1 9 0 1 0 1
0 -41 -180 92 0 0 1 9 0 1 0 1
0 -128 -180 92 0 0 1 9 0 1 0 1
phys
0 -41 -180 90 0 0 1 9 0 1 0 1
0 -128 -180 92 0 0 1 9 0 1 0 1
0 -128 -180 90 0 0 1 9 0 1 0 1
phys
0 -128 -180 90 0 0 1 9 0 1 0 1
0 -128 -180 92 0 0 1 9 0 1 0 1
0 -128 -172 92 0 0 1 9 0 1 0 1
phys
0 -128 -180 90 0 0 1 9 0 1 0 1
0 -128 -172 92 0 0 1 9 0 1 0 1
0 -128 -172 90 0 0 1 9 0 1 0 1
phys
0 -41 -180 92 0 0 1 9 0 1 0 1
0 -41 -180 90 0 0 1 9 0 1 0 1
0 -41 -172 90 0 0 1 9 0 1 0 1
phys
0 -41 -180 92 0 0 1 9 0 1 0 1
0 -41 -172 90 0 0 1 9 0 1 0 1
0 -41 -172 92 0 0 1 9 0 1 0 1
phys
0 -41 -180 90 0 0 1 9 0 1 0 1
0 -128 -180 90 0 0 1 9 0 1 0 1
0 -128 -172 90 0 0 1 9 0 1 0 1
phys
0 -41 -180 90 0 0 1 9 0 1 0 1
0 -128 -172 90 0 0 1 9 0 1 0 1
0 -41 -172 90 0 0 1 9 0 1 0 1
phys
0 -128 -180 92 0 0 1 9 0 1 0 1
0 -41 -180 92 0 0 1 9 0 1 0 1
0 -41 -172 92 0 0 1 9 0 1 0 1
phys
0 -128 -180 92 0 0 1 9 0 1 0 1
0 -41 -172 92 0 0 1 9 0 1 0 1
0 -128 -172 92 0 0 1 9 0 1 0 1
phys
0 33 176 -82 0 0 1 10 0 1 0 1
0 33 184 -82 0 0 1 10 0 1 0 1
0 81 184 -82 0 0 1 10 0 1 0 1
phys
0 33 176 -82 0 0 1 10 0 1 0 1
0 81 184 -82 0 0 1 10 0 1 0 1
0 81 176 -82 0 0 1 10 0 1 0 1
phys
0 85 176 -78 0 0 1 10 0 1 0 1
0 85 184 -78 0 0 1 10 0 1 0 1
0 29 184 -78 0 0 1 10 0 1 0 1
phys
0 85 176 -78 0 0 1 10 0 1 0 1
0 29 184 -78 0 0 1 10 0 1 0 1
0 29 176 -78 0 0 1 10 0 1 0 1
phys
0 81 176 -82 0 0 1 10 0 1 0 1
0 81 184 -82 0 0 1 10 0 1 0 1
0 85 184 -78 0 0 1 10 0 1 0 1
phys
0 81 176 -82 0 0 1 10 0 1 0 1
0 85 184 -78 0 0 1 10 0 1 0 1
0 85 176 -78 0 0 1 10 0 1 0 1
phys
0 29 176 -78 0 0 1 10 0 1 0 1
0 29 184 -78 0 0 1 10 0 1 0 1
0 33 184 -82 0 0 1 10 0 1 0 1
phys
0 29 176 -78 0 0 1 10 0 1 0 1
0 33 184 -82 0 0 1 10 0 1 0 1
0 33 176 -82 0 0 1 10 0 1 0 1
phys
0 81 184 -82 0 0 1 10 0 1 0 1
0 33 184 -82 0 0 1 10 0 1 0 1
0 29 184 -78 0 0 1 10 0 1 0 1
phys
0 81 184 -82 0 0 1 10 0 1 0 1
0 29 184 -78 0 0 1 10 0 1 0 1
0 85 184 -78 0 0 1 10 0 1 0 1
phys
0 85 176 -78 0 0 1 10 0 1 0 1
0 29 176 -78 0 0 1 10 0 1 0 1
0 33 176 -82 0 0 1 10 0 1 0 1
phys
0 85 176 -78 0 0 1 10 0 1 0 1
0 33 176 -82 0 0 1 10 0 1 0 1
0 81 176 -82 0 0 1 10 0 1 0 1
phys
0 -69 -174 -147 0 0 1 11 0 1 0 1
0 -69 -174 -190 0 0 1 11 0 1 0 1
0 -75 -174 -190 0 0 1 11 0 1 0 1
phys
0 -69 -174 -147 0 0 1 11 0 1 0 1
0 -75 -174 -190 0 0 1 11 0 1 0 1
0 -75 -174 -147 0 0 1 11 0 1 0 1
phys
0 -69 -180 -190 0 0 1 11 0 1 0 1
0 -69 -180 -147 0 0 1 11 0 1 0 1
0 -75 -180 -147 0 0 1 11 0 1 0 1
phys
0 -69 -180 -190 0 0 1 11 0 1 0 1
0 -75 -180 -147 0 0 1 11 0 1 0 1
0 -75 -180 -190 0 0 1 11 0 1 0 1
phys
0 -75 -180 -190 0 0 1 11 0 1 0 1
0 -75 -180 -147 0 0 1 11 0 1 0 1
0 -75 -174 -147 0 0 1 11 0 1 0 1
phys
0 -75 -180 -190 0 0 1 11 0 1 0 1
0 -75 -174 -147 0 0 1 11 0 1 0 1
0 -75 -174 -190 0 0 1 11 0 1 0 1
phys
0 -69 -180 -147 0 0 1 11 0 1 0 1
0 -69 -180 -190 0 0 1 11 0 1 0 1
0 -69 -174 -190 0 0 1 11 0 1 0 1
phys
0 -69 -180 -147 0 0 1 11 0 1 0 1
0 -69 -174 -190 0 0 1 11 0 1 0 1
0 -69 -174 -147 0 0 1 11 0 1 0 1
phys
0 -69 -180 -190 0 0 1 11 0 1 0 1
0 -75 -180 -190 0 0 1 11 0 1 0 1
0 -75 -174 -190 0 0 1 11 0 1 0 1
phys
0 -69 -180 -190 0 0 1 11 0 1 0 1
0 -75 -174 -190 0 0 1 11 0 1 0 1
0 -69 -174 -190 0 0 1 11 0 1 0 1
phys
0 -75 -180 -147 0 0 1 11 0 1 0 1
0 -69 -180 -147 0 0 1 11 0 1 0 1
0 -69 -174 -147 0 0 1 11 0 1 0 1
phys
0 -75 -180 -147 0 0 1 11 0 1 0 1
0 -69 -174 -147 0 0 1 11 0 1 0 1
0 -75 -174 -147 0 0 1 11 0 1 0 1
phys
0 -39 -172 177 0 0 1 12 0 1 0 1
0 -39 -172 175 0 0 1 12 0 1 0 1
0 -218 -172 175 0 0 1 12 0 1 0 1
phys
0 -39 -172 177 0 0 1 12 0 1 0 1
0 -218 -172 175 0 0 1 12 0 1 0 1
0 -218 -172 177 0 0 1 12 0 1 0 1
phys
0 -39 -180 175 0 0 1 12 0 1 0 1
0 -39 -180 177 0 0 1 12 0 1 0 1
0 -218 -180 177 0 0 1 12 0 1 0 1
phys
0 -39 -180 175 0 0 1 12 0 1 0 1
0 -218 -180 177 0 0 1 12 0 1 0 1
0 -218 -180 175 0 0 1 12 0 1 0 1
phys
0 -218 -180 175 0 0 1 12 0 1 0 1
0 -218 -180 177 0 0 1 12 0 1 0 1
0 -218 -172 177 0 0 1 12 0 1 0 1
phys
0 -218 -180 175 0 0 1 12 0 1 0 1
0 -218 -172 177 0 0 1 12 0 1 0 1
0 -218 -172 175 0 0 1 12 0 1 0 1
phys
0 -39 -180 177 0 0 1 12 0 1 0 1
0 -39 -180 175 0 0 1 12 0 1 0 1
0 -39 -172 175 0 0 1 12 0 1 0 1
phys
0 -39 -180 177 0 0 1 12 0 1 0 1
0 -39 -172 175 0 0 1 12 0 1 0 1
0 -39 -172 177 0 0 1 12 0 1 0 1
phys
0 -39 -180 175 0 0 1 12 0 1 0 1
0 -218 -180 175 0 0 1 12 0 1 0 1
0 -218 -172 175 0 0 1 12 0 1 0 1
phys
0 -39 -180 175 0 0 1 12 0 1 0 1
0 -218 -172 175 0 0 1 12 0 1 0 1
0 -39 -172 175 0 0 1 12 0 1 0 1
phys
0 -218 -180 177 0 0 1 12 0 1 0 1
0 -39 -180 177 0 0 1 12 0 1 0 1
0 -39 -172 177 0 0 1 12 0 1 0 1
phys
0 -218 -180 177 0 0 1 12 0 1 0 1
0 -39 -172 177 0 0 1 12 0 1 0 1
0 -218 -172 177 0 0 1 12 0 1 0 1
phys
0 270 -12 -190 0 0 1 13 0 1 0 1
0 270 -12 -199 0 0 1 13 0 1 0 1
0 125 -12 -199 0 0 1 13 0 1 0 1
phys
0 270 -12 -190 0 0 1 13 0 1 0 1
0 125 -12 -199 0 0 1 13 0 1 0 1
0 125 -12 -190 0 0 1 13 0 1 0 1
phys
0 125 -27 -190 0 0 1 13 0 1 0 1
0 125 -12 -190 0 0 1 13 0 1 0 1
0 125 -12 -199 0 0 1 13 0 1 0 1
phys
0 270 -12 -199 0 0 1 13 0 1 0 1
0 270 -12 -190 0 0 1 13 0 1 0 1
0 270 -27 -190 0 0 1 13 0 1 0 1
phys
0 270 -27 -190 0 0 1 13 0 1 0 1
0 270 -12 -190 0 0 1 13 0 1 0 1
0 125 -12 -190 0 0 1 13 0 1 0 1
phys
0 270 -27 -190 0 0 1 13 0 1 0 1
0 125 -12 -190 0 0 1 13 0 1 0 1
0 125 -27 -190 0 0 1 13 0 1 0 1
phys
0 125 -27 -190 0 0 1 13 0 1 0 1
0 125 -12 -199 0 0 1 13 0 1 0 1
0 270 -12 -199 0 0 1 13 0 1 0 1
phys
0 125 -27 -190 0 0 1 13 0 1 0 1
0 270 -12 -199 0 0 1 13 0 1 0 1
0 270 -27 -190 0 0 1 13 0 1 0 1
phys
0 125 -12 -199 0 0 1 14 0 1 0 1
0 125 3 -199 0 0 1 14 0 1 0 1
0 125 3 -208 0 0 1 14 0 1 0 1
phys
0 270 3 -199 0 0 1 14 0 1 0 1
0 270 -12 -199 0 0 1 14 0 1 0 1
0 270 3 -208 0 0 1 14 0 1 0 1
phys
0 270 -12 -199 0 0 1 14 0 1 0 1
0 270 3 -199 0 0 1 14 0 1 0 1
0 125 3 -199 0 0 1 14 0 1 0 1
phys
0 270 -12 -199 0 0 1 14 0 1 0 1
0 125 3 -199 0 0 1 14 0 1 0 1
0 125 -12 -199 0 0 1 14 0 1 0 1
phys
0 125 -12 -199 0 0 1 14 0 1 0 1
0 125 3 -208 0 0 1 14 0 1 0 1
0 270 3 -208 0 0 1 14 0 1 0 1
phys
0 125 -12 -199 0 0 1 14 0 1 0 1
0 270 3 -208 0 0 1 14 0 1 0 1
0 270 -12 -199 0 0 1 14 0 1 0 1
phys
0 270 3 -199 0 0 1 14 0 1 0 1
0 270 3 -208 0 0 1 14 0 1 0 1
0 125 3 -208 0 0 1 14 0 1 0 1
phys
0 270 3 -199 0 0 1 14 0 1 0 1
0 125 3 -208 0 0 1 14 0 1 0 1
0 125 3 -199 0 0 1 14 0 1 0 1
phys
0 270 18 -208 0 0 1 15 0 1 0 1
0 270 18 -217 0 0 1 15 0 1 0 1
0 125 18 -217 0 0 1 15 0 1 0 1
phys
0 270 18 -208 0 0 1 15 0 1 0 1
0 125 18 -217 0 0 1 15 0 1 0 1
0 125 18 -208 0 0 1 15 0 1 0 1
phys
0 125 3 -208 0 0 1 15 0 1 0 1
0 125 18 -208 0 0 1 15 0 1 0 1
0 125 18 -217 0 0 1 15 0 1 0 1
phys
0 270 18 -217 0 0 1 15 0 1 0 1
0 270 18 -208 0 0 1 15 0 1 0 1
0 270 3 -208 0 0 1 15 0 1 0 1
phys
0 270 3 -208 0 0 1 15 0 1 0 1
0 270 18 -208 0 0 1 15 0 1 0 1
0 125 18 -208 0 0 1 15 0 1 0 1
phys
0 270 3 -208 0 0 1 15 0 1 0 1
0 125 18 -208 0 0 1 15 0 1 0 1
0 125 3 -208 0 0 1 15 0 1 0 1
phys
0 125 3 -208 0 0 1 15 0 1 0 1
0 125 18 -217 0 0 1 15 0 1 0 1
0 270 18 -217 0 0 1 15 0 1 0 1
phys
0 125 3 -208 0 0 1 15 0 1 0 1
0 270 18 -217 0 0 1 15 0 1 0 1
0 270 3 -208 0 0 1 15 0 1 0 1
phys
0 270 33 -217 0 0 1 16 0 1 0 1
0 270 33 -226 0 0 1 16 0 1 0 1
0 125 33 -226 0 0 1 16 0 1 0 1
phys
0 270 33 -217 0 0 1 16 0 1 0 1
0 125 33 -226 0 0 1 16 0 1 0 1
0 125 33 -217 0 0 1 16 0 1 0 1
phys
0 125 18 -217 0 0 1 16 0 1 0 1
0 125 33 -217 0 0 1 16 0 1 0 1
0 125 33 -226 0 0 1 16 0 1 0 1
phys
0 270 33 -226 0 0 1 16 0 1 0 1
0 270 33 -217 0 0 1 16 0 1 0 1
0 270 18 -217 0 0 1 16 0 1 0 1
phys
0 270 18 -217 0 0 1 16 0 1 0 1
0 270 33 -217 0 0 1 16 0 1 0 1
0 125 33 -217 0 0 1 16 0 1 0 1
phys
0 270 18 -217 0 0 1 16 0 1 0 1
0 125 33 -217 0 0 1 16 0 1 0 1
0 125 18 -217 0 0 1 16 0 1 0 1
phys
0 125 18 -217 0 0 1 16 0 1 0 1
0 125 33 -226 0 0 1 16 0 1 0 1
0 270 33 -226 0 0 1 16 0 1 0 1
phys
0 125 18 -217 0 0 1 16 0 1 0 1
0 270 33 -226 0 0 1 16 0 1 0 1
0 270 18 -217 0 0 1 16 0 1 0 1
phys
0 270 48 -226 0 0 1 17 0 1 0 1
0 270 48 -235 0 0 1 17 0 1 0 1
0 125 48 -235 0 0 1 17 0 1 0 1
phys
0 270 48 -226 0 0 1 17 0 1 0 1
0 125 48 -235 0 0 1 17 0 1 0 1
0 125 48 -226 0 0 1 17 0 1 0 1
phys
0 125 33 -226 0 0 1 17 0 1 0 1
0 125 48 -226 0 0 1 17 0 1 0 1
0 125 48 -235 0 0 1 17 0 1 0 1
phys
0 270 48 -235 0 0 1 17 0 1 0 1
0 270 48 -226 0 0 1 17 0 1 0 1
0 270 33 -226 0 0 1 17 0 1 0 1
phys
0 270 33 -226 0 0 1 17 0 1 0 1
0 270 48 -226 0 0 1 17 0 1 0 1
0 125 48 -226 0 0 1 17 0 1 0 1
phys
0 270 33 -226 0 0 1 17 0 1 0 1
0 125 48 -226 0 0 1 17 0 1 0 1
0 125 33 -226 0 0 1 17 0 1 0 1
phys
0 125 33 -226 0 0 1 17 0 1 0 1
0 125 48 -235 0 0 1 17 0 1 0 1
0 270 48 -235 0 0 1 17 0 1 0 1
phys
0 125 33 -226 0 0 1 17 0 1 0 1
0 270 48 -235 0 0 1 17 0 1 0 1
0 270 33 -226 0 0 1 17 0 1 0 1
phys
0 270 78 -244 0 0 1 18 0 1 0 1
0 270 78 -253 0 0 1 18 0 1 0 1
0 125 78 -253 0 0 1 18 0 1 0 1
phys
0 270 78 -244 0 0 1 18 0 1 0 1
0 125 78 -253 0 0 1 18 0 1 0 1
0 125 78 -244 0 0 1 18 0 1 0 1
phys
0 125 63 -244 0 0 1 18 0 1 0 1
0 125 78 -244 0 0 1 18 0 1 0 1
0 125 78 -253 0 0 1 18 0 1 0 1
phys
0 270 78 -253 0 0 1 18 0 1 0 1
0 270 78 -244 0 0 1 18 0 1 0 1
0 270 63 -244 0 0 1 18 0 1 0 1
phys
0 270 63 -244 0 0 1 18 0 1 0 1
0 270 78 -244 0 0 1 18 0 1 0 1
0 125 78 -244 0 0 1 18 0 1 0 1
phys
0 270 63 -244 0 0 1 18 0 1 0 1
0 125 78 -244 0 0 1 18 0 1 0 1
0 125 63 -244 0 0 1 18 0 1 0 1
phys
0 125 63 -244 0 0 1 18 0 1 0 1
0 125 78 -253 0 0 1 18 0 1 0 1
0 270 78 -253 0 0 1 18 0 1 0 1
phys
0 125 63 -244 0 0 1 18 0 1 0 1
0 270 78 -253 0 0 1 18 0 1 0 1
0 270 63 -244 0 0 1 18 0 1 0 1
phys
0 125 93 -262 0 0 1 19 0 1 0 1
0 270 93 -262 0 0 1 19 0 1 0 1
0 270 108 -262 0 0 1 19 0 1 0 1
phys
0 125 93 -262 0 0 1 19 0 1 0 1
0 270 108 -262 0 0 1 19 0 1 0 1
0 125 108 -262 0 0 1 19 0 1 0 1
phys
0 270 93 -262 0 0 1 19 0 1 0 1
0 125 93 -262 0 0 1 19 0 1 0 1
0 125 108 -271 0 0 1 19 0 1 0 1
phys
0 270 93 -262 0 0 1 19 0 1 0 1
0 125 108 -271 0 0 1 19 0 1 0 1
0 270 108 -271 0 0 1 19 0 1 0 1
phys
0 270 108 -271 0 0 1 19 0 1 0 1
0 125 108 -271 0 0 1 19 0 1 0 1
0 125 108 -262 0 0 1 19 0 1 0 1
phys
0 270 108 -271 0 0 1 19 0 1 0 1
0 125 108 -262 0 0 1 19 0 1 0 1
0 270 108 -262 0 0 1 19 0 1 0 1
phys
0 125 93 -262 0 0 1 19 0 1 0 1
0 125 108 -262 0 0 1 19 0 1 0 1
0 125 108 -271 0 0 1 19 0 1 0 1
phys
0 270 108 -262 0 0 1 19 0 1 0 1
0 270 93 -262 0 0 1 19 0 1 0 1
0 270 108 -271 0 0 1 19 0 1 0 1
phys
0 270 138 -280 0 0 1 20 0 1 0 1
0 270 138 -289 0 0 1 20 0 1 0 1
0 125 138 -289 0 0 1 20 0 1 0 1
phys
0 270 138 -280 0 0 1 20 0 1 0 1
0 125 138 -289 0 0 1 20 0 1 0 1
0 125 138 -280 0 0 1 20 0 1 0 1
phys
0 125 123 -280 0 0 1 20 0 1 0 1
0 125 138 -280 0 0 1 20 0 1 0 1
0 125 138 -289 0 0 1 20 0 1 0 1
phys
0 270 138 -289 0 0 1 20 0 1 0 1
0 270 138 -280 0 0 1 20 0 1 0 1
0 270 123 -280 0 0 1 20 0 1 0 1
phys
0 270 123 -280 0 0 1 20 0 1 0 1
0 270 138 -280 0 0 1 20 0 1 0 1
0 125 138 -280 0 0 1 20 0 1 0 1
phys
0 270 123 -280 0 0 1 20 0 1 0 1
0 125 138 -280 0 0 1 20 0 1 0 1
0 125 123 -280 0 0 1 20 0 1 0 1
phys
0 125 123 -280 0 0 1 20 0 1 0 1
0 125 138 -289 0 0 1 20 0 1 0 1
0 270 138 -289 0 0 1 20 0 1 0 1
phys
0 125 123 -280 0 0 1 20 0 1 0 1
0 270 138 -289 0 0 1 20 0 1 0 1
0 270 123 -280 0 0 1 20 0 1 0 1
phys
0 270 168 -298 0 0 1 21 0 1 0 1
0 270 168 -307 0 0 1 21 0 1 0 1
0 125 168 -307 0 0 1 21 0 1 0 1
phys
0 270 168 -298 0 0 1 21 0 1 0 1
0 125 168 -307 0 0 1 21 0 1 0 1
0 125 168 -298 0 0 1 21 0 1 0 1
phys
0 125 153 -298 0 0 1 21 0 1 0 1
0 125 168 -298 0 0 1 21 0 1 0 1
0 125 168 -307 0 0 1 21 0 1 0 1
phys
0 270 168 -307 0 0 1 21 0 1 0 1
0 270 168 -298 0 0 1 21 0 1 0 1
0 270 153 -298 0 0 1 21 0 1 0 1
phys
0 270 153 -298 0 0 1 21 0 1 0 1
0 270 168 -298 0 0 1 21 0 1 0 1
0 125 168 -298 0 0 1 21 0 1 0 1
phys
0 270 153 -298 0 0 1 21 0 1 0 1
0 125 168 -298 0 0 1 21 0 1 0 1
0 125 153 -298 0 0 1 21 0 1 0 1
phys
0 125 153 -298 0 0 1 21 0 1 0 1
0 125 168 -307 0 0 1 21 0 1 0 1
0 270 168 -307 0 0 1 21 0 1 0 1
phys
0 125 153 -298 0 0 1 21 0 1 0 1
0 270 168 -307 0 0 1 21 0 1 0 1
0 270 153 -298 0 0 1 21 0 1 0 1
phys
0 270 198 -316 0 0 1 22 0 1 0 1
0 270 198 -325 0 0 1 22 0 1 0 1
0 125 198 -325 0 0 1 22 0 1 0 1
phys
0 270 198 -316 0 0 1 22 0 1 0 1
0 125 198 -325 0 0 1 22 0 1 0 1
0 125 198 -316 0 0 1 22 0 1 0 1
phys
0 125 183 -316 0 0 1 22 0 1 0 1
0 125 198 -316 0 0 1 22 0 1 0 1
0 125 198 -325 0 0 1 22 0 1 0 1
phys
0 270 198 -325 0 0 1 22 0 1 0 1
0 270 198 -316 0 0 1 22 0 1 0 1
0 270 183 -316 0 0 1 22 0 1 0 1
phys
0 270 183 -316 0 0 1 22 0 1 0 1
0 270 198 -316 0 0 1 22 0 1 0 1
0 125 198 -316 0 0 1 22 0 1 0 1
phys
0 270 183 -316 0 0 1 22 0 1 0 1
0 125 198 -316 0 0 1 22 0 1 0 1
0 125 183 -316 0 0 1 22 0 1 0 1
phys
0 125 183 -316 0 0 1 22 0 1 0 1
0 125 198 -325 0 0 1 22 0 1 0 1
0 270 198 -325 0 0 1 22 0 1 0 1
phys
0 125 183 -316 0 0 1 22 0 1 0 1
0 270 198 -325 0 0 1 22 0 1 0 1
0 270 183 -316 0 0 1 22 0 1 0 1
phys
0 125 168 -307 0 0 1 23 0 1 0 1
0 270 168 -307 0 0 1 23 0 1 0 1
0 270 183 -307 0 0 1 23 0 1 0 1
phys
0 125 168 -307 0 0 1 23 0 1 0 1
0 270 183 -307 0 0 1 23 0 1 0 1
0 125 183 -307 0 0 1 23 0 1 0 1
phys
0 270 168 -307 0 0 1 23 0 1 0 1
0 125 168 -307 0 0 1 23 0 1 0 1
0 125 183 -316 0 0 1 23 0 1 0 1
phys
0 270 168 -307 0 0 1 23 0 1 0 1
0 125 183 -316 0 0 1 23 0 1 0 1
0 270 183 -316 0 0 1 23 0 1 0 1
phys
0 270 183 -316 0 0 1 23 0 1 0 1
0 125 183 -316 0 0 1 23 0 1 0 1
0 125 183 -307 0 0 1 23 0 1 0 1
phys
0 270 183 -316 0 0 1 23 0 1 0 1
0 125 183 -307 0 0 1 23 0 1 0 1
0 270 183 -307 0 0 1 23 0 1 0 1
phys
0 125 168 -307 0 0 1 23 0 1 0 1
0 125 183 -307 0 0 1 23 0 1 0 1
0 125 183 -316 0 0 1 23 0 1 0 1
phys
0 270 183 -307 0 0 1 23 0 1 0 1
0 270 168 -307 0 0 1 23 0 1 0 1
0 270 183 -316 0 0 1 23 0 1 0 1
phys
0 125 138 -289 0 0 1 24 0 1 0 1
0 270 138 -289 0 0 1 24 0 1 0 1
0 270 153 -289 0 0 1 24 0 1 0 1
phys
0 125 138 -289 0 0 1 24 0 1 0 1
0 270 153 -289 0 0 1 24 0 1 0 1
0 125 153 -289 0 0 1 24 0 1 0 1
phys
0 270 138 -289 0 0 1 24 0 1 0 1
0 125 138 -289 0 0 1 24 0 1 0 1
0 125 153 -298 0 0 1 24 0 1 0 1
phys
0 270 138 -289 0 0 1 24 0 1 0 1
0 125 153 -298 0 0 1 24 0 1 0 1
0 270 153 -298 0 0 1 24 0 1 0 1
phys
0 270 153 -298 0 0 1 24 0 1 0 1
0 125 153 -298 0 0 1 24 0 1 0 1
0 125 153 -289 0 0 1 24 0 1 0 1
phys
0 270 153 -298 0 0 1 24 0 1 0 1
0 125 153 -289 0 0 1 24 0 1 0 1
0 270 153 -289 0 0 1 24 0 1 0 1
phys
0 125 138 -289 0 0 1 24 0 1 0 1
0 125 153 -289 0 0 1 24 0 1 0 1
0 125 153 -298 0 0 1 24 0 1 0 1
phys
0 270 153 -289 0 0 1 24 0 1 0 1
0 270 138 -289 0 0 1 24 0 1 0 1
0 270 153 -298 0 0 1 24 0 1 0 1
phys
0 270 123 -271 0 0 1 25 0 1 0 1
0 270 123 -280 0 0 1 25 0 1 0 1
0 125 123 -280 0 0 1 25 0 1 0 1
phys
0 270 123 -271 0 0 1 25 0 1 0 1
0 125 123 -280 0 0 1 25 0 1 0 1
0 125 123 -271 0 0 1 25 0 1 0 1
phys
0 125 108 -271 0 0 1 25 0 1 0 1
0 125 123 -271 0 0 1 25 0 1 0 1
0 125 123 -280 0 0 1 25 0 1 0 1
phys
0 270 123 -280 0 0 1 25 0 1 0 1
0 270 123 -271 0 0 1 25 0 1 0 1
0 270 108 -271 0 0 1 25 0 1 0 1
phys
0 270 108 -271 0 0 1 25 0 1 0 1
0 270 123 -271 0 0 1 25 0 1 0 1
0 125 123 -271 0 0 1 25 0 1 0 1
phys
0 270 108 -271 0 0 1 25 0 1 0 1
0 125 123 -271 0 0 1 25 0 1 0 1
0 125 108 -271 0 0 1 25 0 1 0 1
phys
0 125 108 -271 0 0 1 25 0 1 0 1
0 125 123 -280 0 0 1 25 0 1 0 1
0 270 123 -280 0 0 1 25 0 1 0 1
phys
0 125 108 -271 0 0 1 25 0 1 0 1
0 270 123 -280 0 0 1 25 0 1 0 1
0 270 108 -271 0 0 1 25 0 1 0 1
phys
0 125 78 -253 0 0 1 26 0 1 0 1
0 270 78 -253 0 0 1 26 0 1 0 1
0 270 93 -253 0 0 1 26 0 1 0 1
phys
0 125 78 -253 0 0 1 26 0 1 0 1
0 270 93 -253 0 0 1 26 0 1 0 1
0 125 93 -253 0 0 1 26 0 1 0 1
phys
0 270 78 -253 0 0 1 26 0 1 0 1
0 125 78 -253 0 0 1 26 0 1 0 1
0 125 93 -262 0 0 1 26 0 1 0 1
phys
0 270 78 -253 0 0 1 26 0 1 0 1
0 125 93 -262 0 0 1 26 0 1 0 1
0 270 93 -262 0 0 1 26 0 1 0 1
phys
0 270 93 -262 0 0 1 26 0 1 0 1
0 125 93 -262 0 0 1 26 0 1 0 1
0 125 93 -253 0 0 1 26 0 1 0 1
phys
0 270 93 -262 0 0 1 26 0 1 0 1
0 125 93 -253 0 0 1 26 0 1 0 1
0 270 93 -253 0 0 1 26 0 1 0 1
phys
0 125 78 -253 0 0 1 26 0 1 0 1
0 125 93 -253 0 0 1 26 0 1 0 1
0 125 93 -262 0 0 1 26 0 1 0 1
phys
0 270 93 -253 0 0 1 26 0 1 0 1
0 270 78 -253 0 0 1 26 0 1 0 1
0 270 93 -262 0 0 1 26 0 1 0 1
phys
0 125 48 -235 0 0 1 27 0 1 0 1
0 270 48 -235 0 0 1 27 0 1 0 1
0 270 63 -235 0 0 1 27 0 1 0 1
phys
0 125 48 -235 0 0 1 27 0 1 0 1
0 270 63 -235 0 0 1 27 0 1 0 1
0 125 63 -235 0 0 1 27 0 1 0 1
phys
0 270 48 -235 0 0 1 27 0 1 0 1
0 125 48 -235 0 0 1 27 0 1 0 1
0 125 63 -244 0 0 1 27 0 1 0 1
phys
0 270 48 -235 0 0 1 27 0 1 0 1
0 125 63 -244 0 0 1 27 0 1 0 1
0 270 63 -244 0 0 1 27 0 1 0 1
phys
0 270 63 -244 0 0 1 27 0 1 0 1
0 125 63 -244 0 0 1 27 0 1 0 1
0 125 63 -235 0 0 1 27 0 1 0 1
phys
0 270 63 -244 0 0 1 27 0 1 0 1
0 125 63 -235 0 0 1 27 0 1 0 1
0 270 63 -235 0 0 1 27 0 1 0 1
phys
0 125 48 -235 0 0 1 27 0 1 0 1
0 125 63 -235 0 0 1 27 0 1 0 1
0 125 63 -244 0 0 1 27 0 1 0 1
phys
0 270 63 -235 0 0 1 27 0 1 0 1
0 270 48 -235 0 0 1 27 0 1 0 1
0 270 63 -244 0 0 1 27 0 1 0 1
phys
0 280 8 -36 0 0 1 28 0 1 0 1
0 280 8 -46 0 0 1 28 0 1 0 1
0 88 8 -46 0 0 1 28 0 1 0 1
phys
0 280 8 -36 0 0 1 28 0 1 0 1
0 88 8 -46 0 0 1 28 0 1 0 1
0 88 8 -36 0 0 1 28 0 1 0 1
phys
0 280 0 -38.001 0 0 1 28 0 1 0 1
0 280 0 -36 0 0 1 28 0 1 0 1
0 88 0 -36 0 0 1 28 0 1 0 1
phys
0 280 0 -38.001 0 0 1 28 0 1 0 1
0 88 0 -36 0 0 1 28 0 1 0 1
0 88 0 -38.001 0 0 1 28 0 1 0 1
phys
0 88 0 -38.001 0 0 1 28 0 1 0 1
0 88 0 -36 0 0 1 28 0 1 0 1
0 88 8 -36 0 0 1 28 0 1 0 1
phys
0 88 0 -38.001 0 0 1 28 0 1 0 1
0 88 8 -36 0 0 1 28 0 1 0 1
0 88 8 -46 0 0 1 28 0 1 0 1
phys
0 88 0 -38.001 0 0 1 28 0 1 0 1
0 88 8 -46 0 0 1 28 0 1 0 1
0 88 6 -46 0 0 1 28 0 1 0 1
phys
0 280 0 -36 0 0 1 28 0 1 0 1
0 280 0 -38.001 0 0 1 28 0 1 0 1
0 280 6 -46 0 0 1 28 0 1 0 1
phys
0 280 0 -36 0 0 1 28 0 1 0 1
0 280 6 -46 0 0 1 28 0 1 0 1
0 280 8 -46 0 0 1 28 0 1 0 1
phys
0 280 0 -36 0 0 1 28 0 1 0 1
0 280 8 -46 0 0 1 28 0 1 0 1
0 280 8 -36 0 0 1 28 0 1 0 1
phys
0 88 6 -46 0 0 1 28 0 1 0 1
0 88 8 -46 0 0 1 28 0 1 0 1
0 280 8 -46 0 0 1 28 0 1 0 1
phys
0 88 6 -46 0 0 1 28 0 1 0 1
0 280 8 -46 0 0 1 28 0 1 0 1
0 280 6 -46 0 0 1 28 0 1 0 1
phys
0 88 0 -36 0 0 1 28 0 1 0 1
0 280 0 -36 0 0 1 28 0 1 0 1
0 280 8 -36 0 0 1 28 0 1 0 1
phys
0 88 0 -36 0 0 1 28 0 1 0 1
0 280 8 -36 0 0 1 28 0 1 0 1
0 88 8 -36 0 0 1 28 0 1 0 1
phys
0 280 0 -38.001 0 0 1 28 0 1 0 1
0 88 0 -38.001 0 0 1 28 0 1 0 1
0 88 6 -46 0 0 1 28 0 1 0 1
phys
0 280 0 -38.001 0 0 1 28 0 1 0 1
0 88 6 -46 0 0 1 28 0 1 0 1
0 280 6 -46 0 0 1 28 0 1 0 1
phys
0 125 177 -70 0 0 1 29 0 1 0 1
0 125 177 -190 0 0 1 29 0 1 0 1
0 117.1 177 -190 0 0 1 29 0 1 0 1
phys
0 125 177 -70 0 0 1 29 0 1 0 1
0 117.1 177 -190 0 0 1 29 0 1 0 1
0 117.1 177 -70 0 0 1 29 0 1 0 1
phys
0 125 16 -190 0 0 1 29 0 1 0 1
0 125 16 -70 0 0 1 29 0 1 0 1
0 117.1 16 -70 0 0 1 29 0 1 0 1
phys
0 125 16 -190 0 0 1 29 0 1 0 1
0 117.1 16 -70 0 0 1 29 0 1 0 1
0 117.1 16 -190 0 0 1 29 0 1 0 1
phys
0 117.1 16 -190 0 0 1 29 0 1 0 1
0 117.1 16 -70 0 0 1 29 0 1 0 1
0 117.1 177 -70 0 0 1 29 0 1 0 1
phys
0 117.1 16 -190 0 0 1 29 0 1 0 1
0 117.1 177 -70 0 0 1 29 0 1 0 1
0 117.1 177 -190 0 0 1 29 0 1 0 1
phys
0 125 16 -70 0 0 1 29 0 1 0 1
0 125 16 -190 0 0 1 29 0 1 0 1
0 125 177 -190 0 0 1 29 0 1 0 1
phys
0 125 16 -70 0 0 1 29 0 1 0 1
0 125 177 -190 0 0 1 29 0 1 0 1
0 125 177 -70 0 0 1 29 0 1 0 1
phys
0 125 16 -190 0 0 1 29 0 1 0 1
0 117.1 16 -190 0 0 1 29 0 1 0 1
0 117.1 177 -190 0 0 1 29 0 1 0 1
phys
0 125 16 -190 0 0 1 29 0 1 0 1
0 117.1 177 -190 0 0 1 29 0 1 0 1
0 125 177 -190 0 0 1 29 0 1 0 1
phys
0 117.1 16 -70 0 0 1 29 0 1 0 1
0 125 16 -70 0 0 1 29 0 1 0 1
0 125 177 -70 0 0 1 29 0 1 0 1
phys
0 117.1 16 -70 0 0 1 29 0 1 0 1
0 125 177 -70 0 0 1 29 0 1 0 1
0 117.1 177 -70 0 0 1 29 0 1 0 1
phys
0 -218 -180 60 0 0 1 30 0 1 0 1
0 -39 -180 60 0 0 1 30 0 1 0 1
0 -39 -172 60 0 0 1 30 0 1 0 1
phys
0 -218 -180 60 0 0 1 30 0 1 0 1
0 -39 -172 60 0 0 1 30 0 1 0 1
0 -218 -172 60 0 0 1 30 0 1 0 1
phys
0 -218 -172 58 0 0 1 30 0 1 0 1
0 -218 -172 60 0 0 1 30 0 1 0 1
0 -39 -172 60 0 0 1 30 0 1 0 1
phys
0 -218 -172 58 0 0 1 30 0 1 0 1
0 -39 -172 60 0 0 1 30 0 1 0 1
0 -39 -172 58 0 0 1 30 0 1 0 1
phys
0 -39 -180 58 0 0 1 30 0 1 0 1
0 -39 -180 60 0 0 1 30 0 1 0 1
0 -218 -180 60 0 0 1 30 0 1 0 1
phys
0 -39 -180 58 0 0 1 30 0 1 0 1
0 -218 -180 60 0 0 1 30 0 1 0 1
0 -218 -180 58 0 0 1 30 0 1 0 1
phys
0 -218 -180 58 0 0 1 30 0 1 0 1
0 -218 -180 60 0 0 1 30 0 1 0 1
0 -218 -172 60 0 0 1 30 0 1 0 1
phys
0 -218 -180 58 0 0 1 30 0 1 0 1
0 -218 -172 60 0 0 1 30 0 1 0 1
0 -218 -172 58 0 0 1 30 0 1 0 1
phys
0 -39 -172 58 0 0 1 30 0 1 0 1
0 -39 -172 60 0 0 1 30 0 1 0 1
0 -39 -180 60 0 0 1 30 0 1 0 1
phys
0 -39 -172 58 0 0 1 30 0 1 0 1
0 -39 -180 60 0 0 1 30 0 1 0 1
0 -39 -180 58 0 0 1 30 0 1 0 1
phys
0 -39 -180 58 0 0 1 30 0 1 0 1
0 -218 -180 58 0 0 1 30 0 1 0 1
0 -218 -172 58 0 0 1 30 0 1 0 1
phys
0 -39 -180 58 0 0 1 30 0 1 0 1
0 -218 -172 58 0 0 1 30 0 1 0 1
0 -39 -172 58 0 0 1 30 0 1 0 1
phys
0 -39 -172 175 0 0 1 31 0 1 0 1
0 -39 -172 60 0 0 1 31 0 1 0 1
0 -41 -172 60 0 0 1 31 0 1 0 1
phys
0 -39 -172 175 0 0 1 31 0 1 0 1
0 -41 -172 60 0 0 1 31 0 1 0 1
0 -41 -172 175 0 0 1 31 0 1 0 1
phys
0 -39 -180 60 0 0 1 31 0 1 0 1
0 -39 -180 175 0 0 1 31 0 1 0 1
0 -41 -180 175 0 0 1 31 0 1 0 1
phys
0 -39 -180 60 0 0 1 31 0 1 0 1
0 -41 -180 175 0 0 1 31 0 1 0 1
0 -41 -180 60 0 0 1 31 0 1 0 1
phys
0 -41 -180 60 0 0 1 31 0 1 0 1
0 -41 -180 175 0 0 1 31 0 1 0 1
0 -41 -172 175 0 0 1 31 0 1 0 1
phys
0 -41 -180 60 0 0 1 31 0 1 0 1
0 -41 -172 175 0 0 1 31 0 1 0 1
0 -41 -172 60 0 0 1 31 0 1 0 1
phys
0 -39 -180 175 0 0 1 31 0 1 0 1
0 -39 -180 60 0 0 1 31 0 1 0 1
0 -39 -172 60 0 0 1 31 0 1 0 1
phys
0 -39 -180 175 0 0 1 31 0 1 0 1
0 -39 -172 60 0 0 1 31 0 1 0 1
0 -39 -172 175 0 0 1 31 0 1 0 1
phys
0 -39 -180 60 0 0 1 31 0 1 0 1
0 -41 -180 60 0 0 1 31 0 1 0 1
0 -41 -172 60 0 0 1 31 0 1 0 1
phys
0 -39 -180 60 0 0 1 31 0 1 0 1
0 -41 -172 60 0 0 1 31 0 1 0 1
0 -39 -172 60 0 0 1 31 0 1 0 1
phys
0 -41 -180 175 0 0 1 31 0 1 0 1
0 -39 -180 175 0 0 1 31 0 1 0 1
0 -39 -172 175 0 0 1 31 0 1 0 1
phys
0 -41 -180 175 0 0 1 31 0 1 0 1
0 -39 -172 175 0 0 1 31 0 1 0 1
0 -41 -172 175 0 0 1 31 0 1 0 1
phys
0 5 -8 190 0 0 1 32 0 1 0 1
0 -7 -8 190 0 0 1 32 0 1 0 1
0 -7 -8 -190 0 0 1 32 0 1 0 1
phys
0 5 -8 190 0 0 1 32 0 1 0 1
0 -7 -8 -190 0 0 1 32 0 1 0 1
0 5 -8 -190 0 0 1 32 0 1 0 1
phys
0 -29 4 190 0 0 1 32 0 1 0 1
0 -29 8 190 0 0 1 32 0 1 0 1
0 -29 8 -190 0 0 1 32 0 1 0 1
phys
0 -29 4 190 0 0 1 32 0 1 0 1
0 -29 8 -190 0 0 1 32 0 1 0 1
0 -29 4 -190 0 0 1 32 0 1 0 1
phys
0 29 4 -190 0 0 1 32 0 1 0 1
0 29 8 -190 0 0 1 32 0 1 0 1
0 29 8 190 0 0 1 32 0 1 0 1
phys
0 29 4 -190 0 0 1 32 0 1 0 1
0 29 8 190 0 0 1 32 0 1 0 1
0 29 4 190 0 0 1 32 0 1 0 1
phys
0 5 -8 -190 0 0 1 32 0 1 0 1
0 -7 -8 -190 0 0 1 32 0 1 0 1
0 -29 4 -190 0 0 1 32 0 1 0 1
phys
0 5 -8 -190 0 0 1 32 0 1 0 1
0 -29 4 -190 0 0 1 32 0 1 0 1
0 -29 8 -190 0 0 1 32 0 1 0 1
phys
0 5 -8 -190 0 0 1 32 0 1 0 1
0 -29 8 -190 0 0 1 32 0 1 0 1
0 29 8 -190 0 0 1 32 0 1 0 1
phys
0 5 -8 -190 0 0 1 32 0 1 0 1
0 29 8 -190 0 0 1 32 0 1 0 1
0 29 4 -190 0 0 1 32 0 1 0 1
phys
0 -7 -8 190 0 0 1 32 0 1 0 1
0 5 -8 190 0 0 1 32 0 1 0 1
0 29 4 190 0 0 1 32 0 1 0 1
phys
0 -7 -8 190 0 0 1 32 0 1 0 1
0 29 4 190 0 0 1 32 0 1 0 1
0 29 8 190 0 0 1 32 0 1 0 1
phys
0 -7 -8 190 0 0 1 32 0 1 0 1
0 29 8 190 0 0 1 32 0 1 0 1
0 -29 8 190 0 0 1 32 0 1 0 1
phys
0 -7 -8 190 0 0 1 32 0 1 0 1
0 -29 8 190 0 0 1 32 0 1 0 1
0 -29 4 190 0 0 1 32 0 1 0 1
phys
0 5 -8 190 0 0 1 32 0 1 0 1
0 5 -8 -190 0 0 1 32 0 1 0 1
0 29 4 -190 0 0 1 32 0 1 0 1
phys
0 5 -8 190 0 0 1 32 0 1 0 1
0 29 4 -190 0 0 1 32 0 1 0 1
0 29 4 190 0 0 1 32 0 1 0 1
phys
0 -7 -8 -190 0 0 1 32 0 1 0 1
0 -7 -8 190 0 0 1 32 0 1 0 1
0 -29 4 190 0 0 1 32 0 1 0 1
phys
0 -7 -8 -190 0 0 1 32 0 1 0 1
0 -29 4 190 0 0 1 32 0 1 0 1
0 -29 4 -190 0 0 1 32 0 1 0 1
phys
0 29 8 190 0 0 1 32 0 1 0 1
0 29 8 -190 0 0 1 32 0 1 0 1
0 -29 8 -190 0 0 1 32 0 1 0 1
phys
0 29 8 190 0 0 1 32 0 1 0 1
0 -29 8 -190 0 0 1 32 0 1 0 1
0 -29 8 190 0 0 1 32 0 1 0 1
end
