version 1
nodes
0 "root" -1
end
skeleton
time 0
0 0 0 0 0 0 0
end
triangles
phys
0 292 94 424 0 0 1 1 0 1 0 1
0 292 94 364 0 0 1 1 0 1 0 1
0 -187 94 364 0 0 1 1 0 1 0 1
phys
0 292 94 424 0 0 1 1 0 1 0 1
0 -187 94 364 0 0 1 1 0 1 0 1
0 -187 94 424 0 0 1 1 0 1 0 1
phys
0 -187 -11.8 388.00002 0 0 1 1 0 1 0 1
0 -187 94 424 0 0 1 1 0 1 0 1
0 -187 94 364 0 0 1 1 0 1 0 1
phys
0 -187 -11.8 388.00002 0 0 1 1 0 1 0 1
0 -187 94 364 0 0 1 1 0 1 0 1
0 -187 52.17 359.4987 0 0 1 1 0 1 0 1
phys
0 292 94 364 0 0 1 1 0 1 0 1
0 292 94 424 0 0 1 1 0 1 0 1
0 292 -11.8 388.00002 0 0 1 1 0 1 0 1
phys
0 292 94 364 0 0 1 1 0 1 0 1
0 292 -11.8 388.00002 0 0 1 1 0 1 0 1
0 292 52.17 359.4987 0 0 1 1 0 1 0 1
phys
0 292 -11.8 388.00002 0 0 1 1 0 1 0 1
0 292 94 424 0 0 1 1 0 1 0 1
0 -187 94 424 0 0 1 1 0 1 0 1
phys
0 292 -11.8 388.00002 0 0 1 1 0 1 0 1
0 -187 94 424 0 0 1 1 0 1 0 1
0 -187 -11.8 388.00002 0 0 1 1 0 1 0 1
phys
0 -187 52.17 359.4987 0 0 1 1 0 1 0 1
0 -187 94 364 0 0 1 1 0 1 0 1
0 292 94 364 0 0 1 1 0 1 0 1
phys
0 -187 52.17 359.4987 0 0 1 1 0 1 0 1
0 292 94 364 0 0 1 1 0 1 0 1
0 292 52.17 359.4987 0 0 1 1 0 1 0 1
phys
0 -187 -11.8 388.00002 0 0 1 1 0 1 0 1
0 -187 52.17 359.4987 0 0 1 1 0 1 0 1
0 292 52.17 359.4987 0 0 1 1 0 1 0 1
phys
0 -187 -11.8 388.00002 0 0 1 1 0 1 0 1
0 292 52.17 359.4987 0 0 1 1 0 1 0 1
0 292 -11.8 388.00002 0 0 1 1 0 1 0 1
phys
0 -240 42 179.999 0 0 1 2 0 1 0 1
0 -236 42 183.999 0 0 1 2 0 1 0 1
0 -236 58 183.999 0 0 1 2 0 1 0 1
phys
0 -240 42 179.999 0 0 1 2 0 1 0 1
0 -236 58 183.999 0 0 1 2 0 1 0 1
0 -240 58 179.999 0 0 1 2 0 1 0 1
phys
0 -240 58 72 0 0 1 2 0 1 0 1
0 -240 58 179.999 0 0 1 2 0 1 0 1
0 -236 58 183.999 0 0 1 2 0 1 0 1
phys
0 -240 58 72 0 0 1 2 0 1 0 1
0 -236 58 183.999 0 0 1 2 0 1 0 1
0 -236 58 72 0 0 1 2 0 1 0 1
phys
0 -236 42 72 0 0 1 2 0 1 0 1
0 -236 42 183.999 0 0 1 2 0 1 0 1
0 -240 42 179.999 0 0 1 2 0 1 0 1
phys
0 -236 42 72 0 0 1 2 0 1 0 1
0 -240 42 179.999 0 0 1 2 0 1 0 1
0 -240 42 72 0 0 1 2 0 1 0 1
phys
0 -240 42 72 0 0 1 2 0 1 0 1
0 -240 42 179.999 0 0 1 2 0 1 0 1
0 -240 58 179.999 0 0 1 2 0 1 0 1
phys
0 -240 42 72 0 0 1 2 0 1 0 1
0 -240 58 179.999 0 0 1 2 0 1 0 1
0 -240 58 72 0 0 1 2 0 1 0 1
phys
0 -236 58 72 0 0 1 2 0 1 0 1
0 -236 58 183.999 0 0 1 2 0 1 0 1
0 -236 42 183.999 0 0 1 2 0 1 0 1
phys
0 -236 58 72 0 0 1 2 0 1 0 1
0 -236 42 183.999 0 0 1 2 0 1 0 1
0 -236 42 72 0 0 1 2 0 1 0 1
phys
0 -236 42 72 0 0 1 2 0 1 0 1
0 -240 42 72 0 0 1 2 0 1 0 1
0 -240 58 72 0 0 1 2 0 1 0 1
phys
0 -236 42 72 0 0 1 2 0 1 0 1
0 -240 58 72 0 0 1 2 0 1 0 1
0 -236 58 72 0 0 1 2 0 1 0 1
phys
0 -187 -94 16 0 0 1 3 0 1 0 1
0 -187 -80 16 0 0 1 3 0 1 0 1
0 -187 -80 0 0 0 1 3 0 1 0 1
phys
0 -187 -94 16 0 0 1 3 0 1 0 1
0 -187 -80 0 0 0 1 3 0 1 0 1
0 -187 -94 0 0 0 1 3 0 1 0 1
phys
0 -108 -42 0 0 0 1 3 0 1 0 1
0 -108 -28 0 0 0 1 3 0 1 0 1
0 -108 -28 16 0 0 1 3 0 1 0 1
phys
0 -108 -42 0 0 0 1 3 0 1 0 1
0 -108 -28 16 0 0 1 3 0 1 0 1
0 -108 -42 16 0 0 1 3 0 1 0 1
phys
0 -187 -94 0 0 0 1 3 0 1 0 1
0 -187 -80 0 0 0 1 3 0 1 0 1
0 -108 -28 0 0 0 1 3 0 1 0 1
phys
0 -187 -94 0 0 0 1 3 0 1 0 1
0 -108 -28 0 0 0 1 3 0 1 0 1
0 -108 -42 0 0 0 1 3 0 1 0 1
phys
0 -108 -42 16 0 0 1 3 0 1 0 1
0 -108 -28 16 0 0 1 3 0 1 0 1
0 -187 -80 16 0 0 1 3 0 1 0 1
phys
0 -108 -42 16 0 0 1 3 0 1 0 1
0 -187 -80 16 0 0 1 3 0 1 0 1
0 -187 -94 16 0 0 1 3 0 1 0 1
phys
0 -187 -80 0 0 0 1 3 0 1 0 1
0 -187 -80 16 0 0 1 3 0 1 0 1
0 -108 -28 16 0 0 1 3 0 1 0 1
phys
0 -187 -80 0 0 0 1 3 0 1 0 1
0 -108 -28 16 0 0 1 3 0 1 0 1
0 -108 -28 0 0 0 1 3 0 1 0 1
phys
0 -187 -94 16 0 0 1 3 0 1 0 1
0 -187 -94 0 0 0 1 3 0 1 0 1
0 -108 -42 0 0 0 1 3 0 1 0 1
phys
0 -187 -94 16 0 0 1 3 0 1 0 1
0 -108 -42 0 0 0 1 3 0 1 0 1
0 -108 -42 16 0 0 1 3 0 1 0 1
phys
0 -76 94 48 0 0 1 4 0 1 0 1
0 -76 94 16 0 0 1 4 0 1 0 1
0 -92 94 16 0 0 1 4 0 1 0 1
phys
0 -76 94 48 0 0 1 4 0 1 0 1
0 -92 94 16 0 0 1 4 0 1 0 1
0 -92 94 48 0 0 1 4 0 1 0 1
phys
0 -76 -28 16 0 0 1 4 0 1 0 1
0 -76 -28 48 0 0 1 4 0 1 0 1
0 -92 -28 48 0 0 1 4 0 1 0 1
phys
0 -76 -28 16 0 0 1 4 0 1 0 1
0 -92 -28 48 0 0 1 4 0 1 0 1
0 -92 -28 16 0 0 1 4 0 1 0 1
phys
0 -92 -28 16 0 0 1 4 0 1 0 1
0 -92 -28 48 0 0 1 4 0 1 0 1
0 -92 94 48 0 0 1 4 0 1 0 1
phys
0 -92 -28 16 0 0 1 4 0 1 0 1
0 -92 94 48 0 0 1 4 0 1 0 1
0 -92 94 16 0 0 1 4 0 1 0 1
phys
0 -76 -28 48 0 0 1 4 0 1 0 1
0 -76 -28 16 0 0 1 4 0 1 0 1
0 -76 94 16 0 0 1 4 0 1 0 1
phys
0 -76 -28 48 0 0 1 4 0 1 0 1
0 -76 94 16 0 0 1 4 0 1 0 1
0 -76 94 48 0 0 1 4 0 1 0 1
phys
0 -76 -28 16 0 0 1 4 0 1 0 1
0 -92 -28 16 0 0 1 4 0 1 0 1
0 -92 94 16 0 0 1 4 0 1 0 1
phys
0 -76 -28 16 0 0 1 4 0 1 0 1
0 -92 94 16 0 0 1 4 0 1 0 1
0 -76 94 16 0 0 1 4 0 1 0 1
phys
0 -92 -28 48 0 0 1 4 0 1 0 1
0 -76 -28 48 0 0 1 4 0 1 0 1
0 -76 94 48 0 0 1 4 0 1 0 1
phys
0 -92 -28 48 0 0 1 4 0 1 0 1
0 -76 94 48 0 0 1 4 0 1 0 1
0 -92 94 48 0 0 1 4 0 1 0 1
phys
0 -108 -42 80 0 0 1 5 0 1 0 1
0 -108 -28 80 0 0 1 5 0 1 0 1
0 -108 -28 16 0 0 1 5 0 1 0 1
phys
0 -108 -42 80 0 0 1 5 0 1 0 1
0 -108 -28 16 0 0 1 5 0 1 0 1
0 -108 -42 16 0 0 1 5 0 1 0 1
phys
0 -44 -42 16 0 0 1 5 0 1 0 1
0 -44 -28 16 0 0 1 5 0 1 0 1
0 -44 -28 80 0 0 1 5 0 1 0 1
phys
0 -44 -42 16 0 0 1 5 0 1 0 1
0 -44 -28 80 0 0 1 5 0 1 0 1
0 -44 -42 80 0 0 1 5 0 1 0 1
phys
0 -108 -42 16 0 0 1 5 0 1 0 1
0 -108 -28 16 0 0 1 5 0 1 0 1
0 -44 -28 16 0 0 1 5 0 1 0 1
phys
0 -108 -42 16 0 0 1 5 0 1 0 1
0 -44 -28 16 0 0 1 5 0 1 0 1
0 -44 -42 16 0 0 1 5 0 1 0 1
phys
0 -44 -42 80 0 0 1 5 0 1 0 1
0 -44 -28 80 0 0 1 5 0 1 0 1
0 -108 -28 80 0 0 1 5 0 1 0 1
phys
0 -44 -42 80 0 0 1 5 0 1 0 1
0 -108 -28 80 0 0 1 5 0 1 0 1
0 -108 -42 80 0 0 1 5 0 1 0 1
phys
0 -44 -28 80 0 0 1 5 0 1 0 1
0 -44 -28 16 0 0 1 5 0 1 0 1
0 -108 -28 16 0 0 1 5 0 1 0 1
phys
0 -44 -28 80 0 0 1 5 0 1 0 1
0 -108 -28 16 0 0 1 5 0 1 0 1
0 -108 -28 80 0 0 1 5 0 1 0 1
phys
0 -44 -42 16 0 0 1 5 0 1 0 1
0 -44 -42 80 0 0 1 5 0 1 0 1
0 -108 -42 80 0 0 1 5 0 1 0 1
phys
0 -44 -42 16 0 0 1 5 0 1 0 1
0 -108 -42 80 0 0 1 5 0 1 0 1
0 -108 -42 16 0 0 1 5 0 1 0 1
phys
0 292 94 363.9999 0 0 1 6 0 1 0 1
0 292 94 312.0039 0 0 1 6 0 1 0 1
0 -187 94 312.0039 0 0 1 6 0 1 0 1
phys
0 292 94 363.9999 0 0 1 6 0 1 0 1
0 -187 94 312.0039 0 0 1 6 0 1 0 1
0 -187 94 363.9999 0 0 1 6 0 1 0 1
phys
0 -187 52.170241 359.499326 0 0 1 6 0 1 0 1
0 -187 94 363.9999 0 0 1 6 0 1 0 1
0 -187 94 312.0039 0 0 1 6 0 1 0 1
phys
0 292 94 312.0039 0 0 1 6 0 1 0 1
0 292 94 363.9999 0 0 1 6 0 1 0 1
0 292 52.170241 359.499326 0 0 1 6 0 1 0 1
phys
0 292 52.170241 359.499326 0 0 1 6 0 1 0 1
0 292 94 363.9999 0 0 1 6 0 1 0 1
0 -187 94 363.9999 0 0 1 6 0 1 0 1
phys
0 292 52.170241 359.499326 0 0 1 6 0 1 0 1
0 -187 94 363.9999 0 0 1 6 0 1 0 1
0 -187 52.170241 359.499326 0 0 1 6 0 1 0 1
phys
0 -187 52.170241 359.499326 0 0 1 6 0 1 0 1
0 -187 94 312.0039 0 0 1 6 0 1 0 1
0 292 94 312.0039 0 0 1 6 0 1 0 1
phys
0 -187 52.170241 359.499326 0 0 1 6 0 1 0 1
0 292 94 312.0039 0 0 1 6 0 1 0 1
0 292 52.170241 359.499326 0 0 1 6 0 1 0 1
phys
0 -44 94 80 0 0 1 7 0 1 0 1
0 -44 94 16 0 0 1 7 0 1 0 1
0 -60 94 16 0 0 1 7 0 1 0 1
phys
0 -44 94 80 0 0 1 7 0 1 0 1
0 -60 94 16 0 0 1 7 0 1 0 1
0 -60 94 80 0 0 1 7 0 1 0 1
phys
0 -44 -28 16 0 0 1 7 0 1 0 1
0 -44 -28 80 0 0 1 7 0 1 0 1
0 -60 -28 80 0 0 1 7 0 1 0 1
phys
0 -44 -28 16 0 0 1 7 0 1 0 1
0 -60 -28 80 0 0 1 7 0 1 0 1
0 -60 -28 16 0 0 1 7 0 1 0 1
phys
0 -60 -28 16 0 0 1 7 0 1 0 1
0 -60 -28 80 0 0 1 7 0 1 0 1
0 -60 94 80 0 0 1 7 0 1 0 1
phys
0 -60 -28 16 0 0 1 7 0 1 0 1
0 -60 94 80 0 0 1 7 0 1 0 1
0 -60 94 16 0 0 1 7 0 1 0 1
phys
0 -44 -28 80 0 0 1 7 0 1 0 1
0 -44 -28 16 0 0 1 7 0 1 0 1
0 -44 94 16 0 0 1 7 0 1 0 1
phys
0 -44 -28 80 0 0 1 7 0 1 0 1
0 -44 94 16 0 0 1 7 0 1 0 1
0 -44 94 80 0 0 1 7 0 1 0 1
phys
0 -44 -28 16 0 0 1 7 0 1 0 1
0 -60 -28 16 0 0 1 7 0 1 0 1
0 -60 94 16 0 0 1 7 0 1 0 1
phys
0 -44 -28 16 0 0 1 7 0 1 0 1
0 -60 94 16 0 0 1 7 0 1 0 1
0 -44 94 16 0 0 1 7 0 1 0 1
phys
0 -60 -28 80 0 0 1 7 0 1 0 1
0 -44 -28 80 0 0 1 7 0 1 0 1
0 -44 94 80 0 0 1 7 0 1 0 1
phys
0 -60 -28 80 0 0 1 7 0 1 0 1
0 -44 94 80 0 0 1 7 0 1 0 1
0 -60 94 80 0 0 1 7 0 1 0 1
phys
0 -92 94 32 0 0 1 8 0 1 0 1
0 -92 94 16 0 0 1 8 0 1 0 1
0 -108 94 16 0 0 1 8 0 1 0 1
phys
0 -92 94 32 0 0 1 8 0 1 0 1
0 -108 94 16 0 0 1 8 0 1 0 1
0 -108 94 32 0 0 1 8 0 1 0 1
phys
0 -92 -28 16 0 0 1 8 0 1 0 1
0 -92 -28 32 0 0 1 8 0 1 0 1
0 -108 -28 32 0 0 1 8 0 1 0 1
phys
0 -92 -28 16 0 0 1 8 0 1 0 1
0 -108 -28 32 0 0 1 8 0 1 0 1
0 -108 -28 16 0 0 1 8 0 1 0 1
phys
0 -108 -28 16 0 0 1 8 0 1 0 1
0 -108 -28 32 0 0 1 8 0 1 0 1
0 -108 94 32 0 0 1 8 0 1 0 1
phys
0 -108 -28 16 0 0 1 8 0 1 0 1
0 -108 94 32 0 0 1 8 0 1 0 1
0 -108 94 16 0 0 1 8 0 1 0 1
phys
0 -92 -28 32 0 0 1 8 0 1 0 1
0 -92 -28 16 0 0 1 8 0 1 0 1
0 -92 94 16 0 0 1 8 0 1 0 1
phys
0 -92 -28 32 0 0 1 8 0 1 0 1
0 -92 94 16 0 0 1 8 0 1 0 1
0 -92 94 32 0 0 1 8 0 1 0 1
phys
0 -92 -28 16 0 0 1 8 0 1 0 1
0 -108 -28 16 0 0 1 8 0 1 0 1
0 -108 94 16 0 0 1 8 0 1 0 1
phys
0 -92 -28 16 0 0 1 8 0 1 0 1
0 -108 94 16 0 0 1 8 0 1 0 1
0 -92 94 16 0 0 1 8 0 1 0 1
phys
0 -108 -28 32 0 0 1 8 0 1 0 1
0 -92 -28 32 0 0 1 8 0 1 0 1
0 -92 94 32 0 0 1 8 0 1 0 1
phys
0 -108 -28 32 0 0 1 8 0 1 0 1
0 -92 94 32 0 0 1 8 0 1 0 1
0 -108 94 32 0 0 1 8 0 1 0 1
phys
0 -288 42 180 0 0 1 9 0 1 0 1
0 -288 58 180 0 0 1 9 0 1 0 1
0 -240 58 180 0 0 1 9 0 1 0 1
phys
0 -288 42 180 0 0 1 9 0 1 0 1
0 -240 58 180 0 0 1 9 0 1 0 1
0 -240 42 180 0 0 1 9 0 1 0 1
phys
0 -236 42 184 0 0 1 9 0 1 0 1
0 -236 58 184 0 0 1 9 0 1 0 1
0 -292 58 184 0 0 1 9 0 1 0 1
phys
0 -236 42 184 0 0 1 9 0 1 0 1
0 -292 58 184 0 0 1 9 0 1 0 1
0 -292 42 184 0 0 1 9 0 1 0 1
phys
0 -292 42 184 0 0 1 9 0 1 0 1
0 -292 58 184 0 0 1 9 0 1 0 1
0 -288 58 180 0 0 1 9 0 1 0 1
phys
0 -292 42 184 0 0 1 9 0 1 0 1
0 -288 58 180 0 0 1 9 0 1 0 1
0 -288 42 180 0 0 1 9 0 1 0 1
phys
0 -240 42 180 0 0 1 9 0 1 0 1
0 -240 58 180 0 0 1 9 0 1 0 1
0 -236 58 184 0 0 1 9 0 1 0 1
phys
0 -240 42 180 0 0 1 9 0 1 0 1
0 -236 58 184 0 0 1 9 0 1 0 1
0 -236 42 184 0 0 1 9 0 1 0 1
phys
0 -240 58 180 0 0 1 9 0 1 0 1
0 -288 58 180 0 0 1 9 0 1 0 1
0 -292 58 184 0 0 1 9 0 1 0 1
phys
0 -240 58 180 0 0 1 9 0 1 0 1
0 -292 58 184 0 0 1 9 0 1 0 1
0 -236 58 184 0 0 1 9 0 1 0 1
phys
0 -236 42 184 0 0 1 9 0 1 0 1
0 -292 42 184 0 0 1 9 0 1 0 1
0 -288 42 180 0 0 1 9 0 1 0 1
phys
0 -236 42 184 0 0 1 9 0 1 0 1
0 -288 42 180 0 0 1 9 0 1 0 1
0 -240 42 180 0 0 1 9 0 1 0 1
phys
0 -44 -32 116.999 0 0 1 10 0 1 0 1
0 -44 -32 80 0 0 1 10 0 1 0 1
0 -107.99827 -32 80 0 0 1 10 0 1 0 1
phys
0 -44 -38 80 0 0 1 10 0 1 0 1
0 -44 -38 117.001 0 0 1 10 0 1 0 1
0 -108 -38 80.001 0 0 1 10 0 1 0 1
phys
0 -44 -38 80 0 0 1 10 0 1 0 1
0 -108 -38 80.001 0 0 1 10 0 1 0 1
0 -108 -38 80 0 0 1 10 0 1 0 1
phys
0 -108 -38 80 0 0 1 10 0 1 0 1
0 -108 -38 80.001 0 0 1 10 0 1 0 1
0 -108 -35.998999 82.001 0 0 1 10 0 1 0 1
phys
0 -108 -38 80 0 0 1 10 0 1 0 1
0 -108 -35.998999 82.001 0 0 1 10 0 1 0 1
0 -108 -34.001 82.001 0 0 1 10 0 1 0 1
phys
0 -108 -38 80 0 0 1 10 0 1 0 1
0 -108 -34.001 82.001 0 0 1 10 0 1 0 1
0 -108 -32.001 80 0 0 1 10 0 1 0 1
phys
0 -44 -38 117.001 0 0 1 10 0 1 0 1
0 -44 -38 80 0 0 1 10 0 1 0 1
0 -44 -32 80 0 0 1 10 0 1 0 1
phys
0 -44 -38 117.001 0 0 1 10 0 1 0 1
0 -44 -32 80 0 0 1 10 0 1 0 1
0 -44 -32 116.999 0 0 1 10 0 1 0 1
phys
0 -44 -38 117.001 0 0 1 10 0 1 0 1
0 -44 -32 116.999 0 0 1 10 0 1 0 1
0 -44 -34.001 119.001 0 0 1 10 0 1 0 1
phys
0 -44 -38 117.001 0 0 1 10 0 1 0 1
0 -44 -34.001 119.001 0 0 1 10 0 1 0 1
0 -44 -35.998999 119.001 0 0 1 10 0 1 0 1
phys
0 -44 -38 80 0 0 1 10 0 1 0 1
0 -108 -38 80 0 0 1 10 0 1 0 1
0 -108 -32.001 80 0 0 1 10 0 1 0 1
phys
0 -44 -38 80 0 0 1 10 0 1 0 1
0 -108 -32.001 80 0 0 1 10 0 1 0 1
0 -107.99827 -32 80 0 0 1 10 0 1 0 1
phys
0 -44 -38 80 0 0 1 10 0 1 0 1
0 -107.99827 -32 80 0 0 1 10 0 1 0 1
0 -44 -32 80 0 0 1 10 0 1 0 1
phys
0 -44 -34.001 119.001 0 0 1 10 0 1 0 1
0 -44 -32 116.999 0 0 1 10 0 1 0 1
0 -107.99827 -32 80 0 0 1 10 0 1 0 1
phys
0 -44 -34.001 119.001 0 0 1 10 0 1 0 1
0 -107.99827 -32 80 0 0 1 10 0 1 0 1
0 -108 -32.001 80 0 0 1 10 0 1 0 1
phys
0 -44 -34.001 119.001 0 0 1 10 0 1 0 1
0 -108 -32.001 80 0 0 1 10 0 1 0 1
0 -108 -34.001 82.001 0 0 1 10 0 1 0 1
phys
0 -108 -38 80.001 0 0 1 10 0 1 0 1
0 -44 -38 117.001 0 0 1 10 0 1 0 1
0 -44 -35.998999 119.001 0 0 1 10 0 1 0 1
phys
0 -108 -38 80.001 0 0 1 10 0 1 0 1
0 -44 -35.998999 119.001 0 0 1 10 0 1 0 1
0 -108 -35.998999 82.001 0 0 1 10 0 1 0 1
phys
0 -44 -35.998999 119.001 0 0 1 10 0 1 0 1
0 -44 -34.001 119.001 0 0 1 10 0 1 0 1
0 -108 -34.001 82.001 0 0 1 10 0 1 0 1
phys
0 -44 -35.998999 119.001 0 0 1 10 0 1 0 1
0 -108 -34.001 82.001 0 0 1 10 0 1 0 1
0 -108 -35.998999 82.001 0 0 1 10 0 1 0 1
phys
0 -240 42 72 0 0 1 11 0 1 0 1
0 -240 42 16 0 0 1 11 0 1 0 1
0 -289 42 16 0 0 1 11 0 1 0 1
phys
0 -240 42 72 0 0 1 11 0 1 0 1
0 -289 42 16 0 0 1 11 0 1 0 1
0 -289 42 72 0 0 1 11 0 1 0 1
phys
0 -289 42 72 0 0 1 11 0 1 0 1
0 -289 42 16 0 0 1 11 0 1 0 1
0 -289 -30 16 0 0 1 11 0 1 0 1
phys
0 -240 -30 16 0 0 1 11 0 1 0 1
0 -240 42 16 0 0 1 11 0 1 0 1
0 -240 42 72 0 0 1 11 0 1 0 1
phys
0 -289 -30 16 0 0 1 11 0 1 0 1
0 -289 42 16 0 0 1 11 0 1 0 1
0 -240 42 16 0 0 1 11 0 1 0 1
phys
0 -289 -30 16 0 0 1 11 0 1 0 1
0 -240 42 16 0 0 1 11 0 1 0 1
0 -240 -30 16 0 0 1 11 0 1 0 1
phys
0 -240 -30 16 0 0 1 11 0 1 0 1
0 -240 42 72 0 0 1 11 0 1 0 1
0 -289 42 72 0 0 1 11 0 1 0 1
phys
0 -240 -30 16 0 0 1 11 0 1 0 1
0 -289 42 72 0 0 1 11 0 1 0 1
0 -289 -30 16 0 0 1 11 0 1 0 1
phys
0 -60 -28 16 0 0 1 12 0 1 0 1
0 -76 -28 16 0 0 1 12 0 1 0 1
0 -76 94 16 0 0 1 12 0 1 0 1
phys
0 -60 -28 16 0 0 1 12 0 1 0 1
0 -76 94 16 0 0 1 12 0 1 0 1
0 -60 94 16 0 0 1 12 0 1 0 1
phys
0 -76 -28 64 0 0 1 12 0 1 0 1
0 -60 -28 64 0 0 1 12 0 1 0 1
0 -60 94 64 0 0 1 12 0 1 0 1
phys
0 -76 -28 64 0 0 1 12 0 1 0 1
0 -60 94 64 0 0 1 12 0 1 0 1
0 -76 94 64 0 0 1 12 0 1 0 1
phys
0 -60 94 16 0 0 1 12 0 1 0 1
0 -76 94 16 0 0 1 12 0 1 0 1
0 -76 94 64 0 0 1 12 0 1 0 1
phys
0 -60 94 16 0 0 1 12 0 1 0 1
0 -76 94 64 0 0 1 12 0 1 0 1
0 -60 94 64 0 0 1 12 0 1 0 1
phys
0 -60 -28 64 0 0 1 12 0 1 0 1
0 -76 -28 64 0 0 1 12 0 1 0 1
0 -76 -28 16 0 0 1 12 0 1 0 1
phys
0 -60 -28 64 0 0 1 12 0 1 0 1
0 -76 -28 16 0 0 1 12 0 1 0 1
0 -60 -28 16 0 0 1 12 0 1 0 1
phys
0 -76 -28 64 0 0 1 12 0 1 0 1
0 -76 94 64 0 0 1 12 0 1 0 1
0 -76 94 16 0 0 1 12 0 1 0 1
phys
0 -76 -28 64 0 0 1 12 0 1 0 1
0 -76 94 16 0 0 1 12 0 1 0 1
0 -76 -28 16 0 0 1 12 0 1 0 1
phys
0 -60 -28 16 0 0 1 12 0 1 0 1
0 -60 94 16 0 0 1 12 0 1 0 1
0 -60 94 64 0 0 1 12 0 1 0 1
phys
0 -60 -28 16 0 0 1 12 0 1 0 1
0 -60 94 64 0 0 1 12 0 1 0 1
0 -60 -28 64 0 0 1 12 0 1 0 1
phys
0 -108 -28 12 0 0 1 13 0 1 0 1
0 -187 -80 12 0 0 1 13 0 1 0 1
0 -187 -28 12 0 0 1 13 0 1 0 1
phys
0 -187 -80 16 0 0 1 13 0 1 0 1
0 -108 -28 16 0 0 1 13 0 1 0 1
0 -187 -28 16 0 0 1 13 0 1 0 1
phys
0 -187 -80 12 0 0 1 13 0 1 0 1
0 -108 -28 12 0 0 1 13 0 1 0 1
0 -108 -28 16 0 0 1 13 0 1 0 1
phys
0 -187 -80 12 0 0 1 13 0 1 0 1
0 -108 -28 16 0 0 1 13 0 1 0 1
0 -187 -80 16 0 0 1 13 0 1 0 1
phys
0 -108 -28 12 0 0 1 13 0 1 0 1
0 -187 -28 12 0 0 1 13 0 1 0 1
0 -187 -28 16 0 0 1 13 0 1 0 1
phys
0 -108 -28 12 0 0 1 13 0 1 0 1
0 -187 -28 16 0 0 1 13 0 1 0 1
0 -108 -28 16 0 0 1 13 0 1 0 1
phys
0 -187 -80 16 0 0 1 13 0 1 0 1
0 -187 -28 16 0 0 1 13 0 1 0 1
0 -187 -28 12 0 0 1 13 0 1 0 1
phys
0 -187 -80 16 0 0 1 13 0 1 0 1
0 -187 -28 12 0 0 1 13 0 1 0 1
0 -187 -80 12 0 0 1 13 0 1 0 1
end
