version 1
nodes
0 "root" -1
end
skeleton
time 0
0 0 0 0 0 0 0
end
triangles
stone_stonewall006a
0 -187 -11.8 388.00002 -1 0 0 77.857812 0.96875 1 0 1
0 -187 94 424 -1 0 0 77.03125 1.25 1 0 1
0 -187 94 364 -1 0 0 77.03125 0.78125 1 0 1
stone_stonewall006a
0 -187 -11.8 388.00002 -1 0 0 77.857812 0.96875 1 0 1
0 -187 94 364 -1 0 0 77.03125 0.78125 1 0 1
0 -187 52.17 359.4987 -1 0 0 77.358047 0.746084 1 0 1
pepsi2_arch_concrete_floor_smooth01
0 292 94 364 1 0 0 41.963108 0.888238 1 0 1
0 292 94 424 1 0 0 41.963108 1.148655 1 0 1
0 292 -11.8 388.00002 1 0 0 42.422309 0.992405 1 0 1
pepsi2_arch_concrete_floor_smooth01
0 292 94 364 1 0 0 41.963108 0.888238 1 0 1
0 292 -11.8 388.00002 1 0 0 42.422309 0.992405 1 0 1
0 292 52.17 359.4987 1 0 0 42.144661 0.868701 1 0 1
pepsi2_arch_concrete_floor_smooth01
0 -187 -11.8 388.00002 0 -0.406975 -0.913439 42.592231 -42.286892 1 0 1
0 -187 52.17 359.4987 0 -0.406975 -0.913439 42.314583 -42.286892 1 0 1
0 292 52.17 359.4987 0 -0.406975 -0.913439 42.314583 -40.207899 1 0 1
pepsi2_arch_concrete_floor_smooth01
0 -187 -11.8 388.00002 0 -0.406975 -0.913439 42.592231 -42.286892 1 0 1
0 292 52.17 359.4987 0 -0.406975 -0.913439 42.314583 -40.207899 1 0 1
0 292 -11.8 388.00002 0 -0.406975 -0.913439 42.592231 -40.207899 1 0 1
metal_metaldoor028a
0 -240 58 72 0 1 0 160.0625 -1 1 0 1
0 -240 58 179.999 0 1 0 160.0625 -0.156258 1 0 1
0 -236 58 183.999 0 1 0 160 -0.125008 1 0 1
metal_metaldoor028a
0 -240 58 72 0 1 0 160.0625 -1 1 0 1
0 -236 58 183.999 0 1 0 160 -0.125008 1 0 1
0 -236 58 72 0 1 0 160 -1 1 0 1
metal_metaldoor028a
0 -236 42 72 0 -1 0 160 -1 1 0 1
0 -236 42 183.999 0 -1 0 160 -0.125008 1 0 1
0 -240 42 179.999 0 -1 0 160.0625 -0.156258 1 0 1
metal_metaldoor028a
0 -236 42 72 0 -1 0 160 -1 1 0 1
0 -240 42 179.999 0 -1 0 160.0625 -0.156258 1 0 1
0 -240 42 72 0 -1 0 160.0625 -1 1 0 1
metal_metaldoor028a
0 -240 42 72 -1 0 0 154.53125 -1 1 0 1
0 -240 42 179.999 -1 0 0 154.53125 -0.156258 1 0 1
0 -240 58 179.999 -1 0 0 154.28125 -0.156258 1 0 1
metal_metaldoor028a
0 -240 42 72 -1 0 0 154.53125 -1 1 0 1
0 -240 58 179.999 -1 0 0 154.28125 -0.156258 1 0 1
0 -240 58 72 -1 0 0 154.28125 -1 1 0 1
goldeneye_caverns_cavernsconcretefloor02
0 -108 -42 16 0 0 1 78.09375 -77.726562 1 0 1
0 -108 -28 16 0 0 1 77.984375 -77.726562 1 0 1
0 -187 -80 16 0 0 1 78.390625 -78.34375 1 0 1
goldeneye_caverns_cavernsconcretefloor02
0 -108 -42 16 0 0 1 78.09375 -77.726562 1 0 1
0 -187 -80 16 0 0 1 78.390625 -78.34375 1 0 1
0 -187 -94 16 0 0 1 78.5 -78.34375 1 0 1
goldeneye_caverns_cavernsconcretefloor02
0 -187 -94 16 0.549811 -0.835289 0 -79.34375 -1.9375 1 0 1
0 -187 -94 0 0.549811 -0.835289 0 -79.34375 -2.0625 1 0 1
0 -108 -42 0 0.549811 -0.835289 0 -78.726562 -2.0625 1 0 1
goldeneye_caverns_cavernsconcretefloor02
0 -187 -94 16 0.549811 -0.835289 0 -79.34375 -1.9375 1 0 1
0 -108 -42 0 0.549811 -0.835289 0 -78.726562 -2.0625 1 0 1
0 -108 -42 16 0.549811 -0.835289 0 -78.726562 -1.9375 1 0 1
pepsi2_arch_stairs01
0 -92 -28 16 -1 0 0 156.25 -10.75 1 0 1
0 -92 -28 48 -1 0 0 156.25 -9.75 1 0 1
0 -92 94 48 -1 0 0 154.34375 -9.75 1 0 1
pepsi2_arch_stairs01
0 -92 -28 16 -1 0 0 156.25 -10.75 1 0 1
0 -92 94 48 -1 0 0 154.34375 -9.75 1 0 1
0 -92 94 16 -1 0 0 154.34375 -10.75 1 0 1
pepsi2_arch_stairs01
0 -92 -28 48 0 0 1 156.25 -313.3125 1 0 1
0 -76 -28 48 0 0 1 156.25 -312.8125 1 0 1
0 -76 94 48 0 0 1 154.34375 -312.8125 1 0 1
pepsi2_arch_stairs01
0 -92 -28 48 0 0 1 156.25 -313.3125 1 0 1
0 -76 94 48 0 0 1 154.34375 -312.8125 1 0 1
0 -92 94 48 0 0 1 154.34375 -313.3125 1 0 1
goldeneye_caverns_cavernsconcretefloor02
0 -108 -42 80 -1 0 0 78.09375 -1.4375 1 0 1
0 -108 -28 80 -1 0 0 77.984375 -1.4375 1 0 1
0 -108 -28 16 -1 0 0 77.984375 -1.9375 1 0 1
goldeneye_caverns_cavernsconcretefloor02
0 -108 -42 80 -1 0 0 78.09375 -1.4375 1 0 1
0 -108 -28 16 -1 0 0 77.984375 -1.9375 1 0 1
0 -108 -42 16 -1 0 0 78.09375 -1.9375 1 0 1
goldeneye_caverns_cavernsconcretefloor02
0 -44 -42 80 0 0 1 78.09375 -77.226562 1 0 1
0 -44 -28 80 0 0 1 77.984375 -77.226562 1 0 1
0 -108 -28 80 0 0 1 77.984375 -77.726562 1 0 1
goldeneye_caverns_cavernsconcretefloor02
0 -44 -42 80 0 0 1 78.09375 -77.226562 1 0 1
0 -108 -28 80 0 0 1 77.984375 -77.726562 1 0 1
0 -108 -42 80 0 0 1 78.09375 -77.726562 1 0 1
goldeneye_caverns_cavernsconcretefloor02
0 -44 -28 80 0 1 0 -78.226562 -1.4375 1 0 1
0 -44 -28 16 0 1 0 -78.226562 -1.9375 1 0 1
0 -108 -28 16 0 1 0 -78.726562 -1.9375 1 0 1
goldeneye_caverns_cavernsconcretefloor02
0 -44 -28 80 0 1 0 -78.226562 -1.4375 1 0 1
0 -108 -28 16 0 1 0 -78.726562 -1.9375 1 0 1
0 -108 -28 80 0 1 0 -78.726562 -1.4375 1 0 1
goldeneye_caverns_cavernsconcretefloor02
0 -44 -42 16 0 -1 0 -78.226562 -1.9375 1 0 1
0 -44 -42 80 0 -1 0 -78.226562 -1.4375 1 0 1
0 -108 -42 80 0 -1 0 -78.726562 -1.4375 1 0 1
goldeneye_caverns_cavernsconcretefloor02
0 -44 -42 16 0 -1 0 -78.226562 -1.9375 1 0 1
0 -108 -42 80 0 -1 0 -78.726562 -1.4375 1 0 1
0 -108 -42 16 0 -1 0 -78.726562 -1.9375 1 0 1
stone_stonewall006a
0 -187 52.170241 359.499326 -1 0 0 77.358045 0.746088 1 0 1
0 -187 94 363.9999 -1 0 0 77.03125 0.781249 1 0 1
0 -187 94 312.0039 -1 0 0 77.03125 0.37503 1 0 1
pepsi2_arch_concrete_floor_smooth01
0 292 94 312.0039 1 0 0 41.963108 0.66256 1 0 1
0 292 94 363.9999 1 0 0 41.963108 0.888237 1 0 1
0 292 52.170241 359.499326 1 0 0 42.14466 0.868704 1 0 1
pepsi2_arch_concrete_floor_smooth01
0 -187 52.170241 359.499326 0 -0.750449 -0.660929 -44.021267 0.694876 1 0 1
0 -187 94 312.0039 0 -0.750449 -0.660929 -44.021267 0.488732 1 0 1
0 292 94 312.0039 0 -0.750449 -0.660929 -41.942274 0.488732 1 0 1
pepsi2_arch_concrete_floor_smooth01
0 -187 52.170241 359.499326 0 -0.750449 -0.660929 -44.021267 0.694876 1 0 1
0 292 94 312.0039 0 -0.750449 -0.660929 -41.942274 0.488732 1 0 1
0 292 52.170241 359.499326 0 -0.750449 -0.660929 -41.942274 0.694876 1 0 1
pepsi2_arch_stairs01
0 -60 -28 16 -1 0 0 156.25 -10.75 1 0 1
0 -60 -28 80 -1 0 0 156.25 -8.75 1 0 1
0 -60 94 80 -1 0 0 154.34375 -8.75 1 0 1
pepsi2_arch_stairs01
0 -60 -28 16 -1 0 0 156.25 -10.75 1 0 1
0 -60 94 80 -1 0 0 154.34375 -8.75 1 0 1
0 -60 94 16 -1 0 0 154.34375 -10.75 1 0 1
pepsi2_arch_stairs01
0 -60 -28 80 0 0 1 156.25 -312.3125 1 0 1
0 -44 -28 80 0 0 1 156.25 -311.8125 1 0 1
0 -44 94 80 0 0 1 154.34375 -311.8125 1 0 1
pepsi2_arch_stairs01
0 -60 -28 80 0 0 1 156.25 -312.3125 1 0 1
0 -44 94 80 0 0 1 154.34375 -311.8125 1 0 1
0 -60 94 80 0 0 1 154.34375 -312.3125 1 0 1
pepsi2_arch_stairs01
0 -108 -28 16 -1 0 0 156.25 -10.75 1 0 1
0 -108 -28 32 -1 0 0 156.25 -10.25 1 0 1
0 -108 94 32 -1 0 0 154.34375 -10.25 1 0 1
pepsi2_arch_stairs01
0 -108 -28 16 -1 0 0 156.25 -10.75 1 0 1
0 -108 94 32 -1 0 0 154.34375 -10.25 1 0 1
0 -108 94 16 -1 0 0 154.34375 -10.75 1 0 1
pepsi2_arch_stairs01
0 -108 -28 32 0 0 1 156.25 -313.8125 1 0 1
0 -92 -28 32 0 0 1 156.25 -313.3125 1 0 1
0 -92 94 32 0 0 1 154.34375 -313.3125 1 0 1
pepsi2_arch_stairs01
0 -108 -28 32 0 0 1 156.25 -313.8125 1 0 1
0 -92 94 32 0 0 1 154.34375 -313.3125 1 0 1
0 -108 94 32 0 0 1 154.34375 -313.8125 1 0 1
metal_metaldoor028a
0 -288 42 180 0 0 -1 154.53125 -80 1 0 1
0 -288 58 180 0 0 -1 154.28125 -80 1 0 1
0 -240 58 180 0 0 -1 154.28125 -79.625 1 0 1
metal_metaldoor028a
0 -288 42 180 0 0 -1 154.53125 -80 1 0 1
0 -240 58 180 0 0 -1 154.28125 -79.625 1 0 1
0 -240 42 180 0 0 -1 154.53125 -79.625 1 0 1
metal_metaldoor028a
0 -240 58 180 0 1 0 160.0625 -0.15625 1 0 1
0 -288 58 180 0 1 0 160.8125 -0.15625 1 0 1
0 -292 58 184 0 1 0 160.875 -0.125 1 0 1
metal_metaldoor028a
0 -240 58 180 0 1 0 160.0625 -0.15625 1 0 1
0 -292 58 184 0 1 0 160.875 -0.125 1 0 1
0 -236 58 184 0 1 0 160 -0.125 1 0 1
metal_metaldoor028a
0 -236 42 184 0 -1 0 160 -0.125 1 0 1
0 -292 42 184 0 -1 0 160.875 -0.125 1 0 1
0 -288 42 180 0 -1 0 160.8125 -0.15625 1 0 1
metal_metaldoor028a
0 -236 42 184 0 -1 0 160 -0.125 1 0 1
0 -288 42 180 0 -1 0 160.8125 -0.15625 1 0 1
0 -240 42 180 0 -1 0 160.0625 -0.15625 1 0 1
pepsi2_arch_concrete_floor_smooth01
0 -44 -32 116.999 0 1 0 -77.453125 -1.148445 1 0 1
0 -44 -32 80 0 1 0 -77.453125 -1.4375 1 0 1
0 -107.99827 -32 80 0 1 0 -77.953111 -1.4375 1 0 1
pepsi2_arch_concrete_floor_smooth01
0 -44 -38 80 0 -1 0 -77.453125 -1.4375 1 0 1
0 -44 -38 117.001 0 -1 0 -77.453125 -1.14843 1 0 1
0 -108 -38 80.001 0 -1 0 -77.953125 -1.437492 1 0 1
pepsi2_arch_concrete_floor_smooth01
0 -44 -38 80 0 -1 0 -77.453125 -1.4375 1 0 1
0 -108 -38 80.001 0 -1 0 -77.953125 -1.437492 1 0 1
0 -108 -38 80 0 -1 0 -77.953125 -1.4375 1 0 1
pepsi2_arch_concrete_floor_smooth01
0 -108 -38 80 -1 0 0 78.140625 -1.4375 1 0 1
0 -108 -38 80.001 -1 0 0 78.140625 -1.437492 1 0 1
0 -108 -35.998999 82.001 -1 0 0 78.124992 -1.421867 1 0 1
pepsi2_arch_concrete_floor_smooth01
0 -108 -38 80 -1 0 0 78.140625 -1.4375 1 0 1
0 -108 -35.998999 82.001 -1 0 0 78.124992 -1.421867 1 0 1
0 -108 -34.001 82.001 -1 0 0 78.109383 -1.421867 1 0 1
pepsi2_arch_concrete_floor_smooth01
0 -108 -38 80 -1 0 0 78.140625 -1.4375 1 0 1
0 -108 -34.001 82.001 -1 0 0 78.109383 -1.421867 1 0 1
0 -108 -32.001 80 -1 0 0 78.093758 -1.4375 1 0 1
pepsi2_arch_concrete_floor_smooth01
0 -44 -34.001 119.001 -0.378318 0.654715 0.654388 -77.453125 -1.132805 1 0 1
0 -44 -32 116.999 -0.378318 0.654715 0.654388 -77.453125 -1.148445 1 0 1
0 -107.99827 -32 80 -0.378318 0.654715 0.654388 -77.953111 -1.4375 1 0 1
pepsi2_arch_concrete_floor_smooth01
0 -44 -34.001 119.001 -0.378318 0.654715 0.654388 -77.453125 -1.132805 1 0 1
0 -107.99827 -32 80 -0.378318 0.654715 0.654388 -77.953111 -1.4375 1 0 1
0 -108 -32.001 80 -0.378318 0.654715 0.654388 -77.953125 -1.4375 1 0 1
pepsi2_arch_concrete_floor_smooth01
0 -44 -34.001 119.001 -0.378318 0.654715 0.654388 -77.453125 -1.132805 1 0 1
0 -108 -32.001 80 -0.378318 0.654715 0.654388 -77.953125 -1.4375 1 0 1
0 -108 -34.001 82.001 -0.378318 0.654715 0.654388 -77.953125 -1.421867 1 0 1
pepsi2_arch_concrete_floor_smooth01
0 -108 -38 80.001 -0.37848 -0.654341 0.654668 -77.953125 -1.437492 1 0 1
0 -44 -38 117.001 -0.37848 -0.654341 0.654668 -77.453125 -1.14843 1 0 1
0 -44 -35.998999 119.001 -0.37848 -0.654341 0.654668 -77.453125 -1.132805 1 0 1
pepsi2_arch_concrete_floor_smooth01
0 -108 -38 80.001 -0.37848 -0.654341 0.654668 -77.953125 -1.437492 1 0 1
0 -44 -35.998999 119.001 -0.37848 -0.654341 0.654668 -77.453125 -1.132805 1 0 1
0 -108 -35.998999 82.001 -0.37848 -0.654341 0.654668 -77.953125 -1.421867 1 0 1
pepsi2_arch_concrete_floor_smooth01
0 -44 -35.998999 119.001 -0.500503 0 0.865735 78.124992 -76.453125 1 0 1
0 -44 -34.001 119.001 -0.500503 0 0.865735 78.109383 -76.453125 1 0 1
0 -108 -34.001 82.001 -0.500503 0 0.865735 78.109383 -76.953125 1 0 1
pepsi2_arch_concrete_floor_smooth01
0 -44 -35.998999 119.001 -0.500503 0 0.865735 78.124992 -76.453125 1 0 1
0 -108 -34.001 82.001 -0.500503 0 0.865735 78.109383 -76.953125 1 0 1
0 -108 -35.998999 82.001 -0.500503 0 0.865735 78.124992 -76.953125 1 0 1
concrete_concretewall034a
0 -289 42 72 -1 0 0 77.4375 -1.5625 1 0 1
0 -289 42 16 -1 0 0 77.4375 -2 1 0 1
0 -289 -30 16 -1 0 0 78 -2 1 0 1
concrete_concretewall034a
0 -240 -30 16 1 0 0 77.875 -2 1 0 1
0 -240 42 16 1 0 0 77.3125 -2 1 0 1
0 -240 42 72 1 0 0 77.3125 -1.5625 1 0 1
concrete_concretefloor031a
0 -240 -30 16 0 -0.613941 0.789352 78.4375 -78.84375 1 0 1
0 -240 42 72 0 -0.613941 0.789352 77.875 -78.84375 1 0 1
0 -289 42 72 0 -0.613941 0.789352 77.875 -79.226562 1 0 1
concrete_concretefloor031a
0 -240 -30 16 0 -0.613941 0.789352 78.4375 -78.84375 1 0 1
0 -289 42 72 0 -0.613941 0.789352 77.875 -79.226562 1 0 1
0 -289 -30 16 0 -0.613941 0.789352 78.4375 -79.226562 1 0 1
pepsi2_arch_stairs01
0 -76 -28 64 0 0 1 156.25 -312.8125 1 0 1
0 -60 -28 64 0 0 1 156.25 -312.3125 1 0 1
0 -60 94 64 0 0 1 154.34375 -312.3125 1 0 1
pepsi2_arch_stairs01
0 -76 -28 64 0 0 1 156.25 -312.8125 1 0 1
0 -60 94 64 0 0 1 154.34375 -312.3125 1 0 1
0 -76 94 64 0 0 1 154.34375 -312.8125 1 0 1
pepsi2_arch_stairs01
0 -76 -28 64 -1 0 0 156.25 -9.25 1 0 1
0 -76 94 64 -1 0 0 154.34375 -9.25 1 0 1
0 -76 94 16 -1 0 0 154.34375 -10.75 1 0 1
pepsi2_arch_stairs01
0 -76 -28 64 -1 0 0 156.25 -9.25 1 0 1
0 -76 94 16 -1 0 0 154.34375 -10.75 1 0 1
0 -76 -28 16 -1 0 0 156.25 -10.75 1 0 1
pepsi2_arch_st_sidewalk02
0 -187 -80 16 0 0 1 -56.971819 57.701451 1 0 1
0 -108 -28 16 0 0 1 -56.681641 57.260603 1 0 1
0 -187 -28 16 0 0 1 -56.681641 57.701451 1 0 1
end
