version 1
nodes
0 "root" -1
end
skeleton
time 0
0 0 0 0 0 0 0
end
triangles
phys
0 72 211 135.999 0 0 1 1 0 1 0 1
0 72 211 143.001 0 0 1 1 0 1 0 1
0 72.7 211 144 0 0 1 1 0 1 0 1
phys
0 72 211 135.999 0 0 1 1 0 1 0 1
0 72.7 211 144 0 0 1 1 0 1 0 1
0 84 211 144 0 0 1 1 0 1 0 1
phys
0 84 111 144 0 0 1 1 0 1 0 1
0 72.7 111 144 0 0 1 1 0 1 0 1
0 72 111 143.001 0 0 1 1 0 1 0 1
phys
0 84 111 144 0 0 1 1 0 1 0 1
0 72 111 143.001 0 0 1 1 0 1 0 1
0 72 111 135.999 0 0 1 1 0 1 0 1
phys
0 72 111 135.999 0 0 1 1 0 1 0 1
0 72 111 143.001 0 0 1 1 0 1 0 1
0 72 211 143.001 0 0 1 1 0 1 0 1
phys
0 72 111 135.999 0 0 1 1 0 1 0 1
0 72 211 143.001 0 0 1 1 0 1 0 1
0 72 211 135.999 0 0 1 1 0 1 0 1
phys
0 72.7 111 144 0 0 1 1 0 1 0 1
0 84 111 144 0 0 1 1 0 1 0 1
0 84 211 144 0 0 1 1 0 1 0 1
phys
0 72.7 111 144 0 0 1 1 0 1 0 1
0 84 211 144 0 0 1 1 0 1 0 1
0 72.7 211 144 0 0 1 1 0 1 0 1
phys
0 84 111 144 0 0 1 1 0 1 0 1
0 72 111 135.999 0 0 1 1 0 1 0 1
0 72 211 135.999 0 0 1 1 0 1 0 1
phys
0 84 111 144 0 0 1 1 0 1 0 1
0 72 211 135.999 0 0 1 1 0 1 0 1
0 84 211 144 0 0 1 1 0 1 0 1
phys
0 72 111 143.001 0 0 1 1 0 1 0 1
0 72.7 111 144 0 0 1 1 0 1 0 1
0 72.7 211 144 0 0 1 1 0 1 0 1
phys
0 72 111 143.001 0 0 1 1 0 1 0 1
0 72.7 211 144 0 0 1 1 0 1 0 1
0 72 211 143.001 0 0 1 1 0 1 0 1
phys
0 -146 -214 287.9948 0 0 1 2 0 1 0 1
0 -146 -214 176 0 0 1 2 0 1 0 1
0 -150 -214 176 0 0 1 2 0 1 0 1
phys
0 -146 -214 287.9948 0 0 1 2 0 1 0 1
0 -150 -214 176 0 0 1 2 0 1 0 1
0 -150 -214 283.9948 0 0 1 2 0 1 0 1
phys
0 -146 -223 176 0 0 1 2 0 1 0 1
0 -146 -223 287.9948 0 0 1 2 0 1 0 1
0 -150 -223 283.9948 0 0 1 2 0 1 0 1
phys
0 -146 -223 176 0 0 1 2 0 1 0 1
0 -150 -223 283.9948 0 0 1 2 0 1 0 1
0 -150 -223 176 0 0 1 2 0 1 0 1
phys
0 -150 -223 176 0 0 1 2 0 1 0 1
0 -150 -223 283.9948 0 0 1 2 0 1 0 1
0 -150 -214 283.9948 0 0 1 2 0 1 0 1
phys
0 -150 -223 176 0 0 1 2 0 1 0 1
0 -150 -214 283.9948 0 0 1 2 0 1 0 1
0 -150 -214 176 0 0 1 2 0 1 0 1
phys
0 -146 -223 287.9948 0 0 1 2 0 1 0 1
0 -146 -223 176 0 0 1 2 0 1 0 1
0 -146 -214 176 0 0 1 2 0 1 0 1
phys
0 -146 -223 287.9948 0 0 1 2 0 1 0 1
0 -146 -214 176 0 0 1 2 0 1 0 1
0 -146 -214 287.9948 0 0 1 2 0 1 0 1
phys
0 -146 -223 176 0 0 1 2 0 1 0 1
0 -150 -223 176 0 0 1 2 0 1 0 1
0 -150 -214 176 0 0 1 2 0 1 0 1
phys
0 -146 -223 176 0 0 1 2 0 1 0 1
0 -150 -214 176 0 0 1 2 0 1 0 1
0 -146 -214 176 0 0 1 2 0 1 0 1
phys
0 -150 -223 283.9948 0 0 1 2 0 1 0 1
0 -146 -223 287.9948 0 0 1 2 0 1 0 1
0 -146 -214 287.9948 0 0 1 2 0 1 0 1
phys
0 -150 -223 283.9948 0 0 1 2 0 1 0 1
0 -146 -214 287.9948 0 0 1 2 0 1 0 1
0 -150 -214 283.9948 0 0 1 2 0 1 0 1
phys
0 96 111 159 0 0 1 3 0 1 0 1
0 96 211 159 0 0 1 3 0 1 0 1
0 96 211 151.999 0 0 1 3 0 1 0 1
phys
0 96 111 159 0 0 1 3 0 1 0 1
0 96 211 151.999 0 0 1 3 0 1 0 1
0 96 111 151.999 0 0 1 3 0 1 0 1
phys
0 108 111 160 0 0 1 3 0 1 0 1
0 108 211 160 0 0 1 3 0 1 0 1
0 96.7 211 160 0 0 1 3 0 1 0 1
phys
0 108 111 160 0 0 1 3 0 1 0 1
0 96.7 211 160 0 0 1 3 0 1 0 1
0 96.7 111 160 0 0 1 3 0 1 0 1
phys
0 96 111 151.999 0 0 1 3 0 1 0 1
0 96 211 151.999 0 0 1 3 0 1 0 1
0 108 211 160 0 0 1 3 0 1 0 1
phys
0 96 111 151.999 0 0 1 3 0 1 0 1
0 108 211 160 0 0 1 3 0 1 0 1
0 108 111 160 0 0 1 3 0 1 0 1
phys
0 96.7 111 160 0 0 1 3 0 1 0 1
0 96.7 211 160 0 0 1 3 0 1 0 1
0 96 211 159 0 0 1 3 0 1 0 1
phys
0 96.7 111 160 0 0 1 3 0 1 0 1
0 96 211 159 0 0 1 3 0 1 0 1
0 96 111 159 0 0 1 3 0 1 0 1
phys
0 96 211 151.999 0 0 1 3 0 1 0 1
0 96 211 159 0 0 1 3 0 1 0 1
0 96.7 211 160 0 0 1 3 0 1 0 1
phys
0 96 211 151.999 0 0 1 3 0 1 0 1
0 96.7 211 160 0 0 1 3 0 1 0 1
0 108 211 160 0 0 1 3 0 1 0 1
phys
0 108 111 160 0 0 1 3 0 1 0 1
0 96.7 111 160 0 0 1 3 0 1 0 1
0 96 111 159 0 0 1 3 0 1 0 1
phys
0 108 111 160 0 0 1 3 0 1 0 1
0 96 111 159 0 0 1 3 0 1 0 1
0 96 111 151.999 0 0 1 3 0 1 0 1
phys
0 295 224 168 0 0 1 4 0 1 0 1
0 295 224 158 0 0 1 4 0 1 0 1
0 48.2 224 158 0 0 1 4 0 1 0 1
phys
0 295 224 168 0 0 1 4 0 1 0 1
0 48.2 224 158 0 0 1 4 0 1 0 1
0 63.6 224 168 0 0 1 4 0 1 0 1
phys
0 295 221 158 0 0 1 4 0 1 0 1
0 295 221 168 0 0 1 4 0 1 0 1
0 63.6 221 168 0 0 1 4 0 1 0 1
phys
0 295 221 158 0 0 1 4 0 1 0 1
0 63.6 221 168 0 0 1 4 0 1 0 1
0 48.2 221 158 0 0 1 4 0 1 0 1
phys
0 295 221 168 0 0 1 4 0 1 0 1
0 295 221 158 0 0 1 4 0 1 0 1
0 295 224 158 0 0 1 4 0 1 0 1
phys
0 295 221 168 0 0 1 4 0 1 0 1
0 295 224 158 0 0 1 4 0 1 0 1
0 295 224 168 0 0 1 4 0 1 0 1
phys
0 295 221 158 0 0 1 4 0 1 0 1
0 48.2 221 158 0 0 1 4 0 1 0 1
0 48.2 224 158 0 0 1 4 0 1 0 1
phys
0 295 221 158 0 0 1 4 0 1 0 1
0 48.2 224 158 0 0 1 4 0 1 0 1
0 295 224 158 0 0 1 4 0 1 0 1
phys
0 63.6 221 168 0 0 1 4 0 1 0 1
0 295 221 168 0 0 1 4 0 1 0 1
0 295 224 168 0 0 1 4 0 1 0 1
phys
0 63.6 221 168 0 0 1 4 0 1 0 1
0 295 224 168 0 0 1 4 0 1 0 1
0 63.6 224 168 0 0 1 4 0 1 0 1
phys
0 48.2 221 158 0 0 1 4 0 1 0 1
0 63.6 221 168 0 0 1 4 0 1 0 1
0 63.6 224 168 0 0 1 4 0 1 0 1
phys
0 48.2 221 158 0 0 1 4 0 1 0 1
0 63.6 224 168 0 0 1 4 0 1 0 1
0 48.2 224 158 0 0 1 4 0 1 0 1
phys
0 72 111 136 0 0 1 5 0 1 0 1
0 60 111 127.999 0 0 1 5 0 1 0 1
0 60 211 127.999 0 0 1 5 0 1 0 1
phys
0 72 111 136 0 0 1 5 0 1 0 1
0 60 211 127.999 0 0 1 5 0 1 0 1
0 72 211 136 0 0 1 5 0 1 0 1
phys
0 60.7 211 136 0 0 1 5 0 1 0 1
0 60 211 135.001 0 0 1 5 0 1 0 1
0 60 111 135.001 0 0 1 5 0 1 0 1
phys
0 60.7 211 136 0 0 1 5 0 1 0 1
0 60 111 135.001 0 0 1 5 0 1 0 1
0 60.7 111 136 0 0 1 5 0 1 0 1
phys
0 72 211 136 0 0 1 5 0 1 0 1
0 60 211 127.999 0 0 1 5 0 1 0 1
0 60 211 135.001 0 0 1 5 0 1 0 1
phys
0 72 211 136 0 0 1 5 0 1 0 1
0 60 211 135.001 0 0 1 5 0 1 0 1
0 60.7 211 136 0 0 1 5 0 1 0 1
phys
0 60.7 111 136 0 0 1 5 0 1 0 1
0 60 111 135.001 0 0 1 5 0 1 0 1
0 60 111 127.999 0 0 1 5 0 1 0 1
phys
0 60.7 111 136 0 0 1 5 0 1 0 1
0 60 111 127.999 0 0 1 5 0 1 0 1
0 72 111 136 0 0 1 5 0 1 0 1
phys
0 60 111 135.001 0 0 1 5 0 1 0 1
0 60 211 135.001 0 0 1 5 0 1 0 1
0 60 211 127.999 0 0 1 5 0 1 0 1
phys
0 60 111 135.001 0 0 1 5 0 1 0 1
0 60 211 127.999 0 0 1 5 0 1 0 1
0 60 111 127.999 0 0 1 5 0 1 0 1
phys
0 72 111 136 0 0 1 5 0 1 0 1
0 72 211 136 0 0 1 5 0 1 0 1
0 60.7 211 136 0 0 1 5 0 1 0 1
phys
0 72 111 136 0 0 1 5 0 1 0 1
0 60.7 211 136 0 0 1 5 0 1 0 1
0 60.7 111 136 0 0 1 5 0 1 0 1
phys
0 132 101 176 0 0 1 6 0 1 0 1
0 29 101 176 0 0 1 6 0 1 0 1
0 29 111 176 0 0 1 6 0 1 0 1
phys
0 132 101 176 0 0 1 6 0 1 0 1
0 29 111 176 0 0 1 6 0 1 0 1
0 132 111 176 0 0 1 6 0 1 0 1
phys
0 29 101 202 0 0 1 6 0 1 0 1
0 132 101 202 0 0 1 6 0 1 0 1
0 132 111 202 0 0 1 6 0 1 0 1
phys
0 29 101 202 0 0 1 6 0 1 0 1
0 132 111 202 0 0 1 6 0 1 0 1
0 29 111 202 0 0 1 6 0 1 0 1
phys
0 132 111 176 0 0 1 6 0 1 0 1
0 29 111 176 0 0 1 6 0 1 0 1
0 29 111 202 0 0 1 6 0 1 0 1
phys
0 132 111 176 0 0 1 6 0 1 0 1
0 29 111 202 0 0 1 6 0 1 0 1
0 132 111 202 0 0 1 6 0 1 0 1
phys
0 132 101 202 0 0 1 6 0 1 0 1
0 29 101 202 0 0 1 6 0 1 0 1
0 29 101 176 0 0 1 6 0 1 0 1
phys
0 132 101 202 0 0 1 6 0 1 0 1
0 29 101 176 0 0 1 6 0 1 0 1
0 132 101 176 0 0 1 6 0 1 0 1
phys
0 29 101 202 0 0 1 6 0 1 0 1
0 29 111 202 0 0 1 6 0 1 0 1
0 29 111 176 0 0 1 6 0 1 0 1
phys
0 29 101 202 0 0 1 6 0 1 0 1
0 29 111 176 0 0 1 6 0 1 0 1
0 29 101 176 0 0 1 6 0 1 0 1
phys
0 132 101 176 0 0 1 6 0 1 0 1
0 132 111 176 0 0 1 6 0 1 0 1
0 132 111 202 0 0 1 6 0 1 0 1
phys
0 132 101 176 0 0 1 6 0 1 0 1
0 132 111 202 0 0 1 6 0 1 0 1
0 132 101 202 0 0 1 6 0 1 0 1
phys
0 -36 211 63.999 0 0 1 7 0 1 0 1
0 -36 211 71.001 0 0 1 7 0 1 0 1
0 -35.3 211 72 0 0 1 7 0 1 0 1
phys
0 -36 211 63.999 0 0 1 7 0 1 0 1
0 -35.3 211 72 0 0 1 7 0 1 0 1
0 -24 211 72 0 0 1 7 0 1 0 1
phys
0 -24 111 72 0 0 1 7 0 1 0 1
0 -35.3 111 72 0 0 1 7 0 1 0 1
0 -36 111 71.001 0 0 1 7 0 1 0 1
phys
0 -24 111 72 0 0 1 7 0 1 0 1
0 -36 111 71.001 0 0 1 7 0 1 0 1
0 -36 111 63.999 0 0 1 7 0 1 0 1
phys
0 -36 111 63.999 0 0 1 7 0 1 0 1
0 -36 111 71.001 0 0 1 7 0 1 0 1
0 -36 211 71.001 0 0 1 7 0 1 0 1
phys
0 -36 111 63.999 0 0 1 7 0 1 0 1
0 -36 211 71.001 0 0 1 7 0 1 0 1
0 -36 211 63.999 0 0 1 7 0 1 0 1
phys
0 -35.3 111 72 0 0 1 7 0 1 0 1
0 -24 111 72 0 0 1 7 0 1 0 1
0 -24 211 72 0 0 1 7 0 1 0 1
phys
0 -35.3 111 72 0 0 1 7 0 1 0 1
0 -24 211 72 0 0 1 7 0 1 0 1
0 -35.3 211 72 0 0 1 7 0 1 0 1
phys
0 -24 111 72 0 0 1 7 0 1 0 1
0 -36 111 63.999 0 0 1 7 0 1 0 1
0 -36 211 63.999 0 0 1 7 0 1 0 1
phys
0 -24 111 72 0 0 1 7 0 1 0 1
0 -36 211 63.999 0 0 1 7 0 1 0 1
0 -24 211 72 0 0 1 7 0 1 0 1
phys
0 -36 111 71.001 0 0 1 7 0 1 0 1
0 -35.3 111 72 0 0 1 7 0 1 0 1
0 -35.3 211 72 0 0 1 7 0 1 0 1
phys
0 -36 111 71.001 0 0 1 7 0 1 0 1
0 -35.3 211 72 0 0 1 7 0 1 0 1
0 -36 211 71.001 0 0 1 7 0 1 0 1
phys
0 48 211 119.999 0 0 1 8 0 1 0 1
0 48 211 126.999 0 0 1 8 0 1 0 1
0 48.7 211 128 0 0 1 8 0 1 0 1
phys
0 48 211 119.999 0 0 1 8 0 1 0 1
0 48.7 211 128 0 0 1 8 0 1 0 1
0 60 211 128 0 0 1 8 0 1 0 1
phys
0 60 111 128 0 0 1 8 0 1 0 1
0 48.7 111 128 0 0 1 8 0 1 0 1
0 48 111 126.999 0 0 1 8 0 1 0 1
phys
0 60 111 128 0 0 1 8 0 1 0 1
0 48 111 126.999 0 0 1 8 0 1 0 1
0 48 111 119.999 0 0 1 8 0 1 0 1
phys
0 48 111 119.999 0 0 1 8 0 1 0 1
0 48 111 126.999 0 0 1 8 0 1 0 1
0 48 211 126.999 0 0 1 8 0 1 0 1
phys
0 48 111 119.999 0 0 1 8 0 1 0 1
0 48 211 126.999 0 0 1 8 0 1 0 1
0 48 211 119.999 0 0 1 8 0 1 0 1
phys
0 48.7 111 128 0 0 1 8 0 1 0 1
0 60 111 128 0 0 1 8 0 1 0 1
0 60 211 128 0 0 1 8 0 1 0 1
phys
0 48.7 111 128 0 0 1 8 0 1 0 1
0 60 211 128 0 0 1 8 0 1 0 1
0 48.7 211 128 0 0 1 8 0 1 0 1
phys
0 60 111 128 0 0 1 8 0 1 0 1
0 48 111 119.999 0 0 1 8 0 1 0 1
0 48 211 119.999 0 0 1 8 0 1 0 1
phys
0 60 111 128 0 0 1 8 0 1 0 1
0 48 211 119.999 0 0 1 8 0 1 0 1
0 60 211 128 0 0 1 8 0 1 0 1
phys
0 48 111 126.999 0 0 1 8 0 1 0 1
0 48.7 111 128 0 0 1 8 0 1 0 1
0 48.7 211 128 0 0 1 8 0 1 0 1
phys
0 48 111 126.999 0 0 1 8 0 1 0 1
0 48.7 211 128 0 0 1 8 0 1 0 1
0 48 211 126.999 0 0 1 8 0 1 0 1
phys
0 36 211 111.999 0 0 1 9 0 1 0 1
0 36 211 119.001 0 0 1 9 0 1 0 1
0 36.7 211 120 0 0 1 9 0 1 0 1
phys
0 36 211 111.999 0 0 1 9 0 1 0 1
0 36.7 211 120 0 0 1 9 0 1 0 1
0 48 211 120 0 0 1 9 0 1 0 1
phys
0 48 111 120 0 0 1 9 0 1 0 1
0 36.7 111 120 0 0 1 9 0 1 0 1
0 36 111 119.001 0 0 1 9 0 1 0 1
phys
0 48 111 120 0 0 1 9 0 1 0 1
0 36 111 119.001 0 0 1 9 0 1 0 1
0 36 111 111.999 0 0 1 9 0 1 0 1
phys
0 36 111 111.999 0 0 1 9 0 1 0 1
0 36 111 119.001 0 0 1 9 0 1 0 1
0 36 211 119.001 0 0 1 9 0 1 0 1
phys
0 36 111 111.999 0 0 1 9 0 1 0 1
0 36 211 119.001 0 0 1 9 0 1 0 1
0 36 211 111.999 0 0 1 9 0 1 0 1
phys
0 36.7 111 120 0 0 1 9 0 1 0 1
0 48 111 120 0 0 1 9 0 1 0 1
0 48 211 120 0 0 1 9 0 1 0 1
phys
0 36.7 111 120 0 0 1 9 0 1 0 1
0 48 211 120 0 0 1 9 0 1 0 1
0 36.7 211 120 0 0 1 9 0 1 0 1
phys
0 48 111 120 0 0 1 9 0 1 0 1
0 36 111 111.999 0 0 1 9 0 1 0 1
0 36 211 111.999 0 0 1 9 0 1 0 1
phys
0 48 111 120 0 0 1 9 0 1 0 1
0 36 211 111.999 0 0 1 9 0 1 0 1
0 48 211 120 0 0 1 9 0 1 0 1
phys
0 36 111 119.001 0 0 1 9 0 1 0 1
0 36.7 111 120 0 0 1 9 0 1 0 1
0 36.7 211 120 0 0 1 9 0 1 0 1
phys
0 36 111 119.001 0 0 1 9 0 1 0 1
0 36.7 211 120 0 0 1 9 0 1 0 1
0 36 211 119.001 0 0 1 9 0 1 0 1
phys
0 -296 111 216 0 0 1 10 0 1 0 1
0 -296 119 216 0 0 1 10 0 1 0 1
0 -296 119 176 0 0 1 10 0 1 0 1
phys
0 -296 111 216 0 0 1 10 0 1 0 1
0 -296 119 176 0 0 1 10 0 1 0 1
0 -296 111 176 0 0 1 10 0 1 0 1
phys
0 -288 111 176 0 0 1 10 0 1 0 1
0 -288 119 176 0 0 1 10 0 1 0 1
0 -288 119 216 0 0 1 10 0 1 0 1
phys
0 -288 111 176 0 0 1 10 0 1 0 1
0 -288 119 216 0 0 1 10 0 1 0 1
0 -288 111 216 0 0 1 10 0 1 0 1
phys
0 -296 111 176 0 0 1 10 0 1 0 1
0 -296 119 176 0 0 1 10 0 1 0 1
0 -288 119 176 0 0 1 10 0 1 0 1
phys
0 -296 111 176 0 0 1 10 0 1 0 1
0 -288 119 176 0 0 1 10 0 1 0 1
0 -288 111 176 0 0 1 10 0 1 0 1
phys
0 -288 111 216 0 0 1 10 0 1 0 1
0 -288 119 216 0 0 1 10 0 1 0 1
0 -296 119 216 0 0 1 10 0 1 0 1
phys
0 -288 111 216 0 0 1 10 0 1 0 1
0 -296 119 216 0 0 1 10 0 1 0 1
0 -296 111 216 0 0 1 10 0 1 0 1
phys
0 -288 119 216 0 0 1 10 0 1 0 1
0 -288 119 176 0 0 1 10 0 1 0 1
0 -296 119 176 0 0 1 10 0 1 0 1
phys
0 -288 119 216 0 0 1 10 0 1 0 1
0 -296 119 176 0 0 1 10 0 1 0 1
0 -296 119 216 0 0 1 10 0 1 0 1
phys
0 -288 111 176 0 0 1 10 0 1 0 1
0 -288 111 216 0 0 1 10 0 1 0 1
0 -296 111 216 0 0 1 10 0 1 0 1
phys
0 -288 111 176 0 0 1 10 0 1 0 1
0 -296 111 216 0 0 1 10 0 1 0 1
0 -296 111 176 0 0 1 10 0 1 0 1
phys
0 84 211 143.999 0 0 1 11 0 1 0 1
0 84 211 151.002 0 0 1 11 0 1 0 1
0 84.7 211 152 0 0 1 11 0 1 0 1
phys
0 84 211 143.999 0 0 1 11 0 1 0 1
0 84.7 211 152 0 0 1 11 0 1 0 1
0 96 211 152 0 0 1 11 0 1 0 1
phys
0 96 111 152 0 0 1 11 0 1 0 1
0 84.7 111 152 0 0 1 11 0 1 0 1
0 84 111 151.002 0 0 1 11 0 1 0 1
phys
0 96 111 152 0 0 1 11 0 1 0 1
0 84 111 151.002 0 0 1 11 0 1 0 1
0 84 111 143.999 0 0 1 11 0 1 0 1
phys
0 84 111 143.999 0 0 1 11 0 1 0 1
0 84 111 151.002 0 0 1 11 0 1 0 1
0 84 211 151.002 0 0 1 11 0 1 0 1
phys
0 84 111 143.999 0 0 1 11 0 1 0 1
0 84 211 151.002 0 0 1 11 0 1 0 1
0 84 211 143.999 0 0 1 11 0 1 0 1
phys
0 84.7 111 152 0 0 1 11 0 1 0 1
0 96 111 152 0 0 1 11 0 1 0 1
0 96 211 152 0 0 1 11 0 1 0 1
phys
0 84.7 111 152 0 0 1 11 0 1 0 1
0 96 211 152 0 0 1 11 0 1 0 1
0 84.7 211 152 0 0 1 11 0 1 0 1
phys
0 96 111 152 0 0 1 11 0 1 0 1
0 84 111 143.999 0 0 1 11 0 1 0 1
0 84 211 143.999 0 0 1 11 0 1 0 1
phys
0 96 111 152 0 0 1 11 0 1 0 1
0 84 211 143.999 0 0 1 11 0 1 0 1
0 96 211 152 0 0 1 11 0 1 0 1
phys
0 84 111 151.002 0 0 1 11 0 1 0 1
0 84.7 111 152 0 0 1 11 0 1 0 1
0 84.7 211 152 0 0 1 11 0 1 0 1
phys
0 84 111 151.002 0 0 1 11 0 1 0 1
0 84.7 211 152 0 0 1 11 0 1 0 1
0 84 211 151.002 0 0 1 11 0 1 0 1
phys
0 -24 111 79 0 0 1 12 0 1 0 1
0 -24 211 79 0 0 1 12 0 1 0 1
0 -24 211 71.999 0 0 1 12 0 1 0 1
phys
0 -24 111 79 0 0 1 12 0 1 0 1
0 -24 211 71.999 0 0 1 12 0 1 0 1
0 -24 111 71.999 0 0 1 12 0 1 0 1
phys
0 -12 111 80 0 0 1 12 0 1 0 1
0 -12 211 80 0 0 1 12 0 1 0 1
0 -23.3 211 80 0 0 1 12 0 1 0 1
phys
0 -12 111 80 0 0 1 12 0 1 0 1
0 -23.3 211 80 0 0 1 12 0 1 0 1
0 -23.3 111 80 0 0 1 12 0 1 0 1
phys
0 -24 111 71.999 0 0 1 12 0 1 0 1
0 -24 211 71.999 0 0 1 12 0 1 0 1
0 -12 211 80 0 0 1 12 0 1 0 1
phys
0 -24 111 71.999 0 0 1 12 0 1 0 1
0 -12 211 80 0 0 1 12 0 1 0 1
0 -12 111 80 0 0 1 12 0 1 0 1
phys
0 -23.3 111 80 0 0 1 12 0 1 0 1
0 -23.3 211 80 0 0 1 12 0 1 0 1
0 -24 211 79 0 0 1 12 0 1 0 1
phys
0 -23.3 111 80 0 0 1 12 0 1 0 1
0 -24 211 79 0 0 1 12 0 1 0 1
0 -24 111 79 0 0 1 12 0 1 0 1
phys
0 -24 211 71.999 0 0 1 12 0 1 0 1
0 -24 211 79 0 0 1 12 0 1 0 1
0 -23.3 211 80 0 0 1 12 0 1 0 1
phys
0 -24 211 71.999 0 0 1 12 0 1 0 1
0 -23.3 211 80 0 0 1 12 0 1 0 1
0 -12 211 80 0 0 1 12 0 1 0 1
phys
0 -12 111 80 0 0 1 12 0 1 0 1
0 -23.3 111 80 0 0 1 12 0 1 0 1
0 -24 111 79 0 0 1 12 0 1 0 1
phys
0 -12 111 80 0 0 1 12 0 1 0 1
0 -24 111 79 0 0 1 12 0 1 0 1
0 -24 111 71.999 0 0 1 12 0 1 0 1
phys
0 0 211 87.999 0 0 1 13 0 1 0 1
0 0 211 95.002 0 0 1 13 0 1 0 1
0 0.7 211 96 0 0 1 13 0 1 0 1
phys
0 0 211 87.999 0 0 1 13 0 1 0 1
0 0.7 211 96 0 0 1 13 0 1 0 1
0 12 211 96 0 0 1 13 0 1 0 1
phys
0 12 111 96 0 0 1 13 0 1 0 1
0 0.7 111 96 0 0 1 13 0 1 0 1
0 0 111 95.002 0 0 1 13 0 1 0 1
phys
0 12 111 96 0 0 1 13 0 1 0 1
0 0 111 95.002 0 0 1 13 0 1 0 1
0 0 111 87.999 0 0 1 13 0 1 0 1
phys
0 0 111 87.999 0 0 1 13 0 1 0 1
0 0 111 95.002 0 0 1 13 0 1 0 1
0 0 211 95.002 0 0 1 13 0 1 0 1
phys
0 0 111 87.999 0 0 1 13 0 1 0 1
0 0 211 95.002 0 0 1 13 0 1 0 1
0 0 211 87.999 0 0 1 13 0 1 0 1
phys
0 0.7 111 96 0 0 1 13 0 1 0 1
0 12 111 96 0 0 1 13 0 1 0 1
0 12 211 96 0 0 1 13 0 1 0 1
phys
0 0.7 111 96 0 0 1 13 0 1 0 1
0 12 211 96 0 0 1 13 0 1 0 1
0 0.7 211 96 0 0 1 13 0 1 0 1
phys
0 12 111 96 0 0 1 13 0 1 0 1
0 0 111 87.999 0 0 1 13 0 1 0 1
0 0 211 87.999 0 0 1 13 0 1 0 1
phys
0 12 111 96 0 0 1 13 0 1 0 1
0 0 211 87.999 0 0 1 13 0 1 0 1
0 12 211 96 0 0 1 13 0 1 0 1
phys
0 0 111 95.002 0 0 1 13 0 1 0 1
0 0.7 111 96 0 0 1 13 0 1 0 1
0 0.7 211 96 0 0 1 13 0 1 0 1
phys
0 0 111 95.002 0 0 1 13 0 1 0 1
0 0.7 211 96 0 0 1 13 0 1 0 1
0 0 211 95.002 0 0 1 13 0 1 0 1
phys
0 -288 207 216 0 0 1 14 0 1 0 1
0 -288 207 176 0 0 1 14 0 1 0 1
0 -296 207 176 0 0 1 14 0 1 0 1
phys
0 -288 207 216 0 0 1 14 0 1 0 1
0 -296 207 176 0 0 1 14 0 1 0 1
0 -296 207 216 0 0 1 14 0 1 0 1
phys
0 -288 199 176 0 0 1 14 0 1 0 1
0 -288 199 216 0 0 1 14 0 1 0 1
0 -296 199 216 0 0 1 14 0 1 0 1
phys
0 -288 199 176 0 0 1 14 0 1 0 1
0 -296 199 216 0 0 1 14 0 1 0 1
0 -296 199 176 0 0 1 14 0 1 0 1
phys
0 -296 199 176 0 0 1 14 0 1 0 1
0 -296 199 216 0 0 1 14 0 1 0 1
0 -296 207 216 0 0 1 14 0 1 0 1
phys
0 -296 199 176 0 0 1 14 0 1 0 1
0 -296 207 216 0 0 1 14 0 1 0 1
0 -296 207 176 0 0 1 14 0 1 0 1
phys
0 -288 199 216 0 0 1 14 0 1 0 1
0 -288 199 176 0 0 1 14 0 1 0 1
0 -288 207 176 0 0 1 14 0 1 0 1
phys
0 -288 199 216 0 0 1 14 0 1 0 1
0 -288 207 176 0 0 1 14 0 1 0 1
0 -288 207 216 0 0 1 14 0 1 0 1
phys
0 -288 199 176 0 0 1 14 0 1 0 1
0 -296 199 176 0 0 1 14 0 1 0 1
0 -296 207 176 0 0 1 14 0 1 0 1
phys
0 -288 199 176 0 0 1 14 0 1 0 1
0 -296 207 176 0 0 1 14 0 1 0 1
0 -288 207 176 0 0 1 14 0 1 0 1
phys
0 -296 199 216 0 0 1 14 0 1 0 1
0 -288 199 216 0 0 1 14 0 1 0 1
0 -288 207 216 0 0 1 14 0 1 0 1
phys
0 -296 199 216 0 0 1 14 0 1 0 1
0 -288 207 216 0 0 1 14 0 1 0 1
0 -296 207 216 0 0 1 14 0 1 0 1
phys
0 -84 111 32 0 0 1 15 0 1 0 1
0 -84 211 32 0 0 1 15 0 1 0 1
0 -95.3 211 32 0 0 1 15 0 1 0 1
phys
0 -84 111 32 0 0 1 15 0 1 0 1
0 -95.3 211 32 0 0 1 15 0 1 0 1
0 -95.3 111 32 0 0 1 15 0 1 0 1
phys
0 -96 211 23.999 0 0 1 15 0 1 0 1
0 -84 211 32 0 0 1 15 0 1 0 1
0 -84 111 32 0 0 1 15 0 1 0 1
phys
0 -96 211 23.999 0 0 1 15 0 1 0 1
0 -84 111 32 0 0 1 15 0 1 0 1
0 -96 111 23.999 0 0 1 15 0 1 0 1
phys
0 -95.3 111 32 0 0 1 15 0 1 0 1
0 -95.3 211 32 0 0 1 15 0 1 0 1
0 -96 211 31 0 0 1 15 0 1 0 1
phys
0 -95.3 111 32 0 0 1 15 0 1 0 1
0 -96 211 31 0 0 1 15 0 1 0 1
0 -96 111 31 0 0 1 15 0 1 0 1
phys
0 -95.3 211 32 0 0 1 15 0 1 0 1
0 -84 211 32 0 0 1 15 0 1 0 1
0 -96 211 23.999 0 0 1 15 0 1 0 1
phys
0 -95.3 211 32 0 0 1 15 0 1 0 1
0 -96 211 23.999 0 0 1 15 0 1 0 1
0 -96 211 31 0 0 1 15 0 1 0 1
phys
0 -84 111 32 0 0 1 15 0 1 0 1
0 -95.3 111 32 0 0 1 15 0 1 0 1
0 -96 111 31 0 0 1 15 0 1 0 1
phys
0 -84 111 32 0 0 1 15 0 1 0 1
0 -96 111 31 0 0 1 15 0 1 0 1
0 -96 111 23.999 0 0 1 15 0 1 0 1
phys
0 -96 111 31 0 0 1 15 0 1 0 1
0 -96 211 31 0 0 1 15 0 1 0 1
0 -96 211 23.999 0 0 1 15 0 1 0 1
phys
0 -96 111 31 0 0 1 15 0 1 0 1
0 -96 211 23.999 0 0 1 15 0 1 0 1
0 -96 111 23.999 0 0 1 15 0 1 0 1
phys
0 -12 211 79.999 0 0 1 16 0 1 0 1
0 -12 211 87 0 0 1 16 0 1 0 1
0 -11.3 211 88 0 0 1 16 0 1 0 1
phys
0 -12 211 79.999 0 0 1 16 0 1 0 1
0 -11.3 211 88 0 0 1 16 0 1 0 1
0 0 211 88 0 0 1 16 0 1 0 1
phys
0 0 111 88 0 0 1 16 0 1 0 1
0 -11.3 111 88 0 0 1 16 0 1 0 1
0 -12 111 87 0 0 1 16 0 1 0 1
phys
0 0 111 88 0 0 1 16 0 1 0 1
0 -12 111 87 0 0 1 16 0 1 0 1
0 -12 111 79.999 0 0 1 16 0 1 0 1
phys
0 -12 111 79.999 0 0 1 16 0 1 0 1
0 -12 111 87 0 0 1 16 0 1 0 1
0 -12 211 87 0 0 1 16 0 1 0 1
phys
0 -12 111 79.999 0 0 1 16 0 1 0 1
0 -12 211 87 0 0 1 16 0 1 0 1
0 -12 211 79.999 0 0 1 16 0 1 0 1
phys
0 -11.3 111 88 0 0 1 16 0 1 0 1
0 0 111 88 0 0 1 16 0 1 0 1
0 0 211 88 0 0 1 16 0 1 0 1
phys
0 -11.3 111 88 0 0 1 16 0 1 0 1
0 0 211 88 0 0 1 16 0 1 0 1
0 -11.3 211 88 0 0 1 16 0 1 0 1
phys
0 0 111 88 0 0 1 16 0 1 0 1
0 -12 111 79.999 0 0 1 16 0 1 0 1
0 -12 211 79.999 0 0 1 16 0 1 0 1
phys
0 0 111 88 0 0 1 16 0 1 0 1
0 -12 211 79.999 0 0 1 16 0 1 0 1
0 0 211 88 0 0 1 16 0 1 0 1
phys
0 -12 111 87 0 0 1 16 0 1 0 1
0 -11.3 111 88 0 0 1 16 0 1 0 1
0 -11.3 211 88 0 0 1 16 0 1 0 1
phys
0 -12 111 87 0 0 1 16 0 1 0 1
0 -11.3 211 88 0 0 1 16 0 1 0 1
0 -12 211 87 0 0 1 16 0 1 0 1
phys
0 12 211 95.999 0 0 1 17 0 1 0 1
0 12 211 103 0 0 1 17 0 1 0 1
0 12.7 211 104 0 0 1 17 0 1 0 1
phys
0 12 211 95.999 0 0 1 17 0 1 0 1
0 12.7 211 104 0 0 1 17 0 1 0 1
0 24 211 104 0 0 1 17 0 1 0 1
phys
0 24 111 104 0 0 1 17 0 1 0 1
0 12.7 111 104 0 0 1 17 0 1 0 1
0 12 111 103 0 0 1 17 0 1 0 1
phys
0 24 111 104 0 0 1 17 0 1 0 1
0 12 111 103 0 0 1 17 0 1 0 1
0 12 111 95.999 0 0 1 17 0 1 0 1
phys
0 12 111 95.999 0 0 1 17 0 1 0 1
0 12 111 103 0 0 1 17 0 1 0 1
0 12 211 103 0 0 1 17 0 1 0 1
phys
0 12 111 95.999 0 0 1 17 0 1 0 1
0 12 211 103 0 0 1 17 0 1 0 1
0 12 211 95.999 0 0 1 17 0 1 0 1
phys
0 12.7 111 104 0 0 1 17 0 1 0 1
0 24 111 104 0 0 1 17 0 1 0 1
0 24 211 104 0 0 1 17 0 1 0 1
phys
0 12.7 111 104 0 0 1 17 0 1 0 1
0 24 211 104 0 0 1 17 0 1 0 1
0 12.7 211 104 0 0 1 17 0 1 0 1
phys
0 24 111 104 0 0 1 17 0 1 0 1
0 12 111 95.999 0 0 1 17 0 1 0 1
0 12 211 95.999 0 0 1 17 0 1 0 1
phys
0 24 111 104 0 0 1 17 0 1 0 1
0 12 211 95.999 0 0 1 17 0 1 0 1
0 24 211 104 0 0 1 17 0 1 0 1
phys
0 12 111 103 0 0 1 17 0 1 0 1
0 12.7 111 104 0 0 1 17 0 1 0 1
0 12.7 211 104 0 0 1 17 0 1 0 1
phys
0 12 111 103 0 0 1 17 0 1 0 1
0 12.7 211 104 0 0 1 17 0 1 0 1
0 12 211 103 0 0 1 17 0 1 0 1
phys
0 -132 211 -0.001 0 0 1 18 0 1 0 1
0 -132 211 7 0 0 1 18 0 1 0 1
0 -131.3 211 8 0 0 1 18 0 1 0 1
phys
0 -132 211 -0.001 0 0 1 18 0 1 0 1
0 -131.3 211 8 0 0 1 18 0 1 0 1
0 -120 211 8 0 0 1 18 0 1 0 1
phys
0 -120 111 8 0 0 1 18 0 1 0 1
0 -131.3 111 8 0 0 1 18 0 1 0 1
0 -132 111 7 0 0 1 18 0 1 0 1
phys
0 -120 111 8 0 0 1 18 0 1 0 1
0 -132 111 7 0 0 1 18 0 1 0 1
0 -132 111 -0.001 0 0 1 18 0 1 0 1
phys
0 -132 111 -0.001 0 0 1 18 0 1 0 1
0 -132 111 7 0 0 1 18 0 1 0 1
0 -132 211 7 0 0 1 18 0 1 0 1
phys
0 -132 111 -0.001 0 0 1 18 0 1 0 1
0 -132 211 7 0 0 1 18 0 1 0 1
0 -132 211 -0.001 0 0 1 18 0 1 0 1
phys
0 -131.3 111 8 0 0 1 18 0 1 0 1
0 -120 111 8 0 0 1 18 0 1 0 1
0 -120 211 8 0 0 1 18 0 1 0 1
phys
0 -131.3 111 8 0 0 1 18 0 1 0 1
0 -120 211 8 0 0 1 18 0 1 0 1
0 -131.3 211 8 0 0 1 18 0 1 0 1
phys
0 -120 111 8 0 0 1 18 0 1 0 1
0 -132 111 -0.001 0 0 1 18 0 1 0 1
0 -132 211 -0.001 0 0 1 18 0 1 0 1
phys
0 -120 111 8 0 0 1 18 0 1 0 1
0 -132 211 -0.001 0 0 1 18 0 1 0 1
0 -120 211 8 0 0 1 18 0 1 0 1
phys
0 -132 111 7 0 0 1 18 0 1 0 1
0 -131.3 111 8 0 0 1 18 0 1 0 1
0 -131.3 211 8 0 0 1 18 0 1 0 1
phys
0 -132 111 7 0 0 1 18 0 1 0 1
0 -131.3 211 8 0 0 1 18 0 1 0 1
0 -132 211 7 0 0 1 18 0 1 0 1
phys
0 108 211 159.999 0 0 1 19 0 1 0 1
0 108 211 167 0 0 1 19 0 1 0 1
0 108.7 211 168 0 0 1 19 0 1 0 1
phys
0 108 211 159.999 0 0 1 19 0 1 0 1
0 108.7 211 168 0 0 1 19 0 1 0 1
0 120 211 168 0 0 1 19 0 1 0 1
phys
0 120 111 168 0 0 1 19 0 1 0 1
0 108.7 111 168 0 0 1 19 0 1 0 1
0 108 111 167 0 0 1 19 0 1 0 1
phys
0 120 111 168 0 0 1 19 0 1 0 1
0 108 111 167 0 0 1 19 0 1 0 1
0 108 111 159.999 0 0 1 19 0 1 0 1
phys
0 108 111 159.999 0 0 1 19 0 1 0 1
0 108 111 167 0 0 1 19 0 1 0 1
0 108 211 167 0 0 1 19 0 1 0 1
phys
0 108 111 159.999 0 0 1 19 0 1 0 1
0 108 211 167 0 0 1 19 0 1 0 1
0 108 211 159.999 0 0 1 19 0 1 0 1
phys
0 108.7 111 168 0 0 1 19 0 1 0 1
0 120 111 168 0 0 1 19 0 1 0 1
0 120 211 168 0 0 1 19 0 1 0 1
phys
0 108.7 111 168 0 0 1 19 0 1 0 1
0 120 211 168 0 0 1 19 0 1 0 1
0 108.7 211 168 0 0 1 19 0 1 0 1
phys
0 120 111 168 0 0 1 19 0 1 0 1
0 108 111 159.999 0 0 1 19 0 1 0 1
0 108 211 159.999 0 0 1 19 0 1 0 1
phys
0 120 111 168 0 0 1 19 0 1 0 1
0 108 211 159.999 0 0 1 19 0 1 0 1
0 120 211 168 0 0 1 19 0 1 0 1
phys
0 108 111 167 0 0 1 19 0 1 0 1
0 108.7 111 168 0 0 1 19 0 1 0 1
0 108.7 211 168 0 0 1 19 0 1 0 1
phys
0 108 111 167 0 0 1 19 0 1 0 1
0 108.7 211 168 0 0 1 19 0 1 0 1
0 108 211 167 0 0 1 19 0 1 0 1
phys
0 132 111 176 0 0 1 20 0 1 0 1
0 120 111 167.999 0 0 1 20 0 1 0 1
0 120 211 167.999 0 0 1 20 0 1 0 1
phys
0 132 111 176 0 0 1 20 0 1 0 1
0 120 211 167.999 0 0 1 20 0 1 0 1
0 132 211 176 0 0 1 20 0 1 0 1
phys
0 120.7 211 176 0 0 1 20 0 1 0 1
0 120 211 175.002 0 0 1 20 0 1 0 1
0 120 111 175.002 0 0 1 20 0 1 0 1
phys
0 120.7 211 176 0 0 1 20 0 1 0 1
0 120 111 175.002 0 0 1 20 0 1 0 1
0 120.7 111 176 0 0 1 20 0 1 0 1
phys
0 132 211 176 0 0 1 20 0 1 0 1
0 120 211 167.999 0 0 1 20 0 1 0 1
0 120 211 175.002 0 0 1 20 0 1 0 1
phys
0 132 211 176 0 0 1 20 0 1 0 1
0 120 211 175.002 0 0 1 20 0 1 0 1
0 120.7 211 176 0 0 1 20 0 1 0 1
phys
0 120.7 111 176 0 0 1 20 0 1 0 1
0 120 111 175.002 0 0 1 20 0 1 0 1
0 120 111 167.999 0 0 1 20 0 1 0 1
phys
0 120.7 111 176 0 0 1 20 0 1 0 1
0 120 111 167.999 0 0 1 20 0 1 0 1
0 132 111 176 0 0 1 20 0 1 0 1
phys
0 120 111 175.002 0 0 1 20 0 1 0 1
0 120 211 175.002 0 0 1 20 0 1 0 1
0 120 211 167.999 0 0 1 20 0 1 0 1
phys
0 120 111 175.002 0 0 1 20 0 1 0 1
0 120 211 167.999 0 0 1 20 0 1 0 1
0 120 111 167.999 0 0 1 20 0 1 0 1
phys
0 132 111 176 0 0 1 20 0 1 0 1
0 132 211 176 0 0 1 20 0 1 0 1
0 120.7 211 176 0 0 1 20 0 1 0 1
phys
0 132 111 176 0 0 1 20 0 1 0 1
0 120.7 211 176 0 0 1 20 0 1 0 1
0 120.7 111 176 0 0 1 20 0 1 0 1
phys
0 -48 211 55.999 0 0 1 21 0 1 0 1
0 -48 211 63.001 0 0 1 21 0 1 0 1
0 -47.3 211 64 0 0 1 21 0 1 0 1
phys
0 -48 211 55.999 0 0 1 21 0 1 0 1
0 -47.3 211 64 0 0 1 21 0 1 0 1
0 -36 211 64 0 0 1 21 0 1 0 1
phys
0 -36 111 64 0 0 1 21 0 1 0 1
0 -47.3 111 64 0 0 1 21 0 1 0 1
0 -48 111 63.001 0 0 1 21 0 1 0 1
phys
0 -36 111 64 0 0 1 21 0 1 0 1
0 -48 111 63.001 0 0 1 21 0 1 0 1
0 -48 111 55.999 0 0 1 21 0 1 0 1
phys
0 -48 111 55.999 0 0 1 21 0 1 0 1
0 -48 111 63.001 0 0 1 21 0 1 0 1
0 -48 211 63.001 0 0 1 21 0 1 0 1
phys
0 -48 111 55.999 0 0 1 21 0 1 0 1
0 -48 211 63.001 0 0 1 21 0 1 0 1
0 -48 211 55.999 0 0 1 21 0 1 0 1
phys
0 -47.3 111 64 0 0 1 21 0 1 0 1
0 -36 111 64 0 0 1 21 0 1 0 1
0 -36 211 64 0 0 1 21 0 1 0 1
phys
0 -47.3 111 64 0 0 1 21 0 1 0 1
0 -36 211 64 0 0 1 21 0 1 0 1
0 -47.3 211 64 0 0 1 21 0 1 0 1
phys
0 -36 111 64 0 0 1 21 0 1 0 1
0 -48 111 55.999 0 0 1 21 0 1 0 1
0 -48 211 55.999 0 0 1 21 0 1 0 1
phys
0 -36 111 64 0 0 1 21 0 1 0 1
0 -48 211 55.999 0 0 1 21 0 1 0 1
0 -36 211 64 0 0 1 21 0 1 0 1
phys
0 -48 111 63.001 0 0 1 21 0 1 0 1
0 -47.3 111 64 0 0 1 21 0 1 0 1
0 -47.3 211 64 0 0 1 21 0 1 0 1
phys
0 -48 111 63.001 0 0 1 21 0 1 0 1
0 -47.3 211 64 0 0 1 21 0 1 0 1
0 -48 211 63.001 0 0 1 21 0 1 0 1
phys
0 -72 211 39.999 0 0 1 22 0 1 0 1
0 -72 211 47.001 0 0 1 22 0 1 0 1
0 -71.3 211 48 0 0 1 22 0 1 0 1
phys
0 -72 211 39.999 0 0 1 22 0 1 0 1
0 -71.3 211 48 0 0 1 22 0 1 0 1
0 -60 211 48 0 0 1 22 0 1 0 1
phys
0 -60 111 48 0 0 1 22 0 1 0 1
0 -71.3 111 48 0 0 1 22 0 1 0 1
0 -72 111 47.001 0 0 1 22 0 1 0 1
phys
0 -60 111 48 0 0 1 22 0 1 0 1
0 -72 111 47.001 0 0 1 22 0 1 0 1
0 -72 111 39.999 0 0 1 22 0 1 0 1
phys
0 -72 111 39.999 0 0 1 22 0 1 0 1
0 -72 111 47.001 0 0 1 22 0 1 0 1
0 -72 211 47.001 0 0 1 22 0 1 0 1
phys
0 -72 111 39.999 0 0 1 22 0 1 0 1
0 -72 211 47.001 0 0 1 22 0 1 0 1
0 -72 211 39.999 0 0 1 22 0 1 0 1
phys
0 -71.3 111 48 0 0 1 22 0 1 0 1
0 -60 111 48 0 0 1 22 0 1 0 1
0 -60 211 48 0 0 1 22 0 1 0 1
phys
0 -71.3 111 48 0 0 1 22 0 1 0 1
0 -60 211 48 0 0 1 22 0 1 0 1
0 -71.3 211 48 0 0 1 22 0 1 0 1
phys
0 -60 111 48 0 0 1 22 0 1 0 1
0 -72 111 39.999 0 0 1 22 0 1 0 1
0 -72 211 39.999 0 0 1 22 0 1 0 1
phys
0 -60 111 48 0 0 1 22 0 1 0 1
0 -72 211 39.999 0 0 1 22 0 1 0 1
0 -60 211 48 0 0 1 22 0 1 0 1
phys
0 -72 111 47.001 0 0 1 22 0 1 0 1
0 -71.3 111 48 0 0 1 22 0 1 0 1
0 -71.3 211 48 0 0 1 22 0 1 0 1
phys
0 -72 111 47.001 0 0 1 22 0 1 0 1
0 -71.3 211 48 0 0 1 22 0 1 0 1
0 -72 211 47.001 0 0 1 22 0 1 0 1
phys
0 -120 111 15.002 0 0 1 23 0 1 0 1
0 -119.3 111 16 0 0 1 23 0 1 0 1
0 -119.3 211 16 0 0 1 23 0 1 0 1
phys
0 -120 111 15.002 0 0 1 23 0 1 0 1
0 -119.3 211 16 0 0 1 23 0 1 0 1
0 -120 211 15.002 0 0 1 23 0 1 0 1
phys
0 -120 211 7.999 0 0 1 23 0 1 0 1
0 -120 211 15.002 0 0 1 23 0 1 0 1
0 -119.3 211 16 0 0 1 23 0 1 0 1
phys
0 -120 211 7.999 0 0 1 23 0 1 0 1
0 -119.3 211 16 0 0 1 23 0 1 0 1
0 -108 211 16 0 0 1 23 0 1 0 1
phys
0 -108 111 16 0 0 1 23 0 1 0 1
0 -119.3 111 16 0 0 1 23 0 1 0 1
0 -120 111 15.002 0 0 1 23 0 1 0 1
phys
0 -108 111 16 0 0 1 23 0 1 0 1
0 -120 111 15.002 0 0 1 23 0 1 0 1
0 -120 111 7.999 0 0 1 23 0 1 0 1
phys
0 -120 111 7.999 0 0 1 23 0 1 0 1
0 -120 111 15.002 0 0 1 23 0 1 0 1
0 -120 211 15.002 0 0 1 23 0 1 0 1
phys
0 -120 111 7.999 0 0 1 23 0 1 0 1
0 -120 211 15.002 0 0 1 23 0 1 0 1
0 -120 211 7.999 0 0 1 23 0 1 0 1
phys
0 -108 211 16 0 0 1 23 0 1 0 1
0 -119.3 211 16 0 0 1 23 0 1 0 1
0 -119.3 111 16 0 0 1 23 0 1 0 1
phys
0 -108 211 16 0 0 1 23 0 1 0 1
0 -119.3 111 16 0 0 1 23 0 1 0 1
0 -108 111 16 0 0 1 23 0 1 0 1
phys
0 -108 111 16 0 0 1 23 0 1 0 1
0 -120 111 7.999 0 0 1 23 0 1 0 1
0 -120 211 7.999 0 0 1 23 0 1 0 1
phys
0 -108 111 16 0 0 1 23 0 1 0 1
0 -120 211 7.999 0 0 1 23 0 1 0 1
0 -108 211 16 0 0 1 23 0 1 0 1
phys
0 -48 111 56 0 0 1 24 0 1 0 1
0 -48 211 56 0 0 1 24 0 1 0 1
0 -59.3 211 56 0 0 1 24 0 1 0 1
phys
0 -48 111 56 0 0 1 24 0 1 0 1
0 -59.3 211 56 0 0 1 24 0 1 0 1
0 -59.3 111 56 0 0 1 24 0 1 0 1
phys
0 -60 211 47.999 0 0 1 24 0 1 0 1
0 -48 211 56 0 0 1 24 0 1 0 1
0 -48 111 56 0 0 1 24 0 1 0 1
phys
0 -60 211 47.999 0 0 1 24 0 1 0 1
0 -48 111 56 0 0 1 24 0 1 0 1
0 -60 111 47.999 0 0 1 24 0 1 0 1
phys
0 -59.3 111 56 0 0 1 24 0 1 0 1
0 -59.3 211 56 0 0 1 24 0 1 0 1
0 -60 211 55.001 0 0 1 24 0 1 0 1
phys
0 -59.3 111 56 0 0 1 24 0 1 0 1
0 -60 211 55.001 0 0 1 24 0 1 0 1
0 -60 111 55.001 0 0 1 24 0 1 0 1
phys
0 -59.3 211 56 0 0 1 24 0 1 0 1
0 -48 211 56 0 0 1 24 0 1 0 1
0 -60 211 47.999 0 0 1 24 0 1 0 1
phys
0 -59.3 211 56 0 0 1 24 0 1 0 1
0 -60 211 47.999 0 0 1 24 0 1 0 1
0 -60 211 55.001 0 0 1 24 0 1 0 1
phys
0 -48 111 56 0 0 1 24 0 1 0 1
0 -59.3 111 56 0 0 1 24 0 1 0 1
0 -60 111 55.001 0 0 1 24 0 1 0 1
phys
0 -48 111 56 0 0 1 24 0 1 0 1
0 -60 111 55.001 0 0 1 24 0 1 0 1
0 -60 111 47.999 0 0 1 24 0 1 0 1
phys
0 -60 111 55.001 0 0 1 24 0 1 0 1
0 -60 211 55.001 0 0 1 24 0 1 0 1
0 -60 211 47.999 0 0 1 24 0 1 0 1
phys
0 -60 111 55.001 0 0 1 24 0 1 0 1
0 -60 211 47.999 0 0 1 24 0 1 0 1
0 -60 111 47.999 0 0 1 24 0 1 0 1
phys
0 -108 211 15.999 0 0 1 25 0 1 0 1
0 -108 211 23.002 0 0 1 25 0 1 0 1
0 -107.3 211 24 0 0 1 25 0 1 0 1
phys
0 -108 211 15.999 0 0 1 25 0 1 0 1
0 -107.3 211 24 0 0 1 25 0 1 0 1
0 -96 211 24 0 0 1 25 0 1 0 1
phys
0 -96 111 24 0 0 1 25 0 1 0 1
0 -107.3 111 24 0 0 1 25 0 1 0 1
0 -108 111 23.002 0 0 1 25 0 1 0 1
phys
0 -96 111 24 0 0 1 25 0 1 0 1
0 -108 111 23.002 0 0 1 25 0 1 0 1
0 -108 111 15.999 0 0 1 25 0 1 0 1
phys
0 -108 111 15.999 0 0 1 25 0 1 0 1
0 -108 111 23.002 0 0 1 25 0 1 0 1
0 -108 211 23.002 0 0 1 25 0 1 0 1
phys
0 -108 111 15.999 0 0 1 25 0 1 0 1
0 -108 211 23.002 0 0 1 25 0 1 0 1
0 -108 211 15.999 0 0 1 25 0 1 0 1
phys
0 -107.3 111 24 0 0 1 25 0 1 0 1
0 -96 111 24 0 0 1 25 0 1 0 1
0 -96 211 24 0 0 1 25 0 1 0 1
phys
0 -107.3 111 24 0 0 1 25 0 1 0 1
0 -96 211 24 0 0 1 25 0 1 0 1
0 -107.3 211 24 0 0 1 25 0 1 0 1
phys
0 -96 111 24 0 0 1 25 0 1 0 1
0 -108 111 15.999 0 0 1 25 0 1 0 1
0 -108 211 15.999 0 0 1 25 0 1 0 1
phys
0 -96 111 24 0 0 1 25 0 1 0 1
0 -108 211 15.999 0 0 1 25 0 1 0 1
0 -96 211 24 0 0 1 25 0 1 0 1
phys
0 -108 111 23.002 0 0 1 25 0 1 0 1
0 -107.3 111 24 0 0 1 25 0 1 0 1
0 -107.3 211 24 0 0 1 25 0 1 0 1
phys
0 -108 111 23.002 0 0 1 25 0 1 0 1
0 -107.3 211 24 0 0 1 25 0 1 0 1
0 -108 211 23.002 0 0 1 25 0 1 0 1
phys
0 -288 199 216 0 0 1 26 0 1 0 1
0 -288 199 212 0 0 1 26 0 1 0 1
0 -296 199 212 0 0 1 26 0 1 0 1
phys
0 -288 199 216 0 0 1 26 0 1 0 1
0 -296 199 212 0 0 1 26 0 1 0 1
0 -296 199 216 0 0 1 26 0 1 0 1
phys
0 -288 119 212 0 0 1 26 0 1 0 1
0 -288 119 216 0 0 1 26 0 1 0 1
0 -296 119 216 0 0 1 26 0 1 0 1
phys
0 -288 119 212 0 0 1 26 0 1 0 1
0 -296 119 216 0 0 1 26 0 1 0 1
0 -296 119 212 0 0 1 26 0 1 0 1
phys
0 -296 119 212 0 0 1 26 0 1 0 1
0 -296 119 216 0 0 1 26 0 1 0 1
0 -296 199 216 0 0 1 26 0 1 0 1
phys
0 -296 119 212 0 0 1 26 0 1 0 1
0 -296 199 216 0 0 1 26 0 1 0 1
0 -296 199 212 0 0 1 26 0 1 0 1
phys
0 -288 119 216 0 0 1 26 0 1 0 1
0 -288 119 212 0 0 1 26 0 1 0 1
0 -288 199 212 0 0 1 26 0 1 0 1
phys
0 -288 119 216 0 0 1 26 0 1 0 1
0 -288 199 212 0 0 1 26 0 1 0 1
0 -288 199 216 0 0 1 26 0 1 0 1
phys
0 -288 119 212 0 0 1 26 0 1 0 1
0 -296 119 212 0 0 1 26 0 1 0 1
0 -296 199 212 0 0 1 26 0 1 0 1
phys
0 -288 119 212 0 0 1 26 0 1 0 1
0 -296 199 212 0 0 1 26 0 1 0 1
0 -288 199 212 0 0 1 26 0 1 0 1
phys
0 -296 119 216 0 0 1 26 0 1 0 1
0 -288 119 216 0 0 1 26 0 1 0 1
0 -288 199 216 0 0 1 26 0 1 0 1
phys
0 -296 119 216 0 0 1 26 0 1 0 1
0 -288 199 216 0 0 1 26 0 1 0 1
0 -296 199 216 0 0 1 26 0 1 0 1
phys
0 36 111 112 0 0 1 27 0 1 0 1
0 36 211 112 0 0 1 27 0 1 0 1
0 24.7 211 112 0 0 1 27 0 1 0 1
phys
0 36 111 112 0 0 1 27 0 1 0 1
0 24.7 211 112 0 0 1 27 0 1 0 1
0 24.7 111 112 0 0 1 27 0 1 0 1
phys
0 24 211 103.999 0 0 1 27 0 1 0 1
0 36 211 112 0 0 1 27 0 1 0 1
0 36 111 112 0 0 1 27 0 1 0 1
phys
0 24 211 103.999 0 0 1 27 0 1 0 1
0 36 111 112 0 0 1 27 0 1 0 1
0 24 111 103.999 0 0 1 27 0 1 0 1
phys
0 24.7 111 112 0 0 1 27 0 1 0 1
0 24.7 211 112 0 0 1 27 0 1 0 1
0 24 211 111.001 0 0 1 27 0 1 0 1
phys
0 24.7 111 112 0 0 1 27 0 1 0 1
0 24 211 111.001 0 0 1 27 0 1 0 1
0 24 111 111.001 0 0 1 27 0 1 0 1
phys
0 24.7 211 112 0 0 1 27 0 1 0 1
0 36 211 112 0 0 1 27 0 1 0 1
0 24 211 103.999 0 0 1 27 0 1 0 1
phys
0 24.7 211 112 0 0 1 27 0 1 0 1
0 24 211 103.999 0 0 1 27 0 1 0 1
0 24 211 111.001 0 0 1 27 0 1 0 1
phys
0 36 111 112 0 0 1 27 0 1 0 1
0 24.7 111 112 0 0 1 27 0 1 0 1
0 24 111 111.001 0 0 1 27 0 1 0 1
phys
0 36 111 112 0 0 1 27 0 1 0 1
0 24 111 111.001 0 0 1 27 0 1 0 1
0 24 111 103.999 0 0 1 27 0 1 0 1
phys
0 24 111 111.001 0 0 1 27 0 1 0 1
0 24 211 111.001 0 0 1 27 0 1 0 1
0 24 211 103.999 0 0 1 27 0 1 0 1
phys
0 24 111 111.001 0 0 1 27 0 1 0 1
0 24 211 103.999 0 0 1 27 0 1 0 1
0 24 111 103.999 0 0 1 27 0 1 0 1
phys
0 -150 -214 284 0 0 1 28 0 1 0 1
0 -246 -214 284 0 0 1 28 0 1 0 1
0 -250 -214 288 0 0 1 28 0 1 0 1
phys
0 -150 -214 284 0 0 1 28 0 1 0 1
0 -250 -214 288 0 0 1 28 0 1 0 1
0 -146 -214 288 0 0 1 28 0 1 0 1
phys
0 -146 -223 288 0 0 1 28 0 1 0 1
0 -250 -223 288 0 0 1 28 0 1 0 1
0 -246 -223 284 0 0 1 28 0 1 0 1
phys
0 -146 -223 288 0 0 1 28 0 1 0 1
0 -246 -223 284 0 0 1 28 0 1 0 1
0 -150 -223 284 0 0 1 28 0 1 0 1
phys
0 -150 -223 284 0 0 1 28 0 1 0 1
0 -246 -223 284 0 0 1 28 0 1 0 1
0 -246 -214 284 0 0 1 28 0 1 0 1
phys
0 -150 -223 284 0 0 1 28 0 1 0 1
0 -246 -214 284 0 0 1 28 0 1 0 1
0 -150 -214 284 0 0 1 28 0 1 0 1
phys
0 -250 -223 288 0 0 1 28 0 1 0 1
0 -146 -223 288 0 0 1 28 0 1 0 1
0 -146 -214 288 0 0 1 28 0 1 0 1
phys
0 -250 -223 288 0 0 1 28 0 1 0 1
0 -146 -214 288 0 0 1 28 0 1 0 1
0 -250 -214 288 0 0 1 28 0 1 0 1
phys
0 -146 -223 288 0 0 1 28 0 1 0 1
0 -150 -223 284 0 0 1 28 0 1 0 1
0 -150 -214 284 0 0 1 28 0 1 0 1
phys
0 -146 -223 288 0 0 1 28 0 1 0 1
0 -150 -214 284 0 0 1 28 0 1 0 1
0 -146 -214 288 0 0 1 28 0 1 0 1
phys
0 -246 -223 284 0 0 1 28 0 1 0 1
0 -250 -223 288 0 0 1 28 0 1 0 1
0 -250 -214 288 0 0 1 28 0 1 0 1
phys
0 -246 -223 284 0 0 1 28 0 1 0 1
0 -250 -214 288 0 0 1 28 0 1 0 1
0 -246 -214 284 0 0 1 28 0 1 0 1
phys
0 -84 211 31.999 0 0 1 29 0 1 0 1
0 -84 211 39.001 0 0 1 29 0 1 0 1
0 -83.3 211 40 0 0 1 29 0 1 0 1
phys
0 -84 211 31.999 0 0 1 29 0 1 0 1
0 -83.3 211 40 0 0 1 29 0 1 0 1
0 -72 211 40 0 0 1 29 0 1 0 1
phys
0 -72 111 40 0 0 1 29 0 1 0 1
0 -83.3 111 40 0 0 1 29 0 1 0 1
0 -84 111 39.001 0 0 1 29 0 1 0 1
phys
0 -72 111 40 0 0 1 29 0 1 0 1
0 -84 111 39.001 0 0 1 29 0 1 0 1
0 -84 111 31.999 0 0 1 29 0 1 0 1
phys
0 -84 111 31.999 0 0 1 29 0 1 0 1
0 -84 111 39.001 0 0 1 29 0 1 0 1
0 -84 211 39.001 0 0 1 29 0 1 0 1
phys
0 -84 111 31.999 0 0 1 29 0 1 0 1
0 -84 211 39.001 0 0 1 29 0 1 0 1
0 -84 211 31.999 0 0 1 29 0 1 0 1
phys
0 -83.3 111 40 0 0 1 29 0 1 0 1
0 -72 111 40 0 0 1 29 0 1 0 1
0 -72 211 40 0 0 1 29 0 1 0 1
phys
0 -83.3 111 40 0 0 1 29 0 1 0 1
0 -72 211 40 0 0 1 29 0 1 0 1
0 -83.3 211 40 0 0 1 29 0 1 0 1
phys
0 -72 111 40 0 0 1 29 0 1 0 1
0 -84 111 31.999 0 0 1 29 0 1 0 1
0 -84 211 31.999 0 0 1 29 0 1 0 1
phys
0 -72 111 40 0 0 1 29 0 1 0 1
0 -84 211 31.999 0 0 1 29 0 1 0 1
0 -72 211 40 0 0 1 29 0 1 0 1
phys
0 -84 111 39.001 0 0 1 29 0 1 0 1
0 -83.3 111 40 0 0 1 29 0 1 0 1
0 -83.3 211 40 0 0 1 29 0 1 0 1
phys
0 -84 111 39.001 0 0 1 29 0 1 0 1
0 -83.3 211 40 0 0 1 29 0 1 0 1
0 -84 211 39.001 0 0 1 29 0 1 0 1
phys
0 -142 211 317 0 0 1 30 0 1 0 1
0 -142 221 317 0 0 1 30 0 1 0 1
0 -142 221 1 0 0 1 30 0 1 0 1
phys
0 -142 211 317 0 0 1 30 0 1 0 1
0 -142 221 1 0 0 1 30 0 1 0 1
0 -142 211 1 0 0 1 30 0 1 0 1
phys
0 -132 211 1 0 0 1 30 0 1 0 1
0 -132 221 1 0 0 1 30 0 1 0 1
0 -132 221 317 0 0 1 30 0 1 0 1
phys
0 -132 211 1 0 0 1 30 0 1 0 1
0 -132 221 317 0 0 1 30 0 1 0 1
0 -132 211 317 0 0 1 30 0 1 0 1
phys
0 -142 211 1 0 0 1 30 0 1 0 1
0 -142 221 1 0 0 1 30 0 1 0 1
0 -132 221 1 0 0 1 30 0 1 0 1
phys
0 -142 211 1 0 0 1 30 0 1 0 1
0 -132 221 1 0 0 1 30 0 1 0 1
0 -132 211 1 0 0 1 30 0 1 0 1
phys
0 -132 211 317 0 0 1 30 0 1 0 1
0 -132 221 317 0 0 1 30 0 1 0 1
0 -142 221 317 0 0 1 30 0 1 0 1
phys
0 -132 211 317 0 0 1 30 0 1 0 1
0 -142 221 317 0 0 1 30 0 1 0 1
0 -142 211 317 0 0 1 30 0 1 0 1
phys
0 -132 221 317 0 0 1 30 0 1 0 1
0 -132 221 1 0 0 1 30 0 1 0 1
0 -142 221 1 0 0 1 30 0 1 0 1
phys
0 -132 221 317 0 0 1 30 0 1 0 1
0 -142 221 1 0 0 1 30 0 1 0 1
0 -142 221 317 0 0 1 30 0 1 0 1
phys
0 -132 211 1 0 0 1 30 0 1 0 1
0 -132 211 317 0 0 1 30 0 1 0 1
0 -142 211 317 0 0 1 30 0 1 0 1
phys
0 -132 211 1 0 0 1 30 0 1 0 1
0 -142 211 317 0 0 1 30 0 1 0 1
0 -142 211 1 0 0 1 30 0 1 0 1
phys
0 -246 -214 284.0014 0 0 1 31 0 1 0 1
0 -246 -214 176 0 0 1 31 0 1 0 1
0 -250 -214 176 0 0 1 31 0 1 0 1
phys
0 -246 -214 284.0014 0 0 1 31 0 1 0 1
0 -250 -214 176 0 0 1 31 0 1 0 1
0 -250 -214 287.986 0 0 1 31 0 1 0 1
phys
0 -246 -223 176 0 0 1 31 0 1 0 1
0 -246 -223 284.0014 0 0 1 31 0 1 0 1
0 -250 -223 287.986 0 0 1 31 0 1 0 1
phys
0 -246 -223 176 0 0 1 31 0 1 0 1
0 -250 -223 287.986 0 0 1 31 0 1 0 1
0 -250 -223 176 0 0 1 31 0 1 0 1
phys
0 -250 -223 176 0 0 1 31 0 1 0 1
0 -250 -223 287.986 0 0 1 31 0 1 0 1
0 -250 -214 287.986 0 0 1 31 0 1 0 1
phys
0 -250 -223 176 0 0 1 31 0 1 0 1
0 -250 -214 287.986 0 0 1 31 0 1 0 1
0 -250 -214 176 0 0 1 31 0 1 0 1
phys
0 -246 -223 284.0014 0 0 1 31 0 1 0 1
0 -246 -223 176 0 0 1 31 0 1 0 1
0 -246 -214 176 0 0 1 31 0 1 0 1
phys
0 -246 -223 284.0014 0 0 1 31 0 1 0 1
0 -246 -214 176 0 0 1 31 0 1 0 1
0 -246 -214 284.0014 0 0 1 31 0 1 0 1
phys
0 -246 -223 176 0 0 1 31 0 1 0 1
0 -250 -223 176 0 0 1 31 0 1 0 1
0 -250 -214 176 0 0 1 31 0 1 0 1
phys
0 -246 -223 176 0 0 1 31 0 1 0 1
0 -250 -214 176 0 0 1 31 0 1 0 1
0 -246 -214 176 0 0 1 31 0 1 0 1
phys
0 -250 -223 287.986 0 0 1 31 0 1 0 1
0 -246 -223 284.0014 0 0 1 31 0 1 0 1
0 -246 -214 284.0014 0 0 1 31 0 1 0 1
phys
0 -250 -223 287.986 0 0 1 31 0 1 0 1
0 -246 -214 284.0014 0 0 1 31 0 1 0 1
0 -250 -214 287.986 0 0 1 31 0 1 0 1
end
