version 1
nodes
0 "root" -1
end
skeleton
time 0
0 0 0 0 0 0 0
end
triangles
pepsi2_arch_stairs01
0 72 111 135.999 -1 0 0 66.765625 8.218781 1 0 1
0 72 111 143.001 -1 0 0 66.765625 7.999969 1 0 1
0 72 211 143.001 -1 0 0 65.203125 7.999969 1 0 1
pepsi2_arch_stairs01
0 72 111 135.999 -1 0 0 66.765625 8.218781 1 0 1
0 72 211 143.001 -1 0 0 65.203125 7.999969 1 0 1
0 72 211 135.999 -1 0 0 65.203125 8.218781 1 0 1
pepsi2_arch_stairs01
0 72.7 111 144 0 0 1 66.765625 404.9625 1 0 1
0 84 111 144 0 0 1 66.765625 404.609375 1 0 1
0 84 211 144 0 0 1 65.203125 404.609375 1 0 1
pepsi2_arch_stairs01
0 72.7 111 144 0 0 1 66.765625 404.9625 1 0 1
0 84 211 144 0 0 1 65.203125 404.609375 1 0 1
0 72.7 211 144 0 0 1 65.203125 404.9625 1 0 1
pepsi2_arch_stairs01
0 72 111 143.001 -0.818962 0 0.573847 66.765625 238.016549 1 0 1
0 72.7 111 144 -0.818962 0 0.573847 66.765625 237.978428 1 0 1
0 72.7 211 144 -0.818962 0 0.573847 65.203125 237.978428 1 0 1
pepsi2_arch_stairs01
0 72 111 143.001 -0.818962 0 0.573847 66.765625 238.016549 1 0 1
0 72.7 211 144 -0.818962 0 0.573847 65.203125 237.978428 1 0 1
0 72 211 143.001 -0.818962 0 0.573847 65.203125 238.016549 1 0 1
de_nuke_nuke_beam_01
0 -146 -214 287.9948 0 1 0 -170.751953 2.039781 1 0 1
0 -146 -214 176 0 1 0 -170.751953 3.498047 1 0 1
0 -150 -214 176 0 1 0 -170.804036 3.498047 1 0 1
de_nuke_nuke_beam_01
0 -146 -214 287.9948 0 1 0 -170.751953 2.039781 1 0 1
0 -150 -214 176 0 1 0 -170.804036 3.498047 1 0 1
0 -150 -214 283.9948 0 1 0 -170.804036 2.091865 1 0 1
de_nuke_nuke_beam_01
0 -146 -223 176 0 -1 0 -170.751953 3.498047 1 0 1
0 -146 -223 287.9948 0 -1 0 -170.751953 2.039781 1 0 1
0 -150 -223 283.9948 0 -1 0 -170.804036 2.091865 1 0 1
de_nuke_nuke_beam_01
0 -146 -223 176 0 -1 0 -170.751953 3.498047 1 0 1
0 -150 -223 283.9948 0 -1 0 -170.804036 2.091865 1 0 1
0 -150 -223 176 0 -1 0 -170.804036 3.498047 1 0 1
de_nuke_nuke_beam_01
0 -150 -223 176 -1 0 0 -59.420573 3.498047 1 0 1
0 -150 -223 283.9948 -1 0 0 -59.420573 2.091865 1 0 1
0 -150 -214 283.9948 -1 0 0 -59.303385 2.091865 1 0 1
de_nuke_nuke_beam_01
0 -150 -223 176 -1 0 0 -59.420573 3.498047 1 0 1
0 -150 -214 283.9948 -1 0 0 -59.303385 2.091865 1 0 1
0 -150 -214 176 -1 0 0 -59.303385 3.498047 1 0 1
pepsi2_arch_stairs01
0 96 111 159 -1 0 0 66.765625 7 1 0 1
0 96 211 159 -1 0 0 65.203125 7 1 0 1
0 96 211 151.999 -1 0 0 65.203125 7.218781 1 0 1
pepsi2_arch_stairs01
0 96 111 159 -1 0 0 66.765625 7 1 0 1
0 96 211 151.999 -1 0 0 65.203125 7.218781 1 0 1
0 96 111 151.999 -1 0 0 66.765625 7.218781 1 0 1
pepsi2_arch_stairs01
0 108 111 160 0 0 1 66.765625 403.609375 1 0 1
0 108 211 160 0 0 1 65.203125 403.609375 1 0 1
0 96.7 211 160 0 0 1 65.203125 403.9625 1 0 1
pepsi2_arch_stairs01
0 108 111 160 0 0 1 66.765625 403.609375 1 0 1
0 96.7 211 160 0 0 1 65.203125 403.9625 1 0 1
0 96.7 111 160 0 0 1 66.765625 403.9625 1 0 1
pepsi2_arch_stairs01
0 96.7 111 160 -0.819232 0 0.573462 66.765625 237.947781 1 0 1
0 96.7 211 160 -0.819232 0 0.573462 65.203125 237.947781 1 0 1
0 96 211 159 -0.819232 0 0.573462 65.203125 237.985925 1 0 1
pepsi2_arch_stairs01
0 96.7 111 160 -0.819232 0 0.573462 66.765625 237.947781 1 0 1
0 96 211 159 -0.819232 0 0.573462 65.203125 237.985925 1 0 1
0 96 111 159 -0.819232 0 0.573462 66.765625 237.985925 1 0 1
concrete_concretewall001
0 295 224 168 0 1 0 -99.236328 -2 1 0 1
0 295 224 158 0 1 0 -99.236328 -2.15625 1 0 1
0 48.2 224 158 0 1 0 -101.164453 -2.15625 1 0 1
concrete_concretewall001
0 295 224 168 0 1 0 -99.236328 -2 1 0 1
0 48.2 224 158 0 1 0 -101.164453 -2.15625 1 0 1
0 63.6 224 168 0 1 0 -101.044141 -2 1 0 1
concrete_concretewall001
0 295 221 168 1 0 0 32.787109 -2 1 0 1
0 295 221 158 1 0 0 32.787109 -2.15625 1 0 1
0 295 224 158 1 0 0 32.763672 -2.15625 1 0 1
concrete_concretewall001
0 295 221 168 1 0 0 32.787109 -2 1 0 1
0 295 224 158 1 0 0 32.763672 -2.15625 1 0 1
0 295 224 168 1 0 0 32.763672 -2 1 0 1
concrete_concretewall001
0 295 221 158 0 0 -1 99.091797 -63.390625 1 0 1
0 48.2 221 158 0 0 -1 101.019922 -63.390625 1 0 1
0 48.2 224 158 0 0 -1 101.019922 -63.34375 1 0 1
concrete_concretewall001
0 295 221 158 0 0 -1 99.091797 -63.390625 1 0 1
0 48.2 224 158 0 0 -1 101.019922 -63.34375 1 0 1
0 295 224 158 0 0 -1 99.091797 -63.34375 1 0 1
concrete_concretewall001
0 63.6 221 168 0 0 1 100.899609 -63.390625 1 0 1
0 295 221 168 0 0 1 99.091797 -63.390625 1 0 1
0 295 224 168 0 0 1 99.091797 -63.34375 1 0 1
concrete_concretewall001
0 63.6 221 168 0 0 1 100.899609 -63.390625 1 0 1
0 295 224 168 0 0 1 99.091797 -63.34375 1 0 1
0 63.6 224 168 0 0 1 100.899609 -63.34375 1 0 1
concrete_concretewall001
0 48.2 221 158 -0.544605 0 0.838692 85.040563 -63.390625 1 0 1
0 63.6 221 168 -0.544605 0 0.838692 84.89711 -63.390625 1 0 1
0 63.6 224 168 -0.544605 0 0.838692 84.89711 -63.34375 1 0 1
concrete_concretewall001
0 48.2 221 158 -0.544605 0 0.838692 85.040563 -63.390625 1 0 1
0 63.6 224 168 -0.544605 0 0.838692 84.89711 -63.34375 1 0 1
0 48.2 224 158 -0.544605 0 0.838692 85.040563 -63.34375 1 0 1
pepsi2_arch_stairs01
0 60.7 211 136 -0.818962 0 0.573847 65.203125 237.957423 1 0 1
0 60 211 135.001 -0.818962 0 0.573847 65.203125 237.995543 1 0 1
0 60 111 135.001 -0.818962 0 0.573847 66.765625 237.995543 1 0 1
pepsi2_arch_stairs01
0 60.7 211 136 -0.818962 0 0.573847 65.203125 237.957423 1 0 1
0 60 111 135.001 -0.818962 0 0.573847 66.765625 237.995543 1 0 1
0 60.7 111 136 -0.818962 0 0.573847 66.765625 237.957423 1 0 1
pepsi2_arch_stairs01
0 60 111 135.001 -1 0 0 66.765625 7.999969 1 0 1
0 60 211 135.001 -1 0 0 65.203125 7.999969 1 0 1
0 60 211 127.999 -1 0 0 65.203125 8.218781 1 0 1
pepsi2_arch_stairs01
0 60 111 135.001 -1 0 0 66.765625 7.999969 1 0 1
0 60 211 127.999 -1 0 0 65.203125 8.218781 1 0 1
0 60 111 127.999 -1 0 0 66.765625 8.218781 1 0 1
pepsi2_arch_stairs01
0 72 111 136 0 0 1 66.765625 404.609375 1 0 1
0 72 211 136 0 0 1 65.203125 404.609375 1 0 1
0 60.7 211 136 0 0 1 65.203125 404.9625 1 0 1
pepsi2_arch_stairs01
0 72 111 136 0 0 1 66.765625 404.609375 1 0 1
0 60.7 211 136 0 0 1 65.203125 404.9625 1 0 1
0 60.7 111 136 0 0 1 66.765625 404.9625 1 0 1
concrete_concretewall001
0 29 101 202 0 0 1 -168.559245 -109.001302 1 0 1
0 132 101 202 0 0 1 -167.218099 -109.001302 1 0 1
0 132 111 202 0 0 1 -167.218099 -108.740885 1 0 1
concrete_concretewall001
0 29 101 202 0 0 1 -168.559245 -109.001302 1 0 1
0 132 111 202 0 0 1 -167.218099 -108.740885 1 0 1
0 29 111 202 0 0 1 -168.559245 -108.740885 1 0 1
gmod_tower_cafe_cafe_brick
0 132 111 176 0 1 0 99.867188 0.183594 1 0 1
0 29 111 176 0 1 0 100.671875 0.183594 1 0 1
0 29 111 202 0 1 0 100.671875 0.386719 1 0 1
gmod_tower_cafe_cafe_brick
0 132 111 176 0 1 0 99.867188 0.183594 1 0 1
0 29 111 202 0 1 0 100.671875 0.386719 1 0 1
0 132 111 202 0 1 0 99.867188 0.386719 1 0 1
gmod_tower_cafe_cafe_brick
0 132 101 202 0 -1 0 99.867188 0.386719 1 0 1
0 29 101 202 0 -1 0 100.671875 0.386719 1 0 1
0 29 101 176 0 -1 0 100.671875 0.183594 1 0 1
gmod_tower_cafe_cafe_brick
0 132 101 202 0 -1 0 99.867188 0.386719 1 0 1
0 29 101 176 0 -1 0 100.671875 0.183594 1 0 1
0 132 101 176 0 -1 0 99.867188 0.183594 1 0 1
gmod_tower_cafe_cafe_brick
0 132 101 176 1 0 0 -33.210938 0.183594 1 0 1
0 132 111 176 1 0 0 -33.132812 0.183594 1 0 1
0 132 111 202 1 0 0 -33.132812 0.386719 1 0 1
gmod_tower_cafe_cafe_brick
0 132 101 176 1 0 0 -33.210938 0.183594 1 0 1
0 132 111 202 1 0 0 -33.132812 0.386719 1 0 1
0 132 101 202 1 0 0 -33.210938 0.386719 1 0 1
pepsi2_arch_stairs01
0 -36 111 63.999 -1 0 0 66.765625 10.218781 1 0 1
0 -36 111 71.001 -1 0 0 66.765625 9.999969 1 0 1
0 -36 211 71.001 -1 0 0 65.203125 9.999969 1 0 1
pepsi2_arch_stairs01
0 -36 111 63.999 -1 0 0 66.765625 10.218781 1 0 1
0 -36 211 71.001 -1 0 0 65.203125 9.999969 1 0 1
0 -36 211 63.999 -1 0 0 65.203125 10.218781 1 0 1
pepsi2_arch_stairs01
0 -35.3 111 72 0 0 1 66.765625 407.9625 1 0 1
0 -24 111 72 0 0 1 66.765625 407.609375 1 0 1
0 -24 211 72 0 0 1 65.203125 407.609375 1 0 1
pepsi2_arch_stairs01
0 -35.3 111 72 0 0 1 66.765625 407.9625 1 0 1
0 -24 211 72 0 0 1 65.203125 407.609375 1 0 1
0 -35.3 211 72 0 0 1 65.203125 407.9625 1 0 1
pepsi2_arch_stairs01
0 -36 111 71.001 -0.818962 0 0.573847 66.765625 242.013274 1 0 1
0 -35.3 111 72 -0.818962 0 0.573847 66.765625 241.975153 1 0 1
0 -35.3 211 72 -0.818962 0 0.573847 65.203125 241.975153 1 0 1
pepsi2_arch_stairs01
0 -36 111 71.001 -0.818962 0 0.573847 66.765625 242.013274 1 0 1
0 -35.3 211 72 -0.818962 0 0.573847 65.203125 241.975153 1 0 1
0 -36 211 71.001 -0.818962 0 0.573847 65.203125 242.013274 1 0 1
pepsi2_arch_stairs01
0 48 111 119.999 -1 0 0 66.765625 8.218781 1 0 1
0 48 111 126.999 -1 0 0 66.765625 8.000031 1 0 1
0 48 211 126.999 -1 0 0 65.203125 8.000031 1 0 1
pepsi2_arch_stairs01
0 48 111 119.999 -1 0 0 66.765625 8.218781 1 0 1
0 48 211 126.999 -1 0 0 65.203125 8.000031 1 0 1
0 48 211 119.999 -1 0 0 65.203125 8.218781 1 0 1
pepsi2_arch_stairs01
0 48.7 111 128 0 0 1 66.765625 404.9625 1 0 1
0 60 111 128 0 0 1 66.765625 404.609375 1 0 1
0 60 211 128 0 0 1 65.203125 404.609375 1 0 1
pepsi2_arch_stairs01
0 48.7 111 128 0 0 1 66.765625 404.9625 1 0 1
0 60 211 128 0 0 1 65.203125 404.609375 1 0 1
0 48.7 211 128 0 0 1 65.203125 404.9625 1 0 1
pepsi2_arch_stairs01
0 48 111 126.999 -0.819501 0 0.573078 66.765625 238.986563 1 0 1
0 48.7 111 128 -0.819501 0 0.573078 66.765625 238.948393 1 0 1
0 48.7 211 128 -0.819501 0 0.573078 65.203125 238.948393 1 0 1
pepsi2_arch_stairs01
0 48 111 126.999 -0.819501 0 0.573078 66.765625 238.986563 1 0 1
0 48.7 211 128 -0.819501 0 0.573078 65.203125 238.948393 1 0 1
0 48 211 126.999 -0.819501 0 0.573078 65.203125 238.986563 1 0 1
pepsi2_arch_stairs01
0 36 111 111.999 -1 0 0 66.765625 9.218781 1 0 1
0 36 111 119.001 -1 0 0 66.765625 8.999969 1 0 1
0 36 211 119.001 -1 0 0 65.203125 8.999969 1 0 1
pepsi2_arch_stairs01
0 36 111 111.999 -1 0 0 66.765625 9.218781 1 0 1
0 36 211 119.001 -1 0 0 65.203125 8.999969 1 0 1
0 36 211 111.999 -1 0 0 65.203125 9.218781 1 0 1
pepsi2_arch_stairs01
0 36.7 111 120 0 0 1 66.765625 405.9625 1 0 1
0 48 111 120 0 0 1 66.765625 405.609375 1 0 1
0 48 211 120 0 0 1 65.203125 405.609375 1 0 1
pepsi2_arch_stairs01
0 36.7 111 120 0 0 1 66.765625 405.9625 1 0 1
0 48 211 120 0 0 1 65.203125 405.609375 1 0 1
0 36.7 211 120 0 0 1 65.203125 405.9625 1 0 1
pepsi2_arch_stairs01
0 36 111 119.001 -0.818962 0 0.573847 66.765625 239.015724 1 0 1
0 36.7 111 120 -0.818962 0 0.573847 66.765625 238.977602 1 0 1
0 36.7 211 120 -0.818962 0 0.573847 65.203125 238.977602 1 0 1
pepsi2_arch_stairs01
0 36 111 119.001 -0.818962 0 0.573847 66.765625 239.015724 1 0 1
0 36.7 211 120 -0.818962 0 0.573847 65.203125 238.977602 1 0 1
0 36 211 119.001 -0.818962 0 0.573847 65.203125 239.015724 1 0 1
concrete_concretewall001
0 -296 111 216 -1 0 0 33.833984 -1.25 1 0 1
0 -296 119 216 -1 0 0 33.771484 -1.25 1 0 1
0 -296 119 176 -1 0 0 33.771484 -1.875 1 0 1
concrete_concretewall001
0 -296 111 216 -1 0 0 33.833984 -1.25 1 0 1
0 -296 119 176 -1 0 0 33.771484 -1.875 1 0 1
0 -296 111 176 -1 0 0 33.833984 -1.875 1 0 1
concrete_concretewall001
0 -288 111 176 1 0 0 -33.353516 -1.875 1 0 1
0 -288 119 176 1 0 0 -33.291016 -1.875 1 0 1
0 -288 119 216 1 0 0 -33.291016 -1.25 1 0 1
concrete_concretewall001
0 -288 111 176 1 0 0 -33.353516 -1.875 1 0 1
0 -288 119 216 1 0 0 -33.291016 -1.25 1 0 1
0 -288 111 216 1 0 0 -33.353516 -1.25 1 0 1
concrete_concretewall001
0 -288 111 216 0 0 1 -33.353516 207.75 1 0 1
0 -288 119 216 0 0 1 -33.291016 207.75 1 0 1
0 -296 119 216 0 0 1 -33.291016 207.875 1 0 1
concrete_concretewall001
0 -288 111 216 0 0 1 -33.353516 207.75 1 0 1
0 -296 119 216 0 0 1 -33.291016 207.875 1 0 1
0 -296 111 216 0 0 1 -33.353516 207.875 1 0 1
concrete_concretewall001
0 -288 119 216 0 1 0 103.708984 -1.25 1 0 1
0 -288 119 176 0 1 0 103.708984 -1.875 1 0 1
0 -296 119 176 0 1 0 103.771484 -1.875 1 0 1
concrete_concretewall001
0 -288 119 216 0 1 0 103.708984 -1.25 1 0 1
0 -296 119 176 0 1 0 103.771484 -1.875 1 0 1
0 -296 119 216 0 1 0 103.771484 -1.25 1 0 1
pepsi2_arch_stairs01
0 84 111 143.999 -1 0 0 66.765625 8.218781 1 0 1
0 84 111 151.002 -1 0 0 66.765625 7.999937 1 0 1
0 84 211 151.002 -1 0 0 65.203125 7.999937 1 0 1
pepsi2_arch_stairs01
0 84 111 143.999 -1 0 0 66.765625 8.218781 1 0 1
0 84 211 151.002 -1 0 0 65.203125 7.999937 1 0 1
0 84 211 143.999 -1 0 0 65.203125 8.218781 1 0 1
pepsi2_arch_stairs01
0 84.7 111 152 0 0 1 66.765625 403.9625 1 0 1
0 96 111 152 0 0 1 66.765625 403.609375 1 0 1
0 96 211 152 0 0 1 65.203125 403.609375 1 0 1
pepsi2_arch_stairs01
0 84.7 111 152 0 0 1 66.765625 403.9625 1 0 1
0 96 211 152 0 0 1 65.203125 403.609375 1 0 1
0 84.7 211 152 0 0 1 65.203125 403.9625 1 0 1
pepsi2_arch_stairs01
0 84 111 151.002 -0.818692 0 0.574233 66.765625 237.986668 1 0 1
0 84.7 111 152 -0.818692 0 0.574233 66.765625 237.948575 1 0 1
0 84.7 211 152 -0.818692 0 0.574233 65.203125 237.948575 1 0 1
pepsi2_arch_stairs01
0 84 111 151.002 -0.818692 0 0.574233 66.765625 237.986668 1 0 1
0 84.7 211 152 -0.818692 0 0.574233 65.203125 237.948575 1 0 1
0 84 211 151.002 -0.818692 0 0.574233 65.203125 237.986668 1 0 1
pepsi2_arch_stairs01
0 -24 111 79 -1 0 0 66.765625 10 1 0 1
0 -24 211 79 -1 0 0 65.203125 10 1 0 1
0 -24 211 71.999 -1 0 0 65.203125 10.218781 1 0 1
pepsi2_arch_stairs01
0 -24 111 79 -1 0 0 66.765625 10 1 0 1
0 -24 211 71.999 -1 0 0 65.203125 10.218781 1 0 1
0 -24 111 71.999 -1 0 0 66.765625 10.218781 1 0 1
pepsi2_arch_stairs01
0 -12 111 80 0 0 1 66.765625 407.609375 1 0 1
0 -12 211 80 0 0 1 65.203125 407.609375 1 0 1
0 -23.3 211 80 0 0 1 65.203125 407.9625 1 0 1
pepsi2_arch_stairs01
0 -12 111 80 0 0 1 66.765625 407.609375 1 0 1
0 -23.3 211 80 0 0 1 65.203125 407.9625 1 0 1
0 -23.3 111 80 0 0 1 66.765625 407.9625 1 0 1
pepsi2_arch_stairs01
0 -23.3 111 80 -0.819232 0 0.573462 66.765625 240.983022 1 0 1
0 -23.3 211 80 -0.819232 0 0.573462 65.203125 240.983022 1 0 1
0 -24 211 79 -0.819232 0 0.573462 65.203125 241.021169 1 0 1
pepsi2_arch_stairs01
0 -23.3 111 80 -0.819232 0 0.573462 66.765625 240.983022 1 0 1
0 -24 211 79 -0.819232 0 0.573462 65.203125 241.021169 1 0 1
0 -24 111 79 -0.819232 0 0.573462 66.765625 241.021169 1 0 1
pepsi2_arch_stairs01
0 0 111 87.999 -1 0 0 66.765625 9.218781 1 0 1
0 0 111 95.002 -1 0 0 66.765625 8.999937 1 0 1
0 0 211 95.002 -1 0 0 65.203125 8.999937 1 0 1
pepsi2_arch_stairs01
0 0 111 87.999 -1 0 0 66.765625 9.218781 1 0 1
0 0 211 95.002 -1 0 0 65.203125 8.999937 1 0 1
0 0 211 87.999 -1 0 0 65.203125 9.218781 1 0 1
pepsi2_arch_stairs01
0 0.7 111 96 0 0 1 66.765625 406.9625 1 0 1
0 12 111 96 0 0 1 66.765625 406.609375 1 0 1
0 12 211 96 0 0 1 65.203125 406.609375 1 0 1
pepsi2_arch_stairs01
0 0.7 111 96 0 0 1 66.765625 406.9625 1 0 1
0 12 211 96 0 0 1 65.203125 406.609375 1 0 1
0 0.7 211 96 0 0 1 65.203125 406.9625 1 0 1
pepsi2_arch_stairs01
0 0 111 95.002 -0.818692 0 0.574233 66.765625 240.984093 1 0 1
0 0.7 111 96 -0.818692 0 0.574233 66.765625 240.945997 1 0 1
0 0.7 211 96 -0.818692 0 0.574233 65.203125 240.945998 1 0 1
pepsi2_arch_stairs01
0 0 111 95.002 -0.818692 0 0.574233 66.765625 240.984093 1 0 1
0 0.7 211 96 -0.818692 0 0.574233 65.203125 240.945998 1 0 1
0 0 211 95.002 -0.818692 0 0.574233 65.203125 240.984093 1 0 1
concrete_concretewall001
0 -288 207 216 0 1 0 103.396484 -1.25 1 0 1
0 -288 207 176 0 1 0 103.396484 -1.875 1 0 1
0 -296 207 176 0 1 0 103.458984 -1.875 1 0 1
concrete_concretewall001
0 -288 207 216 0 1 0 103.396484 -1.25 1 0 1
0 -296 207 176 0 1 0 103.458984 -1.875 1 0 1
0 -296 207 216 0 1 0 103.458984 -1.25 1 0 1
concrete_concretewall001
0 -288 199 176 0 -1 0 103.708984 -1.875 1 0 1
0 -288 199 216 0 -1 0 103.708984 -1.25 1 0 1
0 -296 199 216 0 -1 0 103.771484 -1.25 1 0 1
concrete_concretewall001
0 -288 199 176 0 -1 0 103.708984 -1.875 1 0 1
0 -296 199 216 0 -1 0 103.771484 -1.25 1 0 1
0 -296 199 176 0 -1 0 103.771484 -1.875 1 0 1
concrete_concretewall001
0 -296 199 176 -1 0 0 33.146484 -1.875 1 0 1
0 -296 199 216 -1 0 0 33.146484 -1.25 1 0 1
0 -296 207 216 -1 0 0 33.083984 -1.25 1 0 1
concrete_concretewall001
0 -296 199 176 -1 0 0 33.146484 -1.875 1 0 1
0 -296 207 216 -1 0 0 33.083984 -1.25 1 0 1
0 -296 207 176 -1 0 0 33.083984 -1.875 1 0 1
concrete_concretewall001
0 -288 199 216 1 0 0 -32.666016 -1.25 1 0 1
0 -288 199 176 1 0 0 -32.666016 -1.875 1 0 1
0 -288 207 176 1 0 0 -32.603516 -1.875 1 0 1
concrete_concretewall001
0 -288 199 216 1 0 0 -32.666016 -1.25 1 0 1
0 -288 207 176 1 0 0 -32.603516 -1.875 1 0 1
0 -288 207 216 1 0 0 -32.603516 -1.25 1 0 1
concrete_concretewall001
0 -296 199 216 0 0 1 -32.666016 207.875 1 0 1
0 -288 199 216 0 0 1 -32.666016 207.75 1 0 1
0 -288 207 216 0 0 1 -32.603516 207.75 1 0 1
concrete_concretewall001
0 -296 199 216 0 0 1 -32.666016 207.875 1 0 1
0 -288 207 216 0 0 1 -32.603516 207.75 1 0 1
0 -296 207 216 0 0 1 -32.603516 207.875 1 0 1
pepsi2_arch_stairs01
0 -84 111 32 0 0 1 66.765625 409.609375 1 0 1
0 -84 211 32 0 0 1 65.203125 409.609375 1 0 1
0 -95.3 211 32 0 0 1 65.203125 409.9625 1 0 1
pepsi2_arch_stairs01
0 -84 111 32 0 0 1 66.765625 409.609375 1 0 1
0 -95.3 211 32 0 0 1 65.203125 409.9625 1 0 1
0 -95.3 111 32 0 0 1 66.765625 409.9625 1 0 1
pepsi2_arch_stairs01
0 -95.3 111 32 -0.819232 0 0.573462 66.765625 243.969461 1 0 1
0 -95.3 211 32 -0.819232 0 0.573462 65.203125 243.969461 1 0 1
0 -96 211 31 -0.819232 0 0.573462 65.203125 244.007606 1 0 1
pepsi2_arch_stairs01
0 -95.3 111 32 -0.819232 0 0.573462 66.765625 243.969461 1 0 1
0 -96 211 31 -0.819232 0 0.573462 65.203125 244.007606 1 0 1
0 -96 111 31 -0.819232 0 0.573462 66.765625 244.007606 1 0 1
pepsi2_arch_stairs01
0 -96 111 31 -1 0 0 66.765625 11 1 0 1
0 -96 211 31 -1 0 0 65.203125 11 1 0 1
0 -96 211 23.999 -1 0 0 65.203125 11.218781 1 0 1
pepsi2_arch_stairs01
0 -96 111 31 -1 0 0 66.765625 11 1 0 1
0 -96 211 23.999 -1 0 0 65.203125 11.218781 1 0 1
0 -96 111 23.999 -1 0 0 66.765625 11.218781 1 0 1
pepsi2_arch_stairs01
0 -12 111 79.999 -1 0 0 66.765625 10.218781 1 0 1
0 -12 111 87 -1 0 0 66.765625 10 1 0 1
0 -12 211 87 -1 0 0 65.203125 10 1 0 1
pepsi2_arch_stairs01
0 -12 111 79.999 -1 0 0 66.765625 10.218781 1 0 1
0 -12 211 87 -1 0 0 65.203125 10 1 0 1
0 -12 211 79.999 -1 0 0 65.203125 10.218781 1 0 1
pepsi2_arch_stairs01
0 -11.3 111 88 0 0 1 66.765625 406.946875 1 0 1
0 0 111 88 0 0 1 66.765625 406.59375 1 0 1
0 0 211 88 0 0 1 65.203125 406.59375 1 0 1
pepsi2_arch_stairs01
0 -11.3 111 88 0 0 1 66.765625 406.946875 1 0 1
0 0 211 88 0 0 1 65.203125 406.59375 1 0 1
0 -11.3 211 88 0 0 1 65.203125 406.946875 1 0 1
pepsi2_arch_stairs01
0 -12 111 87 -0.819232 0 0.573462 66.765625 241.012919 1 0 1
0 -11.3 111 88 -0.819232 0 0.573462 66.765625 240.974774 1 0 1
0 -11.3 211 88 -0.819232 0 0.573462 65.203125 240.974774 1 0 1
pepsi2_arch_stairs01
0 -12 111 87 -0.819232 0 0.573462 66.765625 241.012919 1 0 1
0 -11.3 211 88 -0.819232 0 0.573462 65.203125 240.974774 1 0 1
0 -12 211 87 -0.819232 0 0.573462 65.203125 241.012919 1 0 1
pepsi2_arch_stairs01
0 12 111 95.999 -1 0 0 66.765625 9.218781 1 0 1
0 12 111 103 -1 0 0 66.765625 9 1 0 1
0 12 211 103 -1 0 0 65.203125 9 1 0 1
pepsi2_arch_stairs01
0 12 111 95.999 -1 0 0 66.765625 9.218781 1 0 1
0 12 211 103 -1 0 0 65.203125 9 1 0 1
0 12 211 95.999 -1 0 0 65.203125 9.218781 1 0 1
pepsi2_arch_stairs01
0 12.7 111 104 0 0 1 66.765625 405.946875 1 0 1
0 24 111 104 0 0 1 66.765625 405.59375 1 0 1
0 24 211 104 0 0 1 65.203125 405.59375 1 0 1
pepsi2_arch_stairs01
0 12.7 111 104 0 0 1 66.765625 405.946875 1 0 1
0 24 211 104 0 0 1 65.203125 405.59375 1 0 1
0 12.7 211 104 0 0 1 65.203125 405.946875 1 0 1
pepsi2_arch_stairs01
0 12 111 103 -0.819232 0 0.573462 66.765625 239.989594 1 0 1
0 12.7 111 104 -0.819232 0 0.573462 66.765625 239.95145 1 0 1
0 12.7 211 104 -0.819232 0 0.573462 65.203125 239.95145 1 0 1
pepsi2_arch_stairs01
0 12 111 103 -0.819232 0 0.573462 66.765625 239.989594 1 0 1
0 12.7 211 104 -0.819232 0 0.573462 65.203125 239.95145 1 0 1
0 12 211 103 -0.819232 0 0.573462 65.203125 239.989594 1 0 1
pepsi2_arch_stairs01
0 -132 111 -0.001 -1 0 0 66.765625 12.218781 1 0 1
0 -132 111 7 -1 0 0 66.765625 12 1 0 1
0 -132 211 7 -1 0 0 65.203125 12 1 0 1
pepsi2_arch_stairs01
0 -132 111 -0.001 -1 0 0 66.765625 12.218781 1 0 1
0 -132 211 7 -1 0 0 65.203125 12 1 0 1
0 -132 211 -0.001 -1 0 0 65.203125 12.218781 1 0 1
pepsi2_arch_stairs01
0 -131.3 111 8 0 0 1 66.765625 410.9625 1 0 1
0 -120 111 8 0 0 1 66.765625 410.609375 1 0 1
0 -120 211 8 0 0 1 65.203125 410.609375 1 0 1
pepsi2_arch_stairs01
0 -131.3 111 8 0 0 1 66.765625 410.9625 1 0 1
0 -120 211 8 0 0 1 65.203125 410.609375 1 0 1
0 -131.3 211 8 0 0 1 65.203125 410.9625 1 0 1
pepsi2_arch_stairs01
0 -132 111 7 -0.819232 0 0.573462 66.765625 244.987531 1 0 1
0 -131.3 111 8 -0.819232 0 0.573462 66.765625 244.949387 1 0 1
0 -131.3 211 8 -0.819232 0 0.573462 65.203125 244.949387 1 0 1
pepsi2_arch_stairs01
0 -132 111 7 -0.819232 0 0.573462 66.765625 244.987531 1 0 1
0 -131.3 211 8 -0.819232 0 0.573462 65.203125 244.949387 1 0 1
0 -132 211 7 -0.819232 0 0.573462 65.203125 244.987531 1 0 1
pepsi2_arch_stairs01
0 108 111 159.999 -1 0 0 66.765625 7.218781 1 0 1
0 108 111 167 -1 0 0 66.765625 7 1 0 1
0 108 211 167 -1 0 0 65.203125 7 1 0 1
pepsi2_arch_stairs01
0 108 111 159.999 -1 0 0 66.765625 7.218781 1 0 1
0 108 211 167 -1 0 0 65.203125 7 1 0 1
0 108 211 159.999 -1 0 0 65.203125 7.218781 1 0 1
pepsi2_arch_stairs01
0 108.7 111 168 0 0 1 66.765625 402.9625 1 0 1
0 120 111 168 0 0 1 66.765625 402.609375 1 0 1
0 120 211 168 0 0 1 65.203125 402.609375 1 0 1
pepsi2_arch_stairs01
0 108.7 111 168 0 0 1 66.765625 402.9625 1 0 1
0 120 211 168 0 0 1 65.203125 402.609375 1 0 1
0 108.7 211 168 0 0 1 65.203125 402.9625 1 0 1
pepsi2_arch_stairs01
0 108 111 167 -0.819232 0 0.573462 66.765625 237.003094 1 0 1
0 108.7 111 168 -0.819232 0 0.573462 66.765625 236.964948 1 0 1
0 108.7 211 168 -0.819232 0 0.573462 65.203125 236.964948 1 0 1
pepsi2_arch_stairs01
0 108 111 167 -0.819232 0 0.573462 66.765625 237.003094 1 0 1
0 108.7 211 168 -0.819232 0 0.573462 65.203125 236.964948 1 0 1
0 108 211 167 -0.819232 0 0.573462 65.203125 237.003094 1 0 1
pepsi2_arch_stairs01
0 120.7 211 176 -0.818692 0 0.574233 65.203125 235.963948 1 0 1
0 120 211 175.002 -0.818692 0 0.574233 65.203125 236.002043 1 0 1
0 120 111 175.002 -0.818692 0 0.574233 66.765625 236.002043 1 0 1
pepsi2_arch_stairs01
0 120.7 211 176 -0.818692 0 0.574233 65.203125 235.963948 1 0 1
0 120 111 175.002 -0.818692 0 0.574233 66.765625 236.002043 1 0 1
0 120.7 111 176 -0.818692 0 0.574233 66.765625 235.963948 1 0 1
pepsi2_arch_stairs01
0 120 111 175.002 -1 0 0 66.765625 6.999938 1 0 1
0 120 211 175.002 -1 0 0 65.203125 6.999938 1 0 1
0 120 211 167.999 -1 0 0 65.203125 7.218781 1 0 1
pepsi2_arch_stairs01
0 120 111 175.002 -1 0 0 66.765625 6.999938 1 0 1
0 120 211 167.999 -1 0 0 65.203125 7.218781 1 0 1
0 120 111 167.999 -1 0 0 66.765625 7.218781 1 0 1
pepsi2_arch_stairs01
0 132 111 176 0 0 1 66.765625 402.59375 1 0 1
0 132 211 176 0 0 1 65.203125 402.59375 1 0 1
0 120.7 211 176 0 0 1 65.203125 402.946875 1 0 1
pepsi2_arch_stairs01
0 132 111 176 0 0 1 66.765625 402.59375 1 0 1
0 120.7 211 176 0 0 1 65.203125 402.946875 1 0 1
0 120.7 111 176 0 0 1 66.765625 402.946875 1 0 1
pepsi2_arch_stairs01
0 -48 111 55.999 -1 0 0 66.765625 10.218781 1 0 1
0 -48 111 63.001 -1 0 0 66.765625 9.999969 1 0 1
0 -48 211 63.001 -1 0 0 65.203125 9.999969 1 0 1
pepsi2_arch_stairs01
0 -48 111 55.999 -1 0 0 66.765625 10.218781 1 0 1
0 -48 211 63.001 -1 0 0 65.203125 9.999969 1 0 1
0 -48 211 55.999 -1 0 0 65.203125 10.218781 1 0 1
pepsi2_arch_stairs01
0 -47.3 111 64 0 0 1 66.765625 407.9625 1 0 1
0 -36 111 64 0 0 1 66.765625 407.609375 1 0 1
0 -36 211 64 0 0 1 65.203125 407.609375 1 0 1
pepsi2_arch_stairs01
0 -47.3 111 64 0 0 1 66.765625 407.9625 1 0 1
0 -36 211 64 0 0 1 65.203125 407.609375 1 0 1
0 -47.3 211 64 0 0 1 65.203125 407.9625 1 0 1
pepsi2_arch_stairs01
0 -48 111 63.001 -0.818962 0 0.573847 66.765625 242.009712 1 0 1
0 -47.3 111 64 -0.818962 0 0.573847 66.765625 241.97159 1 0 1
0 -47.3 211 64 -0.818962 0 0.573847 65.203125 241.97159 1 0 1
pepsi2_arch_stairs01
0 -48 111 63.001 -0.818962 0 0.573847 66.765625 242.009712 1 0 1
0 -47.3 211 64 -0.818962 0 0.573847 65.203125 241.97159 1 0 1
0 -48 211 63.001 -0.818962 0 0.573847 65.203125 242.009712 1 0 1
pepsi2_arch_stairs01
0 -72 111 39.999 -1 0 0 66.765625 11.218781 1 0 1
0 -72 111 47.001 -1 0 0 66.765625 10.999969 1 0 1
0 -72 211 47.001 -1 0 0 65.203125 10.999969 1 0 1
pepsi2_arch_stairs01
0 -72 111 39.999 -1 0 0 66.765625 11.218781 1 0 1
0 -72 211 47.001 -1 0 0 65.203125 10.999969 1 0 1
0 -72 211 39.999 -1 0 0 65.203125 11.218781 1 0 1
pepsi2_arch_stairs01
0 -71.3 111 48 0 0 1 66.765625 408.9625 1 0 1
0 -60 111 48 0 0 1 66.765625 408.609375 1 0 1
0 -60 211 48 0 0 1 65.203125 408.609375 1 0 1
pepsi2_arch_stairs01
0 -71.3 111 48 0 0 1 66.765625 408.9625 1 0 1
0 -60 211 48 0 0 1 65.203125 408.609375 1 0 1
0 -71.3 211 48 0 0 1 65.203125 408.9625 1 0 1
pepsi2_arch_stairs01
0 -72 111 47.001 -0.818962 0 0.573847 66.765625 242.994949 1 0 1
0 -71.3 111 48 -0.818962 0 0.573847 66.765625 242.956829 1 0 1
0 -71.3 211 48 -0.818962 0 0.573847 65.203125 242.956829 1 0 1
pepsi2_arch_stairs01
0 -72 111 47.001 -0.818962 0 0.573847 66.765625 242.994949 1 0 1
0 -71.3 211 48 -0.818962 0 0.573847 65.203125 242.956829 1 0 1
0 -72 211 47.001 -0.818962 0 0.573847 65.203125 242.994949 1 0 1
pepsi2_arch_stairs01
0 -120 111 15.002 -0.818692 0 0.574233 66.765625 244.995186 1 0 1
0 -119.3 111 16 -0.818692 0 0.574233 66.765625 244.957092 1 0 1
0 -119.3 211 16 -0.818692 0 0.574233 65.203125 244.957092 1 0 1
pepsi2_arch_stairs01
0 -120 111 15.002 -0.818692 0 0.574233 66.765625 244.995186 1 0 1
0 -119.3 211 16 -0.818692 0 0.574233 65.203125 244.957092 1 0 1
0 -120 211 15.002 -0.818692 0 0.574233 65.203125 244.995186 1 0 1
pepsi2_arch_stairs01
0 -120 111 7.999 -1 0 0 66.765625 12.218781 1 0 1
0 -120 111 15.002 -1 0 0 66.765625 11.999938 1 0 1
0 -120 211 15.002 -1 0 0 65.203125 11.999938 1 0 1
pepsi2_arch_stairs01
0 -120 111 7.999 -1 0 0 66.765625 12.218781 1 0 1
0 -120 211 15.002 -1 0 0 65.203125 11.999938 1 0 1
0 -120 211 7.999 -1 0 0 65.203125 12.218781 1 0 1
pepsi2_arch_stairs01
0 -108 211 16 0 0 1 65.203125 410.609375 1 0 1
0 -119.3 211 16 0 0 1 65.203125 410.9625 1 0 1
0 -119.3 111 16 0 0 1 66.765625 410.9625 1 0 1
pepsi2_arch_stairs01
0 -108 211 16 0 0 1 65.203125 410.609375 1 0 1
0 -119.3 111 16 0 0 1 66.765625 410.9625 1 0 1
0 -108 111 16 0 0 1 66.765625 410.609375 1 0 1
pepsi2_arch_stairs01
0 -48 111 56 0 0 1 66.765625 408.609375 1 0 1
0 -48 211 56 0 0 1 65.203125 408.609375 1 0 1
0 -59.3 211 56 0 0 1 65.203125 408.9625 1 0 1
pepsi2_arch_stairs01
0 -48 111 56 0 0 1 66.765625 408.609375 1 0 1
0 -59.3 211 56 0 0 1 65.203125 408.9625 1 0 1
0 -59.3 111 56 0 0 1 66.765625 408.9625 1 0 1
pepsi2_arch_stairs01
0 -59.3 111 56 -0.818962 0 0.573847 66.765625 242.963885 1 0 1
0 -59.3 211 56 -0.818962 0 0.573847 65.203125 242.963885 1 0 1
0 -60 211 55.001 -0.818962 0 0.573847 65.203125 243.002006 1 0 1
pepsi2_arch_stairs01
0 -59.3 111 56 -0.818962 0 0.573847 66.765625 242.963885 1 0 1
0 -60 211 55.001 -0.818962 0 0.573847 65.203125 243.002006 1 0 1
0 -60 111 55.001 -0.818962 0 0.573847 66.765625 243.002006 1 0 1
pepsi2_arch_stairs01
0 -60 111 55.001 -1 0 0 66.765625 10.999969 1 0 1
0 -60 211 55.001 -1 0 0 65.203125 10.999969 1 0 1
0 -60 211 47.999 -1 0 0 65.203125 11.218781 1 0 1
pepsi2_arch_stairs01
0 -60 111 55.001 -1 0 0 66.765625 10.999969 1 0 1
0 -60 211 47.999 -1 0 0 65.203125 11.218781 1 0 1
0 -60 111 47.999 -1 0 0 66.765625 11.218781 1 0 1
pepsi2_arch_stairs01
0 -108 111 15.999 -1 0 0 66.765625 12.218781 1 0 1
0 -108 111 23.002 -1 0 0 66.765625 11.999937 1 0 1
0 -108 211 23.002 -1 0 0 65.203125 11.999937 1 0 1
pepsi2_arch_stairs01
0 -108 111 15.999 -1 0 0 66.765625 12.218781 1 0 1
0 -108 211 23.002 -1 0 0 65.203125 11.999937 1 0 1
0 -108 211 15.999 -1 0 0 65.203125 12.218781 1 0 1
pepsi2_arch_stairs01
0 -107.3 111 24 0 0 1 66.765625 409.9625 1 0 1
0 -96 111 24 0 0 1 66.765625 409.609375 1 0 1
0 -96 211 24 0 0 1 65.203125 409.609375 1 0 1
pepsi2_arch_stairs01
0 -107.3 111 24 0 0 1 66.765625 409.9625 1 0 1
0 -96 211 24 0 0 1 65.203125 409.609375 1 0 1
0 -107.3 211 24 0 0 1 65.203125 409.9625 1 0 1
pepsi2_arch_stairs01
0 -108 111 23.002 -0.818692 0 0.574233 66.765625 244.001443 1 0 1
0 -107.3 111 24 -0.818692 0 0.574233 66.765625 243.963348 1 0 1
0 -107.3 211 24 -0.818692 0 0.574233 65.203125 243.963348 1 0 1
pepsi2_arch_stairs01
0 -108 111 23.002 -0.818692 0 0.574233 66.765625 244.001443 1 0 1
0 -107.3 211 24 -0.818692 0 0.574233 65.203125 243.963348 1 0 1
0 -108 211 23.002 -0.818692 0 0.574233 65.203125 244.001443 1 0 1
concrete_concretewall001
0 -296 119 212 -1 0 0 33.771484 -1.3125 1 0 1
0 -296 119 216 -1 0 0 33.771484 -1.25 1 0 1
0 -296 199 216 -1 0 0 33.146484 -1.25 1 0 1
concrete_concretewall001
0 -296 119 212 -1 0 0 33.771484 -1.3125 1 0 1
0 -296 199 216 -1 0 0 33.146484 -1.25 1 0 1
0 -296 199 212 -1 0 0 33.146484 -1.3125 1 0 1
concrete_concretewall001
0 -288 119 216 1 0 0 -33.291016 -1.25 1 0 1
0 -288 119 212 1 0 0 -33.291016 -1.3125 1 0 1
0 -288 199 212 1 0 0 -32.666016 -1.3125 1 0 1
concrete_concretewall001
0 -288 119 216 1 0 0 -33.291016 -1.25 1 0 1
0 -288 199 212 1 0 0 -32.666016 -1.3125 1 0 1
0 -288 199 216 1 0 0 -32.666016 -1.25 1 0 1
concrete_concretewall001
0 -288 119 212 0 0 -1 33.771484 208.5625 1 0 1
0 -296 119 212 0 0 -1 33.771484 208.6875 1 0 1
0 -296 199 212 0 0 -1 33.146484 208.6875 1 0 1
concrete_concretewall001
0 -288 119 212 0 0 -1 33.771484 208.5625 1 0 1
0 -296 199 212 0 0 -1 33.146484 208.6875 1 0 1
0 -288 199 212 0 0 -1 33.146484 208.5625 1 0 1
concrete_concretewall001
0 -296 119 216 0 0 1 -33.291016 207.875 1 0 1
0 -288 119 216 0 0 1 -33.291016 207.75 1 0 1
0 -288 199 216 0 0 1 -32.666016 207.75 1 0 1
concrete_concretewall001
0 -296 119 216 0 0 1 -33.291016 207.875 1 0 1
0 -288 199 216 0 0 1 -32.666016 207.75 1 0 1
0 -296 199 216 0 0 1 -32.666016 207.875 1 0 1
pepsi2_arch_stairs01
0 36 111 112 0 0 1 66.765625 405.609375 1 0 1
0 36 211 112 0 0 1 65.203125 405.609375 1 0 1
0 24.7 211 112 0 0 1 65.203125 405.9625 1 0 1
pepsi2_arch_stairs01
0 36 111 112 0 0 1 66.765625 405.609375 1 0 1
0 24.7 211 112 0 0 1 65.203125 405.9625 1 0 1
0 24.7 111 112 0 0 1 66.765625 405.9625 1 0 1
pepsi2_arch_stairs01
0 24.7 111 112 -0.818962 0 0.573847 66.765625 239.945762 1 0 1
0 24.7 211 112 -0.818962 0 0.573847 65.203125 239.945762 1 0 1
0 24 211 111.001 -0.818962 0 0.573847 65.203125 239.983881 1 0 1
pepsi2_arch_stairs01
0 24.7 111 112 -0.818962 0 0.573847 66.765625 239.945762 1 0 1
0 24 211 111.001 -0.818962 0 0.573847 65.203125 239.983881 1 0 1
0 24 111 111.001 -0.818962 0 0.573847 66.765625 239.983881 1 0 1
pepsi2_arch_stairs01
0 24 111 111.001 -1 0 0 66.765625 8.999969 1 0 1
0 24 211 111.001 -1 0 0 65.203125 8.999969 1 0 1
0 24 211 103.999 -1 0 0 65.203125 9.218781 1 0 1
pepsi2_arch_stairs01
0 24 111 111.001 -1 0 0 66.765625 8.999969 1 0 1
0 24 211 103.999 -1 0 0 65.203125 9.218781 1 0 1
0 24 111 103.999 -1 0 0 66.765625 9.218781 1 0 1
de_nuke_nuke_beam_01
0 -150 -214 284 0 1 0 -0.802734 -169.909505 1 0 1
0 -246 -214 284 0 1 0 -0.802734 -171.159505 1 0 1
0 -250 -214 288 0 1 0 -0.750651 -171.211589 1 0 1
de_nuke_nuke_beam_01
0 -150 -214 284 0 1 0 -0.802734 -169.909505 1 0 1
0 -250 -214 288 0 1 0 -0.750651 -171.211589 1 0 1
0 -146 -214 288 0 1 0 -0.750651 -169.857422 1 0 1
de_nuke_nuke_beam_01
0 -146 -223 288 0 -1 0 -0.750651 -169.857422 1 0 1
0 -250 -223 288 0 -1 0 -0.750651 -171.211589 1 0 1
0 -246 -223 284 0 -1 0 -0.802734 -171.159505 1 0 1
de_nuke_nuke_beam_01
0 -146 -223 288 0 -1 0 -0.750651 -169.857422 1 0 1
0 -246 -223 284 0 -1 0 -0.802734 -171.159505 1 0 1
0 -150 -223 284 0 -1 0 -0.802734 -169.909505 1 0 1
de_nuke_nuke_beam_01
0 -150 -223 284 0 0 -1 -59.420573 -169.909505 1 0 1
0 -246 -223 284 0 0 -1 -59.420573 -171.159505 1 0 1
0 -246 -214 284 0 0 -1 -59.303385 -171.159505 1 0 1
de_nuke_nuke_beam_01
0 -150 -223 284 0 0 -1 -59.420573 -169.909505 1 0 1
0 -246 -214 284 0 0 -1 -59.303385 -171.159505 1 0 1
0 -150 -214 284 0 0 -1 -59.303385 -169.909505 1 0 1
pepsi2_arch_stairs01
0 -84 111 31.999 -1 0 0 66.765625 11.218781 1 0 1
0 -84 111 39.001 -1 0 0 66.765625 10.999969 1 0 1
0 -84 211 39.001 -1 0 0 65.203125 10.999969 1 0 1
pepsi2_arch_stairs01
0 -84 111 31.999 -1 0 0 66.765625 11.218781 1 0 1
0 -84 211 39.001 -1 0 0 65.203125 10.999969 1 0 1
0 -84 211 31.999 -1 0 0 65.203125 11.218781 1 0 1
pepsi2_arch_stairs01
0 -83.3 111 40 0 0 1 66.765625 408.9625 1 0 1
0 -72 111 40 0 0 1 66.765625 408.609375 1 0 1
0 -72 211 40 0 0 1 65.203125 408.609375 1 0 1
pepsi2_arch_stairs01
0 -83.3 111 40 0 0 1 66.765625 408.9625 1 0 1
0 -72 211 40 0 0 1 65.203125 408.609375 1 0 1
0 -83.3 211 40 0 0 1 65.203125 408.9625 1 0 1
pepsi2_arch_stairs01
0 -84 111 39.001 -0.818962 0 0.573847 66.765625 242.988193 1 0 1
0 -83.3 111 40 -0.818962 0 0.573847 66.765625 242.950075 1 0 1
0 -83.3 211 40 -0.818962 0 0.573847 65.203125 242.950075 1 0 1
pepsi2_arch_stairs01
0 -84 111 39.001 -0.818962 0 0.573847 66.765625 242.988193 1 0 1
0 -83.3 211 40 -0.818962 0 0.573847 65.203125 242.950075 1 0 1
0 -84 211 39.001 -0.818962 0 0.573847 65.203125 242.988193 1 0 1
concrete_concretewall001
0 -142 211 317 -1 0 0 -0.050781 65.578125 1 0 1
0 -142 221 317 -1 0 0 -0.050781 65.421875 1 0 1
0 -142 221 1 -1 0 0 -2.519531 65.421875 1 0 1
concrete_concretewall001
0 -142 211 317 -1 0 0 -0.050781 65.578125 1 0 1
0 -142 221 1 -1 0 0 -2.519531 65.421875 1 0 1
0 -142 211 1 -1 0 0 -2.519531 65.578125 1 0 1
concrete_concretewall001
0 -132 211 1 1 0 0 -2.519531 65.578125 1 0 1
0 -132 221 1 1 0 0 -2.519531 65.421875 1 0 1
0 -132 221 317 1 0 0 -0.050781 65.421875 1 0 1
concrete_concretewall001
0 -132 211 1 1 0 0 -2.519531 65.578125 1 0 1
0 -132 221 317 1 0 0 -0.050781 65.421875 1 0 1
0 -132 211 317 1 0 0 -0.050781 65.578125 1 0 1
concrete_concretewall001
0 -132 221 317 0 1 0 -0.050781 -203.203125 1 0 1
0 -132 221 1 0 1 0 -2.519531 -203.203125 1 0 1
0 -142 221 1 0 1 0 -2.519531 -203.359375 1 0 1
concrete_concretewall001
0 -132 221 317 0 1 0 -0.050781 -203.203125 1 0 1
0 -142 221 1 0 1 0 -2.519531 -203.359375 1 0 1
0 -142 221 317 0 1 0 -0.050781 -203.359375 1 0 1
concrete_concretewall001
0 -132 211 1 0 -1 0 -2.519531 205.203125 1 0 1
0 -132 211 317 0 -1 0 -0.050781 205.203125 1 0 1
0 -142 211 317 0 -1 0 -0.050781 205.359375 1 0 1
concrete_concretewall001
0 -132 211 1 0 -1 0 -2.519531 205.203125 1 0 1
0 -142 211 317 0 -1 0 -0.050781 205.359375 1 0 1
0 -142 211 1 0 -1 0 -2.519531 205.359375 1 0 1
de_nuke_nuke_beam_01
0 -246 -214 284.0014 0 1 0 172.196615 -0.158185 1 0 1
0 -246 -214 176 0 1 0 172.196615 -1.564453 1 0 1
0 -250 -214 176 0 1 0 172.248698 -1.564453 1 0 1
de_nuke_nuke_beam_01
0 -246 -214 284.0014 0 1 0 172.196615 -0.158185 1 0 1
0 -250 -214 176 0 1 0 172.248698 -1.564453 1 0 1
0 -250 -214 287.986 0 1 0 172.248698 -0.106302 1 0 1
de_nuke_nuke_beam_01
0 -246 -223 176 0 -1 0 172.196615 -1.564453 1 0 1
0 -246 -223 284.0014 0 -1 0 172.196615 -0.158185 1 0 1
0 -250 -223 287.986 0 -1 0 172.248698 -0.106302 1 0 1
de_nuke_nuke_beam_01
0 -246 -223 176 0 -1 0 172.196615 -1.564453 1 0 1
0 -250 -223 287.986 0 -1 0 172.248698 -0.106302 1 0 1
0 -250 -223 176 0 -1 0 172.248698 -1.564453 1 0 1
de_nuke_nuke_beam_01
0 -246 -223 284.0014 1 0 0 -59.420573 -0.158185 1 0 1
0 -246 -223 176 1 0 0 -59.420573 -1.564453 1 0 1
0 -246 -214 176 1 0 0 -59.303385 -1.564453 1 0 1
de_nuke_nuke_beam_01
0 -246 -223 284.0014 1 0 0 -59.420573 -0.158185 1 0 1
0 -246 -214 176 1 0 0 -59.303385 -1.564453 1 0 1
0 -246 -214 284.0014 1 0 0 -59.303385 -0.158185 1 0 1
end
