version 1
nodes
0 "root" -1
end
skeleton
time 0
0 0 0 0 0 0 0
end
triangles
phys
0 183 131 -87 0 0 1 1 0 1 0 1
0 183 131 -151 0 0 1 1 0 1 0 1
0 167 131 -151 0 0 1 1 0 1 0 1
phys
0 183 131 -87 0 0 1 1 0 1 0 1
0 167 131 -151 0 0 1 1 0 1 0 1
0 167 131 -87 0 0 1 1 0 1 0 1
phys
0 183 9 -151 0 0 1 1 0 1 0 1
0 183 9 -87 0 0 1 1 0 1 0 1
0 167 9 -87 0 0 1 1 0 1 0 1
phys
0 183 9 -151 0 0 1 1 0 1 0 1
0 167 9 -87 0 0 1 1 0 1 0 1
0 167 9 -151 0 0 1 1 0 1 0 1
phys
0 167 9 -151 0 0 1 1 0 1 0 1
0 167 9 -87 0 0 1 1 0 1 0 1
0 167 131 -87 0 0 1 1 0 1 0 1
phys
0 167 9 -151 0 0 1 1 0 1 0 1
0 167 131 -87 0 0 1 1 0 1 0 1
0 167 131 -151 0 0 1 1 0 1 0 1
phys
0 183 9 -87 0 0 1 1 0 1 0 1
0 183 9 -151 0 0 1 1 0 1 0 1
0 183 131 -151 0 0 1 1 0 1 0 1
phys
0 183 9 -87 0 0 1 1 0 1 0 1
0 183 131 -151 0 0 1 1 0 1 0 1
0 183 131 -87 0 0 1 1 0 1 0 1
phys
0 183 9 -151 0 0 1 1 0 1 0 1
0 167 9 -151 0 0 1 1 0 1 0 1
0 167 131 -151 0 0 1 1 0 1 0 1
phys
0 183 9 -151 0 0 1 1 0 1 0 1
0 167 131 -151 0 0 1 1 0 1 0 1
0 183 131 -151 0 0 1 1 0 1 0 1
phys
0 167 9 -87 0 0 1 1 0 1 0 1
0 183 9 -87 0 0 1 1 0 1 0 1
0 183 131 -87 0 0 1 1 0 1 0 1
phys
0 167 9 -87 0 0 1 1 0 1 0 1
0 183 131 -87 0 0 1 1 0 1 0 1
0 167 131 -87 0 0 1 1 0 1 0 1
phys
0 -27 -291 -159 0 0 1 2 0 1 0 1
0 -27 -291 -183 0 0 1 2 0 1 0 1
0 -286 -291 -183 0 0 1 2 0 1 0 1
phys
0 -27 -291 -159 0 0 1 2 0 1 0 1
0 -286 -291 -183 0 0 1 2 0 1 0 1
0 -286 -291 -159 0 0 1 2 0 1 0 1
phys
0 -27 -307 -183 0 0 1 2 0 1 0 1
0 -27 -307 -159 0 0 1 2 0 1 0 1
0 -286 -307 -159 0 0 1 2 0 1 0 1
phys
0 -27 -307 -183 0 0 1 2 0 1 0 1
0 -286 -307 -159 0 0 1 2 0 1 0 1
0 -286 -307 -183 0 0 1 2 0 1 0 1
phys
0 -286 -307 -183 0 0 1 2 0 1 0 1
0 -286 -307 -159 0 0 1 2 0 1 0 1
0 -286 -291 -159 0 0 1 2 0 1 0 1
phys
0 -286 -307 -183 0 0 1 2 0 1 0 1
0 -286 -291 -159 0 0 1 2 0 1 0 1
0 -286 -291 -183 0 0 1 2 0 1 0 1
phys
0 -27 -307 -159 0 0 1 2 0 1 0 1
0 -27 -307 -183 0 0 1 2 0 1 0 1
0 -27 -291 -183 0 0 1 2 0 1 0 1
phys
0 -27 -307 -159 0 0 1 2 0 1 0 1
0 -27 -291 -183 0 0 1 2 0 1 0 1
0 -27 -291 -159 0 0 1 2 0 1 0 1
phys
0 -27 -307 -183 0 0 1 2 0 1 0 1
0 -286 -307 -183 0 0 1 2 0 1 0 1
0 -286 -291 -183 0 0 1 2 0 1 0 1
phys
0 -27 -307 -183 0 0 1 2 0 1 0 1
0 -286 -291 -183 0 0 1 2 0 1 0 1
0 -27 -291 -183 0 0 1 2 0 1 0 1
phys
0 -286 -307 -159 0 0 1 2 0 1 0 1
0 -27 -307 -159 0 0 1 2 0 1 0 1
0 -27 -291 -159 0 0 1 2 0 1 0 1
phys
0 -286 -307 -159 0 0 1 2 0 1 0 1
0 -27 -291 -159 0 0 1 2 0 1 0 1
0 -286 -291 -159 0 0 1 2 0 1 0 1
phys
0 135 131 -135 0 0 1 3 0 1 0 1
0 135 131 -151 0 0 1 3 0 1 0 1
0 119 131 -151 0 0 1 3 0 1 0 1
phys
0 135 131 -135 0 0 1 3 0 1 0 1
0 119 131 -151 0 0 1 3 0 1 0 1
0 119 131 -135 0 0 1 3 0 1 0 1
phys
0 135 9 -151 0 0 1 3 0 1 0 1
0 135 9 -135 0 0 1 3 0 1 0 1
0 119 9 -135 0 0 1 3 0 1 0 1
phys
0 135 9 -151 0 0 1 3 0 1 0 1
0 119 9 -135 0 0 1 3 0 1 0 1
0 119 9 -151 0 0 1 3 0 1 0 1
phys
0 119 9 -151 0 0 1 3 0 1 0 1
0 119 9 -135 0 0 1 3 0 1 0 1
0 119 131 -135 0 0 1 3 0 1 0 1
phys
0 119 9 -151 0 0 1 3 0 1 0 1
0 119 131 -135 0 0 1 3 0 1 0 1
0 119 131 -151 0 0 1 3 0 1 0 1
phys
0 135 9 -135 0 0 1 3 0 1 0 1
0 135 9 -151 0 0 1 3 0 1 0 1
0 135 131 -151 0 0 1 3 0 1 0 1
phys
0 135 9 -135 0 0 1 3 0 1 0 1
0 135 131 -151 0 0 1 3 0 1 0 1
0 135 131 -135 0 0 1 3 0 1 0 1
phys
0 135 9 -151 0 0 1 3 0 1 0 1
0 119 9 -151 0 0 1 3 0 1 0 1
0 119 131 -151 0 0 1 3 0 1 0 1
phys
0 135 9 -151 0 0 1 3 0 1 0 1
0 119 131 -151 0 0 1 3 0 1 0 1
0 135 131 -151 0 0 1 3 0 1 0 1
phys
0 119 9 -135 0 0 1 3 0 1 0 1
0 135 9 -135 0 0 1 3 0 1 0 1
0 135 131 -135 0 0 1 3 0 1 0 1
phys
0 119 9 -135 0 0 1 3 0 1 0 1
0 135 131 -135 0 0 1 3 0 1 0 1
0 119 131 -135 0 0 1 3 0 1 0 1
phys
0 119 141 -87 0 0 1 4 0 1 0 1
0 119 141 -87 0 0 1 4 0 1 0 1
0 183 141 -87 0 0 1 4 0 1 0 1
phys
0 119 141 -87 0 0 1 4 0 1 0 1
0 183 141 -87 0 0 1 4 0 1 0 1
0 183 141 -50 0 0 1 4 0 1 0 1
phys
0 119 135 -87 0 0 1 4 0 1 0 1
0 119 135 -87 0 0 1 4 0 1 0 1
0 183 135 -50 0 0 1 4 0 1 0 1
phys
0 119 135 -87 0 0 1 4 0 1 0 1
0 183 135 -50 0 0 1 4 0 1 0 1
0 183 135 -87 0 0 1 4 0 1 0 1
phys
0 119 141 -87 0 0 1 4 0 1 0 1
0 119 141 -87 0 0 1 4 0 1 0 1
0 119 139 -85 0 0 1 4 0 1 0 1
phys
0 119 141 -87 0 0 1 4 0 1 0 1
0 119 139 -85 0 0 1 4 0 1 0 1
0 119 137 -85 0 0 1 4 0 1 0 1
phys
0 119 141 -87 0 0 1 4 0 1 0 1
0 119 137 -85 0 0 1 4 0 1 0 1
0 119 135 -87 0 0 1 4 0 1 0 1
phys
0 119 141 -87 0 0 1 4 0 1 0 1
0 119 135 -87 0 0 1 4 0 1 0 1
0 119 135 -87 0 0 1 4 0 1 0 1
phys
0 183 135 -50 0 0 1 4 0 1 0 1
0 183 135 -87 0 0 1 4 0 1 0 1
0 183 141 -87 0 0 1 4 0 1 0 1
phys
0 183 135 -50 0 0 1 4 0 1 0 1
0 183 141 -87 0 0 1 4 0 1 0 1
0 183 141 -50 0 0 1 4 0 1 0 1
phys
0 183 135 -50 0 0 1 4 0 1 0 1
0 183 141 -50 0 0 1 4 0 1 0 1
0 183 139 -48 0 0 1 4 0 1 0 1
phys
0 183 135 -50 0 0 1 4 0 1 0 1
0 183 139 -48 0 0 1 4 0 1 0 1
0 183 137 -48 0 0 1 4 0 1 0 1
phys
0 183 135 -87 0 0 1 4 0 1 0 1
0 119 135 -87 0 0 1 4 0 1 0 1
0 119 141 -87 0 0 1 4 0 1 0 1
phys
0 183 135 -87 0 0 1 4 0 1 0 1
0 119 141 -87 0 0 1 4 0 1 0 1
0 183 141 -87 0 0 1 4 0 1 0 1
phys
0 183 139 -48 0 0 1 4 0 1 0 1
0 183 141 -50 0 0 1 4 0 1 0 1
0 119 141 -87 0 0 1 4 0 1 0 1
phys
0 183 139 -48 0 0 1 4 0 1 0 1
0 119 141 -87 0 0 1 4 0 1 0 1
0 119 139 -85 0 0 1 4 0 1 0 1
phys
0 119 135 -87 0 0 1 4 0 1 0 1
0 183 135 -50 0 0 1 4 0 1 0 1
0 183 137 -48 0 0 1 4 0 1 0 1
phys
0 119 135 -87 0 0 1 4 0 1 0 1
0 183 137 -48 0 0 1 4 0 1 0 1
0 119 137 -85 0 0 1 4 0 1 0 1
phys
0 183 137 -48 0 0 1 4 0 1 0 1
0 183 139 -48 0 0 1 4 0 1 0 1
0 119 139 -85 0 0 1 4 0 1 0 1
phys
0 183 137 -48 0 0 1 4 0 1 0 1
0 119 139 -85 0 0 1 4 0 1 0 1
0 119 137 -85 0 0 1 4 0 1 0 1
phys
0 -208 -5 -43.002 0 0 1 5 0 1 0 1
0 -208 -5 -151 0 0 1 5 0 1 0 1
0 -211 -5 -151 0 0 1 5 0 1 0 1
phys
0 -208 -5 -43.002 0 0 1 5 0 1 0 1
0 -211 -5 -151 0 0 1 5 0 1 0 1
0 -211 -5 -40.002 0 0 1 5 0 1 0 1
phys
0 -208 -13 -151 0 0 1 5 0 1 0 1
0 -208 -13 -43.002 0 0 1 5 0 1 0 1
0 -211 -13 -40.002 0 0 1 5 0 1 0 1
phys
0 -208 -13 -151 0 0 1 5 0 1 0 1
0 -211 -13 -40.002 0 0 1 5 0 1 0 1
0 -211 -13 -151 0 0 1 5 0 1 0 1
phys
0 -211 -13 -151 0 0 1 5 0 1 0 1
0 -211 -13 -40.002 0 0 1 5 0 1 0 1
0 -211 -5 -40.002 0 0 1 5 0 1 0 1
phys
0 -211 -13 -151 0 0 1 5 0 1 0 1
0 -211 -5 -40.002 0 0 1 5 0 1 0 1
0 -211 -5 -151 0 0 1 5 0 1 0 1
phys
0 -208 -13 -43.002 0 0 1 5 0 1 0 1
0 -208 -13 -151 0 0 1 5 0 1 0 1
0 -208 -5 -151 0 0 1 5 0 1 0 1
phys
0 -208 -13 -43.002 0 0 1 5 0 1 0 1
0 -208 -5 -151 0 0 1 5 0 1 0 1
0 -208 -5 -43.002 0 0 1 5 0 1 0 1
phys
0 -208 -13 -151 0 0 1 5 0 1 0 1
0 -211 -13 -151 0 0 1 5 0 1 0 1
0 -211 -5 -151 0 0 1 5 0 1 0 1
phys
0 -208 -13 -151 0 0 1 5 0 1 0 1
0 -211 -5 -151 0 0 1 5 0 1 0 1
0 -208 -5 -151 0 0 1 5 0 1 0 1
phys
0 -211 -13 -40.002 0 0 1 5 0 1 0 1
0 -208 -13 -43.002 0 0 1 5 0 1 0 1
0 -208 -5 -43.002 0 0 1 5 0 1 0 1
phys
0 -211 -13 -40.002 0 0 1 5 0 1 0 1
0 -208 -5 -43.002 0 0 1 5 0 1 0 1
0 -211 -5 -40.002 0 0 1 5 0 1 0 1
phys
0 119 131 -87 0 0 1 6 0 1 0 1
0 119 145 -87 0 0 1 6 0 1 0 1
0 119 145 -151 0 0 1 6 0 1 0 1
phys
0 119 131 -87 0 0 1 6 0 1 0 1
0 119 145 -151 0 0 1 6 0 1 0 1
0 119 131 -151 0 0 1 6 0 1 0 1
phys
0 183 131 -151 0 0 1 6 0 1 0 1
0 183 145 -151 0 0 1 6 0 1 0 1
0 183 145 -87 0 0 1 6 0 1 0 1
phys
0 183 131 -151 0 0 1 6 0 1 0 1
0 183 145 -87 0 0 1 6 0 1 0 1
0 183 131 -87 0 0 1 6 0 1 0 1
phys
0 119 131 -151 0 0 1 6 0 1 0 1
0 119 145 -151 0 0 1 6 0 1 0 1
0 183 145 -151 0 0 1 6 0 1 0 1
phys
0 119 131 -151 0 0 1 6 0 1 0 1
0 183 145 -151 0 0 1 6 0 1 0 1
0 183 131 -151 0 0 1 6 0 1 0 1
phys
0 183 131 -87 0 0 1 6 0 1 0 1
0 183 145 -87 0 0 1 6 0 1 0 1
0 119 145 -87 0 0 1 6 0 1 0 1
phys
0 183 131 -87 0 0 1 6 0 1 0 1
0 119 145 -87 0 0 1 6 0 1 0 1
0 119 131 -87 0 0 1 6 0 1 0 1
phys
0 183 145 -87 0 0 1 6 0 1 0 1
0 183 145 -151 0 0 1 6 0 1 0 1
0 119 145 -151 0 0 1 6 0 1 0 1
phys
0 183 145 -87 0 0 1 6 0 1 0 1
0 119 145 -151 0 0 1 6 0 1 0 1
0 119 145 -87 0 0 1 6 0 1 0 1
phys
0 183 131 -151 0 0 1 6 0 1 0 1
0 183 131 -87 0 0 1 6 0 1 0 1
0 119 131 -87 0 0 1 6 0 1 0 1
phys
0 183 131 -151 0 0 1 6 0 1 0 1
0 119 131 -87 0 0 1 6 0 1 0 1
0 119 131 -151 0 0 1 6 0 1 0 1
phys
0 -52 -37 -151 0 0 1 7 0 1 0 1
0 -52 -37 -183 0 0 1 7 0 1 0 1
0 -56 -37 -183 0 0 1 7 0 1 0 1
phys
0 -52 -37 -151 0 0 1 7 0 1 0 1
0 -56 -37 -183 0 0 1 7 0 1 0 1
0 -56 -37 -151 0 0 1 7 0 1 0 1
phys
0 -52 -291 -183 0 0 1 7 0 1 0 1
0 -52 -291 -151 0 0 1 7 0 1 0 1
0 -56 -291 -151 0 0 1 7 0 1 0 1
phys
0 -52 -291 -183 0 0 1 7 0 1 0 1
0 -56 -291 -151 0 0 1 7 0 1 0 1
0 -56 -291 -183 0 0 1 7 0 1 0 1
phys
0 -56 -291 -183 0 0 1 7 0 1 0 1
0 -56 -291 -151 0 0 1 7 0 1 0 1
0 -56 -37 -151 0 0 1 7 0 1 0 1
phys
0 -56 -291 -183 0 0 1 7 0 1 0 1
0 -56 -37 -151 0 0 1 7 0 1 0 1
0 -56 -37 -183 0 0 1 7 0 1 0 1
phys
0 -52 -291 -151 0 0 1 7 0 1 0 1
0 -52 -291 -183 0 0 1 7 0 1 0 1
0 -52 -37 -183 0 0 1 7 0 1 0 1
phys
0 -52 -291 -151 0 0 1 7 0 1 0 1
0 -52 -37 -183 0 0 1 7 0 1 0 1
0 -52 -37 -151 0 0 1 7 0 1 0 1
phys
0 -52 -291 -183 0 0 1 7 0 1 0 1
0 -56 -291 -183 0 0 1 7 0 1 0 1
0 -56 -37 -183 0 0 1 7 0 1 0 1
phys
0 -52 -291 -183 0 0 1 7 0 1 0 1
0 -56 -37 -183 0 0 1 7 0 1 0 1
0 -52 -37 -183 0 0 1 7 0 1 0 1
phys
0 -56 -291 -151 0 0 1 7 0 1 0 1
0 -52 -291 -151 0 0 1 7 0 1 0 1
0 -52 -37 -151 0 0 1 7 0 1 0 1
phys
0 -56 -291 -151 0 0 1 7 0 1 0 1
0 -52 -37 -151 0 0 1 7 0 1 0 1
0 -56 -37 -151 0 0 1 7 0 1 0 1
phys
0 -27 -307 -167 0 0 1 8 0 1 0 1
0 -27 -307 -183 0 0 1 8 0 1 0 1
0 -286 -307 -183 0 0 1 8 0 1 0 1
phys
0 -27 -307 -167 0 0 1 8 0 1 0 1
0 -286 -307 -183 0 0 1 8 0 1 0 1
0 -286 -307 -167 0 0 1 8 0 1 0 1
phys
0 -27 -323 -183 0 0 1 8 0 1 0 1
0 -27 -323 -167 0 0 1 8 0 1 0 1
0 -286 -323 -167 0 0 1 8 0 1 0 1
phys
0 -27 -323 -183 0 0 1 8 0 1 0 1
0 -286 -323 -167 0 0 1 8 0 1 0 1
0 -286 -323 -183 0 0 1 8 0 1 0 1
phys
0 -286 -323 -183 0 0 1 8 0 1 0 1
0 -286 -323 -167 0 0 1 8 0 1 0 1
0 -286 -307 -167 0 0 1 8 0 1 0 1
phys
0 -286 -323 -183 0 0 1 8 0 1 0 1
0 -286 -307 -167 0 0 1 8 0 1 0 1
0 -286 -307 -183 0 0 1 8 0 1 0 1
phys
0 -27 -323 -167 0 0 1 8 0 1 0 1
0 -27 -323 -183 0 0 1 8 0 1 0 1
0 -27 -307 -183 0 0 1 8 0 1 0 1
phys
0 -27 -323 -167 0 0 1 8 0 1 0 1
0 -27 -307 -183 0 0 1 8 0 1 0 1
0 -27 -307 -167 0 0 1 8 0 1 0 1
phys
0 -27 -323 -183 0 0 1 8 0 1 0 1
0 -286 -323 -183 0 0 1 8 0 1 0 1
0 -286 -307 -183 0 0 1 8 0 1 0 1
phys
0 -27 -323 -183 0 0 1 8 0 1 0 1
0 -286 -307 -183 0 0 1 8 0 1 0 1
0 -27 -307 -183 0 0 1 8 0 1 0 1
phys
0 -286 -323 -167 0 0 1 8 0 1 0 1
0 -27 -323 -167 0 0 1 8 0 1 0 1
0 -27 -307 -167 0 0 1 8 0 1 0 1
phys
0 -286 -323 -167 0 0 1 8 0 1 0 1
0 -27 -307 -167 0 0 1 8 0 1 0 1
0 -286 -307 -167 0 0 1 8 0 1 0 1
phys
0 -112 -13 -42.998 0 0 1 9 0 1 0 1
0 -109 -13 -39.998 0 0 1 9 0 1 0 1
0 -109 -5 -39.998 0 0 1 9 0 1 0 1
phys
0 -112 -13 -42.998 0 0 1 9 0 1 0 1
0 -109 -5 -39.998 0 0 1 9 0 1 0 1
0 -112 -5 -42.998 0 0 1 9 0 1 0 1
phys
0 -112 -5 -151 0 0 1 9 0 1 0 1
0 -112 -5 -42.998 0 0 1 9 0 1 0 1
0 -109 -5 -39.998 0 0 1 9 0 1 0 1
phys
0 -112 -5 -151 0 0 1 9 0 1 0 1
0 -109 -5 -39.998 0 0 1 9 0 1 0 1
0 -109 -5 -151 0 0 1 9 0 1 0 1
phys
0 -109 -13 -151 0 0 1 9 0 1 0 1
0 -109 -13 -39.998 0 0 1 9 0 1 0 1
0 -112 -13 -42.998 0 0 1 9 0 1 0 1
phys
0 -109 -13 -151 0 0 1 9 0 1 0 1
0 -112 -13 -42.998 0 0 1 9 0 1 0 1
0 -112 -13 -151 0 0 1 9 0 1 0 1
phys
0 -112 -13 -151 0 0 1 9 0 1 0 1
0 -112 -13 -42.998 0 0 1 9 0 1 0 1
0 -112 -5 -42.998 0 0 1 9 0 1 0 1
phys
0 -112 -13 -151 0 0 1 9 0 1 0 1
0 -112 -5 -42.998 0 0 1 9 0 1 0 1
0 -112 -5 -151 0 0 1 9 0 1 0 1
phys
0 -109 -5 -151 0 0 1 9 0 1 0 1
0 -109 -5 -39.998 0 0 1 9 0 1 0 1
0 -109 -13 -39.998 0 0 1 9 0 1 0 1
phys
0 -109 -5 -151 0 0 1 9 0 1 0 1
0 -109 -13 -39.998 0 0 1 9 0 1 0 1
0 -109 -13 -151 0 0 1 9 0 1 0 1
phys
0 -109 -13 -151 0 0 1 9 0 1 0 1
0 -112 -13 -151 0 0 1 9 0 1 0 1
0 -112 -5 -151 0 0 1 9 0 1 0 1
phys
0 -109 -13 -151 0 0 1 9 0 1 0 1
0 -112 -5 -151 0 0 1 9 0 1 0 1
0 -109 -5 -151 0 0 1 9 0 1 0 1
phys
0 -286 -339 -175 0 0 1 10 0 1 0 1
0 -286 -323 -175 0 0 1 10 0 1 0 1
0 -286 -323 -183 0 0 1 10 0 1 0 1
phys
0 -286 -339 -175 0 0 1 10 0 1 0 1
0 -286 -323 -183 0 0 1 10 0 1 0 1
0 -286 -339 -183 0 0 1 10 0 1 0 1
phys
0 -27 -339 -183 0 0 1 10 0 1 0 1
0 -27 -323 -183 0 0 1 10 0 1 0 1
0 -27 -323 -175 0 0 1 10 0 1 0 1
phys
0 -27 -339 -183 0 0 1 10 0 1 0 1
0 -27 -323 -175 0 0 1 10 0 1 0 1
0 -27 -339 -175 0 0 1 10 0 1 0 1
phys
0 -286 -339 -183 0 0 1 10 0 1 0 1
0 -286 -323 -183 0 0 1 10 0 1 0 1
0 -27 -323 -183 0 0 1 10 0 1 0 1
phys
0 -286 -339 -183 0 0 1 10 0 1 0 1
0 -27 -323 -183 0 0 1 10 0 1 0 1
0 -27 -339 -183 0 0 1 10 0 1 0 1
phys
0 -27 -339 -175 0 0 1 10 0 1 0 1
0 -27 -323 -175 0 0 1 10 0 1 0 1
0 -286 -323 -175 0 0 1 10 0 1 0 1
phys
0 -27 -339 -175 0 0 1 10 0 1 0 1
0 -286 -323 -175 0 0 1 10 0 1 0 1
0 -286 -339 -175 0 0 1 10 0 1 0 1
phys
0 -27 -323 -175 0 0 1 10 0 1 0 1
0 -27 -323 -183 0 0 1 10 0 1 0 1
0 -286 -323 -183 0 0 1 10 0 1 0 1
phys
0 -27 -323 -175 0 0 1 10 0 1 0 1
0 -286 -323 -183 0 0 1 10 0 1 0 1
0 -286 -323 -175 0 0 1 10 0 1 0 1
phys
0 -27 -339 -183 0 0 1 10 0 1 0 1
0 -27 -339 -175 0 0 1 10 0 1 0 1
0 -286 -339 -175 0 0 1 10 0 1 0 1
phys
0 -27 -339 -183 0 0 1 10 0 1 0 1
0 -286 -339 -175 0 0 1 10 0 1 0 1
0 -286 -339 -183 0 0 1 10 0 1 0 1
phys
0 -27 -291 -183 0 0 1 11 0 1 0 1
0 -52 -291 -183 0 0 1 11 0 1 0 1
0 -52 -37 -183 0 0 1 11 0 1 0 1
phys
0 -27 -291 -183 0 0 1 11 0 1 0 1
0 -52 -37 -183 0 0 1 11 0 1 0 1
0 -27 -37 -183 0 0 1 11 0 1 0 1
phys
0 -52 -291 -151 0 0 1 11 0 1 0 1
0 -27 -291 -151 0 0 1 11 0 1 0 1
0 -27 -37 -151 0 0 1 11 0 1 0 1
phys
0 -52 -291 -151 0 0 1 11 0 1 0 1
0 -27 -37 -151 0 0 1 11 0 1 0 1
0 -52 -37 -151 0 0 1 11 0 1 0 1
phys
0 -27 -37 -183 0 0 1 11 0 1 0 1
0 -52 -37 -183 0 0 1 11 0 1 0 1
0 -52 -37 -151 0 0 1 11 0 1 0 1
phys
0 -27 -37 -183 0 0 1 11 0 1 0 1
0 -52 -37 -151 0 0 1 11 0 1 0 1
0 -27 -37 -151 0 0 1 11 0 1 0 1
phys
0 -27 -291 -151 0 0 1 11 0 1 0 1
0 -52 -291 -151 0 0 1 11 0 1 0 1
0 -52 -291 -183 0 0 1 11 0 1 0 1
phys
0 -27 -291 -151 0 0 1 11 0 1 0 1
0 -52 -291 -183 0 0 1 11 0 1 0 1
0 -27 -291 -183 0 0 1 11 0 1 0 1
phys
0 -52 -291 -151 0 0 1 11 0 1 0 1
0 -52 -37 -151 0 0 1 11 0 1 0 1
0 -52 -37 -183 0 0 1 11 0 1 0 1
phys
0 -52 -291 -151 0 0 1 11 0 1 0 1
0 -52 -37 -183 0 0 1 11 0 1 0 1
0 -52 -291 -183 0 0 1 11 0 1 0 1
phys
0 -27 -291 -183 0 0 1 11 0 1 0 1
0 -27 -37 -183 0 0 1 11 0 1 0 1
0 -27 -37 -151 0 0 1 11 0 1 0 1
phys
0 -27 -291 -183 0 0 1 11 0 1 0 1
0 -27 -37 -151 0 0 1 11 0 1 0 1
0 -27 -291 -151 0 0 1 11 0 1 0 1
phys
0 151 9 -151 0 0 1 12 0 1 0 1
0 151 9 -119 0 0 1 12 0 1 0 1
0 135 9 -119 0 0 1 12 0 1 0 1
phys
0 151 9 -151 0 0 1 12 0 1 0 1
0 135 9 -119 0 0 1 12 0 1 0 1
0 135 9 -151 0 0 1 12 0 1 0 1
phys
0 135 9 -151 0 0 1 12 0 1 0 1
0 135 9 -119 0 0 1 12 0 1 0 1
0 135 131 -119 0 0 1 12 0 1 0 1
phys
0 135 9 -151 0 0 1 12 0 1 0 1
0 135 131 -119 0 0 1 12 0 1 0 1
0 135 131 -151 0 0 1 12 0 1 0 1
phys
0 151 9 -119 0 0 1 12 0 1 0 1
0 151 9 -151 0 0 1 12 0 1 0 1
0 151 131 -151 0 0 1 12 0 1 0 1
phys
0 151 9 -119 0 0 1 12 0 1 0 1
0 151 131 -151 0 0 1 12 0 1 0 1
0 151 131 -119 0 0 1 12 0 1 0 1
phys
0 151 9 -151 0 0 1 12 0 1 0 1
0 135 9 -151 0 0 1 12 0 1 0 1
0 135 131 -151 0 0 1 12 0 1 0 1
phys
0 151 9 -151 0 0 1 12 0 1 0 1
0 135 131 -151 0 0 1 12 0 1 0 1
0 151 131 -151 0 0 1 12 0 1 0 1
phys
0 135 9 -119 0 0 1 12 0 1 0 1
0 151 9 -119 0 0 1 12 0 1 0 1
0 151 131 -119 0 0 1 12 0 1 0 1
phys
0 135 9 -119 0 0 1 12 0 1 0 1
0 151 131 -119 0 0 1 12 0 1 0 1
0 135 131 -119 0 0 1 12 0 1 0 1
phys
0 151 131 -119 0 0 1 12 0 1 0 1
0 151 131 -151 0 0 1 12 0 1 0 1
0 135 131 -151 0 0 1 12 0 1 0 1
phys
0 151 131 -119 0 0 1 12 0 1 0 1
0 135 131 -151 0 0 1 12 0 1 0 1
0 135 131 -119 0 0 1 12 0 1 0 1
phys
0 -15 -5 151 0 0 1 13 0 1 0 1
0 -15 5.01 151 0 0 1 13 0 1 0 1
0 -15 5.01 -151 0 0 1 13 0 1 0 1
phys
0 -15 -5 151 0 0 1 13 0 1 0 1
0 -15 5.01 -151 0 0 1 13 0 1 0 1
0 -15 -5 -151 0 0 1 13 0 1 0 1
phys
0 15 -5 -151 0 0 1 13 0 1 0 1
0 15 5.01 -151 0 0 1 13 0 1 0 1
0 15 5.01 151 0 0 1 13 0 1 0 1
phys
0 15 -5 -151 0 0 1 13 0 1 0 1
0 15 5.01 151 0 0 1 13 0 1 0 1
0 15 -5 151 0 0 1 13 0 1 0 1
phys
0 -15 -5 -151 0 0 1 13 0 1 0 1
0 -15 5.01 -151 0 0 1 13 0 1 0 1
0 -5 15 -151 0 0 1 13 0 1 0 1
phys
0 -15 -5 -151 0 0 1 13 0 1 0 1
0 -5 15 -151 0 0 1 13 0 1 0 1
0 5 15 -151 0 0 1 13 0 1 0 1
phys
0 -15 -5 -151 0 0 1 13 0 1 0 1
0 5 15 -151 0 0 1 13 0 1 0 1
0 15 5.01 -151 0 0 1 13 0 1 0 1
phys
0 -15 -5 -151 0 0 1 13 0 1 0 1
0 15 5.01 -151 0 0 1 13 0 1 0 1
0 15 -5 -151 0 0 1 13 0 1 0 1
phys
0 -15 -5 -151 0 0 1 13 0 1 0 1
0 15 -5 -151 0 0 1 13 0 1 0 1
0 5 -15 -151 0 0 1 13 0 1 0 1
phys
0 -15 -5 -151 0 0 1 13 0 1 0 1
0 5 -15 -151 0 0 1 13 0 1 0 1
0 -5 -15 -151 0 0 1 13 0 1 0 1
phys
0 15 -5 151 0 0 1 13 0 1 0 1
0 15 5.01 151 0 0 1 13 0 1 0 1
0 5 15 151 0 0 1 13 0 1 0 1
phys
0 15 -5 151 0 0 1 13 0 1 0 1
0 5 15 151 0 0 1 13 0 1 0 1
0 -5 15 151 0 0 1 13 0 1 0 1
phys
0 15 -5 151 0 0 1 13 0 1 0 1
0 -5 15 151 0 0 1 13 0 1 0 1
0 -15 5.01 151 0 0 1 13 0 1 0 1
phys
0 15 -5 151 0 0 1 13 0 1 0 1
0 -15 5.01 151 0 0 1 13 0 1 0 1
0 -15 -5 151 0 0 1 13 0 1 0 1
phys
0 15 -5 151 0 0 1 13 0 1 0 1
0 -15 -5 151 0 0 1 13 0 1 0 1
0 -5 -15 151 0 0 1 13 0 1 0 1
phys
0 15 -5 151 0 0 1 13 0 1 0 1
0 -5 -15 151 0 0 1 13 0 1 0 1
0 5 -15 151 0 0 1 13 0 1 0 1
phys
0 -5 -15 151 0 0 1 13 0 1 0 1
0 -15 -5 151 0 0 1 13 0 1 0 1
0 -15 -5 -151 0 0 1 13 0 1 0 1
phys
0 -5 -15 151 0 0 1 13 0 1 0 1
0 -15 -5 -151 0 0 1 13 0 1 0 1
0 -5 -15 -151 0 0 1 13 0 1 0 1
phys
0 15 5.01 151 0 0 1 13 0 1 0 1
0 15 5.01 -151 0 0 1 13 0 1 0 1
0 5 15 -151 0 0 1 13 0 1 0 1
phys
0 15 5.01 151 0 0 1 13 0 1 0 1
0 5 15 -151 0 0 1 13 0 1 0 1
0 5 15 151 0 0 1 13 0 1 0 1
phys
0 5 -15 -151 0 0 1 13 0 1 0 1
0 15 -5 -151 0 0 1 13 0 1 0 1
0 15 -5 151 0 0 1 13 0 1 0 1
phys
0 5 -15 -151 0 0 1 13 0 1 0 1
0 15 -5 151 0 0 1 13 0 1 0 1
0 5 -15 151 0 0 1 13 0 1 0 1
phys
0 -15 5.01 -151 0 0 1 13 0 1 0 1
0 -15 5.01 151 0 0 1 13 0 1 0 1
0 -5 15 151 0 0 1 13 0 1 0 1
phys
0 -15 5.01 -151 0 0 1 13 0 1 0 1
0 -5 15 151 0 0 1 13 0 1 0 1
0 -5 15 -151 0 0 1 13 0 1 0 1
phys
0 5 15 -151 0 0 1 13 0 1 0 1
0 -5 15 -151 0 0 1 13 0 1 0 1
0 -5 15 151 0 0 1 13 0 1 0 1
phys
0 5 15 -151 0 0 1 13 0 1 0 1
0 -5 15 151 0 0 1 13 0 1 0 1
0 5 15 151 0 0 1 13 0 1 0 1
phys
0 5 -15 151 0 0 1 13 0 1 0 1
0 -5 -15 151 0 0 1 13 0 1 0 1
0 -5 -15 -151 0 0 1 13 0 1 0 1
phys
0 5 -15 151 0 0 1 13 0 1 0 1
0 -5 -15 -151 0 0 1 13 0 1 0 1
0 5 -15 -151 0 0 1 13 0 1 0 1
phys
0 167 131 -103 0 0 1 14 0 1 0 1
0 167 131 -151 0 0 1 14 0 1 0 1
0 151 131 -151 0 0 1 14 0 1 0 1
phys
0 167 131 -103 0 0 1 14 0 1 0 1
0 151 131 -151 0 0 1 14 0 1 0 1
0 151 131 -103 0 0 1 14 0 1 0 1
phys
0 167 9 -151 0 0 1 14 0 1 0 1
0 167 9 -103 0 0 1 14 0 1 0 1
0 151 9 -103 0 0 1 14 0 1 0 1
phys
0 167 9 -151 0 0 1 14 0 1 0 1
0 151 9 -103 0 0 1 14 0 1 0 1
0 151 9 -151 0 0 1 14 0 1 0 1
phys
0 151 9 -151 0 0 1 14 0 1 0 1
0 151 9 -103 0 0 1 14 0 1 0 1
0 151 131 -103 0 0 1 14 0 1 0 1
phys
0 151 9 -151 0 0 1 14 0 1 0 1
0 151 131 -103 0 0 1 14 0 1 0 1
0 151 131 -151 0 0 1 14 0 1 0 1
phys
0 167 9 -103 0 0 1 14 0 1 0 1
0 167 9 -151 0 0 1 14 0 1 0 1
0 167 131 -151 0 0 1 14 0 1 0 1
phys
0 167 9 -103 0 0 1 14 0 1 0 1
0 167 131 -151 0 0 1 14 0 1 0 1
0 167 131 -103 0 0 1 14 0 1 0 1
phys
0 167 9 -151 0 0 1 14 0 1 0 1
0 151 9 -151 0 0 1 14 0 1 0 1
0 151 131 -151 0 0 1 14 0 1 0 1
phys
0 167 9 -151 0 0 1 14 0 1 0 1
0 151 131 -151 0 0 1 14 0 1 0 1
0 167 131 -151 0 0 1 14 0 1 0 1
phys
0 151 9 -103 0 0 1 14 0 1 0 1
0 167 9 -103 0 0 1 14 0 1 0 1
0 167 131 -103 0 0 1 14 0 1 0 1
phys
0 151 9 -103 0 0 1 14 0 1 0 1
0 167 131 -103 0 0 1 14 0 1 0 1
0 151 131 -103 0 0 1 14 0 1 0 1
phys
0 -109 -13 -40 0 0 1 15 0 1 0 1
0 -109 -5 -40 0 0 1 15 0 1 0 1
0 -211 -5 -40 0 0 1 15 0 1 0 1
phys
0 -109 -13 -40 0 0 1 15 0 1 0 1
0 -211 -5 -40 0 0 1 15 0 1 0 1
0 -211 -13 -40 0 0 1 15 0 1 0 1
phys
0 -211 -13 -40 0 0 1 15 0 1 0 1
0 -211 -5 -40 0 0 1 15 0 1 0 1
0 -208 -5 -43 0 0 1 15 0 1 0 1
phys
0 -211 -13 -40 0 0 1 15 0 1 0 1
0 -208 -5 -43 0 0 1 15 0 1 0 1
0 -208 -13 -43 0 0 1 15 0 1 0 1
phys
0 -112 -5 -43 0 0 1 15 0 1 0 1
0 -109 -5 -40 0 0 1 15 0 1 0 1
0 -109 -13 -40 0 0 1 15 0 1 0 1
phys
0 -112 -5 -43 0 0 1 15 0 1 0 1
0 -109 -13 -40 0 0 1 15 0 1 0 1
0 -112 -13 -43 0 0 1 15 0 1 0 1
phys
0 -208 -5 -43 0 0 1 15 0 1 0 1
0 -211 -5 -40 0 0 1 15 0 1 0 1
0 -109 -5 -40 0 0 1 15 0 1 0 1
phys
0 -208 -5 -43 0 0 1 15 0 1 0 1
0 -109 -5 -40 0 0 1 15 0 1 0 1
0 -112 -5 -43 0 0 1 15 0 1 0 1
phys
0 -109 -13 -40 0 0 1 15 0 1 0 1
0 -211 -13 -40 0 0 1 15 0 1 0 1
0 -208 -13 -43 0 0 1 15 0 1 0 1
phys
0 -109 -13 -40 0 0 1 15 0 1 0 1
0 -208 -13 -43 0 0 1 15 0 1 0 1
0 -112 -13 -43 0 0 1 15 0 1 0 1
phys
0 -208 -13 -43 0 0 1 15 0 1 0 1
0 -208 -5 -43 0 0 1 15 0 1 0 1
0 -112 -5 -43 0 0 1 15 0 1 0 1
phys
0 -208 -13 -43 0 0 1 15 0 1 0 1
0 -112 -5 -43 0 0 1 15 0 1 0 1
0 -112 -13 -43 0 0 1 15 0 1 0 1
end
