version 1
nodes
0 "root" -1
end
skeleton
time 0
0 0 0 0 0 0 0
end
triangles
cs_italy_woodbeam01
0 168 130 128 0 1 0 -119.984375 16.5 1 0 1
0 168 130 120 0 1 0 -119.984375 17 1 0 1
0 -212 130 120 0 1 0 -122.953125 17 1 0 1
cs_italy_woodbeam01
0 168 130 128 0 1 0 -119.984375 16.5 1 0 1
0 -212 130 120 0 1 0 -122.953125 17 1 0 1
0 -212 130 128 0 1 0 -122.953125 16.5 1 0 1
cs_italy_woodbeam01
0 168 122 120 0 -1 0 120.140625 17 1 0 1
0 168 122 128 0 -1 0 120.140625 16.5 1 0 1
0 -212 122 128 0 -1 0 123.109375 16.5 1 0 1
cs_italy_woodbeam01
0 168 122 120 0 -1 0 120.140625 17 1 0 1
0 -212 122 128 0 -1 0 123.109375 16.5 1 0 1
0 -212 122 120 0 -1 0 123.109375 17 1 0 1
cs_italy_woodbeam01
0 -212 122 120 -1 0 0 27.109375 -14.5 1 0 1
0 -212 122 128 -1 0 0 27.109375 -14 1 0 1
0 -212 130 128 -1 0 0 27.046875 -14 1 0 1
cs_italy_woodbeam01
0 -212 122 120 -1 0 0 27.109375 -14.5 1 0 1
0 -212 130 128 -1 0 0 27.046875 -14 1 0 1
0 -212 130 120 -1 0 0 27.046875 -14.5 1 0 1
cs_italy_woodbeam01
0 168 122 128 1 0 0 27.109375 16.5 1 0 1
0 168 122 120 1 0 0 27.109375 17 1 0 1
0 168 130 120 1 0 0 27.046875 17 1 0 1
cs_italy_woodbeam01
0 168 122 128 1 0 0 27.109375 16.5 1 0 1
0 168 130 120 1 0 0 27.046875 17 1 0 1
0 168 130 128 1 0 0 27.046875 16.5 1 0 1
cs_italy_woodbeam01
0 168 122 120 0 0 -1 120.140625 -209 1 0 1
0 -212 122 120 0 0 -1 123.109375 -209 1 0 1
0 -212 130 120 0 0 -1 123.109375 -208.5 1 0 1
cs_italy_woodbeam01
0 168 122 120 0 0 -1 120.140625 -209 1 0 1
0 -212 130 120 0 0 -1 123.109375 -208.5 1 0 1
0 168 130 120 0 0 -1 120.140625 -208.5 1 0 1
cs_italy_woodbeam01
0 174 -32 120 0 1 0 -1.0625 -962.625 1 0 1
0 174 -32 0 0 1 0 -2 -962.625 1 0 1
0 168 -32 0 0 1 0 -2 -963 1 0 1
cs_italy_woodbeam01
0 174 -32 120 0 1 0 -1.0625 -962.625 1 0 1
0 168 -32 0 0 1 0 -2 -963 1 0 1
0 168 -32 120 0 1 0 -1.0625 -963 1 0 1
cs_italy_woodbeam01
0 174 -40 0 0 -1 0 -2 -962.625 1 0 1
0 174 -40 120 0 -1 0 -1.0625 -962.625 1 0 1
0 168 -40 120 0 -1 0 -1.0625 -963 1 0 1
cs_italy_woodbeam01
0 174 -40 0 0 -1 0 -2 -962.625 1 0 1
0 168 -40 120 0 -1 0 -1.0625 -963 1 0 1
0 168 -40 0 0 -1 0 -2 -963 1 0 1
cs_italy_woodbeam01
0 168 -40 0 -1 0 0 -2 -219 1 0 1
0 168 -40 120 -1 0 0 -1.0625 -219 1 0 1
0 168 -32 120 -1 0 0 -1.0625 -218.5 1 0 1
cs_italy_woodbeam01
0 168 -40 0 -1 0 0 -2 -219 1 0 1
0 168 -32 120 -1 0 0 -1.0625 -218.5 1 0 1
0 168 -32 0 -1 0 0 -2 -218.5 1 0 1
cs_italy_woodbeam01
0 174 -40 120 1 0 0 2 -219 1 0 1
0 174 -40 0 1 0 0 2.9375 -219 1 0 1
0 174 -32 0 1 0 0 2.9375 -218.5 1 0 1
cs_italy_woodbeam01
0 174 -40 120 1 0 0 2 -219 1 0 1
0 174 -32 0 1 0 0 2.9375 -218.5 1 0 1
0 174 -32 120 1 0 0 2 -218.5 1 0 1
pepsi2_arch_woodf3
0 174 -40 0 0 0 -1 -85.510882 -19.500279 1 0 1
0 168 -40 0 0 0 -1 -85.544364 -19.500279 1 0 1
0 168 -32 0 0 0 -1 -85.544364 -19.455636 1 0 1
pepsi2_arch_woodf3
0 174 -40 0 0 0 -1 -85.510882 -19.500279 1 0 1
0 168 -32 0 0 0 -1 -85.544364 -19.455636 1 0 1
0 174 -32 0 0 0 -1 -85.510882 -19.455636 1 0 1
pepsi2_arch_woodf3
0 168 -40 120 0 0 1 -85.544364 -19.500279 1 0 1
0 174 -40 120 0 0 1 -85.510882 -19.500279 1 0 1
0 174 -32 120 0 0 1 -85.510882 -19.455636 1 0 1
pepsi2_arch_woodf3
0 168 -40 120 0 0 1 -85.544364 -19.500279 1 0 1
0 174 -32 120 0 0 1 -85.510882 -19.455636 1 0 1
0 168 -32 120 0 0 1 -85.544364 -19.455636 1 0 1
cs_italy_woodbeam01
0 182 -66 0 0 -1 0 -2 -962.5 1 0 1
0 182 -66 106 0 -1 0 -1.171875 -962.5 1 0 1
0 174 -66 106 0 -1 0 -1.171875 -963 1 0 1
cs_italy_woodbeam01
0 182 -66 0 0 -1 0 -2 -962.5 1 0 1
0 174 -66 106 0 -1 0 -1.171875 -963 1 0 1
0 174 -66 0 0 -1 0 -2 -963 1 0 1
cs_italy_woodbeam01
0 174 -66 0 -1 0 0 -2 222.5 1 0 1
0 174 -66 106 -1 0 0 -1.171875 222.5 1 0 1
0 174 -58 106 -1 0 0 -1.171875 222 1 0 1
cs_italy_woodbeam01
0 174 -66 0 -1 0 0 -2 222.5 1 0 1
0 174 -58 106 -1 0 0 -1.171875 222 1 0 1
0 174 -58 0 -1 0 0 -2 222 1 0 1
cs_italy_woodbeam01
0 182 -66 106 1 0 0 -1.171875 -220.375 1 0 1
0 182 -66 0 1 0 0 -2 -220.375 1 0 1
0 182 -58 0 1 0 0 -2 -219.875 1 0 1
cs_italy_woodbeam01
0 182 -66 106 1 0 0 -1.171875 -220.375 1 0 1
0 182 -58 0 1 0 0 -2 -219.875 1 0 1
0 182 -58 106 1 0 0 -1.171875 -219.875 1 0 1
cs_italy_cellarwall01c
0 214 -45 0 0 -1 0 -199.498047 -3.065755 1 0 1
0 214 -45 40 0 -1 0 -199.498047 -2.544922 1 0 1
0 182 -45 40 0 -1 0 -199.914714 -2.544922 1 0 1
cs_italy_cellarwall01c
0 214 -45 0 0 -1 0 -199.498047 -3.065755 1 0 1
0 182 -45 40 0 -1 0 -199.914714 -2.544922 1 0 1
0 182 -45 0 0 -1 0 -199.914714 -3.065755 1 0 1
cs_italy_cellarwall01c
0 214 -45 40 1 0 0 -46.496745 -2.544922 1 0 1
0 214 -45 0 1 0 0 -46.496745 -3.065755 1 0 1
0 214 130 0 1 0 0 -44.218099 -3.065755 1 0 1
cs_italy_cellarwall01c
0 214 -45 40 1 0 0 -46.496745 -2.544922 1 0 1
0 214 130 0 1 0 0 -44.218099 -3.065755 1 0 1
0 214 130 40 1 0 0 -44.218099 -2.544922 1 0 1
cs_italy_woodbeam01
0 168 -32 128 0 1 0 -120.046875 16.5 1 0 1
0 168 -32 120 0 1 0 -120.046875 17 1 0 1
0 -212 -32 120 0 1 0 -123.015625 17 1 0 1
cs_italy_woodbeam01
0 168 -32 128 0 1 0 -120.046875 16.5 1 0 1
0 -212 -32 120 0 1 0 -123.015625 17 1 0 1
0 -212 -32 128 0 1 0 -123.015625 16.5 1 0 1
cs_italy_woodbeam01
0 168 -40 120 0 -1 0 120.203125 17 1 0 1
0 168 -40 128 0 -1 0 120.203125 16.5 1 0 1
0 -212 -40 128 0 -1 0 123.171875 16.5 1 0 1
cs_italy_woodbeam01
0 168 -40 120 0 -1 0 120.203125 17 1 0 1
0 -212 -40 128 0 -1 0 123.171875 16.5 1 0 1
0 -212 -40 120 0 -1 0 123.171875 17 1 0 1
pepsi2_arch_woodf3
0 -212 -40 120 -1 0 0 27.445312 -1 1 0 1
0 -212 -40 128 -1 0 0 27.445312 -0.9375 1 0 1
0 -212 -32 128 -1 0 0 27.382812 -0.9375 1 0 1
pepsi2_arch_woodf3
0 -212 -40 120 -1 0 0 27.445312 -1 1 0 1
0 -212 -32 128 -1 0 0 27.382812 -0.9375 1 0 1
0 -212 -32 120 -1 0 0 27.382812 -1 1 0 1
pepsi2_arch_woodf3
0 168 -40 128 1 0 0 -27.445312 -0.9375 1 0 1
0 168 -40 120 1 0 0 -27.445312 -1 1 0 1
0 168 -32 120 1 0 0 -27.382812 -1 1 0 1
pepsi2_arch_woodf3
0 168 -40 128 1 0 0 -27.445312 -0.9375 1 0 1
0 168 -32 120 1 0 0 -27.382812 -1 1 0 1
0 168 -32 128 1 0 0 -27.382812 -0.9375 1 0 1
cs_italy_woodbeam01
0 168 -40 120 0 0 -1 120.203125 -219 1 0 1
0 -212 -40 120 0 0 -1 123.171875 -219 1 0 1
0 -212 -32 120 0 0 -1 123.171875 -218.5 1 0 1
cs_italy_woodbeam01
0 168 -40 120 0 0 -1 120.203125 -219 1 0 1
0 -212 -32 120 0 0 -1 123.171875 -218.5 1 0 1
0 168 -32 120 0 0 -1 120.203125 -218.5 1 0 1
pepsi2_arch_woodf3
0 168 144 120 0 0 1 -85.544364 -18.473493 1 0 1
0 174 144 120 0 0 1 -85.510882 -18.473493 1 0 1
0 174 148 120 0 0 1 -85.510882 -18.451172 1 0 1
pepsi2_arch_woodf3
0 168 144 120 0 0 1 -85.544364 -18.473493 1 0 1
0 174 148 120 0 0 1 -85.510882 -18.451172 1 0 1
0 168 148 120 0 0 1 -85.544364 -18.451172 1 0 1
cs_italy_woodbeam01
0 174 130 102.001 0 0.707087 -0.707126 -26.21875 964.625 1 0 1
0 168 130 102.001 0 0.707087 -0.707126 -26.21875 965 1 0 1
0 168 148 120 0 0.707087 -0.707126 -26.078125 965 1 0 1
cs_italy_woodbeam01
0 174 130 102.001 0 0.707087 -0.707126 -26.21875 964.625 1 0 1
0 168 148 120 0 0.707087 -0.707126 -26.078125 965 1 0 1
0 174 148 120 0 0.707087 -0.707126 -26.078125 964.625 1 0 1
cs_italy_woodbeam01
0 168 130 106 0 -0.707107 0.707107 -26.21875 965 1 0 1
0 174 130 106 0 -0.707107 0.707107 -26.21875 964.625 1 0 1
0 174 144 120 0 -0.707107 0.707107 -26.109375 964.625 1 0 1
cs_italy_woodbeam01
0 168 130 106 0 -0.707107 0.707107 -26.21875 965 1 0 1
0 174 144 120 0 -0.707107 0.707107 -26.109375 964.625 1 0 1
0 168 144 120 0 -0.707107 0.707107 -26.109375 965 1 0 1
pepsi2_arch_woodf3
0 174 130 106 0 -1 0 -120.5 -1.109375 1 0 1
0 168 130 106 0 -1 0 -120.546875 -1.109375 1 0 1
0 168 130 102.001 0 -1 0 -120.546875 -1.140617 1 0 1
pepsi2_arch_woodf3
0 174 130 106 0 -1 0 -120.5 -1.109375 1 0 1
0 168 130 102.001 0 -1 0 -120.546875 -1.140617 1 0 1
0 174 130 102.001 0 -1 0 -120.5 -1.140617 1 0 1
cs_italy_woodbeam01
0 168 130 106 -1 0 0 56.139655 137.166769 1 0 1
0 168 144 120 -1 0 0 56.263402 137.166769 1 0 1
0 168 148 120 -1 0 0 56.28108 136.989994 1 0 1
cs_italy_woodbeam01
0 168 130 106 -1 0 0 56.139655 137.166769 1 0 1
0 168 148 120 -1 0 0 56.28108 136.989994 1 0 1
0 168 130 102.001 -1 0 0 56.121982 136.990038 1 0 1
pepsi2_arch_woodf3
0 174 130 102.001 1 0 0 -26.117188 -1.140617 1 0 1
0 174 148 120 1 0 0 -25.976562 -1 1 0 1
0 174 144 120 1 0 0 -26.007812 -1 1 0 1
pepsi2_arch_woodf3
0 174 130 102.001 1 0 0 -26.117188 -1.140617 1 0 1
0 174 144 120 1 0 0 -26.007812 -1 1 0 1
0 174 130 106 1 0 0 -26.117188 -1.109375 1 0 1
pepsi2_arch_woodf3
0 -212 130 102.001 0 -1 0 -123.515625 -1.140617 1 0 1
0 -212 130 106 0 -1 0 -123.515625 -1.109375 1 0 1
0 -218 130 106 0 -1 0 -123.5625 -1.109375 1 0 1
pepsi2_arch_woodf3
0 -212 130 102.001 0 -1 0 -123.515625 -1.140617 1 0 1
0 -218 130 106 0 -1 0 -123.5625 -1.109375 1 0 1
0 -218 130 102.001 0 -1 0 -123.5625 -1.140617 1 0 1
pepsi2_arch_woodf3
0 -218 130 102.001 -1 0 0 26.117188 -1.140617 1 0 1
0 -218 130 106 -1 0 0 26.117188 -1.109375 1 0 1
0 -218 144 120 -1 0 0 26.007812 -1 1 0 1
pepsi2_arch_woodf3
0 -218 130 102.001 -1 0 0 26.117188 -1.140617 1 0 1
0 -218 144 120 -1 0 0 26.007812 -1 1 0 1
0 -218 148 120 -1 0 0 25.976562 -1 1 0 1
cs_italy_woodbeam01
0 -212 130 106 1 0 0 -89.46386 -135.666769 1 0 1
0 -212 130 102.001 1 0 0 -89.481534 -135.490038 1 0 1
0 -212 148 120 1 0 0 -89.322435 -135.489994 1 0 1
cs_italy_woodbeam01
0 -212 130 106 1 0 0 -89.46386 -135.666769 1 0 1
0 -212 148 120 1 0 0 -89.322435 -135.489994 1 0 1
0 -212 144 120 1 0 0 -89.340113 -135.666769 1 0 1
pepsi2_arch_woodf3
0 -212 144 120 0 0 1 -87.6649 -18.473493 1 0 1
0 -212 148 120 0 0 1 -87.6649 -18.451172 1 0 1
0 -218 148 120 0 0 1 -87.698382 -18.451172 1 0 1
pepsi2_arch_woodf3
0 -212 144 120 0 0 1 -87.6649 -18.473493 1 0 1
0 -218 148 120 0 0 1 -87.698382 -18.451172 1 0 1
0 -218 144 120 0 0 1 -87.698382 -18.473493 1 0 1
cs_italy_woodbeam01
0 -218 130 106 0 -0.707107 0.707107 -26.21875 989 1 0 1
0 -212 130 106 0 -0.707107 0.707107 -26.21875 988.625 1 0 1
0 -212 144 120 0 -0.707107 0.707107 -26.109375 988.625 1 0 1
cs_italy_woodbeam01
0 -218 130 106 0 -0.707107 0.707107 -26.21875 989 1 0 1
0 -212 144 120 0 -0.707107 0.707107 -26.109375 988.625 1 0 1
0 -218 144 120 0 -0.707107 0.707107 -26.109375 989 1 0 1
cs_italy_woodbeam01
0 -212 130 102.001 0 0.707087 -0.707126 -26.21875 988.625 1 0 1
0 -218 130 102.001 0 0.707087 -0.707126 -26.21875 989 1 0 1
0 -218 148 120 0 0.707087 -0.707126 -26.078125 989 1 0 1
cs_italy_woodbeam01
0 -212 130 102.001 0 0.707087 -0.707126 -26.21875 988.625 1 0 1
0 -218 148 120 0 0.707087 -0.707126 -26.078125 989 1 0 1
0 -212 148 120 0 0.707087 -0.707126 -26.078125 988.625 1 0 1
cs_italy_woodbeam01
0 168 104 120 0 -0.707126 -0.707087 26.921875 -963.375 1 0 1
0 168 122 101.999 0 -0.707126 -0.707087 26.78125 -963.375 1 0 1
0 174 122 101.999 0 -0.707126 -0.707087 26.78125 -963 1 0 1
cs_italy_woodbeam01
0 168 104 120 0 -0.707126 -0.707087 26.921875 -963.375 1 0 1
0 174 122 101.999 0 -0.707126 -0.707087 26.78125 -963 1 0 1
0 174 104 120 0 -0.707126 -0.707087 26.921875 -963 1 0 1
cs_italy_woodbeam01
0 174 108 120 0 0.707107 0.707107 26.890625 -963 1 0 1
0 174 122 106 0 0.707107 0.707107 26.78125 -963 1 0 1
0 168 122 106 0 0.707107 0.707107 26.78125 -963.375 1 0 1
cs_italy_woodbeam01
0 174 108 120 0 0.707107 0.707107 26.890625 -963 1 0 1
0 168 122 106 0 0.707107 0.707107 26.78125 -963.375 1 0 1
0 168 108 120 0 0.707107 0.707107 26.890625 -963.375 1 0 1
pepsi2_arch_woodf3
0 174 122 101.999 0 1 0 120.5 -1.140633 1 0 1
0 168 122 101.999 0 1 0 120.546875 -1.140633 1 0 1
0 168 122 106 0 1 0 120.546875 -1.109375 1 0 1
pepsi2_arch_woodf3
0 174 122 101.999 0 1 0 120.5 -1.140633 1 0 1
0 168 122 106 0 1 0 120.546875 -1.109375 1 0 1
0 174 122 106 0 1 0 120.5 -1.109375 1 0 1
cs_italy_woodbeam01
0 168 122 101.999 -1 0 0 85.518815 161.499263 1 0 1
0 168 104 120 -1 0 0 85.677923 161.499219 1 0 1
0 168 108 120 -1 0 0 85.660245 161.322444 1 0 1
cs_italy_woodbeam01
0 168 122 101.999 -1 0 0 85.518815 161.499263 1 0 1
0 168 108 120 -1 0 0 85.660245 161.322444 1 0 1
0 168 122 106 -1 0 0 85.536498 161.322444 1 0 1
pepsi2_arch_woodf3
0 174 104 120 1 0 0 -26.320313 -1 1 0 1
0 174 122 101.999 1 0 0 -26.179688 -1.140633 1 0 1
0 174 122 106 1 0 0 -26.179688 -1.109375 1 0 1
pepsi2_arch_woodf3
0 174 104 120 1 0 0 -26.320313 -1 1 0 1
0 174 122 106 1 0 0 -26.179688 -1.109375 1 0 1
0 174 108 120 1 0 0 -26.289062 -1 1 0 1
pepsi2_arch_woodf3
0 168 104 120 0 0 1 -85.544364 -18.696708 1 0 1
0 174 104 120 0 0 1 -85.510882 -18.696708 1 0 1
0 174 108 120 0 0 1 -85.510882 -18.674386 1 0 1
pepsi2_arch_woodf3
0 168 104 120 0 0 1 -85.544364 -18.696708 1 0 1
0 174 108 120 0 0 1 -85.510882 -18.674386 1 0 1
0 168 108 120 0 0 1 -85.544364 -18.674386 1 0 1
pepsi2_arch_woodf3
0 188 122 106 0 1 0 120.390625 -1.109375 1 0 1
0 188 122 101.999 0 1 0 120.390625 -1.140633 1 0 1
0 182 122 101.999 0 1 0 120.4375 -1.140633 1 0 1
pepsi2_arch_woodf3
0 188 122 106 0 1 0 120.390625 -1.109375 1 0 1
0 182 122 101.999 0 1 0 120.4375 -1.140633 1 0 1
0 182 122 106 0 1 0 120.4375 -1.109375 1 0 1
pepsi2_arch_woodf3
0 182 104 120 -1 0 0 26.320312 -1 1 0 1
0 182 108 120 -1 0 0 26.289062 -1 1 0 1
0 182 122 106 -1 0 0 26.179688 -1.109375 1 0 1
pepsi2_arch_woodf3
0 182 104 120 -1 0 0 26.320312 -1 1 0 1
0 182 122 106 -1 0 0 26.179688 -1.109375 1 0 1
0 182 122 101.999 -1 0 0 26.179688 -1.140633 1 0 1
cs_italy_woodbeam01
0 188 122 101.999 1 0 0 -57.879622 -159.999263 1 0 1
0 188 122 106 1 0 0 -57.86194 -159.822444 1 0 1
0 188 108 120 1 0 0 -57.738193 -159.822444 1 0 1
cs_italy_woodbeam01
0 188 122 101.999 1 0 0 -57.879622 -159.999263 1 0 1
0 188 108 120 1 0 0 -57.738193 -159.822444 1 0 1
0 188 104 120 1 0 0 -57.720515 -159.999219 1 0 1
pepsi2_arch_woodf3
0 188 104 120 0 0 1 -85.432757 -18.696708 1 0 1
0 188 108 120 0 0 1 -85.432757 -18.674386 1 0 1
0 182 108 120 0 0 1 -85.466239 -18.674386 1 0 1
pepsi2_arch_woodf3
0 188 104 120 0 0 1 -85.432757 -18.696708 1 0 1
0 182 108 120 0 0 1 -85.466239 -18.674386 1 0 1
0 182 104 120 0 0 1 -85.466239 -18.696708 1 0 1
cs_italy_woodbeam01
0 188 108 120 0 0.707107 0.707107 26.890625 -962 1 0 1
0 188 122 106 0 0.707107 0.707107 26.78125 -962 1 0 1
0 182 122 106 0 0.707107 0.707107 26.78125 -962.375 1 0 1
cs_italy_woodbeam01
0 188 108 120 0 0.707107 0.707107 26.890625 -962 1 0 1
0 182 122 106 0 0.707107 0.707107 26.78125 -962.375 1 0 1
0 182 108 120 0 0.707107 0.707107 26.890625 -962.375 1 0 1
cs_italy_woodbeam01
0 182 104 120 0 -0.707126 -0.707087 26.921875 -962.375 1 0 1
0 182 122 101.999 0 -0.707126 -0.707087 26.78125 -962.375 1 0 1
0 188 122 101.999 0 -0.707126 -0.707087 26.78125 -962 1 0 1
cs_italy_woodbeam01
0 182 104 120 0 -0.707126 -0.707087 26.921875 -962.375 1 0 1
0 188 122 101.999 0 -0.707126 -0.707087 26.78125 -962 1 0 1
0 188 104 120 0 -0.707126 -0.707087 26.921875 -962 1 0 1
pepsi2_arch_woodf3
0 174 -32 102.001 0 -1 0 -120.5 -1.140617 1 0 1
0 174 -32 106 0 -1 0 -120.5 -1.109375 1 0 1
0 168 -32 106 0 -1 0 -120.546875 -1.109375 1 0 1
pepsi2_arch_woodf3
0 174 -32 102.001 0 -1 0 -120.5 -1.140617 1 0 1
0 168 -32 106 0 -1 0 -120.546875 -1.109375 1 0 1
0 168 -32 102.001 0 -1 0 -120.546875 -1.140617 1 0 1
cs_italy_woodbeam01
0 168 -32 102.001 -1 0 0 55.120861 143.993175 1 0 1
0 168 -32 106 -1 0 0 55.138535 144.169906 1 0 1
0 168 -18 120 -1 0 0 55.262282 144.169906 1 0 1
cs_italy_woodbeam01
0 168 -32 102.001 -1 0 0 55.120861 143.993175 1 0 1
0 168 -18 120 -1 0 0 55.262282 144.169906 1 0 1
0 168 -14 120 -1 0 0 55.27996 143.993131 1 0 1
pepsi2_arch_woodf3
0 174 -32 106 1 0 0 -27.382812 -1.109375 1 0 1
0 174 -32 102.001 1 0 0 -27.382812 -1.140617 1 0 1
0 174 -14 120 1 0 0 -27.242188 -1 1 0 1
pepsi2_arch_woodf3
0 174 -32 106 1 0 0 -27.382812 -1.109375 1 0 1
0 174 -14 120 1 0 0 -27.242188 -1 1 0 1
0 174 -18 120 1 0 0 -27.273438 -1 1 0 1
pepsi2_arch_woodf3
0 174 -18 120 0 0 1 -85.510882 -19.377511 1 0 1
0 174 -14 120 0 0 1 -85.510882 -19.35519 1 0 1
0 168 -14 120 0 0 1 -85.544364 -19.35519 1 0 1
pepsi2_arch_woodf3
0 174 -18 120 0 0 1 -85.510882 -19.377511 1 0 1
0 168 -14 120 0 0 1 -85.544364 -19.35519 1 0 1
0 168 -18 120 0 0 1 -85.544364 -19.377511 1 0 1
cs_italy_woodbeam01
0 168 -32 106 0 -0.707107 0.707107 -28.21875 965 1 0 1
0 174 -32 106 0 -0.707107 0.707107 -28.21875 964.625 1 0 1
0 174 -18 120 0 -0.707107 0.707107 -28.109375 964.625 1 0 1
cs_italy_woodbeam01
0 168 -32 106 0 -0.707107 0.707107 -28.21875 965 1 0 1
0 174 -18 120 0 -0.707107 0.707107 -28.109375 964.625 1 0 1
0 168 -18 120 0 -0.707107 0.707107 -28.109375 965 1 0 1
cs_italy_woodbeam01
0 174 -32 102.001 0 0.707087 -0.707126 -28.21875 964.625 1 0 1
0 168 -32 102.001 0 0.707087 -0.707126 -28.21875 965 1 0 1
0 168 -14 120 0 0.707087 -0.707126 -28.078125 965 1 0 1
cs_italy_woodbeam01
0 174 -32 102.001 0 0.707087 -0.707126 -28.21875 964.625 1 0 1
0 168 -14 120 0 0.707087 -0.707126 -28.078125 965 1 0 1
0 174 -14 120 0 0.707087 -0.707126 -28.078125 964.625 1 0 1
cs_italy_woodbeam01
0 -218 -40 120 -1 0 0 -1.0625 -219 1 0 1
0 -218 -32 120 -1 0 0 -1.0625 -218.5 1 0 1
0 -218 -32 0 -1 0 0 -2 -218.5 1 0 1
cs_italy_woodbeam01
0 -218 -40 120 -1 0 0 -1.0625 -219 1 0 1
0 -218 -32 0 -1 0 0 -2 -218.5 1 0 1
0 -218 -40 0 -1 0 0 -2 -219 1 0 1
cs_italy_woodbeam01
0 -212 -40 0 1 0 0 2.9375 -219 1 0 1
0 -212 -32 0 1 0 0 2.9375 -218.5 1 0 1
0 -212 -32 120 1 0 0 2 -218.5 1 0 1
cs_italy_woodbeam01
0 -212 -40 0 1 0 0 2.9375 -219 1 0 1
0 -212 -32 120 1 0 0 2 -218.5 1 0 1
0 -212 -40 120 1 0 0 2 -219 1 0 1
pepsi2_arch_woodf3
0 -218 -40 0 0 0 -1 -87.698382 -19.500279 1 0 1
0 -218 -32 0 0 0 -1 -87.698382 -19.455636 1 0 1
0 -212 -32 0 0 0 -1 -87.6649 -19.455636 1 0 1
pepsi2_arch_woodf3
0 -218 -40 0 0 0 -1 -87.698382 -19.500279 1 0 1
0 -212 -32 0 0 0 -1 -87.6649 -19.455636 1 0 1
0 -212 -40 0 0 0 -1 -87.6649 -19.500279 1 0 1
pepsi2_arch_woodf3
0 -212 -40 120 0 0 1 -87.6649 -19.500279 1 0 1
0 -212 -32 120 0 0 1 -87.6649 -19.455636 1 0 1
0 -218 -32 120 0 0 1 -87.698382 -19.455636 1 0 1
pepsi2_arch_woodf3
0 -212 -40 120 0 0 1 -87.6649 -19.500279 1 0 1
0 -218 -32 120 0 0 1 -87.698382 -19.455636 1 0 1
0 -218 -40 120 0 0 1 -87.698382 -19.500279 1 0 1
cs_italy_woodbeam01
0 -212 -32 120 0 1 0 -1.0625 -986.625 1 0 1
0 -212 -32 0 0 1 0 -2 -986.625 1 0 1
0 -218 -32 0 0 1 0 -2 -987 1 0 1
cs_italy_woodbeam01
0 -212 -32 120 0 1 0 -1.0625 -986.625 1 0 1
0 -218 -32 0 0 1 0 -2 -987 1 0 1
0 -218 -32 120 0 1 0 -1.0625 -987 1 0 1
cs_italy_woodbeam01
0 -212 -40 0 0 -1 0 -2 -986.625 1 0 1
0 -212 -40 120 0 -1 0 -1.0625 -986.625 1 0 1
0 -218 -40 120 0 -1 0 -1.0625 -987 1 0 1
cs_italy_woodbeam01
0 -212 -40 0 0 -1 0 -2 -986.625 1 0 1
0 -218 -40 120 0 -1 0 -1.0625 -987 1 0 1
0 -218 -40 0 0 -1 0 -2 -987 1 0 1
pepsi2_arch_woodf3
0 -212 -32 102.001 0 -1 0 -123.515625 -1.140617 1 0 1
0 -212 -32 106 0 -1 0 -123.515625 -1.109375 1 0 1
0 -218 -32 106 0 -1 0 -123.5625 -1.109375 1 0 1
pepsi2_arch_woodf3
0 -212 -32 102.001 0 -1 0 -123.515625 -1.140617 1 0 1
0 -218 -32 106 0 -1 0 -123.5625 -1.109375 1 0 1
0 -218 -32 102.001 0 -1 0 -123.5625 -1.140617 1 0 1
pepsi2_arch_woodf3
0 -218 -32 102.001 -1 0 0 27.382812 -1.140617 1 0 1
0 -218 -32 106 -1 0 0 27.382812 -1.109375 1 0 1
0 -218 -18 120 -1 0 0 27.273438 -1 1 0 1
pepsi2_arch_woodf3
0 -218 -32 102.001 -1 0 0 27.382812 -1.140617 1 0 1
0 -218 -18 120 -1 0 0 27.273438 -1 1 0 1
0 -218 -14 120 -1 0 0 27.242188 -1 1 0 1
cs_italy_woodbeam01
0 -212 -32 106 1 0 0 -90.463027 -142.669906 1 0 1
0 -212 -32 102.001 1 0 0 -90.480701 -142.493175 1 0 1
0 -212 -14 120 1 0 0 -90.321602 -142.493131 1 0 1
cs_italy_woodbeam01
0 -212 -32 106 1 0 0 -90.463027 -142.669906 1 0 1
0 -212 -14 120 1 0 0 -90.321602 -142.493131 1 0 1
0 -212 -18 120 1 0 0 -90.33928 -142.669906 1 0 1
pepsi2_arch_woodf3
0 -212 -18 120 0 0 1 -87.6649 -19.377511 1 0 1
0 -212 -14 120 0 0 1 -87.6649 -19.35519 1 0 1
0 -218 -14 120 0 0 1 -87.698382 -19.35519 1 0 1
pepsi2_arch_woodf3
0 -212 -18 120 0 0 1 -87.6649 -19.377511 1 0 1
0 -218 -14 120 0 0 1 -87.698382 -19.35519 1 0 1
0 -218 -18 120 0 0 1 -87.698382 -19.377511 1 0 1
cs_italy_woodbeam01
0 -218 -32 106 0 -0.707107 0.707107 -28.21875 989 1 0 1
0 -212 -32 106 0 -0.707107 0.707107 -28.21875 988.625 1 0 1
0 -212 -18 120 0 -0.707107 0.707107 -28.109375 988.625 1 0 1
cs_italy_woodbeam01
0 -218 -32 106 0 -0.707107 0.707107 -28.21875 989 1 0 1
0 -212 -18 120 0 -0.707107 0.707107 -28.109375 988.625 1 0 1
0 -218 -18 120 0 -0.707107 0.707107 -28.109375 989 1 0 1
cs_italy_woodbeam01
0 -212 -32 102.001 0 0.707087 -0.707126 -28.21875 988.625 1 0 1
0 -218 -32 102.001 0 0.707087 -0.707126 -28.21875 989 1 0 1
0 -218 -14 120 0 0.707087 -0.707126 -28.078125 989 1 0 1
cs_italy_woodbeam01
0 -212 -32 102.001 0 0.707087 -0.707126 -28.21875 988.625 1 0 1
0 -218 -14 120 0 0.707087 -0.707126 -28.078125 989 1 0 1
0 -212 -14 120 0 0.707087 -0.707126 -28.078125 988.625 1 0 1
cs_italy_woodbeam01
0 -212 130 120 0 1 0 -1.0625 -986.625 1 0 1
0 -212 130 0 0 1 0 -2 -986.625 1 0 1
0 -218 130 0 0 1 0 -2 -987 1 0 1
cs_italy_woodbeam01
0 -212 130 120 0 1 0 -1.0625 -986.625 1 0 1
0 -218 130 0 0 1 0 -2 -987 1 0 1
0 -218 130 120 0 1 0 -1.0625 -987 1 0 1
cs_italy_woodbeam01
0 -212 122 0 0 -1 0 -2 -986.625 1 0 1
0 -212 122 120 0 -1 0 -1.0625 -986.625 1 0 1
0 -218 122 120 0 -1 0 -1.0625 -987 1 0 1
cs_italy_woodbeam01
0 -212 122 0 0 -1 0 -2 -986.625 1 0 1
0 -218 122 120 0 -1 0 -1.0625 -987 1 0 1
0 -218 122 0 0 -1 0 -2 -987 1 0 1
cs_italy_woodbeam01
0 -218 122 0 -1 0 0 -2 -209 1 0 1
0 -218 122 120 -1 0 0 -1.0625 -209 1 0 1
0 -218 130 120 -1 0 0 -1.0625 -208.5 1 0 1
cs_italy_woodbeam01
0 -218 122 0 -1 0 0 -2 -209 1 0 1
0 -218 130 120 -1 0 0 -1.0625 -208.5 1 0 1
0 -218 130 0 -1 0 0 -2 -208.5 1 0 1
cs_italy_woodbeam01
0 -212 122 120 1 0 0 2 -209 1 0 1
0 -212 122 0 1 0 0 2.9375 -209 1 0 1
0 -212 130 0 1 0 0 2.9375 -208.5 1 0 1
cs_italy_woodbeam01
0 -212 122 120 1 0 0 2 -209 1 0 1
0 -212 130 0 1 0 0 2.9375 -208.5 1 0 1
0 -212 130 120 1 0 0 2 -208.5 1 0 1
pepsi2_arch_woodf3
0 -212 122 0 0 0 -1 -87.6649 -18.596261 1 0 1
0 -218 122 0 0 0 -1 -87.698382 -18.596261 1 0 1
0 -218 130 0 0 0 -1 -87.698382 -18.551618 1 0 1
pepsi2_arch_woodf3
0 -212 122 0 0 0 -1 -87.6649 -18.596261 1 0 1
0 -218 130 0 0 0 -1 -87.698382 -18.551618 1 0 1
0 -212 130 0 0 0 -1 -87.6649 -18.551618 1 0 1
pepsi2_arch_woodf3
0 -218 122 120 0 0 1 -87.698382 -18.596261 1 0 1
0 -212 122 120 0 0 1 -87.6649 -18.596261 1 0 1
0 -212 130 120 0 0 1 -87.6649 -18.551618 1 0 1
pepsi2_arch_woodf3
0 -218 122 120 0 0 1 -87.698382 -18.596261 1 0 1
0 -212 130 120 0 0 1 -87.6649 -18.551618 1 0 1
0 -218 130 120 0 0 1 -87.698382 -18.551618 1 0 1
cs_havana_woodm
0 182 -51 45 0 0 1 46.402995 201.641276 1 0 1
0 219 -51 45 0 0 1 46.402995 201.159505 1 0 1
0 219 130 45 0 0 1 44.046224 201.159505 1 0 1
cs_havana_woodm
0 182 -51 45 0 0 1 46.402995 201.641276 1 0 1
0 219 130 45 0 0 1 44.046224 201.159505 1 0 1
0 182 130 45 0 0 1 44.046224 201.641276 1 0 1
cs_havana_woodm
0 219 -50.998001 42.998 0.706871 0 -0.707343 144.428472 47.160781 1 0 1
0 216 -49 40 0.706871 0 -0.707343 144.483695 47.134766 1 0 1
0 216 130 40 0.706871 0 -0.707343 144.483695 44.804036 1 0 1
cs_havana_woodm
0 219 -50.998001 42.998 0.706871 0 -0.707343 144.428472 47.160781 1 0 1
0 216 130 40 0.706871 0 -0.707343 144.483695 44.804036 1 0 1
0 219 130 42.998 0.706871 0 -0.707343 144.428472 44.804036 1 0 1
cs_havana_woodm
0 216 -49 40 0 -0.832136 -0.554572 -22.522367 201.198568 1 0 1
0 219 -50.998001 42.998 0 -0.832136 -0.554572 -22.56928 201.159505 1 0 1
0 219 -51 43.001 0 -0.832136 -0.554572 -22.569327 201.159505 1 0 1
cs_havana_woodm
0 216 -49 40 0 -0.832136 -0.554572 -22.522367 201.198568 1 0 1
0 219 -51 43.001 0 -0.832136 -0.554572 -22.569327 201.159505 1 0 1
0 182 -51 43.001 0 -0.832136 -0.554572 -22.569327 201.641276 1 0 1
cs_havana_woodm
0 216 -49 40 0 -0.832136 -0.554572 -22.522367 201.198568 1 0 1
0 182 -51 43.001 0 -0.832136 -0.554572 -22.569327 201.641276 1 0 1
0 182 -49 40 0 -0.832136 -0.554572 -22.522367 201.641276 1 0 1
cs_havana_woodm
0 219 -51 45 0 -1 0 3.403646 201.159505 1 0 1
0 182 -51 45 0 -1 0 3.403646 201.641276 1 0 1
0 182 -51 43.001 0 -1 0 3.429674 201.641276 1 0 1
cs_havana_woodm
0 219 -51 45 0 -1 0 3.403646 201.159505 1 0 1
0 182 -51 43.001 0 -1 0 3.429674 201.641276 1 0 1
0 219 -51 43.001 0 -1 0 3.429674 201.159505 1 0 1
cs_havana_woodm
0 219 -50.998001 42.998 1 0 0 3.429714 47.160781 1 0 1
0 219 130 42.998 1 0 0 3.429714 44.804036 1 0 1
0 219 130 45 1 0 0 3.403646 44.804036 1 0 1
cs_havana_woodm
0 219 -50.998001 42.998 1 0 0 3.429714 47.160781 1 0 1
0 219 130 45 1 0 0 3.403646 44.804036 1 0 1
0 219 -51 45 1 0 0 3.403646 47.160807 1 0 1
cs_havana_woodm
0 219 -50.998001 42.998 1 0 0 3.429714 47.160781 1 0 1
0 219 -51 45 1 0 0 3.403646 47.160807 1 0 1
0 219 -51 43.001 1 0 0 3.429674 47.160807 1 0 1
cs_italy_cellarwall01
0 182 130 40 0 0 -1 120.4375 27.328125 1 0 1
0 216 130 40 0 0 -1 120.171875 27.328125 1 0 1
0 216 -49 40 0 0 -1 120.171875 28.726562 1 0 1
cs_italy_cellarwall01
0 182 130 40 0 0 -1 120.4375 27.328125 1 0 1
0 216 -49 40 0 0 -1 120.171875 28.726562 1 0 1
0 182 -49 40 0 0 -1 120.4375 28.726562 1 0 1
cs_italy_woodbeam01
0 188 130 120 0 1 0 -1.0625 -961.625 1 0 1
0 188 130 0 0 1 0 -2 -961.625 1 0 1
0 182 130 0 0 1 0 -2 -962 1 0 1
cs_italy_woodbeam01
0 188 130 120 0 1 0 -1.0625 -961.625 1 0 1
0 182 130 0 0 1 0 -2 -962 1 0 1
0 182 130 120 0 1 0 -1.0625 -962 1 0 1
cs_italy_woodbeam01
0 188 122 0 0 -1 0 -2 -961.625 1 0 1
0 188 122 120 0 -1 0 -1.0625 -961.625 1 0 1
0 182 122 120 0 -1 0 -1.0625 -962 1 0 1
cs_italy_woodbeam01
0 188 122 0 0 -1 0 -2 -961.625 1 0 1
0 182 122 120 0 -1 0 -1.0625 -962 1 0 1
0 182 122 0 0 -1 0 -2 -962 1 0 1
cs_italy_woodbeam01
0 182 122 0 -1 0 0 -2 -209 1 0 1
0 182 122 120 -1 0 0 -1.0625 -209 1 0 1
0 182 130 120 -1 0 0 -1.0625 -208.5 1 0 1
cs_italy_woodbeam01
0 182 122 0 -1 0 0 -2 -209 1 0 1
0 182 130 120 -1 0 0 -1.0625 -208.5 1 0 1
0 182 130 0 -1 0 0 -2 -208.5 1 0 1
cs_italy_woodbeam01
0 188 122 120 1 0 0 2 -209 1 0 1
0 188 122 0 1 0 0 2.9375 -209 1 0 1
0 188 130 0 1 0 0 2.9375 -208.5 1 0 1
cs_italy_woodbeam01
0 188 122 120 1 0 0 2 -209 1 0 1
0 188 130 0 1 0 0 2.9375 -208.5 1 0 1
0 188 130 120 1 0 0 2 -208.5 1 0 1
pepsi2_arch_woodf3
0 188 122 0 0 0 -1 -85.432757 -18.596261 1 0 1
0 182 122 0 0 0 -1 -85.466239 -18.596261 1 0 1
0 182 130 0 0 0 -1 -85.466239 -18.551618 1 0 1
pepsi2_arch_woodf3
0 188 122 0 0 0 -1 -85.432757 -18.596261 1 0 1
0 182 130 0 0 0 -1 -85.466239 -18.551618 1 0 1
0 188 130 0 0 0 -1 -85.432757 -18.551618 1 0 1
pepsi2_arch_woodf3
0 182 122 120 0 0 1 -85.466239 -18.596261 1 0 1
0 188 122 120 0 0 1 -85.432757 -18.596261 1 0 1
0 188 130 120 0 0 1 -85.432757 -18.551618 1 0 1
pepsi2_arch_woodf3
0 182 122 120 0 0 1 -85.466239 -18.596261 1 0 1
0 188 130 120 0 0 1 -85.432757 -18.551618 1 0 1
0 182 130 120 0 0 1 -85.466239 -18.551618 1 0 1
pepsi2_arch_woodf3
0 174 -40 106 0 1 0 120.5 -1.109375 1 0 1
0 174 -40 101.999 0 1 0 120.5 -1.140633 1 0 1
0 168 -40 101.999 0 1 0 120.546875 -1.140633 1 0 1
pepsi2_arch_woodf3
0 174 -40 106 0 1 0 120.5 -1.109375 1 0 1
0 168 -40 101.999 0 1 0 120.546875 -1.140633 1 0 1
0 168 -40 106 0 1 0 120.546875 -1.109375 1 0 1
cs_italy_woodbeam01
0 168 -58 120 -1 0 0 86.679043 168.502356 1 0 1
0 168 -54 120 -1 0 0 86.661365 168.325581 1 0 1
0 168 -40 106 -1 0 0 86.537618 168.325581 1 0 1
cs_italy_woodbeam01
0 168 -58 120 -1 0 0 86.679043 168.502356 1 0 1
0 168 -40 106 -1 0 0 86.537618 168.325581 1 0 1
0 168 -40 101.999 -1 0 0 86.519935 168.5024 1 0 1
pepsi2_arch_woodf3
0 174 -40 101.999 1 0 0 -27.445312 -1.140633 1 0 1
0 174 -40 106 1 0 0 -27.445312 -1.109375 1 0 1
0 174 -54 120 1 0 0 -27.554688 -1 1 0 1
pepsi2_arch_woodf3
0 174 -40 101.999 1 0 0 -27.445312 -1.140633 1 0 1
0 174 -54 120 1 0 0 -27.554688 -1 1 0 1
0 174 -58 120 1 0 0 -27.585938 -1 1 0 1
pepsi2_arch_woodf3
0 174 -58 120 0 0 1 -85.510882 -19.600725 1 0 1
0 174 -54 120 0 0 1 -85.510882 -19.578404 1 0 1
0 168 -54 120 0 0 1 -85.544364 -19.578404 1 0 1
pepsi2_arch_woodf3
0 174 -58 120 0 0 1 -85.510882 -19.600725 1 0 1
0 168 -54 120 0 0 1 -85.544364 -19.578404 1 0 1
0 168 -58 120 0 0 1 -85.544364 -19.600725 1 0 1
cs_italy_woodbeam01
0 168 -58 120 0 -0.707126 -0.707087 27.921875 -963.375 1 0 1
0 168 -40 101.999 0 -0.707126 -0.707087 27.78125 -963.375 1 0 1
0 174 -40 101.999 0 -0.707126 -0.707087 27.78125 -963 1 0 1
cs_italy_woodbeam01
0 168 -58 120 0 -0.707126 -0.707087 27.921875 -963.375 1 0 1
0 174 -40 101.999 0 -0.707126 -0.707087 27.78125 -963 1 0 1
0 174 -58 120 0 -0.707126 -0.707087 27.921875 -963 1 0 1
cs_italy_woodbeam01
0 174 -54 120 0 0.707107 0.707107 27.890625 -963 1 0 1
0 174 -40 106 0 0.707107 0.707107 27.78125 -963 1 0 1
0 168 -40 106 0 0.707107 0.707107 27.78125 -963.375 1 0 1
cs_italy_woodbeam01
0 174 -54 120 0 0.707107 0.707107 27.890625 -963 1 0 1
0 168 -40 106 0 0.707107 0.707107 27.78125 -963.375 1 0 1
0 168 -54 120 0 0.707107 0.707107 27.890625 -963.375 1 0 1
pepsi2_arch_woodf3
0 182 -18 120 0 0 1 -85.466239 -19.377511 1 0 1
0 188 -18 120 0 0 1 -85.432757 -19.377511 1 0 1
0 188 -14 120 0 0 1 -85.432757 -19.35519 1 0 1
pepsi2_arch_woodf3
0 182 -18 120 0 0 1 -85.466239 -19.377511 1 0 1
0 188 -14 120 0 0 1 -85.432757 -19.35519 1 0 1
0 182 -14 120 0 0 1 -85.466239 -19.35519 1 0 1
cs_italy_woodbeam01
0 182 -32 106 0 -0.707107 0.707107 -28.21875 964 1 0 1
0 188 -32 106 0 -0.707107 0.707107 -28.21875 963.625 1 0 1
0 188 -18 120 0 -0.707107 0.707107 -28.109375 963.625 1 0 1
cs_italy_woodbeam01
0 182 -32 106 0 -0.707107 0.707107 -28.21875 964 1 0 1
0 188 -18 120 0 -0.707107 0.707107 -28.109375 963.625 1 0 1
0 182 -18 120 0 -0.707107 0.707107 -28.109375 964 1 0 1
cs_italy_woodbeam01
0 188 -32 102.001 0 0.707087 -0.707126 -28.21875 963.625 1 0 1
0 182 -32 102.001 0 0.707087 -0.707126 -28.21875 964 1 0 1
0 182 -14 120 0 0.707087 -0.707126 -28.078125 964 1 0 1
cs_italy_woodbeam01
0 188 -32 102.001 0 0.707087 -0.707126 -28.21875 963.625 1 0 1
0 182 -14 120 0 0.707087 -0.707126 -28.078125 964 1 0 1
0 188 -14 120 0 0.707087 -0.707126 -28.078125 963.625 1 0 1
pepsi2_arch_woodf3
0 188 -32 106 0 -1 0 -120.390625 -1.109375 1 0 1
0 182 -32 106 0 -1 0 -120.4375 -1.109375 1 0 1
0 182 -32 102.001 0 -1 0 -120.4375 -1.140617 1 0 1
pepsi2_arch_woodf3
0 188 -32 106 0 -1 0 -120.390625 -1.109375 1 0 1
0 182 -32 102.001 0 -1 0 -120.4375 -1.140617 1 0 1
0 188 -32 102.001 0 -1 0 -120.390625 -1.140617 1 0 1
pepsi2_arch_woodf3
0 182 -32 106 -1 0 0 27.382812 -1.109375 1 0 1
0 182 -18 120 -1 0 0 27.273438 -1 1 0 1
0 182 -14 120 -1 0 0 27.242188 -1 1 0 1
pepsi2_arch_woodf3
0 182 -32 106 -1 0 0 27.382812 -1.109375 1 0 1
0 182 -14 120 -1 0 0 27.242188 -1 1 0 1
0 182 -32 102.001 -1 0 0 27.382812 -1.140617 1 0 1
cs_italy_woodbeam01
0 188 -32 102.001 1 0 0 -88.480701 -142.493175 1 0 1
0 188 -14 120 1 0 0 -88.321602 -142.493131 1 0 1
0 188 -18 120 1 0 0 -88.33928 -142.669906 1 0 1
cs_italy_woodbeam01
0 188 -32 102.001 1 0 0 -88.480701 -142.493175 1 0 1
0 188 -18 120 1 0 0 -88.33928 -142.669906 1 0 1
0 188 -32 106 1 0 0 -88.463027 -142.669906 1 0 1
cs_italy_woodbeam01
0 174 -148 102 -1 0 0 -28.820312 -16 1 0 1
0 174 -148 106 -1 0 0 -28.820312 -15.75 1 0 1
0 174 -66 106 -1 0 0 -28.179688 -15.75 1 0 1
cs_italy_woodbeam01
0 174 -148 102 -1 0 0 -28.820312 -16 1 0 1
0 174 -66 106 -1 0 0 -28.179688 -15.75 1 0 1
0 174 -66 102 -1 0 0 -28.179688 -16 1 0 1
cs_italy_woodbeam01
0 182 -148 106 1 0 0 28.820312 -15.75 1 0 1
0 182 -148 102 1 0 0 28.820312 -16 1 0 1
0 182 -66 102 1 0 0 28.179688 -16 1 0 1
cs_italy_woodbeam01
0 182 -148 106 1 0 0 28.820312 -15.75 1 0 1
0 182 -66 102 1 0 0 28.179688 -16 1 0 1
0 182 -66 106 1 0 0 28.179688 -15.75 1 0 1
cs_italy_woodbeam01
0 182 -148 102 0 0 -1 28.703125 -962.5 1 0 1
0 174 -148 102 0 0 -1 28.703125 -963 1 0 1
0 174 -66 102 0 0 -1 28.0625 -963 1 0 1
cs_italy_woodbeam01
0 182 -148 102 0 0 -1 28.703125 -962.5 1 0 1
0 174 -66 102 0 0 -1 28.0625 -963 1 0 1
0 182 -66 102 0 0 -1 28.0625 -962.5 1 0 1
cs_italy_woodbeam01
0 188 -32 120 0 1 0 -1.0625 -961.625 1 0 1
0 188 -32 0 0 1 0 -2 -961.625 1 0 1
0 182 -32 0 0 1 0 -2 -962 1 0 1
cs_italy_woodbeam01
0 188 -32 120 0 1 0 -1.0625 -961.625 1 0 1
0 182 -32 0 0 1 0 -2 -962 1 0 1
0 182 -32 120 0 1 0 -1.0625 -962 1 0 1
cs_italy_woodbeam01
0 188 -40 0 0 -1 0 -2 -961.625 1 0 1
0 188 -40 120 0 -1 0 -1.0625 -961.625 1 0 1
0 182 -40 120 0 -1 0 -1.0625 -962 1 0 1
cs_italy_woodbeam01
0 188 -40 0 0 -1 0 -2 -961.625 1 0 1
0 182 -40 120 0 -1 0 -1.0625 -962 1 0 1
0 182 -40 0 0 -1 0 -2 -962 1 0 1
cs_italy_woodbeam01
0 182 -40 0 -1 0 0 -2 -219 1 0 1
0 182 -40 120 -1 0 0 -1.0625 -219 1 0 1
0 182 -32 120 -1 0 0 -1.0625 -218.5 1 0 1
cs_italy_woodbeam01
0 182 -40 0 -1 0 0 -2 -219 1 0 1
0 182 -32 120 -1 0 0 -1.0625 -218.5 1 0 1
0 182 -32 0 -1 0 0 -2 -218.5 1 0 1
cs_italy_woodbeam01
0 188 -40 120 1 0 0 2 -219 1 0 1
0 188 -40 0 1 0 0 2.9375 -219 1 0 1
0 188 -32 0 1 0 0 2.9375 -218.5 1 0 1
cs_italy_woodbeam01
0 188 -40 120 1 0 0 2 -219 1 0 1
0 188 -32 0 1 0 0 2.9375 -218.5 1 0 1
0 188 -32 120 1 0 0 2 -218.5 1 0 1
pepsi2_arch_woodf3
0 188 -40 0 0 0 -1 -85.432757 -19.500279 1 0 1
0 182 -40 0 0 0 -1 -85.466239 -19.500279 1 0 1
0 182 -32 0 0 0 -1 -85.466239 -19.455636 1 0 1
pepsi2_arch_woodf3
0 188 -40 0 0 0 -1 -85.432757 -19.500279 1 0 1
0 182 -32 0 0 0 -1 -85.466239 -19.455636 1 0 1
0 188 -32 0 0 0 -1 -85.432757 -19.455636 1 0 1
pepsi2_arch_woodf3
0 182 -40 120 0 0 1 -85.466239 -19.500279 1 0 1
0 188 -40 120 0 0 1 -85.432757 -19.500279 1 0 1
0 188 -32 120 0 0 1 -85.432757 -19.455636 1 0 1
pepsi2_arch_woodf3
0 182 -40 120 0 0 1 -85.466239 -19.500279 1 0 1
0 188 -32 120 0 0 1 -85.432757 -19.455636 1 0 1
0 182 -32 120 0 0 1 -85.466239 -19.455636 1 0 1
cs_italy_woodbeam01
0 174 130 120 0 1 0 -1.0625 -962.625 1 0 1
0 174 130 0 0 1 0 -2 -962.625 1 0 1
0 168 130 0 0 1 0 -2 -963 1 0 1
cs_italy_woodbeam01
0 174 130 120 0 1 0 -1.0625 -962.625 1 0 1
0 168 130 0 0 1 0 -2 -963 1 0 1
0 168 130 120 0 1 0 -1.0625 -963 1 0 1
cs_italy_woodbeam01
0 174 122 0 0 -1 0 -2 -962.625 1 0 1
0 174 122 120 0 -1 0 -1.0625 -962.625 1 0 1
0 168 122 120 0 -1 0 -1.0625 -963 1 0 1
cs_italy_woodbeam01
0 174 122 0 0 -1 0 -2 -962.625 1 0 1
0 168 122 120 0 -1 0 -1.0625 -963 1 0 1
0 168 122 0 0 -1 0 -2 -963 1 0 1
cs_italy_woodbeam01
0 168 122 0 -1 0 0 -2 -209 1 0 1
0 168 122 120 -1 0 0 -1.0625 -209 1 0 1
0 168 130 120 -1 0 0 -1.0625 -208.5 1 0 1
cs_italy_woodbeam01
0 168 122 0 -1 0 0 -2 -209 1 0 1
0 168 130 120 -1 0 0 -1.0625 -208.5 1 0 1
0 168 130 0 -1 0 0 -2 -208.5 1 0 1
cs_italy_woodbeam01
0 174 122 120 1 0 0 2 -209 1 0 1
0 174 122 0 1 0 0 2.9375 -209 1 0 1
0 174 130 0 1 0 0 2.9375 -208.5 1 0 1
cs_italy_woodbeam01
0 174 122 120 1 0 0 2 -209 1 0 1
0 174 130 0 1 0 0 2.9375 -208.5 1 0 1
0 174 130 120 1 0 0 2 -208.5 1 0 1
pepsi2_arch_woodf3
0 174 122 0 0 0 -1 -85.510882 -18.596261 1 0 1
0 168 122 0 0 0 -1 -85.544364 -18.596261 1 0 1
0 168 130 0 0 0 -1 -85.544364 -18.551618 1 0 1
pepsi2_arch_woodf3
0 174 122 0 0 0 -1 -85.510882 -18.596261 1 0 1
0 168 130 0 0 0 -1 -85.544364 -18.551618 1 0 1
0 174 130 0 0 0 -1 -85.510882 -18.551618 1 0 1
pepsi2_arch_woodf3
0 168 122 120 0 0 1 -85.544364 -18.596261 1 0 1
0 174 122 120 0 0 1 -85.510882 -18.596261 1 0 1
0 174 130 120 0 0 1 -85.510882 -18.551618 1 0 1
pepsi2_arch_woodf3
0 168 122 120 0 0 1 -85.544364 -18.596261 1 0 1
0 174 130 120 0 0 1 -85.510882 -18.551618 1 0 1
0 168 130 120 0 0 1 -85.544364 -18.551618 1 0 1
pepsi2_arch_woodf3
0 182 130 106 -1 0 0 26.117188 -1.109375 1 0 1
0 182 144 120 -1 0 0 26.007812 -1 1 0 1
0 182 148 120 -1 0 0 25.976562 -1 1 0 1
pepsi2_arch_woodf3
0 182 130 106 -1 0 0 26.117188 -1.109375 1 0 1
0 182 148 120 -1 0 0 25.976562 -1 1 0 1
0 182 130 102.001 -1 0 0 26.117188 -1.140617 1 0 1
cs_italy_woodbeam01
0 188 130 102.001 1 0 0 -87.481534 -135.490038 1 0 1
0 188 148 120 1 0 0 -87.322435 -135.489994 1 0 1
0 188 144 120 1 0 0 -87.340113 -135.666769 1 0 1
cs_italy_woodbeam01
0 188 130 102.001 1 0 0 -87.481534 -135.490038 1 0 1
0 188 144 120 1 0 0 -87.340113 -135.666769 1 0 1
0 188 130 106 1 0 0 -87.46386 -135.666769 1 0 1
pepsi2_arch_woodf3
0 188 144 120 0 0 1 -85.432757 -18.473493 1 0 1
0 188 148 120 0 0 1 -85.432757 -18.451172 1 0 1
0 182 148 120 0 0 1 -85.466239 -18.451172 1 0 1
pepsi2_arch_woodf3
0 188 144 120 0 0 1 -85.432757 -18.473493 1 0 1
0 182 148 120 0 0 1 -85.466239 -18.451172 1 0 1
0 182 144 120 0 0 1 -85.466239 -18.473493 1 0 1
cs_italy_woodbeam01
0 188 130 106 0 -0.707107 0.707107 -26.21875 963.625 1 0 1
0 188 144 120 0 -0.707107 0.707107 -26.109375 963.625 1 0 1
0 182 144 120 0 -0.707107 0.707107 -26.109375 964 1 0 1
cs_italy_woodbeam01
0 188 130 106 0 -0.707107 0.707107 -26.21875 963.625 1 0 1
0 182 144 120 0 -0.707107 0.707107 -26.109375 964 1 0 1
0 182 130 106 0 -0.707107 0.707107 -26.21875 964 1 0 1
cs_italy_woodbeam01
0 182 130 102.001 0 0.707087 -0.707126 -26.21875 964 1 0 1
0 182 148 120 0 0.707087 -0.707126 -26.078125 964 1 0 1
0 188 148 120 0 0.707087 -0.707126 -26.078125 963.625 1 0 1
cs_italy_woodbeam01
0 182 130 102.001 0 0.707087 -0.707126 -26.21875 964 1 0 1
0 188 148 120 0 0.707087 -0.707126 -26.078125 963.625 1 0 1
0 188 130 102.001 0 0.707087 -0.707126 -26.21875 963.625 1 0 1
pepsi2_arch_woodf3
0 188 130 102.001 0 -1 0 -120.390625 -1.140617 1 0 1
0 188 130 106 0 -1 0 -120.390625 -1.109375 1 0 1
0 182 130 106 0 -1 0 -120.4375 -1.109375 1 0 1
pepsi2_arch_woodf3
0 188 130 102.001 0 -1 0 -120.390625 -1.140617 1 0 1
0 182 130 106 0 -1 0 -120.4375 -1.109375 1 0 1
0 182 130 102.001 0 -1 0 -120.4375 -1.140617 1 0 1
cs_italy_woodbeam01
0 -212 108 120 0 0.707107 0.707107 26.890625 -987 1 0 1
0 -212 122 106 0 0.707107 0.707107 26.78125 -987 1 0 1
0 -218 122 106 0 0.707107 0.707107 26.78125 -987.375 1 0 1
cs_italy_woodbeam01
0 -212 108 120 0 0.707107 0.707107 26.890625 -987 1 0 1
0 -218 122 106 0 0.707107 0.707107 26.78125 -987.375 1 0 1
0 -218 108 120 0 0.707107 0.707107 26.890625 -987.375 1 0 1
cs_italy_woodbeam01
0 -218 104 120 0 -0.707126 -0.707087 26.921875 -987.375 1 0 1
0 -218 122 101.999 0 -0.707126 -0.707087 26.78125 -987.375 1 0 1
0 -212 122 101.999 0 -0.707126 -0.707087 26.78125 -987 1 0 1
cs_italy_woodbeam01
0 -218 104 120 0 -0.707126 -0.707087 26.921875 -987.375 1 0 1
0 -212 122 101.999 0 -0.707126 -0.707087 26.78125 -987 1 0 1
0 -212 104 120 0 -0.707126 -0.707087 26.921875 -987 1 0 1
pepsi2_arch_woodf3
0 -212 122 101.999 0 1 0 123.515625 -1.140633 1 0 1
0 -218 122 101.999 0 1 0 123.5625 -1.140633 1 0 1
0 -218 122 106 0 1 0 123.5625 -1.109375 1 0 1
pepsi2_arch_woodf3
0 -212 122 101.999 0 1 0 123.515625 -1.140633 1 0 1
0 -218 122 106 0 1 0 123.5625 -1.109375 1 0 1
0 -212 122 106 0 1 0 123.515625 -1.109375 1 0 1
pepsi2_arch_woodf3
0 -218 122 101.999 -1 0 0 26.179688 -1.140633 1 0 1
0 -218 104 120 -1 0 0 26.320312 -1 1 0 1
0 -218 108 120 -1 0 0 26.289062 -1 1 0 1
pepsi2_arch_woodf3
0 -218 122 101.999 -1 0 0 26.179688 -1.140633 1 0 1
0 -218 108 120 -1 0 0 26.289062 -1 1 0 1
0 -218 122 106 -1 0 0 26.179688 -1.109375 1 0 1
cs_italy_woodbeam01
0 -212 104 120 1 0 0 -59.720515 -159.999219 1 0 1
0 -212 122 101.999 1 0 0 -59.879622 -159.999263 1 0 1
0 -212 122 106 1 0 0 -59.86194 -159.822444 1 0 1
cs_italy_woodbeam01
0 -212 104 120 1 0 0 -59.720515 -159.999219 1 0 1
0 -212 122 106 1 0 0 -59.86194 -159.822444 1 0 1
0 -212 108 120 1 0 0 -59.738193 -159.822444 1 0 1
pepsi2_arch_woodf3
0 -218 104 120 0 0 1 -87.698382 -18.696708 1 0 1
0 -212 104 120 0 0 1 -87.6649 -18.696708 1 0 1
0 -212 108 120 0 0 1 -87.6649 -18.674386 1 0 1
pepsi2_arch_woodf3
0 -218 104 120 0 0 1 -87.698382 -18.696708 1 0 1
0 -212 108 120 0 0 1 -87.6649 -18.674386 1 0 1
0 -218 108 120 0 0 1 -87.698382 -18.674386 1 0 1
end
