version 1
nodes
0 "root" -1
end
skeleton
time 0
0 0 0 0 0 0 0
end
triangles
phys
0 231 133 92 0 0 1 1 0 1 0 1
0 231 189 92 0 0 1 1 0 1 0 1
0 231 185 88 0 0 1 1 0 1 0 1
phys
0 231 133 92 0 0 1 1 0 1 0 1
0 231 185 88 0 0 1 1 0 1 0 1
0 231 137 88 0 0 1 1 0 1 0 1
phys
0 240 137 88 0 0 1 1 0 1 0 1
0 240 185 88 0 0 1 1 0 1 0 1
0 240 189 92 0 0 1 1 0 1 0 1
phys
0 240 137 88 0 0 1 1 0 1 0 1
0 240 189 92 0 0 1 1 0 1 0 1
0 240 133 92 0 0 1 1 0 1 0 1
phys
0 231 137 88 0 0 1 1 0 1 0 1
0 231 185 88 0 0 1 1 0 1 0 1
0 240 185 88 0 0 1 1 0 1 0 1
phys
0 231 137 88 0 0 1 1 0 1 0 1
0 240 185 88 0 0 1 1 0 1 0 1
0 240 137 88 0 0 1 1 0 1 0 1
phys
0 240 133 92 0 0 1 1 0 1 0 1
0 240 189 92 0 0 1 1 0 1 0 1
0 231 189 92 0 0 1 1 0 1 0 1
phys
0 240 133 92 0 0 1 1 0 1 0 1
0 231 189 92 0 0 1 1 0 1 0 1
0 231 133 92 0 0 1 1 0 1 0 1
phys
0 231 133 92 0 0 1 1 0 1 0 1
0 231 137 88 0 0 1 1 0 1 0 1
0 240 137 88 0 0 1 1 0 1 0 1
phys
0 231 133 92 0 0 1 1 0 1 0 1
0 240 137 88 0 0 1 1 0 1 0 1
0 240 133 92 0 0 1 1 0 1 0 1
phys
0 231 185 88 0 0 1 1 0 1 0 1
0 231 189 92 0 0 1 1 0 1 0 1
0 240 189 92 0 0 1 1 0 1 0 1
phys
0 231 185 88 0 0 1 1 0 1 0 1
0 240 189 92 0 0 1 1 0 1 0 1
0 240 185 88 0 0 1 1 0 1 0 1
phys
0 231 -50 82.001 0 0 1 2 0 1 0 1
0 231 -50 86 0 0 1 2 0 1 0 1
0 225 -50 86 0 0 1 2 0 1 0 1
phys
0 231 -50 82.001 0 0 1 2 0 1 0 1
0 225 -50 86 0 0 1 2 0 1 0 1
0 225 -50 82.001 0 0 1 2 0 1 0 1
phys
0 225 -50 82.001 0 0 1 2 0 1 0 1
0 225 -50 86 0 0 1 2 0 1 0 1
0 225 -36 100 0 0 1 2 0 1 0 1
phys
0 225 -50 82.001 0 0 1 2 0 1 0 1
0 225 -36 100 0 0 1 2 0 1 0 1
0 225 -32 100 0 0 1 2 0 1 0 1
phys
0 231 -50 86 0 0 1 2 0 1 0 1
0 231 -50 82.001 0 0 1 2 0 1 0 1
0 231 -32 100 0 0 1 2 0 1 0 1
phys
0 231 -50 86 0 0 1 2 0 1 0 1
0 231 -32 100 0 0 1 2 0 1 0 1
0 231 -36 100 0 0 1 2 0 1 0 1
phys
0 231 -36 100 0 0 1 2 0 1 0 1
0 231 -32 100 0 0 1 2 0 1 0 1
0 225 -32 100 0 0 1 2 0 1 0 1
phys
0 231 -36 100 0 0 1 2 0 1 0 1
0 225 -32 100 0 0 1 2 0 1 0 1
0 225 -36 100 0 0 1 2 0 1 0 1
phys
0 225 -50 86 0 0 1 2 0 1 0 1
0 231 -50 86 0 0 1 2 0 1 0 1
0 231 -36 100 0 0 1 2 0 1 0 1
phys
0 225 -50 86 0 0 1 2 0 1 0 1
0 231 -36 100 0 0 1 2 0 1 0 1
0 225 -36 100 0 0 1 2 0 1 0 1
phys
0 231 -50 82.001 0 0 1 2 0 1 0 1
0 225 -50 82.001 0 0 1 2 0 1 0 1
0 225 -32 100 0 0 1 2 0 1 0 1
phys
0 231 -50 82.001 0 0 1 2 0 1 0 1
0 225 -32 100 0 0 1 2 0 1 0 1
0 231 -32 100 0 0 1 2 0 1 0 1
phys
0 231 112 82.001 0 0 1 3 0 1 0 1
0 231 112 86 0 0 1 3 0 1 0 1
0 225 112 86 0 0 1 3 0 1 0 1
phys
0 231 112 82.001 0 0 1 3 0 1 0 1
0 225 112 86 0 0 1 3 0 1 0 1
0 225 112 82.001 0 0 1 3 0 1 0 1
phys
0 225 112 82.001 0 0 1 3 0 1 0 1
0 225 112 86 0 0 1 3 0 1 0 1
0 225 126 100 0 0 1 3 0 1 0 1
phys
0 225 112 82.001 0 0 1 3 0 1 0 1
0 225 126 100 0 0 1 3 0 1 0 1
0 225 130 100 0 0 1 3 0 1 0 1
phys
0 231 112 86 0 0 1 3 0 1 0 1
0 231 112 82.001 0 0 1 3 0 1 0 1
0 231 130 100 0 0 1 3 0 1 0 1
phys
0 231 112 86 0 0 1 3 0 1 0 1
0 231 130 100 0 0 1 3 0 1 0 1
0 231 126 100 0 0 1 3 0 1 0 1
phys
0 231 126 100 0 0 1 3 0 1 0 1
0 231 130 100 0 0 1 3 0 1 0 1
0 225 130 100 0 0 1 3 0 1 0 1
phys
0 231 126 100 0 0 1 3 0 1 0 1
0 225 130 100 0 0 1 3 0 1 0 1
0 225 126 100 0 0 1 3 0 1 0 1
phys
0 231 112 82.001 0 0 1 3 0 1 0 1
0 225 112 82.001 0 0 1 3 0 1 0 1
0 225 130 100 0 0 1 3 0 1 0 1
phys
0 231 112 82.001 0 0 1 3 0 1 0 1
0 225 130 100 0 0 1 3 0 1 0 1
0 231 130 100 0 0 1 3 0 1 0 1
phys
0 225 112 86 0 0 1 3 0 1 0 1
0 231 112 86 0 0 1 3 0 1 0 1
0 231 126 100 0 0 1 3 0 1 0 1
phys
0 225 112 86 0 0 1 3 0 1 0 1
0 231 126 100 0 0 1 3 0 1 0 1
0 225 126 100 0 0 1 3 0 1 0 1
phys
0 21 -149 23.004 0 0 1 4 0 1 0 1
0 20.996005 -149 23 0 0 1 4 0 1 0 1
0 18 -147 20 0 0 1 4 0 1 0 1
phys
0 21 -149 23.004 0 0 1 4 0 1 0 1
0 18 -147 20 0 0 1 4 0 1 0 1
0 18 147 20 0 0 1 4 0 1 0 1
phys
0 21 -149 23.004 0 0 1 4 0 1 0 1
0 18 147 20 0 0 1 4 0 1 0 1
0 20.996005 149 23 0 0 1 4 0 1 0 1
phys
0 21 -149 23.004 0 0 1 4 0 1 0 1
0 20.996005 149 23 0 0 1 4 0 1 0 1
0 21 149 23.004 0 0 1 4 0 1 0 1
phys
0 18 -147 20 0 0 1 4 0 1 0 1
0 20.996005 -149 23 0 0 1 4 0 1 0 1
0 -16 -149 23 0 0 1 4 0 1 0 1
phys
0 18 -147 20 0 0 1 4 0 1 0 1
0 -16 -149 23 0 0 1 4 0 1 0 1
0 -16 -147 20 0 0 1 4 0 1 0 1
phys
0 -16 149 23 0 0 1 4 0 1 0 1
0 20.996005 149 23 0 0 1 4 0 1 0 1
0 18 147 20 0 0 1 4 0 1 0 1
phys
0 -16 149 23 0 0 1 4 0 1 0 1
0 18 147 20 0 0 1 4 0 1 0 1
0 -16 147 20 0 0 1 4 0 1 0 1
phys
0 21 149 25 0 0 1 4 0 1 0 1
0 21 149 23.004 0 0 1 4 0 1 0 1
0 20.996005 149 23 0 0 1 4 0 1 0 1
phys
0 21 149 25 0 0 1 4 0 1 0 1
0 20.996005 149 23 0 0 1 4 0 1 0 1
0 -16 149 23 0 0 1 4 0 1 0 1
phys
0 21 149 25 0 0 1 4 0 1 0 1
0 -16 149 23 0 0 1 4 0 1 0 1
0 -16 149 25 0 0 1 4 0 1 0 1
phys
0 20.996005 -149 23 0 0 1 4 0 1 0 1
0 21 -149 23.004 0 0 1 4 0 1 0 1
0 21 -149 25 0 0 1 4 0 1 0 1
phys
0 20.996005 -149 23 0 0 1 4 0 1 0 1
0 21 -149 25 0 0 1 4 0 1 0 1
0 -16 -149 25 0 0 1 4 0 1 0 1
phys
0 20.996005 -149 23 0 0 1 4 0 1 0 1
0 -16 -149 25 0 0 1 4 0 1 0 1
0 -16 -149 23 0 0 1 4 0 1 0 1
phys
0 -16 149 25 0 0 1 4 0 1 0 1
0 -16 149 23 0 0 1 4 0 1 0 1
0 -16 147 20 0 0 1 4 0 1 0 1
phys
0 -16 149 25 0 0 1 4 0 1 0 1
0 -16 147 20 0 0 1 4 0 1 0 1
0 -16 -147 20 0 0 1 4 0 1 0 1
phys
0 -16 149 25 0 0 1 4 0 1 0 1
0 -16 -147 20 0 0 1 4 0 1 0 1
0 -16 -149 23 0 0 1 4 0 1 0 1
phys
0 -16 149 25 0 0 1 4 0 1 0 1
0 -16 -149 23 0 0 1 4 0 1 0 1
0 -16 -149 25 0 0 1 4 0 1 0 1
phys
0 21 -149 25 0 0 1 4 0 1 0 1
0 21 -149 23.004 0 0 1 4 0 1 0 1
0 21 149 23.004 0 0 1 4 0 1 0 1
phys
0 21 -149 25 0 0 1 4 0 1 0 1
0 21 149 23.004 0 0 1 4 0 1 0 1
0 21 149 25 0 0 1 4 0 1 0 1
phys
0 -16 147 20 0 0 1 4 0 1 0 1
0 18 147 20 0 0 1 4 0 1 0 1
0 18 -147 20 0 0 1 4 0 1 0 1
phys
0 -16 147 20 0 0 1 4 0 1 0 1
0 18 -147 20 0 0 1 4 0 1 0 1
0 -16 -147 20 0 0 1 4 0 1 0 1
phys
0 -16 -149 25 0 0 1 4 0 1 0 1
0 21 -149 25 0 0 1 4 0 1 0 1
0 21 149 25 0 0 1 4 0 1 0 1
phys
0 -16 -149 25 0 0 1 4 0 1 0 1
0 21 149 25 0 0 1 4 0 1 0 1
0 -16 149 25 0 0 1 4 0 1 0 1
phys
0 -161 112 20 0 0 1 5 0 1 0 1
0 -161 144 20 0 0 1 5 0 1 0 1
0 -161 144 -20 0 0 1 5 0 1 0 1
phys
0 -161 112 20 0 0 1 5 0 1 0 1
0 -161 144 -20 0 0 1 5 0 1 0 1
0 -161 112 -20 0 0 1 5 0 1 0 1
phys
0 -16 112 -20 0 0 1 5 0 1 0 1
0 -16 144 -20 0 0 1 5 0 1 0 1
0 -16 144 20 0 0 1 5 0 1 0 1
phys
0 -16 112 -20 0 0 1 5 0 1 0 1
0 -16 144 20 0 0 1 5 0 1 0 1
0 -16 112 20 0 0 1 5 0 1 0 1
phys
0 -161 112 -20 0 0 1 5 0 1 0 1
0 -161 144 -20 0 0 1 5 0 1 0 1
0 -16 144 -20 0 0 1 5 0 1 0 1
phys
0 -161 112 -20 0 0 1 5 0 1 0 1
0 -16 144 -20 0 0 1 5 0 1 0 1
0 -16 112 -20 0 0 1 5 0 1 0 1
phys
0 -16 112 20 0 0 1 5 0 1 0 1
0 -16 144 20 0 0 1 5 0 1 0 1
0 -161 144 20 0 0 1 5 0 1 0 1
phys
0 -16 112 20 0 0 1 5 0 1 0 1
0 -161 144 20 0 0 1 5 0 1 0 1
0 -161 112 20 0 0 1 5 0 1 0 1
phys
0 -16 144 20 0 0 1 5 0 1 0 1
0 -16 144 -20 0 0 1 5 0 1 0 1
0 -161 144 -20 0 0 1 5 0 1 0 1
phys
0 -16 144 20 0 0 1 5 0 1 0 1
0 -161 144 -20 0 0 1 5 0 1 0 1
0 -161 144 20 0 0 1 5 0 1 0 1
phys
0 -16 112 -20 0 0 1 5 0 1 0 1
0 -16 112 20 0 0 1 5 0 1 0 1
0 -161 112 20 0 0 1 5 0 1 0 1
phys
0 -16 112 -20 0 0 1 5 0 1 0 1
0 -161 112 20 0 0 1 5 0 1 0 1
0 -161 112 -20 0 0 1 5 0 1 0 1
phys
0 231 112 100 0 0 1 6 0 1 0 1
0 231 112 -20 0 0 1 6 0 1 0 1
0 225 112 -20 0 0 1 6 0 1 0 1
phys
0 231 112 100 0 0 1 6 0 1 0 1
0 225 112 -20 0 0 1 6 0 1 0 1
0 225 112 100 0 0 1 6 0 1 0 1
phys
0 231 104 -20 0 0 1 6 0 1 0 1
0 231 104 100 0 0 1 6 0 1 0 1
0 225 104 100 0 0 1 6 0 1 0 1
phys
0 231 104 -20 0 0 1 6 0 1 0 1
0 225 104 100 0 0 1 6 0 1 0 1
0 225 104 -20 0 0 1 6 0 1 0 1
phys
0 225 104 -20 0 0 1 6 0 1 0 1
0 225 104 100 0 0 1 6 0 1 0 1
0 225 112 100 0 0 1 6 0 1 0 1
phys
0 225 104 -20 0 0 1 6 0 1 0 1
0 225 112 100 0 0 1 6 0 1 0 1
0 225 112 -20 0 0 1 6 0 1 0 1
phys
0 231 104 100 0 0 1 6 0 1 0 1
0 231 104 -20 0 0 1 6 0 1 0 1
0 231 112 -20 0 0 1 6 0 1 0 1
phys
0 231 104 100 0 0 1 6 0 1 0 1
0 231 112 -20 0 0 1 6 0 1 0 1
0 231 112 100 0 0 1 6 0 1 0 1
phys
0 231 104 -20 0 0 1 6 0 1 0 1
0 225 104 -20 0 0 1 6 0 1 0 1
0 225 112 -20 0 0 1 6 0 1 0 1
phys
0 231 104 -20 0 0 1 6 0 1 0 1
0 225 112 -20 0 0 1 6 0 1 0 1
0 231 112 -20 0 0 1 6 0 1 0 1
phys
0 225 104 100 0 0 1 6 0 1 0 1
0 231 104 100 0 0 1 6 0 1 0 1
0 231 112 100 0 0 1 6 0 1 0 1
phys
0 225 104 100 0 0 1 6 0 1 0 1
0 231 112 100 0 0 1 6 0 1 0 1
0 225 112 100 0 0 1 6 0 1 0 1
phys
0 16 144 20 0 0 1 7 0 1 0 1
0 16 144 -20 0 0 1 7 0 1 0 1
0 -16 144 -20 0 0 1 7 0 1 0 1
phys
0 16 144 20 0 0 1 7 0 1 0 1
0 -16 144 -20 0 0 1 7 0 1 0 1
0 -16 144 20 0 0 1 7 0 1 0 1
phys
0 16 -144 -20 0 0 1 7 0 1 0 1
0 16 -144 20 0 0 1 7 0 1 0 1
0 -16 -144 20 0 0 1 7 0 1 0 1
phys
0 16 -144 -20 0 0 1 7 0 1 0 1
0 -16 -144 20 0 0 1 7 0 1 0 1
0 -16 -144 -20 0 0 1 7 0 1 0 1
phys
0 -16 -144 -20 0 0 1 7 0 1 0 1
0 -16 -144 20 0 0 1 7 0 1 0 1
0 -16 144 20 0 0 1 7 0 1 0 1
phys
0 -16 -144 -20 0 0 1 7 0 1 0 1
0 -16 144 20 0 0 1 7 0 1 0 1
0 -16 144 -20 0 0 1 7 0 1 0 1
phys
0 16 -144 20 0 0 1 7 0 1 0 1
0 16 -144 -20 0 0 1 7 0 1 0 1
0 16 144 -20 0 0 1 7 0 1 0 1
phys
0 16 -144 20 0 0 1 7 0 1 0 1
0 16 144 -20 0 0 1 7 0 1 0 1
0 16 144 20 0 0 1 7 0 1 0 1
phys
0 16 -144 -20 0 0 1 7 0 1 0 1
0 -16 -144 -20 0 0 1 7 0 1 0 1
0 -16 144 -20 0 0 1 7 0 1 0 1
phys
0 16 -144 -20 0 0 1 7 0 1 0 1
0 -16 144 -20 0 0 1 7 0 1 0 1
0 16 144 -20 0 0 1 7 0 1 0 1
phys
0 -16 -144 20 0 0 1 7 0 1 0 1
0 16 -144 20 0 0 1 7 0 1 0 1
0 16 144 20 0 0 1 7 0 1 0 1
phys
0 -16 -144 20 0 0 1 7 0 1 0 1
0 16 144 20 0 0 1 7 0 1 0 1
0 -16 144 20 0 0 1 7 0 1 0 1
phys
0 231 -50 100 0 0 1 8 0 1 0 1
0 231 -50 -20 0 0 1 8 0 1 0 1
0 225 -50 -20 0 0 1 8 0 1 0 1
phys
0 231 -50 100 0 0 1 8 0 1 0 1
0 225 -50 -20 0 0 1 8 0 1 0 1
0 225 -50 100 0 0 1 8 0 1 0 1
phys
0 231 -58 -20 0 0 1 8 0 1 0 1
0 231 -58 100 0 0 1 8 0 1 0 1
0 225 -58 100 0 0 1 8 0 1 0 1
phys
0 231 -58 -20 0 0 1 8 0 1 0 1
0 225 -58 100 0 0 1 8 0 1 0 1
0 225 -58 -20 0 0 1 8 0 1 0 1
phys
0 225 -58 -20 0 0 1 8 0 1 0 1
0 225 -58 100 0 0 1 8 0 1 0 1
0 225 -50 100 0 0 1 8 0 1 0 1
phys
0 225 -58 -20 0 0 1 8 0 1 0 1
0 225 -50 100 0 0 1 8 0 1 0 1
0 225 -50 -20 0 0 1 8 0 1 0 1
phys
0 231 -58 100 0 0 1 8 0 1 0 1
0 231 -58 -20 0 0 1 8 0 1 0 1
0 231 -50 -20 0 0 1 8 0 1 0 1
phys
0 231 -58 100 0 0 1 8 0 1 0 1
0 231 -50 -20 0 0 1 8 0 1 0 1
0 231 -50 100 0 0 1 8 0 1 0 1
phys
0 231 -58 -20 0 0 1 8 0 1 0 1
0 225 -58 -20 0 0 1 8 0 1 0 1
0 225 -50 -20 0 0 1 8 0 1 0 1
phys
0 231 -58 -20 0 0 1 8 0 1 0 1
0 225 -50 -20 0 0 1 8 0 1 0 1
0 231 -50 -20 0 0 1 8 0 1 0 1
phys
0 225 -58 100 0 0 1 8 0 1 0 1
0 231 -58 100 0 0 1 8 0 1 0 1
0 231 -50 100 0 0 1 8 0 1 0 1
phys
0 225 -58 100 0 0 1 8 0 1 0 1
0 231 -50 100 0 0 1 8 0 1 0 1
0 225 -50 100 0 0 1 8 0 1 0 1
phys
0 240 137 88.001 0 0 1 9 0 1 0 1
0 240 137 -20 0 0 1 9 0 1 0 1
0 231 137 -20 0 0 1 9 0 1 0 1
phys
0 240 137 88.001 0 0 1 9 0 1 0 1
0 231 137 -20 0 0 1 9 0 1 0 1
0 231 137 88.001 0 0 1 9 0 1 0 1
phys
0 240 133 -20 0 0 1 9 0 1 0 1
0 240 133 92.001 0 0 1 9 0 1 0 1
0 231 133 92.001 0 0 1 9 0 1 0 1
phys
0 240 133 -20 0 0 1 9 0 1 0 1
0 231 133 92.001 0 0 1 9 0 1 0 1
0 231 133 -20 0 0 1 9 0 1 0 1
phys
0 231 133 -20 0 0 1 9 0 1 0 1
0 231 133 92.001 0 0 1 9 0 1 0 1
0 231 137 88.001 0 0 1 9 0 1 0 1
phys
0 231 133 -20 0 0 1 9 0 1 0 1
0 231 137 88.001 0 0 1 9 0 1 0 1
0 231 137 -20 0 0 1 9 0 1 0 1
phys
0 240 133 92.001 0 0 1 9 0 1 0 1
0 240 133 -20 0 0 1 9 0 1 0 1
0 240 137 -20 0 0 1 9 0 1 0 1
phys
0 240 133 92.001 0 0 1 9 0 1 0 1
0 240 137 -20 0 0 1 9 0 1 0 1
0 240 137 88.001 0 0 1 9 0 1 0 1
phys
0 240 133 -20 0 0 1 9 0 1 0 1
0 231 133 -20 0 0 1 9 0 1 0 1
0 231 137 -20 0 0 1 9 0 1 0 1
phys
0 240 133 -20 0 0 1 9 0 1 0 1
0 231 137 -20 0 0 1 9 0 1 0 1
0 240 137 -20 0 0 1 9 0 1 0 1
phys
0 231 133 92.001 0 0 1 9 0 1 0 1
0 240 133 92.001 0 0 1 9 0 1 0 1
0 240 137 88.001 0 0 1 9 0 1 0 1
phys
0 231 133 92.001 0 0 1 9 0 1 0 1
0 240 137 88.001 0 0 1 9 0 1 0 1
0 231 137 88.001 0 0 1 9 0 1 0 1
phys
0 231 -58 86 0 0 1 10 0 1 0 1
0 231 -58 81.999 0 0 1 10 0 1 0 1
0 225 -58 81.999 0 0 1 10 0 1 0 1
phys
0 231 -58 86 0 0 1 10 0 1 0 1
0 225 -58 81.999 0 0 1 10 0 1 0 1
0 225 -58 86 0 0 1 10 0 1 0 1
phys
0 225 -76 100 0 0 1 10 0 1 0 1
0 225 -72 100 0 0 1 10 0 1 0 1
0 225 -58 86 0 0 1 10 0 1 0 1
phys
0 225 -76 100 0 0 1 10 0 1 0 1
0 225 -58 86 0 0 1 10 0 1 0 1
0 225 -58 81.999 0 0 1 10 0 1 0 1
phys
0 231 -58 81.999 0 0 1 10 0 1 0 1
0 231 -58 86 0 0 1 10 0 1 0 1
0 231 -72 100 0 0 1 10 0 1 0 1
phys
0 231 -58 81.999 0 0 1 10 0 1 0 1
0 231 -72 100 0 0 1 10 0 1 0 1
0 231 -76 100 0 0 1 10 0 1 0 1
phys
0 231 -76 100 0 0 1 10 0 1 0 1
0 231 -72 100 0 0 1 10 0 1 0 1
0 225 -72 100 0 0 1 10 0 1 0 1
phys
0 231 -76 100 0 0 1 10 0 1 0 1
0 225 -72 100 0 0 1 10 0 1 0 1
0 225 -76 100 0 0 1 10 0 1 0 1
phys
0 225 -76 100 0 0 1 10 0 1 0 1
0 225 -58 81.999 0 0 1 10 0 1 0 1
0 231 -58 81.999 0 0 1 10 0 1 0 1
phys
0 225 -76 100 0 0 1 10 0 1 0 1
0 231 -58 81.999 0 0 1 10 0 1 0 1
0 231 -76 100 0 0 1 10 0 1 0 1
phys
0 231 -72 100 0 0 1 10 0 1 0 1
0 231 -58 86 0 0 1 10 0 1 0 1
0 225 -58 86 0 0 1 10 0 1 0 1
phys
0 231 -72 100 0 0 1 10 0 1 0 1
0 225 -58 86 0 0 1 10 0 1 0 1
0 225 -72 100 0 0 1 10 0 1 0 1
phys
0 231 104 86 0 0 1 11 0 1 0 1
0 231 104 81.999 0 0 1 11 0 1 0 1
0 225 104 81.999 0 0 1 11 0 1 0 1
phys
0 231 104 86 0 0 1 11 0 1 0 1
0 225 104 81.999 0 0 1 11 0 1 0 1
0 225 104 86 0 0 1 11 0 1 0 1
phys
0 225 86 100 0 0 1 11 0 1 0 1
0 225 90 100 0 0 1 11 0 1 0 1
0 225 104 86 0 0 1 11 0 1 0 1
phys
0 225 86 100 0 0 1 11 0 1 0 1
0 225 104 86 0 0 1 11 0 1 0 1
0 225 104 81.999 0 0 1 11 0 1 0 1
phys
0 231 104 81.999 0 0 1 11 0 1 0 1
0 231 104 86 0 0 1 11 0 1 0 1
0 231 90 100 0 0 1 11 0 1 0 1
phys
0 231 104 81.999 0 0 1 11 0 1 0 1
0 231 90 100 0 0 1 11 0 1 0 1
0 231 86 100 0 0 1 11 0 1 0 1
phys
0 231 86 100 0 0 1 11 0 1 0 1
0 231 90 100 0 0 1 11 0 1 0 1
0 225 90 100 0 0 1 11 0 1 0 1
phys
0 231 86 100 0 0 1 11 0 1 0 1
0 225 90 100 0 0 1 11 0 1 0 1
0 225 86 100 0 0 1 11 0 1 0 1
phys
0 225 86 100 0 0 1 11 0 1 0 1
0 225 104 81.999 0 0 1 11 0 1 0 1
0 231 104 81.999 0 0 1 11 0 1 0 1
phys
0 225 86 100 0 0 1 11 0 1 0 1
0 231 104 81.999 0 0 1 11 0 1 0 1
0 231 86 100 0 0 1 11 0 1 0 1
phys
0 231 90 100 0 0 1 11 0 1 0 1
0 231 104 86 0 0 1 11 0 1 0 1
0 225 104 86 0 0 1 11 0 1 0 1
phys
0 231 90 100 0 0 1 11 0 1 0 1
0 225 104 86 0 0 1 11 0 1 0 1
0 225 90 100 0 0 1 11 0 1 0 1
phys
0 -16 149 25 0 0 1 12 0 1 0 1
0 -16 149 23 0 0 1 12 0 1 0 1
0 -161 149 23 0 0 1 12 0 1 0 1
phys
0 -16 149 25 0 0 1 12 0 1 0 1
0 -161 149 23 0 0 1 12 0 1 0 1
0 -161 149 25 0 0 1 12 0 1 0 1
phys
0 -16 112 20 0 0 1 12 0 1 0 1
0 -16 112 25 0 0 1 12 0 1 0 1
0 -161 112 25 0 0 1 12 0 1 0 1
phys
0 -16 112 20 0 0 1 12 0 1 0 1
0 -161 112 25 0 0 1 12 0 1 0 1
0 -161 112 20 0 0 1 12 0 1 0 1
phys
0 -161 112 20 0 0 1 12 0 1 0 1
0 -161 112 25 0 0 1 12 0 1 0 1
0 -161 149 25 0 0 1 12 0 1 0 1
phys
0 -161 112 20 0 0 1 12 0 1 0 1
0 -161 149 25 0 0 1 12 0 1 0 1
0 -161 149 23 0 0 1 12 0 1 0 1
phys
0 -161 112 20 0 0 1 12 0 1 0 1
0 -161 149 23 0 0 1 12 0 1 0 1
0 -161 147 20 0 0 1 12 0 1 0 1
phys
0 -16 112 25 0 0 1 12 0 1 0 1
0 -16 112 20 0 0 1 12 0 1 0 1
0 -16 147 20 0 0 1 12 0 1 0 1
phys
0 -16 112 25 0 0 1 12 0 1 0 1
0 -16 147 20 0 0 1 12 0 1 0 1
0 -16 149 23 0 0 1 12 0 1 0 1
phys
0 -16 112 25 0 0 1 12 0 1 0 1
0 -16 149 23 0 0 1 12 0 1 0 1
0 -16 149 25 0 0 1 12 0 1 0 1
phys
0 -16 112 20 0 0 1 12 0 1 0 1
0 -161 112 20 0 0 1 12 0 1 0 1
0 -161 147 20 0 0 1 12 0 1 0 1
phys
0 -16 112 20 0 0 1 12 0 1 0 1
0 -161 147 20 0 0 1 12 0 1 0 1
0 -16 147 20 0 0 1 12 0 1 0 1
phys
0 -161 112 25 0 0 1 12 0 1 0 1
0 -16 112 25 0 0 1 12 0 1 0 1
0 -16 149 25 0 0 1 12 0 1 0 1
phys
0 -161 112 25 0 0 1 12 0 1 0 1
0 -16 149 25 0 0 1 12 0 1 0 1
0 -161 149 25 0 0 1 12 0 1 0 1
phys
0 -161 147 20 0 0 1 12 0 1 0 1
0 -161 149 23 0 0 1 12 0 1 0 1
0 -16 149 23 0 0 1 12 0 1 0 1
phys
0 -161 147 20 0 0 1 12 0 1 0 1
0 -16 149 23 0 0 1 12 0 1 0 1
0 -16 147 20 0 0 1 12 0 1 0 1
phys
0 225 -50 108 0 0 1 13 0 1 0 1
0 225 -50 100 0 0 1 13 0 1 0 1
0 -155 -50 100 0 0 1 13 0 1 0 1
phys
0 225 -50 108 0 0 1 13 0 1 0 1
0 -155 -50 100 0 0 1 13 0 1 0 1
0 -155 -50 108 0 0 1 13 0 1 0 1
phys
0 225 -58 100 0 0 1 13 0 1 0 1
0 225 -58 108 0 0 1 13 0 1 0 1
0 -155 -58 108 0 0 1 13 0 1 0 1
phys
0 225 -58 100 0 0 1 13 0 1 0 1
0 -155 -58 108 0 0 1 13 0 1 0 1
0 -155 -58 100 0 0 1 13 0 1 0 1
phys
0 -155 -58 100 0 0 1 13 0 1 0 1
0 -155 -58 108 0 0 1 13 0 1 0 1
0 -155 -50 108 0 0 1 13 0 1 0 1
phys
0 -155 -58 100 0 0 1 13 0 1 0 1
0 -155 -50 108 0 0 1 13 0 1 0 1
0 -155 -50 100 0 0 1 13 0 1 0 1
phys
0 225 -58 108 0 0 1 13 0 1 0 1
0 225 -58 100 0 0 1 13 0 1 0 1
0 225 -50 100 0 0 1 13 0 1 0 1
phys
0 225 -58 108 0 0 1 13 0 1 0 1
0 225 -50 100 0 0 1 13 0 1 0 1
0 225 -50 108 0 0 1 13 0 1 0 1
phys
0 225 -58 100 0 0 1 13 0 1 0 1
0 -155 -58 100 0 0 1 13 0 1 0 1
0 -155 -50 100 0 0 1 13 0 1 0 1
phys
0 225 -58 100 0 0 1 13 0 1 0 1
0 -155 -50 100 0 0 1 13 0 1 0 1
0 225 -50 100 0 0 1 13 0 1 0 1
phys
0 -155 -58 108 0 0 1 13 0 1 0 1
0 225 -58 108 0 0 1 13 0 1 0 1
0 225 -50 108 0 0 1 13 0 1 0 1
phys
0 -155 -58 108 0 0 1 13 0 1 0 1
0 225 -50 108 0 0 1 13 0 1 0 1
0 -155 -50 108 0 0 1 13 0 1 0 1
phys
0 225 112 108 0 0 1 14 0 1 0 1
0 225 112 100 0 0 1 14 0 1 0 1
0 -155 112 100 0 0 1 14 0 1 0 1
phys
0 225 112 108 0 0 1 14 0 1 0 1
0 -155 112 100 0 0 1 14 0 1 0 1
0 -155 112 108 0 0 1 14 0 1 0 1
phys
0 225 104 100 0 0 1 14 0 1 0 1
0 225 104 108 0 0 1 14 0 1 0 1
0 -155 104 108 0 0 1 14 0 1 0 1
phys
0 225 104 100 0 0 1 14 0 1 0 1
0 -155 104 108 0 0 1 14 0 1 0 1
0 -155 104 100 0 0 1 14 0 1 0 1
phys
0 -155 104 100 0 0 1 14 0 1 0 1
0 -155 104 108 0 0 1 14 0 1 0 1
0 -155 112 108 0 0 1 14 0 1 0 1
phys
0 -155 104 100 0 0 1 14 0 1 0 1
0 -155 112 108 0 0 1 14 0 1 0 1
0 -155 112 100 0 0 1 14 0 1 0 1
phys
0 225 104 108 0 0 1 14 0 1 0 1
0 225 104 100 0 0 1 14 0 1 0 1
0 225 112 100 0 0 1 14 0 1 0 1
phys
0 225 104 108 0 0 1 14 0 1 0 1
0 225 112 100 0 0 1 14 0 1 0 1
0 225 112 108 0 0 1 14 0 1 0 1
phys
0 225 104 100 0 0 1 14 0 1 0 1
0 -155 104 100 0 0 1 14 0 1 0 1
0 -155 112 100 0 0 1 14 0 1 0 1
phys
0 225 104 100 0 0 1 14 0 1 0 1
0 -155 112 100 0 0 1 14 0 1 0 1
0 225 112 100 0 0 1 14 0 1 0 1
phys
0 -155 104 108 0 0 1 14 0 1 0 1
0 225 104 108 0 0 1 14 0 1 0 1
0 225 112 108 0 0 1 14 0 1 0 1
phys
0 -155 104 108 0 0 1 14 0 1 0 1
0 225 112 108 0 0 1 14 0 1 0 1
0 -155 112 108 0 0 1 14 0 1 0 1
phys
0 240 185 -20 0 0 1 15 0 1 0 1
0 240 185 88.014 0 0 1 15 0 1 0 1
0 231 185 88.016 0 0 1 15 0 1 0 1
phys
0 240 185 -20 0 0 1 15 0 1 0 1
0 231 185 88.016 0 0 1 15 0 1 0 1
0 231 185 -20 0 0 1 15 0 1 0 1
phys
0 231 185 -20 0 0 1 15 0 1 0 1
0 231 185 88.016 0 0 1 15 0 1 0 1
0 231 189 92.018 0 0 1 15 0 1 0 1
phys
0 231 185 -20 0 0 1 15 0 1 0 1
0 231 189 92.018 0 0 1 15 0 1 0 1
0 231 189 -20 0 0 1 15 0 1 0 1
phys
0 240 189 92.016 0 0 1 15 0 1 0 1
0 240 185 88.014 0 0 1 15 0 1 0 1
0 240 185 -20 0 0 1 15 0 1 0 1
phys
0 240 189 92.016 0 0 1 15 0 1 0 1
0 240 185 -20 0 0 1 15 0 1 0 1
0 240 189 -20 0 0 1 15 0 1 0 1
phys
0 240 185 -20 0 0 1 15 0 1 0 1
0 231 185 -20 0 0 1 15 0 1 0 1
0 231 189 -20 0 0 1 15 0 1 0 1
phys
0 240 185 -20 0 0 1 15 0 1 0 1
0 231 189 -20 0 0 1 15 0 1 0 1
0 240 189 -20 0 0 1 15 0 1 0 1
phys
0 231 185 88.016 0 0 1 15 0 1 0 1
0 240 185 88.014 0 0 1 15 0 1 0 1
0 240 189 92.016 0 0 1 15 0 1 0 1
phys
0 231 185 88.016 0 0 1 15 0 1 0 1
0 240 189 92.016 0 0 1 15 0 1 0 1
0 231 189 92.018 0 0 1 15 0 1 0 1
phys
0 240 189 92.016 0 0 1 15 0 1 0 1
0 240 189 -20 0 0 1 15 0 1 0 1
0 231 189 -20 0 0 1 15 0 1 0 1
phys
0 240 189 92.016 0 0 1 15 0 1 0 1
0 231 189 -20 0 0 1 15 0 1 0 1
0 231 189 92.018 0 0 1 15 0 1 0 1
phys
0 -16 -112 20 0 0 1 16 0 1 0 1
0 -16 -112 -20 0 0 1 16 0 1 0 1
0 -75 -112 -20 0 0 1 16 0 1 0 1
phys
0 -16 -112 20 0 0 1 16 0 1 0 1
0 -75 -112 -20 0 0 1 16 0 1 0 1
0 -75 -112 20 0 0 1 16 0 1 0 1
phys
0 -16 -144 -20 0 0 1 16 0 1 0 1
0 -16 -144 20 0 0 1 16 0 1 0 1
0 -75 -144 20 0 0 1 16 0 1 0 1
phys
0 -16 -144 -20 0 0 1 16 0 1 0 1
0 -75 -144 20 0 0 1 16 0 1 0 1
0 -75 -144 -20 0 0 1 16 0 1 0 1
phys
0 -75 -144 -20 0 0 1 16 0 1 0 1
0 -75 -144 20 0 0 1 16 0 1 0 1
0 -75 -112 20 0 0 1 16 0 1 0 1
phys
0 -75 -144 -20 0 0 1 16 0 1 0 1
0 -75 -112 20 0 0 1 16 0 1 0 1
0 -75 -112 -20 0 0 1 16 0 1 0 1
phys
0 -16 -144 20 0 0 1 16 0 1 0 1
0 -16 -144 -20 0 0 1 16 0 1 0 1
0 -16 -112 -20 0 0 1 16 0 1 0 1
phys
0 -16 -144 20 0 0 1 16 0 1 0 1
0 -16 -112 -20 0 0 1 16 0 1 0 1
0 -16 -112 20 0 0 1 16 0 1 0 1
phys
0 -16 -144 -20 0 0 1 16 0 1 0 1
0 -75 -144 -20 0 0 1 16 0 1 0 1
0 -75 -112 -20 0 0 1 16 0 1 0 1
phys
0 -16 -144 -20 0 0 1 16 0 1 0 1
0 -75 -112 -20 0 0 1 16 0 1 0 1
0 -16 -112 -20 0 0 1 16 0 1 0 1
phys
0 -75 -144 20 0 0 1 16 0 1 0 1
0 -16 -144 20 0 0 1 16 0 1 0 1
0 -16 -112 20 0 0 1 16 0 1 0 1
phys
0 -75 -144 20 0 0 1 16 0 1 0 1
0 -16 -112 20 0 0 1 16 0 1 0 1
0 -75 -112 20 0 0 1 16 0 1 0 1
end
