version 1
nodes
0 "root" -1
end
skeleton
time 0
0 0 0 0 0 0 0
end
triangles
phys
0 280 8 4 0 0 1 1 0 1 0 1
0 4.9 8 4 0 0 1 1 0 1 0 1
0 4.9 24 12 0 0 1 1 0 1 0 1
phys
0 280 8 4 0 0 1 1 0 1 0 1
0 4.9 24 12 0 0 1 1 0 1 0 1
0 280 24 12 0 0 1 1 0 1 0 1
phys
0 4.9 8 12 0 0 1 1 0 1 0 1
0 4.9 8 4 0 0 1 1 0 1 0 1
0 280 8 4 0 0 1 1 0 1 0 1
phys
0 4.9 8 12 0 0 1 1 0 1 0 1
0 280 8 4 0 0 1 1 0 1 0 1
0 280 8 12 0 0 1 1 0 1 0 1
phys
0 4.9 24 12 0 0 1 1 0 1 0 1
0 4.9 8 4 0 0 1 1 0 1 0 1
0 4.9 8 12 0 0 1 1 0 1 0 1
phys
0 280 8 12 0 0 1 1 0 1 0 1
0 280 8 4 0 0 1 1 0 1 0 1
0 280 24 12 0 0 1 1 0 1 0 1
phys
0 4.9 8 12 0 0 1 1 0 1 0 1
0 280 8 12 0 0 1 1 0 1 0 1
0 280 24 12 0 0 1 1 0 1 0 1
phys
0 4.9 8 12 0 0 1 1 0 1 0 1
0 280 24 12 0 0 1 1 0 1 0 1
0 4.9 24 12 0 0 1 1 0 1 0 1
phys
0 280 24 12 0 0 1 2 0 1 0 1
0 280 24 20 0 0 1 2 0 1 0 1
0 4.9 24 20 0 0 1 2 0 1 0 1
phys
0 280 24 12 0 0 1 2 0 1 0 1
0 4.9 24 20 0 0 1 2 0 1 0 1
0 4.9 24 12 0 0 1 2 0 1 0 1
phys
0 4.9 24 12 0 0 1 2 0 1 0 1
0 4.9 24 20 0 0 1 2 0 1 0 1
0 4.9 40 20 0 0 1 2 0 1 0 1
phys
0 280 24 20 0 0 1 2 0 1 0 1
0 280 24 12 0 0 1 2 0 1 0 1
0 280 40 20 0 0 1 2 0 1 0 1
phys
0 4.9 24 20 0 0 1 2 0 1 0 1
0 280 24 20 0 0 1 2 0 1 0 1
0 280 40 20 0 0 1 2 0 1 0 1
phys
0 4.9 24 20 0 0 1 2 0 1 0 1
0 280 40 20 0 0 1 2 0 1 0 1
0 4.9 40 20 0 0 1 2 0 1 0 1
phys
0 280 24 12 0 0 1 2 0 1 0 1
0 4.9 24 12 0 0 1 2 0 1 0 1
0 4.9 40 20 0 0 1 2 0 1 0 1
phys
0 280 24 12 0 0 1 2 0 1 0 1
0 4.9 40 20 0 0 1 2 0 1 0 1
0 280 40 20 0 0 1 2 0 1 0 1
phys
0 135 -104 196 0 0 1 3 0 1 0 1
0 135 -98 196 0 0 1 3 0 1 0 1
0 135 -98 239 0 0 1 3 0 1 0 1
phys
0 135 -104 196 0 0 1 3 0 1 0 1
0 135 -98 239 0 0 1 3 0 1 0 1
0 135 -104 239 0 0 1 3 0 1 0 1
phys
0 129 -98 196 0 0 1 3 0 1 0 1
0 135 -98 196 0 0 1 3 0 1 0 1
0 135 -104 196 0 0 1 3 0 1 0 1
phys
0 129 -98 196 0 0 1 3 0 1 0 1
0 135 -104 196 0 0 1 3 0 1 0 1
0 129 -104 196 0 0 1 3 0 1 0 1
phys
0 129 -104 239 0 0 1 3 0 1 0 1
0 135 -104 239 0 0 1 3 0 1 0 1
0 135 -98 239 0 0 1 3 0 1 0 1
phys
0 129 -104 239 0 0 1 3 0 1 0 1
0 135 -98 239 0 0 1 3 0 1 0 1
0 129 -98 239 0 0 1 3 0 1 0 1
phys
0 135 -98 239 0 0 1 3 0 1 0 1
0 135 -98 196 0 0 1 3 0 1 0 1
0 129 -98 196 0 0 1 3 0 1 0 1
phys
0 135 -98 239 0 0 1 3 0 1 0 1
0 129 -98 196 0 0 1 3 0 1 0 1
0 129 -98 239 0 0 1 3 0 1 0 1
phys
0 135 -104 196 0 0 1 3 0 1 0 1
0 135 -104 239 0 0 1 3 0 1 0 1
0 129 -104 239 0 0 1 3 0 1 0 1
phys
0 135 -104 196 0 0 1 3 0 1 0 1
0 129 -104 239 0 0 1 3 0 1 0 1
0 129 -104 196 0 0 1 3 0 1 0 1
phys
0 129 -104 239 0 0 1 3 0 1 0 1
0 129 -98 239 0 0 1 3 0 1 0 1
0 129 -98 196 0 0 1 3 0 1 0 1
phys
0 129 -104 239 0 0 1 3 0 1 0 1
0 129 -98 196 0 0 1 3 0 1 0 1
0 129 -104 196 0 0 1 3 0 1 0 1
phys
0 296 -104 198 0 0 1 4 0 1 0 1
0 296 -96 198 0 0 1 4 0 1 0 1
0 296 -96 313 0 0 1 4 0 1 0 1
phys
0 296 -104 198 0 0 1 4 0 1 0 1
0 296 -96 313 0 0 1 4 0 1 0 1
0 296 -104 313 0 0 1 4 0 1 0 1
phys
0 294 -96 198 0 0 1 4 0 1 0 1
0 296 -96 198 0 0 1 4 0 1 0 1
0 296 -104 198 0 0 1 4 0 1 0 1
phys
0 294 -96 198 0 0 1 4 0 1 0 1
0 296 -104 198 0 0 1 4 0 1 0 1
0 294 -104 198 0 0 1 4 0 1 0 1
phys
0 294 -104 313 0 0 1 4 0 1 0 1
0 296 -104 313 0 0 1 4 0 1 0 1
0 296 -96 313 0 0 1 4 0 1 0 1
phys
0 294 -104 313 0 0 1 4 0 1 0 1
0 296 -96 313 0 0 1 4 0 1 0 1
0 294 -96 313 0 0 1 4 0 1 0 1
phys
0 296 -96 313 0 0 1 4 0 1 0 1
0 296 -96 198 0 0 1 4 0 1 0 1
0 294 -96 198 0 0 1 4 0 1 0 1
phys
0 296 -96 313 0 0 1 4 0 1 0 1
0 294 -96 198 0 0 1 4 0 1 0 1
0 294 -96 313 0 0 1 4 0 1 0 1
phys
0 296 -104 198 0 0 1 4 0 1 0 1
0 296 -104 313 0 0 1 4 0 1 0 1
0 294 -104 313 0 0 1 4 0 1 0 1
phys
0 296 -104 198 0 0 1 4 0 1 0 1
0 294 -104 313 0 0 1 4 0 1 0 1
0 294 -104 198 0 0 1 4 0 1 0 1
phys
0 294 -104 313 0 0 1 4 0 1 0 1
0 294 -96 313 0 0 1 4 0 1 0 1
0 294 -96 198 0 0 1 4 0 1 0 1
phys
0 294 -104 313 0 0 1 4 0 1 0 1
0 294 -96 198 0 0 1 4 0 1 0 1
0 294 -104 198 0 0 1 4 0 1 0 1
phys
0 129 -98 207 0 0 1 5 0 1 0 1
0 129 -98 196 0 0 1 5 0 1 0 1
0 2 -98 196 0 0 1 5 0 1 0 1
phys
0 129 -98 207 0 0 1 5 0 1 0 1
0 2 -98 196 0 0 1 5 0 1 0 1
0 2 -98 207 0 0 1 5 0 1 0 1
phys
0 129 -104 196 0 0 1 5 0 1 0 1
0 129 -104 207 0 0 1 5 0 1 0 1
0 2 -104 207 0 0 1 5 0 1 0 1
phys
0 129 -104 196 0 0 1 5 0 1 0 1
0 2 -104 207 0 0 1 5 0 1 0 1
0 2 -104 196 0 0 1 5 0 1 0 1
phys
0 2 -104 196 0 0 1 5 0 1 0 1
0 2 -104 207 0 0 1 5 0 1 0 1
0 2 -98 207 0 0 1 5 0 1 0 1
phys
0 2 -104 196 0 0 1 5 0 1 0 1
0 2 -98 207 0 0 1 5 0 1 0 1
0 2 -98 196 0 0 1 5 0 1 0 1
phys
0 129 -104 207 0 0 1 5 0 1 0 1
0 129 -104 196 0 0 1 5 0 1 0 1
0 129 -98 196 0 0 1 5 0 1 0 1
phys
0 129 -104 207 0 0 1 5 0 1 0 1
0 129 -98 196 0 0 1 5 0 1 0 1
0 129 -98 207 0 0 1 5 0 1 0 1
phys
0 129 -104 196 0 0 1 5 0 1 0 1
0 2 -104 196 0 0 1 5 0 1 0 1
0 2 -98 196 0 0 1 5 0 1 0 1
phys
0 129 -104 196 0 0 1 5 0 1 0 1
0 2 -98 196 0 0 1 5 0 1 0 1
0 129 -98 196 0 0 1 5 0 1 0 1
phys
0 2 -104 207 0 0 1 5 0 1 0 1
0 129 -104 207 0 0 1 5 0 1 0 1
0 129 -98 207 0 0 1 5 0 1 0 1
phys
0 2 -104 207 0 0 1 5 0 1 0 1
0 129 -98 207 0 0 1 5 0 1 0 1
0 2 -98 207 0 0 1 5 0 1 0 1
phys
0 -191 -104 230 0 0 1 6 0 1 0 1
0 -105 -104 230 0 0 1 6 0 1 0 1
0 -105 -96 230 0 0 1 6 0 1 0 1
phys
0 -191 -104 230 0 0 1 6 0 1 0 1
0 -105 -96 230 0 0 1 6 0 1 0 1
0 -191 -96 230 0 0 1 6 0 1 0 1
phys
0 -191 -96 228 0 0 1 6 0 1 0 1
0 -191 -96 230 0 0 1 6 0 1 0 1
0 -105 -96 230 0 0 1 6 0 1 0 1
phys
0 -191 -96 228 0 0 1 6 0 1 0 1
0 -105 -96 230 0 0 1 6 0 1 0 1
0 -105 -96 228 0 0 1 6 0 1 0 1
phys
0 -105 -104 228 0 0 1 6 0 1 0 1
0 -105 -104 230 0 0 1 6 0 1 0 1
0 -191 -104 230 0 0 1 6 0 1 0 1
phys
0 -105 -104 228 0 0 1 6 0 1 0 1
0 -191 -104 230 0 0 1 6 0 1 0 1
0 -191 -104 228 0 0 1 6 0 1 0 1
phys
0 -191 -104 228 0 0 1 6 0 1 0 1
0 -191 -104 230 0 0 1 6 0 1 0 1
0 -191 -96 230 0 0 1 6 0 1 0 1
phys
0 -191 -104 228 0 0 1 6 0 1 0 1
0 -191 -96 230 0 0 1 6 0 1 0 1
0 -191 -96 228 0 0 1 6 0 1 0 1
phys
0 -105 -96 228 0 0 1 6 0 1 0 1
0 -105 -96 230 0 0 1 6 0 1 0 1
0 -105 -104 230 0 0 1 6 0 1 0 1
phys
0 -105 -96 228 0 0 1 6 0 1 0 1
0 -105 -104 230 0 0 1 6 0 1 0 1
0 -105 -104 228 0 0 1 6 0 1 0 1
phys
0 -105 -104 228 0 0 1 6 0 1 0 1
0 -191 -104 228 0 0 1 6 0 1 0 1
0 -191 -96 228 0 0 1 6 0 1 0 1
phys
0 -105 -104 228 0 0 1 6 0 1 0 1
0 -191 -96 228 0 0 1 6 0 1 0 1
0 -105 -96 228 0 0 1 6 0 1 0 1
phys
0 280 72 36 0 0 1 7 0 1 0 1
0 280 72 44 0 0 1 7 0 1 0 1
0 4.9 72 44 0 0 1 7 0 1 0 1
phys
0 280 72 36 0 0 1 7 0 1 0 1
0 4.9 72 44 0 0 1 7 0 1 0 1
0 4.9 72 36 0 0 1 7 0 1 0 1
phys
0 4.9 72 36 0 0 1 7 0 1 0 1
0 4.9 72 44 0 0 1 7 0 1 0 1
0 4.9 88 44 0 0 1 7 0 1 0 1
phys
0 280 72 44 0 0 1 7 0 1 0 1
0 280 72 36 0 0 1 7 0 1 0 1
0 280 88 44 0 0 1 7 0 1 0 1
phys
0 4.9 72 44 0 0 1 7 0 1 0 1
0 280 72 44 0 0 1 7 0 1 0 1
0 280 88 44 0 0 1 7 0 1 0 1
phys
0 4.9 72 44 0 0 1 7 0 1 0 1
0 280 88 44 0 0 1 7 0 1 0 1
0 4.9 88 44 0 0 1 7 0 1 0 1
phys
0 280 72 36 0 0 1 7 0 1 0 1
0 4.9 72 36 0 0 1 7 0 1 0 1
0 4.9 88 44 0 0 1 7 0 1 0 1
phys
0 280 72 36 0 0 1 7 0 1 0 1
0 4.9 88 44 0 0 1 7 0 1 0 1
0 280 88 44 0 0 1 7 0 1 0 1
phys
0 294 -40 304.0002 0 0 1 8 0 1 0 1
0 294 -40 196 0 0 1 8 0 1 0 1
0 284 -40 196 0 0 1 8 0 1 0 1
phys
0 294 -40 304.0002 0 0 1 8 0 1 0 1
0 284 -40 196 0 0 1 8 0 1 0 1
0 284 -40 304.0002 0 0 1 8 0 1 0 1
phys
0 294 -44 196 0 0 1 8 0 1 0 1
0 294 -44 308.0002 0 0 1 8 0 1 0 1
0 284 -44 308.0002 0 0 1 8 0 1 0 1
phys
0 294 -44 196 0 0 1 8 0 1 0 1
0 284 -44 308.0002 0 0 1 8 0 1 0 1
0 284 -44 196 0 0 1 8 0 1 0 1
phys
0 284 -44 196 0 0 1 8 0 1 0 1
0 284 -44 308.0002 0 0 1 8 0 1 0 1
0 284 -40 304.0002 0 0 1 8 0 1 0 1
phys
0 284 -44 196 0 0 1 8 0 1 0 1
0 284 -40 304.0002 0 0 1 8 0 1 0 1
0 284 -40 196 0 0 1 8 0 1 0 1
phys
0 294 -44 308.0002 0 0 1 8 0 1 0 1
0 294 -44 196 0 0 1 8 0 1 0 1
0 294 -40 196 0 0 1 8 0 1 0 1
phys
0 294 -44 308.0002 0 0 1 8 0 1 0 1
0 294 -40 196 0 0 1 8 0 1 0 1
0 294 -40 304.0002 0 0 1 8 0 1 0 1
phys
0 294 -44 196 0 0 1 8 0 1 0 1
0 284 -44 196 0 0 1 8 0 1 0 1
0 284 -40 196 0 0 1 8 0 1 0 1
phys
0 294 -44 196 0 0 1 8 0 1 0 1
0 284 -40 196 0 0 1 8 0 1 0 1
0 294 -40 196 0 0 1 8 0 1 0 1
phys
0 284 -44 308.0002 0 0 1 8 0 1 0 1
0 294 -44 308.0002 0 0 1 8 0 1 0 1
0 294 -40 304.0002 0 0 1 8 0 1 0 1
phys
0 284 -44 308.0002 0 0 1 8 0 1 0 1
0 294 -40 304.0002 0 0 1 8 0 1 0 1
0 284 -40 304.0002 0 0 1 8 0 1 0 1
phys
0 -4 -40 304 0 0 1 9 0 1 0 1
0 -14 -40 304 0 0 1 9 0 1 0 1
0 -14 8 304 0 0 1 9 0 1 0 1
phys
0 -4 -40 304 0 0 1 9 0 1 0 1
0 -14 8 304 0 0 1 9 0 1 0 1
0 -4 8 304 0 0 1 9 0 1 0 1
phys
0 -14 -44 308 0 0 1 9 0 1 0 1
0 -4 -44 308 0 0 1 9 0 1 0 1
0 -4 12 308 0 0 1 9 0 1 0 1
phys
0 -14 -44 308 0 0 1 9 0 1 0 1
0 -4 12 308 0 0 1 9 0 1 0 1
0 -14 12 308 0 0 1 9 0 1 0 1
phys
0 -4 -44 308 0 0 1 9 0 1 0 1
0 -14 -44 308 0 0 1 9 0 1 0 1
0 -14 -40 304 0 0 1 9 0 1 0 1
phys
0 -4 -44 308 0 0 1 9 0 1 0 1
0 -14 -40 304 0 0 1 9 0 1 0 1
0 -4 -40 304 0 0 1 9 0 1 0 1
phys
0 -4 8 304 0 0 1 9 0 1 0 1
0 -14 8 304 0 0 1 9 0 1 0 1
0 -14 12 308 0 0 1 9 0 1 0 1
phys
0 -4 8 304 0 0 1 9 0 1 0 1
0 -14 12 308 0 0 1 9 0 1 0 1
0 -4 12 308 0 0 1 9 0 1 0 1
phys
0 -14 -44 308 0 0 1 9 0 1 0 1
0 -14 12 308 0 0 1 9 0 1 0 1
0 -14 8 304 0 0 1 9 0 1 0 1
phys
0 -14 -44 308 0 0 1 9 0 1 0 1
0 -14 8 304 0 0 1 9 0 1 0 1
0 -14 -40 304 0 0 1 9 0 1 0 1
phys
0 -4 -40 304 0 0 1 9 0 1 0 1
0 -4 8 304 0 0 1 9 0 1 0 1
0 -4 12 308 0 0 1 9 0 1 0 1
phys
0 -4 -40 304 0 0 1 9 0 1 0 1
0 -4 12 308 0 0 1 9 0 1 0 1
0 -4 -44 308 0 0 1 9 0 1 0 1
phys
0 -14 -96 313 0 0 1 10 0 1 0 1
0 -14 -96 198 0 0 1 10 0 1 0 1
0 -16 -96 198 0 0 1 10 0 1 0 1
phys
0 -14 -96 313 0 0 1 10 0 1 0 1
0 -16 -96 198 0 0 1 10 0 1 0 1
0 -16 -96 313 0 0 1 10 0 1 0 1
phys
0 -14 -104 198 0 0 1 10 0 1 0 1
0 -14 -104 313 0 0 1 10 0 1 0 1
0 -16 -104 313 0 0 1 10 0 1 0 1
phys
0 -14 -104 198 0 0 1 10 0 1 0 1
0 -16 -104 313 0 0 1 10 0 1 0 1
0 -16 -104 198 0 0 1 10 0 1 0 1
phys
0 -16 -104 198 0 0 1 10 0 1 0 1
0 -16 -104 313 0 0 1 10 0 1 0 1
0 -16 -96 313 0 0 1 10 0 1 0 1
phys
0 -16 -104 198 0 0 1 10 0 1 0 1
0 -16 -96 313 0 0 1 10 0 1 0 1
0 -16 -96 198 0 0 1 10 0 1 0 1
phys
0 -14 -104 313 0 0 1 10 0 1 0 1
0 -14 -104 198 0 0 1 10 0 1 0 1
0 -14 -96 198 0 0 1 10 0 1 0 1
phys
0 -14 -104 313 0 0 1 10 0 1 0 1
0 -14 -96 198 0 0 1 10 0 1 0 1
0 -14 -96 313 0 0 1 10 0 1 0 1
phys
0 -14 -104 198 0 0 1 10 0 1 0 1
0 -16 -104 198 0 0 1 10 0 1 0 1
0 -16 -96 198 0 0 1 10 0 1 0 1
phys
0 -14 -104 198 0 0 1 10 0 1 0 1
0 -16 -96 198 0 0 1 10 0 1 0 1
0 -14 -96 198 0 0 1 10 0 1 0 1
phys
0 -16 -104 313 0 0 1 10 0 1 0 1
0 -14 -104 313 0 0 1 10 0 1 0 1
0 -14 -96 313 0 0 1 10 0 1 0 1
phys
0 -16 -104 313 0 0 1 10 0 1 0 1
0 -14 -96 313 0 0 1 10 0 1 0 1
0 -16 -96 313 0 0 1 10 0 1 0 1
phys
0 294 12 308.001 0 0 1 11 0 1 0 1
0 294 12 196 0 0 1 11 0 1 0 1
0 284 12 196 0 0 1 11 0 1 0 1
phys
0 294 12 308.001 0 0 1 11 0 1 0 1
0 284 12 196 0 0 1 11 0 1 0 1
0 284 12 308.001 0 0 1 11 0 1 0 1
phys
0 294 8 196 0 0 1 11 0 1 0 1
0 294 8 304.001 0 0 1 11 0 1 0 1
0 284 8 304.001 0 0 1 11 0 1 0 1
phys
0 294 8 196 0 0 1 11 0 1 0 1
0 284 8 304.001 0 0 1 11 0 1 0 1
0 284 8 196 0 0 1 11 0 1 0 1
phys
0 284 8 196 0 0 1 11 0 1 0 1
0 284 8 304.001 0 0 1 11 0 1 0 1
0 284 12 308.001 0 0 1 11 0 1 0 1
phys
0 284 8 196 0 0 1 11 0 1 0 1
0 284 12 308.001 0 0 1 11 0 1 0 1
0 284 12 196 0 0 1 11 0 1 0 1
phys
0 294 8 304.001 0 0 1 11 0 1 0 1
0 294 8 196 0 0 1 11 0 1 0 1
0 294 12 196 0 0 1 11 0 1 0 1
phys
0 294 8 304.001 0 0 1 11 0 1 0 1
0 294 12 196 0 0 1 11 0 1 0 1
0 294 12 308.001 0 0 1 11 0 1 0 1
phys
0 294 8 196 0 0 1 11 0 1 0 1
0 284 8 196 0 0 1 11 0 1 0 1
0 284 12 196 0 0 1 11 0 1 0 1
phys
0 294 8 196 0 0 1 11 0 1 0 1
0 284 12 196 0 0 1 11 0 1 0 1
0 294 12 196 0 0 1 11 0 1 0 1
phys
0 284 8 304.001 0 0 1 11 0 1 0 1
0 294 8 304.001 0 0 1 11 0 1 0 1
0 294 12 308.001 0 0 1 11 0 1 0 1
phys
0 284 8 304.001 0 0 1 11 0 1 0 1
0 294 12 308.001 0 0 1 11 0 1 0 1
0 284 12 308.001 0 0 1 11 0 1 0 1
phys
0 278 -104 196 0 0 1 12 0 1 0 1
0 278 -104 207 0 0 1 12 0 1 0 1
0 151 -104 207 0 0 1 12 0 1 0 1
phys
0 278 -104 196 0 0 1 12 0 1 0 1
0 151 -104 207 0 0 1 12 0 1 0 1
0 151 -104 196 0 0 1 12 0 1 0 1
phys
0 151 -104 196 0 0 1 12 0 1 0 1
0 151 -104 207 0 0 1 12 0 1 0 1
0 151 -98 207 0 0 1 12 0 1 0 1
phys
0 151 -104 196 0 0 1 12 0 1 0 1
0 151 -98 207 0 0 1 12 0 1 0 1
0 151 -98 196 0 0 1 12 0 1 0 1
phys
0 278 -104 207 0 0 1 12 0 1 0 1
0 278 -104 196 0 0 1 12 0 1 0 1
0 278 -98 196 0 0 1 12 0 1 0 1
phys
0 278 -104 207 0 0 1 12 0 1 0 1
0 278 -98 196 0 0 1 12 0 1 0 1
0 278 -98 207 0 0 1 12 0 1 0 1
phys
0 278 -104 196 0 0 1 12 0 1 0 1
0 151 -104 196 0 0 1 12 0 1 0 1
0 151 -98 196 0 0 1 12 0 1 0 1
phys
0 278 -104 196 0 0 1 12 0 1 0 1
0 151 -98 196 0 0 1 12 0 1 0 1
0 278 -98 196 0 0 1 12 0 1 0 1
phys
0 151 -104 207 0 0 1 12 0 1 0 1
0 278 -104 207 0 0 1 12 0 1 0 1
0 278 -98 207 0 0 1 12 0 1 0 1
phys
0 151 -104 207 0 0 1 12 0 1 0 1
0 278 -98 207 0 0 1 12 0 1 0 1
0 151 -98 207 0 0 1 12 0 1 0 1
phys
0 278 -98 207 0 0 1 12 0 1 0 1
0 278 -98 196 0 0 1 12 0 1 0 1
0 151 -98 196 0 0 1 12 0 1 0 1
phys
0 278 -98 207 0 0 1 12 0 1 0 1
0 151 -98 196 0 0 1 12 0 1 0 1
0 151 -98 207 0 0 1 12 0 1 0 1
phys
0 -103 -96 313 0 0 1 13 0 1 0 1
0 -103 -96 198 0 0 1 13 0 1 0 1
0 -105 -96 198 0 0 1 13 0 1 0 1
phys
0 -103 -96 313 0 0 1 13 0 1 0 1
0 -105 -96 198 0 0 1 13 0 1 0 1
0 -105 -96 313 0 0 1 13 0 1 0 1
phys
0 -103 -104 198 0 0 1 13 0 1 0 1
0 -103 -104 313 0 0 1 13 0 1 0 1
0 -105 -104 313 0 0 1 13 0 1 0 1
phys
0 -103 -104 198 0 0 1 13 0 1 0 1
0 -105 -104 313 0 0 1 13 0 1 0 1
0 -105 -104 198 0 0 1 13 0 1 0 1
phys
0 -105 -104 198 0 0 1 13 0 1 0 1
0 -105 -104 313 0 0 1 13 0 1 0 1
0 -105 -96 313 0 0 1 13 0 1 0 1
phys
0 -105 -104 198 0 0 1 13 0 1 0 1
0 -105 -96 313 0 0 1 13 0 1 0 1
0 -105 -96 198 0 0 1 13 0 1 0 1
phys
0 -103 -104 313 0 0 1 13 0 1 0 1
0 -103 -104 198 0 0 1 13 0 1 0 1
0 -103 -96 198 0 0 1 13 0 1 0 1
phys
0 -103 -104 313 0 0 1 13 0 1 0 1
0 -103 -96 198 0 0 1 13 0 1 0 1
0 -103 -96 313 0 0 1 13 0 1 0 1
phys
0 -103 -104 198 0 0 1 13 0 1 0 1
0 -105 -104 198 0 0 1 13 0 1 0 1
0 -105 -96 198 0 0 1 13 0 1 0 1
phys
0 -103 -104 198 0 0 1 13 0 1 0 1
0 -105 -96 198 0 0 1 13 0 1 0 1
0 -103 -96 198 0 0 1 13 0 1 0 1
phys
0 -105 -104 313 0 0 1 13 0 1 0 1
0 -103 -104 313 0 0 1 13 0 1 0 1
0 -103 -96 313 0 0 1 13 0 1 0 1
phys
0 -105 -104 313 0 0 1 13 0 1 0 1
0 -103 -96 313 0 0 1 13 0 1 0 1
0 -105 -96 313 0 0 1 13 0 1 0 1
phys
0 284 -104 -52 0 0 1 14 0 1 0 1
0 284 -104 -44 0 0 1 14 0 1 0 1
0 280 -104 -44 0 0 1 14 0 1 0 1
phys
0 284 -104 -52 0 0 1 14 0 1 0 1
0 280 -104 -44 0 0 1 14 0 1 0 1
0 280 -104 -52 0 0 1 14 0 1 0 1
phys
0 280 -104 -52 0 0 1 14 0 1 0 1
0 280 -104 -44 0 0 1 14 0 1 0 1
0 280 88 52 0 0 1 14 0 1 0 1
phys
0 280 -104 -52 0 0 1 14 0 1 0 1
0 280 88 52 0 0 1 14 0 1 0 1
0 280 104 52 0 0 1 14 0 1 0 1
phys
0 284 -104 -44 0 0 1 14 0 1 0 1
0 284 -104 -52 0 0 1 14 0 1 0 1
0 284 104 52 0 0 1 14 0 1 0 1
phys
0 284 -104 -44 0 0 1 14 0 1 0 1
0 284 104 52 0 0 1 14 0 1 0 1
0 284 88 52 0 0 1 14 0 1 0 1
phys
0 284 88 52 0 0 1 14 0 1 0 1
0 284 104 52 0 0 1 14 0 1 0 1
0 280 104 52 0 0 1 14 0 1 0 1
phys
0 284 88 52 0 0 1 14 0 1 0 1
0 280 104 52 0 0 1 14 0 1 0 1
0 280 88 52 0 0 1 14 0 1 0 1
phys
0 284 -104 -52 0 0 1 14 0 1 0 1
0 280 -104 -52 0 0 1 14 0 1 0 1
0 280 104 52 0 0 1 14 0 1 0 1
phys
0 284 -104 -52 0 0 1 14 0 1 0 1
0 280 104 52 0 0 1 14 0 1 0 1
0 284 104 52 0 0 1 14 0 1 0 1
phys
0 280 -104 -44 0 0 1 14 0 1 0 1
0 284 -104 -44 0 0 1 14 0 1 0 1
0 284 88 52 0 0 1 14 0 1 0 1
phys
0 280 -104 -44 0 0 1 14 0 1 0 1
0 284 88 52 0 0 1 14 0 1 0 1
0 280 88 52 0 0 1 14 0 1 0 1
phys
0 -4 12 308.001 0 0 1 15 0 1 0 1
0 -4 12 196 0 0 1 15 0 1 0 1
0 -14 12 196 0 0 1 15 0 1 0 1
phys
0 -4 12 308.001 0 0 1 15 0 1 0 1
0 -14 12 196 0 0 1 15 0 1 0 1
0 -14 12 308.001 0 0 1 15 0 1 0 1
phys
0 -4 8 196 0 0 1 15 0 1 0 1
0 -4 8 304.001 0 0 1 15 0 1 0 1
0 -14 8 304.001 0 0 1 15 0 1 0 1
phys
0 -4 8 196 0 0 1 15 0 1 0 1
0 -14 8 304.001 0 0 1 15 0 1 0 1
0 -14 8 196 0 0 1 15 0 1 0 1
phys
0 -14 8 196 0 0 1 15 0 1 0 1
0 -14 8 304.001 0 0 1 15 0 1 0 1
0 -14 12 308.001 0 0 1 15 0 1 0 1
phys
0 -14 8 196 0 0 1 15 0 1 0 1
0 -14 12 308.001 0 0 1 15 0 1 0 1
0 -14 12 196 0 0 1 15 0 1 0 1
phys
0 -4 8 304.001 0 0 1 15 0 1 0 1
0 -4 8 196 0 0 1 15 0 1 0 1
0 -4 12 196 0 0 1 15 0 1 0 1
phys
0 -4 8 304.001 0 0 1 15 0 1 0 1
0 -4 12 196 0 0 1 15 0 1 0 1
0 -4 12 308.001 0 0 1 15 0 1 0 1
phys
0 -4 8 196 0 0 1 15 0 1 0 1
0 -14 8 196 0 0 1 15 0 1 0 1
0 -14 12 196 0 0 1 15 0 1 0 1
phys
0 -4 8 196 0 0 1 15 0 1 0 1
0 -14 12 196 0 0 1 15 0 1 0 1
0 -4 12 196 0 0 1 15 0 1 0 1
phys
0 -14 8 304.001 0 0 1 15 0 1 0 1
0 -4 8 304.001 0 0 1 15 0 1 0 1
0 -4 12 308.001 0 0 1 15 0 1 0 1
phys
0 -14 8 304.001 0 0 1 15 0 1 0 1
0 -4 12 308.001 0 0 1 15 0 1 0 1
0 -14 12 308.001 0 0 1 15 0 1 0 1
phys
0 2 -98 239 0 0 1 16 0 1 0 1
0 2 -98 196 0 0 1 16 0 1 0 1
0 -4 -98 196 0 0 1 16 0 1 0 1
phys
0 2 -98 239 0 0 1 16 0 1 0 1
0 -4 -98 196 0 0 1 16 0 1 0 1
0 -4 -98 239 0 0 1 16 0 1 0 1
phys
0 2 -104 196 0 0 1 16 0 1 0 1
0 2 -104 239 0 0 1 16 0 1 0 1
0 -4 -104 239 0 0 1 16 0 1 0 1
phys
0 2 -104 196 0 0 1 16 0 1 0 1
0 -4 -104 239 0 0 1 16 0 1 0 1
0 -4 -104 196 0 0 1 16 0 1 0 1
phys
0 -4 -104 196 0 0 1 16 0 1 0 1
0 -4 -104 239 0 0 1 16 0 1 0 1
0 -4 -98 239 0 0 1 16 0 1 0 1
phys
0 -4 -104 196 0 0 1 16 0 1 0 1
0 -4 -98 239 0 0 1 16 0 1 0 1
0 -4 -98 196 0 0 1 16 0 1 0 1
phys
0 2 -104 239 0 0 1 16 0 1 0 1
0 2 -104 196 0 0 1 16 0 1 0 1
0 2 -98 196 0 0 1 16 0 1 0 1
phys
0 2 -104 239 0 0 1 16 0 1 0 1
0 2 -98 196 0 0 1 16 0 1 0 1
0 2 -98 239 0 0 1 16 0 1 0 1
phys
0 2 -104 196 0 0 1 16 0 1 0 1
0 -4 -104 196 0 0 1 16 0 1 0 1
0 -4 -98 196 0 0 1 16 0 1 0 1
phys
0 2 -104 196 0 0 1 16 0 1 0 1
0 -4 -98 196 0 0 1 16 0 1 0 1
0 2 -98 196 0 0 1 16 0 1 0 1
phys
0 -4 -104 239 0 0 1 16 0 1 0 1
0 2 -104 239 0 0 1 16 0 1 0 1
0 2 -98 239 0 0 1 16 0 1 0 1
phys
0 -4 -104 239 0 0 1 16 0 1 0 1
0 2 -98 239 0 0 1 16 0 1 0 1
0 -4 -98 239 0 0 1 16 0 1 0 1
phys
0 -14 -96 198 0 0 1 17 0 1 0 1
0 -14 -96 196 0 0 1 17 0 1 0 1
0 -193 -96 196 0 0 1 17 0 1 0 1
phys
0 -14 -96 198 0 0 1 17 0 1 0 1
0 -193 -96 196 0 0 1 17 0 1 0 1
0 -193 -96 198 0 0 1 17 0 1 0 1
phys
0 -14 -104 196 0 0 1 17 0 1 0 1
0 -14 -104 198 0 0 1 17 0 1 0 1
0 -193 -104 198 0 0 1 17 0 1 0 1
phys
0 -14 -104 196 0 0 1 17 0 1 0 1
0 -193 -104 198 0 0 1 17 0 1 0 1
0 -193 -104 196 0 0 1 17 0 1 0 1
phys
0 -193 -104 196 0 0 1 17 0 1 0 1
0 -193 -104 198 0 0 1 17 0 1 0 1
0 -193 -96 198 0 0 1 17 0 1 0 1
phys
0 -193 -104 196 0 0 1 17 0 1 0 1
0 -193 -96 198 0 0 1 17 0 1 0 1
0 -193 -96 196 0 0 1 17 0 1 0 1
phys
0 -14 -104 198 0 0 1 17 0 1 0 1
0 -14 -104 196 0 0 1 17 0 1 0 1
0 -14 -96 196 0 0 1 17 0 1 0 1
phys
0 -14 -104 198 0 0 1 17 0 1 0 1
0 -14 -96 196 0 0 1 17 0 1 0 1
0 -14 -96 198 0 0 1 17 0 1 0 1
phys
0 -14 -104 196 0 0 1 17 0 1 0 1
0 -193 -104 196 0 0 1 17 0 1 0 1
0 -193 -96 196 0 0 1 17 0 1 0 1
phys
0 -14 -104 196 0 0 1 17 0 1 0 1
0 -193 -96 196 0 0 1 17 0 1 0 1
0 -14 -96 196 0 0 1 17 0 1 0 1
phys
0 -193 -104 198 0 0 1 17 0 1 0 1
0 -14 -104 198 0 0 1 17 0 1 0 1
0 -14 -96 198 0 0 1 17 0 1 0 1
phys
0 -193 -104 198 0 0 1 17 0 1 0 1
0 -14 -96 198 0 0 1 17 0 1 0 1
0 -193 -96 198 0 0 1 17 0 1 0 1
phys
0 -14 -96 315 0 0 1 18 0 1 0 1
0 -14 -96 313 0 0 1 18 0 1 0 1
0 -193 -96 313 0 0 1 18 0 1 0 1
phys
0 -14 -96 315 0 0 1 18 0 1 0 1
0 -193 -96 313 0 0 1 18 0 1 0 1
0 -193 -96 315 0 0 1 18 0 1 0 1
phys
0 -14 -104 313 0 0 1 18 0 1 0 1
0 -14 -104 315 0 0 1 18 0 1 0 1
0 -193 -104 315 0 0 1 18 0 1 0 1
phys
0 -14 -104 313 0 0 1 18 0 1 0 1
0 -193 -104 315 0 0 1 18 0 1 0 1
0 -193 -104 313 0 0 1 18 0 1 0 1
phys
0 -193 -104 313 0 0 1 18 0 1 0 1
0 -193 -104 315 0 0 1 18 0 1 0 1
0 -193 -96 315 0 0 1 18 0 1 0 1
phys
0 -193 -104 313 0 0 1 18 0 1 0 1
0 -193 -96 315 0 0 1 18 0 1 0 1
0 -193 -96 313 0 0 1 18 0 1 0 1
phys
0 -14 -104 315 0 0 1 18 0 1 0 1
0 -14 -104 313 0 0 1 18 0 1 0 1
0 -14 -96 313 0 0 1 18 0 1 0 1
phys
0 -14 -104 315 0 0 1 18 0 1 0 1
0 -14 -96 313 0 0 1 18 0 1 0 1
0 -14 -96 315 0 0 1 18 0 1 0 1
phys
0 -14 -104 313 0 0 1 18 0 1 0 1
0 -193 -104 313 0 0 1 18 0 1 0 1
0 -193 -96 313 0 0 1 18 0 1 0 1
phys
0 -14 -104 313 0 0 1 18 0 1 0 1
0 -193 -96 313 0 0 1 18 0 1 0 1
0 -14 -96 313 0 0 1 18 0 1 0 1
phys
0 -193 -104 315 0 0 1 18 0 1 0 1
0 -14 -104 315 0 0 1 18 0 1 0 1
0 -14 -96 315 0 0 1 18 0 1 0 1
phys
0 -193 -104 315 0 0 1 18 0 1 0 1
0 -14 -96 315 0 0 1 18 0 1 0 1
0 -193 -96 315 0 0 1 18 0 1 0 1
phys
0 -50 -98 -41 0 0 1 19 0 1 0 1
0 -50 -98 -52 0 0 1 19 0 1 0 1
0 -157 -98 -52 0 0 1 19 0 1 0 1
phys
0 -50 -98 -41 0 0 1 19 0 1 0 1
0 -157 -98 -52 0 0 1 19 0 1 0 1
0 -157 -98 -41 0 0 1 19 0 1 0 1
phys
0 -50 -104 -52 0 0 1 19 0 1 0 1
0 -50 -104 -41 0 0 1 19 0 1 0 1
0 -157 -104 -41 0 0 1 19 0 1 0 1
phys
0 -50 -104 -52 0 0 1 19 0 1 0 1
0 -157 -104 -41 0 0 1 19 0 1 0 1
0 -157 -104 -52 0 0 1 19 0 1 0 1
phys
0 -157 -104 -52 0 0 1 19 0 1 0 1
0 -157 -104 -41 0 0 1 19 0 1 0 1
0 -157 -98 -41 0 0 1 19 0 1 0 1
phys
0 -157 -104 -52 0 0 1 19 0 1 0 1
0 -157 -98 -41 0 0 1 19 0 1 0 1
0 -157 -98 -52 0 0 1 19 0 1 0 1
phys
0 -50 -104 -41 0 0 1 19 0 1 0 1
0 -50 -104 -52 0 0 1 19 0 1 0 1
0 -50 -98 -52 0 0 1 19 0 1 0 1
phys
0 -50 -104 -41 0 0 1 19 0 1 0 1
0 -50 -98 -52 0 0 1 19 0 1 0 1
0 -50 -98 -41 0 0 1 19 0 1 0 1
phys
0 -50 -104 -52 0 0 1 19 0 1 0 1
0 -157 -104 -52 0 0 1 19 0 1 0 1
0 -157 -98 -52 0 0 1 19 0 1 0 1
phys
0 -50 -104 -52 0 0 1 19 0 1 0 1
0 -157 -98 -52 0 0 1 19 0 1 0 1
0 -50 -98 -52 0 0 1 19 0 1 0 1
phys
0 -157 -104 -41 0 0 1 19 0 1 0 1
0 -50 -104 -41 0 0 1 19 0 1 0 1
0 -50 -98 -41 0 0 1 19 0 1 0 1
phys
0 -157 -104 -41 0 0 1 19 0 1 0 1
0 -50 -98 -41 0 0 1 19 0 1 0 1
0 -157 -98 -41 0 0 1 19 0 1 0 1
phys
0 280 -40 -20 0 0 1 20 0 1 0 1
0 4.9 -40 -20 0 0 1 20 0 1 0 1
0 4.9 -23.98 -12 0 0 1 20 0 1 0 1
phys
0 280 -40 -20 0 0 1 20 0 1 0 1
0 4.9 -23.98 -12 0 0 1 20 0 1 0 1
0 280 -23.98 -12 0 0 1 20 0 1 0 1
phys
0 4.9 -40 -12 0 0 1 20 0 1 0 1
0 4.9 -40 -20 0 0 1 20 0 1 0 1
0 280 -40 -20 0 0 1 20 0 1 0 1
phys
0 4.9 -40 -12 0 0 1 20 0 1 0 1
0 280 -40 -20 0 0 1 20 0 1 0 1
0 280 -40 -12 0 0 1 20 0 1 0 1
phys
0 4.9 -23.98 -12 0 0 1 20 0 1 0 1
0 4.9 -40 -20 0 0 1 20 0 1 0 1
0 4.9 -40 -12 0 0 1 20 0 1 0 1
phys
0 280 -40 -12 0 0 1 20 0 1 0 1
0 280 -40 -20 0 0 1 20 0 1 0 1
0 280 -23.98 -12 0 0 1 20 0 1 0 1
phys
0 4.9 -40 -12 0 0 1 20 0 1 0 1
0 280 -40 -12 0 0 1 20 0 1 0 1
0 280 -23.98 -12 0 0 1 20 0 1 0 1
phys
0 4.9 -40 -12 0 0 1 20 0 1 0 1
0 280 -23.98 -12 0 0 1 20 0 1 0 1
0 4.9 -23.98 -12 0 0 1 20 0 1 0 1
phys
0 280 40 20 0 0 1 21 0 1 0 1
0 280 40 28 0 0 1 21 0 1 0 1
0 4.9 40 28 0 0 1 21 0 1 0 1
phys
0 280 40 20 0 0 1 21 0 1 0 1
0 4.9 40 28 0 0 1 21 0 1 0 1
0 4.9 40 20 0 0 1 21 0 1 0 1
phys
0 4.9 40 20 0 0 1 21 0 1 0 1
0 4.9 40 28 0 0 1 21 0 1 0 1
0 4.9 56 28 0 0 1 21 0 1 0 1
phys
0 280 40 28 0 0 1 21 0 1 0 1
0 280 40 20 0 0 1 21 0 1 0 1
0 280 56 28 0 0 1 21 0 1 0 1
phys
0 4.9 40 28 0 0 1 21 0 1 0 1
0 280 40 28 0 0 1 21 0 1 0 1
0 280 56 28 0 0 1 21 0 1 0 1
phys
0 4.9 40 28 0 0 1 21 0 1 0 1
0 280 56 28 0 0 1 21 0 1 0 1
0 4.9 56 28 0 0 1 21 0 1 0 1
phys
0 280 40 20 0 0 1 21 0 1 0 1
0 4.9 40 20 0 0 1 21 0 1 0 1
0 4.9 56 28 0 0 1 21 0 1 0 1
phys
0 280 40 20 0 0 1 21 0 1 0 1
0 4.9 56 28 0 0 1 21 0 1 0 1
0 280 56 28 0 0 1 21 0 1 0 1
phys
0 -157 -98 -9 0 0 1 22 0 1 0 1
0 -157 -98 -52 0 0 1 22 0 1 0 1
0 -163 -98 -52 0 0 1 22 0 1 0 1
phys
0 -157 -98 -9 0 0 1 22 0 1 0 1
0 -163 -98 -52 0 0 1 22 0 1 0 1
0 -163 -98 -9 0 0 1 22 0 1 0 1
phys
0 -157 -104 -52 0 0 1 22 0 1 0 1
0 -157 -104 -9 0 0 1 22 0 1 0 1
0 -163 -104 -9 0 0 1 22 0 1 0 1
phys
0 -157 -104 -52 0 0 1 22 0 1 0 1
0 -163 -104 -9 0 0 1 22 0 1 0 1
0 -163 -104 -52 0 0 1 22 0 1 0 1
phys
0 -163 -104 -52 0 0 1 22 0 1 0 1
0 -163 -104 -9 0 0 1 22 0 1 0 1
0 -163 -98 -9 0 0 1 22 0 1 0 1
phys
0 -163 -104 -52 0 0 1 22 0 1 0 1
0 -163 -98 -9 0 0 1 22 0 1 0 1
0 -163 -98 -52 0 0 1 22 0 1 0 1
phys
0 -157 -104 -9 0 0 1 22 0 1 0 1
0 -157 -104 -52 0 0 1 22 0 1 0 1
0 -157 -98 -52 0 0 1 22 0 1 0 1
phys
0 -157 -104 -9 0 0 1 22 0 1 0 1
0 -157 -98 -52 0 0 1 22 0 1 0 1
0 -157 -98 -9 0 0 1 22 0 1 0 1
phys
0 -157 -104 -52 0 0 1 22 0 1 0 1
0 -163 -104 -52 0 0 1 22 0 1 0 1
0 -163 -98 -52 0 0 1 22 0 1 0 1
phys
0 -157 -104 -52 0 0 1 22 0 1 0 1
0 -163 -98 -52 0 0 1 22 0 1 0 1
0 -157 -98 -52 0 0 1 22 0 1 0 1
phys
0 -163 -104 -9 0 0 1 22 0 1 0 1
0 -157 -104 -9 0 0 1 22 0 1 0 1
0 -157 -98 -9 0 0 1 22 0 1 0 1
phys
0 -163 -104 -9 0 0 1 22 0 1 0 1
0 -157 -98 -9 0 0 1 22 0 1 0 1
0 -163 -98 -9 0 0 1 22 0 1 0 1
phys
0 145 -104 239 0 0 1 23 0 1 0 1
0 151 -104 239 0 0 1 23 0 1 0 1
0 151 -98 239 0 0 1 23 0 1 0 1
phys
0 145 -104 239 0 0 1 23 0 1 0 1
0 151 -98 239 0 0 1 23 0 1 0 1
0 145 -98 239 0 0 1 23 0 1 0 1
phys
0 145 -98 196 0 0 1 23 0 1 0 1
0 145 -98 239 0 0 1 23 0 1 0 1
0 151 -98 239 0 0 1 23 0 1 0 1
phys
0 145 -98 196 0 0 1 23 0 1 0 1
0 151 -98 239 0 0 1 23 0 1 0 1
0 151 -98 196 0 0 1 23 0 1 0 1
phys
0 151 -104 196 0 0 1 23 0 1 0 1
0 151 -104 239 0 0 1 23 0 1 0 1
0 145 -104 239 0 0 1 23 0 1 0 1
phys
0 151 -104 196 0 0 1 23 0 1 0 1
0 145 -104 239 0 0 1 23 0 1 0 1
0 145 -104 196 0 0 1 23 0 1 0 1
phys
0 145 -104 196 0 0 1 23 0 1 0 1
0 145 -104 239 0 0 1 23 0 1 0 1
0 145 -98 239 0 0 1 23 0 1 0 1
phys
0 145 -104 196 0 0 1 23 0 1 0 1
0 145 -98 239 0 0 1 23 0 1 0 1
0 145 -98 196 0 0 1 23 0 1 0 1
phys
0 151 -98 196 0 0 1 23 0 1 0 1
0 151 -98 239 0 0 1 23 0 1 0 1
0 151 -104 239 0 0 1 23 0 1 0 1
phys
0 151 -98 196 0 0 1 23 0 1 0 1
0 151 -104 239 0 0 1 23 0 1 0 1
0 151 -104 196 0 0 1 23 0 1 0 1
phys
0 151 -104 196 0 0 1 23 0 1 0 1
0 145 -104 196 0 0 1 23 0 1 0 1
0 145 -98 196 0 0 1 23 0 1 0 1
phys
0 151 -104 196 0 0 1 23 0 1 0 1
0 145 -98 196 0 0 1 23 0 1 0 1
0 151 -98 196 0 0 1 23 0 1 0 1
phys
0 -4 -40 304.0002 0 0 1 24 0 1 0 1
0 -4 -40 196 0 0 1 24 0 1 0 1
0 -14 -40 196 0 0 1 24 0 1 0 1
phys
0 -4 -40 304.0002 0 0 1 24 0 1 0 1
0 -14 -40 196 0 0 1 24 0 1 0 1
0 -14 -40 304.0002 0 0 1 24 0 1 0 1
phys
0 -4 -44 196 0 0 1 24 0 1 0 1
0 -4 -44 308.0002 0 0 1 24 0 1 0 1
0 -14 -44 308.0002 0 0 1 24 0 1 0 1
phys
0 -4 -44 196 0 0 1 24 0 1 0 1
0 -14 -44 308.0002 0 0 1 24 0 1 0 1
0 -14 -44 196 0 0 1 24 0 1 0 1
phys
0 -14 -44 196 0 0 1 24 0 1 0 1
0 -14 -44 308.0002 0 0 1 24 0 1 0 1
0 -14 -40 304.0002 0 0 1 24 0 1 0 1
phys
0 -14 -44 196 0 0 1 24 0 1 0 1
0 -14 -40 304.0002 0 0 1 24 0 1 0 1
0 -14 -40 196 0 0 1 24 0 1 0 1
phys
0 -4 -44 308.0002 0 0 1 24 0 1 0 1
0 -4 -44 196 0 0 1 24 0 1 0 1
0 -4 -40 196 0 0 1 24 0 1 0 1
phys
0 -4 -44 308.0002 0 0 1 24 0 1 0 1
0 -4 -40 196 0 0 1 24 0 1 0 1
0 -4 -40 304.0002 0 0 1 24 0 1 0 1
phys
0 -4 -44 196 0 0 1 24 0 1 0 1
0 -14 -44 196 0 0 1 24 0 1 0 1
0 -14 -40 196 0 0 1 24 0 1 0 1
phys
0 -4 -44 196 0 0 1 24 0 1 0 1
0 -14 -40 196 0 0 1 24 0 1 0 1
0 -4 -40 196 0 0 1 24 0 1 0 1
phys
0 -14 -44 308.0002 0 0 1 24 0 1 0 1
0 -4 -44 308.0002 0 0 1 24 0 1 0 1
0 -4 -40 304.0002 0 0 1 24 0 1 0 1
phys
0 -14 -44 308.0002 0 0 1 24 0 1 0 1
0 -4 -40 304.0002 0 0 1 24 0 1 0 1
0 -14 -40 304.0002 0 0 1 24 0 1 0 1
phys
0 4.9 -88 -36 0 0 1 25 0 1 0 1
0 280 -88 -36 0 0 1 25 0 1 0 1
0 280 -71.98 -36 0 0 1 25 0 1 0 1
phys
0 4.9 -88 -36 0 0 1 25 0 1 0 1
0 280 -71.98 -36 0 0 1 25 0 1 0 1
0 4.9 -71.98 -36 0 0 1 25 0 1 0 1
phys
0 280 -88 -44 0 0 1 25 0 1 0 1
0 4.9 -88 -44 0 0 1 25 0 1 0 1
0 4.9 -71.98 -36 0 0 1 25 0 1 0 1
phys
0 280 -88 -44 0 0 1 25 0 1 0 1
0 4.9 -71.98 -36 0 0 1 25 0 1 0 1
0 280 -71.98 -36 0 0 1 25 0 1 0 1
phys
0 280 -88 -36 0 0 1 25 0 1 0 1
0 4.9 -88 -36 0 0 1 25 0 1 0 1
0 4.9 -88 -44 0 0 1 25 0 1 0 1
phys
0 280 -88 -36 0 0 1 25 0 1 0 1
0 4.9 -88 -44 0 0 1 25 0 1 0 1
0 280 -88 -44 0 0 1 25 0 1 0 1
phys
0 4.9 -88 -36 0 0 1 25 0 1 0 1
0 4.9 -71.98 -36 0 0 1 25 0 1 0 1
0 4.9 -88 -44 0 0 1 25 0 1 0 1
phys
0 280 -88 -44 0 0 1 25 0 1 0 1
0 280 -71.98 -36 0 0 1 25 0 1 0 1
0 280 -88 -36 0 0 1 25 0 1 0 1
phys
0 284 -44 308 0 0 1 26 0 1 0 1
0 284 12 308 0 0 1 26 0 1 0 1
0 284 8 304 0 0 1 26 0 1 0 1
phys
0 284 -44 308 0 0 1 26 0 1 0 1
0 284 8 304 0 0 1 26 0 1 0 1
0 284 -40 304 0 0 1 26 0 1 0 1
phys
0 294 -40 304 0 0 1 26 0 1 0 1
0 294 8 304 0 0 1 26 0 1 0 1
0 294 12 308 0 0 1 26 0 1 0 1
phys
0 294 -40 304 0 0 1 26 0 1 0 1
0 294 12 308 0 0 1 26 0 1 0 1
0 294 -44 308 0 0 1 26 0 1 0 1
phys
0 284 -40 304 0 0 1 26 0 1 0 1
0 284 8 304 0 0 1 26 0 1 0 1
0 294 8 304 0 0 1 26 0 1 0 1
phys
0 284 -40 304 0 0 1 26 0 1 0 1
0 294 8 304 0 0 1 26 0 1 0 1
0 294 -40 304 0 0 1 26 0 1 0 1
phys
0 294 -44 308 0 0 1 26 0 1 0 1
0 294 12 308 0 0 1 26 0 1 0 1
0 284 12 308 0 0 1 26 0 1 0 1
phys
0 294 -44 308 0 0 1 26 0 1 0 1
0 284 12 308 0 0 1 26 0 1 0 1
0 284 -44 308 0 0 1 26 0 1 0 1
phys
0 284 -44 308 0 0 1 26 0 1 0 1
0 284 -40 304 0 0 1 26 0 1 0 1
0 294 -40 304 0 0 1 26 0 1 0 1
phys
0 284 -44 308 0 0 1 26 0 1 0 1
0 294 -40 304 0 0 1 26 0 1 0 1
0 294 -44 308 0 0 1 26 0 1 0 1
phys
0 284 8 304 0 0 1 26 0 1 0 1
0 284 12 308 0 0 1 26 0 1 0 1
0 294 12 308 0 0 1 26 0 1 0 1
phys
0 284 8 304 0 0 1 26 0 1 0 1
0 294 12 308 0 0 1 26 0 1 0 1
0 294 8 304 0 0 1 26 0 1 0 1
phys
0 -83 -15 139 0 0 1 27 0 1 0 1
0 -83 -15 -11 0 0 1 27 0 1 0 1
0 -123 -15 -11 0 0 1 27 0 1 0 1
phys
0 -83 -15 139 0 0 1 27 0 1 0 1
0 -123 -15 -11 0 0 1 27 0 1 0 1
0 -123 -15 139 0 0 1 27 0 1 0 1
phys
0 -83 -20 -9.001 0 0 1 27 0 1 0 1
0 -83 -20 137.001 0 0 1 27 0 1 0 1
0 -123 -20 137.001 0 0 1 27 0 1 0 1
phys
0 -83 -20 -9.001 0 0 1 27 0 1 0 1
0 -123 -20 137.001 0 0 1 27 0 1 0 1
0 -123 -20 -9.001 0 0 1 27 0 1 0 1
phys
0 -123 -20 -9.001 0 0 1 27 0 1 0 1
0 -123 -20 137.001 0 0 1 27 0 1 0 1
0 -123 -18 139 0 0 1 27 0 1 0 1
phys
0 -123 -20 -9.001 0 0 1 27 0 1 0 1
0 -123 -18 139 0 0 1 27 0 1 0 1
0 -123 -15 139 0 0 1 27 0 1 0 1
phys
0 -123 -20 -9.001 0 0 1 27 0 1 0 1
0 -123 -15 139 0 0 1 27 0 1 0 1
0 -123 -15 -11 0 0 1 27 0 1 0 1
phys
0 -123 -20 -9.001 0 0 1 27 0 1 0 1
0 -123 -15 -11 0 0 1 27 0 1 0 1
0 -123 -18 -11 0 0 1 27 0 1 0 1
phys
0 -83 -20 137.001 0 0 1 27 0 1 0 1
0 -83 -20 -9.001 0 0 1 27 0 1 0 1
0 -83 -18 -11 0 0 1 27 0 1 0 1
phys
0 -83 -20 137.001 0 0 1 27 0 1 0 1
0 -83 -18 -11 0 0 1 27 0 1 0 1
0 -83 -15 -11 0 0 1 27 0 1 0 1
phys
0 -83 -20 137.001 0 0 1 27 0 1 0 1
0 -83 -15 -11 0 0 1 27 0 1 0 1
0 -83 -15 139 0 0 1 27 0 1 0 1
phys
0 -83 -20 137.001 0 0 1 27 0 1 0 1
0 -83 -15 139 0 0 1 27 0 1 0 1
0 -83 -18 139 0 0 1 27 0 1 0 1
phys
0 -123 -18 -11 0 0 1 27 0 1 0 1
0 -123 -15 -11 0 0 1 27 0 1 0 1
0 -83 -15 -11 0 0 1 27 0 1 0 1
phys
0 -123 -18 -11 0 0 1 27 0 1 0 1
0 -83 -15 -11 0 0 1 27 0 1 0 1
0 -83 -18 -11 0 0 1 27 0 1 0 1
phys
0 -83 -18 139 0 0 1 27 0 1 0 1
0 -83 -15 139 0 0 1 27 0 1 0 1
0 -123 -15 139 0 0 1 27 0 1 0 1
phys
0 -83 -18 139 0 0 1 27 0 1 0 1
0 -123 -15 139 0 0 1 27 0 1 0 1
0 -123 -18 139 0 0 1 27 0 1 0 1
phys
0 -123 -20 137.001 0 0 1 27 0 1 0 1
0 -83 -20 137.001 0 0 1 27 0 1 0 1
0 -83 -18 139 0 0 1 27 0 1 0 1
phys
0 -123 -20 137.001 0 0 1 27 0 1 0 1
0 -83 -18 139 0 0 1 27 0 1 0 1
0 -123 -18 139 0 0 1 27 0 1 0 1
phys
0 -83 -20 -9.001 0 0 1 27 0 1 0 1
0 -123 -20 -9.001 0 0 1 27 0 1 0 1
0 -123 -18 -11 0 0 1 27 0 1 0 1
phys
0 -83 -20 -9.001 0 0 1 27 0 1 0 1
0 -123 -18 -11 0 0 1 27 0 1 0 1
0 -83 -18 -11 0 0 1 27 0 1 0 1
phys
0 280 -8 -4 0 0 1 28 0 1 0 1
0 280 -8 4 0 0 1 28 0 1 0 1
0 4.9 -8 4 0 0 1 28 0 1 0 1
phys
0 280 -8 -4 0 0 1 28 0 1 0 1
0 4.9 -8 4 0 0 1 28 0 1 0 1
0 4.9 -8 -4 0 0 1 28 0 1 0 1
phys
0 4.9 -8 -4 0 0 1 28 0 1 0 1
0 4.9 -8 4 0 0 1 28 0 1 0 1
0 4.9 8.02 4 0 0 1 28 0 1 0 1
phys
0 280 -8 4 0 0 1 28 0 1 0 1
0 280 -8 -4 0 0 1 28 0 1 0 1
0 280 8.02 4 0 0 1 28 0 1 0 1
phys
0 4.9 -8 4 0 0 1 28 0 1 0 1
0 280 -8 4 0 0 1 28 0 1 0 1
0 280 8.02 4 0 0 1 28 0 1 0 1
phys
0 4.9 -8 4 0 0 1 28 0 1 0 1
0 280 8.02 4 0 0 1 28 0 1 0 1
0 4.9 8.02 4 0 0 1 28 0 1 0 1
phys
0 280 -8 -4 0 0 1 28 0 1 0 1
0 4.9 -8 -4 0 0 1 28 0 1 0 1
0 4.9 8.02 4 0 0 1 28 0 1 0 1
phys
0 280 -8 -4 0 0 1 28 0 1 0 1
0 4.9 8.02 4 0 0 1 28 0 1 0 1
0 280 8.02 4 0 0 1 28 0 1 0 1
phys
0 278 -100 239 0 0 1 29 0 1 0 1
0 278 -100 207 0 0 1 29 0 1 0 1
0 151 -100 207 0 0 1 29 0 1 0 1
phys
0 278 -100 239 0 0 1 29 0 1 0 1
0 151 -100 207 0 0 1 29 0 1 0 1
0 151 -100 239 0 0 1 29 0 1 0 1
phys
0 278 -102 207 0 0 1 29 0 1 0 1
0 278 -102 239 0 0 1 29 0 1 0 1
0 151 -102 239 0 0 1 29 0 1 0 1
phys
0 278 -102 207 0 0 1 29 0 1 0 1
0 151 -102 239 0 0 1 29 0 1 0 1
0 151 -102 207 0 0 1 29 0 1 0 1
phys
0 151 -102 207 0 0 1 29 0 1 0 1
0 151 -102 239 0 0 1 29 0 1 0 1
0 151 -100 239 0 0 1 29 0 1 0 1
phys
0 151 -102 207 0 0 1 29 0 1 0 1
0 151 -100 239 0 0 1 29 0 1 0 1
0 151 -100 207 0 0 1 29 0 1 0 1
phys
0 278 -102 239 0 0 1 29 0 1 0 1
0 278 -102 207 0 0 1 29 0 1 0 1
0 278 -100 207 0 0 1 29 0 1 0 1
phys
0 278 -102 239 0 0 1 29 0 1 0 1
0 278 -100 207 0 0 1 29 0 1 0 1
0 278 -100 239 0 0 1 29 0 1 0 1
phys
0 278 -102 207 0 0 1 29 0 1 0 1
0 151 -102 207 0 0 1 29 0 1 0 1
0 151 -100 207 0 0 1 29 0 1 0 1
phys
0 278 -102 207 0 0 1 29 0 1 0 1
0 151 -100 207 0 0 1 29 0 1 0 1
0 278 -100 207 0 0 1 29 0 1 0 1
phys
0 151 -102 239 0 0 1 29 0 1 0 1
0 278 -102 239 0 0 1 29 0 1 0 1
0 278 -100 239 0 0 1 29 0 1 0 1
phys
0 151 -102 239 0 0 1 29 0 1 0 1
0 278 -100 239 0 0 1 29 0 1 0 1
0 151 -100 239 0 0 1 29 0 1 0 1
phys
0 -44 -104 -52 0 0 1 30 0 1 0 1
0 -44 -98 -52 0 0 1 30 0 1 0 1
0 -44 -98 -9 0 0 1 30 0 1 0 1
phys
0 -44 -104 -52 0 0 1 30 0 1 0 1
0 -44 -98 -9 0 0 1 30 0 1 0 1
0 -44 -104 -9 0 0 1 30 0 1 0 1
phys
0 -50 -98 -52 0 0 1 30 0 1 0 1
0 -44 -98 -52 0 0 1 30 0 1 0 1
0 -44 -104 -52 0 0 1 30 0 1 0 1
phys
0 -50 -98 -52 0 0 1 30 0 1 0 1
0 -44 -104 -52 0 0 1 30 0 1 0 1
0 -50 -104 -52 0 0 1 30 0 1 0 1
phys
0 -50 -104 -9 0 0 1 30 0 1 0 1
0 -44 -104 -9 0 0 1 30 0 1 0 1
0 -44 -98 -9 0 0 1 30 0 1 0 1
phys
0 -50 -104 -9 0 0 1 30 0 1 0 1
0 -44 -98 -9 0 0 1 30 0 1 0 1
0 -50 -98 -9 0 0 1 30 0 1 0 1
phys
0 -44 -98 -9 0 0 1 30 0 1 0 1
0 -44 -98 -52 0 0 1 30 0 1 0 1
0 -50 -98 -52 0 0 1 30 0 1 0 1
phys
0 -44 -98 -9 0 0 1 30 0 1 0 1
0 -50 -98 -52 0 0 1 30 0 1 0 1
0 -50 -98 -9 0 0 1 30 0 1 0 1
phys
0 -44 -104 -52 0 0 1 30 0 1 0 1
0 -44 -104 -9 0 0 1 30 0 1 0 1
0 -50 -104 -9 0 0 1 30 0 1 0 1
phys
0 -44 -104 -52 0 0 1 30 0 1 0 1
0 -50 -104 -9 0 0 1 30 0 1 0 1
0 -50 -104 -52 0 0 1 30 0 1 0 1
phys
0 -50 -104 -9 0 0 1 30 0 1 0 1
0 -50 -98 -9 0 0 1 30 0 1 0 1
0 -50 -98 -52 0 0 1 30 0 1 0 1
phys
0 -50 -104 -9 0 0 1 30 0 1 0 1
0 -50 -98 -52 0 0 1 30 0 1 0 1
0 -50 -104 -52 0 0 1 30 0 1 0 1
phys
0 -16 -104 228 0 0 1 31 0 1 0 1
0 -16 -96 228 0 0 1 31 0 1 0 1
0 -16 -96 230 0 0 1 31 0 1 0 1
phys
0 -16 -104 228 0 0 1 31 0 1 0 1
0 -16 -96 230 0 0 1 31 0 1 0 1
0 -16 -104 230 0 0 1 31 0 1 0 1
phys
0 -103 -96 228 0 0 1 31 0 1 0 1
0 -16 -96 228 0 0 1 31 0 1 0 1
0 -16 -104 228 0 0 1 31 0 1 0 1
phys
0 -103 -96 228 0 0 1 31 0 1 0 1
0 -16 -104 228 0 0 1 31 0 1 0 1
0 -103 -104 228 0 0 1 31 0 1 0 1
phys
0 -103 -104 230 0 0 1 31 0 1 0 1
0 -16 -104 230 0 0 1 31 0 1 0 1
0 -16 -96 230 0 0 1 31 0 1 0 1
phys
0 -103 -104 230 0 0 1 31 0 1 0 1
0 -16 -96 230 0 0 1 31 0 1 0 1
0 -103 -96 230 0 0 1 31 0 1 0 1
phys
0 -16 -96 230 0 0 1 31 0 1 0 1
0 -16 -96 228 0 0 1 31 0 1 0 1
0 -103 -96 228 0 0 1 31 0 1 0 1
phys
0 -16 -96 230 0 0 1 31 0 1 0 1
0 -103 -96 228 0 0 1 31 0 1 0 1
0 -103 -96 230 0 0 1 31 0 1 0 1
phys
0 -16 -104 228 0 0 1 31 0 1 0 1
0 -16 -104 230 0 0 1 31 0 1 0 1
0 -103 -104 230 0 0 1 31 0 1 0 1
phys
0 -16 -104 228 0 0 1 31 0 1 0 1
0 -103 -104 230 0 0 1 31 0 1 0 1
0 -103 -104 228 0 0 1 31 0 1 0 1
phys
0 -103 -104 230 0 0 1 31 0 1 0 1
0 -103 -96 230 0 0 1 31 0 1 0 1
0 -103 -96 228 0 0 1 31 0 1 0 1
phys
0 -103 -104 230 0 0 1 31 0 1 0 1
0 -103 -96 228 0 0 1 31 0 1 0 1
0 -103 -104 228 0 0 1 31 0 1 0 1
phys
0 129 -100 239 0 0 1 32 0 1 0 1
0 129 -100 207 0 0 1 32 0 1 0 1
0 2 -100 207 0 0 1 32 0 1 0 1
phys
0 129 -100 239 0 0 1 32 0 1 0 1
0 2 -100 207 0 0 1 32 0 1 0 1
0 2 -100 239 0 0 1 32 0 1 0 1
phys
0 129 -102 207 0 0 1 32 0 1 0 1
0 129 -102 239 0 0 1 32 0 1 0 1
0 2 -102 239 0 0 1 32 0 1 0 1
phys
0 129 -102 207 0 0 1 32 0 1 0 1
0 2 -102 239 0 0 1 32 0 1 0 1
0 2 -102 207 0 0 1 32 0 1 0 1
phys
0 2 -102 207 0 0 1 32 0 1 0 1
0 2 -102 239 0 0 1 32 0 1 0 1
0 2 -100 239 0 0 1 32 0 1 0 1
phys
0 2 -102 207 0 0 1 32 0 1 0 1
0 2 -100 239 0 0 1 32 0 1 0 1
0 2 -100 207 0 0 1 32 0 1 0 1
phys
0 129 -102 239 0 0 1 32 0 1 0 1
0 129 -102 207 0 0 1 32 0 1 0 1
0 129 -100 207 0 0 1 32 0 1 0 1
phys
0 129 -102 239 0 0 1 32 0 1 0 1
0 129 -100 207 0 0 1 32 0 1 0 1
0 129 -100 239 0 0 1 32 0 1 0 1
phys
0 129 -102 207 0 0 1 32 0 1 0 1
0 2 -102 207 0 0 1 32 0 1 0 1
0 2 -100 207 0 0 1 32 0 1 0 1
phys
0 129 -102 207 0 0 1 32 0 1 0 1
0 2 -100 207 0 0 1 32 0 1 0 1
0 129 -100 207 0 0 1 32 0 1 0 1
phys
0 2 -102 239 0 0 1 32 0 1 0 1
0 129 -102 239 0 0 1 32 0 1 0 1
0 129 -100 239 0 0 1 32 0 1 0 1
phys
0 2 -102 239 0 0 1 32 0 1 0 1
0 129 -100 239 0 0 1 32 0 1 0 1
0 2 -100 239 0 0 1 32 0 1 0 1
phys
0 280 -56 -27.99 0 0 1 33 0 1 0 1
0 280 -56 -20 0 0 1 33 0 1 0 1
0 4.9 -56 -20 0 0 1 33 0 1 0 1
phys
0 280 -56 -27.99 0 0 1 33 0 1 0 1
0 4.9 -56 -20 0 0 1 33 0 1 0 1
0 4.9 -56 -27.99 0 0 1 33 0 1 0 1
phys
0 4.9 -56 -27.99 0 0 1 33 0 1 0 1
0 4.9 -56 -20 0 0 1 33 0 1 0 1
0 4.9 -40 -20 0 0 1 33 0 1 0 1
phys
0 280 -56 -20 0 0 1 33 0 1 0 1
0 280 -56 -27.99 0 0 1 33 0 1 0 1
0 280 -40 -20 0 0 1 33 0 1 0 1
phys
0 4.9 -56 -20 0 0 1 33 0 1 0 1
0 280 -56 -20 0 0 1 33 0 1 0 1
0 280 -40 -20 0 0 1 33 0 1 0 1
phys
0 4.9 -56 -20 0 0 1 33 0 1 0 1
0 280 -40 -20 0 0 1 33 0 1 0 1
0 4.9 -40 -20 0 0 1 33 0 1 0 1
phys
0 280 -56 -27.99 0 0 1 33 0 1 0 1
0 4.9 -56 -27.99 0 0 1 33 0 1 0 1
0 4.9 -40 -20 0 0 1 33 0 1 0 1
phys
0 280 -56 -27.99 0 0 1 33 0 1 0 1
0 4.9 -40 -20 0 0 1 33 0 1 0 1
0 280 -40 -20 0 0 1 33 0 1 0 1
phys
0 4.9 -24 -4 0 0 1 34 0 1 0 1
0 4.9 -8 -4 0 0 1 34 0 1 0 1
0 4.9 -24 -11.99 0 0 1 34 0 1 0 1
phys
0 280 -24 -11.99 0 0 1 34 0 1 0 1
0 280 -8 -4 0 0 1 34 0 1 0 1
0 280 -24 -4 0 0 1 34 0 1 0 1
phys
0 280 -24 -4 0 0 1 34 0 1 0 1
0 280 -8 -4 0 0 1 34 0 1 0 1
0 4.9 -8 -4 0 0 1 34 0 1 0 1
phys
0 280 -24 -4 0 0 1 34 0 1 0 1
0 4.9 -8 -4 0 0 1 34 0 1 0 1
0 4.9 -24 -4 0 0 1 34 0 1 0 1
phys
0 4.9 -24 -11.99 0 0 1 34 0 1 0 1
0 4.9 -8 -4 0 0 1 34 0 1 0 1
0 280 -8 -4 0 0 1 34 0 1 0 1
phys
0 4.9 -24 -11.99 0 0 1 34 0 1 0 1
0 280 -8 -4 0 0 1 34 0 1 0 1
0 280 -24 -11.99 0 0 1 34 0 1 0 1
phys
0 280 -24 -11.99 0 0 1 34 0 1 0 1
0 280 -24 -4 0 0 1 34 0 1 0 1
0 4.9 -24 -4 0 0 1 34 0 1 0 1
phys
0 280 -24 -11.99 0 0 1 34 0 1 0 1
0 4.9 -24 -4 0 0 1 34 0 1 0 1
0 4.9 -24 -11.99 0 0 1 34 0 1 0 1
phys
0 4.9 -103.99 -51.995 0 0 1 35 0 1 0 1
0 4.9 -103.99 -43.995 0 0 1 35 0 1 0 1
0 -4 -103.99 -43.995 0 0 1 35 0 1 0 1
phys
0 4.9 -103.99 -51.995 0 0 1 35 0 1 0 1
0 -4 -103.99 -43.995 0 0 1 35 0 1 0 1
0 -4 -103.99 -51.995 0 0 1 35 0 1 0 1
phys
0 -4 -103.99 -51.995 0 0 1 35 0 1 0 1
0 -4 -103.99 -43.995 0 0 1 35 0 1 0 1
0 -4 88 52 0 0 1 35 0 1 0 1
phys
0 -4 -103.99 -51.995 0 0 1 35 0 1 0 1
0 -4 88 52 0 0 1 35 0 1 0 1
0 -4 104 52 0 0 1 35 0 1 0 1
phys
0 4.9 -103.99 -43.995 0 0 1 35 0 1 0 1
0 4.9 -103.99 -51.995 0 0 1 35 0 1 0 1
0 4.9 104 52 0 0 1 35 0 1 0 1
phys
0 4.9 -103.99 -43.995 0 0 1 35 0 1 0 1
0 4.9 104 52 0 0 1 35 0 1 0 1
0 4.9 88 52 0 0 1 35 0 1 0 1
phys
0 4.9 88 52 0 0 1 35 0 1 0 1
0 4.9 104 52 0 0 1 35 0 1 0 1
0 -4 104 52 0 0 1 35 0 1 0 1
phys
0 4.9 88 52 0 0 1 35 0 1 0 1
0 -4 104 52 0 0 1 35 0 1 0 1
0 -4 88 52 0 0 1 35 0 1 0 1
phys
0 4.9 -103.99 -51.995 0 0 1 35 0 1 0 1
0 -4 -103.99 -51.995 0 0 1 35 0 1 0 1
0 -4 104 52 0 0 1 35 0 1 0 1
phys
0 4.9 -103.99 -51.995 0 0 1 35 0 1 0 1
0 -4 104 52 0 0 1 35 0 1 0 1
0 4.9 104 52 0 0 1 35 0 1 0 1
phys
0 -4 -103.99 -43.995 0 0 1 35 0 1 0 1
0 4.9 -103.99 -43.995 0 0 1 35 0 1 0 1
0 4.9 88 52 0 0 1 35 0 1 0 1
phys
0 -4 -103.99 -43.995 0 0 1 35 0 1 0 1
0 4.9 88 52 0 0 1 35 0 1 0 1
0 -4 88 52 0 0 1 35 0 1 0 1
phys
0 -50 -100 -9 0 0 1 36 0 1 0 1
0 -50 -100 -41 0 0 1 36 0 1 0 1
0 -157 -100 -41 0 0 1 36 0 1 0 1
phys
0 -50 -100 -9 0 0 1 36 0 1 0 1
0 -157 -100 -41 0 0 1 36 0 1 0 1
0 -157 -100 -9 0 0 1 36 0 1 0 1
phys
0 -50 -102 -41 0 0 1 36 0 1 0 1
0 -50 -102 -9 0 0 1 36 0 1 0 1
0 -157 -102 -9 0 0 1 36 0 1 0 1
phys
0 -50 -102 -41 0 0 1 36 0 1 0 1
0 -157 -102 -9 0 0 1 36 0 1 0 1
0 -157 -102 -41 0 0 1 36 0 1 0 1
phys
0 -157 -102 -41 0 0 1 36 0 1 0 1
0 -157 -102 -9 0 0 1 36 0 1 0 1
0 -157 -100 -9 0 0 1 36 0 1 0 1
phys
0 -157 -102 -41 0 0 1 36 0 1 0 1
0 -157 -100 -9 0 0 1 36 0 1 0 1
0 -157 -100 -41 0 0 1 36 0 1 0 1
phys
0 -50 -102 -9 0 0 1 36 0 1 0 1
0 -50 -102 -41 0 0 1 36 0 1 0 1
0 -50 -100 -41 0 0 1 36 0 1 0 1
phys
0 -50 -102 -9 0 0 1 36 0 1 0 1
0 -50 -100 -41 0 0 1 36 0 1 0 1
0 -50 -100 -9 0 0 1 36 0 1 0 1
phys
0 -50 -102 -41 0 0 1 36 0 1 0 1
0 -157 -102 -41 0 0 1 36 0 1 0 1
0 -157 -100 -41 0 0 1 36 0 1 0 1
phys
0 -50 -102 -41 0 0 1 36 0 1 0 1
0 -157 -100 -41 0 0 1 36 0 1 0 1
0 -50 -100 -41 0 0 1 36 0 1 0 1
phys
0 -157 -102 -9 0 0 1 36 0 1 0 1
0 -50 -102 -9 0 0 1 36 0 1 0 1
0 -50 -100 -9 0 0 1 36 0 1 0 1
phys
0 -157 -102 -9 0 0 1 36 0 1 0 1
0 -50 -100 -9 0 0 1 36 0 1 0 1
0 -157 -100 -9 0 0 1 36 0 1 0 1
phys
0 4.9 -104 -44 0 0 1 37 0 1 0 1
0 4.9 -88 -44 0 0 1 37 0 1 0 1
0 4.9 -104 -51.99 0 0 1 37 0 1 0 1
phys
0 280 -104 -51.99 0 0 1 37 0 1 0 1
0 280 -88 -44 0 0 1 37 0 1 0 1
0 280 -104 -44 0 0 1 37 0 1 0 1
phys
0 280 -104 -44 0 0 1 37 0 1 0 1
0 280 -88 -44 0 0 1 37 0 1 0 1
0 4.9 -88 -44 0 0 1 37 0 1 0 1
phys
0 280 -104 -44 0 0 1 37 0 1 0 1
0 4.9 -88 -44 0 0 1 37 0 1 0 1
0 4.9 -104 -44 0 0 1 37 0 1 0 1
phys
0 4.9 -104 -51.99 0 0 1 37 0 1 0 1
0 4.9 -88 -44 0 0 1 37 0 1 0 1
0 280 -88 -44 0 0 1 37 0 1 0 1
phys
0 4.9 -104 -51.99 0 0 1 37 0 1 0 1
0 280 -88 -44 0 0 1 37 0 1 0 1
0 280 -104 -51.99 0 0 1 37 0 1 0 1
phys
0 280 -104 -51.99 0 0 1 37 0 1 0 1
0 280 -104 -44 0 0 1 37 0 1 0 1
0 4.9 -104 -44 0 0 1 37 0 1 0 1
phys
0 280 -104 -51.99 0 0 1 37 0 1 0 1
0 4.9 -104 -44 0 0 1 37 0 1 0 1
0 4.9 -104 -51.99 0 0 1 37 0 1 0 1
phys
0 324 -104 -9 0 0 1 38 0 1 0 1
0 330 -104 -9 0 0 1 38 0 1 0 1
0 330 -98 -9 0 0 1 38 0 1 0 1
phys
0 324 -104 -9 0 0 1 38 0 1 0 1
0 330 -98 -9 0 0 1 38 0 1 0 1
0 324 -98 -9 0 0 1 38 0 1 0 1
phys
0 324 -98 -52 0 0 1 38 0 1 0 1
0 324 -98 -9 0 0 1 38 0 1 0 1
0 330 -98 -9 0 0 1 38 0 1 0 1
phys
0 324 -98 -52 0 0 1 38 0 1 0 1
0 330 -98 -9 0 0 1 38 0 1 0 1
0 330 -98 -52 0 0 1 38 0 1 0 1
phys
0 330 -104 -52 0 0 1 38 0 1 0 1
0 330 -104 -9 0 0 1 38 0 1 0 1
0 324 -104 -9 0 0 1 38 0 1 0 1
phys
0 330 -104 -52 0 0 1 38 0 1 0 1
0 324 -104 -9 0 0 1 38 0 1 0 1
0 324 -104 -52 0 0 1 38 0 1 0 1
phys
0 324 -104 -52 0 0 1 38 0 1 0 1
0 324 -104 -9 0 0 1 38 0 1 0 1
0 324 -98 -9 0 0 1 38 0 1 0 1
phys
0 324 -104 -52 0 0 1 38 0 1 0 1
0 324 -98 -9 0 0 1 38 0 1 0 1
0 324 -98 -52 0 0 1 38 0 1 0 1
phys
0 330 -98 -52 0 0 1 38 0 1 0 1
0 330 -98 -9 0 0 1 38 0 1 0 1
0 330 -104 -9 0 0 1 38 0 1 0 1
phys
0 330 -98 -52 0 0 1 38 0 1 0 1
0 330 -104 -9 0 0 1 38 0 1 0 1
0 330 -104 -52 0 0 1 38 0 1 0 1
phys
0 330 -104 -52 0 0 1 38 0 1 0 1
0 324 -104 -52 0 0 1 38 0 1 0 1
0 324 -98 -52 0 0 1 38 0 1 0 1
phys
0 330 -104 -52 0 0 1 38 0 1 0 1
0 324 -98 -52 0 0 1 38 0 1 0 1
0 330 -98 -52 0 0 1 38 0 1 0 1
phys
0 280 -72 -36.01 0 0 1 39 0 1 0 1
0 280 -72 -28 0 0 1 39 0 1 0 1
0 4.9 -72 -28 0 0 1 39 0 1 0 1
phys
0 280 -72 -36.01 0 0 1 39 0 1 0 1
0 4.9 -72 -28 0 0 1 39 0 1 0 1
0 4.9 -72 -36.01 0 0 1 39 0 1 0 1
phys
0 4.9 -72 -36.01 0 0 1 39 0 1 0 1
0 4.9 -72 -28 0 0 1 39 0 1 0 1
0 4.9 -55.96 -28 0 0 1 39 0 1 0 1
phys
0 280 -72 -28 0 0 1 39 0 1 0 1
0 280 -72 -36.01 0 0 1 39 0 1 0 1
0 280 -55.96 -28 0 0 1 39 0 1 0 1
phys
0 4.9 -72 -28 0 0 1 39 0 1 0 1
0 280 -72 -28 0 0 1 39 0 1 0 1
0 280 -55.96 -28 0 0 1 39 0 1 0 1
phys
0 4.9 -72 -28 0 0 1 39 0 1 0 1
0 280 -55.96 -28 0 0 1 39 0 1 0 1
0 4.9 -55.96 -28 0 0 1 39 0 1 0 1
phys
0 280 -72 -36.01 0 0 1 39 0 1 0 1
0 4.9 -72 -36.01 0 0 1 39 0 1 0 1
0 4.9 -55.96 -28 0 0 1 39 0 1 0 1
phys
0 280 -72 -36.01 0 0 1 39 0 1 0 1
0 4.9 -55.96 -28 0 0 1 39 0 1 0 1
0 280 -55.96 -28 0 0 1 39 0 1 0 1
phys
0 284 -98 239 0 0 1 40 0 1 0 1
0 284 -98 196 0 0 1 40 0 1 0 1
0 278 -98 196 0 0 1 40 0 1 0 1
phys
0 284 -98 239 0 0 1 40 0 1 0 1
0 278 -98 196 0 0 1 40 0 1 0 1
0 278 -98 239 0 0 1 40 0 1 0 1
phys
0 284 -104 196 0 0 1 40 0 1 0 1
0 284 -104 239 0 0 1 40 0 1 0 1
0 278 -104 239 0 0 1 40 0 1 0 1
phys
0 284 -104 196 0 0 1 40 0 1 0 1
0 278 -104 239 0 0 1 40 0 1 0 1
0 278 -104 196 0 0 1 40 0 1 0 1
phys
0 278 -104 196 0 0 1 40 0 1 0 1
0 278 -104 239 0 0 1 40 0 1 0 1
0 278 -98 239 0 0 1 40 0 1 0 1
phys
0 278 -104 196 0 0 1 40 0 1 0 1
0 278 -98 239 0 0 1 40 0 1 0 1
0 278 -98 196 0 0 1 40 0 1 0 1
phys
0 284 -104 239 0 0 1 40 0 1 0 1
0 284 -104 196 0 0 1 40 0 1 0 1
0 284 -98 196 0 0 1 40 0 1 0 1
phys
0 284 -104 239 0 0 1 40 0 1 0 1
0 284 -98 196 0 0 1 40 0 1 0 1
0 284 -98 239 0 0 1 40 0 1 0 1
phys
0 284 -104 196 0 0 1 40 0 1 0 1
0 278 -104 196 0 0 1 40 0 1 0 1
0 278 -98 196 0 0 1 40 0 1 0 1
phys
0 284 -104 196 0 0 1 40 0 1 0 1
0 278 -98 196 0 0 1 40 0 1 0 1
0 284 -98 196 0 0 1 40 0 1 0 1
phys
0 278 -104 239 0 0 1 40 0 1 0 1
0 284 -104 239 0 0 1 40 0 1 0 1
0 284 -98 239 0 0 1 40 0 1 0 1
phys
0 278 -104 239 0 0 1 40 0 1 0 1
0 284 -98 239 0 0 1 40 0 1 0 1
0 278 -98 239 0 0 1 40 0 1 0 1
phys
0 -16 -101 198 0 0 1 41 0 1 0 1
0 -16 -101 313 0 0 1 41 0 1 0 1
0 -191 -101 313 0 0 1 41 0 1 0 1
phys
0 -16 -101 198 0 0 1 41 0 1 0 1
0 -191 -101 313 0 0 1 41 0 1 0 1
0 -191 -101 198 0 0 1 41 0 1 0 1
phys
0 -191 -101 198 0 0 1 41 0 1 0 1
0 -191 -101 313 0 0 1 41 0 1 0 1
0 -191 -99 313 0 0 1 41 0 1 0 1
phys
0 -191 -101 198 0 0 1 41 0 1 0 1
0 -191 -99 313 0 0 1 41 0 1 0 1
0 -191 -99 198 0 0 1 41 0 1 0 1
phys
0 -16 -101 313 0 0 1 41 0 1 0 1
0 -16 -101 198 0 0 1 41 0 1 0 1
0 -16 -99 198 0 0 1 41 0 1 0 1
phys
0 -16 -101 313 0 0 1 41 0 1 0 1
0 -16 -99 198 0 0 1 41 0 1 0 1
0 -16 -99 313 0 0 1 41 0 1 0 1
phys
0 -16 -101 198 0 0 1 41 0 1 0 1
0 -191 -101 198 0 0 1 41 0 1 0 1
0 -191 -99 198 0 0 1 41 0 1 0 1
phys
0 -16 -101 198 0 0 1 41 0 1 0 1
0 -191 -99 198 0 0 1 41 0 1 0 1
0 -16 -99 198 0 0 1 41 0 1 0 1
phys
0 -191 -101 313 0 0 1 41 0 1 0 1
0 -16 -101 313 0 0 1 41 0 1 0 1
0 -16 -99 313 0 0 1 41 0 1 0 1
phys
0 -191 -101 313 0 0 1 41 0 1 0 1
0 -16 -99 313 0 0 1 41 0 1 0 1
0 -191 -99 313 0 0 1 41 0 1 0 1
phys
0 -16 -99 313 0 0 1 41 0 1 0 1
0 -16 -99 198 0 0 1 41 0 1 0 1
0 -191 -99 198 0 0 1 41 0 1 0 1
phys
0 -16 -99 313 0 0 1 41 0 1 0 1
0 -191 -99 198 0 0 1 41 0 1 0 1
0 -191 -99 313 0 0 1 41 0 1 0 1
phys
0 280 88 44 0 0 1 42 0 1 0 1
0 280 88 52 0 0 1 42 0 1 0 1
0 4.9 88 52 0 0 1 42 0 1 0 1
phys
0 280 88 44 0 0 1 42 0 1 0 1
0 4.9 88 52 0 0 1 42 0 1 0 1
0 4.9 88 44 0 0 1 42 0 1 0 1
phys
0 4.9 88 44 0 0 1 42 0 1 0 1
0 4.9 88 52 0 0 1 42 0 1 0 1
0 4.9 104 52 0 0 1 42 0 1 0 1
phys
0 280 88 52 0 0 1 42 0 1 0 1
0 280 88 44 0 0 1 42 0 1 0 1
0 280 104 52 0 0 1 42 0 1 0 1
phys
0 4.9 88 52 0 0 1 42 0 1 0 1
0 280 88 52 0 0 1 42 0 1 0 1
0 280 104 52 0 0 1 42 0 1 0 1
phys
0 4.9 88 52 0 0 1 42 0 1 0 1
0 280 104 52 0 0 1 42 0 1 0 1
0 4.9 104 52 0 0 1 42 0 1 0 1
phys
0 280 88 44 0 0 1 42 0 1 0 1
0 4.9 88 44 0 0 1 42 0 1 0 1
0 4.9 104 52 0 0 1 42 0 1 0 1
phys
0 280 88 44 0 0 1 42 0 1 0 1
0 4.9 104 52 0 0 1 42 0 1 0 1
0 280 104 52 0 0 1 42 0 1 0 1
phys
0 382 -104 228 0 0 1 43 0 1 0 1
0 382 -104 230 0 0 1 43 0 1 0 1
0 296 -104 230 0 0 1 43 0 1 0 1
phys
0 382 -104 228 0 0 1 43 0 1 0 1
0 296 -104 230 0 0 1 43 0 1 0 1
0 296 -104 228 0 0 1 43 0 1 0 1
phys
0 296 -104 228 0 0 1 43 0 1 0 1
0 296 -104 230 0 0 1 43 0 1 0 1
0 296 -96 230 0 0 1 43 0 1 0 1
phys
0 296 -104 228 0 0 1 43 0 1 0 1
0 296 -96 230 0 0 1 43 0 1 0 1
0 296 -96 228 0 0 1 43 0 1 0 1
phys
0 382 -104 230 0 0 1 43 0 1 0 1
0 382 -104 228 0 0 1 43 0 1 0 1
0 382 -96 228 0 0 1 43 0 1 0 1
phys
0 382 -104 230 0 0 1 43 0 1 0 1
0 382 -96 228 0 0 1 43 0 1 0 1
0 382 -96 230 0 0 1 43 0 1 0 1
phys
0 382 -104 228 0 0 1 43 0 1 0 1
0 296 -104 228 0 0 1 43 0 1 0 1
0 296 -96 228 0 0 1 43 0 1 0 1
phys
0 382 -104 228 0 0 1 43 0 1 0 1
0 296 -96 228 0 0 1 43 0 1 0 1
0 382 -96 228 0 0 1 43 0 1 0 1
phys
0 296 -104 230 0 0 1 43 0 1 0 1
0 382 -104 230 0 0 1 43 0 1 0 1
0 382 -96 230 0 0 1 43 0 1 0 1
phys
0 296 -104 230 0 0 1 43 0 1 0 1
0 382 -96 230 0 0 1 43 0 1 0 1
0 296 -96 230 0 0 1 43 0 1 0 1
phys
0 382 -96 230 0 0 1 43 0 1 0 1
0 382 -96 228 0 0 1 43 0 1 0 1
0 296 -96 228 0 0 1 43 0 1 0 1
phys
0 382 -96 230 0 0 1 43 0 1 0 1
0 296 -96 228 0 0 1 43 0 1 0 1
0 296 -96 230 0 0 1 43 0 1 0 1
phys
0 280 56 28 0 0 1 44 0 1 0 1
0 280 56 36 0 0 1 44 0 1 0 1
0 4.9 56 36 0 0 1 44 0 1 0 1
phys
0 280 56 28 0 0 1 44 0 1 0 1
0 4.9 56 36 0 0 1 44 0 1 0 1
0 4.9 56 28 0 0 1 44 0 1 0 1
phys
0 4.9 56 28 0 0 1 44 0 1 0 1
0 4.9 56 36 0 0 1 44 0 1 0 1
0 4.9 72 36 0 0 1 44 0 1 0 1
phys
0 280 56 36 0 0 1 44 0 1 0 1
0 280 56 28 0 0 1 44 0 1 0 1
0 280 72 36 0 0 1 44 0 1 0 1
phys
0 4.9 56 36 0 0 1 44 0 1 0 1
0 280 56 36 0 0 1 44 0 1 0 1
0 280 72 36 0 0 1 44 0 1 0 1
phys
0 4.9 56 36 0 0 1 44 0 1 0 1
0 280 72 36 0 0 1 44 0 1 0 1
0 4.9 72 36 0 0 1 44 0 1 0 1
phys
0 280 56 28 0 0 1 44 0 1 0 1
0 4.9 56 28 0 0 1 44 0 1 0 1
0 4.9 72 36 0 0 1 44 0 1 0 1
phys
0 280 56 28 0 0 1 44 0 1 0 1
0 4.9 72 36 0 0 1 44 0 1 0 1
0 280 72 36 0 0 1 44 0 1 0 1
end
