version 1
nodes
0 "root" -1
end
skeleton
time 0
0 0 0 0 0 0 0
end
triangles
phys
0 13.499505 -45.8985 -67 0 0 1 1 0 1 0 1
0 14.9 -44.485 -67 0 0 1 1 0 1 0 1
0 16.3 -45.899 -67 0 0 1 1 0 1 0 1
phys
0 13.499505 -45.8985 -67 0 0 1 1 0 1 0 1
0 16.3 -45.899 -67 0 0 1 1 0 1 0 1
0 14.9 -47.314 -67 0 0 1 1 0 1 0 1
phys
0 14.9 -47.314 -3 0 0 1 1 0 1 0 1
0 16.3 -45.899 -3 0 0 1 1 0 1 0 1
0 14.9 -44.485 -3 0 0 1 1 0 1 0 1
phys
0 14.9 -47.314 -3 0 0 1 1 0 1 0 1
0 14.9 -44.485 -3 0 0 1 1 0 1 0 1
0 13.499505 -45.8985 -3 0 0 1 1 0 1 0 1
phys
0 14.9 -47.314 -67 0 0 1 1 0 1 0 1
0 16.3 -45.899 -67 0 0 1 1 0 1 0 1
0 16.3 -45.899 -3 0 0 1 1 0 1 0 1
phys
0 14.9 -47.314 -67 0 0 1 1 0 1 0 1
0 16.3 -45.899 -3 0 0 1 1 0 1 0 1
0 14.9 -47.314 -3 0 0 1 1 0 1 0 1
phys
0 16.3 -45.899 -67 0 0 1 1 0 1 0 1
0 14.9 -44.485 -67 0 0 1 1 0 1 0 1
0 14.9 -44.485 -3 0 0 1 1 0 1 0 1
phys
0 16.3 -45.899 -67 0 0 1 1 0 1 0 1
0 14.9 -44.485 -3 0 0 1 1 0 1 0 1
0 16.3 -45.899 -3 0 0 1 1 0 1 0 1
phys
0 13.499505 -45.8985 -3 0 0 1 1 0 1 0 1
0 14.9 -44.485 -3 0 0 1 1 0 1 0 1
0 14.9 -44.485 -67 0 0 1 1 0 1 0 1
phys
0 13.499505 -45.8985 -3 0 0 1 1 0 1 0 1
0 14.9 -44.485 -67 0 0 1 1 0 1 0 1
0 13.499505 -45.8985 -67 0 0 1 1 0 1 0 1
phys
0 14.9 -47.314 -3 0 0 1 1 0 1 0 1
0 13.499505 -45.8985 -3 0 0 1 1 0 1 0 1
0 13.499505 -45.8985 -67 0 0 1 1 0 1 0 1
phys
0 14.9 -47.314 -3 0 0 1 1 0 1 0 1
0 13.499505 -45.8985 -67 0 0 1 1 0 1 0 1
0 14.9 -47.314 -67 0 0 1 1 0 1 0 1
phys
0 16 -84 359 0 0 1 2 0 1 0 1
0 16 -64 359 0 0 1 2 0 1 0 1
0 16 -64 88 0 0 1 2 0 1 0 1
phys
0 16 -84 359 0 0 1 2 0 1 0 1
0 16 -64 88 0 0 1 2 0 1 0 1
0 16 -84 88 0 0 1 2 0 1 0 1
phys
0 36 -84 88 0 0 1 2 0 1 0 1
0 36 -64 88 0 0 1 2 0 1 0 1
0 36 -64 359 0 0 1 2 0 1 0 1
phys
0 36 -84 88 0 0 1 2 0 1 0 1
0 36 -64 359 0 0 1 2 0 1 0 1
0 36 -84 359 0 0 1 2 0 1 0 1
phys
0 16 -84 88 0 0 1 2 0 1 0 1
0 16 -64 88 0 0 1 2 0 1 0 1
0 36 -64 88 0 0 1 2 0 1 0 1
phys
0 16 -84 88 0 0 1 2 0 1 0 1
0 36 -64 88 0 0 1 2 0 1 0 1
0 36 -84 88 0 0 1 2 0 1 0 1
phys
0 36 -84 359 0 0 1 2 0 1 0 1
0 36 -64 359 0 0 1 2 0 1 0 1
0 16 -64 359 0 0 1 2 0 1 0 1
phys
0 36 -84 359 0 0 1 2 0 1 0 1
0 16 -64 359 0 0 1 2 0 1 0 1
0 16 -84 359 0 0 1 2 0 1 0 1
phys
0 36 -64 359 0 0 1 2 0 1 0 1
0 36 -64 88 0 0 1 2 0 1 0 1
0 16 -64 88 0 0 1 2 0 1 0 1
phys
0 36 -64 359 0 0 1 2 0 1 0 1
0 16 -64 88 0 0 1 2 0 1 0 1
0 16 -64 359 0 0 1 2 0 1 0 1
phys
0 36 -84 88 0 0 1 2 0 1 0 1
0 36 -84 359 0 0 1 2 0 1 0 1
0 16 -84 359 0 0 1 2 0 1 0 1
phys
0 36 -84 88 0 0 1 2 0 1 0 1
0 16 -84 359 0 0 1 2 0 1 0 1
0 16 -84 88 0 0 1 2 0 1 0 1
phys
0 -12 -16 -68 0 0 1 3 0 1 0 1
0 -12 -16 68 0 0 1 3 0 1 0 1
0 -16 -11.999 68 0 0 1 3 0 1 0 1
phys
0 -12 -16 -68 0 0 1 3 0 1 0 1
0 -16 -11.999 68 0 0 1 3 0 1 0 1
0 -16 -11.999 -68 0 0 1 3 0 1 0 1
phys
0 12 -16 68 0 0 1 3 0 1 0 1
0 12 -16 -68 0 0 1 3 0 1 0 1
0 16 -12 -68 0 0 1 3 0 1 0 1
phys
0 12 -16 68 0 0 1 3 0 1 0 1
0 16 -12 -68 0 0 1 3 0 1 0 1
0 16 -12 68 0 0 1 3 0 1 0 1
phys
0 12 16 -68 0 0 1 3 0 1 0 1
0 -12 16 -68 0 0 1 3 0 1 0 1
0 -12 16 68 0 0 1 3 0 1 0 1
phys
0 12 16 -68 0 0 1 3 0 1 0 1
0 -12 16 68 0 0 1 3 0 1 0 1
0 12 16 68 0 0 1 3 0 1 0 1
phys
0 12 -16 -68 0 0 1 3 0 1 0 1
0 12 -16 68 0 0 1 3 0 1 0 1
0 -12 -16 68 0 0 1 3 0 1 0 1
phys
0 12 -16 -68 0 0 1 3 0 1 0 1
0 -12 -16 68 0 0 1 3 0 1 0 1
0 -12 -16 -68 0 0 1 3 0 1 0 1
phys
0 -16 -11.999 -68 0 0 1 3 0 1 0 1
0 -16 -11.999 68 0 0 1 3 0 1 0 1
0 -16 12.001 68 0 0 1 3 0 1 0 1
phys
0 -16 -11.999 -68 0 0 1 3 0 1 0 1
0 -16 12.001 68 0 0 1 3 0 1 0 1
0 -16 12.001 -68 0 0 1 3 0 1 0 1
phys
0 16 -12 68 0 0 1 3 0 1 0 1
0 16 -12 -68 0 0 1 3 0 1 0 1
0 16 12 -68 0 0 1 3 0 1 0 1
phys
0 16 -12 68 0 0 1 3 0 1 0 1
0 16 12 -68 0 0 1 3 0 1 0 1
0 16 12 68 0 0 1 3 0 1 0 1
phys
0 16 -12 -68 0 0 1 3 0 1 0 1
0 12 -16 -68 0 0 1 3 0 1 0 1
0 -12 -16 -68 0 0 1 3 0 1 0 1
phys
0 16 -12 -68 0 0 1 3 0 1 0 1
0 -12 -16 -68 0 0 1 3 0 1 0 1
0 -16 -11.999 -68 0 0 1 3 0 1 0 1
phys
0 16 -12 -68 0 0 1 3 0 1 0 1
0 -16 -11.999 -68 0 0 1 3 0 1 0 1
0 -16 12.001 -68 0 0 1 3 0 1 0 1
phys
0 16 -12 -68 0 0 1 3 0 1 0 1
0 -16 12.001 -68 0 0 1 3 0 1 0 1
0 -12 16 -68 0 0 1 3 0 1 0 1
phys
0 16 -12 -68 0 0 1 3 0 1 0 1
0 -12 16 -68 0 0 1 3 0 1 0 1
0 12 16 -68 0 0 1 3 0 1 0 1
phys
0 16 -12 -68 0 0 1 3 0 1 0 1
0 12 16 -68 0 0 1 3 0 1 0 1
0 16 12 -68 0 0 1 3 0 1 0 1
phys
0 -16 -11.999 68 0 0 1 3 0 1 0 1
0 -12 -16 68 0 0 1 3 0 1 0 1
0 12 -16 68 0 0 1 3 0 1 0 1
phys
0 -16 -11.999 68 0 0 1 3 0 1 0 1
0 12 -16 68 0 0 1 3 0 1 0 1
0 16 -12 68 0 0 1 3 0 1 0 1
phys
0 -16 -11.999 68 0 0 1 3 0 1 0 1
0 16 -12 68 0 0 1 3 0 1 0 1
0 16 12 68 0 0 1 3 0 1 0 1
phys
0 -16 -11.999 68 0 0 1 3 0 1 0 1
0 16 12 68 0 0 1 3 0 1 0 1
0 12 16 68 0 0 1 3 0 1 0 1
phys
0 -16 -11.999 68 0 0 1 3 0 1 0 1
0 12 16 68 0 0 1 3 0 1 0 1
0 -12 16 68 0 0 1 3 0 1 0 1
phys
0 -16 -11.999 68 0 0 1 3 0 1 0 1
0 -12 16 68 0 0 1 3 0 1 0 1
0 -16 12.001 68 0 0 1 3 0 1 0 1
phys
0 -16 12.001 -68 0 0 1 3 0 1 0 1
0 -16 12.001 68 0 0 1 3 0 1 0 1
0 -12 16 68 0 0 1 3 0 1 0 1
phys
0 -16 12.001 -68 0 0 1 3 0 1 0 1
0 -12 16 68 0 0 1 3 0 1 0 1
0 -12 16 -68 0 0 1 3 0 1 0 1
phys
0 16 12 68 0 0 1 3 0 1 0 1
0 16 12 -68 0 0 1 3 0 1 0 1
0 12 16 -68 0 0 1 3 0 1 0 1
phys
0 16 12 68 0 0 1 3 0 1 0 1
0 12 16 -68 0 0 1 3 0 1 0 1
0 12 16 68 0 0 1 3 0 1 0 1
phys
0 145 -319 -22 0 0 1 4 0 1 0 1
0 145 -319 -65 0 0 1 4 0 1 0 1
0 140 -319 -65 0 0 1 4 0 1 0 1
phys
0 145 -319 -22 0 0 1 4 0 1 0 1
0 140 -319 -65 0 0 1 4 0 1 0 1
0 140 -319 -22 0 0 1 4 0 1 0 1
phys
0 145 -325 -65 0 0 1 4 0 1 0 1
0 145 -325 -22 0 0 1 4 0 1 0 1
0 140 -325 -22 0 0 1 4 0 1 0 1
phys
0 145 -325 -65 0 0 1 4 0 1 0 1
0 140 -325 -22 0 0 1 4 0 1 0 1
0 140 -325 -65 0 0 1 4 0 1 0 1
phys
0 140 -325 -65 0 0 1 4 0 1 0 1
0 140 -325 -22 0 0 1 4 0 1 0 1
0 140 -319 -22 0 0 1 4 0 1 0 1
phys
0 140 -325 -65 0 0 1 4 0 1 0 1
0 140 -319 -22 0 0 1 4 0 1 0 1
0 140 -319 -65 0 0 1 4 0 1 0 1
phys
0 145 -325 -22 0 0 1 4 0 1 0 1
0 145 -325 -65 0 0 1 4 0 1 0 1
0 145 -319 -65 0 0 1 4 0 1 0 1
phys
0 145 -325 -22 0 0 1 4 0 1 0 1
0 145 -319 -65 0 0 1 4 0 1 0 1
0 145 -319 -22 0 0 1 4 0 1 0 1
phys
0 145 -325 -65 0 0 1 4 0 1 0 1
0 140 -325 -65 0 0 1 4 0 1 0 1
0 140 -319 -65 0 0 1 4 0 1 0 1
phys
0 145 -325 -65 0 0 1 4 0 1 0 1
0 140 -319 -65 0 0 1 4 0 1 0 1
0 145 -319 -65 0 0 1 4 0 1 0 1
phys
0 140 -325 -22 0 0 1 4 0 1 0 1
0 145 -325 -22 0 0 1 4 0 1 0 1
0 145 -319 -22 0 0 1 4 0 1 0 1
phys
0 140 -325 -22 0 0 1 4 0 1 0 1
0 145 -319 -22 0 0 1 4 0 1 0 1
0 140 -319 -22 0 0 1 4 0 1 0 1
phys
0 5.7 -57.92 -37 0 0 1 5 0 1 0 1
0 5 -57.212 -37 0 0 1 5 0 1 0 1
0 26.2 -35.999 -37 0 0 1 5 0 1 0 1
phys
0 5.7 -57.92 -37 0 0 1 5 0 1 0 1
0 26.2 -35.999 -37 0 0 1 5 0 1 0 1
0 26.9 -36.707 -37 0 0 1 5 0 1 0 1
phys
0 26.2 -35.999 10 0 0 1 5 0 1 0 1
0 5 -57.212 10 0 0 1 5 0 1 0 1
0 5.7 -57.92 10 0 0 1 5 0 1 0 1
phys
0 26.2 -35.999 10 0 0 1 5 0 1 0 1
0 5.7 -57.92 10 0 0 1 5 0 1 0 1
0 26.9 -36.707 10 0 0 1 5 0 1 0 1
phys
0 5 -57.212 10 0 0 1 5 0 1 0 1
0 26.2 -35.999 10 0 0 1 5 0 1 0 1
0 26.2 -35.999 -37 0 0 1 5 0 1 0 1
phys
0 5 -57.212 10 0 0 1 5 0 1 0 1
0 26.2 -35.999 -37 0 0 1 5 0 1 0 1
0 5 -57.212 -37 0 0 1 5 0 1 0 1
phys
0 5.7 -57.92 10 0 0 1 5 0 1 0 1
0 5 -57.212 10 0 0 1 5 0 1 0 1
0 5 -57.212 -37 0 0 1 5 0 1 0 1
phys
0 5.7 -57.92 10 0 0 1 5 0 1 0 1
0 5 -57.212 -37 0 0 1 5 0 1 0 1
0 5.7 -57.92 -37 0 0 1 5 0 1 0 1
phys
0 5.7 -57.92 -37 0 0 1 5 0 1 0 1
0 26.9 -36.707 -37 0 0 1 5 0 1 0 1
0 26.9 -36.707 10 0 0 1 5 0 1 0 1
phys
0 5.7 -57.92 -37 0 0 1 5 0 1 0 1
0 26.9 -36.707 10 0 0 1 5 0 1 0 1
0 5.7 -57.92 10 0 0 1 5 0 1 0 1
phys
0 26.9 -36.707 -37 0 0 1 5 0 1 0 1
0 26.2 -35.999 -37 0 0 1 5 0 1 0 1
0 26.2 -35.999 10 0 0 1 5 0 1 0 1
phys
0 26.9 -36.707 -37 0 0 1 5 0 1 0 1
0 26.2 -35.999 10 0 0 1 5 0 1 0 1
0 26.9 -36.707 10 0 0 1 5 0 1 0 1
phys
0 252 -325 -65 0 0 1 6 0 1 0 1
0 246 -325 -65 0 0 1 6 0 1 0 1
0 246 -319 -65 0 0 1 6 0 1 0 1
phys
0 252 -325 -65 0 0 1 6 0 1 0 1
0 246 -319 -65 0 0 1 6 0 1 0 1
0 252 -319 -65 0 0 1 6 0 1 0 1
phys
0 246 -325 -22 0 0 1 6 0 1 0 1
0 252 -325 -22 0 0 1 6 0 1 0 1
0 252 -319 -22 0 0 1 6 0 1 0 1
phys
0 246 -325 -22 0 0 1 6 0 1 0 1
0 252 -319 -22 0 0 1 6 0 1 0 1
0 246 -319 -22 0 0 1 6 0 1 0 1
phys
0 252 -319 -65 0 0 1 6 0 1 0 1
0 246 -319 -65 0 0 1 6 0 1 0 1
0 246 -319 -22 0 0 1 6 0 1 0 1
phys
0 252 -319 -65 0 0 1 6 0 1 0 1
0 246 -319 -22 0 0 1 6 0 1 0 1
0 252 -319 -22 0 0 1 6 0 1 0 1
phys
0 252 -325 -22 0 0 1 6 0 1 0 1
0 246 -325 -22 0 0 1 6 0 1 0 1
0 246 -325 -65 0 0 1 6 0 1 0 1
phys
0 252 -325 -22 0 0 1 6 0 1 0 1
0 246 -325 -65 0 0 1 6 0 1 0 1
0 252 -325 -65 0 0 1 6 0 1 0 1
phys
0 246 -325 -22 0 0 1 6 0 1 0 1
0 246 -319 -22 0 0 1 6 0 1 0 1
0 246 -319 -65 0 0 1 6 0 1 0 1
phys
0 246 -325 -22 0 0 1 6 0 1 0 1
0 246 -319 -65 0 0 1 6 0 1 0 1
0 246 -325 -65 0 0 1 6 0 1 0 1
phys
0 252 -325 -65 0 0 1 6 0 1 0 1
0 252 -319 -65 0 0 1 6 0 1 0 1
0 252 -319 -22 0 0 1 6 0 1 0 1
phys
0 252 -325 -65 0 0 1 6 0 1 0 1
0 252 -319 -22 0 0 1 6 0 1 0 1
0 252 -325 -22 0 0 1 6 0 1 0 1
end
