version 1
nodes
0 "root" -1
end
skeleton
time 0
0 0 0 0 0 0 0
end
triangles
pepsi2_gta4_churchfloor
0 14.9 -47.314 -3 0 0 1 102.951214 111.396995 1 0 1
0 16.3 -45.899 -3 0 0 1 102.925296 111.397133 1 0 1
0 14.9 -44.485 -3 0 0 1 102.925167 111.423041 1 0 1
pepsi2_gta4_churchfloor
0 14.9 -47.314 -3 0 0 1 102.951214 111.396995 1 0 1
0 14.9 -44.485 -3 0 0 1 102.925167 111.423041 1 0 1
0 13.499505 -45.8985 -3 0 0 1 102.951076 111.422921 1 0 1
pepsi2_gta4_churchfloor
0 14.9 -47.314 -67 0.710865 -0.703329 0 4.785156 104.396527 1 0 1
0 16.3 -45.899 -67 0.710865 -0.703329 0 4.785156 104.370609 1 0 1
0 16.3 -45.899 -3 0.710865 -0.703329 0 3.951823 104.370609 1 0 1
pepsi2_gta4_churchfloor
0 14.9 -47.314 -67 0.710865 -0.703329 0 4.785156 104.396527 1 0 1
0 16.3 -45.899 -3 0.710865 -0.703329 0 3.951823 104.370609 1 0 1
0 14.9 -47.314 -3 0.710865 -0.703329 0 3.951823 104.396527 1 0 1
pepsi2_gta4_churchfloor
0 16.3 -45.899 -67 0.710616 0.70358 0 4.785156 111.397133 1 0 1
0 14.9 -44.485 -67 0.710616 0.70358 0 4.785156 111.423041 1 0 1
0 14.9 -44.485 -3 0.710616 0.70358 0 3.951823 111.423041 1 0 1
pepsi2_gta4_churchfloor
0 16.3 -45.899 -67 0.710616 0.70358 0 4.785156 111.397133 1 0 1
0 14.9 -44.485 -3 0.710616 0.70358 0 3.951823 111.423041 1 0 1
0 16.3 -45.899 -3 0.710616 0.70358 0 3.951823 111.397133 1 0 1
pepsi2_gta4_churchfloor
0 13.499505 -45.8985 -3 -0.710367 0.703831 0 3.951823 -102.574123 1 0 1
0 14.9 -44.485 -3 -0.710367 0.703831 0 3.951823 -102.548214 1 0 1
0 14.9 -44.485 -67 -0.710367 0.703831 0 4.785156 -102.548214 1 0 1
pepsi2_gta4_churchfloor
0 13.499505 -45.8985 -3 -0.710367 0.703831 0 3.951823 -102.574123 1 0 1
0 14.9 -44.485 -67 -0.710367 0.703831 0 4.785156 -102.548214 1 0 1
0 13.499505 -45.8985 -67 -0.710367 0.703831 0 4.785156 -102.574123 1 0 1
pepsi2_gta4_churchfloor
0 14.9 -47.314 -3 -0.710865 -0.703329 0 3.951823 111.396995 1 0 1
0 13.499505 -45.8985 -3 -0.710865 -0.703329 0 3.951823 111.422921 1 0 1
0 13.499505 -45.8985 -67 -0.710865 -0.703329 0 4.785156 111.422921 1 0 1
pepsi2_gta4_churchfloor
0 14.9 -47.314 -3 -0.710865 -0.703329 0 3.951823 111.396995 1 0 1
0 13.499505 -45.8985 -67 -0.710865 -0.703329 0 4.785156 111.422921 1 0 1
0 14.9 -47.314 -67 -0.710865 -0.703329 0 4.785156 111.396995 1 0 1
bridge_se1_metal_flat_steel_01
0 36 -84 88 1 0 0 -2.734375 1.855469 1 0 1
0 36 -64 88 1 0 0 -2.890625 1.855469 1 0 1
0 36 -64 359 1 0 0 -2.890625 -0.261719 1 0 1
bridge_se1_metal_flat_steel_01
0 36 -84 88 1 0 0 -2.734375 1.855469 1 0 1
0 36 -64 359 1 0 0 -2.890625 -0.261719 1 0 1
0 36 -84 359 1 0 0 -2.734375 -0.261719 1 0 1
bridge_se1_metal_flat_steel_01
0 36 -64 359 0 1 0 1.226562 -89.144531 1 0 1
0 36 -64 88 0 1 0 -0.890625 -89.144531 1 0 1
0 16 -64 88 0 1 0 -0.890625 -89.300781 1 0 1
bridge_se1_metal_flat_steel_01
0 36 -64 359 0 1 0 1.226562 -89.144531 1 0 1
0 16 -64 88 0 1 0 -0.890625 -89.300781 1 0 1
0 16 -64 359 0 1 0 1.226562 -89.300781 1 0 1
bridge_se1_metal_flat_steel_01
0 36 -84 88 0 -1 0 1.265625 -89.144531 1 0 1
0 36 -84 359 0 -1 0 -0.851562 -89.144531 1 0 1
0 16 -84 359 0 -1 0 -0.851562 -89.300781 1 0 1
bridge_se1_metal_flat_steel_01
0 36 -84 88 0 -1 0 1.265625 -89.144531 1 0 1
0 16 -84 359 0 -1 0 -0.851562 -89.300781 1 0 1
0 16 -84 88 0 -1 0 1.265625 -89.300781 1 0 1
bridge_se1_metal_flat_steel_01
0 -12 -16 -68 -0.707195 -0.707018 0 66.692205 3.074219 1 0 1
0 -12 -16 68 -0.707195 -0.707018 0 66.692205 2.011719 1 0 1
0 -16 -11.999 68 -0.707195 -0.707018 0 66.736405 2.011719 1 0 1
bridge_se1_metal_flat_steel_01
0 -12 -16 -68 -0.707195 -0.707018 0 66.692205 3.074219 1 0 1
0 -16 -11.999 68 -0.707195 -0.707018 0 66.736405 2.011719 1 0 1
0 -16 -11.999 -68 -0.707195 -0.707018 0 66.736405 3.074219 1 0 1
bridge_se1_metal_flat_steel_01
0 12 -16 68 0.707107 -0.707107 0 61.504779 2.011719 1 0 1
0 12 -16 -68 0.707107 -0.707107 0 61.504779 3.074219 1 0 1
0 16 -12 -68 0.707107 -0.707107 0 61.460585 3.074219 1 0 1
bridge_se1_metal_flat_steel_01
0 12 -16 68 0.707107 -0.707107 0 61.504779 2.011719 1 0 1
0 16 -12 -68 0.707107 -0.707107 0 61.460585 3.074219 1 0 1
0 16 -12 68 0.707107 -0.707107 0 61.460585 2.011719 1 0 1
bridge_se1_metal_flat_steel_01
0 12 16 -68 0 1 0 -90.771484 3.074219 1 0 1
0 -12 16 -68 0 1 0 -90.958984 3.074219 1 0 1
0 -12 16 68 0 1 0 -90.958984 2.011719 1 0 1
bridge_se1_metal_flat_steel_01
0 12 16 -68 0 1 0 -90.771484 3.074219 1 0 1
0 -12 16 68 0 1 0 -90.958984 2.011719 1 0 1
0 12 16 68 0 1 0 -90.771484 2.011719 1 0 1
bridge_se1_metal_flat_steel_01
0 12 -16 -68 0 -1 0 90.505859 3.074219 1 0 1
0 12 -16 68 0 -1 0 90.505859 2.011719 1 0 1
0 -12 -16 68 0 -1 0 90.693359 2.011719 1 0 1
bridge_se1_metal_flat_steel_01
0 12 -16 -68 0 -1 0 90.505859 3.074219 1 0 1
0 -12 -16 68 0 -1 0 90.693359 2.011719 1 0 1
0 -12 -16 -68 0 -1 0 90.693359 3.074219 1 0 1
bridge_se1_metal_flat_steel_01
0 -16 -11.999 -68 -1 0 0 2.736336 3.074219 1 0 1
0 -16 -11.999 68 -1 0 0 2.736336 2.011719 1 0 1
0 -16 12.001 68 -1 0 0 2.923836 2.011719 1 0 1
bridge_se1_metal_flat_steel_01
0 -16 -11.999 -68 -1 0 0 2.736336 3.074219 1 0 1
0 -16 12.001 68 -1 0 0 2.923836 2.011719 1 0 1
0 -16 12.001 -68 -1 0 0 2.923836 3.074219 1 0 1
bridge_se1_metal_flat_steel_01
0 16 -12 68 1 0 0 -2.539062 2.011719 1 0 1
0 16 -12 -68 1 0 0 -2.539062 3.074219 1 0 1
0 16 12 -68 1 0 0 -2.726562 3.074219 1 0 1
bridge_se1_metal_flat_steel_01
0 16 -12 68 1 0 0 -2.539062 2.011719 1 0 1
0 16 12 -68 1 0 0 -2.726562 3.074219 1 0 1
0 16 12 68 1 0 0 -2.726562 2.011719 1 0 1
bridge_se1_metal_flat_steel_01
0 -16 12.001 -68 -0.707018 0.707195 0 -62.000867 3.074219 1 0 1
0 -16 12.001 68 -0.707018 0.707195 0 -62.000867 2.011719 1 0 1
0 -12 16 68 -0.707018 0.707195 0 -61.956679 2.011719 1 0 1
bridge_se1_metal_flat_steel_01
0 -16 12.001 -68 -0.707018 0.707195 0 -62.000867 3.074219 1 0 1
0 -12 16 68 -0.707018 0.707195 0 -61.956679 2.011719 1 0 1
0 -12 16 -68 -0.707018 0.707195 0 -61.956679 3.074219 1 0 1
bridge_se1_metal_flat_steel_01
0 16 12 68 0.707107 0.707107 0 -66.725409 2.011719 1 0 1
0 16 12 -68 0.707107 0.707107 0 -66.725409 3.074219 1 0 1
0 12 16 -68 0.707107 0.707107 0 -66.769602 3.074219 1 0 1
bridge_se1_metal_flat_steel_01
0 16 12 68 0.707107 0.707107 0 -66.725409 2.011719 1 0 1
0 12 16 -68 0.707107 0.707107 0 -66.769602 3.074219 1 0 1
0 12 16 68 0.707107 0.707107 0 -66.769602 2.011719 1 0 1
pepsi2_arch_concrete_stair01
0 145 -319 -22 0 1 0 89.109375 -1.257812 1 0 1
0 145 -319 -65 0 1 0 89.109375 -1.59375 1 0 1
0 140 -319 -65 0 1 0 89.148438 -1.59375 1 0 1
pepsi2_arch_concrete_stair01
0 145 -319 -22 0 1 0 89.109375 -1.257812 1 0 1
0 140 -319 -65 0 1 0 89.148438 -1.59375 1 0 1
0 140 -319 -22 0 1 0 89.148438 -1.257812 1 0 1
pepsi2_arch_concrete_stair01
0 145 -325 -65 0 -1 0 -89.109375 -1.59375 1 0 1
0 145 -325 -22 0 -1 0 -89.109375 -1.257812 1 0 1
0 140 -325 -22 0 -1 0 -89.148438 -1.257812 1 0 1
pepsi2_arch_concrete_stair01
0 145 -325 -65 0 -1 0 -89.109375 -1.59375 1 0 1
0 140 -325 -22 0 -1 0 -89.148438 -1.257812 1 0 1
0 140 -325 -65 0 -1 0 -89.148438 -1.59375 1 0 1
pepsi2_arch_concrete_stair01
0 140 -325 -65 -1 0 0 -1.542969 -1.59375 1 0 1
0 140 -325 -22 -1 0 0 -1.542969 -1.257812 1 0 1
0 140 -319 -22 -1 0 0 -1.589844 -1.257812 1 0 1
pepsi2_arch_concrete_stair01
0 140 -325 -65 -1 0 0 -1.542969 -1.59375 1 0 1
0 140 -319 -22 -1 0 0 -1.589844 -1.257812 1 0 1
0 140 -319 -65 -1 0 0 -1.589844 -1.59375 1 0 1
pepsi2_arch_concrete_stair01
0 145 -325 -22 1 0 0 1.542969 -1.257812 1 0 1
0 145 -325 -65 1 0 0 1.542969 -1.59375 1 0 1
0 145 -319 -65 1 0 0 1.589844 -1.59375 1 0 1
pepsi2_arch_concrete_stair01
0 145 -325 -22 1 0 0 1.542969 -1.257812 1 0 1
0 145 -319 -65 1 0 0 1.589844 -1.59375 1 0 1
0 145 -319 -22 1 0 0 1.589844 -1.257812 1 0 1
pepsi2_arch_concrete_stair01
0 140 -325 -22 0 0 1 -0.363281 -90.007812 1 0 1
0 145 -325 -22 0 0 1 -0.363281 -89.96875 1 0 1
0 145 -319 -22 0 0 1 -0.410156 -89.96875 1 0 1
pepsi2_arch_concrete_stair01
0 140 -325 -22 0 0 1 -0.363281 -90.007812 1 0 1
0 145 -319 -22 0 0 1 -0.410156 -89.96875 1 0 1
0 140 -319 -22 0 0 1 -0.410156 -90.007812 1 0 1
pepsi2_arch_plaster01
0 5.7 -57.92 -37 0 0 -1 -103.36599 -109.200456 1 0 1
0 5 -57.212 -37 0 0 -1 -103.365917 -109.213419 1 0 1
0 26.2 -35.999 -37 0 0 -1 -102.975419 -109.213539 1 0 1
pepsi2_arch_plaster01
0 5.7 -57.92 -37 0 0 -1 -103.36599 -109.200456 1 0 1
0 26.2 -35.999 -37 0 0 -1 -102.975419 -109.213539 1 0 1
0 26.9 -36.707 -37 0 0 -1 -102.975493 -109.200575 1 0 1
pepsi2_arch_plaster01
0 26.2 -35.999 10 0 0 1 -102.975419 -109.213539 1 0 1
0 5 -57.212 10 0 0 1 -103.365917 -109.213419 1 0 1
0 5.7 -57.92 10 0 0 1 -103.36599 -109.200456 1 0 1
pepsi2_arch_plaster01
0 26.2 -35.999 10 0 0 1 -102.975419 -109.213539 1 0 1
0 5.7 -57.92 10 0 0 1 -103.36599 -109.200456 1 0 1
0 26.9 -36.707 10 0 0 1 -102.975493 -109.200575 1 0 1
pepsi2_arch_plaster01
0 5 -57.212 10 -0.707323 0.70689 0 -61.648066 -1.273438 1 0 1
0 26.2 -35.999 10 -0.707323 0.70689 0 -61.413767 -1.273438 1 0 1
0 26.2 -35.999 -37 -0.707323 0.70689 0 -61.413767 -1.640625 1 0 1
pepsi2_arch_plaster01
0 5 -57.212 10 -0.707323 0.70689 0 -61.648066 -1.273438 1 0 1
0 26.2 -35.999 -37 -0.707323 0.70689 0 -61.413767 -1.640625 1 0 1
0 5 -57.212 -37 -0.707323 0.70689 0 -61.648066 -1.640625 1 0 1
pepsi2_arch_plaster01
0 5.7 -57.92 10 -0.711113 -0.703078 0 -3.854818 -109.200456 1 0 1
0 5 -57.212 10 -0.711113 -0.703078 0 -3.854818 -109.213419 1 0 1
0 5 -57.212 -37 -0.711113 -0.703078 0 -4.466797 -109.213419 1 0 1
pepsi2_arch_plaster01
0 5.7 -57.92 10 -0.711113 -0.703078 0 -3.854818 -109.200456 1 0 1
0 5 -57.212 -37 -0.711113 -0.703078 0 -4.466797 -109.213419 1 0 1
0 5.7 -57.92 -37 -0.711113 -0.703078 0 -4.466797 -109.200456 1 0 1
pepsi2_graphics_election2
0 5.7 -57.92 -37 0.707323 -0.70689 0 -265.000424 -5.999989 1 0 1
0 26.9 -36.707 -37 0.707323 -0.70689 0 -264.000445 -5.999989 1 0 1
0 26.9 -36.707 10 0.707323 -0.70689 0 -264.000445 -4.999991 1 0 1
pepsi2_graphics_election2
0 5.7 -57.92 -37 0.707323 -0.70689 0 -265.000424 -5.999989 1 0 1
0 26.9 -36.707 10 0.707323 -0.70689 0 -264.000445 -4.999991 1 0 1
0 5.7 -57.92 10 0.707323 -0.70689 0 -265.000424 -4.999991 1 0 1
pepsi2_arch_plaster01
0 26.9 -36.707 -37 0.711113 0.703078 0 4.525391 -109.200575 1 0 1
0 26.2 -35.999 -37 0.711113 0.703078 0 4.525391 -109.213539 1 0 1
0 26.2 -35.999 10 0.711113 0.703078 0 3.913411 -109.213539 1 0 1
pepsi2_arch_plaster01
0 26.9 -36.707 -37 0.711113 0.703078 0 4.525391 -109.200575 1 0 1
0 26.2 -35.999 10 0.711113 0.703078 0 3.913411 -109.213539 1 0 1
0 26.9 -36.707 10 0.711113 0.703078 0 3.913411 -109.200575 1 0 1
pepsi2_arch_concrete_stair01
0 246 -325 -22 0 0 1 -0.023438 -87.660156 1 0 1
0 252 -325 -22 0 0 1 -0.023438 -87.613281 1 0 1
0 252 -319 -22 0 0 1 -0.070312 -87.613281 1 0 1
pepsi2_arch_concrete_stair01
0 246 -325 -22 0 0 1 -0.023438 -87.660156 1 0 1
0 252 -319 -22 0 0 1 -0.070312 -87.613281 1 0 1
0 246 -319 -22 0 0 1 -0.070312 -87.660156 1 0 1
pepsi2_arch_concrete_stair01
0 252 -319 -65 0 1 0 88.273438 -1.59375 1 0 1
0 246 -319 -65 0 1 0 88.320312 -1.59375 1 0 1
0 246 -319 -22 0 1 0 88.320312 -1.257812 1 0 1
pepsi2_arch_concrete_stair01
0 252 -319 -65 0 1 0 88.273438 -1.59375 1 0 1
0 246 -319 -22 0 1 0 88.320312 -1.257812 1 0 1
0 252 -319 -22 0 1 0 88.273438 -1.257812 1 0 1
pepsi2_arch_concrete_stair01
0 252 -325 -22 0 -1 0 -88.273438 -1.257812 1 0 1
0 246 -325 -22 0 -1 0 -88.320312 -1.257812 1 0 1
0 246 -325 -65 0 -1 0 -88.320312 -1.59375 1 0 1
pepsi2_arch_concrete_stair01
0 252 -325 -22 0 -1 0 -88.273438 -1.257812 1 0 1
0 246 -325 -65 0 -1 0 -88.320312 -1.59375 1 0 1
0 252 -325 -65 0 -1 0 -88.273438 -1.59375 1 0 1
pepsi2_arch_concrete_stair01
0 246 -325 -22 -1 0 0 -1.542969 -1.257812 1 0 1
0 246 -319 -22 -1 0 0 -1.589844 -1.257812 1 0 1
0 246 -319 -65 -1 0 0 -1.589844 -1.59375 1 0 1
pepsi2_arch_concrete_stair01
0 246 -325 -22 -1 0 0 -1.542969 -1.257812 1 0 1
0 246 -319 -65 -1 0 0 -1.589844 -1.59375 1 0 1
0 246 -325 -65 -1 0 0 -1.542969 -1.59375 1 0 1
pepsi2_arch_concrete_stair01
0 252 -325 -65 1 0 0 1.542969 -1.59375 1 0 1
0 252 -319 -65 1 0 0 1.589844 -1.59375 1 0 1
0 252 -319 -22 1 0 0 1.589844 -1.257812 1 0 1
pepsi2_arch_concrete_stair01
0 252 -325 -65 1 0 0 1.542969 -1.59375 1 0 1
0 252 -319 -22 1 0 0 1.589844 -1.257812 1 0 1
0 252 -325 -22 1 0 0 1.542969 -1.257812 1 0 1
end
