version 1
nodes
0 "root" -1
end
skeleton
time 0
0 0 0 0 0 0 0
end
triangles
phys
0 34 274 230 0 0 1 1 0 1 0 1
0 34 274 222 0 0 1 1 0 1 0 1
0 -96 274 222 0 0 1 1 0 1 0 1
phys
0 34 274 230 0 0 1 1 0 1 0 1
0 -96 274 222 0 0 1 1 0 1 0 1
0 -96 274 230 0 0 1 1 0 1 0 1
phys
0 -96 262 230 0 0 1 1 0 1 0 1
0 -96 274 230 0 0 1 1 0 1 0 1
0 -96 274 222 0 0 1 1 0 1 0 1
phys
0 34 274 222 0 0 1 1 0 1 0 1
0 34 274 230 0 0 1 1 0 1 0 1
0 34 262 230 0 0 1 1 0 1 0 1
phys
0 34 262 230 0 0 1 1 0 1 0 1
0 34 274 230 0 0 1 1 0 1 0 1
0 -96 274 230 0 0 1 1 0 1 0 1
phys
0 34 262 230 0 0 1 1 0 1 0 1
0 -96 274 230 0 0 1 1 0 1 0 1
0 -96 262 230 0 0 1 1 0 1 0 1
phys
0 -96 262 230 0 0 1 1 0 1 0 1
0 -96 274 222 0 0 1 1 0 1 0 1
0 34 274 222 0 0 1 1 0 1 0 1
phys
0 -96 262 230 0 0 1 1 0 1 0 1
0 34 274 222 0 0 1 1 0 1 0 1
0 34 262 230 0 0 1 1 0 1 0 1
phys
0 96 -43 64 0 0 1 2 0 1 0 1
0 96 -43 56.001 0 0 1 2 0 1 0 1
0 88 -43 64 0 0 1 2 0 1 0 1
phys
0 96 -309 56.001 0 0 1 2 0 1 0 1
0 96 -309 64 0 0 1 2 0 1 0 1
0 88 -309 64 0 0 1 2 0 1 0 1
phys
0 96 -309 64 0 0 1 2 0 1 0 1
0 96 -309 56.001 0 0 1 2 0 1 0 1
0 96 -43 56.001 0 0 1 2 0 1 0 1
phys
0 96 -309 64 0 0 1 2 0 1 0 1
0 96 -43 56.001 0 0 1 2 0 1 0 1
0 96 -43 64 0 0 1 2 0 1 0 1
phys
0 88 -309 64 0 0 1 2 0 1 0 1
0 96 -309 64 0 0 1 2 0 1 0 1
0 96 -43 64 0 0 1 2 0 1 0 1
phys
0 88 -309 64 0 0 1 2 0 1 0 1
0 96 -43 64 0 0 1 2 0 1 0 1
0 88 -43 64 0 0 1 2 0 1 0 1
phys
0 96 -309 56.001 0 0 1 2 0 1 0 1
0 88 -309 64 0 0 1 2 0 1 0 1
0 88 -43 64 0 0 1 2 0 1 0 1
phys
0 96 -309 56.001 0 0 1 2 0 1 0 1
0 88 -43 64 0 0 1 2 0 1 0 1
0 96 -43 56.001 0 0 1 2 0 1 0 1
phys
0 -96 274 222 0 0 1 3 0 1 0 1
0 34 274 222 0 0 1 3 0 1 0 1
0 34 286 222 0 0 1 3 0 1 0 1
phys
0 -96 274 222 0 0 1 3 0 1 0 1
0 34 286 222 0 0 1 3 0 1 0 1
0 -96 286 222 0 0 1 3 0 1 0 1
phys
0 34 274 222 0 0 1 3 0 1 0 1
0 -96 274 222 0 0 1 3 0 1 0 1
0 -96 286 214 0 0 1 3 0 1 0 1
phys
0 34 274 222 0 0 1 3 0 1 0 1
0 -96 286 214 0 0 1 3 0 1 0 1
0 34 286 214 0 0 1 3 0 1 0 1
phys
0 34 286 214 0 0 1 3 0 1 0 1
0 -96 286 214 0 0 1 3 0 1 0 1
0 -96 286 222 0 0 1 3 0 1 0 1
phys
0 34 286 214 0 0 1 3 0 1 0 1
0 -96 286 222 0 0 1 3 0 1 0 1
0 34 286 222 0 0 1 3 0 1 0 1
phys
0 -96 274 222 0 0 1 3 0 1 0 1
0 -96 286 222 0 0 1 3 0 1 0 1
0 -96 286 214 0 0 1 3 0 1 0 1
phys
0 34 286 222 0 0 1 3 0 1 0 1
0 34 274 222 0 0 1 3 0 1 0 1
0 34 286 214 0 0 1 3 0 1 0 1
phys
0 40 -43 0 0 0 1 4 0 1 0 1
0 32 -43 0 0 0 1 4 0 1 0 1
0 32 -43 8 0 0 1 4 0 1 0 1
phys
0 32 -245 8 0 0 1 4 0 1 0 1
0 32 -245 0 0 0 1 4 0 1 0 1
0 40 -245 0 0 0 1 4 0 1 0 1
phys
0 32 -245 0 0 0 1 4 0 1 0 1
0 32 -245 8 0 0 1 4 0 1 0 1
0 32 -43 8 0 0 1 4 0 1 0 1
phys
0 32 -245 0 0 0 1 4 0 1 0 1
0 32 -43 8 0 0 1 4 0 1 0 1
0 32 -43 0 0 0 1 4 0 1 0 1
phys
0 40 -245 0 0 0 1 4 0 1 0 1
0 32 -245 0 0 0 1 4 0 1 0 1
0 32 -43 0 0 0 1 4 0 1 0 1
phys
0 40 -245 0 0 0 1 4 0 1 0 1
0 32 -43 0 0 0 1 4 0 1 0 1
0 40 -43 0 0 0 1 4 0 1 0 1
phys
0 32 -245 8 0 0 1 4 0 1 0 1
0 40 -245 0 0 0 1 4 0 1 0 1
0 40 -43 0 0 0 1 4 0 1 0 1
phys
0 32 -245 8 0 0 1 4 0 1 0 1
0 40 -43 0 0 0 1 4 0 1 0 1
0 32 -43 8 0 0 1 4 0 1 0 1
phys
0 92 -43 60 0 0 1 5 0 1 0 1
0 92 -43 64 0 0 1 5 0 1 0 1
0 36 -43 64 0 0 1 5 0 1 0 1
phys
0 92 -43 60 0 0 1 5 0 1 0 1
0 36 -43 64 0 0 1 5 0 1 0 1
0 36 -43 60 0 0 1 5 0 1 0 1
phys
0 36 -43 60 0 0 1 5 0 1 0 1
0 36 -43 64 0 0 1 5 0 1 0 1
0 36 -39 64 0 0 1 5 0 1 0 1
phys
0 36 -43 60 0 0 1 5 0 1 0 1
0 36 -39 64 0 0 1 5 0 1 0 1
0 36 -39 60 0 0 1 5 0 1 0 1
phys
0 92 -43 64 0 0 1 5 0 1 0 1
0 92 -43 60 0 0 1 5 0 1 0 1
0 92 -39 60 0 0 1 5 0 1 0 1
phys
0 92 -43 64 0 0 1 5 0 1 0 1
0 92 -39 60 0 0 1 5 0 1 0 1
0 92 -39 64 0 0 1 5 0 1 0 1
phys
0 92 -43 60 0 0 1 5 0 1 0 1
0 36 -43 60 0 0 1 5 0 1 0 1
0 36 -39 60 0 0 1 5 0 1 0 1
phys
0 92 -43 60 0 0 1 5 0 1 0 1
0 36 -39 60 0 0 1 5 0 1 0 1
0 92 -39 60 0 0 1 5 0 1 0 1
phys
0 36 -43 64 0 0 1 5 0 1 0 1
0 92 -43 64 0 0 1 5 0 1 0 1
0 92 -39 64 0 0 1 5 0 1 0 1
phys
0 36 -43 64 0 0 1 5 0 1 0 1
0 92 -39 64 0 0 1 5 0 1 0 1
0 36 -39 64 0 0 1 5 0 1 0 1
phys
0 92 -39 64 0 0 1 5 0 1 0 1
0 92 -39 60 0 0 1 5 0 1 0 1
0 36 -39 60 0 0 1 5 0 1 0 1
phys
0 92 -39 64 0 0 1 5 0 1 0 1
0 36 -39 60 0 0 1 5 0 1 0 1
0 36 -39 64 0 0 1 5 0 1 0 1
phys
0 34 250 246 0 0 1 6 0 1 0 1
0 34 250 238 0 0 1 6 0 1 0 1
0 -96 250 238 0 0 1 6 0 1 0 1
phys
0 34 250 246 0 0 1 6 0 1 0 1
0 -96 250 238 0 0 1 6 0 1 0 1
0 -96 250 246 0 0 1 6 0 1 0 1
phys
0 -96 238 246 0 0 1 6 0 1 0 1
0 -96 250 246 0 0 1 6 0 1 0 1
0 -96 250 238 0 0 1 6 0 1 0 1
phys
0 34 250 238 0 0 1 6 0 1 0 1
0 34 250 246 0 0 1 6 0 1 0 1
0 34 238 246 0 0 1 6 0 1 0 1
phys
0 34 238 246 0 0 1 6 0 1 0 1
0 34 250 246 0 0 1 6 0 1 0 1
0 -96 250 246 0 0 1 6 0 1 0 1
phys
0 34 238 246 0 0 1 6 0 1 0 1
0 -96 250 246 0 0 1 6 0 1 0 1
0 -96 238 246 0 0 1 6 0 1 0 1
phys
0 -96 238 246 0 0 1 6 0 1 0 1
0 -96 250 238 0 0 1 6 0 1 0 1
0 34 250 238 0 0 1 6 0 1 0 1
phys
0 -96 238 246 0 0 1 6 0 1 0 1
0 34 250 238 0 0 1 6 0 1 0 1
0 34 238 246 0 0 1 6 0 1 0 1
phys
0 34 298 214 0 0 1 7 0 1 0 1
0 34 298 206 0 0 1 7 0 1 0 1
0 -96 298 206 0 0 1 7 0 1 0 1
phys
0 34 298 214 0 0 1 7 0 1 0 1
0 -96 298 206 0 0 1 7 0 1 0 1
0 -96 298 214 0 0 1 7 0 1 0 1
phys
0 -96 286 214 0 0 1 7 0 1 0 1
0 -96 298 214 0 0 1 7 0 1 0 1
0 -96 298 206 0 0 1 7 0 1 0 1
phys
0 34 298 206 0 0 1 7 0 1 0 1
0 34 298 214 0 0 1 7 0 1 0 1
0 34 286 214 0 0 1 7 0 1 0 1
phys
0 34 286 214 0 0 1 7 0 1 0 1
0 34 298 214 0 0 1 7 0 1 0 1
0 -96 298 214 0 0 1 7 0 1 0 1
phys
0 34 286 214 0 0 1 7 0 1 0 1
0 -96 298 214 0 0 1 7 0 1 0 1
0 -96 286 214 0 0 1 7 0 1 0 1
phys
0 -96 286 214 0 0 1 7 0 1 0 1
0 -96 298 206 0 0 1 7 0 1 0 1
0 34 298 206 0 0 1 7 0 1 0 1
phys
0 -96 286 214 0 0 1 7 0 1 0 1
0 34 298 206 0 0 1 7 0 1 0 1
0 34 286 214 0 0 1 7 0 1 0 1
phys
0 96 -43 7.999 0 0 1 8 0 1 0 1
0 96 -43 0 0 0 1 8 0 1 0 1
0 88 -43 0 0 0 1 8 0 1 0 1
phys
0 96 -245 0 0 0 1 8 0 1 0 1
0 96 -245 7.999 0 0 1 8 0 1 0 1
0 88 -245 0 0 0 1 8 0 1 0 1
phys
0 96 -245 7.999 0 0 1 8 0 1 0 1
0 96 -245 0 0 0 1 8 0 1 0 1
0 96 -43 0 0 0 1 8 0 1 0 1
phys
0 96 -245 7.999 0 0 1 8 0 1 0 1
0 96 -43 0 0 0 1 8 0 1 0 1
0 96 -43 7.999 0 0 1 8 0 1 0 1
phys
0 96 -245 0 0 0 1 8 0 1 0 1
0 88 -245 0 0 0 1 8 0 1 0 1
0 88 -43 0 0 0 1 8 0 1 0 1
phys
0 96 -245 0 0 0 1 8 0 1 0 1
0 88 -43 0 0 0 1 8 0 1 0 1
0 96 -43 0 0 0 1 8 0 1 0 1
phys
0 88 -245 0 0 0 1 8 0 1 0 1
0 96 -245 7.999 0 0 1 8 0 1 0 1
0 96 -43 7.999 0 0 1 8 0 1 0 1
phys
0 88 -245 0 0 0 1 8 0 1 0 1
0 96 -43 7.999 0 0 1 8 0 1 0 1
0 88 -43 0 0 0 1 8 0 1 0 1
phys
0 32 -43 64 0 0 1 9 0 1 0 1
0 36 -43 64 0 0 1 9 0 1 0 1
0 36 -39 64 0 0 1 9 0 1 0 1
phys
0 32 -43 64 0 0 1 9 0 1 0 1
0 36 -39 64 0 0 1 9 0 1 0 1
0 32 -39 64 0 0 1 9 0 1 0 1
phys
0 32 -39 0 0 0 1 9 0 1 0 1
0 32 -39 64 0 0 1 9 0 1 0 1
0 36 -39 64 0 0 1 9 0 1 0 1
phys
0 32 -39 0 0 0 1 9 0 1 0 1
0 36 -39 64 0 0 1 9 0 1 0 1
0 36 -39 0 0 0 1 9 0 1 0 1
phys
0 36 -43 0 0 0 1 9 0 1 0 1
0 36 -43 64 0 0 1 9 0 1 0 1
0 32 -43 64 0 0 1 9 0 1 0 1
phys
0 36 -43 0 0 0 1 9 0 1 0 1
0 32 -43 64 0 0 1 9 0 1 0 1
0 32 -43 0 0 0 1 9 0 1 0 1
phys
0 32 -43 0 0 0 1 9 0 1 0 1
0 32 -43 64 0 0 1 9 0 1 0 1
0 32 -39 64 0 0 1 9 0 1 0 1
phys
0 32 -43 0 0 0 1 9 0 1 0 1
0 32 -39 64 0 0 1 9 0 1 0 1
0 32 -39 0 0 0 1 9 0 1 0 1
phys
0 36 -39 0 0 0 1 9 0 1 0 1
0 36 -39 64 0 0 1 9 0 1 0 1
0 36 -43 64 0 0 1 9 0 1 0 1
phys
0 36 -39 0 0 0 1 9 0 1 0 1
0 36 -43 64 0 0 1 9 0 1 0 1
0 36 -43 0 0 0 1 9 0 1 0 1
phys
0 36 -43 0 0 0 1 9 0 1 0 1
0 32 -43 0 0 0 1 9 0 1 0 1
0 32 -39 0 0 0 1 9 0 1 0 1
phys
0 36 -43 0 0 0 1 9 0 1 0 1
0 32 -39 0 0 0 1 9 0 1 0 1
0 36 -39 0 0 0 1 9 0 1 0 1
phys
0 34 310 206 0 0 1 10 0 1 0 1
0 34 310 198 0 0 1 10 0 1 0 1
0 -96 310 198 0 0 1 10 0 1 0 1
phys
0 34 310 206 0 0 1 10 0 1 0 1
0 -96 310 198 0 0 1 10 0 1 0 1
0 -96 310 206 0 0 1 10 0 1 0 1
phys
0 -96 298 206 0 0 1 10 0 1 0 1
0 -96 310 206 0 0 1 10 0 1 0 1
0 -96 310 198 0 0 1 10 0 1 0 1
phys
0 34 310 198 0 0 1 10 0 1 0 1
0 34 310 206 0 0 1 10 0 1 0 1
0 34 298 206 0 0 1 10 0 1 0 1
phys
0 34 298 206 0 0 1 10 0 1 0 1
0 34 310 206 0 0 1 10 0 1 0 1
0 -96 310 206 0 0 1 10 0 1 0 1
phys
0 34 298 206 0 0 1 10 0 1 0 1
0 -96 310 206 0 0 1 10 0 1 0 1
0 -96 298 206 0 0 1 10 0 1 0 1
phys
0 -96 298 206 0 0 1 10 0 1 0 1
0 -96 310 198 0 0 1 10 0 1 0 1
0 34 310 198 0 0 1 10 0 1 0 1
phys
0 -96 298 206 0 0 1 10 0 1 0 1
0 34 310 198 0 0 1 10 0 1 0 1
0 34 298 206 0 0 1 10 0 1 0 1
phys
0 92 -39 4 0 0 1 11 0 1 0 1
0 92 -39 0 0 0 1 11 0 1 0 1
0 36 -39 0 0 0 1 11 0 1 0 1
phys
0 92 -39 4 0 0 1 11 0 1 0 1
0 36 -39 0 0 0 1 11 0 1 0 1
0 36 -39 4 0 0 1 11 0 1 0 1
phys
0 92 -43 0 0 0 1 11 0 1 0 1
0 92 -43 4 0 0 1 11 0 1 0 1
0 36 -43 4 0 0 1 11 0 1 0 1
phys
0 92 -43 0 0 0 1 11 0 1 0 1
0 36 -43 4 0 0 1 11 0 1 0 1
0 36 -43 0 0 0 1 11 0 1 0 1
phys
0 36 -43 0 0 0 1 11 0 1 0 1
0 36 -43 4 0 0 1 11 0 1 0 1
0 36 -39 4 0 0 1 11 0 1 0 1
phys
0 36 -43 0 0 0 1 11 0 1 0 1
0 36 -39 4 0 0 1 11 0 1 0 1
0 36 -39 0 0 0 1 11 0 1 0 1
phys
0 92 -43 4 0 0 1 11 0 1 0 1
0 92 -43 0 0 0 1 11 0 1 0 1
0 92 -39 0 0 0 1 11 0 1 0 1
phys
0 92 -43 4 0 0 1 11 0 1 0 1
0 92 -39 0 0 0 1 11 0 1 0 1
0 92 -39 4 0 0 1 11 0 1 0 1
phys
0 92 -43 0 0 0 1 11 0 1 0 1
0 36 -43 0 0 0 1 11 0 1 0 1
0 36 -39 0 0 0 1 11 0 1 0 1
phys
0 92 -43 0 0 0 1 11 0 1 0 1
0 36 -39 0 0 0 1 11 0 1 0 1
0 92 -39 0 0 0 1 11 0 1 0 1
phys
0 36 -43 4 0 0 1 11 0 1 0 1
0 92 -43 4 0 0 1 11 0 1 0 1
0 92 -39 4 0 0 1 11 0 1 0 1
phys
0 36 -43 4 0 0 1 11 0 1 0 1
0 92 -39 4 0 0 1 11 0 1 0 1
0 36 -39 4 0 0 1 11 0 1 0 1
phys
0 96 -39 64 0 0 1 12 0 1 0 1
0 96 -39 0 0 0 1 12 0 1 0 1
0 92 -39 0 0 0 1 12 0 1 0 1
phys
0 96 -39 64 0 0 1 12 0 1 0 1
0 92 -39 0 0 0 1 12 0 1 0 1
0 92 -39 64 0 0 1 12 0 1 0 1
phys
0 96 -43 0 0 0 1 12 0 1 0 1
0 96 -43 64 0 0 1 12 0 1 0 1
0 92 -43 64 0 0 1 12 0 1 0 1
phys
0 96 -43 0 0 0 1 12 0 1 0 1
0 92 -43 64 0 0 1 12 0 1 0 1
0 92 -43 0 0 0 1 12 0 1 0 1
phys
0 92 -43 0 0 0 1 12 0 1 0 1
0 92 -43 64 0 0 1 12 0 1 0 1
0 92 -39 64 0 0 1 12 0 1 0 1
phys
0 92 -43 0 0 0 1 12 0 1 0 1
0 92 -39 64 0 0 1 12 0 1 0 1
0 92 -39 0 0 0 1 12 0 1 0 1
phys
0 96 -43 64 0 0 1 12 0 1 0 1
0 96 -43 0 0 0 1 12 0 1 0 1
0 96 -39 0 0 0 1 12 0 1 0 1
phys
0 96 -43 64 0 0 1 12 0 1 0 1
0 96 -39 0 0 0 1 12 0 1 0 1
0 96 -39 64 0 0 1 12 0 1 0 1
phys
0 96 -43 0 0 0 1 12 0 1 0 1
0 92 -43 0 0 0 1 12 0 1 0 1
0 92 -39 0 0 0 1 12 0 1 0 1
phys
0 96 -43 0 0 0 1 12 0 1 0 1
0 92 -39 0 0 0 1 12 0 1 0 1
0 96 -39 0 0 0 1 12 0 1 0 1
phys
0 92 -43 64 0 0 1 12 0 1 0 1
0 96 -43 64 0 0 1 12 0 1 0 1
0 96 -39 64 0 0 1 12 0 1 0 1
phys
0 92 -43 64 0 0 1 12 0 1 0 1
0 96 -39 64 0 0 1 12 0 1 0 1
0 92 -39 64 0 0 1 12 0 1 0 1
phys
0 -96 250 238 0 0 1 13 0 1 0 1
0 34 250 238 0 0 1 13 0 1 0 1
0 34 262 238 0 0 1 13 0 1 0 1
phys
0 -96 250 238 0 0 1 13 0 1 0 1
0 34 262 238 0 0 1 13 0 1 0 1
0 -96 262 238 0 0 1 13 0 1 0 1
phys
0 34 250 238 0 0 1 13 0 1 0 1
0 -96 250 238 0 0 1 13 0 1 0 1
0 -96 262 230 0 0 1 13 0 1 0 1
phys
0 34 250 238 0 0 1 13 0 1 0 1
0 -96 262 230 0 0 1 13 0 1 0 1
0 34 262 230 0 0 1 13 0 1 0 1
phys
0 34 262 230 0 0 1 13 0 1 0 1
0 -96 262 230 0 0 1 13 0 1 0 1
0 -96 262 238 0 0 1 13 0 1 0 1
phys
0 34 262 230 0 0 1 13 0 1 0 1
0 -96 262 238 0 0 1 13 0 1 0 1
0 34 262 238 0 0 1 13 0 1 0 1
phys
0 -96 250 238 0 0 1 13 0 1 0 1
0 -96 262 238 0 0 1 13 0 1 0 1
0 -96 262 230 0 0 1 13 0 1 0 1
phys
0 34 262 238 0 0 1 13 0 1 0 1
0 34 250 238 0 0 1 13 0 1 0 1
0 34 262 230 0 0 1 13 0 1 0 1
phys
0 35 238 254 0 0 1 14 0 1 0 1
0 35 238 246 0 0 1 14 0 1 0 1
0 -95 238 246 0 0 1 14 0 1 0 1
phys
0 35 238 254 0 0 1 14 0 1 0 1
0 -95 238 246 0 0 1 14 0 1 0 1
0 -95 238 254 0 0 1 14 0 1 0 1
phys
0 35 137 246 0 0 1 14 0 1 0 1
0 35 137 254 0 0 1 14 0 1 0 1
0 -95 137 254 0 0 1 14 0 1 0 1
phys
0 35 137 246 0 0 1 14 0 1 0 1
0 -95 137 254 0 0 1 14 0 1 0 1
0 -95 137 246 0 0 1 14 0 1 0 1
phys
0 -95 137 246 0 0 1 14 0 1 0 1
0 -95 137 254 0 0 1 14 0 1 0 1
0 -95 238 254 0 0 1 14 0 1 0 1
phys
0 -95 137 246 0 0 1 14 0 1 0 1
0 -95 238 254 0 0 1 14 0 1 0 1
0 -95 238 246 0 0 1 14 0 1 0 1
phys
0 35 137 254 0 0 1 14 0 1 0 1
0 35 137 246 0 0 1 14 0 1 0 1
0 35 238 246 0 0 1 14 0 1 0 1
phys
0 35 137 254 0 0 1 14 0 1 0 1
0 35 238 246 0 0 1 14 0 1 0 1
0 35 238 254 0 0 1 14 0 1 0 1
phys
0 35 137 246 0 0 1 14 0 1 0 1
0 -95 137 246 0 0 1 14 0 1 0 1
0 -95 238 246 0 0 1 14 0 1 0 1
phys
0 35 137 246 0 0 1 14 0 1 0 1
0 -95 238 246 0 0 1 14 0 1 0 1
0 35 238 246 0 0 1 14 0 1 0 1
phys
0 -95 137 254 0 0 1 14 0 1 0 1
0 35 137 254 0 0 1 14 0 1 0 1
0 35 238 254 0 0 1 14 0 1 0 1
phys
0 -95 137 254 0 0 1 14 0 1 0 1
0 35 238 254 0 0 1 14 0 1 0 1
0 -95 238 254 0 0 1 14 0 1 0 1
phys
0 32 -43 55.998 0 0 1 15 0 1 0 1
0 32 -43 64 0 0 1 15 0 1 0 1
0 40 -43 64 0 0 1 15 0 1 0 1
phys
0 40 -309 64 0 0 1 15 0 1 0 1
0 32 -309 64 0 0 1 15 0 1 0 1
0 32 -309 55.998 0 0 1 15 0 1 0 1
phys
0 32 -309 55.998 0 0 1 15 0 1 0 1
0 32 -309 64 0 0 1 15 0 1 0 1
0 32 -43 64 0 0 1 15 0 1 0 1
phys
0 32 -309 55.998 0 0 1 15 0 1 0 1
0 32 -43 64 0 0 1 15 0 1 0 1
0 32 -43 55.998 0 0 1 15 0 1 0 1
phys
0 32 -309 64 0 0 1 15 0 1 0 1
0 40 -309 64 0 0 1 15 0 1 0 1
0 40 -43 64 0 0 1 15 0 1 0 1
phys
0 32 -309 64 0 0 1 15 0 1 0 1
0 40 -43 64 0 0 1 15 0 1 0 1
0 32 -43 64 0 0 1 15 0 1 0 1
phys
0 40 -309 64 0 0 1 15 0 1 0 1
0 32 -309 55.998 0 0 1 15 0 1 0 1
0 32 -43 55.998 0 0 1 15 0 1 0 1
phys
0 40 -309 64 0 0 1 15 0 1 0 1
0 32 -43 55.998 0 0 1 15 0 1 0 1
0 40 -43 64 0 0 1 15 0 1 0 1
end
