version 1
nodes
0 "root" -1
end
skeleton
time 0
0 0 0 0 0 0 0
end
triangles
pepsi2_arch_concrete_floor_smooth01
0 -224 -94 0.264 0 1 0 -75.3125 -1.007703 1 0 1
0 -272 -94 0.264 0 1 0 -75.6875 -1.007703 1 0 1
0 -272 -94 258 0 1 0 -75.6875 1.005859 1 0 1
pepsi2_arch_concrete_floor_smooth01
0 -224 -94 0.264 0 1 0 -75.3125 -1.007703 1 0 1
0 -272 -94 258 0 1 0 -75.6875 1.005859 1 0 1
0 -224 -94 258 0 1 0 -75.3125 1.005859 1 0 1
pepsi2_arch_concrete_floor_smooth01
0 -216 -150 258 1 0 0 39.150391 1.005859 1 0 1
0 -216 -150 0.264 1 0 0 39.150391 -1.007703 1 0 1
0 -216 -102 0.264 1 0 0 38.775391 -1.007703 1 0 1
pepsi2_arch_concrete_floor_smooth01
0 -216 -150 258 1 0 0 39.150391 1.005859 1 0 1
0 -216 -102 0.264 1 0 0 38.775391 -1.007703 1 0 1
0 -216 -102 258 1 0 0 38.775391 1.005859 1 0 1
pepsi2_arch_concrete_floor_smooth01
0 -216 -102 258 0.707107 0.707107 0 -26.22379 1.005859 1 0 1
0 -216 -102 0.264 0.707107 0.707107 0 -26.22379 -1.007703 1 0 1
0 -224 -94 0.264 0.707107 0.707107 0 -26.312177 -1.007703 1 0 1
pepsi2_arch_concrete_floor_smooth01
0 -216 -102 258 0.707107 0.707107 0 -26.22379 1.005859 1 0 1
0 -224 -94 0.264 0.707107 0.707107 0 -26.312177 -1.007703 1 0 1
0 -224 -94 258 0.707107 0.707107 0 -26.312177 1.005859 1 0 1
pepsi2_arch_bricks01
0 -60 -143 124.264 0.447214 0.894427 0 -34.763984 1.52308 1 0 1
0 -60 -143 0.264 0.447214 0.894427 0 -34.763984 2.215045 1 0 1
0 -76 -135 0.264 0.447214 0.894427 0 -34.863806 2.215045 1 0 1
pepsi2_arch_bricks01
0 -60 -143 124.264 0.447214 0.894427 0 -34.763984 1.52308 1 0 1
0 -76 -135 0.264 0.447214 0.894427 0 -34.863806 2.215045 1 0 1
0 -76 -135 124.264 0.447214 0.894427 0 -34.863806 1.52308 1 0 1
pepsi2_arch_bricks01
0 -76 -135 124.264 0 1 0 -52.864397 1.52308 1 0 1
0 -76 -135 0.264 0 1 0 -52.864397 2.215045 1 0 1
0 -100 -135 0.264 0 1 0 -52.998326 2.215045 1 0 1
pepsi2_arch_bricks01
0 -76 -135 124.264 0 1 0 -52.864397 1.52308 1 0 1
0 -100 -135 0.264 0 1 0 -52.998326 2.215045 1 0 1
0 -100 -135 124.264 0 1 0 -52.998326 1.52308 1 0 1
pepsi2_arch_bricks01
0 -60 -150 124.264 1 0 0 28.274833 1.52308 1 0 1
0 -60 -150 0.264 1 0 0 28.274833 2.215045 1 0 1
0 -60 -143 0.264 1 0 0 28.23577 2.215045 1 0 1
pepsi2_arch_bricks01
0 -60 -150 124.264 1 0 0 28.274833 1.52308 1 0 1
0 -60 -143 0.264 1 0 0 28.23577 2.215045 1 0 1
0 -60 -143 124.264 1 0 0 28.23577 1.52308 1 0 1
pepsi2_arch_bricks01
0 100 -135 124.264 0 1 0 -51.882254 1.52308 1 0 1
0 100 -135 0.264 0 1 0 -51.882254 2.215045 1 0 1
0 76 -135 0.264 0 1 0 -52.016183 2.215045 1 0 1
pepsi2_arch_bricks01
0 100 -135 124.264 0 1 0 -51.882254 1.52308 1 0 1
0 76 -135 0.264 0 1 0 -52.016183 2.215045 1 0 1
0 76 -135 124.264 0 1 0 -52.016183 1.52308 1 0 1
pepsi2_arch_bricks01
0 60 -150 0.264 -1 0 0 -28.155692 2.215045 1 0 1
0 60 -150 124.264 -1 0 0 -28.155692 1.52308 1 0 1
0 60 -143 124.264 -1 0 0 -28.116629 1.52308 1 0 1
pepsi2_arch_bricks01
0 60 -150 0.264 -1 0 0 -28.155692 2.215045 1 0 1
0 60 -143 124.264 -1 0 0 -28.116629 1.52308 1 0 1
0 60 -143 0.264 -1 0 0 -28.116629 2.215045 1 0 1
pepsi2_arch_bricks01
0 60 -143 0.264 -0.447214 0.894427 0 -59.114569 2.215045 1 0 1
0 60 -143 124.264 -0.447214 0.894427 0 -59.114569 1.52308 1 0 1
0 76 -135 124.264 -0.447214 0.894427 0 -59.014748 1.52308 1 0 1
pepsi2_arch_bricks01
0 60 -143 0.264 -0.447214 0.894427 0 -59.114569 2.215045 1 0 1
0 76 -135 124.264 -0.447214 0.894427 0 -59.014748 1.52308 1 0 1
0 76 -135 0.264 -0.447214 0.894427 0 -59.014748 2.215045 1 0 1
pepsi2_arch_bricks01
0 216 -135 179.265 0 1 0 -51.234933 1.216155 1 0 1
0 216 -135 0.264 0 1 0 -51.234933 2.215045 1 0 1
0 100 -135 0.264 0 1 0 -51.882254 2.215045 1 0 1
pepsi2_arch_bricks01
0 216 -135 179.265 0 1 0 -51.234933 1.216155 1 0 1
0 100 -135 0.264 0 1 0 -51.882254 2.215045 1 0 1
0 100 -135 179.265 0 1 0 -51.882254 1.216155 1 0 1
pepsi2_arch_bricks01
0 100 -150 187.264 0 0 1 -51.882254 -26.897879 1 0 1
0 216 -150 187.264 0 0 1 -51.234933 -26.897879 1 0 1
0 216 -138 187.264 0 0 1 -51.234933 -26.830915 1 0 1
pepsi2_arch_bricks01
0 100 -150 187.264 0 0 1 -51.882254 -26.897879 1 0 1
0 216 -138 187.264 0 0 1 -51.234933 -26.830915 1 0 1
0 100 -138 187.264 0 0 1 -51.882254 -26.830915 1 0 1
pepsi2_arch_bricks01
0 216 -135 179.265 0 0.936315 0.351162 -51.234933 -7.782815 1 0 1
0 100 -135 179.265 0 0.936315 0.351162 -51.882254 -7.782815 1 0 1
0 100 -138 187.264 0 0.936315 0.351162 -51.882254 -7.830487 1 0 1
pepsi2_arch_bricks01
0 216 -135 179.265 0 0.936315 0.351162 -51.234933 -7.782815 1 0 1
0 100 -138 187.264 0 0.936315 0.351162 -51.882254 -7.830487 1 0 1
0 216 -138 187.264 0 0.936315 0.351162 -51.234933 -7.830487 1 0 1
pepsi2_arch_bricks01
0 -100 -135 179.265 0 0.936315 0.351162 -52.998326 -7.782815 1 0 1
0 -216 -135 179.265 0 0.936315 0.351162 -53.645647 -7.782815 1 0 1
0 -216 -138 187.264 0 0.936315 0.351162 -53.645647 -7.830487 1 0 1
pepsi2_arch_bricks01
0 -100 -135 179.265 0 0.936315 0.351162 -52.998326 -7.782815 1 0 1
0 -216 -138 187.264 0 0.936315 0.351162 -53.645647 -7.830487 1 0 1
0 -100 -138 187.264 0 0.936315 0.351162 -52.998326 -7.830487 1 0 1
pepsi2_arch_bricks01
0 -216 -135 0.264 0 1 0 -53.645647 2.215045 1 0 1
0 -216 -135 179.265 0 1 0 -53.645647 1.216155 1 0 1
0 -100 -135 179.265 0 1 0 -52.998326 1.216155 1 0 1
pepsi2_arch_bricks01
0 -216 -135 0.264 0 1 0 -53.645647 2.215045 1 0 1
0 -100 -135 179.265 0 1 0 -52.998326 1.216155 1 0 1
0 -100 -135 0.264 0 1 0 -52.998326 2.215045 1 0 1
pepsi2_arch_bricks01
0 -216 -150 187.264 0 0 1 -53.645647 -26.897879 1 0 1
0 -100 -150 187.264 0 0 1 -52.998326 -26.897879 1 0 1
0 -100 -138 187.264 0 0 1 -52.998326 -26.830915 1 0 1
pepsi2_arch_bricks01
0 -216 -150 187.264 0 0 1 -53.645647 -26.897879 1 0 1
0 -100 -138 187.264 0 0 1 -52.998326 -26.830915 1 0 1
0 -216 -138 187.264 0 0 1 -53.645647 -26.830915 1 0 1
pepsi2_arch_concrete_floor_smooth01
0 14 149 0.264 0 1 0 73.638672 -1.007703 1 0 1
0 -26 149 0.264 0 1 0 73.951172 -1.007703 1 0 1
0 -26 149 258 0 1 0 73.951172 1.005859 1 0 1
pepsi2_arch_concrete_floor_smooth01
0 14 149 0.264 0 1 0 73.638672 -1.007703 1 0 1
0 -26 149 258 0 1 0 73.951172 1.005859 1 0 1
0 14 149 258 0 1 0 73.638672 1.005859 1 0 1
pepsi2_arch_concrete_floor_smooth01
0 14 93 258 0 -1 0 -72.851562 1.005859 1 0 1
0 -26 93 258 0 -1 0 -73.164062 1.005859 1 0 1
0 -26 93 0.264 0 -1 0 -73.164062 -1.007703 1 0 1
pepsi2_arch_concrete_floor_smooth01
0 14 93 258 0 -1 0 -72.851562 1.005859 1 0 1
0 -26 93 0.264 0 -1 0 -73.164062 -1.007703 1 0 1
0 14 93 0.264 0 -1 0 -72.851562 -1.007703 1 0 1
pepsi2_arch_concrete_floor_smooth01
0 -34 101 258 -1 0 0 36.748047 1.005859 1 0 1
0 -34 141 258 -1 0 0 36.435547 1.005859 1 0 1
0 -34 141 0.264 -1 0 0 36.435547 -1.007703 1 0 1
pepsi2_arch_concrete_floor_smooth01
0 -34 101 258 -1 0 0 36.748047 1.005859 1 0 1
0 -34 141 0.264 -1 0 0 36.435547 -1.007703 1 0 1
0 -34 101 0.264 -1 0 0 36.748047 -1.007703 1 0 1
pepsi2_arch_concrete_floor_smooth01
0 22 101 0.264 1 0 0 -36.761719 -1.007703 1 0 1
0 22 141 0.264 1 0 0 -36.449219 -1.007703 1 0 1
0 22 141 258 1 0 0 -36.449219 1.005859 1 0 1
pepsi2_arch_concrete_floor_smooth01
0 22 101 0.264 1 0 0 -36.761719 -1.007703 1 0 1
0 22 141 258 1 0 0 -36.449219 1.005859 1 0 1
0 22 101 258 1 0 0 -36.761719 1.005859 1 0 1
pepsi2_arch_concrete_floor_smooth01
0 -26 93 0.264 -0.707107 -0.707107 0 -26.16352 -1.007703 1 0 1
0 -26 93 258 -0.707107 -0.707107 0 -26.16352 1.005859 1 0 1
0 -34 101 258 -0.707107 -0.707107 0 -26.251908 1.005859 1 0 1
pepsi2_arch_concrete_floor_smooth01
0 -26 93 0.264 -0.707107 -0.707107 0 -26.16352 -1.007703 1 0 1
0 -34 101 258 -0.707107 -0.707107 0 -26.251908 1.005859 1 0 1
0 -34 101 0.264 -0.707107 -0.707107 0 -26.251908 -1.007703 1 0 1
pepsi2_arch_concrete_floor_smooth01
0 -34 141 0.264 -0.707107 0.707107 0 78.039459 -1.007703 1 0 1
0 -34 141 258 -0.707107 0.707107 0 78.039459 1.005859 1 0 1
0 -26 149 258 -0.707107 0.707107 0 77.951072 1.005859 1 0 1
pepsi2_arch_concrete_floor_smooth01
0 -34 141 0.264 -0.707107 0.707107 0 78.039459 -1.007703 1 0 1
0 -26 149 258 -0.707107 0.707107 0 77.951072 1.005859 1 0 1
0 -26 149 0.264 -0.707107 0.707107 0 77.951072 -1.007703 1 0 1
pepsi2_arch_concrete_floor_smooth01
0 22 141 258 0.707107 0.707107 0 25.550239 1.005859 1 0 1
0 22 141 0.264 0.707107 0.707107 0 25.550239 -1.007703 1 0 1
0 14 149 0.264 0.707107 0.707107 0 25.638627 -1.007703 1 0 1
pepsi2_arch_concrete_floor_smooth01
0 22 141 258 0.707107 0.707107 0 25.550239 1.005859 1 0 1
0 14 149 0.264 0.707107 0.707107 0 25.638627 -1.007703 1 0 1
0 14 149 258 0.707107 0.707107 0 25.638627 1.005859 1 0 1
pepsi2_arch_concrete_floor_smooth01
0 14 93 258 0.707107 -0.707107 0 -77.850006 1.005859 1 0 1
0 14 93 0.264 0.707107 -0.707107 0 -77.850006 -1.007703 1 0 1
0 22 101 0.264 0.707107 -0.707107 0 -77.761619 -1.007703 1 0 1
pepsi2_arch_concrete_floor_smooth01
0 14 93 258 0.707107 -0.707107 0 -77.850006 1.005859 1 0 1
0 22 101 0.264 0.707107 -0.707107 0 -77.761619 -1.007703 1 0 1
0 22 101 258 0.707107 -0.707107 0 -77.761619 1.005859 1 0 1
pepsi2_arch_bricks01
0 100 -135 179.265 0 1 0 -51.882254 1.216155 1 0 1
0 100 -135 124.264 0 1 0 -51.882254 1.52308 1 0 1
0 -100 -135 124.264 0 1 0 -52.998326 1.52308 1 0 1
pepsi2_arch_bricks01
0 100 -135 179.265 0 1 0 -51.882254 1.216155 1 0 1
0 -100 -135 124.264 0 1 0 -52.998326 1.52308 1 0 1
0 -100 -135 179.265 0 1 0 -52.998326 1.216155 1 0 1
pepsi2_arch_bricks01
0 100 -150 124.264 0 0 -1 -51.882254 28.606864 1 0 1
0 -100 -150 124.264 0 0 -1 -52.998326 28.606864 1 0 1
0 -100 -135 124.264 0 0 -1 -52.998326 28.523158 1 0 1
pepsi2_arch_bricks01
0 100 -150 124.264 0 0 -1 -51.882254 28.606864 1 0 1
0 -100 -135 124.264 0 0 -1 -52.998326 28.523158 1 0 1
0 100 -135 124.264 0 0 -1 -51.882254 28.523158 1 0 1
pepsi2_arch_bricks01
0 -100 -150 187.264 0 0 1 -52.998326 -26.897879 1 0 1
0 100 -150 187.264 0 0 1 -51.882254 -26.897879 1 0 1
0 100 -138 187.264 0 0 1 -51.882254 -26.830915 1 0 1
pepsi2_arch_bricks01
0 -100 -150 187.264 0 0 1 -52.998326 -26.897879 1 0 1
0 100 -138 187.264 0 0 1 -51.882254 -26.830915 1 0 1
0 -100 -138 187.264 0 0 1 -52.998326 -26.830915 1 0 1
pepsi2_arch_bricks01
0 100 -135 179.265 0 0.936315 0.351162 -51.882254 -7.782815 1 0 1
0 -100 -135 179.265 0 0.936315 0.351162 -52.998326 -7.782815 1 0 1
0 -100 -138 187.264 0 0.936315 0.351162 -52.998326 -7.830487 1 0 1
pepsi2_arch_bricks01
0 100 -135 179.265 0 0.936315 0.351162 -51.882254 -7.782815 1 0 1
0 -100 -138 187.264 0 0.936315 0.351162 -52.998326 -7.830487 1 0 1
0 100 -138 187.264 0 0.936315 0.351162 -51.882254 -7.830487 1 0 1
pepsi2_arch_concrete_floor_smooth01
0 272 -94 258 0 1 0 -70.994141 1.005859 1 0 1
0 272 -94 0.264 0 1 0 -70.994141 -1.007703 1 0 1
0 224 -94 0.264 0 1 0 -71.369141 -1.007703 1 0 1
pepsi2_arch_concrete_floor_smooth01
0 272 -94 258 0 1 0 -70.994141 1.005859 1 0 1
0 224 -94 0.264 0 1 0 -71.369141 -1.007703 1 0 1
0 224 -94 258 0 1 0 -71.369141 1.005859 1 0 1
pepsi2_arch_concrete_floor_smooth01
0 216 -150 0.264 -1 0 0 -38.832031 -1.007703 1 0 1
0 216 -150 258 -1 0 0 -38.832031 1.005859 1 0 1
0 216 -102 258 -1 0 0 -38.457031 1.005859 1 0 1
pepsi2_arch_concrete_floor_smooth01
0 216 -150 0.264 -1 0 0 -38.832031 -1.007703 1 0 1
0 216 -102 258 -1 0 0 -38.457031 1.005859 1 0 1
0 216 -102 0.264 -1 0 0 -38.457031 -1.007703 1 0 1
pepsi2_arch_concrete_floor_smooth01
0 216 -102 0.264 -0.707107 0.707107 0 -77.455868 -1.007703 1 0 1
0 216 -102 258 -0.707107 0.707107 0 -77.455868 1.005859 1 0 1
0 224 -94 258 -0.707107 0.707107 0 -77.36748 1.005859 1 0 1
pepsi2_arch_concrete_floor_smooth01
0 216 -102 0.264 -0.707107 0.707107 0 -77.455868 -1.007703 1 0 1
0 224 -94 258 -0.707107 0.707107 0 -77.36748 1.005859 1 0 1
0 224 -94 0.264 -0.707107 0.707107 0 -77.36748 -1.007703 1 0 1
end
