version 1
nodes
0 "root" -1
end
skeleton
time 0
0 0 0 0 0 0 0
end
triangles
phys
0 -1 -53.27 260.139 0 0 1 1 0 1 0 1
0 -1 -37.1 260.139 0 0 1 1 0 1 0 1
0 -1 -53.27 248.457 0 0 1 1 0 1 0 1
phys
0 94 -53.27 248.457 0 0 1 1 0 1 0 1
0 94 -37.1 260.139 0 0 1 1 0 1 0 1
0 94 -53.27 260.139 0 0 1 1 0 1 0 1
phys
0 94 -53.27 260.139 0 0 1 1 0 1 0 1
0 94 -37.1 260.139 0 0 1 1 0 1 0 1
0 -1 -37.1 260.139 0 0 1 1 0 1 0 1
phys
0 94 -53.27 260.139 0 0 1 1 0 1 0 1
0 -1 -37.1 260.139 0 0 1 1 0 1 0 1
0 -1 -53.27 260.139 0 0 1 1 0 1 0 1
phys
0 -1 -53.27 248.457 0 0 1 1 0 1 0 1
0 -1 -37.1 260.139 0 0 1 1 0 1 0 1
0 94 -37.1 260.139 0 0 1 1 0 1 0 1
phys
0 -1 -53.27 248.457 0 0 1 1 0 1 0 1
0 94 -37.1 260.139 0 0 1 1 0 1 0 1
0 94 -53.27 248.457 0 0 1 1 0 1 0 1
phys
0 94 -53.27 248.457 0 0 1 1 0 1 0 1
0 94 -53.27 260.139 0 0 1 1 0 1 0 1
0 -1 -53.27 260.139 0 0 1 1 0 1 0 1
phys
0 94 -53.27 248.457 0 0 1 1 0 1 0 1
0 -1 -53.27 260.139 0 0 1 1 0 1 0 1
0 -1 -53.27 248.457 0 0 1 1 0 1 0 1
phys
0 210 182 177 0 0 1 2 0 1 0 1
0 210 182 176 0 0 1 2 0 1 0 1
0 147 182 176 0 0 1 2 0 1 0 1
phys
0 210 182 177 0 0 1 2 0 1 0 1
0 147 182 176 0 0 1 2 0 1 0 1
0 147 182 177 0 0 1 2 0 1 0 1
phys
0 210 146 176 0 0 1 2 0 1 0 1
0 210 146 201 0 0 1 2 0 1 0 1
0 147 146 201 0 0 1 2 0 1 0 1
phys
0 210 146 176 0 0 1 2 0 1 0 1
0 147 146 201 0 0 1 2 0 1 0 1
0 147 146 176 0 0 1 2 0 1 0 1
phys
0 147 146 176 0 0 1 2 0 1 0 1
0 147 146 201 0 0 1 2 0 1 0 1
0 147 182 177 0 0 1 2 0 1 0 1
phys
0 147 146 176 0 0 1 2 0 1 0 1
0 147 182 177 0 0 1 2 0 1 0 1
0 147 182 176 0 0 1 2 0 1 0 1
phys
0 210 146 201 0 0 1 2 0 1 0 1
0 210 146 176 0 0 1 2 0 1 0 1
0 210 182 176 0 0 1 2 0 1 0 1
phys
0 210 146 201 0 0 1 2 0 1 0 1
0 210 182 176 0 0 1 2 0 1 0 1
0 210 182 177 0 0 1 2 0 1 0 1
phys
0 210 146 176 0 0 1 2 0 1 0 1
0 147 146 176 0 0 1 2 0 1 0 1
0 147 182 176 0 0 1 2 0 1 0 1
phys
0 210 146 176 0 0 1 2 0 1 0 1
0 147 182 176 0 0 1 2 0 1 0 1
0 210 182 176 0 0 1 2 0 1 0 1
phys
0 147 146 201 0 0 1 2 0 1 0 1
0 210 146 201 0 0 1 2 0 1 0 1
0 210 182 177 0 0 1 2 0 1 0 1
phys
0 147 146 201 0 0 1 2 0 1 0 1
0 210 182 177 0 0 1 2 0 1 0 1
0 147 182 177 0 0 1 2 0 1 0 1
phys
0 94 26.63 305.635 0 0 1 3 0 1 0 1
0 -1 26.63 305.635 0 0 1 3 0 1 0 1
0 -1 42.81 317.3164 0 0 1 3 0 1 0 1
phys
0 94 26.63 305.635 0 0 1 3 0 1 0 1
0 -1 42.81 317.3164 0 0 1 3 0 1 0 1
0 94 42.81 317.3164 0 0 1 3 0 1 0 1
phys
0 -1 26.63 317.3164 0 0 1 3 0 1 0 1
0 -1 26.63 305.635 0 0 1 3 0 1 0 1
0 94 26.63 305.635 0 0 1 3 0 1 0 1
phys
0 -1 26.63 317.3164 0 0 1 3 0 1 0 1
0 94 26.63 305.635 0 0 1 3 0 1 0 1
0 94 26.63 317.3164 0 0 1 3 0 1 0 1
phys
0 -1 42.81 317.3164 0 0 1 3 0 1 0 1
0 -1 26.63 305.635 0 0 1 3 0 1 0 1
0 -1 26.63 317.3164 0 0 1 3 0 1 0 1
phys
0 94 26.63 317.3164 0 0 1 3 0 1 0 1
0 94 26.63 305.635 0 0 1 3 0 1 0 1
0 94 42.81 317.3164 0 0 1 3 0 1 0 1
phys
0 -1 26.63 317.3164 0 0 1 3 0 1 0 1
0 94 26.63 317.3164 0 0 1 3 0 1 0 1
0 94 42.81 317.3164 0 0 1 3 0 1 0 1
phys
0 -1 26.63 317.3164 0 0 1 3 0 1 0 1
0 94 42.81 317.3164 0 0 1 3 0 1 0 1
0 -1 42.81 317.3164 0 0 1 3 0 1 0 1
phys
0 154 151 40 0 0 1 4 0 1 0 1
0 154 151 0 0 0 1 4 0 1 0 1
0 28 151 0 0 0 1 4 0 1 0 1
phys
0 154 151 40 0 0 1 4 0 1 0 1
0 28 151 0 0 0 1 4 0 1 0 1
0 28 151 40 0 0 1 4 0 1 0 1
phys
0 154 119 0 0 0 1 4 0 1 0 1
0 154 119 40 0 0 1 4 0 1 0 1
0 28 119 40 0 0 1 4 0 1 0 1
phys
0 154 119 0 0 0 1 4 0 1 0 1
0 28 119 40 0 0 1 4 0 1 0 1
0 28 119 0 0 0 1 4 0 1 0 1
phys
0 28 119 0 0 0 1 4 0 1 0 1
0 28 119 40 0 0 1 4 0 1 0 1
0 28 151 40 0 0 1 4 0 1 0 1
phys
0 28 119 0 0 0 1 4 0 1 0 1
0 28 151 40 0 0 1 4 0 1 0 1
0 28 151 0 0 0 1 4 0 1 0 1
phys
0 154 119 40 0 0 1 4 0 1 0 1
0 154 119 0 0 0 1 4 0 1 0 1
0 154 151 0 0 0 1 4 0 1 0 1
phys
0 154 119 40 0 0 1 4 0 1 0 1
0 154 151 0 0 0 1 4 0 1 0 1
0 154 151 40 0 0 1 4 0 1 0 1
phys
0 154 119 0 0 0 1 4 0 1 0 1
0 28 119 0 0 0 1 4 0 1 0 1
0 28 151 0 0 0 1 4 0 1 0 1
phys
0 154 119 0 0 0 1 4 0 1 0 1
0 28 151 0 0 0 1 4 0 1 0 1
0 154 151 0 0 0 1 4 0 1 0 1
phys
0 28 119 40 0 0 1 4 0 1 0 1
0 154 119 40 0 0 1 4 0 1 0 1
0 154 151 40 0 0 1 4 0 1 0 1
phys
0 28 119 40 0 0 1 4 0 1 0 1
0 154 151 40 0 0 1 4 0 1 0 1
0 28 151 40 0 0 1 4 0 1 0 1
phys
0 245 116 108 0 0 1 5 0 1 0 1
0 197 116 108 0 0 1 5 0 1 0 1
0 193 116 112 0 0 1 5 0 1 0 1
phys
0 245 116 108 0 0 1 5 0 1 0 1
0 193 116 112 0 0 1 5 0 1 0 1
0 249 116 112 0 0 1 5 0 1 0 1
phys
0 249 106 112 0 0 1 5 0 1 0 1
0 193 106 112 0 0 1 5 0 1 0 1
0 197 106 108 0 0 1 5 0 1 0 1
phys
0 249 106 112 0 0 1 5 0 1 0 1
0 197 106 108 0 0 1 5 0 1 0 1
0 245 106 108 0 0 1 5 0 1 0 1
phys
0 245 106 108 0 0 1 5 0 1 0 1
0 197 106 108 0 0 1 5 0 1 0 1
0 197 116 108 0 0 1 5 0 1 0 1
phys
0 245 106 108 0 0 1 5 0 1 0 1
0 197 116 108 0 0 1 5 0 1 0 1
0 245 116 108 0 0 1 5 0 1 0 1
phys
0 193 106 112 0 0 1 5 0 1 0 1
0 249 106 112 0 0 1 5 0 1 0 1
0 249 116 112 0 0 1 5 0 1 0 1
phys
0 193 106 112 0 0 1 5 0 1 0 1
0 249 116 112 0 0 1 5 0 1 0 1
0 193 116 112 0 0 1 5 0 1 0 1
phys
0 197 106 108 0 0 1 5 0 1 0 1
0 193 106 112 0 0 1 5 0 1 0 1
0 193 116 112 0 0 1 5 0 1 0 1
phys
0 197 106 108 0 0 1 5 0 1 0 1
0 193 116 112 0 0 1 5 0 1 0 1
0 197 116 108 0 0 1 5 0 1 0 1
phys
0 249 106 112 0 0 1 5 0 1 0 1
0 245 106 108 0 0 1 5 0 1 0 1
0 245 116 108 0 0 1 5 0 1 0 1
phys
0 249 106 112 0 0 1 5 0 1 0 1
0 245 116 108 0 0 1 5 0 1 0 1
0 249 116 112 0 0 1 5 0 1 0 1
phys
0 -174 24 316 0 0 1 6 0 1 0 1
0 -174 24 201 0 0 1 6 0 1 0 1
0 -184 24 201 0 0 1 6 0 1 0 1
phys
0 -174 24 316 0 0 1 6 0 1 0 1
0 -184 24 201 0 0 1 6 0 1 0 1
0 -184 24 316 0 0 1 6 0 1 0 1
phys
0 -174 14 201 0 0 1 6 0 1 0 1
0 -174 14 316 0 0 1 6 0 1 0 1
0 -184 14 316 0 0 1 6 0 1 0 1
phys
0 -174 14 201 0 0 1 6 0 1 0 1
0 -184 14 316 0 0 1 6 0 1 0 1
0 -184 14 201 0 0 1 6 0 1 0 1
phys
0 -184 14 201 0 0 1 6 0 1 0 1
0 -184 14 316 0 0 1 6 0 1 0 1
0 -184 24 316 0 0 1 6 0 1 0 1
phys
0 -184 14 201 0 0 1 6 0 1 0 1
0 -184 24 316 0 0 1 6 0 1 0 1
0 -184 24 201 0 0 1 6 0 1 0 1
phys
0 -174 14 316 0 0 1 6 0 1 0 1
0 -174 14 201 0 0 1 6 0 1 0 1
0 -174 24 201 0 0 1 6 0 1 0 1
phys
0 -174 14 316 0 0 1 6 0 1 0 1
0 -174 24 201 0 0 1 6 0 1 0 1
0 -174 24 316 0 0 1 6 0 1 0 1
phys
0 -174 14 201 0 0 1 6 0 1 0 1
0 -184 14 201 0 0 1 6 0 1 0 1
0 -184 24 201 0 0 1 6 0 1 0 1
phys
0 -174 14 201 0 0 1 6 0 1 0 1
0 -184 24 201 0 0 1 6 0 1 0 1
0 -174 24 201 0 0 1 6 0 1 0 1
phys
0 -184 14 316 0 0 1 6 0 1 0 1
0 -174 14 316 0 0 1 6 0 1 0 1
0 -174 24 316 0 0 1 6 0 1 0 1
phys
0 -184 14 316 0 0 1 6 0 1 0 1
0 -174 24 316 0 0 1 6 0 1 0 1
0 -184 24 316 0 0 1 6 0 1 0 1
phys
0 94 -119 201 0 0 1 7 0 1 0 1
0 94 -101.81 213.412 0 0 1 7 0 1 0 1
0 94 -119 213.412 0 0 1 7 0 1 0 1
phys
0 -1 -119 213.412 0 0 1 7 0 1 0 1
0 94 -119 213.412 0 0 1 7 0 1 0 1
0 94 -101.81 213.412 0 0 1 7 0 1 0 1
phys
0 -1 -119 213.412 0 0 1 7 0 1 0 1
0 94 -101.81 213.412 0 0 1 7 0 1 0 1
0 -1 -101.81 213.412 0 0 1 7 0 1 0 1
phys
0 -1 -101.81 213.412 0 0 1 7 0 1 0 1
0 94 -101.81 213.412 0 0 1 7 0 1 0 1
0 94 -119 201 0 0 1 7 0 1 0 1
phys
0 -1 -101.81 213.412 0 0 1 7 0 1 0 1
0 94 -119 201 0 0 1 7 0 1 0 1
0 -1 -119 201 0 0 1 7 0 1 0 1
phys
0 94 -119 201 0 0 1 7 0 1 0 1
0 94 -119 213.412 0 0 1 7 0 1 0 1
0 -1 -119 213.412 0 0 1 7 0 1 0 1
phys
0 94 -119 201 0 0 1 7 0 1 0 1
0 -1 -119 213.412 0 0 1 7 0 1 0 1
0 -1 -119 201 0 0 1 7 0 1 0 1
phys
0 -1 -119 213.412 0 0 1 7 0 1 0 1
0 -1 -101.81 213.412 0 0 1 7 0 1 0 1
0 -1 -119 201 0 0 1 7 0 1 0 1
phys
0 94 -20.91 271.829 0 0 1 8 0 1 0 1
0 94 -20.91 283.5032 0 0 1 8 0 1 0 1
0 -1 -20.91 283.5032 0 0 1 8 0 1 0 1
phys
0 94 -20.91 271.829 0 0 1 8 0 1 0 1
0 -1 -20.91 283.5032 0 0 1 8 0 1 0 1
0 -1 -20.91 271.829 0 0 1 8 0 1 0 1
phys
0 -1 -20.91 271.829 0 0 1 8 0 1 0 1
0 -1 -20.91 283.5032 0 0 1 8 0 1 0 1
0 -1 -4.73 283.5032 0 0 1 8 0 1 0 1
phys
0 94 -20.91 283.5032 0 0 1 8 0 1 0 1
0 94 -20.91 271.829 0 0 1 8 0 1 0 1
0 94 -4.73 283.5032 0 0 1 8 0 1 0 1
phys
0 -1 -20.91 283.5032 0 0 1 8 0 1 0 1
0 94 -20.91 283.5032 0 0 1 8 0 1 0 1
0 94 -4.73 283.5032 0 0 1 8 0 1 0 1
phys
0 -1 -20.91 283.5032 0 0 1 8 0 1 0 1
0 94 -4.73 283.5032 0 0 1 8 0 1 0 1
0 -1 -4.73 283.5032 0 0 1 8 0 1 0 1
phys
0 94 -20.91 271.829 0 0 1 8 0 1 0 1
0 -1 -20.91 271.829 0 0 1 8 0 1 0 1
0 -1 -4.73 283.5032 0 0 1 8 0 1 0 1
phys
0 94 -20.91 271.829 0 0 1 8 0 1 0 1
0 -1 -4.73 283.5032 0 0 1 8 0 1 0 1
0 94 -4.73 283.5032 0 0 1 8 0 1 0 1
phys
0 94 -69.44 236.782 0 0 1 9 0 1 0 1
0 94 -69.44 248.458 0 0 1 9 0 1 0 1
0 -1 -69.44 248.458 0 0 1 9 0 1 0 1
phys
0 94 -69.44 236.782 0 0 1 9 0 1 0 1
0 -1 -69.44 248.458 0 0 1 9 0 1 0 1
0 -1 -69.44 236.782 0 0 1 9 0 1 0 1
phys
0 -1 -69.44 236.782 0 0 1 9 0 1 0 1
0 -1 -69.44 248.458 0 0 1 9 0 1 0 1
0 -1 -53.28 248.458 0 0 1 9 0 1 0 1
phys
0 94 -69.44 248.458 0 0 1 9 0 1 0 1
0 94 -69.44 236.782 0 0 1 9 0 1 0 1
0 94 -53.28 248.458 0 0 1 9 0 1 0 1
phys
0 -1 -69.44 248.458 0 0 1 9 0 1 0 1
0 94 -69.44 248.458 0 0 1 9 0 1 0 1
0 94 -53.28 248.458 0 0 1 9 0 1 0 1
phys
0 -1 -69.44 248.458 0 0 1 9 0 1 0 1
0 94 -53.28 248.458 0 0 1 9 0 1 0 1
0 -1 -53.28 248.458 0 0 1 9 0 1 0 1
phys
0 94 -69.44 236.782 0 0 1 9 0 1 0 1
0 -1 -69.44 236.782 0 0 1 9 0 1 0 1
0 -1 -53.28 248.458 0 0 1 9 0 1 0 1
phys
0 94 -69.44 236.782 0 0 1 9 0 1 0 1
0 -1 -53.28 248.458 0 0 1 9 0 1 0 1
0 94 -53.28 248.458 0 0 1 9 0 1 0 1
phys
0 -249 -128 0 0 0 1 10 0 1 0 1
0 -249 -128 32 0 0 1 10 0 1 0 1
0 -247 -126 32 0 0 1 10 0 1 0 1
phys
0 -249 -128 0 0 0 1 10 0 1 0 1
0 -247 -126 32 0 0 1 10 0 1 0 1
0 -247 -126 0 0 0 1 10 0 1 0 1
phys
0 -247 -182 0 0 0 1 10 0 1 0 1
0 -247 -182 32 0 0 1 10 0 1 0 1
0 -249 -182 32 0 0 1 10 0 1 0 1
phys
0 -247 -182 0 0 0 1 10 0 1 0 1
0 -249 -182 32 0 0 1 10 0 1 0 1
0 -249 -182 0 0 0 1 10 0 1 0 1
phys
0 -249 -182 0 0 0 1 10 0 1 0 1
0 -249 -182 32 0 0 1 10 0 1 0 1
0 -249 -128 32 0 0 1 10 0 1 0 1
phys
0 -249 -182 0 0 0 1 10 0 1 0 1
0 -249 -128 32 0 0 1 10 0 1 0 1
0 -249 -128 0 0 0 1 10 0 1 0 1
phys
0 -247 -182 32 0 0 1 10 0 1 0 1
0 -247 -182 0 0 0 1 10 0 1 0 1
0 -247 -126 0 0 0 1 10 0 1 0 1
phys
0 -247 -182 32 0 0 1 10 0 1 0 1
0 -247 -126 0 0 0 1 10 0 1 0 1
0 -247 -126 32 0 0 1 10 0 1 0 1
phys
0 -247 -182 0 0 0 1 10 0 1 0 1
0 -249 -182 0 0 0 1 10 0 1 0 1
0 -249 -128 0 0 0 1 10 0 1 0 1
phys
0 -247 -182 0 0 0 1 10 0 1 0 1
0 -249 -128 0 0 0 1 10 0 1 0 1
0 -247 -126 0 0 0 1 10 0 1 0 1
phys
0 -247 -126 32 0 0 1 10 0 1 0 1
0 -249 -128 32 0 0 1 10 0 1 0 1
0 -249 -182 32 0 0 1 10 0 1 0 1
phys
0 -247 -126 32 0 0 1 10 0 1 0 1
0 -249 -182 32 0 0 1 10 0 1 0 1
0 -247 -182 32 0 0 1 10 0 1 0 1
phys
0 147 146 201 0 0 1 11 0 1 0 1
0 147 158 193 0 0 1 11 0 1 0 1
0 210 158 193 0 0 1 11 0 1 0 1
phys
0 147 146 201 0 0 1 11 0 1 0 1
0 210 158 193 0 0 1 11 0 1 0 1
0 210 146 201 0 0 1 11 0 1 0 1
phys
0 210 158 201 0 0 1 11 0 1 0 1
0 210 158 193 0 0 1 11 0 1 0 1
0 147 158 193 0 0 1 11 0 1 0 1
phys
0 210 158 201 0 0 1 11 0 1 0 1
0 147 158 193 0 0 1 11 0 1 0 1
0 147 158 201 0 0 1 11 0 1 0 1
phys
0 147 158 201 0 0 1 11 0 1 0 1
0 147 158 193 0 0 1 11 0 1 0 1
0 147 146 201 0 0 1 11 0 1 0 1
phys
0 210 146 201 0 0 1 11 0 1 0 1
0 210 158 193 0 0 1 11 0 1 0 1
0 210 158 201 0 0 1 11 0 1 0 1
phys
0 147 146 201 0 0 1 11 0 1 0 1
0 210 146 201 0 0 1 11 0 1 0 1
0 210 158 201 0 0 1 11 0 1 0 1
phys
0 147 146 201 0 0 1 11 0 1 0 1
0 210 158 201 0 0 1 11 0 1 0 1
0 147 158 201 0 0 1 11 0 1 0 1
phys
0 94 42.82 317.3133 0 0 1 12 0 1 0 1
0 94 42.82 329 0 0 1 12 0 1 0 1
0 -1 42.82 329 0 0 1 12 0 1 0 1
phys
0 94 42.82 317.3133 0 0 1 12 0 1 0 1
0 -1 42.82 329 0 0 1 12 0 1 0 1
0 -1 42.82 317.3133 0 0 1 12 0 1 0 1
phys
0 -1 42.82 317.3133 0 0 1 12 0 1 0 1
0 -1 42.82 329 0 0 1 12 0 1 0 1
0 -1 59 329 0 0 1 12 0 1 0 1
phys
0 94 42.82 329 0 0 1 12 0 1 0 1
0 94 42.82 317.3133 0 0 1 12 0 1 0 1
0 94 59 329 0 0 1 12 0 1 0 1
phys
0 -1 42.82 329 0 0 1 12 0 1 0 1
0 94 42.82 329 0 0 1 12 0 1 0 1
0 94 59 329 0 0 1 12 0 1 0 1
phys
0 -1 42.82 329 0 0 1 12 0 1 0 1
0 94 59 329 0 0 1 12 0 1 0 1
0 -1 59 329 0 0 1 12 0 1 0 1
phys
0 94 42.82 317.3133 0 0 1 12 0 1 0 1
0 -1 42.82 317.3133 0 0 1 12 0 1 0 1
0 -1 59 329 0 0 1 12 0 1 0 1
phys
0 94 42.82 317.3133 0 0 1 12 0 1 0 1
0 -1 59 329 0 0 1 12 0 1 0 1
0 94 59 329 0 0 1 12 0 1 0 1
phys
0 203 130 309.0202 0 0 1 13 0 1 0 1
0 207 130 313.0222 0 0 1 13 0 1 0 1
0 207 146 313.0164 0 0 1 13 0 1 0 1
phys
0 203 130 309.0202 0 0 1 13 0 1 0 1
0 207 146 313.0164 0 0 1 13 0 1 0 1
0 203 146 309.0144 0 0 1 13 0 1 0 1
phys
0 203 146 201 0 0 1 13 0 1 0 1
0 203 146 309.0144 0 0 1 13 0 1 0 1
0 207 146 313.0164 0 0 1 13 0 1 0 1
phys
0 203 146 201 0 0 1 13 0 1 0 1
0 207 146 313.0164 0 0 1 13 0 1 0 1
0 207 146 201 0 0 1 13 0 1 0 1
phys
0 207 130 201 0 0 1 13 0 1 0 1
0 207 130 313.0222 0 0 1 13 0 1 0 1
0 203 130 309.0202 0 0 1 13 0 1 0 1
phys
0 207 130 201 0 0 1 13 0 1 0 1
0 203 130 309.0202 0 0 1 13 0 1 0 1
0 203 130 201 0 0 1 13 0 1 0 1
phys
0 203 130 201 0 0 1 13 0 1 0 1
0 203 130 309.0202 0 0 1 13 0 1 0 1
0 203 146 309.0144 0 0 1 13 0 1 0 1
phys
0 203 130 201 0 0 1 13 0 1 0 1
0 203 146 309.0144 0 0 1 13 0 1 0 1
0 203 146 201 0 0 1 13 0 1 0 1
phys
0 207 146 201 0 0 1 13 0 1 0 1
0 207 146 313.0164 0 0 1 13 0 1 0 1
0 207 130 313.0222 0 0 1 13 0 1 0 1
phys
0 207 146 201 0 0 1 13 0 1 0 1
0 207 130 313.0222 0 0 1 13 0 1 0 1
0 207 130 201 0 0 1 13 0 1 0 1
phys
0 207 130 201 0 0 1 13 0 1 0 1
0 203 130 201 0 0 1 13 0 1 0 1
0 203 146 201 0 0 1 13 0 1 0 1
phys
0 207 130 201 0 0 1 13 0 1 0 1
0 203 146 201 0 0 1 13 0 1 0 1
0 207 146 201 0 0 1 13 0 1 0 1
phys
0 151 130 313.0001 0 0 1 14 0 1 0 1
0 155 130 309.0001 0 0 1 14 0 1 0 1
0 155 146 309.0001 0 0 1 14 0 1 0 1
phys
0 151 130 313.0001 0 0 1 14 0 1 0 1
0 155 146 309.0001 0 0 1 14 0 1 0 1
0 151 146 313.0001 0 0 1 14 0 1 0 1
phys
0 151 146 313.0001 0 0 1 14 0 1 0 1
0 155 146 309.0001 0 0 1 14 0 1 0 1
0 155 146 201 0 0 1 14 0 1 0 1
phys
0 151 146 313.0001 0 0 1 14 0 1 0 1
0 155 146 201 0 0 1 14 0 1 0 1
0 151 146 201 0 0 1 14 0 1 0 1
phys
0 155 130 201 0 0 1 14 0 1 0 1
0 155 130 309.0001 0 0 1 14 0 1 0 1
0 151 130 313.0001 0 0 1 14 0 1 0 1
phys
0 155 130 201 0 0 1 14 0 1 0 1
0 151 130 313.0001 0 0 1 14 0 1 0 1
0 151 130 201 0 0 1 14 0 1 0 1
phys
0 151 130 201 0 0 1 14 0 1 0 1
0 151 130 313.0001 0 0 1 14 0 1 0 1
0 151 146 313.0001 0 0 1 14 0 1 0 1
phys
0 151 130 201 0 0 1 14 0 1 0 1
0 151 146 313.0001 0 0 1 14 0 1 0 1
0 151 146 201 0 0 1 14 0 1 0 1
phys
0 155 146 201 0 0 1 14 0 1 0 1
0 155 146 309.0001 0 0 1 14 0 1 0 1
0 155 130 309.0001 0 0 1 14 0 1 0 1
phys
0 155 146 201 0 0 1 14 0 1 0 1
0 155 130 309.0001 0 0 1 14 0 1 0 1
0 155 130 201 0 0 1 14 0 1 0 1
phys
0 151 146 201 0 0 1 14 0 1 0 1
0 155 146 201 0 0 1 14 0 1 0 1
0 155 130 201 0 0 1 14 0 1 0 1
phys
0 151 146 201 0 0 1 14 0 1 0 1
0 155 130 201 0 0 1 14 0 1 0 1
0 151 130 201 0 0 1 14 0 1 0 1
phys
0 203 146 309 0 0 1 15 0 1 0 1
0 155 146 309 0 0 1 15 0 1 0 1
0 151 146 313 0 0 1 15 0 1 0 1
phys
0 203 146 309 0 0 1 15 0 1 0 1
0 151 146 313 0 0 1 15 0 1 0 1
0 207 146 313 0 0 1 15 0 1 0 1
phys
0 207 130 313 0 0 1 15 0 1 0 1
0 151 130 313 0 0 1 15 0 1 0 1
0 155 130 309 0 0 1 15 0 1 0 1
phys
0 207 130 313 0 0 1 15 0 1 0 1
0 155 130 309 0 0 1 15 0 1 0 1
0 203 130 309 0 0 1 15 0 1 0 1
phys
0 203 130 309 0 0 1 15 0 1 0 1
0 155 130 309 0 0 1 15 0 1 0 1
0 155 146 309 0 0 1 15 0 1 0 1
phys
0 203 130 309 0 0 1 15 0 1 0 1
0 155 146 309 0 0 1 15 0 1 0 1
0 203 146 309 0 0 1 15 0 1 0 1
phys
0 151 130 313 0 0 1 15 0 1 0 1
0 207 130 313 0 0 1 15 0 1 0 1
0 207 146 313 0 0 1 15 0 1 0 1
phys
0 151 130 313 0 0 1 15 0 1 0 1
0 207 146 313 0 0 1 15 0 1 0 1
0 151 146 313 0 0 1 15 0 1 0 1
phys
0 207 130 313 0 0 1 15 0 1 0 1
0 203 130 309 0 0 1 15 0 1 0 1
0 203 146 309 0 0 1 15 0 1 0 1
phys
0 207 130 313 0 0 1 15 0 1 0 1
0 203 146 309 0 0 1 15 0 1 0 1
0 207 146 313 0 0 1 15 0 1 0 1
phys
0 155 130 309 0 0 1 15 0 1 0 1
0 151 130 313 0 0 1 15 0 1 0 1
0 151 146 313 0 0 1 15 0 1 0 1
phys
0 155 130 309 0 0 1 15 0 1 0 1
0 151 146 313 0 0 1 15 0 1 0 1
0 155 146 309 0 0 1 15 0 1 0 1
phys
0 215 146 329 0 0 1 16 0 1 0 1
0 151 146 329 0 0 1 16 0 1 0 1
0 153 146 331 0 0 1 16 0 1 0 1
phys
0 215 146 329 0 0 1 16 0 1 0 1
0 153 146 331 0 0 1 16 0 1 0 1
0 213 146 331 0 0 1 16 0 1 0 1
phys
0 213 142 331 0 0 1 16 0 1 0 1
0 153 142 331 0 0 1 16 0 1 0 1
0 151 142 329 0 0 1 16 0 1 0 1
phys
0 213 142 331 0 0 1 16 0 1 0 1
0 151 142 329 0 0 1 16 0 1 0 1
0 215 142 329 0 0 1 16 0 1 0 1
phys
0 215 142 329 0 0 1 16 0 1 0 1
0 151 142 329 0 0 1 16 0 1 0 1
0 151 146 329 0 0 1 16 0 1 0 1
phys
0 215 142 329 0 0 1 16 0 1 0 1
0 151 146 329 0 0 1 16 0 1 0 1
0 215 146 329 0 0 1 16 0 1 0 1
phys
0 153 142 331 0 0 1 16 0 1 0 1
0 213 142 331 0 0 1 16 0 1 0 1
0 213 146 331 0 0 1 16 0 1 0 1
phys
0 153 142 331 0 0 1 16 0 1 0 1
0 213 146 331 0 0 1 16 0 1 0 1
0 153 146 331 0 0 1 16 0 1 0 1
phys
0 213 142 331 0 0 1 16 0 1 0 1
0 215 142 329 0 0 1 16 0 1 0 1
0 215 146 329 0 0 1 16 0 1 0 1
phys
0 213 142 331 0 0 1 16 0 1 0 1
0 215 146 329 0 0 1 16 0 1 0 1
0 213 146 331 0 0 1 16 0 1 0 1
phys
0 151 142 329 0 0 1 16 0 1 0 1
0 153 142 331 0 0 1 16 0 1 0 1
0 153 146 331 0 0 1 16 0 1 0 1
phys
0 151 142 329 0 0 1 16 0 1 0 1
0 153 146 331 0 0 1 16 0 1 0 1
0 151 146 329 0 0 1 16 0 1 0 1
phys
0 210 182 185 0 0 1 17 0 1 0 1
0 210 182 177 0 0 1 17 0 1 0 1
0 147 182 177 0 0 1 17 0 1 0 1
phys
0 210 182 185 0 0 1 17 0 1 0 1
0 147 182 177 0 0 1 17 0 1 0 1
0 147 182 185 0 0 1 17 0 1 0 1
phys
0 147 170 185 0 0 1 17 0 1 0 1
0 147 182 185 0 0 1 17 0 1 0 1
0 147 182 177 0 0 1 17 0 1 0 1
phys
0 210 182 177 0 0 1 17 0 1 0 1
0 210 182 185 0 0 1 17 0 1 0 1
0 210 170 185 0 0 1 17 0 1 0 1
phys
0 210 170 185 0 0 1 17 0 1 0 1
0 210 182 185 0 0 1 17 0 1 0 1
0 147 182 185 0 0 1 17 0 1 0 1
phys
0 210 170 185 0 0 1 17 0 1 0 1
0 147 182 185 0 0 1 17 0 1 0 1
0 147 170 185 0 0 1 17 0 1 0 1
phys
0 147 170 185 0 0 1 17 0 1 0 1
0 147 182 177 0 0 1 17 0 1 0 1
0 210 182 177 0 0 1 17 0 1 0 1
phys
0 147 170 185 0 0 1 17 0 1 0 1
0 210 182 177 0 0 1 17 0 1 0 1
0 210 170 185 0 0 1 17 0 1 0 1
phys
0 193 116 0 0 0 1 18 0 1 0 1
0 197 116 0 0 0 1 18 0 1 0 1
0 197 106 0 0 0 1 18 0 1 0 1
phys
0 193 116 0 0 0 1 18 0 1 0 1
0 197 106 0 0 0 1 18 0 1 0 1
0 193 106 0 0 0 1 18 0 1 0 1
phys
0 193 106 111.996 0 0 1 18 0 1 0 1
0 197 106 107.996 0 0 1 18 0 1 0 1
0 197 116 107.996 0 0 1 18 0 1 0 1
phys
0 193 106 111.996 0 0 1 18 0 1 0 1
0 197 116 107.996 0 0 1 18 0 1 0 1
0 193 116 111.996 0 0 1 18 0 1 0 1
phys
0 197 116 0 0 0 1 18 0 1 0 1
0 193 116 0 0 0 1 18 0 1 0 1
0 193 116 111.996 0 0 1 18 0 1 0 1
phys
0 197 116 0 0 0 1 18 0 1 0 1
0 193 116 111.996 0 0 1 18 0 1 0 1
0 197 116 107.996 0 0 1 18 0 1 0 1
phys
0 193 106 0 0 0 1 18 0 1 0 1
0 197 106 0 0 0 1 18 0 1 0 1
0 197 106 107.996 0 0 1 18 0 1 0 1
phys
0 193 106 0 0 0 1 18 0 1 0 1
0 197 106 107.996 0 0 1 18 0 1 0 1
0 193 106 111.996 0 0 1 18 0 1 0 1
phys
0 193 106 111.996 0 0 1 18 0 1 0 1
0 193 116 111.996 0 0 1 18 0 1 0 1
0 193 116 0 0 0 1 18 0 1 0 1
phys
0 193 106 111.996 0 0 1 18 0 1 0 1
0 193 116 0 0 0 1 18 0 1 0 1
0 193 106 0 0 0 1 18 0 1 0 1
phys
0 197 106 0 0 0 1 18 0 1 0 1
0 197 116 0 0 0 1 18 0 1 0 1
0 197 116 107.996 0 0 1 18 0 1 0 1
phys
0 197 106 0 0 0 1 18 0 1 0 1
0 197 116 107.996 0 0 1 18 0 1 0 1
0 197 106 107.996 0 0 1 18 0 1 0 1
phys
0 94 -4.72 283.499 0 0 1 19 0 1 0 1
0 94 -4.72 294.455 0 0 1 19 0 1 0 1
0 -1 -4.72 294.455 0 0 1 19 0 1 0 1
phys
0 94 -4.72 283.499 0 0 1 19 0 1 0 1
0 -1 -4.72 294.455 0 0 1 19 0 1 0 1
0 -1 -4.72 283.499 0 0 1 19 0 1 0 1
phys
0 -1 -4.72 283.499 0 0 1 19 0 1 0 1
0 -1 -4.72 294.455 0 0 1 19 0 1 0 1
0 -1 10.44 294.455 0 0 1 19 0 1 0 1
phys
0 94 -4.72 294.455 0 0 1 19 0 1 0 1
0 94 -4.72 283.499 0 0 1 19 0 1 0 1
0 94 10.44 294.455 0 0 1 19 0 1 0 1
phys
0 -1 -4.72 294.455 0 0 1 19 0 1 0 1
0 94 -4.72 294.455 0 0 1 19 0 1 0 1
0 94 10.44 294.455 0 0 1 19 0 1 0 1
phys
0 -1 -4.72 294.455 0 0 1 19 0 1 0 1
0 94 10.44 294.455 0 0 1 19 0 1 0 1
0 -1 10.44 294.455 0 0 1 19 0 1 0 1
phys
0 94 -4.72 283.499 0 0 1 19 0 1 0 1
0 -1 -4.72 283.499 0 0 1 19 0 1 0 1
0 -1 10.44 294.455 0 0 1 19 0 1 0 1
phys
0 94 -4.72 283.499 0 0 1 19 0 1 0 1
0 -1 10.44 294.455 0 0 1 19 0 1 0 1
0 94 10.44 294.455 0 0 1 19 0 1 0 1
phys
0 94 10.44 294.453 0 0 1 20 0 1 0 1
0 94 10.44 305.6361 0 0 1 20 0 1 0 1
0 -1 10.44 305.6361 0 0 1 20 0 1 0 1
phys
0 94 10.44 294.453 0 0 1 20 0 1 0 1
0 -1 10.44 305.6361 0 0 1 20 0 1 0 1
0 -1 10.44 294.453 0 0 1 20 0 1 0 1
phys
0 -1 10.44 294.453 0 0 1 20 0 1 0 1
0 -1 10.44 305.6361 0 0 1 20 0 1 0 1
0 -1 26.63 305.6361 0 0 1 20 0 1 0 1
phys
0 94 10.44 305.6361 0 0 1 20 0 1 0 1
0 94 10.44 294.453 0 0 1 20 0 1 0 1
0 94 26.63 305.6361 0 0 1 20 0 1 0 1
phys
0 -1 10.44 305.6361 0 0 1 20 0 1 0 1
0 94 10.44 305.6361 0 0 1 20 0 1 0 1
0 94 26.63 305.6361 0 0 1 20 0 1 0 1
phys
0 -1 10.44 305.6361 0 0 1 20 0 1 0 1
0 94 26.63 305.6361 0 0 1 20 0 1 0 1
0 -1 26.63 305.6361 0 0 1 20 0 1 0 1
phys
0 94 10.44 294.453 0 0 1 20 0 1 0 1
0 -1 10.44 294.453 0 0 1 20 0 1 0 1
0 -1 26.63 305.6361 0 0 1 20 0 1 0 1
phys
0 94 10.44 294.453 0 0 1 20 0 1 0 1
0 -1 26.63 305.6361 0 0 1 20 0 1 0 1
0 94 26.63 305.6361 0 0 1 20 0 1 0 1
phys
0 94 -101.81 213.41 0 0 1 21 0 1 0 1
0 94 -101.81 225.094 0 0 1 21 0 1 0 1
0 -1 -101.81 225.094 0 0 1 21 0 1 0 1
phys
0 94 -101.81 213.41 0 0 1 21 0 1 0 1
0 -1 -101.81 225.094 0 0 1 21 0 1 0 1
0 -1 -101.81 213.41 0 0 1 21 0 1 0 1
phys
0 -1 -101.81 213.41 0 0 1 21 0 1 0 1
0 -1 -101.81 225.094 0 0 1 21 0 1 0 1
0 -1 -85.63 225.094 0 0 1 21 0 1 0 1
phys
0 94 -101.81 225.094 0 0 1 21 0 1 0 1
0 94 -101.81 213.41 0 0 1 21 0 1 0 1
0 94 -85.63 225.094 0 0 1 21 0 1 0 1
phys
0 -1 -101.81 225.094 0 0 1 21 0 1 0 1
0 94 -101.81 225.094 0 0 1 21 0 1 0 1
0 94 -85.63 225.094 0 0 1 21 0 1 0 1
phys
0 -1 -101.81 225.094 0 0 1 21 0 1 0 1
0 94 -85.63 225.094 0 0 1 21 0 1 0 1
0 -1 -85.63 225.094 0 0 1 21 0 1 0 1
phys
0 94 -101.81 213.41 0 0 1 21 0 1 0 1
0 -1 -101.81 213.41 0 0 1 21 0 1 0 1
0 -1 -85.63 225.094 0 0 1 21 0 1 0 1
phys
0 94 -101.81 213.41 0 0 1 21 0 1 0 1
0 -1 -85.63 225.094 0 0 1 21 0 1 0 1
0 94 -85.63 225.094 0 0 1 21 0 1 0 1
phys
0 210 170 193 0 0 1 22 0 1 0 1
0 210 170 185 0 0 1 22 0 1 0 1
0 147 170 185 0 0 1 22 0 1 0 1
phys
0 210 170 193 0 0 1 22 0 1 0 1
0 147 170 185 0 0 1 22 0 1 0 1
0 147 170 193 0 0 1 22 0 1 0 1
phys
0 147 158 193 0 0 1 22 0 1 0 1
0 147 170 193 0 0 1 22 0 1 0 1
0 147 170 185 0 0 1 22 0 1 0 1
phys
0 210 170 185 0 0 1 22 0 1 0 1
0 210 170 193 0 0 1 22 0 1 0 1
0 210 158 193 0 0 1 22 0 1 0 1
phys
0 210 158 193 0 0 1 22 0 1 0 1
0 210 170 193 0 0 1 22 0 1 0 1
0 147 170 193 0 0 1 22 0 1 0 1
phys
0 210 158 193 0 0 1 22 0 1 0 1
0 147 170 193 0 0 1 22 0 1 0 1
0 147 158 193 0 0 1 22 0 1 0 1
phys
0 147 158 193 0 0 1 22 0 1 0 1
0 147 170 185 0 0 1 22 0 1 0 1
0 210 170 185 0 0 1 22 0 1 0 1
phys
0 147 158 193 0 0 1 22 0 1 0 1
0 210 170 185 0 0 1 22 0 1 0 1
0 210 158 193 0 0 1 22 0 1 0 1
phys
0 193 119 74 0 0 1 23 0 1 0 1
0 193 119 0 0 0 1 23 0 1 0 1
0 -7 119 0 0 0 1 23 0 1 0 1
phys
0 193 119 74 0 0 1 23 0 1 0 1
0 -7 119 0 0 0 1 23 0 1 0 1
0 -7 119 74 0 0 1 23 0 1 0 1
phys
0 193 116 0 0 0 1 23 0 1 0 1
0 193 116 74 0 0 1 23 0 1 0 1
0 -7 116 74 0 0 1 23 0 1 0 1
phys
0 193 116 0 0 0 1 23 0 1 0 1
0 -7 116 74 0 0 1 23 0 1 0 1
0 -7 116 0 0 0 1 23 0 1 0 1
phys
0 -7 116 0 0 0 1 23 0 1 0 1
0 -7 116 74 0 0 1 23 0 1 0 1
0 -7 119 74 0 0 1 23 0 1 0 1
phys
0 -7 116 0 0 0 1 23 0 1 0 1
0 -7 119 74 0 0 1 23 0 1 0 1
0 -7 119 0 0 0 1 23 0 1 0 1
phys
0 193 116 74 0 0 1 23 0 1 0 1
0 193 116 0 0 0 1 23 0 1 0 1
0 193 119 0 0 0 1 23 0 1 0 1
phys
0 193 116 74 0 0 1 23 0 1 0 1
0 193 119 0 0 0 1 23 0 1 0 1
0 193 119 74 0 0 1 23 0 1 0 1
phys
0 193 116 0 0 0 1 23 0 1 0 1
0 -7 116 0 0 0 1 23 0 1 0 1
0 -7 119 0 0 0 1 23 0 1 0 1
phys
0 193 116 0 0 0 1 23 0 1 0 1
0 -7 119 0 0 0 1 23 0 1 0 1
0 193 119 0 0 0 1 23 0 1 0 1
phys
0 -7 116 74 0 0 1 23 0 1 0 1
0 193 116 74 0 0 1 23 0 1 0 1
0 193 119 74 0 0 1 23 0 1 0 1
phys
0 -7 116 74 0 0 1 23 0 1 0 1
0 193 119 74 0 0 1 23 0 1 0 1
0 -7 119 74 0 0 1 23 0 1 0 1
phys
0 156 119 42.999 0 0 1 24 0 1 0 1
0 156 119 45 0 0 1 24 0 1 0 1
0 28 119 45 0 0 1 24 0 1 0 1
phys
0 156 119 42.999 0 0 1 24 0 1 0 1
0 28 119 45 0 0 1 24 0 1 0 1
0 28 119 40 0 0 1 24 0 1 0 1
phys
0 156 119 42.999 0 0 1 24 0 1 0 1
0 28 119 40 0 0 1 24 0 1 0 1
0 154 119 40 0 0 1 24 0 1 0 1
phys
0 28 119 40 0 0 1 24 0 1 0 1
0 28 119 45 0 0 1 24 0 1 0 1
0 28 156 45 0 0 1 24 0 1 0 1
phys
0 28 119 40 0 0 1 24 0 1 0 1
0 28 156 45 0 0 1 24 0 1 0 1
0 28 156 43 0 0 1 24 0 1 0 1
phys
0 28 119 40 0 0 1 24 0 1 0 1
0 28 156 43 0 0 1 24 0 1 0 1
0 28 153 40 0 0 1 24 0 1 0 1
phys
0 156 119 45 0 0 1 24 0 1 0 1
0 156 119 42.999 0 0 1 24 0 1 0 1
0 156 155.999 42.999 0 0 1 24 0 1 0 1
phys
0 156 119 45 0 0 1 24 0 1 0 1
0 156 155.999 42.999 0 0 1 24 0 1 0 1
0 156 156 43 0 0 1 24 0 1 0 1
phys
0 156 119 45 0 0 1 24 0 1 0 1
0 156 156 43 0 0 1 24 0 1 0 1
0 156 156 45 0 0 1 24 0 1 0 1
phys
0 154 119 40 0 0 1 24 0 1 0 1
0 28 119 40 0 0 1 24 0 1 0 1
0 28 153 40 0 0 1 24 0 1 0 1
phys
0 154 119 40 0 0 1 24 0 1 0 1
0 28 153 40 0 0 1 24 0 1 0 1
0 154 153 40 0 0 1 24 0 1 0 1
phys
0 28 119 45 0 0 1 24 0 1 0 1
0 156 119 45 0 0 1 24 0 1 0 1
0 156 156 45 0 0 1 24 0 1 0 1
phys
0 28 119 45 0 0 1 24 0 1 0 1
0 156 156 45 0 0 1 24 0 1 0 1
0 28 156 45 0 0 1 24 0 1 0 1
phys
0 156 119 42.999 0 0 1 24 0 1 0 1
0 154 119 40 0 0 1 24 0 1 0 1
0 154 153 40 0 0 1 24 0 1 0 1
phys
0 156 119 42.999 0 0 1 24 0 1 0 1
0 154 153 40 0 0 1 24 0 1 0 1
0 156 155.999 42.999 0 0 1 24 0 1 0 1
phys
0 28 153 40 0 0 1 24 0 1 0 1
0 28 156 43 0 0 1 24 0 1 0 1
0 156 156 43 0 0 1 24 0 1 0 1
phys
0 28 153 40 0 0 1 24 0 1 0 1
0 156 156 43 0 0 1 24 0 1 0 1
0 156 155.999 42.999 0 0 1 24 0 1 0 1
phys
0 28 153 40 0 0 1 24 0 1 0 1
0 156 155.999 42.999 0 0 1 24 0 1 0 1
0 154 153 40 0 0 1 24 0 1 0 1
phys
0 156 156 45 0 0 1 24 0 1 0 1
0 156 156 43 0 0 1 24 0 1 0 1
0 28 156 43 0 0 1 24 0 1 0 1
phys
0 156 156 45 0 0 1 24 0 1 0 1
0 28 156 43 0 0 1 24 0 1 0 1
0 28 156 45 0 0 1 24 0 1 0 1
phys
0 94 -85.63 225.091 0 0 1 25 0 1 0 1
0 94 -69.43 236.776 0 0 1 25 0 1 0 1
0 94 -85.63 236.776 0 0 1 25 0 1 0 1
phys
0 -1 -85.63 236.776 0 0 1 25 0 1 0 1
0 94 -85.63 236.776 0 0 1 25 0 1 0 1
0 94 -69.43 236.776 0 0 1 25 0 1 0 1
phys
0 -1 -85.63 236.776 0 0 1 25 0 1 0 1
0 94 -69.43 236.776 0 0 1 25 0 1 0 1
0 -1 -69.43 236.776 0 0 1 25 0 1 0 1
phys
0 -1 -69.43 236.776 0 0 1 25 0 1 0 1
0 94 -69.43 236.776 0 0 1 25 0 1 0 1
0 94 -85.63 225.091 0 0 1 25 0 1 0 1
phys
0 -1 -69.43 236.776 0 0 1 25 0 1 0 1
0 94 -85.63 225.091 0 0 1 25 0 1 0 1
0 -1 -85.63 225.091 0 0 1 25 0 1 0 1
phys
0 94 -85.63 225.091 0 0 1 25 0 1 0 1
0 94 -85.63 236.776 0 0 1 25 0 1 0 1
0 -1 -85.63 236.776 0 0 1 25 0 1 0 1
phys
0 94 -85.63 225.091 0 0 1 25 0 1 0 1
0 -1 -85.63 236.776 0 0 1 25 0 1 0 1
0 -1 -85.63 225.091 0 0 1 25 0 1 0 1
phys
0 -1 -85.63 236.776 0 0 1 25 0 1 0 1
0 -1 -69.43 236.776 0 0 1 25 0 1 0 1
0 -1 -85.63 225.091 0 0 1 25 0 1 0 1
phys
0 215 154 329 0 0 1 26 0 1 0 1
0 215 154 327.0005 0 0 1 26 0 1 0 1
0 151 154 327.0005 0 0 1 26 0 1 0 1
phys
0 215 154 329 0 0 1 26 0 1 0 1
0 151 154 327.0005 0 0 1 26 0 1 0 1
0 151 154 329 0 0 1 26 0 1 0 1
phys
0 215 146 319 0 0 1 26 0 1 0 1
0 215 146 329 0 0 1 26 0 1 0 1
0 151 146 329 0 0 1 26 0 1 0 1
phys
0 215 146 319 0 0 1 26 0 1 0 1
0 151 146 329 0 0 1 26 0 1 0 1
0 151 146 319 0 0 1 26 0 1 0 1
phys
0 151 146 319 0 0 1 26 0 1 0 1
0 151 146 329 0 0 1 26 0 1 0 1
0 151 154 329 0 0 1 26 0 1 0 1
phys
0 151 146 319 0 0 1 26 0 1 0 1
0 151 154 329 0 0 1 26 0 1 0 1
0 151 154 327.0005 0 0 1 26 0 1 0 1
phys
0 151 146 319 0 0 1 26 0 1 0 1
0 151 154 327.0005 0 0 1 26 0 1 0 1
0 151 148 319 0 0 1 26 0 1 0 1
phys
0 215 146 329 0 0 1 26 0 1 0 1
0 215 146 319 0 0 1 26 0 1 0 1
0 215 148 319 0 0 1 26 0 1 0 1
phys
0 215 146 329 0 0 1 26 0 1 0 1
0 215 148 319 0 0 1 26 0 1 0 1
0 215 154 327.0005 0 0 1 26 0 1 0 1
phys
0 215 146 329 0 0 1 26 0 1 0 1
0 215 154 327.0005 0 0 1 26 0 1 0 1
0 215 154 329 0 0 1 26 0 1 0 1
phys
0 215 146 319 0 0 1 26 0 1 0 1
0 151 146 319 0 0 1 26 0 1 0 1
0 151 148 319 0 0 1 26 0 1 0 1
phys
0 215 146 319 0 0 1 26 0 1 0 1
0 151 148 319 0 0 1 26 0 1 0 1
0 215 148 319 0 0 1 26 0 1 0 1
phys
0 151 146 329 0 0 1 26 0 1 0 1
0 215 146 329 0 0 1 26 0 1 0 1
0 215 154 329 0 0 1 26 0 1 0 1
phys
0 151 146 329 0 0 1 26 0 1 0 1
0 215 154 329 0 0 1 26 0 1 0 1
0 151 154 329 0 0 1 26 0 1 0 1
phys
0 151 148 319 0 0 1 26 0 1 0 1
0 151 154 327.0005 0 0 1 26 0 1 0 1
0 215 154 327.0005 0 0 1 26 0 1 0 1
phys
0 151 148 319 0 0 1 26 0 1 0 1
0 215 154 327.0005 0 0 1 26 0 1 0 1
0 215 148 319 0 0 1 26 0 1 0 1
phys
0 94 -37.1 260.131 0 0 1 27 0 1 0 1
0 94 -37.1 271.821 0 0 1 27 0 1 0 1
0 -1 -37.1 271.821 0 0 1 27 0 1 0 1
phys
0 94 -37.1 260.131 0 0 1 27 0 1 0 1
0 -1 -37.1 271.821 0 0 1 27 0 1 0 1
0 -1 -37.1 260.131 0 0 1 27 0 1 0 1
phys
0 -1 -37.1 260.131 0 0 1 27 0 1 0 1
0 -1 -37.1 271.821 0 0 1 27 0 1 0 1
0 -1 -20.91 271.821 0 0 1 27 0 1 0 1
phys
0 94 -37.1 271.821 0 0 1 27 0 1 0 1
0 94 -37.1 260.131 0 0 1 27 0 1 0 1
0 94 -20.91 271.821 0 0 1 27 0 1 0 1
phys
0 -1 -37.1 271.821 0 0 1 27 0 1 0 1
0 94 -37.1 271.821 0 0 1 27 0 1 0 1
0 94 -20.91 271.821 0 0 1 27 0 1 0 1
phys
0 -1 -37.1 271.821 0 0 1 27 0 1 0 1
0 94 -20.91 271.821 0 0 1 27 0 1 0 1
0 -1 -20.91 271.821 0 0 1 27 0 1 0 1
phys
0 94 -37.1 260.131 0 0 1 27 0 1 0 1
0 -1 -37.1 260.131 0 0 1 27 0 1 0 1
0 -1 -20.91 271.821 0 0 1 27 0 1 0 1
phys
0 94 -37.1 260.131 0 0 1 27 0 1 0 1
0 -1 -20.91 271.821 0 0 1 27 0 1 0 1
0 94 -20.91 271.821 0 0 1 27 0 1 0 1
end
