version 1
nodes
0 "root" -1
end
skeleton
time 0
0 0 0 0 0 0 0
end
triangles
phys
0 -55.63 43.71 56.108 0 0 1 1 0 1 0 1
0 -55.63 43.71 -63.892 0 0 1 1 0 1 0 1
0 -71.63 43.71 -63.892 0 0 1 1 0 1 0 1
phys
0 -55.63 43.71 56.108 0 0 1 1 0 1 0 1
0 -71.63 43.71 -63.892 0 0 1 1 0 1 0 1
0 -71.63 43.71 56.108 0 0 1 1 0 1 0 1
phys
0 -55.63 -12.29 -63.892 0 0 1 1 0 1 0 1
0 -55.63 -12.29 56.108 0 0 1 1 0 1 0 1
0 -71.63 -12.29 56.108 0 0 1 1 0 1 0 1
phys
0 -55.63 -12.29 -63.892 0 0 1 1 0 1 0 1
0 -71.63 -12.29 56.108 0 0 1 1 0 1 0 1
0 -71.63 -12.29 -63.892 0 0 1 1 0 1 0 1
phys
0 -71.63 -12.29 -63.892 0 0 1 1 0 1 0 1
0 -71.63 -12.29 56.108 0 0 1 1 0 1 0 1
0 -71.63 43.71 56.108 0 0 1 1 0 1 0 1
phys
0 -71.63 -12.29 -63.892 0 0 1 1 0 1 0 1
0 -71.63 43.71 56.108 0 0 1 1 0 1 0 1
0 -71.63 43.71 -63.892 0 0 1 1 0 1 0 1
phys
0 -55.63 -12.29 56.108 0 0 1 1 0 1 0 1
0 -55.63 -12.29 -63.892 0 0 1 1 0 1 0 1
0 -55.63 43.71 -63.892 0 0 1 1 0 1 0 1
phys
0 -55.63 -12.29 56.108 0 0 1 1 0 1 0 1
0 -55.63 43.71 -63.892 0 0 1 1 0 1 0 1
0 -55.63 43.71 56.108 0 0 1 1 0 1 0 1
phys
0 -55.63 -12.29 -63.892 0 0 1 1 0 1 0 1
0 -71.63 -12.29 -63.892 0 0 1 1 0 1 0 1
0 -71.63 43.71 -63.892 0 0 1 1 0 1 0 1
phys
0 -55.63 -12.29 -63.892 0 0 1 1 0 1 0 1
0 -71.63 43.71 -63.892 0 0 1 1 0 1 0 1
0 -55.63 43.71 -63.892 0 0 1 1 0 1 0 1
phys
0 -71.63 -12.29 56.108 0 0 1 1 0 1 0 1
0 -55.63 -12.29 56.108 0 0 1 1 0 1 0 1
0 -55.63 43.71 56.108 0 0 1 1 0 1 0 1
phys
0 -71.63 -12.29 56.108 0 0 1 1 0 1 0 1
0 -55.63 43.71 56.108 0 0 1 1 0 1 0 1
0 -71.63 43.71 56.108 0 0 1 1 0 1 0 1
phys
0 -167.63 -12.29 -63.892 0 0 1 2 0 1 0 1
0 -191.63 -12.29 -63.892 0 0 1 2 0 1 0 1
0 -191.63 43.71 -63.892 0 0 1 2 0 1 0 1
phys
0 -167.63 -12.29 -63.892 0 0 1 2 0 1 0 1
0 -191.63 43.71 -63.892 0 0 1 2 0 1 0 1
0 -167.63 43.71 -63.892 0 0 1 2 0 1 0 1
phys
0 -191.63 -12.29 56.108 0 0 1 2 0 1 0 1
0 -167.63 -12.29 56.108 0 0 1 2 0 1 0 1
0 -167.63 43.71 56.108 0 0 1 2 0 1 0 1
phys
0 -191.63 -12.29 56.108 0 0 1 2 0 1 0 1
0 -167.63 43.71 56.108 0 0 1 2 0 1 0 1
0 -191.63 43.71 56.108 0 0 1 2 0 1 0 1
phys
0 -167.63 43.71 -63.892 0 0 1 2 0 1 0 1
0 -191.63 43.71 -63.892 0 0 1 2 0 1 0 1
0 -191.63 43.71 56.108 0 0 1 2 0 1 0 1
phys
0 -167.63 43.71 -63.892 0 0 1 2 0 1 0 1
0 -191.63 43.71 56.108 0 0 1 2 0 1 0 1
0 -167.63 43.71 56.108 0 0 1 2 0 1 0 1
phys
0 -167.63 -12.29 56.108 0 0 1 2 0 1 0 1
0 -191.63 -12.29 56.108 0 0 1 2 0 1 0 1
0 -191.63 -12.29 -63.892 0 0 1 2 0 1 0 1
phys
0 -167.63 -12.29 56.108 0 0 1 2 0 1 0 1
0 -191.63 -12.29 -63.892 0 0 1 2 0 1 0 1
0 -167.63 -12.29 -63.892 0 0 1 2 0 1 0 1
phys
0 -191.63 -12.29 56.108 0 0 1 2 0 1 0 1
0 -191.63 43.71 56.108 0 0 1 2 0 1 0 1
0 -191.63 43.71 -63.892 0 0 1 2 0 1 0 1
phys
0 -191.63 -12.29 56.108 0 0 1 2 0 1 0 1
0 -191.63 43.71 -63.892 0 0 1 2 0 1 0 1
0 -191.63 -12.29 -63.892 0 0 1 2 0 1 0 1
phys
0 -167.63 -12.29 -63.892 0 0 1 2 0 1 0 1
0 -167.63 43.71 -63.892 0 0 1 2 0 1 0 1
0 -167.63 43.71 56.108 0 0 1 2 0 1 0 1
phys
0 -167.63 -12.29 -63.892 0 0 1 2 0 1 0 1
0 -167.63 43.71 56.108 0 0 1 2 0 1 0 1
0 -167.63 -12.29 56.108 0 0 1 2 0 1 0 1
phys
0 119.34 51.71 37.34 0 0 1 3 0 1 0 1
0 119.34 51.71 -31.16 0 0 1 3 0 1 0 1
0 -47.62 51.71 -31.16 0 0 1 3 0 1 0 1
phys
0 119.34 51.71 37.34 0 0 1 3 0 1 0 1
0 -47.62 51.71 -31.16 0 0 1 3 0 1 0 1
0 -47.62 51.71 37.34 0 0 1 3 0 1 0 1
phys
0 119.34 43.71 -31.16 0 0 1 3 0 1 0 1
0 119.34 43.71 37.34 0 0 1 3 0 1 0 1
0 -47.62 43.71 37.34 0 0 1 3 0 1 0 1
phys
0 119.34 43.71 -31.16 0 0 1 3 0 1 0 1
0 -47.62 43.71 37.34 0 0 1 3 0 1 0 1
0 -47.62 43.71 -31.16 0 0 1 3 0 1 0 1
phys
0 -47.62 43.71 -31.16 0 0 1 3 0 1 0 1
0 -47.62 43.71 37.34 0 0 1 3 0 1 0 1
0 -47.62 51.71 37.34 0 0 1 3 0 1 0 1
phys
0 -47.62 43.71 -31.16 0 0 1 3 0 1 0 1
0 -47.62 51.71 37.34 0 0 1 3 0 1 0 1
0 -47.62 51.71 -31.16 0 0 1 3 0 1 0 1
phys
0 119.34 43.71 37.34 0 0 1 3 0 1 0 1
0 119.34 43.71 -31.16 0 0 1 3 0 1 0 1
0 119.34 51.71 -31.16 0 0 1 3 0 1 0 1
phys
0 119.34 43.71 37.34 0 0 1 3 0 1 0 1
0 119.34 51.71 -31.16 0 0 1 3 0 1 0 1
0 119.34 51.71 37.34 0 0 1 3 0 1 0 1
phys
0 119.34 43.71 -31.16 0 0 1 3 0 1 0 1
0 -47.62 43.71 -31.16 0 0 1 3 0 1 0 1
0 -47.62 51.71 -31.16 0 0 1 3 0 1 0 1
phys
0 119.34 43.71 -31.16 0 0 1 3 0 1 0 1
0 -47.62 51.71 -31.16 0 0 1 3 0 1 0 1
0 119.34 51.71 -31.16 0 0 1 3 0 1 0 1
phys
0 -47.62 43.71 37.34 0 0 1 3 0 1 0 1
0 119.34 43.71 37.34 0 0 1 3 0 1 0 1
0 119.34 51.71 37.34 0 0 1 3 0 1 0 1
phys
0 -47.62 43.71 37.34 0 0 1 3 0 1 0 1
0 119.34 51.71 37.34 0 0 1 3 0 1 0 1
0 -47.62 51.71 37.34 0 0 1 3 0 1 0 1
phys
0 56.37 43.71 56.108 0 0 1 4 0 1 0 1
0 56.37 43.71 -63.892 0 0 1 4 0 1 0 1
0 48.37 43.71 -63.892 0 0 1 4 0 1 0 1
phys
0 56.37 43.71 56.108 0 0 1 4 0 1 0 1
0 48.37 43.71 -63.892 0 0 1 4 0 1 0 1
0 48.37 43.71 56.108 0 0 1 4 0 1 0 1
phys
0 56.37 -192.29 -63.892 0 0 1 4 0 1 0 1
0 56.37 -192.29 56.108 0 0 1 4 0 1 0 1
0 48.37 -192.29 56.108 0 0 1 4 0 1 0 1
phys
0 56.37 -192.29 -63.892 0 0 1 4 0 1 0 1
0 48.37 -192.29 56.108 0 0 1 4 0 1 0 1
0 48.37 -192.29 -63.892 0 0 1 4 0 1 0 1
phys
0 48.37 -192.29 -63.892 0 0 1 4 0 1 0 1
0 48.37 -192.29 56.108 0 0 1 4 0 1 0 1
0 48.37 43.71 56.108 0 0 1 4 0 1 0 1
phys
0 48.37 -192.29 -63.892 0 0 1 4 0 1 0 1
0 48.37 43.71 56.108 0 0 1 4 0 1 0 1
0 48.37 43.71 -63.892 0 0 1 4 0 1 0 1
phys
0 56.37 -192.29 56.108 0 0 1 4 0 1 0 1
0 56.37 -192.29 -63.892 0 0 1 4 0 1 0 1
0 56.37 43.71 -63.892 0 0 1 4 0 1 0 1
phys
0 56.37 -192.29 56.108 0 0 1 4 0 1 0 1
0 56.37 43.71 -63.892 0 0 1 4 0 1 0 1
0 56.37 43.71 56.108 0 0 1 4 0 1 0 1
phys
0 56.37 -192.29 -63.892 0 0 1 4 0 1 0 1
0 48.37 -192.29 -63.892 0 0 1 4 0 1 0 1
0 48.37 43.71 -63.892 0 0 1 4 0 1 0 1
phys
0 56.37 -192.29 -63.892 0 0 1 4 0 1 0 1
0 48.37 43.71 -63.892 0 0 1 4 0 1 0 1
0 56.37 43.71 -63.892 0 0 1 4 0 1 0 1
phys
0 48.37 -192.29 56.108 0 0 1 4 0 1 0 1
0 56.37 -192.29 56.108 0 0 1 4 0 1 0 1
0 56.37 43.71 56.108 0 0 1 4 0 1 0 1
phys
0 48.37 -192.29 56.108 0 0 1 4 0 1 0 1
0 56.37 43.71 56.108 0 0 1 4 0 1 0 1
0 48.37 43.71 56.108 0 0 1 4 0 1 0 1
phys
0 288.37 51.71 -30.91 0 0 1 5 0 1 0 1
0 288.37 51.71 -63.892 0 0 1 5 0 1 0 1
0 -47.62 51.71 -63.892 0 0 1 5 0 1 0 1
phys
0 288.37 51.71 -30.91 0 0 1 5 0 1 0 1
0 -47.62 51.71 -63.892 0 0 1 5 0 1 0 1
0 -47.62 51.71 -30.91 0 0 1 5 0 1 0 1
phys
0 288.37 43.71 -63.892 0 0 1 5 0 1 0 1
0 288.37 43.71 -30.91 0 0 1 5 0 1 0 1
0 -47.62 43.71 -30.91 0 0 1 5 0 1 0 1
phys
0 288.37 43.71 -63.892 0 0 1 5 0 1 0 1
0 -47.62 43.71 -30.91 0 0 1 5 0 1 0 1
0 -47.62 43.71 -63.892 0 0 1 5 0 1 0 1
phys
0 -47.62 43.71 -63.892 0 0 1 5 0 1 0 1
0 -47.62 43.71 -30.91 0 0 1 5 0 1 0 1
0 -47.62 51.71 -30.91 0 0 1 5 0 1 0 1
phys
0 -47.62 43.71 -63.892 0 0 1 5 0 1 0 1
0 -47.62 51.71 -30.91 0 0 1 5 0 1 0 1
0 -47.62 51.71 -63.892 0 0 1 5 0 1 0 1
phys
0 288.37 43.71 -30.91 0 0 1 5 0 1 0 1
0 288.37 43.71 -63.892 0 0 1 5 0 1 0 1
0 288.37 51.71 -63.892 0 0 1 5 0 1 0 1
phys
0 288.37 43.71 -30.91 0 0 1 5 0 1 0 1
0 288.37 51.71 -63.892 0 0 1 5 0 1 0 1
0 288.37 51.71 -30.91 0 0 1 5 0 1 0 1
phys
0 288.37 43.71 -63.892 0 0 1 5 0 1 0 1
0 -47.62 43.71 -63.892 0 0 1 5 0 1 0 1
0 -47.62 51.71 -63.892 0 0 1 5 0 1 0 1
phys
0 288.37 43.71 -63.892 0 0 1 5 0 1 0 1
0 -47.62 51.71 -63.892 0 0 1 5 0 1 0 1
0 288.37 51.71 -63.892 0 0 1 5 0 1 0 1
phys
0 -47.62 43.71 -30.91 0 0 1 5 0 1 0 1
0 288.37 43.71 -30.91 0 0 1 5 0 1 0 1
0 288.37 51.71 -30.91 0 0 1 5 0 1 0 1
phys
0 -47.62 43.71 -30.91 0 0 1 5 0 1 0 1
0 288.37 51.71 -30.91 0 0 1 5 0 1 0 1
0 -47.62 51.71 -30.91 0 0 1 5 0 1 0 1
phys
0 -47.62 -44.29 64.106 0 0 1 6 0 1 0 1
0 -47.62 43.71 64.106 0 0 1 6 0 1 0 1
0 -47.62 43.71 -63.892 0 0 1 6 0 1 0 1
phys
0 -47.62 -44.29 64.106 0 0 1 6 0 1 0 1
0 -47.62 43.71 -63.892 0 0 1 6 0 1 0 1
0 -47.62 -44.29 -63.892 0 0 1 6 0 1 0 1
phys
0 48.37 -44.29 -63.892 0 0 1 6 0 1 0 1
0 48.37 43.71 -63.892 0 0 1 6 0 1 0 1
0 48.37 43.71 64.106 0 0 1 6 0 1 0 1
phys
0 48.37 -44.29 -63.892 0 0 1 6 0 1 0 1
0 48.37 43.71 64.106 0 0 1 6 0 1 0 1
0 48.37 -44.29 64.106 0 0 1 6 0 1 0 1
phys
0 -47.62 -44.29 -63.892 0 0 1 6 0 1 0 1
0 -47.62 43.71 -63.892 0 0 1 6 0 1 0 1
0 48.37 43.71 -63.892 0 0 1 6 0 1 0 1
phys
0 -47.62 -44.29 -63.892 0 0 1 6 0 1 0 1
0 48.37 43.71 -63.892 0 0 1 6 0 1 0 1
0 48.37 -44.29 -63.892 0 0 1 6 0 1 0 1
phys
0 48.37 -44.29 64.106 0 0 1 6 0 1 0 1
0 48.37 43.71 64.106 0 0 1 6 0 1 0 1
0 -47.62 43.71 64.106 0 0 1 6 0 1 0 1
phys
0 48.37 -44.29 64.106 0 0 1 6 0 1 0 1
0 -47.62 43.71 64.106 0 0 1 6 0 1 0 1
0 -47.62 -44.29 64.106 0 0 1 6 0 1 0 1
phys
0 48.37 43.71 64.106 0 0 1 6 0 1 0 1
0 48.37 43.71 -63.892 0 0 1 6 0 1 0 1
0 -47.62 43.71 -63.892 0 0 1 6 0 1 0 1
phys
0 48.37 43.71 64.106 0 0 1 6 0 1 0 1
0 -47.62 43.71 -63.892 0 0 1 6 0 1 0 1
0 -47.62 43.71 64.106 0 0 1 6 0 1 0 1
phys
0 48.37 -44.29 -63.892 0 0 1 6 0 1 0 1
0 48.37 -44.29 64.106 0 0 1 6 0 1 0 1
0 -47.62 -44.29 64.106 0 0 1 6 0 1 0 1
phys
0 48.37 -44.29 -63.892 0 0 1 6 0 1 0 1
0 -47.62 -44.29 64.106 0 0 1 6 0 1 0 1
0 -47.62 -44.29 -63.892 0 0 1 6 0 1 0 1
phys
0 -47.62 51.71 64.106 0 0 1 7 0 1 0 1
0 -47.62 51.71 -63.892 0 0 1 7 0 1 0 1
0 -191.63 51.71 -63.892 0 0 1 7 0 1 0 1
phys
0 -47.62 51.71 64.106 0 0 1 7 0 1 0 1
0 -191.63 51.71 -63.892 0 0 1 7 0 1 0 1
0 -191.63 51.71 64.106 0 0 1 7 0 1 0 1
phys
0 -47.62 43.71 -63.892 0 0 1 7 0 1 0 1
0 -47.62 43.71 64.106 0 0 1 7 0 1 0 1
0 -191.63 43.71 64.106 0 0 1 7 0 1 0 1
phys
0 -47.62 43.71 -63.892 0 0 1 7 0 1 0 1
0 -191.63 43.71 64.106 0 0 1 7 0 1 0 1
0 -191.63 43.71 -63.892 0 0 1 7 0 1 0 1
phys
0 -191.63 43.71 -63.892 0 0 1 7 0 1 0 1
0 -191.63 43.71 64.106 0 0 1 7 0 1 0 1
0 -191.63 51.71 64.106 0 0 1 7 0 1 0 1
phys
0 -191.63 43.71 -63.892 0 0 1 7 0 1 0 1
0 -191.63 51.71 64.106 0 0 1 7 0 1 0 1
0 -191.63 51.71 -63.892 0 0 1 7 0 1 0 1
phys
0 -47.62 43.71 64.106 0 0 1 7 0 1 0 1
0 -47.62 43.71 -63.892 0 0 1 7 0 1 0 1
0 -47.62 51.71 -63.892 0 0 1 7 0 1 0 1
phys
0 -47.62 43.71 64.106 0 0 1 7 0 1 0 1
0 -47.62 51.71 -63.892 0 0 1 7 0 1 0 1
0 -47.62 51.71 64.106 0 0 1 7 0 1 0 1
phys
0 -47.62 43.71 -63.892 0 0 1 7 0 1 0 1
0 -191.63 43.71 -63.892 0 0 1 7 0 1 0 1
0 -191.63 51.71 -63.892 0 0 1 7 0 1 0 1
phys
0 -47.62 43.71 -63.892 0 0 1 7 0 1 0 1
0 -191.63 51.71 -63.892 0 0 1 7 0 1 0 1
0 -47.62 51.71 -63.892 0 0 1 7 0 1 0 1
phys
0 -191.63 43.71 64.106 0 0 1 7 0 1 0 1
0 -47.62 43.71 64.106 0 0 1 7 0 1 0 1
0 -47.62 51.71 64.106 0 0 1 7 0 1 0 1
phys
0 -191.63 43.71 64.106 0 0 1 7 0 1 0 1
0 -47.62 51.71 64.106 0 0 1 7 0 1 0 1
0 -191.63 51.71 64.106 0 0 1 7 0 1 0 1
phys
0 -55.63 -192.29 56.108 0 0 1 8 0 1 0 1
0 -55.63 43.71 56.108 0 0 1 8 0 1 0 1
0 -55.63 43.71 -63.892 0 0 1 8 0 1 0 1
phys
0 -55.63 -192.29 56.108 0 0 1 8 0 1 0 1
0 -55.63 43.71 -63.892 0 0 1 8 0 1 0 1
0 -55.63 -192.29 -63.892 0 0 1 8 0 1 0 1
phys
0 -47.62 -192.29 -63.892 0 0 1 8 0 1 0 1
0 -47.62 43.71 -63.892 0 0 1 8 0 1 0 1
0 -47.62 43.71 56.108 0 0 1 8 0 1 0 1
phys
0 -47.62 -192.29 -63.892 0 0 1 8 0 1 0 1
0 -47.62 43.71 56.108 0 0 1 8 0 1 0 1
0 -47.62 -192.29 56.108 0 0 1 8 0 1 0 1
phys
0 -55.63 -192.29 -63.892 0 0 1 8 0 1 0 1
0 -55.63 43.71 -63.892 0 0 1 8 0 1 0 1
0 -47.62 43.71 -63.892 0 0 1 8 0 1 0 1
phys
0 -55.63 -192.29 -63.892 0 0 1 8 0 1 0 1
0 -47.62 43.71 -63.892 0 0 1 8 0 1 0 1
0 -47.62 -192.29 -63.892 0 0 1 8 0 1 0 1
phys
0 -47.62 -192.29 56.108 0 0 1 8 0 1 0 1
0 -47.62 43.71 56.108 0 0 1 8 0 1 0 1
0 -55.63 43.71 56.108 0 0 1 8 0 1 0 1
phys
0 -47.62 -192.29 56.108 0 0 1 8 0 1 0 1
0 -55.63 43.71 56.108 0 0 1 8 0 1 0 1
0 -55.63 -192.29 56.108 0 0 1 8 0 1 0 1
phys
0 -47.62 43.71 56.108 0 0 1 8 0 1 0 1
0 -47.62 43.71 -63.892 0 0 1 8 0 1 0 1
0 -55.63 43.71 -63.892 0 0 1 8 0 1 0 1
phys
0 -47.62 43.71 56.108 0 0 1 8 0 1 0 1
0 -55.63 43.71 -63.892 0 0 1 8 0 1 0 1
0 -55.63 43.71 56.108 0 0 1 8 0 1 0 1
phys
0 -47.62 -192.29 -63.892 0 0 1 8 0 1 0 1
0 -47.62 -192.29 56.108 0 0 1 8 0 1 0 1
0 -55.63 -192.29 56.108 0 0 1 8 0 1 0 1
phys
0 -47.62 -192.29 -63.892 0 0 1 8 0 1 0 1
0 -55.63 -192.29 56.108 0 0 1 8 0 1 0 1
0 -55.63 -192.29 -63.892 0 0 1 8 0 1 0 1
end
