version 1
nodes
0 "root" -1
end
skeleton
time 0
0 0 0 0 0 0 0
end
triangles
phys
0 20.6 -19.96 -252 0 0 1 1 0 1 0 1
0 20.6 -19.96 -139.8 0 0 1 1 0 1 0 1
0 17.8 -17.13 -143.737673 0 0 1 1 0 1 0 1
phys
0 20.6 -19.96 -252 0 0 1 1 0 1 0 1
0 17.8 -17.13 -143.737673 0 0 1 1 0 1 0 1
0 17.8 -17.13 -252 0 0 1 1 0 1 0 1
phys
0 20.6 -19.96 -139.8 0 0 1 1 0 1 0 1
0 20.6 -19.96 -252 0 0 1 1 0 1 0 1
0 27 -13.6 -252 0 0 1 1 0 1 0 1
phys
0 20.6 -19.96 -139.8 0 0 1 1 0 1 0 1
0 27 -13.6 -252 0 0 1 1 0 1 0 1
0 27 -13.6 -139.723 0 0 1 1 0 1 0 1
phys
0 17.8 -17.13 -252 0 0 1 1 0 1 0 1
0 17.8 -17.13 -143.737673 0 0 1 1 0 1 0 1
0 24.1 -10.77 -143.731 0 0 1 1 0 1 0 1
phys
0 17.8 -17.13 -252 0 0 1 1 0 1 0 1
0 24.1 -10.77 -143.731 0 0 1 1 0 1 0 1
0 24.1 -10.77 -252 0 0 1 1 0 1 0 1
phys
0 27 -13.6 -139.723 0 0 1 1 0 1 0 1
0 27 -13.6 -252 0 0 1 1 0 1 0 1
0 24.1 -10.77 -252 0 0 1 1 0 1 0 1
phys
0 27 -13.6 -139.723 0 0 1 1 0 1 0 1
0 24.1 -10.77 -252 0 0 1 1 0 1 0 1
0 24.1 -10.77 -143.731 0 0 1 1 0 1 0 1
phys
0 17.8 -17.13 -143.737673 0 0 1 1 0 1 0 1
0 20.6 -19.96 -139.8 0 0 1 1 0 1 0 1
0 27 -13.6 -139.723 0 0 1 1 0 1 0 1
phys
0 17.8 -17.13 -143.737673 0 0 1 1 0 1 0 1
0 27 -13.6 -139.723 0 0 1 1 0 1 0 1
0 24.1 -10.77 -143.731 0 0 1 1 0 1 0 1
phys
0 27 -13.6 -252 0 0 1 1 0 1 0 1
0 20.6 -19.96 -252 0 0 1 1 0 1 0 1
0 17.8 -17.13 -252 0 0 1 1 0 1 0 1
phys
0 27 -13.6 -252 0 0 1 1 0 1 0 1
0 17.8 -17.13 -252 0 0 1 1 0 1 0 1
0 24.1 -10.77 -252 0 0 1 1 0 1 0 1
phys
0 46 -46 -140 0 0 1 2 0 1 0 1
0 46 -30 -140 0 0 1 2 0 1 0 1
0 46 -30 140 0 0 1 2 0 1 0 1
phys
0 46 -46 -140 0 0 1 2 0 1 0 1
0 46 -30 140 0 0 1 2 0 1 0 1
0 46 -46 140 0 0 1 2 0 1 0 1
phys
0 -30 46 -140 0 0 1 2 0 1 0 1
0 46 -30 -140 0 0 1 2 0 1 0 1
0 46 -46 -140 0 0 1 2 0 1 0 1
phys
0 -30 46 -140 0 0 1 2 0 1 0 1
0 46 -46 -140 0 0 1 2 0 1 0 1
0 -46 46 -140 0 0 1 2 0 1 0 1
phys
0 -46 46 140 0 0 1 2 0 1 0 1
0 46 -46 140 0 0 1 2 0 1 0 1
0 46 -30 140 0 0 1 2 0 1 0 1
phys
0 -46 46 140 0 0 1 2 0 1 0 1
0 46 -30 140 0 0 1 2 0 1 0 1
0 -30 46 140 0 0 1 2 0 1 0 1
phys
0 46 -46 -140 0 0 1 2 0 1 0 1
0 46 -46 140 0 0 1 2 0 1 0 1
0 -46 46 140 0 0 1 2 0 1 0 1
phys
0 46 -46 -140 0 0 1 2 0 1 0 1
0 -46 46 140 0 0 1 2 0 1 0 1
0 -46 46 -140 0 0 1 2 0 1 0 1
phys
0 46 -30 140 0 0 1 2 0 1 0 1
0 46 -30 -140 0 0 1 2 0 1 0 1
0 -30 46 -140 0 0 1 2 0 1 0 1
phys
0 46 -30 140 0 0 1 2 0 1 0 1
0 -30 46 -140 0 0 1 2 0 1 0 1
0 -30 46 140 0 0 1 2 0 1 0 1
phys
0 -30 46 -140 0 0 1 2 0 1 0 1
0 -46 46 -140 0 0 1 2 0 1 0 1
0 -46 46 140 0 0 1 2 0 1 0 1
phys
0 -30 46 -140 0 0 1 2 0 1 0 1
0 -46 46 140 0 0 1 2 0 1 0 1
0 -30 46 140 0 0 1 2 0 1 0 1
phys
0 148 -46 123 0 0 1 3 0 1 0 1
0 146 -46 121 0 0 1 3 0 1 0 1
0 146 -42 121 0 0 1 3 0 1 0 1
phys
0 148 -46 123 0 0 1 3 0 1 0 1
0 146 -42 121 0 0 1 3 0 1 0 1
0 148 -42 123 0 0 1 3 0 1 0 1
phys
0 92 -42 123 0 0 1 3 0 1 0 1
0 94 -42 121 0 0 1 3 0 1 0 1
0 94 -46 121 0 0 1 3 0 1 0 1
phys
0 92 -42 123 0 0 1 3 0 1 0 1
0 94 -46 121 0 0 1 3 0 1 0 1
0 92 -46 123 0 0 1 3 0 1 0 1
phys
0 148 -42 123 0 0 1 3 0 1 0 1
0 146 -42 121 0 0 1 3 0 1 0 1
0 94 -42 121 0 0 1 3 0 1 0 1
phys
0 148 -42 123 0 0 1 3 0 1 0 1
0 94 -42 121 0 0 1 3 0 1 0 1
0 92 -42 123 0 0 1 3 0 1 0 1
phys
0 146 -46 121 0 0 1 3 0 1 0 1
0 148 -46 123 0 0 1 3 0 1 0 1
0 92 -46 123 0 0 1 3 0 1 0 1
phys
0 146 -46 121 0 0 1 3 0 1 0 1
0 92 -46 123 0 0 1 3 0 1 0 1
0 94 -46 121 0 0 1 3 0 1 0 1
phys
0 94 -46 121 0 0 1 3 0 1 0 1
0 94 -42 121 0 0 1 3 0 1 0 1
0 146 -42 121 0 0 1 3 0 1 0 1
phys
0 94 -46 121 0 0 1 3 0 1 0 1
0 146 -42 121 0 0 1 3 0 1 0 1
0 146 -46 121 0 0 1 3 0 1 0 1
phys
0 148 -46 123 0 0 1 3 0 1 0 1
0 148 -42 123 0 0 1 3 0 1 0 1
0 92 -42 123 0 0 1 3 0 1 0 1
phys
0 148 -46 123 0 0 1 3 0 1 0 1
0 92 -42 123 0 0 1 3 0 1 0 1
0 92 -46 123 0 0 1 3 0 1 0 1
phys
0 148 -42 -133.001 0 0 1 4 0 1 0 1
0 148 -42 -219.999 0 0 1 4 0 1 0 1
0 146 -42 -217.999 0 0 1 4 0 1 0 1
phys
0 148 -42 -133.001 0 0 1 4 0 1 0 1
0 146 -42 -217.999 0 0 1 4 0 1 0 1
0 146 -42 -135.001 0 0 1 4 0 1 0 1
phys
0 148 -46 -219.999 0 0 1 4 0 1 0 1
0 148 -46 -133.02 0 0 1 4 0 1 0 1
0 146 -46 -135.02 0 0 1 4 0 1 0 1
phys
0 148 -46 -219.999 0 0 1 4 0 1 0 1
0 146 -46 -135.02 0 0 1 4 0 1 0 1
0 146 -46 -217.999 0 0 1 4 0 1 0 1
phys
0 146 -46 -217.999 0 0 1 4 0 1 0 1
0 146 -46 -135.02 0 0 1 4 0 1 0 1
0 146 -42 -135.001 0 0 1 4 0 1 0 1
phys
0 146 -46 -217.999 0 0 1 4 0 1 0 1
0 146 -42 -135.001 0 0 1 4 0 1 0 1
0 146 -42 -217.999 0 0 1 4 0 1 0 1
phys
0 148 -46 -133.02 0 0 1 4 0 1 0 1
0 148 -46 -219.999 0 0 1 4 0 1 0 1
0 148 -42 -219.999 0 0 1 4 0 1 0 1
phys
0 148 -46 -133.02 0 0 1 4 0 1 0 1
0 148 -42 -219.999 0 0 1 4 0 1 0 1
0 148 -42 -133.001 0 0 1 4 0 1 0 1
phys
0 148 -46 -219.999 0 0 1 4 0 1 0 1
0 146 -46 -217.999 0 0 1 4 0 1 0 1
0 146 -42 -217.999 0 0 1 4 0 1 0 1
phys
0 148 -46 -219.999 0 0 1 4 0 1 0 1
0 146 -42 -217.999 0 0 1 4 0 1 0 1
0 148 -42 -219.999 0 0 1 4 0 1 0 1
phys
0 146 -46 -135.02 0 0 1 4 0 1 0 1
0 148 -46 -133.02 0 0 1 4 0 1 0 1
0 148 -42 -133.001 0 0 1 4 0 1 0 1
phys
0 146 -46 -135.02 0 0 1 4 0 1 0 1
0 148 -42 -133.001 0 0 1 4 0 1 0 1
0 146 -42 -135.001 0 0 1 4 0 1 0 1
phys
0 -46 63 -5 0 0 1 5 0 1 0 1
0 -46 65 -7 0 0 1 5 0 1 0 1
0 -42 65 -7 0 0 1 5 0 1 0 1
phys
0 -46 63 -5 0 0 1 5 0 1 0 1
0 -42 65 -7 0 0 1 5 0 1 0 1
0 -42 63 -5 0 0 1 5 0 1 0 1
phys
0 -46 116 -7 0 0 1 5 0 1 0 1
0 -46 118 -5 0 0 1 5 0 1 0 1
0 -42 118 -5 0 0 1 5 0 1 0 1
phys
0 -46 116 -7 0 0 1 5 0 1 0 1
0 -42 118 -5 0 0 1 5 0 1 0 1
0 -42 116 -7 0 0 1 5 0 1 0 1
phys
0 -46 65 -7 0 0 1 5 0 1 0 1
0 -46 63 -5 0 0 1 5 0 1 0 1
0 -46 118 -5 0 0 1 5 0 1 0 1
phys
0 -46 65 -7 0 0 1 5 0 1 0 1
0 -46 118 -5 0 0 1 5 0 1 0 1
0 -46 116 -7 0 0 1 5 0 1 0 1
phys
0 -42 63 -5 0 0 1 5 0 1 0 1
0 -42 65 -7 0 0 1 5 0 1 0 1
0 -42 116 -7 0 0 1 5 0 1 0 1
phys
0 -42 63 -5 0 0 1 5 0 1 0 1
0 -42 116 -7 0 0 1 5 0 1 0 1
0 -42 118 -5 0 0 1 5 0 1 0 1
phys
0 -42 65 -7 0 0 1 5 0 1 0 1
0 -46 65 -7 0 0 1 5 0 1 0 1
0 -46 116 -7 0 0 1 5 0 1 0 1
phys
0 -42 65 -7 0 0 1 5 0 1 0 1
0 -46 116 -7 0 0 1 5 0 1 0 1
0 -42 116 -7 0 0 1 5 0 1 0 1
phys
0 -46 63 -5 0 0 1 5 0 1 0 1
0 -42 63 -5 0 0 1 5 0 1 0 1
0 -42 118 -5 0 0 1 5 0 1 0 1
phys
0 -46 63 -5 0 0 1 5 0 1 0 1
0 -42 118 -5 0 0 1 5 0 1 0 1
0 -46 118 -5 0 0 1 5 0 1 0 1
phys
0 191 74 -244 0 0 1 6 0 1 0 1
0 191 74 -228 0 0 1 6 0 1 0 1
0 144 74 -228 0 0 1 6 0 1 0 1
phys
0 191 74 -244 0 0 1 6 0 1 0 1
0 144 74 -228 0 0 1 6 0 1 0 1
0 144 74 -244 0 0 1 6 0 1 0 1
phys
0 144 74 -244 0 0 1 6 0 1 0 1
0 144 74 -228 0 0 1 6 0 1 0 1
0 144 90 -228 0 0 1 6 0 1 0 1
phys
0 191 74 -228 0 0 1 6 0 1 0 1
0 191 74 -244 0 0 1 6 0 1 0 1
0 191 90 -228 0 0 1 6 0 1 0 1
phys
0 144 74 -228 0 0 1 6 0 1 0 1
0 191 74 -228 0 0 1 6 0 1 0 1
0 191 90 -228 0 0 1 6 0 1 0 1
phys
0 144 74 -228 0 0 1 6 0 1 0 1
0 191 90 -228 0 0 1 6 0 1 0 1
0 144 90 -228 0 0 1 6 0 1 0 1
phys
0 191 74 -244 0 0 1 6 0 1 0 1
0 144 74 -244 0 0 1 6 0 1 0 1
0 144 90 -228 0 0 1 6 0 1 0 1
phys
0 191 74 -244 0 0 1 6 0 1 0 1
0 144 90 -228 0 0 1 6 0 1 0 1
0 191 90 -228 0 0 1 6 0 1 0 1
phys
0 -213 -200 -256 0 0 1 7 0 1 0 1
0 -223 -172 -256 0 0 1 7 0 1 0 1
0 -209 -168 -256 0 0 1 7 0 1 0 1
phys
0 -213 -200 -256 0 0 1 7 0 1 0 1
0 -209 -168 -256 0 0 1 7 0 1 0 1
0 -201 -194 -256 0 0 1 7 0 1 0 1
phys
0 -223 -172 -252 0 0 1 7 0 1 0 1
0 -213 -200 -252 0 0 1 7 0 1 0 1
0 -201 -194 -252 0 0 1 7 0 1 0 1
phys
0 -223 -172 -252 0 0 1 7 0 1 0 1
0 -201 -194 -252 0 0 1 7 0 1 0 1
0 -209 -168 -252 0 0 1 7 0 1 0 1
phys
0 -213 -200 -252 0 0 1 7 0 1 0 1
0 -223 -172 -252 0 0 1 7 0 1 0 1
0 -223 -172 -256 0 0 1 7 0 1 0 1
phys
0 -213 -200 -252 0 0 1 7 0 1 0 1
0 -223 -172 -256 0 0 1 7 0 1 0 1
0 -213 -200 -256 0 0 1 7 0 1 0 1
phys
0 -201 -194 -256 0 0 1 7 0 1 0 1
0 -209 -168 -256 0 0 1 7 0 1 0 1
0 -209 -168 -252 0 0 1 7 0 1 0 1
phys
0 -201 -194 -256 0 0 1 7 0 1 0 1
0 -209 -168 -252 0 0 1 7 0 1 0 1
0 -201 -194 -252 0 0 1 7 0 1 0 1
phys
0 -209 -168 -256 0 0 1 7 0 1 0 1
0 -223 -172 -256 0 0 1 7 0 1 0 1
0 -223 -172 -252 0 0 1 7 0 1 0 1
phys
0 -209 -168 -256 0 0 1 7 0 1 0 1
0 -223 -172 -252 0 0 1 7 0 1 0 1
0 -209 -168 -252 0 0 1 7 0 1 0 1
phys
0 -213 -200 -256 0 0 1 7 0 1 0 1
0 -201 -194 -256 0 0 1 7 0 1 0 1
0 -201 -194 -252 0 0 1 7 0 1 0 1
phys
0 -213 -200 -256 0 0 1 7 0 1 0 1
0 -201 -194 -252 0 0 1 7 0 1 0 1
0 -213 -200 -252 0 0 1 7 0 1 0 1
phys
0 191 74 -248.001 0 0 1 8 0 1 0 1
0 144 74 -248.001 0 0 1 8 0 1 0 1
0 144 202 -120.001 0 0 1 8 0 1 0 1
phys
0 191 74 -248.001 0 0 1 8 0 1 0 1
0 144 202 -120.001 0 0 1 8 0 1 0 1
0 191 202 -120.001 0 0 1 8 0 1 0 1
phys
0 144 74 -244 0 0 1 8 0 1 0 1
0 191 74 -244 0 0 1 8 0 1 0 1
0 191 202 -116 0 0 1 8 0 1 0 1
phys
0 144 74 -244 0 0 1 8 0 1 0 1
0 191 202 -116 0 0 1 8 0 1 0 1
0 144 202 -116 0 0 1 8 0 1 0 1
phys
0 191 202 -120.001 0 0 1 8 0 1 0 1
0 144 202 -120.001 0 0 1 8 0 1 0 1
0 144 202 -116 0 0 1 8 0 1 0 1
phys
0 191 202 -120.001 0 0 1 8 0 1 0 1
0 144 202 -116 0 0 1 8 0 1 0 1
0 191 202 -116 0 0 1 8 0 1 0 1
phys
0 191 74 -244 0 0 1 8 0 1 0 1
0 144 74 -244 0 0 1 8 0 1 0 1
0 144 74 -248.001 0 0 1 8 0 1 0 1
phys
0 191 74 -244 0 0 1 8 0 1 0 1
0 144 74 -248.001 0 0 1 8 0 1 0 1
0 191 74 -248.001 0 0 1 8 0 1 0 1
phys
0 144 74 -244 0 0 1 8 0 1 0 1
0 144 202 -116 0 0 1 8 0 1 0 1
0 144 202 -120.001 0 0 1 8 0 1 0 1
phys
0 144 74 -244 0 0 1 8 0 1 0 1
0 144 202 -120.001 0 0 1 8 0 1 0 1
0 144 74 -248.001 0 0 1 8 0 1 0 1
phys
0 191 202 -116 0 0 1 8 0 1 0 1
0 191 74 -244 0 0 1 8 0 1 0 1
0 191 74 -248.001 0 0 1 8 0 1 0 1
phys
0 191 202 -116 0 0 1 8 0 1 0 1
0 191 74 -248.001 0 0 1 8 0 1 0 1
0 191 202 -120.001 0 0 1 8 0 1 0 1
phys
0 191 -30 20 0 0 1 9 0 1 0 1
0 191 -30 132 0 0 1 9 0 1 0 1
0 188 -30 132 0 0 1 9 0 1 0 1
phys
0 191 -30 20 0 0 1 9 0 1 0 1
0 188 -30 132 0 0 1 9 0 1 0 1
0 188 -30 20 0 0 1 9 0 1 0 1
phys
0 188 -30 20 0 0 1 9 0 1 0 1
0 188 -30 132 0 0 1 9 0 1 0 1
0 188 149 132 0 0 1 9 0 1 0 1
phys
0 188 -30 20 0 0 1 9 0 1 0 1
0 188 149 132 0 0 1 9 0 1 0 1
0 188 37 20 0 0 1 9 0 1 0 1
phys
0 191 -30 132 0 0 1 9 0 1 0 1
0 191 -30 20 0 0 1 9 0 1 0 1
0 191 37 20 0 0 1 9 0 1 0 1
phys
0 191 -30 132 0 0 1 9 0 1 0 1
0 191 37 20 0 0 1 9 0 1 0 1
0 191 149 132 0 0 1 9 0 1 0 1
phys
0 191 -30 20 0 0 1 9 0 1 0 1
0 188 -30 20 0 0 1 9 0 1 0 1
0 188 37 20 0 0 1 9 0 1 0 1
phys
0 191 -30 20 0 0 1 9 0 1 0 1
0 188 37 20 0 0 1 9 0 1 0 1
0 191 37 20 0 0 1 9 0 1 0 1
phys
0 188 -30 132 0 0 1 9 0 1 0 1
0 191 -30 132 0 0 1 9 0 1 0 1
0 191 149 132 0 0 1 9 0 1 0 1
phys
0 188 -30 132 0 0 1 9 0 1 0 1
0 191 149 132 0 0 1 9 0 1 0 1
0 188 149 132 0 0 1 9 0 1 0 1
phys
0 188 37 20 0 0 1 9 0 1 0 1
0 188 149 132 0 0 1 9 0 1 0 1
0 191 149 132 0 0 1 9 0 1 0 1
phys
0 188 37 20 0 0 1 9 0 1 0 1
0 191 149 132 0 0 1 9 0 1 0 1
0 191 37 20 0 0 1 9 0 1 0 1
phys
0 -42 194 -135 0 0 1 10 0 1 0 1
0 -42 194 -218 0 0 1 10 0 1 0 1
0 -46 194 -218 0 0 1 10 0 1 0 1
phys
0 -42 194 -135 0 0 1 10 0 1 0 1
0 -46 194 -218 0 0 1 10 0 1 0 1
0 -46 194 -135 0 0 1 10 0 1 0 1
phys
0 -42 192 -220 0 0 1 10 0 1 0 1
0 -42 192 -133 0 0 1 10 0 1 0 1
0 -46 192 -133 0 0 1 10 0 1 0 1
phys
0 -42 192 -220 0 0 1 10 0 1 0 1
0 -46 192 -133 0 0 1 10 0 1 0 1
0 -46 192 -220 0 0 1 10 0 1 0 1
phys
0 -46 192 -220 0 0 1 10 0 1 0 1
0 -46 192 -133 0 0 1 10 0 1 0 1
0 -46 194 -135 0 0 1 10 0 1 0 1
phys
0 -46 192 -220 0 0 1 10 0 1 0 1
0 -46 194 -135 0 0 1 10 0 1 0 1
0 -46 194 -218 0 0 1 10 0 1 0 1
phys
0 -42 192 -133 0 0 1 10 0 1 0 1
0 -42 192 -220 0 0 1 10 0 1 0 1
0 -42 194 -218 0 0 1 10 0 1 0 1
phys
0 -42 192 -133 0 0 1 10 0 1 0 1
0 -42 194 -218 0 0 1 10 0 1 0 1
0 -42 194 -135 0 0 1 10 0 1 0 1
phys
0 -46 192 -133 0 0 1 10 0 1 0 1
0 -42 192 -133 0 0 1 10 0 1 0 1
0 -42 194 -135 0 0 1 10 0 1 0 1
phys
0 -46 192 -133 0 0 1 10 0 1 0 1
0 -42 194 -135 0 0 1 10 0 1 0 1
0 -46 194 -135 0 0 1 10 0 1 0 1
phys
0 -42 192 -220 0 0 1 10 0 1 0 1
0 -46 192 -220 0 0 1 10 0 1 0 1
0 -46 194 -218 0 0 1 10 0 1 0 1
phys
0 -42 192 -220 0 0 1 10 0 1 0 1
0 -46 194 -218 0 0 1 10 0 1 0 1
0 -42 194 -218 0 0 1 10 0 1 0 1
phys
0 -9.8 23.17 -252 0 0 1 11 0 1 0 1
0 -16.2 16.8 -252 0 0 1 11 0 1 0 1
0 -19 19.64 -252 0 0 1 11 0 1 0 1
phys
0 -9.8 23.17 -252 0 0 1 11 0 1 0 1
0 -19 19.64 -252 0 0 1 11 0 1 0 1
0 -12.6 26 -252 0 0 1 11 0 1 0 1
phys
0 -19 19.64 -139.724 0 0 1 11 0 1 0 1
0 -19 19.64 -252 0 0 1 11 0 1 0 1
0 -16.2 16.8 -252 0 0 1 11 0 1 0 1
phys
0 -19 19.64 -139.724 0 0 1 11 0 1 0 1
0 -16.2 16.8 -252 0 0 1 11 0 1 0 1
0 -16.2 16.8 -143.749 0 0 1 11 0 1 0 1
phys
0 -16.2 16.8 -143.749 0 0 1 11 0 1 0 1
0 -16.2 16.8 -252 0 0 1 11 0 1 0 1
0 -9.8 23.17 -252 0 0 1 11 0 1 0 1
phys
0 -16.2 16.8 -143.749 0 0 1 11 0 1 0 1
0 -9.8 23.17 -252 0 0 1 11 0 1 0 1
0 -9.8 23.17 -143.748 0 0 1 11 0 1 0 1
phys
0 -12.6 26 -139.730154 0 0 1 11 0 1 0 1
0 -12.6 26 -252 0 0 1 11 0 1 0 1
0 -19 19.64 -252 0 0 1 11 0 1 0 1
phys
0 -12.6 26 -139.730154 0 0 1 11 0 1 0 1
0 -19 19.64 -252 0 0 1 11 0 1 0 1
0 -19 19.64 -139.724 0 0 1 11 0 1 0 1
phys
0 -9.8 23.17 -143.748 0 0 1 11 0 1 0 1
0 -9.8 23.17 -252 0 0 1 11 0 1 0 1
0 -12.6 26 -252 0 0 1 11 0 1 0 1
phys
0 -9.8 23.17 -143.748 0 0 1 11 0 1 0 1
0 -12.6 26 -252 0 0 1 11 0 1 0 1
0 -12.6 26 -139.730154 0 0 1 11 0 1 0 1
phys
0 -19 19.64 -139.724 0 0 1 11 0 1 0 1
0 -16.2 16.8 -143.749 0 0 1 11 0 1 0 1
0 -9.8 23.17 -143.748 0 0 1 11 0 1 0 1
phys
0 -19 19.64 -139.724 0 0 1 11 0 1 0 1
0 -9.8 23.17 -143.748 0 0 1 11 0 1 0 1
0 -12.6 26 -139.730154 0 0 1 11 0 1 0 1
phys
0 148 -42 -5.001 0 0 1 12 0 1 0 1
0 148 -42 -92 0 0 1 12 0 1 0 1
0 146 -42 -90 0 0 1 12 0 1 0 1
phys
0 148 -42 -5.001 0 0 1 12 0 1 0 1
0 146 -42 -90 0 0 1 12 0 1 0 1
0 146 -42 -7.001 0 0 1 12 0 1 0 1
phys
0 148 -46 -92 0 0 1 12 0 1 0 1
0 148 -46 -5.001 0 0 1 12 0 1 0 1
0 146 -46 -7.001 0 0 1 12 0 1 0 1
phys
0 148 -46 -92 0 0 1 12 0 1 0 1
0 146 -46 -7.001 0 0 1 12 0 1 0 1
0 146 -46 -90 0 0 1 12 0 1 0 1
phys
0 146 -46 -90 0 0 1 12 0 1 0 1
0 146 -46 -7.001 0 0 1 12 0 1 0 1
0 146 -42 -7.001 0 0 1 12 0 1 0 1
phys
0 146 -46 -90 0 0 1 12 0 1 0 1
0 146 -42 -7.001 0 0 1 12 0 1 0 1
0 146 -42 -90 0 0 1 12 0 1 0 1
phys
0 148 -46 -5.001 0 0 1 12 0 1 0 1
0 148 -46 -92 0 0 1 12 0 1 0 1
0 148 -42 -92 0 0 1 12 0 1 0 1
phys
0 148 -46 -5.001 0 0 1 12 0 1 0 1
0 148 -42 -92 0 0 1 12 0 1 0 1
0 148 -42 -5.001 0 0 1 12 0 1 0 1
phys
0 148 -46 -92 0 0 1 12 0 1 0 1
0 146 -46 -90 0 0 1 12 0 1 0 1
0 146 -42 -90 0 0 1 12 0 1 0 1
phys
0 148 -46 -92 0 0 1 12 0 1 0 1
0 146 -42 -90 0 0 1 12 0 1 0 1
0 148 -42 -92 0 0 1 12 0 1 0 1
phys
0 146 -46 -7.001 0 0 1 12 0 1 0 1
0 148 -46 -5.001 0 0 1 12 0 1 0 1
0 148 -42 -5.001 0 0 1 12 0 1 0 1
phys
0 146 -46 -7.001 0 0 1 12 0 1 0 1
0 148 -42 -5.001 0 0 1 12 0 1 0 1
0 146 -42 -7.001 0 0 1 12 0 1 0 1
phys
0 -42 118 -5 0 0 1 13 0 1 0 1
0 -42 118 -92 0 0 1 13 0 1 0 1
0 -46 118 -92 0 0 1 13 0 1 0 1
phys
0 -42 118 -5 0 0 1 13 0 1 0 1
0 -46 118 -92 0 0 1 13 0 1 0 1
0 -46 118 -5 0 0 1 13 0 1 0 1
phys
0 -42 116 -90 0 0 1 13 0 1 0 1
0 -42 116 -7 0 0 1 13 0 1 0 1
0 -46 116 -7 0 0 1 13 0 1 0 1
phys
0 -42 116 -90 0 0 1 13 0 1 0 1
0 -46 116 -7 0 0 1 13 0 1 0 1
0 -46 116 -90 0 0 1 13 0 1 0 1
phys
0 -46 116 -90 0 0 1 13 0 1 0 1
0 -46 116 -7 0 0 1 13 0 1 0 1
0 -46 118 -5 0 0 1 13 0 1 0 1
phys
0 -46 116 -90 0 0 1 13 0 1 0 1
0 -46 118 -5 0 0 1 13 0 1 0 1
0 -46 118 -92 0 0 1 13 0 1 0 1
phys
0 -42 116 -7 0 0 1 13 0 1 0 1
0 -42 116 -90 0 0 1 13 0 1 0 1
0 -42 118 -92 0 0 1 13 0 1 0 1
phys
0 -42 116 -7 0 0 1 13 0 1 0 1
0 -42 118 -92 0 0 1 13 0 1 0 1
0 -42 118 -5 0 0 1 13 0 1 0 1
phys
0 -46 116 -7 0 0 1 13 0 1 0 1
0 -42 116 -7 0 0 1 13 0 1 0 1
0 -42 118 -5 0 0 1 13 0 1 0 1
phys
0 -46 116 -7 0 0 1 13 0 1 0 1
0 -42 118 -5 0 0 1 13 0 1 0 1
0 -46 118 -5 0 0 1 13 0 1 0 1
phys
0 -42 116 -90 0 0 1 13 0 1 0 1
0 -46 116 -90 0 0 1 13 0 1 0 1
0 -46 118 -92 0 0 1 13 0 1 0 1
phys
0 -42 116 -90 0 0 1 13 0 1 0 1
0 -46 118 -92 0 0 1 13 0 1 0 1
0 -42 118 -92 0 0 1 13 0 1 0 1
phys
0 -46 135 123 0 0 1 14 0 1 0 1
0 -46 183 123 0 0 1 14 0 1 0 1
0 -46 181 121 0 0 1 14 0 1 0 1
phys
0 -46 135 123 0 0 1 14 0 1 0 1
0 -46 181 121 0 0 1 14 0 1 0 1
0 -46 136.68 121 0 0 1 14 0 1 0 1
phys
0 -42 136.68 121 0 0 1 14 0 1 0 1
0 -42 181 121 0 0 1 14 0 1 0 1
0 -42 183 123 0 0 1 14 0 1 0 1
phys
0 -42 136.68 121 0 0 1 14 0 1 0 1
0 -42 183 123 0 0 1 14 0 1 0 1
0 -42 135 123 0 0 1 14 0 1 0 1
phys
0 -46 136.68 121 0 0 1 14 0 1 0 1
0 -46 181 121 0 0 1 14 0 1 0 1
0 -42 181 121 0 0 1 14 0 1 0 1
phys
0 -46 136.68 121 0 0 1 14 0 1 0 1
0 -42 181 121 0 0 1 14 0 1 0 1
0 -42 136.68 121 0 0 1 14 0 1 0 1
phys
0 -42 135 123 0 0 1 14 0 1 0 1
0 -42 183 123 0 0 1 14 0 1 0 1
0 -46 183 123 0 0 1 14 0 1 0 1
phys
0 -42 135 123 0 0 1 14 0 1 0 1
0 -46 183 123 0 0 1 14 0 1 0 1
0 -46 135 123 0 0 1 14 0 1 0 1
phys
0 -46 135 123 0 0 1 14 0 1 0 1
0 -46 136.68 121 0 0 1 14 0 1 0 1
0 -42 136.68 121 0 0 1 14 0 1 0 1
phys
0 -46 135 123 0 0 1 14 0 1 0 1
0 -42 136.68 121 0 0 1 14 0 1 0 1
0 -42 135 123 0 0 1 14 0 1 0 1
phys
0 -46 181 121 0 0 1 14 0 1 0 1
0 -46 183 123 0 0 1 14 0 1 0 1
0 -42 183 123 0 0 1 14 0 1 0 1
phys
0 -46 181 121 0 0 1 14 0 1 0 1
0 -42 183 123 0 0 1 14 0 1 0 1
0 -42 181 121 0 0 1 14 0 1 0 1
phys
0 -46 65 38 0 0 1 15 0 1 0 1
0 -46 116 38 0 0 1 15 0 1 0 1
0 -46 118 36 0 0 1 15 0 1 0 1
phys
0 -46 65 38 0 0 1 15 0 1 0 1
0 -46 118 36 0 0 1 15 0 1 0 1
0 -46 63 36 0 0 1 15 0 1 0 1
phys
0 -42 63 36 0 0 1 15 0 1 0 1
0 -42 118 36 0 0 1 15 0 1 0 1
0 -42 116 38 0 0 1 15 0 1 0 1
phys
0 -42 63 36 0 0 1 15 0 1 0 1
0 -42 116 38 0 0 1 15 0 1 0 1
0 -42 65 38 0 0 1 15 0 1 0 1
phys
0 -46 63 36 0 0 1 15 0 1 0 1
0 -46 118 36 0 0 1 15 0 1 0 1
0 -42 118 36 0 0 1 15 0 1 0 1
phys
0 -46 63 36 0 0 1 15 0 1 0 1
0 -42 118 36 0 0 1 15 0 1 0 1
0 -42 63 36 0 0 1 15 0 1 0 1
phys
0 -42 65 38 0 0 1 15 0 1 0 1
0 -42 116 38 0 0 1 15 0 1 0 1
0 -46 116 38 0 0 1 15 0 1 0 1
phys
0 -42 65 38 0 0 1 15 0 1 0 1
0 -46 116 38 0 0 1 15 0 1 0 1
0 -46 65 38 0 0 1 15 0 1 0 1
phys
0 -42 63 36 0 0 1 15 0 1 0 1
0 -42 65 38 0 0 1 15 0 1 0 1
0 -46 65 38 0 0 1 15 0 1 0 1
phys
0 -42 63 36 0 0 1 15 0 1 0 1
0 -46 65 38 0 0 1 15 0 1 0 1
0 -46 63 36 0 0 1 15 0 1 0 1
phys
0 -42 116 38 0 0 1 15 0 1 0 1
0 -42 118 36 0 0 1 15 0 1 0 1
0 -46 118 36 0 0 1 15 0 1 0 1
phys
0 -42 116 38 0 0 1 15 0 1 0 1
0 -46 118 36 0 0 1 15 0 1 0 1
0 -46 116 38 0 0 1 15 0 1 0 1
phys
0 -46 135 -5 0 0 1 16 0 1 0 1
0 -46 183 -5 0 0 1 16 0 1 0 1
0 -46 181 -7 0 0 1 16 0 1 0 1
phys
0 -46 135 -5 0 0 1 16 0 1 0 1
0 -46 181 -7 0 0 1 16 0 1 0 1
0 -46 136.68 -7 0 0 1 16 0 1 0 1
phys
0 -42 136.68 -7 0 0 1 16 0 1 0 1
0 -42 181 -7 0 0 1 16 0 1 0 1
0 -42 183 -5 0 0 1 16 0 1 0 1
phys
0 -42 136.68 -7 0 0 1 16 0 1 0 1
0 -42 183 -5 0 0 1 16 0 1 0 1
0 -42 135 -5 0 0 1 16 0 1 0 1
phys
0 -46 136.68 -7 0 0 1 16 0 1 0 1
0 -46 181 -7 0 0 1 16 0 1 0 1
0 -42 181 -7 0 0 1 16 0 1 0 1
phys
0 -46 136.68 -7 0 0 1 16 0 1 0 1
0 -42 181 -7 0 0 1 16 0 1 0 1
0 -42 136.68 -7 0 0 1 16 0 1 0 1
phys
0 -42 135 -5 0 0 1 16 0 1 0 1
0 -42 183 -5 0 0 1 16 0 1 0 1
0 -46 183 -5 0 0 1 16 0 1 0 1
phys
0 -42 135 -5 0 0 1 16 0 1 0 1
0 -46 183 -5 0 0 1 16 0 1 0 1
0 -46 135 -5 0 0 1 16 0 1 0 1
phys
0 -46 135 -5 0 0 1 16 0 1 0 1
0 -46 136.68 -7 0 0 1 16 0 1 0 1
0 -42 136.68 -7 0 0 1 16 0 1 0 1
phys
0 -46 135 -5 0 0 1 16 0 1 0 1
0 -42 136.68 -7 0 0 1 16 0 1 0 1
0 -42 135 -5 0 0 1 16 0 1 0 1
phys
0 -46 181 -7 0 0 1 16 0 1 0 1
0 -46 183 -5 0 0 1 16 0 1 0 1
0 -42 183 -5 0 0 1 16 0 1 0 1
phys
0 -46 181 -7 0 0 1 16 0 1 0 1
0 -42 183 -5 0 0 1 16 0 1 0 1
0 -42 181 -7 0 0 1 16 0 1 0 1
phys
0 -30 46 -252 0 0 1 17 0 1 0 1
0 -46 46 -252 0 0 1 17 0 1 0 1
0 -46 46 -140 0 0 1 17 0 1 0 1
phys
0 -30 46 -252 0 0 1 17 0 1 0 1
0 -46 46 -140 0 0 1 17 0 1 0 1
0 -30 46 -140 0 0 1 17 0 1 0 1
phys
0 -46 46 -252 0 0 1 17 0 1 0 1
0 -30 46 -252 0 0 1 17 0 1 0 1
0 -11 27 -252 0 0 1 17 0 1 0 1
phys
0 -46 46 -252 0 0 1 17 0 1 0 1
0 -11 27 -252 0 0 1 17 0 1 0 1
0 -19 19 -252 0 0 1 17 0 1 0 1
phys
0 -19 19 -140 0 0 1 17 0 1 0 1
0 -11 27 -140 0 0 1 17 0 1 0 1
0 -30 46 -140 0 0 1 17 0 1 0 1
phys
0 -19 19 -140 0 0 1 17 0 1 0 1
0 -30 46 -140 0 0 1 17 0 1 0 1
0 -46 46 -140 0 0 1 17 0 1 0 1
phys
0 -19 19 -252 0 0 1 17 0 1 0 1
0 -11 27 -252 0 0 1 17 0 1 0 1
0 -11 27 -140 0 0 1 17 0 1 0 1
phys
0 -19 19 -252 0 0 1 17 0 1 0 1
0 -11 27 -140 0 0 1 17 0 1 0 1
0 -19 19 -140 0 0 1 17 0 1 0 1
phys
0 -19 19 -140 0 0 1 17 0 1 0 1
0 -46 46 -140 0 0 1 17 0 1 0 1
0 -46 46 -252 0 0 1 17 0 1 0 1
phys
0 -19 19 -140 0 0 1 17 0 1 0 1
0 -46 46 -252 0 0 1 17 0 1 0 1
0 -19 19 -252 0 0 1 17 0 1 0 1
phys
0 -11 27 -252 0 0 1 17 0 1 0 1
0 -30 46 -252 0 0 1 17 0 1 0 1
0 -30 46 -140 0 0 1 17 0 1 0 1
phys
0 -11 27 -252 0 0 1 17 0 1 0 1
0 -30 46 -140 0 0 1 17 0 1 0 1
0 -11 27 -140 0 0 1 17 0 1 0 1
phys
0 24.106478 -10.753603 -143.719 0 0 1 18 0 1 0 1
0 17.7 -17.08 -143.719 0 0 1 18 0 1 0 1
0 -16.212146 16.797892 -143.719 0 0 1 18 0 1 0 1
phys
0 24.106478 -10.753603 -143.719 0 0 1 18 0 1 0 1
0 -16.212146 16.797892 -143.719 0 0 1 18 0 1 0 1
0 -9.810013 23.180018 -143.719 0 0 1 18 0 1 0 1
phys
0 20.6 -19.92 -139.719 0 0 1 18 0 1 0 1
0 27 -13.6 -139.719 0 0 1 18 0 1 0 1
0 -12.6 26.02 -139.719 0 0 1 18 0 1 0 1
phys
0 20.6 -19.92 -139.719 0 0 1 18 0 1 0 1
0 -12.6 26.02 -139.719 0 0 1 18 0 1 0 1
0 -19 19.64 -139.719 0 0 1 18 0 1 0 1
phys
0 17.7 -17.08 -143.719 0 0 1 18 0 1 0 1
0 24.106478 -10.753603 -143.719 0 0 1 18 0 1 0 1
0 27 -13.6 -139.719 0 0 1 18 0 1 0 1
phys
0 17.7 -17.08 -143.719 0 0 1 18 0 1 0 1
0 27 -13.6 -139.719 0 0 1 18 0 1 0 1
0 20.6 -19.92 -139.719 0 0 1 18 0 1 0 1
phys
0 -19 19.64 -139.719 0 0 1 18 0 1 0 1
0 -12.6 26.02 -139.719 0 0 1 18 0 1 0 1
0 -9.810013 23.180018 -143.719 0 0 1 18 0 1 0 1
phys
0 -19 19.64 -139.719 0 0 1 18 0 1 0 1
0 -9.810013 23.180018 -143.719 0 0 1 18 0 1 0 1
0 -16.212146 16.797892 -143.719 0 0 1 18 0 1 0 1
phys
0 24.106478 -10.753603 -143.719 0 0 1 18 0 1 0 1
0 -9.810013 23.180018 -143.719 0 0 1 18 0 1 0 1
0 -12.6 26.02 -139.719 0 0 1 18 0 1 0 1
phys
0 24.106478 -10.753603 -143.719 0 0 1 18 0 1 0 1
0 -12.6 26.02 -139.719 0 0 1 18 0 1 0 1
0 27 -13.6 -139.719 0 0 1 18 0 1 0 1
phys
0 20.6 -19.92 -139.719 0 0 1 18 0 1 0 1
0 -19 19.64 -139.719 0 0 1 18 0 1 0 1
0 -16.212146 16.797892 -143.719 0 0 1 18 0 1 0 1
phys
0 20.6 -19.92 -139.719 0 0 1 18 0 1 0 1
0 -16.212146 16.797892 -143.719 0 0 1 18 0 1 0 1
0 17.7 -17.08 -143.719 0 0 1 18 0 1 0 1
phys
0 -46 63 -133 0 0 1 19 0 1 0 1
0 -46 65 -135 0 0 1 19 0 1 0 1
0 -42 65 -135 0 0 1 19 0 1 0 1
phys
0 -46 63 -133 0 0 1 19 0 1 0 1
0 -42 65 -135 0 0 1 19 0 1 0 1
0 -42 63 -133 0 0 1 19 0 1 0 1
phys
0 -46 125 -135 0 0 1 19 0 1 0 1
0 -46 127 -133 0 0 1 19 0 1 0 1
0 -42 127 -133 0 0 1 19 0 1 0 1
phys
0 -46 125 -135 0 0 1 19 0 1 0 1
0 -42 127 -133 0 0 1 19 0 1 0 1
0 -42 125 -135 0 0 1 19 0 1 0 1
phys
0 -46 65 -135 0 0 1 19 0 1 0 1
0 -46 63 -133 0 0 1 19 0 1 0 1
0 -46 127 -133 0 0 1 19 0 1 0 1
phys
0 -46 65 -135 0 0 1 19 0 1 0 1
0 -46 127 -133 0 0 1 19 0 1 0 1
0 -46 125 -135 0 0 1 19 0 1 0 1
phys
0 -42 63 -133 0 0 1 19 0 1 0 1
0 -42 65 -135 0 0 1 19 0 1 0 1
0 -42 125 -135 0 0 1 19 0 1 0 1
phys
0 -42 63 -133 0 0 1 19 0 1 0 1
0 -42 125 -135 0 0 1 19 0 1 0 1
0 -42 127 -133 0 0 1 19 0 1 0 1
phys
0 -42 65 -135 0 0 1 19 0 1 0 1
0 -46 65 -135 0 0 1 19 0 1 0 1
0 -46 125 -135 0 0 1 19 0 1 0 1
phys
0 -42 65 -135 0 0 1 19 0 1 0 1
0 -46 125 -135 0 0 1 19 0 1 0 1
0 -42 125 -135 0 0 1 19 0 1 0 1
phys
0 -46 63 -133 0 0 1 19 0 1 0 1
0 -42 63 -133 0 0 1 19 0 1 0 1
0 -42 127 -133 0 0 1 19 0 1 0 1
phys
0 -46 63 -133 0 0 1 19 0 1 0 1
0 -42 127 -133 0 0 1 19 0 1 0 1
0 -46 127 -133 0 0 1 19 0 1 0 1
phys
0 191 72 -88.001 0 0 1 20 0 1 0 1
0 191 72 -72 0 0 1 20 0 1 0 1
0 144 72 -72 0 0 1 20 0 1 0 1
phys
0 191 72 -88.001 0 0 1 20 0 1 0 1
0 144 72 -72 0 0 1 20 0 1 0 1
0 144 72 -88.001 0 0 1 20 0 1 0 1
phys
0 144 72 -88.001 0 0 1 20 0 1 0 1
0 144 72 -72 0 0 1 20 0 1 0 1
0 144 88 -72 0 0 1 20 0 1 0 1
phys
0 191 72 -72 0 0 1 20 0 1 0 1
0 191 72 -88.001 0 0 1 20 0 1 0 1
0 191 88 -72 0 0 1 20 0 1 0 1
phys
0 144 72 -72 0 0 1 20 0 1 0 1
0 191 72 -72 0 0 1 20 0 1 0 1
0 191 88 -72 0 0 1 20 0 1 0 1
phys
0 144 72 -72 0 0 1 20 0 1 0 1
0 191 88 -72 0 0 1 20 0 1 0 1
0 144 88 -72 0 0 1 20 0 1 0 1
phys
0 191 72 -88.001 0 0 1 20 0 1 0 1
0 144 72 -88.001 0 0 1 20 0 1 0 1
0 144 88 -72 0 0 1 20 0 1 0 1
phys
0 191 72 -88.001 0 0 1 20 0 1 0 1
0 144 88 -72 0 0 1 20 0 1 0 1
0 191 88 -72 0 0 1 20 0 1 0 1
phys
0 92 -42 35.9988 0 0 1 21 0 1 0 1
0 94 -42 37.9988 0 0 1 21 0 1 0 1
0 94 -46 37.9988 0 0 1 21 0 1 0 1
phys
0 92 -42 35.9988 0 0 1 21 0 1 0 1
0 94 -46 37.9988 0 0 1 21 0 1 0 1
0 92 -46 35.9988 0 0 1 21 0 1 0 1
phys
0 92 -46 123.001071 0 0 1 21 0 1 0 1
0 94 -46 121.00107 0 0 1 21 0 1 0 1
0 94 -42 121.00107 0 0 1 21 0 1 0 1
phys
0 92 -46 123.001071 0 0 1 21 0 1 0 1
0 94 -42 121.00107 0 0 1 21 0 1 0 1
0 92 -42 123.001071 0 0 1 21 0 1 0 1
phys
0 92 -42 123.001071 0 0 1 21 0 1 0 1
0 94 -42 121.00107 0 0 1 21 0 1 0 1
0 94 -42 37.9988 0 0 1 21 0 1 0 1
phys
0 92 -42 123.001071 0 0 1 21 0 1 0 1
0 94 -42 37.9988 0 0 1 21 0 1 0 1
0 92 -42 35.9988 0 0 1 21 0 1 0 1
phys
0 92 -46 35.9988 0 0 1 21 0 1 0 1
0 94 -46 37.9988 0 0 1 21 0 1 0 1
0 94 -46 121.00107 0 0 1 21 0 1 0 1
phys
0 92 -46 35.9988 0 0 1 21 0 1 0 1
0 94 -46 121.00107 0 0 1 21 0 1 0 1
0 92 -46 123.001071 0 0 1 21 0 1 0 1
phys
0 92 -46 123.001071 0 0 1 21 0 1 0 1
0 92 -42 123.001071 0 0 1 21 0 1 0 1
0 92 -42 35.9988 0 0 1 21 0 1 0 1
phys
0 92 -46 123.001071 0 0 1 21 0 1 0 1
0 92 -42 35.9988 0 0 1 21 0 1 0 1
0 92 -46 35.9988 0 0 1 21 0 1 0 1
phys
0 94 -46 37.9988 0 0 1 21 0 1 0 1
0 94 -42 37.9988 0 0 1 21 0 1 0 1
0 94 -42 121.00107 0 0 1 21 0 1 0 1
phys
0 94 -46 37.9988 0 0 1 21 0 1 0 1
0 94 -42 121.00107 0 0 1 21 0 1 0 1
0 94 -46 121.00107 0 0 1 21 0 1 0 1
phys
0 -181 -248 -252 0 0 1 22 0 1 0 1
0 -171 -238 -252 0 0 1 22 0 1 0 1
0 -171 -238 -256 0 0 1 22 0 1 0 1
phys
0 -181 -248 -252 0 0 1 22 0 1 0 1
0 -171 -238 -256 0 0 1 22 0 1 0 1
0 -181 -248 -256 0 0 1 22 0 1 0 1
phys
0 -159 -266 -256 0 0 1 22 0 1 0 1
0 -151 -256 -256 0 0 1 22 0 1 0 1
0 -151 -256 -252 0 0 1 22 0 1 0 1
phys
0 -159 -266 -256 0 0 1 22 0 1 0 1
0 -151 -256 -252 0 0 1 22 0 1 0 1
0 -159 -266 -252 0 0 1 22 0 1 0 1
phys
0 -181 -248 -256 0 0 1 22 0 1 0 1
0 -171 -238 -256 0 0 1 22 0 1 0 1
0 -151 -256 -256 0 0 1 22 0 1 0 1
phys
0 -181 -248 -256 0 0 1 22 0 1 0 1
0 -151 -256 -256 0 0 1 22 0 1 0 1
0 -159 -266 -256 0 0 1 22 0 1 0 1
phys
0 -159 -266 -252 0 0 1 22 0 1 0 1
0 -151 -256 -252 0 0 1 22 0 1 0 1
0 -171 -238 -252 0 0 1 22 0 1 0 1
phys
0 -159 -266 -252 0 0 1 22 0 1 0 1
0 -171 -238 -252 0 0 1 22 0 1 0 1
0 -181 -248 -252 0 0 1 22 0 1 0 1
phys
0 -159 -266 -256 0 0 1 22 0 1 0 1
0 -159 -266 -252 0 0 1 22 0 1 0 1
0 -181 -248 -252 0 0 1 22 0 1 0 1
phys
0 -159 -266 -256 0 0 1 22 0 1 0 1
0 -181 -248 -252 0 0 1 22 0 1 0 1
0 -181 -248 -256 0 0 1 22 0 1 0 1
phys
0 -151 -256 -252 0 0 1 22 0 1 0 1
0 -151 -256 -256 0 0 1 22 0 1 0 1
0 -171 -238 -256 0 0 1 22 0 1 0 1
phys
0 -151 -256 -252 0 0 1 22 0 1 0 1
0 -171 -238 -256 0 0 1 22 0 1 0 1
0 -171 -238 -252 0 0 1 22 0 1 0 1
phys
0 -213 -200 -252 0 0 1 23 0 1 0 1
0 -201 -194 -252 0 0 1 23 0 1 0 1
0 -201 -194 -256 0 0 1 23 0 1 0 1
phys
0 -213 -200 -252 0 0 1 23 0 1 0 1
0 -201 -194 -256 0 0 1 23 0 1 0 1
0 -213 -200 -256 0 0 1 23 0 1 0 1
phys
0 -199 -226 -256 0 0 1 23 0 1 0 1
0 -189 -218 -256 0 0 1 23 0 1 0 1
0 -189 -218 -252 0 0 1 23 0 1 0 1
phys
0 -199 -226 -256 0 0 1 23 0 1 0 1
0 -189 -218 -252 0 0 1 23 0 1 0 1
0 -199 -226 -252 0 0 1 23 0 1 0 1
phys
0 -213 -200 -256 0 0 1 23 0 1 0 1
0 -201 -194 -256 0 0 1 23 0 1 0 1
0 -189 -218 -256 0 0 1 23 0 1 0 1
phys
0 -213 -200 -256 0 0 1 23 0 1 0 1
0 -189 -218 -256 0 0 1 23 0 1 0 1
0 -199 -226 -256 0 0 1 23 0 1 0 1
phys
0 -199 -226 -252 0 0 1 23 0 1 0 1
0 -189 -218 -252 0 0 1 23 0 1 0 1
0 -201 -194 -252 0 0 1 23 0 1 0 1
phys
0 -199 -226 -252 0 0 1 23 0 1 0 1
0 -201 -194 -252 0 0 1 23 0 1 0 1
0 -213 -200 -252 0 0 1 23 0 1 0 1
phys
0 -199 -226 -256 0 0 1 23 0 1 0 1
0 -199 -226 -252 0 0 1 23 0 1 0 1
0 -213 -200 -252 0 0 1 23 0 1 0 1
phys
0 -199 -226 -256 0 0 1 23 0 1 0 1
0 -213 -200 -252 0 0 1 23 0 1 0 1
0 -213 -200 -256 0 0 1 23 0 1 0 1
phys
0 -189 -218 -252 0 0 1 23 0 1 0 1
0 -189 -218 -256 0 0 1 23 0 1 0 1
0 -201 -194 -256 0 0 1 23 0 1 0 1
phys
0 -189 -218 -252 0 0 1 23 0 1 0 1
0 -201 -194 -256 0 0 1 23 0 1 0 1
0 -201 -194 -252 0 0 1 23 0 1 0 1
phys
0 188 33 20.001 0 0 1 24 0 1 0 1
0 188 33 36 0 0 1 24 0 1 0 1
0 132 33 36 0 0 1 24 0 1 0 1
phys
0 188 33 20.001 0 0 1 24 0 1 0 1
0 132 33 36 0 0 1 24 0 1 0 1
0 132 33 20.001 0 0 1 24 0 1 0 1
phys
0 132 33 20.001 0 0 1 24 0 1 0 1
0 132 33 36 0 0 1 24 0 1 0 1
0 132 49 36 0 0 1 24 0 1 0 1
phys
0 188 33 36 0 0 1 24 0 1 0 1
0 188 33 20.001 0 0 1 24 0 1 0 1
0 188 49 36 0 0 1 24 0 1 0 1
phys
0 132 33 36 0 0 1 24 0 1 0 1
0 188 33 36 0 0 1 24 0 1 0 1
0 188 49 36 0 0 1 24 0 1 0 1
phys
0 132 33 36 0 0 1 24 0 1 0 1
0 188 49 36 0 0 1 24 0 1 0 1
0 132 49 36 0 0 1 24 0 1 0 1
phys
0 188 33 20.001 0 0 1 24 0 1 0 1
0 132 33 20.001 0 0 1 24 0 1 0 1
0 132 49 36 0 0 1 24 0 1 0 1
phys
0 188 33 20.001 0 0 1 24 0 1 0 1
0 132 49 36 0 0 1 24 0 1 0 1
0 188 49 36 0 0 1 24 0 1 0 1
phys
0 191 170 -148 0 0 1 25 0 1 0 1
0 191 170 -132 0 0 1 25 0 1 0 1
0 144 170 -132 0 0 1 25 0 1 0 1
phys
0 191 170 -148 0 0 1 25 0 1 0 1
0 144 170 -132 0 0 1 25 0 1 0 1
0 144 170 -148 0 0 1 25 0 1 0 1
phys
0 144 170 -148 0 0 1 25 0 1 0 1
0 144 170 -132 0 0 1 25 0 1 0 1
0 144 186 -132 0 0 1 25 0 1 0 1
phys
0 191 170 -132 0 0 1 25 0 1 0 1
0 191 170 -148 0 0 1 25 0 1 0 1
0 191 186 -132 0 0 1 25 0 1 0 1
phys
0 144 170 -132 0 0 1 25 0 1 0 1
0 191 170 -132 0 0 1 25 0 1 0 1
0 191 186 -132 0 0 1 25 0 1 0 1
phys
0 144 170 -132 0 0 1 25 0 1 0 1
0 191 186 -132 0 0 1 25 0 1 0 1
0 144 186 -132 0 0 1 25 0 1 0 1
phys
0 191 170 -148 0 0 1 25 0 1 0 1
0 144 170 -148 0 0 1 25 0 1 0 1
0 144 186 -132 0 0 1 25 0 1 0 1
phys
0 191 170 -148 0 0 1 25 0 1 0 1
0 144 186 -132 0 0 1 25 0 1 0 1
0 191 186 -132 0 0 1 25 0 1 0 1
phys
0 -42 200 35.9999 0 0 1 26 0 1 0 1
0 -46 200 35.9999 0 0 1 26 0 1 0 1
0 -46 202 37.9999 0 0 1 26 0 1 0 1
phys
0 -42 200 35.9999 0 0 1 26 0 1 0 1
0 -46 202 37.9999 0 0 1 26 0 1 0 1
0 -42 202 37.9999 0 0 1 26 0 1 0 1
phys
0 -42 202 121.00026 0 0 1 26 0 1 0 1
0 -42 202 37.9999 0 0 1 26 0 1 0 1
0 -46 202 37.9999 0 0 1 26 0 1 0 1
phys
0 -42 202 121.00026 0 0 1 26 0 1 0 1
0 -46 202 37.9999 0 0 1 26 0 1 0 1
0 -46 202 121.00026 0 0 1 26 0 1 0 1
phys
0 -46 200 123.000264 0 0 1 26 0 1 0 1
0 -46 200 35.9999 0 0 1 26 0 1 0 1
0 -42 200 35.9999 0 0 1 26 0 1 0 1
phys
0 -46 200 123.000264 0 0 1 26 0 1 0 1
0 -42 200 35.9999 0 0 1 26 0 1 0 1
0 -42 200 123.000264 0 0 1 26 0 1 0 1
phys
0 -46 202 121.00026 0 0 1 26 0 1 0 1
0 -46 202 37.9999 0 0 1 26 0 1 0 1
0 -46 200 35.9999 0 0 1 26 0 1 0 1
phys
0 -46 202 121.00026 0 0 1 26 0 1 0 1
0 -46 200 35.9999 0 0 1 26 0 1 0 1
0 -46 200 123.000264 0 0 1 26 0 1 0 1
phys
0 -42 200 123.000264 0 0 1 26 0 1 0 1
0 -42 200 35.9999 0 0 1 26 0 1 0 1
0 -42 202 37.9999 0 0 1 26 0 1 0 1
phys
0 -42 200 123.000264 0 0 1 26 0 1 0 1
0 -42 202 37.9999 0 0 1 26 0 1 0 1
0 -42 202 121.00026 0 0 1 26 0 1 0 1
phys
0 -46 200 123.000264 0 0 1 26 0 1 0 1
0 -42 200 123.000264 0 0 1 26 0 1 0 1
0 -42 202 121.00026 0 0 1 26 0 1 0 1
phys
0 -46 200 123.000264 0 0 1 26 0 1 0 1
0 -42 202 121.00026 0 0 1 26 0 1 0 1
0 -46 202 121.00026 0 0 1 26 0 1 0 1
phys
0 46 -46 -252 0 0 1 27 0 1 0 1
0 46 -30 -252 0 0 1 27 0 1 0 1
0 46 -30 -140 0 0 1 27 0 1 0 1
phys
0 46 -46 -252 0 0 1 27 0 1 0 1
0 46 -30 -140 0 0 1 27 0 1 0 1
0 46 -46 -140 0 0 1 27 0 1 0 1
phys
0 28 -12 -252 0 0 1 27 0 1 0 1
0 46 -30 -252 0 0 1 27 0 1 0 1
0 46 -46 -252 0 0 1 27 0 1 0 1
phys
0 28 -12 -252 0 0 1 27 0 1 0 1
0 46 -46 -252 0 0 1 27 0 1 0 1
0 20 -20 -252 0 0 1 27 0 1 0 1
phys
0 20 -20 -140 0 0 1 27 0 1 0 1
0 46 -46 -140 0 0 1 27 0 1 0 1
0 46 -30 -140 0 0 1 27 0 1 0 1
phys
0 20 -20 -140 0 0 1 27 0 1 0 1
0 46 -30 -140 0 0 1 27 0 1 0 1
0 28 -12 -140 0 0 1 27 0 1 0 1
phys
0 46 -46 -252 0 0 1 27 0 1 0 1
0 46 -46 -140 0 0 1 27 0 1 0 1
0 20 -20 -140 0 0 1 27 0 1 0 1
phys
0 46 -46 -252 0 0 1 27 0 1 0 1
0 20 -20 -140 0 0 1 27 0 1 0 1
0 20 -20 -252 0 0 1 27 0 1 0 1
phys
0 46 -30 -140 0 0 1 27 0 1 0 1
0 46 -30 -252 0 0 1 27 0 1 0 1
0 28 -12 -252 0 0 1 27 0 1 0 1
phys
0 46 -30 -140 0 0 1 27 0 1 0 1
0 28 -12 -252 0 0 1 27 0 1 0 1
0 28 -12 -140 0 0 1 27 0 1 0 1
phys
0 20 -20 -140 0 0 1 27 0 1 0 1
0 28 -12 -140 0 0 1 27 0 1 0 1
0 28 -12 -252 0 0 1 27 0 1 0 1
phys
0 20 -20 -140 0 0 1 27 0 1 0 1
0 28 -12 -252 0 0 1 27 0 1 0 1
0 20 -20 -252 0 0 1 27 0 1 0 1
phys
0 188 81 68.0008 0 0 1 28 0 1 0 1
0 188 81 84 0 0 1 28 0 1 0 1
0 132 81 84 0 0 1 28 0 1 0 1
phys
0 188 81 68.0008 0 0 1 28 0 1 0 1
0 132 81 84 0 0 1 28 0 1 0 1
0 132 81 68.0008 0 0 1 28 0 1 0 1
phys
0 132 81 68.0008 0 0 1 28 0 1 0 1
0 132 81 84 0 0 1 28 0 1 0 1
0 132 97 84 0 0 1 28 0 1 0 1
phys
0 188 81 84 0 0 1 28 0 1 0 1
0 188 81 68.0008 0 0 1 28 0 1 0 1
0 188 97 84 0 0 1 28 0 1 0 1
phys
0 132 81 84 0 0 1 28 0 1 0 1
0 188 81 84 0 0 1 28 0 1 0 1
0 188 97 84 0 0 1 28 0 1 0 1
phys
0 132 81 84 0 0 1 28 0 1 0 1
0 188 97 84 0 0 1 28 0 1 0 1
0 132 97 84 0 0 1 28 0 1 0 1
phys
0 188 81 68.0008 0 0 1 28 0 1 0 1
0 132 81 68.0008 0 0 1 28 0 1 0 1
0 132 97 84 0 0 1 28 0 1 0 1
phys
0 188 81 68.0008 0 0 1 28 0 1 0 1
0 132 97 84 0 0 1 28 0 1 0 1
0 188 97 84 0 0 1 28 0 1 0 1
phys
0 -46 200 -5 0 0 1 29 0 1 0 1
0 -46 255 -5 0 0 1 29 0 1 0 1
0 -46 253 -7 0 0 1 29 0 1 0 1
phys
0 -46 200 -5 0 0 1 29 0 1 0 1
0 -46 253 -7 0 0 1 29 0 1 0 1
0 -46 202 -7 0 0 1 29 0 1 0 1
phys
0 -42 202 -7 0 0 1 29 0 1 0 1
0 -42 253 -7 0 0 1 29 0 1 0 1
0 -42 255 -5 0 0 1 29 0 1 0 1
phys
0 -42 202 -7 0 0 1 29 0 1 0 1
0 -42 255 -5 0 0 1 29 0 1 0 1
0 -42 200 -5 0 0 1 29 0 1 0 1
phys
0 -46 202 -7 0 0 1 29 0 1 0 1
0 -46 253 -7 0 0 1 29 0 1 0 1
0 -42 253 -7 0 0 1 29 0 1 0 1
phys
0 -46 202 -7 0 0 1 29 0 1 0 1
0 -42 253 -7 0 0 1 29 0 1 0 1
0 -42 202 -7 0 0 1 29 0 1 0 1
phys
0 -42 200 -5 0 0 1 29 0 1 0 1
0 -42 255 -5 0 0 1 29 0 1 0 1
0 -46 255 -5 0 0 1 29 0 1 0 1
phys
0 -42 200 -5 0 0 1 29 0 1 0 1
0 -46 255 -5 0 0 1 29 0 1 0 1
0 -46 200 -5 0 0 1 29 0 1 0 1
phys
0 -46 200 -5 0 0 1 29 0 1 0 1
0 -46 202 -7 0 0 1 29 0 1 0 1
0 -42 202 -7 0 0 1 29 0 1 0 1
phys
0 -46 200 -5 0 0 1 29 0 1 0 1
0 -42 202 -7 0 0 1 29 0 1 0 1
0 -42 200 -5 0 0 1 29 0 1 0 1
phys
0 -46 253 -7 0 0 1 29 0 1 0 1
0 -46 255 -5 0 0 1 29 0 1 0 1
0 -42 255 -5 0 0 1 29 0 1 0 1
phys
0 -46 253 -7 0 0 1 29 0 1 0 1
0 -42 255 -5 0 0 1 29 0 1 0 1
0 -42 253 -7 0 0 1 29 0 1 0 1
phys
0 -42 183 122.99986 0 0 1 30 0 1 0 1
0 -42 183 36.0003 0 0 1 30 0 1 0 1
0 -46 183 36.0003 0 0 1 30 0 1 0 1
phys
0 -42 183 122.99986 0 0 1 30 0 1 0 1
0 -46 183 36.0003 0 0 1 30 0 1 0 1
0 -46 183 122.99986 0 0 1 30 0 1 0 1
phys
0 -42 181 38.0003 0 0 1 30 0 1 0 1
0 -42 181 120.99986 0 0 1 30 0 1 0 1
0 -46 181 120.99986 0 0 1 30 0 1 0 1
phys
0 -42 181 38.0003 0 0 1 30 0 1 0 1
0 -46 181 120.99986 0 0 1 30 0 1 0 1
0 -46 181 38.0003 0 0 1 30 0 1 0 1
phys
0 -46 181 38.0003 0 0 1 30 0 1 0 1
0 -46 181 120.99986 0 0 1 30 0 1 0 1
0 -46 183 122.99986 0 0 1 30 0 1 0 1
phys
0 -46 181 38.0003 0 0 1 30 0 1 0 1
0 -46 183 122.99986 0 0 1 30 0 1 0 1
0 -46 183 36.0003 0 0 1 30 0 1 0 1
phys
0 -42 181 120.99986 0 0 1 30 0 1 0 1
0 -42 181 38.0003 0 0 1 30 0 1 0 1
0 -42 183 36.0003 0 0 1 30 0 1 0 1
phys
0 -42 181 120.99986 0 0 1 30 0 1 0 1
0 -42 183 36.0003 0 0 1 30 0 1 0 1
0 -42 183 122.99986 0 0 1 30 0 1 0 1
phys
0 -46 181 120.99986 0 0 1 30 0 1 0 1
0 -42 181 120.99986 0 0 1 30 0 1 0 1
0 -42 183 122.99986 0 0 1 30 0 1 0 1
phys
0 -46 181 120.99986 0 0 1 30 0 1 0 1
0 -42 183 122.99986 0 0 1 30 0 1 0 1
0 -46 183 122.99986 0 0 1 30 0 1 0 1
phys
0 -42 181 38.0003 0 0 1 30 0 1 0 1
0 -46 181 38.0003 0 0 1 30 0 1 0 1
0 -46 183 36.0003 0 0 1 30 0 1 0 1
phys
0 -42 181 38.0003 0 0 1 30 0 1 0 1
0 -46 183 36.0003 0 0 1 30 0 1 0 1
0 -42 183 36.0003 0 0 1 30 0 1 0 1
phys
0 191 104 -56.001 0 0 1 31 0 1 0 1
0 191 120 -40 0 0 1 31 0 1 0 1
0 191 104 -40 0 0 1 31 0 1 0 1
phys
0 144 104 -40 0 0 1 31 0 1 0 1
0 191 104 -40 0 0 1 31 0 1 0 1
0 191 120 -40 0 0 1 31 0 1 0 1
phys
0 144 104 -40 0 0 1 31 0 1 0 1
0 191 120 -40 0 0 1 31 0 1 0 1
0 144 120 -40 0 0 1 31 0 1 0 1
phys
0 144 120 -40 0 0 1 31 0 1 0 1
0 191 120 -40 0 0 1 31 0 1 0 1
0 191 104 -56.001 0 0 1 31 0 1 0 1
phys
0 144 120 -40 0 0 1 31 0 1 0 1
0 191 104 -56.001 0 0 1 31 0 1 0 1
0 144 104 -56.001 0 0 1 31 0 1 0 1
phys
0 191 104 -56.001 0 0 1 31 0 1 0 1
0 191 104 -40 0 0 1 31 0 1 0 1
0 144 104 -40 0 0 1 31 0 1 0 1
phys
0 191 104 -56.001 0 0 1 31 0 1 0 1
0 144 104 -40 0 0 1 31 0 1 0 1
0 144 104 -56.001 0 0 1 31 0 1 0 1
phys
0 144 104 -40 0 0 1 31 0 1 0 1
0 144 120 -40 0 0 1 31 0 1 0 1
0 144 104 -56.001 0 0 1 31 0 1 0 1
phys
0 -42 135 35.9999 0 0 1 32 0 1 0 1
0 -46 135 35.9999 0 0 1 32 0 1 0 1
0 -46 137 37.9999 0 0 1 32 0 1 0 1
phys
0 -42 135 35.9999 0 0 1 32 0 1 0 1
0 -46 137 37.9999 0 0 1 32 0 1 0 1
0 -42 137 37.9999 0 0 1 32 0 1 0 1
phys
0 -42 137 121.0003 0 0 1 32 0 1 0 1
0 -42 137 37.9999 0 0 1 32 0 1 0 1
0 -46 137 37.9999 0 0 1 32 0 1 0 1
phys
0 -42 137 121.0003 0 0 1 32 0 1 0 1
0 -46 137 37.9999 0 0 1 32 0 1 0 1
0 -46 137 121.0003 0 0 1 32 0 1 0 1
phys
0 -46 135 123.000305 0 0 1 32 0 1 0 1
0 -46 135 35.9999 0 0 1 32 0 1 0 1
0 -42 135 35.9999 0 0 1 32 0 1 0 1
phys
0 -46 135 123.000305 0 0 1 32 0 1 0 1
0 -42 135 35.9999 0 0 1 32 0 1 0 1
0 -42 135 123.000305 0 0 1 32 0 1 0 1
phys
0 -46 137 121.0003 0 0 1 32 0 1 0 1
0 -46 137 37.9999 0 0 1 32 0 1 0 1
0 -46 135 35.9999 0 0 1 32 0 1 0 1
phys
0 -46 137 121.0003 0 0 1 32 0 1 0 1
0 -46 135 35.9999 0 0 1 32 0 1 0 1
0 -46 135 123.000305 0 0 1 32 0 1 0 1
phys
0 -42 135 123.000305 0 0 1 32 0 1 0 1
0 -42 135 35.9999 0 0 1 32 0 1 0 1
0 -42 137 37.9999 0 0 1 32 0 1 0 1
phys
0 -42 135 123.000305 0 0 1 32 0 1 0 1
0 -42 137 37.9999 0 0 1 32 0 1 0 1
0 -42 137 121.0003 0 0 1 32 0 1 0 1
phys
0 -46 135 123.000305 0 0 1 32 0 1 0 1
0 -42 135 123.000305 0 0 1 32 0 1 0 1
0 -42 137 121.0003 0 0 1 32 0 1 0 1
phys
0 -46 135 123.000305 0 0 1 32 0 1 0 1
0 -42 137 121.0003 0 0 1 32 0 1 0 1
0 -46 137 121.0003 0 0 1 32 0 1 0 1
phys
0 -46 137 38 0 0 1 33 0 1 0 1
0 -46 181 38 0 0 1 33 0 1 0 1
0 -46 183 36 0 0 1 33 0 1 0 1
phys
0 -46 137 38 0 0 1 33 0 1 0 1
0 -46 183 36 0 0 1 33 0 1 0 1
0 -46 135 36 0 0 1 33 0 1 0 1
phys
0 -42 135 36 0 0 1 33 0 1 0 1
0 -42 183 36 0 0 1 33 0 1 0 1
0 -42 181 38 0 0 1 33 0 1 0 1
phys
0 -42 135 36 0 0 1 33 0 1 0 1
0 -42 181 38 0 0 1 33 0 1 0 1
0 -42 137 38 0 0 1 33 0 1 0 1
phys
0 -46 135 36 0 0 1 33 0 1 0 1
0 -46 183 36 0 0 1 33 0 1 0 1
0 -42 183 36 0 0 1 33 0 1 0 1
phys
0 -46 135 36 0 0 1 33 0 1 0 1
0 -42 183 36 0 0 1 33 0 1 0 1
0 -42 135 36 0 0 1 33 0 1 0 1
phys
0 -42 137 38 0 0 1 33 0 1 0 1
0 -42 181 38 0 0 1 33 0 1 0 1
0 -46 181 38 0 0 1 33 0 1 0 1
phys
0 -42 137 38 0 0 1 33 0 1 0 1
0 -46 181 38 0 0 1 33 0 1 0 1
0 -46 137 38 0 0 1 33 0 1 0 1
phys
0 -42 135 36 0 0 1 33 0 1 0 1
0 -42 137 38 0 0 1 33 0 1 0 1
0 -46 137 38 0 0 1 33 0 1 0 1
phys
0 -42 135 36 0 0 1 33 0 1 0 1
0 -46 137 38 0 0 1 33 0 1 0 1
0 -46 135 36 0 0 1 33 0 1 0 1
phys
0 -42 181 38 0 0 1 33 0 1 0 1
0 -42 183 36 0 0 1 33 0 1 0 1
0 -46 183 36 0 0 1 33 0 1 0 1
phys
0 -42 181 38 0 0 1 33 0 1 0 1
0 -46 183 36 0 0 1 33 0 1 0 1
0 -46 181 38 0 0 1 33 0 1 0 1
phys
0 -46 63 123.000403 0 0 1 34 0 1 0 1
0 -42 63 123.000403 0 0 1 34 0 1 0 1
0 -42 65 121.0004 0 0 1 34 0 1 0 1
phys
0 -46 63 123.000403 0 0 1 34 0 1 0 1
0 -42 65 121.0004 0 0 1 34 0 1 0 1
0 -46 65 121.0004 0 0 1 34 0 1 0 1
phys
0 -42 63 35.9998 0 0 1 34 0 1 0 1
0 -46 63 35.9998 0 0 1 34 0 1 0 1
0 -46 65 37.9998 0 0 1 34 0 1 0 1
phys
0 -42 63 35.9998 0 0 1 34 0 1 0 1
0 -46 65 37.9998 0 0 1 34 0 1 0 1
0 -42 65 37.9998 0 0 1 34 0 1 0 1
phys
0 -42 65 37.9998 0 0 1 34 0 1 0 1
0 -46 65 37.9998 0 0 1 34 0 1 0 1
0 -46 65 121.0004 0 0 1 34 0 1 0 1
phys
0 -42 65 37.9998 0 0 1 34 0 1 0 1
0 -46 65 121.0004 0 0 1 34 0 1 0 1
0 -42 65 121.0004 0 0 1 34 0 1 0 1
phys
0 -42 63 123.000403 0 0 1 34 0 1 0 1
0 -46 63 123.000403 0 0 1 34 0 1 0 1
0 -46 63 35.9998 0 0 1 34 0 1 0 1
phys
0 -42 63 123.000403 0 0 1 34 0 1 0 1
0 -46 63 35.9998 0 0 1 34 0 1 0 1
0 -42 63 35.9998 0 0 1 34 0 1 0 1
phys
0 -46 63 123.000403 0 0 1 34 0 1 0 1
0 -46 65 121.0004 0 0 1 34 0 1 0 1
0 -46 65 37.9998 0 0 1 34 0 1 0 1
phys
0 -46 63 123.000403 0 0 1 34 0 1 0 1
0 -46 65 37.9998 0 0 1 34 0 1 0 1
0 -46 63 35.9998 0 0 1 34 0 1 0 1
phys
0 -42 63 35.9998 0 0 1 34 0 1 0 1
0 -42 65 37.9998 0 0 1 34 0 1 0 1
0 -42 65 121.0004 0 0 1 34 0 1 0 1
phys
0 -42 63 35.9998 0 0 1 34 0 1 0 1
0 -42 65 121.0004 0 0 1 34 0 1 0 1
0 -42 63 123.000403 0 0 1 34 0 1 0 1
phys
0 188 33 20 0 0 1 35 0 1 0 1
0 132 33 20 0 0 1 35 0 1 0 1
0 132 37 20 0 0 1 35 0 1 0 1
phys
0 188 33 20 0 0 1 35 0 1 0 1
0 132 37 20 0 0 1 35 0 1 0 1
0 188 37 20 0 0 1 35 0 1 0 1
phys
0 132 145 132 0 0 1 35 0 1 0 1
0 188 145 132 0 0 1 35 0 1 0 1
0 188 149 132 0 0 1 35 0 1 0 1
phys
0 132 145 132 0 0 1 35 0 1 0 1
0 188 149 132 0 0 1 35 0 1 0 1
0 132 149 132 0 0 1 35 0 1 0 1
phys
0 132 33 20 0 0 1 35 0 1 0 1
0 188 33 20 0 0 1 35 0 1 0 1
0 188 145 132 0 0 1 35 0 1 0 1
phys
0 132 33 20 0 0 1 35 0 1 0 1
0 188 145 132 0 0 1 35 0 1 0 1
0 132 145 132 0 0 1 35 0 1 0 1
phys
0 188 37 20 0 0 1 35 0 1 0 1
0 132 37 20 0 0 1 35 0 1 0 1
0 132 149 132 0 0 1 35 0 1 0 1
phys
0 188 37 20 0 0 1 35 0 1 0 1
0 132 149 132 0 0 1 35 0 1 0 1
0 188 149 132 0 0 1 35 0 1 0 1
phys
0 132 145 132 0 0 1 35 0 1 0 1
0 132 149 132 0 0 1 35 0 1 0 1
0 132 37 20 0 0 1 35 0 1 0 1
phys
0 132 145 132 0 0 1 35 0 1 0 1
0 132 37 20 0 0 1 35 0 1 0 1
0 132 33 20 0 0 1 35 0 1 0 1
phys
0 188 33 20 0 0 1 35 0 1 0 1
0 188 37 20 0 0 1 35 0 1 0 1
0 188 149 132 0 0 1 35 0 1 0 1
phys
0 188 33 20 0 0 1 35 0 1 0 1
0 188 149 132 0 0 1 35 0 1 0 1
0 188 145 132 0 0 1 35 0 1 0 1
phys
0 -46 192 -133 0 0 1 36 0 1 0 1
0 -46 255 -133 0 0 1 36 0 1 0 1
0 -46 253 -135 0 0 1 36 0 1 0 1
phys
0 -46 192 -133 0 0 1 36 0 1 0 1
0 -46 253 -135 0 0 1 36 0 1 0 1
0 -46 194 -135 0 0 1 36 0 1 0 1
phys
0 -42 194 -135 0 0 1 36 0 1 0 1
0 -42 253 -135 0 0 1 36 0 1 0 1
0 -42 255 -133 0 0 1 36 0 1 0 1
phys
0 -42 194 -135 0 0 1 36 0 1 0 1
0 -42 255 -133 0 0 1 36 0 1 0 1
0 -42 192 -133 0 0 1 36 0 1 0 1
phys
0 -46 194 -135 0 0 1 36 0 1 0 1
0 -46 253 -135 0 0 1 36 0 1 0 1
0 -42 253 -135 0 0 1 36 0 1 0 1
phys
0 -46 194 -135 0 0 1 36 0 1 0 1
0 -42 253 -135 0 0 1 36 0 1 0 1
0 -42 194 -135 0 0 1 36 0 1 0 1
phys
0 -42 192 -133 0 0 1 36 0 1 0 1
0 -42 255 -133 0 0 1 36 0 1 0 1
0 -46 255 -133 0 0 1 36 0 1 0 1
phys
0 -42 192 -133 0 0 1 36 0 1 0 1
0 -46 255 -133 0 0 1 36 0 1 0 1
0 -46 192 -133 0 0 1 36 0 1 0 1
phys
0 -46 192 -133 0 0 1 36 0 1 0 1
0 -46 194 -135 0 0 1 36 0 1 0 1
0 -42 194 -135 0 0 1 36 0 1 0 1
phys
0 -46 192 -133 0 0 1 36 0 1 0 1
0 -42 194 -135 0 0 1 36 0 1 0 1
0 -42 192 -133 0 0 1 36 0 1 0 1
phys
0 -46 253 -135 0 0 1 36 0 1 0 1
0 -46 255 -133 0 0 1 36 0 1 0 1
0 -42 255 -133 0 0 1 36 0 1 0 1
phys
0 -46 253 -135 0 0 1 36 0 1 0 1
0 -42 255 -133 0 0 1 36 0 1 0 1
0 -42 253 -135 0 0 1 36 0 1 0 1
phys
0 132 113 116 0 0 1 37 0 1 0 1
0 132 129 116 0 0 1 37 0 1 0 1
0 132 113 100.0008 0 0 1 37 0 1 0 1
phys
0 188 113 100.0008 0 0 1 37 0 1 0 1
0 188 129 116 0 0 1 37 0 1 0 1
0 188 113 116 0 0 1 37 0 1 0 1
phys
0 188 113 116 0 0 1 37 0 1 0 1
0 188 129 116 0 0 1 37 0 1 0 1
0 132 129 116 0 0 1 37 0 1 0 1
phys
0 188 113 116 0 0 1 37 0 1 0 1
0 132 129 116 0 0 1 37 0 1 0 1
0 132 113 116 0 0 1 37 0 1 0 1
phys
0 132 113 100.0008 0 0 1 37 0 1 0 1
0 132 129 116 0 0 1 37 0 1 0 1
0 188 129 116 0 0 1 37 0 1 0 1
phys
0 132 113 100.0008 0 0 1 37 0 1 0 1
0 188 129 116 0 0 1 37 0 1 0 1
0 188 113 100.0008 0 0 1 37 0 1 0 1
phys
0 188 113 100.0008 0 0 1 37 0 1 0 1
0 188 113 116 0 0 1 37 0 1 0 1
0 132 113 116 0 0 1 37 0 1 0 1
phys
0 188 113 100.0008 0 0 1 37 0 1 0 1
0 132 113 116 0 0 1 37 0 1 0 1
0 132 113 100.0008 0 0 1 37 0 1 0 1
phys
0 188 129 116.00082 0 0 1 38 0 1 0 1
0 188 129 132 0 0 1 38 0 1 0 1
0 132 129 132 0 0 1 38 0 1 0 1
phys
0 188 129 116.00082 0 0 1 38 0 1 0 1
0 132 129 132 0 0 1 38 0 1 0 1
0 132 129 116.00082 0 0 1 38 0 1 0 1
phys
0 132 129 116.00082 0 0 1 38 0 1 0 1
0 132 129 132 0 0 1 38 0 1 0 1
0 132 145 132 0 0 1 38 0 1 0 1
phys
0 188 129 132 0 0 1 38 0 1 0 1
0 188 129 116.00082 0 0 1 38 0 1 0 1
0 188 145 132 0 0 1 38 0 1 0 1
phys
0 132 129 132 0 0 1 38 0 1 0 1
0 188 129 132 0 0 1 38 0 1 0 1
0 188 145 132 0 0 1 38 0 1 0 1
phys
0 132 129 132 0 0 1 38 0 1 0 1
0 188 145 132 0 0 1 38 0 1 0 1
0 132 145 132 0 0 1 38 0 1 0 1
phys
0 188 129 116.00082 0 0 1 38 0 1 0 1
0 132 129 116.00082 0 0 1 38 0 1 0 1
0 132 145 132 0 0 1 38 0 1 0 1
phys
0 188 129 116.00082 0 0 1 38 0 1 0 1
0 132 145 132 0 0 1 38 0 1 0 1
0 188 145 132 0 0 1 38 0 1 0 1
phys
0 -42 65 -7 0 0 1 39 0 1 0 1
0 -42 65 -90 0 0 1 39 0 1 0 1
0 -46 65 -90 0 0 1 39 0 1 0 1
phys
0 -42 65 -7 0 0 1 39 0 1 0 1
0 -46 65 -90 0 0 1 39 0 1 0 1
0 -46 65 -7 0 0 1 39 0 1 0 1
phys
0 -42 63 -92 0 0 1 39 0 1 0 1
0 -42 63 -5 0 0 1 39 0 1 0 1
0 -46 63 -5 0 0 1 39 0 1 0 1
phys
0 -42 63 -92 0 0 1 39 0 1 0 1
0 -46 63 -5 0 0 1 39 0 1 0 1
0 -46 63 -92 0 0 1 39 0 1 0 1
phys
0 -46 63 -92 0 0 1 39 0 1 0 1
0 -46 63 -5 0 0 1 39 0 1 0 1
0 -46 65 -7 0 0 1 39 0 1 0 1
phys
0 -46 63 -92 0 0 1 39 0 1 0 1
0 -46 65 -7 0 0 1 39 0 1 0 1
0 -46 65 -90 0 0 1 39 0 1 0 1
phys
0 -42 63 -5 0 0 1 39 0 1 0 1
0 -42 63 -92 0 0 1 39 0 1 0 1
0 -42 65 -90 0 0 1 39 0 1 0 1
phys
0 -42 63 -5 0 0 1 39 0 1 0 1
0 -42 65 -90 0 0 1 39 0 1 0 1
0 -42 65 -7 0 0 1 39 0 1 0 1
phys
0 -46 63 -5 0 0 1 39 0 1 0 1
0 -42 63 -5 0 0 1 39 0 1 0 1
0 -42 65 -7 0 0 1 39 0 1 0 1
phys
0 -46 63 -5 0 0 1 39 0 1 0 1
0 -42 65 -7 0 0 1 39 0 1 0 1
0 -46 65 -7 0 0 1 39 0 1 0 1
phys
0 -42 63 -92 0 0 1 39 0 1 0 1
0 -46 63 -92 0 0 1 39 0 1 0 1
0 -46 65 -90 0 0 1 39 0 1 0 1
phys
0 -42 63 -92 0 0 1 39 0 1 0 1
0 -46 65 -90 0 0 1 39 0 1 0 1
0 -42 65 -90 0 0 1 39 0 1 0 1
phys
0 188 97 84.0008 0 0 1 40 0 1 0 1
0 188 97 100 0 0 1 40 0 1 0 1
0 132 97 100 0 0 1 40 0 1 0 1
phys
0 188 97 84.0008 0 0 1 40 0 1 0 1
0 132 97 100 0 0 1 40 0 1 0 1
0 132 97 84.0008 0 0 1 40 0 1 0 1
phys
0 132 97 84.0008 0 0 1 40 0 1 0 1
0 132 97 100 0 0 1 40 0 1 0 1
0 132 113 100 0 0 1 40 0 1 0 1
phys
0 188 97 100 0 0 1 40 0 1 0 1
0 188 97 84.0008 0 0 1 40 0 1 0 1
0 188 113 100 0 0 1 40 0 1 0 1
phys
0 132 97 100 0 0 1 40 0 1 0 1
0 188 97 100 0 0 1 40 0 1 0 1
0 188 113 100 0 0 1 40 0 1 0 1
phys
0 132 97 100 0 0 1 40 0 1 0 1
0 188 113 100 0 0 1 40 0 1 0 1
0 132 113 100 0 0 1 40 0 1 0 1
phys
0 188 97 84.0008 0 0 1 40 0 1 0 1
0 132 97 84.0008 0 0 1 40 0 1 0 1
0 132 113 100 0 0 1 40 0 1 0 1
phys
0 188 97 84.0008 0 0 1 40 0 1 0 1
0 132 113 100 0 0 1 40 0 1 0 1
0 188 113 100 0 0 1 40 0 1 0 1
phys
0 94 -42 -134.999 0 0 1 41 0 1 0 1
0 94 -42 -218 0 0 1 41 0 1 0 1
0 92 -42 -220 0 0 1 41 0 1 0 1
phys
0 94 -42 -134.999 0 0 1 41 0 1 0 1
0 92 -42 -220 0 0 1 41 0 1 0 1
0 92 -42 -132.999 0 0 1 41 0 1 0 1
phys
0 94 -46 -218 0 0 1 41 0 1 0 1
0 94 -46 -134.999 0 0 1 41 0 1 0 1
0 92 -46 -132.999 0 0 1 41 0 1 0 1
phys
0 94 -46 -218 0 0 1 41 0 1 0 1
0 92 -46 -132.999 0 0 1 41 0 1 0 1
0 92 -46 -220 0 0 1 41 0 1 0 1
phys
0 92 -46 -220 0 0 1 41 0 1 0 1
0 92 -46 -132.999 0 0 1 41 0 1 0 1
0 92 -42 -132.999 0 0 1 41 0 1 0 1
phys
0 92 -46 -220 0 0 1 41 0 1 0 1
0 92 -42 -132.999 0 0 1 41 0 1 0 1
0 92 -42 -220 0 0 1 41 0 1 0 1
phys
0 94 -46 -134.999 0 0 1 41 0 1 0 1
0 94 -46 -218 0 0 1 41 0 1 0 1
0 94 -42 -218 0 0 1 41 0 1 0 1
phys
0 94 -46 -134.999 0 0 1 41 0 1 0 1
0 94 -42 -218 0 0 1 41 0 1 0 1
0 94 -42 -134.999 0 0 1 41 0 1 0 1
phys
0 94 -46 -218 0 0 1 41 0 1 0 1
0 92 -46 -220 0 0 1 41 0 1 0 1
0 92 -42 -220 0 0 1 41 0 1 0 1
phys
0 94 -46 -218 0 0 1 41 0 1 0 1
0 92 -42 -220 0 0 1 41 0 1 0 1
0 94 -42 -218 0 0 1 41 0 1 0 1
phys
0 92 -46 -132.999 0 0 1 41 0 1 0 1
0 94 -46 -134.999 0 0 1 41 0 1 0 1
0 94 -42 -134.999 0 0 1 41 0 1 0 1
phys
0 92 -46 -132.999 0 0 1 41 0 1 0 1
0 94 -42 -134.999 0 0 1 41 0 1 0 1
0 92 -42 -132.999 0 0 1 41 0 1 0 1
phys
0 -46 65 -218 0 0 1 42 0 1 0 1
0 -46 125 -218 0 0 1 42 0 1 0 1
0 -46 127 -220 0 0 1 42 0 1 0 1
phys
0 -46 65 -218 0 0 1 42 0 1 0 1
0 -46 127 -220 0 0 1 42 0 1 0 1
0 -46 63 -220 0 0 1 42 0 1 0 1
phys
0 -42 63 -220 0 0 1 42 0 1 0 1
0 -42 127 -220 0 0 1 42 0 1 0 1
0 -42 125 -218 0 0 1 42 0 1 0 1
phys
0 -42 63 -220 0 0 1 42 0 1 0 1
0 -42 125 -218 0 0 1 42 0 1 0 1
0 -42 65 -218 0 0 1 42 0 1 0 1
phys
0 -46 63 -220 0 0 1 42 0 1 0 1
0 -46 127 -220 0 0 1 42 0 1 0 1
0 -42 127 -220 0 0 1 42 0 1 0 1
phys
0 -46 63 -220 0 0 1 42 0 1 0 1
0 -42 127 -220 0 0 1 42 0 1 0 1
0 -42 63 -220 0 0 1 42 0 1 0 1
phys
0 -42 65 -218 0 0 1 42 0 1 0 1
0 -42 125 -218 0 0 1 42 0 1 0 1
0 -46 125 -218 0 0 1 42 0 1 0 1
phys
0 -42 65 -218 0 0 1 42 0 1 0 1
0 -46 125 -218 0 0 1 42 0 1 0 1
0 -46 65 -218 0 0 1 42 0 1 0 1
phys
0 -42 63 -220 0 0 1 42 0 1 0 1
0 -42 65 -218 0 0 1 42 0 1 0 1
0 -46 65 -218 0 0 1 42 0 1 0 1
phys
0 -42 63 -220 0 0 1 42 0 1 0 1
0 -46 65 -218 0 0 1 42 0 1 0 1
0 -46 63 -220 0 0 1 42 0 1 0 1
phys
0 -42 125 -218 0 0 1 42 0 1 0 1
0 -42 127 -220 0 0 1 42 0 1 0 1
0 -46 127 -220 0 0 1 42 0 1 0 1
phys
0 -42 125 -218 0 0 1 42 0 1 0 1
0 -46 127 -220 0 0 1 42 0 1 0 1
0 -46 125 -218 0 0 1 42 0 1 0 1
phys
0 191 59 -252 0 0 1 43 0 1 0 1
0 144 59 -252 0 0 1 43 0 1 0 1
0 144 74 -252 0 0 1 43 0 1 0 1
phys
0 191 59 -252 0 0 1 43 0 1 0 1
0 144 74 -252 0 0 1 43 0 1 0 1
0 191 74 -252 0 0 1 43 0 1 0 1
phys
0 144 59 -241 0 0 1 43 0 1 0 1
0 191 59 -241 0 0 1 43 0 1 0 1
0 191 74 -241 0 0 1 43 0 1 0 1
phys
0 144 59 -241 0 0 1 43 0 1 0 1
0 191 74 -241 0 0 1 43 0 1 0 1
0 144 74 -241 0 0 1 43 0 1 0 1
phys
0 191 74 -252 0 0 1 43 0 1 0 1
0 144 74 -252 0 0 1 43 0 1 0 1
0 144 74 -241 0 0 1 43 0 1 0 1
phys
0 191 74 -252 0 0 1 43 0 1 0 1
0 144 74 -241 0 0 1 43 0 1 0 1
0 191 74 -241 0 0 1 43 0 1 0 1
phys
0 191 59 -241 0 0 1 43 0 1 0 1
0 144 59 -241 0 0 1 43 0 1 0 1
0 144 59 -252 0 0 1 43 0 1 0 1
phys
0 191 59 -241 0 0 1 43 0 1 0 1
0 144 59 -252 0 0 1 43 0 1 0 1
0 191 59 -252 0 0 1 43 0 1 0 1
phys
0 144 59 -241 0 0 1 43 0 1 0 1
0 144 74 -241 0 0 1 43 0 1 0 1
0 144 74 -252 0 0 1 43 0 1 0 1
phys
0 144 59 -241 0 0 1 43 0 1 0 1
0 144 74 -252 0 0 1 43 0 1 0 1
0 144 59 -252 0 0 1 43 0 1 0 1
phys
0 191 59 -252 0 0 1 43 0 1 0 1
0 191 74 -252 0 0 1 43 0 1 0 1
0 191 74 -241 0 0 1 43 0 1 0 1
phys
0 191 59 -252 0 0 1 43 0 1 0 1
0 191 74 -241 0 0 1 43 0 1 0 1
0 191 59 -241 0 0 1 43 0 1 0 1
phys
0 191 120 -40.001 0 0 1 44 0 1 0 1
0 191 120 -24 0 0 1 44 0 1 0 1
0 144 120 -24 0 0 1 44 0 1 0 1
phys
0 191 120 -40.001 0 0 1 44 0 1 0 1
0 144 120 -24 0 0 1 44 0 1 0 1
0 144 120 -40.001 0 0 1 44 0 1 0 1
phys
0 144 120 -40.001 0 0 1 44 0 1 0 1
0 144 120 -24 0 0 1 44 0 1 0 1
0 144 136 -24 0 0 1 44 0 1 0 1
phys
0 191 120 -24 0 0 1 44 0 1 0 1
0 191 120 -40.001 0 0 1 44 0 1 0 1
0 191 136 -24 0 0 1 44 0 1 0 1
phys
0 144 120 -24 0 0 1 44 0 1 0 1
0 191 120 -24 0 0 1 44 0 1 0 1
0 191 136 -24 0 0 1 44 0 1 0 1
phys
0 144 120 -24 0 0 1 44 0 1 0 1
0 191 136 -24 0 0 1 44 0 1 0 1
0 144 136 -24 0 0 1 44 0 1 0 1
phys
0 191 120 -40.001 0 0 1 44 0 1 0 1
0 144 120 -40.001 0 0 1 44 0 1 0 1
0 144 136 -24 0 0 1 44 0 1 0 1
phys
0 191 120 -40.001 0 0 1 44 0 1 0 1
0 144 136 -24 0 0 1 44 0 1 0 1
0 191 136 -24 0 0 1 44 0 1 0 1
phys
0 191 168 7.999 0 0 1 45 0 1 0 1
0 191 168 4 0 0 1 45 0 1 0 1
0 144 168 4 0 0 1 45 0 1 0 1
phys
0 191 168 7.999 0 0 1 45 0 1 0 1
0 144 168 4 0 0 1 45 0 1 0 1
0 144 168 7.999 0 0 1 45 0 1 0 1
phys
0 144 168 7.999 0 0 1 45 0 1 0 1
0 144 168 4 0 0 1 45 0 1 0 1
0 144 60 -104 0 0 1 45 0 1 0 1
phys
0 144 168 7.999 0 0 1 45 0 1 0 1
0 144 60 -104 0 0 1 45 0 1 0 1
0 144 56 -104 0 0 1 45 0 1 0 1
phys
0 191 56 -104 0 0 1 45 0 1 0 1
0 191 60 -104 0 0 1 45 0 1 0 1
0 191 168 4 0 0 1 45 0 1 0 1
phys
0 191 56 -104 0 0 1 45 0 1 0 1
0 191 168 4 0 0 1 45 0 1 0 1
0 191 168 7.999 0 0 1 45 0 1 0 1
phys
0 144 56 -104 0 0 1 45 0 1 0 1
0 144 60 -104 0 0 1 45 0 1 0 1
0 191 60 -104 0 0 1 45 0 1 0 1
phys
0 144 56 -104 0 0 1 45 0 1 0 1
0 191 60 -104 0 0 1 45 0 1 0 1
0 191 56 -104 0 0 1 45 0 1 0 1
phys
0 191 56 -104 0 0 1 45 0 1 0 1
0 191 168 7.999 0 0 1 45 0 1 0 1
0 144 168 7.999 0 0 1 45 0 1 0 1
phys
0 191 56 -104 0 0 1 45 0 1 0 1
0 144 168 7.999 0 0 1 45 0 1 0 1
0 144 56 -104 0 0 1 45 0 1 0 1
phys
0 144 60 -104 0 0 1 45 0 1 0 1
0 144 168 4 0 0 1 45 0 1 0 1
0 191 168 4 0 0 1 45 0 1 0 1
phys
0 144 60 -104 0 0 1 45 0 1 0 1
0 191 168 4 0 0 1 45 0 1 0 1
0 191 60 -104 0 0 1 45 0 1 0 1
phys
0 -46 200 123 0 0 1 46 0 1 0 1
0 -46 255 123 0 0 1 46 0 1 0 1
0 -46 253 121 0 0 1 46 0 1 0 1
phys
0 -46 200 123 0 0 1 46 0 1 0 1
0 -46 253 121 0 0 1 46 0 1 0 1
0 -46 202 121 0 0 1 46 0 1 0 1
phys
0 -42 202 121 0 0 1 46 0 1 0 1
0 -42 253 121 0 0 1 46 0 1 0 1
0 -42 255 123 0 0 1 46 0 1 0 1
phys
0 -42 202 121 0 0 1 46 0 1 0 1
0 -42 255 123 0 0 1 46 0 1 0 1
0 -42 200 123 0 0 1 46 0 1 0 1
phys
0 -46 202 121 0 0 1 46 0 1 0 1
0 -46 253 121 0 0 1 46 0 1 0 1
0 -42 253 121 0 0 1 46 0 1 0 1
phys
0 -46 202 121 0 0 1 46 0 1 0 1
0 -42 253 121 0 0 1 46 0 1 0 1
0 -42 202 121 0 0 1 46 0 1 0 1
phys
0 -42 200 123 0 0 1 46 0 1 0 1
0 -42 255 123 0 0 1 46 0 1 0 1
0 -46 255 123 0 0 1 46 0 1 0 1
phys
0 -42 200 123 0 0 1 46 0 1 0 1
0 -46 255 123 0 0 1 46 0 1 0 1
0 -46 200 123 0 0 1 46 0 1 0 1
phys
0 -46 200 123 0 0 1 46 0 1 0 1
0 -46 202 121 0 0 1 46 0 1 0 1
0 -42 202 121 0 0 1 46 0 1 0 1
phys
0 -46 200 123 0 0 1 46 0 1 0 1
0 -42 202 121 0 0 1 46 0 1 0 1
0 -42 200 123 0 0 1 46 0 1 0 1
phys
0 -46 253 121 0 0 1 46 0 1 0 1
0 -46 255 123 0 0 1 46 0 1 0 1
0 -42 255 123 0 0 1 46 0 1 0 1
phys
0 -46 253 121 0 0 1 46 0 1 0 1
0 -42 255 123 0 0 1 46 0 1 0 1
0 -42 253 121 0 0 1 46 0 1 0 1
phys
0 -171 -238 -252 0 0 1 47 0 1 0 1
0 -188.988647 -217.97264 -252 0 0 1 47 0 1 0 1
0 -188.988647 -217.97264 -256 0 0 1 47 0 1 0 1
phys
0 -171 -238 -252 0 0 1 47 0 1 0 1
0 -188.988647 -217.97264 -256 0 0 1 47 0 1 0 1
0 -171 -238 -256 0 0 1 47 0 1 0 1
phys
0 -188.988647 -217.97264 -256 0 0 1 47 0 1 0 1
0 -188.988647 -217.97264 -252 0 0 1 47 0 1 0 1
0 -200.992053 -194.035848 -252 0 0 1 47 0 1 0 1
phys
0 -188.988647 -217.97264 -256 0 0 1 47 0 1 0 1
0 -200.992053 -194.035848 -252 0 0 1 47 0 1 0 1
0 -200.992053 -194.035848 -256 0 0 1 47 0 1 0 1
phys
0 -200.992053 -194.035848 -256 0 0 1 47 0 1 0 1
0 -200.992053 -194.035848 -252 0 0 1 47 0 1 0 1
0 -209 -167.99 -252 0 0 1 47 0 1 0 1
phys
0 -200.992053 -194.035848 -256 0 0 1 47 0 1 0 1
0 -209 -167.99 -252 0 0 1 47 0 1 0 1
0 -209 -167.99 -256 0 0 1 47 0 1 0 1
phys
0 -209 -167.99 -256 0 0 1 47 0 1 0 1
0 -209 -167.99 -252 0 0 1 47 0 1 0 1
0 -211 -142 -252 0 0 1 47 0 1 0 1
phys
0 -209 -167.99 -256 0 0 1 47 0 1 0 1
0 -211 -142 -252 0 0 1 47 0 1 0 1
0 -211 -142 -256 0 0 1 47 0 1 0 1
phys
0 -101 -276 -256 0 0 1 47 0 1 0 1
0 -101 -276 -252 0 0 1 47 0 1 0 1
0 -127 -268 -252 0 0 1 47 0 1 0 1
phys
0 -101 -276 -256 0 0 1 47 0 1 0 1
0 -127 -268 -252 0 0 1 47 0 1 0 1
0 -127 -268 -256 0 0 1 47 0 1 0 1
phys
0 -75 -278 -256 0 0 1 47 0 1 0 1
0 -75 -278 -252 0 0 1 47 0 1 0 1
0 -101 -276 -252 0 0 1 47 0 1 0 1
phys
0 -75 -278 -256 0 0 1 47 0 1 0 1
0 -101 -276 -252 0 0 1 47 0 1 0 1
0 -101 -276 -256 0 0 1 47 0 1 0 1
phys
0 -75 -142 -252 0 0 1 47 0 1 0 1
0 -75 -142 -256 0 0 1 47 0 1 0 1
0 -211 -142 -256 0 0 1 47 0 1 0 1
phys
0 -75 -142 -252 0 0 1 47 0 1 0 1
0 -211 -142 -256 0 0 1 47 0 1 0 1
0 -211 -142 -252 0 0 1 47 0 1 0 1
phys
0 -75 -278 -252 0 0 1 47 0 1 0 1
0 -75 -278 -256 0 0 1 47 0 1 0 1
0 -75 -142 -256 0 0 1 47 0 1 0 1
phys
0 -75 -278 -252 0 0 1 47 0 1 0 1
0 -75 -142 -256 0 0 1 47 0 1 0 1
0 -75 -142 -252 0 0 1 47 0 1 0 1
phys
0 -75 -278 -256 0 0 1 47 0 1 0 1
0 -101 -276 -256 0 0 1 47 0 1 0 1
0 -127 -268 -256 0 0 1 47 0 1 0 1
phys
0 -75 -278 -256 0 0 1 47 0 1 0 1
0 -127 -268 -256 0 0 1 47 0 1 0 1
0 -151 -256 -256 0 0 1 47 0 1 0 1
phys
0 -75 -278 -256 0 0 1 47 0 1 0 1
0 -151 -256 -256 0 0 1 47 0 1 0 1
0 -171 -238 -256 0 0 1 47 0 1 0 1
phys
0 -75 -278 -256 0 0 1 47 0 1 0 1
0 -171 -238 -256 0 0 1 47 0 1 0 1
0 -188.988647 -217.97264 -256 0 0 1 47 0 1 0 1
phys
0 -75 -278 -256 0 0 1 47 0 1 0 1
0 -188.988647 -217.97264 -256 0 0 1 47 0 1 0 1
0 -200.992053 -194.035848 -256 0 0 1 47 0 1 0 1
phys
0 -75 -278 -256 0 0 1 47 0 1 0 1
0 -200.992053 -194.035848 -256 0 0 1 47 0 1 0 1
0 -209 -167.99 -256 0 0 1 47 0 1 0 1
phys
0 -75 -278 -256 0 0 1 47 0 1 0 1
0 -209 -167.99 -256 0 0 1 47 0 1 0 1
0 -211 -142 -256 0 0 1 47 0 1 0 1
phys
0 -75 -278 -256 0 0 1 47 0 1 0 1
0 -211 -142 -256 0 0 1 47 0 1 0 1
0 -75 -142 -256 0 0 1 47 0 1 0 1
phys
0 -75 -142 -252 0 0 1 47 0 1 0 1
0 -211 -142 -252 0 0 1 47 0 1 0 1
0 -209 -167.99 -252 0 0 1 47 0 1 0 1
phys
0 -75 -142 -252 0 0 1 47 0 1 0 1
0 -209 -167.99 -252 0 0 1 47 0 1 0 1
0 -200.992053 -194.035848 -252 0 0 1 47 0 1 0 1
phys
0 -75 -142 -252 0 0 1 47 0 1 0 1
0 -200.992053 -194.035848 -252 0 0 1 47 0 1 0 1
0 -188.988647 -217.97264 -252 0 0 1 47 0 1 0 1
phys
0 -75 -142 -252 0 0 1 47 0 1 0 1
0 -188.988647 -217.97264 -252 0 0 1 47 0 1 0 1
0 -171 -238 -252 0 0 1 47 0 1 0 1
phys
0 -75 -142 -252 0 0 1 47 0 1 0 1
0 -171 -238 -252 0 0 1 47 0 1 0 1
0 -151 -256 -252 0 0 1 47 0 1 0 1
phys
0 -75 -142 -252 0 0 1 47 0 1 0 1
0 -151 -256 -252 0 0 1 47 0 1 0 1
0 -127 -268 -252 0 0 1 47 0 1 0 1
phys
0 -75 -142 -252 0 0 1 47 0 1 0 1
0 -127 -268 -252 0 0 1 47 0 1 0 1
0 -101 -276 -252 0 0 1 47 0 1 0 1
phys
0 -75 -142 -252 0 0 1 47 0 1 0 1
0 -101 -276 -252 0 0 1 47 0 1 0 1
0 -75 -278 -252 0 0 1 47 0 1 0 1
phys
0 -127 -268 -256 0 0 1 47 0 1 0 1
0 -127 -268 -252 0 0 1 47 0 1 0 1
0 -151 -256 -252 0 0 1 47 0 1 0 1
phys
0 -127 -268 -256 0 0 1 47 0 1 0 1
0 -151 -256 -252 0 0 1 47 0 1 0 1
0 -151 -256 -256 0 0 1 47 0 1 0 1
phys
0 -151 -256 -252 0 0 1 47 0 1 0 1
0 -171 -238 -252 0 0 1 47 0 1 0 1
0 -171 -238 -256 0 0 1 47 0 1 0 1
phys
0 -151 -256 -252 0 0 1 47 0 1 0 1
0 -171 -238 -256 0 0 1 47 0 1 0 1
0 -151 -256 -256 0 0 1 47 0 1 0 1
phys
0 -42 137 -7 0 0 1 48 0 1 0 1
0 -42 137 -90 0 0 1 48 0 1 0 1
0 -46 137 -90 0 0 1 48 0 1 0 1
phys
0 -42 137 -7 0 0 1 48 0 1 0 1
0 -46 137 -90 0 0 1 48 0 1 0 1
0 -46 137 -7 0 0 1 48 0 1 0 1
phys
0 -42 135 -92 0 0 1 48 0 1 0 1
0 -42 135 -5 0 0 1 48 0 1 0 1
0 -46 135 -5 0 0 1 48 0 1 0 1
phys
0 -42 135 -92 0 0 1 48 0 1 0 1
0 -46 135 -5 0 0 1 48 0 1 0 1
0 -46 135 -92 0 0 1 48 0 1 0 1
phys
0 -46 135 -92 0 0 1 48 0 1 0 1
0 -46 135 -5 0 0 1 48 0 1 0 1
0 -46 137 -7 0 0 1 48 0 1 0 1
phys
0 -46 135 -92 0 0 1 48 0 1 0 1
0 -46 137 -7 0 0 1 48 0 1 0 1
0 -46 137 -90 0 0 1 48 0 1 0 1
phys
0 -42 135 -5 0 0 1 48 0 1 0 1
0 -42 135 -92 0 0 1 48 0 1 0 1
0 -42 137 -90 0 0 1 48 0 1 0 1
phys
0 -42 135 -5 0 0 1 48 0 1 0 1
0 -42 137 -90 0 0 1 48 0 1 0 1
0 -42 137 -7 0 0 1 48 0 1 0 1
phys
0 -46 135 -5 0 0 1 48 0 1 0 1
0 -42 135 -5 0 0 1 48 0 1 0 1
0 -42 137 -7 0 0 1 48 0 1 0 1
phys
0 -46 135 -5 0 0 1 48 0 1 0 1
0 -42 137 -7 0 0 1 48 0 1 0 1
0 -46 137 -7 0 0 1 48 0 1 0 1
phys
0 -42 135 -92 0 0 1 48 0 1 0 1
0 -46 135 -92 0 0 1 48 0 1 0 1
0 -46 137 -90 0 0 1 48 0 1 0 1
phys
0 -42 135 -92 0 0 1 48 0 1 0 1
0 -46 137 -90 0 0 1 48 0 1 0 1
0 -42 137 -90 0 0 1 48 0 1 0 1
phys
0 188 49 36.0008 0 0 1 49 0 1 0 1
0 188 49 52 0 0 1 49 0 1 0 1
0 132 49 52 0 0 1 49 0 1 0 1
phys
0 188 49 36.0008 0 0 1 49 0 1 0 1
0 132 49 52 0 0 1 49 0 1 0 1
0 132 49 36.0008 0 0 1 49 0 1 0 1
phys
0 132 49 36.0008 0 0 1 49 0 1 0 1
0 132 49 52 0 0 1 49 0 1 0 1
0 132 65 52 0 0 1 49 0 1 0 1
phys
0 188 49 52 0 0 1 49 0 1 0 1
0 188 49 36.0008 0 0 1 49 0 1 0 1
0 188 65 52 0 0 1 49 0 1 0 1
phys
0 132 49 52 0 0 1 49 0 1 0 1
0 188 49 52 0 0 1 49 0 1 0 1
0 188 65 52 0 0 1 49 0 1 0 1
phys
0 132 49 52 0 0 1 49 0 1 0 1
0 188 65 52 0 0 1 49 0 1 0 1
0 132 65 52 0 0 1 49 0 1 0 1
phys
0 188 49 36.0008 0 0 1 49 0 1 0 1
0 132 49 36.0008 0 0 1 49 0 1 0 1
0 132 65 52 0 0 1 49 0 1 0 1
phys
0 188 49 36.0008 0 0 1 49 0 1 0 1
0 132 65 52 0 0 1 49 0 1 0 1
0 188 65 52 0 0 1 49 0 1 0 1
phys
0 -42 127 -133 0 0 1 50 0 1 0 1
0 -42 127 -220 0 0 1 50 0 1 0 1
0 -46 127 -220 0 0 1 50 0 1 0 1
phys
0 -42 127 -133 0 0 1 50 0 1 0 1
0 -46 127 -220 0 0 1 50 0 1 0 1
0 -46 127 -133 0 0 1 50 0 1 0 1
phys
0 -42 125 -218 0 0 1 50 0 1 0 1
0 -42 125 -135 0 0 1 50 0 1 0 1
0 -46 125 -135 0 0 1 50 0 1 0 1
phys
0 -42 125 -218 0 0 1 50 0 1 0 1
0 -46 125 -135 0 0 1 50 0 1 0 1
0 -46 125 -218 0 0 1 50 0 1 0 1
phys
0 -46 125 -218 0 0 1 50 0 1 0 1
0 -46 125 -135 0 0 1 50 0 1 0 1
0 -46 127 -133 0 0 1 50 0 1 0 1
phys
0 -46 125 -218 0 0 1 50 0 1 0 1
0 -46 127 -133 0 0 1 50 0 1 0 1
0 -46 127 -220 0 0 1 50 0 1 0 1
phys
0 -42 125 -135 0 0 1 50 0 1 0 1
0 -42 125 -218 0 0 1 50 0 1 0 1
0 -42 127 -220 0 0 1 50 0 1 0 1
phys
0 -42 125 -135 0 0 1 50 0 1 0 1
0 -42 127 -220 0 0 1 50 0 1 0 1
0 -42 127 -133 0 0 1 50 0 1 0 1
phys
0 -46 125 -135 0 0 1 50 0 1 0 1
0 -42 125 -135 0 0 1 50 0 1 0 1
0 -42 127 -133 0 0 1 50 0 1 0 1
phys
0 -46 125 -135 0 0 1 50 0 1 0 1
0 -42 127 -133 0 0 1 50 0 1 0 1
0 -46 127 -133 0 0 1 50 0 1 0 1
phys
0 -42 125 -218 0 0 1 50 0 1 0 1
0 -46 125 -218 0 0 1 50 0 1 0 1
0 -46 127 -220 0 0 1 50 0 1 0 1
phys
0 -42 125 -218 0 0 1 50 0 1 0 1
0 -46 127 -220 0 0 1 50 0 1 0 1
0 -42 127 -220 0 0 1 50 0 1 0 1
phys
0 146 -46 -218 0 0 1 51 0 1 0 1
0 94 -46 -218 0 0 1 51 0 1 0 1
0 92 -46 -220 0 0 1 51 0 1 0 1
phys
0 146 -46 -218 0 0 1 51 0 1 0 1
0 92 -46 -220 0 0 1 51 0 1 0 1
0 148 -46 -220 0 0 1 51 0 1 0 1
phys
0 148 -46 -220 0 0 1 51 0 1 0 1
0 92 -46 -220 0 0 1 51 0 1 0 1
0 92 -42 -220 0 0 1 51 0 1 0 1
phys
0 148 -46 -220 0 0 1 51 0 1 0 1
0 92 -42 -220 0 0 1 51 0 1 0 1
0 148 -42 -220 0 0 1 51 0 1 0 1
phys
0 94 -46 -218 0 0 1 51 0 1 0 1
0 146 -46 -218 0 0 1 51 0 1 0 1
0 146 -42 -218 0 0 1 51 0 1 0 1
phys
0 94 -46 -218 0 0 1 51 0 1 0 1
0 146 -42 -218 0 0 1 51 0 1 0 1
0 94 -42 -218 0 0 1 51 0 1 0 1
phys
0 146 -46 -218 0 0 1 51 0 1 0 1
0 148 -46 -220 0 0 1 51 0 1 0 1
0 148 -42 -220 0 0 1 51 0 1 0 1
phys
0 146 -46 -218 0 0 1 51 0 1 0 1
0 148 -42 -220 0 0 1 51 0 1 0 1
0 146 -42 -218 0 0 1 51 0 1 0 1
phys
0 92 -46 -220 0 0 1 51 0 1 0 1
0 94 -46 -218 0 0 1 51 0 1 0 1
0 94 -42 -218 0 0 1 51 0 1 0 1
phys
0 92 -46 -220 0 0 1 51 0 1 0 1
0 94 -42 -218 0 0 1 51 0 1 0 1
0 92 -42 -220 0 0 1 51 0 1 0 1
phys
0 148 -42 -220 0 0 1 51 0 1 0 1
0 92 -42 -220 0 0 1 51 0 1 0 1
0 94 -42 -218 0 0 1 51 0 1 0 1
phys
0 148 -42 -220 0 0 1 51 0 1 0 1
0 94 -42 -218 0 0 1 51 0 1 0 1
0 146 -42 -218 0 0 1 51 0 1 0 1
phys
0 148 -42 122.9996 0 0 1 52 0 1 0 1
0 148 -42 36.0002 0 0 1 52 0 1 0 1
0 146 -42 38.0002 0 0 1 52 0 1 0 1
phys
0 148 -42 122.9996 0 0 1 52 0 1 0 1
0 146 -42 38.0002 0 0 1 52 0 1 0 1
0 146 -42 120.9996 0 0 1 52 0 1 0 1
phys
0 148 -46 36.0002 0 0 1 52 0 1 0 1
0 148 -46 122.9996 0 0 1 52 0 1 0 1
0 146 -46 120.9996 0 0 1 52 0 1 0 1
phys
0 148 -46 36.0002 0 0 1 52 0 1 0 1
0 146 -46 120.9996 0 0 1 52 0 1 0 1
0 146 -46 38.0002 0 0 1 52 0 1 0 1
phys
0 146 -46 38.0002 0 0 1 52 0 1 0 1
0 146 -46 120.9996 0 0 1 52 0 1 0 1
0 146 -42 120.9996 0 0 1 52 0 1 0 1
phys
0 146 -46 38.0002 0 0 1 52 0 1 0 1
0 146 -42 120.9996 0 0 1 52 0 1 0 1
0 146 -42 38.0002 0 0 1 52 0 1 0 1
phys
0 148 -46 122.9996 0 0 1 52 0 1 0 1
0 148 -46 36.0002 0 0 1 52 0 1 0 1
0 148 -42 36.0002 0 0 1 52 0 1 0 1
phys
0 148 -46 122.9996 0 0 1 52 0 1 0 1
0 148 -42 36.0002 0 0 1 52 0 1 0 1
0 148 -42 122.9996 0 0 1 52 0 1 0 1
phys
0 148 -46 36.0002 0 0 1 52 0 1 0 1
0 146 -46 38.0002 0 0 1 52 0 1 0 1
0 146 -42 38.0002 0 0 1 52 0 1 0 1
phys
0 148 -46 36.0002 0 0 1 52 0 1 0 1
0 146 -42 38.0002 0 0 1 52 0 1 0 1
0 148 -42 36.0002 0 0 1 52 0 1 0 1
phys
0 146 -46 120.9996 0 0 1 52 0 1 0 1
0 148 -46 122.9996 0 0 1 52 0 1 0 1
0 148 -42 122.9996 0 0 1 52 0 1 0 1
phys
0 146 -46 120.9996 0 0 1 52 0 1 0 1
0 148 -42 122.9996 0 0 1 52 0 1 0 1
0 146 -42 120.9996 0 0 1 52 0 1 0 1
phys
0 -42 202 -7 0 0 1 53 0 1 0 1
0 -42 202 -90 0 0 1 53 0 1 0 1
0 -46 202 -90 0 0 1 53 0 1 0 1
phys
0 -42 202 -7 0 0 1 53 0 1 0 1
0 -46 202 -90 0 0 1 53 0 1 0 1
0 -46 202 -7 0 0 1 53 0 1 0 1
phys
0 -42 200 -92 0 0 1 53 0 1 0 1
0 -42 200 -5 0 0 1 53 0 1 0 1
0 -46 200 -5 0 0 1 53 0 1 0 1
phys
0 -42 200 -92 0 0 1 53 0 1 0 1
0 -46 200 -5 0 0 1 53 0 1 0 1
0 -46 200 -92 0 0 1 53 0 1 0 1
phys
0 -46 200 -92 0 0 1 53 0 1 0 1
0 -46 200 -5 0 0 1 53 0 1 0 1
0 -46 202 -7 0 0 1 53 0 1 0 1
phys
0 -46 200 -92 0 0 1 53 0 1 0 1
0 -46 202 -7 0 0 1 53 0 1 0 1
0 -46 202 -90 0 0 1 53 0 1 0 1
phys
0 -42 200 -5 0 0 1 53 0 1 0 1
0 -42 200 -92 0 0 1 53 0 1 0 1
0 -42 202 -90 0 0 1 53 0 1 0 1
phys
0 -42 200 -5 0 0 1 53 0 1 0 1
0 -42 202 -90 0 0 1 53 0 1 0 1
0 -42 202 -7 0 0 1 53 0 1 0 1
phys
0 -46 200 -5 0 0 1 53 0 1 0 1
0 -42 200 -5 0 0 1 53 0 1 0 1
0 -42 202 -7 0 0 1 53 0 1 0 1
phys
0 -46 200 -5 0 0 1 53 0 1 0 1
0 -42 202 -7 0 0 1 53 0 1 0 1
0 -46 202 -7 0 0 1 53 0 1 0 1
phys
0 -42 200 -92 0 0 1 53 0 1 0 1
0 -46 200 -92 0 0 1 53 0 1 0 1
0 -46 202 -90 0 0 1 53 0 1 0 1
phys
0 -42 200 -92 0 0 1 53 0 1 0 1
0 -46 202 -90 0 0 1 53 0 1 0 1
0 -42 202 -90 0 0 1 53 0 1 0 1
phys
0 -42 183 -5 0 0 1 54 0 1 0 1
0 -42 183 -92 0 0 1 54 0 1 0 1
0 -46 183 -92 0 0 1 54 0 1 0 1
phys
0 -42 183 -5 0 0 1 54 0 1 0 1
0 -46 183 -92 0 0 1 54 0 1 0 1
0 -46 183 -5 0 0 1 54 0 1 0 1
phys
0 -42 181 -90 0 0 1 54 0 1 0 1
0 -42 181 -7 0 0 1 54 0 1 0 1
0 -46 181 -7 0 0 1 54 0 1 0 1
phys
0 -42 181 -90 0 0 1 54 0 1 0 1
0 -46 181 -7 0 0 1 54 0 1 0 1
0 -46 181 -90 0 0 1 54 0 1 0 1
phys
0 -46 181 -90 0 0 1 54 0 1 0 1
0 -46 181 -7 0 0 1 54 0 1 0 1
0 -46 183 -5 0 0 1 54 0 1 0 1
phys
0 -46 181 -90 0 0 1 54 0 1 0 1
0 -46 183 -5 0 0 1 54 0 1 0 1
0 -46 183 -92 0 0 1 54 0 1 0 1
phys
0 -42 181 -7 0 0 1 54 0 1 0 1
0 -42 181 -90 0 0 1 54 0 1 0 1
0 -42 183 -92 0 0 1 54 0 1 0 1
phys
0 -42 181 -7 0 0 1 54 0 1 0 1
0 -42 183 -92 0 0 1 54 0 1 0 1
0 -42 183 -5 0 0 1 54 0 1 0 1
phys
0 -46 181 -7 0 0 1 54 0 1 0 1
0 -42 181 -7 0 0 1 54 0 1 0 1
0 -42 183 -5 0 0 1 54 0 1 0 1
phys
0 -46 181 -7 0 0 1 54 0 1 0 1
0 -42 183 -5 0 0 1 54 0 1 0 1
0 -46 183 -5 0 0 1 54 0 1 0 1
phys
0 -42 181 -90 0 0 1 54 0 1 0 1
0 -46 181 -90 0 0 1 54 0 1 0 1
0 -46 183 -92 0 0 1 54 0 1 0 1
phys
0 -42 181 -90 0 0 1 54 0 1 0 1
0 -46 183 -92 0 0 1 54 0 1 0 1
0 -42 183 -92 0 0 1 54 0 1 0 1
phys
0 -199 -226 -252 0 0 1 55 0 1 0 1
0 -189 -218 -252 0 0 1 55 0 1 0 1
0 -189 -218 -256 0 0 1 55 0 1 0 1
phys
0 -199 -226 -252 0 0 1 55 0 1 0 1
0 -189 -218 -256 0 0 1 55 0 1 0 1
0 -199 -226 -256 0 0 1 55 0 1 0 1
phys
0 -181 -248 -256 0 0 1 55 0 1 0 1
0 -171 -238 -256 0 0 1 55 0 1 0 1
0 -171 -238 -252 0 0 1 55 0 1 0 1
phys
0 -181 -248 -256 0 0 1 55 0 1 0 1
0 -171 -238 -252 0 0 1 55 0 1 0 1
0 -181 -248 -252 0 0 1 55 0 1 0 1
phys
0 -199 -226 -256 0 0 1 55 0 1 0 1
0 -189 -218 -256 0 0 1 55 0 1 0 1
0 -171 -238 -256 0 0 1 55 0 1 0 1
phys
0 -199 -226 -256 0 0 1 55 0 1 0 1
0 -171 -238 -256 0 0 1 55 0 1 0 1
0 -181 -248 -256 0 0 1 55 0 1 0 1
phys
0 -181 -248 -252 0 0 1 55 0 1 0 1
0 -171 -238 -252 0 0 1 55 0 1 0 1
0 -189 -218 -252 0 0 1 55 0 1 0 1
phys
0 -181 -248 -252 0 0 1 55 0 1 0 1
0 -189 -218 -252 0 0 1 55 0 1 0 1
0 -199 -226 -252 0 0 1 55 0 1 0 1
phys
0 -181 -248 -256 0 0 1 55 0 1 0 1
0 -181 -248 -252 0 0 1 55 0 1 0 1
0 -199 -226 -252 0 0 1 55 0 1 0 1
phys
0 -181 -248 -256 0 0 1 55 0 1 0 1
0 -199 -226 -252 0 0 1 55 0 1 0 1
0 -199 -226 -256 0 0 1 55 0 1 0 1
phys
0 -171 -238 -252 0 0 1 55 0 1 0 1
0 -171 -238 -256 0 0 1 55 0 1 0 1
0 -189 -218 -256 0 0 1 55 0 1 0 1
phys
0 -171 -238 -252 0 0 1 55 0 1 0 1
0 -189 -218 -256 0 0 1 55 0 1 0 1
0 -189 -218 -252 0 0 1 55 0 1 0 1
phys
0 -46 202 -90 0 0 1 56 0 1 0 1
0 -46 253 -90 0 0 1 56 0 1 0 1
0 -46 255 -92 0 0 1 56 0 1 0 1
phys
0 -46 202 -90 0 0 1 56 0 1 0 1
0 -46 255 -92 0 0 1 56 0 1 0 1
0 -46 200 -92 0 0 1 56 0 1 0 1
phys
0 -42 200 -92 0 0 1 56 0 1 0 1
0 -42 255 -92 0 0 1 56 0 1 0 1
0 -42 253 -90 0 0 1 56 0 1 0 1
phys
0 -42 200 -92 0 0 1 56 0 1 0 1
0 -42 253 -90 0 0 1 56 0 1 0 1
0 -42 202 -90 0 0 1 56 0 1 0 1
phys
0 -46 200 -92 0 0 1 56 0 1 0 1
0 -46 255 -92 0 0 1 56 0 1 0 1
0 -42 255 -92 0 0 1 56 0 1 0 1
phys
0 -46 200 -92 0 0 1 56 0 1 0 1
0 -42 255 -92 0 0 1 56 0 1 0 1
0 -42 200 -92 0 0 1 56 0 1 0 1
phys
0 -42 202 -90 0 0 1 56 0 1 0 1
0 -42 253 -90 0 0 1 56 0 1 0 1
0 -46 253 -90 0 0 1 56 0 1 0 1
phys
0 -42 202 -90 0 0 1 56 0 1 0 1
0 -46 253 -90 0 0 1 56 0 1 0 1
0 -46 202 -90 0 0 1 56 0 1 0 1
phys
0 -42 200 -92 0 0 1 56 0 1 0 1
0 -42 202 -90 0 0 1 56 0 1 0 1
0 -46 202 -90 0 0 1 56 0 1 0 1
phys
0 -42 200 -92 0 0 1 56 0 1 0 1
0 -46 202 -90 0 0 1 56 0 1 0 1
0 -46 200 -92 0 0 1 56 0 1 0 1
phys
0 -42 253 -90 0 0 1 56 0 1 0 1
0 -42 255 -92 0 0 1 56 0 1 0 1
0 -46 255 -92 0 0 1 56 0 1 0 1
phys
0 -42 253 -90 0 0 1 56 0 1 0 1
0 -46 255 -92 0 0 1 56 0 1 0 1
0 -46 253 -90 0 0 1 56 0 1 0 1
phys
0 148 -42 36 0 0 1 57 0 1 0 1
0 92 -42 36 0 0 1 57 0 1 0 1
0 94 -42 38 0 0 1 57 0 1 0 1
phys
0 148 -42 36 0 0 1 57 0 1 0 1
0 94 -42 38 0 0 1 57 0 1 0 1
0 146 -42 38 0 0 1 57 0 1 0 1
phys
0 146 -46 38 0 0 1 57 0 1 0 1
0 94 -46 38 0 0 1 57 0 1 0 1
0 92 -46 36 0 0 1 57 0 1 0 1
phys
0 146 -46 38 0 0 1 57 0 1 0 1
0 92 -46 36 0 0 1 57 0 1 0 1
0 148 -46 36 0 0 1 57 0 1 0 1
phys
0 148 -46 36 0 0 1 57 0 1 0 1
0 92 -46 36 0 0 1 57 0 1 0 1
0 92 -42 36 0 0 1 57 0 1 0 1
phys
0 148 -46 36 0 0 1 57 0 1 0 1
0 92 -42 36 0 0 1 57 0 1 0 1
0 148 -42 36 0 0 1 57 0 1 0 1
phys
0 94 -46 38 0 0 1 57 0 1 0 1
0 146 -46 38 0 0 1 57 0 1 0 1
0 146 -42 38 0 0 1 57 0 1 0 1
phys
0 94 -46 38 0 0 1 57 0 1 0 1
0 146 -42 38 0 0 1 57 0 1 0 1
0 94 -42 38 0 0 1 57 0 1 0 1
phys
0 146 -46 38 0 0 1 57 0 1 0 1
0 148 -46 36 0 0 1 57 0 1 0 1
0 148 -42 36 0 0 1 57 0 1 0 1
phys
0 146 -46 38 0 0 1 57 0 1 0 1
0 148 -42 36 0 0 1 57 0 1 0 1
0 146 -42 38 0 0 1 57 0 1 0 1
phys
0 92 -46 36 0 0 1 57 0 1 0 1
0 94 -46 38 0 0 1 57 0 1 0 1
0 94 -42 38 0 0 1 57 0 1 0 1
phys
0 92 -46 36 0 0 1 57 0 1 0 1
0 94 -42 38 0 0 1 57 0 1 0 1
0 92 -42 36 0 0 1 57 0 1 0 1
phys
0 -105 -290 -256 0 0 1 58 0 1 0 1
0 -133 -280 -256 0 0 1 58 0 1 0 1
0 -127 -268 -256 0 0 1 58 0 1 0 1
phys
0 -105 -290 -256 0 0 1 58 0 1 0 1
0 -127 -268 -256 0 0 1 58 0 1 0 1
0 -101 -276 -256 0 0 1 58 0 1 0 1
phys
0 -133 -280 -252 0 0 1 58 0 1 0 1
0 -105 -290 -252 0 0 1 58 0 1 0 1
0 -101 -276 -252 0 0 1 58 0 1 0 1
phys
0 -133 -280 -252 0 0 1 58 0 1 0 1
0 -101 -276 -252 0 0 1 58 0 1 0 1
0 -127 -268 -252 0 0 1 58 0 1 0 1
phys
0 -105 -290 -252 0 0 1 58 0 1 0 1
0 -133 -280 -252 0 0 1 58 0 1 0 1
0 -133 -280 -256 0 0 1 58 0 1 0 1
phys
0 -105 -290 -252 0 0 1 58 0 1 0 1
0 -133 -280 -256 0 0 1 58 0 1 0 1
0 -105 -290 -256 0 0 1 58 0 1 0 1
phys
0 -101 -276 -256 0 0 1 58 0 1 0 1
0 -127 -268 -256 0 0 1 58 0 1 0 1
0 -127 -268 -252 0 0 1 58 0 1 0 1
phys
0 -101 -276 -256 0 0 1 58 0 1 0 1
0 -127 -268 -252 0 0 1 58 0 1 0 1
0 -101 -276 -252 0 0 1 58 0 1 0 1
phys
0 -133 -280 -252 0 0 1 58 0 1 0 1
0 -127 -268 -252 0 0 1 58 0 1 0 1
0 -127 -268 -256 0 0 1 58 0 1 0 1
phys
0 -133 -280 -252 0 0 1 58 0 1 0 1
0 -127 -268 -256 0 0 1 58 0 1 0 1
0 -133 -280 -256 0 0 1 58 0 1 0 1
phys
0 -105 -290 -256 0 0 1 58 0 1 0 1
0 -101 -276 -256 0 0 1 58 0 1 0 1
0 -101 -276 -252 0 0 1 58 0 1 0 1
phys
0 -105 -290 -256 0 0 1 58 0 1 0 1
0 -101 -276 -252 0 0 1 58 0 1 0 1
0 -105 -290 -252 0 0 1 58 0 1 0 1
phys
0 92 -42 -92.001 0 0 1 59 0 1 0 1
0 94 -42 -90.001 0 0 1 59 0 1 0 1
0 94 -46 -90.001 0 0 1 59 0 1 0 1
phys
0 92 -42 -92.001 0 0 1 59 0 1 0 1
0 94 -46 -90.001 0 0 1 59 0 1 0 1
0 92 -46 -92.001 0 0 1 59 0 1 0 1
phys
0 92 -46 -4.999 0 0 1 59 0 1 0 1
0 94 -46 -6.999 0 0 1 59 0 1 0 1
0 94 -42 -6.999 0 0 1 59 0 1 0 1
phys
0 92 -46 -4.999 0 0 1 59 0 1 0 1
0 94 -42 -6.999 0 0 1 59 0 1 0 1
0 92 -42 -4.999 0 0 1 59 0 1 0 1
phys
0 92 -42 -4.999 0 0 1 59 0 1 0 1
0 94 -42 -6.999 0 0 1 59 0 1 0 1
0 94 -42 -90.001 0 0 1 59 0 1 0 1
phys
0 92 -42 -4.999 0 0 1 59 0 1 0 1
0 94 -42 -90.001 0 0 1 59 0 1 0 1
0 92 -42 -92.001 0 0 1 59 0 1 0 1
phys
0 92 -46 -92.001 0 0 1 59 0 1 0 1
0 94 -46 -90.001 0 0 1 59 0 1 0 1
0 94 -46 -6.999 0 0 1 59 0 1 0 1
phys
0 92 -46 -92.001 0 0 1 59 0 1 0 1
0 94 -46 -6.999 0 0 1 59 0 1 0 1
0 92 -46 -4.999 0 0 1 59 0 1 0 1
phys
0 92 -46 -4.999 0 0 1 59 0 1 0 1
0 92 -42 -4.999 0 0 1 59 0 1 0 1
0 92 -42 -92.001 0 0 1 59 0 1 0 1
phys
0 92 -46 -4.999 0 0 1 59 0 1 0 1
0 92 -42 -92.001 0 0 1 59 0 1 0 1
0 92 -46 -92.001 0 0 1 59 0 1 0 1
phys
0 94 -46 -90.001 0 0 1 59 0 1 0 1
0 94 -42 -90.001 0 0 1 59 0 1 0 1
0 94 -42 -6.999 0 0 1 59 0 1 0 1
phys
0 94 -46 -90.001 0 0 1 59 0 1 0 1
0 94 -42 -6.999 0 0 1 59 0 1 0 1
0 94 -46 -6.999 0 0 1 59 0 1 0 1
phys
0 -42 192 -220 0 0 1 60 0 1 0 1
0 -42 194 -218 0 0 1 60 0 1 0 1
0 -46 194 -218 0 0 1 60 0 1 0 1
phys
0 -42 192 -220 0 0 1 60 0 1 0 1
0 -46 194 -218 0 0 1 60 0 1 0 1
0 -46 192 -220 0 0 1 60 0 1 0 1
phys
0 -42 253 -218 0 0 1 60 0 1 0 1
0 -42 255 -220 0 0 1 60 0 1 0 1
0 -46 255 -220 0 0 1 60 0 1 0 1
phys
0 -42 253 -218 0 0 1 60 0 1 0 1
0 -46 255 -220 0 0 1 60 0 1 0 1
0 -46 253 -218 0 0 1 60 0 1 0 1
phys
0 -46 192 -220 0 0 1 60 0 1 0 1
0 -46 194 -218 0 0 1 60 0 1 0 1
0 -46 253 -218 0 0 1 60 0 1 0 1
phys
0 -46 192 -220 0 0 1 60 0 1 0 1
0 -46 253 -218 0 0 1 60 0 1 0 1
0 -46 255 -220 0 0 1 60 0 1 0 1
phys
0 -42 194 -218 0 0 1 60 0 1 0 1
0 -42 192 -220 0 0 1 60 0 1 0 1
0 -42 255 -220 0 0 1 60 0 1 0 1
phys
0 -42 194 -218 0 0 1 60 0 1 0 1
0 -42 255 -220 0 0 1 60 0 1 0 1
0 -42 253 -218 0 0 1 60 0 1 0 1
phys
0 -42 192 -220 0 0 1 60 0 1 0 1
0 -46 192 -220 0 0 1 60 0 1 0 1
0 -46 255 -220 0 0 1 60 0 1 0 1
phys
0 -42 192 -220 0 0 1 60 0 1 0 1
0 -46 255 -220 0 0 1 60 0 1 0 1
0 -42 255 -220 0 0 1 60 0 1 0 1
phys
0 -46 194 -218 0 0 1 60 0 1 0 1
0 -42 194 -218 0 0 1 60 0 1 0 1
0 -42 253 -218 0 0 1 60 0 1 0 1
phys
0 -46 194 -218 0 0 1 60 0 1 0 1
0 -42 253 -218 0 0 1 60 0 1 0 1
0 -46 253 -218 0 0 1 60 0 1 0 1
phys
0 191 122 -196 0 0 1 61 0 1 0 1
0 191 138 -180 0 0 1 61 0 1 0 1
0 191 122 -180 0 0 1 61 0 1 0 1
phys
0 144 122 -180 0 0 1 61 0 1 0 1
0 191 122 -180 0 0 1 61 0 1 0 1
0 191 138 -180 0 0 1 61 0 1 0 1
phys
0 144 122 -180 0 0 1 61 0 1 0 1
0 191 138 -180 0 0 1 61 0 1 0 1
0 144 138 -180 0 0 1 61 0 1 0 1
phys
0 144 138 -180 0 0 1 61 0 1 0 1
0 191 138 -180 0 0 1 61 0 1 0 1
0 191 122 -196 0 0 1 61 0 1 0 1
phys
0 144 138 -180 0 0 1 61 0 1 0 1
0 191 122 -196 0 0 1 61 0 1 0 1
0 144 122 -196 0 0 1 61 0 1 0 1
phys
0 191 122 -196 0 0 1 61 0 1 0 1
0 191 122 -180 0 0 1 61 0 1 0 1
0 144 122 -180 0 0 1 61 0 1 0 1
phys
0 191 122 -196 0 0 1 61 0 1 0 1
0 144 122 -180 0 0 1 61 0 1 0 1
0 144 122 -196 0 0 1 61 0 1 0 1
phys
0 144 122 -180 0 0 1 61 0 1 0 1
0 144 138 -180 0 0 1 61 0 1 0 1
0 144 122 -196 0 0 1 61 0 1 0 1
phys
0 -46 137 -90 0 0 1 62 0 1 0 1
0 -46 181 -90 0 0 1 62 0 1 0 1
0 -46 183 -92 0 0 1 62 0 1 0 1
phys
0 -46 137 -90 0 0 1 62 0 1 0 1
0 -46 183 -92 0 0 1 62 0 1 0 1
0 -46 135 -92 0 0 1 62 0 1 0 1
phys
0 -42 135 -92 0 0 1 62 0 1 0 1
0 -42 183 -92 0 0 1 62 0 1 0 1
0 -42 181 -90 0 0 1 62 0 1 0 1
phys
0 -42 135 -92 0 0 1 62 0 1 0 1
0 -42 181 -90 0 0 1 62 0 1 0 1
0 -42 137 -90 0 0 1 62 0 1 0 1
phys
0 -46 135 -92 0 0 1 62 0 1 0 1
0 -46 183 -92 0 0 1 62 0 1 0 1
0 -42 183 -92 0 0 1 62 0 1 0 1
phys
0 -46 135 -92 0 0 1 62 0 1 0 1
0 -42 183 -92 0 0 1 62 0 1 0 1
0 -42 135 -92 0 0 1 62 0 1 0 1
phys
0 -42 137 -90 0 0 1 62 0 1 0 1
0 -42 181 -90 0 0 1 62 0 1 0 1
0 -46 181 -90 0 0 1 62 0 1 0 1
phys
0 -42 137 -90 0 0 1 62 0 1 0 1
0 -46 181 -90 0 0 1 62 0 1 0 1
0 -46 137 -90 0 0 1 62 0 1 0 1
phys
0 -42 135 -92 0 0 1 62 0 1 0 1
0 -42 137 -90 0 0 1 62 0 1 0 1
0 -46 137 -90 0 0 1 62 0 1 0 1
phys
0 -42 135 -92 0 0 1 62 0 1 0 1
0 -46 137 -90 0 0 1 62 0 1 0 1
0 -46 135 -92 0 0 1 62 0 1 0 1
phys
0 -42 181 -90 0 0 1 62 0 1 0 1
0 -42 183 -92 0 0 1 62 0 1 0 1
0 -46 183 -92 0 0 1 62 0 1 0 1
phys
0 -42 181 -90 0 0 1 62 0 1 0 1
0 -46 183 -92 0 0 1 62 0 1 0 1
0 -46 181 -90 0 0 1 62 0 1 0 1
phys
0 191 186 -132 0 0 1 63 0 1 0 1
0 191 186 -116 0 0 1 63 0 1 0 1
0 144 186 -116 0 0 1 63 0 1 0 1
phys
0 191 186 -132 0 0 1 63 0 1 0 1
0 144 186 -116 0 0 1 63 0 1 0 1
0 144 186 -132 0 0 1 63 0 1 0 1
phys
0 144 186 -132 0 0 1 63 0 1 0 1
0 144 186 -116 0 0 1 63 0 1 0 1
0 144 202 -116 0 0 1 63 0 1 0 1
phys
0 191 186 -116 0 0 1 63 0 1 0 1
0 191 186 -132 0 0 1 63 0 1 0 1
0 191 202 -116 0 0 1 63 0 1 0 1
phys
0 144 186 -116 0 0 1 63 0 1 0 1
0 191 186 -116 0 0 1 63 0 1 0 1
0 191 202 -116 0 0 1 63 0 1 0 1
phys
0 144 186 -116 0 0 1 63 0 1 0 1
0 191 202 -116 0 0 1 63 0 1 0 1
0 144 202 -116 0 0 1 63 0 1 0 1
phys
0 191 186 -132 0 0 1 63 0 1 0 1
0 144 186 -132 0 0 1 63 0 1 0 1
0 144 202 -116 0 0 1 63 0 1 0 1
phys
0 191 186 -132 0 0 1 63 0 1 0 1
0 144 202 -116 0 0 1 63 0 1 0 1
0 191 202 -116 0 0 1 63 0 1 0 1
phys
0 188 65 52.0008 0 0 1 64 0 1 0 1
0 188 65 68 0 0 1 64 0 1 0 1
0 132 65 68 0 0 1 64 0 1 0 1
phys
0 188 65 52.0008 0 0 1 64 0 1 0 1
0 132 65 68 0 0 1 64 0 1 0 1
0 132 65 52.0008 0 0 1 64 0 1 0 1
phys
0 132 65 52.0008 0 0 1 64 0 1 0 1
0 132 65 68 0 0 1 64 0 1 0 1
0 132 81 68 0 0 1 64 0 1 0 1
phys
0 188 65 68 0 0 1 64 0 1 0 1
0 188 65 52.0008 0 0 1 64 0 1 0 1
0 188 81 68 0 0 1 64 0 1 0 1
phys
0 132 65 68 0 0 1 64 0 1 0 1
0 188 65 68 0 0 1 64 0 1 0 1
0 188 81 68 0 0 1 64 0 1 0 1
phys
0 132 65 68 0 0 1 64 0 1 0 1
0 188 81 68 0 0 1 64 0 1 0 1
0 132 81 68 0 0 1 64 0 1 0 1
phys
0 188 65 52.0008 0 0 1 64 0 1 0 1
0 132 65 52.0008 0 0 1 64 0 1 0 1
0 132 81 68 0 0 1 64 0 1 0 1
phys
0 188 65 52.0008 0 0 1 64 0 1 0 1
0 132 81 68 0 0 1 64 0 1 0 1
0 188 81 68 0 0 1 64 0 1 0 1
phys
0 -42 63 -92 0 0 1 65 0 1 0 1
0 -42 65 -90 0 0 1 65 0 1 0 1
0 -46 65 -90 0 0 1 65 0 1 0 1
phys
0 -42 63 -92 0 0 1 65 0 1 0 1
0 -46 65 -90 0 0 1 65 0 1 0 1
0 -46 63 -92 0 0 1 65 0 1 0 1
phys
0 -42 116 -90 0 0 1 65 0 1 0 1
0 -42 118 -92 0 0 1 65 0 1 0 1
0 -46 118 -92 0 0 1 65 0 1 0 1
phys
0 -42 116 -90 0 0 1 65 0 1 0 1
0 -46 118 -92 0 0 1 65 0 1 0 1
0 -46 116 -90 0 0 1 65 0 1 0 1
phys
0 -46 63 -92 0 0 1 65 0 1 0 1
0 -46 65 -90 0 0 1 65 0 1 0 1
0 -46 116 -90 0 0 1 65 0 1 0 1
phys
0 -46 63 -92 0 0 1 65 0 1 0 1
0 -46 116 -90 0 0 1 65 0 1 0 1
0 -46 118 -92 0 0 1 65 0 1 0 1
phys
0 -42 65 -90 0 0 1 65 0 1 0 1
0 -42 63 -92 0 0 1 65 0 1 0 1
0 -42 118 -92 0 0 1 65 0 1 0 1
phys
0 -42 65 -90 0 0 1 65 0 1 0 1
0 -42 118 -92 0 0 1 65 0 1 0 1
0 -42 116 -90 0 0 1 65 0 1 0 1
phys
0 -42 63 -92 0 0 1 65 0 1 0 1
0 -46 63 -92 0 0 1 65 0 1 0 1
0 -46 118 -92 0 0 1 65 0 1 0 1
phys
0 -42 63 -92 0 0 1 65 0 1 0 1
0 -46 118 -92 0 0 1 65 0 1 0 1
0 -42 118 -92 0 0 1 65 0 1 0 1
phys
0 -46 65 -90 0 0 1 65 0 1 0 1
0 -42 65 -90 0 0 1 65 0 1 0 1
0 -42 116 -90 0 0 1 65 0 1 0 1
phys
0 -46 65 -90 0 0 1 65 0 1 0 1
0 -42 116 -90 0 0 1 65 0 1 0 1
0 -46 116 -90 0 0 1 65 0 1 0 1
phys
0 191 154 -164 0 0 1 66 0 1 0 1
0 191 154 -148 0 0 1 66 0 1 0 1
0 144 154 -148 0 0 1 66 0 1 0 1
phys
0 191 154 -164 0 0 1 66 0 1 0 1
0 144 154 -148 0 0 1 66 0 1 0 1
0 144 154 -164 0 0 1 66 0 1 0 1
phys
0 144 154 -164 0 0 1 66 0 1 0 1
0 144 154 -148 0 0 1 66 0 1 0 1
0 144 170 -148 0 0 1 66 0 1 0 1
phys
0 191 154 -148 0 0 1 66 0 1 0 1
0 191 154 -164 0 0 1 66 0 1 0 1
0 191 170 -148 0 0 1 66 0 1 0 1
phys
0 144 154 -148 0 0 1 66 0 1 0 1
0 191 154 -148 0 0 1 66 0 1 0 1
0 191 170 -148 0 0 1 66 0 1 0 1
phys
0 144 154 -148 0 0 1 66 0 1 0 1
0 191 170 -148 0 0 1 66 0 1 0 1
0 144 170 -148 0 0 1 66 0 1 0 1
phys
0 191 154 -164 0 0 1 66 0 1 0 1
0 144 154 -164 0 0 1 66 0 1 0 1
0 144 170 -148 0 0 1 66 0 1 0 1
phys
0 191 154 -164 0 0 1 66 0 1 0 1
0 144 170 -148 0 0 1 66 0 1 0 1
0 191 170 -148 0 0 1 66 0 1 0 1
phys
0 191 136 -24.001 0 0 1 67 0 1 0 1
0 191 136 -8 0 0 1 67 0 1 0 1
0 144 136 -8 0 0 1 67 0 1 0 1
phys
0 191 136 -24.001 0 0 1 67 0 1 0 1
0 144 136 -8 0 0 1 67 0 1 0 1
0 144 136 -24.001 0 0 1 67 0 1 0 1
phys
0 144 136 -24.001 0 0 1 67 0 1 0 1
0 144 136 -8 0 0 1 67 0 1 0 1
0 144 152 -8 0 0 1 67 0 1 0 1
phys
0 191 136 -8 0 0 1 67 0 1 0 1
0 191 136 -24.001 0 0 1 67 0 1 0 1
0 191 152 -8 0 0 1 67 0 1 0 1
phys
0 144 136 -8 0 0 1 67 0 1 0 1
0 191 136 -8 0 0 1 67 0 1 0 1
0 191 152 -8 0 0 1 67 0 1 0 1
phys
0 144 136 -8 0 0 1 67 0 1 0 1
0 191 152 -8 0 0 1 67 0 1 0 1
0 144 152 -8 0 0 1 67 0 1 0 1
phys
0 191 136 -24.001 0 0 1 67 0 1 0 1
0 144 136 -24.001 0 0 1 67 0 1 0 1
0 144 152 -8 0 0 1 67 0 1 0 1
phys
0 191 136 -24.001 0 0 1 67 0 1 0 1
0 144 152 -8 0 0 1 67 0 1 0 1
0 191 152 -8 0 0 1 67 0 1 0 1
phys
0 -133 -280 -256 0 0 1 68 0 1 0 1
0 -159 -266 -256 0 0 1 68 0 1 0 1
0 -151 -256 -256 0 0 1 68 0 1 0 1
phys
0 -133 -280 -256 0 0 1 68 0 1 0 1
0 -151 -256 -256 0 0 1 68 0 1 0 1
0 -127 -268 -256 0 0 1 68 0 1 0 1
phys
0 -159 -266 -252 0 0 1 68 0 1 0 1
0 -133 -280 -252 0 0 1 68 0 1 0 1
0 -127 -268 -252 0 0 1 68 0 1 0 1
phys
0 -159 -266 -252 0 0 1 68 0 1 0 1
0 -127 -268 -252 0 0 1 68 0 1 0 1
0 -151 -256 -252 0 0 1 68 0 1 0 1
phys
0 -133 -280 -252 0 0 1 68 0 1 0 1
0 -159 -266 -252 0 0 1 68 0 1 0 1
0 -159 -266 -256 0 0 1 68 0 1 0 1
phys
0 -133 -280 -252 0 0 1 68 0 1 0 1
0 -159 -266 -256 0 0 1 68 0 1 0 1
0 -133 -280 -256 0 0 1 68 0 1 0 1
phys
0 -127 -268 -256 0 0 1 68 0 1 0 1
0 -151 -256 -256 0 0 1 68 0 1 0 1
0 -151 -256 -252 0 0 1 68 0 1 0 1
phys
0 -127 -268 -256 0 0 1 68 0 1 0 1
0 -151 -256 -252 0 0 1 68 0 1 0 1
0 -127 -268 -252 0 0 1 68 0 1 0 1
phys
0 -159 -266 -252 0 0 1 68 0 1 0 1
0 -151 -256 -252 0 0 1 68 0 1 0 1
0 -151 -256 -256 0 0 1 68 0 1 0 1
phys
0 -159 -266 -252 0 0 1 68 0 1 0 1
0 -151 -256 -256 0 0 1 68 0 1 0 1
0 -159 -266 -256 0 0 1 68 0 1 0 1
phys
0 -133 -280 -256 0 0 1 68 0 1 0 1
0 -127 -268 -256 0 0 1 68 0 1 0 1
0 -127 -268 -252 0 0 1 68 0 1 0 1
phys
0 -133 -280 -256 0 0 1 68 0 1 0 1
0 -127 -268 -252 0 0 1 68 0 1 0 1
0 -133 -280 -252 0 0 1 68 0 1 0 1
phys
0 191 88 -72.001 0 0 1 69 0 1 0 1
0 191 88 -56 0 0 1 69 0 1 0 1
0 144 88 -56 0 0 1 69 0 1 0 1
phys
0 191 88 -72.001 0 0 1 69 0 1 0 1
0 144 88 -56 0 0 1 69 0 1 0 1
0 144 88 -72.001 0 0 1 69 0 1 0 1
phys
0 144 88 -72.001 0 0 1 69 0 1 0 1
0 144 88 -56 0 0 1 69 0 1 0 1
0 144 104 -56 0 0 1 69 0 1 0 1
phys
0 191 88 -56 0 0 1 69 0 1 0 1
0 191 88 -72.001 0 0 1 69 0 1 0 1
0 191 104 -56 0 0 1 69 0 1 0 1
phys
0 144 88 -56 0 0 1 69 0 1 0 1
0 191 88 -56 0 0 1 69 0 1 0 1
0 191 104 -56 0 0 1 69 0 1 0 1
phys
0 144 88 -56 0 0 1 69 0 1 0 1
0 191 104 -56 0 0 1 69 0 1 0 1
0 144 104 -56 0 0 1 69 0 1 0 1
phys
0 191 88 -72.001 0 0 1 69 0 1 0 1
0 144 88 -72.001 0 0 1 69 0 1 0 1
0 144 104 -56 0 0 1 69 0 1 0 1
phys
0 191 88 -72.001 0 0 1 69 0 1 0 1
0 144 104 -56 0 0 1 69 0 1 0 1
0 191 104 -56 0 0 1 69 0 1 0 1
phys
0 191 90 -228 0 0 1 70 0 1 0 1
0 191 90 -212 0 0 1 70 0 1 0 1
0 144 90 -212 0 0 1 70 0 1 0 1
phys
0 191 90 -228 0 0 1 70 0 1 0 1
0 144 90 -212 0 0 1 70 0 1 0 1
0 144 90 -228 0 0 1 70 0 1 0 1
phys
0 144 90 -228 0 0 1 70 0 1 0 1
0 144 90 -212 0 0 1 70 0 1 0 1
0 144 106 -212 0 0 1 70 0 1 0 1
phys
0 191 90 -212 0 0 1 70 0 1 0 1
0 191 90 -228 0 0 1 70 0 1 0 1
0 191 106 -212 0 0 1 70 0 1 0 1
phys
0 144 90 -212 0 0 1 70 0 1 0 1
0 191 90 -212 0 0 1 70 0 1 0 1
0 191 106 -212 0 0 1 70 0 1 0 1
phys
0 144 90 -212 0 0 1 70 0 1 0 1
0 191 106 -212 0 0 1 70 0 1 0 1
0 144 106 -212 0 0 1 70 0 1 0 1
phys
0 191 90 -228 0 0 1 70 0 1 0 1
0 144 90 -228 0 0 1 70 0 1 0 1
0 144 106 -212 0 0 1 70 0 1 0 1
phys
0 191 90 -228 0 0 1 70 0 1 0 1
0 144 106 -212 0 0 1 70 0 1 0 1
0 191 106 -212 0 0 1 70 0 1 0 1
phys
0 148 -46 -5 0 0 1 71 0 1 0 1
0 146 -46 -7 0 0 1 71 0 1 0 1
0 146 -42 -7 0 0 1 71 0 1 0 1
phys
0 148 -46 -5 0 0 1 71 0 1 0 1
0 146 -42 -7 0 0 1 71 0 1 0 1
0 148 -42 -5 0 0 1 71 0 1 0 1
phys
0 92 -42 -5 0 0 1 71 0 1 0 1
0 94 -42 -7 0 0 1 71 0 1 0 1
0 94 -46 -7 0 0 1 71 0 1 0 1
phys
0 92 -42 -5 0 0 1 71 0 1 0 1
0 94 -46 -7 0 0 1 71 0 1 0 1
0 92 -46 -5 0 0 1 71 0 1 0 1
phys
0 148 -42 -5 0 0 1 71 0 1 0 1
0 146 -42 -7 0 0 1 71 0 1 0 1
0 94 -42 -7 0 0 1 71 0 1 0 1
phys
0 148 -42 -5 0 0 1 71 0 1 0 1
0 94 -42 -7 0 0 1 71 0 1 0 1
0 92 -42 -5 0 0 1 71 0 1 0 1
phys
0 146 -46 -7 0 0 1 71 0 1 0 1
0 148 -46 -5 0 0 1 71 0 1 0 1
0 92 -46 -5 0 0 1 71 0 1 0 1
phys
0 146 -46 -7 0 0 1 71 0 1 0 1
0 92 -46 -5 0 0 1 71 0 1 0 1
0 94 -46 -7 0 0 1 71 0 1 0 1
phys
0 94 -46 -7 0 0 1 71 0 1 0 1
0 94 -42 -7 0 0 1 71 0 1 0 1
0 146 -42 -7 0 0 1 71 0 1 0 1
phys
0 94 -46 -7 0 0 1 71 0 1 0 1
0 146 -42 -7 0 0 1 71 0 1 0 1
0 146 -46 -7 0 0 1 71 0 1 0 1
phys
0 148 -46 -5 0 0 1 71 0 1 0 1
0 148 -42 -5 0 0 1 71 0 1 0 1
0 92 -42 -5 0 0 1 71 0 1 0 1
phys
0 148 -46 -5 0 0 1 71 0 1 0 1
0 92 -42 -5 0 0 1 71 0 1 0 1
0 92 -46 -5 0 0 1 71 0 1 0 1
phys
0 -46 63 123 0 0 1 72 0 1 0 1
0 -46 118 123 0 0 1 72 0 1 0 1
0 -46 116 121 0 0 1 72 0 1 0 1
phys
0 -46 63 123 0 0 1 72 0 1 0 1
0 -46 116 121 0 0 1 72 0 1 0 1
0 -46 65 121 0 0 1 72 0 1 0 1
phys
0 -42 65 121 0 0 1 72 0 1 0 1
0 -42 116 121 0 0 1 72 0 1 0 1
0 -42 118 123 0 0 1 72 0 1 0 1
phys
0 -42 65 121 0 0 1 72 0 1 0 1
0 -42 118 123 0 0 1 72 0 1 0 1
0 -42 63 123 0 0 1 72 0 1 0 1
phys
0 -46 65 121 0 0 1 72 0 1 0 1
0 -46 116 121 0 0 1 72 0 1 0 1
0 -42 116 121 0 0 1 72 0 1 0 1
phys
0 -46 65 121 0 0 1 72 0 1 0 1
0 -42 116 121 0 0 1 72 0 1 0 1
0 -42 65 121 0 0 1 72 0 1 0 1
phys
0 -42 63 123 0 0 1 72 0 1 0 1
0 -42 118 123 0 0 1 72 0 1 0 1
0 -46 118 123 0 0 1 72 0 1 0 1
phys
0 -42 63 123 0 0 1 72 0 1 0 1
0 -46 118 123 0 0 1 72 0 1 0 1
0 -46 63 123 0 0 1 72 0 1 0 1
phys
0 -46 63 123 0 0 1 72 0 1 0 1
0 -46 65 121 0 0 1 72 0 1 0 1
0 -42 65 121 0 0 1 72 0 1 0 1
phys
0 -46 63 123 0 0 1 72 0 1 0 1
0 -42 65 121 0 0 1 72 0 1 0 1
0 -42 63 123 0 0 1 72 0 1 0 1
phys
0 -46 116 121 0 0 1 72 0 1 0 1
0 -46 118 123 0 0 1 72 0 1 0 1
0 -42 118 123 0 0 1 72 0 1 0 1
phys
0 -46 116 121 0 0 1 72 0 1 0 1
0 -42 118 123 0 0 1 72 0 1 0 1
0 -42 116 121 0 0 1 72 0 1 0 1
phys
0 191 138 -180 0 0 1 73 0 1 0 1
0 191 138 -164 0 0 1 73 0 1 0 1
0 144 138 -164 0 0 1 73 0 1 0 1
phys
0 191 138 -180 0 0 1 73 0 1 0 1
0 144 138 -164 0 0 1 73 0 1 0 1
0 144 138 -180 0 0 1 73 0 1 0 1
phys
0 144 138 -180 0 0 1 73 0 1 0 1
0 144 138 -164 0 0 1 73 0 1 0 1
0 144 154 -164 0 0 1 73 0 1 0 1
phys
0 191 138 -164 0 0 1 73 0 1 0 1
0 191 138 -180 0 0 1 73 0 1 0 1
0 191 154 -164 0 0 1 73 0 1 0 1
phys
0 144 138 -164 0 0 1 73 0 1 0 1
0 191 138 -164 0 0 1 73 0 1 0 1
0 191 154 -164 0 0 1 73 0 1 0 1
phys
0 144 138 -164 0 0 1 73 0 1 0 1
0 191 154 -164 0 0 1 73 0 1 0 1
0 144 154 -164 0 0 1 73 0 1 0 1
phys
0 191 138 -180 0 0 1 73 0 1 0 1
0 144 138 -180 0 0 1 73 0 1 0 1
0 144 154 -164 0 0 1 73 0 1 0 1
phys
0 191 138 -180 0 0 1 73 0 1 0 1
0 144 154 -164 0 0 1 73 0 1 0 1
0 191 154 -164 0 0 1 73 0 1 0 1
phys
0 -46 116 120.99982 0 0 1 74 0 1 0 1
0 -42 116 120.99982 0 0 1 74 0 1 0 1
0 -42 118 122.99982 0 0 1 74 0 1 0 1
phys
0 -46 116 120.99982 0 0 1 74 0 1 0 1
0 -42 118 122.99982 0 0 1 74 0 1 0 1
0 -46 118 122.99982 0 0 1 74 0 1 0 1
phys
0 -42 116 38.0004 0 0 1 74 0 1 0 1
0 -46 116 38.0004 0 0 1 74 0 1 0 1
0 -46 118 36.0004 0 0 1 74 0 1 0 1
phys
0 -42 116 38.0004 0 0 1 74 0 1 0 1
0 -46 118 36.0004 0 0 1 74 0 1 0 1
0 -42 118 36.0004 0 0 1 74 0 1 0 1
phys
0 -42 118 36.0004 0 0 1 74 0 1 0 1
0 -46 118 36.0004 0 0 1 74 0 1 0 1
0 -46 118 122.99982 0 0 1 74 0 1 0 1
phys
0 -42 118 36.0004 0 0 1 74 0 1 0 1
0 -46 118 122.99982 0 0 1 74 0 1 0 1
0 -42 118 122.99982 0 0 1 74 0 1 0 1
phys
0 -42 116 120.99982 0 0 1 74 0 1 0 1
0 -46 116 120.99982 0 0 1 74 0 1 0 1
0 -46 116 38.0004 0 0 1 74 0 1 0 1
phys
0 -42 116 120.99982 0 0 1 74 0 1 0 1
0 -46 116 38.0004 0 0 1 74 0 1 0 1
0 -42 116 38.0004 0 0 1 74 0 1 0 1
phys
0 -46 118 36.0004 0 0 1 74 0 1 0 1
0 -46 116 38.0004 0 0 1 74 0 1 0 1
0 -46 116 120.99982 0 0 1 74 0 1 0 1
phys
0 -46 118 36.0004 0 0 1 74 0 1 0 1
0 -46 116 120.99982 0 0 1 74 0 1 0 1
0 -46 118 122.99982 0 0 1 74 0 1 0 1
phys
0 -42 118 122.99982 0 0 1 74 0 1 0 1
0 -42 116 120.99982 0 0 1 74 0 1 0 1
0 -42 116 38.0004 0 0 1 74 0 1 0 1
phys
0 -42 118 122.99982 0 0 1 74 0 1 0 1
0 -42 116 38.0004 0 0 1 74 0 1 0 1
0 -42 118 36.0004 0 0 1 74 0 1 0 1
phys
0 144 152 8 0 0 1 75 0 1 0 1
0 144 168 8 0 0 1 75 0 1 0 1
0 144 152 -8.001 0 0 1 75 0 1 0 1
phys
0 191 152 -8.001 0 0 1 75 0 1 0 1
0 191 168 8 0 0 1 75 0 1 0 1
0 191 152 8 0 0 1 75 0 1 0 1
phys
0 191 152 8 0 0 1 75 0 1 0 1
0 191 168 8 0 0 1 75 0 1 0 1
0 144 168 8 0 0 1 75 0 1 0 1
phys
0 191 152 8 0 0 1 75 0 1 0 1
0 144 168 8 0 0 1 75 0 1 0 1
0 144 152 8 0 0 1 75 0 1 0 1
phys
0 144 152 -8.001 0 0 1 75 0 1 0 1
0 144 168 8 0 0 1 75 0 1 0 1
0 191 168 8 0 0 1 75 0 1 0 1
phys
0 144 152 -8.001 0 0 1 75 0 1 0 1
0 191 168 8 0 0 1 75 0 1 0 1
0 191 152 -8.001 0 0 1 75 0 1 0 1
phys
0 191 152 -8.001 0 0 1 75 0 1 0 1
0 191 152 8 0 0 1 75 0 1 0 1
0 144 152 8 0 0 1 75 0 1 0 1
phys
0 191 152 -8.001 0 0 1 75 0 1 0 1
0 144 152 8 0 0 1 75 0 1 0 1
0 144 152 -8.001 0 0 1 75 0 1 0 1
phys
0 148 -42 -92 0 0 1 76 0 1 0 1
0 92 -42 -92 0 0 1 76 0 1 0 1
0 94 -42 -90 0 0 1 76 0 1 0 1
phys
0 148 -42 -92 0 0 1 76 0 1 0 1
0 94 -42 -90 0 0 1 76 0 1 0 1
0 146 -42 -90 0 0 1 76 0 1 0 1
phys
0 146 -46 -90 0 0 1 76 0 1 0 1
0 94 -46 -90 0 0 1 76 0 1 0 1
0 92 -46 -92 0 0 1 76 0 1 0 1
phys
0 146 -46 -90 0 0 1 76 0 1 0 1
0 92 -46 -92 0 0 1 76 0 1 0 1
0 148 -46 -92 0 0 1 76 0 1 0 1
phys
0 148 -46 -92 0 0 1 76 0 1 0 1
0 92 -46 -92 0 0 1 76 0 1 0 1
0 92 -42 -92 0 0 1 76 0 1 0 1
phys
0 148 -46 -92 0 0 1 76 0 1 0 1
0 92 -42 -92 0 0 1 76 0 1 0 1
0 148 -42 -92 0 0 1 76 0 1 0 1
phys
0 94 -46 -90 0 0 1 76 0 1 0 1
0 146 -46 -90 0 0 1 76 0 1 0 1
0 146 -42 -90 0 0 1 76 0 1 0 1
phys
0 94 -46 -90 0 0 1 76 0 1 0 1
0 146 -42 -90 0 0 1 76 0 1 0 1
0 94 -42 -90 0 0 1 76 0 1 0 1
phys
0 146 -46 -90 0 0 1 76 0 1 0 1
0 148 -46 -92 0 0 1 76 0 1 0 1
0 148 -42 -92 0 0 1 76 0 1 0 1
phys
0 146 -46 -90 0 0 1 76 0 1 0 1
0 148 -42 -92 0 0 1 76 0 1 0 1
0 146 -42 -90 0 0 1 76 0 1 0 1
phys
0 92 -46 -92 0 0 1 76 0 1 0 1
0 94 -46 -90 0 0 1 76 0 1 0 1
0 94 -42 -90 0 0 1 76 0 1 0 1
phys
0 92 -46 -92 0 0 1 76 0 1 0 1
0 94 -42 -90 0 0 1 76 0 1 0 1
0 92 -42 -92 0 0 1 76 0 1 0 1
phys
0 191 56 -104.001 0 0 1 77 0 1 0 1
0 191 56 -88 0 0 1 77 0 1 0 1
0 144 56 -88 0 0 1 77 0 1 0 1
phys
0 191 56 -104.001 0 0 1 77 0 1 0 1
0 144 56 -88 0 0 1 77 0 1 0 1
0 144 56 -104.001 0 0 1 77 0 1 0 1
phys
0 144 56 -104.001 0 0 1 77 0 1 0 1
0 144 56 -88 0 0 1 77 0 1 0 1
0 144 72 -88 0 0 1 77 0 1 0 1
phys
0 191 56 -88 0 0 1 77 0 1 0 1
0 191 56 -104.001 0 0 1 77 0 1 0 1
0 191 72 -88 0 0 1 77 0 1 0 1
phys
0 144 56 -88 0 0 1 77 0 1 0 1
0 191 56 -88 0 0 1 77 0 1 0 1
0 191 72 -88 0 0 1 77 0 1 0 1
phys
0 144 56 -88 0 0 1 77 0 1 0 1
0 191 72 -88 0 0 1 77 0 1 0 1
0 144 72 -88 0 0 1 77 0 1 0 1
phys
0 191 56 -104.001 0 0 1 77 0 1 0 1
0 144 56 -104.001 0 0 1 77 0 1 0 1
0 144 72 -88 0 0 1 77 0 1 0 1
phys
0 191 56 -104.001 0 0 1 77 0 1 0 1
0 144 72 -88 0 0 1 77 0 1 0 1
0 191 72 -88 0 0 1 77 0 1 0 1
phys
0 -46 63 -133 0 0 1 78 0 1 0 1
0 -42 63 -133 0 0 1 78 0 1 0 1
0 -42 65 -135 0 0 1 78 0 1 0 1
phys
0 -46 63 -133 0 0 1 78 0 1 0 1
0 -42 65 -135 0 0 1 78 0 1 0 1
0 -46 65 -135 0 0 1 78 0 1 0 1
phys
0 -42 63 -220 0 0 1 78 0 1 0 1
0 -46 63 -220 0 0 1 78 0 1 0 1
0 -46 65 -218 0 0 1 78 0 1 0 1
phys
0 -42 63 -220 0 0 1 78 0 1 0 1
0 -46 65 -218 0 0 1 78 0 1 0 1
0 -42 65 -218 0 0 1 78 0 1 0 1
phys
0 -42 65 -218 0 0 1 78 0 1 0 1
0 -46 65 -218 0 0 1 78 0 1 0 1
0 -46 65 -135 0 0 1 78 0 1 0 1
phys
0 -42 65 -218 0 0 1 78 0 1 0 1
0 -46 65 -135 0 0 1 78 0 1 0 1
0 -42 65 -135 0 0 1 78 0 1 0 1
phys
0 -42 63 -133 0 0 1 78 0 1 0 1
0 -46 63 -133 0 0 1 78 0 1 0 1
0 -46 63 -220 0 0 1 78 0 1 0 1
phys
0 -42 63 -133 0 0 1 78 0 1 0 1
0 -46 63 -220 0 0 1 78 0 1 0 1
0 -42 63 -220 0 0 1 78 0 1 0 1
phys
0 -46 63 -133 0 0 1 78 0 1 0 1
0 -46 65 -135 0 0 1 78 0 1 0 1
0 -46 65 -218 0 0 1 78 0 1 0 1
phys
0 -46 63 -133 0 0 1 78 0 1 0 1
0 -46 65 -218 0 0 1 78 0 1 0 1
0 -46 63 -220 0 0 1 78 0 1 0 1
phys
0 -42 63 -220 0 0 1 78 0 1 0 1
0 -42 65 -218 0 0 1 78 0 1 0 1
0 -42 65 -135 0 0 1 78 0 1 0 1
phys
0 -42 63 -220 0 0 1 78 0 1 0 1
0 -42 65 -135 0 0 1 78 0 1 0 1
0 -42 63 -133 0 0 1 78 0 1 0 1
phys
0 -46 202 38 0 0 1 79 0 1 0 1
0 -46 253 38 0 0 1 79 0 1 0 1
0 -46 255 36 0 0 1 79 0 1 0 1
phys
0 -46 202 38 0 0 1 79 0 1 0 1
0 -46 255 36 0 0 1 79 0 1 0 1
0 -46 200 36 0 0 1 79 0 1 0 1
phys
0 -42 200 36 0 0 1 79 0 1 0 1
0 -42 255 36 0 0 1 79 0 1 0 1
0 -42 253 38 0 0 1 79 0 1 0 1
phys
0 -42 200 36 0 0 1 79 0 1 0 1
0 -42 253 38 0 0 1 79 0 1 0 1
0 -42 202 38 0 0 1 79 0 1 0 1
phys
0 -46 200 36 0 0 1 79 0 1 0 1
0 -46 255 36 0 0 1 79 0 1 0 1
0 -42 255 36 0 0 1 79 0 1 0 1
phys
0 -46 200 36 0 0 1 79 0 1 0 1
0 -42 255 36 0 0 1 79 0 1 0 1
0 -42 200 36 0 0 1 79 0 1 0 1
phys
0 -42 202 38 0 0 1 79 0 1 0 1
0 -42 253 38 0 0 1 79 0 1 0 1
0 -46 253 38 0 0 1 79 0 1 0 1
phys
0 -42 202 38 0 0 1 79 0 1 0 1
0 -46 253 38 0 0 1 79 0 1 0 1
0 -46 202 38 0 0 1 79 0 1 0 1
phys
0 -42 200 36 0 0 1 79 0 1 0 1
0 -42 202 38 0 0 1 79 0 1 0 1
0 -46 202 38 0 0 1 79 0 1 0 1
phys
0 -42 200 36 0 0 1 79 0 1 0 1
0 -46 202 38 0 0 1 79 0 1 0 1
0 -46 200 36 0 0 1 79 0 1 0 1
phys
0 -42 253 38 0 0 1 79 0 1 0 1
0 -42 255 36 0 0 1 79 0 1 0 1
0 -46 255 36 0 0 1 79 0 1 0 1
phys
0 -42 253 38 0 0 1 79 0 1 0 1
0 -46 255 36 0 0 1 79 0 1 0 1
0 -46 253 38 0 0 1 79 0 1 0 1
phys
0 191 106 -212 0 0 1 80 0 1 0 1
0 191 106 -196 0 0 1 80 0 1 0 1
0 144 106 -196 0 0 1 80 0 1 0 1
phys
0 191 106 -212 0 0 1 80 0 1 0 1
0 144 106 -196 0 0 1 80 0 1 0 1
0 144 106 -212 0 0 1 80 0 1 0 1
phys
0 144 106 -212 0 0 1 80 0 1 0 1
0 144 106 -196 0 0 1 80 0 1 0 1
0 144 122 -196 0 0 1 80 0 1 0 1
phys
0 191 106 -196 0 0 1 80 0 1 0 1
0 191 106 -212 0 0 1 80 0 1 0 1
0 191 122 -196 0 0 1 80 0 1 0 1
phys
0 144 106 -196 0 0 1 80 0 1 0 1
0 191 106 -196 0 0 1 80 0 1 0 1
0 191 122 -196 0 0 1 80 0 1 0 1
phys
0 144 106 -196 0 0 1 80 0 1 0 1
0 191 122 -196 0 0 1 80 0 1 0 1
0 144 122 -196 0 0 1 80 0 1 0 1
phys
0 191 106 -212 0 0 1 80 0 1 0 1
0 144 106 -212 0 0 1 80 0 1 0 1
0 144 122 -196 0 0 1 80 0 1 0 1
phys
0 191 106 -212 0 0 1 80 0 1 0 1
0 144 122 -196 0 0 1 80 0 1 0 1
0 191 122 -196 0 0 1 80 0 1 0 1
phys
0 -211 -142 -256 0 0 1 81 0 1 0 1
0 -225 -142 -256 0 0 1 81 0 1 0 1
0 -225 -142 -252 0 0 1 81 0 1 0 1
phys
0 -211 -142 -256 0 0 1 81 0 1 0 1
0 -225 -142 -252 0 0 1 81 0 1 0 1
0 -211 -142 -252 0 0 1 81 0 1 0 1
phys
0 -223 -172 -256 0 0 1 81 0 1 0 1
0 -225 -142 -256 0 0 1 81 0 1 0 1
0 -211 -142 -256 0 0 1 81 0 1 0 1
phys
0 -223 -172 -256 0 0 1 81 0 1 0 1
0 -211 -142 -256 0 0 1 81 0 1 0 1
0 -209 -168 -256 0 0 1 81 0 1 0 1
phys
0 -209 -168 -252 0 0 1 81 0 1 0 1
0 -211 -142 -252 0 0 1 81 0 1 0 1
0 -225 -142 -252 0 0 1 81 0 1 0 1
phys
0 -209 -168 -252 0 0 1 81 0 1 0 1
0 -225 -142 -252 0 0 1 81 0 1 0 1
0 -223 -172 -252 0 0 1 81 0 1 0 1
phys
0 -209 -168 -256 0 0 1 81 0 1 0 1
0 -211 -142 -256 0 0 1 81 0 1 0 1
0 -211 -142 -252 0 0 1 81 0 1 0 1
phys
0 -209 -168 -256 0 0 1 81 0 1 0 1
0 -211 -142 -252 0 0 1 81 0 1 0 1
0 -209 -168 -252 0 0 1 81 0 1 0 1
phys
0 -223 -172 -252 0 0 1 81 0 1 0 1
0 -225 -142 -252 0 0 1 81 0 1 0 1
0 -225 -142 -256 0 0 1 81 0 1 0 1
phys
0 -223 -172 -252 0 0 1 81 0 1 0 1
0 -225 -142 -256 0 0 1 81 0 1 0 1
0 -223 -172 -256 0 0 1 81 0 1 0 1
phys
0 -209 -168 -252 0 0 1 81 0 1 0 1
0 -223 -172 -252 0 0 1 81 0 1 0 1
0 -223 -172 -256 0 0 1 81 0 1 0 1
phys
0 -209 -168 -252 0 0 1 81 0 1 0 1
0 -223 -172 -256 0 0 1 81 0 1 0 1
0 -209 -168 -256 0 0 1 81 0 1 0 1
phys
0 148 -46 -133 0 0 1 82 0 1 0 1
0 92 -46 -133 0 0 1 82 0 1 0 1
0 94 -46 -135 0 0 1 82 0 1 0 1
phys
0 148 -46 -133 0 0 1 82 0 1 0 1
0 94 -46 -135 0 0 1 82 0 1 0 1
0 146 -46 -135 0 0 1 82 0 1 0 1
phys
0 146 -46 -135 0 0 1 82 0 1 0 1
0 94 -46 -135 0 0 1 82 0 1 0 1
0 94 -42 -135 0 0 1 82 0 1 0 1
phys
0 146 -46 -135 0 0 1 82 0 1 0 1
0 94 -42 -135 0 0 1 82 0 1 0 1
0 146 -42 -135 0 0 1 82 0 1 0 1
phys
0 92 -46 -133 0 0 1 82 0 1 0 1
0 148 -46 -133 0 0 1 82 0 1 0 1
0 148 -42 -133 0 0 1 82 0 1 0 1
phys
0 92 -46 -133 0 0 1 82 0 1 0 1
0 148 -42 -133 0 0 1 82 0 1 0 1
0 92 -42 -133 0 0 1 82 0 1 0 1
phys
0 148 -46 -133 0 0 1 82 0 1 0 1
0 146 -46 -135 0 0 1 82 0 1 0 1
0 146 -42 -135 0 0 1 82 0 1 0 1
phys
0 148 -46 -133 0 0 1 82 0 1 0 1
0 146 -42 -135 0 0 1 82 0 1 0 1
0 148 -42 -133 0 0 1 82 0 1 0 1
phys
0 94 -46 -135 0 0 1 82 0 1 0 1
0 92 -46 -133 0 0 1 82 0 1 0 1
0 92 -42 -133 0 0 1 82 0 1 0 1
phys
0 94 -46 -135 0 0 1 82 0 1 0 1
0 92 -42 -133 0 0 1 82 0 1 0 1
0 94 -42 -135 0 0 1 82 0 1 0 1
phys
0 146 -42 -135 0 0 1 82 0 1 0 1
0 94 -42 -135 0 0 1 82 0 1 0 1
0 92 -42 -133 0 0 1 82 0 1 0 1
phys
0 146 -42 -135 0 0 1 82 0 1 0 1
0 92 -42 -133 0 0 1 82 0 1 0 1
0 148 -42 -133 0 0 1 82 0 1 0 1
end
