version 1
nodes
0 "root" -1
end
skeleton
time 0
0 0 0 0 0 0 0
end
triangles
bridge_se1_metal_flat_steel_01
0 333 -46 103 0 1 0 108.234375 -0.242188 1 0 1
0 333 -46 99 0 1 0 108.234375 -0.273438 1 0 1
0 319 -46 99 0 1 0 108.34375 -0.273438 1 0 1
bridge_se1_metal_flat_steel_01
0 333 -46 103 0 1 0 108.234375 -0.242188 1 0 1
0 319 -46 99 0 1 0 108.34375 -0.273438 1 0 1
0 319 -46 103 0 1 0 108.34375 -0.242188 1 0 1
bridge_se1_metal_flat_steel_01
0 333 -150 99 0 -1 0 108.234375 -0.273438 1 0 1
0 333 -150 103 0 -1 0 108.234375 -0.242188 1 0 1
0 319 -150 103 0 -1 0 108.34375 -0.242188 1 0 1
bridge_se1_metal_flat_steel_01
0 333 -150 99 0 -1 0 108.234375 -0.273438 1 0 1
0 319 -150 103 0 -1 0 108.34375 -0.242188 1 0 1
0 319 -150 99 0 -1 0 108.34375 -0.273438 1 0 1
bridge_se1_metal_flat_steel_01
0 319 -150 99 -1 0 0 1.101562 -11.140625 1 0 1
0 319 -150 103 -1 0 0 1.070312 -11.140625 1 0 1
0 319 -46 103 -1 0 0 1.070312 -10.328125 1 0 1
bridge_se1_metal_flat_steel_01
0 319 -150 99 -1 0 0 1.101562 -11.140625 1 0 1
0 319 -46 103 -1 0 0 1.070312 -10.328125 1 0 1
0 319 -46 99 -1 0 0 1.101562 -10.328125 1 0 1
bridge_se1_metal_flat_steel_01
0 333 -150 103 1 0 0 1.070312 -11.140625 1 0 1
0 333 -150 99 1 0 0 1.101562 -11.140625 1 0 1
0 333 -46 99 1 0 0 1.101562 -10.328125 1 0 1
bridge_se1_metal_flat_steel_01
0 333 -150 103 1 0 0 1.070312 -11.140625 1 0 1
0 333 -46 99 1 0 0 1.101562 -10.328125 1 0 1
0 333 -46 103 1 0 0 1.070312 -10.328125 1 0 1
bridge_se1_metal_flat_steel_01
0 333 -150 99 0 0 -1 -108.789062 -11.140625 1 0 1
0 319 -150 99 0 0 -1 -108.898438 -11.140625 1 0 1
0 319 -46 99 0 0 -1 -108.898438 -10.328125 1 0 1
bridge_se1_metal_flat_steel_01
0 333 -150 99 0 0 -1 -108.789062 -11.140625 1 0 1
0 319 -46 99 0 0 -1 -108.898438 -10.328125 1 0 1
0 333 -46 99 0 0 -1 -108.789062 -10.328125 1 0 1
bridge_se1_metal_flat_steel_01
0 319 -150 103 0 0 1 11.414062 -108.101562 1 0 1
0 333 -150 103 0 0 1 11.414062 -107.992188 1 0 1
0 333 -46 103 0 0 1 10.601562 -107.992188 1 0 1
bridge_se1_metal_flat_steel_01
0 319 -150 103 0 0 1 11.414062 -108.101562 1 0 1
0 333 -46 103 0 0 1 10.601562 -107.992188 1 0 1
0 319 -46 103 0 0 1 10.601562 -108.101562 1 0 1
bridge_se1_metal_flat_steel_01
0 333 -154 -9 1 0 0 1.945312 -11.171875 1 0 1
0 333 -150 -9 1 0 0 1.945312 -11.140625 1 0 1
0 333 -150 103 1 0 0 1.070312 -11.140625 1 0 1
bridge_se1_metal_flat_steel_01
0 333 -154 -9 1 0 0 1.945312 -11.171875 1 0 1
0 333 -150 103 1 0 0 1.070312 -11.140625 1 0 1
0 333 -154 103 1 0 0 1.070312 -11.171875 1 0 1
bridge_se1_metal_flat_steel_01
0 327 -150 -9 0 0 -1 -11.414062 -108.039062 1 0 1
0 333 -150 -9 0 0 -1 -11.414062 -107.992188 1 0 1
0 333 -154 -9 0 0 -1 -11.445312 -107.992188 1 0 1
bridge_se1_metal_flat_steel_01
0 327 -150 -9 0 0 -1 -11.414062 -108.039062 1 0 1
0 333 -154 -9 0 0 -1 -11.445312 -107.992188 1 0 1
0 327 -154 -9 0 0 -1 -11.445312 -108.039062 1 0 1
bridge_se1_metal_flat_steel_01
0 327 -154 103 0 0 1 11.445312 -108.039062 1 0 1
0 333 -154 103 0 0 1 11.445312 -107.992188 1 0 1
0 333 -150 103 0 0 1 11.414062 -107.992188 1 0 1
bridge_se1_metal_flat_steel_01
0 327 -154 103 0 0 1 11.445312 -108.039062 1 0 1
0 333 -150 103 0 0 1 11.414062 -107.992188 1 0 1
0 327 -150 103 0 0 1 11.414062 -108.039062 1 0 1
bridge_se1_metal_flat_steel_01
0 333 -150 103 0 1 0 1.070312 -107.03125 1 0 1
0 333 -150 -9 0 1 0 1.945312 -107.03125 1 0 1
0 327 -150 -9 0 1 0 1.945312 -107.078125 1 0 1
bridge_se1_metal_flat_steel_01
0 333 -150 103 0 1 0 1.070312 -107.03125 1 0 1
0 327 -150 -9 0 1 0 1.945312 -107.078125 1 0 1
0 327 -150 103 0 1 0 1.070312 -107.078125 1 0 1
bridge_se1_metal_flat_steel_01
0 333 -154 -9 0 -1 0 -2.570312 -107.246094 1 0 1
0 333 -154 103 0 -1 0 -1.695312 -107.246094 1 0 1
0 327 -154 103 0 -1 0 -1.695312 -107.292969 1 0 1
bridge_se1_metal_flat_steel_01
0 333 -154 -9 0 -1 0 -2.570312 -107.246094 1 0 1
0 327 -154 103 0 -1 0 -1.695312 -107.292969 1 0 1
0 327 -154 -9 0 -1 0 -2.570312 -107.292969 1 0 1
bridge_se1_metal_flat_steel_01
0 327 -154 103 -1 0 0 12.039062 -0.1875 1 0 1
0 327 -150 103 -1 0 0 12.007812 -0.1875 1 0 1
0 327 -150 -9 -1 0 0 12.007812 -1.0625 1 0 1
bridge_se1_metal_flat_steel_01
0 327 -154 103 -1 0 0 12.039062 -0.1875 1 0 1
0 327 -150 -9 -1 0 0 12.007812 -1.0625 1 0 1
0 327 -154 -9 -1 0 0 12.039062 -1.0625 1 0 1
nmrih_nmrih_hospital_wall_01b
0 64 -16 -9 0 -1 0 -110.777344 -1 1 0 1
0 64 -16 9 0 -1 0 -110.777344 -0.859375 1 0 1
0 -65 -16 9 0 -1 0 -111.785156 -0.859375 1 0 1
nmrih_nmrih_hospital_wall_01b
0 64 -16 -9 0 -1 0 -110.777344 -1 1 0 1
0 -65 -16 9 0 -1 0 -111.785156 -0.859375 1 0 1
0 -65 -16 -9 0 -1 0 -111.785156 -1 1 0 1
nmrih_nmrih_hospital_wall_01b
0 -65 -16 -9 -1 0 0 11.191406 -1 1 0 1
0 -65 -16 9 -1 0 0 11.191406 -0.859375 1 0 1
0 -65 16 9 -1 0 0 10.941406 -0.859375 1 0 1
nmrih_nmrih_hospital_wall_01b
0 -65 -16 -9 -1 0 0 11.191406 -1 1 0 1
0 -65 16 9 -1 0 0 10.941406 -0.859375 1 0 1
0 -65 16 -9 -1 0 0 10.941406 -1 1 0 1
nmrih_nmrih_hospital_wall_01b
0 64 -16 9 1 0 0 11.191406 -0.859375 1 0 1
0 64 -16 -9 1 0 0 11.191406 -1 1 0 1
0 64 16 -9 1 0 0 10.941406 -1 1 0 1
nmrih_nmrih_hospital_wall_01b
0 64 -16 9 1 0 0 11.191406 -0.859375 1 0 1
0 64 16 -9 1 0 0 10.941406 -1 1 0 1
0 64 16 9 1 0 0 10.941406 -0.859375 1 0 1
bridge_se1_metal_flat_steel_01
0 323 -150 103 0 1 0 1.070312 -107.109375 1 0 1
0 323 -150 -9 0 1 0 1.945312 -107.109375 1 0 1
0 319 -150 -9 0 1 0 1.945312 -107.140625 1 0 1
bridge_se1_metal_flat_steel_01
0 323 -150 103 0 1 0 1.070312 -107.109375 1 0 1
0 319 -150 -9 0 1 0 1.945312 -107.140625 1 0 1
0 319 -150 103 0 1 0 1.070312 -107.140625 1 0 1
pepsi2_arch_metal_grate01
0 323 -154 -9 0 -1 0 -54.535156 -10.75 1 0 1
0 323 -154 103 0 -1 0 -54.535156 -7.25 1 0 1
0 319 -154 103 0 -1 0 -54.550781 -7.25 1 0 1
pepsi2_arch_metal_grate01
0 323 -154 -9 0 -1 0 -54.535156 -10.75 1 0 1
0 319 -154 103 0 -1 0 -54.550781 -7.25 1 0 1
0 319 -154 -9 0 -1 0 -54.550781 -10.75 1 0 1
bridge_se1_metal_flat_steel_01
0 319 -154 -9 -1 0 0 1.945312 -11.171875 1 0 1
0 319 -154 103 -1 0 0 1.070312 -11.171875 1 0 1
0 319 -150 103 -1 0 0 1.070312 -11.140625 1 0 1
bridge_se1_metal_flat_steel_01
0 319 -154 -9 -1 0 0 1.945312 -11.171875 1 0 1
0 319 -150 103 -1 0 0 1.070312 -11.140625 1 0 1
0 319 -150 -9 -1 0 0 1.945312 -11.140625 1 0 1
intro_se1_metal_stainless_generic_01
0 323 -154 103 1 0 0 12.039062 -0.1875 1 0 1
0 323 -154 -9 1 0 0 12.039062 -1.0625 1 0 1
0 323 -150 -9 1 0 0 12.007812 -1.0625 1 0 1
intro_se1_metal_stainless_generic_01
0 323 -154 103 1 0 0 12.039062 -0.1875 1 0 1
0 323 -150 -9 1 0 0 12.007812 -1.0625 1 0 1
0 323 -150 103 1 0 0 12.007812 -0.1875 1 0 1
pepsi2_arch_metal_grate01
0 323 -154 -9 0 0 -1 -6.058594 436.40625 1 0 1
0 319 -154 -9 0 0 -1 -6.058594 436.53125 1 0 1
0 319 -150 -9 0 0 -1 -6.042969 436.53125 1 0 1
pepsi2_arch_metal_grate01
0 323 -154 -9 0 0 -1 -6.058594 436.40625 1 0 1
0 319 -150 -9 0 0 -1 -6.042969 436.53125 1 0 1
0 323 -150 -9 0 0 -1 -6.042969 436.40625 1 0 1
pepsi2_arch_metal_grate01
0 319 -154 103 0 0 1 -6.058594 436.53125 1 0 1
0 323 -154 103 0 0 1 -6.058594 436.40625 1 0 1
0 323 -150 103 0 0 1 -6.042969 436.40625 1 0 1
pepsi2_arch_metal_grate01
0 319 -154 103 0 0 1 -6.058594 436.53125 1 0 1
0 323 -150 103 0 0 1 -6.042969 436.40625 1 0 1
0 319 -150 103 0 0 1 -6.042969 436.53125 1 0 1
signs_hospital_ceiling_signage
0 90 -223 119 0 1 0 -110.285156 -0.015625 1 0 1
0 90 -223 117 0 1 0 -110.285156 -0.03125 1 0 1
0 35 -223 117 0 1 0 -110.714844 -0.03125 1 0 1
signs_hospital_ceiling_signage
0 90 -223 119 0 1 0 -110.285156 -0.015625 1 0 1
0 35 -223 117 0 1 0 -110.714844 -0.03125 1 0 1
0 35 -223 119 0 1 0 -110.714844 -0.015625 1 0 1
signs_hospital_ceiling_signage
0 90 -225 117 0 -1 0 -110.285156 -0.03125 1 0 1
0 90 -225 119 0 -1 0 -110.285156 -0.015625 1 0 1
0 35 -225 119 0 -1 0 -110.714844 -0.015625 1 0 1
signs_hospital_ceiling_signage
0 90 -225 117 0 -1 0 -110.285156 -0.03125 1 0 1
0 35 -225 119 0 -1 0 -110.714844 -0.015625 1 0 1
0 35 -225 117 0 -1 0 -110.714844 -0.03125 1 0 1
signs_hospital_ceiling_signage
0 35 -225 117 -1 0 0 -12.730469 -0.03125 1 0 1
0 35 -225 119 -1 0 0 -12.730469 -0.015625 1 0 1
0 35 -223 119 -1 0 0 -12.714844 -0.015625 1 0 1
signs_hospital_ceiling_signage
0 35 -225 117 -1 0 0 -12.730469 -0.03125 1 0 1
0 35 -223 119 -1 0 0 -12.714844 -0.015625 1 0 1
0 35 -223 117 -1 0 0 -12.714844 -0.03125 1 0 1
signs_hospital_ceiling_signage
0 90 -225 119 1 0 0 12.730469 -0.015625 1 0 1
0 90 -225 117 1 0 0 12.730469 -0.03125 1 0 1
0 90 -223 117 1 0 0 12.714844 -0.03125 1 0 1
signs_hospital_ceiling_signage
0 90 -225 119 1 0 0 12.730469 -0.015625 1 0 1
0 90 -223 117 1 0 0 12.714844 -0.03125 1 0 1
0 90 -223 119 1 0 0 12.714844 -0.015625 1 0 1
bridge_se1_metal_flat_steel_01
0 293 32 103 0 1 0 108.875 -0.242188 1 0 1
0 293 32 23 0 1 0 108.875 -0.867188 1 0 1
0 289 32 23 0 1 0 108.90625 -0.867188 1 0 1
bridge_se1_metal_flat_steel_01
0 293 32 103 0 1 0 108.875 -0.242188 1 0 1
0 289 32 23 0 1 0 108.90625 -0.867188 1 0 1
0 289 32 103 0 1 0 108.90625 -0.242188 1 0 1
bridge_se1_metal_flat_steel_01
0 293 16 23 0 -1 0 108.875 -0.867188 1 0 1
0 293 16 103 0 -1 0 108.875 -0.242188 1 0 1
0 289 16 103 0 -1 0 108.90625 -0.242188 1 0 1
bridge_se1_metal_flat_steel_01
0 293 16 23 0 -1 0 108.875 -0.867188 1 0 1
0 289 16 103 0 -1 0 108.90625 -0.242188 1 0 1
0 289 16 23 0 -1 0 108.90625 -0.867188 1 0 1
bridge_se1_metal_flat_steel_01
0 289 16 23 -1 0 0 11.03125 -0.867188 1 0 1
0 289 16 103 -1 0 0 11.03125 -0.242188 1 0 1
0 289 32 103 -1 0 0 10.90625 -0.242188 1 0 1
bridge_se1_metal_flat_steel_01
0 289 16 23 -1 0 0 11.03125 -0.867188 1 0 1
0 289 32 103 -1 0 0 10.90625 -0.242188 1 0 1
0 289 32 23 -1 0 0 10.90625 -0.867188 1 0 1
concrete_concretewall001
0 277 32 201 0 0 1 -72.341797 -19.324219 1 0 1
0 469 32 201 0 0 1 -71.341797 -19.324219 1 0 1
0 469 40 201 0 0 1 -71.341797 -19.199219 1 0 1
concrete_concretewall001
0 277 32 201 0 0 1 -72.341797 -19.324219 1 0 1
0 469 40 201 0 0 1 -71.341797 -19.199219 1 0 1
0 277 40 201 0 0 1 -72.341797 -19.199219 1 0 1
glass_sign_emergency01
0 277 40 161 0 1 0 72 -4.001563 1 0 1
0 277 40 201 0 1 0 72 -3.001563 1 0 1
0 469 40 201 0 1 0 71 -3.001563 1 0 1
glass_sign_emergency01
0 277 40 161 0 1 0 72 -4.001563 1 0 1
0 469 40 201 0 1 0 71 -3.001563 1 0 1
0 469 40 161 0 1 0 71 -4.001563 1 0 1
concrete_concretewall001
0 277 32 161 -1 0 0 -0.551432 -19.324219 1 0 1
0 277 32 201 -1 0 0 -0.343099 -19.324219 1 0 1
0 277 40 201 -1 0 0 -0.343099 -19.199219 1 0 1
concrete_concretewall001
0 277 32 161 -1 0 0 -0.551432 -19.324219 1 0 1
0 277 40 201 -1 0 0 -0.343099 -19.199219 1 0 1
0 277 40 161 -1 0 0 -0.551432 -19.199219 1 0 1
concrete_concretewall001
0 469 40 161 1 0 0 0.865885 -19.199219 1 0 1
0 469 40 201 1 0 0 0.657552 -19.199219 1 0 1
0 469 32 201 1 0 0 0.657552 -19.324219 1 0 1
concrete_concretewall001
0 469 40 161 1 0 0 0.865885 -19.199219 1 0 1
0 469 32 201 1 0 0 0.657552 -19.324219 1 0 1
0 469 32 161 1 0 0 0.865885 -19.324219 1 0 1
concrete_concretewall001
0 469 32 161 0 0 -1 -71.341797 -19.324219 1 0 1
0 277 32 161 0 0 -1 -72.341797 -19.324219 1 0 1
0 277 40 161 0 0 -1 -72.341797 -19.199219 1 0 1
concrete_concretewall001
0 469 32 161 0 0 -1 -71.341797 -19.324219 1 0 1
0 277 40 161 0 0 -1 -72.341797 -19.199219 1 0 1
0 469 40 161 0 0 -1 -71.341797 -19.199219 1 0 1
pepsi2_arch_metal_grate01
0 323 -42 103 0 1 0 54.535156 -7.25 1 0 1
0 323 -42 -9 0 1 0 54.535156 -10.75 1 0 1
0 319 -42 -9 0 1 0 54.550781 -10.75 1 0 1
pepsi2_arch_metal_grate01
0 323 -42 103 0 1 0 54.535156 -7.25 1 0 1
0 319 -42 -9 0 1 0 54.550781 -10.75 1 0 1
0 319 -42 103 0 1 0 54.550781 -7.25 1 0 1
bridge_se1_metal_flat_steel_01
0 323 -46 -9 0 -1 0 1.945312 109.640625 1 0 1
0 323 -46 103 0 -1 0 1.070312 109.640625 1 0 1
0 319 -46 103 0 -1 0 1.070312 109.671875 1 0 1
bridge_se1_metal_flat_steel_01
0 323 -46 -9 0 -1 0 1.945312 109.640625 1 0 1
0 319 -46 103 0 -1 0 1.070312 109.671875 1 0 1
0 319 -46 -9 0 -1 0 1.945312 109.671875 1 0 1
bridge_se1_metal_flat_steel_01
0 319 -46 -9 -1 0 0 1.945312 -10.328125 1 0 1
0 319 -46 103 -1 0 0 1.070312 -10.328125 1 0 1
0 319 -42 103 -1 0 0 1.070312 -10.296875 1 0 1
bridge_se1_metal_flat_steel_01
0 319 -46 -9 -1 0 0 1.945312 -10.328125 1 0 1
0 319 -42 103 -1 0 0 1.070312 -10.296875 1 0 1
0 319 -42 -9 -1 0 0 1.945312 -10.296875 1 0 1
intro_se1_metal_stainless_generic_01
0 323 -46 103 1 0 0 -10.65625 -0.125 1 0 1
0 323 -46 -9 1 0 0 -10.65625 -1 1 0 1
0 323 -42 -9 1 0 0 -10.625 -1 1 0 1
intro_se1_metal_stainless_generic_01
0 323 -46 103 1 0 0 -10.65625 -0.125 1 0 1
0 323 -42 -9 1 0 0 -10.625 -1 1 0 1
0 323 -42 103 1 0 0 -10.625 -0.125 1 0 1
pepsi2_arch_metal_grate01
0 323 -46 -9 0 0 -1 -5.636719 436.40625 1 0 1
0 319 -46 -9 0 0 -1 -5.636719 436.53125 1 0 1
0 319 -42 -9 0 0 -1 -5.621094 436.53125 1 0 1
pepsi2_arch_metal_grate01
0 323 -46 -9 0 0 -1 -5.636719 436.40625 1 0 1
0 319 -42 -9 0 0 -1 -5.621094 436.53125 1 0 1
0 323 -42 -9 0 0 -1 -5.621094 436.40625 1 0 1
pepsi2_arch_metal_grate01
0 319 -46 103 0 0 1 -5.636719 436.53125 1 0 1
0 323 -46 103 0 0 1 -5.636719 436.40625 1 0 1
0 323 -42 103 0 0 1 -5.621094 436.40625 1 0 1
pepsi2_arch_metal_grate01
0 319 -46 103 0 0 1 -5.636719 436.53125 1 0 1
0 323 -42 103 0 0 1 -5.621094 436.40625 1 0 1
0 319 -42 103 0 0 1 -5.621094 436.53125 1 0 1
wood_offdesktop
0 -70 -21 12 0 0 1 -224.03125 -10.335938 1 0 1
0 69 -21 12 0 0 1 -221.859375 -10.335938 1 0 1
0 69 16 12 0 0 1 -221.859375 -10.046875 1 0 1
wood_offdesktop
0 -70 -21 12 0 0 1 -224.03125 -10.335938 1 0 1
0 69 16 12 0 0 1 -221.859375 -10.046875 1 0 1
0 -70 16 12 0 0 1 -224.03125 -10.046875 1 0 1
wood_offdesktop
0 69 -21 9 0 -1 0 -221.859375 -1.359375 1 0 1
0 69 -21 12 0 -1 0 -221.859375 -1.335938 1 0 1
0 -70 -21 12 0 -1 0 -224.03125 -1.335938 1 0 1
wood_offdesktop
0 69 -21 9 0 -1 0 -221.859375 -1.359375 1 0 1
0 -70 -21 12 0 -1 0 -224.03125 -1.335938 1 0 1
0 -70 -21 9 0 -1 0 -224.03125 -1.359375 1 0 1
wood_offdesktop
0 -70 -21 9 -1 0 0 -5.078125 -10.335938 1 0 1
0 -70 -21 12 -1 0 0 -5.03125 -10.335938 1 0 1
0 -70 16 12 -1 0 0 -5.03125 -10.046875 1 0 1
wood_offdesktop
0 -70 -21 9 -1 0 0 -5.078125 -10.335938 1 0 1
0 -70 16 12 -1 0 0 -5.03125 -10.046875 1 0 1
0 -70 16 9 -1 0 0 -5.078125 -10.046875 1 0 1
wood_offdesktop
0 69 16 9 1 0 0 5.1875 -10.046875 1 0 1
0 69 16 12 1 0 0 5.140625 -10.046875 1 0 1
0 69 -21 12 1 0 0 5.140625 -10.335938 1 0 1
wood_offdesktop
0 69 16 9 1 0 0 5.1875 -10.046875 1 0 1
0 69 -21 12 1 0 0 5.140625 -10.335938 1 0 1
0 69 -21 9 1 0 0 5.1875 -10.335938 1 0 1
wood_offdesktop
0 69 -21 9 0 0 -1 -221.859375 11.640625 1 0 1
0 -70 -21 9 0 0 -1 -224.03125 11.640625 1 0 1
0 -70 16 9 0 0 -1 -224.03125 11.351562 1 0 1
wood_offdesktop
0 69 -21 9 0 0 -1 -221.859375 11.640625 1 0 1
0 -70 16 9 0 0 -1 -224.03125 11.351562 1 0 1
0 69 16 9 0 0 -1 -221.859375 11.351562 1 0 1
signs_hospital_ceiling_signage
0 90 -225 107 0 -1 0 -110.285156 -0.539062 1 0 1
0 90 -225 117 0 -1 0 -110.285156 -0.460938 1 0 1
0 35 -225 117 0 -1 0 -110.714844 -0.460938 1 0 1
signs_hospital_ceiling_signage
0 90 -225 107 0 -1 0 -110.285156 -0.539062 1 0 1
0 35 -225 117 0 -1 0 -110.714844 -0.460938 1 0 1
0 35 -225 107 0 -1 0 -110.714844 -0.539062 1 0 1
signs_hospital_ceiling_signage
0 35 -225 107 -1 0 0 12.285156 -0.539062 1 0 1
0 35 -225 117 -1 0 0 12.285156 -0.460938 1 0 1
0 35 -223 117 -1 0 0 12.269531 -0.460938 1 0 1
signs_hospital_ceiling_signage
0 35 -225 107 -1 0 0 12.285156 -0.539062 1 0 1
0 35 -223 117 -1 0 0 12.269531 -0.460938 1 0 1
0 35 -223 107 -1 0 0 12.269531 -0.539062 1 0 1
signs_hospital_ceiling_signage
0 90 -225 117 1 0 0 -12.285156 -0.460938 1 0 1
0 90 -225 107 1 0 0 -12.285156 -0.539062 1 0 1
0 90 -223 107 1 0 0 -12.269531 -0.539062 1 0 1
signs_hospital_ceiling_signage
0 90 -225 117 1 0 0 -12.285156 -0.460938 1 0 1
0 90 -223 107 1 0 0 -12.269531 -0.539062 1 0 1
0 90 -223 117 1 0 0 -12.269531 -0.460938 1 0 1
signs_hospital_ceiling_signage
0 90 -225 107 0 0 -1 110.130859 -11.998047 1 0 1
0 35 -225 107 0 0 -1 110.560547 -11.998047 1 0 1
0 35 -223 107 0 0 -1 110.560547 -11.982422 1 0 1
signs_hospital_ceiling_signage
0 90 -225 107 0 0 -1 110.130859 -11.998047 1 0 1
0 35 -223 107 0 0 -1 110.560547 -11.982422 1 0 1
0 90 -223 107 0 0 -1 110.130859 -11.982422 1 0 1
signs_hospital_ceiling_signage
0 90 -223 117 0 1 0 110.162109 -0.398438 1 0 1
0 90 -223 107 0 1 0 110.162109 -0.476562 1 0 1
0 35 -223 107 0 1 0 110.591797 -0.476562 1 0 1
signs_hospital_ceiling_signage
0 90 -223 117 0 1 0 110.162109 -0.398438 1 0 1
0 35 -223 107 0 1 0 110.591797 -0.476562 1 0 1
0 35 -223 117 0 1 0 110.591797 -0.398438 1 0 1
bridge_se1_metal_flat_steel_01
0 333 -42 103 0 1 0 108.234375 -0.242188 1 0 1
0 333 -42 -9 0 1 0 108.234375 -1.117188 1 0 1
0 327 -42 -9 0 1 0 108.28125 -1.117188 1 0 1
bridge_se1_metal_flat_steel_01
0 333 -42 103 0 1 0 108.234375 -0.242188 1 0 1
0 327 -42 -9 0 1 0 108.28125 -1.117188 1 0 1
0 327 -42 103 0 1 0 108.28125 -0.242188 1 0 1
bridge_se1_metal_flat_steel_01
0 333 -46 -9 0 -1 0 108.3125 -1.0625 1 0 1
0 333 -46 103 0 -1 0 108.3125 -0.1875 1 0 1
0 327 -46 103 0 -1 0 108.359375 -0.1875 1 0 1
bridge_se1_metal_flat_steel_01
0 333 -46 -9 0 -1 0 108.3125 -1.0625 1 0 1
0 327 -46 103 0 -1 0 108.359375 -0.1875 1 0 1
0 327 -46 -9 0 -1 0 108.359375 -1.0625 1 0 1
bridge_se1_metal_flat_steel_01
0 327 -46 -9 -1 0 0 -11.179688 -1.0625 1 0 1
0 327 -46 103 -1 0 0 -11.179688 -0.1875 1 0 1
0 327 -42 103 -1 0 0 -11.148438 -0.1875 1 0 1
bridge_se1_metal_flat_steel_01
0 327 -46 -9 -1 0 0 -11.179688 -1.0625 1 0 1
0 327 -42 103 -1 0 0 -11.148438 -0.1875 1 0 1
0 327 -42 -9 -1 0 0 -11.148438 -1.0625 1 0 1
bridge_se1_metal_flat_steel_01
0 333 -46 103 1 0 0 1.070312 -10.328125 1 0 1
0 333 -46 -9 1 0 0 1.945312 -10.328125 1 0 1
0 333 -42 -9 1 0 0 1.945312 -10.296875 1 0 1
bridge_se1_metal_flat_steel_01
0 333 -46 103 1 0 0 1.070312 -10.328125 1 0 1
0 333 -42 -9 1 0 0 1.945312 -10.296875 1 0 1
0 333 -42 103 1 0 0 1.070312 -10.296875 1 0 1
bridge_se1_metal_flat_steel_01
0 333 -46 -9 0 0 -1 -10.601562 -107.992188 1 0 1
0 327 -46 -9 0 0 -1 -10.601562 -108.039062 1 0 1
0 327 -42 -9 0 0 -1 -10.570312 -108.039062 1 0 1
bridge_se1_metal_flat_steel_01
0 333 -46 -9 0 0 -1 -10.601562 -107.992188 1 0 1
0 327 -42 -9 0 0 -1 -10.570312 -108.039062 1 0 1
0 333 -42 -9 0 0 -1 -10.570312 -107.992188 1 0 1
bridge_se1_metal_flat_steel_01
0 327 -46 103 0 0 1 10.601562 -108.039062 1 0 1
0 333 -46 103 0 0 1 10.601562 -107.992188 1 0 1
0 333 -42 103 0 0 1 10.570312 -107.992188 1 0 1
bridge_se1_metal_flat_steel_01
0 327 -46 103 0 0 1 10.601562 -108.039062 1 0 1
0 333 -42 103 0 0 1 10.570312 -107.992188 1 0 1
0 327 -42 103 0 0 1 10.570312 -108.039062 1 0 1
end
