version 1
nodes
0 "root" -1
end
skeleton
time 0
0 0 0 0 0 0 0
end
triangles
bridge_se1_metal_flat_steel_01
0 16 4 230 1 0 0 6.90625 2.582031 1 0 1
0 16 4 215 1 0 0 6.90625 2.699219 1 0 1
0 16 324 215 1 0 0 4.40625 2.699219 1 0 1
bridge_se1_metal_flat_steel_01
0 16 4 230 1 0 0 6.90625 2.582031 1 0 1
0 16 324 215 1 0 0 4.40625 2.699219 1 0 1
0 16 324 230 1 0 0 4.40625 2.582031 1 0 1
bridge_se1_metal_flat_steel_01
0 -12 -406 72 -1 0 0 10.185547 -1.40625 1 0 1
0 -12 -406 87 -1 0 0 10.185547 -1.289062 1 0 1
0 -12 -6 87 -1 0 0 7.060547 -1.289062 1 0 1
bridge_se1_metal_flat_steel_01
0 -12 -406 72 -1 0 0 10.185547 -1.40625 1 0 1
0 -12 -6 87 -1 0 0 7.060547 -1.289062 1 0 1
0 -12 -6 72 -1 0 0 7.060547 -1.40625 1 0 1
bridge_se1_metal_flat_steel_01
0 -12 -406 87 0 0 1 10.185547 -89.289062 1 0 1
0 8 -406 87 0 0 1 10.185547 -89.132812 1 0 1
0 8 -6 87 0 0 1 7.060547 -89.132812 1 0 1
bridge_se1_metal_flat_steel_01
0 -12 -406 87 0 0 1 10.185547 -89.289062 1 0 1
0 8 -6 87 0 0 1 7.060547 -89.132812 1 0 1
0 -12 -6 87 0 0 1 7.060547 -89.289062 1 0 1
bridge_se1_metal_flat_steel_01
0 16 -326 230 1 0 0 9.484375 2.582031 1 0 1
0 16 -326 215 1 0 0 9.484375 2.699219 1 0 1
0 16 -6 215 1 0 0 6.984375 2.699219 1 0 1
bridge_se1_metal_flat_steel_01
0 16 -326 230 1 0 0 9.484375 2.582031 1 0 1
0 16 -6 215 1 0 0 6.984375 2.699219 1 0 1
0 16 -6 230 1 0 0 6.984375 2.582031 1 0 1
pepsi2_arch_concrete_floor_smooth01
0 31 16 -66 0 1 0 2.625 91.226562 1 0 1
0 31 16 -73 0 1 0 2.679688 91.226562 1 0 1
0 -39 16 -73 0 1 0 2.679688 91.773438 1 0 1
pepsi2_arch_concrete_floor_smooth01
0 31 16 -66 0 1 0 2.625 91.226562 1 0 1
0 -39 16 -73 0 1 0 2.679688 91.773438 1 0 1
0 -39 16 -66 0 1 0 2.625 91.773438 1 0 1
pepsi2_arch_concrete_floor_smooth01
0 31 -16 -73 0 -1 0 -2.679688 91.226562 1 0 1
0 31 -16 -66 0 -1 0 -2.625 91.226562 1 0 1
0 -39 -16 -66 0 -1 0 -2.625 91.773438 1 0 1
pepsi2_arch_concrete_floor_smooth01
0 31 -16 -73 0 -1 0 -2.679688 91.226562 1 0 1
0 -39 -16 -66 0 -1 0 -2.625 91.773438 1 0 1
0 -39 -16 -73 0 -1 0 -2.679688 91.773438 1 0 1
pepsi2_arch_concrete_floor_smooth01
0 -39 -16 -66 0 0 1 -6.625 91.773438 1 0 1
0 31 -16 -66 0 0 1 -6.625 91.226562 1 0 1
0 31 16 -66 0 0 1 -6.375 91.226562 1 0 1
pepsi2_arch_concrete_floor_smooth01
0 -39 -16 -66 0 0 1 -6.625 91.773438 1 0 1
0 31 16 -66 0 0 1 -6.375 91.226562 1 0 1
0 -39 16 -66 0 0 1 -6.375 91.773438 1 0 1
bridge_se1_metal_flat_steel_01
0 -12 4 72 -1 0 0 6.90625 -1.636719 1 0 1
0 -12 4 87 -1 0 0 6.90625 -1.519531 1 0 1
0 -12 404 87 -1 0 0 3.78125 -1.519531 1 0 1
bridge_se1_metal_flat_steel_01
0 -12 4 72 -1 0 0 6.90625 -1.636719 1 0 1
0 -12 404 87 -1 0 0 3.78125 -1.519531 1 0 1
0 -12 404 72 -1 0 0 3.78125 -1.636719 1 0 1
bridge_se1_metal_flat_steel_01
0 -12 4 87 0 0 1 6.90625 -89.519531 1 0 1
0 8 4 87 0 0 1 6.90625 -89.363281 1 0 1
0 8 404 87 0 0 1 3.78125 -89.363281 1 0 1
bridge_se1_metal_flat_steel_01
0 -12 4 87 0 0 1 6.90625 -89.519531 1 0 1
0 8 404 87 0 0 1 3.78125 -89.363281 1 0 1
0 -12 404 87 0 0 1 3.78125 -89.519531 1 0 1
bridge_se1_metal_flat_steel_01
0 12 -16 67 0 -1 0 90.505859 3.011719 1 0 1
0 -12 -16 67 0 -1 0 90.693359 3.011719 1 0 1
0 -12 -16 -66 0 -1 0 90.693359 4.050781 1 0 1
bridge_se1_metal_flat_steel_01
0 12 -16 67 0 -1 0 90.505859 3.011719 1 0 1
0 -12 -16 -66 0 -1 0 90.693359 4.050781 1 0 1
0 12 -16 -66 0 -1 0 90.505859 4.050781 1 0 1
bridge_se1_metal_flat_steel_01
0 -16 -11.998 67 -1 0 0 -7.263656 3.011719 1 0 1
0 -16 12 67 -1 0 0 -7.076172 3.011719 1 0 1
0 -16 12 -66 -1 0 0 -7.076172 4.050781 1 0 1
bridge_se1_metal_flat_steel_01
0 -16 -11.998 67 -1 0 0 -7.263656 3.011719 1 0 1
0 -16 12 -66 -1 0 0 -7.076172 4.050781 1 0 1
0 -16 -11.998 -66 -1 0 0 -7.263656 4.050781 1 0 1
bridge_se1_metal_flat_steel_01
0 16 -12.001 -66 1 0 0 6.460945 4.050781 1 0 1
0 16 12 -66 1 0 0 6.273438 4.050781 1 0 1
0 16 12 67 1 0 0 6.273438 3.011719 1 0 1
bridge_se1_metal_flat_steel_01
0 16 -12.001 -66 1 0 0 6.460945 4.050781 1 0 1
0 16 12 67 1 0 0 6.273438 3.011719 1 0 1
0 16 -12.001 67 1 0 0 6.460945 3.011719 1 0 1
bridge_se1_metal_flat_steel_01
0 -16 12 -66 -0.707107 0.707107 0 -68.001965 4.050781 1 0 1
0 -16 12 67 -0.707107 0.707107 0 -68.001965 3.011719 1 0 1
0 -12 16 67 -0.707107 0.707107 0 -67.957771 3.011719 1 0 1
bridge_se1_metal_flat_steel_01
0 -16 12 -66 -0.707107 0.707107 0 -68.001965 4.050781 1 0 1
0 -12 16 67 -0.707107 0.707107 0 -67.957771 3.011719 1 0 1
0 -12 16 -66 -0.707107 0.707107 0 -67.957771 4.050781 1 0 1
bridge_se1_metal_flat_steel_01
0 16 12 67 0.707107 0.707107 0 -59.72627 3.011719 1 0 1
0 16 12 -66 0.707107 0.707107 0 -59.72627 4.050781 1 0 1
0 12 16 -66 0.707107 0.707107 0 -59.770463 4.050781 1 0 1
bridge_se1_metal_flat_steel_01
0 16 12 67 0.707107 0.707107 0 -59.72627 3.011719 1 0 1
0 12 16 -66 0.707107 0.707107 0 -59.770463 4.050781 1 0 1
0 12 16 67 0.707107 0.707107 0 -59.770463 3.011719 1 0 1
bridge_se1_metal_flat_steel_01
0 -12 -16 -66 -0.707283 -0.70693 0 59.691113 4.050781 1 0 1
0 -12 -16 67 -0.707283 -0.70693 0 59.691113 3.011719 1 0 1
0 -16 -11.998 67 -0.707283 -0.70693 0 59.735318 3.011719 1 0 1
bridge_se1_metal_flat_steel_01
0 -12 -16 -66 -0.707283 -0.70693 0 59.691113 4.050781 1 0 1
0 -16 -11.998 67 -0.707283 -0.70693 0 59.735318 3.011719 1 0 1
0 -16 -11.998 -66 -0.707283 -0.70693 0 59.735318 4.050781 1 0 1
bridge_se1_metal_flat_steel_01
0 12 -16 67 0.707018 -0.707195 0 68.503918 3.011719 1 0 1
0 12 -16 -66 0.707018 -0.707195 0 68.503918 4.050781 1 0 1
0 16 -12.001 -66 0.707018 -0.707195 0 68.45973 4.050781 1 0 1
bridge_se1_metal_flat_steel_01
0 12 -16 67 0.707018 -0.707195 0 68.503918 3.011719 1 0 1
0 16 -12.001 -66 0.707018 -0.707195 0 68.45973 4.050781 1 0 1
0 16 -12.001 67 0.707018 -0.707195 0 68.45973 3.011719 1 0 1
bridge_se1_metal_flat_steel_01
0 12 16 -66 0 1 0 -90.771484 4.050781 1 0 1
0 -12 16 -66 0 1 0 -90.958984 4.050781 1 0 1
0 -12 16 67 0 1 0 -90.958984 3.011719 1 0 1
bridge_se1_metal_flat_steel_01
0 12 16 -66 0 1 0 -90.771484 4.050781 1 0 1
0 -12 16 67 0 1 0 -90.958984 3.011719 1 0 1
0 12 16 67 0 1 0 -90.771484 3.011719 1 0 1
bridge_se1_metal_flat_steel_01
0 8 -6 215 -1 0 0 7.060547 -0.25 1 0 1
0 8 -6 358 -1 0 0 7.060547 0.867188 1 0 1
0 8 4 358 -1 0 0 6.982422 0.867188 1 0 1
bridge_se1_metal_flat_steel_01
0 8 -6 215 -1 0 0 7.060547 -0.25 1 0 1
0 8 4 358 -1 0 0 6.982422 0.867188 1 0 1
0 8 4 215 -1 0 0 6.982422 -0.25 1 0 1
bridge_se1_metal_flat_steel_01
0 16 -6 358 1 0 0 6.984375 1.582031 1 0 1
0 16 -6 215 1 0 0 6.984375 2.699219 1 0 1
0 16 4 215 1 0 0 6.90625 2.699219 1 0 1
bridge_se1_metal_flat_steel_01
0 16 -6 358 1 0 0 6.984375 1.582031 1 0 1
0 16 4 215 1 0 0 6.90625 2.699219 1 0 1
0 16 4 358 1 0 0 6.90625 1.582031 1 0 1
end
