version 1
nodes
0 "root" -1
end
skeleton
time 0
0 0 0 0 0 0 0
end
triangles
phys
0 366 -357 186 0 0 1 1 0 1 0 1
0 366 -357 194 0 0 1 1 0 1 0 1
0 302 -357 194 0 0 1 1 0 1 0 1
phys
0 366 -357 186 0 0 1 1 0 1 0 1
0 302 -357 194 0 0 1 1 0 1 0 1
0 302 -357 186 0 0 1 1 0 1 0 1
phys
0 302 -357 186 0 0 1 1 0 1 0 1
0 302 -357 194 0 0 1 1 0 1 0 1
0 302 -349 194 0 0 1 1 0 1 0 1
phys
0 366 -357 194 0 0 1 1 0 1 0 1
0 366 -357 186 0 0 1 1 0 1 0 1
0 366 -349 194 0 0 1 1 0 1 0 1
phys
0 302 -357 194 0 0 1 1 0 1 0 1
0 366 -357 194 0 0 1 1 0 1 0 1
0 366 -349 194 0 0 1 1 0 1 0 1
phys
0 302 -357 194 0 0 1 1 0 1 0 1
0 366 -349 194 0 0 1 1 0 1 0 1
0 302 -349 194 0 0 1 1 0 1 0 1
phys
0 366 -357 186 0 0 1 1 0 1 0 1
0 302 -357 186 0 0 1 1 0 1 0 1
0 302 -349 194 0 0 1 1 0 1 0 1
phys
0 366 -357 186 0 0 1 1 0 1 0 1
0 302 -349 194 0 0 1 1 0 1 0 1
0 366 -349 194 0 0 1 1 0 1 0 1
phys
0 273 -86 47 0 0 1 2 0 1 0 1
0 273 -83 47 0 0 1 2 0 1 0 1
0 273 -83 -56 0 0 1 2 0 1 0 1
phys
0 273 -86 47 0 0 1 2 0 1 0 1
0 273 -83 -56 0 0 1 2 0 1 0 1
0 273 -86 -56 0 0 1 2 0 1 0 1
phys
0 276 -86 -56 0 0 1 2 0 1 0 1
0 276 -83 -56 0 0 1 2 0 1 0 1
0 276 -83 47 0 0 1 2 0 1 0 1
phys
0 276 -86 -56 0 0 1 2 0 1 0 1
0 276 -83 47 0 0 1 2 0 1 0 1
0 276 -86 47 0 0 1 2 0 1 0 1
phys
0 273 -86 -56 0 0 1 2 0 1 0 1
0 273 -83 -56 0 0 1 2 0 1 0 1
0 276 -83 -56 0 0 1 2 0 1 0 1
phys
0 273 -86 -56 0 0 1 2 0 1 0 1
0 276 -83 -56 0 0 1 2 0 1 0 1
0 276 -86 -56 0 0 1 2 0 1 0 1
phys
0 276 -86 47 0 0 1 2 0 1 0 1
0 276 -83 47 0 0 1 2 0 1 0 1
0 273 -83 47 0 0 1 2 0 1 0 1
phys
0 276 -86 47 0 0 1 2 0 1 0 1
0 273 -83 47 0 0 1 2 0 1 0 1
0 273 -86 47 0 0 1 2 0 1 0 1
phys
0 276 -83 47 0 0 1 2 0 1 0 1
0 276 -83 -56 0 0 1 2 0 1 0 1
0 273 -83 -56 0 0 1 2 0 1 0 1
phys
0 276 -83 47 0 0 1 2 0 1 0 1
0 273 -83 -56 0 0 1 2 0 1 0 1
0 273 -83 47 0 0 1 2 0 1 0 1
phys
0 276 -86 -56 0 0 1 2 0 1 0 1
0 276 -86 47 0 0 1 2 0 1 0 1
0 273 -86 47 0 0 1 2 0 1 0 1
phys
0 276 -86 -56 0 0 1 2 0 1 0 1
0 273 -86 47 0 0 1 2 0 1 0 1
0 273 -86 -56 0 0 1 2 0 1 0 1
phys
0 321 -83 47 0 0 1 3 0 1 0 1
0 321 -83 -56 0 0 1 3 0 1 0 1
0 318 -83 -56 0 0 1 3 0 1 0 1
phys
0 321 -83 47 0 0 1 3 0 1 0 1
0 318 -83 -56 0 0 1 3 0 1 0 1
0 318 -83 47 0 0 1 3 0 1 0 1
phys
0 321 -86 -56 0 0 1 3 0 1 0 1
0 321 -86 47 0 0 1 3 0 1 0 1
0 318 -86 47 0 0 1 3 0 1 0 1
phys
0 321 -86 -56 0 0 1 3 0 1 0 1
0 318 -86 47 0 0 1 3 0 1 0 1
0 318 -86 -56 0 0 1 3 0 1 0 1
phys
0 318 -86 -56 0 0 1 3 0 1 0 1
0 318 -86 47 0 0 1 3 0 1 0 1
0 318 -83 47 0 0 1 3 0 1 0 1
phys
0 318 -86 -56 0 0 1 3 0 1 0 1
0 318 -83 47 0 0 1 3 0 1 0 1
0 318 -83 -56 0 0 1 3 0 1 0 1
phys
0 321 -86 47 0 0 1 3 0 1 0 1
0 321 -86 -56 0 0 1 3 0 1 0 1
0 321 -83 -56 0 0 1 3 0 1 0 1
phys
0 321 -86 47 0 0 1 3 0 1 0 1
0 321 -83 -56 0 0 1 3 0 1 0 1
0 321 -83 47 0 0 1 3 0 1 0 1
phys
0 321 -86 -56 0 0 1 3 0 1 0 1
0 318 -86 -56 0 0 1 3 0 1 0 1
0 318 -83 -56 0 0 1 3 0 1 0 1
phys
0 321 -86 -56 0 0 1 3 0 1 0 1
0 318 -83 -56 0 0 1 3 0 1 0 1
0 321 -83 -56 0 0 1 3 0 1 0 1
phys
0 318 -86 47 0 0 1 3 0 1 0 1
0 321 -86 47 0 0 1 3 0 1 0 1
0 321 -83 47 0 0 1 3 0 1 0 1
phys
0 318 -86 47 0 0 1 3 0 1 0 1
0 321 -83 47 0 0 1 3 0 1 0 1
0 318 -83 47 0 0 1 3 0 1 0 1
phys
0 366 -405 138 0 0 1 4 0 1 0 1
0 366 -405 146 0 0 1 4 0 1 0 1
0 302 -405 146 0 0 1 4 0 1 0 1
phys
0 366 -405 138 0 0 1 4 0 1 0 1
0 302 -405 146 0 0 1 4 0 1 0 1
0 302 -405 138 0 0 1 4 0 1 0 1
phys
0 302 -405 138 0 0 1 4 0 1 0 1
0 302 -405 146 0 0 1 4 0 1 0 1
0 302 -397 146 0 0 1 4 0 1 0 1
phys
0 366 -405 146 0 0 1 4 0 1 0 1
0 366 -405 138 0 0 1 4 0 1 0 1
0 366 -397 146 0 0 1 4 0 1 0 1
phys
0 302 -405 146 0 0 1 4 0 1 0 1
0 366 -405 146 0 0 1 4 0 1 0 1
0 366 -397 146 0 0 1 4 0 1 0 1
phys
0 302 -405 146 0 0 1 4 0 1 0 1
0 366 -397 146 0 0 1 4 0 1 0 1
0 302 -397 146 0 0 1 4 0 1 0 1
phys
0 366 -405 138 0 0 1 4 0 1 0 1
0 302 -405 138 0 0 1 4 0 1 0 1
0 302 -397 146 0 0 1 4 0 1 0 1
phys
0 366 -405 138 0 0 1 4 0 1 0 1
0 302 -397 146 0 0 1 4 0 1 0 1
0 366 -397 146 0 0 1 4 0 1 0 1
phys
0 242 -373 290 0 0 1 5 0 1 0 1
0 242 -373 282.001 0 0 1 5 0 1 0 1
0 178 -373 282.001 0 0 1 5 0 1 0 1
phys
0 242 -373 290 0 0 1 5 0 1 0 1
0 178 -373 282.001 0 0 1 5 0 1 0 1
0 178 -373 290 0 0 1 5 0 1 0 1
phys
0 178 -381 290 0 0 1 5 0 1 0 1
0 178 -373 290 0 0 1 5 0 1 0 1
0 178 -373 282.001 0 0 1 5 0 1 0 1
phys
0 242 -373 282.001 0 0 1 5 0 1 0 1
0 242 -373 290 0 0 1 5 0 1 0 1
0 242 -381 290 0 0 1 5 0 1 0 1
phys
0 242 -381 290 0 0 1 5 0 1 0 1
0 242 -373 290 0 0 1 5 0 1 0 1
0 178 -373 290 0 0 1 5 0 1 0 1
phys
0 242 -381 290 0 0 1 5 0 1 0 1
0 178 -373 290 0 0 1 5 0 1 0 1
0 178 -381 290 0 0 1 5 0 1 0 1
phys
0 178 -381 290 0 0 1 5 0 1 0 1
0 178 -373 282.001 0 0 1 5 0 1 0 1
0 242 -373 282.001 0 0 1 5 0 1 0 1
phys
0 178 -381 290 0 0 1 5 0 1 0 1
0 242 -373 282.001 0 0 1 5 0 1 0 1
0 242 -381 290 0 0 1 5 0 1 0 1
phys
0 366 -446 350 0 0 1 6 0 1 0 1
0 366 -442 350 0 0 1 6 0 1 0 1
0 366 -442 393 0 0 1 6 0 1 0 1
phys
0 366 -446 350 0 0 1 6 0 1 0 1
0 366 -442 393 0 0 1 6 0 1 0 1
0 366 -446 393 0 0 1 6 0 1 0 1
phys
0 302 -442 350 0 0 1 6 0 1 0 1
0 366 -442 350 0 0 1 6 0 1 0 1
0 366 -446 350 0 0 1 6 0 1 0 1
phys
0 302 -442 350 0 0 1 6 0 1 0 1
0 366 -446 350 0 0 1 6 0 1 0 1
0 302 -446 350 0 0 1 6 0 1 0 1
phys
0 302 -446 393 0 0 1 6 0 1 0 1
0 366 -446 393 0 0 1 6 0 1 0 1
0 366 -442 393 0 0 1 6 0 1 0 1
phys
0 302 -446 393 0 0 1 6 0 1 0 1
0 366 -442 393 0 0 1 6 0 1 0 1
0 302 -442 393 0 0 1 6 0 1 0 1
phys
0 366 -442 393 0 0 1 6 0 1 0 1
0 366 -442 350 0 0 1 6 0 1 0 1
0 302 -442 350 0 0 1 6 0 1 0 1
phys
0 366 -442 393 0 0 1 6 0 1 0 1
0 302 -442 350 0 0 1 6 0 1 0 1
0 302 -442 393 0 0 1 6 0 1 0 1
phys
0 366 -446 350 0 0 1 6 0 1 0 1
0 366 -446 393 0 0 1 6 0 1 0 1
0 302 -446 393 0 0 1 6 0 1 0 1
phys
0 366 -446 350 0 0 1 6 0 1 0 1
0 302 -446 393 0 0 1 6 0 1 0 1
0 302 -446 350 0 0 1 6 0 1 0 1
phys
0 302 -446 393 0 0 1 6 0 1 0 1
0 302 -442 393 0 0 1 6 0 1 0 1
0 302 -442 350 0 0 1 6 0 1 0 1
phys
0 302 -446 393 0 0 1 6 0 1 0 1
0 302 -442 350 0 0 1 6 0 1 0 1
0 302 -446 350 0 0 1 6 0 1 0 1
phys
0 366 -381 162 0 0 1 7 0 1 0 1
0 366 -381 170 0 0 1 7 0 1 0 1
0 302 -381 170 0 0 1 7 0 1 0 1
phys
0 366 -381 162 0 0 1 7 0 1 0 1
0 302 -381 170 0 0 1 7 0 1 0 1
0 302 -381 162 0 0 1 7 0 1 0 1
phys
0 302 -381 162 0 0 1 7 0 1 0 1
0 302 -381 170 0 0 1 7 0 1 0 1
0 302 -373 170 0 0 1 7 0 1 0 1
phys
0 366 -381 170 0 0 1 7 0 1 0 1
0 366 -381 162 0 0 1 7 0 1 0 1
0 366 -373 170 0 0 1 7 0 1 0 1
phys
0 302 -381 170 0 0 1 7 0 1 0 1
0 366 -381 170 0 0 1 7 0 1 0 1
0 366 -373 170 0 0 1 7 0 1 0 1
phys
0 302 -381 170 0 0 1 7 0 1 0 1
0 366 -373 170 0 0 1 7 0 1 0 1
0 302 -373 170 0 0 1 7 0 1 0 1
phys
0 366 -381 162 0 0 1 7 0 1 0 1
0 302 -381 162 0 0 1 7 0 1 0 1
0 302 -373 170 0 0 1 7 0 1 0 1
phys
0 366 -381 162 0 0 1 7 0 1 0 1
0 302 -373 170 0 0 1 7 0 1 0 1
0 366 -373 170 0 0 1 7 0 1 0 1
phys
0 242 -381 298 0 0 1 8 0 1 0 1
0 242 -381 290.001 0 0 1 8 0 1 0 1
0 178 -381 290.001 0 0 1 8 0 1 0 1
phys
0 242 -381 298 0 0 1 8 0 1 0 1
0 178 -381 290.001 0 0 1 8 0 1 0 1
0 178 -381 298 0 0 1 8 0 1 0 1
phys
0 178 -389 298 0 0 1 8 0 1 0 1
0 178 -381 298 0 0 1 8 0 1 0 1
0 178 -381 290.001 0 0 1 8 0 1 0 1
phys
0 242 -381 290.001 0 0 1 8 0 1 0 1
0 242 -381 298 0 0 1 8 0 1 0 1
0 242 -389 298 0 0 1 8 0 1 0 1
phys
0 242 -389 298 0 0 1 8 0 1 0 1
0 242 -381 298 0 0 1 8 0 1 0 1
0 178 -381 298 0 0 1 8 0 1 0 1
phys
0 242 -389 298 0 0 1 8 0 1 0 1
0 178 -381 298 0 0 1 8 0 1 0 1
0 178 -389 298 0 0 1 8 0 1 0 1
phys
0 178 -389 298 0 0 1 8 0 1 0 1
0 178 -381 290.001 0 0 1 8 0 1 0 1
0 242 -381 290.001 0 0 1 8 0 1 0 1
phys
0 178 -389 298 0 0 1 8 0 1 0 1
0 242 -381 290.001 0 0 1 8 0 1 0 1
0 242 -389 298 0 0 1 8 0 1 0 1
phys
0 242 -437 350 0 0 1 9 0 1 0 1
0 242 -437 345.9999 0 0 1 9 0 1 0 1
0 178 -437 345.9999 0 0 1 9 0 1 0 1
phys
0 242 -437 350 0 0 1 9 0 1 0 1
0 178 -437 345.9999 0 0 1 9 0 1 0 1
0 178 -437 350 0 0 1 9 0 1 0 1
phys
0 178 -442 350 0 0 1 9 0 1 0 1
0 178 -437 350 0 0 1 9 0 1 0 1
0 178 -437 345.9999 0 0 1 9 0 1 0 1
phys
0 242 -437 345.9999 0 0 1 9 0 1 0 1
0 242 -437 350 0 0 1 9 0 1 0 1
0 242 -442 350 0 0 1 9 0 1 0 1
phys
0 242 -442 350 0 0 1 9 0 1 0 1
0 242 -437 350 0 0 1 9 0 1 0 1
0 178 -437 350 0 0 1 9 0 1 0 1
phys
0 242 -442 350 0 0 1 9 0 1 0 1
0 178 -437 350 0 0 1 9 0 1 0 1
0 178 -442 350 0 0 1 9 0 1 0 1
phys
0 178 -442 350 0 0 1 9 0 1 0 1
0 178 -437 345.9999 0 0 1 9 0 1 0 1
0 242 -437 345.9999 0 0 1 9 0 1 0 1
phys
0 178 -442 350 0 0 1 9 0 1 0 1
0 242 -437 345.9999 0 0 1 9 0 1 0 1
0 242 -442 350 0 0 1 9 0 1 0 1
phys
0 366 -325 218 0 0 1 10 0 1 0 1
0 366 -325 226 0 0 1 10 0 1 0 1
0 302 -325 226 0 0 1 10 0 1 0 1
phys
0 366 -325 218 0 0 1 10 0 1 0 1
0 302 -325 226 0 0 1 10 0 1 0 1
0 302 -325 218 0 0 1 10 0 1 0 1
phys
0 302 -325 218 0 0 1 10 0 1 0 1
0 302 -325 226 0 0 1 10 0 1 0 1
0 302 -317 226 0 0 1 10 0 1 0 1
phys
0 366 -325 226 0 0 1 10 0 1 0 1
0 366 -325 218 0 0 1 10 0 1 0 1
0 366 -317 226 0 0 1 10 0 1 0 1
phys
0 302 -325 226 0 0 1 10 0 1 0 1
0 366 -325 226 0 0 1 10 0 1 0 1
0 366 -317 226 0 0 1 10 0 1 0 1
phys
0 302 -325 226 0 0 1 10 0 1 0 1
0 366 -317 226 0 0 1 10 0 1 0 1
0 302 -317 226 0 0 1 10 0 1 0 1
phys
0 366 -325 218 0 0 1 10 0 1 0 1
0 302 -325 218 0 0 1 10 0 1 0 1
0 302 -317 226 0 0 1 10 0 1 0 1
phys
0 366 -325 218 0 0 1 10 0 1 0 1
0 302 -317 226 0 0 1 10 0 1 0 1
0 366 -317 226 0 0 1 10 0 1 0 1
phys
0 60 -98 -56 0 0 1 11 0 1 0 1
0 52 -98 -56 0 0 1 11 0 1 0 1
0 52 -94 -56 0 0 1 11 0 1 0 1
phys
0 60 -98 -56 0 0 1 11 0 1 0 1
0 52 -94 -56 0 0 1 11 0 1 0 1
0 60 -94 -56 0 0 1 11 0 1 0 1
phys
0 52 -98 52.011 0 0 1 11 0 1 0 1
0 60 -98 52.011 0 0 1 11 0 1 0 1
0 60 -94 56 0 0 1 11 0 1 0 1
phys
0 52 -98 52.011 0 0 1 11 0 1 0 1
0 60 -94 56 0 0 1 11 0 1 0 1
0 52 -94 56 0 0 1 11 0 1 0 1
phys
0 60 -94 -56 0 0 1 11 0 1 0 1
0 52 -94 -56 0 0 1 11 0 1 0 1
0 52 -94 56 0 0 1 11 0 1 0 1
phys
0 60 -94 -56 0 0 1 11 0 1 0 1
0 52 -94 56 0 0 1 11 0 1 0 1
0 60 -94 56 0 0 1 11 0 1 0 1
phys
0 60 -98 52.011 0 0 1 11 0 1 0 1
0 52 -98 52.011 0 0 1 11 0 1 0 1
0 52 -98 -56 0 0 1 11 0 1 0 1
phys
0 60 -98 52.011 0 0 1 11 0 1 0 1
0 52 -98 -56 0 0 1 11 0 1 0 1
0 60 -98 -56 0 0 1 11 0 1 0 1
phys
0 52 -94 -56 0 0 1 11 0 1 0 1
0 52 -98 -56 0 0 1 11 0 1 0 1
0 52 -98 52.011 0 0 1 11 0 1 0 1
phys
0 52 -94 -56 0 0 1 11 0 1 0 1
0 52 -98 52.011 0 0 1 11 0 1 0 1
0 52 -94 56 0 0 1 11 0 1 0 1
phys
0 60 -98 -56 0 0 1 11 0 1 0 1
0 60 -94 -56 0 0 1 11 0 1 0 1
0 60 -94 56 0 0 1 11 0 1 0 1
phys
0 60 -98 -56 0 0 1 11 0 1 0 1
0 60 -94 56 0 0 1 11 0 1 0 1
0 60 -98 52.011 0 0 1 11 0 1 0 1
phys
0 302 -421 130 0 0 1 12 0 1 0 1
0 366 -421 130 0 0 1 12 0 1 0 1
0 366 -413 130 0 0 1 12 0 1 0 1
phys
0 302 -421 130 0 0 1 12 0 1 0 1
0 366 -413 130 0 0 1 12 0 1 0 1
0 302 -413 130 0 0 1 12 0 1 0 1
phys
0 366 -421 122 0 0 1 12 0 1 0 1
0 302 -421 122 0 0 1 12 0 1 0 1
0 302 -413 130 0 0 1 12 0 1 0 1
phys
0 366 -421 122 0 0 1 12 0 1 0 1
0 302 -413 130 0 0 1 12 0 1 0 1
0 366 -413 130 0 0 1 12 0 1 0 1
phys
0 366 -421 130 0 0 1 12 0 1 0 1
0 302 -421 130 0 0 1 12 0 1 0 1
0 302 -421 122 0 0 1 12 0 1 0 1
phys
0 366 -421 130 0 0 1 12 0 1 0 1
0 302 -421 122 0 0 1 12 0 1 0 1
0 366 -421 122 0 0 1 12 0 1 0 1
phys
0 302 -421 130 0 0 1 12 0 1 0 1
0 302 -413 130 0 0 1 12 0 1 0 1
0 302 -421 122 0 0 1 12 0 1 0 1
phys
0 366 -421 122 0 0 1 12 0 1 0 1
0 366 -413 130 0 0 1 12 0 1 0 1
0 366 -421 130 0 0 1 12 0 1 0 1
phys
0 366 -389 154 0 0 1 13 0 1 0 1
0 366 -389 162 0 0 1 13 0 1 0 1
0 302 -389 162 0 0 1 13 0 1 0 1
phys
0 366 -389 154 0 0 1 13 0 1 0 1
0 302 -389 162 0 0 1 13 0 1 0 1
0 302 -389 154 0 0 1 13 0 1 0 1
phys
0 302 -389 154 0 0 1 13 0 1 0 1
0 302 -389 162 0 0 1 13 0 1 0 1
0 302 -381 162 0 0 1 13 0 1 0 1
phys
0 366 -389 162 0 0 1 13 0 1 0 1
0 366 -389 154 0 0 1 13 0 1 0 1
0 366 -381 162 0 0 1 13 0 1 0 1
phys
0 302 -389 162 0 0 1 13 0 1 0 1
0 366 -389 162 0 0 1 13 0 1 0 1
0 366 -381 162 0 0 1 13 0 1 0 1
phys
0 302 -389 162 0 0 1 13 0 1 0 1
0 366 -381 162 0 0 1 13 0 1 0 1
0 302 -381 162 0 0 1 13 0 1 0 1
phys
0 366 -389 154 0 0 1 13 0 1 0 1
0 302 -389 154 0 0 1 13 0 1 0 1
0 302 -381 162 0 0 1 13 0 1 0 1
phys
0 366 -389 154 0 0 1 13 0 1 0 1
0 302 -381 162 0 0 1 13 0 1 0 1
0 366 -381 162 0 0 1 13 0 1 0 1
phys
0 242 -389 306 0 0 1 14 0 1 0 1
0 242 -389 298.001 0 0 1 14 0 1 0 1
0 178 -389 298.001 0 0 1 14 0 1 0 1
phys
0 242 -389 306 0 0 1 14 0 1 0 1
0 178 -389 298.001 0 0 1 14 0 1 0 1
0 178 -389 306 0 0 1 14 0 1 0 1
phys
0 178 -397 306 0 0 1 14 0 1 0 1
0 178 -389 306 0 0 1 14 0 1 0 1
0 178 -389 298.001 0 0 1 14 0 1 0 1
phys
0 242 -389 298.001 0 0 1 14 0 1 0 1
0 242 -389 306 0 0 1 14 0 1 0 1
0 242 -397 306 0 0 1 14 0 1 0 1
phys
0 242 -397 306 0 0 1 14 0 1 0 1
0 242 -389 306 0 0 1 14 0 1 0 1
0 178 -389 306 0 0 1 14 0 1 0 1
phys
0 242 -397 306 0 0 1 14 0 1 0 1
0 178 -389 306 0 0 1 14 0 1 0 1
0 178 -397 306 0 0 1 14 0 1 0 1
phys
0 178 -397 306 0 0 1 14 0 1 0 1
0 178 -389 298.001 0 0 1 14 0 1 0 1
0 242 -389 298.001 0 0 1 14 0 1 0 1
phys
0 178 -397 306 0 0 1 14 0 1 0 1
0 242 -389 298.001 0 0 1 14 0 1 0 1
0 242 -397 306 0 0 1 14 0 1 0 1
phys
0 366 -349 194 0 0 1 15 0 1 0 1
0 366 -349 202 0 0 1 15 0 1 0 1
0 302 -349 202 0 0 1 15 0 1 0 1
phys
0 366 -349 194 0 0 1 15 0 1 0 1
0 302 -349 202 0 0 1 15 0 1 0 1
0 302 -349 194 0 0 1 15 0 1 0 1
phys
0 302 -349 194 0 0 1 15 0 1 0 1
0 302 -349 202 0 0 1 15 0 1 0 1
0 302 -341 202 0 0 1 15 0 1 0 1
phys
0 366 -349 202 0 0 1 15 0 1 0 1
0 366 -349 194 0 0 1 15 0 1 0 1
0 366 -341 202 0 0 1 15 0 1 0 1
phys
0 302 -349 202 0 0 1 15 0 1 0 1
0 366 -349 202 0 0 1 15 0 1 0 1
0 366 -341 202 0 0 1 15 0 1 0 1
phys
0 302 -349 202 0 0 1 15 0 1 0 1
0 366 -341 202 0 0 1 15 0 1 0 1
0 302 -341 202 0 0 1 15 0 1 0 1
phys
0 366 -349 194 0 0 1 15 0 1 0 1
0 302 -349 194 0 0 1 15 0 1 0 1
0 302 -341 202 0 0 1 15 0 1 0 1
phys
0 366 -349 194 0 0 1 15 0 1 0 1
0 302 -341 202 0 0 1 15 0 1 0 1
0 366 -341 202 0 0 1 15 0 1 0 1
phys
0 366 -429 114 0 0 1 16 0 1 0 1
0 366 -429 122 0 0 1 16 0 1 0 1
0 302 -429 122 0 0 1 16 0 1 0 1
phys
0 366 -429 114 0 0 1 16 0 1 0 1
0 302 -429 122 0 0 1 16 0 1 0 1
0 302 -429 114 0 0 1 16 0 1 0 1
phys
0 302 -429 114 0 0 1 16 0 1 0 1
0 302 -429 122 0 0 1 16 0 1 0 1
0 302 -421 122 0 0 1 16 0 1 0 1
phys
0 366 -429 122 0 0 1 16 0 1 0 1
0 366 -429 114 0 0 1 16 0 1 0 1
0 366 -421 122 0 0 1 16 0 1 0 1
phys
0 302 -429 122 0 0 1 16 0 1 0 1
0 366 -429 122 0 0 1 16 0 1 0 1
0 366 -421 122 0 0 1 16 0 1 0 1
phys
0 302 -429 122 0 0 1 16 0 1 0 1
0 366 -421 122 0 0 1 16 0 1 0 1
0 302 -421 122 0 0 1 16 0 1 0 1
phys
0 366 -429 114 0 0 1 16 0 1 0 1
0 302 -429 114 0 0 1 16 0 1 0 1
0 302 -421 122 0 0 1 16 0 1 0 1
phys
0 366 -429 114 0 0 1 16 0 1 0 1
0 302 -421 122 0 0 1 16 0 1 0 1
0 366 -421 122 0 0 1 16 0 1 0 1
phys
0 320 55 36 0 0 1 17 0 1 0 1
0 320 55 34 0 0 1 17 0 1 0 1
0 274 55 34 0 0 1 17 0 1 0 1
phys
0 320 55 36 0 0 1 17 0 1 0 1
0 274 55 34 0 0 1 17 0 1 0 1
0 274 55 36 0 0 1 17 0 1 0 1
phys
0 320 -85 34 0 0 1 17 0 1 0 1
0 320 -85 36 0 0 1 17 0 1 0 1
0 274 -85 36 0 0 1 17 0 1 0 1
phys
0 320 -85 34 0 0 1 17 0 1 0 1
0 274 -85 36 0 0 1 17 0 1 0 1
0 274 -85 34 0 0 1 17 0 1 0 1
phys
0 274 -85 34 0 0 1 17 0 1 0 1
0 274 -85 36 0 0 1 17 0 1 0 1
0 274 55 36 0 0 1 17 0 1 0 1
phys
0 274 -85 34 0 0 1 17 0 1 0 1
0 274 55 36 0 0 1 17 0 1 0 1
0 274 55 34 0 0 1 17 0 1 0 1
phys
0 320 -85 36 0 0 1 17 0 1 0 1
0 320 -85 34 0 0 1 17 0 1 0 1
0 320 55 34 0 0 1 17 0 1 0 1
phys
0 320 -85 36 0 0 1 17 0 1 0 1
0 320 55 34 0 0 1 17 0 1 0 1
0 320 55 36 0 0 1 17 0 1 0 1
phys
0 320 -85 34 0 0 1 17 0 1 0 1
0 274 -85 34 0 0 1 17 0 1 0 1
0 274 55 34 0 0 1 17 0 1 0 1
phys
0 320 -85 34 0 0 1 17 0 1 0 1
0 274 55 34 0 0 1 17 0 1 0 1
0 320 55 34 0 0 1 17 0 1 0 1
phys
0 274 -85 36 0 0 1 17 0 1 0 1
0 320 -85 36 0 0 1 17 0 1 0 1
0 320 55 36 0 0 1 17 0 1 0 1
phys
0 274 -85 36 0 0 1 17 0 1 0 1
0 320 55 36 0 0 1 17 0 1 0 1
0 274 55 36 0 0 1 17 0 1 0 1
phys
0 302 -397 154 0 0 1 18 0 1 0 1
0 302 -389 154 0 0 1 18 0 1 0 1
0 302 -397 146 0 0 1 18 0 1 0 1
phys
0 366 -397 146 0 0 1 18 0 1 0 1
0 366 -389 154 0 0 1 18 0 1 0 1
0 366 -397 154 0 0 1 18 0 1 0 1
phys
0 366 -397 154 0 0 1 18 0 1 0 1
0 366 -389 154 0 0 1 18 0 1 0 1
0 302 -389 154 0 0 1 18 0 1 0 1
phys
0 366 -397 154 0 0 1 18 0 1 0 1
0 302 -389 154 0 0 1 18 0 1 0 1
0 302 -397 154 0 0 1 18 0 1 0 1
phys
0 302 -397 146 0 0 1 18 0 1 0 1
0 302 -389 154 0 0 1 18 0 1 0 1
0 366 -389 154 0 0 1 18 0 1 0 1
phys
0 302 -397 146 0 0 1 18 0 1 0 1
0 366 -389 154 0 0 1 18 0 1 0 1
0 366 -397 146 0 0 1 18 0 1 0 1
phys
0 366 -397 146 0 0 1 18 0 1 0 1
0 366 -397 154 0 0 1 18 0 1 0 1
0 302 -397 154 0 0 1 18 0 1 0 1
phys
0 366 -397 146 0 0 1 18 0 1 0 1
0 302 -397 154 0 0 1 18 0 1 0 1
0 302 -397 146 0 0 1 18 0 1 0 1
phys
0 302 -437 114 0 0 1 19 0 1 0 1
0 366 -437 114 0 0 1 19 0 1 0 1
0 366 -429 114 0 0 1 19 0 1 0 1
phys
0 302 -437 114 0 0 1 19 0 1 0 1
0 366 -429 114 0 0 1 19 0 1 0 1
0 302 -429 114 0 0 1 19 0 1 0 1
phys
0 366 -437 106 0 0 1 19 0 1 0 1
0 302 -437 106 0 0 1 19 0 1 0 1
0 302 -429 114 0 0 1 19 0 1 0 1
phys
0 366 -437 106 0 0 1 19 0 1 0 1
0 302 -429 114 0 0 1 19 0 1 0 1
0 366 -429 114 0 0 1 19 0 1 0 1
phys
0 366 -437 114 0 0 1 19 0 1 0 1
0 302 -437 114 0 0 1 19 0 1 0 1
0 302 -437 106 0 0 1 19 0 1 0 1
phys
0 366 -437 114 0 0 1 19 0 1 0 1
0 302 -437 106 0 0 1 19 0 1 0 1
0 366 -437 106 0 0 1 19 0 1 0 1
phys
0 302 -437 114 0 0 1 19 0 1 0 1
0 302 -429 114 0 0 1 19 0 1 0 1
0 302 -437 106 0 0 1 19 0 1 0 1
phys
0 366 -437 106 0 0 1 19 0 1 0 1
0 366 -429 114 0 0 1 19 0 1 0 1
0 366 -437 114 0 0 1 19 0 1 0 1
phys
0 366 -413 130 0 0 1 20 0 1 0 1
0 302 -413 130 0 0 1 20 0 1 0 1
0 302 -405 138 0 0 1 20 0 1 0 1
phys
0 366 -413 130 0 0 1 20 0 1 0 1
0 302 -405 138 0 0 1 20 0 1 0 1
0 366 -405 138 0 0 1 20 0 1 0 1
phys
0 302 -413 138 0 0 1 20 0 1 0 1
0 302 -413 130 0 0 1 20 0 1 0 1
0 366 -413 130 0 0 1 20 0 1 0 1
phys
0 302 -413 138 0 0 1 20 0 1 0 1
0 366 -413 130 0 0 1 20 0 1 0 1
0 366 -413 138 0 0 1 20 0 1 0 1
phys
0 302 -405 138 0 0 1 20 0 1 0 1
0 302 -413 130 0 0 1 20 0 1 0 1
0 302 -413 138 0 0 1 20 0 1 0 1
phys
0 366 -413 138 0 0 1 20 0 1 0 1
0 366 -413 130 0 0 1 20 0 1 0 1
0 366 -405 138 0 0 1 20 0 1 0 1
phys
0 302 -413 138 0 0 1 20 0 1 0 1
0 366 -413 138 0 0 1 20 0 1 0 1
0 366 -405 138 0 0 1 20 0 1 0 1
phys
0 302 -413 138 0 0 1 20 0 1 0 1
0 366 -405 138 0 0 1 20 0 1 0 1
0 302 -405 138 0 0 1 20 0 1 0 1
phys
0 366 -445 98 0 0 1 21 0 1 0 1
0 366 -445 106 0 0 1 21 0 1 0 1
0 302 -445 106 0 0 1 21 0 1 0 1
phys
0 366 -445 98 0 0 1 21 0 1 0 1
0 302 -445 106 0 0 1 21 0 1 0 1
0 302 -445 98 0 0 1 21 0 1 0 1
phys
0 302 -445 98 0 0 1 21 0 1 0 1
0 302 -445 106 0 0 1 21 0 1 0 1
0 302 -437 106 0 0 1 21 0 1 0 1
phys
0 366 -445 106 0 0 1 21 0 1 0 1
0 366 -445 98 0 0 1 21 0 1 0 1
0 366 -437 106 0 0 1 21 0 1 0 1
phys
0 302 -445 106 0 0 1 21 0 1 0 1
0 366 -445 106 0 0 1 21 0 1 0 1
0 366 -437 106 0 0 1 21 0 1 0 1
phys
0 302 -445 106 0 0 1 21 0 1 0 1
0 366 -437 106 0 0 1 21 0 1 0 1
0 302 -437 106 0 0 1 21 0 1 0 1
phys
0 366 -445 98 0 0 1 21 0 1 0 1
0 302 -445 98 0 0 1 21 0 1 0 1
0 302 -437 106 0 0 1 21 0 1 0 1
phys
0 366 -445 98 0 0 1 21 0 1 0 1
0 302 -437 106 0 0 1 21 0 1 0 1
0 366 -437 106 0 0 1 21 0 1 0 1
phys
0 242 -333 250 0 0 1 22 0 1 0 1
0 242 -333 242.001 0 0 1 22 0 1 0 1
0 178 -333 242.001 0 0 1 22 0 1 0 1
phys
0 242 -333 250 0 0 1 22 0 1 0 1
0 178 -333 242.001 0 0 1 22 0 1 0 1
0 178 -333 250 0 0 1 22 0 1 0 1
phys
0 178 -341 250 0 0 1 22 0 1 0 1
0 178 -333 250 0 0 1 22 0 1 0 1
0 178 -333 242.001 0 0 1 22 0 1 0 1
phys
0 242 -333 242.001 0 0 1 22 0 1 0 1
0 242 -333 250 0 0 1 22 0 1 0 1
0 242 -341 250 0 0 1 22 0 1 0 1
phys
0 242 -341 250 0 0 1 22 0 1 0 1
0 242 -333 250 0 0 1 22 0 1 0 1
0 178 -333 250 0 0 1 22 0 1 0 1
phys
0 242 -341 250 0 0 1 22 0 1 0 1
0 178 -333 250 0 0 1 22 0 1 0 1
0 178 -341 250 0 0 1 22 0 1 0 1
phys
0 178 -341 250 0 0 1 22 0 1 0 1
0 178 -333 242.001 0 0 1 22 0 1 0 1
0 242 -333 242.001 0 0 1 22 0 1 0 1
phys
0 178 -341 250 0 0 1 22 0 1 0 1
0 242 -333 242.001 0 0 1 22 0 1 0 1
0 242 -341 250 0 0 1 22 0 1 0 1
phys
0 242 -317 234 0 0 1 23 0 1 0 1
0 242 -317 226.001 0 0 1 23 0 1 0 1
0 178 -317 226.001 0 0 1 23 0 1 0 1
phys
0 242 -317 234 0 0 1 23 0 1 0 1
0 178 -317 226.001 0 0 1 23 0 1 0 1
0 178 -317 234 0 0 1 23 0 1 0 1
phys
0 178 -325 234 0 0 1 23 0 1 0 1
0 178 -317 234 0 0 1 23 0 1 0 1
0 178 -317 226.001 0 0 1 23 0 1 0 1
phys
0 242 -317 226.001 0 0 1 23 0 1 0 1
0 242 -317 234 0 0 1 23 0 1 0 1
0 242 -325 234 0 0 1 23 0 1 0 1
phys
0 242 -325 234 0 0 1 23 0 1 0 1
0 242 -317 234 0 0 1 23 0 1 0 1
0 178 -317 234 0 0 1 23 0 1 0 1
phys
0 242 -325 234 0 0 1 23 0 1 0 1
0 178 -317 234 0 0 1 23 0 1 0 1
0 178 -325 234 0 0 1 23 0 1 0 1
phys
0 178 -325 234 0 0 1 23 0 1 0 1
0 178 -317 226.001 0 0 1 23 0 1 0 1
0 242 -317 226.001 0 0 1 23 0 1 0 1
phys
0 178 -325 234 0 0 1 23 0 1 0 1
0 242 -317 226.001 0 0 1 23 0 1 0 1
0 242 -325 234 0 0 1 23 0 1 0 1
phys
0 366 -365 178 0 0 1 24 0 1 0 1
0 366 -365 186 0 0 1 24 0 1 0 1
0 302 -365 186 0 0 1 24 0 1 0 1
phys
0 366 -365 178 0 0 1 24 0 1 0 1
0 302 -365 186 0 0 1 24 0 1 0 1
0 302 -365 178 0 0 1 24 0 1 0 1
phys
0 302 -365 178 0 0 1 24 0 1 0 1
0 302 -365 186 0 0 1 24 0 1 0 1
0 302 -357 186 0 0 1 24 0 1 0 1
phys
0 366 -365 186 0 0 1 24 0 1 0 1
0 366 -365 178 0 0 1 24 0 1 0 1
0 366 -357 186 0 0 1 24 0 1 0 1
phys
0 302 -365 186 0 0 1 24 0 1 0 1
0 366 -365 186 0 0 1 24 0 1 0 1
0 366 -357 186 0 0 1 24 0 1 0 1
phys
0 302 -365 186 0 0 1 24 0 1 0 1
0 366 -357 186 0 0 1 24 0 1 0 1
0 302 -357 186 0 0 1 24 0 1 0 1
phys
0 366 -365 178 0 0 1 24 0 1 0 1
0 302 -365 178 0 0 1 24 0 1 0 1
0 302 -357 186 0 0 1 24 0 1 0 1
phys
0 366 -365 178 0 0 1 24 0 1 0 1
0 302 -357 186 0 0 1 24 0 1 0 1
0 366 -357 186 0 0 1 24 0 1 0 1
phys
0 178 -365 274 0 0 1 25 0 1 0 1
0 242 -365 274 0 0 1 25 0 1 0 1
0 242 -357 274 0 0 1 25 0 1 0 1
phys
0 178 -365 274 0 0 1 25 0 1 0 1
0 242 -357 274 0 0 1 25 0 1 0 1
0 178 -357 274 0 0 1 25 0 1 0 1
phys
0 242 -365 274 0 0 1 25 0 1 0 1
0 178 -365 274 0 0 1 25 0 1 0 1
0 178 -357 266.001 0 0 1 25 0 1 0 1
phys
0 242 -365 274 0 0 1 25 0 1 0 1
0 178 -357 266.001 0 0 1 25 0 1 0 1
0 242 -357 266.001 0 0 1 25 0 1 0 1
phys
0 242 -357 266.001 0 0 1 25 0 1 0 1
0 178 -357 266.001 0 0 1 25 0 1 0 1
0 178 -357 274 0 0 1 25 0 1 0 1
phys
0 242 -357 266.001 0 0 1 25 0 1 0 1
0 178 -357 274 0 0 1 25 0 1 0 1
0 242 -357 274 0 0 1 25 0 1 0 1
phys
0 178 -365 274 0 0 1 25 0 1 0 1
0 178 -357 274 0 0 1 25 0 1 0 1
0 178 -357 266.001 0 0 1 25 0 1 0 1
phys
0 242 -357 274 0 0 1 25 0 1 0 1
0 242 -365 274 0 0 1 25 0 1 0 1
0 242 -357 266.001 0 0 1 25 0 1 0 1
phys
0 242 -413 330 0 0 1 26 0 1 0 1
0 242 -413 322.001 0 0 1 26 0 1 0 1
0 178 -413 322.001 0 0 1 26 0 1 0 1
phys
0 242 -413 330 0 0 1 26 0 1 0 1
0 178 -413 322.001 0 0 1 26 0 1 0 1
0 178 -413 330 0 0 1 26 0 1 0 1
phys
0 178 -421 330 0 0 1 26 0 1 0 1
0 178 -413 330 0 0 1 26 0 1 0 1
0 178 -413 322.001 0 0 1 26 0 1 0 1
phys
0 242 -413 322.001 0 0 1 26 0 1 0 1
0 242 -413 330 0 0 1 26 0 1 0 1
0 242 -421 330 0 0 1 26 0 1 0 1
phys
0 242 -421 330 0 0 1 26 0 1 0 1
0 242 -413 330 0 0 1 26 0 1 0 1
0 178 -413 330 0 0 1 26 0 1 0 1
phys
0 242 -421 330 0 0 1 26 0 1 0 1
0 178 -413 330 0 0 1 26 0 1 0 1
0 178 -421 330 0 0 1 26 0 1 0 1
phys
0 178 -421 330 0 0 1 26 0 1 0 1
0 178 -413 322.001 0 0 1 26 0 1 0 1
0 242 -413 322.001 0 0 1 26 0 1 0 1
phys
0 178 -421 330 0 0 1 26 0 1 0 1
0 242 -413 322.001 0 0 1 26 0 1 0 1
0 242 -421 330 0 0 1 26 0 1 0 1
phys
0 60 -146 52 0 0 1 27 0 1 0 1
0 60 -98 52 0 0 1 27 0 1 0 1
0 60 -94 56 0 0 1 27 0 1 0 1
phys
0 60 -146 52 0 0 1 27 0 1 0 1
0 60 -94 56 0 0 1 27 0 1 0 1
0 60 -150 56 0 0 1 27 0 1 0 1
phys
0 52 -98 52 0 0 1 27 0 1 0 1
0 60 -98 52 0 0 1 27 0 1 0 1
0 60 -146 52 0 0 1 27 0 1 0 1
phys
0 52 -98 52 0 0 1 27 0 1 0 1
0 60 -146 52 0 0 1 27 0 1 0 1
0 52 -146 52 0 0 1 27 0 1 0 1
phys
0 52 -150 56 0 0 1 27 0 1 0 1
0 60 -150 56 0 0 1 27 0 1 0 1
0 60 -94 56 0 0 1 27 0 1 0 1
phys
0 52 -150 56 0 0 1 27 0 1 0 1
0 60 -94 56 0 0 1 27 0 1 0 1
0 52 -94 56 0 0 1 27 0 1 0 1
phys
0 52 -146 52 0 0 1 27 0 1 0 1
0 60 -146 52 0 0 1 27 0 1 0 1
0 60 -150 56 0 0 1 27 0 1 0 1
phys
0 52 -146 52 0 0 1 27 0 1 0 1
0 60 -150 56 0 0 1 27 0 1 0 1
0 52 -150 56 0 0 1 27 0 1 0 1
phys
0 52 -94 56 0 0 1 27 0 1 0 1
0 60 -94 56 0 0 1 27 0 1 0 1
0 60 -98 52 0 0 1 27 0 1 0 1
phys
0 52 -94 56 0 0 1 27 0 1 0 1
0 60 -98 52 0 0 1 27 0 1 0 1
0 52 -98 52 0 0 1 27 0 1 0 1
phys
0 52 -150 56 0 0 1 27 0 1 0 1
0 52 -94 56 0 0 1 27 0 1 0 1
0 52 -98 52 0 0 1 27 0 1 0 1
phys
0 52 -150 56 0 0 1 27 0 1 0 1
0 52 -98 52 0 0 1 27 0 1 0 1
0 52 -146 52 0 0 1 27 0 1 0 1
phys
0 143 -150 56 0 0 1 28 0 1 0 1
0 143 -146 52 0 0 1 28 0 1 0 1
0 143 -146 -56 0 0 1 28 0 1 0 1
phys
0 143 -150 56 0 0 1 28 0 1 0 1
0 143 -146 -56 0 0 1 28 0 1 0 1
0 143 -150 -56 0 0 1 28 0 1 0 1
phys
0 153 -150 -56 0 0 1 28 0 1 0 1
0 153 -146 -56 0 0 1 28 0 1 0 1
0 153 -146 52 0 0 1 28 0 1 0 1
phys
0 153 -150 -56 0 0 1 28 0 1 0 1
0 153 -146 52 0 0 1 28 0 1 0 1
0 153 -150 56 0 0 1 28 0 1 0 1
phys
0 143 -150 -56 0 0 1 28 0 1 0 1
0 143 -146 -56 0 0 1 28 0 1 0 1
0 153 -146 -56 0 0 1 28 0 1 0 1
phys
0 143 -150 -56 0 0 1 28 0 1 0 1
0 153 -146 -56 0 0 1 28 0 1 0 1
0 153 -150 -56 0 0 1 28 0 1 0 1
phys
0 153 -150 56 0 0 1 28 0 1 0 1
0 153 -146 52 0 0 1 28 0 1 0 1
0 143 -146 52 0 0 1 28 0 1 0 1
phys
0 153 -150 56 0 0 1 28 0 1 0 1
0 143 -146 52 0 0 1 28 0 1 0 1
0 143 -150 56 0 0 1 28 0 1 0 1
phys
0 153 -146 52 0 0 1 28 0 1 0 1
0 153 -146 -56 0 0 1 28 0 1 0 1
0 143 -146 -56 0 0 1 28 0 1 0 1
phys
0 153 -146 52 0 0 1 28 0 1 0 1
0 143 -146 -56 0 0 1 28 0 1 0 1
0 143 -146 52 0 0 1 28 0 1 0 1
phys
0 153 -150 -56 0 0 1 28 0 1 0 1
0 153 -150 56 0 0 1 28 0 1 0 1
0 143 -150 56 0 0 1 28 0 1 0 1
phys
0 153 -150 -56 0 0 1 28 0 1 0 1
0 143 -150 56 0 0 1 28 0 1 0 1
0 143 -150 -56 0 0 1 28 0 1 0 1
phys
0 242 -325 242 0 0 1 29 0 1 0 1
0 242 -325 234.001 0 0 1 29 0 1 0 1
0 178 -325 234.001 0 0 1 29 0 1 0 1
phys
0 242 -325 242 0 0 1 29 0 1 0 1
0 178 -325 234.001 0 0 1 29 0 1 0 1
0 178 -325 242 0 0 1 29 0 1 0 1
phys
0 178 -333 242 0 0 1 29 0 1 0 1
0 178 -325 242 0 0 1 29 0 1 0 1
0 178 -325 234.001 0 0 1 29 0 1 0 1
phys
0 242 -325 234.001 0 0 1 29 0 1 0 1
0 242 -325 242 0 0 1 29 0 1 0 1
0 242 -333 242 0 0 1 29 0 1 0 1
phys
0 242 -333 242 0 0 1 29 0 1 0 1
0 242 -325 242 0 0 1 29 0 1 0 1
0 178 -325 242 0 0 1 29 0 1 0 1
phys
0 242 -333 242 0 0 1 29 0 1 0 1
0 178 -325 242 0 0 1 29 0 1 0 1
0 178 -333 242 0 0 1 29 0 1 0 1
phys
0 178 -333 242 0 0 1 29 0 1 0 1
0 178 -325 234.001 0 0 1 29 0 1 0 1
0 242 -325 234.001 0 0 1 29 0 1 0 1
phys
0 178 -333 242 0 0 1 29 0 1 0 1
0 242 -325 234.001 0 0 1 29 0 1 0 1
0 242 -333 242 0 0 1 29 0 1 0 1
phys
0 242 -405 322 0 0 1 30 0 1 0 1
0 242 -405 314.001 0 0 1 30 0 1 0 1
0 178 -405 314.001 0 0 1 30 0 1 0 1
phys
0 242 -405 322 0 0 1 30 0 1 0 1
0 178 -405 314.001 0 0 1 30 0 1 0 1
0 178 -405 322 0 0 1 30 0 1 0 1
phys
0 178 -413 322 0 0 1 30 0 1 0 1
0 178 -405 322 0 0 1 30 0 1 0 1
0 178 -405 314.001 0 0 1 30 0 1 0 1
phys
0 242 -405 314.001 0 0 1 30 0 1 0 1
0 242 -405 322 0 0 1 30 0 1 0 1
0 242 -413 322 0 0 1 30 0 1 0 1
phys
0 242 -413 322 0 0 1 30 0 1 0 1
0 242 -405 322 0 0 1 30 0 1 0 1
0 178 -405 322 0 0 1 30 0 1 0 1
phys
0 242 -413 322 0 0 1 30 0 1 0 1
0 178 -405 322 0 0 1 30 0 1 0 1
0 178 -413 322 0 0 1 30 0 1 0 1
phys
0 178 -413 322 0 0 1 30 0 1 0 1
0 178 -405 314.001 0 0 1 30 0 1 0 1
0 242 -405 314.001 0 0 1 30 0 1 0 1
phys
0 178 -413 322 0 0 1 30 0 1 0 1
0 242 -405 314.001 0 0 1 30 0 1 0 1
0 242 -413 322 0 0 1 30 0 1 0 1
phys
0 302 -333 218 0 0 1 31 0 1 0 1
0 366 -333 218 0 0 1 31 0 1 0 1
0 366 -325 218 0 0 1 31 0 1 0 1
phys
0 302 -333 218 0 0 1 31 0 1 0 1
0 366 -325 218 0 0 1 31 0 1 0 1
0 302 -325 218 0 0 1 31 0 1 0 1
phys
0 366 -333 210 0 0 1 31 0 1 0 1
0 302 -333 210 0 0 1 31 0 1 0 1
0 302 -325 218 0 0 1 31 0 1 0 1
phys
0 366 -333 210 0 0 1 31 0 1 0 1
0 302 -325 218 0 0 1 31 0 1 0 1
0 366 -325 218 0 0 1 31 0 1 0 1
phys
0 366 -333 218 0 0 1 31 0 1 0 1
0 302 -333 218 0 0 1 31 0 1 0 1
0 302 -333 210 0 0 1 31 0 1 0 1
phys
0 366 -333 218 0 0 1 31 0 1 0 1
0 302 -333 210 0 0 1 31 0 1 0 1
0 366 -333 210 0 0 1 31 0 1 0 1
phys
0 302 -333 218 0 0 1 31 0 1 0 1
0 302 -325 218 0 0 1 31 0 1 0 1
0 302 -333 210 0 0 1 31 0 1 0 1
phys
0 366 -333 210 0 0 1 31 0 1 0 1
0 366 -325 218 0 0 1 31 0 1 0 1
0 366 -333 218 0 0 1 31 0 1 0 1
phys
0 463 -222 425.9968 0 0 1 32 0 1 0 1
0 463 -212 425.9968 0 0 1 32 0 1 0 1
0 463 -212 314 0 0 1 32 0 1 0 1
phys
0 463 -222 425.9968 0 0 1 32 0 1 0 1
0 463 -212 314 0 0 1 32 0 1 0 1
0 463 -222 314 0 0 1 32 0 1 0 1
phys
0 467 -222 314 0 0 1 32 0 1 0 1
0 467 -212 314 0 0 1 32 0 1 0 1
0 467 -212 421.9968 0 0 1 32 0 1 0 1
phys
0 467 -222 314 0 0 1 32 0 1 0 1
0 467 -212 421.9968 0 0 1 32 0 1 0 1
0 467 -222 421.9968 0 0 1 32 0 1 0 1
phys
0 463 -222 314 0 0 1 32 0 1 0 1
0 463 -212 314 0 0 1 32 0 1 0 1
0 467 -212 314 0 0 1 32 0 1 0 1
phys
0 463 -222 314 0 0 1 32 0 1 0 1
0 467 -212 314 0 0 1 32 0 1 0 1
0 467 -222 314 0 0 1 32 0 1 0 1
phys
0 467 -222 421.9968 0 0 1 32 0 1 0 1
0 467 -212 421.9968 0 0 1 32 0 1 0 1
0 463 -212 425.9968 0 0 1 32 0 1 0 1
phys
0 467 -222 421.9968 0 0 1 32 0 1 0 1
0 463 -212 425.9968 0 0 1 32 0 1 0 1
0 463 -222 425.9968 0 0 1 32 0 1 0 1
phys
0 467 -212 421.9968 0 0 1 32 0 1 0 1
0 467 -212 314 0 0 1 32 0 1 0 1
0 463 -212 314 0 0 1 32 0 1 0 1
phys
0 467 -212 421.9968 0 0 1 32 0 1 0 1
0 463 -212 314 0 0 1 32 0 1 0 1
0 463 -212 425.9968 0 0 1 32 0 1 0 1
phys
0 467 -222 314 0 0 1 32 0 1 0 1
0 467 -222 421.9968 0 0 1 32 0 1 0 1
0 463 -222 425.9968 0 0 1 32 0 1 0 1
phys
0 467 -222 314 0 0 1 32 0 1 0 1
0 463 -222 425.9968 0 0 1 32 0 1 0 1
0 463 -222 314 0 0 1 32 0 1 0 1
phys
0 4 -8 -56 0 0 1 33 0 1 0 1
0 4 -8 56 0 0 1 33 0 1 0 1
0 -4 -8 48 0 0 1 33 0 1 0 1
phys
0 4 -8 -56 0 0 1 33 0 1 0 1
0 -4 -8 48 0 0 1 33 0 1 0 1
0 -4 -8 -56 0 0 1 33 0 1 0 1
phys
0 -4 -8 -56 0 0 1 33 0 1 0 1
0 -4 -8 48 0 0 1 33 0 1 0 1
0 -4 8 48 0 0 1 33 0 1 0 1
phys
0 -4 -8 -56 0 0 1 33 0 1 0 1
0 -4 8 48 0 0 1 33 0 1 0 1
0 -4 8 -56 0 0 1 33 0 1 0 1
phys
0 4 -8 56 0 0 1 33 0 1 0 1
0 4 -8 -56 0 0 1 33 0 1 0 1
0 4 8 -56 0 0 1 33 0 1 0 1
phys
0 4 -8 56 0 0 1 33 0 1 0 1
0 4 8 -56 0 0 1 33 0 1 0 1
0 4 8 56 0 0 1 33 0 1 0 1
phys
0 4 -8 -56 0 0 1 33 0 1 0 1
0 -4 -8 -56 0 0 1 33 0 1 0 1
0 -4 8 -56 0 0 1 33 0 1 0 1
phys
0 4 -8 -56 0 0 1 33 0 1 0 1
0 -4 8 -56 0 0 1 33 0 1 0 1
0 4 8 -56 0 0 1 33 0 1 0 1
phys
0 -4 -8 48 0 0 1 33 0 1 0 1
0 4 -8 56 0 0 1 33 0 1 0 1
0 4 8 56 0 0 1 33 0 1 0 1
phys
0 -4 -8 48 0 0 1 33 0 1 0 1
0 4 8 56 0 0 1 33 0 1 0 1
0 -4 8 48 0 0 1 33 0 1 0 1
phys
0 4 8 56 0 0 1 33 0 1 0 1
0 4 8 -56 0 0 1 33 0 1 0 1
0 -4 8 -56 0 0 1 33 0 1 0 1
phys
0 4 8 56 0 0 1 33 0 1 0 1
0 -4 8 -56 0 0 1 33 0 1 0 1
0 -4 8 48 0 0 1 33 0 1 0 1
phys
0 242 -429 346 0 0 1 34 0 1 0 1
0 242 -437 346 0 0 1 34 0 1 0 1
0 242 -429 338.001 0 0 1 34 0 1 0 1
phys
0 178 -437 346 0 0 1 34 0 1 0 1
0 242 -437 346 0 0 1 34 0 1 0 1
0 242 -429 346 0 0 1 34 0 1 0 1
phys
0 178 -437 346 0 0 1 34 0 1 0 1
0 242 -429 346 0 0 1 34 0 1 0 1
0 178 -429 346 0 0 1 34 0 1 0 1
phys
0 178 -429 338.001 0 0 1 34 0 1 0 1
0 242 -429 338.001 0 0 1 34 0 1 0 1
0 242 -437 346 0 0 1 34 0 1 0 1
phys
0 178 -429 338.001 0 0 1 34 0 1 0 1
0 242 -437 346 0 0 1 34 0 1 0 1
0 178 -437 346 0 0 1 34 0 1 0 1
phys
0 242 -429 346 0 0 1 34 0 1 0 1
0 242 -429 338.001 0 0 1 34 0 1 0 1
0 178 -429 338.001 0 0 1 34 0 1 0 1
phys
0 242 -429 346 0 0 1 34 0 1 0 1
0 178 -429 338.001 0 0 1 34 0 1 0 1
0 178 -429 346 0 0 1 34 0 1 0 1
phys
0 178 -437 346 0 0 1 34 0 1 0 1
0 178 -429 346 0 0 1 34 0 1 0 1
0 178 -429 338.001 0 0 1 34 0 1 0 1
phys
0 178 -349 258 0 0 1 35 0 1 0 1
0 178 -341 258 0 0 1 35 0 1 0 1
0 178 -341 250.001 0 0 1 35 0 1 0 1
phys
0 242 -341 258 0 0 1 35 0 1 0 1
0 242 -349 258 0 0 1 35 0 1 0 1
0 242 -341 250.001 0 0 1 35 0 1 0 1
phys
0 242 -349 258 0 0 1 35 0 1 0 1
0 242 -341 258 0 0 1 35 0 1 0 1
0 178 -341 258 0 0 1 35 0 1 0 1
phys
0 242 -349 258 0 0 1 35 0 1 0 1
0 178 -341 258 0 0 1 35 0 1 0 1
0 178 -349 258 0 0 1 35 0 1 0 1
phys
0 178 -349 258 0 0 1 35 0 1 0 1
0 178 -341 250.001 0 0 1 35 0 1 0 1
0 242 -341 250.001 0 0 1 35 0 1 0 1
phys
0 178 -349 258 0 0 1 35 0 1 0 1
0 242 -341 250.001 0 0 1 35 0 1 0 1
0 242 -349 258 0 0 1 35 0 1 0 1
phys
0 242 -341 258 0 0 1 35 0 1 0 1
0 242 -341 250.001 0 0 1 35 0 1 0 1
0 178 -341 250.001 0 0 1 35 0 1 0 1
phys
0 242 -341 258 0 0 1 35 0 1 0 1
0 178 -341 250.001 0 0 1 35 0 1 0 1
0 178 -341 258 0 0 1 35 0 1 0 1
phys
0 366 -373 170 0 0 1 36 0 1 0 1
0 366 -373 178 0 0 1 36 0 1 0 1
0 302 -373 178 0 0 1 36 0 1 0 1
phys
0 366 -373 170 0 0 1 36 0 1 0 1
0 302 -373 178 0 0 1 36 0 1 0 1
0 302 -373 170 0 0 1 36 0 1 0 1
phys
0 302 -373 170 0 0 1 36 0 1 0 1
0 302 -373 178 0 0 1 36 0 1 0 1
0 302 -365 178 0 0 1 36 0 1 0 1
phys
0 366 -373 178 0 0 1 36 0 1 0 1
0 366 -373 170 0 0 1 36 0 1 0 1
0 366 -365 178 0 0 1 36 0 1 0 1
phys
0 302 -373 178 0 0 1 36 0 1 0 1
0 366 -373 178 0 0 1 36 0 1 0 1
0 366 -365 178 0 0 1 36 0 1 0 1
phys
0 302 -373 178 0 0 1 36 0 1 0 1
0 366 -365 178 0 0 1 36 0 1 0 1
0 302 -365 178 0 0 1 36 0 1 0 1
phys
0 366 -373 170 0 0 1 36 0 1 0 1
0 302 -373 170 0 0 1 36 0 1 0 1
0 302 -365 178 0 0 1 36 0 1 0 1
phys
0 366 -373 170 0 0 1 36 0 1 0 1
0 302 -365 178 0 0 1 36 0 1 0 1
0 366 -365 178 0 0 1 36 0 1 0 1
phys
0 60 -146 52 0 0 1 37 0 1 0 1
0 60 -146 -56 0 0 1 37 0 1 0 1
0 52 -146 -56 0 0 1 37 0 1 0 1
phys
0 60 -146 52 0 0 1 37 0 1 0 1
0 52 -146 -56 0 0 1 37 0 1 0 1
0 52 -146 52 0 0 1 37 0 1 0 1
phys
0 60 -150 -56 0 0 1 37 0 1 0 1
0 60 -150 56 0 0 1 37 0 1 0 1
0 52 -150 56 0 0 1 37 0 1 0 1
phys
0 60 -150 -56 0 0 1 37 0 1 0 1
0 52 -150 56 0 0 1 37 0 1 0 1
0 52 -150 -56 0 0 1 37 0 1 0 1
phys
0 52 -150 -56 0 0 1 37 0 1 0 1
0 52 -150 56 0 0 1 37 0 1 0 1
0 52 -146 52 0 0 1 37 0 1 0 1
phys
0 52 -150 -56 0 0 1 37 0 1 0 1
0 52 -146 52 0 0 1 37 0 1 0 1
0 52 -146 -56 0 0 1 37 0 1 0 1
phys
0 60 -150 56 0 0 1 37 0 1 0 1
0 60 -150 -56 0 0 1 37 0 1 0 1
0 60 -146 -56 0 0 1 37 0 1 0 1
phys
0 60 -150 56 0 0 1 37 0 1 0 1
0 60 -146 -56 0 0 1 37 0 1 0 1
0 60 -146 52 0 0 1 37 0 1 0 1
phys
0 60 -150 -56 0 0 1 37 0 1 0 1
0 52 -150 -56 0 0 1 37 0 1 0 1
0 52 -146 -56 0 0 1 37 0 1 0 1
phys
0 60 -150 -56 0 0 1 37 0 1 0 1
0 52 -146 -56 0 0 1 37 0 1 0 1
0 60 -146 -56 0 0 1 37 0 1 0 1
phys
0 52 -150 56 0 0 1 37 0 1 0 1
0 60 -150 56 0 0 1 37 0 1 0 1
0 60 -146 52 0 0 1 37 0 1 0 1
phys
0 52 -150 56 0 0 1 37 0 1 0 1
0 60 -146 52 0 0 1 37 0 1 0 1
0 52 -146 52 0 0 1 37 0 1 0 1
phys
0 153 -94 56 0 0 1 38 0 1 0 1
0 153 -94 -56 0 0 1 38 0 1 0 1
0 143 -94 -56 0 0 1 38 0 1 0 1
phys
0 153 -94 56 0 0 1 38 0 1 0 1
0 143 -94 -56 0 0 1 38 0 1 0 1
0 143 -94 56 0 0 1 38 0 1 0 1
phys
0 153 -98 -56 0 0 1 38 0 1 0 1
0 153 -98 52.012 0 0 1 38 0 1 0 1
0 143 -98 52.012 0 0 1 38 0 1 0 1
phys
0 153 -98 -56 0 0 1 38 0 1 0 1
0 143 -98 52.012 0 0 1 38 0 1 0 1
0 143 -98 -56 0 0 1 38 0 1 0 1
phys
0 143 -98 -56 0 0 1 38 0 1 0 1
0 143 -98 52.012 0 0 1 38 0 1 0 1
0 143 -94 56 0 0 1 38 0 1 0 1
phys
0 143 -98 -56 0 0 1 38 0 1 0 1
0 143 -94 56 0 0 1 38 0 1 0 1
0 143 -94 -56 0 0 1 38 0 1 0 1
phys
0 153 -98 52.012 0 0 1 38 0 1 0 1
0 153 -98 -56 0 0 1 38 0 1 0 1
0 153 -94 -56 0 0 1 38 0 1 0 1
phys
0 153 -98 52.012 0 0 1 38 0 1 0 1
0 153 -94 -56 0 0 1 38 0 1 0 1
0 153 -94 56 0 0 1 38 0 1 0 1
phys
0 153 -98 -56 0 0 1 38 0 1 0 1
0 143 -98 -56 0 0 1 38 0 1 0 1
0 143 -94 -56 0 0 1 38 0 1 0 1
phys
0 153 -98 -56 0 0 1 38 0 1 0 1
0 143 -94 -56 0 0 1 38 0 1 0 1
0 153 -94 -56 0 0 1 38 0 1 0 1
phys
0 143 -98 52.012 0 0 1 38 0 1 0 1
0 153 -98 52.012 0 0 1 38 0 1 0 1
0 153 -94 56 0 0 1 38 0 1 0 1
phys
0 143 -98 52.012 0 0 1 38 0 1 0 1
0 153 -94 56 0 0 1 38 0 1 0 1
0 143 -94 56 0 0 1 38 0 1 0 1
phys
0 143 -150 56 0 0 1 39 0 1 0 1
0 143 -94 56 0 0 1 39 0 1 0 1
0 143 -98 52 0 0 1 39 0 1 0 1
phys
0 143 -150 56 0 0 1 39 0 1 0 1
0 143 -98 52 0 0 1 39 0 1 0 1
0 143 -146 52 0 0 1 39 0 1 0 1
phys
0 153 -146 52 0 0 1 39 0 1 0 1
0 153 -98 52 0 0 1 39 0 1 0 1
0 153 -94 56 0 0 1 39 0 1 0 1
phys
0 153 -146 52 0 0 1 39 0 1 0 1
0 153 -94 56 0 0 1 39 0 1 0 1
0 153 -150 56 0 0 1 39 0 1 0 1
phys
0 143 -146 52 0 0 1 39 0 1 0 1
0 143 -98 52 0 0 1 39 0 1 0 1
0 153 -98 52 0 0 1 39 0 1 0 1
phys
0 143 -146 52 0 0 1 39 0 1 0 1
0 153 -98 52 0 0 1 39 0 1 0 1
0 153 -146 52 0 0 1 39 0 1 0 1
phys
0 153 -150 56 0 0 1 39 0 1 0 1
0 153 -94 56 0 0 1 39 0 1 0 1
0 143 -94 56 0 0 1 39 0 1 0 1
phys
0 153 -150 56 0 0 1 39 0 1 0 1
0 143 -94 56 0 0 1 39 0 1 0 1
0 143 -150 56 0 0 1 39 0 1 0 1
phys
0 143 -150 56 0 0 1 39 0 1 0 1
0 143 -146 52 0 0 1 39 0 1 0 1
0 153 -146 52 0 0 1 39 0 1 0 1
phys
0 143 -150 56 0 0 1 39 0 1 0 1
0 153 -146 52 0 0 1 39 0 1 0 1
0 153 -150 56 0 0 1 39 0 1 0 1
phys
0 143 -98 52 0 0 1 39 0 1 0 1
0 143 -94 56 0 0 1 39 0 1 0 1
0 153 -94 56 0 0 1 39 0 1 0 1
phys
0 143 -98 52 0 0 1 39 0 1 0 1
0 153 -94 56 0 0 1 39 0 1 0 1
0 153 -98 52 0 0 1 39 0 1 0 1
phys
0 302 -341 210 0 0 1 40 0 1 0 1
0 366 -341 210 0 0 1 40 0 1 0 1
0 366 -333 210 0 0 1 40 0 1 0 1
phys
0 302 -341 210 0 0 1 40 0 1 0 1
0 366 -333 210 0 0 1 40 0 1 0 1
0 302 -333 210 0 0 1 40 0 1 0 1
phys
0 366 -341 202 0 0 1 40 0 1 0 1
0 302 -341 202 0 0 1 40 0 1 0 1
0 302 -333 210 0 0 1 40 0 1 0 1
phys
0 366 -341 202 0 0 1 40 0 1 0 1
0 302 -333 210 0 0 1 40 0 1 0 1
0 366 -333 210 0 0 1 40 0 1 0 1
phys
0 366 -341 210 0 0 1 40 0 1 0 1
0 302 -341 210 0 0 1 40 0 1 0 1
0 302 -341 202 0 0 1 40 0 1 0 1
phys
0 366 -341 210 0 0 1 40 0 1 0 1
0 302 -341 202 0 0 1 40 0 1 0 1
0 366 -341 202 0 0 1 40 0 1 0 1
phys
0 302 -341 210 0 0 1 40 0 1 0 1
0 302 -333 210 0 0 1 40 0 1 0 1
0 302 -341 202 0 0 1 40 0 1 0 1
phys
0 366 -341 202 0 0 1 40 0 1 0 1
0 366 -333 210 0 0 1 40 0 1 0 1
0 366 -341 210 0 0 1 40 0 1 0 1
phys
0 242 -349 266 0 0 1 41 0 1 0 1
0 242 -349 258.001 0 0 1 41 0 1 0 1
0 178 -349 258.001 0 0 1 41 0 1 0 1
phys
0 242 -349 266 0 0 1 41 0 1 0 1
0 178 -349 258.001 0 0 1 41 0 1 0 1
0 178 -349 266 0 0 1 41 0 1 0 1
phys
0 178 -357 266 0 0 1 41 0 1 0 1
0 178 -349 266 0 0 1 41 0 1 0 1
0 178 -349 258.001 0 0 1 41 0 1 0 1
phys
0 242 -349 258.001 0 0 1 41 0 1 0 1
0 242 -349 266 0 0 1 41 0 1 0 1
0 242 -357 266 0 0 1 41 0 1 0 1
phys
0 242 -357 266 0 0 1 41 0 1 0 1
0 242 -349 266 0 0 1 41 0 1 0 1
0 178 -349 266 0 0 1 41 0 1 0 1
phys
0 242 -357 266 0 0 1 41 0 1 0 1
0 178 -349 266 0 0 1 41 0 1 0 1
0 178 -357 266 0 0 1 41 0 1 0 1
phys
0 178 -357 266 0 0 1 41 0 1 0 1
0 178 -349 258.001 0 0 1 41 0 1 0 1
0 242 -349 258.001 0 0 1 41 0 1 0 1
phys
0 178 -357 266 0 0 1 41 0 1 0 1
0 242 -349 258.001 0 0 1 41 0 1 0 1
0 242 -357 266 0 0 1 41 0 1 0 1
phys
0 320 55 -36 0 0 1 42 0 1 0 1
0 320 55 -38 0 0 1 42 0 1 0 1
0 274 55 -38 0 0 1 42 0 1 0 1
phys
0 320 55 -36 0 0 1 42 0 1 0 1
0 274 55 -38 0 0 1 42 0 1 0 1
0 274 55 -36 0 0 1 42 0 1 0 1
phys
0 320 -85 -38 0 0 1 42 0 1 0 1
0 320 -85 -36 0 0 1 42 0 1 0 1
0 274 -85 -36 0 0 1 42 0 1 0 1
phys
0 320 -85 -38 0 0 1 42 0 1 0 1
0 274 -85 -36 0 0 1 42 0 1 0 1
0 274 -85 -38 0 0 1 42 0 1 0 1
phys
0 274 -85 -38 0 0 1 42 0 1 0 1
0 274 -85 -36 0 0 1 42 0 1 0 1
0 274 55 -36 0 0 1 42 0 1 0 1
phys
0 274 -85 -38 0 0 1 42 0 1 0 1
0 274 55 -36 0 0 1 42 0 1 0 1
0 274 55 -38 0 0 1 42 0 1 0 1
phys
0 320 -85 -36 0 0 1 42 0 1 0 1
0 320 -85 -38 0 0 1 42 0 1 0 1
0 320 55 -38 0 0 1 42 0 1 0 1
phys
0 320 -85 -36 0 0 1 42 0 1 0 1
0 320 55 -38 0 0 1 42 0 1 0 1
0 320 55 -36 0 0 1 42 0 1 0 1
phys
0 320 -85 -38 0 0 1 42 0 1 0 1
0 274 -85 -38 0 0 1 42 0 1 0 1
0 274 55 -38 0 0 1 42 0 1 0 1
phys
0 320 -85 -38 0 0 1 42 0 1 0 1
0 274 55 -38 0 0 1 42 0 1 0 1
0 320 55 -38 0 0 1 42 0 1 0 1
phys
0 274 -85 -36 0 0 1 42 0 1 0 1
0 320 -85 -36 0 0 1 42 0 1 0 1
0 320 55 -36 0 0 1 42 0 1 0 1
phys
0 274 -85 -36 0 0 1 42 0 1 0 1
0 320 55 -36 0 0 1 42 0 1 0 1
0 274 55 -36 0 0 1 42 0 1 0 1
phys
0 242 -397 314 0 0 1 43 0 1 0 1
0 242 -397 306.001 0 0 1 43 0 1 0 1
0 178 -397 306.001 0 0 1 43 0 1 0 1
phys
0 242 -397 314 0 0 1 43 0 1 0 1
0 178 -397 306.001 0 0 1 43 0 1 0 1
0 178 -397 314 0 0 1 43 0 1 0 1
phys
0 178 -405 314 0 0 1 43 0 1 0 1
0 178 -397 314 0 0 1 43 0 1 0 1
0 178 -397 306.001 0 0 1 43 0 1 0 1
phys
0 242 -397 306.001 0 0 1 43 0 1 0 1
0 242 -397 314 0 0 1 43 0 1 0 1
0 242 -405 314 0 0 1 43 0 1 0 1
phys
0 242 -405 314 0 0 1 43 0 1 0 1
0 242 -397 314 0 0 1 43 0 1 0 1
0 178 -397 314 0 0 1 43 0 1 0 1
phys
0 242 -405 314 0 0 1 43 0 1 0 1
0 178 -397 314 0 0 1 43 0 1 0 1
0 178 -405 314 0 0 1 43 0 1 0 1
phys
0 178 -405 314 0 0 1 43 0 1 0 1
0 178 -397 306.001 0 0 1 43 0 1 0 1
0 242 -397 306.001 0 0 1 43 0 1 0 1
phys
0 178 -405 314 0 0 1 43 0 1 0 1
0 242 -397 306.001 0 0 1 43 0 1 0 1
0 242 -405 314 0 0 1 43 0 1 0 1
phys
0 178 -429 338 0 0 1 44 0 1 0 1
0 242 -429 338 0 0 1 44 0 1 0 1
0 242 -421 338 0 0 1 44 0 1 0 1
phys
0 178 -429 338 0 0 1 44 0 1 0 1
0 242 -421 338 0 0 1 44 0 1 0 1
0 178 -421 338 0 0 1 44 0 1 0 1
phys
0 242 -429 338 0 0 1 44 0 1 0 1
0 178 -429 338 0 0 1 44 0 1 0 1
0 178 -421 330.001 0 0 1 44 0 1 0 1
phys
0 242 -429 338 0 0 1 44 0 1 0 1
0 178 -421 330.001 0 0 1 44 0 1 0 1
0 242 -421 330.001 0 0 1 44 0 1 0 1
phys
0 242 -421 330.001 0 0 1 44 0 1 0 1
0 178 -421 330.001 0 0 1 44 0 1 0 1
0 178 -421 338 0 0 1 44 0 1 0 1
phys
0 242 -421 330.001 0 0 1 44 0 1 0 1
0 178 -421 338 0 0 1 44 0 1 0 1
0 242 -421 338 0 0 1 44 0 1 0 1
phys
0 178 -429 338 0 0 1 44 0 1 0 1
0 178 -421 338 0 0 1 44 0 1 0 1
0 178 -421 330.001 0 0 1 44 0 1 0 1
phys
0 242 -421 338 0 0 1 44 0 1 0 1
0 242 -429 338 0 0 1 44 0 1 0 1
0 242 -421 330.001 0 0 1 44 0 1 0 1
phys
0 178 -373 282 0 0 1 45 0 1 0 1
0 178 -365 274.001 0 0 1 45 0 1 0 1
0 242 -365 274.001 0 0 1 45 0 1 0 1
phys
0 178 -373 282 0 0 1 45 0 1 0 1
0 242 -365 274.001 0 0 1 45 0 1 0 1
0 242 -373 282 0 0 1 45 0 1 0 1
phys
0 242 -365 282 0 0 1 45 0 1 0 1
0 242 -365 274.001 0 0 1 45 0 1 0 1
0 178 -365 274.001 0 0 1 45 0 1 0 1
phys
0 242 -365 282 0 0 1 45 0 1 0 1
0 178 -365 274.001 0 0 1 45 0 1 0 1
0 178 -365 282 0 0 1 45 0 1 0 1
phys
0 178 -365 282 0 0 1 45 0 1 0 1
0 178 -365 274.001 0 0 1 45 0 1 0 1
0 178 -373 282 0 0 1 45 0 1 0 1
phys
0 242 -373 282 0 0 1 45 0 1 0 1
0 242 -365 274.001 0 0 1 45 0 1 0 1
0 242 -365 282 0 0 1 45 0 1 0 1
phys
0 178 -373 282 0 0 1 45 0 1 0 1
0 242 -373 282 0 0 1 45 0 1 0 1
0 242 -365 282 0 0 1 45 0 1 0 1
phys
0 178 -373 282 0 0 1 45 0 1 0 1
0 242 -365 282 0 0 1 45 0 1 0 1
0 178 -365 282 0 0 1 45 0 1 0 1
end
