version 1
nodes
0 "root" -1
end
skeleton
time 0
0 0 0 0 0 0 0
end
triangles
de_nuke_nuke_beam_01
0 366 -357 186 0 -1 0 -3.302083 -153.333333 1 0 1
0 366 -357 194 0 -1 0 -3.197917 -153.333333 1 0 1
0 302 -357 194 0 -1 0 -3.197917 -154.166667 1 0 1
de_nuke_nuke_beam_01
0 366 -357 186 0 -1 0 -3.302083 -153.333333 1 0 1
0 302 -357 194 0 -1 0 -3.197917 -154.166667 1 0 1
0 302 -357 186 0 -1 0 -3.302083 -154.166667 1 0 1
de_nuke_nuke_beam_01
0 302 -357 194 0 0 1 -38.302734 -154.166667 1 0 1
0 366 -357 194 0 0 1 -38.302734 -153.333333 1 0 1
0 366 -349 194 0 0 1 -38.198568 -153.333333 1 0 1
de_nuke_nuke_beam_01
0 302 -357 194 0 0 1 -38.302734 -154.166667 1 0 1
0 366 -349 194 0 0 1 -38.198568 -153.333333 1 0 1
0 302 -349 194 0 0 1 -38.198568 -154.166667 1 0 1
de_nuke_nuke_metalfloor_01
0 273 -86 47 -1 0 0 15.404297 -103.283203 1 0 1
0 273 -83 47 -1 0 0 15.404297 -103.166016 1 0 1
0 273 -83 -56 -1 0 0 19.427734 -103.166016 1 0 1
de_nuke_nuke_metalfloor_01
0 273 -86 47 -1 0 0 15.404297 -103.283203 1 0 1
0 273 -83 -56 -1 0 0 19.427734 -103.166016 1 0 1
0 273 -86 -56 -1 0 0 19.427734 -103.283203 1 0 1
de_nuke_nuke_metalfloor_01
0 276 -86 -56 1 0 0 19.427734 -103.283203 1 0 1
0 276 -83 -56 1 0 0 19.427734 -103.166016 1 0 1
0 276 -83 47 1 0 0 15.404297 -103.166016 1 0 1
de_nuke_nuke_metalfloor_01
0 276 -86 -56 1 0 0 19.427734 -103.283203 1 0 1
0 276 -83 47 1 0 0 15.404297 -103.166016 1 0 1
0 276 -86 47 1 0 0 15.404297 -103.283203 1 0 1
de_nuke_nuke_metalfloor_01
0 276 -86 47 0 0 1 -466.955078 -103.283203 1 0 1
0 276 -83 47 0 0 1 -466.955078 -103.166016 1 0 1
0 273 -83 47 0 0 1 -467.072266 -103.166016 1 0 1
de_nuke_nuke_metalfloor_01
0 276 -86 47 0 0 1 -466.955078 -103.283203 1 0 1
0 273 -83 47 0 0 1 -467.072266 -103.166016 1 0 1
0 273 -86 47 0 0 1 -467.072266 -103.283203 1 0 1
de_nuke_nuke_metalfloor_01
0 276 -83 47 0 1 0 15.404297 467.591797 1 0 1
0 276 -83 -56 0 1 0 19.427734 467.591797 1 0 1
0 273 -83 -56 0 1 0 19.427734 467.708984 1 0 1
de_nuke_nuke_metalfloor_01
0 276 -83 47 0 1 0 15.404297 467.591797 1 0 1
0 273 -83 -56 0 1 0 19.427734 467.708984 1 0 1
0 273 -83 47 0 1 0 15.404297 467.708984 1 0 1
de_nuke_nuke_metalfloor_01
0 276 -86 -56 0 -1 0 19.427734 -466.041016 1 0 1
0 276 -86 47 0 -1 0 15.404297 -466.041016 1 0 1
0 273 -86 47 0 -1 0 15.404297 -466.158203 1 0 1
de_nuke_nuke_metalfloor_01
0 276 -86 -56 0 -1 0 19.427734 -466.041016 1 0 1
0 273 -86 47 0 -1 0 15.404297 -466.158203 1 0 1
0 273 -86 -56 0 -1 0 19.427734 -466.158203 1 0 1
de_nuke_nuke_metalfloor_01
0 321 -83 47 0 1 0 15.404297 465.833984 1 0 1
0 321 -83 -56 0 1 0 19.427734 465.833984 1 0 1
0 318 -83 -56 0 1 0 19.427734 465.951172 1 0 1
de_nuke_nuke_metalfloor_01
0 321 -83 47 0 1 0 15.404297 465.833984 1 0 1
0 318 -83 -56 0 1 0 19.427734 465.951172 1 0 1
0 318 -83 47 0 1 0 15.404297 465.951172 1 0 1
de_nuke_nuke_metalfloor_01
0 321 -86 -56 0 -1 0 19.427734 -464.283203 1 0 1
0 321 -86 47 0 -1 0 15.404297 -464.283203 1 0 1
0 318 -86 47 0 -1 0 15.404297 -464.400391 1 0 1
de_nuke_nuke_metalfloor_01
0 321 -86 -56 0 -1 0 19.427734 -464.283203 1 0 1
0 318 -86 47 0 -1 0 15.404297 -464.400391 1 0 1
0 318 -86 -56 0 -1 0 19.427734 -464.400391 1 0 1
de_nuke_nuke_metalfloor_01
0 318 -86 -56 -1 0 0 19.427734 -103.283203 1 0 1
0 318 -86 47 -1 0 0 15.404297 -103.283203 1 0 1
0 318 -83 47 -1 0 0 15.404297 -103.166016 1 0 1
de_nuke_nuke_metalfloor_01
0 318 -86 -56 -1 0 0 19.427734 -103.283203 1 0 1
0 318 -83 47 -1 0 0 15.404297 -103.166016 1 0 1
0 318 -83 -56 -1 0 0 19.427734 -103.166016 1 0 1
de_nuke_nuke_metalfloor_01
0 321 -86 47 1 0 0 15.404297 -103.283203 1 0 1
0 321 -86 -56 1 0 0 19.427734 -103.283203 1 0 1
0 321 -83 -56 1 0 0 19.427734 -103.166016 1 0 1
de_nuke_nuke_metalfloor_01
0 321 -86 47 1 0 0 15.404297 -103.283203 1 0 1
0 321 -83 -56 1 0 0 19.427734 -103.166016 1 0 1
0 321 -83 47 1 0 0 15.404297 -103.166016 1 0 1
de_nuke_nuke_metalfloor_01
0 318 -86 47 0 0 1 -465.314453 -103.283203 1 0 1
0 321 -86 47 0 0 1 -465.197266 -103.283203 1 0 1
0 321 -83 47 0 0 1 -465.197266 -103.166016 1 0 1
de_nuke_nuke_metalfloor_01
0 318 -86 47 0 0 1 -465.314453 -103.283203 1 0 1
0 321 -83 47 0 0 1 -465.197266 -103.166016 1 0 1
0 318 -83 47 0 0 1 -465.314453 -103.166016 1 0 1
de_nuke_nuke_beam_01
0 366 -405 138 0 -1 0 -4.302083 -153.333333 1 0 1
0 366 -405 146 0 -1 0 -4.197917 -153.333333 1 0 1
0 302 -405 146 0 -1 0 -4.197917 -154.166667 1 0 1
de_nuke_nuke_beam_01
0 366 -405 138 0 -1 0 -4.302083 -153.333333 1 0 1
0 302 -405 146 0 -1 0 -4.197917 -154.166667 1 0 1
0 302 -405 138 0 -1 0 -4.302083 -154.166667 1 0 1
de_nuke_nuke_beam_01
0 302 -405 146 0 0 1 -38.802734 -154.166667 1 0 1
0 366 -405 146 0 0 1 -38.802734 -153.333333 1 0 1
0 366 -397 146 0 0 1 -38.698568 -153.333333 1 0 1
de_nuke_nuke_beam_01
0 302 -405 146 0 0 1 -38.802734 -154.166667 1 0 1
0 366 -397 146 0 0 1 -38.698568 -153.333333 1 0 1
0 302 -397 146 0 0 1 -38.698568 -154.166667 1 0 1
de_nuke_nuke_beam_01
0 242 -373 290 0 1 0 2.197917 -154.832682 1 0 1
0 242 -373 282.001 0 1 0 2.30207 -154.832682 1 0 1
0 178 -373 282.001 0 1 0 2.30207 -155.666016 1 0 1
de_nuke_nuke_beam_01
0 242 -373 290 0 1 0 2.197917 -154.832682 1 0 1
0 178 -373 282.001 0 1 0 2.30207 -155.666016 1 0 1
0 178 -373 290 0 1 0 2.197917 -155.666016 1 0 1
de_nuke_nuke_beam_01
0 242 -381 290 0 0 1 -38.40625 -154.832682 1 0 1
0 242 -373 290 0 0 1 -38.302083 -154.832682 1 0 1
0 178 -373 290 0 0 1 -38.302083 -155.666016 1 0 1
de_nuke_nuke_beam_01
0 242 -381 290 0 0 1 -38.40625 -154.832682 1 0 1
0 178 -373 290 0 0 1 -38.302083 -155.666016 1 0 1
0 178 -381 290 0 0 1 -38.40625 -155.666016 1 0 1
cs_havana_woodm
0 302 -446 393 0 0 1 -155.172526 -39.049479 1 0 1
0 366 -446 393 0 0 1 -154.339193 -39.049479 1 0 1
0 366 -442 393 0 0 1 -154.339193 -38.997396 1 0 1
cs_havana_woodm
0 302 -446 393 0 0 1 -155.172526 -39.049479 1 0 1
0 366 -442 393 0 0 1 -154.339193 -38.997396 1 0 1
0 302 -442 393 0 0 1 -155.172526 -38.997396 1 0 1
cs_havana_woodm
0 366 -442 393 0 1 0 -154.339193 2.003255 1 0 1
0 366 -442 350 0 1 0 -154.339193 2.563151 1 0 1
0 302 -442 350 0 1 0 -155.172526 2.563151 1 0 1
cs_havana_woodm
0 366 -442 393 0 1 0 -154.339193 2.003255 1 0 1
0 302 -442 350 0 1 0 -155.172526 2.563151 1 0 1
0 302 -442 393 0 1 0 -155.172526 2.003255 1 0 1
cs_havana_woodm
0 366 -446 350 0 -1 0 -154.339193 -0.610026 1 0 1
0 366 -446 393 0 -1 0 -154.339193 -0.05013 1 0 1
0 302 -446 393 0 -1 0 -155.172526 -0.05013 1 0 1
cs_havana_woodm
0 366 -446 350 0 -1 0 -154.339193 -0.610026 1 0 1
0 302 -446 393 0 -1 0 -155.172526 -0.05013 1 0 1
0 302 -446 350 0 -1 0 -155.172526 -0.610026 1 0 1
de_nuke_nuke_beam_01
0 366 -381 162 0 -1 0 -3.802083 -153.333333 1 0 1
0 366 -381 170 0 -1 0 -3.697917 -153.333333 1 0 1
0 302 -381 170 0 -1 0 -3.697917 -154.166667 1 0 1
de_nuke_nuke_beam_01
0 366 -381 162 0 -1 0 -3.802083 -153.333333 1 0 1
0 302 -381 170 0 -1 0 -3.697917 -154.166667 1 0 1
0 302 -381 162 0 -1 0 -3.802083 -154.166667 1 0 1
de_nuke_nuke_beam_01
0 302 -381 170 0 0 1 -38.802734 -154.166667 1 0 1
0 366 -381 170 0 0 1 -38.802734 -153.333333 1 0 1
0 366 -373 170 0 0 1 -38.698568 -153.333333 1 0 1
de_nuke_nuke_beam_01
0 302 -381 170 0 0 1 -38.802734 -154.166667 1 0 1
0 366 -373 170 0 0 1 -38.698568 -153.333333 1 0 1
0 302 -373 170 0 0 1 -38.698568 -154.166667 1 0 1
de_nuke_nuke_beam_01
0 242 -381 298 0 1 0 2.197266 -154.832682 1 0 1
0 242 -381 290.001 0 1 0 2.301419 -154.832682 1 0 1
0 178 -381 290.001 0 1 0 2.301419 -155.666016 1 0 1
de_nuke_nuke_beam_01
0 242 -381 298 0 1 0 2.197266 -154.832682 1 0 1
0 178 -381 290.001 0 1 0 2.301419 -155.666016 1 0 1
0 178 -381 298 0 1 0 2.197266 -155.666016 1 0 1
de_nuke_nuke_beam_01
0 242 -389 298 0 0 1 -38.906901 -154.832682 1 0 1
0 242 -381 298 0 0 1 -38.802734 -154.832682 1 0 1
0 178 -381 298 0 0 1 -38.802734 -155.666016 1 0 1
de_nuke_nuke_beam_01
0 242 -389 298 0 0 1 -38.906901 -154.832682 1 0 1
0 178 -381 298 0 0 1 -38.802734 -155.666016 1 0 1
0 178 -389 298 0 0 1 -38.906901 -155.666016 1 0 1
de_nuke_nuke_beam_01
0 242 -437 350 0 1 0 1.145182 -154.832682 1 0 1
0 242 -437 345.9999 0 1 0 1.197267 -154.832682 1 0 1
0 178 -437 345.9999 0 1 0 1.197267 -155.666016 1 0 1
de_nuke_nuke_beam_01
0 242 -437 350 0 1 0 1.145182 -154.832682 1 0 1
0 178 -437 345.9999 0 1 0 1.197267 -155.666016 1 0 1
0 178 -437 350 0 1 0 1.145182 -155.666016 1 0 1
de_nuke_nuke_beam_01
0 242 -442 350 0 0 1 -39.419271 -154.832682 1 0 1
0 242 -437 350 0 0 1 -39.354167 -154.832682 1 0 1
0 178 -437 350 0 0 1 -39.354167 -155.666016 1 0 1
de_nuke_nuke_beam_01
0 242 -442 350 0 0 1 -39.419271 -154.832682 1 0 1
0 178 -437 350 0 0 1 -39.354167 -155.666016 1 0 1
0 178 -442 350 0 0 1 -39.419271 -155.666016 1 0 1
de_nuke_nuke_beam_01
0 366 -325 218 0 -1 0 -3.301432 -153.333333 1 0 1
0 366 -325 226 0 -1 0 -3.197266 -153.333333 1 0 1
0 302 -325 226 0 -1 0 -3.197266 -154.166667 1 0 1
de_nuke_nuke_beam_01
0 366 -325 218 0 -1 0 -3.301432 -153.333333 1 0 1
0 302 -325 226 0 -1 0 -3.197266 -154.166667 1 0 1
0 302 -325 218 0 -1 0 -3.301432 -154.166667 1 0 1
concrete_concretefloor023a
0 302 -325 226 0 0 1 155.110026 -37.020833 1 0 1
0 366 -325 226 0 0 1 154.276693 -37.020833 1 0 1
0 366 -317 226 0 0 1 154.276693 -36.916667 1 0 1
concrete_concretefloor023a
0 302 -325 226 0 0 1 155.110026 -37.020833 1 0 1
0 366 -317 226 0 0 1 154.276693 -36.916667 1 0 1
0 302 -317 226 0 0 1 155.110026 -36.916667 1 0 1
de_nuke_nuke_beam_01
0 60 -98 52.011 0 -1 0 -94.75 -1.829992 1 0 1
0 52 -98 52.011 0 -1 0 -94.8125 -1.829992 1 0 1
0 52 -98 -56 0 -1 0 -94.8125 -2.673828 1 0 1
de_nuke_nuke_beam_01
0 60 -98 52.011 0 -1 0 -94.75 -1.829992 1 0 1
0 52 -98 -56 0 -1 0 -94.8125 -2.673828 1 0 1
0 60 -98 -56 0 -1 0 -94.75 -2.673828 1 0 1
de_nuke_nuke_beam_01
0 52 -94 -56 -1 0 0 21.15625 -2.673828 1 0 1
0 52 -98 -56 -1 0 0 21.1875 -2.673828 1 0 1
0 52 -98 52.011 -1 0 0 21.1875 -1.829992 1 0 1
de_nuke_nuke_beam_01
0 52 -94 -56 -1 0 0 21.15625 -2.673828 1 0 1
0 52 -98 52.011 -1 0 0 21.1875 -1.829992 1 0 1
0 52 -94 56 -1 0 0 21.15625 -1.798828 1 0 1
de_nuke_nuke_beam_01
0 60 -98 -56 1 0 0 -21.1875 -2.673828 1 0 1
0 60 -94 -56 1 0 0 -21.15625 -2.673828 1 0 1
0 60 -94 56 1 0 0 -21.15625 -1.798828 1 0 1
de_nuke_nuke_beam_01
0 60 -98 -56 1 0 0 -21.1875 -2.673828 1 0 1
0 60 -94 56 1 0 0 -21.15625 -1.798828 1 0 1
0 60 -98 52.011 1 0 0 -21.1875 -1.829992 1 0 1
de_nuke_nuke_beam_01
0 302 -421 130 0 0 1 -39.302083 -154.166667 1 0 1
0 366 -421 130 0 0 1 -39.302083 -153.333333 1 0 1
0 366 -413 130 0 0 1 -39.197917 -153.333333 1 0 1
de_nuke_nuke_beam_01
0 302 -421 130 0 0 1 -39.302083 -154.166667 1 0 1
0 366 -413 130 0 0 1 -39.197917 -153.333333 1 0 1
0 302 -413 130 0 0 1 -39.197917 -154.166667 1 0 1
de_nuke_nuke_beam_01
0 366 -421 130 0 -1 0 -4.197266 -153.333333 1 0 1
0 302 -421 130 0 -1 0 -4.197266 -154.166667 1 0 1
0 302 -421 122 0 -1 0 -4.301432 -154.166667 1 0 1
de_nuke_nuke_beam_01
0 366 -421 130 0 -1 0 -4.197266 -153.333333 1 0 1
0 302 -421 122 0 -1 0 -4.301432 -154.166667 1 0 1
0 366 -421 122 0 -1 0 -4.301432 -153.333333 1 0 1
de_nuke_nuke_beam_01
0 366 -389 154 0 -1 0 -3.802734 -153.333333 1 0 1
0 366 -389 162 0 -1 0 -3.698568 -153.333333 1 0 1
0 302 -389 162 0 -1 0 -3.698568 -154.166667 1 0 1
de_nuke_nuke_beam_01
0 366 -389 154 0 -1 0 -3.802734 -153.333333 1 0 1
0 302 -389 162 0 -1 0 -3.698568 -154.166667 1 0 1
0 302 -389 154 0 -1 0 -3.802734 -154.166667 1 0 1
de_nuke_nuke_beam_01
0 302 -389 162 0 0 1 -38.801432 -154.166667 1 0 1
0 366 -389 162 0 0 1 -38.801432 -153.333333 1 0 1
0 366 -381 162 0 0 1 -38.697266 -153.333333 1 0 1
de_nuke_nuke_beam_01
0 302 -389 162 0 0 1 -38.801432 -154.166667 1 0 1
0 366 -381 162 0 0 1 -38.697266 -153.333333 1 0 1
0 302 -381 162 0 0 1 -38.697266 -154.166667 1 0 1
de_nuke_nuke_beam_01
0 242 -389 306 0 1 0 1.698568 -154.832682 1 0 1
0 242 -389 298.001 0 1 0 1.802721 -154.832682 1 0 1
0 178 -389 298.001 0 1 0 1.802721 -155.666016 1 0 1
de_nuke_nuke_beam_01
0 242 -389 306 0 1 0 1.698568 -154.832682 1 0 1
0 178 -389 298.001 0 1 0 1.802721 -155.666016 1 0 1
0 178 -389 306 0 1 0 1.698568 -155.666016 1 0 1
de_nuke_nuke_beam_01
0 242 -397 306 0 0 1 -38.905599 -154.832682 1 0 1
0 242 -389 306 0 0 1 -38.801432 -154.832682 1 0 1
0 178 -389 306 0 0 1 -38.801432 -155.666016 1 0 1
de_nuke_nuke_beam_01
0 242 -397 306 0 0 1 -38.905599 -154.832682 1 0 1
0 178 -389 306 0 0 1 -38.801432 -155.666016 1 0 1
0 178 -397 306 0 0 1 -38.905599 -155.666016 1 0 1
de_nuke_nuke_beam_01
0 366 -349 194 0 -1 0 -3.301432 -153.333333 1 0 1
0 366 -349 202 0 -1 0 -3.197266 -153.333333 1 0 1
0 302 -349 202 0 -1 0 -3.197266 -154.166667 1 0 1
de_nuke_nuke_beam_01
0 366 -349 194 0 -1 0 -3.301432 -153.333333 1 0 1
0 302 -349 202 0 -1 0 -3.197266 -154.166667 1 0 1
0 302 -349 194 0 -1 0 -3.301432 -154.166667 1 0 1
de_nuke_nuke_beam_01
0 302 -349 202 0 0 1 -38.302083 -154.166667 1 0 1
0 366 -349 202 0 0 1 -38.302083 -153.333333 1 0 1
0 366 -341 202 0 0 1 -38.197917 -153.333333 1 0 1
de_nuke_nuke_beam_01
0 302 -349 202 0 0 1 -38.302083 -154.166667 1 0 1
0 366 -341 202 0 0 1 -38.197917 -153.333333 1 0 1
0 302 -341 202 0 0 1 -38.197917 -154.166667 1 0 1
de_nuke_nuke_beam_01
0 366 -429 114 0 -1 0 -4.302083 -153.333333 1 0 1
0 366 -429 122 0 -1 0 -4.197917 -153.333333 1 0 1
0 302 -429 122 0 -1 0 -4.197917 -154.166667 1 0 1
de_nuke_nuke_beam_01
0 366 -429 114 0 -1 0 -4.302083 -153.333333 1 0 1
0 302 -429 122 0 -1 0 -4.197917 -154.166667 1 0 1
0 302 -429 114 0 -1 0 -4.302083 -154.166667 1 0 1
de_nuke_nuke_beam_01
0 302 -429 122 0 0 1 -39.302734 -154.166667 1 0 1
0 366 -429 122 0 0 1 -39.302734 -153.333333 1 0 1
0 366 -421 122 0 0 1 -39.198568 -153.333333 1 0 1
de_nuke_nuke_beam_01
0 302 -429 122 0 0 1 -39.302734 -154.166667 1 0 1
0 366 -421 122 0 0 1 -39.198568 -153.333333 1 0 1
0 302 -421 122 0 0 1 -39.198568 -154.166667 1 0 1
de_nuke_nuke_metalfloor_01
0 320 55 36 0 1 0 15.833984 466.263672 1 0 1
0 320 55 34 0 1 0 15.912109 466.263672 1 0 1
0 274 55 34 0 1 0 15.912109 468.060547 1 0 1
de_nuke_nuke_metalfloor_01
0 320 55 36 0 1 0 15.833984 466.263672 1 0 1
0 274 55 34 0 1 0 15.912109 468.060547 1 0 1
0 274 55 36 0 1 0 15.833984 468.060547 1 0 1
de_nuke_nuke_metalfloor_01
0 320 -85 34 0 -1 0 15.912109 -464.283203 1 0 1
0 320 -85 36 0 -1 0 15.833984 -464.283203 1 0 1
0 274 -85 36 0 -1 0 15.833984 -466.080078 1 0 1
de_nuke_nuke_metalfloor_01
0 320 -85 34 0 -1 0 15.912109 -464.283203 1 0 1
0 274 -85 36 0 -1 0 15.833984 -466.080078 1 0 1
0 274 -85 34 0 -1 0 15.912109 -466.080078 1 0 1
de_nuke_nuke_metalfloor_01
0 274 -85 34 -1 0 0 15.912109 -103.244141 1 0 1
0 274 -85 36 -1 0 0 15.833984 -103.244141 1 0 1
0 274 55 36 -1 0 0 15.833984 -97.775391 1 0 1
de_nuke_nuke_metalfloor_01
0 274 -85 34 -1 0 0 15.912109 -103.244141 1 0 1
0 274 55 36 -1 0 0 15.833984 -97.775391 1 0 1
0 274 55 34 -1 0 0 15.912109 -97.775391 1 0 1
de_nuke_nuke_metalfloor_01
0 320 -85 36 1 0 0 15.833984 -103.244141 1 0 1
0 320 -85 34 1 0 0 15.912109 -103.244141 1 0 1
0 320 55 34 1 0 0 15.912109 -97.775391 1 0 1
de_nuke_nuke_metalfloor_01
0 320 -85 36 1 0 0 15.833984 -103.244141 1 0 1
0 320 55 34 1 0 0 15.912109 -97.775391 1 0 1
0 320 55 36 1 0 0 15.833984 -97.775391 1 0 1
metal_metalgrate013a
0 320 -85 34 0 0 -1 69.322917 -308.89974 1 0 1
0 274 -85 34 0 0 -1 69.322917 -310.097656 1 0 1
0 274 55 34 0 0 -1 65.677083 -310.097656 1 0 1
metal_metalgrate013a
0 320 -85 34 0 0 -1 69.322917 -308.89974 1 0 1
0 274 55 34 0 0 -1 65.677083 -310.097656 1 0 1
0 320 55 34 0 0 -1 65.677083 -308.89974 1 0 1
metal_metalgrate013a
0 274 -85 36 0 0 1 69.322917 -310.097656 1 0 1
0 320 -85 36 0 0 1 69.322917 -308.89974 1 0 1
0 320 55 36 0 0 1 65.677083 -308.89974 1 0 1
metal_metalgrate013a
0 274 -85 36 0 0 1 69.322917 -310.097656 1 0 1
0 320 55 36 0 0 1 65.677083 -308.89974 1 0 1
0 274 55 36 0 0 1 65.677083 -310.097656 1 0 1
de_nuke_nuke_beam_01
0 366 -397 154 0 0 1 -38.802083 -153.333333 1 0 1
0 366 -389 154 0 0 1 -38.697917 -153.333333 1 0 1
0 302 -389 154 0 0 1 -38.697917 -154.166667 1 0 1
de_nuke_nuke_beam_01
0 366 -397 154 0 0 1 -38.802083 -153.333333 1 0 1
0 302 -389 154 0 0 1 -38.697917 -154.166667 1 0 1
0 302 -397 154 0 0 1 -38.802083 -154.166667 1 0 1
de_nuke_nuke_beam_01
0 366 -397 146 0 -1 0 -3.801432 -153.333333 1 0 1
0 366 -397 154 0 -1 0 -3.697266 -153.333333 1 0 1
0 302 -397 154 0 -1 0 -3.697266 -154.166667 1 0 1
de_nuke_nuke_beam_01
0 366 -397 146 0 -1 0 -3.801432 -153.333333 1 0 1
0 302 -397 154 0 -1 0 -3.697266 -154.166667 1 0 1
0 302 -397 146 0 -1 0 -3.801432 -154.166667 1 0 1
de_nuke_nuke_beam_01
0 302 -437 114 0 0 1 -39.301432 -154.166667 1 0 1
0 366 -437 114 0 0 1 -39.301432 -153.333333 1 0 1
0 366 -429 114 0 0 1 -39.197266 -153.333333 1 0 1
de_nuke_nuke_beam_01
0 302 -437 114 0 0 1 -39.301432 -154.166667 1 0 1
0 366 -429 114 0 0 1 -39.197266 -153.333333 1 0 1
0 302 -429 114 0 0 1 -39.197266 -154.166667 1 0 1
de_nuke_nuke_beam_01
0 366 -437 114 0 -1 0 -4.198568 -153.333333 1 0 1
0 302 -437 114 0 -1 0 -4.198568 -154.166667 1 0 1
0 302 -437 106 0 -1 0 -4.302734 -154.166667 1 0 1
de_nuke_nuke_beam_01
0 366 -437 114 0 -1 0 -4.198568 -153.333333 1 0 1
0 302 -437 106 0 -1 0 -4.302734 -154.166667 1 0 1
0 366 -437 106 0 -1 0 -4.302734 -153.333333 1 0 1
de_nuke_nuke_beam_01
0 302 -413 138 0 -1 0 -4.198568 -154.166667 1 0 1
0 302 -413 130 0 -1 0 -4.302734 -154.166667 1 0 1
0 366 -413 130 0 -1 0 -4.302734 -153.333333 1 0 1
de_nuke_nuke_beam_01
0 302 -413 138 0 -1 0 -4.198568 -154.166667 1 0 1
0 366 -413 130 0 -1 0 -4.302734 -153.333333 1 0 1
0 366 -413 138 0 -1 0 -4.198568 -153.333333 1 0 1
de_nuke_nuke_beam_01
0 302 -413 138 0 0 1 -39.301432 -154.166667 1 0 1
0 366 -413 138 0 0 1 -39.301432 -153.333333 1 0 1
0 366 -405 138 0 0 1 -39.197266 -153.333333 1 0 1
de_nuke_nuke_beam_01
0 302 -413 138 0 0 1 -39.301432 -154.166667 1 0 1
0 366 -405 138 0 0 1 -39.197266 -153.333333 1 0 1
0 302 -405 138 0 0 1 -39.197266 -154.166667 1 0 1
de_nuke_nuke_beam_01
0 366 -445 98 0 -1 0 -4.801432 -153.333333 1 0 1
0 366 -445 106 0 -1 0 -4.697266 -153.333333 1 0 1
0 302 -445 106 0 -1 0 -4.697266 -154.166667 1 0 1
de_nuke_nuke_beam_01
0 366 -445 98 0 -1 0 -4.801432 -153.333333 1 0 1
0 302 -445 106 0 -1 0 -4.697266 -154.166667 1 0 1
0 302 -445 98 0 -1 0 -4.801432 -154.166667 1 0 1
de_nuke_nuke_beam_01
0 302 -445 106 0 0 1 -39.251302 -154.000651 1 0 1
0 366 -445 106 0 0 1 -39.251302 -153.167318 1 0 1
0 366 -437 106 0 0 1 -39.147135 -153.167318 1 0 1
de_nuke_nuke_beam_01
0 302 -445 106 0 0 1 -39.251302 -154.000651 1 0 1
0 366 -437 106 0 0 1 -39.147135 -153.167318 1 0 1
0 302 -437 106 0 0 1 -39.147135 -154.000651 1 0 1
de_nuke_nuke_beam_01
0 242 -333 250 0 1 0 2.697266 -154.832682 1 0 1
0 242 -333 242.001 0 1 0 2.801419 -154.832682 1 0 1
0 178 -333 242.001 0 1 0 2.801419 -155.666016 1 0 1
de_nuke_nuke_beam_01
0 242 -333 250 0 1 0 2.697266 -154.832682 1 0 1
0 178 -333 242.001 0 1 0 2.801419 -155.666016 1 0 1
0 178 -333 250 0 1 0 2.697266 -155.666016 1 0 1
de_nuke_nuke_beam_01
0 242 -341 250 0 0 1 -37.906901 -154.832682 1 0 1
0 242 -333 250 0 0 1 -37.802734 -154.832682 1 0 1
0 178 -333 250 0 0 1 -37.802734 -155.666016 1 0 1
de_nuke_nuke_beam_01
0 242 -341 250 0 0 1 -37.906901 -154.832682 1 0 1
0 178 -333 250 0 0 1 -37.802734 -155.666016 1 0 1
0 178 -341 250 0 0 1 -37.906901 -155.666016 1 0 1
de_nuke_nuke_beam_01
0 242 -317 234 0 1 0 2.698568 -154.832682 1 0 1
0 242 -317 226.001 0 1 0 2.802721 -154.832682 1 0 1
0 178 -317 226.001 0 1 0 2.802721 -155.666016 1 0 1
de_nuke_nuke_beam_01
0 242 -317 234 0 1 0 2.698568 -154.832682 1 0 1
0 178 -317 226.001 0 1 0 2.802721 -155.666016 1 0 1
0 178 -317 234 0 1 0 2.698568 -155.666016 1 0 1
de_nuke_nuke_beam_01
0 242 -325 234 0 0 1 -37.905599 -154.832682 1 0 1
0 242 -317 234 0 0 1 -37.801432 -154.832682 1 0 1
0 178 -317 234 0 0 1 -37.801432 -155.666016 1 0 1
de_nuke_nuke_beam_01
0 242 -325 234 0 0 1 -37.905599 -154.832682 1 0 1
0 178 -317 234 0 0 1 -37.801432 -155.666016 1 0 1
0 178 -325 234 0 0 1 -37.905599 -155.666016 1 0 1
de_nuke_nuke_beam_01
0 366 -365 178 0 -1 0 -3.802734 -153.333333 1 0 1
0 366 -365 186 0 -1 0 -3.698568 -153.333333 1 0 1
0 302 -365 186 0 -1 0 -3.698568 -154.166667 1 0 1
de_nuke_nuke_beam_01
0 366 -365 178 0 -1 0 -3.802734 -153.333333 1 0 1
0 302 -365 186 0 -1 0 -3.698568 -154.166667 1 0 1
0 302 -365 178 0 -1 0 -3.802734 -154.166667 1 0 1
de_nuke_nuke_beam_01
0 302 -365 186 0 0 1 -38.301432 -154.166667 1 0 1
0 366 -365 186 0 0 1 -38.301432 -153.333333 1 0 1
0 366 -357 186 0 0 1 -38.197266 -153.333333 1 0 1
de_nuke_nuke_beam_01
0 302 -365 186 0 0 1 -38.301432 -154.166667 1 0 1
0 366 -357 186 0 0 1 -38.197266 -153.333333 1 0 1
0 302 -357 186 0 0 1 -38.197266 -154.166667 1 0 1
de_nuke_nuke_beam_01
0 178 -365 274 0 0 1 -38.406901 -155.666016 1 0 1
0 242 -365 274 0 0 1 -38.406901 -154.832682 1 0 1
0 242 -357 274 0 0 1 -38.302734 -154.832682 1 0 1
de_nuke_nuke_beam_01
0 178 -365 274 0 0 1 -38.406901 -155.666016 1 0 1
0 242 -357 274 0 0 1 -38.302734 -154.832682 1 0 1
0 178 -357 274 0 0 1 -38.302734 -155.666016 1 0 1
de_nuke_nuke_beam_01
0 242 -357 266.001 0 1 0 2.301419 -154.832682 1 0 1
0 178 -357 266.001 0 1 0 2.301419 -155.666016 1 0 1
0 178 -357 274 0 1 0 2.197266 -155.666016 1 0 1
de_nuke_nuke_beam_01
0 242 -357 266.001 0 1 0 2.301419 -154.832682 1 0 1
0 178 -357 274 0 1 0 2.197266 -155.666016 1 0 1
0 242 -357 274 0 1 0 2.197266 -154.832682 1 0 1
de_nuke_nuke_beam_01
0 242 -413 330 0 1 0 1.698568 -154.832682 1 0 1
0 242 -413 322.001 0 1 0 1.802721 -154.832682 1 0 1
0 178 -413 322.001 0 1 0 1.802721 -155.666016 1 0 1
de_nuke_nuke_beam_01
0 242 -413 330 0 1 0 1.698568 -154.832682 1 0 1
0 178 -413 322.001 0 1 0 1.802721 -155.666016 1 0 1
0 178 -413 330 0 1 0 1.698568 -155.666016 1 0 1
de_nuke_nuke_beam_01
0 242 -421 330 0 0 1 -39.405599 -154.832682 1 0 1
0 242 -413 330 0 0 1 -39.301432 -154.832682 1 0 1
0 178 -413 330 0 0 1 -39.301432 -155.666016 1 0 1
de_nuke_nuke_beam_01
0 242 -421 330 0 0 1 -39.405599 -154.832682 1 0 1
0 178 -413 330 0 0 1 -39.301432 -155.666016 1 0 1
0 178 -421 330 0 0 1 -39.405599 -155.666016 1 0 1
de_nuke_nuke_beam_01
0 60 -146 52 1 0 0 -2.689453 22.548828 1 0 1
0 60 -98 52 1 0 0 -2.689453 22.173828 1 0 1
0 60 -94 56 1 0 0 -2.658203 22.142578 1 0 1
de_nuke_nuke_beam_01
0 60 -146 52 1 0 0 -2.689453 22.548828 1 0 1
0 60 -94 56 1 0 0 -2.658203 22.142578 1 0 1
0 60 -150 56 1 0 0 -2.658203 22.580078 1 0 1
de_nuke_nuke_beam_01
0 52 -98 52 0 0 -1 -94.8125 22.173828 1 0 1
0 60 -98 52 0 0 -1 -94.75 22.173828 1 0 1
0 60 -146 52 0 0 -1 -94.75 22.548828 1 0 1
de_nuke_nuke_beam_01
0 52 -98 52 0 0 -1 -94.8125 22.173828 1 0 1
0 60 -146 52 0 0 -1 -94.75 22.548828 1 0 1
0 52 -146 52 0 0 -1 -94.8125 22.548828 1 0 1
de_nuke_nuke_beam_01
0 52 -150 56 -1 0 0 2.658203 22.580078 1 0 1
0 52 -94 56 -1 0 0 2.658203 22.142578 1 0 1
0 52 -98 52 -1 0 0 2.689453 22.173828 1 0 1
de_nuke_nuke_beam_01
0 52 -150 56 -1 0 0 2.658203 22.580078 1 0 1
0 52 -98 52 -1 0 0 2.689453 22.173828 1 0 1
0 52 -146 52 -1 0 0 2.689453 22.548828 1 0 1
de_nuke_nuke_beam_01
0 143 -150 56 -1 0 0 -21.34375 -1.798828 1 0 1
0 143 -146 52 -1 0 0 -21.3125 -1.830078 1 0 1
0 143 -146 -56 -1 0 0 -21.3125 -2.673828 1 0 1
de_nuke_nuke_beam_01
0 143 -150 56 -1 0 0 -21.34375 -1.798828 1 0 1
0 143 -146 -56 -1 0 0 -21.3125 -2.673828 1 0 1
0 143 -150 -56 -1 0 0 -21.34375 -2.673828 1 0 1
de_nuke_nuke_beam_01
0 153 -150 -56 1 0 0 21.34375 -2.673828 1 0 1
0 153 -146 -56 1 0 0 21.3125 -2.673828 1 0 1
0 153 -146 52 1 0 0 21.3125 -1.830078 1 0 1
de_nuke_nuke_beam_01
0 153 -150 -56 1 0 0 21.34375 -2.673828 1 0 1
0 153 -146 52 1 0 0 21.3125 -1.830078 1 0 1
0 153 -150 56 1 0 0 21.34375 -1.798828 1 0 1
de_nuke_nuke_beam_01
0 153 -146 52 0 1 0 -94.234375 -1.830078 1 0 1
0 153 -146 -56 0 1 0 -94.234375 -2.673828 1 0 1
0 143 -146 -56 0 1 0 -94.3125 -2.673828 1 0 1
de_nuke_nuke_beam_01
0 153 -146 52 0 1 0 -94.234375 -1.830078 1 0 1
0 143 -146 -56 0 1 0 -94.3125 -2.673828 1 0 1
0 143 -146 52 0 1 0 -94.3125 -1.830078 1 0 1
de_nuke_nuke_beam_01
0 242 -325 242 0 1 0 2.697917 -154.832682 1 0 1
0 242 -325 234.001 0 1 0 2.80207 -154.832682 1 0 1
0 178 -325 234.001 0 1 0 2.80207 -155.666016 1 0 1
de_nuke_nuke_beam_01
0 242 -325 242 0 1 0 2.697917 -154.832682 1 0 1
0 178 -325 234.001 0 1 0 2.80207 -155.666016 1 0 1
0 178 -325 242 0 1 0 2.697917 -155.666016 1 0 1
de_nuke_nuke_beam_01
0 242 -333 242 0 0 1 -37.90625 -154.832682 1 0 1
0 242 -325 242 0 0 1 -37.802083 -154.832682 1 0 1
0 178 -325 242 0 0 1 -37.802083 -155.666016 1 0 1
de_nuke_nuke_beam_01
0 242 -333 242 0 0 1 -37.90625 -154.832682 1 0 1
0 178 -325 242 0 0 1 -37.802083 -155.666016 1 0 1
0 178 -333 242 0 0 1 -37.90625 -155.666016 1 0 1
de_nuke_nuke_beam_01
0 242 -405 322 0 1 0 1.697266 -154.832682 1 0 1
0 242 -405 314.001 0 1 0 1.801419 -154.832682 1 0 1
0 178 -405 314.001 0 1 0 1.801419 -155.666016 1 0 1
de_nuke_nuke_beam_01
0 242 -405 322 0 1 0 1.697266 -154.832682 1 0 1
0 178 -405 314.001 0 1 0 1.801419 -155.666016 1 0 1
0 178 -405 322 0 1 0 1.697266 -155.666016 1 0 1
de_nuke_nuke_beam_01
0 242 -413 322 0 0 1 -38.906901 -154.832682 1 0 1
0 242 -405 322 0 0 1 -38.802734 -154.832682 1 0 1
0 178 -405 322 0 0 1 -38.802734 -155.666016 1 0 1
de_nuke_nuke_beam_01
0 242 -413 322 0 0 1 -38.906901 -154.832682 1 0 1
0 178 -405 322 0 0 1 -38.802734 -155.666016 1 0 1
0 178 -413 322 0 0 1 -38.906901 -155.666016 1 0 1
de_nuke_nuke_beam_01
0 302 -333 218 0 0 1 -37.802734 -154.166667 1 0 1
0 366 -333 218 0 0 1 -37.802734 -153.333333 1 0 1
0 366 -325 218 0 0 1 -37.698568 -153.333333 1 0 1
de_nuke_nuke_beam_01
0 302 -333 218 0 0 1 -37.802734 -154.166667 1 0 1
0 366 -325 218 0 0 1 -37.698568 -153.333333 1 0 1
0 302 -325 218 0 0 1 -37.698568 -154.166667 1 0 1
de_nuke_nuke_beam_01
0 366 -333 218 0 -1 0 -3.197917 -153.333333 1 0 1
0 302 -333 218 0 -1 0 -3.197917 -154.166667 1 0 1
0 302 -333 210 0 -1 0 -3.302083 -154.166667 1 0 1
de_nuke_nuke_beam_01
0 366 -333 218 0 -1 0 -3.197917 -153.333333 1 0 1
0 302 -333 210 0 -1 0 -3.302083 -154.166667 1 0 1
0 366 -333 210 0 -1 0 -3.302083 -153.333333 1 0 1
bridge_se1_metal_flat_steel_01
0 467 -222 314 1 0 0 22.15625 0.65625 1 0 1
0 467 -212 314 1 0 0 22.078125 0.65625 1 0 1
0 467 -212 421.9968 1 0 0 22.078125 1.499975 1 0 1
bridge_se1_metal_flat_steel_01
0 467 -222 314 1 0 0 22.15625 0.65625 1 0 1
0 467 -212 421.9968 1 0 0 22.078125 1.499975 1 0 1
0 467 -222 421.9968 1 0 0 22.15625 1.499975 1 0 1
bridge_se1_metal_flat_steel_01
0 467 -212 421.9968 0 1 0 91.28125 1.499975 1 0 1
0 467 -212 314 0 1 0 91.28125 0.65625 1 0 1
0 463 -212 314 0 1 0 91.3125 0.65625 1 0 1
bridge_se1_metal_flat_steel_01
0 467 -212 421.9968 0 1 0 91.28125 1.499975 1 0 1
0 463 -212 314 0 1 0 91.3125 0.65625 1 0 1
0 463 -212 425.9968 0 1 0 91.3125 1.531225 1 0 1
bridge_se1_metal_flat_steel_01
0 467 -222 314 0 -1 0 -91.046875 0.65625 1 0 1
0 467 -222 421.9968 0 -1 0 -91.046875 1.499975 1 0 1
0 463 -222 425.9968 0 -1 0 -91.078125 1.531225 1 0 1
bridge_se1_metal_flat_steel_01
0 467 -222 314 0 -1 0 -91.046875 0.65625 1 0 1
0 463 -222 425.9968 0 -1 0 -91.078125 1.531225 1 0 1
0 463 -222 314 0 -1 0 -91.078125 0.65625 1 0 1
de_nuke_nuke_beam_01
0 4 -8 -56 0 -1 0 95.625 -2.65625 1 0 1
0 4 -8 56 0 -1 0 95.625 -1.78125 1 0 1
0 -4 -8 48 0 -1 0 95.6875 -1.84375 1 0 1
de_nuke_nuke_beam_01
0 4 -8 -56 0 -1 0 95.625 -2.65625 1 0 1
0 -4 -8 48 0 -1 0 95.6875 -1.84375 1 0 1
0 -4 -8 -56 0 -1 0 95.6875 -2.65625 1 0 1
de_nuke_nuke_beam_01
0 -4 -8 -56 -1 0 0 -20.3125 -2.65625 1 0 1
0 -4 -8 48 -1 0 0 -20.3125 -1.84375 1 0 1
0 -4 8 48 -1 0 0 -20.1875 -1.84375 1 0 1
de_nuke_nuke_beam_01
0 -4 -8 -56 -1 0 0 -20.3125 -2.65625 1 0 1
0 -4 8 48 -1 0 0 -20.1875 -1.84375 1 0 1
0 -4 8 -56 -1 0 0 -20.1875 -2.65625 1 0 1
de_nuke_nuke_beam_01
0 4 8 56 0 1 0 -95.625 -1.78125 1 0 1
0 4 8 -56 0 1 0 -95.625 -2.65625 1 0 1
0 -4 8 -56 0 1 0 -95.6875 -2.65625 1 0 1
de_nuke_nuke_beam_01
0 4 8 56 0 1 0 -95.625 -1.78125 1 0 1
0 -4 8 -56 0 1 0 -95.6875 -2.65625 1 0 1
0 -4 8 48 0 1 0 -95.6875 -1.84375 1 0 1
de_nuke_nuke_beam_01
0 178 -437 346 0 0 1 -39.406901 -155.666016 1 0 1
0 242 -437 346 0 0 1 -39.406901 -154.832682 1 0 1
0 242 -429 346 0 0 1 -39.302734 -154.832682 1 0 1
de_nuke_nuke_beam_01
0 178 -437 346 0 0 1 -39.406901 -155.666016 1 0 1
0 242 -429 346 0 0 1 -39.302734 -154.832682 1 0 1
0 178 -429 346 0 0 1 -39.302734 -155.666016 1 0 1
de_nuke_nuke_beam_01
0 242 -429 346 0 1 0 1.197266 -154.832682 1 0 1
0 242 -429 338.001 0 1 0 1.301419 -154.832682 1 0 1
0 178 -429 338.001 0 1 0 1.301419 -155.666016 1 0 1
de_nuke_nuke_beam_01
0 242 -429 346 0 1 0 1.197266 -154.832682 1 0 1
0 178 -429 338.001 0 1 0 1.301419 -155.666016 1 0 1
0 178 -429 346 0 1 0 1.197266 -155.666016 1 0 1
de_nuke_nuke_beam_01
0 242 -349 258 0 0 1 -38.405599 -154.832682 1 0 1
0 242 -341 258 0 0 1 -38.301432 -154.832682 1 0 1
0 178 -341 258 0 0 1 -38.301432 -155.666016 1 0 1
de_nuke_nuke_beam_01
0 242 -349 258 0 0 1 -38.405599 -154.832682 1 0 1
0 178 -341 258 0 0 1 -38.301432 -155.666016 1 0 1
0 178 -349 258 0 0 1 -38.405599 -155.666016 1 0 1
de_nuke_nuke_beam_01
0 242 -341 258 0 1 0 2.698568 -154.832682 1 0 1
0 242 -341 250.001 0 1 0 2.802721 -154.832682 1 0 1
0 178 -341 250.001 0 1 0 2.802721 -155.666016 1 0 1
de_nuke_nuke_beam_01
0 242 -341 258 0 1 0 2.698568 -154.832682 1 0 1
0 178 -341 250.001 0 1 0 2.802721 -155.666016 1 0 1
0 178 -341 258 0 1 0 2.698568 -155.666016 1 0 1
de_nuke_nuke_beam_01
0 366 -373 170 0 -1 0 -3.801432 -153.333333 1 0 1
0 366 -373 178 0 -1 0 -3.697266 -153.333333 1 0 1
0 302 -373 178 0 -1 0 -3.697266 -154.166667 1 0 1
de_nuke_nuke_beam_01
0 366 -373 170 0 -1 0 -3.801432 -153.333333 1 0 1
0 302 -373 178 0 -1 0 -3.697266 -154.166667 1 0 1
0 302 -373 170 0 -1 0 -3.801432 -154.166667 1 0 1
de_nuke_nuke_beam_01
0 302 -373 178 0 0 1 -38.302083 -154.166667 1 0 1
0 366 -373 178 0 0 1 -38.302083 -153.333333 1 0 1
0 366 -365 178 0 0 1 -38.197917 -153.333333 1 0 1
de_nuke_nuke_beam_01
0 302 -373 178 0 0 1 -38.302083 -154.166667 1 0 1
0 366 -365 178 0 0 1 -38.197917 -153.333333 1 0 1
0 302 -365 178 0 0 1 -38.197917 -154.166667 1 0 1
de_nuke_nuke_beam_01
0 60 -146 52 0 1 0 -94.75 -1.830078 1 0 1
0 60 -146 -56 0 1 0 -94.75 -2.673828 1 0 1
0 52 -146 -56 0 1 0 -94.8125 -2.673828 1 0 1
de_nuke_nuke_beam_01
0 60 -146 52 0 1 0 -94.75 -1.830078 1 0 1
0 52 -146 -56 0 1 0 -94.8125 -2.673828 1 0 1
0 52 -146 52 0 1 0 -94.8125 -1.830078 1 0 1
de_nuke_nuke_beam_01
0 52 -150 -56 -1 0 0 -21.34375 -2.673828 1 0 1
0 52 -150 56 -1 0 0 -21.34375 -1.798828 1 0 1
0 52 -146 52 -1 0 0 -21.3125 -1.830078 1 0 1
de_nuke_nuke_beam_01
0 52 -150 -56 -1 0 0 -21.34375 -2.673828 1 0 1
0 52 -146 52 -1 0 0 -21.3125 -1.830078 1 0 1
0 52 -146 -56 -1 0 0 -21.3125 -2.673828 1 0 1
de_nuke_nuke_beam_01
0 60 -150 56 1 0 0 21.34375 -1.798828 1 0 1
0 60 -150 -56 1 0 0 21.34375 -2.673828 1 0 1
0 60 -146 -56 1 0 0 21.3125 -2.673828 1 0 1
de_nuke_nuke_beam_01
0 60 -150 56 1 0 0 21.34375 -1.798828 1 0 1
0 60 -146 -56 1 0 0 21.3125 -2.673828 1 0 1
0 60 -146 52 1 0 0 21.3125 -1.830078 1 0 1
de_nuke_nuke_beam_01
0 153 -98 -56 0 -1 0 -94.234375 -2.673828 1 0 1
0 153 -98 52.012 0 -1 0 -94.234375 -1.829984 1 0 1
0 143 -98 52.012 0 -1 0 -94.3125 -1.829984 1 0 1
de_nuke_nuke_beam_01
0 153 -98 -56 0 -1 0 -94.234375 -2.673828 1 0 1
0 143 -98 52.012 0 -1 0 -94.3125 -1.829984 1 0 1
0 143 -98 -56 0 -1 0 -94.3125 -2.673828 1 0 1
de_nuke_nuke_beam_01
0 143 -98 -56 -1 0 0 21.1875 -2.673828 1 0 1
0 143 -98 52.012 -1 0 0 21.1875 -1.829984 1 0 1
0 143 -94 56 -1 0 0 21.15625 -1.798828 1 0 1
de_nuke_nuke_beam_01
0 143 -98 -56 -1 0 0 21.1875 -2.673828 1 0 1
0 143 -94 56 -1 0 0 21.15625 -1.798828 1 0 1
0 143 -94 -56 -1 0 0 21.15625 -2.673828 1 0 1
de_nuke_nuke_beam_01
0 153 -98 52.012 1 0 0 -21.1875 -1.829984 1 0 1
0 153 -98 -56 1 0 0 -21.1875 -2.673828 1 0 1
0 153 -94 -56 1 0 0 -21.15625 -2.673828 1 0 1
de_nuke_nuke_beam_01
0 153 -98 52.012 1 0 0 -21.1875 -1.829984 1 0 1
0 153 -94 -56 1 0 0 -21.15625 -2.673828 1 0 1
0 153 -94 56 1 0 0 -21.15625 -1.798828 1 0 1
de_nuke_nuke_beam_01
0 143 -150 56 -1 0 0 2.658203 22.580078 1 0 1
0 143 -94 56 -1 0 0 2.658203 22.142578 1 0 1
0 143 -98 52 -1 0 0 2.689453 22.173828 1 0 1
de_nuke_nuke_beam_01
0 143 -150 56 -1 0 0 2.658203 22.580078 1 0 1
0 143 -98 52 -1 0 0 2.689453 22.173828 1 0 1
0 143 -146 52 -1 0 0 2.689453 22.548828 1 0 1
de_nuke_nuke_beam_01
0 153 -146 52 1 0 0 -2.689453 22.548828 1 0 1
0 153 -98 52 1 0 0 -2.689453 22.173828 1 0 1
0 153 -94 56 1 0 0 -2.658203 22.142578 1 0 1
de_nuke_nuke_beam_01
0 153 -146 52 1 0 0 -2.689453 22.548828 1 0 1
0 153 -94 56 1 0 0 -2.658203 22.142578 1 0 1
0 153 -150 56 1 0 0 -2.658203 22.580078 1 0 1
de_nuke_nuke_beam_01
0 143 -146 52 0 0 -1 -94.3125 22.548828 1 0 1
0 143 -98 52 0 0 -1 -94.3125 22.173828 1 0 1
0 153 -98 52 0 0 -1 -94.234375 22.173828 1 0 1
de_nuke_nuke_beam_01
0 143 -146 52 0 0 -1 -94.3125 22.548828 1 0 1
0 153 -98 52 0 0 -1 -94.234375 22.173828 1 0 1
0 153 -146 52 0 0 -1 -94.234375 22.548828 1 0 1
de_nuke_nuke_beam_01
0 302 -341 210 0 0 1 -38.301432 -154.166667 1 0 1
0 366 -341 210 0 0 1 -38.301432 -153.333333 1 0 1
0 366 -333 210 0 0 1 -38.197266 -153.333333 1 0 1
de_nuke_nuke_beam_01
0 302 -341 210 0 0 1 -38.301432 -154.166667 1 0 1
0 366 -333 210 0 0 1 -38.197266 -153.333333 1 0 1
0 302 -333 210 0 0 1 -38.197266 -154.166667 1 0 1
de_nuke_nuke_beam_01
0 366 -341 210 0 -1 0 -3.198568 -153.333333 1 0 1
0 302 -341 210 0 -1 0 -3.198568 -154.166667 1 0 1
0 302 -341 202 0 -1 0 -3.302734 -154.166667 1 0 1
de_nuke_nuke_beam_01
0 366 -341 210 0 -1 0 -3.198568 -153.333333 1 0 1
0 302 -341 202 0 -1 0 -3.302734 -154.166667 1 0 1
0 366 -341 202 0 -1 0 -3.302734 -153.333333 1 0 1
de_nuke_nuke_beam_01
0 242 -349 266 0 1 0 2.197917 -154.832682 1 0 1
0 242 -349 258.001 0 1 0 2.30207 -154.832682 1 0 1
0 178 -349 258.001 0 1 0 2.30207 -155.666016 1 0 1
de_nuke_nuke_beam_01
0 242 -349 266 0 1 0 2.197917 -154.832682 1 0 1
0 178 -349 258.001 0 1 0 2.30207 -155.666016 1 0 1
0 178 -349 266 0 1 0 2.197917 -155.666016 1 0 1
de_nuke_nuke_beam_01
0 242 -357 266 0 0 1 -38.40625 -154.832682 1 0 1
0 242 -349 266 0 0 1 -38.302083 -154.832682 1 0 1
0 178 -349 266 0 0 1 -38.302083 -155.666016 1 0 1
de_nuke_nuke_beam_01
0 242 -357 266 0 0 1 -38.40625 -154.832682 1 0 1
0 178 -349 266 0 0 1 -38.302083 -155.666016 1 0 1
0 178 -357 266 0 0 1 -38.40625 -155.666016 1 0 1
de_nuke_nuke_metalfloor_01
0 320 55 -36 0 1 0 18.646484 466.263672 1 0 1
0 320 55 -38 0 1 0 18.724609 466.263672 1 0 1
0 274 55 -38 0 1 0 18.724609 468.060547 1 0 1
de_nuke_nuke_metalfloor_01
0 320 55 -36 0 1 0 18.646484 466.263672 1 0 1
0 274 55 -38 0 1 0 18.724609 468.060547 1 0 1
0 274 55 -36 0 1 0 18.646484 468.060547 1 0 1
de_nuke_nuke_metalfloor_01
0 320 -85 -38 0 -1 0 18.724609 -464.283203 1 0 1
0 320 -85 -36 0 -1 0 18.646484 -464.283203 1 0 1
0 274 -85 -36 0 -1 0 18.646484 -466.080078 1 0 1
de_nuke_nuke_metalfloor_01
0 320 -85 -38 0 -1 0 18.724609 -464.283203 1 0 1
0 274 -85 -36 0 -1 0 18.646484 -466.080078 1 0 1
0 274 -85 -38 0 -1 0 18.724609 -466.080078 1 0 1
de_nuke_nuke_metalfloor_01
0 274 -85 -38 -1 0 0 18.724609 -103.244141 1 0 1
0 274 -85 -36 -1 0 0 18.646484 -103.244141 1 0 1
0 274 55 -36 -1 0 0 18.646484 -97.775391 1 0 1
de_nuke_nuke_metalfloor_01
0 274 -85 -38 -1 0 0 18.724609 -103.244141 1 0 1
0 274 55 -36 -1 0 0 18.646484 -97.775391 1 0 1
0 274 55 -38 -1 0 0 18.724609 -97.775391 1 0 1
de_nuke_nuke_metalfloor_01
0 320 -85 -36 1 0 0 18.646484 -103.244141 1 0 1
0 320 -85 -38 1 0 0 18.724609 -103.244141 1 0 1
0 320 55 -38 1 0 0 18.724609 -97.775391 1 0 1
de_nuke_nuke_metalfloor_01
0 320 -85 -36 1 0 0 18.646484 -103.244141 1 0 1
0 320 55 -38 1 0 0 18.724609 -97.775391 1 0 1
0 320 55 -36 1 0 0 18.646484 -97.775391 1 0 1
metal_metalgrate013a
0 320 -85 -38 0 0 -1 69.322917 -308.89974 1 0 1
0 274 -85 -38 0 0 -1 69.322917 -310.097656 1 0 1
0 274 55 -38 0 0 -1 65.677083 -310.097656 1 0 1
metal_metalgrate013a
0 320 -85 -38 0 0 -1 69.322917 -308.89974 1 0 1
0 274 55 -38 0 0 -1 65.677083 -310.097656 1 0 1
0 320 55 -38 0 0 -1 65.677083 -308.89974 1 0 1
metal_metalgrate013a
0 274 -85 -36 0 0 1 69.322917 -310.097656 1 0 1
0 320 -85 -36 0 0 1 69.322917 -308.89974 1 0 1
0 320 55 -36 0 0 1 65.677083 -308.89974 1 0 1
metal_metalgrate013a
0 274 -85 -36 0 0 1 69.322917 -310.097656 1 0 1
0 320 55 -36 0 0 1 65.677083 -308.89974 1 0 1
0 274 55 -36 0 0 1 65.677083 -310.097656 1 0 1
de_nuke_nuke_beam_01
0 242 -397 314 0 1 0 1.697917 -154.832682 1 0 1
0 242 -397 306.001 0 1 0 1.80207 -154.832682 1 0 1
0 178 -397 306.001 0 1 0 1.80207 -155.666016 1 0 1
de_nuke_nuke_beam_01
0 242 -397 314 0 1 0 1.697917 -154.832682 1 0 1
0 178 -397 306.001 0 1 0 1.80207 -155.666016 1 0 1
0 178 -397 314 0 1 0 1.697917 -155.666016 1 0 1
de_nuke_nuke_beam_01
0 242 -405 314 0 0 1 -38.90625 -154.832682 1 0 1
0 242 -397 314 0 0 1 -38.802083 -154.832682 1 0 1
0 178 -397 314 0 0 1 -38.802083 -155.666016 1 0 1
de_nuke_nuke_beam_01
0 242 -405 314 0 0 1 -38.90625 -154.832682 1 0 1
0 178 -397 314 0 0 1 -38.802083 -155.666016 1 0 1
0 178 -405 314 0 0 1 -38.90625 -155.666016 1 0 1
de_nuke_nuke_beam_01
0 178 -429 338 0 0 1 -39.40625 -155.666016 1 0 1
0 242 -429 338 0 0 1 -39.40625 -154.832682 1 0 1
0 242 -421 338 0 0 1 -39.302083 -154.832682 1 0 1
de_nuke_nuke_beam_01
0 178 -429 338 0 0 1 -39.40625 -155.666016 1 0 1
0 242 -421 338 0 0 1 -39.302083 -154.832682 1 0 1
0 178 -421 338 0 0 1 -39.302083 -155.666016 1 0 1
de_nuke_nuke_beam_01
0 242 -421 330.001 0 1 0 1.80207 -154.832682 1 0 1
0 178 -421 330.001 0 1 0 1.80207 -155.666016 1 0 1
0 178 -421 338 0 1 0 1.697917 -155.666016 1 0 1
de_nuke_nuke_beam_01
0 242 -421 330.001 0 1 0 1.80207 -154.832682 1 0 1
0 178 -421 338 0 1 0 1.697917 -155.666016 1 0 1
0 242 -421 338 0 1 0 1.697917 -154.832682 1 0 1
de_nuke_nuke_beam_01
0 242 -365 282 0 1 0 2.198568 -154.832682 1 0 1
0 242 -365 274.001 0 1 0 2.302721 -154.832682 1 0 1
0 178 -365 274.001 0 1 0 2.302721 -155.666016 1 0 1
de_nuke_nuke_beam_01
0 242 -365 282 0 1 0 2.198568 -154.832682 1 0 1
0 178 -365 274.001 0 1 0 2.302721 -155.666016 1 0 1
0 178 -365 282 0 1 0 2.198568 -155.666016 1 0 1
de_nuke_nuke_beam_01
0 178 -373 282 0 0 1 -38.405599 -155.666016 1 0 1
0 242 -373 282 0 0 1 -38.405599 -154.832682 1 0 1
0 242 -365 282 0 0 1 -38.301432 -154.832682 1 0 1
de_nuke_nuke_beam_01
0 178 -373 282 0 0 1 -38.405599 -155.666016 1 0 1
0 242 -365 282 0 0 1 -38.301432 -154.832682 1 0 1
0 178 -365 282 0 0 1 -38.301432 -155.666016 1 0 1
end
