version 1
nodes
0 "root" -1
end
skeleton
time 0
0 0 0 0 0 0 0
end
triangles
phys
0 44 21 50 0 0 1 1 0 1 0 1
0 44 21 82 0 0 1 1 0 1 0 1
0 44 23 82 0 0 1 1 0 1 0 1
phys
0 44 21 50 0 0 1 1 0 1 0 1
0 44 23 82 0 0 1 1 0 1 0 1
0 44 23 50 0 0 1 1 0 1 0 1
phys
0 46 21 82 0 0 1 1 0 1 0 1
0 46 21 50 0 0 1 1 0 1 0 1
0 46 23 50 0 0 1 1 0 1 0 1
phys
0 46 21 82 0 0 1 1 0 1 0 1
0 46 23 50 0 0 1 1 0 1 0 1
0 46 23 82 0 0 1 1 0 1 0 1
phys
0 46 21 50 0 0 1 1 0 1 0 1
0 46 21 82 0 0 1 1 0 1 0 1
0 44 21 82 0 0 1 1 0 1 0 1
phys
0 46 21 50 0 0 1 1 0 1 0 1
0 44 21 82 0 0 1 1 0 1 0 1
0 44 21 50 0 0 1 1 0 1 0 1
phys
0 46 23 82 0 0 1 1 0 1 0 1
0 46 23 50 0 0 1 1 0 1 0 1
0 44 23 50 0 0 1 1 0 1 0 1
phys
0 46 23 82 0 0 1 1 0 1 0 1
0 44 23 50 0 0 1 1 0 1 0 1
0 44 23 82 0 0 1 1 0 1 0 1
phys
0 44 21 50 0 0 1 1 0 1 0 1
0 44 23 50 0 0 1 1 0 1 0 1
0 46 23 50 0 0 1 1 0 1 0 1
phys
0 44 21 50 0 0 1 1 0 1 0 1
0 46 23 50 0 0 1 1 0 1 0 1
0 46 21 50 0 0 1 1 0 1 0 1
phys
0 46 21 82 0 0 1 1 0 1 0 1
0 46 23 82 0 0 1 1 0 1 0 1
0 44 23 82 0 0 1 1 0 1 0 1
phys
0 46 21 82 0 0 1 1 0 1 0 1
0 44 23 82 0 0 1 1 0 1 0 1
0 44 21 82 0 0 1 1 0 1 0 1
phys
0 86 21 30 0 0 1 2 0 1 0 1
0 86 23 30 0 0 1 2 0 1 0 1
0 88 23 30 0 0 1 2 0 1 0 1
phys
0 86 21 30 0 0 1 2 0 1 0 1
0 88 23 30 0 0 1 2 0 1 0 1
0 88 21 30 0 0 1 2 0 1 0 1
phys
0 88 21 62 0 0 1 2 0 1 0 1
0 88 23 62 0 0 1 2 0 1 0 1
0 86 23 62 0 0 1 2 0 1 0 1
phys
0 88 21 62 0 0 1 2 0 1 0 1
0 86 23 62 0 0 1 2 0 1 0 1
0 86 21 62 0 0 1 2 0 1 0 1
phys
0 86 21 62 0 0 1 2 0 1 0 1
0 86 23 62 0 0 1 2 0 1 0 1
0 86 23 30 0 0 1 2 0 1 0 1
phys
0 86 21 62 0 0 1 2 0 1 0 1
0 86 23 30 0 0 1 2 0 1 0 1
0 86 21 30 0 0 1 2 0 1 0 1
phys
0 88 21 30 0 0 1 2 0 1 0 1
0 88 23 30 0 0 1 2 0 1 0 1
0 88 23 62 0 0 1 2 0 1 0 1
phys
0 88 21 30 0 0 1 2 0 1 0 1
0 88 23 62 0 0 1 2 0 1 0 1
0 88 21 62 0 0 1 2 0 1 0 1
phys
0 88 21 62 0 0 1 2 0 1 0 1
0 86 21 62 0 0 1 2 0 1 0 1
0 86 21 30 0 0 1 2 0 1 0 1
phys
0 88 21 62 0 0 1 2 0 1 0 1
0 86 21 30 0 0 1 2 0 1 0 1
0 88 21 30 0 0 1 2 0 1 0 1
phys
0 88 23 30 0 0 1 2 0 1 0 1
0 86 23 30 0 0 1 2 0 1 0 1
0 86 23 62 0 0 1 2 0 1 0 1
phys
0 88 23 30 0 0 1 2 0 1 0 1
0 86 23 62 0 0 1 2 0 1 0 1
0 88 23 62 0 0 1 2 0 1 0 1
phys
0 0 21 66 0 0 1 3 0 1 0 1
0 0 21 105 0 0 1 3 0 1 0 1
0 0 23 105 0 0 1 3 0 1 0 1
phys
0 0 21 66 0 0 1 3 0 1 0 1
0 0 23 105 0 0 1 3 0 1 0 1
0 0 23 66 0 0 1 3 0 1 0 1
phys
0 2 21 105 0 0 1 3 0 1 0 1
0 2 21 66 0 0 1 3 0 1 0 1
0 2 23 66 0 0 1 3 0 1 0 1
phys
0 2 21 105 0 0 1 3 0 1 0 1
0 2 23 66 0 0 1 3 0 1 0 1
0 2 23 105 0 0 1 3 0 1 0 1
phys
0 2 21 66 0 0 1 3 0 1 0 1
0 2 21 105 0 0 1 3 0 1 0 1
0 0 21 105 0 0 1 3 0 1 0 1
phys
0 2 21 66 0 0 1 3 0 1 0 1
0 0 21 105 0 0 1 3 0 1 0 1
0 0 21 66 0 0 1 3 0 1 0 1
phys
0 2 23 105 0 0 1 3 0 1 0 1
0 2 23 66 0 0 1 3 0 1 0 1
0 0 23 66 0 0 1 3 0 1 0 1
phys
0 2 23 105 0 0 1 3 0 1 0 1
0 0 23 66 0 0 1 3 0 1 0 1
0 0 23 105 0 0 1 3 0 1 0 1
phys
0 0 21 66 0 0 1 3 0 1 0 1
0 0 23 66 0 0 1 3 0 1 0 1
0 2 23 66 0 0 1 3 0 1 0 1
phys
0 0 21 66 0 0 1 3 0 1 0 1
0 2 23 66 0 0 1 3 0 1 0 1
0 2 21 66 0 0 1 3 0 1 0 1
phys
0 2 21 105 0 0 1 3 0 1 0 1
0 2 23 105 0 0 1 3 0 1 0 1
0 0 23 105 0 0 1 3 0 1 0 1
phys
0 2 21 105 0 0 1 3 0 1 0 1
0 0 23 105 0 0 1 3 0 1 0 1
0 0 21 105 0 0 1 3 0 1 0 1
phys
0 0 21 90 0 0 1 4 0 1 0 1
0 0 23 90 0 0 1 4 0 1 0 1
0 88 23 46 0 0 1 4 0 1 0 1
phys
0 0 21 90 0 0 1 4 0 1 0 1
0 88 23 46 0 0 1 4 0 1 0 1
0 88 21 46 0 0 1 4 0 1 0 1
phys
0 88 21 48 0 0 1 4 0 1 0 1
0 88 23 48 0 0 1 4 0 1 0 1
0 0 23 92 0 0 1 4 0 1 0 1
phys
0 88 21 48 0 0 1 4 0 1 0 1
0 0 23 92 0 0 1 4 0 1 0 1
0 0 21 92 0 0 1 4 0 1 0 1
phys
0 0 21 92 0 0 1 4 0 1 0 1
0 0 23 92 0 0 1 4 0 1 0 1
0 0 23 90 0 0 1 4 0 1 0 1
phys
0 0 21 92 0 0 1 4 0 1 0 1
0 0 23 90 0 0 1 4 0 1 0 1
0 0 21 90 0 0 1 4 0 1 0 1
phys
0 88 21 46 0 0 1 4 0 1 0 1
0 88 23 46 0 0 1 4 0 1 0 1
0 88 23 48 0 0 1 4 0 1 0 1
phys
0 88 21 46 0 0 1 4 0 1 0 1
0 88 23 48 0 0 1 4 0 1 0 1
0 88 21 48 0 0 1 4 0 1 0 1
phys
0 88 21 48 0 0 1 4 0 1 0 1
0 0 21 92 0 0 1 4 0 1 0 1
0 0 21 90 0 0 1 4 0 1 0 1
phys
0 88 21 48 0 0 1 4 0 1 0 1
0 0 21 90 0 0 1 4 0 1 0 1
0 88 21 46 0 0 1 4 0 1 0 1
phys
0 88 23 46 0 0 1 4 0 1 0 1
0 0 23 90 0 0 1 4 0 1 0 1
0 0 23 92 0 0 1 4 0 1 0 1
phys
0 88 23 46 0 0 1 4 0 1 0 1
0 0 23 92 0 0 1 4 0 1 0 1
0 88 23 48 0 0 1 4 0 1 0 1
phys
0 -128 21 128 0 0 1 5 0 1 0 1
0 -128 21 138 0 0 1 5 0 1 0 1
0 -128 23 138 0 0 1 5 0 1 0 1
phys
0 -128 21 128 0 0 1 5 0 1 0 1
0 -128 23 138 0 0 1 5 0 1 0 1
0 -128 23 128 0 0 1 5 0 1 0 1
phys
0 0 21 74 0 0 1 5 0 1 0 1
0 0 21 64 0 0 1 5 0 1 0 1
0 0 23 64 0 0 1 5 0 1 0 1
phys
0 0 21 74 0 0 1 5 0 1 0 1
0 0 23 64 0 0 1 5 0 1 0 1
0 0 23 74 0 0 1 5 0 1 0 1
phys
0 0 21 64 0 0 1 5 0 1 0 1
0 0 21 74 0 0 1 5 0 1 0 1
0 -128 21 138 0 0 1 5 0 1 0 1
phys
0 0 21 64 0 0 1 5 0 1 0 1
0 -128 21 138 0 0 1 5 0 1 0 1
0 -128 21 128 0 0 1 5 0 1 0 1
phys
0 0 23 74 0 0 1 5 0 1 0 1
0 0 23 64 0 0 1 5 0 1 0 1
0 -128 23 128 0 0 1 5 0 1 0 1
phys
0 0 23 74 0 0 1 5 0 1 0 1
0 -128 23 128 0 0 1 5 0 1 0 1
0 -128 23 138 0 0 1 5 0 1 0 1
phys
0 -128 21 128 0 0 1 5 0 1 0 1
0 -128 23 128 0 0 1 5 0 1 0 1
0 0 23 64 0 0 1 5 0 1 0 1
phys
0 -128 21 128 0 0 1 5 0 1 0 1
0 0 23 64 0 0 1 5 0 1 0 1
0 0 21 64 0 0 1 5 0 1 0 1
phys
0 0 21 74 0 0 1 5 0 1 0 1
0 0 23 74 0 0 1 5 0 1 0 1
0 -128 23 138 0 0 1 5 0 1 0 1
phys
0 0 21 74 0 0 1 5 0 1 0 1
0 -128 23 138 0 0 1 5 0 1 0 1
0 -128 21 138 0 0 1 5 0 1 0 1
phys
0 0 21 64 0 0 1 6 0 1 0 1
0 0 21 74 0 0 1 6 0 1 0 1
0 0 23 74 0 0 1 6 0 1 0 1
phys
0 0 21 64 0 0 1 6 0 1 0 1
0 0 23 74 0 0 1 6 0 1 0 1
0 0 23 64 0 0 1 6 0 1 0 1
phys
0 128 21 10 0 0 1 6 0 1 0 1
0 128 21 0 0 0 1 6 0 1 0 1
0 128 23 0 0 0 1 6 0 1 0 1
phys
0 128 21 10 0 0 1 6 0 1 0 1
0 128 23 0 0 0 1 6 0 1 0 1
0 128 23 10 0 0 1 6 0 1 0 1
phys
0 128 21 0 0 0 1 6 0 1 0 1
0 128 21 10 0 0 1 6 0 1 0 1
0 0 21 74 0 0 1 6 0 1 0 1
phys
0 128 21 0 0 0 1 6 0 1 0 1
0 0 21 74 0 0 1 6 0 1 0 1
0 0 21 64 0 0 1 6 0 1 0 1
phys
0 128 23 10 0 0 1 6 0 1 0 1
0 128 23 0 0 0 1 6 0 1 0 1
0 0 23 64 0 0 1 6 0 1 0 1
phys
0 128 23 10 0 0 1 6 0 1 0 1
0 0 23 64 0 0 1 6 0 1 0 1
0 0 23 74 0 0 1 6 0 1 0 1
phys
0 0 21 64 0 0 1 6 0 1 0 1
0 0 23 64 0 0 1 6 0 1 0 1
0 128 23 0 0 0 1 6 0 1 0 1
phys
0 0 21 64 0 0 1 6 0 1 0 1
0 128 23 0 0 0 1 6 0 1 0 1
0 128 21 0 0 0 1 6 0 1 0 1
phys
0 128 21 10 0 0 1 6 0 1 0 1
0 128 23 10 0 0 1 6 0 1 0 1
0 0 23 74 0 0 1 6 0 1 0 1
phys
0 128 21 10 0 0 1 6 0 1 0 1
0 0 23 74 0 0 1 6 0 1 0 1
0 0 21 74 0 0 1 6 0 1 0 1
phys
0 -24 -19.78 70 0 0 1 7 0 1 0 1
0 -28.22 24.01 70 0 0 1 7 0 1 0 1
0 -72.01 19.8 70 0 0 1 7 0 1 0 1
phys
0 -24 -19.78 70 0 0 1 7 0 1 0 1
0 -72.01 19.8 70 0 0 1 7 0 1 0 1
0 -67.79 -24 70 0 0 1 7 0 1 0 1
phys
0 -28.22 24.01 26 0 0 1 7 0 1 0 1
0 -28.22 24.01 70 0 0 1 7 0 1 0 1
0 -24 -19.78 70 0 0 1 7 0 1 0 1
phys
0 -28.22 24.01 26 0 0 1 7 0 1 0 1
0 -24 -19.78 70 0 0 1 7 0 1 0 1
0 -24 -19.78 26 0 0 1 7 0 1 0 1
phys
0 -67.79 -24 26 0 0 1 7 0 1 0 1
0 -67.79 -24 70 0 0 1 7 0 1 0 1
0 -72.01 19.8 70 0 0 1 7 0 1 0 1
phys
0 -67.79 -24 26 0 0 1 7 0 1 0 1
0 -72.01 19.8 70 0 0 1 7 0 1 0 1
0 -72.01 19.8 26 0 0 1 7 0 1 0 1
phys
0 -24 -19.78 26 0 0 1 7 0 1 0 1
0 -24 -19.78 70 0 0 1 7 0 1 0 1
0 -67.79 -24 70 0 0 1 7 0 1 0 1
phys
0 -24 -19.78 26 0 0 1 7 0 1 0 1
0 -67.79 -24 70 0 0 1 7 0 1 0 1
0 -67.79 -24 26 0 0 1 7 0 1 0 1
phys
0 -72.01 19.8 26 0 0 1 7 0 1 0 1
0 -72.01 19.8 70 0 0 1 7 0 1 0 1
0 -28.22 24.01 70 0 0 1 7 0 1 0 1
phys
0 -72.01 19.8 26 0 0 1 7 0 1 0 1
0 -28.22 24.01 70 0 0 1 7 0 1 0 1
0 -28.22 24.01 26 0 0 1 7 0 1 0 1
phys
0 -67.79 -24 26 0 0 1 7 0 1 0 1
0 -72.01 19.8 26 0 0 1 7 0 1 0 1
0 -28.22 24.01 26 0 0 1 7 0 1 0 1
phys
0 -67.79 -24 26 0 0 1 7 0 1 0 1
0 -28.22 24.01 26 0 0 1 7 0 1 0 1
0 -24 -19.78 26 0 0 1 7 0 1 0 1
phys
0 88 21 62 0 0 1 8 0 1 0 1
0 0 21 106 0 0 1 8 0 1 0 1
0 0 21 104 0 0 1 8 0 1 0 1
phys
0 88 21 62 0 0 1 8 0 1 0 1
0 0 21 104 0 0 1 8 0 1 0 1
0 88 21 60 0 0 1 8 0 1 0 1
phys
0 88 23 60 0 0 1 8 0 1 0 1
0 0 23 104 0 0 1 8 0 1 0 1
0 0 23 106 0 0 1 8 0 1 0 1
phys
0 88 23 60 0 0 1 8 0 1 0 1
0 0 23 106 0 0 1 8 0 1 0 1
0 88 23 62 0 0 1 8 0 1 0 1
phys
0 0 21 106 0 0 1 8 0 1 0 1
0 88 21 62 0 0 1 8 0 1 0 1
0 88 23 62 0 0 1 8 0 1 0 1
phys
0 0 21 106 0 0 1 8 0 1 0 1
0 88 23 62 0 0 1 8 0 1 0 1
0 0 23 106 0 0 1 8 0 1 0 1
phys
0 88 21 60 0 0 1 8 0 1 0 1
0 0 21 104 0 0 1 8 0 1 0 1
0 0 23 104 0 0 1 8 0 1 0 1
phys
0 88 21 60 0 0 1 8 0 1 0 1
0 0 23 104 0 0 1 8 0 1 0 1
0 88 23 60 0 0 1 8 0 1 0 1
phys
0 0 21 104 0 0 1 8 0 1 0 1
0 0 21 106 0 0 1 8 0 1 0 1
0 0 23 106 0 0 1 8 0 1 0 1
phys
0 0 21 104 0 0 1 8 0 1 0 1
0 0 23 106 0 0 1 8 0 1 0 1
0 0 23 104 0 0 1 8 0 1 0 1
phys
0 88 21 62 0 0 1 8 0 1 0 1
0 88 21 60 0 0 1 8 0 1 0 1
0 88 23 60 0 0 1 8 0 1 0 1
phys
0 88 21 62 0 0 1 8 0 1 0 1
0 88 23 60 0 0 1 8 0 1 0 1
0 88 23 62 0 0 1 8 0 1 0 1
end
