version 1
nodes
0 "root" -1
end
skeleton
time 0
0 0 0 0 0 0 0
end
triangles
metal_metalwall074a
0 44 21 50 -1 0 0 -4.125 25.015625 1 0 1
0 44 21 82 -1 0 0 -3.875 25.015625 1 0 1
0 44 23 82 -1 0 0 -3.875 25 1 0 1
metal_metalwall074a
0 44 21 50 -1 0 0 -4.125 25.015625 1 0 1
0 44 23 82 -1 0 0 -3.875 25 1 0 1
0 44 23 50 -1 0 0 -4.125 25 1 0 1
metal_metalwall074a
0 46 21 82 1 0 0 -3.875 25.015625 1 0 1
0 46 21 50 1 0 0 -4.125 25.015625 1 0 1
0 46 23 50 1 0 0 -4.125 25 1 0 1
metal_metalwall074a
0 46 21 82 1 0 0 -3.875 25.015625 1 0 1
0 46 23 50 1 0 0 -4.125 25 1 0 1
0 46 23 82 1 0 0 -3.875 25 1 0 1
metal_metalwall074a
0 46 21 50 0 -1 0 -4.171875 -41.09375 1 0 1
0 46 21 82 0 -1 0 -3.921875 -41.09375 1 0 1
0 44 21 82 0 -1 0 -3.921875 -41.078125 1 0 1
metal_metalwall074a
0 46 21 50 0 -1 0 -4.171875 -41.09375 1 0 1
0 44 21 82 0 -1 0 -3.921875 -41.078125 1 0 1
0 44 21 50 0 -1 0 -4.171875 -41.078125 1 0 1
metal_metalwall074a
0 46 23 82 0 1 0 -3.921875 -41.09375 1 0 1
0 46 23 50 0 1 0 -4.171875 -41.09375 1 0 1
0 44 23 50 0 1 0 -4.171875 -41.078125 1 0 1
metal_metalwall074a
0 46 23 82 0 1 0 -3.921875 -41.09375 1 0 1
0 44 23 50 0 1 0 -4.171875 -41.078125 1 0 1
0 44 23 82 0 1 0 -3.921875 -41.078125 1 0 1
halflife_basetrim02
0 44 21 50 0 0 -1 21.636051 -163.625 1 0 1
0 44 23 50 0 0 -1 21.621974 -163.625 1 0 1
0 46 23 50 0 0 -1 21.621974 -163.675 1 0 1
halflife_basetrim02
0 44 21 50 0 0 -1 21.636051 -163.625 1 0 1
0 46 23 50 0 0 -1 21.621974 -163.675 1 0 1
0 46 21 50 0 0 -1 21.636051 -163.675 1 0 1
halflife_basetrim02
0 46 21 82 0 0 1 21.636051 -162.075 1 0 1
0 46 23 82 0 0 1 21.621974 -162.075 1 0 1
0 44 23 82 0 0 1 21.621974 -162.025 1 0 1
halflife_basetrim02
0 46 21 82 0 0 1 21.636051 -162.075 1 0 1
0 44 23 82 0 0 1 21.621974 -162.025 1 0 1
0 44 21 82 0 0 1 21.636051 -162.025 1 0 1
halflife_basetrim02
0 86 21 30 0 0 -1 21.636051 -165.675 1 0 1
0 86 23 30 0 0 -1 21.621974 -165.675 1 0 1
0 88 23 30 0 0 -1 21.621974 -165.725 1 0 1
halflife_basetrim02
0 86 21 30 0 0 -1 21.636051 -165.675 1 0 1
0 88 23 30 0 0 -1 21.621974 -165.725 1 0 1
0 88 21 30 0 0 -1 21.636051 -165.725 1 0 1
halflife_basetrim02
0 88 21 62 0 0 1 21.636051 -164.125 1 0 1
0 88 23 62 0 0 1 21.621974 -164.125 1 0 1
0 86 23 62 0 0 1 21.621974 -164.075 1 0 1
halflife_basetrim02
0 88 21 62 0 0 1 21.636051 -164.125 1 0 1
0 86 23 62 0 0 1 21.621974 -164.075 1 0 1
0 86 21 62 0 0 1 21.636051 -164.075 1 0 1
metal_metalwall074a
0 86 21 62 -1 0 0 -4.03125 24.9375 1 0 1
0 86 23 62 -1 0 0 -4.03125 24.921875 1 0 1
0 86 23 30 -1 0 0 -4.28125 24.921875 1 0 1
metal_metalwall074a
0 86 21 62 -1 0 0 -4.03125 24.9375 1 0 1
0 86 23 30 -1 0 0 -4.28125 24.921875 1 0 1
0 86 21 30 -1 0 0 -4.28125 24.9375 1 0 1
metal_metalwall074a
0 88 21 30 1 0 0 -4.28125 24.9375 1 0 1
0 88 23 30 1 0 0 -4.28125 24.921875 1 0 1
0 88 23 62 1 0 0 -4.03125 24.921875 1 0 1
metal_metalwall074a
0 88 21 30 1 0 0 -4.28125 24.9375 1 0 1
0 88 23 62 1 0 0 -4.03125 24.921875 1 0 1
0 88 21 62 1 0 0 -4.03125 24.9375 1 0 1
metal_metalwall074a
0 88 21 62 0 -1 0 -4.15625 -41.5 1 0 1
0 86 21 62 0 -1 0 -4.15625 -41.484375 1 0 1
0 86 21 30 0 -1 0 -4.40625 -41.484375 1 0 1
metal_metalwall074a
0 88 21 62 0 -1 0 -4.15625 -41.5 1 0 1
0 86 21 30 0 -1 0 -4.40625 -41.484375 1 0 1
0 88 21 30 0 -1 0 -4.40625 -41.5 1 0 1
metal_metalwall074a
0 88 23 30 0 1 0 -4.40625 -41.5 1 0 1
0 86 23 30 0 1 0 -4.40625 -41.484375 1 0 1
0 86 23 62 0 1 0 -4.15625 -41.484375 1 0 1
metal_metalwall074a
0 88 23 30 0 1 0 -4.40625 -41.5 1 0 1
0 86 23 62 0 1 0 -4.15625 -41.484375 1 0 1
0 88 23 62 0 1 0 -4.15625 -41.5 1 0 1
metal_metalwall074a
0 0 21 66 -1 0 0 -3.5 25.0625 1 0 1
0 0 21 105 -1 0 0 -3.195312 25.0625 1 0 1
0 0 23 105 -1 0 0 -3.195312 25.046875 1 0 1
metal_metalwall074a
0 0 21 66 -1 0 0 -3.5 25.0625 1 0 1
0 0 23 105 -1 0 0 -3.195312 25.046875 1 0 1
0 0 23 66 -1 0 0 -3.5 25.046875 1 0 1
metal_metalwall074a
0 2 21 105 1 0 0 -3.195312 25.0625 1 0 1
0 2 21 66 1 0 0 -3.5 25.0625 1 0 1
0 2 23 66 1 0 0 -3.5 25.046875 1 0 1
metal_metalwall074a
0 2 21 105 1 0 0 -3.195312 25.0625 1 0 1
0 2 23 66 1 0 0 -3.5 25.046875 1 0 1
0 2 23 105 1 0 0 -3.195312 25.046875 1 0 1
metal_metalwall074a
0 2 21 66 0 -1 0 -3.703125 -40.703125 1 0 1
0 2 21 105 0 -1 0 -3.398438 -40.703125 1 0 1
0 0 21 105 0 -1 0 -3.398438 -40.6875 1 0 1
metal_metalwall074a
0 2 21 66 0 -1 0 -3.703125 -40.703125 1 0 1
0 0 21 105 0 -1 0 -3.398438 -40.6875 1 0 1
0 0 21 66 0 -1 0 -3.703125 -40.6875 1 0 1
metal_metalwall074a
0 2 23 105 0 1 0 -3.398438 -40.703125 1 0 1
0 2 23 66 0 1 0 -3.703125 -40.703125 1 0 1
0 0 23 66 0 1 0 -3.703125 -40.6875 1 0 1
metal_metalwall074a
0 2 23 105 0 1 0 -3.398438 -40.703125 1 0 1
0 0 23 66 0 1 0 -3.703125 -40.6875 1 0 1
0 0 23 105 0 1 0 -3.398438 -40.6875 1 0 1
halflife_basetrim02
0 0 21 66 0 0 -1 21.636051 -161.725 1 0 1
0 0 23 66 0 0 -1 21.621974 -161.725 1 0 1
0 2 23 66 0 0 -1 21.621974 -161.775 1 0 1
halflife_basetrim02
0 0 21 66 0 0 -1 21.636051 -161.725 1 0 1
0 2 23 66 0 0 -1 21.621974 -161.775 1 0 1
0 2 21 66 0 0 -1 21.636051 -161.775 1 0 1
halflife_basetrim02
0 2 21 105 0 0 1 21.636051 -159.825 1 0 1
0 2 23 105 0 0 1 21.621974 -159.825 1 0 1
0 0 23 105 0 0 1 21.621974 -159.775 1 0 1
halflife_basetrim02
0 2 21 105 0 0 1 21.636051 -159.825 1 0 1
0 0 23 105 0 0 1 21.621974 -159.775 1 0 1
0 0 21 105 0 0 1 21.636051 -159.775 1 0 1
metal_metalwall074a
0 0 21 90 -0.447214 0 -0.894427 -23.9375 -40.875 1 0 1
0 0 23 90 -0.447214 0 -0.894427 -23.921875 -40.875 1 0 1
0 88 23 46 -0.447214 0 -0.894427 -23.921875 -41.5625 1 0 1
metal_metalwall074a
0 0 21 90 -0.447214 0 -0.894427 -23.9375 -40.875 1 0 1
0 88 23 46 -0.447214 0 -0.894427 -23.921875 -41.5625 1 0 1
0 88 21 46 -0.447214 0 -0.894427 -23.9375 -41.5625 1 0 1
metal_metalwall074a
0 88 21 48 0.447214 0 0.894427 -23.9375 -41.5625 1 0 1
0 88 23 48 0.447214 0 0.894427 -23.921875 -41.5625 1 0 1
0 0 23 92 0.447214 0 0.894427 -23.921875 -40.875 1 0 1
metal_metalwall074a
0 88 21 48 0.447214 0 0.894427 -23.9375 -41.5625 1 0 1
0 0 23 92 0.447214 0 0.894427 -23.921875 -40.875 1 0 1
0 0 21 92 0.447214 0 0.894427 -23.9375 -40.875 1 0 1
metal_metalwall074a
0 0 21 92 -1 0 0 -3.796875 25.015625 1 0 1
0 0 23 92 -1 0 0 -3.796875 25 1 0 1
0 0 23 90 -1 0 0 -3.8125 25 1 0 1
metal_metalwall074a
0 0 21 92 -1 0 0 -3.796875 25.015625 1 0 1
0 0 23 90 -1 0 0 -3.8125 25 1 0 1
0 0 21 90 -1 0 0 -3.8125 25.015625 1 0 1
metal_metalwall074a
0 88 21 46 1 0 0 -23.914062 -3.257812 1 0 1
0 88 23 46 1 0 0 -23.898438 -3.257812 1 0 1
0 88 23 48 1 0 0 -23.898438 -3.242188 1 0 1
metal_metalwall074a
0 88 21 46 1 0 0 -23.914062 -3.257812 1 0 1
0 88 23 48 1 0 0 -23.898438 -3.242188 1 0 1
0 88 21 48 1 0 0 -23.914062 -3.242188 1 0 1
metal_metalwall074a
0 88 21 48 0 -1 0 -4.203125 -41.421875 1 0 1
0 0 21 92 0 -1 0 -3.859375 -40.734375 1 0 1
0 0 21 90 0 -1 0 -3.875 -40.734375 1 0 1
metal_metalwall074a
0 88 21 48 0 -1 0 -4.203125 -41.421875 1 0 1
0 0 21 90 0 -1 0 -3.875 -40.734375 1 0 1
0 88 21 46 0 -1 0 -4.21875 -41.421875 1 0 1
metal_metalwall074a
0 88 23 46 0 1 0 -4.21875 -41.421875 1 0 1
0 0 23 90 0 1 0 -3.875 -40.734375 1 0 1
0 0 23 92 0 1 0 -3.859375 -40.734375 1 0 1
metal_metalwall074a
0 88 23 46 0 1 0 -4.21875 -41.421875 1 0 1
0 0 23 92 0 1 0 -3.859375 -40.734375 1 0 1
0 88 23 48 0 1 0 -4.203125 -41.421875 1 0 1
halflife_basetrim02
0 -128 21 128 -1 0 0 21.636051 -155.425 1 0 1
0 -128 21 138 -1 0 0 21.636051 -154.925 1 0 1
0 -128 23 138 -1 0 0 21.621974 -154.925 1 0 1
halflife_basetrim02
0 -128 21 128 -1 0 0 21.636051 -155.425 1 0 1
0 -128 23 138 -1 0 0 21.621974 -154.925 1 0 1
0 -128 23 128 -1 0 0 21.621974 -155.425 1 0 1
halflife_basetrim02
0 0 21 74 1 0 0 21.636051 -161.325 1 0 1
0 0 21 64 1 0 0 21.636051 -161.825 1 0 1
0 0 23 64 1 0 0 21.621974 -161.825 1 0 1
halflife_basetrim02
0 0 21 74 1 0 0 21.636051 -161.325 1 0 1
0 0 23 64 1 0 0 21.621974 -161.825 1 0 1
0 0 23 74 1 0 0 21.621974 -161.325 1 0 1
metal_metalwall074a
0 0 21 64 0 -1 0 -3.578125 -40.875 1 0 1
0 0 21 74 0 -1 0 -3.5 -40.875 1 0 1
0 -128 21 138 0 -1 0 -3 -39.875 1 0 1
metal_metalwall074a
0 0 21 64 0 -1 0 -3.578125 -40.875 1 0 1
0 -128 21 138 0 -1 0 -3 -39.875 1 0 1
0 -128 21 128 0 -1 0 -3.078125 -39.875 1 0 1
metal_metalwall074a
0 0 23 74 0 1 0 -3.5 -40.875 1 0 1
0 0 23 64 0 1 0 -3.578125 -40.875 1 0 1
0 -128 23 128 0 1 0 -3.078125 -39.875 1 0 1
metal_metalwall074a
0 0 23 74 0 1 0 -3.5 -40.875 1 0 1
0 -128 23 128 0 1 0 -3.078125 -39.875 1 0 1
0 -128 23 138 0 1 0 -3 -39.875 1 0 1
metal_metalwall074a
0 -128 21 128 -0.447214 0 -0.894427 -23.9375 -39.890625 1 0 1
0 -128 23 128 -0.447214 0 -0.894427 -23.921875 -39.890625 1 0 1
0 0 23 64 -0.447214 0 -0.894427 -23.921875 -40.890625 1 0 1
metal_metalwall074a
0 -128 21 128 -0.447214 0 -0.894427 -23.9375 -39.890625 1 0 1
0 0 23 64 -0.447214 0 -0.894427 -23.921875 -40.890625 1 0 1
0 0 21 64 -0.447214 0 -0.894427 -23.9375 -40.890625 1 0 1
metal_metalwall074a
0 0 21 74 0.447214 0 0.894427 -23.9375 -40.890625 1 0 1
0 0 23 74 0.447214 0 0.894427 -23.921875 -40.890625 1 0 1
0 -128 23 138 0.447214 0 0.894427 -23.921875 -39.890625 1 0 1
metal_metalwall074a
0 0 21 74 0.447214 0 0.894427 -23.9375 -40.890625 1 0 1
0 -128 23 138 0.447214 0 0.894427 -23.921875 -39.890625 1 0 1
0 -128 21 138 0.447214 0 0.894427 -23.9375 -39.890625 1 0 1
halflife_basetrim02
0 0 21 64 -1 0 0 21.636051 -161.825 1 0 1
0 0 21 74 -1 0 0 21.636051 -161.325 1 0 1
0 0 23 74 -1 0 0 21.621974 -161.325 1 0 1
halflife_basetrim02
0 0 21 64 -1 0 0 21.636051 -161.825 1 0 1
0 0 23 74 -1 0 0 21.621974 -161.325 1 0 1
0 0 23 64 -1 0 0 21.621974 -161.825 1 0 1
metal_metaltruss009a
0 128 21 10 1 0 0 190 -3.4375 1 0 1
0 128 21 0 1 0 0 190 -3.515625 1 0 1
0 128 23 0 1 0 0 189.875 -3.515625 1 0 1
metal_metaltruss009a
0 128 21 10 1 0 0 190 -3.4375 1 0 1
0 128 23 0 1 0 0 189.875 -3.515625 1 0 1
0 128 23 10 1 0 0 189.875 -3.4375 1 0 1
metal_metalwall074a
0 128 21 0 0 -1 0 -4.578125 -41.875 1 0 1
0 128 21 10 0 -1 0 -4.5 -41.875 1 0 1
0 0 21 74 0 -1 0 -4 -40.875 1 0 1
metal_metalwall074a
0 128 21 0 0 -1 0 -4.578125 -41.875 1 0 1
0 0 21 74 0 -1 0 -4 -40.875 1 0 1
0 0 21 64 0 -1 0 -4.078125 -40.875 1 0 1
metal_metalwall074a
0 128 23 10 0 1 0 -4.5 -41.875 1 0 1
0 128 23 0 0 1 0 -4.578125 -41.875 1 0 1
0 0 23 64 0 1 0 -4.078125 -40.875 1 0 1
metal_metalwall074a
0 128 23 10 0 1 0 -4.5 -41.875 1 0 1
0 0 23 64 0 1 0 -4.078125 -40.875 1 0 1
0 0 23 74 0 1 0 -4 -40.875 1 0 1
metal_metalwall074a
0 0 21 64 -0.447214 0 -0.894427 -23.9375 -40.890625 1 0 1
0 0 23 64 -0.447214 0 -0.894427 -23.921875 -40.890625 1 0 1
0 128 23 0 -0.447214 0 -0.894427 -23.921875 -41.890625 1 0 1
metal_metalwall074a
0 0 21 64 -0.447214 0 -0.894427 -23.9375 -40.890625 1 0 1
0 128 23 0 -0.447214 0 -0.894427 -23.921875 -41.890625 1 0 1
0 128 21 0 -0.447214 0 -0.894427 -23.9375 -41.890625 1 0 1
metal_metalwall074a
0 128 21 10 0.447214 0 0.894427 -23.9375 -41.890625 1 0 1
0 128 23 10 0.447214 0 0.894427 -23.921875 -41.890625 1 0 1
0 0 23 74 0.447214 0 0.894427 -23.921875 -40.890625 1 0 1
metal_metalwall074a
0 128 21 10 0.447214 0 0.894427 -23.9375 -41.890625 1 0 1
0 0 23 74 0.447214 0 0.894427 -23.921875 -40.890625 1 0 1
0 0 21 74 0.447214 0 0.894427 -23.9375 -40.890625 1 0 1
props_woodcrate001a
0 -24 -19.78 70 0 0 1 112.996392 -79.949098 1 0 1
0 -28.22 24.01 70 0 0 1 112.996367 -78.966544 1 0 1
0 -72.01 19.8 70 0 0 1 112.013834 -78.966347 1 0 1
props_woodcrate001a
0 -24 -19.78 70 0 0 1 112.996392 -79.949098 1 0 1
0 -72.01 19.8 70 0 0 1 112.013834 -78.966347 1 0 1
0 -67.79 -24 70 0 0 1 112.013838 -79.949123 1 0 1
props_woodcrate001a
0 -28.22 24.01 26 0.995389 0.095925 0 -79.966544 -11.982141 1 0 1
0 -28.22 24.01 70 0.995389 0.095925 0 -79.966544 -10.999998 1 0 1
0 -24 -19.78 70 0.995389 0.095925 0 -80.949098 -10.999998 1 0 1
props_woodcrate001a
0 -28.22 24.01 26 0.995389 0.095925 0 -79.966544 -11.982141 1 0 1
0 -24 -19.78 70 0.995389 0.095925 0 -80.949098 -10.999998 1 0 1
0 -24 -19.78 26 0.995389 0.095925 0 -80.949098 -11.982141 1 0 1
props_woodcrate001a
0 -67.79 -24 26 -0.995391 -0.095903 0 -80.949123 -11.982141 1 0 1
0 -67.79 -24 70 -0.995391 -0.095903 0 -80.949123 -10.999998 1 0 1
0 -72.01 19.8 70 -0.995391 -0.095903 0 -79.966347 -10.999998 1 0 1
props_woodcrate001a
0 -67.79 -24 26 -0.995391 -0.095903 0 -80.949123 -11.982141 1 0 1
0 -72.01 19.8 70 -0.995391 -0.095903 0 -79.966347 -10.999998 1 0 1
0 -72.01 19.8 26 -0.995391 -0.095903 0 -79.966347 -11.982141 1 0 1
props_woodcrate001a
0 -24 -19.78 26 0.095925 -0.995389 0 112.996392 -11.982141 1 0 1
0 -24 -19.78 70 0.095925 -0.995389 0 112.996392 -10.999998 1 0 1
0 -67.79 -24 70 0.095925 -0.995389 0 112.013838 -10.999998 1 0 1
props_woodcrate001a
0 -24 -19.78 26 0.095925 -0.995389 0 112.996392 -11.982141 1 0 1
0 -67.79 -24 70 0.095925 -0.995389 0 112.013838 -10.999998 1 0 1
0 -67.79 -24 26 0.095925 -0.995389 0 112.013838 -11.982141 1 0 1
props_woodcrate001a
0 -72.01 19.8 26 -0.095699 0.99541 0 112.013834 -11.982141 1 0 1
0 -72.01 19.8 70 -0.095699 0.99541 0 112.013834 -10.999998 1 0 1
0 -28.22 24.01 70 -0.095699 0.99541 0 112.996367 -10.999998 1 0 1
props_woodcrate001a
0 -72.01 19.8 26 -0.095699 0.99541 0 112.013834 -11.982141 1 0 1
0 -28.22 24.01 70 -0.095699 0.99541 0 112.996367 -10.999998 1 0 1
0 -28.22 24.01 26 -0.095699 0.99541 0 112.996367 -11.982141 1 0 1
props_woodcrate001a
0 -67.79 -24 26 0 0 -1 -167.225313 -96.0625 1 0 1
0 -72.01 19.8 26 0 0 -1 -167.093438 -94.69375 1 0 1
0 -28.22 24.01 26 0 0 -1 -168.461875 -94.562187 1 0 1
props_woodcrate001a
0 -67.79 -24 26 0 0 -1 -167.225313 -96.0625 1 0 1
0 -28.22 24.01 26 0 0 -1 -168.461875 -94.562187 1 0 1
0 -24 -19.78 26 0 0 -1 -168.59375 -95.930625 1 0 1
metal_metalwall074a
0 88 21 62 0 -1 0 -4.09375 -41.53125 1 0 1
0 0 21 106 0 -1 0 -3.75 -40.84375 1 0 1
0 0 21 104 0 -1 0 -3.765625 -40.84375 1 0 1
metal_metalwall074a
0 88 21 62 0 -1 0 -4.09375 -41.53125 1 0 1
0 0 21 104 0 -1 0 -3.765625 -40.84375 1 0 1
0 88 21 60 0 -1 0 -4.109375 -41.53125 1 0 1
metal_metalwall074a
0 88 23 60 0 1 0 -4.109375 -41.53125 1 0 1
0 0 23 104 0 1 0 -3.765625 -40.84375 1 0 1
0 0 23 106 0 1 0 -3.75 -40.84375 1 0 1
metal_metalwall074a
0 88 23 60 0 1 0 -4.109375 -41.53125 1 0 1
0 0 23 106 0 1 0 -3.75 -40.84375 1 0 1
0 88 23 62 0 1 0 -4.09375 -41.53125 1 0 1
metal_metalwall074a
0 0 21 106 0.447214 0 0.894427 -23.9375 -40.875 1 0 1
0 88 21 62 0.447214 0 0.894427 -23.9375 -41.5625 1 0 1
0 88 23 62 0.447214 0 0.894427 -23.921875 -41.5625 1 0 1
metal_metalwall074a
0 0 21 106 0.447214 0 0.894427 -23.9375 -40.875 1 0 1
0 88 23 62 0.447214 0 0.894427 -23.921875 -41.5625 1 0 1
0 0 23 106 0.447214 0 0.894427 -23.921875 -40.875 1 0 1
metal_metalwall074a
0 88 21 60 -0.447214 0 -0.894427 -23.9375 -41.5625 1 0 1
0 0 21 104 -0.447214 0 -0.894427 -23.9375 -40.875 1 0 1
0 0 23 104 -0.447214 0 -0.894427 -23.921875 -40.875 1 0 1
metal_metalwall074a
0 88 21 60 -0.447214 0 -0.894427 -23.9375 -41.5625 1 0 1
0 0 23 104 -0.447214 0 -0.894427 -23.921875 -40.875 1 0 1
0 88 23 60 -0.447214 0 -0.894427 -23.921875 -41.5625 1 0 1
halflife_basetrim02
0 0 21 104 -1 0 0 21.636051 -159.825 1 0 1
0 0 21 106 -1 0 0 21.636051 -159.725 1 0 1
0 0 23 106 -1 0 0 21.621974 -159.725 1 0 1
halflife_basetrim02
0 0 21 104 -1 0 0 21.636051 -159.825 1 0 1
0 0 23 106 -1 0 0 21.621974 -159.725 1 0 1
0 0 23 104 -1 0 0 21.621974 -159.825 1 0 1
halflife_basetrim02
0 88 21 62 1 0 0 21.636051 -164.125 1 0 1
0 88 21 60 1 0 0 21.636051 -164.225 1 0 1
0 88 23 60 1 0 0 21.621974 -164.225 1 0 1
halflife_basetrim02
0 88 21 62 1 0 0 21.636051 -164.125 1 0 1
0 88 23 60 1 0 0 21.621974 -164.225 1 0 1
0 88 23 62 1 0 0 21.621974 -164.125 1 0 1
end
