version 1
nodes
0 "root" -1
end
skeleton
time 0
0 0 0 0 0 0 0
end
triangles
de_cbble_concrete01
0 -160 -198 64 0.707328 0 -0.706886 -69.68654 -14.777344 1 0 1
0 -168 -198 55.995 0.707328 0 -0.706886 -69.774955 -14.777344 1 0 1
0 -168 201 55.995 0.707328 0 -0.706886 -69.774955 -11.660156 1 0 1
de_cbble_concrete01
0 -160 -198 64 0.707328 0 -0.706886 -69.68654 -14.777344 1 0 1
0 -168 201 55.995 0.707328 0 -0.706886 -69.774955 -11.660156 1 0 1
0 -160 201 64 0.707328 0 -0.706886 -69.68654 -11.660156 1 0 1
de_cbble_concrete01
0 -168 -198 8.005 0.707328 0 0.706886 15.761719 66.16125 1 0 1
0 -160 -198 0 0.707328 0 0.706886 15.761719 66.072835 1 0 1
0 -160 201 0 0.707328 0 0.706886 12.644531 66.072835 1 0 1
de_cbble_concrete01
0 -168 -198 8.005 0.707328 0 0.706886 15.761719 66.16125 1 0 1
0 -160 201 0 0.707328 0 0.706886 12.644531 66.072835 1 0 1
0 -168 201 8.005 0.707328 0 0.706886 12.644531 66.16125 1 0 1
de_train_train_metalceiling_02
0 -108 -198 4 0 1 0 95.515625 4.59375 1 0 1
0 -108 -198 0 0 1 0 95.515625 4.625 1 0 1
0 -164 -198 0 0 1 0 95.953125 4.625 1 0 1
de_train_train_metalceiling_02
0 -108 -198 4 0 1 0 95.515625 4.59375 1 0 1
0 -164 -198 0 0 1 0 95.953125 4.625 1 0 1
0 -164 -198 4 0 1 0 95.953125 4.59375 1 0 1
de_train_train_metalceiling_02
0 -108 -202 0 0 -1 0 95.515625 4.625 1 0 1
0 -108 -202 4 0 -1 0 95.515625 4.59375 1 0 1
0 -164 -202 4 0 -1 0 95.953125 4.59375 1 0 1
de_train_train_metalceiling_02
0 -108 -202 0 0 -1 0 95.515625 4.625 1 0 1
0 -164 -202 4 0 -1 0 95.953125 4.59375 1 0 1
0 -164 -202 0 0 -1 0 95.953125 4.625 1 0 1
de_train_train_metalceiling_02
0 -164 -202 4 0 0 1 95.953125 16.59375 1 0 1
0 -108 -202 4 0 0 1 95.515625 16.59375 1 0 1
0 -108 -198 4 0 0 1 95.515625 16.5625 1 0 1
de_train_train_metalceiling_02
0 -164 -202 4 0 0 1 95.953125 16.59375 1 0 1
0 -108 -198 4 0 0 1 95.515625 16.5625 1 0 1
0 -164 -198 4 0 0 1 95.953125 16.5625 1 0 1
de_cbble_concrete01
0 -104 137 8 0 0.707107 0.707107 -94.808594 8.163225 1 0 1
0 169 137 8 0 0.707107 0.707107 -92.675781 8.163225 1 0 1
0 169 145 0 0 0.707107 0.707107 -92.675781 8.074837 1 0 1
de_cbble_concrete01
0 -104 137 8 0 0.707107 0.707107 -94.808594 8.163225 1 0 1
0 169 145 0 0 0.707107 0.707107 -92.675781 8.074837 1 0 1
0 -104 145 0 0 0.707107 0.707107 -94.808594 8.074837 1 0 1
de_train_train_metalceiling_02
0 -104 -198 64 0 1 0 95.484375 4.125 1 0 1
0 -104 -198 0 0 1 0 95.484375 4.625 1 0 1
0 -108 -198 0 0 1 0 95.515625 4.625 1 0 1
de_train_train_metalceiling_02
0 -104 -198 64 0 1 0 95.484375 4.125 1 0 1
0 -108 -198 0 0 1 0 95.515625 4.625 1 0 1
0 -108 -198 64 0 1 0 95.515625 4.125 1 0 1
de_train_train_metalceiling_02
0 -104 -202 0 0 -1 0 95.484375 4.625 1 0 1
0 -104 -202 64 0 -1 0 95.484375 4.125 1 0 1
0 -108 -202 64 0 -1 0 95.515625 4.125 1 0 1
de_train_train_metalceiling_02
0 -104 -202 0 0 -1 0 95.484375 4.625 1 0 1
0 -108 -202 64 0 -1 0 95.515625 4.125 1 0 1
0 -108 -202 0 0 -1 0 95.515625 4.625 1 0 1
de_train_train_metalceiling_02
0 -108 -202 0 -1 0 0 -15.484375 4.625 1 0 1
0 -108 -202 64 -1 0 0 -15.484375 4.125 1 0 1
0 -108 -198 64 -1 0 0 -15.453125 4.125 1 0 1
de_train_train_metalceiling_02
0 -108 -202 0 -1 0 0 -15.484375 4.625 1 0 1
0 -108 -198 64 -1 0 0 -15.453125 4.125 1 0 1
0 -108 -198 0 -1 0 0 -15.453125 4.625 1 0 1
de_train_train_metalceiling_02
0 -164 -202 0 1 0 0 15.953125 4.625 1 0 1
0 -164 -198 0 1 0 0 15.921875 4.625 1 0 1
0 -164 -198 64 1 0 0 15.921875 4.125 1 0 1
de_train_train_metalceiling_02
0 -164 -202 0 1 0 0 15.953125 4.625 1 0 1
0 -164 -198 64 1 0 0 15.921875 4.125 1 0 1
0 -164 -202 64 1 0 0 15.953125 4.125 1 0 1
de_train_train_metalceiling_02
0 -164 -198 64 0 1 0 95.953125 4.125 1 0 1
0 -164 -198 0 0 1 0 95.953125 4.625 1 0 1
0 -168 -198 0 0 1 0 95.984375 4.625 1 0 1
de_train_train_metalceiling_02
0 -164 -198 64 0 1 0 95.953125 4.125 1 0 1
0 -168 -198 0 0 1 0 95.984375 4.625 1 0 1
0 -168 -198 64 0 1 0 95.984375 4.125 1 0 1
de_train_train_metalceiling_02
0 -164 -202 0 0 -1 0 95.953125 4.625 1 0 1
0 -164 -202 64 0 -1 0 95.953125 4.125 1 0 1
0 -168 -202 64 0 -1 0 95.984375 4.125 1 0 1
de_train_train_metalceiling_02
0 -164 -202 0 0 -1 0 95.953125 4.625 1 0 1
0 -168 -202 64 0 -1 0 95.984375 4.125 1 0 1
0 -168 -202 0 0 -1 0 95.984375 4.625 1 0 1
de_train_train_metalceiling_02
0 -108 -198 64 0 1 0 95.515625 4.125 1 0 1
0 -108 -198 60 0 1 0 95.515625 4.15625 1 0 1
0 -164 -198 60 0 1 0 95.953125 4.15625 1 0 1
de_train_train_metalceiling_02
0 -108 -198 64 0 1 0 95.515625 4.125 1 0 1
0 -164 -198 60 0 1 0 95.953125 4.15625 1 0 1
0 -164 -198 64 0 1 0 95.953125 4.125 1 0 1
de_train_train_metalceiling_02
0 -108 -202 60 0 -1 0 95.515625 4.15625 1 0 1
0 -108 -202 64 0 -1 0 95.515625 4.125 1 0 1
0 -164 -202 64 0 -1 0 95.953125 4.125 1 0 1
de_train_train_metalceiling_02
0 -108 -202 60 0 -1 0 95.515625 4.15625 1 0 1
0 -164 -202 64 0 -1 0 95.953125 4.125 1 0 1
0 -164 -202 60 0 -1 0 95.953125 4.15625 1 0 1
de_train_train_metalceiling_02
0 -108 -202 60 0 0 -1 95.515625 -14.84375 1 0 1
0 -164 -202 60 0 0 -1 95.953125 -14.84375 1 0 1
0 -164 -198 60 0 0 -1 95.953125 -14.8125 1 0 1
de_train_train_metalceiling_02
0 -108 -202 60 0 0 -1 95.515625 -14.84375 1 0 1
0 -164 -198 60 0 0 -1 95.953125 -14.8125 1 0 1
0 -108 -198 60 0 0 -1 95.515625 -14.8125 1 0 1
de_cbble_concrete01
0 -160 193 0 0 -0.707063 0.707151 -95.246094 12.544508 1 0 1
0 169 193 0 0 -0.707063 0.707151 -92.675781 12.544508 1 0 1
0 169 201 7.999 0 -0.707063 0.707151 -92.675781 12.456126 1 0 1
de_cbble_concrete01
0 -160 193 0 0 -0.707063 0.707151 -95.246094 12.544508 1 0 1
0 169 201 7.999 0 -0.707063 0.707151 -92.675781 12.456126 1 0 1
0 -167.999 201 7.999 0 -0.707063 0.707151 -95.308586 12.456126 1 0 1
de_cbble_concrete01
0 105 137 56 0 0.707107 -0.707107 -11.774977 94.160156 1 0 1
0 -104 137 56 0 0.707107 -0.707107 -11.774977 95.792969 1 0 1
0 -104 145 64 0 0.707107 -0.707107 -11.686589 95.792969 1 0 1
de_cbble_concrete01
0 105 137 56 0 0.707107 -0.707107 -11.774977 94.160156 1 0 1
0 -104 145 64 0 0.707107 -0.707107 -11.686589 95.792969 1 0 1
0 105 145 64 0 0.707107 -0.707107 -11.686589 94.160156 1 0 1
de_cbble_concrete01
0 105 137 56 1 0 0 -2.679688 -12.160156 1 0 1
0 105 145 64 1 0 0 -2.617188 -12.097656 1 0 1
0 105 137 64 1 0 0 -2.617188 -12.160156 1 0 1
de_cbble_concrete01
0 -112 -198 0 -0.707107 0 0.707107 15.761719 70.544459 1 0 1
0 -104 -198 8 -0.707107 0 0.707107 15.761719 70.456071 1 0 1
0 -104 137 8 -0.707107 0 0.707107 13.144531 70.456071 1 0 1
de_cbble_concrete01
0 -112 -198 0 -0.707107 0 0.707107 15.761719 70.544459 1 0 1
0 -104 137 8 -0.707107 0 0.707107 13.144531 70.456071 1 0 1
0 -112 145 0 -0.707107 0 0.707107 13.082031 70.544459 1 0 1
de_cbble_concrete01
0 -104 137 8 0 0.707107 0.707107 -94.808594 8.163225 1 0 1
0 -104 145 0 0 0.707107 0.707107 -94.808594 8.074837 1 0 1
0 -112 145 0 0 0.707107 0.707107 -94.871094 8.074837 1 0 1
de_cbble_concrete01
0 105 193 64 0 -0.707107 -0.707107 -7.311662 94.160156 1 0 1
0 -159.6 193 64 0 -0.707107 -0.707107 -7.311662 96.227344 1 0 1
0 -168 201 56 0 -0.707107 -0.707107 -7.223275 96.292969 1 0 1
de_cbble_concrete01
0 105 193 64 0 -0.707107 -0.707107 -7.311662 94.160156 1 0 1
0 -168 201 56 0 -0.707107 -0.707107 -7.223275 96.292969 1 0 1
0 105 201 56 0 -0.707107 -0.707107 -7.223275 94.160156 1 0 1
de_cbble_concrete01
0 105 201 64 1 0 0 -2.617188 -11.660156 1 0 1
0 105 193 64 1 0 0 -2.617188 -11.722656 1 0 1
0 105 201 56 1 0 0 -2.679688 -11.660156 1 0 1
de_cbble_concrete01
0 -112 145 64 -0.707063 0 -0.707151 -64.311613 -12.097656 1 0 1
0 -104 137 56.001 -0.707063 0 -0.707151 -64.223231 -12.160156 1 0 1
0 -104 -198 56.001 -0.707063 0 -0.707151 -64.223231 -14.777344 1 0 1
de_cbble_concrete01
0 -112 145 64 -0.707063 0 -0.707151 -64.311613 -12.097656 1 0 1
0 -104 -198 56.001 -0.707063 0 -0.707151 -64.223231 -14.777344 1 0 1
0 -112 -198 64 -0.707063 0 -0.707151 -64.311613 -14.777344 1 0 1
de_cbble_concrete01
0 -104 137 56.001 0 0.707063 -0.707151 -11.774971 95.792969 1 0 1
0 -112 145 64 0 0.707063 -0.707151 -11.686589 95.855469 1 0 1
0 -104 145 64 0 0.707063 -0.707151 -11.686589 95.792969 1 0 1
end
