version 1
nodes
0 "root" -1
end
skeleton
time 0
0 0 0 0 0 0 0
end
triangles
phys
0 24.09 601 78 0 0 1 1 0 1 0 1
0 24.09 601 68 0 0 1 1 0 1 0 1
0 22.18 601 68 0 0 1 1 0 1 0 1
phys
0 24.09 601 78 0 0 1 1 0 1 0 1
0 22.18 601 68 0 0 1 1 0 1 0 1
0 22.18 601 78 0 0 1 1 0 1 0 1
phys
0 24.09 159 68 0 0 1 1 0 1 0 1
0 24.09 159 78 0 0 1 1 0 1 0 1
0 22.18 159 78 0 0 1 1 0 1 0 1
phys
0 24.09 159 68 0 0 1 1 0 1 0 1
0 22.18 159 78 0 0 1 1 0 1 0 1
0 22.18 159 68 0 0 1 1 0 1 0 1
phys
0 22.18 159 68 0 0 1 1 0 1 0 1
0 22.18 159 78 0 0 1 1 0 1 0 1
0 22.18 601 78 0 0 1 1 0 1 0 1
phys
0 22.18 159 68 0 0 1 1 0 1 0 1
0 22.18 601 78 0 0 1 1 0 1 0 1
0 22.18 601 68 0 0 1 1 0 1 0 1
phys
0 24.09 159 78 0 0 1 1 0 1 0 1
0 24.09 159 68 0 0 1 1 0 1 0 1
0 24.09 601 68 0 0 1 1 0 1 0 1
phys
0 24.09 159 78 0 0 1 1 0 1 0 1
0 24.09 601 68 0 0 1 1 0 1 0 1
0 24.09 601 78 0 0 1 1 0 1 0 1
phys
0 24.09 159 68 0 0 1 1 0 1 0 1
0 22.18 159 68 0 0 1 1 0 1 0 1
0 22.18 601 68 0 0 1 1 0 1 0 1
phys
0 24.09 159 68 0 0 1 1 0 1 0 1
0 22.18 601 68 0 0 1 1 0 1 0 1
0 24.09 601 68 0 0 1 1 0 1 0 1
phys
0 22.18 159 78 0 0 1 1 0 1 0 1
0 24.09 159 78 0 0 1 1 0 1 0 1
0 24.09 601 78 0 0 1 1 0 1 0 1
phys
0 22.18 159 78 0 0 1 1 0 1 0 1
0 24.09 601 78 0 0 1 1 0 1 0 1
0 22.18 601 78 0 0 1 1 0 1 0 1
phys
0 64 -27 -143 0 0 1 2 0 1 0 1
0 64 -27 -84 0 0 1 2 0 1 0 1
0 42 -27 -84 0 0 1 2 0 1 0 1
phys
0 64 -27 -143 0 0 1 2 0 1 0 1
0 42 -27 -84 0 0 1 2 0 1 0 1
0 42 -27 -143 0 0 1 2 0 1 0 1
phys
0 64 -17 -84 0 0 1 2 0 1 0 1
0 64 -17 -143 0 0 1 2 0 1 0 1
0 42 -17 -143 0 0 1 2 0 1 0 1
phys
0 64 -17 -84 0 0 1 2 0 1 0 1
0 42 -17 -143 0 0 1 2 0 1 0 1
0 42 -17 -84 0 0 1 2 0 1 0 1
phys
0 64 -27 -84 0 0 1 2 0 1 0 1
0 64 -27 -143 0 0 1 2 0 1 0 1
0 64 -17 -143 0 0 1 2 0 1 0 1
phys
0 64 -27 -84 0 0 1 2 0 1 0 1
0 64 -17 -143 0 0 1 2 0 1 0 1
0 64 -17 -84 0 0 1 2 0 1 0 1
phys
0 42 -27 -143 0 0 1 2 0 1 0 1
0 42 -27 -84 0 0 1 2 0 1 0 1
0 42 -17 -84 0 0 1 2 0 1 0 1
phys
0 42 -27 -143 0 0 1 2 0 1 0 1
0 42 -17 -84 0 0 1 2 0 1 0 1
0 42 -17 -143 0 0 1 2 0 1 0 1
phys
0 64 -27 -143 0 0 1 2 0 1 0 1
0 42 -27 -143 0 0 1 2 0 1 0 1
0 42 -17 -143 0 0 1 2 0 1 0 1
phys
0 64 -27 -143 0 0 1 2 0 1 0 1
0 42 -17 -143 0 0 1 2 0 1 0 1
0 64 -17 -143 0 0 1 2 0 1 0 1
phys
0 42 -27 -84 0 0 1 2 0 1 0 1
0 64 -27 -84 0 0 1 2 0 1 0 1
0 64 -17 -84 0 0 1 2 0 1 0 1
phys
0 42 -27 -84 0 0 1 2 0 1 0 1
0 64 -17 -84 0 0 1 2 0 1 0 1
0 42 -17 -84 0 0 1 2 0 1 0 1
phys
0 64 -27 -67 0 0 1 3 0 1 0 1
0 64 -27 68 0 0 1 3 0 1 0 1
0 -64.64 -27 68 0 0 1 3 0 1 0 1
phys
0 64 -27 -67 0 0 1 3 0 1 0 1
0 -64.64 -27 68 0 0 1 3 0 1 0 1
0 -64.64 -27 -67 0 0 1 3 0 1 0 1
phys
0 64 27 68 0 0 1 3 0 1 0 1
0 64 27 -67 0 0 1 3 0 1 0 1
0 -64.64 27 -67 0 0 1 3 0 1 0 1
phys
0 64 27 68 0 0 1 3 0 1 0 1
0 -64.64 27 -67 0 0 1 3 0 1 0 1
0 -64.64 27 68 0 0 1 3 0 1 0 1
phys
0 64 -27 68 0 0 1 3 0 1 0 1
0 64 -27 -67 0 0 1 3 0 1 0 1
0 64 27 -67 0 0 1 3 0 1 0 1
phys
0 64 -27 68 0 0 1 3 0 1 0 1
0 64 27 -67 0 0 1 3 0 1 0 1
0 64 27 68 0 0 1 3 0 1 0 1
phys
0 -64.64 -27 -67 0 0 1 3 0 1 0 1
0 -64.64 -27 68 0 0 1 3 0 1 0 1
0 -64.64 27 68 0 0 1 3 0 1 0 1
phys
0 -64.64 -27 -67 0 0 1 3 0 1 0 1
0 -64.64 27 68 0 0 1 3 0 1 0 1
0 -64.64 27 -67 0 0 1 3 0 1 0 1
phys
0 64 -27 -67 0 0 1 3 0 1 0 1
0 -64.64 -27 -67 0 0 1 3 0 1 0 1
0 -64.64 27 -67 0 0 1 3 0 1 0 1
phys
0 64 -27 -67 0 0 1 3 0 1 0 1
0 -64.64 27 -67 0 0 1 3 0 1 0 1
0 64 27 -67 0 0 1 3 0 1 0 1
phys
0 -64.64 -27 68 0 0 1 3 0 1 0 1
0 64 -27 68 0 0 1 3 0 1 0 1
0 64 27 68 0 0 1 3 0 1 0 1
phys
0 -64.64 -27 68 0 0 1 3 0 1 0 1
0 64 27 68 0 0 1 3 0 1 0 1
0 -64.64 27 68 0 0 1 3 0 1 0 1
phys
0 64 -27 -72 0 0 1 4 0 1 0 1
0 64 -27 -67 0 0 1 4 0 1 0 1
0 -64.64 -27 -67 0 0 1 4 0 1 0 1
phys
0 64 -27 -72 0 0 1 4 0 1 0 1
0 -64.64 -27 -67 0 0 1 4 0 1 0 1
0 -64.64 -27 -72 0 0 1 4 0 1 0 1
phys
0 64 -1 -67 0 0 1 4 0 1 0 1
0 64 -1 -72 0 0 1 4 0 1 0 1
0 -64.64 -1 -72 0 0 1 4 0 1 0 1
phys
0 64 -1 -67 0 0 1 4 0 1 0 1
0 -64.64 -1 -72 0 0 1 4 0 1 0 1
0 -64.64 -1 -67 0 0 1 4 0 1 0 1
phys
0 64 -27 -67 0 0 1 4 0 1 0 1
0 64 -27 -72 0 0 1 4 0 1 0 1
0 64 -1 -72 0 0 1 4 0 1 0 1
phys
0 64 -27 -67 0 0 1 4 0 1 0 1
0 64 -1 -72 0 0 1 4 0 1 0 1
0 64 -1 -67 0 0 1 4 0 1 0 1
phys
0 -64.64 -27 -72 0 0 1 4 0 1 0 1
0 -64.64 -27 -67 0 0 1 4 0 1 0 1
0 -64.64 -1 -67 0 0 1 4 0 1 0 1
phys
0 -64.64 -27 -72 0 0 1 4 0 1 0 1
0 -64.64 -1 -67 0 0 1 4 0 1 0 1
0 -64.64 -1 -72 0 0 1 4 0 1 0 1
phys
0 64 -27 -72 0 0 1 4 0 1 0 1
0 -64.64 -27 -72 0 0 1 4 0 1 0 1
0 -64.64 -1 -72 0 0 1 4 0 1 0 1
phys
0 64 -27 -72 0 0 1 4 0 1 0 1
0 -64.64 -1 -72 0 0 1 4 0 1 0 1
0 64 -1 -72 0 0 1 4 0 1 0 1
phys
0 -64.64 -27 -67 0 0 1 4 0 1 0 1
0 64 -27 -67 0 0 1 4 0 1 0 1
0 64 -1 -67 0 0 1 4 0 1 0 1
phys
0 -64.64 -27 -67 0 0 1 4 0 1 0 1
0 64 -1 -67 0 0 1 4 0 1 0 1
0 -64.64 -1 -67 0 0 1 4 0 1 0 1
phys
0 39.44 -27 -138 0 0 1 5 0 1 0 1
0 39.44 -27 -89 0 0 1 5 0 1 0 1
0 -35.44 -27 -89 0 0 1 5 0 1 0 1
phys
0 39.44 -27 -138 0 0 1 5 0 1 0 1
0 -35.44 -27 -89 0 0 1 5 0 1 0 1
0 -35.44 -27 -138 0 0 1 5 0 1 0 1
phys
0 39.44 -17 -89 0 0 1 5 0 1 0 1
0 39.44 -17 -138 0 0 1 5 0 1 0 1
0 -35.44 -17 -138 0 0 1 5 0 1 0 1
phys
0 39.44 -17 -89 0 0 1 5 0 1 0 1
0 -35.44 -17 -138 0 0 1 5 0 1 0 1
0 -35.44 -17 -89 0 0 1 5 0 1 0 1
phys
0 39.44 -27 -89 0 0 1 5 0 1 0 1
0 39.44 -27 -138 0 0 1 5 0 1 0 1
0 39.44 -17 -138 0 0 1 5 0 1 0 1
phys
0 39.44 -27 -89 0 0 1 5 0 1 0 1
0 39.44 -17 -138 0 0 1 5 0 1 0 1
0 39.44 -17 -89 0 0 1 5 0 1 0 1
phys
0 -35.44 -27 -138 0 0 1 5 0 1 0 1
0 -35.44 -27 -89 0 0 1 5 0 1 0 1
0 -35.44 -17 -89 0 0 1 5 0 1 0 1
phys
0 -35.44 -27 -138 0 0 1 5 0 1 0 1
0 -35.44 -17 -89 0 0 1 5 0 1 0 1
0 -35.44 -17 -138 0 0 1 5 0 1 0 1
phys
0 39.44 -27 -138 0 0 1 5 0 1 0 1
0 -35.44 -27 -138 0 0 1 5 0 1 0 1
0 -35.44 -17 -138 0 0 1 5 0 1 0 1
phys
0 39.44 -27 -138 0 0 1 5 0 1 0 1
0 -35.44 -17 -138 0 0 1 5 0 1 0 1
0 39.44 -17 -138 0 0 1 5 0 1 0 1
phys
0 -35.44 -27 -89 0 0 1 5 0 1 0 1
0 39.44 -27 -89 0 0 1 5 0 1 0 1
0 39.44 -17 -89 0 0 1 5 0 1 0 1
phys
0 -35.44 -27 -89 0 0 1 5 0 1 0 1
0 39.44 -17 -89 0 0 1 5 0 1 0 1
0 -35.44 -17 -89 0 0 1 5 0 1 0 1
phys
0 64 -27 -163 0 0 1 6 0 1 0 1
0 64 -27 -143 0 0 1 6 0 1 0 1
0 -64.64 -27 -143 0 0 1 6 0 1 0 1
phys
0 64 -27 -163 0 0 1 6 0 1 0 1
0 -64.64 -27 -143 0 0 1 6 0 1 0 1
0 -64.64 -27 -163 0 0 1 6 0 1 0 1
phys
0 64 27 -143 0 0 1 6 0 1 0 1
0 64 27 -163 0 0 1 6 0 1 0 1
0 -64.64 27 -163 0 0 1 6 0 1 0 1
phys
0 64 27 -143 0 0 1 6 0 1 0 1
0 -64.64 27 -163 0 0 1 6 0 1 0 1
0 -64.64 27 -143 0 0 1 6 0 1 0 1
phys
0 64 -27 -143 0 0 1 6 0 1 0 1
0 64 -27 -163 0 0 1 6 0 1 0 1
0 64 27 -163 0 0 1 6 0 1 0 1
phys
0 64 -27 -143 0 0 1 6 0 1 0 1
0 64 27 -163 0 0 1 6 0 1 0 1
0 64 27 -143 0 0 1 6 0 1 0 1
phys
0 -64.64 -27 -163 0 0 1 6 0 1 0 1
0 -64.64 -27 -143 0 0 1 6 0 1 0 1
0 -64.64 27 -143 0 0 1 6 0 1 0 1
phys
0 -64.64 -27 -163 0 0 1 6 0 1 0 1
0 -64.64 27 -143 0 0 1 6 0 1 0 1
0 -64.64 27 -163 0 0 1 6 0 1 0 1
phys
0 64 -27 -163 0 0 1 6 0 1 0 1
0 -64.64 -27 -163 0 0 1 6 0 1 0 1
0 -64.64 27 -163 0 0 1 6 0 1 0 1
phys
0 64 -27 -163 0 0 1 6 0 1 0 1
0 -64.64 27 -163 0 0 1 6 0 1 0 1
0 64 27 -163 0 0 1 6 0 1 0 1
phys
0 -64.64 -27 -143 0 0 1 6 0 1 0 1
0 64 -27 -143 0 0 1 6 0 1 0 1
0 64 27 -143 0 0 1 6 0 1 0 1
phys
0 -64.64 -27 -143 0 0 1 6 0 1 0 1
0 64 27 -143 0 0 1 6 0 1 0 1
0 -64.64 27 -143 0 0 1 6 0 1 0 1
phys
0 39.44 -27 -138 0 0 1 7 0 1 0 1
0 -35.44 -27 -138 0 0 1 7 0 1 0 1
0 -38 -27 -143 0 0 1 7 0 1 0 1
phys
0 39.44 -27 -138 0 0 1 7 0 1 0 1
0 -38 -27 -143 0 0 1 7 0 1 0 1
0 42 -27 -143 0 0 1 7 0 1 0 1
phys
0 42 -17 -143 0 0 1 7 0 1 0 1
0 -38 -17 -143 0 0 1 7 0 1 0 1
0 -35.44 -17 -138 0 0 1 7 0 1 0 1
phys
0 42 -17 -143 0 0 1 7 0 1 0 1
0 -35.44 -17 -138 0 0 1 7 0 1 0 1
0 39.44 -17 -138 0 0 1 7 0 1 0 1
phys
0 42 -27 -143 0 0 1 7 0 1 0 1
0 -38 -27 -143 0 0 1 7 0 1 0 1
0 -38 -17 -143 0 0 1 7 0 1 0 1
phys
0 42 -27 -143 0 0 1 7 0 1 0 1
0 -38 -17 -143 0 0 1 7 0 1 0 1
0 42 -17 -143 0 0 1 7 0 1 0 1
phys
0 -35.44 -27 -138 0 0 1 7 0 1 0 1
0 39.44 -27 -138 0 0 1 7 0 1 0 1
0 39.44 -17 -138 0 0 1 7 0 1 0 1
phys
0 -35.44 -27 -138 0 0 1 7 0 1 0 1
0 39.44 -17 -138 0 0 1 7 0 1 0 1
0 -35.44 -17 -138 0 0 1 7 0 1 0 1
phys
0 -38 -27 -143 0 0 1 7 0 1 0 1
0 -35.44 -27 -138 0 0 1 7 0 1 0 1
0 -35.44 -17 -138 0 0 1 7 0 1 0 1
phys
0 -38 -27 -143 0 0 1 7 0 1 0 1
0 -35.44 -17 -138 0 0 1 7 0 1 0 1
0 -38 -17 -143 0 0 1 7 0 1 0 1
phys
0 39.44 -27 -138 0 0 1 7 0 1 0 1
0 42 -27 -143 0 0 1 7 0 1 0 1
0 42 -17 -143 0 0 1 7 0 1 0 1
phys
0 39.44 -27 -138 0 0 1 7 0 1 0 1
0 42 -17 -143 0 0 1 7 0 1 0 1
0 39.44 -17 -138 0 0 1 7 0 1 0 1
phys
0 -38 -17 -84 0 0 1 8 0 1 0 1
0 -35.44 -17 -89 0 0 1 8 0 1 0 1
0 -35.44 -27 -89 0 0 1 8 0 1 0 1
phys
0 -38 -17 -84 0 0 1 8 0 1 0 1
0 -35.44 -27 -89 0 0 1 8 0 1 0 1
0 -38 -27 -84 0 0 1 8 0 1 0 1
phys
0 42 -27 -84 0 0 1 8 0 1 0 1
0 39.44 -27 -89 0 0 1 8 0 1 0 1
0 39.44 -17 -89 0 0 1 8 0 1 0 1
phys
0 42 -27 -84 0 0 1 8 0 1 0 1
0 39.44 -17 -89 0 0 1 8 0 1 0 1
0 42 -17 -84 0 0 1 8 0 1 0 1
phys
0 -38 -27 -84 0 0 1 8 0 1 0 1
0 -35.44 -27 -89 0 0 1 8 0 1 0 1
0 39.44 -27 -89 0 0 1 8 0 1 0 1
phys
0 -38 -27 -84 0 0 1 8 0 1 0 1
0 39.44 -27 -89 0 0 1 8 0 1 0 1
0 42 -27 -84 0 0 1 8 0 1 0 1
phys
0 42 -17 -84 0 0 1 8 0 1 0 1
0 39.44 -17 -89 0 0 1 8 0 1 0 1
0 -35.44 -17 -89 0 0 1 8 0 1 0 1
phys
0 42 -17 -84 0 0 1 8 0 1 0 1
0 -35.44 -17 -89 0 0 1 8 0 1 0 1
0 -38 -17 -84 0 0 1 8 0 1 0 1
phys
0 -35.44 -27 -89 0 0 1 8 0 1 0 1
0 -35.44 -17 -89 0 0 1 8 0 1 0 1
0 39.44 -17 -89 0 0 1 8 0 1 0 1
phys
0 -35.44 -27 -89 0 0 1 8 0 1 0 1
0 39.44 -17 -89 0 0 1 8 0 1 0 1
0 39.44 -27 -89 0 0 1 8 0 1 0 1
phys
0 42 -27 -84 0 0 1 8 0 1 0 1
0 42 -17 -84 0 0 1 8 0 1 0 1
0 -38 -17 -84 0 0 1 8 0 1 0 1
phys
0 42 -27 -84 0 0 1 8 0 1 0 1
0 -38 -17 -84 0 0 1 8 0 1 0 1
0 -38 -27 -84 0 0 1 8 0 1 0 1
phys
0 64 -27 -84 0 0 1 9 0 1 0 1
0 -64.64 -27 -84 0 0 1 9 0 1 0 1
0 -64.64 -17 -84 0 0 1 9 0 1 0 1
phys
0 64 -27 -84 0 0 1 9 0 1 0 1
0 -64.64 -17 -84 0 0 1 9 0 1 0 1
0 64 -17 -84 0 0 1 9 0 1 0 1
phys
0 -64.64 -27 -72 0 0 1 9 0 1 0 1
0 64 -27 -72 0 0 1 9 0 1 0 1
0 64 -17 -72 0 0 1 9 0 1 0 1
phys
0 -64.64 -27 -72 0 0 1 9 0 1 0 1
0 64 -17 -72 0 0 1 9 0 1 0 1
0 -64.64 -17 -72 0 0 1 9 0 1 0 1
phys
0 64 -27 -72 0 0 1 9 0 1 0 1
0 -64.64 -27 -72 0 0 1 9 0 1 0 1
0 -64.64 -27 -84 0 0 1 9 0 1 0 1
phys
0 64 -27 -72 0 0 1 9 0 1 0 1
0 -64.64 -27 -84 0 0 1 9 0 1 0 1
0 64 -27 -84 0 0 1 9 0 1 0 1
phys
0 64 -17 -84 0 0 1 9 0 1 0 1
0 -64.64 -17 -84 0 0 1 9 0 1 0 1
0 -64.64 -17 -72 0 0 1 9 0 1 0 1
phys
0 64 -17 -84 0 0 1 9 0 1 0 1
0 -64.64 -17 -72 0 0 1 9 0 1 0 1
0 64 -17 -72 0 0 1 9 0 1 0 1
phys
0 64 -27 -84 0 0 1 9 0 1 0 1
0 64 -17 -84 0 0 1 9 0 1 0 1
0 64 -17 -72 0 0 1 9 0 1 0 1
phys
0 64 -27 -84 0 0 1 9 0 1 0 1
0 64 -17 -72 0 0 1 9 0 1 0 1
0 64 -27 -72 0 0 1 9 0 1 0 1
phys
0 -64.64 -27 -72 0 0 1 9 0 1 0 1
0 -64.64 -17 -72 0 0 1 9 0 1 0 1
0 -64.64 -17 -84 0 0 1 9 0 1 0 1
phys
0 -64.64 -27 -72 0 0 1 9 0 1 0 1
0 -64.64 -17 -84 0 0 1 9 0 1 0 1
0 -64.64 -27 -84 0 0 1 9 0 1 0 1
phys
0 -38 -17 -143 0 0 1 10 0 1 0 1
0 -33 -17 -138 0 0 1 10 0 1 0 1
0 -33 -27 -138 0 0 1 10 0 1 0 1
phys
0 -38 -17 -143 0 0 1 10 0 1 0 1
0 -33 -27 -138 0 0 1 10 0 1 0 1
0 -38 -27 -143 0 0 1 10 0 1 0 1
phys
0 -38 -27 -84 0 0 1 10 0 1 0 1
0 -33 -27 -89 0 0 1 10 0 1 0 1
0 -33 -17 -89 0 0 1 10 0 1 0 1
phys
0 -38 -27 -84 0 0 1 10 0 1 0 1
0 -33 -17 -89 0 0 1 10 0 1 0 1
0 -38 -17 -84 0 0 1 10 0 1 0 1
phys
0 -38 -27 -143 0 0 1 10 0 1 0 1
0 -33 -27 -138 0 0 1 10 0 1 0 1
0 -33 -27 -89 0 0 1 10 0 1 0 1
phys
0 -38 -27 -143 0 0 1 10 0 1 0 1
0 -33 -27 -89 0 0 1 10 0 1 0 1
0 -38 -27 -84 0 0 1 10 0 1 0 1
phys
0 -38 -17 -84 0 0 1 10 0 1 0 1
0 -33 -17 -89 0 0 1 10 0 1 0 1
0 -33 -17 -138 0 0 1 10 0 1 0 1
phys
0 -38 -17 -84 0 0 1 10 0 1 0 1
0 -33 -17 -138 0 0 1 10 0 1 0 1
0 -38 -17 -143 0 0 1 10 0 1 0 1
phys
0 -33 -27 -138 0 0 1 10 0 1 0 1
0 -33 -17 -138 0 0 1 10 0 1 0 1
0 -33 -17 -89 0 0 1 10 0 1 0 1
phys
0 -33 -27 -138 0 0 1 10 0 1 0 1
0 -33 -17 -89 0 0 1 10 0 1 0 1
0 -33 -27 -89 0 0 1 10 0 1 0 1
phys
0 -38 -27 -84 0 0 1 10 0 1 0 1
0 -38 -17 -84 0 0 1 10 0 1 0 1
0 -38 -17 -143 0 0 1 10 0 1 0 1
phys
0 -38 -27 -84 0 0 1 10 0 1 0 1
0 -38 -17 -143 0 0 1 10 0 1 0 1
0 -38 -27 -143 0 0 1 10 0 1 0 1
phys
0 42 -27 -143 0 0 1 11 0 1 0 1
0 42 -27 -84 0 0 1 11 0 1 0 1
0 39.44 -27 -89 0 0 1 11 0 1 0 1
phys
0 42 -27 -143 0 0 1 11 0 1 0 1
0 39.44 -27 -89 0 0 1 11 0 1 0 1
0 39.44 -27 -138 0 0 1 11 0 1 0 1
phys
0 42 -17 -84 0 0 1 11 0 1 0 1
0 42 -17 -143 0 0 1 11 0 1 0 1
0 39.44 -17 -138 0 0 1 11 0 1 0 1
phys
0 42 -17 -84 0 0 1 11 0 1 0 1
0 39.44 -17 -138 0 0 1 11 0 1 0 1
0 39.44 -17 -89 0 0 1 11 0 1 0 1
phys
0 42 -27 -84 0 0 1 11 0 1 0 1
0 42 -27 -143 0 0 1 11 0 1 0 1
0 42 -17 -143 0 0 1 11 0 1 0 1
phys
0 42 -27 -84 0 0 1 11 0 1 0 1
0 42 -17 -143 0 0 1 11 0 1 0 1
0 42 -17 -84 0 0 1 11 0 1 0 1
phys
0 39.44 -27 -138 0 0 1 11 0 1 0 1
0 39.44 -27 -89 0 0 1 11 0 1 0 1
0 39.44 -17 -89 0 0 1 11 0 1 0 1
phys
0 39.44 -27 -138 0 0 1 11 0 1 0 1
0 39.44 -17 -89 0 0 1 11 0 1 0 1
0 39.44 -17 -138 0 0 1 11 0 1 0 1
phys
0 42 -27 -143 0 0 1 11 0 1 0 1
0 39.44 -27 -138 0 0 1 11 0 1 0 1
0 39.44 -17 -138 0 0 1 11 0 1 0 1
phys
0 42 -27 -143 0 0 1 11 0 1 0 1
0 39.44 -17 -138 0 0 1 11 0 1 0 1
0 42 -17 -143 0 0 1 11 0 1 0 1
phys
0 39.44 -27 -89 0 0 1 11 0 1 0 1
0 42 -27 -84 0 0 1 11 0 1 0 1
0 42 -17 -84 0 0 1 11 0 1 0 1
phys
0 39.44 -27 -89 0 0 1 11 0 1 0 1
0 42 -17 -84 0 0 1 11 0 1 0 1
0 39.44 -17 -89 0 0 1 11 0 1 0 1
phys
0 74 -27 -163 0 0 1 12 0 1 0 1
0 74 -27 68 0 0 1 12 0 1 0 1
0 64 -27 68 0 0 1 12 0 1 0 1
phys
0 74 -27 -163 0 0 1 12 0 1 0 1
0 64 -27 68 0 0 1 12 0 1 0 1
0 64 -27 -163 0 0 1 12 0 1 0 1
phys
0 74 27 68 0 0 1 12 0 1 0 1
0 74 27 -163 0 0 1 12 0 1 0 1
0 64 27 -163 0 0 1 12 0 1 0 1
phys
0 74 27 68 0 0 1 12 0 1 0 1
0 64 27 -163 0 0 1 12 0 1 0 1
0 64 27 68 0 0 1 12 0 1 0 1
phys
0 74 -27 68 0 0 1 12 0 1 0 1
0 74 -27 -163 0 0 1 12 0 1 0 1
0 74 27 -163 0 0 1 12 0 1 0 1
phys
0 74 -27 68 0 0 1 12 0 1 0 1
0 74 27 -163 0 0 1 12 0 1 0 1
0 74 27 68 0 0 1 12 0 1 0 1
phys
0 64 -27 -163 0 0 1 12 0 1 0 1
0 64 -27 68 0 0 1 12 0 1 0 1
0 64 27 68 0 0 1 12 0 1 0 1
phys
0 64 -27 -163 0 0 1 12 0 1 0 1
0 64 27 68 0 0 1 12 0 1 0 1
0 64 27 -163 0 0 1 12 0 1 0 1
phys
0 74 -27 -163 0 0 1 12 0 1 0 1
0 64 -27 -163 0 0 1 12 0 1 0 1
0 64 27 -163 0 0 1 12 0 1 0 1
phys
0 74 -27 -163 0 0 1 12 0 1 0 1
0 64 27 -163 0 0 1 12 0 1 0 1
0 74 27 -163 0 0 1 12 0 1 0 1
phys
0 64 -27 68 0 0 1 12 0 1 0 1
0 74 -27 68 0 0 1 12 0 1 0 1
0 74 27 68 0 0 1 12 0 1 0 1
phys
0 64 -27 68 0 0 1 12 0 1 0 1
0 74 27 68 0 0 1 12 0 1 0 1
0 64 27 68 0 0 1 12 0 1 0 1
phys
0 105 -83 -166 0 0 1 13 0 1 0 1
0 -102 -83 -166 0 0 1 13 0 1 0 1
0 -102 37 -166 0 0 1 13 0 1 0 1
phys
0 105 -83 -166 0 0 1 13 0 1 0 1
0 -102 37 -166 0 0 1 13 0 1 0 1
0 105 37 -166 0 0 1 13 0 1 0 1
phys
0 -102 -83 -163 0 0 1 13 0 1 0 1
0 105 -83 -163 0 0 1 13 0 1 0 1
0 105 37 -163 0 0 1 13 0 1 0 1
phys
0 -102 -83 -163 0 0 1 13 0 1 0 1
0 105 37 -163 0 0 1 13 0 1 0 1
0 -102 37 -163 0 0 1 13 0 1 0 1
phys
0 105 -83 -163 0 0 1 13 0 1 0 1
0 -102 -83 -163 0 0 1 13 0 1 0 1
0 -102 -83 -166 0 0 1 13 0 1 0 1
phys
0 105 -83 -163 0 0 1 13 0 1 0 1
0 -102 -83 -166 0 0 1 13 0 1 0 1
0 105 -83 -166 0 0 1 13 0 1 0 1
phys
0 105 37 -166 0 0 1 13 0 1 0 1
0 -102 37 -166 0 0 1 13 0 1 0 1
0 -102 37 -163 0 0 1 13 0 1 0 1
phys
0 105 37 -166 0 0 1 13 0 1 0 1
0 -102 37 -163 0 0 1 13 0 1 0 1
0 105 37 -163 0 0 1 13 0 1 0 1
phys
0 105 -83 -166 0 0 1 13 0 1 0 1
0 105 37 -166 0 0 1 13 0 1 0 1
0 105 37 -163 0 0 1 13 0 1 0 1
phys
0 105 -83 -166 0 0 1 13 0 1 0 1
0 105 37 -163 0 0 1 13 0 1 0 1
0 105 -83 -163 0 0 1 13 0 1 0 1
phys
0 -102 -83 -163 0 0 1 13 0 1 0 1
0 -102 37 -163 0 0 1 13 0 1 0 1
0 -102 37 -166 0 0 1 13 0 1 0 1
phys
0 -102 -83 -163 0 0 1 13 0 1 0 1
0 -102 37 -166 0 0 1 13 0 1 0 1
0 -102 -83 -166 0 0 1 13 0 1 0 1
phys
0 56 -1 -143 0 0 1 14 0 1 0 1
0 56 -1 -140 0 0 1 14 0 1 0 1
0 -46 -1 -140 0 0 1 14 0 1 0 1
phys
0 56 -1 -143 0 0 1 14 0 1 0 1
0 -46 -1 -140 0 0 1 14 0 1 0 1
0 -46 -1 -143 0 0 1 14 0 1 0 1
phys
0 56 20 -140 0 0 1 14 0 1 0 1
0 56 20 -143 0 0 1 14 0 1 0 1
0 -46 20 -143 0 0 1 14 0 1 0 1
phys
0 56 20 -140 0 0 1 14 0 1 0 1
0 -46 20 -143 0 0 1 14 0 1 0 1
0 -46 20 -140 0 0 1 14 0 1 0 1
phys
0 56 -1 -140 0 0 1 14 0 1 0 1
0 56 -1 -143 0 0 1 14 0 1 0 1
0 56 20 -143 0 0 1 14 0 1 0 1
phys
0 56 -1 -140 0 0 1 14 0 1 0 1
0 56 20 -143 0 0 1 14 0 1 0 1
0 56 20 -140 0 0 1 14 0 1 0 1
phys
0 56 -1 -140 0 0 1 14 0 1 0 1
0 56 20 -140 0 0 1 14 0 1 0 1
0 56 18 -138 0 0 1 14 0 1 0 1
phys
0 56 -1 -140 0 0 1 14 0 1 0 1
0 56 18 -138 0 0 1 14 0 1 0 1
0 56 1 -138 0 0 1 14 0 1 0 1
phys
0 -46 -1 -143 0 0 1 14 0 1 0 1
0 -46 -1 -140 0 0 1 14 0 1 0 1
0 -46 1 -138 0 0 1 14 0 1 0 1
phys
0 -46 -1 -143 0 0 1 14 0 1 0 1
0 -46 1 -138 0 0 1 14 0 1 0 1
0 -46 18 -138 0 0 1 14 0 1 0 1
phys
0 -46 -1 -143 0 0 1 14 0 1 0 1
0 -46 18 -138 0 0 1 14 0 1 0 1
0 -46 20 -140 0 0 1 14 0 1 0 1
phys
0 -46 -1 -143 0 0 1 14 0 1 0 1
0 -46 20 -140 0 0 1 14 0 1 0 1
0 -46 20 -143 0 0 1 14 0 1 0 1
phys
0 56 -1 -143 0 0 1 14 0 1 0 1
0 -46 -1 -143 0 0 1 14 0 1 0 1
0 -46 20 -143 0 0 1 14 0 1 0 1
phys
0 56 -1 -143 0 0 1 14 0 1 0 1
0 -46 20 -143 0 0 1 14 0 1 0 1
0 56 20 -143 0 0 1 14 0 1 0 1
phys
0 56 1 -138 0 0 1 14 0 1 0 1
0 56 18 -138 0 0 1 14 0 1 0 1
0 -46 18 -138 0 0 1 14 0 1 0 1
phys
0 56 1 -138 0 0 1 14 0 1 0 1
0 -46 18 -138 0 0 1 14 0 1 0 1
0 -46 1 -138 0 0 1 14 0 1 0 1
phys
0 56 18 -138 0 0 1 14 0 1 0 1
0 56 20 -140 0 0 1 14 0 1 0 1
0 -46 20 -140 0 0 1 14 0 1 0 1
phys
0 56 18 -138 0 0 1 14 0 1 0 1
0 -46 20 -140 0 0 1 14 0 1 0 1
0 -46 18 -138 0 0 1 14 0 1 0 1
phys
0 -46 -1 -140 0 0 1 14 0 1 0 1
0 56 -1 -140 0 0 1 14 0 1 0 1
0 56 1 -138 0 0 1 14 0 1 0 1
phys
0 -46 -1 -140 0 0 1 14 0 1 0 1
0 56 1 -138 0 0 1 14 0 1 0 1
0 -46 1 -138 0 0 1 14 0 1 0 1
phys
0 43 -1 -72 0 0 1 15 0 1 0 1
0 -56 -1 -72 0 0 1 15 0 1 0 1
0 -56 20 -72 0 0 1 15 0 1 0 1
phys
0 43 -1 -72 0 0 1 15 0 1 0 1
0 -56 20 -72 0 0 1 15 0 1 0 1
0 43 20 -72 0 0 1 15 0 1 0 1
phys
0 -56 -1 -67 0 0 1 15 0 1 0 1
0 43 -1 -67 0 0 1 15 0 1 0 1
0 43 20 -67 0 0 1 15 0 1 0 1
phys
0 -56 -1 -67 0 0 1 15 0 1 0 1
0 43 20 -67 0 0 1 15 0 1 0 1
0 -56 20 -67 0 0 1 15 0 1 0 1
phys
0 43 -1 -67 0 0 1 15 0 1 0 1
0 -56 -1 -67 0 0 1 15 0 1 0 1
0 -56 -1 -72 0 0 1 15 0 1 0 1
phys
0 43 -1 -67 0 0 1 15 0 1 0 1
0 -56 -1 -72 0 0 1 15 0 1 0 1
0 43 -1 -72 0 0 1 15 0 1 0 1
phys
0 43 20 -72 0 0 1 15 0 1 0 1
0 -56 20 -72 0 0 1 15 0 1 0 1
0 -56 20 -67 0 0 1 15 0 1 0 1
phys
0 43 20 -72 0 0 1 15 0 1 0 1
0 -56 20 -67 0 0 1 15 0 1 0 1
0 43 20 -67 0 0 1 15 0 1 0 1
phys
0 43 -1 -72 0 0 1 15 0 1 0 1
0 43 20 -72 0 0 1 15 0 1 0 1
0 43 20 -67 0 0 1 15 0 1 0 1
phys
0 43 -1 -72 0 0 1 15 0 1 0 1
0 43 20 -67 0 0 1 15 0 1 0 1
0 43 -1 -67 0 0 1 15 0 1 0 1
phys
0 -56 -1 -67 0 0 1 15 0 1 0 1
0 -56 20 -67 0 0 1 15 0 1 0 1
0 -56 20 -72 0 0 1 15 0 1 0 1
phys
0 -56 -1 -67 0 0 1 15 0 1 0 1
0 -56 20 -72 0 0 1 15 0 1 0 1
0 -56 -1 -72 0 0 1 15 0 1 0 1
phys
0 43 20 -72 0 0 1 16 0 1 0 1
0 43 20 -67 0 0 1 16 0 1 0 1
0 -60 20 -67 0 0 1 16 0 1 0 1
phys
0 43 20 -72 0 0 1 16 0 1 0 1
0 -60 20 -67 0 0 1 16 0 1 0 1
0 -60 20 -72 0 0 1 16 0 1 0 1
phys
0 43 27 -67 0 0 1 16 0 1 0 1
0 43 27 -72 0 0 1 16 0 1 0 1
0 -60 27 -72 0 0 1 16 0 1 0 1
phys
0 43 27 -67 0 0 1 16 0 1 0 1
0 -60 27 -72 0 0 1 16 0 1 0 1
0 -60 27 -67 0 0 1 16 0 1 0 1
phys
0 43 20 -67 0 0 1 16 0 1 0 1
0 43 20 -72 0 0 1 16 0 1 0 1
0 43 27 -72 0 0 1 16 0 1 0 1
phys
0 43 20 -67 0 0 1 16 0 1 0 1
0 43 27 -72 0 0 1 16 0 1 0 1
0 43 27 -67 0 0 1 16 0 1 0 1
phys
0 -60 20 -72 0 0 1 16 0 1 0 1
0 -60 20 -67 0 0 1 16 0 1 0 1
0 -60 27 -67 0 0 1 16 0 1 0 1
phys
0 -60 20 -72 0 0 1 16 0 1 0 1
0 -60 27 -67 0 0 1 16 0 1 0 1
0 -60 27 -72 0 0 1 16 0 1 0 1
phys
0 43 20 -72 0 0 1 16 0 1 0 1
0 -60 20 -72 0 0 1 16 0 1 0 1
0 -60 27 -72 0 0 1 16 0 1 0 1
phys
0 43 20 -72 0 0 1 16 0 1 0 1
0 -60 27 -72 0 0 1 16 0 1 0 1
0 43 27 -72 0 0 1 16 0 1 0 1
phys
0 -60 20 -67 0 0 1 16 0 1 0 1
0 43 20 -67 0 0 1 16 0 1 0 1
0 43 27 -67 0 0 1 16 0 1 0 1
phys
0 -60 20 -67 0 0 1 16 0 1 0 1
0 43 27 -67 0 0 1 16 0 1 0 1
0 -60 27 -67 0 0 1 16 0 1 0 1
phys
0 73 27 -163 0 0 1 17 0 1 0 1
0 73 27 68 0 0 1 17 0 1 0 1
0 -70 27 68 0 0 1 17 0 1 0 1
phys
0 73 27 -163 0 0 1 17 0 1 0 1
0 -70 27 68 0 0 1 17 0 1 0 1
0 -70 27 -163 0 0 1 17 0 1 0 1
phys
0 73 37 68 0 0 1 17 0 1 0 1
0 73 37 -163 0 0 1 17 0 1 0 1
0 -70 37 -163 0 0 1 17 0 1 0 1
phys
0 73 37 68 0 0 1 17 0 1 0 1
0 -70 37 -163 0 0 1 17 0 1 0 1
0 -70 37 68 0 0 1 17 0 1 0 1
phys
0 73 27 68 0 0 1 17 0 1 0 1
0 73 27 -163 0 0 1 17 0 1 0 1
0 73 37 -163 0 0 1 17 0 1 0 1
phys
0 73 27 68 0 0 1 17 0 1 0 1
0 73 37 -163 0 0 1 17 0 1 0 1
0 73 37 68 0 0 1 17 0 1 0 1
phys
0 -70 27 -163 0 0 1 17 0 1 0 1
0 -70 27 68 0 0 1 17 0 1 0 1
0 -70 37 68 0 0 1 17 0 1 0 1
phys
0 -70 27 -163 0 0 1 17 0 1 0 1
0 -70 37 68 0 0 1 17 0 1 0 1
0 -70 37 -163 0 0 1 17 0 1 0 1
phys
0 73 27 -163 0 0 1 17 0 1 0 1
0 -70 27 -163 0 0 1 17 0 1 0 1
0 -70 37 -163 0 0 1 17 0 1 0 1
phys
0 73 27 -163 0 0 1 17 0 1 0 1
0 -70 37 -163 0 0 1 17 0 1 0 1
0 73 37 -163 0 0 1 17 0 1 0 1
phys
0 -70 27 68 0 0 1 17 0 1 0 1
0 73 27 68 0 0 1 17 0 1 0 1
0 73 37 68 0 0 1 17 0 1 0 1
phys
0 -70 27 68 0 0 1 17 0 1 0 1
0 73 37 68 0 0 1 17 0 1 0 1
0 -70 37 68 0 0 1 17 0 1 0 1
phys
0 372 -5 -75 0 0 1 18 0 1 0 1
0 372 -5 -87 0 0 1 18 0 1 0 1
0 371 -5 -87 0 0 1 18 0 1 0 1
phys
0 372 -5 -75 0 0 1 18 0 1 0 1
0 371 -5 -87 0 0 1 18 0 1 0 1
0 371 -5 -75 0 0 1 18 0 1 0 1
phys
0 372 -32 -87 0 0 1 18 0 1 0 1
0 372 -32 -75 0 0 1 18 0 1 0 1
0 371 -32 -75 0 0 1 18 0 1 0 1
phys
0 372 -32 -87 0 0 1 18 0 1 0 1
0 371 -32 -75 0 0 1 18 0 1 0 1
0 371 -32 -87 0 0 1 18 0 1 0 1
phys
0 371 -32 -87 0 0 1 18 0 1 0 1
0 371 -32 -75 0 0 1 18 0 1 0 1
0 371 -5 -75 0 0 1 18 0 1 0 1
phys
0 371 -32 -87 0 0 1 18 0 1 0 1
0 371 -5 -75 0 0 1 18 0 1 0 1
0 371 -5 -87 0 0 1 18 0 1 0 1
phys
0 372 -32 -75 0 0 1 18 0 1 0 1
0 372 -32 -87 0 0 1 18 0 1 0 1
0 372 -5 -87 0 0 1 18 0 1 0 1
phys
0 372 -32 -75 0 0 1 18 0 1 0 1
0 372 -5 -87 0 0 1 18 0 1 0 1
0 372 -5 -75 0 0 1 18 0 1 0 1
phys
0 372 -32 -87 0 0 1 18 0 1 0 1
0 371 -32 -87 0 0 1 18 0 1 0 1
0 371 -5 -87 0 0 1 18 0 1 0 1
phys
0 372 -32 -87 0 0 1 18 0 1 0 1
0 371 -5 -87 0 0 1 18 0 1 0 1
0 372 -5 -87 0 0 1 18 0 1 0 1
phys
0 371 -32 -75 0 0 1 18 0 1 0 1
0 372 -32 -75 0 0 1 18 0 1 0 1
0 372 -5 -75 0 0 1 18 0 1 0 1
phys
0 371 -32 -75 0 0 1 18 0 1 0 1
0 372 -5 -75 0 0 1 18 0 1 0 1
0 371 -5 -75 0 0 1 18 0 1 0 1
phys
0 -14.18 601 78 0 0 1 19 0 1 0 1
0 -14.18 601 68 0 0 1 19 0 1 0 1
0 -16.09 601 68 0 0 1 19 0 1 0 1
phys
0 -14.18 601 78 0 0 1 19 0 1 0 1
0 -16.09 601 68 0 0 1 19 0 1 0 1
0 -16.09 601 78 0 0 1 19 0 1 0 1
phys
0 -14.18 159 68 0 0 1 19 0 1 0 1
0 -14.18 159 78 0 0 1 19 0 1 0 1
0 -16.09 159 78 0 0 1 19 0 1 0 1
phys
0 -14.18 159 68 0 0 1 19 0 1 0 1
0 -16.09 159 78 0 0 1 19 0 1 0 1
0 -16.09 159 68 0 0 1 19 0 1 0 1
phys
0 -16.09 159 68 0 0 1 19 0 1 0 1
0 -16.09 159 78 0 0 1 19 0 1 0 1
0 -16.09 601 78 0 0 1 19 0 1 0 1
phys
0 -16.09 159 68 0 0 1 19 0 1 0 1
0 -16.09 601 78 0 0 1 19 0 1 0 1
0 -16.09 601 68 0 0 1 19 0 1 0 1
phys
0 -14.18 159 78 0 0 1 19 0 1 0 1
0 -14.18 159 68 0 0 1 19 0 1 0 1
0 -14.18 601 68 0 0 1 19 0 1 0 1
phys
0 -14.18 159 78 0 0 1 19 0 1 0 1
0 -14.18 601 68 0 0 1 19 0 1 0 1
0 -14.18 601 78 0 0 1 19 0 1 0 1
phys
0 -14.18 159 68 0 0 1 19 0 1 0 1
0 -16.09 159 68 0 0 1 19 0 1 0 1
0 -16.09 601 68 0 0 1 19 0 1 0 1
phys
0 -14.18 159 68 0 0 1 19 0 1 0 1
0 -16.09 601 68 0 0 1 19 0 1 0 1
0 -14.18 601 68 0 0 1 19 0 1 0 1
phys
0 -16.09 159 78 0 0 1 19 0 1 0 1
0 -14.18 159 78 0 0 1 19 0 1 0 1
0 -14.18 601 78 0 0 1 19 0 1 0 1
phys
0 -16.09 159 78 0 0 1 19 0 1 0 1
0 -14.18 601 78 0 0 1 19 0 1 0 1
0 -16.09 601 78 0 0 1 19 0 1 0 1
phys
0 137 159 68 0 0 1 20 0 1 0 1
0 137 159 78 0 0 1 20 0 1 0 1
0 135.09 159 78 0 0 1 20 0 1 0 1
phys
0 137 159 68 0 0 1 20 0 1 0 1
0 135.09 159 78 0 0 1 20 0 1 0 1
0 135.09 159 68 0 0 1 20 0 1 0 1
phys
0 135.09 159 68 0 0 1 20 0 1 0 1
0 135.09 159 78 0 0 1 20 0 1 0 1
0 135.09 601 78 0 0 1 20 0 1 0 1
phys
0 135.09 159 68 0 0 1 20 0 1 0 1
0 135.09 601 78 0 0 1 20 0 1 0 1
0 135.09 601 68 0 0 1 20 0 1 0 1
phys
0 137 159 78 0 0 1 20 0 1 0 1
0 137 159 68 0 0 1 20 0 1 0 1
0 137 601 68 0 0 1 20 0 1 0 1
phys
0 137 159 78 0 0 1 20 0 1 0 1
0 137 601 68 0 0 1 20 0 1 0 1
0 137 601 78 0 0 1 20 0 1 0 1
phys
0 137 159 68 0 0 1 20 0 1 0 1
0 135.09 159 68 0 0 1 20 0 1 0 1
0 135.09 601 68 0 0 1 20 0 1 0 1
phys
0 137 159 68 0 0 1 20 0 1 0 1
0 135.09 601 68 0 0 1 20 0 1 0 1
0 137 601 68 0 0 1 20 0 1 0 1
phys
0 135.09 159 78 0 0 1 20 0 1 0 1
0 137 159 78 0 0 1 20 0 1 0 1
0 137 601 78 0 0 1 20 0 1 0 1
phys
0 135.09 159 78 0 0 1 20 0 1 0 1
0 137 601 78 0 0 1 20 0 1 0 1
0 135.09 601 78 0 0 1 20 0 1 0 1
phys
0 137 601 78 0 0 1 20 0 1 0 1
0 137 601 68 0 0 1 20 0 1 0 1
0 135.09 601 68 0 0 1 20 0 1 0 1
phys
0 137 601 78 0 0 1 20 0 1 0 1
0 135.09 601 68 0 0 1 20 0 1 0 1
0 135.09 601 78 0 0 1 20 0 1 0 1
phys
0 98.73 601 78 0 0 1 21 0 1 0 1
0 98.73 601 68 0 0 1 21 0 1 0 1
0 96.81 601 68 0 0 1 21 0 1 0 1
phys
0 98.73 601 78 0 0 1 21 0 1 0 1
0 96.81 601 68 0 0 1 21 0 1 0 1
0 96.81 601 78 0 0 1 21 0 1 0 1
phys
0 98.73 159 68 0 0 1 21 0 1 0 1
0 98.73 159 78 0 0 1 21 0 1 0 1
0 96.81 159 78 0 0 1 21 0 1 0 1
phys
0 98.73 159 68 0 0 1 21 0 1 0 1
0 96.81 159 78 0 0 1 21 0 1 0 1
0 96.81 159 68 0 0 1 21 0 1 0 1
phys
0 96.81 159 68 0 0 1 21 0 1 0 1
0 96.81 159 78 0 0 1 21 0 1 0 1
0 96.81 601 78 0 0 1 21 0 1 0 1
phys
0 96.81 159 68 0 0 1 21 0 1 0 1
0 96.81 601 78 0 0 1 21 0 1 0 1
0 96.81 601 68 0 0 1 21 0 1 0 1
phys
0 98.73 159 78 0 0 1 21 0 1 0 1
0 98.73 159 68 0 0 1 21 0 1 0 1
0 98.73 601 68 0 0 1 21 0 1 0 1
phys
0 98.73 159 78 0 0 1 21 0 1 0 1
0 98.73 601 68 0 0 1 21 0 1 0 1
0 98.73 601 78 0 0 1 21 0 1 0 1
phys
0 98.73 159 68 0 0 1 21 0 1 0 1
0 96.81 159 68 0 0 1 21 0 1 0 1
0 96.81 601 68 0 0 1 21 0 1 0 1
phys
0 98.73 159 68 0 0 1 21 0 1 0 1
0 96.81 601 68 0 0 1 21 0 1 0 1
0 98.73 601 68 0 0 1 21 0 1 0 1
phys
0 96.81 159 78 0 0 1 21 0 1 0 1
0 98.73 159 78 0 0 1 21 0 1 0 1
0 98.73 601 78 0 0 1 21 0 1 0 1
phys
0 96.81 159 78 0 0 1 21 0 1 0 1
0 98.73 601 78 0 0 1 21 0 1 0 1
0 96.81 601 78 0 0 1 21 0 1 0 1
phys
0 177.73 601 78 0 0 1 22 0 1 0 1
0 177.73 601 68 0 0 1 22 0 1 0 1
0 175.81 601 68 0 0 1 22 0 1 0 1
phys
0 177.73 601 78 0 0 1 22 0 1 0 1
0 175.81 601 68 0 0 1 22 0 1 0 1
0 175.81 601 78 0 0 1 22 0 1 0 1
phys
0 177.73 159 68 0 0 1 22 0 1 0 1
0 177.73 159 78 0 0 1 22 0 1 0 1
0 175.81 159 78 0 0 1 22 0 1 0 1
phys
0 177.73 159 68 0 0 1 22 0 1 0 1
0 175.81 159 78 0 0 1 22 0 1 0 1
0 175.81 159 68 0 0 1 22 0 1 0 1
phys
0 175.81 159 68 0 0 1 22 0 1 0 1
0 175.81 159 78 0 0 1 22 0 1 0 1
0 175.81 601 78 0 0 1 22 0 1 0 1
phys
0 175.81 159 68 0 0 1 22 0 1 0 1
0 175.81 601 78 0 0 1 22 0 1 0 1
0 175.81 601 68 0 0 1 22 0 1 0 1
phys
0 177.73 159 78 0 0 1 22 0 1 0 1
0 177.73 159 68 0 0 1 22 0 1 0 1
0 177.73 601 68 0 0 1 22 0 1 0 1
phys
0 177.73 159 78 0 0 1 22 0 1 0 1
0 177.73 601 68 0 0 1 22 0 1 0 1
0 177.73 601 78 0 0 1 22 0 1 0 1
phys
0 177.73 159 68 0 0 1 22 0 1 0 1
0 175.81 159 68 0 0 1 22 0 1 0 1
0 175.81 601 68 0 0 1 22 0 1 0 1
phys
0 177.73 159 68 0 0 1 22 0 1 0 1
0 175.81 601 68 0 0 1 22 0 1 0 1
0 177.73 601 68 0 0 1 22 0 1 0 1
phys
0 175.81 159 78 0 0 1 22 0 1 0 1
0 177.73 159 78 0 0 1 22 0 1 0 1
0 177.73 601 78 0 0 1 22 0 1 0 1
phys
0 175.81 159 78 0 0 1 22 0 1 0 1
0 177.73 601 78 0 0 1 22 0 1 0 1
0 175.81 601 78 0 0 1 22 0 1 0 1
phys
0 58.54 159 78 0 0 1 23 0 1 0 1
0 60.45 159 78 0 0 1 23 0 1 0 1
0 60.45 601 78 0 0 1 23 0 1 0 1
phys
0 58.54 159 78 0 0 1 23 0 1 0 1
0 60.45 601 78 0 0 1 23 0 1 0 1
0 58.54 601 78 0 0 1 23 0 1 0 1
phys
0 58.54 601 68 0 0 1 23 0 1 0 1
0 58.54 601 78 0 0 1 23 0 1 0 1
0 60.45 601 78 0 0 1 23 0 1 0 1
phys
0 58.54 601 68 0 0 1 23 0 1 0 1
0 60.45 601 78 0 0 1 23 0 1 0 1
0 60.45 601 68 0 0 1 23 0 1 0 1
phys
0 60.45 159 68 0 0 1 23 0 1 0 1
0 60.45 159 78 0 0 1 23 0 1 0 1
0 58.54 159 78 0 0 1 23 0 1 0 1
phys
0 60.45 159 68 0 0 1 23 0 1 0 1
0 58.54 159 78 0 0 1 23 0 1 0 1
0 58.54 159 68 0 0 1 23 0 1 0 1
phys
0 58.54 159 68 0 0 1 23 0 1 0 1
0 58.54 159 78 0 0 1 23 0 1 0 1
0 58.54 601 78 0 0 1 23 0 1 0 1
phys
0 58.54 159 68 0 0 1 23 0 1 0 1
0 58.54 601 78 0 0 1 23 0 1 0 1
0 58.54 601 68 0 0 1 23 0 1 0 1
phys
0 60.45 601 68 0 0 1 23 0 1 0 1
0 60.45 601 78 0 0 1 23 0 1 0 1
0 60.45 159 78 0 0 1 23 0 1 0 1
phys
0 60.45 601 68 0 0 1 23 0 1 0 1
0 60.45 159 78 0 0 1 23 0 1 0 1
0 60.45 159 68 0 0 1 23 0 1 0 1
phys
0 60.45 159 68 0 0 1 23 0 1 0 1
0 58.54 159 68 0 0 1 23 0 1 0 1
0 58.54 601 68 0 0 1 23 0 1 0 1
phys
0 60.45 159 68 0 0 1 23 0 1 0 1
0 58.54 601 68 0 0 1 23 0 1 0 1
0 60.45 601 68 0 0 1 23 0 1 0 1
end
