version 1
nodes
0 "root" -1
end
skeleton
time 0
0 0 0 0 0 0 0
end
triangles
phys
0 167 49 288 0 0 1 1 0 1 0 1
0 167 49 278 0 0 1 1 0 1 0 1
0 -166 49 278 0 0 1 1 0 1 0 1
phys
0 167 49 288 0 0 1 1 0 1 0 1
0 -166 49 278 0 0 1 1 0 1 0 1
0 -166 49 288 0 0 1 1 0 1 0 1
phys
0 167 39 278 0 0 1 1 0 1 0 1
0 167 39 288 0 0 1 1 0 1 0 1
0 -166 39 288 0 0 1 1 0 1 0 1
phys
0 167 39 278 0 0 1 1 0 1 0 1
0 -166 39 288 0 0 1 1 0 1 0 1
0 -166 39 278 0 0 1 1 0 1 0 1
phys
0 -166 39 278 0 0 1 1 0 1 0 1
0 -166 39 288 0 0 1 1 0 1 0 1
0 -166 49 288 0 0 1 1 0 1 0 1
phys
0 -166 39 278 0 0 1 1 0 1 0 1
0 -166 49 288 0 0 1 1 0 1 0 1
0 -166 49 278 0 0 1 1 0 1 0 1
phys
0 167 39 288 0 0 1 1 0 1 0 1
0 167 39 278 0 0 1 1 0 1 0 1
0 167 49 278 0 0 1 1 0 1 0 1
phys
0 167 39 288 0 0 1 1 0 1 0 1
0 167 49 278 0 0 1 1 0 1 0 1
0 167 49 288 0 0 1 1 0 1 0 1
phys
0 167 39 278 0 0 1 1 0 1 0 1
0 -166 39 278 0 0 1 1 0 1 0 1
0 -166 49 278 0 0 1 1 0 1 0 1
phys
0 167 39 278 0 0 1 1 0 1 0 1
0 -166 49 278 0 0 1 1 0 1 0 1
0 167 49 278 0 0 1 1 0 1 0 1
phys
0 -166 39 288 0 0 1 1 0 1 0 1
0 167 39 288 0 0 1 1 0 1 0 1
0 167 49 288 0 0 1 1 0 1 0 1
phys
0 -166 39 288 0 0 1 1 0 1 0 1
0 167 49 288 0 0 1 1 0 1 0 1
0 -166 49 288 0 0 1 1 0 1 0 1
phys
0 -156 159 150 0 0 1 2 0 1 0 1
0 -156 159 49 0 0 1 2 0 1 0 1
0 -176 159 49 0 0 1 2 0 1 0 1
phys
0 -156 159 150 0 0 1 2 0 1 0 1
0 -176 159 49 0 0 1 2 0 1 0 1
0 -176 159 150 0 0 1 2 0 1 0 1
phys
0 -156 119 49 0 0 1 2 0 1 0 1
0 -156 119 150 0 0 1 2 0 1 0 1
0 -176 119 150 0 0 1 2 0 1 0 1
phys
0 -156 119 49 0 0 1 2 0 1 0 1
0 -176 119 150 0 0 1 2 0 1 0 1
0 -176 119 49 0 0 1 2 0 1 0 1
phys
0 -176 119 49 0 0 1 2 0 1 0 1
0 -176 119 150 0 0 1 2 0 1 0 1
0 -176 159 150 0 0 1 2 0 1 0 1
phys
0 -176 119 49 0 0 1 2 0 1 0 1
0 -176 159 150 0 0 1 2 0 1 0 1
0 -176 159 49 0 0 1 2 0 1 0 1
phys
0 -156 119 150 0 0 1 2 0 1 0 1
0 -156 119 49 0 0 1 2 0 1 0 1
0 -156 159 49 0 0 1 2 0 1 0 1
phys
0 -156 119 150 0 0 1 2 0 1 0 1
0 -156 159 49 0 0 1 2 0 1 0 1
0 -156 159 150 0 0 1 2 0 1 0 1
phys
0 -156 119 49 0 0 1 2 0 1 0 1
0 -176 119 49 0 0 1 2 0 1 0 1
0 -176 159 49 0 0 1 2 0 1 0 1
phys
0 -156 119 49 0 0 1 2 0 1 0 1
0 -176 159 49 0 0 1 2 0 1 0 1
0 -156 159 49 0 0 1 2 0 1 0 1
phys
0 -176 119 150 0 0 1 2 0 1 0 1
0 -156 119 150 0 0 1 2 0 1 0 1
0 -156 159 150 0 0 1 2 0 1 0 1
phys
0 -176 119 150 0 0 1 2 0 1 0 1
0 -156 159 150 0 0 1 2 0 1 0 1
0 -176 159 150 0 0 1 2 0 1 0 1
phys
0 -20 159 288 0 0 1 3 0 1 0 1
0 -20 159 276 0 0 1 3 0 1 0 1
0 -136 159 276 0 0 1 3 0 1 0 1
phys
0 -20 159 288 0 0 1 3 0 1 0 1
0 -136 159 276 0 0 1 3 0 1 0 1
0 -136 159 288 0 0 1 3 0 1 0 1
phys
0 -20 149 276 0 0 1 3 0 1 0 1
0 -20 149 288 0 0 1 3 0 1 0 1
0 -136 149 288 0 0 1 3 0 1 0 1
phys
0 -20 149 276 0 0 1 3 0 1 0 1
0 -136 149 288 0 0 1 3 0 1 0 1
0 -136 149 276 0 0 1 3 0 1 0 1
phys
0 -136 149 276 0 0 1 3 0 1 0 1
0 -136 149 288 0 0 1 3 0 1 0 1
0 -136 159 288 0 0 1 3 0 1 0 1
phys
0 -136 149 276 0 0 1 3 0 1 0 1
0 -136 159 288 0 0 1 3 0 1 0 1
0 -136 159 276 0 0 1 3 0 1 0 1
phys
0 -20 149 288 0 0 1 3 0 1 0 1
0 -20 149 276 0 0 1 3 0 1 0 1
0 -20 159 276 0 0 1 3 0 1 0 1
phys
0 -20 149 288 0 0 1 3 0 1 0 1
0 -20 159 276 0 0 1 3 0 1 0 1
0 -20 159 288 0 0 1 3 0 1 0 1
phys
0 -20 149 276 0 0 1 3 0 1 0 1
0 -136 149 276 0 0 1 3 0 1 0 1
0 -136 159 276 0 0 1 3 0 1 0 1
phys
0 -20 149 276 0 0 1 3 0 1 0 1
0 -136 159 276 0 0 1 3 0 1 0 1
0 -20 159 276 0 0 1 3 0 1 0 1
phys
0 -136 149 288 0 0 1 3 0 1 0 1
0 -20 149 288 0 0 1 3 0 1 0 1
0 -20 159 288 0 0 1 3 0 1 0 1
phys
0 -136 149 288 0 0 1 3 0 1 0 1
0 -20 159 288 0 0 1 3 0 1 0 1
0 -136 159 288 0 0 1 3 0 1 0 1
phys
0 -156 139 150 0 0 1 4 0 1 0 1
0 -156 159 150 0 0 1 4 0 1 0 1
0 -156 159 134 0 0 1 4 0 1 0 1
phys
0 -156 139 150 0 0 1 4 0 1 0 1
0 -156 159 134 0 0 1 4 0 1 0 1
0 -156 155 130 0 0 1 4 0 1 0 1
phys
0 -156 139 150 0 0 1 4 0 1 0 1
0 -156 155 130 0 0 1 4 0 1 0 1
0 -156 143 130 0 0 1 4 0 1 0 1
phys
0 -156 139 150 0 0 1 4 0 1 0 1
0 -156 143 130 0 0 1 4 0 1 0 1
0 -156 139 134 0 0 1 4 0 1 0 1
phys
0 157 143 130 0 0 1 4 0 1 0 1
0 157 155 130 0 0 1 4 0 1 0 1
0 157 159 134 0 0 1 4 0 1 0 1
phys
0 157 143 130 0 0 1 4 0 1 0 1
0 157 159 134 0 0 1 4 0 1 0 1
0 157 159 150 0 0 1 4 0 1 0 1
phys
0 157 143 130 0 0 1 4 0 1 0 1
0 157 159 150 0 0 1 4 0 1 0 1
0 157 139 150 0 0 1 4 0 1 0 1
phys
0 157 143 130 0 0 1 4 0 1 0 1
0 157 139 150 0 0 1 4 0 1 0 1
0 157 139 134 0 0 1 4 0 1 0 1
phys
0 -156 143 130 0 0 1 4 0 1 0 1
0 -156 155 130 0 0 1 4 0 1 0 1
0 157 155 130 0 0 1 4 0 1 0 1
phys
0 -156 143 130 0 0 1 4 0 1 0 1
0 157 155 130 0 0 1 4 0 1 0 1
0 157 143 130 0 0 1 4 0 1 0 1
phys
0 157 139 150 0 0 1 4 0 1 0 1
0 157 159 150 0 0 1 4 0 1 0 1
0 -156 159 150 0 0 1 4 0 1 0 1
phys
0 157 139 150 0 0 1 4 0 1 0 1
0 -156 159 150 0 0 1 4 0 1 0 1
0 -156 139 150 0 0 1 4 0 1 0 1
phys
0 -156 139 134 0 0 1 4 0 1 0 1
0 -156 143 130 0 0 1 4 0 1 0 1
0 157 143 130 0 0 1 4 0 1 0 1
phys
0 -156 139 134 0 0 1 4 0 1 0 1
0 157 143 130 0 0 1 4 0 1 0 1
0 157 139 134 0 0 1 4 0 1 0 1
phys
0 -156 155 130 0 0 1 4 0 1 0 1
0 -156 159 134 0 0 1 4 0 1 0 1
0 157 159 134 0 0 1 4 0 1 0 1
phys
0 -156 155 130 0 0 1 4 0 1 0 1
0 157 159 134 0 0 1 4 0 1 0 1
0 157 155 130 0 0 1 4 0 1 0 1
phys
0 157 159 150 0 0 1 4 0 1 0 1
0 157 159 134 0 0 1 4 0 1 0 1
0 -156 159 134 0 0 1 4 0 1 0 1
phys
0 157 159 150 0 0 1 4 0 1 0 1
0 -156 159 134 0 0 1 4 0 1 0 1
0 -156 159 150 0 0 1 4 0 1 0 1
phys
0 157 139 134 0 0 1 4 0 1 0 1
0 157 139 150 0 0 1 4 0 1 0 1
0 -156 139 150 0 0 1 4 0 1 0 1
phys
0 157 139 134 0 0 1 4 0 1 0 1
0 -156 139 150 0 0 1 4 0 1 0 1
0 -156 139 134 0 0 1 4 0 1 0 1
phys
0 167 159 313 0 0 1 5 0 1 0 1
0 167 159 298 0 0 1 5 0 1 0 1
0 -166 159 298 0 0 1 5 0 1 0 1
phys
0 167 159 313 0 0 1 5 0 1 0 1
0 -166 159 298 0 0 1 5 0 1 0 1
0 -166 159 313 0 0 1 5 0 1 0 1
phys
0 167 149 298 0 0 1 5 0 1 0 1
0 167 149 313 0 0 1 5 0 1 0 1
0 -166 149 313 0 0 1 5 0 1 0 1
phys
0 167 149 298 0 0 1 5 0 1 0 1
0 -166 149 313 0 0 1 5 0 1 0 1
0 -166 149 298 0 0 1 5 0 1 0 1
phys
0 -166 149 298 0 0 1 5 0 1 0 1
0 -166 149 313 0 0 1 5 0 1 0 1
0 -166 159 313 0 0 1 5 0 1 0 1
phys
0 -166 149 298 0 0 1 5 0 1 0 1
0 -166 159 313 0 0 1 5 0 1 0 1
0 -166 159 298 0 0 1 5 0 1 0 1
phys
0 167 149 313 0 0 1 5 0 1 0 1
0 167 149 298 0 0 1 5 0 1 0 1
0 167 159 298 0 0 1 5 0 1 0 1
phys
0 167 149 313 0 0 1 5 0 1 0 1
0 167 159 298 0 0 1 5 0 1 0 1
0 167 159 313 0 0 1 5 0 1 0 1
phys
0 167 149 298 0 0 1 5 0 1 0 1
0 -166 149 298 0 0 1 5 0 1 0 1
0 -166 159 298 0 0 1 5 0 1 0 1
phys
0 167 149 298 0 0 1 5 0 1 0 1
0 -166 159 298 0 0 1 5 0 1 0 1
0 167 159 298 0 0 1 5 0 1 0 1
phys
0 -166 149 313 0 0 1 5 0 1 0 1
0 167 149 313 0 0 1 5 0 1 0 1
0 167 159 313 0 0 1 5 0 1 0 1
phys
0 -166 149 313 0 0 1 5 0 1 0 1
0 167 159 313 0 0 1 5 0 1 0 1
0 -166 159 313 0 0 1 5 0 1 0 1
phys
0 -156 -153 0 0 0 1 6 0 1 0 1
0 -176 -153 0 0 0 1 6 0 1 0 1
0 -176 -133 0 0 0 1 6 0 1 0 1
phys
0 -156 -153 0 0 0 1 6 0 1 0 1
0 -176 -133 0 0 0 1 6 0 1 0 1
0 -156 -133 0 0 0 1 6 0 1 0 1
phys
0 -176 -153 150 0 0 1 6 0 1 0 1
0 -156 -153 150 0 0 1 6 0 1 0 1
0 -156 -133 150 0 0 1 6 0 1 0 1
phys
0 -176 -153 150 0 0 1 6 0 1 0 1
0 -156 -133 150 0 0 1 6 0 1 0 1
0 -176 -133 150 0 0 1 6 0 1 0 1
phys
0 -156 -133 0 0 0 1 6 0 1 0 1
0 -176 -133 0 0 0 1 6 0 1 0 1
0 -176 -133 150 0 0 1 6 0 1 0 1
phys
0 -156 -133 0 0 0 1 6 0 1 0 1
0 -176 -133 150 0 0 1 6 0 1 0 1
0 -156 -133 150 0 0 1 6 0 1 0 1
phys
0 -156 -153 150 0 0 1 6 0 1 0 1
0 -176 -153 150 0 0 1 6 0 1 0 1
0 -176 -153 0 0 0 1 6 0 1 0 1
phys
0 -156 -153 150 0 0 1 6 0 1 0 1
0 -176 -153 0 0 0 1 6 0 1 0 1
0 -156 -153 0 0 0 1 6 0 1 0 1
phys
0 -176 -153 150 0 0 1 6 0 1 0 1
0 -176 -133 150 0 0 1 6 0 1 0 1
0 -176 -133 0 0 0 1 6 0 1 0 1
phys
0 -176 -153 150 0 0 1 6 0 1 0 1
0 -176 -133 0 0 0 1 6 0 1 0 1
0 -176 -153 0 0 0 1 6 0 1 0 1
phys
0 -156 -153 0 0 0 1 6 0 1 0 1
0 -156 -133 0 0 0 1 6 0 1 0 1
0 -156 -133 150 0 0 1 6 0 1 0 1
phys
0 -156 -153 0 0 0 1 6 0 1 0 1
0 -156 -133 150 0 0 1 6 0 1 0 1
0 -156 -153 150 0 0 1 6 0 1 0 1
phys
0 -158 157 49 0 0 1 7 0 1 0 1
0 -158 157 45 0 0 1 7 0 1 0 1
0 -174 157 45 0 0 1 7 0 1 0 1
phys
0 -158 157 49 0 0 1 7 0 1 0 1
0 -174 157 45 0 0 1 7 0 1 0 1
0 -174 157 49 0 0 1 7 0 1 0 1
phys
0 -158 121 45 0 0 1 7 0 1 0 1
0 -158 121 49 0 0 1 7 0 1 0 1
0 -174 121 49 0 0 1 7 0 1 0 1
phys
0 -158 121 45 0 0 1 7 0 1 0 1
0 -174 121 49 0 0 1 7 0 1 0 1
0 -174 121 45 0 0 1 7 0 1 0 1
phys
0 -174 121 45 0 0 1 7 0 1 0 1
0 -174 121 49 0 0 1 7 0 1 0 1
0 -174 157 49 0 0 1 7 0 1 0 1
phys
0 -174 121 45 0 0 1 7 0 1 0 1
0 -174 157 49 0 0 1 7 0 1 0 1
0 -174 157 45 0 0 1 7 0 1 0 1
phys
0 -158 121 49 0 0 1 7 0 1 0 1
0 -158 121 45 0 0 1 7 0 1 0 1
0 -158 157 45 0 0 1 7 0 1 0 1
phys
0 -158 121 49 0 0 1 7 0 1 0 1
0 -158 157 45 0 0 1 7 0 1 0 1
0 -158 157 49 0 0 1 7 0 1 0 1
phys
0 -158 121 45 0 0 1 7 0 1 0 1
0 -174 121 45 0 0 1 7 0 1 0 1
0 -174 157 45 0 0 1 7 0 1 0 1
phys
0 -158 121 45 0 0 1 7 0 1 0 1
0 -174 157 45 0 0 1 7 0 1 0 1
0 -158 157 45 0 0 1 7 0 1 0 1
phys
0 -174 121 49 0 0 1 7 0 1 0 1
0 -158 121 49 0 0 1 7 0 1 0 1
0 -158 157 49 0 0 1 7 0 1 0 1
phys
0 -174 121 49 0 0 1 7 0 1 0 1
0 -158 157 49 0 0 1 7 0 1 0 1
0 -174 157 49 0 0 1 7 0 1 0 1
phys
0 182 164 298 0 0 1 8 0 1 0 1
0 182 164 288 0 0 1 8 0 1 0 1
0 -181 164 288 0 0 1 8 0 1 0 1
phys
0 182 164 298 0 0 1 8 0 1 0 1
0 -181 164 288 0 0 1 8 0 1 0 1
0 -181 164 298 0 0 1 8 0 1 0 1
phys
0 182 159 288 0 0 1 8 0 1 0 1
0 182 159 298 0 0 1 8 0 1 0 1
0 -181 159 298 0 0 1 8 0 1 0 1
phys
0 182 159 288 0 0 1 8 0 1 0 1
0 -181 159 298 0 0 1 8 0 1 0 1
0 -181 159 288 0 0 1 8 0 1 0 1
phys
0 -181 159 288 0 0 1 8 0 1 0 1
0 -181 159 298 0 0 1 8 0 1 0 1
0 -181 164 298 0 0 1 8 0 1 0 1
phys
0 -181 159 288 0 0 1 8 0 1 0 1
0 -181 164 298 0 0 1 8 0 1 0 1
0 -181 164 288 0 0 1 8 0 1 0 1
phys
0 182 159 298 0 0 1 8 0 1 0 1
0 182 159 288 0 0 1 8 0 1 0 1
0 182 164 288 0 0 1 8 0 1 0 1
phys
0 182 159 298 0 0 1 8 0 1 0 1
0 182 164 288 0 0 1 8 0 1 0 1
0 182 164 298 0 0 1 8 0 1 0 1
phys
0 182 159 288 0 0 1 8 0 1 0 1
0 -181 159 288 0 0 1 8 0 1 0 1
0 -181 164 288 0 0 1 8 0 1 0 1
phys
0 182 159 288 0 0 1 8 0 1 0 1
0 -181 164 288 0 0 1 8 0 1 0 1
0 182 164 288 0 0 1 8 0 1 0 1
phys
0 -181 159 298 0 0 1 8 0 1 0 1
0 182 159 298 0 0 1 8 0 1 0 1
0 182 164 298 0 0 1 8 0 1 0 1
phys
0 -181 159 298 0 0 1 8 0 1 0 1
0 182 164 298 0 0 1 8 0 1 0 1
0 -181 164 298 0 0 1 8 0 1 0 1
phys
0 182 164 160 0 0 1 9 0 1 0 1
0 182 164 150 0 0 1 9 0 1 0 1
0 -181 164 150 0 0 1 9 0 1 0 1
phys
0 182 164 160 0 0 1 9 0 1 0 1
0 -181 164 150 0 0 1 9 0 1 0 1
0 -181 164 160 0 0 1 9 0 1 0 1
phys
0 182 159 150 0 0 1 9 0 1 0 1
0 182 159 160 0 0 1 9 0 1 0 1
0 -181 159 160 0 0 1 9 0 1 0 1
phys
0 182 159 150 0 0 1 9 0 1 0 1
0 -181 159 160 0 0 1 9 0 1 0 1
0 -181 159 150 0 0 1 9 0 1 0 1
phys
0 -181 159 150 0 0 1 9 0 1 0 1
0 -181 159 160 0 0 1 9 0 1 0 1
0 -181 164 160 0 0 1 9 0 1 0 1
phys
0 -181 159 150 0 0 1 9 0 1 0 1
0 -181 164 160 0 0 1 9 0 1 0 1
0 -181 164 150 0 0 1 9 0 1 0 1
phys
0 182 159 160 0 0 1 9 0 1 0 1
0 182 159 150 0 0 1 9 0 1 0 1
0 182 164 150 0 0 1 9 0 1 0 1
phys
0 182 159 160 0 0 1 9 0 1 0 1
0 182 164 150 0 0 1 9 0 1 0 1
0 182 164 160 0 0 1 9 0 1 0 1
phys
0 182 159 150 0 0 1 9 0 1 0 1
0 -181 159 150 0 0 1 9 0 1 0 1
0 -181 164 150 0 0 1 9 0 1 0 1
phys
0 182 159 150 0 0 1 9 0 1 0 1
0 -181 164 150 0 0 1 9 0 1 0 1
0 182 164 150 0 0 1 9 0 1 0 1
phys
0 -181 159 160 0 0 1 9 0 1 0 1
0 182 159 160 0 0 1 9 0 1 0 1
0 182 164 160 0 0 1 9 0 1 0 1
phys
0 -181 159 160 0 0 1 9 0 1 0 1
0 182 164 160 0 0 1 9 0 1 0 1
0 -181 164 160 0 0 1 9 0 1 0 1
phys
0 -20 159 244 0 0 1 10 0 1 0 1
0 -20 159 239 0 0 1 10 0 1 0 1
0 -136 159 239 0 0 1 10 0 1 0 1
phys
0 -20 159 244 0 0 1 10 0 1 0 1
0 -136 159 239 0 0 1 10 0 1 0 1
0 -136 159 244 0 0 1 10 0 1 0 1
phys
0 -20 149 239 0 0 1 10 0 1 0 1
0 -20 149 244 0 0 1 10 0 1 0 1
0 -136 149 244 0 0 1 10 0 1 0 1
phys
0 -20 149 239 0 0 1 10 0 1 0 1
0 -136 149 244 0 0 1 10 0 1 0 1
0 -136 149 239 0 0 1 10 0 1 0 1
phys
0 -136 149 239 0 0 1 10 0 1 0 1
0 -136 149 244 0 0 1 10 0 1 0 1
0 -136 159 244 0 0 1 10 0 1 0 1
phys
0 -136 149 239 0 0 1 10 0 1 0 1
0 -136 159 244 0 0 1 10 0 1 0 1
0 -136 159 239 0 0 1 10 0 1 0 1
phys
0 -20 149 244 0 0 1 10 0 1 0 1
0 -20 149 239 0 0 1 10 0 1 0 1
0 -20 159 239 0 0 1 10 0 1 0 1
phys
0 -20 149 244 0 0 1 10 0 1 0 1
0 -20 159 239 0 0 1 10 0 1 0 1
0 -20 159 244 0 0 1 10 0 1 0 1
phys
0 -20 149 239 0 0 1 10 0 1 0 1
0 -136 149 239 0 0 1 10 0 1 0 1
0 -136 159 239 0 0 1 10 0 1 0 1
phys
0 -20 149 239 0 0 1 10 0 1 0 1
0 -136 159 239 0 0 1 10 0 1 0 1
0 -20 159 239 0 0 1 10 0 1 0 1
phys
0 -136 149 244 0 0 1 10 0 1 0 1
0 -20 149 244 0 0 1 10 0 1 0 1
0 -20 159 244 0 0 1 10 0 1 0 1
phys
0 -136 149 244 0 0 1 10 0 1 0 1
0 -20 159 244 0 0 1 10 0 1 0 1
0 -136 159 244 0 0 1 10 0 1 0 1
phys
0 -30 -153 150 0 0 1 11 0 1 0 1
0 -30 -153 141 0 0 1 11 0 1 0 1
0 -126 -153 141 0 0 1 11 0 1 0 1
phys
0 -30 -153 150 0 0 1 11 0 1 0 1
0 -126 -153 141 0 0 1 11 0 1 0 1
0 -126 -153 150 0 0 1 11 0 1 0 1
phys
0 -30 -163 141 0 0 1 11 0 1 0 1
0 -30 -163 150 0 0 1 11 0 1 0 1
0 -126 -163 150 0 0 1 11 0 1 0 1
phys
0 -30 -163 141 0 0 1 11 0 1 0 1
0 -126 -163 150 0 0 1 11 0 1 0 1
0 -126 -163 141 0 0 1 11 0 1 0 1
phys
0 -126 -163 141 0 0 1 11 0 1 0 1
0 -126 -163 150 0 0 1 11 0 1 0 1
0 -126 -153 150 0 0 1 11 0 1 0 1
phys
0 -126 -163 141 0 0 1 11 0 1 0 1
0 -126 -153 150 0 0 1 11 0 1 0 1
0 -126 -153 141 0 0 1 11 0 1 0 1
phys
0 -30 -163 150 0 0 1 11 0 1 0 1
0 -30 -163 141 0 0 1 11 0 1 0 1
0 -30 -153 141 0 0 1 11 0 1 0 1
phys
0 -30 -163 150 0 0 1 11 0 1 0 1
0 -30 -153 141 0 0 1 11 0 1 0 1
0 -30 -153 150 0 0 1 11 0 1 0 1
phys
0 -30 -163 141 0 0 1 11 0 1 0 1
0 -126 -163 141 0 0 1 11 0 1 0 1
0 -126 -153 141 0 0 1 11 0 1 0 1
phys
0 -30 -163 141 0 0 1 11 0 1 0 1
0 -126 -153 141 0 0 1 11 0 1 0 1
0 -30 -153 141 0 0 1 11 0 1 0 1
phys
0 -126 -163 150 0 0 1 11 0 1 0 1
0 -30 -163 150 0 0 1 11 0 1 0 1
0 -30 -153 150 0 0 1 11 0 1 0 1
phys
0 -126 -163 150 0 0 1 11 0 1 0 1
0 -30 -153 150 0 0 1 11 0 1 0 1
0 -126 -153 150 0 0 1 11 0 1 0 1
phys
0 -20 159 170 0 0 1 12 0 1 0 1
0 -20 159 160 0 0 1 12 0 1 0 1
0 -136 159 160 0 0 1 12 0 1 0 1
phys
0 -20 159 170 0 0 1 12 0 1 0 1
0 -136 159 160 0 0 1 12 0 1 0 1
0 -136 159 170 0 0 1 12 0 1 0 1
phys
0 -20 149 160 0 0 1 12 0 1 0 1
0 -20 149 170 0 0 1 12 0 1 0 1
0 -136 149 170 0 0 1 12 0 1 0 1
phys
0 -20 149 160 0 0 1 12 0 1 0 1
0 -136 149 170 0 0 1 12 0 1 0 1
0 -136 149 160 0 0 1 12 0 1 0 1
phys
0 -136 149 160 0 0 1 12 0 1 0 1
0 -136 149 170 0 0 1 12 0 1 0 1
0 -136 159 170 0 0 1 12 0 1 0 1
phys
0 -136 149 160 0 0 1 12 0 1 0 1
0 -136 159 170 0 0 1 12 0 1 0 1
0 -136 159 160 0 0 1 12 0 1 0 1
phys
0 -20 149 170 0 0 1 12 0 1 0 1
0 -20 149 160 0 0 1 12 0 1 0 1
0 -20 159 160 0 0 1 12 0 1 0 1
phys
0 -20 149 170 0 0 1 12 0 1 0 1
0 -20 159 160 0 0 1 12 0 1 0 1
0 -20 159 170 0 0 1 12 0 1 0 1
phys
0 -20 149 160 0 0 1 12 0 1 0 1
0 -136 149 160 0 0 1 12 0 1 0 1
0 -136 159 160 0 0 1 12 0 1 0 1
phys
0 -20 149 160 0 0 1 12 0 1 0 1
0 -136 159 160 0 0 1 12 0 1 0 1
0 -20 159 160 0 0 1 12 0 1 0 1
phys
0 -136 149 170 0 0 1 12 0 1 0 1
0 -20 149 170 0 0 1 12 0 1 0 1
0 -20 159 170 0 0 1 12 0 1 0 1
phys
0 -136 149 170 0 0 1 12 0 1 0 1
0 -20 159 170 0 0 1 12 0 1 0 1
0 -136 159 170 0 0 1 12 0 1 0 1
phys
0 -30 -153 109 0 0 1 13 0 1 0 1
0 -30 -153 104 0 0 1 13 0 1 0 1
0 -126 -153 104 0 0 1 13 0 1 0 1
phys
0 -30 -153 109 0 0 1 13 0 1 0 1
0 -126 -153 104 0 0 1 13 0 1 0 1
0 -126 -153 109 0 0 1 13 0 1 0 1
phys
0 -30 -163 104 0 0 1 13 0 1 0 1
0 -30 -163 109 0 0 1 13 0 1 0 1
0 -126 -163 109 0 0 1 13 0 1 0 1
phys
0 -30 -163 104 0 0 1 13 0 1 0 1
0 -126 -163 109 0 0 1 13 0 1 0 1
0 -126 -163 104 0 0 1 13 0 1 0 1
phys
0 -126 -163 104 0 0 1 13 0 1 0 1
0 -126 -163 109 0 0 1 13 0 1 0 1
0 -126 -153 109 0 0 1 13 0 1 0 1
phys
0 -126 -163 104 0 0 1 13 0 1 0 1
0 -126 -153 109 0 0 1 13 0 1 0 1
0 -126 -153 104 0 0 1 13 0 1 0 1
phys
0 -30 -163 109 0 0 1 13 0 1 0 1
0 -30 -163 104 0 0 1 13 0 1 0 1
0 -30 -153 104 0 0 1 13 0 1 0 1
phys
0 -30 -163 109 0 0 1 13 0 1 0 1
0 -30 -153 104 0 0 1 13 0 1 0 1
0 -30 -153 109 0 0 1 13 0 1 0 1
phys
0 -30 -163 104 0 0 1 13 0 1 0 1
0 -126 -163 104 0 0 1 13 0 1 0 1
0 -126 -153 104 0 0 1 13 0 1 0 1
phys
0 -30 -163 104 0 0 1 13 0 1 0 1
0 -126 -153 104 0 0 1 13 0 1 0 1
0 -30 -153 104 0 0 1 13 0 1 0 1
phys
0 -126 -163 109 0 0 1 13 0 1 0 1
0 -30 -163 109 0 0 1 13 0 1 0 1
0 -30 -153 109 0 0 1 13 0 1 0 1
phys
0 -126 -163 109 0 0 1 13 0 1 0 1
0 -30 -153 109 0 0 1 13 0 1 0 1
0 -126 -153 109 0 0 1 13 0 1 0 1
phys
0 -6 -116 3 0 0 1 14 0 1 0 1
0 -6 -116 0 0 0 1 14 0 1 0 1
0 -114 -116 0 0 0 1 14 0 1 0 1
phys
0 -6 -116 3 0 0 1 14 0 1 0 1
0 -114 -116 0 0 0 1 14 0 1 0 1
0 -114 -116 3 0 0 1 14 0 1 0 1
phys
0 -6 -124 0 0 0 1 14 0 1 0 1
0 -6 -124 3 0 0 1 14 0 1 0 1
0 -114 -124 3 0 0 1 14 0 1 0 1
phys
0 -6 -124 0 0 0 1 14 0 1 0 1
0 -114 -124 3 0 0 1 14 0 1 0 1
0 -114 -124 0 0 0 1 14 0 1 0 1
phys
0 -114 -124 0 0 0 1 14 0 1 0 1
0 -114 -124 3 0 0 1 14 0 1 0 1
0 -114 -121 5 0 0 1 14 0 1 0 1
phys
0 -114 -124 0 0 0 1 14 0 1 0 1
0 -114 -121 5 0 0 1 14 0 1 0 1
0 -114 -119 5 0 0 1 14 0 1 0 1
phys
0 -114 -124 0 0 0 1 14 0 1 0 1
0 -114 -119 5 0 0 1 14 0 1 0 1
0 -114 -116 3 0 0 1 14 0 1 0 1
phys
0 -114 -124 0 0 0 1 14 0 1 0 1
0 -114 -116 3 0 0 1 14 0 1 0 1
0 -114 -116 0 0 0 1 14 0 1 0 1
phys
0 -6 -124 3 0 0 1 14 0 1 0 1
0 -6 -124 0 0 0 1 14 0 1 0 1
0 -6 -116 0 0 0 1 14 0 1 0 1
phys
0 -6 -124 3 0 0 1 14 0 1 0 1
0 -6 -116 0 0 0 1 14 0 1 0 1
0 -6 -116 3 0 0 1 14 0 1 0 1
phys
0 -6 -124 3 0 0 1 14 0 1 0 1
0 -6 -116 3 0 0 1 14 0 1 0 1
0 -6 -119 5 0 0 1 14 0 1 0 1
phys
0 -6 -124 3 0 0 1 14 0 1 0 1
0 -6 -119 5 0 0 1 14 0 1 0 1
0 -6 -121 5 0 0 1 14 0 1 0 1
phys
0 -6 -124 0 0 0 1 14 0 1 0 1
0 -114 -124 0 0 0 1 14 0 1 0 1
0 -114 -116 0 0 0 1 14 0 1 0 1
phys
0 -6 -124 0 0 0 1 14 0 1 0 1
0 -114 -116 0 0 0 1 14 0 1 0 1
0 -6 -116 0 0 0 1 14 0 1 0 1
phys
0 -6 -121 5 0 0 1 14 0 1 0 1
0 -6 -119 5 0 0 1 14 0 1 0 1
0 -114 -119 5 0 0 1 14 0 1 0 1
phys
0 -6 -121 5 0 0 1 14 0 1 0 1
0 -114 -119 5 0 0 1 14 0 1 0 1
0 -114 -121 5 0 0 1 14 0 1 0 1
phys
0 -6 -119 5 0 0 1 14 0 1 0 1
0 -6 -116 3 0 0 1 14 0 1 0 1
0 -114 -116 3 0 0 1 14 0 1 0 1
phys
0 -6 -119 5 0 0 1 14 0 1 0 1
0 -114 -116 3 0 0 1 14 0 1 0 1
0 -114 -119 5 0 0 1 14 0 1 0 1
phys
0 -114 -124 3 0 0 1 14 0 1 0 1
0 -6 -124 3 0 0 1 14 0 1 0 1
0 -6 -121 5 0 0 1 14 0 1 0 1
phys
0 -114 -124 3 0 0 1 14 0 1 0 1
0 -6 -121 5 0 0 1 14 0 1 0 1
0 -114 -121 5 0 0 1 14 0 1 0 1
phys
0 167 -126 288 0 0 1 15 0 1 0 1
0 167 -126 278 0 0 1 15 0 1 0 1
0 -166 -126 278 0 0 1 15 0 1 0 1
phys
0 167 -126 288 0 0 1 15 0 1 0 1
0 -166 -126 278 0 0 1 15 0 1 0 1
0 -166 -126 288 0 0 1 15 0 1 0 1
phys
0 167 -136 278 0 0 1 15 0 1 0 1
0 167 -136 288 0 0 1 15 0 1 0 1
0 -166 -136 288 0 0 1 15 0 1 0 1
phys
0 167 -136 278 0 0 1 15 0 1 0 1
0 -166 -136 288 0 0 1 15 0 1 0 1
0 -166 -136 278 0 0 1 15 0 1 0 1
phys
0 -166 -136 278 0 0 1 15 0 1 0 1
0 -166 -136 288 0 0 1 15 0 1 0 1
0 -166 -126 288 0 0 1 15 0 1 0 1
phys
0 -166 -136 278 0 0 1 15 0 1 0 1
0 -166 -126 288 0 0 1 15 0 1 0 1
0 -166 -126 278 0 0 1 15 0 1 0 1
phys
0 167 -136 288 0 0 1 15 0 1 0 1
0 167 -136 278 0 0 1 15 0 1 0 1
0 167 -126 278 0 0 1 15 0 1 0 1
phys
0 167 -136 288 0 0 1 15 0 1 0 1
0 167 -126 278 0 0 1 15 0 1 0 1
0 167 -126 288 0 0 1 15 0 1 0 1
phys
0 167 -136 278 0 0 1 15 0 1 0 1
0 -166 -136 278 0 0 1 15 0 1 0 1
0 -166 -126 278 0 0 1 15 0 1 0 1
phys
0 167 -136 278 0 0 1 15 0 1 0 1
0 -166 -126 278 0 0 1 15 0 1 0 1
0 167 -126 278 0 0 1 15 0 1 0 1
phys
0 -166 -136 288 0 0 1 15 0 1 0 1
0 167 -136 288 0 0 1 15 0 1 0 1
0 167 -126 288 0 0 1 15 0 1 0 1
phys
0 -166 -136 288 0 0 1 15 0 1 0 1
0 167 -126 288 0 0 1 15 0 1 0 1
0 -166 -126 288 0 0 1 15 0 1 0 1
phys
0 -156 159 45 0 0 1 16 0 1 0 1
0 -156 159 0 0 0 1 16 0 1 0 1
0 -176 159 0 0 0 1 16 0 1 0 1
phys
0 -156 159 45 0 0 1 16 0 1 0 1
0 -176 159 0 0 0 1 16 0 1 0 1
0 -176 159 45 0 0 1 16 0 1 0 1
phys
0 -156 119 0 0 0 1 16 0 1 0 1
0 -156 119 45 0 0 1 16 0 1 0 1
0 -176 119 45 0 0 1 16 0 1 0 1
phys
0 -156 119 0 0 0 1 16 0 1 0 1
0 -176 119 45 0 0 1 16 0 1 0 1
0 -176 119 0 0 0 1 16 0 1 0 1
phys
0 -176 119 0 0 0 1 16 0 1 0 1
0 -176 119 45 0 0 1 16 0 1 0 1
0 -176 159 45 0 0 1 16 0 1 0 1
phys
0 -176 119 0 0 0 1 16 0 1 0 1
0 -176 159 45 0 0 1 16 0 1 0 1
0 -176 159 0 0 0 1 16 0 1 0 1
phys
0 -156 119 45 0 0 1 16 0 1 0 1
0 -156 119 0 0 0 1 16 0 1 0 1
0 -156 159 0 0 0 1 16 0 1 0 1
phys
0 -156 119 45 0 0 1 16 0 1 0 1
0 -156 159 0 0 0 1 16 0 1 0 1
0 -156 159 45 0 0 1 16 0 1 0 1
phys
0 -156 119 0 0 0 1 16 0 1 0 1
0 -176 119 0 0 0 1 16 0 1 0 1
0 -176 159 0 0 0 1 16 0 1 0 1
phys
0 -156 119 0 0 0 1 16 0 1 0 1
0 -176 159 0 0 0 1 16 0 1 0 1
0 -156 159 0 0 0 1 16 0 1 0 1
phys
0 -176 119 45 0 0 1 16 0 1 0 1
0 -156 119 45 0 0 1 16 0 1 0 1
0 -156 159 45 0 0 1 16 0 1 0 1
phys
0 -176 119 45 0 0 1 16 0 1 0 1
0 -156 159 45 0 0 1 16 0 1 0 1
0 -176 159 45 0 0 1 16 0 1 0 1
phys
0 -156 119 150 0 0 1 17 0 1 0 1
0 -156 119 134.003 0 0 1 17 0 1 0 1
0 -160 119 130 0 0 1 17 0 1 0 1
phys
0 -156 119 150 0 0 1 17 0 1 0 1
0 -160 119 130 0 0 1 17 0 1 0 1
0 -172 119 130 0 0 1 17 0 1 0 1
phys
0 -156 119 150 0 0 1 17 0 1 0 1
0 -172 119 130 0 0 1 17 0 1 0 1
0 -176 119 133.997 0 0 1 17 0 1 0 1
phys
0 -156 119 150 0 0 1 17 0 1 0 1
0 -176 119 133.997 0 0 1 17 0 1 0 1
0 -176 119 150 0 0 1 17 0 1 0 1
phys
0 -156 -133 134.003 0 0 1 17 0 1 0 1
0 -156 -133 150 0 0 1 17 0 1 0 1
0 -176 -133 150 0 0 1 17 0 1 0 1
phys
0 -156 -133 134.003 0 0 1 17 0 1 0 1
0 -176 -133 150 0 0 1 17 0 1 0 1
0 -176 -133 133.997 0 0 1 17 0 1 0 1
phys
0 -156 -133 134.003 0 0 1 17 0 1 0 1
0 -176 -133 133.997 0 0 1 17 0 1 0 1
0 -172 -133 130 0 0 1 17 0 1 0 1
phys
0 -156 -133 134.003 0 0 1 17 0 1 0 1
0 -172 -133 130 0 0 1 17 0 1 0 1
0 -160 -133 130 0 0 1 17 0 1 0 1
phys
0 -176 -133 133.997 0 0 1 17 0 1 0 1
0 -176 -133 150 0 0 1 17 0 1 0 1
0 -176 119 150 0 0 1 17 0 1 0 1
phys
0 -176 -133 133.997 0 0 1 17 0 1 0 1
0 -176 119 150 0 0 1 17 0 1 0 1
0 -176 119 133.997 0 0 1 17 0 1 0 1
phys
0 -156 -133 150 0 0 1 17 0 1 0 1
0 -156 -133 134.003 0 0 1 17 0 1 0 1
0 -156 119 134.003 0 0 1 17 0 1 0 1
phys
0 -156 -133 150 0 0 1 17 0 1 0 1
0 -156 119 134.003 0 0 1 17 0 1 0 1
0 -156 119 150 0 0 1 17 0 1 0 1
phys
0 -160 -133 130 0 0 1 17 0 1 0 1
0 -172 -133 130 0 0 1 17 0 1 0 1
0 -172 119 130 0 0 1 17 0 1 0 1
phys
0 -160 -133 130 0 0 1 17 0 1 0 1
0 -172 119 130 0 0 1 17 0 1 0 1
0 -160 119 130 0 0 1 17 0 1 0 1
phys
0 -176 -133 150 0 0 1 17 0 1 0 1
0 -156 -133 150 0 0 1 17 0 1 0 1
0 -156 119 150 0 0 1 17 0 1 0 1
phys
0 -176 -133 150 0 0 1 17 0 1 0 1
0 -156 119 150 0 0 1 17 0 1 0 1
0 -176 119 150 0 0 1 17 0 1 0 1
phys
0 -172 -133 130 0 0 1 17 0 1 0 1
0 -176 -133 133.997 0 0 1 17 0 1 0 1
0 -176 119 133.997 0 0 1 17 0 1 0 1
phys
0 -172 -133 130 0 0 1 17 0 1 0 1
0 -176 119 133.997 0 0 1 17 0 1 0 1
0 -172 119 130 0 0 1 17 0 1 0 1
phys
0 -156 -133 134.003 0 0 1 17 0 1 0 1
0 -160 -133 130 0 0 1 17 0 1 0 1
0 -160 119 130 0 0 1 17 0 1 0 1
phys
0 -156 -133 134.003 0 0 1 17 0 1 0 1
0 -160 119 130 0 0 1 17 0 1 0 1
0 -156 119 134.003 0 0 1 17 0 1 0 1
phys
0 -30 -153 72 0 0 1 18 0 1 0 1
0 -30 -153 67 0 0 1 18 0 1 0 1
0 -126 -153 67 0 0 1 18 0 1 0 1
phys
0 -30 -153 72 0 0 1 18 0 1 0 1
0 -126 -153 67 0 0 1 18 0 1 0 1
0 -126 -153 72 0 0 1 18 0 1 0 1
phys
0 -30 -163 67 0 0 1 18 0 1 0 1
0 -30 -163 72 0 0 1 18 0 1 0 1
0 -126 -163 72 0 0 1 18 0 1 0 1
phys
0 -30 -163 67 0 0 1 18 0 1 0 1
0 -126 -163 72 0 0 1 18 0 1 0 1
0 -126 -163 67 0 0 1 18 0 1 0 1
phys
0 -126 -163 67 0 0 1 18 0 1 0 1
0 -126 -163 72 0 0 1 18 0 1 0 1
0 -126 -153 72 0 0 1 18 0 1 0 1
phys
0 -126 -163 67 0 0 1 18 0 1 0 1
0 -126 -153 72 0 0 1 18 0 1 0 1
0 -126 -153 67 0 0 1 18 0 1 0 1
phys
0 -30 -163 72 0 0 1 18 0 1 0 1
0 -30 -163 67 0 0 1 18 0 1 0 1
0 -30 -153 67 0 0 1 18 0 1 0 1
phys
0 -30 -163 72 0 0 1 18 0 1 0 1
0 -30 -153 67 0 0 1 18 0 1 0 1
0 -30 -153 72 0 0 1 18 0 1 0 1
phys
0 -30 -163 67 0 0 1 18 0 1 0 1
0 -126 -163 67 0 0 1 18 0 1 0 1
0 -126 -153 67 0 0 1 18 0 1 0 1
phys
0 -30 -163 67 0 0 1 18 0 1 0 1
0 -126 -153 67 0 0 1 18 0 1 0 1
0 -30 -153 67 0 0 1 18 0 1 0 1
phys
0 -126 -163 72 0 0 1 18 0 1 0 1
0 -30 -163 72 0 0 1 18 0 1 0 1
0 -30 -153 72 0 0 1 18 0 1 0 1
phys
0 -126 -163 72 0 0 1 18 0 1 0 1
0 -30 -153 72 0 0 1 18 0 1 0 1
0 -126 -153 72 0 0 1 18 0 1 0 1
phys
0 -20 149 202 0 0 1 19 0 1 0 1
0 -20 149 207 0 0 1 19 0 1 0 1
0 -136 149 207 0 0 1 19 0 1 0 1
phys
0 -20 149 202 0 0 1 19 0 1 0 1
0 -136 149 207 0 0 1 19 0 1 0 1
0 -136 149 202 0 0 1 19 0 1 0 1
phys
0 -136 149 202 0 0 1 19 0 1 0 1
0 -136 149 207 0 0 1 19 0 1 0 1
0 -136 159 207 0 0 1 19 0 1 0 1
phys
0 -136 149 202 0 0 1 19 0 1 0 1
0 -136 159 207 0 0 1 19 0 1 0 1
0 -136 159 202 0 0 1 19 0 1 0 1
phys
0 -20 149 207 0 0 1 19 0 1 0 1
0 -20 149 202 0 0 1 19 0 1 0 1
0 -20 159 202 0 0 1 19 0 1 0 1
phys
0 -20 149 207 0 0 1 19 0 1 0 1
0 -20 159 202 0 0 1 19 0 1 0 1
0 -20 159 207 0 0 1 19 0 1 0 1
phys
0 -20 149 202 0 0 1 19 0 1 0 1
0 -136 149 202 0 0 1 19 0 1 0 1
0 -136 159 202 0 0 1 19 0 1 0 1
phys
0 -20 149 202 0 0 1 19 0 1 0 1
0 -136 159 202 0 0 1 19 0 1 0 1
0 -20 159 202 0 0 1 19 0 1 0 1
phys
0 -136 149 207 0 0 1 19 0 1 0 1
0 -20 149 207 0 0 1 19 0 1 0 1
0 -20 159 207 0 0 1 19 0 1 0 1
phys
0 -136 149 207 0 0 1 19 0 1 0 1
0 -20 159 207 0 0 1 19 0 1 0 1
0 -136 159 207 0 0 1 19 0 1 0 1
phys
0 -20 159 207 0 0 1 19 0 1 0 1
0 -20 159 202 0 0 1 19 0 1 0 1
0 -136 159 202 0 0 1 19 0 1 0 1
phys
0 -20 159 207 0 0 1 19 0 1 0 1
0 -136 159 202 0 0 1 19 0 1 0 1
0 -136 159 207 0 0 1 19 0 1 0 1
end
