version 1
nodes
0 "root" -1
end
skeleton
time 0
0 0 0 0 0 0 0
end
triangles
phys
0 60 56 38 0 0 1 1 0 1 0 1
0 60 56 36 0 0 1 1 0 1 0 1
0 56 56 36 0 0 1 1 0 1 0 1
phys
0 60 56 38 0 0 1 1 0 1 0 1
0 56 56 36 0 0 1 1 0 1 0 1
0 56 56 38 0 0 1 1 0 1 0 1
phys
0 60 16 36 0 0 1 1 0 1 0 1
0 60 16 38 0 0 1 1 0 1 0 1
0 56 16 38 0 0 1 1 0 1 0 1
phys
0 60 16 36 0 0 1 1 0 1 0 1
0 56 16 38 0 0 1 1 0 1 0 1
0 56 16 36 0 0 1 1 0 1 0 1
phys
0 56 16 36 0 0 1 1 0 1 0 1
0 56 16 38 0 0 1 1 0 1 0 1
0 56 56 38 0 0 1 1 0 1 0 1
phys
0 56 16 36 0 0 1 1 0 1 0 1
0 56 56 38 0 0 1 1 0 1 0 1
0 56 56 36 0 0 1 1 0 1 0 1
phys
0 60 16 38 0 0 1 1 0 1 0 1
0 60 16 36 0 0 1 1 0 1 0 1
0 60 56 36 0 0 1 1 0 1 0 1
phys
0 60 16 38 0 0 1 1 0 1 0 1
0 60 56 36 0 0 1 1 0 1 0 1
0 60 56 38 0 0 1 1 0 1 0 1
phys
0 60 16 36 0 0 1 1 0 1 0 1
0 56 16 36 0 0 1 1 0 1 0 1
0 56 56 36 0 0 1 1 0 1 0 1
phys
0 60 16 36 0 0 1 1 0 1 0 1
0 56 56 36 0 0 1 1 0 1 0 1
0 60 56 36 0 0 1 1 0 1 0 1
phys
0 56 16 38 0 0 1 1 0 1 0 1
0 60 16 38 0 0 1 1 0 1 0 1
0 60 56 38 0 0 1 1 0 1 0 1
phys
0 56 16 38 0 0 1 1 0 1 0 1
0 60 56 38 0 0 1 1 0 1 0 1
0 56 56 38 0 0 1 1 0 1 0 1
phys
0 -28 40 112 0 0 1 2 0 1 0 1
0 -28 40 72 0 0 1 2 0 1 0 1
0 -60 40 72 0 0 1 2 0 1 0 1
phys
0 -28 40 112 0 0 1 2 0 1 0 1
0 -60 40 72 0 0 1 2 0 1 0 1
0 -60 40 112 0 0 1 2 0 1 0 1
phys
0 -28 -80 72 0 0 1 2 0 1 0 1
0 -28 -80 112 0 0 1 2 0 1 0 1
0 -60 -80 112 0 0 1 2 0 1 0 1
phys
0 -28 -80 72 0 0 1 2 0 1 0 1
0 -60 -80 112 0 0 1 2 0 1 0 1
0 -60 -80 72 0 0 1 2 0 1 0 1
phys
0 -60 -80 72 0 0 1 2 0 1 0 1
0 -60 -80 112 0 0 1 2 0 1 0 1
0 -60 40 112 0 0 1 2 0 1 0 1
phys
0 -60 -80 72 0 0 1 2 0 1 0 1
0 -60 40 112 0 0 1 2 0 1 0 1
0 -60 40 72 0 0 1 2 0 1 0 1
phys
0 -28 -80 112 0 0 1 2 0 1 0 1
0 -28 -80 72 0 0 1 2 0 1 0 1
0 -28 40 72 0 0 1 2 0 1 0 1
phys
0 -28 -80 112 0 0 1 2 0 1 0 1
0 -28 40 72 0 0 1 2 0 1 0 1
0 -28 40 112 0 0 1 2 0 1 0 1
phys
0 -28 -80 72 0 0 1 2 0 1 0 1
0 -60 -80 72 0 0 1 2 0 1 0 1
0 -60 40 72 0 0 1 2 0 1 0 1
phys
0 -28 -80 72 0 0 1 2 0 1 0 1
0 -60 40 72 0 0 1 2 0 1 0 1
0 -28 40 72 0 0 1 2 0 1 0 1
phys
0 -60 -80 112 0 0 1 2 0 1 0 1
0 -28 -80 112 0 0 1 2 0 1 0 1
0 -28 40 112 0 0 1 2 0 1 0 1
phys
0 -60 -80 112 0 0 1 2 0 1 0 1
0 -28 40 112 0 0 1 2 0 1 0 1
0 -60 40 112 0 0 1 2 0 1 0 1
phys
0 -60 4 38 0 0 1 3 0 1 0 1
0 -26 4 38 0 0 1 3 0 1 0 1
0 -26 44 38 0 0 1 3 0 1 0 1
phys
0 -60 4 38 0 0 1 3 0 1 0 1
0 -26 44 38 0 0 1 3 0 1 0 1
0 -60 44 38 0 0 1 3 0 1 0 1
phys
0 -60 44 36 0 0 1 3 0 1 0 1
0 -60 44 38 0 0 1 3 0 1 0 1
0 -26 44 38 0 0 1 3 0 1 0 1
phys
0 -60 44 36 0 0 1 3 0 1 0 1
0 -26 44 38 0 0 1 3 0 1 0 1
0 -26 44 36 0 0 1 3 0 1 0 1
phys
0 -26 4 36 0 0 1 3 0 1 0 1
0 -26 4 38 0 0 1 3 0 1 0 1
0 -60 4 38 0 0 1 3 0 1 0 1
phys
0 -26 4 36 0 0 1 3 0 1 0 1
0 -60 4 38 0 0 1 3 0 1 0 1
0 -60 4 36 0 0 1 3 0 1 0 1
phys
0 -60 4 36 0 0 1 3 0 1 0 1
0 -60 4 38 0 0 1 3 0 1 0 1
0 -60 44 38 0 0 1 3 0 1 0 1
phys
0 -60 4 36 0 0 1 3 0 1 0 1
0 -60 44 38 0 0 1 3 0 1 0 1
0 -60 44 36 0 0 1 3 0 1 0 1
phys
0 -26 44 36 0 0 1 3 0 1 0 1
0 -26 44 38 0 0 1 3 0 1 0 1
0 -26 4 38 0 0 1 3 0 1 0 1
phys
0 -26 44 36 0 0 1 3 0 1 0 1
0 -26 4 38 0 0 1 3 0 1 0 1
0 -26 4 36 0 0 1 3 0 1 0 1
phys
0 -26 4 36 0 0 1 3 0 1 0 1
0 -60 4 36 0 0 1 3 0 1 0 1
0 -60 44 36 0 0 1 3 0 1 0 1
phys
0 -26 4 36 0 0 1 3 0 1 0 1
0 -60 44 36 0 0 1 3 0 1 0 1
0 -26 44 36 0 0 1 3 0 1 0 1
phys
0 60 56 0 0 0 1 4 0 1 0 1
0 60 78 0 0 0 1 4 0 1 0 1
0 60 78 36 0 0 1 4 0 1 0 1
phys
0 60 56 0 0 0 1 4 0 1 0 1
0 60 78 36 0 0 1 4 0 1 0 1
0 60 56 36 0 0 1 4 0 1 0 1
phys
0 28 78 0 0 0 1 4 0 1 0 1
0 60 78 0 0 0 1 4 0 1 0 1
0 60 56 0 0 0 1 4 0 1 0 1
phys
0 28 78 0 0 0 1 4 0 1 0 1
0 60 56 0 0 0 1 4 0 1 0 1
0 28 56 0 0 0 1 4 0 1 0 1
phys
0 28 56 36 0 0 1 4 0 1 0 1
0 60 56 36 0 0 1 4 0 1 0 1
0 60 78 36 0 0 1 4 0 1 0 1
phys
0 28 56 36 0 0 1 4 0 1 0 1
0 60 78 36 0 0 1 4 0 1 0 1
0 28 78 36 0 0 1 4 0 1 0 1
phys
0 60 78 36 0 0 1 4 0 1 0 1
0 60 78 0 0 0 1 4 0 1 0 1
0 28 78 0 0 0 1 4 0 1 0 1
phys
0 60 78 36 0 0 1 4 0 1 0 1
0 28 78 0 0 0 1 4 0 1 0 1
0 28 78 36 0 0 1 4 0 1 0 1
phys
0 60 56 0 0 0 1 4 0 1 0 1
0 60 56 36 0 0 1 4 0 1 0 1
0 28 56 36 0 0 1 4 0 1 0 1
phys
0 60 56 0 0 0 1 4 0 1 0 1
0 28 56 36 0 0 1 4 0 1 0 1
0 28 56 0 0 0 1 4 0 1 0 1
phys
0 28 56 36 0 0 1 4 0 1 0 1
0 28 78 36 0 0 1 4 0 1 0 1
0 28 78 0 0 0 1 4 0 1 0 1
phys
0 28 56 36 0 0 1 4 0 1 0 1
0 28 78 0 0 0 1 4 0 1 0 1
0 28 56 0 0 0 1 4 0 1 0 1
phys
0 26 16 38 0 0 1 5 0 1 0 1
0 32 16 38 0 0 1 5 0 1 0 1
0 32 56 38 0 0 1 5 0 1 0 1
phys
0 26 16 38 0 0 1 5 0 1 0 1
0 32 56 38 0 0 1 5 0 1 0 1
0 26 56 38 0 0 1 5 0 1 0 1
phys
0 26 56 36 0 0 1 5 0 1 0 1
0 26 56 38 0 0 1 5 0 1 0 1
0 32 56 38 0 0 1 5 0 1 0 1
phys
0 26 56 36 0 0 1 5 0 1 0 1
0 32 56 38 0 0 1 5 0 1 0 1
0 32 56 36 0 0 1 5 0 1 0 1
phys
0 32 16 36 0 0 1 5 0 1 0 1
0 32 16 38 0 0 1 5 0 1 0 1
0 26 16 38 0 0 1 5 0 1 0 1
phys
0 32 16 36 0 0 1 5 0 1 0 1
0 26 16 38 0 0 1 5 0 1 0 1
0 26 16 36 0 0 1 5 0 1 0 1
phys
0 26 16 36 0 0 1 5 0 1 0 1
0 26 16 38 0 0 1 5 0 1 0 1
0 26 56 38 0 0 1 5 0 1 0 1
phys
0 26 16 36 0 0 1 5 0 1 0 1
0 26 56 38 0 0 1 5 0 1 0 1
0 26 56 36 0 0 1 5 0 1 0 1
phys
0 32 56 36 0 0 1 5 0 1 0 1
0 32 56 38 0 0 1 5 0 1 0 1
0 32 16 38 0 0 1 5 0 1 0 1
phys
0 32 56 36 0 0 1 5 0 1 0 1
0 32 16 38 0 0 1 5 0 1 0 1
0 32 16 36 0 0 1 5 0 1 0 1
phys
0 32 16 36 0 0 1 5 0 1 0 1
0 26 16 36 0 0 1 5 0 1 0 1
0 26 56 36 0 0 1 5 0 1 0 1
phys
0 32 16 36 0 0 1 5 0 1 0 1
0 26 56 36 0 0 1 5 0 1 0 1
0 32 56 36 0 0 1 5 0 1 0 1
phys
0 60 80 38 0 0 1 6 0 1 0 1
0 60 80 36 0 0 1 6 0 1 0 1
0 26 80 36 0 0 1 6 0 1 0 1
phys
0 60 80 38 0 0 1 6 0 1 0 1
0 26 80 36 0 0 1 6 0 1 0 1
0 26 80 38 0 0 1 6 0 1 0 1
phys
0 60 56 36 0 0 1 6 0 1 0 1
0 60 56 38 0 0 1 6 0 1 0 1
0 26 56 38 0 0 1 6 0 1 0 1
phys
0 60 56 36 0 0 1 6 0 1 0 1
0 26 56 38 0 0 1 6 0 1 0 1
0 26 56 36 0 0 1 6 0 1 0 1
phys
0 26 56 36 0 0 1 6 0 1 0 1
0 26 56 38 0 0 1 6 0 1 0 1
0 26 80 38 0 0 1 6 0 1 0 1
phys
0 26 56 36 0 0 1 6 0 1 0 1
0 26 80 38 0 0 1 6 0 1 0 1
0 26 80 36 0 0 1 6 0 1 0 1
phys
0 60 56 38 0 0 1 6 0 1 0 1
0 60 56 36 0 0 1 6 0 1 0 1
0 60 80 36 0 0 1 6 0 1 0 1
phys
0 60 56 38 0 0 1 6 0 1 0 1
0 60 80 36 0 0 1 6 0 1 0 1
0 60 80 38 0 0 1 6 0 1 0 1
phys
0 60 56 36 0 0 1 6 0 1 0 1
0 26 56 36 0 0 1 6 0 1 0 1
0 26 80 36 0 0 1 6 0 1 0 1
phys
0 60 56 36 0 0 1 6 0 1 0 1
0 26 80 36 0 0 1 6 0 1 0 1
0 60 80 36 0 0 1 6 0 1 0 1
phys
0 26 56 38 0 0 1 6 0 1 0 1
0 60 56 38 0 0 1 6 0 1 0 1
0 60 80 38 0 0 1 6 0 1 0 1
phys
0 26 56 38 0 0 1 6 0 1 0 1
0 60 80 38 0 0 1 6 0 1 0 1
0 26 80 38 0 0 1 6 0 1 0 1
phys
0 60 16 36 0 0 1 7 0 1 0 1
0 60 16 0 0 0 1 7 0 1 0 1
0 28 16 0 0 0 1 7 0 1 0 1
phys
0 60 16 36 0 0 1 7 0 1 0 1
0 28 16 0 0 0 1 7 0 1 0 1
0 28 16 36 0 0 1 7 0 1 0 1
phys
0 60 -80 0 0 0 1 7 0 1 0 1
0 60 -80 36 0 0 1 7 0 1 0 1
0 28 -80 36 0 0 1 7 0 1 0 1
phys
0 60 -80 0 0 0 1 7 0 1 0 1
0 28 -80 36 0 0 1 7 0 1 0 1
0 28 -80 0 0 0 1 7 0 1 0 1
phys
0 28 -80 0 0 0 1 7 0 1 0 1
0 28 -80 36 0 0 1 7 0 1 0 1
0 28 16 36 0 0 1 7 0 1 0 1
phys
0 28 -80 0 0 0 1 7 0 1 0 1
0 28 16 36 0 0 1 7 0 1 0 1
0 28 16 0 0 0 1 7 0 1 0 1
phys
0 60 -80 36 0 0 1 7 0 1 0 1
0 60 -80 0 0 0 1 7 0 1 0 1
0 60 16 0 0 0 1 7 0 1 0 1
phys
0 60 -80 36 0 0 1 7 0 1 0 1
0 60 16 0 0 0 1 7 0 1 0 1
0 60 16 36 0 0 1 7 0 1 0 1
phys
0 60 -80 0 0 0 1 7 0 1 0 1
0 28 -80 0 0 0 1 7 0 1 0 1
0 28 16 0 0 0 1 7 0 1 0 1
phys
0 60 -80 0 0 0 1 7 0 1 0 1
0 28 16 0 0 0 1 7 0 1 0 1
0 60 16 0 0 0 1 7 0 1 0 1
phys
0 28 -80 36 0 0 1 7 0 1 0 1
0 60 -80 36 0 0 1 7 0 1 0 1
0 60 16 36 0 0 1 7 0 1 0 1
phys
0 28 -80 36 0 0 1 7 0 1 0 1
0 60 16 36 0 0 1 7 0 1 0 1
0 28 16 36 0 0 1 7 0 1 0 1
phys
0 32 56 36 0 0 1 8 0 1 0 1
0 32 56 0 0 0 1 8 0 1 0 1
0 28 56 0 0 0 1 8 0 1 0 1
phys
0 32 56 36 0 0 1 8 0 1 0 1
0 28 56 0 0 0 1 8 0 1 0 1
0 28 56 36 0 0 1 8 0 1 0 1
phys
0 32 16 0 0 0 1 8 0 1 0 1
0 32 16 36 0 0 1 8 0 1 0 1
0 28 16 36 0 0 1 8 0 1 0 1
phys
0 32 16 0 0 0 1 8 0 1 0 1
0 28 16 36 0 0 1 8 0 1 0 1
0 28 16 0 0 0 1 8 0 1 0 1
phys
0 28 16 0 0 0 1 8 0 1 0 1
0 28 16 36 0 0 1 8 0 1 0 1
0 28 56 36 0 0 1 8 0 1 0 1
phys
0 28 16 0 0 0 1 8 0 1 0 1
0 28 56 36 0 0 1 8 0 1 0 1
0 28 56 0 0 0 1 8 0 1 0 1
phys
0 32 16 36 0 0 1 8 0 1 0 1
0 32 16 0 0 0 1 8 0 1 0 1
0 32 56 0 0 0 1 8 0 1 0 1
phys
0 32 16 36 0 0 1 8 0 1 0 1
0 32 56 0 0 0 1 8 0 1 0 1
0 32 56 36 0 0 1 8 0 1 0 1
phys
0 32 16 0 0 0 1 8 0 1 0 1
0 28 16 0 0 0 1 8 0 1 0 1
0 28 56 0 0 0 1 8 0 1 0 1
phys
0 32 16 0 0 0 1 8 0 1 0 1
0 28 56 0 0 0 1 8 0 1 0 1
0 32 56 0 0 0 1 8 0 1 0 1
phys
0 28 16 36 0 0 1 8 0 1 0 1
0 32 16 36 0 0 1 8 0 1 0 1
0 32 56 36 0 0 1 8 0 1 0 1
phys
0 28 16 36 0 0 1 8 0 1 0 1
0 32 56 36 0 0 1 8 0 1 0 1
0 28 56 36 0 0 1 8 0 1 0 1
phys
0 60 16 38 0 0 1 9 0 1 0 1
0 60 16 36 0 0 1 9 0 1 0 1
0 26 16 36 0 0 1 9 0 1 0 1
phys
0 60 16 38 0 0 1 9 0 1 0 1
0 26 16 36 0 0 1 9 0 1 0 1
0 26 16 38 0 0 1 9 0 1 0 1
phys
0 60 -80 36 0 0 1 9 0 1 0 1
0 60 -80 38 0 0 1 9 0 1 0 1
0 26 -80 38 0 0 1 9 0 1 0 1
phys
0 60 -80 36 0 0 1 9 0 1 0 1
0 26 -80 38 0 0 1 9 0 1 0 1
0 26 -80 36 0 0 1 9 0 1 0 1
phys
0 26 -80 36 0 0 1 9 0 1 0 1
0 26 -80 38 0 0 1 9 0 1 0 1
0 26 16 38 0 0 1 9 0 1 0 1
phys
0 26 -80 36 0 0 1 9 0 1 0 1
0 26 16 38 0 0 1 9 0 1 0 1
0 26 16 36 0 0 1 9 0 1 0 1
phys
0 60 -80 38 0 0 1 9 0 1 0 1
0 60 -80 36 0 0 1 9 0 1 0 1
0 60 16 36 0 0 1 9 0 1 0 1
phys
0 60 -80 38 0 0 1 9 0 1 0 1
0 60 16 36 0 0 1 9 0 1 0 1
0 60 16 38 0 0 1 9 0 1 0 1
phys
0 60 -80 36 0 0 1 9 0 1 0 1
0 26 -80 36 0 0 1 9 0 1 0 1
0 26 16 36 0 0 1 9 0 1 0 1
phys
0 60 -80 36 0 0 1 9 0 1 0 1
0 26 16 36 0 0 1 9 0 1 0 1
0 60 16 36 0 0 1 9 0 1 0 1
phys
0 26 -80 38 0 0 1 9 0 1 0 1
0 60 -80 38 0 0 1 9 0 1 0 1
0 60 16 38 0 0 1 9 0 1 0 1
phys
0 26 -80 38 0 0 1 9 0 1 0 1
0 60 16 38 0 0 1 9 0 1 0 1
0 26 16 38 0 0 1 9 0 1 0 1
phys
0 -26 -80 36 0 0 1 10 0 1 0 1
0 -26 -80 38 0 0 1 10 0 1 0 1
0 -60 -80 38 0 0 1 10 0 1 0 1
phys
0 -26 -80 36 0 0 1 10 0 1 0 1
0 -60 -80 38 0 0 1 10 0 1 0 1
0 -60 -80 36 0 0 1 10 0 1 0 1
phys
0 -60 -80 36 0 0 1 10 0 1 0 1
0 -60 -80 38 0 0 1 10 0 1 0 1
0 -60 -32 38 0 0 1 10 0 1 0 1
phys
0 -60 -80 36 0 0 1 10 0 1 0 1
0 -60 -32 38 0 0 1 10 0 1 0 1
0 -60 -32 36 0 0 1 10 0 1 0 1
phys
0 -26 -80 38 0 0 1 10 0 1 0 1
0 -26 -80 36 0 0 1 10 0 1 0 1
0 -26 -32 36 0 0 1 10 0 1 0 1
phys
0 -26 -80 38 0 0 1 10 0 1 0 1
0 -26 -32 36 0 0 1 10 0 1 0 1
0 -26 -32 38 0 0 1 10 0 1 0 1
phys
0 -26 -80 36 0 0 1 10 0 1 0 1
0 -60 -80 36 0 0 1 10 0 1 0 1
0 -60 -32 36 0 0 1 10 0 1 0 1
phys
0 -26 -80 36 0 0 1 10 0 1 0 1
0 -60 -32 36 0 0 1 10 0 1 0 1
0 -26 -32 36 0 0 1 10 0 1 0 1
phys
0 -60 -80 38 0 0 1 10 0 1 0 1
0 -26 -80 38 0 0 1 10 0 1 0 1
0 -26 -32 38 0 0 1 10 0 1 0 1
phys
0 -60 -80 38 0 0 1 10 0 1 0 1
0 -26 -32 38 0 0 1 10 0 1 0 1
0 -60 -32 38 0 0 1 10 0 1 0 1
phys
0 -26 -32 38 0 0 1 10 0 1 0 1
0 -26 -32 36 0 0 1 10 0 1 0 1
0 -60 -32 36 0 0 1 10 0 1 0 1
phys
0 -26 -32 38 0 0 1 10 0 1 0 1
0 -60 -32 36 0 0 1 10 0 1 0 1
0 -60 -32 38 0 0 1 10 0 1 0 1
phys
0 -28 -32 36 0 0 1 11 0 1 0 1
0 -28 -32 0 0 0 1 11 0 1 0 1
0 -60 -32 0 0 0 1 11 0 1 0 1
phys
0 -28 -32 36 0 0 1 11 0 1 0 1
0 -60 -32 0 0 0 1 11 0 1 0 1
0 -60 -32 36 0 0 1 11 0 1 0 1
phys
0 -28 -80 0 0 0 1 11 0 1 0 1
0 -28 -80 36 0 0 1 11 0 1 0 1
0 -60 -80 36 0 0 1 11 0 1 0 1
phys
0 -28 -80 0 0 0 1 11 0 1 0 1
0 -60 -80 36 0 0 1 11 0 1 0 1
0 -60 -80 0 0 0 1 11 0 1 0 1
phys
0 -60 -80 0 0 0 1 11 0 1 0 1
0 -60 -80 36 0 0 1 11 0 1 0 1
0 -60 -32 36 0 0 1 11 0 1 0 1
phys
0 -60 -80 0 0 0 1 11 0 1 0 1
0 -60 -32 36 0 0 1 11 0 1 0 1
0 -60 -32 0 0 0 1 11 0 1 0 1
phys
0 -28 -80 36 0 0 1 11 0 1 0 1
0 -28 -80 0 0 0 1 11 0 1 0 1
0 -28 -32 0 0 0 1 11 0 1 0 1
phys
0 -28 -80 36 0 0 1 11 0 1 0 1
0 -28 -32 0 0 0 1 11 0 1 0 1
0 -28 -32 36 0 0 1 11 0 1 0 1
phys
0 -28 -80 0 0 0 1 11 0 1 0 1
0 -60 -80 0 0 0 1 11 0 1 0 1
0 -60 -32 0 0 0 1 11 0 1 0 1
phys
0 -28 -80 0 0 0 1 11 0 1 0 1
0 -60 -32 0 0 0 1 11 0 1 0 1
0 -28 -32 0 0 0 1 11 0 1 0 1
phys
0 -60 -80 36 0 0 1 11 0 1 0 1
0 -28 -80 36 0 0 1 11 0 1 0 1
0 -28 -32 36 0 0 1 11 0 1 0 1
phys
0 -60 -80 36 0 0 1 11 0 1 0 1
0 -28 -32 36 0 0 1 11 0 1 0 1
0 -60 -32 36 0 0 1 11 0 1 0 1
phys
0 -28 42 36 0 0 1 12 0 1 0 1
0 -28 42 0 0 0 1 12 0 1 0 1
0 -60 42 0 0 0 1 12 0 1 0 1
phys
0 -28 42 36 0 0 1 12 0 1 0 1
0 -60 42 0 0 0 1 12 0 1 0 1
0 -60 42 36 0 0 1 12 0 1 0 1
phys
0 -28 4 0 0 0 1 12 0 1 0 1
0 -28 4 36 0 0 1 12 0 1 0 1
0 -60 4 36 0 0 1 12 0 1 0 1
phys
0 -28 4 0 0 0 1 12 0 1 0 1
0 -60 4 36 0 0 1 12 0 1 0 1
0 -60 4 0 0 0 1 12 0 1 0 1
phys
0 -60 4 0 0 0 1 12 0 1 0 1
0 -60 4 36 0 0 1 12 0 1 0 1
0 -60 42 36 0 0 1 12 0 1 0 1
phys
0 -60 4 0 0 0 1 12 0 1 0 1
0 -60 42 36 0 0 1 12 0 1 0 1
0 -60 42 0 0 0 1 12 0 1 0 1
phys
0 -28 4 36 0 0 1 12 0 1 0 1
0 -28 4 0 0 0 1 12 0 1 0 1
0 -28 42 0 0 0 1 12 0 1 0 1
phys
0 -28 4 36 0 0 1 12 0 1 0 1
0 -28 42 0 0 0 1 12 0 1 0 1
0 -28 42 36 0 0 1 12 0 1 0 1
phys
0 -28 4 0 0 0 1 12 0 1 0 1
0 -60 4 0 0 0 1 12 0 1 0 1
0 -60 42 0 0 0 1 12 0 1 0 1
phys
0 -28 4 0 0 0 1 12 0 1 0 1
0 -60 42 0 0 0 1 12 0 1 0 1
0 -28 42 0 0 0 1 12 0 1 0 1
phys
0 -60 4 36 0 0 1 12 0 1 0 1
0 -28 4 36 0 0 1 12 0 1 0 1
0 -28 42 36 0 0 1 12 0 1 0 1
phys
0 -60 4 36 0 0 1 12 0 1 0 1
0 -28 42 36 0 0 1 12 0 1 0 1
0 -60 42 36 0 0 1 12 0 1 0 1
end
