version 1
nodes
0 "root" -1
end
skeleton
time 0
0 0 0 0 0 0 0
end
triangles
phys
0 60 -200 4 0 0 1 1 0 1 0 1
0 60 -200 -60 0 0 1 1 0 1 0 1
0 56 -200 -60 0 0 1 1 0 1 0 1
phys
0 60 -200 4 0 0 1 1 0 1 0 1
0 56 -200 -60 0 0 1 1 0 1 0 1
0 56 -200 4 0 0 1 1 0 1 0 1
phys
0 60 -204 -60 0 0 1 1 0 1 0 1
0 60 -204 4 0 0 1 1 0 1 0 1
0 56 -204 4 0 0 1 1 0 1 0 1
phys
0 60 -204 -60 0 0 1 1 0 1 0 1
0 56 -204 4 0 0 1 1 0 1 0 1
0 56 -204 -60 0 0 1 1 0 1 0 1
phys
0 56 -204 -60 0 0 1 1 0 1 0 1
0 56 -204 4 0 0 1 1 0 1 0 1
0 56 -200 4 0 0 1 1 0 1 0 1
phys
0 56 -204 -60 0 0 1 1 0 1 0 1
0 56 -200 4 0 0 1 1 0 1 0 1
0 56 -200 -60 0 0 1 1 0 1 0 1
phys
0 60 -204 4 0 0 1 1 0 1 0 1
0 60 -204 -60 0 0 1 1 0 1 0 1
0 60 -200 -60 0 0 1 1 0 1 0 1
phys
0 60 -204 4 0 0 1 1 0 1 0 1
0 60 -200 -60 0 0 1 1 0 1 0 1
0 60 -200 4 0 0 1 1 0 1 0 1
phys
0 60 -204 -60 0 0 1 1 0 1 0 1
0 56 -204 -60 0 0 1 1 0 1 0 1
0 56 -200 -60 0 0 1 1 0 1 0 1
phys
0 60 -204 -60 0 0 1 1 0 1 0 1
0 56 -200 -60 0 0 1 1 0 1 0 1
0 60 -200 -60 0 0 1 1 0 1 0 1
phys
0 56 -204 4 0 0 1 1 0 1 0 1
0 60 -204 4 0 0 1 1 0 1 0 1
0 60 -200 4 0 0 1 1 0 1 0 1
phys
0 56 -204 4 0 0 1 1 0 1 0 1
0 60 -200 4 0 0 1 1 0 1 0 1
0 56 -200 4 0 0 1 1 0 1 0 1
phys
0 333 135 -60 0 0 1 2 0 1 0 1
0 333 135 -52 0 0 1 2 0 1 0 1
0 60 135 -52 0 0 1 2 0 1 0 1
phys
0 333 135 -60 0 0 1 2 0 1 0 1
0 60 135 -52 0 0 1 2 0 1 0 1
0 60 135 -60 0 0 1 2 0 1 0 1
phys
0 60 135 -60 0 0 1 2 0 1 0 1
0 60 135 -52 0 0 1 2 0 1 0 1
0 60 143 -60 0 0 1 2 0 1 0 1
phys
0 333 135 -52 0 0 1 2 0 1 0 1
0 333 135 -60 0 0 1 2 0 1 0 1
0 333 143 -60 0 0 1 2 0 1 0 1
phys
0 333 135 -60 0 0 1 2 0 1 0 1
0 60 135 -60 0 0 1 2 0 1 0 1
0 60 143 -60 0 0 1 2 0 1 0 1
phys
0 333 135 -60 0 0 1 2 0 1 0 1
0 60 143 -60 0 0 1 2 0 1 0 1
0 333 143 -60 0 0 1 2 0 1 0 1
phys
0 60 135 -52 0 0 1 2 0 1 0 1
0 333 135 -52 0 0 1 2 0 1 0 1
0 333 143 -60 0 0 1 2 0 1 0 1
phys
0 60 135 -52 0 0 1 2 0 1 0 1
0 333 143 -60 0 0 1 2 0 1 0 1
0 60 143 -60 0 0 1 2 0 1 0 1
phys
0 -4 -204 4 0 0 1 3 0 1 0 1
0 -4 -200 4 0 0 1 3 0 1 0 1
0 -4 -200 -60 0 0 1 3 0 1 0 1
phys
0 -4 -204 4 0 0 1 3 0 1 0 1
0 -4 -200 -60 0 0 1 3 0 1 0 1
0 -4 -204 -60 0 0 1 3 0 1 0 1
phys
0 0 -204 -60 0 0 1 3 0 1 0 1
0 0 -200 -60 0 0 1 3 0 1 0 1
0 0 -200 4 0 0 1 3 0 1 0 1
phys
0 0 -204 -60 0 0 1 3 0 1 0 1
0 0 -200 4 0 0 1 3 0 1 0 1
0 0 -204 4 0 0 1 3 0 1 0 1
phys
0 -4 -204 -60 0 0 1 3 0 1 0 1
0 -4 -200 -60 0 0 1 3 0 1 0 1
0 0 -200 -60 0 0 1 3 0 1 0 1
phys
0 -4 -204 -60 0 0 1 3 0 1 0 1
0 0 -200 -60 0 0 1 3 0 1 0 1
0 0 -204 -60 0 0 1 3 0 1 0 1
phys
0 0 -204 4 0 0 1 3 0 1 0 1
0 0 -200 4 0 0 1 3 0 1 0 1
0 -4 -200 4 0 0 1 3 0 1 0 1
phys
0 0 -204 4 0 0 1 3 0 1 0 1
0 -4 -200 4 0 0 1 3 0 1 0 1
0 -4 -204 4 0 0 1 3 0 1 0 1
phys
0 0 -200 4 0 0 1 3 0 1 0 1
0 0 -200 -60 0 0 1 3 0 1 0 1
0 -4 -200 -60 0 0 1 3 0 1 0 1
phys
0 0 -200 4 0 0 1 3 0 1 0 1
0 -4 -200 -60 0 0 1 3 0 1 0 1
0 -4 -200 4 0 0 1 3 0 1 0 1
phys
0 0 -204 -60 0 0 1 3 0 1 0 1
0 0 -204 4 0 0 1 3 0 1 0 1
0 -4 -204 4 0 0 1 3 0 1 0 1
phys
0 0 -204 -60 0 0 1 3 0 1 0 1
0 -4 -204 4 0 0 1 3 0 1 0 1
0 -4 -204 -60 0 0 1 3 0 1 0 1
phys
0 60 135 4 0 0 1 4 0 1 0 1
0 269 135 4 0 0 1 4 0 1 0 1
0 269 143 4 0 0 1 4 0 1 0 1
phys
0 60 135 4 0 0 1 4 0 1 0 1
0 269 143 4 0 0 1 4 0 1 0 1
0 60 143 4 0 0 1 4 0 1 0 1
phys
0 269 135 -4 0 0 1 4 0 1 0 1
0 60 135 -4 0 0 1 4 0 1 0 1
0 60 143 4 0 0 1 4 0 1 0 1
phys
0 269 135 -4 0 0 1 4 0 1 0 1
0 60 143 4 0 0 1 4 0 1 0 1
0 269 143 4 0 0 1 4 0 1 0 1
phys
0 269 135 4 0 0 1 4 0 1 0 1
0 60 135 4 0 0 1 4 0 1 0 1
0 60 135 -4 0 0 1 4 0 1 0 1
phys
0 269 135 4 0 0 1 4 0 1 0 1
0 60 135 -4 0 0 1 4 0 1 0 1
0 269 135 -4 0 0 1 4 0 1 0 1
phys
0 60 135 4 0 0 1 4 0 1 0 1
0 60 143 4 0 0 1 4 0 1 0 1
0 60 135 -4 0 0 1 4 0 1 0 1
phys
0 269 135 -4 0 0 1 4 0 1 0 1
0 269 143 4 0 0 1 4 0 1 0 1
0 269 135 4 0 0 1 4 0 1 0 1
phys
0 52 143 4 0 0 1 5 0 1 0 1
0 60 135 -3.999 0 0 1 5 0 1 0 1
0 60 -200 -3.999 0 0 1 5 0 1 0 1
phys
0 52 143 4 0 0 1 5 0 1 0 1
0 60 -200 -3.999 0 0 1 5 0 1 0 1
0 52 -200 4 0 0 1 5 0 1 0 1
phys
0 60 135 -3.999 0 0 1 5 0 1 0 1
0 52 143 4 0 0 1 5 0 1 0 1
0 60 143 4 0 0 1 5 0 1 0 1
phys
0 52 -200 4 0 0 1 5 0 1 0 1
0 60 -200 -3.999 0 0 1 5 0 1 0 1
0 60 -200 4 0 0 1 5 0 1 0 1
phys
0 60 -200 4 0 0 1 5 0 1 0 1
0 60 -200 -3.999 0 0 1 5 0 1 0 1
0 60 135 -3.999 0 0 1 5 0 1 0 1
phys
0 60 -200 4 0 0 1 5 0 1 0 1
0 60 135 -3.999 0 0 1 5 0 1 0 1
0 60 143 4 0 0 1 5 0 1 0 1
phys
0 60 143 4 0 0 1 5 0 1 0 1
0 52 143 4 0 0 1 5 0 1 0 1
0 52 -200 4 0 0 1 5 0 1 0 1
phys
0 60 143 4 0 0 1 5 0 1 0 1
0 52 -200 4 0 0 1 5 0 1 0 1
0 60 -200 4 0 0 1 5 0 1 0 1
phys
0 60 -200 -60 0 0 1 6 0 1 0 1
0 60 -200 -52 0 0 1 6 0 1 0 1
0 52 -200 -60 0 0 1 6 0 1 0 1
phys
0 60 -200 -52 0 0 1 6 0 1 0 1
0 60 -200 -60 0 0 1 6 0 1 0 1
0 60 143 -60 0 0 1 6 0 1 0 1
phys
0 60 -200 -52 0 0 1 6 0 1 0 1
0 60 143 -60 0 0 1 6 0 1 0 1
0 60 135 -52 0 0 1 6 0 1 0 1
phys
0 60 -200 -60 0 0 1 6 0 1 0 1
0 52 -200 -60 0 0 1 6 0 1 0 1
0 52 143 -60 0 0 1 6 0 1 0 1
phys
0 60 -200 -60 0 0 1 6 0 1 0 1
0 52 143 -60 0 0 1 6 0 1 0 1
0 60 143 -60 0 0 1 6 0 1 0 1
phys
0 52 -200 -60 0 0 1 6 0 1 0 1
0 60 -200 -52 0 0 1 6 0 1 0 1
0 60 135 -52 0 0 1 6 0 1 0 1
phys
0 52 -200 -60 0 0 1 6 0 1 0 1
0 60 135 -52 0 0 1 6 0 1 0 1
0 52 143 -60 0 0 1 6 0 1 0 1
phys
0 60 135 -52 0 0 1 6 0 1 0 1
0 60 143 -60 0 0 1 6 0 1 0 1
0 52 143 -60 0 0 1 6 0 1 0 1
phys
0 56 -200 4 0 0 1 7 0 1 0 1
0 56 -200 0 0 0 1 7 0 1 0 1
0 0 -200 0 0 0 1 7 0 1 0 1
phys
0 56 -200 4 0 0 1 7 0 1 0 1
0 0 -200 0 0 0 1 7 0 1 0 1
0 0 -200 4 0 0 1 7 0 1 0 1
phys
0 56 -204 0 0 0 1 7 0 1 0 1
0 56 -204 4 0 0 1 7 0 1 0 1
0 0 -204 4 0 0 1 7 0 1 0 1
phys
0 56 -204 0 0 0 1 7 0 1 0 1
0 0 -204 4 0 0 1 7 0 1 0 1
0 0 -204 0 0 0 1 7 0 1 0 1
phys
0 0 -204 0 0 0 1 7 0 1 0 1
0 0 -204 4 0 0 1 7 0 1 0 1
0 0 -200 4 0 0 1 7 0 1 0 1
phys
0 0 -204 0 0 0 1 7 0 1 0 1
0 0 -200 4 0 0 1 7 0 1 0 1
0 0 -200 0 0 0 1 7 0 1 0 1
phys
0 56 -204 4 0 0 1 7 0 1 0 1
0 56 -204 0 0 0 1 7 0 1 0 1
0 56 -200 0 0 0 1 7 0 1 0 1
phys
0 56 -204 4 0 0 1 7 0 1 0 1
0 56 -200 0 0 0 1 7 0 1 0 1
0 56 -200 4 0 0 1 7 0 1 0 1
phys
0 56 -204 0 0 0 1 7 0 1 0 1
0 0 -204 0 0 0 1 7 0 1 0 1
0 0 -200 0 0 0 1 7 0 1 0 1
phys
0 56 -204 0 0 0 1 7 0 1 0 1
0 0 -200 0 0 0 1 7 0 1 0 1
0 56 -200 0 0 0 1 7 0 1 0 1
phys
0 0 -204 4 0 0 1 7 0 1 0 1
0 56 -204 4 0 0 1 7 0 1 0 1
0 56 -200 4 0 0 1 7 0 1 0 1
phys
0 0 -204 4 0 0 1 7 0 1 0 1
0 56 -200 4 0 0 1 7 0 1 0 1
0 0 -200 4 0 0 1 7 0 1 0 1
phys
0 -4 199 -4.005 0 0 1 8 0 1 0 1
0 -4 199 4 0 0 1 8 0 1 0 1
0 4 199 4 0 0 1 8 0 1 0 1
phys
0 4 -200 4 0 0 1 8 0 1 0 1
0 -4 -200 4 0 0 1 8 0 1 0 1
0 -4 -200 -4.005 0 0 1 8 0 1 0 1
phys
0 -4 -200 -4.005 0 0 1 8 0 1 0 1
0 -4 -200 4 0 0 1 8 0 1 0 1
0 -4 199 4 0 0 1 8 0 1 0 1
phys
0 -4 -200 -4.005 0 0 1 8 0 1 0 1
0 -4 199 4 0 0 1 8 0 1 0 1
0 -4 199 -4.005 0 0 1 8 0 1 0 1
phys
0 -4 -200 4 0 0 1 8 0 1 0 1
0 4 -200 4 0 0 1 8 0 1 0 1
0 4 199 4 0 0 1 8 0 1 0 1
phys
0 -4 -200 4 0 0 1 8 0 1 0 1
0 4 199 4 0 0 1 8 0 1 0 1
0 -4 199 4 0 0 1 8 0 1 0 1
phys
0 4 -200 4 0 0 1 8 0 1 0 1
0 -4 -200 -4.005 0 0 1 8 0 1 0 1
0 -4 199 -4.005 0 0 1 8 0 1 0 1
phys
0 4 -200 4 0 0 1 8 0 1 0 1
0 -4 199 -4.005 0 0 1 8 0 1 0 1
0 4 199 4 0 0 1 8 0 1 0 1
phys
0 -4 199 -60 0 0 1 9 0 1 0 1
0 4 199 -60 0 0 1 9 0 1 0 1
0 4 -200 -60 0 0 1 9 0 1 0 1
phys
0 -4 199 -60 0 0 1 9 0 1 0 1
0 4 -200 -60 0 0 1 9 0 1 0 1
0 -4 -200 -60 0 0 1 9 0 1 0 1
phys
0 -4 -200 -51.995 0 0 1 9 0 1 0 1
0 4 -200 -60 0 0 1 9 0 1 0 1
0 4 199 -60 0 0 1 9 0 1 0 1
phys
0 -4 -200 -51.995 0 0 1 9 0 1 0 1
0 4 199 -60 0 0 1 9 0 1 0 1
0 -4 199 -51.995 0 0 1 9 0 1 0 1
phys
0 -4 199 -51.995 0 0 1 9 0 1 0 1
0 4 199 -60 0 0 1 9 0 1 0 1
0 -4 199 -60 0 0 1 9 0 1 0 1
phys
0 -4 -200 -60 0 0 1 9 0 1 0 1
0 4 -200 -60 0 0 1 9 0 1 0 1
0 -4 -200 -51.995 0 0 1 9 0 1 0 1
phys
0 -4 -200 -51.995 0 0 1 9 0 1 0 1
0 -4 199 -51.995 0 0 1 9 0 1 0 1
0 -4 199 -60 0 0 1 9 0 1 0 1
phys
0 -4 -200 -51.995 0 0 1 9 0 1 0 1
0 -4 199 -60 0 0 1 9 0 1 0 1
0 -4 -200 -60 0 0 1 9 0 1 0 1
phys
0 333 199 -52.001 0 0 1 10 0 1 0 1
0 333 199 -60 0 0 1 10 0 1 0 1
0 4 199 -60 0 0 1 10 0 1 0 1
phys
0 333 199 -52.001 0 0 1 10 0 1 0 1
0 4 199 -60 0 0 1 10 0 1 0 1
0 -3.999 199 -52.001 0 0 1 10 0 1 0 1
phys
0 333 191 -60 0 0 1 10 0 1 0 1
0 333 199 -60 0 0 1 10 0 1 0 1
0 333 199 -52.001 0 0 1 10 0 1 0 1
phys
0 4 199 -60 0 0 1 10 0 1 0 1
0 333 199 -60 0 0 1 10 0 1 0 1
0 333 191 -60 0 0 1 10 0 1 0 1
phys
0 4 199 -60 0 0 1 10 0 1 0 1
0 333 191 -60 0 0 1 10 0 1 0 1
0 4 191 -60 0 0 1 10 0 1 0 1
phys
0 4 191 -60 0 0 1 10 0 1 0 1
0 333 191 -60 0 0 1 10 0 1 0 1
0 333 199 -52.001 0 0 1 10 0 1 0 1
phys
0 4 191 -60 0 0 1 10 0 1 0 1
0 333 199 -52.001 0 0 1 10 0 1 0 1
0 -3.999 199 -52.001 0 0 1 10 0 1 0 1
phys
0 -3.999 199 -52.001 0 0 1 10 0 1 0 1
0 4 199 -60 0 0 1 10 0 1 0 1
0 4 191 -60 0 0 1 10 0 1 0 1
phys
0 4.4 191 4 0 0 1 11 0 1 0 1
0 269 191 4 0 0 1 11 0 1 0 1
0 269 199 4 0 0 1 11 0 1 0 1
phys
0 4.4 191 4 0 0 1 11 0 1 0 1
0 269 199 4 0 0 1 11 0 1 0 1
0 4.4 199 4 0 0 1 11 0 1 0 1
phys
0 269 191 4 0 0 1 11 0 1 0 1
0 4.4 191 4 0 0 1 11 0 1 0 1
0 -4 199 -4 0 0 1 11 0 1 0 1
phys
0 269 191 4 0 0 1 11 0 1 0 1
0 -4 199 -4 0 0 1 11 0 1 0 1
0 269 199 -4 0 0 1 11 0 1 0 1
phys
0 -4 199 -4 0 0 1 11 0 1 0 1
0 4.4 191 4 0 0 1 11 0 1 0 1
0 4.4 199 4 0 0 1 11 0 1 0 1
phys
0 269 199 -4 0 0 1 11 0 1 0 1
0 -4 199 -4 0 0 1 11 0 1 0 1
0 4.4 199 4 0 0 1 11 0 1 0 1
phys
0 269 199 -4 0 0 1 11 0 1 0 1
0 4.4 199 4 0 0 1 11 0 1 0 1
0 269 199 4 0 0 1 11 0 1 0 1
phys
0 269 199 4 0 0 1 11 0 1 0 1
0 269 191 4 0 0 1 11 0 1 0 1
0 269 199 -4 0 0 1 11 0 1 0 1
phys
0 56 -200 -56 0 0 1 12 0 1 0 1
0 56 -200 -60 0 0 1 12 0 1 0 1
0 0 -200 -60 0 0 1 12 0 1 0 1
phys
0 56 -200 -56 0 0 1 12 0 1 0 1
0 0 -200 -60 0 0 1 12 0 1 0 1
0 0 -200 -56 0 0 1 12 0 1 0 1
phys
0 56 -204 -60 0 0 1 12 0 1 0 1
0 56 -204 -56 0 0 1 12 0 1 0 1
0 0 -204 -56 0 0 1 12 0 1 0 1
phys
0 56 -204 -60 0 0 1 12 0 1 0 1
0 0 -204 -56 0 0 1 12 0 1 0 1
0 0 -204 -60 0 0 1 12 0 1 0 1
phys
0 0 -204 -60 0 0 1 12 0 1 0 1
0 0 -204 -56 0 0 1 12 0 1 0 1
0 0 -200 -56 0 0 1 12 0 1 0 1
phys
0 0 -204 -60 0 0 1 12 0 1 0 1
0 0 -200 -56 0 0 1 12 0 1 0 1
0 0 -200 -60 0 0 1 12 0 1 0 1
phys
0 56 -204 -56 0 0 1 12 0 1 0 1
0 56 -204 -60 0 0 1 12 0 1 0 1
0 56 -200 -60 0 0 1 12 0 1 0 1
phys
0 56 -204 -56 0 0 1 12 0 1 0 1
0 56 -200 -60 0 0 1 12 0 1 0 1
0 56 -200 -56 0 0 1 12 0 1 0 1
phys
0 56 -204 -60 0 0 1 12 0 1 0 1
0 0 -204 -60 0 0 1 12 0 1 0 1
0 0 -200 -60 0 0 1 12 0 1 0 1
phys
0 56 -204 -60 0 0 1 12 0 1 0 1
0 0 -200 -60 0 0 1 12 0 1 0 1
0 56 -200 -60 0 0 1 12 0 1 0 1
phys
0 0 -204 -56 0 0 1 12 0 1 0 1
0 56 -204 -56 0 0 1 12 0 1 0 1
0 56 -200 -56 0 0 1 12 0 1 0 1
phys
0 0 -204 -56 0 0 1 12 0 1 0 1
0 56 -200 -56 0 0 1 12 0 1 0 1
0 0 -200 -56 0 0 1 12 0 1 0 1
end
