version 1
nodes
0 "root" -1
end
skeleton
time 0
0 0 0 0 0 0 0
end
triangles
phys
0 86 -89 316 0 0 1 1 0 1 0 1
0 86 -89 307 0 0 1 1 0 1 0 1
0 22 -89 307 0 0 1 1 0 1 0 1
phys
0 86 -89 316 0 0 1 1 0 1 0 1
0 22 -89 307 0 0 1 1 0 1 0 1
0 22 -89 316 0 0 1 1 0 1 0 1
phys
0 86 -95 315.0001 0 0 1 1 0 1 0 1
0 86 -95 316 0 0 1 1 0 1 0 1
0 22 -95 316 0 0 1 1 0 1 0 1
phys
0 86 -95 315.0001 0 0 1 1 0 1 0 1
0 22 -95 316 0 0 1 1 0 1 0 1
0 22 -95 315.0001 0 0 1 1 0 1 0 1
phys
0 22 -95 315.0001 0 0 1 1 0 1 0 1
0 22 -95 316 0 0 1 1 0 1 0 1
0 22 -89 316 0 0 1 1 0 1 0 1
phys
0 22 -95 315.0001 0 0 1 1 0 1 0 1
0 22 -89 316 0 0 1 1 0 1 0 1
0 22 -89 307 0 0 1 1 0 1 0 1
phys
0 22 -95 315.0001 0 0 1 1 0 1 0 1
0 22 -89 307 0 0 1 1 0 1 0 1
0 22 -91 307 0 0 1 1 0 1 0 1
phys
0 86 -95 316 0 0 1 1 0 1 0 1
0 86 -95 315.0001 0 0 1 1 0 1 0 1
0 86 -91 307 0 0 1 1 0 1 0 1
phys
0 86 -95 316 0 0 1 1 0 1 0 1
0 86 -91 307 0 0 1 1 0 1 0 1
0 86 -89 307 0 0 1 1 0 1 0 1
phys
0 86 -95 316 0 0 1 1 0 1 0 1
0 86 -89 307 0 0 1 1 0 1 0 1
0 86 -89 316 0 0 1 1 0 1 0 1
phys
0 22 -91 307 0 0 1 1 0 1 0 1
0 22 -89 307 0 0 1 1 0 1 0 1
0 86 -89 307 0 0 1 1 0 1 0 1
phys
0 22 -91 307 0 0 1 1 0 1 0 1
0 86 -89 307 0 0 1 1 0 1 0 1
0 86 -91 307 0 0 1 1 0 1 0 1
phys
0 22 -95 316 0 0 1 1 0 1 0 1
0 86 -95 316 0 0 1 1 0 1 0 1
0 86 -89 316 0 0 1 1 0 1 0 1
phys
0 22 -95 316 0 0 1 1 0 1 0 1
0 86 -89 316 0 0 1 1 0 1 0 1
0 22 -89 316 0 0 1 1 0 1 0 1
phys
0 86 -95 315.0001 0 0 1 1 0 1 0 1
0 22 -95 315.0001 0 0 1 1 0 1 0 1
0 22 -91 307 0 0 1 1 0 1 0 1
phys
0 86 -95 315.0001 0 0 1 1 0 1 0 1
0 22 -91 307 0 0 1 1 0 1 0 1
0 86 -91 307 0 0 1 1 0 1 0 1
phys
0 -4 -79 117.988 0 0 1 2 0 1 0 1
0 -4 -79 0 0 0 1 2 0 1 0 1
0 -8 -79 0 0 0 1 2 0 1 0 1
phys
0 -4 -79 117.988 0 0 1 2 0 1 0 1
0 -8 -79 0 0 0 1 2 0 1 0 1
0 -8 -79 113.988 0 0 1 2 0 1 0 1
phys
0 -4 -89 0 0 0 1 2 0 1 0 1
0 -4 -89 118.002 0 0 1 2 0 1 0 1
0 -8 -89 114.002 0 0 1 2 0 1 0 1
phys
0 -4 -89 0 0 0 1 2 0 1 0 1
0 -8 -89 114.002 0 0 1 2 0 1 0 1
0 -8 -89 0 0 0 1 2 0 1 0 1
phys
0 -8 -89 0 0 0 1 2 0 1 0 1
0 -8 -89 114.002 0 0 1 2 0 1 0 1
0 -8 -79 113.988 0 0 1 2 0 1 0 1
phys
0 -8 -89 0 0 0 1 2 0 1 0 1
0 -8 -79 113.988 0 0 1 2 0 1 0 1
0 -8 -79 0 0 0 1 2 0 1 0 1
phys
0 -4 -89 118.002 0 0 1 2 0 1 0 1
0 -4 -89 0 0 0 1 2 0 1 0 1
0 -4 -79 0 0 0 1 2 0 1 0 1
phys
0 -4 -89 118.002 0 0 1 2 0 1 0 1
0 -4 -79 0 0 0 1 2 0 1 0 1
0 -4 -79 117.988 0 0 1 2 0 1 0 1
phys
0 -4 -89 0 0 0 1 2 0 1 0 1
0 -8 -89 0 0 0 1 2 0 1 0 1
0 -8 -79 0 0 0 1 2 0 1 0 1
phys
0 -4 -89 0 0 0 1 2 0 1 0 1
0 -8 -79 0 0 0 1 2 0 1 0 1
0 -4 -79 0 0 0 1 2 0 1 0 1
phys
0 -8 -89 114.002 0 0 1 2 0 1 0 1
0 -4 -89 118.002 0 0 1 2 0 1 0 1
0 -4 -79 117.988 0 0 1 2 0 1 0 1
phys
0 -8 -89 114.002 0 0 1 2 0 1 0 1
0 -4 -79 117.988 0 0 1 2 0 1 0 1
0 -8 -79 113.988 0 0 1 2 0 1 0 1
phys
0 -84 -89 117.996 0 0 1 3 0 1 0 1
0 -80 -89 113.996 0 0 1 3 0 1 0 1
0 -80 -79 113.996 0 0 1 3 0 1 0 1
phys
0 -84 -89 117.996 0 0 1 3 0 1 0 1
0 -80 -79 113.996 0 0 1 3 0 1 0 1
0 -84 -79 117.996 0 0 1 3 0 1 0 1
phys
0 -84 -79 0 0 0 1 3 0 1 0 1
0 -84 -79 117.996 0 0 1 3 0 1 0 1
0 -80 -79 113.996 0 0 1 3 0 1 0 1
phys
0 -84 -79 0 0 0 1 3 0 1 0 1
0 -80 -79 113.996 0 0 1 3 0 1 0 1
0 -80 -79 0 0 0 1 3 0 1 0 1
phys
0 -80 -89 0 0 0 1 3 0 1 0 1
0 -80 -89 113.996 0 0 1 3 0 1 0 1
0 -84 -89 117.996 0 0 1 3 0 1 0 1
phys
0 -80 -89 0 0 0 1 3 0 1 0 1
0 -84 -89 117.996 0 0 1 3 0 1 0 1
0 -84 -89 0 0 0 1 3 0 1 0 1
phys
0 -84 -89 0 0 0 1 3 0 1 0 1
0 -84 -89 117.996 0 0 1 3 0 1 0 1
0 -84 -79 117.996 0 0 1 3 0 1 0 1
phys
0 -84 -89 0 0 0 1 3 0 1 0 1
0 -84 -79 117.996 0 0 1 3 0 1 0 1
0 -84 -79 0 0 0 1 3 0 1 0 1
phys
0 -80 -79 0 0 0 1 3 0 1 0 1
0 -80 -79 113.996 0 0 1 3 0 1 0 1
0 -80 -89 113.996 0 0 1 3 0 1 0 1
phys
0 -80 -79 0 0 0 1 3 0 1 0 1
0 -80 -89 113.996 0 0 1 3 0 1 0 1
0 -80 -89 0 0 0 1 3 0 1 0 1
phys
0 -84 -79 0 0 0 1 3 0 1 0 1
0 -80 -79 0 0 0 1 3 0 1 0 1
0 -80 -89 0 0 0 1 3 0 1 0 1
phys
0 -84 -79 0 0 0 1 3 0 1 0 1
0 -80 -89 0 0 0 1 3 0 1 0 1
0 -84 -89 0 0 0 1 3 0 1 0 1
phys
0 -42 -91 307 0 0 1 4 0 1 0 1
0 -106 -91 307 0 0 1 4 0 1 0 1
0 -106 -89 307 0 0 1 4 0 1 0 1
phys
0 -42 -91 307 0 0 1 4 0 1 0 1
0 -106 -89 307 0 0 1 4 0 1 0 1
0 -42 -89 307 0 0 1 4 0 1 0 1
phys
0 -106 -95 316 0 0 1 4 0 1 0 1
0 -42 -95 316 0 0 1 4 0 1 0 1
0 -42 -89 316 0 0 1 4 0 1 0 1
phys
0 -106 -95 316 0 0 1 4 0 1 0 1
0 -42 -89 316 0 0 1 4 0 1 0 1
0 -106 -89 316 0 0 1 4 0 1 0 1
phys
0 -42 -95 315.0001 0 0 1 4 0 1 0 1
0 -106 -95 315.0001 0 0 1 4 0 1 0 1
0 -106 -91 307 0 0 1 4 0 1 0 1
phys
0 -42 -95 315.0001 0 0 1 4 0 1 0 1
0 -106 -91 307 0 0 1 4 0 1 0 1
0 -42 -91 307 0 0 1 4 0 1 0 1
phys
0 -42 -89 307 0 0 1 4 0 1 0 1
0 -106 -89 307 0 0 1 4 0 1 0 1
0 -106 -89 316 0 0 1 4 0 1 0 1
phys
0 -42 -89 307 0 0 1 4 0 1 0 1
0 -106 -89 316 0 0 1 4 0 1 0 1
0 -42 -89 316 0 0 1 4 0 1 0 1
phys
0 -42 -95 316 0 0 1 4 0 1 0 1
0 -106 -95 316 0 0 1 4 0 1 0 1
0 -106 -95 315.0001 0 0 1 4 0 1 0 1
phys
0 -42 -95 316 0 0 1 4 0 1 0 1
0 -106 -95 315.0001 0 0 1 4 0 1 0 1
0 -42 -95 315.0001 0 0 1 4 0 1 0 1
phys
0 -106 -95 316 0 0 1 4 0 1 0 1
0 -106 -89 316 0 0 1 4 0 1 0 1
0 -106 -89 307 0 0 1 4 0 1 0 1
phys
0 -106 -95 316 0 0 1 4 0 1 0 1
0 -106 -89 307 0 0 1 4 0 1 0 1
0 -106 -91 307 0 0 1 4 0 1 0 1
phys
0 -106 -95 316 0 0 1 4 0 1 0 1
0 -106 -91 307 0 0 1 4 0 1 0 1
0 -106 -95 315.0001 0 0 1 4 0 1 0 1
phys
0 -42 -91 307 0 0 1 4 0 1 0 1
0 -42 -89 307 0 0 1 4 0 1 0 1
0 -42 -89 316 0 0 1 4 0 1 0 1
phys
0 -42 -91 307 0 0 1 4 0 1 0 1
0 -42 -89 316 0 0 1 4 0 1 0 1
0 -42 -95 316 0 0 1 4 0 1 0 1
phys
0 -42 -91 307 0 0 1 4 0 1 0 1
0 -42 -95 316 0 0 1 4 0 1 0 1
0 -42 -95 315.0001 0 0 1 4 0 1 0 1
phys
0 -8 -79 114 0 0 1 5 0 1 0 1
0 -80 -79 114 0 0 1 5 0 1 0 1
0 -84 -79 118 0 0 1 5 0 1 0 1
phys
0 -8 -79 114 0 0 1 5 0 1 0 1
0 -84 -79 118 0 0 1 5 0 1 0 1
0 -4 -79 118 0 0 1 5 0 1 0 1
phys
0 -4 -89 118 0 0 1 5 0 1 0 1
0 -84 -89 118 0 0 1 5 0 1 0 1
0 -80 -89 114 0 0 1 5 0 1 0 1
phys
0 -4 -89 118 0 0 1 5 0 1 0 1
0 -80 -89 114 0 0 1 5 0 1 0 1
0 -8 -89 114 0 0 1 5 0 1 0 1
phys
0 -8 -89 114 0 0 1 5 0 1 0 1
0 -80 -89 114 0 0 1 5 0 1 0 1
0 -80 -79 114 0 0 1 5 0 1 0 1
phys
0 -8 -89 114 0 0 1 5 0 1 0 1
0 -80 -79 114 0 0 1 5 0 1 0 1
0 -8 -79 114 0 0 1 5 0 1 0 1
phys
0 -84 -89 118 0 0 1 5 0 1 0 1
0 -4 -89 118 0 0 1 5 0 1 0 1
0 -4 -79 118 0 0 1 5 0 1 0 1
phys
0 -84 -89 118 0 0 1 5 0 1 0 1
0 -4 -79 118 0 0 1 5 0 1 0 1
0 -84 -79 118 0 0 1 5 0 1 0 1
phys
0 -4 -89 118 0 0 1 5 0 1 0 1
0 -8 -89 114 0 0 1 5 0 1 0 1
0 -8 -79 114 0 0 1 5 0 1 0 1
phys
0 -4 -89 118 0 0 1 5 0 1 0 1
0 -8 -79 114 0 0 1 5 0 1 0 1
0 -4 -79 118 0 0 1 5 0 1 0 1
phys
0 -80 -89 114 0 0 1 5 0 1 0 1
0 -84 -89 118 0 0 1 5 0 1 0 1
0 -84 -79 118 0 0 1 5 0 1 0 1
phys
0 -80 -89 114 0 0 1 5 0 1 0 1
0 -84 -79 118 0 0 1 5 0 1 0 1
0 -80 -79 114 0 0 1 5 0 1 0 1
phys
0 -4 -89 134 0 0 1 6 0 1 0 1
0 -4 -89 117 0 0 1 6 0 1 0 1
0 -84 -89 117 0 0 1 6 0 1 0 1
phys
0 -4 -89 134 0 0 1 6 0 1 0 1
0 -84 -89 117 0 0 1 6 0 1 0 1
0 -84 -89 134 0 0 1 6 0 1 0 1
phys
0 -4 -101 126.999 0 0 1 6 0 1 0 1
0 -4 -101 134 0 0 1 6 0 1 0 1
0 -84 -101 134 0 0 1 6 0 1 0 1
phys
0 -4 -101 126.999 0 0 1 6 0 1 0 1
0 -84 -101 134 0 0 1 6 0 1 0 1
0 -84 -101 126.999 0 0 1 6 0 1 0 1
phys
0 -84 -101 126.999 0 0 1 6 0 1 0 1
0 -84 -101 134 0 0 1 6 0 1 0 1
0 -84 -89 134 0 0 1 6 0 1 0 1
phys
0 -84 -101 126.999 0 0 1 6 0 1 0 1
0 -84 -89 134 0 0 1 6 0 1 0 1
0 -84 -89 117 0 0 1 6 0 1 0 1
phys
0 -84 -101 126.999 0 0 1 6 0 1 0 1
0 -84 -89 117 0 0 1 6 0 1 0 1
0 -84 -91 117 0 0 1 6 0 1 0 1
phys
0 -4 -101 134 0 0 1 6 0 1 0 1
0 -4 -101 126.999 0 0 1 6 0 1 0 1
0 -4 -91 117 0 0 1 6 0 1 0 1
phys
0 -4 -101 134 0 0 1 6 0 1 0 1
0 -4 -91 117 0 0 1 6 0 1 0 1
0 -4 -89 117 0 0 1 6 0 1 0 1
phys
0 -4 -101 134 0 0 1 6 0 1 0 1
0 -4 -89 117 0 0 1 6 0 1 0 1
0 -4 -89 134 0 0 1 6 0 1 0 1
phys
0 -84 -91 117 0 0 1 6 0 1 0 1
0 -84 -89 117 0 0 1 6 0 1 0 1
0 -4 -89 117 0 0 1 6 0 1 0 1
phys
0 -84 -91 117 0 0 1 6 0 1 0 1
0 -4 -89 117 0 0 1 6 0 1 0 1
0 -4 -91 117 0 0 1 6 0 1 0 1
phys
0 -84 -101 134 0 0 1 6 0 1 0 1
0 -4 -101 134 0 0 1 6 0 1 0 1
0 -4 -89 134 0 0 1 6 0 1 0 1
phys
0 -84 -101 134 0 0 1 6 0 1 0 1
0 -4 -89 134 0 0 1 6 0 1 0 1
0 -84 -89 134 0 0 1 6 0 1 0 1
phys
0 -4 -101 126.999 0 0 1 6 0 1 0 1
0 -84 -101 126.999 0 0 1 6 0 1 0 1
0 -84 -91 117 0 0 1 6 0 1 0 1
phys
0 -4 -101 126.999 0 0 1 6 0 1 0 1
0 -84 -91 117 0 0 1 6 0 1 0 1
0 -4 -91 117 0 0 1 6 0 1 0 1
phys
0 99 60 183 0 0 1 7 0 1 0 1
0 75 60 183 0 0 1 7 0 1 0 1
0 75 60 0 0 0 1 7 0 1 0 1
phys
0 99 60 183 0 0 1 7 0 1 0 1
0 75 60 0 0 0 1 7 0 1 0 1
0 99 60 0 0 0 1 7 0 1 0 1
phys
0 67 68 183 0 0 1 7 0 1 0 1
0 67 92 183 0 0 1 7 0 1 0 1
0 67 92 0 0 0 1 7 0 1 0 1
phys
0 67 68 183 0 0 1 7 0 1 0 1
0 67 92 0 0 0 1 7 0 1 0 1
0 67 68 0 0 0 1 7 0 1 0 1
phys
0 107 68 0 0 0 1 7 0 1 0 1
0 107 92 0 0 0 1 7 0 1 0 1
0 107 92 183 0 0 1 7 0 1 0 1
phys
0 107 68 0 0 0 1 7 0 1 0 1
0 107 92 183 0 0 1 7 0 1 0 1
0 107 68 183 0 0 1 7 0 1 0 1
phys
0 99 60 0 0 0 1 7 0 1 0 1
0 75 60 0 0 0 1 7 0 1 0 1
0 67 68 0 0 0 1 7 0 1 0 1
phys
0 99 60 0 0 0 1 7 0 1 0 1
0 67 68 0 0 0 1 7 0 1 0 1
0 67 92 0 0 0 1 7 0 1 0 1
phys
0 99 60 0 0 0 1 7 0 1 0 1
0 67 92 0 0 0 1 7 0 1 0 1
0 75 100 0 0 0 1 7 0 1 0 1
phys
0 99 60 0 0 0 1 7 0 1 0 1
0 75 100 0 0 0 1 7 0 1 0 1
0 99 100 0 0 0 1 7 0 1 0 1
phys
0 99 60 0 0 0 1 7 0 1 0 1
0 99 100 0 0 0 1 7 0 1 0 1
0 107 92 0 0 0 1 7 0 1 0 1
phys
0 99 60 0 0 0 1 7 0 1 0 1
0 107 92 0 0 0 1 7 0 1 0 1
0 107 68 0 0 0 1 7 0 1 0 1
phys
0 75 60 183 0 0 1 7 0 1 0 1
0 99 60 183 0 0 1 7 0 1 0 1
0 107 68 183 0 0 1 7 0 1 0 1
phys
0 75 60 183 0 0 1 7 0 1 0 1
0 107 68 183 0 0 1 7 0 1 0 1
0 107 92 183 0 0 1 7 0 1 0 1
phys
0 75 60 183 0 0 1 7 0 1 0 1
0 107 92 183 0 0 1 7 0 1 0 1
0 99 100 183 0 0 1 7 0 1 0 1
phys
0 75 60 183 0 0 1 7 0 1 0 1
0 99 100 183 0 0 1 7 0 1 0 1
0 75 100 183 0 0 1 7 0 1 0 1
phys
0 75 60 183 0 0 1 7 0 1 0 1
0 75 100 183 0 0 1 7 0 1 0 1
0 67 92 183 0 0 1 7 0 1 0 1
phys
0 75 60 183 0 0 1 7 0 1 0 1
0 67 92 183 0 0 1 7 0 1 0 1
0 67 68 183 0 0 1 7 0 1 0 1
phys
0 107 92 183 0 0 1 7 0 1 0 1
0 107 92 0 0 0 1 7 0 1 0 1
0 99 100 0 0 0 1 7 0 1 0 1
phys
0 107 92 183 0 0 1 7 0 1 0 1
0 99 100 0 0 0 1 7 0 1 0 1
0 99 100 183 0 0 1 7 0 1 0 1
phys
0 67 92 0 0 0 1 7 0 1 0 1
0 67 92 183 0 0 1 7 0 1 0 1
0 75 100 183 0 0 1 7 0 1 0 1
phys
0 67 92 0 0 0 1 7 0 1 0 1
0 75 100 183 0 0 1 7 0 1 0 1
0 75 100 0 0 0 1 7 0 1 0 1
phys
0 75 60 0 0 0 1 7 0 1 0 1
0 75 60 183 0 0 1 7 0 1 0 1
0 67 68 183 0 0 1 7 0 1 0 1
phys
0 75 60 0 0 0 1 7 0 1 0 1
0 67 68 183 0 0 1 7 0 1 0 1
0 67 68 0 0 0 1 7 0 1 0 1
phys
0 99 60 183 0 0 1 7 0 1 0 1
0 99 60 0 0 0 1 7 0 1 0 1
0 107 68 0 0 0 1 7 0 1 0 1
phys
0 99 60 183 0 0 1 7 0 1 0 1
0 107 68 0 0 0 1 7 0 1 0 1
0 107 68 183 0 0 1 7 0 1 0 1
phys
0 99 100 0 0 0 1 7 0 1 0 1
0 75 100 0 0 0 1 7 0 1 0 1
0 75 100 183 0 0 1 7 0 1 0 1
phys
0 99 100 0 0 0 1 7 0 1 0 1
0 75 100 183 0 0 1 7 0 1 0 1
0 99 100 183 0 0 1 7 0 1 0 1
end
