version 1
nodes
0 "root" -1
end
skeleton
time 0
0 0 0 0 0 0 0
end
triangles
concrete_concretewall001a
0 148 -42 -92 0 1 0 167.093099 -1.59375 1 0 1
0 92 -42 -92 0 1 0 167.822266 -1.59375 1 0 1
0 94 -42 -90 0 1 0 167.796224 -1.567708 1 0 1
concrete_concretewall001a
0 148 -42 -92 0 1 0 167.093099 -1.59375 1 0 1
0 94 -42 -90 0 1 0 167.796224 -1.567708 1 0 1
0 146 -42 -90 0 1 0 167.119141 -1.567708 1 0 1
concrete_concretewall001a
0 146 -46 -90 0 -1 0 167.119141 -1.567708 1 0 1
0 94 -46 -90 0 -1 0 167.796224 -1.567708 1 0 1
0 92 -46 -92 0 -1 0 167.822266 -1.59375 1 0 1
concrete_concretewall001a
0 146 -46 -90 0 -1 0 167.119141 -1.567708 1 0 1
0 92 -46 -92 0 -1 0 167.822266 -1.59375 1 0 1
0 148 -46 -92 0 -1 0 167.093099 -1.59375 1 0 1
concrete_concretewall001a
0 94 -46 -90 0 0 1 167.796224 -43.567708 1 0 1
0 146 -46 -90 0 0 1 167.119141 -43.567708 1 0 1
0 146 -42 -90 0 0 1 167.119141 -43.515625 1 0 1
concrete_concretewall001a
0 94 -46 -90 0 0 1 167.796224 -43.567708 1 0 1
0 146 -42 -90 0 0 1 167.119141 -43.515625 1 0 1
0 94 -42 -90 0 0 1 167.796224 -43.515625 1 0 1
pepsi2_gta4_churchstairs
0 191 136 -24.001 0 -1 0 -167.193359 -0.208346 1 0 1
0 191 136 -8 0 -1 0 -167.193359 0 1 0 1
0 144 136 -8 0 -1 0 -167.805339 0 1 0 1
pepsi2_gta4_churchstairs
0 191 136 -24.001 0 -1 0 -167.193359 -0.208346 1 0 1
0 144 136 -8 0 -1 0 -167.805339 0 1 0 1
0 144 136 -24.001 0 -1 0 -167.805339 -0.208346 1 0 1
pepsi2_gta4_churchfloor
0 144 136 -24.001 -1 0 0 57.690545 17.962767 1 0 1
0 144 136 -8 -1 0 0 57.753049 18.05116 1 0 1
0 144 152 -8 -1 0 0 57.815549 17.962773 1 0 1
pepsi2_gta4_churchstairs
0 144 136 -8 0 0 1 -167.805339 -41.207682 1 0 1
0 191 136 -8 0 0 1 -167.193359 -41.207682 1 0 1
0 191 152 -8 0 0 1 -167.193359 -40.999349 1 0 1
pepsi2_gta4_churchstairs
0 144 136 -8 0 0 1 -167.805339 -41.207682 1 0 1
0 191 152 -8 0 0 1 -167.193359 -40.999349 1 0 1
0 144 152 -8 0 0 1 -167.805339 -40.999349 1 0 1
concrete_concretewall001a
0 -46 202 38 -1 0 0 -40.934245 -0.567057 1 0 1
0 -46 253 38 -1 0 0 -40.270182 -0.567057 1 0 1
0 -46 255 36 -1 0 0 -40.244141 -0.593099 1 0 1
concrete_concretewall001a
0 -46 202 38 -1 0 0 -40.934245 -0.567057 1 0 1
0 -46 255 36 -1 0 0 -40.244141 -0.593099 1 0 1
0 -46 200 36 -1 0 0 -40.960286 -0.593099 1 0 1
concrete_concretewall001a
0 -42 200 36 1 0 0 -40.960286 -0.593099 1 0 1
0 -42 255 36 1 0 0 -40.244141 -0.593099 1 0 1
0 -42 253 38 1 0 0 -40.270182 -0.567057 1 0 1
concrete_concretewall001a
0 -42 200 36 1 0 0 -40.960286 -0.593099 1 0 1
0 -42 253 38 1 0 0 -40.270182 -0.567057 1 0 1
0 -42 202 38 1 0 0 -40.934245 -0.567057 1 0 1
concrete_concretewall001a
0 -42 202 38 0 0 1 -40.934245 -168.516276 1 0 1
0 -42 253 38 0 0 1 -40.270182 -168.516276 1 0 1
0 -46 253 38 0 0 1 -40.270182 -168.568359 1 0 1
concrete_concretewall001a
0 -42 202 38 0 0 1 -40.934245 -168.516276 1 0 1
0 -46 253 38 0 0 1 -40.270182 -168.568359 1 0 1
0 -46 202 38 0 0 1 -40.934245 -168.568359 1 0 1
goldeneye_caverns_cavernsconcretefloor02
0 -159 -266 -252 0 0 1 95.38491 27.727575 1 0 1
0 -133 -280 -252 0 0 1 95.196832 27.828848 1 0 1
0 -127 -268 -252 0 0 1 95.153429 27.742043 1 0 1
goldeneye_caverns_cavernsconcretefloor02
0 -159 -266 -252 0 0 1 95.38491 27.727575 1 0 1
0 -127 -268 -252 0 0 1 95.153429 27.742043 1 0 1
0 -151 -256 -252 0 0 1 95.32704 27.655237 1 0 1
goldeneye_caverns_cavernsconcretefloor02
0 -133 -280 -252 -0.4741 -0.880471 0 70.569798 8.414923 1 0 1
0 -159 -266 -252 -0.4741 -0.880471 0 70.782938 8.429164 1 0 1
0 -159 -266 -256 -0.4741 -0.880471 0 70.781019 8.458035 1 0 1
goldeneye_caverns_cavernsconcretefloor02
0 -133 -280 -252 -0.4741 -0.880471 0 70.569798 8.414923 1 0 1
0 -159 -266 -256 -0.4741 -0.880471 0 70.781019 8.458035 1 0 1
0 -133 -280 -256 -0.4741 -0.880471 0 70.56788 8.443795 1 0 1
concrete_concretewall001a
0 -46 137 -90 -1 0 0 -41.997396 -1.567708 1 0 1
0 -46 181 -90 -1 0 0 -41.424479 -1.567708 1 0 1
0 -46 183 -92 -1 0 0 -41.398438 -1.59375 1 0 1
concrete_concretewall001a
0 -46 137 -90 -1 0 0 -41.997396 -1.567708 1 0 1
0 -46 183 -92 -1 0 0 -41.398438 -1.59375 1 0 1
0 -46 135 -92 -1 0 0 -42.023438 -1.59375 1 0 1
concrete_concretewall001a
0 -42 135 -92 1 0 0 -42.023438 -1.59375 1 0 1
0 -42 183 -92 1 0 0 -41.398438 -1.59375 1 0 1
0 -42 181 -90 1 0 0 -41.424479 -1.567708 1 0 1
concrete_concretewall001a
0 -42 135 -92 1 0 0 -42.023438 -1.59375 1 0 1
0 -42 181 -90 1 0 0 -41.424479 -1.567708 1 0 1
0 -42 137 -90 1 0 0 -41.997396 -1.567708 1 0 1
concrete_concretewall001a
0 -42 137 -90 0 0 1 -41.997396 -168.516276 1 0 1
0 -42 181 -90 0 0 1 -41.424479 -168.516276 1 0 1
0 -46 181 -90 0 0 1 -41.424479 -168.568359 1 0 1
concrete_concretewall001a
0 -42 137 -90 0 0 1 -41.997396 -168.516276 1 0 1
0 -46 181 -90 0 0 1 -41.424479 -168.568359 1 0 1
0 -46 137 -90 0 0 1 -41.997396 -168.568359 1 0 1
concrete_concretewall001a
0 -42 194 -135 0 1 0 -170.104167 -2.153646 1 0 1
0 -42 194 -218 0 1 0 -170.104167 -3.234375 1 0 1
0 -46 194 -218 0 1 0 -170.15625 -3.234375 1 0 1
concrete_concretewall001a
0 -42 194 -135 0 1 0 -170.104167 -2.153646 1 0 1
0 -46 194 -218 0 1 0 -170.15625 -3.234375 1 0 1
0 -46 194 -135 0 1 0 -170.15625 -2.153646 1 0 1
concrete_concretewall001a
0 -46 192 -220 -1 0 0 40.921875 -3.260417 1 0 1
0 -46 192 -133 -1 0 0 40.921875 -2.127604 1 0 1
0 -46 194 -135 -1 0 0 40.895833 -2.153646 1 0 1
concrete_concretewall001a
0 -46 192 -220 -1 0 0 40.921875 -3.260417 1 0 1
0 -46 194 -135 -1 0 0 40.895833 -2.153646 1 0 1
0 -46 194 -218 -1 0 0 40.895833 -3.234375 1 0 1
concrete_concretewall001a
0 -42 192 -133 1 0 0 40.921875 -2.127604 1 0 1
0 -42 192 -220 1 0 0 40.921875 -3.260417 1 0 1
0 -42 194 -218 1 0 0 40.895833 -3.234375 1 0 1
concrete_concretewall001a
0 -42 192 -133 1 0 0 40.921875 -2.127604 1 0 1
0 -42 194 -218 1 0 0 40.895833 -3.234375 1 0 1
0 -42 194 -135 1 0 0 40.895833 -2.153646 1 0 1
concrete_concretewall001a
0 -19 19.64 -139.724 -0.712104 -0.702074 0 88.929429 -2.215156 1 0 1
0 -19 19.64 -252 -0.712104 -0.702074 0 88.929429 -3.677083 1 0 1
0 -16.2 16.8 -252 -0.712104 -0.702074 0 88.877501 -3.677083 1 0 1
concrete_concretewall001a
0 -19 19.64 -139.724 -0.712104 -0.702074 0 88.929429 -2.215156 1 0 1
0 -16.2 16.8 -252 -0.712104 -0.702074 0 88.877501 -3.677083 1 0 1
0 -16.2 16.8 -143.749 -0.712104 -0.702074 0 88.877501 -2.267565 1 0 1
concrete_concretewall001a
0 -16.2 16.8 -143.749 0.705444 -0.708766 0 149.87005 -2.267565 1 0 1
0 -16.2 16.8 -252 0.705444 -0.708766 0 149.87005 -3.677083 1 0 1
0 -9.8 23.17 -252 0.705444 -0.708766 0 149.752476 -3.677083 1 0 1
concrete_concretewall001a
0 -16.2 16.8 -143.749 0.705444 -0.708766 0 149.87005 -2.267565 1 0 1
0 -9.8 23.17 -252 0.705444 -0.708766 0 149.752476 -3.677083 1 0 1
0 -9.8 23.17 -143.748 0.705444 -0.708766 0 149.752476 -2.267552 1 0 1
pepsi2_arch_concrete_floor_smooth01
0 -12.6 26 -139.730154 -0.704887 0.70932 0 -101.207813 -1.661954 1 0 1
0 -12.6 26 -252 -0.704887 0.70932 0 -101.207813 -2.539062 1 0 1
0 -19 19.64 -252 -0.704887 0.70932 0 -101.257812 -2.539062 1 0 1
pepsi2_arch_concrete_floor_smooth01
0 -12.6 26 -139.730154 -0.704887 0.70932 0 -101.207813 -1.661954 1 0 1
0 -19 19.64 -252 -0.704887 0.70932 0 -101.257812 -2.539062 1 0 1
0 -19 19.64 -139.724 -0.704887 0.70932 0 -101.257812 -1.661906 1 0 1
concrete_concretewall001a
0 -9.8 23.17 -143.748 0.710865 0.703329 0 88.878826 -2.267552 1 0 1
0 -9.8 23.17 -252 0.710865 0.703329 0 88.878826 -3.677083 1 0 1
0 -12.6 26 -252 0.710865 0.703329 0 88.930662 -3.677083 1 0 1
concrete_concretewall001a
0 -9.8 23.17 -143.748 0.710865 0.703329 0 88.878826 -2.267552 1 0 1
0 -12.6 26 -252 0.710865 0.703329 0 88.930662 -3.677083 1 0 1
0 -12.6 26 -139.730154 0.710865 0.703329 0 88.930662 -2.215236 1 0 1
concrete_concretewall001a
0 146 -46 -218 0 -1 0 167.119141 -3.234375 1 0 1
0 94 -46 -218 0 -1 0 167.796224 -3.234375 1 0 1
0 92 -46 -220 0 -1 0 167.822266 -3.260417 1 0 1
concrete_concretewall001a
0 146 -46 -218 0 -1 0 167.119141 -3.234375 1 0 1
0 92 -46 -220 0 -1 0 167.822266 -3.260417 1 0 1
0 148 -46 -220 0 -1 0 167.093099 -3.260417 1 0 1
concrete_concretewall001a
0 94 -46 -218 0 0 1 167.796224 -43.233724 1 0 1
0 146 -46 -218 0 0 1 167.119141 -43.233724 1 0 1
0 146 -42 -218 0 0 1 167.119141 -43.181641 1 0 1
concrete_concretewall001a
0 94 -46 -218 0 0 1 167.796224 -43.233724 1 0 1
0 146 -42 -218 0 0 1 167.119141 -43.181641 1 0 1
0 94 -42 -218 0 0 1 167.796224 -43.181641 1 0 1
concrete_concretewall001a
0 148 -42 -220 0 1 0 167.093099 -3.260417 1 0 1
0 92 -42 -220 0 1 0 167.822266 -3.260417 1 0 1
0 94 -42 -218 0 1 0 167.796224 -3.234375 1 0 1
concrete_concretewall001a
0 148 -42 -220 0 1 0 167.093099 -3.260417 1 0 1
0 94 -42 -218 0 1 0 167.796224 -3.234375 1 0 1
0 146 -42 -218 0 1 0 167.119141 -3.234375 1 0 1
concrete_concretewall001a
0 92 -42 123.001071 0 1 0 167.822266 1.205743 1 0 1
0 94 -42 121.00107 0 1 0 167.796224 1.179701 1 0 1
0 94 -42 37.9988 0 1 0 167.796224 0.098943 1 0 1
concrete_concretewall001a
0 92 -42 123.001071 0 1 0 167.822266 1.205743 1 0 1
0 94 -42 37.9988 0 1 0 167.796224 0.098943 1 0 1
0 92 -42 35.9988 0 1 0 167.822266 0.072901 1 0 1
concrete_concretewall001a
0 92 -46 35.9988 0 -1 0 167.822266 0.072901 1 0 1
0 94 -46 37.9988 0 -1 0 167.796224 0.098943 1 0 1
0 94 -46 121.00107 0 -1 0 167.796224 1.179701 1 0 1
concrete_concretewall001a
0 92 -46 35.9988 0 -1 0 167.822266 0.072901 1 0 1
0 94 -46 121.00107 0 -1 0 167.796224 1.179701 1 0 1
0 92 -46 123.001071 0 -1 0 167.822266 1.205743 1 0 1
concrete_concretewall001a
0 94 -46 37.9988 1 0 0 43.796224 0.098943 1 0 1
0 94 -42 37.9988 1 0 0 43.744141 0.098943 1 0 1
0 94 -42 121.00107 1 0 0 43.744141 1.179701 1 0 1
concrete_concretewall001a
0 94 -46 37.9988 1 0 0 43.796224 0.098943 1 0 1
0 94 -42 121.00107 1 0 0 43.744141 1.179701 1 0 1
0 94 -46 121.00107 1 0 0 43.796224 1.179701 1 0 1
pepsi2_gta4_churchfloor
0 191 74 -248.001 0 0.707107 -0.707107 20.160295 100.574219 1 0 1
0 144 74 -248.001 0 0.707107 -0.707107 20.160295 100.941406 1 0 1
0 144 202 -120.001 0 0.707107 -0.707107 18.746095 100.941406 1 0 1
pepsi2_gta4_churchfloor
0 191 74 -248.001 0 0.707107 -0.707107 20.160295 100.574219 1 0 1
0 144 202 -120.001 0 0.707107 -0.707107 18.746095 100.941406 1 0 1
0 191 202 -120.001 0 0.707107 -0.707107 18.746095 100.574219 1 0 1
pepsi2_gta4_churchfloor
0 144 74 -244 -1 0 0 2.128906 26.941406 1 0 1
0 144 202 -116 -1 0 0 1.128906 25.941406 1 0 1
0 144 202 -120.001 -1 0 0 1.160164 25.941406 1 0 1
pepsi2_gta4_churchfloor
0 144 74 -244 -1 0 0 2.128906 26.941406 1 0 1
0 144 202 -120.001 -1 0 0 1.160164 25.941406 1 0 1
0 144 74 -248.001 -1 0 0 2.160164 26.941406 1 0 1
goldeneye_caverns_cavernsconcretefloor02
0 -133 -280 -252 0 0 1 95.196832 27.828848 1 0 1
0 -105 -290 -252 0 0 1 94.994285 27.901186 1 0 1
0 -101 -276 -252 0 0 1 94.96535 27.799913 1 0 1
goldeneye_caverns_cavernsconcretefloor02
0 -133 -280 -252 0 0 1 95.196832 27.828848 1 0 1
0 -101 -276 -252 0 0 1 94.96535 27.799913 1 0 1
0 -127 -268 -252 0 0 1 95.153429 27.742043 1 0 1
goldeneye_caverns_cavernsconcretefloor02
0 -105 -290 -252 -0.336336 -0.941742 0 80.362759 8.400732 1 0 1
0 -133 -280 -252 -0.336336 -0.941742 0 80.577368 8.415072 1 0 1
0 -133 -280 -256 -0.336336 -0.941742 0 80.57545 8.443944 1 0 1
goldeneye_caverns_cavernsconcretefloor02
0 -105 -290 -252 -0.336336 -0.941742 0 80.362759 8.400732 1 0 1
0 -133 -280 -256 -0.336336 -0.941742 0 80.57545 8.443944 1 0 1
0 -105 -290 -256 -0.336336 -0.941742 0 80.360841 8.429604 1 0 1
brick_brick_ext_08
0 46 -46 -252 -0.707107 -0.707107 0 -52.948111 -1 1 0 1
0 46 -46 -140 -0.707107 -0.707107 0 -52.948111 -0.125 1 0 1
0 20 -20 -140 -0.707107 -0.707107 0 -53.23537 -0.125 1 0 1
brick_brick_ext_08
0 46 -46 -252 -0.707107 -0.707107 0 -52.948111 -1 1 0 1
0 20 -20 -140 -0.707107 -0.707107 0 -53.23537 -0.125 1 0 1
0 20 -20 -252 -0.707107 -0.707107 0 -53.23537 -1 1 0 1
facepunch_bubz_gmoffices_bubz_wall
0 46 -30 -140 0.707107 0.707107 0 -106.530028 -0.125 1 0 1
0 46 -30 -252 0.707107 0.707107 0 -106.530028 -1 1 0 1
0 28 -12 -252 0.707107 0.707107 0 -106.927772 -1 1 0 1
facepunch_bubz_gmoffices_bubz_wall
0 46 -30 -140 0.707107 0.707107 0 -106.530028 -0.125 1 0 1
0 28 -12 -252 0.707107 0.707107 0 -106.927772 -1 1 0 1
0 28 -12 -140 0.707107 0.707107 0 -106.927772 -0.125 1 0 1
brick_brick_ext_08
0 20 -20 -140 -0.707107 0.707107 0 89.761828 -0.125 1 0 1
0 28 -12 -140 -0.707107 0.707107 0 89.673441 -0.125 1 0 1
0 28 -12 -252 -0.707107 0.707107 0 89.673441 -1 1 0 1
brick_brick_ext_08
0 20 -20 -140 -0.707107 0.707107 0 89.761828 -0.125 1 0 1
0 28 -12 -252 -0.707107 0.707107 0 89.673441 -1 1 0 1
0 20 -20 -252 -0.707107 0.707107 0 89.761828 -1 1 0 1
concrete_concretewall001a
0 -46 65 -135 -1 0 0 -42.934896 -2.153646 1 0 1
0 -46 63 -133 -1 0 0 -42.960938 -2.127604 1 0 1
0 -46 127 -133 -1 0 0 -42.127604 -2.127604 1 0 1
concrete_concretewall001a
0 -46 65 -135 -1 0 0 -42.934896 -2.153646 1 0 1
0 -46 127 -133 -1 0 0 -42.127604 -2.127604 1 0 1
0 -46 125 -135 -1 0 0 -42.153646 -2.153646 1 0 1
concrete_concretewall001a
0 -42 63 -133 1 0 0 -42.960938 4.768229 1 0 1
0 -42 65 -135 1 0 0 -42.934896 4.794271 1 0 1
0 -42 125 -135 1 0 0 -42.153646 4.794271 1 0 1
concrete_concretewall001a
0 -42 63 -133 1 0 0 -42.960938 4.768229 1 0 1
0 -42 125 -135 1 0 0 -42.153646 4.794271 1 0 1
0 -42 127 -133 1 0 0 -42.127604 4.768229 1 0 1
concrete_concretewall001a
0 -42 65 -135 0 0 -1 -42.934896 170.79362 1 0 1
0 -46 65 -135 0 0 -1 -42.934896 170.845703 1 0 1
0 -46 125 -135 0 0 -1 -42.153646 170.845703 1 0 1
concrete_concretewall001a
0 -42 65 -135 0 0 -1 -42.934896 170.79362 1 0 1
0 -46 125 -135 0 0 -1 -42.153646 170.845703 1 0 1
0 -42 125 -135 0 0 -1 -42.153646 170.79362 1 0 1
pepsi2_gta4_churchstairs
0 191 72 -88.001 0 -1 0 -167.193359 -1.207695 1 0 1
0 191 72 -72 0 -1 0 -167.193359 -0.999349 1 0 1
0 144 72 -72 0 -1 0 -167.805339 -0.999349 1 0 1
pepsi2_gta4_churchstairs
0 191 72 -88.001 0 -1 0 -167.193359 -1.207695 1 0 1
0 144 72 -72 0 -1 0 -167.805339 -0.999349 1 0 1
0 144 72 -88.001 0 -1 0 -167.805339 -1.207695 1 0 1
pepsi2_gta4_churchfloor
0 144 72 -88.001 -1 0 0 57.190545 17.962767 1 0 1
0 144 72 -72 -1 0 0 57.253049 18.05116 1 0 1
0 144 88 -72 -1 0 0 57.315549 17.962773 1 0 1
pepsi2_gta4_churchstairs
0 144 72 -72 0 0 1 -167.805339 -41.208984 1 0 1
0 191 72 -72 0 0 1 -167.193359 -41.208984 1 0 1
0 191 88 -72 0 0 1 -167.193359 -41.000651 1 0 1
pepsi2_gta4_churchstairs
0 144 72 -72 0 0 1 -167.805339 -41.208984 1 0 1
0 191 88 -72 0 0 1 -167.193359 -41.000651 1 0 1
0 144 88 -72 0 0 1 -167.805339 -41.000651 1 0 1
concrete_concretewall001a
0 148 -42 122.9996 0 1 0 167.093099 1.205724 1 0 1
0 148 -42 36.0002 0 1 0 167.093099 0.072919 1 0 1
0 146 -42 38.0002 0 1 0 167.119141 0.098961 1 0 1
concrete_concretewall001a
0 148 -42 122.9996 0 1 0 167.093099 1.205724 1 0 1
0 146 -42 38.0002 0 1 0 167.119141 0.098961 1 0 1
0 146 -42 120.9996 0 1 0 167.119141 1.179682 1 0 1
concrete_concretewall001a
0 148 -46 36.0002 0 -1 0 167.093099 0.072919 1 0 1
0 148 -46 122.9996 0 -1 0 167.093099 1.205724 1 0 1
0 146 -46 120.9996 0 -1 0 167.119141 1.179682 1 0 1
concrete_concretewall001a
0 148 -46 36.0002 0 -1 0 167.093099 0.072919 1 0 1
0 146 -46 120.9996 0 -1 0 167.119141 1.179682 1 0 1
0 146 -46 38.0002 0 -1 0 167.119141 0.098961 1 0 1
concrete_concretewall001a
0 146 -46 38.0002 -1 0 0 -43.880208 0.098961 1 0 1
0 146 -46 120.9996 -1 0 0 -43.880208 1.179682 1 0 1
0 146 -42 120.9996 -1 0 0 -43.828125 1.179682 1 0 1
concrete_concretewall001a
0 146 -46 38.0002 -1 0 0 -43.880208 0.098961 1 0 1
0 146 -42 120.9996 -1 0 0 -43.828125 1.179682 1 0 1
0 146 -42 38.0002 -1 0 0 -43.828125 0.098961 1 0 1
concrete_concretewall001a
0 -42 181 -90 0 -1 0 169.524089 -1.567708 1 0 1
0 -42 181 -7 0 -1 0 169.524089 -0.486979 1 0 1
0 -46 181 -7 0 -1 0 169.576172 -0.486979 1 0 1
concrete_concretewall001a
0 -42 181 -90 0 -1 0 169.524089 -1.567708 1 0 1
0 -46 181 -7 0 -1 0 169.576172 -0.486979 1 0 1
0 -46 181 -90 0 -1 0 169.576172 -1.567708 1 0 1
concrete_concretewall001a
0 -46 181 -90 -1 0 0 -41.424479 -1.567708 1 0 1
0 -46 181 -7 -1 0 0 -41.424479 -0.486979 1 0 1
0 -46 183 -5 -1 0 0 -41.398438 -0.460938 1 0 1
concrete_concretewall001a
0 -46 181 -90 -1 0 0 -41.424479 -1.567708 1 0 1
0 -46 183 -5 -1 0 0 -41.398438 -0.460938 1 0 1
0 -46 183 -92 -1 0 0 -41.398438 -1.59375 1 0 1
concrete_concretewall001a
0 -42 181 -7 1 0 0 -41.424479 -0.486979 1 0 1
0 -42 181 -90 1 0 0 -41.424479 -1.567708 1 0 1
0 -42 183 -92 1 0 0 -41.398438 -1.59375 1 0 1
concrete_concretewall001a
0 -42 181 -7 1 0 0 -41.424479 -0.486979 1 0 1
0 -42 183 -92 1 0 0 -41.398438 -1.59375 1 0 1
0 -42 183 -5 1 0 0 -41.398438 -0.460938 1 0 1
concrete_concretewall001a
0 148 -42 36 0 1 0 167.093099 0.072917 1 0 1
0 92 -42 36 0 1 0 167.822266 0.072917 1 0 1
0 94 -42 38 0 1 0 167.796224 0.098958 1 0 1
concrete_concretewall001a
0 148 -42 36 0 1 0 167.093099 0.072917 1 0 1
0 94 -42 38 0 1 0 167.796224 0.098958 1 0 1
0 146 -42 38 0 1 0 167.119141 0.098958 1 0 1
concrete_concretewall001a
0 146 -46 38 0 -1 0 167.119141 0.098958 1 0 1
0 94 -46 38 0 -1 0 167.796224 0.098958 1 0 1
0 92 -46 36 0 -1 0 167.822266 0.072917 1 0 1
concrete_concretewall001a
0 146 -46 38 0 -1 0 167.119141 0.098958 1 0 1
0 92 -46 36 0 -1 0 167.822266 0.072917 1 0 1
0 148 -46 36 0 -1 0 167.093099 0.072917 1 0 1
concrete_concretewall001a
0 94 -46 38 0 0 1 167.796224 -42.901693 1 0 1
0 146 -46 38 0 0 1 167.119141 -42.901693 1 0 1
0 146 -42 38 0 0 1 167.119141 -42.849609 1 0 1
concrete_concretewall001a
0 94 -46 38 0 0 1 167.796224 -42.901693 1 0 1
0 146 -42 38 0 0 1 167.119141 -42.849609 1 0 1
0 94 -42 38 0 0 1 167.796224 -42.849609 1 0 1
concrete_concretewall001a
0 92 -42 -4.999 0 1 0 167.822266 -0.460924 1 0 1
0 94 -42 -6.999 0 1 0 167.796224 -0.486966 1 0 1
0 94 -42 -90.001 0 1 0 167.796224 -1.567721 1 0 1
concrete_concretewall001a
0 92 -42 -4.999 0 1 0 167.822266 -0.460924 1 0 1
0 94 -42 -90.001 0 1 0 167.796224 -1.567721 1 0 1
0 92 -42 -92.001 0 1 0 167.822266 -1.593763 1 0 1
concrete_concretewall001a
0 92 -46 -92.001 0 -1 0 167.822266 -1.593763 1 0 1
0 94 -46 -90.001 0 -1 0 167.796224 -1.567721 1 0 1
0 94 -46 -6.999 0 -1 0 167.796224 -0.486966 1 0 1
concrete_concretewall001a
0 92 -46 -92.001 0 -1 0 167.822266 -1.593763 1 0 1
0 94 -46 -6.999 0 -1 0 167.796224 -0.486966 1 0 1
0 92 -46 -4.999 0 -1 0 167.822266 -0.460924 1 0 1
concrete_concretewall001a
0 94 -46 -90.001 1 0 0 43.796224 -1.567721 1 0 1
0 94 -42 -90.001 1 0 0 43.744141 -1.567721 1 0 1
0 94 -42 -6.999 1 0 0 43.744141 -0.486966 1 0 1
concrete_concretewall001a
0 94 -46 -90.001 1 0 0 43.796224 -1.567721 1 0 1
0 94 -42 -6.999 1 0 0 43.744141 -0.486966 1 0 1
0 94 -46 -6.999 1 0 0 43.796224 -0.486966 1 0 1
concrete_concretewall001a
0 -42 202 121.00026 0 1 0 -169.883464 0.513675 1 0 1
0 -42 202 37.9999 0 1 0 -169.883464 -0.567059 1 0 1
0 -46 202 37.9999 0 1 0 -169.935547 -0.567059 1 0 1
concrete_concretewall001a
0 -42 202 121.00026 0 1 0 -169.883464 0.513675 1 0 1
0 -46 202 37.9999 0 1 0 -169.935547 -0.567059 1 0 1
0 -46 202 121.00026 0 1 0 -169.935547 0.513675 1 0 1
concrete_concretewall001a
0 -46 202 121.00026 -1 0 0 -40.934245 0.513675 1 0 1
0 -46 202 37.9999 -1 0 0 -40.934245 -0.567059 1 0 1
0 -46 200 35.9999 -1 0 0 -40.960286 -0.5931 1 0 1
concrete_concretewall001a
0 -46 202 121.00026 -1 0 0 -40.934245 0.513675 1 0 1
0 -46 200 35.9999 -1 0 0 -40.960286 -0.5931 1 0 1
0 -46 200 123.000264 -1 0 0 -40.960286 0.539717 1 0 1
concrete_concretewall001a
0 -42 200 123.000264 1 0 0 -40.960286 0.539717 1 0 1
0 -42 200 35.9999 1 0 0 -40.960286 -0.5931 1 0 1
0 -42 202 37.9999 1 0 0 -40.934245 -0.567059 1 0 1
concrete_concretewall001a
0 -42 200 123.000264 1 0 0 -40.960286 0.539717 1 0 1
0 -42 202 37.9999 1 0 0 -40.934245 -0.567059 1 0 1
0 -42 202 121.00026 1 0 0 -40.934245 0.513675 1 0 1
concrete_concretewall001a
0 -42 116 -90 0 -1 0 169.676432 -1.567708 1 0 1
0 -42 116 -7 0 -1 0 169.676432 -0.486979 1 0 1
0 -46 116 -7 0 -1 0 169.728516 -0.486979 1 0 1
concrete_concretewall001a
0 -42 116 -90 0 -1 0 169.676432 -1.567708 1 0 1
0 -46 116 -7 0 -1 0 169.728516 -0.486979 1 0 1
0 -46 116 -90 0 -1 0 169.728516 -1.567708 1 0 1
concrete_concretewall001a
0 -46 116 -90 -1 0 0 -42.270833 -1.567708 1 0 1
0 -46 116 -7 -1 0 0 -42.270833 -0.486979 1 0 1
0 -46 118 -5 -1 0 0 -42.244792 -0.460938 1 0 1
concrete_concretewall001a
0 -46 116 -90 -1 0 0 -42.270833 -1.567708 1 0 1
0 -46 118 -5 -1 0 0 -42.244792 -0.460938 1 0 1
0 -46 118 -92 -1 0 0 -42.244792 -1.59375 1 0 1
concrete_concretewall001a
0 -42 116 -7 1 0 0 -42.270833 -0.486979 1 0 1
0 -42 116 -90 1 0 0 -42.270833 -1.567708 1 0 1
0 -42 118 -92 1 0 0 -42.244792 -1.59375 1 0 1
concrete_concretewall001a
0 -42 116 -7 1 0 0 -42.270833 -0.486979 1 0 1
0 -42 118 -92 1 0 0 -42.244792 -1.59375 1 0 1
0 -42 118 -5 1 0 0 -42.244792 -0.460938 1 0 1
concrete_concretewall001a
0 -46 135 123 -1 0 0 -42.023437 0.539714 1 0 1
0 -46 183 123 -1 0 0 -41.398437 0.539714 1 0 1
0 -46 181 121 -1 0 0 -41.424479 0.513672 1 0 1
concrete_concretewall001a
0 -46 135 123 -1 0 0 -42.023437 0.539714 1 0 1
0 -46 181 121 -1 0 0 -41.424479 0.513672 1 0 1
0 -46 136.68 121 -1 0 0 -42.001562 0.513672 1 0 1
concrete_concretewall001a
0 -42 136.68 121 1 0 0 -42.001563 0.513672 1 0 1
0 -42 181 121 1 0 0 -41.424479 0.513672 1 0 1
0 -42 183 123 1 0 0 -41.398438 0.539714 1 0 1
concrete_concretewall001a
0 -42 136.68 121 1 0 0 -42.001563 0.513672 1 0 1
0 -42 183 123 1 0 0 -41.398438 0.539714 1 0 1
0 -42 135 123 1 0 0 -42.023438 0.539714 1 0 1
concrete_concretewall001a
0 -46 136.68 121 0 0 -1 -42.001562 170.513672 1 0 1
0 -46 181 121 0 0 -1 -41.424479 170.513672 1 0 1
0 -42 181 121 0 0 -1 -41.424479 170.461589 1 0 1
concrete_concretewall001a
0 -46 136.68 121 0 0 -1 -42.001562 170.513672 1 0 1
0 -42 181 121 0 0 -1 -41.424479 170.461589 1 0 1
0 -42 136.68 121 0 0 -1 -42.001562 170.461589 1 0 1
pepsi2_gta4_churchstairs
0 191 106 -212 0 -1 0 99.402344 3.125 1 0 1
0 191 106 -196 0 -1 0 99.402344 3 1 0 1
0 144 106 -196 0 -1 0 99.769531 3 1 0 1
pepsi2_gta4_churchstairs
0 191 106 -212 0 -1 0 99.402344 3.125 1 0 1
0 144 106 -196 0 -1 0 99.769531 3 1 0 1
0 144 106 -212 0 -1 0 99.769531 3.125 1 0 1
pepsi2_gta4_churchfloor
0 144 106 -212 -1 0 0 1.878906 26.691406 1 0 1
0 144 106 -196 -1 0 0 1.753906 26.691406 1 0 1
0 144 122 -196 -1 0 0 1.753906 26.566406 1 0 1
pepsi2_gta4_churchstairs
0 144 106 -196 0 0 1 99.769531 26 1 0 1
0 191 106 -196 0 0 1 99.402344 26 1 0 1
0 191 122 -196 0 0 1 99.402344 25.875 1 0 1
pepsi2_gta4_churchstairs
0 144 106 -196 0 0 1 99.769531 26 1 0 1
0 191 122 -196 0 0 1 99.402344 25.875 1 0 1
0 144 122 -196 0 0 1 99.769531 25.875 1 0 1
concrete_concretewall001a
0 -46 135 -5 -1 0 0 -42.023437 -0.460938 1 0 1
0 -46 183 -5 -1 0 0 -41.398437 -0.460938 1 0 1
0 -46 181 -7 -1 0 0 -41.424479 -0.486979 1 0 1
concrete_concretewall001a
0 -46 135 -5 -1 0 0 -42.023437 -0.460938 1 0 1
0 -46 181 -7 -1 0 0 -41.424479 -0.486979 1 0 1
0 -46 136.68 -7 -1 0 0 -42.001562 -0.486979 1 0 1
concrete_concretewall001a
0 -42 136.68 -7 1 0 0 -42.001563 -0.486979 1 0 1
0 -42 181 -7 1 0 0 -41.424479 -0.486979 1 0 1
0 -42 183 -5 1 0 0 -41.398438 -0.460938 1 0 1
concrete_concretewall001a
0 -42 136.68 -7 1 0 0 -42.001563 -0.486979 1 0 1
0 -42 183 -5 1 0 0 -41.398438 -0.460938 1 0 1
0 -42 135 -5 1 0 0 -42.023438 -0.460938 1 0 1
concrete_concretewall001a
0 -46 136.68 -7 0 0 -1 -42.001562 170.513672 1 0 1
0 -46 181 -7 0 0 -1 -41.424479 170.513672 1 0 1
0 -42 181 -7 0 0 -1 -41.424479 170.461589 1 0 1
concrete_concretewall001a
0 -46 136.68 -7 0 0 -1 -42.001562 170.513672 1 0 1
0 -42 181 -7 0 0 -1 -41.424479 170.461589 1 0 1
0 -42 136.68 -7 0 0 -1 -42.001562 170.461589 1 0 1
facepunch_bubz_gmoffices_bubz_wall
0 188 -30 20 -1 0 0 -52.3125 1.125 1 0 1
0 188 -30 132 -1 0 0 -52.3125 2 1 0 1
0 188 149 132 -1 0 0 -49.515625 2 1 0 1
facepunch_bubz_gmoffices_bubz_wall
0 188 -30 20 -1 0 0 -52.3125 1.125 1 0 1
0 188 149 132 -1 0 0 -49.515625 2 1 0 1
0 188 37 20 -1 0 0 -51.265625 1.125 1 0 1
pepsi2_gta4_churchfloor
0 191 -30 20 0 0 -1 -26.621094 100.574219 1 0 1
0 188 -30 20 0 0 -1 -26.621094 100.597656 1 0 1
0 188 37 20 0 0 -1 -26.097656 100.597656 1 0 1
pepsi2_gta4_churchfloor
0 191 -30 20 0 0 -1 -26.621094 100.574219 1 0 1
0 188 37 20 0 0 -1 -26.097656 100.597656 1 0 1
0 191 37 20 0 0 -1 -26.097656 100.574219 1 0 1
pepsi2_gta4_churchfloor
0 188 37 20 0 0.707107 -0.707107 -26.097656 100.597656 1 0 1
0 188 149 132 0 0.707107 -0.707107 -25.222656 100.597656 1 0 1
0 191 149 132 0 0.707107 -0.707107 -25.222656 100.574219 1 0 1
pepsi2_gta4_churchfloor
0 188 37 20 0 0.707107 -0.707107 -26.097656 100.597656 1 0 1
0 191 149 132 0 0.707107 -0.707107 -25.222656 100.574219 1 0 1
0 191 37 20 0 0.707107 -0.707107 -26.097656 100.574219 1 0 1
concrete_concretewall001a
0 -46 200 123 -1 0 0 -40.960286 0.539714 1 0 1
0 -46 255 123 -1 0 0 -40.244141 0.539714 1 0 1
0 -46 253 121 -1 0 0 -40.270182 0.513672 1 0 1
concrete_concretewall001a
0 -46 200 123 -1 0 0 -40.960286 0.539714 1 0 1
0 -46 253 121 -1 0 0 -40.270182 0.513672 1 0 1
0 -46 202 121 -1 0 0 -40.934245 0.513672 1 0 1
concrete_concretewall001a
0 -42 202 121 1 0 0 -40.934245 0.513672 1 0 1
0 -42 253 121 1 0 0 -40.270182 0.513672 1 0 1
0 -42 255 123 1 0 0 -40.244141 0.539714 1 0 1
concrete_concretewall001a
0 -42 202 121 1 0 0 -40.934245 0.513672 1 0 1
0 -42 255 123 1 0 0 -40.244141 0.539714 1 0 1
0 -42 200 123 1 0 0 -40.960286 0.539714 1 0 1
concrete_concretewall001a
0 -46 202 121 0 0 -1 -40.934245 170.513672 1 0 1
0 -46 253 121 0 0 -1 -40.270182 170.513672 1 0 1
0 -42 253 121 0 0 -1 -40.270182 170.461589 1 0 1
concrete_concretewall001a
0 -46 202 121 0 0 -1 -40.934245 170.513672 1 0 1
0 -42 253 121 0 0 -1 -40.270182 170.461589 1 0 1
0 -42 202 121 0 0 -1 -40.934245 170.461589 1 0 1
pepsi2_gta4_churchfloor
0 188 33 20 0 0 -1 -26.128906 100.597656 1 0 1
0 132 33 20 0 0 -1 -26.128906 101.035156 1 0 1
0 132 37 20 0 0 -1 -26.097656 101.035156 1 0 1
pepsi2_gta4_churchfloor
0 188 33 20 0 0 -1 -26.128906 100.597656 1 0 1
0 132 37 20 0 0 -1 -26.097656 101.035156 1 0 1
0 188 37 20 0 0 -1 -26.097656 100.597656 1 0 1
pepsi2_gta4_churchfloor
0 188 37 20 0 0.707107 -0.707107 -26.097656 100.597656 1 0 1
0 132 37 20 0 0.707107 -0.707107 -26.097656 101.035156 1 0 1
0 132 149 132 0 0.707107 -0.707107 -25.222656 101.035156 1 0 1
pepsi2_gta4_churchfloor
0 188 37 20 0 0.707107 -0.707107 -26.097656 100.597656 1 0 1
0 132 149 132 0 0.707107 -0.707107 -25.222656 101.035156 1 0 1
0 188 149 132 0 0.707107 -0.707107 -25.222656 100.597656 1 0 1
pepsi2_gta4_churchfloor
0 132 145 132 -1 0 0 58.760746 19.058036 1 0 1
0 132 149 132 -1 0 0 58.776371 19.035939 1 0 1
0 132 37 20 -1 0 0 57.901371 19.035939 1 0 1
pepsi2_gta4_churchfloor
0 132 145 132 -1 0 0 58.760746 19.058036 1 0 1
0 132 37 20 -1 0 0 57.901371 19.035939 1 0 1
0 132 33 20 -1 0 0 57.885746 19.058036 1 0 1
concrete_concretewall001a
0 -46 200 -5 -1 0 0 -40.960286 -0.460938 1 0 1
0 -46 255 -5 -1 0 0 -40.244141 -0.460938 1 0 1
0 -46 253 -7 -1 0 0 -40.270182 -0.486979 1 0 1
concrete_concretewall001a
0 -46 200 -5 -1 0 0 -40.960286 -0.460938 1 0 1
0 -46 253 -7 -1 0 0 -40.270182 -0.486979 1 0 1
0 -46 202 -7 -1 0 0 -40.934245 -0.486979 1 0 1
concrete_concretewall001a
0 -42 202 -7 1 0 0 -40.934245 -0.486979 1 0 1
0 -42 253 -7 1 0 0 -40.270182 -0.486979 1 0 1
0 -42 255 -5 1 0 0 -40.244141 -0.460938 1 0 1
concrete_concretewall001a
0 -42 202 -7 1 0 0 -40.934245 -0.486979 1 0 1
0 -42 255 -5 1 0 0 -40.244141 -0.460938 1 0 1
0 -42 200 -5 1 0 0 -40.960286 -0.460938 1 0 1
concrete_concretewall001a
0 -46 202 -7 0 0 -1 -40.934245 170.513672 1 0 1
0 -46 253 -7 0 0 -1 -40.270182 170.513672 1 0 1
0 -42 253 -7 0 0 -1 -40.270182 170.461589 1 0 1
concrete_concretewall001a
0 -46 202 -7 0 0 -1 -40.934245 170.513672 1 0 1
0 -42 253 -7 0 0 -1 -40.270182 170.461589 1 0 1
0 -42 202 -7 0 0 -1 -40.934245 170.461589 1 0 1
pepsi2_gta4_churchstairs
0 191 120 -40.001 0 -1 0 -167.193359 -0.207695 1 0 1
0 191 120 -24 0 -1 0 -167.193359 0.000651 1 0 1
0 144 120 -24 0 -1 0 -167.805339 0.000651 1 0 1
pepsi2_gta4_churchstairs
0 191 120 -40.001 0 -1 0 -167.193359 -0.207695 1 0 1
0 144 120 -24 0 -1 0 -167.805339 0.000651 1 0 1
0 144 120 -40.001 0 -1 0 -167.805339 -0.207695 1 0 1
pepsi2_gta4_churchfloor
0 144 120 -40.001 -1 0 0 57.565545 17.962767 1 0 1
0 144 120 -24 -1 0 0 57.628049 18.05116 1 0 1
0 144 136 -24 -1 0 0 57.690549 17.962773 1 0 1
pepsi2_gta4_churchstairs
0 144 120 -24 0 0 1 -167.805339 -41.208984 1 0 1
0 191 120 -24 0 0 1 -167.193359 -41.208984 1 0 1
0 191 136 -24 0 0 1 -167.193359 -41.000651 1 0 1
pepsi2_gta4_churchstairs
0 144 120 -24 0 0 1 -167.805339 -41.208984 1 0 1
0 191 136 -24 0 0 1 -167.193359 -41.000651 1 0 1
0 144 136 -24 0 0 1 -167.805339 -41.000651 1 0 1
concrete_concretewall001a
0 24.106478 -10.753603 -143.719 0 0 -1 89.245371 150.617868 1 0 1
0 17.7 -17.08 -143.719 0 0 -1 89.246125 150.7351 1 0 1
0 -16.212146 16.797892 -143.719 0 0 -1 89.87027 150.735327 1 0 1
concrete_concretewall001a
0 24.106478 -10.753603 -143.719 0 0 -1 89.245371 150.617868 1 0 1
0 -16.212146 16.797892 -143.719 0 0 -1 89.87027 150.735327 1 0 1
0 -9.810013 23.180018 -143.719 0 0 -1 89.870069 150.617622 1 0 1
wood_woodfloor005a
0 17.7 -17.08 -143.719 0.493229 -0.499472 -0.712217 -18.162287 104.229035 1 0 1
0 24.106478 -10.753603 -143.719 0.493229 -0.499472 -0.712217 -18.116944 104.175259 1 0 1
0 27 -13.6 -139.719 0.493229 -0.499472 -0.712217 -18.140887 104.15447 1 0 1
wood_woodfloor005a
0 17.7 -17.08 -143.719 0.493229 -0.499472 -0.712217 -18.162287 104.229035 1 0 1
0 27 -13.6 -139.719 0.493229 -0.499472 -0.712217 -18.140887 104.15447 1 0 1
0 20.6 -19.92 -139.719 0.493229 -0.499472 -0.712217 -18.186184 104.20819 1 0 1
wood_woodfloor005a
0 -19 19.64 -139.719 -0.500401 0.50197 -0.705425 -17.853794 104.492345 1 0 1
0 -12.6 26.02 -139.719 -0.500401 0.50197 -0.705425 -17.808029 104.438587 1 0 1
0 -9.810013 23.180018 -143.719 -0.500401 0.50197 -0.705425 -17.831859 104.4186 1 0 1
wood_woodfloor005a
0 -19 19.64 -139.719 -0.500401 0.50197 -0.705425 -17.853794 104.492345 1 0 1
0 -9.810013 23.180018 -143.719 -0.500401 0.50197 -0.705425 -17.831859 104.4186 1 0 1
0 -16.212146 16.797892 -143.719 -0.500401 0.50197 -0.705425 -17.877639 104.472375 1 0 1
concrete_concretewall001a
0 24.106478 -10.753603 -143.719 0.707259 0.706902 -0.008586 89.258366 -2.269128 1 0 1
0 -9.810013 23.180018 -143.719 0.707259 0.706902 -0.008586 89.883064 -2.269128 1 0 1
0 -12.6 26.02 -139.719 0.707259 0.706902 -0.008586 89.934899 -2.217044 1 0 1
concrete_concretewall001a
0 24.106478 -10.753603 -143.719 0.707259 0.706902 -0.008586 89.258366 -2.269128 1 0 1
0 -12.6 26.02 -139.719 0.707259 0.706902 -0.008586 89.934899 -2.217044 1 0 1
0 27 -13.6 -139.719 0.707259 0.706902 -0.008586 89.205518 -2.217044 1 0 1
concrete_concretewall001a
0 20.6 -19.92 -139.719 -0.706713 -0.707428 0.010093 89.198925 -2.205502 1 0 1
0 -19 19.64 -139.719 -0.706713 -0.707428 0.010093 89.927805 -2.204523 1 0 1
0 -16.212146 16.797892 -143.719 -0.706713 -0.707428 0.010093 89.875966 -2.256677 1 0 1
concrete_concretewall001a
0 20.6 -19.92 -139.719 -0.706713 -0.707428 0.010093 89.198925 -2.205502 1 0 1
0 -16.212146 16.797892 -143.719 -0.706713 -0.707428 0.010093 89.875966 -2.256677 1 0 1
0 17.7 -17.08 -143.719 -0.706713 -0.707428 0.010093 89.251777 -2.257515 1 0 1
goldeneye_caverns_cavernsconcretefloor02
0 -199 -226 -252 0 0 1 95.674262 27.438223 1 0 1
0 -189 -218 -252 0 0 1 95.601924 27.380353 1 0 1
0 -201 -194 -252 0 0 1 95.68873 27.206742 1 0 1
goldeneye_caverns_cavernsconcretefloor02
0 -199 -226 -252 0 0 1 95.674262 27.438223 1 0 1
0 -201 -194 -252 0 0 1 95.68873 27.206742 1 0 1
0 -213 -200 -252 0 0 1 95.775535 27.250145 1 0 1
goldeneye_caverns_cavernsconcretefloor02
0 -199 -226 -256 -0.880471 -0.4741 0 12.702823 -17.545845 1 0 1
0 -199 -226 -252 -0.880471 -0.4741 0 12.677345 -17.559563 1 0 1
0 -213 -200 -252 -0.880471 -0.4741 0 12.778615 -17.747633 1 0 1
goldeneye_caverns_cavernsconcretefloor02
0 -199 -226 -256 -0.880471 -0.4741 0 12.702823 -17.545845 1 0 1
0 -213 -200 -252 -0.880471 -0.4741 0 12.778615 -17.747633 1 0 1
0 -213 -200 -256 -0.880471 -0.4741 0 12.804093 -17.733915 1 0 1
pepsi2_gta4_churchfloor
0 144 168 7.999 -1 0 0 57.940545 17.962767 1 0 1
0 144 168 4 -1 0 0 57.924924 17.940676 1 0 1
0 144 60 -104 -1 0 0 57.081174 17.940676 1 0 1
pepsi2_gta4_churchfloor
0 144 168 7.999 -1 0 0 57.940545 17.962767 1 0 1
0 144 60 -104 -1 0 0 57.081174 17.940676 1 0 1
0 144 56 -104 -1 0 0 57.065549 17.962773 1 0 1
pepsi2_gta4_churchfloor
0 144 60 -104 0 0.707107 -0.707107 -25.917969 100.941406 1 0 1
0 144 168 4 0 0.707107 -0.707107 -25.074219 100.941406 1 0 1
0 191 168 4 0 0.707107 -0.707107 -25.074219 100.574219 1 0 1
pepsi2_gta4_churchfloor
0 144 60 -104 0 0.707107 -0.707107 -25.917969 100.941406 1 0 1
0 191 168 4 0 0.707107 -0.707107 -25.074219 100.574219 1 0 1
0 191 60 -104 0 0.707107 -0.707107 -25.917969 100.574219 1 0 1
pepsi2_gta4_churchstairs
0 144 104 -40 0 0 1 -167.805339 -41.208333 1 0 1
0 191 104 -40 0 0 1 -167.193359 -41.208333 1 0 1
0 191 120 -40 0 0 1 -167.193359 -41 1 0 1
pepsi2_gta4_churchstairs
0 144 104 -40 0 0 1 -167.805339 -41.208333 1 0 1
0 191 120 -40 0 0 1 -167.193359 -41 1 0 1
0 144 120 -40 0 0 1 -167.805339 -41 1 0 1
pepsi2_gta4_churchstairs
0 191 104 -56.001 0 -1 0 -167.193359 -1.208997 1 0 1
0 191 104 -40 0 -1 0 -167.193359 -1.000651 1 0 1
0 144 104 -40 0 -1 0 -167.805339 -1.000651 1 0 1
pepsi2_gta4_churchstairs
0 191 104 -56.001 0 -1 0 -167.193359 -1.208997 1 0 1
0 144 104 -40 0 -1 0 -167.805339 -1.000651 1 0 1
0 144 104 -56.001 0 -1 0 -167.805339 -1.208997 1 0 1
pepsi2_gta4_churchfloor
0 144 104 -40 -1 0 0 57.503049 18.05116 1 0 1
0 144 120 -40 -1 0 0 57.565549 17.962773 1 0 1
0 144 104 -56.001 -1 0 0 57.440545 17.962767 1 0 1
concrete_concretewall001a
0 148 -46 -133 0 -1 0 167.093099 -2.127604 1 0 1
0 92 -46 -133 0 -1 0 167.822266 -2.127604 1 0 1
0 94 -46 -135 0 -1 0 167.796224 -2.153646 1 0 1
concrete_concretewall001a
0 148 -46 -133 0 -1 0 167.093099 -2.127604 1 0 1
0 94 -46 -135 0 -1 0 167.796224 -2.153646 1 0 1
0 146 -46 -135 0 -1 0 167.119141 -2.153646 1 0 1
concrete_concretewall001a
0 146 -42 -135 0 1 0 167.119141 -2.153646 1 0 1
0 94 -42 -135 0 1 0 167.796224 -2.153646 1 0 1
0 92 -42 -133 0 1 0 167.822266 -2.127604 1 0 1
concrete_concretewall001a
0 146 -42 -135 0 1 0 167.119141 -2.153646 1 0 1
0 92 -42 -133 0 1 0 167.822266 -2.127604 1 0 1
0 148 -42 -133 0 1 0 167.093099 -2.127604 1 0 1
concrete_concretewall001a
0 -42 137 121.0003 0 1 0 -169.945964 0.513676 1 0 1
0 -42 137 37.9999 0 1 0 -169.945964 -0.567059 1 0 1
0 -46 137 37.9999 0 1 0 -169.998047 -0.567059 1 0 1
concrete_concretewall001a
0 -42 137 121.0003 0 1 0 -169.945964 0.513676 1 0 1
0 -46 137 37.9999 0 1 0 -169.998047 -0.567059 1 0 1
0 -46 137 121.0003 0 1 0 -169.998047 0.513676 1 0 1
concrete_concretewall001a
0 -46 137 121.0003 -1 0 0 -41.997396 0.513676 1 0 1
0 -46 137 37.9999 -1 0 0 -41.997396 -0.567059 1 0 1
0 -46 135 35.9999 -1 0 0 -42.023438 -0.5931 1 0 1
concrete_concretewall001a
0 -46 137 121.0003 -1 0 0 -41.997396 0.513676 1 0 1
0 -46 135 35.9999 -1 0 0 -42.023438 -0.5931 1 0 1
0 -46 135 123.000305 -1 0 0 -42.023438 0.539718 1 0 1
concrete_concretewall001a
0 -42 135 123.000305 1 0 0 -42.023438 0.539718 1 0 1
0 -42 135 35.9999 1 0 0 -42.023438 -0.5931 1 0 1
0 -42 137 37.9999 1 0 0 -41.997396 -0.567059 1 0 1
concrete_concretewall001a
0 -42 135 123.000305 1 0 0 -42.023438 0.539718 1 0 1
0 -42 137 37.9999 1 0 0 -41.997396 -0.567059 1 0 1
0 -42 137 121.0003 1 0 0 -41.997396 0.513676 1 0 1
pepsi2_gta4_churchstairs
0 191 90 -228 0 -1 0 99.402344 3.125 1 0 1
0 191 90 -212 0 -1 0 99.402344 3 1 0 1
0 144 90 -212 0 -1 0 99.769531 3 1 0 1
pepsi2_gta4_churchstairs
0 191 90 -228 0 -1 0 99.402344 3.125 1 0 1
0 144 90 -212 0 -1 0 99.769531 3 1 0 1
0 144 90 -228 0 -1 0 99.769531 3.125 1 0 1
pepsi2_gta4_churchfloor
0 144 90 -228 -1 0 0 2.003906 26.816406 1 0 1
0 144 90 -212 -1 0 0 1.878906 26.816406 1 0 1
0 144 106 -212 -1 0 0 1.878906 26.691406 1 0 1
pepsi2_gta4_churchstairs
0 144 90 -212 0 0 1 99.769531 27 1 0 1
0 191 90 -212 0 0 1 99.402344 27 1 0 1
0 191 106 -212 0 0 1 99.402344 26.875 1 0 1
pepsi2_gta4_churchstairs
0 144 90 -212 0 0 1 99.769531 27 1 0 1
0 191 106 -212 0 0 1 99.402344 26.875 1 0 1
0 144 106 -212 0 0 1 99.769531 26.875 1 0 1
concrete_concretewall001a
0 -42 65 37.9998 0 1 0 169.567057 0.098956 1 0 1
0 -46 65 37.9998 0 1 0 169.619141 0.098956 1 0 1
0 -46 65 121.0004 0 1 0 169.619141 1.179693 1 0 1
concrete_concretewall001a
0 -42 65 37.9998 0 1 0 169.567057 0.098956 1 0 1
0 -46 65 121.0004 0 1 0 169.619141 1.179693 1 0 1
0 -42 65 121.0004 0 1 0 169.567057 1.179693 1 0 1
concrete_concretewall001a
0 -46 63 123.000403 -1 0 0 -42.960938 1.205734 1 0 1
0 -46 65 121.0004 -1 0 0 -42.934896 1.179693 1 0 1
0 -46 65 37.9998 -1 0 0 -42.934896 0.098956 1 0 1
concrete_concretewall001a
0 -46 63 123.000403 -1 0 0 -42.960938 1.205734 1 0 1
0 -46 65 37.9998 -1 0 0 -42.934896 0.098956 1 0 1
0 -46 63 35.9998 -1 0 0 -42.960938 0.072914 1 0 1
concrete_concretewall001a
0 -42 63 35.9998 1 0 0 43.148438 0.072914 1 0 1
0 -42 65 37.9998 1 0 0 43.122396 0.098956 1 0 1
0 -42 65 121.0004 1 0 0 43.122396 1.179693 1 0 1
concrete_concretewall001a
0 -42 63 35.9998 1 0 0 43.148438 0.072914 1 0 1
0 -42 65 121.0004 1 0 0 43.122396 1.179693 1 0 1
0 -42 63 123.000403 1 0 0 43.148438 1.205734 1 0 1
pepsi2_gta4_churchstairs
0 191 186 -132 0 -1 0 99.402344 2.125 1 0 1
0 191 186 -116 0 -1 0 99.402344 2 1 0 1
0 144 186 -116 0 -1 0 99.769531 2 1 0 1
pepsi2_gta4_churchstairs
0 191 186 -132 0 -1 0 99.402344 2.125 1 0 1
0 144 186 -116 0 -1 0 99.769531 2 1 0 1
0 144 186 -132 0 -1 0 99.769531 2.125 1 0 1
pepsi2_gta4_churchfloor
0 144 186 -132 -1 0 0 1.253906 26.066406 1 0 1
0 144 186 -116 -1 0 0 1.128906 26.066406 1 0 1
0 144 202 -116 -1 0 0 1.128906 25.941406 1 0 1
pepsi2_gta4_churchstairs
0 144 186 -116 0 0 1 99.769531 26 1 0 1
0 191 186 -116 0 0 1 99.402344 26 1 0 1
0 191 202 -116 0 0 1 99.402344 25.875 1 0 1
pepsi2_gta4_churchstairs
0 144 186 -116 0 0 1 99.769531 26 1 0 1
0 191 202 -116 0 0 1 99.402344 25.875 1 0 1
0 144 202 -116 0 0 1 99.769531 25.875 1 0 1
concrete_concretewall001a
0 -42 202 -7 0 1 0 -169.883464 -0.486979 1 0 1
0 -42 202 -90 0 1 0 -169.883464 -1.567708 1 0 1
0 -46 202 -90 0 1 0 -169.935547 -1.567708 1 0 1
concrete_concretewall001a
0 -42 202 -7 0 1 0 -169.883464 -0.486979 1 0 1
0 -46 202 -90 0 1 0 -169.935547 -1.567708 1 0 1
0 -46 202 -7 0 1 0 -169.935547 -0.486979 1 0 1
concrete_concretewall001a
0 -46 200 -92 -1 0 0 -40.960286 -1.59375 1 0 1
0 -46 200 -5 -1 0 0 -40.960286 -0.460938 1 0 1
0 -46 202 -7 -1 0 0 -40.934245 -0.486979 1 0 1
concrete_concretewall001a
0 -46 200 -92 -1 0 0 -40.960286 -1.59375 1 0 1
0 -46 202 -7 -1 0 0 -40.934245 -0.486979 1 0 1
0 -46 202 -90 -1 0 0 -40.934245 -1.567708 1 0 1
concrete_concretewall001a
0 -42 200 -5 1 0 0 -40.960286 -0.460938 1 0 1
0 -42 200 -92 1 0 0 -40.960286 -1.59375 1 0 1
0 -42 202 -90 1 0 0 -40.934245 -1.567708 1 0 1
concrete_concretewall001a
0 -42 200 -5 1 0 0 -40.960286 -0.460938 1 0 1
0 -42 202 -90 1 0 0 -40.934245 -1.567708 1 0 1
0 -42 202 -7 1 0 0 -40.934245 -0.486979 1 0 1
goldeneye_caverns_cavernsconcretefloor02
0 -181 -248 -252 0 0 1 95.544054 27.597367 1 0 1
0 -171 -238 -252 0 0 1 95.471716 27.525029 1 0 1
0 -189 -218 -252 0 0 1 95.601924 27.380353 1 0 1
goldeneye_caverns_cavernsconcretefloor02
0 -181 -248 -252 0 0 1 95.544054 27.597367 1 0 1
0 -189 -218 -252 0 0 1 95.601924 27.380353 1 0 1
0 -199 -226 -252 0 0 1 95.674262 27.438223 1 0 1
goldeneye_caverns_cavernsconcretefloor02
0 -181 -248 -256 -0.773957 -0.633238 0 39.985613 5.471875 1 0 1
0 -181 -248 -252 -0.773957 -0.633238 0 39.987531 5.443003 1 0 1
0 -199 -226 -252 -0.773957 -0.633238 0 40.192703 5.45671 1 0 1
goldeneye_caverns_cavernsconcretefloor02
0 -181 -248 -256 -0.773957 -0.633238 0 39.985613 5.471875 1 0 1
0 -199 -226 -252 -0.773957 -0.633238 0 40.192703 5.45671 1 0 1
0 -199 -226 -256 -0.773957 -0.633238 0 40.190785 5.485582 1 0 1
pepsi2_gta4_churchstairs
0 144 122 -180 0 0 1 99.769531 26 1 0 1
0 191 122 -180 0 0 1 99.402344 26 1 0 1
0 191 138 -180 0 0 1 99.402344 25.875 1 0 1
pepsi2_gta4_churchstairs
0 144 122 -180 0 0 1 99.769531 26 1 0 1
0 191 138 -180 0 0 1 99.402344 25.875 1 0 1
0 144 138 -180 0 0 1 99.769531 25.875 1 0 1
pepsi2_gta4_churchstairs
0 191 122 -196 0 -1 0 99.402344 3.125 1 0 1
0 191 122 -180 0 -1 0 99.402344 3 1 0 1
0 144 122 -180 0 -1 0 99.769531 3 1 0 1
pepsi2_gta4_churchstairs
0 191 122 -196 0 -1 0 99.402344 3.125 1 0 1
0 144 122 -180 0 -1 0 99.769531 3 1 0 1
0 144 122 -196 0 -1 0 99.769531 3.125 1 0 1
pepsi2_gta4_churchfloor
0 144 122 -180 -1 0 0 1.628906 26.566406 1 0 1
0 144 138 -180 -1 0 0 1.628906 26.441406 1 0 1
0 144 122 -196 -1 0 0 1.753906 26.566406 1 0 1
concrete_concretewall001a
0 -46 63 -92 -1 0 0 -42.960938 -1.59375 1 0 1
0 -46 65 -90 -1 0 0 -42.934896 -1.567708 1 0 1
0 -46 116 -90 -1 0 0 -42.270833 -1.567708 1 0 1
concrete_concretewall001a
0 -46 63 -92 -1 0 0 -42.960938 -1.59375 1 0 1
0 -46 116 -90 -1 0 0 -42.270833 -1.567708 1 0 1
0 -46 118 -92 -1 0 0 -42.244792 -1.59375 1 0 1
concrete_concretewall001a
0 -42 65 -90 1 0 0 -42.934896 -1.567708 1 0 1
0 -42 63 -92 1 0 0 -42.960937 -1.59375 1 0 1
0 -42 118 -92 1 0 0 -42.244792 -1.59375 1 0 1
concrete_concretewall001a
0 -42 65 -90 1 0 0 -42.934896 -1.567708 1 0 1
0 -42 118 -92 1 0 0 -42.244792 -1.59375 1 0 1
0 -42 116 -90 1 0 0 -42.270833 -1.567708 1 0 1
concrete_concretewall001a
0 -46 65 -90 0 0 1 -42.934896 -168.568359 1 0 1
0 -42 65 -90 0 0 1 -42.934896 -168.516276 1 0 1
0 -42 116 -90 0 0 1 -42.270833 -168.516276 1 0 1
concrete_concretewall001a
0 -46 65 -90 0 0 1 -42.934896 -168.568359 1 0 1
0 -42 116 -90 0 0 1 -42.270833 -168.516276 1 0 1
0 -46 116 -90 0 0 1 -42.270833 -168.568359 1 0 1
concrete_concretewall001a
0 -46 65 38 -1 0 0 -42.934896 0.098958 1 0 1
0 -46 116 38 -1 0 0 -42.270833 0.098958 1 0 1
0 -46 118 36 -1 0 0 -42.244792 0.072917 1 0 1
concrete_concretewall001a
0 -46 65 38 -1 0 0 -42.934896 0.098958 1 0 1
0 -46 118 36 -1 0 0 -42.244792 0.072917 1 0 1
0 -46 63 36 -1 0 0 -42.960938 0.072917 1 0 1
concrete_concretewall001a
0 -42 63 36 1 0 0 43.148437 0.072917 1 0 1
0 -42 118 36 1 0 0 42.432292 0.072917 1 0 1
0 -42 116 38 1 0 0 42.458333 0.098958 1 0 1
concrete_concretewall001a
0 -42 63 36 1 0 0 43.148437 0.072917 1 0 1
0 -42 116 38 1 0 0 42.458333 0.098958 1 0 1
0 -42 65 38 1 0 0 43.122396 0.098958 1 0 1
concrete_concretewall001a
0 -42 65 38 0 0 1 169.567057 -41.45638 1 0 1
0 -42 116 38 0 0 1 169.567057 -40.792318 1 0 1
0 -46 116 38 0 0 1 169.619141 -40.792318 1 0 1
concrete_concretewall001a
0 -42 65 38 0 0 1 169.567057 -41.45638 1 0 1
0 -46 116 38 0 0 1 169.619141 -40.792318 1 0 1
0 -46 65 38 0 0 1 169.619141 -41.45638 1 0 1
concrete_concretewall001a
0 -46 63 123 -1 0 0 -42.960938 1.205729 1 0 1
0 -46 118 123 -1 0 0 -42.244792 1.205729 1 0 1
0 -46 116 121 -1 0 0 -42.270833 1.179688 1 0 1
concrete_concretewall001a
0 -46 63 123 -1 0 0 -42.960938 1.205729 1 0 1
0 -46 116 121 -1 0 0 -42.270833 1.179688 1 0 1
0 -46 65 121 -1 0 0 -42.934896 1.179688 1 0 1
concrete_concretewall001a
0 -42 65 121 1 0 0 43.122396 1.179688 1 0 1
0 -42 116 121 1 0 0 42.458333 1.179688 1 0 1
0 -42 118 123 1 0 0 42.432292 1.205729 1 0 1
concrete_concretewall001a
0 -42 65 121 1 0 0 43.122396 1.179688 1 0 1
0 -42 118 123 1 0 0 42.432292 1.205729 1 0 1
0 -42 63 123 1 0 0 43.148437 1.205729 1 0 1
concrete_concretewall001a
0 -46 65 121 0 0 -1 169.619141 43.733724 1 0 1
0 -46 116 121 0 0 -1 169.619141 43.069661 1 0 1
0 -42 116 121 0 0 -1 169.567057 43.069661 1 0 1
concrete_concretewall001a
0 -46 65 121 0 0 -1 169.619141 43.733724 1 0 1
0 -42 116 121 0 0 -1 169.567057 43.069661 1 0 1
0 -42 65 121 0 0 -1 169.567057 43.733724 1 0 1
brick_brick_ext_08
0 -19 19 -252 0.707107 -0.707107 0 -89.666125 -1 1 0 1
0 -11 27 -252 0.707107 -0.707107 0 -89.577738 -1 1 0 1
0 -11 27 -140 0.707107 -0.707107 0 -89.577738 -0.125 1 0 1
brick_brick_ext_08
0 -19 19 -252 0.707107 -0.707107 0 -89.666125 -1 1 0 1
0 -11 27 -140 0.707107 -0.707107 0 -89.577738 -0.125 1 0 1
0 -19 19 -140 0.707107 -0.707107 0 -89.666125 -0.125 1 0 1
brick_brick_ext_08
0 -19 19 -140 -0.707107 -0.707107 0 -53.666259 -0.125 1 0 1
0 -46 46 -140 -0.707107 -0.707107 0 -53.964567 -0.125 1 0 1
0 -46 46 -252 -0.707107 -0.707107 0 -53.964567 -1 1 0 1
brick_brick_ext_08
0 -19 19 -140 -0.707107 -0.707107 0 -53.666259 -0.125 1 0 1
0 -46 46 -252 -0.707107 -0.707107 0 -53.964567 -1 1 0 1
0 -19 19 -252 -0.707107 -0.707107 0 -53.666259 -1 1 0 1
facepunch_bubz_gmoffices_bubz_wall
0 -11 27 -252 0.707107 0.707107 0 -107.78955 -1 1 0 1
0 -30 46 -252 0.707107 0.707107 0 -108.209391 -1 1 0 1
0 -30 46 -140 0.707107 0.707107 0 -108.209391 -0.125 1 0 1
facepunch_bubz_gmoffices_bubz_wall
0 -11 27 -252 0.707107 0.707107 0 -107.78955 -1 1 0 1
0 -30 46 -140 0.707107 0.707107 0 -108.209391 -0.125 1 0 1
0 -11 27 -140 0.707107 0.707107 0 -107.78955 -0.125 1 0 1
concrete_concretewall001a
0 -42 181 38.0003 0 -1 0 169.524089 -0.567053 1 0 1
0 -42 181 120.99986 0 -1 0 169.524089 0.51367 1 0 1
0 -46 181 120.99986 0 -1 0 169.576172 0.51367 1 0 1
concrete_concretewall001a
0 -42 181 38.0003 0 -1 0 169.524089 -0.567053 1 0 1
0 -46 181 120.99986 0 -1 0 169.576172 0.51367 1 0 1
0 -46 181 38.0003 0 -1 0 169.576172 -0.567053 1 0 1
concrete_concretewall001a
0 -46 181 38.0003 -1 0 0 -41.424479 -0.567053 1 0 1
0 -46 181 120.99986 -1 0 0 -41.424479 0.51367 1 0 1
0 -46 183 122.99986 -1 0 0 -41.398438 0.539712 1 0 1
concrete_concretewall001a
0 -46 181 38.0003 -1 0 0 -41.424479 -0.567053 1 0 1
0 -46 183 122.99986 -1 0 0 -41.398438 0.539712 1 0 1
0 -46 183 36.0003 -1 0 0 -41.398438 -0.593095 1 0 1
concrete_concretewall001a
0 -42 181 120.99986 1 0 0 -41.424479 0.51367 1 0 1
0 -42 181 38.0003 1 0 0 -41.424479 -0.567053 1 0 1
0 -42 183 36.0003 1 0 0 -41.398438 -0.593095 1 0 1
concrete_concretewall001a
0 -42 181 120.99986 1 0 0 -41.424479 0.51367 1 0 1
0 -42 183 36.0003 1 0 0 -41.398438 -0.593095 1 0 1
0 -42 183 122.99986 1 0 0 -41.398438 0.539712 1 0 1
concrete_concretewall001a
0 148 -42 -5.001 0 1 0 167.093099 -0.460951 1 0 1
0 148 -42 -92 0 1 0 167.093099 -1.59375 1 0 1
0 146 -42 -90 0 1 0 167.119141 -1.567708 1 0 1
concrete_concretewall001a
0 148 -42 -5.001 0 1 0 167.093099 -0.460951 1 0 1
0 146 -42 -90 0 1 0 167.119141 -1.567708 1 0 1
0 146 -42 -7.001 0 1 0 167.119141 -0.486992 1 0 1
concrete_concretewall001a
0 148 -46 -92 0 -1 0 167.093099 -1.59375 1 0 1
0 148 -46 -5.001 0 -1 0 167.093099 -0.460951 1 0 1
0 146 -46 -7.001 0 -1 0 167.119141 -0.486992 1 0 1
concrete_concretewall001a
0 148 -46 -92 0 -1 0 167.093099 -1.59375 1 0 1
0 146 -46 -7.001 0 -1 0 167.119141 -0.486992 1 0 1
0 146 -46 -90 0 -1 0 167.119141 -1.567708 1 0 1
concrete_concretewall001a
0 146 -46 -90 -1 0 0 -43.880208 -1.567708 1 0 1
0 146 -46 -7.001 -1 0 0 -43.880208 -0.486992 1 0 1
0 146 -42 -7.001 -1 0 0 -43.828125 -0.486992 1 0 1
concrete_concretewall001a
0 146 -46 -90 -1 0 0 -43.880208 -1.567708 1 0 1
0 146 -42 -7.001 -1 0 0 -43.828125 -0.486992 1 0 1
0 146 -42 -90 -1 0 0 -43.828125 -1.567708 1 0 1
goldeneye_caverns_cavernsconcretefloor02
0 -209 -168 -252 0 0 1 95.7466 27.018663 1 0 1
0 -211 -142 -252 0 0 1 95.761068 26.830584 1 0 1
0 -225 -142 -252 0 0 1 95.862341 26.830584 1 0 1
goldeneye_caverns_cavernsconcretefloor02
0 -209 -168 -252 0 0 1 95.7466 27.018663 1 0 1
0 -225 -142 -252 0 0 1 95.862341 26.830584 1 0 1
0 -223 -172 -252 0 0 1 95.847873 27.047598 1 0 1
goldeneye_caverns_cavernsconcretefloor02
0 -223 -172 -252 -0.997785 -0.066519 0 2.862486 20.051107 1 0 1
0 -225 -142 -252 -0.997785 -0.066519 0 2.862486 19.833608 1 0 1
0 -225 -142 -256 -0.997785 -0.066519 0 2.891421 19.833608 1 0 1
goldeneye_caverns_cavernsconcretefloor02
0 -223 -172 -252 -0.997785 -0.066519 0 2.862486 20.051107 1 0 1
0 -225 -142 -256 -0.997785 -0.066519 0 2.891421 19.833608 1 0 1
0 -223 -172 -256 -0.997785 -0.066519 0 2.891421 20.051107 1 0 1
concrete_concretewall001a
0 -46 137 38 -1 0 0 -41.997396 -0.567057 1 0 1
0 -46 181 38 -1 0 0 -41.424479 -0.567057 1 0 1
0 -46 183 36 -1 0 0 -41.398438 -0.593099 1 0 1
concrete_concretewall001a
0 -46 137 38 -1 0 0 -41.997396 -0.567057 1 0 1
0 -46 183 36 -1 0 0 -41.398438 -0.593099 1 0 1
0 -46 135 36 -1 0 0 -42.023438 -0.593099 1 0 1
concrete_concretewall001a
0 -42 135 36 1 0 0 -42.023438 -0.593099 1 0 1
0 -42 183 36 1 0 0 -41.398438 -0.593099 1 0 1
0 -42 181 38 1 0 0 -41.424479 -0.567057 1 0 1
concrete_concretewall001a
0 -42 135 36 1 0 0 -42.023438 -0.593099 1 0 1
0 -42 181 38 1 0 0 -41.424479 -0.567057 1 0 1
0 -42 137 38 1 0 0 -41.997396 -0.567057 1 0 1
concrete_concretewall001a
0 -42 137 38 0 0 1 -41.997396 -168.516276 1 0 1
0 -42 181 38 0 0 1 -41.424479 -168.516276 1 0 1
0 -46 181 38 0 0 1 -41.424479 -168.568359 1 0 1
concrete_concretewall001a
0 -42 137 38 0 0 1 -41.997396 -168.516276 1 0 1
0 -46 181 38 0 0 1 -41.424479 -168.568359 1 0 1
0 -46 137 38 0 0 1 -41.997396 -168.568359 1 0 1
concrete_concretewall001a
0 148 -42 -5 0 1 0 167.093099 -0.460938 1 0 1
0 146 -42 -7 0 1 0 167.119141 -0.486979 1 0 1
0 94 -42 -7 0 1 0 167.796224 -0.486979 1 0 1
concrete_concretewall001a
0 148 -42 -5 0 1 0 167.093099 -0.460938 1 0 1
0 94 -42 -7 0 1 0 167.796224 -0.486979 1 0 1
0 92 -42 -5 0 1 0 167.822266 -0.460938 1 0 1
concrete_concretewall001a
0 146 -46 -7 0 -1 0 167.119141 -0.486979 1 0 1
0 148 -46 -5 0 -1 0 167.093099 -0.460938 1 0 1
0 92 -46 -5 0 -1 0 167.822266 -0.460938 1 0 1
concrete_concretewall001a
0 146 -46 -7 0 -1 0 167.119141 -0.486979 1 0 1
0 92 -46 -5 0 -1 0 167.822266 -0.460938 1 0 1
0 94 -46 -7 0 -1 0 167.796224 -0.486979 1 0 1
concrete_concretewall001a
0 94 -46 -7 0 0 -1 167.796224 45.513021 1 0 1
0 94 -42 -7 0 0 -1 167.796224 45.460938 1 0 1
0 146 -42 -7 0 0 -1 167.119141 45.460938 1 0 1
concrete_concretewall001a
0 94 -46 -7 0 0 -1 167.796224 45.513021 1 0 1
0 146 -42 -7 0 0 -1 167.119141 45.460938 1 0 1
0 146 -46 -7 0 0 -1 167.119141 45.513021 1 0 1
concrete_concretewall001a
0 94 -42 -134.999 0 1 0 167.796224 -2.153633 1 0 1
0 94 -42 -218 0 1 0 167.796224 -3.234375 1 0 1
0 92 -42 -220 0 1 0 167.822266 -3.260417 1 0 1
concrete_concretewall001a
0 94 -42 -134.999 0 1 0 167.796224 -2.153633 1 0 1
0 92 -42 -220 0 1 0 167.822266 -3.260417 1 0 1
0 92 -42 -132.999 0 1 0 167.822266 -2.127591 1 0 1
concrete_concretewall001a
0 94 -46 -218 0 -1 0 167.796224 -3.234375 1 0 1
0 94 -46 -134.999 0 -1 0 167.796224 -2.153633 1 0 1
0 92 -46 -132.999 0 -1 0 167.822266 -2.127591 1 0 1
concrete_concretewall001a
0 94 -46 -218 0 -1 0 167.796224 -3.234375 1 0 1
0 92 -46 -132.999 0 -1 0 167.822266 -2.127591 1 0 1
0 92 -46 -220 0 -1 0 167.822266 -3.260417 1 0 1
concrete_concretewall001a
0 94 -46 -134.999 1 0 0 43.796224 -2.153633 1 0 1
0 94 -46 -218 1 0 0 43.796224 -3.234375 1 0 1
0 94 -42 -218 1 0 0 43.744141 -3.234375 1 0 1
concrete_concretewall001a
0 94 -46 -134.999 1 0 0 43.796224 -2.153633 1 0 1
0 94 -42 -218 1 0 0 43.744141 -3.234375 1 0 1
0 94 -42 -134.999 1 0 0 43.744141 -2.153633 1 0 1
pepsi2_gta4_churchstairs
0 188 65 52.0008 0 -1 0 -167.232422 0.791026 1 0 1
0 188 65 68 0 -1 0 -167.232422 0.999349 1 0 1
0 132 65 68 0 -1 0 -167.961589 0.999349 1 0 1
pepsi2_gta4_churchstairs
0 188 65 52.0008 0 -1 0 -167.232422 0.791026 1 0 1
0 132 65 68 0 -1 0 -167.961589 0.999349 1 0 1
0 132 65 52.0008 0 -1 0 -167.961589 0.791026 1 0 1
pepsi2_gta4_churchfloor
0 132 65 52.0008 -1 0 0 58.135749 19.05804 1 0 1
0 132 65 68 -1 0 0 58.198246 19.146423 1 0 1
0 132 81 68 -1 0 0 58.260746 19.058036 1 0 1
pepsi2_gta4_churchstairs
0 132 65 68 0 0 1 -167.961589 -41.208333 1 0 1
0 188 65 68 0 0 1 -167.232422 -41.208333 1 0 1
0 188 81 68 0 0 1 -167.232422 -41 1 0 1
pepsi2_gta4_churchstairs
0 132 65 68 0 0 1 -167.961589 -41.208333 1 0 1
0 188 81 68 0 0 1 -167.232422 -41 1 0 1
0 132 81 68 0 0 1 -167.961589 -41 1 0 1
pepsi2_gta4_churchfloor
0 132 113 116 -1 0 0 58.573246 19.146423 1 0 1
0 132 129 116 -1 0 0 58.635746 19.058036 1 0 1
0 132 113 100.0008 -1 0 0 58.510749 19.05804 1 0 1
pepsi2_gta4_churchstairs
0 188 113 116 0 0 1 -167.232422 -41.208333 1 0 1
0 188 129 116 0 0 1 -167.232422 -41 1 0 1
0 132 129 116 0 0 1 -167.961589 -41 1 0 1
pepsi2_gta4_churchstairs
0 188 113 116 0 0 1 -167.232422 -41.208333 1 0 1
0 132 129 116 0 0 1 -167.961589 -41 1 0 1
0 132 113 116 0 0 1 -167.961589 -41.208333 1 0 1
pepsi2_gta4_churchstairs
0 188 113 100.0008 0 -1 0 -167.232422 0.791026 1 0 1
0 188 113 116 0 -1 0 -167.232422 0.999349 1 0 1
0 132 113 116 0 -1 0 -167.961589 0.999349 1 0 1
pepsi2_gta4_churchstairs
0 188 113 100.0008 0 -1 0 -167.232422 0.791026 1 0 1
0 132 113 116 0 -1 0 -167.961589 0.999349 1 0 1
0 132 113 100.0008 0 -1 0 -167.961589 0.791026 1 0 1
pepsi2_gta4_churchstairs
0 191 154 -164 0 -1 0 99.402344 3.125 1 0 1
0 191 154 -148 0 -1 0 99.402344 3 1 0 1
0 144 154 -148 0 -1 0 99.769531 3 1 0 1
pepsi2_gta4_churchstairs
0 191 154 -164 0 -1 0 99.402344 3.125 1 0 1
0 144 154 -148 0 -1 0 99.769531 3 1 0 1
0 144 154 -164 0 -1 0 99.769531 3.125 1 0 1
pepsi2_gta4_churchfloor
0 144 154 -164 -1 0 0 1.503906 26.316406 1 0 1
0 144 154 -148 -1 0 0 1.378906 26.316406 1 0 1
0 144 170 -148 -1 0 0 1.378906 26.191406 1 0 1
pepsi2_gta4_churchstairs
0 144 154 -148 0 0 1 99.769531 26 1 0 1
0 191 154 -148 0 0 1 99.402344 26 1 0 1
0 191 170 -148 0 0 1 99.402344 25.875 1 0 1
pepsi2_gta4_churchstairs
0 144 154 -148 0 0 1 99.769531 26 1 0 1
0 191 170 -148 0 0 1 99.402344 25.875 1 0 1
0 144 170 -148 0 0 1 99.769531 25.875 1 0 1
brick_brick_ext_08
0 -30 46 -140 0 0 -1 -53.87618 90.784769 1 0 1
0 46 -30 -140 0 0 -1 -53.036498 90.784769 1 0 1
0 46 -46 -140 0 0 -1 -52.948111 90.873156 1 0 1
brick_brick_ext_08
0 -30 46 -140 0 0 -1 -53.87618 90.784769 1 0 1
0 46 -46 -140 0 0 -1 -52.948111 90.873156 1 0 1
0 -46 46 -140 0 0 -1 -53.964567 90.873156 1 0 1
de_train_train_gravel_floor_01
0 -46 46 140 0 0 1 -53.415739 -88.773547 1 0 1
0 46 -46 140 0 0 1 -52.399283 -88.773547 1 0 1
0 46 -30 140 0 0 1 -52.48767 -88.685159 1 0 1
de_train_train_gravel_floor_01
0 -46 46 140 0 0 1 -53.415739 -88.773547 1 0 1
0 46 -30 140 0 0 1 -52.48767 -88.685159 1 0 1
0 -30 46 140 0 0 1 -53.327352 -88.685159 1 0 1
brick_brick_ext_08
0 46 -46 -140 -0.707107 -0.707107 0 -52.948111 -0.125 1 0 1
0 46 -46 140 -0.707107 -0.707107 0 -52.948111 2.0625 1 0 1
0 -46 46 140 -0.707107 -0.707107 0 -53.964567 2.0625 1 0 1
brick_brick_ext_08
0 46 -46 -140 -0.707107 -0.707107 0 -52.948111 -0.125 1 0 1
0 -46 46 140 -0.707107 -0.707107 0 -53.964567 2.0625 1 0 1
0 -46 46 -140 -0.707107 -0.707107 0 -53.964567 -0.125 1 0 1
facepunch_bubz_gmoffices_bubz_wall
0 46 -30 140 0.707107 0.707107 0 -106.530028 2.0625 1 0 1
0 46 -30 -140 0.707107 0.707107 0 -106.530028 -0.125 1 0 1
0 -30 46 -140 0.707107 0.707107 0 -108.209391 -0.125 1 0 1
facepunch_bubz_gmoffices_bubz_wall
0 46 -30 140 0.707107 0.707107 0 -106.530028 2.0625 1 0 1
0 -30 46 -140 0.707107 0.707107 0 -108.209391 -0.125 1 0 1
0 -30 46 140 0.707107 0.707107 0 -108.209391 2.0625 1 0 1
concrete_concretewall001a
0 148 -42 -133.001 0 1 0 167.093099 -2.127617 1 0 1
0 148 -42 -219.999 0 1 0 167.093099 -3.260404 1 0 1
0 146 -42 -217.999 0 1 0 167.119141 -3.234362 1 0 1
concrete_concretewall001a
0 148 -42 -133.001 0 1 0 167.093099 -2.127617 1 0 1
0 146 -42 -217.999 0 1 0 167.119141 -3.234362 1 0 1
0 146 -42 -135.001 0 1 0 167.119141 -2.153659 1 0 1
concrete_concretewall001a
0 148 -46 -219.999 0 -1 0 167.093099 -3.260404 1 0 1
0 148 -46 -133.02 0 -1 0 167.093099 -2.127865 1 0 1
0 146 -46 -135.02 0 -1 0 167.119141 -2.153906 1 0 1
concrete_concretewall001a
0 148 -46 -219.999 0 -1 0 167.093099 -3.260404 1 0 1
0 146 -46 -135.02 0 -1 0 167.119141 -2.153906 1 0 1
0 146 -46 -217.999 0 -1 0 167.119141 -3.234362 1 0 1
concrete_concretewall001a
0 146 -46 -217.999 -1 0 0 -43.880208 -3.234362 1 0 1
0 146 -46 -135.02 -1 0 0 -43.880208 -2.153906 1 0 1
0 146 -42 -135.001 -1 0 0 -43.828125 -2.153659 1 0 1
concrete_concretewall001a
0 146 -46 -217.999 -1 0 0 -43.880208 -3.234362 1 0 1
0 146 -42 -135.001 -1 0 0 -43.828125 -2.153659 1 0 1
0 146 -42 -217.999 -1 0 0 -43.828125 -3.234362 1 0 1
concrete_concretewall001a
0 -46 65 -7 -1 0 0 -42.934896 -0.486979 1 0 1
0 -46 63 -5 -1 0 0 -42.960938 -0.460938 1 0 1
0 -46 118 -5 -1 0 0 -42.244792 -0.460938 1 0 1
concrete_concretewall001a
0 -46 65 -7 -1 0 0 -42.934896 -0.486979 1 0 1
0 -46 118 -5 -1 0 0 -42.244792 -0.460938 1 0 1
0 -46 116 -7 -1 0 0 -42.270833 -0.486979 1 0 1
concrete_concretewall001a
0 -42 63 -5 1 0 0 -42.960937 -0.460938 1 0 1
0 -42 65 -7 1 0 0 -42.934896 -0.486979 1 0 1
0 -42 116 -7 1 0 0 -42.270833 -0.486979 1 0 1
concrete_concretewall001a
0 -42 63 -5 1 0 0 -42.960937 -0.460938 1 0 1
0 -42 116 -7 1 0 0 -42.270833 -0.486979 1 0 1
0 -42 118 -5 1 0 0 -42.244792 -0.460938 1 0 1
concrete_concretewall001a
0 -42 65 -7 0 0 -1 -42.934896 170.461589 1 0 1
0 -46 65 -7 0 0 -1 -42.934896 170.513672 1 0 1
0 -46 116 -7 0 0 -1 -42.270833 170.513672 1 0 1
concrete_concretewall001a
0 -42 65 -7 0 0 -1 -42.934896 170.461589 1 0 1
0 -46 116 -7 0 0 -1 -42.270833 170.513672 1 0 1
0 -42 116 -7 0 0 -1 -42.270833 170.461589 1 0 1
pepsi2_gta4_churchstairs
0 191 56 -104.001 0 -1 0 -167.193359 -1.208997 1 0 1
0 191 56 -88 0 -1 0 -167.193359 -1.000651 1 0 1
0 144 56 -88 0 -1 0 -167.805339 -1.000651 1 0 1
pepsi2_gta4_churchstairs
0 191 56 -104.001 0 -1 0 -167.193359 -1.208997 1 0 1
0 144 56 -88 0 -1 0 -167.805339 -1.000651 1 0 1
0 144 56 -104.001 0 -1 0 -167.805339 -1.208997 1 0 1
pepsi2_gta4_churchfloor
0 144 56 -104.001 -1 0 0 57.065545 17.962767 1 0 1
0 144 56 -88 -1 0 0 57.128049 18.05116 1 0 1
0 144 72 -88 -1 0 0 57.190549 17.962773 1 0 1
pepsi2_gta4_churchstairs
0 144 56 -88 0 0 1 -167.805339 -42.208333 1 0 1
0 191 56 -88 0 0 1 -167.193359 -42.208333 1 0 1
0 191 72 -88 0 0 1 -167.193359 -42 1 0 1
pepsi2_gta4_churchstairs
0 144 56 -88 0 0 1 -167.805339 -42.208333 1 0 1
0 191 72 -88 0 0 1 -167.193359 -42 1 0 1
0 144 72 -88 0 0 1 -167.805339 -42 1 0 1
concrete_concretewall001a
0 -42 65 -218 0 1 0 -169.883464 -3.234375 1 0 1
0 -46 65 -218 0 1 0 -169.935547 -3.234375 1 0 1
0 -46 65 -135 0 1 0 -169.935547 -2.153646 1 0 1
concrete_concretewall001a
0 -42 65 -218 0 1 0 -169.883464 -3.234375 1 0 1
0 -46 65 -135 0 1 0 -169.935547 -2.153646 1 0 1
0 -42 65 -135 0 1 0 -169.883464 -2.153646 1 0 1
concrete_concretewall001a
0 -46 63 -133 -1 0 0 -42.960938 -2.127604 1 0 1
0 -46 65 -135 -1 0 0 -42.934896 -2.153646 1 0 1
0 -46 65 -218 -1 0 0 -42.934896 -3.234375 1 0 1
concrete_concretewall001a
0 -46 63 -133 -1 0 0 -42.960938 -2.127604 1 0 1
0 -46 65 -218 -1 0 0 -42.934896 -3.234375 1 0 1
0 -46 63 -220 -1 0 0 -42.960938 -3.260417 1 0 1
concrete_concretewall001a
0 -42 63 -220 1 0 0 42.601562 -3.260417 1 0 1
0 -42 65 -218 1 0 0 42.575521 -3.234375 1 0 1
0 -42 65 -135 1 0 0 42.575521 -2.153646 1 0 1
concrete_concretewall001a
0 -42 63 -220 1 0 0 42.601562 -3.260417 1 0 1
0 -42 65 -135 1 0 0 42.575521 -2.153646 1 0 1
0 -42 63 -133 1 0 0 42.601562 -2.127604 1 0 1
concrete_concretewall001a
0 -46 192 -133 -1 0 0 40.921875 -2.127604 1 0 1
0 -46 255 -133 -1 0 0 40.101562 -2.127604 1 0 1
0 -46 253 -135 -1 0 0 40.127604 -2.153646 1 0 1
concrete_concretewall001a
0 -46 192 -133 -1 0 0 40.921875 -2.127604 1 0 1
0 -46 253 -135 -1 0 0 40.127604 -2.153646 1 0 1
0 -46 194 -135 -1 0 0 40.895833 -2.153646 1 0 1
concrete_concretewall001a
0 -42 194 -135 1 0 0 40.895833 -2.153646 1 0 1
0 -42 253 -135 1 0 0 40.127604 -2.153646 1 0 1
0 -42 255 -133 1 0 0 40.101562 -2.127604 1 0 1
concrete_concretewall001a
0 -42 194 -135 1 0 0 40.895833 -2.153646 1 0 1
0 -42 255 -133 1 0 0 40.101562 -2.127604 1 0 1
0 -42 192 -133 1 0 0 40.921875 -2.127604 1 0 1
concrete_concretewall001a
0 -46 194 -135 0 0 -1 169.845703 41.948568 1 0 1
0 -46 253 -135 0 0 -1 169.845703 41.180339 1 0 1
0 -42 253 -135 0 0 -1 169.79362 41.180339 1 0 1
concrete_concretewall001a
0 -46 194 -135 0 0 -1 169.845703 41.948568 1 0 1
0 -42 253 -135 0 0 -1 169.79362 41.180339 1 0 1
0 -42 194 -135 0 0 -1 169.79362 41.948568 1 0 1
concrete_concretewall001a
0 -42 116 120.99982 0 -1 0 169.567057 1.179685 1 0 1
0 -46 116 120.99982 0 -1 0 169.619141 1.179685 1 0 1
0 -46 116 38.0004 0 -1 0 169.619141 0.098964 1 0 1
concrete_concretewall001a
0 -42 116 120.99982 0 -1 0 169.567057 1.179685 1 0 1
0 -46 116 38.0004 0 -1 0 169.619141 0.098964 1 0 1
0 -42 116 38.0004 0 -1 0 169.567057 0.098964 1 0 1
concrete_concretewall001a
0 -46 118 36.0004 -1 0 0 -42.244792 0.072922 1 0 1
0 -46 116 38.0004 -1 0 0 -42.270833 0.098964 1 0 1
0 -46 116 120.99982 -1 0 0 -42.270833 1.179685 1 0 1
concrete_concretewall001a
0 -46 118 36.0004 -1 0 0 -42.244792 0.072922 1 0 1
0 -46 116 120.99982 -1 0 0 -42.270833 1.179685 1 0 1
0 -46 118 122.99982 -1 0 0 -42.244792 1.205727 1 0 1
concrete_concretewall001a
0 -42 118 122.99982 1 0 0 42.432292 1.205727 1 0 1
0 -42 116 120.99982 1 0 0 42.458333 1.179685 1 0 1
0 -42 116 38.0004 1 0 0 42.458333 0.098964 1 0 1
concrete_concretewall001a
0 -42 118 122.99982 1 0 0 42.432292 1.205727 1 0 1
0 -42 116 38.0004 1 0 0 42.458333 0.098964 1 0 1
0 -42 118 36.0004 1 0 0 42.432292 0.072922 1 0 1
pepsi2_gta4_churchstairs
0 188 129 116.00082 0 -1 0 -167.232422 0.792328 1 0 1
0 188 129 132 0 -1 0 -167.232422 1.000651 1 0 1
0 132 129 132 0 -1 0 -167.961589 1.000651 1 0 1
pepsi2_gta4_churchstairs
0 188 129 116.00082 0 -1 0 -167.232422 0.792328 1 0 1
0 132 129 132 0 -1 0 -167.961589 1.000651 1 0 1
0 132 129 116.00082 0 -1 0 -167.961589 0.792328 1 0 1
pepsi2_gta4_churchfloor
0 132 129 116.00082 -1 0 0 58.635749 19.05804 1 0 1
0 132 129 132 -1 0 0 58.698246 19.146423 1 0 1
0 132 145 132 -1 0 0 58.760746 19.058036 1 0 1
pepsi2_gta4_churchstairs
0 132 129 132 0 0 1 -167.961589 -41.208984 1 0 1
0 188 129 132 0 0 1 -167.232422 -41.208984 1 0 1
0 188 145 132 0 0 1 -167.232422 -41.000651 1 0 1
pepsi2_gta4_churchstairs
0 132 129 132 0 0 1 -167.961589 -41.208984 1 0 1
0 188 145 132 0 0 1 -167.232422 -41.000651 1 0 1
0 132 145 132 0 0 1 -167.961589 -41.000651 1 0 1
concrete_concretewall001a
0 -42 65 -7 0 1 0 -169.883464 -0.486979 1 0 1
0 -42 65 -90 0 1 0 -169.883464 -1.567708 1 0 1
0 -46 65 -90 0 1 0 -169.935547 -1.567708 1 0 1
concrete_concretewall001a
0 -42 65 -7 0 1 0 -169.883464 -0.486979 1 0 1
0 -46 65 -90 0 1 0 -169.935547 -1.567708 1 0 1
0 -46 65 -7 0 1 0 -169.935547 -0.486979 1 0 1
concrete_concretewall001a
0 -46 63 -92 -1 0 0 -42.960938 -1.59375 1 0 1
0 -46 63 -5 -1 0 0 -42.960938 -0.460938 1 0 1
0 -46 65 -7 -1 0 0 -42.934896 -0.486979 1 0 1
concrete_concretewall001a
0 -46 63 -92 -1 0 0 -42.960938 -1.59375 1 0 1
0 -46 65 -7 -1 0 0 -42.934896 -0.486979 1 0 1
0 -46 65 -90 -1 0 0 -42.934896 -1.567708 1 0 1
concrete_concretewall001a
0 -42 63 -5 1 0 0 -42.960938 -0.460938 1 0 1
0 -42 63 -92 1 0 0 -42.960938 -1.59375 1 0 1
0 -42 65 -90 1 0 0 -42.934896 -1.567708 1 0 1
concrete_concretewall001a
0 -42 63 -5 1 0 0 -42.960938 -0.460938 1 0 1
0 -42 65 -90 1 0 0 -42.934896 -1.567708 1 0 1
0 -42 65 -7 1 0 0 -42.934896 -0.486979 1 0 1
pepsi2_arch_st_sidewalk02
0 -75 -142 -252 0 0 1 -73.132533 -18.54269 1 0 1
0 -211 -142 -252 0 0 1 -73.891462 -18.54269 1 0 1
0 -209 -167.99 -252 0 0 1 -73.880301 -18.687723 1 0 1
pepsi2_arch_st_sidewalk02
0 -75 -142 -252 0 0 1 -73.132533 -18.54269 1 0 1
0 -209 -167.99 -252 0 0 1 -73.880301 -18.687723 1 0 1
0 -200.992053 -194.035848 -252 0 0 1 -73.835614 -18.833068 1 0 1
pepsi2_arch_st_sidewalk02
0 -75 -142 -252 0 0 1 -73.132533 -18.54269 1 0 1
0 -200.992053 -194.035848 -252 0 0 1 -73.835614 -18.833068 1 0 1
0 -188.988647 -217.97264 -252 0 0 1 -73.768631 -18.966644 1 0 1
pepsi2_arch_st_sidewalk02
0 -75 -142 -252 0 0 1 -73.132533 -18.54269 1 0 1
0 -188.988647 -217.97264 -252 0 0 1 -73.768631 -18.966644 1 0 1
0 -171 -238 -252 0 0 1 -73.668248 -19.078404 1 0 1
pepsi2_arch_st_sidewalk02
0 -75 -142 -252 0 0 1 -73.132533 -18.54269 1 0 1
0 -171 -238 -252 0 0 1 -73.668248 -19.078404 1 0 1
0 -151 -256 -252 0 0 1 -73.556641 -19.17885 1 0 1
pepsi2_arch_st_sidewalk02
0 -75 -142 -252 0 0 1 -73.132533 -18.54269 1 0 1
0 -151 -256 -252 0 0 1 -73.556641 -19.17885 1 0 1
0 -127 -268 -252 0 0 1 -73.422712 -19.245815 1 0 1
pepsi2_arch_st_sidewalk02
0 -75 -142 -252 0 0 1 -73.132533 -18.54269 1 0 1
0 -127 -268 -252 0 0 1 -73.422712 -19.245815 1 0 1
0 -101 -276 -252 0 0 1 -73.277623 -19.290458 1 0 1
pepsi2_arch_st_sidewalk02
0 -75 -142 -252 0 0 1 -73.132533 -18.54269 1 0 1
0 -101 -276 -252 0 0 1 -73.277623 -19.290458 1 0 1
0 -75 -278 -252 0 0 1 -73.132533 -19.301618 1 0 1
pepsi2_gta4_churchstairs
0 188 97 84.0008 0 -1 0 -167.232422 0.791677 1 0 1
0 188 97 100 0 -1 0 -167.232422 1 1 0 1
0 132 97 100 0 -1 0 -167.961589 1 1 0 1
pepsi2_gta4_churchstairs
0 188 97 84.0008 0 -1 0 -167.232422 0.791677 1 0 1
0 132 97 100 0 -1 0 -167.961589 1 1 0 1
0 132 97 84.0008 0 -1 0 -167.961589 0.791677 1 0 1
pepsi2_gta4_churchfloor
0 132 97 84.0008 -1 0 0 58.385749 19.05804 1 0 1
0 132 97 100 -1 0 0 58.448246 19.146423 1 0 1
0 132 113 100 -1 0 0 58.510746 19.058036 1 0 1
pepsi2_gta4_churchstairs
0 132 97 100 0 0 1 -167.961589 -41.207682 1 0 1
0 188 97 100 0 0 1 -167.232422 -41.207682 1 0 1
0 188 113 100 0 0 1 -167.232422 -40.999349 1 0 1
pepsi2_gta4_churchstairs
0 132 97 100 0 0 1 -167.961589 -41.207682 1 0 1
0 188 113 100 0 0 1 -167.232422 -40.999349 1 0 1
0 132 113 100 0 0 1 -167.961589 -40.999349 1 0 1
pepsi2_gta4_churchfloor
0 144 152 8 -1 0 0 57.878049 18.05116 1 0 1
0 144 168 8 -1 0 0 57.940549 17.962773 1 0 1
0 144 152 -8.001 -1 0 0 57.815545 17.962767 1 0 1
pepsi2_gta4_churchstairs
0 191 152 8 0 0 1 -167.193359 -40.208333 1 0 1
0 191 168 8 0 0 1 -167.193359 -40 1 0 1
0 144 168 8 0 0 1 -167.805339 -40 1 0 1
pepsi2_gta4_churchstairs
0 191 152 8 0 0 1 -167.193359 -40.208333 1 0 1
0 144 168 8 0 0 1 -167.805339 -40 1 0 1
0 144 152 8 0 0 1 -167.805339 -40.208333 1 0 1
pepsi2_gta4_churchstairs
0 191 152 -8.001 0 -1 0 -167.193359 -0.208997 1 0 1
0 191 152 8 0 -1 0 -167.193359 -0.000651 1 0 1
0 144 152 8 0 -1 0 -167.805339 -0.000651 1 0 1
pepsi2_gta4_churchstairs
0 191 152 -8.001 0 -1 0 -167.193359 -0.208997 1 0 1
0 144 152 8 0 -1 0 -167.805339 -0.000651 1 0 1
0 144 152 -8.001 0 -1 0 -167.805339 -0.208997 1 0 1
goldeneye_caverns_cavernsconcretefloor02
0 -223 -172 -252 0 0 1 95.847873 27.047598 1 0 1
0 -213 -200 -252 0 0 1 95.775535 27.250145 1 0 1
0 -201 -194 -252 0 0 1 95.68873 27.206742 1 0 1
goldeneye_caverns_cavernsconcretefloor02
0 -223 -172 -252 0 0 1 95.847873 27.047598 1 0 1
0 -201 -194 -252 0 0 1 95.68873 27.206742 1 0 1
0 -209 -168 -252 0 0 1 95.7466 27.018663 1 0 1
goldeneye_caverns_cavernsconcretefloor02
0 -213 -200 -252 -0.941742 -0.336336 0 2.862486 -6.73423 1 0 1
0 -223 -172 -252 -0.941742 -0.336336 0 2.862486 -6.949295 1 0 1
0 -223 -172 -256 -0.941742 -0.336336 0 2.891421 -6.949295 1 0 1
goldeneye_caverns_cavernsconcretefloor02
0 -213 -200 -252 -0.941742 -0.336336 0 2.862486 -6.73423 1 0 1
0 -223 -172 -256 -0.941742 -0.336336 0 2.891421 -6.949295 1 0 1
0 -213 -200 -256 -0.941742 -0.336336 0 2.891421 -6.73423 1 0 1
goldeneye_caverns_cavernsconcretefloor02
0 -159 -266 -252 0 0 1 95.38491 27.727575 1 0 1
0 -151 -256 -252 0 0 1 95.32704 27.655237 1 0 1
0 -171 -238 -252 0 0 1 95.471716 27.525029 1 0 1
goldeneye_caverns_cavernsconcretefloor02
0 -159 -266 -252 0 0 1 95.38491 27.727575 1 0 1
0 -171 -238 -252 0 0 1 95.471716 27.525029 1 0 1
0 -181 -248 -252 0 0 1 95.544054 27.597367 1 0 1
goldeneye_caverns_cavernsconcretefloor02
0 -159 -266 -256 -0.633238 -0.773957 0 56.792337 7.45975 1 0 1
0 -159 -266 -252 -0.633238 -0.773957 0 56.794255 7.430878 1 0 1
0 -181 -248 -252 -0.633238 -0.773957 0 56.999427 7.444585 1 0 1
goldeneye_caverns_cavernsconcretefloor02
0 -159 -266 -256 -0.633238 -0.773957 0 56.792337 7.45975 1 0 1
0 -181 -248 -252 -0.633238 -0.773957 0 56.999427 7.444585 1 0 1
0 -181 -248 -256 -0.633238 -0.773957 0 56.997509 7.473456 1 0 1
pepsi2_gta4_churchstairs
0 191 170 -148 0 -1 0 99.402344 3.125 1 0 1
0 191 170 -132 0 -1 0 99.402344 3 1 0 1
0 144 170 -132 0 -1 0 99.769531 3 1 0 1
pepsi2_gta4_churchstairs
0 191 170 -148 0 -1 0 99.402344 3.125 1 0 1
0 144 170 -132 0 -1 0 99.769531 3 1 0 1
0 144 170 -148 0 -1 0 99.769531 3.125 1 0 1
pepsi2_gta4_churchfloor
0 144 170 -148 -1 0 0 1.378906 26.191406 1 0 1
0 144 170 -132 -1 0 0 1.253906 26.191406 1 0 1
0 144 186 -132 -1 0 0 1.253906 26.066406 1 0 1
pepsi2_gta4_churchstairs
0 144 170 -132 0 0 1 99.769531 26 1 0 1
0 191 170 -132 0 0 1 99.402344 26 1 0 1
0 191 186 -132 0 0 1 99.402344 25.875 1 0 1
pepsi2_gta4_churchstairs
0 144 170 -132 0 0 1 99.769531 26 1 0 1
0 191 186 -132 0 0 1 99.402344 25.875 1 0 1
0 144 186 -132 0 0 1 99.769531 25.875 1 0 1
concrete_concretewall001a
0 -46 202 -90 -1 0 0 -40.934245 -1.567708 1 0 1
0 -46 253 -90 -1 0 0 -40.270182 -1.567708 1 0 1
0 -46 255 -92 -1 0 0 -40.244141 -1.59375 1 0 1
concrete_concretewall001a
0 -46 202 -90 -1 0 0 -40.934245 -1.567708 1 0 1
0 -46 255 -92 -1 0 0 -40.244141 -1.59375 1 0 1
0 -46 200 -92 -1 0 0 -40.960286 -1.59375 1 0 1
concrete_concretewall001a
0 -42 200 -92 1 0 0 -40.960286 -1.59375 1 0 1
0 -42 255 -92 1 0 0 -40.244141 -1.59375 1 0 1
0 -42 253 -90 1 0 0 -40.270182 -1.567708 1 0 1
concrete_concretewall001a
0 -42 200 -92 1 0 0 -40.960286 -1.59375 1 0 1
0 -42 253 -90 1 0 0 -40.270182 -1.567708 1 0 1
0 -42 202 -90 1 0 0 -40.934245 -1.567708 1 0 1
concrete_concretewall001a
0 -42 202 -90 0 0 1 -40.934245 -168.516276 1 0 1
0 -42 253 -90 0 0 1 -40.270182 -168.516276 1 0 1
0 -46 253 -90 0 0 1 -40.270182 -168.568359 1 0 1
concrete_concretewall001a
0 -42 202 -90 0 0 1 -40.934245 -168.516276 1 0 1
0 -46 253 -90 0 0 1 -40.270182 -168.568359 1 0 1
0 -46 202 -90 0 0 1 -40.934245 -168.568359 1 0 1
concrete_concretewall001a
0 -46 192 -220 -1 0 0 40.921875 -3.260417 1 0 1
0 -46 194 -218 -1 0 0 40.895833 -3.234375 1 0 1
0 -46 253 -218 -1 0 0 40.127604 -3.234375 1 0 1
concrete_concretewall001a
0 -46 192 -220 -1 0 0 40.921875 -3.260417 1 0 1
0 -46 253 -218 -1 0 0 40.127604 -3.234375 1 0 1
0 -46 255 -220 -1 0 0 40.101562 -3.260417 1 0 1
concrete_concretewall001a
0 -42 194 -218 1 0 0 40.895833 -3.234375 1 0 1
0 -42 192 -220 1 0 0 40.921875 -3.260417 1 0 1
0 -42 255 -220 1 0 0 40.101562 -3.260417 1 0 1
concrete_concretewall001a
0 -42 194 -218 1 0 0 40.895833 -3.234375 1 0 1
0 -42 255 -220 1 0 0 40.101562 -3.260417 1 0 1
0 -42 253 -218 1 0 0 40.127604 -3.234375 1 0 1
concrete_concretewall001a
0 -46 194 -218 0 0 1 40.895833 170.818359 1 0 1
0 -42 194 -218 0 0 1 40.895833 170.766276 1 0 1
0 -42 253 -218 0 0 1 40.127604 170.766276 1 0 1
concrete_concretewall001a
0 -46 194 -218 0 0 1 40.895833 170.818359 1 0 1
0 -42 253 -218 0 0 1 40.127604 170.766276 1 0 1
0 -46 253 -218 0 0 1 40.127604 170.818359 1 0 1
pepsi2_gta4_churchstairs
0 191 74 -244 0 -1 0 99.402344 3.125 1 0 1
0 191 74 -228 0 -1 0 99.402344 3 1 0 1
0 144 74 -228 0 -1 0 99.769531 3 1 0 1
pepsi2_gta4_churchstairs
0 191 74 -244 0 -1 0 99.402344 3.125 1 0 1
0 144 74 -228 0 -1 0 99.769531 3 1 0 1
0 144 74 -244 0 -1 0 99.769531 3.125 1 0 1
pepsi2_gta4_churchfloor
0 144 74 -244 -1 0 0 2.128906 26.941406 1 0 1
0 144 74 -228 -1 0 0 2.003906 26.941406 1 0 1
0 144 90 -228 -1 0 0 2.003906 26.816406 1 0 1
pepsi2_gta4_churchstairs
0 144 74 -228 0 0 1 99.769531 27 1 0 1
0 191 74 -228 0 0 1 99.402344 27 1 0 1
0 191 90 -228 0 0 1 99.402344 26.875 1 0 1
pepsi2_gta4_churchstairs
0 144 74 -228 0 0 1 99.769531 27 1 0 1
0 191 90 -228 0 0 1 99.402344 26.875 1 0 1
0 144 90 -228 0 0 1 99.769531 26.875 1 0 1
pepsi2_gta4_churchstairs
0 188 33 20.001 0 -1 0 -167.232422 -0.207669 1 0 1
0 188 33 36 0 -1 0 -167.232422 0.000651 1 0 1
0 132 33 36 0 -1 0 -167.961589 0.000651 1 0 1
pepsi2_gta4_churchstairs
0 188 33 20.001 0 -1 0 -167.232422 -0.207669 1 0 1
0 132 33 36 0 -1 0 -167.961589 0.000651 1 0 1
0 132 33 20.001 0 -1 0 -167.961589 -0.207669 1 0 1
pepsi2_gta4_churchfloor
0 132 33 20.001 -1 0 0 57.88575 19.058041 1 0 1
0 132 33 36 -1 0 0 57.948246 19.146423 1 0 1
0 132 49 36 -1 0 0 58.010746 19.058036 1 0 1
pepsi2_gta4_churchstairs
0 132 33 36 0 0 1 -167.961589 -42.208984 1 0 1
0 188 33 36 0 0 1 -167.232422 -42.208984 1 0 1
0 188 49 36 0 0 1 -167.232422 -42.000651 1 0 1
pepsi2_gta4_churchstairs
0 132 33 36 0 0 1 -167.961589 -42.208984 1 0 1
0 188 49 36 0 0 1 -167.232422 -42.000651 1 0 1
0 132 49 36 0 0 1 -167.961589 -42.000651 1 0 1
concrete_concretewall001a
0 -42 125 -218 0 -1 0 169.79362 -3.234375 1 0 1
0 -42 125 -135 0 -1 0 169.79362 -2.153646 1 0 1
0 -46 125 -135 0 -1 0 169.845703 -2.153646 1 0 1
concrete_concretewall001a
0 -42 125 -218 0 -1 0 169.79362 -3.234375 1 0 1
0 -46 125 -135 0 -1 0 169.845703 -2.153646 1 0 1
0 -46 125 -218 0 -1 0 169.845703 -3.234375 1 0 1
concrete_concretewall001a
0 -46 125 -218 -1 0 0 -42.153646 -3.234375 1 0 1
0 -46 125 -135 -1 0 0 -42.153646 -2.153646 1 0 1
0 -46 127 -133 -1 0 0 -42.127604 -2.127604 1 0 1
concrete_concretewall001a
0 -46 125 -218 -1 0 0 -42.153646 -3.234375 1 0 1
0 -46 127 -133 -1 0 0 -42.127604 -2.127604 1 0 1
0 -46 127 -220 -1 0 0 -42.127604 -3.260417 1 0 1
concrete_concretewall001a
0 -42 125 -135 1 0 0 41.794271 -2.153646 1 0 1
0 -42 125 -218 1 0 0 41.794271 -3.234375 1 0 1
0 -42 127 -220 1 0 0 41.768229 -3.260417 1 0 1
concrete_concretewall001a
0 -42 125 -135 1 0 0 41.794271 -2.153646 1 0 1
0 -42 127 -220 1 0 0 41.768229 -3.260417 1 0 1
0 -42 127 -133 1 0 0 41.768229 -2.127604 1 0 1
concrete_concretewall001a
0 -46 65 -218 -1 0 0 -42.934896 -3.234375 1 0 1
0 -46 125 -218 -1 0 0 -42.153646 -3.234375 1 0 1
0 -46 127 -220 -1 0 0 -42.127604 -3.260417 1 0 1
concrete_concretewall001a
0 -46 65 -218 -1 0 0 -42.934896 -3.234375 1 0 1
0 -46 127 -220 -1 0 0 -42.127604 -3.260417 1 0 1
0 -46 63 -220 -1 0 0 -42.960938 -3.260417 1 0 1
concrete_concretewall001a
0 -42 63 -220 1 0 0 42.601562 -3.260417 1 0 1
0 -42 127 -220 1 0 0 41.768229 -3.260417 1 0 1
0 -42 125 -218 1 0 0 41.794271 -3.234375 1 0 1
concrete_concretewall001a
0 -42 63 -220 1 0 0 42.601562 -3.260417 1 0 1
0 -42 125 -218 1 0 0 41.794271 -3.234375 1 0 1
0 -42 65 -218 1 0 0 42.575521 -3.234375 1 0 1
concrete_concretewall001a
0 -42 65 -218 0 0 1 -42.934896 -169.182292 1 0 1
0 -42 125 -218 0 0 1 -42.153646 -169.182292 1 0 1
0 -46 125 -218 0 0 1 -42.153646 -169.234375 1 0 1
concrete_concretewall001a
0 -42 65 -218 0 0 1 -42.934896 -169.182292 1 0 1
0 -46 125 -218 0 0 1 -42.153646 -169.234375 1 0 1
0 -46 65 -218 0 0 1 -42.934896 -169.234375 1 0 1
concrete_concretewall001a
0 20.6 -19.96 -252 -0.710865 -0.703329 0 89.192908 -3.677083 1 0 1
0 20.6 -19.96 -139.8 -0.710865 -0.703329 0 89.192908 -2.216146 1 0 1
0 17.8 -17.13 -143.737673 -0.710865 -0.703329 0 89.244744 -2.267418 1 0 1
concrete_concretewall001a
0 20.6 -19.96 -252 -0.710865 -0.703329 0 89.192908 -3.677083 1 0 1
0 17.8 -17.13 -143.737673 -0.710865 -0.703329 0 89.244744 -2.267418 1 0 1
0 17.8 -17.13 -252 -0.710865 -0.703329 0 89.244744 -3.677083 1 0 1
pepsi2_arch_concrete_floor_smooth01
0 20.6 -19.96 -139.8 0.704887 -0.70932 0 -100.948438 -1.6625 1 0 1
0 20.6 -19.96 -252 0.704887 -0.70932 0 -100.948438 -2.539062 1 0 1
0 27 -13.6 -252 0.704887 -0.70932 0 -100.898437 -2.539062 1 0 1
pepsi2_arch_concrete_floor_smooth01
0 20.6 -19.96 -139.8 0.704887 -0.70932 0 -100.948438 -1.6625 1 0 1
0 27 -13.6 -252 0.704887 -0.70932 0 -100.898437 -2.539062 1 0 1
0 27 -13.6 -139.723 0.704887 -0.70932 0 -100.898437 -1.661898 1 0 1
concrete_concretewall001a
0 17.8 -17.13 -252 -0.71045 0.703748 0 -149.758627 -3.677083 1 0 1
0 17.8 -17.13 -143.737673 -0.71045 0.703748 0 -149.758627 -2.267418 1 0 1
0 24.1 -10.77 -143.731 -0.71045 0.703748 0 -149.642057 -2.267331 1 0 1
concrete_concretewall001a
0 17.8 -17.13 -252 -0.71045 0.703748 0 -149.758627 -3.677083 1 0 1
0 24.1 -10.77 -143.731 -0.71045 0.703748 0 -149.642057 -2.267331 1 0 1
0 24.1 -10.77 -252 -0.71045 0.703748 0 -149.642057 -3.677083 1 0 1
concrete_concretewall001a
0 27 -13.6 -139.723 0.698416 0.715692 0 89.202024 -2.215143 1 0 1
0 27 -13.6 -252 0.698416 0.715692 0 89.202024 -3.677083 1 0 1
0 24.1 -10.77 -252 0.698416 0.715692 0 89.254784 -3.677083 1 0 1
concrete_concretewall001a
0 27 -13.6 -139.723 0.698416 0.715692 0 89.202024 -2.215143 1 0 1
0 24.1 -10.77 -252 0.698416 0.715692 0 89.254784 -3.677083 1 0 1
0 24.1 -10.77 -143.731 0.698416 0.715692 0 89.254784 -2.267331 1 0 1
pepsi2_gta4_churchstairs
0 144 59 -241 0 0 1 99.769531 27 1 0 1
0 191 59 -241 0 0 1 99.402344 27 1 0 1
0 191 74 -241 0 0 1 99.402344 26.882812 1 0 1
pepsi2_gta4_churchstairs
0 144 59 -241 0 0 1 99.769531 27 1 0 1
0 191 74 -241 0 0 1 99.402344 26.882812 1 0 1
0 144 74 -241 0 0 1 99.769531 26.882812 1 0 1
pepsi2_gta4_churchfloor
0 191 74 -252 0 1 0 2.191406 100.574219 1 0 1
0 144 74 -252 0 1 0 2.191406 100.941406 1 0 1
0 144 74 -241 0 1 0 2.105469 100.941406 1 0 1
pepsi2_gta4_churchfloor
0 191 74 -252 0 1 0 2.191406 100.574219 1 0 1
0 144 74 -241 0 1 0 2.105469 100.941406 1 0 1
0 191 74 -241 0 1 0 2.105469 100.574219 1 0 1
pepsi2_gta4_churchstairs
0 191 59 -241 0 -1 0 99.402344 3 1 0 1
0 144 59 -241 0 -1 0 99.769531 3 1 0 1
0 144 59 -252 0 -1 0 99.769531 3.085938 1 0 1
pepsi2_gta4_churchstairs
0 191 59 -241 0 -1 0 99.402344 3 1 0 1
0 144 59 -252 0 -1 0 99.769531 3.085938 1 0 1
0 191 59 -252 0 -1 0 99.402344 3.085938 1 0 1
pepsi2_gta4_churchfloor
0 144 59 -241 -1 0 0 2.105469 27.058594 1 0 1
0 144 74 -241 -1 0 0 2.105469 26.941406 1 0 1
0 144 74 -252 -1 0 0 2.191406 26.941406 1 0 1
pepsi2_gta4_churchfloor
0 144 59 -241 -1 0 0 2.105469 27.058594 1 0 1
0 144 74 -252 -1 0 0 2.191406 26.941406 1 0 1
0 144 59 -252 -1 0 0 2.191406 27.058594 1 0 1
concrete_concretewall001a
0 148 -42 123 0 1 0 167.093099 1.205729 1 0 1
0 146 -42 121 0 1 0 167.119141 1.179688 1 0 1
0 94 -42 121 0 1 0 167.796224 1.179688 1 0 1
concrete_concretewall001a
0 148 -42 123 0 1 0 167.093099 1.205729 1 0 1
0 94 -42 121 0 1 0 167.796224 1.179688 1 0 1
0 92 -42 123 0 1 0 167.822266 1.205729 1 0 1
concrete_concretewall001a
0 146 -46 121 0 -1 0 167.119141 1.179688 1 0 1
0 148 -46 123 0 -1 0 167.093099 1.205729 1 0 1
0 92 -46 123 0 -1 0 167.822266 1.205729 1 0 1
concrete_concretewall001a
0 146 -46 121 0 -1 0 167.119141 1.179688 1 0 1
0 92 -46 123 0 -1 0 167.822266 1.205729 1 0 1
0 94 -46 121 0 -1 0 167.796224 1.179688 1 0 1
concrete_concretewall001a
0 94 -46 121 0 0 -1 167.796224 45.179036 1 0 1
0 94 -42 121 0 0 -1 167.796224 45.126953 1 0 1
0 146 -42 121 0 0 -1 167.119141 45.126953 1 0 1
concrete_concretewall001a
0 94 -46 121 0 0 -1 167.796224 45.179036 1 0 1
0 146 -42 121 0 0 -1 167.119141 45.126953 1 0 1
0 146 -46 121 0 0 -1 167.119141 45.179036 1 0 1
concrete_concretewall001a
0 -42 137 -7 0 1 0 -169.945964 -0.486979 1 0 1
0 -42 137 -90 0 1 0 -169.945964 -1.567708 1 0 1
0 -46 137 -90 0 1 0 -169.998047 -1.567708 1 0 1
concrete_concretewall001a
0 -42 137 -7 0 1 0 -169.945964 -0.486979 1 0 1
0 -46 137 -90 0 1 0 -169.998047 -1.567708 1 0 1
0 -46 137 -7 0 1 0 -169.998047 -0.486979 1 0 1
concrete_concretewall001a
0 -46 135 -92 -1 0 0 -42.023438 -1.59375 1 0 1
0 -46 135 -5 -1 0 0 -42.023438 -0.460938 1 0 1
0 -46 137 -7 -1 0 0 -41.997396 -0.486979 1 0 1
concrete_concretewall001a
0 -46 135 -92 -1 0 0 -42.023438 -1.59375 1 0 1
0 -46 137 -7 -1 0 0 -41.997396 -0.486979 1 0 1
0 -46 137 -90 -1 0 0 -41.997396 -1.567708 1 0 1
concrete_concretewall001a
0 -42 135 -5 1 0 0 -42.023438 -0.460938 1 0 1
0 -42 135 -92 1 0 0 -42.023438 -1.59375 1 0 1
0 -42 137 -90 1 0 0 -41.997396 -1.567708 1 0 1
concrete_concretewall001a
0 -42 135 -5 1 0 0 -42.023438 -0.460938 1 0 1
0 -42 137 -90 1 0 0 -41.997396 -1.567708 1 0 1
0 -42 137 -7 1 0 0 -41.997396 -0.486979 1 0 1
pepsi2_gta4_churchstairs
0 188 49 36.0008 0 -1 0 -167.232422 0.791677 1 0 1
0 188 49 52 0 -1 0 -167.232422 1 1 0 1
0 132 49 52 0 -1 0 -167.961589 1 1 0 1
pepsi2_gta4_churchstairs
0 188 49 36.0008 0 -1 0 -167.232422 0.791677 1 0 1
0 132 49 52 0 -1 0 -167.961589 1 1 0 1
0 132 49 36.0008 0 -1 0 -167.961589 0.791677 1 0 1
pepsi2_gta4_churchfloor
0 132 49 36.0008 -1 0 0 58.010749 19.05804 1 0 1
0 132 49 52 -1 0 0 58.073246 19.146423 1 0 1
0 132 65 52 -1 0 0 58.135746 19.058036 1 0 1
pepsi2_gta4_churchstairs
0 132 49 52 0 0 1 -167.961589 -42.207682 1 0 1
0 188 49 52 0 0 1 -167.232422 -42.207682 1 0 1
0 188 65 52 0 0 1 -167.232422 -41.999349 1 0 1
pepsi2_gta4_churchstairs
0 132 49 52 0 0 1 -167.961589 -42.207682 1 0 1
0 188 65 52 0 0 1 -167.232422 -41.999349 1 0 1
0 132 65 52 0 0 1 -167.961589 -41.999349 1 0 1
pepsi2_gta4_churchstairs
0 191 88 -72.001 0 -1 0 -167.193359 -1.208346 1 0 1
0 191 88 -56 0 -1 0 -167.193359 -1 1 0 1
0 144 88 -56 0 -1 0 -167.805339 -1 1 0 1
pepsi2_gta4_churchstairs
0 191 88 -72.001 0 -1 0 -167.193359 -1.208346 1 0 1
0 144 88 -56 0 -1 0 -167.805339 -1 1 0 1
0 144 88 -72.001 0 -1 0 -167.805339 -1.208346 1 0 1
pepsi2_gta4_churchfloor
0 144 88 -72.001 -1 0 0 57.315545 17.962767 1 0 1
0 144 88 -56 -1 0 0 57.378049 18.05116 1 0 1
0 144 104 -56 -1 0 0 57.440549 17.962773 1 0 1
pepsi2_gta4_churchstairs
0 144 88 -56 0 0 1 -167.805339 -41.207682 1 0 1
0 191 88 -56 0 0 1 -167.193359 -41.207682 1 0 1
0 191 104 -56 0 0 1 -167.193359 -40.999349 1 0 1
pepsi2_gta4_churchstairs
0 144 88 -56 0 0 1 -167.805339 -41.207682 1 0 1
0 191 104 -56 0 0 1 -167.193359 -40.999349 1 0 1
0 144 104 -56 0 0 1 -167.805339 -40.999349 1 0 1
pepsi2_gta4_churchstairs
0 191 138 -180 0 -1 0 99.402344 3.125 1 0 1
0 191 138 -164 0 -1 0 99.402344 3 1 0 1
0 144 138 -164 0 -1 0 99.769531 3 1 0 1
pepsi2_gta4_churchstairs
0 191 138 -180 0 -1 0 99.402344 3.125 1 0 1
0 144 138 -164 0 -1 0 99.769531 3 1 0 1
0 144 138 -180 0 -1 0 99.769531 3.125 1 0 1
pepsi2_gta4_churchfloor
0 144 138 -180 -1 0 0 1.628906 26.441406 1 0 1
0 144 138 -164 -1 0 0 1.503906 26.441406 1 0 1
0 144 154 -164 -1 0 0 1.503906 26.316406 1 0 1
pepsi2_gta4_churchstairs
0 144 138 -164 0 0 1 99.769531 26 1 0 1
0 191 138 -164 0 0 1 99.402344 26 1 0 1
0 191 154 -164 0 0 1 99.402344 25.875 1 0 1
pepsi2_gta4_churchstairs
0 144 138 -164 0 0 1 99.769531 26 1 0 1
0 191 154 -164 0 0 1 99.402344 25.875 1 0 1
0 144 154 -164 0 0 1 99.769531 25.875 1 0 1
pepsi2_gta4_churchstairs
0 188 81 68.0008 0 -1 0 -167.232422 0.792328 1 0 1
0 188 81 84 0 -1 0 -167.232422 1.000651 1 0 1
0 132 81 84 0 -1 0 -167.961589 1.000651 1 0 1
pepsi2_gta4_churchstairs
0 188 81 68.0008 0 -1 0 -167.232422 0.792328 1 0 1
0 132 81 84 0 -1 0 -167.961589 1.000651 1 0 1
0 132 81 68.0008 0 -1 0 -167.961589 0.792328 1 0 1
pepsi2_gta4_churchfloor
0 132 81 68.0008 -1 0 0 58.260749 19.05804 1 0 1
0 132 81 84 -1 0 0 58.323246 19.146423 1 0 1
0 132 97 84 -1 0 0 58.385746 19.058036 1 0 1
pepsi2_gta4_churchstairs
0 132 81 84 0 0 1 -167.961589 -41.208984 1 0 1
0 188 81 84 0 0 1 -167.232422 -41.208984 1 0 1
0 188 97 84 0 0 1 -167.232422 -41.000651 1 0 1
pepsi2_gta4_churchstairs
0 132 81 84 0 0 1 -167.961589 -41.208984 1 0 1
0 188 97 84 0 0 1 -167.232422 -41.000651 1 0 1
0 132 97 84 0 0 1 -167.961589 -41.000651 1 0 1
end
