version 1
nodes
0 "root" -1
end
skeleton
time 0
0 0 0 0 0 0 0
end
triangles
phys
0 -262 123 176 0 0 1 1 0 1 0 1
0 -262 123 166 0 0 1 1 0 1 0 1
0 -264 123 166 0 0 1 1 0 1 0 1
phys
0 -262 123 176 0 0 1 1 0 1 0 1
0 -264 123 166 0 0 1 1 0 1 0 1
0 -264 123 176 0 0 1 1 0 1 0 1
phys
0 -262 -4 166 0 0 1 1 0 1 0 1
0 -262 -4 176 0 0 1 1 0 1 0 1
0 -264 -4 176 0 0 1 1 0 1 0 1
phys
0 -262 -4 166 0 0 1 1 0 1 0 1
0 -264 -4 176 0 0 1 1 0 1 0 1
0 -264 -4 166 0 0 1 1 0 1 0 1
phys
0 -264 -4 166 0 0 1 1 0 1 0 1
0 -264 -4 176 0 0 1 1 0 1 0 1
0 -264 123 176 0 0 1 1 0 1 0 1
phys
0 -264 -4 166 0 0 1 1 0 1 0 1
0 -264 123 176 0 0 1 1 0 1 0 1
0 -264 123 166 0 0 1 1 0 1 0 1
phys
0 -262 -4 176 0 0 1 1 0 1 0 1
0 -262 -4 166 0 0 1 1 0 1 0 1
0 -262 123 166 0 0 1 1 0 1 0 1
phys
0 -262 -4 176 0 0 1 1 0 1 0 1
0 -262 123 166 0 0 1 1 0 1 0 1
0 -262 123 176 0 0 1 1 0 1 0 1
phys
0 -262 -4 166 0 0 1 1 0 1 0 1
0 -264 -4 166 0 0 1 1 0 1 0 1
0 -264 123 166 0 0 1 1 0 1 0 1
phys
0 -262 -4 166 0 0 1 1 0 1 0 1
0 -264 123 166 0 0 1 1 0 1 0 1
0 -262 123 166 0 0 1 1 0 1 0 1
phys
0 -264 -4 176 0 0 1 1 0 1 0 1
0 -262 -4 176 0 0 1 1 0 1 0 1
0 -262 123 176 0 0 1 1 0 1 0 1
phys
0 -264 -4 176 0 0 1 1 0 1 0 1
0 -262 123 176 0 0 1 1 0 1 0 1
0 -264 123 176 0 0 1 1 0 1 0 1
phys
0 -222 123 176 0 0 1 2 0 1 0 1
0 -222 123 166 0 0 1 2 0 1 0 1
0 -224 123 166 0 0 1 2 0 1 0 1
phys
0 -222 123 176 0 0 1 2 0 1 0 1
0 -224 123 166 0 0 1 2 0 1 0 1
0 -224 123 176 0 0 1 2 0 1 0 1
phys
0 -222 -4 166 0 0 1 2 0 1 0 1
0 -222 -4 176 0 0 1 2 0 1 0 1
0 -224 -4 176 0 0 1 2 0 1 0 1
phys
0 -222 -4 166 0 0 1 2 0 1 0 1
0 -224 -4 176 0 0 1 2 0 1 0 1
0 -224 -4 166 0 0 1 2 0 1 0 1
phys
0 -224 -4 166 0 0 1 2 0 1 0 1
0 -224 -4 176 0 0 1 2 0 1 0 1
0 -224 123 176 0 0 1 2 0 1 0 1
phys
0 -224 -4 166 0 0 1 2 0 1 0 1
0 -224 123 176 0 0 1 2 0 1 0 1
0 -224 123 166 0 0 1 2 0 1 0 1
phys
0 -222 -4 176 0 0 1 2 0 1 0 1
0 -222 -4 166 0 0 1 2 0 1 0 1
0 -222 123 166 0 0 1 2 0 1 0 1
phys
0 -222 -4 176 0 0 1 2 0 1 0 1
0 -222 123 166 0 0 1 2 0 1 0 1
0 -222 123 176 0 0 1 2 0 1 0 1
phys
0 -222 -4 166 0 0 1 2 0 1 0 1
0 -224 -4 166 0 0 1 2 0 1 0 1
0 -224 123 166 0 0 1 2 0 1 0 1
phys
0 -222 -4 166 0 0 1 2 0 1 0 1
0 -224 123 166 0 0 1 2 0 1 0 1
0 -222 123 166 0 0 1 2 0 1 0 1
phys
0 -224 -4 176 0 0 1 2 0 1 0 1
0 -222 -4 176 0 0 1 2 0 1 0 1
0 -222 123 176 0 0 1 2 0 1 0 1
phys
0 -224 -4 176 0 0 1 2 0 1 0 1
0 -222 123 176 0 0 1 2 0 1 0 1
0 -224 123 176 0 0 1 2 0 1 0 1
phys
0 -182 123 176 0 0 1 3 0 1 0 1
0 -182 123 166 0 0 1 3 0 1 0 1
0 -184 123 166 0 0 1 3 0 1 0 1
phys
0 -182 123 176 0 0 1 3 0 1 0 1
0 -184 123 166 0 0 1 3 0 1 0 1
0 -184 123 176 0 0 1 3 0 1 0 1
phys
0 -182 -4 166 0 0 1 3 0 1 0 1
0 -182 -4 176 0 0 1 3 0 1 0 1
0 -184 -4 176 0 0 1 3 0 1 0 1
phys
0 -182 -4 166 0 0 1 3 0 1 0 1
0 -184 -4 176 0 0 1 3 0 1 0 1
0 -184 -4 166 0 0 1 3 0 1 0 1
phys
0 -184 -4 166 0 0 1 3 0 1 0 1
0 -184 -4 176 0 0 1 3 0 1 0 1
0 -184 123 176 0 0 1 3 0 1 0 1
phys
0 -184 -4 166 0 0 1 3 0 1 0 1
0 -184 123 176 0 0 1 3 0 1 0 1
0 -184 123 166 0 0 1 3 0 1 0 1
phys
0 -182 -4 176 0 0 1 3 0 1 0 1
0 -182 -4 166 0 0 1 3 0 1 0 1
0 -182 123 166 0 0 1 3 0 1 0 1
phys
0 -182 -4 176 0 0 1 3 0 1 0 1
0 -182 123 166 0 0 1 3 0 1 0 1
0 -182 123 176 0 0 1 3 0 1 0 1
phys
0 -182 -4 166 0 0 1 3 0 1 0 1
0 -184 -4 166 0 0 1 3 0 1 0 1
0 -184 123 166 0 0 1 3 0 1 0 1
phys
0 -182 -4 166 0 0 1 3 0 1 0 1
0 -184 123 166 0 0 1 3 0 1 0 1
0 -182 123 166 0 0 1 3 0 1 0 1
phys
0 -184 -4 176 0 0 1 3 0 1 0 1
0 -182 -4 176 0 0 1 3 0 1 0 1
0 -182 123 176 0 0 1 3 0 1 0 1
phys
0 -184 -4 176 0 0 1 3 0 1 0 1
0 -182 123 176 0 0 1 3 0 1 0 1
0 -184 123 176 0 0 1 3 0 1 0 1
phys
0 -202 -4 166 0 0 1 4 0 1 0 1
0 -204 -4 166 0 0 1 4 0 1 0 1
0 -204 123 166 0 0 1 4 0 1 0 1
phys
0 -202 -4 166 0 0 1 4 0 1 0 1
0 -204 123 166 0 0 1 4 0 1 0 1
0 -202 123 166 0 0 1 4 0 1 0 1
phys
0 -204 -4 176 0 0 1 4 0 1 0 1
0 -202 -4 176 0 0 1 4 0 1 0 1
0 -202 123 176 0 0 1 4 0 1 0 1
phys
0 -204 -4 176 0 0 1 4 0 1 0 1
0 -202 123 176 0 0 1 4 0 1 0 1
0 -204 123 176 0 0 1 4 0 1 0 1
phys
0 -202 123 166 0 0 1 4 0 1 0 1
0 -204 123 166 0 0 1 4 0 1 0 1
0 -204 123 176 0 0 1 4 0 1 0 1
phys
0 -202 123 166 0 0 1 4 0 1 0 1
0 -204 123 176 0 0 1 4 0 1 0 1
0 -202 123 176 0 0 1 4 0 1 0 1
phys
0 -202 -4 176 0 0 1 4 0 1 0 1
0 -204 -4 176 0 0 1 4 0 1 0 1
0 -204 -4 166 0 0 1 4 0 1 0 1
phys
0 -202 -4 176 0 0 1 4 0 1 0 1
0 -204 -4 166 0 0 1 4 0 1 0 1
0 -202 -4 166 0 0 1 4 0 1 0 1
phys
0 -204 -4 176 0 0 1 4 0 1 0 1
0 -204 123 176 0 0 1 4 0 1 0 1
0 -204 123 166 0 0 1 4 0 1 0 1
phys
0 -204 -4 176 0 0 1 4 0 1 0 1
0 -204 123 166 0 0 1 4 0 1 0 1
0 -204 -4 166 0 0 1 4 0 1 0 1
phys
0 -202 -4 166 0 0 1 4 0 1 0 1
0 -202 123 166 0 0 1 4 0 1 0 1
0 -202 123 176 0 0 1 4 0 1 0 1
phys
0 -202 -4 166 0 0 1 4 0 1 0 1
0 -202 123 176 0 0 1 4 0 1 0 1
0 -202 -4 176 0 0 1 4 0 1 0 1
phys
0 -162 123 176 0 0 1 5 0 1 0 1
0 -162 123 166 0 0 1 5 0 1 0 1
0 -164 123 166 0 0 1 5 0 1 0 1
phys
0 -162 123 176 0 0 1 5 0 1 0 1
0 -164 123 166 0 0 1 5 0 1 0 1
0 -164 123 176 0 0 1 5 0 1 0 1
phys
0 -162 -4 166 0 0 1 5 0 1 0 1
0 -162 -4 176 0 0 1 5 0 1 0 1
0 -164 -4 176 0 0 1 5 0 1 0 1
phys
0 -162 -4 166 0 0 1 5 0 1 0 1
0 -164 -4 176 0 0 1 5 0 1 0 1
0 -164 -4 166 0 0 1 5 0 1 0 1
phys
0 -164 -4 166 0 0 1 5 0 1 0 1
0 -164 -4 176 0 0 1 5 0 1 0 1
0 -164 123 176 0 0 1 5 0 1 0 1
phys
0 -164 -4 166 0 0 1 5 0 1 0 1
0 -164 123 176 0 0 1 5 0 1 0 1
0 -164 123 166 0 0 1 5 0 1 0 1
phys
0 -162 -4 176 0 0 1 5 0 1 0 1
0 -162 -4 166 0 0 1 5 0 1 0 1
0 -162 123 166 0 0 1 5 0 1 0 1
phys
0 -162 -4 176 0 0 1 5 0 1 0 1
0 -162 123 166 0 0 1 5 0 1 0 1
0 -162 123 176 0 0 1 5 0 1 0 1
phys
0 -162 -4 166 0 0 1 5 0 1 0 1
0 -164 -4 166 0 0 1 5 0 1 0 1
0 -164 123 166 0 0 1 5 0 1 0 1
phys
0 -162 -4 166 0 0 1 5 0 1 0 1
0 -164 123 166 0 0 1 5 0 1 0 1
0 -162 123 166 0 0 1 5 0 1 0 1
phys
0 -164 -4 176 0 0 1 5 0 1 0 1
0 -162 -4 176 0 0 1 5 0 1 0 1
0 -162 123 176 0 0 1 5 0 1 0 1
phys
0 -164 -4 176 0 0 1 5 0 1 0 1
0 -162 123 176 0 0 1 5 0 1 0 1
0 -164 123 176 0 0 1 5 0 1 0 1
phys
0 264 -29 16 0 0 1 6 0 1 0 1
0 264 -29 0 0 0 1 6 0 1 0 1
0 152 -29 0 0 0 1 6 0 1 0 1
phys
0 264 -29 16 0 0 1 6 0 1 0 1
0 152 -29 0 0 0 1 6 0 1 0 1
0 152 -29 16 0 0 1 6 0 1 0 1
phys
0 264 -123 0 0 0 1 6 0 1 0 1
0 264 -123 16 0 0 1 6 0 1 0 1
0 152 -123 16 0 0 1 6 0 1 0 1
phys
0 264 -123 0 0 0 1 6 0 1 0 1
0 152 -123 16 0 0 1 6 0 1 0 1
0 152 -123 0 0 0 1 6 0 1 0 1
phys
0 152 -123 0 0 0 1 6 0 1 0 1
0 152 -123 16 0 0 1 6 0 1 0 1
0 152 -29 16 0 0 1 6 0 1 0 1
phys
0 152 -123 0 0 0 1 6 0 1 0 1
0 152 -29 16 0 0 1 6 0 1 0 1
0 152 -29 0 0 0 1 6 0 1 0 1
phys
0 264 -123 16 0 0 1 6 0 1 0 1
0 264 -123 0 0 0 1 6 0 1 0 1
0 264 -29 0 0 0 1 6 0 1 0 1
phys
0 264 -123 16 0 0 1 6 0 1 0 1
0 264 -29 0 0 0 1 6 0 1 0 1
0 264 -29 16 0 0 1 6 0 1 0 1
phys
0 264 -123 0 0 0 1 6 0 1 0 1
0 152 -123 0 0 0 1 6 0 1 0 1
0 152 -29 0 0 0 1 6 0 1 0 1
phys
0 264 -123 0 0 0 1 6 0 1 0 1
0 152 -29 0 0 0 1 6 0 1 0 1
0 264 -29 0 0 0 1 6 0 1 0 1
phys
0 152 -123 16 0 0 1 6 0 1 0 1
0 264 -123 16 0 0 1 6 0 1 0 1
0 264 -29 16 0 0 1 6 0 1 0 1
phys
0 152 -123 16 0 0 1 6 0 1 0 1
0 264 -29 16 0 0 1 6 0 1 0 1
0 152 -29 16 0 0 1 6 0 1 0 1
phys
0 -242 123 176 0 0 1 7 0 1 0 1
0 -242 123 166 0 0 1 7 0 1 0 1
0 -244 123 166 0 0 1 7 0 1 0 1
phys
0 -242 123 176 0 0 1 7 0 1 0 1
0 -244 123 166 0 0 1 7 0 1 0 1
0 -244 123 176 0 0 1 7 0 1 0 1
phys
0 -242 -4 166 0 0 1 7 0 1 0 1
0 -242 -4 176 0 0 1 7 0 1 0 1
0 -244 -4 176 0 0 1 7 0 1 0 1
phys
0 -242 -4 166 0 0 1 7 0 1 0 1
0 -244 -4 176 0 0 1 7 0 1 0 1
0 -244 -4 166 0 0 1 7 0 1 0 1
phys
0 -244 -4 166 0 0 1 7 0 1 0 1
0 -244 -4 176 0 0 1 7 0 1 0 1
0 -244 123 176 0 0 1 7 0 1 0 1
phys
0 -244 -4 166 0 0 1 7 0 1 0 1
0 -244 123 176 0 0 1 7 0 1 0 1
0 -244 123 166 0 0 1 7 0 1 0 1
phys
0 -242 -4 176 0 0 1 7 0 1 0 1
0 -242 -4 166 0 0 1 7 0 1 0 1
0 -242 123 166 0 0 1 7 0 1 0 1
phys
0 -242 -4 176 0 0 1 7 0 1 0 1
0 -242 123 166 0 0 1 7 0 1 0 1
0 -242 123 176 0 0 1 7 0 1 0 1
phys
0 -242 -4 166 0 0 1 7 0 1 0 1
0 -244 -4 166 0 0 1 7 0 1 0 1
0 -244 123 166 0 0 1 7 0 1 0 1
phys
0 -242 -4 166 0 0 1 7 0 1 0 1
0 -244 123 166 0 0 1 7 0 1 0 1
0 -242 123 166 0 0 1 7 0 1 0 1
phys
0 -244 -4 176 0 0 1 7 0 1 0 1
0 -242 -4 176 0 0 1 7 0 1 0 1
0 -242 123 176 0 0 1 7 0 1 0 1
phys
0 -244 -4 176 0 0 1 7 0 1 0 1
0 -242 123 176 0 0 1 7 0 1 0 1
0 -244 123 176 0 0 1 7 0 1 0 1
end
