version 1
nodes
0 "root" -1
end
skeleton
time 0
0 0 0 0 0 0 0
end
triangles
bridge_se1_metal_flat_steel_01
0 -264 -4 166 -1 0 0 7.5625 -24.464844 1 0 1
0 -264 -4 176 -1 0 0 7.953125 -24.464844 1 0 1
0 -264 123 176 -1 0 0 7.953125 -19.503906 1 0 1
bridge_se1_metal_flat_steel_01
0 -264 -4 166 -1 0 0 7.5625 -24.464844 1 0 1
0 -264 123 176 -1 0 0 7.953125 -19.503906 1 0 1
0 -264 123 166 -1 0 0 7.5625 -19.503906 1 0 1
bridge_se1_metal_flat_steel_01
0 -262 -4 176 1 0 0 7.953125 -24.464844 1 0 1
0 -262 -4 166 1 0 0 7.5625 -24.464844 1 0 1
0 -262 123 166 1 0 0 7.5625 -19.503906 1 0 1
bridge_se1_metal_flat_steel_01
0 -262 -4 176 1 0 0 7.953125 -24.464844 1 0 1
0 -262 123 166 1 0 0 7.5625 -19.503906 1 0 1
0 -262 123 176 1 0 0 7.953125 -19.503906 1 0 1
bridge_se1_metal_flat_steel_01
0 -262 -4 166 0 0 -1 358.703125 -24.464844 1 0 1
0 -264 -4 166 0 0 -1 358.78125 -24.464844 1 0 1
0 -264 123 166 0 0 -1 358.78125 -19.503906 1 0 1
bridge_se1_metal_flat_steel_01
0 -262 -4 166 0 0 -1 358.703125 -24.464844 1 0 1
0 -264 123 166 0 0 -1 358.78125 -19.503906 1 0 1
0 -262 123 166 0 0 -1 358.703125 -19.503906 1 0 1
bridge_se1_metal_flat_steel_01
0 -224 -4 166 -1 0 0 7.5625 -24.464844 1 0 1
0 -224 -4 176 -1 0 0 7.953125 -24.464844 1 0 1
0 -224 123 176 -1 0 0 7.953125 -19.503906 1 0 1
bridge_se1_metal_flat_steel_01
0 -224 -4 166 -1 0 0 7.5625 -24.464844 1 0 1
0 -224 123 176 -1 0 0 7.953125 -19.503906 1 0 1
0 -224 123 166 -1 0 0 7.5625 -19.503906 1 0 1
bridge_se1_metal_flat_steel_01
0 -222 -4 176 1 0 0 7.953125 -24.464844 1 0 1
0 -222 -4 166 1 0 0 7.5625 -24.464844 1 0 1
0 -222 123 166 1 0 0 7.5625 -19.503906 1 0 1
bridge_se1_metal_flat_steel_01
0 -222 -4 176 1 0 0 7.953125 -24.464844 1 0 1
0 -222 123 166 1 0 0 7.5625 -19.503906 1 0 1
0 -222 123 176 1 0 0 7.953125 -19.503906 1 0 1
bridge_se1_metal_flat_steel_01
0 -222 -4 166 0 0 -1 357.140625 -24.464844 1 0 1
0 -224 -4 166 0 0 -1 357.21875 -24.464844 1 0 1
0 -224 123 166 0 0 -1 357.21875 -19.503906 1 0 1
bridge_se1_metal_flat_steel_01
0 -222 -4 166 0 0 -1 357.140625 -24.464844 1 0 1
0 -224 123 166 0 0 -1 357.21875 -19.503906 1 0 1
0 -222 123 166 0 0 -1 357.140625 -19.503906 1 0 1
bridge_se1_metal_flat_steel_01
0 -184 -4 166 -1 0 0 7.5625 -24.464844 1 0 1
0 -184 -4 176 -1 0 0 7.953125 -24.464844 1 0 1
0 -184 123 176 -1 0 0 7.953125 -19.503906 1 0 1
bridge_se1_metal_flat_steel_01
0 -184 -4 166 -1 0 0 7.5625 -24.464844 1 0 1
0 -184 123 176 -1 0 0 7.953125 -19.503906 1 0 1
0 -184 123 166 -1 0 0 7.5625 -19.503906 1 0 1
bridge_se1_metal_flat_steel_01
0 -182 -4 176 1 0 0 7.953125 -24.464844 1 0 1
0 -182 -4 166 1 0 0 7.5625 -24.464844 1 0 1
0 -182 123 166 1 0 0 7.5625 -19.503906 1 0 1
bridge_se1_metal_flat_steel_01
0 -182 -4 176 1 0 0 7.953125 -24.464844 1 0 1
0 -182 123 166 1 0 0 7.5625 -19.503906 1 0 1
0 -182 123 176 1 0 0 7.953125 -19.503906 1 0 1
bridge_se1_metal_flat_steel_01
0 -182 -4 166 0 0 -1 355.578125 -24.464844 1 0 1
0 -184 -4 166 0 0 -1 355.65625 -24.464844 1 0 1
0 -184 123 166 0 0 -1 355.65625 -19.503906 1 0 1
bridge_se1_metal_flat_steel_01
0 -182 -4 166 0 0 -1 355.578125 -24.464844 1 0 1
0 -184 123 166 0 0 -1 355.65625 -19.503906 1 0 1
0 -182 123 166 0 0 -1 355.578125 -19.503906 1 0 1
bridge_se1_metal_flat_steel_01
0 -202 -4 166 0 0 -1 356.359375 -24.464844 1 0 1
0 -204 -4 166 0 0 -1 356.4375 -24.464844 1 0 1
0 -204 123 166 0 0 -1 356.4375 -19.503906 1 0 1
bridge_se1_metal_flat_steel_01
0 -202 -4 166 0 0 -1 356.359375 -24.464844 1 0 1
0 -204 123 166 0 0 -1 356.4375 -19.503906 1 0 1
0 -202 123 166 0 0 -1 356.359375 -19.503906 1 0 1
bridge_se1_metal_flat_steel_01
0 -204 -4 176 -1 0 0 7.953125 -24.464844 1 0 1
0 -204 123 176 -1 0 0 7.953125 -19.503906 1 0 1
0 -204 123 166 -1 0 0 7.5625 -19.503906 1 0 1
bridge_se1_metal_flat_steel_01
0 -204 -4 176 -1 0 0 7.953125 -24.464844 1 0 1
0 -204 123 166 -1 0 0 7.5625 -19.503906 1 0 1
0 -204 -4 166 -1 0 0 7.5625 -24.464844 1 0 1
bridge_se1_metal_flat_steel_01
0 -202 -4 166 1 0 0 7.5625 -24.464844 1 0 1
0 -202 123 166 1 0 0 7.5625 -19.503906 1 0 1
0 -202 123 176 1 0 0 7.953125 -19.503906 1 0 1
bridge_se1_metal_flat_steel_01
0 -202 -4 166 1 0 0 7.5625 -24.464844 1 0 1
0 -202 123 176 1 0 0 7.953125 -19.503906 1 0 1
0 -202 -4 176 1 0 0 7.953125 -24.464844 1 0 1
bridge_se1_metal_flat_steel_01
0 -164 -4 166 -1 0 0 7.5625 -24.464844 1 0 1
0 -164 -4 176 -1 0 0 7.953125 -24.464844 1 0 1
0 -164 123 176 -1 0 0 7.953125 -19.503906 1 0 1
bridge_se1_metal_flat_steel_01
0 -164 -4 166 -1 0 0 7.5625 -24.464844 1 0 1
0 -164 123 176 -1 0 0 7.953125 -19.503906 1 0 1
0 -164 123 166 -1 0 0 7.5625 -19.503906 1 0 1
bridge_se1_metal_flat_steel_01
0 -162 -4 176 1 0 0 7.953125 -24.464844 1 0 1
0 -162 -4 166 1 0 0 7.5625 -24.464844 1 0 1
0 -162 123 166 1 0 0 7.5625 -19.503906 1 0 1
bridge_se1_metal_flat_steel_01
0 -162 -4 176 1 0 0 7.953125 -24.464844 1 0 1
0 -162 123 166 1 0 0 7.5625 -19.503906 1 0 1
0 -162 123 176 1 0 0 7.953125 -19.503906 1 0 1
bridge_se1_metal_flat_steel_01
0 -162 -4 166 0 0 -1 354.796875 -24.464844 1 0 1
0 -164 -4 166 0 0 -1 354.875 -24.464844 1 0 1
0 -164 123 166 0 0 -1 354.875 -19.503906 1 0 1
bridge_se1_metal_flat_steel_01
0 -162 -4 166 0 0 -1 354.796875 -24.464844 1 0 1
0 -164 123 166 0 0 -1 354.875 -19.503906 1 0 1
0 -162 123 166 0 0 -1 354.796875 -19.503906 1 0 1
pepsi2_arch_concrete_floor_smooth01
0 264 -29 16 0 1 0 -67.023438 0.648438 1 0 1
0 264 -29 0 0 1 0 -67.023438 0.523438 1 0 1
0 152 -29 0 0 1 0 -67.898438 0.523438 1 0 1
pepsi2_arch_concrete_floor_smooth01
0 264 -29 16 0 1 0 -67.023438 0.648438 1 0 1
0 152 -29 0 0 1 0 -67.898438 0.523438 1 0 1
0 152 -29 16 0 1 0 -67.898438 0.648438 1 0 1
rainy_epoxyfloor
0 264 -123 0 0 -1 0 0.4375 -66.671875 1 0 1
0 264 -123 16 0 -1 0 0.5625 -66.671875 1 0 1
0 152 -123 16 0 -1 0 0.5625 -67.546875 1 0 1
rainy_epoxyfloor
0 264 -123 0 0 -1 0 0.4375 -66.671875 1 0 1
0 152 -123 16 0 -1 0 0.5625 -67.546875 1 0 1
0 152 -123 0 0 -1 0 0.4375 -67.546875 1 0 1
rainy_epoxyfloor
0 264 -123 0 0 0 -1 -6.5625 -66.671875 1 0 1
0 152 -123 0 0 0 -1 -6.5625 -67.546875 1 0 1
0 152 -29 0 0 0 -1 -5.828125 -67.546875 1 0 1
rainy_epoxyfloor
0 264 -123 0 0 0 -1 -6.5625 -66.671875 1 0 1
0 152 -29 0 0 0 -1 -5.828125 -67.546875 1 0 1
0 264 -29 0 0 0 -1 -5.828125 -66.671875 1 0 1
concrete_conc_clean_top
0 152 -123 16 0 0 1 -6.792969 68.765625 1 0 1
0 264 -123 16 0 0 1 -6.792969 67.890625 1 0 1
0 264 -29 16 0 0 1 -6.058594 67.890625 1 0 1
concrete_conc_clean_top
0 152 -123 16 0 0 1 -6.792969 68.765625 1 0 1
0 264 -29 16 0 0 1 -6.058594 67.890625 1 0 1
0 152 -29 16 0 0 1 -6.058594 68.765625 1 0 1
bridge_se1_metal_flat_steel_01
0 -244 -4 166 -1 0 0 7.5625 -24.464844 1 0 1
0 -244 -4 176 -1 0 0 7.953125 -24.464844 1 0 1
0 -244 123 176 -1 0 0 7.953125 -19.503906 1 0 1
bridge_se1_metal_flat_steel_01
0 -244 -4 166 -1 0 0 7.5625 -24.464844 1 0 1
0 -244 123 176 -1 0 0 7.953125 -19.503906 1 0 1
0 -244 123 166 -1 0 0 7.5625 -19.503906 1 0 1
bridge_se1_metal_flat_steel_01
0 -242 -4 176 1 0 0 7.953125 -24.464844 1 0 1
0 -242 -4 166 1 0 0 7.5625 -24.464844 1 0 1
0 -242 123 166 1 0 0 7.5625 -19.503906 1 0 1
bridge_se1_metal_flat_steel_01
0 -242 -4 176 1 0 0 7.953125 -24.464844 1 0 1
0 -242 123 166 1 0 0 7.5625 -19.503906 1 0 1
0 -242 123 176 1 0 0 7.953125 -19.503906 1 0 1
bridge_se1_metal_flat_steel_01
0 -242 -4 166 0 0 -1 357.921875 -24.464844 1 0 1
0 -244 -4 166 0 0 -1 358 -24.464844 1 0 1
0 -244 123 166 0 0 -1 358 -19.503906 1 0 1
bridge_se1_metal_flat_steel_01
0 -242 -4 166 0 0 -1 357.921875 -24.464844 1 0 1
0 -244 123 166 0 0 -1 358 -19.503906 1 0 1
0 -242 123 166 0 0 -1 357.921875 -19.503906 1 0 1
end
