version 1
nodes
0 "root" -1
end
skeleton
time 0
0 0 0 0 0 0 0
end
triangles
phys
0 -6 114 -150 0 0 1 1 0 1 0 1
0 138 114 -150 0 0 1 1 0 1 0 1
0 138 129 -150 0 0 1 1 0 1 0 1
phys
0 -6 114 -150 0 0 1 1 0 1 0 1
0 138 129 -150 0 0 1 1 0 1 0 1
0 -6 129 -150 0 0 1 1 0 1 0 1
phys
0 138 114 -150 0 0 1 1 0 1 0 1
0 -6 114 -150 0 0 1 1 0 1 0 1
0 -6 129 -159 0 0 1 1 0 1 0 1
phys
0 138 114 -150 0 0 1 1 0 1 0 1
0 -6 129 -159 0 0 1 1 0 1 0 1
0 138 129 -159 0 0 1 1 0 1 0 1
phys
0 138 129 -159 0 0 1 1 0 1 0 1
0 -6 129 -159 0 0 1 1 0 1 0 1
0 -6 129 -150 0 0 1 1 0 1 0 1
phys
0 138 129 -159 0 0 1 1 0 1 0 1
0 -6 129 -150 0 0 1 1 0 1 0 1
0 138 129 -150 0 0 1 1 0 1 0 1
phys
0 -6 114 -150 0 0 1 1 0 1 0 1
0 -6 129 -150 0 0 1 1 0 1 0 1
0 -6 129 -159 0 0 1 1 0 1 0 1
phys
0 138 129 -150 0 0 1 1 0 1 0 1
0 138 114 -150 0 0 1 1 0 1 0 1
0 138 129 -159 0 0 1 1 0 1 0 1
phys
0 -6 99 -141 0 0 1 2 0 1 0 1
0 138 99 -141 0 0 1 2 0 1 0 1
0 138 114 -141 0 0 1 2 0 1 0 1
phys
0 -6 99 -141 0 0 1 2 0 1 0 1
0 138 114 -141 0 0 1 2 0 1 0 1
0 -6 114 -141 0 0 1 2 0 1 0 1
phys
0 138 99 -141 0 0 1 2 0 1 0 1
0 -6 99 -141 0 0 1 2 0 1 0 1
0 -6 114 -150 0 0 1 2 0 1 0 1
phys
0 138 99 -141 0 0 1 2 0 1 0 1
0 -6 114 -150 0 0 1 2 0 1 0 1
0 138 114 -150 0 0 1 2 0 1 0 1
phys
0 138 114 -150 0 0 1 2 0 1 0 1
0 -6 114 -150 0 0 1 2 0 1 0 1
0 -6 114 -141 0 0 1 2 0 1 0 1
phys
0 138 114 -150 0 0 1 2 0 1 0 1
0 -6 114 -141 0 0 1 2 0 1 0 1
0 138 114 -141 0 0 1 2 0 1 0 1
phys
0 -6 99 -141 0 0 1 2 0 1 0 1
0 -6 114 -141 0 0 1 2 0 1 0 1
0 -6 114 -150 0 0 1 2 0 1 0 1
phys
0 138 114 -141 0 0 1 2 0 1 0 1
0 138 99 -141 0 0 1 2 0 1 0 1
0 138 114 -150 0 0 1 2 0 1 0 1
phys
0 138 69 -114 0 0 1 3 0 1 0 1
0 138 69 -123 0 0 1 3 0 1 0 1
0 -6 69 -123 0 0 1 3 0 1 0 1
phys
0 138 69 -114 0 0 1 3 0 1 0 1
0 -6 69 -123 0 0 1 3 0 1 0 1
0 -6 69 -114 0 0 1 3 0 1 0 1
phys
0 -6 54 -114 0 0 1 3 0 1 0 1
0 -6 69 -114 0 0 1 3 0 1 0 1
0 -6 69 -123 0 0 1 3 0 1 0 1
phys
0 138 69 -123 0 0 1 3 0 1 0 1
0 138 69 -114 0 0 1 3 0 1 0 1
0 138 54 -114 0 0 1 3 0 1 0 1
phys
0 138 54 -114 0 0 1 3 0 1 0 1
0 138 69 -114 0 0 1 3 0 1 0 1
0 -6 69 -114 0 0 1 3 0 1 0 1
phys
0 138 54 -114 0 0 1 3 0 1 0 1
0 -6 69 -114 0 0 1 3 0 1 0 1
0 -6 54 -114 0 0 1 3 0 1 0 1
phys
0 -6 54 -114 0 0 1 3 0 1 0 1
0 -6 69 -123 0 0 1 3 0 1 0 1
0 138 69 -123 0 0 1 3 0 1 0 1
phys
0 -6 54 -114 0 0 1 3 0 1 0 1
0 138 69 -123 0 0 1 3 0 1 0 1
0 138 54 -114 0 0 1 3 0 1 0 1
phys
0 138 39 -96 0 0 1 4 0 1 0 1
0 138 39 -105 0 0 1 4 0 1 0 1
0 -6 39 -105 0 0 1 4 0 1 0 1
phys
0 138 39 -96 0 0 1 4 0 1 0 1
0 -6 39 -105 0 0 1 4 0 1 0 1
0 -6 39 -96 0 0 1 4 0 1 0 1
phys
0 -6 24 -96 0 0 1 4 0 1 0 1
0 -6 39 -96 0 0 1 4 0 1 0 1
0 -6 39 -105 0 0 1 4 0 1 0 1
phys
0 138 39 -105 0 0 1 4 0 1 0 1
0 138 39 -96 0 0 1 4 0 1 0 1
0 138 24 -96 0 0 1 4 0 1 0 1
phys
0 138 24 -96 0 0 1 4 0 1 0 1
0 138 39 -96 0 0 1 4 0 1 0 1
0 -6 39 -96 0 0 1 4 0 1 0 1
phys
0 138 24 -96 0 0 1 4 0 1 0 1
0 -6 39 -96 0 0 1 4 0 1 0 1
0 -6 24 -96 0 0 1 4 0 1 0 1
phys
0 -6 24 -96 0 0 1 4 0 1 0 1
0 -6 39 -105 0 0 1 4 0 1 0 1
0 138 39 -105 0 0 1 4 0 1 0 1
phys
0 -6 24 -96 0 0 1 4 0 1 0 1
0 138 39 -105 0 0 1 4 0 1 0 1
0 138 24 -96 0 0 1 4 0 1 0 1
phys
0 138 99 -132 0 0 1 5 0 1 0 1
0 138 99 -141 0 0 1 5 0 1 0 1
0 -6 99 -141 0 0 1 5 0 1 0 1
phys
0 138 99 -132 0 0 1 5 0 1 0 1
0 -6 99 -141 0 0 1 5 0 1 0 1
0 -6 99 -132 0 0 1 5 0 1 0 1
phys
0 -6 84 -132 0 0 1 5 0 1 0 1
0 -6 99 -132 0 0 1 5 0 1 0 1
0 -6 99 -141 0 0 1 5 0 1 0 1
phys
0 138 99 -141 0 0 1 5 0 1 0 1
0 138 99 -132 0 0 1 5 0 1 0 1
0 138 84 -132 0 0 1 5 0 1 0 1
phys
0 138 84 -132 0 0 1 5 0 1 0 1
0 138 99 -132 0 0 1 5 0 1 0 1
0 -6 99 -132 0 0 1 5 0 1 0 1
phys
0 138 84 -132 0 0 1 5 0 1 0 1
0 -6 99 -132 0 0 1 5 0 1 0 1
0 -6 84 -132 0 0 1 5 0 1 0 1
phys
0 -6 84 -132 0 0 1 5 0 1 0 1
0 -6 99 -141 0 0 1 5 0 1 0 1
0 138 99 -141 0 0 1 5 0 1 0 1
phys
0 -6 84 -132 0 0 1 5 0 1 0 1
0 138 99 -141 0 0 1 5 0 1 0 1
0 138 84 -132 0 0 1 5 0 1 0 1
phys
0 6 6 78 0 0 1 6 0 1 0 1
0 6 6 -78 0 0 1 6 0 1 0 1
0 -6 6 -78 0 0 1 6 0 1 0 1
phys
0 6 6 78 0 0 1 6 0 1 0 1
0 -6 6 -78 0 0 1 6 0 1 0 1
0 -6 6 78 0 0 1 6 0 1 0 1
phys
0 6 -6 -78 0 0 1 6 0 1 0 1
0 6 -6 78 0 0 1 6 0 1 0 1
0 -6 -6 78 0 0 1 6 0 1 0 1
phys
0 6 -6 -78 0 0 1 6 0 1 0 1
0 -6 -6 78 0 0 1 6 0 1 0 1
0 -6 -6 -78 0 0 1 6 0 1 0 1
phys
0 -6 -6 -78 0 0 1 6 0 1 0 1
0 -6 -6 78 0 0 1 6 0 1 0 1
0 -6 6 78 0 0 1 6 0 1 0 1
phys
0 -6 -6 -78 0 0 1 6 0 1 0 1
0 -6 6 78 0 0 1 6 0 1 0 1
0 -6 6 -78 0 0 1 6 0 1 0 1
phys
0 6 -6 78 0 0 1 6 0 1 0 1
0 6 -6 -78 0 0 1 6 0 1 0 1
0 6 6 -78 0 0 1 6 0 1 0 1
phys
0 6 -6 78 0 0 1 6 0 1 0 1
0 6 6 -78 0 0 1 6 0 1 0 1
0 6 6 78 0 0 1 6 0 1 0 1
phys
0 6 -6 -78 0 0 1 6 0 1 0 1
0 -6 -6 -78 0 0 1 6 0 1 0 1
0 -6 6 -78 0 0 1 6 0 1 0 1
phys
0 6 -6 -78 0 0 1 6 0 1 0 1
0 -6 6 -78 0 0 1 6 0 1 0 1
0 6 6 -78 0 0 1 6 0 1 0 1
phys
0 -6 -6 78 0 0 1 6 0 1 0 1
0 6 -6 78 0 0 1 6 0 1 0 1
0 6 6 78 0 0 1 6 0 1 0 1
phys
0 -6 -6 78 0 0 1 6 0 1 0 1
0 6 6 78 0 0 1 6 0 1 0 1
0 -6 6 78 0 0 1 6 0 1 0 1
phys
0 138 54 -105 0 0 1 7 0 1 0 1
0 138 54 -114 0 0 1 7 0 1 0 1
0 -6 54 -114 0 0 1 7 0 1 0 1
phys
0 138 54 -105 0 0 1 7 0 1 0 1
0 -6 54 -114 0 0 1 7 0 1 0 1
0 -6 54 -105 0 0 1 7 0 1 0 1
phys
0 -6 39 -105 0 0 1 7 0 1 0 1
0 -6 54 -105 0 0 1 7 0 1 0 1
0 -6 54 -114 0 0 1 7 0 1 0 1
phys
0 138 54 -114 0 0 1 7 0 1 0 1
0 138 54 -105 0 0 1 7 0 1 0 1
0 138 39 -105 0 0 1 7 0 1 0 1
phys
0 138 39 -105 0 0 1 7 0 1 0 1
0 138 54 -105 0 0 1 7 0 1 0 1
0 -6 54 -105 0 0 1 7 0 1 0 1
phys
0 138 39 -105 0 0 1 7 0 1 0 1
0 -6 54 -105 0 0 1 7 0 1 0 1
0 -6 39 -105 0 0 1 7 0 1 0 1
phys
0 -6 39 -105 0 0 1 7 0 1 0 1
0 -6 54 -114 0 0 1 7 0 1 0 1
0 138 54 -114 0 0 1 7 0 1 0 1
phys
0 -6 39 -105 0 0 1 7 0 1 0 1
0 138 54 -114 0 0 1 7 0 1 0 1
0 138 39 -105 0 0 1 7 0 1 0 1
phys
0 -6 69 -123 0 0 1 8 0 1 0 1
0 138 69 -123 0 0 1 8 0 1 0 1
0 138 84 -123 0 0 1 8 0 1 0 1
phys
0 -6 69 -123 0 0 1 8 0 1 0 1
0 138 84 -123 0 0 1 8 0 1 0 1
0 -6 84 -123 0 0 1 8 0 1 0 1
phys
0 138 69 -123 0 0 1 8 0 1 0 1
0 -6 69 -123 0 0 1 8 0 1 0 1
0 -6 84 -132 0 0 1 8 0 1 0 1
phys
0 138 69 -123 0 0 1 8 0 1 0 1
0 -6 84 -132 0 0 1 8 0 1 0 1
0 138 84 -132 0 0 1 8 0 1 0 1
phys
0 138 84 -132 0 0 1 8 0 1 0 1
0 -6 84 -132 0 0 1 8 0 1 0 1
0 -6 84 -123 0 0 1 8 0 1 0 1
phys
0 138 84 -132 0 0 1 8 0 1 0 1
0 -6 84 -123 0 0 1 8 0 1 0 1
0 138 84 -123 0 0 1 8 0 1 0 1
phys
0 -6 69 -123 0 0 1 8 0 1 0 1
0 -6 84 -123 0 0 1 8 0 1 0 1
0 -6 84 -132 0 0 1 8 0 1 0 1
phys
0 138 84 -123 0 0 1 8 0 1 0 1
0 138 69 -123 0 0 1 8 0 1 0 1
0 138 84 -132 0 0 1 8 0 1 0 1
phys
0 -6 9 -87 0 0 1 9 0 1 0 1
0 -6 24 -87 0 0 1 9 0 1 0 1
0 -6 24 -96 0 0 1 9 0 1 0 1
phys
0 138 24 -87 0 0 1 9 0 1 0 1
0 138 9 -87 0 0 1 9 0 1 0 1
0 138 24 -96 0 0 1 9 0 1 0 1
phys
0 138 9 -87 0 0 1 9 0 1 0 1
0 138 24 -87 0 0 1 9 0 1 0 1
0 -6 24 -87 0 0 1 9 0 1 0 1
phys
0 138 9 -87 0 0 1 9 0 1 0 1
0 -6 24 -87 0 0 1 9 0 1 0 1
0 -6 9 -87 0 0 1 9 0 1 0 1
phys
0 -6 9 -87 0 0 1 9 0 1 0 1
0 -6 24 -96 0 0 1 9 0 1 0 1
0 138 24 -96 0 0 1 9 0 1 0 1
phys
0 -6 9 -87 0 0 1 9 0 1 0 1
0 138 24 -96 0 0 1 9 0 1 0 1
0 138 9 -87 0 0 1 9 0 1 0 1
phys
0 138 24 -87 0 0 1 9 0 1 0 1
0 138 24 -96 0 0 1 9 0 1 0 1
0 -6 24 -96 0 0 1 9 0 1 0 1
phys
0 138 24 -87 0 0 1 9 0 1 0 1
0 -6 24 -96 0 0 1 9 0 1 0 1
0 -6 24 -87 0 0 1 9 0 1 0 1
phys
0 212 -360 57 0 0 1 10 0 1 0 1
0 212 -360 48 0 0 1 10 0 1 0 1
0 67 -360 48 0 0 1 10 0 1 0 1
phys
0 212 -360 57 0 0 1 10 0 1 0 1
0 67 -360 48 0 0 1 10 0 1 0 1
0 67 -360 57 0 0 1 10 0 1 0 1
phys
0 67 -375 57 0 0 1 10 0 1 0 1
0 67 -360 57 0 0 1 10 0 1 0 1
0 67 -360 48 0 0 1 10 0 1 0 1
phys
0 212 -360 48 0 0 1 10 0 1 0 1
0 212 -360 57 0 0 1 10 0 1 0 1
0 212 -375 57 0 0 1 10 0 1 0 1
phys
0 212 -375 57 0 0 1 10 0 1 0 1
0 212 -360 57 0 0 1 10 0 1 0 1
0 67 -360 57 0 0 1 10 0 1 0 1
phys
0 212 -375 57 0 0 1 10 0 1 0 1
0 67 -360 57 0 0 1 10 0 1 0 1
0 67 -375 57 0 0 1 10 0 1 0 1
phys
0 67 -375 57 0 0 1 10 0 1 0 1
0 67 -360 48 0 0 1 10 0 1 0 1
0 212 -360 48 0 0 1 10 0 1 0 1
phys
0 67 -375 57 0 0 1 10 0 1 0 1
0 212 -360 48 0 0 1 10 0 1 0 1
0 212 -375 57 0 0 1 10 0 1 0 1
phys
0 67 -360 48 0 0 1 11 0 1 0 1
0 67 -345 48 0 0 1 11 0 1 0 1
0 67 -345 39 0 0 1 11 0 1 0 1
phys
0 212 -345 48 0 0 1 11 0 1 0 1
0 212 -360 48 0 0 1 11 0 1 0 1
0 212 -345 39 0 0 1 11 0 1 0 1
phys
0 212 -360 48 0 0 1 11 0 1 0 1
0 212 -345 48 0 0 1 11 0 1 0 1
0 67 -345 48 0 0 1 11 0 1 0 1
phys
0 212 -360 48 0 0 1 11 0 1 0 1
0 67 -345 48 0 0 1 11 0 1 0 1
0 67 -360 48 0 0 1 11 0 1 0 1
phys
0 67 -360 48 0 0 1 11 0 1 0 1
0 67 -345 39 0 0 1 11 0 1 0 1
0 212 -345 39 0 0 1 11 0 1 0 1
phys
0 67 -360 48 0 0 1 11 0 1 0 1
0 212 -345 39 0 0 1 11 0 1 0 1
0 212 -360 48 0 0 1 11 0 1 0 1
phys
0 212 -345 48 0 0 1 11 0 1 0 1
0 212 -345 39 0 0 1 11 0 1 0 1
0 67 -345 39 0 0 1 11 0 1 0 1
phys
0 212 -345 48 0 0 1 11 0 1 0 1
0 67 -345 39 0 0 1 11 0 1 0 1
0 67 -345 48 0 0 1 11 0 1 0 1
phys
0 212 -330 39 0 0 1 12 0 1 0 1
0 212 -330 30 0 0 1 12 0 1 0 1
0 67 -330 30 0 0 1 12 0 1 0 1
phys
0 212 -330 39 0 0 1 12 0 1 0 1
0 67 -330 30 0 0 1 12 0 1 0 1
0 67 -330 39 0 0 1 12 0 1 0 1
phys
0 67 -345 39 0 0 1 12 0 1 0 1
0 67 -330 39 0 0 1 12 0 1 0 1
0 67 -330 30 0 0 1 12 0 1 0 1
phys
0 212 -330 30 0 0 1 12 0 1 0 1
0 212 -330 39 0 0 1 12 0 1 0 1
0 212 -345 39 0 0 1 12 0 1 0 1
phys
0 212 -345 39 0 0 1 12 0 1 0 1
0 212 -330 39 0 0 1 12 0 1 0 1
0 67 -330 39 0 0 1 12 0 1 0 1
phys
0 212 -345 39 0 0 1 12 0 1 0 1
0 67 -330 39 0 0 1 12 0 1 0 1
0 67 -345 39 0 0 1 12 0 1 0 1
phys
0 67 -345 39 0 0 1 12 0 1 0 1
0 67 -330 30 0 0 1 12 0 1 0 1
0 212 -330 30 0 0 1 12 0 1 0 1
phys
0 67 -345 39 0 0 1 12 0 1 0 1
0 212 -330 30 0 0 1 12 0 1 0 1
0 212 -345 39 0 0 1 12 0 1 0 1
phys
0 212 -315 30 0 0 1 13 0 1 0 1
0 212 -315 21 0 0 1 13 0 1 0 1
0 67 -315 21 0 0 1 13 0 1 0 1
phys
0 212 -315 30 0 0 1 13 0 1 0 1
0 67 -315 21 0 0 1 13 0 1 0 1
0 67 -315 30 0 0 1 13 0 1 0 1
phys
0 67 -330 30 0 0 1 13 0 1 0 1
0 67 -315 30 0 0 1 13 0 1 0 1
0 67 -315 21 0 0 1 13 0 1 0 1
phys
0 212 -315 21 0 0 1 13 0 1 0 1
0 212 -315 30 0 0 1 13 0 1 0 1
0 212 -330 30 0 0 1 13 0 1 0 1
phys
0 212 -330 30 0 0 1 13 0 1 0 1
0 212 -315 30 0 0 1 13 0 1 0 1
0 67 -315 30 0 0 1 13 0 1 0 1
phys
0 212 -330 30 0 0 1 13 0 1 0 1
0 67 -315 30 0 0 1 13 0 1 0 1
0 67 -330 30 0 0 1 13 0 1 0 1
phys
0 67 -330 30 0 0 1 13 0 1 0 1
0 67 -315 21 0 0 1 13 0 1 0 1
0 212 -315 21 0 0 1 13 0 1 0 1
phys
0 67 -330 30 0 0 1 13 0 1 0 1
0 212 -315 21 0 0 1 13 0 1 0 1
0 212 -330 30 0 0 1 13 0 1 0 1
phys
0 212 -300 21 0 0 1 14 0 1 0 1
0 212 -300 12 0 0 1 14 0 1 0 1
0 67 -300 12 0 0 1 14 0 1 0 1
phys
0 212 -300 21 0 0 1 14 0 1 0 1
0 67 -300 12 0 0 1 14 0 1 0 1
0 67 -300 21 0 0 1 14 0 1 0 1
phys
0 67 -315 21 0 0 1 14 0 1 0 1
0 67 -300 21 0 0 1 14 0 1 0 1
0 67 -300 12 0 0 1 14 0 1 0 1
phys
0 212 -300 12 0 0 1 14 0 1 0 1
0 212 -300 21 0 0 1 14 0 1 0 1
0 212 -315 21 0 0 1 14 0 1 0 1
phys
0 212 -315 21 0 0 1 14 0 1 0 1
0 212 -300 21 0 0 1 14 0 1 0 1
0 67 -300 21 0 0 1 14 0 1 0 1
phys
0 212 -315 21 0 0 1 14 0 1 0 1
0 67 -300 21 0 0 1 14 0 1 0 1
0 67 -315 21 0 0 1 14 0 1 0 1
phys
0 67 -315 21 0 0 1 14 0 1 0 1
0 67 -300 12 0 0 1 14 0 1 0 1
0 212 -300 12 0 0 1 14 0 1 0 1
phys
0 67 -315 21 0 0 1 14 0 1 0 1
0 212 -300 12 0 0 1 14 0 1 0 1
0 212 -315 21 0 0 1 14 0 1 0 1
phys
0 212 -270 3 0 0 1 15 0 1 0 1
0 212 -270 -6 0 0 1 15 0 1 0 1
0 67 -270 -6 0 0 1 15 0 1 0 1
phys
0 212 -270 3 0 0 1 15 0 1 0 1
0 67 -270 -6 0 0 1 15 0 1 0 1
0 67 -270 3 0 0 1 15 0 1 0 1
phys
0 67 -285 3 0 0 1 15 0 1 0 1
0 67 -270 3 0 0 1 15 0 1 0 1
0 67 -270 -6 0 0 1 15 0 1 0 1
phys
0 212 -270 -6 0 0 1 15 0 1 0 1
0 212 -270 3 0 0 1 15 0 1 0 1
0 212 -285 3 0 0 1 15 0 1 0 1
phys
0 212 -285 3 0 0 1 15 0 1 0 1
0 212 -270 3 0 0 1 15 0 1 0 1
0 67 -270 3 0 0 1 15 0 1 0 1
phys
0 212 -285 3 0 0 1 15 0 1 0 1
0 67 -270 3 0 0 1 15 0 1 0 1
0 67 -285 3 0 0 1 15 0 1 0 1
phys
0 67 -285 3 0 0 1 15 0 1 0 1
0 67 -270 -6 0 0 1 15 0 1 0 1
0 212 -270 -6 0 0 1 15 0 1 0 1
phys
0 67 -285 3 0 0 1 15 0 1 0 1
0 212 -270 -6 0 0 1 15 0 1 0 1
0 212 -285 3 0 0 1 15 0 1 0 1
phys
0 138 9 -78 0 0 1 16 0 1 0 1
0 138 9 -87 0 0 1 16 0 1 0 1
0 -6 9 -87 0 0 1 16 0 1 0 1
phys
0 138 9 -78 0 0 1 16 0 1 0 1
0 -6 9 -87 0 0 1 16 0 1 0 1
0 -6 9 -78 0 0 1 16 0 1 0 1
phys
0 -6 -6 -78 0 0 1 16 0 1 0 1
0 -6 9 -78 0 0 1 16 0 1 0 1
0 -6 9 -87 0 0 1 16 0 1 0 1
phys
0 138 9 -87 0 0 1 16 0 1 0 1
0 138 9 -78 0 0 1 16 0 1 0 1
0 138 -6 -78 0 0 1 16 0 1 0 1
phys
0 138 -6 -78 0 0 1 16 0 1 0 1
0 138 9 -78 0 0 1 16 0 1 0 1
0 -6 9 -78 0 0 1 16 0 1 0 1
phys
0 138 -6 -78 0 0 1 16 0 1 0 1
0 -6 9 -78 0 0 1 16 0 1 0 1
0 -6 -6 -78 0 0 1 16 0 1 0 1
phys
0 -6 -6 -78 0 0 1 16 0 1 0 1
0 -6 9 -87 0 0 1 16 0 1 0 1
0 138 9 -87 0 0 1 16 0 1 0 1
phys
0 -6 -6 -78 0 0 1 16 0 1 0 1
0 138 9 -87 0 0 1 16 0 1 0 1
0 138 -6 -78 0 0 1 16 0 1 0 1
phys
0 67 -255 -15 0 0 1 17 0 1 0 1
0 212 -255 -15 0 0 1 17 0 1 0 1
0 212 -240 -15 0 0 1 17 0 1 0 1
phys
0 67 -255 -15 0 0 1 17 0 1 0 1
0 212 -240 -15 0 0 1 17 0 1 0 1
0 67 -240 -15 0 0 1 17 0 1 0 1
phys
0 212 -255 -15 0 0 1 17 0 1 0 1
0 67 -255 -15 0 0 1 17 0 1 0 1
0 67 -240 -24 0 0 1 17 0 1 0 1
phys
0 212 -255 -15 0 0 1 17 0 1 0 1
0 67 -240 -24 0 0 1 17 0 1 0 1
0 212 -240 -24 0 0 1 17 0 1 0 1
phys
0 212 -240 -24 0 0 1 17 0 1 0 1
0 67 -240 -24 0 0 1 17 0 1 0 1
0 67 -240 -15 0 0 1 17 0 1 0 1
phys
0 212 -240 -24 0 0 1 17 0 1 0 1
0 67 -240 -15 0 0 1 17 0 1 0 1
0 212 -240 -15 0 0 1 17 0 1 0 1
phys
0 67 -255 -15 0 0 1 17 0 1 0 1
0 67 -240 -15 0 0 1 17 0 1 0 1
0 67 -240 -24 0 0 1 17 0 1 0 1
phys
0 212 -240 -15 0 0 1 17 0 1 0 1
0 212 -255 -15 0 0 1 17 0 1 0 1
0 212 -240 -24 0 0 1 17 0 1 0 1
phys
0 212 -210 -33 0 0 1 18 0 1 0 1
0 212 -210 -42 0 0 1 18 0 1 0 1
0 67 -210 -42 0 0 1 18 0 1 0 1
phys
0 212 -210 -33 0 0 1 18 0 1 0 1
0 67 -210 -42 0 0 1 18 0 1 0 1
0 67 -210 -33 0 0 1 18 0 1 0 1
phys
0 67 -225 -33 0 0 1 18 0 1 0 1
0 67 -210 -33 0 0 1 18 0 1 0 1
0 67 -210 -42 0 0 1 18 0 1 0 1
phys
0 212 -210 -42 0 0 1 18 0 1 0 1
0 212 -210 -33 0 0 1 18 0 1 0 1
0 212 -225 -33 0 0 1 18 0 1 0 1
phys
0 212 -225 -33 0 0 1 18 0 1 0 1
0 212 -210 -33 0 0 1 18 0 1 0 1
0 67 -210 -33 0 0 1 18 0 1 0 1
phys
0 212 -225 -33 0 0 1 18 0 1 0 1
0 67 -210 -33 0 0 1 18 0 1 0 1
0 67 -225 -33 0 0 1 18 0 1 0 1
phys
0 67 -225 -33 0 0 1 18 0 1 0 1
0 67 -210 -42 0 0 1 18 0 1 0 1
0 212 -210 -42 0 0 1 18 0 1 0 1
phys
0 67 -225 -33 0 0 1 18 0 1 0 1
0 212 -210 -42 0 0 1 18 0 1 0 1
0 212 -225 -33 0 0 1 18 0 1 0 1
phys
0 212 -180 -51 0 0 1 19 0 1 0 1
0 212 -180 -60 0 0 1 19 0 1 0 1
0 67 -180 -60 0 0 1 19 0 1 0 1
phys
0 212 -180 -51 0 0 1 19 0 1 0 1
0 67 -180 -60 0 0 1 19 0 1 0 1
0 67 -180 -51 0 0 1 19 0 1 0 1
phys
0 67 -195 -51 0 0 1 19 0 1 0 1
0 67 -180 -51 0 0 1 19 0 1 0 1
0 67 -180 -60 0 0 1 19 0 1 0 1
phys
0 212 -180 -60 0 0 1 19 0 1 0 1
0 212 -180 -51 0 0 1 19 0 1 0 1
0 212 -195 -51 0 0 1 19 0 1 0 1
phys
0 212 -195 -51 0 0 1 19 0 1 0 1
0 212 -180 -51 0 0 1 19 0 1 0 1
0 67 -180 -51 0 0 1 19 0 1 0 1
phys
0 212 -195 -51 0 0 1 19 0 1 0 1
0 67 -180 -51 0 0 1 19 0 1 0 1
0 67 -195 -51 0 0 1 19 0 1 0 1
phys
0 67 -195 -51 0 0 1 19 0 1 0 1
0 67 -180 -60 0 0 1 19 0 1 0 1
0 212 -180 -60 0 0 1 19 0 1 0 1
phys
0 67 -195 -51 0 0 1 19 0 1 0 1
0 212 -180 -60 0 0 1 19 0 1 0 1
0 212 -195 -51 0 0 1 19 0 1 0 1
phys
0 212 -150 -69 0 0 1 20 0 1 0 1
0 212 -150 -78 0 0 1 20 0 1 0 1
0 67 -150 -78 0 0 1 20 0 1 0 1
phys
0 212 -150 -69 0 0 1 20 0 1 0 1
0 67 -150 -78 0 0 1 20 0 1 0 1
0 67 -150 -69 0 0 1 20 0 1 0 1
phys
0 67 -165 -69 0 0 1 20 0 1 0 1
0 67 -150 -69 0 0 1 20 0 1 0 1
0 67 -150 -78 0 0 1 20 0 1 0 1
phys
0 212 -150 -78 0 0 1 20 0 1 0 1
0 212 -150 -69 0 0 1 20 0 1 0 1
0 212 -165 -69 0 0 1 20 0 1 0 1
phys
0 212 -165 -69 0 0 1 20 0 1 0 1
0 212 -150 -69 0 0 1 20 0 1 0 1
0 67 -150 -69 0 0 1 20 0 1 0 1
phys
0 212 -165 -69 0 0 1 20 0 1 0 1
0 67 -150 -69 0 0 1 20 0 1 0 1
0 67 -165 -69 0 0 1 20 0 1 0 1
phys
0 67 -165 -69 0 0 1 20 0 1 0 1
0 67 -150 -78 0 0 1 20 0 1 0 1
0 212 -150 -78 0 0 1 20 0 1 0 1
phys
0 67 -165 -69 0 0 1 20 0 1 0 1
0 212 -150 -78 0 0 1 20 0 1 0 1
0 212 -165 -69 0 0 1 20 0 1 0 1
phys
0 67 -180 -60 0 0 1 21 0 1 0 1
0 212 -180 -60 0 0 1 21 0 1 0 1
0 212 -165 -60 0 0 1 21 0 1 0 1
phys
0 67 -180 -60 0 0 1 21 0 1 0 1
0 212 -165 -60 0 0 1 21 0 1 0 1
0 67 -165 -60 0 0 1 21 0 1 0 1
phys
0 212 -180 -60 0 0 1 21 0 1 0 1
0 67 -180 -60 0 0 1 21 0 1 0 1
0 67 -165 -69 0 0 1 21 0 1 0 1
phys
0 212 -180 -60 0 0 1 21 0 1 0 1
0 67 -165 -69 0 0 1 21 0 1 0 1
0 212 -165 -69 0 0 1 21 0 1 0 1
phys
0 212 -165 -69 0 0 1 21 0 1 0 1
0 67 -165 -69 0 0 1 21 0 1 0 1
0 67 -165 -60 0 0 1 21 0 1 0 1
phys
0 212 -165 -69 0 0 1 21 0 1 0 1
0 67 -165 -60 0 0 1 21 0 1 0 1
0 212 -165 -60 0 0 1 21 0 1 0 1
phys
0 67 -180 -60 0 0 1 21 0 1 0 1
0 67 -165 -60 0 0 1 21 0 1 0 1
0 67 -165 -69 0 0 1 21 0 1 0 1
phys
0 212 -165 -60 0 0 1 21 0 1 0 1
0 212 -180 -60 0 0 1 21 0 1 0 1
0 212 -165 -69 0 0 1 21 0 1 0 1
phys
0 67 -210 -42 0 0 1 22 0 1 0 1
0 212 -210 -42 0 0 1 22 0 1 0 1
0 212 -195 -42 0 0 1 22 0 1 0 1
phys
0 67 -210 -42 0 0 1 22 0 1 0 1
0 212 -195 -42 0 0 1 22 0 1 0 1
0 67 -195 -42 0 0 1 22 0 1 0 1
phys
0 212 -210 -42 0 0 1 22 0 1 0 1
0 67 -210 -42 0 0 1 22 0 1 0 1
0 67 -195 -51 0 0 1 22 0 1 0 1
phys
0 212 -210 -42 0 0 1 22 0 1 0 1
0 67 -195 -51 0 0 1 22 0 1 0 1
0 212 -195 -51 0 0 1 22 0 1 0 1
phys
0 212 -195 -51 0 0 1 22 0 1 0 1
0 67 -195 -51 0 0 1 22 0 1 0 1
0 67 -195 -42 0 0 1 22 0 1 0 1
phys
0 212 -195 -51 0 0 1 22 0 1 0 1
0 67 -195 -42 0 0 1 22 0 1 0 1
0 212 -195 -42 0 0 1 22 0 1 0 1
phys
0 67 -210 -42 0 0 1 22 0 1 0 1
0 67 -195 -42 0 0 1 22 0 1 0 1
0 67 -195 -51 0 0 1 22 0 1 0 1
phys
0 212 -195 -42 0 0 1 22 0 1 0 1
0 212 -210 -42 0 0 1 22 0 1 0 1
0 212 -195 -51 0 0 1 22 0 1 0 1
phys
0 212 -225 -24 0 0 1 23 0 1 0 1
0 212 -225 -33 0 0 1 23 0 1 0 1
0 67 -225 -33 0 0 1 23 0 1 0 1
phys
0 212 -225 -24 0 0 1 23 0 1 0 1
0 67 -225 -33 0 0 1 23 0 1 0 1
0 67 -225 -24 0 0 1 23 0 1 0 1
phys
0 67 -240 -24 0 0 1 23 0 1 0 1
0 67 -225 -24 0 0 1 23 0 1 0 1
0 67 -225 -33 0 0 1 23 0 1 0 1
phys
0 212 -225 -33 0 0 1 23 0 1 0 1
0 212 -225 -24 0 0 1 23 0 1 0 1
0 212 -240 -24 0 0 1 23 0 1 0 1
phys
0 212 -240 -24 0 0 1 23 0 1 0 1
0 212 -225 -24 0 0 1 23 0 1 0 1
0 67 -225 -24 0 0 1 23 0 1 0 1
phys
0 212 -240 -24 0 0 1 23 0 1 0 1
0 67 -225 -24 0 0 1 23 0 1 0 1
0 67 -240 -24 0 0 1 23 0 1 0 1
phys
0 67 -240 -24 0 0 1 23 0 1 0 1
0 67 -225 -33 0 0 1 23 0 1 0 1
0 212 -225 -33 0 0 1 23 0 1 0 1
phys
0 67 -240 -24 0 0 1 23 0 1 0 1
0 212 -225 -33 0 0 1 23 0 1 0 1
0 212 -240 -24 0 0 1 23 0 1 0 1
phys
0 67 -270 -6 0 0 1 24 0 1 0 1
0 212 -270 -6 0 0 1 24 0 1 0 1
0 212 -255 -6 0 0 1 24 0 1 0 1
phys
0 67 -270 -6 0 0 1 24 0 1 0 1
0 212 -255 -6 0 0 1 24 0 1 0 1
0 67 -255 -6 0 0 1 24 0 1 0 1
phys
0 212 -270 -6 0 0 1 24 0 1 0 1
0 67 -270 -6 0 0 1 24 0 1 0 1
0 67 -255 -15 0 0 1 24 0 1 0 1
phys
0 212 -270 -6 0 0 1 24 0 1 0 1
0 67 -255 -15 0 0 1 24 0 1 0 1
0 212 -255 -15 0 0 1 24 0 1 0 1
phys
0 212 -255 -15 0 0 1 24 0 1 0 1
0 67 -255 -15 0 0 1 24 0 1 0 1
0 67 -255 -6 0 0 1 24 0 1 0 1
phys
0 212 -255 -15 0 0 1 24 0 1 0 1
0 67 -255 -6 0 0 1 24 0 1 0 1
0 212 -255 -6 0 0 1 24 0 1 0 1
phys
0 67 -270 -6 0 0 1 24 0 1 0 1
0 67 -255 -6 0 0 1 24 0 1 0 1
0 67 -255 -15 0 0 1 24 0 1 0 1
phys
0 212 -255 -6 0 0 1 24 0 1 0 1
0 212 -270 -6 0 0 1 24 0 1 0 1
0 212 -255 -15 0 0 1 24 0 1 0 1
phys
0 67 -300 12 0 0 1 25 0 1 0 1
0 212 -300 12 0 0 1 25 0 1 0 1
0 212 -285 12 0 0 1 25 0 1 0 1
phys
0 67 -300 12 0 0 1 25 0 1 0 1
0 212 -285 12 0 0 1 25 0 1 0 1
0 67 -285 12 0 0 1 25 0 1 0 1
phys
0 212 -300 12 0 0 1 25 0 1 0 1
0 67 -300 12 0 0 1 25 0 1 0 1
0 67 -285 3 0 0 1 25 0 1 0 1
phys
0 212 -300 12 0 0 1 25 0 1 0 1
0 67 -285 3 0 0 1 25 0 1 0 1
0 212 -285 3 0 0 1 25 0 1 0 1
phys
0 212 -285 3 0 0 1 25 0 1 0 1
0 67 -285 3 0 0 1 25 0 1 0 1
0 67 -285 12 0 0 1 25 0 1 0 1
phys
0 212 -285 3 0 0 1 25 0 1 0 1
0 67 -285 12 0 0 1 25 0 1 0 1
0 212 -285 12 0 0 1 25 0 1 0 1
phys
0 67 -300 12 0 0 1 25 0 1 0 1
0 67 -285 12 0 0 1 25 0 1 0 1
0 67 -285 3 0 0 1 25 0 1 0 1
phys
0 212 -285 12 0 0 1 25 0 1 0 1
0 212 -300 12 0 0 1 25 0 1 0 1
0 212 -285 3 0 0 1 25 0 1 0 1
phys
0 138 6 78 0 0 1 26 0 1 0 1
0 138 6 -78 0 0 1 26 0 1 0 1
0 126 6 -78 0 0 1 26 0 1 0 1
phys
0 138 6 78 0 0 1 26 0 1 0 1
0 126 6 -78 0 0 1 26 0 1 0 1
0 126 6 78 0 0 1 26 0 1 0 1
phys
0 138 -6 -78 0 0 1 26 0 1 0 1
0 138 -6 78 0 0 1 26 0 1 0 1
0 126 -6 78 0 0 1 26 0 1 0 1
phys
0 138 -6 -78 0 0 1 26 0 1 0 1
0 126 -6 78 0 0 1 26 0 1 0 1
0 126 -6 -78 0 0 1 26 0 1 0 1
phys
0 126 -6 -78 0 0 1 26 0 1 0 1
0 126 -6 78 0 0 1 26 0 1 0 1
0 126 6 78 0 0 1 26 0 1 0 1
phys
0 126 -6 -78 0 0 1 26 0 1 0 1
0 126 6 78 0 0 1 26 0 1 0 1
0 126 6 -78 0 0 1 26 0 1 0 1
phys
0 138 -6 78 0 0 1 26 0 1 0 1
0 138 -6 -78 0 0 1 26 0 1 0 1
0 138 6 -78 0 0 1 26 0 1 0 1
phys
0 138 -6 78 0 0 1 26 0 1 0 1
0 138 6 -78 0 0 1 26 0 1 0 1
0 138 6 78 0 0 1 26 0 1 0 1
phys
0 138 -6 -78 0 0 1 26 0 1 0 1
0 126 -6 -78 0 0 1 26 0 1 0 1
0 126 6 -78 0 0 1 26 0 1 0 1
phys
0 138 -6 -78 0 0 1 26 0 1 0 1
0 126 6 -78 0 0 1 26 0 1 0 1
0 138 6 -78 0 0 1 26 0 1 0 1
phys
0 126 -6 78 0 0 1 26 0 1 0 1
0 138 -6 78 0 0 1 26 0 1 0 1
0 138 6 78 0 0 1 26 0 1 0 1
phys
0 126 -6 78 0 0 1 26 0 1 0 1
0 138 6 78 0 0 1 26 0 1 0 1
0 126 6 78 0 0 1 26 0 1 0 1
end
