version 1
nodes
0 "root" -1
end
skeleton
time 0
0 0 0 0 0 0 0
end
triangles
pepsi2_arch_stairs01
0 -6 114 -150 0 0 1 172.300781 81.75 1 0 1
0 138 114 -150 0 0 1 170.050781 81.75 1 0 1
0 138 129 -150 0 0 1 170.050781 81.28125 1 0 1
pepsi2_arch_stairs01
0 -6 114 -150 0 0 1 172.300781 81.75 1 0 1
0 138 129 -150 0 0 1 170.050781 81.28125 1 0 1
0 -6 129 -150 0 0 1 172.300781 81.28125 1 0 1
pepsi2_arch_stairs01
0 138 129 -159 0 1 0 170.050781 -21 1 0 1
0 -6 129 -159 0 1 0 172.300781 -21 1 0 1
0 -6 129 -150 0 1 0 172.300781 -20.71875 1 0 1
pepsi2_arch_stairs01
0 138 129 -159 0 1 0 170.050781 -21 1 0 1
0 -6 129 -150 0 1 0 172.300781 -20.71875 1 0 1
0 138 129 -150 0 1 0 170.050781 -20.71875 1 0 1
pepsi2_arch_stairs01
0 -6 99 -141 0 0 1 172.300781 82.75 1 0 1
0 138 99 -141 0 0 1 170.050781 82.75 1 0 1
0 138 114 -141 0 0 1 170.050781 82.28125 1 0 1
pepsi2_arch_stairs01
0 -6 99 -141 0 0 1 172.300781 82.75 1 0 1
0 138 114 -141 0 0 1 170.050781 82.28125 1 0 1
0 -6 114 -141 0 0 1 172.300781 82.28125 1 0 1
pepsi2_arch_stairs01
0 138 114 -150 0 1 0 170.050781 -21 1 0 1
0 -6 114 -150 0 1 0 172.300781 -21 1 0 1
0 -6 114 -141 0 1 0 172.300781 -20.71875 1 0 1
pepsi2_arch_stairs01
0 138 114 -150 0 1 0 170.050781 -21 1 0 1
0 -6 114 -141 0 1 0 172.300781 -20.71875 1 0 1
0 138 114 -141 0 1 0 170.050781 -20.71875 1 0 1
pepsi2_arch_stairs01
0 138 69 -114 0 1 0 170.050781 -19.71875 1 0 1
0 138 69 -123 0 1 0 170.050781 -20 1 0 1
0 -6 69 -123 0 1 0 172.300781 -20 1 0 1
pepsi2_arch_stairs01
0 138 69 -114 0 1 0 170.050781 -19.71875 1 0 1
0 -6 69 -123 0 1 0 172.300781 -20 1 0 1
0 -6 69 -114 0 1 0 172.300781 -19.71875 1 0 1
pepsi2_arch_stairs01
0 138 54 -114 0 0 1 170.050781 83.75 1 0 1
0 138 69 -114 0 0 1 170.050781 83.28125 1 0 1
0 -6 69 -114 0 0 1 172.300781 83.28125 1 0 1
pepsi2_arch_stairs01
0 138 54 -114 0 0 1 170.050781 83.75 1 0 1
0 -6 69 -114 0 0 1 172.300781 83.28125 1 0 1
0 -6 54 -114 0 0 1 172.300781 83.75 1 0 1
pepsi2_arch_stairs01
0 138 39 -96 0 1 0 170.050781 -19.71875 1 0 1
0 138 39 -105 0 1 0 170.050781 -20 1 0 1
0 -6 39 -105 0 1 0 172.300781 -20 1 0 1
pepsi2_arch_stairs01
0 138 39 -96 0 1 0 170.050781 -19.71875 1 0 1
0 -6 39 -105 0 1 0 172.300781 -20 1 0 1
0 -6 39 -96 0 1 0 172.300781 -19.71875 1 0 1
pepsi2_arch_stairs01
0 138 24 -96 0 0 1 170.050781 84.75 1 0 1
0 138 39 -96 0 0 1 170.050781 84.28125 1 0 1
0 -6 39 -96 0 0 1 172.300781 84.28125 1 0 1
pepsi2_arch_stairs01
0 138 24 -96 0 0 1 170.050781 84.75 1 0 1
0 -6 39 -96 0 0 1 172.300781 84.28125 1 0 1
0 -6 24 -96 0 0 1 172.300781 84.75 1 0 1
pepsi2_arch_stairs01
0 138 99 -132 0 1 0 170.050781 -20.71875 1 0 1
0 138 99 -141 0 1 0 170.050781 -21 1 0 1
0 -6 99 -141 0 1 0 172.300781 -21 1 0 1
pepsi2_arch_stairs01
0 138 99 -132 0 1 0 170.050781 -20.71875 1 0 1
0 -6 99 -141 0 1 0 172.300781 -21 1 0 1
0 -6 99 -132 0 1 0 172.300781 -20.71875 1 0 1
pepsi2_arch_stairs01
0 138 84 -132 0 0 1 170.050781 82.75 1 0 1
0 138 99 -132 0 0 1 170.050781 82.28125 1 0 1
0 -6 99 -132 0 0 1 172.300781 82.28125 1 0 1
pepsi2_arch_stairs01
0 138 84 -132 0 0 1 170.050781 82.75 1 0 1
0 -6 99 -132 0 0 1 172.300781 82.28125 1 0 1
0 -6 84 -132 0 0 1 172.300781 82.75 1 0 1
bridge_se1_metal_flat_steel_01
0 6 6 78 0 1 0 86.164062 -2.095703 1 0 1
0 6 6 -78 0 1 0 86.164062 -3.314453 1 0 1
0 -6 6 -78 0 1 0 86.257812 -3.314453 1 0 1
bridge_se1_metal_flat_steel_01
0 6 6 78 0 1 0 86.164062 -2.095703 1 0 1
0 -6 6 -78 0 1 0 86.257812 -3.314453 1 0 1
0 -6 6 78 0 1 0 86.257812 -2.095703 1 0 1
bridge_se1_metal_flat_steel_01
0 6 -6 -78 0 -1 0 -85.367188 -3.314453 1 0 1
0 6 -6 78 0 -1 0 -85.367188 -2.095703 1 0 1
0 -6 -6 78 0 -1 0 -85.460938 -2.095703 1 0 1
bridge_se1_metal_flat_steel_01
0 6 -6 -78 0 -1 0 -85.367188 -3.314453 1 0 1
0 -6 -6 78 0 -1 0 -85.460938 -2.095703 1 0 1
0 -6 -6 -78 0 -1 0 -85.460938 -3.314453 1 0 1
bridge_se1_metal_flat_steel_01
0 6 -6 78 1 0 0 -21.648438 -2.095703 1 0 1
0 6 -6 -78 1 0 0 -21.648438 -3.314453 1 0 1
0 6 6 -78 1 0 0 -21.554688 -3.314453 1 0 1
bridge_se1_metal_flat_steel_01
0 6 -6 78 1 0 0 -21.648438 -2.095703 1 0 1
0 6 6 -78 1 0 0 -21.554688 -3.314453 1 0 1
0 6 6 78 1 0 0 -21.554688 -2.095703 1 0 1
pepsi2_arch_stairs01
0 138 54 -105 0 1 0 170.050781 -19.71875 1 0 1
0 138 54 -114 0 1 0 170.050781 -20 1 0 1
0 -6 54 -114 0 1 0 172.300781 -20 1 0 1
pepsi2_arch_stairs01
0 138 54 -105 0 1 0 170.050781 -19.71875 1 0 1
0 -6 54 -114 0 1 0 172.300781 -20 1 0 1
0 -6 54 -105 0 1 0 172.300781 -19.71875 1 0 1
pepsi2_arch_stairs01
0 138 39 -105 0 0 1 170.050781 84.75 1 0 1
0 138 54 -105 0 0 1 170.050781 84.28125 1 0 1
0 -6 54 -105 0 0 1 172.300781 84.28125 1 0 1
pepsi2_arch_stairs01
0 138 39 -105 0 0 1 170.050781 84.75 1 0 1
0 -6 54 -105 0 0 1 172.300781 84.28125 1 0 1
0 -6 39 -105 0 0 1 172.300781 84.75 1 0 1
pepsi2_arch_stairs01
0 -6 69 -123 0 0 1 172.300781 83.75 1 0 1
0 138 69 -123 0 0 1 170.050781 83.75 1 0 1
0 138 84 -123 0 0 1 170.050781 83.28125 1 0 1
pepsi2_arch_stairs01
0 -6 69 -123 0 0 1 172.300781 83.75 1 0 1
0 138 84 -123 0 0 1 170.050781 83.28125 1 0 1
0 -6 84 -123 0 0 1 172.300781 83.28125 1 0 1
pepsi2_arch_stairs01
0 138 84 -132 0 1 0 170.050781 -20 1 0 1
0 -6 84 -132 0 1 0 172.300781 -20 1 0 1
0 -6 84 -123 0 1 0 172.300781 -19.71875 1 0 1
pepsi2_arch_stairs01
0 138 84 -132 0 1 0 170.050781 -20 1 0 1
0 -6 84 -123 0 1 0 172.300781 -19.71875 1 0 1
0 138 84 -123 0 1 0 170.050781 -19.71875 1 0 1
pepsi2_arch_stairs01
0 138 9 -87 0 0 1 170.050781 85.75 1 0 1
0 138 24 -87 0 0 1 170.050781 85.28125 1 0 1
0 -6 24 -87 0 0 1 172.300781 85.28125 1 0 1
pepsi2_arch_stairs01
0 138 9 -87 0 0 1 170.050781 85.75 1 0 1
0 -6 24 -87 0 0 1 172.300781 85.28125 1 0 1
0 -6 9 -87 0 0 1 172.300781 85.75 1 0 1
pepsi2_arch_stairs01
0 138 24 -87 0 1 0 170.050781 -18.71875 1 0 1
0 138 24 -96 0 1 0 170.050781 -19 1 0 1
0 -6 24 -96 0 1 0 172.300781 -19 1 0 1
pepsi2_arch_stairs01
0 138 24 -87 0 1 0 170.050781 -18.71875 1 0 1
0 -6 24 -96 0 1 0 172.300781 -19 1 0 1
0 -6 24 -87 0 1 0 172.300781 -18.71875 1 0 1
pepsi2_arch_stairs01
0 212 -360 57 0 1 0 170.050781 -14.71875 1 0 1
0 212 -360 48 0 1 0 170.050781 -15 1 0 1
0 67 -360 48 0 1 0 172.316406 -15 1 0 1
pepsi2_arch_stairs01
0 212 -360 57 0 1 0 170.050781 -14.71875 1 0 1
0 67 -360 48 0 1 0 172.316406 -15 1 0 1
0 67 -360 57 0 1 0 172.316406 -14.71875 1 0 1
pepsi2_arch_stairs01
0 212 -375 57 0 0 1 170.050781 96.75 1 0 1
0 212 -360 57 0 0 1 170.050781 96.28125 1 0 1
0 67 -360 57 0 0 1 172.316406 96.28125 1 0 1
pepsi2_arch_stairs01
0 212 -375 57 0 0 1 170.050781 96.75 1 0 1
0 67 -360 57 0 0 1 172.316406 96.28125 1 0 1
0 67 -375 57 0 0 1 172.316406 96.75 1 0 1
pepsi2_arch_stairs01
0 212 -360 48 0 0 1 170.050781 95.75 1 0 1
0 212 -345 48 0 0 1 170.050781 95.28125 1 0 1
0 67 -345 48 0 0 1 172.316406 95.28125 1 0 1
pepsi2_arch_stairs01
0 212 -360 48 0 0 1 170.050781 95.75 1 0 1
0 67 -345 48 0 0 1 172.316406 95.28125 1 0 1
0 67 -360 48 0 0 1 172.316406 95.75 1 0 1
pepsi2_arch_stairs01
0 212 -345 48 0 1 0 170.050781 -15.71875 1 0 1
0 212 -345 39 0 1 0 170.050781 -16 1 0 1
0 67 -345 39 0 1 0 172.316406 -16 1 0 1
pepsi2_arch_stairs01
0 212 -345 48 0 1 0 170.050781 -15.71875 1 0 1
0 67 -345 39 0 1 0 172.316406 -16 1 0 1
0 67 -345 48 0 1 0 172.316406 -15.71875 1 0 1
pepsi2_arch_stairs01
0 212 -330 39 0 1 0 170.050781 -15.71875 1 0 1
0 212 -330 30 0 1 0 170.050781 -16 1 0 1
0 67 -330 30 0 1 0 172.316406 -16 1 0 1
pepsi2_arch_stairs01
0 212 -330 39 0 1 0 170.050781 -15.71875 1 0 1
0 67 -330 30 0 1 0 172.316406 -16 1 0 1
0 67 -330 39 0 1 0 172.316406 -15.71875 1 0 1
pepsi2_arch_stairs01
0 212 -345 39 0 0 1 170.050781 95.75 1 0 1
0 212 -330 39 0 0 1 170.050781 95.28125 1 0 1
0 67 -330 39 0 0 1 172.316406 95.28125 1 0 1
pepsi2_arch_stairs01
0 212 -345 39 0 0 1 170.050781 95.75 1 0 1
0 67 -330 39 0 0 1 172.316406 95.28125 1 0 1
0 67 -345 39 0 0 1 172.316406 95.75 1 0 1
pepsi2_arch_stairs01
0 212 -315 30 0 1 0 170.050781 -15.71875 1 0 1
0 212 -315 21 0 1 0 170.050781 -16 1 0 1
0 67 -315 21 0 1 0 172.316406 -16 1 0 1
pepsi2_arch_stairs01
0 212 -315 30 0 1 0 170.050781 -15.71875 1 0 1
0 67 -315 21 0 1 0 172.316406 -16 1 0 1
0 67 -315 30 0 1 0 172.316406 -15.71875 1 0 1
pepsi2_arch_stairs01
0 212 -330 30 0 0 1 170.050781 94.75 1 0 1
0 212 -315 30 0 0 1 170.050781 94.28125 1 0 1
0 67 -315 30 0 0 1 172.316406 94.28125 1 0 1
pepsi2_arch_stairs01
0 212 -330 30 0 0 1 170.050781 94.75 1 0 1
0 67 -315 30 0 0 1 172.316406 94.28125 1 0 1
0 67 -330 30 0 0 1 172.316406 94.75 1 0 1
pepsi2_arch_stairs01
0 212 -300 21 0 1 0 170.050781 -16.71875 1 0 1
0 212 -300 12 0 1 0 170.050781 -17 1 0 1
0 67 -300 12 0 1 0 172.316406 -17 1 0 1
pepsi2_arch_stairs01
0 212 -300 21 0 1 0 170.050781 -16.71875 1 0 1
0 67 -300 12 0 1 0 172.316406 -17 1 0 1
0 67 -300 21 0 1 0 172.316406 -16.71875 1 0 1
pepsi2_arch_stairs01
0 212 -315 21 0 0 1 170.050781 94.75 1 0 1
0 212 -300 21 0 0 1 170.050781 94.28125 1 0 1
0 67 -300 21 0 0 1 172.316406 94.28125 1 0 1
pepsi2_arch_stairs01
0 212 -315 21 0 0 1 170.050781 94.75 1 0 1
0 67 -300 21 0 0 1 172.316406 94.28125 1 0 1
0 67 -315 21 0 0 1 172.316406 94.75 1 0 1
pepsi2_arch_stairs01
0 212 -270 3 0 1 0 170.050781 -16.71875 1 0 1
0 212 -270 -6 0 1 0 170.050781 -17 1 0 1
0 67 -270 -6 0 1 0 172.316406 -17 1 0 1
pepsi2_arch_stairs01
0 212 -270 3 0 1 0 170.050781 -16.71875 1 0 1
0 67 -270 -6 0 1 0 172.316406 -17 1 0 1
0 67 -270 3 0 1 0 172.316406 -16.71875 1 0 1
pepsi2_arch_stairs01
0 212 -285 3 0 0 1 170.050781 93.75 1 0 1
0 212 -270 3 0 0 1 170.050781 93.28125 1 0 1
0 67 -270 3 0 0 1 172.316406 93.28125 1 0 1
pepsi2_arch_stairs01
0 212 -285 3 0 0 1 170.050781 93.75 1 0 1
0 67 -270 3 0 0 1 172.316406 93.28125 1 0 1
0 67 -285 3 0 0 1 172.316406 93.75 1 0 1
pepsi2_arch_stairs01
0 138 9 -78 0 1 0 170.050781 -18.71875 1 0 1
0 138 9 -87 0 1 0 170.050781 -19 1 0 1
0 -6 9 -87 0 1 0 172.300781 -19 1 0 1
pepsi2_arch_stairs01
0 138 9 -78 0 1 0 170.050781 -18.71875 1 0 1
0 -6 9 -87 0 1 0 172.300781 -19 1 0 1
0 -6 9 -78 0 1 0 172.300781 -18.71875 1 0 1
pepsi2_arch_stairs01
0 138 -6 -78 0 0 1 170.050781 85.75 1 0 1
0 138 9 -78 0 0 1 170.050781 85.28125 1 0 1
0 -6 9 -78 0 0 1 172.300781 85.28125 1 0 1
pepsi2_arch_stairs01
0 138 -6 -78 0 0 1 170.050781 85.75 1 0 1
0 -6 9 -78 0 0 1 172.300781 85.28125 1 0 1
0 -6 -6 -78 0 0 1 172.300781 85.75 1 0 1
pepsi2_arch_stairs01
0 67 -255 -15 0 0 1 172.316406 92.75 1 0 1
0 212 -255 -15 0 0 1 170.050781 92.75 1 0 1
0 212 -240 -15 0 0 1 170.050781 92.28125 1 0 1
pepsi2_arch_stairs01
0 67 -255 -15 0 0 1 172.316406 92.75 1 0 1
0 212 -240 -15 0 0 1 170.050781 92.28125 1 0 1
0 67 -240 -15 0 0 1 172.316406 92.28125 1 0 1
pepsi2_arch_stairs01
0 212 -240 -24 0 1 0 170.050781 -18 1 0 1
0 67 -240 -24 0 1 0 172.316406 -18 1 0 1
0 67 -240 -15 0 1 0 172.316406 -17.71875 1 0 1
pepsi2_arch_stairs01
0 212 -240 -24 0 1 0 170.050781 -18 1 0 1
0 67 -240 -15 0 1 0 172.316406 -17.71875 1 0 1
0 212 -240 -15 0 1 0 170.050781 -17.71875 1 0 1
pepsi2_arch_stairs01
0 212 -210 -33 0 1 0 170.050781 -17.71875 1 0 1
0 212 -210 -42 0 1 0 170.050781 -18 1 0 1
0 67 -210 -42 0 1 0 172.316406 -18 1 0 1
pepsi2_arch_stairs01
0 212 -210 -33 0 1 0 170.050781 -17.71875 1 0 1
0 67 -210 -42 0 1 0 172.316406 -18 1 0 1
0 67 -210 -33 0 1 0 172.316406 -17.71875 1 0 1
pepsi2_arch_stairs01
0 212 -225 -33 0 0 1 170.050781 91.75 1 0 1
0 212 -210 -33 0 0 1 170.050781 91.28125 1 0 1
0 67 -210 -33 0 0 1 172.316406 91.28125 1 0 1
pepsi2_arch_stairs01
0 212 -225 -33 0 0 1 170.050781 91.75 1 0 1
0 67 -210 -33 0 0 1 172.316406 91.28125 1 0 1
0 67 -225 -33 0 0 1 172.316406 91.75 1 0 1
pepsi2_arch_stairs01
0 212 -180 -51 0 1 0 170.050781 -18.71875 1 0 1
0 212 -180 -60 0 1 0 170.050781 -19 1 0 1
0 67 -180 -60 0 1 0 172.316406 -19 1 0 1
pepsi2_arch_stairs01
0 212 -180 -51 0 1 0 170.050781 -18.71875 1 0 1
0 67 -180 -60 0 1 0 172.316406 -19 1 0 1
0 67 -180 -51 0 1 0 172.316406 -18.71875 1 0 1
pepsi2_arch_stairs01
0 212 -195 -51 0 0 1 170.050781 90.75 1 0 1
0 212 -180 -51 0 0 1 170.050781 90.28125 1 0 1
0 67 -180 -51 0 0 1 172.316406 90.28125 1 0 1
pepsi2_arch_stairs01
0 212 -195 -51 0 0 1 170.050781 90.75 1 0 1
0 67 -180 -51 0 0 1 172.316406 90.28125 1 0 1
0 67 -195 -51 0 0 1 172.316406 90.75 1 0 1
pepsi2_arch_stairs01
0 212 -150 -69 0 1 0 170.050781 -18.71875 1 0 1
0 212 -150 -78 0 1 0 170.050781 -19 1 0 1
0 67 -150 -78 0 1 0 172.316406 -19 1 0 1
pepsi2_arch_stairs01
0 212 -150 -69 0 1 0 170.050781 -18.71875 1 0 1
0 67 -150 -78 0 1 0 172.316406 -19 1 0 1
0 67 -150 -69 0 1 0 172.316406 -18.71875 1 0 1
pepsi2_arch_stairs01
0 212 -165 -69 0 0 1 170.050781 89.75 1 0 1
0 212 -150 -69 0 0 1 170.050781 89.28125 1 0 1
0 67 -150 -69 0 0 1 172.316406 89.28125 1 0 1
pepsi2_arch_stairs01
0 212 -165 -69 0 0 1 170.050781 89.75 1 0 1
0 67 -150 -69 0 0 1 172.316406 89.28125 1 0 1
0 67 -165 -69 0 0 1 172.316406 89.75 1 0 1
pepsi2_arch_stairs01
0 67 -180 -60 0 0 1 172.316406 90.75 1 0 1
0 212 -180 -60 0 0 1 170.050781 90.75 1 0 1
0 212 -165 -60 0 0 1 170.050781 90.28125 1 0 1
pepsi2_arch_stairs01
0 67 -180 -60 0 0 1 172.316406 90.75 1 0 1
0 212 -165 -60 0 0 1 170.050781 90.28125 1 0 1
0 67 -165 -60 0 0 1 172.316406 90.28125 1 0 1
pepsi2_arch_stairs01
0 212 -165 -69 0 1 0 170.050781 -19 1 0 1
0 67 -165 -69 0 1 0 172.316406 -19 1 0 1
0 67 -165 -60 0 1 0 172.316406 -18.71875 1 0 1
pepsi2_arch_stairs01
0 212 -165 -69 0 1 0 170.050781 -19 1 0 1
0 67 -165 -60 0 1 0 172.316406 -18.71875 1 0 1
0 212 -165 -60 0 1 0 170.050781 -18.71875 1 0 1
pepsi2_arch_stairs01
0 67 -210 -42 0 0 1 172.316406 90.75 1 0 1
0 212 -210 -42 0 0 1 170.050781 90.75 1 0 1
0 212 -195 -42 0 0 1 170.050781 90.28125 1 0 1
pepsi2_arch_stairs01
0 67 -210 -42 0 0 1 172.316406 90.75 1 0 1
0 212 -195 -42 0 0 1 170.050781 90.28125 1 0 1
0 67 -195 -42 0 0 1 172.316406 90.28125 1 0 1
pepsi2_arch_stairs01
0 212 -195 -51 0 1 0 170.050781 -18 1 0 1
0 67 -195 -51 0 1 0 172.316406 -18 1 0 1
0 67 -195 -42 0 1 0 172.316406 -17.71875 1 0 1
pepsi2_arch_stairs01
0 212 -195 -51 0 1 0 170.050781 -18 1 0 1
0 67 -195 -42 0 1 0 172.316406 -17.71875 1 0 1
0 212 -195 -42 0 1 0 170.050781 -17.71875 1 0 1
pepsi2_arch_stairs01
0 212 -225 -24 0 1 0 170.050781 -17.71875 1 0 1
0 212 -225 -33 0 1 0 170.050781 -18 1 0 1
0 67 -225 -33 0 1 0 172.316406 -18 1 0 1
pepsi2_arch_stairs01
0 212 -225 -24 0 1 0 170.050781 -17.71875 1 0 1
0 67 -225 -33 0 1 0 172.316406 -18 1 0 1
0 67 -225 -24 0 1 0 172.316406 -17.71875 1 0 1
pepsi2_arch_stairs01
0 212 -240 -24 0 0 1 170.050781 91.75 1 0 1
0 212 -225 -24 0 0 1 170.050781 91.28125 1 0 1
0 67 -225 -24 0 0 1 172.316406 91.28125 1 0 1
pepsi2_arch_stairs01
0 212 -240 -24 0 0 1 170.050781 91.75 1 0 1
0 67 -225 -24 0 0 1 172.316406 91.28125 1 0 1
0 67 -240 -24 0 0 1 172.316406 91.75 1 0 1
pepsi2_arch_stairs01
0 67 -270 -6 0 0 1 172.316406 92.75 1 0 1
0 212 -270 -6 0 0 1 170.050781 92.75 1 0 1
0 212 -255 -6 0 0 1 170.050781 92.28125 1 0 1
pepsi2_arch_stairs01
0 67 -270 -6 0 0 1 172.316406 92.75 1 0 1
0 212 -255 -6 0 0 1 170.050781 92.28125 1 0 1
0 67 -255 -6 0 0 1 172.316406 92.28125 1 0 1
pepsi2_arch_stairs01
0 212 -255 -15 0 1 0 170.050781 -17 1 0 1
0 67 -255 -15 0 1 0 172.316406 -17 1 0 1
0 67 -255 -6 0 1 0 172.316406 -16.71875 1 0 1
pepsi2_arch_stairs01
0 212 -255 -15 0 1 0 170.050781 -17 1 0 1
0 67 -255 -6 0 1 0 172.316406 -16.71875 1 0 1
0 212 -255 -6 0 1 0 170.050781 -16.71875 1 0 1
pepsi2_arch_stairs01
0 67 -300 12 0 0 1 172.316406 93.75 1 0 1
0 212 -300 12 0 0 1 170.050781 93.75 1 0 1
0 212 -285 12 0 0 1 170.050781 93.28125 1 0 1
pepsi2_arch_stairs01
0 67 -300 12 0 0 1 172.316406 93.75 1 0 1
0 212 -285 12 0 0 1 170.050781 93.28125 1 0 1
0 67 -285 12 0 0 1 172.316406 93.28125 1 0 1
pepsi2_arch_stairs01
0 212 -285 3 0 1 0 170.050781 -17 1 0 1
0 67 -285 3 0 1 0 172.316406 -17 1 0 1
0 67 -285 12 0 1 0 172.316406 -16.71875 1 0 1
pepsi2_arch_stairs01
0 212 -285 3 0 1 0 170.050781 -17 1 0 1
0 67 -285 12 0 1 0 172.316406 -16.71875 1 0 1
0 212 -285 12 0 1 0 170.050781 -16.71875 1 0 1
bridge_se1_metal_flat_steel_01
0 138 6 78 0 1 0 85.132812 -2.095703 1 0 1
0 138 6 -78 0 1 0 85.132812 -3.314453 1 0 1
0 126 6 -78 0 1 0 85.226562 -3.314453 1 0 1
bridge_se1_metal_flat_steel_01
0 138 6 78 0 1 0 85.132812 -2.095703 1 0 1
0 126 6 -78 0 1 0 85.226562 -3.314453 1 0 1
0 126 6 78 0 1 0 85.226562 -2.095703 1 0 1
bridge_se1_metal_flat_steel_01
0 138 -6 -78 0 -1 0 -84.335938 -3.314453 1 0 1
0 138 -6 78 0 -1 0 -84.335938 -2.095703 1 0 1
0 126 -6 78 0 -1 0 -84.429688 -2.095703 1 0 1
bridge_se1_metal_flat_steel_01
0 138 -6 -78 0 -1 0 -84.335938 -3.314453 1 0 1
0 126 -6 78 0 -1 0 -84.429688 -2.095703 1 0 1
0 126 -6 -78 0 -1 0 -84.429688 -3.314453 1 0 1
bridge_se1_metal_flat_steel_01
0 126 -6 -78 -1 0 0 -21.648438 -3.314453 1 0 1
0 126 -6 78 -1 0 0 -21.648438 -2.095703 1 0 1
0 126 6 78 -1 0 0 -21.554688 -2.095703 1 0 1
bridge_se1_metal_flat_steel_01
0 126 -6 -78 -1 0 0 -21.648438 -3.314453 1 0 1
0 126 6 78 -1 0 0 -21.554688 -2.095703 1 0 1
0 126 6 -78 -1 0 0 -21.554688 -3.314453 1 0 1
end
