version 1
nodes
0 "root" -1
end
skeleton
time 0
0 0 0 0 0 0 0
end
triangles
pepsi2_arch_concrete_stair01
0 8 -62 4 -1 0 0 16.144531 -1.96875 1 0 1
0 8 -62 12 -1 0 0 16.144531 -1.90625 1 0 1
0 8 62 12 -1 0 0 15.175781 -1.90625 1 0 1
pepsi2_arch_concrete_stair01
0 8 -62 4 -1 0 0 16.144531 -1.96875 1 0 1
0 8 62 12 -1 0 0 15.175781 -1.90625 1 0 1
0 8 62 4 -1 0 0 15.175781 -1.96875 1 0 1
pepsi2_arch_concrete_stair01
0 8 -62 12 0 0 1 16.144531 -68.351562 1 0 1
0 24 -62 12 0 0 1 16.144531 -68.226562 1 0 1
0 24 62 12 0 0 1 15.175781 -68.226562 1 0 1
pepsi2_arch_concrete_stair01
0 8 -62 12 0 0 1 16.144531 -68.351562 1 0 1
0 24 62 12 0 0 1 15.175781 -68.226562 1 0 1
0 8 62 12 0 0 1 15.175781 -68.351562 1 0 1
pepsi2_arch_concrete_stair01
0 -110 -66 -9 -1 0 0 14.996094 -2.070312 1 0 1
0 -110 -60 -9 -1 0 0 14.949219 -2.070312 1 0 1
0 -110 -60 -52 -1 0 0 14.949219 -2.40625 1 0 1
pepsi2_arch_concrete_stair01
0 -110 -66 -9 -1 0 0 14.996094 -2.070312 1 0 1
0 -110 -60 -52 -1 0 0 14.949219 -2.40625 1 0 1
0 -110 -66 -52 -1 0 0 14.996094 -2.40625 1 0 1
pepsi2_arch_concrete_stair01
0 -104 -66 -52 1 0 0 -14.996094 -2.40625 1 0 1
0 -104 -60 -52 1 0 0 -14.949219 -2.40625 1 0 1
0 -104 -60 -9 1 0 0 -14.949219 -2.070312 1 0 1
pepsi2_arch_concrete_stair01
0 -104 -66 -52 1 0 0 -14.996094 -2.40625 1 0 1
0 -104 -60 -9 1 0 0 -14.949219 -2.070312 1 0 1
0 -104 -66 -9 1 0 0 -14.996094 -2.070312 1 0 1
pepsi2_arch_concrete_stair01
0 -104 -66 -9 0 0 1 16.515625 -69.566406 1 0 1
0 -104 -60 -9 0 0 1 16.46875 -69.566406 1 0 1
0 -110 -60 -9 0 0 1 16.46875 -69.613281 1 0 1
pepsi2_arch_concrete_stair01
0 -104 -66 -9 0 0 1 16.515625 -69.566406 1 0 1
0 -110 -60 -9 0 0 1 16.46875 -69.613281 1 0 1
0 -110 -66 -9 0 0 1 16.515625 -69.613281 1 0 1
pepsi2_arch_concrete_stair01
0 -104 -60 -9 0 1 0 70.226562 -2.070312 1 0 1
0 -104 -60 -52 0 1 0 70.226562 -2.40625 1 0 1
0 -110 -60 -52 0 1 0 70.273438 -2.40625 1 0 1
pepsi2_arch_concrete_stair01
0 -104 -60 -9 0 1 0 70.226562 -2.070312 1 0 1
0 -110 -60 -52 0 1 0 70.273438 -2.40625 1 0 1
0 -110 -60 -9 0 1 0 70.273438 -2.070312 1 0 1
pepsi2_arch_concrete_stair01
0 -104 -66 -52 0 -1 0 -70.226562 -2.40625 1 0 1
0 -104 -66 -9 0 -1 0 -70.226562 -2.070312 1 0 1
0 -110 -66 -9 0 -1 0 -70.273438 -2.070312 1 0 1
pepsi2_arch_concrete_stair01
0 -104 -66 -52 0 -1 0 -70.226562 -2.40625 1 0 1
0 -110 -66 -9 0 -1 0 -70.273438 -2.070312 1 0 1
0 -110 -66 -52 0 -1 0 -70.273438 -2.40625 1 0 1
pepsi2_arch_concrete_stair01
0 72 -62 44 -1 0 0 14.964844 -1.65625 1 0 1
0 72 62 44 -1 0 0 13.996094 -1.65625 1 0 1
0 72 62 36 -1 0 0 13.996094 -1.71875 1 0 1
pepsi2_arch_concrete_stair01
0 72 -62 44 -1 0 0 14.964844 -1.65625 1 0 1
0 72 62 36 -1 0 0 13.996094 -1.71875 1 0 1
0 72 -62 36 -1 0 0 14.964844 -1.71875 1 0 1
pepsi2_arch_concrete_stair01
0 88 -62 44 0 0 1 14.964844 -67.726562 1 0 1
0 88 62 44 0 0 1 13.996094 -67.726562 1 0 1
0 72 62 44 0 0 1 13.996094 -67.851562 1 0 1
pepsi2_arch_concrete_stair01
0 88 -62 44 0 0 1 14.964844 -67.726562 1 0 1
0 72 62 44 0 0 1 13.996094 -67.851562 1 0 1
0 72 -62 44 0 0 1 14.964844 -67.851562 1 0 1
pepsi2_arch_concrete_stair01
0 -104 -62 -52 -1 0 0 16.144531 -2.40625 1 0 1
0 -104 -62 -44 -1 0 0 16.144531 -2.34375 1 0 1
0 -104 62 -44 -1 0 0 15.175781 -2.34375 1 0 1
pepsi2_arch_concrete_stair01
0 -104 -62 -52 -1 0 0 16.144531 -2.40625 1 0 1
0 -104 62 -44 -1 0 0 15.175781 -2.34375 1 0 1
0 -104 62 -52 -1 0 0 15.175781 -2.40625 1 0 1
pepsi2_arch_concrete_stair01
0 -104 -62 -44 0 0 1 16.144531 -69.226562 1 0 1
0 -88 -62 -44 0 0 1 16.144531 -69.101562 1 0 1
0 -88 62 -44 0 0 1 15.175781 -69.101562 1 0 1
pepsi2_arch_concrete_stair01
0 -104 -62 -44 0 0 1 16.144531 -69.226562 1 0 1
0 -88 62 -44 0 0 1 15.175781 -69.101562 1 0 1
0 -104 62 -44 0 0 1 15.175781 -69.226562 1 0 1
pepsi2_arch_concrete_stair01
0 290 -60 63 0 1 0 67.148438 -1.507812 1 0 1
0 290 -60 52 0 1 0 67.148438 -1.59375 1 0 1
0 110 -60 52 0 1 0 68.554688 -1.59375 1 0 1
pepsi2_arch_concrete_stair01
0 290 -60 63 0 1 0 67.148438 -1.507812 1 0 1
0 110 -60 52 0 1 0 68.554688 -1.59375 1 0 1
0 110 -60 63 0 1 0 68.554688 -1.507812 1 0 1
pepsi2_arch_concrete_stair01
0 290 -66 52 0 -1 0 -69.007812 -1.59375 1 0 1
0 290 -66 63 0 -1 0 -69.007812 -1.507812 1 0 1
0 110 -66 63 0 -1 0 -70.414062 -1.507812 1 0 1
pepsi2_arch_concrete_stair01
0 290 -66 52 0 -1 0 -69.007812 -1.59375 1 0 1
0 110 -66 63 0 -1 0 -70.414062 -1.507812 1 0 1
0 110 -66 52 0 -1 0 -70.414062 -1.59375 1 0 1
pepsi2_arch_concrete_stair01
0 110 -66 63 0 0 1 14.65625 -67.894531 1 0 1
0 290 -66 63 0 0 1 14.65625 -66.488281 1 0 1
0 290 -60 63 0 0 1 14.609375 -66.488281 1 0 1
pepsi2_arch_concrete_stair01
0 110 -66 63 0 0 1 14.65625 -67.894531 1 0 1
0 290 -60 63 0 0 1 14.609375 -66.488281 1 0 1
0 110 -60 63 0 0 1 14.609375 -67.894531 1 0 1
pepsi2_arch_concrete_stair01
0 -56 -62 -20 0 0 1 16.144531 -68.851562 1 0 1
0 -40 -62 -20 0 0 1 16.144531 -68.726562 1 0 1
0 -40 62 -20 0 0 1 15.175781 -68.726562 1 0 1
pepsi2_arch_concrete_stair01
0 -56 -62 -20 0 0 1 16.144531 -68.851562 1 0 1
0 -40 62 -20 0 0 1 15.175781 -68.726562 1 0 1
0 -56 62 -20 0 0 1 15.175781 -68.851562 1 0 1
pepsi2_arch_concrete_stair01
0 -56 -62 -20 -1 0 0 16.144531 -2.15625 1 0 1
0 -56 62 -20 -1 0 0 15.175781 -2.15625 1 0 1
0 -56 62 -28 -1 0 0 15.175781 -2.21875 1 0 1
pepsi2_arch_concrete_stair01
0 -56 -62 -20 -1 0 0 16.144531 -2.15625 1 0 1
0 -56 62 -28 -1 0 0 15.175781 -2.21875 1 0 1
0 -56 -62 -28 -1 0 0 16.144531 -2.21875 1 0 1
pepsi2_arch_concrete_floor_smooth01
0 296 -66 -52 0 -1 0 3.523438 -66.429688 1 0 1
0 296 -66 52 0 -1 0 2.710938 -66.429688 1 0 1
0 104 -66 52 0 -1 0 2.710938 -67.929688 1 0 1
pepsi2_arch_concrete_floor_smooth01
0 296 -66 -52 0 -1 0 3.523438 -66.429688 1 0 1
0 104 -66 52 0 -1 0 2.710938 -67.929688 1 0 1
0 104 -66 -52 0 -1 0 3.523438 -67.929688 1 0 1
pepsi2_arch_stone_floor02_e
0 104 -66 52 0 0 1 15.066406 -67.851578 1 0 1
0 296 -66 52 0 0 1 15.066406 -66.351578 1 0 1
0 296 65 52 0 0 1 14.042969 -66.351578 1 0 1
pepsi2_arch_stone_floor02_e
0 104 -66 52 0 0 1 15.066406 -67.851578 1 0 1
0 296 65 52 0 0 1 14.042969 -66.351578 1 0 1
0 104 65 52 0 0 1 14.042969 -67.851578 1 0 1
pepsi2_arch_concrete_stair01
0 -24 -62 -12 -1 0 0 16.144531 -2.09375 1 0 1
0 -24 -62 -4 -1 0 0 16.144531 -2.03125 1 0 1
0 -24 62 -4 -1 0 0 15.175781 -2.03125 1 0 1
pepsi2_arch_concrete_stair01
0 -24 -62 -12 -1 0 0 16.144531 -2.09375 1 0 1
0 -24 62 -4 -1 0 0 15.175781 -2.03125 1 0 1
0 -24 62 -12 -1 0 0 15.175781 -2.09375 1 0 1
pepsi2_arch_concrete_stair01
0 -24 -62 -4 0 0 1 16.144531 -68.601562 1 0 1
0 -8 -62 -4 0 0 1 16.144531 -68.476562 1 0 1
0 -8 62 -4 0 0 1 15.175781 -68.476562 1 0 1
pepsi2_arch_concrete_stair01
0 -24 -62 -4 0 0 1 16.144531 -68.601562 1 0 1
0 -8 62 -4 0 0 1 15.175781 -68.476562 1 0 1
0 -24 62 -4 0 0 1 15.175781 -68.601562 1 0 1
pepsi2_arch_concrete_stair01
0 104 62 52 0 0 1 15.515625 -69.121094 1 0 1
0 104 65 52 0 0 1 15.492188 -69.121094 1 0 1
0 88 65 52 0 0 1 15.492188 -69.246094 1 0 1
pepsi2_arch_concrete_stair01
0 104 62 52 0 0 1 15.515625 -69.121094 1 0 1
0 88 65 52 0 0 1 15.492188 -69.246094 1 0 1
0 88 62 52 0 0 1 15.515625 -69.246094 1 0 1
pepsi2_arch_concrete_stair01
0 -104 62 -44 -0.447214 0 0.894427 15.392318 -64.883017 1 0 1
0 88 62 52 -0.447214 0 0.894427 15.392318 -63.205966 1 0 1
0 88 65 52 -0.447214 0 0.894427 15.368881 -63.205966 1 0 1
pepsi2_arch_concrete_stair01
0 -104 62 -44 -0.447214 0 0.894427 15.392318 -64.883017 1 0 1
0 88 65 52 -0.447214 0 0.894427 15.368881 -63.205966 1 0 1
0 -104 65 -44 -0.447214 0 0.894427 15.368881 -64.883017 1 0 1
pepsi2_arch_concrete_stair01
0 104 62 52 0 -1 0 -69.700493 -2.53723 1 0 1
0 88 62 52 0 -1 0 -69.825493 -2.53723 1 0 1
0 -104 62 -44 0 -1 0 -71.325493 -3.28723 1 0 1
pepsi2_arch_concrete_stair01
0 104 62 52 0 -1 0 -69.700493 -2.53723 1 0 1
0 -104 62 -44 0 -1 0 -71.325493 -3.28723 1 0 1
0 -104 62 -52 0 -1 0 -71.325493 -3.34973 1 0 1
pepsi2_arch_concrete_stair01
0 -104 62 -44 -1 0 0 14.929688 -3.277344 1 0 1
0 -104 65 -44 -1 0 0 14.90625 -3.277344 1 0 1
0 -104 65 -52 -1 0 0 14.90625 -3.339844 1 0 1
pepsi2_arch_concrete_stair01
0 -104 62 -44 -1 0 0 14.929688 -3.277344 1 0 1
0 -104 65 -52 -1 0 0 14.90625 -3.339844 1 0 1
0 -104 62 -52 -1 0 0 14.929688 -3.339844 1 0 1
pepsi2_arch_concrete_stair01
0 24 -62 12 -1 0 0 16.144531 -1.90625 1 0 1
0 24 -62 20 -1 0 0 16.144531 -1.84375 1 0 1
0 24 62 20 -1 0 0 15.175781 -1.84375 1 0 1
pepsi2_arch_concrete_stair01
0 24 -62 12 -1 0 0 16.144531 -1.90625 1 0 1
0 24 62 20 -1 0 0 15.175781 -1.84375 1 0 1
0 24 62 12 -1 0 0 15.175781 -1.90625 1 0 1
pepsi2_arch_concrete_stair01
0 24 -62 20 0 0 1 16.144531 -68.226562 1 0 1
0 40 -62 20 0 0 1 16.144531 -68.101562 1 0 1
0 40 62 20 0 0 1 15.175781 -68.101562 1 0 1
pepsi2_arch_concrete_stair01
0 24 -62 20 0 0 1 16.144531 -68.226562 1 0 1
0 40 62 20 0 0 1 15.175781 -68.101562 1 0 1
0 24 62 20 0 0 1 15.175781 -68.226562 1 0 1
pepsi2_arch_concrete_stair01
0 -88 -62 -44 -1 0 0 16.144531 -2.34375 1 0 1
0 -88 -62 -36 -1 0 0 16.144531 -2.28125 1 0 1
0 -88 62 -36 -1 0 0 15.175781 -2.28125 1 0 1
pepsi2_arch_concrete_stair01
0 -88 -62 -44 -1 0 0 16.144531 -2.34375 1 0 1
0 -88 62 -36 -1 0 0 15.175781 -2.28125 1 0 1
0 -88 62 -44 -1 0 0 15.175781 -2.34375 1 0 1
pepsi2_arch_concrete_stair01
0 -88 -62 -36 0 0 1 16.144531 -69.101562 1 0 1
0 -72 -62 -36 0 0 1 16.144531 -68.976562 1 0 1
0 -72 62 -36 0 0 1 15.175781 -68.976562 1 0 1
pepsi2_arch_concrete_stair01
0 -88 -62 -36 0 0 1 16.144531 -69.101562 1 0 1
0 -72 62 -36 0 0 1 15.175781 -68.976562 1 0 1
0 -88 62 -36 0 0 1 15.175781 -69.101562 1 0 1
metal_metalfireescape002a
0 290 -62 95 0 1 0 136.0625 -10 1 0 1
0 290 -62 63 0 1 0 136.0625 -11 1 0 1
0 110 -62 63 0 1 0 138.875 -11 1 0 1
metal_metalfireescape002a
0 290 -62 95 0 1 0 136.0625 -10 1 0 1
0 110 -62 63 0 1 0 138.875 -11 1 0 1
0 110 -62 95 0 1 0 138.875 -10 1 0 1
metal_metalfireescape002a
0 290 -64 63 0 -1 0 -136.0625 -11 1 0 1
0 290 -64 95 0 -1 0 -136.0625 -10 1 0 1
0 110 -64 95 0 -1 0 -138.875 -10 1 0 1
metal_metalfireescape002a
0 290 -64 63 0 -1 0 -136.0625 -11 1 0 1
0 110 -64 95 0 -1 0 -138.875 -10 1 0 1
0 110 -64 63 0 -1 0 -138.875 -11 1 0 1
metal_metalfireescape002a
0 110 -64 95 0 0 1 -98.907924 -44.05692 1 0 1
0 290 -64 95 0 0 1 -96.898996 -44.05692 1 0 1
0 290 -62 95 0 0 1 -96.898996 -44.012277 1 0 1
metal_metalfireescape002a
0 110 -64 95 0 0 1 -98.907924 -44.05692 1 0 1
0 290 -62 95 0 0 1 -96.898996 -44.012277 1 0 1
0 110 -62 95 0 0 1 -98.907924 -44.012277 1 0 1
pepsi2_arch_concrete_stair01
0 296 -60 95 0 1 0 67.101562 -1.257812 1 0 1
0 296 -60 52 0 1 0 67.101562 -1.59375 1 0 1
0 290 -60 52 0 1 0 67.148438 -1.59375 1 0 1
pepsi2_arch_concrete_stair01
0 296 -60 95 0 1 0 67.101562 -1.257812 1 0 1
0 290 -60 52 0 1 0 67.148438 -1.59375 1 0 1
0 290 -60 95 0 1 0 67.148438 -1.257812 1 0 1
pepsi2_arch_concrete_stair01
0 296 -66 52 0 -1 0 -68.960938 -1.59375 1 0 1
0 296 -66 95 0 -1 0 -68.960938 -1.257812 1 0 1
0 290 -66 95 0 -1 0 -69.007812 -1.257812 1 0 1
pepsi2_arch_concrete_stair01
0 296 -66 52 0 -1 0 -68.960938 -1.59375 1 0 1
0 290 -66 95 0 -1 0 -69.007812 -1.257812 1 0 1
0 290 -66 52 0 -1 0 -69.007812 -1.59375 1 0 1
pepsi2_arch_concrete_stair01
0 290 -66 52 -1 0 0 16.175781 -1.59375 1 0 1
0 290 -66 95 -1 0 0 16.175781 -1.257812 1 0 1
0 290 -60 95 -1 0 0 16.128906 -1.257812 1 0 1
pepsi2_arch_concrete_stair01
0 290 -66 52 -1 0 0 16.175781 -1.59375 1 0 1
0 290 -60 95 -1 0 0 16.128906 -1.257812 1 0 1
0 290 -60 52 -1 0 0 16.128906 -1.59375 1 0 1
pepsi2_arch_concrete_stair01
0 290 -66 95 0 0 1 16.515625 -66.488281 1 0 1
0 296 -66 95 0 0 1 16.515625 -66.441406 1 0 1
0 296 -60 95 0 0 1 16.46875 -66.441406 1 0 1
pepsi2_arch_concrete_stair01
0 290 -66 95 0 0 1 16.515625 -66.488281 1 0 1
0 296 -60 95 0 0 1 16.46875 -66.441406 1 0 1
0 290 -60 95 0 0 1 16.46875 -66.488281 1 0 1
pepsi2_arch_concrete_stair01
0 -72 -62 -36 -1 0 0 16.144531 -2.28125 1 0 1
0 -72 -62 -28 -1 0 0 16.144531 -2.21875 1 0 1
0 -72 62 -28 -1 0 0 15.175781 -2.21875 1 0 1
pepsi2_arch_concrete_stair01
0 -72 -62 -36 -1 0 0 16.144531 -2.28125 1 0 1
0 -72 62 -28 -1 0 0 15.175781 -2.21875 1 0 1
0 -72 62 -36 -1 0 0 15.175781 -2.28125 1 0 1
pepsi2_arch_concrete_stair01
0 -72 -62 -28 0 0 1 16.144531 -68.976562 1 0 1
0 -56 -62 -28 0 0 1 16.144531 -68.851562 1 0 1
0 -56 62 -28 0 0 1 15.175781 -68.851562 1 0 1
pepsi2_arch_concrete_stair01
0 -72 -62 -28 0 0 1 16.144531 -68.976562 1 0 1
0 -56 62 -28 0 0 1 15.175781 -68.851562 1 0 1
0 -72 62 -28 0 0 1 15.175781 -68.976562 1 0 1
pepsi2_arch_concrete_stair01
0 110 -60 95 0 1 0 68.554688 -1.257812 1 0 1
0 110 -60 52 0 1 0 68.554688 -1.59375 1 0 1
0 104 -60 52 0 1 0 68.601562 -1.59375 1 0 1
pepsi2_arch_concrete_stair01
0 110 -60 95 0 1 0 68.554688 -1.257812 1 0 1
0 104 -60 52 0 1 0 68.601562 -1.59375 1 0 1
0 104 -60 95 0 1 0 68.601562 -1.257812 1 0 1
pepsi2_arch_concrete_stair01
0 110 -66 52 0 -1 0 -70.414062 -1.59375 1 0 1
0 110 -66 95 0 -1 0 -70.414062 -1.257812 1 0 1
0 104 -66 95 0 -1 0 -70.460938 -1.257812 1 0 1
pepsi2_arch_concrete_stair01
0 110 -66 52 0 -1 0 -70.414062 -1.59375 1 0 1
0 104 -66 95 0 -1 0 -70.460938 -1.257812 1 0 1
0 104 -66 52 0 -1 0 -70.460938 -1.59375 1 0 1
pepsi2_arch_concrete_stair01
0 104 -66 52 -1 0 0 16.175781 -1.59375 1 0 1
0 104 -66 95 -1 0 0 16.175781 -1.257812 1 0 1
0 104 -60 95 -1 0 0 16.128906 -1.257812 1 0 1
pepsi2_arch_concrete_stair01
0 104 -66 52 -1 0 0 16.175781 -1.59375 1 0 1
0 104 -60 95 -1 0 0 16.128906 -1.257812 1 0 1
0 104 -60 52 -1 0 0 16.128906 -1.59375 1 0 1
pepsi2_arch_concrete_stair01
0 110 -66 95 1 0 0 -16.175781 -1.257812 1 0 1
0 110 -66 52 1 0 0 -16.175781 -1.59375 1 0 1
0 110 -60 52 1 0 0 -16.128906 -1.59375 1 0 1
pepsi2_arch_concrete_stair01
0 110 -66 95 1 0 0 -16.175781 -1.257812 1 0 1
0 110 -60 52 1 0 0 -16.128906 -1.59375 1 0 1
0 110 -60 95 1 0 0 -16.128906 -1.257812 1 0 1
pepsi2_arch_concrete_stair01
0 104 -66 95 0 0 1 16.515625 -67.941406 1 0 1
0 110 -66 95 0 0 1 16.515625 -67.894531 1 0 1
0 110 -60 95 0 0 1 16.46875 -67.894531 1 0 1
pepsi2_arch_concrete_stair01
0 104 -66 95 0 0 1 16.515625 -67.941406 1 0 1
0 110 -60 95 0 0 1 16.46875 -67.894531 1 0 1
0 104 -60 95 0 0 1 16.46875 -67.941406 1 0 1
pepsi2_arch_concrete_stair01
0 96 102 52 0 1 0 70.523438 -1.59375 1 0 1
0 64 102 52 0 1 0 70.773438 -1.59375 1 0 1
0 64 102 95 0 1 0 70.773438 -1.257812 1 0 1
pepsi2_arch_concrete_stair01
0 96 102 52 0 1 0 70.523438 -1.59375 1 0 1
0 64 102 95 0 1 0 70.773438 -1.257812 1 0 1
0 96 102 95 0 1 0 70.523438 -1.257812 1 0 1
pepsi2_arch_concrete_stair01
0 104 66 52 0 -1 0 -70.460938 -1.59375 1 0 1
0 104 66 95 0 -1 0 -70.460938 -1.257812 1 0 1
0 56 66 95 0 -1 0 -70.835938 -1.257812 1 0 1
pepsi2_arch_concrete_stair01
0 104 66 52 0 -1 0 -70.460938 -1.59375 1 0 1
0 56 66 95 0 -1 0 -70.835938 -1.257812 1 0 1
0 56 66 52 0 -1 0 -70.835938 -1.59375 1 0 1
pepsi2_arch_concrete_stair01
0 56 66 52 -1 0 0 15.144531 -1.59375 1 0 1
0 56 66 95 -1 0 0 15.144531 -1.257812 1 0 1
0 56 94 95 -1 0 0 14.925781 -1.257812 1 0 1
pepsi2_arch_concrete_stair01
0 56 66 52 -1 0 0 15.144531 -1.59375 1 0 1
0 56 94 95 -1 0 0 14.925781 -1.257812 1 0 1
0 56 94 52 -1 0 0 14.925781 -1.59375 1 0 1
pepsi2_arch_concrete_stair01
0 104 66 95 1 0 0 -15.144531 -1.257812 1 0 1
0 104 66 52 1 0 0 -15.144531 -1.59375 1 0 1
0 104 94 52 1 0 0 -14.925781 -1.59375 1 0 1
pepsi2_arch_concrete_stair01
0 104 66 95 1 0 0 -15.144531 -1.257812 1 0 1
0 104 94 52 1 0 0 -14.925781 -1.59375 1 0 1
0 104 94 95 1 0 0 -14.925781 -1.257812 1 0 1
pepsi2_arch_concrete_floor_smooth01
0 56 66 95 0 0 1 69.867188 15.742188 1 0 1
0 104 66 95 0 0 1 69.492188 15.742188 1 0 1
0 104 94 95 0 0 1 69.492188 15.523438 1 0 1
pepsi2_arch_concrete_floor_smooth01
0 56 66 95 0 0 1 69.867188 15.742188 1 0 1
0 104 94 95 0 0 1 69.492188 15.523438 1 0 1
0 96 102 95 0 0 1 69.554688 15.460938 1 0 1
pepsi2_arch_concrete_floor_smooth01
0 56 66 95 0 0 1 69.867188 15.742188 1 0 1
0 96 102 95 0 0 1 69.554688 15.460938 1 0 1
0 64 102 95 0 0 1 69.804688 15.460938 1 0 1
pepsi2_arch_concrete_floor_smooth01
0 56 66 95 0 0 1 69.867188 15.742188 1 0 1
0 64 102 95 0 0 1 69.804688 15.460938 1 0 1
0 56 94 95 0 0 1 69.867188 15.523438 1 0 1
pepsi2_arch_concrete_stair01
0 56 94 52 -0.707107 0.707107 0 60.303387 -1.59375 1 0 1
0 56 94 95 -0.707107 0.707107 0 60.303387 -1.257812 1 0 1
0 64 102 95 -0.707107 0.707107 0 60.214999 -1.257812 1 0 1
pepsi2_arch_concrete_stair01
0 56 94 52 -0.707107 0.707107 0 60.303387 -1.59375 1 0 1
0 64 102 95 -0.707107 0.707107 0 60.214999 -1.257812 1 0 1
0 64 102 52 -0.707107 0.707107 0 60.214999 -1.59375 1 0 1
pepsi2_arch_concrete_stair01
0 104 94 95 0.707107 0.707107 0 39.638943 -1.257812 1 0 1
0 104 94 52 0.707107 0.707107 0 39.638943 -1.59375 1 0 1
0 96 102 52 0.707107 0.707107 0 39.727331 -1.59375 1 0 1
pepsi2_arch_concrete_stair01
0 104 94 95 0.707107 0.707107 0 39.638943 -1.257812 1 0 1
0 96 102 52 0.707107 0.707107 0 39.727331 -1.59375 1 0 1
0 96 102 95 0.707107 0.707107 0 39.727331 -1.257812 1 0 1
pepsi2_arch_concrete_floor_smooth01
0 104 -66 -52 0 -1 0 3.523438 -67.929688 1 0 1
0 104 -66 52 0 -1 0 2.710938 -67.929688 1 0 1
0 -104 -66 -52 0 -1 0 3.523438 -69.554688 1 0 1
pepsi2_arch_concrete_stair01
0 40 -62 20 -1 0 0 16.144531 -1.84375 1 0 1
0 40 -62 28 -1 0 0 16.144531 -1.78125 1 0 1
0 40 62 28 -1 0 0 15.175781 -1.78125 1 0 1
pepsi2_arch_concrete_stair01
0 40 -62 20 -1 0 0 16.144531 -1.84375 1 0 1
0 40 62 28 -1 0 0 15.175781 -1.78125 1 0 1
0 40 62 20 -1 0 0 15.175781 -1.84375 1 0 1
pepsi2_arch_concrete_stair01
0 40 -62 28 0 0 1 14.964844 -68.101562 1 0 1
0 56 -62 28 0 0 1 14.964844 -67.976562 1 0 1
0 56 62 28 0 0 1 13.996094 -67.976562 1 0 1
pepsi2_arch_concrete_stair01
0 40 -62 28 0 0 1 14.964844 -68.101562 1 0 1
0 56 62 28 0 0 1 13.996094 -67.976562 1 0 1
0 40 62 28 0 0 1 13.996094 -68.101562 1 0 1
pepsi2_arch_concrete_stair01
0 -40 -62 -20 -1 0 0 16.144531 -2.15625 1 0 1
0 -40 -62 -12 -1 0 0 16.144531 -2.09375 1 0 1
0 -40 62 -12 -1 0 0 15.175781 -2.09375 1 0 1
pepsi2_arch_concrete_stair01
0 -40 -62 -20 -1 0 0 16.144531 -2.15625 1 0 1
0 -40 62 -12 -1 0 0 15.175781 -2.09375 1 0 1
0 -40 62 -20 -1 0 0 15.175781 -2.15625 1 0 1
pepsi2_arch_concrete_stair01
0 -40 -62 -12 0 0 1 16.144531 -68.726562 1 0 1
0 -24 -62 -12 0 0 1 16.144531 -68.601562 1 0 1
0 -24 62 -12 0 0 1 15.175781 -68.601562 1 0 1
pepsi2_arch_concrete_stair01
0 -40 -62 -12 0 0 1 16.144531 -68.726562 1 0 1
0 -24 62 -12 0 0 1 15.175781 -68.601562 1 0 1
0 -40 62 -12 0 0 1 15.175781 -68.726562 1 0 1
pepsi2_arch_concrete_stair01
0 104 -66 52 0 0 1 16.515625 -69.121094 1 0 1
0 104 -62 52 0 0 1 16.484375 -69.121094 1 0 1
0 88 -62 52 0 0 1 16.484375 -69.246094 1 0 1
pepsi2_arch_concrete_stair01
0 104 -66 52 0 0 1 16.515625 -69.121094 1 0 1
0 88 -62 52 0 0 1 16.484375 -69.246094 1 0 1
0 88 -66 52 0 0 1 16.515625 -69.246094 1 0 1
pepsi2_arch_concrete_stair01
0 88 -66 52 -0.447214 0 0.894427 16.392318 -63.205966 1 0 1
0 88 -62 52 -0.447214 0 0.894427 16.361068 -63.205966 1 0 1
0 -104 -62 -44 -0.447214 0 0.894427 16.361068 -64.883017 1 0 1
pepsi2_arch_concrete_stair01
0 88 -66 52 -0.447214 0 0.894427 16.392318 -63.205966 1 0 1
0 -104 -62 -44 -0.447214 0 0.894427 16.361068 -64.883017 1 0 1
0 -104 -66 -44 -0.447214 0 0.894427 16.392318 -64.883017 1 0 1
pepsi2_arch_concrete_stair01
0 -104 -62 -52 0 1 0 70.987007 -3.34973 1 0 1
0 -104 -62 -44 0 1 0 70.987007 -3.28723 1 0 1
0 88 -62 52 0 1 0 69.487007 -2.53723 1 0 1
pepsi2_arch_concrete_stair01
0 -104 -62 -52 0 1 0 70.987007 -3.34973 1 0 1
0 88 -62 52 0 1 0 69.487007 -2.53723 1 0 1
0 104 -62 52 0 1 0 69.362007 -2.53723 1 0 1
pepsi2_arch_concrete_stair01
0 104 -66 52 0 -1 0 -69.700493 -2.53723 1 0 1
0 88 -66 52 0 -1 0 -69.825493 -2.53723 1 0 1
0 -104 -66 -44 0 -1 0 -71.325493 -3.28723 1 0 1
pepsi2_arch_concrete_stair01
0 104 -66 52 0 -1 0 -69.700493 -2.53723 1 0 1
0 -104 -66 -44 0 -1 0 -71.325493 -3.28723 1 0 1
0 -104 -66 -52 0 -1 0 -71.325493 -3.34973 1 0 1
pepsi2_arch_concrete_stair01
0 -8 -62 4 0 0 1 16.144531 -68.476562 1 0 1
0 8 -62 4 0 0 1 16.144531 -68.351562 1 0 1
0 8 62 4 0 0 1 15.175781 -68.351562 1 0 1
pepsi2_arch_concrete_stair01
0 -8 -62 4 0 0 1 16.144531 -68.476562 1 0 1
0 8 62 4 0 0 1 15.175781 -68.351562 1 0 1
0 -8 62 4 0 0 1 15.175781 -68.476562 1 0 1
pepsi2_arch_concrete_stair01
0 -8 -62 4 -1 0 0 16.144531 -1.96875 1 0 1
0 -8 62 4 -1 0 0 15.175781 -1.96875 1 0 1
0 -8 62 -4 -1 0 0 15.175781 -2.03125 1 0 1
pepsi2_arch_concrete_stair01
0 -8 -62 4 -1 0 0 16.144531 -1.96875 1 0 1
0 -8 62 -4 -1 0 0 15.175781 -2.03125 1 0 1
0 -8 -62 -4 -1 0 0 16.144531 -2.03125 1 0 1
pepsi2_arch_concrete_stair01
0 56 -62 36 0 0 1 14.964844 -67.976562 1 0 1
0 72 -62 36 0 0 1 14.964844 -67.851562 1 0 1
0 72 62 36 0 0 1 13.996094 -67.851562 1 0 1
pepsi2_arch_concrete_stair01
0 56 -62 36 0 0 1 14.964844 -67.976562 1 0 1
0 72 62 36 0 0 1 13.996094 -67.851562 1 0 1
0 56 62 36 0 0 1 13.996094 -67.976562 1 0 1
pepsi2_arch_concrete_stair01
0 56 -62 36 -1 0 0 14.964844 -1.71875 1 0 1
0 56 62 36 -1 0 0 13.996094 -1.71875 1 0 1
0 56 62 28 -1 0 0 13.996094 -1.78125 1 0 1
pepsi2_arch_concrete_stair01
0 56 -62 36 -1 0 0 14.964844 -1.71875 1 0 1
0 56 62 28 -1 0 0 13.996094 -1.78125 1 0 1
0 56 -62 28 -1 0 0 14.964844 -1.78125 1 0 1
pepsi2_arch_concrete_stair01
0 88 -62 44 -1 0 0 14.964844 -1.65625 1 0 1
0 88 -62 52 -1 0 0 14.964844 -1.59375 1 0 1
0 88 62 52 -1 0 0 13.996094 -1.59375 1 0 1
pepsi2_arch_concrete_stair01
0 88 -62 44 -1 0 0 14.964844 -1.65625 1 0 1
0 88 62 52 -1 0 0 13.996094 -1.59375 1 0 1
0 88 62 44 -1 0 0 13.996094 -1.65625 1 0 1
pepsi2_arch_concrete_stair01
0 88 -62 52 0 0 1 14.964844 -67.726562 1 0 1
0 104 -62 52 0 0 1 14.964844 -67.601562 1 0 1
0 104 62 52 0 0 1 13.996094 -67.601562 1 0 1
pepsi2_arch_concrete_stair01
0 88 -62 52 0 0 1 14.964844 -67.726562 1 0 1
0 104 62 52 0 0 1 13.996094 -67.601562 1 0 1
0 88 62 52 0 0 1 13.996094 -67.726562 1 0 1
end
