version 1
nodes
0 "root" -1
end
skeleton
time 0
0 0 0 0 0 0 0
end
triangles
phys
0 -125 375 -123.004 0 0 1 1 0 1 0 1
0 -125 375 -114 0 0 1 1 0 1 0 1
0 -110 375 -114 0 0 1 1 0 1 0 1
phys
0 -110 231 -114 0 0 1 1 0 1 0 1
0 -125 231 -114 0 0 1 1 0 1 0 1
0 -125 231 -123.004 0 0 1 1 0 1 0 1
phys
0 -125 231 -123.004 0 0 1 1 0 1 0 1
0 -125 231 -114 0 0 1 1 0 1 0 1
0 -125 375 -114 0 0 1 1 0 1 0 1
phys
0 -125 231 -123.004 0 0 1 1 0 1 0 1
0 -125 375 -114 0 0 1 1 0 1 0 1
0 -125 375 -123.004 0 0 1 1 0 1 0 1
phys
0 -125 231 -114 0 0 1 1 0 1 0 1
0 -110 231 -114 0 0 1 1 0 1 0 1
0 -110 375 -114 0 0 1 1 0 1 0 1
phys
0 -125 231 -114 0 0 1 1 0 1 0 1
0 -110 375 -114 0 0 1 1 0 1 0 1
0 -125 375 -114 0 0 1 1 0 1 0 1
phys
0 -110 231 -114 0 0 1 1 0 1 0 1
0 -125 231 -123.004 0 0 1 1 0 1 0 1
0 -125 375 -123.004 0 0 1 1 0 1 0 1
phys
0 -110 231 -114 0 0 1 1 0 1 0 1
0 -125 375 -123.004 0 0 1 1 0 1 0 1
0 -110 375 -114 0 0 1 1 0 1 0 1
phys
0 138 -66 -33 0 0 1 2 0 1 0 1
0 138 -66 -42 0 0 1 2 0 1 0 1
0 -6 -66 -42 0 0 1 2 0 1 0 1
phys
0 138 -66 -33 0 0 1 2 0 1 0 1
0 -6 -66 -42 0 0 1 2 0 1 0 1
0 -6 -66 -33 0 0 1 2 0 1 0 1
phys
0 -6 -81 -33 0 0 1 2 0 1 0 1
0 -6 -66 -33 0 0 1 2 0 1 0 1
0 -6 -66 -42 0 0 1 2 0 1 0 1
phys
0 138 -66 -42 0 0 1 2 0 1 0 1
0 138 -66 -33 0 0 1 2 0 1 0 1
0 138 -81 -33 0 0 1 2 0 1 0 1
phys
0 138 -81 -33 0 0 1 2 0 1 0 1
0 138 -66 -33 0 0 1 2 0 1 0 1
0 -6 -66 -33 0 0 1 2 0 1 0 1
phys
0 138 -81 -33 0 0 1 2 0 1 0 1
0 -6 -66 -33 0 0 1 2 0 1 0 1
0 -6 -81 -33 0 0 1 2 0 1 0 1
phys
0 -6 -81 -33 0 0 1 2 0 1 0 1
0 -6 -66 -42 0 0 1 2 0 1 0 1
0 138 -66 -42 0 0 1 2 0 1 0 1
phys
0 -6 -81 -33 0 0 1 2 0 1 0 1
0 138 -66 -42 0 0 1 2 0 1 0 1
0 138 -81 -33 0 0 1 2 0 1 0 1
phys
0 -65 231 -78 0 0 1 3 0 1 0 1
0 -50 231 -78 0 0 1 3 0 1 0 1
0 -50 375 -78 0 0 1 3 0 1 0 1
phys
0 -65 231 -78 0 0 1 3 0 1 0 1
0 -50 375 -78 0 0 1 3 0 1 0 1
0 -65 375 -78 0 0 1 3 0 1 0 1
phys
0 -65 375 -87.004 0 0 1 3 0 1 0 1
0 -50 375 -78 0 0 1 3 0 1 0 1
0 -50 231 -78 0 0 1 3 0 1 0 1
phys
0 -65 375 -87.004 0 0 1 3 0 1 0 1
0 -50 231 -78 0 0 1 3 0 1 0 1
0 -65 231 -87.004 0 0 1 3 0 1 0 1
phys
0 -65 375 -78 0 0 1 3 0 1 0 1
0 -50 375 -78 0 0 1 3 0 1 0 1
0 -65 375 -87.004 0 0 1 3 0 1 0 1
phys
0 -50 231 -78 0 0 1 3 0 1 0 1
0 -65 231 -78 0 0 1 3 0 1 0 1
0 -65 231 -87.004 0 0 1 3 0 1 0 1
phys
0 -65 231 -78 0 0 1 3 0 1 0 1
0 -65 375 -78 0 0 1 3 0 1 0 1
0 -65 375 -87.004 0 0 1 3 0 1 0 1
phys
0 -65 231 -78 0 0 1 3 0 1 0 1
0 -65 375 -87.004 0 0 1 3 0 1 0 1
0 -65 231 -87.004 0 0 1 3 0 1 0 1
phys
0 -155 231 -141 0 0 1 4 0 1 0 1
0 -170 231 -150.004 0 0 1 4 0 1 0 1
0 -170 375 -150.004 0 0 1 4 0 1 0 1
phys
0 -155 231 -141 0 0 1 4 0 1 0 1
0 -170 375 -150.004 0 0 1 4 0 1 0 1
0 -155 375 -141 0 0 1 4 0 1 0 1
phys
0 -155 375 -141 0 0 1 4 0 1 0 1
0 -170 375 -150.004 0 0 1 4 0 1 0 1
0 -170 375 -141 0 0 1 4 0 1 0 1
phys
0 -170 231 -141 0 0 1 4 0 1 0 1
0 -170 231 -150.004 0 0 1 4 0 1 0 1
0 -155 231 -141 0 0 1 4 0 1 0 1
phys
0 -170 375 -141 0 0 1 4 0 1 0 1
0 -170 375 -150.004 0 0 1 4 0 1 0 1
0 -170 231 -150.004 0 0 1 4 0 1 0 1
phys
0 -170 375 -141 0 0 1 4 0 1 0 1
0 -170 231 -150.004 0 0 1 4 0 1 0 1
0 -170 231 -141 0 0 1 4 0 1 0 1
phys
0 -170 231 -141 0 0 1 4 0 1 0 1
0 -155 231 -141 0 0 1 4 0 1 0 1
0 -155 375 -141 0 0 1 4 0 1 0 1
phys
0 -170 231 -141 0 0 1 4 0 1 0 1
0 -155 375 -141 0 0 1 4 0 1 0 1
0 -170 375 -141 0 0 1 4 0 1 0 1
phys
0 6 -6 -78 0 0 1 5 0 1 0 1
0 6 6 -78 0 0 1 5 0 1 0 1
0 6 6 78 0 0 1 5 0 1 0 1
phys
0 6 -6 -78 0 0 1 5 0 1 0 1
0 6 6 78 0 0 1 5 0 1 0 1
0 6 -6 78 0 0 1 5 0 1 0 1
phys
0 -6 6 -78 0 0 1 5 0 1 0 1
0 6 6 -78 0 0 1 5 0 1 0 1
0 6 -6 -78 0 0 1 5 0 1 0 1
phys
0 -6 6 -78 0 0 1 5 0 1 0 1
0 6 -6 -78 0 0 1 5 0 1 0 1
0 -6 -6 -78 0 0 1 5 0 1 0 1
phys
0 -6 -6 78 0 0 1 5 0 1 0 1
0 6 -6 78 0 0 1 5 0 1 0 1
0 6 6 78 0 0 1 5 0 1 0 1
phys
0 -6 -6 78 0 0 1 5 0 1 0 1
0 6 6 78 0 0 1 5 0 1 0 1
0 -6 6 78 0 0 1 5 0 1 0 1
phys
0 6 6 78 0 0 1 5 0 1 0 1
0 6 6 -78 0 0 1 5 0 1 0 1
0 -6 6 -78 0 0 1 5 0 1 0 1
phys
0 6 6 78 0 0 1 5 0 1 0 1
0 -6 6 -78 0 0 1 5 0 1 0 1
0 -6 6 78 0 0 1 5 0 1 0 1
phys
0 6 -6 -78 0 0 1 5 0 1 0 1
0 6 -6 78 0 0 1 5 0 1 0 1
0 -6 -6 78 0 0 1 5 0 1 0 1
phys
0 6 -6 -78 0 0 1 5 0 1 0 1
0 -6 -6 78 0 0 1 5 0 1 0 1
0 -6 -6 -78 0 0 1 5 0 1 0 1
phys
0 -6 -6 78 0 0 1 5 0 1 0 1
0 -6 6 78 0 0 1 5 0 1 0 1
0 -6 6 -78 0 0 1 5 0 1 0 1
phys
0 -6 -6 78 0 0 1 5 0 1 0 1
0 -6 6 -78 0 0 1 5 0 1 0 1
0 -6 -6 -78 0 0 1 5 0 1 0 1
phys
0 -80 375 -96.004 0 0 1 6 0 1 0 1
0 -80 375 -87 0 0 1 6 0 1 0 1
0 -65 375 -87 0 0 1 6 0 1 0 1
phys
0 -65 231 -87 0 0 1 6 0 1 0 1
0 -80 231 -87 0 0 1 6 0 1 0 1
0 -80 231 -96.004 0 0 1 6 0 1 0 1
phys
0 -80 231 -96.004 0 0 1 6 0 1 0 1
0 -80 231 -87 0 0 1 6 0 1 0 1
0 -80 375 -87 0 0 1 6 0 1 0 1
phys
0 -80 231 -96.004 0 0 1 6 0 1 0 1
0 -80 375 -87 0 0 1 6 0 1 0 1
0 -80 375 -96.004 0 0 1 6 0 1 0 1
phys
0 -80 231 -87 0 0 1 6 0 1 0 1
0 -65 231 -87 0 0 1 6 0 1 0 1
0 -65 375 -87 0 0 1 6 0 1 0 1
phys
0 -80 231 -87 0 0 1 6 0 1 0 1
0 -65 375 -87 0 0 1 6 0 1 0 1
0 -80 375 -87 0 0 1 6 0 1 0 1
phys
0 -65 231 -87 0 0 1 6 0 1 0 1
0 -80 231 -96.004 0 0 1 6 0 1 0 1
0 -80 375 -96.004 0 0 1 6 0 1 0 1
phys
0 -65 231 -87 0 0 1 6 0 1 0 1
0 -80 375 -96.004 0 0 1 6 0 1 0 1
0 -65 375 -87 0 0 1 6 0 1 0 1
phys
0 138 -36 -51 0 0 1 7 0 1 0 1
0 138 -36 -60 0 0 1 7 0 1 0 1
0 -6 -36 -60 0 0 1 7 0 1 0 1
phys
0 138 -36 -51 0 0 1 7 0 1 0 1
0 -6 -36 -60 0 0 1 7 0 1 0 1
0 -6 -36 -51 0 0 1 7 0 1 0 1
phys
0 -6 -51 -51 0 0 1 7 0 1 0 1
0 -6 -36 -51 0 0 1 7 0 1 0 1
0 -6 -36 -60 0 0 1 7 0 1 0 1
phys
0 138 -36 -60 0 0 1 7 0 1 0 1
0 138 -36 -51 0 0 1 7 0 1 0 1
0 138 -51 -51 0 0 1 7 0 1 0 1
phys
0 138 -51 -51 0 0 1 7 0 1 0 1
0 138 -36 -51 0 0 1 7 0 1 0 1
0 -6 -36 -51 0 0 1 7 0 1 0 1
phys
0 138 -51 -51 0 0 1 7 0 1 0 1
0 -6 -36 -51 0 0 1 7 0 1 0 1
0 -6 -51 -51 0 0 1 7 0 1 0 1
phys
0 -6 -51 -51 0 0 1 7 0 1 0 1
0 -6 -36 -60 0 0 1 7 0 1 0 1
0 138 -36 -60 0 0 1 7 0 1 0 1
phys
0 -6 -51 -51 0 0 1 7 0 1 0 1
0 138 -36 -60 0 0 1 7 0 1 0 1
0 138 -51 -51 0 0 1 7 0 1 0 1
phys
0 330 285 48 0 0 1 8 0 1 0 1
0 330 285 -48 0 0 1 8 0 1 0 1
0 234 285 -48 0 0 1 8 0 1 0 1
phys
0 330 285 48 0 0 1 8 0 1 0 1
0 234 285 -48 0 0 1 8 0 1 0 1
0 234 285 48 0 0 1 8 0 1 0 1
phys
0 330 284 -48 0 0 1 8 0 1 0 1
0 330 284 48 0 0 1 8 0 1 0 1
0 234 284 48 0 0 1 8 0 1 0 1
phys
0 330 284 -48 0 0 1 8 0 1 0 1
0 234 284 48 0 0 1 8 0 1 0 1
0 234 284 -48 0 0 1 8 0 1 0 1
phys
0 234 284 -48 0 0 1 8 0 1 0 1
0 234 284 48 0 0 1 8 0 1 0 1
0 234 285 48 0 0 1 8 0 1 0 1
phys
0 234 284 -48 0 0 1 8 0 1 0 1
0 234 285 48 0 0 1 8 0 1 0 1
0 234 285 -48 0 0 1 8 0 1 0 1
phys
0 330 284 48 0 0 1 8 0 1 0 1
0 330 284 -48 0 0 1 8 0 1 0 1
0 330 285 -48 0 0 1 8 0 1 0 1
phys
0 330 284 48 0 0 1 8 0 1 0 1
0 330 285 -48 0 0 1 8 0 1 0 1
0 330 285 48 0 0 1 8 0 1 0 1
phys
0 330 284 -48 0 0 1 8 0 1 0 1
0 234 284 -48 0 0 1 8 0 1 0 1
0 234 285 -48 0 0 1 8 0 1 0 1
phys
0 330 284 -48 0 0 1 8 0 1 0 1
0 234 285 -48 0 0 1 8 0 1 0 1
0 330 285 -48 0 0 1 8 0 1 0 1
phys
0 234 284 48 0 0 1 8 0 1 0 1
0 330 284 48 0 0 1 8 0 1 0 1
0 330 285 48 0 0 1 8 0 1 0 1
phys
0 234 284 48 0 0 1 8 0 1 0 1
0 330 285 48 0 0 1 8 0 1 0 1
0 234 285 48 0 0 1 8 0 1 0 1
phys
0 138 -81 -24 0 0 1 9 0 1 0 1
0 138 -81 -33 0 0 1 9 0 1 0 1
0 -6 -81 -33 0 0 1 9 0 1 0 1
phys
0 138 -81 -24 0 0 1 9 0 1 0 1
0 -6 -81 -33 0 0 1 9 0 1 0 1
0 -6 -81 -24 0 0 1 9 0 1 0 1
phys
0 -6 -96 -24 0 0 1 9 0 1 0 1
0 -6 -81 -24 0 0 1 9 0 1 0 1
0 -6 -81 -33 0 0 1 9 0 1 0 1
phys
0 138 -81 -33 0 0 1 9 0 1 0 1
0 138 -81 -24 0 0 1 9 0 1 0 1
0 138 -96 -24 0 0 1 9 0 1 0 1
phys
0 138 -96 -24 0 0 1 9 0 1 0 1
0 138 -81 -24 0 0 1 9 0 1 0 1
0 -6 -81 -24 0 0 1 9 0 1 0 1
phys
0 138 -96 -24 0 0 1 9 0 1 0 1
0 -6 -81 -24 0 0 1 9 0 1 0 1
0 -6 -96 -24 0 0 1 9 0 1 0 1
phys
0 -6 -96 -24 0 0 1 9 0 1 0 1
0 -6 -81 -33 0 0 1 9 0 1 0 1
0 138 -81 -33 0 0 1 9 0 1 0 1
phys
0 -6 -96 -24 0 0 1 9 0 1 0 1
0 138 -81 -33 0 0 1 9 0 1 0 1
0 138 -96 -24 0 0 1 9 0 1 0 1
phys
0 -95 375 -104.999 0 0 1 10 0 1 0 1
0 -95 375 -96 0 0 1 10 0 1 0 1
0 -80 375 -96 0 0 1 10 0 1 0 1
phys
0 -80 231 -96 0 0 1 10 0 1 0 1
0 -95 231 -96 0 0 1 10 0 1 0 1
0 -95 231 -104.999 0 0 1 10 0 1 0 1
phys
0 -95 231 -104.999 0 0 1 10 0 1 0 1
0 -95 231 -96 0 0 1 10 0 1 0 1
0 -95 375 -96 0 0 1 10 0 1 0 1
phys
0 -95 231 -104.999 0 0 1 10 0 1 0 1
0 -95 375 -96 0 0 1 10 0 1 0 1
0 -95 375 -104.999 0 0 1 10 0 1 0 1
phys
0 -95 231 -96 0 0 1 10 0 1 0 1
0 -80 231 -96 0 0 1 10 0 1 0 1
0 -80 375 -96 0 0 1 10 0 1 0 1
phys
0 -95 231 -96 0 0 1 10 0 1 0 1
0 -80 375 -96 0 0 1 10 0 1 0 1
0 -95 375 -96 0 0 1 10 0 1 0 1
phys
0 -80 231 -96 0 0 1 10 0 1 0 1
0 -95 231 -104.999 0 0 1 10 0 1 0 1
0 -95 375 -104.999 0 0 1 10 0 1 0 1
phys
0 -80 231 -96 0 0 1 10 0 1 0 1
0 -95 375 -104.999 0 0 1 10 0 1 0 1
0 -80 375 -96 0 0 1 10 0 1 0 1
phys
0 -6 375 78 0 0 1 11 0 1 0 1
0 -6 375 -78 0 0 1 11 0 1 0 1
0 -18 375 -78 0 0 1 11 0 1 0 1
phys
0 -6 375 78 0 0 1 11 0 1 0 1
0 -18 375 -78 0 0 1 11 0 1 0 1
0 -18 375 78 0 0 1 11 0 1 0 1
phys
0 -6 363 -78 0 0 1 11 0 1 0 1
0 -6 363 78 0 0 1 11 0 1 0 1
0 -18 363 78 0 0 1 11 0 1 0 1
phys
0 -6 363 -78 0 0 1 11 0 1 0 1
0 -18 363 78 0 0 1 11 0 1 0 1
0 -18 363 -78 0 0 1 11 0 1 0 1
phys
0 -18 363 -78 0 0 1 11 0 1 0 1
0 -18 363 78 0 0 1 11 0 1 0 1
0 -18 375 78 0 0 1 11 0 1 0 1
phys
0 -18 363 -78 0 0 1 11 0 1 0 1
0 -18 375 78 0 0 1 11 0 1 0 1
0 -18 375 -78 0 0 1 11 0 1 0 1
phys
0 -6 363 78 0 0 1 11 0 1 0 1
0 -6 363 -78 0 0 1 11 0 1 0 1
0 -6 375 -78 0 0 1 11 0 1 0 1
phys
0 -6 363 78 0 0 1 11 0 1 0 1
0 -6 375 -78 0 0 1 11 0 1 0 1
0 -6 375 78 0 0 1 11 0 1 0 1
phys
0 -6 363 -78 0 0 1 11 0 1 0 1
0 -18 363 -78 0 0 1 11 0 1 0 1
0 -18 375 -78 0 0 1 11 0 1 0 1
phys
0 -6 363 -78 0 0 1 11 0 1 0 1
0 -18 375 -78 0 0 1 11 0 1 0 1
0 -6 375 -78 0 0 1 11 0 1 0 1
phys
0 -18 363 78 0 0 1 11 0 1 0 1
0 -6 363 78 0 0 1 11 0 1 0 1
0 -6 375 78 0 0 1 11 0 1 0 1
phys
0 -18 363 78 0 0 1 11 0 1 0 1
0 -6 375 78 0 0 1 11 0 1 0 1
0 -18 375 78 0 0 1 11 0 1 0 1
phys
0 -215 375 -177.004 0 0 1 12 0 1 0 1
0 -215 375 -168 0 0 1 12 0 1 0 1
0 -200 375 -168 0 0 1 12 0 1 0 1
phys
0 -200 231 -168 0 0 1 12 0 1 0 1
0 -215 231 -168 0 0 1 12 0 1 0 1
0 -215 231 -177.004 0 0 1 12 0 1 0 1
phys
0 -215 231 -177.004 0 0 1 12 0 1 0 1
0 -215 231 -168 0 0 1 12 0 1 0 1
0 -215 375 -168 0 0 1 12 0 1 0 1
phys
0 -215 231 -177.004 0 0 1 12 0 1 0 1
0 -215 375 -168 0 0 1 12 0 1 0 1
0 -215 375 -177.004 0 0 1 12 0 1 0 1
phys
0 -215 231 -168 0 0 1 12 0 1 0 1
0 -200 231 -168 0 0 1 12 0 1 0 1
0 -200 375 -168 0 0 1 12 0 1 0 1
phys
0 -215 231 -168 0 0 1 12 0 1 0 1
0 -200 375 -168 0 0 1 12 0 1 0 1
0 -215 375 -168 0 0 1 12 0 1 0 1
phys
0 -200 231 -168 0 0 1 12 0 1 0 1
0 -215 231 -177.004 0 0 1 12 0 1 0 1
0 -215 375 -177.004 0 0 1 12 0 1 0 1
phys
0 -200 231 -168 0 0 1 12 0 1 0 1
0 -215 375 -177.004 0 0 1 12 0 1 0 1
0 -200 375 -168 0 0 1 12 0 1 0 1
phys
0 332 287 -50 0 0 1 13 0 1 0 1
0 232 287 -50 0 0 1 13 0 1 0 1
0 234 287 -48 0 0 1 13 0 1 0 1
phys
0 332 287 -50 0 0 1 13 0 1 0 1
0 234 287 -48 0 0 1 13 0 1 0 1
0 330 287 -48 0 0 1 13 0 1 0 1
phys
0 330 284 -48 0 0 1 13 0 1 0 1
0 234 284 -48 0 0 1 13 0 1 0 1
0 232 284 -50 0 0 1 13 0 1 0 1
phys
0 330 284 -48 0 0 1 13 0 1 0 1
0 232 284 -50 0 0 1 13 0 1 0 1
0 332 284 -50 0 0 1 13 0 1 0 1
phys
0 332 284 -50 0 0 1 13 0 1 0 1
0 232 284 -50 0 0 1 13 0 1 0 1
0 232 287 -50 0 0 1 13 0 1 0 1
phys
0 332 284 -50 0 0 1 13 0 1 0 1
0 232 287 -50 0 0 1 13 0 1 0 1
0 332 287 -50 0 0 1 13 0 1 0 1
phys
0 234 284 -48 0 0 1 13 0 1 0 1
0 330 284 -48 0 0 1 13 0 1 0 1
0 330 287 -48 0 0 1 13 0 1 0 1
phys
0 234 284 -48 0 0 1 13 0 1 0 1
0 330 287 -48 0 0 1 13 0 1 0 1
0 234 287 -48 0 0 1 13 0 1 0 1
phys
0 232 284 -50 0 0 1 13 0 1 0 1
0 234 284 -48 0 0 1 13 0 1 0 1
0 234 287 -48 0 0 1 13 0 1 0 1
phys
0 232 284 -50 0 0 1 13 0 1 0 1
0 234 287 -48 0 0 1 13 0 1 0 1
0 232 287 -50 0 0 1 13 0 1 0 1
phys
0 330 284 -48 0 0 1 13 0 1 0 1
0 332 284 -50 0 0 1 13 0 1 0 1
0 332 287 -50 0 0 1 13 0 1 0 1
phys
0 330 284 -48 0 0 1 13 0 1 0 1
0 332 287 -50 0 0 1 13 0 1 0 1
0 330 287 -48 0 0 1 13 0 1 0 1
phys
0 -6 243 78 0 0 1 14 0 1 0 1
0 -6 243 -78 0 0 1 14 0 1 0 1
0 -18 243 -78 0 0 1 14 0 1 0 1
phys
0 -6 243 78 0 0 1 14 0 1 0 1
0 -18 243 -78 0 0 1 14 0 1 0 1
0 -18 243 78 0 0 1 14 0 1 0 1
phys
0 -6 231 -78 0 0 1 14 0 1 0 1
0 -6 231 78 0 0 1 14 0 1 0 1
0 -18 231 78 0 0 1 14 0 1 0 1
phys
0 -6 231 -78 0 0 1 14 0 1 0 1
0 -18 231 78 0 0 1 14 0 1 0 1
0 -18 231 -78 0 0 1 14 0 1 0 1
phys
0 -18 231 -78 0 0 1 14 0 1 0 1
0 -18 231 78 0 0 1 14 0 1 0 1
0 -18 243 78 0 0 1 14 0 1 0 1
phys
0 -18 231 -78 0 0 1 14 0 1 0 1
0 -18 243 78 0 0 1 14 0 1 0 1
0 -18 243 -78 0 0 1 14 0 1 0 1
phys
0 -6 231 78 0 0 1 14 0 1 0 1
0 -6 231 -78 0 0 1 14 0 1 0 1
0 -6 243 -78 0 0 1 14 0 1 0 1
phys
0 -6 231 78 0 0 1 14 0 1 0 1
0 -6 243 -78 0 0 1 14 0 1 0 1
0 -6 243 78 0 0 1 14 0 1 0 1
phys
0 -6 231 -78 0 0 1 14 0 1 0 1
0 -18 231 -78 0 0 1 14 0 1 0 1
0 -18 243 -78 0 0 1 14 0 1 0 1
phys
0 -6 231 -78 0 0 1 14 0 1 0 1
0 -18 243 -78 0 0 1 14 0 1 0 1
0 -6 243 -78 0 0 1 14 0 1 0 1
phys
0 -18 231 78 0 0 1 14 0 1 0 1
0 -6 231 78 0 0 1 14 0 1 0 1
0 -6 243 78 0 0 1 14 0 1 0 1
phys
0 -18 231 78 0 0 1 14 0 1 0 1
0 -6 243 78 0 0 1 14 0 1 0 1
0 -18 243 78 0 0 1 14 0 1 0 1
phys
0 -200 375 -168.004 0 0 1 15 0 1 0 1
0 -200 375 -159 0 0 1 15 0 1 0 1
0 -185 375 -159 0 0 1 15 0 1 0 1
phys
0 -185 231 -159 0 0 1 15 0 1 0 1
0 -200 231 -159 0 0 1 15 0 1 0 1
0 -200 231 -168.004 0 0 1 15 0 1 0 1
phys
0 -200 231 -168.004 0 0 1 15 0 1 0 1
0 -200 231 -159 0 0 1 15 0 1 0 1
0 -200 375 -159 0 0 1 15 0 1 0 1
phys
0 -200 231 -168.004 0 0 1 15 0 1 0 1
0 -200 375 -159 0 0 1 15 0 1 0 1
0 -200 375 -168.004 0 0 1 15 0 1 0 1
phys
0 -200 231 -159 0 0 1 15 0 1 0 1
0 -185 231 -159 0 0 1 15 0 1 0 1
0 -185 375 -159 0 0 1 15 0 1 0 1
phys
0 -200 231 -159 0 0 1 15 0 1 0 1
0 -185 375 -159 0 0 1 15 0 1 0 1
0 -200 375 -159 0 0 1 15 0 1 0 1
phys
0 -185 231 -159 0 0 1 15 0 1 0 1
0 -200 231 -168.004 0 0 1 15 0 1 0 1
0 -200 375 -168.004 0 0 1 15 0 1 0 1
phys
0 -185 231 -159 0 0 1 15 0 1 0 1
0 -200 375 -168.004 0 0 1 15 0 1 0 1
0 -185 375 -159 0 0 1 15 0 1 0 1
phys
0 126 6 78 0 0 1 16 0 1 0 1
0 126 6 66 0 0 1 16 0 1 0 1
0 6 6 66 0 0 1 16 0 1 0 1
phys
0 126 6 78 0 0 1 16 0 1 0 1
0 6 6 66 0 0 1 16 0 1 0 1
0 6 6 78 0 0 1 16 0 1 0 1
phys
0 126 -6 66 0 0 1 16 0 1 0 1
0 126 -6 78 0 0 1 16 0 1 0 1
0 6 -6 78 0 0 1 16 0 1 0 1
phys
0 126 -6 66 0 0 1 16 0 1 0 1
0 6 -6 78 0 0 1 16 0 1 0 1
0 6 -6 66 0 0 1 16 0 1 0 1
phys
0 6 -6 66 0 0 1 16 0 1 0 1
0 6 -6 78 0 0 1 16 0 1 0 1
0 6 6 78 0 0 1 16 0 1 0 1
phys
0 6 -6 66 0 0 1 16 0 1 0 1
0 6 6 78 0 0 1 16 0 1 0 1
0 6 6 66 0 0 1 16 0 1 0 1
phys
0 126 -6 78 0 0 1 16 0 1 0 1
0 126 -6 66 0 0 1 16 0 1 0 1
0 126 6 66 0 0 1 16 0 1 0 1
phys
0 126 -6 78 0 0 1 16 0 1 0 1
0 126 6 66 0 0 1 16 0 1 0 1
0 126 6 78 0 0 1 16 0 1 0 1
phys
0 126 -6 66 0 0 1 16 0 1 0 1
0 6 -6 66 0 0 1 16 0 1 0 1
0 6 6 66 0 0 1 16 0 1 0 1
phys
0 126 -6 66 0 0 1 16 0 1 0 1
0 6 6 66 0 0 1 16 0 1 0 1
0 126 6 66 0 0 1 16 0 1 0 1
phys
0 6 -6 78 0 0 1 16 0 1 0 1
0 126 -6 78 0 0 1 16 0 1 0 1
0 126 6 78 0 0 1 16 0 1 0 1
phys
0 6 -6 78 0 0 1 16 0 1 0 1
0 126 6 78 0 0 1 16 0 1 0 1
0 6 6 78 0 0 1 16 0 1 0 1
phys
0 -110 231 -105 0 0 1 17 0 1 0 1
0 -95 231 -105 0 0 1 17 0 1 0 1
0 -95 375 -105 0 0 1 17 0 1 0 1
phys
0 -110 231 -105 0 0 1 17 0 1 0 1
0 -95 375 -105 0 0 1 17 0 1 0 1
0 -110 375 -105 0 0 1 17 0 1 0 1
phys
0 -110 375 -114.004 0 0 1 17 0 1 0 1
0 -95 375 -105 0 0 1 17 0 1 0 1
0 -95 231 -105 0 0 1 17 0 1 0 1
phys
0 -110 375 -114.004 0 0 1 17 0 1 0 1
0 -95 231 -105 0 0 1 17 0 1 0 1
0 -110 231 -114.004 0 0 1 17 0 1 0 1
phys
0 -110 375 -105 0 0 1 17 0 1 0 1
0 -95 375 -105 0 0 1 17 0 1 0 1
0 -110 375 -114.004 0 0 1 17 0 1 0 1
phys
0 -95 231 -105 0 0 1 17 0 1 0 1
0 -110 231 -105 0 0 1 17 0 1 0 1
0 -110 231 -114.004 0 0 1 17 0 1 0 1
phys
0 -110 231 -105 0 0 1 17 0 1 0 1
0 -110 375 -105 0 0 1 17 0 1 0 1
0 -110 375 -114.004 0 0 1 17 0 1 0 1
phys
0 -110 231 -105 0 0 1 17 0 1 0 1
0 -110 375 -114.004 0 0 1 17 0 1 0 1
0 -110 231 -114.004 0 0 1 17 0 1 0 1
phys
0 -6 -36 -60 0 0 1 18 0 1 0 1
0 138 -36 -60 0 0 1 18 0 1 0 1
0 138 -21 -60 0 0 1 18 0 1 0 1
phys
0 -6 -36 -60 0 0 1 18 0 1 0 1
0 138 -21 -60 0 0 1 18 0 1 0 1
0 -6 -21 -60 0 0 1 18 0 1 0 1
phys
0 138 -36 -60 0 0 1 18 0 1 0 1
0 -6 -36 -60 0 0 1 18 0 1 0 1
0 -6 -21 -69 0 0 1 18 0 1 0 1
phys
0 138 -36 -60 0 0 1 18 0 1 0 1
0 -6 -21 -69 0 0 1 18 0 1 0 1
0 138 -21 -69 0 0 1 18 0 1 0 1
phys
0 138 -21 -69 0 0 1 18 0 1 0 1
0 -6 -21 -69 0 0 1 18 0 1 0 1
0 -6 -21 -60 0 0 1 18 0 1 0 1
phys
0 138 -21 -69 0 0 1 18 0 1 0 1
0 -6 -21 -60 0 0 1 18 0 1 0 1
0 138 -21 -60 0 0 1 18 0 1 0 1
phys
0 -6 -36 -60 0 0 1 18 0 1 0 1
0 -6 -21 -60 0 0 1 18 0 1 0 1
0 -6 -21 -69 0 0 1 18 0 1 0 1
phys
0 138 -21 -60 0 0 1 18 0 1 0 1
0 138 -36 -60 0 0 1 18 0 1 0 1
0 138 -21 -69 0 0 1 18 0 1 0 1
phys
0 138 6 78 0 0 1 19 0 1 0 1
0 138 6 -78 0 0 1 19 0 1 0 1
0 126 6 -78 0 0 1 19 0 1 0 1
phys
0 138 6 78 0 0 1 19 0 1 0 1
0 126 6 -78 0 0 1 19 0 1 0 1
0 126 6 78 0 0 1 19 0 1 0 1
phys
0 138 -6 -78 0 0 1 19 0 1 0 1
0 138 -6 78 0 0 1 19 0 1 0 1
0 126 -6 78 0 0 1 19 0 1 0 1
phys
0 138 -6 -78 0 0 1 19 0 1 0 1
0 126 -6 78 0 0 1 19 0 1 0 1
0 126 -6 -78 0 0 1 19 0 1 0 1
phys
0 126 -6 -78 0 0 1 19 0 1 0 1
0 126 -6 78 0 0 1 19 0 1 0 1
0 126 6 78 0 0 1 19 0 1 0 1
phys
0 126 -6 -78 0 0 1 19 0 1 0 1
0 126 6 78 0 0 1 19 0 1 0 1
0 126 6 -78 0 0 1 19 0 1 0 1
phys
0 138 -6 78 0 0 1 19 0 1 0 1
0 138 -6 -78 0 0 1 19 0 1 0 1
0 138 6 -78 0 0 1 19 0 1 0 1
phys
0 138 -6 78 0 0 1 19 0 1 0 1
0 138 6 -78 0 0 1 19 0 1 0 1
0 138 6 78 0 0 1 19 0 1 0 1
phys
0 138 -6 -78 0 0 1 19 0 1 0 1
0 126 -6 -78 0 0 1 19 0 1 0 1
0 126 6 -78 0 0 1 19 0 1 0 1
phys
0 138 -6 -78 0 0 1 19 0 1 0 1
0 126 6 -78 0 0 1 19 0 1 0 1
0 138 6 -78 0 0 1 19 0 1 0 1
phys
0 126 -6 78 0 0 1 19 0 1 0 1
0 138 -6 78 0 0 1 19 0 1 0 1
0 138 6 78 0 0 1 19 0 1 0 1
phys
0 126 -6 78 0 0 1 19 0 1 0 1
0 138 6 78 0 0 1 19 0 1 0 1
0 126 6 78 0 0 1 19 0 1 0 1
phys
0 232 287 -49.997 0 0 1 20 0 1 0 1
0 234 287 -47.997 0 0 1 20 0 1 0 1
0 234 284 -47.997 0 0 1 20 0 1 0 1
phys
0 232 287 -49.997 0 0 1 20 0 1 0 1
0 234 284 -47.997 0 0 1 20 0 1 0 1
0 232 284 -49.997 0 0 1 20 0 1 0 1
phys
0 232 284 49.997 0 0 1 20 0 1 0 1
0 234 284 47.997 0 0 1 20 0 1 0 1
0 234 287 47.997 0 0 1 20 0 1 0 1
phys
0 232 284 49.997 0 0 1 20 0 1 0 1
0 234 287 47.997 0 0 1 20 0 1 0 1
0 232 287 49.997 0 0 1 20 0 1 0 1
phys
0 234 287 -47.997 0 0 1 20 0 1 0 1
0 232 287 -49.997 0 0 1 20 0 1 0 1
0 232 287 49.997 0 0 1 20 0 1 0 1
phys
0 234 287 -47.997 0 0 1 20 0 1 0 1
0 232 287 49.997 0 0 1 20 0 1 0 1
0 234 287 47.997 0 0 1 20 0 1 0 1
phys
0 232 284 -49.997 0 0 1 20 0 1 0 1
0 234 284 -47.997 0 0 1 20 0 1 0 1
0 234 284 47.997 0 0 1 20 0 1 0 1
phys
0 232 284 -49.997 0 0 1 20 0 1 0 1
0 234 284 47.997 0 0 1 20 0 1 0 1
0 232 284 49.997 0 0 1 20 0 1 0 1
phys
0 232 284 49.997 0 0 1 20 0 1 0 1
0 232 287 49.997 0 0 1 20 0 1 0 1
0 232 287 -49.997 0 0 1 20 0 1 0 1
phys
0 232 284 49.997 0 0 1 20 0 1 0 1
0 232 287 -49.997 0 0 1 20 0 1 0 1
0 232 284 -49.997 0 0 1 20 0 1 0 1
phys
0 234 284 -47.997 0 0 1 20 0 1 0 1
0 234 287 -47.997 0 0 1 20 0 1 0 1
0 234 287 47.997 0 0 1 20 0 1 0 1
phys
0 234 284 -47.997 0 0 1 20 0 1 0 1
0 234 287 47.997 0 0 1 20 0 1 0 1
0 234 284 47.997 0 0 1 20 0 1 0 1
phys
0 -215 231 -177 0 0 1 21 0 1 0 1
0 -230 231 -186.004 0 0 1 21 0 1 0 1
0 -230 375 -186.004 0 0 1 21 0 1 0 1
phys
0 -215 231 -177 0 0 1 21 0 1 0 1
0 -230 375 -186.004 0 0 1 21 0 1 0 1
0 -215 375 -177 0 0 1 21 0 1 0 1
phys
0 -215 375 -177 0 0 1 21 0 1 0 1
0 -230 375 -186.004 0 0 1 21 0 1 0 1
0 -230 375 -177 0 0 1 21 0 1 0 1
phys
0 -230 231 -177 0 0 1 21 0 1 0 1
0 -230 231 -186.004 0 0 1 21 0 1 0 1
0 -215 231 -177 0 0 1 21 0 1 0 1
phys
0 -230 375 -177 0 0 1 21 0 1 0 1
0 -230 375 -186.004 0 0 1 21 0 1 0 1
0 -230 231 -186.004 0 0 1 21 0 1 0 1
phys
0 -230 375 -177 0 0 1 21 0 1 0 1
0 -230 231 -186.004 0 0 1 21 0 1 0 1
0 -230 231 -177 0 0 1 21 0 1 0 1
phys
0 -230 231 -177 0 0 1 21 0 1 0 1
0 -215 231 -177 0 0 1 21 0 1 0 1
0 -215 375 -177 0 0 1 21 0 1 0 1
phys
0 -230 231 -177 0 0 1 21 0 1 0 1
0 -215 375 -177 0 0 1 21 0 1 0 1
0 -230 375 -177 0 0 1 21 0 1 0 1
phys
0 138 -6 -69 0 0 1 22 0 1 0 1
0 138 -6 -78 0 0 1 22 0 1 0 1
0 -6 -6 -78 0 0 1 22 0 1 0 1
phys
0 138 -6 -69 0 0 1 22 0 1 0 1
0 -6 -6 -78 0 0 1 22 0 1 0 1
0 -6 -6 -69 0 0 1 22 0 1 0 1
phys
0 -6 -21 -69 0 0 1 22 0 1 0 1
0 -6 -6 -69 0 0 1 22 0 1 0 1
0 -6 -6 -78 0 0 1 22 0 1 0 1
phys
0 138 -6 -78 0 0 1 22 0 1 0 1
0 138 -6 -69 0 0 1 22 0 1 0 1
0 138 -21 -69 0 0 1 22 0 1 0 1
phys
0 138 -21 -69 0 0 1 22 0 1 0 1
0 138 -6 -69 0 0 1 22 0 1 0 1
0 -6 -6 -69 0 0 1 22 0 1 0 1
phys
0 138 -21 -69 0 0 1 22 0 1 0 1
0 -6 -6 -69 0 0 1 22 0 1 0 1
0 -6 -21 -69 0 0 1 22 0 1 0 1
phys
0 -6 -21 -69 0 0 1 22 0 1 0 1
0 -6 -6 -78 0 0 1 22 0 1 0 1
0 138 -6 -78 0 0 1 22 0 1 0 1
phys
0 -6 -21 -69 0 0 1 22 0 1 0 1
0 138 -6 -78 0 0 1 22 0 1 0 1
0 138 -21 -69 0 0 1 22 0 1 0 1
phys
0 332 284 50 0 0 1 23 0 1 0 1
0 330 284 48 0 0 1 23 0 1 0 1
0 330 287 48 0 0 1 23 0 1 0 1
phys
0 332 284 50 0 0 1 23 0 1 0 1
0 330 287 48 0 0 1 23 0 1 0 1
0 332 287 50 0 0 1 23 0 1 0 1
phys
0 332 287 50 0 0 1 23 0 1 0 1
0 330 287 48 0 0 1 23 0 1 0 1
0 234 287 48 0 0 1 23 0 1 0 1
phys
0 332 287 50 0 0 1 23 0 1 0 1
0 234 287 48 0 0 1 23 0 1 0 1
0 232 287 50 0 0 1 23 0 1 0 1
phys
0 330 284 48 0 0 1 23 0 1 0 1
0 332 284 50 0 0 1 23 0 1 0 1
0 232 284 50 0 0 1 23 0 1 0 1
phys
0 330 284 48 0 0 1 23 0 1 0 1
0 232 284 50 0 0 1 23 0 1 0 1
0 234 284 48 0 0 1 23 0 1 0 1
phys
0 234 287 48 0 0 1 23 0 1 0 1
0 330 287 48 0 0 1 23 0 1 0 1
0 330 284 48 0 0 1 23 0 1 0 1
phys
0 234 287 48 0 0 1 23 0 1 0 1
0 330 284 48 0 0 1 23 0 1 0 1
0 234 284 48 0 0 1 23 0 1 0 1
phys
0 232 284 50 0 0 1 23 0 1 0 1
0 332 284 50 0 0 1 23 0 1 0 1
0 332 287 50 0 0 1 23 0 1 0 1
phys
0 232 284 50 0 0 1 23 0 1 0 1
0 332 287 50 0 0 1 23 0 1 0 1
0 232 287 50 0 0 1 23 0 1 0 1
phys
0 232 287 50 0 0 1 23 0 1 0 1
0 234 287 48 0 0 1 23 0 1 0 1
0 234 284 48 0 0 1 23 0 1 0 1
phys
0 232 287 50 0 0 1 23 0 1 0 1
0 234 284 48 0 0 1 23 0 1 0 1
0 232 284 50 0 0 1 23 0 1 0 1
phys
0 -6 -66 -42 0 0 1 24 0 1 0 1
0 138 -66 -42 0 0 1 24 0 1 0 1
0 138 -51 -42 0 0 1 24 0 1 0 1
phys
0 -6 -66 -42 0 0 1 24 0 1 0 1
0 138 -51 -42 0 0 1 24 0 1 0 1
0 -6 -51 -42 0 0 1 24 0 1 0 1
phys
0 138 -66 -42 0 0 1 24 0 1 0 1
0 -6 -66 -42 0 0 1 24 0 1 0 1
0 -6 -51 -51 0 0 1 24 0 1 0 1
phys
0 138 -66 -42 0 0 1 24 0 1 0 1
0 -6 -51 -51 0 0 1 24 0 1 0 1
0 138 -51 -51 0 0 1 24 0 1 0 1
phys
0 138 -51 -51 0 0 1 24 0 1 0 1
0 -6 -51 -51 0 0 1 24 0 1 0 1
0 -6 -51 -42 0 0 1 24 0 1 0 1
phys
0 138 -51 -51 0 0 1 24 0 1 0 1
0 -6 -51 -42 0 0 1 24 0 1 0 1
0 138 -51 -42 0 0 1 24 0 1 0 1
phys
0 -6 -66 -42 0 0 1 24 0 1 0 1
0 -6 -51 -42 0 0 1 24 0 1 0 1
0 -6 -51 -51 0 0 1 24 0 1 0 1
phys
0 138 -51 -42 0 0 1 24 0 1 0 1
0 138 -66 -42 0 0 1 24 0 1 0 1
0 138 -51 -51 0 0 1 24 0 1 0 1
phys
0 -155 375 -141.004 0 0 1 25 0 1 0 1
0 -155 375 -132 0 0 1 25 0 1 0 1
0 -140 375 -132 0 0 1 25 0 1 0 1
phys
0 -140 231 -132 0 0 1 25 0 1 0 1
0 -155 231 -132 0 0 1 25 0 1 0 1
0 -155 231 -141.004 0 0 1 25 0 1 0 1
phys
0 -155 231 -141.004 0 0 1 25 0 1 0 1
0 -155 231 -132 0 0 1 25 0 1 0 1
0 -155 375 -132 0 0 1 25 0 1 0 1
phys
0 -155 231 -141.004 0 0 1 25 0 1 0 1
0 -155 375 -132 0 0 1 25 0 1 0 1
0 -155 375 -141.004 0 0 1 25 0 1 0 1
phys
0 -155 231 -132 0 0 1 25 0 1 0 1
0 -140 231 -132 0 0 1 25 0 1 0 1
0 -140 375 -132 0 0 1 25 0 1 0 1
phys
0 -155 231 -132 0 0 1 25 0 1 0 1
0 -140 375 -132 0 0 1 25 0 1 0 1
0 -155 375 -132 0 0 1 25 0 1 0 1
phys
0 -140 231 -132 0 0 1 25 0 1 0 1
0 -155 231 -141.004 0 0 1 25 0 1 0 1
0 -155 375 -141.004 0 0 1 25 0 1 0 1
phys
0 -140 231 -132 0 0 1 25 0 1 0 1
0 -155 375 -141.004 0 0 1 25 0 1 0 1
0 -140 375 -132 0 0 1 25 0 1 0 1
phys
0 -170 231 -150 0 0 1 26 0 1 0 1
0 -185 231 -159.004 0 0 1 26 0 1 0 1
0 -185 375 -159.004 0 0 1 26 0 1 0 1
phys
0 -170 231 -150 0 0 1 26 0 1 0 1
0 -185 375 -159.004 0 0 1 26 0 1 0 1
0 -170 375 -150 0 0 1 26 0 1 0 1
phys
0 -170 375 -150 0 0 1 26 0 1 0 1
0 -185 375 -159.004 0 0 1 26 0 1 0 1
0 -185 375 -150 0 0 1 26 0 1 0 1
phys
0 -185 231 -150 0 0 1 26 0 1 0 1
0 -185 231 -159.004 0 0 1 26 0 1 0 1
0 -170 231 -150 0 0 1 26 0 1 0 1
phys
0 -185 375 -150 0 0 1 26 0 1 0 1
0 -185 375 -159.004 0 0 1 26 0 1 0 1
0 -185 231 -159.004 0 0 1 26 0 1 0 1
phys
0 -185 375 -150 0 0 1 26 0 1 0 1
0 -185 231 -159.004 0 0 1 26 0 1 0 1
0 -185 231 -150 0 0 1 26 0 1 0 1
phys
0 -185 231 -150 0 0 1 26 0 1 0 1
0 -170 231 -150 0 0 1 26 0 1 0 1
0 -170 375 -150 0 0 1 26 0 1 0 1
phys
0 -185 231 -150 0 0 1 26 0 1 0 1
0 -170 375 -150 0 0 1 26 0 1 0 1
0 -185 375 -150 0 0 1 26 0 1 0 1
phys
0 -6 243 66 0 0 1 27 0 1 0 1
0 -6 243 78 0 0 1 27 0 1 0 1
0 -18 243 78 0 0 1 27 0 1 0 1
phys
0 -6 243 66 0 0 1 27 0 1 0 1
0 -18 243 78 0 0 1 27 0 1 0 1
0 -18 243 66 0 0 1 27 0 1 0 1
phys
0 -18 243 66 0 0 1 27 0 1 0 1
0 -18 243 78 0 0 1 27 0 1 0 1
0 -18 363 78 0 0 1 27 0 1 0 1
phys
0 -18 243 66 0 0 1 27 0 1 0 1
0 -18 363 78 0 0 1 27 0 1 0 1
0 -18 363 66 0 0 1 27 0 1 0 1
phys
0 -6 243 78 0 0 1 27 0 1 0 1
0 -6 243 66 0 0 1 27 0 1 0 1
0 -6 363 66 0 0 1 27 0 1 0 1
phys
0 -6 243 78 0 0 1 27 0 1 0 1
0 -6 363 66 0 0 1 27 0 1 0 1
0 -6 363 78 0 0 1 27 0 1 0 1
phys
0 -6 243 66 0 0 1 27 0 1 0 1
0 -18 243 66 0 0 1 27 0 1 0 1
0 -18 363 66 0 0 1 27 0 1 0 1
phys
0 -6 243 66 0 0 1 27 0 1 0 1
0 -18 363 66 0 0 1 27 0 1 0 1
0 -6 363 66 0 0 1 27 0 1 0 1
phys
0 -18 243 78 0 0 1 27 0 1 0 1
0 -6 243 78 0 0 1 27 0 1 0 1
0 -6 363 78 0 0 1 27 0 1 0 1
phys
0 -18 243 78 0 0 1 27 0 1 0 1
0 -6 363 78 0 0 1 27 0 1 0 1
0 -18 363 78 0 0 1 27 0 1 0 1
phys
0 -6 363 78 0 0 1 27 0 1 0 1
0 -6 363 66 0 0 1 27 0 1 0 1
0 -18 363 66 0 0 1 27 0 1 0 1
phys
0 -6 363 78 0 0 1 27 0 1 0 1
0 -18 363 66 0 0 1 27 0 1 0 1
0 -18 363 78 0 0 1 27 0 1 0 1
phys
0 -125 231 -123 0 0 1 28 0 1 0 1
0 -140 231 -131.999 0 0 1 28 0 1 0 1
0 -140 375 -131.999 0 0 1 28 0 1 0 1
phys
0 -125 231 -123 0 0 1 28 0 1 0 1
0 -140 375 -131.999 0 0 1 28 0 1 0 1
0 -125 375 -123 0 0 1 28 0 1 0 1
phys
0 -125 375 -123 0 0 1 28 0 1 0 1
0 -140 375 -131.999 0 0 1 28 0 1 0 1
0 -140 375 -123 0 0 1 28 0 1 0 1
phys
0 -140 231 -123 0 0 1 28 0 1 0 1
0 -140 231 -131.999 0 0 1 28 0 1 0 1
0 -125 231 -123 0 0 1 28 0 1 0 1
phys
0 -140 375 -123 0 0 1 28 0 1 0 1
0 -140 375 -131.999 0 0 1 28 0 1 0 1
0 -140 231 -131.999 0 0 1 28 0 1 0 1
phys
0 -140 375 -123 0 0 1 28 0 1 0 1
0 -140 231 -131.999 0 0 1 28 0 1 0 1
0 -140 231 -123 0 0 1 28 0 1 0 1
phys
0 -140 231 -123 0 0 1 28 0 1 0 1
0 -125 231 -123 0 0 1 28 0 1 0 1
0 -125 375 -123 0 0 1 28 0 1 0 1
phys
0 -140 231 -123 0 0 1 28 0 1 0 1
0 -125 375 -123 0 0 1 28 0 1 0 1
0 -140 375 -123 0 0 1 28 0 1 0 1
end
