version 1
nodes
0 "root" -1
end
skeleton
time 0
0 0 0 0 0 0 0
end
triangles
pepsi2_arch_concrete_stair01
0 94 37 -118.99932 -1 0 0 20.957031 1.697271 1 0 1
0 94 37 -103.5091 -1 0 0 20.957031 1.818288 1 0 1
0 94 112 -103.5091 -1 0 0 20.371094 1.818288 1 0 1
pepsi2_arch_concrete_stair01
0 94 37 -118.99932 -1 0 0 20.957031 1.697271 1 0 1
0 94 112 -103.5091 -1 0 0 20.371094 1.818288 1 0 1
0 94 112 -118.99932 -1 0 0 20.371094 1.697271 1 0 1
pepsi2_arch_concrete_stair01
0 94 37 -103.5091 0 0 1 20.957031 -89.181641 1 0 1
0 110 37 -103.5091 0 0 1 20.957031 -89.056641 1 0 1
0 110 112 -103.5091 0 0 1 20.371094 -89.056641 1 0 1
pepsi2_arch_concrete_stair01
0 94 37 -103.5091 0 0 1 20.957031 -89.181641 1 0 1
0 110 112 -103.5091 0 0 1 20.371094 -89.056641 1 0 1
0 94 112 -103.5091 0 0 1 20.371094 -89.181641 1 0 1
pepsi2_arch_concrete_floor_smooth01
0 110 37 -103.5091 0.695569 0 -0.71846 -21.148438 65.688195 1 0 1
0 94 37 -118.99932 0.695569 0 -0.71846 -21.148438 65.862174 1 0 1
0 94 112 -118.99932 0.695569 0 -0.71846 -20.5625 65.862174 1 0 1
pepsi2_arch_concrete_floor_smooth01
0 110 37 -103.5091 0.695569 0 -0.71846 -21.148438 65.688195 1 0 1
0 94 112 -118.99932 0.695569 0 -0.71846 -20.5625 65.862174 1 0 1
0 110 112 -103.5091 0.695569 0 -0.71846 -20.5625 65.688195 1 0 1
bridge_se1_metal_flat_steel_01
0 206 -122 4 1 0 0 1.476562 -21.679688 1 0 1
0 206 -112 4 1 0 0 1.476562 -21.601562 1 0 1
0 206 -112 111.997 1 0 0 2.320289 -21.601562 1 0 1
bridge_se1_metal_flat_steel_01
0 206 -122 4 1 0 0 1.476562 -21.679688 1 0 1
0 206 -112 111.997 1 0 0 2.320289 -21.601562 1 0 1
0 206 -122 111.997 1 0 0 2.320289 -21.679688 1 0 1
bridge_se1_metal_flat_steel_01
0 202 -122 4 0 0 -1 -21.796875 -88.992188 1 0 1
0 202 -112 4 0 0 -1 -21.71875 -88.992188 1 0 1
0 206 -112 4 0 0 -1 -21.71875 -88.960938 1 0 1
bridge_se1_metal_flat_steel_01
0 202 -122 4 0 0 -1 -21.796875 -88.992188 1 0 1
0 206 -112 4 0 0 -1 -21.71875 -88.960938 1 0 1
0 206 -122 4 0 0 -1 -21.796875 -88.960938 1 0 1
bridge_se1_metal_flat_steel_01
0 206 -122 111.997 0.707107 0 0.707107 21.796875 -63.915078 1 0 1
0 206 -112 111.997 0.707107 0 0.707107 21.71875 -63.915078 1 0 1
0 202 -112 115.997 0.707107 0 0.707107 21.71875 -63.959272 1 0 1
bridge_se1_metal_flat_steel_01
0 206 -122 111.997 0.707107 0 0.707107 21.796875 -63.915078 1 0 1
0 202 -112 115.997 0.707107 0 0.707107 21.71875 -63.959272 1 0 1
0 202 -122 115.997 0.707107 0 0.707107 21.796875 -63.959272 1 0 1
bridge_se1_metal_flat_steel_01
0 206 -112 111.997 0 1 0 2.320289 90.398438 1 0 1
0 206 -112 4 0 1 0 1.476562 90.398438 1 0 1
0 202 -112 4 0 1 0 1.476562 90.429688 1 0 1
bridge_se1_metal_flat_steel_01
0 206 -112 111.997 0 1 0 2.320289 90.398438 1 0 1
0 202 -112 4 0 1 0 1.476562 90.429688 1 0 1
0 202 -112 115.997 0 1 0 2.351539 90.429688 1 0 1
bridge_se1_metal_flat_steel_01
0 206 -122 4 0 -1 0 1.476562 90.398438 1 0 1
0 206 -122 111.997 0 -1 0 2.320289 90.398438 1 0 1
0 202 -122 115.997 0 -1 0 2.351539 90.429688 1 0 1
bridge_se1_metal_flat_steel_01
0 206 -122 4 0 -1 0 1.476562 90.398438 1 0 1
0 202 -122 115.997 0 -1 0 2.351539 90.429688 1 0 1
0 202 -122 4 0 -1 0 1.476562 90.429688 1 0 1
bridge_se1_metal_flat_steel_01
0 79 37 -81 0 1 0 90.490234 0 1 0 1
0 79 37 -124 0 1 0 90.490234 0.335938 1 0 1
0 75 37 -124 0 1 0 90.521484 0.335938 1 0 1
bridge_se1_metal_flat_steel_01
0 79 37 -81 0 1 0 90.490234 0 1 0 1
0 75 37 -124 0 1 0 90.521484 0.335938 1 0 1
0 75 37 -81 0 1 0 90.521484 0 1 0 1
bridge_se1_metal_flat_steel_01
0 79 -41 -124 0 -1 0 -90.837891 0.335938 1 0 1
0 79 -41 -81 0 -1 0 -90.837891 0 1 0 1
0 75 -41 -81 0 -1 0 -90.869141 0 1 0 1
bridge_se1_metal_flat_steel_01
0 79 -41 -124 0 -1 0 -90.837891 0.335938 1 0 1
0 75 -41 -81 0 -1 0 -90.869141 0 1 0 1
0 75 -41 -124 0 -1 0 -90.869141 0.335938 1 0 1
bridge_se1_metal_flat_steel_01
0 75 -41 -124 -1 0 0 22.130859 0.335938 1 0 1
0 75 -41 -81 -1 0 0 22.130859 0 1 0 1
0 75 37 -81 -1 0 0 21.521484 0 1 0 1
bridge_se1_metal_flat_steel_01
0 75 -41 -124 -1 0 0 22.130859 0.335938 1 0 1
0 75 37 -81 -1 0 0 21.521484 0 1 0 1
0 75 37 -124 -1 0 0 21.521484 0.335938 1 0 1
bridge_se1_metal_flat_steel_01
0 79 -41 -81 1 0 0 22.130859 0 1 0 1
0 79 -41 -124 1 0 0 22.130859 0.335938 1 0 1
0 79 37 -124 1 0 0 21.521484 0.335938 1 0 1
bridge_se1_metal_flat_steel_01
0 79 -41 -81 1 0 0 22.130859 0 1 0 1
0 79 37 -124 1 0 0 21.521484 0.335938 1 0 1
0 79 37 -81 1 0 0 21.521484 0 1 0 1
bridge_se1_metal_flat_steel_01
0 75 -41 -81 0 0 1 22.130859 91 1 0 1
0 79 -41 -81 0 0 1 22.130859 90.96875 1 0 1
0 79 37 -81 0 0 1 21.521484 90.96875 1 0 1
bridge_se1_metal_flat_steel_01
0 75 -41 -81 0 0 1 22.130859 91 1 0 1
0 79 37 -81 0 0 1 21.521484 90.96875 1 0 1
0 75 37 -81 0 0 1 21.521484 91 1 0 1
pepsi2_arch_concrete_floor_smooth01
0 427 -37 -81 0 1 0 -0.390625 -87.003906 1 0 1
0 427 -37 -124 0 1 0 -0.054688 -87.003906 1 0 1
0 285 -37 -124 0 1 0 -0.054688 -88.113281 1 0 1
pepsi2_arch_concrete_floor_smooth01
0 427 -37 -81 0 1 0 -0.390625 -87.003906 1 0 1
0 285 -37 -124 0 1 0 -0.054688 -88.113281 1 0 1
0 285 -37 -81 0 1 0 -0.390625 -88.113281 1 0 1
bridge_se1_metal_flat_steel_01
0 427 -41 -124 0 -1 0 0.083984 89 1 0 1
0 427 -41 -81 0 -1 0 -0.251953 89 1 0 1
0 285 -41 -81 0 -1 0 -0.251953 90.109375 1 0 1
bridge_se1_metal_flat_steel_01
0 427 -41 -124 0 -1 0 0.083984 89 1 0 1
0 285 -41 -81 0 -1 0 -0.251953 90.109375 1 0 1
0 285 -41 -124 0 -1 0 0.083984 90.109375 1 0 1
bridge_se1_metal_flat_steel_01
0 285 -41 -81 0 0 1 21.748047 90.109375 1 0 1
0 427 -41 -81 0 0 1 21.748047 89 1 0 1
0 427 -37 -81 0 0 1 21.716797 89 1 0 1
bridge_se1_metal_flat_steel_01
0 285 -41 -81 0 0 1 21.748047 90.109375 1 0 1
0 427 -37 -81 0 0 1 21.716797 89 1 0 1
0 285 -37 -81 0 0 1 21.716797 90.109375 1 0 1
pepsi2_arch_concrete_floor_smooth01
0 221 -112 -5 -1 0 0 22.601562 -0.613281 1 0 1
0 221 -112 4 -1 0 0 22.601562 -0.683594 1 0 1
0 221 112 4 -1 0 0 20.851562 -0.683594 1 0 1
pepsi2_arch_concrete_floor_smooth01
0 221 -112 -5 -1 0 0 22.601562 -0.613281 1 0 1
0 221 112 4 -1 0 0 20.851562 -0.683594 1 0 1
0 221 112 -5 -1 0 0 20.851562 -0.613281 1 0 1
pepsi2_arch_concrete_floor_smooth01
0 285 -112 4 1 0 0 22.601562 1.957031 1 0 1
0 285 -112 -5 1 0 0 22.601562 1.886719 1 0 1
0 285 112 -5 1 0 0 20.851562 1.886719 1 0 1
pepsi2_arch_concrete_floor_smooth01
0 285 -112 4 1 0 0 22.601562 1.957031 1 0 1
0 285 112 -5 1 0 0 20.851562 1.886719 1 0 1
0 285 112 4 1 0 0 20.851562 1.957031 1 0 1
pepsi2_arch_concrete_floor_smooth01
0 285 -112 -5 0 0 -1 22.601562 -88.113281 1 0 1
0 221 -112 -5 0 0 -1 22.601562 -88.613281 1 0 1
0 221 112 -5 0 0 -1 20.851562 -88.613281 1 0 1
pepsi2_arch_concrete_floor_smooth01
0 285 -112 -5 0 0 -1 22.601562 -88.113281 1 0 1
0 221 112 -5 0 0 -1 20.851562 -88.613281 1 0 1
0 285 112 -5 0 0 -1 20.851562 -88.113281 1 0 1
pepsi2_arch_tiles02a_e
0 221 -112 4 0 0 1 -89.757812 23.621094 1 0 1
0 285 -112 4 0 0 1 -89.257812 23.621094 1 0 1
0 285 112 4 0 0 1 -89.257812 21.871094 1 0 1
pepsi2_arch_tiles02a_e
0 221 -112 4 0 0 1 -89.757812 23.621094 1 0 1
0 285 112 4 0 0 1 -89.257812 21.871094 1 0 1
0 221 112 4 0 0 1 -89.757812 21.871094 1 0 1
bridge_se1_metal_flat_steel_01
0 412 37 -72.0012 0 1 0 -0.322256 89.117188 1 0 1
0 412 37 -119.00041 0 1 0 0.044925 89.117188 1 0 1
0 285 37 4 0 1 0 -0.916016 90.109375 1 0 1
bridge_se1_metal_flat_steel_01
0 412 37 -72.0012 0 1 0 -0.322256 89.117188 1 0 1
0 285 37 4 0 1 0 -0.916016 90.109375 1 0 1
0 285 37 46.999 0 1 0 -1.251945 90.109375 1 0 1
bridge_se1_metal_flat_steel_01
0 412 33 -119.00041 0 -1 0 0.044925 89.117188 1 0 1
0 412 33 -72.0012 0 -1 0 -0.322256 89.117188 1 0 1
0 285 33 46.999 0 -1 0 -1.251945 90.109375 1 0 1
bridge_se1_metal_flat_steel_01
0 412 33 -119.00041 0 -1 0 0.044925 89.117188 1 0 1
0 285 33 46.999 0 -1 0 -1.251945 90.109375 1 0 1
0 285 33 4 0 -1 0 -0.916016 90.109375 1 0 1
bridge_se1_metal_flat_steel_01
0 285 33 46.999 0.683751 0 0.729716 -29.670726 62.715085 1 0 1
0 412 33 -72.0012 0.683751 0 0.729716 -28.741094 61.722923 1 0 1
0 412 37 -72.0012 0.683751 0 0.729716 -28.763897 61.701558 1 0 1
bridge_se1_metal_flat_steel_01
0 285 33 46.999 0.683751 0 0.729716 -29.670726 62.715085 1 0 1
0 412 37 -72.0012 0.683751 0 0.729716 -28.763897 61.701558 1 0 1
0 285 37 46.999 0.683751 0 0.729716 -29.693529 62.69372 1 0 1
bridge_se1_metal_flat_steel_01
0 412 33 -119.00041 -0.695705 0 -0.718327 -58.951153 32.117366 1 0 1
0 285 33 4 -0.695705 0 -0.718327 -59.912045 33.109516 1 0 1
0 285 37 4 -0.695705 0 -0.718327 -59.889598 33.131257 1 0 1
bridge_se1_metal_flat_steel_01
0 412 33 -119.00041 -0.695705 0 -0.718327 -58.951153 32.117366 1 0 1
0 285 37 4 -0.695705 0 -0.718327 -59.889598 33.131257 1 0 1
0 412 37 -119.00041 -0.695705 0 -0.718327 -58.928706 32.139106 1 0 1
pepsi2_arch_concrete_stair01
0 142 37 -72.4986 -1 0 0 20.957031 1.697277 1 0 1
0 142 37 -57.0161 -1 0 0 20.957031 1.818234 1 0 1
0 142 112 -57.0161 -1 0 0 20.371094 1.818234 1 0 1
pepsi2_arch_concrete_stair01
0 142 37 -72.4986 -1 0 0 20.957031 1.697277 1 0 1
0 142 112 -57.0161 -1 0 0 20.371094 1.818234 1 0 1
0 142 112 -72.5037 -1 0 0 20.371094 1.697237 1 0 1
pepsi2_arch_concrete_stair01
0 142 37 -57.0161 0 0 1 20.957031 -89.181641 1 0 1
0 157.994731 37 -57.0161 0 0 1 20.957031 -89.056682 1 0 1
0 158 112 -57.0161 0 0 1 20.371094 -89.056641 1 0 1
pepsi2_arch_concrete_stair01
0 142 37 -57.0161 0 0 1 20.957031 -89.181641 1 0 1
0 158 112 -57.0161 0 0 1 20.371094 -89.056641 1 0 1
0 142 112 -57.0161 0 0 1 20.371094 -89.181641 1 0 1
pepsi2_arch_concrete_floor_smooth01
0 157.994731 37 -57.0161 0.695508 -0.000049 -0.718518 -21.148438 65.167437 1 0 1
0 142 37 -72.4986 0.695508 -0.000049 -0.718518 -21.148438 65.341346 1 0 1
0 142 112 -72.5037 0.695508 -0.000049 -0.718518 -20.5625 65.341374 1 0 1
pepsi2_arch_concrete_floor_smooth01
0 157.994731 37 -57.0161 0.695508 -0.000049 -0.718518 -21.148438 65.167437 1 0 1
0 142 112 -72.5037 0.695508 -0.000049 -0.718518 -20.5625 65.341374 1 0 1
0 158 112 -57.0161 0.695508 -0.000049 -0.718518 -20.5625 65.167408 1 0 1
bridge_se1_metal_flat_steel_01
0 417 33 -124 -0.706877 0 -0.707337 -57.915691 30.078449 1 0 1
0 412 33 -119.00325 -0.706877 0 -0.707337 -57.954741 30.117499 1 0 1
0 412 37 -119.00325 -0.706877 0 -0.707337 -57.932644 30.139596 1 0 1
bridge_se1_metal_flat_steel_01
0 417 33 -124 -0.706877 0 -0.707337 -57.915691 30.078449 1 0 1
0 412 37 -119.00325 -0.706877 0 -0.707337 -57.932644 30.139596 1 0 1
0 417 37 -124 -0.706877 0 -0.707337 -57.893595 30.100546 1 0 1
bridge_se1_metal_flat_steel_01
0 427 37 -81.0002 0.514496 0 0.857493 -20.77705 75.686322 1 0 1
0 412 37 -72.0002 0.514496 0 0.857493 -20.847364 75.803512 1 0 1
0 412 33 -72.0002 0.514496 0 0.857493 -20.820568 75.81959 1 0 1
bridge_se1_metal_flat_steel_01
0 427 37 -81.0002 0.514496 0 0.857493 -20.77705 75.686322 1 0 1
0 412 33 -72.0002 0.514496 0 0.857493 -20.820568 75.81959 1 0 1
0 427 33 -81.0002 0.514496 0 0.857493 -20.750253 75.7024 1 0 1
bridge_se1_metal_flat_steel_01
0 417 37 -124 0 1 0 0.083984 89.078125 1 0 1
0 412 37 -119.00325 0 1 0 0.044947 89.117188 1 0 1
0 412 37 -72.0002 0 1 0 -0.322264 89.117188 1 0 1
bridge_se1_metal_flat_steel_01
0 417 37 -124 0 1 0 0.083984 89.078125 1 0 1
0 412 37 -72.0002 0 1 0 -0.322264 89.117188 1 0 1
0 427 37 -81.0002 0 1 0 -0.251952 89 1 0 1
bridge_se1_metal_flat_steel_01
0 417 37 -124 0 1 0 0.083984 89.078125 1 0 1
0 427 37 -81.0002 0 1 0 -0.251952 89 1 0 1
0 427 37 -124 0 1 0 0.083984 89 1 0 1
bridge_se1_metal_flat_steel_01
0 427 33 -81.0002 0 -1 0 -0.251952 89 1 0 1
0 412 33 -72.0002 0 -1 0 -0.322264 89.117188 1 0 1
0 412 33 -119.00325 0 -1 0 0.044947 89.117188 1 0 1
bridge_se1_metal_flat_steel_01
0 427 33 -81.0002 0 -1 0 -0.251952 89 1 0 1
0 412 33 -119.00325 0 -1 0 0.044947 89.117188 1 0 1
0 417 33 -124 0 -1 0 0.083984 89.078125 1 0 1
bridge_se1_metal_flat_steel_01
0 427 33 -81.0002 0 -1 0 -0.251952 89 1 0 1
0 417 33 -124 0 -1 0 0.083984 89.078125 1 0 1
0 427 33 -124 0 -1 0 0.083984 89 1 0 1
bridge_se1_metal_flat_steel_01
0 417 33 -124 0 0 -1 -20.916016 89.078125 1 0 1
0 417 37 -124 0 0 -1 -20.884766 89.078125 1 0 1
0 427 37 -124 0 0 -1 -20.884766 89 1 0 1
bridge_se1_metal_flat_steel_01
0 417 33 -124 0 0 -1 -20.916016 89.078125 1 0 1
0 427 37 -124 0 0 -1 -20.884766 89 1 0 1
0 427 33 -124 0 0 -1 -20.916016 89 1 0 1
bridge_se1_metal_flat_steel_01
0 94 37 -72.0002 0 1 0 90.373047 -0.070311 1 0 1
0 94 37 -118.99719 0 1 0 90.373047 0.296853 1 0 1
0 89 37 -124 0 1 0 90.412109 0.335938 1 0 1
bridge_se1_metal_flat_steel_01
0 94 37 -72.0002 0 1 0 90.373047 -0.070311 1 0 1
0 89 37 -124 0 1 0 90.412109 0.335938 1 0 1
0 79 37 -124 0 1 0 90.490234 0.335938 1 0 1
bridge_se1_metal_flat_steel_01
0 94 37 -72.0002 0 1 0 90.373047 -0.070311 1 0 1
0 79 37 -124 0 1 0 90.490234 0.335938 1 0 1
0 79 37 -81.0002 0 1 0 90.490234 0.000002 1 0 1
bridge_se1_metal_flat_steel_01
0 94 33 -118.99719 0 -1 0 0.0449 91.601562 1 0 1
0 94 33 -72.0002 0 -1 0 -0.322264 91.601562 1 0 1
0 79 33 -81.0002 0 -1 0 -0.251952 91.71875 1 0 1
bridge_se1_metal_flat_steel_01
0 94 33 -118.99719 0 -1 0 0.0449 91.601562 1 0 1
0 79 33 -81.0002 0 -1 0 -0.251952 91.71875 1 0 1
0 79 33 -124 0 -1 0 0.083984 91.71875 1 0 1
bridge_se1_metal_flat_steel_01
0 94 33 -118.99719 0 -1 0 0.0449 91.601562 1 0 1
0 79 33 -124 0 -1 0 0.083984 91.71875 1 0 1
0 89 33 -124 0 -1 0 0.083984 91.640625 1 0 1
bridge_se1_metal_flat_steel_01
0 89 33 -124 0 0 -1 -20.916016 91.640625 1 0 1
0 79 33 -124 0 0 -1 -20.916016 91.71875 1 0 1
0 79 37 -124 0 0 -1 -20.884766 91.71875 1 0 1
bridge_se1_metal_flat_steel_01
0 89 33 -124 0 0 -1 -20.916016 91.640625 1 0 1
0 79 37 -124 0 0 -1 -20.884766 91.71875 1 0 1
0 89 37 -124 0 0 -1 -20.884766 91.640625 1 0 1
bridge_se1_metal_flat_steel_01
0 94 33 -118.99719 0.707305 0 -0.706908 30.045235 60.601227 1 0 1
0 89 33 -124 0.707305 0 -0.706908 30.084309 60.640301 1 0 1
0 89 37 -124 0.707305 0 -0.706908 30.106405 60.618204 1 0 1
bridge_se1_metal_flat_steel_01
0 94 33 -118.99719 0.707305 0 -0.706908 30.045235 60.601227 1 0 1
0 89 37 -124 0.707305 0 -0.706908 30.106405 60.618204 1 0 1
0 94 37 -118.99719 0.707305 0 -0.706908 30.067332 60.57913 1 0 1
bridge_se1_metal_flat_steel_01
0 79 33 -81.0002 -0.514496 0 0.857493 21.552734 77.983528 1 0 1
0 94 33 -72.0002 -0.514496 0 0.857493 21.552734 77.846864 1 0 1
0 94 37 -72.0002 -0.514496 0 0.857493 21.521484 77.846864 1 0 1
bridge_se1_metal_flat_steel_01
0 79 33 -81.0002 -0.514496 0 0.857493 21.552734 77.983528 1 0 1
0 94 37 -72.0002 -0.514496 0 0.857493 21.521484 77.846864 1 0 1
0 79 37 -81.0002 -0.514496 0 0.857493 21.521484 77.983528 1 0 1
pepsi2_arch_concrete_stair01
0 427 37 -124 1 0 0 -20.628906 1.748047 1 0 1
0 427 112 -124 1 0 0 -20.042969 1.748047 1 0 1
0 427 112 -115 1 0 0 -20.042969 1.818359 1 0 1
pepsi2_arch_concrete_stair01
0 427 37 -124 1 0 0 -20.628906 1.748047 1 0 1
0 427 112 -115 1 0 0 -20.042969 1.818359 1 0 1
0 427 37 -115 1 0 0 -20.628906 1.818359 1 0 1
pepsi2_arch_concrete_floor_smooth01
0 417 37 -124 0 0 -1 21.4375 -87.082031 1 0 1
0 417 112 -124 0 0 -1 20.851562 -87.082031 1 0 1
0 427 112 -124 0 0 -1 20.851562 -87.003906 1 0 1
pepsi2_arch_concrete_floor_smooth01
0 417 37 -124 0 0 -1 21.4375 -87.082031 1 0 1
0 427 112 -124 0 0 -1 20.851562 -87.003906 1 0 1
0 427 37 -124 0 0 -1 21.4375 -87.003906 1 0 1
pepsi2_arch_concrete_stair01
0 427 37 -115 0 0 1 -20.628906 88.818359 1 0 1
0 427 112 -115 0 0 1 -20.042969 88.818359 1 0 1
0 412 112 -115 0 0 1 -20.042969 88.935547 1 0 1
pepsi2_arch_concrete_stair01
0 427 37 -115 0 0 1 -20.628906 88.818359 1 0 1
0 412 112 -115 0 0 1 -20.042969 88.935547 1 0 1
0 412 37 -115 0 0 1 -20.628906 88.935547 1 0 1
pepsi2_arch_concrete_floor_smooth01
0 412 112 -119.00325 -0.706877 0 -0.707337 20.851562 -61.135759 1 0 1
0 417 112 -124 -0.706877 0 -0.707337 20.851562 -61.080534 1 0 1
0 417 37 -124 -0.706877 0 -0.707337 21.4375 -61.080534 1 0 1
pepsi2_arch_concrete_floor_smooth01
0 412 112 -119.00325 -0.706877 0 -0.707337 20.851562 -61.135759 1 0 1
0 417 37 -124 -0.706877 0 -0.707337 21.4375 -61.080534 1 0 1
0 412 37 -119.00325 -0.706877 0 -0.707337 21.4375 -61.135759 1 0 1
pepsi2_arch_tiles02a_e
0 79 -112 4 0 0 1 -90.867188 23.621094 1 0 1
0 221 -112 4 0 0 1 -89.757812 23.621094 1 0 1
0 221 -37 4 0 0 1 -89.757812 23.035156 1 0 1
pepsi2_arch_tiles02a_e
0 79 -112 4 0 0 1 -90.867188 23.621094 1 0 1
0 221 -37 4 0 0 1 -89.757812 23.035156 1 0 1
0 79 -37 4 0 0 1 -90.867188 23.035156 1 0 1
pepsi2_arch_concrete_floor_smooth01
0 79 -37 -5 0 1 0 -0.984375 -89.722656 1 0 1
0 79 -37 4 0 1 0 -1.054688 -89.722656 1 0 1
0 221 -37 4 0 1 0 -1.054688 -88.613281 1 0 1
pepsi2_arch_concrete_floor_smooth01
0 79 -37 -5 0 1 0 -0.984375 -89.722656 1 0 1
0 221 -37 4 0 1 0 -1.054688 -88.613281 1 0 1
0 221 -37 -5 0 1 0 -0.984375 -88.613281 1 0 1
pepsi2_arch_concrete_floor_smooth01
0 221 -112 -5 0 0 -1 22.601562 -88.613281 1 0 1
0 79 -112 -5 0 0 -1 22.601562 -89.722656 1 0 1
0 79 -37 -5 0 0 -1 22.015625 -89.722656 1 0 1
pepsi2_arch_concrete_floor_smooth01
0 221 -112 -5 0 0 -1 22.601562 -88.613281 1 0 1
0 79 -37 -5 0 0 -1 22.015625 -89.722656 1 0 1
0 221 -37 -5 0 0 -1 22.015625 -88.613281 1 0 1
bridge_se1_metal_flat_steel_01
0 225 37 47 0 1 0 89.349609 -1 1 0 1
0 225 37 4 0 1 0 89.349609 -0.664062 1 0 1
0 221 37 4 0 1 0 89.380859 -0.664062 1 0 1
bridge_se1_metal_flat_steel_01
0 225 37 47 0 1 0 89.349609 -1 1 0 1
0 221 37 4 0 1 0 89.380859 -0.664062 1 0 1
0 221 37 47 0 1 0 89.380859 -1 1 0 1
bridge_se1_metal_flat_steel_01
0 225 -41 4 0 -1 0 -89.697266 -0.664062 1 0 1
0 225 -41 47 0 -1 0 -89.697266 -1 1 0 1
0 221 -41 47 0 -1 0 -89.728516 -1 1 0 1
bridge_se1_metal_flat_steel_01
0 225 -41 4 0 -1 0 -89.697266 -0.664062 1 0 1
0 221 -41 47 0 -1 0 -89.728516 -1 1 0 1
0 221 -41 4 0 -1 0 -89.728516 -0.664062 1 0 1
bridge_se1_metal_flat_steel_01
0 221 -41 4 -1 0 0 22.130859 -0.664062 1 0 1
0 221 -41 47 -1 0 0 22.130859 -1 1 0 1
0 221 37 47 -1 0 0 21.521484 -1 1 0 1
bridge_se1_metal_flat_steel_01
0 221 -41 4 -1 0 0 22.130859 -0.664062 1 0 1
0 221 37 47 -1 0 0 21.521484 -1 1 0 1
0 221 37 4 -1 0 0 21.521484 -0.664062 1 0 1
bridge_se1_metal_flat_steel_01
0 225 -41 47 1 0 0 22.130859 -1 1 0 1
0 225 -41 4 1 0 0 22.130859 -0.664062 1 0 1
0 225 37 4 1 0 0 21.521484 -0.664062 1 0 1
bridge_se1_metal_flat_steel_01
0 225 -41 47 1 0 0 22.130859 -1 1 0 1
0 225 37 4 1 0 0 21.521484 -0.664062 1 0 1
0 225 37 47 1 0 0 21.521484 -1 1 0 1
bridge_se1_metal_flat_steel_01
0 221 -41 47 0 0 1 22.130859 89.859375 1 0 1
0 225 -41 47 0 0 1 22.130859 89.828125 1 0 1
0 225 37 47 0 0 1 21.521484 89.828125 1 0 1
bridge_se1_metal_flat_steel_01
0 221 -41 47 0 0 1 22.130859 89.859375 1 0 1
0 225 37 47 0 0 1 21.521484 89.828125 1 0 1
0 221 37 47 0 0 1 21.521484 89.859375 1 0 1
bridge_se1_metal_flat_steel_01
0 -4 -112 -12 0 1 0 90.875 2.53125 1 0 1
0 -8 -112 -16 0 1 0 90.90625 2.5 1 0 1
0 -56 -112 -16 0 1 0 91.28125 2.5 1 0 1
bridge_se1_metal_flat_steel_01
0 -4 -112 -12 0 1 0 90.875 2.53125 1 0 1
0 -56 -112 -16 0 1 0 91.28125 2.5 1 0 1
0 -60 -112 -12 0 1 0 91.3125 2.53125 1 0 1
bridge_se1_metal_flat_steel_01
0 -8 -122 -16 0 -1 0 -90.671875 2.5 1 0 1
0 -4 -122 -12 0 -1 0 -90.640625 2.53125 1 0 1
0 -60 -122 -12 0 -1 0 -91.078125 2.53125 1 0 1
bridge_se1_metal_flat_steel_01
0 -8 -122 -16 0 -1 0 -90.671875 2.5 1 0 1
0 -60 -122 -12 0 -1 0 -91.078125 2.53125 1 0 1
0 -56 -122 -16 0 -1 0 -91.046875 2.5 1 0 1
bridge_se1_metal_flat_steel_01
0 -56 -122 -16 0 0 -1 22.15625 92.703125 1 0 1
0 -56 -112 -16 0 0 -1 22.078125 92.703125 1 0 1
0 -8 -112 -16 0 0 -1 22.078125 92.328125 1 0 1
bridge_se1_metal_flat_steel_01
0 -56 -122 -16 0 0 -1 22.15625 92.703125 1 0 1
0 -8 -112 -16 0 0 -1 22.078125 92.328125 1 0 1
0 -8 -122 -16 0 0 -1 22.15625 92.328125 1 0 1
pepsi2_arch_concrete_stair01
0 300 37 4 1 0 0 -20.628906 2.818359 1 0 1
0 300 37 -10.528 1 0 0 -20.628906 2.704859 1 0 1
0 300 112 -10.528 1 0 0 -20.042969 2.704859 1 0 1
pepsi2_arch_concrete_stair01
0 300 37 4 1 0 0 -20.628906 2.818359 1 0 1
0 300 112 -10.528 1 0 0 -20.042969 2.704859 1 0 1
0 300 112 4 1 0 0 -20.042969 2.818359 1 0 1
pepsi2_arch_concrete_floor_smooth01
0 285 37 4 0 0 1 -21.453125 -87.394531 1 0 1
0 300 37 4 0 0 1 -21.453125 -87.277344 1 0 1
0 300 112 4 0 0 1 -20.867188 -87.277344 1 0 1
pepsi2_arch_concrete_floor_smooth01
0 285 37 4 0 0 1 -21.453125 -87.394531 1 0 1
0 300 112 4 0 0 1 -20.867188 -87.277344 1 0 1
0 285 112 4 0 0 1 -20.867188 -87.394531 1 0 1
pepsi2_arch_concrete_floor_smooth01
0 300 37 -10.528 -0.695715 0 -0.718318 21.4375 -63.352709 1 0 1
0 285 37 4 -0.695715 0 -0.718318 21.4375 -63.515847 1 0 1
0 285 112 4 -0.695715 0 -0.718318 20.851562 -63.515847 1 0 1
pepsi2_arch_concrete_floor_smooth01
0 300 37 -10.528 -0.695715 0 -0.718318 21.4375 -63.352709 1 0 1
0 285 112 4 -0.695715 0 -0.718318 20.851562 -63.515847 1 0 1
0 300 112 -10.528 -0.695715 0 -0.718318 20.851562 -63.352709 1 0 1
bridge_se1_metal_flat_steel_01
0 306 -122 4 0 -1 0 1.476562 89.617188 1 0 1
0 306 -122 116.003 0 -1 0 2.351586 89.617188 1 0 1
0 302 -122 112.003 0 -1 0 2.320336 89.648438 1 0 1
bridge_se1_metal_flat_steel_01
0 306 -122 4 0 -1 0 1.476562 89.617188 1 0 1
0 302 -122 112.003 0 -1 0 2.320336 89.648438 1 0 1
0 302 -122 4 0 -1 0 1.476562 89.648438 1 0 1
bridge_se1_metal_flat_steel_01
0 302 -122 4 -1 0 0 1.476562 23.726562 1 0 1
0 302 -122 112.003 -1 0 0 2.320336 23.726562 1 0 1
0 302 -112 112.003 -1 0 0 2.320336 23.648438 1 0 1
bridge_se1_metal_flat_steel_01
0 302 -122 4 -1 0 0 1.476562 23.726562 1 0 1
0 302 -112 112.003 -1 0 0 2.320336 23.648438 1 0 1
0 302 -112 4 -1 0 0 1.476562 23.648438 1 0 1
bridge_se1_metal_flat_steel_01
0 306 -122 4 0 0 -1 -21.796875 -88.179688 1 0 1
0 302 -122 4 0 0 -1 -21.796875 -88.210938 1 0 1
0 302 -112 4 0 0 -1 -21.71875 -88.210938 1 0 1
bridge_se1_metal_flat_steel_01
0 306 -122 4 0 0 -1 -21.796875 -88.179688 1 0 1
0 302 -112 4 0 0 -1 -21.71875 -88.210938 1 0 1
0 306 -112 4 0 0 -1 -21.71875 -88.179688 1 0 1
bridge_se1_metal_flat_steel_01
0 302 -122 112.003 -0.707107 0 0.707107 21.796875 -60.777322 1 0 1
0 306 -122 116.003 -0.707107 0 0.707107 21.796875 -60.733128 1 0 1
0 306 -112 116.003 -0.707107 0 0.707107 21.71875 -60.733128 1 0 1
bridge_se1_metal_flat_steel_01
0 302 -122 112.003 -0.707107 0 0.707107 21.796875 -60.777322 1 0 1
0 306 -112 116.003 -0.707107 0 0.707107 21.71875 -60.733128 1 0 1
0 302 -112 112.003 -0.707107 0 0.707107 21.71875 -60.777322 1 0 1
bridge_se1_metal_flat_steel_01
0 306 -112 116.003 0 1 0 2.351586 89.617188 1 0 1
0 306 -112 4 0 1 0 1.476562 89.617188 1 0 1
0 302 -112 4 0 1 0 1.476562 89.648438 1 0 1
bridge_se1_metal_flat_steel_01
0 306 -112 116.003 0 1 0 2.351586 89.617188 1 0 1
0 302 -112 4 0 1 0 1.476562 89.648438 1 0 1
0 302 -112 112.003 0 1 0 2.320336 89.648438 1 0 1
pepsi2_arch_concrete_stair01
0 174 37 -41.5155 -1 0 0 20.957031 1.697145 1 0 1
0 174 37 -26.0221 -1 0 0 20.957031 1.818187 1 0 1
0 174 112 -26.0221 -1 0 0 20.371094 1.818187 1 0 1
pepsi2_arch_concrete_stair01
0 174 37 -41.5155 -1 0 0 20.957031 1.697145 1 0 1
0 174 112 -26.0221 -1 0 0 20.371094 1.818187 1 0 1
0 174 112 -41.5155 -1 0 0 20.371094 1.697145 1 0 1
pepsi2_arch_concrete_stair01
0 174 37 -26.0221 0 0 1 20.957031 -89.181641 1 0 1
0 190 37 -26.0221 0 0 1 20.957031 -89.056641 1 0 1
0 190 112 -26.0221 0 0 1 20.371094 -89.056641 1 0 1
pepsi2_arch_concrete_stair01
0 174 37 -26.0221 0 0 1 20.957031 -89.181641 1 0 1
0 190 112 -26.0221 0 0 1 20.371094 -89.056641 1 0 1
0 174 112 -26.0221 0 0 1 20.371094 -89.181641 1 0 1
pepsi2_arch_concrete_floor_smooth01
0 190 37 -26.0221 0.695642 0 -0.718388 -21.148438 64.819374 1 0 1
0 174 37 -41.5155 0.695642 0 -0.718388 -21.148438 64.993371 1 0 1
0 174 112 -41.5155 0.695642 0 -0.718388 -20.5625 64.993371 1 0 1
pepsi2_arch_concrete_floor_smooth01
0 190 37 -26.0221 0.695642 0 -0.718388 -21.148438 64.819374 1 0 1
0 174 112 -41.5155 0.695642 0 -0.718388 -20.5625 64.993371 1 0 1
0 190 112 -26.0221 0.695642 0 -0.718388 -20.5625 64.819374 1 0 1
pepsi2_arch_concrete_stair01
0 412 37 -103.5091 1 0 0 -20.628906 1.818288 1 0 1
0 412 37 -118.99844 1 0 0 -20.628906 1.697278 1 0 1
0 412 112 -118.99844 1 0 0 -20.042969 1.697278 1 0 1
pepsi2_arch_concrete_stair01
0 412 37 -103.5091 1 0 0 -20.628906 1.818288 1 0 1
0 412 112 -118.99844 1 0 0 -20.042969 1.697278 1 0 1
0 412 112 -103.5091 1 0 0 -20.042969 1.818288 1 0 1
pepsi2_arch_concrete_stair01
0 396 37 -103.5091 0 0 1 -20.628906 88.943359 1 0 1
0 412 37 -103.5091 0 0 1 -20.628906 88.818359 1 0 1
0 412 112 -103.5091 0 0 1 -20.042969 88.818359 1 0 1
pepsi2_arch_concrete_stair01
0 396 37 -103.5091 0 0 1 -20.628906 88.943359 1 0 1
0 412 112 -103.5091 0 0 1 -20.042969 88.818359 1 0 1
0 396 112 -103.5091 0 0 1 -20.042969 88.943359 1 0 1
pepsi2_arch_concrete_floor_smooth01
0 412 37 -118.99844 -0.695548 0 -0.718479 21.4375 -62.135662 1 0 1
0 396 37 -103.5091 -0.695548 0 -0.718479 21.4375 -62.309636 1 0 1
0 396 112 -103.5091 -0.695548 0 -0.718479 20.851562 -62.309636 1 0 1
pepsi2_arch_concrete_floor_smooth01
0 412 37 -118.99844 -0.695548 0 -0.718479 21.4375 -62.135662 1 0 1
0 396 112 -103.5091 -0.695548 0 -0.718479 20.851562 -62.309636 1 0 1
0 412 112 -118.99844 -0.695548 0 -0.718479 20.851562 -62.135662 1 0 1
pepsi2_arch_concrete_stair01
0 380 112 -72.5078 0 0 1 -20.042969 88.818359 1 0 1
0 364 112 -72.5078 0 0 1 -20.042969 88.943359 1 0 1
0 364 37 -72.5078 0 0 1 -20.628906 88.943359 1 0 1
pepsi2_arch_concrete_stair01
0 380 112 -72.5078 0 0 1 -20.042969 88.818359 1 0 1
0 364 37 -72.5078 0 0 1 -20.628906 88.943359 1 0 1
0 380 37 -72.5078 0 0 1 -20.628906 88.818359 1 0 1
pepsi2_arch_concrete_floor_smooth01
0 380 37 -87.9993 -0.695598 0 -0.718431 21.4375 -62.484742 1 0 1
0 364 37 -72.5078 -0.695598 0 -0.718431 21.4375 -62.658729 1 0 1
0 364 112 -72.5078 -0.695598 0 -0.718431 20.851562 -62.658729 1 0 1
pepsi2_arch_concrete_floor_smooth01
0 380 37 -87.9993 -0.695598 0 -0.718431 21.4375 -62.484742 1 0 1
0 364 112 -72.5078 -0.695598 0 -0.718431 20.851562 -62.658729 1 0 1
0 380 112 -87.9993 -0.695598 0 -0.718431 20.851562 -62.484742 1 0 1
pepsi2_arch_concrete_stair01
0 380 37 -87.9993 1 0 0 -20.628906 1.697271 1 0 1
0 380 112 -87.9993 1 0 0 -20.042969 1.697271 1 0 1
0 380 112 -72.5078 1 0 0 -20.042969 1.818298 1 0 1
pepsi2_arch_concrete_stair01
0 380 37 -87.9993 1 0 0 -20.628906 1.697271 1 0 1
0 380 112 -72.5078 1 0 0 -20.042969 1.818298 1 0 1
0 380 37 -72.5078 1 0 0 -20.628906 1.818298 1 0 1
pepsi2_arch_concrete_stair01
0 348 37 -41.5161 1 0 0 -20.628906 1.820187 1 0 1
0 348 37 -57.0108 1 0 0 -20.628906 1.699134 1 0 1
0 348 112 -57.0108 1 0 0 -20.042969 1.699134 1 0 1
pepsi2_arch_concrete_stair01
0 348 37 -41.5161 1 0 0 -20.628906 1.820187 1 0 1
0 348 112 -57.0108 1 0 0 -20.042969 1.699134 1 0 1
0 348 112 -41.5161 1 0 0 -20.042969 1.820187 1 0 1
pepsi2_arch_concrete_stair01
0 332 37 -41.5161 0 0 1 -20.628906 89.945312 1 0 1
0 348 37 -41.5161 0 0 1 -20.628906 89.820312 1 0 1
0 348 112 -41.5161 0 0 1 -20.042969 89.820312 1 0 1
pepsi2_arch_concrete_stair01
0 332 37 -41.5161 0 0 1 -20.628906 89.945312 1 0 1
0 348 112 -41.5161 0 0 1 -20.042969 89.820312 1 0 1
0 332 112 -41.5161 0 0 1 -20.042969 89.945312 1 0 1
pepsi2_arch_concrete_floor_smooth01
0 348 37 -57.0108 -0.695672 0 -0.718359 21.4375 -62.829685 1 0 1
0 332 37 -41.5161 -0.695672 0 -0.718359 21.4375 -63.003688 1 0 1
0 332 112 -41.5161 -0.695672 0 -0.718359 20.851562 -63.003688 1 0 1
pepsi2_arch_concrete_floor_smooth01
0 348 37 -57.0108 -0.695672 0 -0.718359 21.4375 -62.829685 1 0 1
0 332 112 -41.5161 -0.695672 0 -0.718359 20.851562 -63.003688 1 0 1
0 348 112 -57.0108 -0.695672 0 -0.718359 20.851562 -62.829685 1 0 1
bridge_se1_metal_flat_steel_01
0 302 -112 112 0 1 0 2.320312 89.648438 1 0 1
0 206 -112 112 0 1 0 2.320312 90.398438 1 0 1
0 202 -112 116 0 1 0 2.351562 90.429688 1 0 1
bridge_se1_metal_flat_steel_01
0 302 -112 112 0 1 0 2.320312 89.648438 1 0 1
0 202 -112 116 0 1 0 2.351562 90.429688 1 0 1
0 306 -112 116 0 1 0 2.351562 89.617188 1 0 1
bridge_se1_metal_flat_steel_01
0 306 -122 116 0 -1 0 2.351562 89.617188 1 0 1
0 202 -122 116 0 -1 0 2.351562 90.429687 1 0 1
0 206 -122 112 0 -1 0 2.320312 90.398438 1 0 1
bridge_se1_metal_flat_steel_01
0 306 -122 116 0 -1 0 2.351562 89.617188 1 0 1
0 206 -122 112 0 -1 0 2.320312 90.398438 1 0 1
0 302 -122 112 0 -1 0 2.320312 89.648438 1 0 1
bridge_se1_metal_flat_steel_01
0 302 -122 112 0 0 -1 -22.757812 89.648438 1 0 1
0 206 -122 112 0 0 -1 -22.757812 90.398437 1 0 1
0 206 -112 112 0 0 -1 -22.679688 90.398438 1 0 1
bridge_se1_metal_flat_steel_01
0 302 -122 112 0 0 -1 -22.757812 89.648438 1 0 1
0 206 -112 112 0 0 -1 -22.679688 90.398438 1 0 1
0 302 -112 112 0 0 -1 -22.679688 89.648438 1 0 1
bridge_se1_metal_flat_steel_01
0 206 -122 112 -0.707107 0 -0.707107 -21.796875 -63.915095 1 0 1
0 202 -122 116 -0.707107 0 -0.707107 -21.796875 -63.959288 1 0 1
0 202 -112 116 -0.707107 0 -0.707107 -21.71875 -63.959288 1 0 1
bridge_se1_metal_flat_steel_01
0 206 -122 112 -0.707107 0 -0.707107 -21.796875 -63.915095 1 0 1
0 202 -112 116 -0.707107 0 -0.707107 -21.71875 -63.959288 1 0 1
0 206 -112 112 -0.707107 0 -0.707107 -21.71875 -63.915095 1 0 1
bridge_se1_metal_flat_steel_01
0 306 -122 116 0.707107 0 -0.707107 -21.796875 -60.733145 1 0 1
0 302 -122 112 0.707107 0 -0.707107 -21.796875 -60.777338 1 0 1
0 302 -112 112 0.707107 0 -0.707107 -21.71875 -60.777338 1 0 1
bridge_se1_metal_flat_steel_01
0 306 -122 116 0.707107 0 -0.707107 -21.796875 -60.733145 1 0 1
0 302 -112 112 0.707107 0 -0.707107 -21.71875 -60.777338 1 0 1
0 306 -112 116 0.707107 0 -0.707107 -21.71875 -60.733145 1 0 1
pepsi2_arch_concrete_stair01
0 316 37 -10.529 1 0 0 -20.628906 1.81618 1 0 1
0 316 37 -26.018 1 0 0 -20.628906 1.695172 1 0 1
0 316 112 -26.018 1 0 0 -20.042969 1.695172 1 0 1
pepsi2_arch_concrete_stair01
0 316 37 -10.529 1 0 0 -20.628906 1.81618 1 0 1
0 316 112 -26.018 1 0 0 -20.042969 1.695172 1 0 1
0 316 112 -10.529 1 0 0 -20.042969 1.81618 1 0 1
pepsi2_arch_concrete_stair01
0 300 37 -10.529 0 0 1 -20.628906 89.941406 1 0 1
0 316 37 -10.529 0 0 1 -20.628906 89.816406 1 0 1
0 316 112 -10.529 0 0 1 -20.042969 89.816406 1 0 1
pepsi2_arch_concrete_stair01
0 300 37 -10.529 0 0 1 -20.628906 89.941406 1 0 1
0 316 112 -10.529 0 0 1 -20.042969 89.816406 1 0 1
0 300 112 -10.529 0 0 1 -20.042969 89.941406 1 0 1
pepsi2_arch_concrete_floor_smooth01
0 316 37 -26.018 -0.69554 0 -0.718487 21.4375 -63.183735 1 0 1
0 300 37 -10.529 -0.69554 0 -0.718487 21.4375 -63.35772 1 0 1
0 300 112 -10.529 -0.69554 0 -0.718487 20.851562 -63.35772 1 0 1
pepsi2_arch_concrete_floor_smooth01
0 316 37 -26.018 -0.69554 0 -0.718487 21.4375 -63.183735 1 0 1
0 300 112 -10.529 -0.69554 0 -0.718487 20.851562 -63.35772 1 0 1
0 316 112 -26.018 -0.69554 0 -0.718487 20.851562 -63.183735 1 0 1
pepsi2_arch_concrete_stair01
0 206 37 -10.525 -1 0 0 20.957031 2.704883 1 0 1
0 206 37 4 -1 0 0 20.957031 2.818359 1 0 1
0 206 112 4 -1 0 0 20.371094 2.818359 1 0 1
pepsi2_arch_concrete_stair01
0 206 37 -10.525 -1 0 0 20.957031 2.704883 1 0 1
0 206 112 4 -1 0 0 20.371094 2.818359 1 0 1
0 206 112 -10.525 -1 0 0 20.371094 2.704883 1 0 1
pepsi2_arch_concrete_floor_smooth01
0 206 37 4 0 0 1 -21.453125 -88.011719 1 0 1
0 221 37 4 0 0 1 -21.453125 -87.894531 1 0 1
0 221 112 4 0 0 1 -20.867188 -87.894531 1 0 1
pepsi2_arch_concrete_floor_smooth01
0 206 37 4 0 0 1 -21.453125 -88.011719 1 0 1
0 221 112 4 0 0 1 -20.867188 -87.894531 1 0 1
0 206 112 4 0 0 1 -20.867188 -88.011719 1 0 1
pepsi2_arch_concrete_floor_smooth01
0 221 37 4 0.695641 0 -0.71839 -21.148438 64.479691 1 0 1
0 206 37 -10.525 0.695641 0 -0.71839 -21.148438 64.642812 1 0 1
0 206 112 -10.525 0.695641 0 -0.71839 -20.5625 64.642812 1 0 1
pepsi2_arch_concrete_floor_smooth01
0 221 37 4 0.695641 0 -0.71839 -21.148438 64.479691 1 0 1
0 206 112 -10.525 0.695641 0 -0.71839 -20.5625 64.642812 1 0 1
0 221 112 4 0.695641 0 -0.71839 -20.5625 64.479691 1 0 1
pepsi2_arch_concrete_floor_smooth01
0 79 -112 4 1 0 0 22.601562 2.347656 1 0 1
0 79 -112 -5 1 0 0 22.601562 2.277344 1 0 1
0 79 112 -5 1 0 0 20.851562 2.277344 1 0 1
pepsi2_arch_concrete_floor_smooth01
0 79 -112 4 1 0 0 22.601562 2.347656 1 0 1
0 79 112 -5 1 0 0 20.851562 2.277344 1 0 1
0 79 112 4 1 0 0 20.851562 2.347656 1 0 1
pepsi2_arch_concrete_floor_smooth01
0 79 -112 -5 0 0 -1 22.601562 -89.722656 1 0 1
0 -79 -112 -5 0 0 -1 22.601562 -90.957031 1 0 1
0 -79 112 -5 0 0 -1 20.851562 -90.957031 1 0 1
pepsi2_arch_concrete_floor_smooth01
0 79 -112 -5 0 0 -1 22.601562 -89.722656 1 0 1
0 -79 112 -5 0 0 -1 20.851562 -90.957031 1 0 1
0 79 112 -5 0 0 -1 20.851562 -89.722656 1 0 1
pepsi2_arch_tiles02a_e
0 -79 -112 4 0 0 1 -92.101562 23.621094 1 0 1
0 79 -112 4 0 0 1 -90.867188 23.621094 1 0 1
0 79 112 4 0 0 1 -90.867188 21.871094 1 0 1
pepsi2_arch_tiles02a_e
0 -79 -112 4 0 0 1 -92.101562 23.621094 1 0 1
0 79 112 4 0 0 1 -90.867188 21.871094 1 0 1
0 -79 112 4 0 0 1 -92.101562 21.871094 1 0 1
pepsi2_arch_concrete_stair01
0 190 37 -10.529 0 0 1 20.957031 -88.183594 1 0 1
0 206 37 -10.529 0 0 1 20.957031 -88.058594 1 0 1
0 206 112 -10.529 0 0 1 20.371094 -88.058594 1 0 1
pepsi2_arch_concrete_stair01
0 190 37 -10.529 0 0 1 20.957031 -88.183594 1 0 1
0 206 112 -10.529 0 0 1 20.371094 -88.058594 1 0 1
0 190 112 -10.529 0 0 1 20.371094 -88.183594 1 0 1
pepsi2_arch_concrete_floor_smooth01
0 190 112 -26.0208 0.695605 0 -0.718424 -20.5625 64.821924 1 0 1
0 206 112 -10.529 0.695605 0 -0.718424 -20.5625 64.647924 1 0 1
0 206 37 -10.529 0.695605 0 -0.718424 -21.148438 64.647924 1 0 1
pepsi2_arch_concrete_floor_smooth01
0 190 112 -26.0208 0.695605 0 -0.718424 -20.5625 64.821924 1 0 1
0 206 37 -10.529 0.695605 0 -0.718424 -21.148438 64.647924 1 0 1
0 190 37 -26.0208 0.695605 0 -0.718424 -21.148438 64.821924 1 0 1
pepsi2_arch_concrete_stair01
0 190 37 -10.529 -1 0 0 20.957031 1.81618 1 0 1
0 190 112 -10.529 -1 0 0 20.371094 1.81618 1 0 1
0 190 112 -26.0208 -1 0 0 20.371094 1.69515 1 0 1
pepsi2_arch_concrete_stair01
0 190 37 -10.529 -1 0 0 20.957031 1.81618 1 0 1
0 190 112 -26.0208 -1 0 0 20.371094 1.69515 1 0 1
0 190 37 -26.0208 -1 0 0 20.957031 1.69515 1 0 1
pepsi2_arch_concrete_stair01
0 110 37 -103.5056 -1 0 0 20.957031 1.697222 1 0 1
0 110 37 -88 -1 0 0 20.957031 1.818359 1 0 1
0 110 112 -88 -1 0 0 20.371094 1.818359 1 0 1
pepsi2_arch_concrete_stair01
0 110 37 -103.5056 -1 0 0 20.957031 1.697222 1 0 1
0 110 112 -88 -1 0 0 20.371094 1.818359 1 0 1
0 110 112 -103.5076 -1 0 0 20.371094 1.697206 1 0 1
pepsi2_arch_concrete_stair01
0 110 37 -88 0 0 1 20.957031 -89.181641 1 0 1
0 125.997936 37 -88 0 0 1 20.957031 -89.056657 1 0 1
0 126 112 -88 0 0 1 20.371094 -89.056641 1 0 1
pepsi2_arch_concrete_stair01
0 110 37 -88 0 0 1 20.957031 -89.181641 1 0 1
0 126 112 -88 0 0 1 20.371094 -89.056641 1 0 1
0 110 112 -88 0 0 1 20.371094 -89.181641 1 0 1
pepsi2_arch_concrete_floor_smooth01
0 125.997936 37 -88 0.695971 -0.000019 -0.71807 -21.148438 65.512933 1 0 1
0 110 37 -103.5056 0.695971 -0.000019 -0.71807 -21.148438 65.686984 1 0 1
0 110 112 -103.5076 0.695971 -0.000019 -0.71807 -20.5625 65.686994 1 0 1
pepsi2_arch_concrete_floor_smooth01
0 125.997936 37 -88 0.695971 -0.000019 -0.71807 -21.148438 65.512933 1 0 1
0 110 112 -103.5076 0.695971 -0.000019 -0.71807 -20.5625 65.686994 1 0 1
0 126 112 -88 0.695971 -0.000019 -0.71807 -20.5625 65.512922 1 0 1
pepsi2_arch_concrete_stair01
0 332 37 -41.5093 1 0 0 -20.628906 1.697193 1 0 1
0 332 112 -41.5093 1 0 0 -20.042969 1.697193 1 0 1
0 332 112 -26.0221 1 0 0 -20.042969 1.818187 1 0 1
pepsi2_arch_concrete_stair01
0 332 37 -41.5093 1 0 0 -20.628906 1.697193 1 0 1
0 332 112 -26.0221 1 0 0 -20.042969 1.818187 1 0 1
0 332 37 -26.0221 1 0 0 -20.628906 1.818187 1 0 1
pepsi2_arch_concrete_stair01
0 332 37 -26.0221 0 0 1 -20.628906 89.818359 1 0 1
0 332 112 -26.0221 0 0 1 -20.042969 89.818359 1 0 1
0 316 112 -26.0221 0 0 1 -20.042969 89.943359 1 0 1
pepsi2_arch_concrete_stair01
0 332 37 -26.0221 0 0 1 -20.628906 89.818359 1 0 1
0 316 112 -26.0221 0 0 1 -20.042969 89.943359 1 0 1
0 316 37 -26.0221 0 0 1 -20.628906 89.943359 1 0 1
pepsi2_arch_concrete_floor_smooth01
0 316 37 -26.0221 -0.695499 0 -0.718527 21.4375 -63.180751 1 0 1
0 316 112 -26.0221 -0.695499 0 -0.718527 20.851562 -63.180751 1 0 1
0 332 112 -41.5093 -0.695499 0 -0.718527 20.851562 -63.006787 1 0 1
pepsi2_arch_concrete_floor_smooth01
0 316 37 -26.0221 -0.695499 0 -0.718527 21.4375 -63.180751 1 0 1
0 332 112 -41.5093 -0.695499 0 -0.718527 20.851562 -63.006787 1 0 1
0 332 37 -41.5093 -0.695499 0 -0.718527 21.4375 -63.006787 1 0 1
bridge_se1_metal_flat_steel_01
0 221 -41 47 0 0 1 22.130859 89.859375 1 0 1
0 221 -37 47 0 0 1 22.099609 89.859375 1 0 1
0 79 -37 47 0 0 1 22.099609 90.96875 1 0 1
bridge_se1_metal_flat_steel_01
0 221 -41 47 0 0 1 22.130859 89.859375 1 0 1
0 79 -37 47 0 0 1 22.099609 90.96875 1 0 1
0 79 -41 47 0 0 1 22.130859 90.96875 1 0 1
bridge_se1_metal_flat_steel_01
0 221 -37 47 0 1 0 88.958984 -1 1 0 1
0 221 -37 4 0 1 0 88.958984 -0.664062 1 0 1
0 79 -37 4 0 1 0 90.068359 -0.664062 1 0 1
bridge_se1_metal_flat_steel_01
0 221 -37 47 0 1 0 88.958984 -1 1 0 1
0 79 -37 4 0 1 0 90.068359 -0.664062 1 0 1
0 79 -37 47 0 1 0 90.068359 -1 1 0 1
bridge_se1_metal_flat_steel_01
0 221 -41 4 0 -1 0 -89.728516 -0.664062 1 0 1
0 221 -41 47 0 -1 0 -89.728516 -1 1 0 1
0 79 -41 47 0 -1 0 -90.837891 -1 1 0 1
bridge_se1_metal_flat_steel_01
0 221 -41 4 0 -1 0 -89.728516 -0.664062 1 0 1
0 79 -41 47 0 -1 0 -90.837891 -1 1 0 1
0 79 -41 4 0 -1 0 -90.837891 -0.664062 1 0 1
pepsi2_arch_concrete_stair01
0 79 37 -124 -1 0 0 20.957031 1.748047 1 0 1
0 79 37 -115 -1 0 0 20.957031 1.818359 1 0 1
0 79 112 -115 -1 0 0 20.371094 1.818359 1 0 1
pepsi2_arch_concrete_stair01
0 79 37 -124 -1 0 0 20.957031 1.748047 1 0 1
0 79 112 -115 -1 0 0 20.371094 1.818359 1 0 1
0 79 112 -124 -1 0 0 20.371094 1.748047 1 0 1
pepsi2_arch_concrete_floor_smooth01
0 89 37 -124 0 0 -1 -21.148438 90.917969 1 0 1
0 79 37 -124 0 0 -1 -21.148438 90.996094 1 0 1
0 79 112 -124 0 0 -1 -20.5625 90.996094 1 0 1
pepsi2_arch_concrete_floor_smooth01
0 89 37 -124 0 0 -1 -21.148438 90.917969 1 0 1
0 79 112 -124 0 0 -1 -20.5625 90.996094 1 0 1
0 89 112 -124 0 0 -1 -20.5625 90.917969 1 0 1
pepsi2_arch_concrete_stair01
0 79 37 -115 0 0 1 20.957031 -89.181641 1 0 1
0 94 37 -115 0 0 1 20.957031 -89.064453 1 0 1
0 94 112 -115 0 0 1 20.371094 -89.064453 1 0 1
pepsi2_arch_concrete_stair01
0 79 37 -115 0 0 1 20.957031 -89.181641 1 0 1
0 94 112 -115 0 0 1 20.371094 -89.064453 1 0 1
0 79 112 -115 0 0 1 20.371094 -89.181641 1 0 1
pepsi2_arch_concrete_floor_smooth01
0 94 37 -118.99719 0.707305 0 -0.706908 -21.148438 64.862611 1 0 1
0 89 37 -124 0.707305 0 -0.706908 -21.148438 64.917869 1 0 1
0 89 112 -124 0.707305 0 -0.706908 -20.5625 64.917869 1 0 1
pepsi2_arch_concrete_floor_smooth01
0 94 37 -118.99719 0.707305 0 -0.706908 -21.148438 64.862611 1 0 1
0 89 112 -124 0.707305 0 -0.706908 -20.5625 64.917869 1 0 1
0 94 112 -118.99719 0.707305 0 -0.706908 -20.5625 64.862611 1 0 1
pepsi2_arch_concrete_stair01
0 158 37 -57.0205 -1 0 0 20.957031 1.699059 1 0 1
0 158 37 -41.5161 -1 0 0 20.957031 1.820187 1 0 1
0 158 112 -41.5161 -1 0 0 20.371094 1.820187 1 0 1
pepsi2_arch_concrete_stair01
0 158 37 -57.0205 -1 0 0 20.957031 1.699059 1 0 1
0 158 112 -41.5161 -1 0 0 20.371094 1.820187 1 0 1
0 158 112 -57.0205 -1 0 0 20.371094 1.699059 1 0 1
pepsi2_arch_concrete_stair01
0 158 37 -41.5161 0 0 1 20.957031 -89.179688 1 0 1
0 174 37 -41.5161 0 0 1 20.957031 -89.054688 1 0 1
0 174 112 -41.5161 0 0 1 20.371094 -89.054688 1 0 1
pepsi2_arch_concrete_stair01
0 158 37 -41.5161 0 0 1 20.957031 -89.179688 1 0 1
0 174 112 -41.5161 0 0 1 20.371094 -89.054688 1 0 1
0 158 112 -41.5161 0 0 1 20.371094 -89.179688 1 0 1
pepsi2_arch_concrete_floor_smooth01
0 174 37 -41.5161 0.695897 0 -0.718142 -21.148438 64.989555 1 0 1
0 158 37 -57.0205 0.695897 0 -0.718142 -21.148438 65.163611 1 0 1
0 158 112 -57.0205 0.695897 0 -0.718142 -20.5625 65.163611 1 0 1
pepsi2_arch_concrete_floor_smooth01
0 174 37 -41.5161 0.695897 0 -0.718142 -21.148438 64.989555 1 0 1
0 158 112 -57.0205 0.695897 0 -0.718142 -20.5625 65.163611 1 0 1
0 174 112 -41.5161 0.695897 0 -0.718142 -20.5625 64.989555 1 0 1
pepsi2_arch_concrete_stair01
0 396 112 -88 0 0 1 -20.042969 88.818359 1 0 1
0 380.002063 112 -88 0 0 1 -20.042969 88.943343 1 0 1
0 380 37 -88 0 0 1 -20.628906 88.943359 1 0 1
pepsi2_arch_concrete_stair01
0 396 112 -88 0 0 1 -20.042969 88.818359 1 0 1
0 380 37 -88 0 0 1 -20.628906 88.943359 1 0 1
0 396 37 -88 0 0 1 -20.628906 88.818359 1 0 1
pepsi2_arch_concrete_floor_smooth01
0 396 37 -103.5123 -0.69608 0.000019 -0.717964 21.4375 -62.307496 1 0 1
0 380 37 -88 -0.69608 0.000019 -0.717964 21.4375 -62.481594 1 0 1
0 380.002063 112 -88 -0.69608 0.000019 -0.717964 20.851562 -62.481582 1 0 1
pepsi2_arch_concrete_floor_smooth01
0 396 37 -103.5123 -0.69608 0.000019 -0.717964 21.4375 -62.307496 1 0 1
0 380.002063 112 -88 -0.69608 0.000019 -0.717964 20.851562 -62.481582 1 0 1
0 396 112 -103.5103 -0.69608 0.000019 -0.717964 20.851562 -62.307506 1 0 1
pepsi2_arch_concrete_stair01
0 396 37 -103.5123 1 0 0 -20.628906 1.69717 1 0 1
0 396 112 -103.5103 1 0 0 -20.042969 1.697185 1 0 1
0 396 112 -88 1 0 0 -20.042969 1.818359 1 0 1
pepsi2_arch_concrete_stair01
0 396 37 -103.5123 1 0 0 -20.628906 1.69717 1 0 1
0 396 112 -88 1 0 0 -20.042969 1.818359 1 0 1
0 396 37 -88 1 0 0 -20.628906 1.818359 1 0 1
bridge_se1_metal_flat_steel_01
0 79 -41 4 0 -1 0 -90.837891 -0.664062 1 0 1
0 79 -41 47 0 -1 0 -90.837891 -1 1 0 1
0 75 -41 47 0 -1 0 -90.869141 -1 1 0 1
bridge_se1_metal_flat_steel_01
0 79 -41 4 0 -1 0 -90.837891 -0.664062 1 0 1
0 75 -41 47 0 -1 0 -90.869141 -1 1 0 1
0 75 -41 4 0 -1 0 -90.869141 -0.664062 1 0 1
bridge_se1_metal_flat_steel_01
0 75 -41 4 -1 0 0 22.130859 -0.664062 1 0 1
0 75 -41 47 -1 0 0 22.130859 -1 1 0 1
0 75 112 47 -1 0 0 20.935547 -1 1 0 1
bridge_se1_metal_flat_steel_01
0 75 -41 4 -1 0 0 22.130859 -0.664062 1 0 1
0 75 112 47 -1 0 0 20.935547 -1 1 0 1
0 75 112 4 -1 0 0 20.935547 -0.664062 1 0 1
pepsi2_arch_concrete_floor_smooth01
0 79 -41 47 1 0 0 22.046875 2.683594 1 0 1
0 79 -41 4 1 0 0 22.046875 2.347656 1 0 1
0 79 112 4 1 0 0 20.851562 2.347656 1 0 1
pepsi2_arch_concrete_floor_smooth01
0 79 -41 47 1 0 0 22.046875 2.683594 1 0 1
0 79 112 4 1 0 0 20.851562 2.347656 1 0 1
0 79 112 47 1 0 0 20.851562 2.683594 1 0 1
bridge_se1_metal_flat_steel_01
0 75 -41 47 0 0 1 22.130859 91 1 0 1
0 79 -41 47 0 0 1 22.130859 90.96875 1 0 1
0 79 112 47 0 0 1 20.935547 90.96875 1 0 1
bridge_se1_metal_flat_steel_01
0 75 -41 47 0 0 1 22.130859 91 1 0 1
0 79 112 47 0 0 1 20.935547 90.96875 1 0 1
0 75 112 47 0 0 1 20.935547 91 1 0 1
bridge_se1_metal_flat_steel_01
0 427 -41 -81 0 0 1 21.748047 89 1 0 1
0 431 -41 -81 0 0 1 21.748047 88.96875 1 0 1
0 431 37 -81 0 0 1 21.138672 88.96875 1 0 1
bridge_se1_metal_flat_steel_01
0 427 -41 -81 0 0 1 21.748047 89 1 0 1
0 431 37 -81 0 0 1 21.138672 88.96875 1 0 1
0 427 37 -81 0 0 1 21.138672 89 1 0 1
bridge_se1_metal_flat_steel_01
0 431 37 -124 0 1 0 0.083984 88.96875 1 0 1
0 427 37 -124 0 1 0 0.083984 89 1 0 1
0 427 37 -81 0 1 0 -0.251953 89 1 0 1
bridge_se1_metal_flat_steel_01
0 431 37 -124 0 1 0 0.083984 88.96875 1 0 1
0 427 37 -81 0 1 0 -0.251953 89 1 0 1
0 431 37 -81 0 1 0 -0.251953 88.96875 1 0 1
bridge_se1_metal_flat_steel_01
0 431 -41 -81 0 -1 0 -0.251953 88.96875 1 0 1
0 427 -41 -81 0 -1 0 -0.251953 89 1 0 1
0 427 -41 -124 0 -1 0 0.083984 89 1 0 1
bridge_se1_metal_flat_steel_01
0 431 -41 -81 0 -1 0 -0.251953 88.96875 1 0 1
0 427 -41 -124 0 -1 0 0.083984 89 1 0 1
0 431 -41 -124 0 -1 0 0.083984 88.96875 1 0 1
pepsi2_arch_concrete_floor_smooth01
0 427 -41 -81 -1 0 0 22.046875 0.589844 1 0 1
0 427 37 -81 -1 0 0 21.4375 0.589844 1 0 1
0 427 37 -124 -1 0 0 21.4375 0.925781 1 0 1
pepsi2_arch_concrete_floor_smooth01
0 427 -41 -81 -1 0 0 22.046875 0.589844 1 0 1
0 427 37 -124 -1 0 0 21.4375 0.925781 1 0 1
0 427 -41 -124 -1 0 0 22.046875 0.925781 1 0 1
bridge_se1_metal_flat_steel_01
0 431 -41 -124 1 0 0 0.083984 22.96875 1 0 1
0 431 37 -124 1 0 0 0.083984 22.359375 1 0 1
0 431 37 -81 1 0 0 -0.251953 22.359375 1 0 1
bridge_se1_metal_flat_steel_01
0 431 -41 -124 1 0 0 0.083984 22.96875 1 0 1
0 431 37 -81 1 0 0 -0.251953 22.359375 1 0 1
0 431 -41 -81 1 0 0 -0.251953 22.96875 1 0 1
bridge_se1_metal_flat_steel_01
0 285 37 -81 0 1 0 -0.251953 -88.21875 1 0 1
0 285 37 -124 0 1 0 0.083984 -88.21875 1 0 1
0 281 37 -124 0 1 0 0.083984 -88.25 1 0 1
bridge_se1_metal_flat_steel_01
0 285 37 -81 0 1 0 -0.251953 -88.21875 1 0 1
0 281 37 -124 0 1 0 0.083984 -88.25 1 0 1
0 281 37 -81 0 1 0 -0.251953 -88.25 1 0 1
bridge_se1_metal_flat_steel_01
0 285 -41 -124 0 -1 0 0.083984 90.109375 1 0 1
0 285 -41 -81 0 -1 0 -0.251953 90.109375 1 0 1
0 281 -41 -81 0 -1 0 -0.251953 90.140625 1 0 1
bridge_se1_metal_flat_steel_01
0 285 -41 -124 0 -1 0 0.083984 90.109375 1 0 1
0 281 -41 -81 0 -1 0 -0.251953 90.140625 1 0 1
0 281 -41 -124 0 -1 0 0.083984 90.140625 1 0 1
bridge_se1_metal_flat_steel_01
0 281 -41 -124 -1 0 0 0.083984 -20.859375 1 0 1
0 281 -41 -81 -1 0 0 -0.251953 -20.859375 1 0 1
0 281 37 -81 -1 0 0 -0.251953 -20.25 1 0 1
bridge_se1_metal_flat_steel_01
0 281 -41 -124 -1 0 0 0.083984 -20.859375 1 0 1
0 281 37 -81 -1 0 0 -0.251953 -20.25 1 0 1
0 281 37 -124 -1 0 0 0.083984 -20.25 1 0 1
bridge_se1_metal_flat_steel_01
0 285 -41 -81 1 0 0 -0.251953 23.109375 1 0 1
0 285 -41 -124 1 0 0 0.083984 23.109375 1 0 1
0 285 37 -124 1 0 0 0.083984 22.5 1 0 1
bridge_se1_metal_flat_steel_01
0 285 -41 -81 1 0 0 -0.251953 23.109375 1 0 1
0 285 37 -124 1 0 0 0.083984 22.5 1 0 1
0 285 37 -81 1 0 0 -0.251953 22.5 1 0 1
bridge_se1_metal_flat_steel_01
0 281 -41 -81 0 0 1 21.748047 90.140625 1 0 1
0 285 -41 -81 0 0 1 21.748047 90.109375 1 0 1
0 285 37 -81 0 0 1 21.138672 90.109375 1 0 1
bridge_se1_metal_flat_steel_01
0 281 -41 -81 0 0 1 21.748047 90.140625 1 0 1
0 285 37 -81 0 0 1 21.138672 90.109375 1 0 1
0 281 37 -81 0 0 1 21.138672 90.140625 1 0 1
bridge_se1_metal_flat_steel_01
0 225 37 -81 0 1 0 89.349609 0 1 0 1
0 225 37 -124 0 1 0 89.349609 0.335938 1 0 1
0 221 37 -124 0 1 0 89.380859 0.335938 1 0 1
bridge_se1_metal_flat_steel_01
0 225 37 -81 0 1 0 89.349609 0 1 0 1
0 221 37 -124 0 1 0 89.380859 0.335938 1 0 1
0 221 37 -81 0 1 0 89.380859 0 1 0 1
bridge_se1_metal_flat_steel_01
0 225 -41 -124 0 -1 0 0.083984 90.578125 1 0 1
0 225 -41 -81 0 -1 0 -0.251953 90.578125 1 0 1
0 221 -41 -81 0 -1 0 -0.251953 90.609375 1 0 1
bridge_se1_metal_flat_steel_01
0 225 -41 -124 0 -1 0 0.083984 90.578125 1 0 1
0 221 -41 -81 0 -1 0 -0.251953 90.609375 1 0 1
0 221 -41 -124 0 -1 0 0.083984 90.609375 1 0 1
bridge_se1_metal_flat_steel_01
0 221 -41 -124 -1 0 0 22.130859 0.335938 1 0 1
0 221 -41 -81 -1 0 0 22.130859 0 1 0 1
0 221 37 -81 -1 0 0 21.521484 0 1 0 1
bridge_se1_metal_flat_steel_01
0 221 -41 -124 -1 0 0 22.130859 0.335938 1 0 1
0 221 37 -81 -1 0 0 21.521484 0 1 0 1
0 221 37 -124 -1 0 0 21.521484 0.335938 1 0 1
bridge_se1_metal_flat_steel_01
0 225 -41 -81 1 0 0 -0.251953 22.578125 1 0 1
0 225 -41 -124 1 0 0 0.083984 22.578125 1 0 1
0 225 37 -124 1 0 0 0.083984 21.96875 1 0 1
bridge_se1_metal_flat_steel_01
0 225 -41 -81 1 0 0 -0.251953 22.578125 1 0 1
0 225 37 -124 1 0 0 0.083984 21.96875 1 0 1
0 225 37 -81 1 0 0 -0.251953 21.96875 1 0 1
bridge_se1_metal_flat_steel_01
0 221 -41 -81 0 0 1 22.130859 89.859375 1 0 1
0 225 -41 -81 0 0 1 22.130859 89.828125 1 0 1
0 225 37 -81 0 0 1 21.521484 89.828125 1 0 1
bridge_se1_metal_flat_steel_01
0 221 -41 -81 0 0 1 22.130859 89.859375 1 0 1
0 225 37 -81 0 0 1 21.521484 89.828125 1 0 1
0 221 37 -81 0 0 1 21.521484 89.859375 1 0 1
pepsi2_arch_concrete_stair01
0 364 37 -57.0161 1 0 0 -20.628906 1.818234 1 0 1
0 364 37 -72.5047 1 0 0 -20.628906 1.697229 1 0 1
0 364 112 -72.4997 1 0 0 -20.042969 1.697268 1 0 1
pepsi2_arch_concrete_stair01
0 364 37 -57.0161 1 0 0 -20.628906 1.818234 1 0 1
0 364 112 -72.4997 1 0 0 -20.042969 1.697268 1 0 1
0 364 112 -57.0161 1 0 0 -20.042969 1.818234 1 0 1
pepsi2_arch_concrete_stair01
0 348 37 -57.0161 0 0 1 -20.628906 88.943359 1 0 1
0 364 37 -57.0161 0 0 1 -20.628906 88.818359 1 0 1
0 364 112 -57.0161 0 0 1 -20.042969 88.818359 1 0 1
pepsi2_arch_concrete_stair01
0 348 37 -57.0161 0 0 1 -20.628906 88.943359 1 0 1
0 364 112 -57.0161 0 0 1 -20.042969 88.818359 1 0 1
0 348.005165 112 -57.0161 0 0 1 -20.042969 88.943319 1 0 1
pepsi2_arch_concrete_floor_smooth01
0 364 37 -72.5047 -0.695531 0.000048 -0.718496 21.4375 -62.658746 1 0 1
0 348 37 -57.0161 -0.695531 0.000048 -0.718496 21.4375 -62.832717 1 0 1
0 348.005165 112 -57.0161 -0.695531 0.000048 -0.718496 20.851562 -62.832688 1 0 1
pepsi2_arch_concrete_floor_smooth01
0 364 37 -72.5047 -0.695531 0.000048 -0.718496 21.4375 -62.658746 1 0 1
0 348.005165 112 -57.0161 -0.695531 0.000048 -0.718496 20.851562 -62.832688 1 0 1
0 364 112 -72.4997 -0.695531 0.000048 -0.718496 20.851562 -62.658773 1 0 1
bridge_se1_metal_flat_steel_01
0 79 -41 -81 0 0 1 22.130859 90.96875 1 0 1
0 221 -41 -81 0 0 1 22.130859 89.859375 1 0 1
0 221 -37 -81 0 0 1 22.099609 89.859375 1 0 1
bridge_se1_metal_flat_steel_01
0 79 -41 -81 0 0 1 22.130859 90.96875 1 0 1
0 221 -37 -81 0 0 1 22.099609 89.859375 1 0 1
0 79 -37 -81 0 0 1 22.099609 90.96875 1 0 1
bridge_se1_metal_flat_steel_01
0 221 -37 -124 0 1 0 88.958984 0.335938 1 0 1
0 79 -37 -124 0 1 0 90.068359 0.335938 1 0 1
0 79 -37 -81 0 1 0 90.068359 0 1 0 1
bridge_se1_metal_flat_steel_01
0 221 -37 -124 0 1 0 88.958984 0.335938 1 0 1
0 79 -37 -81 0 1 0 90.068359 0 1 0 1
0 221 -37 -81 0 1 0 88.958984 0 1 0 1
bridge_se1_metal_flat_steel_01
0 221 -41 -81 0 -1 0 -89.728516 0 1 0 1
0 79 -41 -81 0 -1 0 -90.837891 0 1 0 1
0 79 -41 -124 0 -1 0 -90.837891 0.335938 1 0 1
bridge_se1_metal_flat_steel_01
0 221 -41 -81 0 -1 0 -89.728516 0 1 0 1
0 79 -41 -124 0 -1 0 -90.837891 0.335938 1 0 1
0 221 -41 -124 0 -1 0 -89.728516 0.335938 1 0 1
bridge_se1_metal_flat_steel_01
0 221 37 47.002 0 1 0 89.380859 -1.000016 1 0 1
0 221 37 4.002 0 1 0 89.380859 -0.664078 1 0 1
0 94 37 -118.99845 0 1 0 90.373047 0.296863 1 0 1
bridge_se1_metal_flat_steel_01
0 221 37 47.002 0 1 0 89.380859 -1.000016 1 0 1
0 94 37 -118.99845 0 1 0 90.373047 0.296863 1 0 1
0 94 37 -71.9984 0 1 0 90.373047 -0.070325 1 0 1
bridge_se1_metal_flat_steel_01
0 221 33 4.002 0 -1 0 -0.916031 90.609375 1 0 1
0 221 33 47.002 0 -1 0 -1.251969 90.609375 1 0 1
0 94 33 -71.9984 0 -1 0 -0.322278 91.601562 1 0 1
bridge_se1_metal_flat_steel_01
0 221 33 4.002 0 -1 0 -0.916031 90.609375 1 0 1
0 94 33 -71.9984 0 -1 0 -0.322278 91.601562 1 0 1
0 94 33 -118.99845 0 -1 0 0.04491 91.601562 1 0 1
bridge_se1_metal_flat_steel_01
0 94 33 -71.9984 -0.683751 0 0.729715 21.552734 66.864556 1 0 1
0 221 33 47.002 -0.683751 0 0.729715 21.552734 65.504835 1 0 1
0 221 37 47.002 -0.683751 0 0.729715 21.521484 65.504835 1 0 1
bridge_se1_metal_flat_steel_01
0 94 33 -71.9984 -0.683751 0 0.729715 21.552734 66.864556 1 0 1
0 221 37 47.002 -0.683751 0 0.729715 21.521484 65.504835 1 0 1
0 94 37 -71.9984 -0.683751 0 0.729715 21.521484 66.864556 1 0 1
bridge_se1_metal_flat_steel_01
0 221 33 4.002 0.695705 0 -0.718327 29.081067 60.609038 1 0 1
0 94 33 -118.99845 0.695705 0 -0.718327 30.041958 61.601189 1 0 1
0 94 37 -118.99845 0.695705 0 -0.718327 30.064405 61.579449 1 0 1
bridge_se1_metal_flat_steel_01
0 221 33 4.002 0.695705 0 -0.718327 29.081067 60.609038 1 0 1
0 94 37 -118.99845 0.695705 0 -0.718327 30.064405 61.579449 1 0 1
0 221 37 4.002 0.695705 0 -0.718327 29.103514 60.587298 1 0 1
bridge_se1_metal_flat_steel_01
0 -4 -112 -11.997 0 1 0 90.875 2.531273 1 0 1
0 -4 -112 -124 0 1 0 90.875 1.65625 1 0 1
0 -8 -112 -124 0 1 0 90.90625 1.65625 1 0 1
bridge_se1_metal_flat_steel_01
0 -4 -112 -11.997 0 1 0 90.875 2.531273 1 0 1
0 -8 -112 -124 0 1 0 90.90625 1.65625 1 0 1
0 -8 -112 -15.997 0 1 0 90.90625 2.500023 1 0 1
bridge_se1_metal_flat_steel_01
0 -4 -122 -124 0 -1 0 -90.640625 1.65625 1 0 1
0 -4 -122 -11.997 0 -1 0 -90.640625 2.531273 1 0 1
0 -8 -122 -15.997 0 -1 0 -90.671875 2.500023 1 0 1
bridge_se1_metal_flat_steel_01
0 -4 -122 -124 0 -1 0 -90.640625 1.65625 1 0 1
0 -8 -122 -15.997 0 -1 0 -90.671875 2.500023 1 0 1
0 -8 -122 -124 0 -1 0 -90.671875 1.65625 1 0 1
bridge_se1_metal_flat_steel_01
0 -8 -122 -124 -1 0 0 22.15625 1.65625 1 0 1
0 -8 -122 -15.997 -1 0 0 22.15625 2.500023 1 0 1
0 -8 -112 -15.997 -1 0 0 22.078125 2.500023 1 0 1
bridge_se1_metal_flat_steel_01
0 -8 -122 -124 -1 0 0 22.15625 1.65625 1 0 1
0 -8 -112 -15.997 -1 0 0 22.078125 2.500023 1 0 1
0 -8 -112 -124 -1 0 0 22.078125 1.65625 1 0 1
bridge_se1_metal_flat_steel_01
0 427 -37 47 0 1 0 -1.251953 89 1 0 1
0 427 -37 4 0 1 0 -0.916016 89 1 0 1
0 285 -37 4 0 1 0 -0.916016 90.109375 1 0 1
bridge_se1_metal_flat_steel_01
0 427 -37 47 0 1 0 -1.251953 89 1 0 1
0 285 -37 4 0 1 0 -0.916016 90.109375 1 0 1
0 285 -37 47 0 1 0 -1.251953 90.109375 1 0 1
bridge_se1_metal_flat_steel_01
0 427 -41 4 0 -1 0 -0.916016 89 1 0 1
0 427 -41 47 0 -1 0 -1.251953 89 1 0 1
0 285 -41 47 0 -1 0 -1.251953 90.109375 1 0 1
bridge_se1_metal_flat_steel_01
0 427 -41 4 0 -1 0 -0.916016 89 1 0 1
0 285 -41 47 0 -1 0 -1.251953 90.109375 1 0 1
0 285 -41 4 0 -1 0 -0.916016 90.109375 1 0 1
bridge_se1_metal_flat_steel_01
0 285 -41 47 0 0 1 21.748047 90.109375 1 0 1
0 427 -41 47 0 0 1 21.748047 89 1 0 1
0 427 -37 47 0 0 1 21.716797 89 1 0 1
bridge_se1_metal_flat_steel_01
0 285 -41 47 0 0 1 21.748047 90.109375 1 0 1
0 427 -37 47 0 0 1 21.716797 89 1 0 1
0 285 -37 47 0 0 1 21.716797 90.109375 1 0 1
pepsi2_arch_concrete_stair01
0 126 37 -87.9995 -1 0 0 20.957031 1.69727 1 0 1
0 126 37 -72.5078 -1 0 0 20.957031 1.818298 1 0 1
0 126 112 -72.5078 -1 0 0 20.371094 1.818298 1 0 1
pepsi2_arch_concrete_stair01
0 126 37 -87.9995 -1 0 0 20.957031 1.69727 1 0 1
0 126 112 -72.5078 -1 0 0 20.371094 1.818298 1 0 1
0 126 112 -87.9995 -1 0 0 20.371094 1.69727 1 0 1
pepsi2_arch_concrete_stair01
0 126 37 -72.5078 0 0 1 20.957031 -89.181641 1 0 1
0 142 37 -72.5078 0 0 1 20.957031 -89.056641 1 0 1
0 142 112 -72.5078 0 0 1 20.371094 -89.056641 1 0 1
pepsi2_arch_concrete_stair01
0 126 37 -72.5078 0 0 1 20.957031 -89.181641 1 0 1
0 142 112 -72.5078 0 0 1 20.371094 -89.056641 1 0 1
0 126 112 -72.5078 0 0 1 20.371094 -89.181641 1 0 1
pepsi2_arch_concrete_floor_smooth01
0 142 37 -72.5078 0.695603 0 -0.718426 -21.148438 65.341396 1 0 1
0 126 37 -87.9995 0.695603 0 -0.718426 -21.148438 65.515384 1 0 1
0 126 112 -87.9995 0.695603 0 -0.718426 -20.5625 65.515384 1 0 1
pepsi2_arch_concrete_floor_smooth01
0 142 37 -72.5078 0.695603 0 -0.718426 -21.148438 65.341396 1 0 1
0 126 112 -87.9995 0.695603 0 -0.718426 -20.5625 65.515384 1 0 1
0 142 112 -72.5078 0.695603 0 -0.718426 -20.5625 65.341396 1 0 1
bridge_se1_metal_flat_steel_01
0 285 37 47 0 1 0 -1.251953 90.109375 1 0 1
0 285 37 4 0 1 0 -0.916016 90.109375 1 0 1
0 281 37 4 0 1 0 -0.916016 90.140625 1 0 1
bridge_se1_metal_flat_steel_01
0 285 37 47 0 1 0 -1.251953 90.109375 1 0 1
0 281 37 4 0 1 0 -0.916016 90.140625 1 0 1
0 281 37 47 0 1 0 -1.251953 90.140625 1 0 1
bridge_se1_metal_flat_steel_01
0 285 -41 4 0 -1 0 -0.916016 90.109375 1 0 1
0 285 -41 47 0 -1 0 -1.251953 90.109375 1 0 1
0 281 -41 47 0 -1 0 -1.251953 90.140625 1 0 1
bridge_se1_metal_flat_steel_01
0 285 -41 4 0 -1 0 -0.916016 90.109375 1 0 1
0 281 -41 47 0 -1 0 -1.251953 90.140625 1 0 1
0 281 -41 4 0 -1 0 -0.916016 90.140625 1 0 1
bridge_se1_metal_flat_steel_01
0 281 -41 4 -1 0 0 -0.916016 -20.859375 1 0 1
0 281 -41 47 -1 0 0 -1.251953 -20.859375 1 0 1
0 281 37 47 -1 0 0 -1.251953 -20.25 1 0 1
bridge_se1_metal_flat_steel_01
0 281 -41 4 -1 0 0 -0.916016 -20.859375 1 0 1
0 281 37 47 -1 0 0 -1.251953 -20.25 1 0 1
0 281 37 4 -1 0 0 -0.916016 -20.25 1 0 1
bridge_se1_metal_flat_steel_01
0 285 -41 47 1 0 0 -1.251953 23.109375 1 0 1
0 285 -41 4 1 0 0 -0.916016 23.109375 1 0 1
0 285 37 4 1 0 0 -0.916016 22.5 1 0 1
bridge_se1_metal_flat_steel_01
0 285 -41 47 1 0 0 -1.251953 23.109375 1 0 1
0 285 37 4 1 0 0 -0.916016 22.5 1 0 1
0 285 37 47 1 0 0 -1.251953 22.5 1 0 1
bridge_se1_metal_flat_steel_01
0 281 -41 47 0 0 1 21.748047 90.140625 1 0 1
0 285 -41 47 0 0 1 21.748047 90.109375 1 0 1
0 285 37 47 0 0 1 21.138672 90.109375 1 0 1
bridge_se1_metal_flat_steel_01
0 281 -41 47 0 0 1 21.748047 90.140625 1 0 1
0 285 37 47 0 0 1 21.138672 90.109375 1 0 1
0 281 37 47 0 0 1 21.138672 90.140625 1 0 1
bridge_se1_metal_flat_steel_01
0 427 -41 47 -1 0 0 -1.251953 -21 1 0 1
0 427 112 47 -1 0 0 -1.251953 -19.804688 1 0 1
0 427 112 4 -1 0 0 -0.916016 -19.804688 1 0 1
bridge_se1_metal_flat_steel_01
0 427 -41 47 -1 0 0 -1.251953 -21 1 0 1
0 427 112 4 -1 0 0 -0.916016 -19.804688 1 0 1
0 427 -41 4 -1 0 0 -0.916016 -21 1 0 1
bridge_se1_metal_flat_steel_01
0 431 -41 4 1 0 0 -0.916016 22.96875 1 0 1
0 431 112 4 1 0 0 -0.916016 21.773438 1 0 1
0 431 112 47 1 0 0 -1.251953 21.773438 1 0 1
bridge_se1_metal_flat_steel_01
0 431 -41 4 1 0 0 -0.916016 22.96875 1 0 1
0 431 112 47 1 0 0 -1.251953 21.773438 1 0 1
0 431 -41 47 1 0 0 -1.251953 22.96875 1 0 1
bridge_se1_metal_flat_steel_01
0 431 -41 47 0 0 1 21.748047 88.96875 1 0 1
0 431 112 47 0 0 1 20.552734 88.96875 1 0 1
0 427 112 47 0 0 1 20.552734 89 1 0 1
bridge_se1_metal_flat_steel_01
0 431 -41 47 0 0 1 21.748047 88.96875 1 0 1
0 427 112 47 0 0 1 20.552734 89 1 0 1
0 427 -41 47 0 0 1 21.748047 89 1 0 1
bridge_se1_metal_flat_steel_01
0 431 -41 4 0 -1 0 -0.916016 88.96875 1 0 1
0 431 -41 47 0 -1 0 -1.251953 88.96875 1 0 1
0 427 -41 47 0 -1 0 -1.251953 89 1 0 1
bridge_se1_metal_flat_steel_01
0 431 -41 4 0 -1 0 -0.916016 88.96875 1 0 1
0 427 -41 47 0 -1 0 -1.251953 89 1 0 1
0 427 -41 4 0 -1 0 -0.916016 89 1 0 1
pepsi2_arch_concrete_floor_smooth01
0 427 -37 4 0 1 0 -1.054688 -87.003906 1 0 1
0 427 -37 -5 0 1 0 -0.984375 -87.003906 1 0 1
0 285 -37 -5 0 1 0 -0.984375 -88.113281 1 0 1
pepsi2_arch_concrete_floor_smooth01
0 427 -37 4 0 1 0 -1.054688 -87.003906 1 0 1
0 285 -37 -5 0 1 0 -0.984375 -88.113281 1 0 1
0 285 -37 4 0 1 0 -1.054688 -88.113281 1 0 1
pepsi2_arch_concrete_floor_smooth01
0 427 -112 -5 0 0 -1 22.601562 -87.003906 1 0 1
0 285 -112 -5 0 0 -1 22.601562 -88.113281 1 0 1
0 285 -37 -5 0 0 -1 22.015625 -88.113281 1 0 1
pepsi2_arch_concrete_floor_smooth01
0 427 -112 -5 0 0 -1 22.601562 -87.003906 1 0 1
0 285 -37 -5 0 0 -1 22.015625 -88.113281 1 0 1
0 427 -37 -5 0 0 -1 22.015625 -87.003906 1 0 1
pepsi2_arch_tiles02a_e
0 285 -112 4 0 0 1 -89.257812 23.621094 1 0 1
0 427 -112 4 0 0 1 -88.148438 23.621094 1 0 1
0 427 -37 4 0 0 1 -88.148438 23.035156 1 0 1
pepsi2_arch_tiles02a_e
0 285 -112 4 0 0 1 -89.257812 23.621094 1 0 1
0 427 -37 4 0 0 1 -88.148438 23.035156 1 0 1
0 285 -37 4 0 0 1 -89.257812 23.035156 1 0 1
end
