version 1
nodes
0 "root" -1
end
skeleton
time 0
0 0 0 0 0 0 0
end
triangles
bridge_se1_metal_flat_steel_01
0 -12 -406 87 0 0 1 -2.814453 -89.289062 1 0 1
0 8 -406 87 0 0 1 -2.814453 -89.132812 1 0 1
0 8 -6 87 0 0 1 -5.939453 -89.132812 1 0 1
bridge_se1_metal_flat_steel_01
0 -12 -406 87 0 0 1 -2.814453 -89.289062 1 0 1
0 8 -6 87 0 0 1 -5.939453 -89.132812 1 0 1
0 -12 -6 87 0 0 1 -5.939453 -89.289062 1 0 1
bridge_se1_metal_flat_steel_01
0 -12 -406 87 -1 0 0 -2.814453 -0.289062 1 0 1
0 -12 -6 87 -1 0 0 -5.939453 -0.289062 1 0 1
0 -12 -6 72 -1 0 0 -5.939453 -0.40625 1 0 1
bridge_se1_metal_flat_steel_01
0 -12 -406 87 -1 0 0 -2.814453 -0.289062 1 0 1
0 -12 -6 72 -1 0 0 -5.939453 -0.40625 1 0 1
0 -12 -406 72 -1 0 0 -2.814453 -0.40625 1 0 1
bridge_se1_metal_flat_steel_01
0 12 16 -66 0 1 0 -90.771484 3.050781 1 0 1
0 -12 16 -66 0 1 0 -90.958984 3.050781 1 0 1
0 -12 16 67 0 1 0 -90.958984 2.011719 1 0 1
bridge_se1_metal_flat_steel_01
0 12 16 -66 0 1 0 -90.771484 3.050781 1 0 1
0 -12 16 67 0 1 0 -90.958984 2.011719 1 0 1
0 12 16 67 0 1 0 -90.771484 2.011719 1 0 1
bridge_se1_metal_flat_steel_01
0 12 -16 67 0 -1 0 90.505859 2.011719 1 0 1
0 -12 -16 67 0 -1 0 90.693359 2.011719 1 0 1
0 -12 -16 -66 0 -1 0 90.693359 3.050781 1 0 1
bridge_se1_metal_flat_steel_01
0 12 -16 67 0 -1 0 90.505859 2.011719 1 0 1
0 -12 -16 -66 0 -1 0 90.693359 3.050781 1 0 1
0 12 -16 -66 0 -1 0 90.505859 3.050781 1 0 1
bridge_se1_metal_flat_steel_01
0 -16 -11.999 67 -1 0 0 5.736336 2.011719 1 0 1
0 -16 12 67 -1 0 0 5.923828 2.011719 1 0 1
0 -16 12 -66 -1 0 0 5.923828 3.050781 1 0 1
bridge_se1_metal_flat_steel_01
0 -16 -11.999 67 -1 0 0 5.736336 2.011719 1 0 1
0 -16 12 -66 -1 0 0 5.923828 3.050781 1 0 1
0 -16 -11.999 -66 -1 0 0 5.736336 3.050781 1 0 1
bridge_se1_metal_flat_steel_01
0 16 -12.001 -66 1 0 0 -5.539055 3.050781 1 0 1
0 16 11.999 -66 1 0 0 -5.726555 3.050781 1 0 1
0 16 11.999 67 1 0 0 -5.726555 2.011719 1 0 1
bridge_se1_metal_flat_steel_01
0 16 -12.001 -66 1 0 0 -5.539055 3.050781 1 0 1
0 16 11.999 67 1 0 0 -5.726555 2.011719 1 0 1
0 16 -12.001 67 1 0 0 -5.539055 2.011719 1 0 1
bridge_se1_metal_flat_steel_01
0 -16 12 -66 -0.707107 0.707107 0 -60.002215 3.050781 1 0 1
0 -16 12 67 -0.707107 0.707107 0 -60.002215 2.011719 1 0 1
0 -12 16 67 -0.707107 0.707107 0 -59.958021 2.011719 1 0 1
bridge_se1_metal_flat_steel_01
0 -16 12 -66 -0.707107 0.707107 0 -60.002215 3.050781 1 0 1
0 -12 16 67 -0.707107 0.707107 0 -59.958021 2.011719 1 0 1
0 -12 16 -66 -0.707107 0.707107 0 -59.958021 3.050781 1 0 1
bridge_se1_metal_flat_steel_01
0 16 11.999 67 0.707195 0.707018 0 -68.726014 2.011719 1 0 1
0 16 11.999 -66 0.707195 0.707018 0 -68.726014 3.050781 1 0 1
0 12 16 -66 0.707195 0.707018 0 -68.770213 3.050781 1 0 1
bridge_se1_metal_flat_steel_01
0 16 11.999 67 0.707195 0.707018 0 -68.726014 2.011719 1 0 1
0 12 16 -66 0.707195 0.707018 0 -68.770213 3.050781 1 0 1
0 12 16 67 0.707195 0.707018 0 -68.770213 2.011719 1 0 1
bridge_se1_metal_flat_steel_01
0 -12 -16 -66 -0.707195 -0.707018 0 68.692816 3.050781 1 0 1
0 -12 -16 67 -0.707195 -0.707018 0 68.692816 2.011719 1 0 1
0 -16 -11.999 67 -0.707195 -0.707018 0 68.737016 2.011719 1 0 1
bridge_se1_metal_flat_steel_01
0 -12 -16 -66 -0.707195 -0.707018 0 68.692816 3.050781 1 0 1
0 -16 -11.999 67 -0.707195 -0.707018 0 68.737016 2.011719 1 0 1
0 -16 -11.999 -66 -0.707195 -0.707018 0 68.737016 3.050781 1 0 1
bridge_se1_metal_flat_steel_01
0 12 -16 67 0.707018 -0.707195 0 59.504168 2.011719 1 0 1
0 12 -16 -66 0.707018 -0.707195 0 59.504168 3.050781 1 0 1
0 16 -12.001 -66 0.707018 -0.707195 0 59.45998 3.050781 1 0 1
bridge_se1_metal_flat_steel_01
0 12 -16 67 0.707018 -0.707195 0 59.504168 2.011719 1 0 1
0 16 -12.001 -66 0.707018 -0.707195 0 59.45998 3.050781 1 0 1
0 16 -12.001 67 0.707018 -0.707195 0 59.45998 2.011719 1 0 1
pepsi2_arch_concrete_floor_smooth01
0 31 16 -66 0 1 0 2.625 91.226562 1 0 1
0 31 16 -73 0 1 0 2.679688 91.226562 1 0 1
0 -39 16 -73 0 1 0 2.679688 91.773438 1 0 1
pepsi2_arch_concrete_floor_smooth01
0 31 16 -66 0 1 0 2.625 91.226562 1 0 1
0 -39 16 -73 0 1 0 2.679688 91.773438 1 0 1
0 -39 16 -66 0 1 0 2.625 91.773438 1 0 1
pepsi2_arch_concrete_floor_smooth01
0 31 -16 -73 0 -1 0 -2.679688 91.226562 1 0 1
0 31 -16 -66 0 -1 0 -2.625 91.226562 1 0 1
0 -39 -16 -66 0 -1 0 -2.625 91.773438 1 0 1
pepsi2_arch_concrete_floor_smooth01
0 31 -16 -73 0 -1 0 -2.679688 91.226562 1 0 1
0 -39 -16 -66 0 -1 0 -2.625 91.773438 1 0 1
0 -39 -16 -73 0 -1 0 -2.679688 91.773438 1 0 1
pepsi2_arch_concrete_floor_smooth01
0 -39 -16 -66 0 0 1 5.375 91.773438 1 0 1
0 31 -16 -66 0 0 1 5.375 91.226562 1 0 1
0 31 16 -66 0 0 1 5.625 91.226562 1 0 1
pepsi2_arch_concrete_floor_smooth01
0 -39 -16 -66 0 0 1 5.375 91.773438 1 0 1
0 31 16 -66 0 0 1 5.625 91.226562 1 0 1
0 -39 16 -66 0 0 1 5.625 91.773438 1 0 1
bridge_se1_metal_flat_steel_01
0 -12 4 72 -1 0 0 -6.09375 -0.636719 1 0 1
0 -12 4 87 -1 0 0 -6.09375 -0.519531 1 0 1
0 -12 404 87 -1 0 0 -9.21875 -0.519531 1 0 1
bridge_se1_metal_flat_steel_01
0 -12 4 72 -1 0 0 -6.09375 -0.636719 1 0 1
0 -12 404 87 -1 0 0 -9.21875 -0.519531 1 0 1
0 -12 404 72 -1 0 0 -9.21875 -0.636719 1 0 1
bridge_se1_metal_flat_steel_01
0 -12 4 87 0 0 1 -6.09375 -89.519531 1 0 1
0 8 4 87 0 0 1 -6.09375 -89.363281 1 0 1
0 8 404 87 0 0 1 -9.21875 -89.363281 1 0 1
bridge_se1_metal_flat_steel_01
0 -12 4 87 0 0 1 -6.09375 -89.519531 1 0 1
0 8 404 87 0 0 1 -9.21875 -89.363281 1 0 1
0 -12 404 87 0 0 1 -9.21875 -89.519531 1 0 1
bridge_se1_metal_flat_steel_01
0 16 -326 230 1 0 0 -3.515625 1.582031 1 0 1
0 16 -326 215 1 0 0 -3.515625 1.699219 1 0 1
0 16 -6 215 1 0 0 -6.015625 1.699219 1 0 1
bridge_se1_metal_flat_steel_01
0 16 -326 230 1 0 0 -3.515625 1.582031 1 0 1
0 16 -6 215 1 0 0 -6.015625 1.699219 1 0 1
0 16 -6 230 1 0 0 -6.015625 1.582031 1 0 1
bridge_se1_metal_flat_steel_01
0 8 -6 358 -1 0 0 -5.939453 1.867188 1 0 1
0 8 4 358 -1 0 0 -6.017578 1.867188 1 0 1
0 8 4 215 -1 0 0 -6.017578 0.75 1 0 1
bridge_se1_metal_flat_steel_01
0 8 -6 358 -1 0 0 -5.939453 1.867188 1 0 1
0 8 4 215 -1 0 0 -6.017578 0.75 1 0 1
0 8 -6 215 -1 0 0 -5.939453 0.75 1 0 1
bridge_se1_metal_flat_steel_01
0 16 -6 215 1 0 0 -6.015625 1.699219 1 0 1
0 16 4 215 1 0 0 -6.09375 1.699219 1 0 1
0 16 4 358 1 0 0 -6.09375 0.582031 1 0 1
bridge_se1_metal_flat_steel_01
0 16 -6 215 1 0 0 -6.015625 1.699219 1 0 1
0 16 4 358 1 0 0 -6.09375 0.582031 1 0 1
0 16 -6 358 1 0 0 -6.015625 0.582031 1 0 1
bridge_se1_metal_flat_steel_01
0 16 4 215 1 0 0 -6.09375 1.699219 1 0 1
0 16 324 215 1 0 0 -8.59375 1.699219 1 0 1
0 16 324 230 1 0 0 -8.59375 1.582031 1 0 1
bridge_se1_metal_flat_steel_01
0 16 4 215 1 0 0 -6.09375 1.699219 1 0 1
0 16 324 230 1 0 0 -8.59375 1.582031 1 0 1
0 16 4 230 1 0 0 -6.09375 1.582031 1 0 1
end
