version 1
nodes
0 "root" -1
end
skeleton
time 0
0 0 0 0 0 0 0
end
triangles
phys
0 -256 -344 -59 0 0 1 1 0 1 0 1
0 -256 -344 -68.001 0 0 1 1 0 1 0 1
0 -271 -344 -59 0 0 1 1 0 1 0 1
phys
0 -256 -444 -68.001 0 0 1 1 0 1 0 1
0 -256 -444 -59 0 0 1 1 0 1 0 1
0 -271 -444 -59 0 0 1 1 0 1 0 1
phys
0 -256 -444 -59 0 0 1 1 0 1 0 1
0 -256 -444 -68.001 0 0 1 1 0 1 0 1
0 -256 -344 -68.001 0 0 1 1 0 1 0 1
phys
0 -256 -444 -59 0 0 1 1 0 1 0 1
0 -256 -344 -68.001 0 0 1 1 0 1 0 1
0 -256 -344 -59 0 0 1 1 0 1 0 1
phys
0 -271 -444 -59 0 0 1 1 0 1 0 1
0 -256 -444 -59 0 0 1 1 0 1 0 1
0 -256 -344 -59 0 0 1 1 0 1 0 1
phys
0 -271 -444 -59 0 0 1 1 0 1 0 1
0 -256 -344 -59 0 0 1 1 0 1 0 1
0 -271 -344 -59 0 0 1 1 0 1 0 1
phys
0 -256 -444 -68.001 0 0 1 1 0 1 0 1
0 -271 -444 -59 0 0 1 1 0 1 0 1
0 -271 -344 -59 0 0 1 1 0 1 0 1
phys
0 -256 -444 -68.001 0 0 1 1 0 1 0 1
0 -271 -344 -59 0 0 1 1 0 1 0 1
0 -256 -344 -68.001 0 0 1 1 0 1 0 1
phys
0 90 5 67 0 0 1 2 0 1 0 1
0 90 5 -68 0 0 1 2 0 1 0 1
0 -90 5 -68 0 0 1 2 0 1 0 1
phys
0 90 5 67 0 0 1 2 0 1 0 1
0 -90 5 -68 0 0 1 2 0 1 0 1
0 -90 5 67 0 0 1 2 0 1 0 1
phys
0 90 -5 -68 0 0 1 2 0 1 0 1
0 90 -5 67 0 0 1 2 0 1 0 1
0 -90 -5 67 0 0 1 2 0 1 0 1
phys
0 90 -5 -68 0 0 1 2 0 1 0 1
0 -90 -5 67 0 0 1 2 0 1 0 1
0 -90 -5 -68 0 0 1 2 0 1 0 1
phys
0 -90 -5 -68 0 0 1 2 0 1 0 1
0 -90 -5 67 0 0 1 2 0 1 0 1
0 -90 5 67 0 0 1 2 0 1 0 1
phys
0 -90 -5 -68 0 0 1 2 0 1 0 1
0 -90 5 67 0 0 1 2 0 1 0 1
0 -90 5 -68 0 0 1 2 0 1 0 1
phys
0 90 -5 67 0 0 1 2 0 1 0 1
0 90 -5 -68 0 0 1 2 0 1 0 1
0 90 5 -68 0 0 1 2 0 1 0 1
phys
0 90 -5 67 0 0 1 2 0 1 0 1
0 90 5 -68 0 0 1 2 0 1 0 1
0 90 5 67 0 0 1 2 0 1 0 1
phys
0 90 -5 -68 0 0 1 2 0 1 0 1
0 -90 -5 -68 0 0 1 2 0 1 0 1
0 -90 5 -68 0 0 1 2 0 1 0 1
phys
0 90 -5 -68 0 0 1 2 0 1 0 1
0 -90 5 -68 0 0 1 2 0 1 0 1
0 90 5 -68 0 0 1 2 0 1 0 1
phys
0 -90 -5 67 0 0 1 2 0 1 0 1
0 90 -5 67 0 0 1 2 0 1 0 1
0 90 5 67 0 0 1 2 0 1 0 1
phys
0 -90 -5 67 0 0 1 2 0 1 0 1
0 90 5 67 0 0 1 2 0 1 0 1
0 -90 5 67 0 0 1 2 0 1 0 1
phys
0 -406 -344 31 0 0 1 3 0 1 0 1
0 -421 -344 31 0 0 1 3 0 1 0 1
0 -421 -444 31 0 0 1 3 0 1 0 1
phys
0 -406 -344 31 0 0 1 3 0 1 0 1
0 -421 -444 31 0 0 1 3 0 1 0 1
0 -406 -444 31 0 0 1 3 0 1 0 1
phys
0 -406 -444 21.999 0 0 1 3 0 1 0 1
0 -421 -444 31 0 0 1 3 0 1 0 1
0 -421 -344 31 0 0 1 3 0 1 0 1
phys
0 -406 -444 21.999 0 0 1 3 0 1 0 1
0 -421 -344 31 0 0 1 3 0 1 0 1
0 -406 -344 21.999 0 0 1 3 0 1 0 1
phys
0 -406 -344 21.999 0 0 1 3 0 1 0 1
0 -421 -344 31 0 0 1 3 0 1 0 1
0 -406 -344 31 0 0 1 3 0 1 0 1
phys
0 -406 -444 31 0 0 1 3 0 1 0 1
0 -421 -444 31 0 0 1 3 0 1 0 1
0 -406 -444 21.999 0 0 1 3 0 1 0 1
phys
0 -406 -444 21.999 0 0 1 3 0 1 0 1
0 -406 -344 21.999 0 0 1 3 0 1 0 1
0 -406 -344 31 0 0 1 3 0 1 0 1
phys
0 -406 -444 21.999 0 0 1 3 0 1 0 1
0 -406 -344 31 0 0 1 3 0 1 0 1
0 -406 -444 31 0 0 1 3 0 1 0 1
phys
0 -481 -344 114 0 0 1 4 0 1 0 1
0 -100 -344 114 0 0 1 4 0 1 0 1
0 -100 -340 114 0 0 1 4 0 1 0 1
phys
0 -481 -344 114 0 0 1 4 0 1 0 1
0 -100 -340 114 0 0 1 4 0 1 0 1
0 -481 -340 114 0 0 1 4 0 1 0 1
phys
0 -481 -340 73 0 0 1 4 0 1 0 1
0 -481 -340 114 0 0 1 4 0 1 0 1
0 -100 -340 114 0 0 1 4 0 1 0 1
phys
0 -481 -340 73 0 0 1 4 0 1 0 1
0 -100 -340 114 0 0 1 4 0 1 0 1
0 -100 -340 73 0 0 1 4 0 1 0 1
phys
0 -100 -344 73 0 0 1 4 0 1 0 1
0 -100 -344 114 0 0 1 4 0 1 0 1
0 -481 -344 114 0 0 1 4 0 1 0 1
phys
0 -100 -344 73 0 0 1 4 0 1 0 1
0 -481 -344 114 0 0 1 4 0 1 0 1
0 -481 -344 73 0 0 1 4 0 1 0 1
phys
0 -481 -344 73 0 0 1 4 0 1 0 1
0 -481 -344 114 0 0 1 4 0 1 0 1
0 -481 -340 114 0 0 1 4 0 1 0 1
phys
0 -481 -344 73 0 0 1 4 0 1 0 1
0 -481 -340 114 0 0 1 4 0 1 0 1
0 -481 -340 73 0 0 1 4 0 1 0 1
phys
0 -100 -340 73 0 0 1 4 0 1 0 1
0 -100 -340 114 0 0 1 4 0 1 0 1
0 -100 -344 114 0 0 1 4 0 1 0 1
phys
0 -100 -340 73 0 0 1 4 0 1 0 1
0 -100 -344 114 0 0 1 4 0 1 0 1
0 -100 -344 73 0 0 1 4 0 1 0 1
phys
0 -100 -344 73 0 0 1 4 0 1 0 1
0 -481 -344 73 0 0 1 4 0 1 0 1
0 -481 -340 73 0 0 1 4 0 1 0 1
phys
0 -100 -344 73 0 0 1 4 0 1 0 1
0 -481 -340 73 0 0 1 4 0 1 0 1
0 -100 -340 73 0 0 1 4 0 1 0 1
phys
0 -316 -344 -23 0 0 1 5 0 1 0 1
0 -316 -344 -32.001 0 0 1 5 0 1 0 1
0 -331 -344 -23 0 0 1 5 0 1 0 1
phys
0 -316 -444 -32.001 0 0 1 5 0 1 0 1
0 -316 -444 -23 0 0 1 5 0 1 0 1
0 -331 -444 -23 0 0 1 5 0 1 0 1
phys
0 -316 -444 -23 0 0 1 5 0 1 0 1
0 -316 -444 -32.001 0 0 1 5 0 1 0 1
0 -316 -344 -32.001 0 0 1 5 0 1 0 1
phys
0 -316 -444 -23 0 0 1 5 0 1 0 1
0 -316 -344 -32.001 0 0 1 5 0 1 0 1
0 -316 -344 -23 0 0 1 5 0 1 0 1
phys
0 -331 -444 -23 0 0 1 5 0 1 0 1
0 -316 -444 -23 0 0 1 5 0 1 0 1
0 -316 -344 -23 0 0 1 5 0 1 0 1
phys
0 -331 -444 -23 0 0 1 5 0 1 0 1
0 -316 -344 -23 0 0 1 5 0 1 0 1
0 -331 -344 -23 0 0 1 5 0 1 0 1
phys
0 -316 -444 -32.001 0 0 1 5 0 1 0 1
0 -331 -444 -23 0 0 1 5 0 1 0 1
0 -331 -344 -23 0 0 1 5 0 1 0 1
phys
0 -316 -444 -32.001 0 0 1 5 0 1 0 1
0 -331 -344 -23 0 0 1 5 0 1 0 1
0 -316 -344 -32.001 0 0 1 5 0 1 0 1
phys
0 -331 -344 -14 0 0 1 6 0 1 0 1
0 -331 -344 -23.001 0 0 1 6 0 1 0 1
0 -346 -344 -14 0 0 1 6 0 1 0 1
phys
0 -331 -444 -23.001 0 0 1 6 0 1 0 1
0 -331 -444 -14 0 0 1 6 0 1 0 1
0 -346 -444 -14 0 0 1 6 0 1 0 1
phys
0 -331 -444 -14 0 0 1 6 0 1 0 1
0 -331 -444 -23.001 0 0 1 6 0 1 0 1
0 -331 -344 -23.001 0 0 1 6 0 1 0 1
phys
0 -331 -444 -14 0 0 1 6 0 1 0 1
0 -331 -344 -23.001 0 0 1 6 0 1 0 1
0 -331 -344 -14 0 0 1 6 0 1 0 1
phys
0 -346 -444 -14 0 0 1 6 0 1 0 1
0 -331 -444 -14 0 0 1 6 0 1 0 1
0 -331 -344 -14 0 0 1 6 0 1 0 1
phys
0 -346 -444 -14 0 0 1 6 0 1 0 1
0 -331 -344 -14 0 0 1 6 0 1 0 1
0 -346 -344 -14 0 0 1 6 0 1 0 1
phys
0 -331 -444 -23.001 0 0 1 6 0 1 0 1
0 -346 -444 -14 0 0 1 6 0 1 0 1
0 -346 -344 -14 0 0 1 6 0 1 0 1
phys
0 -331 -444 -23.001 0 0 1 6 0 1 0 1
0 -346 -344 -14 0 0 1 6 0 1 0 1
0 -331 -344 -23.001 0 0 1 6 0 1 0 1
phys
0 -376 -344 13 0 0 1 7 0 1 0 1
0 -376 -344 3.999 0 0 1 7 0 1 0 1
0 -391 -344 13 0 0 1 7 0 1 0 1
phys
0 -376 -444 3.999 0 0 1 7 0 1 0 1
0 -376 -444 13 0 0 1 7 0 1 0 1
0 -391 -444 13 0 0 1 7 0 1 0 1
phys
0 -376 -444 13 0 0 1 7 0 1 0 1
0 -376 -444 3.999 0 0 1 7 0 1 0 1
0 -376 -344 3.999 0 0 1 7 0 1 0 1
phys
0 -376 -444 13 0 0 1 7 0 1 0 1
0 -376 -344 3.999 0 0 1 7 0 1 0 1
0 -376 -344 13 0 0 1 7 0 1 0 1
phys
0 -391 -444 13 0 0 1 7 0 1 0 1
0 -376 -444 13 0 0 1 7 0 1 0 1
0 -376 -344 13 0 0 1 7 0 1 0 1
phys
0 -391 -444 13 0 0 1 7 0 1 0 1
0 -376 -344 13 0 0 1 7 0 1 0 1
0 -391 -344 13 0 0 1 7 0 1 0 1
phys
0 -376 -444 3.999 0 0 1 7 0 1 0 1
0 -391 -444 13 0 0 1 7 0 1 0 1
0 -391 -344 13 0 0 1 7 0 1 0 1
phys
0 -376 -444 3.999 0 0 1 7 0 1 0 1
0 -391 -344 13 0 0 1 7 0 1 0 1
0 -376 -344 3.999 0 0 1 7 0 1 0 1
phys
0 -451 -344 58 0 0 1 8 0 1 0 1
0 -466 -344 58 0 0 1 8 0 1 0 1
0 -466 -444 58 0 0 1 8 0 1 0 1
phys
0 -451 -344 58 0 0 1 8 0 1 0 1
0 -466 -444 58 0 0 1 8 0 1 0 1
0 -451 -444 58 0 0 1 8 0 1 0 1
phys
0 -451 -444 48.999 0 0 1 8 0 1 0 1
0 -466 -444 58 0 0 1 8 0 1 0 1
0 -466 -344 58 0 0 1 8 0 1 0 1
phys
0 -451 -444 48.999 0 0 1 8 0 1 0 1
0 -466 -344 58 0 0 1 8 0 1 0 1
0 -451 -344 48.999 0 0 1 8 0 1 0 1
phys
0 -451 -344 48.999 0 0 1 8 0 1 0 1
0 -466 -344 58 0 0 1 8 0 1 0 1
0 -451 -344 58 0 0 1 8 0 1 0 1
phys
0 -451 -444 58 0 0 1 8 0 1 0 1
0 -466 -444 58 0 0 1 8 0 1 0 1
0 -451 -444 48.999 0 0 1 8 0 1 0 1
phys
0 -451 -444 48.999 0 0 1 8 0 1 0 1
0 -451 -344 48.999 0 0 1 8 0 1 0 1
0 -451 -344 58 0 0 1 8 0 1 0 1
phys
0 -451 -444 48.999 0 0 1 8 0 1 0 1
0 -451 -344 58 0 0 1 8 0 1 0 1
0 -451 -444 58 0 0 1 8 0 1 0 1
phys
0 -271 -344 -50 0 0 1 9 0 1 0 1
0 -271 -344 -59.001 0 0 1 9 0 1 0 1
0 -286 -344 -50 0 0 1 9 0 1 0 1
phys
0 -271 -444 -59.001 0 0 1 9 0 1 0 1
0 -271 -444 -50 0 0 1 9 0 1 0 1
0 -286 -444 -50 0 0 1 9 0 1 0 1
phys
0 -271 -444 -50 0 0 1 9 0 1 0 1
0 -271 -444 -59.001 0 0 1 9 0 1 0 1
0 -271 -344 -59.001 0 0 1 9 0 1 0 1
phys
0 -271 -444 -50 0 0 1 9 0 1 0 1
0 -271 -344 -59.001 0 0 1 9 0 1 0 1
0 -271 -344 -50 0 0 1 9 0 1 0 1
phys
0 -286 -444 -50 0 0 1 9 0 1 0 1
0 -271 -444 -50 0 0 1 9 0 1 0 1
0 -271 -344 -50 0 0 1 9 0 1 0 1
phys
0 -286 -444 -50 0 0 1 9 0 1 0 1
0 -271 -344 -50 0 0 1 9 0 1 0 1
0 -286 -344 -50 0 0 1 9 0 1 0 1
phys
0 -271 -444 -59.001 0 0 1 9 0 1 0 1
0 -286 -444 -50 0 0 1 9 0 1 0 1
0 -286 -344 -50 0 0 1 9 0 1 0 1
phys
0 -271 -444 -59.001 0 0 1 9 0 1 0 1
0 -286 -344 -50 0 0 1 9 0 1 0 1
0 -271 -344 -59.001 0 0 1 9 0 1 0 1
phys
0 -87 5 192 0 0 1 10 0 1 0 1
0 -90 5 192 0 0 1 10 0 1 0 1
0 -90 5 218 0 0 1 10 0 1 0 1
phys
0 -87 5 192 0 0 1 10 0 1 0 1
0 -90 5 218 0 0 1 10 0 1 0 1
0 -80 5 218 0 0 1 10 0 1 0 1
phys
0 -80 -454 218 0 0 1 10 0 1 0 1
0 -90 -454 218 0 0 1 10 0 1 0 1
0 -90 -454 192 0 0 1 10 0 1 0 1
phys
0 -80 -454 218 0 0 1 10 0 1 0 1
0 -90 -454 192 0 0 1 10 0 1 0 1
0 -87 -454 192 0 0 1 10 0 1 0 1
phys
0 -90 -454 192 0 0 1 10 0 1 0 1
0 -90 -454 218 0 0 1 10 0 1 0 1
0 -90 5 218 0 0 1 10 0 1 0 1
phys
0 -90 -454 192 0 0 1 10 0 1 0 1
0 -90 5 218 0 0 1 10 0 1 0 1
0 -90 5 192 0 0 1 10 0 1 0 1
phys
0 -87 -454 192 0 0 1 10 0 1 0 1
0 -90 -454 192 0 0 1 10 0 1 0 1
0 -90 5 192 0 0 1 10 0 1 0 1
phys
0 -87 -454 192 0 0 1 10 0 1 0 1
0 -90 5 192 0 0 1 10 0 1 0 1
0 -87 5 192 0 0 1 10 0 1 0 1
phys
0 -90 -454 218 0 0 1 10 0 1 0 1
0 -80 -454 218 0 0 1 10 0 1 0 1
0 -80 5 218 0 0 1 10 0 1 0 1
phys
0 -90 -454 218 0 0 1 10 0 1 0 1
0 -80 5 218 0 0 1 10 0 1 0 1
0 -90 5 218 0 0 1 10 0 1 0 1
phys
0 -80 -454 218 0 0 1 10 0 1 0 1
0 -87 -454 192 0 0 1 10 0 1 0 1
0 -87 5 192 0 0 1 10 0 1 0 1
phys
0 -80 -454 218 0 0 1 10 0 1 0 1
0 -87 5 192 0 0 1 10 0 1 0 1
0 -80 5 218 0 0 1 10 0 1 0 1
phys
0 -286 -344 -41 0 0 1 11 0 1 0 1
0 -286 -344 -50.001 0 0 1 11 0 1 0 1
0 -301 -344 -41 0 0 1 11 0 1 0 1
phys
0 -286 -444 -50.001 0 0 1 11 0 1 0 1
0 -286 -444 -41 0 0 1 11 0 1 0 1
0 -301 -444 -41 0 0 1 11 0 1 0 1
phys
0 -286 -444 -41 0 0 1 11 0 1 0 1
0 -286 -444 -50.001 0 0 1 11 0 1 0 1
0 -286 -344 -50.001 0 0 1 11 0 1 0 1
phys
0 -286 -444 -41 0 0 1 11 0 1 0 1
0 -286 -344 -50.001 0 0 1 11 0 1 0 1
0 -286 -344 -41 0 0 1 11 0 1 0 1
phys
0 -301 -444 -41 0 0 1 11 0 1 0 1
0 -286 -444 -41 0 0 1 11 0 1 0 1
0 -286 -344 -41 0 0 1 11 0 1 0 1
phys
0 -301 -444 -41 0 0 1 11 0 1 0 1
0 -286 -344 -41 0 0 1 11 0 1 0 1
0 -301 -344 -41 0 0 1 11 0 1 0 1
phys
0 -286 -444 -50.001 0 0 1 11 0 1 0 1
0 -301 -444 -41 0 0 1 11 0 1 0 1
0 -301 -344 -41 0 0 1 11 0 1 0 1
phys
0 -286 -444 -50.001 0 0 1 11 0 1 0 1
0 -301 -344 -41 0 0 1 11 0 1 0 1
0 -286 -344 -50.001 0 0 1 11 0 1 0 1
phys
0 -436 -344 49 0 0 1 12 0 1 0 1
0 -436 -344 39.999 0 0 1 12 0 1 0 1
0 -451 -344 49 0 0 1 12 0 1 0 1
phys
0 -436 -444 39.999 0 0 1 12 0 1 0 1
0 -436 -444 49 0 0 1 12 0 1 0 1
0 -451 -444 49 0 0 1 12 0 1 0 1
phys
0 -436 -444 49 0 0 1 12 0 1 0 1
0 -436 -444 39.999 0 0 1 12 0 1 0 1
0 -436 -344 39.999 0 0 1 12 0 1 0 1
phys
0 -436 -444 49 0 0 1 12 0 1 0 1
0 -436 -344 39.999 0 0 1 12 0 1 0 1
0 -436 -344 49 0 0 1 12 0 1 0 1
phys
0 -451 -444 49 0 0 1 12 0 1 0 1
0 -436 -444 49 0 0 1 12 0 1 0 1
0 -436 -344 49 0 0 1 12 0 1 0 1
phys
0 -451 -444 49 0 0 1 12 0 1 0 1
0 -436 -344 49 0 0 1 12 0 1 0 1
0 -451 -344 49 0 0 1 12 0 1 0 1
phys
0 -436 -444 39.999 0 0 1 12 0 1 0 1
0 -451 -444 49 0 0 1 12 0 1 0 1
0 -451 -344 49 0 0 1 12 0 1 0 1
phys
0 -436 -444 39.999 0 0 1 12 0 1 0 1
0 -451 -344 49 0 0 1 12 0 1 0 1
0 -436 -344 39.999 0 0 1 12 0 1 0 1
phys
0 -391 -344 22 0 0 1 13 0 1 0 1
0 -406 -344 22 0 0 1 13 0 1 0 1
0 -406 -444 22 0 0 1 13 0 1 0 1
phys
0 -391 -344 22 0 0 1 13 0 1 0 1
0 -406 -444 22 0 0 1 13 0 1 0 1
0 -391 -444 22 0 0 1 13 0 1 0 1
phys
0 -391 -444 12.999 0 0 1 13 0 1 0 1
0 -406 -444 22 0 0 1 13 0 1 0 1
0 -406 -344 22 0 0 1 13 0 1 0 1
phys
0 -391 -444 12.999 0 0 1 13 0 1 0 1
0 -406 -344 22 0 0 1 13 0 1 0 1
0 -391 -344 12.999 0 0 1 13 0 1 0 1
phys
0 -391 -344 12.999 0 0 1 13 0 1 0 1
0 -406 -344 22 0 0 1 13 0 1 0 1
0 -391 -344 22 0 0 1 13 0 1 0 1
phys
0 -391 -444 22 0 0 1 13 0 1 0 1
0 -406 -444 22 0 0 1 13 0 1 0 1
0 -391 -444 12.999 0 0 1 13 0 1 0 1
phys
0 -391 -444 12.999 0 0 1 13 0 1 0 1
0 -391 -344 12.999 0 0 1 13 0 1 0 1
0 -391 -344 22 0 0 1 13 0 1 0 1
phys
0 -391 -444 12.999 0 0 1 13 0 1 0 1
0 -391 -344 22 0 0 1 13 0 1 0 1
0 -391 -444 22 0 0 1 13 0 1 0 1
phys
0 -361 -344 4 0 0 1 14 0 1 0 1
0 -361 -344 -5.001 0 0 1 14 0 1 0 1
0 -376 -344 4 0 0 1 14 0 1 0 1
phys
0 -361 -444 -5.001 0 0 1 14 0 1 0 1
0 -361 -444 4 0 0 1 14 0 1 0 1
0 -376 -444 4 0 0 1 14 0 1 0 1
phys
0 -361 -444 4 0 0 1 14 0 1 0 1
0 -361 -444 -5.001 0 0 1 14 0 1 0 1
0 -361 -344 -5.001 0 0 1 14 0 1 0 1
phys
0 -361 -444 4 0 0 1 14 0 1 0 1
0 -361 -344 -5.001 0 0 1 14 0 1 0 1
0 -361 -344 4 0 0 1 14 0 1 0 1
phys
0 -376 -444 4 0 0 1 14 0 1 0 1
0 -361 -444 4 0 0 1 14 0 1 0 1
0 -361 -344 4 0 0 1 14 0 1 0 1
phys
0 -376 -444 4 0 0 1 14 0 1 0 1
0 -361 -344 4 0 0 1 14 0 1 0 1
0 -376 -344 4 0 0 1 14 0 1 0 1
phys
0 -361 -444 -5.001 0 0 1 14 0 1 0 1
0 -376 -444 4 0 0 1 14 0 1 0 1
0 -376 -344 4 0 0 1 14 0 1 0 1
phys
0 -361 -444 -5.001 0 0 1 14 0 1 0 1
0 -376 -344 4 0 0 1 14 0 1 0 1
0 -361 -344 -5.001 0 0 1 14 0 1 0 1
phys
0 -301 -344 -32 0 0 1 15 0 1 0 1
0 -301 -344 -41.001 0 0 1 15 0 1 0 1
0 -316 -344 -32 0 0 1 15 0 1 0 1
phys
0 -301 -444 -41.001 0 0 1 15 0 1 0 1
0 -301 -444 -32 0 0 1 15 0 1 0 1
0 -316 -444 -32 0 0 1 15 0 1 0 1
phys
0 -301 -444 -32 0 0 1 15 0 1 0 1
0 -301 -444 -41.001 0 0 1 15 0 1 0 1
0 -301 -344 -41.001 0 0 1 15 0 1 0 1
phys
0 -301 -444 -32 0 0 1 15 0 1 0 1
0 -301 -344 -41.001 0 0 1 15 0 1 0 1
0 -301 -344 -32 0 0 1 15 0 1 0 1
phys
0 -316 -444 -32 0 0 1 15 0 1 0 1
0 -301 -444 -32 0 0 1 15 0 1 0 1
0 -301 -344 -32 0 0 1 15 0 1 0 1
phys
0 -316 -444 -32 0 0 1 15 0 1 0 1
0 -301 -344 -32 0 0 1 15 0 1 0 1
0 -316 -344 -32 0 0 1 15 0 1 0 1
phys
0 -301 -444 -41.001 0 0 1 15 0 1 0 1
0 -316 -444 -32 0 0 1 15 0 1 0 1
0 -316 -344 -32 0 0 1 15 0 1 0 1
phys
0 -301 -444 -41.001 0 0 1 15 0 1 0 1
0 -316 -344 -32 0 0 1 15 0 1 0 1
0 -301 -344 -41.001 0 0 1 15 0 1 0 1
phys
0 -466 -344 67 0 0 1 16 0 1 0 1
0 -466 -344 57.999 0 0 1 16 0 1 0 1
0 -481 -344 67 0 0 1 16 0 1 0 1
phys
0 -466 -444 57.999 0 0 1 16 0 1 0 1
0 -466 -444 67 0 0 1 16 0 1 0 1
0 -481 -444 67 0 0 1 16 0 1 0 1
phys
0 -466 -444 67 0 0 1 16 0 1 0 1
0 -466 -444 57.999 0 0 1 16 0 1 0 1
0 -466 -344 57.999 0 0 1 16 0 1 0 1
phys
0 -466 -444 67 0 0 1 16 0 1 0 1
0 -466 -344 57.999 0 0 1 16 0 1 0 1
0 -466 -344 67 0 0 1 16 0 1 0 1
phys
0 -481 -444 67 0 0 1 16 0 1 0 1
0 -466 -444 67 0 0 1 16 0 1 0 1
0 -466 -344 67 0 0 1 16 0 1 0 1
phys
0 -481 -444 67 0 0 1 16 0 1 0 1
0 -466 -344 67 0 0 1 16 0 1 0 1
0 -481 -344 67 0 0 1 16 0 1 0 1
phys
0 -466 -444 57.999 0 0 1 16 0 1 0 1
0 -481 -444 67 0 0 1 16 0 1 0 1
0 -481 -344 67 0 0 1 16 0 1 0 1
phys
0 -466 -444 57.999 0 0 1 16 0 1 0 1
0 -481 -344 67 0 0 1 16 0 1 0 1
0 -466 -344 57.999 0 0 1 16 0 1 0 1
phys
0 -346 -344 -5 0 0 1 17 0 1 0 1
0 -346 -344 -14.001 0 0 1 17 0 1 0 1
0 -361 -344 -5 0 0 1 17 0 1 0 1
phys
0 -346 -444 -14.001 0 0 1 17 0 1 0 1
0 -346 -444 -5 0 0 1 17 0 1 0 1
0 -361 -444 -5 0 0 1 17 0 1 0 1
phys
0 -346 -444 -5 0 0 1 17 0 1 0 1
0 -346 -444 -14.001 0 0 1 17 0 1 0 1
0 -346 -344 -14.001 0 0 1 17 0 1 0 1
phys
0 -346 -444 -5 0 0 1 17 0 1 0 1
0 -346 -344 -14.001 0 0 1 17 0 1 0 1
0 -346 -344 -5 0 0 1 17 0 1 0 1
phys
0 -361 -444 -5 0 0 1 17 0 1 0 1
0 -346 -444 -5 0 0 1 17 0 1 0 1
0 -346 -344 -5 0 0 1 17 0 1 0 1
phys
0 -361 -444 -5 0 0 1 17 0 1 0 1
0 -346 -344 -5 0 0 1 17 0 1 0 1
0 -361 -344 -5 0 0 1 17 0 1 0 1
phys
0 -346 -444 -14.001 0 0 1 17 0 1 0 1
0 -361 -444 -5 0 0 1 17 0 1 0 1
0 -361 -344 -5 0 0 1 17 0 1 0 1
phys
0 -346 -444 -14.001 0 0 1 17 0 1 0 1
0 -361 -344 -5 0 0 1 17 0 1 0 1
0 -346 -344 -14.001 0 0 1 17 0 1 0 1
phys
0 -421 -344 40 0 0 1 18 0 1 0 1
0 -421 -344 30.999 0 0 1 18 0 1 0 1
0 -436 -344 40 0 0 1 18 0 1 0 1
phys
0 -421 -444 30.999 0 0 1 18 0 1 0 1
0 -421 -444 40 0 0 1 18 0 1 0 1
0 -436 -444 40 0 0 1 18 0 1 0 1
phys
0 -421 -444 40 0 0 1 18 0 1 0 1
0 -421 -444 30.999 0 0 1 18 0 1 0 1
0 -421 -344 30.999 0 0 1 18 0 1 0 1
phys
0 -421 -444 40 0 0 1 18 0 1 0 1
0 -421 -344 30.999 0 0 1 18 0 1 0 1
0 -421 -344 40 0 0 1 18 0 1 0 1
phys
0 -436 -444 40 0 0 1 18 0 1 0 1
0 -421 -444 40 0 0 1 18 0 1 0 1
0 -421 -344 40 0 0 1 18 0 1 0 1
phys
0 -436 -444 40 0 0 1 18 0 1 0 1
0 -421 -344 40 0 0 1 18 0 1 0 1
0 -436 -344 40 0 0 1 18 0 1 0 1
phys
0 -421 -444 30.999 0 0 1 18 0 1 0 1
0 -436 -444 40 0 0 1 18 0 1 0 1
0 -436 -344 40 0 0 1 18 0 1 0 1
phys
0 -421 -444 30.999 0 0 1 18 0 1 0 1
0 -436 -344 40 0 0 1 18 0 1 0 1
0 -421 -344 30.999 0 0 1 18 0 1 0 1
end
