version 1
nodes
0 "root" -1
end
skeleton
time 0
0 0 0 0 0 0 0
end
triangles
phys
0 50 64 -60.131 0 0 1 1 0 1 0 1
0 50 64 -64 0 0 1 1 0 1 0 1
0 -50 64 -64 0 0 1 1 0 1 0 1
phys
0 50 64 -60.131 0 0 1 1 0 1 0 1
0 -50 64 -64 0 0 1 1 0 1 0 1
0 -50 64 -60.131 0 0 1 1 0 1 0 1
phys
0 50 -64 60.126 0 0 1 1 0 1 0 1
0 50 -64 63.991 0 0 1 1 0 1 0 1
0 -50 -64 63.991 0 0 1 1 0 1 0 1
phys
0 50 -64 60.126 0 0 1 1 0 1 0 1
0 -50 -64 63.991 0 0 1 1 0 1 0 1
0 -50 -64 60.126 0 0 1 1 0 1 0 1
phys
0 -50 -64 60.126 0 0 1 1 0 1 0 1
0 -50 -64 63.991 0 0 1 1 0 1 0 1
0 -50 64 -60.131 0 0 1 1 0 1 0 1
phys
0 -50 -64 60.126 0 0 1 1 0 1 0 1
0 -50 64 -60.131 0 0 1 1 0 1 0 1
0 -50 64 -64 0 0 1 1 0 1 0 1
phys
0 50 -64 63.991 0 0 1 1 0 1 0 1
0 50 -64 60.126 0 0 1 1 0 1 0 1
0 50 64 -64 0 0 1 1 0 1 0 1
phys
0 50 -64 63.991 0 0 1 1 0 1 0 1
0 50 64 -64 0 0 1 1 0 1 0 1
0 50 64 -60.131 0 0 1 1 0 1 0 1
phys
0 -50 -64 63.991 0 0 1 1 0 1 0 1
0 50 -64 63.991 0 0 1 1 0 1 0 1
0 50 64 -60.131 0 0 1 1 0 1 0 1
phys
0 -50 -64 63.991 0 0 1 1 0 1 0 1
0 50 64 -60.131 0 0 1 1 0 1 0 1
0 -50 64 -60.131 0 0 1 1 0 1 0 1
phys
0 50 -64 60.126 0 0 1 1 0 1 0 1
0 -50 -64 60.126 0 0 1 1 0 1 0 1
0 -50 64 -64 0 0 1 1 0 1 0 1
phys
0 50 -64 60.126 0 0 1 1 0 1 0 1
0 -50 64 -64 0 0 1 1 0 1 0 1
0 50 64 -64 0 0 1 1 0 1 0 1
phys
0 300 140 -215.999 0 0 1 2 0 1 0 1
0 300 140 -320 0 0 1 2 0 1 0 1
0 292 140 -320 0 0 1 2 0 1 0 1
phys
0 300 140 -215.999 0 0 1 2 0 1 0 1
0 292 140 -320 0 0 1 2 0 1 0 1
0 292 140 -207.999 0 0 1 2 0 1 0 1
phys
0 300 124 -320 0 0 1 2 0 1 0 1
0 300 124 -215.999 0 0 1 2 0 1 0 1
0 292 124 -207.999 0 0 1 2 0 1 0 1
phys
0 300 124 -320 0 0 1 2 0 1 0 1
0 292 124 -207.999 0 0 1 2 0 1 0 1
0 292 124 -320 0 0 1 2 0 1 0 1
phys
0 292 124 -320 0 0 1 2 0 1 0 1
0 292 124 -207.999 0 0 1 2 0 1 0 1
0 292 140 -207.999 0 0 1 2 0 1 0 1
phys
0 292 124 -320 0 0 1 2 0 1 0 1
0 292 140 -207.999 0 0 1 2 0 1 0 1
0 292 140 -320 0 0 1 2 0 1 0 1
phys
0 300 124 -215.999 0 0 1 2 0 1 0 1
0 300 124 -320 0 0 1 2 0 1 0 1
0 300 140 -320 0 0 1 2 0 1 0 1
phys
0 300 124 -215.999 0 0 1 2 0 1 0 1
0 300 140 -320 0 0 1 2 0 1 0 1
0 300 140 -215.999 0 0 1 2 0 1 0 1
phys
0 300 124 -320 0 0 1 2 0 1 0 1
0 292 124 -320 0 0 1 2 0 1 0 1
0 292 140 -320 0 0 1 2 0 1 0 1
phys
0 300 124 -320 0 0 1 2 0 1 0 1
0 292 140 -320 0 0 1 2 0 1 0 1
0 300 140 -320 0 0 1 2 0 1 0 1
phys
0 292 124 -207.999 0 0 1 2 0 1 0 1
0 300 124 -215.999 0 0 1 2 0 1 0 1
0 300 140 -215.999 0 0 1 2 0 1 0 1
phys
0 292 124 -207.999 0 0 1 2 0 1 0 1
0 300 140 -215.999 0 0 1 2 0 1 0 1
0 292 140 -207.999 0 0 1 2 0 1 0 1
phys
0 -50 -48 48.482 0 0 1 3 0 1 0 1
0 50 -48 48.482 0 0 1 3 0 1 0 1
0 50 -32 48.482 0 0 1 3 0 1 0 1
phys
0 -50 -48 48.482 0 0 1 3 0 1 0 1
0 50 -32 48.482 0 0 1 3 0 1 0 1
0 -50 -32 48.482 0 0 1 3 0 1 0 1
phys
0 50 -48 48.482 0 0 1 3 0 1 0 1
0 -50 -48 48.482 0 0 1 3 0 1 0 1
0 -50 -32 32.971 0 0 1 3 0 1 0 1
phys
0 50 -48 48.482 0 0 1 3 0 1 0 1
0 -50 -32 32.971 0 0 1 3 0 1 0 1
0 50 -32 32.971 0 0 1 3 0 1 0 1
phys
0 50 -32 32.971 0 0 1 3 0 1 0 1
0 -50 -32 32.971 0 0 1 3 0 1 0 1
0 -50 -32 48.482 0 0 1 3 0 1 0 1
phys
0 50 -32 32.971 0 0 1 3 0 1 0 1
0 -50 -32 48.482 0 0 1 3 0 1 0 1
0 50 -32 48.482 0 0 1 3 0 1 0 1
phys
0 -50 -48 48.482 0 0 1 3 0 1 0 1
0 -50 -32 48.482 0 0 1 3 0 1 0 1
0 -50 -32 32.971 0 0 1 3 0 1 0 1
phys
0 50 -32 48.482 0 0 1 3 0 1 0 1
0 50 -48 48.482 0 0 1 3 0 1 0 1
0 50 -32 32.971 0 0 1 3 0 1 0 1
phys
0 50 -48 64 0 0 1 4 0 1 0 1
0 50 -48 48.492698 0 0 1 4 0 1 0 1
0 -50 -48 48.483 0 0 1 4 0 1 0 1
phys
0 50 -48 64 0 0 1 4 0 1 0 1
0 -50 -48 48.483 0 0 1 4 0 1 0 1
0 -50 -48 64 0 0 1 4 0 1 0 1
phys
0 -50 -64 64 0 0 1 4 0 1 0 1
0 -50 -48 64 0 0 1 4 0 1 0 1
0 -50 -48 48.483 0 0 1 4 0 1 0 1
phys
0 50 -48 48.492698 0 0 1 4 0 1 0 1
0 50 -48 64 0 0 1 4 0 1 0 1
0 50 -63.99 64 0 0 1 4 0 1 0 1
phys
0 50 -63.99 64 0 0 1 4 0 1 0 1
0 50 -48 64 0 0 1 4 0 1 0 1
0 -50 -48 64 0 0 1 4 0 1 0 1
phys
0 50 -63.99 64 0 0 1 4 0 1 0 1
0 -50 -48 64 0 0 1 4 0 1 0 1
0 -50 -64 64 0 0 1 4 0 1 0 1
phys
0 -50 -64 64 0 0 1 4 0 1 0 1
0 -50 -48 48.483 0 0 1 4 0 1 0 1
0 50 -48 48.492698 0 0 1 4 0 1 0 1
phys
0 -50 -64 64 0 0 1 4 0 1 0 1
0 50 -48 48.492698 0 0 1 4 0 1 0 1
0 50 -63.99 64 0 0 1 4 0 1 0 1
phys
0 -50 -16.03 17.447 0 0 1 5 0 1 0 1
0 -50 0 17.447 0 0 1 5 0 1 0 1
0 -50 0 1.914 0 0 1 5 0 1 0 1
phys
0 50 0 17.447 0 0 1 5 0 1 0 1
0 50 -16.03 17.447 0 0 1 5 0 1 0 1
0 50 0 1.914 0 0 1 5 0 1 0 1
phys
0 50 -16.03 17.447 0 0 1 5 0 1 0 1
0 50 0 17.447 0 0 1 5 0 1 0 1
0 -50 0 17.447 0 0 1 5 0 1 0 1
phys
0 50 -16.03 17.447 0 0 1 5 0 1 0 1
0 -50 0 17.447 0 0 1 5 0 1 0 1
0 -50 -16.03 17.447 0 0 1 5 0 1 0 1
phys
0 -50 -16.03 17.447 0 0 1 5 0 1 0 1
0 -50 0 1.914 0 0 1 5 0 1 0 1
0 50 0 1.914 0 0 1 5 0 1 0 1
phys
0 -50 -16.03 17.447 0 0 1 5 0 1 0 1
0 50 0 1.914 0 0 1 5 0 1 0 1
0 50 -16.03 17.447 0 0 1 5 0 1 0 1
phys
0 50 0 17.447 0 0 1 5 0 1 0 1
0 50 0 1.914 0 0 1 5 0 1 0 1
0 -50 0 1.914 0 0 1 5 0 1 0 1
phys
0 50 0 17.447 0 0 1 5 0 1 0 1
0 -50 0 1.914 0 0 1 5 0 1 0 1
0 -50 0 17.447 0 0 1 5 0 1 0 1
phys
0 328 124 -107 0 0 1 6 0 1 0 1
0 328 124 -127 0 0 1 6 0 1 0 1
0 298 124 -127 0 0 1 6 0 1 0 1
phys
0 328 124 -107 0 0 1 6 0 1 0 1
0 298 124 -127 0 0 1 6 0 1 0 1
0 298 124 -107 0 0 1 6 0 1 0 1
phys
0 328 -116 -127 0 0 1 6 0 1 0 1
0 328 -116 -107 0 0 1 6 0 1 0 1
0 298 -116 -107 0 0 1 6 0 1 0 1
phys
0 328 -116 -127 0 0 1 6 0 1 0 1
0 298 -116 -107 0 0 1 6 0 1 0 1
0 298 -116 -127 0 0 1 6 0 1 0 1
phys
0 298 -116 -127 0 0 1 6 0 1 0 1
0 298 -116 -107 0 0 1 6 0 1 0 1
0 298 124 -107 0 0 1 6 0 1 0 1
phys
0 298 -116 -127 0 0 1 6 0 1 0 1
0 298 124 -107 0 0 1 6 0 1 0 1
0 298 124 -127 0 0 1 6 0 1 0 1
phys
0 328 -116 -107 0 0 1 6 0 1 0 1
0 328 -116 -127 0 0 1 6 0 1 0 1
0 328 124 -127 0 0 1 6 0 1 0 1
phys
0 328 -116 -107 0 0 1 6 0 1 0 1
0 328 124 -127 0 0 1 6 0 1 0 1
0 328 124 -107 0 0 1 6 0 1 0 1
phys
0 328 -116 -127 0 0 1 6 0 1 0 1
0 298 -116 -127 0 0 1 6 0 1 0 1
0 298 124 -127 0 0 1 6 0 1 0 1
phys
0 328 -116 -127 0 0 1 6 0 1 0 1
0 298 124 -127 0 0 1 6 0 1 0 1
0 328 124 -127 0 0 1 6 0 1 0 1
phys
0 298 -116 -107 0 0 1 6 0 1 0 1
0 328 -116 -107 0 0 1 6 0 1 0 1
0 328 124 -107 0 0 1 6 0 1 0 1
phys
0 298 -116 -107 0 0 1 6 0 1 0 1
0 328 124 -107 0 0 1 6 0 1 0 1
0 298 124 -107 0 0 1 6 0 1 0 1
phys
0 89 -152 -304 0 0 1 7 0 1 0 1
0 89 -152 -320.003 0 0 1 7 0 1 0 1
0 73 -152 -304 0 0 1 7 0 1 0 1
phys
0 89 -208 -320.003 0 0 1 7 0 1 0 1
0 89 -208 -304 0 0 1 7 0 1 0 1
0 73 -208 -304 0 0 1 7 0 1 0 1
phys
0 89 -208 -304 0 0 1 7 0 1 0 1
0 89 -208 -320.003 0 0 1 7 0 1 0 1
0 89 -152 -320.003 0 0 1 7 0 1 0 1
phys
0 89 -208 -304 0 0 1 7 0 1 0 1
0 89 -152 -320.003 0 0 1 7 0 1 0 1
0 89 -152 -304 0 0 1 7 0 1 0 1
phys
0 73 -208 -304 0 0 1 7 0 1 0 1
0 89 -208 -304 0 0 1 7 0 1 0 1
0 89 -152 -304 0 0 1 7 0 1 0 1
phys
0 73 -208 -304 0 0 1 7 0 1 0 1
0 89 -152 -304 0 0 1 7 0 1 0 1
0 73 -152 -304 0 0 1 7 0 1 0 1
phys
0 89 -208 -320.003 0 0 1 7 0 1 0 1
0 73 -208 -304 0 0 1 7 0 1 0 1
0 73 -152 -304 0 0 1 7 0 1 0 1
phys
0 89 -208 -320.003 0 0 1 7 0 1 0 1
0 73 -152 -304 0 0 1 7 0 1 0 1
0 89 -152 -320.003 0 0 1 7 0 1 0 1
phys
0 41 -152 -256 0 0 1 8 0 1 0 1
0 41 -152 -272.003 0 0 1 8 0 1 0 1
0 25 -152 -256 0 0 1 8 0 1 0 1
phys
0 41 -208 -272.003 0 0 1 8 0 1 0 1
0 41 -208 -256 0 0 1 8 0 1 0 1
0 25 -208 -256 0 0 1 8 0 1 0 1
phys
0 41 -208 -256 0 0 1 8 0 1 0 1
0 41 -208 -272.003 0 0 1 8 0 1 0 1
0 41 -152 -272.003 0 0 1 8 0 1 0 1
phys
0 41 -208 -256 0 0 1 8 0 1 0 1
0 41 -152 -272.003 0 0 1 8 0 1 0 1
0 41 -152 -256 0 0 1 8 0 1 0 1
phys
0 25 -208 -256 0 0 1 8 0 1 0 1
0 41 -208 -256 0 0 1 8 0 1 0 1
0 41 -152 -256 0 0 1 8 0 1 0 1
phys
0 25 -208 -256 0 0 1 8 0 1 0 1
0 41 -152 -256 0 0 1 8 0 1 0 1
0 25 -152 -256 0 0 1 8 0 1 0 1
phys
0 41 -208 -272.003 0 0 1 8 0 1 0 1
0 25 -208 -256 0 0 1 8 0 1 0 1
0 25 -152 -256 0 0 1 8 0 1 0 1
phys
0 41 -208 -272.003 0 0 1 8 0 1 0 1
0 25 -152 -256 0 0 1 8 0 1 0 1
0 41 -152 -272.003 0 0 1 8 0 1 0 1
phys
0 57 -152 -272 0 0 1 9 0 1 0 1
0 57 -152 -288.003 0 0 1 9 0 1 0 1
0 41 -152 -272 0 0 1 9 0 1 0 1
phys
0 57 -208 -288.003 0 0 1 9 0 1 0 1
0 57 -208 -272 0 0 1 9 0 1 0 1
0 41 -208 -272 0 0 1 9 0 1 0 1
phys
0 57 -208 -272 0 0 1 9 0 1 0 1
0 57 -208 -288.003 0 0 1 9 0 1 0 1
0 57 -152 -288.003 0 0 1 9 0 1 0 1
phys
0 57 -208 -272 0 0 1 9 0 1 0 1
0 57 -152 -288.003 0 0 1 9 0 1 0 1
0 57 -152 -272 0 0 1 9 0 1 0 1
phys
0 41 -208 -272 0 0 1 9 0 1 0 1
0 57 -208 -272 0 0 1 9 0 1 0 1
0 57 -152 -272 0 0 1 9 0 1 0 1
phys
0 41 -208 -272 0 0 1 9 0 1 0 1
0 57 -152 -272 0 0 1 9 0 1 0 1
0 41 -152 -272 0 0 1 9 0 1 0 1
phys
0 57 -208 -288.003 0 0 1 9 0 1 0 1
0 41 -208 -272 0 0 1 9 0 1 0 1
0 41 -152 -272 0 0 1 9 0 1 0 1
phys
0 57 -208 -288.003 0 0 1 9 0 1 0 1
0 41 -152 -272 0 0 1 9 0 1 0 1
0 57 -152 -288.003 0 0 1 9 0 1 0 1
phys
0 -7 -152 -208 0 0 1 10 0 1 0 1
0 -23 -152 -208 0 0 1 10 0 1 0 1
0 -23 -208 -208 0 0 1 10 0 1 0 1
phys
0 -7 -152 -208 0 0 1 10 0 1 0 1
0 -23 -208 -208 0 0 1 10 0 1 0 1
0 -7 -208 -208 0 0 1 10 0 1 0 1
phys
0 -7 -208 -224.003 0 0 1 10 0 1 0 1
0 -23 -208 -208 0 0 1 10 0 1 0 1
0 -23 -152 -208 0 0 1 10 0 1 0 1
phys
0 -7 -208 -224.003 0 0 1 10 0 1 0 1
0 -23 -152 -208 0 0 1 10 0 1 0 1
0 -7 -152 -224.003 0 0 1 10 0 1 0 1
phys
0 -7 -152 -224.003 0 0 1 10 0 1 0 1
0 -23 -152 -208 0 0 1 10 0 1 0 1
0 -7 -152 -208 0 0 1 10 0 1 0 1
phys
0 -7 -208 -208 0 0 1 10 0 1 0 1
0 -23 -208 -208 0 0 1 10 0 1 0 1
0 -7 -208 -224.003 0 0 1 10 0 1 0 1
phys
0 -7 -208 -224.003 0 0 1 10 0 1 0 1
0 -7 -152 -224.003 0 0 1 10 0 1 0 1
0 -7 -152 -208 0 0 1 10 0 1 0 1
phys
0 -7 -208 -224.003 0 0 1 10 0 1 0 1
0 -7 -152 -208 0 0 1 10 0 1 0 1
0 -7 -208 -208 0 0 1 10 0 1 0 1
phys
0 -50 16 -13.579 0 0 1 11 0 1 0 1
0 50 16 -13.579 0 0 1 11 0 1 0 1
0 50 32 -13.579 0 0 1 11 0 1 0 1
phys
0 -50 16 -13.579 0 0 1 11 0 1 0 1
0 50 32 -13.579 0 0 1 11 0 1 0 1
0 -50 32 -13.579 0 0 1 11 0 1 0 1
phys
0 50 16 -13.579 0 0 1 11 0 1 0 1
0 -50 16 -13.579 0 0 1 11 0 1 0 1
0 -50 32 -29.094 0 0 1 11 0 1 0 1
phys
0 50 16 -13.579 0 0 1 11 0 1 0 1
0 -50 32 -29.094 0 0 1 11 0 1 0 1
0 50 32 -29.094 0 0 1 11 0 1 0 1
phys
0 50 32 -29.094 0 0 1 11 0 1 0 1
0 -50 32 -29.094 0 0 1 11 0 1 0 1
0 -50 32 -13.579 0 0 1 11 0 1 0 1
phys
0 50 32 -29.094 0 0 1 11 0 1 0 1
0 -50 32 -13.579 0 0 1 11 0 1 0 1
0 50 32 -13.579 0 0 1 11 0 1 0 1
phys
0 -50 16 -13.579 0 0 1 11 0 1 0 1
0 -50 32 -13.579 0 0 1 11 0 1 0 1
0 -50 32 -29.094 0 0 1 11 0 1 0 1
phys
0 50 32 -13.579 0 0 1 11 0 1 0 1
0 50 16 -13.579 0 0 1 11 0 1 0 1
0 50 32 -29.094 0 0 1 11 0 1 0 1
phys
0 97 -132 -207.996 0 0 1 12 0 1 0 1
0 101 -132 -211.983 0 0 1 12 0 1 0 1
0 101 -116 -211.983 0 0 1 12 0 1 0 1
phys
0 97 -132 -207.996 0 0 1 12 0 1 0 1
0 101 -116 -211.983 0 0 1 12 0 1 0 1
0 97 -116 -207.996 0 0 1 12 0 1 0 1
phys
0 97 -116 -320 0 0 1 12 0 1 0 1
0 97 -116 -207.996 0 0 1 12 0 1 0 1
0 101 -116 -211.983 0 0 1 12 0 1 0 1
phys
0 97 -116 -320 0 0 1 12 0 1 0 1
0 101 -116 -211.983 0 0 1 12 0 1 0 1
0 101 -116 -320 0 0 1 12 0 1 0 1
phys
0 101 -132 -320 0 0 1 12 0 1 0 1
0 101 -132 -211.983 0 0 1 12 0 1 0 1
0 97 -132 -207.996 0 0 1 12 0 1 0 1
phys
0 101 -132 -320 0 0 1 12 0 1 0 1
0 97 -132 -207.996 0 0 1 12 0 1 0 1
0 97 -132 -320 0 0 1 12 0 1 0 1
phys
0 97 -132 -320 0 0 1 12 0 1 0 1
0 97 -132 -207.996 0 0 1 12 0 1 0 1
0 97 -116 -207.996 0 0 1 12 0 1 0 1
phys
0 97 -132 -320 0 0 1 12 0 1 0 1
0 97 -116 -207.996 0 0 1 12 0 1 0 1
0 97 -116 -320 0 0 1 12 0 1 0 1
phys
0 101 -116 -320 0 0 1 12 0 1 0 1
0 101 -116 -211.983 0 0 1 12 0 1 0 1
0 101 -132 -211.983 0 0 1 12 0 1 0 1
phys
0 101 -116 -320 0 0 1 12 0 1 0 1
0 101 -132 -211.983 0 0 1 12 0 1 0 1
0 101 -132 -320 0 0 1 12 0 1 0 1
phys
0 97 -116 -320 0 0 1 12 0 1 0 1
0 101 -116 -320 0 0 1 12 0 1 0 1
0 101 -132 -320 0 0 1 12 0 1 0 1
phys
0 97 -116 -320 0 0 1 12 0 1 0 1
0 101 -132 -320 0 0 1 12 0 1 0 1
0 97 -132 -320 0 0 1 12 0 1 0 1
phys
0 73 -152 -288 0 0 1 13 0 1 0 1
0 73 -152 -304.003 0 0 1 13 0 1 0 1
0 57 -152 -288 0 0 1 13 0 1 0 1
phys
0 73 -208 -304.003 0 0 1 13 0 1 0 1
0 73 -208 -288 0 0 1 13 0 1 0 1
0 57 -208 -288 0 0 1 13 0 1 0 1
phys
0 73 -208 -288 0 0 1 13 0 1 0 1
0 73 -208 -304.003 0 0 1 13 0 1 0 1
0 73 -152 -304.003 0 0 1 13 0 1 0 1
phys
0 73 -208 -288 0 0 1 13 0 1 0 1
0 73 -152 -304.003 0 0 1 13 0 1 0 1
0 73 -152 -288 0 0 1 13 0 1 0 1
phys
0 57 -208 -288 0 0 1 13 0 1 0 1
0 73 -208 -288 0 0 1 13 0 1 0 1
0 73 -152 -288 0 0 1 13 0 1 0 1
phys
0 57 -208 -288 0 0 1 13 0 1 0 1
0 73 -152 -288 0 0 1 13 0 1 0 1
0 57 -152 -288 0 0 1 13 0 1 0 1
phys
0 73 -208 -304.003 0 0 1 13 0 1 0 1
0 57 -208 -288 0 0 1 13 0 1 0 1
0 57 -152 -288 0 0 1 13 0 1 0 1
phys
0 73 -208 -304.003 0 0 1 13 0 1 0 1
0 57 -152 -288 0 0 1 13 0 1 0 1
0 73 -152 -304.003 0 0 1 13 0 1 0 1
phys
0 25 -208 -256.003 0 0 1 14 0 1 0 1
0 25 -152 -256.003 0 0 1 14 0 1 0 1
0 25 -152 -240 0 0 1 14 0 1 0 1
phys
0 25 -208 -256.003 0 0 1 14 0 1 0 1
0 25 -152 -240 0 0 1 14 0 1 0 1
0 25 -208 -240 0 0 1 14 0 1 0 1
phys
0 25 -208 -240 0 0 1 14 0 1 0 1
0 25 -152 -240 0 0 1 14 0 1 0 1
0 9 -152 -240 0 0 1 14 0 1 0 1
phys
0 25 -208 -240 0 0 1 14 0 1 0 1
0 9 -152 -240 0 0 1 14 0 1 0 1
0 9 -208 -240 0 0 1 14 0 1 0 1
phys
0 9 -208 -240 0 0 1 14 0 1 0 1
0 9 -152 -240 0 0 1 14 0 1 0 1
0 25 -152 -256.003 0 0 1 14 0 1 0 1
phys
0 9 -208 -240 0 0 1 14 0 1 0 1
0 25 -152 -256.003 0 0 1 14 0 1 0 1
0 25 -208 -256.003 0 0 1 14 0 1 0 1
phys
0 25 -152 -240 0 0 1 14 0 1 0 1
0 25 -152 -256.003 0 0 1 14 0 1 0 1
0 9 -152 -240 0 0 1 14 0 1 0 1
phys
0 25 -208 -256.003 0 0 1 14 0 1 0 1
0 25 -208 -240 0 0 1 14 0 1 0 1
0 9 -208 -240 0 0 1 14 0 1 0 1
phys
0 50 16 1.934 0 0 1 15 0 1 0 1
0 50 16 -13.577 0 0 1 15 0 1 0 1
0 -50 16 -13.577 0 0 1 15 0 1 0 1
phys
0 50 16 1.934 0 0 1 15 0 1 0 1
0 -50 16 -13.577 0 0 1 15 0 1 0 1
0 -50 16 1.934 0 0 1 15 0 1 0 1
phys
0 -50 0 1.934 0 0 1 15 0 1 0 1
0 -50 16 1.934 0 0 1 15 0 1 0 1
0 -50 16 -13.577 0 0 1 15 0 1 0 1
phys
0 50 16 -13.577 0 0 1 15 0 1 0 1
0 50 16 1.934 0 0 1 15 0 1 0 1
0 50 0 1.934 0 0 1 15 0 1 0 1
phys
0 50 0 1.934 0 0 1 15 0 1 0 1
0 50 16 1.934 0 0 1 15 0 1 0 1
0 -50 16 1.934 0 0 1 15 0 1 0 1
phys
0 50 0 1.934 0 0 1 15 0 1 0 1
0 -50 16 1.934 0 0 1 15 0 1 0 1
0 -50 0 1.934 0 0 1 15 0 1 0 1
phys
0 -50 0 1.934 0 0 1 15 0 1 0 1
0 -50 16 -13.577 0 0 1 15 0 1 0 1
0 50 16 -13.577 0 0 1 15 0 1 0 1
phys
0 -50 0 1.934 0 0 1 15 0 1 0 1
0 50 16 -13.577 0 0 1 15 0 1 0 1
0 50 0 1.934 0 0 1 15 0 1 0 1
phys
0 -115 -284 -90 0 0 1 16 0 1 0 1
0 -163 -284 -90 0 0 1 16 0 1 0 1
0 -167 -284 -86 0 0 1 16 0 1 0 1
phys
0 -115 -284 -90 0 0 1 16 0 1 0 1
0 -167 -284 -86 0 0 1 16 0 1 0 1
0 -111 -284 -86 0 0 1 16 0 1 0 1
phys
0 -111 -300 -86 0 0 1 16 0 1 0 1
0 -167 -300 -86 0 0 1 16 0 1 0 1
0 -163 -300 -90 0 0 1 16 0 1 0 1
phys
0 -111 -300 -86 0 0 1 16 0 1 0 1
0 -163 -300 -90 0 0 1 16 0 1 0 1
0 -115 -300 -90 0 0 1 16 0 1 0 1
phys
0 -115 -300 -90 0 0 1 16 0 1 0 1
0 -163 -300 -90 0 0 1 16 0 1 0 1
0 -163 -284 -90 0 0 1 16 0 1 0 1
phys
0 -115 -300 -90 0 0 1 16 0 1 0 1
0 -163 -284 -90 0 0 1 16 0 1 0 1
0 -115 -284 -90 0 0 1 16 0 1 0 1
phys
0 -167 -300 -86 0 0 1 16 0 1 0 1
0 -111 -300 -86 0 0 1 16 0 1 0 1
0 -111 -284 -86 0 0 1 16 0 1 0 1
phys
0 -167 -300 -86 0 0 1 16 0 1 0 1
0 -111 -284 -86 0 0 1 16 0 1 0 1
0 -167 -284 -86 0 0 1 16 0 1 0 1
phys
0 -163 -300 -90 0 0 1 16 0 1 0 1
0 -167 -300 -86 0 0 1 16 0 1 0 1
0 -167 -284 -86 0 0 1 16 0 1 0 1
phys
0 -163 -300 -90 0 0 1 16 0 1 0 1
0 -167 -284 -86 0 0 1 16 0 1 0 1
0 -163 -284 -90 0 0 1 16 0 1 0 1
phys
0 -111 -300 -86 0 0 1 16 0 1 0 1
0 -115 -300 -90 0 0 1 16 0 1 0 1
0 -115 -284 -90 0 0 1 16 0 1 0 1
phys
0 -111 -300 -86 0 0 1 16 0 1 0 1
0 -115 -284 -90 0 0 1 16 0 1 0 1
0 -111 -284 -86 0 0 1 16 0 1 0 1
phys
0 153 -132 -208 0 0 1 17 0 1 0 1
0 153 -116 -208 0 0 1 17 0 1 0 1
0 97 -116 -208 0 0 1 17 0 1 0 1
phys
0 153 -132 -208 0 0 1 17 0 1 0 1
0 97 -116 -208 0 0 1 17 0 1 0 1
0 97 -132 -208 0 0 1 17 0 1 0 1
phys
0 97 -132 -208 0 0 1 17 0 1 0 1
0 97 -116 -208 0 0 1 17 0 1 0 1
0 101 -116 -212 0 0 1 17 0 1 0 1
phys
0 97 -132 -208 0 0 1 17 0 1 0 1
0 101 -116 -212 0 0 1 17 0 1 0 1
0 101 -132 -212 0 0 1 17 0 1 0 1
phys
0 149 -116 -212 0 0 1 17 0 1 0 1
0 153 -116 -208 0 0 1 17 0 1 0 1
0 153 -132 -208 0 0 1 17 0 1 0 1
phys
0 149 -116 -212 0 0 1 17 0 1 0 1
0 153 -132 -208 0 0 1 17 0 1 0 1
0 149 -132 -212 0 0 1 17 0 1 0 1
phys
0 101 -116 -212 0 0 1 17 0 1 0 1
0 97 -116 -208 0 0 1 17 0 1 0 1
0 153 -116 -208 0 0 1 17 0 1 0 1
phys
0 101 -116 -212 0 0 1 17 0 1 0 1
0 153 -116 -208 0 0 1 17 0 1 0 1
0 149 -116 -212 0 0 1 17 0 1 0 1
phys
0 153 -132 -208 0 0 1 17 0 1 0 1
0 97 -132 -208 0 0 1 17 0 1 0 1
0 101 -132 -212 0 0 1 17 0 1 0 1
phys
0 153 -132 -208 0 0 1 17 0 1 0 1
0 101 -132 -212 0 0 1 17 0 1 0 1
0 149 -132 -212 0 0 1 17 0 1 0 1
phys
0 101 -132 -212 0 0 1 17 0 1 0 1
0 101 -116 -212 0 0 1 17 0 1 0 1
0 149 -116 -212 0 0 1 17 0 1 0 1
phys
0 101 -132 -212 0 0 1 17 0 1 0 1
0 149 -116 -212 0 0 1 17 0 1 0 1
0 149 -132 -212 0 0 1 17 0 1 0 1
phys
0 -50 -31.995876 32.969 0 0 1 18 0 1 0 1
0 50 -32 32.969 0 0 1 18 0 1 0 1
0 50 -16 32.969 0 0 1 18 0 1 0 1
phys
0 -50 -31.995876 32.969 0 0 1 18 0 1 0 1
0 50 -16 32.969 0 0 1 18 0 1 0 1
0 -50 -16 32.969 0 0 1 18 0 1 0 1
phys
0 50 -32 32.969 0 0 1 18 0 1 0 1
0 -50 -31.995876 32.969 0 0 1 18 0 1 0 1
0 -50 -16 17.454 0 0 1 18 0 1 0 1
phys
0 50 -32 32.969 0 0 1 18 0 1 0 1
0 -50 -16 17.454 0 0 1 18 0 1 0 1
0 50 -16 17.45 0 0 1 18 0 1 0 1
phys
0 50 -16 17.45 0 0 1 18 0 1 0 1
0 -50 -16 17.454 0 0 1 18 0 1 0 1
0 -50 -16 32.969 0 0 1 18 0 1 0 1
phys
0 50 -16 17.45 0 0 1 18 0 1 0 1
0 -50 -16 32.969 0 0 1 18 0 1 0 1
0 50 -16 32.969 0 0 1 18 0 1 0 1
phys
0 -50 -31.995876 32.969 0 0 1 18 0 1 0 1
0 -50 -16 32.969 0 0 1 18 0 1 0 1
0 -50 -16 17.454 0 0 1 18 0 1 0 1
phys
0 50 -16 32.969 0 0 1 18 0 1 0 1
0 50 -32 32.969 0 0 1 18 0 1 0 1
0 50 -16 17.45 0 0 1 18 0 1 0 1
phys
0 50 64 -64 0 0 1 19 0 1 0 1
0 50 79 -64 0 0 1 19 0 1 0 1
0 50 79 -57.212 0 0 1 19 0 1 0 1
phys
0 50 64 -64 0 0 1 19 0 1 0 1
0 50 79 -57.212 0 0 1 19 0 1 0 1
0 50 64 -57.212 0 0 1 19 0 1 0 1
phys
0 -50 79 -64 0 0 1 19 0 1 0 1
0 50 79 -64 0 0 1 19 0 1 0 1
0 50 64 -64 0 0 1 19 0 1 0 1
phys
0 -50 79 -64 0 0 1 19 0 1 0 1
0 50 64 -64 0 0 1 19 0 1 0 1
0 -50 64 -64 0 0 1 19 0 1 0 1
phys
0 -50 64 -57.212 0 0 1 19 0 1 0 1
0 50 64 -57.212 0 0 1 19 0 1 0 1
0 50 79 -57.212 0 0 1 19 0 1 0 1
phys
0 -50 64 -57.212 0 0 1 19 0 1 0 1
0 50 79 -57.212 0 0 1 19 0 1 0 1
0 -50 79 -57.212 0 0 1 19 0 1 0 1
phys
0 50 79 -57.212 0 0 1 19 0 1 0 1
0 50 79 -64 0 0 1 19 0 1 0 1
0 -50 79 -64 0 0 1 19 0 1 0 1
phys
0 50 79 -57.212 0 0 1 19 0 1 0 1
0 -50 79 -64 0 0 1 19 0 1 0 1
0 -50 79 -57.212 0 0 1 19 0 1 0 1
phys
0 50 64 -64 0 0 1 19 0 1 0 1
0 50 64 -57.212 0 0 1 19 0 1 0 1
0 -50 64 -57.212 0 0 1 19 0 1 0 1
phys
0 50 64 -64 0 0 1 19 0 1 0 1
0 -50 64 -57.212 0 0 1 19 0 1 0 1
0 -50 64 -64 0 0 1 19 0 1 0 1
phys
0 -50 64 -57.212 0 0 1 19 0 1 0 1
0 -50 79 -57.212 0 0 1 19 0 1 0 1
0 -50 79 -64 0 0 1 19 0 1 0 1
phys
0 -50 64 -57.212 0 0 1 19 0 1 0 1
0 -50 79 -64 0 0 1 19 0 1 0 1
0 -50 64 -64 0 0 1 19 0 1 0 1
phys
0 50 64 -44.604 0 0 1 20 0 1 0 1
0 50 64 -60.115 0 0 1 20 0 1 0 1
0 -50 64 -60.115 0 0 1 20 0 1 0 1
phys
0 50 64 -44.604 0 0 1 20 0 1 0 1
0 -50 64 -60.115 0 0 1 20 0 1 0 1
0 -50 64 -44.604 0 0 1 20 0 1 0 1
phys
0 -50 48 -44.604 0 0 1 20 0 1 0 1
0 -50 64 -44.604 0 0 1 20 0 1 0 1
0 -50 64 -60.115 0 0 1 20 0 1 0 1
phys
0 50 64 -60.115 0 0 1 20 0 1 0 1
0 50 64 -44.604 0 0 1 20 0 1 0 1
0 50 48 -44.604 0 0 1 20 0 1 0 1
phys
0 50 48 -44.604 0 0 1 20 0 1 0 1
0 50 64 -44.604 0 0 1 20 0 1 0 1
0 -50 64 -44.604 0 0 1 20 0 1 0 1
phys
0 50 48 -44.604 0 0 1 20 0 1 0 1
0 -50 64 -44.604 0 0 1 20 0 1 0 1
0 -50 48 -44.604 0 0 1 20 0 1 0 1
phys
0 -50 48 -44.604 0 0 1 20 0 1 0 1
0 -50 64 -60.115 0 0 1 20 0 1 0 1
0 50 64 -60.115 0 0 1 20 0 1 0 1
phys
0 -50 48 -44.604 0 0 1 20 0 1 0 1
0 50 64 -60.115 0 0 1 20 0 1 0 1
0 50 48 -44.604 0 0 1 20 0 1 0 1
phys
0 -48 124 -107 0 0 1 21 0 1 0 1
0 -48 124 -127 0 0 1 21 0 1 0 1
0 -78 124 -127 0 0 1 21 0 1 0 1
phys
0 -48 124 -107 0 0 1 21 0 1 0 1
0 -78 124 -127 0 0 1 21 0 1 0 1
0 -78 124 -107 0 0 1 21 0 1 0 1
phys
0 -48 -116 -127 0 0 1 21 0 1 0 1
0 -48 -116 -107 0 0 1 21 0 1 0 1
0 -78 -116 -107 0 0 1 21 0 1 0 1
phys
0 -48 -116 -127 0 0 1 21 0 1 0 1
0 -78 -116 -107 0 0 1 21 0 1 0 1
0 -78 -116 -127 0 0 1 21 0 1 0 1
phys
0 -78 -116 -127 0 0 1 21 0 1 0 1
0 -78 -116 -107 0 0 1 21 0 1 0 1
0 -78 124 -107 0 0 1 21 0 1 0 1
phys
0 -78 -116 -127 0 0 1 21 0 1 0 1
0 -78 124 -107 0 0 1 21 0 1 0 1
0 -78 124 -127 0 0 1 21 0 1 0 1
phys
0 -48 -116 -107 0 0 1 21 0 1 0 1
0 -48 -116 -127 0 0 1 21 0 1 0 1
0 -48 124 -127 0 0 1 21 0 1 0 1
phys
0 -48 -116 -107 0 0 1 21 0 1 0 1
0 -48 124 -127 0 0 1 21 0 1 0 1
0 -48 124 -107 0 0 1 21 0 1 0 1
phys
0 -48 -116 -127 0 0 1 21 0 1 0 1
0 -78 -116 -127 0 0 1 21 0 1 0 1
0 -78 124 -127 0 0 1 21 0 1 0 1
phys
0 -48 -116 -127 0 0 1 21 0 1 0 1
0 -78 124 -127 0 0 1 21 0 1 0 1
0 -48 124 -127 0 0 1 21 0 1 0 1
phys
0 -78 -116 -107 0 0 1 21 0 1 0 1
0 -48 -116 -107 0 0 1 21 0 1 0 1
0 -48 124 -107 0 0 1 21 0 1 0 1
phys
0 -78 -116 -107 0 0 1 21 0 1 0 1
0 -48 124 -107 0 0 1 21 0 1 0 1
0 -78 124 -107 0 0 1 21 0 1 0 1
phys
0 9 -152 -224 0 0 1 22 0 1 0 1
0 9 -152 -240.003 0 0 1 22 0 1 0 1
0 -7 -152 -224 0 0 1 22 0 1 0 1
phys
0 9 -208 -240.003 0 0 1 22 0 1 0 1
0 9 -208 -224 0 0 1 22 0 1 0 1
0 -7 -208 -224 0 0 1 22 0 1 0 1
phys
0 9 -208 -224 0 0 1 22 0 1 0 1
0 9 -208 -240.003 0 0 1 22 0 1 0 1
0 9 -152 -240.003 0 0 1 22 0 1 0 1
phys
0 9 -208 -224 0 0 1 22 0 1 0 1
0 9 -152 -240.003 0 0 1 22 0 1 0 1
0 9 -152 -224 0 0 1 22 0 1 0 1
phys
0 -7 -208 -224 0 0 1 22 0 1 0 1
0 9 -208 -224 0 0 1 22 0 1 0 1
0 9 -152 -224 0 0 1 22 0 1 0 1
phys
0 -7 -208 -224 0 0 1 22 0 1 0 1
0 9 -152 -224 0 0 1 22 0 1 0 1
0 -7 -152 -224 0 0 1 22 0 1 0 1
phys
0 9 -208 -240.003 0 0 1 22 0 1 0 1
0 -7 -208 -224 0 0 1 22 0 1 0 1
0 -7 -152 -224 0 0 1 22 0 1 0 1
phys
0 9 -208 -240.003 0 0 1 22 0 1 0 1
0 -7 -152 -224 0 0 1 22 0 1 0 1
0 9 -152 -240.003 0 0 1 22 0 1 0 1
phys
0 50 48 -29.094 0 0 1 23 0 1 0 1
0 50 48 -44.605 0 0 1 23 0 1 0 1
0 -50 48 -44.605 0 0 1 23 0 1 0 1
phys
0 50 48 -29.094 0 0 1 23 0 1 0 1
0 -50 48 -44.605 0 0 1 23 0 1 0 1
0 -50 48 -29.094 0 0 1 23 0 1 0 1
phys
0 -50 32 -29.094 0 0 1 23 0 1 0 1
0 -50 48 -29.094 0 0 1 23 0 1 0 1
0 -50 48 -44.605 0 0 1 23 0 1 0 1
phys
0 50 48 -44.605 0 0 1 23 0 1 0 1
0 50 48 -29.094 0 0 1 23 0 1 0 1
0 50 32 -29.094 0 0 1 23 0 1 0 1
phys
0 50 32 -29.094 0 0 1 23 0 1 0 1
0 50 48 -29.094 0 0 1 23 0 1 0 1
0 -50 48 -29.094 0 0 1 23 0 1 0 1
phys
0 50 32 -29.094 0 0 1 23 0 1 0 1
0 -50 48 -29.094 0 0 1 23 0 1 0 1
0 -50 32 -29.094 0 0 1 23 0 1 0 1
phys
0 -50 32 -29.094 0 0 1 23 0 1 0 1
0 -50 48 -44.605 0 0 1 23 0 1 0 1
0 50 48 -44.605 0 0 1 23 0 1 0 1
phys
0 -50 32 -29.094 0 0 1 23 0 1 0 1
0 50 48 -44.605 0 0 1 23 0 1 0 1
0 50 32 -29.094 0 0 1 23 0 1 0 1
phys
0 -111 -284 -86.001 0 0 1 24 0 1 0 1
0 -111 -284 -198 0 0 1 24 0 1 0 1
0 -115 -284 -198 0 0 1 24 0 1 0 1
phys
0 -111 -284 -86.001 0 0 1 24 0 1 0 1
0 -115 -284 -198 0 0 1 24 0 1 0 1
0 -115 -284 -90.001 0 0 1 24 0 1 0 1
phys
0 -111 -300 -198 0 0 1 24 0 1 0 1
0 -111 -300 -86.001 0 0 1 24 0 1 0 1
0 -115 -300 -90.001 0 0 1 24 0 1 0 1
phys
0 -111 -300 -198 0 0 1 24 0 1 0 1
0 -115 -300 -90.001 0 0 1 24 0 1 0 1
0 -115 -300 -198 0 0 1 24 0 1 0 1
phys
0 -115 -300 -198 0 0 1 24 0 1 0 1
0 -115 -300 -90.001 0 0 1 24 0 1 0 1
0 -115 -284 -90.001 0 0 1 24 0 1 0 1
phys
0 -115 -300 -198 0 0 1 24 0 1 0 1
0 -115 -284 -90.001 0 0 1 24 0 1 0 1
0 -115 -284 -198 0 0 1 24 0 1 0 1
phys
0 -111 -300 -86.001 0 0 1 24 0 1 0 1
0 -111 -300 -198 0 0 1 24 0 1 0 1
0 -111 -284 -198 0 0 1 24 0 1 0 1
phys
0 -111 -300 -86.001 0 0 1 24 0 1 0 1
0 -111 -284 -198 0 0 1 24 0 1 0 1
0 -111 -284 -86.001 0 0 1 24 0 1 0 1
phys
0 -111 -300 -198 0 0 1 24 0 1 0 1
0 -115 -300 -198 0 0 1 24 0 1 0 1
0 -115 -284 -198 0 0 1 24 0 1 0 1
phys
0 -111 -300 -198 0 0 1 24 0 1 0 1
0 -115 -284 -198 0 0 1 24 0 1 0 1
0 -111 -284 -198 0 0 1 24 0 1 0 1
phys
0 -115 -300 -90.001 0 0 1 24 0 1 0 1
0 -111 -300 -86.001 0 0 1 24 0 1 0 1
0 -111 -284 -86.001 0 0 1 24 0 1 0 1
phys
0 -115 -300 -90.001 0 0 1 24 0 1 0 1
0 -111 -284 -86.001 0 0 1 24 0 1 0 1
0 -115 -284 -90.001 0 0 1 24 0 1 0 1
phys
0 300 124 -216 0 0 1 25 0 1 0 1
0 300 140 -216 0 0 1 25 0 1 0 1
0 396 140 -216 0 0 1 25 0 1 0 1
phys
0 300 124 -216 0 0 1 25 0 1 0 1
0 396 140 -216 0 0 1 25 0 1 0 1
0 396 124 -216 0 0 1 25 0 1 0 1
phys
0 404 124 -208 0 0 1 25 0 1 0 1
0 404 140 -208 0 0 1 25 0 1 0 1
0 292 140 -208 0 0 1 25 0 1 0 1
phys
0 404 124 -208 0 0 1 25 0 1 0 1
0 292 140 -208 0 0 1 25 0 1 0 1
0 292 124 -208 0 0 1 25 0 1 0 1
phys
0 292 124 -208 0 0 1 25 0 1 0 1
0 292 140 -208 0 0 1 25 0 1 0 1
0 300 140 -216 0 0 1 25 0 1 0 1
phys
0 292 124 -208 0 0 1 25 0 1 0 1
0 300 140 -216 0 0 1 25 0 1 0 1
0 300 124 -216 0 0 1 25 0 1 0 1
phys
0 396 124 -216 0 0 1 25 0 1 0 1
0 396 140 -216 0 0 1 25 0 1 0 1
0 404 140 -208 0 0 1 25 0 1 0 1
phys
0 396 124 -216 0 0 1 25 0 1 0 1
0 404 140 -208 0 0 1 25 0 1 0 1
0 404 124 -208 0 0 1 25 0 1 0 1
phys
0 396 140 -216 0 0 1 25 0 1 0 1
0 300 140 -216 0 0 1 25 0 1 0 1
0 292 140 -208 0 0 1 25 0 1 0 1
phys
0 396 140 -216 0 0 1 25 0 1 0 1
0 292 140 -208 0 0 1 25 0 1 0 1
0 404 140 -208 0 0 1 25 0 1 0 1
phys
0 404 124 -208 0 0 1 25 0 1 0 1
0 292 124 -208 0 0 1 25 0 1 0 1
0 300 124 -216 0 0 1 25 0 1 0 1
phys
0 404 124 -208 0 0 1 25 0 1 0 1
0 300 124 -216 0 0 1 25 0 1 0 1
0 396 124 -216 0 0 1 25 0 1 0 1
phys
0 109 -116 -107 0 0 1 26 0 1 0 1
0 109 124 -107 0 0 1 26 0 1 0 1
0 109 124 -127 0 0 1 26 0 1 0 1
phys
0 109 -116 -107 0 0 1 26 0 1 0 1
0 109 124 -127 0 0 1 26 0 1 0 1
0 109 -116 -127 0 0 1 26 0 1 0 1
phys
0 139 -116 -127 0 0 1 26 0 1 0 1
0 139 124 -127 0 0 1 26 0 1 0 1
0 139 124 -107 0 0 1 26 0 1 0 1
phys
0 139 -116 -127 0 0 1 26 0 1 0 1
0 139 124 -107 0 0 1 26 0 1 0 1
0 139 -116 -107 0 0 1 26 0 1 0 1
phys
0 109 -116 -127 0 0 1 26 0 1 0 1
0 109 124 -127 0 0 1 26 0 1 0 1
0 139 124 -127 0 0 1 26 0 1 0 1
phys
0 109 -116 -127 0 0 1 26 0 1 0 1
0 139 124 -127 0 0 1 26 0 1 0 1
0 139 -116 -127 0 0 1 26 0 1 0 1
phys
0 139 -116 -107 0 0 1 26 0 1 0 1
0 139 124 -107 0 0 1 26 0 1 0 1
0 109 124 -107 0 0 1 26 0 1 0 1
phys
0 139 -116 -107 0 0 1 26 0 1 0 1
0 109 124 -107 0 0 1 26 0 1 0 1
0 109 -116 -107 0 0 1 26 0 1 0 1
phys
0 139 124 -107 0 0 1 26 0 1 0 1
0 139 124 -127 0 0 1 26 0 1 0 1
0 109 124 -127 0 0 1 26 0 1 0 1
phys
0 139 124 -107 0 0 1 26 0 1 0 1
0 109 124 -127 0 0 1 26 0 1 0 1
0 109 124 -107 0 0 1 26 0 1 0 1
phys
0 139 -116 -127 0 0 1 26 0 1 0 1
0 139 -116 -107 0 0 1 26 0 1 0 1
0 109 -116 -107 0 0 1 26 0 1 0 1
phys
0 139 -116 -127 0 0 1 26 0 1 0 1
0 109 -116 -107 0 0 1 26 0 1 0 1
0 109 -116 -127 0 0 1 26 0 1 0 1
phys
0 153 -116 -208.001 0 0 1 27 0 1 0 1
0 153 -116 -320 0 0 1 27 0 1 0 1
0 149 -116 -320 0 0 1 27 0 1 0 1
phys
0 153 -116 -208.001 0 0 1 27 0 1 0 1
0 149 -116 -320 0 0 1 27 0 1 0 1
0 149 -116 -212.001 0 0 1 27 0 1 0 1
phys
0 153 -132 -320 0 0 1 27 0 1 0 1
0 153 -132 -208.001 0 0 1 27 0 1 0 1
0 149 -132 -212.001 0 0 1 27 0 1 0 1
phys
0 153 -132 -320 0 0 1 27 0 1 0 1
0 149 -132 -212.001 0 0 1 27 0 1 0 1
0 149 -132 -320 0 0 1 27 0 1 0 1
phys
0 149 -132 -320 0 0 1 27 0 1 0 1
0 149 -132 -212.001 0 0 1 27 0 1 0 1
0 149 -116 -212.001 0 0 1 27 0 1 0 1
phys
0 149 -132 -320 0 0 1 27 0 1 0 1
0 149 -116 -212.001 0 0 1 27 0 1 0 1
0 149 -116 -320 0 0 1 27 0 1 0 1
phys
0 153 -132 -208.001 0 0 1 27 0 1 0 1
0 153 -132 -320 0 0 1 27 0 1 0 1
0 153 -116 -320 0 0 1 27 0 1 0 1
phys
0 153 -132 -208.001 0 0 1 27 0 1 0 1
0 153 -116 -320 0 0 1 27 0 1 0 1
0 153 -116 -208.001 0 0 1 27 0 1 0 1
phys
0 153 -132 -320 0 0 1 27 0 1 0 1
0 149 -132 -320 0 0 1 27 0 1 0 1
0 149 -116 -320 0 0 1 27 0 1 0 1
phys
0 153 -132 -320 0 0 1 27 0 1 0 1
0 149 -116 -320 0 0 1 27 0 1 0 1
0 153 -116 -320 0 0 1 27 0 1 0 1
phys
0 149 -132 -212.001 0 0 1 27 0 1 0 1
0 153 -132 -208.001 0 0 1 27 0 1 0 1
0 153 -116 -208.001 0 0 1 27 0 1 0 1
phys
0 149 -132 -212.001 0 0 1 27 0 1 0 1
0 153 -116 -208.001 0 0 1 27 0 1 0 1
0 149 -116 -212.001 0 0 1 27 0 1 0 1
end
