version 1
nodes
0 "root" -1
end
skeleton
time 0
0 0 0 0 0 0 0
end
triangles
phys
0 204 28 90 0 0 1 1 0 1 0 1
0 204 84 90 0 0 1 1 0 1 0 1
0 204 80 86 0 0 1 1 0 1 0 1
phys
0 204 28 90 0 0 1 1 0 1 0 1
0 204 80 86 0 0 1 1 0 1 0 1
0 204 32 86 0 0 1 1 0 1 0 1
phys
0 214 32 86 0 0 1 1 0 1 0 1
0 214 80 86 0 0 1 1 0 1 0 1
0 214 84 90 0 0 1 1 0 1 0 1
phys
0 214 32 86 0 0 1 1 0 1 0 1
0 214 84 90 0 0 1 1 0 1 0 1
0 214 28 90 0 0 1 1 0 1 0 1
phys
0 204 32 86 0 0 1 1 0 1 0 1
0 204 80 86 0 0 1 1 0 1 0 1
0 214 80 86 0 0 1 1 0 1 0 1
phys
0 204 32 86 0 0 1 1 0 1 0 1
0 214 80 86 0 0 1 1 0 1 0 1
0 214 32 86 0 0 1 1 0 1 0 1
phys
0 214 28 90 0 0 1 1 0 1 0 1
0 214 84 90 0 0 1 1 0 1 0 1
0 204 84 90 0 0 1 1 0 1 0 1
phys
0 214 28 90 0 0 1 1 0 1 0 1
0 204 84 90 0 0 1 1 0 1 0 1
0 204 28 90 0 0 1 1 0 1 0 1
phys
0 204 28 90 0 0 1 1 0 1 0 1
0 204 32 86 0 0 1 1 0 1 0 1
0 214 32 86 0 0 1 1 0 1 0 1
phys
0 204 28 90 0 0 1 1 0 1 0 1
0 214 32 86 0 0 1 1 0 1 0 1
0 214 28 90 0 0 1 1 0 1 0 1
phys
0 204 80 86 0 0 1 1 0 1 0 1
0 204 84 90 0 0 1 1 0 1 0 1
0 214 84 90 0 0 1 1 0 1 0 1
phys
0 204 80 86 0 0 1 1 0 1 0 1
0 214 84 90 0 0 1 1 0 1 0 1
0 214 80 86 0 0 1 1 0 1 0 1
phys
0 66 20 106 0 0 1 2 0 1 0 1
0 66 20 74 0 0 1 2 0 1 0 1
0 26 20 74 0 0 1 2 0 1 0 1
phys
0 66 20 106 0 0 1 2 0 1 0 1
0 26 20 74 0 0 1 2 0 1 0 1
0 26 20 106 0 0 1 2 0 1 0 1
phys
0 66 -124 74 0 0 1 2 0 1 0 1
0 66 -124 106 0 0 1 2 0 1 0 1
0 26 -124 106 0 0 1 2 0 1 0 1
phys
0 66 -124 74 0 0 1 2 0 1 0 1
0 26 -124 106 0 0 1 2 0 1 0 1
0 26 -124 74 0 0 1 2 0 1 0 1
phys
0 26 -124 74 0 0 1 2 0 1 0 1
0 26 -124 106 0 0 1 2 0 1 0 1
0 26 20 106 0 0 1 2 0 1 0 1
phys
0 26 -124 74 0 0 1 2 0 1 0 1
0 26 20 106 0 0 1 2 0 1 0 1
0 26 20 74 0 0 1 2 0 1 0 1
phys
0 66 -124 106 0 0 1 2 0 1 0 1
0 66 -124 74 0 0 1 2 0 1 0 1
0 66 20 74 0 0 1 2 0 1 0 1
phys
0 66 -124 106 0 0 1 2 0 1 0 1
0 66 20 74 0 0 1 2 0 1 0 1
0 66 20 106 0 0 1 2 0 1 0 1
phys
0 66 -124 74 0 0 1 2 0 1 0 1
0 26 -124 74 0 0 1 2 0 1 0 1
0 26 20 74 0 0 1 2 0 1 0 1
phys
0 66 -124 74 0 0 1 2 0 1 0 1
0 26 20 74 0 0 1 2 0 1 0 1
0 66 20 74 0 0 1 2 0 1 0 1
phys
0 26 -124 106 0 0 1 2 0 1 0 1
0 66 -124 106 0 0 1 2 0 1 0 1
0 66 20 106 0 0 1 2 0 1 0 1
phys
0 26 -124 106 0 0 1 2 0 1 0 1
0 66 20 106 0 0 1 2 0 1 0 1
0 26 20 106 0 0 1 2 0 1 0 1
phys
0 62 24 26 0 0 1 3 0 1 0 1
0 62 24 24.998 0 0 1 3 0 1 0 1
0 59 24 22 0 0 1 3 0 1 0 1
phys
0 62 24 26 0 0 1 3 0 1 0 1
0 59 24 22 0 0 1 3 0 1 0 1
0 26 24 22 0 0 1 3 0 1 0 1
phys
0 62 24 26 0 0 1 3 0 1 0 1
0 26 24 22 0 0 1 3 0 1 0 1
0 26 24 26 0 0 1 3 0 1 0 1
phys
0 62 -128 24.998 0 0 1 3 0 1 0 1
0 62 -128 26 0 0 1 3 0 1 0 1
0 26 -128 26 0 0 1 3 0 1 0 1
phys
0 62 -128 24.998 0 0 1 3 0 1 0 1
0 26 -128 26 0 0 1 3 0 1 0 1
0 26 -128 22 0 0 1 3 0 1 0 1
phys
0 62 -128 24.998 0 0 1 3 0 1 0 1
0 26 -128 22 0 0 1 3 0 1 0 1
0 59 -128 22 0 0 1 3 0 1 0 1
phys
0 26 -128 22 0 0 1 3 0 1 0 1
0 26 -128 26 0 0 1 3 0 1 0 1
0 26 24 26 0 0 1 3 0 1 0 1
phys
0 26 -128 22 0 0 1 3 0 1 0 1
0 26 24 26 0 0 1 3 0 1 0 1
0 26 24 22 0 0 1 3 0 1 0 1
phys
0 62 -128 26 0 0 1 3 0 1 0 1
0 62 -128 24.998 0 0 1 3 0 1 0 1
0 62 24 24.998 0 0 1 3 0 1 0 1
phys
0 62 -128 26 0 0 1 3 0 1 0 1
0 62 24 24.998 0 0 1 3 0 1 0 1
0 62 24 26 0 0 1 3 0 1 0 1
phys
0 59 -128 22 0 0 1 3 0 1 0 1
0 26 -128 22 0 0 1 3 0 1 0 1
0 26 24 22 0 0 1 3 0 1 0 1
phys
0 59 -128 22 0 0 1 3 0 1 0 1
0 26 24 22 0 0 1 3 0 1 0 1
0 59 24 22 0 0 1 3 0 1 0 1
phys
0 26 -128 26 0 0 1 3 0 1 0 1
0 62 -128 26 0 0 1 3 0 1 0 1
0 62 24 26 0 0 1 3 0 1 0 1
phys
0 26 -128 26 0 0 1 3 0 1 0 1
0 62 24 26 0 0 1 3 0 1 0 1
0 26 24 26 0 0 1 3 0 1 0 1
phys
0 62 -128 24.998 0 0 1 3 0 1 0 1
0 59 -128 22 0 0 1 3 0 1 0 1
0 59 24 22 0 0 1 3 0 1 0 1
phys
0 62 -128 24.998 0 0 1 3 0 1 0 1
0 59 24 22 0 0 1 3 0 1 0 1
0 62 24 24.998 0 0 1 3 0 1 0 1
phys
0 16 -72 74 0 0 1 4 0 1 0 1
0 16 72 74 0 0 1 4 0 1 0 1
0 16 72 106 0 0 1 4 0 1 0 1
phys
0 16 -72 74 0 0 1 4 0 1 0 1
0 16 72 106 0 0 1 4 0 1 0 1
0 16 -72 106 0 0 1 4 0 1 0 1
phys
0 -24 72 74 0 0 1 4 0 1 0 1
0 16 72 74 0 0 1 4 0 1 0 1
0 16 -72 74 0 0 1 4 0 1 0 1
phys
0 -24 72 74 0 0 1 4 0 1 0 1
0 16 -72 74 0 0 1 4 0 1 0 1
0 -24 -72 74 0 0 1 4 0 1 0 1
phys
0 -24 -72 106 0 0 1 4 0 1 0 1
0 16 -72 106 0 0 1 4 0 1 0 1
0 16 72 106 0 0 1 4 0 1 0 1
phys
0 -24 -72 106 0 0 1 4 0 1 0 1
0 16 72 106 0 0 1 4 0 1 0 1
0 -24 72 106 0 0 1 4 0 1 0 1
phys
0 16 72 106 0 0 1 4 0 1 0 1
0 16 72 74 0 0 1 4 0 1 0 1
0 -24 72 74 0 0 1 4 0 1 0 1
phys
0 16 72 106 0 0 1 4 0 1 0 1
0 -24 72 74 0 0 1 4 0 1 0 1
0 -24 72 106 0 0 1 4 0 1 0 1
phys
0 16 -72 74 0 0 1 4 0 1 0 1
0 16 -72 106 0 0 1 4 0 1 0 1
0 -24 -72 106 0 0 1 4 0 1 0 1
phys
0 16 -72 74 0 0 1 4 0 1 0 1
0 -24 -72 106 0 0 1 4 0 1 0 1
0 -24 -72 74 0 0 1 4 0 1 0 1
phys
0 -24 -72 106 0 0 1 4 0 1 0 1
0 -24 72 106 0 0 1 4 0 1 0 1
0 -24 72 74 0 0 1 4 0 1 0 1
phys
0 -24 -72 106 0 0 1 4 0 1 0 1
0 -24 72 74 0 0 1 4 0 1 0 1
0 -24 -72 74 0 0 1 4 0 1 0 1
phys
0 16 -72 -22 0 0 1 5 0 1 0 1
0 16 -72 22 0 0 1 5 0 1 0 1
0 -16 -72 22 0 0 1 5 0 1 0 1
phys
0 16 -72 -22 0 0 1 5 0 1 0 1
0 -16 -72 22 0 0 1 5 0 1 0 1
0 -16 -72 -22 0 0 1 5 0 1 0 1
phys
0 -16 -72 -22 0 0 1 5 0 1 0 1
0 -16 -72 22 0 0 1 5 0 1 0 1
0 -16 72 22 0 0 1 5 0 1 0 1
phys
0 -16 -72 -22 0 0 1 5 0 1 0 1
0 -16 72 22 0 0 1 5 0 1 0 1
0 -16 72 -22 0 0 1 5 0 1 0 1
phys
0 16 -72 22 0 0 1 5 0 1 0 1
0 16 -72 -22 0 0 1 5 0 1 0 1
0 16 72 -22 0 0 1 5 0 1 0 1
phys
0 16 -72 22 0 0 1 5 0 1 0 1
0 16 72 -22 0 0 1 5 0 1 0 1
0 16 72 22 0 0 1 5 0 1 0 1
phys
0 16 -72 -22 0 0 1 5 0 1 0 1
0 -16 -72 -22 0 0 1 5 0 1 0 1
0 -16 72 -22 0 0 1 5 0 1 0 1
phys
0 16 -72 -22 0 0 1 5 0 1 0 1
0 -16 72 -22 0 0 1 5 0 1 0 1
0 16 72 -22 0 0 1 5 0 1 0 1
phys
0 -16 -72 22 0 0 1 5 0 1 0 1
0 16 -72 22 0 0 1 5 0 1 0 1
0 16 72 22 0 0 1 5 0 1 0 1
phys
0 -16 -72 22 0 0 1 5 0 1 0 1
0 16 72 22 0 0 1 5 0 1 0 1
0 -16 72 22 0 0 1 5 0 1 0 1
phys
0 16 72 22 0 0 1 5 0 1 0 1
0 16 72 -22 0 0 1 5 0 1 0 1
0 -16 72 -22 0 0 1 5 0 1 0 1
phys
0 16 72 22 0 0 1 5 0 1 0 1
0 -16 72 -22 0 0 1 5 0 1 0 1
0 -16 72 22 0 0 1 5 0 1 0 1
phys
0 58 -124 -22 0 0 1 6 0 1 0 1
0 26 -124 -22 0 0 1 6 0 1 0 1
0 26 20 -22 0 0 1 6 0 1 0 1
phys
0 58 -124 -22 0 0 1 6 0 1 0 1
0 26 20 -22 0 0 1 6 0 1 0 1
0 58 20 -22 0 0 1 6 0 1 0 1
phys
0 26 -124 22 0 0 1 6 0 1 0 1
0 58 -124 22 0 0 1 6 0 1 0 1
0 58 20 22 0 0 1 6 0 1 0 1
phys
0 26 -124 22 0 0 1 6 0 1 0 1
0 58 20 22 0 0 1 6 0 1 0 1
0 26 20 22 0 0 1 6 0 1 0 1
phys
0 58 20 -22 0 0 1 6 0 1 0 1
0 26 20 -22 0 0 1 6 0 1 0 1
0 26 20 22 0 0 1 6 0 1 0 1
phys
0 58 20 -22 0 0 1 6 0 1 0 1
0 26 20 22 0 0 1 6 0 1 0 1
0 58 20 22 0 0 1 6 0 1 0 1
phys
0 58 -124 22 0 0 1 6 0 1 0 1
0 26 -124 22 0 0 1 6 0 1 0 1
0 26 -124 -22 0 0 1 6 0 1 0 1
phys
0 58 -124 22 0 0 1 6 0 1 0 1
0 26 -124 -22 0 0 1 6 0 1 0 1
0 58 -124 -22 0 0 1 6 0 1 0 1
phys
0 26 -124 22 0 0 1 6 0 1 0 1
0 26 20 22 0 0 1 6 0 1 0 1
0 26 20 -22 0 0 1 6 0 1 0 1
phys
0 26 -124 22 0 0 1 6 0 1 0 1
0 26 20 -22 0 0 1 6 0 1 0 1
0 26 -124 -22 0 0 1 6 0 1 0 1
phys
0 58 -124 -22 0 0 1 6 0 1 0 1
0 58 20 -22 0 0 1 6 0 1 0 1
0 58 20 22 0 0 1 6 0 1 0 1
phys
0 58 -124 -22 0 0 1 6 0 1 0 1
0 58 20 22 0 0 1 6 0 1 0 1
0 58 -124 22 0 0 1 6 0 1 0 1
phys
0 26 -200 86.016 0 0 1 7 0 1 0 1
0 26 -200 -22 0 0 1 7 0 1 0 1
0 16 -200 -22 0 0 1 7 0 1 0 1
phys
0 26 -200 86.016 0 0 1 7 0 1 0 1
0 16 -200 -22 0 0 1 7 0 1 0 1
0 16 -200 86.026 0 0 1 7 0 1 0 1
phys
0 26 -204 -22 0 0 1 7 0 1 0 1
0 26 -204 90.018 0 0 1 7 0 1 0 1
0 16 -204 90.028 0 0 1 7 0 1 0 1
phys
0 26 -204 -22 0 0 1 7 0 1 0 1
0 16 -204 90.028 0 0 1 7 0 1 0 1
0 16 -204 -22 0 0 1 7 0 1 0 1
phys
0 16 -204 -22 0 0 1 7 0 1 0 1
0 16 -204 90.028 0 0 1 7 0 1 0 1
0 16 -200 86.026 0 0 1 7 0 1 0 1
phys
0 16 -204 -22 0 0 1 7 0 1 0 1
0 16 -200 86.026 0 0 1 7 0 1 0 1
0 16 -200 -22 0 0 1 7 0 1 0 1
phys
0 26 -204 90.018 0 0 1 7 0 1 0 1
0 26 -204 -22 0 0 1 7 0 1 0 1
0 26 -200 -22 0 0 1 7 0 1 0 1
phys
0 26 -204 90.018 0 0 1 7 0 1 0 1
0 26 -200 -22 0 0 1 7 0 1 0 1
0 26 -200 86.016 0 0 1 7 0 1 0 1
phys
0 26 -204 -22 0 0 1 7 0 1 0 1
0 16 -204 -22 0 0 1 7 0 1 0 1
0 16 -200 -22 0 0 1 7 0 1 0 1
phys
0 26 -204 -22 0 0 1 7 0 1 0 1
0 16 -200 -22 0 0 1 7 0 1 0 1
0 26 -200 -22 0 0 1 7 0 1 0 1
phys
0 16 -204 90.028 0 0 1 7 0 1 0 1
0 26 -204 90.018 0 0 1 7 0 1 0 1
0 26 -200 86.016 0 0 1 7 0 1 0 1
phys
0 16 -204 90.028 0 0 1 7 0 1 0 1
0 26 -200 86.016 0 0 1 7 0 1 0 1
0 16 -200 86.026 0 0 1 7 0 1 0 1
phys
0 16 -204 90 0 0 1 8 0 1 0 1
0 16 -148 90 0 0 1 8 0 1 0 1
0 16 -152 86 0 0 1 8 0 1 0 1
phys
0 16 -204 90 0 0 1 8 0 1 0 1
0 16 -152 86 0 0 1 8 0 1 0 1
0 16 -200 86 0 0 1 8 0 1 0 1
phys
0 26 -200 86 0 0 1 8 0 1 0 1
0 26 -152 86 0 0 1 8 0 1 0 1
0 26 -148 90 0 0 1 8 0 1 0 1
phys
0 26 -200 86 0 0 1 8 0 1 0 1
0 26 -148 90 0 0 1 8 0 1 0 1
0 26 -204 90 0 0 1 8 0 1 0 1
phys
0 16 -200 86 0 0 1 8 0 1 0 1
0 16 -152 86 0 0 1 8 0 1 0 1
0 26 -152 86 0 0 1 8 0 1 0 1
phys
0 16 -200 86 0 0 1 8 0 1 0 1
0 26 -152 86 0 0 1 8 0 1 0 1
0 26 -200 86 0 0 1 8 0 1 0 1
phys
0 26 -204 90 0 0 1 8 0 1 0 1
0 26 -148 90 0 0 1 8 0 1 0 1
0 16 -148 90 0 0 1 8 0 1 0 1
phys
0 26 -204 90 0 0 1 8 0 1 0 1
0 16 -148 90 0 0 1 8 0 1 0 1
0 16 -204 90 0 0 1 8 0 1 0 1
phys
0 16 -204 90 0 0 1 8 0 1 0 1
0 16 -200 86 0 0 1 8 0 1 0 1
0 26 -200 86 0 0 1 8 0 1 0 1
phys
0 16 -204 90 0 0 1 8 0 1 0 1
0 26 -200 86 0 0 1 8 0 1 0 1
0 26 -204 90 0 0 1 8 0 1 0 1
phys
0 16 -152 86 0 0 1 8 0 1 0 1
0 16 -148 90 0 0 1 8 0 1 0 1
0 26 -148 90 0 0 1 8 0 1 0 1
phys
0 16 -152 86 0 0 1 8 0 1 0 1
0 26 -148 90 0 0 1 8 0 1 0 1
0 26 -152 86 0 0 1 8 0 1 0 1
phys
0 26 -148 90 0 0 1 9 0 1 0 1
0 26 -148 -22 0 0 1 9 0 1 0 1
0 16 -148 -22 0 0 1 9 0 1 0 1
phys
0 26 -148 90 0 0 1 9 0 1 0 1
0 16 -148 -22 0 0 1 9 0 1 0 1
0 16 -148 90 0 0 1 9 0 1 0 1
phys
0 26 -152 -22 0 0 1 9 0 1 0 1
0 26 -152 86 0 0 1 9 0 1 0 1
0 16 -152 86 0 0 1 9 0 1 0 1
phys
0 26 -152 -22 0 0 1 9 0 1 0 1
0 16 -152 86 0 0 1 9 0 1 0 1
0 16 -152 -22 0 0 1 9 0 1 0 1
phys
0 16 -152 -22 0 0 1 9 0 1 0 1
0 16 -152 86 0 0 1 9 0 1 0 1
0 16 -148 90 0 0 1 9 0 1 0 1
phys
0 16 -152 -22 0 0 1 9 0 1 0 1
0 16 -148 90 0 0 1 9 0 1 0 1
0 16 -148 -22 0 0 1 9 0 1 0 1
phys
0 26 -152 86 0 0 1 9 0 1 0 1
0 26 -152 -22 0 0 1 9 0 1 0 1
0 26 -148 -22 0 0 1 9 0 1 0 1
phys
0 26 -152 86 0 0 1 9 0 1 0 1
0 26 -148 -22 0 0 1 9 0 1 0 1
0 26 -148 90 0 0 1 9 0 1 0 1
phys
0 26 -152 -22 0 0 1 9 0 1 0 1
0 16 -152 -22 0 0 1 9 0 1 0 1
0 16 -148 -22 0 0 1 9 0 1 0 1
phys
0 26 -152 -22 0 0 1 9 0 1 0 1
0 16 -148 -22 0 0 1 9 0 1 0 1
0 26 -148 -22 0 0 1 9 0 1 0 1
phys
0 16 -152 86 0 0 1 9 0 1 0 1
0 26 -152 86 0 0 1 9 0 1 0 1
0 26 -148 90 0 0 1 9 0 1 0 1
phys
0 16 -152 86 0 0 1 9 0 1 0 1
0 26 -148 90 0 0 1 9 0 1 0 1
0 16 -148 90 0 0 1 9 0 1 0 1
phys
0 214 32 86 0 0 1 10 0 1 0 1
0 214 32 -22 0 0 1 10 0 1 0 1
0 204 32 -22 0 0 1 10 0 1 0 1
phys
0 214 32 86 0 0 1 10 0 1 0 1
0 204 32 -22 0 0 1 10 0 1 0 1
0 204 32 86 0 0 1 10 0 1 0 1
phys
0 214 28 -22 0 0 1 10 0 1 0 1
0 214 28 90 0 0 1 10 0 1 0 1
0 204 28 90 0 0 1 10 0 1 0 1
phys
0 214 28 -22 0 0 1 10 0 1 0 1
0 204 28 90 0 0 1 10 0 1 0 1
0 204 28 -22 0 0 1 10 0 1 0 1
phys
0 204 28 -22 0 0 1 10 0 1 0 1
0 204 28 90 0 0 1 10 0 1 0 1
0 204 32 86 0 0 1 10 0 1 0 1
phys
0 204 28 -22 0 0 1 10 0 1 0 1
0 204 32 86 0 0 1 10 0 1 0 1
0 204 32 -22 0 0 1 10 0 1 0 1
phys
0 214 28 90 0 0 1 10 0 1 0 1
0 214 28 -22 0 0 1 10 0 1 0 1
0 214 32 -22 0 0 1 10 0 1 0 1
phys
0 214 28 90 0 0 1 10 0 1 0 1
0 214 32 -22 0 0 1 10 0 1 0 1
0 214 32 86 0 0 1 10 0 1 0 1
phys
0 214 28 -22 0 0 1 10 0 1 0 1
0 204 28 -22 0 0 1 10 0 1 0 1
0 204 32 -22 0 0 1 10 0 1 0 1
phys
0 214 28 -22 0 0 1 10 0 1 0 1
0 204 32 -22 0 0 1 10 0 1 0 1
0 214 32 -22 0 0 1 10 0 1 0 1
phys
0 204 28 90 0 0 1 10 0 1 0 1
0 214 28 90 0 0 1 10 0 1 0 1
0 214 32 86 0 0 1 10 0 1 0 1
phys
0 204 28 90 0 0 1 10 0 1 0 1
0 214 32 86 0 0 1 10 0 1 0 1
0 204 32 86 0 0 1 10 0 1 0 1
phys
0 214 84 90.026 0 0 1 11 0 1 0 1
0 214 84 -22 0 0 1 11 0 1 0 1
0 204 84 -22 0 0 1 11 0 1 0 1
phys
0 214 84 90.026 0 0 1 11 0 1 0 1
0 204 84 -22 0 0 1 11 0 1 0 1
0 204 84 90.002 0 0 1 11 0 1 0 1
phys
0 214 80 -22 0 0 1 11 0 1 0 1
0 214 80 86.024 0 0 1 11 0 1 0 1
0 204 80 86 0 0 1 11 0 1 0 1
phys
0 214 80 -22 0 0 1 11 0 1 0 1
0 204 80 86 0 0 1 11 0 1 0 1
0 204 80 -22 0 0 1 11 0 1 0 1
phys
0 204 80 -22 0 0 1 11 0 1 0 1
0 204 80 86 0 0 1 11 0 1 0 1
0 204 84 90.002 0 0 1 11 0 1 0 1
phys
0 204 80 -22 0 0 1 11 0 1 0 1
0 204 84 90.002 0 0 1 11 0 1 0 1
0 204 84 -22 0 0 1 11 0 1 0 1
phys
0 214 80 86.024 0 0 1 11 0 1 0 1
0 214 80 -22 0 0 1 11 0 1 0 1
0 214 84 -22 0 0 1 11 0 1 0 1
phys
0 214 80 86.024 0 0 1 11 0 1 0 1
0 214 84 -22 0 0 1 11 0 1 0 1
0 214 84 90.026 0 0 1 11 0 1 0 1
phys
0 214 80 -22 0 0 1 11 0 1 0 1
0 204 80 -22 0 0 1 11 0 1 0 1
0 204 84 -22 0 0 1 11 0 1 0 1
phys
0 214 80 -22 0 0 1 11 0 1 0 1
0 204 84 -22 0 0 1 11 0 1 0 1
0 214 84 -22 0 0 1 11 0 1 0 1
phys
0 204 80 86 0 0 1 11 0 1 0 1
0 214 80 86.024 0 0 1 11 0 1 0 1
0 214 84 90.026 0 0 1 11 0 1 0 1
phys
0 204 80 86 0 0 1 11 0 1 0 1
0 214 84 90.026 0 0 1 11 0 1 0 1
0 204 84 90.002 0 0 1 11 0 1 0 1
phys
0 16 76 26 0 0 1 12 0 1 0 1
0 16 76 22 0 0 1 12 0 1 0 1
0 -17 76 22 0 0 1 12 0 1 0 1
phys
0 16 76 26 0 0 1 12 0 1 0 1
0 -17 76 22 0 0 1 12 0 1 0 1
0 -20 76 25 0 0 1 12 0 1 0 1
phys
0 16 76 26 0 0 1 12 0 1 0 1
0 -20 76 25 0 0 1 12 0 1 0 1
0 -20 76 26 0 0 1 12 0 1 0 1
phys
0 16 -76 22 0 0 1 12 0 1 0 1
0 16 -76 26 0 0 1 12 0 1 0 1
0 -20 -76 26 0 0 1 12 0 1 0 1
phys
0 16 -76 22 0 0 1 12 0 1 0 1
0 -20 -76 26 0 0 1 12 0 1 0 1
0 -20 -76 25 0 0 1 12 0 1 0 1
phys
0 16 -76 22 0 0 1 12 0 1 0 1
0 -20 -76 25 0 0 1 12 0 1 0 1
0 -17 -76 22 0 0 1 12 0 1 0 1
phys
0 -20 -76 25 0 0 1 12 0 1 0 1
0 -20 -76 26 0 0 1 12 0 1 0 1
0 -20 76 26 0 0 1 12 0 1 0 1
phys
0 -20 -76 25 0 0 1 12 0 1 0 1
0 -20 76 26 0 0 1 12 0 1 0 1
0 -20 76 25 0 0 1 12 0 1 0 1
phys
0 16 -76 26 0 0 1 12 0 1 0 1
0 16 -76 22 0 0 1 12 0 1 0 1
0 16 76 22 0 0 1 12 0 1 0 1
phys
0 16 -76 26 0 0 1 12 0 1 0 1
0 16 76 22 0 0 1 12 0 1 0 1
0 16 76 26 0 0 1 12 0 1 0 1
phys
0 16 -76 22 0 0 1 12 0 1 0 1
0 -17 -76 22 0 0 1 12 0 1 0 1
0 -17 76 22 0 0 1 12 0 1 0 1
phys
0 16 -76 22 0 0 1 12 0 1 0 1
0 -17 76 22 0 0 1 12 0 1 0 1
0 16 76 22 0 0 1 12 0 1 0 1
phys
0 -20 -76 26 0 0 1 12 0 1 0 1
0 16 -76 26 0 0 1 12 0 1 0 1
0 16 76 26 0 0 1 12 0 1 0 1
phys
0 -20 -76 26 0 0 1 12 0 1 0 1
0 16 76 26 0 0 1 12 0 1 0 1
0 -20 76 26 0 0 1 12 0 1 0 1
phys
0 -17 -76 22 0 0 1 12 0 1 0 1
0 -20 -76 25 0 0 1 12 0 1 0 1
0 -20 76 25 0 0 1 12 0 1 0 1
phys
0 -17 -76 22 0 0 1 12 0 1 0 1
0 -20 76 25 0 0 1 12 0 1 0 1
0 -17 76 22 0 0 1 12 0 1 0 1
end
