version 1
nodes
0 "root" -1
end
skeleton
time 0
0 0 0 0 0 0 0
end
triangles
phys
0 90 4 -58 0 0 1 1 0 1 0 1
0 90 4 -60 0 0 1 1 0 1 0 1
0 -89 4 -60 0 0 1 1 0 1 0 1
phys
0 90 4 -58 0 0 1 1 0 1 0 1
0 -89 4 -60 0 0 1 1 0 1 0 1
0 -89 4 -58 0 0 1 1 0 1 0 1
phys
0 90 -4 -60 0 0 1 1 0 1 0 1
0 90 -4 -58 0 0 1 1 0 1 0 1
0 -89 -4 -58 0 0 1 1 0 1 0 1
phys
0 90 -4 -60 0 0 1 1 0 1 0 1
0 -89 -4 -58 0 0 1 1 0 1 0 1
0 -89 -4 -60 0 0 1 1 0 1 0 1
phys
0 -89 -4 -60 0 0 1 1 0 1 0 1
0 -89 -4 -58 0 0 1 1 0 1 0 1
0 -89 4 -58 0 0 1 1 0 1 0 1
phys
0 -89 -4 -60 0 0 1 1 0 1 0 1
0 -89 4 -58 0 0 1 1 0 1 0 1
0 -89 4 -60 0 0 1 1 0 1 0 1
phys
0 90 -4 -58 0 0 1 1 0 1 0 1
0 90 -4 -60 0 0 1 1 0 1 0 1
0 90 4 -60 0 0 1 1 0 1 0 1
phys
0 90 -4 -58 0 0 1 1 0 1 0 1
0 90 4 -60 0 0 1 1 0 1 0 1
0 90 4 -58 0 0 1 1 0 1 0 1
phys
0 90 -4 -60 0 0 1 1 0 1 0 1
0 -89 -4 -60 0 0 1 1 0 1 0 1
0 -89 4 -60 0 0 1 1 0 1 0 1
phys
0 90 -4 -60 0 0 1 1 0 1 0 1
0 -89 4 -60 0 0 1 1 0 1 0 1
0 90 4 -60 0 0 1 1 0 1 0 1
phys
0 -89 -4 -58 0 0 1 1 0 1 0 1
0 90 -4 -58 0 0 1 1 0 1 0 1
0 90 4 -58 0 0 1 1 0 1 0 1
phys
0 -89 -4 -58 0 0 1 1 0 1 0 1
0 90 4 -58 0 0 1 1 0 1 0 1
0 -89 4 -58 0 0 1 1 0 1 0 1
phys
0 88 -4 100 0 0 1 2 0 1 0 1
0 88 4 100 0 0 1 2 0 1 0 1
0 88 4 102 0 0 1 2 0 1 0 1
phys
0 88 -4 100 0 0 1 2 0 1 0 1
0 88 4 102 0 0 1 2 0 1 0 1
0 88 -4 102 0 0 1 2 0 1 0 1
phys
0 1 4 100 0 0 1 2 0 1 0 1
0 88 4 100 0 0 1 2 0 1 0 1
0 88 -4 100 0 0 1 2 0 1 0 1
phys
0 1 4 100 0 0 1 2 0 1 0 1
0 88 -4 100 0 0 1 2 0 1 0 1
0 1 -4 100 0 0 1 2 0 1 0 1
phys
0 1 -4 102 0 0 1 2 0 1 0 1
0 88 -4 102 0 0 1 2 0 1 0 1
0 88 4 102 0 0 1 2 0 1 0 1
phys
0 1 -4 102 0 0 1 2 0 1 0 1
0 88 4 102 0 0 1 2 0 1 0 1
0 1 4 102 0 0 1 2 0 1 0 1
phys
0 88 4 102 0 0 1 2 0 1 0 1
0 88 4 100 0 0 1 2 0 1 0 1
0 1 4 100 0 0 1 2 0 1 0 1
phys
0 88 4 102 0 0 1 2 0 1 0 1
0 1 4 100 0 0 1 2 0 1 0 1
0 1 4 102 0 0 1 2 0 1 0 1
phys
0 88 -4 100 0 0 1 2 0 1 0 1
0 88 -4 102 0 0 1 2 0 1 0 1
0 1 -4 102 0 0 1 2 0 1 0 1
phys
0 88 -4 100 0 0 1 2 0 1 0 1
0 1 -4 102 0 0 1 2 0 1 0 1
0 1 -4 100 0 0 1 2 0 1 0 1
phys
0 1 -4 102 0 0 1 2 0 1 0 1
0 1 4 102 0 0 1 2 0 1 0 1
0 1 4 100 0 0 1 2 0 1 0 1
phys
0 1 -4 102 0 0 1 2 0 1 0 1
0 1 4 100 0 0 1 2 0 1 0 1
0 1 -4 100 0 0 1 2 0 1 0 1
phys
0 88 -1 -58 0 0 1 3 0 1 0 1
0 88 -1 57 0 0 1 3 0 1 0 1
0 -87 -1 57 0 0 1 3 0 1 0 1
phys
0 88 -1 -58 0 0 1 3 0 1 0 1
0 -87 -1 57 0 0 1 3 0 1 0 1
0 -87 -1 -58 0 0 1 3 0 1 0 1
phys
0 -87 -1 -58 0 0 1 3 0 1 0 1
0 -87 -1 57 0 0 1 3 0 1 0 1
0 -87 1 57 0 0 1 3 0 1 0 1
phys
0 -87 -1 -58 0 0 1 3 0 1 0 1
0 -87 1 57 0 0 1 3 0 1 0 1
0 -87 1 -58 0 0 1 3 0 1 0 1
phys
0 88 -1 57 0 0 1 3 0 1 0 1
0 88 -1 -58 0 0 1 3 0 1 0 1
0 88 1 -58 0 0 1 3 0 1 0 1
phys
0 88 -1 57 0 0 1 3 0 1 0 1
0 88 1 -58 0 0 1 3 0 1 0 1
0 88 1 57 0 0 1 3 0 1 0 1
phys
0 88 -1 -58 0 0 1 3 0 1 0 1
0 -87 -1 -58 0 0 1 3 0 1 0 1
0 -87 1 -58 0 0 1 3 0 1 0 1
phys
0 88 -1 -58 0 0 1 3 0 1 0 1
0 -87 1 -58 0 0 1 3 0 1 0 1
0 88 1 -58 0 0 1 3 0 1 0 1
phys
0 -87 -1 57 0 0 1 3 0 1 0 1
0 88 -1 57 0 0 1 3 0 1 0 1
0 88 1 57 0 0 1 3 0 1 0 1
phys
0 -87 -1 57 0 0 1 3 0 1 0 1
0 88 1 57 0 0 1 3 0 1 0 1
0 -87 1 57 0 0 1 3 0 1 0 1
phys
0 88 1 57 0 0 1 3 0 1 0 1
0 88 1 -58 0 0 1 3 0 1 0 1
0 -87 1 -58 0 0 1 3 0 1 0 1
phys
0 88 1 57 0 0 1 3 0 1 0 1
0 -87 1 -58 0 0 1 3 0 1 0 1
0 -87 1 57 0 0 1 3 0 1 0 1
phys
0 90 4 57 0 0 1 4 0 1 0 1
0 90 4 -58 0 0 1 4 0 1 0 1
0 88 4 -58 0 0 1 4 0 1 0 1
phys
0 90 4 57 0 0 1 4 0 1 0 1
0 88 4 -58 0 0 1 4 0 1 0 1
0 88 4 57 0 0 1 4 0 1 0 1
phys
0 90 -4 -58 0 0 1 4 0 1 0 1
0 90 -4 57 0 0 1 4 0 1 0 1
0 88 -4 57 0 0 1 4 0 1 0 1
phys
0 90 -4 -58 0 0 1 4 0 1 0 1
0 88 -4 57 0 0 1 4 0 1 0 1
0 88 -4 -58 0 0 1 4 0 1 0 1
phys
0 88 -4 -58 0 0 1 4 0 1 0 1
0 88 -4 57 0 0 1 4 0 1 0 1
0 88 4 57 0 0 1 4 0 1 0 1
phys
0 88 -4 -58 0 0 1 4 0 1 0 1
0 88 4 57 0 0 1 4 0 1 0 1
0 88 4 -58 0 0 1 4 0 1 0 1
phys
0 90 -4 57 0 0 1 4 0 1 0 1
0 90 -4 -58 0 0 1 4 0 1 0 1
0 90 4 -58 0 0 1 4 0 1 0 1
phys
0 90 -4 57 0 0 1 4 0 1 0 1
0 90 4 -58 0 0 1 4 0 1 0 1
0 90 4 57 0 0 1 4 0 1 0 1
phys
0 90 -4 -58 0 0 1 4 0 1 0 1
0 88 -4 -58 0 0 1 4 0 1 0 1
0 88 4 -58 0 0 1 4 0 1 0 1
phys
0 90 -4 -58 0 0 1 4 0 1 0 1
0 88 4 -58 0 0 1 4 0 1 0 1
0 90 4 -58 0 0 1 4 0 1 0 1
phys
0 88 -4 57 0 0 1 4 0 1 0 1
0 90 -4 57 0 0 1 4 0 1 0 1
0 90 4 57 0 0 1 4 0 1 0 1
phys
0 88 -4 57 0 0 1 4 0 1 0 1
0 90 4 57 0 0 1 4 0 1 0 1
0 88 4 57 0 0 1 4 0 1 0 1
phys
0 1 4 57 0 0 1 5 0 1 0 1
0 1 4 -58 0 0 1 5 0 1 0 1
0 -1 4 -58 0 0 1 5 0 1 0 1
phys
0 1 4 57 0 0 1 5 0 1 0 1
0 -1 4 -58 0 0 1 5 0 1 0 1
0 -1 4 57 0 0 1 5 0 1 0 1
phys
0 1 -4 -58 0 0 1 5 0 1 0 1
0 1 -4 57 0 0 1 5 0 1 0 1
0 -1 -4 57 0 0 1 5 0 1 0 1
phys
0 1 -4 -58 0 0 1 5 0 1 0 1
0 -1 -4 57 0 0 1 5 0 1 0 1
0 -1 -4 -58 0 0 1 5 0 1 0 1
phys
0 -1 -4 -58 0 0 1 5 0 1 0 1
0 -1 -4 57 0 0 1 5 0 1 0 1
0 -1 4 57 0 0 1 5 0 1 0 1
phys
0 -1 -4 -58 0 0 1 5 0 1 0 1
0 -1 4 57 0 0 1 5 0 1 0 1
0 -1 4 -58 0 0 1 5 0 1 0 1
phys
0 1 -4 57 0 0 1 5 0 1 0 1
0 1 -4 -58 0 0 1 5 0 1 0 1
0 1 4 -58 0 0 1 5 0 1 0 1
phys
0 1 -4 57 0 0 1 5 0 1 0 1
0 1 4 -58 0 0 1 5 0 1 0 1
0 1 4 57 0 0 1 5 0 1 0 1
phys
0 1 -4 -58 0 0 1 5 0 1 0 1
0 -1 -4 -58 0 0 1 5 0 1 0 1
0 -1 4 -58 0 0 1 5 0 1 0 1
phys
0 1 -4 -58 0 0 1 5 0 1 0 1
0 -1 4 -58 0 0 1 5 0 1 0 1
0 1 4 -58 0 0 1 5 0 1 0 1
phys
0 -1 -4 57 0 0 1 5 0 1 0 1
0 1 -4 57 0 0 1 5 0 1 0 1
0 1 4 57 0 0 1 5 0 1 0 1
phys
0 -1 -4 57 0 0 1 5 0 1 0 1
0 1 4 57 0 0 1 5 0 1 0 1
0 -1 4 57 0 0 1 5 0 1 0 1
phys
0 88 -1 70 0 0 1 6 0 1 0 1
0 88 -1 185 0 0 1 6 0 1 0 1
0 -87 -1 185 0 0 1 6 0 1 0 1
phys
0 88 -1 70 0 0 1 6 0 1 0 1
0 -87 -1 185 0 0 1 6 0 1 0 1
0 -87 -1 70 0 0 1 6 0 1 0 1
phys
0 -87 -1 70 0 0 1 6 0 1 0 1
0 -87 -1 185 0 0 1 6 0 1 0 1
0 -87 1 185 0 0 1 6 0 1 0 1
phys
0 -87 -1 70 0 0 1 6 0 1 0 1
0 -87 1 185 0 0 1 6 0 1 0 1
0 -87 1 70 0 0 1 6 0 1 0 1
phys
0 88 -1 185 0 0 1 6 0 1 0 1
0 88 -1 70 0 0 1 6 0 1 0 1
0 88 1 70 0 0 1 6 0 1 0 1
phys
0 88 -1 185 0 0 1 6 0 1 0 1
0 88 1 70 0 0 1 6 0 1 0 1
0 88 1 185 0 0 1 6 0 1 0 1
phys
0 88 -1 70 0 0 1 6 0 1 0 1
0 -87 -1 70 0 0 1 6 0 1 0 1
0 -87 1 70 0 0 1 6 0 1 0 1
phys
0 88 -1 70 0 0 1 6 0 1 0 1
0 -87 1 70 0 0 1 6 0 1 0 1
0 88 1 70 0 0 1 6 0 1 0 1
phys
0 -87 -1 185 0 0 1 6 0 1 0 1
0 88 -1 185 0 0 1 6 0 1 0 1
0 88 1 185 0 0 1 6 0 1 0 1
phys
0 -87 -1 185 0 0 1 6 0 1 0 1
0 88 1 185 0 0 1 6 0 1 0 1
0 -87 1 185 0 0 1 6 0 1 0 1
phys
0 88 1 185 0 0 1 6 0 1 0 1
0 88 1 70 0 0 1 6 0 1 0 1
0 -87 1 70 0 0 1 6 0 1 0 1
phys
0 88 1 185 0 0 1 6 0 1 0 1
0 -87 1 70 0 0 1 6 0 1 0 1
0 -87 1 185 0 0 1 6 0 1 0 1
phys
0 90 4 70 0 0 1 7 0 1 0 1
0 90 4 68 0 0 1 7 0 1 0 1
0 -89 4 68 0 0 1 7 0 1 0 1
phys
0 90 4 70 0 0 1 7 0 1 0 1
0 -89 4 68 0 0 1 7 0 1 0 1
0 -89 4 70 0 0 1 7 0 1 0 1
phys
0 90 -4 68 0 0 1 7 0 1 0 1
0 90 -4 70 0 0 1 7 0 1 0 1
0 -89 -4 70 0 0 1 7 0 1 0 1
phys
0 90 -4 68 0 0 1 7 0 1 0 1
0 -89 -4 70 0 0 1 7 0 1 0 1
0 -89 -4 68 0 0 1 7 0 1 0 1
phys
0 -89 -4 68 0 0 1 7 0 1 0 1
0 -89 -4 70 0 0 1 7 0 1 0 1
0 -89 4 70 0 0 1 7 0 1 0 1
phys
0 -89 -4 68 0 0 1 7 0 1 0 1
0 -89 4 70 0 0 1 7 0 1 0 1
0 -89 4 68 0 0 1 7 0 1 0 1
phys
0 90 -4 70 0 0 1 7 0 1 0 1
0 90 -4 68 0 0 1 7 0 1 0 1
0 90 4 68 0 0 1 7 0 1 0 1
phys
0 90 -4 70 0 0 1 7 0 1 0 1
0 90 4 68 0 0 1 7 0 1 0 1
0 90 4 70 0 0 1 7 0 1 0 1
phys
0 90 -4 68 0 0 1 7 0 1 0 1
0 -89 -4 68 0 0 1 7 0 1 0 1
0 -89 4 68 0 0 1 7 0 1 0 1
phys
0 90 -4 68 0 0 1 7 0 1 0 1
0 -89 4 68 0 0 1 7 0 1 0 1
0 90 4 68 0 0 1 7 0 1 0 1
phys
0 -89 -4 70 0 0 1 7 0 1 0 1
0 90 -4 70 0 0 1 7 0 1 0 1
0 90 4 70 0 0 1 7 0 1 0 1
phys
0 -89 -4 70 0 0 1 7 0 1 0 1
0 90 4 70 0 0 1 7 0 1 0 1
0 -89 4 70 0 0 1 7 0 1 0 1
phys
0 90 4 187 0 0 1 8 0 1 0 1
0 90 4 185 0 0 1 8 0 1 0 1
0 -89 4 185 0 0 1 8 0 1 0 1
phys
0 90 4 187 0 0 1 8 0 1 0 1
0 -89 4 185 0 0 1 8 0 1 0 1
0 -89 4 187 0 0 1 8 0 1 0 1
phys
0 90 -4 185 0 0 1 8 0 1 0 1
0 90 -4 187 0 0 1 8 0 1 0 1
0 -89 -4 187 0 0 1 8 0 1 0 1
phys
0 90 -4 185 0 0 1 8 0 1 0 1
0 -89 -4 187 0 0 1 8 0 1 0 1
0 -89 -4 185 0 0 1 8 0 1 0 1
phys
0 -89 -4 185 0 0 1 8 0 1 0 1
0 -89 -4 187 0 0 1 8 0 1 0 1
0 -89 4 187 0 0 1 8 0 1 0 1
phys
0 -89 -4 185 0 0 1 8 0 1 0 1
0 -89 4 187 0 0 1 8 0 1 0 1
0 -89 4 185 0 0 1 8 0 1 0 1
phys
0 90 -4 187 0 0 1 8 0 1 0 1
0 90 -4 185 0 0 1 8 0 1 0 1
0 90 4 185 0 0 1 8 0 1 0 1
phys
0 90 -4 187 0 0 1 8 0 1 0 1
0 90 4 185 0 0 1 8 0 1 0 1
0 90 4 187 0 0 1 8 0 1 0 1
phys
0 90 -4 185 0 0 1 8 0 1 0 1
0 -89 -4 185 0 0 1 8 0 1 0 1
0 -89 4 185 0 0 1 8 0 1 0 1
phys
0 90 -4 185 0 0 1 8 0 1 0 1
0 -89 4 185 0 0 1 8 0 1 0 1
0 90 4 185 0 0 1 8 0 1 0 1
phys
0 -89 -4 187 0 0 1 8 0 1 0 1
0 90 -4 187 0 0 1 8 0 1 0 1
0 90 4 187 0 0 1 8 0 1 0 1
phys
0 -89 -4 187 0 0 1 8 0 1 0 1
0 90 4 187 0 0 1 8 0 1 0 1
0 -89 4 187 0 0 1 8 0 1 0 1
phys
0 90 4 185 0 0 1 9 0 1 0 1
0 90 4 70 0 0 1 9 0 1 0 1
0 88 4 70 0 0 1 9 0 1 0 1
phys
0 90 4 185 0 0 1 9 0 1 0 1
0 88 4 70 0 0 1 9 0 1 0 1
0 88 4 185 0 0 1 9 0 1 0 1
phys
0 90 -4 70 0 0 1 9 0 1 0 1
0 90 -4 185 0 0 1 9 0 1 0 1
0 88 -4 185 0 0 1 9 0 1 0 1
phys
0 90 -4 70 0 0 1 9 0 1 0 1
0 88 -4 185 0 0 1 9 0 1 0 1
0 88 -4 70 0 0 1 9 0 1 0 1
phys
0 88 -4 70 0 0 1 9 0 1 0 1
0 88 -4 185 0 0 1 9 0 1 0 1
0 88 4 185 0 0 1 9 0 1 0 1
phys
0 88 -4 70 0 0 1 9 0 1 0 1
0 88 4 185 0 0 1 9 0 1 0 1
0 88 4 70 0 0 1 9 0 1 0 1
phys
0 90 -4 185 0 0 1 9 0 1 0 1
0 90 -4 70 0 0 1 9 0 1 0 1
0 90 4 70 0 0 1 9 0 1 0 1
phys
0 90 -4 185 0 0 1 9 0 1 0 1
0 90 4 70 0 0 1 9 0 1 0 1
0 90 4 185 0 0 1 9 0 1 0 1
phys
0 90 -4 70 0 0 1 9 0 1 0 1
0 88 -4 70 0 0 1 9 0 1 0 1
0 88 4 70 0 0 1 9 0 1 0 1
phys
0 90 -4 70 0 0 1 9 0 1 0 1
0 88 4 70 0 0 1 9 0 1 0 1
0 90 4 70 0 0 1 9 0 1 0 1
phys
0 88 -4 185 0 0 1 9 0 1 0 1
0 90 -4 185 0 0 1 9 0 1 0 1
0 90 4 185 0 0 1 9 0 1 0 1
phys
0 88 -4 185 0 0 1 9 0 1 0 1
0 90 4 185 0 0 1 9 0 1 0 1
0 88 4 185 0 0 1 9 0 1 0 1
phys
0 1 4 185 0 0 1 10 0 1 0 1
0 1 4 70 0 0 1 10 0 1 0 1
0 -1 4 70 0 0 1 10 0 1 0 1
phys
0 1 4 185 0 0 1 10 0 1 0 1
0 -1 4 70 0 0 1 10 0 1 0 1
0 -1 4 185 0 0 1 10 0 1 0 1
phys
0 1 -4 70 0 0 1 10 0 1 0 1
0 1 -4 185 0 0 1 10 0 1 0 1
0 -1 -4 185 0 0 1 10 0 1 0 1
phys
0 1 -4 70 0 0 1 10 0 1 0 1
0 -1 -4 185 0 0 1 10 0 1 0 1
0 -1 -4 70 0 0 1 10 0 1 0 1
phys
0 -1 -4 70 0 0 1 10 0 1 0 1
0 -1 -4 185 0 0 1 10 0 1 0 1
0 -1 4 185 0 0 1 10 0 1 0 1
phys
0 -1 -4 70 0 0 1 10 0 1 0 1
0 -1 4 185 0 0 1 10 0 1 0 1
0 -1 4 70 0 0 1 10 0 1 0 1
phys
0 1 -4 185 0 0 1 10 0 1 0 1
0 1 -4 70 0 0 1 10 0 1 0 1
0 1 4 70 0 0 1 10 0 1 0 1
phys
0 1 -4 185 0 0 1 10 0 1 0 1
0 1 4 70 0 0 1 10 0 1 0 1
0 1 4 185 0 0 1 10 0 1 0 1
phys
0 1 -4 70 0 0 1 10 0 1 0 1
0 -1 -4 70 0 0 1 10 0 1 0 1
0 -1 4 70 0 0 1 10 0 1 0 1
phys
0 1 -4 70 0 0 1 10 0 1 0 1
0 -1 4 70 0 0 1 10 0 1 0 1
0 1 4 70 0 0 1 10 0 1 0 1
phys
0 -1 -4 185 0 0 1 10 0 1 0 1
0 1 -4 185 0 0 1 10 0 1 0 1
0 1 4 185 0 0 1 10 0 1 0 1
phys
0 -1 -4 185 0 0 1 10 0 1 0 1
0 1 4 185 0 0 1 10 0 1 0 1
0 -1 4 185 0 0 1 10 0 1 0 1
phys
0 90 4 59 0 0 1 11 0 1 0 1
0 90 4 57 0 0 1 11 0 1 0 1
0 -89 4 57 0 0 1 11 0 1 0 1
phys
0 90 4 59 0 0 1 11 0 1 0 1
0 -89 4 57 0 0 1 11 0 1 0 1
0 -89 4 59 0 0 1 11 0 1 0 1
phys
0 90 -4 57 0 0 1 11 0 1 0 1
0 90 -4 59 0 0 1 11 0 1 0 1
0 -89 -4 59 0 0 1 11 0 1 0 1
phys
0 90 -4 57 0 0 1 11 0 1 0 1
0 -89 -4 59 0 0 1 11 0 1 0 1
0 -89 -4 57 0 0 1 11 0 1 0 1
phys
0 -89 -4 57 0 0 1 11 0 1 0 1
0 -89 -4 59 0 0 1 11 0 1 0 1
0 -89 4 59 0 0 1 11 0 1 0 1
phys
0 -89 -4 57 0 0 1 11 0 1 0 1
0 -89 4 59 0 0 1 11 0 1 0 1
0 -89 4 57 0 0 1 11 0 1 0 1
phys
0 90 -4 59 0 0 1 11 0 1 0 1
0 90 -4 57 0 0 1 11 0 1 0 1
0 90 4 57 0 0 1 11 0 1 0 1
phys
0 90 -4 59 0 0 1 11 0 1 0 1
0 90 4 57 0 0 1 11 0 1 0 1
0 90 4 59 0 0 1 11 0 1 0 1
phys
0 90 -4 57 0 0 1 11 0 1 0 1
0 -89 -4 57 0 0 1 11 0 1 0 1
0 -89 4 57 0 0 1 11 0 1 0 1
phys
0 90 -4 57 0 0 1 11 0 1 0 1
0 -89 4 57 0 0 1 11 0 1 0 1
0 90 4 57 0 0 1 11 0 1 0 1
phys
0 -89 -4 59 0 0 1 11 0 1 0 1
0 90 -4 59 0 0 1 11 0 1 0 1
0 90 4 59 0 0 1 11 0 1 0 1
phys
0 -89 -4 59 0 0 1 11 0 1 0 1
0 90 4 59 0 0 1 11 0 1 0 1
0 -89 4 59 0 0 1 11 0 1 0 1
phys
0 88 -4 -28 0 0 1 12 0 1 0 1
0 88 4 -28 0 0 1 12 0 1 0 1
0 88 4 -26 0 0 1 12 0 1 0 1
phys
0 88 -4 -28 0 0 1 12 0 1 0 1
0 88 4 -26 0 0 1 12 0 1 0 1
0 88 -4 -26 0 0 1 12 0 1 0 1
phys
0 1 4 -28 0 0 1 12 0 1 0 1
0 88 4 -28 0 0 1 12 0 1 0 1
0 88 -4 -28 0 0 1 12 0 1 0 1
phys
0 1 4 -28 0 0 1 12 0 1 0 1
0 88 -4 -28 0 0 1 12 0 1 0 1
0 1 -4 -28 0 0 1 12 0 1 0 1
phys
0 1 -4 -26 0 0 1 12 0 1 0 1
0 88 -4 -26 0 0 1 12 0 1 0 1
0 88 4 -26 0 0 1 12 0 1 0 1
phys
0 1 -4 -26 0 0 1 12 0 1 0 1
0 88 4 -26 0 0 1 12 0 1 0 1
0 1 4 -26 0 0 1 12 0 1 0 1
phys
0 88 4 -26 0 0 1 12 0 1 0 1
0 88 4 -28 0 0 1 12 0 1 0 1
0 1 4 -28 0 0 1 12 0 1 0 1
phys
0 88 4 -26 0 0 1 12 0 1 0 1
0 1 4 -28 0 0 1 12 0 1 0 1
0 1 4 -26 0 0 1 12 0 1 0 1
phys
0 88 -4 -28 0 0 1 12 0 1 0 1
0 88 -4 -26 0 0 1 12 0 1 0 1
0 1 -4 -26 0 0 1 12 0 1 0 1
phys
0 88 -4 -28 0 0 1 12 0 1 0 1
0 1 -4 -26 0 0 1 12 0 1 0 1
0 1 -4 -28 0 0 1 12 0 1 0 1
phys
0 1 -4 -26 0 0 1 12 0 1 0 1
0 1 4 -26 0 0 1 12 0 1 0 1
0 1 4 -28 0 0 1 12 0 1 0 1
phys
0 1 -4 -26 0 0 1 12 0 1 0 1
0 1 4 -28 0 0 1 12 0 1 0 1
0 1 -4 -28 0 0 1 12 0 1 0 1
end
