version 1
nodes
0 "root" -1
end
skeleton
time 0
0 0 0 0 0 0 0
end
triangles
bridge_se1_metal_flat_steel_01
0 -472 72 158 -1 0 0 7.5625 -24.464844 1 0 1
0 -472 72 168 -1 0 0 7.953125 -24.464844 1 0 1
0 -472 199 168 -1 0 0 7.953125 -19.503906 1 0 1
bridge_se1_metal_flat_steel_01
0 -472 72 158 -1 0 0 7.5625 -24.464844 1 0 1
0 -472 199 168 -1 0 0 7.953125 -19.503906 1 0 1
0 -472 199 158 -1 0 0 7.5625 -19.503906 1 0 1
bridge_se1_metal_flat_steel_01
0 -470 72 168 1 0 0 7.953125 -24.464844 1 0 1
0 -470 72 158 1 0 0 7.5625 -24.464844 1 0 1
0 -470 199 158 1 0 0 7.5625 -19.503906 1 0 1
bridge_se1_metal_flat_steel_01
0 -470 72 168 1 0 0 7.953125 -24.464844 1 0 1
0 -470 199 158 1 0 0 7.5625 -19.503906 1 0 1
0 -470 199 168 1 0 0 7.953125 -19.503906 1 0 1
bridge_se1_metal_flat_steel_01
0 -470 72 158 0 0 -1 358.703125 -24.464844 1 0 1
0 -472 72 158 0 0 -1 358.78125 -24.464844 1 0 1
0 -472 199 158 0 0 -1 358.78125 -19.503906 1 0 1
bridge_se1_metal_flat_steel_01
0 -470 72 158 0 0 -1 358.703125 -24.464844 1 0 1
0 -472 199 158 0 0 -1 358.78125 -19.503906 1 0 1
0 -470 199 158 0 0 -1 358.703125 -19.503906 1 0 1
bridge_se1_metal_flat_steel_01
0 -432 72 158 -1 0 0 7.5625 -24.464844 1 0 1
0 -432 72 168 -1 0 0 7.953125 -24.464844 1 0 1
0 -432 199 168 -1 0 0 7.953125 -19.503906 1 0 1
bridge_se1_metal_flat_steel_01
0 -432 72 158 -1 0 0 7.5625 -24.464844 1 0 1
0 -432 199 168 -1 0 0 7.953125 -19.503906 1 0 1
0 -432 199 158 -1 0 0 7.5625 -19.503906 1 0 1
bridge_se1_metal_flat_steel_01
0 -430 72 168 1 0 0 7.953125 -24.464844 1 0 1
0 -430 72 158 1 0 0 7.5625 -24.464844 1 0 1
0 -430 199 158 1 0 0 7.5625 -19.503906 1 0 1
bridge_se1_metal_flat_steel_01
0 -430 72 168 1 0 0 7.953125 -24.464844 1 0 1
0 -430 199 158 1 0 0 7.5625 -19.503906 1 0 1
0 -430 199 168 1 0 0 7.953125 -19.503906 1 0 1
bridge_se1_metal_flat_steel_01
0 -430 72 158 0 0 -1 357.140625 -24.464844 1 0 1
0 -432 72 158 0 0 -1 357.21875 -24.464844 1 0 1
0 -432 199 158 0 0 -1 357.21875 -19.503906 1 0 1
bridge_se1_metal_flat_steel_01
0 -430 72 158 0 0 -1 357.140625 -24.464844 1 0 1
0 -432 199 158 0 0 -1 357.21875 -19.503906 1 0 1
0 -430 199 158 0 0 -1 357.140625 -19.503906 1 0 1
bridge_se1_metal_flat_steel_01
0 -392 72 158 -1 0 0 7.5625 -24.464844 1 0 1
0 -392 72 168 -1 0 0 7.953125 -24.464844 1 0 1
0 -392 199 168 -1 0 0 7.953125 -19.503906 1 0 1
bridge_se1_metal_flat_steel_01
0 -392 72 158 -1 0 0 7.5625 -24.464844 1 0 1
0 -392 199 168 -1 0 0 7.953125 -19.503906 1 0 1
0 -392 199 158 -1 0 0 7.5625 -19.503906 1 0 1
bridge_se1_metal_flat_steel_01
0 -390 72 168 1 0 0 7.953125 -24.464844 1 0 1
0 -390 72 158 1 0 0 7.5625 -24.464844 1 0 1
0 -390 199 158 1 0 0 7.5625 -19.503906 1 0 1
bridge_se1_metal_flat_steel_01
0 -390 72 168 1 0 0 7.953125 -24.464844 1 0 1
0 -390 199 158 1 0 0 7.5625 -19.503906 1 0 1
0 -390 199 168 1 0 0 7.953125 -19.503906 1 0 1
bridge_se1_metal_flat_steel_01
0 -390 72 158 0 0 -1 355.578125 -24.464844 1 0 1
0 -392 72 158 0 0 -1 355.65625 -24.464844 1 0 1
0 -392 199 158 0 0 -1 355.65625 -19.503906 1 0 1
bridge_se1_metal_flat_steel_01
0 -390 72 158 0 0 -1 355.578125 -24.464844 1 0 1
0 -392 199 158 0 0 -1 355.65625 -19.503906 1 0 1
0 -390 199 158 0 0 -1 355.578125 -19.503906 1 0 1
bridge_se1_metal_flat_steel_01
0 -452 72 158 -1 0 0 7.5625 -24.464844 1 0 1
0 -452 72 168 -1 0 0 7.953125 -24.464844 1 0 1
0 -452 199 168 -1 0 0 7.953125 -19.503906 1 0 1
bridge_se1_metal_flat_steel_01
0 -452 72 158 -1 0 0 7.5625 -24.464844 1 0 1
0 -452 199 168 -1 0 0 7.953125 -19.503906 1 0 1
0 -452 199 158 -1 0 0 7.5625 -19.503906 1 0 1
bridge_se1_metal_flat_steel_01
0 -450 72 168 1 0 0 7.953125 -24.464844 1 0 1
0 -450 72 158 1 0 0 7.5625 -24.464844 1 0 1
0 -450 199 158 1 0 0 7.5625 -19.503906 1 0 1
bridge_se1_metal_flat_steel_01
0 -450 72 168 1 0 0 7.953125 -24.464844 1 0 1
0 -450 199 158 1 0 0 7.5625 -19.503906 1 0 1
0 -450 199 168 1 0 0 7.953125 -19.503906 1 0 1
bridge_se1_metal_flat_steel_01
0 -450 72 158 0 0 -1 357.921875 -24.464844 1 0 1
0 -452 72 158 0 0 -1 358 -24.464844 1 0 1
0 -452 199 158 0 0 -1 358 -19.503906 1 0 1
bridge_se1_metal_flat_steel_01
0 -450 72 158 0 0 -1 357.921875 -24.464844 1 0 1
0 -452 199 158 0 0 -1 358 -19.503906 1 0 1
0 -450 199 158 0 0 -1 357.921875 -19.503906 1 0 1
bridge_se1_metal_flat_steel_01
0 -410 72 158 0 0 -1 356.359375 -24.464844 1 0 1
0 -412 72 158 0 0 -1 356.4375 -24.464844 1 0 1
0 -412 199 158 0 0 -1 356.4375 -19.503906 1 0 1
bridge_se1_metal_flat_steel_01
0 -410 72 158 0 0 -1 356.359375 -24.464844 1 0 1
0 -412 199 158 0 0 -1 356.4375 -19.503906 1 0 1
0 -410 199 158 0 0 -1 356.359375 -19.503906 1 0 1
bridge_se1_metal_flat_steel_01
0 -412 72 168 -1 0 0 7.953125 -24.464844 1 0 1
0 -412 199 168 -1 0 0 7.953125 -19.503906 1 0 1
0 -412 199 158 -1 0 0 7.5625 -19.503906 1 0 1
bridge_se1_metal_flat_steel_01
0 -412 72 168 -1 0 0 7.953125 -24.464844 1 0 1
0 -412 199 158 -1 0 0 7.5625 -19.503906 1 0 1
0 -412 72 158 -1 0 0 7.5625 -24.464844 1 0 1
bridge_se1_metal_flat_steel_01
0 -410 72 158 1 0 0 7.5625 -24.464844 1 0 1
0 -410 199 158 1 0 0 7.5625 -19.503906 1 0 1
0 -410 199 168 1 0 0 7.953125 -19.503906 1 0 1
bridge_se1_metal_flat_steel_01
0 -410 72 158 1 0 0 7.5625 -24.464844 1 0 1
0 -410 199 168 1 0 0 7.953125 -19.503906 1 0 1
0 -410 72 168 1 0 0 7.953125 -24.464844 1 0 1
pepsi2_arch_concrete_floor_smooth01
0 56 47 8 0 1 0 -67.023438 0.648438 1 0 1
0 56 47 -8 0 1 0 -67.023438 0.523438 1 0 1
0 -56 47 -8 0 1 0 -67.898438 0.523438 1 0 1
pepsi2_arch_concrete_floor_smooth01
0 56 47 8 0 1 0 -67.023438 0.648438 1 0 1
0 -56 47 -8 0 1 0 -67.898438 0.523438 1 0 1
0 -56 47 8 0 1 0 -67.898438 0.648438 1 0 1
rainy_epoxyfloor
0 56 -47 -8 0 -1 0 0.4375 -66.671875 1 0 1
0 56 -47 8 0 -1 0 0.5625 -66.671875 1 0 1
0 -56 -47 8 0 -1 0 0.5625 -67.546875 1 0 1
rainy_epoxyfloor
0 56 -47 -8 0 -1 0 0.4375 -66.671875 1 0 1
0 -56 -47 8 0 -1 0 0.5625 -67.546875 1 0 1
0 -56 -47 -8 0 -1 0 0.4375 -67.546875 1 0 1
rainy_epoxyfloor
0 56 -47 -8 0 0 -1 -6.5625 -66.671875 1 0 1
0 -56 -47 -8 0 0 -1 -6.5625 -67.546875 1 0 1
0 -56 47 -8 0 0 -1 -5.828125 -67.546875 1 0 1
rainy_epoxyfloor
0 56 -47 -8 0 0 -1 -6.5625 -66.671875 1 0 1
0 -56 47 -8 0 0 -1 -5.828125 -67.546875 1 0 1
0 56 47 -8 0 0 -1 -5.828125 -66.671875 1 0 1
concrete_conc_clean_top
0 -56 -47 8 0 0 1 -6.792969 68.765625 1 0 1
0 56 -47 8 0 0 1 -6.792969 67.890625 1 0 1
0 56 47 8 0 0 1 -6.058594 67.890625 1 0 1
concrete_conc_clean_top
0 -56 -47 8 0 0 1 -6.792969 68.765625 1 0 1
0 56 47 8 0 0 1 -6.058594 67.890625 1 0 1
0 -56 47 8 0 0 1 -6.058594 68.765625 1 0 1
bridge_se1_metal_flat_steel_01
0 -372 72 158 -1 0 0 7.5625 -24.464844 1 0 1
0 -372 72 168 -1 0 0 7.953125 -24.464844 1 0 1
0 -372 199 168 -1 0 0 7.953125 -19.503906 1 0 1
bridge_se1_metal_flat_steel_01
0 -372 72 158 -1 0 0 7.5625 -24.464844 1 0 1
0 -372 199 168 -1 0 0 7.953125 -19.503906 1 0 1
0 -372 199 158 -1 0 0 7.5625 -19.503906 1 0 1
bridge_se1_metal_flat_steel_01
0 -370 72 168 1 0 0 7.953125 -24.464844 1 0 1
0 -370 72 158 1 0 0 7.5625 -24.464844 1 0 1
0 -370 199 158 1 0 0 7.5625 -19.503906 1 0 1
bridge_se1_metal_flat_steel_01
0 -370 72 168 1 0 0 7.953125 -24.464844 1 0 1
0 -370 199 158 1 0 0 7.5625 -19.503906 1 0 1
0 -370 199 168 1 0 0 7.953125 -19.503906 1 0 1
bridge_se1_metal_flat_steel_01
0 -370 72 158 0 0 -1 354.796875 -24.464844 1 0 1
0 -372 72 158 0 0 -1 354.875 -24.464844 1 0 1
0 -372 199 158 0 0 -1 354.875 -19.503906 1 0 1
bridge_se1_metal_flat_steel_01
0 -370 72 158 0 0 -1 354.796875 -24.464844 1 0 1
0 -372 199 158 0 0 -1 354.875 -19.503906 1 0 1
0 -370 199 158 0 0 -1 354.796875 -19.503906 1 0 1
end
