version 1
nodes
0 "root" -1
end
skeleton
time 0
0 0 0 0 0 0 0
end
triangles
phys
0 -44 108 52 0 0 1 1 0 1 0 1
0 -44 124 60 0 0 1 1 0 1 0 1
0 -44 108 60 0 0 1 1 0 1 0 1
phys
0 -125 108 60 0 0 1 1 0 1 0 1
0 -44 108 60 0 0 1 1 0 1 0 1
0 -44 124 60 0 0 1 1 0 1 0 1
phys
0 -125 108 60 0 0 1 1 0 1 0 1
0 -44 124 60 0 0 1 1 0 1 0 1
0 -125 124 60 0 0 1 1 0 1 0 1
phys
0 -125 124 60 0 0 1 1 0 1 0 1
0 -44 124 60 0 0 1 1 0 1 0 1
0 -44 108 52 0 0 1 1 0 1 0 1
phys
0 -125 124 60 0 0 1 1 0 1 0 1
0 -44 108 52 0 0 1 1 0 1 0 1
0 -125 108 52 0 0 1 1 0 1 0 1
phys
0 -44 108 52 0 0 1 1 0 1 0 1
0 -44 108 60 0 0 1 1 0 1 0 1
0 -125 108 60 0 0 1 1 0 1 0 1
phys
0 -44 108 52 0 0 1 1 0 1 0 1
0 -125 108 60 0 0 1 1 0 1 0 1
0 -125 108 52 0 0 1 1 0 1 0 1
phys
0 -125 108 60 0 0 1 1 0 1 0 1
0 -125 124 60 0 0 1 1 0 1 0 1
0 -125 108 52 0 0 1 1 0 1 0 1
phys
0 40 -41 -20 0 0 1 2 0 1 0 1
0 40 40 -20 0 0 1 2 0 1 0 1
0 40 40 -12 0 0 1 2 0 1 0 1
phys
0 40 -41 -20 0 0 1 2 0 1 0 1
0 40 40 -12 0 0 1 2 0 1 0 1
0 40 -41 -12 0 0 1 2 0 1 0 1
phys
0 40 -41 -12 0 0 1 2 0 1 0 1
0 40 40 -12 0 0 1 2 0 1 0 1
0 24 40 -12 0 0 1 2 0 1 0 1
phys
0 40 -41 -12 0 0 1 2 0 1 0 1
0 24 40 -12 0 0 1 2 0 1 0 1
0 24 -41 -12 0 0 1 2 0 1 0 1
phys
0 24 -41 -12 0 0 1 2 0 1 0 1
0 24 40 -12 0 0 1 2 0 1 0 1
0 40 40 -20 0 0 1 2 0 1 0 1
phys
0 24 -41 -12 0 0 1 2 0 1 0 1
0 40 40 -20 0 0 1 2 0 1 0 1
0 40 -41 -20 0 0 1 2 0 1 0 1
phys
0 40 40 -12 0 0 1 2 0 1 0 1
0 40 40 -20 0 0 1 2 0 1 0 1
0 24 40 -12 0 0 1 2 0 1 0 1
phys
0 40 -41 -20 0 0 1 2 0 1 0 1
0 40 -41 -12 0 0 1 2 0 1 0 1
0 24 -41 -12 0 0 1 2 0 1 0 1
phys
0 204 344 248 0 0 1 3 0 1 0 1
0 204 344 258 0 0 1 3 0 1 0 1
0 -129 344 258 0 0 1 3 0 1 0 1
phys
0 204 344 248 0 0 1 3 0 1 0 1
0 -129 344 258 0 0 1 3 0 1 0 1
0 -129 344 248 0 0 1 3 0 1 0 1
phys
0 -129 344 248 0 0 1 3 0 1 0 1
0 -129 344 258 0 0 1 3 0 1 0 1
0 -129 354 258 0 0 1 3 0 1 0 1
phys
0 -129 344 248 0 0 1 3 0 1 0 1
0 -129 354 258 0 0 1 3 0 1 0 1
0 -129 354 248 0 0 1 3 0 1 0 1
phys
0 204 344 258 0 0 1 3 0 1 0 1
0 204 344 248 0 0 1 3 0 1 0 1
0 204 354 248 0 0 1 3 0 1 0 1
phys
0 204 344 258 0 0 1 3 0 1 0 1
0 204 354 248 0 0 1 3 0 1 0 1
0 204 354 258 0 0 1 3 0 1 0 1
phys
0 204 344 248 0 0 1 3 0 1 0 1
0 -129 344 248 0 0 1 3 0 1 0 1
0 -129 354 248 0 0 1 3 0 1 0 1
phys
0 204 344 248 0 0 1 3 0 1 0 1
0 -129 354 248 0 0 1 3 0 1 0 1
0 204 354 248 0 0 1 3 0 1 0 1
phys
0 -129 344 258 0 0 1 3 0 1 0 1
0 204 344 258 0 0 1 3 0 1 0 1
0 204 354 258 0 0 1 3 0 1 0 1
phys
0 -129 344 258 0 0 1 3 0 1 0 1
0 204 354 258 0 0 1 3 0 1 0 1
0 -129 354 258 0 0 1 3 0 1 0 1
phys
0 204 354 258 0 0 1 3 0 1 0 1
0 204 354 248 0 0 1 3 0 1 0 1
0 -129 354 248 0 0 1 3 0 1 0 1
phys
0 204 354 258 0 0 1 3 0 1 0 1
0 -129 354 248 0 0 1 3 0 1 0 1
0 -129 354 258 0 0 1 3 0 1 0 1
phys
0 -44 60 28 0 0 1 4 0 1 0 1
0 -44 76 36 0 0 1 4 0 1 0 1
0 -44 60 36 0 0 1 4 0 1 0 1
phys
0 -125 60 36 0 0 1 4 0 1 0 1
0 -44 60 36 0 0 1 4 0 1 0 1
0 -44 76 36 0 0 1 4 0 1 0 1
phys
0 -125 60 36 0 0 1 4 0 1 0 1
0 -44 76 36 0 0 1 4 0 1 0 1
0 -125 76 36 0 0 1 4 0 1 0 1
phys
0 -125 76 36 0 0 1 4 0 1 0 1
0 -44 76 36 0 0 1 4 0 1 0 1
0 -44 60 28 0 0 1 4 0 1 0 1
phys
0 -125 76 36 0 0 1 4 0 1 0 1
0 -44 60 28 0 0 1 4 0 1 0 1
0 -125 60 28 0 0 1 4 0 1 0 1
phys
0 -44 60 28 0 0 1 4 0 1 0 1
0 -44 60 36 0 0 1 4 0 1 0 1
0 -125 60 36 0 0 1 4 0 1 0 1
phys
0 -44 60 28 0 0 1 4 0 1 0 1
0 -125 60 36 0 0 1 4 0 1 0 1
0 -125 60 28 0 0 1 4 0 1 0 1
phys
0 -125 60 36 0 0 1 4 0 1 0 1
0 -125 76 36 0 0 1 4 0 1 0 1
0 -125 60 28 0 0 1 4 0 1 0 1
phys
0 -8 40 12 0 0 1 5 0 1 0 1
0 -8 40 4 0 0 1 5 0 1 0 1
0 -24 40 12 0 0 1 5 0 1 0 1
phys
0 -8 -41 4 0 0 1 5 0 1 0 1
0 -8 -41 12 0 0 1 5 0 1 0 1
0 -24 -41 12 0 0 1 5 0 1 0 1
phys
0 -8 -41 12 0 0 1 5 0 1 0 1
0 -8 -41 4 0 0 1 5 0 1 0 1
0 -8 40 4 0 0 1 5 0 1 0 1
phys
0 -8 -41 12 0 0 1 5 0 1 0 1
0 -8 40 4 0 0 1 5 0 1 0 1
0 -8 40 12 0 0 1 5 0 1 0 1
phys
0 -24 -41 12 0 0 1 5 0 1 0 1
0 -8 -41 12 0 0 1 5 0 1 0 1
0 -8 40 12 0 0 1 5 0 1 0 1
phys
0 -24 -41 12 0 0 1 5 0 1 0 1
0 -8 40 12 0 0 1 5 0 1 0 1
0 -24 40 12 0 0 1 5 0 1 0 1
phys
0 -8 -41 4 0 0 1 5 0 1 0 1
0 -24 -41 12 0 0 1 5 0 1 0 1
0 -24 40 12 0 0 1 5 0 1 0 1
phys
0 -8 -41 4 0 0 1 5 0 1 0 1
0 -24 40 12 0 0 1 5 0 1 0 1
0 -8 40 4 0 0 1 5 0 1 0 1
phys
0 -24 40 20 0 0 1 6 0 1 0 1
0 -24 40 12 0 0 1 6 0 1 0 1
0 -40 40 20 0 0 1 6 0 1 0 1
phys
0 -24 -41 12 0 0 1 6 0 1 0 1
0 -24 -41 20 0 0 1 6 0 1 0 1
0 -40 -41 20 0 0 1 6 0 1 0 1
phys
0 -24 -41 20 0 0 1 6 0 1 0 1
0 -24 -41 12 0 0 1 6 0 1 0 1
0 -24 40 12 0 0 1 6 0 1 0 1
phys
0 -24 -41 20 0 0 1 6 0 1 0 1
0 -24 40 12 0 0 1 6 0 1 0 1
0 -24 40 20 0 0 1 6 0 1 0 1
phys
0 -40 -41 20 0 0 1 6 0 1 0 1
0 -24 -41 20 0 0 1 6 0 1 0 1
0 -24 40 20 0 0 1 6 0 1 0 1
phys
0 -40 -41 20 0 0 1 6 0 1 0 1
0 -24 40 20 0 0 1 6 0 1 0 1
0 -40 40 20 0 0 1 6 0 1 0 1
phys
0 -24 -41 12 0 0 1 6 0 1 0 1
0 -40 -41 20 0 0 1 6 0 1 0 1
0 -40 40 20 0 0 1 6 0 1 0 1
phys
0 -24 -41 12 0 0 1 6 0 1 0 1
0 -40 40 20 0 0 1 6 0 1 0 1
0 -24 40 12 0 0 1 6 0 1 0 1
phys
0 -139 297 92.025 0 0 1 7 0 1 0 1
0 -129 297 92.011 0 0 1 7 0 1 0 1
0 -129 301 88.013 0 0 1 7 0 1 0 1
phys
0 -139 297 92.025 0 0 1 7 0 1 0 1
0 -129 301 88.013 0 0 1 7 0 1 0 1
0 -139 301 88.027 0 0 1 7 0 1 0 1
phys
0 -139 301 -20 0 0 1 7 0 1 0 1
0 -139 301 88.027 0 0 1 7 0 1 0 1
0 -129 301 88.013 0 0 1 7 0 1 0 1
phys
0 -139 301 -20 0 0 1 7 0 1 0 1
0 -129 301 88.013 0 0 1 7 0 1 0 1
0 -129 301 -20 0 0 1 7 0 1 0 1
phys
0 -129 297 -20 0 0 1 7 0 1 0 1
0 -129 297 92.011 0 0 1 7 0 1 0 1
0 -139 297 92.025 0 0 1 7 0 1 0 1
phys
0 -129 297 -20 0 0 1 7 0 1 0 1
0 -139 297 92.025 0 0 1 7 0 1 0 1
0 -139 297 -20 0 0 1 7 0 1 0 1
phys
0 -139 297 -20 0 0 1 7 0 1 0 1
0 -139 297 92.025 0 0 1 7 0 1 0 1
0 -139 301 88.027 0 0 1 7 0 1 0 1
phys
0 -139 297 -20 0 0 1 7 0 1 0 1
0 -139 301 88.027 0 0 1 7 0 1 0 1
0 -139 301 -20 0 0 1 7 0 1 0 1
phys
0 -129 301 -20 0 0 1 7 0 1 0 1
0 -129 301 88.013 0 0 1 7 0 1 0 1
0 -129 297 92.011 0 0 1 7 0 1 0 1
phys
0 -129 301 -20 0 0 1 7 0 1 0 1
0 -129 297 92.011 0 0 1 7 0 1 0 1
0 -129 297 -20 0 0 1 7 0 1 0 1
phys
0 -129 297 -20 0 0 1 7 0 1 0 1
0 -139 297 -20 0 0 1 7 0 1 0 1
0 -139 301 -20 0 0 1 7 0 1 0 1
phys
0 -129 297 -20 0 0 1 7 0 1 0 1
0 -139 301 -20 0 0 1 7 0 1 0 1
0 -129 301 -20 0 0 1 7 0 1 0 1
phys
0 -44 92 44 0 0 1 8 0 1 0 1
0 -44 108 52 0 0 1 8 0 1 0 1
0 -44 92 52 0 0 1 8 0 1 0 1
phys
0 -125 92 52 0 0 1 8 0 1 0 1
0 -44 92 52 0 0 1 8 0 1 0 1
0 -44 108 52 0 0 1 8 0 1 0 1
phys
0 -125 92 52 0 0 1 8 0 1 0 1
0 -44 108 52 0 0 1 8 0 1 0 1
0 -125 108 52 0 0 1 8 0 1 0 1
phys
0 -125 108 52 0 0 1 8 0 1 0 1
0 -44 108 52 0 0 1 8 0 1 0 1
0 -44 92 44 0 0 1 8 0 1 0 1
phys
0 -125 108 52 0 0 1 8 0 1 0 1
0 -44 92 44 0 0 1 8 0 1 0 1
0 -125 92 44 0 0 1 8 0 1 0 1
phys
0 -44 92 44 0 0 1 8 0 1 0 1
0 -44 92 52 0 0 1 8 0 1 0 1
0 -125 92 52 0 0 1 8 0 1 0 1
phys
0 -44 92 44 0 0 1 8 0 1 0 1
0 -125 92 52 0 0 1 8 0 1 0 1
0 -125 92 44 0 0 1 8 0 1 0 1
phys
0 -125 92 52 0 0 1 8 0 1 0 1
0 -125 108 52 0 0 1 8 0 1 0 1
0 -125 92 44 0 0 1 8 0 1 0 1
phys
0 -44 204 100 0 0 1 9 0 1 0 1
0 -44 204 108 0 0 1 9 0 1 0 1
0 -125 204 108 0 0 1 9 0 1 0 1
phys
0 -44 204 100 0 0 1 9 0 1 0 1
0 -125 204 108 0 0 1 9 0 1 0 1
0 -125 204 100 0 0 1 9 0 1 0 1
phys
0 -125 204 100 0 0 1 9 0 1 0 1
0 -125 204 108 0 0 1 9 0 1 0 1
0 -125 220 108 0 0 1 9 0 1 0 1
phys
0 -44 204 108 0 0 1 9 0 1 0 1
0 -44 204 100 0 0 1 9 0 1 0 1
0 -44 220 108 0 0 1 9 0 1 0 1
phys
0 -125 204 108 0 0 1 9 0 1 0 1
0 -44 204 108 0 0 1 9 0 1 0 1
0 -44 220 108 0 0 1 9 0 1 0 1
phys
0 -125 204 108 0 0 1 9 0 1 0 1
0 -44 220 108 0 0 1 9 0 1 0 1
0 -125 220 108 0 0 1 9 0 1 0 1
phys
0 -44 204 100 0 0 1 9 0 1 0 1
0 -125 204 100 0 0 1 9 0 1 0 1
0 -125 220 108 0 0 1 9 0 1 0 1
phys
0 -44 204 100 0 0 1 9 0 1 0 1
0 -125 220 108 0 0 1 9 0 1 0 1
0 -44 220 108 0 0 1 9 0 1 0 1
phys
0 -44 188 92 0 0 1 10 0 1 0 1
0 -44 188 100 0 0 1 10 0 1 0 1
0 -125 188 100 0 0 1 10 0 1 0 1
phys
0 -44 188 92 0 0 1 10 0 1 0 1
0 -125 188 100 0 0 1 10 0 1 0 1
0 -125 188 92 0 0 1 10 0 1 0 1
phys
0 -125 188 92 0 0 1 10 0 1 0 1
0 -125 188 100 0 0 1 10 0 1 0 1
0 -125 204 100 0 0 1 10 0 1 0 1
phys
0 -44 188 100 0 0 1 10 0 1 0 1
0 -44 188 92 0 0 1 10 0 1 0 1
0 -44 204 100 0 0 1 10 0 1 0 1
phys
0 -125 188 100 0 0 1 10 0 1 0 1
0 -44 188 100 0 0 1 10 0 1 0 1
0 -44 204 100 0 0 1 10 0 1 0 1
phys
0 -125 188 100 0 0 1 10 0 1 0 1
0 -44 204 100 0 0 1 10 0 1 0 1
0 -125 204 100 0 0 1 10 0 1 0 1
phys
0 -44 188 92 0 0 1 10 0 1 0 1
0 -125 188 92 0 0 1 10 0 1 0 1
0 -125 204 100 0 0 1 10 0 1 0 1
phys
0 -44 188 92 0 0 1 10 0 1 0 1
0 -125 204 100 0 0 1 10 0 1 0 1
0 -44 204 100 0 0 1 10 0 1 0 1
phys
0 -125 44 20 0 0 1 11 0 1 0 1
0 -125 44 28 0 0 1 11 0 1 0 1
0 -129 44 28 0 0 1 11 0 1 0 1
phys
0 -125 44 20 0 0 1 11 0 1 0 1
0 -129 44 28 0 0 1 11 0 1 0 1
0 -129 44 20 0 0 1 11 0 1 0 1
phys
0 -129 44 20 0 0 1 11 0 1 0 1
0 -129 44 28 0 0 1 11 0 1 0 1
0 -129 236 124 0 0 1 11 0 1 0 1
phys
0 -129 44 20 0 0 1 11 0 1 0 1
0 -129 236 124 0 0 1 11 0 1 0 1
0 -129 252 124 0 0 1 11 0 1 0 1
phys
0 -125 44 28 0 0 1 11 0 1 0 1
0 -125 44 20 0 0 1 11 0 1 0 1
0 -125 252 124 0 0 1 11 0 1 0 1
phys
0 -125 44 28 0 0 1 11 0 1 0 1
0 -125 252 124 0 0 1 11 0 1 0 1
0 -125 236 124 0 0 1 11 0 1 0 1
phys
0 -125 236 124 0 0 1 11 0 1 0 1
0 -125 252 124 0 0 1 11 0 1 0 1
0 -129 252 124 0 0 1 11 0 1 0 1
phys
0 -125 236 124 0 0 1 11 0 1 0 1
0 -129 252 124 0 0 1 11 0 1 0 1
0 -129 236 124 0 0 1 11 0 1 0 1
phys
0 -125 44 20 0 0 1 11 0 1 0 1
0 -129 44 20 0 0 1 11 0 1 0 1
0 -129 252 124 0 0 1 11 0 1 0 1
phys
0 -125 44 20 0 0 1 11 0 1 0 1
0 -129 252 124 0 0 1 11 0 1 0 1
0 -125 252 124 0 0 1 11 0 1 0 1
phys
0 -129 44 28 0 0 1 11 0 1 0 1
0 -125 44 28 0 0 1 11 0 1 0 1
0 -125 236 124 0 0 1 11 0 1 0 1
phys
0 -129 44 28 0 0 1 11 0 1 0 1
0 -125 236 124 0 0 1 11 0 1 0 1
0 -129 236 124 0 0 1 11 0 1 0 1
phys
0 -44 156 76 0 0 1 12 0 1 0 1
0 -44 156 84 0 0 1 12 0 1 0 1
0 -125 156 84 0 0 1 12 0 1 0 1
phys
0 -44 156 76 0 0 1 12 0 1 0 1
0 -125 156 84 0 0 1 12 0 1 0 1
0 -125 156 76 0 0 1 12 0 1 0 1
phys
0 -125 156 76 0 0 1 12 0 1 0 1
0 -125 156 84 0 0 1 12 0 1 0 1
0 -125 172 84 0 0 1 12 0 1 0 1
phys
0 -44 156 84 0 0 1 12 0 1 0 1
0 -44 156 76 0 0 1 12 0 1 0 1
0 -44 172 84 0 0 1 12 0 1 0 1
phys
0 -125 156 84 0 0 1 12 0 1 0 1
0 -44 156 84 0 0 1 12 0 1 0 1
0 -44 172 84 0 0 1 12 0 1 0 1
phys
0 -125 156 84 0 0 1 12 0 1 0 1
0 -44 172 84 0 0 1 12 0 1 0 1
0 -125 172 84 0 0 1 12 0 1 0 1
phys
0 -44 156 76 0 0 1 12 0 1 0 1
0 -125 156 76 0 0 1 12 0 1 0 1
0 -125 172 84 0 0 1 12 0 1 0 1
phys
0 -44 156 76 0 0 1 12 0 1 0 1
0 -125 172 84 0 0 1 12 0 1 0 1
0 -44 172 84 0 0 1 12 0 1 0 1
phys
0 45 234 242 0 0 1 13 0 1 0 1
0 45 244 242 0 0 1 13 0 1 0 1
0 -11 244 242 0 0 1 13 0 1 0 1
phys
0 45 234 242 0 0 1 13 0 1 0 1
0 -11 244 242 0 0 1 13 0 1 0 1
0 -11 234 242 0 0 1 13 0 1 0 1
phys
0 41 244 238 0 0 1 13 0 1 0 1
0 45 244 242 0 0 1 13 0 1 0 1
0 45 234 242 0 0 1 13 0 1 0 1
phys
0 41 244 238 0 0 1 13 0 1 0 1
0 45 234 242 0 0 1 13 0 1 0 1
0 41 234 238 0 0 1 13 0 1 0 1
phys
0 -11 234 242 0 0 1 13 0 1 0 1
0 -11 244 242 0 0 1 13 0 1 0 1
0 -7 244 238 0 0 1 13 0 1 0 1
phys
0 -11 234 242 0 0 1 13 0 1 0 1
0 -7 244 238 0 0 1 13 0 1 0 1
0 -7 234 238 0 0 1 13 0 1 0 1
phys
0 -11 244 242 0 0 1 13 0 1 0 1
0 45 244 242 0 0 1 13 0 1 0 1
0 41 244 238 0 0 1 13 0 1 0 1
phys
0 -11 244 242 0 0 1 13 0 1 0 1
0 41 244 238 0 0 1 13 0 1 0 1
0 -7 244 238 0 0 1 13 0 1 0 1
phys
0 41 234 238 0 0 1 13 0 1 0 1
0 45 234 242 0 0 1 13 0 1 0 1
0 -11 234 242 0 0 1 13 0 1 0 1
phys
0 41 234 238 0 0 1 13 0 1 0 1
0 -11 234 242 0 0 1 13 0 1 0 1
0 -7 234 238 0 0 1 13 0 1 0 1
phys
0 -7 234 238 0 0 1 13 0 1 0 1
0 -7 244 238 0 0 1 13 0 1 0 1
0 41 244 238 0 0 1 13 0 1 0 1
phys
0 -7 234 238 0 0 1 13 0 1 0 1
0 41 244 238 0 0 1 13 0 1 0 1
0 41 234 238 0 0 1 13 0 1 0 1
phys
0 -139 353 -26 0 0 1 14 0 1 0 1
0 -139 353 -30 0 0 1 14 0 1 0 1
0 -147 353 -30 0 0 1 14 0 1 0 1
phys
0 -139 353 -26 0 0 1 14 0 1 0 1
0 -147 353 -30 0 0 1 14 0 1 0 1
0 -147 353 -27.001 0 0 1 14 0 1 0 1
phys
0 -139 353 -26 0 0 1 14 0 1 0 1
0 -147 353 -27.001 0 0 1 14 0 1 0 1
0 -146 353 -26 0 0 1 14 0 1 0 1
phys
0 -139 297 -30 0 0 1 14 0 1 0 1
0 -139 297 -26 0 0 1 14 0 1 0 1
0 -146 297 -26 0 0 1 14 0 1 0 1
phys
0 -139 297 -30 0 0 1 14 0 1 0 1
0 -146 297 -26 0 0 1 14 0 1 0 1
0 -147 297 -27.001 0 0 1 14 0 1 0 1
phys
0 -139 297 -30 0 0 1 14 0 1 0 1
0 -147 297 -27.001 0 0 1 14 0 1 0 1
0 -147 297 -30 0 0 1 14 0 1 0 1
phys
0 -147 297 -30 0 0 1 14 0 1 0 1
0 -147 297 -27.001 0 0 1 14 0 1 0 1
0 -147 353 -27.001 0 0 1 14 0 1 0 1
phys
0 -147 297 -30 0 0 1 14 0 1 0 1
0 -147 353 -27.001 0 0 1 14 0 1 0 1
0 -147 353 -30 0 0 1 14 0 1 0 1
phys
0 -139 297 -26 0 0 1 14 0 1 0 1
0 -139 297 -30 0 0 1 14 0 1 0 1
0 -139 353 -30 0 0 1 14 0 1 0 1
phys
0 -139 297 -26 0 0 1 14 0 1 0 1
0 -139 353 -30 0 0 1 14 0 1 0 1
0 -139 353 -26 0 0 1 14 0 1 0 1
phys
0 -139 297 -30 0 0 1 14 0 1 0 1
0 -147 297 -30 0 0 1 14 0 1 0 1
0 -147 353 -30 0 0 1 14 0 1 0 1
phys
0 -139 297 -30 0 0 1 14 0 1 0 1
0 -147 353 -30 0 0 1 14 0 1 0 1
0 -139 353 -30 0 0 1 14 0 1 0 1
phys
0 -146 297 -26 0 0 1 14 0 1 0 1
0 -139 297 -26 0 0 1 14 0 1 0 1
0 -139 353 -26 0 0 1 14 0 1 0 1
phys
0 -146 297 -26 0 0 1 14 0 1 0 1
0 -139 353 -26 0 0 1 14 0 1 0 1
0 -146 353 -26 0 0 1 14 0 1 0 1
phys
0 -147 297 -27.001 0 0 1 14 0 1 0 1
0 -146 297 -26 0 0 1 14 0 1 0 1
0 -146 353 -26 0 0 1 14 0 1 0 1
phys
0 -147 297 -27.001 0 0 1 14 0 1 0 1
0 -146 353 -26 0 0 1 14 0 1 0 1
0 -147 353 -27.001 0 0 1 14 0 1 0 1
phys
0 24 40 -4 0 0 1 15 0 1 0 1
0 24 40 -12 0 0 1 15 0 1 0 1
0 8 40 -4 0 0 1 15 0 1 0 1
phys
0 24 -41 -12 0 0 1 15 0 1 0 1
0 24 -41 -4 0 0 1 15 0 1 0 1
0 8 -41 -4 0 0 1 15 0 1 0 1
phys
0 24 -41 -4 0 0 1 15 0 1 0 1
0 24 -41 -12 0 0 1 15 0 1 0 1
0 24 40 -12 0 0 1 15 0 1 0 1
phys
0 24 -41 -4 0 0 1 15 0 1 0 1
0 24 40 -12 0 0 1 15 0 1 0 1
0 24 40 -4 0 0 1 15 0 1 0 1
phys
0 8 -41 -4 0 0 1 15 0 1 0 1
0 24 -41 -4 0 0 1 15 0 1 0 1
0 24 40 -4 0 0 1 15 0 1 0 1
phys
0 8 -41 -4 0 0 1 15 0 1 0 1
0 24 40 -4 0 0 1 15 0 1 0 1
0 8 40 -4 0 0 1 15 0 1 0 1
phys
0 24 -41 -12 0 0 1 15 0 1 0 1
0 8 -41 -4 0 0 1 15 0 1 0 1
0 8 40 -4 0 0 1 15 0 1 0 1
phys
0 24 -41 -12 0 0 1 15 0 1 0 1
0 8 40 -4 0 0 1 15 0 1 0 1
0 24 40 -12 0 0 1 15 0 1 0 1
phys
0 -390 369 -30 0 0 1 16 0 1 0 1
0 -390 379 -30 0 0 1 16 0 1 0 1
0 -390 379 103 0 0 1 16 0 1 0 1
phys
0 -390 369 -30 0 0 1 16 0 1 0 1
0 -390 379 103 0 0 1 16 0 1 0 1
0 -390 369 103 0 0 1 16 0 1 0 1
phys
0 -426 379 -30 0 0 1 16 0 1 0 1
0 -390 379 -30 0 0 1 16 0 1 0 1
0 -390 369 -30 0 0 1 16 0 1 0 1
phys
0 -426 379 -30 0 0 1 16 0 1 0 1
0 -390 369 -30 0 0 1 16 0 1 0 1
0 -426 369 -30 0 0 1 16 0 1 0 1
phys
0 -426 369 103 0 0 1 16 0 1 0 1
0 -390 369 103 0 0 1 16 0 1 0 1
0 -390 379 103 0 0 1 16 0 1 0 1
phys
0 -426 369 103 0 0 1 16 0 1 0 1
0 -390 379 103 0 0 1 16 0 1 0 1
0 -426 379 103 0 0 1 16 0 1 0 1
phys
0 -390 379 103 0 0 1 16 0 1 0 1
0 -390 379 -30 0 0 1 16 0 1 0 1
0 -426 379 -30 0 0 1 16 0 1 0 1
phys
0 -390 379 103 0 0 1 16 0 1 0 1
0 -426 379 -30 0 0 1 16 0 1 0 1
0 -426 379 103 0 0 1 16 0 1 0 1
phys
0 -390 369 -30 0 0 1 16 0 1 0 1
0 -390 369 103 0 0 1 16 0 1 0 1
0 -426 369 103 0 0 1 16 0 1 0 1
phys
0 -390 369 -30 0 0 1 16 0 1 0 1
0 -426 369 103 0 0 1 16 0 1 0 1
0 -426 369 -30 0 0 1 16 0 1 0 1
phys
0 -426 369 103 0 0 1 16 0 1 0 1
0 -426 379 103 0 0 1 16 0 1 0 1
0 -426 379 -30 0 0 1 16 0 1 0 1
phys
0 -426 369 103 0 0 1 16 0 1 0 1
0 -426 379 -30 0 0 1 16 0 1 0 1
0 -426 369 -30 0 0 1 16 0 1 0 1
phys
0 204 382 110 0 0 1 17 0 1 0 1
0 204 392 110 0 0 1 17 0 1 0 1
0 204 392 120 0 0 1 17 0 1 0 1
phys
0 204 382 110 0 0 1 17 0 1 0 1
0 204 392 120 0 0 1 17 0 1 0 1
0 204 382 120 0 0 1 17 0 1 0 1
phys
0 -129 392 110 0 0 1 17 0 1 0 1
0 204 392 110 0 0 1 17 0 1 0 1
0 204 382 110 0 0 1 17 0 1 0 1
phys
0 -129 392 110 0 0 1 17 0 1 0 1
0 204 382 110 0 0 1 17 0 1 0 1
0 -129 382 110 0 0 1 17 0 1 0 1
phys
0 -129 382 120 0 0 1 17 0 1 0 1
0 204 382 120 0 0 1 17 0 1 0 1
0 204 392 120 0 0 1 17 0 1 0 1
phys
0 -129 382 120 0 0 1 17 0 1 0 1
0 204 392 120 0 0 1 17 0 1 0 1
0 -129 392 120 0 0 1 17 0 1 0 1
phys
0 204 392 120 0 0 1 17 0 1 0 1
0 204 392 110 0 0 1 17 0 1 0 1
0 -129 392 110 0 0 1 17 0 1 0 1
phys
0 204 392 120 0 0 1 17 0 1 0 1
0 -129 392 110 0 0 1 17 0 1 0 1
0 -129 392 120 0 0 1 17 0 1 0 1
phys
0 204 382 110 0 0 1 17 0 1 0 1
0 204 382 120 0 0 1 17 0 1 0 1
0 -129 382 120 0 0 1 17 0 1 0 1
phys
0 204 382 110 0 0 1 17 0 1 0 1
0 -129 382 120 0 0 1 17 0 1 0 1
0 -129 382 110 0 0 1 17 0 1 0 1
phys
0 -129 382 120 0 0 1 17 0 1 0 1
0 -129 392 120 0 0 1 17 0 1 0 1
0 -129 392 110 0 0 1 17 0 1 0 1
phys
0 -129 382 120 0 0 1 17 0 1 0 1
0 -129 392 110 0 0 1 17 0 1 0 1
0 -129 382 110 0 0 1 17 0 1 0 1
phys
0 -44 236 116 0 0 1 18 0 1 0 1
0 -44 236 124 0 0 1 18 0 1 0 1
0 -125 236 124 0 0 1 18 0 1 0 1
phys
0 -44 236 116 0 0 1 18 0 1 0 1
0 -125 236 124 0 0 1 18 0 1 0 1
0 -125 236 116 0 0 1 18 0 1 0 1
phys
0 -125 236 116 0 0 1 18 0 1 0 1
0 -125 236 124 0 0 1 18 0 1 0 1
0 -125 252 124 0 0 1 18 0 1 0 1
phys
0 -44 236 124 0 0 1 18 0 1 0 1
0 -44 236 116 0 0 1 18 0 1 0 1
0 -44 252 124 0 0 1 18 0 1 0 1
phys
0 -125 236 124 0 0 1 18 0 1 0 1
0 -44 236 124 0 0 1 18 0 1 0 1
0 -44 252 124 0 0 1 18 0 1 0 1
phys
0 -125 236 124 0 0 1 18 0 1 0 1
0 -44 252 124 0 0 1 18 0 1 0 1
0 -125 252 124 0 0 1 18 0 1 0 1
phys
0 -44 236 116 0 0 1 18 0 1 0 1
0 -125 236 116 0 0 1 18 0 1 0 1
0 -125 252 124 0 0 1 18 0 1 0 1
phys
0 -44 236 116 0 0 1 18 0 1 0 1
0 -125 252 124 0 0 1 18 0 1 0 1
0 -44 252 124 0 0 1 18 0 1 0 1
phys
0 -139 379 103 0 0 1 19 0 1 0 1
0 -139 379 -30 0 0 1 19 0 1 0 1
0 -307 379 -30 0 0 1 19 0 1 0 1
phys
0 -139 379 103 0 0 1 19 0 1 0 1
0 -307 379 -30 0 0 1 19 0 1 0 1
0 -307 379 103 0 0 1 19 0 1 0 1
phys
0 -139 369 -30 0 0 1 19 0 1 0 1
0 -139 369 103 0 0 1 19 0 1 0 1
0 -307 369 103 0 0 1 19 0 1 0 1
phys
0 -139 369 -30 0 0 1 19 0 1 0 1
0 -307 369 103 0 0 1 19 0 1 0 1
0 -307 369 -30 0 0 1 19 0 1 0 1
phys
0 -307 369 -30 0 0 1 19 0 1 0 1
0 -307 369 103 0 0 1 19 0 1 0 1
0 -307 379 103 0 0 1 19 0 1 0 1
phys
0 -307 369 -30 0 0 1 19 0 1 0 1
0 -307 379 103 0 0 1 19 0 1 0 1
0 -307 379 -30 0 0 1 19 0 1 0 1
phys
0 -139 369 103 0 0 1 19 0 1 0 1
0 -139 369 -30 0 0 1 19 0 1 0 1
0 -139 379 -30 0 0 1 19 0 1 0 1
phys
0 -139 369 103 0 0 1 19 0 1 0 1
0 -139 379 -30 0 0 1 19 0 1 0 1
0 -139 379 103 0 0 1 19 0 1 0 1
phys
0 -139 369 -30 0 0 1 19 0 1 0 1
0 -307 369 -30 0 0 1 19 0 1 0 1
0 -307 379 -30 0 0 1 19 0 1 0 1
phys
0 -139 369 -30 0 0 1 19 0 1 0 1
0 -307 379 -30 0 0 1 19 0 1 0 1
0 -139 379 -30 0 0 1 19 0 1 0 1
phys
0 -307 369 103 0 0 1 19 0 1 0 1
0 -139 369 103 0 0 1 19 0 1 0 1
0 -139 379 103 0 0 1 19 0 1 0 1
phys
0 -307 369 103 0 0 1 19 0 1 0 1
0 -139 379 103 0 0 1 19 0 1 0 1
0 -307 379 103 0 0 1 19 0 1 0 1
phys
0 -139 297 92 0 0 1 20 0 1 0 1
0 -139 353 92 0 0 1 20 0 1 0 1
0 -139 349 88 0 0 1 20 0 1 0 1
phys
0 -139 297 92 0 0 1 20 0 1 0 1
0 -139 349 88 0 0 1 20 0 1 0 1
0 -139 301 88 0 0 1 20 0 1 0 1
phys
0 -129 301 88 0 0 1 20 0 1 0 1
0 -129 349 88 0 0 1 20 0 1 0 1
0 -129 353 92 0 0 1 20 0 1 0 1
phys
0 -129 301 88 0 0 1 20 0 1 0 1
0 -129 353 92 0 0 1 20 0 1 0 1
0 -129 297 92 0 0 1 20 0 1 0 1
phys
0 -139 301 88 0 0 1 20 0 1 0 1
0 -139 349 88 0 0 1 20 0 1 0 1
0 -129 349 88 0 0 1 20 0 1 0 1
phys
0 -139 301 88 0 0 1 20 0 1 0 1
0 -129 349 88 0 0 1 20 0 1 0 1
0 -129 301 88 0 0 1 20 0 1 0 1
phys
0 -129 297 92 0 0 1 20 0 1 0 1
0 -129 353 92 0 0 1 20 0 1 0 1
0 -139 353 92 0 0 1 20 0 1 0 1
phys
0 -129 297 92 0 0 1 20 0 1 0 1
0 -139 353 92 0 0 1 20 0 1 0 1
0 -139 297 92 0 0 1 20 0 1 0 1
phys
0 -139 297 92 0 0 1 20 0 1 0 1
0 -139 301 88 0 0 1 20 0 1 0 1
0 -129 301 88 0 0 1 20 0 1 0 1
phys
0 -139 297 92 0 0 1 20 0 1 0 1
0 -129 301 88 0 0 1 20 0 1 0 1
0 -129 297 92 0 0 1 20 0 1 0 1
phys
0 -139 349 88 0 0 1 20 0 1 0 1
0 -139 353 92 0 0 1 20 0 1 0 1
0 -129 353 92 0 0 1 20 0 1 0 1
phys
0 -139 349 88 0 0 1 20 0 1 0 1
0 -129 353 92 0 0 1 20 0 1 0 1
0 -129 349 88 0 0 1 20 0 1 0 1
phys
0 -393 379 71.995 0 0 1 21 0 1 0 1
0 -393 379 88.004 0 0 1 21 0 1 0 1
0 -395 379 90 0 0 1 21 0 1 0 1
phys
0 -393 379 71.995 0 0 1 21 0 1 0 1
0 -395 379 90 0 0 1 21 0 1 0 1
0 -421 379 90 0 0 1 21 0 1 0 1
phys
0 -393 379 71.995 0 0 1 21 0 1 0 1
0 -421 379 90 0 0 1 21 0 1 0 1
0 -423 379 87.996 0 0 1 21 0 1 0 1
phys
0 -393 379 71.995 0 0 1 21 0 1 0 1
0 -423 379 87.996 0 0 1 21 0 1 0 1
0 -423 379 72.004 0 0 1 21 0 1 0 1
phys
0 -393 379 71.995 0 0 1 21 0 1 0 1
0 -423 379 72.004 0 0 1 21 0 1 0 1
0 -421 379 70 0 0 1 21 0 1 0 1
phys
0 -393 379 71.995 0 0 1 21 0 1 0 1
0 -421 379 70 0 0 1 21 0 1 0 1
0 -395 379 70 0 0 1 21 0 1 0 1
phys
0 -423 379 72.004 0 0 1 21 0 1 0 1
0 -423 379 87.996 0 0 1 21 0 1 0 1
0 -423 380 87.996 0 0 1 21 0 1 0 1
phys
0 -423 379 72.004 0 0 1 21 0 1 0 1
0 -423 380 87.996 0 0 1 21 0 1 0 1
0 -423 380 72.004 0 0 1 21 0 1 0 1
phys
0 -393 379 88.004 0 0 1 21 0 1 0 1
0 -393 379 71.995 0 0 1 21 0 1 0 1
0 -393 380 71.995 0 0 1 21 0 1 0 1
phys
0 -393 379 88.004 0 0 1 21 0 1 0 1
0 -393 380 71.995 0 0 1 21 0 1 0 1
0 -393 380 88.004 0 0 1 21 0 1 0 1
phys
0 -395 379 70 0 0 1 21 0 1 0 1
0 -421 379 70 0 0 1 21 0 1 0 1
0 -421 380 70 0 0 1 21 0 1 0 1
phys
0 -395 379 70 0 0 1 21 0 1 0 1
0 -421 380 70 0 0 1 21 0 1 0 1
0 -395 380 70 0 0 1 21 0 1 0 1
phys
0 -421 379 90 0 0 1 21 0 1 0 1
0 -395 379 90 0 0 1 21 0 1 0 1
0 -395 380 90 0 0 1 21 0 1 0 1
phys
0 -421 379 90 0 0 1 21 0 1 0 1
0 -395 380 90 0 0 1 21 0 1 0 1
0 -421 380 90 0 0 1 21 0 1 0 1
phys
0 -393 379 71.995 0 0 1 21 0 1 0 1
0 -395 379 70 0 0 1 21 0 1 0 1
0 -395 380 70 0 0 1 21 0 1 0 1
phys
0 -393 379 71.995 0 0 1 21 0 1 0 1
0 -395 380 70 0 0 1 21 0 1 0 1
0 -393 380 71.995 0 0 1 21 0 1 0 1
phys
0 -421 379 70 0 0 1 21 0 1 0 1
0 -423 379 72.004 0 0 1 21 0 1 0 1
0 -423 380 72.004 0 0 1 21 0 1 0 1
phys
0 -421 379 70 0 0 1 21 0 1 0 1
0 -423 380 72.004 0 0 1 21 0 1 0 1
0 -421 380 70 0 0 1 21 0 1 0 1
phys
0 -423 379 87.996 0 0 1 21 0 1 0 1
0 -421 379 90 0 0 1 21 0 1 0 1
0 -421 380 90 0 0 1 21 0 1 0 1
phys
0 -423 379 87.996 0 0 1 21 0 1 0 1
0 -421 380 90 0 0 1 21 0 1 0 1
0 -423 380 87.996 0 0 1 21 0 1 0 1
phys
0 -395 379 90 0 0 1 21 0 1 0 1
0 -393 379 88.004 0 0 1 21 0 1 0 1
0 -393 380 88.004 0 0 1 21 0 1 0 1
phys
0 -395 379 90 0 0 1 21 0 1 0 1
0 -393 380 88.004 0 0 1 21 0 1 0 1
0 -395 380 90 0 0 1 21 0 1 0 1
phys
0 -393 380 88.004 0 0 1 21 0 1 0 1
0 -393 380 71.995 0 0 1 21 0 1 0 1
0 -395 380 70 0 0 1 21 0 1 0 1
phys
0 -393 380 88.004 0 0 1 21 0 1 0 1
0 -395 380 70 0 0 1 21 0 1 0 1
0 -421 380 70 0 0 1 21 0 1 0 1
phys
0 -393 380 88.004 0 0 1 21 0 1 0 1
0 -421 380 70 0 0 1 21 0 1 0 1
0 -423 380 72.004 0 0 1 21 0 1 0 1
phys
0 -393 380 88.004 0 0 1 21 0 1 0 1
0 -423 380 72.004 0 0 1 21 0 1 0 1
0 -423 380 87.996 0 0 1 21 0 1 0 1
phys
0 -393 380 88.004 0 0 1 21 0 1 0 1
0 -423 380 87.996 0 0 1 21 0 1 0 1
0 -421 380 90 0 0 1 21 0 1 0 1
phys
0 -393 380 88.004 0 0 1 21 0 1 0 1
0 -421 380 90 0 0 1 21 0 1 0 1
0 -395 380 90 0 0 1 21 0 1 0 1
phys
0 -44 124 60 0 0 1 22 0 1 0 1
0 -44 124 68 0 0 1 22 0 1 0 1
0 -125 124 68 0 0 1 22 0 1 0 1
phys
0 -44 124 60 0 0 1 22 0 1 0 1
0 -125 124 68 0 0 1 22 0 1 0 1
0 -125 124 60 0 0 1 22 0 1 0 1
phys
0 -125 124 60 0 0 1 22 0 1 0 1
0 -125 124 68 0 0 1 22 0 1 0 1
0 -125 140 68 0 0 1 22 0 1 0 1
phys
0 -44 124 68 0 0 1 22 0 1 0 1
0 -44 124 60 0 0 1 22 0 1 0 1
0 -44 140 68 0 0 1 22 0 1 0 1
phys
0 -125 124 68 0 0 1 22 0 1 0 1
0 -44 124 68 0 0 1 22 0 1 0 1
0 -44 140 68 0 0 1 22 0 1 0 1
phys
0 -125 124 68 0 0 1 22 0 1 0 1
0 -44 140 68 0 0 1 22 0 1 0 1
0 -125 140 68 0 0 1 22 0 1 0 1
phys
0 -44 124 60 0 0 1 22 0 1 0 1
0 -125 124 60 0 0 1 22 0 1 0 1
0 -125 140 68 0 0 1 22 0 1 0 1
phys
0 -44 124 60 0 0 1 22 0 1 0 1
0 -125 140 68 0 0 1 22 0 1 0 1
0 -44 140 68 0 0 1 22 0 1 0 1
phys
0 -44 172 84 0 0 1 23 0 1 0 1
0 -44 172 92 0 0 1 23 0 1 0 1
0 -125 172 92 0 0 1 23 0 1 0 1
phys
0 -44 172 84 0 0 1 23 0 1 0 1
0 -125 172 92 0 0 1 23 0 1 0 1
0 -125 172 84 0 0 1 23 0 1 0 1
phys
0 -125 172 84 0 0 1 23 0 1 0 1
0 -125 172 92 0 0 1 23 0 1 0 1
0 -125 188 92 0 0 1 23 0 1 0 1
phys
0 -44 172 92 0 0 1 23 0 1 0 1
0 -44 172 84 0 0 1 23 0 1 0 1
0 -44 188 92 0 0 1 23 0 1 0 1
phys
0 -125 172 92 0 0 1 23 0 1 0 1
0 -44 172 92 0 0 1 23 0 1 0 1
0 -44 188 92 0 0 1 23 0 1 0 1
phys
0 -125 172 92 0 0 1 23 0 1 0 1
0 -44 188 92 0 0 1 23 0 1 0 1
0 -125 188 92 0 0 1 23 0 1 0 1
phys
0 -44 172 84 0 0 1 23 0 1 0 1
0 -125 172 84 0 0 1 23 0 1 0 1
0 -125 188 92 0 0 1 23 0 1 0 1
phys
0 -44 172 84 0 0 1 23 0 1 0 1
0 -125 188 92 0 0 1 23 0 1 0 1
0 -44 188 92 0 0 1 23 0 1 0 1
phys
0 -40 44 20 0 0 1 24 0 1 0 1
0 -40 44 28 0 0 1 24 0 1 0 1
0 -44 44 28 0 0 1 24 0 1 0 1
phys
0 -40 44 20 0 0 1 24 0 1 0 1
0 -44 44 28 0 0 1 24 0 1 0 1
0 -44 44 19.995 0 0 1 24 0 1 0 1
phys
0 -44 44 19.995 0 0 1 24 0 1 0 1
0 -44 44 28 0 0 1 24 0 1 0 1
0 -44 236 124 0 0 1 24 0 1 0 1
phys
0 -44 44 19.995 0 0 1 24 0 1 0 1
0 -44 236 124 0 0 1 24 0 1 0 1
0 -44 252 124 0 0 1 24 0 1 0 1
phys
0 -40 44 28 0 0 1 24 0 1 0 1
0 -40 44 20 0 0 1 24 0 1 0 1
0 -40 251.99 124 0 0 1 24 0 1 0 1
phys
0 -40 44 28 0 0 1 24 0 1 0 1
0 -40 251.99 124 0 0 1 24 0 1 0 1
0 -40 236 124 0 0 1 24 0 1 0 1
phys
0 -40 236 124 0 0 1 24 0 1 0 1
0 -40 251.99 124 0 0 1 24 0 1 0 1
0 -44 252 124 0 0 1 24 0 1 0 1
phys
0 -40 236 124 0 0 1 24 0 1 0 1
0 -44 252 124 0 0 1 24 0 1 0 1
0 -44 236 124 0 0 1 24 0 1 0 1
phys
0 -40 44 20 0 0 1 24 0 1 0 1
0 -44 44 19.995 0 0 1 24 0 1 0 1
0 -44 252 124 0 0 1 24 0 1 0 1
phys
0 -40 44 20 0 0 1 24 0 1 0 1
0 -44 252 124 0 0 1 24 0 1 0 1
0 -40 251.99 124 0 0 1 24 0 1 0 1
phys
0 -44 44 28 0 0 1 24 0 1 0 1
0 -40 44 28 0 0 1 24 0 1 0 1
0 -40 236 124 0 0 1 24 0 1 0 1
phys
0 -44 44 28 0 0 1 24 0 1 0 1
0 -40 236 124 0 0 1 24 0 1 0 1
0 -44 236 124 0 0 1 24 0 1 0 1
phys
0 8 40 4 0 0 1 25 0 1 0 1
0 -8 40 4 0 0 1 25 0 1 0 1
0 -8 -41 4 0 0 1 25 0 1 0 1
phys
0 8 40 4 0 0 1 25 0 1 0 1
0 -8 -41 4 0 0 1 25 0 1 0 1
0 8 -41 4 0 0 1 25 0 1 0 1
phys
0 8 -41 -4 0 0 1 25 0 1 0 1
0 -8 -41 4 0 0 1 25 0 1 0 1
0 -8 40 4 0 0 1 25 0 1 0 1
phys
0 8 -41 -4 0 0 1 25 0 1 0 1
0 -8 40 4 0 0 1 25 0 1 0 1
0 8 40 -4 0 0 1 25 0 1 0 1
phys
0 8 40 -4 0 0 1 25 0 1 0 1
0 -8 40 4 0 0 1 25 0 1 0 1
0 8 40 4 0 0 1 25 0 1 0 1
phys
0 8 -41 4 0 0 1 25 0 1 0 1
0 -8 -41 4 0 0 1 25 0 1 0 1
0 8 -41 -4 0 0 1 25 0 1 0 1
phys
0 8 -41 -4 0 0 1 25 0 1 0 1
0 8 40 -4 0 0 1 25 0 1 0 1
0 8 40 4 0 0 1 25 0 1 0 1
phys
0 8 -41 -4 0 0 1 25 0 1 0 1
0 8 40 4 0 0 1 25 0 1 0 1
0 8 -41 4 0 0 1 25 0 1 0 1
phys
0 -129 349 -20 0 0 1 26 0 1 0 1
0 -139 349 -20 0 0 1 26 0 1 0 1
0 -139 353 -20 0 0 1 26 0 1 0 1
phys
0 -129 349 -20 0 0 1 26 0 1 0 1
0 -139 353 -20 0 0 1 26 0 1 0 1
0 -129 353 -20 0 0 1 26 0 1 0 1
phys
0 -139 349 87.999 0 0 1 26 0 1 0 1
0 -129 349 87.999 0 0 1 26 0 1 0 1
0 -129 353 91.999 0 0 1 26 0 1 0 1
phys
0 -139 349 87.999 0 0 1 26 0 1 0 1
0 -129 353 91.999 0 0 1 26 0 1 0 1
0 -139 353 91.999 0 0 1 26 0 1 0 1
phys
0 -129 353 -20 0 0 1 26 0 1 0 1
0 -139 353 -20 0 0 1 26 0 1 0 1
0 -139 353 91.999 0 0 1 26 0 1 0 1
phys
0 -129 353 -20 0 0 1 26 0 1 0 1
0 -139 353 91.999 0 0 1 26 0 1 0 1
0 -129 353 91.999 0 0 1 26 0 1 0 1
phys
0 -129 349 87.999 0 0 1 26 0 1 0 1
0 -139 349 87.999 0 0 1 26 0 1 0 1
0 -139 349 -20 0 0 1 26 0 1 0 1
phys
0 -129 349 87.999 0 0 1 26 0 1 0 1
0 -139 349 -20 0 0 1 26 0 1 0 1
0 -129 349 -20 0 0 1 26 0 1 0 1
phys
0 -139 353 -20 0 0 1 26 0 1 0 1
0 -139 349 -20 0 0 1 26 0 1 0 1
0 -139 349 87.999 0 0 1 26 0 1 0 1
phys
0 -139 353 -20 0 0 1 26 0 1 0 1
0 -139 349 87.999 0 0 1 26 0 1 0 1
0 -139 353 91.999 0 0 1 26 0 1 0 1
phys
0 -129 349 -20 0 0 1 26 0 1 0 1
0 -129 353 -20 0 0 1 26 0 1 0 1
0 -129 353 91.999 0 0 1 26 0 1 0 1
phys
0 -129 349 -20 0 0 1 26 0 1 0 1
0 -129 353 91.999 0 0 1 26 0 1 0 1
0 -129 349 87.999 0 0 1 26 0 1 0 1
phys
0 -44 220 108 0 0 1 27 0 1 0 1
0 -44 220 116 0 0 1 27 0 1 0 1
0 -125 220 116 0 0 1 27 0 1 0 1
phys
0 -44 220 108 0 0 1 27 0 1 0 1
0 -125 220 116 0 0 1 27 0 1 0 1
0 -125 220 108 0 0 1 27 0 1 0 1
phys
0 -125 220 108 0 0 1 27 0 1 0 1
0 -125 220 116 0 0 1 27 0 1 0 1
0 -125 236 116 0 0 1 27 0 1 0 1
phys
0 -44 220 116 0 0 1 27 0 1 0 1
0 -44 220 108 0 0 1 27 0 1 0 1
0 -44 236 116 0 0 1 27 0 1 0 1
phys
0 -125 220 116 0 0 1 27 0 1 0 1
0 -44 220 116 0 0 1 27 0 1 0 1
0 -44 236 116 0 0 1 27 0 1 0 1
phys
0 -125 220 116 0 0 1 27 0 1 0 1
0 -44 236 116 0 0 1 27 0 1 0 1
0 -125 236 116 0 0 1 27 0 1 0 1
phys
0 -44 220 108 0 0 1 27 0 1 0 1
0 -125 220 108 0 0 1 27 0 1 0 1
0 -125 236 116 0 0 1 27 0 1 0 1
phys
0 -44 220 108 0 0 1 27 0 1 0 1
0 -125 236 116 0 0 1 27 0 1 0 1
0 -44 236 116 0 0 1 27 0 1 0 1
phys
0 -44 44 20 0 0 1 28 0 1 0 1
0 -44 44 28 0 0 1 28 0 1 0 1
0 -125 44 28 0 0 1 28 0 1 0 1
phys
0 -44 44 20 0 0 1 28 0 1 0 1
0 -125 44 28 0 0 1 28 0 1 0 1
0 -125 44 20 0 0 1 28 0 1 0 1
phys
0 -125 44 20 0 0 1 28 0 1 0 1
0 -125 44 28 0 0 1 28 0 1 0 1
0 -125 60 28 0 0 1 28 0 1 0 1
phys
0 -44 44 28 0 0 1 28 0 1 0 1
0 -44 44 20 0 0 1 28 0 1 0 1
0 -44 60 28 0 0 1 28 0 1 0 1
phys
0 -125 44 28 0 0 1 28 0 1 0 1
0 -44 44 28 0 0 1 28 0 1 0 1
0 -44 60 28 0 0 1 28 0 1 0 1
phys
0 -125 44 28 0 0 1 28 0 1 0 1
0 -44 60 28 0 0 1 28 0 1 0 1
0 -125 60 28 0 0 1 28 0 1 0 1
phys
0 -44 44 20 0 0 1 28 0 1 0 1
0 -125 44 20 0 0 1 28 0 1 0 1
0 -125 60 28 0 0 1 28 0 1 0 1
phys
0 -44 44 20 0 0 1 28 0 1 0 1
0 -125 60 28 0 0 1 28 0 1 0 1
0 -44 60 28 0 0 1 28 0 1 0 1
phys
0 -7 244 237.997 0 0 1 29 0 1 0 1
0 -7 244 130 0 0 1 29 0 1 0 1
0 -11 244 130 0 0 1 29 0 1 0 1
phys
0 -7 244 237.997 0 0 1 29 0 1 0 1
0 -11 244 130 0 0 1 29 0 1 0 1
0 -11 244 241.997 0 0 1 29 0 1 0 1
phys
0 -7 234 130 0 0 1 29 0 1 0 1
0 -7 234 237.997 0 0 1 29 0 1 0 1
0 -11 234 241.997 0 0 1 29 0 1 0 1
phys
0 -7 234 130 0 0 1 29 0 1 0 1
0 -11 234 241.997 0 0 1 29 0 1 0 1
0 -11 234 130 0 0 1 29 0 1 0 1
phys
0 -11 234 130 0 0 1 29 0 1 0 1
0 -11 234 241.997 0 0 1 29 0 1 0 1
0 -11 244 241.997 0 0 1 29 0 1 0 1
phys
0 -11 234 130 0 0 1 29 0 1 0 1
0 -11 244 241.997 0 0 1 29 0 1 0 1
0 -11 244 130 0 0 1 29 0 1 0 1
phys
0 -7 234 237.997 0 0 1 29 0 1 0 1
0 -7 234 130 0 0 1 29 0 1 0 1
0 -7 244 130 0 0 1 29 0 1 0 1
phys
0 -7 234 237.997 0 0 1 29 0 1 0 1
0 -7 244 130 0 0 1 29 0 1 0 1
0 -7 244 237.997 0 0 1 29 0 1 0 1
phys
0 -7 234 130 0 0 1 29 0 1 0 1
0 -11 234 130 0 0 1 29 0 1 0 1
0 -11 244 130 0 0 1 29 0 1 0 1
phys
0 -7 234 130 0 0 1 29 0 1 0 1
0 -11 244 130 0 0 1 29 0 1 0 1
0 -7 244 130 0 0 1 29 0 1 0 1
phys
0 -11 234 241.997 0 0 1 29 0 1 0 1
0 -7 234 237.997 0 0 1 29 0 1 0 1
0 -7 244 237.997 0 0 1 29 0 1 0 1
phys
0 -11 234 241.997 0 0 1 29 0 1 0 1
0 -7 244 237.997 0 0 1 29 0 1 0 1
0 -11 244 241.997 0 0 1 29 0 1 0 1
phys
0 -40 44 -20 0 0 1 30 0 1 0 1
0 40 44 -20 0 0 1 30 0 1 0 1
0 40 -45 -20 0 0 1 30 0 1 0 1
phys
0 -40 44 -20 0 0 1 30 0 1 0 1
0 40 -45 -20 0 0 1 30 0 1 0 1
0 -40 -45 -20 0 0 1 30 0 1 0 1
phys
0 -40 -45 20 0 0 1 30 0 1 0 1
0 40 -45 -20 0 0 1 30 0 1 0 1
0 40 44 -20 0 0 1 30 0 1 0 1
phys
0 -40 -45 20 0 0 1 30 0 1 0 1
0 40 44 -20 0 0 1 30 0 1 0 1
0 -40 44 20 0 0 1 30 0 1 0 1
phys
0 40 44 -20 0 0 1 30 0 1 0 1
0 -40 44 -20 0 0 1 30 0 1 0 1
0 -40 44 20 0 0 1 30 0 1 0 1
phys
0 -40 -45 -20 0 0 1 30 0 1 0 1
0 40 -45 -20 0 0 1 30 0 1 0 1
0 -40 -45 20 0 0 1 30 0 1 0 1
phys
0 -40 -45 20 0 0 1 30 0 1 0 1
0 -40 44 20 0 0 1 30 0 1 0 1
0 -40 44 -20 0 0 1 30 0 1 0 1
phys
0 -40 -45 20 0 0 1 30 0 1 0 1
0 -40 44 -20 0 0 1 30 0 1 0 1
0 -40 -45 -20 0 0 1 30 0 1 0 1
phys
0 45 244 242.016 0 0 1 31 0 1 0 1
0 45 244 130 0 0 1 31 0 1 0 1
0 41 244 130 0 0 1 31 0 1 0 1
phys
0 45 244 242.016 0 0 1 31 0 1 0 1
0 41 244 130 0 0 1 31 0 1 0 1
0 41 244 238.014 0 0 1 31 0 1 0 1
phys
0 45 234 130 0 0 1 31 0 1 0 1
0 45 234 242.026 0 0 1 31 0 1 0 1
0 41 234 238.024 0 0 1 31 0 1 0 1
phys
0 45 234 130 0 0 1 31 0 1 0 1
0 41 234 238.024 0 0 1 31 0 1 0 1
0 41 234 130 0 0 1 31 0 1 0 1
phys
0 41 234 130 0 0 1 31 0 1 0 1
0 41 234 238.024 0 0 1 31 0 1 0 1
0 41 244 238.014 0 0 1 31 0 1 0 1
phys
0 41 234 130 0 0 1 31 0 1 0 1
0 41 244 238.014 0 0 1 31 0 1 0 1
0 41 244 130 0 0 1 31 0 1 0 1
phys
0 45 234 242.026 0 0 1 31 0 1 0 1
0 45 234 130 0 0 1 31 0 1 0 1
0 45 244 130 0 0 1 31 0 1 0 1
phys
0 45 234 242.026 0 0 1 31 0 1 0 1
0 45 244 130 0 0 1 31 0 1 0 1
0 45 244 242.016 0 0 1 31 0 1 0 1
phys
0 45 234 130 0 0 1 31 0 1 0 1
0 41 234 130 0 0 1 31 0 1 0 1
0 41 244 130 0 0 1 31 0 1 0 1
phys
0 45 234 130 0 0 1 31 0 1 0 1
0 41 244 130 0 0 1 31 0 1 0 1
0 45 244 130 0 0 1 31 0 1 0 1
phys
0 41 234 238.024 0 0 1 31 0 1 0 1
0 45 234 242.026 0 0 1 31 0 1 0 1
0 45 244 242.016 0 0 1 31 0 1 0 1
phys
0 41 234 238.024 0 0 1 31 0 1 0 1
0 45 244 242.016 0 0 1 31 0 1 0 1
0 41 244 238.014 0 0 1 31 0 1 0 1
phys
0 -125 140 76 0 0 1 32 0 1 0 1
0 -44 140 76 0 0 1 32 0 1 0 1
0 -44 156 76 0 0 1 32 0 1 0 1
phys
0 -125 140 76 0 0 1 32 0 1 0 1
0 -44 156 76 0 0 1 32 0 1 0 1
0 -125 156 76 0 0 1 32 0 1 0 1
phys
0 -44 140 68 0 0 1 32 0 1 0 1
0 -125 140 68 0 0 1 32 0 1 0 1
0 -125 156 76 0 0 1 32 0 1 0 1
phys
0 -44 140 68 0 0 1 32 0 1 0 1
0 -125 156 76 0 0 1 32 0 1 0 1
0 -44 156 76 0 0 1 32 0 1 0 1
phys
0 -44 140 76 0 0 1 32 0 1 0 1
0 -125 140 76 0 0 1 32 0 1 0 1
0 -125 140 68 0 0 1 32 0 1 0 1
phys
0 -44 140 76 0 0 1 32 0 1 0 1
0 -125 140 68 0 0 1 32 0 1 0 1
0 -44 140 68 0 0 1 32 0 1 0 1
phys
0 -125 140 76 0 0 1 32 0 1 0 1
0 -125 156 76 0 0 1 32 0 1 0 1
0 -125 140 68 0 0 1 32 0 1 0 1
phys
0 -44 140 68 0 0 1 32 0 1 0 1
0 -44 156 76 0 0 1 32 0 1 0 1
0 -44 140 76 0 0 1 32 0 1 0 1
phys
0 -44 76 36 0 0 1 33 0 1 0 1
0 -44 76 44 0 0 1 33 0 1 0 1
0 -125 76 44 0 0 1 33 0 1 0 1
phys
0 -44 76 36 0 0 1 33 0 1 0 1
0 -125 76 44 0 0 1 33 0 1 0 1
0 -125 76 36 0 0 1 33 0 1 0 1
phys
0 -125 76 36 0 0 1 33 0 1 0 1
0 -125 76 44 0 0 1 33 0 1 0 1
0 -125 92 44 0 0 1 33 0 1 0 1
phys
0 -44 76 44 0 0 1 33 0 1 0 1
0 -44 76 36 0 0 1 33 0 1 0 1
0 -44 92 44 0 0 1 33 0 1 0 1
phys
0 -125 76 44 0 0 1 33 0 1 0 1
0 -44 76 44 0 0 1 33 0 1 0 1
0 -44 92 44 0 0 1 33 0 1 0 1
phys
0 -125 76 44 0 0 1 33 0 1 0 1
0 -44 92 44 0 0 1 33 0 1 0 1
0 -125 92 44 0 0 1 33 0 1 0 1
phys
0 -44 76 36 0 0 1 33 0 1 0 1
0 -125 76 36 0 0 1 33 0 1 0 1
0 -125 92 44 0 0 1 33 0 1 0 1
phys
0 -44 76 36 0 0 1 33 0 1 0 1
0 -125 92 44 0 0 1 33 0 1 0 1
0 -44 92 44 0 0 1 33 0 1 0 1
phys
0 -24 40 20 0 0 1 34 0 1 0 1
0 40 40 -11.999 0 0 1 34 0 1 0 1
0 40 44 -11.999 0 0 1 34 0 1 0 1
phys
0 -24 40 20 0 0 1 34 0 1 0 1
0 40 44 -11.999 0 0 1 34 0 1 0 1
0 -24 44 20 0 0 1 34 0 1 0 1
phys
0 -40 44 20 0 0 1 34 0 1 0 1
0 -24 44 20 0 0 1 34 0 1 0 1
0 40 44 -11.999 0 0 1 34 0 1 0 1
phys
0 -40 44 20 0 0 1 34 0 1 0 1
0 40 44 -11.999 0 0 1 34 0 1 0 1
0 40 44 -20 0 0 1 34 0 1 0 1
phys
0 40 40 -20 0 0 1 34 0 1 0 1
0 40 40 -11.999 0 0 1 34 0 1 0 1
0 -24 40 20 0 0 1 34 0 1 0 1
phys
0 40 40 -20 0 0 1 34 0 1 0 1
0 -24 40 20 0 0 1 34 0 1 0 1
0 -40 40 20 0 0 1 34 0 1 0 1
phys
0 40 44 -20 0 0 1 34 0 1 0 1
0 40 44 -11.999 0 0 1 34 0 1 0 1
0 40 40 -11.999 0 0 1 34 0 1 0 1
phys
0 40 44 -20 0 0 1 34 0 1 0 1
0 40 40 -11.999 0 0 1 34 0 1 0 1
0 40 40 -20 0 0 1 34 0 1 0 1
phys
0 -40 40 20 0 0 1 34 0 1 0 1
0 -24 40 20 0 0 1 34 0 1 0 1
0 -24 44 20 0 0 1 34 0 1 0 1
phys
0 -40 40 20 0 0 1 34 0 1 0 1
0 -24 44 20 0 0 1 34 0 1 0 1
0 -40 44 20 0 0 1 34 0 1 0 1
phys
0 40 40 -20 0 0 1 34 0 1 0 1
0 -40 40 20 0 0 1 34 0 1 0 1
0 -40 44 20 0 0 1 34 0 1 0 1
phys
0 40 40 -20 0 0 1 34 0 1 0 1
0 -40 44 20 0 0 1 34 0 1 0 1
0 40 44 -20 0 0 1 34 0 1 0 1
end
