version 1
nodes
0 "root" -1
end
skeleton
time 0
0 0 0 0 0 0 0
end
triangles
phys
0 344 -82 -50 0 0 1 1 0 1 0 1
0 244 -82 -50 0 0 1 1 0 1 0 1
0 246 -82 -48 0 0 1 1 0 1 0 1
phys
0 344 -82 -50 0 0 1 1 0 1 0 1
0 246 -82 -48 0 0 1 1 0 1 0 1
0 342 -82 -48 0 0 1 1 0 1 0 1
phys
0 342 -85 -48 0 0 1 1 0 1 0 1
0 246 -85 -48 0 0 1 1 0 1 0 1
0 244 -85 -50 0 0 1 1 0 1 0 1
phys
0 342 -85 -48 0 0 1 1 0 1 0 1
0 244 -85 -50 0 0 1 1 0 1 0 1
0 344 -85 -50 0 0 1 1 0 1 0 1
phys
0 344 -85 -50 0 0 1 1 0 1 0 1
0 244 -85 -50 0 0 1 1 0 1 0 1
0 244 -82 -50 0 0 1 1 0 1 0 1
phys
0 344 -85 -50 0 0 1 1 0 1 0 1
0 244 -82 -50 0 0 1 1 0 1 0 1
0 344 -82 -50 0 0 1 1 0 1 0 1
phys
0 246 -85 -48 0 0 1 1 0 1 0 1
0 342 -85 -48 0 0 1 1 0 1 0 1
0 342 -82 -48 0 0 1 1 0 1 0 1
phys
0 246 -85 -48 0 0 1 1 0 1 0 1
0 342 -82 -48 0 0 1 1 0 1 0 1
0 246 -82 -48 0 0 1 1 0 1 0 1
phys
0 244 -85 -50 0 0 1 1 0 1 0 1
0 246 -85 -48 0 0 1 1 0 1 0 1
0 246 -82 -48 0 0 1 1 0 1 0 1
phys
0 244 -85 -50 0 0 1 1 0 1 0 1
0 246 -82 -48 0 0 1 1 0 1 0 1
0 244 -82 -50 0 0 1 1 0 1 0 1
phys
0 342 -85 -48 0 0 1 1 0 1 0 1
0 344 -85 -50 0 0 1 1 0 1 0 1
0 344 -82 -50 0 0 1 1 0 1 0 1
phys
0 342 -85 -48 0 0 1 1 0 1 0 1
0 344 -82 -50 0 0 1 1 0 1 0 1
0 342 -82 -48 0 0 1 1 0 1 0 1
phys
0 -53 -138 -78 0 0 1 2 0 1 0 1
0 -38 -138 -78 0 0 1 2 0 1 0 1
0 -38 6 -78 0 0 1 2 0 1 0 1
phys
0 -53 -138 -78 0 0 1 2 0 1 0 1
0 -38 6 -78 0 0 1 2 0 1 0 1
0 -53 6 -78 0 0 1 2 0 1 0 1
phys
0 -53 6 -87.004 0 0 1 2 0 1 0 1
0 -38 6 -78 0 0 1 2 0 1 0 1
0 -38 -138 -78 0 0 1 2 0 1 0 1
phys
0 -53 6 -87.004 0 0 1 2 0 1 0 1
0 -38 -138 -78 0 0 1 2 0 1 0 1
0 -53 -138 -87.004 0 0 1 2 0 1 0 1
phys
0 -53 6 -78 0 0 1 2 0 1 0 1
0 -38 6 -78 0 0 1 2 0 1 0 1
0 -53 6 -87.004 0 0 1 2 0 1 0 1
phys
0 -38 -138 -78 0 0 1 2 0 1 0 1
0 -53 -138 -78 0 0 1 2 0 1 0 1
0 -53 -138 -87.004 0 0 1 2 0 1 0 1
phys
0 -53 -138 -78 0 0 1 2 0 1 0 1
0 -53 6 -78 0 0 1 2 0 1 0 1
0 -53 6 -87.004 0 0 1 2 0 1 0 1
phys
0 -53 -138 -78 0 0 1 2 0 1 0 1
0 -53 6 -87.004 0 0 1 2 0 1 0 1
0 -53 -138 -87.004 0 0 1 2 0 1 0 1
phys
0 244 -82 -49.997 0 0 1 3 0 1 0 1
0 246 -82 -47.997 0 0 1 3 0 1 0 1
0 246 -85 -47.997 0 0 1 3 0 1 0 1
phys
0 244 -82 -49.997 0 0 1 3 0 1 0 1
0 246 -85 -47.997 0 0 1 3 0 1 0 1
0 244 -85 -49.997 0 0 1 3 0 1 0 1
phys
0 244 -85 49.997 0 0 1 3 0 1 0 1
0 246 -85 47.997 0 0 1 3 0 1 0 1
0 246 -82 47.997 0 0 1 3 0 1 0 1
phys
0 244 -85 49.997 0 0 1 3 0 1 0 1
0 246 -82 47.997 0 0 1 3 0 1 0 1
0 244 -82 49.997 0 0 1 3 0 1 0 1
phys
0 246 -82 -47.997 0 0 1 3 0 1 0 1
0 244 -82 -49.997 0 0 1 3 0 1 0 1
0 244 -82 49.997 0 0 1 3 0 1 0 1
phys
0 246 -82 -47.997 0 0 1 3 0 1 0 1
0 244 -82 49.997 0 0 1 3 0 1 0 1
0 246 -82 47.997 0 0 1 3 0 1 0 1
phys
0 244 -85 -49.997 0 0 1 3 0 1 0 1
0 246 -85 -47.997 0 0 1 3 0 1 0 1
0 246 -85 47.997 0 0 1 3 0 1 0 1
phys
0 244 -85 -49.997 0 0 1 3 0 1 0 1
0 246 -85 47.997 0 0 1 3 0 1 0 1
0 244 -85 49.997 0 0 1 3 0 1 0 1
phys
0 244 -85 49.997 0 0 1 3 0 1 0 1
0 244 -82 49.997 0 0 1 3 0 1 0 1
0 244 -82 -49.997 0 0 1 3 0 1 0 1
phys
0 244 -85 49.997 0 0 1 3 0 1 0 1
0 244 -82 -49.997 0 0 1 3 0 1 0 1
0 244 -85 -49.997 0 0 1 3 0 1 0 1
phys
0 246 -85 -47.997 0 0 1 3 0 1 0 1
0 246 -82 -47.997 0 0 1 3 0 1 0 1
0 246 -82 47.997 0 0 1 3 0 1 0 1
phys
0 246 -85 -47.997 0 0 1 3 0 1 0 1
0 246 -82 47.997 0 0 1 3 0 1 0 1
0 246 -85 47.997 0 0 1 3 0 1 0 1
phys
0 -113 6 -123.004 0 0 1 4 0 1 0 1
0 -113 6 -114 0 0 1 4 0 1 0 1
0 -98 6 -114 0 0 1 4 0 1 0 1
phys
0 -98 -138 -114 0 0 1 4 0 1 0 1
0 -113 -138 -114 0 0 1 4 0 1 0 1
0 -113 -138 -123.004 0 0 1 4 0 1 0 1
phys
0 -113 -138 -123.004 0 0 1 4 0 1 0 1
0 -113 -138 -114 0 0 1 4 0 1 0 1
0 -113 6 -114 0 0 1 4 0 1 0 1
phys
0 -113 -138 -123.004 0 0 1 4 0 1 0 1
0 -113 6 -114 0 0 1 4 0 1 0 1
0 -113 6 -123.004 0 0 1 4 0 1 0 1
phys
0 -113 -138 -114 0 0 1 4 0 1 0 1
0 -98 -138 -114 0 0 1 4 0 1 0 1
0 -98 6 -114 0 0 1 4 0 1 0 1
phys
0 -113 -138 -114 0 0 1 4 0 1 0 1
0 -98 6 -114 0 0 1 4 0 1 0 1
0 -113 6 -114 0 0 1 4 0 1 0 1
phys
0 -98 -138 -114 0 0 1 4 0 1 0 1
0 -113 -138 -123.004 0 0 1 4 0 1 0 1
0 -113 6 -123.004 0 0 1 4 0 1 0 1
phys
0 -98 -138 -114 0 0 1 4 0 1 0 1
0 -113 6 -123.004 0 0 1 4 0 1 0 1
0 -98 6 -114 0 0 1 4 0 1 0 1
phys
0 -203 -138 -177 0 0 1 5 0 1 0 1
0 -218 -138 -186.004 0 0 1 5 0 1 0 1
0 -218 6 -186.004 0 0 1 5 0 1 0 1
phys
0 -203 -138 -177 0 0 1 5 0 1 0 1
0 -218 6 -186.004 0 0 1 5 0 1 0 1
0 -203 6 -177 0 0 1 5 0 1 0 1
phys
0 -203 6 -177 0 0 1 5 0 1 0 1
0 -218 6 -186.004 0 0 1 5 0 1 0 1
0 -218 6 -177 0 0 1 5 0 1 0 1
phys
0 -218 -138 -177 0 0 1 5 0 1 0 1
0 -218 -138 -186.004 0 0 1 5 0 1 0 1
0 -203 -138 -177 0 0 1 5 0 1 0 1
phys
0 -218 6 -177 0 0 1 5 0 1 0 1
0 -218 6 -186.004 0 0 1 5 0 1 0 1
0 -218 -138 -186.004 0 0 1 5 0 1 0 1
phys
0 -218 6 -177 0 0 1 5 0 1 0 1
0 -218 -138 -186.004 0 0 1 5 0 1 0 1
0 -218 -138 -177 0 0 1 5 0 1 0 1
phys
0 -218 -138 -177 0 0 1 5 0 1 0 1
0 -203 -138 -177 0 0 1 5 0 1 0 1
0 -203 6 -177 0 0 1 5 0 1 0 1
phys
0 -218 -138 -177 0 0 1 5 0 1 0 1
0 -203 6 -177 0 0 1 5 0 1 0 1
0 -218 6 -177 0 0 1 5 0 1 0 1
phys
0 -68 6 -96.004 0 0 1 6 0 1 0 1
0 -68 6 -87 0 0 1 6 0 1 0 1
0 -53 6 -87 0 0 1 6 0 1 0 1
phys
0 -53 -138 -87 0 0 1 6 0 1 0 1
0 -68 -138 -87 0 0 1 6 0 1 0 1
0 -68 -138 -96.004 0 0 1 6 0 1 0 1
phys
0 -68 -138 -96.004 0 0 1 6 0 1 0 1
0 -68 -138 -87 0 0 1 6 0 1 0 1
0 -68 6 -87 0 0 1 6 0 1 0 1
phys
0 -68 -138 -96.004 0 0 1 6 0 1 0 1
0 -68 6 -87 0 0 1 6 0 1 0 1
0 -68 6 -96.004 0 0 1 6 0 1 0 1
phys
0 -68 -138 -87 0 0 1 6 0 1 0 1
0 -53 -138 -87 0 0 1 6 0 1 0 1
0 -53 6 -87 0 0 1 6 0 1 0 1
phys
0 -68 -138 -87 0 0 1 6 0 1 0 1
0 -53 6 -87 0 0 1 6 0 1 0 1
0 -68 6 -87 0 0 1 6 0 1 0 1
phys
0 -53 -138 -87 0 0 1 6 0 1 0 1
0 -68 -138 -96.004 0 0 1 6 0 1 0 1
0 -68 6 -96.004 0 0 1 6 0 1 0 1
phys
0 -53 -138 -87 0 0 1 6 0 1 0 1
0 -68 6 -96.004 0 0 1 6 0 1 0 1
0 -53 6 -87 0 0 1 6 0 1 0 1
phys
0 150 -405 -51 0 0 1 7 0 1 0 1
0 150 -405 -60 0 0 1 7 0 1 0 1
0 6 -405 -60 0 0 1 7 0 1 0 1
phys
0 150 -405 -51 0 0 1 7 0 1 0 1
0 6 -405 -60 0 0 1 7 0 1 0 1
0 6 -405 -51 0 0 1 7 0 1 0 1
phys
0 6 -420 -51 0 0 1 7 0 1 0 1
0 6 -405 -51 0 0 1 7 0 1 0 1
0 6 -405 -60 0 0 1 7 0 1 0 1
phys
0 150 -405 -60 0 0 1 7 0 1 0 1
0 150 -405 -51 0 0 1 7 0 1 0 1
0 150 -420 -51 0 0 1 7 0 1 0 1
phys
0 150 -420 -51 0 0 1 7 0 1 0 1
0 150 -405 -51 0 0 1 7 0 1 0 1
0 6 -405 -51 0 0 1 7 0 1 0 1
phys
0 150 -420 -51 0 0 1 7 0 1 0 1
0 6 -405 -51 0 0 1 7 0 1 0 1
0 6 -420 -51 0 0 1 7 0 1 0 1
phys
0 6 -420 -51 0 0 1 7 0 1 0 1
0 6 -405 -60 0 0 1 7 0 1 0 1
0 150 -405 -60 0 0 1 7 0 1 0 1
phys
0 6 -420 -51 0 0 1 7 0 1 0 1
0 150 -405 -60 0 0 1 7 0 1 0 1
0 150 -420 -51 0 0 1 7 0 1 0 1
phys
0 342 -84 48 0 0 1 8 0 1 0 1
0 342 -84 -48 0 0 1 8 0 1 0 1
0 246 -84 -48 0 0 1 8 0 1 0 1
phys
0 342 -84 48 0 0 1 8 0 1 0 1
0 246 -84 -48 0 0 1 8 0 1 0 1
0 246 -84 48 0 0 1 8 0 1 0 1
phys
0 342 -85 -48 0 0 1 8 0 1 0 1
0 342 -85 48 0 0 1 8 0 1 0 1
0 246 -85 48 0 0 1 8 0 1 0 1
phys
0 342 -85 -48 0 0 1 8 0 1 0 1
0 246 -85 48 0 0 1 8 0 1 0 1
0 246 -85 -48 0 0 1 8 0 1 0 1
phys
0 246 -85 -48 0 0 1 8 0 1 0 1
0 246 -85 48 0 0 1 8 0 1 0 1
0 246 -84 48 0 0 1 8 0 1 0 1
phys
0 246 -85 -48 0 0 1 8 0 1 0 1
0 246 -84 48 0 0 1 8 0 1 0 1
0 246 -84 -48 0 0 1 8 0 1 0 1
phys
0 342 -85 48 0 0 1 8 0 1 0 1
0 342 -85 -48 0 0 1 8 0 1 0 1
0 342 -84 -48 0 0 1 8 0 1 0 1
phys
0 342 -85 48 0 0 1 8 0 1 0 1
0 342 -84 -48 0 0 1 8 0 1 0 1
0 342 -84 48 0 0 1 8 0 1 0 1
phys
0 342 -85 -48 0 0 1 8 0 1 0 1
0 246 -85 -48 0 0 1 8 0 1 0 1
0 246 -84 -48 0 0 1 8 0 1 0 1
phys
0 342 -85 -48 0 0 1 8 0 1 0 1
0 246 -84 -48 0 0 1 8 0 1 0 1
0 342 -84 -48 0 0 1 8 0 1 0 1
phys
0 246 -85 48 0 0 1 8 0 1 0 1
0 342 -85 48 0 0 1 8 0 1 0 1
0 342 -84 48 0 0 1 8 0 1 0 1
phys
0 246 -85 48 0 0 1 8 0 1 0 1
0 342 -84 48 0 0 1 8 0 1 0 1
0 246 -84 48 0 0 1 8 0 1 0 1
phys
0 6 6 78 0 0 1 9 0 1 0 1
0 6 6 -78 0 0 1 9 0 1 0 1
0 -6 6 -78 0 0 1 9 0 1 0 1
phys
0 6 6 78 0 0 1 9 0 1 0 1
0 -6 6 -78 0 0 1 9 0 1 0 1
0 -6 6 78 0 0 1 9 0 1 0 1
phys
0 6 -6 -78 0 0 1 9 0 1 0 1
0 6 -6 78 0 0 1 9 0 1 0 1
0 -6 -6 78 0 0 1 9 0 1 0 1
phys
0 6 -6 -78 0 0 1 9 0 1 0 1
0 -6 -6 78 0 0 1 9 0 1 0 1
0 -6 -6 -78 0 0 1 9 0 1 0 1
phys
0 -6 -6 -78 0 0 1 9 0 1 0 1
0 -6 -6 78 0 0 1 9 0 1 0 1
0 -6 6 78 0 0 1 9 0 1 0 1
phys
0 -6 -6 -78 0 0 1 9 0 1 0 1
0 -6 6 78 0 0 1 9 0 1 0 1
0 -6 6 -78 0 0 1 9 0 1 0 1
phys
0 6 -6 78 0 0 1 9 0 1 0 1
0 6 -6 -78 0 0 1 9 0 1 0 1
0 6 6 -78 0 0 1 9 0 1 0 1
phys
0 6 -6 78 0 0 1 9 0 1 0 1
0 6 6 -78 0 0 1 9 0 1 0 1
0 6 6 78 0 0 1 9 0 1 0 1
phys
0 6 -6 -78 0 0 1 9 0 1 0 1
0 -6 -6 -78 0 0 1 9 0 1 0 1
0 -6 6 -78 0 0 1 9 0 1 0 1
phys
0 6 -6 -78 0 0 1 9 0 1 0 1
0 -6 6 -78 0 0 1 9 0 1 0 1
0 6 6 -78 0 0 1 9 0 1 0 1
phys
0 -6 -6 78 0 0 1 9 0 1 0 1
0 6 -6 78 0 0 1 9 0 1 0 1
0 6 6 78 0 0 1 9 0 1 0 1
phys
0 -6 -6 78 0 0 1 9 0 1 0 1
0 6 6 78 0 0 1 9 0 1 0 1
0 -6 6 78 0 0 1 9 0 1 0 1
phys
0 6 -126 78 0 0 1 10 0 1 0 1
0 6 -126 -78 0 0 1 10 0 1 0 1
0 -6 -126 -78 0 0 1 10 0 1 0 1
phys
0 6 -126 78 0 0 1 10 0 1 0 1
0 -6 -126 -78 0 0 1 10 0 1 0 1
0 -6 -126 78 0 0 1 10 0 1 0 1
phys
0 6 -138 -78 0 0 1 10 0 1 0 1
0 6 -138 78 0 0 1 10 0 1 0 1
0 -6 -138 78 0 0 1 10 0 1 0 1
phys
0 6 -138 -78 0 0 1 10 0 1 0 1
0 -6 -138 78 0 0 1 10 0 1 0 1
0 -6 -138 -78 0 0 1 10 0 1 0 1
phys
0 -6 -138 -78 0 0 1 10 0 1 0 1
0 -6 -138 78 0 0 1 10 0 1 0 1
0 -6 -126 78 0 0 1 10 0 1 0 1
phys
0 -6 -138 -78 0 0 1 10 0 1 0 1
0 -6 -126 78 0 0 1 10 0 1 0 1
0 -6 -126 -78 0 0 1 10 0 1 0 1
phys
0 6 -138 78 0 0 1 10 0 1 0 1
0 6 -138 -78 0 0 1 10 0 1 0 1
0 6 -126 -78 0 0 1 10 0 1 0 1
phys
0 6 -138 78 0 0 1 10 0 1 0 1
0 6 -126 -78 0 0 1 10 0 1 0 1
0 6 -126 78 0 0 1 10 0 1 0 1
phys
0 6 -138 -78 0 0 1 10 0 1 0 1
0 -6 -138 -78 0 0 1 10 0 1 0 1
0 -6 -126 -78 0 0 1 10 0 1 0 1
phys
0 6 -138 -78 0 0 1 10 0 1 0 1
0 -6 -126 -78 0 0 1 10 0 1 0 1
0 6 -126 -78 0 0 1 10 0 1 0 1
phys
0 -6 -138 78 0 0 1 10 0 1 0 1
0 6 -138 78 0 0 1 10 0 1 0 1
0 6 -126 78 0 0 1 10 0 1 0 1
phys
0 -6 -138 78 0 0 1 10 0 1 0 1
0 6 -126 78 0 0 1 10 0 1 0 1
0 -6 -126 78 0 0 1 10 0 1 0 1
phys
0 138 -363 78 0 0 1 11 0 1 0 1
0 138 -363 66 0 0 1 11 0 1 0 1
0 18 -363 66 0 0 1 11 0 1 0 1
phys
0 138 -363 78 0 0 1 11 0 1 0 1
0 18 -363 66 0 0 1 11 0 1 0 1
0 18 -363 78 0 0 1 11 0 1 0 1
phys
0 138 -375 66 0 0 1 11 0 1 0 1
0 138 -375 78 0 0 1 11 0 1 0 1
0 18 -375 78 0 0 1 11 0 1 0 1
phys
0 138 -375 66 0 0 1 11 0 1 0 1
0 18 -375 78 0 0 1 11 0 1 0 1
0 18 -375 66 0 0 1 11 0 1 0 1
phys
0 18 -375 66 0 0 1 11 0 1 0 1
0 18 -375 78 0 0 1 11 0 1 0 1
0 18 -363 78 0 0 1 11 0 1 0 1
phys
0 18 -375 66 0 0 1 11 0 1 0 1
0 18 -363 78 0 0 1 11 0 1 0 1
0 18 -363 66 0 0 1 11 0 1 0 1
phys
0 138 -375 78 0 0 1 11 0 1 0 1
0 138 -375 66 0 0 1 11 0 1 0 1
0 138 -363 66 0 0 1 11 0 1 0 1
phys
0 138 -375 78 0 0 1 11 0 1 0 1
0 138 -363 66 0 0 1 11 0 1 0 1
0 138 -363 78 0 0 1 11 0 1 0 1
phys
0 138 -375 66 0 0 1 11 0 1 0 1
0 18 -375 66 0 0 1 11 0 1 0 1
0 18 -363 66 0 0 1 11 0 1 0 1
phys
0 138 -375 66 0 0 1 11 0 1 0 1
0 18 -363 66 0 0 1 11 0 1 0 1
0 138 -363 66 0 0 1 11 0 1 0 1
phys
0 18 -375 78 0 0 1 11 0 1 0 1
0 138 -375 78 0 0 1 11 0 1 0 1
0 138 -363 78 0 0 1 11 0 1 0 1
phys
0 18 -375 78 0 0 1 11 0 1 0 1
0 138 -363 78 0 0 1 11 0 1 0 1
0 18 -363 78 0 0 1 11 0 1 0 1
phys
0 -98 -138 -105 0 0 1 12 0 1 0 1
0 -83 -138 -105 0 0 1 12 0 1 0 1
0 -83 6 -105 0 0 1 12 0 1 0 1
phys
0 -98 -138 -105 0 0 1 12 0 1 0 1
0 -83 6 -105 0 0 1 12 0 1 0 1
0 -98 6 -105 0 0 1 12 0 1 0 1
phys
0 -98 6 -114.004 0 0 1 12 0 1 0 1
0 -83 6 -105 0 0 1 12 0 1 0 1
0 -83 -138 -105 0 0 1 12 0 1 0 1
phys
0 -98 6 -114.004 0 0 1 12 0 1 0 1
0 -83 -138 -105 0 0 1 12 0 1 0 1
0 -98 -138 -114.004 0 0 1 12 0 1 0 1
phys
0 -98 6 -105 0 0 1 12 0 1 0 1
0 -83 6 -105 0 0 1 12 0 1 0 1
0 -98 6 -114.004 0 0 1 12 0 1 0 1
phys
0 -83 -138 -105 0 0 1 12 0 1 0 1
0 -98 -138 -105 0 0 1 12 0 1 0 1
0 -98 -138 -114.004 0 0 1 12 0 1 0 1
phys
0 -98 -138 -105 0 0 1 12 0 1 0 1
0 -98 6 -105 0 0 1 12 0 1 0 1
0 -98 6 -114.004 0 0 1 12 0 1 0 1
phys
0 -98 -138 -105 0 0 1 12 0 1 0 1
0 -98 6 -114.004 0 0 1 12 0 1 0 1
0 -98 -138 -114.004 0 0 1 12 0 1 0 1
phys
0 18 -375 -78 0 0 1 13 0 1 0 1
0 18 -363 -78 0 0 1 13 0 1 0 1
0 18 -363 78 0 0 1 13 0 1 0 1
phys
0 18 -375 -78 0 0 1 13 0 1 0 1
0 18 -363 78 0 0 1 13 0 1 0 1
0 18 -375 78 0 0 1 13 0 1 0 1
phys
0 6 -363 -78 0 0 1 13 0 1 0 1
0 18 -363 -78 0 0 1 13 0 1 0 1
0 18 -375 -78 0 0 1 13 0 1 0 1
phys
0 6 -363 -78 0 0 1 13 0 1 0 1
0 18 -375 -78 0 0 1 13 0 1 0 1
0 6 -375 -78 0 0 1 13 0 1 0 1
phys
0 6 -375 78 0 0 1 13 0 1 0 1
0 18 -375 78 0 0 1 13 0 1 0 1
0 18 -363 78 0 0 1 13 0 1 0 1
phys
0 6 -375 78 0 0 1 13 0 1 0 1
0 18 -363 78 0 0 1 13 0 1 0 1
0 6 -363 78 0 0 1 13 0 1 0 1
phys
0 18 -363 78 0 0 1 13 0 1 0 1
0 18 -363 -78 0 0 1 13 0 1 0 1
0 6 -363 -78 0 0 1 13 0 1 0 1
phys
0 18 -363 78 0 0 1 13 0 1 0 1
0 6 -363 -78 0 0 1 13 0 1 0 1
0 6 -363 78 0 0 1 13 0 1 0 1
phys
0 18 -375 -78 0 0 1 13 0 1 0 1
0 18 -375 78 0 0 1 13 0 1 0 1
0 6 -375 78 0 0 1 13 0 1 0 1
phys
0 18 -375 -78 0 0 1 13 0 1 0 1
0 6 -375 78 0 0 1 13 0 1 0 1
0 6 -375 -78 0 0 1 13 0 1 0 1
phys
0 6 -375 78 0 0 1 13 0 1 0 1
0 6 -363 78 0 0 1 13 0 1 0 1
0 6 -363 -78 0 0 1 13 0 1 0 1
phys
0 6 -375 78 0 0 1 13 0 1 0 1
0 6 -363 -78 0 0 1 13 0 1 0 1
0 6 -375 -78 0 0 1 13 0 1 0 1
phys
0 344 -85 50 0 0 1 14 0 1 0 1
0 342 -85 48 0 0 1 14 0 1 0 1
0 342 -82 48 0 0 1 14 0 1 0 1
phys
0 344 -85 50 0 0 1 14 0 1 0 1
0 342 -82 48 0 0 1 14 0 1 0 1
0 344 -82 50 0 0 1 14 0 1 0 1
phys
0 344 -82 50 0 0 1 14 0 1 0 1
0 342 -82 48 0 0 1 14 0 1 0 1
0 246 -82 48 0 0 1 14 0 1 0 1
phys
0 344 -82 50 0 0 1 14 0 1 0 1
0 246 -82 48 0 0 1 14 0 1 0 1
0 244 -82 50 0 0 1 14 0 1 0 1
phys
0 342 -85 48 0 0 1 14 0 1 0 1
0 344 -85 50 0 0 1 14 0 1 0 1
0 244 -85 50 0 0 1 14 0 1 0 1
phys
0 342 -85 48 0 0 1 14 0 1 0 1
0 244 -85 50 0 0 1 14 0 1 0 1
0 246 -85 48 0 0 1 14 0 1 0 1
phys
0 246 -82 48 0 0 1 14 0 1 0 1
0 342 -82 48 0 0 1 14 0 1 0 1
0 342 -85 48 0 0 1 14 0 1 0 1
phys
0 246 -82 48 0 0 1 14 0 1 0 1
0 342 -85 48 0 0 1 14 0 1 0 1
0 246 -85 48 0 0 1 14 0 1 0 1
phys
0 244 -85 50 0 0 1 14 0 1 0 1
0 344 -85 50 0 0 1 14 0 1 0 1
0 344 -82 50 0 0 1 14 0 1 0 1
phys
0 244 -85 50 0 0 1 14 0 1 0 1
0 344 -82 50 0 0 1 14 0 1 0 1
0 244 -82 50 0 0 1 14 0 1 0 1
phys
0 244 -82 50 0 0 1 14 0 1 0 1
0 246 -82 48 0 0 1 14 0 1 0 1
0 246 -85 48 0 0 1 14 0 1 0 1
phys
0 244 -82 50 0 0 1 14 0 1 0 1
0 246 -85 48 0 0 1 14 0 1 0 1
0 244 -85 50 0 0 1 14 0 1 0 1
phys
0 -188 6 -168.004 0 0 1 15 0 1 0 1
0 -188 6 -159 0 0 1 15 0 1 0 1
0 -173 6 -159 0 0 1 15 0 1 0 1
phys
0 -173 -138 -159 0 0 1 15 0 1 0 1
0 -188 -138 -159 0 0 1 15 0 1 0 1
0 -188 -138 -168.004 0 0 1 15 0 1 0 1
phys
0 -188 -138 -168.004 0 0 1 15 0 1 0 1
0 -188 -138 -159 0 0 1 15 0 1 0 1
0 -188 6 -159 0 0 1 15 0 1 0 1
phys
0 -188 -138 -168.004 0 0 1 15 0 1 0 1
0 -188 6 -159 0 0 1 15 0 1 0 1
0 -188 6 -168.004 0 0 1 15 0 1 0 1
phys
0 -188 -138 -159 0 0 1 15 0 1 0 1
0 -173 -138 -159 0 0 1 15 0 1 0 1
0 -173 6 -159 0 0 1 15 0 1 0 1
phys
0 -188 -138 -159 0 0 1 15 0 1 0 1
0 -173 6 -159 0 0 1 15 0 1 0 1
0 -188 6 -159 0 0 1 15 0 1 0 1
phys
0 -173 -138 -159 0 0 1 15 0 1 0 1
0 -188 -138 -168.004 0 0 1 15 0 1 0 1
0 -188 6 -168.004 0 0 1 15 0 1 0 1
phys
0 -173 -138 -159 0 0 1 15 0 1 0 1
0 -188 6 -168.004 0 0 1 15 0 1 0 1
0 -173 6 -159 0 0 1 15 0 1 0 1
phys
0 6 -405 -60 0 0 1 16 0 1 0 1
0 150 -405 -60 0 0 1 16 0 1 0 1
0 150 -390 -60 0 0 1 16 0 1 0 1
phys
0 6 -405 -60 0 0 1 16 0 1 0 1
0 150 -390 -60 0 0 1 16 0 1 0 1
0 6 -390 -60 0 0 1 16 0 1 0 1
phys
0 150 -405 -60 0 0 1 16 0 1 0 1
0 6 -405 -60 0 0 1 16 0 1 0 1
0 6 -390 -69 0 0 1 16 0 1 0 1
phys
0 150 -405 -60 0 0 1 16 0 1 0 1
0 6 -390 -69 0 0 1 16 0 1 0 1
0 150 -390 -69 0 0 1 16 0 1 0 1
phys
0 150 -390 -69 0 0 1 16 0 1 0 1
0 6 -390 -69 0 0 1 16 0 1 0 1
0 6 -390 -60 0 0 1 16 0 1 0 1
phys
0 150 -390 -69 0 0 1 16 0 1 0 1
0 6 -390 -60 0 0 1 16 0 1 0 1
0 150 -390 -60 0 0 1 16 0 1 0 1
phys
0 6 -405 -60 0 0 1 16 0 1 0 1
0 6 -390 -60 0 0 1 16 0 1 0 1
0 6 -390 -69 0 0 1 16 0 1 0 1
phys
0 150 -390 -60 0 0 1 16 0 1 0 1
0 150 -405 -60 0 0 1 16 0 1 0 1
0 150 -390 -69 0 0 1 16 0 1 0 1
phys
0 150 -363 78 0 0 1 17 0 1 0 1
0 150 -363 -78 0 0 1 17 0 1 0 1
0 138 -363 -78 0 0 1 17 0 1 0 1
phys
0 150 -363 78 0 0 1 17 0 1 0 1
0 138 -363 -78 0 0 1 17 0 1 0 1
0 138 -363 78 0 0 1 17 0 1 0 1
phys
0 150 -375 -78 0 0 1 17 0 1 0 1
0 150 -375 78 0 0 1 17 0 1 0 1
0 138 -375 78 0 0 1 17 0 1 0 1
phys
0 150 -375 -78 0 0 1 17 0 1 0 1
0 138 -375 78 0 0 1 17 0 1 0 1
0 138 -375 -78 0 0 1 17 0 1 0 1
phys
0 138 -375 -78 0 0 1 17 0 1 0 1
0 138 -375 78 0 0 1 17 0 1 0 1
0 138 -363 78 0 0 1 17 0 1 0 1
phys
0 138 -375 -78 0 0 1 17 0 1 0 1
0 138 -363 78 0 0 1 17 0 1 0 1
0 138 -363 -78 0 0 1 17 0 1 0 1
phys
0 150 -375 78 0 0 1 17 0 1 0 1
0 150 -375 -78 0 0 1 17 0 1 0 1
0 150 -363 -78 0 0 1 17 0 1 0 1
phys
0 150 -375 78 0 0 1 17 0 1 0 1
0 150 -363 -78 0 0 1 17 0 1 0 1
0 150 -363 78 0 0 1 17 0 1 0 1
phys
0 150 -375 -78 0 0 1 17 0 1 0 1
0 138 -375 -78 0 0 1 17 0 1 0 1
0 138 -363 -78 0 0 1 17 0 1 0 1
phys
0 150 -375 -78 0 0 1 17 0 1 0 1
0 138 -363 -78 0 0 1 17 0 1 0 1
0 150 -363 -78 0 0 1 17 0 1 0 1
phys
0 138 -375 78 0 0 1 17 0 1 0 1
0 150 -375 78 0 0 1 17 0 1 0 1
0 150 -363 78 0 0 1 17 0 1 0 1
phys
0 138 -375 78 0 0 1 17 0 1 0 1
0 150 -363 78 0 0 1 17 0 1 0 1
0 138 -363 78 0 0 1 17 0 1 0 1
phys
0 150 -450 -24 0 0 1 18 0 1 0 1
0 150 -450 -33 0 0 1 18 0 1 0 1
0 6 -450 -33 0 0 1 18 0 1 0 1
phys
0 150 -450 -24 0 0 1 18 0 1 0 1
0 6 -450 -33 0 0 1 18 0 1 0 1
0 6 -450 -24 0 0 1 18 0 1 0 1
phys
0 6 -465 -24 0 0 1 18 0 1 0 1
0 6 -450 -24 0 0 1 18 0 1 0 1
0 6 -450 -33 0 0 1 18 0 1 0 1
phys
0 150 -450 -33 0 0 1 18 0 1 0 1
0 150 -450 -24 0 0 1 18 0 1 0 1
0 150 -465 -24 0 0 1 18 0 1 0 1
phys
0 150 -465 -24 0 0 1 18 0 1 0 1
0 150 -450 -24 0 0 1 18 0 1 0 1
0 6 -450 -24 0 0 1 18 0 1 0 1
phys
0 150 -465 -24 0 0 1 18 0 1 0 1
0 6 -450 -24 0 0 1 18 0 1 0 1
0 6 -465 -24 0 0 1 18 0 1 0 1
phys
0 6 -465 -24 0 0 1 18 0 1 0 1
0 6 -450 -33 0 0 1 18 0 1 0 1
0 150 -450 -33 0 0 1 18 0 1 0 1
phys
0 6 -465 -24 0 0 1 18 0 1 0 1
0 150 -450 -33 0 0 1 18 0 1 0 1
0 150 -465 -24 0 0 1 18 0 1 0 1
phys
0 6 -126 66 0 0 1 19 0 1 0 1
0 6 -126 78 0 0 1 19 0 1 0 1
0 -6 -126 78 0 0 1 19 0 1 0 1
phys
0 6 -126 66 0 0 1 19 0 1 0 1
0 -6 -126 78 0 0 1 19 0 1 0 1
0 -6 -126 66 0 0 1 19 0 1 0 1
phys
0 -6 -126 66 0 0 1 19 0 1 0 1
0 -6 -126 78 0 0 1 19 0 1 0 1
0 -6 -6 78 0 0 1 19 0 1 0 1
phys
0 -6 -126 66 0 0 1 19 0 1 0 1
0 -6 -6 78 0 0 1 19 0 1 0 1
0 -6 -6 66 0 0 1 19 0 1 0 1
phys
0 6 -126 78 0 0 1 19 0 1 0 1
0 6 -126 66 0 0 1 19 0 1 0 1
0 6 -6 66 0 0 1 19 0 1 0 1
phys
0 6 -126 78 0 0 1 19 0 1 0 1
0 6 -6 66 0 0 1 19 0 1 0 1
0 6 -6 78 0 0 1 19 0 1 0 1
phys
0 6 -126 66 0 0 1 19 0 1 0 1
0 -6 -126 66 0 0 1 19 0 1 0 1
0 -6 -6 66 0 0 1 19 0 1 0 1
phys
0 6 -126 66 0 0 1 19 0 1 0 1
0 -6 -6 66 0 0 1 19 0 1 0 1
0 6 -6 66 0 0 1 19 0 1 0 1
phys
0 -6 -126 78 0 0 1 19 0 1 0 1
0 6 -126 78 0 0 1 19 0 1 0 1
0 6 -6 78 0 0 1 19 0 1 0 1
phys
0 -6 -126 78 0 0 1 19 0 1 0 1
0 6 -6 78 0 0 1 19 0 1 0 1
0 -6 -6 78 0 0 1 19 0 1 0 1
phys
0 6 -6 78 0 0 1 19 0 1 0 1
0 6 -6 66 0 0 1 19 0 1 0 1
0 -6 -6 66 0 0 1 19 0 1 0 1
phys
0 6 -6 78 0 0 1 19 0 1 0 1
0 -6 -6 66 0 0 1 19 0 1 0 1
0 -6 -6 78 0 0 1 19 0 1 0 1
phys
0 -113 -138 -123 0 0 1 20 0 1 0 1
0 -128 -138 -131.999 0 0 1 20 0 1 0 1
0 -128 6 -131.999 0 0 1 20 0 1 0 1
phys
0 -113 -138 -123 0 0 1 20 0 1 0 1
0 -128 6 -131.999 0 0 1 20 0 1 0 1
0 -113 6 -123 0 0 1 20 0 1 0 1
phys
0 -113 6 -123 0 0 1 20 0 1 0 1
0 -128 6 -131.999 0 0 1 20 0 1 0 1
0 -128 6 -123 0 0 1 20 0 1 0 1
phys
0 -128 -138 -123 0 0 1 20 0 1 0 1
0 -128 -138 -131.999 0 0 1 20 0 1 0 1
0 -113 -138 -123 0 0 1 20 0 1 0 1
phys
0 -128 6 -123 0 0 1 20 0 1 0 1
0 -128 6 -131.999 0 0 1 20 0 1 0 1
0 -128 -138 -131.999 0 0 1 20 0 1 0 1
phys
0 -128 6 -123 0 0 1 20 0 1 0 1
0 -128 -138 -131.999 0 0 1 20 0 1 0 1
0 -128 -138 -123 0 0 1 20 0 1 0 1
phys
0 -128 -138 -123 0 0 1 20 0 1 0 1
0 -113 -138 -123 0 0 1 20 0 1 0 1
0 -113 6 -123 0 0 1 20 0 1 0 1
phys
0 -128 -138 -123 0 0 1 20 0 1 0 1
0 -113 6 -123 0 0 1 20 0 1 0 1
0 -128 6 -123 0 0 1 20 0 1 0 1
phys
0 -158 -138 -150 0 0 1 21 0 1 0 1
0 -173 -138 -159.004 0 0 1 21 0 1 0 1
0 -173 6 -159.004 0 0 1 21 0 1 0 1
phys
0 -158 -138 -150 0 0 1 21 0 1 0 1
0 -173 6 -159.004 0 0 1 21 0 1 0 1
0 -158 6 -150 0 0 1 21 0 1 0 1
phys
0 -158 6 -150 0 0 1 21 0 1 0 1
0 -173 6 -159.004 0 0 1 21 0 1 0 1
0 -173 6 -150 0 0 1 21 0 1 0 1
phys
0 -173 -138 -150 0 0 1 21 0 1 0 1
0 -173 -138 -159.004 0 0 1 21 0 1 0 1
0 -158 -138 -150 0 0 1 21 0 1 0 1
phys
0 -173 6 -150 0 0 1 21 0 1 0 1
0 -173 6 -159.004 0 0 1 21 0 1 0 1
0 -173 -138 -159.004 0 0 1 21 0 1 0 1
phys
0 -173 6 -150 0 0 1 21 0 1 0 1
0 -173 -138 -159.004 0 0 1 21 0 1 0 1
0 -173 -138 -150 0 0 1 21 0 1 0 1
phys
0 -173 -138 -150 0 0 1 21 0 1 0 1
0 -158 -138 -150 0 0 1 21 0 1 0 1
0 -158 6 -150 0 0 1 21 0 1 0 1
phys
0 -173 -138 -150 0 0 1 21 0 1 0 1
0 -158 6 -150 0 0 1 21 0 1 0 1
0 -173 6 -150 0 0 1 21 0 1 0 1
phys
0 150 -375 -69 0 0 1 22 0 1 0 1
0 150 -375 -78 0 0 1 22 0 1 0 1
0 6 -375 -78 0 0 1 22 0 1 0 1
phys
0 150 -375 -69 0 0 1 22 0 1 0 1
0 6 -375 -78 0 0 1 22 0 1 0 1
0 6 -375 -69 0 0 1 22 0 1 0 1
phys
0 6 -390 -69 0 0 1 22 0 1 0 1
0 6 -375 -69 0 0 1 22 0 1 0 1
0 6 -375 -78 0 0 1 22 0 1 0 1
phys
0 150 -375 -78 0 0 1 22 0 1 0 1
0 150 -375 -69 0 0 1 22 0 1 0 1
0 150 -390 -69 0 0 1 22 0 1 0 1
phys
0 150 -390 -69 0 0 1 22 0 1 0 1
0 150 -375 -69 0 0 1 22 0 1 0 1
0 6 -375 -69 0 0 1 22 0 1 0 1
phys
0 150 -390 -69 0 0 1 22 0 1 0 1
0 6 -375 -69 0 0 1 22 0 1 0 1
0 6 -390 -69 0 0 1 22 0 1 0 1
phys
0 6 -390 -69 0 0 1 22 0 1 0 1
0 6 -375 -78 0 0 1 22 0 1 0 1
0 150 -375 -78 0 0 1 22 0 1 0 1
phys
0 6 -390 -69 0 0 1 22 0 1 0 1
0 150 -375 -78 0 0 1 22 0 1 0 1
0 150 -390 -69 0 0 1 22 0 1 0 1
phys
0 -143 6 -141.004 0 0 1 23 0 1 0 1
0 -143 6 -132 0 0 1 23 0 1 0 1
0 -128 6 -132 0 0 1 23 0 1 0 1
phys
0 -128 -138 -132 0 0 1 23 0 1 0 1
0 -143 -138 -132 0 0 1 23 0 1 0 1
0 -143 -138 -141.004 0 0 1 23 0 1 0 1
phys
0 -143 -138 -141.004 0 0 1 23 0 1 0 1
0 -143 -138 -132 0 0 1 23 0 1 0 1
0 -143 6 -132 0 0 1 23 0 1 0 1
phys
0 -143 -138 -141.004 0 0 1 23 0 1 0 1
0 -143 6 -132 0 0 1 23 0 1 0 1
0 -143 6 -141.004 0 0 1 23 0 1 0 1
phys
0 -143 -138 -132 0 0 1 23 0 1 0 1
0 -128 -138 -132 0 0 1 23 0 1 0 1
0 -128 6 -132 0 0 1 23 0 1 0 1
phys
0 -143 -138 -132 0 0 1 23 0 1 0 1
0 -128 6 -132 0 0 1 23 0 1 0 1
0 -143 6 -132 0 0 1 23 0 1 0 1
phys
0 -128 -138 -132 0 0 1 23 0 1 0 1
0 -143 -138 -141.004 0 0 1 23 0 1 0 1
0 -143 6 -141.004 0 0 1 23 0 1 0 1
phys
0 -128 -138 -132 0 0 1 23 0 1 0 1
0 -143 6 -141.004 0 0 1 23 0 1 0 1
0 -128 6 -132 0 0 1 23 0 1 0 1
phys
0 150 -435 -33 0 0 1 24 0 1 0 1
0 150 -435 -42 0 0 1 24 0 1 0 1
0 6 -435 -42 0 0 1 24 0 1 0 1
phys
0 150 -435 -33 0 0 1 24 0 1 0 1
0 6 -435 -42 0 0 1 24 0 1 0 1
0 6 -435 -33 0 0 1 24 0 1 0 1
phys
0 6 -450 -33 0 0 1 24 0 1 0 1
0 6 -435 -33 0 0 1 24 0 1 0 1
0 6 -435 -42 0 0 1 24 0 1 0 1
phys
0 150 -435 -42 0 0 1 24 0 1 0 1
0 150 -435 -33 0 0 1 24 0 1 0 1
0 150 -450 -33 0 0 1 24 0 1 0 1
phys
0 150 -450 -33 0 0 1 24 0 1 0 1
0 150 -435 -33 0 0 1 24 0 1 0 1
0 6 -435 -33 0 0 1 24 0 1 0 1
phys
0 150 -450 -33 0 0 1 24 0 1 0 1
0 6 -435 -33 0 0 1 24 0 1 0 1
0 6 -450 -33 0 0 1 24 0 1 0 1
phys
0 6 -450 -33 0 0 1 24 0 1 0 1
0 6 -435 -42 0 0 1 24 0 1 0 1
0 150 -435 -42 0 0 1 24 0 1 0 1
phys
0 6 -450 -33 0 0 1 24 0 1 0 1
0 150 -435 -42 0 0 1 24 0 1 0 1
0 150 -450 -33 0 0 1 24 0 1 0 1
phys
0 -83 6 -104.999 0 0 1 25 0 1 0 1
0 -83 6 -96 0 0 1 25 0 1 0 1
0 -68 6 -96 0 0 1 25 0 1 0 1
phys
0 -68 -138 -96 0 0 1 25 0 1 0 1
0 -83 -138 -96 0 0 1 25 0 1 0 1
0 -83 -138 -104.999 0 0 1 25 0 1 0 1
phys
0 -83 -138 -104.999 0 0 1 25 0 1 0 1
0 -83 -138 -96 0 0 1 25 0 1 0 1
0 -83 6 -96 0 0 1 25 0 1 0 1
phys
0 -83 -138 -104.999 0 0 1 25 0 1 0 1
0 -83 6 -96 0 0 1 25 0 1 0 1
0 -83 6 -104.999 0 0 1 25 0 1 0 1
phys
0 -83 -138 -96 0 0 1 25 0 1 0 1
0 -68 -138 -96 0 0 1 25 0 1 0 1
0 -68 6 -96 0 0 1 25 0 1 0 1
phys
0 -83 -138 -96 0 0 1 25 0 1 0 1
0 -68 6 -96 0 0 1 25 0 1 0 1
0 -83 6 -96 0 0 1 25 0 1 0 1
phys
0 -68 -138 -96 0 0 1 25 0 1 0 1
0 -83 -138 -104.999 0 0 1 25 0 1 0 1
0 -83 6 -104.999 0 0 1 25 0 1 0 1
phys
0 -68 -138 -96 0 0 1 25 0 1 0 1
0 -83 6 -104.999 0 0 1 25 0 1 0 1
0 -68 6 -96 0 0 1 25 0 1 0 1
phys
0 6 -435 -42 0 0 1 26 0 1 0 1
0 150 -435 -42 0 0 1 26 0 1 0 1
0 150 -420 -42 0 0 1 26 0 1 0 1
phys
0 6 -435 -42 0 0 1 26 0 1 0 1
0 150 -420 -42 0 0 1 26 0 1 0 1
0 6 -420 -42 0 0 1 26 0 1 0 1
phys
0 150 -435 -42 0 0 1 26 0 1 0 1
0 6 -435 -42 0 0 1 26 0 1 0 1
0 6 -420 -51 0 0 1 26 0 1 0 1
phys
0 150 -435 -42 0 0 1 26 0 1 0 1
0 6 -420 -51 0 0 1 26 0 1 0 1
0 150 -420 -51 0 0 1 26 0 1 0 1
phys
0 150 -420 -51 0 0 1 26 0 1 0 1
0 6 -420 -51 0 0 1 26 0 1 0 1
0 6 -420 -42 0 0 1 26 0 1 0 1
phys
0 150 -420 -51 0 0 1 26 0 1 0 1
0 6 -420 -42 0 0 1 26 0 1 0 1
0 150 -420 -42 0 0 1 26 0 1 0 1
phys
0 6 -435 -42 0 0 1 26 0 1 0 1
0 6 -420 -42 0 0 1 26 0 1 0 1
0 6 -420 -51 0 0 1 26 0 1 0 1
phys
0 150 -420 -42 0 0 1 26 0 1 0 1
0 150 -435 -42 0 0 1 26 0 1 0 1
0 150 -420 -51 0 0 1 26 0 1 0 1
phys
0 -203 6 -177.004 0 0 1 27 0 1 0 1
0 -203 6 -168 0 0 1 27 0 1 0 1
0 -188 6 -168 0 0 1 27 0 1 0 1
phys
0 -188 -138 -168 0 0 1 27 0 1 0 1
0 -203 -138 -168 0 0 1 27 0 1 0 1
0 -203 -138 -177.004 0 0 1 27 0 1 0 1
phys
0 -203 -138 -177.004 0 0 1 27 0 1 0 1
0 -203 -138 -168 0 0 1 27 0 1 0 1
0 -203 6 -168 0 0 1 27 0 1 0 1
phys
0 -203 -138 -177.004 0 0 1 27 0 1 0 1
0 -203 6 -168 0 0 1 27 0 1 0 1
0 -203 6 -177.004 0 0 1 27 0 1 0 1
phys
0 -203 -138 -168 0 0 1 27 0 1 0 1
0 -188 -138 -168 0 0 1 27 0 1 0 1
0 -188 6 -168 0 0 1 27 0 1 0 1
phys
0 -203 -138 -168 0 0 1 27 0 1 0 1
0 -188 6 -168 0 0 1 27 0 1 0 1
0 -203 6 -168 0 0 1 27 0 1 0 1
phys
0 -188 -138 -168 0 0 1 27 0 1 0 1
0 -203 -138 -177.004 0 0 1 27 0 1 0 1
0 -203 6 -177.004 0 0 1 27 0 1 0 1
phys
0 -188 -138 -168 0 0 1 27 0 1 0 1
0 -203 6 -177.004 0 0 1 27 0 1 0 1
0 -188 6 -168 0 0 1 27 0 1 0 1
phys
0 -143 -138 -141 0 0 1 28 0 1 0 1
0 -158 -138 -150.004 0 0 1 28 0 1 0 1
0 -158 6 -150.004 0 0 1 28 0 1 0 1
phys
0 -143 -138 -141 0 0 1 28 0 1 0 1
0 -158 6 -150.004 0 0 1 28 0 1 0 1
0 -143 6 -141 0 0 1 28 0 1 0 1
phys
0 -143 6 -141 0 0 1 28 0 1 0 1
0 -158 6 -150.004 0 0 1 28 0 1 0 1
0 -158 6 -141 0 0 1 28 0 1 0 1
phys
0 -158 -138 -141 0 0 1 28 0 1 0 1
0 -158 -138 -150.004 0 0 1 28 0 1 0 1
0 -143 -138 -141 0 0 1 28 0 1 0 1
phys
0 -158 6 -141 0 0 1 28 0 1 0 1
0 -158 6 -150.004 0 0 1 28 0 1 0 1
0 -158 -138 -150.004 0 0 1 28 0 1 0 1
phys
0 -158 6 -141 0 0 1 28 0 1 0 1
0 -158 -138 -150.004 0 0 1 28 0 1 0 1
0 -158 -138 -141 0 0 1 28 0 1 0 1
phys
0 -158 -138 -141 0 0 1 28 0 1 0 1
0 -143 -138 -141 0 0 1 28 0 1 0 1
0 -143 6 -141 0 0 1 28 0 1 0 1
phys
0 -158 -138 -141 0 0 1 28 0 1 0 1
0 -143 6 -141 0 0 1 28 0 1 0 1
0 -158 6 -141 0 0 1 28 0 1 0 1
end
