version 1
nodes
0 "root" -1
end
skeleton
time 0
0 0 0 0 0 0 0
end
triangles
metal_metalfloor006a
0 344 -82 -50 0 1 0 -83.148438 -4.140625 1 0 1
0 244 -82 -50 0 1 0 -83.929688 -4.140625 1 0 1
0 246 -82 -48 0 1 0 -83.914063 -4.125 1 0 1
metal_metalfloor006a
0 344 -82 -50 0 1 0 -83.148438 -4.140625 1 0 1
0 246 -82 -48 0 1 0 -83.914063 -4.125 1 0 1
0 342 -82 -48 0 1 0 -83.164062 -4.125 1 0 1
metal_metalfloor006a
0 344 -85 -50 0 0 -1 18 -82.148438 1 0 1
0 244 -85 -50 0 0 -1 18 -82.929687 1 0 1
0 244 -82 -50 0 0 -1 17.976562 -82.929688 1 0 1
metal_metalfloor006a
0 344 -85 -50 0 0 -1 18 -82.148438 1 0 1
0 244 -82 -50 0 0 -1 17.976562 -82.929688 1 0 1
0 344 -82 -50 0 0 -1 17.976562 -82.148438 1 0 1
metal_metalfloor006a
0 246 -85 -48 0 0 1 18 -82.914062 1 0 1
0 342 -85 -48 0 0 1 18 -82.164063 1 0 1
0 342 -82 -48 0 0 1 17.976562 -82.164062 1 0 1
metal_metalfloor006a
0 246 -85 -48 0 0 1 18 -82.914062 1 0 1
0 342 -82 -48 0 0 1 17.976562 -82.164062 1 0 1
0 246 -82 -48 0 0 1 17.976562 -82.914062 1 0 1
pepsi2_arch_stairs01
0 -53 -138 -78 0 0 1 35.300781 -345.71875 1 0 1
0 -38 -138 -78 0 0 1 35.300781 -345.25 1 0 1
0 -38 6 -78 0 0 1 33.050781 -345.25 1 0 1
pepsi2_arch_stairs01
0 -53 -138 -78 0 0 1 35.300781 -345.71875 1 0 1
0 -38 6 -78 0 0 1 33.050781 -345.25 1 0 1
0 -53 6 -78 0 0 1 33.050781 -345.71875 1 0 1
pepsi2_arch_stairs01
0 -53 -138 -78 -1 0 0 35.300781 -22.71875 1 0 1
0 -53 6 -78 -1 0 0 33.050781 -22.71875 1 0 1
0 -53 6 -87.004 -1 0 0 33.050781 -23.000125 1 0 1
pepsi2_arch_stairs01
0 -53 -138 -78 -1 0 0 35.300781 -22.71875 1 0 1
0 -53 6 -87.004 -1 0 0 33.050781 -23.000125 1 0 1
0 -53 -138 -87.004 -1 0 0 35.300781 -23.000125 1 0 1
metal_metalfloor006a
0 246 -82 -47.997 0 1 0 83.835938 -4.124977 1 0 1
0 244 -82 -49.997 0 1 0 83.851562 -4.140602 1 0 1
0 244 -82 49.997 0 1 0 83.851562 -3.359398 1 0 1
metal_metalfloor006a
0 246 -82 -47.997 0 1 0 83.835938 -4.124977 1 0 1
0 244 -82 49.997 0 1 0 83.851562 -3.359398 1 0 1
0 246 -82 47.997 0 1 0 83.835938 -3.375023 1 0 1
metal_metalfloor006a
0 244 -85 49.997 -1 0 0 -18.015625 -3.359398 1 0 1
0 244 -82 49.997 -1 0 0 -17.992188 -3.359398 1 0 1
0 244 -82 -49.997 -1 0 0 -17.992188 -4.140602 1 0 1
metal_metalfloor006a
0 244 -85 49.997 -1 0 0 -18.015625 -3.359398 1 0 1
0 244 -82 -49.997 -1 0 0 -17.992188 -4.140602 1 0 1
0 244 -85 -49.997 -1 0 0 -18.015625 -4.140602 1 0 1
metal_metalfloor006a
0 246 -85 -47.997 1 0 0 -18.015625 -4.124977 1 0 1
0 246 -82 -47.997 1 0 0 -17.992188 -4.124977 1 0 1
0 246 -82 47.997 1 0 0 -17.992188 -3.375023 1 0 1
metal_metalfloor006a
0 246 -85 -47.997 1 0 0 -18.015625 -4.124977 1 0 1
0 246 -82 47.997 1 0 0 -17.992188 -3.375023 1 0 1
0 246 -85 47.997 1 0 0 -18.015625 -3.375023 1 0 1
pepsi2_arch_stairs01
0 -113 -138 -123.004 -1 0 0 35.300781 -24.000125 1 0 1
0 -113 -138 -114 -1 0 0 35.300781 -23.71875 1 0 1
0 -113 6 -114 -1 0 0 33.050781 -23.71875 1 0 1
pepsi2_arch_stairs01
0 -113 -138 -123.004 -1 0 0 35.300781 -24.000125 1 0 1
0 -113 6 -114 -1 0 0 33.050781 -23.71875 1 0 1
0 -113 6 -123.004 -1 0 0 33.050781 -24.000125 1 0 1
pepsi2_arch_stairs01
0 -113 -138 -114 0 0 1 35.300781 -347.71875 1 0 1
0 -98 -138 -114 0 0 1 35.300781 -347.25 1 0 1
0 -98 6 -114 0 0 1 33.050781 -347.25 1 0 1
pepsi2_arch_stairs01
0 -113 -138 -114 0 0 1 35.300781 -347.71875 1 0 1
0 -98 6 -114 0 0 1 33.050781 -347.25 1 0 1
0 -113 6 -114 0 0 1 33.050781 -347.71875 1 0 1
pepsi2_arch_stairs01
0 -218 6 -177 -1 0 0 33.050781 -25.71875 1 0 1
0 -218 6 -186.004 -1 0 0 33.050781 -26.000125 1 0 1
0 -218 -138 -186.004 -1 0 0 35.300781 -26.000125 1 0 1
pepsi2_arch_stairs01
0 -218 6 -177 -1 0 0 33.050781 -25.71875 1 0 1
0 -218 -138 -186.004 -1 0 0 35.300781 -26.000125 1 0 1
0 -218 -138 -177 -1 0 0 35.300781 -25.71875 1 0 1
pepsi2_arch_stairs01
0 -218 -138 -177 0 0 1 35.300781 -350.71875 1 0 1
0 -203 -138 -177 0 0 1 35.300781 -350.25 1 0 1
0 -203 6 -177 0 0 1 33.050781 -350.25 1 0 1
pepsi2_arch_stairs01
0 -218 -138 -177 0 0 1 35.300781 -350.71875 1 0 1
0 -203 6 -177 0 0 1 33.050781 -350.25 1 0 1
0 -218 6 -177 0 0 1 33.050781 -350.71875 1 0 1
pepsi2_arch_stairs01
0 -68 -138 -96.004 -1 0 0 35.300781 -24.000125 1 0 1
0 -68 -138 -87 -1 0 0 35.300781 -23.71875 1 0 1
0 -68 6 -87 -1 0 0 33.050781 -23.71875 1 0 1
pepsi2_arch_stairs01
0 -68 -138 -96.004 -1 0 0 35.300781 -24.000125 1 0 1
0 -68 6 -87 -1 0 0 33.050781 -23.71875 1 0 1
0 -68 6 -96.004 -1 0 0 33.050781 -24.000125 1 0 1
pepsi2_arch_stairs01
0 -68 -138 -87 0 0 1 35.300781 -345.71875 1 0 1
0 -53 -138 -87 0 0 1 35.300781 -345.25 1 0 1
0 -53 6 -87 0 0 1 33.050781 -345.25 1 0 1
pepsi2_arch_stairs01
0 -68 -138 -87 0 0 1 35.300781 -345.71875 1 0 1
0 -53 6 -87 0 0 1 33.050781 -345.25 1 0 1
0 -68 6 -87 0 0 1 33.050781 -345.71875 1 0 1
pepsi2_arch_stairs01
0 150 -405 -51 0 1 0 170.050781 -21.71875 1 0 1
0 150 -405 -60 0 1 0 170.050781 -22 1 0 1
0 6 -405 -60 0 1 0 172.300781 -22 1 0 1
pepsi2_arch_stairs01
0 150 -405 -51 0 1 0 170.050781 -21.71875 1 0 1
0 6 -405 -60 0 1 0 172.300781 -22 1 0 1
0 6 -405 -51 0 1 0 172.300781 -21.71875 1 0 1
pepsi2_arch_stairs01
0 150 -420 -51 0 0 1 170.050781 79.75 1 0 1
0 150 -405 -51 0 0 1 170.050781 79.28125 1 0 1
0 6 -405 -51 0 0 1 172.300781 79.28125 1 0 1
pepsi2_arch_stairs01
0 150 -420 -51 0 0 1 170.050781 79.75 1 0 1
0 6 -405 -51 0 0 1 172.300781 79.28125 1 0 1
0 6 -420 -51 0 0 1 172.300781 79.75 1 0 1
props_sign_trainschedule01a
0 342 -84 48 0 1 0 111 -4.998698 1 0 1
0 342 -84 -48 0 1 0 111 -5.998698 1 0 1
0 246 -84 -48 0 1 0 112 -5.998698 1 0 1
props_sign_trainschedule01a
0 342 -84 48 0 1 0 111 -4.998698 1 0 1
0 246 -84 -48 0 1 0 112 -5.998698 1 0 1
0 246 -84 48 0 1 0 112 -4.998698 1 0 1
bridge_se1_metal_flat_steel_01
0 6 -6 -78 0 -1 0 -86.1875 -4.369141 1 0 1
0 6 -6 78 0 -1 0 -86.1875 -3.150391 1 0 1
0 -6 -6 78 0 -1 0 -86.28125 -3.150391 1 0 1
bridge_se1_metal_flat_steel_01
0 6 -6 -78 0 -1 0 -86.1875 -4.369141 1 0 1
0 -6 -6 78 0 -1 0 -86.28125 -3.150391 1 0 1
0 -6 -6 -78 0 -1 0 -86.28125 -4.369141 1 0 1
bridge_se1_metal_flat_steel_01
0 -6 -6 -78 -1 0 0 -17.429688 -4.369141 1 0 1
0 -6 -6 78 -1 0 0 -17.429688 -3.150391 1 0 1
0 -6 6 78 -1 0 0 -17.335938 -3.150391 1 0 1
bridge_se1_metal_flat_steel_01
0 -6 -6 -78 -1 0 0 -17.429688 -4.369141 1 0 1
0 -6 6 78 -1 0 0 -17.335938 -3.150391 1 0 1
0 -6 6 -78 -1 0 0 -17.335938 -4.369141 1 0 1
bridge_se1_metal_flat_steel_01
0 6 -6 78 1 0 0 -17.429688 -3.150391 1 0 1
0 6 -6 -78 1 0 0 -17.429688 -4.369141 1 0 1
0 6 6 -78 1 0 0 -17.335938 -4.369141 1 0 1
bridge_se1_metal_flat_steel_01
0 6 -6 78 1 0 0 -17.429688 -3.150391 1 0 1
0 6 6 -78 1 0 0 -17.335938 -4.369141 1 0 1
0 6 6 78 1 0 0 -17.335938 -3.150391 1 0 1
bridge_se1_metal_flat_steel_01
0 6 -126 78 0 1 0 85.390625 -3.150391 1 0 1
0 6 -126 -78 0 1 0 85.390625 -4.369141 1 0 1
0 -6 -126 -78 0 1 0 85.484375 -4.369141 1 0 1
bridge_se1_metal_flat_steel_01
0 6 -126 78 0 1 0 85.390625 -3.150391 1 0 1
0 -6 -126 -78 0 1 0 85.484375 -4.369141 1 0 1
0 -6 -126 78 0 1 0 85.484375 -3.150391 1 0 1
bridge_se1_metal_flat_steel_01
0 -6 -138 -78 -1 0 0 -18.460938 -4.369141 1 0 1
0 -6 -138 78 -1 0 0 -18.460938 -3.150391 1 0 1
0 -6 -126 78 -1 0 0 -18.367188 -3.150391 1 0 1
bridge_se1_metal_flat_steel_01
0 -6 -138 -78 -1 0 0 -18.460938 -4.369141 1 0 1
0 -6 -126 78 -1 0 0 -18.367188 -3.150391 1 0 1
0 -6 -126 -78 -1 0 0 -18.367188 -4.369141 1 0 1
bridge_se1_metal_flat_steel_01
0 6 -138 78 1 0 0 -18.460938 -3.150391 1 0 1
0 6 -138 -78 1 0 0 -18.460938 -4.369141 1 0 1
0 6 -126 -78 1 0 0 -18.367188 -4.369141 1 0 1
bridge_se1_metal_flat_steel_01
0 6 -138 78 1 0 0 -18.460938 -3.150391 1 0 1
0 6 -126 -78 1 0 0 -18.367188 -4.369141 1 0 1
0 6 -126 78 1 0 0 -18.367188 -3.150391 1 0 1
bridge_se1_metal_flat_steel_01
0 138 -363 78 0 1 0 -84.429688 -3.150391 1 0 1
0 138 -363 66 0 1 0 -84.429688 -3.244141 1 0 1
0 18 -363 66 0 1 0 -85.367188 -3.244141 1 0 1
bridge_se1_metal_flat_steel_01
0 138 -363 78 0 1 0 -84.429688 -3.150391 1 0 1
0 18 -363 66 0 1 0 -85.367188 -3.244141 1 0 1
0 18 -363 78 0 1 0 -85.367188 -3.150391 1 0 1
bridge_se1_metal_flat_steel_01
0 138 -375 66 0 -1 0 -84.429688 -3.244141 1 0 1
0 138 -375 78 0 -1 0 -84.429688 -3.150391 1 0 1
0 18 -375 78 0 -1 0 -85.367188 -3.150391 1 0 1
bridge_se1_metal_flat_steel_01
0 138 -375 66 0 -1 0 -84.429688 -3.244141 1 0 1
0 18 -375 78 0 -1 0 -85.367188 -3.150391 1 0 1
0 18 -375 66 0 -1 0 -85.367188 -3.244141 1 0 1
bridge_se1_metal_flat_steel_01
0 138 -375 66 0 0 -1 -84.429688 20.998047 1 0 1
0 18 -375 66 0 0 -1 -85.367188 20.998047 1 0 1
0 18 -363 66 0 0 -1 -85.367188 20.904297 1 0 1
bridge_se1_metal_flat_steel_01
0 138 -375 66 0 0 -1 -84.429688 20.998047 1 0 1
0 18 -363 66 0 0 -1 -85.367188 20.904297 1 0 1
0 138 -363 66 0 0 -1 -84.429688 20.904297 1 0 1
pepsi2_arch_stairs01
0 -98 -138 -105 0 0 1 35.300781 -346.71875 1 0 1
0 -83 -138 -105 0 0 1 35.300781 -346.25 1 0 1
0 -83 6 -105 0 0 1 33.050781 -346.25 1 0 1
pepsi2_arch_stairs01
0 -98 -138 -105 0 0 1 35.300781 -346.71875 1 0 1
0 -83 6 -105 0 0 1 33.050781 -346.25 1 0 1
0 -98 6 -105 0 0 1 33.050781 -346.71875 1 0 1
pepsi2_arch_stairs01
0 -98 -138 -105 -1 0 0 35.300781 -23.71875 1 0 1
0 -98 6 -105 -1 0 0 33.050781 -23.71875 1 0 1
0 -98 6 -114.004 -1 0 0 33.050781 -24.000125 1 0 1
pepsi2_arch_stairs01
0 -98 -138 -105 -1 0 0 35.300781 -23.71875 1 0 1
0 -98 6 -114.004 -1 0 0 33.050781 -24.000125 1 0 1
0 -98 -138 -114.004 -1 0 0 35.300781 -24.000125 1 0 1
bridge_se1_metal_flat_steel_01
0 18 -375 -78 1 0 0 -19.609375 -4.369141 1 0 1
0 18 -363 -78 1 0 0 -19.515625 -4.369141 1 0 1
0 18 -363 78 1 0 0 -19.515625 -3.150391 1 0 1
bridge_se1_metal_flat_steel_01
0 18 -375 -78 1 0 0 -19.609375 -4.369141 1 0 1
0 18 -363 78 1 0 0 -19.515625 -3.150391 1 0 1
0 18 -375 78 1 0 0 -19.609375 -3.150391 1 0 1
bridge_se1_metal_flat_steel_01
0 18 -363 78 0 1 0 -85.367188 -3.150391 1 0 1
0 18 -363 -78 0 1 0 -85.367188 -4.369141 1 0 1
0 6 -363 -78 0 1 0 -85.460938 -4.369141 1 0 1
bridge_se1_metal_flat_steel_01
0 18 -363 78 0 1 0 -85.367188 -3.150391 1 0 1
0 6 -363 -78 0 1 0 -85.460938 -4.369141 1 0 1
0 6 -363 78 0 1 0 -85.460938 -3.150391 1 0 1
bridge_se1_metal_flat_steel_01
0 18 -375 -78 0 -1 0 -85.367188 -4.369141 1 0 1
0 18 -375 78 0 -1 0 -85.367188 -3.150391 1 0 1
0 6 -375 78 0 -1 0 -85.460938 -3.150391 1 0 1
bridge_se1_metal_flat_steel_01
0 18 -375 -78 0 -1 0 -85.367188 -4.369141 1 0 1
0 6 -375 78 0 -1 0 -85.460938 -3.150391 1 0 1
0 6 -375 -78 0 -1 0 -85.460938 -4.369141 1 0 1
metal_metalfloor006a
0 344 -82 50 0 1 0 83.070312 5.359375 1 0 1
0 342 -82 48 0 1 0 83.085938 5.375 1 0 1
0 246 -82 48 0 1 0 83.835938 5.375 1 0 1
metal_metalfloor006a
0 344 -82 50 0 1 0 83.070312 5.359375 1 0 1
0 246 -82 48 0 1 0 83.835938 5.375 1 0 1
0 244 -82 50 0 1 0 83.851562 5.359375 1 0 1
metal_metalfloor006a
0 246 -82 48 0 0 -1 17.976562 84.835938 1 0 1
0 342 -82 48 0 0 -1 17.976562 84.085938 1 0 1
0 342 -85 48 0 0 -1 18 84.085938 1 0 1
metal_metalfloor006a
0 246 -82 48 0 0 -1 17.976562 84.835938 1 0 1
0 342 -85 48 0 0 -1 18 84.085938 1 0 1
0 246 -85 48 0 0 -1 18 84.835937 1 0 1
metal_metalfloor006a
0 244 -85 50 0 0 1 18 84.851562 1 0 1
0 344 -85 50 0 0 1 18 84.070313 1 0 1
0 344 -82 50 0 0 1 17.976562 84.070313 1 0 1
metal_metalfloor006a
0 244 -85 50 0 0 1 18 84.851562 1 0 1
0 344 -82 50 0 0 1 17.976562 84.070313 1 0 1
0 244 -82 50 0 0 1 17.976562 84.851562 1 0 1
pepsi2_arch_stairs01
0 -188 -138 -168.004 -1 0 0 35.300781 -26.000125 1 0 1
0 -188 -138 -159 -1 0 0 35.300781 -25.71875 1 0 1
0 -188 6 -159 -1 0 0 33.050781 -25.71875 1 0 1
pepsi2_arch_stairs01
0 -188 -138 -168.004 -1 0 0 35.300781 -26.000125 1 0 1
0 -188 6 -159 -1 0 0 33.050781 -25.71875 1 0 1
0 -188 6 -168.004 -1 0 0 33.050781 -26.000125 1 0 1
pepsi2_arch_stairs01
0 -188 -138 -159 0 0 1 35.300781 -349.71875 1 0 1
0 -173 -138 -159 0 0 1 35.300781 -349.25 1 0 1
0 -173 6 -159 0 0 1 33.050781 -349.25 1 0 1
pepsi2_arch_stairs01
0 -188 -138 -159 0 0 1 35.300781 -349.71875 1 0 1
0 -173 6 -159 0 0 1 33.050781 -349.25 1 0 1
0 -188 6 -159 0 0 1 33.050781 -349.71875 1 0 1
pepsi2_arch_stairs01
0 6 -405 -60 0 0 1 172.300781 79.75 1 0 1
0 150 -405 -60 0 0 1 170.050781 79.75 1 0 1
0 150 -390 -60 0 0 1 170.050781 79.28125 1 0 1
pepsi2_arch_stairs01
0 6 -405 -60 0 0 1 172.300781 79.75 1 0 1
0 150 -390 -60 0 0 1 170.050781 79.28125 1 0 1
0 6 -390 -60 0 0 1 172.300781 79.28125 1 0 1
pepsi2_arch_stairs01
0 150 -390 -69 0 1 0 170.050781 -23 1 0 1
0 6 -390 -69 0 1 0 172.300781 -23 1 0 1
0 6 -390 -60 0 1 0 172.300781 -22.71875 1 0 1
pepsi2_arch_stairs01
0 150 -390 -69 0 1 0 170.050781 -23 1 0 1
0 6 -390 -60 0 1 0 172.300781 -22.71875 1 0 1
0 150 -390 -60 0 1 0 170.050781 -22.71875 1 0 1
bridge_se1_metal_flat_steel_01
0 150 -363 78 0 1 0 -84.335938 -3.150391 1 0 1
0 150 -363 -78 0 1 0 -84.335938 -4.369141 1 0 1
0 138 -363 -78 0 1 0 -84.429688 -4.369141 1 0 1
bridge_se1_metal_flat_steel_01
0 150 -363 78 0 1 0 -84.335938 -3.150391 1 0 1
0 138 -363 -78 0 1 0 -84.429688 -4.369141 1 0 1
0 138 -363 78 0 1 0 -84.429688 -3.150391 1 0 1
bridge_se1_metal_flat_steel_01
0 150 -375 -78 0 -1 0 -84.335938 -4.369141 1 0 1
0 150 -375 78 0 -1 0 -84.335938 -3.150391 1 0 1
0 138 -375 78 0 -1 0 -84.429688 -3.150391 1 0 1
bridge_se1_metal_flat_steel_01
0 150 -375 -78 0 -1 0 -84.335938 -4.369141 1 0 1
0 138 -375 78 0 -1 0 -84.429688 -3.150391 1 0 1
0 138 -375 -78 0 -1 0 -84.429688 -4.369141 1 0 1
bridge_se1_metal_flat_steel_01
0 138 -375 -78 -1 0 0 19.8125 -4.369141 1 0 1
0 138 -375 78 -1 0 0 19.8125 -3.150391 1 0 1
0 138 -363 78 -1 0 0 19.71875 -3.150391 1 0 1
bridge_se1_metal_flat_steel_01
0 138 -375 -78 -1 0 0 19.8125 -4.369141 1 0 1
0 138 -363 78 -1 0 0 19.71875 -3.150391 1 0 1
0 138 -363 -78 -1 0 0 19.71875 -4.369141 1 0 1
pepsi2_arch_stairs01
0 150 -450 -24 0 1 0 170.050781 -21.71875 1 0 1
0 150 -450 -33 0 1 0 170.050781 -22 1 0 1
0 6 -450 -33 0 1 0 172.300781 -22 1 0 1
pepsi2_arch_stairs01
0 150 -450 -24 0 1 0 170.050781 -21.71875 1 0 1
0 6 -450 -33 0 1 0 172.300781 -22 1 0 1
0 6 -450 -24 0 1 0 172.300781 -21.71875 1 0 1
pepsi2_arch_stairs01
0 150 -465 -24 0 0 1 170.050781 81.75 1 0 1
0 150 -450 -24 0 0 1 170.050781 81.28125 1 0 1
0 6 -450 -24 0 0 1 172.300781 81.28125 1 0 1
pepsi2_arch_stairs01
0 150 -465 -24 0 0 1 170.050781 81.75 1 0 1
0 6 -450 -24 0 0 1 172.300781 81.28125 1 0 1
0 6 -465 -24 0 0 1 172.300781 81.75 1 0 1
bridge_se1_metal_flat_steel_01
0 -6 -126 66 -1 0 0 -18.367188 -3.244141 1 0 1
0 -6 -126 78 -1 0 0 -18.367188 -3.150391 1 0 1
0 -6 -6 78 -1 0 0 -17.429688 -3.150391 1 0 1
bridge_se1_metal_flat_steel_01
0 -6 -126 66 -1 0 0 -18.367188 -3.244141 1 0 1
0 -6 -6 78 -1 0 0 -17.429688 -3.150391 1 0 1
0 -6 -6 66 -1 0 0 -17.429688 -3.244141 1 0 1
bridge_se1_metal_flat_steel_01
0 6 -126 78 1 0 0 -18.367188 -3.150391 1 0 1
0 6 -126 66 1 0 0 -18.367188 -3.244141 1 0 1
0 6 -6 66 1 0 0 -17.429688 -3.244141 1 0 1
bridge_se1_metal_flat_steel_01
0 6 -126 78 1 0 0 -18.367188 -3.150391 1 0 1
0 6 -6 66 1 0 0 -17.429688 -3.244141 1 0 1
0 6 -6 78 1 0 0 -17.429688 -3.150391 1 0 1
bridge_se1_metal_flat_steel_01
0 6 -126 66 0 0 -1 -18.367188 -85.001953 1 0 1
0 -6 -126 66 0 0 -1 -18.367188 -85.095703 1 0 1
0 -6 -6 66 0 0 -1 -17.429688 -85.095703 1 0 1
bridge_se1_metal_flat_steel_01
0 6 -126 66 0 0 -1 -18.367188 -85.001953 1 0 1
0 -6 -6 66 0 0 -1 -17.429688 -85.095703 1 0 1
0 6 -6 66 0 0 -1 -17.429688 -85.001953 1 0 1
pepsi2_arch_stairs01
0 -128 6 -123 -1 0 0 33.050781 -24.71875 1 0 1
0 -128 6 -131.999 -1 0 0 33.050781 -24.999969 1 0 1
0 -128 -138 -131.999 -1 0 0 35.300781 -24.999969 1 0 1
pepsi2_arch_stairs01
0 -128 6 -123 -1 0 0 33.050781 -24.71875 1 0 1
0 -128 -138 -131.999 -1 0 0 35.300781 -24.999969 1 0 1
0 -128 -138 -123 -1 0 0 35.300781 -24.71875 1 0 1
pepsi2_arch_stairs01
0 -128 -138 -123 0 0 1 35.300781 -347.71875 1 0 1
0 -113 -138 -123 0 0 1 35.300781 -347.25 1 0 1
0 -113 6 -123 0 0 1 33.050781 -347.25 1 0 1
pepsi2_arch_stairs01
0 -128 -138 -123 0 0 1 35.300781 -347.71875 1 0 1
0 -113 6 -123 0 0 1 33.050781 -347.25 1 0 1
0 -128 6 -123 0 0 1 33.050781 -347.71875 1 0 1
pepsi2_arch_stairs01
0 -173 6 -150 -1 0 0 33.050781 -25.71875 1 0 1
0 -173 6 -159.004 -1 0 0 33.050781 -26.000125 1 0 1
0 -173 -138 -159.004 -1 0 0 35.300781 -26.000125 1 0 1
pepsi2_arch_stairs01
0 -173 6 -150 -1 0 0 33.050781 -25.71875 1 0 1
0 -173 -138 -159.004 -1 0 0 35.300781 -26.000125 1 0 1
0 -173 -138 -150 -1 0 0 35.300781 -25.71875 1 0 1
pepsi2_arch_stairs01
0 -173 -138 -150 0 0 1 35.300781 -348.71875 1 0 1
0 -158 -138 -150 0 0 1 35.300781 -348.25 1 0 1
0 -158 6 -150 0 0 1 33.050781 -348.25 1 0 1
pepsi2_arch_stairs01
0 -173 -138 -150 0 0 1 35.300781 -348.71875 1 0 1
0 -158 6 -150 0 0 1 33.050781 -348.25 1 0 1
0 -173 6 -150 0 0 1 33.050781 -348.71875 1 0 1
pepsi2_arch_stairs01
0 150 -375 -69 0 1 0 170.050781 -22.71875 1 0 1
0 150 -375 -78 0 1 0 170.050781 -23 1 0 1
0 6 -375 -78 0 1 0 172.300781 -23 1 0 1
pepsi2_arch_stairs01
0 150 -375 -69 0 1 0 170.050781 -22.71875 1 0 1
0 6 -375 -78 0 1 0 172.300781 -23 1 0 1
0 6 -375 -69 0 1 0 172.300781 -22.71875 1 0 1
pepsi2_arch_stairs01
0 150 -390 -69 0 0 1 170.050781 78.75 1 0 1
0 150 -375 -69 0 0 1 170.050781 78.28125 1 0 1
0 6 -375 -69 0 0 1 172.300781 78.28125 1 0 1
pepsi2_arch_stairs01
0 150 -390 -69 0 0 1 170.050781 78.75 1 0 1
0 6 -375 -69 0 0 1 172.300781 78.28125 1 0 1
0 6 -390 -69 0 0 1 172.300781 78.75 1 0 1
pepsi2_arch_stairs01
0 -143 -138 -141.004 -1 0 0 35.300781 -25.000125 1 0 1
0 -143 -138 -132 -1 0 0 35.300781 -24.71875 1 0 1
0 -143 6 -132 -1 0 0 33.050781 -24.71875 1 0 1
pepsi2_arch_stairs01
0 -143 -138 -141.004 -1 0 0 35.300781 -25.000125 1 0 1
0 -143 6 -132 -1 0 0 33.050781 -24.71875 1 0 1
0 -143 6 -141.004 -1 0 0 33.050781 -25.000125 1 0 1
pepsi2_arch_stairs01
0 -143 -138 -132 0 0 1 35.300781 -348.71875 1 0 1
0 -128 -138 -132 0 0 1 35.300781 -348.25 1 0 1
0 -128 6 -132 0 0 1 33.050781 -348.25 1 0 1
pepsi2_arch_stairs01
0 -143 -138 -132 0 0 1 35.300781 -348.71875 1 0 1
0 -128 6 -132 0 0 1 33.050781 -348.25 1 0 1
0 -143 6 -132 0 0 1 33.050781 -348.71875 1 0 1
pepsi2_arch_stairs01
0 150 -435 -33 0 1 0 170.050781 -21.71875 1 0 1
0 150 -435 -42 0 1 0 170.050781 -22 1 0 1
0 6 -435 -42 0 1 0 172.300781 -22 1 0 1
pepsi2_arch_stairs01
0 150 -435 -33 0 1 0 170.050781 -21.71875 1 0 1
0 6 -435 -42 0 1 0 172.300781 -22 1 0 1
0 6 -435 -33 0 1 0 172.300781 -21.71875 1 0 1
pepsi2_arch_stairs01
0 150 -450 -33 0 0 1 170.050781 80.75 1 0 1
0 150 -435 -33 0 0 1 170.050781 80.28125 1 0 1
0 6 -435 -33 0 0 1 172.300781 80.28125 1 0 1
pepsi2_arch_stairs01
0 150 -450 -33 0 0 1 170.050781 80.75 1 0 1
0 6 -435 -33 0 0 1 172.300781 80.28125 1 0 1
0 6 -450 -33 0 0 1 172.300781 80.75 1 0 1
pepsi2_arch_stairs01
0 -83 -138 -104.999 -1 0 0 35.300781 -23.999969 1 0 1
0 -83 -138 -96 -1 0 0 35.300781 -23.71875 1 0 1
0 -83 6 -96 -1 0 0 33.050781 -23.71875 1 0 1
pepsi2_arch_stairs01
0 -83 -138 -104.999 -1 0 0 35.300781 -23.999969 1 0 1
0 -83 6 -96 -1 0 0 33.050781 -23.71875 1 0 1
0 -83 6 -104.999 -1 0 0 33.050781 -23.999969 1 0 1
pepsi2_arch_stairs01
0 -83 -138 -96 0 0 1 35.300781 -346.71875 1 0 1
0 -68 -138 -96 0 0 1 35.300781 -346.25 1 0 1
0 -68 6 -96 0 0 1 33.050781 -346.25 1 0 1
pepsi2_arch_stairs01
0 -83 -138 -96 0 0 1 35.300781 -346.71875 1 0 1
0 -68 6 -96 0 0 1 33.050781 -346.25 1 0 1
0 -83 6 -96 0 0 1 33.050781 -346.71875 1 0 1
pepsi2_arch_stairs01
0 6 -435 -42 0 0 1 172.300781 80.75 1 0 1
0 150 -435 -42 0 0 1 170.050781 80.75 1 0 1
0 150 -420 -42 0 0 1 170.050781 80.28125 1 0 1
pepsi2_arch_stairs01
0 6 -435 -42 0 0 1 172.300781 80.75 1 0 1
0 150 -420 -42 0 0 1 170.050781 80.28125 1 0 1
0 6 -420 -42 0 0 1 172.300781 80.28125 1 0 1
pepsi2_arch_stairs01
0 150 -420 -51 0 1 0 170.050781 -22 1 0 1
0 6 -420 -51 0 1 0 172.300781 -22 1 0 1
0 6 -420 -42 0 1 0 172.300781 -21.71875 1 0 1
pepsi2_arch_stairs01
0 150 -420 -51 0 1 0 170.050781 -22 1 0 1
0 6 -420 -42 0 1 0 172.300781 -21.71875 1 0 1
0 150 -420 -42 0 1 0 170.050781 -21.71875 1 0 1
pepsi2_arch_stairs01
0 -203 -138 -177.004 -1 0 0 35.300781 -26.000125 1 0 1
0 -203 -138 -168 -1 0 0 35.300781 -25.71875 1 0 1
0 -203 6 -168 -1 0 0 33.050781 -25.71875 1 0 1
pepsi2_arch_stairs01
0 -203 -138 -177.004 -1 0 0 35.300781 -26.000125 1 0 1
0 -203 6 -168 -1 0 0 33.050781 -25.71875 1 0 1
0 -203 6 -177.004 -1 0 0 33.050781 -26.000125 1 0 1
pepsi2_arch_stairs01
0 -203 -138 -168 0 0 1 35.300781 -349.71875 1 0 1
0 -188 -138 -168 0 0 1 35.300781 -349.25 1 0 1
0 -188 6 -168 0 0 1 33.050781 -349.25 1 0 1
pepsi2_arch_stairs01
0 -203 -138 -168 0 0 1 35.300781 -349.71875 1 0 1
0 -188 6 -168 0 0 1 33.050781 -349.25 1 0 1
0 -203 6 -168 0 0 1 33.050781 -349.71875 1 0 1
pepsi2_arch_stairs01
0 -158 6 -141 -1 0 0 33.050781 -24.71875 1 0 1
0 -158 6 -150.004 -1 0 0 33.050781 -25.000125 1 0 1
0 -158 -138 -150.004 -1 0 0 35.300781 -25.000125 1 0 1
pepsi2_arch_stairs01
0 -158 6 -141 -1 0 0 33.050781 -24.71875 1 0 1
0 -158 -138 -150.004 -1 0 0 35.300781 -25.000125 1 0 1
0 -158 -138 -141 -1 0 0 35.300781 -24.71875 1 0 1
pepsi2_arch_stairs01
0 -158 -138 -141 0 0 1 35.300781 -348.71875 1 0 1
0 -143 -138 -141 0 0 1 35.300781 -348.25 1 0 1
0 -143 6 -141 0 0 1 33.050781 -348.25 1 0 1
pepsi2_arch_stairs01
0 -158 -138 -141 0 0 1 35.300781 -348.71875 1 0 1
0 -143 6 -141 0 0 1 33.050781 -348.25 1 0 1
0 -158 6 -141 0 0 1 33.050781 -348.71875 1 0 1
end
