version 1
nodes
0 "root" -1
end
skeleton
time 0
0 0 0 0 0 0 0
end
triangles
phys
0 95.78 -40.3 33.092 0 0 1 1 0 1 0 1
0 95.78 -40.3 0.108 0 0 1 1 0 1 0 1
0 -240.21 -40.3 0.108 0 0 1 1 0 1 0 1
phys
0 95.78 -40.3 33.092 0 0 1 1 0 1 0 1
0 -240.21 -40.3 0.108 0 0 1 1 0 1 0 1
0 -240.21 -40.3 33.092 0 0 1 1 0 1 0 1
phys
0 95.78 -48.3 0.108 0 0 1 1 0 1 0 1
0 95.78 -48.3 33.092 0 0 1 1 0 1 0 1
0 -240.21 -48.3 33.092 0 0 1 1 0 1 0 1
phys
0 95.78 -48.3 0.108 0 0 1 1 0 1 0 1
0 -240.21 -48.3 33.092 0 0 1 1 0 1 0 1
0 -240.21 -48.3 0.108 0 0 1 1 0 1 0 1
phys
0 -240.21 -48.3 0.108 0 0 1 1 0 1 0 1
0 -240.21 -48.3 33.092 0 0 1 1 0 1 0 1
0 -240.21 -40.3 33.092 0 0 1 1 0 1 0 1
phys
0 -240.21 -48.3 0.108 0 0 1 1 0 1 0 1
0 -240.21 -40.3 33.092 0 0 1 1 0 1 0 1
0 -240.21 -40.3 0.108 0 0 1 1 0 1 0 1
phys
0 95.78 -48.3 33.092 0 0 1 1 0 1 0 1
0 95.78 -48.3 0.108 0 0 1 1 0 1 0 1
0 95.78 -40.3 0.108 0 0 1 1 0 1 0 1
phys
0 95.78 -48.3 33.092 0 0 1 1 0 1 0 1
0 95.78 -40.3 0.108 0 0 1 1 0 1 0 1
0 95.78 -40.3 33.092 0 0 1 1 0 1 0 1
phys
0 95.78 -48.3 0.108 0 0 1 1 0 1 0 1
0 -240.21 -48.3 0.108 0 0 1 1 0 1 0 1
0 -240.21 -40.3 0.108 0 0 1 1 0 1 0 1
phys
0 95.78 -48.3 0.108 0 0 1 1 0 1 0 1
0 -240.21 -40.3 0.108 0 0 1 1 0 1 0 1
0 95.78 -40.3 0.108 0 0 1 1 0 1 0 1
phys
0 -240.21 -48.3 33.092 0 0 1 1 0 1 0 1
0 95.78 -48.3 33.092 0 0 1 1 0 1 0 1
0 95.78 -40.3 33.092 0 0 1 1 0 1 0 1
phys
0 -240.21 -48.3 33.092 0 0 1 1 0 1 0 1
0 95.78 -40.3 33.092 0 0 1 1 0 1 0 1
0 -240.21 -40.3 33.092 0 0 1 1 0 1 0 1
phys
0 95.78 47.7 128.106 0 0 1 2 0 1 0 1
0 95.78 47.7 0.108 0 0 1 2 0 1 0 1
0 -0.22 47.7 0.108 0 0 1 2 0 1 0 1
phys
0 95.78 47.7 128.106 0 0 1 2 0 1 0 1
0 -0.22 47.7 0.108 0 0 1 2 0 1 0 1
0 -0.22 47.7 128.106 0 0 1 2 0 1 0 1
phys
0 95.78 -40.3 0.108 0 0 1 2 0 1 0 1
0 95.78 -40.3 128.106 0 0 1 2 0 1 0 1
0 -0.22 -40.3 128.106 0 0 1 2 0 1 0 1
phys
0 95.78 -40.3 0.108 0 0 1 2 0 1 0 1
0 -0.22 -40.3 128.106 0 0 1 2 0 1 0 1
0 -0.22 -40.3 0.108 0 0 1 2 0 1 0 1
phys
0 -0.22 -40.3 0.108 0 0 1 2 0 1 0 1
0 -0.22 -40.3 128.106 0 0 1 2 0 1 0 1
0 -0.22 47.7 128.106 0 0 1 2 0 1 0 1
phys
0 -0.22 -40.3 0.108 0 0 1 2 0 1 0 1
0 -0.22 47.7 128.106 0 0 1 2 0 1 0 1
0 -0.22 47.7 0.108 0 0 1 2 0 1 0 1
phys
0 95.78 -40.3 128.106 0 0 1 2 0 1 0 1
0 95.78 -40.3 0.108 0 0 1 2 0 1 0 1
0 95.78 47.7 0.108 0 0 1 2 0 1 0 1
phys
0 95.78 -40.3 128.106 0 0 1 2 0 1 0 1
0 95.78 47.7 0.108 0 0 1 2 0 1 0 1
0 95.78 47.7 128.106 0 0 1 2 0 1 0 1
phys
0 95.78 -40.3 0.108 0 0 1 2 0 1 0 1
0 -0.22 -40.3 0.108 0 0 1 2 0 1 0 1
0 -0.22 47.7 0.108 0 0 1 2 0 1 0 1
phys
0 95.78 -40.3 0.108 0 0 1 2 0 1 0 1
0 -0.22 47.7 0.108 0 0 1 2 0 1 0 1
0 95.78 47.7 0.108 0 0 1 2 0 1 0 1
phys
0 -0.22 -40.3 128.106 0 0 1 2 0 1 0 1
0 95.78 -40.3 128.106 0 0 1 2 0 1 0 1
0 95.78 47.7 128.106 0 0 1 2 0 1 0 1
phys
0 -0.22 -40.3 128.106 0 0 1 2 0 1 0 1
0 95.78 47.7 128.106 0 0 1 2 0 1 0 1
0 -0.22 47.7 128.106 0 0 1 2 0 1 0 1
phys
0 119.78 -40.3 0.108 0 0 1 3 0 1 0 1
0 119.78 -40.3 120.108 0 0 1 3 0 1 0 1
0 103.78 -40.3 120.108 0 0 1 3 0 1 0 1
phys
0 119.78 -40.3 0.108 0 0 1 3 0 1 0 1
0 103.78 -40.3 120.108 0 0 1 3 0 1 0 1
0 103.78 -40.3 0.108 0 0 1 3 0 1 0 1
phys
0 103.78 -40.3 0.108 0 0 1 3 0 1 0 1
0 103.78 -40.3 120.108 0 0 1 3 0 1 0 1
0 103.78 15.7 120.108 0 0 1 3 0 1 0 1
phys
0 103.78 -40.3 0.108 0 0 1 3 0 1 0 1
0 103.78 15.7 120.108 0 0 1 3 0 1 0 1
0 103.78 15.7 0.108 0 0 1 3 0 1 0 1
phys
0 119.78 -40.3 120.108 0 0 1 3 0 1 0 1
0 119.78 -40.3 0.108 0 0 1 3 0 1 0 1
0 119.78 15.7 0.108 0 0 1 3 0 1 0 1
phys
0 119.78 -40.3 120.108 0 0 1 3 0 1 0 1
0 119.78 15.7 0.108 0 0 1 3 0 1 0 1
0 119.78 15.7 120.108 0 0 1 3 0 1 0 1
phys
0 119.78 -40.3 0.108 0 0 1 3 0 1 0 1
0 103.78 -40.3 0.108 0 0 1 3 0 1 0 1
0 103.78 15.7 0.108 0 0 1 3 0 1 0 1
phys
0 119.78 -40.3 0.108 0 0 1 3 0 1 0 1
0 103.78 15.7 0.108 0 0 1 3 0 1 0 1
0 119.78 15.7 0.108 0 0 1 3 0 1 0 1
phys
0 103.78 -40.3 120.108 0 0 1 3 0 1 0 1
0 119.78 -40.3 120.108 0 0 1 3 0 1 0 1
0 119.78 15.7 120.108 0 0 1 3 0 1 0 1
phys
0 103.78 -40.3 120.108 0 0 1 3 0 1 0 1
0 119.78 15.7 120.108 0 0 1 3 0 1 0 1
0 103.78 15.7 120.108 0 0 1 3 0 1 0 1
phys
0 119.78 15.7 120.108 0 0 1 3 0 1 0 1
0 119.78 15.7 0.108 0 0 1 3 0 1 0 1
0 103.78 15.7 0.108 0 0 1 3 0 1 0 1
phys
0 119.78 15.7 120.108 0 0 1 3 0 1 0 1
0 103.78 15.7 0.108 0 0 1 3 0 1 0 1
0 103.78 15.7 120.108 0 0 1 3 0 1 0 1
phys
0 239.79 15.7 120.108 0 0 1 4 0 1 0 1
0 239.79 15.7 0.108 0 0 1 4 0 1 0 1
0 215.78 15.7 0.108 0 0 1 4 0 1 0 1
phys
0 239.79 15.7 120.108 0 0 1 4 0 1 0 1
0 215.78 15.7 0.108 0 0 1 4 0 1 0 1
0 215.78 15.7 120.108 0 0 1 4 0 1 0 1
phys
0 239.79 -40.3 0.108 0 0 1 4 0 1 0 1
0 239.79 -40.3 120.108 0 0 1 4 0 1 0 1
0 215.78 -40.3 120.108 0 0 1 4 0 1 0 1
phys
0 239.79 -40.3 0.108 0 0 1 4 0 1 0 1
0 215.78 -40.3 120.108 0 0 1 4 0 1 0 1
0 215.78 -40.3 0.108 0 0 1 4 0 1 0 1
phys
0 215.78 -40.3 0.108 0 0 1 4 0 1 0 1
0 215.78 -40.3 120.108 0 0 1 4 0 1 0 1
0 215.78 15.7 120.108 0 0 1 4 0 1 0 1
phys
0 215.78 -40.3 0.108 0 0 1 4 0 1 0 1
0 215.78 15.7 120.108 0 0 1 4 0 1 0 1
0 215.78 15.7 0.108 0 0 1 4 0 1 0 1
phys
0 239.79 -40.3 120.108 0 0 1 4 0 1 0 1
0 239.79 -40.3 0.108 0 0 1 4 0 1 0 1
0 239.79 15.7 0.108 0 0 1 4 0 1 0 1
phys
0 239.79 -40.3 120.108 0 0 1 4 0 1 0 1
0 239.79 15.7 0.108 0 0 1 4 0 1 0 1
0 239.79 15.7 120.108 0 0 1 4 0 1 0 1
phys
0 239.79 -40.3 0.108 0 0 1 4 0 1 0 1
0 215.78 -40.3 0.108 0 0 1 4 0 1 0 1
0 215.78 15.7 0.108 0 0 1 4 0 1 0 1
phys
0 239.79 -40.3 0.108 0 0 1 4 0 1 0 1
0 215.78 15.7 0.108 0 0 1 4 0 1 0 1
0 239.79 15.7 0.108 0 0 1 4 0 1 0 1
phys
0 215.78 -40.3 120.108 0 0 1 4 0 1 0 1
0 239.79 -40.3 120.108 0 0 1 4 0 1 0 1
0 239.79 15.7 120.108 0 0 1 4 0 1 0 1
phys
0 215.78 -40.3 120.108 0 0 1 4 0 1 0 1
0 239.79 15.7 120.108 0 0 1 4 0 1 0 1
0 215.78 15.7 120.108 0 0 1 4 0 1 0 1
phys
0 239.79 -48.3 0.108 0 0 1 5 0 1 0 1
0 95.78 -48.3 0.108 0 0 1 5 0 1 0 1
0 95.78 -40.3 0.108 0 0 1 5 0 1 0 1
phys
0 239.79 -48.3 0.108 0 0 1 5 0 1 0 1
0 95.78 -40.3 0.108 0 0 1 5 0 1 0 1
0 239.79 -40.3 0.108 0 0 1 5 0 1 0 1
phys
0 95.78 -48.3 128.117 0 0 1 5 0 1 0 1
0 239.79 -48.3 128.117 0 0 1 5 0 1 0 1
0 239.79 -40.3 128.117 0 0 1 5 0 1 0 1
phys
0 95.78 -48.3 128.117 0 0 1 5 0 1 0 1
0 239.79 -40.3 128.117 0 0 1 5 0 1 0 1
0 95.78 -40.3 128.117 0 0 1 5 0 1 0 1
phys
0 239.79 -40.3 0.108 0 0 1 5 0 1 0 1
0 95.78 -40.3 0.108 0 0 1 5 0 1 0 1
0 95.78 -40.3 128.117 0 0 1 5 0 1 0 1
phys
0 239.79 -40.3 0.108 0 0 1 5 0 1 0 1
0 95.78 -40.3 128.117 0 0 1 5 0 1 0 1
0 239.79 -40.3 128.117 0 0 1 5 0 1 0 1
phys
0 239.79 -48.3 128.117 0 0 1 5 0 1 0 1
0 95.78 -48.3 128.117 0 0 1 5 0 1 0 1
0 95.78 -48.3 0.108 0 0 1 5 0 1 0 1
phys
0 239.79 -48.3 128.117 0 0 1 5 0 1 0 1
0 95.78 -48.3 0.108 0 0 1 5 0 1 0 1
0 239.79 -48.3 0.108 0 0 1 5 0 1 0 1
phys
0 95.78 -48.3 128.117 0 0 1 5 0 1 0 1
0 95.78 -40.3 128.117 0 0 1 5 0 1 0 1
0 95.78 -40.3 0.108 0 0 1 5 0 1 0 1
phys
0 95.78 -48.3 128.117 0 0 1 5 0 1 0 1
0 95.78 -40.3 0.108 0 0 1 5 0 1 0 1
0 95.78 -48.3 0.108 0 0 1 5 0 1 0 1
phys
0 239.79 -48.3 0.108 0 0 1 5 0 1 0 1
0 239.79 -40.3 0.108 0 0 1 5 0 1 0 1
0 239.79 -40.3 128.117 0 0 1 5 0 1 0 1
phys
0 239.79 -48.3 0.108 0 0 1 5 0 1 0 1
0 239.79 -40.3 128.117 0 0 1 5 0 1 0 1
0 239.79 -48.3 128.117 0 0 1 5 0 1 0 1
phys
0 -199 -40.3 101.34 0 0 1 6 0 1 0 1
0 -199 -40.3 32.84 0 0 1 6 0 1 0 1
0 -240.21 -40.3 32.84 0 0 1 6 0 1 0 1
phys
0 -199 -40.3 101.34 0 0 1 6 0 1 0 1
0 -240.21 -40.3 32.84 0 0 1 6 0 1 0 1
0 -240.21 -40.3 101.34 0 0 1 6 0 1 0 1
phys
0 -199 -48.3 32.84 0 0 1 6 0 1 0 1
0 -199 -48.3 101.34 0 0 1 6 0 1 0 1
0 -240.21 -48.3 101.34 0 0 1 6 0 1 0 1
phys
0 -199 -48.3 32.84 0 0 1 6 0 1 0 1
0 -240.21 -48.3 101.34 0 0 1 6 0 1 0 1
0 -240.21 -48.3 32.84 0 0 1 6 0 1 0 1
phys
0 -240.21 -48.3 32.84 0 0 1 6 0 1 0 1
0 -240.21 -48.3 101.34 0 0 1 6 0 1 0 1
0 -240.21 -40.3 101.34 0 0 1 6 0 1 0 1
phys
0 -240.21 -48.3 32.84 0 0 1 6 0 1 0 1
0 -240.21 -40.3 101.34 0 0 1 6 0 1 0 1
0 -240.21 -40.3 32.84 0 0 1 6 0 1 0 1
phys
0 -199 -48.3 101.34 0 0 1 6 0 1 0 1
0 -199 -48.3 32.84 0 0 1 6 0 1 0 1
0 -199 -40.3 32.84 0 0 1 6 0 1 0 1
phys
0 -199 -48.3 101.34 0 0 1 6 0 1 0 1
0 -199 -40.3 32.84 0 0 1 6 0 1 0 1
0 -199 -40.3 101.34 0 0 1 6 0 1 0 1
phys
0 -199 -48.3 32.84 0 0 1 6 0 1 0 1
0 -240.21 -48.3 32.84 0 0 1 6 0 1 0 1
0 -240.21 -40.3 32.84 0 0 1 6 0 1 0 1
phys
0 -199 -48.3 32.84 0 0 1 6 0 1 0 1
0 -240.21 -40.3 32.84 0 0 1 6 0 1 0 1
0 -199 -40.3 32.84 0 0 1 6 0 1 0 1
phys
0 -240.21 -48.3 101.34 0 0 1 6 0 1 0 1
0 -199 -48.3 101.34 0 0 1 6 0 1 0 1
0 -199 -40.3 101.34 0 0 1 6 0 1 0 1
phys
0 -240.21 -48.3 101.34 0 0 1 6 0 1 0 1
0 -199 -40.3 101.34 0 0 1 6 0 1 0 1
0 -240.21 -40.3 101.34 0 0 1 6 0 1 0 1
phys
0 95.78 -48.3 32.84 0 0 1 7 0 1 0 1
0 -71.19 -48.3 32.84 0 0 1 7 0 1 0 1
0 -71.19 -40.3 32.84 0 0 1 7 0 1 0 1
phys
0 95.78 -48.3 32.84 0 0 1 7 0 1 0 1
0 -71.19 -40.3 32.84 0 0 1 7 0 1 0 1
0 95.78 -40.3 32.84 0 0 1 7 0 1 0 1
phys
0 -71.19 -48.3 101.34 0 0 1 7 0 1 0 1
0 95.78 -48.3 101.34 0 0 1 7 0 1 0 1
0 95.78 -40.3 101.34 0 0 1 7 0 1 0 1
phys
0 -71.19 -48.3 101.34 0 0 1 7 0 1 0 1
0 95.78 -40.3 101.34 0 0 1 7 0 1 0 1
0 -71.19 -40.3 101.34 0 0 1 7 0 1 0 1
phys
0 95.78 -40.3 32.84 0 0 1 7 0 1 0 1
0 -71.19 -40.3 32.84 0 0 1 7 0 1 0 1
0 -71.19 -40.3 101.34 0 0 1 7 0 1 0 1
phys
0 95.78 -40.3 32.84 0 0 1 7 0 1 0 1
0 -71.19 -40.3 101.34 0 0 1 7 0 1 0 1
0 95.78 -40.3 101.34 0 0 1 7 0 1 0 1
phys
0 95.78 -48.3 101.34 0 0 1 7 0 1 0 1
0 -71.19 -48.3 101.34 0 0 1 7 0 1 0 1
0 -71.19 -48.3 32.84 0 0 1 7 0 1 0 1
phys
0 95.78 -48.3 101.34 0 0 1 7 0 1 0 1
0 -71.19 -48.3 32.84 0 0 1 7 0 1 0 1
0 95.78 -48.3 32.84 0 0 1 7 0 1 0 1
phys
0 -71.19 -48.3 101.34 0 0 1 7 0 1 0 1
0 -71.19 -40.3 101.34 0 0 1 7 0 1 0 1
0 -71.19 -40.3 32.84 0 0 1 7 0 1 0 1
phys
0 -71.19 -48.3 101.34 0 0 1 7 0 1 0 1
0 -71.19 -40.3 32.84 0 0 1 7 0 1 0 1
0 -71.19 -48.3 32.84 0 0 1 7 0 1 0 1
phys
0 95.78 -48.3 32.84 0 0 1 7 0 1 0 1
0 95.78 -40.3 32.84 0 0 1 7 0 1 0 1
0 95.78 -40.3 101.34 0 0 1 7 0 1 0 1
phys
0 95.78 -48.3 32.84 0 0 1 7 0 1 0 1
0 95.78 -40.3 101.34 0 0 1 7 0 1 0 1
0 95.78 -48.3 101.34 0 0 1 7 0 1 0 1
end
