version 1
nodes
0 "root" -1
end
skeleton
time 0
0 0 0 0 0 0 0
end
triangles
phys
0 1 167 -44.001 0 0 1 1 0 1 0 1
0 1 167 -45 0 0 1 1 0 1 0 1
0 -123 167 -118 0 0 1 1 0 1 0 1
phys
0 1 167 -44.001 0 0 1 1 0 1 0 1
0 -123 167 -118 0 0 1 1 0 1 0 1
0 -124 167 -118 0 0 1 1 0 1 0 1
phys
0 1 164.301 -45 0 0 1 1 0 1 0 1
0 1 164.301 -44.001 0 0 1 1 0 1 0 1
0 -124 164.301 -118 0 0 1 1 0 1 0 1
phys
0 1 164.301 -45 0 0 1 1 0 1 0 1
0 -124 164.301 -118 0 0 1 1 0 1 0 1
0 -123 164.301 -118 0 0 1 1 0 1 0 1
phys
0 1 164.301 -44.001 0 0 1 1 0 1 0 1
0 1 164.301 -45 0 0 1 1 0 1 0 1
0 1 167 -45 0 0 1 1 0 1 0 1
phys
0 1 164.301 -44.001 0 0 1 1 0 1 0 1
0 1 167 -45 0 0 1 1 0 1 0 1
0 1 167 -44.001 0 0 1 1 0 1 0 1
phys
0 -123 164.301 -118 0 0 1 1 0 1 0 1
0 -124 164.301 -118 0 0 1 1 0 1 0 1
0 -124 167 -118 0 0 1 1 0 1 0 1
phys
0 -123 164.301 -118 0 0 1 1 0 1 0 1
0 -124 167 -118 0 0 1 1 0 1 0 1
0 -123 167 -118 0 0 1 1 0 1 0 1
phys
0 -124 164.301 -118 0 0 1 1 0 1 0 1
0 1 164.301 -44.001 0 0 1 1 0 1 0 1
0 1 167 -44.001 0 0 1 1 0 1 0 1
phys
0 -124 164.301 -118 0 0 1 1 0 1 0 1
0 1 167 -44.001 0 0 1 1 0 1 0 1
0 -124 167 -118 0 0 1 1 0 1 0 1
phys
0 1 164.301 -45 0 0 1 1 0 1 0 1
0 -123 164.301 -118 0 0 1 1 0 1 0 1
0 -123 167 -118 0 0 1 1 0 1 0 1
phys
0 1 164.301 -45 0 0 1 1 0 1 0 1
0 -123 167 -118 0 0 1 1 0 1 0 1
0 1 167 -45 0 0 1 1 0 1 0 1
phys
0 -109 -147 -118 0 0 1 2 0 1 0 1
0 -109 -147 -122 0 0 1 2 0 1 0 1
0 -133 -147 -122 0 0 1 2 0 1 0 1
phys
0 -109 -147 -118 0 0 1 2 0 1 0 1
0 -133 -147 -122 0 0 1 2 0 1 0 1
0 -133 -147 -118 0 0 1 2 0 1 0 1
phys
0 -109 -171 -122 0 0 1 2 0 1 0 1
0 -109 -171 -118 0 0 1 2 0 1 0 1
0 -133 -171 -118 0 0 1 2 0 1 0 1
phys
0 -109 -171 -122 0 0 1 2 0 1 0 1
0 -133 -171 -118 0 0 1 2 0 1 0 1
0 -133 -171 -122 0 0 1 2 0 1 0 1
phys
0 -133 -171 -122 0 0 1 2 0 1 0 1
0 -133 -171 -118 0 0 1 2 0 1 0 1
0 -133 -147 -118 0 0 1 2 0 1 0 1
phys
0 -133 -171 -122 0 0 1 2 0 1 0 1
0 -133 -147 -118 0 0 1 2 0 1 0 1
0 -133 -147 -122 0 0 1 2 0 1 0 1
phys
0 -109 -171 -118 0 0 1 2 0 1 0 1
0 -109 -171 -122 0 0 1 2 0 1 0 1
0 -109 -147 -122 0 0 1 2 0 1 0 1
phys
0 -109 -171 -118 0 0 1 2 0 1 0 1
0 -109 -147 -122 0 0 1 2 0 1 0 1
0 -109 -147 -118 0 0 1 2 0 1 0 1
phys
0 -109 -171 -122 0 0 1 2 0 1 0 1
0 -133 -171 -122 0 0 1 2 0 1 0 1
0 -133 -147 -122 0 0 1 2 0 1 0 1
phys
0 -109 -171 -122 0 0 1 2 0 1 0 1
0 -133 -147 -122 0 0 1 2 0 1 0 1
0 -109 -147 -122 0 0 1 2 0 1 0 1
phys
0 -133 -171 -118 0 0 1 2 0 1 0 1
0 -109 -171 -118 0 0 1 2 0 1 0 1
0 -109 -147 -118 0 0 1 2 0 1 0 1
phys
0 -133 -171 -118 0 0 1 2 0 1 0 1
0 -109 -147 -118 0 0 1 2 0 1 0 1
0 -133 -147 -118 0 0 1 2 0 1 0 1
phys
0 5 230 13 0 0 1 3 0 1 0 1
0 5 230 -13 0 0 1 3 0 1 0 1
0 2 230 -13 0 0 1 3 0 1 0 1
phys
0 5 230 13 0 0 1 3 0 1 0 1
0 2 230 -13 0 0 1 3 0 1 0 1
0 -5 230 13 0 0 1 3 0 1 0 1
phys
0 5 -229 -13 0 0 1 3 0 1 0 1
0 5 -229 13 0 0 1 3 0 1 0 1
0 -5 -229 13 0 0 1 3 0 1 0 1
phys
0 5 -229 -13 0 0 1 3 0 1 0 1
0 -5 -229 13 0 0 1 3 0 1 0 1
0 2 -229 -13 0 0 1 3 0 1 0 1
phys
0 5 -229 13 0 0 1 3 0 1 0 1
0 5 -229 -13 0 0 1 3 0 1 0 1
0 5 230 -13 0 0 1 3 0 1 0 1
phys
0 5 -229 13 0 0 1 3 0 1 0 1
0 5 230 -13 0 0 1 3 0 1 0 1
0 5 230 13 0 0 1 3 0 1 0 1
phys
0 5 -229 -13 0 0 1 3 0 1 0 1
0 2 -229 -13 0 0 1 3 0 1 0 1
0 2 230 -13 0 0 1 3 0 1 0 1
phys
0 5 -229 -13 0 0 1 3 0 1 0 1
0 2 230 -13 0 0 1 3 0 1 0 1
0 5 230 -13 0 0 1 3 0 1 0 1
phys
0 -5 -229 13 0 0 1 3 0 1 0 1
0 5 -229 13 0 0 1 3 0 1 0 1
0 5 230 13 0 0 1 3 0 1 0 1
phys
0 -5 -229 13 0 0 1 3 0 1 0 1
0 5 230 13 0 0 1 3 0 1 0 1
0 -5 230 13 0 0 1 3 0 1 0 1
phys
0 2 -229 -13 0 0 1 3 0 1 0 1
0 -5 -229 13 0 0 1 3 0 1 0 1
0 -5 230 13 0 0 1 3 0 1 0 1
phys
0 2 -229 -13 0 0 1 3 0 1 0 1
0 -5 230 13 0 0 1 3 0 1 0 1
0 2 230 -13 0 0 1 3 0 1 0 1
phys
0 5 -147 -33 0 0 1 4 0 1 0 1
0 5 -147 -57 0 0 1 4 0 1 0 1
0 1 -147 -57 0 0 1 4 0 1 0 1
phys
0 5 -147 -33 0 0 1 4 0 1 0 1
0 1 -147 -57 0 0 1 4 0 1 0 1
0 1 -147 -33 0 0 1 4 0 1 0 1
phys
0 5 -171 -57 0 0 1 4 0 1 0 1
0 5 -171 -33 0 0 1 4 0 1 0 1
0 1 -171 -33 0 0 1 4 0 1 0 1
phys
0 5 -171 -57 0 0 1 4 0 1 0 1
0 1 -171 -33 0 0 1 4 0 1 0 1
0 1 -171 -57 0 0 1 4 0 1 0 1
phys
0 1 -171 -57 0 0 1 4 0 1 0 1
0 1 -171 -33 0 0 1 4 0 1 0 1
0 1 -147 -33 0 0 1 4 0 1 0 1
phys
0 1 -171 -57 0 0 1 4 0 1 0 1
0 1 -147 -33 0 0 1 4 0 1 0 1
0 1 -147 -57 0 0 1 4 0 1 0 1
phys
0 5 -171 -33 0 0 1 4 0 1 0 1
0 5 -171 -57 0 0 1 4 0 1 0 1
0 5 -147 -57 0 0 1 4 0 1 0 1
phys
0 5 -171 -33 0 0 1 4 0 1 0 1
0 5 -147 -57 0 0 1 4 0 1 0 1
0 5 -147 -33 0 0 1 4 0 1 0 1
phys
0 5 -171 -57 0 0 1 4 0 1 0 1
0 1 -171 -57 0 0 1 4 0 1 0 1
0 1 -147 -57 0 0 1 4 0 1 0 1
phys
0 5 -171 -57 0 0 1 4 0 1 0 1
0 1 -147 -57 0 0 1 4 0 1 0 1
0 5 -147 -57 0 0 1 4 0 1 0 1
phys
0 1 -171 -33 0 0 1 4 0 1 0 1
0 5 -171 -33 0 0 1 4 0 1 0 1
0 5 -147 -33 0 0 1 4 0 1 0 1
phys
0 1 -171 -33 0 0 1 4 0 1 0 1
0 5 -147 -33 0 0 1 4 0 1 0 1
0 1 -147 -33 0 0 1 4 0 1 0 1
phys
0 -109 154 -122 0 0 1 5 0 1 0 1
0 -133 154 -122 0 0 1 5 0 1 0 1
0 -133 178 -122 0 0 1 5 0 1 0 1
phys
0 -109 154 -122 0 0 1 5 0 1 0 1
0 -133 178 -122 0 0 1 5 0 1 0 1
0 -109 178 -122 0 0 1 5 0 1 0 1
phys
0 -133 154 -118 0 0 1 5 0 1 0 1
0 -109 154 -118 0 0 1 5 0 1 0 1
0 -109 178 -118 0 0 1 5 0 1 0 1
phys
0 -133 154 -118 0 0 1 5 0 1 0 1
0 -109 178 -118 0 0 1 5 0 1 0 1
0 -133 178 -118 0 0 1 5 0 1 0 1
phys
0 -109 178 -122 0 0 1 5 0 1 0 1
0 -133 178 -122 0 0 1 5 0 1 0 1
0 -133 178 -118 0 0 1 5 0 1 0 1
phys
0 -109 178 -122 0 0 1 5 0 1 0 1
0 -133 178 -118 0 0 1 5 0 1 0 1
0 -109 178 -118 0 0 1 5 0 1 0 1
phys
0 -109 154 -118 0 0 1 5 0 1 0 1
0 -133 154 -118 0 0 1 5 0 1 0 1
0 -133 154 -122 0 0 1 5 0 1 0 1
phys
0 -109 154 -118 0 0 1 5 0 1 0 1
0 -133 154 -122 0 0 1 5 0 1 0 1
0 -109 154 -122 0 0 1 5 0 1 0 1
phys
0 -133 154 -118 0 0 1 5 0 1 0 1
0 -133 178 -118 0 0 1 5 0 1 0 1
0 -133 178 -122 0 0 1 5 0 1 0 1
phys
0 -133 154 -118 0 0 1 5 0 1 0 1
0 -133 178 -122 0 0 1 5 0 1 0 1
0 -133 154 -122 0 0 1 5 0 1 0 1
phys
0 -109 154 -122 0 0 1 5 0 1 0 1
0 -109 178 -122 0 0 1 5 0 1 0 1
0 -109 178 -118 0 0 1 5 0 1 0 1
phys
0 -109 154 -122 0 0 1 5 0 1 0 1
0 -109 178 -118 0 0 1 5 0 1 0 1
0 -109 154 -118 0 0 1 5 0 1 0 1
phys
0 15 -85 -161 0 0 1 6 0 1 0 1
0 15 -85 -273 0 0 1 6 0 1 0 1
0 5 -85 -273 0 0 1 6 0 1 0 1
phys
0 15 -85 -161 0 0 1 6 0 1 0 1
0 5 -85 -273 0 0 1 6 0 1 0 1
0 5 -85 -161 0 0 1 6 0 1 0 1
phys
0 15 -89 -273 0 0 1 6 0 1 0 1
0 15 -89 -165 0 0 1 6 0 1 0 1
0 5 -89 -165 0 0 1 6 0 1 0 1
phys
0 15 -89 -273 0 0 1 6 0 1 0 1
0 5 -89 -165 0 0 1 6 0 1 0 1
0 5 -89 -273 0 0 1 6 0 1 0 1
phys
0 5 -89 -273 0 0 1 6 0 1 0 1
0 5 -89 -165 0 0 1 6 0 1 0 1
0 5 -85 -161 0 0 1 6 0 1 0 1
phys
0 5 -89 -273 0 0 1 6 0 1 0 1
0 5 -85 -161 0 0 1 6 0 1 0 1
0 5 -85 -273 0 0 1 6 0 1 0 1
phys
0 15 -89 -165 0 0 1 6 0 1 0 1
0 15 -89 -273 0 0 1 6 0 1 0 1
0 15 -85 -273 0 0 1 6 0 1 0 1
phys
0 15 -89 -165 0 0 1 6 0 1 0 1
0 15 -85 -273 0 0 1 6 0 1 0 1
0 15 -85 -161 0 0 1 6 0 1 0 1
phys
0 15 -89 -273 0 0 1 6 0 1 0 1
0 5 -89 -273 0 0 1 6 0 1 0 1
0 5 -85 -273 0 0 1 6 0 1 0 1
phys
0 15 -89 -273 0 0 1 6 0 1 0 1
0 5 -85 -273 0 0 1 6 0 1 0 1
0 15 -85 -273 0 0 1 6 0 1 0 1
phys
0 5 -89 -165 0 0 1 6 0 1 0 1
0 15 -89 -165 0 0 1 6 0 1 0 1
0 15 -85 -161 0 0 1 6 0 1 0 1
phys
0 5 -89 -165 0 0 1 6 0 1 0 1
0 15 -85 -161 0 0 1 6 0 1 0 1
0 5 -85 -161 0 0 1 6 0 1 0 1
phys
0 5 154 -57 0 0 1 7 0 1 0 1
0 1 154 -57 0 0 1 7 0 1 0 1
0 1 178 -57 0 0 1 7 0 1 0 1
phys
0 5 154 -57 0 0 1 7 0 1 0 1
0 1 178 -57 0 0 1 7 0 1 0 1
0 5 178 -57 0 0 1 7 0 1 0 1
phys
0 1 154 -33 0 0 1 7 0 1 0 1
0 5 154 -33 0 0 1 7 0 1 0 1
0 5 178 -33 0 0 1 7 0 1 0 1
phys
0 1 154 -33 0 0 1 7 0 1 0 1
0 5 178 -33 0 0 1 7 0 1 0 1
0 1 178 -33 0 0 1 7 0 1 0 1
phys
0 5 178 -57 0 0 1 7 0 1 0 1
0 1 178 -57 0 0 1 7 0 1 0 1
0 1 178 -33 0 0 1 7 0 1 0 1
phys
0 5 178 -57 0 0 1 7 0 1 0 1
0 1 178 -33 0 0 1 7 0 1 0 1
0 5 178 -33 0 0 1 7 0 1 0 1
phys
0 5 154 -33 0 0 1 7 0 1 0 1
0 1 154 -33 0 0 1 7 0 1 0 1
0 1 154 -57 0 0 1 7 0 1 0 1
phys
0 5 154 -33 0 0 1 7 0 1 0 1
0 1 154 -57 0 0 1 7 0 1 0 1
0 5 154 -57 0 0 1 7 0 1 0 1
phys
0 1 154 -33 0 0 1 7 0 1 0 1
0 1 178 -33 0 0 1 7 0 1 0 1
0 1 178 -57 0 0 1 7 0 1 0 1
phys
0 1 154 -33 0 0 1 7 0 1 0 1
0 1 178 -57 0 0 1 7 0 1 0 1
0 1 154 -57 0 0 1 7 0 1 0 1
phys
0 5 154 -57 0 0 1 7 0 1 0 1
0 5 178 -57 0 0 1 7 0 1 0 1
0 5 178 -33 0 0 1 7 0 1 0 1
phys
0 5 154 -57 0 0 1 7 0 1 0 1
0 5 178 -33 0 0 1 7 0 1 0 1
0 5 154 -33 0 0 1 7 0 1 0 1
phys
0 5 119 -246 0 0 1 8 0 1 0 1
0 -5 119 -246 0 0 1 8 0 1 0 1
0 -5 -71 -246 0 0 1 8 0 1 0 1
phys
0 5 119 -246 0 0 1 8 0 1 0 1
0 -5 -71 -246 0 0 1 8 0 1 0 1
0 5 -71 -246 0 0 1 8 0 1 0 1
phys
0 2 -71 -256 0 0 1 8 0 1 0 1
0 -5 -71 -248.999 0 0 1 8 0 1 0 1
0 -5 119 -248.999 0 0 1 8 0 1 0 1
phys
0 2 -71 -256 0 0 1 8 0 1 0 1
0 -5 119 -248.999 0 0 1 8 0 1 0 1
0 2 119 -256 0 0 1 8 0 1 0 1
phys
0 2 119 -256 0 0 1 8 0 1 0 1
0 -5 119 -248.999 0 0 1 8 0 1 0 1
0 -5 119 -246 0 0 1 8 0 1 0 1
phys
0 2 119 -256 0 0 1 8 0 1 0 1
0 -5 119 -246 0 0 1 8 0 1 0 1
0 5 119 -246 0 0 1 8 0 1 0 1
phys
0 2 119 -256 0 0 1 8 0 1 0 1
0 5 119 -246 0 0 1 8 0 1 0 1
0 5 119 -256 0 0 1 8 0 1 0 1
phys
0 5 -71 -246 0 0 1 8 0 1 0 1
0 -5 -71 -246 0 0 1 8 0 1 0 1
0 -5 -71 -248.999 0 0 1 8 0 1 0 1
phys
0 5 -71 -246 0 0 1 8 0 1 0 1
0 -5 -71 -248.999 0 0 1 8 0 1 0 1
0 2 -71 -256 0 0 1 8 0 1 0 1
phys
0 5 -71 -246 0 0 1 8 0 1 0 1
0 2 -71 -256 0 0 1 8 0 1 0 1
0 5 -71 -256 0 0 1 8 0 1 0 1
phys
0 -5 -71 -246 0 0 1 8 0 1 0 1
0 -5 119 -246 0 0 1 8 0 1 0 1
0 -5 119 -248.999 0 0 1 8 0 1 0 1
phys
0 -5 -71 -246 0 0 1 8 0 1 0 1
0 -5 119 -248.999 0 0 1 8 0 1 0 1
0 -5 -71 -248.999 0 0 1 8 0 1 0 1
phys
0 5 119 -256 0 0 1 8 0 1 0 1
0 5 119 -246 0 0 1 8 0 1 0 1
0 5 -71 -246 0 0 1 8 0 1 0 1
phys
0 5 119 -256 0 0 1 8 0 1 0 1
0 5 -71 -246 0 0 1 8 0 1 0 1
0 5 -71 -256 0 0 1 8 0 1 0 1
phys
0 5 -71 -256 0 0 1 8 0 1 0 1
0 2 -71 -256 0 0 1 8 0 1 0 1
0 2 119 -256 0 0 1 8 0 1 0 1
phys
0 5 -71 -256 0 0 1 8 0 1 0 1
0 2 119 -256 0 0 1 8 0 1 0 1
0 5 119 -256 0 0 1 8 0 1 0 1
phys
0 5 -141 -161 0 0 1 9 0 1 0 1
0 5 -85 -161 0 0 1 9 0 1 0 1
0 5 -89 -165 0 0 1 9 0 1 0 1
phys
0 5 -141 -161 0 0 1 9 0 1 0 1
0 5 -89 -165 0 0 1 9 0 1 0 1
0 5 -137 -165 0 0 1 9 0 1 0 1
phys
0 15 -137 -165 0 0 1 9 0 1 0 1
0 15 -89 -165 0 0 1 9 0 1 0 1
0 15 -85 -161 0 0 1 9 0 1 0 1
phys
0 15 -137 -165 0 0 1 9 0 1 0 1
0 15 -85 -161 0 0 1 9 0 1 0 1
0 15 -141 -161 0 0 1 9 0 1 0 1
phys
0 5 -137 -165 0 0 1 9 0 1 0 1
0 5 -89 -165 0 0 1 9 0 1 0 1
0 15 -89 -165 0 0 1 9 0 1 0 1
phys
0 5 -137 -165 0 0 1 9 0 1 0 1
0 15 -89 -165 0 0 1 9 0 1 0 1
0 15 -137 -165 0 0 1 9 0 1 0 1
phys
0 15 -141 -161 0 0 1 9 0 1 0 1
0 15 -85 -161 0 0 1 9 0 1 0 1
0 5 -85 -161 0 0 1 9 0 1 0 1
phys
0 15 -141 -161 0 0 1 9 0 1 0 1
0 5 -85 -161 0 0 1 9 0 1 0 1
0 5 -141 -161 0 0 1 9 0 1 0 1
phys
0 5 -89 -165 0 0 1 9 0 1 0 1
0 5 -85 -161 0 0 1 9 0 1 0 1
0 15 -85 -161 0 0 1 9 0 1 0 1
phys
0 5 -89 -165 0 0 1 9 0 1 0 1
0 15 -85 -161 0 0 1 9 0 1 0 1
0 15 -89 -165 0 0 1 9 0 1 0 1
phys
0 5 -141 -161 0 0 1 9 0 1 0 1
0 5 -137 -165 0 0 1 9 0 1 0 1
0 15 -137 -165 0 0 1 9 0 1 0 1
phys
0 5 -141 -161 0 0 1 9 0 1 0 1
0 15 -137 -165 0 0 1 9 0 1 0 1
0 15 -141 -161 0 0 1 9 0 1 0 1
phys
0 15 -137 -165 0 0 1 10 0 1 0 1
0 15 -137 -273 0 0 1 10 0 1 0 1
0 5 -137 -273 0 0 1 10 0 1 0 1
phys
0 15 -137 -165 0 0 1 10 0 1 0 1
0 5 -137 -273 0 0 1 10 0 1 0 1
0 5 -137 -165 0 0 1 10 0 1 0 1
phys
0 15 -141 -273 0 0 1 10 0 1 0 1
0 15 -141 -161 0 0 1 10 0 1 0 1
0 5 -141 -161 0 0 1 10 0 1 0 1
phys
0 15 -141 -273 0 0 1 10 0 1 0 1
0 5 -141 -161 0 0 1 10 0 1 0 1
0 5 -141 -273 0 0 1 10 0 1 0 1
phys
0 5 -141 -273 0 0 1 10 0 1 0 1
0 5 -141 -161 0 0 1 10 0 1 0 1
0 5 -137 -165 0 0 1 10 0 1 0 1
phys
0 5 -141 -273 0 0 1 10 0 1 0 1
0 5 -137 -165 0 0 1 10 0 1 0 1
0 5 -137 -273 0 0 1 10 0 1 0 1
phys
0 15 -141 -161 0 0 1 10 0 1 0 1
0 15 -141 -273 0 0 1 10 0 1 0 1
0 15 -137 -273 0 0 1 10 0 1 0 1
phys
0 15 -141 -161 0 0 1 10 0 1 0 1
0 15 -137 -273 0 0 1 10 0 1 0 1
0 15 -137 -165 0 0 1 10 0 1 0 1
phys
0 15 -141 -273 0 0 1 10 0 1 0 1
0 5 -141 -273 0 0 1 10 0 1 0 1
0 5 -137 -273 0 0 1 10 0 1 0 1
phys
0 15 -141 -273 0 0 1 10 0 1 0 1
0 5 -137 -273 0 0 1 10 0 1 0 1
0 15 -137 -273 0 0 1 10 0 1 0 1
phys
0 5 -141 -161 0 0 1 10 0 1 0 1
0 15 -141 -161 0 0 1 10 0 1 0 1
0 15 -137 -165 0 0 1 10 0 1 0 1
phys
0 5 -141 -161 0 0 1 10 0 1 0 1
0 15 -137 -165 0 0 1 10 0 1 0 1
0 5 -137 -165 0 0 1 10 0 1 0 1
phys
0 -124 -160.699 -118 0 0 1 11 0 1 0 1
0 -124 -158 -118 0 0 1 11 0 1 0 1
0 -123 -158 -118 0 0 1 11 0 1 0 1
phys
0 -124 -160.699 -118 0 0 1 11 0 1 0 1
0 -123 -158 -118 0 0 1 11 0 1 0 1
0 -123 -160.699 -118 0 0 1 11 0 1 0 1
phys
0 1 -158 -44.001 0 0 1 11 0 1 0 1
0 -124 -158 -118 0 0 1 11 0 1 0 1
0 -124 -160.699 -118 0 0 1 11 0 1 0 1
phys
0 1 -158 -44.001 0 0 1 11 0 1 0 1
0 -124 -160.699 -118 0 0 1 11 0 1 0 1
0 1 -160.699 -44.001 0 0 1 11 0 1 0 1
phys
0 1 -160.699 -45 0 0 1 11 0 1 0 1
0 -123 -160.699 -118 0 0 1 11 0 1 0 1
0 -123 -158 -118 0 0 1 11 0 1 0 1
phys
0 1 -160.699 -45 0 0 1 11 0 1 0 1
0 -123 -158 -118 0 0 1 11 0 1 0 1
0 1 -158 -45 0 0 1 11 0 1 0 1
phys
0 1 -158 -45 0 0 1 11 0 1 0 1
0 -123 -158 -118 0 0 1 11 0 1 0 1
0 -124 -158 -118 0 0 1 11 0 1 0 1
phys
0 1 -158 -45 0 0 1 11 0 1 0 1
0 -124 -158 -118 0 0 1 11 0 1 0 1
0 1 -158 -44.001 0 0 1 11 0 1 0 1
phys
0 1 -160.699 -44.001 0 0 1 11 0 1 0 1
0 -124 -160.699 -118 0 0 1 11 0 1 0 1
0 -123 -160.699 -118 0 0 1 11 0 1 0 1
phys
0 1 -160.699 -44.001 0 0 1 11 0 1 0 1
0 -123 -160.699 -118 0 0 1 11 0 1 0 1
0 1 -160.699 -45 0 0 1 11 0 1 0 1
phys
0 1 -160.699 -45 0 0 1 11 0 1 0 1
0 1 -158 -45 0 0 1 11 0 1 0 1
0 1 -158 -44.001 0 0 1 11 0 1 0 1
phys
0 1 -160.699 -45 0 0 1 11 0 1 0 1
0 1 -158 -44.001 0 0 1 11 0 1 0 1
0 1 -160.699 -44.001 0 0 1 11 0 1 0 1
end
