version 1
nodes
0 "root" -1
end
skeleton
time 0
0 0 0 0 0 0 0
end
triangles
phys
0 193 -53 -376 0 0 1 1 0 1 0 1
0 193 -53 -328 0 0 1 1 0 1 0 1
0 177 -53 -328 0 0 1 1 0 1 0 1
phys
0 193 -53 -376 0 0 1 1 0 1 0 1
0 177 -53 -328 0 0 1 1 0 1 0 1
0 177 -53 -376 0 0 1 1 0 1 0 1
phys
0 177 -53 -376 0 0 1 1 0 1 0 1
0 177 -53 -328 0 0 1 1 0 1 0 1
0 177 69 -328 0 0 1 1 0 1 0 1
phys
0 177 -53 -376 0 0 1 1 0 1 0 1
0 177 69 -328 0 0 1 1 0 1 0 1
0 177 69 -376 0 0 1 1 0 1 0 1
phys
0 193 -53 -328 0 0 1 1 0 1 0 1
0 193 -53 -376 0 0 1 1 0 1 0 1
0 193 69 -376 0 0 1 1 0 1 0 1
phys
0 193 -53 -328 0 0 1 1 0 1 0 1
0 193 69 -376 0 0 1 1 0 1 0 1
0 193 69 -328 0 0 1 1 0 1 0 1
phys
0 193 -53 -376 0 0 1 1 0 1 0 1
0 177 -53 -376 0 0 1 1 0 1 0 1
0 177 69 -376 0 0 1 1 0 1 0 1
phys
0 193 -53 -376 0 0 1 1 0 1 0 1
0 177 69 -376 0 0 1 1 0 1 0 1
0 193 69 -376 0 0 1 1 0 1 0 1
phys
0 177 -53 -328 0 0 1 1 0 1 0 1
0 193 -53 -328 0 0 1 1 0 1 0 1
0 193 69 -328 0 0 1 1 0 1 0 1
phys
0 177 -53 -328 0 0 1 1 0 1 0 1
0 193 69 -328 0 0 1 1 0 1 0 1
0 177 69 -328 0 0 1 1 0 1 0 1
phys
0 193 69 -328 0 0 1 1 0 1 0 1
0 193 69 -376 0 0 1 1 0 1 0 1
0 177 69 -376 0 0 1 1 0 1 0 1
phys
0 193 69 -328 0 0 1 1 0 1 0 1
0 177 69 -376 0 0 1 1 0 1 0 1
0 177 69 -328 0 0 1 1 0 1 0 1
phys
0 209 69 -344 0 0 1 2 0 1 0 1
0 209 69 -376 0 0 1 2 0 1 0 1
0 193 69 -376 0 0 1 2 0 1 0 1
phys
0 209 69 -344 0 0 1 2 0 1 0 1
0 193 69 -376 0 0 1 2 0 1 0 1
0 193 69 -344 0 0 1 2 0 1 0 1
phys
0 209 -53 -376 0 0 1 2 0 1 0 1
0 209 -53 -344 0 0 1 2 0 1 0 1
0 193 -53 -344 0 0 1 2 0 1 0 1
phys
0 209 -53 -376 0 0 1 2 0 1 0 1
0 193 -53 -344 0 0 1 2 0 1 0 1
0 193 -53 -376 0 0 1 2 0 1 0 1
phys
0 193 -53 -376 0 0 1 2 0 1 0 1
0 193 -53 -344 0 0 1 2 0 1 0 1
0 193 69 -344 0 0 1 2 0 1 0 1
phys
0 193 -53 -376 0 0 1 2 0 1 0 1
0 193 69 -344 0 0 1 2 0 1 0 1
0 193 69 -376 0 0 1 2 0 1 0 1
phys
0 209 -53 -344 0 0 1 2 0 1 0 1
0 209 -53 -376 0 0 1 2 0 1 0 1
0 209 69 -376 0 0 1 2 0 1 0 1
phys
0 209 -53 -344 0 0 1 2 0 1 0 1
0 209 69 -376 0 0 1 2 0 1 0 1
0 209 69 -344 0 0 1 2 0 1 0 1
phys
0 209 -53 -376 0 0 1 2 0 1 0 1
0 193 -53 -376 0 0 1 2 0 1 0 1
0 193 69 -376 0 0 1 2 0 1 0 1
phys
0 209 -53 -376 0 0 1 2 0 1 0 1
0 193 69 -376 0 0 1 2 0 1 0 1
0 209 69 -376 0 0 1 2 0 1 0 1
phys
0 193 -53 -344 0 0 1 2 0 1 0 1
0 209 -53 -344 0 0 1 2 0 1 0 1
0 209 69 -344 0 0 1 2 0 1 0 1
phys
0 193 -53 -344 0 0 1 2 0 1 0 1
0 209 69 -344 0 0 1 2 0 1 0 1
0 193 69 -344 0 0 1 2 0 1 0 1
phys
0 209 -53 -360 0 0 1 3 0 1 0 1
0 225 -53 -360 0 0 1 3 0 1 0 1
0 225 69 -360 0 0 1 3 0 1 0 1
phys
0 209 -53 -360 0 0 1 3 0 1 0 1
0 225 69 -360 0 0 1 3 0 1 0 1
0 209 69 -360 0 0 1 3 0 1 0 1
phys
0 209 69 -376 0 0 1 3 0 1 0 1
0 209 69 -360 0 0 1 3 0 1 0 1
0 225 69 -360 0 0 1 3 0 1 0 1
phys
0 209 69 -376 0 0 1 3 0 1 0 1
0 225 69 -360 0 0 1 3 0 1 0 1
0 225 69 -376 0 0 1 3 0 1 0 1
phys
0 225 -53 -376 0 0 1 3 0 1 0 1
0 225 -53 -360 0 0 1 3 0 1 0 1
0 209 -53 -360 0 0 1 3 0 1 0 1
phys
0 225 -53 -376 0 0 1 3 0 1 0 1
0 209 -53 -360 0 0 1 3 0 1 0 1
0 209 -53 -376 0 0 1 3 0 1 0 1
phys
0 209 -53 -376 0 0 1 3 0 1 0 1
0 209 -53 -360 0 0 1 3 0 1 0 1
0 209 69 -360 0 0 1 3 0 1 0 1
phys
0 209 -53 -376 0 0 1 3 0 1 0 1
0 209 69 -360 0 0 1 3 0 1 0 1
0 209 69 -376 0 0 1 3 0 1 0 1
phys
0 225 69 -376 0 0 1 3 0 1 0 1
0 225 69 -360 0 0 1 3 0 1 0 1
0 225 -53 -360 0 0 1 3 0 1 0 1
phys
0 225 69 -376 0 0 1 3 0 1 0 1
0 225 -53 -360 0 0 1 3 0 1 0 1
0 225 -53 -376 0 0 1 3 0 1 0 1
phys
0 225 -53 -376 0 0 1 3 0 1 0 1
0 209 -53 -376 0 0 1 3 0 1 0 1
0 209 69 -376 0 0 1 3 0 1 0 1
phys
0 225 -53 -376 0 0 1 3 0 1 0 1
0 209 69 -376 0 0 1 3 0 1 0 1
0 225 69 -376 0 0 1 3 0 1 0 1
phys
0 225 -53 -28 0 0 1 4 0 1 0 1
0 225 -11.17 -32.5014 0 0 1 4 0 1 0 1
0 225 52.8 -4.00004 0 0 1 4 0 1 0 1
phys
0 225 -53 -28 0 0 1 4 0 1 0 1
0 225 52.8 -4.00004 0 0 1 4 0 1 0 1
0 225 -53 32 0 0 1 4 0 1 0 1
phys
0 -225 -53 32 0 0 1 4 0 1 0 1
0 225 -53 32 0 0 1 4 0 1 0 1
0 225 52.8 -4.00004 0 0 1 4 0 1 0 1
phys
0 -225 -53 32 0 0 1 4 0 1 0 1
0 225 52.8 -4.00004 0 0 1 4 0 1 0 1
0 -225 52.8 -4.00004 0 0 1 4 0 1 0 1
phys
0 -225 -11.17 -32.5014 0 0 1 4 0 1 0 1
0 225 -11.17 -32.5014 0 0 1 4 0 1 0 1
0 225 -53 -28 0 0 1 4 0 1 0 1
phys
0 -225 -11.17 -32.5014 0 0 1 4 0 1 0 1
0 225 -53 -28 0 0 1 4 0 1 0 1
0 -225 -53 -28 0 0 1 4 0 1 0 1
phys
0 -225 52.8 -4.00004 0 0 1 4 0 1 0 1
0 225 52.8 -4.00004 0 0 1 4 0 1 0 1
0 225 -11.17 -32.5014 0 0 1 4 0 1 0 1
phys
0 -225 52.8 -4.00004 0 0 1 4 0 1 0 1
0 225 -11.17 -32.5014 0 0 1 4 0 1 0 1
0 -225 -11.17 -32.5014 0 0 1 4 0 1 0 1
phys
0 225 -53 -28 0 0 1 4 0 1 0 1
0 225 -53 32 0 0 1 4 0 1 0 1
0 -225 -53 32 0 0 1 4 0 1 0 1
phys
0 225 -53 -28 0 0 1 4 0 1 0 1
0 -225 -53 32 0 0 1 4 0 1 0 1
0 -225 -53 -28 0 0 1 4 0 1 0 1
phys
0 -225 -53 32 0 0 1 4 0 1 0 1
0 -225 52.8 -4.00004 0 0 1 4 0 1 0 1
0 -225 -11.17 -32.5014 0 0 1 4 0 1 0 1
phys
0 -225 -53 32 0 0 1 4 0 1 0 1
0 -225 -11.17 -32.5014 0 0 1 4 0 1 0 1
0 -225 -53 -28 0 0 1 4 0 1 0 1
phys
0 268 -409 -366 0 0 1 5 0 1 0 1
0 268 -409 -258.003 0 0 1 5 0 1 0 1
0 264 -409 -254.003 0 0 1 5 0 1 0 1
phys
0 268 -409 -366 0 0 1 5 0 1 0 1
0 264 -409 -254.003 0 0 1 5 0 1 0 1
0 264 -409 -366 0 0 1 5 0 1 0 1
phys
0 264 -409 -366 0 0 1 5 0 1 0 1
0 264 -409 -254.003 0 0 1 5 0 1 0 1
0 264 -399 -254.003 0 0 1 5 0 1 0 1
phys
0 264 -409 -366 0 0 1 5 0 1 0 1
0 264 -399 -254.003 0 0 1 5 0 1 0 1
0 264 -399 -366 0 0 1 5 0 1 0 1
phys
0 268 -409 -258.003 0 0 1 5 0 1 0 1
0 268 -409 -366 0 0 1 5 0 1 0 1
0 268 -399 -366 0 0 1 5 0 1 0 1
phys
0 268 -409 -258.003 0 0 1 5 0 1 0 1
0 268 -399 -366 0 0 1 5 0 1 0 1
0 268 -399 -258.003 0 0 1 5 0 1 0 1
phys
0 268 -409 -366 0 0 1 5 0 1 0 1
0 264 -409 -366 0 0 1 5 0 1 0 1
0 264 -399 -366 0 0 1 5 0 1 0 1
phys
0 268 -409 -366 0 0 1 5 0 1 0 1
0 264 -399 -366 0 0 1 5 0 1 0 1
0 268 -399 -366 0 0 1 5 0 1 0 1
phys
0 264 -409 -254.003 0 0 1 5 0 1 0 1
0 268 -409 -258.003 0 0 1 5 0 1 0 1
0 268 -399 -258.003 0 0 1 5 0 1 0 1
phys
0 264 -409 -254.003 0 0 1 5 0 1 0 1
0 268 -399 -258.003 0 0 1 5 0 1 0 1
0 264 -399 -254.003 0 0 1 5 0 1 0 1
phys
0 268 -399 -258.003 0 0 1 5 0 1 0 1
0 268 -399 -366 0 0 1 5 0 1 0 1
0 264 -399 -366 0 0 1 5 0 1 0 1
phys
0 268 -399 -258.003 0 0 1 5 0 1 0 1
0 264 -399 -366 0 0 1 5 0 1 0 1
0 264 -399 -254.003 0 0 1 5 0 1 0 1
phys
0 245 -127 -371 0 0 1 6 0 1 0 1
0 245 -127 -376 0 0 1 6 0 1 0 1
0 237 -127 -376 0 0 1 6 0 1 0 1
phys
0 245 -127 -371 0 0 1 6 0 1 0 1
0 237 -127 -376 0 0 1 6 0 1 0 1
0 237 -127 -371 0 0 1 6 0 1 0 1
phys
0 245 -379 -376 0 0 1 6 0 1 0 1
0 245 -379 -371 0 0 1 6 0 1 0 1
0 237 -379 -371 0 0 1 6 0 1 0 1
phys
0 245 -379 -376 0 0 1 6 0 1 0 1
0 237 -379 -371 0 0 1 6 0 1 0 1
0 237 -379 -376 0 0 1 6 0 1 0 1
phys
0 237 -379 -376 0 0 1 6 0 1 0 1
0 237 -379 -371 0 0 1 6 0 1 0 1
0 237 -127 -371 0 0 1 6 0 1 0 1
phys
0 237 -379 -376 0 0 1 6 0 1 0 1
0 237 -127 -371 0 0 1 6 0 1 0 1
0 237 -127 -376 0 0 1 6 0 1 0 1
phys
0 245 -379 -371 0 0 1 6 0 1 0 1
0 245 -379 -376 0 0 1 6 0 1 0 1
0 245 -127 -376 0 0 1 6 0 1 0 1
phys
0 245 -379 -371 0 0 1 6 0 1 0 1
0 245 -127 -376 0 0 1 6 0 1 0 1
0 245 -127 -371 0 0 1 6 0 1 0 1
phys
0 245 -379 -376 0 0 1 6 0 1 0 1
0 237 -379 -376 0 0 1 6 0 1 0 1
0 237 -127 -376 0 0 1 6 0 1 0 1
phys
0 245 -379 -376 0 0 1 6 0 1 0 1
0 237 -127 -376 0 0 1 6 0 1 0 1
0 245 -127 -376 0 0 1 6 0 1 0 1
phys
0 237 -379 -371 0 0 1 6 0 1 0 1
0 245 -379 -371 0 0 1 6 0 1 0 1
0 245 -127 -371 0 0 1 6 0 1 0 1
phys
0 237 -379 -371 0 0 1 6 0 1 0 1
0 245 -127 -371 0 0 1 6 0 1 0 1
0 237 -127 -371 0 0 1 6 0 1 0 1
phys
0 161 73 -275.001 0 0 1 7 0 1 0 1
0 224.99827 73 -312 0 0 1 7 0 1 0 1
0 225 73.001 -312 0 0 1 7 0 1 0 1
phys
0 161 73 -275.001 0 0 1 7 0 1 0 1
0 225 73.001 -312 0 0 1 7 0 1 0 1
0 225 74.999 -310.001 0 0 1 7 0 1 0 1
phys
0 161 73 -275.001 0 0 1 7 0 1 0 1
0 225 74.999 -310.001 0 0 1 7 0 1 0 1
0 161 74.999 -273.001 0 0 1 7 0 1 0 1
phys
0 161 77.001 -273.001 0 0 1 7 0 1 0 1
0 225 77.001 -310.001 0 0 1 7 0 1 0 1
0 225 79 -312 0 0 1 7 0 1 0 1
phys
0 161 77.001 -273.001 0 0 1 7 0 1 0 1
0 225 79 -312 0 0 1 7 0 1 0 1
0 161 79 -275 0 0 1 7 0 1 0 1
phys
0 161 74.999 -273.001 0 0 1 7 0 1 0 1
0 225 74.999 -310.001 0 0 1 7 0 1 0 1
0 225 77.001 -310.001 0 0 1 7 0 1 0 1
phys
0 161 74.999 -273.001 0 0 1 7 0 1 0 1
0 225 77.001 -310.001 0 0 1 7 0 1 0 1
0 161 77.001 -273.001 0 0 1 7 0 1 0 1
phys
0 225 79 -312 0 0 1 7 0 1 0 1
0 225 79 -312 0 0 1 7 0 1 0 1
0 161 79 -275 0 0 1 7 0 1 0 1
phys
0 225 79 -312 0 0 1 7 0 1 0 1
0 161 79 -275 0 0 1 7 0 1 0 1
0 161 79 -312 0 0 1 7 0 1 0 1
phys
0 224.99827 73 -312 0 0 1 7 0 1 0 1
0 161 73 -275.001 0 0 1 7 0 1 0 1
0 161 73 -312 0 0 1 7 0 1 0 1
phys
0 161 73 -312 0 0 1 7 0 1 0 1
0 161 73 -275.001 0 0 1 7 0 1 0 1
0 161 74.999 -273.001 0 0 1 7 0 1 0 1
phys
0 161 73 -312 0 0 1 7 0 1 0 1
0 161 74.999 -273.001 0 0 1 7 0 1 0 1
0 161 77.001 -273.001 0 0 1 7 0 1 0 1
phys
0 161 73 -312 0 0 1 7 0 1 0 1
0 161 77.001 -273.001 0 0 1 7 0 1 0 1
0 161 79 -275 0 0 1 7 0 1 0 1
phys
0 161 73 -312 0 0 1 7 0 1 0 1
0 161 79 -275 0 0 1 7 0 1 0 1
0 161 79 -312 0 0 1 7 0 1 0 1
phys
0 225 74.999 -310.001 0 0 1 7 0 1 0 1
0 225 73.001 -312 0 0 1 7 0 1 0 1
0 225 79 -312 0 0 1 7 0 1 0 1
phys
0 225 74.999 -310.001 0 0 1 7 0 1 0 1
0 225 79 -312 0 0 1 7 0 1 0 1
0 225 79 -312 0 0 1 7 0 1 0 1
phys
0 225 74.999 -310.001 0 0 1 7 0 1 0 1
0 225 79 -312 0 0 1 7 0 1 0 1
0 225 77.001 -310.001 0 0 1 7 0 1 0 1
phys
0 225 79 -312 0 0 1 7 0 1 0 1
0 225 79 -312 0 0 1 7 0 1 0 1
0 161 79 -312 0 0 1 7 0 1 0 1
phys
0 225 79 -312 0 0 1 7 0 1 0 1
0 161 79 -312 0 0 1 7 0 1 0 1
0 161 73 -312 0 0 1 7 0 1 0 1
phys
0 225 79 -312 0 0 1 7 0 1 0 1
0 161 73 -312 0 0 1 7 0 1 0 1
0 224.99827 73 -312 0 0 1 7 0 1 0 1
phys
0 225 79 -312 0 0 1 7 0 1 0 1
0 224.99827 73 -312 0 0 1 7 0 1 0 1
0 225 73.001 -312 0 0 1 7 0 1 0 1
phys
0 245 -87 -331 0 0 1 8 0 1 0 1
0 245 -87 -376 0 0 1 8 0 1 0 1
0 225 -87 -376 0 0 1 8 0 1 0 1
phys
0 245 -87 -331 0 0 1 8 0 1 0 1
0 225 -87 -376 0 0 1 8 0 1 0 1
0 225 -87 -331 0 0 1 8 0 1 0 1
phys
0 245 -127 -376 0 0 1 8 0 1 0 1
0 245 -127 -331 0 0 1 8 0 1 0 1
0 225 -127 -331 0 0 1 8 0 1 0 1
phys
0 245 -127 -376 0 0 1 8 0 1 0 1
0 225 -127 -331 0 0 1 8 0 1 0 1
0 225 -127 -376 0 0 1 8 0 1 0 1
phys
0 225 -127 -376 0 0 1 8 0 1 0 1
0 225 -127 -331 0 0 1 8 0 1 0 1
0 225 -87 -331 0 0 1 8 0 1 0 1
phys
0 225 -127 -376 0 0 1 8 0 1 0 1
0 225 -87 -331 0 0 1 8 0 1 0 1
0 225 -87 -376 0 0 1 8 0 1 0 1
phys
0 245 -127 -331 0 0 1 8 0 1 0 1
0 245 -127 -376 0 0 1 8 0 1 0 1
0 245 -87 -376 0 0 1 8 0 1 0 1
phys
0 245 -127 -331 0 0 1 8 0 1 0 1
0 245 -87 -376 0 0 1 8 0 1 0 1
0 245 -87 -331 0 0 1 8 0 1 0 1
phys
0 245 -127 -376 0 0 1 8 0 1 0 1
0 225 -127 -376 0 0 1 8 0 1 0 1
0 225 -87 -376 0 0 1 8 0 1 0 1
phys
0 245 -127 -376 0 0 1 8 0 1 0 1
0 225 -87 -376 0 0 1 8 0 1 0 1
0 245 -87 -376 0 0 1 8 0 1 0 1
phys
0 225 -127 -331 0 0 1 8 0 1 0 1
0 245 -127 -331 0 0 1 8 0 1 0 1
0 245 -87 -331 0 0 1 8 0 1 0 1
phys
0 225 -127 -331 0 0 1 8 0 1 0 1
0 245 -87 -331 0 0 1 8 0 1 0 1
0 225 -87 -331 0 0 1 8 0 1 0 1
phys
0 177 69 -312 0 0 1 9 0 1 0 1
0 177 69 -376 0 0 1 9 0 1 0 1
0 161 69 -376 0 0 1 9 0 1 0 1
phys
0 177 69 -312 0 0 1 9 0 1 0 1
0 161 69 -376 0 0 1 9 0 1 0 1
0 161 69 -312 0 0 1 9 0 1 0 1
phys
0 177 -53 -376 0 0 1 9 0 1 0 1
0 177 -53 -312 0 0 1 9 0 1 0 1
0 161 -53 -312 0 0 1 9 0 1 0 1
phys
0 177 -53 -376 0 0 1 9 0 1 0 1
0 161 -53 -312 0 0 1 9 0 1 0 1
0 161 -53 -376 0 0 1 9 0 1 0 1
phys
0 161 -53 -376 0 0 1 9 0 1 0 1
0 161 -53 -312 0 0 1 9 0 1 0 1
0 161 69 -312 0 0 1 9 0 1 0 1
phys
0 161 -53 -376 0 0 1 9 0 1 0 1
0 161 69 -312 0 0 1 9 0 1 0 1
0 161 69 -376 0 0 1 9 0 1 0 1
phys
0 177 -53 -312 0 0 1 9 0 1 0 1
0 177 -53 -376 0 0 1 9 0 1 0 1
0 177 69 -376 0 0 1 9 0 1 0 1
phys
0 177 -53 -312 0 0 1 9 0 1 0 1
0 177 69 -376 0 0 1 9 0 1 0 1
0 177 69 -312 0 0 1 9 0 1 0 1
phys
0 177 -53 -376 0 0 1 9 0 1 0 1
0 161 -53 -376 0 0 1 9 0 1 0 1
0 161 69 -376 0 0 1 9 0 1 0 1
phys
0 177 -53 -376 0 0 1 9 0 1 0 1
0 161 69 -376 0 0 1 9 0 1 0 1
0 177 69 -376 0 0 1 9 0 1 0 1
phys
0 161 -53 -312 0 0 1 9 0 1 0 1
0 177 -53 -312 0 0 1 9 0 1 0 1
0 177 69 -312 0 0 1 9 0 1 0 1
phys
0 161 -53 -312 0 0 1 9 0 1 0 1
0 177 69 -312 0 0 1 9 0 1 0 1
0 161 69 -312 0 0 1 9 0 1 0 1
phys
0 245 -87 -226 0 0 1 10 0 1 0 1
0 245 -87 -327 0 0 1 10 0 1 0 1
0 225 -87 -327 0 0 1 10 0 1 0 1
phys
0 245 -87 -226 0 0 1 10 0 1 0 1
0 225 -87 -327 0 0 1 10 0 1 0 1
0 225 -87 -226 0 0 1 10 0 1 0 1
phys
0 245 -127 -327 0 0 1 10 0 1 0 1
0 245 -127 -226 0 0 1 10 0 1 0 1
0 225 -127 -226 0 0 1 10 0 1 0 1
phys
0 245 -127 -327 0 0 1 10 0 1 0 1
0 225 -127 -226 0 0 1 10 0 1 0 1
0 225 -127 -327 0 0 1 10 0 1 0 1
phys
0 225 -127 -327 0 0 1 10 0 1 0 1
0 225 -127 -226 0 0 1 10 0 1 0 1
0 225 -87 -226 0 0 1 10 0 1 0 1
phys
0 225 -127 -327 0 0 1 10 0 1 0 1
0 225 -87 -226 0 0 1 10 0 1 0 1
0 225 -87 -327 0 0 1 10 0 1 0 1
phys
0 245 -127 -226 0 0 1 10 0 1 0 1
0 245 -127 -327 0 0 1 10 0 1 0 1
0 245 -87 -327 0 0 1 10 0 1 0 1
phys
0 245 -127 -226 0 0 1 10 0 1 0 1
0 245 -87 -327 0 0 1 10 0 1 0 1
0 245 -87 -226 0 0 1 10 0 1 0 1
phys
0 245 -127 -327 0 0 1 10 0 1 0 1
0 225 -127 -327 0 0 1 10 0 1 0 1
0 225 -87 -327 0 0 1 10 0 1 0 1
phys
0 245 -127 -327 0 0 1 10 0 1 0 1
0 225 -87 -327 0 0 1 10 0 1 0 1
0 245 -87 -327 0 0 1 10 0 1 0 1
phys
0 225 -127 -226 0 0 1 10 0 1 0 1
0 245 -127 -226 0 0 1 10 0 1 0 1
0 245 -87 -226 0 0 1 10 0 1 0 1
phys
0 225 -127 -226 0 0 1 10 0 1 0 1
0 245 -87 -226 0 0 1 10 0 1 0 1
0 225 -87 -226 0 0 1 10 0 1 0 1
phys
0 227 -125 -327 0 0 1 11 0 1 0 1
0 243 -125 -327 0 0 1 11 0 1 0 1
0 243 -89 -327 0 0 1 11 0 1 0 1
phys
0 227 -125 -327 0 0 1 11 0 1 0 1
0 243 -89 -327 0 0 1 11 0 1 0 1
0 227 -89 -327 0 0 1 11 0 1 0 1
phys
0 227 -89 -331 0 0 1 11 0 1 0 1
0 227 -89 -327 0 0 1 11 0 1 0 1
0 243 -89 -327 0 0 1 11 0 1 0 1
phys
0 227 -89 -331 0 0 1 11 0 1 0 1
0 243 -89 -327 0 0 1 11 0 1 0 1
0 243 -89 -331 0 0 1 11 0 1 0 1
phys
0 243 -125 -331 0 0 1 11 0 1 0 1
0 243 -125 -327 0 0 1 11 0 1 0 1
0 227 -125 -327 0 0 1 11 0 1 0 1
phys
0 243 -125 -331 0 0 1 11 0 1 0 1
0 227 -125 -327 0 0 1 11 0 1 0 1
0 227 -125 -331 0 0 1 11 0 1 0 1
phys
0 227 -125 -331 0 0 1 11 0 1 0 1
0 227 -125 -327 0 0 1 11 0 1 0 1
0 227 -89 -327 0 0 1 11 0 1 0 1
phys
0 227 -125 -331 0 0 1 11 0 1 0 1
0 227 -89 -327 0 0 1 11 0 1 0 1
0 227 -89 -331 0 0 1 11 0 1 0 1
phys
0 243 -89 -331 0 0 1 11 0 1 0 1
0 243 -89 -327 0 0 1 11 0 1 0 1
0 243 -125 -327 0 0 1 11 0 1 0 1
phys
0 243 -89 -331 0 0 1 11 0 1 0 1
0 243 -125 -327 0 0 1 11 0 1 0 1
0 243 -125 -331 0 0 1 11 0 1 0 1
phys
0 243 -125 -331 0 0 1 11 0 1 0 1
0 227 -125 -331 0 0 1 11 0 1 0 1
0 227 -89 -331 0 0 1 11 0 1 0 1
phys
0 243 -125 -331 0 0 1 11 0 1 0 1
0 227 -89 -331 0 0 1 11 0 1 0 1
0 243 -89 -331 0 0 1 11 0 1 0 1
phys
0 -225 -53 -28 0 0 1 12 0 1 0 1
0 225 -53 -28 0 0 1 12 0 1 0 1
0 225 -11.17 -32.5007 0 0 1 12 0 1 0 1
phys
0 -225 -53 -28 0 0 1 12 0 1 0 1
0 225 -11.17 -32.5007 0 0 1 12 0 1 0 1
0 -225 -11.17 -32.5007 0 0 1 12 0 1 0 1
phys
0 225 -53 -80 0 0 1 12 0 1 0 1
0 -225 -53 -80 0 0 1 12 0 1 0 1
0 -225 -11.17 -32.5007 0 0 1 12 0 1 0 1
phys
0 225 -53 -80 0 0 1 12 0 1 0 1
0 -225 -11.17 -32.5007 0 0 1 12 0 1 0 1
0 225 -11.17 -32.5007 0 0 1 12 0 1 0 1
phys
0 225 -53 -28 0 0 1 12 0 1 0 1
0 -225 -53 -28 0 0 1 12 0 1 0 1
0 -225 -53 -80 0 0 1 12 0 1 0 1
phys
0 225 -53 -28 0 0 1 12 0 1 0 1
0 -225 -53 -80 0 0 1 12 0 1 0 1
0 225 -53 -80 0 0 1 12 0 1 0 1
phys
0 -225 -53 -28 0 0 1 12 0 1 0 1
0 -225 -11.17 -32.5007 0 0 1 12 0 1 0 1
0 -225 -53 -80 0 0 1 12 0 1 0 1
phys
0 225 -53 -80 0 0 1 12 0 1 0 1
0 225 -11.17 -32.5007 0 0 1 12 0 1 0 1
0 225 -53 -28 0 0 1 12 0 1 0 1
phys
0 225 -379 -226 0 0 1 13 0 1 0 1
0 225 -127 -226 0 0 1 13 0 1 0 1
0 225 -127 -242.003 0 0 1 13 0 1 0 1
phys
0 225 -379 -226 0 0 1 13 0 1 0 1
0 225 -127 -242.003 0 0 1 13 0 1 0 1
0 225 -379 -242.003 0 0 1 13 0 1 0 1
phys
0 245 -379 -241.997 0 0 1 13 0 1 0 1
0 245 -127 -241.997 0 0 1 13 0 1 0 1
0 245 -127 -226 0 0 1 13 0 1 0 1
phys
0 245 -379 -241.997 0 0 1 13 0 1 0 1
0 245 -127 -226 0 0 1 13 0 1 0 1
0 245 -379 -226 0 0 1 13 0 1 0 1
phys
0 229 -379 -246 0 0 1 13 0 1 0 1
0 229 -127 -246 0 0 1 13 0 1 0 1
0 241 -127 -246 0 0 1 13 0 1 0 1
phys
0 229 -379 -246 0 0 1 13 0 1 0 1
0 241 -127 -246 0 0 1 13 0 1 0 1
0 241 -379 -246 0 0 1 13 0 1 0 1
phys
0 245 -379 -226 0 0 1 13 0 1 0 1
0 245 -127 -226 0 0 1 13 0 1 0 1
0 225 -127 -226 0 0 1 13 0 1 0 1
phys
0 245 -379 -226 0 0 1 13 0 1 0 1
0 225 -127 -226 0 0 1 13 0 1 0 1
0 225 -379 -226 0 0 1 13 0 1 0 1
phys
0 225 -379 -242.003 0 0 1 13 0 1 0 1
0 225 -127 -242.003 0 0 1 13 0 1 0 1
0 229 -127 -246 0 0 1 13 0 1 0 1
phys
0 225 -379 -242.003 0 0 1 13 0 1 0 1
0 229 -127 -246 0 0 1 13 0 1 0 1
0 229 -379 -246 0 0 1 13 0 1 0 1
phys
0 241 -379 -246 0 0 1 13 0 1 0 1
0 241 -127 -246 0 0 1 13 0 1 0 1
0 245 -127 -241.997 0 0 1 13 0 1 0 1
phys
0 241 -379 -246 0 0 1 13 0 1 0 1
0 245 -127 -241.997 0 0 1 13 0 1 0 1
0 245 -379 -241.997 0 0 1 13 0 1 0 1
phys
0 245 -127 -226 0 0 1 13 0 1 0 1
0 245 -127 -241.997 0 0 1 13 0 1 0 1
0 241 -127 -246 0 0 1 13 0 1 0 1
phys
0 245 -127 -226 0 0 1 13 0 1 0 1
0 241 -127 -246 0 0 1 13 0 1 0 1
0 229 -127 -246 0 0 1 13 0 1 0 1
phys
0 245 -127 -226 0 0 1 13 0 1 0 1
0 229 -127 -246 0 0 1 13 0 1 0 1
0 225 -127 -242.003 0 0 1 13 0 1 0 1
phys
0 245 -127 -226 0 0 1 13 0 1 0 1
0 225 -127 -242.003 0 0 1 13 0 1 0 1
0 225 -127 -226 0 0 1 13 0 1 0 1
phys
0 245 -379 -241.997 0 0 1 13 0 1 0 1
0 245 -379 -226 0 0 1 13 0 1 0 1
0 225 -379 -226 0 0 1 13 0 1 0 1
phys
0 245 -379 -241.997 0 0 1 13 0 1 0 1
0 225 -379 -226 0 0 1 13 0 1 0 1
0 225 -379 -242.003 0 0 1 13 0 1 0 1
phys
0 245 -379 -241.997 0 0 1 13 0 1 0 1
0 225 -379 -242.003 0 0 1 13 0 1 0 1
0 229 -379 -246 0 0 1 13 0 1 0 1
phys
0 245 -379 -241.997 0 0 1 13 0 1 0 1
0 229 -379 -246 0 0 1 13 0 1 0 1
0 241 -379 -246 0 0 1 13 0 1 0 1
phys
0 225 83 -312 0 0 1 14 0 1 0 1
0 225 83 -376 0 0 1 14 0 1 0 1
0 161 83 -376 0 0 1 14 0 1 0 1
phys
0 225 83 -312 0 0 1 14 0 1 0 1
0 161 83 -376 0 0 1 14 0 1 0 1
0 161 83 -312 0 0 1 14 0 1 0 1
phys
0 225 69 -376 0 0 1 14 0 1 0 1
0 225 69 -312 0 0 1 14 0 1 0 1
0 161 69 -312 0 0 1 14 0 1 0 1
phys
0 225 69 -376 0 0 1 14 0 1 0 1
0 161 69 -312 0 0 1 14 0 1 0 1
0 161 69 -376 0 0 1 14 0 1 0 1
phys
0 161 69 -376 0 0 1 14 0 1 0 1
0 161 69 -312 0 0 1 14 0 1 0 1
0 161 83 -312 0 0 1 14 0 1 0 1
phys
0 161 69 -376 0 0 1 14 0 1 0 1
0 161 83 -312 0 0 1 14 0 1 0 1
0 161 83 -376 0 0 1 14 0 1 0 1
phys
0 225 69 -312 0 0 1 14 0 1 0 1
0 225 69 -376 0 0 1 14 0 1 0 1
0 225 83 -376 0 0 1 14 0 1 0 1
phys
0 225 69 -312 0 0 1 14 0 1 0 1
0 225 83 -376 0 0 1 14 0 1 0 1
0 225 83 -312 0 0 1 14 0 1 0 1
phys
0 225 69 -376 0 0 1 14 0 1 0 1
0 161 69 -376 0 0 1 14 0 1 0 1
0 161 83 -376 0 0 1 14 0 1 0 1
phys
0 225 69 -376 0 0 1 14 0 1 0 1
0 161 83 -376 0 0 1 14 0 1 0 1
0 225 83 -376 0 0 1 14 0 1 0 1
phys
0 161 69 -312 0 0 1 14 0 1 0 1
0 225 69 -312 0 0 1 14 0 1 0 1
0 225 83 -312 0 0 1 14 0 1 0 1
phys
0 161 69 -312 0 0 1 14 0 1 0 1
0 225 83 -312 0 0 1 14 0 1 0 1
0 161 83 -312 0 0 1 14 0 1 0 1
phys
0 245 -399 -376 0 0 1 15 0 1 0 1
0 245 -379 -376 0 0 1 15 0 1 0 1
0 245 -379 -226 0 0 1 15 0 1 0 1
phys
0 245 -399 -376 0 0 1 15 0 1 0 1
0 245 -379 -226 0 0 1 15 0 1 0 1
0 245 -399 -226 0 0 1 15 0 1 0 1
phys
0 225 -379 -376 0 0 1 15 0 1 0 1
0 245 -379 -376 0 0 1 15 0 1 0 1
0 245 -399 -376 0 0 1 15 0 1 0 1
phys
0 225 -379 -376 0 0 1 15 0 1 0 1
0 245 -399 -376 0 0 1 15 0 1 0 1
0 225 -399 -376 0 0 1 15 0 1 0 1
phys
0 225 -399 -226 0 0 1 15 0 1 0 1
0 245 -399 -226 0 0 1 15 0 1 0 1
0 245 -379 -226 0 0 1 15 0 1 0 1
phys
0 225 -399 -226 0 0 1 15 0 1 0 1
0 245 -379 -226 0 0 1 15 0 1 0 1
0 225 -379 -226 0 0 1 15 0 1 0 1
phys
0 245 -379 -226 0 0 1 15 0 1 0 1
0 245 -379 -376 0 0 1 15 0 1 0 1
0 225 -379 -376 0 0 1 15 0 1 0 1
phys
0 245 -379 -226 0 0 1 15 0 1 0 1
0 225 -379 -376 0 0 1 15 0 1 0 1
0 225 -379 -226 0 0 1 15 0 1 0 1
phys
0 245 -399 -376 0 0 1 15 0 1 0 1
0 245 -399 -226 0 0 1 15 0 1 0 1
0 225 -399 -226 0 0 1 15 0 1 0 1
phys
0 245 -399 -376 0 0 1 15 0 1 0 1
0 225 -399 -226 0 0 1 15 0 1 0 1
0 225 -399 -376 0 0 1 15 0 1 0 1
phys
0 225 -399 -226 0 0 1 15 0 1 0 1
0 225 -379 -226 0 0 1 15 0 1 0 1
0 225 -379 -376 0 0 1 15 0 1 0 1
phys
0 225 -399 -226 0 0 1 15 0 1 0 1
0 225 -379 -376 0 0 1 15 0 1 0 1
0 225 -399 -376 0 0 1 15 0 1 0 1
end
