version 1
nodes
0 "root" -1
end
skeleton
time 0
0 0 0 0 0 0 0
end
triangles
bridge_se1_metal_flat_steel_01
0 145 -156 -144 0 -1 0 -149.340495 -3.577474 1 0 1
0 145 -156 -35.977 0 -1 0 -149.340495 -2.170924 1 0 1
0 135 -156 -35.982 0 -1 0 -149.470703 -2.17099 1 0 1
bridge_se1_metal_flat_steel_01
0 145 -156 -144 0 -1 0 -149.340495 -3.577474 1 0 1
0 135 -156 -35.982 0 -1 0 -149.470703 -2.17099 1 0 1
0 135 -156 -144 0 -1 0 -149.470703 -3.577474 1 0 1
bridge_se1_metal_flat_steel_01
0 135 -156 -144 -1 0 0 -4.389974 -78.546875 1 0 1
0 135 -156 -35.982 -1 0 0 -2.98349 -78.546875 1 0 1
0 135 -152 -31.978 -1 0 0 -2.931354 -78.494792 1 0 1
bridge_se1_metal_flat_steel_01
0 135 -156 -144 -1 0 0 -4.389974 -78.546875 1 0 1
0 135 -152 -31.978 -1 0 0 -2.931354 -78.494792 1 0 1
0 135 -152 -144 -1 0 0 -4.389974 -78.494792 1 0 1
bridge_se1_metal_flat_steel_01
0 145 -152 -31.973 1 0 0 2.568008 -78.494792 1 0 1
0 145 -156 -35.977 1 0 0 2.620143 -78.546875 1 0 1
0 145 -156 -144 1 0 0 4.026693 -78.546875 1 0 1
bridge_se1_metal_flat_steel_01
0 145 -152 -31.973 1 0 0 2.568008 -78.494792 1 0 1
0 145 -156 -144 1 0 0 4.026693 -78.546875 1 0 1
0 145 -152 -144 1 0 0 4.026693 -78.494792 1 0 1
concrete_concretewall001
0 261 192 -144 0 1 0 88.998047 -4 1 0 1
0 261 192 -82 0 1 0 88.998047 -3.03125 1 0 1
0 297 192 -82 0 1 0 88.716797 -3.03125 1 0 1
concrete_concretewall001
0 261 192 -144 0 1 0 88.998047 -4 1 0 1
0 297 192 -82 0 1 0 88.716797 -3.03125 1 0 1
0 297 192 -144 0 1 0 88.716797 -4 1 0 1
concrete_concretewall001
0 261 176 -144 -1 0 0 45.998047 -4 1 0 1
0 261 176 -82 -1 0 0 45.998047 -3.03125 1 0 1
0 261 192 -82 -1 0 0 45.873047 -3.03125 1 0 1
concrete_concretewall001
0 261 176 -144 -1 0 0 45.998047 -4 1 0 1
0 261 192 -82 -1 0 0 45.873047 -3.03125 1 0 1
0 261 192 -144 -1 0 0 45.873047 -4 1 0 1
concrete_concretewall001
0 297 192 -144 1 0 0 -45.158203 -4 1 0 1
0 297 192 -82 1 0 0 -45.158203 -3.03125 1 0 1
0 297 176 -82 1 0 0 -45.283203 -3.03125 1 0 1
concrete_concretewall001
0 297 192 -144 1 0 0 -45.158203 -4 1 0 1
0 297 176 -82 1 0 0 -45.283203 -3.03125 1 0 1
0 297 176 -144 1 0 0 -45.283203 -4 1 0 1
goldeneye_caverns_cavernsconcretefloor02
0 5 192 -101 0 1 0 151.702474 -2.515625 1 0 1
0 5 192 -144 0 1 0 151.702474 -3.075521 1 0 1
0 -5 192 -144 0 1 0 151.832682 -3.075521 1 0 1
goldeneye_caverns_cavernsconcretefloor02
0 5 192 -101 0 1 0 151.702474 -2.515625 1 0 1
0 -5 192 -144 0 1 0 151.832682 -3.075521 1 0 1
0 -5 192 -101 0 1 0 151.832682 -2.515625 1 0 1
goldeneye_caverns_cavernsconcretefloor02
0 -5 -192 102 -1 0 0 80.832031 0.127604 1 0 1
0 -5 -192 145 -1 0 0 80.832031 0.6875 1 0 1
0 -5 192 -101 -1 0 0 75.832031 -2.515625 1 0 1
goldeneye_caverns_cavernsconcretefloor02
0 -5 -192 102 -1 0 0 80.832031 0.127604 1 0 1
0 -5 192 -101 -1 0 0 75.832031 -2.515625 1 0 1
0 -5 192 -144 -1 0 0 75.832031 -3.075521 1 0 1
goldeneye_caverns_cavernsconcretefloor02
0 -5 -192 102 -1 0 0 80.832031 0.127604 1 0 1
0 -5 192 -144 -1 0 0 75.832031 -3.075521 1 0 1
0 -5 182 -144 -1 0 0 75.96224 -3.075521 1 0 1
goldeneye_caverns_cavernsconcretefloor02
0 5 -192 145 1 0 0 -80.296875 0.6875 1 0 1
0 5 -192 102 1 0 0 -80.296875 0.127604 1 0 1
0 5 182 -144 1 0 0 -75.427083 -3.075521 1 0 1
goldeneye_caverns_cavernsconcretefloor02
0 5 -192 145 1 0 0 -80.296875 0.6875 1 0 1
0 5 182 -144 1 0 0 -75.427083 -3.075521 1 0 1
0 5 192 -144 1 0 0 -75.296875 -3.075521 1 0 1
goldeneye_caverns_cavernsconcretefloor02
0 5 -192 145 1 0 0 -80.296875 0.6875 1 0 1
0 5 192 -144 1 0 0 -75.296875 -3.075521 1 0 1
0 5 192 -101 1 0 0 -75.296875 -2.515625 1 0 1
goldeneye_caverns_cavernsconcretefloor02
0 -5 -192 145 0 0.539427 0.842032 66.830992 -150.908854 1 0 1
0 5 -192 145 0 0.539427 0.842032 66.830992 -150.778646 1 0 1
0 5 192 -101 0 0.539427 0.842032 60.893227 -150.778646 1 0 1
goldeneye_caverns_cavernsconcretefloor02
0 -5 -192 145 0 0.539427 0.842032 66.830992 -150.908854 1 0 1
0 5 192 -101 0 0.539427 0.842032 60.893227 -150.778646 1 0 1
0 -5 192 -101 0 0.539427 0.842032 60.893227 -150.908854 1 0 1
goldeneye_caverns_cavernsconcretefloor02
0 5 -192 102 0 -0.549534 -0.835471 66.835638 151.997396 1 0 1
0 -5 -192 102 0 -0.549534 -0.835471 66.835638 152.127604 1 0 1
0 -5 182 -144 0 -0.549534 -0.835471 61.00681 152.127604 1 0 1
goldeneye_caverns_cavernsconcretefloor02
0 5 -192 102 0 -0.549534 -0.835471 66.835638 151.997396 1 0 1
0 -5 182 -144 0 -0.549534 -0.835471 61.00681 152.127604 1 0 1
0 5 182 -144 0 -0.549534 -0.835471 61.00681 151.997396 1 0 1
goldeneye_caverns_cavernsconcretefloor02
0 135 -132 79.001 0 1 0 -1.347643 -149.179688 1 0 1
0 135 -132 72 0 1 0 -1.438802 -149.179688 1 0 1
0 5 -132 72 0 1 0 -1.438802 -150.872396 1 0 1
goldeneye_caverns_cavernsconcretefloor02
0 135 -132 79.001 0 1 0 -1.347643 -149.179688 1 0 1
0 5 -132 72 0 1 0 -1.438802 -150.872396 1 0 1
0 5 -132 79.001 0 1 0 -1.347643 -150.872396 1 0 1
pepsi2_arch_concrete_floor_smooth01
0 5 -144 80 -1 0 0 47.625 -0.1875 1 0 1
0 5 -132.7 80 -1 0 0 47.536719 -0.1875 1 0 1
0 5 -132 79.001 -1 0 0 47.53125 -0.195305 1 0 1
pepsi2_arch_concrete_floor_smooth01
0 5 -144 80 -1 0 0 47.625 -0.1875 1 0 1
0 5 -132 79.001 -1 0 0 47.53125 -0.195305 1 0 1
0 5 -132 72 -1 0 0 47.53125 -0.25 1 0 1
goldeneye_caverns_cavernsconcretefloor02
0 135 -144 80 0 0 1 79.816406 -149.179688 1 0 1
0 135 -132.7 80 0 0 1 79.669271 -149.179688 1 0 1
0 5 -132.7 80 0 0 1 79.669271 -150.872396 1 0 1
goldeneye_caverns_cavernsconcretefloor02
0 135 -144 80 0 0 1 79.816406 -149.179688 1 0 1
0 5 -132.7 80 0 0 1 79.669271 -150.872396 1 0 1
0 5 -144 80 0 0 1 79.816406 -150.872396 1 0 1
goldeneye_caverns_cavernsconcretefloor02
0 135 -132.7 80 0 0.818962 0.573847 44.665148 -149.179688 1 0 1
0 135 -132 79.001 0 0.818962 0.573847 44.649265 -149.179688 1 0 1
0 5 -132 79.001 0 0.818962 0.573847 44.649265 -150.872396 1 0 1
goldeneye_caverns_cavernsconcretefloor02
0 135 -132.7 80 0 0.818962 0.573847 44.665148 -149.179688 1 0 1
0 5 -132 79.001 0 0.818962 0.573847 44.649265 -150.872396 1 0 1
0 5 -132.7 80 0 0.818962 0.573847 44.665148 -150.872396 1 0 1
pepsi2_arch_concrete_floor_smooth01
0 5 -108 56 -1 0 0 47.34375 -0.375 1 0 1
0 5 -96.7 56 -1 0 0 47.255469 -0.375 1 0 1
0 5 -96 55.001 -1 0 0 47.25 -0.382805 1 0 1
pepsi2_arch_concrete_floor_smooth01
0 5 -108 56 -1 0 0 47.34375 -0.375 1 0 1
0 5 -96 55.001 -1 0 0 47.25 -0.382805 1 0 1
0 5 -96 48 -1 0 0 47.25 -0.4375 1 0 1
goldeneye_caverns_cavernsconcretefloor02
0 135 -108 56 0 0 1 79.052734 -149.179688 1 0 1
0 135 -96.7 56 0 0 1 78.905599 -149.179688 1 0 1
0 5 -96.7 56 0 0 1 78.905599 -150.872396 1 0 1
goldeneye_caverns_cavernsconcretefloor02
0 135 -108 56 0 0 1 79.052734 -149.179688 1 0 1
0 5 -96.7 56 0 0 1 78.905599 -150.872396 1 0 1
0 5 -108 56 0 0 1 79.052734 -150.872396 1 0 1
goldeneye_caverns_cavernsconcretefloor02
0 135 -96.7 56 0 0.818962 0.573847 43.904008 -149.179688 1 0 1
0 135 -96 55.001 0 0.818962 0.573847 43.888124 -149.179688 1 0 1
0 5 -96 55.001 0 0.818962 0.573847 43.888124 -150.872396 1 0 1
goldeneye_caverns_cavernsconcretefloor02
0 135 -96.7 56 0 0.818962 0.573847 43.904008 -149.179688 1 0 1
0 5 -96 55.001 0 0.818962 0.573847 43.888124 -150.872396 1 0 1
0 5 -96.7 56 0 0.818962 0.573847 43.904008 -150.872396 1 0 1
goldeneye_caverns_cavernsconcretefloor02
0 135 -96 55.001 0 1 0 -2.109362 -149.179688 1 0 1
0 135 -96 48 0 1 0 -2.200521 -149.179688 1 0 1
0 5 -96 48 0 1 0 -2.200521 -150.872396 1 0 1
goldeneye_caverns_cavernsconcretefloor02
0 135 -96 55.001 0 1 0 -2.109362 -149.179688 1 0 1
0 5 -96 48 0 1 0 -2.200521 -150.872396 1 0 1
0 5 -96 55.001 0 1 0 -2.109362 -150.872396 1 0 1
goldeneye_caverns_cavernsconcretefloor02
0 5 120 -96 0 0 1 76.576172 -150.872396 1 0 1
0 135 120 -96 0 0 1 76.576172 -149.179688 1 0 1
0 135 131.3 -96 0 0 1 76.429036 -149.179688 1 0 1
goldeneye_caverns_cavernsconcretefloor02
0 5 120 -96 0 0 1 76.576172 -150.872396 1 0 1
0 135 131.3 -96 0 0 1 76.429036 -149.179688 1 0 1
0 5 131.3 -96 0 0 1 76.429036 -150.872396 1 0 1
goldeneye_caverns_cavernsconcretefloor02
0 5 131.3 -96 0 0.818962 0.573847 40.420039 -150.872396 1 0 1
0 135 131.3 -96 0 0.818962 0.573847 40.420039 -149.179688 1 0 1
0 135 132 -96.999 0 0.818962 0.573847 40.404155 -149.179688 1 0 1
goldeneye_caverns_cavernsconcretefloor02
0 5 131.3 -96 0 0.818962 0.573847 40.420039 -150.872396 1 0 1
0 135 132 -96.999 0 0.818962 0.573847 40.404155 -149.179688 1 0 1
0 5 132 -96.999 0 0.818962 0.573847 40.404155 -150.872396 1 0 1
goldeneye_caverns_cavernsconcretefloor02
0 135 132 -96.999 0 1 0 -3.594388 -149.179688 1 0 1
0 135 132 -104 0 1 0 -3.685547 -149.179688 1 0 1
0 5 132 -104 0 1 0 -3.685547 -150.872396 1 0 1
goldeneye_caverns_cavernsconcretefloor02
0 135 132 -96.999 0 1 0 -3.594388 -149.179688 1 0 1
0 5 132 -104 0 1 0 -3.685547 -150.872396 1 0 1
0 5 132 -96.999 0 1 0 -3.594388 -150.872396 1 0 1
pepsi2_arch_concrete_floor_smooth01
0 5 120 -96 -1 0 0 45.5625 -1.5625 1 0 1
0 5 131.3 -96 -1 0 0 45.474219 -1.5625 1 0 1
0 5 132 -96.999 -1 0 0 45.46875 -1.570305 1 0 1
pepsi2_arch_concrete_floor_smooth01
0 5 120 -96 -1 0 0 45.5625 -1.5625 1 0 1
0 5 132 -96.999 -1 0 0 45.46875 -1.570305 1 0 1
0 5 132 -104 -1 0 0 45.46875 -1.625 1 0 1
goldeneye_caverns_cavernsconcretefloor02
0 135 -36 15.001 0 1 0 -2.380195 -149.179688 1 0 1
0 135 -36 8 0 1 0 -2.471354 -149.179688 1 0 1
0 5 -36 8 0 1 0 -2.471354 -150.872396 1 0 1
goldeneye_caverns_cavernsconcretefloor02
0 135 -36 15.001 0 1 0 -2.380195 -149.179688 1 0 1
0 5 -36 8 0 1 0 -2.471354 -150.872396 1 0 1
0 5 -36 15.001 0 1 0 -2.380195 -150.872396 1 0 1
pepsi2_arch_concrete_floor_smooth01
0 5 -48 16 -1 0 0 46.875 -0.6875 1 0 1
0 5 -36.7 16 -1 0 0 46.786719 -0.6875 1 0 1
0 5 -36 15.001 -1 0 0 46.78125 -0.695305 1 0 1
pepsi2_arch_concrete_floor_smooth01
0 5 -48 16 -1 0 0 46.875 -0.6875 1 0 1
0 5 -36 15.001 -1 0 0 46.78125 -0.695305 1 0 1
0 5 -36 8 -1 0 0 46.78125 -0.75 1 0 1
goldeneye_caverns_cavernsconcretefloor02
0 135 -48 16 0 0 1 78.783203 -149.179688 1 0 1
0 135 -36.7 16 0 0 1 78.636068 -149.179688 1 0 1
0 5 -36.7 16 0 0 1 78.636068 -150.872396 1 0 1
goldeneye_caverns_cavernsconcretefloor02
0 135 -48 16 0 0 1 78.783203 -149.179688 1 0 1
0 5 -36.7 16 0 0 1 78.636068 -150.872396 1 0 1
0 5 -48 16 0 0 1 78.783203 -150.872396 1 0 1
goldeneye_caverns_cavernsconcretefloor02
0 135 -36.7 16 0 0.818962 0.573847 42.632836 -149.179688 1 0 1
0 135 -36 15.001 0 0.818962 0.573847 42.616952 -149.179688 1 0 1
0 5 -36 15.001 0 0.818962 0.573847 42.616952 -150.872396 1 0 1
goldeneye_caverns_cavernsconcretefloor02
0 135 -36.7 16 0 0.818962 0.573847 42.632836 -149.179688 1 0 1
0 5 -36 15.001 0 0.818962 0.573847 42.616952 -150.872396 1 0 1
0 5 -36.7 16 0 0.818962 0.573847 42.632836 -150.872396 1 0 1
goldeneye_caverns_cavernsconcretefloor02
0 5 168 -128 0 0 1 75.654297 -150.872396 1 0 1
0 135 168 -128 0 0 1 75.654297 -149.179688 1 0 1
0 135 179.3 -128 0 0 1 75.507161 -149.179688 1 0 1
goldeneye_caverns_cavernsconcretefloor02
0 5 168 -128 0 0 1 75.654297 -150.872396 1 0 1
0 135 179.3 -128 0 0 1 75.507161 -149.179688 1 0 1
0 5 179.3 -128 0 0 1 75.507161 -150.872396 1 0 1
goldeneye_caverns_cavernsconcretefloor02
0 5 179.3 -128 0 0.818962 0.573847 39.503492 -150.872396 1 0 1
0 135 179.3 -128 0 0.818962 0.573847 39.503492 -149.179688 1 0 1
0 135 180 -128.999 0 0.818962 0.573847 39.487608 -149.179688 1 0 1
goldeneye_caverns_cavernsconcretefloor02
0 5 179.3 -128 0 0.818962 0.573847 39.503492 -150.872396 1 0 1
0 135 180 -128.999 0 0.818962 0.573847 39.487608 -149.179688 1 0 1
0 5 180 -128.999 0 0.818962 0.573847 39.487608 -150.872396 1 0 1
goldeneye_caverns_cavernsconcretefloor02
0 135 180 -128.999 0 1 0 -4.509102 -149.179688 1 0 1
0 135 180 -136 0 1 0 -4.60026 -149.179688 1 0 1
0 5 180 -136 0 1 0 -4.60026 -150.872396 1 0 1
goldeneye_caverns_cavernsconcretefloor02
0 135 180 -128.999 0 1 0 -4.509102 -149.179688 1 0 1
0 5 180 -136 0 1 0 -4.60026 -150.872396 1 0 1
0 5 180 -128.999 0 1 0 -4.509102 -150.872396 1 0 1
pepsi2_arch_concrete_floor_smooth01
0 5 168 -128 -1 0 0 45.1875 -1.8125 1 0 1
0 5 179.3 -128 -1 0 0 45.099219 -1.8125 1 0 1
0 5 180 -128.999 -1 0 0 45.09375 -1.820305 1 0 1
pepsi2_arch_concrete_floor_smooth01
0 5 168 -128 -1 0 0 45.1875 -1.8125 1 0 1
0 5 180 -128.999 -1 0 0 45.09375 -1.820305 1 0 1
0 5 180 -136 -1 0 0 45.09375 -1.875 1 0 1
goldeneye_caverns_cavernsconcretefloor02
0 135 -156.7 96 0 0.818962 0.573847 44.173226 -149.179688 1 0 1
0 135 -156 95.001 0 0.818962 0.573847 44.157343 -149.179688 1 0 1
0 5 -156 95.001 0 0.818962 0.573847 44.157343 -150.872396 1 0 1
goldeneye_caverns_cavernsconcretefloor02
0 135 -156.7 96 0 0.818962 0.573847 44.173226 -149.179688 1 0 1
0 5 -156 95.001 0 0.818962 0.573847 44.157343 -150.872396 1 0 1
0 5 -156.7 96 0 0.818962 0.573847 44.173226 -150.872396 1 0 1
goldeneye_caverns_cavernsconcretefloor02
0 5 -156 88 0 1 0 -0.929688 -150.872396 1 0 1
0 5 -156 95.001 0 1 0 -0.838529 -150.872396 1 0 1
0 135 -156 95.001 0 1 0 -0.838529 -149.179688 1 0 1
goldeneye_caverns_cavernsconcretefloor02
0 5 -156 88 0 1 0 -0.929688 -150.872396 1 0 1
0 135 -156 95.001 0 1 0 -0.838529 -149.179688 1 0 1
0 135 -156 88 0 1 0 -0.929688 -149.179688 1 0 1
pepsi2_arch_concrete_floor_smooth01
0 5 -168 96 -1 0 0 47.8125 -0.0625 1 0 1
0 5 -156.7 96 -1 0 0 47.724219 -0.0625 1 0 1
0 5 -156 95.001 -1 0 0 47.71875 -0.070305 1 0 1
pepsi2_arch_concrete_floor_smooth01
0 5 -168 96 -1 0 0 47.8125 -0.0625 1 0 1
0 5 -156 95.001 -1 0 0 47.71875 -0.070305 1 0 1
0 5 -156 88 -1 0 0 47.71875 -0.125 1 0 1
goldeneye_caverns_cavernsconcretefloor02
0 135 -168 96 0 0 1 80.324219 -149.179688 1 0 1
0 135 -156.7 96 0 0 1 80.177083 -149.179688 1 0 1
0 5 -156.7 96 0 0 1 80.177083 -150.872396 1 0 1
goldeneye_caverns_cavernsconcretefloor02
0 135 -168 96 0 0 1 80.324219 -149.179688 1 0 1
0 5 -156.7 96 0 0 1 80.177083 -150.872396 1 0 1
0 5 -168 96 0 0 1 80.324219 -150.872396 1 0 1
goldeneye_caverns_cavernsconcretefloor02
0 135 120 -88.999 0 1 0 -3.333971 -149.179688 1 0 1
0 135 120 -96 0 1 0 -3.42513 -149.179688 1 0 1
0 5 120 -96 0 1 0 -3.42513 -150.872396 1 0 1
goldeneye_caverns_cavernsconcretefloor02
0 135 120 -88.999 0 1 0 -3.333971 -149.179688 1 0 1
0 5 120 -96 0 1 0 -3.42513 -150.872396 1 0 1
0 5 120 -88.999 0 1 0 -3.333971 -150.872396 1 0 1
pepsi2_arch_concrete_floor_smooth01
0 5 108 -88 -1 0 0 45.65625 -1.5 1 0 1
0 5 119.3 -88 -1 0 0 45.567969 -1.5 1 0 1
0 5 120 -88.999 -1 0 0 45.5625 -1.507805 1 0 1
pepsi2_arch_concrete_floor_smooth01
0 5 108 -88 -1 0 0 45.65625 -1.5 1 0 1
0 5 120 -88.999 -1 0 0 45.5625 -1.507805 1 0 1
0 5 120 -96 -1 0 0 45.5625 -1.5625 1 0 1
goldeneye_caverns_cavernsconcretefloor02
0 135 108 -88 0 0 1 76.830078 -149.179688 1 0 1
0 135 119.3 -88 0 0 1 76.682943 -149.179688 1 0 1
0 5 119.3 -88 0 0 1 76.682943 -150.872396 1 0 1
goldeneye_caverns_cavernsconcretefloor02
0 135 108 -88 0 0 1 76.830078 -149.179688 1 0 1
0 5 119.3 -88 0 0 1 76.682943 -150.872396 1 0 1
0 5 108 -88 0 0 1 76.830078 -150.872396 1 0 1
goldeneye_caverns_cavernsconcretefloor02
0 135 119.3 -88 0 0.818962 0.573847 40.678961 -149.179688 1 0 1
0 135 120 -88.999 0 0.818962 0.573847 40.663077 -149.179688 1 0 1
0 5 120 -88.999 0 0.818962 0.573847 40.663077 -150.872396 1 0 1
goldeneye_caverns_cavernsconcretefloor02
0 135 119.3 -88 0 0.818962 0.573847 40.678961 -149.179688 1 0 1
0 5 120 -88.999 0 0.818962 0.573847 40.663077 -150.872396 1 0 1
0 5 119.3 -88 0 0.818962 0.573847 40.678961 -150.872396 1 0 1
goldeneye_caverns_cavernsconcretefloor02
0 5 72 -64 0 0 1 76.591797 -150.872396 1 0 1
0 135 72 -64 0 0 1 76.591797 -149.179688 1 0 1
0 135 83.3 -64 0 0 1 76.444661 -149.179688 1 0 1
goldeneye_caverns_cavernsconcretefloor02
0 5 72 -64 0 0 1 76.591797 -150.872396 1 0 1
0 135 83.3 -64 0 0 1 76.444661 -149.179688 1 0 1
0 5 83.3 -64 0 0 1 76.444661 -150.872396 1 0 1
goldeneye_caverns_cavernsconcretefloor02
0 5 83.3 -64 0 0.819232 0.573462 41.442054 -150.872396 1 0 1
0 135 83.3 -64 0 0.819232 0.573462 41.442054 -149.179688 1 0 1
0 135 84 -65 0 0.819232 0.573462 41.42616 -149.179688 1 0 1
goldeneye_caverns_cavernsconcretefloor02
0 5 83.3 -64 0 0.819232 0.573462 41.442054 -150.872396 1 0 1
0 135 84 -65 0 0.819232 0.573462 41.42616 -149.179688 1 0 1
0 5 84 -65 0 0.819232 0.573462 41.42616 -150.872396 1 0 1
goldeneye_caverns_cavernsconcretefloor02
0 135 84 -72 0 1 0 -3.661458 -149.179688 1 0 1
0 5 84 -72 0 1 0 -3.661458 -150.872396 1 0 1
0 5 84 -65 0 1 0 -3.570312 -150.872396 1 0 1
goldeneye_caverns_cavernsconcretefloor02
0 135 84 -72 0 1 0 -3.661458 -149.179688 1 0 1
0 5 84 -65 0 1 0 -3.570312 -150.872396 1 0 1
0 135 84 -65 0 1 0 -3.570312 -149.179688 1 0 1
pepsi2_arch_concrete_floor_smooth01
0 5 72 -64 -1 0 0 45.9375 -1.3125 1 0 1
0 5 83.3 -64 -1 0 0 45.849219 -1.3125 1 0 1
0 5 84 -65 -1 0 0 45.84375 -1.320312 1 0 1
pepsi2_arch_concrete_floor_smooth01
0 5 72 -64 -1 0 0 45.9375 -1.3125 1 0 1
0 5 84 -65 -1 0 0 45.84375 -1.320312 1 0 1
0 5 84 -72 -1 0 0 45.84375 -1.375 1 0 1
pepsi2_arch_concrete_floor_smooth01
0 5 24 -32 -1 0 0 46.3125 -1.0625 1 0 1
0 5 35.3 -32 -1 0 0 46.224219 -1.0625 1 0 1
0 5 36 -32.999 -1 0 0 46.21875 -1.070305 1 0 1
pepsi2_arch_concrete_floor_smooth01
0 5 24 -32 -1 0 0 46.3125 -1.0625 1 0 1
0 5 36 -32.999 -1 0 0 46.21875 -1.070305 1 0 1
0 5 36 -40 -1 0 0 46.21875 -1.125 1 0 1
goldeneye_caverns_cavernsconcretefloor02
0 135 24 -32 0 0 1 77.507812 -149.179688 1 0 1
0 135 35.3 -32 0 0 1 77.360677 -149.179688 1 0 1
0 5 35.3 -32 0 0 1 77.360677 -150.872396 1 0 1
goldeneye_caverns_cavernsconcretefloor02
0 135 24 -32 0 0 1 77.507812 -149.179688 1 0 1
0 5 35.3 -32 0 0 1 77.360677 -150.872396 1 0 1
0 5 24 -32 0 0 1 77.507812 -150.872396 1 0 1
goldeneye_caverns_cavernsconcretefloor02
0 135 35.3 -32 0 0.818962 0.573847 41.358601 -149.179688 1 0 1
0 135 36 -32.999 0 0.818962 0.573847 41.342718 -149.179688 1 0 1
0 5 36 -32.999 0 0.818962 0.573847 41.342718 -150.872396 1 0 1
goldeneye_caverns_cavernsconcretefloor02
0 135 35.3 -32 0 0.818962 0.573847 41.358601 -149.179688 1 0 1
0 5 36 -32.999 0 0.818962 0.573847 41.342718 -150.872396 1 0 1
0 5 35.3 -32 0 0.818962 0.573847 41.358601 -150.872396 1 0 1
goldeneye_caverns_cavernsconcretefloor02
0 135 36 -32.999 0 1 0 -2.655586 -149.179688 1 0 1
0 135 36 -40 0 1 0 -2.746745 -149.179688 1 0 1
0 5 36 -40 0 1 0 -2.746745 -150.872396 1 0 1
goldeneye_caverns_cavernsconcretefloor02
0 135 36 -32.999 0 1 0 -2.655586 -149.179688 1 0 1
0 5 36 -40 0 1 0 -2.746745 -150.872396 1 0 1
0 5 36 -32.999 0 1 0 -2.655586 -150.872396 1 0 1
concrete_concretewall001
0 171 176 -144 1 0 0 -45.298828 -4 1 0 1
0 171 192 -144 1 0 0 -45.173828 -4 1 0 1
0 171 192 -82 1 0 0 -45.173828 -3.03125 1 0 1
concrete_concretewall001
0 171 176 -144 1 0 0 -45.298828 -4 1 0 1
0 171 192 -82 1 0 0 -45.173828 -3.03125 1 0 1
0 171 176 -82 1 0 0 -45.298828 -3.03125 1 0 1
concrete_concretewall001
0 171 192 -82 0 1 0 89.701172 -3.03125 1 0 1
0 171 192 -144 0 1 0 89.701172 -4 1 0 1
0 135 192 -144 0 1 0 89.982422 -4 1 0 1
concrete_concretewall001
0 171 192 -82 0 1 0 89.701172 -3.03125 1 0 1
0 135 192 -144 0 1 0 89.982422 -4 1 0 1
0 135 192 -82 0 1 0 89.982422 -3.03125 1 0 1
concrete_concretewall001
0 135 176 -82 -1 0 0 45.982422 -3.03125 1 0 1
0 135 192 -82 -1 0 0 45.857422 -3.03125 1 0 1
0 135 192 -144 -1 0 0 45.857422 -4 1 0 1
concrete_concretewall001
0 135 176 -82 -1 0 0 45.982422 -3.03125 1 0 1
0 135 192 -144 -1 0 0 45.857422 -4 1 0 1
0 135 176 -144 -1 0 0 45.982422 -4 1 0 1
goldeneye_caverns_cavernsconcretefloor02
0 135 156 -112.999 0 1 0 -4.00194 -149.179688 1 0 1
0 135 156 -120 0 1 0 -4.093099 -149.179688 1 0 1
0 5 156 -120 0 1 0 -4.093099 -150.872396 1 0 1
goldeneye_caverns_cavernsconcretefloor02
0 135 156 -112.999 0 1 0 -4.00194 -149.179688 1 0 1
0 5 156 -120 0 1 0 -4.093099 -150.872396 1 0 1
0 5 156 -112.999 0 1 0 -4.00194 -150.872396 1 0 1
pepsi2_arch_concrete_floor_smooth01
0 5 144 -112 -1 0 0 45.375 -1.6875 1 0 1
0 5 155.3 -112 -1 0 0 45.286719 -1.6875 1 0 1
0 5 156 -112.999 -1 0 0 45.28125 -1.695305 1 0 1
pepsi2_arch_concrete_floor_smooth01
0 5 144 -112 -1 0 0 45.375 -1.6875 1 0 1
0 5 156 -112.999 -1 0 0 45.28125 -1.695305 1 0 1
0 5 156 -120 -1 0 0 45.28125 -1.75 1 0 1
goldeneye_caverns_cavernsconcretefloor02
0 135 144 -112 0 0 1 76.162109 -149.179688 1 0 1
0 135 155.3 -112 0 0 1 76.014974 -149.179688 1 0 1
0 5 155.3 -112 0 0 1 76.014974 -150.872396 1 0 1
goldeneye_caverns_cavernsconcretefloor02
0 135 144 -112 0 0 1 76.162109 -149.179688 1 0 1
0 5 155.3 -112 0 0 1 76.014974 -150.872396 1 0 1
0 5 144 -112 0 0 1 76.162109 -150.872396 1 0 1
goldeneye_caverns_cavernsconcretefloor02
0 135 155.3 -112 0 0.818962 0.573847 40.01157 -149.179688 1 0 1
0 135 156 -112.999 0 0.818962 0.573847 39.995686 -149.179688 1 0 1
0 5 156 -112.999 0 0.818962 0.573847 39.995686 -150.872396 1 0 1
goldeneye_caverns_cavernsconcretefloor02
0 135 155.3 -112 0 0.818962 0.573847 40.01157 -149.179688 1 0 1
0 5 156 -112.999 0 0.818962 0.573847 39.995686 -150.872396 1 0 1
0 5 155.3 -112 0 0.818962 0.573847 40.01157 -150.872396 1 0 1
goldeneye_caverns_cavernsconcretefloor02
0 135 -144 87.001 0 1 0 -1.093086 -149.179688 1 0 1
0 135 -144 80 0 1 0 -1.184245 -149.179688 1 0 1
0 5 -144 80 0 1 0 -1.184245 -150.872396 1 0 1
goldeneye_caverns_cavernsconcretefloor02
0 135 -144 87.001 0 1 0 -1.093086 -149.179688 1 0 1
0 5 -144 80 0 1 0 -1.184245 -150.872396 1 0 1
0 5 -144 87.001 0 1 0 -1.093086 -150.872396 1 0 1
pepsi2_arch_concrete_floor_smooth01
0 5 -156 88 -1 0 0 47.71875 -0.125 1 0 1
0 5 -144.7 88 -1 0 0 47.630469 -0.125 1 0 1
0 5 -144 87.001 -1 0 0 47.625 -0.132805 1 0 1
pepsi2_arch_concrete_floor_smooth01
0 5 -156 88 -1 0 0 47.71875 -0.125 1 0 1
0 5 -144 87.001 -1 0 0 47.625 -0.132805 1 0 1
0 5 -144 80 -1 0 0 47.625 -0.1875 1 0 1
goldeneye_caverns_cavernsconcretefloor02
0 135 -156 88 0 0 1 80.070312 -149.179688 1 0 1
0 135 -144.7 88 0 0 1 79.923177 -149.179688 1 0 1
0 5 -144.7 88 0 0 1 79.923177 -150.872396 1 0 1
goldeneye_caverns_cavernsconcretefloor02
0 135 -156 88 0 0 1 80.070312 -149.179688 1 0 1
0 5 -144.7 88 0 0 1 79.923177 -150.872396 1 0 1
0 5 -156 88 0 0 1 80.070312 -150.872396 1 0 1
goldeneye_caverns_cavernsconcretefloor02
0 135 -144.7 88 0 0.818962 0.573847 44.920164 -149.179688 1 0 1
0 135 -144 87.001 0 0.818962 0.573847 44.90428 -149.179688 1 0 1
0 5 -144 87.001 0 0.818962 0.573847 44.90428 -150.872396 1 0 1
goldeneye_caverns_cavernsconcretefloor02
0 135 -144.7 88 0 0.818962 0.573847 44.920164 -149.179688 1 0 1
0 5 -144 87.001 0 0.818962 0.573847 44.90428 -150.872396 1 0 1
0 5 -144.7 88 0 0.818962 0.573847 44.920164 -150.872396 1 0 1
goldeneye_caverns_cavernsconcretefloor02
0 135 -72.7 40 0 0.818962 0.573847 43.395929 -149.179688 1 0 1
0 135 -72 39.001 0 0.818962 0.573847 43.380046 -149.179688 1 0 1
0 5 -72 39.001 0 0.818962 0.573847 43.380046 -150.872396 1 0 1
goldeneye_caverns_cavernsconcretefloor02
0 135 -72.7 40 0 0.818962 0.573847 43.395929 -149.179688 1 0 1
0 5 -72 39.001 0 0.818962 0.573847 43.380046 -150.872396 1 0 1
0 5 -72.7 40 0 0.818962 0.573847 43.395929 -150.872396 1 0 1
goldeneye_caverns_cavernsconcretefloor02
0 135 -72 32 0 1 0 -1.709635 -149.179688 1 0 1
0 5 -72 32 0 1 0 -1.709635 -150.872396 1 0 1
0 5 -72 39.001 0 1 0 -1.618477 -150.872396 1 0 1
goldeneye_caverns_cavernsconcretefloor02
0 135 -72 32 0 1 0 -1.709635 -149.179688 1 0 1
0 5 -72 39.001 0 1 0 -1.618477 -150.872396 1 0 1
0 135 -72 39.001 0 1 0 -1.618477 -149.179688 1 0 1
pepsi2_arch_concrete_floor_smooth01
0 5 -72.7 40 -1 0 0 47.067969 -0.5 1 0 1
0 5 -72 39.001 -1 0 0 47.0625 -0.507805 1 0 1
0 5 -72 32 -1 0 0 47.0625 -0.5625 1 0 1
pepsi2_arch_concrete_floor_smooth01
0 5 -72.7 40 -1 0 0 47.067969 -0.5 1 0 1
0 5 -72 32 -1 0 0 47.0625 -0.5625 1 0 1
0 5 -84 40 -1 0 0 47.15625 -0.5 1 0 1
goldeneye_caverns_cavernsconcretefloor02
0 5 -84 40 0 0 1 79.544922 -150.872396 1 0 1
0 135 -84 40 0 0 1 79.544922 -149.179688 1 0 1
0 135 -72.7 40 0 0 1 79.397786 -149.179688 1 0 1
goldeneye_caverns_cavernsconcretefloor02
0 5 -84 40 0 0 1 79.544922 -150.872396 1 0 1
0 135 -72.7 40 0 0 1 79.397786 -149.179688 1 0 1
0 5 -72.7 40 0 0 1 79.397786 -150.872396 1 0 1
goldeneye_caverns_cavernsconcretefloor02
0 135 108 -80.999 0 1 0 -3.079414 -149.179688 1 0 1
0 135 108 -88 0 1 0 -3.170573 -149.179688 1 0 1
0 5 108 -88 0 1 0 -3.170573 -150.872396 1 0 1
goldeneye_caverns_cavernsconcretefloor02
0 135 108 -80.999 0 1 0 -3.079414 -149.179688 1 0 1
0 5 108 -88 0 1 0 -3.170573 -150.872396 1 0 1
0 5 108 -80.999 0 1 0 -3.079414 -150.872396 1 0 1
pepsi2_arch_concrete_floor_smooth01
0 5 96 -80 -1 0 0 45.75 -1.4375 1 0 1
0 5 107.3 -80 -1 0 0 45.661719 -1.4375 1 0 1
0 5 108 -80.999 -1 0 0 45.65625 -1.445305 1 0 1
pepsi2_arch_concrete_floor_smooth01
0 5 96 -80 -1 0 0 45.75 -1.4375 1 0 1
0 5 108 -80.999 -1 0 0 45.65625 -1.445305 1 0 1
0 5 108 -88 -1 0 0 45.65625 -1.5 1 0 1
goldeneye_caverns_cavernsconcretefloor02
0 135 96 -80 0 0 1 77.083984 -149.179688 1 0 1
0 135 107.3 -80 0 0 1 76.936849 -149.179688 1 0 1
0 5 107.3 -80 0 0 1 76.936849 -150.872396 1 0 1
goldeneye_caverns_cavernsconcretefloor02
0 135 96 -80 0 0 1 77.083984 -149.179688 1 0 1
0 5 107.3 -80 0 0 1 76.936849 -150.872396 1 0 1
0 5 96 -80 0 0 1 77.083984 -150.872396 1 0 1
goldeneye_caverns_cavernsconcretefloor02
0 135 107.3 -80 0 0.818962 0.573847 40.933976 -149.179688 1 0 1
0 135 108 -80.999 0 0.818962 0.573847 40.918093 -149.179688 1 0 1
0 5 108 -80.999 0 0.818962 0.573847 40.918093 -150.872396 1 0 1
goldeneye_caverns_cavernsconcretefloor02
0 135 107.3 -80 0 0.818962 0.573847 40.933976 -149.179688 1 0 1
0 5 108 -80.999 0 0.818962 0.573847 40.918093 -150.872396 1 0 1
0 5 107.3 -80 0 0.818962 0.573847 40.933976 -150.872396 1 0 1
goldeneye_caverns_cavernsconcretefloor02
0 135 -12 -0.999 0 1 0 -2.88931 -149.179688 1 0 1
0 135 -12 -8 0 1 0 -2.980469 -149.179688 1 0 1
0 5 -12 -8 0 1 0 -2.980469 -150.872396 1 0 1
goldeneye_caverns_cavernsconcretefloor02
0 135 -12 -0.999 0 1 0 -2.88931 -149.179688 1 0 1
0 5 -12 -8 0 1 0 -2.980469 -150.872396 1 0 1
0 5 -12 -0.999 0 1 0 -2.88931 -150.872396 1 0 1
pepsi2_arch_concrete_floor_smooth01
0 5 -24 0 -1 0 0 46.6875 -0.8125 1 0 1
0 5 -12.7 0 -1 0 0 46.599219 -0.8125 1 0 1
0 5 -12 -0.999 -1 0 0 46.59375 -0.820305 1 0 1
pepsi2_arch_concrete_floor_smooth01
0 5 -24 0 -1 0 0 46.6875 -0.8125 1 0 1
0 5 -12 -0.999 -1 0 0 46.59375 -0.820305 1 0 1
0 5 -12 -8 -1 0 0 46.59375 -0.875 1 0 1
goldeneye_caverns_cavernsconcretefloor02
0 135 -24 0 0 0 1 78.273438 -149.179688 1 0 1
0 135 -12.7 0 0 0 1 78.126302 -149.179688 1 0 1
0 5 -12.7 0 0 0 1 78.126302 -150.872396 1 0 1
goldeneye_caverns_cavernsconcretefloor02
0 135 -24 0 0 0 1 78.273438 -149.179688 1 0 1
0 5 -12.7 0 0 0 1 78.126302 -150.872396 1 0 1
0 5 -24 0 0 0 1 78.273438 -150.872396 1 0 1
goldeneye_caverns_cavernsconcretefloor02
0 135 -12.7 0 0 0.818962 0.573847 42.124758 -149.179688 1 0 1
0 135 -12 -0.999 0 0.818962 0.573847 42.108874 -149.179688 1 0 1
0 5 -12 -0.999 0 0.818962 0.573847 42.108874 -150.872396 1 0 1
goldeneye_caverns_cavernsconcretefloor02
0 135 -12.7 0 0 0.818962 0.573847 42.124758 -149.179688 1 0 1
0 5 -12 -0.999 0 0.818962 0.573847 42.108874 -150.872396 1 0 1
0 5 -12.7 0 0 0.818962 0.573847 42.124758 -150.872396 1 0 1
gmod_tower_cafe_cafe_brick
0 171 192 216.0021 0 1 0 90.591797 1.750016 1 0 1
0 171 192 -82 0 1 0 90.591797 -0.578125 1 0 1
0 135 192 -82 0 1 0 90.873047 -0.578125 1 0 1
gmod_tower_cafe_cafe_brick
0 171 192 216.0021 0 1 0 90.591797 1.750016 1 0 1
0 135 192 -82 0 1 0 90.873047 -0.578125 1 0 1
0 135 192 216.0021 0 1 0 90.873047 1.750016 1 0 1
gmod_tower_cafe_cafe_brick
0 135 176 -82 -1 0 0 45.857422 -0.578125 1 0 1
0 135 176 256 -1 0 0 45.857422 2.0625 1 0 1
0 135 179 256 -1 0 0 45.833984 2.0625 1 0 1
gmod_tower_cafe_cafe_brick
0 135 176 -82 -1 0 0 45.857422 -0.578125 1 0 1
0 135 179 256 -1 0 0 45.833984 2.0625 1 0 1
0 135 192 216.0021 -1 0 0 45.732422 1.750016 1 0 1
gmod_tower_cafe_cafe_brick
0 135 176 -82 -1 0 0 45.857422 -0.578125 1 0 1
0 135 192 216.0021 -1 0 0 45.732422 1.750016 1 0 1
0 135 192 -82 -1 0 0 45.732422 -0.578125 1 0 1
gmod_tower_cafe_cafe_brick
0 171 176 256 1 0 0 -44.392578 2.0625 1 0 1
0 171 176 -82 1 0 0 -44.392578 -0.578125 1 0 1
0 171 192 -82 1 0 0 -44.267578 -0.578125 1 0 1
gmod_tower_cafe_cafe_brick
0 171 176 256 1 0 0 -44.392578 2.0625 1 0 1
0 171 192 -82 1 0 0 -44.267578 -0.578125 1 0 1
0 171 192 216.0021 1 0 0 -44.267578 1.750016 1 0 1
gmod_tower_cafe_cafe_brick
0 171 176 256 1 0 0 -44.392578 2.0625 1 0 1
0 171 192 216.0021 1 0 0 -44.267578 1.750016 1 0 1
0 171 179 256 1 0 0 -44.369141 2.0625 1 0 1
props_tarpaperroof002a
0 135 176 256 0 0 1 -49.828125 26.233507 1 0 1
0 171 176 256 0 0 1 -49.671875 26.233507 1 0 1
0 171 179 256 0 0 1 -49.671875 26.220486 1 0 1
props_tarpaperroof002a
0 135 176 256 0 0 1 -49.828125 26.233507 1 0 1
0 171 179 256 0 0 1 -49.671875 26.220486 1 0 1
0 135 179 256 0 0 1 -49.828125 26.220486 1 0 1
concrete_concretewall001
0 171 192 216.0021 0 0.951029 0.309101 89.701172 29.003156 1 0 1
0 135 192 216.0021 0 0.951029 0.309101 89.982422 29.003156 1 0 1
0 135 179 256 0 0.951029 0.309101 89.982422 29.660286 1 0 1
concrete_concretewall001
0 171 192 216.0021 0 0.951029 0.309101 89.701172 29.003156 1 0 1
0 135 179 256 0 0.951029 0.309101 89.982422 29.660286 1 0 1
0 171 179 256 0 0.951029 0.309101 89.701172 29.660286 1 0 1
goldeneye_caverns_cavernsconcretefloor02
0 135 -84 47.001 0 1 0 -2.363919 -149.179688 1 0 1
0 135 -84 40 0 1 0 -2.455078 -149.179688 1 0 1
0 5 -84 40 0 1 0 -2.455078 -150.872396 1 0 1
goldeneye_caverns_cavernsconcretefloor02
0 135 -84 47.001 0 1 0 -2.363919 -149.179688 1 0 1
0 5 -84 40 0 1 0 -2.455078 -150.872396 1 0 1
0 5 -84 47.001 0 1 0 -2.363919 -150.872396 1 0 1
pepsi2_arch_concrete_floor_smooth01
0 5 -96 48 -1 0 0 47.25 -0.4375 1 0 1
0 5 -84.7 48 -1 0 0 47.161719 -0.4375 1 0 1
0 5 -84 47.001 -1 0 0 47.15625 -0.445305 1 0 1
pepsi2_arch_concrete_floor_smooth01
0 5 -96 48 -1 0 0 47.25 -0.4375 1 0 1
0 5 -84 47.001 -1 0 0 47.15625 -0.445305 1 0 1
0 5 -84 40 -1 0 0 47.15625 -0.5 1 0 1
goldeneye_caverns_cavernsconcretefloor02
0 135 -96 48 0 0 1 78.798828 -149.179688 1 0 1
0 135 -84.7 48 0 0 1 78.651693 -149.179688 1 0 1
0 5 -84.7 48 0 0 1 78.651693 -150.872396 1 0 1
goldeneye_caverns_cavernsconcretefloor02
0 135 -96 48 0 0 1 78.798828 -149.179688 1 0 1
0 5 -84.7 48 0 0 1 78.651693 -150.872396 1 0 1
0 5 -96 48 0 0 1 78.798828 -150.872396 1 0 1
goldeneye_caverns_cavernsconcretefloor02
0 135 -84.7 48 0 0.818962 0.573847 43.648992 -149.179688 1 0 1
0 135 -84 47.001 0 0.818962 0.573847 43.633108 -149.179688 1 0 1
0 5 -84 47.001 0 0.818962 0.573847 43.633108 -150.872396 1 0 1
goldeneye_caverns_cavernsconcretefloor02
0 135 -84.7 48 0 0.818962 0.573847 43.648992 -149.179688 1 0 1
0 5 -84 47.001 0 0.818962 0.573847 43.633108 -150.872396 1 0 1
0 5 -84.7 48 0 0.818962 0.573847 43.648992 -150.872396 1 0 1
gmod_tower_cafe_cafe_brick
0 297 192 216.0021 0 1 0 89.607422 1.750016 1 0 1
0 297 192 -82 0 1 0 89.607422 -0.578125 1 0 1
0 261 192 -82 0 1 0 89.888672 -0.578125 1 0 1
gmod_tower_cafe_cafe_brick
0 297 192 216.0021 0 1 0 89.607422 1.750016 1 0 1
0 261 192 -82 0 1 0 89.888672 -0.578125 1 0 1
0 261 192 216.0021 0 1 0 89.888672 1.750016 1 0 1
gmod_tower_cafe_cafe_brick
0 261 176 -82 -1 0 0 45.873047 -0.578125 1 0 1
0 261 176 256 -1 0 0 45.873047 2.0625 1 0 1
0 261 179 256 -1 0 0 45.849609 2.0625 1 0 1
gmod_tower_cafe_cafe_brick
0 261 176 -82 -1 0 0 45.873047 -0.578125 1 0 1
0 261 179 256 -1 0 0 45.849609 2.0625 1 0 1
0 261 192 216.0021 -1 0 0 45.748047 1.750016 1 0 1
gmod_tower_cafe_cafe_brick
0 261 176 -82 -1 0 0 45.873047 -0.578125 1 0 1
0 261 192 216.0021 -1 0 0 45.748047 1.750016 1 0 1
0 261 192 -82 -1 0 0 45.748047 -0.578125 1 0 1
gmod_tower_cafe_cafe_brick
0 297 176 256 1 0 0 -44.392578 2.0625 1 0 1
0 297 176 -82 1 0 0 -44.392578 -0.578125 1 0 1
0 297 192 -82 1 0 0 -44.267578 -0.578125 1 0 1
gmod_tower_cafe_cafe_brick
0 297 176 256 1 0 0 -44.392578 2.0625 1 0 1
0 297 192 -82 1 0 0 -44.267578 -0.578125 1 0 1
0 297 192 216.0021 1 0 0 -44.267578 1.750016 1 0 1
gmod_tower_cafe_cafe_brick
0 297 176 256 1 0 0 -44.392578 2.0625 1 0 1
0 297 192 216.0021 1 0 0 -44.267578 1.750016 1 0 1
0 297 179 256 1 0 0 -44.369141 2.0625 1 0 1
props_tarpaperroof002a
0 261 176 256 0 0 1 -49.28125 26.233507 1 0 1
0 297 176 256 0 0 1 -49.125 26.233507 1 0 1
0 297 179 256 0 0 1 -49.125 26.220486 1 0 1
props_tarpaperroof002a
0 261 176 256 0 0 1 -49.28125 26.233507 1 0 1
0 297 179 256 0 0 1 -49.125 26.220486 1 0 1
0 261 179 256 0 0 1 -49.28125 26.220486 1 0 1
concrete_concretewall001
0 297 192 216.0021 0 0.951029 0.309101 88.716797 29.003156 1 0 1
0 261 192 216.0021 0 0.951029 0.309101 88.998047 29.003156 1 0 1
0 261 179 256 0 0.951029 0.309101 88.998047 29.660286 1 0 1
concrete_concretewall001
0 297 192 216.0021 0 0.951029 0.309101 88.716797 29.003156 1 0 1
0 261 179 256 0 0.951029 0.309101 88.998047 29.660286 1 0 1
0 297 179 256 0 0.951029 0.309101 88.716797 29.660286 1 0 1
goldeneye_caverns_cavernsconcretefloor02
0 5 -132 72 0 0 1 79.5625 -150.872396 1 0 1
0 135 -132 72 0 0 1 79.5625 -149.179688 1 0 1
0 135 -120.7 72 0 0 1 79.415365 -149.179688 1 0 1
goldeneye_caverns_cavernsconcretefloor02
0 5 -132 72 0 0 1 79.5625 -150.872396 1 0 1
0 135 -120.7 72 0 0 1 79.415365 -149.179688 1 0 1
0 5 -120.7 72 0 0 1 79.415365 -150.872396 1 0 1
goldeneye_caverns_cavernsconcretefloor02
0 5 -120.7 72 0 0.818962 0.573847 44.412086 -150.872396 1 0 1
0 135 -120.7 72 0 0.818962 0.573847 44.412086 -149.179688 1 0 1
0 135 -120 71.001 0 0.818962 0.573847 44.396202 -149.179688 1 0 1
goldeneye_caverns_cavernsconcretefloor02
0 5 -120.7 72 0 0.818962 0.573847 44.412086 -150.872396 1 0 1
0 135 -120 71.001 0 0.818962 0.573847 44.396202 -149.179688 1 0 1
0 5 -120 71.001 0 0.818962 0.573847 44.396202 -150.872396 1 0 1
goldeneye_caverns_cavernsconcretefloor02
0 135 -120 64 0 1 0 -1.693359 -149.179688 1 0 1
0 5 -120 64 0 1 0 -1.693359 -150.872396 1 0 1
0 5 -120 71.001 0 1 0 -1.602201 -150.872396 1 0 1
goldeneye_caverns_cavernsconcretefloor02
0 135 -120 64 0 1 0 -1.693359 -149.179688 1 0 1
0 5 -120 71.001 0 1 0 -1.602201 -150.872396 1 0 1
0 135 -120 71.001 0 1 0 -1.602201 -149.179688 1 0 1
pepsi2_arch_concrete_floor_smooth01
0 5 -132 72 -1 0 0 47.53125 -0.25 1 0 1
0 5 -120.7 72 -1 0 0 47.442969 -0.25 1 0 1
0 5 -120 71.001 -1 0 0 47.4375 -0.257805 1 0 1
pepsi2_arch_concrete_floor_smooth01
0 5 -132 72 -1 0 0 47.53125 -0.25 1 0 1
0 5 -120 71.001 -1 0 0 47.4375 -0.257805 1 0 1
0 5 -120 64 -1 0 0 47.4375 -0.3125 1 0 1
goldeneye_caverns_cavernsconcretefloor02
0 135 24 -25 0 1 0 -2.401042 -149.179688 1 0 1
0 135 24 -32 0 1 0 -2.492188 -149.179688 1 0 1
0 5 24 -32 0 1 0 -2.492188 -150.872396 1 0 1
goldeneye_caverns_cavernsconcretefloor02
0 135 24 -25 0 1 0 -2.401042 -149.179688 1 0 1
0 5 24 -32 0 1 0 -2.492188 -150.872396 1 0 1
0 5 24 -25 0 1 0 -2.401042 -150.872396 1 0 1
pepsi2_arch_concrete_floor_smooth01
0 5 12 -24 -1 0 0 46.40625 -1 1 0 1
0 5 23.3 -24 -1 0 0 46.317969 -1 1 0 1
0 5 24 -25 -1 0 0 46.3125 -1.007812 1 0 1
pepsi2_arch_concrete_floor_smooth01
0 5 12 -24 -1 0 0 46.40625 -1 1 0 1
0 5 24 -25 -1 0 0 46.3125 -1.007812 1 0 1
0 5 24 -32 -1 0 0 46.3125 -1.0625 1 0 1
goldeneye_caverns_cavernsconcretefloor02
0 135 12 -24 0 0 1 77.761719 -149.179688 1 0 1
0 135 23.3 -24 0 0 1 77.614583 -149.179688 1 0 1
0 5 23.3 -24 0 0 1 77.614583 -150.872396 1 0 1
goldeneye_caverns_cavernsconcretefloor02
0 135 12 -24 0 0 1 77.761719 -149.179688 1 0 1
0 5 23.3 -24 0 0 1 77.614583 -150.872396 1 0 1
0 5 12 -24 0 0 1 77.761719 -150.872396 1 0 1
goldeneye_caverns_cavernsconcretefloor02
0 135 23.3 -24 0 0.819232 0.573462 41.611664 -149.179688 1 0 1
0 135 24 -25 0 0.819232 0.573462 41.59577 -149.179688 1 0 1
0 5 24 -25 0 0.819232 0.573462 41.59577 -150.872396 1 0 1
goldeneye_caverns_cavernsconcretefloor02
0 135 23.3 -24 0 0.819232 0.573462 41.611664 -149.179688 1 0 1
0 5 24 -25 0 0.819232 0.573462 41.59577 -150.872396 1 0 1
0 5 23.3 -24 0 0.819232 0.573462 41.611664 -150.872396 1 0 1
goldeneye_caverns_cavernsconcretefloor02
0 135 12 -16.999 0 1 0 -3.146471 -149.179688 1 0 1
0 135 12 -24 0 1 0 -3.23763 -149.179688 1 0 1
0 5 12 -24 0 1 0 -3.23763 -150.872396 1 0 1
goldeneye_caverns_cavernsconcretefloor02
0 135 12 -16.999 0 1 0 -3.146471 -149.179688 1 0 1
0 5 12 -24 0 1 0 -3.23763 -150.872396 1 0 1
0 5 12 -16.999 0 1 0 -3.146471 -150.872396 1 0 1
pepsi2_arch_concrete_floor_smooth01
0 5 0 -16 -1 0 0 46.5 -0.9375 1 0 1
0 5 11.3 -16 -1 0 0 46.411719 -0.9375 1 0 1
0 5 12 -16.999 -1 0 0 46.40625 -0.945305 1 0 1
pepsi2_arch_concrete_floor_smooth01
0 5 0 -16 -1 0 0 46.5 -0.9375 1 0 1
0 5 12 -16.999 -1 0 0 46.40625 -0.945305 1 0 1
0 5 12 -24 -1 0 0 46.40625 -1 1 0 1
goldeneye_caverns_cavernsconcretefloor02
0 135 0 -16 0 0 1 78.017578 -149.179688 1 0 1
0 135 11.3 -16 0 0 1 77.870443 -149.179688 1 0 1
0 5 11.3 -16 0 0 1 77.870443 -150.872396 1 0 1
goldeneye_caverns_cavernsconcretefloor02
0 135 0 -16 0 0 1 78.017578 -149.179688 1 0 1
0 5 11.3 -16 0 0 1 77.870443 -150.872396 1 0 1
0 5 0 -16 0 0 1 78.017578 -150.872396 1 0 1
goldeneye_caverns_cavernsconcretefloor02
0 135 11.3 -16 0 0.818962 0.573847 41.866679 -149.179688 1 0 1
0 135 12 -16.999 0 0.818962 0.573847 41.850796 -149.179688 1 0 1
0 5 12 -16.999 0 0.818962 0.573847 41.850796 -150.872396 1 0 1
goldeneye_caverns_cavernsconcretefloor02
0 135 11.3 -16 0 0.818962 0.573847 41.866679 -149.179688 1 0 1
0 5 12 -16.999 0 0.818962 0.573847 41.850796 -150.872396 1 0 1
0 5 11.3 -16 0 0.818962 0.573847 41.866679 -150.872396 1 0 1
goldeneye_caverns_cavernsconcretefloor02
0 135 143.3 -104 0 0.818962 0.573847 40.165023 -149.179688 1 0 1
0 135 144 -104.999 0 0.818962 0.573847 40.14914 -149.179688 1 0 1
0 5 144 -104.999 0 0.818962 0.573847 40.14914 -150.872396 1 0 1
goldeneye_caverns_cavernsconcretefloor02
0 135 143.3 -104 0 0.818962 0.573847 40.165023 -149.179688 1 0 1
0 5 144 -104.999 0 0.818962 0.573847 40.14914 -150.872396 1 0 1
0 5 143.3 -104 0 0.818962 0.573847 40.165023 -150.872396 1 0 1
goldeneye_caverns_cavernsconcretefloor02
0 135 144 -112 0 1 0 -3.938151 -149.179688 1 0 1
0 5 144 -112 0 1 0 -3.938151 -150.872396 1 0 1
0 5 144 -104.999 0 1 0 -3.846992 -150.872396 1 0 1
goldeneye_caverns_cavernsconcretefloor02
0 135 144 -112 0 1 0 -3.938151 -149.179688 1 0 1
0 5 144 -104.999 0 1 0 -3.846992 -150.872396 1 0 1
0 135 144 -104.999 0 1 0 -3.846992 -149.179688 1 0 1
pepsi2_arch_concrete_floor_smooth01
0 5 143.3 -104 -1 0 0 45.380469 -1.625 1 0 1
0 5 144 -104.999 -1 0 0 45.375 -1.632805 1 0 1
0 5 144 -112 -1 0 0 45.375 -1.6875 1 0 1
pepsi2_arch_concrete_floor_smooth01
0 5 143.3 -104 -1 0 0 45.380469 -1.625 1 0 1
0 5 144 -112 -1 0 0 45.375 -1.6875 1 0 1
0 5 132 -104 -1 0 0 45.46875 -1.625 1 0 1
goldeneye_caverns_cavernsconcretefloor02
0 5 132 -104 0 0 1 76.314453 -150.872396 1 0 1
0 135 132 -104 0 0 1 76.314453 -149.179688 1 0 1
0 135 143.3 -104 0 0 1 76.167318 -149.179688 1 0 1
goldeneye_caverns_cavernsconcretefloor02
0 5 132 -104 0 0 1 76.314453 -150.872396 1 0 1
0 135 143.3 -104 0 0 1 76.167318 -149.179688 1 0 1
0 5 143.3 -104 0 0 1 76.167318 -150.872396 1 0 1
goldeneye_caverns_cavernsconcretefloor02
0 5 48 -48 0 0 1 77.101562 -150.872396 1 0 1
0 135 48 -48 0 0 1 77.101562 -149.179688 1 0 1
0 135 59.3 -48 0 0 1 76.954427 -149.179688 1 0 1
goldeneye_caverns_cavernsconcretefloor02
0 5 48 -48 0 0 1 77.101562 -150.872396 1 0 1
0 135 59.3 -48 0 0 1 76.954427 -149.179688 1 0 1
0 5 59.3 -48 0 0 1 76.954427 -150.872396 1 0 1
goldeneye_caverns_cavernsconcretefloor02
0 5 59.3 -48 0 0.818962 0.573847 41.950133 -150.872396 1 0 1
0 135 59.3 -48 0 0.818962 0.573847 41.950133 -149.179688 1 0 1
0 135 60 -48.999 0 0.818962 0.573847 41.934249 -149.179688 1 0 1
goldeneye_caverns_cavernsconcretefloor02
0 5 59.3 -48 0 0.818962 0.573847 41.950133 -150.872396 1 0 1
0 135 60 -48.999 0 0.818962 0.573847 41.934249 -149.179688 1 0 1
0 5 60 -48.999 0 0.818962 0.573847 41.934249 -150.872396 1 0 1
goldeneye_caverns_cavernsconcretefloor02
0 135 60 -56 0 1 0 -3.154297 -149.179688 1 0 1
0 5 60 -56 0 1 0 -3.154297 -150.872396 1 0 1
0 5 60 -48.999 0 1 0 -3.063138 -150.872396 1 0 1
goldeneye_caverns_cavernsconcretefloor02
0 135 60 -56 0 1 0 -3.154297 -149.179688 1 0 1
0 5 60 -48.999 0 1 0 -3.063138 -150.872396 1 0 1
0 135 60 -48.999 0 1 0 -3.063138 -149.179688 1 0 1
pepsi2_arch_concrete_floor_smooth01
0 5 48 -48 -1 0 0 46.125 -1.1875 1 0 1
0 5 59.3 -48 -1 0 0 46.036719 -1.1875 1 0 1
0 5 60 -48.999 -1 0 0 46.03125 -1.195305 1 0 1
pepsi2_arch_concrete_floor_smooth01
0 5 48 -48 -1 0 0 46.125 -1.1875 1 0 1
0 5 60 -48.999 -1 0 0 46.03125 -1.195305 1 0 1
0 5 60 -56 -1 0 0 46.03125 -1.25 1 0 1
goldeneye_caverns_cavernsconcretefloor02
0 135 -48 23.001 0 1 0 -2.125638 -149.179688 1 0 1
0 135 -48 16 0 1 0 -2.216797 -149.179688 1 0 1
0 5 -48 16 0 1 0 -2.216797 -150.872396 1 0 1
goldeneye_caverns_cavernsconcretefloor02
0 135 -48 23.001 0 1 0 -2.125638 -149.179688 1 0 1
0 5 -48 16 0 1 0 -2.216797 -150.872396 1 0 1
0 5 -48 23.001 0 1 0 -2.125638 -150.872396 1 0 1
pepsi2_arch_concrete_floor_smooth01
0 5 -60 24 -1 0 0 46.96875 -0.625 1 0 1
0 5 -48.7 24 -1 0 0 46.880469 -0.625 1 0 1
0 5 -48 23.001 -1 0 0 46.875 -0.632805 1 0 1
pepsi2_arch_concrete_floor_smooth01
0 5 -60 24 -1 0 0 46.96875 -0.625 1 0 1
0 5 -48 23.001 -1 0 0 46.875 -0.632805 1 0 1
0 5 -48 16 -1 0 0 46.875 -0.6875 1 0 1
goldeneye_caverns_cavernsconcretefloor02
0 135 -60 24 0 0 1 79.037109 -149.179688 1 0 1
0 135 -48.7 24 0 0 1 78.889974 -149.179688 1 0 1
0 5 -48.7 24 0 0 1 78.889974 -150.872396 1 0 1
goldeneye_caverns_cavernsconcretefloor02
0 135 -60 24 0 0 1 79.037109 -149.179688 1 0 1
0 5 -48.7 24 0 0 1 78.889974 -150.872396 1 0 1
0 5 -60 24 0 0 1 79.037109 -150.872396 1 0 1
goldeneye_caverns_cavernsconcretefloor02
0 135 -48.7 24 0 0.818962 0.573847 42.885898 -149.179688 1 0 1
0 135 -48 23.001 0 0.818962 0.573847 42.870015 -149.179688 1 0 1
0 5 -48 23.001 0 0.818962 0.573847 42.870015 -150.872396 1 0 1
goldeneye_caverns_cavernsconcretefloor02
0 135 -48.7 24 0 0.818962 0.573847 42.885898 -149.179688 1 0 1
0 5 -48 23.001 0 0.818962 0.573847 42.870015 -150.872396 1 0 1
0 5 -48.7 24 0 0.818962 0.573847 42.885898 -150.872396 1 0 1
goldeneye_caverns_cavernsconcretefloor02
0 135 48 -40.999 0 1 0 -2.808581 -149.179688 1 0 1
0 135 48 -48 0 1 0 -2.89974 -149.179688 1 0 1
0 5 48 -48 0 1 0 -2.89974 -150.872396 1 0 1
goldeneye_caverns_cavernsconcretefloor02
0 135 48 -40.999 0 1 0 -2.808581 -149.179688 1 0 1
0 5 48 -48 0 1 0 -2.89974 -150.872396 1 0 1
0 5 48 -40.999 0 1 0 -2.808581 -150.872396 1 0 1
pepsi2_arch_concrete_floor_smooth01
0 5 36 -40 -1 0 0 46.21875 -1.125 1 0 1
0 5 47.3 -40 -1 0 0 46.130469 -1.125 1 0 1
0 5 48 -40.999 -1 0 0 46.125 -1.132805 1 0 1
pepsi2_arch_concrete_floor_smooth01
0 5 36 -40 -1 0 0 46.21875 -1.125 1 0 1
0 5 48 -40.999 -1 0 0 46.125 -1.132805 1 0 1
0 5 48 -48 -1 0 0 46.125 -1.1875 1 0 1
goldeneye_caverns_cavernsconcretefloor02
0 135 36 -40 0 0 1 77.355469 -149.179688 1 0 1
0 135 47.3 -40 0 0 1 77.208333 -149.179688 1 0 1
0 5 47.3 -40 0 0 1 77.208333 -150.872396 1 0 1
goldeneye_caverns_cavernsconcretefloor02
0 135 36 -40 0 0 1 77.355469 -149.179688 1 0 1
0 5 47.3 -40 0 0 1 77.208333 -150.872396 1 0 1
0 5 36 -40 0 0 1 77.355469 -150.872396 1 0 1
goldeneye_caverns_cavernsconcretefloor02
0 135 47.3 -40 0 0.818962 0.573847 41.205148 -149.179688 1 0 1
0 135 48 -40.999 0 0.818962 0.573847 41.189265 -149.179688 1 0 1
0 5 48 -40.999 0 0.818962 0.573847 41.189265 -150.872396 1 0 1
goldeneye_caverns_cavernsconcretefloor02
0 135 47.3 -40 0 0.818962 0.573847 41.205148 -149.179688 1 0 1
0 5 48 -40.999 0 0.818962 0.573847 41.189265 -150.872396 1 0 1
0 5 47.3 -40 0 0.818962 0.573847 41.205148 -150.872396 1 0 1
goldeneye_caverns_cavernsconcretefloor02
0 135 96 -72.999 0 1 0 -3.824857 -149.179688 1 0 1
0 135 96 -80 0 1 0 -3.916016 -149.179688 1 0 1
0 5 96 -80 0 1 0 -3.916016 -150.872396 1 0 1
goldeneye_caverns_cavernsconcretefloor02
0 135 96 -72.999 0 1 0 -3.824857 -149.179688 1 0 1
0 5 96 -80 0 1 0 -3.916016 -150.872396 1 0 1
0 5 96 -72.999 0 1 0 -3.824857 -150.872396 1 0 1
pepsi2_arch_concrete_floor_smooth01
0 5 84 -72 -1 0 0 45.84375 -1.375 1 0 1
0 5 95.3 -72 -1 0 0 45.755469 -1.375 1 0 1
0 5 96 -72.999 -1 0 0 45.75 -1.382805 1 0 1
pepsi2_arch_concrete_floor_smooth01
0 5 84 -72 -1 0 0 45.84375 -1.375 1 0 1
0 5 96 -72.999 -1 0 0 45.75 -1.382805 1 0 1
0 5 96 -80 -1 0 0 45.75 -1.4375 1 0 1
goldeneye_caverns_cavernsconcretefloor02
0 135 84 -72 0 0 1 77.337891 -149.179688 1 0 1
0 135 95.3 -72 0 0 1 77.190755 -149.179688 1 0 1
0 5 95.3 -72 0 0 1 77.190755 -150.872396 1 0 1
goldeneye_caverns_cavernsconcretefloor02
0 135 84 -72 0 0 1 77.337891 -149.179688 1 0 1
0 5 95.3 -72 0 0 1 77.190755 -150.872396 1 0 1
0 5 84 -72 0 0 1 77.337891 -150.872396 1 0 1
goldeneye_caverns_cavernsconcretefloor02
0 135 95.3 -72 0 0.818962 0.573847 41.188992 -149.179688 1 0 1
0 135 96 -72.999 0 0.818962 0.573847 41.173108 -149.179688 1 0 1
0 5 96 -72.999 0 0.818962 0.573847 41.173108 -150.872396 1 0 1
goldeneye_caverns_cavernsconcretefloor02
0 135 95.3 -72 0 0.818962 0.573847 41.188992 -149.179688 1 0 1
0 5 96 -72.999 0 0.818962 0.573847 41.173108 -150.872396 1 0 1
0 5 95.3 -72 0 0.818962 0.573847 41.188992 -150.872396 1 0 1
pepsi2_arch_concrete_floor_smooth01
0 5 -36 8 -1 0 0 46.78125 -0.75 1 0 1
0 5 -24.7 8 -1 0 0 46.692969 -0.75 1 0 1
0 5 -24 7.001 -1 0 0 46.6875 -0.757805 1 0 1
pepsi2_arch_concrete_floor_smooth01
0 5 -36 8 -1 0 0 46.78125 -0.75 1 0 1
0 5 -24 7.001 -1 0 0 46.6875 -0.757805 1 0 1
0 5 -24 0 -1 0 0 46.6875 -0.8125 1 0 1
goldeneye_caverns_cavernsconcretefloor02
0 135 -36 8 0 0 1 78.529297 -149.179688 1 0 1
0 135 -24.7 8 0 0 1 78.382161 -149.179688 1 0 1
0 5 -24.7 8 0 0 1 78.382161 -150.872396 1 0 1
goldeneye_caverns_cavernsconcretefloor02
0 135 -36 8 0 0 1 78.529297 -149.179688 1 0 1
0 5 -24.7 8 0 0 1 78.382161 -150.872396 1 0 1
0 5 -36 8 0 0 1 78.529297 -150.872396 1 0 1
goldeneye_caverns_cavernsconcretefloor02
0 135 -24.7 8 0 0.818962 0.573847 42.37782 -149.179688 1 0 1
0 135 -24 7.001 0 0.818962 0.573847 42.361936 -149.179688 1 0 1
0 5 -24 7.001 0 0.818962 0.573847 42.361936 -150.872396 1 0 1
goldeneye_caverns_cavernsconcretefloor02
0 135 -24.7 8 0 0.818962 0.573847 42.37782 -149.179688 1 0 1
0 5 -24 7.001 0 0.818962 0.573847 42.361936 -150.872396 1 0 1
0 5 -24.7 8 0 0.818962 0.573847 42.37782 -150.872396 1 0 1
goldeneye_caverns_cavernsconcretefloor02
0 135 -24 7.001 0 1 0 -2.634753 -149.179688 1 0 1
0 135 -24 0 0 1 0 -2.725911 -149.179688 1 0 1
0 5 -24 0 0 1 0 -2.725911 -150.872396 1 0 1
goldeneye_caverns_cavernsconcretefloor02
0 135 -24 7.001 0 1 0 -2.634753 -149.179688 1 0 1
0 5 -24 0 0 1 0 -2.725911 -150.872396 1 0 1
0 5 -24 7.001 0 1 0 -2.634753 -150.872396 1 0 1
goldeneye_caverns_cavernsconcretefloor02
0 135 -60 31.001 0 1 0 -1.873034 -149.179688 1 0 1
0 135 -60 24 0 1 0 -1.964193 -149.179688 1 0 1
0 5 -60 24 0 1 0 -1.964193 -150.872396 1 0 1
goldeneye_caverns_cavernsconcretefloor02
0 135 -60 31.001 0 1 0 -1.873034 -149.179688 1 0 1
0 5 -60 24 0 1 0 -1.964193 -150.872396 1 0 1
0 5 -60 31.001 0 1 0 -1.873034 -150.872396 1 0 1
pepsi2_arch_concrete_floor_smooth01
0 5 -72 32 -1 0 0 47.0625 -0.5625 1 0 1
0 5 -60.7 32 -1 0 0 46.974219 -0.5625 1 0 1
0 5 -60 31.001 -1 0 0 46.96875 -0.570305 1 0 1
pepsi2_arch_concrete_floor_smooth01
0 5 -72 32 -1 0 0 47.0625 -0.5625 1 0 1
0 5 -60 31.001 -1 0 0 46.96875 -0.570305 1 0 1
0 5 -60 24 -1 0 0 46.96875 -0.625 1 0 1
goldeneye_caverns_cavernsconcretefloor02
0 135 -72 32 0 0 1 79.291016 -149.179688 1 0 1
0 135 -60.7 32 0 0 1 79.14388 -149.179688 1 0 1
0 5 -60.7 32 0 0 1 79.14388 -150.872396 1 0 1
goldeneye_caverns_cavernsconcretefloor02
0 135 -72 32 0 0 1 79.291016 -149.179688 1 0 1
0 5 -60.7 32 0 0 1 79.14388 -150.872396 1 0 1
0 5 -72 32 0 0 1 79.291016 -150.872396 1 0 1
goldeneye_caverns_cavernsconcretefloor02
0 135 -60.7 32 0 0.818962 0.573847 43.140914 -149.179688 1 0 1
0 135 -60 31.001 0 0.818962 0.573847 43.12503 -149.179688 1 0 1
0 5 -60 31.001 0 0.818962 0.573847 43.12503 -150.872396 1 0 1
goldeneye_caverns_cavernsconcretefloor02
0 135 -60.7 32 0 0.818962 0.573847 43.140914 -149.179688 1 0 1
0 5 -60 31.001 0 0.818962 0.573847 43.12503 -150.872396 1 0 1
0 5 -60.7 32 0 0.818962 0.573847 43.140914 -150.872396 1 0 1
goldeneye_caverns_cavernsconcretefloor02
0 135 -180 111.001 0 1 0 -1.331367 -149.179688 1 0 1
0 135 -180 104 0 1 0 -1.422526 -149.179688 1 0 1
0 5 -180 104 0 1 0 -1.422526 -150.872396 1 0 1
goldeneye_caverns_cavernsconcretefloor02
0 135 -180 111.001 0 1 0 -1.331367 -149.179688 1 0 1
0 5 -180 104 0 1 0 -1.422526 -150.872396 1 0 1
0 5 -180 111.001 0 1 0 -1.331367 -150.872396 1 0 1
pepsi2_arch_concrete_floor_smooth01
0 5 -192 112 -1 0 0 48 0.0625 1 0 1
0 5 -180.7 112 -1 0 0 47.911719 0.0625 1 0 1
0 5 -180 111.001 -1 0 0 47.90625 0.054695 1 0 1
pepsi2_arch_concrete_floor_smooth01
0 5 -192 112 -1 0 0 48 0.0625 1 0 1
0 5 -180 111.001 -1 0 0 47.90625 0.054695 1 0 1
0 5 -180 104 -1 0 0 47.90625 0 1 0 1
goldeneye_caverns_cavernsconcretefloor02
0 135 -192 112 0 0 1 80.832031 -149.179688 1 0 1
0 135 -180.7 112 0 0 1 80.684896 -149.179688 1 0 1
0 5 -180.7 112 0 0 1 80.684896 -150.872396 1 0 1
goldeneye_caverns_cavernsconcretefloor02
0 135 -192 112 0 0 1 80.832031 -149.179688 1 0 1
0 5 -180.7 112 0 0 1 80.684896 -150.872396 1 0 1
0 5 -192 112 0 0 1 80.832031 -150.872396 1 0 1
goldeneye_caverns_cavernsconcretefloor02
0 135 -180.7 112 0 0.818962 0.573847 44.683258 -149.179688 1 0 1
0 135 -180 111.001 0 0.818962 0.573847 44.667374 -149.179688 1 0 1
0 5 -180 111.001 0 0.818962 0.573847 44.667374 -150.872396 1 0 1
goldeneye_caverns_cavernsconcretefloor02
0 135 -180.7 112 0 0.818962 0.573847 44.683258 -149.179688 1 0 1
0 5 -180 111.001 0 0.818962 0.573847 44.667374 -150.872396 1 0 1
0 5 -180.7 112 0 0.818962 0.573847 44.683258 -150.872396 1 0 1
goldeneye_caverns_cavernsconcretefloor02
0 5 -12 -8 0 0 1 78.175781 -150.872396 1 0 1
0 135 -12 -8 0 0 1 78.175781 -149.179688 1 0 1
0 135 -0.7 -8 0 0 1 78.028646 -149.179688 1 0 1
goldeneye_caverns_cavernsconcretefloor02
0 5 -12 -8 0 0 1 78.175781 -150.872396 1 0 1
0 135 -0.7 -8 0 0 1 78.028646 -149.179688 1 0 1
0 5 -0.7 -8 0 0 1 78.028646 -150.872396 1 0 1
goldeneye_caverns_cavernsconcretefloor02
0 5 -0.7 -8 0 0.818962 0.573847 42.020133 -150.872396 1 0 1
0 135 -0.7 -8 0 0.818962 0.573847 42.020133 -149.179688 1 0 1
0 135 0 -8.999 0 0.818962 0.573847 42.004249 -149.179688 1 0 1
goldeneye_caverns_cavernsconcretefloor02
0 5 -0.7 -8 0 0.818962 0.573847 42.020133 -150.872396 1 0 1
0 135 0 -8.999 0 0.818962 0.573847 42.004249 -149.179688 1 0 1
0 5 0 -8.999 0 0.818962 0.573847 42.004249 -150.872396 1 0 1
goldeneye_caverns_cavernsconcretefloor02
0 135 0 -16 0 1 0 -3.084635 -149.179688 1 0 1
0 5 0 -16 0 1 0 -3.084635 -150.872396 1 0 1
0 5 0 -8.999 0 1 0 -2.993477 -150.872396 1 0 1
goldeneye_caverns_cavernsconcretefloor02
0 135 0 -16 0 1 0 -3.084635 -149.179688 1 0 1
0 5 0 -8.999 0 1 0 -2.993477 -150.872396 1 0 1
0 135 0 -8.999 0 1 0 -2.993477 -149.179688 1 0 1
pepsi2_arch_concrete_floor_smooth01
0 5 -12 -8 -1 0 0 46.59375 -0.875 1 0 1
0 5 -0.7 -8 -1 0 0 46.505469 -0.875 1 0 1
0 5 0 -8.999 -1 0 0 46.5 -0.882805 1 0 1
pepsi2_arch_concrete_floor_smooth01
0 5 -12 -8 -1 0 0 46.59375 -0.875 1 0 1
0 5 0 -8.999 -1 0 0 46.5 -0.882805 1 0 1
0 5 0 -16 -1 0 0 46.5 -0.9375 1 0 1
goldeneye_caverns_cavernsconcretefloor02
0 135 72 -56.999 0 1 0 -3.315742 -149.179688 1 0 1
0 135 72 -64 0 1 0 -3.406901 -149.179688 1 0 1
0 5 72 -64 0 1 0 -3.406901 -150.872396 1 0 1
goldeneye_caverns_cavernsconcretefloor02
0 135 72 -56.999 0 1 0 -3.315742 -149.179688 1 0 1
0 5 72 -64 0 1 0 -3.406901 -150.872396 1 0 1
0 5 72 -56.999 0 1 0 -3.315742 -150.872396 1 0 1
pepsi2_arch_concrete_floor_smooth01
0 5 60 -56 -1 0 0 46.03125 -1.25 1 0 1
0 5 71.3 -56 -1 0 0 45.942969 -1.25 1 0 1
0 5 72 -56.999 -1 0 0 45.9375 -1.257805 1 0 1
pepsi2_arch_concrete_floor_smooth01
0 5 60 -56 -1 0 0 46.03125 -1.25 1 0 1
0 5 72 -56.999 -1 0 0 45.9375 -1.257805 1 0 1
0 5 72 -64 -1 0 0 45.9375 -1.3125 1 0 1
goldeneye_caverns_cavernsconcretefloor02
0 135 60 -56 0 0 1 76.845703 -149.179688 1 0 1
0 135 71.3 -56 0 0 1 76.698568 -149.179688 1 0 1
0 5 71.3 -56 0 0 1 76.698568 -150.872396 1 0 1
goldeneye_caverns_cavernsconcretefloor02
0 135 60 -56 0 0 1 76.845703 -149.179688 1 0 1
0 5 71.3 -56 0 0 1 76.698568 -150.872396 1 0 1
0 5 60 -56 0 0 1 76.845703 -150.872396 1 0 1
goldeneye_caverns_cavernsconcretefloor02
0 135 71.3 -56 0 0.818962 0.573847 41.69707 -149.179688 1 0 1
0 135 72 -56.999 0 0.818962 0.573847 41.681186 -149.179688 1 0 1
0 5 72 -56.999 0 0.818962 0.573847 41.681186 -150.872396 1 0 1
goldeneye_caverns_cavernsconcretefloor02
0 135 71.3 -56 0 0.818962 0.573847 41.69707 -149.179688 1 0 1
0 5 72 -56.999 0 0.818962 0.573847 41.681186 -150.872396 1 0 1
0 5 71.3 -56 0 0.818962 0.573847 41.69707 -150.872396 1 0 1
goldeneye_caverns_cavernsconcretefloor02
0 135 -108 63.001 0 1 0 -1.854805 -149.179688 1 0 1
0 135 -108 56 0 1 0 -1.945964 -149.179688 1 0 1
0 5 -108 56 0 1 0 -1.945964 -150.872396 1 0 1
goldeneye_caverns_cavernsconcretefloor02
0 135 -108 63.001 0 1 0 -1.854805 -149.179688 1 0 1
0 5 -108 56 0 1 0 -1.945964 -150.872396 1 0 1
0 5 -108 63.001 0 1 0 -1.854805 -150.872396 1 0 1
pepsi2_arch_concrete_floor_smooth01
0 5 -120 64 -1 0 0 47.4375 -0.3125 1 0 1
0 5 -108.7 64 -1 0 0 47.349219 -0.3125 1 0 1
0 5 -108 63.001 -1 0 0 47.34375 -0.320305 1 0 1
pepsi2_arch_concrete_floor_smooth01
0 5 -120 64 -1 0 0 47.4375 -0.3125 1 0 1
0 5 -108 63.001 -1 0 0 47.34375 -0.320305 1 0 1
0 5 -108 56 -1 0 0 47.34375 -0.375 1 0 1
goldeneye_caverns_cavernsconcretefloor02
0 135 -120 64 0 0 1 79.306641 -149.179688 1 0 1
0 135 -108.7 64 0 0 1 79.159505 -149.179688 1 0 1
0 5 -108.7 64 0 0 1 79.159505 -150.872396 1 0 1
goldeneye_caverns_cavernsconcretefloor02
0 135 -120 64 0 0 1 79.306641 -149.179688 1 0 1
0 5 -108.7 64 0 0 1 79.159505 -150.872396 1 0 1
0 5 -120 64 0 0 1 79.306641 -150.872396 1 0 1
goldeneye_caverns_cavernsconcretefloor02
0 135 -108.7 64 0 0.818962 0.573847 44.15707 -149.179688 1 0 1
0 135 -108 63.001 0 0.818962 0.573847 44.141186 -149.179688 1 0 1
0 5 -108 63.001 0 0.818962 0.573847 44.141186 -150.872396 1 0 1
goldeneye_caverns_cavernsconcretefloor02
0 135 -108.7 64 0 0.818962 0.573847 44.15707 -149.179688 1 0 1
0 5 -108 63.001 0 0.818962 0.573847 44.141186 -150.872396 1 0 1
0 5 -108.7 64 0 0.818962 0.573847 44.15707 -150.872396 1 0 1
pepsi2_arch_concrete_floor_smooth01
0 5 -180 104 -1 0 0 47.90625 0 1 0 1
0 5 -168.7 104 -1 0 0 47.817969 0 1 0 1
0 5 -168 103.001 -1 0 0 47.8125 -0.007805 1 0 1
pepsi2_arch_concrete_floor_smooth01
0 5 -180 104 -1 0 0 47.90625 0 1 0 1
0 5 -168 103.001 -1 0 0 47.8125 -0.007805 1 0 1
0 5 -168 96 -1 0 0 47.8125 -0.0625 1 0 1
goldeneye_caverns_cavernsconcretefloor02
0 135 -180 104 0 0 1 80.578125 -149.179688 1 0 1
0 135 -168.7 104 0 0 1 80.43099 -149.179688 1 0 1
0 5 -168.7 104 0 0 1 80.43099 -150.872396 1 0 1
goldeneye_caverns_cavernsconcretefloor02
0 135 -180 104 0 0 1 80.578125 -149.179688 1 0 1
0 5 -168.7 104 0 0 1 80.43099 -150.872396 1 0 1
0 5 -180 104 0 0 1 80.578125 -150.872396 1 0 1
goldeneye_caverns_cavernsconcretefloor02
0 135 -168.7 104 0 0.818962 0.573847 44.428242 -149.179688 1 0 1
0 135 -168 103.001 0 0.818962 0.573847 44.412358 -149.179688 1 0 1
0 5 -168 103.001 0 0.818962 0.573847 44.412358 -150.872396 1 0 1
goldeneye_caverns_cavernsconcretefloor02
0 135 -168.7 104 0 0.818962 0.573847 44.428242 -149.179688 1 0 1
0 5 -168 103.001 0 0.818962 0.573847 44.412358 -150.872396 1 0 1
0 5 -168.7 104 0 0.818962 0.573847 44.428242 -150.872396 1 0 1
goldeneye_caverns_cavernsconcretefloor02
0 135 -168 103.001 0 1 0 -1.583971 -149.179688 1 0 1
0 135 -168 96 0 1 0 -1.67513 -149.179688 1 0 1
0 5 -168 96 0 1 0 -1.67513 -150.872396 1 0 1
goldeneye_caverns_cavernsconcretefloor02
0 135 -168 103.001 0 1 0 -1.583971 -149.179688 1 0 1
0 5 -168 96 0 1 0 -1.67513 -150.872396 1 0 1
0 5 -168 103.001 0 1 0 -1.583971 -150.872396 1 0 1
goldeneye_caverns_cavernsconcretefloor02
0 135 168 -120.999 0 1 0 -4.254544 -149.179688 1 0 1
0 135 168 -128 0 1 0 -4.345703 -149.179688 1 0 1
0 5 168 -128 0 1 0 -4.345703 -150.872396 1 0 1
goldeneye_caverns_cavernsconcretefloor02
0 135 168 -120.999 0 1 0 -4.254544 -149.179688 1 0 1
0 5 168 -128 0 1 0 -4.345703 -150.872396 1 0 1
0 5 168 -120.999 0 1 0 -4.254544 -150.872396 1 0 1
pepsi2_arch_concrete_floor_smooth01
0 5 156 -120 -1 0 0 45.28125 -1.75 1 0 1
0 5 167.3 -120 -1 0 0 45.192969 -1.75 1 0 1
0 5 168 -120.999 -1 0 0 45.1875 -1.757805 1 0 1
pepsi2_arch_concrete_floor_smooth01
0 5 156 -120 -1 0 0 45.28125 -1.75 1 0 1
0 5 168 -120.999 -1 0 0 45.1875 -1.757805 1 0 1
0 5 168 -128 -1 0 0 45.1875 -1.8125 1 0 1
goldeneye_caverns_cavernsconcretefloor02
0 135 156 -120 0 0 1 75.908203 -149.179688 1 0 1
0 135 167.3 -120 0 0 1 75.761068 -149.179688 1 0 1
0 5 167.3 -120 0 0 1 75.761068 -150.872396 1 0 1
goldeneye_caverns_cavernsconcretefloor02
0 135 156 -120 0 0 1 75.908203 -149.179688 1 0 1
0 5 167.3 -120 0 0 1 75.761068 -150.872396 1 0 1
0 5 156 -120 0 0 1 75.908203 -150.872396 1 0 1
goldeneye_caverns_cavernsconcretefloor02
0 135 167.3 -120 0 0.818962 0.573847 39.758508 -149.179688 1 0 1
0 135 168 -120.999 0 0.818962 0.573847 39.742624 -149.179688 1 0 1
0 5 168 -120.999 0 0.818962 0.573847 39.742624 -150.872396 1 0 1
goldeneye_caverns_cavernsconcretefloor02
0 135 167.3 -120 0 0.818962 0.573847 39.758508 -149.179688 1 0 1
0 5 168 -120.999 0 0.818962 0.573847 39.742624 -150.872396 1 0 1
0 5 167.3 -120 0 0.818962 0.573847 39.758508 -150.872396 1 0 1
bridge_se1_metal_flat_steel_01
0 135 -208 -32 -1 0 0 -2.931641 -79.223958 1 0 1
0 135 -152 -32 -1 0 0 -2.931641 -78.494792 1 0 1
0 135 -156 -36 -1 0 0 -2.983724 -78.546875 1 0 1
bridge_se1_metal_flat_steel_01
0 135 -208 -32 -1 0 0 -2.931641 -79.223958 1 0 1
0 135 -156 -36 -1 0 0 -2.983724 -78.546875 1 0 1
0 135 -204 -36 -1 0 0 -2.983724 -79.171875 1 0 1
bridge_se1_metal_flat_steel_01
0 145 -204 -36 1 0 0 2.620443 -79.171875 1 0 1
0 145 -156 -36 1 0 0 2.620443 -78.546875 1 0 1
0 145 -152 -32 1 0 0 2.568359 -78.494792 1 0 1
bridge_se1_metal_flat_steel_01
0 145 -204 -36 1 0 0 2.620443 -79.171875 1 0 1
0 145 -152 -32 1 0 0 2.568359 -78.494792 1 0 1
0 145 -208 -32 1 0 0 2.568359 -79.223958 1 0 1
bridge_se1_metal_flat_steel_01
0 135 -204 -36 0 0 -1 -149.470703 -79.171875 1 0 1
0 135 -156 -36 0 0 -1 -149.470703 -78.546875 1 0 1
0 145 -156 -36 0 0 -1 -149.340495 -78.546875 1 0 1
bridge_se1_metal_flat_steel_01
0 135 -204 -36 0 0 -1 -149.470703 -79.171875 1 0 1
0 145 -156 -36 0 0 -1 -149.340495 -78.546875 1 0 1
0 145 -204 -36 0 0 -1 -149.340495 -79.171875 1 0 1
goldeneye_caverns_cavernsconcretefloor02
0 135 192 -136.999 0 1 0 -4.763659 -149.179688 1 0 1
0 135 192 -144 0 1 0 -4.854818 -149.179688 1 0 1
0 5 192 -144 0 1 0 -4.854818 -150.872396 1 0 1
goldeneye_caverns_cavernsconcretefloor02
0 135 192 -136.999 0 1 0 -4.763659 -149.179688 1 0 1
0 5 192 -144 0 1 0 -4.854818 -150.872396 1 0 1
0 5 192 -136.999 0 1 0 -4.763659 -150.872396 1 0 1
pepsi2_arch_concrete_floor_smooth01
0 5 180 -136 -1 0 0 45.09375 -1.875 1 0 1
0 5 191.3 -136 -1 0 0 45.005469 -1.875 1 0 1
0 5 192 -136.999 -1 0 0 45 -1.882805 1 0 1
pepsi2_arch_concrete_floor_smooth01
0 5 180 -136 -1 0 0 45.09375 -1.875 1 0 1
0 5 192 -136.999 -1 0 0 45 -1.882805 1 0 1
0 5 192 -144 -1 0 0 45 -1.9375 1 0 1
goldeneye_caverns_cavernsconcretefloor02
0 135 180 -136 0 0 1 75.398438 -149.179688 1 0 1
0 135 191.3 -136 0 0 1 75.251302 -149.179688 1 0 1
0 5 191.3 -136 0 0 1 75.251302 -150.872396 1 0 1
goldeneye_caverns_cavernsconcretefloor02
0 135 180 -136 0 0 1 75.398438 -149.179688 1 0 1
0 5 191.3 -136 0 0 1 75.251302 -150.872396 1 0 1
0 5 180 -136 0 0 1 75.398438 -150.872396 1 0 1
goldeneye_caverns_cavernsconcretefloor02
0 135 191.3 -136 0 0.818962 0.573847 39.248476 -149.179688 1 0 1
0 135 192 -136.999 0 0.818962 0.573847 39.232593 -149.179688 1 0 1
0 5 192 -136.999 0 0.818962 0.573847 39.232593 -150.872396 1 0 1
goldeneye_caverns_cavernsconcretefloor02
0 135 191.3 -136 0 0.818962 0.573847 39.248476 -149.179688 1 0 1
0 5 192 -136.999 0 0.818962 0.573847 39.232593 -150.872396 1 0 1
0 5 191.3 -136 0 0.818962 0.573847 39.248476 -150.872396 1 0 1
end
