version 1
nodes
0 "root" -1
end
skeleton
time 0
0 0 0 0 0 0 0
end
triangles
phys
0 207.997 -252 -204 0 0 1 1 0 1 0 1
0 20 -252 -204 0 0 1 1 0 1 0 1
0 20 -252 70.768 0 0 1 1 0 1 0 1
phys
0 20 -260 70.768 0 0 1 1 0 1 0 1
0 20 -260 -204 0 0 1 1 0 1 0 1
0 207.997 -260 -204 0 0 1 1 0 1 0 1
phys
0 20 -260 -204 0 0 1 1 0 1 0 1
0 20 -260 70.768 0 0 1 1 0 1 0 1
0 20 -252 70.768 0 0 1 1 0 1 0 1
phys
0 20 -260 -204 0 0 1 1 0 1 0 1
0 20 -252 70.768 0 0 1 1 0 1 0 1
0 20 -252 -204 0 0 1 1 0 1 0 1
phys
0 207.997 -260 -204 0 0 1 1 0 1 0 1
0 20 -260 -204 0 0 1 1 0 1 0 1
0 20 -252 -204 0 0 1 1 0 1 0 1
phys
0 207.997 -260 -204 0 0 1 1 0 1 0 1
0 20 -252 -204 0 0 1 1 0 1 0 1
0 207.997 -252 -204 0 0 1 1 0 1 0 1
phys
0 20 -260 70.768 0 0 1 1 0 1 0 1
0 207.997 -260 -204 0 0 1 1 0 1 0 1
0 207.997 -252 -204 0 0 1 1 0 1 0 1
phys
0 20 -260 70.768 0 0 1 1 0 1 0 1
0 207.997 -252 -204 0 0 1 1 0 1 0 1
0 20 -252 70.768 0 0 1 1 0 1 0 1
phys
0 -48 -4 32.001 0 0 1 2 0 1 0 1
0 -48 -4 -204 0 0 1 2 0 1 0 1
0 -56 -4 -204 0 0 1 2 0 1 0 1
phys
0 -48 -4 32.001 0 0 1 2 0 1 0 1
0 -56 -4 -204 0 0 1 2 0 1 0 1
0 -56 -4 20.001 0 0 1 2 0 1 0 1
phys
0 -48 -88 -204 0 0 1 2 0 1 0 1
0 -48 -88 32.001 0 0 1 2 0 1 0 1
0 -56 -88 20.001 0 0 1 2 0 1 0 1
phys
0 -48 -88 -204 0 0 1 2 0 1 0 1
0 -56 -88 20.001 0 0 1 2 0 1 0 1
0 -56 -88 -204 0 0 1 2 0 1 0 1
phys
0 -56 -88 -204 0 0 1 2 0 1 0 1
0 -56 -88 20.001 0 0 1 2 0 1 0 1
0 -56 -4 20.001 0 0 1 2 0 1 0 1
phys
0 -56 -88 -204 0 0 1 2 0 1 0 1
0 -56 -4 20.001 0 0 1 2 0 1 0 1
0 -56 -4 -204 0 0 1 2 0 1 0 1
phys
0 -48 -88 32.001 0 0 1 2 0 1 0 1
0 -48 -88 -204 0 0 1 2 0 1 0 1
0 -48 -4 -204 0 0 1 2 0 1 0 1
phys
0 -48 -88 32.001 0 0 1 2 0 1 0 1
0 -48 -4 -204 0 0 1 2 0 1 0 1
0 -48 -4 32.001 0 0 1 2 0 1 0 1
phys
0 -48 -88 -204 0 0 1 2 0 1 0 1
0 -56 -88 -204 0 0 1 2 0 1 0 1
0 -56 -4 -204 0 0 1 2 0 1 0 1
phys
0 -48 -88 -204 0 0 1 2 0 1 0 1
0 -56 -4 -204 0 0 1 2 0 1 0 1
0 -48 -4 -204 0 0 1 2 0 1 0 1
phys
0 -56 -88 20.001 0 0 1 2 0 1 0 1
0 -48 -88 32.001 0 0 1 2 0 1 0 1
0 -48 -4 32.001 0 0 1 2 0 1 0 1
phys
0 -56 -88 20.001 0 0 1 2 0 1 0 1
0 -48 -4 32.001 0 0 1 2 0 1 0 1
0 -56 -4 20.001 0 0 1 2 0 1 0 1
phys
0 20 -260 -98 0 0 1 3 0 1 0 1
0 20 -252 -98 0 0 1 3 0 1 0 1
0 20 -252 70.756 0 0 1 3 0 1 0 1
phys
0 20 -260 -98 0 0 1 3 0 1 0 1
0 20 -252 70.756 0 0 1 3 0 1 0 1
0 20 -260 70.756 0 0 1 3 0 1 0 1
phys
0 -32 -252 -98 0 0 1 3 0 1 0 1
0 20 -252 -98 0 0 1 3 0 1 0 1
0 20 -260 -98 0 0 1 3 0 1 0 1
phys
0 -32 -252 -98 0 0 1 3 0 1 0 1
0 20 -260 -98 0 0 1 3 0 1 0 1
0 -32 -260 -98 0 0 1 3 0 1 0 1
phys
0 20 -260 70.756 0 0 1 3 0 1 0 1
0 20 -252 70.756 0 0 1 3 0 1 0 1
0 -0.005 -252 99.994 0 0 1 3 0 1 0 1
phys
0 20 -260 70.756 0 0 1 3 0 1 0 1
0 -0.005 -252 99.994 0 0 1 3 0 1 0 1
0 -0.005 -260 99.994 0 0 1 3 0 1 0 1
phys
0 -0.005 -260 99.994 0 0 1 3 0 1 0 1
0 -0.005 -252 99.994 0 0 1 3 0 1 0 1
0 -32 -252 54.671 0 0 1 3 0 1 0 1
phys
0 -0.005 -260 99.994 0 0 1 3 0 1 0 1
0 -32 -252 54.671 0 0 1 3 0 1 0 1
0 -32 -260 54.671 0 0 1 3 0 1 0 1
phys
0 -0.005 -252 99.994 0 0 1 3 0 1 0 1
0 20 -252 70.756 0 0 1 3 0 1 0 1
0 20 -252 -98 0 0 1 3 0 1 0 1
phys
0 -0.005 -252 99.994 0 0 1 3 0 1 0 1
0 20 -252 -98 0 0 1 3 0 1 0 1
0 -32 -252 -98 0 0 1 3 0 1 0 1
phys
0 -0.005 -252 99.994 0 0 1 3 0 1 0 1
0 -32 -252 -98 0 0 1 3 0 1 0 1
0 -32 -252 54.671 0 0 1 3 0 1 0 1
phys
0 20 -260 -98 0 0 1 3 0 1 0 1
0 20 -260 70.756 0 0 1 3 0 1 0 1
0 -0.005 -260 99.994 0 0 1 3 0 1 0 1
phys
0 20 -260 -98 0 0 1 3 0 1 0 1
0 -0.005 -260 99.994 0 0 1 3 0 1 0 1
0 -32 -260 54.671 0 0 1 3 0 1 0 1
phys
0 20 -260 -98 0 0 1 3 0 1 0 1
0 -32 -260 54.671 0 0 1 3 0 1 0 1
0 -32 -260 -98 0 0 1 3 0 1 0 1
phys
0 -32 -260 54.671 0 0 1 3 0 1 0 1
0 -32 -252 54.671 0 0 1 3 0 1 0 1
0 -32 -252 -98 0 0 1 3 0 1 0 1
phys
0 -32 -260 54.671 0 0 1 3 0 1 0 1
0 -32 -252 -98 0 0 1 3 0 1 0 1
0 -32 -260 -98 0 0 1 3 0 1 0 1
phys
0 -48 -88 32.001 0 0 1 4 0 1 0 1
0 -48 -88 -98 0 0 1 4 0 1 0 1
0 -56 -88 -98 0 0 1 4 0 1 0 1
phys
0 -48 -88 32.001 0 0 1 4 0 1 0 1
0 -56 -88 -98 0 0 1 4 0 1 0 1
0 -56 -88 20.001 0 0 1 4 0 1 0 1
phys
0 -48 -140 -98 0 0 1 4 0 1 0 1
0 -48 -140 32.001 0 0 1 4 0 1 0 1
0 -56 -140 20.001 0 0 1 4 0 1 0 1
phys
0 -48 -140 -98 0 0 1 4 0 1 0 1
0 -56 -140 20.001 0 0 1 4 0 1 0 1
0 -56 -140 -98 0 0 1 4 0 1 0 1
phys
0 -56 -140 -98 0 0 1 4 0 1 0 1
0 -56 -140 20.001 0 0 1 4 0 1 0 1
0 -56 -88 20.001 0 0 1 4 0 1 0 1
phys
0 -56 -140 -98 0 0 1 4 0 1 0 1
0 -56 -88 20.001 0 0 1 4 0 1 0 1
0 -56 -88 -98 0 0 1 4 0 1 0 1
phys
0 -48 -140 32.001 0 0 1 4 0 1 0 1
0 -48 -140 -98 0 0 1 4 0 1 0 1
0 -48 -88 -98 0 0 1 4 0 1 0 1
phys
0 -48 -140 32.001 0 0 1 4 0 1 0 1
0 -48 -88 -98 0 0 1 4 0 1 0 1
0 -48 -88 32.001 0 0 1 4 0 1 0 1
phys
0 -48 -140 -98 0 0 1 4 0 1 0 1
0 -56 -140 -98 0 0 1 4 0 1 0 1
0 -56 -88 -98 0 0 1 4 0 1 0 1
phys
0 -48 -140 -98 0 0 1 4 0 1 0 1
0 -56 -88 -98 0 0 1 4 0 1 0 1
0 -48 -88 -98 0 0 1 4 0 1 0 1
phys
0 -56 -140 20.001 0 0 1 4 0 1 0 1
0 -48 -140 32.001 0 0 1 4 0 1 0 1
0 -48 -88 32.001 0 0 1 4 0 1 0 1
phys
0 -56 -140 20.001 0 0 1 4 0 1 0 1
0 -48 -88 32.001 0 0 1 4 0 1 0 1
0 -56 -88 20.001 0 0 1 4 0 1 0 1
phys
0 136.84 4 -100 0 0 1 5 0 1 0 1
0 -0.001 4 100 0 0 1 5 0 1 0 1
0 -0.001 -4 100 0 0 1 5 0 1 0 1
phys
0 136.84 4 -100 0 0 1 5 0 1 0 1
0 -0.001 -4 100 0 0 1 5 0 1 0 1
0 136.84 -4 -100 0 0 1 5 0 1 0 1
phys
0 -136.8408 -4 -100 0 0 1 5 0 1 0 1
0 -0.001 -4 100 0 0 1 5 0 1 0 1
0 -0.001 4 100 0 0 1 5 0 1 0 1
phys
0 -136.8408 -4 -100 0 0 1 5 0 1 0 1
0 -0.001 4 100 0 0 1 5 0 1 0 1
0 -136.8408 4 -100 0 0 1 5 0 1 0 1
phys
0 -0.001 4 100 0 0 1 5 0 1 0 1
0 136.84 4 -100 0 0 1 5 0 1 0 1
0 -136.8408 4 -100 0 0 1 5 0 1 0 1
phys
0 136.84 -4 -100 0 0 1 5 0 1 0 1
0 -0.001 -4 100 0 0 1 5 0 1 0 1
0 -136.8408 -4 -100 0 0 1 5 0 1 0 1
phys
0 -136.8408 -4 -100 0 0 1 5 0 1 0 1
0 -136.8408 4 -100 0 0 1 5 0 1 0 1
0 136.84 4 -100 0 0 1 5 0 1 0 1
phys
0 -136.8408 -4 -100 0 0 1 5 0 1 0 1
0 136.84 4 -100 0 0 1 5 0 1 0 1
0 136.84 -4 -100 0 0 1 5 0 1 0 1
phys
0 -32 -252 54.671 0 0 1 6 0 1 0 1
0 -32 -252 -204 0 0 1 6 0 1 0 1
0 -48 -252 -204 0 0 1 6 0 1 0 1
phys
0 -32 -252 54.671 0 0 1 6 0 1 0 1
0 -48 -252 -204 0 0 1 6 0 1 0 1
0 -48 -252 32.001 0 0 1 6 0 1 0 1
phys
0 -32 -260 -204 0 0 1 6 0 1 0 1
0 -32 -260 54.671 0 0 1 6 0 1 0 1
0 -48 -260 32.001 0 0 1 6 0 1 0 1
phys
0 -32 -260 -204 0 0 1 6 0 1 0 1
0 -48 -260 32.001 0 0 1 6 0 1 0 1
0 -48 -260 -204 0 0 1 6 0 1 0 1
phys
0 -48 -260 -204 0 0 1 6 0 1 0 1
0 -48 -260 32.001 0 0 1 6 0 1 0 1
0 -48 -252 32.001 0 0 1 6 0 1 0 1
phys
0 -48 -260 -204 0 0 1 6 0 1 0 1
0 -48 -252 32.001 0 0 1 6 0 1 0 1
0 -48 -252 -204 0 0 1 6 0 1 0 1
phys
0 -32 -260 54.671 0 0 1 6 0 1 0 1
0 -32 -260 -204 0 0 1 6 0 1 0 1
0 -32 -252 -204 0 0 1 6 0 1 0 1
phys
0 -32 -260 54.671 0 0 1 6 0 1 0 1
0 -32 -252 -204 0 0 1 6 0 1 0 1
0 -32 -252 54.671 0 0 1 6 0 1 0 1
phys
0 -32 -260 -204 0 0 1 6 0 1 0 1
0 -48 -260 -204 0 0 1 6 0 1 0 1
0 -48 -252 -204 0 0 1 6 0 1 0 1
phys
0 -32 -260 -204 0 0 1 6 0 1 0 1
0 -48 -252 -204 0 0 1 6 0 1 0 1
0 -32 -252 -204 0 0 1 6 0 1 0 1
phys
0 -48 -260 32.001 0 0 1 6 0 1 0 1
0 -32 -260 54.671 0 0 1 6 0 1 0 1
0 -32 -252 54.671 0 0 1 6 0 1 0 1
phys
0 -48 -260 32.001 0 0 1 6 0 1 0 1
0 -32 -252 54.671 0 0 1 6 0 1 0 1
0 -48 -252 32.001 0 0 1 6 0 1 0 1
phys
0 -57 -72 -103 0 0 1 7 0 1 0 1
0 -57 -72 -104 0 0 1 7 0 1 0 1
0 -121 -72 -104 0 0 1 7 0 1 0 1
phys
0 -57 -72 -103 0 0 1 7 0 1 0 1
0 -121 -72 -104 0 0 1 7 0 1 0 1
0 -121 -72 -103 0 0 1 7 0 1 0 1
phys
0 -57 -73 -104 0 0 1 7 0 1 0 1
0 -57 -73 -103 0 0 1 7 0 1 0 1
0 -121 -73 -103 0 0 1 7 0 1 0 1
phys
0 -57 -73 -104 0 0 1 7 0 1 0 1
0 -121 -73 -103 0 0 1 7 0 1 0 1
0 -121 -73 -104 0 0 1 7 0 1 0 1
phys
0 -121 -73 -104 0 0 1 7 0 1 0 1
0 -121 -73 -103 0 0 1 7 0 1 0 1
0 -121 -72 -103 0 0 1 7 0 1 0 1
phys
0 -121 -73 -104 0 0 1 7 0 1 0 1
0 -121 -72 -103 0 0 1 7 0 1 0 1
0 -121 -72 -104 0 0 1 7 0 1 0 1
phys
0 -57 -73 -103 0 0 1 7 0 1 0 1
0 -57 -73 -104 0 0 1 7 0 1 0 1
0 -57 -72 -104 0 0 1 7 0 1 0 1
phys
0 -57 -73 -103 0 0 1 7 0 1 0 1
0 -57 -72 -104 0 0 1 7 0 1 0 1
0 -57 -72 -103 0 0 1 7 0 1 0 1
phys
0 -57 -73 -104 0 0 1 7 0 1 0 1
0 -121 -73 -104 0 0 1 7 0 1 0 1
0 -121 -72 -104 0 0 1 7 0 1 0 1
phys
0 -57 -73 -104 0 0 1 7 0 1 0 1
0 -121 -72 -104 0 0 1 7 0 1 0 1
0 -57 -72 -104 0 0 1 7 0 1 0 1
phys
0 -121 -73 -103 0 0 1 7 0 1 0 1
0 -57 -73 -103 0 0 1 7 0 1 0 1
0 -57 -72 -103 0 0 1 7 0 1 0 1
phys
0 -121 -73 -103 0 0 1 7 0 1 0 1
0 -57 -72 -103 0 0 1 7 0 1 0 1
0 -121 -72 -103 0 0 1 7 0 1 0 1
phys
0 -56 -148 20.001 0 0 1 8 0 1 0 1
0 -56 -148 -204 0 0 1 8 0 1 0 1
0 -208.001 -148 -204 0 0 1 8 0 1 0 1
phys
0 -56 -156 -204 0 0 1 8 0 1 0 1
0 -56 -156 20.001 0 0 1 8 0 1 0 1
0 -208.001 -156 -204 0 0 1 8 0 1 0 1
phys
0 -56 -156 20.001 0 0 1 8 0 1 0 1
0 -56 -156 -204 0 0 1 8 0 1 0 1
0 -56 -148 -204 0 0 1 8 0 1 0 1
phys
0 -56 -156 20.001 0 0 1 8 0 1 0 1
0 -56 -148 -204 0 0 1 8 0 1 0 1
0 -56 -148 20.001 0 0 1 8 0 1 0 1
phys
0 -56 -156 -204 0 0 1 8 0 1 0 1
0 -208.001 -156 -204 0 0 1 8 0 1 0 1
0 -208.001 -148 -204 0 0 1 8 0 1 0 1
phys
0 -56 -156 -204 0 0 1 8 0 1 0 1
0 -208.001 -148 -204 0 0 1 8 0 1 0 1
0 -56 -148 -204 0 0 1 8 0 1 0 1
phys
0 -208.001 -156 -204 0 0 1 8 0 1 0 1
0 -56 -156 20.001 0 0 1 8 0 1 0 1
0 -56 -148 20.001 0 0 1 8 0 1 0 1
phys
0 -208.001 -156 -204 0 0 1 8 0 1 0 1
0 -56 -148 20.001 0 0 1 8 0 1 0 1
0 -208.001 -148 -204 0 0 1 8 0 1 0 1
end
