version 1
nodes
0 "root" -1
end
skeleton
time 0
0 0 0 0 0 0 0
end
triangles
wood_woodwall_016
0 207.997 -252 -204 0 1 0 -1.499988 -1 1 0 1
0 20 -252 -204 0 1 0 -0.765625 -1 1 0 1
0 20 -252 70.768 0 1 0 -0.765625 0.073312 1 0 1
wood_woodwall_016
0 20 -260 70.768 0 -1 0 -0.765625 0.073312 1 0 1
0 20 -260 -204 0 -1 0 -0.765625 -1 1 0 1
0 207.997 -260 -204 0 -1 0 -1.499988 -1 1 0 1
wood_woodwall_016
0 -56 -88 -204 -1 0 0 -9.859375 -1 1 0 1
0 -56 -88 20.001 -1 0 0 -9.859375 -0.124996 1 0 1
0 -56 -4 20.001 -1 0 0 -9.53125 -0.124996 1 0 1
wood_woodwall_016
0 -56 -88 -204 -1 0 0 -9.859375 -1 1 0 1
0 -56 -4 20.001 -1 0 0 -9.53125 -0.124996 1 0 1
0 -56 -4 -204 -1 0 0 -9.53125 -1 1 0 1
wood_woodwall_016
0 -48 -88 32.001 1 0 0 -9.859375 -0.078121 1 0 1
0 -48 -88 -204 1 0 0 -9.859375 -1 1 0 1
0 -48 -4 -204 1 0 0 -9.53125 -1 1 0 1
wood_woodwall_016
0 -48 -88 32.001 1 0 0 -9.859375 -0.078121 1 0 1
0 -48 -4 -204 1 0 0 -9.53125 -1 1 0 1
0 -48 -4 32.001 1 0 0 -9.53125 -0.078121 1 0 1
wood_woodwall_016
0 -0.005 -252 99.994 0 1 0 -0.68748 0.187477 1 0 1
0 20 -252 70.756 0 1 0 -0.765625 0.073266 1 0 1
0 20 -252 -98 0 1 0 -0.765625 -0.585938 1 0 1
wood_woodwall_016
0 -0.005 -252 99.994 0 1 0 -0.68748 0.187477 1 0 1
0 20 -252 -98 0 1 0 -0.765625 -0.585938 1 0 1
0 -32 -252 -98 0 1 0 -0.5625 -0.585938 1 0 1
wood_woodwall_016
0 -0.005 -252 99.994 0 1 0 -0.68748 0.187477 1 0 1
0 -32 -252 -98 0 1 0 -0.5625 -0.585938 1 0 1
0 -32 -252 54.671 0 1 0 -0.5625 0.010434 1 0 1
wood_woodwall_016
0 20 -260 -98 0 -1 0 -0.765625 -0.585937 1 0 1
0 20 -260 70.756 0 -1 0 -0.765625 0.073266 1 0 1
0 -0.005 -260 99.994 0 -1 0 -0.68748 0.187477 1 0 1
wood_woodwall_016
0 20 -260 -98 0 -1 0 -0.765625 -0.585937 1 0 1
0 -0.005 -260 99.994 0 -1 0 -0.68748 0.187477 1 0 1
0 -32 -260 54.671 0 -1 0 -0.5625 0.010434 1 0 1
wood_woodwall_016
0 20 -260 -98 0 -1 0 -0.765625 -0.585937 1 0 1
0 -32 -260 54.671 0 -1 0 -0.5625 0.010434 1 0 1
0 -32 -260 -98 0 -1 0 -0.5625 -0.585937 1 0 1
wood_woodwall_016
0 -56 -140 -98 -1 0 0 -10.0625 -0.585938 1 0 1
0 -56 -140 20.001 -1 0 0 -10.0625 -0.124996 1 0 1
0 -56 -88 20.001 -1 0 0 -9.859375 -0.124996 1 0 1
wood_woodwall_016
0 -56 -140 -98 -1 0 0 -10.0625 -0.585938 1 0 1
0 -56 -88 20.001 -1 0 0 -9.859375 -0.124996 1 0 1
0 -56 -88 -98 -1 0 0 -9.859375 -0.585937 1 0 1
wood_woodwall_016
0 -48 -140 32.001 1 0 0 -10.0625 -0.078121 1 0 1
0 -48 -140 -98 1 0 0 -10.0625 -0.585937 1 0 1
0 -48 -88 -98 1 0 0 -9.859375 -0.585938 1 0 1
wood_woodwall_016
0 -48 -140 32.001 1 0 0 -10.0625 -0.078121 1 0 1
0 -48 -88 -98 1 0 0 -9.859375 -0.585938 1 0 1
0 -48 -88 32.001 1 0 0 -9.859375 -0.078121 1 0 1
realworldtextures2_wood_wood_19
0 -0.001 4 100 0 1 0 -1.374992 -1.375 1 0 1
0 136.84 4 -100 0 1 0 -2.444063 -2.9375 1 0 1
0 -136.8408 4 -100 0 1 0 -0.305931 -2.9375 1 0 1
realworldtextures2_wood_wood_19
0 136.84 -4 -100 0 -1 0 -2.444062 -2.9375 1 0 1
0 -0.001 -4 100 0 -1 0 -1.374992 -1.375 1 0 1
0 -136.8408 -4 -100 0 -1 0 -0.305931 -2.9375 1 0 1
realworldtextures2_wood_wood_19
0 -136.8408 -4 -100 0 0 -1 -20.0625 0.694069 1 0 1
0 -136.8408 4 -100 0 0 -1 -20 0.694069 1 0 1
0 136.84 4 -100 0 0 -1 -20 -1.444063 1 0 1
realworldtextures2_wood_wood_19
0 -136.8408 -4 -100 0 0 -1 -20.0625 0.694069 1 0 1
0 136.84 4 -100 0 0 -1 -20 -1.444063 1 0 1
0 136.84 -4 -100 0 0 -1 -20.0625 -1.444063 1 0 1
wood_woodwall_016
0 -32 -252 54.671 0 1 0 -0.5625 0.010434 1 0 1
0 -32 -252 -204 0 1 0 -0.5625 -1 1 0 1
0 -48 -252 -204 0 1 0 -0.5 -1 1 0 1
wood_woodwall_016
0 -32 -252 54.671 0 1 0 -0.5625 0.010434 1 0 1
0 -48 -252 -204 0 1 0 -0.5 -1 1 0 1
0 -48 -252 32.001 0 1 0 -0.5 -0.078121 1 0 1
wood_woodwall_016
0 -32 -260 -204 0 -1 0 -0.5625 -1 1 0 1
0 -32 -260 54.671 0 -1 0 -0.5625 0.010434 1 0 1
0 -48 -260 32.001 0 -1 0 -0.5 -0.078121 1 0 1
wood_woodwall_016
0 -32 -260 -204 0 -1 0 -0.5625 -1 1 0 1
0 -48 -260 32.001 0 -1 0 -0.5 -0.078121 1 0 1
0 -48 -260 -204 0 -1 0 -0.5 -1 1 0 1
ajacks_ben_blackmetal
0 -57 -72 -103 0 1 0 -3.898438 2.085938 1 0 1
0 -57 -72 -104 0 1 0 -3.90625 2.085938 1 0 1
0 -121 -72 -104 0 1 0 -3.90625 1.585938 1 0 1
ajacks_ben_blackmetal
0 -57 -72 -103 0 1 0 -3.898438 2.085938 1 0 1
0 -121 -72 -104 0 1 0 -3.90625 1.585938 1 0 1
0 -121 -72 -103 0 1 0 -3.898438 1.585938 1 0 1
ajacks_ben_blackmetal
0 -57 -73 -104 0 -1 0 -3.90625 2.085938 1 0 1
0 -57 -73 -103 0 -1 0 -3.898438 2.085938 1 0 1
0 -121 -73 -103 0 -1 0 -3.898438 1.585938 1 0 1
ajacks_ben_blackmetal
0 -57 -73 -104 0 -1 0 -3.90625 2.085938 1 0 1
0 -121 -73 -103 0 -1 0 -3.898438 1.585938 1 0 1
0 -121 -73 -104 0 -1 0 -3.90625 1.585938 1 0 1
ajacks_ben_blackmetal
0 -121 -73 -104 -1 0 0 -3.90625 -19.09375 1 0 1
0 -121 -73 -103 -1 0 0 -3.898438 -19.09375 1 0 1
0 -121 -72 -103 -1 0 0 -3.898438 -19.085938 1 0 1
ajacks_ben_blackmetal
0 -121 -73 -104 -1 0 0 -3.90625 -19.09375 1 0 1
0 -121 -72 -103 -1 0 0 -3.898438 -19.085938 1 0 1
0 -121 -72 -104 -1 0 0 -3.90625 -19.085938 1 0 1
ajacks_ben_blackmetal
0 -57 -73 -103 1 0 0 -3.898438 -19.09375 1 0 1
0 -57 -73 -104 1 0 0 -3.90625 -19.09375 1 0 1
0 -57 -72 -104 1 0 0 -3.90625 -19.085938 1 0 1
ajacks_ben_blackmetal
0 -57 -73 -103 1 0 0 -3.898438 -19.09375 1 0 1
0 -57 -72 -104 1 0 0 -3.90625 -19.085938 1 0 1
0 -57 -72 -103 1 0 0 -3.898438 -19.085938 1 0 1
ajacks_ben_blackmetal
0 -57 -73 -104 0 0 -1 1.085938 -19.09375 1 0 1
0 -121 -73 -104 0 0 -1 0.585938 -19.09375 1 0 1
0 -121 -72 -104 0 0 -1 0.585938 -19.085938 1 0 1
ajacks_ben_blackmetal
0 -57 -73 -104 0 0 -1 1.085938 -19.09375 1 0 1
0 -121 -72 -104 0 0 -1 0.585938 -19.085938 1 0 1
0 -57 -72 -104 0 0 -1 1.085938 -19.085938 1 0 1
ajacks_ben_blackmetal
0 -121 -73 -103 0 0 1 0.585938 -19.09375 1 0 1
0 -57 -73 -103 0 0 1 1.085938 -19.09375 1 0 1
0 -57 -72 -103 0 0 1 1.085938 -19.085938 1 0 1
ajacks_ben_blackmetal
0 -121 -73 -103 0 0 1 0.585938 -19.09375 1 0 1
0 -57 -72 -103 0 0 1 1.085938 -19.085938 1 0 1
0 -121 -72 -103 0 0 1 0.585938 -19.085938 1 0 1
wood_woodwall_016
0 -56 -148 20.001 0 1 0 -0.46875 -0.124996 1 0 1
0 -56 -148 -204 0 1 0 -0.46875 -1 1 0 1
0 -208.001 -148 -204 0 1 0 0.125004 -1 1 0 1
wood_woodwall_016
0 -56 -156 -204 0 -1 0 -0.46875 -1 1 0 1
0 -56 -156 20.001 0 -1 0 -0.46875 -0.124996 1 0 1
0 -208.001 -156 -204 0 -1 0 0.125004 -1 1 0 1
end
