version 1
nodes
0 "root" -1
end
skeleton
time 0
0 0 0 0 0 0 0
end
triangles
phys
0 -244 -139 25 0 0 1 1 0 1 0 1
0 -244 -139 24 0 0 1 1 0 1 0 1
0 -252 -139 21 0 0 1 1 0 1 0 1
phys
0 -244 -139 25 0 0 1 1 0 1 0 1
0 -252 -139 21 0 0 1 1 0 1 0 1
0 -268 -139 21 0 0 1 1 0 1 0 1
phys
0 -244 -139 25 0 0 1 1 0 1 0 1
0 -268 -139 21 0 0 1 1 0 1 0 1
0 -268 -139 25 0 0 1 1 0 1 0 1
phys
0 -244 -267 24 0 0 1 1 0 1 0 1
0 -244 -267 25 0 0 1 1 0 1 0 1
0 -268 -267 25 0 0 1 1 0 1 0 1
phys
0 -244 -267 24 0 0 1 1 0 1 0 1
0 -268 -267 25 0 0 1 1 0 1 0 1
0 -268 -267 21 0 0 1 1 0 1 0 1
phys
0 -244 -267 24 0 0 1 1 0 1 0 1
0 -268 -267 21 0 0 1 1 0 1 0 1
0 -252 -267 21 0 0 1 1 0 1 0 1
phys
0 -268 -267 21 0 0 1 1 0 1 0 1
0 -268 -267 25 0 0 1 1 0 1 0 1
0 -268 -139 25 0 0 1 1 0 1 0 1
phys
0 -268 -267 21 0 0 1 1 0 1 0 1
0 -268 -139 25 0 0 1 1 0 1 0 1
0 -268 -139 21 0 0 1 1 0 1 0 1
phys
0 -244 -267 25 0 0 1 1 0 1 0 1
0 -244 -267 24 0 0 1 1 0 1 0 1
0 -244 -139 24 0 0 1 1 0 1 0 1
phys
0 -244 -267 25 0 0 1 1 0 1 0 1
0 -244 -139 24 0 0 1 1 0 1 0 1
0 -244 -139 25 0 0 1 1 0 1 0 1
phys
0 -252 -267 21 0 0 1 1 0 1 0 1
0 -268 -267 21 0 0 1 1 0 1 0 1
0 -268 -139 21 0 0 1 1 0 1 0 1
phys
0 -252 -267 21 0 0 1 1 0 1 0 1
0 -268 -139 21 0 0 1 1 0 1 0 1
0 -252 -139 21 0 0 1 1 0 1 0 1
phys
0 -268 -267 25 0 0 1 1 0 1 0 1
0 -244 -267 25 0 0 1 1 0 1 0 1
0 -244 -139 25 0 0 1 1 0 1 0 1
phys
0 -268 -267 25 0 0 1 1 0 1 0 1
0 -244 -139 25 0 0 1 1 0 1 0 1
0 -268 -139 25 0 0 1 1 0 1 0 1
phys
0 -244 -267 24 0 0 1 1 0 1 0 1
0 -252 -267 21 0 0 1 1 0 1 0 1
0 -252 -139 21 0 0 1 1 0 1 0 1
phys
0 -244 -267 24 0 0 1 1 0 1 0 1
0 -252 -139 21 0 0 1 1 0 1 0 1
0 -244 -139 24 0 0 1 1 0 1 0 1
phys
0 -273 -231 99 0 0 1 2 0 1 0 1
0 -273 -231 27 0 0 1 2 0 1 0 1
0 -274 -231 27 0 0 1 2 0 1 0 1
phys
0 -273 -231 99 0 0 1 2 0 1 0 1
0 -274 -231 27 0 0 1 2 0 1 0 1
0 -274 -231 99 0 0 1 2 0 1 0 1
phys
0 -273 -265 27 0 0 1 2 0 1 0 1
0 -273 -265 99 0 0 1 2 0 1 0 1
0 -274 -265 99 0 0 1 2 0 1 0 1
phys
0 -273 -265 27 0 0 1 2 0 1 0 1
0 -274 -265 99 0 0 1 2 0 1 0 1
0 -274 -265 27 0 0 1 2 0 1 0 1
phys
0 -274 -265 27 0 0 1 2 0 1 0 1
0 -274 -265 99 0 0 1 2 0 1 0 1
0 -274 -231 99 0 0 1 2 0 1 0 1
phys
0 -274 -265 27 0 0 1 2 0 1 0 1
0 -274 -231 99 0 0 1 2 0 1 0 1
0 -274 -231 27 0 0 1 2 0 1 0 1
phys
0 -273 -265 99 0 0 1 2 0 1 0 1
0 -273 -265 27 0 0 1 2 0 1 0 1
0 -273 -231 27 0 0 1 2 0 1 0 1
phys
0 -273 -265 99 0 0 1 2 0 1 0 1
0 -273 -231 27 0 0 1 2 0 1 0 1
0 -273 -231 99 0 0 1 2 0 1 0 1
phys
0 -273 -265 27 0 0 1 2 0 1 0 1
0 -274 -265 27 0 0 1 2 0 1 0 1
0 -274 -231 27 0 0 1 2 0 1 0 1
phys
0 -273 -265 27 0 0 1 2 0 1 0 1
0 -274 -231 27 0 0 1 2 0 1 0 1
0 -273 -231 27 0 0 1 2 0 1 0 1
phys
0 -274 -265 99 0 0 1 2 0 1 0 1
0 -273 -265 99 0 0 1 2 0 1 0 1
0 -273 -231 99 0 0 1 2 0 1 0 1
phys
0 -274 -265 99 0 0 1 2 0 1 0 1
0 -273 -231 99 0 0 1 2 0 1 0 1
0 -274 -231 99 0 0 1 2 0 1 0 1
phys
0 -278 -267 21 0 0 1 3 0 1 0 1
0 -278 -267 25 0 0 1 3 0 1 0 1
0 -302 -267 25 0 0 1 3 0 1 0 1
phys
0 -278 -267 21 0 0 1 3 0 1 0 1
0 -302 -267 25 0 0 1 3 0 1 0 1
0 -302 -267 24 0 0 1 3 0 1 0 1
phys
0 -278 -267 21 0 0 1 3 0 1 0 1
0 -302 -267 24 0 0 1 3 0 1 0 1
0 -294 -267 21 0 0 1 3 0 1 0 1
phys
0 -302 -267 24 0 0 1 3 0 1 0 1
0 -302 -267 25 0 0 1 3 0 1 0 1
0 -302 -139 25 0 0 1 3 0 1 0 1
phys
0 -302 -267 24 0 0 1 3 0 1 0 1
0 -302 -139 25 0 0 1 3 0 1 0 1
0 -302 -139 24 0 0 1 3 0 1 0 1
phys
0 -278 -267 25 0 0 1 3 0 1 0 1
0 -278 -267 21 0 0 1 3 0 1 0 1
0 -278 -139 21 0 0 1 3 0 1 0 1
phys
0 -278 -267 25 0 0 1 3 0 1 0 1
0 -278 -139 21 0 0 1 3 0 1 0 1
0 -278 -139 25 0 0 1 3 0 1 0 1
phys
0 -278 -267 21 0 0 1 3 0 1 0 1
0 -294 -267 21 0 0 1 3 0 1 0 1
0 -294 -139 21 0 0 1 3 0 1 0 1
phys
0 -278 -267 21 0 0 1 3 0 1 0 1
0 -294 -139 21 0 0 1 3 0 1 0 1
0 -278 -139 21 0 0 1 3 0 1 0 1
phys
0 -302 -267 25 0 0 1 3 0 1 0 1
0 -278 -267 25 0 0 1 3 0 1 0 1
0 -278 -139 25 0 0 1 3 0 1 0 1
phys
0 -302 -267 25 0 0 1 3 0 1 0 1
0 -278 -139 25 0 0 1 3 0 1 0 1
0 -302 -139 25 0 0 1 3 0 1 0 1
phys
0 -294 -267 21 0 0 1 3 0 1 0 1
0 -302 -267 24 0 0 1 3 0 1 0 1
0 -302 -139 24 0 0 1 3 0 1 0 1
phys
0 -294 -267 21 0 0 1 3 0 1 0 1
0 -302 -139 24 0 0 1 3 0 1 0 1
0 -294 -139 21 0 0 1 3 0 1 0 1
phys
0 -278 -139 25 0 0 1 3 0 1 0 1
0 -278 -139 21 0 0 1 3 0 1 0 1
0 -294 -139 21 0 0 1 3 0 1 0 1
phys
0 -278 -139 25 0 0 1 3 0 1 0 1
0 -294 -139 21 0 0 1 3 0 1 0 1
0 -302 -139 24 0 0 1 3 0 1 0 1
phys
0 -278 -139 25 0 0 1 3 0 1 0 1
0 -302 -139 24 0 0 1 3 0 1 0 1
0 -302 -139 25 0 0 1 3 0 1 0 1
phys
0 14 108 15 0 0 1 4 0 1 0 1
0 15.99981 108 10.998381 0 0 1 4 0 1 0 1
0 15.99981 242.99869 10.998381 0 0 1 4 0 1 0 1
phys
0 14 108 15 0 0 1 4 0 1 0 1
0 15.99981 242.99869 10.998381 0 0 1 4 0 1 0 1
0 14 244.998506 15 0 0 1 4 0 1 0 1
phys
0 15.99981 242.99869 10.998381 0 0 1 4 0 1 0 1
0 15.99981 108 10.998381 0 0 1 4 0 1 0 1
0 8 108 -15 0 0 1 4 0 1 0 1
phys
0 15.99981 242.99869 10.998381 0 0 1 4 0 1 0 1
0 8 108 -15 0 0 1 4 0 1 0 1
0 8 250.998525 -15 0 0 1 4 0 1 0 1
phys
0 8 108 -15 0 0 1 4 0 1 0 1
0 15.99981 108 10.998381 0 0 1 4 0 1 0 1
0 14 108 15 0 0 1 4 0 1 0 1
phys
0 8 108 -15 0 0 1 4 0 1 0 1
0 14 108 15 0 0 1 4 0 1 0 1
0 -16 108 15 0 0 1 4 0 1 0 1
phys
0 8 108 -15 0 0 1 4 0 1 0 1
0 -16 108 15 0 0 1 4 0 1 0 1
0 -16 108 -15 0 0 1 4 0 1 0 1
phys
0 -16 274.9986 -15 0 0 1 4 0 1 0 1
0 -16 108 -15 0 0 1 4 0 1 0 1
0 -16 108 15 0 0 1 4 0 1 0 1
phys
0 -16 274.9986 -15 0 0 1 4 0 1 0 1
0 -16 108 15 0 0 1 4 0 1 0 1
0 -16 274.9986 15 0 0 1 4 0 1 0 1
phys
0 8 250.998525 -15 0 0 1 4 0 1 0 1
0 8 108 -15 0 0 1 4 0 1 0 1
0 -16 108 -15 0 0 1 4 0 1 0 1
phys
0 8 250.998525 -15 0 0 1 4 0 1 0 1
0 -16 108 -15 0 0 1 4 0 1 0 1
0 -16 274.9986 -15 0 0 1 4 0 1 0 1
phys
0 -16 108 15 0 0 1 4 0 1 0 1
0 14 108 15 0 0 1 4 0 1 0 1
0 14 244.998506 15 0 0 1 4 0 1 0 1
phys
0 -16 108 15 0 0 1 4 0 1 0 1
0 14 244.998506 15 0 0 1 4 0 1 0 1
0 -16 274.9986 15 0 0 1 4 0 1 0 1
phys
0 14 244.998506 15 0 0 1 4 0 1 0 1
0 15.99981 242.99869 10.998381 0 0 1 4 0 1 0 1
0 8 250.998525 -15 0 0 1 4 0 1 0 1
phys
0 14 244.998506 15 0 0 1 4 0 1 0 1
0 8 250.998525 -15 0 0 1 4 0 1 0 1
0 -16 274.9986 -15 0 0 1 4 0 1 0 1
phys
0 14 244.998506 15 0 0 1 4 0 1 0 1
0 -16 274.9986 -15 0 0 1 4 0 1 0 1
0 -16 274.9986 15 0 0 1 4 0 1 0 1
phys
0 -268 -175 57 0 0 1 5 0 1 0 1
0 -268 -175 27 0 0 1 5 0 1 0 1
0 -278 -175 27 0 0 1 5 0 1 0 1
phys
0 -268 -175 57 0 0 1 5 0 1 0 1
0 -278 -175 27 0 0 1 5 0 1 0 1
0 -278 -175 57 0 0 1 5 0 1 0 1
phys
0 -268 -177 25 0 0 1 5 0 1 0 1
0 -268 -177 57 0 0 1 5 0 1 0 1
0 -278 -177 57 0 0 1 5 0 1 0 1
phys
0 -268 -177 25 0 0 1 5 0 1 0 1
0 -278 -177 57 0 0 1 5 0 1 0 1
0 -278 -177 25 0 0 1 5 0 1 0 1
phys
0 -278 -177 25 0 0 1 5 0 1 0 1
0 -278 -177 57 0 0 1 5 0 1 0 1
0 -278 -175 57 0 0 1 5 0 1 0 1
phys
0 -278 -177 25 0 0 1 5 0 1 0 1
0 -278 -175 57 0 0 1 5 0 1 0 1
0 -278 -175 27 0 0 1 5 0 1 0 1
phys
0 -268 -177 57 0 0 1 5 0 1 0 1
0 -268 -177 25 0 0 1 5 0 1 0 1
0 -268 -175 27 0 0 1 5 0 1 0 1
phys
0 -268 -177 57 0 0 1 5 0 1 0 1
0 -268 -175 27 0 0 1 5 0 1 0 1
0 -268 -175 57 0 0 1 5 0 1 0 1
phys
0 -278 -177 57 0 0 1 5 0 1 0 1
0 -268 -177 57 0 0 1 5 0 1 0 1
0 -268 -175 57 0 0 1 5 0 1 0 1
phys
0 -278 -177 57 0 0 1 5 0 1 0 1
0 -268 -175 57 0 0 1 5 0 1 0 1
0 -278 -175 57 0 0 1 5 0 1 0 1
phys
0 -268 -177 25 0 0 1 5 0 1 0 1
0 -278 -177 25 0 0 1 5 0 1 0 1
0 -278 -175 27 0 0 1 5 0 1 0 1
phys
0 -268 -177 25 0 0 1 5 0 1 0 1
0 -278 -175 27 0 0 1 5 0 1 0 1
0 -268 -175 27 0 0 1 5 0 1 0 1
phys
0 -268 -139 101 0 0 1 6 0 1 0 1
0 -268 -139 25 0 0 1 6 0 1 0 1
0 -278 -139 25 0 0 1 6 0 1 0 1
phys
0 -268 -139 101 0 0 1 6 0 1 0 1
0 -278 -139 25 0 0 1 6 0 1 0 1
0 -278 -139 101 0 0 1 6 0 1 0 1
phys
0 -268 -141 27 0 0 1 6 0 1 0 1
0 -268 -141 99 0 0 1 6 0 1 0 1
0 -278 -141 99 0 0 1 6 0 1 0 1
phys
0 -268 -141 27 0 0 1 6 0 1 0 1
0 -278 -141 99 0 0 1 6 0 1 0 1
0 -278 -141 27 0 0 1 6 0 1 0 1
phys
0 -278 -141 27 0 0 1 6 0 1 0 1
0 -278 -141 99 0 0 1 6 0 1 0 1
0 -278 -139 101 0 0 1 6 0 1 0 1
phys
0 -278 -141 27 0 0 1 6 0 1 0 1
0 -278 -139 101 0 0 1 6 0 1 0 1
0 -278 -139 25 0 0 1 6 0 1 0 1
phys
0 -268 -141 99 0 0 1 6 0 1 0 1
0 -268 -141 27 0 0 1 6 0 1 0 1
0 -268 -139 25 0 0 1 6 0 1 0 1
phys
0 -268 -141 99 0 0 1 6 0 1 0 1
0 -268 -139 25 0 0 1 6 0 1 0 1
0 -268 -139 101 0 0 1 6 0 1 0 1
phys
0 -278 -141 99 0 0 1 6 0 1 0 1
0 -268 -141 99 0 0 1 6 0 1 0 1
0 -268 -139 101 0 0 1 6 0 1 0 1
phys
0 -278 -141 99 0 0 1 6 0 1 0 1
0 -268 -139 101 0 0 1 6 0 1 0 1
0 -278 -139 101 0 0 1 6 0 1 0 1
phys
0 -268 -141 27 0 0 1 6 0 1 0 1
0 -278 -141 27 0 0 1 6 0 1 0 1
0 -278 -139 25 0 0 1 6 0 1 0 1
phys
0 -268 -141 27 0 0 1 6 0 1 0 1
0 -278 -139 25 0 0 1 6 0 1 0 1
0 -268 -139 25 0 0 1 6 0 1 0 1
phys
0 -278 -265 27 0 0 1 7 0 1 0 1
0 -278 -231 27 0 0 1 7 0 1 0 1
0 -278 -229 25 0 0 1 7 0 1 0 1
phys
0 -278 -265 27 0 0 1 7 0 1 0 1
0 -278 -229 25 0 0 1 7 0 1 0 1
0 -278 -267 25 0 0 1 7 0 1 0 1
phys
0 -268 -267 25 0 0 1 7 0 1 0 1
0 -268 -229 25 0 0 1 7 0 1 0 1
0 -268 -231 27 0 0 1 7 0 1 0 1
phys
0 -268 -267 25 0 0 1 7 0 1 0 1
0 -268 -231 27 0 0 1 7 0 1 0 1
0 -268 -265 27 0 0 1 7 0 1 0 1
phys
0 -278 -267 25 0 0 1 7 0 1 0 1
0 -278 -229 25 0 0 1 7 0 1 0 1
0 -268 -229 25 0 0 1 7 0 1 0 1
phys
0 -278 -267 25 0 0 1 7 0 1 0 1
0 -268 -229 25 0 0 1 7 0 1 0 1
0 -268 -267 25 0 0 1 7 0 1 0 1
phys
0 -268 -265 27 0 0 1 7 0 1 0 1
0 -268 -231 27 0 0 1 7 0 1 0 1
0 -278 -231 27 0 0 1 7 0 1 0 1
phys
0 -268 -265 27 0 0 1 7 0 1 0 1
0 -278 -231 27 0 0 1 7 0 1 0 1
0 -278 -265 27 0 0 1 7 0 1 0 1
phys
0 -268 -231 27 0 0 1 7 0 1 0 1
0 -268 -229 25 0 0 1 7 0 1 0 1
0 -278 -229 25 0 0 1 7 0 1 0 1
phys
0 -268 -231 27 0 0 1 7 0 1 0 1
0 -278 -229 25 0 0 1 7 0 1 0 1
0 -278 -231 27 0 0 1 7 0 1 0 1
phys
0 -268 -267 25 0 0 1 7 0 1 0 1
0 -268 -265 27 0 0 1 7 0 1 0 1
0 -278 -265 27 0 0 1 7 0 1 0 1
phys
0 -268 -267 25 0 0 1 7 0 1 0 1
0 -278 -265 27 0 0 1 7 0 1 0 1
0 -278 -267 25 0 0 1 7 0 1 0 1
phys
0 -268 -265 99 0 0 1 8 0 1 0 1
0 -268 -265 27 0 0 1 8 0 1 0 1
0 -278 -265 27 0 0 1 8 0 1 0 1
phys
0 -268 -265 99 0 0 1 8 0 1 0 1
0 -278 -265 27 0 0 1 8 0 1 0 1
0 -278 -265 99 0 0 1 8 0 1 0 1
phys
0 -268 -267 25 0 0 1 8 0 1 0 1
0 -268 -267 101 0 0 1 8 0 1 0 1
0 -278 -267 101 0 0 1 8 0 1 0 1
phys
0 -268 -267 25 0 0 1 8 0 1 0 1
0 -278 -267 101 0 0 1 8 0 1 0 1
0 -278 -267 25 0 0 1 8 0 1 0 1
phys
0 -278 -267 25 0 0 1 8 0 1 0 1
0 -278 -267 101 0 0 1 8 0 1 0 1
0 -278 -265 99 0 0 1 8 0 1 0 1
phys
0 -278 -267 25 0 0 1 8 0 1 0 1
0 -278 -265 99 0 0 1 8 0 1 0 1
0 -278 -265 27 0 0 1 8 0 1 0 1
phys
0 -268 -267 101 0 0 1 8 0 1 0 1
0 -268 -267 25 0 0 1 8 0 1 0 1
0 -268 -265 27 0 0 1 8 0 1 0 1
phys
0 -268 -267 101 0 0 1 8 0 1 0 1
0 -268 -265 27 0 0 1 8 0 1 0 1
0 -268 -265 99 0 0 1 8 0 1 0 1
phys
0 -278 -267 101 0 0 1 8 0 1 0 1
0 -268 -267 101 0 0 1 8 0 1 0 1
0 -268 -265 99 0 0 1 8 0 1 0 1
phys
0 -278 -267 101 0 0 1 8 0 1 0 1
0 -268 -265 99 0 0 1 8 0 1 0 1
0 -278 -265 99 0 0 1 8 0 1 0 1
phys
0 -268 -267 25 0 0 1 8 0 1 0 1
0 -278 -267 25 0 0 1 8 0 1 0 1
0 -278 -265 27 0 0 1 8 0 1 0 1
phys
0 -268 -267 25 0 0 1 8 0 1 0 1
0 -278 -265 27 0 0 1 8 0 1 0 1
0 -268 -265 27 0 0 1 8 0 1 0 1
phys
0 -268 -177 25 0 0 1 9 0 1 0 1
0 -268 -175 27 0 0 1 9 0 1 0 1
0 -278 -175 27 0 0 1 9 0 1 0 1
phys
0 -268 -177 25 0 0 1 9 0 1 0 1
0 -278 -175 27 0 0 1 9 0 1 0 1
0 -278 -177 25 0 0 1 9 0 1 0 1
phys
0 -268 -141 27 0 0 1 9 0 1 0 1
0 -268 -139 25 0 0 1 9 0 1 0 1
0 -278 -139 25 0 0 1 9 0 1 0 1
phys
0 -268 -141 27 0 0 1 9 0 1 0 1
0 -278 -139 25 0 0 1 9 0 1 0 1
0 -278 -141 27 0 0 1 9 0 1 0 1
phys
0 -278 -177 25 0 0 1 9 0 1 0 1
0 -278 -175 27 0 0 1 9 0 1 0 1
0 -278 -141 27 0 0 1 9 0 1 0 1
phys
0 -278 -177 25 0 0 1 9 0 1 0 1
0 -278 -141 27 0 0 1 9 0 1 0 1
0 -278 -139 25 0 0 1 9 0 1 0 1
phys
0 -268 -175 27 0 0 1 9 0 1 0 1
0 -268 -177 25 0 0 1 9 0 1 0 1
0 -268 -139 25 0 0 1 9 0 1 0 1
phys
0 -268 -175 27 0 0 1 9 0 1 0 1
0 -268 -139 25 0 0 1 9 0 1 0 1
0 -268 -141 27 0 0 1 9 0 1 0 1
phys
0 -268 -177 25 0 0 1 9 0 1 0 1
0 -278 -177 25 0 0 1 9 0 1 0 1
0 -278 -139 25 0 0 1 9 0 1 0 1
phys
0 -268 -177 25 0 0 1 9 0 1 0 1
0 -278 -139 25 0 0 1 9 0 1 0 1
0 -268 -139 25 0 0 1 9 0 1 0 1
phys
0 -278 -175 27 0 0 1 9 0 1 0 1
0 -268 -175 27 0 0 1 9 0 1 0 1
0 -268 -141 27 0 0 1 9 0 1 0 1
phys
0 -278 -175 27 0 0 1 9 0 1 0 1
0 -268 -141 27 0 0 1 9 0 1 0 1
0 -278 -141 27 0 0 1 9 0 1 0 1
phys
0 -268 -229 57 0 0 1 10 0 1 0 1
0 -268 -229 25 0 0 1 10 0 1 0 1
0 -278 -229 25 0 0 1 10 0 1 0 1
phys
0 -268 -229 57 0 0 1 10 0 1 0 1
0 -278 -229 25 0 0 1 10 0 1 0 1
0 -278 -229 57 0 0 1 10 0 1 0 1
phys
0 -268 -231 27 0 0 1 10 0 1 0 1
0 -268 -231 57 0 0 1 10 0 1 0 1
0 -278 -231 57 0 0 1 10 0 1 0 1
phys
0 -268 -231 27 0 0 1 10 0 1 0 1
0 -278 -231 57 0 0 1 10 0 1 0 1
0 -278 -231 27 0 0 1 10 0 1 0 1
phys
0 -278 -231 27 0 0 1 10 0 1 0 1
0 -278 -231 57 0 0 1 10 0 1 0 1
0 -278 -229 57 0 0 1 10 0 1 0 1
phys
0 -278 -231 27 0 0 1 10 0 1 0 1
0 -278 -229 57 0 0 1 10 0 1 0 1
0 -278 -229 25 0 0 1 10 0 1 0 1
phys
0 -268 -231 57 0 0 1 10 0 1 0 1
0 -268 -231 27 0 0 1 10 0 1 0 1
0 -268 -229 25 0 0 1 10 0 1 0 1
phys
0 -268 -231 57 0 0 1 10 0 1 0 1
0 -268 -229 25 0 0 1 10 0 1 0 1
0 -268 -229 57 0 0 1 10 0 1 0 1
phys
0 -278 -231 57 0 0 1 10 0 1 0 1
0 -268 -231 57 0 0 1 10 0 1 0 1
0 -268 -229 57 0 0 1 10 0 1 0 1
phys
0 -278 -231 57 0 0 1 10 0 1 0 1
0 -268 -229 57 0 0 1 10 0 1 0 1
0 -278 -229 57 0 0 1 10 0 1 0 1
phys
0 -268 -231 27 0 0 1 10 0 1 0 1
0 -278 -231 27 0 0 1 10 0 1 0 1
0 -278 -229 25 0 0 1 10 0 1 0 1
phys
0 -268 -231 27 0 0 1 10 0 1 0 1
0 -278 -229 25 0 0 1 10 0 1 0 1
0 -268 -229 25 0 0 1 10 0 1 0 1
phys
0 -55 -217 -15 0 0 1 11 0 1 0 1
0 -51 -213 -15 0 0 1 11 0 1 0 1
0 -27 -213 -15 0 0 1 11 0 1 0 1
phys
0 -55 -217 -15 0 0 1 11 0 1 0 1
0 -27 -213 -15 0 0 1 11 0 1 0 1
0 -23 -217 -15 0 0 1 11 0 1 0 1
phys
0 -55 -217 -15 0 0 1 11 0 1 0 1
0 -23 -217 -15 0 0 1 11 0 1 0 1
0 -23 -241 -15 0 0 1 11 0 1 0 1
phys
0 -55 -217 -15 0 0 1 11 0 1 0 1
0 -23 -241 -15 0 0 1 11 0 1 0 1
0 -27 -245 -15 0 0 1 11 0 1 0 1
phys
0 -55 -217 -15 0 0 1 11 0 1 0 1
0 -27 -245 -15 0 0 1 11 0 1 0 1
0 -51 -245 -15 0 0 1 11 0 1 0 1
phys
0 -55 -217 -15 0 0 1 11 0 1 0 1
0 -51 -245 -15 0 0 1 11 0 1 0 1
0 -55 -240.999 -15 0 0 1 11 0 1 0 1
phys
0 -27 -245 113 0 0 1 11 0 1 0 1
0 -23 -241 113 0 0 1 11 0 1 0 1
0 -23 -217 113 0 0 1 11 0 1 0 1
phys
0 -27 -245 113 0 0 1 11 0 1 0 1
0 -23 -217 113 0 0 1 11 0 1 0 1
0 -27 -213 113 0 0 1 11 0 1 0 1
phys
0 -27 -245 113 0 0 1 11 0 1 0 1
0 -27 -213 113 0 0 1 11 0 1 0 1
0 -51 -213 113 0 0 1 11 0 1 0 1
phys
0 -27 -245 113 0 0 1 11 0 1 0 1
0 -51 -213 113 0 0 1 11 0 1 0 1
0 -55 -217 113 0 0 1 11 0 1 0 1
phys
0 -27 -245 113 0 0 1 11 0 1 0 1
0 -55 -217 113 0 0 1 11 0 1 0 1
0 -55 -240.999 113 0 0 1 11 0 1 0 1
phys
0 -27 -245 113 0 0 1 11 0 1 0 1
0 -55 -240.999 113 0 0 1 11 0 1 0 1
0 -51 -245 113 0 0 1 11 0 1 0 1
phys
0 -55 -217 113 0 0 1 11 0 1 0 1
0 -51 -213 113 0 0 1 11 0 1 0 1
0 -51 -213 -15 0 0 1 11 0 1 0 1
phys
0 -55 -217 113 0 0 1 11 0 1 0 1
0 -51 -213 -15 0 0 1 11 0 1 0 1
0 -55 -217 -15 0 0 1 11 0 1 0 1
phys
0 -23 -217 -15 0 0 1 11 0 1 0 1
0 -27 -213 -15 0 0 1 11 0 1 0 1
0 -27 -213 113 0 0 1 11 0 1 0 1
phys
0 -23 -217 -15 0 0 1 11 0 1 0 1
0 -27 -213 113 0 0 1 11 0 1 0 1
0 -23 -217 113 0 0 1 11 0 1 0 1
phys
0 -27 -245 -15 0 0 1 11 0 1 0 1
0 -23 -241 -15 0 0 1 11 0 1 0 1
0 -23 -241 113 0 0 1 11 0 1 0 1
phys
0 -27 -245 -15 0 0 1 11 0 1 0 1
0 -23 -241 113 0 0 1 11 0 1 0 1
0 -27 -245 113 0 0 1 11 0 1 0 1
phys
0 -51 -245 113 0 0 1 11 0 1 0 1
0 -55 -240.999 113 0 0 1 11 0 1 0 1
0 -55 -240.999 -15 0 0 1 11 0 1 0 1
phys
0 -51 -245 113 0 0 1 11 0 1 0 1
0 -55 -240.999 -15 0 0 1 11 0 1 0 1
0 -51 -245 -15 0 0 1 11 0 1 0 1
phys
0 -27 -213 -15 0 0 1 11 0 1 0 1
0 -51 -213 -15 0 0 1 11 0 1 0 1
0 -51 -213 113 0 0 1 11 0 1 0 1
phys
0 -27 -213 -15 0 0 1 11 0 1 0 1
0 -51 -213 113 0 0 1 11 0 1 0 1
0 -27 -213 113 0 0 1 11 0 1 0 1
phys
0 -27 -245 113 0 0 1 11 0 1 0 1
0 -51 -245 113 0 0 1 11 0 1 0 1
0 -51 -245 -15 0 0 1 11 0 1 0 1
phys
0 -27 -245 113 0 0 1 11 0 1 0 1
0 -51 -245 -15 0 0 1 11 0 1 0 1
0 -27 -245 -15 0 0 1 11 0 1 0 1
phys
0 -55 -240.999 113 0 0 1 11 0 1 0 1
0 -55 -217 113 0 0 1 11 0 1 0 1
0 -55 -217 -15 0 0 1 11 0 1 0 1
phys
0 -55 -240.999 113 0 0 1 11 0 1 0 1
0 -55 -217 -15 0 0 1 11 0 1 0 1
0 -55 -240.999 -15 0 0 1 11 0 1 0 1
phys
0 -23 -241 -15 0 0 1 11 0 1 0 1
0 -23 -217 -15 0 0 1 11 0 1 0 1
0 -23 -217 113 0 0 1 11 0 1 0 1
phys
0 -23 -241 -15 0 0 1 11 0 1 0 1
0 -23 -217 113 0 0 1 11 0 1 0 1
0 -23 -241 113 0 0 1 11 0 1 0 1
phys
0 8 108 -15 0 0 1 12 0 1 0 1
0 -16 108 -15 0 0 1 12 0 1 0 1
0 -16 108 15 0 0 1 12 0 1 0 1
phys
0 8 108 -15 0 0 1 12 0 1 0 1
0 -16 108 15 0 0 1 12 0 1 0 1
0 14 108 15 0 0 1 12 0 1 0 1
phys
0 8 108 -15 0 0 1 12 0 1 0 1
0 14 108 15 0 0 1 12 0 1 0 1
0 15.99981 108 10.998381 0 0 1 12 0 1 0 1
phys
0 -16 -108 15 0 0 1 12 0 1 0 1
0 -16 108 15 0 0 1 12 0 1 0 1
0 -16 108 -15 0 0 1 12 0 1 0 1
phys
0 -16 -108 15 0 0 1 12 0 1 0 1
0 -16 108 -15 0 0 1 12 0 1 0 1
0 -16 -108 -15 0 0 1 12 0 1 0 1
phys
0 -16 -108 -15 0 0 1 12 0 1 0 1
0 -16 108 -15 0 0 1 12 0 1 0 1
0 8 108 -15 0 0 1 12 0 1 0 1
phys
0 -16 -108 -15 0 0 1 12 0 1 0 1
0 8 108 -15 0 0 1 12 0 1 0 1
0 8 -82.712 -15 0 0 1 12 0 1 0 1
phys
0 14 108 15 0 0 1 12 0 1 0 1
0 -16 108 15 0 0 1 12 0 1 0 1
0 -16 -108 15 0 0 1 12 0 1 0 1
phys
0 14 108 15 0 0 1 12 0 1 0 1
0 -16 -108 15 0 0 1 12 0 1 0 1
0 14 -76.39 15 0 0 1 12 0 1 0 1
phys
0 -16 -108 15 0 0 1 12 0 1 0 1
0 -16 -108 -15 0 0 1 12 0 1 0 1
0 8 -82.712 -15 0 0 1 12 0 1 0 1
phys
0 -16 -108 15 0 0 1 12 0 1 0 1
0 8 -82.712 -15 0 0 1 12 0 1 0 1
0 15.99981 -74.282867 10.998381 0 0 1 12 0 1 0 1
phys
0 -16 -108 15 0 0 1 12 0 1 0 1
0 15.99981 -74.282867 10.998381 0 0 1 12 0 1 0 1
0 14 -76.39 15 0 0 1 12 0 1 0 1
phys
0 8 -82.712 -15 0 0 1 12 0 1 0 1
0 8 108 -15 0 0 1 12 0 1 0 1
0 15.99981 108 10.998381 0 0 1 12 0 1 0 1
phys
0 8 -82.712 -15 0 0 1 12 0 1 0 1
0 15.99981 108 10.998381 0 0 1 12 0 1 0 1
0 15.99981 -74.282867 10.998381 0 0 1 12 0 1 0 1
phys
0 15.99981 108 10.998381 0 0 1 12 0 1 0 1
0 14 108 15 0 0 1 12 0 1 0 1
0 14 -76.39 15 0 0 1 12 0 1 0 1
phys
0 15.99981 108 10.998381 0 0 1 12 0 1 0 1
0 14 -76.39 15 0 0 1 12 0 1 0 1
0 15.99981 -74.282867 10.998381 0 0 1 12 0 1 0 1
phys
0 -268 -265 57 0 0 1 13 0 1 0 1
0 -268 -141 57 0 0 1 13 0 1 0 1
0 -268 -141 59 0 0 1 13 0 1 0 1
phys
0 -268 -265 57 0 0 1 13 0 1 0 1
0 -268 -141 59 0 0 1 13 0 1 0 1
0 -268 -265 59 0 0 1 13 0 1 0 1
phys
0 -278 -141 57 0 0 1 13 0 1 0 1
0 -268 -141 57 0 0 1 13 0 1 0 1
0 -268 -265 57 0 0 1 13 0 1 0 1
phys
0 -278 -141 57 0 0 1 13 0 1 0 1
0 -268 -265 57 0 0 1 13 0 1 0 1
0 -278 -265 57 0 0 1 13 0 1 0 1
phys
0 -278 -265 59 0 0 1 13 0 1 0 1
0 -268 -265 59 0 0 1 13 0 1 0 1
0 -268 -141 59 0 0 1 13 0 1 0 1
phys
0 -278 -265 59 0 0 1 13 0 1 0 1
0 -268 -141 59 0 0 1 13 0 1 0 1
0 -278 -141 59 0 0 1 13 0 1 0 1
phys
0 -268 -141 59 0 0 1 13 0 1 0 1
0 -268 -141 57 0 0 1 13 0 1 0 1
0 -278 -141 57 0 0 1 13 0 1 0 1
phys
0 -268 -141 59 0 0 1 13 0 1 0 1
0 -278 -141 57 0 0 1 13 0 1 0 1
0 -278 -141 59 0 0 1 13 0 1 0 1
phys
0 -268 -265 57 0 0 1 13 0 1 0 1
0 -268 -265 59 0 0 1 13 0 1 0 1
0 -278 -265 59 0 0 1 13 0 1 0 1
phys
0 -268 -265 57 0 0 1 13 0 1 0 1
0 -278 -265 59 0 0 1 13 0 1 0 1
0 -278 -265 57 0 0 1 13 0 1 0 1
phys
0 -278 -265 59 0 0 1 13 0 1 0 1
0 -278 -141 59 0 0 1 13 0 1 0 1
0 -278 -141 57 0 0 1 13 0 1 0 1
phys
0 -278 -265 59 0 0 1 13 0 1 0 1
0 -278 -141 57 0 0 1 13 0 1 0 1
0 -278 -265 57 0 0 1 13 0 1 0 1
phys
0 -273 -141 99 0 0 1 14 0 1 0 1
0 -273 -141 27 0 0 1 14 0 1 0 1
0 -274 -141 27 0 0 1 14 0 1 0 1
phys
0 -273 -141 99 0 0 1 14 0 1 0 1
0 -274 -141 27 0 0 1 14 0 1 0 1
0 -274 -141 99 0 0 1 14 0 1 0 1
phys
0 -273 -175 27 0 0 1 14 0 1 0 1
0 -273 -175 99 0 0 1 14 0 1 0 1
0 -274 -175 99 0 0 1 14 0 1 0 1
phys
0 -273 -175 27 0 0 1 14 0 1 0 1
0 -274 -175 99 0 0 1 14 0 1 0 1
0 -274 -175 27 0 0 1 14 0 1 0 1
phys
0 -274 -175 27 0 0 1 14 0 1 0 1
0 -274 -175 99 0 0 1 14 0 1 0 1
0 -274 -141 99 0 0 1 14 0 1 0 1
phys
0 -274 -175 27 0 0 1 14 0 1 0 1
0 -274 -141 99 0 0 1 14 0 1 0 1
0 -274 -141 27 0 0 1 14 0 1 0 1
phys
0 -273 -175 99 0 0 1 14 0 1 0 1
0 -273 -175 27 0 0 1 14 0 1 0 1
0 -273 -141 27 0 0 1 14 0 1 0 1
phys
0 -273 -175 99 0 0 1 14 0 1 0 1
0 -273 -141 27 0 0 1 14 0 1 0 1
0 -273 -141 99 0 0 1 14 0 1 0 1
phys
0 -273 -175 27 0 0 1 14 0 1 0 1
0 -274 -175 27 0 0 1 14 0 1 0 1
0 -274 -141 27 0 0 1 14 0 1 0 1
phys
0 -273 -175 27 0 0 1 14 0 1 0 1
0 -274 -141 27 0 0 1 14 0 1 0 1
0 -273 -141 27 0 0 1 14 0 1 0 1
phys
0 -274 -175 99 0 0 1 14 0 1 0 1
0 -273 -175 99 0 0 1 14 0 1 0 1
0 -273 -141 99 0 0 1 14 0 1 0 1
phys
0 -274 -175 99 0 0 1 14 0 1 0 1
0 -273 -141 99 0 0 1 14 0 1 0 1
0 -274 -141 99 0 0 1 14 0 1 0 1
end
