version 1
nodes
0 "root" -1
end
skeleton
time 0
0 0 0 0 0 0 0
end
triangles
phys
0 -47 152 136 0 0 1 1 0 1 0 1
0 -47 152 0 0 0 1 1 0 1 0 1
0 -50 152 0 0 0 1 1 0 1 0 1
phys
0 -47 152 136 0 0 1 1 0 1 0 1
0 -50 152 0 0 0 1 1 0 1 0 1
0 -50 152 136 0 0 1 1 0 1 0 1
phys
0 -47 149 0 0 0 1 1 0 1 0 1
0 -47 149 136 0 0 1 1 0 1 0 1
0 -50 149 136 0 0 1 1 0 1 0 1
phys
0 -47 149 0 0 0 1 1 0 1 0 1
0 -50 149 136 0 0 1 1 0 1 0 1
0 -50 149 0 0 0 1 1 0 1 0 1
phys
0 -50 149 0 0 0 1 1 0 1 0 1
0 -50 149 136 0 0 1 1 0 1 0 1
0 -50 152 136 0 0 1 1 0 1 0 1
phys
0 -50 149 0 0 0 1 1 0 1 0 1
0 -50 152 136 0 0 1 1 0 1 0 1
0 -50 152 0 0 0 1 1 0 1 0 1
phys
0 -47 149 136 0 0 1 1 0 1 0 1
0 -47 149 0 0 0 1 1 0 1 0 1
0 -47 152 0 0 0 1 1 0 1 0 1
phys
0 -47 149 136 0 0 1 1 0 1 0 1
0 -47 152 0 0 0 1 1 0 1 0 1
0 -47 152 136 0 0 1 1 0 1 0 1
phys
0 -47 149 0 0 0 1 1 0 1 0 1
0 -50 149 0 0 0 1 1 0 1 0 1
0 -50 152 0 0 0 1 1 0 1 0 1
phys
0 -47 149 0 0 0 1 1 0 1 0 1
0 -50 152 0 0 0 1 1 0 1 0 1
0 -47 152 0 0 0 1 1 0 1 0 1
phys
0 -50 149 136 0 0 1 1 0 1 0 1
0 -47 149 136 0 0 1 1 0 1 0 1
0 -47 152 136 0 0 1 1 0 1 0 1
phys
0 -50 149 136 0 0 1 1 0 1 0 1
0 -47 152 136 0 0 1 1 0 1 0 1
0 -50 152 136 0 0 1 1 0 1 0 1
phys
0 -194 -149 49 0 0 1 2 0 1 0 1
0 -194 7 49 0 0 1 2 0 1 0 1
0 -194 9 47 0 0 1 2 0 1 0 1
phys
0 -194 -149 49 0 0 1 2 0 1 0 1
0 -194 9 47 0 0 1 2 0 1 0 1
0 -194 -151 47 0 0 1 2 0 1 0 1
phys
0 -184 -151 47 0 0 1 2 0 1 0 1
0 -184 9 47 0 0 1 2 0 1 0 1
0 -184 7 49 0 0 1 2 0 1 0 1
phys
0 -184 -151 47 0 0 1 2 0 1 0 1
0 -184 7 49 0 0 1 2 0 1 0 1
0 -184 -149 49 0 0 1 2 0 1 0 1
phys
0 -194 -151 47 0 0 1 2 0 1 0 1
0 -194 9 47 0 0 1 2 0 1 0 1
0 -184 9 47 0 0 1 2 0 1 0 1
phys
0 -194 -151 47 0 0 1 2 0 1 0 1
0 -184 9 47 0 0 1 2 0 1 0 1
0 -184 -151 47 0 0 1 2 0 1 0 1
phys
0 -184 -149 49 0 0 1 2 0 1 0 1
0 -184 7 49 0 0 1 2 0 1 0 1
0 -194 7 49 0 0 1 2 0 1 0 1
phys
0 -184 -149 49 0 0 1 2 0 1 0 1
0 -194 7 49 0 0 1 2 0 1 0 1
0 -194 -149 49 0 0 1 2 0 1 0 1
phys
0 -184 7 49 0 0 1 2 0 1 0 1
0 -184 9 47 0 0 1 2 0 1 0 1
0 -194 9 47 0 0 1 2 0 1 0 1
phys
0 -184 7 49 0 0 1 2 0 1 0 1
0 -194 9 47 0 0 1 2 0 1 0 1
0 -194 7 49 0 0 1 2 0 1 0 1
phys
0 -184 -151 47 0 0 1 2 0 1 0 1
0 -184 -149 49 0 0 1 2 0 1 0 1
0 -194 -149 49 0 0 1 2 0 1 0 1
phys
0 -184 -151 47 0 0 1 2 0 1 0 1
0 -194 -149 49 0 0 1 2 0 1 0 1
0 -194 -151 47 0 0 1 2 0 1 0 1
phys
0 -44 149 136 0 0 1 3 0 1 0 1
0 -41 149 136 0 0 1 3 0 1 0 1
0 -41 152 136 0 0 1 3 0 1 0 1
phys
0 -44 149 136 0 0 1 3 0 1 0 1
0 -41 152 136 0 0 1 3 0 1 0 1
0 -44 152 136 0 0 1 3 0 1 0 1
phys
0 -44 152 0 0 0 1 3 0 1 0 1
0 -44 152 136 0 0 1 3 0 1 0 1
0 -41 152 136 0 0 1 3 0 1 0 1
phys
0 -44 152 0 0 0 1 3 0 1 0 1
0 -41 152 136 0 0 1 3 0 1 0 1
0 -41 152 0 0 0 1 3 0 1 0 1
phys
0 -41 149 0 0 0 1 3 0 1 0 1
0 -41 149 136 0 0 1 3 0 1 0 1
0 -44 149 136 0 0 1 3 0 1 0 1
phys
0 -41 149 0 0 0 1 3 0 1 0 1
0 -44 149 136 0 0 1 3 0 1 0 1
0 -44 149 0 0 0 1 3 0 1 0 1
phys
0 -44 149 0 0 0 1 3 0 1 0 1
0 -44 149 136 0 0 1 3 0 1 0 1
0 -44 152 136 0 0 1 3 0 1 0 1
phys
0 -44 149 0 0 0 1 3 0 1 0 1
0 -44 152 136 0 0 1 3 0 1 0 1
0 -44 152 0 0 0 1 3 0 1 0 1
phys
0 -41 152 0 0 0 1 3 0 1 0 1
0 -41 152 136 0 0 1 3 0 1 0 1
0 -41 149 136 0 0 1 3 0 1 0 1
phys
0 -41 152 0 0 0 1 3 0 1 0 1
0 -41 149 136 0 0 1 3 0 1 0 1
0 -41 149 0 0 0 1 3 0 1 0 1
phys
0 -41 149 0 0 0 1 3 0 1 0 1
0 -44 149 0 0 0 1 3 0 1 0 1
0 -44 152 0 0 0 1 3 0 1 0 1
phys
0 -41 149 0 0 0 1 3 0 1 0 1
0 -44 152 0 0 0 1 3 0 1 0 1
0 -41 152 0 0 0 1 3 0 1 0 1
phys
0 -184 7 91 0 0 1 4 0 1 0 1
0 -184 7 89 0 0 1 4 0 1 0 1
0 -194 7 89 0 0 1 4 0 1 0 1
phys
0 -184 7 91 0 0 1 4 0 1 0 1
0 -194 7 89 0 0 1 4 0 1 0 1
0 -194 7 91 0 0 1 4 0 1 0 1
phys
0 -184 -149 89 0 0 1 4 0 1 0 1
0 -184 -149 91 0 0 1 4 0 1 0 1
0 -194 -149 91 0 0 1 4 0 1 0 1
phys
0 -184 -149 89 0 0 1 4 0 1 0 1
0 -194 -149 91 0 0 1 4 0 1 0 1
0 -194 -149 89 0 0 1 4 0 1 0 1
phys
0 -194 -149 89 0 0 1 4 0 1 0 1
0 -194 -149 91 0 0 1 4 0 1 0 1
0 -194 7 91 0 0 1 4 0 1 0 1
phys
0 -194 -149 89 0 0 1 4 0 1 0 1
0 -194 7 91 0 0 1 4 0 1 0 1
0 -194 7 89 0 0 1 4 0 1 0 1
phys
0 -184 -149 91 0 0 1 4 0 1 0 1
0 -184 -149 89 0 0 1 4 0 1 0 1
0 -184 7 89 0 0 1 4 0 1 0 1
phys
0 -184 -149 91 0 0 1 4 0 1 0 1
0 -184 7 89 0 0 1 4 0 1 0 1
0 -184 7 91 0 0 1 4 0 1 0 1
phys
0 -184 -149 89 0 0 1 4 0 1 0 1
0 -194 -149 89 0 0 1 4 0 1 0 1
0 -194 7 89 0 0 1 4 0 1 0 1
phys
0 -184 -149 89 0 0 1 4 0 1 0 1
0 -194 7 89 0 0 1 4 0 1 0 1
0 -184 7 89 0 0 1 4 0 1 0 1
phys
0 -194 -149 91 0 0 1 4 0 1 0 1
0 -184 -149 91 0 0 1 4 0 1 0 1
0 -184 7 91 0 0 1 4 0 1 0 1
phys
0 -194 -149 91 0 0 1 4 0 1 0 1
0 -184 7 91 0 0 1 4 0 1 0 1
0 -194 7 91 0 0 1 4 0 1 0 1
phys
0 204 152 160 0 0 1 5 0 1 0 1
0 204 152 136 0 0 1 5 0 1 0 1
0 -184 152 136 0 0 1 5 0 1 0 1
phys
0 204 152 160 0 0 1 5 0 1 0 1
0 -184 152 136 0 0 1 5 0 1 0 1
0 -184 152 160 0 0 1 5 0 1 0 1
phys
0 204 93 136 0 0 1 5 0 1 0 1
0 204 93 160 0 0 1 5 0 1 0 1
0 -184 93 160 0 0 1 5 0 1 0 1
phys
0 204 93 136 0 0 1 5 0 1 0 1
0 -184 93 160 0 0 1 5 0 1 0 1
0 -184 93 136 0 0 1 5 0 1 0 1
phys
0 -184 93 136 0 0 1 5 0 1 0 1
0 -184 93 160 0 0 1 5 0 1 0 1
0 -184 152 160 0 0 1 5 0 1 0 1
phys
0 -184 93 136 0 0 1 5 0 1 0 1
0 -184 152 160 0 0 1 5 0 1 0 1
0 -184 152 136 0 0 1 5 0 1 0 1
phys
0 204 93 160 0 0 1 5 0 1 0 1
0 204 93 136 0 0 1 5 0 1 0 1
0 204 152 136 0 0 1 5 0 1 0 1
phys
0 204 93 160 0 0 1 5 0 1 0 1
0 204 152 136 0 0 1 5 0 1 0 1
0 204 152 160 0 0 1 5 0 1 0 1
phys
0 204 93 136 0 0 1 5 0 1 0 1
0 -184 93 136 0 0 1 5 0 1 0 1
0 -184 152 136 0 0 1 5 0 1 0 1
phys
0 204 93 136 0 0 1 5 0 1 0 1
0 -184 152 136 0 0 1 5 0 1 0 1
0 204 152 136 0 0 1 5 0 1 0 1
phys
0 -184 93 160 0 0 1 5 0 1 0 1
0 204 93 160 0 0 1 5 0 1 0 1
0 204 152 160 0 0 1 5 0 1 0 1
phys
0 -184 93 160 0 0 1 5 0 1 0 1
0 204 152 160 0 0 1 5 0 1 0 1
0 -184 152 160 0 0 1 5 0 1 0 1
phys
0 -184 -45 91 0 0 1 6 0 1 0 1
0 -184 -43 91 0 0 1 6 0 1 0 1
0 -184 -43 131 0 0 1 6 0 1 0 1
phys
0 -184 -45 91 0 0 1 6 0 1 0 1
0 -184 -43 131 0 0 1 6 0 1 0 1
0 -184 -45 131 0 0 1 6 0 1 0 1
phys
0 -194 -43 91 0 0 1 6 0 1 0 1
0 -184 -43 91 0 0 1 6 0 1 0 1
0 -184 -45 91 0 0 1 6 0 1 0 1
phys
0 -194 -43 91 0 0 1 6 0 1 0 1
0 -184 -45 91 0 0 1 6 0 1 0 1
0 -194 -45 91 0 0 1 6 0 1 0 1
phys
0 -194 -45 131 0 0 1 6 0 1 0 1
0 -184 -45 131 0 0 1 6 0 1 0 1
0 -184 -43 131 0 0 1 6 0 1 0 1
phys
0 -194 -45 131 0 0 1 6 0 1 0 1
0 -184 -43 131 0 0 1 6 0 1 0 1
0 -194 -43 131 0 0 1 6 0 1 0 1
phys
0 -184 -43 131 0 0 1 6 0 1 0 1
0 -184 -43 91 0 0 1 6 0 1 0 1
0 -194 -43 91 0 0 1 6 0 1 0 1
phys
0 -184 -43 131 0 0 1 6 0 1 0 1
0 -194 -43 91 0 0 1 6 0 1 0 1
0 -194 -43 131 0 0 1 6 0 1 0 1
phys
0 -184 -45 91 0 0 1 6 0 1 0 1
0 -184 -45 131 0 0 1 6 0 1 0 1
0 -194 -45 131 0 0 1 6 0 1 0 1
phys
0 -184 -45 91 0 0 1 6 0 1 0 1
0 -194 -45 131 0 0 1 6 0 1 0 1
0 -194 -45 91 0 0 1 6 0 1 0 1
phys
0 -194 -45 131 0 0 1 6 0 1 0 1
0 -194 -43 131 0 0 1 6 0 1 0 1
0 -194 -43 91 0 0 1 6 0 1 0 1
phys
0 -194 -45 131 0 0 1 6 0 1 0 1
0 -194 -43 91 0 0 1 6 0 1 0 1
0 -194 -45 91 0 0 1 6 0 1 0 1
phys
0 -184 -97 131 0 0 1 7 0 1 0 1
0 -184 -97 91 0 0 1 7 0 1 0 1
0 -194 -97 91 0 0 1 7 0 1 0 1
phys
0 -184 -97 131 0 0 1 7 0 1 0 1
0 -194 -97 91 0 0 1 7 0 1 0 1
0 -194 -97 131 0 0 1 7 0 1 0 1
phys
0 -184 -99 91 0 0 1 7 0 1 0 1
0 -184 -99 131 0 0 1 7 0 1 0 1
0 -194 -99 131 0 0 1 7 0 1 0 1
phys
0 -184 -99 91 0 0 1 7 0 1 0 1
0 -194 -99 131 0 0 1 7 0 1 0 1
0 -194 -99 91 0 0 1 7 0 1 0 1
phys
0 -194 -99 91 0 0 1 7 0 1 0 1
0 -194 -99 131 0 0 1 7 0 1 0 1
0 -194 -97 131 0 0 1 7 0 1 0 1
phys
0 -194 -99 91 0 0 1 7 0 1 0 1
0 -194 -97 131 0 0 1 7 0 1 0 1
0 -194 -97 91 0 0 1 7 0 1 0 1
phys
0 -184 -99 131 0 0 1 7 0 1 0 1
0 -184 -99 91 0 0 1 7 0 1 0 1
0 -184 -97 91 0 0 1 7 0 1 0 1
phys
0 -184 -99 131 0 0 1 7 0 1 0 1
0 -184 -97 91 0 0 1 7 0 1 0 1
0 -184 -97 131 0 0 1 7 0 1 0 1
phys
0 -184 -99 91 0 0 1 7 0 1 0 1
0 -194 -99 91 0 0 1 7 0 1 0 1
0 -194 -97 91 0 0 1 7 0 1 0 1
phys
0 -184 -99 91 0 0 1 7 0 1 0 1
0 -194 -97 91 0 0 1 7 0 1 0 1
0 -184 -97 91 0 0 1 7 0 1 0 1
phys
0 -194 -99 131 0 0 1 7 0 1 0 1
0 -184 -99 131 0 0 1 7 0 1 0 1
0 -184 -97 131 0 0 1 7 0 1 0 1
phys
0 -194 -99 131 0 0 1 7 0 1 0 1
0 -184 -97 131 0 0 1 7 0 1 0 1
0 -194 -97 131 0 0 1 7 0 1 0 1
phys
0 76 152 136 0 0 1 8 0 1 0 1
0 76 152 0 0 0 1 8 0 1 0 1
0 73 152 0 0 0 1 8 0 1 0 1
phys
0 76 152 136 0 0 1 8 0 1 0 1
0 73 152 0 0 0 1 8 0 1 0 1
0 73 152 136 0 0 1 8 0 1 0 1
phys
0 76 149 0 0 0 1 8 0 1 0 1
0 76 149 136 0 0 1 8 0 1 0 1
0 73 149 136 0 0 1 8 0 1 0 1
phys
0 76 149 0 0 0 1 8 0 1 0 1
0 73 149 136 0 0 1 8 0 1 0 1
0 73 149 0 0 0 1 8 0 1 0 1
phys
0 73 149 0 0 0 1 8 0 1 0 1
0 73 149 136 0 0 1 8 0 1 0 1
0 73 152 136 0 0 1 8 0 1 0 1
phys
0 73 149 0 0 0 1 8 0 1 0 1
0 73 152 136 0 0 1 8 0 1 0 1
0 73 152 0 0 0 1 8 0 1 0 1
phys
0 76 149 136 0 0 1 8 0 1 0 1
0 76 149 0 0 0 1 8 0 1 0 1
0 76 152 0 0 0 1 8 0 1 0 1
phys
0 76 149 136 0 0 1 8 0 1 0 1
0 76 152 0 0 0 1 8 0 1 0 1
0 76 152 136 0 0 1 8 0 1 0 1
phys
0 76 149 0 0 0 1 8 0 1 0 1
0 73 149 0 0 0 1 8 0 1 0 1
0 73 152 0 0 0 1 8 0 1 0 1
phys
0 76 149 0 0 0 1 8 0 1 0 1
0 73 152 0 0 0 1 8 0 1 0 1
0 76 152 0 0 0 1 8 0 1 0 1
phys
0 73 149 136 0 0 1 8 0 1 0 1
0 76 149 136 0 0 1 8 0 1 0 1
0 76 152 136 0 0 1 8 0 1 0 1
phys
0 73 149 136 0 0 1 8 0 1 0 1
0 76 152 136 0 0 1 8 0 1 0 1
0 73 152 136 0 0 1 8 0 1 0 1
phys
0 -184 -43 89 0 0 1 9 0 1 0 1
0 -184 -43 49 0 0 1 9 0 1 0 1
0 -194 -43 49 0 0 1 9 0 1 0 1
phys
0 -184 -43 89 0 0 1 9 0 1 0 1
0 -194 -43 49 0 0 1 9 0 1 0 1
0 -194 -43 89 0 0 1 9 0 1 0 1
phys
0 -184 -45 49 0 0 1 9 0 1 0 1
0 -184 -45 89 0 0 1 9 0 1 0 1
0 -194 -45 89 0 0 1 9 0 1 0 1
phys
0 -184 -45 49 0 0 1 9 0 1 0 1
0 -194 -45 89 0 0 1 9 0 1 0 1
0 -194 -45 49 0 0 1 9 0 1 0 1
phys
0 -194 -45 49 0 0 1 9 0 1 0 1
0 -194 -45 89 0 0 1 9 0 1 0 1
0 -194 -43 89 0 0 1 9 0 1 0 1
phys
0 -194 -45 49 0 0 1 9 0 1 0 1
0 -194 -43 89 0 0 1 9 0 1 0 1
0 -194 -43 49 0 0 1 9 0 1 0 1
phys
0 -184 -45 89 0 0 1 9 0 1 0 1
0 -184 -45 49 0 0 1 9 0 1 0 1
0 -184 -43 49 0 0 1 9 0 1 0 1
phys
0 -184 -45 89 0 0 1 9 0 1 0 1
0 -184 -43 49 0 0 1 9 0 1 0 1
0 -184 -43 89 0 0 1 9 0 1 0 1
phys
0 -184 -45 49 0 0 1 9 0 1 0 1
0 -194 -45 49 0 0 1 9 0 1 0 1
0 -194 -43 49 0 0 1 9 0 1 0 1
phys
0 -184 -45 49 0 0 1 9 0 1 0 1
0 -194 -43 49 0 0 1 9 0 1 0 1
0 -184 -43 49 0 0 1 9 0 1 0 1
phys
0 -194 -45 89 0 0 1 9 0 1 0 1
0 -184 -45 89 0 0 1 9 0 1 0 1
0 -184 -43 89 0 0 1 9 0 1 0 1
phys
0 -194 -45 89 0 0 1 9 0 1 0 1
0 -184 -43 89 0 0 1 9 0 1 0 1
0 -194 -43 89 0 0 1 9 0 1 0 1
phys
0 70 149 0 0 0 1 10 0 1 0 1
0 70 149 136 0 0 1 10 0 1 0 1
0 67 149 136 0 0 1 10 0 1 0 1
phys
0 70 149 0 0 0 1 10 0 1 0 1
0 67 149 136 0 0 1 10 0 1 0 1
0 67 149 0 0 0 1 10 0 1 0 1
phys
0 67 149 0 0 0 1 10 0 1 0 1
0 67 149 136 0 0 1 10 0 1 0 1
0 67 152 136 0 0 1 10 0 1 0 1
phys
0 67 149 0 0 0 1 10 0 1 0 1
0 67 152 136 0 0 1 10 0 1 0 1
0 67 152 0 0 0 1 10 0 1 0 1
phys
0 70 149 136 0 0 1 10 0 1 0 1
0 70 149 0 0 0 1 10 0 1 0 1
0 70 152 0 0 0 1 10 0 1 0 1
phys
0 70 149 136 0 0 1 10 0 1 0 1
0 70 152 0 0 0 1 10 0 1 0 1
0 70 152 136 0 0 1 10 0 1 0 1
phys
0 70 149 0 0 0 1 10 0 1 0 1
0 67 149 0 0 0 1 10 0 1 0 1
0 67 152 0 0 0 1 10 0 1 0 1
phys
0 70 149 0 0 0 1 10 0 1 0 1
0 67 152 0 0 0 1 10 0 1 0 1
0 70 152 0 0 0 1 10 0 1 0 1
phys
0 67 149 136 0 0 1 10 0 1 0 1
0 70 149 136 0 0 1 10 0 1 0 1
0 70 152 136 0 0 1 10 0 1 0 1
phys
0 67 149 136 0 0 1 10 0 1 0 1
0 70 152 136 0 0 1 10 0 1 0 1
0 67 152 136 0 0 1 10 0 1 0 1
phys
0 70 152 136 0 0 1 10 0 1 0 1
0 70 152 0 0 0 1 10 0 1 0 1
0 67 152 0 0 0 1 10 0 1 0 1
phys
0 70 152 136 0 0 1 10 0 1 0 1
0 67 152 0 0 0 1 10 0 1 0 1
0 67 152 136 0 0 1 10 0 1 0 1
phys
0 -190 -43 131 0 0 1 11 0 1 0 1
0 -189 -43 131 0 0 1 11 0 1 0 1
0 -189 7 131 0 0 1 11 0 1 0 1
phys
0 -190 -43 131 0 0 1 11 0 1 0 1
0 -189 7 131 0 0 1 11 0 1 0 1
0 -190 7 131 0 0 1 11 0 1 0 1
phys
0 -190 7 49 0 0 1 11 0 1 0 1
0 -190 7 131 0 0 1 11 0 1 0 1
0 -189 7 131 0 0 1 11 0 1 0 1
phys
0 -190 7 49 0 0 1 11 0 1 0 1
0 -189 7 131 0 0 1 11 0 1 0 1
0 -189 7 49 0 0 1 11 0 1 0 1
phys
0 -189 -43 49 0 0 1 11 0 1 0 1
0 -189 -43 131 0 0 1 11 0 1 0 1
0 -190 -43 131 0 0 1 11 0 1 0 1
phys
0 -189 -43 49 0 0 1 11 0 1 0 1
0 -190 -43 131 0 0 1 11 0 1 0 1
0 -190 -43 49 0 0 1 11 0 1 0 1
phys
0 -190 -43 49 0 0 1 11 0 1 0 1
0 -190 -43 131 0 0 1 11 0 1 0 1
0 -190 7 131 0 0 1 11 0 1 0 1
phys
0 -190 -43 49 0 0 1 11 0 1 0 1
0 -190 7 131 0 0 1 11 0 1 0 1
0 -190 7 49 0 0 1 11 0 1 0 1
phys
0 -189 7 49 0 0 1 11 0 1 0 1
0 -189 7 131 0 0 1 11 0 1 0 1
0 -189 -43 131 0 0 1 11 0 1 0 1
phys
0 -189 7 49 0 0 1 11 0 1 0 1
0 -189 -43 131 0 0 1 11 0 1 0 1
0 -189 -43 49 0 0 1 11 0 1 0 1
phys
0 -189 -43 49 0 0 1 11 0 1 0 1
0 -190 -43 49 0 0 1 11 0 1 0 1
0 -190 7 49 0 0 1 11 0 1 0 1
phys
0 -189 -43 49 0 0 1 11 0 1 0 1
0 -190 7 49 0 0 1 11 0 1 0 1
0 -189 7 49 0 0 1 11 0 1 0 1
phys
0 -184 -149 131 0 0 1 12 0 1 0 1
0 -184 7 131 0 0 1 12 0 1 0 1
0 -184 9 133 0 0 1 12 0 1 0 1
phys
0 -184 -149 131 0 0 1 12 0 1 0 1
0 -184 9 133 0 0 1 12 0 1 0 1
0 -184 -151 133 0 0 1 12 0 1 0 1
phys
0 -194 7 131 0 0 1 12 0 1 0 1
0 -184 7 131 0 0 1 12 0 1 0 1
0 -184 -149 131 0 0 1 12 0 1 0 1
phys
0 -194 7 131 0 0 1 12 0 1 0 1
0 -184 -149 131 0 0 1 12 0 1 0 1
0 -194 -149 131 0 0 1 12 0 1 0 1
phys
0 -194 -151 133 0 0 1 12 0 1 0 1
0 -184 -151 133 0 0 1 12 0 1 0 1
0 -184 9 133 0 0 1 12 0 1 0 1
phys
0 -194 -151 133 0 0 1 12 0 1 0 1
0 -184 9 133 0 0 1 12 0 1 0 1
0 -194 9 133 0 0 1 12 0 1 0 1
phys
0 -194 9 133 0 0 1 12 0 1 0 1
0 -184 9 133 0 0 1 12 0 1 0 1
0 -184 7 131 0 0 1 12 0 1 0 1
phys
0 -194 9 133 0 0 1 12 0 1 0 1
0 -184 7 131 0 0 1 12 0 1 0 1
0 -194 7 131 0 0 1 12 0 1 0 1
phys
0 -194 -149 131 0 0 1 12 0 1 0 1
0 -184 -149 131 0 0 1 12 0 1 0 1
0 -184 -151 133 0 0 1 12 0 1 0 1
phys
0 -194 -149 131 0 0 1 12 0 1 0 1
0 -184 -151 133 0 0 1 12 0 1 0 1
0 -194 -151 133 0 0 1 12 0 1 0 1
phys
0 -194 -151 133 0 0 1 12 0 1 0 1
0 -194 9 133 0 0 1 12 0 1 0 1
0 -194 7 131 0 0 1 12 0 1 0 1
phys
0 -194 -151 133 0 0 1 12 0 1 0 1
0 -194 7 131 0 0 1 12 0 1 0 1
0 -194 -149 131 0 0 1 12 0 1 0 1
phys
0 -53 152 136 0 0 1 13 0 1 0 1
0 -53 152 0 0 0 1 13 0 1 0 1
0 -56 152 0 0 0 1 13 0 1 0 1
phys
0 -53 152 136 0 0 1 13 0 1 0 1
0 -56 152 0 0 0 1 13 0 1 0 1
0 -56 152 136 0 0 1 13 0 1 0 1
phys
0 -53 149 0 0 0 1 13 0 1 0 1
0 -53 149 136 0 0 1 13 0 1 0 1
0 -56 149 136 0 0 1 13 0 1 0 1
phys
0 -53 149 0 0 0 1 13 0 1 0 1
0 -56 149 136 0 0 1 13 0 1 0 1
0 -56 149 0 0 0 1 13 0 1 0 1
phys
0 -56 149 0 0 0 1 13 0 1 0 1
0 -56 149 136 0 0 1 13 0 1 0 1
0 -56 152 136 0 0 1 13 0 1 0 1
phys
0 -56 149 0 0 0 1 13 0 1 0 1
0 -56 152 136 0 0 1 13 0 1 0 1
0 -56 152 0 0 0 1 13 0 1 0 1
phys
0 -53 149 136 0 0 1 13 0 1 0 1
0 -53 149 0 0 0 1 13 0 1 0 1
0 -53 152 0 0 0 1 13 0 1 0 1
phys
0 -53 149 136 0 0 1 13 0 1 0 1
0 -53 152 0 0 0 1 13 0 1 0 1
0 -53 152 136 0 0 1 13 0 1 0 1
phys
0 -53 149 0 0 0 1 13 0 1 0 1
0 -56 149 0 0 0 1 13 0 1 0 1
0 -56 152 0 0 0 1 13 0 1 0 1
phys
0 -53 149 0 0 0 1 13 0 1 0 1
0 -56 152 0 0 0 1 13 0 1 0 1
0 -53 152 0 0 0 1 13 0 1 0 1
phys
0 -56 149 136 0 0 1 13 0 1 0 1
0 -53 149 136 0 0 1 13 0 1 0 1
0 -53 152 136 0 0 1 13 0 1 0 1
phys
0 -56 149 136 0 0 1 13 0 1 0 1
0 -53 152 136 0 0 1 13 0 1 0 1
0 -56 152 136 0 0 1 13 0 1 0 1
phys
0 -184 7 49 0 0 1 14 0 1 0 1
0 -194 7 49 0 0 1 14 0 1 0 1
0 -194 9 47 0 0 1 14 0 1 0 1
phys
0 -184 7 49 0 0 1 14 0 1 0 1
0 -194 9 47 0 0 1 14 0 1 0 1
0 -184 9 47 0 0 1 14 0 1 0 1
phys
0 -184 9 133 0 0 1 14 0 1 0 1
0 -184 9 47 0 0 1 14 0 1 0 1
0 -194 9 47 0 0 1 14 0 1 0 1
phys
0 -184 9 133 0 0 1 14 0 1 0 1
0 -194 9 47 0 0 1 14 0 1 0 1
0 -194 9 133 0 0 1 14 0 1 0 1
phys
0 -194 7 131 0 0 1 14 0 1 0 1
0 -194 7 49 0 0 1 14 0 1 0 1
0 -184 7 49 0 0 1 14 0 1 0 1
phys
0 -194 7 131 0 0 1 14 0 1 0 1
0 -184 7 49 0 0 1 14 0 1 0 1
0 -184 7 131 0 0 1 14 0 1 0 1
phys
0 -194 9 47 0 0 1 14 0 1 0 1
0 -194 7 49 0 0 1 14 0 1 0 1
0 -194 7 131 0 0 1 14 0 1 0 1
phys
0 -194 9 47 0 0 1 14 0 1 0 1
0 -194 7 131 0 0 1 14 0 1 0 1
0 -194 9 133 0 0 1 14 0 1 0 1
phys
0 -184 7 131 0 0 1 14 0 1 0 1
0 -184 7 49 0 0 1 14 0 1 0 1
0 -184 9 47 0 0 1 14 0 1 0 1
phys
0 -184 7 131 0 0 1 14 0 1 0 1
0 -184 9 47 0 0 1 14 0 1 0 1
0 -184 9 133 0 0 1 14 0 1 0 1
phys
0 -194 7 131 0 0 1 14 0 1 0 1
0 -184 7 131 0 0 1 14 0 1 0 1
0 -184 9 133 0 0 1 14 0 1 0 1
phys
0 -194 7 131 0 0 1 14 0 1 0 1
0 -184 9 133 0 0 1 14 0 1 0 1
0 -194 9 133 0 0 1 14 0 1 0 1
phys
0 -194 68 0 0 0 1 15 0 1 0 1
0 -194 142 0 0 0 1 15 0 1 0 1
0 -194 142 29 0 0 1 15 0 1 0 1
phys
0 -194 68 0 0 0 1 15 0 1 0 1
0 -194 142 29 0 0 1 15 0 1 0 1
0 -194 68 29 0 0 1 15 0 1 0 1
phys
0 -204 142 0 0 0 1 15 0 1 0 1
0 -194 142 0 0 0 1 15 0 1 0 1
0 -194 68 0 0 0 1 15 0 1 0 1
phys
0 -204 142 0 0 0 1 15 0 1 0 1
0 -194 68 0 0 0 1 15 0 1 0 1
0 -204 68 0 0 0 1 15 0 1 0 1
phys
0 -204 68 29 0 0 1 15 0 1 0 1
0 -194 68 29 0 0 1 15 0 1 0 1
0 -194 142 29 0 0 1 15 0 1 0 1
phys
0 -204 68 29 0 0 1 15 0 1 0 1
0 -194 142 29 0 0 1 15 0 1 0 1
0 -204 142 29 0 0 1 15 0 1 0 1
phys
0 -194 142 29 0 0 1 15 0 1 0 1
0 -194 142 0 0 0 1 15 0 1 0 1
0 -204 142 0 0 0 1 15 0 1 0 1
phys
0 -194 142 29 0 0 1 15 0 1 0 1
0 -204 142 0 0 0 1 15 0 1 0 1
0 -204 142 29 0 0 1 15 0 1 0 1
phys
0 -194 68 0 0 0 1 15 0 1 0 1
0 -194 68 29 0 0 1 15 0 1 0 1
0 -204 68 29 0 0 1 15 0 1 0 1
phys
0 -194 68 0 0 0 1 15 0 1 0 1
0 -204 68 29 0 0 1 15 0 1 0 1
0 -204 68 0 0 0 1 15 0 1 0 1
phys
0 -204 68 29 0 0 1 15 0 1 0 1
0 -204 142 29 0 0 1 15 0 1 0 1
0 -204 142 0 0 0 1 15 0 1 0 1
phys
0 -204 68 29 0 0 1 15 0 1 0 1
0 -204 142 0 0 0 1 15 0 1 0 1
0 -204 68 0 0 0 1 15 0 1 0 1
phys
0 -189 -45 131 0 0 1 16 0 1 0 1
0 -189 -45 49 0 0 1 16 0 1 0 1
0 -190 -45 49 0 0 1 16 0 1 0 1
phys
0 -189 -45 131 0 0 1 16 0 1 0 1
0 -190 -45 49 0 0 1 16 0 1 0 1
0 -190 -45 131 0 0 1 16 0 1 0 1
phys
0 -189 -97 49 0 0 1 16 0 1 0 1
0 -189 -97 131 0 0 1 16 0 1 0 1
0 -190 -97 131 0 0 1 16 0 1 0 1
phys
0 -189 -97 49 0 0 1 16 0 1 0 1
0 -190 -97 131 0 0 1 16 0 1 0 1
0 -190 -97 49 0 0 1 16 0 1 0 1
phys
0 -190 -97 49 0 0 1 16 0 1 0 1
0 -190 -97 131 0 0 1 16 0 1 0 1
0 -190 -45 131 0 0 1 16 0 1 0 1
phys
0 -190 -97 49 0 0 1 16 0 1 0 1
0 -190 -45 131 0 0 1 16 0 1 0 1
0 -190 -45 49 0 0 1 16 0 1 0 1
phys
0 -189 -97 131 0 0 1 16 0 1 0 1
0 -189 -97 49 0 0 1 16 0 1 0 1
0 -189 -45 49 0 0 1 16 0 1 0 1
phys
0 -189 -97 131 0 0 1 16 0 1 0 1
0 -189 -45 49 0 0 1 16 0 1 0 1
0 -189 -45 131 0 0 1 16 0 1 0 1
phys
0 -189 -97 49 0 0 1 16 0 1 0 1
0 -190 -97 49 0 0 1 16 0 1 0 1
0 -190 -45 49 0 0 1 16 0 1 0 1
phys
0 -189 -97 49 0 0 1 16 0 1 0 1
0 -190 -45 49 0 0 1 16 0 1 0 1
0 -189 -45 49 0 0 1 16 0 1 0 1
phys
0 -190 -97 131 0 0 1 16 0 1 0 1
0 -189 -97 131 0 0 1 16 0 1 0 1
0 -189 -45 131 0 0 1 16 0 1 0 1
phys
0 -190 -97 131 0 0 1 16 0 1 0 1
0 -189 -45 131 0 0 1 16 0 1 0 1
0 -190 -45 131 0 0 1 16 0 1 0 1
phys
0 64 152 136 0 0 1 17 0 1 0 1
0 64 152 0 0 0 1 17 0 1 0 1
0 61 152 0 0 0 1 17 0 1 0 1
phys
0 64 152 136 0 0 1 17 0 1 0 1
0 61 152 0 0 0 1 17 0 1 0 1
0 61 152 136 0 0 1 17 0 1 0 1
phys
0 64 149 0 0 0 1 17 0 1 0 1
0 64 149 136 0 0 1 17 0 1 0 1
0 61 149 136 0 0 1 17 0 1 0 1
phys
0 64 149 0 0 0 1 17 0 1 0 1
0 61 149 136 0 0 1 17 0 1 0 1
0 61 149 0 0 0 1 17 0 1 0 1
phys
0 61 149 0 0 0 1 17 0 1 0 1
0 61 149 136 0 0 1 17 0 1 0 1
0 61 152 136 0 0 1 17 0 1 0 1
phys
0 61 149 0 0 0 1 17 0 1 0 1
0 61 152 136 0 0 1 17 0 1 0 1
0 61 152 0 0 0 1 17 0 1 0 1
phys
0 64 149 136 0 0 1 17 0 1 0 1
0 64 149 0 0 0 1 17 0 1 0 1
0 64 152 0 0 0 1 17 0 1 0 1
phys
0 64 149 136 0 0 1 17 0 1 0 1
0 64 152 0 0 0 1 17 0 1 0 1
0 64 152 136 0 0 1 17 0 1 0 1
phys
0 64 149 0 0 0 1 17 0 1 0 1
0 61 149 0 0 0 1 17 0 1 0 1
0 61 152 0 0 0 1 17 0 1 0 1
phys
0 64 149 0 0 0 1 17 0 1 0 1
0 61 152 0 0 0 1 17 0 1 0 1
0 64 152 0 0 0 1 17 0 1 0 1
phys
0 61 149 136 0 0 1 17 0 1 0 1
0 64 149 136 0 0 1 17 0 1 0 1
0 64 152 136 0 0 1 17 0 1 0 1
phys
0 61 149 136 0 0 1 17 0 1 0 1
0 64 152 136 0 0 1 17 0 1 0 1
0 61 152 136 0 0 1 17 0 1 0 1
phys
0 -184 -99 49 0 0 1 18 0 1 0 1
0 -184 -99 89 0 0 1 18 0 1 0 1
0 -194 -99 89 0 0 1 18 0 1 0 1
phys
0 -184 -99 49 0 0 1 18 0 1 0 1
0 -194 -99 89 0 0 1 18 0 1 0 1
0 -194 -99 49 0 0 1 18 0 1 0 1
phys
0 -194 -99 49 0 0 1 18 0 1 0 1
0 -194 -99 89 0 0 1 18 0 1 0 1
0 -194 -97 89 0 0 1 18 0 1 0 1
phys
0 -194 -99 49 0 0 1 18 0 1 0 1
0 -194 -97 89 0 0 1 18 0 1 0 1
0 -194 -97 49 0 0 1 18 0 1 0 1
phys
0 -184 -99 89 0 0 1 18 0 1 0 1
0 -184 -99 49 0 0 1 18 0 1 0 1
0 -184 -97 49 0 0 1 18 0 1 0 1
phys
0 -184 -99 89 0 0 1 18 0 1 0 1
0 -184 -97 49 0 0 1 18 0 1 0 1
0 -184 -97 89 0 0 1 18 0 1 0 1
phys
0 -184 -99 49 0 0 1 18 0 1 0 1
0 -194 -99 49 0 0 1 18 0 1 0 1
0 -194 -97 49 0 0 1 18 0 1 0 1
phys
0 -184 -99 49 0 0 1 18 0 1 0 1
0 -194 -97 49 0 0 1 18 0 1 0 1
0 -184 -97 49 0 0 1 18 0 1 0 1
phys
0 -194 -99 89 0 0 1 18 0 1 0 1
0 -184 -99 89 0 0 1 18 0 1 0 1
0 -184 -97 89 0 0 1 18 0 1 0 1
phys
0 -194 -99 89 0 0 1 18 0 1 0 1
0 -184 -97 89 0 0 1 18 0 1 0 1
0 -194 -97 89 0 0 1 18 0 1 0 1
phys
0 -184 -97 89 0 0 1 18 0 1 0 1
0 -184 -97 49 0 0 1 18 0 1 0 1
0 -194 -97 49 0 0 1 18 0 1 0 1
phys
0 -184 -97 89 0 0 1 18 0 1 0 1
0 -194 -97 49 0 0 1 18 0 1 0 1
0 -194 -97 89 0 0 1 18 0 1 0 1
end
