version 1
nodes
0 "root" -1
end
skeleton
time 0
0 0 0 0 0 0 0
end
triangles
plaster_plasterwall029a
0 -76 12 -174 0 1 0 -88.859375 -0.765625 1 0 1
0 -76 12 -246 0 1 0 -88.859375 -1.328125 1 0 1
0 -78 12 -246 0 1 0 -88.875 -1.328125 1 0 1
plaster_plasterwall029a
0 -76 12 -174 0 1 0 -88.859375 -0.765625 1 0 1
0 -78 12 -246 0 1 0 -88.875 -1.328125 1 0 1
0 -78 12 -174 0 1 0 -88.875 -0.765625 1 0 1
plaster_plasterwall029a
0 -76 8 -246 0 -1 0 -89.09375 -1.796875 1 0 1
0 -76 8 -174 0 -1 0 -89.09375 -1.234375 1 0 1
0 -78 8 -174 0 -1 0 -89.109375 -1.234375 1 0 1
plaster_plasterwall029a
0 -76 8 -246 0 -1 0 -89.09375 -1.796875 1 0 1
0 -78 8 -174 0 -1 0 -89.109375 -1.234375 1 0 1
0 -78 8 -246 0 -1 0 -89.109375 -1.796875 1 0 1
plaster_plasterwall029a
0 -78 8 -246 -1 0 0 93.125 -1.328125 1 0 1
0 -78 8 -174 -1 0 0 93.125 -0.765625 1 0 1
0 -78 12 -174 -1 0 0 93.09375 -0.765625 1 0 1
plaster_plasterwall029a
0 -78 8 -246 -1 0 0 93.125 -1.328125 1 0 1
0 -78 12 -174 -1 0 0 93.09375 -0.765625 1 0 1
0 -78 12 -246 -1 0 0 93.09375 -1.328125 1 0 1
plaster_plasterwall029a
0 -76 8 -174 1 0 0 93.125 -0.765625 1 0 1
0 -76 8 -246 1 0 0 93.125 -1.328125 1 0 1
0 -76 12 -246 1 0 0 93.09375 -1.328125 1 0 1
plaster_plasterwall029a
0 -76 8 -174 1 0 0 93.125 -0.765625 1 0 1
0 -76 12 -246 1 0 0 93.09375 -1.328125 1 0 1
0 -76 12 -174 1 0 0 93.09375 -0.765625 1 0 1
plaster_plasterwall029a
0 -76 8 -246 0 0 -1 93.125 -87.859375 1 0 1
0 -78 8 -246 0 0 -1 93.125 -87.875 1 0 1
0 -78 12 -246 0 0 -1 93.09375 -87.875 1 0 1
plaster_plasterwall029a
0 -76 8 -246 0 0 -1 93.125 -87.859375 1 0 1
0 -78 12 -246 0 0 -1 93.09375 -87.875 1 0 1
0 -76 12 -246 0 0 -1 93.09375 -87.859375 1 0 1
plaster_plasterwall029a
0 -78 8 -174 0 0 1 93.125 -87.875 1 0 1
0 -76 8 -174 0 0 1 93.125 -87.859375 1 0 1
0 -76 12 -174 0 0 1 93.09375 -87.859375 1 0 1
plaster_plasterwall029a
0 -78 8 -174 0 0 1 93.125 -87.875 1 0 1
0 -76 12 -174 0 0 1 93.09375 -87.859375 1 0 1
0 -78 12 -174 0 0 1 93.09375 -87.875 1 0 1
plaster_plasterwall029a
0 -30 12 -118 0 1 0 -88.5 -0.328125 1 0 1
0 -30 12 -120 0 1 0 -88.5 -0.34375 1 0 1
0 -78 12 -120 0 1 0 -88.875 -0.34375 1 0 1
plaster_plasterwall029a
0 -30 12 -118 0 1 0 -88.5 -0.328125 1 0 1
0 -78 12 -120 0 1 0 -88.875 -0.34375 1 0 1
0 -78 12 -118 0 1 0 -88.875 -0.328125 1 0 1
plaster_plasterwall029a
0 -30 8 -120 0 -1 0 -88.5 -0.34375 1 0 1
0 -30 8 -118 0 -1 0 -88.5 -0.328125 1 0 1
0 -78 8 -118 0 -1 0 -88.875 -0.328125 1 0 1
plaster_plasterwall029a
0 -30 8 -120 0 -1 0 -88.5 -0.34375 1 0 1
0 -78 8 -118 0 -1 0 -88.875 -0.328125 1 0 1
0 -78 8 -120 0 -1 0 -88.875 -0.34375 1 0 1
plaster_plasterwall029a
0 -30 8 -120 0 0 -1 93.125 -87.5 1 0 1
0 -78 8 -120 0 0 -1 93.125 -87.875 1 0 1
0 -78 12 -120 0 0 -1 93.09375 -87.875 1 0 1
plaster_plasterwall029a
0 -30 8 -120 0 0 -1 93.125 -87.5 1 0 1
0 -78 12 -120 0 0 -1 93.09375 -87.875 1 0 1
0 -30 12 -120 0 0 -1 93.09375 -87.5 1 0 1
plaster_plasterwall029a
0 -78 8 -118 0 0 1 93.125 -87.875 1 0 1
0 -30 8 -118 0 0 1 93.125 -87.5 1 0 1
0 -30 12 -118 0 0 1 93.09375 -87.5 1 0 1
plaster_plasterwall029a
0 -78 8 -118 0 0 1 93.125 -87.875 1 0 1
0 -30 12 -118 0 0 1 93.09375 -87.5 1 0 1
0 -78 12 -118 0 0 1 93.09375 -87.875 1 0 1
plaster_plasterwall029a
0 -176 12 -46 0 1 0 -89.640625 0.234375 1 0 1
0 -176 12 -118 0 1 0 -89.640625 -0.328125 1 0 1
0 -178 12 -118 0 1 0 -89.65625 -0.328125 1 0 1
plaster_plasterwall029a
0 -176 12 -46 0 1 0 -89.640625 0.234375 1 0 1
0 -178 12 -118 0 1 0 -89.65625 -0.328125 1 0 1
0 -178 12 -46 0 1 0 -89.65625 0.234375 1 0 1
plaster_plasterwall029a
0 -176 8 -118 0 -1 0 -89.875 -0.796875 1 0 1
0 -176 8 -46 0 -1 0 -89.875 -0.234375 1 0 1
0 -178 8 -46 0 -1 0 -89.890625 -0.234375 1 0 1
plaster_plasterwall029a
0 -176 8 -118 0 -1 0 -89.875 -0.796875 1 0 1
0 -178 8 -46 0 -1 0 -89.890625 -0.234375 1 0 1
0 -178 8 -118 0 -1 0 -89.890625 -0.796875 1 0 1
plaster_plasterwall029a
0 -176 8 -46 1 0 0 93.125 0.234375 1 0 1
0 -176 8 -118 1 0 0 93.125 -0.328125 1 0 1
0 -176 12 -118 1 0 0 93.09375 -0.328125 1 0 1
plaster_plasterwall029a
0 -176 8 -46 1 0 0 93.125 0.234375 1 0 1
0 -176 12 -118 1 0 0 93.09375 -0.328125 1 0 1
0 -176 12 -46 1 0 0 93.09375 0.234375 1 0 1
plaster_plasterwall029a
0 -176 8 -118 0 0 -1 93.125 -88.640625 1 0 1
0 -178 8 -118 0 0 -1 93.125 -88.65625 1 0 1
0 -178 12 -118 0 0 -1 93.09375 -88.65625 1 0 1
plaster_plasterwall029a
0 -176 8 -118 0 0 -1 93.125 -88.640625 1 0 1
0 -178 12 -118 0 0 -1 93.09375 -88.65625 1 0 1
0 -176 12 -118 0 0 -1 93.09375 -88.640625 1 0 1
plaster_plasterwall029a
0 -178 8 -46 0 0 1 93.125 -88.65625 1 0 1
0 -176 8 -46 0 0 1 93.125 -88.640625 1 0 1
0 -176 12 -46 0 0 1 93.09375 -88.640625 1 0 1
plaster_plasterwall029a
0 -178 8 -46 0 0 1 93.125 -88.65625 1 0 1
0 -176 12 -46 0 0 1 93.09375 -88.640625 1 0 1
0 -178 12 -46 0 0 1 93.09375 -88.65625 1 0 1
plaster_plasterwall029a
0 -130 12 -46 0 1 0 -89.28125 0.234375 1 0 1
0 -130 12 -118 0 1 0 -89.28125 -0.328125 1 0 1
0 -132 12 -118 0 1 0 -89.296875 -0.328125 1 0 1
plaster_plasterwall029a
0 -130 12 -46 0 1 0 -89.28125 0.234375 1 0 1
0 -132 12 -118 0 1 0 -89.296875 -0.328125 1 0 1
0 -132 12 -46 0 1 0 -89.296875 0.234375 1 0 1
plaster_plasterwall029a
0 -130 8 -118 0 -1 0 -89.28125 -0.328125 1 0 1
0 -130 8 -46 0 -1 0 -89.28125 0.234375 1 0 1
0 -132 8 -46 0 -1 0 -89.296875 0.234375 1 0 1
plaster_plasterwall029a
0 -130 8 -118 0 -1 0 -89.28125 -0.328125 1 0 1
0 -132 8 -46 0 -1 0 -89.296875 0.234375 1 0 1
0 -132 8 -118 0 -1 0 -89.296875 -0.328125 1 0 1
plaster_plasterwall029a
0 -132 8 -118 -1 0 0 93.125 -0.328125 1 0 1
0 -132 8 -46 -1 0 0 93.125 0.234375 1 0 1
0 -132 12 -46 -1 0 0 93.09375 0.234375 1 0 1
plaster_plasterwall029a
0 -132 8 -118 -1 0 0 93.125 -0.328125 1 0 1
0 -132 12 -46 -1 0 0 93.09375 0.234375 1 0 1
0 -132 12 -118 -1 0 0 93.09375 -0.328125 1 0 1
plaster_plasterwall029a
0 -130 8 -118 0 0 -1 93.125 -88.28125 1 0 1
0 -132 8 -118 0 0 -1 93.125 -88.296875 1 0 1
0 -132 12 -118 0 0 -1 93.09375 -88.296875 1 0 1
plaster_plasterwall029a
0 -130 8 -118 0 0 -1 93.125 -88.28125 1 0 1
0 -132 12 -118 0 0 -1 93.09375 -88.296875 1 0 1
0 -130 12 -118 0 0 -1 93.09375 -88.28125 1 0 1
plaster_plasterwall029a
0 -132 8 -46 0 0 1 93.125 -88.296875 1 0 1
0 -130 8 -46 0 0 1 93.125 -88.28125 1 0 1
0 -130 12 -46 0 0 1 93.09375 -88.28125 1 0 1
plaster_plasterwall029a
0 -132 8 -46 0 0 1 93.125 -88.296875 1 0 1
0 -130 12 -46 0 0 1 93.09375 -88.28125 1 0 1
0 -132 12 -46 0 0 1 93.09375 -88.296875 1 0 1
brick_brickwall053a
0 -223 -8 -48 -1 0 0 92.726562 0.5 1 0 1
0 -223 8 -48 -1 0 0 92.601562 0.5 1 0 1
0 -223 8 -56 -1 0 0 92.601562 0.4375 1 0 1
brick_brickwall053e
0 -199 8 -56 1 0 0 93.125 0.4375 1 0 1
0 -199 8 -48 1 0 0 93.125 0.5 1 0 1
0 -199 -8 -48 1 0 0 93.25 0.5 1 0 1
concrete_concreteceiling004a
0 -223 -8 -48 0 -0.447214 -0.894427 93.25 -89 1 0 1
0 -223 8 -56 0 -0.447214 -0.894427 93.125 -89 1 0 1
0 -199 8 -56 0 -0.447214 -0.894427 93.125 -88.8125 1 0 1
concrete_concreteceiling004a
0 -223 -8 -48 0 -0.447214 -0.894427 93.25 -89 1 0 1
0 -199 8 -56 0 -0.447214 -0.894427 93.125 -88.8125 1 0 1
0 -199 -8 -48 0 -0.447214 -0.894427 93.25 -88.8125 1 0 1
plaster_plasterwall029a
0 -130 12 -172 0 1 0 -89.28125 -0.75 1 0 1
0 -130 12 -174 0 1 0 -89.28125 -0.765625 1 0 1
0 -178 12 -174 0 1 0 -89.65625 -0.765625 1 0 1
plaster_plasterwall029a
0 -130 12 -172 0 1 0 -89.28125 -0.75 1 0 1
0 -178 12 -174 0 1 0 -89.65625 -0.765625 1 0 1
0 -178 12 -172 0 1 0 -89.65625 -0.75 1 0 1
plaster_plasterwall029a
0 -130 8 -174 0 -1 0 -89.515625 -1.234375 1 0 1
0 -130 8 -172 0 -1 0 -89.515625 -1.21875 1 0 1
0 -178 8 -172 0 -1 0 -89.890625 -1.21875 1 0 1
plaster_plasterwall029a
0 -130 8 -174 0 -1 0 -89.515625 -1.234375 1 0 1
0 -178 8 -172 0 -1 0 -89.890625 -1.21875 1 0 1
0 -178 8 -174 0 -1 0 -89.890625 -1.234375 1 0 1
plaster_plasterwall029a
0 -178 8 -174 -1 0 0 93.125 -0.765625 1 0 1
0 -178 8 -172 -1 0 0 93.125 -0.75 1 0 1
0 -178 12 -172 -1 0 0 93.09375 -0.75 1 0 1
plaster_plasterwall029a
0 -178 8 -174 -1 0 0 93.125 -0.765625 1 0 1
0 -178 12 -172 -1 0 0 93.09375 -0.75 1 0 1
0 -178 12 -174 -1 0 0 93.09375 -0.765625 1 0 1
plaster_plasterwall029a
0 -130 8 -172 1 0 0 93.125 -0.75 1 0 1
0 -130 8 -174 1 0 0 93.125 -0.765625 1 0 1
0 -130 12 -174 1 0 0 93.09375 -0.765625 1 0 1
plaster_plasterwall029a
0 -130 8 -172 1 0 0 93.125 -0.75 1 0 1
0 -130 12 -174 1 0 0 93.09375 -0.765625 1 0 1
0 -130 12 -172 1 0 0 93.09375 -0.75 1 0 1
plaster_plasterwall029a
0 -130 8 -174 0 0 -1 93.125 -88.28125 1 0 1
0 -178 8 -174 0 0 -1 93.125 -88.65625 1 0 1
0 -178 12 -174 0 0 -1 93.09375 -88.65625 1 0 1
plaster_plasterwall029a
0 -130 8 -174 0 0 -1 93.125 -88.28125 1 0 1
0 -178 12 -174 0 0 -1 93.09375 -88.65625 1 0 1
0 -130 12 -174 0 0 -1 93.09375 -88.28125 1 0 1
plaster_plasterwall029a
0 -178 8 -172 0 0 1 93.125 -88.65625 1 0 1
0 -130 8 -172 0 0 1 93.125 -88.28125 1 0 1
0 -130 12 -172 0 0 1 93.09375 -88.28125 1 0 1
plaster_plasterwall029a
0 -178 8 -172 0 0 1 93.125 -88.65625 1 0 1
0 -130 12 -172 0 0 1 93.09375 -88.28125 1 0 1
0 -178 12 -172 0 0 1 93.09375 -88.65625 1 0 1
brick_brickwall053e
0 -12 -8 -48 -1 0 0 93.25 0.5 1 0 1
0 -12 8 -48 -1 0 0 93.125 0.5 1 0 1
0 -12 8 -56 -1 0 0 93.125 0.4375 1 0 1
brick_brickwall053e
0 12 8 -56 1 0 0 93.125 0.4375 1 0 1
0 12 8 -48 1 0 0 93.125 0.5 1 0 1
0 12 -8 -48 1 0 0 93.25 0.5 1 0 1
concrete_concreteceiling004a
0 -12 -8 -48 0 -0.447214 -0.894427 93.25 -87.34375 1 0 1
0 -12 8 -56 0 -0.447214 -0.894427 93.125 -87.34375 1 0 1
0 12 8 -56 0 -0.447214 -0.894427 93.125 -87.15625 1 0 1
concrete_concreteceiling004a
0 -12 -8 -48 0 -0.447214 -0.894427 93.25 -87.34375 1 0 1
0 12 8 -56 0 -0.447214 -0.894427 93.125 -87.15625 1 0 1
0 12 -8 -48 0 -0.447214 -0.894427 93.25 -87.15625 1 0 1
plaster_plasterwall029a
0 -78 8 -46 0 0 -1 93.125 -87.875 1 0 1
0 -78 12 -46 0 0 -1 93.09375 -87.875 1 0 1
0 -30 12 -46 0 0 -1 93.09375 -87.5 1 0 1
plaster_plasterwall029a
0 -78 8 -46 0 0 -1 93.125 -87.875 1 0 1
0 -30 12 -46 0 0 -1 93.09375 -87.5 1 0 1
0 -30 8 -46 0 0 -1 93.125 -87.5 1 0 1
plaster_plasterwall029a
0 -30 8 -44 0 0 1 93.125 -87.5 1 0 1
0 -30 12 -44 0 0 1 93.09375 -87.5 1 0 1
0 -78 12 -44 0 0 1 93.09375 -87.875 1 0 1
plaster_plasterwall029a
0 -30 8 -44 0 0 1 93.125 -87.5 1 0 1
0 -78 12 -44 0 0 1 93.09375 -87.875 1 0 1
0 -78 8 -44 0 0 1 93.125 -87.875 1 0 1
plaster_plasterwall029a
0 -30 12 -44 0 1 0 -88.5 0.25 1 0 1
0 -30 12 -46 0 1 0 -88.5 0.234375 1 0 1
0 -78 12 -46 0 1 0 -88.875 0.234375 1 0 1
plaster_plasterwall029a
0 -30 12 -44 0 1 0 -88.5 0.25 1 0 1
0 -78 12 -46 0 1 0 -88.875 0.234375 1 0 1
0 -78 12 -44 0 1 0 -88.875 0.25 1 0 1
plaster_plasterwall029a
0 -30 8 -46 0 -1 0 -88.734375 -0.234375 1 0 1
0 -30 8 -44 0 -1 0 -88.734375 -0.21875 1 0 1
0 -78 8 -44 0 -1 0 -89.109375 -0.21875 1 0 1
plaster_plasterwall029a
0 -30 8 -46 0 -1 0 -88.734375 -0.234375 1 0 1
0 -78 8 -44 0 -1 0 -89.109375 -0.21875 1 0 1
0 -78 8 -46 0 -1 0 -89.109375 -0.234375 1 0 1
plaster_plasterwall029a
0 -130 12 -246 0 1 0 -89.28125 -1.328125 1 0 1
0 -130 12 -248 0 1 0 -89.28125 -1.34375 1 0 1
0 -178 12 -248 0 1 0 -89.65625 -1.34375 1 0 1
plaster_plasterwall029a
0 -130 12 -246 0 1 0 -89.28125 -1.328125 1 0 1
0 -178 12 -248 0 1 0 -89.65625 -1.34375 1 0 1
0 -178 12 -246 0 1 0 -89.65625 -1.328125 1 0 1
plaster_plasterwall029a
0 -130 8 -248 0 -1 0 -89.28125 -1.34375 1 0 1
0 -130 8 -246 0 -1 0 -89.28125 -1.328125 1 0 1
0 -178 8 -246 0 -1 0 -89.65625 -1.328125 1 0 1
plaster_plasterwall029a
0 -130 8 -248 0 -1 0 -89.28125 -1.34375 1 0 1
0 -178 8 -246 0 -1 0 -89.65625 -1.328125 1 0 1
0 -178 8 -248 0 -1 0 -89.65625 -1.34375 1 0 1
plaster_plasterwall029a
0 -178 8 -248 -1 0 0 93.125 -1.34375 1 0 1
0 -178 8 -246 -1 0 0 93.125 -1.328125 1 0 1
0 -178 12 -246 -1 0 0 93.09375 -1.328125 1 0 1
plaster_plasterwall029a
0 -178 8 -248 -1 0 0 93.125 -1.34375 1 0 1
0 -178 12 -246 -1 0 0 93.09375 -1.328125 1 0 1
0 -178 12 -248 -1 0 0 93.09375 -1.34375 1 0 1
plaster_plasterwall029a
0 -130 8 -246 1 0 0 93.125 -1.328125 1 0 1
0 -130 8 -248 1 0 0 93.125 -1.34375 1 0 1
0 -130 12 -248 1 0 0 93.09375 -1.34375 1 0 1
plaster_plasterwall029a
0 -130 8 -246 1 0 0 93.125 -1.328125 1 0 1
0 -130 12 -248 1 0 0 93.09375 -1.34375 1 0 1
0 -130 12 -246 1 0 0 93.09375 -1.328125 1 0 1
plaster_plasterwall029a
0 -130 8 -248 0 0 -1 93.125 -88.28125 1 0 1
0 -178 8 -248 0 0 -1 93.125 -88.65625 1 0 1
0 -178 12 -248 0 0 -1 93.09375 -88.65625 1 0 1
plaster_plasterwall029a
0 -130 8 -248 0 0 -1 93.125 -88.28125 1 0 1
0 -178 12 -248 0 0 -1 93.09375 -88.65625 1 0 1
0 -130 12 -248 0 0 -1 93.09375 -88.28125 1 0 1
plaster_plasterwall029a
0 -178 8 -246 0 0 1 93.125 -88.65625 1 0 1
0 -130 8 -246 0 0 1 93.125 -88.28125 1 0 1
0 -130 12 -246 0 0 1 93.09375 -88.28125 1 0 1
plaster_plasterwall029a
0 -178 8 -246 0 0 1 93.125 -88.65625 1 0 1
0 -130 12 -246 0 0 1 93.09375 -88.28125 1 0 1
0 -178 12 -246 0 0 1 93.09375 -88.65625 1 0 1
brick_brickwall053e
0 -223 -8 16 -1 0 0 92.726562 1 1 0 1
0 -223 8 16 -1 0 0 92.601562 1 1 0 1
0 -223 8 -16 -1 0 0 92.601562 0.75 1 0 1
brick_brickwall053e
0 -223 -8 16 -1 0 0 92.726562 1 1 0 1
0 -223 8 -16 -1 0 0 92.601562 0.75 1 0 1
0 -223 -8 -16 -1 0 0 92.726562 0.75 1 0 1
concrete_concreteceiling004a
0 -223 -8 -16 0 0 -1 93.25 -89 1 0 1
0 -223 8 -16 0 0 -1 93.125 -89 1 0 1
0 224 8 -16 0 0 -1 93.125 -85.507812 1 0 1
concrete_concreteceiling004a
0 -223 -8 -16 0 0 -1 93.25 -89 1 0 1
0 224 8 -16 0 0 -1 93.125 -85.507812 1 0 1
0 224 -8 -16 0 0 -1 93.25 -85.507812 1 0 1
concrete_concreteceiling004a
0 224 -8 16 0 0 1 93.25 -85.507812 1 0 1
0 224 8 16 0 0 1 93.125 -85.507812 1 0 1
0 -223 8 16 0 0 1 93.125 -89 1 0 1
concrete_concreteceiling004a
0 224 -8 16 0 0 1 93.25 -85.507812 1 0 1
0 -223 8 16 0 0 1 93.125 -89 1 0 1
0 -223 -8 16 0 0 1 93.25 -89 1 0 1
brick_brickwall053e
0 224 8 16 0 1 0 -86.507812 1 1 0 1
0 224 8 -16 0 1 0 -86.507812 0.75 1 0 1
0 -223 8 -16 0 1 0 -90 0.75 1 0 1
brick_brickwall053e
0 224 8 16 0 1 0 -86.507812 1 1 0 1
0 -223 8 -16 0 1 0 -90 0.75 1 0 1
0 -223 8 16 0 1 0 -90 1 1 0 1
brick_brickwall053e
0 224 -8 -16 0 -1 0 -86.507812 0.75 1 0 1
0 224 -8 16 0 -1 0 -86.507812 1 1 0 1
0 -223 -8 16 0 -1 0 -90 1 1 0 1
brick_brickwall053e
0 224 -8 -16 0 -1 0 -86.507812 0.75 1 0 1
0 -223 -8 16 0 -1 0 -90 1 1 0 1
0 -223 -8 -16 0 -1 0 -90 0.75 1 0 1
plaster_plasterwall029a
0 -76 12 -46 0 1 0 -88.859375 0.234375 1 0 1
0 -76 12 -118 0 1 0 -88.859375 -0.328125 1 0 1
0 -78 12 -118 0 1 0 -88.875 -0.328125 1 0 1
plaster_plasterwall029a
0 -76 12 -46 0 1 0 -88.859375 0.234375 1 0 1
0 -78 12 -118 0 1 0 -88.875 -0.328125 1 0 1
0 -78 12 -46 0 1 0 -88.875 0.234375 1 0 1
plaster_plasterwall029a
0 -76 8 -118 0 -1 0 -89.09375 -0.796875 1 0 1
0 -76 8 -46 0 -1 0 -89.09375 -0.234375 1 0 1
0 -78 8 -46 0 -1 0 -89.109375 -0.234375 1 0 1
plaster_plasterwall029a
0 -76 8 -118 0 -1 0 -89.09375 -0.796875 1 0 1
0 -78 8 -46 0 -1 0 -89.109375 -0.234375 1 0 1
0 -78 8 -118 0 -1 0 -89.109375 -0.796875 1 0 1
plaster_plasterwall029a
0 -76 8 -46 1 0 0 93.125 0.234375 1 0 1
0 -76 8 -118 1 0 0 93.125 -0.328125 1 0 1
0 -76 12 -118 1 0 0 93.09375 -0.328125 1 0 1
plaster_plasterwall029a
0 -76 8 -46 1 0 0 93.125 0.234375 1 0 1
0 -76 12 -118 1 0 0 93.09375 -0.328125 1 0 1
0 -76 12 -46 1 0 0 93.09375 0.234375 1 0 1
plaster_plasterwall029a
0 -76 8 -118 0 0 -1 93.125 -87.859375 1 0 1
0 -78 8 -118 0 0 -1 93.125 -87.875 1 0 1
0 -78 12 -118 0 0 -1 93.09375 -87.875 1 0 1
plaster_plasterwall029a
0 -76 8 -118 0 0 -1 93.125 -87.859375 1 0 1
0 -78 12 -118 0 0 -1 93.09375 -87.875 1 0 1
0 -76 12 -118 0 0 -1 93.09375 -87.859375 1 0 1
plaster_plasterwall029a
0 -78 8 -46 0 0 1 93.125 -87.875 1 0 1
0 -76 8 -46 0 0 1 93.125 -87.859375 1 0 1
0 -76 12 -46 0 0 1 93.09375 -87.859375 1 0 1
plaster_plasterwall029a
0 -78 8 -46 0 0 1 93.125 -87.875 1 0 1
0 -76 12 -46 0 0 1 93.09375 -87.859375 1 0 1
0 -78 12 -46 0 0 1 93.09375 -87.875 1 0 1
plaster_plasterwall029a
0 -176 12 -174 0 1 0 -89.640625 -0.765625 1 0 1
0 -176 12 -246 0 1 0 -89.640625 -1.328125 1 0 1
0 -178 12 -246 0 1 0 -89.65625 -1.328125 1 0 1
plaster_plasterwall029a
0 -176 12 -174 0 1 0 -89.640625 -0.765625 1 0 1
0 -178 12 -246 0 1 0 -89.65625 -1.328125 1 0 1
0 -178 12 -174 0 1 0 -89.65625 -0.765625 1 0 1
plaster_plasterwall029a
0 -176 8 -246 0 -1 0 -89.875 -1.796875 1 0 1
0 -176 8 -174 0 -1 0 -89.875 -1.234375 1 0 1
0 -178 8 -174 0 -1 0 -89.890625 -1.234375 1 0 1
plaster_plasterwall029a
0 -176 8 -246 0 -1 0 -89.875 -1.796875 1 0 1
0 -178 8 -174 0 -1 0 -89.890625 -1.234375 1 0 1
0 -178 8 -246 0 -1 0 -89.890625 -1.796875 1 0 1
plaster_plasterwall029a
0 -178 8 -246 -1 0 0 93.125 -1.328125 1 0 1
0 -178 8 -174 -1 0 0 93.125 -0.765625 1 0 1
0 -178 12 -174 -1 0 0 93.09375 -0.765625 1 0 1
plaster_plasterwall029a
0 -178 8 -246 -1 0 0 93.125 -1.328125 1 0 1
0 -178 12 -174 -1 0 0 93.09375 -0.765625 1 0 1
0 -178 12 -246 -1 0 0 93.09375 -1.328125 1 0 1
plaster_plasterwall029a
0 -176 8 -174 1 0 0 93.125 -0.765625 1 0 1
0 -176 8 -246 1 0 0 93.125 -1.328125 1 0 1
0 -176 12 -246 1 0 0 93.09375 -1.328125 1 0 1
plaster_plasterwall029a
0 -176 8 -174 1 0 0 93.125 -0.765625 1 0 1
0 -176 12 -246 1 0 0 93.09375 -1.328125 1 0 1
0 -176 12 -174 1 0 0 93.09375 -0.765625 1 0 1
plaster_plasterwall029a
0 -176 8 -246 0 0 -1 93.125 -88.640625 1 0 1
0 -178 8 -246 0 0 -1 93.125 -88.65625 1 0 1
0 -178 12 -246 0 0 -1 93.09375 -88.65625 1 0 1
plaster_plasterwall029a
0 -176 8 -246 0 0 -1 93.125 -88.640625 1 0 1
0 -178 12 -246 0 0 -1 93.09375 -88.65625 1 0 1
0 -176 12 -246 0 0 -1 93.09375 -88.640625 1 0 1
plaster_plasterwall029a
0 -178 8 -174 0 0 1 93.125 -88.65625 1 0 1
0 -176 8 -174 0 0 1 93.125 -88.640625 1 0 1
0 -176 12 -174 0 0 1 93.09375 -88.640625 1 0 1
plaster_plasterwall029a
0 -178 8 -174 0 0 1 93.125 -88.65625 1 0 1
0 -176 12 -174 0 0 1 93.09375 -88.640625 1 0 1
0 -178 12 -174 0 0 1 93.09375 -88.65625 1 0 1
plaster_wallpaper002b
0 -30 12 -46 0 1 0 -88.5 -0.234375 1 0 1
0 -30 12 -118 0 1 0 -88.5 -0.796875 1 0 1
0 -32 12 -118 0 1 0 -88.515625 -0.796875 1 0 1
plaster_wallpaper002b
0 -30 12 -46 0 1 0 -88.5 -0.234375 1 0 1
0 -32 12 -118 0 1 0 -88.515625 -0.796875 1 0 1
0 -32 12 -46 0 1 0 -88.515625 -0.234375 1 0 1
plaster_plasterwall029a
0 -30 8 -118 0 -1 0 -88.5 -0.328125 1 0 1
0 -30 8 -46 0 -1 0 -88.5 0.234375 1 0 1
0 -32 8 -46 0 -1 0 -88.515625 0.234375 1 0 1
plaster_plasterwall029a
0 -30 8 -118 0 -1 0 -88.5 -0.328125 1 0 1
0 -32 8 -46 0 -1 0 -88.515625 0.234375 1 0 1
0 -32 8 -118 0 -1 0 -88.515625 -0.328125 1 0 1
plaster_plasterwall029a
0 -32 8 -118 -1 0 0 93.125 -0.328125 1 0 1
0 -32 8 -46 -1 0 0 93.125 0.234375 1 0 1
0 -32 12 -46 -1 0 0 93.09375 0.234375 1 0 1
plaster_plasterwall029a
0 -32 8 -118 -1 0 0 93.125 -0.328125 1 0 1
0 -32 12 -46 -1 0 0 93.09375 0.234375 1 0 1
0 -32 12 -118 -1 0 0 93.09375 -0.328125 1 0 1
plaster_plasterwall029a
0 -30 8 -118 0 0 -1 93.125 -87.5 1 0 1
0 -32 8 -118 0 0 -1 93.125 -87.515625 1 0 1
0 -32 12 -118 0 0 -1 93.09375 -87.515625 1 0 1
plaster_plasterwall029a
0 -30 8 -118 0 0 -1 93.125 -87.5 1 0 1
0 -32 12 -118 0 0 -1 93.09375 -87.515625 1 0 1
0 -30 12 -118 0 0 -1 93.09375 -87.5 1 0 1
plaster_plasterwall029a
0 -32 8 -46 0 0 1 93.125 -87.515625 1 0 1
0 -30 8 -46 0 0 1 93.125 -87.5 1 0 1
0 -30 12 -46 0 0 1 93.09375 -87.5 1 0 1
plaster_plasterwall029a
0 -32 8 -46 0 0 1 93.125 -87.515625 1 0 1
0 -30 12 -46 0 0 1 93.09375 -87.5 1 0 1
0 -32 12 -46 0 0 1 93.09375 -87.515625 1 0 1
brick_brickwall053e
0 -199 -8 -48 0 -1 0 -89.8125 0.5 1 0 1
0 -199 -8 -16 0 -1 0 -89.8125 0.75 1 0 1
0 -223 -8 -16 0 -1 0 -90 0.75 1 0 1
brick_brickwall053e
0 -199 -8 -48 0 -1 0 -89.8125 0.5 1 0 1
0 -223 -8 -16 0 -1 0 -90 0.75 1 0 1
0 -223 -8 -48 0 -1 0 -90 0.5 1 0 1
brick_brickwall053a
0 -223 -8 -48 -1 0 0 92.726562 0.5 1 0 1
0 -223 -8 -16 -1 0 0 92.726562 0.75 1 0 1
0 -223 8 -16 -1 0 0 92.601562 0.75 1 0 1
brick_brickwall053a
0 -223 -8 -48 -1 0 0 92.726562 0.5 1 0 1
0 -223 8 -16 -1 0 0 92.601562 0.75 1 0 1
0 -223 8 -48 -1 0 0 92.601562 0.5 1 0 1
brick_brickwall053e
0 -199 -8 -16 1 0 0 93.25 0.75 1 0 1
0 -199 -8 -48 1 0 0 93.25 0.5 1 0 1
0 -199 8 -48 1 0 0 93.125 0.5 1 0 1
brick_brickwall053e
0 -199 -8 -16 1 0 0 93.25 0.75 1 0 1
0 -199 8 -48 1 0 0 93.125 0.5 1 0 1
0 -199 8 -16 1 0 0 93.125 0.75 1 0 1
plaster_plasterwall029a
0 -30 12 -174 0 1 0 -88.5 -0.765625 1 0 1
0 -30 12 -246 0 1 0 -88.5 -1.328125 1 0 1
0 -32 12 -246 0 1 0 -88.515625 -1.328125 1 0 1
plaster_plasterwall029a
0 -30 12 -174 0 1 0 -88.5 -0.765625 1 0 1
0 -32 12 -246 0 1 0 -88.515625 -1.328125 1 0 1
0 -32 12 -174 0 1 0 -88.515625 -0.765625 1 0 1
plaster_plasterwall029a
0 -30 8 -246 0 -1 0 -88.5 -1.328125 1 0 1
0 -30 8 -174 0 -1 0 -88.5 -0.765625 1 0 1
0 -32 8 -174 0 -1 0 -88.515625 -0.765625 1 0 1
plaster_plasterwall029a
0 -30 8 -246 0 -1 0 -88.5 -1.328125 1 0 1
0 -32 8 -174 0 -1 0 -88.515625 -0.765625 1 0 1
0 -32 8 -246 0 -1 0 -88.515625 -1.328125 1 0 1
plaster_plasterwall029a
0 -32 8 -246 -1 0 0 93.125 -1.328125 1 0 1
0 -32 8 -174 -1 0 0 93.125 -0.765625 1 0 1
0 -32 12 -174 -1 0 0 93.09375 -0.765625 1 0 1
plaster_plasterwall029a
0 -32 8 -246 -1 0 0 93.125 -1.328125 1 0 1
0 -32 12 -174 -1 0 0 93.09375 -0.765625 1 0 1
0 -32 12 -246 -1 0 0 93.09375 -1.328125 1 0 1
plaster_plasterwall029a
0 -30 8 -174 1 0 0 93.125 -0.765625 1 0 1
0 -30 8 -246 1 0 0 93.125 -1.328125 1 0 1
0 -30 12 -246 1 0 0 93.09375 -1.328125 1 0 1
plaster_plasterwall029a
0 -30 8 -174 1 0 0 93.125 -0.765625 1 0 1
0 -30 12 -246 1 0 0 93.09375 -1.328125 1 0 1
0 -30 12 -174 1 0 0 93.09375 -0.765625 1 0 1
plaster_plasterwall029a
0 -30 8 -246 0 0 -1 93.125 -87.5 1 0 1
0 -32 8 -246 0 0 -1 93.125 -87.515625 1 0 1
0 -32 12 -246 0 0 -1 93.09375 -87.515625 1 0 1
plaster_plasterwall029a
0 -30 8 -246 0 0 -1 93.125 -87.5 1 0 1
0 -32 12 -246 0 0 -1 93.09375 -87.515625 1 0 1
0 -30 12 -246 0 0 -1 93.09375 -87.5 1 0 1
plaster_plasterwall029a
0 -32 8 -174 0 0 1 93.125 -87.515625 1 0 1
0 -30 8 -174 0 0 1 93.125 -87.5 1 0 1
0 -30 12 -174 0 0 1 93.09375 -87.5 1 0 1
plaster_plasterwall029a
0 -32 8 -174 0 0 1 93.125 -87.515625 1 0 1
0 -30 12 -174 0 0 1 93.09375 -87.5 1 0 1
0 -32 12 -174 0 0 1 93.09375 -87.515625 1 0 1
plaster_plasterwall029a
0 -130 12 -44 0 1 0 -89.28125 0.25 1 0 1
0 -130 12 -46 0 1 0 -89.28125 0.234375 1 0 1
0 -178 12 -46 0 1 0 -89.65625 0.234375 1 0 1
plaster_plasterwall029a
0 -130 12 -44 0 1 0 -89.28125 0.25 1 0 1
0 -178 12 -46 0 1 0 -89.65625 0.234375 1 0 1
0 -178 12 -44 0 1 0 -89.65625 0.25 1 0 1
plaster_plasterwall029a
0 -130 8 -46 0 -1 0 -89.515625 -0.234375 1 0 1
0 -130 8 -44 0 -1 0 -89.515625 -0.21875 1 0 1
0 -178 8 -44 0 -1 0 -89.890625 -0.21875 1 0 1
plaster_plasterwall029a
0 -130 8 -46 0 -1 0 -89.515625 -0.234375 1 0 1
0 -178 8 -44 0 -1 0 -89.890625 -0.21875 1 0 1
0 -178 8 -46 0 -1 0 -89.890625 -0.234375 1 0 1
plaster_plasterwall029a
0 -130 8 -46 0 0 -1 93.125 -88.28125 1 0 1
0 -178 8 -46 0 0 -1 93.125 -88.65625 1 0 1
0 -178 12 -46 0 0 -1 93.09375 -88.65625 1 0 1
plaster_plasterwall029a
0 -130 8 -46 0 0 -1 93.125 -88.28125 1 0 1
0 -178 12 -46 0 0 -1 93.09375 -88.65625 1 0 1
0 -130 12 -46 0 0 -1 93.09375 -88.28125 1 0 1
plaster_plasterwall029a
0 -178 8 -44 0 0 1 93.125 -88.65625 1 0 1
0 -130 8 -44 0 0 1 93.125 -88.28125 1 0 1
0 -130 12 -44 0 0 1 93.09375 -88.28125 1 0 1
plaster_plasterwall029a
0 -178 8 -44 0 0 1 93.125 -88.65625 1 0 1
0 -130 12 -44 0 0 1 93.09375 -88.28125 1 0 1
0 -178 12 -44 0 0 1 93.09375 -88.65625 1 0 1
plaster_plasterwall029a
0 -30 12 -246 0 1 0 -88.5 -1.328125 1 0 1
0 -30 12 -248 0 1 0 -88.5 -1.34375 1 0 1
0 -78 12 -248 0 1 0 -88.875 -1.34375 1 0 1
plaster_plasterwall029a
0 -30 12 -246 0 1 0 -88.5 -1.328125 1 0 1
0 -78 12 -248 0 1 0 -88.875 -1.34375 1 0 1
0 -78 12 -246 0 1 0 -88.875 -1.328125 1 0 1
plaster_plasterwall029a
0 -30 8 -248 0 -1 0 -88.5 -1.34375 1 0 1
0 -30 8 -246 0 -1 0 -88.5 -1.328125 1 0 1
0 -78 8 -246 0 -1 0 -88.875 -1.328125 1 0 1
plaster_plasterwall029a
0 -30 8 -248 0 -1 0 -88.5 -1.34375 1 0 1
0 -78 8 -246 0 -1 0 -88.875 -1.328125 1 0 1
0 -78 8 -248 0 -1 0 -88.875 -1.34375 1 0 1
plaster_plasterwall029a
0 -78 8 -248 -1 0 0 93.125 -1.34375 1 0 1
0 -78 8 -246 -1 0 0 93.125 -1.328125 1 0 1
0 -78 12 -246 -1 0 0 93.09375 -1.328125 1 0 1
plaster_plasterwall029a
0 -78 8 -248 -1 0 0 93.125 -1.34375 1 0 1
0 -78 12 -246 -1 0 0 93.09375 -1.328125 1 0 1
0 -78 12 -248 -1 0 0 93.09375 -1.34375 1 0 1
plaster_plasterwall029a
0 -30 8 -246 1 0 0 93.125 -1.328125 1 0 1
0 -30 8 -248 1 0 0 93.125 -1.34375 1 0 1
0 -30 12 -248 1 0 0 93.09375 -1.34375 1 0 1
plaster_plasterwall029a
0 -30 8 -246 1 0 0 93.125 -1.328125 1 0 1
0 -30 12 -248 1 0 0 93.09375 -1.34375 1 0 1
0 -30 12 -246 1 0 0 93.09375 -1.328125 1 0 1
plaster_plasterwall029a
0 -30 8 -248 0 0 -1 93.125 -87.5 1 0 1
0 -78 8 -248 0 0 -1 93.125 -87.875 1 0 1
0 -78 12 -248 0 0 -1 93.09375 -87.875 1 0 1
plaster_plasterwall029a
0 -30 8 -248 0 0 -1 93.125 -87.5 1 0 1
0 -78 12 -248 0 0 -1 93.09375 -87.875 1 0 1
0 -30 12 -248 0 0 -1 93.09375 -87.5 1 0 1
plaster_plasterwall029a
0 -78 8 -246 0 0 1 93.125 -87.875 1 0 1
0 -30 8 -246 0 0 1 93.125 -87.5 1 0 1
0 -30 12 -246 0 0 1 93.09375 -87.5 1 0 1
plaster_plasterwall029a
0 -78 8 -246 0 0 1 93.125 -87.875 1 0 1
0 -30 12 -246 0 0 1 93.09375 -87.5 1 0 1
0 -78 12 -246 0 0 1 93.09375 -87.875 1 0 1
glass_glasswindowbreak070a
0 -32 9 -118 0 -1 0 -257.113004 -1.999897 1 0 1
0 -32 9 -46 0 -1 0 -257.113004 -0.999719 1 0 1
0 -76 9 -46 0 -1 0 -258.11344 -0.999719 1 0 1
glass_glasswindowbreak070a
0 -32 9 -118 0 -1 0 -257.113004 -1.999897 1 0 1
0 -76 9 -46 0 -1 0 -258.11344 -0.999719 1 0 1
0 -76 9 -118 0 -1 0 -258.11344 -1.999897 1 0 1
plaster_plasterwall029a
0 -178 8 -120 0 0 -1 93.125 -88.65625 1 0 1
0 -178 12 -120 0 0 -1 93.09375 -88.65625 1 0 1
0 -130 12 -120 0 0 -1 93.09375 -88.28125 1 0 1
plaster_plasterwall029a
0 -178 8 -120 0 0 -1 93.125 -88.65625 1 0 1
0 -130 12 -120 0 0 -1 93.09375 -88.28125 1 0 1
0 -130 8 -120 0 0 -1 93.125 -88.28125 1 0 1
plaster_plasterwall029a
0 -130 8 -118 0 0 1 93.125 -88.28125 1 0 1
0 -130 12 -118 0 0 1 93.09375 -88.28125 1 0 1
0 -178 12 -118 0 0 1 93.09375 -88.65625 1 0 1
plaster_plasterwall029a
0 -130 8 -118 0 0 1 93.125 -88.28125 1 0 1
0 -178 12 -118 0 0 1 93.09375 -88.65625 1 0 1
0 -178 8 -118 0 0 1 93.125 -88.65625 1 0 1
plaster_plasterwall029a
0 -130 12 -118 0 1 0 -89.28125 -0.328125 1 0 1
0 -130 12 -120 0 1 0 -89.28125 -0.34375 1 0 1
0 -178 12 -120 0 1 0 -89.65625 -0.34375 1 0 1
plaster_plasterwall029a
0 -130 12 -118 0 1 0 -89.28125 -0.328125 1 0 1
0 -178 12 -120 0 1 0 -89.65625 -0.34375 1 0 1
0 -178 12 -118 0 1 0 -89.65625 -0.328125 1 0 1
plaster_plasterwall029a
0 -130 8 -120 0 -1 0 -89.28125 -0.34375 1 0 1
0 -130 8 -118 0 -1 0 -89.28125 -0.328125 1 0 1
0 -178 8 -118 0 -1 0 -89.65625 -0.328125 1 0 1
plaster_plasterwall029a
0 -130 8 -120 0 -1 0 -89.28125 -0.34375 1 0 1
0 -178 8 -118 0 -1 0 -89.65625 -0.328125 1 0 1
0 -178 8 -120 0 -1 0 -89.65625 -0.34375 1 0 1
brick_brickwall053e
0 12 -8 -48 0 -1 0 -88.15625 0.5 1 0 1
0 12 -8 -16 0 -1 0 -88.15625 0.75 1 0 1
0 -12 -8 -16 0 -1 0 -88.34375 0.75 1 0 1
brick_brickwall053e
0 12 -8 -48 0 -1 0 -88.15625 0.5 1 0 1
0 -12 -8 -16 0 -1 0 -88.34375 0.75 1 0 1
0 -12 -8 -48 0 -1 0 -88.34375 0.5 1 0 1
brick_brickwall053e
0 -12 -8 -48 -1 0 0 93.25 0.5 1 0 1
0 -12 -8 -16 -1 0 0 93.25 0.75 1 0 1
0 -12 8 -16 -1 0 0 93.125 0.75 1 0 1
brick_brickwall053e
0 -12 -8 -48 -1 0 0 93.25 0.5 1 0 1
0 -12 8 -16 -1 0 0 93.125 0.75 1 0 1
0 -12 8 -48 -1 0 0 93.125 0.5 1 0 1
brick_brickwall053e
0 12 -8 -16 1 0 0 93.25 0.75 1 0 1
0 12 -8 -48 1 0 0 93.25 0.5 1 0 1
0 12 8 -48 1 0 0 93.125 0.5 1 0 1
brick_brickwall053e
0 12 -8 -16 1 0 0 93.25 0.75 1 0 1
0 12 8 -48 1 0 0 93.125 0.5 1 0 1
0 12 8 -16 1 0 0 93.125 0.75 1 0 1
plaster_plasterwall029a
0 -130 12 -174 0 1 0 -89.28125 -0.765625 1 0 1
0 -130 12 -246 0 1 0 -89.28125 -1.328125 1 0 1
0 -132 12 -246 0 1 0 -89.296875 -1.328125 1 0 1
plaster_plasterwall029a
0 -130 12 -174 0 1 0 -89.28125 -0.765625 1 0 1
0 -132 12 -246 0 1 0 -89.296875 -1.328125 1 0 1
0 -132 12 -174 0 1 0 -89.296875 -0.765625 1 0 1
plaster_plasterwall029a
0 -130 8 -246 0 -1 0 -89.28125 -1.328125 1 0 1
0 -130 8 -174 0 -1 0 -89.28125 -0.765625 1 0 1
0 -132 8 -174 0 -1 0 -89.296875 -0.765625 1 0 1
plaster_plasterwall029a
0 -130 8 -246 0 -1 0 -89.28125 -1.328125 1 0 1
0 -132 8 -174 0 -1 0 -89.296875 -0.765625 1 0 1
0 -132 8 -246 0 -1 0 -89.296875 -1.328125 1 0 1
plaster_plasterwall029a
0 -132 8 -246 -1 0 0 93.125 -1.328125 1 0 1
0 -132 8 -174 -1 0 0 93.125 -0.765625 1 0 1
0 -132 12 -174 -1 0 0 93.09375 -0.765625 1 0 1
plaster_plasterwall029a
0 -132 8 -246 -1 0 0 93.125 -1.328125 1 0 1
0 -132 12 -174 -1 0 0 93.09375 -0.765625 1 0 1
0 -132 12 -246 -1 0 0 93.09375 -1.328125 1 0 1
plaster_plasterwall029a
0 -130 8 -174 1 0 0 93.125 -0.765625 1 0 1
0 -130 8 -246 1 0 0 93.125 -1.328125 1 0 1
0 -130 12 -246 1 0 0 93.09375 -1.328125 1 0 1
plaster_plasterwall029a
0 -130 8 -174 1 0 0 93.125 -0.765625 1 0 1
0 -130 12 -246 1 0 0 93.09375 -1.328125 1 0 1
0 -130 12 -174 1 0 0 93.09375 -0.765625 1 0 1
plaster_plasterwall029a
0 -130 8 -246 0 0 -1 93.125 -88.28125 1 0 1
0 -132 8 -246 0 0 -1 93.125 -88.296875 1 0 1
0 -132 12 -246 0 0 -1 93.09375 -88.296875 1 0 1
plaster_plasterwall029a
0 -130 8 -246 0 0 -1 93.125 -88.28125 1 0 1
0 -132 12 -246 0 0 -1 93.09375 -88.296875 1 0 1
0 -130 12 -246 0 0 -1 93.09375 -88.28125 1 0 1
plaster_plasterwall029a
0 -132 8 -174 0 0 1 93.125 -88.296875 1 0 1
0 -130 8 -174 0 0 1 93.125 -88.28125 1 0 1
0 -130 12 -174 0 0 1 93.09375 -88.28125 1 0 1
plaster_plasterwall029a
0 -132 8 -174 0 0 1 93.125 -88.296875 1 0 1
0 -130 12 -174 0 0 1 93.09375 -88.28125 1 0 1
0 -132 12 -174 0 0 1 93.09375 -88.296875 1 0 1
concrete_concreteceiling004a
0 -102 -8 -24 0 -0.447214 -0.894427 93.25 -88.046875 1 0 1
0 -110 -8 -24 0 -0.447214 -0.894427 93.25 -88.109375 1 0 1
0 -110 8 -32 0 -0.447214 -0.894427 93.125 -88.109375 1 0 1
concrete_concreteceiling004a
0 -102 -8 -24 0 -0.447214 -0.894427 93.25 -88.046875 1 0 1
0 -110 8 -32 0 -0.447214 -0.894427 93.125 -88.109375 1 0 1
0 -102 8 -32 0 -0.447214 -0.894427 93.125 -88.046875 1 0 1
brick_brickwall053e
0 -110 -8 -16 0 -1 0 -89.109375 0.75 1 0 1
0 -110 -8 -24 0 -1 0 -89.109375 0.6875 1 0 1
0 -102 -8 -24 0 -1 0 -89.046875 0.6875 1 0 1
brick_brickwall053e
0 -110 -8 -16 0 -1 0 -89.109375 0.75 1 0 1
0 -102 -8 -24 0 -1 0 -89.046875 0.6875 1 0 1
0 -102 -8 -16 0 -1 0 -89.046875 0.75 1 0 1
brick_brickwall053e
0 -110 8 -16 -1 0 0 93.125 0.75 1 0 1
0 -110 8 -32 -1 0 0 93.125 0.625 1 0 1
0 -110 -8 -24 -1 0 0 93.25 0.6875 1 0 1
brick_brickwall053e
0 -110 8 -16 -1 0 0 93.125 0.75 1 0 1
0 -110 -8 -24 -1 0 0 93.25 0.6875 1 0 1
0 -110 -8 -16 -1 0 0 93.25 0.75 1 0 1
brick_brickwall053e
0 -102 -8 -16 1 0 0 93.25 0.75 1 0 1
0 -102 -8 -24 1 0 0 93.25 0.6875 1 0 1
0 -102 8 -32 1 0 0 93.125 0.625 1 0 1
brick_brickwall053e
0 -102 -8 -16 1 0 0 93.25 0.75 1 0 1
0 -102 8 -32 1 0 0 93.125 0.625 1 0 1
0 -102 8 -16 1 0 0 93.125 0.75 1 0 1
plaster_plasterwall029a
0 -78 8 -172 0 0 1 93.125 -87.875 1 0 1
0 -30 8 -172 0 0 1 93.125 -87.5 1 0 1
0 -30 12 -172 0 0 1 93.09375 -87.5 1 0 1
plaster_plasterwall029a
0 -78 8 -172 0 0 1 93.125 -87.875 1 0 1
0 -30 12 -172 0 0 1 93.09375 -87.5 1 0 1
0 -78 12 -172 0 0 1 93.09375 -87.875 1 0 1
plaster_plasterwall029a
0 -78 12 -174 0 1 0 -88.875 -0.765625 1 0 1
0 -78 12 -172 0 1 0 -88.875 -0.75 1 0 1
0 -30 12 -172 0 1 0 -88.5 -0.75 1 0 1
plaster_plasterwall029a
0 -78 12 -174 0 1 0 -88.875 -0.765625 1 0 1
0 -30 12 -172 0 1 0 -88.5 -0.75 1 0 1
0 -30 12 -174 0 1 0 -88.5 -0.765625 1 0 1
plaster_plasterwall029a
0 -30 8 -174 0 -1 0 -88.734375 -1.234375 1 0 1
0 -30 8 -172 0 -1 0 -88.734375 -1.21875 1 0 1
0 -78 8 -172 0 -1 0 -89.109375 -1.21875 1 0 1
plaster_plasterwall029a
0 -30 8 -174 0 -1 0 -88.734375 -1.234375 1 0 1
0 -78 8 -172 0 -1 0 -89.109375 -1.21875 1 0 1
0 -78 8 -174 0 -1 0 -89.109375 -1.234375 1 0 1
plaster_plasterwall029a
0 -78 8 -174 -1 0 0 93.125 -0.765625 1 0 1
0 -78 8 -172 -1 0 0 93.125 -0.75 1 0 1
0 -78 12 -172 -1 0 0 93.09375 -0.75 1 0 1
plaster_plasterwall029a
0 -78 8 -174 -1 0 0 93.125 -0.765625 1 0 1
0 -78 12 -172 -1 0 0 93.09375 -0.75 1 0 1
0 -78 12 -174 -1 0 0 93.09375 -0.765625 1 0 1
plaster_plasterwall029a
0 -30 12 -174 1 0 0 93.09375 -0.765625 1 0 1
0 -30 12 -172 1 0 0 93.09375 -0.75 1 0 1
0 -30 8 -172 1 0 0 93.125 -0.75 1 0 1
plaster_plasterwall029a
0 -30 12 -174 1 0 0 93.09375 -0.765625 1 0 1
0 -30 8 -172 1 0 0 93.125 -0.75 1 0 1
0 -30 8 -174 1 0 0 93.125 -0.765625 1 0 1
plaster_plasterwall029a
0 -30 8 -174 0 0 -1 93.125 -87.5 1 0 1
0 -78 8 -174 0 0 -1 93.125 -87.875 1 0 1
0 -78 12 -174 0 0 -1 93.09375 -87.875 1 0 1
plaster_plasterwall029a
0 -30 8 -174 0 0 -1 93.125 -87.5 1 0 1
0 -78 12 -174 0 0 -1 93.09375 -87.875 1 0 1
0 -30 12 -174 0 0 -1 93.09375 -87.5 1 0 1
glass_glasswindowbreak070a
0 -32 9 -246 0 -1 0 -257.113004 -3.000647 1 0 1
0 -32 9 -174 0 -1 0 -257.113004 -2.00047 1 0 1
0 -76 9 -174 0 -1 0 -258.11344 -2.00047 1 0 1
glass_glasswindowbreak070a
0 -32 9 -246 0 -1 0 -257.113004 -3.000647 1 0 1
0 -76 9 -174 0 -1 0 -258.11344 -2.00047 1 0 1
0 -76 9 -246 0 -1 0 -258.11344 -3.000647 1 0 1
end
