version 1
nodes
0 "root" -1
end
skeleton
time 0
0 0 0 0 0 0 0
end
triangles
phys
0 -156 4 228 0 0 1 1 0 1 0 1
0 -156 4 226 0 0 1 1 0 1 0 1
0 -236 4 226 0 0 1 1 0 1 0 1
phys
0 -156 4 228 0 0 1 1 0 1 0 1
0 -236 4 226 0 0 1 1 0 1 0 1
0 -236 4 228 0 0 1 1 0 1 0 1
phys
0 -156 -4 226 0 0 1 1 0 1 0 1
0 -156 -4 228 0 0 1 1 0 1 0 1
0 -236 -4 228 0 0 1 1 0 1 0 1
phys
0 -156 -4 226 0 0 1 1 0 1 0 1
0 -236 -4 228 0 0 1 1 0 1 0 1
0 -236 -4 226 0 0 1 1 0 1 0 1
phys
0 -236 -4 226 0 0 1 1 0 1 0 1
0 -236 -4 228 0 0 1 1 0 1 0 1
0 -236 4 228 0 0 1 1 0 1 0 1
phys
0 -236 -4 226 0 0 1 1 0 1 0 1
0 -236 4 228 0 0 1 1 0 1 0 1
0 -236 4 226 0 0 1 1 0 1 0 1
phys
0 -156 -4 228 0 0 1 1 0 1 0 1
0 -156 -4 226 0 0 1 1 0 1 0 1
0 -156 4 226 0 0 1 1 0 1 0 1
phys
0 -156 -4 228 0 0 1 1 0 1 0 1
0 -156 4 226 0 0 1 1 0 1 0 1
0 -156 4 228 0 0 1 1 0 1 0 1
phys
0 -156 -4 226 0 0 1 1 0 1 0 1
0 -236 -4 226 0 0 1 1 0 1 0 1
0 -236 4 226 0 0 1 1 0 1 0 1
phys
0 -156 -4 226 0 0 1 1 0 1 0 1
0 -236 4 226 0 0 1 1 0 1 0 1
0 -156 4 226 0 0 1 1 0 1 0 1
phys
0 -236 -4 228 0 0 1 1 0 1 0 1
0 -156 -4 228 0 0 1 1 0 1 0 1
0 -156 4 228 0 0 1 1 0 1 0 1
phys
0 -236 -4 228 0 0 1 1 0 1 0 1
0 -156 4 228 0 0 1 1 0 1 0 1
0 -236 4 228 0 0 1 1 0 1 0 1
phys
0 -195 0 226 0 0 1 2 0 1 0 1
0 -195 0 158 0 0 1 2 0 1 0 1
0 -197 0 158 0 0 1 2 0 1 0 1
phys
0 -195 0 226 0 0 1 2 0 1 0 1
0 -197 0 158 0 0 1 2 0 1 0 1
0 -197 0 226 0 0 1 2 0 1 0 1
phys
0 -195 -4 158 0 0 1 2 0 1 0 1
0 -195 -4 226 0 0 1 2 0 1 0 1
0 -197 -4 226 0 0 1 2 0 1 0 1
phys
0 -195 -4 158 0 0 1 2 0 1 0 1
0 -197 -4 226 0 0 1 2 0 1 0 1
0 -197 -4 158 0 0 1 2 0 1 0 1
phys
0 -197 -4 158 0 0 1 2 0 1 0 1
0 -197 -4 226 0 0 1 2 0 1 0 1
0 -197 0 226 0 0 1 2 0 1 0 1
phys
0 -197 -4 158 0 0 1 2 0 1 0 1
0 -197 0 226 0 0 1 2 0 1 0 1
0 -197 0 158 0 0 1 2 0 1 0 1
phys
0 -195 -4 226 0 0 1 2 0 1 0 1
0 -195 -4 158 0 0 1 2 0 1 0 1
0 -195 0 158 0 0 1 2 0 1 0 1
phys
0 -195 -4 226 0 0 1 2 0 1 0 1
0 -195 0 158 0 0 1 2 0 1 0 1
0 -195 0 226 0 0 1 2 0 1 0 1
phys
0 -195 -4 158 0 0 1 2 0 1 0 1
0 -197 -4 158 0 0 1 2 0 1 0 1
0 -197 0 158 0 0 1 2 0 1 0 1
phys
0 -195 -4 158 0 0 1 2 0 1 0 1
0 -197 0 158 0 0 1 2 0 1 0 1
0 -195 0 158 0 0 1 2 0 1 0 1
phys
0 -197 -4 226 0 0 1 2 0 1 0 1
0 -195 -4 226 0 0 1 2 0 1 0 1
0 -195 0 226 0 0 1 2 0 1 0 1
phys
0 -197 -4 226 0 0 1 2 0 1 0 1
0 -195 0 226 0 0 1 2 0 1 0 1
0 -197 0 226 0 0 1 2 0 1 0 1
phys
0 -156 4 158 0 0 1 3 0 1 0 1
0 -156 4 156 0 0 1 3 0 1 0 1
0 -236 4 156 0 0 1 3 0 1 0 1
phys
0 -156 4 158 0 0 1 3 0 1 0 1
0 -236 4 156 0 0 1 3 0 1 0 1
0 -236 4 158 0 0 1 3 0 1 0 1
phys
0 -156 -4 156 0 0 1 3 0 1 0 1
0 -156 -4 158 0 0 1 3 0 1 0 1
0 -236 -4 158 0 0 1 3 0 1 0 1
phys
0 -156 -4 156 0 0 1 3 0 1 0 1
0 -236 -4 158 0 0 1 3 0 1 0 1
0 -236 -4 156 0 0 1 3 0 1 0 1
phys
0 -236 -4 156 0 0 1 3 0 1 0 1
0 -236 -4 158 0 0 1 3 0 1 0 1
0 -236 4 158 0 0 1 3 0 1 0 1
phys
0 -236 -4 156 0 0 1 3 0 1 0 1
0 -236 4 158 0 0 1 3 0 1 0 1
0 -236 4 156 0 0 1 3 0 1 0 1
phys
0 -156 -4 158 0 0 1 3 0 1 0 1
0 -156 -4 156 0 0 1 3 0 1 0 1
0 -156 4 156 0 0 1 3 0 1 0 1
phys
0 -156 -4 158 0 0 1 3 0 1 0 1
0 -156 4 156 0 0 1 3 0 1 0 1
0 -156 4 158 0 0 1 3 0 1 0 1
phys
0 -156 -4 156 0 0 1 3 0 1 0 1
0 -236 -4 156 0 0 1 3 0 1 0 1
0 -236 4 156 0 0 1 3 0 1 0 1
phys
0 -156 -4 156 0 0 1 3 0 1 0 1
0 -236 4 156 0 0 1 3 0 1 0 1
0 -156 4 156 0 0 1 3 0 1 0 1
phys
0 -236 -4 158 0 0 1 3 0 1 0 1
0 -156 -4 158 0 0 1 3 0 1 0 1
0 -156 4 158 0 0 1 3 0 1 0 1
phys
0 -236 -4 158 0 0 1 3 0 1 0 1
0 -156 4 158 0 0 1 3 0 1 0 1
0 -236 4 158 0 0 1 3 0 1 0 1
phys
0 -100 -4 55.998 0 0 1 4 0 1 0 1
0 236 -4 55.998 0 0 1 4 0 1 0 1
0 236 4 63.998 0 0 1 4 0 1 0 1
phys
0 -100 -4 55.998 0 0 1 4 0 1 0 1
0 236 4 63.998 0 0 1 4 0 1 0 1
0 -100 4 63.998 0 0 1 4 0 1 0 1
phys
0 -100 4 0 0 0 1 4 0 1 0 1
0 -100 4 63.998 0 0 1 4 0 1 0 1
0 236 4 63.998 0 0 1 4 0 1 0 1
phys
0 -100 4 0 0 0 1 4 0 1 0 1
0 236 4 63.998 0 0 1 4 0 1 0 1
0 236 4 0 0 0 1 4 0 1 0 1
phys
0 236 -4 0 0 0 1 4 0 1 0 1
0 236 -4 55.998 0 0 1 4 0 1 0 1
0 -100 -4 55.998 0 0 1 4 0 1 0 1
phys
0 236 -4 0 0 0 1 4 0 1 0 1
0 -100 -4 55.998 0 0 1 4 0 1 0 1
0 -100 -4 0 0 0 1 4 0 1 0 1
phys
0 -100 -4 0 0 0 1 4 0 1 0 1
0 -100 -4 55.998 0 0 1 4 0 1 0 1
0 -100 4 63.998 0 0 1 4 0 1 0 1
phys
0 -100 -4 0 0 0 1 4 0 1 0 1
0 -100 4 63.998 0 0 1 4 0 1 0 1
0 -100 4 0 0 0 1 4 0 1 0 1
phys
0 236 4 0 0 0 1 4 0 1 0 1
0 236 4 63.998 0 0 1 4 0 1 0 1
0 236 -4 55.998 0 0 1 4 0 1 0 1
phys
0 236 4 0 0 0 1 4 0 1 0 1
0 236 -4 55.998 0 0 1 4 0 1 0 1
0 236 -4 0 0 0 1 4 0 1 0 1
phys
0 236 -4 0 0 0 1 4 0 1 0 1
0 -100 -4 0 0 0 1 4 0 1 0 1
0 -100 4 0 0 0 1 4 0 1 0 1
phys
0 236 -4 0 0 0 1 4 0 1 0 1
0 -100 4 0 0 0 1 4 0 1 0 1
0 236 4 0 0 0 1 4 0 1 0 1
phys
0 -156 4 100 0 0 1 5 0 1 0 1
0 -156 4 98 0 0 1 5 0 1 0 1
0 -236 4 98 0 0 1 5 0 1 0 1
phys
0 -156 4 100 0 0 1 5 0 1 0 1
0 -236 4 98 0 0 1 5 0 1 0 1
0 -236 4 100 0 0 1 5 0 1 0 1
phys
0 -156 -4 98 0 0 1 5 0 1 0 1
0 -156 -4 100 0 0 1 5 0 1 0 1
0 -236 -4 100 0 0 1 5 0 1 0 1
phys
0 -156 -4 98 0 0 1 5 0 1 0 1
0 -236 -4 100 0 0 1 5 0 1 0 1
0 -236 -4 98 0 0 1 5 0 1 0 1
phys
0 -236 -4 98 0 0 1 5 0 1 0 1
0 -236 -4 100 0 0 1 5 0 1 0 1
0 -236 4 100 0 0 1 5 0 1 0 1
phys
0 -236 -4 98 0 0 1 5 0 1 0 1
0 -236 4 100 0 0 1 5 0 1 0 1
0 -236 4 98 0 0 1 5 0 1 0 1
phys
0 -156 -4 100 0 0 1 5 0 1 0 1
0 -156 -4 98 0 0 1 5 0 1 0 1
0 -156 4 98 0 0 1 5 0 1 0 1
phys
0 -156 -4 100 0 0 1 5 0 1 0 1
0 -156 4 98 0 0 1 5 0 1 0 1
0 -156 4 100 0 0 1 5 0 1 0 1
phys
0 -156 -4 98 0 0 1 5 0 1 0 1
0 -236 -4 98 0 0 1 5 0 1 0 1
0 -236 4 98 0 0 1 5 0 1 0 1
phys
0 -156 -4 98 0 0 1 5 0 1 0 1
0 -236 4 98 0 0 1 5 0 1 0 1
0 -156 4 98 0 0 1 5 0 1 0 1
phys
0 -236 -4 100 0 0 1 5 0 1 0 1
0 -156 -4 100 0 0 1 5 0 1 0 1
0 -156 4 100 0 0 1 5 0 1 0 1
phys
0 -236 -4 100 0 0 1 5 0 1 0 1
0 -156 4 100 0 0 1 5 0 1 0 1
0 -236 4 100 0 0 1 5 0 1 0 1
phys
0 -234 -4 30 0 0 1 6 0 1 0 1
0 -234 -4 98 0 0 1 6 0 1 0 1
0 -236 -4 98 0 0 1 6 0 1 0 1
phys
0 -234 -4 30 0 0 1 6 0 1 0 1
0 -236 -4 98 0 0 1 6 0 1 0 1
0 -236 -4 30 0 0 1 6 0 1 0 1
phys
0 -236 -4 30 0 0 1 6 0 1 0 1
0 -236 -4 98 0 0 1 6 0 1 0 1
0 -236 4 98 0 0 1 6 0 1 0 1
phys
0 -236 -4 30 0 0 1 6 0 1 0 1
0 -236 4 98 0 0 1 6 0 1 0 1
0 -236 4 30 0 0 1 6 0 1 0 1
phys
0 -234 -4 98 0 0 1 6 0 1 0 1
0 -234 -4 30 0 0 1 6 0 1 0 1
0 -234 4 30 0 0 1 6 0 1 0 1
phys
0 -234 -4 98 0 0 1 6 0 1 0 1
0 -234 4 30 0 0 1 6 0 1 0 1
0 -234 4 98 0 0 1 6 0 1 0 1
phys
0 -234 -4 30 0 0 1 6 0 1 0 1
0 -236 -4 30 0 0 1 6 0 1 0 1
0 -236 4 30 0 0 1 6 0 1 0 1
phys
0 -234 -4 30 0 0 1 6 0 1 0 1
0 -236 4 30 0 0 1 6 0 1 0 1
0 -234 4 30 0 0 1 6 0 1 0 1
phys
0 -236 -4 98 0 0 1 6 0 1 0 1
0 -234 -4 98 0 0 1 6 0 1 0 1
0 -234 4 98 0 0 1 6 0 1 0 1
phys
0 -236 -4 98 0 0 1 6 0 1 0 1
0 -234 4 98 0 0 1 6 0 1 0 1
0 -236 4 98 0 0 1 6 0 1 0 1
phys
0 -234 4 98 0 0 1 6 0 1 0 1
0 -234 4 30 0 0 1 6 0 1 0 1
0 -236 4 30 0 0 1 6 0 1 0 1
phys
0 -234 4 98 0 0 1 6 0 1 0 1
0 -236 4 30 0 0 1 6 0 1 0 1
0 -236 4 98 0 0 1 6 0 1 0 1
phys
0 -156 -4 158 0 0 1 7 0 1 0 1
0 -158 -4 158 0 0 1 7 0 1 0 1
0 -158 4 158 0 0 1 7 0 1 0 1
phys
0 -156 -4 158 0 0 1 7 0 1 0 1
0 -158 4 158 0 0 1 7 0 1 0 1
0 -156 4 158 0 0 1 7 0 1 0 1
phys
0 -158 -4 226 0 0 1 7 0 1 0 1
0 -156 -4 226 0 0 1 7 0 1 0 1
0 -156 4 226 0 0 1 7 0 1 0 1
phys
0 -158 -4 226 0 0 1 7 0 1 0 1
0 -156 4 226 0 0 1 7 0 1 0 1
0 -158 4 226 0 0 1 7 0 1 0 1
phys
0 -156 4 158 0 0 1 7 0 1 0 1
0 -158 4 158 0 0 1 7 0 1 0 1
0 -158 4 226 0 0 1 7 0 1 0 1
phys
0 -156 4 158 0 0 1 7 0 1 0 1
0 -158 4 226 0 0 1 7 0 1 0 1
0 -156 4 226 0 0 1 7 0 1 0 1
phys
0 -156 -4 226 0 0 1 7 0 1 0 1
0 -158 -4 226 0 0 1 7 0 1 0 1
0 -158 -4 158 0 0 1 7 0 1 0 1
phys
0 -156 -4 226 0 0 1 7 0 1 0 1
0 -158 -4 158 0 0 1 7 0 1 0 1
0 -156 -4 158 0 0 1 7 0 1 0 1
phys
0 -158 -4 226 0 0 1 7 0 1 0 1
0 -158 4 226 0 0 1 7 0 1 0 1
0 -158 4 158 0 0 1 7 0 1 0 1
phys
0 -158 -4 226 0 0 1 7 0 1 0 1
0 -158 4 158 0 0 1 7 0 1 0 1
0 -158 -4 158 0 0 1 7 0 1 0 1
phys
0 -156 -4 158 0 0 1 7 0 1 0 1
0 -156 4 158 0 0 1 7 0 1 0 1
0 -156 4 226 0 0 1 7 0 1 0 1
phys
0 -156 -4 158 0 0 1 7 0 1 0 1
0 -156 4 226 0 0 1 7 0 1 0 1
0 -156 -4 226 0 0 1 7 0 1 0 1
phys
0 -195 0 98 0 0 1 8 0 1 0 1
0 -195 0 30 0 0 1 8 0 1 0 1
0 -197 0 30 0 0 1 8 0 1 0 1
phys
0 -195 0 98 0 0 1 8 0 1 0 1
0 -197 0 30 0 0 1 8 0 1 0 1
0 -197 0 98 0 0 1 8 0 1 0 1
phys
0 -195 -4 30 0 0 1 8 0 1 0 1
0 -195 -4 98 0 0 1 8 0 1 0 1
0 -197 -4 98 0 0 1 8 0 1 0 1
phys
0 -195 -4 30 0 0 1 8 0 1 0 1
0 -197 -4 98 0 0 1 8 0 1 0 1
0 -197 -4 30 0 0 1 8 0 1 0 1
phys
0 -197 -4 30 0 0 1 8 0 1 0 1
0 -197 -4 98 0 0 1 8 0 1 0 1
0 -197 0 98 0 0 1 8 0 1 0 1
phys
0 -197 -4 30 0 0 1 8 0 1 0 1
0 -197 0 98 0 0 1 8 0 1 0 1
0 -197 0 30 0 0 1 8 0 1 0 1
phys
0 -195 -4 98 0 0 1 8 0 1 0 1
0 -195 -4 30 0 0 1 8 0 1 0 1
0 -195 0 30 0 0 1 8 0 1 0 1
phys
0 -195 -4 98 0 0 1 8 0 1 0 1
0 -195 0 30 0 0 1 8 0 1 0 1
0 -195 0 98 0 0 1 8 0 1 0 1
phys
0 -195 -4 30 0 0 1 8 0 1 0 1
0 -197 -4 30 0 0 1 8 0 1 0 1
0 -197 0 30 0 0 1 8 0 1 0 1
phys
0 -195 -4 30 0 0 1 8 0 1 0 1
0 -197 0 30 0 0 1 8 0 1 0 1
0 -195 0 30 0 0 1 8 0 1 0 1
phys
0 -197 -4 98 0 0 1 8 0 1 0 1
0 -195 -4 98 0 0 1 8 0 1 0 1
0 -195 0 98 0 0 1 8 0 1 0 1
phys
0 -197 -4 98 0 0 1 8 0 1 0 1
0 -195 0 98 0 0 1 8 0 1 0 1
0 -197 0 98 0 0 1 8 0 1 0 1
phys
0 -158 -1 98 0 0 1 9 0 1 0 1
0 -158 -1 30 0 0 1 9 0 1 0 1
0 -195 -1 30 0 0 1 9 0 1 0 1
phys
0 -158 -1 98 0 0 1 9 0 1 0 1
0 -195 -1 30 0 0 1 9 0 1 0 1
0 -195 -1 98 0 0 1 9 0 1 0 1
phys
0 -158 -3 30 0 0 1 9 0 1 0 1
0 -158 -3 98 0 0 1 9 0 1 0 1
0 -195 -3 98 0 0 1 9 0 1 0 1
phys
0 -158 -3 30 0 0 1 9 0 1 0 1
0 -195 -3 98 0 0 1 9 0 1 0 1
0 -195 -3 30 0 0 1 9 0 1 0 1
phys
0 -195 -3 30 0 0 1 9 0 1 0 1
0 -195 -3 98 0 0 1 9 0 1 0 1
0 -195 -1 98 0 0 1 9 0 1 0 1
phys
0 -195 -3 30 0 0 1 9 0 1 0 1
0 -195 -1 98 0 0 1 9 0 1 0 1
0 -195 -1 30 0 0 1 9 0 1 0 1
phys
0 -158 -3 98 0 0 1 9 0 1 0 1
0 -158 -3 30 0 0 1 9 0 1 0 1
0 -158 -1 30 0 0 1 9 0 1 0 1
phys
0 -158 -3 98 0 0 1 9 0 1 0 1
0 -158 -1 30 0 0 1 9 0 1 0 1
0 -158 -1 98 0 0 1 9 0 1 0 1
phys
0 -158 -3 30 0 0 1 9 0 1 0 1
0 -195 -3 30 0 0 1 9 0 1 0 1
0 -195 -1 30 0 0 1 9 0 1 0 1
phys
0 -158 -3 30 0 0 1 9 0 1 0 1
0 -195 -1 30 0 0 1 9 0 1 0 1
0 -158 -1 30 0 0 1 9 0 1 0 1
phys
0 -195 -3 98 0 0 1 9 0 1 0 1
0 -158 -3 98 0 0 1 9 0 1 0 1
0 -158 -1 98 0 0 1 9 0 1 0 1
phys
0 -195 -3 98 0 0 1 9 0 1 0 1
0 -158 -1 98 0 0 1 9 0 1 0 1
0 -195 -1 98 0 0 1 9 0 1 0 1
phys
0 -156 4 98 0 0 1 10 0 1 0 1
0 -156 4 30 0 0 1 10 0 1 0 1
0 -158 4 30 0 0 1 10 0 1 0 1
phys
0 -156 4 98 0 0 1 10 0 1 0 1
0 -158 4 30 0 0 1 10 0 1 0 1
0 -158 4 98 0 0 1 10 0 1 0 1
phys
0 -156 -4 30 0 0 1 10 0 1 0 1
0 -156 -4 98 0 0 1 10 0 1 0 1
0 -158 -4 98 0 0 1 10 0 1 0 1
phys
0 -156 -4 30 0 0 1 10 0 1 0 1
0 -158 -4 98 0 0 1 10 0 1 0 1
0 -158 -4 30 0 0 1 10 0 1 0 1
phys
0 -158 -4 30 0 0 1 10 0 1 0 1
0 -158 -4 98 0 0 1 10 0 1 0 1
0 -158 4 98 0 0 1 10 0 1 0 1
phys
0 -158 -4 30 0 0 1 10 0 1 0 1
0 -158 4 98 0 0 1 10 0 1 0 1
0 -158 4 30 0 0 1 10 0 1 0 1
phys
0 -156 -4 98 0 0 1 10 0 1 0 1
0 -156 -4 30 0 0 1 10 0 1 0 1
0 -156 4 30 0 0 1 10 0 1 0 1
phys
0 -156 -4 98 0 0 1 10 0 1 0 1
0 -156 4 30 0 0 1 10 0 1 0 1
0 -156 4 98 0 0 1 10 0 1 0 1
phys
0 -156 -4 30 0 0 1 10 0 1 0 1
0 -158 -4 30 0 0 1 10 0 1 0 1
0 -158 4 30 0 0 1 10 0 1 0 1
phys
0 -156 -4 30 0 0 1 10 0 1 0 1
0 -158 4 30 0 0 1 10 0 1 0 1
0 -156 4 30 0 0 1 10 0 1 0 1
phys
0 -158 -4 98 0 0 1 10 0 1 0 1
0 -156 -4 98 0 0 1 10 0 1 0 1
0 -156 4 98 0 0 1 10 0 1 0 1
phys
0 -158 -4 98 0 0 1 10 0 1 0 1
0 -156 4 98 0 0 1 10 0 1 0 1
0 -158 4 98 0 0 1 10 0 1 0 1
phys
0 -236 -4 226 0 0 1 11 0 1 0 1
0 -234 -4 226 0 0 1 11 0 1 0 1
0 -234 4 226 0 0 1 11 0 1 0 1
phys
0 -236 -4 226 0 0 1 11 0 1 0 1
0 -234 4 226 0 0 1 11 0 1 0 1
0 -236 4 226 0 0 1 11 0 1 0 1
phys
0 -236 4 158 0 0 1 11 0 1 0 1
0 -236 4 226 0 0 1 11 0 1 0 1
0 -234 4 226 0 0 1 11 0 1 0 1
phys
0 -236 4 158 0 0 1 11 0 1 0 1
0 -234 4 226 0 0 1 11 0 1 0 1
0 -234 4 158 0 0 1 11 0 1 0 1
phys
0 -234 -4 158 0 0 1 11 0 1 0 1
0 -234 -4 226 0 0 1 11 0 1 0 1
0 -236 -4 226 0 0 1 11 0 1 0 1
phys
0 -234 -4 158 0 0 1 11 0 1 0 1
0 -236 -4 226 0 0 1 11 0 1 0 1
0 -236 -4 158 0 0 1 11 0 1 0 1
phys
0 -236 -4 158 0 0 1 11 0 1 0 1
0 -236 -4 226 0 0 1 11 0 1 0 1
0 -236 4 226 0 0 1 11 0 1 0 1
phys
0 -236 -4 158 0 0 1 11 0 1 0 1
0 -236 4 226 0 0 1 11 0 1 0 1
0 -236 4 158 0 0 1 11 0 1 0 1
phys
0 -234 4 158 0 0 1 11 0 1 0 1
0 -234 4 226 0 0 1 11 0 1 0 1
0 -234 -4 226 0 0 1 11 0 1 0 1
phys
0 -234 4 158 0 0 1 11 0 1 0 1
0 -234 -4 226 0 0 1 11 0 1 0 1
0 -234 -4 158 0 0 1 11 0 1 0 1
phys
0 -234 -4 158 0 0 1 11 0 1 0 1
0 -236 -4 158 0 0 1 11 0 1 0 1
0 -236 4 158 0 0 1 11 0 1 0 1
phys
0 -234 -4 158 0 0 1 11 0 1 0 1
0 -236 4 158 0 0 1 11 0 1 0 1
0 -234 4 158 0 0 1 11 0 1 0 1
phys
0 -156 4 30 0 0 1 12 0 1 0 1
0 -156 4 28 0 0 1 12 0 1 0 1
0 -236 4 28 0 0 1 12 0 1 0 1
phys
0 -156 4 30 0 0 1 12 0 1 0 1
0 -236 4 28 0 0 1 12 0 1 0 1
0 -236 4 30 0 0 1 12 0 1 0 1
phys
0 -156 -4 28 0 0 1 12 0 1 0 1
0 -156 -4 30 0 0 1 12 0 1 0 1
0 -236 -4 30 0 0 1 12 0 1 0 1
phys
0 -156 -4 28 0 0 1 12 0 1 0 1
0 -236 -4 30 0 0 1 12 0 1 0 1
0 -236 -4 28 0 0 1 12 0 1 0 1
phys
0 -236 -4 28 0 0 1 12 0 1 0 1
0 -236 -4 30 0 0 1 12 0 1 0 1
0 -236 4 30 0 0 1 12 0 1 0 1
phys
0 -236 -4 28 0 0 1 12 0 1 0 1
0 -236 4 30 0 0 1 12 0 1 0 1
0 -236 4 28 0 0 1 12 0 1 0 1
phys
0 -156 -4 30 0 0 1 12 0 1 0 1
0 -156 -4 28 0 0 1 12 0 1 0 1
0 -156 4 28 0 0 1 12 0 1 0 1
phys
0 -156 -4 30 0 0 1 12 0 1 0 1
0 -156 4 28 0 0 1 12 0 1 0 1
0 -156 4 30 0 0 1 12 0 1 0 1
phys
0 -156 -4 28 0 0 1 12 0 1 0 1
0 -236 -4 28 0 0 1 12 0 1 0 1
0 -236 4 28 0 0 1 12 0 1 0 1
phys
0 -156 -4 28 0 0 1 12 0 1 0 1
0 -236 4 28 0 0 1 12 0 1 0 1
0 -156 4 28 0 0 1 12 0 1 0 1
phys
0 -236 -4 30 0 0 1 12 0 1 0 1
0 -156 -4 30 0 0 1 12 0 1 0 1
0 -156 4 30 0 0 1 12 0 1 0 1
phys
0 -236 -4 30 0 0 1 12 0 1 0 1
0 -156 4 30 0 0 1 12 0 1 0 1
0 -236 4 30 0 0 1 12 0 1 0 1
end
