version 1
nodes
0 "root" -1
end
skeleton
time 0
0 0 0 0 0 0 0
end
triangles
wood_woodshelf002a
0 -156 4 228 0 1 0 -160.822716 -0.143999 1 0 1
0 -156 4 226 0 1 0 -160.822716 -0.161754 1 0 1
0 -236 4 226 0 1 0 -162.024639 -0.161754 1 0 1
wood_woodshelf002a
0 -156 4 228 0 1 0 -160.822716 -0.143999 1 0 1
0 -236 4 226 0 1 0 -162.024639 -0.161754 1 0 1
0 -236 4 228 0 1 0 -162.024639 -0.143999 1 0 1
wood_woodshelf002a
0 -156 -4 226 0 -1 0 -160.822716 -0.161754 1 0 1
0 -156 -4 228 0 -1 0 -160.822716 -0.143999 1 0 1
0 -236 -4 228 0 -1 0 -162.024639 -0.143999 1 0 1
wood_woodshelf002a
0 -156 -4 226 0 -1 0 -160.822716 -0.161754 1 0 1
0 -236 -4 228 0 -1 0 -162.024639 -0.143999 1 0 1
0 -236 -4 226 0 -1 0 -162.024639 -0.161754 1 0 1
wood_woodshelf002a
0 -156 -4 226 0 0 -1 178.028395 -94.287997 1 0 1
0 -236 -4 226 0 0 -1 178.028395 -94.998224 1 0 1
0 -236 4 226 0 0 -1 177.908203 -94.998224 1 0 1
wood_woodshelf002a
0 -156 -4 226 0 0 -1 178.028395 -94.287997 1 0 1
0 -236 4 226 0 0 -1 177.908203 -94.998224 1 0 1
0 -156 4 226 0 0 -1 177.908203 -94.287997 1 0 1
wood_woodshelf002a
0 -195 0 226 0 1 0 -161.408654 -0.161754 1 0 1
0 -195 0 158 0 1 0 -161.408654 -0.765447 1 0 1
0 -197 0 158 0 1 0 -161.438702 -0.765447 1 0 1
wood_woodshelf002a
0 -195 0 226 0 1 0 -161.408654 -0.161754 1 0 1
0 -197 0 158 0 1 0 -161.438702 -0.765447 1 0 1
0 -197 0 226 0 1 0 -161.438702 -0.161754 1 0 1
wood_woodshelf002a
0 -195 -4 158 0 -1 0 -161.408654 -0.765447 1 0 1
0 -195 -4 226 0 -1 0 -161.408654 -0.161754 1 0 1
0 -197 -4 226 0 -1 0 -161.438702 -0.161754 1 0 1
wood_woodshelf002a
0 -195 -4 158 0 -1 0 -161.408654 -0.765447 1 0 1
0 -197 -4 226 0 -1 0 -161.438702 -0.161754 1 0 1
0 -197 -4 158 0 -1 0 -161.438702 -0.765447 1 0 1
wood_woodshelf002a
0 -197 -4 158 -1 0 0 178.028395 -0.765447 1 0 1
0 -197 -4 226 -1 0 0 178.028395 -0.161754 1 0 1
0 -197 0 226 -1 0 0 177.968299 -0.161754 1 0 1
wood_woodshelf002a
0 -197 -4 158 -1 0 0 178.028395 -0.765447 1 0 1
0 -197 0 226 -1 0 0 177.968299 -0.161754 1 0 1
0 -197 0 158 -1 0 0 177.968299 -0.765447 1 0 1
wood_woodshelf002a
0 -195 -4 226 1 0 0 178.028395 -0.161754 1 0 1
0 -195 -4 158 1 0 0 178.028395 -0.765447 1 0 1
0 -195 0 158 1 0 0 177.968299 -0.765447 1 0 1
wood_woodshelf002a
0 -195 -4 226 1 0 0 178.028395 -0.161754 1 0 1
0 -195 0 158 1 0 0 177.968299 -0.765447 1 0 1
0 -195 0 226 1 0 0 177.968299 -0.161754 1 0 1
wood_woodshelf002a
0 -156 4 158 0 1 0 -160.822716 -0.765447 1 0 1
0 -156 4 156 0 1 0 -160.822716 -0.783203 1 0 1
0 -236 4 156 0 1 0 -162.024639 -0.783203 1 0 1
wood_woodshelf002a
0 -156 4 158 0 1 0 -160.822716 -0.765447 1 0 1
0 -236 4 156 0 1 0 -162.024639 -0.783203 1 0 1
0 -236 4 158 0 1 0 -162.024639 -0.765447 1 0 1
wood_woodshelf002a
0 -156 -4 156 0 -1 0 -160.822716 -0.783203 1 0 1
0 -156 -4 158 0 -1 0 -160.822716 -0.765447 1 0 1
0 -236 -4 158 0 -1 0 -162.024639 -0.765447 1 0 1
wood_woodshelf002a
0 -156 -4 156 0 -1 0 -160.822716 -0.783203 1 0 1
0 -236 -4 158 0 -1 0 -162.024639 -0.765447 1 0 1
0 -236 -4 156 0 -1 0 -162.024639 -0.783203 1 0 1
wood_woodshelf002a
0 -236 -4 158 0 0 1 178.028395 -94.998224 1 0 1
0 -156 -4 158 0 0 1 178.028395 -94.287997 1 0 1
0 -156 4 158 0 0 1 177.908203 -94.287997 1 0 1
wood_woodshelf002a
0 -236 -4 158 0 0 1 178.028395 -94.998224 1 0 1
0 -156 4 158 0 0 1 177.908203 -94.287997 1 0 1
0 -236 4 158 0 0 1 177.908203 -94.998224 1 0 1
concrete_concretefloor033o
0 -100 -4 55.998 0 -0.707107 0.707107 93.0625 -82 1 0 1
0 236 -4 55.998 0 -0.707107 0.707107 93.0625 -79.375 1 0 1
0 236 4 63.998 0 -0.707107 0.707107 93 -79.375 1 0 1
concrete_concretefloor033o
0 -100 -4 55.998 0 -0.707107 0.707107 93.0625 -82 1 0 1
0 236 4 63.998 0 -0.707107 0.707107 93 -79.375 1 0 1
0 -100 4 63.998 0 -0.707107 0.707107 93 -82 1 0 1
concrete_concretewall004b
0 236 -4 0 0 -1 0 -80.375 -2 1 0 1
0 236 -4 55.998 0 -1 0 -80.375 -1.562516 1 0 1
0 -100 -4 55.998 0 -1 0 -83 -1.562516 1 0 1
concrete_concretewall004b
0 236 -4 0 0 -1 0 -80.375 -2 1 0 1
0 -100 -4 55.998 0 -1 0 -83 -1.562516 1 0 1
0 -100 -4 0 0 -1 0 -83 -2 1 0 1
concrete_concretewall013f
0 236 4 0 1 0 0 92.845703 -4 1 0 1
0 236 4 63.998 1 0 0 92.845703 -3.000031 1 0 1
0 236 -4 55.998 1 0 0 92.908203 -3.125031 1 0 1
concrete_concretewall013f
0 236 4 0 1 0 0 92.845703 -4 1 0 1
0 236 -4 55.998 1 0 0 92.908203 -3.125031 1 0 1
0 236 -4 0 1 0 0 92.908203 -4 1 0 1
wood_woodshelf002a
0 -156 4 100 0 1 0 -160.822716 -1.280362 1 0 1
0 -156 4 98 0 1 0 -160.822716 -1.298118 1 0 1
0 -236 4 98 0 1 0 -162.024639 -1.298118 1 0 1
wood_woodshelf002a
0 -156 4 100 0 1 0 -160.822716 -1.280362 1 0 1
0 -236 4 98 0 1 0 -162.024639 -1.298118 1 0 1
0 -236 4 100 0 1 0 -162.024639 -1.280362 1 0 1
wood_woodshelf002a
0 -156 -4 98 0 -1 0 -160.822716 -1.298118 1 0 1
0 -156 -4 100 0 -1 0 -160.822716 -1.280362 1 0 1
0 -236 -4 100 0 -1 0 -162.024639 -1.280362 1 0 1
wood_woodshelf002a
0 -156 -4 98 0 -1 0 -160.822716 -1.298118 1 0 1
0 -236 -4 100 0 -1 0 -162.024639 -1.280362 1 0 1
0 -236 -4 98 0 -1 0 -162.024639 -1.298118 1 0 1
wood_woodshelf002a
0 -156 -4 98 0 0 -1 178.028395 -94.287997 1 0 1
0 -236 -4 98 0 0 -1 178.028395 -94.998224 1 0 1
0 -236 4 98 0 0 -1 177.908203 -94.998224 1 0 1
wood_woodshelf002a
0 -156 -4 98 0 0 -1 178.028395 -94.287997 1 0 1
0 -236 4 98 0 0 -1 177.908203 -94.998224 1 0 1
0 -156 4 98 0 0 -1 177.908203 -94.287997 1 0 1
wood_woodshelf002a
0 -234 -4 30 0 -1 0 -161.994591 -1.901811 1 0 1
0 -234 -4 98 0 -1 0 -161.994591 -1.298118 1 0 1
0 -236 -4 98 0 -1 0 -162.024639 -1.298118 1 0 1
wood_woodshelf002a
0 -234 -4 30 0 -1 0 -161.994591 -1.901811 1 0 1
0 -236 -4 98 0 -1 0 -162.024639 -1.298118 1 0 1
0 -236 -4 30 0 -1 0 -162.024639 -1.901811 1 0 1
wood_woodshelf002a
0 -234 -4 98 1 0 0 178.028395 -1.298118 1 0 1
0 -234 -4 30 1 0 0 178.028395 -1.901811 1 0 1
0 -234 4 30 1 0 0 177.908203 -1.901811 1 0 1
wood_woodshelf002a
0 -234 -4 98 1 0 0 178.028395 -1.298118 1 0 1
0 -234 4 30 1 0 0 177.908203 -1.901811 1 0 1
0 -234 4 98 1 0 0 177.908203 -1.298118 1 0 1
wood_woodshelf002a
0 -234 4 98 0 1 0 -161.994591 -1.298118 1 0 1
0 -234 4 30 0 1 0 -161.994591 -1.901811 1 0 1
0 -236 4 30 0 1 0 -162.024639 -1.901811 1 0 1
wood_woodshelf002a
0 -234 4 98 0 1 0 -161.994591 -1.298118 1 0 1
0 -236 4 30 0 1 0 -162.024639 -1.901811 1 0 1
0 -236 4 98 0 1 0 -162.024639 -1.298118 1 0 1
wood_woodshelf002a
0 -156 4 158 0 1 0 -160.822716 -0.765447 1 0 1
0 -158 4 158 0 1 0 -160.852764 -0.765447 1 0 1
0 -158 4 226 0 1 0 -160.852764 -0.161754 1 0 1
wood_woodshelf002a
0 -156 4 158 0 1 0 -160.822716 -0.765447 1 0 1
0 -158 4 226 0 1 0 -160.852764 -0.161754 1 0 1
0 -156 4 226 0 1 0 -160.822716 -0.161754 1 0 1
wood_woodshelf002a
0 -156 -4 226 0 -1 0 -160.822716 -0.161754 1 0 1
0 -158 -4 226 0 -1 0 -160.852764 -0.161754 1 0 1
0 -158 -4 158 0 -1 0 -160.852764 -0.765447 1 0 1
wood_woodshelf002a
0 -156 -4 226 0 -1 0 -160.822716 -0.161754 1 0 1
0 -158 -4 158 0 -1 0 -160.852764 -0.765447 1 0 1
0 -156 -4 158 0 -1 0 -160.822716 -0.765447 1 0 1
wood_woodshelf002a
0 -158 -4 226 -1 0 0 178.028395 -0.161754 1 0 1
0 -158 4 226 -1 0 0 177.908203 -0.161754 1 0 1
0 -158 4 158 -1 0 0 177.908203 -0.765447 1 0 1
wood_woodshelf002a
0 -158 -4 226 -1 0 0 178.028395 -0.161754 1 0 1
0 -158 4 158 -1 0 0 177.908203 -0.765447 1 0 1
0 -158 -4 158 -1 0 0 178.028395 -0.765447 1 0 1
wood_woodshelf002a
0 -195 0 98 0 1 0 -161.408654 -1.298118 1 0 1
0 -195 0 30 0 1 0 -161.408654 -1.901811 1 0 1
0 -197 0 30 0 1 0 -161.438702 -1.901811 1 0 1
wood_woodshelf002a
0 -195 0 98 0 1 0 -161.408654 -1.298118 1 0 1
0 -197 0 30 0 1 0 -161.438702 -1.901811 1 0 1
0 -197 0 98 0 1 0 -161.438702 -1.298118 1 0 1
wood_woodshelf002a
0 -195 -4 30 0 -1 0 -161.408654 -1.901811 1 0 1
0 -195 -4 98 0 -1 0 -161.408654 -1.298118 1 0 1
0 -197 -4 98 0 -1 0 -161.438702 -1.298118 1 0 1
wood_woodshelf002a
0 -195 -4 30 0 -1 0 -161.408654 -1.901811 1 0 1
0 -197 -4 98 0 -1 0 -161.438702 -1.298118 1 0 1
0 -197 -4 30 0 -1 0 -161.438702 -1.901811 1 0 1
wood_woodshelf002a
0 -197 -4 30 -1 0 0 178.028395 -1.901811 1 0 1
0 -197 -4 98 -1 0 0 178.028395 -1.298118 1 0 1
0 -197 0 98 -1 0 0 177.968299 -1.298118 1 0 1
wood_woodshelf002a
0 -197 -4 30 -1 0 0 178.028395 -1.901811 1 0 1
0 -197 0 98 -1 0 0 177.968299 -1.298118 1 0 1
0 -197 0 30 -1 0 0 177.968299 -1.901811 1 0 1
wood_woodshelf002a
0 -195 -4 98 1 0 0 178.028395 -1.298118 1 0 1
0 -195 -4 30 1 0 0 178.028395 -1.901811 1 0 1
0 -195 0 30 1 0 0 177.968299 -1.901811 1 0 1
wood_woodshelf002a
0 -195 -4 98 1 0 0 178.028395 -1.298118 1 0 1
0 -195 0 30 1 0 0 177.968299 -1.901811 1 0 1
0 -195 0 98 1 0 0 177.968299 -1.298118 1 0 1
wood_woodshelf001a
0 -158 -1 98 0 1 0 -288.946121 -2.998776 1 0 1
0 -158 -1 30 0 1 0 -288.946121 -3.99887 1 0 1
0 -195 -1 30 0 1 0 -289.945991 -3.99887 1 0 1
wood_woodshelf001a
0 -158 -1 98 0 1 0 -288.946121 -2.998776 1 0 1
0 -195 -1 30 0 1 0 -289.945991 -3.99887 1 0 1
0 -195 -1 98 0 1 0 -289.945991 -2.998776 1 0 1
wood_woodshelf001a
0 -158 -3 30 0 -1 0 -288.946121 -3.99887 1 0 1
0 -158 -3 98 0 -1 0 -288.946121 -2.998776 1 0 1
0 -195 -3 98 0 -1 0 -289.945991 -2.998776 1 0 1
wood_woodshelf001a
0 -158 -3 30 0 -1 0 -288.946121 -3.99887 1 0 1
0 -195 -3 98 0 -1 0 -289.945991 -2.998776 1 0 1
0 -195 -3 30 0 -1 0 -289.945991 -3.99887 1 0 1
glass_unbreakable
0 -195 -3 30 -1 0 0 -309.639323 -7.643229 1 0 1
0 -195 -3 98 -1 0 0 -309.639323 -5.872396 1 0 1
0 -195 -1 98 -1 0 0 -309.58724 -5.872396 1 0 1
glass_unbreakable
0 -195 -3 30 -1 0 0 -309.639323 -7.643229 1 0 1
0 -195 -1 98 -1 0 0 -309.58724 -5.872396 1 0 1
0 -195 -1 30 -1 0 0 -309.58724 -7.643229 1 0 1
wood_woodshelf002a
0 -156 4 98 0 1 0 -160.822716 -1.298118 1 0 1
0 -156 4 30 0 1 0 -160.822716 -1.901811 1 0 1
0 -158 4 30 0 1 0 -160.852764 -1.901811 1 0 1
wood_woodshelf002a
0 -156 4 98 0 1 0 -160.822716 -1.298118 1 0 1
0 -158 4 30 0 1 0 -160.852764 -1.901811 1 0 1
0 -158 4 98 0 1 0 -160.852764 -1.298118 1 0 1
wood_woodshelf002a
0 -156 -4 30 0 -1 0 -160.822716 -1.901811 1 0 1
0 -156 -4 98 0 -1 0 -160.822716 -1.298118 1 0 1
0 -158 -4 98 0 -1 0 -160.852764 -1.298118 1 0 1
wood_woodshelf002a
0 -156 -4 30 0 -1 0 -160.822716 -1.901811 1 0 1
0 -158 -4 98 0 -1 0 -160.852764 -1.298118 1 0 1
0 -158 -4 30 0 -1 0 -160.852764 -1.901811 1 0 1
wood_woodshelf002a
0 -158 -4 30 -1 0 0 178.028395 -1.901811 1 0 1
0 -158 -4 98 -1 0 0 178.028395 -1.298118 1 0 1
0 -158 4 98 -1 0 0 177.908203 -1.298118 1 0 1
wood_woodshelf002a
0 -158 -4 30 -1 0 0 178.028395 -1.901811 1 0 1
0 -158 4 98 -1 0 0 177.908203 -1.298118 1 0 1
0 -158 4 30 -1 0 0 177.908203 -1.901811 1 0 1
wood_woodshelf002a
0 -236 4 158 0 1 0 -162.024639 -0.765447 1 0 1
0 -236 4 226 0 1 0 -162.024639 -0.161754 1 0 1
0 -234 4 226 0 1 0 -161.994591 -0.161754 1 0 1
wood_woodshelf002a
0 -236 4 158 0 1 0 -162.024639 -0.765447 1 0 1
0 -234 4 226 0 1 0 -161.994591 -0.161754 1 0 1
0 -234 4 158 0 1 0 -161.994591 -0.765447 1 0 1
wood_woodshelf002a
0 -234 -4 158 0 -1 0 -161.994591 -0.765447 1 0 1
0 -234 -4 226 0 -1 0 -161.994591 -0.161754 1 0 1
0 -236 -4 226 0 -1 0 -162.024639 -0.161754 1 0 1
wood_woodshelf002a
0 -234 -4 158 0 -1 0 -161.994591 -0.765447 1 0 1
0 -236 -4 226 0 -1 0 -162.024639 -0.161754 1 0 1
0 -236 -4 158 0 -1 0 -162.024639 -0.765447 1 0 1
wood_woodshelf002a
0 -234 4 158 1 0 0 177.908203 -0.765447 1 0 1
0 -234 4 226 1 0 0 177.908203 -0.161754 1 0 1
0 -234 -4 226 1 0 0 178.028395 -0.161754 1 0 1
wood_woodshelf002a
0 -234 4 158 1 0 0 177.908203 -0.765447 1 0 1
0 -234 -4 226 1 0 0 178.028395 -0.161754 1 0 1
0 -234 -4 158 1 0 0 178.028395 -0.765447 1 0 1
wood_woodshelf002a
0 -156 4 30 0 1 0 -160.822716 -1.901811 1 0 1
0 -156 4 28 0 1 0 -160.822716 -1.919567 1 0 1
0 -236 4 28 0 1 0 -162.024639 -1.919567 1 0 1
wood_woodshelf002a
0 -156 4 30 0 1 0 -160.822716 -1.901811 1 0 1
0 -236 4 28 0 1 0 -162.024639 -1.919567 1 0 1
0 -236 4 30 0 1 0 -162.024639 -1.901811 1 0 1
wood_woodshelf002a
0 -156 -4 28 0 -1 0 -160.822716 -1.919567 1 0 1
0 -156 -4 30 0 -1 0 -160.822716 -1.901811 1 0 1
0 -236 -4 30 0 -1 0 -162.024639 -1.901811 1 0 1
wood_woodshelf002a
0 -156 -4 28 0 -1 0 -160.822716 -1.919567 1 0 1
0 -236 -4 30 0 -1 0 -162.024639 -1.901811 1 0 1
0 -236 -4 28 0 -1 0 -162.024639 -1.919567 1 0 1
wood_woodshelf002a
0 -236 -4 30 0 0 1 178.028395 -94.998224 1 0 1
0 -156 -4 30 0 0 1 178.028395 -94.287997 1 0 1
0 -156 4 30 0 0 1 177.908203 -94.287997 1 0 1
wood_woodshelf002a
0 -236 -4 30 0 0 1 178.028395 -94.998224 1 0 1
0 -156 4 30 0 0 1 177.908203 -94.287997 1 0 1
0 -236 4 30 0 0 1 177.908203 -94.998224 1 0 1
end
