version 1
nodes
0 "root" -1
end
skeleton
time 0
0 0 0 0 0 0 0
end
triangles
phys
0 129 -66 129 0 0 1 1 0 1 0 1
0 129 -16 129 0 0 1 1 0 1 0 1
0 129 -16 137 0 0 1 1 0 1 0 1
phys
0 129 -66 129 0 0 1 1 0 1 0 1
0 129 -16 137 0 0 1 1 0 1 0 1
0 129 -66 137 0 0 1 1 0 1 0 1
phys
0 53 -16 129 0 0 1 1 0 1 0 1
0 129 -16 129 0 0 1 1 0 1 0 1
0 129 -66 129 0 0 1 1 0 1 0 1
phys
0 53 -16 129 0 0 1 1 0 1 0 1
0 129 -66 129 0 0 1 1 0 1 0 1
0 53 -66 129 0 0 1 1 0 1 0 1
phys
0 53 -66 137 0 0 1 1 0 1 0 1
0 129 -66 137 0 0 1 1 0 1 0 1
0 129 -16 137 0 0 1 1 0 1 0 1
phys
0 53 -66 137 0 0 1 1 0 1 0 1
0 129 -16 137 0 0 1 1 0 1 0 1
0 53 -16 137 0 0 1 1 0 1 0 1
phys
0 129 -16 137 0 0 1 1 0 1 0 1
0 129 -16 129 0 0 1 1 0 1 0 1
0 53 -16 129 0 0 1 1 0 1 0 1
phys
0 129 -16 137 0 0 1 1 0 1 0 1
0 53 -16 129 0 0 1 1 0 1 0 1
0 53 -16 137 0 0 1 1 0 1 0 1
phys
0 129 -66 129 0 0 1 1 0 1 0 1
0 129 -66 137 0 0 1 1 0 1 0 1
0 53 -66 137 0 0 1 1 0 1 0 1
phys
0 129 -66 129 0 0 1 1 0 1 0 1
0 53 -66 137 0 0 1 1 0 1 0 1
0 53 -66 129 0 0 1 1 0 1 0 1
phys
0 53 -66 137 0 0 1 1 0 1 0 1
0 53 -16 137 0 0 1 1 0 1 0 1
0 53 -16 129 0 0 1 1 0 1 0 1
phys
0 53 -66 137 0 0 1 1 0 1 0 1
0 53 -16 129 0 0 1 1 0 1 0 1
0 53 -66 129 0 0 1 1 0 1 0 1
phys
0 117 -150 76.0405 0 0 1 2 0 1 0 1
0 117 -150 17 0 0 1 2 0 1 0 1
0 61 -150 17 0 0 1 2 0 1 0 1
phys
0 117 -150 76.0405 0 0 1 2 0 1 0 1
0 61 -150 17 0 0 1 2 0 1 0 1
0 61 -150 76.0405 0 0 1 2 0 1 0 1
phys
0 117 -158 17 0 0 1 2 0 1 0 1
0 117 -158 71.0001 0 0 1 2 0 1 0 1
0 61 -158 71.0001 0 0 1 2 0 1 0 1
phys
0 117 -158 17 0 0 1 2 0 1 0 1
0 61 -158 71.0001 0 0 1 2 0 1 0 1
0 61 -158 17 0 0 1 2 0 1 0 1
phys
0 61 -158 17 0 0 1 2 0 1 0 1
0 61 -158 71.0001 0 0 1 2 0 1 0 1
0 61 -150 76.0405 0 0 1 2 0 1 0 1
phys
0 61 -158 17 0 0 1 2 0 1 0 1
0 61 -150 76.0405 0 0 1 2 0 1 0 1
0 61 -150 17 0 0 1 2 0 1 0 1
phys
0 117 -158 71.0001 0 0 1 2 0 1 0 1
0 117 -158 17 0 0 1 2 0 1 0 1
0 117 -150 17 0 0 1 2 0 1 0 1
phys
0 117 -158 71.0001 0 0 1 2 0 1 0 1
0 117 -150 17 0 0 1 2 0 1 0 1
0 117 -150 76.0405 0 0 1 2 0 1 0 1
phys
0 117 -158 17 0 0 1 2 0 1 0 1
0 61 -158 17 0 0 1 2 0 1 0 1
0 61 -150 17 0 0 1 2 0 1 0 1
phys
0 117 -158 17 0 0 1 2 0 1 0 1
0 61 -150 17 0 0 1 2 0 1 0 1
0 117 -150 17 0 0 1 2 0 1 0 1
phys
0 61 -158 71.0001 0 0 1 2 0 1 0 1
0 117 -158 71.0001 0 0 1 2 0 1 0 1
0 117 -150 76.0405 0 0 1 2 0 1 0 1
phys
0 61 -158 71.0001 0 0 1 2 0 1 0 1
0 117 -150 76.0405 0 0 1 2 0 1 0 1
0 61 -150 76.0405 0 0 1 2 0 1 0 1
phys
0 117 -158 33 0 0 1 3 0 1 0 1
0 129 -158 33 0 0 1 3 0 1 0 1
0 129 -16 33 0 0 1 3 0 1 0 1
phys
0 117 -158 33 0 0 1 3 0 1 0 1
0 129 -16 33 0 0 1 3 0 1 0 1
0 117 -16 33 0 0 1 3 0 1 0 1
phys
0 117 -16 17 0 0 1 3 0 1 0 1
0 117 -16 33 0 0 1 3 0 1 0 1
0 129 -16 33 0 0 1 3 0 1 0 1
phys
0 117 -16 17 0 0 1 3 0 1 0 1
0 129 -16 33 0 0 1 3 0 1 0 1
0 129 -16 17 0 0 1 3 0 1 0 1
phys
0 129 -158 17 0 0 1 3 0 1 0 1
0 129 -158 33 0 0 1 3 0 1 0 1
0 117 -158 33 0 0 1 3 0 1 0 1
phys
0 129 -158 17 0 0 1 3 0 1 0 1
0 117 -158 33 0 0 1 3 0 1 0 1
0 117 -158 17 0 0 1 3 0 1 0 1
phys
0 117 -158 17 0 0 1 3 0 1 0 1
0 117 -158 33 0 0 1 3 0 1 0 1
0 117 -16 33 0 0 1 3 0 1 0 1
phys
0 117 -158 17 0 0 1 3 0 1 0 1
0 117 -16 33 0 0 1 3 0 1 0 1
0 117 -16 17 0 0 1 3 0 1 0 1
phys
0 129 -16 17 0 0 1 3 0 1 0 1
0 129 -16 33 0 0 1 3 0 1 0 1
0 129 -158 33 0 0 1 3 0 1 0 1
phys
0 129 -16 17 0 0 1 3 0 1 0 1
0 129 -158 33 0 0 1 3 0 1 0 1
0 129 -158 17 0 0 1 3 0 1 0 1
phys
0 129 -158 17 0 0 1 3 0 1 0 1
0 117 -158 17 0 0 1 3 0 1 0 1
0 117 -16 17 0 0 1 3 0 1 0 1
phys
0 129 -158 17 0 0 1 3 0 1 0 1
0 117 -16 17 0 0 1 3 0 1 0 1
0 129 -16 17 0 0 1 3 0 1 0 1
phys
0 -129 -125 33 0 0 1 4 0 1 0 1
0 -25 -229 33 0 0 1 4 0 1 0 1
0 -25 -217 33 0 0 1 4 0 1 0 1
phys
0 -129 -125 33 0 0 1 4 0 1 0 1
0 -25 -217 33 0 0 1 4 0 1 0 1
0 -117 -125 33 0 0 1 4 0 1 0 1
phys
0 -25 -229 10.9992 0 0 1 4 0 1 0 1
0 -129 -125 11.0156 0 0 1 4 0 1 0 1
0 -117 -125 0.013597 0 0 1 4 0 1 0 1
phys
0 -25 -229 10.9992 0 0 1 4 0 1 0 1
0 -117 -125 0.013597 0 0 1 4 0 1 0 1
0 -25 -217 -0.000911 0 0 1 4 0 1 0 1
phys
0 -25 -229 33 0 0 1 4 0 1 0 1
0 -129 -125 33 0 0 1 4 0 1 0 1
0 -129 -125 11.0156 0 0 1 4 0 1 0 1
phys
0 -25 -229 33 0 0 1 4 0 1 0 1
0 -129 -125 11.0156 0 0 1 4 0 1 0 1
0 -25 -229 10.9992 0 0 1 4 0 1 0 1
phys
0 -25 -217 -0.000911 0 0 1 4 0 1 0 1
0 -117 -125 0.013597 0 0 1 4 0 1 0 1
0 -117 -125 33 0 0 1 4 0 1 0 1
phys
0 -25 -217 -0.000911 0 0 1 4 0 1 0 1
0 -117 -125 33 0 0 1 4 0 1 0 1
0 -25 -217 33 0 0 1 4 0 1 0 1
phys
0 -117 -125 0.013597 0 0 1 4 0 1 0 1
0 -129 -125 11.0156 0 0 1 4 0 1 0 1
0 -129 -125 33 0 0 1 4 0 1 0 1
phys
0 -117 -125 0.013597 0 0 1 4 0 1 0 1
0 -129 -125 33 0 0 1 4 0 1 0 1
0 -117 -125 33 0 0 1 4 0 1 0 1
phys
0 -25 -217 33 0 0 1 4 0 1 0 1
0 -25 -229 33 0 0 1 4 0 1 0 1
0 -25 -229 10.9992 0 0 1 4 0 1 0 1
phys
0 -25 -217 33 0 0 1 4 0 1 0 1
0 -25 -229 10.9992 0 0 1 4 0 1 0 1
0 -25 -217 -0.000911 0 0 1 4 0 1 0 1
phys
0 129 -158 71 0 0 1 5 0 1 0 1
0 129 -158 79 0 0 1 5 0 1 0 1
0 53 -158 79 0 0 1 5 0 1 0 1
phys
0 129 -158 71 0 0 1 5 0 1 0 1
0 53 -158 79 0 0 1 5 0 1 0 1
0 53 -158 71 0 0 1 5 0 1 0 1
phys
0 53 -158 71 0 0 1 5 0 1 0 1
0 53 -158 79 0 0 1 5 0 1 0 1
0 53 -66 137 0 0 1 5 0 1 0 1
phys
0 53 -158 71 0 0 1 5 0 1 0 1
0 53 -66 137 0 0 1 5 0 1 0 1
0 53 -66 129 0 0 1 5 0 1 0 1
phys
0 129 -158 79 0 0 1 5 0 1 0 1
0 129 -158 71 0 0 1 5 0 1 0 1
0 129 -66 129 0 0 1 5 0 1 0 1
phys
0 129 -158 79 0 0 1 5 0 1 0 1
0 129 -66 129 0 0 1 5 0 1 0 1
0 129 -66 137 0 0 1 5 0 1 0 1
phys
0 129 -158 71 0 0 1 5 0 1 0 1
0 53 -158 71 0 0 1 5 0 1 0 1
0 53 -66 129 0 0 1 5 0 1 0 1
phys
0 129 -158 71 0 0 1 5 0 1 0 1
0 53 -66 129 0 0 1 5 0 1 0 1
0 129 -66 129 0 0 1 5 0 1 0 1
phys
0 53 -158 79 0 0 1 5 0 1 0 1
0 129 -158 79 0 0 1 5 0 1 0 1
0 129 -66 137 0 0 1 5 0 1 0 1
phys
0 53 -158 79 0 0 1 5 0 1 0 1
0 129 -66 137 0 0 1 5 0 1 0 1
0 53 -66 137 0 0 1 5 0 1 0 1
phys
0 129 -66 137 0 0 1 5 0 1 0 1
0 129 -66 129 0 0 1 5 0 1 0 1
0 53 -66 129 0 0 1 5 0 1 0 1
phys
0 129 -66 137 0 0 1 5 0 1 0 1
0 53 -66 129 0 0 1 5 0 1 0 1
0 53 -66 137 0 0 1 5 0 1 0 1
phys
0 53 -158 71 0 0 1 6 0 1 0 1
0 61 -158 71 0 0 1 6 0 1 0 1
0 61 -66 129 0 0 1 6 0 1 0 1
phys
0 53 -158 71 0 0 1 6 0 1 0 1
0 61 -66 129 0 0 1 6 0 1 0 1
0 53 -66 129 0 0 1 6 0 1 0 1
phys
0 53 -66 17 0 0 1 6 0 1 0 1
0 53 -66 129 0 0 1 6 0 1 0 1
0 61 -66 129 0 0 1 6 0 1 0 1
phys
0 53 -66 17 0 0 1 6 0 1 0 1
0 61 -66 129 0 0 1 6 0 1 0 1
0 61 -66 17 0 0 1 6 0 1 0 1
phys
0 61 -158 17 0 0 1 6 0 1 0 1
0 61 -158 71 0 0 1 6 0 1 0 1
0 53 -158 71 0 0 1 6 0 1 0 1
phys
0 61 -158 17 0 0 1 6 0 1 0 1
0 53 -158 71 0 0 1 6 0 1 0 1
0 53 -158 17 0 0 1 6 0 1 0 1
phys
0 53 -158 17 0 0 1 6 0 1 0 1
0 53 -158 71 0 0 1 6 0 1 0 1
0 53 -66 129 0 0 1 6 0 1 0 1
phys
0 53 -158 17 0 0 1 6 0 1 0 1
0 53 -66 129 0 0 1 6 0 1 0 1
0 53 -66 17 0 0 1 6 0 1 0 1
phys
0 61 -66 17 0 0 1 6 0 1 0 1
0 61 -66 129 0 0 1 6 0 1 0 1
0 61 -158 71 0 0 1 6 0 1 0 1
phys
0 61 -66 17 0 0 1 6 0 1 0 1
0 61 -158 71 0 0 1 6 0 1 0 1
0 61 -158 17 0 0 1 6 0 1 0 1
phys
0 61 -158 17 0 0 1 6 0 1 0 1
0 53 -158 17 0 0 1 6 0 1 0 1
0 53 -66 17 0 0 1 6 0 1 0 1
phys
0 61 -158 17 0 0 1 6 0 1 0 1
0 53 -66 17 0 0 1 6 0 1 0 1
0 61 -66 17 0 0 1 6 0 1 0 1
phys
0 -117 -125 0.000534 0 0 1 7 0 1 0 1
0 -129 -125 11.0005 0 0 1 7 0 1 0 1
0 -129 230 11.0005 0 0 1 7 0 1 0 1
phys
0 -117 -125 0.000534 0 0 1 7 0 1 0 1
0 -129 230 11.0005 0 0 1 7 0 1 0 1
0 -117 230 0.000534 0 0 1 7 0 1 0 1
phys
0 -117 230 33 0 0 1 7 0 1 0 1
0 -117 230 0.000534 0 0 1 7 0 1 0 1
0 -129 230 11.0005 0 0 1 7 0 1 0 1
phys
0 -117 230 33 0 0 1 7 0 1 0 1
0 -129 230 11.0005 0 0 1 7 0 1 0 1
0 -129 230 33 0 0 1 7 0 1 0 1
phys
0 -129 -125 33 0 0 1 7 0 1 0 1
0 -129 -125 11.0005 0 0 1 7 0 1 0 1
0 -117 -125 0.000534 0 0 1 7 0 1 0 1
phys
0 -129 -125 33 0 0 1 7 0 1 0 1
0 -117 -125 0.000534 0 0 1 7 0 1 0 1
0 -117 -125 33 0 0 1 7 0 1 0 1
phys
0 -129 230 33 0 0 1 7 0 1 0 1
0 -129 230 11.0005 0 0 1 7 0 1 0 1
0 -129 -125 11.0005 0 0 1 7 0 1 0 1
phys
0 -129 230 33 0 0 1 7 0 1 0 1
0 -129 -125 11.0005 0 0 1 7 0 1 0 1
0 -129 -125 33 0 0 1 7 0 1 0 1
phys
0 -117 -125 33 0 0 1 7 0 1 0 1
0 -117 -125 0.000534 0 0 1 7 0 1 0 1
0 -117 230 0.000534 0 0 1 7 0 1 0 1
phys
0 -117 -125 33 0 0 1 7 0 1 0 1
0 -117 230 0.000534 0 0 1 7 0 1 0 1
0 -117 230 33 0 0 1 7 0 1 0 1
phys
0 -117 230 33 0 0 1 7 0 1 0 1
0 -129 230 33 0 0 1 7 0 1 0 1
0 -129 -125 33 0 0 1 7 0 1 0 1
phys
0 -117 230 33 0 0 1 7 0 1 0 1
0 -129 -125 33 0 0 1 7 0 1 0 1
0 -117 -125 33 0 0 1 7 0 1 0 1
phys
0 65 -16 125.006 0 0 1 8 0 1 0 1
0 65 -16 17 0 0 1 8 0 1 0 1
0 61 -16 17 0 0 1 8 0 1 0 1
phys
0 65 -16 125.006 0 0 1 8 0 1 0 1
0 61 -16 17 0 0 1 8 0 1 0 1
0 61 -16 129.006 0 0 1 8 0 1 0 1
phys
0 65 -25 17 0 0 1 8 0 1 0 1
0 65 -25 125.006 0 0 1 8 0 1 0 1
0 61 -25 129.006 0 0 1 8 0 1 0 1
phys
0 65 -25 17 0 0 1 8 0 1 0 1
0 61 -25 129.006 0 0 1 8 0 1 0 1
0 61 -25 17 0 0 1 8 0 1 0 1
phys
0 61 -25 17 0 0 1 8 0 1 0 1
0 61 -25 129.006 0 0 1 8 0 1 0 1
0 61 -16 129.006 0 0 1 8 0 1 0 1
phys
0 61 -25 17 0 0 1 8 0 1 0 1
0 61 -16 129.006 0 0 1 8 0 1 0 1
0 61 -16 17 0 0 1 8 0 1 0 1
phys
0 65 -25 125.006 0 0 1 8 0 1 0 1
0 65 -25 17 0 0 1 8 0 1 0 1
0 65 -16 17 0 0 1 8 0 1 0 1
phys
0 65 -25 125.006 0 0 1 8 0 1 0 1
0 65 -16 17 0 0 1 8 0 1 0 1
0 65 -16 125.006 0 0 1 8 0 1 0 1
phys
0 65 -25 17 0 0 1 8 0 1 0 1
0 61 -25 17 0 0 1 8 0 1 0 1
0 61 -16 17 0 0 1 8 0 1 0 1
phys
0 65 -25 17 0 0 1 8 0 1 0 1
0 61 -16 17 0 0 1 8 0 1 0 1
0 65 -16 17 0 0 1 8 0 1 0 1
phys
0 61 -25 129.006 0 0 1 8 0 1 0 1
0 65 -25 125.006 0 0 1 8 0 1 0 1
0 65 -16 125.006 0 0 1 8 0 1 0 1
phys
0 61 -25 129.006 0 0 1 8 0 1 0 1
0 65 -16 125.006 0 0 1 8 0 1 0 1
0 61 -16 129.006 0 0 1 8 0 1 0 1
phys
0 61 -16 129 0 0 1 9 0 1 0 1
0 61 -16 17 0 0 1 9 0 1 0 1
0 53 -16 17 0 0 1 9 0 1 0 1
phys
0 61 -16 129 0 0 1 9 0 1 0 1
0 53 -16 17 0 0 1 9 0 1 0 1
0 53 -16 129 0 0 1 9 0 1 0 1
phys
0 61 -66 17 0 0 1 9 0 1 0 1
0 61 -66 129 0 0 1 9 0 1 0 1
0 53 -66 129 0 0 1 9 0 1 0 1
phys
0 61 -66 17 0 0 1 9 0 1 0 1
0 53 -66 129 0 0 1 9 0 1 0 1
0 53 -66 17 0 0 1 9 0 1 0 1
phys
0 53 -66 17 0 0 1 9 0 1 0 1
0 53 -66 129 0 0 1 9 0 1 0 1
0 53 -16 129 0 0 1 9 0 1 0 1
phys
0 53 -66 17 0 0 1 9 0 1 0 1
0 53 -16 129 0 0 1 9 0 1 0 1
0 53 -16 17 0 0 1 9 0 1 0 1
phys
0 61 -66 129 0 0 1 9 0 1 0 1
0 61 -66 17 0 0 1 9 0 1 0 1
0 61 -16 17 0 0 1 9 0 1 0 1
phys
0 61 -66 129 0 0 1 9 0 1 0 1
0 61 -16 17 0 0 1 9 0 1 0 1
0 61 -16 129 0 0 1 9 0 1 0 1
phys
0 61 -66 17 0 0 1 9 0 1 0 1
0 53 -66 17 0 0 1 9 0 1 0 1
0 53 -16 17 0 0 1 9 0 1 0 1
phys
0 61 -66 17 0 0 1 9 0 1 0 1
0 53 -16 17 0 0 1 9 0 1 0 1
0 61 -16 17 0 0 1 9 0 1 0 1
phys
0 53 -66 129 0 0 1 9 0 1 0 1
0 61 -66 129 0 0 1 9 0 1 0 1
0 61 -16 129 0 0 1 9 0 1 0 1
phys
0 53 -66 129 0 0 1 9 0 1 0 1
0 61 -16 129 0 0 1 9 0 1 0 1
0 53 -16 129 0 0 1 9 0 1 0 1
phys
0 129 -66 129 0 0 1 10 0 1 0 1
0 129 -66 33 0 0 1 10 0 1 0 1
0 117 -66 33 0 0 1 10 0 1 0 1
phys
0 129 -66 129 0 0 1 10 0 1 0 1
0 117 -66 33 0 0 1 10 0 1 0 1
0 117 -66 129 0 0 1 10 0 1 0 1
phys
0 129 -158 33 0 0 1 10 0 1 0 1
0 129 -158 71 0 0 1 10 0 1 0 1
0 117 -158 71 0 0 1 10 0 1 0 1
phys
0 129 -158 33 0 0 1 10 0 1 0 1
0 117 -158 71 0 0 1 10 0 1 0 1
0 117 -158 33 0 0 1 10 0 1 0 1
phys
0 117 -158 33 0 0 1 10 0 1 0 1
0 117 -158 71 0 0 1 10 0 1 0 1
0 117 -66 129 0 0 1 10 0 1 0 1
phys
0 117 -158 33 0 0 1 10 0 1 0 1
0 117 -66 129 0 0 1 10 0 1 0 1
0 117 -66 33 0 0 1 10 0 1 0 1
phys
0 129 -158 71 0 0 1 10 0 1 0 1
0 129 -158 33 0 0 1 10 0 1 0 1
0 129 -66 33 0 0 1 10 0 1 0 1
phys
0 129 -158 71 0 0 1 10 0 1 0 1
0 129 -66 33 0 0 1 10 0 1 0 1
0 129 -66 129 0 0 1 10 0 1 0 1
phys
0 129 -158 33 0 0 1 10 0 1 0 1
0 117 -158 33 0 0 1 10 0 1 0 1
0 117 -66 33 0 0 1 10 0 1 0 1
phys
0 129 -158 33 0 0 1 10 0 1 0 1
0 117 -66 33 0 0 1 10 0 1 0 1
0 129 -66 33 0 0 1 10 0 1 0 1
phys
0 117 -158 71 0 0 1 10 0 1 0 1
0 129 -158 71 0 0 1 10 0 1 0 1
0 129 -66 129 0 0 1 10 0 1 0 1
phys
0 117 -158 71 0 0 1 10 0 1 0 1
0 129 -66 129 0 0 1 10 0 1 0 1
0 117 -66 129 0 0 1 10 0 1 0 1
phys
0 129 -217 33 0 0 1 11 0 1 0 1
0 129 -229 33 0 0 1 11 0 1 0 1
0 129 -229 11.012797 0 0 1 11 0 1 0 1
phys
0 129 -217 33 0 0 1 11 0 1 0 1
0 129 -229 11.012797 0 0 1 11 0 1 0 1
0 129 -217 0.013018 0 0 1 11 0 1 0 1
phys
0 -25 -229 33 0 0 1 11 0 1 0 1
0 129 -229 33 0 0 1 11 0 1 0 1
0 129 -217 33 0 0 1 11 0 1 0 1
phys
0 -25 -229 33 0 0 1 11 0 1 0 1
0 129 -217 33 0 0 1 11 0 1 0 1
0 -25 -217 33 0 0 1 11 0 1 0 1
phys
0 -25 -217 0.013021 0 0 1 11 0 1 0 1
0 129 -217 0.013018 0 0 1 11 0 1 0 1
0 129 -229 11.012797 0 0 1 11 0 1 0 1
phys
0 -25 -217 0.013021 0 0 1 11 0 1 0 1
0 129 -229 11.012797 0 0 1 11 0 1 0 1
0 -25 -229 11.0128 0 0 1 11 0 1 0 1
phys
0 129 -217 33 0 0 1 11 0 1 0 1
0 129 -217 0.013018 0 0 1 11 0 1 0 1
0 -25 -217 0.013021 0 0 1 11 0 1 0 1
phys
0 129 -217 33 0 0 1 11 0 1 0 1
0 -25 -217 0.013021 0 0 1 11 0 1 0 1
0 -25 -217 33 0 0 1 11 0 1 0 1
phys
0 129 -229 11.012797 0 0 1 11 0 1 0 1
0 129 -229 33 0 0 1 11 0 1 0 1
0 -25 -229 33 0 0 1 11 0 1 0 1
phys
0 129 -229 11.012797 0 0 1 11 0 1 0 1
0 -25 -229 33 0 0 1 11 0 1 0 1
0 -25 -229 11.0128 0 0 1 11 0 1 0 1
phys
0 -25 -229 33 0 0 1 11 0 1 0 1
0 -25 -217 33 0 0 1 11 0 1 0 1
0 -25 -217 0.013021 0 0 1 11 0 1 0 1
phys
0 -25 -229 33 0 0 1 11 0 1 0 1
0 -25 -217 0.013021 0 0 1 11 0 1 0 1
0 -25 -229 11.0128 0 0 1 11 0 1 0 1
phys
0 65 -25 125 0 0 1 12 0 1 0 1
0 61 -25 129 0 0 1 12 0 1 0 1
0 61 -16 129 0 0 1 12 0 1 0 1
phys
0 65 -25 125 0 0 1 12 0 1 0 1
0 61 -16 129 0 0 1 12 0 1 0 1
0 65 -16 125 0 0 1 12 0 1 0 1
phys
0 113 -16 125 0 0 1 12 0 1 0 1
0 65 -16 125 0 0 1 12 0 1 0 1
0 61 -16 129 0 0 1 12 0 1 0 1
phys
0 113 -16 125 0 0 1 12 0 1 0 1
0 61 -16 129 0 0 1 12 0 1 0 1
0 117 -16 129 0 0 1 12 0 1 0 1
phys
0 117 -25 129 0 0 1 12 0 1 0 1
0 61 -25 129 0 0 1 12 0 1 0 1
0 65 -25 125 0 0 1 12 0 1 0 1
phys
0 117 -25 129 0 0 1 12 0 1 0 1
0 65 -25 125 0 0 1 12 0 1 0 1
0 113 -25 125 0 0 1 12 0 1 0 1
phys
0 113 -25 125 0 0 1 12 0 1 0 1
0 65 -25 125 0 0 1 12 0 1 0 1
0 65 -16 125 0 0 1 12 0 1 0 1
phys
0 113 -25 125 0 0 1 12 0 1 0 1
0 65 -16 125 0 0 1 12 0 1 0 1
0 113 -16 125 0 0 1 12 0 1 0 1
phys
0 117 -16 129 0 0 1 12 0 1 0 1
0 61 -16 129 0 0 1 12 0 1 0 1
0 61 -25 129 0 0 1 12 0 1 0 1
phys
0 117 -16 129 0 0 1 12 0 1 0 1
0 61 -25 129 0 0 1 12 0 1 0 1
0 117 -25 129 0 0 1 12 0 1 0 1
phys
0 117 -25 129 0 0 1 12 0 1 0 1
0 113 -25 125 0 0 1 12 0 1 0 1
0 113 -16 125 0 0 1 12 0 1 0 1
phys
0 117 -25 129 0 0 1 12 0 1 0 1
0 113 -16 125 0 0 1 12 0 1 0 1
0 117 -16 129 0 0 1 12 0 1 0 1
phys
0 129 -16 129 0 0 1 13 0 1 0 1
0 129 -16 33 0 0 1 13 0 1 0 1
0 117 -16 33 0 0 1 13 0 1 0 1
phys
0 129 -16 129 0 0 1 13 0 1 0 1
0 117 -16 33 0 0 1 13 0 1 0 1
0 117 -16 129 0 0 1 13 0 1 0 1
phys
0 129 -66 33 0 0 1 13 0 1 0 1
0 129 -66 129 0 0 1 13 0 1 0 1
0 117 -66 129 0 0 1 13 0 1 0 1
phys
0 129 -66 33 0 0 1 13 0 1 0 1
0 117 -66 129 0 0 1 13 0 1 0 1
0 117 -66 33 0 0 1 13 0 1 0 1
phys
0 117 -66 33 0 0 1 13 0 1 0 1
0 117 -66 129 0 0 1 13 0 1 0 1
0 117 -16 129 0 0 1 13 0 1 0 1
phys
0 117 -66 33 0 0 1 13 0 1 0 1
0 117 -16 129 0 0 1 13 0 1 0 1
0 117 -16 33 0 0 1 13 0 1 0 1
phys
0 129 -66 129 0 0 1 13 0 1 0 1
0 129 -66 33 0 0 1 13 0 1 0 1
0 129 -16 33 0 0 1 13 0 1 0 1
phys
0 129 -66 129 0 0 1 13 0 1 0 1
0 129 -16 33 0 0 1 13 0 1 0 1
0 129 -16 129 0 0 1 13 0 1 0 1
phys
0 129 -66 33 0 0 1 13 0 1 0 1
0 117 -66 33 0 0 1 13 0 1 0 1
0 117 -16 33 0 0 1 13 0 1 0 1
phys
0 129 -66 33 0 0 1 13 0 1 0 1
0 117 -16 33 0 0 1 13 0 1 0 1
0 129 -16 33 0 0 1 13 0 1 0 1
phys
0 117 -66 129 0 0 1 13 0 1 0 1
0 129 -66 129 0 0 1 13 0 1 0 1
0 129 -16 129 0 0 1 13 0 1 0 1
phys
0 117 -66 129 0 0 1 13 0 1 0 1
0 129 -16 129 0 0 1 13 0 1 0 1
0 117 -16 129 0 0 1 13 0 1 0 1
phys
0 117 -16 128.995 0 0 1 14 0 1 0 1
0 117 -16 17 0 0 1 14 0 1 0 1
0 113 -16 17 0 0 1 14 0 1 0 1
phys
0 117 -16 128.995 0 0 1 14 0 1 0 1
0 113 -16 17 0 0 1 14 0 1 0 1
0 113 -16 124.995 0 0 1 14 0 1 0 1
phys
0 117 -25 17 0 0 1 14 0 1 0 1
0 117 -25 128.995 0 0 1 14 0 1 0 1
0 113 -25 124.995 0 0 1 14 0 1 0 1
phys
0 117 -25 17 0 0 1 14 0 1 0 1
0 113 -25 124.995 0 0 1 14 0 1 0 1
0 113 -25 17 0 0 1 14 0 1 0 1
phys
0 113 -25 17 0 0 1 14 0 1 0 1
0 113 -25 124.995 0 0 1 14 0 1 0 1
0 113 -16 124.995 0 0 1 14 0 1 0 1
phys
0 113 -25 17 0 0 1 14 0 1 0 1
0 113 -16 124.995 0 0 1 14 0 1 0 1
0 113 -16 17 0 0 1 14 0 1 0 1
phys
0 117 -25 128.995 0 0 1 14 0 1 0 1
0 117 -25 17 0 0 1 14 0 1 0 1
0 117 -16 17 0 0 1 14 0 1 0 1
phys
0 117 -25 128.995 0 0 1 14 0 1 0 1
0 117 -16 17 0 0 1 14 0 1 0 1
0 117 -16 128.995 0 0 1 14 0 1 0 1
phys
0 117 -25 17 0 0 1 14 0 1 0 1
0 113 -25 17 0 0 1 14 0 1 0 1
0 113 -16 17 0 0 1 14 0 1 0 1
phys
0 117 -25 17 0 0 1 14 0 1 0 1
0 113 -16 17 0 0 1 14 0 1 0 1
0 117 -16 17 0 0 1 14 0 1 0 1
phys
0 113 -25 124.995 0 0 1 14 0 1 0 1
0 117 -25 128.995 0 0 1 14 0 1 0 1
0 117 -16 128.995 0 0 1 14 0 1 0 1
phys
0 113 -25 124.995 0 0 1 14 0 1 0 1
0 117 -16 128.995 0 0 1 14 0 1 0 1
0 113 -16 124.995 0 0 1 14 0 1 0 1
phys
0 129 -158 33 0 0 1 15 0 1 0 1
0 129 -158 17 0 0 1 15 0 1 0 1
0 117 -158 17 0 0 1 15 0 1 0 1
phys
0 129 -158 33 0 0 1 15 0 1 0 1
0 117 -158 17 0 0 1 15 0 1 0 1
0 117 -158 33 0 0 1 15 0 1 0 1
phys
0 129 -217 17 0 0 1 15 0 1 0 1
0 129 -217 33 0 0 1 15 0 1 0 1
0 117 -217 33 0 0 1 15 0 1 0 1
phys
0 129 -217 17 0 0 1 15 0 1 0 1
0 117 -217 33 0 0 1 15 0 1 0 1
0 117 -217 17 0 0 1 15 0 1 0 1
phys
0 117 -217 17 0 0 1 15 0 1 0 1
0 117 -217 33 0 0 1 15 0 1 0 1
0 117 -158 33 0 0 1 15 0 1 0 1
phys
0 117 -217 17 0 0 1 15 0 1 0 1
0 117 -158 33 0 0 1 15 0 1 0 1
0 117 -158 17 0 0 1 15 0 1 0 1
phys
0 129 -217 33 0 0 1 15 0 1 0 1
0 129 -217 17 0 0 1 15 0 1 0 1
0 129 -158 17 0 0 1 15 0 1 0 1
phys
0 129 -217 33 0 0 1 15 0 1 0 1
0 129 -158 17 0 0 1 15 0 1 0 1
0 129 -158 33 0 0 1 15 0 1 0 1
phys
0 129 -217 17 0 0 1 15 0 1 0 1
0 117 -217 17 0 0 1 15 0 1 0 1
0 117 -158 17 0 0 1 15 0 1 0 1
phys
0 129 -217 17 0 0 1 15 0 1 0 1
0 117 -158 17 0 0 1 15 0 1 0 1
0 129 -158 17 0 0 1 15 0 1 0 1
phys
0 117 -217 33 0 0 1 15 0 1 0 1
0 129 -217 33 0 0 1 15 0 1 0 1
0 129 -158 33 0 0 1 15 0 1 0 1
phys
0 117 -217 33 0 0 1 15 0 1 0 1
0 129 -158 33 0 0 1 15 0 1 0 1
0 117 -158 33 0 0 1 15 0 1 0 1
end
