version 1
nodes
0 "root" -1
end
skeleton
time 0
0 0 0 0 0 0 0
end
triangles
phys
0 -95.62 121.71 128.106 0 0 1 1 0 1 0 1
0 -95.62 121.71 0.108 0 0 1 1 0 1 0 1
0 -239.63 121.71 0.108 0 0 1 1 0 1 0 1
phys
0 -95.62 121.71 128.106 0 0 1 1 0 1 0 1
0 -239.63 121.71 0.108 0 0 1 1 0 1 0 1
0 -239.63 121.71 128.106 0 0 1 1 0 1 0 1
phys
0 -95.62 113.71 0.108 0 0 1 1 0 1 0 1
0 -95.62 113.71 128.106 0 0 1 1 0 1 0 1
0 -239.63 113.71 128.106 0 0 1 1 0 1 0 1
phys
0 -95.62 113.71 0.108 0 0 1 1 0 1 0 1
0 -239.63 113.71 128.106 0 0 1 1 0 1 0 1
0 -239.63 113.71 0.108 0 0 1 1 0 1 0 1
phys
0 -239.63 113.71 0.108 0 0 1 1 0 1 0 1
0 -239.63 113.71 128.106 0 0 1 1 0 1 0 1
0 -239.63 121.71 128.106 0 0 1 1 0 1 0 1
phys
0 -239.63 113.71 0.108 0 0 1 1 0 1 0 1
0 -239.63 121.71 128.106 0 0 1 1 0 1 0 1
0 -239.63 121.71 0.108 0 0 1 1 0 1 0 1
phys
0 -95.62 113.71 128.106 0 0 1 1 0 1 0 1
0 -95.62 113.71 0.108 0 0 1 1 0 1 0 1
0 -95.62 121.71 0.108 0 0 1 1 0 1 0 1
phys
0 -95.62 113.71 128.106 0 0 1 1 0 1 0 1
0 -95.62 121.71 0.108 0 0 1 1 0 1 0 1
0 -95.62 121.71 128.106 0 0 1 1 0 1 0 1
phys
0 -95.62 113.71 0.108 0 0 1 1 0 1 0 1
0 -239.63 113.71 0.108 0 0 1 1 0 1 0 1
0 -239.63 121.71 0.108 0 0 1 1 0 1 0 1
phys
0 -95.62 113.71 0.108 0 0 1 1 0 1 0 1
0 -239.63 121.71 0.108 0 0 1 1 0 1 0 1
0 -95.62 121.71 0.108 0 0 1 1 0 1 0 1
phys
0 -239.63 113.71 128.106 0 0 1 1 0 1 0 1
0 -95.62 113.71 128.106 0 0 1 1 0 1 0 1
0 -95.62 121.71 128.106 0 0 1 1 0 1 0 1
phys
0 -239.63 113.71 128.106 0 0 1 1 0 1 0 1
0 -95.62 121.71 128.106 0 0 1 1 0 1 0 1
0 -239.63 121.71 128.106 0 0 1 1 0 1 0 1
phys
0 -103.63 113.71 120.108 0 0 1 2 0 1 0 1
0 -103.63 113.71 0.108 0 0 1 2 0 1 0 1
0 -119.63 113.71 0.108 0 0 1 2 0 1 0 1
phys
0 -103.63 113.71 120.108 0 0 1 2 0 1 0 1
0 -119.63 113.71 0.108 0 0 1 2 0 1 0 1
0 -119.63 113.71 120.108 0 0 1 2 0 1 0 1
phys
0 -103.63 57.71 0.108 0 0 1 2 0 1 0 1
0 -103.63 57.71 120.108 0 0 1 2 0 1 0 1
0 -119.63 57.71 120.108 0 0 1 2 0 1 0 1
phys
0 -103.63 57.71 0.108 0 0 1 2 0 1 0 1
0 -119.63 57.71 120.108 0 0 1 2 0 1 0 1
0 -119.63 57.71 0.108 0 0 1 2 0 1 0 1
phys
0 -119.63 57.71 0.108 0 0 1 2 0 1 0 1
0 -119.63 57.71 120.108 0 0 1 2 0 1 0 1
0 -119.63 113.71 120.108 0 0 1 2 0 1 0 1
phys
0 -119.63 57.71 0.108 0 0 1 2 0 1 0 1
0 -119.63 113.71 120.108 0 0 1 2 0 1 0 1
0 -119.63 113.71 0.108 0 0 1 2 0 1 0 1
phys
0 -103.63 57.71 120.108 0 0 1 2 0 1 0 1
0 -103.63 57.71 0.108 0 0 1 2 0 1 0 1
0 -103.63 113.71 0.108 0 0 1 2 0 1 0 1
phys
0 -103.63 57.71 120.108 0 0 1 2 0 1 0 1
0 -103.63 113.71 0.108 0 0 1 2 0 1 0 1
0 -103.63 113.71 120.108 0 0 1 2 0 1 0 1
phys
0 -103.63 57.71 0.108 0 0 1 2 0 1 0 1
0 -119.63 57.71 0.108 0 0 1 2 0 1 0 1
0 -119.63 113.71 0.108 0 0 1 2 0 1 0 1
phys
0 -103.63 57.71 0.108 0 0 1 2 0 1 0 1
0 -119.63 113.71 0.108 0 0 1 2 0 1 0 1
0 -103.63 113.71 0.108 0 0 1 2 0 1 0 1
phys
0 -119.63 57.71 120.108 0 0 1 2 0 1 0 1
0 -103.63 57.71 120.108 0 0 1 2 0 1 0 1
0 -103.63 113.71 120.108 0 0 1 2 0 1 0 1
phys
0 -119.63 57.71 120.108 0 0 1 2 0 1 0 1
0 -103.63 113.71 120.108 0 0 1 2 0 1 0 1
0 -119.63 113.71 120.108 0 0 1 2 0 1 0 1
phys
0 -95.62 25.71 128.106 0 0 1 3 0 1 0 1
0 -95.62 113.71 128.106 0 0 1 3 0 1 0 1
0 -95.62 113.71 0.108 0 0 1 3 0 1 0 1
phys
0 -95.62 25.71 128.106 0 0 1 3 0 1 0 1
0 -95.62 113.71 0.108 0 0 1 3 0 1 0 1
0 -95.62 25.71 0.108 0 0 1 3 0 1 0 1
phys
0 0.37 25.71 0.108 0 0 1 3 0 1 0 1
0 0.37 113.71 0.108 0 0 1 3 0 1 0 1
0 0.37 113.71 128.106 0 0 1 3 0 1 0 1
phys
0 0.37 25.71 0.108 0 0 1 3 0 1 0 1
0 0.37 113.71 128.106 0 0 1 3 0 1 0 1
0 0.37 25.71 128.106 0 0 1 3 0 1 0 1
phys
0 -95.62 25.71 0.108 0 0 1 3 0 1 0 1
0 -95.62 113.71 0.108 0 0 1 3 0 1 0 1
0 0.37 113.71 0.108 0 0 1 3 0 1 0 1
phys
0 -95.62 25.71 0.108 0 0 1 3 0 1 0 1
0 0.37 113.71 0.108 0 0 1 3 0 1 0 1
0 0.37 25.71 0.108 0 0 1 3 0 1 0 1
phys
0 0.37 25.71 128.106 0 0 1 3 0 1 0 1
0 0.37 113.71 128.106 0 0 1 3 0 1 0 1
0 -95.62 113.71 128.106 0 0 1 3 0 1 0 1
phys
0 0.37 25.71 128.106 0 0 1 3 0 1 0 1
0 -95.62 113.71 128.106 0 0 1 3 0 1 0 1
0 -95.62 25.71 128.106 0 0 1 3 0 1 0 1
phys
0 0.37 113.71 128.106 0 0 1 3 0 1 0 1
0 0.37 113.71 0.108 0 0 1 3 0 1 0 1
0 -95.62 113.71 0.108 0 0 1 3 0 1 0 1
phys
0 0.37 113.71 128.106 0 0 1 3 0 1 0 1
0 -95.62 113.71 0.108 0 0 1 3 0 1 0 1
0 -95.62 113.71 128.106 0 0 1 3 0 1 0 1
phys
0 0.37 25.71 0.108 0 0 1 3 0 1 0 1
0 0.37 25.71 128.106 0 0 1 3 0 1 0 1
0 -95.62 25.71 128.106 0 0 1 3 0 1 0 1
phys
0 0.37 25.71 0.108 0 0 1 3 0 1 0 1
0 -95.62 25.71 128.106 0 0 1 3 0 1 0 1
0 -95.62 25.71 0.108 0 0 1 3 0 1 0 1
phys
0 -103.63 -122.29 120.108 0 0 1 4 0 1 0 1
0 -103.63 113.71 120.108 0 0 1 4 0 1 0 1
0 -103.63 113.71 0.108 0 0 1 4 0 1 0 1
phys
0 -103.63 -122.29 120.108 0 0 1 4 0 1 0 1
0 -103.63 113.71 0.108 0 0 1 4 0 1 0 1
0 -103.63 -122.29 0.108 0 0 1 4 0 1 0 1
phys
0 -95.62 -122.29 0.108 0 0 1 4 0 1 0 1
0 -95.62 113.71 0.108 0 0 1 4 0 1 0 1
0 -95.62 113.71 120.108 0 0 1 4 0 1 0 1
phys
0 -95.62 -122.29 0.108 0 0 1 4 0 1 0 1
0 -95.62 113.71 120.108 0 0 1 4 0 1 0 1
0 -95.62 -122.29 120.108 0 0 1 4 0 1 0 1
phys
0 -103.63 -122.29 0.108 0 0 1 4 0 1 0 1
0 -103.63 113.71 0.108 0 0 1 4 0 1 0 1
0 -95.62 113.71 0.108 0 0 1 4 0 1 0 1
phys
0 -103.63 -122.29 0.108 0 0 1 4 0 1 0 1
0 -95.62 113.71 0.108 0 0 1 4 0 1 0 1
0 -95.62 -122.29 0.108 0 0 1 4 0 1 0 1
phys
0 -95.62 -122.29 120.108 0 0 1 4 0 1 0 1
0 -95.62 113.71 120.108 0 0 1 4 0 1 0 1
0 -103.63 113.71 120.108 0 0 1 4 0 1 0 1
phys
0 -95.62 -122.29 120.108 0 0 1 4 0 1 0 1
0 -103.63 113.71 120.108 0 0 1 4 0 1 0 1
0 -103.63 -122.29 120.108 0 0 1 4 0 1 0 1
phys
0 -95.62 113.71 120.108 0 0 1 4 0 1 0 1
0 -95.62 113.71 0.108 0 0 1 4 0 1 0 1
0 -103.63 113.71 0.108 0 0 1 4 0 1 0 1
phys
0 -95.62 113.71 120.108 0 0 1 4 0 1 0 1
0 -103.63 113.71 0.108 0 0 1 4 0 1 0 1
0 -103.63 113.71 120.108 0 0 1 4 0 1 0 1
phys
0 -95.62 -122.29 0.108 0 0 1 4 0 1 0 1
0 -95.62 -122.29 120.108 0 0 1 4 0 1 0 1
0 -103.63 -122.29 120.108 0 0 1 4 0 1 0 1
phys
0 -95.62 -122.29 0.108 0 0 1 4 0 1 0 1
0 -103.63 -122.29 120.108 0 0 1 4 0 1 0 1
0 -103.63 -122.29 0.108 0 0 1 4 0 1 0 1
phys
0 240.37 121.71 33.09 0 0 1 5 0 1 0 1
0 240.37 121.71 0.108 0 0 1 5 0 1 0 1
0 -95.62 121.71 0.108 0 0 1 5 0 1 0 1
phys
0 240.37 121.71 33.09 0 0 1 5 0 1 0 1
0 -95.62 121.71 0.108 0 0 1 5 0 1 0 1
0 -95.62 121.71 33.09 0 0 1 5 0 1 0 1
phys
0 240.37 113.71 0.108 0 0 1 5 0 1 0 1
0 240.37 113.71 33.09 0 0 1 5 0 1 0 1
0 -95.62 113.71 33.09 0 0 1 5 0 1 0 1
phys
0 240.37 113.71 0.108 0 0 1 5 0 1 0 1
0 -95.62 113.71 33.09 0 0 1 5 0 1 0 1
0 -95.62 113.71 0.108 0 0 1 5 0 1 0 1
phys
0 -95.62 113.71 0.108 0 0 1 5 0 1 0 1
0 -95.62 113.71 33.09 0 0 1 5 0 1 0 1
0 -95.62 121.71 33.09 0 0 1 5 0 1 0 1
phys
0 -95.62 113.71 0.108 0 0 1 5 0 1 0 1
0 -95.62 121.71 33.09 0 0 1 5 0 1 0 1
0 -95.62 121.71 0.108 0 0 1 5 0 1 0 1
phys
0 240.37 113.71 33.09 0 0 1 5 0 1 0 1
0 240.37 113.71 0.108 0 0 1 5 0 1 0 1
0 240.37 121.71 0.108 0 0 1 5 0 1 0 1
phys
0 240.37 113.71 33.09 0 0 1 5 0 1 0 1
0 240.37 121.71 0.108 0 0 1 5 0 1 0 1
0 240.37 121.71 33.09 0 0 1 5 0 1 0 1
phys
0 240.37 113.71 0.108 0 0 1 5 0 1 0 1
0 -95.62 113.71 0.108 0 0 1 5 0 1 0 1
0 -95.62 121.71 0.108 0 0 1 5 0 1 0 1
phys
0 240.37 113.71 0.108 0 0 1 5 0 1 0 1
0 -95.62 121.71 0.108 0 0 1 5 0 1 0 1
0 240.37 121.71 0.108 0 0 1 5 0 1 0 1
phys
0 -95.62 113.71 33.09 0 0 1 5 0 1 0 1
0 240.37 113.71 33.09 0 0 1 5 0 1 0 1
0 240.37 121.71 33.09 0 0 1 5 0 1 0 1
phys
0 -95.62 113.71 33.09 0 0 1 5 0 1 0 1
0 240.37 121.71 33.09 0 0 1 5 0 1 0 1
0 -95.62 121.71 33.09 0 0 1 5 0 1 0 1
phys
0 71.34 121.71 101.34 0 0 1 6 0 1 0 1
0 71.34 121.71 32.84 0 0 1 6 0 1 0 1
0 -95.62 121.71 32.84 0 0 1 6 0 1 0 1
phys
0 71.34 121.71 101.34 0 0 1 6 0 1 0 1
0 -95.62 121.71 32.84 0 0 1 6 0 1 0 1
0 -95.62 121.71 101.34 0 0 1 6 0 1 0 1
phys
0 71.34 113.71 32.84 0 0 1 6 0 1 0 1
0 71.34 113.71 101.34 0 0 1 6 0 1 0 1
0 -95.62 113.71 101.34 0 0 1 6 0 1 0 1
phys
0 71.34 113.71 32.84 0 0 1 6 0 1 0 1
0 -95.62 113.71 101.34 0 0 1 6 0 1 0 1
0 -95.62 113.71 32.84 0 0 1 6 0 1 0 1
phys
0 -95.62 113.71 32.84 0 0 1 6 0 1 0 1
0 -95.62 113.71 101.34 0 0 1 6 0 1 0 1
0 -95.62 121.71 101.34 0 0 1 6 0 1 0 1
phys
0 -95.62 113.71 32.84 0 0 1 6 0 1 0 1
0 -95.62 121.71 101.34 0 0 1 6 0 1 0 1
0 -95.62 121.71 32.84 0 0 1 6 0 1 0 1
phys
0 71.34 113.71 101.34 0 0 1 6 0 1 0 1
0 71.34 113.71 32.84 0 0 1 6 0 1 0 1
0 71.34 121.71 32.84 0 0 1 6 0 1 0 1
phys
0 71.34 113.71 101.34 0 0 1 6 0 1 0 1
0 71.34 121.71 32.84 0 0 1 6 0 1 0 1
0 71.34 121.71 101.34 0 0 1 6 0 1 0 1
phys
0 71.34 113.71 32.84 0 0 1 6 0 1 0 1
0 -95.62 113.71 32.84 0 0 1 6 0 1 0 1
0 -95.62 121.71 32.84 0 0 1 6 0 1 0 1
phys
0 71.34 113.71 32.84 0 0 1 6 0 1 0 1
0 -95.62 121.71 32.84 0 0 1 6 0 1 0 1
0 71.34 121.71 32.84 0 0 1 6 0 1 0 1
phys
0 -95.62 113.71 101.34 0 0 1 6 0 1 0 1
0 71.34 113.71 101.34 0 0 1 6 0 1 0 1
0 71.34 121.71 101.34 0 0 1 6 0 1 0 1
phys
0 -95.62 113.71 101.34 0 0 1 6 0 1 0 1
0 71.34 121.71 101.34 0 0 1 6 0 1 0 1
0 -95.62 121.71 101.34 0 0 1 6 0 1 0 1
phys
0 -215.63 57.71 0.108 0 0 1 7 0 1 0 1
0 -239.63 57.71 0.108 0 0 1 7 0 1 0 1
0 -239.63 113.71 0.108 0 0 1 7 0 1 0 1
phys
0 -215.63 57.71 0.108 0 0 1 7 0 1 0 1
0 -239.63 113.71 0.108 0 0 1 7 0 1 0 1
0 -215.63 113.71 0.108 0 0 1 7 0 1 0 1
phys
0 -239.63 57.71 120.108 0 0 1 7 0 1 0 1
0 -215.63 57.71 120.108 0 0 1 7 0 1 0 1
0 -215.63 113.71 120.108 0 0 1 7 0 1 0 1
phys
0 -239.63 57.71 120.108 0 0 1 7 0 1 0 1
0 -215.63 113.71 120.108 0 0 1 7 0 1 0 1
0 -239.63 113.71 120.108 0 0 1 7 0 1 0 1
phys
0 -215.63 113.71 0.108 0 0 1 7 0 1 0 1
0 -239.63 113.71 0.108 0 0 1 7 0 1 0 1
0 -239.63 113.71 120.108 0 0 1 7 0 1 0 1
phys
0 -215.63 113.71 0.108 0 0 1 7 0 1 0 1
0 -239.63 113.71 120.108 0 0 1 7 0 1 0 1
0 -215.63 113.71 120.108 0 0 1 7 0 1 0 1
phys
0 -215.63 57.71 120.108 0 0 1 7 0 1 0 1
0 -239.63 57.71 120.108 0 0 1 7 0 1 0 1
0 -239.63 57.71 0.108 0 0 1 7 0 1 0 1
phys
0 -215.63 57.71 120.108 0 0 1 7 0 1 0 1
0 -239.63 57.71 0.108 0 0 1 7 0 1 0 1
0 -215.63 57.71 0.108 0 0 1 7 0 1 0 1
phys
0 -239.63 57.71 120.108 0 0 1 7 0 1 0 1
0 -239.63 113.71 120.108 0 0 1 7 0 1 0 1
0 -239.63 113.71 0.108 0 0 1 7 0 1 0 1
phys
0 -239.63 57.71 120.108 0 0 1 7 0 1 0 1
0 -239.63 113.71 0.108 0 0 1 7 0 1 0 1
0 -239.63 57.71 0.108 0 0 1 7 0 1 0 1
phys
0 -215.63 57.71 0.108 0 0 1 7 0 1 0 1
0 -215.63 113.71 0.108 0 0 1 7 0 1 0 1
0 -215.63 113.71 120.108 0 0 1 7 0 1 0 1
phys
0 -215.63 57.71 0.108 0 0 1 7 0 1 0 1
0 -215.63 113.71 120.108 0 0 1 7 0 1 0 1
0 -215.63 57.71 120.108 0 0 1 7 0 1 0 1
phys
0 8.37 113.71 120.108 0 0 1 8 0 1 0 1
0 8.37 113.71 0.108 0 0 1 8 0 1 0 1
0 0.37 113.71 0.108 0 0 1 8 0 1 0 1
phys
0 8.37 113.71 120.108 0 0 1 8 0 1 0 1
0 0.37 113.71 0.108 0 0 1 8 0 1 0 1
0 0.37 113.71 120.108 0 0 1 8 0 1 0 1
phys
0 8.37 -122.29 0.108 0 0 1 8 0 1 0 1
0 8.37 -122.29 120.108 0 0 1 8 0 1 0 1
0 0.37 -122.29 120.108 0 0 1 8 0 1 0 1
phys
0 8.37 -122.29 0.108 0 0 1 8 0 1 0 1
0 0.37 -122.29 120.108 0 0 1 8 0 1 0 1
0 0.37 -122.29 0.108 0 0 1 8 0 1 0 1
phys
0 0.37 -122.29 0.108 0 0 1 8 0 1 0 1
0 0.37 -122.29 120.108 0 0 1 8 0 1 0 1
0 0.37 113.71 120.108 0 0 1 8 0 1 0 1
phys
0 0.37 -122.29 0.108 0 0 1 8 0 1 0 1
0 0.37 113.71 120.108 0 0 1 8 0 1 0 1
0 0.37 113.71 0.108 0 0 1 8 0 1 0 1
phys
0 8.37 -122.29 120.108 0 0 1 8 0 1 0 1
0 8.37 -122.29 0.108 0 0 1 8 0 1 0 1
0 8.37 113.71 0.108 0 0 1 8 0 1 0 1
phys
0 8.37 -122.29 120.108 0 0 1 8 0 1 0 1
0 8.37 113.71 0.108 0 0 1 8 0 1 0 1
0 8.37 113.71 120.108 0 0 1 8 0 1 0 1
phys
0 8.37 -122.29 0.108 0 0 1 8 0 1 0 1
0 0.37 -122.29 0.108 0 0 1 8 0 1 0 1
0 0.37 113.71 0.108 0 0 1 8 0 1 0 1
phys
0 8.37 -122.29 0.108 0 0 1 8 0 1 0 1
0 0.37 113.71 0.108 0 0 1 8 0 1 0 1
0 8.37 113.71 0.108 0 0 1 8 0 1 0 1
phys
0 0.37 -122.29 120.108 0 0 1 8 0 1 0 1
0 8.37 -122.29 120.108 0 0 1 8 0 1 0 1
0 8.37 113.71 120.108 0 0 1 8 0 1 0 1
phys
0 0.37 -122.29 120.108 0 0 1 8 0 1 0 1
0 8.37 113.71 120.108 0 0 1 8 0 1 0 1
0 0.37 113.71 120.108 0 0 1 8 0 1 0 1
end
