version 1
nodes
0 "root" -1
end
skeleton
time 0
0 0 0 0 0 0 0
end
triangles
realworldtextures2_wood_wood_19
0 -95.62 121.71 128.106 0 1 0 10.034219 -2.796047 1 0 1
0 -95.62 121.71 0.108 0 1 0 10.034219 -3.796031 1 0 1
0 -239.63 121.71 0.108 0 1 0 8.909141 -3.796031 1 0 1
realworldtextures2_wood_wood_19
0 -95.62 121.71 128.106 0 1 0 10.034219 -2.796047 1 0 1
0 -239.63 121.71 0.108 0 1 0 8.909141 -3.796031 1 0 1
0 -239.63 121.71 128.106 0 1 0 8.909141 -2.796047 1 0 1
brush_vegas_wall_int_wall_int_ens_tile_03
0 -95.62 113.71 0.108 0 -1 0 20.986406 -8.498313 1 0 1
0 -95.62 113.71 128.106 0 -1 0 20.986406 -6.498344 1 0 1
0 -239.63 113.71 128.106 0 -1 0 18.73625 -6.498344 1 0 1
brush_vegas_wall_int_wall_int_ens_tile_03
0 -95.62 113.71 0.108 0 -1 0 20.986406 -8.498313 1 0 1
0 -239.63 113.71 128.106 0 -1 0 18.73625 -6.498344 1 0 1
0 -239.63 113.71 0.108 0 -1 0 18.73625 -8.498312 1 0 1
brush_vegas_wall_int_wall_int_ens_tile_03
0 -103.63 57.71 0.108 0 -1 0 20.86125 -8.498312 1 0 1
0 -103.63 57.71 120.108 0 -1 0 20.86125 -6.623312 1 0 1
0 -119.63 57.71 120.108 0 -1 0 20.61125 -6.623312 1 0 1
brush_vegas_wall_int_wall_int_ens_tile_03
0 -103.63 57.71 0.108 0 -1 0 20.86125 -8.498312 1 0 1
0 -119.63 57.71 120.108 0 -1 0 20.61125 -6.623312 1 0 1
0 -119.63 57.71 0.108 0 -1 0 20.61125 -8.498312 1 0 1
brush_vegas_wall_int_wall_int_ens_tile_03
0 -119.63 57.71 0.108 -1 0 0 53.852188 -8.498312 1 0 1
0 -119.63 57.71 120.108 -1 0 0 53.852188 -6.623312 1 0 1
0 -119.63 113.71 120.108 -1 0 0 52.977187 -6.623312 1 0 1
brush_vegas_wall_int_wall_int_ens_tile_03
0 -119.63 57.71 0.108 -1 0 0 53.852188 -8.498312 1 0 1
0 -119.63 113.71 120.108 -1 0 0 52.977187 -6.623312 1 0 1
0 -119.63 113.71 0.108 -1 0 0 52.977187 -8.498312 1 0 1
office_wood_wood_floor_001b
0 0.37 25.71 128.106 0 0 1 4.871563 -13.088047 1 0 1
0 0.37 113.71 128.106 0 0 1 4.871563 -12.744297 1 0 1
0 -95.62 113.71 128.106 0 0 1 4.496602 -12.744297 1 0 1
office_wood_wood_floor_001b
0 0.37 25.71 128.106 0 0 1 4.871563 -13.088047 1 0 1
0 -95.62 113.71 128.106 0 0 1 4.496602 -12.744297 1 0 1
0 -95.62 25.71 128.106 0 0 1 4.496602 -13.088047 1 0 1
rp_downtown_plaster_wall13
0 -103.63 -122.29 120.108 -1 0 0 27.832344 -2.811656 1 0 1
0 -103.63 113.71 120.108 -1 0 0 25.988594 -2.811656 1 0 1
0 -103.63 113.71 0.108 -1 0 0 25.988594 -3.749156 1 0 1
rp_downtown_plaster_wall13
0 -103.63 -122.29 120.108 -1 0 0 27.832344 -2.811656 1 0 1
0 -103.63 113.71 0.108 -1 0 0 25.988594 -3.749156 1 0 1
0 -103.63 -122.29 0.108 -1 0 0 27.832344 -3.749156 1 0 1
wood_woodwall_016
0 -95.62 -122.29 0.108 1 0 0 15.166172 -2.981068 1 0 1
0 -95.62 113.71 0.108 1 0 0 14.244297 -2.981068 1 0 1
0 -95.62 113.71 120.108 1 0 0 14.244297 -2.199818 1 0 1
wood_woodwall_016
0 -95.62 -122.29 0.108 1 0 0 15.166172 -2.981068 1 0 1
0 -95.62 113.71 120.108 1 0 0 14.244297 -2.199818 1 0 1
0 -95.62 -122.29 120.108 1 0 0 15.166172 -2.199818 1 0 1
realworldtextures2_wood_wood_19
0 240.37 121.71 33.09 0 1 0 12.659141 -3.538359 1 0 1
0 240.37 121.71 0.108 0 1 0 12.659141 -3.796031 1 0 1
0 -95.62 121.71 0.108 0 1 0 10.034219 -3.796031 1 0 1
realworldtextures2_wood_wood_19
0 240.37 121.71 33.09 0 1 0 12.659141 -3.538359 1 0 1
0 -95.62 121.71 0.108 0 1 0 10.034219 -3.796031 1 0 1
0 -95.62 121.71 33.09 0 1 0 10.034219 -3.538359 1 0 1
wood_woodwall_016
0 240.37 113.71 0.108 0 -1 0 5.814922 -2.981068 1 0 1
0 240.37 113.71 33.09 0 -1 0 5.814922 -2.766341 1 0 1
0 -95.62 113.71 33.09 0 -1 0 4.502461 -2.766341 1 0 1
wood_woodwall_016
0 240.37 113.71 0.108 0 -1 0 5.814922 -2.981068 1 0 1
0 -95.62 113.71 33.09 0 -1 0 4.502461 -2.766341 1 0 1
0 -95.62 113.71 0.108 0 -1 0 4.502461 -2.981068 1 0 1
realworldtextures2_wood_wood_19
0 -95.62 113.71 33.09 0 0 1 26.846016 11.346719 1 0 1
0 240.37 113.71 33.09 0 0 1 26.846016 13.971641 1 0 1
0 240.37 121.71 33.09 0 0 1 26.783516 13.971641 1 0 1
realworldtextures2_wood_wood_19
0 -95.62 113.71 33.09 0 0 1 26.846016 11.346719 1 0 1
0 240.37 121.71 33.09 0 0 1 26.783516 13.971641 1 0 1
0 -95.62 121.71 33.09 0 0 1 26.783516 11.346719 1 0 1
realworldtextures2_wood_wood_19
0 71.34 121.71 101.34 0 1 0 11.338594 -3.005156 1 0 1
0 71.34 121.71 32.84 0 1 0 11.338594 -3.540313 1 0 1
0 -95.62 121.71 32.84 0 1 0 10.034219 -3.540313 1 0 1
realworldtextures2_wood_wood_19
0 71.34 121.71 101.34 0 1 0 11.338594 -3.005156 1 0 1
0 -95.62 121.71 32.84 0 1 0 10.034219 -3.540313 1 0 1
0 -95.62 121.71 101.34 0 1 0 10.034219 -3.005156 1 0 1
wood_woodwall_016
0 71.34 113.71 32.84 0 -1 0 5.154648 -2.767969 1 0 1
0 71.34 113.71 101.34 0 -1 0 5.154648 -2.322005 1 0 1
0 -95.62 113.71 101.34 0 -1 0 4.502461 -2.322005 1 0 1
wood_woodwall_016
0 71.34 113.71 32.84 0 -1 0 5.154648 -2.767969 1 0 1
0 -95.62 113.71 101.34 0 -1 0 4.502461 -2.322005 1 0 1
0 -95.62 113.71 32.84 0 -1 0 4.502461 -2.767969 1 0 1
realworldtextures2_wood_wood_19
0 71.34 113.71 101.34 1 0 0 26.846016 -3.028594 1 0 1
0 71.34 113.71 32.84 1 0 0 26.846016 -3.56375 1 0 1
0 71.34 121.71 32.84 1 0 0 26.783516 -3.56375 1 0 1
realworldtextures2_wood_wood_19
0 71.34 113.71 101.34 1 0 0 26.846016 -3.028594 1 0 1
0 71.34 121.71 32.84 1 0 0 26.783516 -3.56375 1 0 1
0 71.34 121.71 101.34 1 0 0 26.783516 -3.028594 1 0 1
rp_downtown_plaster_wall13
0 -215.63 57.71 120.108 0 -1 0 8.551719 -2.811656 1 0 1
0 -239.63 57.71 120.108 0 -1 0 8.364219 -2.811656 1 0 1
0 -239.63 57.71 0.108 0 -1 0 8.364219 -3.749156 1 0 1
rp_downtown_plaster_wall13
0 -215.63 57.71 120.108 0 -1 0 8.551719 -2.811656 1 0 1
0 -239.63 57.71 0.108 0 -1 0 8.364219 -3.749156 1 0 1
0 -215.63 57.71 0.108 0 -1 0 8.551719 -3.749156 1 0 1
ajacks_ben_whiteceiling
0 -215.63 57.71 0.108 1 0 0 27.588203 -3.796031 1 0 1
0 -215.63 113.71 0.108 1 0 0 27.150703 -3.796031 1 0 1
0 -215.63 113.71 120.108 1 0 0 27.150703 -2.858531 1 0 1
ajacks_ben_whiteceiling
0 -215.63 57.71 0.108 1 0 0 27.588203 -3.796031 1 0 1
0 -215.63 113.71 120.108 1 0 0 27.150703 -2.858531 1 0 1
0 -215.63 57.71 120.108 1 0 0 27.588203 -2.858531 1 0 1
wood_woodwall_016
0 0.37 -122.29 0.108 -1 0 0 15.166172 -2.981068 1 0 1
0 0.37 -122.29 120.108 -1 0 0 15.166172 -2.199818 1 0 1
0 0.37 113.71 120.108 -1 0 0 14.244297 -2.199818 1 0 1
wood_woodwall_016
0 0.37 -122.29 0.108 -1 0 0 15.166172 -2.981068 1 0 1
0 0.37 113.71 120.108 -1 0 0 14.244297 -2.199818 1 0 1
0 0.37 113.71 0.108 -1 0 0 14.244297 -2.981068 1 0 1
wood_woodwall_016
0 8.37 -122.29 120.108 1 0 0 15.166172 -2.199818 1 0 1
0 8.37 -122.29 0.108 1 0 0 15.166172 -2.981068 1 0 1
0 8.37 113.71 0.108 1 0 0 14.244297 -2.981068 1 0 1
wood_woodwall_016
0 8.37 -122.29 120.108 1 0 0 15.166172 -2.199818 1 0 1
0 8.37 113.71 0.108 1 0 0 14.244297 -2.981068 1 0 1
0 8.37 113.71 120.108 1 0 0 14.244297 -2.199818 1 0 1
end
