version 1
nodes
0 "root" -1
end
skeleton
time 0
0 0 0 0 0 0 0
end
triangles
phys
0 -51 -69 60 0 0 1 1 0 1 0 1
0 -51 -69 58 0 0 1 1 0 1 0 1
0 -99 -69 58 0 0 1 1 0 1 0 1
phys
0 -51 -69 60 0 0 1 1 0 1 0 1
0 -99 -69 58 0 0 1 1 0 1 0 1
0 -99 -69 60 0 0 1 1 0 1 0 1
phys
0 -51 -75 58 0 0 1 1 0 1 0 1
0 -51 -75 60 0 0 1 1 0 1 0 1
0 -99 -75 60 0 0 1 1 0 1 0 1
phys
0 -51 -75 58 0 0 1 1 0 1 0 1
0 -99 -75 60 0 0 1 1 0 1 0 1
0 -99 -75 58 0 0 1 1 0 1 0 1
phys
0 -99 -75 58 0 0 1 1 0 1 0 1
0 -99 -75 60 0 0 1 1 0 1 0 1
0 -99 -69 60 0 0 1 1 0 1 0 1
phys
0 -99 -75 58 0 0 1 1 0 1 0 1
0 -99 -69 60 0 0 1 1 0 1 0 1
0 -99 -69 58 0 0 1 1 0 1 0 1
phys
0 -51 -75 60 0 0 1 1 0 1 0 1
0 -51 -75 58 0 0 1 1 0 1 0 1
0 -51 -69 58 0 0 1 1 0 1 0 1
phys
0 -51 -75 60 0 0 1 1 0 1 0 1
0 -51 -69 58 0 0 1 1 0 1 0 1
0 -51 -69 60 0 0 1 1 0 1 0 1
phys
0 -51 -75 58 0 0 1 1 0 1 0 1
0 -99 -75 58 0 0 1 1 0 1 0 1
0 -99 -69 58 0 0 1 1 0 1 0 1
phys
0 -51 -75 58 0 0 1 1 0 1 0 1
0 -99 -69 58 0 0 1 1 0 1 0 1
0 -51 -69 58 0 0 1 1 0 1 0 1
phys
0 -99 -75 60 0 0 1 1 0 1 0 1
0 -51 -75 60 0 0 1 1 0 1 0 1
0 -51 -69 60 0 0 1 1 0 1 0 1
phys
0 -99 -75 60 0 0 1 1 0 1 0 1
0 -51 -69 60 0 0 1 1 0 1 0 1
0 -99 -69 60 0 0 1 1 0 1 0 1
phys
0 -51 -69 34 0 0 1 2 0 1 0 1
0 -51 -69 -10 0 0 1 2 0 1 0 1
0 -53 -69 -10 0 0 1 2 0 1 0 1
phys
0 -51 -69 34 0 0 1 2 0 1 0 1
0 -53 -69 -10 0 0 1 2 0 1 0 1
0 -53 -69 34 0 0 1 2 0 1 0 1
phys
0 -51 -75 -10 0 0 1 2 0 1 0 1
0 -51 -75 34 0 0 1 2 0 1 0 1
0 -53 -75 34 0 0 1 2 0 1 0 1
phys
0 -51 -75 -10 0 0 1 2 0 1 0 1
0 -53 -75 34 0 0 1 2 0 1 0 1
0 -53 -75 -10 0 0 1 2 0 1 0 1
phys
0 -53 -75 -10 0 0 1 2 0 1 0 1
0 -53 -75 34 0 0 1 2 0 1 0 1
0 -53 -69 34 0 0 1 2 0 1 0 1
phys
0 -53 -75 -10 0 0 1 2 0 1 0 1
0 -53 -69 34 0 0 1 2 0 1 0 1
0 -53 -69 -10 0 0 1 2 0 1 0 1
phys
0 -51 -75 34 0 0 1 2 0 1 0 1
0 -51 -75 -10 0 0 1 2 0 1 0 1
0 -51 -69 -10 0 0 1 2 0 1 0 1
phys
0 -51 -75 34 0 0 1 2 0 1 0 1
0 -51 -69 -10 0 0 1 2 0 1 0 1
0 -51 -69 34 0 0 1 2 0 1 0 1
phys
0 -51 -75 -10 0 0 1 2 0 1 0 1
0 -53 -75 -10 0 0 1 2 0 1 0 1
0 -53 -69 -10 0 0 1 2 0 1 0 1
phys
0 -51 -75 -10 0 0 1 2 0 1 0 1
0 -53 -69 -10 0 0 1 2 0 1 0 1
0 -51 -69 -10 0 0 1 2 0 1 0 1
phys
0 -53 -75 34 0 0 1 2 0 1 0 1
0 -51 -75 34 0 0 1 2 0 1 0 1
0 -51 -69 34 0 0 1 2 0 1 0 1
phys
0 -53 -75 34 0 0 1 2 0 1 0 1
0 -51 -69 34 0 0 1 2 0 1 0 1
0 -53 -69 34 0 0 1 2 0 1 0 1
phys
0 -347 -69 60 0 0 1 3 0 1 0 1
0 -347 -69 58 0 0 1 3 0 1 0 1
0 -395 -69 58 0 0 1 3 0 1 0 1
phys
0 -347 -69 60 0 0 1 3 0 1 0 1
0 -395 -69 58 0 0 1 3 0 1 0 1
0 -395 -69 60 0 0 1 3 0 1 0 1
phys
0 -347 -75 58 0 0 1 3 0 1 0 1
0 -347 -75 60 0 0 1 3 0 1 0 1
0 -395 -75 60 0 0 1 3 0 1 0 1
phys
0 -347 -75 58 0 0 1 3 0 1 0 1
0 -395 -75 60 0 0 1 3 0 1 0 1
0 -395 -75 58 0 0 1 3 0 1 0 1
phys
0 -395 -75 58 0 0 1 3 0 1 0 1
0 -395 -75 60 0 0 1 3 0 1 0 1
0 -395 -69 60 0 0 1 3 0 1 0 1
phys
0 -395 -75 58 0 0 1 3 0 1 0 1
0 -395 -69 60 0 0 1 3 0 1 0 1
0 -395 -69 58 0 0 1 3 0 1 0 1
phys
0 -347 -75 60 0 0 1 3 0 1 0 1
0 -347 -75 58 0 0 1 3 0 1 0 1
0 -347 -69 58 0 0 1 3 0 1 0 1
phys
0 -347 -75 60 0 0 1 3 0 1 0 1
0 -347 -69 58 0 0 1 3 0 1 0 1
0 -347 -69 60 0 0 1 3 0 1 0 1
phys
0 -347 -75 58 0 0 1 3 0 1 0 1
0 -395 -75 58 0 0 1 3 0 1 0 1
0 -395 -69 58 0 0 1 3 0 1 0 1
phys
0 -347 -75 58 0 0 1 3 0 1 0 1
0 -395 -69 58 0 0 1 3 0 1 0 1
0 -347 -69 58 0 0 1 3 0 1 0 1
phys
0 -395 -75 60 0 0 1 3 0 1 0 1
0 -347 -75 60 0 0 1 3 0 1 0 1
0 -347 -69 60 0 0 1 3 0 1 0 1
phys
0 -395 -75 60 0 0 1 3 0 1 0 1
0 -347 -69 60 0 0 1 3 0 1 0 1
0 -395 -69 60 0 0 1 3 0 1 0 1
phys
0 -101 -75 58 0 0 1 4 0 1 0 1
0 -97 -75 58 0 0 1 4 0 1 0 1
0 -97 -69 58 0 0 1 4 0 1 0 1
phys
0 -101 -75 58 0 0 1 4 0 1 0 1
0 -97 -69 58 0 0 1 4 0 1 0 1
0 -101 -69 58 0 0 1 4 0 1 0 1
phys
0 -101 -69 38 0 0 1 4 0 1 0 1
0 -101 -69 58 0 0 1 4 0 1 0 1
0 -97 -69 58 0 0 1 4 0 1 0 1
phys
0 -101 -69 38 0 0 1 4 0 1 0 1
0 -97 -69 58 0 0 1 4 0 1 0 1
0 -97 -69 38 0 0 1 4 0 1 0 1
phys
0 -97 -75 38 0 0 1 4 0 1 0 1
0 -97 -75 58 0 0 1 4 0 1 0 1
0 -101 -75 58 0 0 1 4 0 1 0 1
phys
0 -97 -75 38 0 0 1 4 0 1 0 1
0 -101 -75 58 0 0 1 4 0 1 0 1
0 -101 -75 38 0 0 1 4 0 1 0 1
phys
0 -101 -75 38 0 0 1 4 0 1 0 1
0 -101 -75 58 0 0 1 4 0 1 0 1
0 -101 -69 58 0 0 1 4 0 1 0 1
phys
0 -101 -75 38 0 0 1 4 0 1 0 1
0 -101 -69 58 0 0 1 4 0 1 0 1
0 -101 -69 38 0 0 1 4 0 1 0 1
phys
0 -97 -69 38 0 0 1 4 0 1 0 1
0 -97 -69 58 0 0 1 4 0 1 0 1
0 -97 -75 58 0 0 1 4 0 1 0 1
phys
0 -97 -69 38 0 0 1 4 0 1 0 1
0 -97 -75 58 0 0 1 4 0 1 0 1
0 -97 -75 38 0 0 1 4 0 1 0 1
phys
0 -97 -75 38 0 0 1 4 0 1 0 1
0 -101 -75 38 0 0 1 4 0 1 0 1
0 -101 -69 38 0 0 1 4 0 1 0 1
phys
0 -97 -75 38 0 0 1 4 0 1 0 1
0 -101 -69 38 0 0 1 4 0 1 0 1
0 -97 -69 38 0 0 1 4 0 1 0 1
phys
0 -51 -77 38 0 0 1 5 0 1 0 1
0 -49 -77 38 0 0 1 5 0 1 0 1
0 -49 -67 38 0 0 1 5 0 1 0 1
phys
0 -51 -77 38 0 0 1 5 0 1 0 1
0 -49 -67 38 0 0 1 5 0 1 0 1
0 -51 -67 38 0 0 1 5 0 1 0 1
phys
0 -51 -67 -60 0 0 1 5 0 1 0 1
0 -51 -67 38 0 0 1 5 0 1 0 1
0 -49 -67 38 0 0 1 5 0 1 0 1
phys
0 -51 -67 -60 0 0 1 5 0 1 0 1
0 -49 -67 38 0 0 1 5 0 1 0 1
0 -49 -67 -60 0 0 1 5 0 1 0 1
phys
0 -49 -77 -60 0 0 1 5 0 1 0 1
0 -49 -77 38 0 0 1 5 0 1 0 1
0 -51 -77 38 0 0 1 5 0 1 0 1
phys
0 -49 -77 -60 0 0 1 5 0 1 0 1
0 -51 -77 38 0 0 1 5 0 1 0 1
0 -51 -77 -60 0 0 1 5 0 1 0 1
phys
0 -51 -77 -60 0 0 1 5 0 1 0 1
0 -51 -77 38 0 0 1 5 0 1 0 1
0 -51 -67 38 0 0 1 5 0 1 0 1
phys
0 -51 -77 -60 0 0 1 5 0 1 0 1
0 -51 -67 38 0 0 1 5 0 1 0 1
0 -51 -67 -60 0 0 1 5 0 1 0 1
phys
0 -49 -67 -60 0 0 1 5 0 1 0 1
0 -49 -67 38 0 0 1 5 0 1 0 1
0 -49 -77 38 0 0 1 5 0 1 0 1
phys
0 -49 -67 -60 0 0 1 5 0 1 0 1
0 -49 -77 38 0 0 1 5 0 1 0 1
0 -49 -77 -60 0 0 1 5 0 1 0 1
phys
0 -49 -77 -60 0 0 1 5 0 1 0 1
0 -51 -77 -60 0 0 1 5 0 1 0 1
0 -51 -67 -60 0 0 1 5 0 1 0 1
phys
0 -49 -77 -60 0 0 1 5 0 1 0 1
0 -51 -67 -60 0 0 1 5 0 1 0 1
0 -49 -67 -60 0 0 1 5 0 1 0 1
phys
0 -393 -69 58 0 0 1 6 0 1 0 1
0 -393 -69 38 0 0 1 6 0 1 0 1
0 -397 -69 38 0 0 1 6 0 1 0 1
phys
0 -393 -69 58 0 0 1 6 0 1 0 1
0 -397 -69 38 0 0 1 6 0 1 0 1
0 -397 -69 58 0 0 1 6 0 1 0 1
phys
0 -393 -75 38 0 0 1 6 0 1 0 1
0 -393 -75 58 0 0 1 6 0 1 0 1
0 -397 -75 58 0 0 1 6 0 1 0 1
phys
0 -393 -75 38 0 0 1 6 0 1 0 1
0 -397 -75 58 0 0 1 6 0 1 0 1
0 -397 -75 38 0 0 1 6 0 1 0 1
phys
0 -397 -75 38 0 0 1 6 0 1 0 1
0 -397 -75 58 0 0 1 6 0 1 0 1
0 -397 -69 58 0 0 1 6 0 1 0 1
phys
0 -397 -75 38 0 0 1 6 0 1 0 1
0 -397 -69 58 0 0 1 6 0 1 0 1
0 -397 -69 38 0 0 1 6 0 1 0 1
phys
0 -393 -75 58 0 0 1 6 0 1 0 1
0 -393 -75 38 0 0 1 6 0 1 0 1
0 -393 -69 38 0 0 1 6 0 1 0 1
phys
0 -393 -75 58 0 0 1 6 0 1 0 1
0 -393 -69 38 0 0 1 6 0 1 0 1
0 -393 -69 58 0 0 1 6 0 1 0 1
phys
0 -393 -75 38 0 0 1 6 0 1 0 1
0 -397 -75 38 0 0 1 6 0 1 0 1
0 -397 -69 38 0 0 1 6 0 1 0 1
phys
0 -393 -75 38 0 0 1 6 0 1 0 1
0 -397 -69 38 0 0 1 6 0 1 0 1
0 -393 -69 38 0 0 1 6 0 1 0 1
phys
0 -397 -75 58 0 0 1 6 0 1 0 1
0 -393 -75 58 0 0 1 6 0 1 0 1
0 -393 -69 58 0 0 1 6 0 1 0 1
phys
0 -397 -75 58 0 0 1 6 0 1 0 1
0 -393 -69 58 0 0 1 6 0 1 0 1
0 -397 -69 58 0 0 1 6 0 1 0 1
phys
0 -97 -75 -10 0 0 1 7 0 1 0 1
0 -97 -69 -10 0 0 1 7 0 1 0 1
0 -97 -69 34 0 0 1 7 0 1 0 1
phys
0 -97 -75 -10 0 0 1 7 0 1 0 1
0 -97 -69 34 0 0 1 7 0 1 0 1
0 -97 -75 34 0 0 1 7 0 1 0 1
phys
0 -99 -69 -10 0 0 1 7 0 1 0 1
0 -97 -69 -10 0 0 1 7 0 1 0 1
0 -97 -75 -10 0 0 1 7 0 1 0 1
phys
0 -99 -69 -10 0 0 1 7 0 1 0 1
0 -97 -75 -10 0 0 1 7 0 1 0 1
0 -99 -75 -10 0 0 1 7 0 1 0 1
phys
0 -99 -75 34 0 0 1 7 0 1 0 1
0 -97 -75 34 0 0 1 7 0 1 0 1
0 -97 -69 34 0 0 1 7 0 1 0 1
phys
0 -99 -75 34 0 0 1 7 0 1 0 1
0 -97 -69 34 0 0 1 7 0 1 0 1
0 -99 -69 34 0 0 1 7 0 1 0 1
phys
0 -97 -69 34 0 0 1 7 0 1 0 1
0 -97 -69 -10 0 0 1 7 0 1 0 1
0 -99 -69 -10 0 0 1 7 0 1 0 1
phys
0 -97 -69 34 0 0 1 7 0 1 0 1
0 -99 -69 -10 0 0 1 7 0 1 0 1
0 -99 -69 34 0 0 1 7 0 1 0 1
phys
0 -97 -75 -10 0 0 1 7 0 1 0 1
0 -97 -75 34 0 0 1 7 0 1 0 1
0 -99 -75 34 0 0 1 7 0 1 0 1
phys
0 -97 -75 -10 0 0 1 7 0 1 0 1
0 -99 -75 34 0 0 1 7 0 1 0 1
0 -99 -75 -10 0 0 1 7 0 1 0 1
phys
0 -99 -75 34 0 0 1 7 0 1 0 1
0 -99 -69 34 0 0 1 7 0 1 0 1
0 -99 -69 -10 0 0 1 7 0 1 0 1
phys
0 -99 -75 34 0 0 1 7 0 1 0 1
0 -99 -69 -10 0 0 1 7 0 1 0 1
0 -99 -75 -10 0 0 1 7 0 1 0 1
phys
0 -299 -69 34 0 0 1 8 0 1 0 1
0 -299 -69 -10 0 0 1 8 0 1 0 1
0 -301 -69 -10 0 0 1 8 0 1 0 1
phys
0 -299 -69 34 0 0 1 8 0 1 0 1
0 -301 -69 -10 0 0 1 8 0 1 0 1
0 -301 -69 34 0 0 1 8 0 1 0 1
phys
0 -299 -75 -10 0 0 1 8 0 1 0 1
0 -299 -75 34 0 0 1 8 0 1 0 1
0 -301 -75 34 0 0 1 8 0 1 0 1
phys
0 -299 -75 -10 0 0 1 8 0 1 0 1
0 -301 -75 34 0 0 1 8 0 1 0 1
0 -301 -75 -10 0 0 1 8 0 1 0 1
phys
0 -301 -75 -10 0 0 1 8 0 1 0 1
0 -301 -75 34 0 0 1 8 0 1 0 1
0 -301 -69 34 0 0 1 8 0 1 0 1
phys
0 -301 -75 -10 0 0 1 8 0 1 0 1
0 -301 -69 34 0 0 1 8 0 1 0 1
0 -301 -69 -10 0 0 1 8 0 1 0 1
phys
0 -299 -75 34 0 0 1 8 0 1 0 1
0 -299 -75 -10 0 0 1 8 0 1 0 1
0 -299 -69 -10 0 0 1 8 0 1 0 1
phys
0 -299 -75 34 0 0 1 8 0 1 0 1
0 -299 -69 -10 0 0 1 8 0 1 0 1
0 -299 -69 34 0 0 1 8 0 1 0 1
phys
0 -299 -75 -10 0 0 1 8 0 1 0 1
0 -301 -75 -10 0 0 1 8 0 1 0 1
0 -301 -69 -10 0 0 1 8 0 1 0 1
phys
0 -299 -75 -10 0 0 1 8 0 1 0 1
0 -301 -69 -10 0 0 1 8 0 1 0 1
0 -299 -69 -10 0 0 1 8 0 1 0 1
phys
0 -301 -75 34 0 0 1 8 0 1 0 1
0 -299 -75 34 0 0 1 8 0 1 0 1
0 -299 -69 34 0 0 1 8 0 1 0 1
phys
0 -301 -75 34 0 0 1 8 0 1 0 1
0 -299 -69 34 0 0 1 8 0 1 0 1
0 -301 -69 34 0 0 1 8 0 1 0 1
phys
0 -5 -77 38 0 0 1 9 0 1 0 1
0 -5 -67 38 0 0 1 9 0 1 0 1
0 -5 -67 60 0 0 1 9 0 1 0 1
phys
0 -5 -77 38 0 0 1 9 0 1 0 1
0 -5 -67 60 0 0 1 9 0 1 0 1
0 -5 -77 60 0 0 1 9 0 1 0 1
phys
0 -51 -67 38 0 0 1 9 0 1 0 1
0 -5 -67 38 0 0 1 9 0 1 0 1
0 -5 -77 38 0 0 1 9 0 1 0 1
phys
0 -51 -67 38 0 0 1 9 0 1 0 1
0 -5 -77 38 0 0 1 9 0 1 0 1
0 -51 -77 38 0 0 1 9 0 1 0 1
phys
0 -51 -77 60 0 0 1 9 0 1 0 1
0 -5 -77 60 0 0 1 9 0 1 0 1
0 -5 -67 60 0 0 1 9 0 1 0 1
phys
0 -51 -77 60 0 0 1 9 0 1 0 1
0 -5 -67 60 0 0 1 9 0 1 0 1
0 -51 -67 60 0 0 1 9 0 1 0 1
phys
0 -5 -67 60 0 0 1 9 0 1 0 1
0 -5 -67 38 0 0 1 9 0 1 0 1
0 -51 -67 38 0 0 1 9 0 1 0 1
phys
0 -5 -67 60 0 0 1 9 0 1 0 1
0 -51 -67 38 0 0 1 9 0 1 0 1
0 -51 -67 60 0 0 1 9 0 1 0 1
phys
0 -5 -77 38 0 0 1 9 0 1 0 1
0 -5 -77 60 0 0 1 9 0 1 0 1
0 -51 -77 60 0 0 1 9 0 1 0 1
phys
0 -5 -77 38 0 0 1 9 0 1 0 1
0 -51 -77 60 0 0 1 9 0 1 0 1
0 -51 -77 38 0 0 1 9 0 1 0 1
phys
0 -51 -77 60 0 0 1 9 0 1 0 1
0 -51 -67 60 0 0 1 9 0 1 0 1
0 -51 -67 38 0 0 1 9 0 1 0 1
phys
0 -51 -77 60 0 0 1 9 0 1 0 1
0 -51 -67 38 0 0 1 9 0 1 0 1
0 -51 -77 38 0 0 1 9 0 1 0 1
phys
0 -241 -75 38 0 0 1 10 0 1 0 1
0 -241 -75 58 0 0 1 10 0 1 0 1
0 -243 -75 58 0 0 1 10 0 1 0 1
phys
0 -241 -75 38 0 0 1 10 0 1 0 1
0 -243 -75 58 0 0 1 10 0 1 0 1
0 -243 -75 38 0 0 1 10 0 1 0 1
phys
0 -243 -75 38 0 0 1 10 0 1 0 1
0 -243 -75 58 0 0 1 10 0 1 0 1
0 -243 -69 58 0 0 1 10 0 1 0 1
phys
0 -243 -75 38 0 0 1 10 0 1 0 1
0 -243 -69 58 0 0 1 10 0 1 0 1
0 -243 -69 38 0 0 1 10 0 1 0 1
phys
0 -241 -75 58 0 0 1 10 0 1 0 1
0 -241 -75 38 0 0 1 10 0 1 0 1
0 -241 -69 38 0 0 1 10 0 1 0 1
phys
0 -241 -75 58 0 0 1 10 0 1 0 1
0 -241 -69 38 0 0 1 10 0 1 0 1
0 -241 -69 58 0 0 1 10 0 1 0 1
phys
0 -241 -75 38 0 0 1 10 0 1 0 1
0 -243 -75 38 0 0 1 10 0 1 0 1
0 -243 -69 38 0 0 1 10 0 1 0 1
phys
0 -241 -75 38 0 0 1 10 0 1 0 1
0 -243 -69 38 0 0 1 10 0 1 0 1
0 -241 -69 38 0 0 1 10 0 1 0 1
phys
0 -243 -75 58 0 0 1 10 0 1 0 1
0 -241 -75 58 0 0 1 10 0 1 0 1
0 -241 -69 58 0 0 1 10 0 1 0 1
phys
0 -243 -75 58 0 0 1 10 0 1 0 1
0 -241 -69 58 0 0 1 10 0 1 0 1
0 -243 -69 58 0 0 1 10 0 1 0 1
phys
0 -241 -69 58 0 0 1 10 0 1 0 1
0 -241 -69 38 0 0 1 10 0 1 0 1
0 -243 -69 38 0 0 1 10 0 1 0 1
phys
0 -241 -69 58 0 0 1 10 0 1 0 1
0 -243 -69 38 0 0 1 10 0 1 0 1
0 -243 -69 58 0 0 1 10 0 1 0 1
phys
0 -297 -77 -60 0 0 1 11 0 1 0 1
0 -297 -77 38 0 0 1 11 0 1 0 1
0 -299 -77 38 0 0 1 11 0 1 0 1
phys
0 -297 -77 -60 0 0 1 11 0 1 0 1
0 -299 -77 38 0 0 1 11 0 1 0 1
0 -299 -77 -60 0 0 1 11 0 1 0 1
phys
0 -299 -77 -60 0 0 1 11 0 1 0 1
0 -299 -77 38 0 0 1 11 0 1 0 1
0 -299 -67 38 0 0 1 11 0 1 0 1
phys
0 -299 -77 -60 0 0 1 11 0 1 0 1
0 -299 -67 38 0 0 1 11 0 1 0 1
0 -299 -67 -60 0 0 1 11 0 1 0 1
phys
0 -297 -77 38 0 0 1 11 0 1 0 1
0 -297 -77 -60 0 0 1 11 0 1 0 1
0 -297 -67 -60 0 0 1 11 0 1 0 1
phys
0 -297 -77 38 0 0 1 11 0 1 0 1
0 -297 -67 -60 0 0 1 11 0 1 0 1
0 -297 -67 38 0 0 1 11 0 1 0 1
phys
0 -297 -77 -60 0 0 1 11 0 1 0 1
0 -299 -77 -60 0 0 1 11 0 1 0 1
0 -299 -67 -60 0 0 1 11 0 1 0 1
phys
0 -297 -77 -60 0 0 1 11 0 1 0 1
0 -299 -67 -60 0 0 1 11 0 1 0 1
0 -297 -67 -60 0 0 1 11 0 1 0 1
phys
0 -299 -77 38 0 0 1 11 0 1 0 1
0 -297 -77 38 0 0 1 11 0 1 0 1
0 -297 -67 38 0 0 1 11 0 1 0 1
phys
0 -299 -77 38 0 0 1 11 0 1 0 1
0 -297 -67 38 0 0 1 11 0 1 0 1
0 -299 -67 38 0 0 1 11 0 1 0 1
phys
0 -297 -67 38 0 0 1 11 0 1 0 1
0 -297 -67 -60 0 0 1 11 0 1 0 1
0 -299 -67 -60 0 0 1 11 0 1 0 1
phys
0 -297 -67 38 0 0 1 11 0 1 0 1
0 -299 -67 -60 0 0 1 11 0 1 0 1
0 -299 -67 38 0 0 1 11 0 1 0 1
phys
0 5 77 60 0 0 1 12 0 1 0 1
0 5 77 -60 0 0 1 12 0 1 0 1
0 -5 77 -60 0 0 1 12 0 1 0 1
phys
0 5 77 60 0 0 1 12 0 1 0 1
0 -5 77 -60 0 0 1 12 0 1 0 1
0 -5 77 60 0 0 1 12 0 1 0 1
phys
0 5 -77 -60 0 0 1 12 0 1 0 1
0 5 -77 60 0 0 1 12 0 1 0 1
0 -5 -77 60 0 0 1 12 0 1 0 1
phys
0 5 -77 -60 0 0 1 12 0 1 0 1
0 -5 -77 60 0 0 1 12 0 1 0 1
0 -5 -77 -60 0 0 1 12 0 1 0 1
phys
0 -5 -77 -60 0 0 1 12 0 1 0 1
0 -5 -77 60 0 0 1 12 0 1 0 1
0 -5 77 60 0 0 1 12 0 1 0 1
phys
0 -5 -77 -60 0 0 1 12 0 1 0 1
0 -5 77 60 0 0 1 12 0 1 0 1
0 -5 77 -60 0 0 1 12 0 1 0 1
phys
0 5 -77 60 0 0 1 12 0 1 0 1
0 5 -77 -60 0 0 1 12 0 1 0 1
0 5 77 -60 0 0 1 12 0 1 0 1
phys
0 5 -77 60 0 0 1 12 0 1 0 1
0 5 77 -60 0 0 1 12 0 1 0 1
0 5 77 60 0 0 1 12 0 1 0 1
phys
0 5 -77 -60 0 0 1 12 0 1 0 1
0 -5 -77 -60 0 0 1 12 0 1 0 1
0 -5 77 -60 0 0 1 12 0 1 0 1
phys
0 5 -77 -60 0 0 1 12 0 1 0 1
0 -5 77 -60 0 0 1 12 0 1 0 1
0 5 77 -60 0 0 1 12 0 1 0 1
phys
0 -5 -77 60 0 0 1 12 0 1 0 1
0 5 -77 60 0 0 1 12 0 1 0 1
0 5 77 60 0 0 1 12 0 1 0 1
phys
0 -5 -77 60 0 0 1 12 0 1 0 1
0 5 77 60 0 0 1 12 0 1 0 1
0 -5 77 60 0 0 1 12 0 1 0 1
phys
0 -299 -69 58 0 0 1 13 0 1 0 1
0 -299 -69 38 0 0 1 13 0 1 0 1
0 -301 -69 38 0 0 1 13 0 1 0 1
phys
0 -299 -69 58 0 0 1 13 0 1 0 1
0 -301 -69 38 0 0 1 13 0 1 0 1
0 -301 -69 58 0 0 1 13 0 1 0 1
phys
0 -299 -75 38 0 0 1 13 0 1 0 1
0 -299 -75 58 0 0 1 13 0 1 0 1
0 -301 -75 58 0 0 1 13 0 1 0 1
phys
0 -299 -75 38 0 0 1 13 0 1 0 1
0 -301 -75 58 0 0 1 13 0 1 0 1
0 -301 -75 38 0 0 1 13 0 1 0 1
phys
0 -301 -75 38 0 0 1 13 0 1 0 1
0 -301 -75 58 0 0 1 13 0 1 0 1
0 -301 -69 58 0 0 1 13 0 1 0 1
phys
0 -301 -75 38 0 0 1 13 0 1 0 1
0 -301 -69 58 0 0 1 13 0 1 0 1
0 -301 -69 38 0 0 1 13 0 1 0 1
phys
0 -299 -75 58 0 0 1 13 0 1 0 1
0 -299 -75 38 0 0 1 13 0 1 0 1
0 -299 -69 38 0 0 1 13 0 1 0 1
phys
0 -299 -75 58 0 0 1 13 0 1 0 1
0 -299 -69 38 0 0 1 13 0 1 0 1
0 -299 -69 58 0 0 1 13 0 1 0 1
phys
0 -299 -75 38 0 0 1 13 0 1 0 1
0 -301 -75 38 0 0 1 13 0 1 0 1
0 -301 -69 38 0 0 1 13 0 1 0 1
phys
0 -299 -75 38 0 0 1 13 0 1 0 1
0 -301 -69 38 0 0 1 13 0 1 0 1
0 -299 -69 38 0 0 1 13 0 1 0 1
phys
0 -301 -75 58 0 0 1 13 0 1 0 1
0 -299 -75 58 0 0 1 13 0 1 0 1
0 -299 -69 58 0 0 1 13 0 1 0 1
phys
0 -301 -75 58 0 0 1 13 0 1 0 1
0 -299 -69 58 0 0 1 13 0 1 0 1
0 -301 -69 58 0 0 1 13 0 1 0 1
phys
0 -51 -69 38 0 0 1 14 0 1 0 1
0 -51 -69 36 0 0 1 14 0 1 0 1
0 -243 -69 36 0 0 1 14 0 1 0 1
phys
0 -51 -69 38 0 0 1 14 0 1 0 1
0 -243 -69 36 0 0 1 14 0 1 0 1
0 -243 -69 38 0 0 1 14 0 1 0 1
phys
0 -51 -75 36 0 0 1 14 0 1 0 1
0 -51 -75 38 0 0 1 14 0 1 0 1
0 -243 -75 38 0 0 1 14 0 1 0 1
phys
0 -51 -75 36 0 0 1 14 0 1 0 1
0 -243 -75 38 0 0 1 14 0 1 0 1
0 -243 -75 36 0 0 1 14 0 1 0 1
phys
0 -243 -75 36 0 0 1 14 0 1 0 1
0 -243 -75 38 0 0 1 14 0 1 0 1
0 -243 -69 38 0 0 1 14 0 1 0 1
phys
0 -243 -75 36 0 0 1 14 0 1 0 1
0 -243 -69 38 0 0 1 14 0 1 0 1
0 -243 -69 36 0 0 1 14 0 1 0 1
phys
0 -51 -75 38 0 0 1 14 0 1 0 1
0 -51 -75 36 0 0 1 14 0 1 0 1
0 -51 -69 36 0 0 1 14 0 1 0 1
phys
0 -51 -75 38 0 0 1 14 0 1 0 1
0 -51 -69 36 0 0 1 14 0 1 0 1
0 -51 -69 38 0 0 1 14 0 1 0 1
phys
0 -51 -75 36 0 0 1 14 0 1 0 1
0 -243 -75 36 0 0 1 14 0 1 0 1
0 -243 -69 36 0 0 1 14 0 1 0 1
phys
0 -51 -75 36 0 0 1 14 0 1 0 1
0 -243 -69 36 0 0 1 14 0 1 0 1
0 -51 -69 36 0 0 1 14 0 1 0 1
phys
0 -243 -75 38 0 0 1 14 0 1 0 1
0 -51 -75 38 0 0 1 14 0 1 0 1
0 -51 -69 38 0 0 1 14 0 1 0 1
phys
0 -243 -75 38 0 0 1 14 0 1 0 1
0 -51 -69 38 0 0 1 14 0 1 0 1
0 -243 -69 38 0 0 1 14 0 1 0 1
phys
0 -253 -67 60 0 0 1 15 0 1 0 1
0 -253 -67 38 0 0 1 15 0 1 0 1
0 -299 -67 38 0 0 1 15 0 1 0 1
phys
0 -253 -67 60 0 0 1 15 0 1 0 1
0 -299 -67 38 0 0 1 15 0 1 0 1
0 -299 -67 60 0 0 1 15 0 1 0 1
phys
0 -253 -77 38 0 0 1 15 0 1 0 1
0 -253 -77 60 0 0 1 15 0 1 0 1
0 -299 -77 60 0 0 1 15 0 1 0 1
phys
0 -253 -77 38 0 0 1 15 0 1 0 1
0 -299 -77 60 0 0 1 15 0 1 0 1
0 -299 -77 38 0 0 1 15 0 1 0 1
phys
0 -299 -77 38 0 0 1 15 0 1 0 1
0 -299 -77 60 0 0 1 15 0 1 0 1
0 -299 -67 60 0 0 1 15 0 1 0 1
phys
0 -299 -77 38 0 0 1 15 0 1 0 1
0 -299 -67 60 0 0 1 15 0 1 0 1
0 -299 -67 38 0 0 1 15 0 1 0 1
phys
0 -253 -77 60 0 0 1 15 0 1 0 1
0 -253 -77 38 0 0 1 15 0 1 0 1
0 -253 -67 38 0 0 1 15 0 1 0 1
phys
0 -253 -77 60 0 0 1 15 0 1 0 1
0 -253 -67 38 0 0 1 15 0 1 0 1
0 -253 -67 60 0 0 1 15 0 1 0 1
phys
0 -253 -77 38 0 0 1 15 0 1 0 1
0 -299 -77 38 0 0 1 15 0 1 0 1
0 -299 -67 38 0 0 1 15 0 1 0 1
phys
0 -253 -77 38 0 0 1 15 0 1 0 1
0 -299 -67 38 0 0 1 15 0 1 0 1
0 -253 -67 38 0 0 1 15 0 1 0 1
phys
0 -299 -77 60 0 0 1 15 0 1 0 1
0 -253 -77 60 0 0 1 15 0 1 0 1
0 -253 -67 60 0 0 1 15 0 1 0 1
phys
0 -299 -77 60 0 0 1 15 0 1 0 1
0 -253 -67 60 0 0 1 15 0 1 0 1
0 -299 -67 60 0 0 1 15 0 1 0 1
phys
0 -51 -77 -60 0 0 1 16 0 1 0 1
0 -51 -77 -12 0 0 1 16 0 1 0 1
0 -243 -77 -12 0 0 1 16 0 1 0 1
phys
0 -51 -77 -60 0 0 1 16 0 1 0 1
0 -243 -77 -12 0 0 1 16 0 1 0 1
0 -243 -77 -60 0 0 1 16 0 1 0 1
phys
0 -243 -77 -60 0 0 1 16 0 1 0 1
0 -243 -77 -12 0 0 1 16 0 1 0 1
0 -243 -67 -12 0 0 1 16 0 1 0 1
phys
0 -243 -77 -60 0 0 1 16 0 1 0 1
0 -243 -67 -12 0 0 1 16 0 1 0 1
0 -243 -67 -60 0 0 1 16 0 1 0 1
phys
0 -51 -77 -12 0 0 1 16 0 1 0 1
0 -51 -77 -60 0 0 1 16 0 1 0 1
0 -51 -67 -60 0 0 1 16 0 1 0 1
phys
0 -51 -77 -12 0 0 1 16 0 1 0 1
0 -51 -67 -60 0 0 1 16 0 1 0 1
0 -51 -67 -12 0 0 1 16 0 1 0 1
phys
0 -51 -77 -60 0 0 1 16 0 1 0 1
0 -243 -77 -60 0 0 1 16 0 1 0 1
0 -243 -67 -60 0 0 1 16 0 1 0 1
phys
0 -51 -77 -60 0 0 1 16 0 1 0 1
0 -243 -67 -60 0 0 1 16 0 1 0 1
0 -51 -67 -60 0 0 1 16 0 1 0 1
phys
0 -243 -77 -12 0 0 1 16 0 1 0 1
0 -51 -77 -12 0 0 1 16 0 1 0 1
0 -51 -67 -12 0 0 1 16 0 1 0 1
phys
0 -243 -77 -12 0 0 1 16 0 1 0 1
0 -51 -67 -12 0 0 1 16 0 1 0 1
0 -243 -67 -12 0 0 1 16 0 1 0 1
phys
0 -51 -67 -12 0 0 1 16 0 1 0 1
0 -51 -67 -60 0 0 1 16 0 1 0 1
0 -243 -67 -60 0 0 1 16 0 1 0 1
phys
0 -51 -67 -12 0 0 1 16 0 1 0 1
0 -243 -67 -60 0 0 1 16 0 1 0 1
0 -243 -67 -12 0 0 1 16 0 1 0 1
phys
0 -299 -69 60 0 0 1 17 0 1 0 1
0 -299 -69 58 0 0 1 17 0 1 0 1
0 -347 -69 58 0 0 1 17 0 1 0 1
phys
0 -299 -69 60 0 0 1 17 0 1 0 1
0 -347 -69 58 0 0 1 17 0 1 0 1
0 -347 -69 60 0 0 1 17 0 1 0 1
phys
0 -299 -75 58 0 0 1 17 0 1 0 1
0 -299 -75 60 0 0 1 17 0 1 0 1
0 -347 -75 60 0 0 1 17 0 1 0 1
phys
0 -299 -75 58 0 0 1 17 0 1 0 1
0 -347 -75 60 0 0 1 17 0 1 0 1
0 -347 -75 58 0 0 1 17 0 1 0 1
phys
0 -347 -75 58 0 0 1 17 0 1 0 1
0 -347 -75 60 0 0 1 17 0 1 0 1
0 -347 -69 60 0 0 1 17 0 1 0 1
phys
0 -347 -75 58 0 0 1 17 0 1 0 1
0 -347 -69 60 0 0 1 17 0 1 0 1
0 -347 -69 58 0 0 1 17 0 1 0 1
phys
0 -299 -75 60 0 0 1 17 0 1 0 1
0 -299 -75 58 0 0 1 17 0 1 0 1
0 -299 -69 58 0 0 1 17 0 1 0 1
phys
0 -299 -75 60 0 0 1 17 0 1 0 1
0 -299 -69 58 0 0 1 17 0 1 0 1
0 -299 -69 60 0 0 1 17 0 1 0 1
phys
0 -299 -75 58 0 0 1 17 0 1 0 1
0 -347 -75 58 0 0 1 17 0 1 0 1
0 -347 -69 58 0 0 1 17 0 1 0 1
phys
0 -299 -75 58 0 0 1 17 0 1 0 1
0 -347 -69 58 0 0 1 17 0 1 0 1
0 -299 -69 58 0 0 1 17 0 1 0 1
phys
0 -347 -75 60 0 0 1 17 0 1 0 1
0 -299 -75 60 0 0 1 17 0 1 0 1
0 -299 -69 60 0 0 1 17 0 1 0 1
phys
0 -347 -75 60 0 0 1 17 0 1 0 1
0 -299 -69 60 0 0 1 17 0 1 0 1
0 -347 -69 60 0 0 1 17 0 1 0 1
phys
0 -51 -69 58 0 0 1 18 0 1 0 1
0 -51 -69 38 0 0 1 18 0 1 0 1
0 -53 -69 38 0 0 1 18 0 1 0 1
phys
0 -51 -69 58 0 0 1 18 0 1 0 1
0 -53 -69 38 0 0 1 18 0 1 0 1
0 -53 -69 58 0 0 1 18 0 1 0 1
phys
0 -51 -75 38 0 0 1 18 0 1 0 1
0 -51 -75 58 0 0 1 18 0 1 0 1
0 -53 -75 58 0 0 1 18 0 1 0 1
phys
0 -51 -75 38 0 0 1 18 0 1 0 1
0 -53 -75 58 0 0 1 18 0 1 0 1
0 -53 -75 38 0 0 1 18 0 1 0 1
phys
0 -53 -75 38 0 0 1 18 0 1 0 1
0 -53 -75 58 0 0 1 18 0 1 0 1
0 -53 -69 58 0 0 1 18 0 1 0 1
phys
0 -53 -75 38 0 0 1 18 0 1 0 1
0 -53 -69 58 0 0 1 18 0 1 0 1
0 -53 -69 38 0 0 1 18 0 1 0 1
phys
0 -51 -75 58 0 0 1 18 0 1 0 1
0 -51 -75 38 0 0 1 18 0 1 0 1
0 -51 -69 38 0 0 1 18 0 1 0 1
phys
0 -51 -75 58 0 0 1 18 0 1 0 1
0 -51 -69 38 0 0 1 18 0 1 0 1
0 -51 -69 58 0 0 1 18 0 1 0 1
phys
0 -51 -75 38 0 0 1 18 0 1 0 1
0 -53 -75 38 0 0 1 18 0 1 0 1
0 -53 -69 38 0 0 1 18 0 1 0 1
phys
0 -51 -75 38 0 0 1 18 0 1 0 1
0 -53 -69 38 0 0 1 18 0 1 0 1
0 -51 -69 38 0 0 1 18 0 1 0 1
phys
0 -53 -75 58 0 0 1 18 0 1 0 1
0 -51 -75 58 0 0 1 18 0 1 0 1
0 -51 -69 58 0 0 1 18 0 1 0 1
phys
0 -53 -75 58 0 0 1 18 0 1 0 1
0 -51 -69 58 0 0 1 18 0 1 0 1
0 -53 -69 58 0 0 1 18 0 1 0 1
phys
0 16 -198 27 0 0 1 19 0 1 0 1
0 16 -198 15 0 0 1 19 0 1 0 1
0 15 -198 15 0 0 1 19 0 1 0 1
phys
0 16 -198 27 0 0 1 19 0 1 0 1
0 15 -198 15 0 0 1 19 0 1 0 1
0 15 -198 27 0 0 1 19 0 1 0 1
phys
0 16 -225 15 0 0 1 19 0 1 0 1
0 16 -225 27 0 0 1 19 0 1 0 1
0 15 -225 27 0 0 1 19 0 1 0 1
phys
0 16 -225 15 0 0 1 19 0 1 0 1
0 15 -225 27 0 0 1 19 0 1 0 1
0 15 -225 15 0 0 1 19 0 1 0 1
phys
0 15 -225 15 0 0 1 19 0 1 0 1
0 15 -225 27 0 0 1 19 0 1 0 1
0 15 -198 27 0 0 1 19 0 1 0 1
phys
0 15 -225 15 0 0 1 19 0 1 0 1
0 15 -198 27 0 0 1 19 0 1 0 1
0 15 -198 15 0 0 1 19 0 1 0 1
phys
0 16 -225 27 0 0 1 19 0 1 0 1
0 16 -225 15 0 0 1 19 0 1 0 1
0 16 -198 15 0 0 1 19 0 1 0 1
phys
0 16 -225 27 0 0 1 19 0 1 0 1
0 16 -198 15 0 0 1 19 0 1 0 1
0 16 -198 27 0 0 1 19 0 1 0 1
phys
0 16 -225 15 0 0 1 19 0 1 0 1
0 15 -225 15 0 0 1 19 0 1 0 1
0 15 -198 15 0 0 1 19 0 1 0 1
phys
0 16 -225 15 0 0 1 19 0 1 0 1
0 15 -198 15 0 0 1 19 0 1 0 1
0 16 -198 15 0 0 1 19 0 1 0 1
phys
0 15 -225 27 0 0 1 19 0 1 0 1
0 16 -225 27 0 0 1 19 0 1 0 1
0 16 -198 27 0 0 1 19 0 1 0 1
phys
0 15 -225 27 0 0 1 19 0 1 0 1
0 16 -198 27 0 0 1 19 0 1 0 1
0 15 -198 27 0 0 1 19 0 1 0 1
phys
0 -193 -69 58 0 0 1 20 0 1 0 1
0 -193 -69 38 0 0 1 20 0 1 0 1
0 -197 -69 38 0 0 1 20 0 1 0 1
phys
0 -193 -69 58 0 0 1 20 0 1 0 1
0 -197 -69 38 0 0 1 20 0 1 0 1
0 -197 -69 58 0 0 1 20 0 1 0 1
phys
0 -193 -75 38 0 0 1 20 0 1 0 1
0 -193 -75 58 0 0 1 20 0 1 0 1
0 -197 -75 58 0 0 1 20 0 1 0 1
phys
0 -193 -75 38 0 0 1 20 0 1 0 1
0 -197 -75 58 0 0 1 20 0 1 0 1
0 -197 -75 38 0 0 1 20 0 1 0 1
phys
0 -197 -75 38 0 0 1 20 0 1 0 1
0 -197 -75 58 0 0 1 20 0 1 0 1
0 -197 -69 58 0 0 1 20 0 1 0 1
phys
0 -197 -75 38 0 0 1 20 0 1 0 1
0 -197 -69 58 0 0 1 20 0 1 0 1
0 -197 -69 38 0 0 1 20 0 1 0 1
phys
0 -193 -75 58 0 0 1 20 0 1 0 1
0 -193 -75 38 0 0 1 20 0 1 0 1
0 -193 -69 38 0 0 1 20 0 1 0 1
phys
0 -193 -75 58 0 0 1 20 0 1 0 1
0 -193 -69 38 0 0 1 20 0 1 0 1
0 -193 -69 58 0 0 1 20 0 1 0 1
phys
0 -193 -75 38 0 0 1 20 0 1 0 1
0 -197 -75 38 0 0 1 20 0 1 0 1
0 -197 -69 38 0 0 1 20 0 1 0 1
phys
0 -193 -75 38 0 0 1 20 0 1 0 1
0 -197 -69 38 0 0 1 20 0 1 0 1
0 -193 -69 38 0 0 1 20 0 1 0 1
phys
0 -197 -75 58 0 0 1 20 0 1 0 1
0 -193 -75 58 0 0 1 20 0 1 0 1
0 -193 -69 58 0 0 1 20 0 1 0 1
phys
0 -197 -75 58 0 0 1 20 0 1 0 1
0 -193 -69 58 0 0 1 20 0 1 0 1
0 -197 -69 58 0 0 1 20 0 1 0 1
phys
0 -299 -69 38 0 0 1 21 0 1 0 1
0 -299 -69 36 0 0 1 21 0 1 0 1
0 -491 -69 36 0 0 1 21 0 1 0 1
phys
0 -299 -69 38 0 0 1 21 0 1 0 1
0 -491 -69 36 0 0 1 21 0 1 0 1
0 -491 -69 38 0 0 1 21 0 1 0 1
phys
0 -299 -75 36 0 0 1 21 0 1 0 1
0 -299 -75 38 0 0 1 21 0 1 0 1
0 -491 -75 38 0 0 1 21 0 1 0 1
phys
0 -299 -75 36 0 0 1 21 0 1 0 1
0 -491 -75 38 0 0 1 21 0 1 0 1
0 -491 -75 36 0 0 1 21 0 1 0 1
phys
0 -491 -75 36 0 0 1 21 0 1 0 1
0 -491 -75 38 0 0 1 21 0 1 0 1
0 -491 -69 38 0 0 1 21 0 1 0 1
phys
0 -491 -75 36 0 0 1 21 0 1 0 1
0 -491 -69 38 0 0 1 21 0 1 0 1
0 -491 -69 36 0 0 1 21 0 1 0 1
phys
0 -299 -75 38 0 0 1 21 0 1 0 1
0 -299 -75 36 0 0 1 21 0 1 0 1
0 -299 -69 36 0 0 1 21 0 1 0 1
phys
0 -299 -75 38 0 0 1 21 0 1 0 1
0 -299 -69 36 0 0 1 21 0 1 0 1
0 -299 -69 38 0 0 1 21 0 1 0 1
phys
0 -299 -75 36 0 0 1 21 0 1 0 1
0 -491 -75 36 0 0 1 21 0 1 0 1
0 -491 -69 36 0 0 1 21 0 1 0 1
phys
0 -299 -75 36 0 0 1 21 0 1 0 1
0 -491 -69 36 0 0 1 21 0 1 0 1
0 -299 -69 36 0 0 1 21 0 1 0 1
phys
0 -491 -75 38 0 0 1 21 0 1 0 1
0 -299 -75 38 0 0 1 21 0 1 0 1
0 -299 -69 38 0 0 1 21 0 1 0 1
phys
0 -491 -75 38 0 0 1 21 0 1 0 1
0 -299 -69 38 0 0 1 21 0 1 0 1
0 -491 -69 38 0 0 1 21 0 1 0 1
phys
0 -51 -75 34 0 0 1 22 0 1 0 1
0 -51 -75 36 0 0 1 22 0 1 0 1
0 -99 -75 36 0 0 1 22 0 1 0 1
phys
0 -51 -75 34 0 0 1 22 0 1 0 1
0 -99 -75 36 0 0 1 22 0 1 0 1
0 -99 -75 34 0 0 1 22 0 1 0 1
phys
0 -99 -75 34 0 0 1 22 0 1 0 1
0 -99 -75 36 0 0 1 22 0 1 0 1
0 -99 -69 36 0 0 1 22 0 1 0 1
phys
0 -99 -75 34 0 0 1 22 0 1 0 1
0 -99 -69 36 0 0 1 22 0 1 0 1
0 -99 -69 34 0 0 1 22 0 1 0 1
phys
0 -51 -75 36 0 0 1 22 0 1 0 1
0 -51 -75 34 0 0 1 22 0 1 0 1
0 -51 -69 34 0 0 1 22 0 1 0 1
phys
0 -51 -75 36 0 0 1 22 0 1 0 1
0 -51 -69 34 0 0 1 22 0 1 0 1
0 -51 -69 36 0 0 1 22 0 1 0 1
phys
0 -51 -75 34 0 0 1 22 0 1 0 1
0 -99 -75 34 0 0 1 22 0 1 0 1
0 -99 -69 34 0 0 1 22 0 1 0 1
phys
0 -51 -75 34 0 0 1 22 0 1 0 1
0 -99 -69 34 0 0 1 22 0 1 0 1
0 -51 -69 34 0 0 1 22 0 1 0 1
phys
0 -99 -75 36 0 0 1 22 0 1 0 1
0 -51 -75 36 0 0 1 22 0 1 0 1
0 -51 -69 36 0 0 1 22 0 1 0 1
phys
0 -99 -75 36 0 0 1 22 0 1 0 1
0 -51 -69 36 0 0 1 22 0 1 0 1
0 -99 -69 36 0 0 1 22 0 1 0 1
phys
0 -51 -69 36 0 0 1 22 0 1 0 1
0 -51 -69 34 0 0 1 22 0 1 0 1
0 -99 -69 34 0 0 1 22 0 1 0 1
phys
0 -51 -69 36 0 0 1 22 0 1 0 1
0 -99 -69 34 0 0 1 22 0 1 0 1
0 -99 -69 36 0 0 1 22 0 1 0 1
phys
0 -345 -75 38 0 0 1 23 0 1 0 1
0 -345 -69 38 0 0 1 23 0 1 0 1
0 -345 -69 58 0 0 1 23 0 1 0 1
phys
0 -345 -75 38 0 0 1 23 0 1 0 1
0 -345 -69 58 0 0 1 23 0 1 0 1
0 -345 -75 58 0 0 1 23 0 1 0 1
phys
0 -349 -69 38 0 0 1 23 0 1 0 1
0 -345 -69 38 0 0 1 23 0 1 0 1
0 -345 -75 38 0 0 1 23 0 1 0 1
phys
0 -349 -69 38 0 0 1 23 0 1 0 1
0 -345 -75 38 0 0 1 23 0 1 0 1
0 -349 -75 38 0 0 1 23 0 1 0 1
phys
0 -349 -75 58 0 0 1 23 0 1 0 1
0 -345 -75 58 0 0 1 23 0 1 0 1
0 -345 -69 58 0 0 1 23 0 1 0 1
phys
0 -349 -75 58 0 0 1 23 0 1 0 1
0 -345 -69 58 0 0 1 23 0 1 0 1
0 -349 -69 58 0 0 1 23 0 1 0 1
phys
0 -345 -69 58 0 0 1 23 0 1 0 1
0 -345 -69 38 0 0 1 23 0 1 0 1
0 -349 -69 38 0 0 1 23 0 1 0 1
phys
0 -345 -69 58 0 0 1 23 0 1 0 1
0 -349 -69 38 0 0 1 23 0 1 0 1
0 -349 -69 58 0 0 1 23 0 1 0 1
phys
0 -345 -75 38 0 0 1 23 0 1 0 1
0 -345 -75 58 0 0 1 23 0 1 0 1
0 -349 -75 58 0 0 1 23 0 1 0 1
phys
0 -345 -75 38 0 0 1 23 0 1 0 1
0 -349 -75 58 0 0 1 23 0 1 0 1
0 -349 -75 38 0 0 1 23 0 1 0 1
phys
0 -349 -75 58 0 0 1 23 0 1 0 1
0 -349 -69 58 0 0 1 23 0 1 0 1
0 -349 -69 38 0 0 1 23 0 1 0 1
phys
0 -349 -75 58 0 0 1 23 0 1 0 1
0 -349 -69 38 0 0 1 23 0 1 0 1
0 -349 -75 38 0 0 1 23 0 1 0 1
phys
0 -5 -67 38 0 0 1 24 0 1 0 1
0 -5 -67 -60 0 0 1 24 0 1 0 1
0 -7 -67 -60 0 0 1 24 0 1 0 1
phys
0 -5 -67 38 0 0 1 24 0 1 0 1
0 -7 -67 -60 0 0 1 24 0 1 0 1
0 -7 -67 38 0 0 1 24 0 1 0 1
phys
0 -5 -77 -60 0 0 1 24 0 1 0 1
0 -5 -77 38 0 0 1 24 0 1 0 1
0 -7 -77 38 0 0 1 24 0 1 0 1
phys
0 -5 -77 -60 0 0 1 24 0 1 0 1
0 -7 -77 38 0 0 1 24 0 1 0 1
0 -7 -77 -60 0 0 1 24 0 1 0 1
phys
0 -7 -77 -60 0 0 1 24 0 1 0 1
0 -7 -77 38 0 0 1 24 0 1 0 1
0 -7 -67 38 0 0 1 24 0 1 0 1
phys
0 -7 -77 -60 0 0 1 24 0 1 0 1
0 -7 -67 38 0 0 1 24 0 1 0 1
0 -7 -67 -60 0 0 1 24 0 1 0 1
phys
0 -5 -77 38 0 0 1 24 0 1 0 1
0 -5 -77 -60 0 0 1 24 0 1 0 1
0 -5 -67 -60 0 0 1 24 0 1 0 1
phys
0 -5 -77 38 0 0 1 24 0 1 0 1
0 -5 -67 -60 0 0 1 24 0 1 0 1
0 -5 -67 38 0 0 1 24 0 1 0 1
phys
0 -5 -77 -60 0 0 1 24 0 1 0 1
0 -7 -77 -60 0 0 1 24 0 1 0 1
0 -7 -67 -60 0 0 1 24 0 1 0 1
phys
0 -5 -77 -60 0 0 1 24 0 1 0 1
0 -7 -67 -60 0 0 1 24 0 1 0 1
0 -5 -67 -60 0 0 1 24 0 1 0 1
phys
0 -7 -77 38 0 0 1 24 0 1 0 1
0 -5 -77 38 0 0 1 24 0 1 0 1
0 -5 -67 38 0 0 1 24 0 1 0 1
phys
0 -7 -77 38 0 0 1 24 0 1 0 1
0 -5 -67 38 0 0 1 24 0 1 0 1
0 -7 -67 38 0 0 1 24 0 1 0 1
phys
0 -147 -75 58 0 0 1 25 0 1 0 1
0 -147 -69 58 0 0 1 25 0 1 0 1
0 -147 -69 60 0 0 1 25 0 1 0 1
phys
0 -147 -75 58 0 0 1 25 0 1 0 1
0 -147 -69 60 0 0 1 25 0 1 0 1
0 -147 -75 60 0 0 1 25 0 1 0 1
phys
0 -195 -69 58 0 0 1 25 0 1 0 1
0 -147 -69 58 0 0 1 25 0 1 0 1
0 -147 -75 58 0 0 1 25 0 1 0 1
phys
0 -195 -69 58 0 0 1 25 0 1 0 1
0 -147 -75 58 0 0 1 25 0 1 0 1
0 -195 -75 58 0 0 1 25 0 1 0 1
phys
0 -195 -75 60 0 0 1 25 0 1 0 1
0 -147 -75 60 0 0 1 25 0 1 0 1
0 -147 -69 60 0 0 1 25 0 1 0 1
phys
0 -195 -75 60 0 0 1 25 0 1 0 1
0 -147 -69 60 0 0 1 25 0 1 0 1
0 -195 -69 60 0 0 1 25 0 1 0 1
phys
0 -147 -69 60 0 0 1 25 0 1 0 1
0 -147 -69 58 0 0 1 25 0 1 0 1
0 -195 -69 58 0 0 1 25 0 1 0 1
phys
0 -147 -69 60 0 0 1 25 0 1 0 1
0 -195 -69 58 0 0 1 25 0 1 0 1
0 -195 -69 60 0 0 1 25 0 1 0 1
phys
0 -147 -75 58 0 0 1 25 0 1 0 1
0 -147 -75 60 0 0 1 25 0 1 0 1
0 -195 -75 60 0 0 1 25 0 1 0 1
phys
0 -147 -75 58 0 0 1 25 0 1 0 1
0 -195 -75 60 0 0 1 25 0 1 0 1
0 -195 -75 58 0 0 1 25 0 1 0 1
phys
0 -195 -75 60 0 0 1 25 0 1 0 1
0 -195 -69 60 0 0 1 25 0 1 0 1
0 -195 -69 58 0 0 1 25 0 1 0 1
phys
0 -195 -75 60 0 0 1 25 0 1 0 1
0 -195 -69 58 0 0 1 25 0 1 0 1
0 -195 -75 58 0 0 1 25 0 1 0 1
phys
0 -145 -69 58 0 0 1 26 0 1 0 1
0 -145 -69 38 0 0 1 26 0 1 0 1
0 -148 -69 38 0 0 1 26 0 1 0 1
phys
0 -145 -69 58 0 0 1 26 0 1 0 1
0 -148 -69 38 0 0 1 26 0 1 0 1
0 -148 -69 58 0 0 1 26 0 1 0 1
phys
0 -145 -75 38 0 0 1 26 0 1 0 1
0 -145 -75 58 0 0 1 26 0 1 0 1
0 -148 -75 58 0 0 1 26 0 1 0 1
phys
0 -145 -75 38 0 0 1 26 0 1 0 1
0 -148 -75 58 0 0 1 26 0 1 0 1
0 -148 -75 38 0 0 1 26 0 1 0 1
phys
0 -148 -75 38 0 0 1 26 0 1 0 1
0 -148 -75 58 0 0 1 26 0 1 0 1
0 -148 -69 58 0 0 1 26 0 1 0 1
phys
0 -148 -75 38 0 0 1 26 0 1 0 1
0 -148 -69 58 0 0 1 26 0 1 0 1
0 -148 -69 38 0 0 1 26 0 1 0 1
phys
0 -145 -75 58 0 0 1 26 0 1 0 1
0 -145 -75 38 0 0 1 26 0 1 0 1
0 -145 -69 38 0 0 1 26 0 1 0 1
phys
0 -145 -75 58 0 0 1 26 0 1 0 1
0 -145 -69 38 0 0 1 26 0 1 0 1
0 -145 -69 58 0 0 1 26 0 1 0 1
phys
0 -145 -75 38 0 0 1 26 0 1 0 1
0 -148 -75 38 0 0 1 26 0 1 0 1
0 -148 -69 38 0 0 1 26 0 1 0 1
phys
0 -145 -75 38 0 0 1 26 0 1 0 1
0 -148 -69 38 0 0 1 26 0 1 0 1
0 -145 -69 38 0 0 1 26 0 1 0 1
phys
0 -148 -75 58 0 0 1 26 0 1 0 1
0 -145 -75 58 0 0 1 26 0 1 0 1
0 -145 -69 58 0 0 1 26 0 1 0 1
phys
0 -148 -75 58 0 0 1 26 0 1 0 1
0 -145 -69 58 0 0 1 26 0 1 0 1
0 -148 -69 58 0 0 1 26 0 1 0 1
phys
0 -53 -71 34 0 0 1 27 0 1 0 1
0 -53 -71 -10 0 0 1 27 0 1 0 1
0 -97 -71 -10 0 0 1 27 0 1 0 1
phys
0 -53 -71 34 0 0 1 27 0 1 0 1
0 -97 -71 -10 0 0 1 27 0 1 0 1
0 -97 -71 34 0 0 1 27 0 1 0 1
phys
0 -53 -73 -10 0 0 1 27 0 1 0 1
0 -53 -73 34 0 0 1 27 0 1 0 1
0 -97 -73 34 0 0 1 27 0 1 0 1
phys
0 -53 -73 -10 0 0 1 27 0 1 0 1
0 -97 -73 34 0 0 1 27 0 1 0 1
0 -97 -73 -10 0 0 1 27 0 1 0 1
phys
0 -97 -73 -10 0 0 1 27 0 1 0 1
0 -97 -73 34 0 0 1 27 0 1 0 1
0 -97 -71 34 0 0 1 27 0 1 0 1
phys
0 -97 -73 -10 0 0 1 27 0 1 0 1
0 -97 -71 34 0 0 1 27 0 1 0 1
0 -97 -71 -10 0 0 1 27 0 1 0 1
phys
0 -53 -73 34 0 0 1 27 0 1 0 1
0 -53 -73 -10 0 0 1 27 0 1 0 1
0 -53 -71 -10 0 0 1 27 0 1 0 1
phys
0 -53 -73 34 0 0 1 27 0 1 0 1
0 -53 -71 -10 0 0 1 27 0 1 0 1
0 -53 -71 34 0 0 1 27 0 1 0 1
phys
0 -53 -73 -10 0 0 1 27 0 1 0 1
0 -97 -73 -10 0 0 1 27 0 1 0 1
0 -97 -71 -10 0 0 1 27 0 1 0 1
phys
0 -53 -73 -10 0 0 1 27 0 1 0 1
0 -97 -71 -10 0 0 1 27 0 1 0 1
0 -53 -71 -10 0 0 1 27 0 1 0 1
phys
0 -97 -73 34 0 0 1 27 0 1 0 1
0 -53 -73 34 0 0 1 27 0 1 0 1
0 -53 -71 34 0 0 1 27 0 1 0 1
phys
0 -97 -73 34 0 0 1 27 0 1 0 1
0 -53 -71 34 0 0 1 27 0 1 0 1
0 -97 -71 34 0 0 1 27 0 1 0 1
phys
0 -53 -71 58 0 0 1 28 0 1 0 1
0 -53 -71 38 0 0 1 28 0 1 0 1
0 -241 -71 38 0 0 1 28 0 1 0 1
phys
0 -53 -71 58 0 0 1 28 0 1 0 1
0 -241 -71 38 0 0 1 28 0 1 0 1
0 -241 -71 58 0 0 1 28 0 1 0 1
phys
0 -53 -73 38 0 0 1 28 0 1 0 1
0 -53 -73 58 0 0 1 28 0 1 0 1
0 -241 -73 58 0 0 1 28 0 1 0 1
phys
0 -53 -73 38 0 0 1 28 0 1 0 1
0 -241 -73 58 0 0 1 28 0 1 0 1
0 -241 -73 38 0 0 1 28 0 1 0 1
phys
0 -241 -73 38 0 0 1 28 0 1 0 1
0 -241 -73 58 0 0 1 28 0 1 0 1
0 -241 -71 58 0 0 1 28 0 1 0 1
phys
0 -241 -73 38 0 0 1 28 0 1 0 1
0 -241 -71 58 0 0 1 28 0 1 0 1
0 -241 -71 38 0 0 1 28 0 1 0 1
phys
0 -53 -73 58 0 0 1 28 0 1 0 1
0 -53 -73 38 0 0 1 28 0 1 0 1
0 -53 -71 38 0 0 1 28 0 1 0 1
phys
0 -53 -73 58 0 0 1 28 0 1 0 1
0 -53 -71 38 0 0 1 28 0 1 0 1
0 -53 -71 58 0 0 1 28 0 1 0 1
phys
0 -53 -73 38 0 0 1 28 0 1 0 1
0 -241 -73 38 0 0 1 28 0 1 0 1
0 -241 -71 38 0 0 1 28 0 1 0 1
phys
0 -53 -73 38 0 0 1 28 0 1 0 1
0 -241 -71 38 0 0 1 28 0 1 0 1
0 -53 -71 38 0 0 1 28 0 1 0 1
phys
0 -241 -73 58 0 0 1 28 0 1 0 1
0 -53 -73 58 0 0 1 28 0 1 0 1
0 -53 -71 58 0 0 1 28 0 1 0 1
phys
0 -241 -73 58 0 0 1 28 0 1 0 1
0 -53 -71 58 0 0 1 28 0 1 0 1
0 -241 -71 58 0 0 1 28 0 1 0 1
phys
0 -299 -69 -10 0 0 1 29 0 1 0 1
0 -299 -69 -12 0 0 1 29 0 1 0 1
0 -347 -69 -12 0 0 1 29 0 1 0 1
phys
0 -299 -69 -10 0 0 1 29 0 1 0 1
0 -347 -69 -12 0 0 1 29 0 1 0 1
0 -347 -69 -10 0 0 1 29 0 1 0 1
phys
0 -299 -75 -12 0 0 1 29 0 1 0 1
0 -299 -75 -10 0 0 1 29 0 1 0 1
0 -347 -75 -10 0 0 1 29 0 1 0 1
phys
0 -299 -75 -12 0 0 1 29 0 1 0 1
0 -347 -75 -10 0 0 1 29 0 1 0 1
0 -347 -75 -12 0 0 1 29 0 1 0 1
phys
0 -347 -75 -12 0 0 1 29 0 1 0 1
0 -347 -75 -10 0 0 1 29 0 1 0 1
0 -347 -69 -10 0 0 1 29 0 1 0 1
phys
0 -347 -75 -12 0 0 1 29 0 1 0 1
0 -347 -69 -10 0 0 1 29 0 1 0 1
0 -347 -69 -12 0 0 1 29 0 1 0 1
phys
0 -299 -75 -10 0 0 1 29 0 1 0 1
0 -299 -75 -12 0 0 1 29 0 1 0 1
0 -299 -69 -12 0 0 1 29 0 1 0 1
phys
0 -299 -75 -10 0 0 1 29 0 1 0 1
0 -299 -69 -12 0 0 1 29 0 1 0 1
0 -299 -69 -10 0 0 1 29 0 1 0 1
phys
0 -299 -75 -12 0 0 1 29 0 1 0 1
0 -347 -75 -12 0 0 1 29 0 1 0 1
0 -347 -69 -12 0 0 1 29 0 1 0 1
phys
0 -299 -75 -12 0 0 1 29 0 1 0 1
0 -347 -69 -12 0 0 1 29 0 1 0 1
0 -299 -69 -12 0 0 1 29 0 1 0 1
phys
0 -347 -75 -10 0 0 1 29 0 1 0 1
0 -299 -75 -10 0 0 1 29 0 1 0 1
0 -299 -69 -10 0 0 1 29 0 1 0 1
phys
0 -347 -75 -10 0 0 1 29 0 1 0 1
0 -299 -69 -10 0 0 1 29 0 1 0 1
0 -347 -69 -10 0 0 1 29 0 1 0 1
phys
0 -253 -67 38 0 0 1 30 0 1 0 1
0 -253 -67 -60 0 0 1 30 0 1 0 1
0 -255 -67 -60 0 0 1 30 0 1 0 1
phys
0 -253 -67 38 0 0 1 30 0 1 0 1
0 -255 -67 -60 0 0 1 30 0 1 0 1
0 -255 -67 38 0 0 1 30 0 1 0 1
phys
0 -253 -77 -60 0 0 1 30 0 1 0 1
0 -253 -77 38 0 0 1 30 0 1 0 1
0 -255 -77 38 0 0 1 30 0 1 0 1
phys
0 -253 -77 -60 0 0 1 30 0 1 0 1
0 -255 -77 38 0 0 1 30 0 1 0 1
0 -255 -77 -60 0 0 1 30 0 1 0 1
phys
0 -255 -77 -60 0 0 1 30 0 1 0 1
0 -255 -77 38 0 0 1 30 0 1 0 1
0 -255 -67 38 0 0 1 30 0 1 0 1
phys
0 -255 -77 -60 0 0 1 30 0 1 0 1
0 -255 -67 38 0 0 1 30 0 1 0 1
0 -255 -67 -60 0 0 1 30 0 1 0 1
phys
0 -253 -77 38 0 0 1 30 0 1 0 1
0 -253 -77 -60 0 0 1 30 0 1 0 1
0 -253 -67 -60 0 0 1 30 0 1 0 1
phys
0 -253 -77 38 0 0 1 30 0 1 0 1
0 -253 -67 -60 0 0 1 30 0 1 0 1
0 -253 -67 38 0 0 1 30 0 1 0 1
phys
0 -253 -77 -60 0 0 1 30 0 1 0 1
0 -255 -77 -60 0 0 1 30 0 1 0 1
0 -255 -67 -60 0 0 1 30 0 1 0 1
phys
0 -253 -77 -60 0 0 1 30 0 1 0 1
0 -255 -67 -60 0 0 1 30 0 1 0 1
0 -253 -67 -60 0 0 1 30 0 1 0 1
phys
0 -255 -77 38 0 0 1 30 0 1 0 1
0 -253 -77 38 0 0 1 30 0 1 0 1
0 -253 -67 38 0 0 1 30 0 1 0 1
phys
0 -255 -77 38 0 0 1 30 0 1 0 1
0 -253 -67 38 0 0 1 30 0 1 0 1
0 -255 -67 38 0 0 1 30 0 1 0 1
phys
0 -347 -75 36 0 0 1 31 0 1 0 1
0 -299 -75 36 0 0 1 31 0 1 0 1
0 -299 -69 36 0 0 1 31 0 1 0 1
phys
0 -347 -75 36 0 0 1 31 0 1 0 1
0 -299 -69 36 0 0 1 31 0 1 0 1
0 -347 -69 36 0 0 1 31 0 1 0 1
phys
0 -347 -69 34 0 0 1 31 0 1 0 1
0 -347 -69 36 0 0 1 31 0 1 0 1
0 -299 -69 36 0 0 1 31 0 1 0 1
phys
0 -347 -69 34 0 0 1 31 0 1 0 1
0 -299 -69 36 0 0 1 31 0 1 0 1
0 -299 -69 34 0 0 1 31 0 1 0 1
phys
0 -299 -75 34 0 0 1 31 0 1 0 1
0 -299 -75 36 0 0 1 31 0 1 0 1
0 -347 -75 36 0 0 1 31 0 1 0 1
phys
0 -299 -75 34 0 0 1 31 0 1 0 1
0 -347 -75 36 0 0 1 31 0 1 0 1
0 -347 -75 34 0 0 1 31 0 1 0 1
phys
0 -347 -75 34 0 0 1 31 0 1 0 1
0 -347 -75 36 0 0 1 31 0 1 0 1
0 -347 -69 36 0 0 1 31 0 1 0 1
phys
0 -347 -75 34 0 0 1 31 0 1 0 1
0 -347 -69 36 0 0 1 31 0 1 0 1
0 -347 -69 34 0 0 1 31 0 1 0 1
phys
0 -299 -69 34 0 0 1 31 0 1 0 1
0 -299 -69 36 0 0 1 31 0 1 0 1
0 -299 -75 36 0 0 1 31 0 1 0 1
phys
0 -299 -69 34 0 0 1 31 0 1 0 1
0 -299 -75 36 0 0 1 31 0 1 0 1
0 -299 -75 34 0 0 1 31 0 1 0 1
phys
0 -299 -75 34 0 0 1 31 0 1 0 1
0 -347 -75 34 0 0 1 31 0 1 0 1
0 -347 -69 34 0 0 1 31 0 1 0 1
phys
0 -299 -75 34 0 0 1 31 0 1 0 1
0 -347 -69 34 0 0 1 31 0 1 0 1
0 -299 -69 34 0 0 1 31 0 1 0 1
phys
0 -195 -69 60 0 0 1 32 0 1 0 1
0 -195 -69 58 0 0 1 32 0 1 0 1
0 -243 -69 58 0 0 1 32 0 1 0 1
phys
0 -195 -69 60 0 0 1 32 0 1 0 1
0 -243 -69 58 0 0 1 32 0 1 0 1
0 -243 -69 60 0 0 1 32 0 1 0 1
phys
0 -195 -75 58 0 0 1 32 0 1 0 1
0 -195 -75 60 0 0 1 32 0 1 0 1
0 -243 -75 60 0 0 1 32 0 1 0 1
phys
0 -195 -75 58 0 0 1 32 0 1 0 1
0 -243 -75 60 0 0 1 32 0 1 0 1
0 -243 -75 58 0 0 1 32 0 1 0 1
phys
0 -243 -75 58 0 0 1 32 0 1 0 1
0 -243 -75 60 0 0 1 32 0 1 0 1
0 -243 -69 60 0 0 1 32 0 1 0 1
phys
0 -243 -75 58 0 0 1 32 0 1 0 1
0 -243 -69 60 0 0 1 32 0 1 0 1
0 -243 -69 58 0 0 1 32 0 1 0 1
phys
0 -195 -75 60 0 0 1 32 0 1 0 1
0 -195 -75 58 0 0 1 32 0 1 0 1
0 -195 -69 58 0 0 1 32 0 1 0 1
phys
0 -195 -75 60 0 0 1 32 0 1 0 1
0 -195 -69 58 0 0 1 32 0 1 0 1
0 -195 -69 60 0 0 1 32 0 1 0 1
phys
0 -195 -75 58 0 0 1 32 0 1 0 1
0 -243 -75 58 0 0 1 32 0 1 0 1
0 -243 -69 58 0 0 1 32 0 1 0 1
phys
0 -195 -75 58 0 0 1 32 0 1 0 1
0 -243 -69 58 0 0 1 32 0 1 0 1
0 -195 -69 58 0 0 1 32 0 1 0 1
phys
0 -243 -75 60 0 0 1 32 0 1 0 1
0 -195 -75 60 0 0 1 32 0 1 0 1
0 -195 -69 60 0 0 1 32 0 1 0 1
phys
0 -243 -75 60 0 0 1 32 0 1 0 1
0 -195 -69 60 0 0 1 32 0 1 0 1
0 -243 -69 60 0 0 1 32 0 1 0 1
phys
0 -53 -69 14 0 0 1 33 0 1 0 1
0 -53 -69 10 0 0 1 33 0 1 0 1
0 -97 -69 10 0 0 1 33 0 1 0 1
phys
0 -53 -69 14 0 0 1 33 0 1 0 1
0 -97 -69 10 0 0 1 33 0 1 0 1
0 -97 -69 14 0 0 1 33 0 1 0 1
phys
0 -53 -75 10 0 0 1 33 0 1 0 1
0 -53 -75 14 0 0 1 33 0 1 0 1
0 -97 -75 14 0 0 1 33 0 1 0 1
phys
0 -53 -75 10 0 0 1 33 0 1 0 1
0 -97 -75 14 0 0 1 33 0 1 0 1
0 -97 -75 10 0 0 1 33 0 1 0 1
phys
0 -97 -75 10 0 0 1 33 0 1 0 1
0 -97 -75 14 0 0 1 33 0 1 0 1
0 -97 -69 14 0 0 1 33 0 1 0 1
phys
0 -97 -75 10 0 0 1 33 0 1 0 1
0 -97 -69 14 0 0 1 33 0 1 0 1
0 -97 -69 10 0 0 1 33 0 1 0 1
phys
0 -53 -75 14 0 0 1 33 0 1 0 1
0 -53 -75 10 0 0 1 33 0 1 0 1
0 -53 -69 10 0 0 1 33 0 1 0 1
phys
0 -53 -75 14 0 0 1 33 0 1 0 1
0 -53 -69 10 0 0 1 33 0 1 0 1
0 -53 -69 14 0 0 1 33 0 1 0 1
phys
0 -53 -75 10 0 0 1 33 0 1 0 1
0 -97 -75 10 0 0 1 33 0 1 0 1
0 -97 -69 10 0 0 1 33 0 1 0 1
phys
0 -53 -75 10 0 0 1 33 0 1 0 1
0 -97 -69 10 0 0 1 33 0 1 0 1
0 -53 -69 10 0 0 1 33 0 1 0 1
phys
0 -97 -75 14 0 0 1 33 0 1 0 1
0 -53 -75 14 0 0 1 33 0 1 0 1
0 -53 -69 14 0 0 1 33 0 1 0 1
phys
0 -97 -75 14 0 0 1 33 0 1 0 1
0 -53 -69 14 0 0 1 33 0 1 0 1
0 -97 -69 14 0 0 1 33 0 1 0 1
phys
0 -99 -69 60 0 0 1 34 0 1 0 1
0 -99 -69 58 0 0 1 34 0 1 0 1
0 -147 -69 58 0 0 1 34 0 1 0 1
phys
0 -99 -69 60 0 0 1 34 0 1 0 1
0 -147 -69 58 0 0 1 34 0 1 0 1
0 -147 -69 60 0 0 1 34 0 1 0 1
phys
0 -99 -75 58 0 0 1 34 0 1 0 1
0 -99 -75 60 0 0 1 34 0 1 0 1
0 -147 -75 60 0 0 1 34 0 1 0 1
phys
0 -99 -75 58 0 0 1 34 0 1 0 1
0 -147 -75 60 0 0 1 34 0 1 0 1
0 -147 -75 58 0 0 1 34 0 1 0 1
phys
0 -147 -75 58 0 0 1 34 0 1 0 1
0 -147 -75 60 0 0 1 34 0 1 0 1
0 -147 -69 60 0 0 1 34 0 1 0 1
phys
0 -147 -75 58 0 0 1 34 0 1 0 1
0 -147 -69 60 0 0 1 34 0 1 0 1
0 -147 -69 58 0 0 1 34 0 1 0 1
phys
0 -99 -75 60 0 0 1 34 0 1 0 1
0 -99 -75 58 0 0 1 34 0 1 0 1
0 -99 -69 58 0 0 1 34 0 1 0 1
phys
0 -99 -75 60 0 0 1 34 0 1 0 1
0 -99 -69 58 0 0 1 34 0 1 0 1
0 -99 -69 60 0 0 1 34 0 1 0 1
phys
0 -99 -75 58 0 0 1 34 0 1 0 1
0 -147 -75 58 0 0 1 34 0 1 0 1
0 -147 -69 58 0 0 1 34 0 1 0 1
phys
0 -99 -75 58 0 0 1 34 0 1 0 1
0 -147 -69 58 0 0 1 34 0 1 0 1
0 -99 -69 58 0 0 1 34 0 1 0 1
phys
0 -147 -75 60 0 0 1 34 0 1 0 1
0 -99 -75 60 0 0 1 34 0 1 0 1
0 -99 -69 60 0 0 1 34 0 1 0 1
phys
0 -147 -75 60 0 0 1 34 0 1 0 1
0 -99 -69 60 0 0 1 34 0 1 0 1
0 -147 -69 60 0 0 1 34 0 1 0 1
phys
0 -255 -77 36 0 0 1 35 0 1 0 1
0 -255 -67 36 0 0 1 35 0 1 0 1
0 -255 -67 38 0 0 1 35 0 1 0 1
phys
0 -255 -77 36 0 0 1 35 0 1 0 1
0 -255 -67 38 0 0 1 35 0 1 0 1
0 -255 -77 38 0 0 1 35 0 1 0 1
phys
0 -297 -67 36 0 0 1 35 0 1 0 1
0 -255 -67 36 0 0 1 35 0 1 0 1
0 -255 -77 36 0 0 1 35 0 1 0 1
phys
0 -297 -67 36 0 0 1 35 0 1 0 1
0 -255 -77 36 0 0 1 35 0 1 0 1
0 -297 -77 36 0 0 1 35 0 1 0 1
phys
0 -297 -77 38 0 0 1 35 0 1 0 1
0 -255 -77 38 0 0 1 35 0 1 0 1
0 -255 -67 38 0 0 1 35 0 1 0 1
phys
0 -297 -77 38 0 0 1 35 0 1 0 1
0 -255 -67 38 0 0 1 35 0 1 0 1
0 -297 -67 38 0 0 1 35 0 1 0 1
phys
0 -255 -67 38 0 0 1 35 0 1 0 1
0 -255 -67 36 0 0 1 35 0 1 0 1
0 -297 -67 36 0 0 1 35 0 1 0 1
phys
0 -255 -67 38 0 0 1 35 0 1 0 1
0 -297 -67 36 0 0 1 35 0 1 0 1
0 -297 -67 38 0 0 1 35 0 1 0 1
phys
0 -255 -77 36 0 0 1 35 0 1 0 1
0 -255 -77 38 0 0 1 35 0 1 0 1
0 -297 -77 38 0 0 1 35 0 1 0 1
phys
0 -255 -77 36 0 0 1 35 0 1 0 1
0 -297 -77 38 0 0 1 35 0 1 0 1
0 -297 -77 36 0 0 1 35 0 1 0 1
phys
0 -297 -77 38 0 0 1 35 0 1 0 1
0 -297 -67 38 0 0 1 35 0 1 0 1
0 -297 -67 36 0 0 1 35 0 1 0 1
phys
0 -297 -77 38 0 0 1 35 0 1 0 1
0 -297 -67 36 0 0 1 35 0 1 0 1
0 -297 -77 36 0 0 1 35 0 1 0 1
phys
0 -491 -77 -12 0 0 1 36 0 1 0 1
0 -299 -77 -12 0 0 1 36 0 1 0 1
0 -299 -67 -12 0 0 1 36 0 1 0 1
phys
0 -491 -77 -12 0 0 1 36 0 1 0 1
0 -299 -67 -12 0 0 1 36 0 1 0 1
0 -491 -67 -12 0 0 1 36 0 1 0 1
phys
0 -491 -67 -60 0 0 1 36 0 1 0 1
0 -491 -67 -12 0 0 1 36 0 1 0 1
0 -299 -67 -12 0 0 1 36 0 1 0 1
phys
0 -491 -67 -60 0 0 1 36 0 1 0 1
0 -299 -67 -12 0 0 1 36 0 1 0 1
0 -299 -67 -60 0 0 1 36 0 1 0 1
phys
0 -299 -77 -60 0 0 1 36 0 1 0 1
0 -299 -77 -12 0 0 1 36 0 1 0 1
0 -491 -77 -12 0 0 1 36 0 1 0 1
phys
0 -299 -77 -60 0 0 1 36 0 1 0 1
0 -491 -77 -12 0 0 1 36 0 1 0 1
0 -491 -77 -60 0 0 1 36 0 1 0 1
phys
0 -491 -77 -60 0 0 1 36 0 1 0 1
0 -491 -77 -12 0 0 1 36 0 1 0 1
0 -491 -67 -12 0 0 1 36 0 1 0 1
phys
0 -491 -77 -60 0 0 1 36 0 1 0 1
0 -491 -67 -12 0 0 1 36 0 1 0 1
0 -491 -67 -60 0 0 1 36 0 1 0 1
phys
0 -299 -67 -60 0 0 1 36 0 1 0 1
0 -299 -67 -12 0 0 1 36 0 1 0 1
0 -299 -77 -12 0 0 1 36 0 1 0 1
phys
0 -299 -67 -60 0 0 1 36 0 1 0 1
0 -299 -77 -12 0 0 1 36 0 1 0 1
0 -299 -77 -60 0 0 1 36 0 1 0 1
phys
0 -299 -77 -60 0 0 1 36 0 1 0 1
0 -491 -77 -60 0 0 1 36 0 1 0 1
0 -491 -67 -60 0 0 1 36 0 1 0 1
phys
0 -299 -77 -60 0 0 1 36 0 1 0 1
0 -491 -67 -60 0 0 1 36 0 1 0 1
0 -299 -67 -60 0 0 1 36 0 1 0 1
phys
0 -345 -75 -10 0 0 1 37 0 1 0 1
0 -345 -75 34 0 0 1 37 0 1 0 1
0 -347 -75 34 0 0 1 37 0 1 0 1
phys
0 -345 -75 -10 0 0 1 37 0 1 0 1
0 -347 -75 34 0 0 1 37 0 1 0 1
0 -347 -75 -10 0 0 1 37 0 1 0 1
phys
0 -347 -75 -10 0 0 1 37 0 1 0 1
0 -347 -75 34 0 0 1 37 0 1 0 1
0 -347 -69 34 0 0 1 37 0 1 0 1
phys
0 -347 -75 -10 0 0 1 37 0 1 0 1
0 -347 -69 34 0 0 1 37 0 1 0 1
0 -347 -69 -10 0 0 1 37 0 1 0 1
phys
0 -345 -75 34 0 0 1 37 0 1 0 1
0 -345 -75 -10 0 0 1 37 0 1 0 1
0 -345 -69 -10 0 0 1 37 0 1 0 1
phys
0 -345 -75 34 0 0 1 37 0 1 0 1
0 -345 -69 -10 0 0 1 37 0 1 0 1
0 -345 -69 34 0 0 1 37 0 1 0 1
phys
0 -345 -75 -10 0 0 1 37 0 1 0 1
0 -347 -75 -10 0 0 1 37 0 1 0 1
0 -347 -69 -10 0 0 1 37 0 1 0 1
phys
0 -345 -75 -10 0 0 1 37 0 1 0 1
0 -347 -69 -10 0 0 1 37 0 1 0 1
0 -345 -69 -10 0 0 1 37 0 1 0 1
phys
0 -347 -75 34 0 0 1 37 0 1 0 1
0 -345 -75 34 0 0 1 37 0 1 0 1
0 -345 -69 34 0 0 1 37 0 1 0 1
phys
0 -347 -75 34 0 0 1 37 0 1 0 1
0 -345 -69 34 0 0 1 37 0 1 0 1
0 -347 -69 34 0 0 1 37 0 1 0 1
phys
0 -345 -69 34 0 0 1 37 0 1 0 1
0 -345 -69 -10 0 0 1 37 0 1 0 1
0 -347 -69 -10 0 0 1 37 0 1 0 1
phys
0 -345 -69 34 0 0 1 37 0 1 0 1
0 -347 -69 -10 0 0 1 37 0 1 0 1
0 -347 -69 34 0 0 1 37 0 1 0 1
phys
0 -51 -69 -10 0 0 1 38 0 1 0 1
0 -51 -69 -12 0 0 1 38 0 1 0 1
0 -99 -69 -12 0 0 1 38 0 1 0 1
phys
0 -51 -69 -10 0 0 1 38 0 1 0 1
0 -99 -69 -12 0 0 1 38 0 1 0 1
0 -99 -69 -10 0 0 1 38 0 1 0 1
phys
0 -51 -75 -12 0 0 1 38 0 1 0 1
0 -51 -75 -10 0 0 1 38 0 1 0 1
0 -99 -75 -10 0 0 1 38 0 1 0 1
phys
0 -51 -75 -12 0 0 1 38 0 1 0 1
0 -99 -75 -10 0 0 1 38 0 1 0 1
0 -99 -75 -12 0 0 1 38 0 1 0 1
phys
0 -99 -75 -12 0 0 1 38 0 1 0 1
0 -99 -75 -10 0 0 1 38 0 1 0 1
0 -99 -69 -10 0 0 1 38 0 1 0 1
phys
0 -99 -75 -12 0 0 1 38 0 1 0 1
0 -99 -69 -10 0 0 1 38 0 1 0 1
0 -99 -69 -12 0 0 1 38 0 1 0 1
phys
0 -51 -75 -10 0 0 1 38 0 1 0 1
0 -51 -75 -12 0 0 1 38 0 1 0 1
0 -51 -69 -12 0 0 1 38 0 1 0 1
phys
0 -51 -75 -10 0 0 1 38 0 1 0 1
0 -51 -69 -12 0 0 1 38 0 1 0 1
0 -51 -69 -10 0 0 1 38 0 1 0 1
phys
0 -51 -75 -12 0 0 1 38 0 1 0 1
0 -99 -75 -12 0 0 1 38 0 1 0 1
0 -99 -69 -12 0 0 1 38 0 1 0 1
phys
0 -51 -75 -12 0 0 1 38 0 1 0 1
0 -99 -69 -12 0 0 1 38 0 1 0 1
0 -51 -69 -12 0 0 1 38 0 1 0 1
phys
0 -99 -75 -10 0 0 1 38 0 1 0 1
0 -51 -75 -10 0 0 1 38 0 1 0 1
0 -51 -69 -10 0 0 1 38 0 1 0 1
phys
0 -99 -75 -10 0 0 1 38 0 1 0 1
0 -51 -69 -10 0 0 1 38 0 1 0 1
0 -99 -69 -10 0 0 1 38 0 1 0 1
phys
0 -243 77 60 0 0 1 39 0 1 0 1
0 -243 77 -60 0 0 1 39 0 1 0 1
0 -253 77 -60 0 0 1 39 0 1 0 1
phys
0 -243 77 60 0 0 1 39 0 1 0 1
0 -253 77 -60 0 0 1 39 0 1 0 1
0 -253 77 60 0 0 1 39 0 1 0 1
phys
0 -243 -77 -60 0 0 1 39 0 1 0 1
0 -243 -77 60 0 0 1 39 0 1 0 1
0 -253 -77 60 0 0 1 39 0 1 0 1
phys
0 -243 -77 -60 0 0 1 39 0 1 0 1
0 -253 -77 60 0 0 1 39 0 1 0 1
0 -253 -77 -60 0 0 1 39 0 1 0 1
phys
0 -253 -77 -60 0 0 1 39 0 1 0 1
0 -253 -77 60 0 0 1 39 0 1 0 1
0 -253 77 60 0 0 1 39 0 1 0 1
phys
0 -253 -77 -60 0 0 1 39 0 1 0 1
0 -253 77 60 0 0 1 39 0 1 0 1
0 -253 77 -60 0 0 1 39 0 1 0 1
phys
0 -243 -77 60 0 0 1 39 0 1 0 1
0 -243 -77 -60 0 0 1 39 0 1 0 1
0 -243 77 -60 0 0 1 39 0 1 0 1
phys
0 -243 -77 60 0 0 1 39 0 1 0 1
0 -243 77 -60 0 0 1 39 0 1 0 1
0 -243 77 60 0 0 1 39 0 1 0 1
phys
0 -243 -77 -60 0 0 1 39 0 1 0 1
0 -253 -77 -60 0 0 1 39 0 1 0 1
0 -253 77 -60 0 0 1 39 0 1 0 1
phys
0 -243 -77 -60 0 0 1 39 0 1 0 1
0 -253 77 -60 0 0 1 39 0 1 0 1
0 -243 77 -60 0 0 1 39 0 1 0 1
phys
0 -253 -77 60 0 0 1 39 0 1 0 1
0 -243 -77 60 0 0 1 39 0 1 0 1
0 -243 77 60 0 0 1 39 0 1 0 1
phys
0 -253 -77 60 0 0 1 39 0 1 0 1
0 -243 77 60 0 0 1 39 0 1 0 1
0 -253 77 60 0 0 1 39 0 1 0 1
phys
0 -301 -71 34 0 0 1 40 0 1 0 1
0 -301 -71 -10 0 0 1 40 0 1 0 1
0 -345 -71 -10 0 0 1 40 0 1 0 1
phys
0 -301 -71 34 0 0 1 40 0 1 0 1
0 -345 -71 -10 0 0 1 40 0 1 0 1
0 -345 -71 34 0 0 1 40 0 1 0 1
phys
0 -301 -73 -10 0 0 1 40 0 1 0 1
0 -301 -73 34 0 0 1 40 0 1 0 1
0 -345 -73 34 0 0 1 40 0 1 0 1
phys
0 -301 -73 -10 0 0 1 40 0 1 0 1
0 -345 -73 34 0 0 1 40 0 1 0 1
0 -345 -73 -10 0 0 1 40 0 1 0 1
phys
0 -345 -73 -10 0 0 1 40 0 1 0 1
0 -345 -73 34 0 0 1 40 0 1 0 1
0 -345 -71 34 0 0 1 40 0 1 0 1
phys
0 -345 -73 -10 0 0 1 40 0 1 0 1
0 -345 -71 34 0 0 1 40 0 1 0 1
0 -345 -71 -10 0 0 1 40 0 1 0 1
phys
0 -301 -73 34 0 0 1 40 0 1 0 1
0 -301 -73 -10 0 0 1 40 0 1 0 1
0 -301 -71 -10 0 0 1 40 0 1 0 1
phys
0 -301 -73 34 0 0 1 40 0 1 0 1
0 -301 -71 -10 0 0 1 40 0 1 0 1
0 -301 -71 34 0 0 1 40 0 1 0 1
phys
0 -301 -73 -10 0 0 1 40 0 1 0 1
0 -345 -73 -10 0 0 1 40 0 1 0 1
0 -345 -71 -10 0 0 1 40 0 1 0 1
phys
0 -301 -73 -10 0 0 1 40 0 1 0 1
0 -345 -71 -10 0 0 1 40 0 1 0 1
0 -301 -71 -10 0 0 1 40 0 1 0 1
phys
0 -345 -73 34 0 0 1 40 0 1 0 1
0 -301 -73 34 0 0 1 40 0 1 0 1
0 -301 -71 34 0 0 1 40 0 1 0 1
phys
0 -345 -73 34 0 0 1 40 0 1 0 1
0 -301 -71 34 0 0 1 40 0 1 0 1
0 -345 -71 34 0 0 1 40 0 1 0 1
phys
0 -49 -77 38 0 0 1 41 0 1 0 1
0 -7 -77 38 0 0 1 41 0 1 0 1
0 -7 -67 38 0 0 1 41 0 1 0 1
phys
0 -49 -77 38 0 0 1 41 0 1 0 1
0 -7 -67 38 0 0 1 41 0 1 0 1
0 -49 -67 38 0 0 1 41 0 1 0 1
phys
0 -49 -67 36 0 0 1 41 0 1 0 1
0 -49 -67 38 0 0 1 41 0 1 0 1
0 -7 -67 38 0 0 1 41 0 1 0 1
phys
0 -49 -67 36 0 0 1 41 0 1 0 1
0 -7 -67 38 0 0 1 41 0 1 0 1
0 -7 -67 36 0 0 1 41 0 1 0 1
phys
0 -7 -77 36 0 0 1 41 0 1 0 1
0 -7 -77 38 0 0 1 41 0 1 0 1
0 -49 -77 38 0 0 1 41 0 1 0 1
phys
0 -7 -77 36 0 0 1 41 0 1 0 1
0 -49 -77 38 0 0 1 41 0 1 0 1
0 -49 -77 36 0 0 1 41 0 1 0 1
phys
0 -49 -77 36 0 0 1 41 0 1 0 1
0 -49 -77 38 0 0 1 41 0 1 0 1
0 -49 -67 38 0 0 1 41 0 1 0 1
phys
0 -49 -77 36 0 0 1 41 0 1 0 1
0 -49 -67 38 0 0 1 41 0 1 0 1
0 -49 -67 36 0 0 1 41 0 1 0 1
phys
0 -7 -67 36 0 0 1 41 0 1 0 1
0 -7 -67 38 0 0 1 41 0 1 0 1
0 -7 -77 38 0 0 1 41 0 1 0 1
phys
0 -7 -67 36 0 0 1 41 0 1 0 1
0 -7 -77 38 0 0 1 41 0 1 0 1
0 -7 -77 36 0 0 1 41 0 1 0 1
phys
0 -7 -77 36 0 0 1 41 0 1 0 1
0 -49 -77 36 0 0 1 41 0 1 0 1
0 -49 -67 36 0 0 1 41 0 1 0 1
phys
0 -7 -77 36 0 0 1 41 0 1 0 1
0 -49 -67 36 0 0 1 41 0 1 0 1
0 -7 -67 36 0 0 1 41 0 1 0 1
phys
0 -301 -69 14 0 0 1 42 0 1 0 1
0 -301 -69 10 0 0 1 42 0 1 0 1
0 -345 -69 10 0 0 1 42 0 1 0 1
phys
0 -301 -69 14 0 0 1 42 0 1 0 1
0 -345 -69 10 0 0 1 42 0 1 0 1
0 -345 -69 14 0 0 1 42 0 1 0 1
phys
0 -301 -75 10 0 0 1 42 0 1 0 1
0 -301 -75 14 0 0 1 42 0 1 0 1
0 -345 -75 14 0 0 1 42 0 1 0 1
phys
0 -301 -75 10 0 0 1 42 0 1 0 1
0 -345 -75 14 0 0 1 42 0 1 0 1
0 -345 -75 10 0 0 1 42 0 1 0 1
phys
0 -345 -75 10 0 0 1 42 0 1 0 1
0 -345 -75 14 0 0 1 42 0 1 0 1
0 -345 -69 14 0 0 1 42 0 1 0 1
phys
0 -345 -75 10 0 0 1 42 0 1 0 1
0 -345 -69 14 0 0 1 42 0 1 0 1
0 -345 -69 10 0 0 1 42 0 1 0 1
phys
0 -301 -75 14 0 0 1 42 0 1 0 1
0 -301 -75 10 0 0 1 42 0 1 0 1
0 -301 -69 10 0 0 1 42 0 1 0 1
phys
0 -301 -75 14 0 0 1 42 0 1 0 1
0 -301 -69 10 0 0 1 42 0 1 0 1
0 -301 -69 14 0 0 1 42 0 1 0 1
phys
0 -301 -75 10 0 0 1 42 0 1 0 1
0 -345 -75 10 0 0 1 42 0 1 0 1
0 -345 -69 10 0 0 1 42 0 1 0 1
phys
0 -301 -75 10 0 0 1 42 0 1 0 1
0 -345 -69 10 0 0 1 42 0 1 0 1
0 -301 -69 10 0 0 1 42 0 1 0 1
phys
0 -345 -75 14 0 0 1 42 0 1 0 1
0 -301 -75 14 0 0 1 42 0 1 0 1
0 -301 -69 14 0 0 1 42 0 1 0 1
phys
0 -345 -75 14 0 0 1 42 0 1 0 1
0 -301 -69 14 0 0 1 42 0 1 0 1
0 -345 -69 14 0 0 1 42 0 1 0 1
phys
0 -301 -73 38 0 0 1 43 0 1 0 1
0 -301 -71 38 0 0 1 43 0 1 0 1
0 -301 -71 58 0 0 1 43 0 1 0 1
phys
0 -301 -73 38 0 0 1 43 0 1 0 1
0 -301 -71 58 0 0 1 43 0 1 0 1
0 -301 -73 58 0 0 1 43 0 1 0 1
phys
0 -489 -71 38 0 0 1 43 0 1 0 1
0 -301 -71 38 0 0 1 43 0 1 0 1
0 -301 -73 38 0 0 1 43 0 1 0 1
phys
0 -489 -71 38 0 0 1 43 0 1 0 1
0 -301 -73 38 0 0 1 43 0 1 0 1
0 -489 -73 38 0 0 1 43 0 1 0 1
phys
0 -489 -73 58 0 0 1 43 0 1 0 1
0 -301 -73 58 0 0 1 43 0 1 0 1
0 -301 -71 58 0 0 1 43 0 1 0 1
phys
0 -489 -73 58 0 0 1 43 0 1 0 1
0 -301 -71 58 0 0 1 43 0 1 0 1
0 -489 -71 58 0 0 1 43 0 1 0 1
phys
0 -301 -71 58 0 0 1 43 0 1 0 1
0 -301 -71 38 0 0 1 43 0 1 0 1
0 -489 -71 38 0 0 1 43 0 1 0 1
phys
0 -301 -71 58 0 0 1 43 0 1 0 1
0 -489 -71 38 0 0 1 43 0 1 0 1
0 -489 -71 58 0 0 1 43 0 1 0 1
phys
0 -301 -73 38 0 0 1 43 0 1 0 1
0 -301 -73 58 0 0 1 43 0 1 0 1
0 -489 -73 58 0 0 1 43 0 1 0 1
phys
0 -301 -73 38 0 0 1 43 0 1 0 1
0 -489 -73 58 0 0 1 43 0 1 0 1
0 -489 -73 38 0 0 1 43 0 1 0 1
phys
0 -489 -73 58 0 0 1 43 0 1 0 1
0 -489 -71 58 0 0 1 43 0 1 0 1
0 -489 -71 38 0 0 1 43 0 1 0 1
phys
0 -489 -73 58 0 0 1 43 0 1 0 1
0 -489 -71 38 0 0 1 43 0 1 0 1
0 -489 -73 38 0 0 1 43 0 1 0 1
phys
0 -99 -67 36 0 0 1 44 0 1 0 1
0 -99 -67 -12 0 0 1 44 0 1 0 1
0 -243 -67 -12 0 0 1 44 0 1 0 1
phys
0 -99 -67 36 0 0 1 44 0 1 0 1
0 -243 -67 -12 0 0 1 44 0 1 0 1
0 -243 -67 36 0 0 1 44 0 1 0 1
phys
0 -99 -77 -12 0 0 1 44 0 1 0 1
0 -99 -77 36 0 0 1 44 0 1 0 1
0 -243 -77 36 0 0 1 44 0 1 0 1
phys
0 -99 -77 -12 0 0 1 44 0 1 0 1
0 -243 -77 36 0 0 1 44 0 1 0 1
0 -243 -77 -12 0 0 1 44 0 1 0 1
phys
0 -243 -77 -12 0 0 1 44 0 1 0 1
0 -243 -77 36 0 0 1 44 0 1 0 1
0 -243 -67 36 0 0 1 44 0 1 0 1
phys
0 -243 -77 -12 0 0 1 44 0 1 0 1
0 -243 -67 36 0 0 1 44 0 1 0 1
0 -243 -67 -12 0 0 1 44 0 1 0 1
phys
0 -99 -77 36 0 0 1 44 0 1 0 1
0 -99 -77 -12 0 0 1 44 0 1 0 1
0 -99 -67 -12 0 0 1 44 0 1 0 1
phys
0 -99 -77 36 0 0 1 44 0 1 0 1
0 -99 -67 -12 0 0 1 44 0 1 0 1
0 -99 -67 36 0 0 1 44 0 1 0 1
phys
0 -99 -77 -12 0 0 1 44 0 1 0 1
0 -243 -77 -12 0 0 1 44 0 1 0 1
0 -243 -67 -12 0 0 1 44 0 1 0 1
phys
0 -99 -77 -12 0 0 1 44 0 1 0 1
0 -243 -67 -12 0 0 1 44 0 1 0 1
0 -99 -67 -12 0 0 1 44 0 1 0 1
phys
0 -243 -77 36 0 0 1 44 0 1 0 1
0 -99 -77 36 0 0 1 44 0 1 0 1
0 -99 -67 36 0 0 1 44 0 1 0 1
phys
0 -243 -77 36 0 0 1 44 0 1 0 1
0 -99 -67 36 0 0 1 44 0 1 0 1
0 -243 -67 36 0 0 1 44 0 1 0 1
end
