version 1
nodes
0 "root" -1
end
skeleton
time 0
0 0 0 0 0 0 0
end
triangles
phys
0 -265 -111 296 0 0 1 1 0 1 0 1
0 -265 -111 181 0 0 1 1 0 1 0 1
0 -275 -111 181 0 0 1 1 0 1 0 1
phys
0 -265 -111 296 0 0 1 1 0 1 0 1
0 -275 -111 181 0 0 1 1 0 1 0 1
0 -275 -111 296 0 0 1 1 0 1 0 1
phys
0 -265 -121 181 0 0 1 1 0 1 0 1
0 -265 -121 296 0 0 1 1 0 1 0 1
0 -275 -121 296 0 0 1 1 0 1 0 1
phys
0 -265 -121 181 0 0 1 1 0 1 0 1
0 -275 -121 296 0 0 1 1 0 1 0 1
0 -275 -121 181 0 0 1 1 0 1 0 1
phys
0 -275 -121 181 0 0 1 1 0 1 0 1
0 -275 -121 296 0 0 1 1 0 1 0 1
0 -275 -111 296 0 0 1 1 0 1 0 1
phys
0 -275 -121 181 0 0 1 1 0 1 0 1
0 -275 -111 296 0 0 1 1 0 1 0 1
0 -275 -111 181 0 0 1 1 0 1 0 1
phys
0 -265 -121 296 0 0 1 1 0 1 0 1
0 -265 -121 181 0 0 1 1 0 1 0 1
0 -265 -111 181 0 0 1 1 0 1 0 1
phys
0 -265 -121 296 0 0 1 1 0 1 0 1
0 -265 -111 181 0 0 1 1 0 1 0 1
0 -265 -111 296 0 0 1 1 0 1 0 1
phys
0 -265 -121 181 0 0 1 1 0 1 0 1
0 -275 -121 181 0 0 1 1 0 1 0 1
0 -275 -111 181 0 0 1 1 0 1 0 1
phys
0 -265 -121 181 0 0 1 1 0 1 0 1
0 -275 -111 181 0 0 1 1 0 1 0 1
0 -265 -111 181 0 0 1 1 0 1 0 1
phys
0 -275 -121 296 0 0 1 1 0 1 0 1
0 -265 -121 296 0 0 1 1 0 1 0 1
0 -265 -111 296 0 0 1 1 0 1 0 1
phys
0 -275 -121 296 0 0 1 1 0 1 0 1
0 -265 -111 296 0 0 1 1 0 1 0 1
0 -275 -111 296 0 0 1 1 0 1 0 1
phys
0 3 -254 181 0 0 1 2 0 1 0 1
0 3 -236.81 193.412 0 0 1 2 0 1 0 1
0 3 -254 193.412 0 0 1 2 0 1 0 1
phys
0 -92 -254 193.412 0 0 1 2 0 1 0 1
0 3 -254 193.412 0 0 1 2 0 1 0 1
0 3 -236.81 193.412 0 0 1 2 0 1 0 1
phys
0 -92 -254 193.412 0 0 1 2 0 1 0 1
0 3 -236.81 193.412 0 0 1 2 0 1 0 1
0 -92 -236.81 193.412 0 0 1 2 0 1 0 1
phys
0 -92 -236.81 193.412 0 0 1 2 0 1 0 1
0 3 -236.81 193.412 0 0 1 2 0 1 0 1
0 3 -254 181 0 0 1 2 0 1 0 1
phys
0 -92 -236.81 193.412 0 0 1 2 0 1 0 1
0 3 -254 181 0 0 1 2 0 1 0 1
0 -92 -254 181 0 0 1 2 0 1 0 1
phys
0 3 -254 181 0 0 1 2 0 1 0 1
0 3 -254 193.412 0 0 1 2 0 1 0 1
0 -92 -254 193.412 0 0 1 2 0 1 0 1
phys
0 3 -254 181 0 0 1 2 0 1 0 1
0 -92 -254 193.412 0 0 1 2 0 1 0 1
0 -92 -254 181 0 0 1 2 0 1 0 1
phys
0 -92 -254 193.412 0 0 1 2 0 1 0 1
0 -92 -236.81 193.412 0 0 1 2 0 1 0 1
0 -92 -254 181 0 0 1 2 0 1 0 1
phys
0 56 11 181 0 0 1 3 0 1 0 1
0 56 23 173 0 0 1 3 0 1 0 1
0 119 23 173 0 0 1 3 0 1 0 1
phys
0 56 11 181 0 0 1 3 0 1 0 1
0 119 23 173 0 0 1 3 0 1 0 1
0 119 11 181 0 0 1 3 0 1 0 1
phys
0 119 23 181 0 0 1 3 0 1 0 1
0 119 23 173 0 0 1 3 0 1 0 1
0 56 23 173 0 0 1 3 0 1 0 1
phys
0 119 23 181 0 0 1 3 0 1 0 1
0 56 23 173 0 0 1 3 0 1 0 1
0 56 23 181 0 0 1 3 0 1 0 1
phys
0 56 23 181 0 0 1 3 0 1 0 1
0 56 23 173 0 0 1 3 0 1 0 1
0 56 11 181 0 0 1 3 0 1 0 1
phys
0 119 11 181 0 0 1 3 0 1 0 1
0 119 23 173 0 0 1 3 0 1 0 1
0 119 23 181 0 0 1 3 0 1 0 1
phys
0 56 11 181 0 0 1 3 0 1 0 1
0 119 11 181 0 0 1 3 0 1 0 1
0 119 23 181 0 0 1 3 0 1 0 1
phys
0 56 11 181 0 0 1 3 0 1 0 1
0 119 23 181 0 0 1 3 0 1 0 1
0 56 23 181 0 0 1 3 0 1 0 1
phys
0 3 -92.18 297.3133 0 0 1 4 0 1 0 1
0 3 -92.18 309 0 0 1 4 0 1 0 1
0 -92 -92.18 309 0 0 1 4 0 1 0 1
phys
0 3 -92.18 297.3133 0 0 1 4 0 1 0 1
0 -92 -92.18 309 0 0 1 4 0 1 0 1
0 -92 -92.18 297.3133 0 0 1 4 0 1 0 1
phys
0 -92 -92.18 297.3133 0 0 1 4 0 1 0 1
0 -92 -92.18 309 0 0 1 4 0 1 0 1
0 -92 -76 309 0 0 1 4 0 1 0 1
phys
0 3 -92.18 309 0 0 1 4 0 1 0 1
0 3 -92.18 297.3133 0 0 1 4 0 1 0 1
0 3 -76 309 0 0 1 4 0 1 0 1
phys
0 -92 -92.18 309 0 0 1 4 0 1 0 1
0 3 -92.18 309 0 0 1 4 0 1 0 1
0 3 -76 309 0 0 1 4 0 1 0 1
phys
0 -92 -92.18 309 0 0 1 4 0 1 0 1
0 3 -76 309 0 0 1 4 0 1 0 1
0 -92 -76 309 0 0 1 4 0 1 0 1
phys
0 3 -92.18 297.3133 0 0 1 4 0 1 0 1
0 -92 -92.18 297.3133 0 0 1 4 0 1 0 1
0 -92 -76 309 0 0 1 4 0 1 0 1
phys
0 3 -92.18 297.3133 0 0 1 4 0 1 0 1
0 -92 -76 309 0 0 1 4 0 1 0 1
0 3 -76 309 0 0 1 4 0 1 0 1
phys
0 3 -172.1 240.131 0 0 1 5 0 1 0 1
0 3 -172.1 251.821 0 0 1 5 0 1 0 1
0 -92 -172.1 251.821 0 0 1 5 0 1 0 1
phys
0 3 -172.1 240.131 0 0 1 5 0 1 0 1
0 -92 -172.1 251.821 0 0 1 5 0 1 0 1
0 -92 -172.1 240.131 0 0 1 5 0 1 0 1
phys
0 -92 -172.1 240.131 0 0 1 5 0 1 0 1
0 -92 -172.1 251.821 0 0 1 5 0 1 0 1
0 -92 -155.91 251.821 0 0 1 5 0 1 0 1
phys
0 3 -172.1 251.821 0 0 1 5 0 1 0 1
0 3 -172.1 240.131 0 0 1 5 0 1 0 1
0 3 -155.91 251.821 0 0 1 5 0 1 0 1
phys
0 -92 -172.1 251.821 0 0 1 5 0 1 0 1
0 3 -172.1 251.821 0 0 1 5 0 1 0 1
0 3 -155.91 251.821 0 0 1 5 0 1 0 1
phys
0 -92 -172.1 251.821 0 0 1 5 0 1 0 1
0 3 -155.91 251.821 0 0 1 5 0 1 0 1
0 -92 -155.91 251.821 0 0 1 5 0 1 0 1
phys
0 3 -172.1 240.131 0 0 1 5 0 1 0 1
0 -92 -172.1 240.131 0 0 1 5 0 1 0 1
0 -92 -155.91 251.821 0 0 1 5 0 1 0 1
phys
0 3 -172.1 240.131 0 0 1 5 0 1 0 1
0 -92 -155.91 251.821 0 0 1 5 0 1 0 1
0 3 -155.91 251.821 0 0 1 5 0 1 0 1
phys
0 102 -19 -20 0 0 1 6 0 1 0 1
0 106 -19 -20 0 0 1 6 0 1 0 1
0 106 -29 -20 0 0 1 6 0 1 0 1
phys
0 102 -19 -20 0 0 1 6 0 1 0 1
0 106 -29 -20 0 0 1 6 0 1 0 1
0 102 -29 -20 0 0 1 6 0 1 0 1
phys
0 102 -29 91.996 0 0 1 6 0 1 0 1
0 106 -29 87.996 0 0 1 6 0 1 0 1
0 106 -19 87.996 0 0 1 6 0 1 0 1
phys
0 102 -29 91.996 0 0 1 6 0 1 0 1
0 106 -19 87.996 0 0 1 6 0 1 0 1
0 102 -19 91.996 0 0 1 6 0 1 0 1
phys
0 106 -19 -20 0 0 1 6 0 1 0 1
0 102 -19 -20 0 0 1 6 0 1 0 1
0 102 -19 91.996 0 0 1 6 0 1 0 1
phys
0 106 -19 -20 0 0 1 6 0 1 0 1
0 102 -19 91.996 0 0 1 6 0 1 0 1
0 106 -19 87.996 0 0 1 6 0 1 0 1
phys
0 102 -29 -20 0 0 1 6 0 1 0 1
0 106 -29 -20 0 0 1 6 0 1 0 1
0 106 -29 87.996 0 0 1 6 0 1 0 1
phys
0 102 -29 -20 0 0 1 6 0 1 0 1
0 106 -29 87.996 0 0 1 6 0 1 0 1
0 102 -29 91.996 0 0 1 6 0 1 0 1
phys
0 102 -29 91.996 0 0 1 6 0 1 0 1
0 102 -19 91.996 0 0 1 6 0 1 0 1
0 102 -19 -20 0 0 1 6 0 1 0 1
phys
0 102 -29 91.996 0 0 1 6 0 1 0 1
0 102 -19 -20 0 0 1 6 0 1 0 1
0 102 -29 -20 0 0 1 6 0 1 0 1
phys
0 106 -29 -20 0 0 1 6 0 1 0 1
0 106 -19 -20 0 0 1 6 0 1 0 1
0 106 -19 87.996 0 0 1 6 0 1 0 1
phys
0 106 -29 -20 0 0 1 6 0 1 0 1
0 106 -19 87.996 0 0 1 6 0 1 0 1
0 106 -29 87.996 0 0 1 6 0 1 0 1
phys
0 112 -5 289.0202 0 0 1 7 0 1 0 1
0 116 -5 293.0222 0 0 1 7 0 1 0 1
0 116 11 293.0164 0 0 1 7 0 1 0 1
phys
0 112 -5 289.0202 0 0 1 7 0 1 0 1
0 116 11 293.0164 0 0 1 7 0 1 0 1
0 112 11 289.0144 0 0 1 7 0 1 0 1
phys
0 112 11 181 0 0 1 7 0 1 0 1
0 112 11 289.0144 0 0 1 7 0 1 0 1
0 116 11 293.0164 0 0 1 7 0 1 0 1
phys
0 112 11 181 0 0 1 7 0 1 0 1
0 116 11 293.0164 0 0 1 7 0 1 0 1
0 116 11 181 0 0 1 7 0 1 0 1
phys
0 116 -5 181 0 0 1 7 0 1 0 1
0 116 -5 293.0222 0 0 1 7 0 1 0 1
0 112 -5 289.0202 0 0 1 7 0 1 0 1
phys
0 116 -5 181 0 0 1 7 0 1 0 1
0 112 -5 289.0202 0 0 1 7 0 1 0 1
0 112 -5 181 0 0 1 7 0 1 0 1
phys
0 112 -5 181 0 0 1 7 0 1 0 1
0 112 -5 289.0202 0 0 1 7 0 1 0 1
0 112 11 289.0144 0 0 1 7 0 1 0 1
phys
0 112 -5 181 0 0 1 7 0 1 0 1
0 112 11 289.0144 0 0 1 7 0 1 0 1
0 112 11 181 0 0 1 7 0 1 0 1
phys
0 116 11 181 0 0 1 7 0 1 0 1
0 116 11 293.0164 0 0 1 7 0 1 0 1
0 116 -5 293.0222 0 0 1 7 0 1 0 1
phys
0 116 11 181 0 0 1 7 0 1 0 1
0 116 -5 293.0222 0 0 1 7 0 1 0 1
0 116 -5 181 0 0 1 7 0 1 0 1
phys
0 116 -5 181 0 0 1 7 0 1 0 1
0 112 -5 181 0 0 1 7 0 1 0 1
0 112 11 181 0 0 1 7 0 1 0 1
phys
0 116 -5 181 0 0 1 7 0 1 0 1
0 112 11 181 0 0 1 7 0 1 0 1
0 116 11 181 0 0 1 7 0 1 0 1
phys
0 3 -139.72 263.499 0 0 1 8 0 1 0 1
0 3 -139.72 274.455 0 0 1 8 0 1 0 1
0 -92 -139.72 274.455 0 0 1 8 0 1 0 1
phys
0 3 -139.72 263.499 0 0 1 8 0 1 0 1
0 -92 -139.72 274.455 0 0 1 8 0 1 0 1
0 -92 -139.72 263.499 0 0 1 8 0 1 0 1
phys
0 -92 -139.72 263.499 0 0 1 8 0 1 0 1
0 -92 -139.72 274.455 0 0 1 8 0 1 0 1
0 -92 -124.56 274.455 0 0 1 8 0 1 0 1
phys
0 3 -139.72 274.455 0 0 1 8 0 1 0 1
0 3 -139.72 263.499 0 0 1 8 0 1 0 1
0 3 -124.56 274.455 0 0 1 8 0 1 0 1
phys
0 -92 -139.72 274.455 0 0 1 8 0 1 0 1
0 3 -139.72 274.455 0 0 1 8 0 1 0 1
0 3 -124.56 274.455 0 0 1 8 0 1 0 1
phys
0 -92 -139.72 274.455 0 0 1 8 0 1 0 1
0 3 -124.56 274.455 0 0 1 8 0 1 0 1
0 -92 -124.56 274.455 0 0 1 8 0 1 0 1
phys
0 3 -139.72 263.499 0 0 1 8 0 1 0 1
0 -92 -139.72 263.499 0 0 1 8 0 1 0 1
0 -92 -124.56 274.455 0 0 1 8 0 1 0 1
phys
0 3 -139.72 263.499 0 0 1 8 0 1 0 1
0 -92 -124.56 274.455 0 0 1 8 0 1 0 1
0 3 -124.56 274.455 0 0 1 8 0 1 0 1
phys
0 3 -155.91 251.829 0 0 1 9 0 1 0 1
0 3 -155.91 263.5032 0 0 1 9 0 1 0 1
0 -92 -155.91 263.5032 0 0 1 9 0 1 0 1
phys
0 3 -155.91 251.829 0 0 1 9 0 1 0 1
0 -92 -155.91 263.5032 0 0 1 9 0 1 0 1
0 -92 -155.91 251.829 0 0 1 9 0 1 0 1
phys
0 -92 -155.91 251.829 0 0 1 9 0 1 0 1
0 -92 -155.91 263.5032 0 0 1 9 0 1 0 1
0 -92 -139.73 263.5032 0 0 1 9 0 1 0 1
phys
0 3 -155.91 263.5032 0 0 1 9 0 1 0 1
0 3 -155.91 251.829 0 0 1 9 0 1 0 1
0 3 -139.73 263.5032 0 0 1 9 0 1 0 1
phys
0 -92 -155.91 263.5032 0 0 1 9 0 1 0 1
0 3 -155.91 263.5032 0 0 1 9 0 1 0 1
0 3 -139.73 263.5032 0 0 1 9 0 1 0 1
phys
0 -92 -155.91 263.5032 0 0 1 9 0 1 0 1
0 3 -139.73 263.5032 0 0 1 9 0 1 0 1
0 -92 -139.73 263.5032 0 0 1 9 0 1 0 1
phys
0 3 -155.91 251.829 0 0 1 9 0 1 0 1
0 -92 -155.91 251.829 0 0 1 9 0 1 0 1
0 -92 -139.73 263.5032 0 0 1 9 0 1 0 1
phys
0 3 -155.91 251.829 0 0 1 9 0 1 0 1
0 -92 -139.73 263.5032 0 0 1 9 0 1 0 1
0 3 -139.73 263.5032 0 0 1 9 0 1 0 1
phys
0 3 -204.44 216.782 0 0 1 10 0 1 0 1
0 3 -204.44 228.458 0 0 1 10 0 1 0 1
0 -92 -204.44 228.458 0 0 1 10 0 1 0 1
phys
0 3 -204.44 216.782 0 0 1 10 0 1 0 1
0 -92 -204.44 228.458 0 0 1 10 0 1 0 1
0 -92 -204.44 216.782 0 0 1 10 0 1 0 1
phys
0 -92 -204.44 216.782 0 0 1 10 0 1 0 1
0 -92 -204.44 228.458 0 0 1 10 0 1 0 1
0 -92 -188.28 228.458 0 0 1 10 0 1 0 1
phys
0 3 -204.44 228.458 0 0 1 10 0 1 0 1
0 3 -204.44 216.782 0 0 1 10 0 1 0 1
0 3 -188.28 228.458 0 0 1 10 0 1 0 1
phys
0 -92 -204.44 228.458 0 0 1 10 0 1 0 1
0 3 -204.44 228.458 0 0 1 10 0 1 0 1
0 3 -188.28 228.458 0 0 1 10 0 1 0 1
phys
0 -92 -204.44 228.458 0 0 1 10 0 1 0 1
0 3 -188.28 228.458 0 0 1 10 0 1 0 1
0 -92 -188.28 228.458 0 0 1 10 0 1 0 1
phys
0 3 -204.44 216.782 0 0 1 10 0 1 0 1
0 -92 -204.44 216.782 0 0 1 10 0 1 0 1
0 -92 -188.28 228.458 0 0 1 10 0 1 0 1
phys
0 3 -204.44 216.782 0 0 1 10 0 1 0 1
0 -92 -188.28 228.458 0 0 1 10 0 1 0 1
0 3 -188.28 228.458 0 0 1 10 0 1 0 1
phys
0 3 -124.56 274.453 0 0 1 11 0 1 0 1
0 3 -124.56 285.6361 0 0 1 11 0 1 0 1
0 -92 -124.56 285.6361 0 0 1 11 0 1 0 1
phys
0 3 -124.56 274.453 0 0 1 11 0 1 0 1
0 -92 -124.56 285.6361 0 0 1 11 0 1 0 1
0 -92 -124.56 274.453 0 0 1 11 0 1 0 1
phys
0 -92 -124.56 274.453 0 0 1 11 0 1 0 1
0 -92 -124.56 285.6361 0 0 1 11 0 1 0 1
0 -92 -108.37 285.6361 0 0 1 11 0 1 0 1
phys
0 3 -124.56 285.6361 0 0 1 11 0 1 0 1
0 3 -124.56 274.453 0 0 1 11 0 1 0 1
0 3 -108.37 285.6361 0 0 1 11 0 1 0 1
phys
0 -92 -124.56 285.6361 0 0 1 11 0 1 0 1
0 3 -124.56 285.6361 0 0 1 11 0 1 0 1
0 3 -108.37 285.6361 0 0 1 11 0 1 0 1
phys
0 -92 -124.56 285.6361 0 0 1 11 0 1 0 1
0 3 -108.37 285.6361 0 0 1 11 0 1 0 1
0 -92 -108.37 285.6361 0 0 1 11 0 1 0 1
phys
0 3 -124.56 274.453 0 0 1 11 0 1 0 1
0 -92 -124.56 274.453 0 0 1 11 0 1 0 1
0 -92 -108.37 285.6361 0 0 1 11 0 1 0 1
phys
0 3 -124.56 274.453 0 0 1 11 0 1 0 1
0 -92 -108.37 285.6361 0 0 1 11 0 1 0 1
0 3 -108.37 285.6361 0 0 1 11 0 1 0 1
phys
0 112 11 289 0 0 1 12 0 1 0 1
0 64 11 289 0 0 1 12 0 1 0 1
0 60 11 293 0 0 1 12 0 1 0 1
phys
0 112 11 289 0 0 1 12 0 1 0 1
0 60 11 293 0 0 1 12 0 1 0 1
0 116 11 293 0 0 1 12 0 1 0 1
phys
0 116 -5 293 0 0 1 12 0 1 0 1
0 60 -5 293 0 0 1 12 0 1 0 1
0 64 -5 289 0 0 1 12 0 1 0 1
phys
0 116 -5 293 0 0 1 12 0 1 0 1
0 64 -5 289 0 0 1 12 0 1 0 1
0 112 -5 289 0 0 1 12 0 1 0 1
phys
0 112 -5 289 0 0 1 12 0 1 0 1
0 64 -5 289 0 0 1 12 0 1 0 1
0 64 11 289 0 0 1 12 0 1 0 1
phys
0 112 -5 289 0 0 1 12 0 1 0 1
0 64 11 289 0 0 1 12 0 1 0 1
0 112 11 289 0 0 1 12 0 1 0 1
phys
0 60 -5 293 0 0 1 12 0 1 0 1
0 116 -5 293 0 0 1 12 0 1 0 1
0 116 11 293 0 0 1 12 0 1 0 1
phys
0 60 -5 293 0 0 1 12 0 1 0 1
0 116 11 293 0 0 1 12 0 1 0 1
0 60 11 293 0 0 1 12 0 1 0 1
phys
0 116 -5 293 0 0 1 12 0 1 0 1
0 112 -5 289 0 0 1 12 0 1 0 1
0 112 11 289 0 0 1 12 0 1 0 1
phys
0 116 -5 293 0 0 1 12 0 1 0 1
0 112 11 289 0 0 1 12 0 1 0 1
0 116 11 293 0 0 1 12 0 1 0 1
phys
0 64 -5 289 0 0 1 12 0 1 0 1
0 60 -5 293 0 0 1 12 0 1 0 1
0 60 11 293 0 0 1 12 0 1 0 1
phys
0 64 -5 289 0 0 1 12 0 1 0 1
0 60 11 293 0 0 1 12 0 1 0 1
0 64 11 289 0 0 1 12 0 1 0 1
phys
0 60 -5 293.0001 0 0 1 13 0 1 0 1
0 64 -5 289.0001 0 0 1 13 0 1 0 1
0 64 11 289.0001 0 0 1 13 0 1 0 1
phys
0 60 -5 293.0001 0 0 1 13 0 1 0 1
0 64 11 289.0001 0 0 1 13 0 1 0 1
0 60 11 293.0001 0 0 1 13 0 1 0 1
phys
0 60 11 293.0001 0 0 1 13 0 1 0 1
0 64 11 289.0001 0 0 1 13 0 1 0 1
0 64 11 181 0 0 1 13 0 1 0 1
phys
0 60 11 293.0001 0 0 1 13 0 1 0 1
0 64 11 181 0 0 1 13 0 1 0 1
0 60 11 181 0 0 1 13 0 1 0 1
phys
0 64 -5 181 0 0 1 13 0 1 0 1
0 64 -5 289.0001 0 0 1 13 0 1 0 1
0 60 -5 293.0001 0 0 1 13 0 1 0 1
phys
0 64 -5 181 0 0 1 13 0 1 0 1
0 60 -5 293.0001 0 0 1 13 0 1 0 1
0 60 -5 181 0 0 1 13 0 1 0 1
phys
0 60 -5 181 0 0 1 13 0 1 0 1
0 60 -5 293.0001 0 0 1 13 0 1 0 1
0 60 11 293.0001 0 0 1 13 0 1 0 1
phys
0 60 -5 181 0 0 1 13 0 1 0 1
0 60 11 293.0001 0 0 1 13 0 1 0 1
0 60 11 181 0 0 1 13 0 1 0 1
phys
0 64 11 181 0 0 1 13 0 1 0 1
0 64 11 289.0001 0 0 1 13 0 1 0 1
0 64 -5 289.0001 0 0 1 13 0 1 0 1
phys
0 64 11 181 0 0 1 13 0 1 0 1
0 64 -5 289.0001 0 0 1 13 0 1 0 1
0 64 -5 181 0 0 1 13 0 1 0 1
phys
0 60 11 181 0 0 1 13 0 1 0 1
0 64 11 181 0 0 1 13 0 1 0 1
0 64 -5 181 0 0 1 13 0 1 0 1
phys
0 60 11 181 0 0 1 13 0 1 0 1
0 64 -5 181 0 0 1 13 0 1 0 1
0 60 -5 181 0 0 1 13 0 1 0 1
phys
0 -340 -263 -20 0 0 1 14 0 1 0 1
0 -340 -263 12 0 0 1 14 0 1 0 1
0 -338 -261 12 0 0 1 14 0 1 0 1
phys
0 -340 -263 -20 0 0 1 14 0 1 0 1
0 -338 -261 12 0 0 1 14 0 1 0 1
0 -338 -261 -20 0 0 1 14 0 1 0 1
phys
0 -338 -317 -20 0 0 1 14 0 1 0 1
0 -338 -317 12 0 0 1 14 0 1 0 1
0 -340 -317 12 0 0 1 14 0 1 0 1
phys
0 -338 -317 -20 0 0 1 14 0 1 0 1
0 -340 -317 12 0 0 1 14 0 1 0 1
0 -340 -317 -20 0 0 1 14 0 1 0 1
phys
0 -340 -317 -20 0 0 1 14 0 1 0 1
0 -340 -317 12 0 0 1 14 0 1 0 1
0 -340 -263 12 0 0 1 14 0 1 0 1
phys
0 -340 -317 -20 0 0 1 14 0 1 0 1
0 -340 -263 12 0 0 1 14 0 1 0 1
0 -340 -263 -20 0 0 1 14 0 1 0 1
phys
0 -338 -317 12 0 0 1 14 0 1 0 1
0 -338 -317 -20 0 0 1 14 0 1 0 1
0 -338 -261 -20 0 0 1 14 0 1 0 1
phys
0 -338 -317 12 0 0 1 14 0 1 0 1
0 -338 -261 -20 0 0 1 14 0 1 0 1
0 -338 -261 12 0 0 1 14 0 1 0 1
phys
0 -338 -317 -20 0 0 1 14 0 1 0 1
0 -340 -317 -20 0 0 1 14 0 1 0 1
0 -340 -263 -20 0 0 1 14 0 1 0 1
phys
0 -338 -317 -20 0 0 1 14 0 1 0 1
0 -340 -263 -20 0 0 1 14 0 1 0 1
0 -338 -261 -20 0 0 1 14 0 1 0 1
phys
0 -338 -261 12 0 0 1 14 0 1 0 1
0 -340 -263 12 0 0 1 14 0 1 0 1
0 -340 -317 12 0 0 1 14 0 1 0 1
phys
0 -338 -261 12 0 0 1 14 0 1 0 1
0 -340 -317 12 0 0 1 14 0 1 0 1
0 -338 -317 12 0 0 1 14 0 1 0 1
phys
0 -92 -188.27 240.139 0 0 1 15 0 1 0 1
0 -92 -172.1 240.139 0 0 1 15 0 1 0 1
0 -92 -188.27 228.457 0 0 1 15 0 1 0 1
phys
0 3 -188.27 228.457 0 0 1 15 0 1 0 1
0 3 -172.1 240.139 0 0 1 15 0 1 0 1
0 3 -188.27 240.139 0 0 1 15 0 1 0 1
phys
0 3 -188.27 240.139 0 0 1 15 0 1 0 1
0 3 -172.1 240.139 0 0 1 15 0 1 0 1
0 -92 -172.1 240.139 0 0 1 15 0 1 0 1
phys
0 3 -188.27 240.139 0 0 1 15 0 1 0 1
0 -92 -172.1 240.139 0 0 1 15 0 1 0 1
0 -92 -188.27 240.139 0 0 1 15 0 1 0 1
phys
0 -92 -188.27 228.457 0 0 1 15 0 1 0 1
0 -92 -172.1 240.139 0 0 1 15 0 1 0 1
0 3 -172.1 240.139 0 0 1 15 0 1 0 1
phys
0 -92 -188.27 228.457 0 0 1 15 0 1 0 1
0 3 -172.1 240.139 0 0 1 15 0 1 0 1
0 3 -188.27 228.457 0 0 1 15 0 1 0 1
phys
0 3 -188.27 228.457 0 0 1 15 0 1 0 1
0 3 -188.27 240.139 0 0 1 15 0 1 0 1
0 -92 -188.27 240.139 0 0 1 15 0 1 0 1
phys
0 3 -188.27 228.457 0 0 1 15 0 1 0 1
0 -92 -188.27 240.139 0 0 1 15 0 1 0 1
0 -92 -188.27 228.457 0 0 1 15 0 1 0 1
phys
0 3 -108.37 285.635 0 0 1 16 0 1 0 1
0 -92 -108.37 285.635 0 0 1 16 0 1 0 1
0 -92 -92.19 297.3164 0 0 1 16 0 1 0 1
phys
0 3 -108.37 285.635 0 0 1 16 0 1 0 1
0 -92 -92.19 297.3164 0 0 1 16 0 1 0 1
0 3 -92.19 297.3164 0 0 1 16 0 1 0 1
phys
0 -92 -108.37 297.3164 0 0 1 16 0 1 0 1
0 -92 -108.37 285.635 0 0 1 16 0 1 0 1
0 3 -108.37 285.635 0 0 1 16 0 1 0 1
phys
0 -92 -108.37 297.3164 0 0 1 16 0 1 0 1
0 3 -108.37 285.635 0 0 1 16 0 1 0 1
0 3 -108.37 297.3164 0 0 1 16 0 1 0 1
phys
0 -92 -92.19 297.3164 0 0 1 16 0 1 0 1
0 -92 -108.37 285.635 0 0 1 16 0 1 0 1
0 -92 -108.37 297.3164 0 0 1 16 0 1 0 1
phys
0 3 -108.37 297.3164 0 0 1 16 0 1 0 1
0 3 -108.37 285.635 0 0 1 16 0 1 0 1
0 3 -92.19 297.3164 0 0 1 16 0 1 0 1
phys
0 -92 -108.37 297.3164 0 0 1 16 0 1 0 1
0 3 -108.37 297.3164 0 0 1 16 0 1 0 1
0 3 -92.19 297.3164 0 0 1 16 0 1 0 1
phys
0 -92 -108.37 297.3164 0 0 1 16 0 1 0 1
0 3 -92.19 297.3164 0 0 1 16 0 1 0 1
0 -92 -92.19 297.3164 0 0 1 16 0 1 0 1
phys
0 102 -16 54 0 0 1 17 0 1 0 1
0 102 -16 -20 0 0 1 17 0 1 0 1
0 -98 -16 -20 0 0 1 17 0 1 0 1
phys
0 102 -16 54 0 0 1 17 0 1 0 1
0 -98 -16 -20 0 0 1 17 0 1 0 1
0 -98 -16 54 0 0 1 17 0 1 0 1
phys
0 102 -19 -20 0 0 1 17 0 1 0 1
0 102 -19 54 0 0 1 17 0 1 0 1
0 -98 -19 54 0 0 1 17 0 1 0 1
phys
0 102 -19 -20 0 0 1 17 0 1 0 1
0 -98 -19 54 0 0 1 17 0 1 0 1
0 -98 -19 -20 0 0 1 17 0 1 0 1
phys
0 -98 -19 -20 0 0 1 17 0 1 0 1
0 -98 -19 54 0 0 1 17 0 1 0 1
0 -98 -16 54 0 0 1 17 0 1 0 1
phys
0 -98 -19 -20 0 0 1 17 0 1 0 1
0 -98 -16 54 0 0 1 17 0 1 0 1
0 -98 -16 -20 0 0 1 17 0 1 0 1
phys
0 102 -19 54 0 0 1 17 0 1 0 1
0 102 -19 -20 0 0 1 17 0 1 0 1
0 102 -16 -20 0 0 1 17 0 1 0 1
phys
0 102 -19 54 0 0 1 17 0 1 0 1
0 102 -16 -20 0 0 1 17 0 1 0 1
0 102 -16 54 0 0 1 17 0 1 0 1
phys
0 102 -19 -20 0 0 1 17 0 1 0 1
0 -98 -19 -20 0 0 1 17 0 1 0 1
0 -98 -16 -20 0 0 1 17 0 1 0 1
phys
0 102 -19 -20 0 0 1 17 0 1 0 1
0 -98 -16 -20 0 0 1 17 0 1 0 1
0 102 -16 -20 0 0 1 17 0 1 0 1
phys
0 -98 -19 54 0 0 1 17 0 1 0 1
0 102 -19 54 0 0 1 17 0 1 0 1
0 102 -16 54 0 0 1 17 0 1 0 1
phys
0 -98 -19 54 0 0 1 17 0 1 0 1
0 102 -16 54 0 0 1 17 0 1 0 1
0 -98 -16 54 0 0 1 17 0 1 0 1
phys
0 63 16 20 0 0 1 18 0 1 0 1
0 63 16 -20 0 0 1 18 0 1 0 1
0 -63 16 -20 0 0 1 18 0 1 0 1
phys
0 63 16 20 0 0 1 18 0 1 0 1
0 -63 16 -20 0 0 1 18 0 1 0 1
0 -63 16 20 0 0 1 18 0 1 0 1
phys
0 63 -16 -20 0 0 1 18 0 1 0 1
0 63 -16 20 0 0 1 18 0 1 0 1
0 -63 -16 20 0 0 1 18 0 1 0 1
phys
0 63 -16 -20 0 0 1 18 0 1 0 1
0 -63 -16 20 0 0 1 18 0 1 0 1
0 -63 -16 -20 0 0 1 18 0 1 0 1
phys
0 -63 -16 -20 0 0 1 18 0 1 0 1
0 -63 -16 20 0 0 1 18 0 1 0 1
0 -63 16 20 0 0 1 18 0 1 0 1
phys
0 -63 -16 -20 0 0 1 18 0 1 0 1
0 -63 16 20 0 0 1 18 0 1 0 1
0 -63 16 -20 0 0 1 18 0 1 0 1
phys
0 63 -16 20 0 0 1 18 0 1 0 1
0 63 -16 -20 0 0 1 18 0 1 0 1
0 63 16 -20 0 0 1 18 0 1 0 1
phys
0 63 -16 20 0 0 1 18 0 1 0 1
0 63 16 -20 0 0 1 18 0 1 0 1
0 63 16 20 0 0 1 18 0 1 0 1
phys
0 63 -16 -20 0 0 1 18 0 1 0 1
0 -63 -16 -20 0 0 1 18 0 1 0 1
0 -63 16 -20 0 0 1 18 0 1 0 1
phys
0 63 -16 -20 0 0 1 18 0 1 0 1
0 -63 16 -20 0 0 1 18 0 1 0 1
0 63 16 -20 0 0 1 18 0 1 0 1
phys
0 -63 -16 20 0 0 1 18 0 1 0 1
0 63 -16 20 0 0 1 18 0 1 0 1
0 63 16 20 0 0 1 18 0 1 0 1
phys
0 -63 -16 20 0 0 1 18 0 1 0 1
0 63 16 20 0 0 1 18 0 1 0 1
0 -63 16 20 0 0 1 18 0 1 0 1
phys
0 124 19 309 0 0 1 19 0 1 0 1
0 124 19 307.0005 0 0 1 19 0 1 0 1
0 60 19 307.0005 0 0 1 19 0 1 0 1
phys
0 124 19 309 0 0 1 19 0 1 0 1
0 60 19 307.0005 0 0 1 19 0 1 0 1
0 60 19 309 0 0 1 19 0 1 0 1
phys
0 124 11 299 0 0 1 19 0 1 0 1
0 124 11 309 0 0 1 19 0 1 0 1
0 60 11 309 0 0 1 19 0 1 0 1
phys
0 124 11 299 0 0 1 19 0 1 0 1
0 60 11 309 0 0 1 19 0 1 0 1
0 60 11 299 0 0 1 19 0 1 0 1
phys
0 60 11 299 0 0 1 19 0 1 0 1
0 60 11 309 0 0 1 19 0 1 0 1
0 60 19 309 0 0 1 19 0 1 0 1
phys
0 60 11 299 0 0 1 19 0 1 0 1
0 60 19 309 0 0 1 19 0 1 0 1
0 60 19 307.0005 0 0 1 19 0 1 0 1
phys
0 60 11 299 0 0 1 19 0 1 0 1
0 60 19 307.0005 0 0 1 19 0 1 0 1
0 60 13 299 0 0 1 19 0 1 0 1
phys
0 124 11 309 0 0 1 19 0 1 0 1
0 124 11 299 0 0 1 19 0 1 0 1
0 124 13 299 0 0 1 19 0 1 0 1
phys
0 124 11 309 0 0 1 19 0 1 0 1
0 124 13 299 0 0 1 19 0 1 0 1
0 124 19 307.0005 0 0 1 19 0 1 0 1
phys
0 124 11 309 0 0 1 19 0 1 0 1
0 124 19 307.0005 0 0 1 19 0 1 0 1
0 124 19 309 0 0 1 19 0 1 0 1
phys
0 124 11 299 0 0 1 19 0 1 0 1
0 60 11 299 0 0 1 19 0 1 0 1
0 60 13 299 0 0 1 19 0 1 0 1
phys
0 124 11 299 0 0 1 19 0 1 0 1
0 60 13 299 0 0 1 19 0 1 0 1
0 124 13 299 0 0 1 19 0 1 0 1
phys
0 60 11 309 0 0 1 19 0 1 0 1
0 124 11 309 0 0 1 19 0 1 0 1
0 124 19 309 0 0 1 19 0 1 0 1
phys
0 60 11 309 0 0 1 19 0 1 0 1
0 124 19 309 0 0 1 19 0 1 0 1
0 60 19 309 0 0 1 19 0 1 0 1
phys
0 60 13 299 0 0 1 19 0 1 0 1
0 60 19 307.0005 0 0 1 19 0 1 0 1
0 124 19 307.0005 0 0 1 19 0 1 0 1
phys
0 60 13 299 0 0 1 19 0 1 0 1
0 124 19 307.0005 0 0 1 19 0 1 0 1
0 124 13 299 0 0 1 19 0 1 0 1
phys
0 154 -19 88 0 0 1 20 0 1 0 1
0 106 -19 88 0 0 1 20 0 1 0 1
0 102 -19 92 0 0 1 20 0 1 0 1
phys
0 154 -19 88 0 0 1 20 0 1 0 1
0 102 -19 92 0 0 1 20 0 1 0 1
0 158 -19 92 0 0 1 20 0 1 0 1
phys
0 158 -29 92 0 0 1 20 0 1 0 1
0 102 -29 92 0 0 1 20 0 1 0 1
0 106 -29 88 0 0 1 20 0 1 0 1
phys
0 158 -29 92 0 0 1 20 0 1 0 1
0 106 -29 88 0 0 1 20 0 1 0 1
0 154 -29 88 0 0 1 20 0 1 0 1
phys
0 154 -29 88 0 0 1 20 0 1 0 1
0 106 -29 88 0 0 1 20 0 1 0 1
0 106 -19 88 0 0 1 20 0 1 0 1
phys
0 154 -29 88 0 0 1 20 0 1 0 1
0 106 -19 88 0 0 1 20 0 1 0 1
0 154 -19 88 0 0 1 20 0 1 0 1
phys
0 102 -29 92 0 0 1 20 0 1 0 1
0 158 -29 92 0 0 1 20 0 1 0 1
0 158 -19 92 0 0 1 20 0 1 0 1
phys
0 102 -29 92 0 0 1 20 0 1 0 1
0 158 -19 92 0 0 1 20 0 1 0 1
0 102 -19 92 0 0 1 20 0 1 0 1
phys
0 106 -29 88 0 0 1 20 0 1 0 1
0 102 -29 92 0 0 1 20 0 1 0 1
0 102 -19 92 0 0 1 20 0 1 0 1
phys
0 106 -29 88 0 0 1 20 0 1 0 1
0 102 -19 92 0 0 1 20 0 1 0 1
0 106 -19 88 0 0 1 20 0 1 0 1
phys
0 158 -29 92 0 0 1 20 0 1 0 1
0 154 -29 88 0 0 1 20 0 1 0 1
0 154 -19 88 0 0 1 20 0 1 0 1
phys
0 158 -29 92 0 0 1 20 0 1 0 1
0 154 -19 88 0 0 1 20 0 1 0 1
0 158 -19 92 0 0 1 20 0 1 0 1
phys
0 124 11 309 0 0 1 21 0 1 0 1
0 60 11 309 0 0 1 21 0 1 0 1
0 62 11 311 0 0 1 21 0 1 0 1
phys
0 124 11 309 0 0 1 21 0 1 0 1
0 62 11 311 0 0 1 21 0 1 0 1
0 122 11 311 0 0 1 21 0 1 0 1
phys
0 122 7 311 0 0 1 21 0 1 0 1
0 62 7 311 0 0 1 21 0 1 0 1
0 60 7 309 0 0 1 21 0 1 0 1
phys
0 122 7 311 0 0 1 21 0 1 0 1
0 60 7 309 0 0 1 21 0 1 0 1
0 124 7 309 0 0 1 21 0 1 0 1
phys
0 124 7 309 0 0 1 21 0 1 0 1
0 60 7 309 0 0 1 21 0 1 0 1
0 60 11 309 0 0 1 21 0 1 0 1
phys
0 124 7 309 0 0 1 21 0 1 0 1
0 60 11 309 0 0 1 21 0 1 0 1
0 124 11 309 0 0 1 21 0 1 0 1
phys
0 62 7 311 0 0 1 21 0 1 0 1
0 122 7 311 0 0 1 21 0 1 0 1
0 122 11 311 0 0 1 21 0 1 0 1
phys
0 62 7 311 0 0 1 21 0 1 0 1
0 122 11 311 0 0 1 21 0 1 0 1
0 62 11 311 0 0 1 21 0 1 0 1
phys
0 122 7 311 0 0 1 21 0 1 0 1
0 124 7 309 0 0 1 21 0 1 0 1
0 124 11 309 0 0 1 21 0 1 0 1
phys
0 122 7 311 0 0 1 21 0 1 0 1
0 124 11 309 0 0 1 21 0 1 0 1
0 122 11 311 0 0 1 21 0 1 0 1
phys
0 60 7 309 0 0 1 21 0 1 0 1
0 62 7 311 0 0 1 21 0 1 0 1
0 62 11 311 0 0 1 21 0 1 0 1
phys
0 60 7 309 0 0 1 21 0 1 0 1
0 62 11 311 0 0 1 21 0 1 0 1
0 60 11 309 0 0 1 21 0 1 0 1
phys
0 3 -236.81 193.41 0 0 1 22 0 1 0 1
0 3 -236.81 205.094 0 0 1 22 0 1 0 1
0 -92 -236.81 205.094 0 0 1 22 0 1 0 1
phys
0 3 -236.81 193.41 0 0 1 22 0 1 0 1
0 -92 -236.81 205.094 0 0 1 22 0 1 0 1
0 -92 -236.81 193.41 0 0 1 22 0 1 0 1
phys
0 -92 -236.81 193.41 0 0 1 22 0 1 0 1
0 -92 -236.81 205.094 0 0 1 22 0 1 0 1
0 -92 -220.63 205.094 0 0 1 22 0 1 0 1
phys
0 3 -236.81 205.094 0 0 1 22 0 1 0 1
0 3 -236.81 193.41 0 0 1 22 0 1 0 1
0 3 -220.63 205.094 0 0 1 22 0 1 0 1
phys
0 -92 -236.81 205.094 0 0 1 22 0 1 0 1
0 3 -236.81 205.094 0 0 1 22 0 1 0 1
0 3 -220.63 205.094 0 0 1 22 0 1 0 1
phys
0 -92 -236.81 205.094 0 0 1 22 0 1 0 1
0 3 -220.63 205.094 0 0 1 22 0 1 0 1
0 -92 -220.63 205.094 0 0 1 22 0 1 0 1
phys
0 3 -236.81 193.41 0 0 1 22 0 1 0 1
0 -92 -236.81 193.41 0 0 1 22 0 1 0 1
0 -92 -220.63 205.094 0 0 1 22 0 1 0 1
phys
0 3 -236.81 193.41 0 0 1 22 0 1 0 1
0 -92 -220.63 205.094 0 0 1 22 0 1 0 1
0 3 -220.63 205.094 0 0 1 22 0 1 0 1
phys
0 119 35 173 0 0 1 23 0 1 0 1
0 119 35 165 0 0 1 23 0 1 0 1
0 56 35 165 0 0 1 23 0 1 0 1
phys
0 119 35 173 0 0 1 23 0 1 0 1
0 56 35 165 0 0 1 23 0 1 0 1
0 56 35 173 0 0 1 23 0 1 0 1
phys
0 56 23 173 0 0 1 23 0 1 0 1
0 56 35 173 0 0 1 23 0 1 0 1
0 56 35 165 0 0 1 23 0 1 0 1
phys
0 119 35 165 0 0 1 23 0 1 0 1
0 119 35 173 0 0 1 23 0 1 0 1
0 119 23 173 0 0 1 23 0 1 0 1
phys
0 119 23 173 0 0 1 23 0 1 0 1
0 119 35 173 0 0 1 23 0 1 0 1
0 56 35 173 0 0 1 23 0 1 0 1
phys
0 119 23 173 0 0 1 23 0 1 0 1
0 56 35 173 0 0 1 23 0 1 0 1
0 56 23 173 0 0 1 23 0 1 0 1
phys
0 56 23 173 0 0 1 23 0 1 0 1
0 56 35 165 0 0 1 23 0 1 0 1
0 119 35 165 0 0 1 23 0 1 0 1
phys
0 56 23 173 0 0 1 23 0 1 0 1
0 119 35 165 0 0 1 23 0 1 0 1
0 119 23 173 0 0 1 23 0 1 0 1
phys
0 65 -16 22.999 0 0 1 24 0 1 0 1
0 65 -16 25 0 0 1 24 0 1 0 1
0 -63 -16 25 0 0 1 24 0 1 0 1
phys
0 65 -16 22.999 0 0 1 24 0 1 0 1
0 -63 -16 25 0 0 1 24 0 1 0 1
0 -63 -16 20 0 0 1 24 0 1 0 1
phys
0 65 -16 22.999 0 0 1 24 0 1 0 1
0 -63 -16 20 0 0 1 24 0 1 0 1
0 63 -16 20 0 0 1 24 0 1 0 1
phys
0 -63 -16 20 0 0 1 24 0 1 0 1
0 -63 -16 25 0 0 1 24 0 1 0 1
0 -63 21 25 0 0 1 24 0 1 0 1
phys
0 -63 -16 20 0 0 1 24 0 1 0 1
0 -63 21 25 0 0 1 24 0 1 0 1
0 -63 21 23 0 0 1 24 0 1 0 1
phys
0 -63 -16 20 0 0 1 24 0 1 0 1
0 -63 21 23 0 0 1 24 0 1 0 1
0 -63 18 20 0 0 1 24 0 1 0 1
phys
0 65 -16 25 0 0 1 24 0 1 0 1
0 65 -16 22.999 0 0 1 24 0 1 0 1
0 65 20.999 22.999 0 0 1 24 0 1 0 1
phys
0 65 -16 25 0 0 1 24 0 1 0 1
0 65 20.999 22.999 0 0 1 24 0 1 0 1
0 65 21 23 0 0 1 24 0 1 0 1
phys
0 65 -16 25 0 0 1 24 0 1 0 1
0 65 21 23 0 0 1 24 0 1 0 1
0 65 21 25 0 0 1 24 0 1 0 1
phys
0 63 -16 20 0 0 1 24 0 1 0 1
0 -63 -16 20 0 0 1 24 0 1 0 1
0 -63 18 20 0 0 1 24 0 1 0 1
phys
0 63 -16 20 0 0 1 24 0 1 0 1
0 -63 18 20 0 0 1 24 0 1 0 1
0 63 18 20 0 0 1 24 0 1 0 1
phys
0 -63 -16 25 0 0 1 24 0 1 0 1
0 65 -16 25 0 0 1 24 0 1 0 1
0 65 21 25 0 0 1 24 0 1 0 1
phys
0 -63 -16 25 0 0 1 24 0 1 0 1
0 65 21 25 0 0 1 24 0 1 0 1
0 -63 21 25 0 0 1 24 0 1 0 1
phys
0 65 -16 22.999 0 0 1 24 0 1 0 1
0 63 -16 20 0 0 1 24 0 1 0 1
0 63 18 20 0 0 1 24 0 1 0 1
phys
0 65 -16 22.999 0 0 1 24 0 1 0 1
0 63 18 20 0 0 1 24 0 1 0 1
0 65 20.999 22.999 0 0 1 24 0 1 0 1
phys
0 -63 18 20 0 0 1 24 0 1 0 1
0 -63 21 23 0 0 1 24 0 1 0 1
0 65 21 23 0 0 1 24 0 1 0 1
phys
0 -63 18 20 0 0 1 24 0 1 0 1
0 65 21 23 0 0 1 24 0 1 0 1
0 65 20.999 22.999 0 0 1 24 0 1 0 1
phys
0 -63 18 20 0 0 1 24 0 1 0 1
0 65 20.999 22.999 0 0 1 24 0 1 0 1
0 63 18 20 0 0 1 24 0 1 0 1
phys
0 65 21 25 0 0 1 24 0 1 0 1
0 65 21 23 0 0 1 24 0 1 0 1
0 -63 21 23 0 0 1 24 0 1 0 1
phys
0 65 21 25 0 0 1 24 0 1 0 1
0 -63 21 23 0 0 1 24 0 1 0 1
0 -63 21 25 0 0 1 24 0 1 0 1
phys
0 3 -220.63 205.091 0 0 1 25 0 1 0 1
0 3 -204.43 216.776 0 0 1 25 0 1 0 1
0 3 -220.63 216.776 0 0 1 25 0 1 0 1
phys
0 -92 -220.63 216.776 0 0 1 25 0 1 0 1
0 3 -220.63 216.776 0 0 1 25 0 1 0 1
0 3 -204.43 216.776 0 0 1 25 0 1 0 1
phys
0 -92 -220.63 216.776 0 0 1 25 0 1 0 1
0 3 -204.43 216.776 0 0 1 25 0 1 0 1
0 -92 -204.43 216.776 0 0 1 25 0 1 0 1
phys
0 -92 -204.43 216.776 0 0 1 25 0 1 0 1
0 3 -204.43 216.776 0 0 1 25 0 1 0 1
0 3 -220.63 205.091 0 0 1 25 0 1 0 1
phys
0 -92 -204.43 216.776 0 0 1 25 0 1 0 1
0 3 -220.63 205.091 0 0 1 25 0 1 0 1
0 -92 -220.63 205.091 0 0 1 25 0 1 0 1
phys
0 3 -220.63 205.091 0 0 1 25 0 1 0 1
0 3 -220.63 216.776 0 0 1 25 0 1 0 1
0 -92 -220.63 216.776 0 0 1 25 0 1 0 1
phys
0 3 -220.63 205.091 0 0 1 25 0 1 0 1
0 -92 -220.63 216.776 0 0 1 25 0 1 0 1
0 -92 -220.63 205.091 0 0 1 25 0 1 0 1
phys
0 -92 -220.63 216.776 0 0 1 25 0 1 0 1
0 -92 -204.43 216.776 0 0 1 25 0 1 0 1
0 -92 -220.63 205.091 0 0 1 25 0 1 0 1
phys
0 119 47 165 0 0 1 26 0 1 0 1
0 119 47 157 0 0 1 26 0 1 0 1
0 56 47 157 0 0 1 26 0 1 0 1
phys
0 119 47 165 0 0 1 26 0 1 0 1
0 56 47 157 0 0 1 26 0 1 0 1
0 56 47 165 0 0 1 26 0 1 0 1
phys
0 56 35 165 0 0 1 26 0 1 0 1
0 56 47 165 0 0 1 26 0 1 0 1
0 56 47 157 0 0 1 26 0 1 0 1
phys
0 119 47 157 0 0 1 26 0 1 0 1
0 119 47 165 0 0 1 26 0 1 0 1
0 119 35 165 0 0 1 26 0 1 0 1
phys
0 119 35 165 0 0 1 26 0 1 0 1
0 119 47 165 0 0 1 26 0 1 0 1
0 56 47 165 0 0 1 26 0 1 0 1
phys
0 119 35 165 0 0 1 26 0 1 0 1
0 56 47 165 0 0 1 26 0 1 0 1
0 56 35 165 0 0 1 26 0 1 0 1
phys
0 56 35 165 0 0 1 26 0 1 0 1
0 56 47 157 0 0 1 26 0 1 0 1
0 119 47 157 0 0 1 26 0 1 0 1
phys
0 56 35 165 0 0 1 26 0 1 0 1
0 119 47 157 0 0 1 26 0 1 0 1
0 119 35 165 0 0 1 26 0 1 0 1
phys
0 119 47 157 0 0 1 27 0 1 0 1
0 119 47 156 0 0 1 27 0 1 0 1
0 56 47 156 0 0 1 27 0 1 0 1
phys
0 119 47 157 0 0 1 27 0 1 0 1
0 56 47 156 0 0 1 27 0 1 0 1
0 56 47 157 0 0 1 27 0 1 0 1
phys
0 119 11 156 0 0 1 27 0 1 0 1
0 119 11 181 0 0 1 27 0 1 0 1
0 56 11 181 0 0 1 27 0 1 0 1
phys
0 119 11 156 0 0 1 27 0 1 0 1
0 56 11 181 0 0 1 27 0 1 0 1
0 56 11 156 0 0 1 27 0 1 0 1
phys
0 56 11 156 0 0 1 27 0 1 0 1
0 56 11 181 0 0 1 27 0 1 0 1
0 56 47 157 0 0 1 27 0 1 0 1
phys
0 56 11 156 0 0 1 27 0 1 0 1
0 56 47 157 0 0 1 27 0 1 0 1
0 56 47 156 0 0 1 27 0 1 0 1
phys
0 119 11 181 0 0 1 27 0 1 0 1
0 119 11 156 0 0 1 27 0 1 0 1
0 119 47 156 0 0 1 27 0 1 0 1
phys
0 119 11 181 0 0 1 27 0 1 0 1
0 119 47 156 0 0 1 27 0 1 0 1
0 119 47 157 0 0 1 27 0 1 0 1
phys
0 119 11 156 0 0 1 27 0 1 0 1
0 56 11 156 0 0 1 27 0 1 0 1
0 56 47 156 0 0 1 27 0 1 0 1
phys
0 119 11 156 0 0 1 27 0 1 0 1
0 56 47 156 0 0 1 27 0 1 0 1
0 119 47 156 0 0 1 27 0 1 0 1
phys
0 56 11 181 0 0 1 27 0 1 0 1
0 119 11 181 0 0 1 27 0 1 0 1
0 119 47 157 0 0 1 27 0 1 0 1
phys
0 56 11 181 0 0 1 27 0 1 0 1
0 119 47 157 0 0 1 27 0 1 0 1
0 56 47 157 0 0 1 27 0 1 0 1
end
