version 1
nodes
0 "root" -1
end
skeleton
time 0
0 0 0 0 0 0 0
end
triangles
bridge_se1_metal_flat_steel_01
0 -16 -100 -22 0 -1 0 188.528646 5.839193 1 0 1
0 -16 -100 86 0 -1 0 188.528646 4.432943 1 0 1
0 -26 -100 86 0 -1 0 188.658854 4.432943 1 0 1
bridge_se1_metal_flat_steel_01
0 -16 -100 -22 0 -1 0 188.528646 5.839193 1 0 1
0 -26 -100 86 0 -1 0 188.658854 4.432943 1 0 1
0 -26 -100 -22 0 -1 0 188.658854 5.839193 1 0 1
bridge_se1_metal_flat_steel_01
0 -26 -100 -22 -1 0 0 4.026693 25.829427 1 0 1
0 -26 -100 86 -1 0 0 2.620443 25.829427 1 0 1
0 -26 -96 90 -1 0 0 2.568359 25.777344 1 0 1
bridge_se1_metal_flat_steel_01
0 -26 -100 -22 -1 0 0 4.026693 25.829427 1 0 1
0 -26 -96 90 -1 0 0 2.568359 25.777344 1 0 1
0 -26 -96 -22 -1 0 0 4.026693 25.777344 1 0 1
bridge_se1_metal_flat_steel_01
0 -16 -100 86 1 0 0 -2.983724 25.829427 1 0 1
0 -16 -100 -22 1 0 0 -4.389974 25.829427 1 0 1
0 -16 -96 -22 1 0 0 -4.389974 25.777344 1 0 1
bridge_se1_metal_flat_steel_01
0 -16 -100 86 1 0 0 -2.983724 25.829427 1 0 1
0 -16 -96 -22 1 0 0 -4.389974 25.777344 1 0 1
0 -16 -96 90 1 0 0 -2.931641 25.777344 1 0 1
wood_urban_woodcabinets02b
0 24 72 106 0 1 0 226 0 1 0 1
0 24 72 74 0 1 0 226 -0.25 1 0 1
0 -16 72 74 0 1 0 226.625 -0.25 1 0 1
wood_urban_woodcabinets02b
0 24 72 106 0 1 0 226 0 1 0 1
0 -16 72 74 0 1 0 226.625 -0.25 1 0 1
0 -16 72 106 0 1 0 226.625 0 1 0 1
wood_urban_woodcabinets02b
0 24 -72 74 0 -1 0 -226.125 -0.25 1 0 1
0 24 -72 106 0 -1 0 -226.125 0 1 0 1
0 -16 -72 106 0 -1 0 -226.75 0 1 0 1
wood_urban_woodcabinets02b
0 24 -72 74 0 -1 0 -226.125 -0.25 1 0 1
0 -16 -72 106 0 -1 0 -226.75 0 1 0 1
0 -16 -72 74 0 -1 0 -226.75 -0.25 1 0 1
wood_cabinets03
0 24 -72 106 1 0 0 37.981291 6.155382 1 0 1
0 24 -72 74 1 0 0 37.981291 6.849826 1 0 1
0 24 72 74 1 0 0 35.020765 6.849826 1 0 1
wood_cabinets03
0 24 -72 106 1 0 0 37.981291 6.155382 1 0 1
0 24 72 74 1 0 0 35.020765 6.849826 1 0 1
0 24 72 106 1 0 0 35.020765 6.155382 1 0 1
wood_urban_woodcabinets02b
0 24 -72 74 0 0 -1 226 -14.21875 1 0 1
0 -16 -72 74 0 0 -1 226.625 -14.21875 1 0 1
0 -16 72 74 0 0 -1 226.625 -13.09375 1 0 1
wood_urban_woodcabinets02b
0 24 -72 74 0 0 -1 226 -14.21875 1 0 1
0 -16 72 74 0 0 -1 226.625 -13.09375 1 0 1
0 24 72 74 0 0 -1 226 -13.09375 1 0 1
bridge_se1_metal_flat_steel_01
0 172 132 -22 0 -1 0 -186.340495 -3.577474 1 0 1
0 172 132 86.024 0 -1 0 -186.340495 -2.170911 1 0 1
0 162 132 86 0 -1 0 -186.470703 -2.171224 1 0 1
bridge_se1_metal_flat_steel_01
0 172 132 -22 0 -1 0 -186.340495 -3.577474 1 0 1
0 162 132 86 0 -1 0 -186.470703 -2.171224 1 0 1
0 162 132 -22 0 -1 0 -186.470703 -3.577474 1 0 1
bridge_se1_metal_flat_steel_01
0 162 132 -22 -1 0 0 -4.389974 -20.546875 1 0 1
0 162 132 86 -1 0 0 -2.983724 -20.546875 1 0 1
0 162 136 90.002 -1 0 0 -2.931615 -20.494792 1 0 1
bridge_se1_metal_flat_steel_01
0 162 132 -22 -1 0 0 -4.389974 -20.546875 1 0 1
0 162 136 90.002 -1 0 0 -2.931615 -20.494792 1 0 1
0 162 136 -22 -1 0 0 -4.389974 -20.494792 1 0 1
bridge_se1_metal_flat_steel_01
0 172 132 86.024 1 0 0 2.62013 -20.546875 1 0 1
0 172 132 -22 1 0 0 4.026693 -20.546875 1 0 1
0 172 136 -22 1 0 0 4.026693 -20.494792 1 0 1
bridge_se1_metal_flat_steel_01
0 172 132 86.024 1 0 0 2.62013 -20.546875 1 0 1
0 172 136 -22 1 0 0 4.026693 -20.494792 1 0 1
0 172 136 90.026 1 0 0 2.568021 -20.494792 1 0 1
bridge_se1_metal_flat_steel_01
0 172 84 86 0 1 0 -186.340495 4.432943 1 0 1
0 172 84 -22 0 1 0 -186.340495 5.839193 1 0 1
0 162 84 -22 0 1 0 -186.470703 5.839193 1 0 1
bridge_se1_metal_flat_steel_01
0 172 84 86 0 1 0 -186.340495 4.432943 1 0 1
0 162 84 -22 0 1 0 -186.470703 5.839193 1 0 1
0 162 84 86 0 1 0 -186.470703 4.432943 1 0 1
bridge_se1_metal_flat_steel_01
0 162 80 -22 -1 0 0 -4.389974 -21.223958 1 0 1
0 162 80 90 -1 0 0 -2.931641 -21.223958 1 0 1
0 162 84 86 -1 0 0 -2.983724 -21.171875 1 0 1
bridge_se1_metal_flat_steel_01
0 162 80 -22 -1 0 0 -4.389974 -21.223958 1 0 1
0 162 84 86 -1 0 0 -2.983724 -21.171875 1 0 1
0 162 84 -22 -1 0 0 -4.389974 -21.171875 1 0 1
bridge_se1_metal_flat_steel_01
0 172 80 90 1 0 0 2.568359 -21.223958 1 0 1
0 172 80 -22 1 0 0 4.026693 -21.223958 1 0 1
0 172 84 -22 1 0 0 4.026693 -21.171875 1 0 1
bridge_se1_metal_flat_steel_01
0 172 80 90 1 0 0 2.568359 -21.223958 1 0 1
0 172 84 -22 1 0 0 4.026693 -21.171875 1 0 1
0 172 84 86 1 0 0 2.620443 -21.171875 1 0 1
wood_urban_woodcabinets02b
0 -66 124 74 0 0 -1 -227 13.78125 1 0 1
0 -26 124 74 0 0 -1 -226.375 13.78125 1 0 1
0 -26 -20 74 0 0 -1 -226.375 14.90625 1 0 1
wood_urban_woodcabinets02b
0 -66 124 74 0 0 -1 -227 13.78125 1 0 1
0 -26 -20 74 0 0 -1 -226.375 14.90625 1 0 1
0 -66 -20 74 0 0 -1 -227 14.90625 1 0 1
wood_urban_woodcabinets02b
0 -26 124 106 0 1 0 226.25 0 1 0 1
0 -26 124 74 0 1 0 226.25 -0.25 1 0 1
0 -66 124 74 0 1 0 226.875 -0.25 1 0 1
wood_urban_woodcabinets02b
0 -26 124 106 0 1 0 226.25 0 1 0 1
0 -66 124 74 0 1 0 226.875 -0.25 1 0 1
0 -66 124 106 0 1 0 226.875 0 1 0 1
wood_urban_woodcabinets02b
0 -26 -20 74 0 -1 0 -226.375 -0.25 1 0 1
0 -26 -20 106 0 -1 0 -226.375 0 1 0 1
0 -66 -20 106 0 -1 0 -227 0 1 0 1
wood_urban_woodcabinets02b
0 -26 -20 74 0 -1 0 -226.375 -0.25 1 0 1
0 -66 -20 106 0 -1 0 -227 0 1 0 1
0 -66 -20 74 0 -1 0 -227 -0.25 1 0 1
wood_cabinets03
0 -66 -20 106 -1 0 0 -36.978618 6.155382 1 0 1
0 -66 124 106 -1 0 0 -34.018092 6.155382 1 0 1
0 -66 124 74 -1 0 0 -34.018092 6.849826 1 0 1
wood_cabinets03
0 -66 -20 106 -1 0 0 -36.978618 6.155382 1 0 1
0 -66 124 74 -1 0 0 -34.018092 6.849826 1 0 1
0 -66 -20 74 -1 0 0 -36.978618 6.849826 1 0 1
bridge_se1_metal_flat_steel_01
0 -16 -148 86.016 0 1 0 188.528646 -2.171016 1 0 1
0 -16 -148 -22 0 1 0 188.528646 -3.577474 1 0 1
0 -26 -148 -22 0 1 0 188.658854 -3.577474 1 0 1
bridge_se1_metal_flat_steel_01
0 -16 -148 86.016 0 1 0 188.528646 -2.171016 1 0 1
0 -26 -148 -22 0 1 0 188.658854 -3.577474 1 0 1
0 -26 -148 86.026 0 1 0 188.658854 -2.170885 1 0 1
bridge_se1_metal_flat_steel_01
0 -26 -152 -22 -1 0 0 4.026693 26.50651 1 0 1
0 -26 -152 90.028 -1 0 0 2.567995 26.50651 1 0 1
0 -26 -148 86.026 -1 0 0 2.620104 26.454427 1 0 1
bridge_se1_metal_flat_steel_01
0 -26 -152 -22 -1 0 0 4.026693 26.50651 1 0 1
0 -26 -148 86.026 -1 0 0 2.620104 26.454427 1 0 1
0 -26 -148 -22 -1 0 0 4.026693 26.454427 1 0 1
bridge_se1_metal_flat_steel_01
0 -16 -152 90.018 1 0 0 -2.931406 26.50651 1 0 1
0 -16 -152 -22 1 0 0 -4.389974 26.50651 1 0 1
0 -16 -148 -22 1 0 0 -4.389974 26.454427 1 0 1
bridge_se1_metal_flat_steel_01
0 -16 -152 90.018 1 0 0 -2.931406 26.50651 1 0 1
0 -16 -148 -22 1 0 0 -4.389974 26.454427 1 0 1
0 -16 -148 86.016 1 0 0 -2.983516 26.454427 1 0 1
wood_offdesktop
0 20 76 26 0 1 0 -226.21875 3 1 0 1
0 20 76 24.998 0 1 0 -226.21875 3.007828 1 0 1
0 17 76 22 0 1 0 -226.265625 3.03125 1 0 1
wood_offdesktop
0 20 76 26 0 1 0 -226.21875 3 1 0 1
0 17 76 22 0 1 0 -226.265625 3.03125 1 0 1
0 -16 76 22 0 1 0 -226.78125 3.03125 1 0 1
wood_offdesktop
0 20 76 26 0 1 0 -226.21875 3 1 0 1
0 -16 76 22 0 1 0 -226.78125 3.03125 1 0 1
0 -16 76 26 0 1 0 -226.78125 3 1 0 1
wood_offdesktop
0 20 -76 24.998 0 -1 0 -226.21875 -1.195328 1 0 1
0 20 -76 26 0 -1 0 -226.21875 -1.1875 1 0 1
0 -16 -76 26 0 -1 0 -226.78125 -1.1875 1 0 1
wood_offdesktop
0 20 -76 24.998 0 -1 0 -226.21875 -1.195328 1 0 1
0 -16 -76 26 0 -1 0 -226.78125 -1.1875 1 0 1
0 -16 -76 22 0 -1 0 -226.78125 -1.21875 1 0 1
wood_offdesktop
0 20 -76 24.998 0 -1 0 -226.21875 -1.195328 1 0 1
0 -16 -76 22 0 -1 0 -226.78125 -1.21875 1 0 1
0 17 -76 22 0 -1 0 -226.265625 -1.21875 1 0 1
wood_offdesktop
0 20 -76 26 1 0 0 4.78125 -14.1875 1 0 1
0 20 -76 24.998 1 0 0 4.796906 -14.1875 1 0 1
0 20 76 24.998 1 0 0 4.796906 -13 1 0 1
wood_offdesktop
0 20 -76 26 1 0 0 4.78125 -14.1875 1 0 1
0 20 76 24.998 1 0 0 4.796906 -13 1 0 1
0 20 76 26 1 0 0 4.78125 -13 1 0 1
wood_offdesktop
0 17 -76 22 0 0 -1 225.953125 -14.1875 1 0 1
0 -16 -76 22 0 0 -1 226.46875 -14.1875 1 0 1
0 -16 76 22 0 0 -1 226.46875 -13 1 0 1
wood_offdesktop
0 17 -76 22 0 0 -1 225.953125 -14.1875 1 0 1
0 -16 76 22 0 0 -1 226.46875 -13 1 0 1
0 17 76 22 0 0 -1 225.953125 -13 1 0 1
wood_offdesktop
0 -16 -76 26 0 0 1 -226.78125 -14.1875 1 0 1
0 20 -76 26 0 0 1 -226.21875 -14.1875 1 0 1
0 20 76 26 0 0 1 -226.21875 -13 1 0 1
wood_offdesktop
0 -16 -76 26 0 0 1 -226.78125 -14.1875 1 0 1
0 20 76 26 0 0 1 -226.21875 -13 1 0 1
0 -16 76 26 0 0 1 -226.78125 -13 1 0 1
wood_offdesktop
0 20 -76 24.998 0.706871 0 -0.707343 162.794449 -14.1875 1 0 1
0 17 -76 22 0.706871 0 -0.707343 162.860717 -14.1875 1 0 1
0 17 76 22 0.706871 0 -0.707343 162.860717 -13 1 0 1
wood_offdesktop
0 20 -76 24.998 0.706871 0 -0.707343 162.794449 -14.1875 1 0 1
0 17 76 22 0.706871 0 -0.707343 162.860717 -13 1 0 1
0 20 76 24.998 0.706871 0 -0.707343 162.794449 -13 1 0 1
wood_urban_woodcabinets02b
0 16 72 -22 0 1 0 226 -1.90625 1 0 1
0 -16 72 -22 0 1 0 226.5 -1.90625 1 0 1
0 -16 72 22 0 1 0 226.5 -1.5625 1 0 1
wood_urban_woodcabinets02b
0 16 72 -22 0 1 0 226 -1.90625 1 0 1
0 -16 72 22 0 1 0 226.5 -1.5625 1 0 1
0 16 72 22 0 1 0 226 -1.5625 1 0 1
wood_urban_woodcabinets02b
0 16 -72 22 0 -1 0 -226.25 -1.5625 1 0 1
0 -16 -72 22 0 -1 0 -226.75 -1.5625 1 0 1
0 -16 -72 -22 0 -1 0 -226.75 -1.90625 1 0 1
wood_urban_woodcabinets02b
0 16 -72 22 0 -1 0 -226.25 -1.5625 1 0 1
0 -16 -72 -22 0 -1 0 -226.75 -1.90625 1 0 1
0 16 -72 -22 0 -1 0 -226.25 -1.90625 1 0 1
wood_cabinets03
0 16 -72 -22 1 0 0 -37.981291 -6.997337 1 0 1
0 16 72 -22 1 0 0 -35.020765 -6.997337 1 0 1
0 16 72 22 1 0 0 -35.020765 -5.997482 1 0 1
wood_cabinets03
0 16 -72 -22 1 0 0 -37.981291 -6.997337 1 0 1
0 16 72 22 1 0 0 -35.020765 -5.997482 1 0 1
0 16 -72 22 1 0 0 -37.981291 -5.997482 1 0 1
wood_offdesktop
0 -26 128 26 0 1 0 226.21875 -1.1875 1 0 1
0 -26 128 22 0 1 0 226.21875 -1.21875 1 0 1
0 -59 128 22 0 1 0 226.734375 -1.21875 1 0 1
wood_offdesktop
0 -26 128 26 0 1 0 226.21875 -1.1875 1 0 1
0 -59 128 22 0 1 0 226.734375 -1.21875 1 0 1
0 -62 128 25 0 1 0 226.78125 -1.195312 1 0 1
wood_offdesktop
0 -26 128 26 0 1 0 226.21875 -1.1875 1 0 1
0 -62 128 25 0 1 0 226.78125 -1.195312 1 0 1
0 -62 128 26 0 1 0 226.78125 -1.1875 1 0 1
wood_offdesktop
0 -26 -24 22 0 -1 0 226.21875 3.03125 1 0 1
0 -26 -24 26 0 -1 0 226.21875 3 1 0 1
0 -62 -24 26 0 -1 0 226.78125 3 1 0 1
wood_offdesktop
0 -26 -24 22 0 -1 0 226.21875 3.03125 1 0 1
0 -62 -24 26 0 -1 0 226.78125 3 1 0 1
0 -62 -24 25 0 -1 0 226.78125 3.007812 1 0 1
wood_offdesktop
0 -26 -24 22 0 -1 0 226.21875 3.03125 1 0 1
0 -62 -24 25 0 -1 0 226.78125 3.007812 1 0 1
0 -59 -24 22 0 -1 0 226.734375 3.03125 1 0 1
wood_offdesktop
0 -62 -24 25 -1 0 0 4.796875 15 1 0 1
0 -62 -24 26 -1 0 0 4.78125 15 1 0 1
0 -62 128 26 -1 0 0 4.78125 13.8125 1 0 1
wood_offdesktop
0 -62 -24 25 -1 0 0 4.796875 15 1 0 1
0 -62 128 26 -1 0 0 4.78125 13.8125 1 0 1
0 -62 128 25 -1 0 0 4.796875 13.8125 1 0 1
wood_offdesktop
0 -26 -24 22 0 0 -1 -226.53125 15 1 0 1
0 -59 -24 22 0 0 -1 -227.046875 15 1 0 1
0 -59 128 22 0 0 -1 -227.046875 13.8125 1 0 1
wood_offdesktop
0 -26 -24 22 0 0 -1 -226.53125 15 1 0 1
0 -59 128 22 0 0 -1 -227.046875 13.8125 1 0 1
0 -26 128 22 0 0 -1 -226.53125 13.8125 1 0 1
wood_offdesktop
0 -62 -24 26 0 0 1 226.78125 15 1 0 1
0 -26 -24 26 0 0 1 226.21875 15 1 0 1
0 -26 128 26 0 0 1 226.21875 13.8125 1 0 1
wood_offdesktop
0 -62 -24 26 0 0 1 226.78125 15 1 0 1
0 -26 128 26 0 0 1 226.21875 13.8125 1 0 1
0 -62 128 26 0 0 1 226.78125 13.8125 1 0 1
wood_offdesktop
0 -59 -24 22 -0.707107 0 -0.707107 -157.133767 15 1 0 1
0 -62 -24 25 -0.707107 0 -0.707107 -157.200058 15 1 0 1
0 -62 128 25 -0.707107 0 -0.707107 -157.200058 13.8125 1 0 1
wood_offdesktop
0 -59 -24 22 -0.707107 0 -0.707107 -157.133767 15 1 0 1
0 -62 128 25 -0.707107 0 -0.707107 -157.200058 13.8125 1 0 1
0 -59 128 22 -0.707107 0 -0.707107 -157.133767 13.8125 1 0 1
bridge_se1_metal_flat_steel_01
0 162 80 90 -1 0 0 -2.931641 -21.223958 1 0 1
0 162 136 90 -1 0 0 -2.931641 -20.494792 1 0 1
0 162 132 86 -1 0 0 -2.983724 -20.546875 1 0 1
bridge_se1_metal_flat_steel_01
0 162 80 90 -1 0 0 -2.931641 -21.223958 1 0 1
0 162 132 86 -1 0 0 -2.983724 -20.546875 1 0 1
0 162 84 86 -1 0 0 -2.983724 -21.171875 1 0 1
bridge_se1_metal_flat_steel_01
0 172 84 86 1 0 0 2.620443 -21.171875 1 0 1
0 172 132 86 1 0 0 2.620443 -20.546875 1 0 1
0 172 136 90 1 0 0 2.568359 -20.494792 1 0 1
bridge_se1_metal_flat_steel_01
0 172 84 86 1 0 0 2.620443 -21.171875 1 0 1
0 172 136 90 1 0 0 2.568359 -20.494792 1 0 1
0 172 80 90 1 0 0 2.568359 -21.223958 1 0 1
bridge_se1_metal_flat_steel_01
0 162 84 86 0 0 -1 -186.470703 -21.171875 1 0 1
0 162 132 86 0 0 -1 -186.470703 -20.546875 1 0 1
0 172 132 86 0 0 -1 -186.340495 -20.546875 1 0 1
bridge_se1_metal_flat_steel_01
0 162 84 86 0 0 -1 -186.470703 -21.171875 1 0 1
0 172 132 86 0 0 -1 -186.340495 -20.546875 1 0 1
0 172 84 86 0 0 -1 -186.340495 -21.171875 1 0 1
wood_urban_woodcabinets02b
0 -26 -20 -22 0 -1 0 -226.5 -1.90625 1 0 1
0 -26 -20 22 0 -1 0 -226.5 -1.5625 1 0 1
0 -58 -20 22 0 -1 0 -227 -1.5625 1 0 1
wood_urban_woodcabinets02b
0 -26 -20 -22 0 -1 0 -226.5 -1.90625 1 0 1
0 -58 -20 22 0 -1 0 -227 -1.5625 1 0 1
0 -58 -20 -22 0 -1 0 -227 -1.90625 1 0 1
wood_cabinets03
0 -58 -20 -22 -1 0 0 36.978618 -6.997337 1 0 1
0 -58 -20 22 -1 0 0 36.978618 -5.997482 1 0 1
0 -58 124 22 -1 0 0 34.018092 -5.997482 1 0 1
wood_cabinets03
0 -58 -20 -22 -1 0 0 36.978618 -6.997337 1 0 1
0 -58 124 22 -1 0 0 34.018092 -5.997482 1 0 1
0 -58 124 -22 -1 0 0 34.018092 -6.997337 1 0 1
wood_urban_woodcabinets02b
0 -26 124 22 0 1 0 226.25 -1.5625 1 0 1
0 -26 124 -22 0 1 0 226.25 -1.90625 1 0 1
0 -58 124 -22 0 1 0 226.75 -1.90625 1 0 1
wood_urban_woodcabinets02b
0 -26 124 22 0 1 0 226.25 -1.5625 1 0 1
0 -58 124 -22 0 1 0 226.75 -1.90625 1 0 1
0 -58 124 22 0 1 0 226.75 -1.5625 1 0 1
bridge_se1_metal_flat_steel_01
0 -26 -152 90 -1 0 0 2.568359 26.50651 1 0 1
0 -26 -96 90 -1 0 0 2.568359 25.777344 1 0 1
0 -26 -100 86 -1 0 0 2.620443 25.829427 1 0 1
bridge_se1_metal_flat_steel_01
0 -26 -152 90 -1 0 0 2.568359 26.50651 1 0 1
0 -26 -100 86 -1 0 0 2.620443 25.829427 1 0 1
0 -26 -148 86 -1 0 0 2.620443 26.454427 1 0 1
bridge_se1_metal_flat_steel_01
0 -16 -148 86 1 0 0 -2.983724 26.454427 1 0 1
0 -16 -100 86 1 0 0 -2.983724 25.829427 1 0 1
0 -16 -96 90 1 0 0 -2.931641 25.777344 1 0 1
bridge_se1_metal_flat_steel_01
0 -16 -148 86 1 0 0 -2.983724 26.454427 1 0 1
0 -16 -96 90 1 0 0 -2.931641 25.777344 1 0 1
0 -16 -152 90 1 0 0 -2.931641 26.50651 1 0 1
bridge_se1_metal_flat_steel_01
0 -26 -148 86 0 0 -1 188.658854 26.454427 1 0 1
0 -26 -100 86 0 0 -1 188.658854 25.829427 1 0 1
0 -16 -100 86 0 0 -1 188.528646 25.829427 1 0 1
bridge_se1_metal_flat_steel_01
0 -26 -148 86 0 0 -1 188.658854 26.454427 1 0 1
0 -16 -100 86 0 0 -1 188.528646 25.829427 1 0 1
0 -16 -148 86 0 0 -1 188.528646 26.454427 1 0 1
end
