version 1
nodes
0 "root" -1
end
skeleton
time 0
0 0 0 0 0 0 0
end
triangles
pepsi2_arch_stairs01
0 35 192 45 0 1 0 170.050781 -19.71875 1 0 1
0 35 192 36 0 1 0 170.050781 -20 1 0 1
0 -109 192 36 0 1 0 172.300781 -20 1 0 1
pepsi2_arch_stairs01
0 35 192 45 0 1 0 170.050781 -19.71875 1 0 1
0 -109 192 36 0 1 0 172.300781 -20 1 0 1
0 -109 192 45 0 1 0 172.300781 -19.71875 1 0 1
pepsi2_arch_stairs01
0 35 177 45 0 0 1 170.050781 83.75 1 0 1
0 35 192 45 0 0 1 170.050781 83.28125 1 0 1
0 -109 192 45 0 0 1 172.300781 83.28125 1 0 1
pepsi2_arch_stairs01
0 35 177 45 0 0 1 170.050781 83.75 1 0 1
0 -109 192 45 0 0 1 172.300781 83.28125 1 0 1
0 -109 177 45 0 0 1 172.300781 83.75 1 0 1
pepsi2_arch_stairs01
0 35 222 27 0 1 0 170.050781 -20.71875 1 0 1
0 35 222 18 0 1 0 170.050781 -21 1 0 1
0 -109 222 18 0 1 0 172.300781 -21 1 0 1
pepsi2_arch_stairs01
0 35 222 27 0 1 0 170.050781 -20.71875 1 0 1
0 -109 222 18 0 1 0 172.300781 -21 1 0 1
0 -109 222 27 0 1 0 172.300781 -20.71875 1 0 1
pepsi2_arch_stairs01
0 35 207 27 0 0 1 170.050781 82.75 1 0 1
0 35 222 27 0 0 1 170.050781 82.28125 1 0 1
0 -109 222 27 0 0 1 172.300781 82.28125 1 0 1
pepsi2_arch_stairs01
0 35 207 27 0 0 1 170.050781 82.75 1 0 1
0 -109 222 27 0 0 1 172.300781 82.28125 1 0 1
0 -109 207 27 0 0 1 172.300781 82.75 1 0 1
pepsi2_arch_stairs01
0 35 132 81 0 1 0 170.050781 -18.71875 1 0 1
0 35 132 72 0 1 0 170.050781 -19 1 0 1
0 -109 132 72 0 1 0 172.300781 -19 1 0 1
pepsi2_arch_stairs01
0 35 132 81 0 1 0 170.050781 -18.71875 1 0 1
0 -109 132 72 0 1 0 172.300781 -19 1 0 1
0 -109 132 81 0 1 0 172.300781 -18.71875 1 0 1
pepsi2_arch_stairs01
0 35 117 81 0 0 1 170.050781 85.75 1 0 1
0 35 132 81 0 0 1 170.050781 85.28125 1 0 1
0 -109 132 81 0 0 1 172.300781 85.28125 1 0 1
pepsi2_arch_stairs01
0 35 117 81 0 0 1 170.050781 85.75 1 0 1
0 -109 132 81 0 0 1 172.300781 85.28125 1 0 1
0 -109 117 81 0 0 1 172.300781 85.75 1 0 1
bridge_se1_metal_flat_steel_01
0 -97 129 237 0 1 0 86.164062 -2.095703 1 0 1
0 -97 129 81 0 1 0 86.164062 -3.314453 1 0 1
0 -109 129 81 0 1 0 86.257812 -3.314453 1 0 1
bridge_se1_metal_flat_steel_01
0 -97 129 237 0 1 0 86.164062 -2.095703 1 0 1
0 -109 129 81 0 1 0 86.257812 -3.314453 1 0 1
0 -109 129 237 0 1 0 86.257812 -2.095703 1 0 1
bridge_se1_metal_flat_steel_01
0 -97 117 81 0 -1 0 -85.367188 -3.314453 1 0 1
0 -97 117 237 0 -1 0 -85.367188 -2.095703 1 0 1
0 -109 117 237 0 -1 0 -85.460938 -2.095703 1 0 1
bridge_se1_metal_flat_steel_01
0 -97 117 81 0 -1 0 -85.367188 -3.314453 1 0 1
0 -109 117 237 0 -1 0 -85.460938 -2.095703 1 0 1
0 -109 117 81 0 -1 0 -85.460938 -3.314453 1 0 1
bridge_se1_metal_flat_steel_01
0 -97 117 237 1 0 0 -21.648438 -2.095703 1 0 1
0 -97 117 81 1 0 0 -21.648438 -3.314453 1 0 1
0 -97 129 81 1 0 0 -21.554688 -3.314453 1 0 1
bridge_se1_metal_flat_steel_01
0 -97 117 237 1 0 0 -21.648438 -2.095703 1 0 1
0 -97 129 81 1 0 0 -21.554688 -3.314453 1 0 1
0 -97 129 237 1 0 0 -21.554688 -2.095703 1 0 1
pepsi2_arch_stairs01
0 35 162 63 0 1 0 170.050781 -19.71875 1 0 1
0 35 162 54 0 1 0 170.050781 -20 1 0 1
0 -109 162 54 0 1 0 172.300781 -20 1 0 1
pepsi2_arch_stairs01
0 35 162 63 0 1 0 170.050781 -19.71875 1 0 1
0 -109 162 54 0 1 0 172.300781 -20 1 0 1
0 -109 162 63 0 1 0 172.300781 -19.71875 1 0 1
pepsi2_arch_stairs01
0 35 147 63 0 0 1 170.050781 84.75 1 0 1
0 35 162 63 0 0 1 170.050781 84.28125 1 0 1
0 -109 162 63 0 0 1 172.300781 84.28125 1 0 1
pepsi2_arch_stairs01
0 35 147 63 0 0 1 170.050781 84.75 1 0 1
0 -109 162 63 0 0 1 172.300781 84.28125 1 0 1
0 -109 147 63 0 0 1 172.300781 84.75 1 0 1
pepsi2_arch_stairs01
0 -109 192 36 0 0 1 172.300781 83.75 1 0 1
0 35 192 36 0 0 1 170.050781 83.75 1 0 1
0 35 207 36 0 0 1 170.050781 83.28125 1 0 1
pepsi2_arch_stairs01
0 -109 192 36 0 0 1 172.300781 83.75 1 0 1
0 35 207 36 0 0 1 170.050781 83.28125 1 0 1
0 -109 207 36 0 0 1 172.300781 83.28125 1 0 1
pepsi2_arch_stairs01
0 35 207 27 0 1 0 170.050781 -20 1 0 1
0 -109 207 27 0 1 0 172.300781 -20 1 0 1
0 -109 207 36 0 1 0 172.300781 -19.71875 1 0 1
pepsi2_arch_stairs01
0 35 207 27 0 1 0 170.050781 -20 1 0 1
0 -109 207 36 0 1 0 172.300781 -19.71875 1 0 1
0 35 207 36 0 1 0 170.050781 -19.71875 1 0 1
pepsi2_arch_stairs01
0 -109 222 18 0 0 1 172.300781 82.75 1 0 1
0 35 222 18 0 0 1 170.050781 82.75 1 0 1
0 35 237 18 0 0 1 170.050781 82.28125 1 0 1
pepsi2_arch_stairs01
0 -109 222 18 0 0 1 172.300781 82.75 1 0 1
0 35 237 18 0 0 1 170.050781 82.28125 1 0 1
0 -109 237 18 0 0 1 172.300781 82.28125 1 0 1
pepsi2_arch_stairs01
0 35 237 9 0 1 0 170.050781 -21 1 0 1
0 -109 237 9 0 1 0 172.300781 -21 1 0 1
0 -109 237 18 0 1 0 172.300781 -20.71875 1 0 1
pepsi2_arch_stairs01
0 35 237 9 0 1 0 170.050781 -21 1 0 1
0 -109 237 18 0 1 0 172.300781 -20.71875 1 0 1
0 35 237 18 0 1 0 170.050781 -20.71875 1 0 1
bridge_se1_metal_flat_steel_01
0 35 129 237 0 1 0 85.132812 -2.095703 1 0 1
0 35 129 81 0 1 0 85.132812 -3.314453 1 0 1
0 23 129 81 0 1 0 85.226562 -3.314453 1 0 1
bridge_se1_metal_flat_steel_01
0 35 129 237 0 1 0 85.132812 -2.095703 1 0 1
0 23 129 81 0 1 0 85.226562 -3.314453 1 0 1
0 23 129 237 0 1 0 85.226562 -2.095703 1 0 1
bridge_se1_metal_flat_steel_01
0 35 117 81 0 -1 0 -84.335938 -3.314453 1 0 1
0 35 117 237 0 -1 0 -84.335938 -2.095703 1 0 1
0 23 117 237 0 -1 0 -84.429688 -2.095703 1 0 1
bridge_se1_metal_flat_steel_01
0 35 117 81 0 -1 0 -84.335938 -3.314453 1 0 1
0 23 117 237 0 -1 0 -84.429688 -2.095703 1 0 1
0 23 117 81 0 -1 0 -84.429688 -3.314453 1 0 1
bridge_se1_metal_flat_steel_01
0 23 117 81 -1 0 0 -21.648438 -3.314453 1 0 1
0 23 117 237 -1 0 0 -21.648438 -2.095703 1 0 1
0 23 129 237 -1 0 0 -21.554688 -2.095703 1 0 1
bridge_se1_metal_flat_steel_01
0 23 117 81 -1 0 0 -21.648438 -3.314453 1 0 1
0 23 129 237 -1 0 0 -21.554688 -2.095703 1 0 1
0 23 129 81 -1 0 0 -21.554688 -3.314453 1 0 1
pepsi2_arch_stairs01
0 -109 237 9 0 0 1 172.300781 81.75 1 0 1
0 35 237 9 0 0 1 170.050781 81.75 1 0 1
0 35 252 9 0 0 1 170.050781 81.28125 1 0 1
pepsi2_arch_stairs01
0 -109 237 9 0 0 1 172.300781 81.75 1 0 1
0 35 252 9 0 0 1 170.050781 81.28125 1 0 1
0 -109 252 9 0 0 1 172.300781 81.28125 1 0 1
pepsi2_arch_stairs01
0 35 252 0 0 1 0 170.050781 -21 1 0 1
0 -109 252 0 0 1 0 172.300781 -21 1 0 1
0 -109 252 9 0 1 0 172.300781 -20.71875 1 0 1
pepsi2_arch_stairs01
0 35 252 0 0 1 0 170.050781 -21 1 0 1
0 -109 252 9 0 1 0 172.300781 -20.71875 1 0 1
0 35 252 9 0 1 0 170.050781 -20.71875 1 0 1
pepsi2_arch_stairs01
0 35 132 72 0 0 1 170.050781 85.75 1 0 1
0 35 147 72 0 0 1 170.050781 85.28125 1 0 1
0 -109 147 72 0 0 1 172.300781 85.28125 1 0 1
pepsi2_arch_stairs01
0 35 132 72 0 0 1 170.050781 85.75 1 0 1
0 -109 147 72 0 0 1 172.300781 85.28125 1 0 1
0 -109 132 72 0 0 1 172.300781 85.75 1 0 1
pepsi2_arch_stairs01
0 35 147 72 0 1 0 170.050781 -18.71875 1 0 1
0 35 147 63 0 1 0 170.050781 -19 1 0 1
0 -109 147 63 0 1 0 172.300781 -19 1 0 1
pepsi2_arch_stairs01
0 35 147 72 0 1 0 170.050781 -18.71875 1 0 1
0 -109 147 63 0 1 0 172.300781 -19 1 0 1
0 -109 147 72 0 1 0 172.300781 -18.71875 1 0 1
pepsi2_arch_stairs01
0 35 177 54 0 1 0 170.050781 -19.71875 1 0 1
0 35 177 45 0 1 0 170.050781 -20 1 0 1
0 -109 177 45 0 1 0 172.300781 -20 1 0 1
pepsi2_arch_stairs01
0 35 177 54 0 1 0 170.050781 -19.71875 1 0 1
0 -109 177 45 0 1 0 172.300781 -20 1 0 1
0 -109 177 54 0 1 0 172.300781 -19.71875 1 0 1
pepsi2_arch_stairs01
0 35 162 54 0 0 1 170.050781 84.75 1 0 1
0 35 177 54 0 0 1 170.050781 84.28125 1 0 1
0 -109 177 54 0 0 1 172.300781 84.28125 1 0 1
pepsi2_arch_stairs01
0 35 162 54 0 0 1 170.050781 84.75 1 0 1
0 -109 177 54 0 0 1 172.300781 84.28125 1 0 1
0 -109 162 54 0 0 1 172.300781 84.75 1 0 1
pepsi2_arch_stairs01
0 109 -237 216 0 1 0 170.050781 -14.71875 1 0 1
0 109 -237 207 0 1 0 170.050781 -15 1 0 1
0 -36 -237 207 0 1 0 172.316406 -15 1 0 1
pepsi2_arch_stairs01
0 109 -237 216 0 1 0 170.050781 -14.71875 1 0 1
0 -36 -237 207 0 1 0 172.316406 -15 1 0 1
0 -36 -237 216 0 1 0 172.316406 -14.71875 1 0 1
pepsi2_arch_stairs01
0 109 -252 216 0 0 1 170.050781 96.75 1 0 1
0 109 -237 216 0 0 1 170.050781 96.28125 1 0 1
0 -36 -237 216 0 0 1 172.316406 96.28125 1 0 1
pepsi2_arch_stairs01
0 109 -252 216 0 0 1 170.050781 96.75 1 0 1
0 -36 -237 216 0 0 1 172.316406 96.28125 1 0 1
0 -36 -252 216 0 0 1 172.316406 96.75 1 0 1
pepsi2_arch_stairs01
0 109 -237 207 0 0 1 170.050781 95.75 1 0 1
0 109 -222 207 0 0 1 170.050781 95.28125 1 0 1
0 -36 -222 207 0 0 1 172.316406 95.28125 1 0 1
pepsi2_arch_stairs01
0 109 -237 207 0 0 1 170.050781 95.75 1 0 1
0 -36 -222 207 0 0 1 172.316406 95.28125 1 0 1
0 -36 -237 207 0 0 1 172.316406 95.75 1 0 1
pepsi2_arch_stairs01
0 109 -222 207 0 1 0 170.050781 -15.71875 1 0 1
0 109 -222 198 0 1 0 170.050781 -16 1 0 1
0 -36 -222 198 0 1 0 172.316406 -16 1 0 1
pepsi2_arch_stairs01
0 109 -222 207 0 1 0 170.050781 -15.71875 1 0 1
0 -36 -222 198 0 1 0 172.316406 -16 1 0 1
0 -36 -222 207 0 1 0 172.316406 -15.71875 1 0 1
pepsi2_arch_stairs01
0 109 -207 198 0 1 0 170.050781 -15.71875 1 0 1
0 109 -207 189 0 1 0 170.050781 -16 1 0 1
0 -36 -207 189 0 1 0 172.316406 -16 1 0 1
pepsi2_arch_stairs01
0 109 -207 198 0 1 0 170.050781 -15.71875 1 0 1
0 -36 -207 189 0 1 0 172.316406 -16 1 0 1
0 -36 -207 198 0 1 0 172.316406 -15.71875 1 0 1
pepsi2_arch_stairs01
0 109 -222 198 0 0 1 170.050781 95.75 1 0 1
0 109 -207 198 0 0 1 170.050781 95.28125 1 0 1
0 -36 -207 198 0 0 1 172.316406 95.28125 1 0 1
pepsi2_arch_stairs01
0 109 -222 198 0 0 1 170.050781 95.75 1 0 1
0 -36 -207 198 0 0 1 172.316406 95.28125 1 0 1
0 -36 -222 198 0 0 1 172.316406 95.75 1 0 1
pepsi2_arch_stairs01
0 109 -192 189 0 1 0 170.050781 -15.71875 1 0 1
0 109 -192 180 0 1 0 170.050781 -16 1 0 1
0 -36 -192 180 0 1 0 172.316406 -16 1 0 1
pepsi2_arch_stairs01
0 109 -192 189 0 1 0 170.050781 -15.71875 1 0 1
0 -36 -192 180 0 1 0 172.316406 -16 1 0 1
0 -36 -192 189 0 1 0 172.316406 -15.71875 1 0 1
pepsi2_arch_stairs01
0 109 -207 189 0 0 1 170.050781 94.75 1 0 1
0 109 -192 189 0 0 1 170.050781 94.28125 1 0 1
0 -36 -192 189 0 0 1 172.316406 94.28125 1 0 1
pepsi2_arch_stairs01
0 109 -207 189 0 0 1 170.050781 94.75 1 0 1
0 -36 -192 189 0 0 1 172.316406 94.28125 1 0 1
0 -36 -207 189 0 0 1 172.316406 94.75 1 0 1
pepsi2_arch_stairs01
0 109 -177 180 0 1 0 170.050781 -16.71875 1 0 1
0 109 -177 171 0 1 0 170.050781 -17 1 0 1
0 -36 -177 171 0 1 0 172.316406 -17 1 0 1
pepsi2_arch_stairs01
0 109 -177 180 0 1 0 170.050781 -16.71875 1 0 1
0 -36 -177 171 0 1 0 172.316406 -17 1 0 1
0 -36 -177 180 0 1 0 172.316406 -16.71875 1 0 1
pepsi2_arch_stairs01
0 109 -192 180 0 0 1 170.050781 94.75 1 0 1
0 109 -177 180 0 0 1 170.050781 94.28125 1 0 1
0 -36 -177 180 0 0 1 172.316406 94.28125 1 0 1
pepsi2_arch_stairs01
0 109 -192 180 0 0 1 170.050781 94.75 1 0 1
0 -36 -177 180 0 0 1 172.316406 94.28125 1 0 1
0 -36 -192 180 0 0 1 172.316406 94.75 1 0 1
pepsi2_arch_stairs01
0 109 -147 162 0 1 0 170.050781 -16.71875 1 0 1
0 109 -147 153 0 1 0 170.050781 -17 1 0 1
0 -36 -147 153 0 1 0 172.316406 -17 1 0 1
pepsi2_arch_stairs01
0 109 -147 162 0 1 0 170.050781 -16.71875 1 0 1
0 -36 -147 153 0 1 0 172.316406 -17 1 0 1
0 -36 -147 162 0 1 0 172.316406 -16.71875 1 0 1
pepsi2_arch_stairs01
0 109 -162 162 0 0 1 170.050781 93.75 1 0 1
0 109 -147 162 0 0 1 170.050781 93.28125 1 0 1
0 -36 -147 162 0 0 1 172.316406 93.28125 1 0 1
pepsi2_arch_stairs01
0 109 -162 162 0 0 1 170.050781 93.75 1 0 1
0 -36 -147 162 0 0 1 172.316406 93.28125 1 0 1
0 -36 -162 162 0 0 1 172.316406 93.75 1 0 1
pepsi2_arch_stairs01
0 -36 -132 144 0 0 1 172.316406 92.75 1 0 1
0 109 -132 144 0 0 1 170.050781 92.75 1 0 1
0 109 -117 144 0 0 1 170.050781 92.28125 1 0 1
pepsi2_arch_stairs01
0 -36 -132 144 0 0 1 172.316406 92.75 1 0 1
0 109 -117 144 0 0 1 170.050781 92.28125 1 0 1
0 -36 -117 144 0 0 1 172.316406 92.28125 1 0 1
pepsi2_arch_stairs01
0 109 -117 135 0 1 0 170.050781 -18 1 0 1
0 -36 -117 135 0 1 0 172.316406 -18 1 0 1
0 -36 -117 144 0 1 0 172.316406 -17.71875 1 0 1
pepsi2_arch_stairs01
0 109 -117 135 0 1 0 170.050781 -18 1 0 1
0 -36 -117 144 0 1 0 172.316406 -17.71875 1 0 1
0 109 -117 144 0 1 0 170.050781 -17.71875 1 0 1
pepsi2_arch_stairs01
0 109 -87 126 0 1 0 170.050781 -17.71875 1 0 1
0 109 -87 117 0 1 0 170.050781 -18 1 0 1
0 -36 -87 117 0 1 0 172.316406 -18 1 0 1
pepsi2_arch_stairs01
0 109 -87 126 0 1 0 170.050781 -17.71875 1 0 1
0 -36 -87 117 0 1 0 172.316406 -18 1 0 1
0 -36 -87 126 0 1 0 172.316406 -17.71875 1 0 1
pepsi2_arch_stairs01
0 109 -102 126 0 0 1 170.050781 91.75 1 0 1
0 109 -87 126 0 0 1 170.050781 91.28125 1 0 1
0 -36 -87 126 0 0 1 172.316406 91.28125 1 0 1
pepsi2_arch_stairs01
0 109 -102 126 0 0 1 170.050781 91.75 1 0 1
0 -36 -87 126 0 0 1 172.316406 91.28125 1 0 1
0 -36 -102 126 0 0 1 172.316406 91.75 1 0 1
pepsi2_arch_stairs01
0 109 -57 108 0 1 0 170.050781 -18.71875 1 0 1
0 109 -57 99 0 1 0 170.050781 -19 1 0 1
0 -36 -57 99 0 1 0 172.316406 -19 1 0 1
pepsi2_arch_stairs01
0 109 -57 108 0 1 0 170.050781 -18.71875 1 0 1
0 -36 -57 99 0 1 0 172.316406 -19 1 0 1
0 -36 -57 108 0 1 0 172.316406 -18.71875 1 0 1
pepsi2_arch_stairs01
0 109 -72 108 0 0 1 170.050781 90.75 1 0 1
0 109 -57 108 0 0 1 170.050781 90.28125 1 0 1
0 -36 -57 108 0 0 1 172.316406 90.28125 1 0 1
pepsi2_arch_stairs01
0 109 -72 108 0 0 1 170.050781 90.75 1 0 1
0 -36 -57 108 0 0 1 172.316406 90.28125 1 0 1
0 -36 -72 108 0 0 1 172.316406 90.75 1 0 1
pepsi2_arch_stairs01
0 109 -27 90 0 1 0 170.050781 -18.71875 1 0 1
0 109 -27 81 0 1 0 170.050781 -19 1 0 1
0 -36 -27 81 0 1 0 172.316406 -19 1 0 1
pepsi2_arch_stairs01
0 109 -27 90 0 1 0 170.050781 -18.71875 1 0 1
0 -36 -27 81 0 1 0 172.316406 -19 1 0 1
0 -36 -27 90 0 1 0 172.316406 -18.71875 1 0 1
pepsi2_arch_stairs01
0 109 -42 90 0 0 1 170.050781 89.75 1 0 1
0 109 -27 90 0 0 1 170.050781 89.28125 1 0 1
0 -36 -27 90 0 0 1 172.316406 89.28125 1 0 1
pepsi2_arch_stairs01
0 109 -42 90 0 0 1 170.050781 89.75 1 0 1
0 -36 -27 90 0 0 1 172.316406 89.28125 1 0 1
0 -36 -42 90 0 0 1 172.316406 89.75 1 0 1
pepsi2_arch_stairs01
0 -36 -57 99 0 0 1 172.316406 90.75 1 0 1
0 109 -57 99 0 0 1 170.050781 90.75 1 0 1
0 109 -42 99 0 0 1 170.050781 90.28125 1 0 1
pepsi2_arch_stairs01
0 -36 -57 99 0 0 1 172.316406 90.75 1 0 1
0 109 -42 99 0 0 1 170.050781 90.28125 1 0 1
0 -36 -42 99 0 0 1 172.316406 90.28125 1 0 1
pepsi2_arch_stairs01
0 109 -42 90 0 1 0 170.050781 -19 1 0 1
0 -36 -42 90 0 1 0 172.316406 -19 1 0 1
0 -36 -42 99 0 1 0 172.316406 -18.71875 1 0 1
pepsi2_arch_stairs01
0 109 -42 90 0 1 0 170.050781 -19 1 0 1
0 -36 -42 99 0 1 0 172.316406 -18.71875 1 0 1
0 109 -42 99 0 1 0 170.050781 -18.71875 1 0 1
pepsi2_arch_stairs01
0 -36 -87 117 0 0 1 172.316406 90.75 1 0 1
0 109 -87 117 0 0 1 170.050781 90.75 1 0 1
0 109 -72 117 0 0 1 170.050781 90.28125 1 0 1
pepsi2_arch_stairs01
0 -36 -87 117 0 0 1 172.316406 90.75 1 0 1
0 109 -72 117 0 0 1 170.050781 90.28125 1 0 1
0 -36 -72 117 0 0 1 172.316406 90.28125 1 0 1
pepsi2_arch_stairs01
0 109 -72 108 0 1 0 170.050781 -18 1 0 1
0 -36 -72 108 0 1 0 172.316406 -18 1 0 1
0 -36 -72 117 0 1 0 172.316406 -17.71875 1 0 1
pepsi2_arch_stairs01
0 109 -72 108 0 1 0 170.050781 -18 1 0 1
0 -36 -72 117 0 1 0 172.316406 -17.71875 1 0 1
0 109 -72 117 0 1 0 170.050781 -17.71875 1 0 1
pepsi2_arch_stairs01
0 109 -102 135 0 1 0 170.050781 -17.71875 1 0 1
0 109 -102 126 0 1 0 170.050781 -18 1 0 1
0 -36 -102 126 0 1 0 172.316406 -18 1 0 1
pepsi2_arch_stairs01
0 109 -102 135 0 1 0 170.050781 -17.71875 1 0 1
0 -36 -102 126 0 1 0 172.316406 -18 1 0 1
0 -36 -102 135 0 1 0 172.316406 -17.71875 1 0 1
pepsi2_arch_stairs01
0 109 -117 135 0 0 1 170.050781 91.75 1 0 1
0 109 -102 135 0 0 1 170.050781 91.28125 1 0 1
0 -36 -102 135 0 0 1 172.316406 91.28125 1 0 1
pepsi2_arch_stairs01
0 109 -117 135 0 0 1 170.050781 91.75 1 0 1
0 -36 -102 135 0 0 1 172.316406 91.28125 1 0 1
0 -36 -117 135 0 0 1 172.316406 91.75 1 0 1
pepsi2_arch_stairs01
0 -36 -147 153 0 0 1 172.316406 92.75 1 0 1
0 109 -147 153 0 0 1 170.050781 92.75 1 0 1
0 109 -132 153 0 0 1 170.050781 92.28125 1 0 1
pepsi2_arch_stairs01
0 -36 -147 153 0 0 1 172.316406 92.75 1 0 1
0 109 -132 153 0 0 1 170.050781 92.28125 1 0 1
0 -36 -132 153 0 0 1 172.316406 92.28125 1 0 1
pepsi2_arch_stairs01
0 109 -132 144 0 1 0 170.050781 -17 1 0 1
0 -36 -132 144 0 1 0 172.316406 -17 1 0 1
0 -36 -132 153 0 1 0 172.316406 -16.71875 1 0 1
pepsi2_arch_stairs01
0 109 -132 144 0 1 0 170.050781 -17 1 0 1
0 -36 -132 153 0 1 0 172.316406 -16.71875 1 0 1
0 109 -132 153 0 1 0 170.050781 -16.71875 1 0 1
pepsi2_arch_stairs01
0 -36 -177 171 0 0 1 172.316406 93.75 1 0 1
0 109 -177 171 0 0 1 170.050781 93.75 1 0 1
0 109 -162 171 0 0 1 170.050781 93.28125 1 0 1
pepsi2_arch_stairs01
0 -36 -177 171 0 0 1 172.316406 93.75 1 0 1
0 109 -162 171 0 0 1 170.050781 93.28125 1 0 1
0 -36 -162 171 0 0 1 172.316406 93.28125 1 0 1
pepsi2_arch_stairs01
0 109 -162 162 0 1 0 170.050781 -17 1 0 1
0 -36 -162 162 0 1 0 172.316406 -17 1 0 1
0 -36 -162 171 0 1 0 172.316406 -16.71875 1 0 1
pepsi2_arch_stairs01
0 109 -162 162 0 1 0 170.050781 -17 1 0 1
0 -36 -162 171 0 1 0 172.316406 -16.71875 1 0 1
0 109 -162 171 0 1 0 170.050781 -16.71875 1 0 1
end
