version 1
nodes
0 "root" -1
end
skeleton
time 0
0 0 0 0 0 0 0
end
triangles
phys
0 54 175 246.999 0 0 1 1 0 1 0 1
0 54 175 135 0 0 1 1 0 1 0 1
0 50 175 135 0 0 1 1 0 1 0 1
phys
0 54 175 246.999 0 0 1 1 0 1 0 1
0 50 175 135 0 0 1 1 0 1 0 1
0 50 175 242.999 0 0 1 1 0 1 0 1
phys
0 54 167 135 0 0 1 1 0 1 0 1
0 54 167 246.999 0 0 1 1 0 1 0 1
0 50 167 242.999 0 0 1 1 0 1 0 1
phys
0 54 167 135 0 0 1 1 0 1 0 1
0 50 167 242.999 0 0 1 1 0 1 0 1
0 50 167 135 0 0 1 1 0 1 0 1
phys
0 50 167 135 0 0 1 1 0 1 0 1
0 50 167 242.999 0 0 1 1 0 1 0 1
0 50 175 242.999 0 0 1 1 0 1 0 1
phys
0 50 167 135 0 0 1 1 0 1 0 1
0 50 175 242.999 0 0 1 1 0 1 0 1
0 50 175 135 0 0 1 1 0 1 0 1
phys
0 54 167 246.999 0 0 1 1 0 1 0 1
0 54 167 135 0 0 1 1 0 1 0 1
0 54 175 135 0 0 1 1 0 1 0 1
phys
0 54 167 246.999 0 0 1 1 0 1 0 1
0 54 175 135 0 0 1 1 0 1 0 1
0 54 175 246.999 0 0 1 1 0 1 0 1
phys
0 54 167 135 0 0 1 1 0 1 0 1
0 50 167 135 0 0 1 1 0 1 0 1
0 50 175 135 0 0 1 1 0 1 0 1
phys
0 54 167 135 0 0 1 1 0 1 0 1
0 50 175 135 0 0 1 1 0 1 0 1
0 54 175 135 0 0 1 1 0 1 0 1
phys
0 50 167 242.999 0 0 1 1 0 1 0 1
0 54 167 246.999 0 0 1 1 0 1 0 1
0 54 175 246.999 0 0 1 1 0 1 0 1
phys
0 50 167 242.999 0 0 1 1 0 1 0 1
0 54 175 246.999 0 0 1 1 0 1 0 1
0 50 175 242.999 0 0 1 1 0 1 0 1
phys
0 -70 -181 500 0 0 1 2 0 1 0 1
0 -70 -181 385 0 0 1 2 0 1 0 1
0 -72 -181 385 0 0 1 2 0 1 0 1
phys
0 -70 -181 500 0 0 1 2 0 1 0 1
0 -72 -181 385 0 0 1 2 0 1 0 1
0 -72 -181 500 0 0 1 2 0 1 0 1
phys
0 -70 -189 385 0 0 1 2 0 1 0 1
0 -70 -189 500 0 0 1 2 0 1 0 1
0 -72 -189 500 0 0 1 2 0 1 0 1
phys
0 -70 -189 385 0 0 1 2 0 1 0 1
0 -72 -189 500 0 0 1 2 0 1 0 1
0 -72 -189 385 0 0 1 2 0 1 0 1
phys
0 -72 -189 385 0 0 1 2 0 1 0 1
0 -72 -189 500 0 0 1 2 0 1 0 1
0 -72 -181 500 0 0 1 2 0 1 0 1
phys
0 -72 -189 385 0 0 1 2 0 1 0 1
0 -72 -181 500 0 0 1 2 0 1 0 1
0 -72 -181 385 0 0 1 2 0 1 0 1
phys
0 -70 -189 500 0 0 1 2 0 1 0 1
0 -70 -189 385 0 0 1 2 0 1 0 1
0 -70 -181 385 0 0 1 2 0 1 0 1
phys
0 -70 -189 500 0 0 1 2 0 1 0 1
0 -70 -181 385 0 0 1 2 0 1 0 1
0 -70 -181 500 0 0 1 2 0 1 0 1
phys
0 -70 -189 385 0 0 1 2 0 1 0 1
0 -72 -189 385 0 0 1 2 0 1 0 1
0 -72 -181 385 0 0 1 2 0 1 0 1
phys
0 -70 -189 385 0 0 1 2 0 1 0 1
0 -72 -181 385 0 0 1 2 0 1 0 1
0 -70 -181 385 0 0 1 2 0 1 0 1
phys
0 -72 -189 500 0 0 1 2 0 1 0 1
0 -70 -189 500 0 0 1 2 0 1 0 1
0 -70 -181 500 0 0 1 2 0 1 0 1
phys
0 -72 -189 500 0 0 1 2 0 1 0 1
0 -70 -181 500 0 0 1 2 0 1 0 1
0 -72 -181 500 0 0 1 2 0 1 0 1
phys
0 -100 -183 178 0 0 1 3 0 1 0 1
0 -100 -183 135 0 0 1 3 0 1 0 1
0 -106 -183 135 0 0 1 3 0 1 0 1
phys
0 -100 -183 178 0 0 1 3 0 1 0 1
0 -106 -183 135 0 0 1 3 0 1 0 1
0 -106 -183 178 0 0 1 3 0 1 0 1
phys
0 -100 -189 135 0 0 1 3 0 1 0 1
0 -100 -189 178 0 0 1 3 0 1 0 1
0 -106 -189 178 0 0 1 3 0 1 0 1
phys
0 -100 -189 135 0 0 1 3 0 1 0 1
0 -106 -189 178 0 0 1 3 0 1 0 1
0 -106 -189 135 0 0 1 3 0 1 0 1
phys
0 -106 -189 135 0 0 1 3 0 1 0 1
0 -106 -189 178 0 0 1 3 0 1 0 1
0 -106 -183 178 0 0 1 3 0 1 0 1
phys
0 -106 -189 135 0 0 1 3 0 1 0 1
0 -106 -183 178 0 0 1 3 0 1 0 1
0 -106 -183 135 0 0 1 3 0 1 0 1
phys
0 -100 -189 178 0 0 1 3 0 1 0 1
0 -100 -189 135 0 0 1 3 0 1 0 1
0 -100 -183 135 0 0 1 3 0 1 0 1
phys
0 -100 -189 178 0 0 1 3 0 1 0 1
0 -100 -183 135 0 0 1 3 0 1 0 1
0 -100 -183 178 0 0 1 3 0 1 0 1
phys
0 -100 -189 135 0 0 1 3 0 1 0 1
0 -106 -189 135 0 0 1 3 0 1 0 1
0 -106 -183 135 0 0 1 3 0 1 0 1
phys
0 -100 -189 135 0 0 1 3 0 1 0 1
0 -106 -183 135 0 0 1 3 0 1 0 1
0 -100 -183 135 0 0 1 3 0 1 0 1
phys
0 -106 -189 178 0 0 1 3 0 1 0 1
0 -100 -189 178 0 0 1 3 0 1 0 1
0 -100 -183 178 0 0 1 3 0 1 0 1
phys
0 -106 -189 178 0 0 1 3 0 1 0 1
0 -100 -183 178 0 0 1 3 0 1 0 1
0 -106 -183 178 0 0 1 3 0 1 0 1
phys
0 249 -1 417 0 0 1 4 0 1 0 1
0 249 -1 407 0 0 1 4 0 1 0 1
0 57 -1 407 0 0 1 4 0 1 0 1
phys
0 249 -1 417 0 0 1 4 0 1 0 1
0 57 -1 407 0 0 1 4 0 1 0 1
0 57 -1 417 0 0 1 4 0 1 0 1
phys
0 249 -9 414.9993 0 0 1 4 0 1 0 1
0 249 -9 417 0 0 1 4 0 1 0 1
0 57 -9 417 0 0 1 4 0 1 0 1
phys
0 249 -9 414.9993 0 0 1 4 0 1 0 1
0 57 -9 417 0 0 1 4 0 1 0 1
0 57 -9 414.9993 0 0 1 4 0 1 0 1
phys
0 57 -9 414.9993 0 0 1 4 0 1 0 1
0 57 -9 417 0 0 1 4 0 1 0 1
0 57 -1 417 0 0 1 4 0 1 0 1
phys
0 57 -9 414.9993 0 0 1 4 0 1 0 1
0 57 -1 417 0 0 1 4 0 1 0 1
0 57 -1 407 0 0 1 4 0 1 0 1
phys
0 57 -9 414.9993 0 0 1 4 0 1 0 1
0 57 -1 407 0 0 1 4 0 1 0 1
0 57 -3 407 0 0 1 4 0 1 0 1
phys
0 249 -9 417 0 0 1 4 0 1 0 1
0 249 -9 414.9993 0 0 1 4 0 1 0 1
0 249 -3 407 0 0 1 4 0 1 0 1
phys
0 249 -9 417 0 0 1 4 0 1 0 1
0 249 -3 407 0 0 1 4 0 1 0 1
0 249 -1 407 0 0 1 4 0 1 0 1
phys
0 249 -9 417 0 0 1 4 0 1 0 1
0 249 -1 407 0 0 1 4 0 1 0 1
0 249 -1 417 0 0 1 4 0 1 0 1
phys
0 57 -3 407 0 0 1 4 0 1 0 1
0 57 -1 407 0 0 1 4 0 1 0 1
0 249 -1 407 0 0 1 4 0 1 0 1
phys
0 57 -3 407 0 0 1 4 0 1 0 1
0 249 -1 407 0 0 1 4 0 1 0 1
0 249 -3 407 0 0 1 4 0 1 0 1
phys
0 57 -9 417 0 0 1 4 0 1 0 1
0 249 -9 417 0 0 1 4 0 1 0 1
0 249 -1 417 0 0 1 4 0 1 0 1
phys
0 57 -9 417 0 0 1 4 0 1 0 1
0 249 -1 417 0 0 1 4 0 1 0 1
0 57 -1 417 0 0 1 4 0 1 0 1
phys
0 249 -9 414.9993 0 0 1 4 0 1 0 1
0 57 -9 414.9993 0 0 1 4 0 1 0 1
0 57 -3 407 0 0 1 4 0 1 0 1
phys
0 249 -9 414.9993 0 0 1 4 0 1 0 1
0 57 -3 407 0 0 1 4 0 1 0 1
0 249 -3 407 0 0 1 4 0 1 0 1
phys
0 -26 -17 515 0 0 1 5 0 1 0 1
0 -38 -17 515 0 0 1 5 0 1 0 1
0 -38 -17 135 0 0 1 5 0 1 0 1
phys
0 -26 -17 515 0 0 1 5 0 1 0 1
0 -38 -17 135 0 0 1 5 0 1 0 1
0 -26 -17 135 0 0 1 5 0 1 0 1
phys
0 -60 -5 515 0 0 1 5 0 1 0 1
0 -60 -1 515 0 0 1 5 0 1 0 1
0 -60 -1 135 0 0 1 5 0 1 0 1
phys
0 -60 -5 515 0 0 1 5 0 1 0 1
0 -60 -1 135 0 0 1 5 0 1 0 1
0 -60 -5 135 0 0 1 5 0 1 0 1
phys
0 -2 -5 135 0 0 1 5 0 1 0 1
0 -2 -1 135 0 0 1 5 0 1 0 1
0 -2 -1 515 0 0 1 5 0 1 0 1
phys
0 -2 -5 135 0 0 1 5 0 1 0 1
0 -2 -1 515 0 0 1 5 0 1 0 1
0 -2 -5 515 0 0 1 5 0 1 0 1
phys
0 -26 -17 135 0 0 1 5 0 1 0 1
0 -38 -17 135 0 0 1 5 0 1 0 1
0 -60 -5 135 0 0 1 5 0 1 0 1
phys
0 -26 -17 135 0 0 1 5 0 1 0 1
0 -60 -5 135 0 0 1 5 0 1 0 1
0 -60 -1 135 0 0 1 5 0 1 0 1
phys
0 -26 -17 135 0 0 1 5 0 1 0 1
0 -60 -1 135 0 0 1 5 0 1 0 1
0 -2 -1 135 0 0 1 5 0 1 0 1
phys
0 -26 -17 135 0 0 1 5 0 1 0 1
0 -2 -1 135 0 0 1 5 0 1 0 1
0 -2 -5 135 0 0 1 5 0 1 0 1
phys
0 -38 -17 515 0 0 1 5 0 1 0 1
0 -26 -17 515 0 0 1 5 0 1 0 1
0 -2 -5 515 0 0 1 5 0 1 0 1
phys
0 -38 -17 515 0 0 1 5 0 1 0 1
0 -2 -5 515 0 0 1 5 0 1 0 1
0 -2 -1 515 0 0 1 5 0 1 0 1
phys
0 -38 -17 515 0 0 1 5 0 1 0 1
0 -2 -1 515 0 0 1 5 0 1 0 1
0 -60 -1 515 0 0 1 5 0 1 0 1
phys
0 -38 -17 515 0 0 1 5 0 1 0 1
0 -60 -1 515 0 0 1 5 0 1 0 1
0 -60 -5 515 0 0 1 5 0 1 0 1
phys
0 -26 -17 515 0 0 1 5 0 1 0 1
0 -26 -17 135 0 0 1 5 0 1 0 1
0 -2 -5 135 0 0 1 5 0 1 0 1
phys
0 -26 -17 515 0 0 1 5 0 1 0 1
0 -2 -5 135 0 0 1 5 0 1 0 1
0 -2 -5 515 0 0 1 5 0 1 0 1
phys
0 -38 -17 135 0 0 1 5 0 1 0 1
0 -38 -17 515 0 0 1 5 0 1 0 1
0 -60 -5 515 0 0 1 5 0 1 0 1
phys
0 -38 -17 135 0 0 1 5 0 1 0 1
0 -60 -5 515 0 0 1 5 0 1 0 1
0 -60 -5 135 0 0 1 5 0 1 0 1
phys
0 -2 -1 515 0 0 1 5 0 1 0 1
0 -2 -1 135 0 0 1 5 0 1 0 1
0 -60 -1 135 0 0 1 5 0 1 0 1
phys
0 -2 -1 515 0 0 1 5 0 1 0 1
0 -60 -1 135 0 0 1 5 0 1 0 1
0 -60 -1 515 0 0 1 5 0 1 0 1
phys
0 -72 -181 417 0 0 1 6 0 1 0 1
0 -72 -181 415 0 0 1 6 0 1 0 1
0 -159 -181 415 0 0 1 6 0 1 0 1
phys
0 -72 -181 417 0 0 1 6 0 1 0 1
0 -159 -181 415 0 0 1 6 0 1 0 1
0 -159 -181 417 0 0 1 6 0 1 0 1
phys
0 -72 -189 415 0 0 1 6 0 1 0 1
0 -72 -189 417 0 0 1 6 0 1 0 1
0 -159 -189 417 0 0 1 6 0 1 0 1
phys
0 -72 -189 415 0 0 1 6 0 1 0 1
0 -159 -189 417 0 0 1 6 0 1 0 1
0 -159 -189 415 0 0 1 6 0 1 0 1
phys
0 -159 -189 415 0 0 1 6 0 1 0 1
0 -159 -189 417 0 0 1 6 0 1 0 1
0 -159 -181 417 0 0 1 6 0 1 0 1
phys
0 -159 -189 415 0 0 1 6 0 1 0 1
0 -159 -181 417 0 0 1 6 0 1 0 1
0 -159 -181 415 0 0 1 6 0 1 0 1
phys
0 -72 -189 417 0 0 1 6 0 1 0 1
0 -72 -189 415 0 0 1 6 0 1 0 1
0 -72 -181 415 0 0 1 6 0 1 0 1
phys
0 -72 -189 417 0 0 1 6 0 1 0 1
0 -72 -181 415 0 0 1 6 0 1 0 1
0 -72 -181 417 0 0 1 6 0 1 0 1
phys
0 -72 -189 415 0 0 1 6 0 1 0 1
0 -159 -189 415 0 0 1 6 0 1 0 1
0 -159 -181 415 0 0 1 6 0 1 0 1
phys
0 -72 -189 415 0 0 1 6 0 1 0 1
0 -159 -181 415 0 0 1 6 0 1 0 1
0 -72 -181 415 0 0 1 6 0 1 0 1
phys
0 -159 -189 417 0 0 1 6 0 1 0 1
0 -72 -189 417 0 0 1 6 0 1 0 1
0 -72 -181 417 0 0 1 6 0 1 0 1
phys
0 -159 -189 417 0 0 1 6 0 1 0 1
0 -72 -181 417 0 0 1 6 0 1 0 1
0 -159 -181 417 0 0 1 6 0 1 0 1
phys
0 -72 -184 500 0 0 1 7 0 1 0 1
0 -72 -184 385 0 0 1 7 0 1 0 1
0 -247 -184 385 0 0 1 7 0 1 0 1
phys
0 -72 -184 500 0 0 1 7 0 1 0 1
0 -247 -184 385 0 0 1 7 0 1 0 1
0 -247 -184 500 0 0 1 7 0 1 0 1
phys
0 -72 -186 385 0 0 1 7 0 1 0 1
0 -72 -186 500 0 0 1 7 0 1 0 1
0 -247 -186 500 0 0 1 7 0 1 0 1
phys
0 -72 -186 385 0 0 1 7 0 1 0 1
0 -247 -186 500 0 0 1 7 0 1 0 1
0 -247 -186 385 0 0 1 7 0 1 0 1
phys
0 -247 -186 385 0 0 1 7 0 1 0 1
0 -247 -186 500 0 0 1 7 0 1 0 1
0 -247 -184 500 0 0 1 7 0 1 0 1
phys
0 -247 -186 385 0 0 1 7 0 1 0 1
0 -247 -184 500 0 0 1 7 0 1 0 1
0 -247 -184 385 0 0 1 7 0 1 0 1
phys
0 -72 -186 500 0 0 1 7 0 1 0 1
0 -72 -186 385 0 0 1 7 0 1 0 1
0 -72 -184 385 0 0 1 7 0 1 0 1
phys
0 -72 -186 500 0 0 1 7 0 1 0 1
0 -72 -184 385 0 0 1 7 0 1 0 1
0 -72 -184 500 0 0 1 7 0 1 0 1
phys
0 -72 -186 385 0 0 1 7 0 1 0 1
0 -247 -186 385 0 0 1 7 0 1 0 1
0 -247 -184 385 0 0 1 7 0 1 0 1
phys
0 -72 -186 385 0 0 1 7 0 1 0 1
0 -247 -184 385 0 0 1 7 0 1 0 1
0 -72 -184 385 0 0 1 7 0 1 0 1
phys
0 -247 -186 500 0 0 1 7 0 1 0 1
0 -72 -186 500 0 0 1 7 0 1 0 1
0 -72 -184 500 0 0 1 7 0 1 0 1
phys
0 -247 -186 500 0 0 1 7 0 1 0 1
0 -72 -184 500 0 0 1 7 0 1 0 1
0 -247 -184 500 0 0 1 7 0 1 0 1
phys
0 -140 -105 177.999 0 0 1 8 0 1 0 1
0 -180 -105 177.999 0 0 1 8 0 1 0 1
0 -180 -103 176 0 0 1 8 0 1 0 1
phys
0 -140 -105 177.999 0 0 1 8 0 1 0 1
0 -180 -103 176 0 0 1 8 0 1 0 1
0 -140 -103 176 0 0 1 8 0 1 0 1
phys
0 -140 -100 326 0 0 1 8 0 1 0 1
0 -140 -100 176 0 0 1 8 0 1 0 1
0 -180 -100 176 0 0 1 8 0 1 0 1
phys
0 -140 -100 326 0 0 1 8 0 1 0 1
0 -180 -100 176 0 0 1 8 0 1 0 1
0 -180 -100 326 0 0 1 8 0 1 0 1
phys
0 -180 -105 324.001 0 0 1 8 0 1 0 1
0 -180 -105 177.999 0 0 1 8 0 1 0 1
0 -140 -105 177.999 0 0 1 8 0 1 0 1
phys
0 -180 -105 324.001 0 0 1 8 0 1 0 1
0 -140 -105 177.999 0 0 1 8 0 1 0 1
0 -140 -105 324.001 0 0 1 8 0 1 0 1
phys
0 -180 -103 176 0 0 1 8 0 1 0 1
0 -180 -105 177.999 0 0 1 8 0 1 0 1
0 -180 -105 324.001 0 0 1 8 0 1 0 1
phys
0 -180 -103 176 0 0 1 8 0 1 0 1
0 -180 -105 324.001 0 0 1 8 0 1 0 1
0 -180 -103 326 0 0 1 8 0 1 0 1
phys
0 -180 -103 176 0 0 1 8 0 1 0 1
0 -180 -103 326 0 0 1 8 0 1 0 1
0 -180 -100 326 0 0 1 8 0 1 0 1
phys
0 -180 -103 176 0 0 1 8 0 1 0 1
0 -180 -100 326 0 0 1 8 0 1 0 1
0 -180 -100 176 0 0 1 8 0 1 0 1
phys
0 -140 -105 324.001 0 0 1 8 0 1 0 1
0 -140 -105 177.999 0 0 1 8 0 1 0 1
0 -140 -103 176 0 0 1 8 0 1 0 1
phys
0 -140 -105 324.001 0 0 1 8 0 1 0 1
0 -140 -103 176 0 0 1 8 0 1 0 1
0 -140 -100 176 0 0 1 8 0 1 0 1
phys
0 -140 -105 324.001 0 0 1 8 0 1 0 1
0 -140 -100 176 0 0 1 8 0 1 0 1
0 -140 -100 326 0 0 1 8 0 1 0 1
phys
0 -140 -105 324.001 0 0 1 8 0 1 0 1
0 -140 -100 326 0 0 1 8 0 1 0 1
0 -140 -103 326 0 0 1 8 0 1 0 1
phys
0 -140 -103 176 0 0 1 8 0 1 0 1
0 -180 -103 176 0 0 1 8 0 1 0 1
0 -180 -100 176 0 0 1 8 0 1 0 1
phys
0 -140 -103 176 0 0 1 8 0 1 0 1
0 -180 -100 176 0 0 1 8 0 1 0 1
0 -140 -100 176 0 0 1 8 0 1 0 1
phys
0 -140 -103 326 0 0 1 8 0 1 0 1
0 -140 -100 326 0 0 1 8 0 1 0 1
0 -180 -100 326 0 0 1 8 0 1 0 1
phys
0 -140 -103 326 0 0 1 8 0 1 0 1
0 -180 -100 326 0 0 1 8 0 1 0 1
0 -180 -103 326 0 0 1 8 0 1 0 1
phys
0 -180 -105 324.001 0 0 1 8 0 1 0 1
0 -140 -105 324.001 0 0 1 8 0 1 0 1
0 -140 -103 326 0 0 1 8 0 1 0 1
phys
0 -180 -105 324.001 0 0 1 8 0 1 0 1
0 -140 -103 326 0 0 1 8 0 1 0 1
0 -180 -103 326 0 0 1 8 0 1 0 1
phys
0 -106 -189 135 0 0 1 9 0 1 0 1
0 -106 -189 146 0 0 1 9 0 1 0 1
0 -213 -189 146 0 0 1 9 0 1 0 1
phys
0 -106 -189 135 0 0 1 9 0 1 0 1
0 -213 -189 146 0 0 1 9 0 1 0 1
0 -213 -189 135 0 0 1 9 0 1 0 1
phys
0 -213 -189 135 0 0 1 9 0 1 0 1
0 -213 -189 146 0 0 1 9 0 1 0 1
0 -213 -183 146 0 0 1 9 0 1 0 1
phys
0 -213 -189 135 0 0 1 9 0 1 0 1
0 -213 -183 146 0 0 1 9 0 1 0 1
0 -213 -183 135 0 0 1 9 0 1 0 1
phys
0 -106 -189 146 0 0 1 9 0 1 0 1
0 -106 -189 135 0 0 1 9 0 1 0 1
0 -106 -183 135 0 0 1 9 0 1 0 1
phys
0 -106 -189 146 0 0 1 9 0 1 0 1
0 -106 -183 135 0 0 1 9 0 1 0 1
0 -106 -183 146 0 0 1 9 0 1 0 1
phys
0 -106 -189 135 0 0 1 9 0 1 0 1
0 -213 -189 135 0 0 1 9 0 1 0 1
0 -213 -183 135 0 0 1 9 0 1 0 1
phys
0 -106 -189 135 0 0 1 9 0 1 0 1
0 -213 -183 135 0 0 1 9 0 1 0 1
0 -106 -183 135 0 0 1 9 0 1 0 1
phys
0 -213 -189 146 0 0 1 9 0 1 0 1
0 -106 -189 146 0 0 1 9 0 1 0 1
0 -106 -183 146 0 0 1 9 0 1 0 1
phys
0 -213 -189 146 0 0 1 9 0 1 0 1
0 -106 -183 146 0 0 1 9 0 1 0 1
0 -213 -183 146 0 0 1 9 0 1 0 1
phys
0 -106 -183 146 0 0 1 9 0 1 0 1
0 -106 -183 135 0 0 1 9 0 1 0 1
0 -213 -183 135 0 0 1 9 0 1 0 1
phys
0 -106 -183 146 0 0 1 9 0 1 0 1
0 -213 -183 135 0 0 1 9 0 1 0 1
0 -213 -183 146 0 0 1 9 0 1 0 1
phys
0 -159 -181 500 0 0 1 10 0 1 0 1
0 -159 -181 385 0 0 1 10 0 1 0 1
0 -161 -181 385 0 0 1 10 0 1 0 1
phys
0 -159 -181 500 0 0 1 10 0 1 0 1
0 -161 -181 385 0 0 1 10 0 1 0 1
0 -161 -181 500 0 0 1 10 0 1 0 1
phys
0 -159 -189 385 0 0 1 10 0 1 0 1
0 -159 -189 500 0 0 1 10 0 1 0 1
0 -161 -189 500 0 0 1 10 0 1 0 1
phys
0 -159 -189 385 0 0 1 10 0 1 0 1
0 -161 -189 500 0 0 1 10 0 1 0 1
0 -161 -189 385 0 0 1 10 0 1 0 1
phys
0 -161 -189 385 0 0 1 10 0 1 0 1
0 -161 -189 500 0 0 1 10 0 1 0 1
0 -161 -181 500 0 0 1 10 0 1 0 1
phys
0 -161 -189 385 0 0 1 10 0 1 0 1
0 -161 -181 500 0 0 1 10 0 1 0 1
0 -161 -181 385 0 0 1 10 0 1 0 1
phys
0 -159 -189 500 0 0 1 10 0 1 0 1
0 -159 -189 385 0 0 1 10 0 1 0 1
0 -159 -181 385 0 0 1 10 0 1 0 1
phys
0 -159 -189 500 0 0 1 10 0 1 0 1
0 -159 -181 385 0 0 1 10 0 1 0 1
0 -159 -181 500 0 0 1 10 0 1 0 1
phys
0 -159 -189 385 0 0 1 10 0 1 0 1
0 -161 -189 385 0 0 1 10 0 1 0 1
0 -161 -181 385 0 0 1 10 0 1 0 1
phys
0 -159 -189 385 0 0 1 10 0 1 0 1
0 -161 -181 385 0 0 1 10 0 1 0 1
0 -159 -181 385 0 0 1 10 0 1 0 1
phys
0 -161 -189 500 0 0 1 10 0 1 0 1
0 -159 -189 500 0 0 1 10 0 1 0 1
0 -159 -181 500 0 0 1 10 0 1 0 1
phys
0 -161 -189 500 0 0 1 10 0 1 0 1
0 -159 -181 500 0 0 1 10 0 1 0 1
0 -161 -181 500 0 0 1 10 0 1 0 1
phys
0 2 175 243 0 0 1 11 0 1 0 1
0 2 175 135 0 0 1 11 0 1 0 1
0 -2 175 135 0 0 1 11 0 1 0 1
phys
0 2 175 243 0 0 1 11 0 1 0 1
0 -2 175 135 0 0 1 11 0 1 0 1
0 -2 175 247 0 0 1 11 0 1 0 1
phys
0 2 167 135 0 0 1 11 0 1 0 1
0 2 167 243 0 0 1 11 0 1 0 1
0 -2 167 247 0 0 1 11 0 1 0 1
phys
0 2 167 135 0 0 1 11 0 1 0 1
0 -2 167 247 0 0 1 11 0 1 0 1
0 -2 167 135 0 0 1 11 0 1 0 1
phys
0 -2 167 135 0 0 1 11 0 1 0 1
0 -2 167 247 0 0 1 11 0 1 0 1
0 -2 175 247 0 0 1 11 0 1 0 1
phys
0 -2 167 135 0 0 1 11 0 1 0 1
0 -2 175 247 0 0 1 11 0 1 0 1
0 -2 175 135 0 0 1 11 0 1 0 1
phys
0 2 167 243 0 0 1 11 0 1 0 1
0 2 167 135 0 0 1 11 0 1 0 1
0 2 175 135 0 0 1 11 0 1 0 1
phys
0 2 167 243 0 0 1 11 0 1 0 1
0 2 175 135 0 0 1 11 0 1 0 1
0 2 175 243 0 0 1 11 0 1 0 1
phys
0 2 167 135 0 0 1 11 0 1 0 1
0 -2 167 135 0 0 1 11 0 1 0 1
0 -2 175 135 0 0 1 11 0 1 0 1
phys
0 2 167 135 0 0 1 11 0 1 0 1
0 -2 175 135 0 0 1 11 0 1 0 1
0 2 175 135 0 0 1 11 0 1 0 1
phys
0 -2 167 247 0 0 1 11 0 1 0 1
0 2 167 243 0 0 1 11 0 1 0 1
0 2 175 243 0 0 1 11 0 1 0 1
phys
0 -2 167 247 0 0 1 11 0 1 0 1
0 2 175 243 0 0 1 11 0 1 0 1
0 -2 175 247 0 0 1 11 0 1 0 1
phys
0 -106 -185 178 0 0 1 12 0 1 0 1
0 -106 -185 146 0 0 1 12 0 1 0 1
0 -213 -185 146 0 0 1 12 0 1 0 1
phys
0 -106 -185 178 0 0 1 12 0 1 0 1
0 -213 -185 146 0 0 1 12 0 1 0 1
0 -213 -185 178 0 0 1 12 0 1 0 1
phys
0 -106 -187 146 0 0 1 12 0 1 0 1
0 -106 -187 178 0 0 1 12 0 1 0 1
0 -213 -187 178 0 0 1 12 0 1 0 1
phys
0 -106 -187 146 0 0 1 12 0 1 0 1
0 -213 -187 178 0 0 1 12 0 1 0 1
0 -213 -187 146 0 0 1 12 0 1 0 1
phys
0 -213 -187 146 0 0 1 12 0 1 0 1
0 -213 -187 178 0 0 1 12 0 1 0 1
0 -213 -185 178 0 0 1 12 0 1 0 1
phys
0 -213 -187 146 0 0 1 12 0 1 0 1
0 -213 -185 178 0 0 1 12 0 1 0 1
0 -213 -185 146 0 0 1 12 0 1 0 1
phys
0 -106 -187 178 0 0 1 12 0 1 0 1
0 -106 -187 146 0 0 1 12 0 1 0 1
0 -106 -185 146 0 0 1 12 0 1 0 1
phys
0 -106 -187 178 0 0 1 12 0 1 0 1
0 -106 -185 146 0 0 1 12 0 1 0 1
0 -106 -185 178 0 0 1 12 0 1 0 1
phys
0 -106 -187 146 0 0 1 12 0 1 0 1
0 -213 -187 146 0 0 1 12 0 1 0 1
0 -213 -185 146 0 0 1 12 0 1 0 1
phys
0 -106 -187 146 0 0 1 12 0 1 0 1
0 -213 -185 146 0 0 1 12 0 1 0 1
0 -106 -185 146 0 0 1 12 0 1 0 1
phys
0 -213 -187 178 0 0 1 12 0 1 0 1
0 -106 -187 178 0 0 1 12 0 1 0 1
0 -106 -185 178 0 0 1 12 0 1 0 1
phys
0 -213 -187 178 0 0 1 12 0 1 0 1
0 -106 -185 178 0 0 1 12 0 1 0 1
0 -213 -185 178 0 0 1 12 0 1 0 1
phys
0 94 168 255 0 0 1 13 0 1 0 1
0 94 168 135 0 0 1 13 0 1 0 1
0 86.1 168 135 0 0 1 13 0 1 0 1
phys
0 94 168 255 0 0 1 13 0 1 0 1
0 86.1 168 135 0 0 1 13 0 1 0 1
0 86.1 168 255 0 0 1 13 0 1 0 1
phys
0 94 7 135 0 0 1 13 0 1 0 1
0 94 7 255 0 0 1 13 0 1 0 1
0 86.1 7 255 0 0 1 13 0 1 0 1
phys
0 94 7 135 0 0 1 13 0 1 0 1
0 86.1 7 255 0 0 1 13 0 1 0 1
0 86.1 7 135 0 0 1 13 0 1 0 1
phys
0 86.1 7 135 0 0 1 13 0 1 0 1
0 86.1 7 255 0 0 1 13 0 1 0 1
0 86.1 168 255 0 0 1 13 0 1 0 1
phys
0 86.1 7 135 0 0 1 13 0 1 0 1
0 86.1 168 255 0 0 1 13 0 1 0 1
0 86.1 168 135 0 0 1 13 0 1 0 1
phys
0 94 7 255 0 0 1 13 0 1 0 1
0 94 7 135 0 0 1 13 0 1 0 1
0 94 168 135 0 0 1 13 0 1 0 1
phys
0 94 7 255 0 0 1 13 0 1 0 1
0 94 168 135 0 0 1 13 0 1 0 1
0 94 168 255 0 0 1 13 0 1 0 1
phys
0 94 7 135 0 0 1 13 0 1 0 1
0 86.1 7 135 0 0 1 13 0 1 0 1
0 86.1 168 135 0 0 1 13 0 1 0 1
phys
0 94 7 135 0 0 1 13 0 1 0 1
0 86.1 168 135 0 0 1 13 0 1 0 1
0 94 168 135 0 0 1 13 0 1 0 1
phys
0 86.1 7 255 0 0 1 13 0 1 0 1
0 94 7 255 0 0 1 13 0 1 0 1
0 94 168 255 0 0 1 13 0 1 0 1
phys
0 86.1 7 255 0 0 1 13 0 1 0 1
0 94 168 255 0 0 1 13 0 1 0 1
0 86.1 168 255 0 0 1 13 0 1 0 1
phys
0 249 -1 289 0 0 1 14 0 1 0 1
0 249 -1 279 0 0 1 14 0 1 0 1
0 57 -1 279 0 0 1 14 0 1 0 1
phys
0 249 -1 289 0 0 1 14 0 1 0 1
0 57 -1 279 0 0 1 14 0 1 0 1
0 57 -1 289 0 0 1 14 0 1 0 1
phys
0 249 -9 286.999 0 0 1 14 0 1 0 1
0 249 -9 289 0 0 1 14 0 1 0 1
0 57 -9 289 0 0 1 14 0 1 0 1
phys
0 249 -9 286.999 0 0 1 14 0 1 0 1
0 57 -9 289 0 0 1 14 0 1 0 1
0 57 -9 286.999 0 0 1 14 0 1 0 1
phys
0 57 -9 286.999 0 0 1 14 0 1 0 1
0 57 -9 289 0 0 1 14 0 1 0 1
0 57 -1 289 0 0 1 14 0 1 0 1
phys
0 57 -9 286.999 0 0 1 14 0 1 0 1
0 57 -1 289 0 0 1 14 0 1 0 1
0 57 -1 279 0 0 1 14 0 1 0 1
phys
0 57 -9 286.999 0 0 1 14 0 1 0 1
0 57 -1 279 0 0 1 14 0 1 0 1
0 57 -3 279 0 0 1 14 0 1 0 1
phys
0 249 -9 289 0 0 1 14 0 1 0 1
0 249 -9 286.999 0 0 1 14 0 1 0 1
0 249 -3 279 0 0 1 14 0 1 0 1
phys
0 249 -9 289 0 0 1 14 0 1 0 1
0 249 -3 279 0 0 1 14 0 1 0 1
0 249 -1 279 0 0 1 14 0 1 0 1
phys
0 249 -9 289 0 0 1 14 0 1 0 1
0 249 -1 279 0 0 1 14 0 1 0 1
0 249 -1 289 0 0 1 14 0 1 0 1
phys
0 57 -3 279 0 0 1 14 0 1 0 1
0 57 -1 279 0 0 1 14 0 1 0 1
0 249 -1 279 0 0 1 14 0 1 0 1
phys
0 57 -3 279 0 0 1 14 0 1 0 1
0 249 -1 279 0 0 1 14 0 1 0 1
0 249 -3 279 0 0 1 14 0 1 0 1
phys
0 57 -9 289 0 0 1 14 0 1 0 1
0 249 -9 289 0 0 1 14 0 1 0 1
0 249 -1 289 0 0 1 14 0 1 0 1
phys
0 57 -9 289 0 0 1 14 0 1 0 1
0 249 -1 289 0 0 1 14 0 1 0 1
0 57 -1 289 0 0 1 14 0 1 0 1
phys
0 249 -9 286.999 0 0 1 14 0 1 0 1
0 57 -9 286.999 0 0 1 14 0 1 0 1
0 57 -3 279 0 0 1 14 0 1 0 1
phys
0 249 -9 286.999 0 0 1 14 0 1 0 1
0 57 -3 279 0 0 1 14 0 1 0 1
0 249 -3 279 0 0 1 14 0 1 0 1
phys
0 2 167 243 0 0 1 15 0 1 0 1
0 2 175 243 0 0 1 15 0 1 0 1
0 50 175 243 0 0 1 15 0 1 0 1
phys
0 2 167 243 0 0 1 15 0 1 0 1
0 50 175 243 0 0 1 15 0 1 0 1
0 50 167 243 0 0 1 15 0 1 0 1
phys
0 54 167 247 0 0 1 15 0 1 0 1
0 54 175 247 0 0 1 15 0 1 0 1
0 -2 175 247 0 0 1 15 0 1 0 1
phys
0 54 167 247 0 0 1 15 0 1 0 1
0 -2 175 247 0 0 1 15 0 1 0 1
0 -2 167 247 0 0 1 15 0 1 0 1
phys
0 50 167 243 0 0 1 15 0 1 0 1
0 50 175 243 0 0 1 15 0 1 0 1
0 54 175 247 0 0 1 15 0 1 0 1
phys
0 50 167 243 0 0 1 15 0 1 0 1
0 54 175 247 0 0 1 15 0 1 0 1
0 54 167 247 0 0 1 15 0 1 0 1
phys
0 -2 167 247 0 0 1 15 0 1 0 1
0 -2 175 247 0 0 1 15 0 1 0 1
0 2 175 243 0 0 1 15 0 1 0 1
phys
0 -2 167 247 0 0 1 15 0 1 0 1
0 2 175 243 0 0 1 15 0 1 0 1
0 2 167 243 0 0 1 15 0 1 0 1
phys
0 50 175 243 0 0 1 15 0 1 0 1
0 2 175 243 0 0 1 15 0 1 0 1
0 -2 175 247 0 0 1 15 0 1 0 1
phys
0 50 175 243 0 0 1 15 0 1 0 1
0 -2 175 247 0 0 1 15 0 1 0 1
0 54 175 247 0 0 1 15 0 1 0 1
phys
0 54 167 247 0 0 1 15 0 1 0 1
0 -2 167 247 0 0 1 15 0 1 0 1
0 2 167 243 0 0 1 15 0 1 0 1
phys
0 54 167 247 0 0 1 15 0 1 0 1
0 2 167 243 0 0 1 15 0 1 0 1
0 50 167 243 0 0 1 15 0 1 0 1
phys
0 -249 -189 385 0 0 1 16 0 1 0 1
0 -70 -189 385 0 0 1 16 0 1 0 1
0 -70 -181 385 0 0 1 16 0 1 0 1
phys
0 -249 -189 385 0 0 1 16 0 1 0 1
0 -70 -181 385 0 0 1 16 0 1 0 1
0 -249 -181 385 0 0 1 16 0 1 0 1
phys
0 -249 -181 383 0 0 1 16 0 1 0 1
0 -249 -181 385 0 0 1 16 0 1 0 1
0 -70 -181 385 0 0 1 16 0 1 0 1
phys
0 -249 -181 383 0 0 1 16 0 1 0 1
0 -70 -181 385 0 0 1 16 0 1 0 1
0 -70 -181 383 0 0 1 16 0 1 0 1
phys
0 -70 -189 383 0 0 1 16 0 1 0 1
0 -70 -189 385 0 0 1 16 0 1 0 1
0 -249 -189 385 0 0 1 16 0 1 0 1
phys
0 -70 -189 383 0 0 1 16 0 1 0 1
0 -249 -189 385 0 0 1 16 0 1 0 1
0 -249 -189 383 0 0 1 16 0 1 0 1
phys
0 -249 -189 383 0 0 1 16 0 1 0 1
0 -249 -189 385 0 0 1 16 0 1 0 1
0 -249 -181 385 0 0 1 16 0 1 0 1
phys
0 -249 -189 383 0 0 1 16 0 1 0 1
0 -249 -181 385 0 0 1 16 0 1 0 1
0 -249 -181 383 0 0 1 16 0 1 0 1
phys
0 -70 -181 383 0 0 1 16 0 1 0 1
0 -70 -181 385 0 0 1 16 0 1 0 1
0 -70 -189 385 0 0 1 16 0 1 0 1
phys
0 -70 -181 383 0 0 1 16 0 1 0 1
0 -70 -189 385 0 0 1 16 0 1 0 1
0 -70 -189 383 0 0 1 16 0 1 0 1
phys
0 -70 -189 383 0 0 1 16 0 1 0 1
0 -249 -189 383 0 0 1 16 0 1 0 1
0 -249 -181 383 0 0 1 16 0 1 0 1
phys
0 -70 -189 383 0 0 1 16 0 1 0 1
0 -249 -181 383 0 0 1 16 0 1 0 1
0 -70 -181 383 0 0 1 16 0 1 0 1
phys
0 -70 -181 502 0 0 1 17 0 1 0 1
0 -70 -181 500 0 0 1 17 0 1 0 1
0 -249 -181 500 0 0 1 17 0 1 0 1
phys
0 -70 -181 502 0 0 1 17 0 1 0 1
0 -249 -181 500 0 0 1 17 0 1 0 1
0 -249 -181 502 0 0 1 17 0 1 0 1
phys
0 -70 -189 500 0 0 1 17 0 1 0 1
0 -70 -189 502 0 0 1 17 0 1 0 1
0 -249 -189 502 0 0 1 17 0 1 0 1
phys
0 -70 -189 500 0 0 1 17 0 1 0 1
0 -249 -189 502 0 0 1 17 0 1 0 1
0 -249 -189 500 0 0 1 17 0 1 0 1
phys
0 -249 -189 500 0 0 1 17 0 1 0 1
0 -249 -189 502 0 0 1 17 0 1 0 1
0 -249 -181 502 0 0 1 17 0 1 0 1
phys
0 -249 -189 500 0 0 1 17 0 1 0 1
0 -249 -181 502 0 0 1 17 0 1 0 1
0 -249 -181 500 0 0 1 17 0 1 0 1
phys
0 -70 -189 502 0 0 1 17 0 1 0 1
0 -70 -189 500 0 0 1 17 0 1 0 1
0 -70 -181 500 0 0 1 17 0 1 0 1
phys
0 -70 -189 502 0 0 1 17 0 1 0 1
0 -70 -181 500 0 0 1 17 0 1 0 1
0 -70 -181 502 0 0 1 17 0 1 0 1
phys
0 -70 -189 500 0 0 1 17 0 1 0 1
0 -249 -189 500 0 0 1 17 0 1 0 1
0 -249 -181 500 0 0 1 17 0 1 0 1
phys
0 -70 -189 500 0 0 1 17 0 1 0 1
0 -249 -181 500 0 0 1 17 0 1 0 1
0 -70 -181 500 0 0 1 17 0 1 0 1
phys
0 -249 -189 502 0 0 1 17 0 1 0 1
0 -70 -189 502 0 0 1 17 0 1 0 1
0 -70 -181 502 0 0 1 17 0 1 0 1
phys
0 -249 -189 502 0 0 1 17 0 1 0 1
0 -70 -181 502 0 0 1 17 0 1 0 1
0 -249 -181 502 0 0 1 17 0 1 0 1
phys
0 239 -21 135 0 0 1 18 0 1 0 1
0 239 -21 126 0 0 1 18 0 1 0 1
0 94 -21 126 0 0 1 18 0 1 0 1
phys
0 239 -21 135 0 0 1 18 0 1 0 1
0 94 -21 126 0 0 1 18 0 1 0 1
0 94 -21 135 0 0 1 18 0 1 0 1
phys
0 94 -36 135 0 0 1 18 0 1 0 1
0 94 -21 135 0 0 1 18 0 1 0 1
0 94 -21 126 0 0 1 18 0 1 0 1
phys
0 239 -21 126 0 0 1 18 0 1 0 1
0 239 -21 135 0 0 1 18 0 1 0 1
0 239 -36 135 0 0 1 18 0 1 0 1
phys
0 239 -36 135 0 0 1 18 0 1 0 1
0 239 -21 135 0 0 1 18 0 1 0 1
0 94 -21 135 0 0 1 18 0 1 0 1
phys
0 239 -36 135 0 0 1 18 0 1 0 1
0 94 -21 135 0 0 1 18 0 1 0 1
0 94 -36 135 0 0 1 18 0 1 0 1
phys
0 94 -36 135 0 0 1 18 0 1 0 1
0 94 -21 126 0 0 1 18 0 1 0 1
0 239 -21 126 0 0 1 18 0 1 0 1
phys
0 94 -36 135 0 0 1 18 0 1 0 1
0 239 -21 126 0 0 1 18 0 1 0 1
0 239 -36 135 0 0 1 18 0 1 0 1
phys
0 94 -21 126 0 0 1 19 0 1 0 1
0 94 -6 126 0 0 1 19 0 1 0 1
0 94 -6 117 0 0 1 19 0 1 0 1
phys
0 239 -6 126 0 0 1 19 0 1 0 1
0 239 -21 126 0 0 1 19 0 1 0 1
0 239 -6 117 0 0 1 19 0 1 0 1
phys
0 239 -21 126 0 0 1 19 0 1 0 1
0 239 -6 126 0 0 1 19 0 1 0 1
0 94 -6 126 0 0 1 19 0 1 0 1
phys
0 239 -21 126 0 0 1 19 0 1 0 1
0 94 -6 126 0 0 1 19 0 1 0 1
0 94 -21 126 0 0 1 19 0 1 0 1
phys
0 94 -21 126 0 0 1 19 0 1 0 1
0 94 -6 117 0 0 1 19 0 1 0 1
0 239 -6 117 0 0 1 19 0 1 0 1
phys
0 94 -21 126 0 0 1 19 0 1 0 1
0 239 -6 117 0 0 1 19 0 1 0 1
0 239 -21 126 0 0 1 19 0 1 0 1
phys
0 239 -6 126 0 0 1 19 0 1 0 1
0 239 -6 117 0 0 1 19 0 1 0 1
0 94 -6 117 0 0 1 19 0 1 0 1
phys
0 239 -6 126 0 0 1 19 0 1 0 1
0 94 -6 117 0 0 1 19 0 1 0 1
0 94 -6 126 0 0 1 19 0 1 0 1
phys
0 239 9 117 0 0 1 20 0 1 0 1
0 239 9 108 0 0 1 20 0 1 0 1
0 94 9 108 0 0 1 20 0 1 0 1
phys
0 239 9 117 0 0 1 20 0 1 0 1
0 94 9 108 0 0 1 20 0 1 0 1
0 94 9 117 0 0 1 20 0 1 0 1
phys
0 94 -6 117 0 0 1 20 0 1 0 1
0 94 9 117 0 0 1 20 0 1 0 1
0 94 9 108 0 0 1 20 0 1 0 1
phys
0 239 9 108 0 0 1 20 0 1 0 1
0 239 9 117 0 0 1 20 0 1 0 1
0 239 -6 117 0 0 1 20 0 1 0 1
phys
0 239 -6 117 0 0 1 20 0 1 0 1
0 239 9 117 0 0 1 20 0 1 0 1
0 94 9 117 0 0 1 20 0 1 0 1
phys
0 239 -6 117 0 0 1 20 0 1 0 1
0 94 9 117 0 0 1 20 0 1 0 1
0 94 -6 117 0 0 1 20 0 1 0 1
phys
0 94 -6 117 0 0 1 20 0 1 0 1
0 94 9 108 0 0 1 20 0 1 0 1
0 239 9 108 0 0 1 20 0 1 0 1
phys
0 94 -6 117 0 0 1 20 0 1 0 1
0 239 9 108 0 0 1 20 0 1 0 1
0 239 -6 117 0 0 1 20 0 1 0 1
phys
0 239 24 108 0 0 1 21 0 1 0 1
0 239 24 99 0 0 1 21 0 1 0 1
0 94 24 99 0 0 1 21 0 1 0 1
phys
0 239 24 108 0 0 1 21 0 1 0 1
0 94 24 99 0 0 1 21 0 1 0 1
0 94 24 108 0 0 1 21 0 1 0 1
phys
0 94 9 108 0 0 1 21 0 1 0 1
0 94 24 108 0 0 1 21 0 1 0 1
0 94 24 99 0 0 1 21 0 1 0 1
phys
0 239 24 99 0 0 1 21 0 1 0 1
0 239 24 108 0 0 1 21 0 1 0 1
0 239 9 108 0 0 1 21 0 1 0 1
phys
0 239 9 108 0 0 1 21 0 1 0 1
0 239 24 108 0 0 1 21 0 1 0 1
0 94 24 108 0 0 1 21 0 1 0 1
phys
0 239 9 108 0 0 1 21 0 1 0 1
0 94 24 108 0 0 1 21 0 1 0 1
0 94 9 108 0 0 1 21 0 1 0 1
phys
0 94 9 108 0 0 1 21 0 1 0 1
0 94 24 99 0 0 1 21 0 1 0 1
0 239 24 99 0 0 1 21 0 1 0 1
phys
0 94 9 108 0 0 1 21 0 1 0 1
0 239 24 99 0 0 1 21 0 1 0 1
0 239 9 108 0 0 1 21 0 1 0 1
phys
0 239 39 99 0 0 1 22 0 1 0 1
0 239 39 90 0 0 1 22 0 1 0 1
0 94 39 90 0 0 1 22 0 1 0 1
phys
0 239 39 99 0 0 1 22 0 1 0 1
0 94 39 90 0 0 1 22 0 1 0 1
0 94 39 99 0 0 1 22 0 1 0 1
phys
0 94 24 99 0 0 1 22 0 1 0 1
0 94 39 99 0 0 1 22 0 1 0 1
0 94 39 90 0 0 1 22 0 1 0 1
phys
0 239 39 90 0 0 1 22 0 1 0 1
0 239 39 99 0 0 1 22 0 1 0 1
0 239 24 99 0 0 1 22 0 1 0 1
phys
0 239 24 99 0 0 1 22 0 1 0 1
0 239 39 99 0 0 1 22 0 1 0 1
0 94 39 99 0 0 1 22 0 1 0 1
phys
0 239 24 99 0 0 1 22 0 1 0 1
0 94 39 99 0 0 1 22 0 1 0 1
0 94 24 99 0 0 1 22 0 1 0 1
phys
0 94 24 99 0 0 1 22 0 1 0 1
0 94 39 90 0 0 1 22 0 1 0 1
0 239 39 90 0 0 1 22 0 1 0 1
phys
0 94 24 99 0 0 1 22 0 1 0 1
0 239 39 90 0 0 1 22 0 1 0 1
0 239 24 99 0 0 1 22 0 1 0 1
phys
0 239 69 81 0 0 1 23 0 1 0 1
0 239 69 72 0 0 1 23 0 1 0 1
0 94 69 72 0 0 1 23 0 1 0 1
phys
0 239 69 81 0 0 1 23 0 1 0 1
0 94 69 72 0 0 1 23 0 1 0 1
0 94 69 81 0 0 1 23 0 1 0 1
phys
0 94 54 81 0 0 1 23 0 1 0 1
0 94 69 81 0 0 1 23 0 1 0 1
0 94 69 72 0 0 1 23 0 1 0 1
phys
0 239 69 72 0 0 1 23 0 1 0 1
0 239 69 81 0 0 1 23 0 1 0 1
0 239 54 81 0 0 1 23 0 1 0 1
phys
0 239 54 81 0 0 1 23 0 1 0 1
0 239 69 81 0 0 1 23 0 1 0 1
0 94 69 81 0 0 1 23 0 1 0 1
phys
0 239 54 81 0 0 1 23 0 1 0 1
0 94 69 81 0 0 1 23 0 1 0 1
0 94 54 81 0 0 1 23 0 1 0 1
phys
0 94 54 81 0 0 1 23 0 1 0 1
0 94 69 72 0 0 1 23 0 1 0 1
0 239 69 72 0 0 1 23 0 1 0 1
phys
0 94 54 81 0 0 1 23 0 1 0 1
0 239 69 72 0 0 1 23 0 1 0 1
0 239 54 81 0 0 1 23 0 1 0 1
phys
0 94 84 63 0 0 1 24 0 1 0 1
0 239 84 63 0 0 1 24 0 1 0 1
0 239 99 63 0 0 1 24 0 1 0 1
phys
0 94 84 63 0 0 1 24 0 1 0 1
0 239 99 63 0 0 1 24 0 1 0 1
0 94 99 63 0 0 1 24 0 1 0 1
phys
0 239 84 63 0 0 1 24 0 1 0 1
0 94 84 63 0 0 1 24 0 1 0 1
0 94 99 54 0 0 1 24 0 1 0 1
phys
0 239 84 63 0 0 1 24 0 1 0 1
0 94 99 54 0 0 1 24 0 1 0 1
0 239 99 54 0 0 1 24 0 1 0 1
phys
0 239 99 54 0 0 1 24 0 1 0 1
0 94 99 54 0 0 1 24 0 1 0 1
0 94 99 63 0 0 1 24 0 1 0 1
phys
0 239 99 54 0 0 1 24 0 1 0 1
0 94 99 63 0 0 1 24 0 1 0 1
0 239 99 63 0 0 1 24 0 1 0 1
phys
0 94 84 63 0 0 1 24 0 1 0 1
0 94 99 63 0 0 1 24 0 1 0 1
0 94 99 54 0 0 1 24 0 1 0 1
phys
0 239 99 63 0 0 1 24 0 1 0 1
0 239 84 63 0 0 1 24 0 1 0 1
0 239 99 54 0 0 1 24 0 1 0 1
phys
0 239 129 45 0 0 1 25 0 1 0 1
0 239 129 36 0 0 1 25 0 1 0 1
0 94 129 36 0 0 1 25 0 1 0 1
phys
0 239 129 45 0 0 1 25 0 1 0 1
0 94 129 36 0 0 1 25 0 1 0 1
0 94 129 45 0 0 1 25 0 1 0 1
phys
0 94 114 45 0 0 1 25 0 1 0 1
0 94 129 45 0 0 1 25 0 1 0 1
0 94 129 36 0 0 1 25 0 1 0 1
phys
0 239 129 36 0 0 1 25 0 1 0 1
0 239 129 45 0 0 1 25 0 1 0 1
0 239 114 45 0 0 1 25 0 1 0 1
phys
0 239 114 45 0 0 1 25 0 1 0 1
0 239 129 45 0 0 1 25 0 1 0 1
0 94 129 45 0 0 1 25 0 1 0 1
phys
0 239 114 45 0 0 1 25 0 1 0 1
0 94 129 45 0 0 1 25 0 1 0 1
0 94 114 45 0 0 1 25 0 1 0 1
phys
0 94 114 45 0 0 1 25 0 1 0 1
0 94 129 36 0 0 1 25 0 1 0 1
0 239 129 36 0 0 1 25 0 1 0 1
phys
0 94 114 45 0 0 1 25 0 1 0 1
0 239 129 36 0 0 1 25 0 1 0 1
0 239 114 45 0 0 1 25 0 1 0 1
phys
0 239 159 27 0 0 1 26 0 1 0 1
0 239 159 18 0 0 1 26 0 1 0 1
0 94 159 18 0 0 1 26 0 1 0 1
phys
0 239 159 27 0 0 1 26 0 1 0 1
0 94 159 18 0 0 1 26 0 1 0 1
0 94 159 27 0 0 1 26 0 1 0 1
phys
0 94 144 27 0 0 1 26 0 1 0 1
0 94 159 27 0 0 1 26 0 1 0 1
0 94 159 18 0 0 1 26 0 1 0 1
phys
0 239 159 18 0 0 1 26 0 1 0 1
0 239 159 27 0 0 1 26 0 1 0 1
0 239 144 27 0 0 1 26 0 1 0 1
phys
0 239 144 27 0 0 1 26 0 1 0 1
0 239 159 27 0 0 1 26 0 1 0 1
0 94 159 27 0 0 1 26 0 1 0 1
phys
0 239 144 27 0 0 1 26 0 1 0 1
0 94 159 27 0 0 1 26 0 1 0 1
0 94 144 27 0 0 1 26 0 1 0 1
phys
0 94 144 27 0 0 1 26 0 1 0 1
0 94 159 18 0 0 1 26 0 1 0 1
0 239 159 18 0 0 1 26 0 1 0 1
phys
0 94 144 27 0 0 1 26 0 1 0 1
0 239 159 18 0 0 1 26 0 1 0 1
0 239 144 27 0 0 1 26 0 1 0 1
phys
0 239 189 9 0 0 1 27 0 1 0 1
0 239 189 0 0 0 1 27 0 1 0 1
0 94 189 0 0 0 1 27 0 1 0 1
phys
0 239 189 9 0 0 1 27 0 1 0 1
0 94 189 0 0 0 1 27 0 1 0 1
0 94 189 9 0 0 1 27 0 1 0 1
phys
0 94 174 9 0 0 1 27 0 1 0 1
0 94 189 9 0 0 1 27 0 1 0 1
0 94 189 0 0 0 1 27 0 1 0 1
phys
0 239 189 0 0 0 1 27 0 1 0 1
0 239 189 9 0 0 1 27 0 1 0 1
0 239 174 9 0 0 1 27 0 1 0 1
phys
0 239 174 9 0 0 1 27 0 1 0 1
0 239 189 9 0 0 1 27 0 1 0 1
0 94 189 9 0 0 1 27 0 1 0 1
phys
0 239 174 9 0 0 1 27 0 1 0 1
0 94 189 9 0 0 1 27 0 1 0 1
0 94 174 9 0 0 1 27 0 1 0 1
phys
0 94 174 9 0 0 1 27 0 1 0 1
0 94 189 0 0 0 1 27 0 1 0 1
0 239 189 0 0 0 1 27 0 1 0 1
phys
0 94 174 9 0 0 1 27 0 1 0 1
0 239 189 0 0 0 1 27 0 1 0 1
0 239 174 9 0 0 1 27 0 1 0 1
phys
0 94 159 18 0 0 1 28 0 1 0 1
0 239 159 18 0 0 1 28 0 1 0 1
0 239 174 18 0 0 1 28 0 1 0 1
phys
0 94 159 18 0 0 1 28 0 1 0 1
0 239 174 18 0 0 1 28 0 1 0 1
0 94 174 18 0 0 1 28 0 1 0 1
phys
0 239 159 18 0 0 1 28 0 1 0 1
0 94 159 18 0 0 1 28 0 1 0 1
0 94 174 9 0 0 1 28 0 1 0 1
phys
0 239 159 18 0 0 1 28 0 1 0 1
0 94 174 9 0 0 1 28 0 1 0 1
0 239 174 9 0 0 1 28 0 1 0 1
phys
0 239 174 9 0 0 1 28 0 1 0 1
0 94 174 9 0 0 1 28 0 1 0 1
0 94 174 18 0 0 1 28 0 1 0 1
phys
0 239 174 9 0 0 1 28 0 1 0 1
0 94 174 18 0 0 1 28 0 1 0 1
0 239 174 18 0 0 1 28 0 1 0 1
phys
0 94 159 18 0 0 1 28 0 1 0 1
0 94 174 18 0 0 1 28 0 1 0 1
0 94 174 9 0 0 1 28 0 1 0 1
phys
0 239 174 18 0 0 1 28 0 1 0 1
0 239 159 18 0 0 1 28 0 1 0 1
0 239 174 9 0 0 1 28 0 1 0 1
phys
0 94 129 36 0 0 1 29 0 1 0 1
0 239 129 36 0 0 1 29 0 1 0 1
0 239 144 36 0 0 1 29 0 1 0 1
phys
0 94 129 36 0 0 1 29 0 1 0 1
0 239 144 36 0 0 1 29 0 1 0 1
0 94 144 36 0 0 1 29 0 1 0 1
phys
0 239 129 36 0 0 1 29 0 1 0 1
0 94 129 36 0 0 1 29 0 1 0 1
0 94 144 27 0 0 1 29 0 1 0 1
phys
0 239 129 36 0 0 1 29 0 1 0 1
0 94 144 27 0 0 1 29 0 1 0 1
0 239 144 27 0 0 1 29 0 1 0 1
phys
0 239 144 27 0 0 1 29 0 1 0 1
0 94 144 27 0 0 1 29 0 1 0 1
0 94 144 36 0 0 1 29 0 1 0 1
phys
0 239 144 27 0 0 1 29 0 1 0 1
0 94 144 36 0 0 1 29 0 1 0 1
0 239 144 36 0 0 1 29 0 1 0 1
phys
0 94 129 36 0 0 1 29 0 1 0 1
0 94 144 36 0 0 1 29 0 1 0 1
0 94 144 27 0 0 1 29 0 1 0 1
phys
0 239 144 36 0 0 1 29 0 1 0 1
0 239 129 36 0 0 1 29 0 1 0 1
0 239 144 27 0 0 1 29 0 1 0 1
phys
0 239 114 54 0 0 1 30 0 1 0 1
0 239 114 45 0 0 1 30 0 1 0 1
0 94 114 45 0 0 1 30 0 1 0 1
phys
0 239 114 54 0 0 1 30 0 1 0 1
0 94 114 45 0 0 1 30 0 1 0 1
0 94 114 54 0 0 1 30 0 1 0 1
phys
0 94 99 54 0 0 1 30 0 1 0 1
0 94 114 54 0 0 1 30 0 1 0 1
0 94 114 45 0 0 1 30 0 1 0 1
phys
0 239 114 45 0 0 1 30 0 1 0 1
0 239 114 54 0 0 1 30 0 1 0 1
0 239 99 54 0 0 1 30 0 1 0 1
phys
0 239 99 54 0 0 1 30 0 1 0 1
0 239 114 54 0 0 1 30 0 1 0 1
0 94 114 54 0 0 1 30 0 1 0 1
phys
0 239 99 54 0 0 1 30 0 1 0 1
0 94 114 54 0 0 1 30 0 1 0 1
0 94 99 54 0 0 1 30 0 1 0 1
phys
0 94 99 54 0 0 1 30 0 1 0 1
0 94 114 45 0 0 1 30 0 1 0 1
0 239 114 45 0 0 1 30 0 1 0 1
phys
0 94 99 54 0 0 1 30 0 1 0 1
0 239 114 45 0 0 1 30 0 1 0 1
0 239 99 54 0 0 1 30 0 1 0 1
phys
0 94 69 72 0 0 1 31 0 1 0 1
0 239 69 72 0 0 1 31 0 1 0 1
0 239 84 72 0 0 1 31 0 1 0 1
phys
0 94 69 72 0 0 1 31 0 1 0 1
0 239 84 72 0 0 1 31 0 1 0 1
0 94 84 72 0 0 1 31 0 1 0 1
phys
0 239 69 72 0 0 1 31 0 1 0 1
0 94 69 72 0 0 1 31 0 1 0 1
0 94 84 63 0 0 1 31 0 1 0 1
phys
0 239 69 72 0 0 1 31 0 1 0 1
0 94 84 63 0 0 1 31 0 1 0 1
0 239 84 63 0 0 1 31 0 1 0 1
phys
0 239 84 63 0 0 1 31 0 1 0 1
0 94 84 63 0 0 1 31 0 1 0 1
0 94 84 72 0 0 1 31 0 1 0 1
phys
0 239 84 63 0 0 1 31 0 1 0 1
0 94 84 72 0 0 1 31 0 1 0 1
0 239 84 72 0 0 1 31 0 1 0 1
phys
0 94 69 72 0 0 1 31 0 1 0 1
0 94 84 72 0 0 1 31 0 1 0 1
0 94 84 63 0 0 1 31 0 1 0 1
phys
0 239 84 72 0 0 1 31 0 1 0 1
0 239 69 72 0 0 1 31 0 1 0 1
0 239 84 63 0 0 1 31 0 1 0 1
phys
0 94 39 90 0 0 1 32 0 1 0 1
0 239 39 90 0 0 1 32 0 1 0 1
0 239 54 90 0 0 1 32 0 1 0 1
phys
0 94 39 90 0 0 1 32 0 1 0 1
0 239 54 90 0 0 1 32 0 1 0 1
0 94 54 90 0 0 1 32 0 1 0 1
phys
0 239 39 90 0 0 1 32 0 1 0 1
0 94 39 90 0 0 1 32 0 1 0 1
0 94 54 81 0 0 1 32 0 1 0 1
phys
0 239 39 90 0 0 1 32 0 1 0 1
0 94 54 81 0 0 1 32 0 1 0 1
0 239 54 81 0 0 1 32 0 1 0 1
phys
0 239 54 81 0 0 1 32 0 1 0 1
0 94 54 81 0 0 1 32 0 1 0 1
0 94 54 90 0 0 1 32 0 1 0 1
phys
0 239 54 81 0 0 1 32 0 1 0 1
0 94 54 90 0 0 1 32 0 1 0 1
0 239 54 90 0 0 1 32 0 1 0 1
phys
0 94 39 90 0 0 1 32 0 1 0 1
0 94 54 90 0 0 1 32 0 1 0 1
0 94 54 81 0 0 1 32 0 1 0 1
phys
0 239 54 90 0 0 1 32 0 1 0 1
0 239 39 90 0 0 1 32 0 1 0 1
0 239 54 81 0 0 1 32 0 1 0 1
end
