version 1
nodes
0 "root" -1
end
skeleton
time 0
0 0 0 0 0 0 0
end
triangles
concrete_concrete_mall_clean00
0 54 175 246.999 0 1 0 -142.916016 3.992201 1 0 1
0 54 175 135 0 1 0 -142.916016 5.450521 1 0 1
0 50 175 135 0 1 0 -142.968099 5.450521 1 0 1
concrete_concrete_mall_clean00
0 54 175 246.999 0 1 0 -142.916016 3.992201 1 0 1
0 50 175 135 0 1 0 -142.968099 5.450521 1 0 1
0 50 175 242.999 0 1 0 -142.968099 4.044284 1 0 1
concrete_concrete_mall_clean00
0 54 167 135 0 -1 0 -142.916016 -2.903646 1 0 1
0 54 167 246.999 0 -1 0 -142.916016 -1.445326 1 0 1
0 50 167 242.999 0 -1 0 -142.968099 -1.497409 1 0 1
concrete_concrete_mall_clean00
0 54 167 135 0 -1 0 -142.916016 -2.903646 1 0 1
0 50 167 242.999 0 -1 0 -142.968099 -1.497409 1 0 1
0 50 167 135 0 -1 0 -142.968099 -2.903646 1 0 1
concrete_concrete_mall_clean00
0 50 167 135 -1 0 0 -4.093099 -39.777995 1 0 1
0 50 167 242.999 -1 0 0 -2.686862 -39.777995 1 0 1
0 50 175 242.999 -1 0 0 -2.686862 -39.673828 1 0 1
concrete_concrete_mall_clean00
0 50 167 135 -1 0 0 -4.093099 -39.777995 1 0 1
0 50 175 242.999 -1 0 0 -2.686862 -39.673828 1 0 1
0 50 175 135 -1 0 0 -4.093099 -39.673828 1 0 1
bridge_se1_metal_flat_steel_01
0 -70 -181 500 0 1 0 -86.734375 1.570312 1 0 1
0 -70 -181 385 0 1 0 -86.734375 0.671875 1 0 1
0 -72 -181 385 0 1 0 -86.75 0.671875 1 0 1
bridge_se1_metal_flat_steel_01
0 -70 -181 500 0 1 0 -86.734375 1.570312 1 0 1
0 -72 -181 385 0 1 0 -86.75 0.671875 1 0 1
0 -72 -181 500 0 1 0 -86.75 1.570312 1 0 1
bridge_se1_metal_flat_steel_01
0 -70 -189 385 0 -1 0 -86.734375 0.671875 1 0 1
0 -70 -189 500 0 -1 0 -86.734375 1.570312 1 0 1
0 -72 -189 500 0 -1 0 -86.75 1.570312 1 0 1
bridge_se1_metal_flat_steel_01
0 -70 -189 385 0 -1 0 -86.734375 0.671875 1 0 1
0 -72 -189 500 0 -1 0 -86.75 1.570312 1 0 1
0 -72 -189 385 0 -1 0 -86.75 0.671875 1 0 1
bridge_se1_metal_flat_steel_01
0 -72 -189 385 -1 0 0 27.273438 0.671875 1 0 1
0 -72 -189 500 -1 0 0 27.273438 1.570312 1 0 1
0 -72 -181 500 -1 0 0 27.210938 1.570312 1 0 1
bridge_se1_metal_flat_steel_01
0 -72 -189 385 -1 0 0 27.273438 0.671875 1 0 1
0 -72 -181 500 -1 0 0 27.210938 1.570312 1 0 1
0 -72 -181 385 -1 0 0 27.210938 0.671875 1 0 1
bridge_se1_metal_flat_steel_01
0 -70 -189 500 1 0 0 -26.914062 0.914062 1 0 1
0 -70 -189 385 1 0 0 -26.914062 0.015625 1 0 1
0 -70 -181 385 1 0 0 -26.851562 0.015625 1 0 1
bridge_se1_metal_flat_steel_01
0 -70 -189 500 1 0 0 -26.914062 0.914062 1 0 1
0 -70 -181 385 1 0 0 -26.851562 0.015625 1 0 1
0 -70 -181 500 1 0 0 -26.851562 0.914062 1 0 1
pepsi2_arch_concrete_stair01
0 -100 -183 178 0 1 0 -86.484375 -1.205078 1 0 1
0 -100 -183 135 0 1 0 -86.484375 -1.541016 1 0 1
0 -106 -183 135 0 1 0 -86.53125 -1.541016 1 0 1
pepsi2_arch_concrete_stair01
0 -100 -183 178 0 1 0 -86.484375 -1.205078 1 0 1
0 -106 -183 135 0 1 0 -86.53125 -1.541016 1 0 1
0 -106 -183 178 0 1 0 -86.53125 -1.205078 1 0 1
pepsi2_arch_concrete_stair01
0 -100 -189 135 0 -1 0 -86.484375 -1.541016 1 0 1
0 -100 -189 178 0 -1 0 -86.484375 -1.205078 1 0 1
0 -106 -189 178 0 -1 0 -86.53125 -1.205078 1 0 1
pepsi2_arch_concrete_stair01
0 -100 -189 135 0 -1 0 -86.484375 -1.541016 1 0 1
0 -106 -189 178 0 -1 0 -86.53125 -1.205078 1 0 1
0 -106 -189 135 0 -1 0 -86.53125 -1.541016 1 0 1
pepsi2_arch_concrete_stair01
0 -106 -189 135 -1 0 0 -27.578125 -1.541016 1 0 1
0 -106 -189 178 -1 0 0 -27.578125 -1.205078 1 0 1
0 -106 -183 178 -1 0 0 -27.53125 -1.205078 1 0 1
pepsi2_arch_concrete_stair01
0 -106 -189 135 -1 0 0 -27.578125 -1.541016 1 0 1
0 -106 -183 178 -1 0 0 -27.53125 -1.205078 1 0 1
0 -106 -183 135 -1 0 0 -27.53125 -1.541016 1 0 1
pepsi2_arch_concrete_floor_smooth01
0 -100 -189 178 1 0 0 -26.914062 -1.601562 1 0 1
0 -100 -189 135 1 0 0 -26.914062 -1.9375 1 0 1
0 -100 -183 135 1 0 0 -26.867188 -1.9375 1 0 1
pepsi2_arch_concrete_floor_smooth01
0 -100 -189 178 1 0 0 -26.914062 -1.601562 1 0 1
0 -100 -183 135 1 0 0 -26.867188 -1.9375 1 0 1
0 -100 -183 178 1 0 0 -26.867188 -1.601562 1 0 1
pepsi2_arch_concrete_stair01
0 -106 -189 178 0 0 1 87.15625 28.568359 1 0 1
0 -100 -189 178 0 0 1 87.109375 28.568359 1 0 1
0 -100 -183 178 0 0 1 87.109375 28.521484 1 0 1
pepsi2_arch_concrete_stair01
0 -106 -189 178 0 0 1 87.15625 28.568359 1 0 1
0 -100 -183 178 0 0 1 87.109375 28.521484 1 0 1
0 -106 -183 178 0 0 1 87.15625 28.521484 1 0 1
brick_brick_ext_02_cheap
0 249 -9 414.9993 0 -1 0 -59.964844 0.466235 1 0 1
0 249 -9 417 0 -1 0 -59.964844 0.4774 1 0 1
0 57 -9 417 0 -1 0 -61.036272 0.4774 1 0 1
brick_brick_ext_02_cheap
0 249 -9 414.9993 0 -1 0 -59.964844 0.466235 1 0 1
0 57 -9 417 0 -1 0 -61.036272 0.4774 1 0 1
0 57 -9 414.9993 0 -1 0 -61.036272 0.466235 1 0 1
brick_brick_ext_02_cheap
0 57 -9 414.9993 -1 0 0 -0.047437 -17.5226 1 0 1
0 57 -9 417 -1 0 0 -0.036272 -17.5226 1 0 1
0 57 -1 417 -1 0 0 -0.036272 -17.477958 1 0 1
brick_brick_ext_02_cheap
0 57 -9 414.9993 -1 0 0 -0.047437 -17.5226 1 0 1
0 57 -1 417 -1 0 0 -0.036272 -17.477958 1 0 1
0 57 -1 407 -1 0 0 -0.092076 -17.477958 1 0 1
brick_brick_ext_02_cheap
0 57 -9 414.9993 -1 0 0 -0.047437 -17.5226 1 0 1
0 57 -1 407 -1 0 0 -0.092076 -17.477958 1 0 1
0 57 -3 407 -1 0 0 -0.092076 -17.489118 1 0 1
brick_brick_ext_02_cheap
0 249 -9 417 1 0 0 0.036272 -17.5226 1 0 1
0 249 -9 414.9993 1 0 0 0.047437 -17.5226 1 0 1
0 249 -3 407 1 0 0 0.092076 -17.489118 1 0 1
brick_brick_ext_02_cheap
0 249 -9 417 1 0 0 0.036272 -17.5226 1 0 1
0 249 -3 407 1 0 0 0.092076 -17.489118 1 0 1
0 249 -1 407 1 0 0 0.092076 -17.477958 1 0 1
brick_brick_ext_02_cheap
0 249 -9 417 1 0 0 0.036272 -17.5226 1 0 1
0 249 -1 407 1 0 0 0.092076 -17.477958 1 0 1
0 249 -1 417 1 0 0 0.036272 -17.477958 1 0 1
brick_brick_ext_02_cheap
0 57 -3 407 0 0 -1 -61.036272 19.410993 1 0 1
0 57 -1 407 0 0 -1 -61.036272 19.399833 1 0 1
0 249 -1 407 0 0 -1 -59.964844 19.399833 1 0 1
brick_brick_ext_02_cheap
0 57 -3 407 0 0 -1 -61.036272 19.410993 1 0 1
0 249 -1 407 0 0 -1 -59.964844 19.399833 1 0 1
0 249 -3 407 0 0 -1 -59.964844 19.410993 1 0 1
brick_brick_ext_02_cheap
0 57 -9 417 0 0 1 -61.036272 -17.5226 1 0 1
0 249 -9 417 0 0 1 -59.964844 -17.5226 1 0 1
0 249 -1 417 0 0 1 -59.964844 -17.477958 1 0 1
brick_brick_ext_02_cheap
0 57 -9 417 0 0 1 -61.036272 -17.5226 1 0 1
0 249 -1 417 0 0 1 -59.964844 -17.477958 1 0 1
0 57 -1 417 0 0 1 -61.036272 -17.477958 1 0 1
brick_brick_ext_02_cheap
0 249 -9 414.9993 0 -0.799975 -0.600034 -59.964844 11.466236 1 0 1
0 57 -9 414.9993 0 -0.799975 -0.600034 -61.036272 11.466236 1 0 1
0 57 -3 407 0 -0.799975 -0.600034 -61.036272 11.410435 1 0 1
brick_brick_ext_02_cheap
0 249 -9 414.9993 0 -0.799975 -0.600034 -59.964844 11.466236 1 0 1
0 57 -3 407 0 -0.799975 -0.600034 -61.036272 11.410435 1 0 1
0 249 -3 407 0 -0.799975 -0.600034 -59.964844 11.410435 1 0 1
brick_brick_ext_02_cheap
0 -26 -17 515 0 -1 0 -85.652344 1.984375 1 0 1
0 -38 -17 515 0 -1 0 -85.746094 1.984375 1 0 1
0 -38 -17 135 0 -1 0 -85.746094 -0.984375 1 0 1
brick_brick_ext_02_cheap
0 -26 -17 515 0 -1 0 -85.652344 1.984375 1 0 1
0 -38 -17 135 0 -1 0 -85.746094 -0.984375 1 0 1
0 -26 -17 135 0 -1 0 -85.652344 -0.984375 1 0 1
brick_brick_ext_02_cheap
0 -2 -5 135 1 0 0 -26.371094 -0.984375 1 0 1
0 -2 -1 135 1 0 0 -26.339844 -0.984375 1 0 1
0 -2 -1 515 1 0 0 -26.339844 1.984375 1 0 1
brick_brick_ext_02_cheap
0 -2 -5 135 1 0 0 -26.371094 -0.984375 1 0 1
0 -2 -1 515 1 0 0 -26.339844 1.984375 1 0 1
0 -2 -5 515 1 0 0 -26.371094 1.984375 1 0 1
brick_brick_ext_02_cheap
0 -26 -17 515 0.447214 -0.894427 0 -88.649075 1.984375 1 0 1
0 -26 -17 135 0.447214 -0.894427 0 -88.649075 -0.984375 1 0 1
0 -2 -5 135 0.447214 -0.894427 0 -88.43945 -0.984375 1 0 1
brick_brick_ext_02_cheap
0 -26 -17 515 0.447214 -0.894427 0 -88.649075 1.984375 1 0 1
0 -2 -5 135 0.447214 -0.894427 0 -88.43945 -0.984375 1 0 1
0 -2 -5 515 0.447214 -0.894427 0 -88.43945 1.984375 1 0 1
brick_brick_ext_02_cheap
0 -38 -17 135 -0.478852 -0.877896 0 -63.744188 -0.984375 1 0 1
0 -38 -17 515 -0.478852 -0.877896 0 -63.744188 1.984375 1 0 1
0 -60 -5 515 -0.478852 -0.877896 0 -63.939974 1.984375 1 0 1
brick_brick_ext_02_cheap
0 -38 -17 135 -0.478852 -0.877896 0 -63.744188 -0.984375 1 0 1
0 -60 -5 515 -0.478852 -0.877896 0 -63.939974 1.984375 1 0 1
0 -60 -5 135 -0.478852 -0.877896 0 -63.939974 -0.984375 1 0 1
bridge_se1_metal_flat_steel_01
0 -72 -181 417 0 1 0 -86.75 0.921875 1 0 1
0 -72 -181 415 0 1 0 -86.75 0.90625 1 0 1
0 -159 -181 415 0 1 0 -87.429688 0.90625 1 0 1
bridge_se1_metal_flat_steel_01
0 -72 -181 417 0 1 0 -86.75 0.921875 1 0 1
0 -159 -181 415 0 1 0 -87.429688 0.90625 1 0 1
0 -159 -181 417 0 1 0 -87.429688 0.921875 1 0 1
bridge_se1_metal_flat_steel_01
0 -72 -189 415 0 -1 0 -86.75 0.90625 1 0 1
0 -72 -189 417 0 -1 0 -86.75 0.921875 1 0 1
0 -159 -189 417 0 -1 0 -87.429688 0.921875 1 0 1
bridge_se1_metal_flat_steel_01
0 -72 -189 415 0 -1 0 -86.75 0.90625 1 0 1
0 -159 -189 417 0 -1 0 -87.429688 0.921875 1 0 1
0 -159 -189 415 0 -1 0 -87.429688 0.90625 1 0 1
bridge_se1_metal_flat_steel_01
0 -72 -189 415 0 0 -1 -86.75 27.929688 1 0 1
0 -159 -189 415 0 0 -1 -87.429688 27.929688 1 0 1
0 -159 -181 415 0 0 -1 -87.429688 27.867188 1 0 1
bridge_se1_metal_flat_steel_01
0 -72 -189 415 0 0 -1 -86.75 27.929688 1 0 1
0 -159 -181 415 0 0 -1 -87.429688 27.867188 1 0 1
0 -72 -181 415 0 0 -1 -86.75 27.867188 1 0 1
bridge_se1_metal_flat_steel_01
0 -159 -189 417 0 0 1 -87.429688 -26.101562 1 0 1
0 -72 -189 417 0 0 1 -86.75 -26.101562 1 0 1
0 -72 -181 417 0 0 1 -86.75 -26.039062 1 0 1
bridge_se1_metal_flat_steel_01
0 -159 -189 417 0 0 1 -87.429688 -26.101562 1 0 1
0 -72 -181 417 0 0 1 -86.75 -26.039062 1 0 1
0 -159 -181 417 0 0 1 -87.429688 -26.039062 1 0 1
af_omega_clock_glass
0 -72 -184 500 0 1 0 -579.445312 0.497396 1 0 1
0 -72 -184 385 0 1 0 -579.445312 -5.492188 1 0 1
0 -247 -184 385 0 1 0 -588.559896 -5.492188 1 0 1
af_omega_clock_glass
0 -72 -184 500 0 1 0 -579.445312 0.497396 1 0 1
0 -247 -184 385 0 1 0 -588.559896 -5.492188 1 0 1
0 -247 -184 500 0 1 0 -588.559896 0.497396 1 0 1
af_omega_clock_glass
0 -72 -186 385 0 -1 0 -579.445312 -5.492188 1 0 1
0 -72 -186 500 0 -1 0 -579.445312 0.497396 1 0 1
0 -247 -186 500 0 -1 0 -588.559896 0.497396 1 0 1
af_omega_clock_glass
0 -72 -186 385 0 -1 0 -579.445312 -5.492188 1 0 1
0 -247 -186 500 0 -1 0 -588.559896 0.497396 1 0 1
0 -247 -186 385 0 -1 0 -588.559896 -5.492188 1 0 1
bridge_se1_metal_flat_steel_01
0 -140 -105 177.999 0 -0.70693 -0.707284 -87.376953 18.141391 1 0 1
0 -180 -105 177.999 0 -0.70693 -0.707284 -87.689453 18.141391 1 0 1
0 -180 -103 176 0 -0.70693 -0.707284 -87.689453 18.1193 1 0 1
bridge_se1_metal_flat_steel_01
0 -140 -105 177.999 0 -0.70693 -0.707284 -87.376953 18.141391 1 0 1
0 -180 -103 176 0 -0.70693 -0.707284 -87.689453 18.1193 1 0 1
0 -140 -103 176 0 -0.70693 -0.707284 -87.376953 18.1193 1 0 1
bridge_se1_metal_flat_steel_01
0 -180 -105 324.001 0 -1 0 -87.689453 0.281258 1 0 1
0 -180 -105 177.999 0 -1 0 -87.689453 -0.859383 1 0 1
0 -140 -105 177.999 0 -1 0 -87.376953 -0.859383 1 0 1
bridge_se1_metal_flat_steel_01
0 -180 -105 324.001 0 -1 0 -87.689453 0.281258 1 0 1
0 -140 -105 177.999 0 -1 0 -87.376953 -0.859383 1 0 1
0 -140 -105 324.001 0 -1 0 -87.376953 0.281258 1 0 1
bridge_se1_metal_flat_steel_01
0 -180 -103 176 -1 0 0 26.294922 -0.875 1 0 1
0 -180 -105 177.999 -1 0 0 26.310547 -0.859383 1 0 1
0 -180 -105 324.001 -1 0 0 26.310547 0.281258 1 0 1
bridge_se1_metal_flat_steel_01
0 -180 -103 176 -1 0 0 26.294922 -0.875 1 0 1
0 -180 -105 324.001 -1 0 0 26.310547 0.281258 1 0 1
0 -180 -103 326 -1 0 0 26.294922 0.296875 1 0 1
bridge_se1_metal_flat_steel_01
0 -180 -103 176 -1 0 0 26.294922 -0.875 1 0 1
0 -180 -103 326 -1 0 0 26.294922 0.296875 1 0 1
0 -180 -100 326 -1 0 0 26.271484 0.296875 1 0 1
bridge_se1_metal_flat_steel_01
0 -180 -103 176 -1 0 0 26.294922 -0.875 1 0 1
0 -180 -100 326 -1 0 0 26.271484 0.296875 1 0 1
0 -180 -100 176 -1 0 0 26.271484 -0.875 1 0 1
bridge_se1_metal_flat_steel_01
0 -140 -105 324.001 1 0 0 -26.376953 0.281258 1 0 1
0 -140 -105 177.999 1 0 0 -26.376953 -0.859383 1 0 1
0 -140 -103 176 1 0 0 -26.361328 -0.875 1 0 1
bridge_se1_metal_flat_steel_01
0 -140 -105 324.001 1 0 0 -26.376953 0.281258 1 0 1
0 -140 -103 176 1 0 0 -26.361328 -0.875 1 0 1
0 -140 -100 176 1 0 0 -26.337891 -0.875 1 0 1
bridge_se1_metal_flat_steel_01
0 -140 -105 324.001 1 0 0 -26.376953 0.281258 1 0 1
0 -140 -100 176 1 0 0 -26.337891 -0.875 1 0 1
0 -140 -100 326 1 0 0 -26.337891 0.296875 1 0 1
bridge_se1_metal_flat_steel_01
0 -140 -105 324.001 1 0 0 -26.376953 0.281258 1 0 1
0 -140 -100 326 1 0 0 -26.337891 0.296875 1 0 1
0 -140 -103 326 1 0 0 -26.361328 0.296875 1 0 1
bridge_se1_metal_flat_steel_01
0 -140 -103 176 0 0 -1 -87.376953 28.109375 1 0 1
0 -180 -103 176 0 0 -1 -87.689453 28.109375 1 0 1
0 -180 -100 176 0 0 -1 -87.689453 28.085938 1 0 1
bridge_se1_metal_flat_steel_01
0 -140 -103 176 0 0 -1 -87.376953 28.109375 1 0 1
0 -180 -100 176 0 0 -1 -87.689453 28.085938 1 0 1
0 -140 -100 176 0 0 -1 -87.376953 28.085938 1 0 1
bridge_se1_metal_flat_steel_01
0 -140 -103 326 0 0 1 -87.376953 -25.6875 1 0 1
0 -140 -100 326 0 0 1 -87.376953 -25.664062 1 0 1
0 -180 -100 326 0 0 1 -87.689453 -25.664062 1 0 1
bridge_se1_metal_flat_steel_01
0 -140 -103 326 0 0 1 -87.376953 -25.6875 1 0 1
0 -180 -100 326 0 0 1 -87.689453 -25.664062 1 0 1
0 -180 -103 326 0 0 1 -87.689453 -25.6875 1 0 1
bridge_se1_metal_flat_steel_01
0 -180 -105 324.001 0 -0.70693 0.707284 -87.689453 -18.719063 1 0 1
0 -140 -105 324.001 0 -0.70693 0.707284 -87.376953 -18.719063 1 0 1
0 -140 -103 326 0 -0.70693 0.707284 -87.376953 -18.696972 1 0 1
bridge_se1_metal_flat_steel_01
0 -180 -105 324.001 0 -0.70693 0.707284 -87.689453 -18.719063 1 0 1
0 -140 -103 326 0 -0.70693 0.707284 -87.376953 -18.696972 1 0 1
0 -180 -103 326 0 -0.70693 0.707284 -87.689453 -18.696972 1 0 1
pepsi2_arch_concrete_stair01
0 -106 -189 135 0 -1 0 -87.101562 -1.541016 1 0 1
0 -106 -189 146 0 -1 0 -87.101562 -1.455078 1 0 1
0 -213 -189 146 0 -1 0 -87.9375 -1.455078 1 0 1
pepsi2_arch_concrete_stair01
0 -106 -189 135 0 -1 0 -87.101562 -1.541016 1 0 1
0 -213 -189 146 0 -1 0 -87.9375 -1.455078 1 0 1
0 -213 -189 135 0 -1 0 -87.9375 -1.541016 1 0 1
pepsi2_arch_concrete_stair01
0 -213 -189 146 0 0 1 -87.9375 28.591797 1 0 1
0 -106 -189 146 0 0 1 -87.101562 28.591797 1 0 1
0 -106 -183 146 0 0 1 -87.101562 28.544922 1 0 1
pepsi2_arch_concrete_stair01
0 -213 -189 146 0 0 1 -87.9375 28.591797 1 0 1
0 -106 -183 146 0 0 1 -87.101562 28.544922 1 0 1
0 -213 -183 146 0 0 1 -87.9375 28.544922 1 0 1
pepsi2_arch_concrete_stair01
0 -106 -183 146 0 1 0 -87.101562 -1.455078 1 0 1
0 -106 -183 135 0 1 0 -87.101562 -1.541016 1 0 1
0 -213 -183 135 0 1 0 -87.9375 -1.541016 1 0 1
pepsi2_arch_concrete_stair01
0 -106 -183 146 0 1 0 -87.101562 -1.455078 1 0 1
0 -213 -183 135 0 1 0 -87.9375 -1.541016 1 0 1
0 -213 -183 146 0 1 0 -87.9375 -1.455078 1 0 1
bridge_se1_metal_flat_steel_01
0 -159 -181 500 0 1 0 -87.351562 1.570312 1 0 1
0 -159 -181 385 0 1 0 -87.351562 0.671875 1 0 1
0 -161 -181 385 0 1 0 -87.367188 0.671875 1 0 1
bridge_se1_metal_flat_steel_01
0 -159 -181 500 0 1 0 -87.351562 1.570312 1 0 1
0 -161 -181 385 0 1 0 -87.367188 0.671875 1 0 1
0 -161 -181 500 0 1 0 -87.367188 1.570312 1 0 1
bridge_se1_metal_flat_steel_01
0 -159 -189 385 0 -1 0 -87.351562 0.671875 1 0 1
0 -159 -189 500 0 -1 0 -87.351562 1.570312 1 0 1
0 -161 -189 500 0 -1 0 -87.367188 1.570312 1 0 1
bridge_se1_metal_flat_steel_01
0 -159 -189 385 0 -1 0 -87.351562 0.671875 1 0 1
0 -161 -189 500 0 -1 0 -87.367188 1.570312 1 0 1
0 -161 -189 385 0 -1 0 -87.367188 0.671875 1 0 1
bridge_se1_metal_flat_steel_01
0 -161 -189 385 -1 0 0 27.65625 0.671875 1 0 1
0 -161 -189 500 -1 0 0 27.65625 1.570312 1 0 1
0 -161 -181 500 -1 0 0 27.59375 1.570312 1 0 1
bridge_se1_metal_flat_steel_01
0 -161 -189 385 -1 0 0 27.65625 0.671875 1 0 1
0 -161 -181 500 -1 0 0 27.59375 1.570312 1 0 1
0 -161 -181 385 -1 0 0 27.59375 0.671875 1 0 1
bridge_se1_metal_flat_steel_01
0 -159 -189 500 1 0 0 -27.375 1.570312 1 0 1
0 -159 -189 385 1 0 0 -27.375 0.671875 1 0 1
0 -159 -181 385 1 0 0 -27.3125 0.671875 1 0 1
bridge_se1_metal_flat_steel_01
0 -159 -189 500 1 0 0 -27.375 1.570312 1 0 1
0 -159 -181 385 1 0 0 -27.3125 0.671875 1 0 1
0 -159 -181 500 1 0 0 -27.3125 1.570312 1 0 1
concrete_concrete_mall_clean00
0 2 175 243 0 1 0 -143.593099 4.044271 1 0 1
0 2 175 135 0 1 0 -143.593099 5.450521 1 0 1
0 -2 175 135 0 1 0 -143.645182 5.450521 1 0 1
concrete_concrete_mall_clean00
0 2 175 243 0 1 0 -143.593099 4.044271 1 0 1
0 -2 175 135 0 1 0 -143.645182 5.450521 1 0 1
0 -2 175 247 0 1 0 -143.645182 3.992188 1 0 1
concrete_concrete_mall_clean00
0 2 167 135 0 -1 0 -143.593099 -2.903646 1 0 1
0 2 167 243 0 -1 0 -143.593099 -1.497396 1 0 1
0 -2 167 247 0 -1 0 -143.645182 -1.445312 1 0 1
concrete_concrete_mall_clean00
0 2 167 135 0 -1 0 -143.593099 -2.903646 1 0 1
0 -2 167 247 0 -1 0 -143.645182 -1.445312 1 0 1
0 -2 167 135 0 -1 0 -143.645182 -2.903646 1 0 1
concrete_concrete_mall_clean00
0 2 167 243 1 0 0 3.126302 -39.777995 1 0 1
0 2 167 135 1 0 0 4.532552 -39.777995 1 0 1
0 2 175 135 1 0 0 4.532552 -39.673828 1 0 1
concrete_concrete_mall_clean00
0 2 167 243 1 0 0 3.126302 -39.777995 1 0 1
0 2 175 135 1 0 0 4.532552 -39.673828 1 0 1
0 2 175 243 1 0 0 3.126302 -39.673828 1 0 1
metal_metalfireescape002a
0 -106 -185 178 0 1 0 174.265625 -9 1 0 1
0 -106 -185 146 0 1 0 174.265625 -10 1 0 1
0 -213 -185 146 0 1 0 175.9375 -10 1 0 1
metal_metalfireescape002a
0 -106 -185 178 0 1 0 174.265625 -9 1 0 1
0 -213 -185 146 0 1 0 175.9375 -10 1 0 1
0 -213 -185 178 0 1 0 175.9375 -9 1 0 1
metal_metalfireescape002a
0 -106 -187 146 0 -1 0 -174.265625 -10 1 0 1
0 -106 -187 178 0 -1 0 -174.265625 -9 1 0 1
0 -213 -187 178 0 -1 0 -175.9375 -9 1 0 1
metal_metalfireescape002a
0 -106 -187 146 0 -1 0 -174.265625 -10 1 0 1
0 -213 -187 178 0 -1 0 -175.9375 -9 1 0 1
0 -213 -187 146 0 -1 0 -175.9375 -10 1 0 1
metal_metalfireescape002a
0 -213 -187 178 0 0 1 125.101563 77.985491 1 0 1
0 -106 -187 178 0 0 1 123.907366 77.985491 1 0 1
0 -106 -185 178 0 0 1 123.907366 77.940848 1 0 1
metal_metalfireescape002a
0 -213 -187 178 0 0 1 125.101563 77.985491 1 0 1
0 -106 -185 178 0 0 1 123.907366 77.940848 1 0 1
0 -213 -185 178 0 0 1 125.101563 77.940848 1 0 1
brick_brick_ext_02_cheap
0 94 168 255 0 1 0 85.785171 -0.0625 1 0 1
0 94 168 135 0 1 0 85.785171 -1 1 0 1
0 86.1 168 135 0 1 0 85.84689 -1 1 0 1
brick_brick_ext_02_cheap
0 94 168 255 0 1 0 85.785171 -0.0625 1 0 1
0 86.1 168 135 0 1 0 85.84689 -1 1 0 1
0 86.1 168 255 0 1 0 85.84689 -0.0625 1 0 1
brick_brick_ext_06_cheap
0 94 7 135 0 -1 0 -85.851578 -1.933594 1 0 1
0 94 7 255 0 -1 0 -85.851578 -0.996094 1 0 1
0 86.1 7 255 0 -1 0 -85.913296 -0.996094 1 0 1
brick_brick_ext_06_cheap
0 94 7 135 0 -1 0 -85.851578 -1.933594 1 0 1
0 86.1 7 255 0 -1 0 -85.913296 -0.996094 1 0 1
0 86.1 7 135 0 -1 0 -85.913296 -1.933594 1 0 1
brick_brick_ext_06_cheap
0 86.1 7 135 -1 0 0 25.238281 -1.933594 1 0 1
0 86.1 7 255 -1 0 0 25.238281 -0.996094 1 0 1
0 86.1 168 255 -1 0 0 23.980469 -0.996094 1 0 1
brick_brick_ext_06_cheap
0 86.1 7 135 -1 0 0 25.238281 -1.933594 1 0 1
0 86.1 168 255 -1 0 0 23.980469 -0.996094 1 0 1
0 86.1 168 135 -1 0 0 23.980469 -1.933594 1 0 1
brick_brick_ext_06_cheap
0 94 7 255 1 0 0 -25.527344 -0.996094 1 0 1
0 94 7 135 1 0 0 -25.527344 -1.933594 1 0 1
0 94 168 135 1 0 0 -24.269531 -1.933594 1 0 1
brick_brick_ext_06_cheap
0 94 7 255 1 0 0 -25.527344 -0.996094 1 0 1
0 94 168 135 1 0 0 -24.269531 -1.933594 1 0 1
0 94 168 255 1 0 0 -24.269531 -0.996094 1 0 1
brick_brick_ext_02_cheap
0 249 -9 286.999 0 -1 0 -59.964844 0.466791 1 0 1
0 249 -9 289 0 -1 0 -59.964844 0.477958 1 0 1
0 57 -9 289 0 -1 0 -61.036272 0.477958 1 0 1
brick_brick_ext_02_cheap
0 249 -9 286.999 0 -1 0 -59.964844 0.466791 1 0 1
0 57 -9 289 0 -1 0 -61.036272 0.477958 1 0 1
0 57 -9 286.999 0 -1 0 -61.036272 0.466791 1 0 1
brick_brick_ext_02_cheap
0 57 -9 286.999 -1 0 0 -1.046881 -17.5226 1 0 1
0 57 -9 289 -1 0 0 -1.035714 -17.5226 1 0 1
0 57 -1 289 -1 0 0 -1.035714 -17.477958 1 0 1
brick_brick_ext_02_cheap
0 57 -9 286.999 -1 0 0 -1.046881 -17.5226 1 0 1
0 57 -1 289 -1 0 0 -1.035714 -17.477958 1 0 1
0 57 -1 279 -1 0 0 -1.091518 -17.477958 1 0 1
brick_brick_ext_02_cheap
0 57 -9 286.999 -1 0 0 -1.046881 -17.5226 1 0 1
0 57 -1 279 -1 0 0 -1.091518 -17.477958 1 0 1
0 57 -3 279 -1 0 0 -1.091518 -17.489118 1 0 1
brick_brick_ext_02_cheap
0 249 -9 289 1 0 0 1.035714 -17.5226 1 0 1
0 249 -9 286.999 1 0 0 1.046881 -17.5226 1 0 1
0 249 -3 279 1 0 0 1.091518 -17.489118 1 0 1
brick_brick_ext_02_cheap
0 249 -9 289 1 0 0 1.035714 -17.5226 1 0 1
0 249 -3 279 1 0 0 1.091518 -17.489118 1 0 1
0 249 -1 279 1 0 0 1.091518 -17.477958 1 0 1
brick_brick_ext_02_cheap
0 249 -9 289 1 0 0 1.035714 -17.5226 1 0 1
0 249 -1 279 1 0 0 1.091518 -17.477958 1 0 1
0 249 -1 289 1 0 0 1.035714 -17.477958 1 0 1
brick_brick_ext_02_cheap
0 57 -3 279 0 0 -1 -61.036272 19.410993 1 0 1
0 57 -1 279 0 0 -1 -61.036272 19.399833 1 0 1
0 249 -1 279 0 0 -1 -59.964844 19.399833 1 0 1
brick_brick_ext_02_cheap
0 57 -3 279 0 0 -1 -61.036272 19.410993 1 0 1
0 249 -1 279 0 0 -1 -59.964844 19.399833 1 0 1
0 249 -3 279 0 0 -1 -59.964844 19.410993 1 0 1
brick_brick_ext_02_cheap
0 57 -9 289 0 0 1 -61.036272 -17.5226 1 0 1
0 249 -9 289 0 0 1 -59.964844 -17.5226 1 0 1
0 249 -1 289 0 0 1 -59.964844 -17.477958 1 0 1
brick_brick_ext_02_cheap
0 57 -9 289 0 0 1 -61.036272 -17.5226 1 0 1
0 249 -1 289 0 0 1 -59.964844 -17.477958 1 0 1
0 57 -1 289 0 0 1 -61.036272 -17.477958 1 0 1
brick_brick_ext_02_cheap
0 249 -9 286.999 0 -0.799964 -0.600048 -59.964844 11.467071 1 0 1
0 57 -9 286.999 0 -0.799964 -0.600048 -61.036272 11.467071 1 0 1
0 57 -3 279 0 -0.799964 -0.600048 -61.036272 11.411272 1 0 1
brick_brick_ext_02_cheap
0 249 -9 286.999 0 -0.799964 -0.600048 -59.964844 11.467071 1 0 1
0 57 -3 279 0 -0.799964 -0.600048 -61.036272 11.411272 1 0 1
0 249 -3 279 0 -0.799964 -0.600048 -59.964844 11.411272 1 0 1
concrete_concrete_mall_clean00
0 2 167 243 0 0 -1 -143.593099 -39.777995 1 0 1
0 2 175 243 0 0 -1 -143.593099 -39.673828 1 0 1
0 50 175 243 0 0 -1 -142.968099 -39.673828 1 0 1
concrete_concrete_mall_clean00
0 2 167 243 0 0 -1 -143.593099 -39.777995 1 0 1
0 50 175 243 0 0 -1 -142.968099 -39.673828 1 0 1
0 50 167 243 0 0 -1 -142.968099 -39.777995 1 0 1
concrete_concrete_mall_clean00
0 50 175 243 0 1 0 -142.968099 4.044271 1 0 1
0 2 175 243 0 1 0 -143.593099 4.044271 1 0 1
0 -2 175 247 0 1 0 -143.645182 3.992188 1 0 1
concrete_concrete_mall_clean00
0 50 175 243 0 1 0 -142.968099 4.044271 1 0 1
0 -2 175 247 0 1 0 -143.645182 3.992188 1 0 1
0 54 175 247 0 1 0 -142.916016 3.992188 1 0 1
concrete_concrete_mall_clean00
0 54 167 247 0 -1 0 -142.916016 -1.445312 1 0 1
0 -2 167 247 0 -1 0 -143.645182 -1.445312 1 0 1
0 2 167 243 0 -1 0 -143.593099 -1.497396 1 0 1
concrete_concrete_mall_clean00
0 54 167 247 0 -1 0 -142.916016 -1.445312 1 0 1
0 2 167 243 0 -1 0 -143.593099 -1.497396 1 0 1
0 50 167 243 0 -1 0 -142.968099 -1.497396 1 0 1
bridge_se1_metal_flat_steel_01
0 -249 -189 385 0 0 1 -87.984375 -26.351562 1 0 1
0 -70 -189 385 0 0 1 -86.585938 -26.351562 1 0 1
0 -70 -181 385 0 0 1 -86.585938 -26.289062 1 0 1
bridge_se1_metal_flat_steel_01
0 -249 -189 385 0 0 1 -87.984375 -26.351562 1 0 1
0 -70 -181 385 0 0 1 -86.585938 -26.289062 1 0 1
0 -249 -181 385 0 0 1 -87.984375 -26.289062 1 0 1
bridge_se1_metal_flat_steel_01
0 -249 -181 383 0 1 0 -87.984375 0.65625 1 0 1
0 -249 -181 385 0 1 0 -87.984375 0.671875 1 0 1
0 -70 -181 385 0 1 0 -86.585938 0.671875 1 0 1
bridge_se1_metal_flat_steel_01
0 -249 -181 383 0 1 0 -87.984375 0.65625 1 0 1
0 -70 -181 385 0 1 0 -86.585938 0.671875 1 0 1
0 -70 -181 383 0 1 0 -86.585938 0.65625 1 0 1
bridge_se1_metal_flat_steel_01
0 -70 -189 383 0 -1 0 -86.585938 0.65625 1 0 1
0 -70 -189 385 0 -1 0 -86.585938 0.671875 1 0 1
0 -249 -189 385 0 -1 0 -87.984375 0.671875 1 0 1
bridge_se1_metal_flat_steel_01
0 -70 -189 383 0 -1 0 -86.585938 0.65625 1 0 1
0 -249 -189 385 0 -1 0 -87.984375 0.671875 1 0 1
0 -249 -189 383 0 -1 0 -87.984375 0.65625 1 0 1
bridge_se1_metal_flat_steel_01
0 -249 -189 383 -1 0 0 26.914062 0 1 0 1
0 -249 -189 385 -1 0 0 26.914062 0.015625 1 0 1
0 -249 -181 385 -1 0 0 26.851562 0.015625 1 0 1
bridge_se1_metal_flat_steel_01
0 -249 -189 383 -1 0 0 26.914062 0 1 0 1
0 -249 -181 385 -1 0 0 26.851562 0.015625 1 0 1
0 -249 -181 383 -1 0 0 26.851562 0 1 0 1
bridge_se1_metal_flat_steel_01
0 -70 -181 383 1 0 0 -26.851562 0 1 0 1
0 -70 -181 385 1 0 0 -26.851562 0.015625 1 0 1
0 -70 -189 385 1 0 0 -26.914062 0.015625 1 0 1
bridge_se1_metal_flat_steel_01
0 -70 -181 383 1 0 0 -26.851562 0 1 0 1
0 -70 -189 385 1 0 0 -26.914062 0.015625 1 0 1
0 -70 -189 383 1 0 0 -26.914062 0 1 0 1
bridge_se1_metal_flat_steel_01
0 -70 -181 502 0 1 0 -86.585938 1.585938 1 0 1
0 -70 -181 500 0 1 0 -86.585938 1.570312 1 0 1
0 -249 -181 500 0 1 0 -87.984375 1.570312 1 0 1
bridge_se1_metal_flat_steel_01
0 -70 -181 502 0 1 0 -86.585938 1.585938 1 0 1
0 -249 -181 500 0 1 0 -87.984375 1.570312 1 0 1
0 -249 -181 502 0 1 0 -87.984375 1.585938 1 0 1
bridge_se1_metal_flat_steel_01
0 -70 -189 500 0 -1 0 -86.585938 1.570312 1 0 1
0 -70 -189 502 0 -1 0 -86.585938 1.585938 1 0 1
0 -249 -189 502 0 -1 0 -87.984375 1.585938 1 0 1
bridge_se1_metal_flat_steel_01
0 -70 -189 500 0 -1 0 -86.585938 1.570312 1 0 1
0 -249 -189 502 0 -1 0 -87.984375 1.585938 1 0 1
0 -249 -189 500 0 -1 0 -87.984375 1.570312 1 0 1
bridge_se1_metal_flat_steel_01
0 -249 -189 500 -1 0 0 26.914062 0.914062 1 0 1
0 -249 -189 502 -1 0 0 26.914062 0.929688 1 0 1
0 -249 -181 502 -1 0 0 26.851562 0.929688 1 0 1
bridge_se1_metal_flat_steel_01
0 -249 -189 500 -1 0 0 26.914062 0.914062 1 0 1
0 -249 -181 502 -1 0 0 26.851562 0.929688 1 0 1
0 -249 -181 500 -1 0 0 26.851562 0.914062 1 0 1
bridge_se1_metal_flat_steel_01
0 -70 -189 502 1 0 0 -26.914062 0.929688 1 0 1
0 -70 -189 500 1 0 0 -26.914062 0.914062 1 0 1
0 -70 -181 500 1 0 0 -26.851562 0.914062 1 0 1
bridge_se1_metal_flat_steel_01
0 -70 -189 502 1 0 0 -26.914062 0.929688 1 0 1
0 -70 -181 500 1 0 0 -26.851562 0.914062 1 0 1
0 -70 -181 502 1 0 0 -26.851562 0.929688 1 0 1
bridge_se1_metal_flat_steel_01
0 -70 -189 500 0 0 -1 -86.585938 28.59375 1 0 1
0 -249 -189 500 0 0 -1 -87.984375 28.59375 1 0 1
0 -249 -181 500 0 0 -1 -87.984375 28.53125 1 0 1
bridge_se1_metal_flat_steel_01
0 -70 -189 500 0 0 -1 -86.585938 28.59375 1 0 1
0 -249 -181 500 0 0 -1 -87.984375 28.53125 1 0 1
0 -70 -181 500 0 0 -1 -86.585938 28.53125 1 0 1
pepsi2_arch_stairs01
0 239 -21 135 0 1 0 170.050781 -10.71875 1 0 1
0 239 -21 126 0 1 0 170.050781 -11 1 0 1
0 94 -21 126 0 1 0 172.316406 -11 1 0 1
pepsi2_arch_stairs01
0 239 -21 135 0 1 0 170.050781 -10.71875 1 0 1
0 94 -21 126 0 1 0 172.316406 -11 1 0 1
0 94 -21 135 0 1 0 172.316406 -10.71875 1 0 1
pepsi2_arch_stairs01
0 239 -36 135 0 0 1 170.050781 103.75 1 0 1
0 239 -21 135 0 0 1 170.050781 103.28125 1 0 1
0 94 -21 135 0 0 1 172.316406 103.28125 1 0 1
pepsi2_arch_stairs01
0 239 -36 135 0 0 1 170.050781 103.75 1 0 1
0 94 -21 135 0 0 1 172.316406 103.28125 1 0 1
0 94 -36 135 0 0 1 172.316406 103.75 1 0 1
pepsi2_arch_stairs01
0 239 -21 126 0 0 1 170.050781 102.75 1 0 1
0 239 -6 126 0 0 1 170.050781 102.28125 1 0 1
0 94 -6 126 0 0 1 172.316406 102.28125 1 0 1
pepsi2_arch_stairs01
0 239 -21 126 0 0 1 170.050781 102.75 1 0 1
0 94 -6 126 0 0 1 172.316406 102.28125 1 0 1
0 94 -21 126 0 0 1 172.316406 102.75 1 0 1
pepsi2_arch_stairs01
0 239 -6 126 0 1 0 170.050781 -11.71875 1 0 1
0 239 -6 117 0 1 0 170.050781 -12 1 0 1
0 94 -6 117 0 1 0 172.316406 -12 1 0 1
pepsi2_arch_stairs01
0 239 -6 126 0 1 0 170.050781 -11.71875 1 0 1
0 94 -6 117 0 1 0 172.316406 -12 1 0 1
0 94 -6 126 0 1 0 172.316406 -11.71875 1 0 1
pepsi2_arch_stairs01
0 239 9 117 0 1 0 170.050781 -11.71875 1 0 1
0 239 9 108 0 1 0 170.050781 -12 1 0 1
0 94 9 108 0 1 0 172.316406 -12 1 0 1
pepsi2_arch_stairs01
0 239 9 117 0 1 0 170.050781 -11.71875 1 0 1
0 94 9 108 0 1 0 172.316406 -12 1 0 1
0 94 9 117 0 1 0 172.316406 -11.71875 1 0 1
pepsi2_arch_stairs01
0 239 -6 117 0 0 1 170.050781 102.75 1 0 1
0 239 9 117 0 0 1 170.050781 102.28125 1 0 1
0 94 9 117 0 0 1 172.316406 102.28125 1 0 1
pepsi2_arch_stairs01
0 239 -6 117 0 0 1 170.050781 102.75 1 0 1
0 94 9 117 0 0 1 172.316406 102.28125 1 0 1
0 94 -6 117 0 0 1 172.316406 102.75 1 0 1
pepsi2_arch_stairs01
0 239 24 108 0 1 0 170.050781 -11.71875 1 0 1
0 239 24 99 0 1 0 170.050781 -12 1 0 1
0 94 24 99 0 1 0 172.316406 -12 1 0 1
pepsi2_arch_stairs01
0 239 24 108 0 1 0 170.050781 -11.71875 1 0 1
0 94 24 99 0 1 0 172.316406 -12 1 0 1
0 94 24 108 0 1 0 172.316406 -11.71875 1 0 1
pepsi2_arch_stairs01
0 239 9 108 0 0 1 170.050781 101.75 1 0 1
0 239 24 108 0 0 1 170.050781 101.28125 1 0 1
0 94 24 108 0 0 1 172.316406 101.28125 1 0 1
pepsi2_arch_stairs01
0 239 9 108 0 0 1 170.050781 101.75 1 0 1
0 94 24 108 0 0 1 172.316406 101.28125 1 0 1
0 94 9 108 0 0 1 172.316406 101.75 1 0 1
pepsi2_arch_stairs01
0 239 39 99 0 1 0 170.050781 -12.71875 1 0 1
0 239 39 90 0 1 0 170.050781 -13 1 0 1
0 94 39 90 0 1 0 172.316406 -13 1 0 1
pepsi2_arch_stairs01
0 239 39 99 0 1 0 170.050781 -12.71875 1 0 1
0 94 39 90 0 1 0 172.316406 -13 1 0 1
0 94 39 99 0 1 0 172.316406 -12.71875 1 0 1
pepsi2_arch_stairs01
0 239 24 99 0 0 1 170.050781 101.75 1 0 1
0 239 39 99 0 0 1 170.050781 101.28125 1 0 1
0 94 39 99 0 0 1 172.316406 101.28125 1 0 1
pepsi2_arch_stairs01
0 239 24 99 0 0 1 170.050781 101.75 1 0 1
0 94 39 99 0 0 1 172.316406 101.28125 1 0 1
0 94 24 99 0 0 1 172.316406 101.75 1 0 1
pepsi2_arch_stairs01
0 239 69 81 0 1 0 170.050781 -12.71875 1 0 1
0 239 69 72 0 1 0 170.050781 -13 1 0 1
0 94 69 72 0 1 0 172.316406 -13 1 0 1
pepsi2_arch_stairs01
0 239 69 81 0 1 0 170.050781 -12.71875 1 0 1
0 94 69 72 0 1 0 172.316406 -13 1 0 1
0 94 69 81 0 1 0 172.316406 -12.71875 1 0 1
pepsi2_arch_stairs01
0 239 54 81 0 0 1 170.050781 100.75 1 0 1
0 239 69 81 0 0 1 170.050781 100.28125 1 0 1
0 94 69 81 0 0 1 172.316406 100.28125 1 0 1
pepsi2_arch_stairs01
0 239 54 81 0 0 1 170.050781 100.75 1 0 1
0 94 69 81 0 0 1 172.316406 100.28125 1 0 1
0 94 54 81 0 0 1 172.316406 100.75 1 0 1
pepsi2_arch_stairs01
0 94 84 63 0 0 1 172.316406 99.75 1 0 1
0 239 84 63 0 0 1 170.050781 99.75 1 0 1
0 239 99 63 0 0 1 170.050781 99.28125 1 0 1
pepsi2_arch_stairs01
0 94 84 63 0 0 1 172.316406 99.75 1 0 1
0 239 99 63 0 0 1 170.050781 99.28125 1 0 1
0 94 99 63 0 0 1 172.316406 99.28125 1 0 1
pepsi2_arch_stairs01
0 239 99 54 0 1 0 170.050781 -14 1 0 1
0 94 99 54 0 1 0 172.316406 -14 1 0 1
0 94 99 63 0 1 0 172.316406 -13.71875 1 0 1
pepsi2_arch_stairs01
0 239 99 54 0 1 0 170.050781 -14 1 0 1
0 94 99 63 0 1 0 172.316406 -13.71875 1 0 1
0 239 99 63 0 1 0 170.050781 -13.71875 1 0 1
pepsi2_arch_stairs01
0 239 129 45 0 1 0 170.050781 -13.71875 1 0 1
0 239 129 36 0 1 0 170.050781 -14 1 0 1
0 94 129 36 0 1 0 172.316406 -14 1 0 1
pepsi2_arch_stairs01
0 239 129 45 0 1 0 170.050781 -13.71875 1 0 1
0 94 129 36 0 1 0 172.316406 -14 1 0 1
0 94 129 45 0 1 0 172.316406 -13.71875 1 0 1
pepsi2_arch_stairs01
0 239 114 45 0 0 1 170.050781 98.75 1 0 1
0 239 129 45 0 0 1 170.050781 98.28125 1 0 1
0 94 129 45 0 0 1 172.316406 98.28125 1 0 1
pepsi2_arch_stairs01
0 239 114 45 0 0 1 170.050781 98.75 1 0 1
0 94 129 45 0 0 1 172.316406 98.28125 1 0 1
0 94 114 45 0 0 1 172.316406 98.75 1 0 1
pepsi2_arch_stairs01
0 239 159 27 0 1 0 170.050781 -14.71875 1 0 1
0 239 159 18 0 1 0 170.050781 -15 1 0 1
0 94 159 18 0 1 0 172.316406 -15 1 0 1
pepsi2_arch_stairs01
0 239 159 27 0 1 0 170.050781 -14.71875 1 0 1
0 94 159 18 0 1 0 172.316406 -15 1 0 1
0 94 159 27 0 1 0 172.316406 -14.71875 1 0 1
pepsi2_arch_stairs01
0 239 144 27 0 0 1 170.050781 97.75 1 0 1
0 239 159 27 0 0 1 170.050781 97.28125 1 0 1
0 94 159 27 0 0 1 172.316406 97.28125 1 0 1
pepsi2_arch_stairs01
0 239 144 27 0 0 1 170.050781 97.75 1 0 1
0 94 159 27 0 0 1 172.316406 97.28125 1 0 1
0 94 144 27 0 0 1 172.316406 97.75 1 0 1
pepsi2_arch_stairs01
0 239 189 9 0 1 0 170.050781 -14.71875 1 0 1
0 239 189 0 0 1 0 170.050781 -15 1 0 1
0 94 189 0 0 1 0 172.316406 -15 1 0 1
pepsi2_arch_stairs01
0 239 189 9 0 1 0 170.050781 -14.71875 1 0 1
0 94 189 0 0 1 0 172.316406 -15 1 0 1
0 94 189 9 0 1 0 172.316406 -14.71875 1 0 1
pepsi2_arch_stairs01
0 239 174 9 0 0 1 170.050781 96.75 1 0 1
0 239 189 9 0 0 1 170.050781 96.28125 1 0 1
0 94 189 9 0 0 1 172.316406 96.28125 1 0 1
pepsi2_arch_stairs01
0 239 174 9 0 0 1 170.050781 96.75 1 0 1
0 94 189 9 0 0 1 172.316406 96.28125 1 0 1
0 94 174 9 0 0 1 172.316406 96.75 1 0 1
pepsi2_arch_stairs01
0 94 159 18 0 0 1 172.316406 97.75 1 0 1
0 239 159 18 0 0 1 170.050781 97.75 1 0 1
0 239 174 18 0 0 1 170.050781 97.28125 1 0 1
pepsi2_arch_stairs01
0 94 159 18 0 0 1 172.316406 97.75 1 0 1
0 239 174 18 0 0 1 170.050781 97.28125 1 0 1
0 94 174 18 0 0 1 172.316406 97.28125 1 0 1
pepsi2_arch_stairs01
0 239 174 9 0 1 0 170.050781 -15 1 0 1
0 94 174 9 0 1 0 172.316406 -15 1 0 1
0 94 174 18 0 1 0 172.316406 -14.71875 1 0 1
pepsi2_arch_stairs01
0 239 174 9 0 1 0 170.050781 -15 1 0 1
0 94 174 18 0 1 0 172.316406 -14.71875 1 0 1
0 239 174 18 0 1 0 170.050781 -14.71875 1 0 1
pepsi2_arch_stairs01
0 94 129 36 0 0 1 172.316406 98.75 1 0 1
0 239 129 36 0 0 1 170.050781 98.75 1 0 1
0 239 144 36 0 0 1 170.050781 98.28125 1 0 1
pepsi2_arch_stairs01
0 94 129 36 0 0 1 172.316406 98.75 1 0 1
0 239 144 36 0 0 1 170.050781 98.28125 1 0 1
0 94 144 36 0 0 1 172.316406 98.28125 1 0 1
pepsi2_arch_stairs01
0 239 144 27 0 1 0 170.050781 -15 1 0 1
0 94 144 27 0 1 0 172.316406 -15 1 0 1
0 94 144 36 0 1 0 172.316406 -14.71875 1 0 1
pepsi2_arch_stairs01
0 239 144 27 0 1 0 170.050781 -15 1 0 1
0 94 144 36 0 1 0 172.316406 -14.71875 1 0 1
0 239 144 36 0 1 0 170.050781 -14.71875 1 0 1
pepsi2_arch_stairs01
0 239 114 54 0 1 0 170.050781 -13.71875 1 0 1
0 239 114 45 0 1 0 170.050781 -14 1 0 1
0 94 114 45 0 1 0 172.316406 -14 1 0 1
pepsi2_arch_stairs01
0 239 114 54 0 1 0 170.050781 -13.71875 1 0 1
0 94 114 45 0 1 0 172.316406 -14 1 0 1
0 94 114 54 0 1 0 172.316406 -13.71875 1 0 1
pepsi2_arch_stairs01
0 239 99 54 0 0 1 170.050781 98.75 1 0 1
0 239 114 54 0 0 1 170.050781 98.28125 1 0 1
0 94 114 54 0 0 1 172.316406 98.28125 1 0 1
pepsi2_arch_stairs01
0 239 99 54 0 0 1 170.050781 98.75 1 0 1
0 94 114 54 0 0 1 172.316406 98.28125 1 0 1
0 94 99 54 0 0 1 172.316406 98.75 1 0 1
pepsi2_arch_stairs01
0 94 69 72 0 0 1 172.316406 99.75 1 0 1
0 239 69 72 0 0 1 170.050781 99.75 1 0 1
0 239 84 72 0 0 1 170.050781 99.28125 1 0 1
pepsi2_arch_stairs01
0 94 69 72 0 0 1 172.316406 99.75 1 0 1
0 239 84 72 0 0 1 170.050781 99.28125 1 0 1
0 94 84 72 0 0 1 172.316406 99.28125 1 0 1
pepsi2_arch_stairs01
0 239 84 63 0 1 0 170.050781 -13 1 0 1
0 94 84 63 0 1 0 172.316406 -13 1 0 1
0 94 84 72 0 1 0 172.316406 -12.71875 1 0 1
pepsi2_arch_stairs01
0 239 84 63 0 1 0 170.050781 -13 1 0 1
0 94 84 72 0 1 0 172.316406 -12.71875 1 0 1
0 239 84 72 0 1 0 170.050781 -12.71875 1 0 1
pepsi2_arch_stairs01
0 94 39 90 0 0 1 172.316406 100.75 1 0 1
0 239 39 90 0 0 1 170.050781 100.75 1 0 1
0 239 54 90 0 0 1 170.050781 100.28125 1 0 1
pepsi2_arch_stairs01
0 94 39 90 0 0 1 172.316406 100.75 1 0 1
0 239 54 90 0 0 1 170.050781 100.28125 1 0 1
0 94 54 90 0 0 1 172.316406 100.28125 1 0 1
pepsi2_arch_stairs01
0 239 54 81 0 1 0 170.050781 -13 1 0 1
0 94 54 81 0 1 0 172.316406 -13 1 0 1
0 94 54 90 0 1 0 172.316406 -12.71875 1 0 1
pepsi2_arch_stairs01
0 239 54 81 0 1 0 170.050781 -13 1 0 1
0 94 54 90 0 1 0 172.316406 -12.71875 1 0 1
0 239 54 90 0 1 0 170.050781 -12.71875 1 0 1
end
