version 1
nodes
0 "root" -1
end
skeleton
time 0
0 0 0 0 0 0 0
end
triangles
phys
0 -240 -119 117 0 0 1 1 0 1 0 1
0 -240 -119 107.999 0 0 1 1 0 1 0 1
0 -255 -119 117 0 0 1 1 0 1 0 1
phys
0 -240 -219 107.999 0 0 1 1 0 1 0 1
0 -240 -219 117 0 0 1 1 0 1 0 1
0 -255 -219 117 0 0 1 1 0 1 0 1
phys
0 -240 -219 117 0 0 1 1 0 1 0 1
0 -240 -219 107.999 0 0 1 1 0 1 0 1
0 -240 -119 107.999 0 0 1 1 0 1 0 1
phys
0 -240 -219 117 0 0 1 1 0 1 0 1
0 -240 -119 107.999 0 0 1 1 0 1 0 1
0 -240 -119 117 0 0 1 1 0 1 0 1
phys
0 -255 -219 117 0 0 1 1 0 1 0 1
0 -240 -219 117 0 0 1 1 0 1 0 1
0 -240 -119 117 0 0 1 1 0 1 0 1
phys
0 -255 -219 117 0 0 1 1 0 1 0 1
0 -240 -119 117 0 0 1 1 0 1 0 1
0 -255 -119 117 0 0 1 1 0 1 0 1
phys
0 -240 -219 107.999 0 0 1 1 0 1 0 1
0 -255 -219 117 0 0 1 1 0 1 0 1
0 -255 -119 117 0 0 1 1 0 1 0 1
phys
0 -240 -219 107.999 0 0 1 1 0 1 0 1
0 -255 -119 117 0 0 1 1 0 1 0 1
0 -240 -119 107.999 0 0 1 1 0 1 0 1
phys
0 -180 -119 81 0 0 1 2 0 1 0 1
0 -180 -119 71.999 0 0 1 2 0 1 0 1
0 -195 -119 81 0 0 1 2 0 1 0 1
phys
0 -180 -219 71.999 0 0 1 2 0 1 0 1
0 -180 -219 81 0 0 1 2 0 1 0 1
0 -195 -219 81 0 0 1 2 0 1 0 1
phys
0 -180 -219 81 0 0 1 2 0 1 0 1
0 -180 -219 71.999 0 0 1 2 0 1 0 1
0 -180 -119 71.999 0 0 1 2 0 1 0 1
phys
0 -180 -219 81 0 0 1 2 0 1 0 1
0 -180 -119 71.999 0 0 1 2 0 1 0 1
0 -180 -119 81 0 0 1 2 0 1 0 1
phys
0 -195 -219 81 0 0 1 2 0 1 0 1
0 -180 -219 81 0 0 1 2 0 1 0 1
0 -180 -119 81 0 0 1 2 0 1 0 1
phys
0 -195 -219 81 0 0 1 2 0 1 0 1
0 -180 -119 81 0 0 1 2 0 1 0 1
0 -195 -119 81 0 0 1 2 0 1 0 1
phys
0 -180 -219 71.999 0 0 1 2 0 1 0 1
0 -195 -219 81 0 0 1 2 0 1 0 1
0 -195 -119 81 0 0 1 2 0 1 0 1
phys
0 -180 -219 71.999 0 0 1 2 0 1 0 1
0 -195 -119 81 0 0 1 2 0 1 0 1
0 -180 -119 71.999 0 0 1 2 0 1 0 1
phys
0 -225 -119 108 0 0 1 3 0 1 0 1
0 -225 -119 98.999 0 0 1 3 0 1 0 1
0 -240 -119 108 0 0 1 3 0 1 0 1
phys
0 -225 -219 98.999 0 0 1 3 0 1 0 1
0 -225 -219 108 0 0 1 3 0 1 0 1
0 -240 -219 108 0 0 1 3 0 1 0 1
phys
0 -225 -219 108 0 0 1 3 0 1 0 1
0 -225 -219 98.999 0 0 1 3 0 1 0 1
0 -225 -119 98.999 0 0 1 3 0 1 0 1
phys
0 -225 -219 108 0 0 1 3 0 1 0 1
0 -225 -119 98.999 0 0 1 3 0 1 0 1
0 -225 -119 108 0 0 1 3 0 1 0 1
phys
0 -240 -219 108 0 0 1 3 0 1 0 1
0 -225 -219 108 0 0 1 3 0 1 0 1
0 -225 -119 108 0 0 1 3 0 1 0 1
phys
0 -240 -219 108 0 0 1 3 0 1 0 1
0 -225 -119 108 0 0 1 3 0 1 0 1
0 -240 -119 108 0 0 1 3 0 1 0 1
phys
0 -225 -219 98.999 0 0 1 3 0 1 0 1
0 -240 -219 108 0 0 1 3 0 1 0 1
0 -240 -119 108 0 0 1 3 0 1 0 1
phys
0 -225 -219 98.999 0 0 1 3 0 1 0 1
0 -240 -119 108 0 0 1 3 0 1 0 1
0 -225 -119 98.999 0 0 1 3 0 1 0 1
phys
0 -90 -119 27 0 0 1 4 0 1 0 1
0 -90 -119 17.999 0 0 1 4 0 1 0 1
0 -105 -119 27 0 0 1 4 0 1 0 1
phys
0 -90 -219 17.999 0 0 1 4 0 1 0 1
0 -90 -219 27 0 0 1 4 0 1 0 1
0 -105 -219 27 0 0 1 4 0 1 0 1
phys
0 -90 -219 27 0 0 1 4 0 1 0 1
0 -90 -219 17.999 0 0 1 4 0 1 0 1
0 -90 -119 17.999 0 0 1 4 0 1 0 1
phys
0 -90 -219 27 0 0 1 4 0 1 0 1
0 -90 -119 17.999 0 0 1 4 0 1 0 1
0 -90 -119 27 0 0 1 4 0 1 0 1
phys
0 -105 -219 27 0 0 1 4 0 1 0 1
0 -90 -219 27 0 0 1 4 0 1 0 1
0 -90 -119 27 0 0 1 4 0 1 0 1
phys
0 -105 -219 27 0 0 1 4 0 1 0 1
0 -90 -119 27 0 0 1 4 0 1 0 1
0 -105 -119 27 0 0 1 4 0 1 0 1
phys
0 -90 -219 17.999 0 0 1 4 0 1 0 1
0 -105 -219 27 0 0 1 4 0 1 0 1
0 -105 -119 27 0 0 1 4 0 1 0 1
phys
0 -90 -219 17.999 0 0 1 4 0 1 0 1
0 -105 -119 27 0 0 1 4 0 1 0 1
0 -90 -119 17.999 0 0 1 4 0 1 0 1
phys
0 -165 -119 72 0 0 1 5 0 1 0 1
0 -165 -119 62.999 0 0 1 5 0 1 0 1
0 -180 -119 72 0 0 1 5 0 1 0 1
phys
0 -165 -219 62.999 0 0 1 5 0 1 0 1
0 -165 -219 72 0 0 1 5 0 1 0 1
0 -180 -219 72 0 0 1 5 0 1 0 1
phys
0 -165 -219 72 0 0 1 5 0 1 0 1
0 -165 -219 62.999 0 0 1 5 0 1 0 1
0 -165 -119 62.999 0 0 1 5 0 1 0 1
phys
0 -165 -219 72 0 0 1 5 0 1 0 1
0 -165 -119 62.999 0 0 1 5 0 1 0 1
0 -165 -119 72 0 0 1 5 0 1 0 1
phys
0 -180 -219 72 0 0 1 5 0 1 0 1
0 -165 -219 72 0 0 1 5 0 1 0 1
0 -165 -119 72 0 0 1 5 0 1 0 1
phys
0 -180 -219 72 0 0 1 5 0 1 0 1
0 -165 -119 72 0 0 1 5 0 1 0 1
0 -180 -119 72 0 0 1 5 0 1 0 1
phys
0 -165 -219 62.999 0 0 1 5 0 1 0 1
0 -180 -219 72 0 0 1 5 0 1 0 1
0 -180 -119 72 0 0 1 5 0 1 0 1
phys
0 -165 -219 62.999 0 0 1 5 0 1 0 1
0 -180 -119 72 0 0 1 5 0 1 0 1
0 -165 -119 62.999 0 0 1 5 0 1 0 1
phys
0 -210 -119 99 0 0 1 6 0 1 0 1
0 -225 -119 99 0 0 1 6 0 1 0 1
0 -225 -219 99 0 0 1 6 0 1 0 1
phys
0 -210 -119 99 0 0 1 6 0 1 0 1
0 -225 -219 99 0 0 1 6 0 1 0 1
0 -210 -219 99 0 0 1 6 0 1 0 1
phys
0 -210 -219 89.999 0 0 1 6 0 1 0 1
0 -225 -219 99 0 0 1 6 0 1 0 1
0 -225 -119 99 0 0 1 6 0 1 0 1
phys
0 -210 -219 89.999 0 0 1 6 0 1 0 1
0 -225 -119 99 0 0 1 6 0 1 0 1
0 -210 -119 89.999 0 0 1 6 0 1 0 1
phys
0 -210 -119 89.999 0 0 1 6 0 1 0 1
0 -225 -119 99 0 0 1 6 0 1 0 1
0 -210 -119 99 0 0 1 6 0 1 0 1
phys
0 -210 -219 99 0 0 1 6 0 1 0 1
0 -225 -219 99 0 0 1 6 0 1 0 1
0 -210 -219 89.999 0 0 1 6 0 1 0 1
phys
0 -210 -219 89.999 0 0 1 6 0 1 0 1
0 -210 -119 89.999 0 0 1 6 0 1 0 1
0 -210 -119 99 0 0 1 6 0 1 0 1
phys
0 -210 -219 89.999 0 0 1 6 0 1 0 1
0 -210 -119 99 0 0 1 6 0 1 0 1
0 -210 -219 99 0 0 1 6 0 1 0 1
phys
0 109 230 260 0 0 1 7 0 1 0 1
0 106 230 260 0 0 1 7 0 1 0 1
0 106 230 286 0 0 1 7 0 1 0 1
phys
0 109 230 260 0 0 1 7 0 1 0 1
0 106 230 286 0 0 1 7 0 1 0 1
0 116 230 286 0 0 1 7 0 1 0 1
phys
0 116 -229 286 0 0 1 7 0 1 0 1
0 106 -229 286 0 0 1 7 0 1 0 1
0 106 -229 260 0 0 1 7 0 1 0 1
phys
0 116 -229 286 0 0 1 7 0 1 0 1
0 106 -229 260 0 0 1 7 0 1 0 1
0 109 -229 260 0 0 1 7 0 1 0 1
phys
0 106 -229 260 0 0 1 7 0 1 0 1
0 106 -229 286 0 0 1 7 0 1 0 1
0 106 230 286 0 0 1 7 0 1 0 1
phys
0 106 -229 260 0 0 1 7 0 1 0 1
0 106 230 286 0 0 1 7 0 1 0 1
0 106 230 260 0 0 1 7 0 1 0 1
phys
0 109 -229 260 0 0 1 7 0 1 0 1
0 106 -229 260 0 0 1 7 0 1 0 1
0 106 230 260 0 0 1 7 0 1 0 1
phys
0 109 -229 260 0 0 1 7 0 1 0 1
0 106 230 260 0 0 1 7 0 1 0 1
0 109 230 260 0 0 1 7 0 1 0 1
phys
0 106 -229 286 0 0 1 7 0 1 0 1
0 116 -229 286 0 0 1 7 0 1 0 1
0 116 230 286 0 0 1 7 0 1 0 1
phys
0 106 -229 286 0 0 1 7 0 1 0 1
0 116 230 286 0 0 1 7 0 1 0 1
0 106 230 286 0 0 1 7 0 1 0 1
phys
0 116 -229 286 0 0 1 7 0 1 0 1
0 109 -229 260 0 0 1 7 0 1 0 1
0 109 230 260 0 0 1 7 0 1 0 1
phys
0 116 -229 286 0 0 1 7 0 1 0 1
0 109 230 260 0 0 1 7 0 1 0 1
0 116 230 286 0 0 1 7 0 1 0 1
phys
0 -255 -119 126 0 0 1 8 0 1 0 1
0 -270 -119 126 0 0 1 8 0 1 0 1
0 -270 -219 126 0 0 1 8 0 1 0 1
phys
0 -255 -119 126 0 0 1 8 0 1 0 1
0 -270 -219 126 0 0 1 8 0 1 0 1
0 -255 -219 126 0 0 1 8 0 1 0 1
phys
0 -255 -219 116.999 0 0 1 8 0 1 0 1
0 -270 -219 126 0 0 1 8 0 1 0 1
0 -270 -119 126 0 0 1 8 0 1 0 1
phys
0 -255 -219 116.999 0 0 1 8 0 1 0 1
0 -270 -119 126 0 0 1 8 0 1 0 1
0 -255 -119 116.999 0 0 1 8 0 1 0 1
phys
0 -255 -119 116.999 0 0 1 8 0 1 0 1
0 -270 -119 126 0 0 1 8 0 1 0 1
0 -255 -119 126 0 0 1 8 0 1 0 1
phys
0 -255 -219 126 0 0 1 8 0 1 0 1
0 -270 -219 126 0 0 1 8 0 1 0 1
0 -255 -219 116.999 0 0 1 8 0 1 0 1
phys
0 -255 -219 116.999 0 0 1 8 0 1 0 1
0 -255 -119 116.999 0 0 1 8 0 1 0 1
0 -255 -119 126 0 0 1 8 0 1 0 1
phys
0 -255 -219 116.999 0 0 1 8 0 1 0 1
0 -255 -119 126 0 0 1 8 0 1 0 1
0 -255 -219 126 0 0 1 8 0 1 0 1
phys
0 -60 -119 9 0 0 1 9 0 1 0 1
0 -60 -119 -0.001 0 0 1 9 0 1 0 1
0 -75 -119 9 0 0 1 9 0 1 0 1
phys
0 -60 -219 -0.001 0 0 1 9 0 1 0 1
0 -60 -219 9 0 0 1 9 0 1 0 1
0 -75 -219 9 0 0 1 9 0 1 0 1
phys
0 -60 -219 9 0 0 1 9 0 1 0 1
0 -60 -219 -0.001 0 0 1 9 0 1 0 1
0 -60 -119 -0.001 0 0 1 9 0 1 0 1
phys
0 -60 -219 9 0 0 1 9 0 1 0 1
0 -60 -119 -0.001 0 0 1 9 0 1 0 1
0 -60 -119 9 0 0 1 9 0 1 0 1
phys
0 -75 -219 9 0 0 1 9 0 1 0 1
0 -60 -219 9 0 0 1 9 0 1 0 1
0 -60 -119 9 0 0 1 9 0 1 0 1
phys
0 -75 -219 9 0 0 1 9 0 1 0 1
0 -60 -119 9 0 0 1 9 0 1 0 1
0 -75 -119 9 0 0 1 9 0 1 0 1
phys
0 -60 -219 -0.001 0 0 1 9 0 1 0 1
0 -75 -219 9 0 0 1 9 0 1 0 1
0 -75 -119 9 0 0 1 9 0 1 0 1
phys
0 -60 -219 -0.001 0 0 1 9 0 1 0 1
0 -75 -119 9 0 0 1 9 0 1 0 1
0 -60 -119 -0.001 0 0 1 9 0 1 0 1
phys
0 -285 -119 182 0 0 1 10 0 1 0 1
0 96 -119 182 0 0 1 10 0 1 0 1
0 96 -115 182 0 0 1 10 0 1 0 1
phys
0 -285 -119 182 0 0 1 10 0 1 0 1
0 96 -115 182 0 0 1 10 0 1 0 1
0 -285 -115 182 0 0 1 10 0 1 0 1
phys
0 -285 -115 141 0 0 1 10 0 1 0 1
0 -285 -115 182 0 0 1 10 0 1 0 1
0 96 -115 182 0 0 1 10 0 1 0 1
phys
0 -285 -115 141 0 0 1 10 0 1 0 1
0 96 -115 182 0 0 1 10 0 1 0 1
0 96 -115 141 0 0 1 10 0 1 0 1
phys
0 96 -119 141 0 0 1 10 0 1 0 1
0 96 -119 182 0 0 1 10 0 1 0 1
0 -285 -119 182 0 0 1 10 0 1 0 1
phys
0 96 -119 141 0 0 1 10 0 1 0 1
0 -285 -119 182 0 0 1 10 0 1 0 1
0 -285 -119 141 0 0 1 10 0 1 0 1
phys
0 -285 -119 141 0 0 1 10 0 1 0 1
0 -285 -119 182 0 0 1 10 0 1 0 1
0 -285 -115 182 0 0 1 10 0 1 0 1
phys
0 -285 -119 141 0 0 1 10 0 1 0 1
0 -285 -115 182 0 0 1 10 0 1 0 1
0 -285 -115 141 0 0 1 10 0 1 0 1
phys
0 96 -115 141 0 0 1 10 0 1 0 1
0 96 -115 182 0 0 1 10 0 1 0 1
0 96 -119 182 0 0 1 10 0 1 0 1
phys
0 96 -115 141 0 0 1 10 0 1 0 1
0 96 -119 182 0 0 1 10 0 1 0 1
0 96 -119 141 0 0 1 10 0 1 0 1
phys
0 96 -119 141 0 0 1 10 0 1 0 1
0 -285 -119 141 0 0 1 10 0 1 0 1
0 -285 -115 141 0 0 1 10 0 1 0 1
phys
0 96 -119 141 0 0 1 10 0 1 0 1
0 -285 -115 141 0 0 1 10 0 1 0 1
0 96 -115 141 0 0 1 10 0 1 0 1
phys
0 -120 -119 45 0 0 1 11 0 1 0 1
0 -120 -119 35.999 0 0 1 11 0 1 0 1
0 -135 -119 45 0 0 1 11 0 1 0 1
phys
0 -120 -219 35.999 0 0 1 11 0 1 0 1
0 -120 -219 45 0 0 1 11 0 1 0 1
0 -135 -219 45 0 0 1 11 0 1 0 1
phys
0 -120 -219 45 0 0 1 11 0 1 0 1
0 -120 -219 35.999 0 0 1 11 0 1 0 1
0 -120 -119 35.999 0 0 1 11 0 1 0 1
phys
0 -120 -219 45 0 0 1 11 0 1 0 1
0 -120 -119 35.999 0 0 1 11 0 1 0 1
0 -120 -119 45 0 0 1 11 0 1 0 1
phys
0 -135 -219 45 0 0 1 11 0 1 0 1
0 -120 -219 45 0 0 1 11 0 1 0 1
0 -120 -119 45 0 0 1 11 0 1 0 1
phys
0 -135 -219 45 0 0 1 11 0 1 0 1
0 -120 -119 45 0 0 1 11 0 1 0 1
0 -135 -119 45 0 0 1 11 0 1 0 1
phys
0 -120 -219 35.999 0 0 1 11 0 1 0 1
0 -135 -219 45 0 0 1 11 0 1 0 1
0 -135 -119 45 0 0 1 11 0 1 0 1
phys
0 -120 -219 35.999 0 0 1 11 0 1 0 1
0 -135 -119 45 0 0 1 11 0 1 0 1
0 -120 -119 35.999 0 0 1 11 0 1 0 1
phys
0 -75 -119 18 0 0 1 12 0 1 0 1
0 -75 -119 8.999 0 0 1 12 0 1 0 1
0 -90 -119 18 0 0 1 12 0 1 0 1
phys
0 -75 -219 8.999 0 0 1 12 0 1 0 1
0 -75 -219 18 0 0 1 12 0 1 0 1
0 -90 -219 18 0 0 1 12 0 1 0 1
phys
0 -75 -219 18 0 0 1 12 0 1 0 1
0 -75 -219 8.999 0 0 1 12 0 1 0 1
0 -75 -119 8.999 0 0 1 12 0 1 0 1
phys
0 -75 -219 18 0 0 1 12 0 1 0 1
0 -75 -119 8.999 0 0 1 12 0 1 0 1
0 -75 -119 18 0 0 1 12 0 1 0 1
phys
0 -90 -219 18 0 0 1 12 0 1 0 1
0 -75 -219 18 0 0 1 12 0 1 0 1
0 -75 -119 18 0 0 1 12 0 1 0 1
phys
0 -90 -219 18 0 0 1 12 0 1 0 1
0 -75 -119 18 0 0 1 12 0 1 0 1
0 -90 -119 18 0 0 1 12 0 1 0 1
phys
0 -75 -219 8.999 0 0 1 12 0 1 0 1
0 -90 -219 18 0 0 1 12 0 1 0 1
0 -90 -119 18 0 0 1 12 0 1 0 1
phys
0 -75 -219 8.999 0 0 1 12 0 1 0 1
0 -90 -119 18 0 0 1 12 0 1 0 1
0 -75 -119 8.999 0 0 1 12 0 1 0 1
phys
0 -105 -119 36 0 0 1 13 0 1 0 1
0 -105 -119 26.999 0 0 1 13 0 1 0 1
0 -120 -119 36 0 0 1 13 0 1 0 1
phys
0 -105 -219 26.999 0 0 1 13 0 1 0 1
0 -105 -219 36 0 0 1 13 0 1 0 1
0 -120 -219 36 0 0 1 13 0 1 0 1
phys
0 -105 -219 36 0 0 1 13 0 1 0 1
0 -105 -219 26.999 0 0 1 13 0 1 0 1
0 -105 -119 26.999 0 0 1 13 0 1 0 1
phys
0 -105 -219 36 0 0 1 13 0 1 0 1
0 -105 -119 26.999 0 0 1 13 0 1 0 1
0 -105 -119 36 0 0 1 13 0 1 0 1
phys
0 -120 -219 36 0 0 1 13 0 1 0 1
0 -105 -219 36 0 0 1 13 0 1 0 1
0 -105 -119 36 0 0 1 13 0 1 0 1
phys
0 -120 -219 36 0 0 1 13 0 1 0 1
0 -105 -119 36 0 0 1 13 0 1 0 1
0 -120 -119 36 0 0 1 13 0 1 0 1
phys
0 -105 -219 26.999 0 0 1 13 0 1 0 1
0 -120 -219 36 0 0 1 13 0 1 0 1
0 -120 -119 36 0 0 1 13 0 1 0 1
phys
0 -105 -219 26.999 0 0 1 13 0 1 0 1
0 -120 -119 36 0 0 1 13 0 1 0 1
0 -105 -119 26.999 0 0 1 13 0 1 0 1
phys
0 -135 -119 54 0 0 1 14 0 1 0 1
0 -135 -119 44.999 0 0 1 14 0 1 0 1
0 -150 -119 54 0 0 1 14 0 1 0 1
phys
0 -135 -219 44.999 0 0 1 14 0 1 0 1
0 -135 -219 54 0 0 1 14 0 1 0 1
0 -150 -219 54 0 0 1 14 0 1 0 1
phys
0 -135 -219 54 0 0 1 14 0 1 0 1
0 -135 -219 44.999 0 0 1 14 0 1 0 1
0 -135 -119 44.999 0 0 1 14 0 1 0 1
phys
0 -135 -219 54 0 0 1 14 0 1 0 1
0 -135 -119 44.999 0 0 1 14 0 1 0 1
0 -135 -119 54 0 0 1 14 0 1 0 1
phys
0 -150 -219 54 0 0 1 14 0 1 0 1
0 -135 -219 54 0 0 1 14 0 1 0 1
0 -135 -119 54 0 0 1 14 0 1 0 1
phys
0 -150 -219 54 0 0 1 14 0 1 0 1
0 -135 -119 54 0 0 1 14 0 1 0 1
0 -150 -119 54 0 0 1 14 0 1 0 1
phys
0 -135 -219 44.999 0 0 1 14 0 1 0 1
0 -150 -219 54 0 0 1 14 0 1 0 1
0 -150 -119 54 0 0 1 14 0 1 0 1
phys
0 -135 -219 44.999 0 0 1 14 0 1 0 1
0 -150 -119 54 0 0 1 14 0 1 0 1
0 -135 -119 44.999 0 0 1 14 0 1 0 1
phys
0 -195 -119 90 0 0 1 15 0 1 0 1
0 -210 -119 90 0 0 1 15 0 1 0 1
0 -210 -219 90 0 0 1 15 0 1 0 1
phys
0 -195 -119 90 0 0 1 15 0 1 0 1
0 -210 -219 90 0 0 1 15 0 1 0 1
0 -195 -219 90 0 0 1 15 0 1 0 1
phys
0 -195 -219 80.999 0 0 1 15 0 1 0 1
0 -210 -219 90 0 0 1 15 0 1 0 1
0 -210 -119 90 0 0 1 15 0 1 0 1
phys
0 -195 -219 80.999 0 0 1 15 0 1 0 1
0 -210 -119 90 0 0 1 15 0 1 0 1
0 -195 -119 80.999 0 0 1 15 0 1 0 1
phys
0 -195 -119 80.999 0 0 1 15 0 1 0 1
0 -210 -119 90 0 0 1 15 0 1 0 1
0 -195 -119 90 0 0 1 15 0 1 0 1
phys
0 -195 -219 90 0 0 1 15 0 1 0 1
0 -210 -219 90 0 0 1 15 0 1 0 1
0 -195 -219 80.999 0 0 1 15 0 1 0 1
phys
0 -195 -219 80.999 0 0 1 15 0 1 0 1
0 -195 -119 80.999 0 0 1 15 0 1 0 1
0 -195 -119 90 0 0 1 15 0 1 0 1
phys
0 -195 -219 80.999 0 0 1 15 0 1 0 1
0 -195 -119 90 0 0 1 15 0 1 0 1
0 -195 -219 90 0 0 1 15 0 1 0 1
phys
0 -270 -119 135 0 0 1 16 0 1 0 1
0 -270 -119 125.999 0 0 1 16 0 1 0 1
0 -285 -119 135 0 0 1 16 0 1 0 1
phys
0 -270 -219 125.999 0 0 1 16 0 1 0 1
0 -270 -219 135 0 0 1 16 0 1 0 1
0 -285 -219 135 0 0 1 16 0 1 0 1
phys
0 -270 -219 135 0 0 1 16 0 1 0 1
0 -270 -219 125.999 0 0 1 16 0 1 0 1
0 -270 -119 125.999 0 0 1 16 0 1 0 1
phys
0 -270 -219 135 0 0 1 16 0 1 0 1
0 -270 -119 125.999 0 0 1 16 0 1 0 1
0 -270 -119 135 0 0 1 16 0 1 0 1
phys
0 -285 -219 135 0 0 1 16 0 1 0 1
0 -270 -219 135 0 0 1 16 0 1 0 1
0 -270 -119 135 0 0 1 16 0 1 0 1
phys
0 -285 -219 135 0 0 1 16 0 1 0 1
0 -270 -119 135 0 0 1 16 0 1 0 1
0 -285 -119 135 0 0 1 16 0 1 0 1
phys
0 -270 -219 125.999 0 0 1 16 0 1 0 1
0 -285 -219 135 0 0 1 16 0 1 0 1
0 -285 -119 135 0 0 1 16 0 1 0 1
phys
0 -270 -219 125.999 0 0 1 16 0 1 0 1
0 -285 -119 135 0 0 1 16 0 1 0 1
0 -270 -119 125.999 0 0 1 16 0 1 0 1
phys
0 -150 -119 63 0 0 1 17 0 1 0 1
0 -150 -119 53.999 0 0 1 17 0 1 0 1
0 -165 -119 63 0 0 1 17 0 1 0 1
phys
0 -150 -219 53.999 0 0 1 17 0 1 0 1
0 -150 -219 63 0 0 1 17 0 1 0 1
0 -165 -219 63 0 0 1 17 0 1 0 1
phys
0 -150 -219 63 0 0 1 17 0 1 0 1
0 -150 -219 53.999 0 0 1 17 0 1 0 1
0 -150 -119 53.999 0 0 1 17 0 1 0 1
phys
0 -150 -219 63 0 0 1 17 0 1 0 1
0 -150 -119 53.999 0 0 1 17 0 1 0 1
0 -150 -119 63 0 0 1 17 0 1 0 1
phys
0 -165 -219 63 0 0 1 17 0 1 0 1
0 -150 -219 63 0 0 1 17 0 1 0 1
0 -150 -119 63 0 0 1 17 0 1 0 1
phys
0 -165 -219 63 0 0 1 17 0 1 0 1
0 -150 -119 63 0 0 1 17 0 1 0 1
0 -165 -119 63 0 0 1 17 0 1 0 1
phys
0 -150 -219 53.999 0 0 1 17 0 1 0 1
0 -165 -219 63 0 0 1 17 0 1 0 1
0 -165 -119 63 0 0 1 17 0 1 0 1
phys
0 -150 -219 53.999 0 0 1 17 0 1 0 1
0 -165 -119 63 0 0 1 17 0 1 0 1
0 -150 -119 53.999 0 0 1 17 0 1 0 1
phys
0 286 230 135 0 0 1 18 0 1 0 1
0 286 230 0 0 0 1 18 0 1 0 1
0 106 230 0 0 0 1 18 0 1 0 1
phys
0 286 230 135 0 0 1 18 0 1 0 1
0 106 230 0 0 0 1 18 0 1 0 1
0 106 230 135 0 0 1 18 0 1 0 1
phys
0 286 220 0 0 0 1 18 0 1 0 1
0 286 220 135 0 0 1 18 0 1 0 1
0 106 220 135 0 0 1 18 0 1 0 1
phys
0 286 220 0 0 0 1 18 0 1 0 1
0 106 220 135 0 0 1 18 0 1 0 1
0 106 220 0 0 0 1 18 0 1 0 1
phys
0 106 220 0 0 0 1 18 0 1 0 1
0 106 220 135 0 0 1 18 0 1 0 1
0 106 230 135 0 0 1 18 0 1 0 1
phys
0 106 220 0 0 0 1 18 0 1 0 1
0 106 230 135 0 0 1 18 0 1 0 1
0 106 230 0 0 0 1 18 0 1 0 1
phys
0 286 220 135 0 0 1 18 0 1 0 1
0 286 220 0 0 0 1 18 0 1 0 1
0 286 230 0 0 0 1 18 0 1 0 1
phys
0 286 220 135 0 0 1 18 0 1 0 1
0 286 230 0 0 0 1 18 0 1 0 1
0 286 230 135 0 0 1 18 0 1 0 1
phys
0 286 220 0 0 0 1 18 0 1 0 1
0 106 220 0 0 0 1 18 0 1 0 1
0 106 230 0 0 0 1 18 0 1 0 1
phys
0 286 220 0 0 0 1 18 0 1 0 1
0 106 230 0 0 0 1 18 0 1 0 1
0 286 230 0 0 0 1 18 0 1 0 1
phys
0 106 220 135 0 0 1 18 0 1 0 1
0 286 220 135 0 0 1 18 0 1 0 1
0 286 230 135 0 0 1 18 0 1 0 1
phys
0 106 220 135 0 0 1 18 0 1 0 1
0 286 230 135 0 0 1 18 0 1 0 1
0 106 230 135 0 0 1 18 0 1 0 1
end
