version 1
nodes
0 "root" -1
end
skeleton
time 0
0 0 0 0 0 0 0
end
triangles
phys
0 244.6 83.81 30 0 0 1 1 0 1 0 1
0 244.6 83.81 77 0 0 1 1 0 1 0 1
0 243.7 84.18 77 0 0 1 1 0 1 0 1
phys
0 244.6 83.81 30 0 0 1 1 0 1 0 1
0 243.7 84.18 77 0 0 1 1 0 1 0 1
0 243.7 84.18 30 0 0 1 1 0 1 0 1
phys
0 244.6 83.81 77 0 0 1 1 0 1 0 1
0 244.6 83.81 30 0 0 1 1 0 1 0 1
0 255.8 111.63 30 0 0 1 1 0 1 0 1
phys
0 244.6 83.81 77 0 0 1 1 0 1 0 1
0 255.8 111.63 30 0 0 1 1 0 1 0 1
0 255.8 111.63 77 0 0 1 1 0 1 0 1
phys
0 255.8 111.63 77 0 0 1 1 0 1 0 1
0 255.8 111.63 30 0 0 1 1 0 1 0 1
0 254.9 112 30 0 0 1 1 0 1 0 1
phys
0 255.8 111.63 77 0 0 1 1 0 1 0 1
0 254.9 112 30 0 0 1 1 0 1 0 1
0 254.9 112 77 0 0 1 1 0 1 0 1
phys
0 244.6 83.81 30 0 0 1 1 0 1 0 1
0 243.7 84.18 30 0 0 1 1 0 1 0 1
0 254.9 112 30 0 0 1 1 0 1 0 1
phys
0 244.6 83.81 30 0 0 1 1 0 1 0 1
0 254.9 112 30 0 0 1 1 0 1 0 1
0 255.8 111.63 30 0 0 1 1 0 1 0 1
phys
0 243.7 84.18 77 0 0 1 1 0 1 0 1
0 244.6 83.81 77 0 0 1 1 0 1 0 1
0 255.8 111.63 77 0 0 1 1 0 1 0 1
phys
0 243.7 84.18 77 0 0 1 1 0 1 0 1
0 255.8 111.63 77 0 0 1 1 0 1 0 1
0 254.9 112 77 0 0 1 1 0 1 0 1
phys
0 243.7 84.18 30 0 0 1 1 0 1 0 1
0 243.7 84.18 77 0 0 1 1 0 1 0 1
0 254.9 112 77 0 0 1 1 0 1 0 1
phys
0 243.7 84.18 30 0 0 1 1 0 1 0 1
0 254.9 112 77 0 0 1 1 0 1 0 1
0 254.9 112 30 0 0 1 1 0 1 0 1
phys
0 -22 124 150 0 0 1 2 0 1 0 1
0 -22 124 140 0 0 1 2 0 1 0 1
0 -256 124 140 0 0 1 2 0 1 0 1
phys
0 -22 124 150 0 0 1 2 0 1 0 1
0 -256 124 140 0 0 1 2 0 1 0 1
0 -256 124 150 0 0 1 2 0 1 0 1
phys
0 -22 114 140 0 0 1 2 0 1 0 1
0 -22 114 150 0 0 1 2 0 1 0 1
0 -256 114 150 0 0 1 2 0 1 0 1
phys
0 -22 114 140 0 0 1 2 0 1 0 1
0 -256 114 150 0 0 1 2 0 1 0 1
0 -256 114 140 0 0 1 2 0 1 0 1
phys
0 -256 114 140 0 0 1 2 0 1 0 1
0 -256 114 150 0 0 1 2 0 1 0 1
0 -256 124 150 0 0 1 2 0 1 0 1
phys
0 -256 114 140 0 0 1 2 0 1 0 1
0 -256 124 150 0 0 1 2 0 1 0 1
0 -256 124 140 0 0 1 2 0 1 0 1
phys
0 -22 114 150 0 0 1 2 0 1 0 1
0 -22 114 140 0 0 1 2 0 1 0 1
0 -22 124 140 0 0 1 2 0 1 0 1
phys
0 -22 114 150 0 0 1 2 0 1 0 1
0 -22 124 140 0 0 1 2 0 1 0 1
0 -22 124 150 0 0 1 2 0 1 0 1
phys
0 -22 114 140 0 0 1 2 0 1 0 1
0 -256 114 140 0 0 1 2 0 1 0 1
0 -256 124 140 0 0 1 2 0 1 0 1
phys
0 -22 114 140 0 0 1 2 0 1 0 1
0 -256 124 140 0 0 1 2 0 1 0 1
0 -22 124 140 0 0 1 2 0 1 0 1
phys
0 -256 114 150 0 0 1 2 0 1 0 1
0 -22 114 150 0 0 1 2 0 1 0 1
0 -22 124 150 0 0 1 2 0 1 0 1
phys
0 -256 114 150 0 0 1 2 0 1 0 1
0 -22 124 150 0 0 1 2 0 1 0 1
0 -256 124 150 0 0 1 2 0 1 0 1
phys
0 -12 23 207 0 0 1 3 0 1 0 1
0 -12 23 202 0 0 1 3 0 1 0 1
0 -22 23 202 0 0 1 3 0 1 0 1
phys
0 -12 23 207 0 0 1 3 0 1 0 1
0 -22 23 202 0 0 1 3 0 1 0 1
0 -22 23 207 0 0 1 3 0 1 0 1
phys
0 -12 -93 202 0 0 1 3 0 1 0 1
0 -12 -93 207 0 0 1 3 0 1 0 1
0 -22 -93 207 0 0 1 3 0 1 0 1
phys
0 -12 -93 202 0 0 1 3 0 1 0 1
0 -22 -93 207 0 0 1 3 0 1 0 1
0 -22 -93 202 0 0 1 3 0 1 0 1
phys
0 -22 -93 202 0 0 1 3 0 1 0 1
0 -22 -93 207 0 0 1 3 0 1 0 1
0 -22 23 207 0 0 1 3 0 1 0 1
phys
0 -22 -93 202 0 0 1 3 0 1 0 1
0 -22 23 207 0 0 1 3 0 1 0 1
0 -22 23 202 0 0 1 3 0 1 0 1
phys
0 -12 -93 207 0 0 1 3 0 1 0 1
0 -12 -93 202 0 0 1 3 0 1 0 1
0 -12 23 202 0 0 1 3 0 1 0 1
phys
0 -12 -93 207 0 0 1 3 0 1 0 1
0 -12 23 202 0 0 1 3 0 1 0 1
0 -12 23 207 0 0 1 3 0 1 0 1
phys
0 -12 -93 202 0 0 1 3 0 1 0 1
0 -22 -93 202 0 0 1 3 0 1 0 1
0 -22 23 202 0 0 1 3 0 1 0 1
phys
0 -12 -93 202 0 0 1 3 0 1 0 1
0 -22 23 202 0 0 1 3 0 1 0 1
0 -12 23 202 0 0 1 3 0 1 0 1
phys
0 -22 -93 207 0 0 1 3 0 1 0 1
0 -12 -93 207 0 0 1 3 0 1 0 1
0 -12 23 207 0 0 1 3 0 1 0 1
phys
0 -22 -93 207 0 0 1 3 0 1 0 1
0 -12 23 207 0 0 1 3 0 1 0 1
0 -22 23 207 0 0 1 3 0 1 0 1
phys
0 -22 -76 150 0 0 1 4 0 1 0 1
0 -22 -76 140 0 0 1 4 0 1 0 1
0 -256 -76 140 0 0 1 4 0 1 0 1
phys
0 -22 -76 150 0 0 1 4 0 1 0 1
0 -256 -76 140 0 0 1 4 0 1 0 1
0 -256 -76 150 0 0 1 4 0 1 0 1
phys
0 -22 -86 140 0 0 1 4 0 1 0 1
0 -22 -86 150 0 0 1 4 0 1 0 1
0 -256 -86 150 0 0 1 4 0 1 0 1
phys
0 -22 -86 140 0 0 1 4 0 1 0 1
0 -256 -86 150 0 0 1 4 0 1 0 1
0 -256 -86 140 0 0 1 4 0 1 0 1
phys
0 -256 -86 140 0 0 1 4 0 1 0 1
0 -256 -86 150 0 0 1 4 0 1 0 1
0 -256 -76 150 0 0 1 4 0 1 0 1
phys
0 -256 -86 140 0 0 1 4 0 1 0 1
0 -256 -76 150 0 0 1 4 0 1 0 1
0 -256 -76 140 0 0 1 4 0 1 0 1
phys
0 -22 -86 150 0 0 1 4 0 1 0 1
0 -22 -86 140 0 0 1 4 0 1 0 1
0 -22 -76 140 0 0 1 4 0 1 0 1
phys
0 -22 -86 150 0 0 1 4 0 1 0 1
0 -22 -76 140 0 0 1 4 0 1 0 1
0 -22 -76 150 0 0 1 4 0 1 0 1
phys
0 -22 -86 140 0 0 1 4 0 1 0 1
0 -256 -86 140 0 0 1 4 0 1 0 1
0 -256 -76 140 0 0 1 4 0 1 0 1
phys
0 -22 -86 140 0 0 1 4 0 1 0 1
0 -256 -76 140 0 0 1 4 0 1 0 1
0 -22 -76 140 0 0 1 4 0 1 0 1
phys
0 -256 -86 150 0 0 1 4 0 1 0 1
0 -22 -86 150 0 0 1 4 0 1 0 1
0 -22 -76 150 0 0 1 4 0 1 0 1
phys
0 -256 -86 150 0 0 1 4 0 1 0 1
0 -22 -76 150 0 0 1 4 0 1 0 1
0 -256 -76 150 0 0 1 4 0 1 0 1
phys
0 249.7 99.02 0 0 0 1 5 0 1 0 1
0 247.8 99.77 0 0 0 1 5 0 1 0 1
0 247.8 99.77 64 0 0 1 5 0 1 0 1
phys
0 249.7 99.02 0 0 0 1 5 0 1 0 1
0 247.8 99.77 64 0 0 1 5 0 1 0 1
0 249.7 99.02 64 0 0 1 5 0 1 0 1
phys
0 247.1 97.91 0 0 0 1 5 0 1 0 1
0 247.1 97.91 64 0 0 1 5 0 1 0 1
0 247.8 99.77 64 0 0 1 5 0 1 0 1
phys
0 247.1 97.91 0 0 0 1 5 0 1 0 1
0 247.8 99.77 64 0 0 1 5 0 1 0 1
0 247.8 99.77 0 0 0 1 5 0 1 0 1
phys
0 248.9 97.16 64 0 0 1 5 0 1 0 1
0 247.1 97.91 64 0 0 1 5 0 1 0 1
0 247.1 97.91 0 0 0 1 5 0 1 0 1
phys
0 248.9 97.16 64 0 0 1 5 0 1 0 1
0 247.1 97.91 0 0 0 1 5 0 1 0 1
0 248.9 97.16 0 0 0 1 5 0 1 0 1
phys
0 248.9 97.16 0 0 0 1 5 0 1 0 1
0 247.1 97.91 0 0 0 1 5 0 1 0 1
0 247.8 99.77 0 0 0 1 5 0 1 0 1
phys
0 248.9 97.16 0 0 0 1 5 0 1 0 1
0 247.8 99.77 0 0 0 1 5 0 1 0 1
0 249.7 99.02 0 0 0 1 5 0 1 0 1
phys
0 249.7 99.02 64 0 0 1 5 0 1 0 1
0 247.8 99.77 64 0 0 1 5 0 1 0 1
0 247.1 97.91 64 0 0 1 5 0 1 0 1
phys
0 249.7 99.02 64 0 0 1 5 0 1 0 1
0 247.1 97.91 64 0 0 1 5 0 1 0 1
0 248.9 97.16 64 0 0 1 5 0 1 0 1
phys
0 248.9 97.16 64 0 0 1 5 0 1 0 1
0 248.9 97.16 0 0 0 1 5 0 1 0 1
0 249.7 99.02 0 0 0 1 5 0 1 0 1
phys
0 248.9 97.16 64 0 0 1 5 0 1 0 1
0 249.7 99.02 0 0 0 1 5 0 1 0 1
0 249.7 99.02 64 0 0 1 5 0 1 0 1
phys
0 -22 -93 288 0 0 1 6 0 1 0 1
0 -22 23 288 0 0 1 6 0 1 0 1
0 -22 23 276 0 0 1 6 0 1 0 1
phys
0 -22 -93 288 0 0 1 6 0 1 0 1
0 -22 23 276 0 0 1 6 0 1 0 1
0 -22 -93 276 0 0 1 6 0 1 0 1
phys
0 -12 -93 276 0 0 1 6 0 1 0 1
0 -12 23 276 0 0 1 6 0 1 0 1
0 -12 23 288 0 0 1 6 0 1 0 1
phys
0 -12 -93 276 0 0 1 6 0 1 0 1
0 -12 23 288 0 0 1 6 0 1 0 1
0 -12 -93 288 0 0 1 6 0 1 0 1
phys
0 -22 -93 276 0 0 1 6 0 1 0 1
0 -22 23 276 0 0 1 6 0 1 0 1
0 -12 23 276 0 0 1 6 0 1 0 1
phys
0 -22 -93 276 0 0 1 6 0 1 0 1
0 -12 23 276 0 0 1 6 0 1 0 1
0 -12 -93 276 0 0 1 6 0 1 0 1
phys
0 -12 -93 288 0 0 1 6 0 1 0 1
0 -12 23 288 0 0 1 6 0 1 0 1
0 -22 23 288 0 0 1 6 0 1 0 1
phys
0 -12 -93 288 0 0 1 6 0 1 0 1
0 -22 23 288 0 0 1 6 0 1 0 1
0 -22 -93 288 0 0 1 6 0 1 0 1
phys
0 -12 23 288 0 0 1 6 0 1 0 1
0 -12 23 276 0 0 1 6 0 1 0 1
0 -22 23 276 0 0 1 6 0 1 0 1
phys
0 -12 23 288 0 0 1 6 0 1 0 1
0 -22 23 276 0 0 1 6 0 1 0 1
0 -22 23 288 0 0 1 6 0 1 0 1
phys
0 -12 -93 276 0 0 1 6 0 1 0 1
0 -12 -93 288 0 0 1 6 0 1 0 1
0 -22 -93 288 0 0 1 6 0 1 0 1
phys
0 -12 -93 276 0 0 1 6 0 1 0 1
0 -22 -93 288 0 0 1 6 0 1 0 1
0 -22 -93 276 0 0 1 6 0 1 0 1
phys
0 -12 -93 239 0 0 1 7 0 1 0 1
0 -12 23 239 0 0 1 7 0 1 0 1
0 -12 23 244 0 0 1 7 0 1 0 1
phys
0 -12 -93 239 0 0 1 7 0 1 0 1
0 -12 23 244 0 0 1 7 0 1 0 1
0 -12 -93 244 0 0 1 7 0 1 0 1
phys
0 -22 23 239 0 0 1 7 0 1 0 1
0 -12 23 239 0 0 1 7 0 1 0 1
0 -12 -93 239 0 0 1 7 0 1 0 1
phys
0 -22 23 239 0 0 1 7 0 1 0 1
0 -12 -93 239 0 0 1 7 0 1 0 1
0 -22 -93 239 0 0 1 7 0 1 0 1
phys
0 -22 -93 244 0 0 1 7 0 1 0 1
0 -12 -93 244 0 0 1 7 0 1 0 1
0 -12 23 244 0 0 1 7 0 1 0 1
phys
0 -22 -93 244 0 0 1 7 0 1 0 1
0 -12 23 244 0 0 1 7 0 1 0 1
0 -22 23 244 0 0 1 7 0 1 0 1
phys
0 -12 23 244 0 0 1 7 0 1 0 1
0 -12 23 239 0 0 1 7 0 1 0 1
0 -22 23 239 0 0 1 7 0 1 0 1
phys
0 -12 23 244 0 0 1 7 0 1 0 1
0 -22 23 239 0 0 1 7 0 1 0 1
0 -22 23 244 0 0 1 7 0 1 0 1
phys
0 -12 -93 239 0 0 1 7 0 1 0 1
0 -12 -93 244 0 0 1 7 0 1 0 1
0 -22 -93 244 0 0 1 7 0 1 0 1
phys
0 -12 -93 239 0 0 1 7 0 1 0 1
0 -22 -93 244 0 0 1 7 0 1 0 1
0 -22 -93 239 0 0 1 7 0 1 0 1
phys
0 -22 -93 244 0 0 1 7 0 1 0 1
0 -22 23 244 0 0 1 7 0 1 0 1
0 -22 23 239 0 0 1 7 0 1 0 1
phys
0 -22 -93 244 0 0 1 7 0 1 0 1
0 -22 23 239 0 0 1 7 0 1 0 1
0 -22 -93 239 0 0 1 7 0 1 0 1
phys
0 -22 54 288 0 0 1 8 0 1 0 1
0 -22 54 278 0 0 1 8 0 1 0 1
0 -256 54 278 0 0 1 8 0 1 0 1
phys
0 -22 54 288 0 0 1 8 0 1 0 1
0 -256 54 278 0 0 1 8 0 1 0 1
0 -256 54 288 0 0 1 8 0 1 0 1
phys
0 -22 44 278 0 0 1 8 0 1 0 1
0 -22 44 288 0 0 1 8 0 1 0 1
0 -256 44 288 0 0 1 8 0 1 0 1
phys
0 -22 44 278 0 0 1 8 0 1 0 1
0 -256 44 288 0 0 1 8 0 1 0 1
0 -256 44 278 0 0 1 8 0 1 0 1
phys
0 -256 44 278 0 0 1 8 0 1 0 1
0 -256 44 288 0 0 1 8 0 1 0 1
0 -256 54 288 0 0 1 8 0 1 0 1
phys
0 -256 44 278 0 0 1 8 0 1 0 1
0 -256 54 288 0 0 1 8 0 1 0 1
0 -256 54 278 0 0 1 8 0 1 0 1
phys
0 -22 44 288 0 0 1 8 0 1 0 1
0 -22 44 278 0 0 1 8 0 1 0 1
0 -22 54 278 0 0 1 8 0 1 0 1
phys
0 -22 44 288 0 0 1 8 0 1 0 1
0 -22 54 278 0 0 1 8 0 1 0 1
0 -22 54 288 0 0 1 8 0 1 0 1
phys
0 -22 44 278 0 0 1 8 0 1 0 1
0 -256 44 278 0 0 1 8 0 1 0 1
0 -256 54 278 0 0 1 8 0 1 0 1
phys
0 -22 44 278 0 0 1 8 0 1 0 1
0 -256 54 278 0 0 1 8 0 1 0 1
0 -22 54 278 0 0 1 8 0 1 0 1
phys
0 -256 44 288 0 0 1 8 0 1 0 1
0 -22 44 288 0 0 1 8 0 1 0 1
0 -22 54 288 0 0 1 8 0 1 0 1
phys
0 -256 44 288 0 0 1 8 0 1 0 1
0 -22 54 288 0 0 1 8 0 1 0 1
0 -256 54 288 0 0 1 8 0 1 0 1
phys
0 -12 23 170 0 0 1 9 0 1 0 1
0 -12 23 160 0 0 1 9 0 1 0 1
0 -22 23 160 0 0 1 9 0 1 0 1
phys
0 -12 23 170 0 0 1 9 0 1 0 1
0 -22 23 160 0 0 1 9 0 1 0 1
0 -22 23 170 0 0 1 9 0 1 0 1
phys
0 -12 -93 160 0 0 1 9 0 1 0 1
0 -12 -93 170 0 0 1 9 0 1 0 1
0 -22 -93 170 0 0 1 9 0 1 0 1
phys
0 -12 -93 160 0 0 1 9 0 1 0 1
0 -22 -93 170 0 0 1 9 0 1 0 1
0 -22 -93 160 0 0 1 9 0 1 0 1
phys
0 -22 -93 160 0 0 1 9 0 1 0 1
0 -22 -93 170 0 0 1 9 0 1 0 1
0 -22 23 170 0 0 1 9 0 1 0 1
phys
0 -22 -93 160 0 0 1 9 0 1 0 1
0 -22 23 170 0 0 1 9 0 1 0 1
0 -22 23 160 0 0 1 9 0 1 0 1
phys
0 -12 -93 170 0 0 1 9 0 1 0 1
0 -12 -93 160 0 0 1 9 0 1 0 1
0 -12 23 160 0 0 1 9 0 1 0 1
phys
0 -12 -93 170 0 0 1 9 0 1 0 1
0 -12 23 160 0 0 1 9 0 1 0 1
0 -12 23 170 0 0 1 9 0 1 0 1
phys
0 -12 -93 160 0 0 1 9 0 1 0 1
0 -22 -93 160 0 0 1 9 0 1 0 1
0 -22 23 160 0 0 1 9 0 1 0 1
phys
0 -12 -93 160 0 0 1 9 0 1 0 1
0 -22 23 160 0 0 1 9 0 1 0 1
0 -12 23 160 0 0 1 9 0 1 0 1
phys
0 -22 -93 170 0 0 1 9 0 1 0 1
0 -12 -93 170 0 0 1 9 0 1 0 1
0 -12 23 170 0 0 1 9 0 1 0 1
phys
0 -22 -93 170 0 0 1 9 0 1 0 1
0 -12 23 170 0 0 1 9 0 1 0 1
0 -22 23 170 0 0 1 9 0 1 0 1
phys
0 -256 -125 288 0 0 1 10 0 1 0 1
0 -22 -125 288 0 0 1 10 0 1 0 1
0 -22 -115 288 0 0 1 10 0 1 0 1
phys
0 -256 -125 288 0 0 1 10 0 1 0 1
0 -22 -115 288 0 0 1 10 0 1 0 1
0 -256 -115 288 0 0 1 10 0 1 0 1
phys
0 -256 -115 278 0 0 1 10 0 1 0 1
0 -256 -115 288 0 0 1 10 0 1 0 1
0 -22 -115 288 0 0 1 10 0 1 0 1
phys
0 -256 -115 278 0 0 1 10 0 1 0 1
0 -22 -115 288 0 0 1 10 0 1 0 1
0 -22 -115 278 0 0 1 10 0 1 0 1
phys
0 -22 -125 278 0 0 1 10 0 1 0 1
0 -22 -125 288 0 0 1 10 0 1 0 1
0 -256 -125 288 0 0 1 10 0 1 0 1
phys
0 -22 -125 278 0 0 1 10 0 1 0 1
0 -256 -125 288 0 0 1 10 0 1 0 1
0 -256 -125 278 0 0 1 10 0 1 0 1
phys
0 -256 -125 278 0 0 1 10 0 1 0 1
0 -256 -125 288 0 0 1 10 0 1 0 1
0 -256 -115 288 0 0 1 10 0 1 0 1
phys
0 -256 -125 278 0 0 1 10 0 1 0 1
0 -256 -115 288 0 0 1 10 0 1 0 1
0 -256 -115 278 0 0 1 10 0 1 0 1
phys
0 -22 -115 278 0 0 1 10 0 1 0 1
0 -22 -115 288 0 0 1 10 0 1 0 1
0 -22 -125 288 0 0 1 10 0 1 0 1
phys
0 -22 -115 278 0 0 1 10 0 1 0 1
0 -22 -125 288 0 0 1 10 0 1 0 1
0 -22 -125 278 0 0 1 10 0 1 0 1
phys
0 -22 -125 278 0 0 1 10 0 1 0 1
0 -256 -125 278 0 0 1 10 0 1 0 1
0 -256 -115 278 0 0 1 10 0 1 0 1
phys
0 -22 -125 278 0 0 1 10 0 1 0 1
0 -256 -115 278 0 0 1 10 0 1 0 1
0 -22 -115 278 0 0 1 10 0 1 0 1
end
