version 1
nodes
0 "root" -1
end
skeleton
time 0
0 0 0 0 0 0 0
end
triangles
phys
0 57 -7 -5 0 0 1 1 0 1 0 1
0 57 -7 4 0 0 1 1 0 1 0 1
0 -58 -7 4 0 0 1 1 0 1 0 1
phys
0 57 -7 -5 0 0 1 1 0 1 0 1
0 -58 -7 4 0 0 1 1 0 1 0 1
0 -58 -7 -5 0 0 1 1 0 1 0 1
phys
0 -58 -7 -5 0 0 1 1 0 1 0 1
0 -58 -7 4 0 0 1 1 0 1 0 1
0 -58 8 4 0 0 1 1 0 1 0 1
phys
0 57 -7 4 0 0 1 1 0 1 0 1
0 57 -7 -5 0 0 1 1 0 1 0 1
0 57 8 4 0 0 1 1 0 1 0 1
phys
0 -58 -7 4 0 0 1 1 0 1 0 1
0 57 -7 4 0 0 1 1 0 1 0 1
0 57 8 4 0 0 1 1 0 1 0 1
phys
0 -58 -7 4 0 0 1 1 0 1 0 1
0 57 8 4 0 0 1 1 0 1 0 1
0 -58 8 4 0 0 1 1 0 1 0 1
phys
0 57 -7 -5 0 0 1 1 0 1 0 1
0 -58 -7 -5 0 0 1 1 0 1 0 1
0 -58 8 4 0 0 1 1 0 1 0 1
phys
0 57 -7 -5 0 0 1 1 0 1 0 1
0 -58 8 4 0 0 1 1 0 1 0 1
0 57 8 4 0 0 1 1 0 1 0 1
phys
0 -58 218 139 0 0 1 2 0 1 0 1
0 57 218 139 0 0 1 2 0 1 0 1
0 57 233 139 0 0 1 2 0 1 0 1
phys
0 -58 218 139 0 0 1 2 0 1 0 1
0 57 233 139 0 0 1 2 0 1 0 1
0 -58 233 139 0 0 1 2 0 1 0 1
phys
0 57 218 130 0 0 1 2 0 1 0 1
0 -58 218 130 0 0 1 2 0 1 0 1
0 -58 233 139 0 0 1 2 0 1 0 1
phys
0 57 218 130 0 0 1 2 0 1 0 1
0 -58 233 139 0 0 1 2 0 1 0 1
0 57 233 139 0 0 1 2 0 1 0 1
phys
0 57 218 139 0 0 1 2 0 1 0 1
0 -58 218 139 0 0 1 2 0 1 0 1
0 -58 218 130 0 0 1 2 0 1 0 1
phys
0 57 218 139 0 0 1 2 0 1 0 1
0 -58 218 130 0 0 1 2 0 1 0 1
0 57 218 130 0 0 1 2 0 1 0 1
phys
0 -58 218 139 0 0 1 2 0 1 0 1
0 -58 233 139 0 0 1 2 0 1 0 1
0 -58 218 130 0 0 1 2 0 1 0 1
phys
0 57 218 130 0 0 1 2 0 1 0 1
0 57 233 139 0 0 1 2 0 1 0 1
0 57 218 139 0 0 1 2 0 1 0 1
phys
0 57 -37 -23 0 0 1 3 0 1 0 1
0 57 -37 -14 0 0 1 3 0 1 0 1
0 -58 -37 -14 0 0 1 3 0 1 0 1
phys
0 57 -37 -23 0 0 1 3 0 1 0 1
0 -58 -37 -14 0 0 1 3 0 1 0 1
0 -58 -37 -23 0 0 1 3 0 1 0 1
phys
0 -58 -37 -23 0 0 1 3 0 1 0 1
0 -58 -37 -14 0 0 1 3 0 1 0 1
0 -58 -22 -14 0 0 1 3 0 1 0 1
phys
0 57 -37 -14 0 0 1 3 0 1 0 1
0 57 -37 -23 0 0 1 3 0 1 0 1
0 57 -22 -14 0 0 1 3 0 1 0 1
phys
0 -58 -37 -14 0 0 1 3 0 1 0 1
0 57 -37 -14 0 0 1 3 0 1 0 1
0 57 -22 -14 0 0 1 3 0 1 0 1
phys
0 -58 -37 -14 0 0 1 3 0 1 0 1
0 57 -22 -14 0 0 1 3 0 1 0 1
0 -58 -22 -14 0 0 1 3 0 1 0 1
phys
0 57 -37 -23 0 0 1 3 0 1 0 1
0 -58 -37 -23 0 0 1 3 0 1 0 1
0 -58 -22 -14 0 0 1 3 0 1 0 1
phys
0 57 -37 -23 0 0 1 3 0 1 0 1
0 -58 -22 -14 0 0 1 3 0 1 0 1
0 57 -22 -14 0 0 1 3 0 1 0 1
phys
0 57 8 4 0 0 1 4 0 1 0 1
0 57 8 13 0 0 1 4 0 1 0 1
0 -58 8 13 0 0 1 4 0 1 0 1
phys
0 57 8 4 0 0 1 4 0 1 0 1
0 -58 8 13 0 0 1 4 0 1 0 1
0 -58 8 4 0 0 1 4 0 1 0 1
phys
0 -58 8 4 0 0 1 4 0 1 0 1
0 -58 8 13 0 0 1 4 0 1 0 1
0 -58 23 13 0 0 1 4 0 1 0 1
phys
0 57 8 13 0 0 1 4 0 1 0 1
0 57 8 4 0 0 1 4 0 1 0 1
0 57 23 13 0 0 1 4 0 1 0 1
phys
0 -58 8 13 0 0 1 4 0 1 0 1
0 57 8 13 0 0 1 4 0 1 0 1
0 57 23 13 0 0 1 4 0 1 0 1
phys
0 -58 8 13 0 0 1 4 0 1 0 1
0 57 23 13 0 0 1 4 0 1 0 1
0 -58 23 13 0 0 1 4 0 1 0 1
phys
0 57 8 4 0 0 1 4 0 1 0 1
0 -58 8 4 0 0 1 4 0 1 0 1
0 -58 23 13 0 0 1 4 0 1 0 1
phys
0 57 8 4 0 0 1 4 0 1 0 1
0 -58 23 13 0 0 1 4 0 1 0 1
0 57 23 13 0 0 1 4 0 1 0 1
phys
0 57 308 184 0 0 1 5 0 1 0 1
0 57 308 193 0 0 1 5 0 1 0 1
0 -58 308 193 0 0 1 5 0 1 0 1
phys
0 57 308 184 0 0 1 5 0 1 0 1
0 -58 308 193 0 0 1 5 0 1 0 1
0 -58 308 184 0 0 1 5 0 1 0 1
phys
0 -58 308 184 0 0 1 5 0 1 0 1
0 -58 308 193 0 0 1 5 0 1 0 1
0 -58 323 193 0 0 1 5 0 1 0 1
phys
0 57 308 193 0 0 1 5 0 1 0 1
0 57 308 184 0 0 1 5 0 1 0 1
0 57 323 193 0 0 1 5 0 1 0 1
phys
0 -58 308 193 0 0 1 5 0 1 0 1
0 57 308 193 0 0 1 5 0 1 0 1
0 57 323 193 0 0 1 5 0 1 0 1
phys
0 -58 308 193 0 0 1 5 0 1 0 1
0 57 323 193 0 0 1 5 0 1 0 1
0 -58 323 193 0 0 1 5 0 1 0 1
phys
0 57 308 184 0 0 1 5 0 1 0 1
0 -58 308 184 0 0 1 5 0 1 0 1
0 -58 323 193 0 0 1 5 0 1 0 1
phys
0 57 308 184 0 0 1 5 0 1 0 1
0 -58 323 193 0 0 1 5 0 1 0 1
0 57 323 193 0 0 1 5 0 1 0 1
phys
0 57 113 67 0 0 1 6 0 1 0 1
0 57 113 76 0 0 1 6 0 1 0 1
0 -58 113 76 0 0 1 6 0 1 0 1
phys
0 57 113 67 0 0 1 6 0 1 0 1
0 -58 113 76 0 0 1 6 0 1 0 1
0 -58 113 67 0 0 1 6 0 1 0 1
phys
0 -58 113 67 0 0 1 6 0 1 0 1
0 -58 113 76 0 0 1 6 0 1 0 1
0 -58 128 76 0 0 1 6 0 1 0 1
phys
0 57 113 76 0 0 1 6 0 1 0 1
0 57 113 67 0 0 1 6 0 1 0 1
0 57 128 76 0 0 1 6 0 1 0 1
phys
0 -58 113 76 0 0 1 6 0 1 0 1
0 57 113 76 0 0 1 6 0 1 0 1
0 57 128 76 0 0 1 6 0 1 0 1
phys
0 -58 113 76 0 0 1 6 0 1 0 1
0 57 128 76 0 0 1 6 0 1 0 1
0 -58 128 76 0 0 1 6 0 1 0 1
phys
0 57 113 67 0 0 1 6 0 1 0 1
0 -58 113 67 0 0 1 6 0 1 0 1
0 -58 128 76 0 0 1 6 0 1 0 1
phys
0 57 113 67 0 0 1 6 0 1 0 1
0 -58 128 76 0 0 1 6 0 1 0 1
0 57 128 76 0 0 1 6 0 1 0 1
phys
0 57 188 112 0 0 1 7 0 1 0 1
0 57 188 121 0 0 1 7 0 1 0 1
0 -58 188 121 0 0 1 7 0 1 0 1
phys
0 57 188 112 0 0 1 7 0 1 0 1
0 -58 188 121 0 0 1 7 0 1 0 1
0 -58 188 112 0 0 1 7 0 1 0 1
phys
0 -58 188 112 0 0 1 7 0 1 0 1
0 -58 188 121 0 0 1 7 0 1 0 1
0 -58 203 121 0 0 1 7 0 1 0 1
phys
0 57 188 121 0 0 1 7 0 1 0 1
0 57 188 112 0 0 1 7 0 1 0 1
0 57 203 121 0 0 1 7 0 1 0 1
phys
0 -58 188 121 0 0 1 7 0 1 0 1
0 57 188 121 0 0 1 7 0 1 0 1
0 57 203 121 0 0 1 7 0 1 0 1
phys
0 -58 188 121 0 0 1 7 0 1 0 1
0 57 203 121 0 0 1 7 0 1 0 1
0 -58 203 121 0 0 1 7 0 1 0 1
phys
0 57 188 112 0 0 1 7 0 1 0 1
0 -58 188 112 0 0 1 7 0 1 0 1
0 -58 203 121 0 0 1 7 0 1 0 1
phys
0 57 188 112 0 0 1 7 0 1 0 1
0 -58 203 121 0 0 1 7 0 1 0 1
0 57 203 121 0 0 1 7 0 1 0 1
phys
0 -58 293 184 0 0 1 8 0 1 0 1
0 57 293 184 0 0 1 8 0 1 0 1
0 57 308 184 0 0 1 8 0 1 0 1
phys
0 -58 293 184 0 0 1 8 0 1 0 1
0 57 308 184 0 0 1 8 0 1 0 1
0 -58 308 184 0 0 1 8 0 1 0 1
phys
0 57 293 175 0 0 1 8 0 1 0 1
0 -58 293 175 0 0 1 8 0 1 0 1
0 -58 308 184 0 0 1 8 0 1 0 1
phys
0 57 293 175 0 0 1 8 0 1 0 1
0 -58 308 184 0 0 1 8 0 1 0 1
0 57 308 184 0 0 1 8 0 1 0 1
phys
0 57 293 184 0 0 1 8 0 1 0 1
0 -58 293 184 0 0 1 8 0 1 0 1
0 -58 293 175 0 0 1 8 0 1 0 1
phys
0 57 293 184 0 0 1 8 0 1 0 1
0 -58 293 175 0 0 1 8 0 1 0 1
0 57 293 175 0 0 1 8 0 1 0 1
phys
0 -58 293 184 0 0 1 8 0 1 0 1
0 -58 308 184 0 0 1 8 0 1 0 1
0 -58 293 175 0 0 1 8 0 1 0 1
phys
0 57 293 175 0 0 1 8 0 1 0 1
0 57 308 184 0 0 1 8 0 1 0 1
0 57 293 184 0 0 1 8 0 1 0 1
phys
0 57 23 13 0 0 1 9 0 1 0 1
0 57 23 22 0 0 1 9 0 1 0 1
0 -58 23 22 0 0 1 9 0 1 0 1
phys
0 57 23 13 0 0 1 9 0 1 0 1
0 -58 23 22 0 0 1 9 0 1 0 1
0 -58 23 13 0 0 1 9 0 1 0 1
phys
0 -58 23 13 0 0 1 9 0 1 0 1
0 -58 23 22 0 0 1 9 0 1 0 1
0 -58 38 22 0 0 1 9 0 1 0 1
phys
0 57 23 22 0 0 1 9 0 1 0 1
0 57 23 13 0 0 1 9 0 1 0 1
0 57 38 22 0 0 1 9 0 1 0 1
phys
0 -58 23 22 0 0 1 9 0 1 0 1
0 57 23 22 0 0 1 9 0 1 0 1
0 57 38 22 0 0 1 9 0 1 0 1
phys
0 -58 23 22 0 0 1 9 0 1 0 1
0 57 38 22 0 0 1 9 0 1 0 1
0 -58 38 22 0 0 1 9 0 1 0 1
phys
0 57 23 13 0 0 1 9 0 1 0 1
0 -58 23 13 0 0 1 9 0 1 0 1
0 -58 38 22 0 0 1 9 0 1 0 1
phys
0 57 23 13 0 0 1 9 0 1 0 1
0 -58 38 22 0 0 1 9 0 1 0 1
0 57 38 22 0 0 1 9 0 1 0 1
phys
0 57 158 94 0 0 1 10 0 1 0 1
0 57 158 103 0 0 1 10 0 1 0 1
0 -58 158 103 0 0 1 10 0 1 0 1
phys
0 57 158 94 0 0 1 10 0 1 0 1
0 -58 158 103 0 0 1 10 0 1 0 1
0 -58 158 94 0 0 1 10 0 1 0 1
phys
0 -58 158 94 0 0 1 10 0 1 0 1
0 -58 158 103 0 0 1 10 0 1 0 1
0 -58 173 103 0 0 1 10 0 1 0 1
phys
0 57 158 103 0 0 1 10 0 1 0 1
0 57 158 94 0 0 1 10 0 1 0 1
0 57 173 103 0 0 1 10 0 1 0 1
phys
0 -58 158 103 0 0 1 10 0 1 0 1
0 57 158 103 0 0 1 10 0 1 0 1
0 57 173 103 0 0 1 10 0 1 0 1
phys
0 -58 158 103 0 0 1 10 0 1 0 1
0 57 173 103 0 0 1 10 0 1 0 1
0 -58 173 103 0 0 1 10 0 1 0 1
phys
0 57 158 94 0 0 1 10 0 1 0 1
0 -58 158 94 0 0 1 10 0 1 0 1
0 -58 173 103 0 0 1 10 0 1 0 1
phys
0 57 158 94 0 0 1 10 0 1 0 1
0 -58 173 103 0 0 1 10 0 1 0 1
0 57 173 103 0 0 1 10 0 1 0 1
phys
0 57 -52 -32 0 0 1 11 0 1 0 1
0 57 -37 -23 0 0 1 11 0 1 0 1
0 57 -52 -23 0 0 1 11 0 1 0 1
phys
0 -58 -52 -23 0 0 1 11 0 1 0 1
0 57 -52 -23 0 0 1 11 0 1 0 1
0 57 -37 -23 0 0 1 11 0 1 0 1
phys
0 -58 -52 -23 0 0 1 11 0 1 0 1
0 57 -37 -23 0 0 1 11 0 1 0 1
0 -58 -37 -23 0 0 1 11 0 1 0 1
phys
0 -58 -37 -23 0 0 1 11 0 1 0 1
0 57 -37 -23 0 0 1 11 0 1 0 1
0 57 -52 -32 0 0 1 11 0 1 0 1
phys
0 -58 -37 -23 0 0 1 11 0 1 0 1
0 57 -52 -32 0 0 1 11 0 1 0 1
0 -58 -52 -32 0 0 1 11 0 1 0 1
phys
0 57 -52 -32 0 0 1 11 0 1 0 1
0 57 -52 -23 0 0 1 11 0 1 0 1
0 -58 -52 -23 0 0 1 11 0 1 0 1
phys
0 57 -52 -32 0 0 1 11 0 1 0 1
0 -58 -52 -23 0 0 1 11 0 1 0 1
0 -58 -52 -32 0 0 1 11 0 1 0 1
phys
0 -58 -52 -23 0 0 1 11 0 1 0 1
0 -58 -37 -23 0 0 1 11 0 1 0 1
0 -58 -52 -32 0 0 1 11 0 1 0 1
phys
0 57 83 49 0 0 1 12 0 1 0 1
0 57 83 58 0 0 1 12 0 1 0 1
0 -58 83 58 0 0 1 12 0 1 0 1
phys
0 57 83 49 0 0 1 12 0 1 0 1
0 -58 83 58 0 0 1 12 0 1 0 1
0 -58 83 49 0 0 1 12 0 1 0 1
phys
0 -58 83 49 0 0 1 12 0 1 0 1
0 -58 83 58 0 0 1 12 0 1 0 1
0 -58 98 58 0 0 1 12 0 1 0 1
phys
0 57 83 58 0 0 1 12 0 1 0 1
0 57 83 49 0 0 1 12 0 1 0 1
0 57 98 58 0 0 1 12 0 1 0 1
phys
0 -58 83 58 0 0 1 12 0 1 0 1
0 57 83 58 0 0 1 12 0 1 0 1
0 57 98 58 0 0 1 12 0 1 0 1
phys
0 -58 83 58 0 0 1 12 0 1 0 1
0 57 98 58 0 0 1 12 0 1 0 1
0 -58 98 58 0 0 1 12 0 1 0 1
phys
0 57 83 49 0 0 1 12 0 1 0 1
0 -58 83 49 0 0 1 12 0 1 0 1
0 -58 98 58 0 0 1 12 0 1 0 1
phys
0 57 83 49 0 0 1 12 0 1 0 1
0 -58 98 58 0 0 1 12 0 1 0 1
0 57 98 58 0 0 1 12 0 1 0 1
phys
0 57 -67 -41 0 0 1 13 0 1 0 1
0 57 -67 -32 0 0 1 13 0 1 0 1
0 -58 -67 -32 0 0 1 13 0 1 0 1
phys
0 57 -67 -41 0 0 1 13 0 1 0 1
0 -58 -67 -32 0 0 1 13 0 1 0 1
0 -58 -67 -41 0 0 1 13 0 1 0 1
phys
0 -58 -67 -41 0 0 1 13 0 1 0 1
0 -58 -67 -32 0 0 1 13 0 1 0 1
0 -58 -52 -32 0 0 1 13 0 1 0 1
phys
0 57 -67 -32 0 0 1 13 0 1 0 1
0 57 -67 -41 0 0 1 13 0 1 0 1
0 57 -52 -32 0 0 1 13 0 1 0 1
phys
0 -58 -67 -32 0 0 1 13 0 1 0 1
0 57 -67 -32 0 0 1 13 0 1 0 1
0 57 -52 -32 0 0 1 13 0 1 0 1
phys
0 -58 -67 -32 0 0 1 13 0 1 0 1
0 57 -52 -32 0 0 1 13 0 1 0 1
0 -58 -52 -32 0 0 1 13 0 1 0 1
phys
0 57 -67 -41 0 0 1 13 0 1 0 1
0 -58 -67 -41 0 0 1 13 0 1 0 1
0 -58 -52 -32 0 0 1 13 0 1 0 1
phys
0 57 -67 -41 0 0 1 13 0 1 0 1
0 -58 -52 -32 0 0 1 13 0 1 0 1
0 57 -52 -32 0 0 1 13 0 1 0 1
phys
0 57 173 103 0 0 1 14 0 1 0 1
0 57 188 112 0 0 1 14 0 1 0 1
0 57 173 112 0 0 1 14 0 1 0 1
phys
0 -58 173 112 0 0 1 14 0 1 0 1
0 57 173 112 0 0 1 14 0 1 0 1
0 57 188 112 0 0 1 14 0 1 0 1
phys
0 -58 173 112 0 0 1 14 0 1 0 1
0 57 188 112 0 0 1 14 0 1 0 1
0 -58 188 112 0 0 1 14 0 1 0 1
phys
0 -58 188 112 0 0 1 14 0 1 0 1
0 57 188 112 0 0 1 14 0 1 0 1
0 57 173 103 0 0 1 14 0 1 0 1
phys
0 -58 188 112 0 0 1 14 0 1 0 1
0 57 173 103 0 0 1 14 0 1 0 1
0 -58 173 103 0 0 1 14 0 1 0 1
phys
0 57 173 103 0 0 1 14 0 1 0 1
0 57 173 112 0 0 1 14 0 1 0 1
0 -58 173 112 0 0 1 14 0 1 0 1
phys
0 57 173 103 0 0 1 14 0 1 0 1
0 -58 173 112 0 0 1 14 0 1 0 1
0 -58 173 103 0 0 1 14 0 1 0 1
phys
0 -58 173 112 0 0 1 14 0 1 0 1
0 -58 188 112 0 0 1 14 0 1 0 1
0 -58 173 103 0 0 1 14 0 1 0 1
phys
0 57 128 76 0 0 1 15 0 1 0 1
0 57 128 85 0 0 1 15 0 1 0 1
0 -58 128 85 0 0 1 15 0 1 0 1
phys
0 57 128 76 0 0 1 15 0 1 0 1
0 -58 128 85 0 0 1 15 0 1 0 1
0 -58 128 76 0 0 1 15 0 1 0 1
phys
0 -58 128 76 0 0 1 15 0 1 0 1
0 -58 128 85 0 0 1 15 0 1 0 1
0 -58 143 85 0 0 1 15 0 1 0 1
phys
0 57 128 85 0 0 1 15 0 1 0 1
0 57 128 76 0 0 1 15 0 1 0 1
0 57 143 85 0 0 1 15 0 1 0 1
phys
0 -58 128 85 0 0 1 15 0 1 0 1
0 57 128 85 0 0 1 15 0 1 0 1
0 57 143 85 0 0 1 15 0 1 0 1
phys
0 -58 128 85 0 0 1 15 0 1 0 1
0 57 143 85 0 0 1 15 0 1 0 1
0 -58 143 85 0 0 1 15 0 1 0 1
phys
0 57 128 76 0 0 1 15 0 1 0 1
0 -58 128 76 0 0 1 15 0 1 0 1
0 -58 143 85 0 0 1 15 0 1 0 1
phys
0 57 128 76 0 0 1 15 0 1 0 1
0 -58 143 85 0 0 1 15 0 1 0 1
0 57 143 85 0 0 1 15 0 1 0 1
phys
0 57 233 139 0 0 1 16 0 1 0 1
0 57 233 148 0 0 1 16 0 1 0 1
0 -58 233 148 0 0 1 16 0 1 0 1
phys
0 57 233 139 0 0 1 16 0 1 0 1
0 -58 233 148 0 0 1 16 0 1 0 1
0 -58 233 139 0 0 1 16 0 1 0 1
phys
0 -58 233 139 0 0 1 16 0 1 0 1
0 -58 233 148 0 0 1 16 0 1 0 1
0 -58 248 148 0 0 1 16 0 1 0 1
phys
0 57 233 148 0 0 1 16 0 1 0 1
0 57 233 139 0 0 1 16 0 1 0 1
0 57 248 148 0 0 1 16 0 1 0 1
phys
0 -58 233 148 0 0 1 16 0 1 0 1
0 57 233 148 0 0 1 16 0 1 0 1
0 57 248 148 0 0 1 16 0 1 0 1
phys
0 -58 233 148 0 0 1 16 0 1 0 1
0 57 248 148 0 0 1 16 0 1 0 1
0 -58 248 148 0 0 1 16 0 1 0 1
phys
0 57 233 139 0 0 1 16 0 1 0 1
0 -58 233 139 0 0 1 16 0 1 0 1
0 -58 248 148 0 0 1 16 0 1 0 1
phys
0 57 233 139 0 0 1 16 0 1 0 1
0 -58 248 148 0 0 1 16 0 1 0 1
0 57 248 148 0 0 1 16 0 1 0 1
phys
0 57 53 31 0 0 1 17 0 1 0 1
0 57 53 40 0 0 1 17 0 1 0 1
0 -58 53 40 0 0 1 17 0 1 0 1
phys
0 57 53 31 0 0 1 17 0 1 0 1
0 -58 53 40 0 0 1 17 0 1 0 1
0 -58 53 31 0 0 1 17 0 1 0 1
phys
0 -58 53 31 0 0 1 17 0 1 0 1
0 -58 53 40 0 0 1 17 0 1 0 1
0 -58 68 40 0 0 1 17 0 1 0 1
phys
0 57 53 40 0 0 1 17 0 1 0 1
0 57 53 31 0 0 1 17 0 1 0 1
0 57 68 40 0 0 1 17 0 1 0 1
phys
0 -58 53 40 0 0 1 17 0 1 0 1
0 57 53 40 0 0 1 17 0 1 0 1
0 57 68 40 0 0 1 17 0 1 0 1
phys
0 -58 53 40 0 0 1 17 0 1 0 1
0 57 68 40 0 0 1 17 0 1 0 1
0 -58 68 40 0 0 1 17 0 1 0 1
phys
0 57 53 31 0 0 1 17 0 1 0 1
0 -58 53 31 0 0 1 17 0 1 0 1
0 -58 68 40 0 0 1 17 0 1 0 1
phys
0 57 53 31 0 0 1 17 0 1 0 1
0 -58 68 40 0 0 1 17 0 1 0 1
0 57 68 40 0 0 1 17 0 1 0 1
phys
0 57 38 22 0 0 1 18 0 1 0 1
0 -58 38 22 0 0 1 18 0 1 0 1
0 -58 53 31 0 0 1 18 0 1 0 1
phys
0 57 38 22 0 0 1 18 0 1 0 1
0 -58 53 31 0 0 1 18 0 1 0 1
0 57 53 31 0 0 1 18 0 1 0 1
phys
0 -58 38 31 0 0 1 18 0 1 0 1
0 -58 38 22 0 0 1 18 0 1 0 1
0 57 38 22 0 0 1 18 0 1 0 1
phys
0 -58 38 31 0 0 1 18 0 1 0 1
0 57 38 22 0 0 1 18 0 1 0 1
0 57 38 31 0 0 1 18 0 1 0 1
phys
0 -58 53 31 0 0 1 18 0 1 0 1
0 -58 38 22 0 0 1 18 0 1 0 1
0 -58 38 31 0 0 1 18 0 1 0 1
phys
0 57 38 31 0 0 1 18 0 1 0 1
0 57 38 22 0 0 1 18 0 1 0 1
0 57 53 31 0 0 1 18 0 1 0 1
phys
0 -58 38 31 0 0 1 18 0 1 0 1
0 57 38 31 0 0 1 18 0 1 0 1
0 57 53 31 0 0 1 18 0 1 0 1
phys
0 -58 38 31 0 0 1 18 0 1 0 1
0 57 53 31 0 0 1 18 0 1 0 1
0 -58 53 31 0 0 1 18 0 1 0 1
phys
0 57 -82 -50 0 0 1 19 0 1 0 1
0 57 -67 -41 0 0 1 19 0 1 0 1
0 57 -82 -41 0 0 1 19 0 1 0 1
phys
0 -58 -82 -41 0 0 1 19 0 1 0 1
0 57 -82 -41 0 0 1 19 0 1 0 1
0 57 -67 -41 0 0 1 19 0 1 0 1
phys
0 -58 -82 -41 0 0 1 19 0 1 0 1
0 57 -67 -41 0 0 1 19 0 1 0 1
0 -58 -67 -41 0 0 1 19 0 1 0 1
phys
0 -58 -67 -41 0 0 1 19 0 1 0 1
0 57 -67 -41 0 0 1 19 0 1 0 1
0 57 -82 -50 0 0 1 19 0 1 0 1
phys
0 -58 -67 -41 0 0 1 19 0 1 0 1
0 57 -82 -50 0 0 1 19 0 1 0 1
0 -58 -82 -50 0 0 1 19 0 1 0 1
phys
0 57 -82 -50 0 0 1 19 0 1 0 1
0 57 -82 -41 0 0 1 19 0 1 0 1
0 -58 -82 -41 0 0 1 19 0 1 0 1
phys
0 57 -82 -50 0 0 1 19 0 1 0 1
0 -58 -82 -41 0 0 1 19 0 1 0 1
0 -58 -82 -50 0 0 1 19 0 1 0 1
phys
0 -58 -82 -41 0 0 1 19 0 1 0 1
0 -58 -67 -41 0 0 1 19 0 1 0 1
0 -58 -82 -50 0 0 1 19 0 1 0 1
phys
0 57 68 40 0 0 1 20 0 1 0 1
0 57 68 49 0 0 1 20 0 1 0 1
0 -58 68 49 0 0 1 20 0 1 0 1
phys
0 57 68 40 0 0 1 20 0 1 0 1
0 -58 68 49 0 0 1 20 0 1 0 1
0 -58 68 40 0 0 1 20 0 1 0 1
phys
0 -58 68 40 0 0 1 20 0 1 0 1
0 -58 68 49 0 0 1 20 0 1 0 1
0 -58 83 49 0 0 1 20 0 1 0 1
phys
0 57 68 49 0 0 1 20 0 1 0 1
0 57 68 40 0 0 1 20 0 1 0 1
0 57 83 49 0 0 1 20 0 1 0 1
phys
0 -58 68 49 0 0 1 20 0 1 0 1
0 57 68 49 0 0 1 20 0 1 0 1
0 57 83 49 0 0 1 20 0 1 0 1
phys
0 -58 68 49 0 0 1 20 0 1 0 1
0 57 83 49 0 0 1 20 0 1 0 1
0 -58 83 49 0 0 1 20 0 1 0 1
phys
0 57 68 40 0 0 1 20 0 1 0 1
0 -58 68 40 0 0 1 20 0 1 0 1
0 -58 83 49 0 0 1 20 0 1 0 1
phys
0 57 68 40 0 0 1 20 0 1 0 1
0 -58 83 49 0 0 1 20 0 1 0 1
0 57 83 49 0 0 1 20 0 1 0 1
phys
0 57 203 121 0 0 1 21 0 1 0 1
0 57 218 130 0 0 1 21 0 1 0 1
0 57 203 130 0 0 1 21 0 1 0 1
phys
0 -58 203 130 0 0 1 21 0 1 0 1
0 57 203 130 0 0 1 21 0 1 0 1
0 57 218 130 0 0 1 21 0 1 0 1
phys
0 -58 203 130 0 0 1 21 0 1 0 1
0 57 218 130 0 0 1 21 0 1 0 1
0 -58 218 130 0 0 1 21 0 1 0 1
phys
0 -58 218 130 0 0 1 21 0 1 0 1
0 57 218 130 0 0 1 21 0 1 0 1
0 57 203 121 0 0 1 21 0 1 0 1
phys
0 -58 218 130 0 0 1 21 0 1 0 1
0 57 203 121 0 0 1 21 0 1 0 1
0 -58 203 121 0 0 1 21 0 1 0 1
phys
0 57 203 121 0 0 1 21 0 1 0 1
0 57 203 130 0 0 1 21 0 1 0 1
0 -58 203 130 0 0 1 21 0 1 0 1
phys
0 57 203 121 0 0 1 21 0 1 0 1
0 -58 203 130 0 0 1 21 0 1 0 1
0 -58 203 121 0 0 1 21 0 1 0 1
phys
0 -58 203 130 0 0 1 21 0 1 0 1
0 -58 218 130 0 0 1 21 0 1 0 1
0 -58 203 121 0 0 1 21 0 1 0 1
phys
0 -58 143 94 0 0 1 22 0 1 0 1
0 -58 158 94 0 0 1 22 0 1 0 1
0 -58 143 85 0 0 1 22 0 1 0 1
phys
0 57 143 85 0 0 1 22 0 1 0 1
0 57 158 94 0 0 1 22 0 1 0 1
0 57 143 94 0 0 1 22 0 1 0 1
phys
0 57 143 94 0 0 1 22 0 1 0 1
0 57 158 94 0 0 1 22 0 1 0 1
0 -58 158 94 0 0 1 22 0 1 0 1
phys
0 57 143 94 0 0 1 22 0 1 0 1
0 -58 158 94 0 0 1 22 0 1 0 1
0 -58 143 94 0 0 1 22 0 1 0 1
phys
0 -58 143 85 0 0 1 22 0 1 0 1
0 -58 158 94 0 0 1 22 0 1 0 1
0 57 158 94 0 0 1 22 0 1 0 1
phys
0 -58 143 85 0 0 1 22 0 1 0 1
0 57 158 94 0 0 1 22 0 1 0 1
0 57 143 85 0 0 1 22 0 1 0 1
phys
0 57 143 85 0 0 1 22 0 1 0 1
0 57 143 94 0 0 1 22 0 1 0 1
0 -58 143 94 0 0 1 22 0 1 0 1
phys
0 57 143 85 0 0 1 22 0 1 0 1
0 -58 143 94 0 0 1 22 0 1 0 1
0 -58 143 85 0 0 1 22 0 1 0 1
phys
0 57 338 202 0 0 1 23 0 1 0 1
0 57 338 211 0 0 1 23 0 1 0 1
0 -58 338 211 0 0 1 23 0 1 0 1
phys
0 57 338 202 0 0 1 23 0 1 0 1
0 -58 338 211 0 0 1 23 0 1 0 1
0 -58 338 202 0 0 1 23 0 1 0 1
phys
0 -58 338 202 0 0 1 23 0 1 0 1
0 -58 338 211 0 0 1 23 0 1 0 1
0 -58 353 211 0 0 1 23 0 1 0 1
phys
0 57 338 211 0 0 1 23 0 1 0 1
0 57 338 202 0 0 1 23 0 1 0 1
0 57 353 211 0 0 1 23 0 1 0 1
phys
0 -58 338 211 0 0 1 23 0 1 0 1
0 57 338 211 0 0 1 23 0 1 0 1
0 57 353 211 0 0 1 23 0 1 0 1
phys
0 -58 338 211 0 0 1 23 0 1 0 1
0 57 353 211 0 0 1 23 0 1 0 1
0 -58 353 211 0 0 1 23 0 1 0 1
phys
0 57 338 202 0 0 1 23 0 1 0 1
0 -58 338 202 0 0 1 23 0 1 0 1
0 -58 353 211 0 0 1 23 0 1 0 1
phys
0 57 338 202 0 0 1 23 0 1 0 1
0 -58 353 211 0 0 1 23 0 1 0 1
0 57 353 211 0 0 1 23 0 1 0 1
phys
0 57 263 157 0 0 1 24 0 1 0 1
0 57 278 166 0 0 1 24 0 1 0 1
0 57 263 166 0 0 1 24 0 1 0 1
phys
0 -58 263 166 0 0 1 24 0 1 0 1
0 57 263 166 0 0 1 24 0 1 0 1
0 57 278 166 0 0 1 24 0 1 0 1
phys
0 -58 263 166 0 0 1 24 0 1 0 1
0 57 278 166 0 0 1 24 0 1 0 1
0 -58 278 166 0 0 1 24 0 1 0 1
phys
0 -58 278 166 0 0 1 24 0 1 0 1
0 57 278 166 0 0 1 24 0 1 0 1
0 57 263 157 0 0 1 24 0 1 0 1
phys
0 -58 278 166 0 0 1 24 0 1 0 1
0 57 263 157 0 0 1 24 0 1 0 1
0 -58 263 157 0 0 1 24 0 1 0 1
phys
0 57 263 157 0 0 1 24 0 1 0 1
0 57 263 166 0 0 1 24 0 1 0 1
0 -58 263 166 0 0 1 24 0 1 0 1
phys
0 57 263 157 0 0 1 24 0 1 0 1
0 -58 263 166 0 0 1 24 0 1 0 1
0 -58 263 157 0 0 1 24 0 1 0 1
phys
0 -58 263 166 0 0 1 24 0 1 0 1
0 -58 278 166 0 0 1 24 0 1 0 1
0 -58 263 157 0 0 1 24 0 1 0 1
phys
0 57 278 166 0 0 1 25 0 1 0 1
0 57 278 175 0 0 1 25 0 1 0 1
0 -58 278 175 0 0 1 25 0 1 0 1
phys
0 57 278 166 0 0 1 25 0 1 0 1
0 -58 278 175 0 0 1 25 0 1 0 1
0 -58 278 166 0 0 1 25 0 1 0 1
phys
0 -58 278 166 0 0 1 25 0 1 0 1
0 -58 278 175 0 0 1 25 0 1 0 1
0 -58 293 175 0 0 1 25 0 1 0 1
phys
0 57 278 175 0 0 1 25 0 1 0 1
0 57 278 166 0 0 1 25 0 1 0 1
0 57 293 175 0 0 1 25 0 1 0 1
phys
0 -58 278 175 0 0 1 25 0 1 0 1
0 57 278 175 0 0 1 25 0 1 0 1
0 57 293 175 0 0 1 25 0 1 0 1
phys
0 -58 278 175 0 0 1 25 0 1 0 1
0 57 293 175 0 0 1 25 0 1 0 1
0 -58 293 175 0 0 1 25 0 1 0 1
phys
0 57 278 166 0 0 1 25 0 1 0 1
0 -58 278 166 0 0 1 25 0 1 0 1
0 -58 293 175 0 0 1 25 0 1 0 1
phys
0 57 278 166 0 0 1 25 0 1 0 1
0 -58 293 175 0 0 1 25 0 1 0 1
0 57 293 175 0 0 1 25 0 1 0 1
phys
0 57 323 193 0 0 1 26 0 1 0 1
0 -58 323 193 0 0 1 26 0 1 0 1
0 -58 338 202 0 0 1 26 0 1 0 1
phys
0 57 323 193 0 0 1 26 0 1 0 1
0 -58 338 202 0 0 1 26 0 1 0 1
0 57 338 202 0 0 1 26 0 1 0 1
phys
0 -58 323 202 0 0 1 26 0 1 0 1
0 -58 323 193 0 0 1 26 0 1 0 1
0 57 323 193 0 0 1 26 0 1 0 1
phys
0 -58 323 202 0 0 1 26 0 1 0 1
0 57 323 193 0 0 1 26 0 1 0 1
0 57 323 202 0 0 1 26 0 1 0 1
phys
0 -58 338 202 0 0 1 26 0 1 0 1
0 -58 323 193 0 0 1 26 0 1 0 1
0 -58 323 202 0 0 1 26 0 1 0 1
phys
0 57 323 202 0 0 1 26 0 1 0 1
0 57 323 193 0 0 1 26 0 1 0 1
0 57 338 202 0 0 1 26 0 1 0 1
phys
0 -58 323 202 0 0 1 26 0 1 0 1
0 57 323 202 0 0 1 26 0 1 0 1
0 57 338 202 0 0 1 26 0 1 0 1
phys
0 -58 323 202 0 0 1 26 0 1 0 1
0 57 338 202 0 0 1 26 0 1 0 1
0 -58 338 202 0 0 1 26 0 1 0 1
phys
0 57 248 148 0 0 1 27 0 1 0 1
0 57 248 157 0 0 1 27 0 1 0 1
0 -58 248 157 0 0 1 27 0 1 0 1
phys
0 57 248 148 0 0 1 27 0 1 0 1
0 -58 248 157 0 0 1 27 0 1 0 1
0 -58 248 148 0 0 1 27 0 1 0 1
phys
0 -58 248 148 0 0 1 27 0 1 0 1
0 -58 248 157 0 0 1 27 0 1 0 1
0 -58 263 157 0 0 1 27 0 1 0 1
phys
0 57 248 157 0 0 1 27 0 1 0 1
0 57 248 148 0 0 1 27 0 1 0 1
0 57 263 157 0 0 1 27 0 1 0 1
phys
0 -58 248 157 0 0 1 27 0 1 0 1
0 57 248 157 0 0 1 27 0 1 0 1
0 57 263 157 0 0 1 27 0 1 0 1
phys
0 -58 248 157 0 0 1 27 0 1 0 1
0 57 263 157 0 0 1 27 0 1 0 1
0 -58 263 157 0 0 1 27 0 1 0 1
phys
0 57 248 148 0 0 1 27 0 1 0 1
0 -58 248 148 0 0 1 27 0 1 0 1
0 -58 263 157 0 0 1 27 0 1 0 1
phys
0 57 248 148 0 0 1 27 0 1 0 1
0 -58 263 157 0 0 1 27 0 1 0 1
0 57 263 157 0 0 1 27 0 1 0 1
phys
0 57 353 211 0 0 1 28 0 1 0 1
0 57 353 220 0 0 1 28 0 1 0 1
0 -58 353 220 0 0 1 28 0 1 0 1
phys
0 57 353 211 0 0 1 28 0 1 0 1
0 -58 353 220 0 0 1 28 0 1 0 1
0 -58 353 211 0 0 1 28 0 1 0 1
phys
0 -58 353 211 0 0 1 28 0 1 0 1
0 -58 353 220 0 0 1 28 0 1 0 1
0 -58 368 220 0 0 1 28 0 1 0 1
phys
0 57 353 220 0 0 1 28 0 1 0 1
0 57 353 211 0 0 1 28 0 1 0 1
0 57 368 220 0 0 1 28 0 1 0 1
phys
0 -58 353 220 0 0 1 28 0 1 0 1
0 57 353 220 0 0 1 28 0 1 0 1
0 57 368 220 0 0 1 28 0 1 0 1
phys
0 -58 353 220 0 0 1 28 0 1 0 1
0 57 368 220 0 0 1 28 0 1 0 1
0 -58 368 220 0 0 1 28 0 1 0 1
phys
0 57 353 211 0 0 1 28 0 1 0 1
0 -58 353 211 0 0 1 28 0 1 0 1
0 -58 368 220 0 0 1 28 0 1 0 1
phys
0 57 353 211 0 0 1 28 0 1 0 1
0 -58 368 220 0 0 1 28 0 1 0 1
0 57 368 220 0 0 1 28 0 1 0 1
phys
0 57 98 58 0 0 1 29 0 1 0 1
0 57 98 67 0 0 1 29 0 1 0 1
0 -58 98 67 0 0 1 29 0 1 0 1
phys
0 57 98 58 0 0 1 29 0 1 0 1
0 -58 98 67 0 0 1 29 0 1 0 1
0 -58 98 58 0 0 1 29 0 1 0 1
phys
0 -58 98 58 0 0 1 29 0 1 0 1
0 -58 98 67 0 0 1 29 0 1 0 1
0 -58 113 67 0 0 1 29 0 1 0 1
phys
0 57 98 67 0 0 1 29 0 1 0 1
0 57 98 58 0 0 1 29 0 1 0 1
0 57 113 67 0 0 1 29 0 1 0 1
phys
0 -58 98 67 0 0 1 29 0 1 0 1
0 57 98 67 0 0 1 29 0 1 0 1
0 57 113 67 0 0 1 29 0 1 0 1
phys
0 -58 98 67 0 0 1 29 0 1 0 1
0 57 113 67 0 0 1 29 0 1 0 1
0 -58 113 67 0 0 1 29 0 1 0 1
phys
0 57 98 58 0 0 1 29 0 1 0 1
0 -58 98 58 0 0 1 29 0 1 0 1
0 -58 113 67 0 0 1 29 0 1 0 1
phys
0 57 98 58 0 0 1 29 0 1 0 1
0 -58 113 67 0 0 1 29 0 1 0 1
0 57 113 67 0 0 1 29 0 1 0 1
phys
0 -58 -22 -5 0 0 1 30 0 1 0 1
0 57 -22 -5 0 0 1 30 0 1 0 1
0 57 -7 -5 0 0 1 30 0 1 0 1
phys
0 -58 -22 -5 0 0 1 30 0 1 0 1
0 57 -7 -5 0 0 1 30 0 1 0 1
0 -58 -7 -5 0 0 1 30 0 1 0 1
phys
0 57 -22 -14 0 0 1 30 0 1 0 1
0 -58 -22 -14 0 0 1 30 0 1 0 1
0 -58 -7 -5 0 0 1 30 0 1 0 1
phys
0 57 -22 -14 0 0 1 30 0 1 0 1
0 -58 -7 -5 0 0 1 30 0 1 0 1
0 57 -7 -5 0 0 1 30 0 1 0 1
phys
0 57 -22 -5 0 0 1 30 0 1 0 1
0 -58 -22 -5 0 0 1 30 0 1 0 1
0 -58 -22 -14 0 0 1 30 0 1 0 1
phys
0 57 -22 -5 0 0 1 30 0 1 0 1
0 -58 -22 -14 0 0 1 30 0 1 0 1
0 57 -22 -14 0 0 1 30 0 1 0 1
phys
0 -58 -22 -5 0 0 1 30 0 1 0 1
0 -58 -7 -5 0 0 1 30 0 1 0 1
0 -58 -22 -14 0 0 1 30 0 1 0 1
phys
0 57 -22 -14 0 0 1 30 0 1 0 1
0 57 -7 -5 0 0 1 30 0 1 0 1
0 57 -22 -5 0 0 1 30 0 1 0 1
end
