version 1
nodes
0 "root" -1
end
skeleton
time 0
0 0 0 0 0 0 0
end
triangles
pepsi2_arch_stairs01
0 57 -7 -5 0 -1 0 -171.699219 -27 1 0 1
0 57 -7 4 0 -1 0 -171.699219 -26.71875 1 0 1
0 -58 -7 4 0 -1 0 -173.496094 -26.71875 1 0 1
pepsi2_arch_stairs01
0 57 -7 -5 0 -1 0 -171.699219 -27 1 0 1
0 -58 -7 4 0 -1 0 -173.496094 -26.71875 1 0 1
0 -58 -7 -5 0 -1 0 -173.496094 -27 1 0 1
pepsi2_arch_stairs01
0 -58 -7 4 0 0 1 -173.496094 100.28125 1 0 1
0 57 -7 4 0 0 1 -171.699219 100.28125 1 0 1
0 57 8 4 0 0 1 -171.699219 100.75 1 0 1
pepsi2_arch_stairs01
0 -58 -7 4 0 0 1 -173.496094 100.28125 1 0 1
0 57 8 4 0 0 1 -171.699219 100.75 1 0 1
0 -58 8 4 0 0 1 -173.496094 100.75 1 0 1
pepsi2_arch_stairs01
0 -58 218 139 0 0 1 -173.496094 107.28125 1 0 1
0 57 218 139 0 0 1 -171.699219 107.28125 1 0 1
0 57 233 139 0 0 1 -171.699219 107.75 1 0 1
pepsi2_arch_stairs01
0 -58 218 139 0 0 1 -173.496094 107.28125 1 0 1
0 57 233 139 0 0 1 -171.699219 107.75 1 0 1
0 -58 233 139 0 0 1 -173.496094 107.75 1 0 1
pepsi2_arch_stairs01
0 57 218 139 0 -1 0 -171.699219 -21.71875 1 0 1
0 -58 218 139 0 -1 0 -173.496094 -21.71875 1 0 1
0 -58 218 130 0 -1 0 -173.496094 -22 1 0 1
pepsi2_arch_stairs01
0 57 218 139 0 -1 0 -171.699219 -21.71875 1 0 1
0 -58 218 130 0 -1 0 -173.496094 -22 1 0 1
0 57 218 130 0 -1 0 -171.699219 -22 1 0 1
pepsi2_arch_stairs01
0 57 -37 -23 0 -1 0 -171.699219 -27 1 0 1
0 57 -37 -14 0 -1 0 -171.699219 -26.71875 1 0 1
0 -58 -37 -14 0 -1 0 -173.496094 -26.71875 1 0 1
pepsi2_arch_stairs01
0 57 -37 -23 0 -1 0 -171.699219 -27 1 0 1
0 -58 -37 -14 0 -1 0 -173.496094 -26.71875 1 0 1
0 -58 -37 -23 0 -1 0 -173.496094 -27 1 0 1
pepsi2_arch_stairs01
0 -58 -37 -14 0 0 1 -173.496094 99.28125 1 0 1
0 57 -37 -14 0 0 1 -171.699219 99.28125 1 0 1
0 57 -22 -14 0 0 1 -171.699219 99.75 1 0 1
pepsi2_arch_stairs01
0 -58 -37 -14 0 0 1 -173.496094 99.28125 1 0 1
0 57 -22 -14 0 0 1 -171.699219 99.75 1 0 1
0 -58 -22 -14 0 0 1 -173.496094 99.75 1 0 1
pepsi2_arch_stairs01
0 57 8 4 0 -1 0 -171.699219 -26 1 0 1
0 57 8 13 0 -1 0 -171.699219 -25.71875 1 0 1
0 -58 8 13 0 -1 0 -173.496094 -25.71875 1 0 1
pepsi2_arch_stairs01
0 57 8 4 0 -1 0 -171.699219 -26 1 0 1
0 -58 8 13 0 -1 0 -173.496094 -25.71875 1 0 1
0 -58 8 4 0 -1 0 -173.496094 -26 1 0 1
pepsi2_arch_stairs01
0 -58 8 13 0 0 1 -173.496094 101.28125 1 0 1
0 57 8 13 0 0 1 -171.699219 101.28125 1 0 1
0 57 23 13 0 0 1 -171.699219 101.75 1 0 1
pepsi2_arch_stairs01
0 -58 8 13 0 0 1 -173.496094 101.28125 1 0 1
0 57 23 13 0 0 1 -171.699219 101.75 1 0 1
0 -58 23 13 0 0 1 -173.496094 101.75 1 0 1
pepsi2_arch_stairs01
0 57 308 184 0 -1 0 -171.699219 -21 1 0 1
0 57 308 193 0 -1 0 -171.699219 -20.71875 1 0 1
0 -58 308 193 0 -1 0 -173.496094 -20.71875 1 0 1
pepsi2_arch_stairs01
0 57 308 184 0 -1 0 -171.699219 -21 1 0 1
0 -58 308 193 0 -1 0 -173.496094 -20.71875 1 0 1
0 -58 308 184 0 -1 0 -173.496094 -21 1 0 1
pepsi2_arch_stairs01
0 -58 308 193 0 0 1 -173.496094 110.28125 1 0 1
0 57 308 193 0 0 1 -171.699219 110.28125 1 0 1
0 57 323 193 0 0 1 -171.699219 110.75 1 0 1
pepsi2_arch_stairs01
0 -58 308 193 0 0 1 -173.496094 110.28125 1 0 1
0 57 323 193 0 0 1 -171.699219 110.75 1 0 1
0 -58 323 193 0 0 1 -173.496094 110.75 1 0 1
pepsi2_arch_stairs01
0 57 113 67 0 -1 0 -171.699219 -24 1 0 1
0 57 113 76 0 -1 0 -171.699219 -23.71875 1 0 1
0 -58 113 76 0 -1 0 -173.496094 -23.71875 1 0 1
pepsi2_arch_stairs01
0 57 113 67 0 -1 0 -171.699219 -24 1 0 1
0 -58 113 76 0 -1 0 -173.496094 -23.71875 1 0 1
0 -58 113 67 0 -1 0 -173.496094 -24 1 0 1
pepsi2_arch_stairs01
0 -58 113 76 0 0 1 -173.496094 104.28125 1 0 1
0 57 113 76 0 0 1 -171.699219 104.28125 1 0 1
0 57 128 76 0 0 1 -171.699219 104.75 1 0 1
pepsi2_arch_stairs01
0 -58 113 76 0 0 1 -173.496094 104.28125 1 0 1
0 57 128 76 0 0 1 -171.699219 104.75 1 0 1
0 -58 128 76 0 0 1 -173.496094 104.75 1 0 1
pepsi2_arch_stairs01
0 57 188 112 0 -1 0 -171.699219 -23 1 0 1
0 57 188 121 0 -1 0 -171.699219 -22.71875 1 0 1
0 -58 188 121 0 -1 0 -173.496094 -22.71875 1 0 1
pepsi2_arch_stairs01
0 57 188 112 0 -1 0 -171.699219 -23 1 0 1
0 -58 188 121 0 -1 0 -173.496094 -22.71875 1 0 1
0 -58 188 112 0 -1 0 -173.496094 -23 1 0 1
pepsi2_arch_stairs01
0 -58 188 121 0 0 1 -173.496094 106.28125 1 0 1
0 57 188 121 0 0 1 -171.699219 106.28125 1 0 1
0 57 203 121 0 0 1 -171.699219 106.75 1 0 1
pepsi2_arch_stairs01
0 -58 188 121 0 0 1 -173.496094 106.28125 1 0 1
0 57 203 121 0 0 1 -171.699219 106.75 1 0 1
0 -58 203 121 0 0 1 -173.496094 106.75 1 0 1
pepsi2_arch_stairs01
0 -58 293 184 0 0 1 -173.496094 110.28125 1 0 1
0 57 293 184 0 0 1 -171.699219 110.28125 1 0 1
0 57 308 184 0 0 1 -171.699219 110.75 1 0 1
pepsi2_arch_stairs01
0 -58 293 184 0 0 1 -173.496094 110.28125 1 0 1
0 57 308 184 0 0 1 -171.699219 110.75 1 0 1
0 -58 308 184 0 0 1 -173.496094 110.75 1 0 1
pepsi2_arch_stairs01
0 57 293 184 0 -1 0 -171.699219 -20.71875 1 0 1
0 -58 293 184 0 -1 0 -173.496094 -20.71875 1 0 1
0 -58 293 175 0 -1 0 -173.496094 -21 1 0 1
pepsi2_arch_stairs01
0 57 293 184 0 -1 0 -171.699219 -20.71875 1 0 1
0 -58 293 175 0 -1 0 -173.496094 -21 1 0 1
0 57 293 175 0 -1 0 -171.699219 -21 1 0 1
pepsi2_arch_stairs01
0 57 23 13 0 -1 0 -171.699219 -26 1 0 1
0 57 23 22 0 -1 0 -171.699219 -25.71875 1 0 1
0 -58 23 22 0 -1 0 -173.496094 -25.71875 1 0 1
pepsi2_arch_stairs01
0 57 23 13 0 -1 0 -171.699219 -26 1 0 1
0 -58 23 22 0 -1 0 -173.496094 -25.71875 1 0 1
0 -58 23 13 0 -1 0 -173.496094 -26 1 0 1
pepsi2_arch_stairs01
0 -58 23 22 0 0 1 -173.496094 101.28125 1 0 1
0 57 23 22 0 0 1 -171.699219 101.28125 1 0 1
0 57 38 22 0 0 1 -171.699219 101.75 1 0 1
pepsi2_arch_stairs01
0 -58 23 22 0 0 1 -173.496094 101.28125 1 0 1
0 57 38 22 0 0 1 -171.699219 101.75 1 0 1
0 -58 38 22 0 0 1 -173.496094 101.75 1 0 1
pepsi2_arch_stairs01
0 57 158 94 0 -1 0 -171.699219 -24 1 0 1
0 57 158 103 0 -1 0 -171.699219 -23.71875 1 0 1
0 -58 158 103 0 -1 0 -173.496094 -23.71875 1 0 1
pepsi2_arch_stairs01
0 57 158 94 0 -1 0 -171.699219 -24 1 0 1
0 -58 158 103 0 -1 0 -173.496094 -23.71875 1 0 1
0 -58 158 94 0 -1 0 -173.496094 -24 1 0 1
pepsi2_arch_stairs01
0 -58 158 103 0 0 1 -173.496094 105.28125 1 0 1
0 57 158 103 0 0 1 -171.699219 105.28125 1 0 1
0 57 173 103 0 0 1 -171.699219 105.75 1 0 1
pepsi2_arch_stairs01
0 -58 158 103 0 0 1 -173.496094 105.28125 1 0 1
0 57 173 103 0 0 1 -171.699219 105.75 1 0 1
0 -58 173 103 0 0 1 -173.496094 105.75 1 0 1
pepsi2_arch_stairs01
0 -58 -52 -23 0 0 1 -173.496094 99.28125 1 0 1
0 57 -52 -23 0 0 1 -171.699219 99.28125 1 0 1
0 57 -37 -23 0 0 1 -171.699219 99.75 1 0 1
pepsi2_arch_stairs01
0 -58 -52 -23 0 0 1 -173.496094 99.28125 1 0 1
0 57 -37 -23 0 0 1 -171.699219 99.75 1 0 1
0 -58 -37 -23 0 0 1 -173.496094 99.75 1 0 1
pepsi2_arch_stairs01
0 57 -52 -32 0 -1 0 -171.699219 -28 1 0 1
0 57 -52 -23 0 -1 0 -171.699219 -27.71875 1 0 1
0 -58 -52 -23 0 -1 0 -173.496094 -27.71875 1 0 1
pepsi2_arch_stairs01
0 57 -52 -32 0 -1 0 -171.699219 -28 1 0 1
0 -58 -52 -23 0 -1 0 -173.496094 -27.71875 1 0 1
0 -58 -52 -32 0 -1 0 -173.496094 -28 1 0 1
pepsi2_arch_stairs01
0 57 83 49 0 -1 0 -171.699219 -25 1 0 1
0 57 83 58 0 -1 0 -171.699219 -24.71875 1 0 1
0 -58 83 58 0 -1 0 -173.496094 -24.71875 1 0 1
pepsi2_arch_stairs01
0 57 83 49 0 -1 0 -171.699219 -25 1 0 1
0 -58 83 58 0 -1 0 -173.496094 -24.71875 1 0 1
0 -58 83 49 0 -1 0 -173.496094 -25 1 0 1
pepsi2_arch_stairs01
0 -58 83 58 0 0 1 -173.496094 103.28125 1 0 1
0 57 83 58 0 0 1 -171.699219 103.28125 1 0 1
0 57 98 58 0 0 1 -171.699219 103.75 1 0 1
pepsi2_arch_stairs01
0 -58 83 58 0 0 1 -173.496094 103.28125 1 0 1
0 57 98 58 0 0 1 -171.699219 103.75 1 0 1
0 -58 98 58 0 0 1 -173.496094 103.75 1 0 1
pepsi2_arch_stairs01
0 57 -67 -41 0 -1 0 -171.699219 -28 1 0 1
0 57 -67 -32 0 -1 0 -171.699219 -27.71875 1 0 1
0 -58 -67 -32 0 -1 0 -173.496094 -27.71875 1 0 1
pepsi2_arch_stairs01
0 57 -67 -41 0 -1 0 -171.699219 -28 1 0 1
0 -58 -67 -32 0 -1 0 -173.496094 -27.71875 1 0 1
0 -58 -67 -41 0 -1 0 -173.496094 -28 1 0 1
pepsi2_arch_stairs01
0 -58 -67 -32 0 0 1 -173.496094 98.28125 1 0 1
0 57 -67 -32 0 0 1 -171.699219 98.28125 1 0 1
0 57 -52 -32 0 0 1 -171.699219 98.75 1 0 1
pepsi2_arch_stairs01
0 -58 -67 -32 0 0 1 -173.496094 98.28125 1 0 1
0 57 -52 -32 0 0 1 -171.699219 98.75 1 0 1
0 -58 -52 -32 0 0 1 -173.496094 98.75 1 0 1
pepsi2_arch_stairs01
0 -58 173 112 0 0 1 -173.496094 106.28125 1 0 1
0 57 173 112 0 0 1 -171.699219 106.28125 1 0 1
0 57 188 112 0 0 1 -171.699219 106.75 1 0 1
pepsi2_arch_stairs01
0 -58 173 112 0 0 1 -173.496094 106.28125 1 0 1
0 57 188 112 0 0 1 -171.699219 106.75 1 0 1
0 -58 188 112 0 0 1 -173.496094 106.75 1 0 1
pepsi2_arch_stairs01
0 57 173 103 0 -1 0 -171.699219 -23 1 0 1
0 57 173 112 0 -1 0 -171.699219 -22.71875 1 0 1
0 -58 173 112 0 -1 0 -173.496094 -22.71875 1 0 1
pepsi2_arch_stairs01
0 57 173 103 0 -1 0 -171.699219 -23 1 0 1
0 -58 173 112 0 -1 0 -173.496094 -22.71875 1 0 1
0 -58 173 103 0 -1 0 -173.496094 -23 1 0 1
pepsi2_arch_stairs01
0 57 128 76 0 -1 0 -171.699219 -24 1 0 1
0 57 128 85 0 -1 0 -171.699219 -23.71875 1 0 1
0 -58 128 85 0 -1 0 -173.496094 -23.71875 1 0 1
pepsi2_arch_stairs01
0 57 128 76 0 -1 0 -171.699219 -24 1 0 1
0 -58 128 85 0 -1 0 -173.496094 -23.71875 1 0 1
0 -58 128 76 0 -1 0 -173.496094 -24 1 0 1
pepsi2_arch_stairs01
0 -58 128 85 0 0 1 -173.496094 104.28125 1 0 1
0 57 128 85 0 0 1 -171.699219 104.28125 1 0 1
0 57 143 85 0 0 1 -171.699219 104.75 1 0 1
pepsi2_arch_stairs01
0 -58 128 85 0 0 1 -173.496094 104.28125 1 0 1
0 57 143 85 0 0 1 -171.699219 104.75 1 0 1
0 -58 143 85 0 0 1 -173.496094 104.75 1 0 1
pepsi2_arch_stairs01
0 57 233 139 0 -1 0 -171.699219 -22 1 0 1
0 57 233 148 0 -1 0 -171.699219 -21.71875 1 0 1
0 -58 233 148 0 -1 0 -173.496094 -21.71875 1 0 1
pepsi2_arch_stairs01
0 57 233 139 0 -1 0 -171.699219 -22 1 0 1
0 -58 233 148 0 -1 0 -173.496094 -21.71875 1 0 1
0 -58 233 139 0 -1 0 -173.496094 -22 1 0 1
pepsi2_arch_stairs01
0 -58 233 148 0 0 1 -173.496094 108.28125 1 0 1
0 57 233 148 0 0 1 -171.699219 108.28125 1 0 1
0 57 248 148 0 0 1 -171.699219 108.75 1 0 1
pepsi2_arch_stairs01
0 -58 233 148 0 0 1 -173.496094 108.28125 1 0 1
0 57 248 148 0 0 1 -171.699219 108.75 1 0 1
0 -58 248 148 0 0 1 -173.496094 108.75 1 0 1
pepsi2_arch_stairs01
0 57 53 31 0 -1 0 -171.699219 -26 1 0 1
0 57 53 40 0 -1 0 -171.699219 -25.71875 1 0 1
0 -58 53 40 0 -1 0 -173.496094 -25.71875 1 0 1
pepsi2_arch_stairs01
0 57 53 31 0 -1 0 -171.699219 -26 1 0 1
0 -58 53 40 0 -1 0 -173.496094 -25.71875 1 0 1
0 -58 53 31 0 -1 0 -173.496094 -26 1 0 1
pepsi2_arch_stairs01
0 -58 53 40 0 0 1 -173.496094 102.28125 1 0 1
0 57 53 40 0 0 1 -171.699219 102.28125 1 0 1
0 57 68 40 0 0 1 -171.699219 102.75 1 0 1
pepsi2_arch_stairs01
0 -58 53 40 0 0 1 -173.496094 102.28125 1 0 1
0 57 68 40 0 0 1 -171.699219 102.75 1 0 1
0 -58 68 40 0 0 1 -173.496094 102.75 1 0 1
pepsi2_arch_stairs01
0 -58 38 31 0 -1 0 -173.496094 -25.71875 1 0 1
0 -58 38 22 0 -1 0 -173.496094 -26 1 0 1
0 57 38 22 0 -1 0 -171.699219 -26 1 0 1
pepsi2_arch_stairs01
0 -58 38 31 0 -1 0 -173.496094 -25.71875 1 0 1
0 57 38 22 0 -1 0 -171.699219 -26 1 0 1
0 57 38 31 0 -1 0 -171.699219 -25.71875 1 0 1
pepsi2_arch_stairs01
0 -58 38 31 0 0 1 -173.496094 102.28125 1 0 1
0 57 38 31 0 0 1 -171.699219 102.28125 1 0 1
0 57 53 31 0 0 1 -171.699219 102.75 1 0 1
pepsi2_arch_stairs01
0 -58 38 31 0 0 1 -173.496094 102.28125 1 0 1
0 57 53 31 0 0 1 -171.699219 102.75 1 0 1
0 -58 53 31 0 0 1 -173.496094 102.75 1 0 1
pepsi2_arch_stairs01
0 -58 -82 -41 0 0 1 -173.496094 98.28125 1 0 1
0 57 -82 -41 0 0 1 -171.699219 98.28125 1 0 1
0 57 -67 -41 0 0 1 -171.699219 98.75 1 0 1
pepsi2_arch_stairs01
0 -58 -82 -41 0 0 1 -173.496094 98.28125 1 0 1
0 57 -67 -41 0 0 1 -171.699219 98.75 1 0 1
0 -58 -67 -41 0 0 1 -173.496094 98.75 1 0 1
pepsi2_arch_stairs01
0 57 -82 -50 0 -1 0 -171.699219 -28 1 0 1
0 57 -82 -41 0 -1 0 -171.699219 -27.71875 1 0 1
0 -58 -82 -41 0 -1 0 -173.496094 -27.71875 1 0 1
pepsi2_arch_stairs01
0 57 -82 -50 0 -1 0 -171.699219 -28 1 0 1
0 -58 -82 -41 0 -1 0 -173.496094 -27.71875 1 0 1
0 -58 -82 -50 0 -1 0 -173.496094 -28 1 0 1
pepsi2_arch_stairs01
0 57 68 40 0 -1 0 -171.699219 -25 1 0 1
0 57 68 49 0 -1 0 -171.699219 -24.71875 1 0 1
0 -58 68 49 0 -1 0 -173.496094 -24.71875 1 0 1
pepsi2_arch_stairs01
0 57 68 40 0 -1 0 -171.699219 -25 1 0 1
0 -58 68 49 0 -1 0 -173.496094 -24.71875 1 0 1
0 -58 68 40 0 -1 0 -173.496094 -25 1 0 1
pepsi2_arch_stairs01
0 -58 68 49 0 0 1 -173.496094 103.28125 1 0 1
0 57 68 49 0 0 1 -171.699219 103.28125 1 0 1
0 57 83 49 0 0 1 -171.699219 103.75 1 0 1
pepsi2_arch_stairs01
0 -58 68 49 0 0 1 -173.496094 103.28125 1 0 1
0 57 83 49 0 0 1 -171.699219 103.75 1 0 1
0 -58 83 49 0 0 1 -173.496094 103.75 1 0 1
pepsi2_arch_stairs01
0 -58 203 130 0 0 1 -173.496094 107.28125 1 0 1
0 57 203 130 0 0 1 -171.699219 107.28125 1 0 1
0 57 218 130 0 0 1 -171.699219 107.75 1 0 1
pepsi2_arch_stairs01
0 -58 203 130 0 0 1 -173.496094 107.28125 1 0 1
0 57 218 130 0 0 1 -171.699219 107.75 1 0 1
0 -58 218 130 0 0 1 -173.496094 107.75 1 0 1
pepsi2_arch_stairs01
0 57 203 121 0 -1 0 -171.699219 -23 1 0 1
0 57 203 130 0 -1 0 -171.699219 -22.71875 1 0 1
0 -58 203 130 0 -1 0 -173.496094 -22.71875 1 0 1
pepsi2_arch_stairs01
0 57 203 121 0 -1 0 -171.699219 -23 1 0 1
0 -58 203 130 0 -1 0 -173.496094 -22.71875 1 0 1
0 -58 203 121 0 -1 0 -173.496094 -23 1 0 1
pepsi2_arch_stairs01
0 57 143 94 0 0 1 -171.699219 105.28125 1 0 1
0 57 158 94 0 0 1 -171.699219 105.75 1 0 1
0 -58 158 94 0 0 1 -173.496094 105.75 1 0 1
pepsi2_arch_stairs01
0 57 143 94 0 0 1 -171.699219 105.28125 1 0 1
0 -58 158 94 0 0 1 -173.496094 105.75 1 0 1
0 -58 143 94 0 0 1 -173.496094 105.28125 1 0 1
pepsi2_arch_stairs01
0 57 143 85 0 -1 0 -171.699219 -24 1 0 1
0 57 143 94 0 -1 0 -171.699219 -23.71875 1 0 1
0 -58 143 94 0 -1 0 -173.496094 -23.71875 1 0 1
pepsi2_arch_stairs01
0 57 143 85 0 -1 0 -171.699219 -24 1 0 1
0 -58 143 94 0 -1 0 -173.496094 -23.71875 1 0 1
0 -58 143 85 0 -1 0 -173.496094 -24 1 0 1
pepsi2_arch_stairs01
0 57 338 202 0 -1 0 -171.699219 -20 1 0 1
0 57 338 211 0 -1 0 -171.699219 -19.71875 1 0 1
0 -58 338 211 0 -1 0 -173.496094 -19.71875 1 0 1
pepsi2_arch_stairs01
0 57 338 202 0 -1 0 -171.699219 -20 1 0 1
0 -58 338 211 0 -1 0 -173.496094 -19.71875 1 0 1
0 -58 338 202 0 -1 0 -173.496094 -20 1 0 1
pepsi2_arch_stairs01
0 -58 338 211 0 0 1 -173.496094 111.28125 1 0 1
0 57 338 211 0 0 1 -171.699219 111.28125 1 0 1
0 57 353 211 0 0 1 -171.699219 111.75 1 0 1
pepsi2_arch_stairs01
0 -58 338 211 0 0 1 -173.496094 111.28125 1 0 1
0 57 353 211 0 0 1 -171.699219 111.75 1 0 1
0 -58 353 211 0 0 1 -173.496094 111.75 1 0 1
pepsi2_arch_stairs01
0 -58 263 166 0 0 1 -173.496094 109.28125 1 0 1
0 57 263 166 0 0 1 -171.699219 109.28125 1 0 1
0 57 278 166 0 0 1 -171.699219 109.75 1 0 1
pepsi2_arch_stairs01
0 -58 263 166 0 0 1 -173.496094 109.28125 1 0 1
0 57 278 166 0 0 1 -171.699219 109.75 1 0 1
0 -58 278 166 0 0 1 -173.496094 109.75 1 0 1
pepsi2_arch_stairs01
0 57 263 157 0 -1 0 -171.699219 -22 1 0 1
0 57 263 166 0 -1 0 -171.699219 -21.71875 1 0 1
0 -58 263 166 0 -1 0 -173.496094 -21.71875 1 0 1
pepsi2_arch_stairs01
0 57 263 157 0 -1 0 -171.699219 -22 1 0 1
0 -58 263 166 0 -1 0 -173.496094 -21.71875 1 0 1
0 -58 263 157 0 -1 0 -173.496094 -22 1 0 1
pepsi2_arch_stairs01
0 57 278 166 0 -1 0 -171.699219 -21 1 0 1
0 57 278 175 0 -1 0 -171.699219 -20.71875 1 0 1
0 -58 278 175 0 -1 0 -173.496094 -20.71875 1 0 1
pepsi2_arch_stairs01
0 57 278 166 0 -1 0 -171.699219 -21 1 0 1
0 -58 278 175 0 -1 0 -173.496094 -20.71875 1 0 1
0 -58 278 166 0 -1 0 -173.496094 -21 1 0 1
pepsi2_arch_stairs01
0 -58 278 175 0 0 1 -173.496094 109.28125 1 0 1
0 57 278 175 0 0 1 -171.699219 109.28125 1 0 1
0 57 293 175 0 0 1 -171.699219 109.75 1 0 1
pepsi2_arch_stairs01
0 -58 278 175 0 0 1 -173.496094 109.28125 1 0 1
0 57 293 175 0 0 1 -171.699219 109.75 1 0 1
0 -58 293 175 0 0 1 -173.496094 109.75 1 0 1
pepsi2_arch_stairs01
0 -58 323 202 0 -1 0 -173.496094 -19.71875 1 0 1
0 -58 323 193 0 -1 0 -173.496094 -20 1 0 1
0 57 323 193 0 -1 0 -171.699219 -20 1 0 1
pepsi2_arch_stairs01
0 -58 323 202 0 -1 0 -173.496094 -19.71875 1 0 1
0 57 323 193 0 -1 0 -171.699219 -20 1 0 1
0 57 323 202 0 -1 0 -171.699219 -19.71875 1 0 1
pepsi2_arch_stairs01
0 -58 323 202 0 0 1 -173.496094 111.28125 1 0 1
0 57 323 202 0 0 1 -171.699219 111.28125 1 0 1
0 57 338 202 0 0 1 -171.699219 111.75 1 0 1
pepsi2_arch_stairs01
0 -58 323 202 0 0 1 -173.496094 111.28125 1 0 1
0 57 338 202 0 0 1 -171.699219 111.75 1 0 1
0 -58 338 202 0 0 1 -173.496094 111.75 1 0 1
pepsi2_arch_stairs01
0 57 248 148 0 -1 0 -171.699219 -22 1 0 1
0 57 248 157 0 -1 0 -171.699219 -21.71875 1 0 1
0 -58 248 157 0 -1 0 -173.496094 -21.71875 1 0 1
pepsi2_arch_stairs01
0 57 248 148 0 -1 0 -171.699219 -22 1 0 1
0 -58 248 157 0 -1 0 -173.496094 -21.71875 1 0 1
0 -58 248 148 0 -1 0 -173.496094 -22 1 0 1
pepsi2_arch_stairs01
0 -58 248 157 0 0 1 -173.496094 108.28125 1 0 1
0 57 248 157 0 0 1 -171.699219 108.28125 1 0 1
0 57 263 157 0 0 1 -171.699219 108.75 1 0 1
pepsi2_arch_stairs01
0 -58 248 157 0 0 1 -173.496094 108.28125 1 0 1
0 57 263 157 0 0 1 -171.699219 108.75 1 0 1
0 -58 263 157 0 0 1 -173.496094 108.75 1 0 1
pepsi2_arch_stairs01
0 57 353 211 0 -1 0 -171.699219 -20 1 0 1
0 57 353 220 0 -1 0 -171.699219 -19.71875 1 0 1
0 -58 353 220 0 -1 0 -173.496094 -19.71875 1 0 1
pepsi2_arch_stairs01
0 57 353 211 0 -1 0 -171.699219 -20 1 0 1
0 -58 353 220 0 -1 0 -173.496094 -19.71875 1 0 1
0 -58 353 211 0 -1 0 -173.496094 -20 1 0 1
pepsi2_arch_stairs01
0 -58 353 220 0 0 1 -173.496094 111.28125 1 0 1
0 57 353 220 0 0 1 -171.699219 111.28125 1 0 1
0 57 368 220 0 0 1 -171.699219 111.75 1 0 1
pepsi2_arch_stairs01
0 -58 353 220 0 0 1 -173.496094 111.28125 1 0 1
0 57 368 220 0 0 1 -171.699219 111.75 1 0 1
0 -58 368 220 0 0 1 -173.496094 111.75 1 0 1
pepsi2_arch_stairs01
0 57 98 58 0 -1 0 -171.699219 -25 1 0 1
0 57 98 67 0 -1 0 -171.699219 -24.71875 1 0 1
0 -58 98 67 0 -1 0 -173.496094 -24.71875 1 0 1
pepsi2_arch_stairs01
0 57 98 58 0 -1 0 -171.699219 -25 1 0 1
0 -58 98 67 0 -1 0 -173.496094 -24.71875 1 0 1
0 -58 98 58 0 -1 0 -173.496094 -25 1 0 1
pepsi2_arch_stairs01
0 -58 98 67 0 0 1 -173.496094 103.28125 1 0 1
0 57 98 67 0 0 1 -171.699219 103.28125 1 0 1
0 57 113 67 0 0 1 -171.699219 103.75 1 0 1
pepsi2_arch_stairs01
0 -58 98 67 0 0 1 -173.496094 103.28125 1 0 1
0 57 113 67 0 0 1 -171.699219 103.75 1 0 1
0 -58 113 67 0 0 1 -173.496094 103.75 1 0 1
pepsi2_arch_stairs01
0 -58 -22 -5 0 0 1 -173.496094 100.28125 1 0 1
0 57 -22 -5 0 0 1 -171.699219 100.28125 1 0 1
0 57 -7 -5 0 0 1 -171.699219 100.75 1 0 1
pepsi2_arch_stairs01
0 -58 -22 -5 0 0 1 -173.496094 100.28125 1 0 1
0 57 -7 -5 0 0 1 -171.699219 100.75 1 0 1
0 -58 -7 -5 0 0 1 -173.496094 100.75 1 0 1
pepsi2_arch_stairs01
0 57 -22 -5 0 -1 0 -171.699219 -26.71875 1 0 1
0 -58 -22 -5 0 -1 0 -173.496094 -26.71875 1 0 1
0 -58 -22 -14 0 -1 0 -173.496094 -27 1 0 1
pepsi2_arch_stairs01
0 57 -22 -5 0 -1 0 -171.699219 -26.71875 1 0 1
0 -58 -22 -14 0 -1 0 -173.496094 -27 1 0 1
0 57 -22 -14 0 -1 0 -171.699219 -27 1 0 1
end
