version 1
nodes
0 "root" -1
end
skeleton
time 0
0 0 0 0 0 0 0
end
triangles
phys
0 -56 -96 38 0 0 1 1 0 1 0 1
0 -56 -96 36 0 0 1 1 0 1 0 1
0 -90 -96 36 0 0 1 1 0 1 0 1
phys
0 -56 -96 38 0 0 1 1 0 1 0 1
0 -90 -96 36 0 0 1 1 0 1 0 1
0 -90 -96 38 0 0 1 1 0 1 0 1
phys
0 -90 -136.02 38 0 0 1 1 0 1 0 1
0 -90 -96 38 0 0 1 1 0 1 0 1
0 -90 -96 36 0 0 1 1 0 1 0 1
phys
0 -90 -136.02 38 0 0 1 1 0 1 0 1
0 -90 -96 36 0 0 1 1 0 1 0 1
0 -90 -136 36 0 0 1 1 0 1 0 1
phys
0 -56 -136 36 0 0 1 1 0 1 0 1
0 -56 -96 36 0 0 1 1 0 1 0 1
0 -56 -96 38 0 0 1 1 0 1 0 1
phys
0 -56 -136 36 0 0 1 1 0 1 0 1
0 -56 -96 38 0 0 1 1 0 1 0 1
0 -56 -136.02 38 0 0 1 1 0 1 0 1
phys
0 -90 -136 36 0 0 1 1 0 1 0 1
0 -90 -96 36 0 0 1 1 0 1 0 1
0 -56 -96 36 0 0 1 1 0 1 0 1
phys
0 -90 -136 36 0 0 1 1 0 1 0 1
0 -56 -96 36 0 0 1 1 0 1 0 1
0 -56 -136 36 0 0 1 1 0 1 0 1
phys
0 -56 -136.02 38 0 0 1 1 0 1 0 1
0 -56 -96 38 0 0 1 1 0 1 0 1
0 -90 -96 38 0 0 1 1 0 1 0 1
phys
0 -56 -136.02 38 0 0 1 1 0 1 0 1
0 -90 -96 38 0 0 1 1 0 1 0 1
0 -90 -136.02 38 0 0 1 1 0 1 0 1
phys
0 -90 -136.02 38 0 0 1 1 0 1 0 1
0 -90 -136 36 0 0 1 1 0 1 0 1
0 -56 -136 36 0 0 1 1 0 1 0 1
phys
0 -90 -136.02 38 0 0 1 1 0 1 0 1
0 -56 -136 36 0 0 1 1 0 1 0 1
0 -56 -136.02 38 0 0 1 1 0 1 0 1
phys
0 -208.001 140 0 0 0 1 2 0 1 0 1
0 -208.001 148 0 0 0 1 2 0 1 0 1
0 207.999 148 0 0 0 1 2 0 1 0 1
phys
0 -208.001 140 0 0 0 1 2 0 1 0 1
0 207.999 148 0 0 0 1 2 0 1 0 1
0 207.999 140 0 0 0 1 2 0 1 0 1
phys
0 180.639 140 40 0 0 1 2 0 1 0 1
0 180.639 148 40 0 0 1 2 0 1 0 1
0 -180.6309 148 40 0 0 1 2 0 1 0 1
phys
0 180.639 140 40 0 0 1 2 0 1 0 1
0 -180.6309 148 40 0 0 1 2 0 1 0 1
0 -180.6309 140 40 0 0 1 2 0 1 0 1
phys
0 207.999 140 0 0 0 1 2 0 1 0 1
0 207.999 148 0 0 0 1 2 0 1 0 1
0 180.639 148 40 0 0 1 2 0 1 0 1
phys
0 207.999 140 0 0 0 1 2 0 1 0 1
0 180.639 148 40 0 0 1 2 0 1 0 1
0 180.639 140 40 0 0 1 2 0 1 0 1
phys
0 -180.6309 140 40 0 0 1 2 0 1 0 1
0 -180.6309 148 40 0 0 1 2 0 1 0 1
0 -208.001 148 0 0 0 1 2 0 1 0 1
phys
0 -180.6309 140 40 0 0 1 2 0 1 0 1
0 -208.001 148 0 0 0 1 2 0 1 0 1
0 -208.001 140 0 0 0 1 2 0 1 0 1
phys
0 207.999 148 0 0 0 1 2 0 1 0 1
0 -208.001 148 0 0 0 1 2 0 1 0 1
0 -180.6309 148 40 0 0 1 2 0 1 0 1
phys
0 207.999 148 0 0 0 1 2 0 1 0 1
0 -180.6309 148 40 0 0 1 2 0 1 0 1
0 180.639 148 40 0 0 1 2 0 1 0 1
phys
0 180.639 140 40 0 0 1 2 0 1 0 1
0 -180.6309 140 40 0 0 1 2 0 1 0 1
0 -208.001 140 0 0 0 1 2 0 1 0 1
phys
0 180.639 140 40 0 0 1 2 0 1 0 1
0 -208.001 140 0 0 0 1 2 0 1 0 1
0 207.999 140 0 0 0 1 2 0 1 0 1
phys
0 -56 -60 36 0 0 1 3 0 1 0 1
0 -90 -60 36 0 0 1 3 0 1 0 1
0 -90 -12 36 0 0 1 3 0 1 0 1
phys
0 -56 -60 36 0 0 1 3 0 1 0 1
0 -90 -12 36 0 0 1 3 0 1 0 1
0 -56 -12 36 0 0 1 3 0 1 0 1
phys
0 -90 -60 38 0 0 1 3 0 1 0 1
0 -56 -60 38 0 0 1 3 0 1 0 1
0 -56 -12 38 0 0 1 3 0 1 0 1
phys
0 -90 -60 38 0 0 1 3 0 1 0 1
0 -56 -12 38 0 0 1 3 0 1 0 1
0 -90 -12 38 0 0 1 3 0 1 0 1
phys
0 -56 -12 36 0 0 1 3 0 1 0 1
0 -90 -12 36 0 0 1 3 0 1 0 1
0 -90 -12 38 0 0 1 3 0 1 0 1
phys
0 -56 -12 36 0 0 1 3 0 1 0 1
0 -90 -12 38 0 0 1 3 0 1 0 1
0 -56 -12 38 0 0 1 3 0 1 0 1
phys
0 -56 -60 38 0 0 1 3 0 1 0 1
0 -90 -60 38 0 0 1 3 0 1 0 1
0 -90 -60 36 0 0 1 3 0 1 0 1
phys
0 -56 -60 38 0 0 1 3 0 1 0 1
0 -90 -60 36 0 0 1 3 0 1 0 1
0 -56 -60 36 0 0 1 3 0 1 0 1
phys
0 -90 -60 38 0 0 1 3 0 1 0 1
0 -90 -12 38 0 0 1 3 0 1 0 1
0 -90 -12 36 0 0 1 3 0 1 0 1
phys
0 -90 -60 38 0 0 1 3 0 1 0 1
0 -90 -12 36 0 0 1 3 0 1 0 1
0 -90 -60 36 0 0 1 3 0 1 0 1
phys
0 -56 -60 36 0 0 1 3 0 1 0 1
0 -56 -12 36 0 0 1 3 0 1 0 1
0 -56 -12 38 0 0 1 3 0 1 0 1
phys
0 -56 -60 36 0 0 1 3 0 1 0 1
0 -56 -12 38 0 0 1 3 0 1 0 1
0 -56 -60 38 0 0 1 3 0 1 0 1
phys
0 -56 -134 0 0 0 1 4 0 1 0 1
0 -56 -134 36 0 0 1 4 0 1 0 1
0 -88 -134 36 0 0 1 4 0 1 0 1
phys
0 -56 -134 0 0 0 1 4 0 1 0 1
0 -88 -134 36 0 0 1 4 0 1 0 1
0 -88 -134 0 0 0 1 4 0 1 0 1
phys
0 -88 -134 0 0 0 1 4 0 1 0 1
0 -88 -134 36 0 0 1 4 0 1 0 1
0 -88 -96 36 0 0 1 4 0 1 0 1
phys
0 -88 -134 0 0 0 1 4 0 1 0 1
0 -88 -96 36 0 0 1 4 0 1 0 1
0 -88 -96 0 0 0 1 4 0 1 0 1
phys
0 -56 -134 36 0 0 1 4 0 1 0 1
0 -56 -134 0 0 0 1 4 0 1 0 1
0 -56 -96 0 0 0 1 4 0 1 0 1
phys
0 -56 -134 36 0 0 1 4 0 1 0 1
0 -56 -96 0 0 0 1 4 0 1 0 1
0 -56 -96 36 0 0 1 4 0 1 0 1
phys
0 -56 -134 0 0 0 1 4 0 1 0 1
0 -88 -134 0 0 0 1 4 0 1 0 1
0 -88 -96 0 0 0 1 4 0 1 0 1
phys
0 -56 -134 0 0 0 1 4 0 1 0 1
0 -88 -96 0 0 0 1 4 0 1 0 1
0 -56 -96 0 0 0 1 4 0 1 0 1
phys
0 -88 -134 36 0 0 1 4 0 1 0 1
0 -56 -134 36 0 0 1 4 0 1 0 1
0 -56 -96 36 0 0 1 4 0 1 0 1
phys
0 -88 -134 36 0 0 1 4 0 1 0 1
0 -56 -96 36 0 0 1 4 0 1 0 1
0 -88 -96 36 0 0 1 4 0 1 0 1
phys
0 -56 -96 36 0 0 1 4 0 1 0 1
0 -56 -96 0 0 0 1 4 0 1 0 1
0 -88 -96 0 0 0 1 4 0 1 0 1
phys
0 -56 -96 36 0 0 1 4 0 1 0 1
0 -88 -96 0 0 0 1 4 0 1 0 1
0 -88 -96 36 0 0 1 4 0 1 0 1
phys
0 -122 138 104 0 0 1 5 0 1 0 1
0 -122 138 0 0 0 1 5 0 1 0 1
0 -124 138 0 0 0 1 5 0 1 0 1
phys
0 -122 138 104 0 0 1 5 0 1 0 1
0 -124 138 0 0 0 1 5 0 1 0 1
0 -124 138 104 0 0 1 5 0 1 0 1
phys
0 -122 70 0 0 0 1 5 0 1 0 1
0 -122 70 104 0 0 1 5 0 1 0 1
0 -124 70 104 0 0 1 5 0 1 0 1
phys
0 -122 70 0 0 0 1 5 0 1 0 1
0 -124 70 104 0 0 1 5 0 1 0 1
0 -124 70 0 0 0 1 5 0 1 0 1
phys
0 -124 70 0 0 0 1 5 0 1 0 1
0 -124 70 104 0 0 1 5 0 1 0 1
0 -124 138 104 0 0 1 5 0 1 0 1
phys
0 -124 70 0 0 0 1 5 0 1 0 1
0 -124 138 104 0 0 1 5 0 1 0 1
0 -124 138 0 0 0 1 5 0 1 0 1
phys
0 -122 70 104 0 0 1 5 0 1 0 1
0 -122 70 0 0 0 1 5 0 1 0 1
0 -122 138 0 0 0 1 5 0 1 0 1
phys
0 -122 70 104 0 0 1 5 0 1 0 1
0 -122 138 0 0 0 1 5 0 1 0 1
0 -122 138 104 0 0 1 5 0 1 0 1
phys
0 -122 70 0 0 0 1 5 0 1 0 1
0 -124 70 0 0 0 1 5 0 1 0 1
0 -124 138 0 0 0 1 5 0 1 0 1
phys
0 -122 70 0 0 0 1 5 0 1 0 1
0 -124 138 0 0 0 1 5 0 1 0 1
0 -122 138 0 0 0 1 5 0 1 0 1
phys
0 -124 70 104 0 0 1 5 0 1 0 1
0 -122 70 104 0 0 1 5 0 1 0 1
0 -122 138 104 0 0 1 5 0 1 0 1
phys
0 -124 70 104 0 0 1 5 0 1 0 1
0 -122 138 104 0 0 1 5 0 1 0 1
0 -124 138 104 0 0 1 5 0 1 0 1
phys
0 -58 70 104 0 0 1 6 0 1 0 1
0 -58 140 104 0 0 1 6 0 1 0 1
0 -58 140 0 0 0 1 6 0 1 0 1
phys
0 -58 70 104 0 0 1 6 0 1 0 1
0 -58 140 0 0 0 1 6 0 1 0 1
0 -58 70 0 0 0 1 6 0 1 0 1
phys
0 -56 70 0 0 0 1 6 0 1 0 1
0 -56 140 0 0 0 1 6 0 1 0 1
0 -56 140 104 0 0 1 6 0 1 0 1
phys
0 -56 70 0 0 0 1 6 0 1 0 1
0 -56 140 104 0 0 1 6 0 1 0 1
0 -56 70 104 0 0 1 6 0 1 0 1
phys
0 -58 70 0 0 0 1 6 0 1 0 1
0 -58 140 0 0 0 1 6 0 1 0 1
0 -56 140 0 0 0 1 6 0 1 0 1
phys
0 -58 70 0 0 0 1 6 0 1 0 1
0 -56 140 0 0 0 1 6 0 1 0 1
0 -56 70 0 0 0 1 6 0 1 0 1
phys
0 -56 70 104 0 0 1 6 0 1 0 1
0 -56 140 104 0 0 1 6 0 1 0 1
0 -58 140 104 0 0 1 6 0 1 0 1
phys
0 -56 70 104 0 0 1 6 0 1 0 1
0 -58 140 104 0 0 1 6 0 1 0 1
0 -58 70 104 0 0 1 6 0 1 0 1
phys
0 -56 140 104 0 0 1 6 0 1 0 1
0 -56 140 0 0 0 1 6 0 1 0 1
0 -58 140 0 0 0 1 6 0 1 0 1
phys
0 -56 140 104 0 0 1 6 0 1 0 1
0 -58 140 0 0 0 1 6 0 1 0 1
0 -58 140 104 0 0 1 6 0 1 0 1
phys
0 -56 70 0 0 0 1 6 0 1 0 1
0 -56 70 104 0 0 1 6 0 1 0 1
0 -58 70 104 0 0 1 6 0 1 0 1
phys
0 -56 70 0 0 0 1 6 0 1 0 1
0 -58 70 104 0 0 1 6 0 1 0 1
0 -58 70 0 0 0 1 6 0 1 0 1
phys
0 24 148 104 0 0 1 7 0 1 0 1
0 24 148 40 0 0 1 7 0 1 0 1
0 -180.6291 148 40 0 0 1 7 0 1 0 1
phys
0 24 148 104 0 0 1 7 0 1 0 1
0 -180.6291 148 40 0 0 1 7 0 1 0 1
0 -136.8391 148 104 0 0 1 7 0 1 0 1
phys
0 24 140 40 0 0 1 7 0 1 0 1
0 24 140 104 0 0 1 7 0 1 0 1
0 -136.8391 140 104 0 0 1 7 0 1 0 1
phys
0 24 140 40 0 0 1 7 0 1 0 1
0 -136.8391 140 104 0 0 1 7 0 1 0 1
0 -180.6291 140 40 0 0 1 7 0 1 0 1
phys
0 24 140 104 0 0 1 7 0 1 0 1
0 24 140 40 0 0 1 7 0 1 0 1
0 24 148 40 0 0 1 7 0 1 0 1
phys
0 24 140 104 0 0 1 7 0 1 0 1
0 24 148 40 0 0 1 7 0 1 0 1
0 24 148 104 0 0 1 7 0 1 0 1
phys
0 24 140 40 0 0 1 7 0 1 0 1
0 -180.6291 140 40 0 0 1 7 0 1 0 1
0 -180.6291 148 40 0 0 1 7 0 1 0 1
phys
0 24 140 40 0 0 1 7 0 1 0 1
0 -180.6291 148 40 0 0 1 7 0 1 0 1
0 24 148 40 0 0 1 7 0 1 0 1
phys
0 -136.8391 140 104 0 0 1 7 0 1 0 1
0 24 140 104 0 0 1 7 0 1 0 1
0 24 148 104 0 0 1 7 0 1 0 1
phys
0 -136.8391 140 104 0 0 1 7 0 1 0 1
0 24 148 104 0 0 1 7 0 1 0 1
0 -136.8391 148 104 0 0 1 7 0 1 0 1
phys
0 -180.6291 140 40 0 0 1 7 0 1 0 1
0 -136.8391 140 104 0 0 1 7 0 1 0 1
0 -136.8391 148 104 0 0 1 7 0 1 0 1
phys
0 -180.6291 140 40 0 0 1 7 0 1 0 1
0 -136.8391 148 104 0 0 1 7 0 1 0 1
0 -180.6291 148 40 0 0 1 7 0 1 0 1
phys
0 -58 140 104 0 0 1 8 0 1 0 1
0 -58 140 0 0 0 1 8 0 1 0 1
0 -124 140 0 0 0 1 8 0 1 0 1
phys
0 -58 140 104 0 0 1 8 0 1 0 1
0 -124 140 0 0 0 1 8 0 1 0 1
0 -124 140 104 0 0 1 8 0 1 0 1
phys
0 -58 138 0 0 0 1 8 0 1 0 1
0 -58 138 104 0 0 1 8 0 1 0 1
0 -124 138 104 0 0 1 8 0 1 0 1
phys
0 -58 138 0 0 0 1 8 0 1 0 1
0 -124 138 104 0 0 1 8 0 1 0 1
0 -124 138 0 0 0 1 8 0 1 0 1
phys
0 -124 138 0 0 0 1 8 0 1 0 1
0 -124 138 104 0 0 1 8 0 1 0 1
0 -124 140 104 0 0 1 8 0 1 0 1
phys
0 -124 138 0 0 0 1 8 0 1 0 1
0 -124 140 104 0 0 1 8 0 1 0 1
0 -124 140 0 0 0 1 8 0 1 0 1
phys
0 -58 138 104 0 0 1 8 0 1 0 1
0 -58 138 0 0 0 1 8 0 1 0 1
0 -58 140 0 0 0 1 8 0 1 0 1
phys
0 -58 138 104 0 0 1 8 0 1 0 1
0 -58 140 0 0 0 1 8 0 1 0 1
0 -58 140 104 0 0 1 8 0 1 0 1
phys
0 -58 138 0 0 0 1 8 0 1 0 1
0 -124 138 0 0 0 1 8 0 1 0 1
0 -124 140 0 0 0 1 8 0 1 0 1
phys
0 -58 138 0 0 0 1 8 0 1 0 1
0 -124 140 0 0 0 1 8 0 1 0 1
0 -58 140 0 0 0 1 8 0 1 0 1
phys
0 -124 138 104 0 0 1 8 0 1 0 1
0 -58 138 104 0 0 1 8 0 1 0 1
0 -58 140 104 0 0 1 8 0 1 0 1
phys
0 -124 138 104 0 0 1 8 0 1 0 1
0 -58 140 104 0 0 1 8 0 1 0 1
0 -124 140 104 0 0 1 8 0 1 0 1
phys
0 -144 -108 36 0 0 1 9 0 1 0 1
0 -144 -108 0 0 0 1 9 0 1 0 1
0 -148 -108 0 0 0 1 9 0 1 0 1
phys
0 -144 -108 36 0 0 1 9 0 1 0 1
0 -148 -108 0 0 0 1 9 0 1 0 1
0 -148 -108 36 0 0 1 9 0 1 0 1
phys
0 -144 -148 0 0 0 1 9 0 1 0 1
0 -144 -148 36 0 0 1 9 0 1 0 1
0 -148 -148 36 0 0 1 9 0 1 0 1
phys
0 -144 -148 0 0 0 1 9 0 1 0 1
0 -148 -148 36 0 0 1 9 0 1 0 1
0 -148 -148 0 0 0 1 9 0 1 0 1
phys
0 -148 -148 0 0 0 1 9 0 1 0 1
0 -148 -148 36 0 0 1 9 0 1 0 1
0 -148 -108 36 0 0 1 9 0 1 0 1
phys
0 -148 -148 0 0 0 1 9 0 1 0 1
0 -148 -108 36 0 0 1 9 0 1 0 1
0 -148 -108 0 0 0 1 9 0 1 0 1
phys
0 -144 -148 36 0 0 1 9 0 1 0 1
0 -144 -148 0 0 0 1 9 0 1 0 1
0 -144 -108 0 0 0 1 9 0 1 0 1
phys
0 -144 -148 36 0 0 1 9 0 1 0 1
0 -144 -108 0 0 0 1 9 0 1 0 1
0 -144 -108 36 0 0 1 9 0 1 0 1
phys
0 -144 -148 0 0 0 1 9 0 1 0 1
0 -148 -148 0 0 0 1 9 0 1 0 1
0 -148 -108 0 0 0 1 9 0 1 0 1
phys
0 -144 -148 0 0 0 1 9 0 1 0 1
0 -148 -108 0 0 0 1 9 0 1 0 1
0 -144 -108 0 0 0 1 9 0 1 0 1
phys
0 -148 -148 36 0 0 1 9 0 1 0 1
0 -144 -148 36 0 0 1 9 0 1 0 1
0 -144 -108 36 0 0 1 9 0 1 0 1
phys
0 -148 -148 36 0 0 1 9 0 1 0 1
0 -144 -108 36 0 0 1 9 0 1 0 1
0 -148 -108 36 0 0 1 9 0 1 0 1
phys
0 104 148 40 0 0 1 10 0 1 0 1
0 180.628 148 40 0 0 1 10 0 1 0 1
0 180.628 140 40 0 0 1 10 0 1 0 1
phys
0 104 148 40 0 0 1 10 0 1 0 1
0 180.628 140 40 0 0 1 10 0 1 0 1
0 104 140 40 0 0 1 10 0 1 0 1
phys
0 104 140 104 0 0 1 10 0 1 0 1
0 136.837 140 104 0 0 1 10 0 1 0 1
0 136.837 148 104 0 0 1 10 0 1 0 1
phys
0 104 140 104 0 0 1 10 0 1 0 1
0 136.837 148 104 0 0 1 10 0 1 0 1
0 104 148 104 0 0 1 10 0 1 0 1
phys
0 180.628 140 40 0 0 1 10 0 1 0 1
0 180.628 148 40 0 0 1 10 0 1 0 1
0 136.837 148 104 0 0 1 10 0 1 0 1
phys
0 180.628 140 40 0 0 1 10 0 1 0 1
0 136.837 148 104 0 0 1 10 0 1 0 1
0 136.837 140 104 0 0 1 10 0 1 0 1
phys
0 180.628 148 40 0 0 1 10 0 1 0 1
0 104 148 40 0 0 1 10 0 1 0 1
0 104 148 104 0 0 1 10 0 1 0 1
phys
0 180.628 148 40 0 0 1 10 0 1 0 1
0 104 148 104 0 0 1 10 0 1 0 1
0 136.837 148 104 0 0 1 10 0 1 0 1
phys
0 136.837 140 104 0 0 1 10 0 1 0 1
0 104 140 104 0 0 1 10 0 1 0 1
0 104 140 40 0 0 1 10 0 1 0 1
phys
0 136.837 140 104 0 0 1 10 0 1 0 1
0 104 140 40 0 0 1 10 0 1 0 1
0 180.628 140 40 0 0 1 10 0 1 0 1
phys
0 104 140 104 0 0 1 10 0 1 0 1
0 104 148 104 0 0 1 10 0 1 0 1
0 104 148 40 0 0 1 10 0 1 0 1
phys
0 104 140 104 0 0 1 10 0 1 0 1
0 104 148 40 0 0 1 10 0 1 0 1
0 104 140 40 0 0 1 10 0 1 0 1
phys
0 -88 -132 112 0 0 1 11 0 1 0 1
0 -88 -12 112 0 0 1 11 0 1 0 1
0 -88 -12 72 0 0 1 11 0 1 0 1
phys
0 -88 -132 112 0 0 1 11 0 1 0 1
0 -88 -12 72 0 0 1 11 0 1 0 1
0 -88 -132 72 0 0 1 11 0 1 0 1
phys
0 -56 -132 72 0 0 1 11 0 1 0 1
0 -56 -12 72 0 0 1 11 0 1 0 1
0 -56 -12 112 0 0 1 11 0 1 0 1
phys
0 -56 -132 72 0 0 1 11 0 1 0 1
0 -56 -12 112 0 0 1 11 0 1 0 1
0 -56 -132 112 0 0 1 11 0 1 0 1
phys
0 -88 -132 72 0 0 1 11 0 1 0 1
0 -88 -12 72 0 0 1 11 0 1 0 1
0 -56 -12 72 0 0 1 11 0 1 0 1
phys
0 -88 -132 72 0 0 1 11 0 1 0 1
0 -56 -12 72 0 0 1 11 0 1 0 1
0 -56 -132 72 0 0 1 11 0 1 0 1
phys
0 -56 -132 112 0 0 1 11 0 1 0 1
0 -56 -12 112 0 0 1 11 0 1 0 1
0 -88 -12 112 0 0 1 11 0 1 0 1
phys
0 -56 -132 112 0 0 1 11 0 1 0 1
0 -88 -12 112 0 0 1 11 0 1 0 1
0 -88 -132 112 0 0 1 11 0 1 0 1
phys
0 -56 -12 112 0 0 1 11 0 1 0 1
0 -56 -12 72 0 0 1 11 0 1 0 1
0 -88 -12 72 0 0 1 11 0 1 0 1
phys
0 -56 -12 112 0 0 1 11 0 1 0 1
0 -88 -12 72 0 0 1 11 0 1 0 1
0 -88 -12 112 0 0 1 11 0 1 0 1
phys
0 -56 -132 72 0 0 1 11 0 1 0 1
0 -56 -132 112 0 0 1 11 0 1 0 1
0 -88 -132 112 0 0 1 11 0 1 0 1
phys
0 -56 -132 72 0 0 1 11 0 1 0 1
0 -88 -132 112 0 0 1 11 0 1 0 1
0 -88 -132 72 0 0 1 11 0 1 0 1
phys
0 -142 -108 38 0 0 1 12 0 1 0 1
0 -142 -108 36 0 0 1 12 0 1 0 1
0 -148 -108 36 0 0 1 12 0 1 0 1
phys
0 -142 -108 38 0 0 1 12 0 1 0 1
0 -148 -108 36 0 0 1 12 0 1 0 1
0 -148 -108 38 0 0 1 12 0 1 0 1
phys
0 -142 -148 36 0 0 1 12 0 1 0 1
0 -142 -148 38 0 0 1 12 0 1 0 1
0 -148 -148 38 0 0 1 12 0 1 0 1
phys
0 -142 -148 36 0 0 1 12 0 1 0 1
0 -148 -148 38 0 0 1 12 0 1 0 1
0 -148 -148 36 0 0 1 12 0 1 0 1
phys
0 -148 -148 36 0 0 1 12 0 1 0 1
0 -148 -148 38 0 0 1 12 0 1 0 1
0 -148 -108 38 0 0 1 12 0 1 0 1
phys
0 -148 -148 36 0 0 1 12 0 1 0 1
0 -148 -108 38 0 0 1 12 0 1 0 1
0 -148 -108 36 0 0 1 12 0 1 0 1
phys
0 -142 -148 38 0 0 1 12 0 1 0 1
0 -142 -148 36 0 0 1 12 0 1 0 1
0 -142 -108 36 0 0 1 12 0 1 0 1
phys
0 -142 -148 38 0 0 1 12 0 1 0 1
0 -142 -108 36 0 0 1 12 0 1 0 1
0 -142 -108 38 0 0 1 12 0 1 0 1
phys
0 -142 -148 36 0 0 1 12 0 1 0 1
0 -148 -148 36 0 0 1 12 0 1 0 1
0 -148 -108 36 0 0 1 12 0 1 0 1
phys
0 -142 -148 36 0 0 1 12 0 1 0 1
0 -148 -108 36 0 0 1 12 0 1 0 1
0 -142 -108 36 0 0 1 12 0 1 0 1
phys
0 -148 -148 38 0 0 1 12 0 1 0 1
0 -142 -148 38 0 0 1 12 0 1 0 1
0 -142 -108 38 0 0 1 12 0 1 0 1
phys
0 -148 -148 38 0 0 1 12 0 1 0 1
0 -142 -108 38 0 0 1 12 0 1 0 1
0 -148 -108 38 0 0 1 12 0 1 0 1
phys
0 104 146 104 0 0 1 13 0 1 0 1
0 104 146 40 0 0 1 13 0 1 0 1
0 24 146 40 0 0 1 13 0 1 0 1
phys
0 104 146 104 0 0 1 13 0 1 0 1
0 24 146 40 0 0 1 13 0 1 0 1
0 24 146 104 0 0 1 13 0 1 0 1
phys
0 104 145 40 0 0 1 13 0 1 0 1
0 104 145 104 0 0 1 13 0 1 0 1
0 24 145 104 0 0 1 13 0 1 0 1
phys
0 104 145 40 0 0 1 13 0 1 0 1
0 24 145 104 0 0 1 13 0 1 0 1
0 24 145 40 0 0 1 13 0 1 0 1
phys
0 24 145 40 0 0 1 13 0 1 0 1
0 24 145 104 0 0 1 13 0 1 0 1
0 24 146 104 0 0 1 13 0 1 0 1
phys
0 24 145 40 0 0 1 13 0 1 0 1
0 24 146 104 0 0 1 13 0 1 0 1
0 24 146 40 0 0 1 13 0 1 0 1
phys
0 104 145 104 0 0 1 13 0 1 0 1
0 104 145 40 0 0 1 13 0 1 0 1
0 104 146 40 0 0 1 13 0 1 0 1
phys
0 104 145 104 0 0 1 13 0 1 0 1
0 104 146 40 0 0 1 13 0 1 0 1
0 104 146 104 0 0 1 13 0 1 0 1
phys
0 104 145 40 0 0 1 13 0 1 0 1
0 24 145 40 0 0 1 13 0 1 0 1
0 24 146 40 0 0 1 13 0 1 0 1
phys
0 104 145 40 0 0 1 13 0 1 0 1
0 24 146 40 0 0 1 13 0 1 0 1
0 104 146 40 0 0 1 13 0 1 0 1
phys
0 24 145 104 0 0 1 13 0 1 0 1
0 104 145 104 0 0 1 13 0 1 0 1
0 104 146 104 0 0 1 13 0 1 0 1
phys
0 24 145 104 0 0 1 13 0 1 0 1
0 104 146 104 0 0 1 13 0 1 0 1
0 24 146 104 0 0 1 13 0 1 0 1
phys
0 -56 -12 36 0 0 1 14 0 1 0 1
0 -56 -12 0 0 0 1 14 0 1 0 1
0 -88 -12 0 0 0 1 14 0 1 0 1
phys
0 -56 -12 36 0 0 1 14 0 1 0 1
0 -88 -12 0 0 0 1 14 0 1 0 1
0 -88 -12 36 0 0 1 14 0 1 0 1
phys
0 -56 -60 0 0 0 1 14 0 1 0 1
0 -56 -60 36 0 0 1 14 0 1 0 1
0 -88 -60 36 0 0 1 14 0 1 0 1
phys
0 -56 -60 0 0 0 1 14 0 1 0 1
0 -88 -60 36 0 0 1 14 0 1 0 1
0 -88 -60 0 0 0 1 14 0 1 0 1
phys
0 -88 -60 0 0 0 1 14 0 1 0 1
0 -88 -60 36 0 0 1 14 0 1 0 1
0 -88 -12 36 0 0 1 14 0 1 0 1
phys
0 -88 -60 0 0 0 1 14 0 1 0 1
0 -88 -12 36 0 0 1 14 0 1 0 1
0 -88 -12 0 0 0 1 14 0 1 0 1
phys
0 -56 -60 36 0 0 1 14 0 1 0 1
0 -56 -60 0 0 0 1 14 0 1 0 1
0 -56 -12 0 0 0 1 14 0 1 0 1
phys
0 -56 -60 36 0 0 1 14 0 1 0 1
0 -56 -12 0 0 0 1 14 0 1 0 1
0 -56 -12 36 0 0 1 14 0 1 0 1
phys
0 -56 -60 0 0 0 1 14 0 1 0 1
0 -88 -60 0 0 0 1 14 0 1 0 1
0 -88 -12 0 0 0 1 14 0 1 0 1
phys
0 -56 -60 0 0 0 1 14 0 1 0 1
0 -88 -12 0 0 0 1 14 0 1 0 1
0 -56 -12 0 0 0 1 14 0 1 0 1
phys
0 -88 -60 36 0 0 1 14 0 1 0 1
0 -56 -60 36 0 0 1 14 0 1 0 1
0 -56 -12 36 0 0 1 14 0 1 0 1
phys
0 -88 -60 36 0 0 1 14 0 1 0 1
0 -56 -12 36 0 0 1 14 0 1 0 1
0 -88 -12 36 0 0 1 14 0 1 0 1
end
