version 1
nodes
0 "root" -1
end
skeleton
time 0
0 0 0 0 0 0 0
end
triangles
phys
0 -65 151 10 0 0 1 1 0 1 0 1
0 -65 151 0 0 0 1 1 0 1 0 1
0 -159 151 0 0 0 1 1 0 1 0 1
phys
0 -65 151 10 0 0 1 1 0 1 0 1
0 -159 151 0 0 0 1 1 0 1 0 1
0 -159 151 10 0 0 1 1 0 1 0 1
phys
0 -65 -153 0 0 0 1 1 0 1 0 1
0 -65 -153 10 0 0 1 1 0 1 0 1
0 -159 -153 10 0 0 1 1 0 1 0 1
phys
0 -65 -153 0 0 0 1 1 0 1 0 1
0 -159 -153 10 0 0 1 1 0 1 0 1
0 -159 -153 0 0 0 1 1 0 1 0 1
phys
0 -159 -153 0 0 0 1 1 0 1 0 1
0 -159 -153 10 0 0 1 1 0 1 0 1
0 -159 151 10 0 0 1 1 0 1 0 1
phys
0 -159 -153 0 0 0 1 1 0 1 0 1
0 -159 151 10 0 0 1 1 0 1 0 1
0 -159 151 0 0 0 1 1 0 1 0 1
phys
0 -65 -153 10 0 0 1 1 0 1 0 1
0 -65 -153 0 0 0 1 1 0 1 0 1
0 -65 151 0 0 0 1 1 0 1 0 1
phys
0 -65 -153 10 0 0 1 1 0 1 0 1
0 -65 151 0 0 0 1 1 0 1 0 1
0 -65 151 10 0 0 1 1 0 1 0 1
phys
0 -65 -153 0 0 0 1 1 0 1 0 1
0 -159 -153 0 0 0 1 1 0 1 0 1
0 -159 151 0 0 0 1 1 0 1 0 1
phys
0 -65 -153 0 0 0 1 1 0 1 0 1
0 -159 151 0 0 0 1 1 0 1 0 1
0 -65 151 0 0 0 1 1 0 1 0 1
phys
0 -159 -153 10 0 0 1 1 0 1 0 1
0 -65 -153 10 0 0 1 1 0 1 0 1
0 -65 151 10 0 0 1 1 0 1 0 1
phys
0 -159 -153 10 0 0 1 1 0 1 0 1
0 -65 151 10 0 0 1 1 0 1 0 1
0 -159 151 10 0 0 1 1 0 1 0 1
phys
0 -23 159 288 0 0 1 2 0 1 0 1
0 -23 159 276 0 0 1 2 0 1 0 1
0 -139 159 276 0 0 1 2 0 1 0 1
phys
0 -23 159 288 0 0 1 2 0 1 0 1
0 -139 159 276 0 0 1 2 0 1 0 1
0 -139 159 288 0 0 1 2 0 1 0 1
phys
0 -23 149 276 0 0 1 2 0 1 0 1
0 -23 149 288 0 0 1 2 0 1 0 1
0 -139 149 288 0 0 1 2 0 1 0 1
phys
0 -23 149 276 0 0 1 2 0 1 0 1
0 -139 149 288 0 0 1 2 0 1 0 1
0 -139 149 276 0 0 1 2 0 1 0 1
phys
0 -139 149 276 0 0 1 2 0 1 0 1
0 -139 149 288 0 0 1 2 0 1 0 1
0 -139 159 288 0 0 1 2 0 1 0 1
phys
0 -139 149 276 0 0 1 2 0 1 0 1
0 -139 159 288 0 0 1 2 0 1 0 1
0 -139 159 276 0 0 1 2 0 1 0 1
phys
0 -23 149 288 0 0 1 2 0 1 0 1
0 -23 149 276 0 0 1 2 0 1 0 1
0 -23 159 276 0 0 1 2 0 1 0 1
phys
0 -23 149 288 0 0 1 2 0 1 0 1
0 -23 159 276 0 0 1 2 0 1 0 1
0 -23 159 288 0 0 1 2 0 1 0 1
phys
0 -23 149 276 0 0 1 2 0 1 0 1
0 -139 149 276 0 0 1 2 0 1 0 1
0 -139 159 276 0 0 1 2 0 1 0 1
phys
0 -23 149 276 0 0 1 2 0 1 0 1
0 -139 159 276 0 0 1 2 0 1 0 1
0 -23 159 276 0 0 1 2 0 1 0 1
phys
0 -139 149 288 0 0 1 2 0 1 0 1
0 -23 149 288 0 0 1 2 0 1 0 1
0 -23 159 288 0 0 1 2 0 1 0 1
phys
0 -139 149 288 0 0 1 2 0 1 0 1
0 -23 159 288 0 0 1 2 0 1 0 1
0 -139 159 288 0 0 1 2 0 1 0 1
phys
0 -23 159 244 0 0 1 3 0 1 0 1
0 -23 159 239 0 0 1 3 0 1 0 1
0 -139 159 239 0 0 1 3 0 1 0 1
phys
0 -23 159 244 0 0 1 3 0 1 0 1
0 -139 159 239 0 0 1 3 0 1 0 1
0 -139 159 244 0 0 1 3 0 1 0 1
phys
0 -23 149 239 0 0 1 3 0 1 0 1
0 -23 149 244 0 0 1 3 0 1 0 1
0 -139 149 244 0 0 1 3 0 1 0 1
phys
0 -23 149 239 0 0 1 3 0 1 0 1
0 -139 149 244 0 0 1 3 0 1 0 1
0 -139 149 239 0 0 1 3 0 1 0 1
phys
0 -139 149 239 0 0 1 3 0 1 0 1
0 -139 149 244 0 0 1 3 0 1 0 1
0 -139 159 244 0 0 1 3 0 1 0 1
phys
0 -139 149 239 0 0 1 3 0 1 0 1
0 -139 159 244 0 0 1 3 0 1 0 1
0 -139 159 239 0 0 1 3 0 1 0 1
phys
0 -23 149 244 0 0 1 3 0 1 0 1
0 -23 149 239 0 0 1 3 0 1 0 1
0 -23 159 239 0 0 1 3 0 1 0 1
phys
0 -23 149 244 0 0 1 3 0 1 0 1
0 -23 159 239 0 0 1 3 0 1 0 1
0 -23 159 244 0 0 1 3 0 1 0 1
phys
0 -23 149 239 0 0 1 3 0 1 0 1
0 -139 149 239 0 0 1 3 0 1 0 1
0 -139 159 239 0 0 1 3 0 1 0 1
phys
0 -23 149 239 0 0 1 3 0 1 0 1
0 -139 159 239 0 0 1 3 0 1 0 1
0 -23 159 239 0 0 1 3 0 1 0 1
phys
0 -139 149 244 0 0 1 3 0 1 0 1
0 -23 149 244 0 0 1 3 0 1 0 1
0 -23 159 244 0 0 1 3 0 1 0 1
phys
0 -139 149 244 0 0 1 3 0 1 0 1
0 -23 159 244 0 0 1 3 0 1 0 1
0 -139 159 244 0 0 1 3 0 1 0 1
phys
0 124 -153 109 0 0 1 4 0 1 0 1
0 124 -153 104 0 0 1 4 0 1 0 1
0 28 -153 104 0 0 1 4 0 1 0 1
phys
0 124 -153 109 0 0 1 4 0 1 0 1
0 28 -153 104 0 0 1 4 0 1 0 1
0 28 -153 109 0 0 1 4 0 1 0 1
phys
0 124 -163 104 0 0 1 4 0 1 0 1
0 124 -163 109 0 0 1 4 0 1 0 1
0 28 -163 109 0 0 1 4 0 1 0 1
phys
0 124 -163 104 0 0 1 4 0 1 0 1
0 28 -163 109 0 0 1 4 0 1 0 1
0 28 -163 104 0 0 1 4 0 1 0 1
phys
0 28 -163 104 0 0 1 4 0 1 0 1
0 28 -163 109 0 0 1 4 0 1 0 1
0 28 -153 109 0 0 1 4 0 1 0 1
phys
0 28 -163 104 0 0 1 4 0 1 0 1
0 28 -153 109 0 0 1 4 0 1 0 1
0 28 -153 104 0 0 1 4 0 1 0 1
phys
0 124 -163 109 0 0 1 4 0 1 0 1
0 124 -163 104 0 0 1 4 0 1 0 1
0 124 -153 104 0 0 1 4 0 1 0 1
phys
0 124 -163 109 0 0 1 4 0 1 0 1
0 124 -153 104 0 0 1 4 0 1 0 1
0 124 -153 109 0 0 1 4 0 1 0 1
phys
0 124 -163 104 0 0 1 4 0 1 0 1
0 28 -163 104 0 0 1 4 0 1 0 1
0 28 -153 104 0 0 1 4 0 1 0 1
phys
0 124 -163 104 0 0 1 4 0 1 0 1
0 28 -153 104 0 0 1 4 0 1 0 1
0 124 -153 104 0 0 1 4 0 1 0 1
phys
0 28 -163 109 0 0 1 4 0 1 0 1
0 124 -163 109 0 0 1 4 0 1 0 1
0 124 -153 109 0 0 1 4 0 1 0 1
phys
0 28 -163 109 0 0 1 4 0 1 0 1
0 124 -153 109 0 0 1 4 0 1 0 1
0 28 -153 109 0 0 1 4 0 1 0 1
phys
0 -88 -153 118 0 0 1 5 0 1 0 1
0 -136 -153 118 0 0 1 5 0 1 0 1
0 -140 -153 122 0 0 1 5 0 1 0 1
phys
0 -88 -153 118 0 0 1 5 0 1 0 1
0 -140 -153 122 0 0 1 5 0 1 0 1
0 -84 -153 122 0 0 1 5 0 1 0 1
phys
0 -84 -163 122 0 0 1 5 0 1 0 1
0 -140 -163 122 0 0 1 5 0 1 0 1
0 -136 -163 118 0 0 1 5 0 1 0 1
phys
0 -84 -163 122 0 0 1 5 0 1 0 1
0 -136 -163 118 0 0 1 5 0 1 0 1
0 -88 -163 118 0 0 1 5 0 1 0 1
phys
0 -88 -163 118 0 0 1 5 0 1 0 1
0 -136 -163 118 0 0 1 5 0 1 0 1
0 -136 -153 118 0 0 1 5 0 1 0 1
phys
0 -88 -163 118 0 0 1 5 0 1 0 1
0 -136 -153 118 0 0 1 5 0 1 0 1
0 -88 -153 118 0 0 1 5 0 1 0 1
phys
0 -140 -163 122 0 0 1 5 0 1 0 1
0 -84 -163 122 0 0 1 5 0 1 0 1
0 -84 -153 122 0 0 1 5 0 1 0 1
phys
0 -140 -163 122 0 0 1 5 0 1 0 1
0 -84 -153 122 0 0 1 5 0 1 0 1
0 -140 -153 122 0 0 1 5 0 1 0 1
phys
0 -84 -163 122 0 0 1 5 0 1 0 1
0 -88 -163 118 0 0 1 5 0 1 0 1
0 -88 -153 118 0 0 1 5 0 1 0 1
phys
0 -84 -163 122 0 0 1 5 0 1 0 1
0 -88 -153 118 0 0 1 5 0 1 0 1
0 -84 -153 122 0 0 1 5 0 1 0 1
phys
0 -136 -163 118 0 0 1 5 0 1 0 1
0 -140 -163 122 0 0 1 5 0 1 0 1
0 -140 -153 122 0 0 1 5 0 1 0 1
phys
0 -136 -163 118 0 0 1 5 0 1 0 1
0 -140 -153 122 0 0 1 5 0 1 0 1
0 -136 -153 118 0 0 1 5 0 1 0 1
phys
0 -23 159 207 0 0 1 6 0 1 0 1
0 -23 159 202 0 0 1 6 0 1 0 1
0 -139 159 202 0 0 1 6 0 1 0 1
phys
0 -23 159 207 0 0 1 6 0 1 0 1
0 -139 159 202 0 0 1 6 0 1 0 1
0 -139 159 207 0 0 1 6 0 1 0 1
phys
0 -23 149 202 0 0 1 6 0 1 0 1
0 -23 149 207 0 0 1 6 0 1 0 1
0 -139 149 207 0 0 1 6 0 1 0 1
phys
0 -23 149 202 0 0 1 6 0 1 0 1
0 -139 149 207 0 0 1 6 0 1 0 1
0 -139 149 202 0 0 1 6 0 1 0 1
phys
0 -139 149 202 0 0 1 6 0 1 0 1
0 -139 149 207 0 0 1 6 0 1 0 1
0 -139 159 207 0 0 1 6 0 1 0 1
phys
0 -139 149 202 0 0 1 6 0 1 0 1
0 -139 159 207 0 0 1 6 0 1 0 1
0 -139 159 202 0 0 1 6 0 1 0 1
phys
0 -23 149 207 0 0 1 6 0 1 0 1
0 -23 149 202 0 0 1 6 0 1 0 1
0 -23 159 202 0 0 1 6 0 1 0 1
phys
0 -23 149 207 0 0 1 6 0 1 0 1
0 -23 159 202 0 0 1 6 0 1 0 1
0 -23 159 207 0 0 1 6 0 1 0 1
phys
0 -23 149 202 0 0 1 6 0 1 0 1
0 -139 149 202 0 0 1 6 0 1 0 1
0 -139 159 202 0 0 1 6 0 1 0 1
phys
0 -23 149 202 0 0 1 6 0 1 0 1
0 -139 159 202 0 0 1 6 0 1 0 1
0 -23 159 202 0 0 1 6 0 1 0 1
phys
0 -139 149 207 0 0 1 6 0 1 0 1
0 -23 149 207 0 0 1 6 0 1 0 1
0 -23 159 207 0 0 1 6 0 1 0 1
phys
0 -139 149 207 0 0 1 6 0 1 0 1
0 -23 159 207 0 0 1 6 0 1 0 1
0 -139 159 207 0 0 1 6 0 1 0 1
phys
0 179 159 150 0 0 1 7 0 1 0 1
0 179 159 160 0 0 1 7 0 1 0 1
0 -179 159 160 0 0 1 7 0 1 0 1
phys
0 179 159 150 0 0 1 7 0 1 0 1
0 -179 159 160 0 0 1 7 0 1 0 1
0 -179 159 150 0 0 1 7 0 1 0 1
phys
0 -179 159 150 0 0 1 7 0 1 0 1
0 -179 159 160 0 0 1 7 0 1 0 1
0 -179 164 160 0 0 1 7 0 1 0 1
phys
0 -179 159 150 0 0 1 7 0 1 0 1
0 -179 164 160 0 0 1 7 0 1 0 1
0 -179 164 150 0 0 1 7 0 1 0 1
phys
0 179 159 160 0 0 1 7 0 1 0 1
0 179 159 150 0 0 1 7 0 1 0 1
0 179 164 150 0 0 1 7 0 1 0 1
phys
0 179 159 160 0 0 1 7 0 1 0 1
0 179 164 150 0 0 1 7 0 1 0 1
0 179 164 160 0 0 1 7 0 1 0 1
phys
0 179 159 150 0 0 1 7 0 1 0 1
0 -179 159 150 0 0 1 7 0 1 0 1
0 -179 164 150 0 0 1 7 0 1 0 1
phys
0 179 159 150 0 0 1 7 0 1 0 1
0 -179 164 150 0 0 1 7 0 1 0 1
0 179 164 150 0 0 1 7 0 1 0 1
phys
0 -179 159 160 0 0 1 7 0 1 0 1
0 179 159 160 0 0 1 7 0 1 0 1
0 179 164 160 0 0 1 7 0 1 0 1
phys
0 -179 159 160 0 0 1 7 0 1 0 1
0 179 164 160 0 0 1 7 0 1 0 1
0 -179 164 160 0 0 1 7 0 1 0 1
phys
0 179 164 160 0 0 1 7 0 1 0 1
0 179 164 150 0 0 1 7 0 1 0 1
0 -179 164 150 0 0 1 7 0 1 0 1
phys
0 179 164 160 0 0 1 7 0 1 0 1
0 -179 164 150 0 0 1 7 0 1 0 1
0 -179 164 160 0 0 1 7 0 1 0 1
phys
0 -23 159 170 0 0 1 8 0 1 0 1
0 -23 159 160 0 0 1 8 0 1 0 1
0 -139 159 160 0 0 1 8 0 1 0 1
phys
0 -23 159 170 0 0 1 8 0 1 0 1
0 -139 159 160 0 0 1 8 0 1 0 1
0 -139 159 170 0 0 1 8 0 1 0 1
phys
0 -23 149 160 0 0 1 8 0 1 0 1
0 -23 149 170 0 0 1 8 0 1 0 1
0 -139 149 170 0 0 1 8 0 1 0 1
phys
0 -23 149 160 0 0 1 8 0 1 0 1
0 -139 149 170 0 0 1 8 0 1 0 1
0 -139 149 160 0 0 1 8 0 1 0 1
phys
0 -139 149 160 0 0 1 8 0 1 0 1
0 -139 149 170 0 0 1 8 0 1 0 1
0 -139 159 170 0 0 1 8 0 1 0 1
phys
0 -139 149 160 0 0 1 8 0 1 0 1
0 -139 159 170 0 0 1 8 0 1 0 1
0 -139 159 160 0 0 1 8 0 1 0 1
phys
0 -23 149 170 0 0 1 8 0 1 0 1
0 -23 149 160 0 0 1 8 0 1 0 1
0 -23 159 160 0 0 1 8 0 1 0 1
phys
0 -23 149 170 0 0 1 8 0 1 0 1
0 -23 159 160 0 0 1 8 0 1 0 1
0 -23 159 170 0 0 1 8 0 1 0 1
phys
0 -23 149 160 0 0 1 8 0 1 0 1
0 -139 149 160 0 0 1 8 0 1 0 1
0 -139 159 160 0 0 1 8 0 1 0 1
phys
0 -23 149 160 0 0 1 8 0 1 0 1
0 -139 159 160 0 0 1 8 0 1 0 1
0 -23 159 160 0 0 1 8 0 1 0 1
phys
0 -139 149 170 0 0 1 8 0 1 0 1
0 -23 149 170 0 0 1 8 0 1 0 1
0 -23 159 170 0 0 1 8 0 1 0 1
phys
0 -139 149 170 0 0 1 8 0 1 0 1
0 -23 159 170 0 0 1 8 0 1 0 1
0 -139 159 170 0 0 1 8 0 1 0 1
phys
0 -57 159 0 0 0 1 9 0 1 0 1
0 -65 151 0 0 0 1 9 0 1 0 1
0 -159 151 0 0 0 1 9 0 1 0 1
phys
0 -57 159 0 0 0 1 9 0 1 0 1
0 -159 151 0 0 0 1 9 0 1 0 1
0 -159 159 0 0 0 1 9 0 1 0 1
phys
0 -159 151 5 0 0 1 9 0 1 0 1
0 -65 151 5 0 0 1 9 0 1 0 1
0 -57 159 5 0 0 1 9 0 1 0 1
phys
0 -159 151 5 0 0 1 9 0 1 0 1
0 -57 159 5 0 0 1 9 0 1 0 1
0 -159 159 5 0 0 1 9 0 1 0 1
phys
0 -65 151 0 0 0 1 9 0 1 0 1
0 -57 159 0 0 0 1 9 0 1 0 1
0 -57 159 5 0 0 1 9 0 1 0 1
phys
0 -65 151 0 0 0 1 9 0 1 0 1
0 -57 159 5 0 0 1 9 0 1 0 1
0 -65 151 5 0 0 1 9 0 1 0 1
phys
0 -57 159 0 0 0 1 9 0 1 0 1
0 -159 159 0 0 0 1 9 0 1 0 1
0 -159 159 5 0 0 1 9 0 1 0 1
phys
0 -57 159 0 0 0 1 9 0 1 0 1
0 -159 159 5 0 0 1 9 0 1 0 1
0 -57 159 5 0 0 1 9 0 1 0 1
phys
0 -65 151 5 0 0 1 9 0 1 0 1
0 -159 151 5 0 0 1 9 0 1 0 1
0 -159 151 0 0 0 1 9 0 1 0 1
phys
0 -65 151 5 0 0 1 9 0 1 0 1
0 -159 151 0 0 0 1 9 0 1 0 1
0 -65 151 0 0 0 1 9 0 1 0 1
phys
0 -159 151 5 0 0 1 9 0 1 0 1
0 -159 159 5 0 0 1 9 0 1 0 1
0 -159 159 0 0 0 1 9 0 1 0 1
phys
0 -159 151 5 0 0 1 9 0 1 0 1
0 -159 159 0 0 0 1 9 0 1 0 1
0 -159 151 0 0 0 1 9 0 1 0 1
phys
0 164 -126 288 0 0 1 10 0 1 0 1
0 164 -126 278 0 0 1 10 0 1 0 1
0 -169 -126 278 0 0 1 10 0 1 0 1
phys
0 164 -126 288 0 0 1 10 0 1 0 1
0 -169 -126 278 0 0 1 10 0 1 0 1
0 -169 -126 288 0 0 1 10 0 1 0 1
phys
0 164 -136 278 0 0 1 10 0 1 0 1
0 164 -136 288 0 0 1 10 0 1 0 1
0 -169 -136 288 0 0 1 10 0 1 0 1
phys
0 164 -136 278 0 0 1 10 0 1 0 1
0 -169 -136 288 0 0 1 10 0 1 0 1
0 -169 -136 278 0 0 1 10 0 1 0 1
phys
0 -169 -136 278 0 0 1 10 0 1 0 1
0 -169 -136 288 0 0 1 10 0 1 0 1
0 -169 -126 288 0 0 1 10 0 1 0 1
phys
0 -169 -136 278 0 0 1 10 0 1 0 1
0 -169 -126 288 0 0 1 10 0 1 0 1
0 -169 -126 278 0 0 1 10 0 1 0 1
phys
0 164 -136 288 0 0 1 10 0 1 0 1
0 164 -136 278 0 0 1 10 0 1 0 1
0 164 -126 278 0 0 1 10 0 1 0 1
phys
0 164 -136 288 0 0 1 10 0 1 0 1
0 164 -126 278 0 0 1 10 0 1 0 1
0 164 -126 288 0 0 1 10 0 1 0 1
phys
0 164 -136 278 0 0 1 10 0 1 0 1
0 -169 -136 278 0 0 1 10 0 1 0 1
0 -169 -126 278 0 0 1 10 0 1 0 1
phys
0 164 -136 278 0 0 1 10 0 1 0 1
0 -169 -126 278 0 0 1 10 0 1 0 1
0 164 -126 278 0 0 1 10 0 1 0 1
phys
0 -169 -136 288 0 0 1 10 0 1 0 1
0 164 -136 288 0 0 1 10 0 1 0 1
0 164 -126 288 0 0 1 10 0 1 0 1
phys
0 -169 -136 288 0 0 1 10 0 1 0 1
0 164 -126 288 0 0 1 10 0 1 0 1
0 -169 -126 288 0 0 1 10 0 1 0 1
phys
0 174 -133 150 0 0 1 11 0 1 0 1
0 174 -133 0 0 0 1 11 0 1 0 1
0 154 -133 0 0 0 1 11 0 1 0 1
phys
0 174 -133 150 0 0 1 11 0 1 0 1
0 154 -133 0 0 0 1 11 0 1 0 1
0 154 -133 150 0 0 1 11 0 1 0 1
phys
0 174 -153 0 0 0 1 11 0 1 0 1
0 174 -153 150 0 0 1 11 0 1 0 1
0 154 -153 150 0 0 1 11 0 1 0 1
phys
0 174 -153 0 0 0 1 11 0 1 0 1
0 154 -153 150 0 0 1 11 0 1 0 1
0 154 -153 0 0 0 1 11 0 1 0 1
phys
0 154 -153 0 0 0 1 11 0 1 0 1
0 154 -153 150 0 0 1 11 0 1 0 1
0 154 -133 150 0 0 1 11 0 1 0 1
phys
0 154 -153 0 0 0 1 11 0 1 0 1
0 154 -133 150 0 0 1 11 0 1 0 1
0 154 -133 0 0 0 1 11 0 1 0 1
phys
0 174 -153 150 0 0 1 11 0 1 0 1
0 174 -153 0 0 0 1 11 0 1 0 1
0 174 -133 0 0 0 1 11 0 1 0 1
phys
0 174 -153 150 0 0 1 11 0 1 0 1
0 174 -133 0 0 0 1 11 0 1 0 1
0 174 -133 150 0 0 1 11 0 1 0 1
phys
0 174 -153 0 0 0 1 11 0 1 0 1
0 154 -153 0 0 0 1 11 0 1 0 1
0 154 -133 0 0 0 1 11 0 1 0 1
phys
0 174 -153 0 0 0 1 11 0 1 0 1
0 154 -133 0 0 0 1 11 0 1 0 1
0 174 -133 0 0 0 1 11 0 1 0 1
phys
0 154 -153 150 0 0 1 11 0 1 0 1
0 174 -153 150 0 0 1 11 0 1 0 1
0 174 -133 150 0 0 1 11 0 1 0 1
phys
0 154 -153 150 0 0 1 11 0 1 0 1
0 174 -133 150 0 0 1 11 0 1 0 1
0 154 -133 150 0 0 1 11 0 1 0 1
phys
0 174 119 150 0 0 1 12 0 1 0 1
0 174 119 134.003 0 0 1 12 0 1 0 1
0 170 119 130 0 0 1 12 0 1 0 1
phys
0 174 119 150 0 0 1 12 0 1 0 1
0 170 119 130 0 0 1 12 0 1 0 1
0 158 119 130 0 0 1 12 0 1 0 1
phys
0 174 119 150 0 0 1 12 0 1 0 1
0 158 119 130 0 0 1 12 0 1 0 1
0 154 119 133.997 0 0 1 12 0 1 0 1
phys
0 174 119 150 0 0 1 12 0 1 0 1
0 154 119 133.997 0 0 1 12 0 1 0 1
0 154 119 150 0 0 1 12 0 1 0 1
phys
0 174 -133 134.003 0 0 1 12 0 1 0 1
0 174 -133 150 0 0 1 12 0 1 0 1
0 154 -133 150 0 0 1 12 0 1 0 1
phys
0 174 -133 134.003 0 0 1 12 0 1 0 1
0 154 -133 150 0 0 1 12 0 1 0 1
0 154 -133 133.997 0 0 1 12 0 1 0 1
phys
0 174 -133 134.003 0 0 1 12 0 1 0 1
0 154 -133 133.997 0 0 1 12 0 1 0 1
0 158 -133 130 0 0 1 12 0 1 0 1
phys
0 174 -133 134.003 0 0 1 12 0 1 0 1
0 158 -133 130 0 0 1 12 0 1 0 1
0 170 -133 130 0 0 1 12 0 1 0 1
phys
0 154 -133 133.997 0 0 1 12 0 1 0 1
0 154 -133 150 0 0 1 12 0 1 0 1
0 154 119 150 0 0 1 12 0 1 0 1
phys
0 154 -133 133.997 0 0 1 12 0 1 0 1
0 154 119 150 0 0 1 12 0 1 0 1
0 154 119 133.997 0 0 1 12 0 1 0 1
phys
0 174 -133 150 0 0 1 12 0 1 0 1
0 174 -133 134.003 0 0 1 12 0 1 0 1
0 174 119 134.003 0 0 1 12 0 1 0 1
phys
0 174 -133 150 0 0 1 12 0 1 0 1
0 174 119 134.003 0 0 1 12 0 1 0 1
0 174 119 150 0 0 1 12 0 1 0 1
phys
0 170 -133 130 0 0 1 12 0 1 0 1
0 158 -133 130 0 0 1 12 0 1 0 1
0 158 119 130 0 0 1 12 0 1 0 1
phys
0 170 -133 130 0 0 1 12 0 1 0 1
0 158 119 130 0 0 1 12 0 1 0 1
0 170 119 130 0 0 1 12 0 1 0 1
phys
0 154 -133 150 0 0 1 12 0 1 0 1
0 174 -133 150 0 0 1 12 0 1 0 1
0 174 119 150 0 0 1 12 0 1 0 1
phys
0 154 -133 150 0 0 1 12 0 1 0 1
0 174 119 150 0 0 1 12 0 1 0 1
0 154 119 150 0 0 1 12 0 1 0 1
phys
0 158 -133 130 0 0 1 12 0 1 0 1
0 154 -133 133.997 0 0 1 12 0 1 0 1
0 154 119 133.997 0 0 1 12 0 1 0 1
phys
0 158 -133 130 0 0 1 12 0 1 0 1
0 154 119 133.997 0 0 1 12 0 1 0 1
0 158 119 130 0 0 1 12 0 1 0 1
phys
0 174 -133 134.003 0 0 1 12 0 1 0 1
0 170 -133 130 0 0 1 12 0 1 0 1
0 170 119 130 0 0 1 12 0 1 0 1
phys
0 174 -133 134.003 0 0 1 12 0 1 0 1
0 170 119 130 0 0 1 12 0 1 0 1
0 174 119 134.003 0 0 1 12 0 1 0 1
phys
0 124 -153 72 0 0 1 13 0 1 0 1
0 124 -153 67 0 0 1 13 0 1 0 1
0 28 -153 67 0 0 1 13 0 1 0 1
phys
0 124 -153 72 0 0 1 13 0 1 0 1
0 28 -153 67 0 0 1 13 0 1 0 1
0 28 -153 72 0 0 1 13 0 1 0 1
phys
0 124 -163 67 0 0 1 13 0 1 0 1
0 124 -163 72 0 0 1 13 0 1 0 1
0 28 -163 72 0 0 1 13 0 1 0 1
phys
0 124 -163 67 0 0 1 13 0 1 0 1
0 28 -163 72 0 0 1 13 0 1 0 1
0 28 -163 67 0 0 1 13 0 1 0 1
phys
0 28 -163 67 0 0 1 13 0 1 0 1
0 28 -163 72 0 0 1 13 0 1 0 1
0 28 -153 72 0 0 1 13 0 1 0 1
phys
0 28 -163 67 0 0 1 13 0 1 0 1
0 28 -153 72 0 0 1 13 0 1 0 1
0 28 -153 67 0 0 1 13 0 1 0 1
phys
0 124 -163 72 0 0 1 13 0 1 0 1
0 124 -163 67 0 0 1 13 0 1 0 1
0 124 -153 67 0 0 1 13 0 1 0 1
phys
0 124 -163 72 0 0 1 13 0 1 0 1
0 124 -153 67 0 0 1 13 0 1 0 1
0 124 -153 72 0 0 1 13 0 1 0 1
phys
0 124 -163 67 0 0 1 13 0 1 0 1
0 28 -163 67 0 0 1 13 0 1 0 1
0 28 -153 67 0 0 1 13 0 1 0 1
phys
0 124 -163 67 0 0 1 13 0 1 0 1
0 28 -153 67 0 0 1 13 0 1 0 1
0 124 -153 67 0 0 1 13 0 1 0 1
phys
0 28 -163 72 0 0 1 13 0 1 0 1
0 124 -163 72 0 0 1 13 0 1 0 1
0 124 -153 72 0 0 1 13 0 1 0 1
phys
0 28 -163 72 0 0 1 13 0 1 0 1
0 124 -153 72 0 0 1 13 0 1 0 1
0 28 -153 72 0 0 1 13 0 1 0 1
phys
0 164 49 288 0 0 1 14 0 1 0 1
0 164 49 278 0 0 1 14 0 1 0 1
0 -169 49 278 0 0 1 14 0 1 0 1
phys
0 164 49 288 0 0 1 14 0 1 0 1
0 -169 49 278 0 0 1 14 0 1 0 1
0 -169 49 288 0 0 1 14 0 1 0 1
phys
0 164 39 278 0 0 1 14 0 1 0 1
0 164 39 288 0 0 1 14 0 1 0 1
0 -169 39 288 0 0 1 14 0 1 0 1
phys
0 164 39 278 0 0 1 14 0 1 0 1
0 -169 39 288 0 0 1 14 0 1 0 1
0 -169 39 278 0 0 1 14 0 1 0 1
phys
0 -169 39 278 0 0 1 14 0 1 0 1
0 -169 39 288 0 0 1 14 0 1 0 1
0 -169 49 288 0 0 1 14 0 1 0 1
phys
0 -169 39 278 0 0 1 14 0 1 0 1
0 -169 49 288 0 0 1 14 0 1 0 1
0 -169 49 278 0 0 1 14 0 1 0 1
phys
0 164 39 288 0 0 1 14 0 1 0 1
0 164 39 278 0 0 1 14 0 1 0 1
0 164 49 278 0 0 1 14 0 1 0 1
phys
0 164 39 288 0 0 1 14 0 1 0 1
0 164 49 278 0 0 1 14 0 1 0 1
0 164 49 288 0 0 1 14 0 1 0 1
phys
0 164 39 278 0 0 1 14 0 1 0 1
0 -169 39 278 0 0 1 14 0 1 0 1
0 -169 49 278 0 0 1 14 0 1 0 1
phys
0 164 39 278 0 0 1 14 0 1 0 1
0 -169 49 278 0 0 1 14 0 1 0 1
0 164 49 278 0 0 1 14 0 1 0 1
phys
0 -169 39 288 0 0 1 14 0 1 0 1
0 164 39 288 0 0 1 14 0 1 0 1
0 164 49 288 0 0 1 14 0 1 0 1
phys
0 -169 39 288 0 0 1 14 0 1 0 1
0 164 49 288 0 0 1 14 0 1 0 1
0 -169 49 288 0 0 1 14 0 1 0 1
phys
0 1 139 150 0 0 1 15 0 1 0 1
0 1 139 142.006 0 0 1 15 0 1 0 1
0 -55 139 142.006 0 0 1 15 0 1 0 1
phys
0 1 139 150 0 0 1 15 0 1 0 1
0 -55 139 142.006 0 0 1 15 0 1 0 1
0 -55 139 150 0 0 1 15 0 1 0 1
phys
0 1 -153 130 0 0 1 15 0 1 0 1
0 1 -153 150 0 0 1 15 0 1 0 1
0 -55 -153 150 0 0 1 15 0 1 0 1
phys
0 1 -153 130 0 0 1 15 0 1 0 1
0 -55 -153 150 0 0 1 15 0 1 0 1
0 -55 -153 130 0 0 1 15 0 1 0 1
phys
0 -55 -153 130 0 0 1 15 0 1 0 1
0 -55 -153 150 0 0 1 15 0 1 0 1
0 -55 139 150 0 0 1 15 0 1 0 1
phys
0 -55 -153 130 0 0 1 15 0 1 0 1
0 -55 139 150 0 0 1 15 0 1 0 1
0 -55 139 142.006 0 0 1 15 0 1 0 1
phys
0 -55 -153 130 0 0 1 15 0 1 0 1
0 -55 139 142.006 0 0 1 15 0 1 0 1
0 -55 -7.08 130 0 0 1 15 0 1 0 1
phys
0 1 -153 150 0 0 1 15 0 1 0 1
0 1 -153 130 0 0 1 15 0 1 0 1
0 1 -7.08 130 0 0 1 15 0 1 0 1
phys
0 1 -153 150 0 0 1 15 0 1 0 1
0 1 -7.08 130 0 0 1 15 0 1 0 1
0 1 139 142.006 0 0 1 15 0 1 0 1
phys
0 1 -153 150 0 0 1 15 0 1 0 1
0 1 139 142.006 0 0 1 15 0 1 0 1
0 1 139 150 0 0 1 15 0 1 0 1
phys
0 1 -153 130 0 0 1 15 0 1 0 1
0 -55 -153 130 0 0 1 15 0 1 0 1
0 -55 -7.08 130 0 0 1 15 0 1 0 1
phys
0 1 -153 130 0 0 1 15 0 1 0 1
0 -55 -7.08 130 0 0 1 15 0 1 0 1
0 1 -7.08 130 0 0 1 15 0 1 0 1
phys
0 -55 -153 150 0 0 1 15 0 1 0 1
0 1 -153 150 0 0 1 15 0 1 0 1
0 1 139 150 0 0 1 15 0 1 0 1
phys
0 -55 -153 150 0 0 1 15 0 1 0 1
0 1 139 150 0 0 1 15 0 1 0 1
0 -55 139 150 0 0 1 15 0 1 0 1
phys
0 -55 -7.08 130 0 0 1 15 0 1 0 1
0 -55 139 142.006 0 0 1 15 0 1 0 1
0 1 139 142.006 0 0 1 15 0 1 0 1
phys
0 -55 -7.08 130 0 0 1 15 0 1 0 1
0 1 139 142.006 0 0 1 15 0 1 0 1
0 1 -7.08 130 0 0 1 15 0 1 0 1
phys
0 134 149 276 0 0 1 16 0 1 0 1
0 134 159 276 0 0 1 16 0 1 0 1
0 134 159 288 0 0 1 16 0 1 0 1
phys
0 134 149 276 0 0 1 16 0 1 0 1
0 134 159 288 0 0 1 16 0 1 0 1
0 134 149 288 0 0 1 16 0 1 0 1
phys
0 18 159 276 0 0 1 16 0 1 0 1
0 134 159 276 0 0 1 16 0 1 0 1
0 134 149 276 0 0 1 16 0 1 0 1
phys
0 18 159 276 0 0 1 16 0 1 0 1
0 134 149 276 0 0 1 16 0 1 0 1
0 18 149 276 0 0 1 16 0 1 0 1
phys
0 18 149 288 0 0 1 16 0 1 0 1
0 134 149 288 0 0 1 16 0 1 0 1
0 134 159 288 0 0 1 16 0 1 0 1
phys
0 18 149 288 0 0 1 16 0 1 0 1
0 134 159 288 0 0 1 16 0 1 0 1
0 18 159 288 0 0 1 16 0 1 0 1
phys
0 134 159 288 0 0 1 16 0 1 0 1
0 134 159 276 0 0 1 16 0 1 0 1
0 18 159 276 0 0 1 16 0 1 0 1
phys
0 134 159 288 0 0 1 16 0 1 0 1
0 18 159 276 0 0 1 16 0 1 0 1
0 18 159 288 0 0 1 16 0 1 0 1
phys
0 134 149 276 0 0 1 16 0 1 0 1
0 134 149 288 0 0 1 16 0 1 0 1
0 18 149 288 0 0 1 16 0 1 0 1
phys
0 134 149 276 0 0 1 16 0 1 0 1
0 18 149 288 0 0 1 16 0 1 0 1
0 18 149 276 0 0 1 16 0 1 0 1
phys
0 18 149 288 0 0 1 16 0 1 0 1
0 18 159 288 0 0 1 16 0 1 0 1
0 18 159 276 0 0 1 16 0 1 0 1
phys
0 18 149 288 0 0 1 16 0 1 0 1
0 18 159 276 0 0 1 16 0 1 0 1
0 18 149 276 0 0 1 16 0 1 0 1
phys
0 174 119 0 0 0 1 17 0 1 0 1
0 174 159 0 0 0 1 17 0 1 0 1
0 174 159 45 0 0 1 17 0 1 0 1
phys
0 174 119 0 0 0 1 17 0 1 0 1
0 174 159 45 0 0 1 17 0 1 0 1
0 174 119 45 0 0 1 17 0 1 0 1
phys
0 154 159 0 0 0 1 17 0 1 0 1
0 174 159 0 0 0 1 17 0 1 0 1
0 174 119 0 0 0 1 17 0 1 0 1
phys
0 154 159 0 0 0 1 17 0 1 0 1
0 174 119 0 0 0 1 17 0 1 0 1
0 154 119 0 0 0 1 17 0 1 0 1
phys
0 154 119 45 0 0 1 17 0 1 0 1
0 174 119 45 0 0 1 17 0 1 0 1
0 174 159 45 0 0 1 17 0 1 0 1
phys
0 154 119 45 0 0 1 17 0 1 0 1
0 174 159 45 0 0 1 17 0 1 0 1
0 154 159 45 0 0 1 17 0 1 0 1
phys
0 174 159 45 0 0 1 17 0 1 0 1
0 174 159 0 0 0 1 17 0 1 0 1
0 154 159 0 0 0 1 17 0 1 0 1
phys
0 174 159 45 0 0 1 17 0 1 0 1
0 154 159 0 0 0 1 17 0 1 0 1
0 154 159 45 0 0 1 17 0 1 0 1
phys
0 174 119 0 0 0 1 17 0 1 0 1
0 174 119 45 0 0 1 17 0 1 0 1
0 154 119 45 0 0 1 17 0 1 0 1
phys
0 174 119 0 0 0 1 17 0 1 0 1
0 154 119 45 0 0 1 17 0 1 0 1
0 154 119 0 0 0 1 17 0 1 0 1
phys
0 154 119 45 0 0 1 17 0 1 0 1
0 154 159 45 0 0 1 17 0 1 0 1
0 154 159 0 0 0 1 17 0 1 0 1
phys
0 154 119 45 0 0 1 17 0 1 0 1
0 154 159 0 0 0 1 17 0 1 0 1
0 154 119 0 0 0 1 17 0 1 0 1
phys
0 124 -163 141 0 0 1 18 0 1 0 1
0 124 -163 150 0 0 1 18 0 1 0 1
0 28 -163 150 0 0 1 18 0 1 0 1
phys
0 124 -163 141 0 0 1 18 0 1 0 1
0 28 -163 150 0 0 1 18 0 1 0 1
0 28 -163 141 0 0 1 18 0 1 0 1
phys
0 28 -163 141 0 0 1 18 0 1 0 1
0 28 -163 150 0 0 1 18 0 1 0 1
0 28 -153 150 0 0 1 18 0 1 0 1
phys
0 28 -163 141 0 0 1 18 0 1 0 1
0 28 -153 150 0 0 1 18 0 1 0 1
0 28 -153 141 0 0 1 18 0 1 0 1
phys
0 124 -163 150 0 0 1 18 0 1 0 1
0 124 -163 141 0 0 1 18 0 1 0 1
0 124 -153 141 0 0 1 18 0 1 0 1
phys
0 124 -163 150 0 0 1 18 0 1 0 1
0 124 -153 141 0 0 1 18 0 1 0 1
0 124 -153 150 0 0 1 18 0 1 0 1
phys
0 124 -163 141 0 0 1 18 0 1 0 1
0 28 -163 141 0 0 1 18 0 1 0 1
0 28 -153 141 0 0 1 18 0 1 0 1
phys
0 124 -163 141 0 0 1 18 0 1 0 1
0 28 -153 141 0 0 1 18 0 1 0 1
0 124 -153 141 0 0 1 18 0 1 0 1
phys
0 28 -163 150 0 0 1 18 0 1 0 1
0 124 -163 150 0 0 1 18 0 1 0 1
0 124 -153 150 0 0 1 18 0 1 0 1
phys
0 28 -163 150 0 0 1 18 0 1 0 1
0 124 -153 150 0 0 1 18 0 1 0 1
0 28 -153 150 0 0 1 18 0 1 0 1
phys
0 124 -153 150 0 0 1 18 0 1 0 1
0 124 -153 141 0 0 1 18 0 1 0 1
0 28 -153 141 0 0 1 18 0 1 0 1
phys
0 124 -153 150 0 0 1 18 0 1 0 1
0 28 -153 141 0 0 1 18 0 1 0 1
0 28 -153 150 0 0 1 18 0 1 0 1
phys
0 134 159 244 0 0 1 19 0 1 0 1
0 134 159 239 0 0 1 19 0 1 0 1
0 18 159 239 0 0 1 19 0 1 0 1
phys
0 134 159 244 0 0 1 19 0 1 0 1
0 18 159 239 0 0 1 19 0 1 0 1
0 18 159 244 0 0 1 19 0 1 0 1
phys
0 134 149 239 0 0 1 19 0 1 0 1
0 134 149 244 0 0 1 19 0 1 0 1
0 18 149 244 0 0 1 19 0 1 0 1
phys
0 134 149 239 0 0 1 19 0 1 0 1
0 18 149 244 0 0 1 19 0 1 0 1
0 18 149 239 0 0 1 19 0 1 0 1
phys
0 18 149 239 0 0 1 19 0 1 0 1
0 18 149 244 0 0 1 19 0 1 0 1
0 18 159 244 0 0 1 19 0 1 0 1
phys
0 18 149 239 0 0 1 19 0 1 0 1
0 18 159 244 0 0 1 19 0 1 0 1
0 18 159 239 0 0 1 19 0 1 0 1
phys
0 134 149 244 0 0 1 19 0 1 0 1
0 134 149 239 0 0 1 19 0 1 0 1
0 134 159 239 0 0 1 19 0 1 0 1
phys
0 134 149 244 0 0 1 19 0 1 0 1
0 134 159 239 0 0 1 19 0 1 0 1
0 134 159 244 0 0 1 19 0 1 0 1
phys
0 134 149 239 0 0 1 19 0 1 0 1
0 18 149 239 0 0 1 19 0 1 0 1
0 18 159 239 0 0 1 19 0 1 0 1
phys
0 134 149 239 0 0 1 19 0 1 0 1
0 18 159 239 0 0 1 19 0 1 0 1
0 134 159 239 0 0 1 19 0 1 0 1
phys
0 18 149 244 0 0 1 19 0 1 0 1
0 134 149 244 0 0 1 19 0 1 0 1
0 134 159 244 0 0 1 19 0 1 0 1
phys
0 18 149 244 0 0 1 19 0 1 0 1
0 134 159 244 0 0 1 19 0 1 0 1
0 18 159 244 0 0 1 19 0 1 0 1
phys
0 -179 159 298 0 0 1 20 0 1 0 1
0 179 159 298 0 0 1 20 0 1 0 1
0 179 164 298 0 0 1 20 0 1 0 1
phys
0 -179 159 298 0 0 1 20 0 1 0 1
0 179 164 298 0 0 1 20 0 1 0 1
0 -179 164 298 0 0 1 20 0 1 0 1
phys
0 -179 164 288 0 0 1 20 0 1 0 1
0 -179 164 298 0 0 1 20 0 1 0 1
0 179 164 298 0 0 1 20 0 1 0 1
phys
0 -179 164 288 0 0 1 20 0 1 0 1
0 179 164 298 0 0 1 20 0 1 0 1
0 179 164 288 0 0 1 20 0 1 0 1
phys
0 179 159 288 0 0 1 20 0 1 0 1
0 179 159 298 0 0 1 20 0 1 0 1
0 -179 159 298 0 0 1 20 0 1 0 1
phys
0 179 159 288 0 0 1 20 0 1 0 1
0 -179 159 298 0 0 1 20 0 1 0 1
0 -179 159 288 0 0 1 20 0 1 0 1
phys
0 -179 159 288 0 0 1 20 0 1 0 1
0 -179 159 298 0 0 1 20 0 1 0 1
0 -179 164 298 0 0 1 20 0 1 0 1
phys
0 -179 159 288 0 0 1 20 0 1 0 1
0 -179 164 298 0 0 1 20 0 1 0 1
0 -179 164 288 0 0 1 20 0 1 0 1
phys
0 179 164 288 0 0 1 20 0 1 0 1
0 179 164 298 0 0 1 20 0 1 0 1
0 179 159 298 0 0 1 20 0 1 0 1
phys
0 179 164 288 0 0 1 20 0 1 0 1
0 179 159 298 0 0 1 20 0 1 0 1
0 179 159 288 0 0 1 20 0 1 0 1
phys
0 179 159 288 0 0 1 20 0 1 0 1
0 -179 159 288 0 0 1 20 0 1 0 1
0 -179 164 288 0 0 1 20 0 1 0 1
phys
0 179 159 288 0 0 1 20 0 1 0 1
0 -179 164 288 0 0 1 20 0 1 0 1
0 179 164 288 0 0 1 20 0 1 0 1
phys
0 134 159 170 0 0 1 21 0 1 0 1
0 134 159 160 0 0 1 21 0 1 0 1
0 18 159 160 0 0 1 21 0 1 0 1
phys
0 134 159 170 0 0 1 21 0 1 0 1
0 18 159 160 0 0 1 21 0 1 0 1
0 18 159 170 0 0 1 21 0 1 0 1
phys
0 134 149 160 0 0 1 21 0 1 0 1
0 134 149 170 0 0 1 21 0 1 0 1
0 18 149 170 0 0 1 21 0 1 0 1
phys
0 134 149 160 0 0 1 21 0 1 0 1
0 18 149 170 0 0 1 21 0 1 0 1
0 18 149 160 0 0 1 21 0 1 0 1
phys
0 18 149 160 0 0 1 21 0 1 0 1
0 18 149 170 0 0 1 21 0 1 0 1
0 18 159 170 0 0 1 21 0 1 0 1
phys
0 18 149 160 0 0 1 21 0 1 0 1
0 18 159 170 0 0 1 21 0 1 0 1
0 18 159 160 0 0 1 21 0 1 0 1
phys
0 134 149 170 0 0 1 21 0 1 0 1
0 134 149 160 0 0 1 21 0 1 0 1
0 134 159 160 0 0 1 21 0 1 0 1
phys
0 134 149 170 0 0 1 21 0 1 0 1
0 134 159 160 0 0 1 21 0 1 0 1
0 134 159 170 0 0 1 21 0 1 0 1
phys
0 134 149 160 0 0 1 21 0 1 0 1
0 18 149 160 0 0 1 21 0 1 0 1
0 18 159 160 0 0 1 21 0 1 0 1
phys
0 134 149 160 0 0 1 21 0 1 0 1
0 18 159 160 0 0 1 21 0 1 0 1
0 134 159 160 0 0 1 21 0 1 0 1
phys
0 18 149 170 0 0 1 21 0 1 0 1
0 134 149 170 0 0 1 21 0 1 0 1
0 134 159 170 0 0 1 21 0 1 0 1
phys
0 18 149 170 0 0 1 21 0 1 0 1
0 134 159 170 0 0 1 21 0 1 0 1
0 18 159 170 0 0 1 21 0 1 0 1
phys
0 -57 -153 0 0 0 1 22 0 1 0 1
0 -57 -153 5 0 0 1 22 0 1 0 1
0 -65 -153 5 0 0 1 22 0 1 0 1
phys
0 -57 -153 0 0 0 1 22 0 1 0 1
0 -65 -153 5 0 0 1 22 0 1 0 1
0 -65 -153 0 0 0 1 22 0 1 0 1
phys
0 -65 -153 0 0 0 1 22 0 1 0 1
0 -65 -153 5 0 0 1 22 0 1 0 1
0 -65 151 5 0 0 1 22 0 1 0 1
phys
0 -65 -153 0 0 0 1 22 0 1 0 1
0 -65 151 5 0 0 1 22 0 1 0 1
0 -65 151 0 0 0 1 22 0 1 0 1
phys
0 -57 -153 5 0 0 1 22 0 1 0 1
0 -57 -153 0 0 0 1 22 0 1 0 1
0 -57 159 0 0 0 1 22 0 1 0 1
phys
0 -57 -153 5 0 0 1 22 0 1 0 1
0 -57 159 0 0 0 1 22 0 1 0 1
0 -57 159 5 0 0 1 22 0 1 0 1
phys
0 -57 -153 0 0 0 1 22 0 1 0 1
0 -65 -153 0 0 0 1 22 0 1 0 1
0 -65 151 0 0 0 1 22 0 1 0 1
phys
0 -57 -153 0 0 0 1 22 0 1 0 1
0 -65 151 0 0 0 1 22 0 1 0 1
0 -57 159 0 0 0 1 22 0 1 0 1
phys
0 -65 -153 5 0 0 1 22 0 1 0 1
0 -57 -153 5 0 0 1 22 0 1 0 1
0 -57 159 5 0 0 1 22 0 1 0 1
phys
0 -65 -153 5 0 0 1 22 0 1 0 1
0 -57 159 5 0 0 1 22 0 1 0 1
0 -65 151 5 0 0 1 22 0 1 0 1
phys
0 -65 151 0 0 0 1 22 0 1 0 1
0 -65 151 5 0 0 1 22 0 1 0 1
0 -57 159 5 0 0 1 22 0 1 0 1
phys
0 -65 151 0 0 0 1 22 0 1 0 1
0 -57 159 5 0 0 1 22 0 1 0 1
0 -57 159 0 0 0 1 22 0 1 0 1
phys
0 174 159 150 0 0 1 23 0 1 0 1
0 174 159 49 0 0 1 23 0 1 0 1
0 154 159 49 0 0 1 23 0 1 0 1
phys
0 174 159 150 0 0 1 23 0 1 0 1
0 154 159 49 0 0 1 23 0 1 0 1
0 154 159 150 0 0 1 23 0 1 0 1
phys
0 174 119 49 0 0 1 23 0 1 0 1
0 174 119 150 0 0 1 23 0 1 0 1
0 154 119 150 0 0 1 23 0 1 0 1
phys
0 174 119 49 0 0 1 23 0 1 0 1
0 154 119 150 0 0 1 23 0 1 0 1
0 154 119 49 0 0 1 23 0 1 0 1
phys
0 154 119 49 0 0 1 23 0 1 0 1
0 154 119 150 0 0 1 23 0 1 0 1
0 154 159 150 0 0 1 23 0 1 0 1
phys
0 154 119 49 0 0 1 23 0 1 0 1
0 154 159 150 0 0 1 23 0 1 0 1
0 154 159 49 0 0 1 23 0 1 0 1
phys
0 174 119 150 0 0 1 23 0 1 0 1
0 174 119 49 0 0 1 23 0 1 0 1
0 174 159 49 0 0 1 23 0 1 0 1
phys
0 174 119 150 0 0 1 23 0 1 0 1
0 174 159 49 0 0 1 23 0 1 0 1
0 174 159 150 0 0 1 23 0 1 0 1
phys
0 174 119 49 0 0 1 23 0 1 0 1
0 154 119 49 0 0 1 23 0 1 0 1
0 154 159 49 0 0 1 23 0 1 0 1
phys
0 174 119 49 0 0 1 23 0 1 0 1
0 154 159 49 0 0 1 23 0 1 0 1
0 174 159 49 0 0 1 23 0 1 0 1
phys
0 154 119 150 0 0 1 23 0 1 0 1
0 174 119 150 0 0 1 23 0 1 0 1
0 174 159 150 0 0 1 23 0 1 0 1
phys
0 154 119 150 0 0 1 23 0 1 0 1
0 174 159 150 0 0 1 23 0 1 0 1
0 154 159 150 0 0 1 23 0 1 0 1
phys
0 164 149 298 0 0 1 24 0 1 0 1
0 164 149 313 0 0 1 24 0 1 0 1
0 -169 149 313 0 0 1 24 0 1 0 1
phys
0 164 149 298 0 0 1 24 0 1 0 1
0 -169 149 313 0 0 1 24 0 1 0 1
0 -169 149 298 0 0 1 24 0 1 0 1
phys
0 -169 149 298 0 0 1 24 0 1 0 1
0 -169 149 313 0 0 1 24 0 1 0 1
0 -169 159 313 0 0 1 24 0 1 0 1
phys
0 -169 149 298 0 0 1 24 0 1 0 1
0 -169 159 313 0 0 1 24 0 1 0 1
0 -169 159 298 0 0 1 24 0 1 0 1
phys
0 164 149 313 0 0 1 24 0 1 0 1
0 164 149 298 0 0 1 24 0 1 0 1
0 164 159 298 0 0 1 24 0 1 0 1
phys
0 164 149 313 0 0 1 24 0 1 0 1
0 164 159 298 0 0 1 24 0 1 0 1
0 164 159 313 0 0 1 24 0 1 0 1
phys
0 164 149 298 0 0 1 24 0 1 0 1
0 -169 149 298 0 0 1 24 0 1 0 1
0 -169 159 298 0 0 1 24 0 1 0 1
phys
0 164 149 298 0 0 1 24 0 1 0 1
0 -169 159 298 0 0 1 24 0 1 0 1
0 164 159 298 0 0 1 24 0 1 0 1
phys
0 -169 149 313 0 0 1 24 0 1 0 1
0 164 149 313 0 0 1 24 0 1 0 1
0 164 159 313 0 0 1 24 0 1 0 1
phys
0 -169 149 313 0 0 1 24 0 1 0 1
0 164 159 313 0 0 1 24 0 1 0 1
0 -169 159 313 0 0 1 24 0 1 0 1
phys
0 164 159 313 0 0 1 24 0 1 0 1
0 164 159 298 0 0 1 24 0 1 0 1
0 -169 159 298 0 0 1 24 0 1 0 1
phys
0 164 159 313 0 0 1 24 0 1 0 1
0 -169 159 298 0 0 1 24 0 1 0 1
0 -169 159 313 0 0 1 24 0 1 0 1
phys
0 -3 -124 3 0 0 1 25 0 1 0 1
0 105 -124 3 0 0 1 25 0 1 0 1
0 105 -121 5 0 0 1 25 0 1 0 1
phys
0 -3 -124 3 0 0 1 25 0 1 0 1
0 105 -121 5 0 0 1 25 0 1 0 1
0 -3 -121 5 0 0 1 25 0 1 0 1
phys
0 -3 -116 0 0 0 1 25 0 1 0 1
0 -3 -116 3 0 0 1 25 0 1 0 1
0 105 -116 3 0 0 1 25 0 1 0 1
phys
0 -3 -116 0 0 0 1 25 0 1 0 1
0 105 -116 3 0 0 1 25 0 1 0 1
0 105 -116 0 0 0 1 25 0 1 0 1
phys
0 105 -124 0 0 0 1 25 0 1 0 1
0 105 -124 3 0 0 1 25 0 1 0 1
0 -3 -124 3 0 0 1 25 0 1 0 1
phys
0 105 -124 0 0 0 1 25 0 1 0 1
0 -3 -124 3 0 0 1 25 0 1 0 1
0 -3 -124 0 0 0 1 25 0 1 0 1
phys
0 -3 -124 0 0 0 1 25 0 1 0 1
0 -3 -124 3 0 0 1 25 0 1 0 1
0 -3 -121 5 0 0 1 25 0 1 0 1
phys
0 -3 -124 0 0 0 1 25 0 1 0 1
0 -3 -121 5 0 0 1 25 0 1 0 1
0 -3 -119 5 0 0 1 25 0 1 0 1
phys
0 -3 -124 0 0 0 1 25 0 1 0 1
0 -3 -119 5 0 0 1 25 0 1 0 1
0 -3 -116 3 0 0 1 25 0 1 0 1
phys
0 -3 -124 0 0 0 1 25 0 1 0 1
0 -3 -116 3 0 0 1 25 0 1 0 1
0 -3 -116 0 0 0 1 25 0 1 0 1
phys
0 105 -116 0 0 0 1 25 0 1 0 1
0 105 -116 3 0 0 1 25 0 1 0 1
0 105 -119 5 0 0 1 25 0 1 0 1
phys
0 105 -116 0 0 0 1 25 0 1 0 1
0 105 -119 5 0 0 1 25 0 1 0 1
0 105 -121 5 0 0 1 25 0 1 0 1
phys
0 105 -116 0 0 0 1 25 0 1 0 1
0 105 -121 5 0 0 1 25 0 1 0 1
0 105 -124 3 0 0 1 25 0 1 0 1
phys
0 105 -116 0 0 0 1 25 0 1 0 1
0 105 -124 3 0 0 1 25 0 1 0 1
0 105 -124 0 0 0 1 25 0 1 0 1
phys
0 105 -124 0 0 0 1 25 0 1 0 1
0 -3 -124 0 0 0 1 25 0 1 0 1
0 -3 -116 0 0 0 1 25 0 1 0 1
phys
0 105 -124 0 0 0 1 25 0 1 0 1
0 -3 -116 0 0 0 1 25 0 1 0 1
0 105 -116 0 0 0 1 25 0 1 0 1
phys
0 -3 -121 5 0 0 1 25 0 1 0 1
0 105 -121 5 0 0 1 25 0 1 0 1
0 105 -119 5 0 0 1 25 0 1 0 1
phys
0 -3 -121 5 0 0 1 25 0 1 0 1
0 105 -119 5 0 0 1 25 0 1 0 1
0 -3 -119 5 0 0 1 25 0 1 0 1
phys
0 105 -119 5 0 0 1 25 0 1 0 1
0 105 -116 3 0 0 1 25 0 1 0 1
0 -3 -116 3 0 0 1 25 0 1 0 1
phys
0 105 -119 5 0 0 1 25 0 1 0 1
0 -3 -116 3 0 0 1 25 0 1 0 1
0 -3 -119 5 0 0 1 25 0 1 0 1
phys
0 172 157 49 0 0 1 26 0 1 0 1
0 172 157 45 0 0 1 26 0 1 0 1
0 156 157 45 0 0 1 26 0 1 0 1
phys
0 172 157 49 0 0 1 26 0 1 0 1
0 156 157 45 0 0 1 26 0 1 0 1
0 156 157 49 0 0 1 26 0 1 0 1
phys
0 172 121 45 0 0 1 26 0 1 0 1
0 172 121 49 0 0 1 26 0 1 0 1
0 156 121 49 0 0 1 26 0 1 0 1
phys
0 172 121 45 0 0 1 26 0 1 0 1
0 156 121 49 0 0 1 26 0 1 0 1
0 156 121 45 0 0 1 26 0 1 0 1
phys
0 156 121 45 0 0 1 26 0 1 0 1
0 156 121 49 0 0 1 26 0 1 0 1
0 156 157 49 0 0 1 26 0 1 0 1
phys
0 156 121 45 0 0 1 26 0 1 0 1
0 156 157 49 0 0 1 26 0 1 0 1
0 156 157 45 0 0 1 26 0 1 0 1
phys
0 172 121 49 0 0 1 26 0 1 0 1
0 172 121 45 0 0 1 26 0 1 0 1
0 172 157 45 0 0 1 26 0 1 0 1
phys
0 172 121 49 0 0 1 26 0 1 0 1
0 172 157 45 0 0 1 26 0 1 0 1
0 172 157 49 0 0 1 26 0 1 0 1
phys
0 172 121 45 0 0 1 26 0 1 0 1
0 156 121 45 0 0 1 26 0 1 0 1
0 156 157 45 0 0 1 26 0 1 0 1
phys
0 172 121 45 0 0 1 26 0 1 0 1
0 156 157 45 0 0 1 26 0 1 0 1
0 172 157 45 0 0 1 26 0 1 0 1
phys
0 156 121 49 0 0 1 26 0 1 0 1
0 172 121 49 0 0 1 26 0 1 0 1
0 172 157 49 0 0 1 26 0 1 0 1
phys
0 156 121 49 0 0 1 26 0 1 0 1
0 172 157 49 0 0 1 26 0 1 0 1
0 156 157 49 0 0 1 26 0 1 0 1
phys
0 134 159 207 0 0 1 27 0 1 0 1
0 134 159 202 0 0 1 27 0 1 0 1
0 18 159 202 0 0 1 27 0 1 0 1
phys
0 134 159 207 0 0 1 27 0 1 0 1
0 18 159 202 0 0 1 27 0 1 0 1
0 18 159 207 0 0 1 27 0 1 0 1
phys
0 134 149 202 0 0 1 27 0 1 0 1
0 134 149 207 0 0 1 27 0 1 0 1
0 18 149 207 0 0 1 27 0 1 0 1
phys
0 134 149 202 0 0 1 27 0 1 0 1
0 18 149 207 0 0 1 27 0 1 0 1
0 18 149 202 0 0 1 27 0 1 0 1
phys
0 18 149 202 0 0 1 27 0 1 0 1
0 18 149 207 0 0 1 27 0 1 0 1
0 18 159 207 0 0 1 27 0 1 0 1
phys
0 18 149 202 0 0 1 27 0 1 0 1
0 18 159 207 0 0 1 27 0 1 0 1
0 18 159 202 0 0 1 27 0 1 0 1
phys
0 134 149 207 0 0 1 27 0 1 0 1
0 134 149 202 0 0 1 27 0 1 0 1
0 134 159 202 0 0 1 27 0 1 0 1
phys
0 134 149 207 0 0 1 27 0 1 0 1
0 134 159 202 0 0 1 27 0 1 0 1
0 134 159 207 0 0 1 27 0 1 0 1
phys
0 134 149 202 0 0 1 27 0 1 0 1
0 18 149 202 0 0 1 27 0 1 0 1
0 18 159 202 0 0 1 27 0 1 0 1
phys
0 134 149 202 0 0 1 27 0 1 0 1
0 18 159 202 0 0 1 27 0 1 0 1
0 134 159 202 0 0 1 27 0 1 0 1
phys
0 18 149 207 0 0 1 27 0 1 0 1
0 134 149 207 0 0 1 27 0 1 0 1
0 134 159 207 0 0 1 27 0 1 0 1
phys
0 18 149 207 0 0 1 27 0 1 0 1
0 134 159 207 0 0 1 27 0 1 0 1
0 18 159 207 0 0 1 27 0 1 0 1
phys
0 -88 -163 118.026 0 0 1 28 0 1 0 1
0 -88 -153 118.016 0 0 1 28 0 1 0 1
0 -88 -153 10 0 0 1 28 0 1 0 1
phys
0 -88 -163 118.026 0 0 1 28 0 1 0 1
0 -88 -153 10 0 0 1 28 0 1 0 1
0 -88 -163 10 0 0 1 28 0 1 0 1
phys
0 -84 -163 10 0 0 1 28 0 1 0 1
0 -84 -153 10 0 0 1 28 0 1 0 1
0 -84 -153 122.018 0 0 1 28 0 1 0 1
phys
0 -84 -163 10 0 0 1 28 0 1 0 1
0 -84 -153 122.018 0 0 1 28 0 1 0 1
0 -84 -163 122.028 0 0 1 28 0 1 0 1
phys
0 -88 -163 10 0 0 1 28 0 1 0 1
0 -88 -153 10 0 0 1 28 0 1 0 1
0 -84 -153 10 0 0 1 28 0 1 0 1
phys
0 -88 -163 10 0 0 1 28 0 1 0 1
0 -84 -153 10 0 0 1 28 0 1 0 1
0 -84 -163 10 0 0 1 28 0 1 0 1
phys
0 -84 -163 122.028 0 0 1 28 0 1 0 1
0 -84 -153 122.018 0 0 1 28 0 1 0 1
0 -88 -153 118.016 0 0 1 28 0 1 0 1
phys
0 -84 -163 122.028 0 0 1 28 0 1 0 1
0 -88 -153 118.016 0 0 1 28 0 1 0 1
0 -88 -163 118.026 0 0 1 28 0 1 0 1
phys
0 -84 -153 122.018 0 0 1 28 0 1 0 1
0 -84 -153 10 0 0 1 28 0 1 0 1
0 -88 -153 10 0 0 1 28 0 1 0 1
phys
0 -84 -153 122.018 0 0 1 28 0 1 0 1
0 -88 -153 10 0 0 1 28 0 1 0 1
0 -88 -153 118.016 0 0 1 28 0 1 0 1
phys
0 -84 -163 10 0 0 1 28 0 1 0 1
0 -84 -163 122.028 0 0 1 28 0 1 0 1
0 -88 -163 118.026 0 0 1 28 0 1 0 1
phys
0 -84 -163 10 0 0 1 28 0 1 0 1
0 -88 -163 118.026 0 0 1 28 0 1 0 1
0 -88 -163 10 0 0 1 28 0 1 0 1
phys
0 154 139 134 0 0 1 29 0 1 0 1
0 154 139 150 0 0 1 29 0 1 0 1
0 -159 139 150 0 0 1 29 0 1 0 1
phys
0 154 139 134 0 0 1 29 0 1 0 1
0 -159 139 150 0 0 1 29 0 1 0 1
0 -159 139 134 0 0 1 29 0 1 0 1
phys
0 -159 139 134 0 0 1 29 0 1 0 1
0 -159 139 150 0 0 1 29 0 1 0 1
0 -159 159 150 0 0 1 29 0 1 0 1
phys
0 -159 139 134 0 0 1 29 0 1 0 1
0 -159 159 150 0 0 1 29 0 1 0 1
0 -159 159 134 0 0 1 29 0 1 0 1
phys
0 -159 139 134 0 0 1 29 0 1 0 1
0 -159 159 134 0 0 1 29 0 1 0 1
0 -159 155 130 0 0 1 29 0 1 0 1
phys
0 -159 139 134 0 0 1 29 0 1 0 1
0 -159 155 130 0 0 1 29 0 1 0 1
0 -159 143 130 0 0 1 29 0 1 0 1
phys
0 154 139 150 0 0 1 29 0 1 0 1
0 154 139 134 0 0 1 29 0 1 0 1
0 154 143 130 0 0 1 29 0 1 0 1
phys
0 154 139 150 0 0 1 29 0 1 0 1
0 154 143 130 0 0 1 29 0 1 0 1
0 154 155 130 0 0 1 29 0 1 0 1
phys
0 154 139 150 0 0 1 29 0 1 0 1
0 154 155 130 0 0 1 29 0 1 0 1
0 154 159 134 0 0 1 29 0 1 0 1
phys
0 154 139 150 0 0 1 29 0 1 0 1
0 154 159 134 0 0 1 29 0 1 0 1
0 154 159 150 0 0 1 29 0 1 0 1
phys
0 -159 143 130 0 0 1 29 0 1 0 1
0 -159 155 130 0 0 1 29 0 1 0 1
0 154 155 130 0 0 1 29 0 1 0 1
phys
0 -159 143 130 0 0 1 29 0 1 0 1
0 154 155 130 0 0 1 29 0 1 0 1
0 154 143 130 0 0 1 29 0 1 0 1
phys
0 -159 139 150 0 0 1 29 0 1 0 1
0 154 139 150 0 0 1 29 0 1 0 1
0 154 159 150 0 0 1 29 0 1 0 1
phys
0 -159 139 150 0 0 1 29 0 1 0 1
0 154 159 150 0 0 1 29 0 1 0 1
0 -159 159 150 0 0 1 29 0 1 0 1
phys
0 154 139 134 0 0 1 29 0 1 0 1
0 -159 139 134 0 0 1 29 0 1 0 1
0 -159 143 130 0 0 1 29 0 1 0 1
phys
0 154 139 134 0 0 1 29 0 1 0 1
0 -159 143 130 0 0 1 29 0 1 0 1
0 154 143 130 0 0 1 29 0 1 0 1
phys
0 -159 155 130 0 0 1 29 0 1 0 1
0 -159 159 134 0 0 1 29 0 1 0 1
0 154 159 134 0 0 1 29 0 1 0 1
phys
0 -159 155 130 0 0 1 29 0 1 0 1
0 154 159 134 0 0 1 29 0 1 0 1
0 154 155 130 0 0 1 29 0 1 0 1
phys
0 154 159 150 0 0 1 29 0 1 0 1
0 154 159 134 0 0 1 29 0 1 0 1
0 -159 159 134 0 0 1 29 0 1 0 1
phys
0 154 159 150 0 0 1 29 0 1 0 1
0 -159 159 134 0 0 1 29 0 1 0 1
0 -159 159 150 0 0 1 29 0 1 0 1
end
