version 1
nodes
0 "root" -1
end
skeleton
time 0
0 0 0 0 0 0 0
end
triangles
pepsi2_arch_concrete_stair01
0 -65 151 10 0 1 0 -91.451172 -0.9375 1 0 1
0 -65 151 0 0 1 0 -91.451172 -1.015625 1 0 1
0 -159 151 0 0 1 0 -92.185547 -1.015625 1 0 1
pepsi2_arch_concrete_stair01
0 -65 151 10 0 1 0 -91.451172 -0.9375 1 0 1
0 -159 151 0 0 1 0 -92.185547 -1.015625 1 0 1
0 -159 151 10 0 1 0 -92.185547 -0.9375 1 0 1
pepsi2_arch_concrete_stair01
0 -159 -153 0 -1 0 0 23.439453 -1.015625 1 0 1
0 -159 -153 10 -1 0 0 23.439453 -0.9375 1 0 1
0 -159 151 10 -1 0 0 25.814453 -0.9375 1 0 1
pepsi2_arch_concrete_stair01
0 -159 -153 0 -1 0 0 23.439453 -1.015625 1 0 1
0 -159 151 10 -1 0 0 25.814453 -0.9375 1 0 1
0 -159 151 0 -1 0 0 25.814453 -1.015625 1 0 1
pepsi2_arch_concrete_stair01
0 -65 -153 10 1 0 0 -24.076172 -0.9375 1 0 1
0 -65 -153 0 1 0 0 -24.076172 -1.015625 1 0 1
0 -65 151 0 1 0 0 -26.451172 -1.015625 1 0 1
pepsi2_arch_concrete_stair01
0 -65 -153 10 1 0 0 -24.076172 -0.9375 1 0 1
0 -65 151 0 1 0 0 -26.451172 -1.015625 1 0 1
0 -65 151 10 1 0 0 -26.451172 -0.9375 1 0 1
pepsi2_arch_concrete_floor_smooth01
0 -159 -153 10 0 0 1 91.867188 -22.3125 1 0 1
0 -65 -153 10 0 0 1 91.132812 -22.3125 1 0 1
0 -65 151 10 0 0 1 91.132812 -24.6875 1 0 1
pepsi2_arch_concrete_floor_smooth01
0 -159 -153 10 0 0 1 91.867188 -22.3125 1 0 1
0 -65 151 10 0 0 1 91.132812 -24.6875 1 0 1
0 -159 151 10 0 0 1 91.867188 -24.6875 1 0 1
pepsi2_arch_concrete_wall01
0 -23 159 288 0 1 0 -50.383464 0.995009 1 0 1
0 -23 159 276 0 1 0 -50.383464 0.942925 1 0 1
0 -139 159 276 0 1 0 -50.886936 0.942925 1 0 1
pepsi2_arch_concrete_wall01
0 -23 159 288 0 1 0 -50.383464 0.995009 1 0 1
0 -139 159 276 0 1 0 -50.886936 0.942925 1 0 1
0 -139 159 288 0 1 0 -50.886936 0.995009 1 0 1
pepsi2_arch_concrete_wall01
0 -23 149 276 0 -1 0 1.314453 91.886719 1 0 1
0 -23 149 288 0 -1 0 1.220703 91.886719 1 0 1
0 -139 149 288 0 -1 0 1.220703 92.792969 1 0 1
pepsi2_arch_concrete_wall01
0 -23 149 276 0 -1 0 1.314453 91.886719 1 0 1
0 -139 149 288 0 -1 0 1.220703 92.792969 1 0 1
0 -139 149 276 0 -1 0 1.314453 92.792969 1 0 1
pepsi2_arch_concrete_wall01
0 -23 159 244 0 1 0 -50.383464 0.804036 1 0 1
0 -23 159 239 0 1 0 -50.383464 0.782335 1 0 1
0 -139 159 239 0 1 0 -50.886936 0.782335 1 0 1
pepsi2_arch_concrete_wall01
0 -23 159 244 0 1 0 -50.383464 0.804036 1 0 1
0 -139 159 239 0 1 0 -50.886936 0.782335 1 0 1
0 -139 159 244 0 1 0 -50.886936 0.804036 1 0 1
pepsi2_arch_concrete_wall01
0 -23 149 239 0 -1 0 1.603516 91.886719 1 0 1
0 -23 149 244 0 -1 0 1.564453 91.886719 1 0 1
0 -139 149 244 0 -1 0 1.564453 92.792969 1 0 1
pepsi2_arch_concrete_wall01
0 -23 149 239 0 -1 0 1.603516 91.886719 1 0 1
0 -139 149 244 0 -1 0 1.564453 92.792969 1 0 1
0 -139 149 239 0 -1 0 1.603516 92.792969 1 0 1
pepsi2_arch_concrete_wall01
0 124 -153 109 0 1 0 50.001302 0.218099 1 0 1
0 124 -153 104 0 1 0 50.001302 0.196398 1 0 1
0 28 -153 104 0 1 0 50.417969 0.196398 1 0 1
pepsi2_arch_concrete_wall01
0 124 -153 109 0 1 0 50.001302 0.218099 1 0 1
0 28 -153 104 0 1 0 50.417969 0.196398 1 0 1
0 28 -153 109 0 1 0 50.417969 0.218099 1 0 1
pepsi2_arch_concrete_wall01
0 124 -163 104 0 -1 0 3.064453 90.738281 1 0 1
0 124 -163 109 0 -1 0 3.025391 90.738281 1 0 1
0 28 -163 109 0 -1 0 3.025391 91.488281 1 0 1
pepsi2_arch_concrete_wall01
0 124 -163 104 0 -1 0 3.064453 90.738281 1 0 1
0 28 -163 109 0 -1 0 3.025391 91.488281 1 0 1
0 28 -163 104 0 -1 0 3.064453 91.488281 1 0 1
bridge_se1_metal_flat_steel_01
0 -88 -153 118 0 1 0 152.051432 -1.744141 1 0 1
0 -136 -153 118 0 1 0 152.676432 -1.744141 1 0 1
0 -140 -153 122 0 1 0 152.728516 -1.692057 1 0 1
bridge_se1_metal_flat_steel_01
0 -88 -153 118 0 1 0 152.051432 -1.744141 1 0 1
0 -140 -153 122 0 1 0 152.728516 -1.692057 1 0 1
0 -84 -153 122 0 1 0 151.999349 -1.692057 1 0 1
bridge_se1_metal_flat_steel_01
0 -84 -163 122 0 -1 0 151.999349 -1.692057 1 0 1
0 -140 -163 122 0 -1 0 152.728516 -1.692057 1 0 1
0 -136 -163 118 0 -1 0 152.676432 -1.744141 1 0 1
bridge_se1_metal_flat_steel_01
0 -84 -163 122 0 -1 0 151.999349 -1.692057 1 0 1
0 -136 -163 118 0 -1 0 152.676432 -1.744141 1 0 1
0 -88 -163 118 0 -1 0 152.051432 -1.744141 1 0 1
bridge_se1_metal_flat_steel_01
0 -88 -163 118 0 0 -1 152.051432 40.125651 1 0 1
0 -136 -163 118 0 0 -1 152.676432 40.125651 1 0 1
0 -136 -153 118 0 0 -1 152.676432 40.255859 1 0 1
bridge_se1_metal_flat_steel_01
0 -88 -163 118 0 0 -1 152.051432 40.125651 1 0 1
0 -136 -153 118 0 0 -1 152.676432 40.255859 1 0 1
0 -88 -153 118 0 0 -1 152.051432 40.255859 1 0 1
pepsi2_arch_concrete_wall01
0 -23 159 207 0 1 0 -50.383464 0.643446 1 0 1
0 -23 159 202 0 1 0 -50.383464 0.621745 1 0 1
0 -139 159 202 0 1 0 -50.886936 0.621745 1 0 1
pepsi2_arch_concrete_wall01
0 -23 159 207 0 1 0 -50.383464 0.643446 1 0 1
0 -139 159 202 0 1 0 -50.886936 0.621745 1 0 1
0 -139 159 207 0 1 0 -50.886936 0.643446 1 0 1
pepsi2_arch_concrete_wall01
0 -23 149 202 0 -1 0 1.892578 91.886719 1 0 1
0 -23 149 207 0 -1 0 1.853516 91.886719 1 0 1
0 -139 149 207 0 -1 0 1.853516 92.792969 1 0 1
pepsi2_arch_concrete_wall01
0 -23 149 202 0 -1 0 1.892578 91.886719 1 0 1
0 -139 149 207 0 -1 0 1.853516 92.792969 1 0 1
0 -139 149 202 0 -1 0 1.892578 92.792969 1 0 1
bridge_se1_metal_flat_steel_01
0 179 159 160 1 0 0 -43.662109 -1.265625 1 0 1
0 179 159 150 1 0 0 -43.662109 -1.395833 1 0 1
0 179 164 150 1 0 0 -43.727214 -1.395833 1 0 1
bridge_se1_metal_flat_steel_01
0 179 159 160 1 0 0 -43.662109 -1.265625 1 0 1
0 179 164 150 1 0 0 -43.727214 -1.395833 1 0 1
0 179 164 160 1 0 0 -43.727214 -1.265625 1 0 1
bridge_se1_metal_flat_steel_01
0 179 159 150 0 0 -1 -43.662109 149.877604 1 0 1
0 -179 159 150 0 0 -1 -43.662109 154.539062 1 0 1
0 -179 164 150 0 0 -1 -43.727214 154.539062 1 0 1
bridge_se1_metal_flat_steel_01
0 179 159 150 0 0 -1 -43.662109 149.877604 1 0 1
0 -179 164 150 0 0 -1 -43.727214 154.539062 1 0 1
0 179 164 150 0 0 -1 -43.727214 149.877604 1 0 1
bridge_se1_metal_flat_steel_01
0 -179 159 160 0 0 1 -43.662109 -152.201172 1 0 1
0 179 159 160 0 0 1 -43.662109 -147.539714 1 0 1
0 179 164 160 0 0 1 -43.727214 -147.539714 1 0 1
bridge_se1_metal_flat_steel_01
0 -179 159 160 0 0 1 -43.662109 -152.201172 1 0 1
0 179 164 160 0 0 1 -43.727214 -147.539714 1 0 1
0 -179 164 160 0 0 1 -43.727214 -152.201172 1 0 1
bridge_se1_metal_flat_steel_01
0 179 164 160 0 1 0 148.547526 -1.265625 1 0 1
0 179 164 150 0 1 0 148.547526 -1.395833 1 0 1
0 -179 164 150 0 1 0 153.208984 -1.395833 1 0 1
bridge_se1_metal_flat_steel_01
0 179 164 160 0 1 0 148.547526 -1.265625 1 0 1
0 -179 164 150 0 1 0 153.208984 -1.395833 1 0 1
0 -179 164 160 0 1 0 153.208984 -1.265625 1 0 1
pepsi2_arch_concrete_wall01
0 -23 159 170 0 1 0 -50.383464 0.482856 1 0 1
0 -23 159 160 0 1 0 -50.383464 0.439453 1 0 1
0 -139 159 160 0 1 0 -50.886936 0.439453 1 0 1
pepsi2_arch_concrete_wall01
0 -23 159 170 0 1 0 -50.383464 0.482856 1 0 1
0 -139 159 160 0 1 0 -50.886936 0.439453 1 0 1
0 -139 159 170 0 1 0 -50.886936 0.482856 1 0 1
pepsi2_arch_concrete_wall01
0 -23 149 160 0 -1 0 2.220703 91.886719 1 0 1
0 -23 149 170 0 -1 0 2.142578 91.886719 1 0 1
0 -139 149 170 0 -1 0 2.142578 92.792969 1 0 1
pepsi2_arch_concrete_wall01
0 -23 149 160 0 -1 0 2.220703 91.886719 1 0 1
0 -139 149 170 0 -1 0 2.142578 92.792969 1 0 1
0 -139 149 160 0 -1 0 2.220703 92.792969 1 0 1
pepsi2_arch_concrete_stair01
0 -159 151 5 0 0 1 -92.060547 -24.873047 1 0 1
0 -65 151 5 0 0 1 -91.326172 -24.873047 1 0 1
0 -57 159 5 0 0 1 -91.263672 -24.935547 1 0 1
pepsi2_arch_concrete_stair01
0 -159 151 5 0 0 1 -92.060547 -24.873047 1 0 1
0 -57 159 5 0 0 1 -91.263672 -24.935547 1 0 1
0 -159 159 5 0 0 1 -92.060547 -24.935547 1 0 1
pepsi2_arch_concrete_stair01
0 -57 159 0 0 1 0 -91.263672 -0.974609 1 0 1
0 -159 159 0 0 1 0 -92.060547 -0.974609 1 0 1
0 -159 159 5 0 1 0 -92.060547 -0.935547 1 0 1
pepsi2_arch_concrete_stair01
0 -57 159 0 0 1 0 -91.263672 -0.974609 1 0 1
0 -159 159 5 0 1 0 -92.060547 -0.935547 1 0 1
0 -57 159 5 0 1 0 -91.263672 -0.935547 1 0 1
bridge_se1_metal_flat_steel_01
0 164 -126 288 0 1 0 -149.332682 1.714193 1 0 1
0 164 -126 278 0 1 0 -149.332682 1.844401 1 0 1
0 -169 -126 278 0 1 0 -153.66862 1.844401 1 0 1
bridge_se1_metal_flat_steel_01
0 164 -126 288 0 1 0 -149.332682 1.714193 1 0 1
0 -169 -126 278 0 1 0 -153.66862 1.844401 1 0 1
0 -169 -126 288 0 1 0 -153.66862 1.714193 1 0 1
bridge_se1_metal_flat_steel_01
0 164 -136 278 0 -1 0 -149.332682 -0.026042 1 0 1
0 164 -136 288 0 -1 0 -149.332682 0.104167 1 0 1
0 -169 -136 288 0 -1 0 -153.66862 0.104167 1 0 1
bridge_se1_metal_flat_steel_01
0 164 -136 278 0 -1 0 -149.332682 -0.026042 1 0 1
0 -169 -136 288 0 -1 0 -153.66862 0.104167 1 0 1
0 -169 -136 278 0 -1 0 -153.66862 -0.026042 1 0 1
bridge_se1_metal_flat_steel_01
0 164 -136 278 0 0 -1 -149.332682 -39.026042 1 0 1
0 -169 -136 278 0 0 -1 -153.66862 -39.026042 1 0 1
0 -169 -126 278 0 0 -1 -153.66862 -39.15625 1 0 1
bridge_se1_metal_flat_steel_01
0 164 -136 278 0 0 -1 -149.332682 -39.026042 1 0 1
0 -169 -126 278 0 0 -1 -153.66862 -39.15625 1 0 1
0 164 -126 278 0 0 -1 -149.332682 -39.15625 1 0 1
pepsi2_arch_concrete_floor_smooth01
0 174 -133 150 0 1 0 89.398438 -0.4375 1 0 1
0 174 -133 0 0 1 0 89.398438 -1.609375 1 0 1
0 154 -133 0 0 1 0 89.554688 -1.609375 1 0 1
pepsi2_arch_concrete_floor_smooth01
0 174 -133 150 0 1 0 89.398438 -0.4375 1 0 1
0 154 -133 0 0 1 0 89.554688 -1.609375 1 0 1
0 154 -133 150 0 1 0 89.554688 -0.4375 1 0 1
pepsi2_arch_concrete_floor_smooth01
0 154 -153 0 -1 0 0 -23.673828 -1.609375 1 0 1
0 154 -153 150 -1 0 0 -23.673828 -0.4375 1 0 1
0 154 -133 150 -1 0 0 -23.830078 -0.4375 1 0 1
pepsi2_arch_concrete_floor_smooth01
0 154 -153 0 -1 0 0 -23.673828 -1.609375 1 0 1
0 154 -133 150 -1 0 0 -23.830078 -0.4375 1 0 1
0 154 -133 0 -1 0 0 -23.830078 -1.609375 1 0 1
pepsi2_arch_concrete_floor_smooth01
0 174 -153 150 1 0 0 -23.673828 -0.4375 1 0 1
0 174 -153 0 1 0 0 -23.673828 -1.609375 1 0 1
0 174 -133 0 1 0 0 -23.830078 -1.609375 1 0 1
pepsi2_arch_concrete_floor_smooth01
0 174 -153 150 1 0 0 -23.673828 -0.4375 1 0 1
0 174 -133 0 1 0 0 -23.830078 -1.609375 1 0 1
0 174 -133 150 1 0 0 -23.830078 -0.4375 1 0 1
bridge_se1_metal_flat_steel_01
0 154 -133 133.997 -1 0 0 -23.445312 -0.562523 1 0 1
0 154 -133 150 -1 0 0 -23.445312 -0.4375 1 0 1
0 154 119 150 -1 0 0 -25.414062 -0.4375 1 0 1
bridge_se1_metal_flat_steel_01
0 154 -133 133.997 -1 0 0 -23.445312 -0.562523 1 0 1
0 154 119 150 -1 0 0 -25.414062 -0.4375 1 0 1
0 154 119 133.997 -1 0 0 -25.414062 -0.562523 1 0 1
bridge_se1_metal_flat_steel_01
0 174 -133 150 1 0 0 -23.445312 2.130859 1 0 1
0 174 -133 134.003 1 0 0 -23.445312 2.255836 1 0 1
0 174 119 134.003 1 0 0 -25.414062 2.255836 1 0 1
bridge_se1_metal_flat_steel_01
0 174 -133 150 1 0 0 -23.445312 2.130859 1 0 1
0 174 119 134.003 1 0 0 -25.414062 2.255836 1 0 1
0 174 119 150 1 0 0 -25.414062 2.130859 1 0 1
bridge_se1_metal_flat_steel_01
0 170 -133 130 0 0 -1 -23.445312 90.298828 1 0 1
0 158 -133 130 0 0 -1 -23.445312 90.392578 1 0 1
0 158 119 130 0 0 -1 -25.414062 90.392578 1 0 1
bridge_se1_metal_flat_steel_01
0 170 -133 130 0 0 -1 -23.445312 90.298828 1 0 1
0 158 119 130 0 0 -1 -25.414062 90.392578 1 0 1
0 170 119 130 0 0 -1 -25.414062 90.298828 1 0 1
bridge_se1_metal_flat_steel_01
0 158 -133 130 -0.706841 0 -0.707372 -23.445312 62.391995 1 0 1
0 154 -133 133.997 -0.706841 0 -0.707372 -23.445312 62.436172 1 0 1
0 154 119 133.997 -0.706841 0 -0.707372 -25.414062 62.436172 1 0 1
bridge_se1_metal_flat_steel_01
0 158 -133 130 -0.706841 0 -0.707372 -23.445312 62.391995 1 0 1
0 154 119 133.997 -0.706841 0 -0.707372 -25.414062 62.436172 1 0 1
0 158 119 130 -0.706841 0 -0.707372 -25.414062 62.391995 1 0 1
bridge_se1_metal_flat_steel_01
0 174 -133 134.003 0.707372 0 -0.706842 -23.445312 65.255269 1 0 1
0 170 -133 130 0.707372 0 -0.706842 -23.445312 65.299479 1 0 1
0 170 119 130 0.707372 0 -0.706842 -25.414062 65.299479 1 0 1
bridge_se1_metal_flat_steel_01
0 174 -133 134.003 0.707372 0 -0.706842 -23.445312 65.255269 1 0 1
0 170 119 130 0.707372 0 -0.706842 -25.414062 65.299479 1 0 1
0 174 119 134.003 0.707372 0 -0.706842 -25.414062 65.255269 1 0 1
pepsi2_arch_concrete_wall01
0 124 -153 72 0 1 0 50.001302 0.057509 1 0 1
0 124 -153 67 0 1 0 50.001302 0.035807 1 0 1
0 28 -153 67 0 1 0 50.417969 0.035807 1 0 1
pepsi2_arch_concrete_wall01
0 124 -153 72 0 1 0 50.001302 0.057509 1 0 1
0 28 -153 67 0 1 0 50.417969 0.035807 1 0 1
0 28 -153 72 0 1 0 50.417969 0.057509 1 0 1
pepsi2_arch_concrete_wall01
0 124 -163 67 0 -1 0 3.353516 90.738281 1 0 1
0 124 -163 72 0 -1 0 3.314453 90.738281 1 0 1
0 28 -163 72 0 -1 0 3.314453 91.488281 1 0 1
pepsi2_arch_concrete_wall01
0 124 -163 67 0 -1 0 3.353516 90.738281 1 0 1
0 28 -163 72 0 -1 0 3.314453 91.488281 1 0 1
0 28 -163 67 0 -1 0 3.353516 91.488281 1 0 1
bridge_se1_metal_flat_steel_01
0 164 49 288 0 1 0 -149.332682 1.434896 1 0 1
0 164 49 278 0 1 0 -149.332682 1.565104 1 0 1
0 -169 49 278 0 1 0 -153.66862 1.565104 1 0 1
bridge_se1_metal_flat_steel_01
0 164 49 288 0 1 0 -149.332682 1.434896 1 0 1
0 -169 49 278 0 1 0 -153.66862 1.565104 1 0 1
0 -169 49 288 0 1 0 -153.66862 1.434896 1 0 1
bridge_se1_metal_flat_steel_01
0 164 39 278 0 -1 0 -149.332682 0.694661 1 0 1
0 164 39 288 0 -1 0 -149.332682 0.82487 1 0 1
0 -169 39 288 0 -1 0 -153.66862 0.82487 1 0 1
bridge_se1_metal_flat_steel_01
0 164 39 278 0 -1 0 -149.332682 0.694661 1 0 1
0 -169 39 288 0 -1 0 -153.66862 0.82487 1 0 1
0 -169 39 278 0 -1 0 -153.66862 0.694661 1 0 1
bridge_se1_metal_flat_steel_01
0 164 39 278 0 0 -1 -149.332682 -41.304688 1 0 1
0 -169 39 278 0 0 -1 -153.66862 -41.304688 1 0 1
0 -169 49 278 0 0 -1 -153.66862 -41.434896 1 0 1
bridge_se1_metal_flat_steel_01
0 164 39 278 0 0 -1 -149.332682 -41.304688 1 0 1
0 -169 49 278 0 0 -1 -153.66862 -41.434896 1 0 1
0 164 49 278 0 0 -1 -149.332682 -41.434896 1 0 1
bridge_se1_metal_flat_steel_01
0 -55 -153 130 -1 0 0 -1.703125 39.014225 1 0 1
0 -55 -153 150 -1 0 0 -1.546875 39.014225 1 0 1
0 -55 139 150 -1 0 0 -1.546875 41.264906 1 0 1
bridge_se1_metal_flat_steel_01
0 -55 -153 130 -1 0 0 -1.703125 39.014225 1 0 1
0 -55 139 150 -1 0 0 -1.546875 41.264906 1 0 1
0 -55 139 142.006 -1 0 0 -1.609328 41.264906 1 0 1
bridge_se1_metal_flat_steel_01
0 -55 -153 130 -1 0 0 -1.703125 39.014225 1 0 1
0 -55 139 142.006 -1 0 0 -1.609328 41.264906 1 0 1
0 -55 -7.08 130 -1 0 0 -1.703125 40.138949 1 0 1
bridge_se1_metal_flat_steel_01
0 1 -153 150 1 0 0 1.703125 10.010487 1 0 1
0 1 -153 130 1 0 0 1.859375 10.010487 1 0 1
0 1 -7.08 130 1 0 0 1.859375 11.135212 1 0 1
bridge_se1_metal_flat_steel_01
0 1 -153 150 1 0 0 1.703125 10.010487 1 0 1
0 1 -7.08 130 1 0 0 1.859375 11.135212 1 0 1
0 1 139 142.006 1 0 0 1.765578 12.261169 1 0 1
bridge_se1_metal_flat_steel_01
0 1 -153 150 1 0 0 1.703125 10.010487 1 0 1
0 1 139 142.006 1 0 0 1.765578 12.261169 1 0 1
0 1 139 150 1 0 0 1.703125 12.261169 1 0 1
bridge_se1_metal_flat_steel_01
0 1 -153 130 0 0 -1 90.859375 25.012156 1 0 1
0 -55 -153 130 0 0 -1 91.296875 25.012156 1 0 1
0 -55 -7.08 130 0 0 -1 91.296875 26.13688 1 0 1
bridge_se1_metal_flat_steel_01
0 1 -153 130 0 0 -1 90.859375 25.012156 1 0 1
0 -55 -7.08 130 0 0 -1 91.296875 26.13688 1 0 1
0 1 -7.08 130 0 0 -1 90.859375 26.13688 1 0 1
bridge_se1_metal_flat_steel_01
0 -55 -7.08 130 0 0.081912 -0.99664 91.296875 26.135355 1 0 1
0 -55 139 142.006 0 0.081912 -0.99664 91.296875 27.265043 1 0 1
0 1 139 142.006 0 0.081912 -0.99664 90.859375 27.265043 1 0 1
bridge_se1_metal_flat_steel_01
0 -55 -7.08 130 0 0.081912 -0.99664 91.296875 26.135355 1 0 1
0 1 139 142.006 0 0.081912 -0.99664 90.859375 27.265043 1 0 1
0 1 -7.08 130 0 0.081912 -0.99664 90.859375 26.135355 1 0 1
pepsi2_arch_concrete_wall01
0 134 159 288 0 1 0 -49.70204 0.995009 1 0 1
0 134 159 276 0 1 0 -49.70204 0.942925 1 0 1
0 18 159 276 0 1 0 -50.205512 0.942925 1 0 1
pepsi2_arch_concrete_wall01
0 134 159 288 0 1 0 -49.70204 0.995009 1 0 1
0 18 159 276 0 1 0 -50.205512 0.942925 1 0 1
0 18 159 288 0 1 0 -50.205512 0.995009 1 0 1
pepsi2_arch_concrete_wall01
0 134 149 276 0 -1 0 1.314453 90.660156 1 0 1
0 134 149 288 0 -1 0 1.220703 90.660156 1 0 1
0 18 149 288 0 -1 0 1.220703 91.566406 1 0 1
pepsi2_arch_concrete_wall01
0 134 149 276 0 -1 0 1.314453 90.660156 1 0 1
0 18 149 288 0 -1 0 1.220703 91.566406 1 0 1
0 18 149 276 0 -1 0 1.314453 91.566406 1 0 1
pepsi2_arch_concrete_floor_smooth01
0 174 119 0 1 0 0 26.109375 -1 1 0 1
0 174 159 0 1 0 0 26.421875 -1 1 0 1
0 174 159 45 1 0 0 26.421875 -0.648438 1 0 1
pepsi2_arch_concrete_floor_smooth01
0 174 119 0 1 0 0 26.109375 -1 1 0 1
0 174 159 45 1 0 0 26.421875 -0.648438 1 0 1
0 174 119 45 1 0 0 26.109375 -0.648438 1 0 1
pepsi2_arch_concrete_floor_smooth01
0 154 119 45 0 0 1 89.578125 -24.335938 1 0 1
0 174 119 45 0 0 1 89.421875 -24.335938 1 0 1
0 174 159 45 0 0 1 89.421875 -24.648438 1 0 1
pepsi2_arch_concrete_floor_smooth01
0 154 119 45 0 0 1 89.578125 -24.335938 1 0 1
0 174 159 45 0 0 1 89.421875 -24.648438 1 0 1
0 154 159 45 0 0 1 89.578125 -24.648438 1 0 1
pepsi2_arch_concrete_floor_smooth01
0 174 159 45 0 1 0 89.421875 -0.648438 1 0 1
0 174 159 0 0 1 0 89.421875 -1 1 0 1
0 154 159 0 0 1 0 89.578125 -1 1 0 1
pepsi2_arch_concrete_floor_smooth01
0 174 159 45 0 1 0 89.421875 -0.648438 1 0 1
0 154 159 0 0 1 0 89.578125 -1 1 0 1
0 154 159 45 0 1 0 89.578125 -0.648438 1 0 1
pepsi2_arch_concrete_floor_smooth01
0 174 119 0 0 -1 0 89.421875 -1 1 0 1
0 174 119 45 0 -1 0 89.421875 -0.648438 1 0 1
0 154 119 45 0 -1 0 89.578125 -0.648438 1 0 1
pepsi2_arch_concrete_floor_smooth01
0 174 119 0 0 -1 0 89.421875 -1 1 0 1
0 154 119 45 0 -1 0 89.578125 -0.648438 1 0 1
0 154 119 0 0 -1 0 89.578125 -1 1 0 1
pepsi2_arch_concrete_floor_smooth01
0 154 119 45 -1 0 0 -26.109375 -0.648438 1 0 1
0 154 159 45 -1 0 0 -26.421875 -0.648438 1 0 1
0 154 159 0 -1 0 0 -26.421875 -1 1 0 1
pepsi2_arch_concrete_floor_smooth01
0 154 119 45 -1 0 0 -26.109375 -0.648438 1 0 1
0 154 159 0 -1 0 0 -26.421875 -1 1 0 1
0 154 119 0 -1 0 0 -26.109375 -1 1 0 1
pepsi2_arch_concrete_wall01
0 124 -163 141 0 -1 0 2.775391 90.738281 1 0 1
0 124 -163 150 0 -1 0 2.705078 90.738281 1 0 1
0 28 -163 150 0 -1 0 2.705078 91.488281 1 0 1
pepsi2_arch_concrete_wall01
0 124 -163 141 0 -1 0 2.775391 90.738281 1 0 1
0 28 -163 150 0 -1 0 2.705078 91.488281 1 0 1
0 28 -163 141 0 -1 0 2.775391 91.488281 1 0 1
pepsi2_arch_concrete_wall01
0 124 -153 150 0 1 0 50.001302 0.39605 1 0 1
0 124 -153 141 0 1 0 50.001302 0.356988 1 0 1
0 28 -153 141 0 1 0 50.417969 0.356988 1 0 1
pepsi2_arch_concrete_wall01
0 124 -153 150 0 1 0 50.001302 0.39605 1 0 1
0 28 -153 141 0 1 0 50.417969 0.356988 1 0 1
0 28 -153 150 0 1 0 50.417969 0.39605 1 0 1
pepsi2_arch_concrete_wall01
0 134 159 244 0 1 0 -49.70204 0.804036 1 0 1
0 134 159 239 0 1 0 -49.70204 0.782335 1 0 1
0 18 159 239 0 1 0 -50.205512 0.782335 1 0 1
pepsi2_arch_concrete_wall01
0 134 159 244 0 1 0 -49.70204 0.804036 1 0 1
0 18 159 239 0 1 0 -50.205512 0.782335 1 0 1
0 18 159 244 0 1 0 -50.205512 0.804036 1 0 1
pepsi2_arch_concrete_wall01
0 134 149 239 0 -1 0 1.603516 90.660156 1 0 1
0 134 149 244 0 -1 0 1.564453 90.660156 1 0 1
0 18 149 244 0 -1 0 1.564453 91.566406 1 0 1
pepsi2_arch_concrete_wall01
0 134 149 239 0 -1 0 1.603516 90.660156 1 0 1
0 18 149 244 0 -1 0 1.564453 91.566406 1 0 1
0 18 149 239 0 -1 0 1.603516 91.566406 1 0 1
bridge_se1_metal_flat_steel_01
0 -179 159 298 0 0 1 -43.662109 -152.201172 1 0 1
0 179 159 298 0 0 1 -43.662109 -147.539714 1 0 1
0 179 164 298 0 0 1 -43.727214 -147.539714 1 0 1
bridge_se1_metal_flat_steel_01
0 -179 159 298 0 0 1 -43.662109 -152.201172 1 0 1
0 179 164 298 0 0 1 -43.727214 -147.539714 1 0 1
0 -179 164 298 0 0 1 -43.727214 -152.201172 1 0 1
bridge_se1_metal_flat_steel_01
0 -179 164 288 0 1 0 153.208984 0.604167 1 0 1
0 -179 164 298 0 1 0 153.208984 0.734375 1 0 1
0 179 164 298 0 1 0 148.547526 0.734375 1 0 1
bridge_se1_metal_flat_steel_01
0 -179 164 288 0 1 0 153.208984 0.604167 1 0 1
0 179 164 298 0 1 0 148.547526 0.734375 1 0 1
0 179 164 288 0 1 0 148.547526 0.604167 1 0 1
bridge_se1_metal_flat_steel_01
0 179 164 288 1 0 0 -43.727214 0.604167 1 0 1
0 179 164 298 1 0 0 -43.727214 0.734375 1 0 1
0 179 159 298 1 0 0 -43.662109 0.734375 1 0 1
bridge_se1_metal_flat_steel_01
0 179 164 288 1 0 0 -43.727214 0.604167 1 0 1
0 179 159 298 1 0 0 -43.662109 0.734375 1 0 1
0 179 159 288 1 0 0 -43.662109 0.604167 1 0 1
bridge_se1_metal_flat_steel_01
0 179 159 288 0 0 -1 -43.662109 149.877604 1 0 1
0 -179 159 288 0 0 -1 -43.662109 154.539062 1 0 1
0 -179 164 288 0 0 -1 -43.727214 154.539062 1 0 1
bridge_se1_metal_flat_steel_01
0 179 159 288 0 0 -1 -43.662109 149.877604 1 0 1
0 -179 164 288 0 0 -1 -43.727214 154.539062 1 0 1
0 179 164 288 0 0 -1 -43.727214 149.877604 1 0 1
pepsi2_arch_concrete_wall01
0 134 159 170 0 1 0 -49.70204 0.482856 1 0 1
0 134 159 160 0 1 0 -49.70204 0.439453 1 0 1
0 18 159 160 0 1 0 -50.205512 0.439453 1 0 1
pepsi2_arch_concrete_wall01
0 134 159 170 0 1 0 -49.70204 0.482856 1 0 1
0 18 159 160 0 1 0 -50.205512 0.439453 1 0 1
0 18 159 170 0 1 0 -50.205512 0.482856 1 0 1
pepsi2_arch_concrete_wall01
0 134 149 160 0 -1 0 2.220703 90.660156 1 0 1
0 134 149 170 0 -1 0 2.142578 90.660156 1 0 1
0 18 149 170 0 -1 0 2.142578 91.566406 1 0 1
pepsi2_arch_concrete_wall01
0 134 149 160 0 -1 0 2.220703 90.660156 1 0 1
0 18 149 170 0 -1 0 2.142578 91.566406 1 0 1
0 18 149 160 0 -1 0 2.220703 91.566406 1 0 1
pepsi2_arch_concrete_stair01
0 -57 -153 5 1 0 0 23.439453 -0.935547 1 0 1
0 -57 -153 0 1 0 0 23.439453 -0.974609 1 0 1
0 -57 159 0 1 0 0 25.876953 -0.974609 1 0 1
pepsi2_arch_concrete_stair01
0 -57 -153 5 1 0 0 23.439453 -0.935547 1 0 1
0 -57 159 0 1 0 0 25.876953 -0.974609 1 0 1
0 -57 159 5 1 0 0 25.876953 -0.935547 1 0 1
pepsi2_arch_concrete_stair01
0 -65 -153 5 0 0 1 23.439453 92.126953 1 0 1
0 -57 -153 5 0 0 1 23.439453 92.064453 1 0 1
0 -57 159 5 0 0 1 25.876953 92.064453 1 0 1
pepsi2_arch_concrete_stair01
0 -65 -153 5 0 0 1 23.439453 92.126953 1 0 1
0 -57 159 5 0 0 1 25.876953 92.064453 1 0 1
0 -65 151 5 0 0 1 25.814453 92.126953 1 0 1
pepsi2_arch_concrete_wall01
0 174 159 150 0 1 0 48.938585 0.39605 1 0 1
0 174 159 49 0 1 0 48.938585 -0.042318 1 0 1
0 154 159 49 0 1 0 49.025391 -0.042318 1 0 1
pepsi2_arch_concrete_wall01
0 174 159 150 0 1 0 48.938585 0.39605 1 0 1
0 154 159 49 0 1 0 49.025391 -0.042318 1 0 1
0 154 159 150 0 1 0 49.025391 0.39605 1 0 1
pepsi2_arch_concrete_wall01
0 174 119 49 0 -1 0 48.938585 -0.042318 1 0 1
0 174 119 150 0 -1 0 48.938585 0.39605 1 0 1
0 154 119 150 0 -1 0 49.025391 0.39605 1 0 1
pepsi2_arch_concrete_wall01
0 174 119 49 0 -1 0 48.938585 -0.042318 1 0 1
0 154 119 150 0 -1 0 49.025391 0.39605 1 0 1
0 154 119 49 0 -1 0 49.025391 -0.042318 1 0 1
pepsi2_arch_concrete_wall01
0 154 119 49 -1 0 0 -13.799696 -0.042318 1 0 1
0 154 119 150 -1 0 0 -13.799696 0.39605 1 0 1
0 154 159 150 -1 0 0 -13.973307 0.39605 1 0 1
pepsi2_arch_concrete_wall01
0 154 119 49 -1 0 0 -13.799696 -0.042318 1 0 1
0 154 159 150 -1 0 0 -13.973307 0.39605 1 0 1
0 154 159 49 -1 0 0 -13.973307 -0.042318 1 0 1
pepsi2_arch_concrete_wall01
0 174 119 150 1 0 0 13.766493 0.39605 1 0 1
0 174 119 49 1 0 0 13.766493 -0.042318 1 0 1
0 174 159 49 1 0 0 13.940104 -0.042318 1 0 1
pepsi2_arch_concrete_wall01
0 174 119 150 1 0 0 13.766493 0.39605 1 0 1
0 174 159 49 1 0 0 13.940104 -0.042318 1 0 1
0 174 159 150 1 0 0 13.940104 0.39605 1 0 1
pepsi2_arch_concrete_wall01
0 174 119 49 0 0 -1 48.938585 14.784071 1 0 1
0 154 119 49 0 0 -1 49.025391 14.784071 1 0 1
0 154 159 49 0 0 -1 49.025391 14.957682 1 0 1
pepsi2_arch_concrete_wall01
0 174 119 49 0 0 -1 48.938585 14.784071 1 0 1
0 154 159 49 0 0 -1 49.025391 14.957682 1 0 1
0 174 159 49 0 0 -1 48.938585 14.957682 1 0 1
pepsi2_arch_concrete_floor_smooth01
0 164 149 298 0 -1 0 0.5625 -87.914062 1 0 1
0 164 149 313 0 -1 0 0.445312 -87.914062 1 0 1
0 -169 149 313 0 -1 0 0.445312 -90.515625 1 0 1
pepsi2_arch_concrete_floor_smooth01
0 164 149 298 0 -1 0 0.5625 -87.914062 1 0 1
0 -169 149 313 0 -1 0 0.445312 -90.515625 1 0 1
0 -169 149 298 0 -1 0 0.5625 -90.515625 1 0 1
pepsi2_arch_concrete_floor_smooth01
0 -169 149 313 0 0 1 26.367188 -90.515625 1 0 1
0 164 149 313 0 0 1 26.367188 -87.914062 1 0 1
0 164 159 313 0 0 1 26.445312 -87.914062 1 0 1
pepsi2_arch_concrete_floor_smooth01
0 -169 149 313 0 0 1 26.367188 -90.515625 1 0 1
0 164 159 313 0 0 1 26.445312 -87.914062 1 0 1
0 -169 159 313 0 0 1 26.445312 -90.515625 1 0 1
pepsi2_arch_concrete_floor_smooth01
0 164 159 313 0 1 0 0.445312 -87.914062 1 0 1
0 164 159 298 0 1 0 0.5625 -87.914062 1 0 1
0 -169 159 298 0 1 0 0.5625 -90.515625 1 0 1
pepsi2_arch_concrete_floor_smooth01
0 164 159 313 0 1 0 0.445312 -87.914062 1 0 1
0 -169 159 298 0 1 0 0.5625 -90.515625 1 0 1
0 -169 159 313 0 1 0 0.445312 -90.515625 1 0 1
goldeneye_caverns_cavernsconcretefloor02
0 -3 -124 3 0 -0.5547 0.83205 -151.554036 31.668236 1 0 1
0 105 -124 3 0 -0.5547 0.83205 -150.147786 31.668236 1 0 1
0 105 -121 5 0 -0.5547 0.83205 -150.147786 31.715185 1 0 1
goldeneye_caverns_cavernsconcretefloor02
0 -3 -124 3 0 -0.5547 0.83205 -151.554036 31.668236 1 0 1
0 105 -121 5 0 -0.5547 0.83205 -150.147786 31.715185 1 0 1
0 -3 -121 5 0 -0.5547 0.83205 -151.554036 31.715185 1 0 1
goldeneye_caverns_cavernsconcretefloor02
0 -3 -116 0 0 1 0 -151.554036 5.843099 1 0 1
0 -3 -116 3 0 1 0 -151.554036 5.804036 1 0 1
0 105 -116 3 0 1 0 -150.147786 5.804036 1 0 1
goldeneye_caverns_cavernsconcretefloor02
0 -3 -116 0 0 1 0 -151.554036 5.843099 1 0 1
0 105 -116 3 0 1 0 -150.147786 5.804036 1 0 1
0 105 -116 0 0 1 0 -150.147786 5.843099 1 0 1
goldeneye_caverns_cavernsconcretefloor02
0 105 -124 0 0 -1 0 -150.147786 -3.372396 1 0 1
0 105 -124 3 0 -1 0 -150.147786 -3.333333 1 0 1
0 -3 -124 3 0 -1 0 -151.554036 -3.333333 1 0 1
goldeneye_caverns_cavernsconcretefloor02
0 105 -124 0 0 -1 0 -150.147786 -3.372396 1 0 1
0 -3 -124 3 0 -1 0 -151.554036 -3.333333 1 0 1
0 -3 -124 0 0 -1 0 -151.554036 -3.372396 1 0 1
goldeneye_caverns_cavernsconcretefloor02
0 -3 -124 0 -1 0 0 -40.553385 -3.372396 1 0 1
0 -3 -124 3 -1 0 0 -40.553385 -3.333333 1 0 1
0 -3 -121 5 -1 0 0 -40.592448 -3.307292 1 0 1
goldeneye_caverns_cavernsconcretefloor02
0 -3 -124 0 -1 0 0 -40.553385 -3.372396 1 0 1
0 -3 -121 5 -1 0 0 -40.592448 -3.307292 1 0 1
0 -3 -119 5 -1 0 0 -40.61849 -3.307292 1 0 1
goldeneye_caverns_cavernsconcretefloor02
0 -3 -124 0 -1 0 0 -40.553385 -3.372396 1 0 1
0 -3 -119 5 -1 0 0 -40.61849 -3.307292 1 0 1
0 -3 -116 3 -1 0 0 -40.657552 -3.333333 1 0 1
goldeneye_caverns_cavernsconcretefloor02
0 -3 -124 0 -1 0 0 -40.553385 -3.372396 1 0 1
0 -3 -116 3 -1 0 0 -40.657552 -3.333333 1 0 1
0 -3 -116 0 -1 0 0 -40.657552 -3.372396 1 0 1
goldeneye_caverns_cavernsconcretefloor02
0 105 -116 0 1 0 0 -40.147786 5.843099 1 0 1
0 105 -116 3 1 0 0 -40.147786 5.804036 1 0 1
0 105 -119 5 1 0 0 -40.108724 5.777995 1 0 1
goldeneye_caverns_cavernsconcretefloor02
0 105 -116 0 1 0 0 -40.147786 5.843099 1 0 1
0 105 -119 5 1 0 0 -40.108724 5.777995 1 0 1
0 105 -121 5 1 0 0 -40.082682 5.777995 1 0 1
goldeneye_caverns_cavernsconcretefloor02
0 105 -116 0 1 0 0 -40.147786 5.843099 1 0 1
0 105 -121 5 1 0 0 -40.082682 5.777995 1 0 1
0 105 -124 3 1 0 0 -40.04362 5.804036 1 0 1
goldeneye_caverns_cavernsconcretefloor02
0 105 -116 0 1 0 0 -40.147786 5.843099 1 0 1
0 105 -124 3 1 0 0 -40.04362 5.804036 1 0 1
0 105 -124 0 1 0 0 -40.04362 5.843099 1 0 1
goldeneye_caverns_cavernsconcretefloor02
0 -3 -121 5 0 0 1 -151.554036 40.713542 1 0 1
0 105 -121 5 0 0 1 -150.147786 40.713542 1 0 1
0 105 -119 5 0 0 1 -150.147786 40.739583 1 0 1
goldeneye_caverns_cavernsconcretefloor02
0 -3 -121 5 0 0 1 -151.554036 40.713542 1 0 1
0 105 -119 5 0 0 1 -150.147786 40.739583 1 0 1
0 -3 -119 5 0 0 1 -151.554036 40.739583 1 0 1
goldeneye_caverns_cavernsconcretefloor02
0 105 -119 5 0 0.5547 0.83205 -150.147786 36.760128 1 0 1
0 105 -116 3 0 0.5547 0.83205 -150.147786 36.807077 1 0 1
0 -3 -116 3 0 0.5547 0.83205 -151.554036 36.807077 1 0 1
goldeneye_caverns_cavernsconcretefloor02
0 105 -119 5 0 0.5547 0.83205 -150.147786 36.760128 1 0 1
0 -3 -116 3 0 0.5547 0.83205 -151.554036 36.807077 1 0 1
0 -3 -119 5 0 0.5547 0.83205 -151.554036 36.760128 1 0 1
bridge_se1_metal_flat_steel_01
0 172 157 49 0 1 0 148.544922 -2.705078 1 0 1
0 172 157 45 0 1 0 148.544922 -2.757161 1 0 1
0 156 157 45 0 1 0 148.753255 -2.757161 1 0 1
bridge_se1_metal_flat_steel_01
0 172 157 49 0 1 0 148.544922 -2.705078 1 0 1
0 156 157 45 0 1 0 148.753255 -2.757161 1 0 1
0 156 157 49 0 1 0 148.753255 -2.705078 1 0 1
bridge_se1_metal_flat_steel_01
0 172 121 45 0 -1 0 -148.482422 -2.757161 1 0 1
0 172 121 49 0 -1 0 -148.482422 -2.705078 1 0 1
0 156 121 49 0 -1 0 -148.690755 -2.705078 1 0 1
bridge_se1_metal_flat_steel_01
0 172 121 45 0 -1 0 -148.482422 -2.757161 1 0 1
0 156 121 49 0 -1 0 -148.690755 -2.705078 1 0 1
0 156 121 45 0 -1 0 -148.690755 -2.757161 1 0 1
bridge_se1_metal_flat_steel_01
0 156 121 45 -1 0 0 42.770833 4.319661 1 0 1
0 156 121 49 -1 0 0 42.770833 4.267578 1 0 1
0 156 157 49 -1 0 0 43.239583 4.267578 1 0 1
bridge_se1_metal_flat_steel_01
0 156 121 45 -1 0 0 42.770833 4.319661 1 0 1
0 156 157 49 -1 0 0 43.239583 4.267578 1 0 1
0 156 157 45 -1 0 0 43.239583 4.319661 1 0 1
bridge_se1_metal_flat_steel_01
0 172 121 49 1 0 0 -43.708333 4.267578 1 0 1
0 172 121 45 1 0 0 -43.708333 4.319661 1 0 1
0 172 157 45 1 0 0 -44.177083 4.319661 1 0 1
bridge_se1_metal_flat_steel_01
0 172 121 49 1 0 0 -43.708333 4.267578 1 0 1
0 172 157 45 1 0 0 -44.177083 4.319661 1 0 1
0 172 157 49 1 0 0 -44.177083 4.267578 1 0 1
pepsi2_arch_concrete_wall01
0 134 159 207 0 1 0 -49.70204 0.643446 1 0 1
0 134 159 202 0 1 0 -49.70204 0.621745 1 0 1
0 18 159 202 0 1 0 -50.205512 0.621745 1 0 1
pepsi2_arch_concrete_wall01
0 134 159 207 0 1 0 -49.70204 0.643446 1 0 1
0 18 159 202 0 1 0 -50.205512 0.621745 1 0 1
0 18 159 207 0 1 0 -50.205512 0.643446 1 0 1
pepsi2_arch_concrete_wall01
0 134 149 202 0 -1 0 1.892578 90.660156 1 0 1
0 134 149 207 0 -1 0 1.853516 90.660156 1 0 1
0 18 149 207 0 -1 0 1.853516 91.566406 1 0 1
pepsi2_arch_concrete_wall01
0 134 149 202 0 -1 0 1.892578 90.660156 1 0 1
0 18 149 207 0 -1 0 1.853516 91.566406 1 0 1
0 18 149 202 0 -1 0 1.892578 91.566406 1 0 1
bridge_se1_metal_flat_steel_01
0 -88 -163 118.026 -1 0 0 -39.81901 -1.743802 1 0 1
0 -88 -153 118.016 -1 0 0 -39.949219 -1.743932 1 0 1
0 -88 -153 10 -1 0 0 -39.949219 -3.150391 1 0 1
bridge_se1_metal_flat_steel_01
0 -88 -163 118.026 -1 0 0 -39.81901 -1.743802 1 0 1
0 -88 -153 10 -1 0 0 -39.949219 -3.150391 1 0 1
0 -88 -163 10 -1 0 0 -39.81901 -3.150391 1 0 1
bridge_se1_metal_flat_steel_01
0 -84 -153 122.018 0 1 0 151.999349 -1.691823 1 0 1
0 -84 -153 10 0 1 0 151.999349 -3.150391 1 0 1
0 -88 -153 10 0 1 0 152.051432 -3.150391 1 0 1
bridge_se1_metal_flat_steel_01
0 -84 -153 122.018 0 1 0 151.999349 -1.691823 1 0 1
0 -88 -153 10 0 1 0 152.051432 -3.150391 1 0 1
0 -88 -153 118.016 0 1 0 152.051432 -1.743932 1 0 1
bridge_se1_metal_flat_steel_01
0 -84 -163 10 0 -1 0 151.999349 -3.150391 1 0 1
0 -84 -163 122.028 0 -1 0 151.999349 -1.691693 1 0 1
0 -88 -163 118.026 0 -1 0 152.051432 -1.743802 1 0 1
bridge_se1_metal_flat_steel_01
0 -84 -163 10 0 -1 0 151.999349 -3.150391 1 0 1
0 -88 -163 118.026 0 -1 0 152.051432 -1.743802 1 0 1
0 -88 -163 10 0 -1 0 152.051432 -3.150391 1 0 1
bridge_se1_metal_flat_steel_01
0 154 139 134 0 -1 0 89.0625 2.328125 1 0 1
0 154 139 150 0 -1 0 89.0625 2.203125 1 0 1
0 -159 139 150 0 -1 0 91.507812 2.203125 1 0 1
bridge_se1_metal_flat_steel_01
0 154 139 134 0 -1 0 89.0625 2.328125 1 0 1
0 -159 139 150 0 -1 0 91.507812 2.203125 1 0 1
0 -159 139 134 0 -1 0 91.507812 2.328125 1 0 1
bridge_se1_metal_flat_steel_01
0 -159 143 130 0 0 -1 91.507812 27.373047 1 0 1
0 -159 155 130 0 0 -1 91.507812 27.466797 1 0 1
0 154 155 130 0 0 -1 89.0625 27.466797 1 0 1
bridge_se1_metal_flat_steel_01
0 -159 143 130 0 0 -1 91.507812 27.373047 1 0 1
0 154 155 130 0 0 -1 89.0625 27.466797 1 0 1
0 154 143 130 0 0 -1 89.0625 27.373047 1 0 1
bridge_se1_metal_flat_steel_01
0 154 139 134 0 -0.707107 -0.707107 89.0625 20.329368 1 0 1
0 -159 139 134 0 -0.707107 -0.707107 91.507812 20.329368 1 0 1
0 -159 143 130 0 -0.707107 -0.707107 91.507812 20.373562 1 0 1
bridge_se1_metal_flat_steel_01
0 154 139 134 0 -0.707107 -0.707107 89.0625 20.329368 1 0 1
0 -159 143 130 0 -0.707107 -0.707107 91.507812 20.373562 1 0 1
0 154 143 130 0 -0.707107 -0.707107 89.0625 20.373562 1 0 1
bridge_se1_metal_flat_steel_01
0 -159 155 130 0 0.707107 -0.707107 91.507812 17.485609 1 0 1
0 -159 159 134 0 0.707107 -0.707107 91.507812 17.529802 1 0 1
0 154 159 134 0 0.707107 -0.707107 89.0625 17.529802 1 0 1
bridge_se1_metal_flat_steel_01
0 -159 155 130 0 0.707107 -0.707107 91.507812 17.485609 1 0 1
0 154 159 134 0 0.707107 -0.707107 89.0625 17.529802 1 0 1
0 154 155 130 0 0.707107 -0.707107 89.0625 17.485609 1 0 1
bridge_se1_metal_flat_steel_01
0 154 159 150 0 1 0 89.0625 -0.345703 1 0 1
0 154 159 134 0 1 0 89.0625 -0.470703 1 0 1
0 -159 159 134 0 1 0 91.507812 -0.470703 1 0 1
bridge_se1_metal_flat_steel_01
0 154 159 150 0 1 0 89.0625 -0.345703 1 0 1
0 -159 159 134 0 1 0 91.507812 -0.470703 1 0 1
0 -159 159 150 0 1 0 91.507812 -0.345703 1 0 1
end
