version 1
nodes
0 "root" -1
end
skeleton
time 0
0 0 0 0 0 0 0
end
triangles
pepsi2_arch_concrete_floor_smooth01
0 511.65 -0.28 -155 0 -1 0 -49.385547 29.859375 1 0 1
0 511.65 -0.28 -148.17 0 -1 0 -49.385547 29.912734 1 0 1
0 -0.35 -0.28 -148.17 0 -1 0 -53.385547 29.912734 1 0 1
pepsi2_arch_concrete_floor_smooth01
0 511.65 -0.28 -155 0 -1 0 -49.385547 29.859375 1 0 1
0 -0.35 -0.28 -148.17 0 -1 0 -53.385547 29.912734 1 0 1
0 -0.35 -0.28 -155 0 -1 0 -53.385547 29.859375 1 0 1
gm_construct_construct_concrete_ground
0 -0.35 -0.28 -148.17 0 0.208736 0.977972 1.827002 -5.001807 1 0 1
0 511.65 -0.28 -148.17 0 0.208736 0.977972 1.827002 -4.501807 1 0 1
0 511.65 31.72 -155 0 0.208736 0.977972 1.787939 -4.501807 1 0 1
gm_construct_construct_concrete_ground
0 -0.35 -0.28 -148.17 0 0.208736 0.977972 1.827002 -5.001807 1 0 1
0 511.65 31.72 -155 0 0.208736 0.977972 1.787939 -4.501807 1 0 1
0 -0.35 31.72 -155 0 0.208736 0.977972 1.787939 -5.001807 1 0 1
de_chateau_intbrickk
0 10.32 31.72 -164.17 0 1 0 33.172266 15.58332 1 0 1
0 -11.02 31.72 -164.17 0 1 0 33.276465 15.58332 1 0 1
0 -11.02 31.72 165 0 1 0 33.276465 16.869141 1 0 1
de_chateau_intbrickk
0 10.32 31.72 -164.17 0 1 0 33.172266 15.58332 1 0 1
0 -11.02 31.72 165 0 1 0 33.276465 16.869141 1 0 1
0 10.32 31.72 165 0 1 0 33.172266 16.869141 1 0 1
de_chateau_intbrickk
0 10.32 -32.28 165 0 -1 0 -33.357813 16.869141 1 0 1
0 -11.02 -32.28 165 0 -1 0 -33.462012 16.869141 1 0 1
0 -11.02 -32.28 -164.17 0 -1 0 -33.462012 15.58332 1 0 1
de_chateau_intbrickk
0 10.32 -32.28 165 0 -1 0 -33.357813 16.869141 1 0 1
0 -11.02 -32.28 -164.17 0 -1 0 -33.462012 15.58332 1 0 1
0 10.32 -32.28 -164.17 0 -1 0 -33.357813 15.58332 1 0 1
de_chateau_intbrickk
0 -32.35 -10.95 165 -1 0 0 7.813232 16.869141 1 0 1
0 -32.35 10.39 165 -1 0 0 7.709033 16.869141 1 0 1
0 -32.35 10.39 -164.17 -1 0 0 7.709033 15.58332 1 0 1
de_chateau_intbrickk
0 -32.35 -10.95 165 -1 0 0 7.813232 16.869141 1 0 1
0 -32.35 10.39 -164.17 -1 0 0 7.709033 15.58332 1 0 1
0 -32.35 -10.95 -164.17 -1 0 0 7.813232 15.58332 1 0 1
de_chateau_intbrickk
0 31.65 -10.95 -164.17 1 0 0 -7.998779 15.58332 1 0 1
0 31.65 10.39 -164.17 1 0 0 -7.89458 15.58332 1 0 1
0 31.65 10.39 165 1 0 0 -7.89458 16.869141 1 0 1
de_chateau_intbrickk
0 31.65 -10.95 -164.17 1 0 0 -7.998779 15.58332 1 0 1
0 31.65 10.39 165 1 0 0 -7.89458 16.869141 1 0 1
0 31.65 -10.95 165 1 0 0 -7.998779 16.869141 1 0 1
de_chateau_intbrickk
0 -32.35 10.39 -164.17 -0.707107 0.707107 0 28.443908 15.58332 1 0 1
0 -32.35 10.39 165 -0.707107 0.707107 0 28.443908 16.869141 1 0 1
0 -11.02 31.72 165 -0.707107 0.707107 0 28.296618 16.869141 1 0 1
de_chateau_intbrickk
0 -32.35 10.39 -164.17 -0.707107 0.707107 0 28.443908 15.58332 1 0 1
0 -11.02 31.72 165 -0.707107 0.707107 0 28.296618 16.869141 1 0 1
0 -11.02 31.72 -164.17 -0.707107 0.707107 0 28.296618 15.58332 1 0 1
de_chateau_intbrickk
0 31.65 10.39 165 0.707107 0.707107 0 18.505665 16.869141 1 0 1
0 31.65 10.39 -164.17 0.707107 0.707107 0 18.505665 15.58332 1 0 1
0 10.32 31.72 -164.17 0.707107 0.707107 0 18.652955 15.58332 1 0 1
de_chateau_intbrickk
0 31.65 10.39 165 0.707107 0.707107 0 18.505665 16.869141 1 0 1
0 10.32 31.72 -164.17 0.707107 0.707107 0 18.652955 15.58332 1 0 1
0 10.32 31.72 165 0.707107 0.707107 0 18.652955 16.869141 1 0 1
de_chateau_intbrickk
0 -11.02 -32.28 -164.17 -0.707107 -0.707107 0 -18.691212 15.58332 1 0 1
0 -11.02 -32.28 165 -0.707107 -0.707107 0 -18.691212 16.869141 1 0 1
0 -32.35 -10.95 165 -0.707107 -0.707107 0 -18.838502 16.869141 1 0 1
de_chateau_intbrickk
0 -11.02 -32.28 -164.17 -0.707107 -0.707107 0 -18.691212 15.58332 1 0 1
0 -32.35 -10.95 165 -0.707107 -0.707107 0 -18.838502 16.869141 1 0 1
0 -32.35 -10.95 -164.17 -0.707107 -0.707107 0 -18.838502 15.58332 1 0 1
de_chateau_intbrickk
0 10.32 -32.28 165 0.707107 -0.707107 0 -28.629455 16.869141 1 0 1
0 10.32 -32.28 -164.17 0.707107 -0.707107 0 -28.629455 15.58332 1 0 1
0 31.65 -10.95 -164.17 0.707107 -0.707107 0 -28.482165 15.58332 1 0 1
de_chateau_intbrickk
0 10.32 -32.28 165 0.707107 -0.707107 0 -28.629455 16.869141 1 0 1
0 31.65 -10.95 -164.17 0.707107 -0.707107 0 -28.482165 15.58332 1 0 1
0 31.65 -10.95 165 0.707107 -0.707107 0 -28.482165 16.869141 1 0 1
de_chateau_intbrickk
0 15.65 47.72 149 0 1 0 33.14624 16.806641 1 0 1
0 -16.35 47.72 149 0 1 0 33.30249 16.806641 1 0 1
0 -16.35 47.72 165 0 1 0 33.30249 16.869141 1 0 1
de_chateau_intbrickk
0 15.65 47.72 149 0 1 0 33.14624 16.806641 1 0 1
0 -16.35 47.72 165 0 1 0 33.30249 16.869141 1 0 1
0 15.65 47.72 165 0 1 0 33.14624 16.869141 1 0 1
de_chateau_intbrickk
0 15.65 -48.28 165 0 -1 0 -33.331787 16.869141 1 0 1
0 -16.35 -48.28 165 0 -1 0 -33.488037 16.869141 1 0 1
0 -16.35 -48.28 149 0 -1 0 -33.488037 16.806641 1 0 1
de_chateau_intbrickk
0 15.65 -48.28 165 0 -1 0 -33.331787 16.869141 1 0 1
0 -16.35 -48.28 149 0 -1 0 -33.488037 16.806641 1 0 1
0 15.65 -48.28 149 0 -1 0 -33.331787 16.806641 1 0 1
de_chateau_intbrickk
0 -48.35 -16.28 165 -1 0 0 7.839258 16.869141 1 0 1
0 -48.35 15.72 165 -1 0 0 7.683008 16.869141 1 0 1
0 -48.35 15.72 149 -1 0 0 7.683008 16.806641 1 0 1
de_chateau_intbrickk
0 -48.35 -16.28 165 -1 0 0 7.839258 16.869141 1 0 1
0 -48.35 15.72 149 -1 0 0 7.683008 16.806641 1 0 1
0 -48.35 -16.28 149 -1 0 0 7.839258 16.806641 1 0 1
de_chateau_intbrickk
0 47.65 -16.28 149 1 0 0 -8.024805 16.806641 1 0 1
0 47.65 15.72 149 1 0 0 -7.868555 16.806641 1 0 1
0 47.65 15.72 165 1 0 0 -7.868555 16.869141 1 0 1
de_chateau_intbrickk
0 47.65 -16.28 149 1 0 0 -8.024805 16.806641 1 0 1
0 47.65 15.72 165 1 0 0 -7.868555 16.869141 1 0 1
0 47.65 -16.28 165 1 0 0 -8.024805 16.869141 1 0 1
de_chateau_intbrickk
0 15.65 -48.28 149 0 0 -1 -8.181055 -25.651758 1 0 1
0 -16.35 -48.28 149 0 0 -1 -8.181055 -25.776758 1 0 1
0 -48.35 -16.28 149 0 0 -1 -8.024805 -25.901758 1 0 1
de_chateau_intbrickk
0 15.65 -48.28 149 0 0 -1 -8.181055 -25.651758 1 0 1
0 -48.35 -16.28 149 0 0 -1 -8.024805 -25.901758 1 0 1
0 -48.35 15.72 149 0 0 -1 -7.868555 -25.901758 1 0 1
de_chateau_intbrickk
0 15.65 -48.28 149 0 0 -1 -8.181055 -25.651758 1 0 1
0 -48.35 15.72 149 0 0 -1 -7.868555 -25.901758 1 0 1
0 -16.35 47.72 149 0 0 -1 -7.712305 -25.776758 1 0 1
de_chateau_intbrickk
0 15.65 -48.28 149 0 0 -1 -8.181055 -25.651758 1 0 1
0 -16.35 47.72 149 0 0 -1 -7.712305 -25.776758 1 0 1
0 15.65 47.72 149 0 0 -1 -7.712305 -25.651758 1 0 1
de_chateau_intbrickk
0 15.65 -48.28 149 0 0 -1 -8.181055 -25.651758 1 0 1
0 15.65 47.72 149 0 0 -1 -7.712305 -25.651758 1 0 1
0 47.65 15.72 149 0 0 -1 -7.868555 -25.526758 1 0 1
de_chateau_intbrickk
0 15.65 -48.28 149 0 0 -1 -8.181055 -25.651758 1 0 1
0 47.65 15.72 149 0 0 -1 -7.868555 -25.526758 1 0 1
0 47.65 -16.28 149 0 0 -1 -8.024805 -25.526758 1 0 1
de_chateau_intbrickk
0 -48.35 15.72 149 -0.707107 0.707107 0 28.480747 16.806641 1 0 1
0 -48.35 15.72 165 -0.707107 0.707107 0 28.480747 16.869141 1 0 1
0 -16.35 47.72 165 -0.707107 0.707107 0 28.259779 16.869141 1 0 1
de_chateau_intbrickk
0 -48.35 15.72 149 -0.707107 0.707107 0 28.480747 16.806641 1 0 1
0 -16.35 47.72 165 -0.707107 0.707107 0 28.259779 16.869141 1 0 1
0 -16.35 47.72 149 -0.707107 0.707107 0 28.259779 16.806641 1 0 1
de_chateau_intbrickk
0 47.65 15.72 165 0.707107 0.707107 0 18.468826 16.869141 1 0 1
0 47.65 15.72 149 0.707107 0.707107 0 18.468826 16.806641 1 0 1
0 15.65 47.72 149 0.707107 0.707107 0 18.689794 16.806641 1 0 1
de_chateau_intbrickk
0 47.65 15.72 165 0.707107 0.707107 0 18.468826 16.869141 1 0 1
0 15.65 47.72 149 0.707107 0.707107 0 18.689794 16.806641 1 0 1
0 15.65 47.72 165 0.707107 0.707107 0 18.689794 16.869141 1 0 1
de_chateau_intbrickk
0 -16.35 -48.28 149 -0.707107 -0.707107 0 -18.654373 16.806641 1 0 1
0 -16.35 -48.28 165 -0.707107 -0.707107 0 -18.654373 16.869141 1 0 1
0 -48.35 -16.28 165 -0.707107 -0.707107 0 -18.875341 16.869141 1 0 1
de_chateau_intbrickk
0 -16.35 -48.28 149 -0.707107 -0.707107 0 -18.654373 16.806641 1 0 1
0 -48.35 -16.28 165 -0.707107 -0.707107 0 -18.875341 16.869141 1 0 1
0 -48.35 -16.28 149 -0.707107 -0.707107 0 -18.875341 16.806641 1 0 1
de_chateau_intbrickk
0 15.65 -48.28 165 0.707107 -0.707107 0 -28.666294 16.869141 1 0 1
0 15.65 -48.28 149 0.707107 -0.707107 0 -28.666294 16.806641 1 0 1
0 47.65 -16.28 149 0.707107 -0.707107 0 -28.445326 16.806641 1 0 1
de_chateau_intbrickk
0 15.65 -48.28 165 0.707107 -0.707107 0 -28.666294 16.869141 1 0 1
0 47.65 -16.28 149 0.707107 -0.707107 0 -28.445326 16.806641 1 0 1
0 47.65 -16.28 165 0.707107 -0.707107 0 -28.445326 16.869141 1 0 1
end
