version 1
nodes
0 "root" -1
end
skeleton
time 0
0 0 0 0 0 0 0
end
triangles
wood_woodstair002c
0 52 -24 40.999 -1 0 0 158.935538 -10.375031 1 0 1
0 52 -24 49 -1 0 0 158.935538 -10.125 1 0 1
0 52 32 49 -1 0 0 158.185624 -10.125 1 0 1
wood_woodstair002c
0 52 -24 40.999 -1 0 0 158.935538 -10.375031 1 0 1
0 52 32 49 -1 0 0 158.185624 -10.125 1 0 1
0 52 32 40.999 -1 0 0 158.185624 -10.375031 1 0 1
wood_woodfloor007a
0 52 -24 49 0 0 1 -85.25 -92.0625 1 0 1
0 60 -24 49 0 0 1 -85.1875 -92.0625 1 0 1
0 60 32 49 0 0 1 -85.1875 -91.625 1 0 1
wood_woodfloor007a
0 52 -24 49 0 0 1 -85.25 -92.0625 1 0 1
0 60 32 49 0 0 1 -85.1875 -91.625 1 0 1
0 52 32 49 0 0 1 -85.25 -91.625 1 0 1
wood_woodstair002c
0 -221 32 273 0 0 -1 184.25 -348.03125 1 0 1
0 -149 32 273 0 0 -1 184.25 -345.78125 1 0 1
0 -149 24 273 0 0 -1 184.375 -345.78125 1 0 1
wood_woodstair002c
0 -221 32 273 0 0 -1 184.25 -348.03125 1 0 1
0 -149 24 273 0 0 -1 184.375 -345.78125 1 0 1
0 -221 24 273 0 0 -1 184.375 -348.03125 1 0 1
wood_woodfloor008a
0 -221 24 281 0 0 1 -88.007812 -91 1 0 1
0 -149 24 281 0 0 1 -87.445312 -91 1 0 1
0 -149 32 281 0 0 1 -87.445312 -90.9375 1 0 1
wood_woodfloor008a
0 -221 24 281 0 0 1 -88.007812 -91 1 0 1
0 -149 32 281 0 0 1 -87.445312 -90.9375 1 0 1
0 -221 32 281 0 0 1 -88.007812 -90.9375 1 0 1
plaster_wallpaper002b
0 -149 32 281 0 1 0 -86.695312 0 1 0 1
0 -149 32 273 0 1 0 -86.695312 -0.0625 1 0 1
0 -221 32 273 0 1 0 -87.257812 -0.0625 1 0 1
plaster_wallpaper002b
0 -149 32 281 0 1 0 -86.695312 0 1 0 1
0 -221 32 273 0 1 0 -87.257812 -0.0625 1 0 1
0 -221 32 281 0 1 0 -87.257812 0 1 0 1
wood_woodstair002c
0 92 -24 208.999 -1 0 0 158.935538 -5.125031 1 0 1
0 92 -24 217 -1 0 0 158.935538 -4.875 1 0 1
0 92 32 217 -1 0 0 158.185624 -4.875 1 0 1
wood_woodstair002c
0 92 -24 208.999 -1 0 0 158.935538 -5.125031 1 0 1
0 92 32 217 -1 0 0 158.185624 -4.875 1 0 1
0 92 32 208.999 -1 0 0 158.185624 -5.125031 1 0 1
wood_woodfloor007a
0 92 -24 217 0 0 1 -84.9375 -92.0625 1 0 1
0 100 -24 217 0 0 1 -84.875 -92.0625 1 0 1
0 100 32 217 0 0 1 -84.875 -91.625 1 0 1
wood_woodfloor007a
0 92 -24 217 0 0 1 -84.9375 -92.0625 1 0 1
0 100 32 217 0 0 1 -84.875 -91.625 1 0 1
0 92 32 217 0 0 1 -84.9375 -91.625 1 0 1
wood_woodstair002c
0 84 -24 200.999 -1 0 0 158.935538 -5.375031 1 0 1
0 84 -24 209 -1 0 0 158.935538 -5.125 1 0 1
0 84 32 209 -1 0 0 158.185624 -5.125 1 0 1
wood_woodstair002c
0 84 -24 200.999 -1 0 0 158.935538 -5.375031 1 0 1
0 84 32 209 -1 0 0 158.185624 -5.125 1 0 1
0 84 32 200.999 -1 0 0 158.185624 -5.375031 1 0 1
wood_woodfloor007a
0 84 -24 209 0 0 1 -85 -92.0625 1 0 1
0 92 -24 209 0 0 1 -84.9375 -92.0625 1 0 1
0 92 32 209 0 0 1 -84.9375 -91.625 1 0 1
wood_woodfloor007a
0 84 -24 209 0 0 1 -85 -92.0625 1 0 1
0 92 32 209 0 0 1 -84.9375 -91.625 1 0 1
0 84 32 209 0 0 1 -85 -91.625 1 0 1
metal_metalfloor005a
0 164 -20 389 -1 0 0 93.03125 1.3125 1 0 1
0 164 -20 393 -1 0 0 93.03125 1.34375 1 0 1
0 164 28 393 -1 0 0 92.65625 1.34375 1 0 1
metal_metalfloor005a
0 164 -20 389 -1 0 0 93.03125 1.3125 1 0 1
0 164 28 393 -1 0 0 92.65625 1.34375 1 0 1
0 164 28 389 -1 0 0 92.65625 1.3125 1 0 1
metal_metalfloor005a
0 172 -20 393 1 0 0 93.03125 1.34375 1 0 1
0 172 -20 389 1 0 0 93.03125 1.3125 1 0 1
0 172 28 389 1 0 0 92.65625 1.3125 1 0 1
metal_metalfloor005a
0 172 -20 393 1 0 0 93.03125 1.34375 1 0 1
0 172 28 389 1 0 0 92.65625 1.3125 1 0 1
0 172 28 393 1 0 0 92.65625 1.34375 1 0 1
metal_metalfloor005a
0 172 -20 389 0 0 -1 93.03125 -83.1875 1 0 1
0 164 -20 389 0 0 -1 93.03125 -83.25 1 0 1
0 164 28 389 0 0 -1 92.65625 -83.25 1 0 1
metal_metalfloor005a
0 172 -20 389 0 0 -1 93.03125 -83.1875 1 0 1
0 164 28 389 0 0 -1 92.65625 -83.25 1 0 1
0 172 28 389 0 0 -1 92.65625 -83.1875 1 0 1
wood_woodfloor007a
0 44 -24 41 0 0 1 -85.3125 -92.0625 1 0 1
0 52 -24 41 0 0 1 -85.25 -92.0625 1 0 1
0 52 32 41 0 0 1 -85.25 -91.625 1 0 1
wood_woodfloor007a
0 44 -24 41 0 0 1 -85.3125 -92.0625 1 0 1
0 52 32 41 0 0 1 -85.25 -91.625 1 0 1
0 44 32 41 0 0 1 -85.3125 -91.625 1 0 1
wood_woodstair002c
0 44 -24 41 -1 0 0 158.935538 -10.375 1 0 1
0 44 32 41 -1 0 0 158.185624 -10.375 1 0 1
0 44 32 32.999 -1 0 0 158.185624 -10.625031 1 0 1
wood_woodstair002c
0 44 -24 41 -1 0 0 158.935538 -10.375 1 0 1
0 44 32 32.999 -1 0 0 158.185624 -10.625031 1 0 1
0 44 -24 32.999 -1 0 0 158.935538 -10.625031 1 0 1
plaster_plasterwall029a
0 -213 -32 179 0 0 -1 93.125 -86.203125 1 0 1
0 -215 -32 179 0 0 -1 93.125 -86.21875 1 0 1
0 -215 -28 179 0 0 -1 93.09375 -86.21875 1 0 1
plaster_plasterwall029a
0 -213 -32 179 0 0 -1 93.125 -86.203125 1 0 1
0 -215 -28 179 0 0 -1 93.09375 -86.21875 1 0 1
0 -213 -28 179 0 0 -1 93.09375 -86.203125 1 0 1
plaster_plasterwall029a
0 -215 -32 251 0 0 1 93.125 -86.21875 1 0 1
0 -213 -32 251 0 0 1 93.125 -86.203125 1 0 1
0 -213 -28 251 0 0 1 93.09375 -86.203125 1 0 1
plaster_plasterwall029a
0 -215 -32 251 0 0 1 93.125 -86.21875 1 0 1
0 -213 -28 251 0 0 1 93.09375 -86.203125 1 0 1
0 -215 -28 251 0 0 1 93.09375 -86.21875 1 0 1
plaster_plasterwall029a
0 -213 -28 179 0 1 0 -87.203125 -0.328125 1 0 1
0 -215 -28 179 0 1 0 -87.21875 -0.328125 1 0 1
0 -215 -28 251 0 1 0 -87.21875 0.234375 1 0 1
plaster_plasterwall029a
0 -213 -28 179 0 1 0 -87.203125 -0.328125 1 0 1
0 -215 -28 251 0 1 0 -87.21875 0.234375 1 0 1
0 -213 -28 251 0 1 0 -87.203125 0.234375 1 0 1
plaster_plasterwall029a
0 -213 -32 251 0 -1 0 -87.4375 -0.234375 1 0 1
0 -215 -32 251 0 -1 0 -87.453125 -0.234375 1 0 1
0 -215 -32 179 0 -1 0 -87.453125 -0.796875 1 0 1
plaster_plasterwall029a
0 -213 -32 251 0 -1 0 -87.4375 -0.234375 1 0 1
0 -215 -32 179 0 -1 0 -87.453125 -0.796875 1 0 1
0 -213 -32 179 0 -1 0 -87.4375 -0.796875 1 0 1
plaster_plasterwall029a
0 -213 -32 179 1 0 0 93.125 -0.328125 1 0 1
0 -213 -28 179 1 0 0 93.09375 -0.328125 1 0 1
0 -213 -28 251 1 0 0 93.09375 0.234375 1 0 1
plaster_plasterwall029a
0 -213 -32 179 1 0 0 93.125 -0.328125 1 0 1
0 -213 -28 251 1 0 0 93.09375 0.234375 1 0 1
0 -213 -32 251 1 0 0 93.125 0.234375 1 0 1
materials_pepsi2_arch_st_sidewalk02
0 -320 -44 25 0 0 1 93.21875 -87.03125 1 0 1
0 -312 -52 25 0 0 1 93.28125 -86.96875 1 0 1
0 -300 -56 25 0 0 1 93.3125 -86.875 1 0 1
materials_pepsi2_arch_st_sidewalk02
0 -320 -44 25 0 0 1 93.21875 -87.03125 1 0 1
0 -300 -56 25 0 0 1 93.3125 -86.875 1 0 1
0 -284 -56 25 0 0 1 93.3125 -86.75 1 0 1
materials_pepsi2_arch_st_sidewalk02
0 -320 -44 25 0 0 1 93.21875 -87.03125 1 0 1
0 -284 -56 25 0 0 1 93.3125 -86.75 1 0 1
0 -272 -52 25 0 0 1 93.28125 -86.65625 1 0 1
materials_pepsi2_arch_st_sidewalk02
0 -320 -44 25 0 0 1 93.21875 -87.03125 1 0 1
0 -272 -52 25 0 0 1 93.28125 -86.65625 1 0 1
0 -264 -44 25 0 0 1 93.21875 -86.59375 1 0 1
materials_pepsi2_arch_st_sidewalk02
0 -320 -44 25 0 0 1 93.21875 -87.03125 1 0 1
0 -264 -44 25 0 0 1 93.21875 -86.59375 1 0 1
0 -260 -32 25 0 0 1 93.125 -86.5625 1 0 1
materials_pepsi2_arch_st_sidewalk02
0 -320 -44 25 0 0 1 93.21875 -87.03125 1 0 1
0 -260 -32 25 0 0 1 93.125 -86.5625 1 0 1
0 -324 -32 25 0 0 1 93.125 -87.0625 1 0 1
goldeneye_caverns_cavernsconcretefloor02
0 -272 -52 25 0.316228 -0.948683 0 -88.494141 -1.5 1 0 1
0 -284 -56 25 0.316228 -0.948683 0 -88.587891 -1.5 1 0 1
0 -284 -56 17 0.316228 -0.948683 0 -88.587891 -1.5625 1 0 1
goldeneye_caverns_cavernsconcretefloor02
0 -272 -52 25 0.316228 -0.948683 0 -88.494141 -1.5 1 0 1
0 -284 -56 17 0.316228 -0.948683 0 -88.587891 -1.5625 1 0 1
0 -272 -52 17 0.316228 -0.948683 0 -88.494141 -1.5625 1 0 1
goldeneye_caverns_cavernsconcretefloor02
0 -264 -44 17 0.948683 -0.316228 0 92.380859 -1.5625 1 0 1
0 -260 -32 17 0.948683 -0.316228 0 92.287109 -1.5625 1 0 1
0 -260 -32 25 0.948683 -0.316228 0 92.287109 -1.5 1 0 1
goldeneye_caverns_cavernsconcretefloor02
0 -264 -44 17 0.948683 -0.316228 0 92.380859 -1.5625 1 0 1
0 -260 -32 25 0.948683 -0.316228 0 92.287109 -1.5 1 0 1
0 -264 -44 25 0.948683 -0.316228 0 92.380859 -1.5 1 0 1
goldeneye_caverns_cavernsconcretefloor02
0 -312 -52 25 -0.707107 -0.707107 0 -88.806641 -1.5 1 0 1
0 -320 -44 25 -0.707107 -0.707107 0 -88.869141 -1.5 1 0 1
0 -320 -44 17 -0.707107 -0.707107 0 -88.869141 -1.5625 1 0 1
goldeneye_caverns_cavernsconcretefloor02
0 -312 -52 25 -0.707107 -0.707107 0 -88.806641 -1.5 1 0 1
0 -320 -44 17 -0.707107 -0.707107 0 -88.869141 -1.5625 1 0 1
0 -312 -52 17 -0.707107 -0.707107 0 -88.806641 -1.5625 1 0 1
goldeneye_caverns_cavernsconcretefloor02
0 -272 -52 17 0.707107 -0.707107 0 -88.494141 -1.5625 1 0 1
0 -264 -44 17 0.707107 -0.707107 0 -88.431641 -1.5625 1 0 1
0 -264 -44 25 0.707107 -0.707107 0 -88.431641 -1.5 1 0 1
goldeneye_caverns_cavernsconcretefloor02
0 -272 -52 17 0.707107 -0.707107 0 -88.494141 -1.5625 1 0 1
0 -264 -44 25 0.707107 -0.707107 0 -88.431641 -1.5 1 0 1
0 -272 -52 25 0.707107 -0.707107 0 -88.494141 -1.5 1 0 1
goldeneye_caverns_cavernsconcretefloor02
0 -320 -44 25 -0.948683 -0.316228 0 92.380859 -1.5 1 0 1
0 -324 -32 25 -0.948683 -0.316228 0 92.287109 -1.5 1 0 1
0 -324 -32 17 -0.948683 -0.316228 0 92.287109 -1.5625 1 0 1
goldeneye_caverns_cavernsconcretefloor02
0 -320 -44 25 -0.948683 -0.316228 0 92.380859 -1.5 1 0 1
0 -324 -32 17 -0.948683 -0.316228 0 92.287109 -1.5625 1 0 1
0 -320 -44 17 -0.948683 -0.316228 0 92.380859 -1.5625 1 0 1
goldeneye_caverns_cavernsconcretefloor02
0 -300 -56 25 -0.316228 -0.948683 0 -88.712891 -1.5 1 0 1
0 -312 -52 25 -0.316228 -0.948683 0 -88.806641 -1.5 1 0 1
0 -312 -52 17 -0.316228 -0.948683 0 -88.806641 -1.5625 1 0 1
goldeneye_caverns_cavernsconcretefloor02
0 -300 -56 25 -0.316228 -0.948683 0 -88.712891 -1.5 1 0 1
0 -312 -52 17 -0.316228 -0.948683 0 -88.806641 -1.5625 1 0 1
0 -300 -56 17 -0.316228 -0.948683 0 -88.712891 -1.5625 1 0 1
goldeneye_caverns_cavernsconcretefloor02
0 -284 -56 25 0 -1 0 -88.587891 -1.5 1 0 1
0 -300 -56 25 0 -1 0 -88.712891 -1.5 1 0 1
0 -300 -56 17 0 -1 0 -88.712891 -1.5625 1 0 1
goldeneye_caverns_cavernsconcretefloor02
0 -284 -56 25 0 -1 0 -88.587891 -1.5 1 0 1
0 -300 -56 17 0 -1 0 -88.712891 -1.5625 1 0 1
0 -284 -56 17 0 -1 0 -88.587891 -1.5625 1 0 1
metal_metaldoor008a
0 -28 -24 136.999 0 1 0 -172.125 -1.125008 1 0 1
0 -28 -24 25 0 1 0 -172.125 -2 1 0 1
0 -32 -24 25 0 1 0 -172.1875 -2 1 0 1
metal_metaldoor008a
0 -28 -24 136.999 0 1 0 -172.125 -1.125008 1 0 1
0 -32 -24 25 0 1 0 -172.1875 -2 1 0 1
0 -32 -24 132.999 0 1 0 -172.1875 -1.156258 1 0 1
metal_metaldoor008a
0 -28 -32 25 0 -1 0 -172.125 -2 1 0 1
0 -28 -32 136.999 0 -1 0 -172.125 -1.125008 1 0 1
0 -32 -32 132.999 0 -1 0 -172.1875 -1.156258 1 0 1
metal_metaldoor008a
0 -28 -32 25 0 -1 0 -172.125 -2 1 0 1
0 -32 -32 132.999 0 -1 0 -172.1875 -1.156258 1 0 1
0 -32 -32 25 0 -1 0 -172.1875 -2 1 0 1
metal_metaldoor008a
0 -32 -32 25 -1 0 0 184.625 -2 1 0 1
0 -32 -32 132.999 -1 0 0 184.625 -1.156258 1 0 1
0 -32 -24 132.999 -1 0 0 184.5 -1.156258 1 0 1
metal_metaldoor008a
0 -32 -32 25 -1 0 0 184.625 -2 1 0 1
0 -32 -24 132.999 -1 0 0 184.5 -1.156258 1 0 1
0 -32 -24 25 -1 0 0 184.5 -2 1 0 1
wood_woodstair002a
0 -149 32 153 0 1 0 -231.178971 -30.5 1 0 1
0 -149 32 145 0 1 0 -231.178971 -31.5 1 0 1
0 -221 32 145 0 1 0 -232.678172 -31.5 1 0 1
wood_woodstair002a
0 -149 32 153 0 1 0 -231.178971 -30.5 1 0 1
0 -221 32 145 0 1 0 -232.678172 -31.5 1 0 1
0 -221 32 153 0 1 0 -232.678172 -30.5 1 0 1
wood_woodstair002c
0 -149 24 145 0 0 -1 184.375 -345.75 1 0 1
0 -221 24 145 0 0 -1 184.375 -348 1 0 1
0 -221 32 145 0 0 -1 184.25 -348 1 0 1
wood_woodstair002c
0 -149 24 145 0 0 -1 184.375 -345.75 1 0 1
0 -221 32 145 0 0 -1 184.25 -348 1 0 1
0 -149 32 145 0 0 -1 184.25 -345.75 1 0 1
wood_woodstair002c
0 -221 24 153 0 0 1 184.375 -348 1 0 1
0 -149 24 153 0 0 1 184.375 -345.75 1 0 1
0 -149 32 153 0 0 1 184.25 -345.75 1 0 1
wood_woodstair002c
0 -221 24 153 0 0 1 184.375 -348 1 0 1
0 -149 32 153 0 0 1 184.25 -345.75 1 0 1
0 -221 32 153 0 0 1 184.25 -348 1 0 1
wood_woodstair002c
0 -149 40 129 0 0 -1 184.125 -345.75 1 0 1
0 -221 40 129 0 0 -1 184.125 -348 1 0 1
0 -221 48 129 0 0 -1 184 -348 1 0 1
wood_woodstair002c
0 -149 40 129 0 0 -1 184.125 -345.75 1 0 1
0 -221 48 129 0 0 -1 184 -348 1 0 1
0 -149 48 129 0 0 -1 184 -345.75 1 0 1
wood_woodstair002c
0 -221 40 137 0 0 1 184.125 -348 1 0 1
0 -149 40 137 0 0 1 184.125 -345.75 1 0 1
0 -149 48 137 0 0 1 184 -345.75 1 0 1
wood_woodstair002c
0 -221 40 137 0 0 1 184.125 -348 1 0 1
0 -149 48 137 0 0 1 184 -345.75 1 0 1
0 -221 48 137 0 0 1 184 -348 1 0 1
wood_woodstair002a
0 -149 48 129 0 1 0 -231.178971 -33.5 1 0 1
0 -221 48 129 0 1 0 -232.678172 -33.5 1 0 1
0 -221 48 137 0 1 0 -232.678172 -32.5 1 0 1
wood_woodstair002a
0 -149 48 129 0 1 0 -231.178971 -33.5 1 0 1
0 -221 48 137 0 1 0 -232.678172 -32.5 1 0 1
0 -149 48 137 0 1 0 -231.178971 -32.5 1 0 1
wood_woodstair002a
0 -149 40 137 0 -1 0 -231.178971 -32.5 1 0 1
0 -221 40 137 0 -1 0 -232.678172 -32.5 1 0 1
0 -221 40 129 0 -1 0 -232.678172 -33.5 1 0 1
wood_woodstair002a
0 -149 40 137 0 -1 0 -231.178971 -32.5 1 0 1
0 -221 40 129 0 -1 0 -232.678172 -33.5 1 0 1
0 -149 40 129 0 -1 0 -231.178971 -33.5 1 0 1
wood_woodstair002c
0 124 -24 112.999 -1 0 0 158.935538 -8.125031 1 0 1
0 124 -24 121 -1 0 0 158.935538 -7.875 1 0 1
0 124 32 121 -1 0 0 158.185624 -7.875 1 0 1
wood_woodstair002c
0 124 -24 112.999 -1 0 0 158.935538 -8.125031 1 0 1
0 124 32 121 -1 0 0 158.185624 -7.875 1 0 1
0 124 32 112.999 -1 0 0 158.185624 -8.125031 1 0 1
wood_woodfloor007a
0 124 -24 121 0 0 1 -84.6875 -92.0625 1 0 1
0 132 -24 121 0 0 1 -84.625 -92.0625 1 0 1
0 132 32 121 0 0 1 -84.625 -91.625 1 0 1
wood_woodfloor007a
0 124 -24 121 0 0 1 -84.6875 -92.0625 1 0 1
0 132 32 121 0 0 1 -84.625 -91.625 1 0 1
0 124 32 121 0 0 1 -84.6875 -91.625 1 0 1
plaster_plasterwall029a
0 -268 -28 179 0 1 0 -87.625 -0.328125 1 0 1
0 -268 -28 177 0 1 0 -87.625 -0.34375 1 0 1
0 -316 -28 177 0 1 0 -88 -0.34375 1 0 1
plaster_plasterwall029a
0 -268 -28 179 0 1 0 -87.625 -0.328125 1 0 1
0 -316 -28 177 0 1 0 -88 -0.34375 1 0 1
0 -316 -28 179 0 1 0 -88 -0.328125 1 0 1
plaster_plasterwall029a
0 -268 -32 177 0 -1 0 -87.625 -0.34375 1 0 1
0 -268 -32 179 0 -1 0 -87.625 -0.328125 1 0 1
0 -316 -32 179 0 -1 0 -88 -0.328125 1 0 1
plaster_plasterwall029a
0 -268 -32 177 0 -1 0 -87.625 -0.34375 1 0 1
0 -316 -32 179 0 -1 0 -88 -0.328125 1 0 1
0 -316 -32 177 0 -1 0 -88 -0.34375 1 0 1
plaster_plasterwall029a
0 -268 -32 177 0 0 -1 93.125 -86.625 1 0 1
0 -316 -32 177 0 0 -1 93.125 -87 1 0 1
0 -316 -28 177 0 0 -1 93.09375 -87 1 0 1
plaster_plasterwall029a
0 -268 -32 177 0 0 -1 93.125 -86.625 1 0 1
0 -316 -28 177 0 0 -1 93.09375 -87 1 0 1
0 -268 -28 177 0 0 -1 93.09375 -86.625 1 0 1
plaster_plasterwall029a
0 -316 -32 179 0 0 1 93.125 -87 1 0 1
0 -268 -32 179 0 0 1 93.125 -86.625 1 0 1
0 -268 -28 179 0 0 1 93.09375 -86.625 1 0 1
plaster_plasterwall029a
0 -316 -32 179 0 0 1 93.125 -87 1 0 1
0 -268 -28 179 0 0 1 93.09375 -86.625 1 0 1
0 -316 -28 179 0 0 1 93.09375 -87 1 0 1
wood_woodstair002c
0 68 -24 184.999 -1 0 0 158.935538 -5.875031 1 0 1
0 68 -24 193 -1 0 0 158.935538 -5.625 1 0 1
0 68 32 193 -1 0 0 158.185624 -5.625 1 0 1
wood_woodstair002c
0 68 -24 184.999 -1 0 0 158.935538 -5.875031 1 0 1
0 68 32 193 -1 0 0 158.185624 -5.625 1 0 1
0 68 32 184.999 -1 0 0 158.185624 -5.875031 1 0 1
wood_woodfloor007a
0 68 -24 193 0 0 1 -85.125 -92.0625 1 0 1
0 76 -24 193 0 0 1 -85.0625 -92.0625 1 0 1
0 76 32 193 0 0 1 -85.0625 -91.625 1 0 1
wood_woodfloor007a
0 68 -24 193 0 0 1 -85.125 -92.0625 1 0 1
0 76 32 193 0 0 1 -85.0625 -91.625 1 0 1
0 68 32 193 0 0 1 -85.125 -91.625 1 0 1
wood_woodfloor008a
0 -28 -48 17 0 -1 0 -86 -1.34375 1 0 1
0 -28 -48 25 0 -1 0 -86 -1.28125 1 0 1
0 -84 -48 25 0 -1 0 -86.4375 -1.28125 1 0 1
wood_woodfloor008a
0 -28 -48 17 0 -1 0 -86 -1.34375 1 0 1
0 -84 -48 25 0 -1 0 -86.4375 -1.28125 1 0 1
0 -84 -48 17 0 -1 0 -86.4375 -1.34375 1 0 1
wood_woodfloor008a
0 -84 -48 17 -1 0 0 -2.40625 -92 1 0 1
0 -84 -48 25 -1 0 0 -2.34375 -92 1 0 1
0 -84 -32 25 -1 0 0 -2.34375 -91.875 1 0 1
wood_woodfloor008a
0 -84 -48 17 -1 0 0 -2.40625 -92 1 0 1
0 -84 -32 25 -1 0 0 -2.34375 -91.875 1 0 1
0 -84 -32 17 -1 0 0 -2.40625 -91.875 1 0 1
wood_woodfloor008a
0 -28 -48 25 1 0 0 -2.34375 -92 1 0 1
0 -28 -48 17 1 0 0 -2.40625 -92 1 0 1
0 -28 -32 17 1 0 0 -2.40625 -91.875 1 0 1
wood_woodfloor008a
0 -28 -48 25 1 0 0 -2.34375 -92 1 0 1
0 -28 -32 17 1 0 0 -2.40625 -91.875 1 0 1
0 -28 -32 25 1 0 0 -2.34375 -91.875 1 0 1
wood_woodfloor008a
0 -84 -48 25 0 0 1 -87 -92 1 0 1
0 -28 -48 25 0 0 1 -86.5625 -92 1 0 1
0 -28 -32 25 0 0 1 -86.5625 -91.875 1 0 1
wood_woodfloor008a
0 -84 -48 25 0 0 1 -87 -92 1 0 1
0 -28 -32 25 0 0 1 -86.5625 -91.875 1 0 1
0 -84 -32 25 0 0 1 -87 -91.875 1 0 1
wood_woodfloor007a
0 116 -24 113 0 0 1 -84.75 -92.0625 1 0 1
0 124 -24 113 0 0 1 -84.6875 -92.0625 1 0 1
0 124 32 113 0 0 1 -84.6875 -91.625 1 0 1
wood_woodfloor007a
0 116 -24 113 0 0 1 -84.75 -92.0625 1 0 1
0 124 32 113 0 0 1 -84.6875 -91.625 1 0 1
0 116 32 113 0 0 1 -84.75 -91.625 1 0 1
wood_woodstair002c
0 116 -24 113 -1 0 0 158.935538 -8.125 1 0 1
0 116 32 113 -1 0 0 158.185624 -8.125 1 0 1
0 116 32 104.999 -1 0 0 158.185624 -8.375031 1 0 1
wood_woodstair002c
0 116 -24 113 -1 0 0 158.935538 -8.125 1 0 1
0 116 32 104.999 -1 0 0 158.185624 -8.375031 1 0 1
0 116 -24 104.999 -1 0 0 158.935538 -8.375031 1 0 1
plaster_plasterwall029a
0 -167 -28 251 0 1 0 -86.84375 0.234375 1 0 1
0 -167 -28 179 0 1 0 -86.84375 -0.328125 1 0 1
0 -169 -28 179 0 1 0 -86.859375 -0.328125 1 0 1
plaster_plasterwall029a
0 -167 -28 251 0 1 0 -86.84375 0.234375 1 0 1
0 -169 -28 179 0 1 0 -86.859375 -0.328125 1 0 1
0 -169 -28 251 0 1 0 -86.859375 0.234375 1 0 1
plaster_plasterwall029a
0 -167 -32 179 0 -1 0 -86.84375 -0.328125 1 0 1
0 -167 -32 251 0 -1 0 -86.84375 0.234375 1 0 1
0 -169 -32 251 0 -1 0 -86.859375 0.234375 1 0 1
plaster_plasterwall029a
0 -167 -32 179 0 -1 0 -86.84375 -0.328125 1 0 1
0 -169 -32 251 0 -1 0 -86.859375 0.234375 1 0 1
0 -169 -32 179 0 -1 0 -86.859375 -0.328125 1 0 1
plaster_plasterwall029a
0 -169 -32 179 -1 0 0 93.125 -0.328125 1 0 1
0 -169 -32 251 -1 0 0 93.125 0.234375 1 0 1
0 -169 -28 251 -1 0 0 93.09375 0.234375 1 0 1
plaster_plasterwall029a
0 -169 -32 179 -1 0 0 93.125 -0.328125 1 0 1
0 -169 -28 251 -1 0 0 93.09375 0.234375 1 0 1
0 -169 -28 179 -1 0 0 93.09375 -0.328125 1 0 1
plaster_plasterwall029a
0 -167 -32 179 0 0 -1 93.125 -85.84375 1 0 1
0 -169 -32 179 0 0 -1 93.125 -85.859375 1 0 1
0 -169 -28 179 0 0 -1 93.09375 -85.859375 1 0 1
plaster_plasterwall029a
0 -167 -32 179 0 0 -1 93.125 -85.84375 1 0 1
0 -169 -28 179 0 0 -1 93.09375 -85.859375 1 0 1
0 -167 -28 179 0 0 -1 93.09375 -85.84375 1 0 1
plaster_plasterwall029a
0 -169 -32 251 0 0 1 93.125 -85.859375 1 0 1
0 -167 -32 251 0 0 1 93.125 -85.84375 1 0 1
0 -167 -28 251 0 0 1 93.09375 -85.84375 1 0 1
plaster_plasterwall029a
0 -169 -32 251 0 0 1 93.125 -85.859375 1 0 1
0 -167 -28 251 0 0 1 93.09375 -85.84375 1 0 1
0 -169 -28 251 0 0 1 93.09375 -85.859375 1 0 1
wood_woodfloor007a
0 100 -24 225 0 0 1 -84.875 -92.0625 1 0 1
0 108 -24 225 0 0 1 -84.8125 -92.0625 1 0 1
0 108 32 225 0 0 1 -84.8125 -91.625 1 0 1
wood_woodfloor007a
0 100 -24 225 0 0 1 -84.875 -92.0625 1 0 1
0 108 32 225 0 0 1 -84.8125 -91.625 1 0 1
0 100 32 225 0 0 1 -84.875 -91.625 1 0 1
wood_woodstair002c
0 100 -24 225 -1 0 0 158.935538 -4.625 1 0 1
0 100 32 225 -1 0 0 158.185624 -4.625 1 0 1
0 100 32 216.999 -1 0 0 158.185624 -4.875031 1 0 1
wood_woodstair002c
0 100 -24 225 -1 0 0 158.935538 -4.625 1 0 1
0 100 32 216.999 -1 0 0 158.185624 -4.875031 1 0 1
0 100 -24 216.999 -1 0 0 158.935538 -4.875031 1 0 1
wood_woodstair002c
0 84 -24 72.999 -1 0 0 158.935538 -9.375031 1 0 1
0 84 -24 81 -1 0 0 158.935538 -9.125 1 0 1
0 84 32 81 -1 0 0 158.185624 -9.125 1 0 1
wood_woodstair002c
0 84 -24 72.999 -1 0 0 158.935538 -9.375031 1 0 1
0 84 32 81 -1 0 0 158.185624 -9.125 1 0 1
0 84 32 72.999 -1 0 0 158.185624 -9.375031 1 0 1
wood_woodfloor007a
0 84 -24 81 0 0 1 -85 -92.0625 1 0 1
0 92 -24 81 0 0 1 -84.9375 -92.0625 1 0 1
0 92 32 81 0 0 1 -84.9375 -91.625 1 0 1
wood_woodfloor007a
0 84 -24 81 0 0 1 -85 -92.0625 1 0 1
0 92 32 81 0 0 1 -84.9375 -91.625 1 0 1
0 84 32 81 0 0 1 -85 -91.625 1 0 1
plaster_plasterwall029a
0 -270 -32 251 0 0 1 93.125 -86.640625 1 0 1
0 -268 -32 251 0 0 1 93.125 -86.625 1 0 1
0 -268 -28 251 0 0 1 93.09375 -86.625 1 0 1
plaster_plasterwall029a
0 -270 -32 251 0 0 1 93.125 -86.640625 1 0 1
0 -268 -28 251 0 0 1 93.09375 -86.625 1 0 1
0 -270 -28 251 0 0 1 93.09375 -86.640625 1 0 1
plaster_plasterwall029a
0 -270 -28 179 0 1 0 -87.640625 -0.328125 1 0 1
0 -270 -28 251 0 1 0 -87.640625 0.234375 1 0 1
0 -268 -28 251 0 1 0 -87.625 0.234375 1 0 1
plaster_plasterwall029a
0 -270 -28 179 0 1 0 -87.640625 -0.328125 1 0 1
0 -268 -28 251 0 1 0 -87.625 0.234375 1 0 1
0 -268 -28 179 0 1 0 -87.625 -0.328125 1 0 1
plaster_plasterwall029a
0 -268 -32 179 0 -1 0 -87.625 -0.328125 1 0 1
0 -268 -32 251 0 -1 0 -87.625 0.234375 1 0 1
0 -270 -32 251 0 -1 0 -87.640625 0.234375 1 0 1
plaster_plasterwall029a
0 -268 -32 179 0 -1 0 -87.625 -0.328125 1 0 1
0 -270 -32 251 0 -1 0 -87.640625 0.234375 1 0 1
0 -270 -32 179 0 -1 0 -87.640625 -0.328125 1 0 1
plaster_plasterwall029a
0 -270 -32 179 -1 0 0 93.125 -0.328125 1 0 1
0 -270 -32 251 -1 0 0 93.125 0.234375 1 0 1
0 -270 -28 251 -1 0 0 93.09375 0.234375 1 0 1
plaster_plasterwall029a
0 -270 -32 179 -1 0 0 93.125 -0.328125 1 0 1
0 -270 -28 251 -1 0 0 93.09375 0.234375 1 0 1
0 -270 -28 179 -1 0 0 93.09375 -0.328125 1 0 1
plaster_plasterwall029a
0 -268 -32 179 0 0 -1 93.125 -86.625 1 0 1
0 -270 -32 179 0 0 -1 93.125 -86.640625 1 0 1
0 -270 -28 179 0 0 -1 93.09375 -86.640625 1 0 1
plaster_plasterwall029a
0 -268 -32 179 0 0 -1 93.125 -86.625 1 0 1
0 -270 -28 179 0 0 -1 93.09375 -86.640625 1 0 1
0 -268 -28 179 0 0 -1 93.09375 -86.625 1 0 1
plaster_plasterwall029a
0 -167 -28 179 0 1 0 -86.84375 -0.328125 1 0 1
0 -167 -28 177 0 1 0 -86.84375 -0.34375 1 0 1
0 -215 -28 177 0 1 0 -87.21875 -0.34375 1 0 1
plaster_plasterwall029a
0 -167 -28 179 0 1 0 -86.84375 -0.328125 1 0 1
0 -215 -28 177 0 1 0 -87.21875 -0.34375 1 0 1
0 -215 -28 179 0 1 0 -87.21875 -0.328125 1 0 1
plaster_plasterwall029a
0 -167 -32 177 0 -1 0 -86.84375 -0.34375 1 0 1
0 -167 -32 179 0 -1 0 -86.84375 -0.328125 1 0 1
0 -215 -32 179 0 -1 0 -87.21875 -0.328125 1 0 1
plaster_plasterwall029a
0 -167 -32 177 0 -1 0 -86.84375 -0.34375 1 0 1
0 -215 -32 179 0 -1 0 -87.21875 -0.328125 1 0 1
0 -215 -32 177 0 -1 0 -87.21875 -0.34375 1 0 1
plaster_plasterwall029a
0 -215 -32 179 0 0 1 93.125 -86.21875 1 0 1
0 -167 -32 179 0 0 1 93.125 -85.84375 1 0 1
0 -167 -28 179 0 0 1 93.09375 -85.84375 1 0 1
plaster_plasterwall029a
0 -215 -32 179 0 0 1 93.125 -86.21875 1 0 1
0 -167 -28 179 0 0 1 93.09375 -85.84375 1 0 1
0 -215 -28 179 0 0 1 93.09375 -86.21875 1 0 1
wood_woodstair002c
0 36 -24 152.999 -1 0 0 158.935538 -6.875031 1 0 1
0 36 -24 161 -1 0 0 158.935538 -6.625 1 0 1
0 36 32 161 -1 0 0 158.185624 -6.625 1 0 1
wood_woodstair002c
0 36 -24 152.999 -1 0 0 158.935538 -6.875031 1 0 1
0 36 32 161 -1 0 0 158.185624 -6.625 1 0 1
0 36 32 152.999 -1 0 0 158.185624 -6.875031 1 0 1
wood_woodfloor007a
0 36 -24 161 0 0 1 -85.375 -92.0625 1 0 1
0 44 -24 161 0 0 1 -85.3125 -92.0625 1 0 1
0 44 32 161 0 0 1 -85.3125 -91.625 1 0 1
wood_woodfloor007a
0 36 -24 161 0 0 1 -85.375 -92.0625 1 0 1
0 44 32 161 0 0 1 -85.3125 -91.625 1 0 1
0 36 32 161 0 0 1 -85.375 -91.625 1 0 1
wood_woodstair002a
0 -149 56 8 0 1 0 -230.19069 -48.5 1 0 1
0 -149 56 0 0 1 0 -230.19069 -49.5 1 0 1
0 -221 56 0 0 1 0 -231.68989 -49.5 1 0 1
wood_woodstair002a
0 -149 56 8 0 1 0 -230.19069 -48.5 1 0 1
0 -221 56 0 0 1 0 -231.68989 -49.5 1 0 1
0 -221 56 8 0 1 0 -231.68989 -48.5 1 0 1
wood_woodstair002a
0 -149 48 0 0 -1 0 -230.19069 -49.5 1 0 1
0 -149 48 8 0 -1 0 -230.19069 -48.5 1 0 1
0 -221 48 8 0 -1 0 -231.68989 -48.5 1 0 1
wood_woodstair002a
0 -149 48 0 0 -1 0 -230.19069 -49.5 1 0 1
0 -221 48 8 0 -1 0 -231.68989 -48.5 1 0 1
0 -221 48 0 0 -1 0 -231.68989 -49.5 1 0 1
wood_woodstair002c
0 -149 48 0 0 0 -1 183.625 -344.765625 1 0 1
0 -221 48 0 0 0 -1 183.625 -347.015625 1 0 1
0 -221 56 0 0 0 -1 183.5 -347.015625 1 0 1
wood_woodstair002c
0 -149 48 0 0 0 -1 183.625 -344.765625 1 0 1
0 -221 56 0 0 0 -1 183.5 -347.015625 1 0 1
0 -149 56 0 0 0 -1 183.5 -344.765625 1 0 1
wood_woodstair002c
0 -221 48 8 0 0 1 183.625 -347.015625 1 0 1
0 -149 48 8 0 0 1 183.625 -344.765625 1 0 1
0 -149 56 8 0 0 1 183.5 -344.765625 1 0 1
wood_woodstair002c
0 -221 48 8 0 0 1 183.625 -347.015625 1 0 1
0 -149 56 8 0 0 1 183.5 -344.765625 1 0 1
0 -221 56 8 0 0 1 183.5 -347.015625 1 0 1
wood_woodstair002c
0 -149 40 8 0 0 -1 183.375 -344.765625 1 0 1
0 -221 40 8 0 0 -1 183.375 -347.015625 1 0 1
0 -221 48 8 0 0 -1 183.25 -347.015625 1 0 1
wood_woodstair002c
0 -149 40 8 0 0 -1 183.375 -344.765625 1 0 1
0 -221 48 8 0 0 -1 183.25 -347.015625 1 0 1
0 -149 48 8 0 0 -1 183.25 -344.765625 1 0 1
wood_woodstair002c
0 -221 40 16 0 0 1 183.375 -347.015625 1 0 1
0 -149 40 16 0 0 1 183.375 -344.765625 1 0 1
0 -149 48 16 0 0 1 183.25 -344.765625 1 0 1
wood_woodstair002c
0 -221 40 16 0 0 1 183.375 -347.015625 1 0 1
0 -149 48 16 0 0 1 183.25 -344.765625 1 0 1
0 -221 48 16 0 0 1 183.25 -347.015625 1 0 1
wood_woodstair002a
0 -149 48 8 0 1 0 -230.19069 -48.5 1 0 1
0 -221 48 8 0 1 0 -231.68989 -48.5 1 0 1
0 -221 48 16 0 1 0 -231.68989 -47.5 1 0 1
wood_woodstair002a
0 -149 48 8 0 1 0 -230.19069 -48.5 1 0 1
0 -221 48 16 0 1 0 -231.68989 -47.5 1 0 1
0 -149 48 16 0 1 0 -230.19069 -47.5 1 0 1
wood_woodstair002a
0 -149 40 16 0 -1 0 -230.19069 -47.5 1 0 1
0 -221 40 16 0 -1 0 -231.68989 -47.5 1 0 1
0 -221 40 8 0 -1 0 -231.68989 -48.5 1 0 1
wood_woodstair002a
0 -149 40 16 0 -1 0 -230.19069 -47.5 1 0 1
0 -221 40 8 0 -1 0 -231.68989 -48.5 1 0 1
0 -149 40 8 0 -1 0 -230.19069 -48.5 1 0 1
metal_metaldoor008a
0 -28 -24 137 0 1 0 -172.125 -1.125 1 0 1
0 -32 -24 133 0 1 0 -172.1875 -1.15625 1 0 1
0 -80 -24 133 0 1 0 -172.9375 -1.15625 1 0 1
metal_metaldoor008a
0 -28 -24 137 0 1 0 -172.125 -1.125 1 0 1
0 -80 -24 133 0 1 0 -172.9375 -1.15625 1 0 1
0 -84 -24 137 0 1 0 -173 -1.125 1 0 1
metal_metaldoor008a
0 -32 -32 133 0 -1 0 -172.1875 -1.15625 1 0 1
0 -28 -32 137 0 -1 0 -172.125 -1.125 1 0 1
0 -84 -32 137 0 -1 0 -173 -1.125 1 0 1
metal_metaldoor008a
0 -32 -32 133 0 -1 0 -172.1875 -1.15625 1 0 1
0 -84 -32 137 0 -1 0 -173 -1.125 1 0 1
0 -80 -32 133 0 -1 0 -172.9375 -1.15625 1 0 1
metal_metaldoor008a
0 -80 -24 133 0 0 -1 184.5 -85.625 1 0 1
0 -32 -24 133 0 0 -1 184.5 -85.25 1 0 1
0 -32 -32 133 0 0 -1 184.625 -85.25 1 0 1
metal_metaldoor008a
0 -80 -24 133 0 0 -1 184.5 -85.625 1 0 1
0 -32 -32 133 0 0 -1 184.625 -85.25 1 0 1
0 -80 -32 133 0 0 -1 184.625 -85.625 1 0 1
concrete_concreteceiling004a
0 -239 -48 273 0 -0.447214 -0.894427 93.25 -86.390625 1 0 1
0 -247 -48 273 0 -0.447214 -0.894427 93.25 -86.453125 1 0 1
0 -247 -32 265 0 -0.447214 -0.894427 93.125 -86.453125 1 0 1
concrete_concreteceiling004a
0 -239 -48 273 0 -0.447214 -0.894427 93.25 -86.390625 1 0 1
0 -247 -32 265 0 -0.447214 -0.894427 93.125 -86.453125 1 0 1
0 -239 -32 265 0 -0.447214 -0.894427 93.125 -86.390625 1 0 1
brick_brickwall053e
0 -239 -48 281 0 -1 0 -87.390625 0.75 1 0 1
0 -247 -48 281 0 -1 0 -87.453125 0.75 1 0 1
0 -247 -48 273 0 -1 0 -87.453125 0.6875 1 0 1
brick_brickwall053e
0 -239 -48 281 0 -1 0 -87.390625 0.75 1 0 1
0 -247 -48 273 0 -1 0 -87.453125 0.6875 1 0 1
0 -239 -48 273 0 -1 0 -87.390625 0.6875 1 0 1
brick_brickwall053e
0 -247 -48 281 -1 0 0 93.25 0.75 1 0 1
0 -247 -32 281 -1 0 0 93.125 0.75 1 0 1
0 -247 -32 265 -1 0 0 93.125 0.625 1 0 1
brick_brickwall053e
0 -247 -48 281 -1 0 0 93.25 0.75 1 0 1
0 -247 -32 265 -1 0 0 93.125 0.625 1 0 1
0 -247 -48 273 -1 0 0 93.25 0.6875 1 0 1
brick_brickwall053e
0 -239 -32 281 1 0 0 93.125 0.75 1 0 1
0 -239 -48 281 1 0 0 93.25 0.75 1 0 1
0 -239 -48 273 1 0 0 93.25 0.6875 1 0 1
brick_brickwall053e
0 -239 -32 281 1 0 0 93.125 0.75 1 0 1
0 -239 -48 273 1 0 0 93.25 0.6875 1 0 1
0 -239 -32 265 1 0 0 93.125 0.625 1 0 1
plaster_plasterwall029a
0 -213 -28 123 0 1 0 -87.203125 -0.765625 1 0 1
0 -213 -28 51 0 1 0 -87.203125 -1.328125 1 0 1
0 -215 -28 51 0 1 0 -87.21875 -1.328125 1 0 1
plaster_plasterwall029a
0 -213 -28 123 0 1 0 -87.203125 -0.765625 1 0 1
0 -215 -28 51 0 1 0 -87.21875 -1.328125 1 0 1
0 -215 -28 123 0 1 0 -87.21875 -0.765625 1 0 1
plaster_plasterwall029a
0 -213 -32 51 0 -1 0 -87.4375 -1.796875 1 0 1
0 -213 -32 123 0 -1 0 -87.4375 -1.234375 1 0 1
0 -215 -32 123 0 -1 0 -87.453125 -1.234375 1 0 1
plaster_plasterwall029a
0 -213 -32 51 0 -1 0 -87.4375 -1.796875 1 0 1
0 -215 -32 123 0 -1 0 -87.453125 -1.234375 1 0 1
0 -215 -32 51 0 -1 0 -87.453125 -1.796875 1 0 1
plaster_plasterwall029a
0 -215 -32 51 -1 0 0 93.125 -1.328125 1 0 1
0 -215 -32 123 -1 0 0 93.125 -0.765625 1 0 1
0 -215 -28 123 -1 0 0 93.09375 -0.765625 1 0 1
plaster_plasterwall029a
0 -215 -32 51 -1 0 0 93.125 -1.328125 1 0 1
0 -215 -28 123 -1 0 0 93.09375 -0.765625 1 0 1
0 -215 -28 51 -1 0 0 93.09375 -1.328125 1 0 1
plaster_plasterwall029a
0 -213 -32 123 1 0 0 93.125 -0.765625 1 0 1
0 -213 -32 51 1 0 0 93.125 -1.328125 1 0 1
0 -213 -28 51 1 0 0 93.09375 -1.328125 1 0 1
plaster_plasterwall029a
0 -213 -32 123 1 0 0 93.125 -0.765625 1 0 1
0 -213 -28 51 1 0 0 93.09375 -1.328125 1 0 1
0 -213 -28 123 1 0 0 93.09375 -0.765625 1 0 1
plaster_plasterwall029a
0 -213 -32 51 0 0 -1 93.125 -86.203125 1 0 1
0 -215 -32 51 0 0 -1 93.125 -86.21875 1 0 1
0 -215 -28 51 0 0 -1 93.09375 -86.21875 1 0 1
plaster_plasterwall029a
0 -213 -32 51 0 0 -1 93.125 -86.203125 1 0 1
0 -215 -28 51 0 0 -1 93.09375 -86.21875 1 0 1
0 -213 -28 51 0 0 -1 93.09375 -86.203125 1 0 1
plaster_plasterwall029a
0 -215 -32 123 0 0 1 93.125 -86.21875 1 0 1
0 -213 -32 123 0 0 1 93.125 -86.203125 1 0 1
0 -213 -28 123 0 0 1 93.09375 -86.203125 1 0 1
plaster_plasterwall029a
0 -215 -32 123 0 0 1 93.125 -86.21875 1 0 1
0 -213 -28 123 0 0 1 93.09375 -86.203125 1 0 1
0 -215 -28 123 0 0 1 93.09375 -86.21875 1 0 1
wood_woodstair002c
0 108 -24 224.999 -1 0 0 158.935538 -4.625031 1 0 1
0 108 -24 233 -1 0 0 158.935538 -4.375 1 0 1
0 108 32 233 -1 0 0 158.185624 -4.375 1 0 1
wood_woodstair002c
0 108 -24 224.999 -1 0 0 158.935538 -4.625031 1 0 1
0 108 32 233 -1 0 0 158.185624 -4.375 1 0 1
0 108 32 224.999 -1 0 0 158.185624 -4.625031 1 0 1
wood_woodfloor007a
0 108 -24 233 0 0 1 -84.8125 -92.0625 1 0 1
0 116 -24 233 0 0 1 -84.75 -92.0625 1 0 1
0 116 32 233 0 0 1 -84.75 -91.625 1 0 1
wood_woodfloor007a
0 108 -24 233 0 0 1 -84.8125 -92.0625 1 0 1
0 116 32 233 0 0 1 -84.75 -91.625 1 0 1
0 108 32 233 0 0 1 -84.8125 -91.625 1 0 1
wood_woodstair002c
0 156 -24 144.999 -1 0 0 158.935538 -7.125031 1 0 1
0 156 -24 153 -1 0 0 158.935538 -6.875 1 0 1
0 156 32 153 -1 0 0 158.185624 -6.875 1 0 1
wood_woodstair002c
0 156 -24 144.999 -1 0 0 158.935538 -7.125031 1 0 1
0 156 32 153 -1 0 0 158.185624 -6.875 1 0 1
0 156 32 144.999 -1 0 0 158.185624 -7.125031 1 0 1
wood_woodfloor007a
0 156 -24 153 0 0 1 -84.4375 -92.0625 1 0 1
0 164 -24 153 0 0 1 -84.375 -92.0625 1 0 1
0 164 32 153 0 0 1 -84.375 -91.625 1 0 1
wood_woodfloor007a
0 156 -24 153 0 0 1 -84.4375 -92.0625 1 0 1
0 164 32 153 0 0 1 -84.375 -91.625 1 0 1
0 156 32 153 0 0 1 -84.4375 -91.625 1 0 1
wood_woodfloor007a
0 132 -24 129 0 0 1 -84.625 -92.0625 1 0 1
0 140 -24 129 0 0 1 -84.5625 -92.0625 1 0 1
0 140 32 129 0 0 1 -84.5625 -91.625 1 0 1
wood_woodfloor007a
0 132 -24 129 0 0 1 -84.625 -92.0625 1 0 1
0 140 32 129 0 0 1 -84.5625 -91.625 1 0 1
0 132 32 129 0 0 1 -84.625 -91.625 1 0 1
wood_woodstair002c
0 132 -24 129 -1 0 0 158.935538 -7.625 1 0 1
0 132 32 129 -1 0 0 158.185624 -7.625 1 0 1
0 132 32 120.999 -1 0 0 158.185624 -7.875031 1 0 1
wood_woodstair002c
0 132 -24 129 -1 0 0 158.935538 -7.625 1 0 1
0 132 32 120.999 -1 0 0 158.185624 -7.875031 1 0 1
0 132 -24 120.999 -1 0 0 158.935538 -7.875031 1 0 1
wood_woodstair002a
0 -149 32 25 0 1 0 -231.200456 -46.5 1 0 1
0 -149 32 17 0 1 0 -231.200456 -47.5 1 0 1
0 -221 32 17 0 1 0 -232.699656 -47.5 1 0 1
wood_woodstair002a
0 -149 32 25 0 1 0 -231.200456 -46.5 1 0 1
0 -221 32 17 0 1 0 -232.699656 -47.5 1 0 1
0 -221 32 25 0 1 0 -232.699656 -46.5 1 0 1
wood_woodstair002c
0 -149 24 17 0 0 -1 184.375 -345.78125 1 0 1
0 -221 24 17 0 0 -1 184.375 -348.03125 1 0 1
0 -221 32 17 0 0 -1 184.25 -348.03125 1 0 1
wood_woodstair002c
0 -149 24 17 0 0 -1 184.375 -345.78125 1 0 1
0 -221 32 17 0 0 -1 184.25 -348.03125 1 0 1
0 -149 32 17 0 0 -1 184.25 -345.78125 1 0 1
wood_woodfloor008a
0 -221 24 25 0 0 1 -87.257812 -91 1 0 1
0 -149 24 25 0 0 1 -86.695312 -91 1 0 1
0 -149 32 25 0 0 1 -86.695312 -90.9375 1 0 1
wood_woodfloor008a
0 -221 24 25 0 0 1 -87.257812 -91 1 0 1
0 -149 32 25 0 0 1 -86.695312 -90.9375 1 0 1
0 -221 32 25 0 0 1 -87.257812 -90.9375 1 0 1
wood_woodfloor007a
0 116 -24 241 0 0 1 -84.75 -92.0625 1 0 1
0 124 -24 241 0 0 1 -84.6875 -92.0625 1 0 1
0 124 32 241 0 0 1 -84.6875 -91.625 1 0 1
wood_woodfloor007a
0 116 -24 241 0 0 1 -84.75 -92.0625 1 0 1
0 124 32 241 0 0 1 -84.6875 -91.625 1 0 1
0 116 32 241 0 0 1 -84.75 -91.625 1 0 1
wood_woodstair002c
0 116 -24 241 -1 0 0 158.935538 -4.125 1 0 1
0 116 32 241 -1 0 0 158.185624 -4.125 1 0 1
0 116 32 232.999 -1 0 0 158.185624 -4.375031 1 0 1
wood_woodstair002c
0 116 -24 241 -1 0 0 158.935538 -4.125 1 0 1
0 116 32 232.999 -1 0 0 158.185624 -4.375031 1 0 1
0 116 -24 232.999 -1 0 0 158.935538 -4.375031 1 0 1
plaster_plasterwall029a
0 -268 -28 253 0 1 0 -87.625 0.25 1 0 1
0 -268 -28 251 0 1 0 -87.625 0.234375 1 0 1
0 -316 -28 251 0 1 0 -88 0.234375 1 0 1
plaster_plasterwall029a
0 -268 -28 253 0 1 0 -87.625 0.25 1 0 1
0 -316 -28 251 0 1 0 -88 0.234375 1 0 1
0 -316 -28 253 0 1 0 -88 0.25 1 0 1
plaster_plasterwall029a
0 -268 -32 251 0 -1 0 -87.859375 -0.234375 1 0 1
0 -268 -32 253 0 -1 0 -87.859375 -0.21875 1 0 1
0 -316 -32 253 0 -1 0 -88.234375 -0.21875 1 0 1
plaster_plasterwall029a
0 -268 -32 251 0 -1 0 -87.859375 -0.234375 1 0 1
0 -316 -32 253 0 -1 0 -88.234375 -0.21875 1 0 1
0 -316 -32 251 0 -1 0 -88.234375 -0.234375 1 0 1
plaster_plasterwall029a
0 -268 -32 251 0 0 -1 93.125 -86.625 1 0 1
0 -316 -32 251 0 0 -1 93.125 -87 1 0 1
0 -316 -28 251 0 0 -1 93.09375 -87 1 0 1
plaster_plasterwall029a
0 -268 -32 251 0 0 -1 93.125 -86.625 1 0 1
0 -316 -28 251 0 0 -1 93.09375 -87 1 0 1
0 -268 -28 251 0 0 -1 93.09375 -86.625 1 0 1
plaster_plasterwall029a
0 -316 -32 253 0 0 1 93.125 -87 1 0 1
0 -268 -32 253 0 0 1 93.125 -86.625 1 0 1
0 -268 -28 253 0 0 1 93.09375 -86.625 1 0 1
plaster_plasterwall029a
0 -316 -32 253 0 0 1 93.125 -87 1 0 1
0 -268 -28 253 0 0 1 93.09375 -86.625 1 0 1
0 -316 -28 253 0 0 1 93.09375 -87 1 0 1
wood_woodstair002a
0 -149 40 145 0 1 0 -231.178971 -31.5 1 0 1
0 -149 40 137 0 1 0 -231.178971 -32.5 1 0 1
0 -221 40 137 0 1 0 -232.678172 -32.5 1 0 1
wood_woodstair002a
0 -149 40 145 0 1 0 -231.178971 -31.5 1 0 1
0 -221 40 137 0 1 0 -232.678172 -32.5 1 0 1
0 -221 40 145 0 1 0 -232.678172 -31.5 1 0 1
wood_woodstair002a
0 -149 32 137 0 -1 0 -231.178971 -32.5 1 0 1
0 -149 32 145 0 -1 0 -231.178971 -31.5 1 0 1
0 -221 32 145 0 -1 0 -232.678172 -31.5 1 0 1
wood_woodstair002a
0 -149 32 137 0 -1 0 -231.178971 -32.5 1 0 1
0 -221 32 145 0 -1 0 -232.678172 -31.5 1 0 1
0 -221 32 137 0 -1 0 -232.678172 -32.5 1 0 1
wood_woodstair002c
0 -149 32 137 0 0 -1 184.25 -345.75 1 0 1
0 -221 32 137 0 0 -1 184.25 -348 1 0 1
0 -221 40 137 0 0 -1 184.125 -348 1 0 1
wood_woodstair002c
0 -149 32 137 0 0 -1 184.25 -345.75 1 0 1
0 -221 40 137 0 0 -1 184.125 -348 1 0 1
0 -149 40 137 0 0 -1 184.125 -345.75 1 0 1
wood_woodstair002c
0 -221 32 145 0 0 1 184.25 -348 1 0 1
0 -149 32 145 0 0 1 184.25 -345.75 1 0 1
0 -149 40 145 0 0 1 184.125 -345.75 1 0 1
wood_woodstair002c
0 -221 32 145 0 0 1 184.25 -348 1 0 1
0 -149 40 145 0 0 1 184.125 -345.75 1 0 1
0 -221 40 145 0 0 1 184.125 -348 1 0 1
plaster_plasterwall029a
0 -167 -28 51 0 1 0 -86.84375 -1.328125 1 0 1
0 -167 -28 49 0 1 0 -86.84375 -1.34375 1 0 1
0 -215 -28 49 0 1 0 -87.21875 -1.34375 1 0 1
plaster_plasterwall029a
0 -167 -28 51 0 1 0 -86.84375 -1.328125 1 0 1
0 -215 -28 49 0 1 0 -87.21875 -1.34375 1 0 1
0 -215 -28 51 0 1 0 -87.21875 -1.328125 1 0 1
plaster_plasterwall029a
0 -167 -32 49 0 -1 0 -86.84375 -1.34375 1 0 1
0 -167 -32 51 0 -1 0 -86.84375 -1.328125 1 0 1
0 -215 -32 51 0 -1 0 -87.21875 -1.328125 1 0 1
plaster_plasterwall029a
0 -167 -32 49 0 -1 0 -86.84375 -1.34375 1 0 1
0 -215 -32 51 0 -1 0 -87.21875 -1.328125 1 0 1
0 -215 -32 49 0 -1 0 -87.21875 -1.34375 1 0 1
plaster_plasterwall029a
0 -215 -32 49 -1 0 0 93.125 -1.34375 1 0 1
0 -215 -32 51 -1 0 0 93.125 -1.328125 1 0 1
0 -215 -28 51 -1 0 0 93.09375 -1.328125 1 0 1
plaster_plasterwall029a
0 -215 -32 49 -1 0 0 93.125 -1.34375 1 0 1
0 -215 -28 51 -1 0 0 93.09375 -1.328125 1 0 1
0 -215 -28 49 -1 0 0 93.09375 -1.34375 1 0 1
plaster_plasterwall029a
0 -167 -32 51 1 0 0 93.125 -1.328125 1 0 1
0 -167 -32 49 1 0 0 93.125 -1.34375 1 0 1
0 -167 -28 49 1 0 0 93.09375 -1.34375 1 0 1
plaster_plasterwall029a
0 -167 -32 51 1 0 0 93.125 -1.328125 1 0 1
0 -167 -28 49 1 0 0 93.09375 -1.34375 1 0 1
0 -167 -28 51 1 0 0 93.09375 -1.328125 1 0 1
plaster_plasterwall029a
0 -167 -32 49 0 0 -1 93.125 -85.84375 1 0 1
0 -215 -32 49 0 0 -1 93.125 -86.21875 1 0 1
0 -215 -28 49 0 0 -1 93.09375 -86.21875 1 0 1
plaster_plasterwall029a
0 -167 -32 49 0 0 -1 93.125 -85.84375 1 0 1
0 -215 -28 49 0 0 -1 93.09375 -86.21875 1 0 1
0 -167 -28 49 0 0 -1 93.09375 -85.84375 1 0 1
plaster_plasterwall029a
0 -215 -32 51 0 0 1 93.125 -86.21875 1 0 1
0 -167 -32 51 0 0 1 93.125 -85.84375 1 0 1
0 -167 -28 51 0 0 1 93.09375 -85.84375 1 0 1
plaster_plasterwall029a
0 -215 -32 51 0 0 1 93.125 -86.21875 1 0 1
0 -167 -28 51 0 0 1 93.09375 -85.84375 1 0 1
0 -215 -28 51 0 0 1 93.09375 -86.21875 1 0 1
plaster_plasterwall029a
0 -167 -32 251 1 0 0 93.125 0.234375 1 0 1
0 -167 -28 251 1 0 0 93.09375 0.234375 1 0 1
0 -167 -28 253 1 0 0 93.09375 0.25 1 0 1
plaster_plasterwall029a
0 -167 -32 251 1 0 0 93.125 0.234375 1 0 1
0 -167 -28 253 1 0 0 93.09375 0.25 1 0 1
0 -167 -32 253 1 0 0 93.125 0.25 1 0 1
plaster_plasterwall029a
0 -215 -32 251 0 0 -1 93.125 -86.21875 1 0 1
0 -215 -28 251 0 0 -1 93.09375 -86.21875 1 0 1
0 -167 -28 251 0 0 -1 93.09375 -85.84375 1 0 1
plaster_plasterwall029a
0 -215 -32 251 0 0 -1 93.125 -86.21875 1 0 1
0 -167 -28 251 0 0 -1 93.09375 -85.84375 1 0 1
0 -167 -32 251 0 0 -1 93.125 -85.84375 1 0 1
plaster_plasterwall029a
0 -167 -32 253 0 0 1 93.125 -85.84375 1 0 1
0 -167 -28 253 0 0 1 93.09375 -85.84375 1 0 1
0 -215 -28 253 0 0 1 93.09375 -86.21875 1 0 1
plaster_plasterwall029a
0 -167 -32 253 0 0 1 93.125 -85.84375 1 0 1
0 -215 -28 253 0 0 1 93.09375 -86.21875 1 0 1
0 -215 -32 253 0 0 1 93.125 -86.21875 1 0 1
plaster_plasterwall029a
0 -167 -28 253 0 1 0 -86.84375 0.25 1 0 1
0 -167 -28 251 0 1 0 -86.84375 0.234375 1 0 1
0 -215 -28 251 0 1 0 -87.21875 0.234375 1 0 1
plaster_plasterwall029a
0 -167 -28 253 0 1 0 -86.84375 0.25 1 0 1
0 -215 -28 251 0 1 0 -87.21875 0.234375 1 0 1
0 -215 -28 253 0 1 0 -87.21875 0.25 1 0 1
plaster_plasterwall029a
0 -167 -32 251 0 -1 0 -87.078125 -0.234375 1 0 1
0 -167 -32 253 0 -1 0 -87.078125 -0.21875 1 0 1
0 -215 -32 253 0 -1 0 -87.453125 -0.21875 1 0 1
plaster_plasterwall029a
0 -167 -32 251 0 -1 0 -87.078125 -0.234375 1 0 1
0 -215 -32 253 0 -1 0 -87.453125 -0.21875 1 0 1
0 -215 -32 251 0 -1 0 -87.453125 -0.234375 1 0 1
plaster_plasterwall029a
0 -167 -28 125 0 1 0 -86.84375 -0.75 1 0 1
0 -167 -28 123 0 1 0 -86.84375 -0.765625 1 0 1
0 -215 -28 123 0 1 0 -87.21875 -0.765625 1 0 1
plaster_plasterwall029a
0 -167 -28 125 0 1 0 -86.84375 -0.75 1 0 1
0 -215 -28 123 0 1 0 -87.21875 -0.765625 1 0 1
0 -215 -28 125 0 1 0 -87.21875 -0.75 1 0 1
plaster_plasterwall029a
0 -167 -32 123 0 -1 0 -87.078125 -1.234375 1 0 1
0 -167 -32 125 0 -1 0 -87.078125 -1.21875 1 0 1
0 -215 -32 125 0 -1 0 -87.453125 -1.21875 1 0 1
plaster_plasterwall029a
0 -167 -32 123 0 -1 0 -87.078125 -1.234375 1 0 1
0 -215 -32 125 0 -1 0 -87.453125 -1.21875 1 0 1
0 -215 -32 123 0 -1 0 -87.453125 -1.234375 1 0 1
plaster_plasterwall029a
0 -215 -32 123 -1 0 0 93.125 -0.765625 1 0 1
0 -215 -32 125 -1 0 0 93.125 -0.75 1 0 1
0 -215 -28 125 -1 0 0 93.09375 -0.75 1 0 1
plaster_plasterwall029a
0 -215 -32 123 -1 0 0 93.125 -0.765625 1 0 1
0 -215 -28 125 -1 0 0 93.09375 -0.75 1 0 1
0 -215 -28 123 -1 0 0 93.09375 -0.765625 1 0 1
plaster_plasterwall029a
0 -167 -32 125 1 0 0 93.125 -0.75 1 0 1
0 -167 -32 123 1 0 0 93.125 -0.765625 1 0 1
0 -167 -28 123 1 0 0 93.09375 -0.765625 1 0 1
plaster_plasterwall029a
0 -167 -32 125 1 0 0 93.125 -0.75 1 0 1
0 -167 -28 123 1 0 0 93.09375 -0.765625 1 0 1
0 -167 -28 125 1 0 0 93.09375 -0.75 1 0 1
plaster_plasterwall029a
0 -167 -32 123 0 0 -1 93.125 -85.84375 1 0 1
0 -215 -32 123 0 0 -1 93.125 -86.21875 1 0 1
0 -215 -28 123 0 0 -1 93.09375 -86.21875 1 0 1
plaster_plasterwall029a
0 -167 -32 123 0 0 -1 93.125 -85.84375 1 0 1
0 -215 -28 123 0 0 -1 93.09375 -86.21875 1 0 1
0 -167 -28 123 0 0 -1 93.09375 -85.84375 1 0 1
plaster_plasterwall029a
0 -215 -32 125 0 0 1 93.125 -86.21875 1 0 1
0 -167 -32 125 0 0 1 93.125 -85.84375 1 0 1
0 -167 -28 125 0 0 1 93.09375 -85.84375 1 0 1
plaster_plasterwall029a
0 -215 -32 125 0 0 1 93.125 -86.21875 1 0 1
0 -167 -28 125 0 0 1 93.09375 -85.84375 1 0 1
0 -215 -28 125 0 0 1 93.09375 -86.21875 1 0 1
wood_woodstair002a
0 -149 40 24 0 1 0 -230.19069 -46.5 1 0 1
0 -149 40 16 0 1 0 -230.19069 -47.5 1 0 1
0 -221 40 16 0 1 0 -231.68989 -47.5 1 0 1
wood_woodstair002a
0 -149 40 24 0 1 0 -230.19069 -46.5 1 0 1
0 -221 40 16 0 1 0 -231.68989 -47.5 1 0 1
0 -221 40 24 0 1 0 -231.68989 -46.5 1 0 1
wood_woodstair002a
0 -149 32 16 0 -1 0 -230.19069 -47.5 1 0 1
0 -149 32 24 0 -1 0 -230.19069 -46.5 1 0 1
0 -221 32 24 0 -1 0 -231.68989 -46.5 1 0 1
wood_woodstair002a
0 -149 32 16 0 -1 0 -230.19069 -47.5 1 0 1
0 -221 32 24 0 -1 0 -231.68989 -46.5 1 0 1
0 -221 32 16 0 -1 0 -231.68989 -47.5 1 0 1
wood_woodstair002c
0 -149 32 16 0 0 -1 183.5 -344.765625 1 0 1
0 -221 32 16 0 0 -1 183.5 -347.015625 1 0 1
0 -221 40 16 0 0 -1 183.375 -347.015625 1 0 1
wood_woodstair002c
0 -149 32 16 0 0 -1 183.5 -344.765625 1 0 1
0 -221 40 16 0 0 -1 183.375 -347.015625 1 0 1
0 -149 40 16 0 0 -1 183.375 -344.765625 1 0 1
wood_woodstair002c
0 -221 32 24 0 0 1 183.5 -347.015625 1 0 1
0 -149 32 24 0 0 1 183.5 -344.765625 1 0 1
0 -149 40 24 0 0 1 183.375 -344.765625 1 0 1
wood_woodstair002c
0 -221 32 24 0 0 1 183.5 -347.015625 1 0 1
0 -149 40 24 0 0 1 183.375 -344.765625 1 0 1
0 -221 40 24 0 0 1 183.375 -347.015625 1 0 1
wood_woodstair002c
0 132 -24 248.999 -1 0 0 158.935538 -3.875031 1 0 1
0 132 -24 257 -1 0 0 158.935538 -3.625 1 0 1
0 132 32 257 -1 0 0 158.185624 -3.625 1 0 1
wood_woodstair002c
0 132 -24 248.999 -1 0 0 158.935538 -3.875031 1 0 1
0 132 32 257 -1 0 0 158.185624 -3.625 1 0 1
0 132 32 248.999 -1 0 0 158.185624 -3.875031 1 0 1
wood_woodfloor007a
0 132 -24 257 0 0 1 -84.625 -92.0625 1 0 1
0 140 -24 257 0 0 1 -84.5625 -92.0625 1 0 1
0 140 32 257 0 0 1 -84.5625 -91.625 1 0 1
wood_woodfloor007a
0 132 -24 257 0 0 1 -84.625 -92.0625 1 0 1
0 140 32 257 0 0 1 -84.5625 -91.625 1 0 1
0 132 32 257 0 0 1 -84.625 -91.625 1 0 1
plaster_wallpaper002a
0 164 -24 152.999 1 0 0 93.0625 -1.000008 1 0 1
0 164 -24 25 1 0 0 93.0625 -2 1 0 1
0 164 32 25 1 0 0 92.625 -2 1 0 1
plaster_wallpaper002a
0 164 -24 152.999 1 0 0 93.0625 -1.000008 1 0 1
0 164 32 25 1 0 0 92.625 -2 1 0 1
0 164 32 152.999 1 0 0 92.625 -1.000008 1 0 1
wood_woodstair002c
0 140 -24 128.999 -1 0 0 158.935538 -7.625031 1 0 1
0 140 -24 137 -1 0 0 158.935538 -7.375 1 0 1
0 140 32 137 -1 0 0 158.185624 -7.375 1 0 1
wood_woodstair002c
0 140 -24 128.999 -1 0 0 158.935538 -7.625031 1 0 1
0 140 32 137 -1 0 0 158.185624 -7.375 1 0 1
0 140 32 128.999 -1 0 0 158.185624 -7.625031 1 0 1
wood_woodfloor007a
0 140 -24 137 0 0 1 -84.5625 -92.0625 1 0 1
0 148 -24 137 0 0 1 -84.5 -92.0625 1 0 1
0 148 32 137 0 0 1 -84.5 -91.625 1 0 1
wood_woodfloor007a
0 140 -24 137 0 0 1 -84.5625 -92.0625 1 0 1
0 148 32 137 0 0 1 -84.5 -91.625 1 0 1
0 140 32 137 0 0 1 -84.5625 -91.625 1 0 1
metal_metalfloor005a
0 172 -24 281 1 0 0 93.0625 0.46875 1 0 1
0 172 -20 281 1 0 0 93.03125 0.46875 1 0 1
0 172 -20 393 1 0 0 93.03125 1.34375 1 0 1
metal_metalfloor005a
0 172 -24 281 1 0 0 93.0625 0.46875 1 0 1
0 172 -20 393 1 0 0 93.03125 1.34375 1 0 1
0 172 -24 393 1 0 0 93.0625 1.34375 1 0 1
metal_metalfloor005a
0 172 -20 393 0 1 0 -84.1875 1.34375 1 0 1
0 172 -20 281 0 1 0 -84.1875 0.46875 1 0 1
0 164 -20 281 0 1 0 -84.25 0.46875 1 0 1
metal_metalfloor005a
0 172 -20 393 0 1 0 -84.1875 1.34375 1 0 1
0 164 -20 281 0 1 0 -84.25 0.46875 1 0 1
0 164 -20 393 0 1 0 -84.25 1.34375 1 0 1
metal_metalfloor005a
0 164 -24 393 -1 0 0 93.0625 1.34375 1 0 1
0 164 -20 393 -1 0 0 93.03125 1.34375 1 0 1
0 164 -20 281 -1 0 0 93.03125 0.46875 1 0 1
metal_metalfloor005a
0 164 -24 393 -1 0 0 93.0625 1.34375 1 0 1
0 164 -20 281 -1 0 0 93.03125 0.46875 1 0 1
0 164 -24 281 -1 0 0 93.0625 0.46875 1 0 1
wood_wooddoor032a
0 -265 -24 136.003 0 1 0 -175.15625 -1.132789 1 0 1
0 -265 -24 25 0 1 0 -175.15625 -2 1 0 1
0 -268 -24 25 0 1 0 -175.203125 -2 1 0 1
wood_wooddoor032a
0 -265 -24 136.003 0 1 0 -175.15625 -1.132789 1 0 1
0 -268 -24 25 0 1 0 -175.203125 -2 1 0 1
0 -268 -24 133.003 0 1 0 -175.203125 -1.156227 1 0 1
wood_wooddoor032a
0 -265 -32 25 0 -1 0 -175.15625 -2 1 0 1
0 -265 -32 136.003 0 -1 0 -175.15625 -1.132789 1 0 1
0 -268 -32 133.003 0 -1 0 -175.203125 -1.156227 1 0 1
wood_wooddoor032a
0 -265 -32 25 0 -1 0 -175.15625 -2 1 0 1
0 -268 -32 133.003 0 -1 0 -175.203125 -1.156227 1 0 1
0 -268 -32 25 0 -1 0 -175.203125 -2 1 0 1
wood_wooddoor032a
0 -268 -32 25 -1 0 0 185.203125 -2 1 0 1
0 -268 -32 133.003 -1 0 0 185.203125 -1.156227 1 0 1
0 -268 -24 133.003 -1 0 0 185.078125 -1.156227 1 0 1
wood_wooddoor032a
0 -268 -32 25 -1 0 0 185.203125 -2 1 0 1
0 -268 -24 133.003 -1 0 0 185.078125 -1.156227 1 0 1
0 -268 -24 25 -1 0 0 185.078125 -2 1 0 1
wood_woodstair002a
0 -149 48 265 0 1 0 -231.178971 -16.5 1 0 1
0 -149 48 257 0 1 0 -231.178971 -17.5 1 0 1
0 -221 48 257 0 1 0 -232.678172 -17.5 1 0 1
wood_woodstair002a
0 -149 48 265 0 1 0 -231.178971 -16.5 1 0 1
0 -221 48 257 0 1 0 -232.678172 -17.5 1 0 1
0 -221 48 265 0 1 0 -232.678172 -16.5 1 0 1
wood_woodstair002a
0 -149 40 257 0 -1 0 -231.178971 -17.5 1 0 1
0 -149 40 265 0 -1 0 -231.178971 -16.5 1 0 1
0 -221 40 265 0 -1 0 -232.678172 -16.5 1 0 1
wood_woodstair002a
0 -149 40 257 0 -1 0 -231.178971 -17.5 1 0 1
0 -221 40 265 0 -1 0 -232.678172 -16.5 1 0 1
0 -221 40 257 0 -1 0 -232.678172 -17.5 1 0 1
wood_woodstair002c
0 -149 40 257 0 0 -1 184.125 -345.75 1 0 1
0 -221 40 257 0 0 -1 184.125 -348 1 0 1
0 -221 48 257 0 0 -1 184 -348 1 0 1
wood_woodstair002c
0 -149 40 257 0 0 -1 184.125 -345.75 1 0 1
0 -221 48 257 0 0 -1 184 -348 1 0 1
0 -149 48 257 0 0 -1 184 -345.75 1 0 1
wood_woodstair002c
0 -221 40 265 0 0 1 184.125 -348 1 0 1
0 -149 40 265 0 0 1 184.125 -345.75 1 0 1
0 -149 48 265 0 0 1 184 -345.75 1 0 1
wood_woodstair002c
0 -221 40 265 0 0 1 184.125 -348 1 0 1
0 -149 48 265 0 0 1 184 -345.75 1 0 1
0 -221 48 265 0 0 1 184 -348 1 0 1
metal_metalfloor005a
0 172 28 281 0 -1 0 -84.1875 0.46875 1 0 1
0 172 28 393 0 -1 0 -84.1875 1.34375 1 0 1
0 164 28 393 0 -1 0 -84.25 1.34375 1 0 1
metal_metalfloor005a
0 172 28 281 0 -1 0 -84.1875 0.46875 1 0 1
0 164 28 393 0 -1 0 -84.25 1.34375 1 0 1
0 164 28 281 0 -1 0 -84.25 0.46875 1 0 1
metal_metalfloor005a
0 164 28 281 -1 0 0 92.65625 0.46875 1 0 1
0 164 28 393 -1 0 0 92.65625 1.34375 1 0 1
0 164 32 393 -1 0 0 92.625 1.34375 1 0 1
metal_metalfloor005a
0 164 28 281 -1 0 0 92.65625 0.46875 1 0 1
0 164 32 393 -1 0 0 92.625 1.34375 1 0 1
0 164 32 281 -1 0 0 92.625 0.46875 1 0 1
metal_metalfloor005a
0 172 28 393 1 0 0 92.65625 1.34375 1 0 1
0 172 28 281 1 0 0 92.65625 0.46875 1 0 1
0 172 32 281 1 0 0 92.625 0.46875 1 0 1
metal_metalfloor005a
0 172 28 393 1 0 0 92.65625 1.34375 1 0 1
0 172 32 281 1 0 0 92.625 0.46875 1 0 1
0 172 32 393 1 0 0 92.625 1.34375 1 0 1
plaster_plasterwall029a
0 -314 -28 251 0 1 0 -87.984375 0.234375 1 0 1
0 -314 -28 179 0 1 0 -87.984375 -0.328125 1 0 1
0 -316 -28 179 0 1 0 -88 -0.328125 1 0 1
plaster_plasterwall029a
0 -314 -28 251 0 1 0 -87.984375 0.234375 1 0 1
0 -316 -28 179 0 1 0 -88 -0.328125 1 0 1
0 -316 -28 251 0 1 0 -88 0.234375 1 0 1
plaster_plasterwall029a
0 -314 -32 179 0 -1 0 -88.21875 -0.796875 1 0 1
0 -314 -32 251 0 -1 0 -88.21875 -0.234375 1 0 1
0 -316 -32 251 0 -1 0 -88.234375 -0.234375 1 0 1
plaster_plasterwall029a
0 -314 -32 179 0 -1 0 -88.21875 -0.796875 1 0 1
0 -316 -32 251 0 -1 0 -88.234375 -0.234375 1 0 1
0 -316 -32 179 0 -1 0 -88.234375 -0.796875 1 0 1
plaster_plasterwall029a
0 -314 -32 251 1 0 0 93.125 0.234375 1 0 1
0 -314 -32 179 1 0 0 93.125 -0.328125 1 0 1
0 -314 -28 179 1 0 0 93.09375 -0.328125 1 0 1
plaster_plasterwall029a
0 -314 -32 251 1 0 0 93.125 0.234375 1 0 1
0 -314 -28 179 1 0 0 93.09375 -0.328125 1 0 1
0 -314 -28 251 1 0 0 93.09375 0.234375 1 0 1
plaster_plasterwall029a
0 -314 -32 179 0 0 -1 93.125 -86.984375 1 0 1
0 -316 -32 179 0 0 -1 93.125 -87 1 0 1
0 -316 -28 179 0 0 -1 93.09375 -87 1 0 1
plaster_plasterwall029a
0 -314 -32 179 0 0 -1 93.125 -86.984375 1 0 1
0 -316 -28 179 0 0 -1 93.09375 -87 1 0 1
0 -314 -28 179 0 0 -1 93.09375 -86.984375 1 0 1
plaster_plasterwall029a
0 -316 -32 251 0 0 1 93.125 -87 1 0 1
0 -314 -32 251 0 0 1 93.125 -86.984375 1 0 1
0 -314 -28 251 0 0 1 93.09375 -86.984375 1 0 1
plaster_plasterwall029a
0 -316 -32 251 0 0 1 93.125 -87 1 0 1
0 -314 -28 251 0 0 1 93.09375 -86.984375 1 0 1
0 -316 -28 251 0 0 1 93.09375 -87 1 0 1
wood_woodstair002c
0 68 -24 56.999 -1 0 0 158.935538 -9.875031 1 0 1
0 68 -24 65 -1 0 0 158.935538 -9.625 1 0 1
0 68 32 65 -1 0 0 158.185624 -9.625 1 0 1
wood_woodstair002c
0 68 -24 56.999 -1 0 0 158.935538 -9.875031 1 0 1
0 68 32 65 -1 0 0 158.185624 -9.625 1 0 1
0 68 32 56.999 -1 0 0 158.185624 -9.875031 1 0 1
wood_woodfloor007a
0 68 -24 65 0 0 1 -85.125 -92.0625 1 0 1
0 76 -24 65 0 0 1 -85.0625 -92.0625 1 0 1
0 76 32 65 0 0 1 -85.0625 -91.625 1 0 1
wood_woodfloor007a
0 68 -24 65 0 0 1 -85.125 -92.0625 1 0 1
0 76 32 65 0 0 1 -85.0625 -91.625 1 0 1
0 68 32 65 0 0 1 -85.125 -91.625 1 0 1
wood_woodshelf001a
0 -169 -31 51 0 -1 0 -253.005195 -3.000872 1 0 1
0 -169 -31 123 0 -1 0 -253.005195 -2.00105 1 0 1
0 -213 -31 123 0 -1 0 -254.005049 -2.00105 1 0 1
wood_woodshelf001a
0 -169 -31 51 0 -1 0 -253.005195 -3.000872 1 0 1
0 -213 -31 123 0 -1 0 -254.005049 -2.00105 1 0 1
0 -213 -31 51 0 -1 0 -254.005049 -3.000872 1 0 1
wood_woodshelf001a
0 -169 -30 123 0 1 0 -253.005195 -2.00105 1 0 1
0 -169 -30 51 0 1 0 -253.005195 -3.000872 1 0 1
0 -213 -30 51 0 1 0 -254.005049 -3.000872 1 0 1
wood_woodshelf001a
0 -169 -30 123 0 1 0 -253.005195 -2.00105 1 0 1
0 -213 -30 51 0 1 0 -254.005049 -3.000872 1 0 1
0 -213 -30 123 0 1 0 -254.005049 -2.00105 1 0 1
wood_woodfloor007a
0 60 -24 57 0 0 1 -85.1875 -92.0625 1 0 1
0 68 -24 57 0 0 1 -85.125 -92.0625 1 0 1
0 68 32 57 0 0 1 -85.125 -91.625 1 0 1
wood_woodfloor007a
0 60 -24 57 0 0 1 -85.1875 -92.0625 1 0 1
0 68 32 57 0 0 1 -85.125 -91.625 1 0 1
0 60 32 57 0 0 1 -85.1875 -91.625 1 0 1
wood_woodstair002c
0 60 -24 57 -1 0 0 158.935538 -9.875 1 0 1
0 60 32 57 -1 0 0 158.185624 -9.875 1 0 1
0 60 32 48.999 -1 0 0 158.185624 -10.125031 1 0 1
wood_woodstair002c
0 60 -24 57 -1 0 0 158.935538 -9.875 1 0 1
0 60 32 48.999 -1 0 0 158.185624 -10.125031 1 0 1
0 60 -24 48.999 -1 0 0 158.935538 -10.125031 1 0 1
wood_woodstair002c
0 60 -24 185 -1 0 0 158.935538 -5.875 1 0 1
0 60 32 185 -1 0 0 158.185624 -5.875 1 0 1
0 60 32 176.999 -1 0 0 158.185624 -6.125031 1 0 1
wood_woodstair002c
0 60 -24 185 -1 0 0 158.935538 -5.875 1 0 1
0 60 32 176.999 -1 0 0 158.185624 -6.125031 1 0 1
0 60 -24 176.999 -1 0 0 158.935538 -6.125031 1 0 1
wood_woodfloor007a
0 68 -24 185 0 0 1 -85.125 -92.0625 1 0 1
0 68 32 185 0 0 1 -85.125 -91.625 1 0 1
0 60 32 185 0 0 1 -85.1875 -91.625 1 0 1
wood_woodfloor007a
0 68 -24 185 0 0 1 -85.125 -92.0625 1 0 1
0 60 32 185 0 0 1 -85.1875 -91.625 1 0 1
0 60 -24 185 0 0 1 -85.1875 -92.0625 1 0 1
wood_wooddoor032a
0 -316 -24 132.997 0 1 0 -175.953125 -1.156273 1 0 1
0 -316 -24 25 0 1 0 -175.953125 -2 1 0 1
0 -319 -24 25 0 1 0 -176 -2 1 0 1
wood_wooddoor032a
0 -316 -24 132.997 0 1 0 -175.953125 -1.156273 1 0 1
0 -319 -24 25 0 1 0 -176 -2 1 0 1
0 -319 -24 135.997 0 1 0 -176 -1.132836 1 0 1
wood_wooddoor032a
0 -316 -32 25 0 -1 0 -175.953125 -2 1 0 1
0 -316 -32 132.997 0 -1 0 -175.953125 -1.156273 1 0 1
0 -319 -32 135.997 0 -1 0 -176 -1.132836 1 0 1
wood_wooddoor032a
0 -316 -32 25 0 -1 0 -175.953125 -2 1 0 1
0 -319 -32 135.997 0 -1 0 -176 -1.132836 1 0 1
0 -319 -32 25 0 -1 0 -176 -2 1 0 1
wood_wooddoor032a
0 -316 -32 132.997 1 0 0 185.203125 -1.156273 1 0 1
0 -316 -32 25 1 0 0 185.203125 -2 1 0 1
0 -316 -24 25 1 0 0 185.078125 -2 1 0 1
wood_wooddoor032a
0 -316 -32 132.997 1 0 0 185.203125 -1.156273 1 0 1
0 -316 -24 25 1 0 0 185.078125 -2 1 0 1
0 -316 -24 132.997 1 0 0 185.078125 -1.156273 1 0 1
brick_brickwall053e
0 -125 -48 249 0 -1 0 -86.5 0.5 1 0 1
0 -125 -48 281 0 -1 0 -86.5 0.75 1 0 1
0 -149 -48 281 0 -1 0 -86.6875 0.75 1 0 1
brick_brickwall053e
0 -125 -48 249 0 -1 0 -86.5 0.5 1 0 1
0 -149 -48 281 0 -1 0 -86.6875 0.75 1 0 1
0 -149 -48 249 0 -1 0 -86.6875 0.5 1 0 1
brick_brickwall053e
0 -149 -48 249 -1 0 0 93.25 0.5 1 0 1
0 -149 -48 281 -1 0 0 93.25 0.75 1 0 1
0 -149 -32 281 -1 0 0 93.125 0.75 1 0 1
brick_brickwall053e
0 -149 -48 249 -1 0 0 93.25 0.5 1 0 1
0 -149 -32 281 -1 0 0 93.125 0.75 1 0 1
0 -149 -32 249 -1 0 0 93.125 0.5 1 0 1
brick_brickwall053e
0 -125 -48 281 1 0 0 93.25 0.75 1 0 1
0 -125 -48 249 1 0 0 93.25 0.5 1 0 1
0 -125 -32 249 1 0 0 93.125 0.5 1 0 1
brick_brickwall053e
0 -125 -48 281 1 0 0 93.25 0.75 1 0 1
0 -125 -32 249 1 0 0 93.125 0.5 1 0 1
0 -125 -32 281 1 0 0 93.125 0.75 1 0 1
wood_woodshelf001a
0 -270 -30 251 0 1 0 -255.464378 -1.000932 1 0 1
0 -270 -30 179 0 1 0 -255.464378 -2.000754 1 0 1
0 -314 -30 179 0 1 0 -256.464232 -2.000754 1 0 1
wood_woodshelf001a
0 -270 -30 251 0 1 0 -255.464378 -1.000932 1 0 1
0 -314 -30 179 0 1 0 -256.464232 -2.000754 1 0 1
0 -314 -30 251 0 1 0 -256.464232 -1.000932 1 0 1
wood_woodshelf001a
0 -270 -31 179 0 -1 0 -255.464378 -2.000754 1 0 1
0 -270 -31 251 0 -1 0 -255.464378 -1.000932 1 0 1
0 -314 -31 251 0 -1 0 -256.464232 -1.000932 1 0 1
wood_woodshelf001a
0 -270 -31 179 0 -1 0 -255.464378 -2.000754 1 0 1
0 -314 -31 251 0 -1 0 -256.464232 -1.000932 1 0 1
0 -314 -31 179 0 -1 0 -256.464232 -2.000754 1 0 1
wood_woodstair002c
0 148 -24 136.999 -1 0 0 158.935538 -7.375031 1 0 1
0 148 -24 145 -1 0 0 158.935538 -7.125 1 0 1
0 148 32 145 -1 0 0 158.185624 -7.125 1 0 1
wood_woodstair002c
0 148 -24 136.999 -1 0 0 158.935538 -7.375031 1 0 1
0 148 32 145 -1 0 0 158.185624 -7.125 1 0 1
0 148 32 136.999 -1 0 0 158.185624 -7.375031 1 0 1
wood_woodfloor007a
0 148 -24 145 0 0 1 -84.5 -92.0625 1 0 1
0 156 -24 145 0 0 1 -84.4375 -92.0625 1 0 1
0 156 32 145 0 0 1 -84.4375 -91.625 1 0 1
wood_woodfloor007a
0 148 -24 145 0 0 1 -84.5 -92.0625 1 0 1
0 156 32 145 0 0 1 -84.4375 -91.625 1 0 1
0 148 32 145 0 0 1 -84.5 -91.625 1 0 1
wood_woodstair002c
0 108 -24 96.999 -1 0 0 158.935538 -8.625031 1 0 1
0 108 -24 105 -1 0 0 158.935538 -8.375 1 0 1
0 108 32 105 -1 0 0 158.185624 -8.375 1 0 1
wood_woodstair002c
0 108 -24 96.999 -1 0 0 158.935538 -8.625031 1 0 1
0 108 32 105 -1 0 0 158.185624 -8.375 1 0 1
0 108 32 96.999 -1 0 0 158.185624 -8.625031 1 0 1
wood_woodfloor007a
0 108 -24 105 0 0 1 -84.8125 -92.0625 1 0 1
0 116 -24 105 0 0 1 -84.75 -92.0625 1 0 1
0 116 32 105 0 0 1 -84.75 -91.625 1 0 1
wood_woodfloor007a
0 108 -24 105 0 0 1 -84.8125 -92.0625 1 0 1
0 116 32 105 0 0 1 -84.75 -91.625 1 0 1
0 108 32 105 0 0 1 -84.8125 -91.625 1 0 1
metal_metalfloor005a
0 -157 32 393 0 1 0 -86.75 1.34375 1 0 1
0 -157 32 389 0 1 0 -86.75 1.3125 1 0 1
0 -213 32 389 0 1 0 -87.1875 1.3125 1 0 1
metal_metalfloor005a
0 -157 32 393 0 1 0 -86.75 1.34375 1 0 1
0 -213 32 389 0 1 0 -87.1875 1.3125 1 0 1
0 -213 32 393 0 1 0 -87.1875 1.34375 1 0 1
metal_metalfloor005a
0 -157 24 389 0 -1 0 -86.75 1.3125 1 0 1
0 -157 24 393 0 -1 0 -86.75 1.34375 1 0 1
0 -213 24 393 0 -1 0 -87.1875 1.34375 1 0 1
metal_metalfloor005a
0 -157 24 389 0 -1 0 -86.75 1.3125 1 0 1
0 -213 24 393 0 -1 0 -87.1875 1.34375 1 0 1
0 -213 24 389 0 -1 0 -87.1875 1.3125 1 0 1
metal_metalfloor005a
0 -157 24 389 0 0 -1 92.6875 -85.75 1 0 1
0 -213 24 389 0 0 -1 92.6875 -86.1875 1 0 1
0 -213 32 389 0 0 -1 92.625 -86.1875 1 0 1
metal_metalfloor005a
0 -157 24 389 0 0 -1 92.6875 -85.75 1 0 1
0 -213 32 389 0 0 -1 92.625 -86.1875 1 0 1
0 -157 32 389 0 0 -1 92.625 -85.75 1 0 1
wood_woodfloor007a
0 44 -24 169 0 0 1 -85.3125 -92.0625 1 0 1
0 52 -24 169 0 0 1 -85.25 -92.0625 1 0 1
0 52 32 169 0 0 1 -85.25 -91.625 1 0 1
wood_woodfloor007a
0 44 -24 169 0 0 1 -85.3125 -92.0625 1 0 1
0 52 32 169 0 0 1 -85.25 -91.625 1 0 1
0 44 32 169 0 0 1 -85.3125 -91.625 1 0 1
wood_woodstair002c
0 44 -24 169 -1 0 0 158.935538 -6.375 1 0 1
0 44 32 169 -1 0 0 158.185624 -6.375 1 0 1
0 44 32 160.999 -1 0 0 158.185624 -6.625031 1 0 1
wood_woodstair002c
0 44 -24 169 -1 0 0 158.935538 -6.375 1 0 1
0 44 32 160.999 -1 0 0 158.185624 -6.625031 1 0 1
0 44 -24 160.999 -1 0 0 158.935538 -6.625031 1 0 1
metal_metalfloor005a
0 -209 24 281 0 -1 0 -87.15625 0.46875 1 0 1
0 -209 24 389 0 -1 0 -87.15625 1.3125 1 0 1
0 -213 24 389 0 -1 0 -87.1875 1.3125 1 0 1
metal_metalfloor005a
0 -209 24 281 0 -1 0 -87.15625 0.46875 1 0 1
0 -213 24 389 0 -1 0 -87.1875 1.3125 1 0 1
0 -213 24 281 0 -1 0 -87.1875 0.46875 1 0 1
metal_metalfloor005a
0 -209 24 389 1 0 0 92.6875 1.3125 1 0 1
0 -209 24 281 1 0 0 92.6875 0.46875 1 0 1
0 -209 32 281 1 0 0 92.625 0.46875 1 0 1
metal_metalfloor005a
0 -209 24 389 1 0 0 92.6875 1.3125 1 0 1
0 -209 32 281 1 0 0 92.625 0.46875 1 0 1
0 -209 32 389 1 0 0 92.625 1.3125 1 0 1
metal_metalfloor005a
0 -213 24 389 0 0 1 92.6875 -86.1875 1 0 1
0 -209 24 389 0 0 1 92.6875 -86.15625 1 0 1
0 -209 32 389 0 0 1 92.625 -86.15625 1 0 1
metal_metalfloor005a
0 -213 24 389 0 0 1 92.6875 -86.1875 1 0 1
0 -209 32 389 0 0 1 92.625 -86.15625 1 0 1
0 -213 32 389 0 0 1 92.625 -86.1875 1 0 1
metal_metalfloor005a
0 -209 32 389 0 1 0 -87.15625 1.3125 1 0 1
0 -209 32 281 0 1 0 -87.15625 0.46875 1 0 1
0 -213 32 281 0 1 0 -87.1875 0.46875 1 0 1
metal_metalfloor005a
0 -209 32 389 0 1 0 -87.15625 1.3125 1 0 1
0 -213 32 281 0 1 0 -87.1875 0.46875 1 0 1
0 -213 32 389 0 1 0 -87.1875 1.3125 1 0 1
gmod_tower_cafe_cafe_brick
0 -125 -48 281 -1 0 0 -93.355469 0.960938 1 0 1
0 -125 -32 281 -1 0 0 -93.230469 0.960938 1 0 1
0 -125 -32 265.001 -1 0 0 -93.230469 0.835945 1 0 1
brick_brickwall031a
0 324 -32 265.001 1 0 0 93.125 0.578133 1 0 1
0 324 -32 281 1 0 0 93.125 0.703125 1 0 1
0 324 -48 281 1 0 0 93.25 0.703125 1 0 1
brick_brickwall031a
0 -125 -48 281 0 -0.707085 -0.707129 -86.507812 -91.71875 1 0 1
0 -125 -32 265.001 0 -0.707085 -0.707129 -86.507812 -91.59375 1 0 1
0 324 -32 265.001 0 -0.707085 -0.707129 -83 -91.59375 1 0 1
brick_brickwall031a
0 -125 -48 281 0 -0.707085 -0.707129 -86.507812 -91.71875 1 0 1
0 324 -32 265.001 0 -0.707085 -0.707129 -83 -91.59375 1 0 1
0 324 -48 281 0 -0.707085 -0.707129 -83 -91.71875 1 0 1
metal_metaldoor008a
0 -80 -24 133.001 0 1 0 -172.9375 -1.156242 1 0 1
0 -80 -24 25 0 1 0 -172.9375 -2 1 0 1
0 -84 -24 25 0 1 0 -173 -2 1 0 1
metal_metaldoor008a
0 -80 -24 133.001 0 1 0 -172.9375 -1.156242 1 0 1
0 -84 -24 25 0 1 0 -173 -2 1 0 1
0 -84 -24 137.001 0 1 0 -173 -1.124992 1 0 1
metal_metaldoor008a
0 -80 -32 25 0 -1 0 -172.9375 -2 1 0 1
0 -80 -32 133.001 0 -1 0 -172.9375 -1.156242 1 0 1
0 -84 -32 137.001 0 -1 0 -173 -1.124992 1 0 1
metal_metaldoor008a
0 -80 -32 25 0 -1 0 -172.9375 -2 1 0 1
0 -84 -32 137.001 0 -1 0 -173 -1.124992 1 0 1
0 -84 -32 25 0 -1 0 -173 -2 1 0 1
metal_metaldoor008a
0 -80 -32 133.001 1 0 0 184.625 -1.156242 1 0 1
0 -80 -32 25 1 0 0 184.625 -2 1 0 1
0 -80 -24 25 1 0 0 184.5 -2 1 0 1
metal_metaldoor008a
0 -80 -32 133.001 1 0 0 184.625 -1.156242 1 0 1
0 -80 -24 25 1 0 0 184.5 -2 1 0 1
0 -80 -24 133.001 1 0 0 184.5 -1.156242 1 0 1
wood_woodstair002c
0 124 -24 240.999 -1 0 0 158.935538 -4.125031 1 0 1
0 124 -24 249 -1 0 0 158.935538 -3.875 1 0 1
0 124 32 249 -1 0 0 158.185624 -3.875 1 0 1
wood_woodstair002c
0 124 -24 240.999 -1 0 0 158.935538 -4.125031 1 0 1
0 124 32 249 -1 0 0 158.185624 -3.875 1 0 1
0 124 32 240.999 -1 0 0 158.185624 -4.125031 1 0 1
wood_woodfloor007a
0 124 -24 249 0 0 1 -84.6875 -92.0625 1 0 1
0 132 -24 249 0 0 1 -84.625 -92.0625 1 0 1
0 132 32 249 0 0 1 -84.625 -91.625 1 0 1
wood_woodfloor007a
0 124 -24 249 0 0 1 -84.6875 -92.0625 1 0 1
0 132 32 249 0 0 1 -84.625 -91.625 1 0 1
0 124 32 249 0 0 1 -84.6875 -91.625 1 0 1
wood_woodstair002c
0 100 -24 88.999 -1 0 0 158.935538 -8.875031 1 0 1
0 100 -24 97 -1 0 0 158.935538 -8.625 1 0 1
0 100 32 97 -1 0 0 158.185624 -8.625 1 0 1
wood_woodstair002c
0 100 -24 88.999 -1 0 0 158.935538 -8.875031 1 0 1
0 100 32 97 -1 0 0 158.185624 -8.625 1 0 1
0 100 32 88.999 -1 0 0 158.185624 -8.875031 1 0 1
wood_woodfloor007a
0 100 -24 97 0 0 1 -84.875 -92.0625 1 0 1
0 108 -24 97 0 0 1 -84.8125 -92.0625 1 0 1
0 108 32 97 0 0 1 -84.8125 -91.625 1 0 1
wood_woodfloor007a
0 100 -24 97 0 0 1 -84.875 -92.0625 1 0 1
0 108 32 97 0 0 1 -84.8125 -91.625 1 0 1
0 100 32 97 0 0 1 -84.875 -91.625 1 0 1
wood_woodstair002c
0 156 -24 272.999 -1 0 0 158.935538 -3.125031 1 0 1
0 156 -24 281 -1 0 0 158.935538 -2.875 1 0 1
0 156 32 281 -1 0 0 158.185624 -2.875 1 0 1
wood_woodstair002c
0 156 -24 272.999 -1 0 0 158.935538 -3.125031 1 0 1
0 156 32 281 -1 0 0 158.185624 -2.875 1 0 1
0 156 32 272.999 -1 0 0 158.185624 -3.125031 1 0 1
wood_woodfloor007a
0 156 -24 281 0 0 1 -84.4375 -92.0625 1 0 1
0 164 -24 281 0 0 1 -84.375 -92.0625 1 0 1
0 164 32 281 0 0 1 -84.375 -91.625 1 0 1
wood_woodfloor007a
0 156 -24 281 0 0 1 -84.4375 -92.0625 1 0 1
0 164 32 281 0 0 1 -84.375 -91.625 1 0 1
0 156 32 281 0 0 1 -84.4375 -91.625 1 0 1
wood_woodstair002a
0 -149 56 129 0 1 0 -231.178971 -33.5 1 0 1
0 -149 56 121 0 1 0 -231.178971 -34.5 1 0 1
0 -221 56 121 0 1 0 -232.678172 -34.5 1 0 1
wood_woodstair002a
0 -149 56 129 0 1 0 -231.178971 -33.5 1 0 1
0 -221 56 121 0 1 0 -232.678172 -34.5 1 0 1
0 -221 56 129 0 1 0 -232.678172 -33.5 1 0 1
wood_woodstair002a
0 -149 48 121 0 -1 0 -231.178971 -34.5 1 0 1
0 -149 48 129 0 -1 0 -231.178971 -33.5 1 0 1
0 -221 48 129 0 -1 0 -232.678172 -33.5 1 0 1
wood_woodstair002a
0 -149 48 121 0 -1 0 -231.178971 -34.5 1 0 1
0 -221 48 129 0 -1 0 -232.678172 -33.5 1 0 1
0 -221 48 121 0 -1 0 -232.678172 -34.5 1 0 1
wood_woodstair002c
0 -149 48 121 0 0 -1 184 -345.75 1 0 1
0 -221 48 121 0 0 -1 184 -348 1 0 1
0 -221 56 121 0 0 -1 183.875 -348 1 0 1
wood_woodstair002c
0 -149 48 121 0 0 -1 184 -345.75 1 0 1
0 -221 56 121 0 0 -1 183.875 -348 1 0 1
0 -149 56 121 0 0 -1 183.875 -345.75 1 0 1
wood_woodstair002c
0 -221 48 129 0 0 1 184 -348 1 0 1
0 -149 48 129 0 0 1 184 -345.75 1 0 1
0 -149 56 129 0 0 1 183.875 -345.75 1 0 1
wood_woodstair002c
0 -221 48 129 0 0 1 184 -348 1 0 1
0 -149 56 129 0 0 1 183.875 -345.75 1 0 1
0 -221 56 129 0 0 1 183.875 -348 1 0 1
brick_brickwall053e
0 -149 -48 249 -1 0 0 93.25 0.5 1 0 1
0 -149 -32 249 -1 0 0 93.125 0.5 1 0 1
0 -149 -32 241 -1 0 0 93.125 0.4375 1 0 1
brick_brickwall053e
0 -125 -32 241 1 0 0 93.125 0.4375 1 0 1
0 -125 -32 249 1 0 0 93.125 0.5 1 0 1
0 -125 -48 249 1 0 0 93.25 0.5 1 0 1
concrete_concreteceiling004a
0 -149 -48 249 0 -0.447214 -0.894427 93.25 -85.6875 1 0 1
0 -149 -32 241 0 -0.447214 -0.894427 93.125 -85.6875 1 0 1
0 -125 -32 241 0 -0.447214 -0.894427 93.125 -85.5 1 0 1
concrete_concreteceiling004a
0 -149 -48 249 0 -0.447214 -0.894427 93.25 -85.6875 1 0 1
0 -125 -32 241 0 -0.447214 -0.894427 93.125 -85.5 1 0 1
0 -125 -48 249 0 -0.447214 -0.894427 93.25 -85.5 1 0 1
wood_woodstair002c
0 52 -24 168.999 -1 0 0 158.935538 -6.375031 1 0 1
0 52 -24 177 -1 0 0 158.935538 -6.125 1 0 1
0 52 32 177 -1 0 0 158.185624 -6.125 1 0 1
wood_woodstair002c
0 52 -24 168.999 -1 0 0 158.935538 -6.375031 1 0 1
0 52 32 177 -1 0 0 158.185624 -6.125 1 0 1
0 52 32 168.999 -1 0 0 158.185624 -6.375031 1 0 1
wood_woodfloor007a
0 52 -24 177 0 0 1 -85.25 -92.0625 1 0 1
0 60 -24 177 0 0 1 -85.1875 -92.0625 1 0 1
0 60 32 177 0 0 1 -85.1875 -91.625 1 0 1
wood_woodfloor007a
0 52 -24 177 0 0 1 -85.25 -92.0625 1 0 1
0 60 32 177 0 0 1 -85.1875 -91.625 1 0 1
0 52 32 177 0 0 1 -85.25 -91.625 1 0 1
wood_woodstair002c
0 148 -24 264.999 -1 0 0 158.935538 -3.375031 1 0 1
0 148 -24 273 -1 0 0 158.935538 -3.125 1 0 1
0 148 32 273 -1 0 0 158.185624 -3.125 1 0 1
wood_woodstair002c
0 148 -24 264.999 -1 0 0 158.935538 -3.375031 1 0 1
0 148 32 273 -1 0 0 158.185624 -3.125 1 0 1
0 148 32 264.999 -1 0 0 158.185624 -3.375031 1 0 1
wood_woodfloor007a
0 148 -24 273 0 0 1 -84.5 -92.0625 1 0 1
0 156 -24 273 0 0 1 -84.4375 -92.0625 1 0 1
0 156 32 273 0 0 1 -84.4375 -91.625 1 0 1
wood_woodfloor007a
0 148 -24 273 0 0 1 -84.5 -92.0625 1 0 1
0 156 32 273 0 0 1 -84.4375 -91.625 1 0 1
0 148 32 273 0 0 1 -84.5 -91.625 1 0 1
wood_woodstair002c
0 92 -24 80.999 -1 0 0 158.935538 -9.125031 1 0 1
0 92 -24 89 -1 0 0 158.935538 -8.875 1 0 1
0 92 32 89 -1 0 0 158.185624 -8.875 1 0 1
wood_woodstair002c
0 92 -24 80.999 -1 0 0 158.935538 -9.125031 1 0 1
0 92 32 89 -1 0 0 158.185624 -8.875 1 0 1
0 92 32 80.999 -1 0 0 158.185624 -9.125031 1 0 1
wood_woodfloor007a
0 92 -24 89 0 0 1 -84.9375 -92.0625 1 0 1
0 100 -24 89 0 0 1 -84.875 -92.0625 1 0 1
0 100 32 89 0 0 1 -84.875 -91.625 1 0 1
wood_woodfloor007a
0 92 -24 89 0 0 1 -84.9375 -92.0625 1 0 1
0 100 32 89 0 0 1 -84.875 -91.625 1 0 1
0 92 32 89 0 0 1 -84.9375 -91.625 1 0 1
wood_wooddoor032a
0 -265 -32 136 0 -1 0 -175.15625 -1.132812 1 0 1
0 -319 -32 136 0 -1 0 -176 -1.132812 1 0 1
0 -316 -32 133 0 -1 0 -175.953125 -1.15625 1 0 1
wood_wooddoor032a
0 -265 -32 136 0 -1 0 -175.15625 -1.132812 1 0 1
0 -316 -32 133 0 -1 0 -175.953125 -1.15625 1 0 1
0 -268 -32 133 0 -1 0 -175.203125 -1.15625 1 0 1
wood_wooddoor032a
0 -268 -32 133 0 0 -1 185.214844 -86.591797 1 0 1
0 -316 -32 133 0 0 -1 185.214844 -86.966797 1 0 1
0 -316 -24 133 0 0 -1 185.089844 -86.966797 1 0 1
wood_wooddoor032a
0 -268 -32 133 0 0 -1 185.214844 -86.591797 1 0 1
0 -316 -24 133 0 0 -1 185.089844 -86.966797 1 0 1
0 -268 -24 133 0 0 -1 185.089844 -86.591797 1 0 1
wood_wooddoor032a
0 -268 -24 133 0 1 0 -175.203125 -1.15625 1 0 1
0 -316 -24 133 0 1 0 -175.953125 -1.15625 1 0 1
0 -319 -24 136 0 1 0 -176 -1.132812 1 0 1
wood_wooddoor032a
0 -268 -24 133 0 1 0 -175.203125 -1.15625 1 0 1
0 -319 -24 136 0 1 0 -176 -1.132812 1 0 1
0 -265 -24 136 0 1 0 -175.15625 -1.132812 1 0 1
brick_brickwall031d
0 324 -48 281 1 0 0 93.25 0.703125 1 0 1
0 324 -32 281 1 0 0 93.125 0.703125 1 0 1
0 324 -32 313 1 0 0 93.125 0.953125 1 0 1
brick_brickwall031d
0 324 -48 281 1 0 0 93.25 0.703125 1 0 1
0 324 -32 313 1 0 0 93.125 0.953125 1 0 1
0 324 -48 313 1 0 0 93.25 0.953125 1 0 1
pepsi2_arch_concrete_floor_smooth01
0 -125 -48 281 0 0 -1 -92.8125 -85.421875 1 0 1
0 -125 -32 281 0 0 -1 -92.6875 -85.421875 1 0 1
0 324 -32 281 0 0 -1 -92.6875 -81.914062 1 0 1
pepsi2_arch_concrete_floor_smooth01
0 -125 -48 281 0 0 -1 -92.8125 -85.421875 1 0 1
0 324 -32 281 0 0 -1 -92.6875 -81.914062 1 0 1
0 324 -48 281 0 0 -1 -92.8125 -81.914062 1 0 1
concrete_concretefloor005a
0 324 -48 313 0 0 1 92.679688 -82.625 1 0 1
0 324 -32 313 0 0 1 92.554688 -82.625 1 0 1
0 -125 -32 313 0 0 1 92.554688 -86.132812 1 0 1
concrete_concretefloor005a
0 324 -48 313 0 0 1 92.679688 -82.625 1 0 1
0 -125 -32 313 0 0 1 92.554688 -86.132812 1 0 1
0 -125 -48 313 0 0 1 92.679688 -86.132812 1 0 1
brick_brickwall031d
0 324 -32 313 0 1 0 -83 0.953125 1 0 1
0 324 -32 281 0 1 0 -83 0.703125 1 0 1
0 -125 -32 281 0 1 0 -86.507812 0.703125 1 0 1
brick_brickwall031d
0 324 -32 313 0 1 0 -83 0.953125 1 0 1
0 -125 -32 281 0 1 0 -86.507812 0.703125 1 0 1
0 -125 -32 313 0 1 0 -86.507812 0.953125 1 0 1
brick_brickwall031d
0 324 -48 281 0 -1 0 -83 0.703125 1 0 1
0 324 -48 313 0 -1 0 -83 0.953125 1 0 1
0 -125 -48 313 0 -1 0 -86.507812 0.953125 1 0 1
brick_brickwall031d
0 324 -48 281 0 -1 0 -83 0.703125 1 0 1
0 -125 -48 313 0 -1 0 -86.507812 0.953125 1 0 1
0 -125 -48 281 0 -1 0 -86.507812 0.703125 1 0 1
wood_woodstair002c
0 164 -24 272.999 0.707107 0 -0.707107 -168.996094 -315.699201 1 0 1
0 36 -24 144.999 0.707107 0 -0.707107 -170.996094 -315.699201 1 0 1
0 36 32 144.999 0.707107 0 -0.707107 -170.996094 -314.199373 1 0 1
wood_woodstair002c
0 164 -24 272.999 0.707107 0 -0.707107 -168.996094 -315.699201 1 0 1
0 36 32 144.999 0.707107 0 -0.707107 -170.996094 -314.199373 1 0 1
0 164 32 272.999 0.707107 0 -0.707107 -168.996094 -314.199373 1 0 1
plaster_plasterwall029a
0 -167 -28 123 0 1 0 -86.84375 -0.765625 1 0 1
0 -167 -28 51 0 1 0 -86.84375 -1.328125 1 0 1
0 -169 -28 51 0 1 0 -86.859375 -1.328125 1 0 1
plaster_plasterwall029a
0 -167 -28 123 0 1 0 -86.84375 -0.765625 1 0 1
0 -169 -28 51 0 1 0 -86.859375 -1.328125 1 0 1
0 -169 -28 123 0 1 0 -86.859375 -0.765625 1 0 1
plaster_plasterwall029a
0 -167 -32 51 0 -1 0 -86.84375 -1.328125 1 0 1
0 -167 -32 123 0 -1 0 -86.84375 -0.765625 1 0 1
0 -169 -32 123 0 -1 0 -86.859375 -0.765625 1 0 1
plaster_plasterwall029a
0 -167 -32 51 0 -1 0 -86.84375 -1.328125 1 0 1
0 -169 -32 123 0 -1 0 -86.859375 -0.765625 1 0 1
0 -169 -32 51 0 -1 0 -86.859375 -1.328125 1 0 1
plaster_plasterwall029a
0 -169 -32 51 -1 0 0 93.125 -1.328125 1 0 1
0 -169 -32 123 -1 0 0 93.125 -0.765625 1 0 1
0 -169 -28 123 -1 0 0 93.09375 -0.765625 1 0 1
plaster_plasterwall029a
0 -169 -32 51 -1 0 0 93.125 -1.328125 1 0 1
0 -169 -28 123 -1 0 0 93.09375 -0.765625 1 0 1
0 -169 -28 51 -1 0 0 93.09375 -1.328125 1 0 1
plaster_plasterwall029a
0 -167 -32 123 1 0 0 93.125 -0.765625 1 0 1
0 -167 -32 51 1 0 0 93.125 -1.328125 1 0 1
0 -167 -28 51 1 0 0 93.09375 -1.328125 1 0 1
plaster_plasterwall029a
0 -167 -32 123 1 0 0 93.125 -0.765625 1 0 1
0 -167 -28 51 1 0 0 93.09375 -1.328125 1 0 1
0 -167 -28 123 1 0 0 93.09375 -0.765625 1 0 1
plaster_plasterwall029a
0 -167 -32 51 0 0 -1 93.125 -85.84375 1 0 1
0 -169 -32 51 0 0 -1 93.125 -85.859375 1 0 1
0 -169 -28 51 0 0 -1 93.09375 -85.859375 1 0 1
plaster_plasterwall029a
0 -167 -32 51 0 0 -1 93.125 -85.84375 1 0 1
0 -169 -28 51 0 0 -1 93.09375 -85.859375 1 0 1
0 -167 -28 51 0 0 -1 93.09375 -85.84375 1 0 1
plaster_plasterwall029a
0 -169 -32 123 0 0 1 93.125 -85.859375 1 0 1
0 -167 -32 123 0 0 1 93.125 -85.84375 1 0 1
0 -167 -28 123 0 0 1 93.09375 -85.84375 1 0 1
plaster_plasterwall029a
0 -169 -32 123 0 0 1 93.125 -85.859375 1 0 1
0 -167 -28 123 0 0 1 93.09375 -85.84375 1 0 1
0 -169 -28 123 0 0 1 93.09375 -85.859375 1 0 1
wood_woodstair002c
0 -149 32 265 0 0 -1 184.25 -345.75 1 0 1
0 -221 32 265 0 0 -1 184.25 -348 1 0 1
0 -221 40 265 0 0 -1 184.125 -348 1 0 1
wood_woodstair002c
0 -149 32 265 0 0 -1 184.25 -345.75 1 0 1
0 -221 40 265 0 0 -1 184.125 -348 1 0 1
0 -149 40 265 0 0 -1 184.125 -345.75 1 0 1
wood_woodstair002c
0 -221 32 273 0 0 1 184.25 -348 1 0 1
0 -149 32 273 0 0 1 184.25 -345.75 1 0 1
0 -149 40 273 0 0 1 184.125 -345.75 1 0 1
wood_woodstair002c
0 -221 32 273 0 0 1 184.25 -348 1 0 1
0 -149 40 273 0 0 1 184.125 -345.75 1 0 1
0 -221 40 273 0 0 1 184.125 -348 1 0 1
wood_woodstair002a
0 -149 40 265 0 1 0 -231.178971 -16.5 1 0 1
0 -221 40 265 0 1 0 -232.678172 -16.5 1 0 1
0 -221 40 273 0 1 0 -232.678172 -15.5 1 0 1
wood_woodstair002a
0 -149 40 265 0 1 0 -231.178971 -16.5 1 0 1
0 -221 40 273 0 1 0 -232.678172 -15.5 1 0 1
0 -149 40 273 0 1 0 -231.178971 -15.5 1 0 1
wood_woodstair002a
0 -149 32 273 0 -1 0 -231.178971 -15.5 1 0 1
0 -221 32 273 0 -1 0 -232.678172 -15.5 1 0 1
0 -221 32 265 0 -1 0 -232.678172 -16.5 1 0 1
wood_woodstair002a
0 -149 32 273 0 -1 0 -231.178971 -15.5 1 0 1
0 -221 32 265 0 -1 0 -232.678172 -16.5 1 0 1
0 -149 32 265 0 -1 0 -231.178971 -16.5 1 0 1
metal_metalfloor005a
0 -161 24 389 -1 0 0 92.6875 1.3125 1 0 1
0 -161 32 389 -1 0 0 92.625 1.3125 1 0 1
0 -161 32 281 -1 0 0 92.625 0.46875 1 0 1
metal_metalfloor005a
0 -161 24 389 -1 0 0 92.6875 1.3125 1 0 1
0 -161 32 281 -1 0 0 92.625 0.46875 1 0 1
0 -161 24 281 -1 0 0 92.6875 0.46875 1 0 1
metal_metalfloor005a
0 -157 24 389 0 0 1 92.6875 -85.75 1 0 1
0 -157 32 389 0 0 1 92.625 -85.75 1 0 1
0 -161 32 389 0 0 1 92.625 -85.78125 1 0 1
metal_metalfloor005a
0 -157 24 389 0 0 1 92.6875 -85.75 1 0 1
0 -161 32 389 0 0 1 92.625 -85.78125 1 0 1
0 -161 24 389 0 0 1 92.6875 -85.78125 1 0 1
metal_metalfloor005a
0 -157 32 389 0 1 0 -86.75 1.3125 1 0 1
0 -157 32 281 0 1 0 -86.75 0.46875 1 0 1
0 -161 32 281 0 1 0 -86.78125 0.46875 1 0 1
metal_metalfloor005a
0 -157 32 389 0 1 0 -86.75 1.3125 1 0 1
0 -161 32 281 0 1 0 -86.78125 0.46875 1 0 1
0 -161 32 389 0 1 0 -86.78125 1.3125 1 0 1
metal_metalfloor005a
0 -157 24 281 0 -1 0 -86.75 0.46875 1 0 1
0 -157 24 389 0 -1 0 -86.75 1.3125 1 0 1
0 -161 24 389 0 -1 0 -86.78125 1.3125 1 0 1
metal_metalfloor005a
0 -157 24 281 0 -1 0 -86.75 0.46875 1 0 1
0 -161 24 389 0 -1 0 -86.78125 1.3125 1 0 1
0 -161 24 281 0 -1 0 -86.78125 0.46875 1 0 1
wood_woodstair002c
0 76 -24 192.999 -1 0 0 158.935538 -5.625031 1 0 1
0 76 -24 201 -1 0 0 158.935538 -5.375 1 0 1
0 76 32 201 -1 0 0 158.185624 -5.375 1 0 1
wood_woodstair002c
0 76 -24 192.999 -1 0 0 158.935538 -5.625031 1 0 1
0 76 32 201 -1 0 0 158.185624 -5.375 1 0 1
0 76 32 192.999 -1 0 0 158.185624 -5.625031 1 0 1
wood_woodfloor007a
0 76 -24 201 0 0 1 -85.0625 -92.0625 1 0 1
0 84 -24 201 0 0 1 -85 -92.0625 1 0 1
0 84 32 201 0 0 1 -85 -91.625 1 0 1
wood_woodfloor007a
0 76 -24 201 0 0 1 -85.0625 -92.0625 1 0 1
0 84 32 201 0 0 1 -85 -91.625 1 0 1
0 76 32 201 0 0 1 -85.0625 -91.625 1 0 1
wood_woodstair002a
0 -149 56 257 0 1 0 -231.178971 -17.5 1 0 1
0 -149 56 249 0 1 0 -231.178971 -18.5 1 0 1
0 -221 56 249 0 1 0 -232.678172 -18.5 1 0 1
wood_woodstair002a
0 -149 56 257 0 1 0 -231.178971 -17.5 1 0 1
0 -221 56 249 0 1 0 -232.678172 -18.5 1 0 1
0 -221 56 257 0 1 0 -232.678172 -17.5 1 0 1
wood_woodstair002a
0 -149 48 249 0 -1 0 -231.178971 -18.5 1 0 1
0 -149 48 257 0 -1 0 -231.178971 -17.5 1 0 1
0 -221 48 257 0 -1 0 -232.678172 -17.5 1 0 1
wood_woodstair002a
0 -149 48 249 0 -1 0 -231.178971 -18.5 1 0 1
0 -221 48 257 0 -1 0 -232.678172 -17.5 1 0 1
0 -221 48 249 0 -1 0 -232.678172 -18.5 1 0 1
wood_woodstair002c
0 -149 48 249 0 0 -1 184 -345.75 1 0 1
0 -221 48 249 0 0 -1 184 -348 1 0 1
0 -221 56 249 0 0 -1 183.875 -348 1 0 1
wood_woodstair002c
0 -149 48 249 0 0 -1 184 -345.75 1 0 1
0 -221 56 249 0 0 -1 183.875 -348 1 0 1
0 -149 56 249 0 0 -1 183.875 -345.75 1 0 1
wood_woodstair002c
0 -221 48 257 0 0 1 184 -348 1 0 1
0 -149 48 257 0 0 1 184 -345.75 1 0 1
0 -149 56 257 0 0 1 183.875 -345.75 1 0 1
wood_woodstair002c
0 -221 48 257 0 0 1 184 -348 1 0 1
0 -149 56 257 0 0 1 183.875 -345.75 1 0 1
0 -221 56 257 0 0 1 183.875 -348 1 0 1
wood_woodstair002c
0 36 -24 24.999 -1 0 0 158.935538 -10.875031 1 0 1
0 36 -24 33 -1 0 0 158.935538 -10.625 1 0 1
0 36 32 33 -1 0 0 158.185624 -10.625 1 0 1
wood_woodstair002c
0 36 -24 24.999 -1 0 0 158.935538 -10.875031 1 0 1
0 36 32 33 -1 0 0 158.185624 -10.625 1 0 1
0 36 32 24.999 -1 0 0 158.185624 -10.875031 1 0 1
wood_woodfloor007a
0 36 -24 33 0 0 1 -85.375 -92.0625 1 0 1
0 44 -24 33 0 0 1 -85.3125 -92.0625 1 0 1
0 44 32 33 0 0 1 -85.3125 -91.625 1 0 1
wood_woodfloor007a
0 36 -24 33 0 0 1 -85.375 -92.0625 1 0 1
0 44 32 33 0 0 1 -85.3125 -91.625 1 0 1
0 36 32 33 0 0 1 -85.375 -91.625 1 0 1
wood_woodstair002c
0 140 -24 256.999 -1 0 0 158.935538 -3.625031 1 0 1
0 140 -24 265 -1 0 0 158.935538 -3.375 1 0 1
0 140 32 265 -1 0 0 158.185624 -3.375 1 0 1
wood_woodstair002c
0 140 -24 256.999 -1 0 0 158.935538 -3.625031 1 0 1
0 140 32 265 -1 0 0 158.185624 -3.375 1 0 1
0 140 32 256.999 -1 0 0 158.185624 -3.625031 1 0 1
wood_woodfloor007a
0 140 -24 265 0 0 1 -84.5625 -92.0625 1 0 1
0 148 -24 265 0 0 1 -84.5 -92.0625 1 0 1
0 148 32 265 0 0 1 -84.5 -91.625 1 0 1
wood_woodfloor007a
0 140 -24 265 0 0 1 -84.5625 -92.0625 1 0 1
0 148 32 265 0 0 1 -84.5 -91.625 1 0 1
0 140 32 265 0 0 1 -84.5625 -91.625 1 0 1
wood_woodstair002c
0 76 -24 64.999 -1 0 0 158.935538 -9.625031 1 0 1
0 76 -24 73 -1 0 0 158.935538 -9.375 1 0 1
0 76 32 73 -1 0 0 158.185624 -9.375 1 0 1
wood_woodstair002c
0 76 -24 64.999 -1 0 0 158.935538 -9.625031 1 0 1
0 76 32 73 -1 0 0 158.185624 -9.375 1 0 1
0 76 32 64.999 -1 0 0 158.185624 -9.625031 1 0 1
wood_woodfloor007a
0 76 -24 73 0 0 1 -85.0625 -92.0625 1 0 1
0 84 -24 73 0 0 1 -85 -92.0625 1 0 1
0 84 32 73 0 0 1 -85 -91.625 1 0 1
wood_woodfloor007a
0 76 -24 73 0 0 1 -85.0625 -92.0625 1 0 1
0 84 32 73 0 0 1 -85 -91.625 1 0 1
0 76 32 73 0 0 1 -85.0625 -91.625 1 0 1
end
